<svg width="640" height="120" viewBox="0 0 640 120" xmlns="http://www.w3.org/2000/svg" xmlns:sketch="http://www.bohemiancoding.com/sketch/ns"><title>Rectangle 6</title><desc>Created with Sketch.</desc><g sketch:type="MSLayerGroup" fill="none"><g fill="#fff" sketch:type="MSShapeGroup"><path d="M174.941 107.355h288.976v.864h-288.976v-.864z"/><path d="M134.831 9.221h367.076v.864h-367.076v-.864z"/><path d="M145.3 26.969h25.004v1.531h-8.185v20.966h9.306v1.531h-27.135v-1.531h9.195v-20.966h-8.185v-1.531zm4.485 17.55c-1.272-3.925-2.655-7.775-4.149-11.543l1.458-.47c.746 1.962 1.943 5.104 3.588 9.422.298.942.522 1.61.673 2.002l-1.57.589zm5.157 4.947h5.719v-20.966h-5.719v20.966zm15.249-16.49c-1.272 3.533-2.841 7.42-4.709 11.661l-1.345-.707c1.494-3.454 3.027-7.263 4.597-11.424l1.457.47zm16.982 55.52v-1.182h-11.559c1.159-2.434 3.204-4.763 6.137-6.983 3.888-2.863 5.661-5.478 5.32-7.841-.204-3.653-2.217-5.549-6.035-5.695-3.412-.07-5.696 1.612-6.855 5.05l1.433.859c.749-2.936 2.386-4.44 4.91-4.512 3.205.072 4.842 1.611 4.911 4.619.271 1.791-1.366 4.012-4.911 6.661-3.069 2.221-5.319 4.906-6.751 8.057v.967h13.4zm-7.508-51.043c-1.271-1.098-2.579-2.197-3.924-3.298l1.121-1.178c1.346.942 2.653 2.002 3.925 3.181l-1.122 1.295zm-3.251 14.606c.597-2.121 1.494-5.654 2.691-10.601.149.08.41.197.785.352l.673.354c-.076.394-.225.942-.449 1.649-.824 3.613-1.496 6.557-2.018 8.834l-1.682-.589zm4.709-21.556c-1.346-1.412-2.691-2.709-4.037-3.886l1.122-1.178c1.345 1.178 2.728 2.396 4.148 3.652l-1.233 1.412zm5.27-5.064h1.458v8.951c0 5.184-.337 8.913-1.01 11.19-.672 2.356-2.093 4.751-4.26 7.186-.151-.159-.375-.353-.673-.589-.3-.236-.524-.432-.673-.589 2.092-2.121 3.476-4.317 4.149-6.596.673-2.199 1.009-5.732 1.009-10.602v-8.951zm-4.821 14.488c.97-2.512 1.681-4.713 2.13-6.597l1.234.354c-.6 2.355-1.234 4.594-1.907 6.713-.151 0-.336-.077-.56-.236-.375-.077-.673-.157-.897-.235zm8.633-2.474c-.524-1.727-.897-2.945-1.121-3.652l1.121-.353c.149.394.337.983.561 1.766.597 1.729 1.045 3.142 1.345 4.24l-1.233.355c-.151-.549-.375-1.335-.673-2.356zm.896 40.515c.135-7.233 2.386-10.957 6.751-11.173 4.501 0 6.752 3.727 6.752 11.173-.068 7.09-2.286 10.706-6.649 10.849-4.501-.144-6.788-3.76-6.854-10.849zm1.636 0c0 6.375 1.704 9.56 5.115 9.56 3.479.072 5.183-3.115 5.115-9.56.068-6.588-1.672-9.845-5.217-9.776-3.273.144-4.945 3.403-5.013 9.776zm.495-51.47h1.458v24.499h-1.458v-24.499zm4.373 13.193c-.524-2.276-1.084-4.318-1.682-6.125l1.122-.353c.073.158.185.431.336.824.373 1.177.859 2.905 1.458 5.182l-1.234.472zm2.467-14.253h1.457v27.327h-1.457v-27.327zm5.767 1.295h23.995v1.531h-22.425v5.773h19.51v9.893h-19.51v5.889h22.65v1.531h-24.22v-24.617zm1.57 15.666h17.94v-6.95h-17.94v6.95zm7.159 46.095h1.534v-21.7h-1.125c-.818 2.364-2.966 4.442-6.444 6.232v1.504c3.136-1.504 5.148-3.044 6.035-4.62v18.584zm12.727-14.18c-2.046 0-3.65.753-4.808 2.257l.818-7.949h9.309v-1.397h-10.536l-1.228 11.173 1.023.215c1.09-1.934 2.762-2.9 5.013-2.9 3.34.144 5.079 2.078 5.217 5.8-.138 3.867-1.911 5.873-5.32 6.015-3.069 0-4.843-1.611-5.319-4.833l-1.432.429c.818 3.797 3.135 5.694 6.956 5.694 4.296-.214 6.512-2.721 6.649-7.519-.273-4.44-2.388-6.768-6.342-6.983zm9.545-47.228h22.089v1.531h-10.54c-.076 2.75-.336 5.3-.785 7.657h13.455v1.531h-10.988v10.13c-.151 1.649.746 2.434 2.691 2.356h3.924c1.719.156 2.616-.59 2.691-2.239.074-.628.186-1.805.337-3.534.597.236 1.121.432 1.57.59-.076 1.413-.225 2.709-.449 3.887-.15 1.961-1.496 2.904-4.037 2.826h-4.597c-2.542.078-3.775-1.14-3.7-3.652v-10.365h-1.233c-1.197 6.44-5.084 11.505-11.661 15.196l-.337-.354c-.375-.471-.672-.785-.896-.942 6.427-3.376 10.203-8.01 11.324-13.899h-11.1v-1.531h11.437c.448-2.277.709-4.829.784-7.657h-9.979v-1.531zm1.247 51.311h10.333v-2.257h-7.672v-1.074h7.672v-1.504h1.33v1.504h5.831v1.074h-5.831v2.257h2.557c2.796-1.359 5.354-2.828 7.673-4.405l.92.967c-1.91 1.219-3.853 2.363-5.831 3.438h7.059v1.182h-9.207c-.478.215-1.228.537-2.251.966-1.296.645-2.285 1.112-2.966 1.397h10.946v8.701h-1.432v-.966h-12.992v.966h-1.331v-6.874c-.477.144-1.227.393-2.25.752-1.023.287-1.808.537-2.353.753-.205-.43-.444-.86-.716-1.289 4.364-1.218 8.491-2.686 12.379-4.404h-11.868v-1.182zm2.763-12.461h18.005v6.982h-18.005v-6.982zm1.33 2.9h15.243v-1.719h-15.243v1.719zm0 3.008h15.243v-1.933h-15.243v1.933zm2.761 11.172c-.068 0-.137.037-.204.107-.137.073-.307.109-.511.109v2.148h12.992v-2.363h-12.277zm-.715 5.478h12.992v-2.041h-12.992v2.041zm22.913-45.624h5.046v-1.649h-3.588v-2.71h-3.028v-1.178h3.028v-1.295h1.233v1.295h6.055v-1.295h1.234v1.295h2.578v1.178h-2.578v2.71h-3.589v1.649h5.046v4.358h-5.046v1.767h5.719v.941h-5.719v2.946h-1.345v-2.946h-6.616v-.941h6.616v-1.767h-5.046v-4.358zm1.871 31.66c-.751 1.79-1.534 3.401-2.353 4.834-.069-.144-.137-.323-.204-.538l-.41-.859c1.978-4.01 3.479-8.306 4.501-12.891l1.331.216c-.41 1.862-.921 3.725-1.535 5.586v19.766h-1.33v-16.113zm-2.543-45.676h11.773v-1.767h-10.204v-1.178h21.416v1.178h-9.867v1.767h11.773v4.593h-1.233v-3.415h-10.54v4.712h-1.345v-4.712h-10.428v3.415h-1.345v-4.593zm1.906 17.196h3.813v-2.002h-3.813v2.002zm1.233-14.487h6.728v1.06h-6.728v-1.06zm0 2.474h6.728v1.177h-6.728v-1.177zm.224 6.124h6.055v-1.649h-6.055v1.649zm10.842 26.313v7.949h-5.933v3.76h5.217v1.289h-5.217v3.867h5.524v1.182h-5.524v6.123h-1.33v-24.17h7.263zm-7.142-20.423h3.813v-2.002h-3.813v2.002zm1.209 27.191h4.603v-5.479h-4.603v5.479zm6.138 5.157v-1.289h8.695v1.289c-.682 2.864-1.774 5.264-3.273 7.197 1.09 1.22 2.727 2.398 4.91 3.546-.273.356-.58.752-.92 1.181-1.979-1.218-3.581-2.435-4.809-3.653-1.774 1.575-3.854 2.937-6.24 4.083-.204-.43-.478-.824-.818-1.183 2.931-1.36 4.977-2.685 6.138-3.974-1.297-1.789-2.251-4.189-2.865-7.197h-.818zm5.324-27.165h1.345c1.122.078 1.644-.51 1.57-1.766v-2.473h-6.952c-.299 2.043-1.084 4.004-2.354 5.89-.375-.315-.786-.59-1.234-.825 1.794-2.121 2.616-5.065 2.467-8.833v-6.244h9.418v12.721c0 1.806-.896 2.749-2.69 2.827h-2.692c-.075-.159-.15-.471-.224-.942-.075-.237-.112-.394-.112-.471.298 0 .785.039 1.458.117zm-4.71-19.67h6.728v1.06h-6.728v-1.06zm0 2.474h6.728v1.177h-6.728v-1.177zm.613 32.651h7.162v7.735h-7.264v-1.288h5.933v-5.157h-5.831v-1.289zm.284-23.347c0 .786-.038 1.61-.112 2.474h6.84v-3.181h-6.728v.707zm0-1.884h6.727v-3.18h-6.727v3.18zm3.092 42.956c1.228-1.575 2.114-3.581 2.66-6.015h-5.115c.545 2.434 1.364 4.44 2.455 6.015zm17.316 4.512l1.535-.322c1.841-.429 3.273-.788 4.296-1.075v.646c-.068.356-.102.572-.102.644-.478.143-1.125.323-1.943.537-1.433.358-2.593.608-3.479.753-.546.143-1.091.357-1.636.645l-.717-.967c.477-.502.717-1.146.717-1.933v-.753c-1.637.501-3.581 1.038-5.831 1.612-.138-.359-.307-.753-.512-1.183 4.159-.714 7.604-1.968 10.332-3.76h-6.854v-4.189h16.675v4.189h-7.57c.885 1.147 1.943 2.114 3.171 2.9.819-.428 1.875-1.002 3.171-1.718 1.159-.573 1.978-1.002 2.456-1.289l.818 1.074c-1.57.859-3.274 1.719-5.115 2.579 1.637.572 3.819 1.037 6.547 1.396-.069.07-.137.215-.204.43-.205.284-.343.572-.409.858-5.594-.788-9.412-2.685-11.458-5.693-1.161.858-2.456 1.611-3.888 2.256v2.363zm3.683-22.451c-.204-.573-.342-1.002-.409-1.289l1.228-.322.818 2.578h10.435v3.761h-1.33v-2.578h-20.46v2.578h-1.228v-3.761h11.253l-.307-.966zm-10.946 10.419h22.915v1.075h-22.915v-1.075zm3.069-6.552h16.777v4.834h-16.777v-4.834zm1.33 3.76h3.887v-2.686h-3.887v2.686zm0 8.594h14.117v-2.041h-14.117v2.041zm5.115-8.594h3.888v-2.686h-3.888v2.686zm7.039-36.412c-1.121-1.021-2.505-2.199-4.148-3.535l1.009-1.178c.522.394 1.233.942 2.131 1.65.97.785 1.681 1.373 2.13 1.765l-1.122 1.297zm.786 4.828c-.673 2.356-1.534 5.811-2.579 10.366l-1.682-.59c1.345-4.788 2.279-8.284 2.803-10.484.148.08.41.198.785.354l.673.353zm.111-12.368c-.599-.627-1.496-1.49-2.69-2.592-.6-.548-1.048-.98-1.346-1.294l1.009-1.061c.149.159.41.394.785.708 1.494 1.256 2.616 2.238 3.364 2.945l-1.122 1.294zm-2.718 43.952h3.887v-2.686h-3.887v2.686zm8.325-45.129c-1.048 1.729-2.318 3.456-3.813 5.183-.15-.236-.487-.627-1.008-1.178 2.54-2.591 4.409-5.419 5.606-8.481l1.457.354c-.448.941-.897 1.844-1.345 2.708h15.025v1.414h-15.922zm-2.691 19.435l.897-7.42h-2.803v-1.413h2.915l.897-7.421h14.464c0 2.592-.039 5.065-.112 7.421h2.915v1.413h-3.027c0 .785-.039 1.884-.112 3.298v2.709h2.242v1.413h-2.355c-.075 2.826-1.533 4.241-4.373 4.241h-3.475c-.075-.55-.188-1.139-.336-1.766 1.121.077 2.279.117 3.475.117 2.092.078 3.176-.785 3.252-2.591h-14.464zm14.464-1.413c.149-2.512.224-4.515.224-6.007h-12.334l-.672 6.007h12.782zm-11.213-13.427l-.672 6.007h12.109c.074-1.571.112-3.574.112-6.007h-11.549zm6.28 12.484c-1.048-1.099-2.131-2.04-3.252-2.825l.897-.943c1.121.786 2.203 1.69 3.251 2.71l-.896 1.059zm.336-7.655c-.897-1.021-1.982-1.962-3.251-2.827l.896-.942c.971.706 2.092 1.61 3.364 2.709l-1.009 1.061zm-2.186 28.615h22.813v1.396h-7.468v19.121h8.491v1.397h-24.757v-1.397h8.389v-19.121h-7.468v-1.396zm4.092 16.006c-1.16-3.581-2.422-7.091-3.785-10.528l1.33-.429c.68 1.79 1.772 4.656 3.273 8.594.272.859.477 1.468.614 1.826l-1.432.537zm4.706 4.511h5.217v-19.121h-5.217v19.121zm11.822-49.486c-.224-.237-.636-.549-1.233-.943-1.496-1.256-2.692-2.197-3.588-2.826l1.009-1.179c1.27.865 2.877 2.12 4.821 3.769l-1.009 1.179zm-4.148 13.898c1.194-2.669 2.427-6.125 3.699-10.366l.225.119c.448.236.858.432 1.233.589l-.785 2.473c-1.272 3.534-2.169 6.165-2.691 7.892l-1.681-.707zm5.157-21.673c-.823-.785-2.057-1.845-3.7-3.181-.375-.312-.673-.549-.897-.707l1.009-1.061c1.27.865 2.84 2.082 4.709 3.652l-1.121 1.296zm1.082 42.221c-1.161 3.224-2.593 6.768-4.297 10.635l-1.227-.644c1.363-3.151 2.761-6.624 4.194-10.42l1.33.429zm2.618-35.625h6.84v-5.3h-7.849v-1.531h9.979c.971-1.414 2.092-3.181 3.364-5.3l1.457.824c-.972 1.335-2.017 2.826-3.14 4.476h6.055v1.531h-8.297v5.3h7.065v1.532h-7.065v5.653h8.859v1.531h-8.859v7.304h-1.569v-7.304h-8.634v-1.531h8.634v-5.653h-6.84v-1.532zm4.486-7.186c-.825-1.333-1.834-2.709-3.028-4.122l1.234-.824c1.344 1.492 2.39 2.787 3.138 3.886l-1.344 1.06zm11.055 36.903c-.138-.645-.239-1.11-.306-1.396l1.33-.322c.271.931.51 1.971.716 3.116h9.718v1.288h-20.46v7.735c0 3.51-.205 6.16-.614 7.95-.342 1.789-1.125 3.687-2.353 5.693-.342-.286-.716-.61-1.126-.967 1.16-1.862 1.875-3.58 2.149-5.156.341-1.504.512-4.082.512-7.735v-8.808h10.741c-.068-.358-.171-.823-.307-1.397zm11.151 22.988c-.137.43-.24.716-.307.86-4.024-.717-7.264-1.684-9.719-2.901-2.114 1.146-5.286 2.22-9.514 3.224-.068-.072-.137-.216-.204-.43l-.614-.967c3.136-.574 6.103-1.433 8.901-2.578-1.98-1.289-3.683-2.936-5.116-4.942h-1.636v-1.288h15.344v1.397c-1.978 2.22-3.886 3.867-5.728 4.941 2.591.93 5.557 1.611 8.9 2.041l-.307.644zm-6.036-19.337h1.331v2.364h4.705v1.288h-4.705v4.082h-10.538v-4.082h-3.785v-1.288h3.785v-2.364h1.331v2.364h7.876v-2.364zm-3.99 15.793c2.047-1.074 3.853-2.471 5.422-4.191h-10.332c1.704 1.934 3.341 3.33 4.91 4.191zm-3.886-9.239h7.877v-2.9h-7.877v2.9zm8.911-38.864h2.017v-10.011h2.804c.073-.471.185-1.099.336-1.885.073-.627.149-1.099.224-1.414l1.458.12c-.076.549-.3 1.609-.673 3.18h4.149v21.555c.073 1.962-.824 2.945-2.691 2.945h-1.121c-.6.078-1.009.118-1.234.118 0-.159-.039-.432-.112-.824-.075-.394-.151-.668-.224-.824h2.242c1.195.077 1.755-.393 1.682-1.414v-10.248h-5.494v.472c0 3.455-.151 6.047-.448 7.774-.3 1.728-.898 3.493-1.794 5.3-.075-.079-.188-.159-.337-.236-.524-.393-.824-.629-.897-.707 1.57-2.433 2.28-6.438 2.13-12.014v-.59h-2.017v-1.296zm3.363 0h5.494v-8.716h-5.494v8.716zm2.579-2.001c-.3-1.491-.748-2.945-1.346-4.358l1.346-.354.897 2.827c.224.63.373 1.1.449 1.413l-1.346.472zm.336 10.601c-.448-1.649-.936-3.22-1.457-4.713l1.233-.47c.074.314.224.748.449 1.295.448 1.336.821 2.474 1.121 3.415l-1.346.472zm5.921 28.007c-.751 1.791-1.534 3.402-2.353 4.834-.068-.143-.137-.322-.205-.537l-.409-.86c1.978-4.009 3.478-8.306 4.502-12.89l1.329.216c-.409 1.862-.92 3.725-1.534 5.586v19.766h-1.33v-16.114zm10.113-38.961v13.782c-.075.942.41 1.373 1.458 1.295h.224c.822.078 1.307-.394 1.458-1.414.148-.862.298-2.276.448-4.24v-.472c.225.159.485.276.785.354.224.078.41.158.561.236-.075 1.884-.225 3.338-.448 4.357-.152 1.806-1.01 2.67-2.58 2.592h-.897c-1.72.078-2.542-.785-2.467-2.592v-12.367h-5.157v2.71c0 3.533-.263 6.166-.785 7.891-.448 1.65-1.458 3.375-3.028 5.184-.224-.237-.56-.551-1.008-.943.073.078 0 .038-.225-.118 1.494-1.572 2.467-3.062 2.915-4.476.449-1.49.673-3.964.673-7.42v-4.358h8.073zm-10.315-5.89h14.016v1.414h-14.016v-1.414zm11.864 36.796v7.949h-5.933v3.76h5.217v1.288h-5.217v3.867h5.524v1.183h-5.524v6.123h-1.33v-24.17h7.263zm-5.137-36.796c-.599-1.413-1.272-2.865-2.018-4.358l1.458-.588c.297.549.746 1.492 1.345 2.825l.672 1.414-1.457.707zm-.796 43.563h4.603v-5.479h-4.603v5.479zm6.138 5.156v-1.288h8.695v1.288c-.682 2.865-1.774 5.265-3.273 7.198 1.09 1.219 2.727 2.398 4.91 3.545-.273.357-.58.753-.921 1.182-1.978-1.219-3.58-2.435-4.808-3.653-1.774 1.575-3.853 2.935-6.24 4.083-.205-.43-.478-.824-.818-1.183 2.932-1.36 4.978-2.685 6.138-3.974-1.296-1.789-2.25-4.19-2.865-7.198h-.818zm1.228-11.709h7.161v7.735h-7.264v-1.289h5.934v-5.156h-5.831v-1.289zm3.375 17.725c1.228-1.575 2.114-3.581 2.661-6.016h-5.115c.544 2.435 1.363 4.441 2.454 6.016zm3.571-40.836c-.151-.312-.375-.707-.673-1.178 2.765-2.433 5.343-5.81 7.736-10.131l1.458.825c-1.121 1.884-2.13 3.455-3.027 4.712v15.078h-1.57v-12.957c-1.57 1.806-2.842 3.142-3.812 4.004 0-.077-.039-.195-.112-.353zm8.409-17.904c-2.018 2.986-4.523 5.813-7.513 8.481-.223-.549-.523-1.06-.896-1.531 2.615-2.121 4.933-4.751 6.951-7.891l1.458.941zm-1.701 56.485c-.138-.285-.342-.645-.614-1.074 2.522-2.22 4.876-5.299 7.058-9.239l1.33.752c-1.022 1.719-1.943 3.153-2.762 4.296v13.751h-1.432v-11.816c-1.432 1.648-2.593 2.865-3.478 3.653 0-.071-.035-.179-.102-.322zm7.673-16.329c-1.842 2.723-4.128 5.3-6.855 7.734-.204-.5-.477-.966-.818-1.396 2.387-1.934 4.501-4.331 6.343-7.198l1.33.86zm-4.851-29.907h17.155v1.531h-5.606v11.19c.149 2.433-1.084 3.652-3.7 3.652-1.048.077-2.281.118-3.7.118-.076-.314-.151-.707-.224-1.179-.076-.236-.112-.432-.112-.588h3.7c1.794.078 2.615-.63 2.467-2.121v-11.072h-9.98v-1.531zm1.682-8.952h13.903v1.531h-13.903v-1.531zm4.191 48.205h15.653v1.396h-5.116v10.206c.136 2.219-.989 3.329-3.376 3.329-.956.072-2.081.109-3.376.109-.068-.287-.137-.646-.204-1.075-.069-.215-.102-.394-.102-.537h3.376c1.636.07 2.385-.575 2.25-1.934v-10.098h-9.105v-1.396zm1.534-8.164h12.686v1.396h-12.686v-1.396zm30.308-32.739c2.691-2.12 5.158-4.553 7.4-7.302l1.234.942c-1.794 2.2-3.852 4.319-6.167 6.36h8.409v1.414h-10.203c-1.869 1.413-3.888 2.71-6.055 3.887h11.661v13.311h-1.458v-1.767h-13.678v1.767h-1.571v-10.838c-1.569.708-3.251 1.414-5.045 2.121-.076-.156-.188-.43-.337-.824-.224-.313-.375-.549-.448-.707 5.455-1.885 10.24-4.2 14.352-6.949h-13.904v-1.414h10.764v-4.24h-7.961v-1.414h7.961v-3.769h1.57v3.769h6.839v1.414h-6.839v4.24h3.476zm-11.742 38.754h3.886v-4.941c-.409.072-.989.108-1.738.108-.752.072-1.33.107-1.739.107 0-.143-.035-.357-.103-.645 0-.285-.035-.5-.102-.644.614-.071 1.466-.143 2.557-.216 2.456-.143 4.4-.285 5.831-.429l.206 1.288c-.41 0-.991.037-1.74.108-.818.073-1.432.145-1.841.215v5.049h3.581v1.289h-3.581v3.76l.92-.645c1.09 1.147 2.149 2.257 3.171 3.33l-1.125.967c-.818-1.074-1.807-2.22-2.966-3.437v12.353h-1.331v-13.32c-.751 3.08-1.943 5.766-3.58 8.057-.068-.216-.205-.466-.409-.753-.138-.285-.273-.5-.409-.644 1.908-2.579 3.376-5.801 4.398-9.669h-3.886v-1.289zm3.669-32.039c-.076 0-.188.04-.336.118-.225.078-.375.158-.448.236v3.415h13.678v-3.769h-12.894zm-.784 8.716h13.679v-3.533h-13.679v3.533zm5.196 38.256h7.877v-4.296h-5.831v-1.182h5.831v-4.297h-6.445v-1.289h14.22v1.289h-6.445v4.297h5.934v1.182h-5.934v4.296h7.366v1.288h-16.573v-1.288zm2.455-21.27h12.174v7.198h-12.174v-7.198zm1.432 5.8h9.411v-4.512h-9.411v4.512zm19.226-28.205l1.795-5.183h-6.055v-1.649h27.134v1.649h-19.397l-1.234 3.652h16.706c-.075 1.101-.186 2.474-.336 4.123-.075.63-.112 1.101-.112 1.413-.225 2.669-2.13 4.005-5.719 4.005-1.793.077-3.699.118-5.717.118-.076-.55-.188-1.179-.337-1.884 1.195.077 3.176.118 5.943.118 2.69.156 4.11-.748 4.261-2.71.073-.392.148-1.02.223-1.885.075-.863.113-1.451.113-1.766h-17.268zm.112-18.14h18.389v8.01h-18.389v-8.01zm1.571 6.479h15.249v-4.947h-15.249v4.947z"/><path d="M132.229 12.683c-1.918 0-3.472-1.549-3.472-3.462 0-1.913 1.554-3.465 3.472-3.465 1.917 0 3.471 1.552 3.471 3.465 0 1.913-1.554 3.462-3.471 3.462zm0-1.995c.81 0 1.47-.659 1.47-1.467 0-.81-.66-1.467-1.47-1.467-.812 0-1.473.657-1.473 1.467 0 .808.661 1.467 1.473 1.467z"/><path d="M504.511 12.683c-1.917 0-3.472-1.549-3.472-3.462 0-1.913 1.555-3.465 3.472-3.465s3.471 1.552 3.471 3.465c0 1.913-1.554 3.462-3.471 3.462zm0-1.995c.809 0 1.469-.659 1.469-1.467 0-.81-.66-1.467-1.469-1.467-.813 0-1.473.657-1.473 1.467 0 .808.66 1.467 1.473 1.467z"/><path d="M171.28 111.685c-1.918 0-3.472-1.552-3.472-3.465 0-1.913 1.554-3.462 3.472-3.462 1.914 0 3.469 1.549 3.469 3.462 0 1.913-1.555 3.465-3.469 3.465zm0-1.998c.81 0 1.47-.657 1.47-1.467 0-.808-.66-1.467-1.47-1.467-.813 0-1.473.659-1.473 1.467 0 .81.66 1.467 1.473 1.467z"/><path d="M468.062 111.685c-1.916 0-3.471-1.552-3.471-3.465 0-1.913 1.555-3.462 3.471-3.462 1.917 0 3.472 1.549 3.472 3.462 0 1.913-1.555 3.465-3.472 3.465zm0-1.998c.813 0 1.473-.657 1.473-1.467 0-.808-.66-1.467-1.473-1.467-.809 0-1.469.659-1.469 1.467 0 .81.66 1.467 1.469 1.467z"/></g><path sketch:type="MSShapeGroup" d="M0 0h640v120h-640z"/></g></svg>