<svg xmlns="http://www.w3.org/2000/svg" width="149.995" height="60" viewBox="2.011 0 149.995 60" enable-background="new 2.011 0 149.995 60"><path fill="#036BA7" d="M16.303 4h135.703l-14.293 52h-135.702z"/><path fill="#0D85C7" d="M16.303 4s.763 1.001-.83 6.793c41.065-1.309 85.857-2.63 134.714-3.953 1.164-.456.506-1.84.506-1.84l-134.39-1z"/><path fill="#fff" d="M137.713 56h-135.702l14.292-52h135.703l-14.293 52zm-.761-1l13.741-50h-133.628l-13.743 50h133.63"/><path fill="#fff" d="M126.762 26.75h-9l-.629 3.562h7.875l-.348 1.969h-7.874l-.744 4.219h9.75c-.203.438-.542 1.127-1.021 2.062-5.063 0-8.434-.031-10.109-.095-3.165-.125-5.318-1.374-6.463-3.75-1.037 1.626-2.396 3.125-4.073 4.501-.342-.562-.741-1.123-1.203-1.688 2.8-2.063 4.74-5.094 5.823-9.094l2.105.281c-.42 1.313-.881 2.501-1.379 3.562.934 2.503 2.403 3.908 4.411 4.22l1.72-9.75h-9.938l.348-1.969h21.096l-.347 1.97zm.357-3.094h-2.157l.413-2.343h-16.312l-.396 2.25h-2.157l.745-4.219h9.376c-.021-.25-.043-.656-.067-1.22-.09-.562-.142-.968-.16-1.218l2.58-.282c.097.876.156 1.781.179 2.72h8.72l-.764 4.312zm-32.689 5.25l.563-3.188h1.969l-.579 3.28c-.18 1.377-.551 2.597-1.113 3.657 1.851 1.562 3.61 3.094 5.285 4.594l-1.609 1.688c-1.156-1.25-2.735-2.75-4.74-4.5-1.077 1.5-3.488 3.125-7.232 4.875-.277-.562-.609-1.158-.998-1.78 3.008-1.125 5.059-2.281 6.143-3.47 1.119-1.061 1.893-2.781 2.311-5.156zm-8.737-4.687l.402.375-.896.842h4.031l-.332 1.876-1.539 3.938c-.301-.062-.666-.126-1.09-.188-.24-.062-.422-.096-.547-.096l1.488-3.655h-2.25l-1.585 9c-.236 1.687-1.234 2.562-2.994 2.623h-2.25c.02-.127.018-.281-.013-.47.069-.749.069-1.28 0-1.593.612.062 1.202.095 1.766.095.938 0 1.437-.345 1.494-1.032l1.521-8.625h-3.375l.332-1.876h4.219l-.231-.281c-.751-1.061-1.514-2.062-2.284-3.001l1.604-1.125 1.468 1.781 2.98-3.093h-6.279l.312-1.781h8.344l-.381 2.157-3.915 4.129zm17.858-4.501h-5.626l-1.09 3h5.248l-1.933 10.97h-1.969l1.635-9.281h-7.216l-1.652 9.375h-1.971l1.951-11.063h3.844l.998-3h-4.875l.33-1.875h12.656l-.33 1.874zm-41.578 1.969l1.818.844c-2.477 3.062-4.688 5.688-6.636 7.875.509-.062 1.27-.124 2.282-.188 1.083-.124 1.845-.188 2.283-.188-.044.251-.126.533-.244.844-.077.438-.163.749-.258.938-2.733.25-5 .531-6.805.844l-.343-1.781c.639-.436 1.233-.968 1.781-1.593l1.66-1.969c.536-.563.926-1 1.169-1.313-1.44 0-2.638.062-3.596.188l-.341-1.781c.439-.375.891-.812 1.356-1.313 1.105-1.312 2.599-3.406 4.481-6.282l2.041.656-2.185 2.813c-1.468 1.938-2.511 3.25-3.131 3.938l2.829-.095c.657-.873 1.269-1.686 1.839-2.437zm15.318-.749l-.142 1.874-7.946.939c-.134.75-.199 1.469-.194 2.155l-.072.939 8.167-1.125-.143 1.875-8.072 1.125c.005 1.376.098 2.625.274 3.75 1.331-.812 2.989-2.063 4.975-3.75l1.285 1.22c-2.132 1.814-4.078 3.283-5.838 4.408.462 1.625 1.224 2.437 2.287 2.437.563 0 .998-.343 1.308-1.031.021-.124.086-.312.193-.563.5-1.061.831-1.873.991-2.438.167.128.565.346 1.198.656l.513.283c-.385 1.123-.813 2.125-1.28 2.998-.713 1.562-1.819 2.345-3.319 2.345-1.75 0-3.051-1.125-3.903-3.374-.137.062-.372.156-.707.279-2.323 1.125-4.253 1.97-5.789 2.531-.144-.25-.316-.688-.519-1.313-.134-.313-.22-.53-.26-.656l.251-.078c-.846.073-2.293.284-4.382.642l-3.191.563-.028-1.969c.385-.063 1.126-.188 2.222-.376 2.764-.436 4.756-.749 5.979-.938-.057.313-.16.719-.31 1.219l-.144.812c2.284-.674 4.447-1.564 6.475-2.688-.258-1.375-.39-2.938-.392-4.688l-4.242.657.065-1.967 4.225-.563.07-.937c-.003-.688.062-1.407.194-2.157l-3.441.375.16-1.969 3.44-.375c.173-1.688.415-3.406.723-5.156h2.157c-.322 1.814-.552 3.468-.69 4.968l7.852-.939zm-3.326-.281c-.649-.563-1.492-1.282-2.524-2.157l1.559-1.405c.495.374 1.26.999 2.294 1.874.279.188.47.344.575.468l-1.672 1.5-.232-.28zm-34.831 13.689c.51-1.125.986-2.938 1.427-5.438l.628-3.563h7.312l-1.851 10.498c-.088.501.15.751.712.751h.281c.488.063.826-.25 1.01-.937.373-1.063.699-2.376.975-3.938.227.127.549.25.965.374.238.063.415.128.529.188-.373 1.752-.74 3.127-1.102 4.126-.441 1.437-1.35 2.155-2.723 2.155h-.939c-1.51.062-2.098-.688-1.758-2.248l1.587-9h-3.281l-.283 1.593c-.638 4.688-2.275 8.124-4.911 10.313-.155-.188-.392-.438-.712-.752-.321-.312-.558-.562-.711-.748 1.322-1.126 2.271-2.251 2.845-3.374zm-5.356-11.627l1.521-.656c.069.313.154.72.253 1.219.22.875.385 1.532.498 1.967l-1.616.656c-.158-.873-.378-1.936-.656-3.186zm-.25-1.781l-1.089 6.188h3.938l1.089-6.188h-3.938zm2.976 15.561c-.214 1.563-1.102 2.345-2.663 2.345-.387.062-1.112.094-2.173.094.02-.127-.003-.344-.072-.654.035-.562.049-1.001.044-1.312h.468c.55.061.988.061 1.313 0 .862.061 1.324-.253 1.383-.939l1.257-7.124h-3.938c-.667 4.499-1.836 7.936-3.505 10.313-.104-.125-.295-.283-.575-.469-.372-.376-.633-.656-.789-.845 1.416-2 2.444-5 3.087-9h-1.408l.315-1.781h1.407l1.404-7.969h2.345c.117-.312.281-.718.495-1.219.162-.562.295-.968.403-1.218l2.046.093-1.069 2.344h3.281l-3.056 17.341zm-1.753-2.811l-1.616.656c-.229-1.188-.493-2.345-.795-3.47l1.521-.656.315 1.405c.293.815.485 1.502.575 2.065zm17.186-11.345h-11.812l.346-1.969h4.875c-.099-.5-.274-1.28-.524-2.343-.059-.375-.107-.624-.148-.751l2.333-.469.684 3.563h4.594l-.348 1.969z"/></svg>