<svg xmlns="http://www.w3.org/2000/svg" width="640" height="466.738" viewBox="0 -18.262 640 466.738" enable-background="new 0 -18.262 640 466.738"><path fill="#fff" d="M36.814 293.268c-1.961-1.875-3.979-3.689-6.048-5.447l2.289-2.988c2.289 1.758 4.414 3.516 6.375 5.271l-2.616 3.164zm2.126 5.974c-1.528 5.744-2.779 10.838-3.76 15.293l-3.76-1.229c1.198-4.334 2.506-9.491 3.923-15.469.544.117 1.361.47 2.452 1.056.544.117.925.235 1.145.349zm-.981-17.578c-.547-.467-1.364-1.229-2.452-2.283-1.528-1.521-2.726-2.639-3.597-3.342l2.289-2.812c1.852 1.406 3.977 3.227 6.376 5.449l-2.616 2.988zm6.212 3.164c-.437.588-1.201 1.468-2.289 2.639l-.327-.354c-.764-1.17-1.471-2.049-2.125-2.637 3.487-3.396 6.156-7.439 8.01-12.129l3.923.526c-.546 1.291-1.144 2.461-1.798 3.517h19.944v3.34h-21.742c-.764 1.406-1.635 2.696-2.616 3.867h21.743c-.11.82-.163 2.578-.163 5.272-.11 2.228-.164 3.983-.164 5.271h3.76v3.342h-3.76c0 .938-.056 2.283-.164 4.043v3.341h2.942v3.34h-3.106c-.22 4.219-2.398 6.268-6.539 6.152h-5.885l-.49-1.582c-.22-.822-.383-1.406-.49-1.761h5.722c2.615.115 3.977-.819 4.087-2.812h-20.435l1.144-10.724h-3.596v-3.34h3.923l.981-10.021c-.109.126-.273.361-.49.71zm18.636 20.039c.107-1.404.164-3.865.164-7.383h-16.184l-.654 7.383h16.674zm-14.713-18.103l-.817 7.383h15.857v-7.383h-15.04zm8.174 17.754c-.546-.468-1.308-1.17-2.289-2.107-1.091-.819-1.908-1.465-2.452-1.936l1.798-2.107c1.308.938 2.942 2.229 4.904 3.867l-1.961 2.283zm.327-10.901c-.654-.703-1.691-1.582-3.106-2.637-.654-.586-1.201-1.056-1.635-1.406l1.961-2.107c.981.703 2.396 1.758 4.25 3.164-.22-.232 0-.059.654.525l-2.124 2.461zm18.443 18.634v-3.867h15.367v-35.155h4.25v12.655h16.184v4.22h-16.184v18.28h19.291v3.867h-38.908zm50.638-10.371v7.207h31.878v3.516h-35.638v-37.266h35.147v3.688h-31.387v7.031h27.791v15.82l-27.791.004zm23.868-12.129h-23.868v8.438h23.868v-8.438zm16.481-10.371v-3.866h32.695v3.866h-14.713c-.22 3.397-.49 6.504-.817 9.313h18.473v3.867h-19.291c-1.635 9.377-7.249 16.761-16.838 22.148l-2.779-3.34c8.935-5.039 14.113-11.311 15.53-18.811h-15.203v-3.865h16.021c.327-2.813.598-5.918.817-9.316l-13.895.004zm22.723 33.926c-4.143.115-6.158-1.936-6.048-6.149v-14.064h3.923v13.187c-.22 2.344.925 3.453 3.433 3.34h3.923c2.289 0 3.487-1.058 3.597-3.164.107-.703.217-1.875.327-3.519.107-.817.164-1.403.164-1.758l1.471.525c.544.236 1.361.527 2.452.879-.327 2.812-.6 4.865-.817 6.152-.546 3.164-2.672 4.688-6.375 4.569l-6.05.002zm17.953-19.861v-2.285h3.76v-1.582h2.942v1.582h7.683v-1.582h2.943v1.582h3.27v2.285h-3.27v4.043h-5.231v2.107h7.03v6.682h-7.03v2.282h8.011v2.285h-8.011v3.867h-3.106v-3.867h-8.991v-2.285h8.991v-2.282h-7.029v-6.682h7.029v-2.107h-5.231v-4.043h-3.76zm3.269-16.875v-2.461h32.368v2.461h-14.386v2.106h16.838v7.91h-3.433v-5.272h-13.405v6.854h-3.433v-6.854h-13.405v5.098h-3.433v-7.732h16.838v-2.109h-14.549v-.001zm1.472 24.961v2.812h4.25v-2.812h-4.25zm1.798-16.703v-1.756h9.155v1.758l-9.155-.002zm0 3.518v-1.759h9.155v1.759h-9.155zm.163 5.099v2.106h7.683v-2.106h-7.683zm9.809 8.086h-4.414v2.812h4.414v-2.812zm8.664 4.746c-.437 2.812-1.527 5.682-3.27 8.61-.546-.354-1.308-.819-2.289-1.403-.437-.119-.71-.236-.817-.354 2.506-2.697 3.65-6.795 3.433-12.307v-10.193h14.713v18.982c.107 2.928-1.254 4.453-4.087 4.569-.437 0-1.144.06-2.125.177h-2.289c-.109-.353-.219-.88-.327-1.582-.22-.82-.383-1.406-.49-1.759.434 0 1.088.06 1.961.177h1.961c1.416 0 2.125-.646 2.125-1.935v-2.987l-8.499.005zm-1.634-21.449v-1.756h8.991v1.758l-8.991-.002zm0 3.518v-1.759h8.991v1.759h-8.991zm1.797 5.099v3.688h8.337v-3.688h-8.337zm0 7.732v2.462h8.337v-3.689h-8.337v1.227zm35.895-14.767v-12.301h31.878v12.303h-15.53v1.936h8.991v2.812c2.069-1.17 4.141-2.461 6.212-3.867l3.27 3.164c-.546.235-1.308.646-2.289 1.229-.546.472-1.798 1.23-3.76 2.285h6.866v3.691h-13.896c-1.417.703-2.942 1.406-4.577 2.107h14.386v14.942h-5.231v-1.406h-18.473v1.406h-5.231v-9.491l-5.231 1.581c-.327-1.405-.764-2.93-1.308-4.567 5.992-1.522 11.116-3.049 15.367-4.57h-15.04v-3.691h14.713v-2.108h-10.789v-3.517h10.789v-1.936l-11.117-.002zm5.395-8.961v1.582h21.089v-1.582h-21.089zm0 4.215v1.76h21.089v-1.76h-21.089zm20.925 21.449h-17.656c-.11.115-.22.176-.327.176-.22.117-.383.176-.491.176v1.758h18.473l.001-2.11zm-18.473 5.094v1.76h18.473v-1.76h-18.473zm12.097-14.236c.544-.232 1.415-.703 2.616-1.406.544-.353.981-.586 1.308-.701h-7.52v2.107h3.596zm23.674 20.741v-20.741c-.765 1.758-1.581 3.397-2.452 4.922-.11-.818-.327-1.99-.654-3.517-.22-1.76-.437-3.104-.654-4.045 2.396-4.804 4.357-11.015 5.885-18.633l4.741 1.229c-.221 1.291-.711 3.225-1.473 5.801-.222.821-.385 1.467-.49 1.935v33.049h-4.903zm7.684 0v-40.256h12.75v15.117h-8.01v3.69h6.864v4.748h-6.864v3.689h7.354v4.746h-7.354v8.263l-4.74.003zm4.741-35.332v5.447h3.76v-5.447h-3.76zm24.031 30.409c-.766 1.172-1.637 2.752-2.615 4.746-2.617-1.522-4.742-3.049-6.377-4.568-1.961 1.758-4.414 3.455-7.354 5.099-.222-.353-.65-1.056-1.31-2.107-.653-1.174-1.199-2.053-1.635-2.637 3.051-1.058 5.395-2.285 7.029-3.691-1.527-2.226-2.779-5.213-3.762-8.965l2.451-1.229h-2.613v-4.746h14.387v4.569c-.98 4.337-2.346 7.794-4.088 10.371 1.637 1.285 3.598 2.34 5.887 3.158zm-14.387-20.387v-4.924h7.521v-5.099h-7.521v-4.746h12.264v14.769h-12.264zm5.395 13.534c.98-1.759 1.742-3.926 2.289-6.504h-5.066c.652 2.578 1.577 4.745 2.777 6.504zm15.009-21.095v-5.1h15.205l-1.146-3.689 6.377-.524c.104.234.271.764.49 1.582.217 1.172.434 2.051.65 2.637h14.062v5.098h-10.953l5.229 1.23c-.765 1.172-1.635 2.695-2.613 4.568h10.137v4.922h-16.512v3.867h14.713v4.922h-14.713v5.803c.326 4.686-1.691 7.028-6.051 7.028-1.744.115-3.488.179-5.23.179-.219-1.761-.6-3.519-1.145-5.273 1.635.117 3.051.176 4.252.176 1.852.118 2.723-.879 2.613-2.987v-4.923h-6.703l3.271 3.691c-3.16 2.578-6.758 5.213-10.789 7.91 0-.118-.058-.236-.162-.354-1.092-1.991-2.021-3.34-2.778-4.043 4.141-2.692 7.463-5.098 9.971-7.206h-8.336v-4.922h15.529v-3.867h-17.328v-4.922h10.463l-2.615-4.568 5.066-1.23-10.954-.005zm11.282 0c.217.47.598 1.113 1.146 1.937 1.088 1.758 1.854 3.047 2.286 3.865h6.378c.438-.703 1.032-1.697 1.797-2.986.767-1.289 1.312-2.227 1.639-2.813l-13.246-.003zm22.722 30.94l-1.471-1.058c-4.146-2.692-7.25-4.688-9.318-5.979l3.105-4.22c1.635.939 4.141 2.58 7.52 4.923 1.416.938 2.453 1.644 3.107 2.108l-2.943 4.226zm7.971-15.824v-5.447h17.166v-4.396l10.785-6.854h-24.685v-5.449h33.021v6.854l-13.242 8.265v1.582h16.512v5.446h-16.512v9.846c.217 4.568-1.797 6.913-6.049 7.029-.766.115-2.021.178-3.762.178-1.744.113-3 .177-3.761.177-.327-2.347-.711-4.338-1.145-5.979 1.088.119 2.938.178 5.559.178 2.396.234 3.486-.938 3.271-3.518v-7.91l-17.158-.002zm47.379 17.755v-20.741c-.768 1.758-1.582 3.397-2.453 4.922-.108-.818-.326-1.99-.653-3.517-.22-1.76-.437-3.104-.652-4.045 2.396-4.804 4.356-11.015 5.887-18.633l4.738 1.229c-.219 1.291-.709 3.225-1.471 5.801-.222.821-.384 1.467-.49 1.935v33.049h-4.906zm7.683 0v-40.256h12.75v15.117h-8.011v3.69h6.865v4.748h-6.865v3.689h7.354v4.746h-7.354v8.263l-4.739.003zm4.741-35.332v5.447h3.761v-5.447h-3.761zm24.031 30.409c-.768 1.172-1.639 2.752-2.615 4.746-2.617-1.522-4.742-3.049-6.377-4.568-1.961 1.758-4.414 3.455-7.354 5.099-.222-.353-.65-1.056-1.31-2.107-.653-1.174-1.199-2.053-1.635-2.637 3.051-1.058 5.395-2.285 7.027-3.691-1.525-2.226-2.777-5.213-3.761-8.965l2.451-1.229h-2.614v-4.746h14.387v4.569c-.979 4.337-2.344 7.794-4.086 10.371 1.637 1.285 3.598 2.34 5.887 3.158zm-14.387-20.387v-4.924h7.521v-5.099h-7.521v-4.746h12.264v14.769h-12.264zm5.395 13.534c.979-1.759 1.742-3.926 2.289-6.504h-5.067c.653 2.578 1.579 4.745 2.778 6.504zm13.539-21.444v-4.746h2.289v-3.867h4.902v3.867h6.211v-3.867h5.067v3.867h2.125v4.746h-2.125v18.279h2.779v4.043c.543-2.344.814-5.918.814-10.724v-19.159h15.364v35.331c0 3.046-1.307 4.628-3.922 4.746h-2.778c-1.31.113-2.289.176-2.939.176-.328-2.229-.654-3.864-.979-4.922h3.598c1.412.118 2.065-.585 1.963-2.106v-5.979h-5.561c-.438 5.625-2.021 10.193-4.742 13.711-.22-.233-.601-.524-1.146-.879-.438-.471-1.309-1.173-2.614-2.106l-2.289 2.106c-.873-1.291-2.451-3.282-4.74-5.979.221.235.057 0-.488-.703l3.271-2.638h-8.011l3.435 2.638c-1.525 1.877-3.543 4.275-6.049 7.207-.222-.234-.601-.588-1.146-1.056-1.418-1.405-2.348-2.228-2.779-2.461 1.416-1.291 3.104-3.222 5.066-5.801l.488-.527h-5.722v-4.922h2.943v-18.276l-2.285.001zm7.193 0v3.34h6.213v-3.34h-6.213zm0 7.556v3.164h6.213v-3.164h-6.213zm0 7.561v3.162h6.213v-3.162h-6.213zm7.52 8.086c2.066 2.228 3.486 3.864 4.25 4.922.979-1.522 1.688-3.164 2.125-4.922h-6.375zm12.424-25.315v5.979h5.232v-5.979h-5.232zm0 14.065v2.637h5.232v-5.625h-5.232v2.988zM32.878 228.941v-2.077h20.024v2.077h-9.257c-.068 2.263-.236 4.341-.503 6.234h11.572v2.188h-9.46v8.75c-.135 1.531.604 2.224 2.214 2.078h2.817c1.409.146 2.179-.51 2.314-1.969.134-1.166.201-2.26.201-3.281.335.146.838.328 1.509.547.268.072.469.146.604.22-.068.365-.101.803-.101 1.312-.135 1.022-.269 1.823-.403 2.406-.269 1.969-1.544 2.916-3.824 2.844h-3.821c-2.415.072-3.589-1.166-3.521-3.719v-9.188h-.604c-1.006 5.834-4.462 10.463-10.364 13.891l-1.509-1.859c5.567-3.062 8.82-7.071 9.76-12.031h-9.559v-2.188h9.962c.335-1.896.536-3.974.604-6.232l-8.655-.003zm24.827 14.985v-2.188h17.811v2.188h-17.811zm16.603 6.672c-1.409.072-3.22.108-5.434.108-.067-.804-.201-1.642-.402-2.517 1.475.146 3.22.22 5.232.22 2.415.146 3.656-.802 3.723-2.845.201-2.696.368-5.358.503-7.983h-16.502l1.107-12.577h2.113l-.402 3.938h17.508v2.188h-17.609l-.403 4.375h16.502c0 .365-.034.947-.101 1.75-.201 4.011-.402 6.892-.604 8.642-.134 3.205-1.877 4.773-5.231 4.701zm19.992-20.672c0-2.553.838-4.447 2.516-5.688l.906.875c-1.208.947-1.846 2.369-1.912 4.266h1.711v3.5h-3.22l-.001-2.953zm4.629 0c0-2.553.805-4.447 2.415-5.688l1.006.875c-1.207.947-1.846 2.369-1.912 4.266h1.61v3.5h-3.119v-2.953zm7.923.875v-1.969h2.918c.066-.291.201-.766.402-1.422.268-1.094.436-1.896.503-2.406l2.012.219-1.006 3.609h5.233v1.969h-5.736c-1.074 3.5-1.811 5.944-2.214 7.328h3.12v-5.578h1.71v5.578h2.817v1.857h-2.817v3.72h.302c.871-.071 1.812-.22 2.818-.438 0 .729-.035 1.387-.101 1.969l-3.019.438v5.47h-1.912v-5.25c-1.812.219-3.522.438-5.132.655l-.201-2.077 5.333-.548v-3.938h-4.729v-1.969c.201-.729.536-1.822 1.006-3.279.536-1.75.905-3.063 1.107-3.938h-2.414zm24.351 3.063c-.336.512-.705 1.167-1.107 1.97-2.885-2.113-5.031-4.667-6.44-7.656-1.544 2.844-3.791 5.469-6.742 7.875-.47-.875-.84-1.494-1.107-1.857 3.286-2.553 5.701-5.65 7.245-9.299l2.012.328c-.135.366-.302.729-.503 1.096 1.744 3.35 3.958 5.867 6.642 7.543zm-8.956 16.515c-2.349.071-3.489-1.132-3.421-3.609v-11.266h1.912v5.25c2.415-1.384 4.594-2.953 6.541-4.703l1.208 1.53c-2.013 1.823-4.596 3.647-7.748 5.47v3.28c-.135 1.459.569 2.114 2.113 1.97h2.516c1.409.071 2.179-.547 2.314-1.857.201-1.24.335-2.518.402-3.828.67.291 1.309.51 1.912.654-.201 1.604-.402 3.026-.604 4.268-.403 1.895-1.645 2.844-3.723 2.844l-3.422-.003zm16.586-22.968c0 2.405-.805 4.303-2.415 5.688l-1.006-.875c1.208-.947 1.844-2.406 1.912-4.375h-1.61v-3.392h3.119v2.954zm4.629 0c0 2.405-.839 4.303-2.516 5.688l-.905-.875c1.207-.947 1.844-2.406 1.912-4.375h-1.71v-3.392h3.22l-.001 2.954zm12.574 22.64c-.269.219-.503.364-.705.438l-1.409-1.969c.604-.512.871-1.24.805-2.188v-20.672h2.113v7.982h6.642v2.188h-6.642v11.483c1.744-.875 3.89-1.931 6.44-3.172 0 .293.033.729.101 1.312v1.203c-2.214.875-4.261 1.75-6.138 2.625-.268.149-.671.405-1.207.77zm12.88.328c-2.349.071-3.489-1.095-3.421-3.5v-21.875h2.113v11.155c3.019-2.333 5.534-4.812 7.547-7.438l1.71 1.531c-2.684 3.137-5.77 6.016-9.257 8.641v7.438c-.067 1.313.604 1.933 2.013 1.858h2.918c1.341.072 2.079-.547 2.214-1.858.201-1.095.368-2.405.503-3.938l.906.328c.536.146.906.256 1.107.328-.068.947-.201 2.115-.403 3.5-.067.438-.135.766-.201.984-.402 1.895-1.645 2.844-3.723 2.844l-4.026.002zm12.058.439v-21.329h2.717c.201-.729.469-1.785.805-3.173.134-.582.234-.983.302-1.202l2.113.327c-.402 1.604-.772 2.953-1.107 4.048h4.729v21.108h-2.013v-2.078h-5.534v2.299h-2.012zm2.012-19.36v6.562h5.534v-6.562h-5.534zm0 8.532v6.672h5.534v-6.672h-5.534zm15.798 10.608h-4.226c-.067-.291-.135-.729-.201-1.312-.135-.365-.201-.655-.201-.875h4.025c1.945.146 2.918-.801 2.918-2.844.201-6.488.302-11.192.302-14.108h-6.44c-.671 1.604-1.343 3.062-2.012 4.374-.538-.438-1.107-.836-1.711-1.202 1.409-2.479 2.649-5.688 3.723-9.625l2.013.547c-.135.584-.37 1.386-.705 2.406-.269.656-.437 1.131-.503 1.422h7.748v1.75c-.135 6.78-.269 11.702-.402 14.767-.068 3.059-1.51 4.627-4.328 4.7zm-1.71-7.655c-1.208-1.971-2.482-3.9-3.824-5.799l1.509-1.201c.201.291.536.729 1.006 1.312 1.273 1.822 2.28 3.281 3.019 4.375l-1.71 1.313zm13.768-5.361c-1.476-1.457-2.717-2.586-3.723-3.391l1.308-1.53c1.409 1.021 2.683 2.078 3.824 3.171l-1.409 1.75zm1.107 3.938c-.805 3.209-1.544 6.383-2.214 9.518l-2.113-.656c.737-2.697 1.542-5.906 2.415-9.625.201.072.536.184 1.006.328.403.216.705.364.906.435zm-.302-11.156c-1.544-1.531-2.785-2.697-3.723-3.5l1.308-1.531c.268.22.67.584 1.208 1.095 1.14.948 2.013 1.715 2.616 2.297l-1.409 1.639zm5.635-1.094c-.94 1.604-2.113 3.209-3.521 4.812-.403-.582-.84-1.129-1.308-1.641 2.078-1.969 3.756-4.521 5.031-7.656l2.012.328c-.402.729-.772 1.496-1.107 2.297h12.578v1.859h-13.685v.001zm-4.629 11.048v-1.859h2.516l.704-6.673h13.383l-.101 6.673h2.415v1.859h-2.516c0 1.75-.068 3.391-.201 4.922h2.012v1.857h-2.012c-.135 2.625-1.477 3.899-4.025 3.828h-3.421c-.068-.22-.135-.547-.201-.982l-.302-.984c1.072.072 2.214.109 3.421.109 1.61.07 2.481-.584 2.616-1.971h-12.779l.704-6.779h-2.213zm14.39 4.922c.066-.51.101-1.313.101-2.406.066-1.166.101-2.006.101-2.516h-10.364l-.604 4.922h10.766zm-9.459-11.595l-.503 4.813h10.163v-4.813h-9.66zm5.232 11.156c-.201-.146-.503-.398-.906-.767-.805-.728-1.476-1.312-2.013-1.75l1.006-1.203c.805.584 1.812 1.387 3.019 2.405l-1.106 1.315zm.302-6.891c-.94-.946-1.912-1.785-2.918-2.516l1.006-1.203c.805.584 1.811 1.387 3.019 2.406l-1.107 1.313zm11.253 11.705v-2.078h9.66v-22.204h2.214v8.094h10.163v2.188h-10.163v11.922h12.075v2.078h-23.949zm30.462-4.158c-.336 1.896-1.041 3.791-2.113 5.688-.47-.511-1.006-.982-1.61-1.422 1.072-1.82 1.744-3.5 2.013-5.029.267-1.531.402-4.084.402-7.656v-9.298h10.264l-.604-2.625 2.214-.22c.201.804.436 1.75.704 2.845h9.157v1.858h-19.823v7.656c0 3.574-.201 6.308-.604 8.203zm20.125 4.486c-.201.438-.369.766-.503.982-3.758-.584-6.842-1.531-9.258-2.845-2.349 1.239-5.4 2.298-9.157 3.173-.067-.074-.135-.257-.201-.548-.135-.291-.402-.804-.805-1.53 2.883-.511 5.6-1.203 8.15-2.078-1.678-1.094-3.187-2.66-4.528-4.703h-1.71v-1.75h15.496v1.859c-1.811 2.042-3.556 3.607-5.232 4.702 2.079.655 4.795 1.203 8.151 1.642-.068.221-.202.583-.403 1.096zm-18.716-15.642v-1.859h3.522v-2.188h1.912v2.188h7.144v-2.188h1.812v2.188h4.427v1.859h-4.427v4.155h-10.868v-4.155h-3.522zm8.955 11.814c1.61-.803 3.22-2.041 4.83-3.721h-9.157c1.208 1.532 2.65 2.773 4.327 3.721zm-3.521-11.814v2.518h7.144v-2.518h-7.144zm19.202 16.844v-15.201c-.671 1.529-1.375 2.951-2.113 4.266-.201-.875-.437-1.713-.705-2.516 1.744-3.209 3.152-7.438 4.227-12.688l1.811.438c-.336 1.822-.805 3.646-1.409 5.469v20.234h-1.811v-.002zm4.427 0v-24.719h7.346v8.53h-5.535v3.28h4.83v1.859h-4.83v3.391h5.132v1.75h-5.132v5.906l-1.811.003zm1.811-22.859v4.812h3.824v-4.812h-3.824zm15.195 21.765c-.27.438-.471.729-.604.875-1.812-1.24-3.291-2.371-4.431-3.392-1.343 1.239-3.22 2.479-5.635 3.72-.336-.438-.705-1.021-1.107-1.75 2.75-1.312 4.594-2.479 5.534-3.5-1.275-1.822-2.213-4.156-2.817-7h-.503v-1.859h8.653v1.859c-.671 2.844-1.646 5.178-2.918 7 .737.948 2.183 1.969 4.327 3.062-.063.219-.231.549-.499.985zm-8.453-15.203v-1.858h5.535v-4.595h-5.434v-1.858h7.144v8.313l-7.245-.002zm3.422 9.625c1.006-1.384 1.743-3.207 2.215-5.469h-4.429c.468 2.262 1.208 4.085 2.214 5.469zm11.454-2.405c0 3.646-.704 6.672-2.112 9.076-.472-.584-.975-1.094-1.511-1.529 1.272-1.896 1.878-5.104 1.812-9.625v-13.563h6.845v21.548c0 1.75-.738 2.696-2.215 2.844h-2.215c0-.219-.034-.547-.102-.983-.068-.512-.136-.875-.201-1.094.27.071.838.108 1.71.108.871.071 1.272-.293 1.207-1.095v-5.688l-3.218.001zm0-13.782v5.141h3.219v-5.141h-3.219zm0 6.89v5.143h3.219v-5.143h-3.219zm9.055-2.078c-.402 1.459-.84 2.953-1.309 4.483l-1.812-.655c1.008-2.697 1.812-6.053 2.414-10.062l1.812.327c-.201 1.312-.438 2.589-.705 3.828h3.422v-5.797h2.014v5.797h5.637v2.078h-5.637v6.125h4.932v1.969h-4.932v6.781h6.039v1.969h-14.49v-1.969h6.438v-6.779h-5.028v-1.971h5.028v-6.125h-3.823v.001zm14.965 1.422v-1.969h2.617v-7.438h1.91v7.438h2.518v1.969h-2.518v10.174l3.119-.984c0 .512.033 1.203.102 2.078-.67.219-1.91.584-3.725 1.094-1.943.656-3.354 1.059-4.228 1.203l-.401-1.969 3.223-.875v-10.721h-2.617zm18.719 7.656c-.473.073-.807.108-1.008.108-.066-.728-.201-1.423-.402-2.078h1.711c1.006.073 1.511-.618 1.511-2.077.133-2.333.2-4.266.2-5.797l-4.024 1.531v11.593h-2.012v-10.936l-3.824 1.312v10.062c-.136 1.68.705 2.442 2.521 2.299h5.332c1.812.07 2.778-.51 2.918-1.75.063-.365.168-1.021.303-1.971.135-.728.232-1.238.303-1.529.604.291 1.209.547 1.812.766 0 .219-.035.512-.104.875-.138 1.312-.304 2.297-.502 2.953-.401 1.895-1.779 2.806-4.127 2.732h-6.644c-2.615.072-3.856-1.166-3.725-3.719v-9.953l-1.91.656-.303-2.078 2.213-.766v-6.234h1.912v5.578l3.822-1.312v-7.438h2.014v6.78l5.939-2.078c0 2.334-.104 5.215-.304 8.642.064 2.553-.807 3.793-2.614 3.719-.204.075-.54.11-1.008.11z"/><path fill="#FDF870" d="M42.28 339.434c-2.761 4.408-5.304 8.348-7.633 11.812 1.638-.188 3.881-.422 6.728-.702 0 .28-.044.702-.129 1.269 0 .472-.044.845-.129 1.125-3.192.188-6.254.562-9.186 1.125l-.776-2.53c.861-.562 1.552-1.268 2.07-2.109 1.294-1.779 2.329-3.326 3.105-4.641-1.64 0-3.234.094-4.787.28l-.776-2.394c.518-.371 1.12-1.125 1.811-2.25 1.983-3.654 3.623-6.892 4.917-9.701l2.329 1.125c-.604 1.03-.776 1.356-.518.981-2.761 4.875-4.658 8.153-5.692 9.845.431 0 1.12-.048 2.07-.142h1.941c.171-.373.473-.892.905-1.55.344-.562.861-1.45 1.553-2.672l2.197 1.129zm-11.514 19.687c3.277-.562 6.857-1.17 10.738-1.828 0 .281-.044.755-.129 1.406v1.125c-3.02.469-6.297 1.078-9.833 1.828l-.776-2.531zm9.444-15.328c4.312-3.654 7.675-8.062 10.091-13.22l2.199.563c0 .095-.044.188-.129.281 0 .188-.044.328-.129.422 2.329 4.594 5.648 8.297 9.962 11.107-.174.188-.475.562-.906 1.125-.433.562-.734.938-.905 1.125-4.14-3.096-7.29-6.701-9.445-10.828-2.329 4.408-5.349 8.156-9.056 11.25-.259-.373-.776-.938-1.552-1.688l-.13-.137zm2.846 6.328h15.913v14.063h-2.328v-2.25h-11.256v2.392h-2.329v-14.205zm1.165-6.467h13.713v2.391h-13.713v-2.391zm1.164 8.86v7.312h11.256v-7.312h-11.256zm20.156-10.971c2.414-2.621 4.742-6.232 6.986-10.826l2.329 1.125c-.259.375-.604.981-1.035 1.826-.691 1.221-1.209 2.108-1.552 2.674v15.188h-2.329v-11.533c-.863 1.312-1.769 2.531-2.717 3.656-.518-.655-1.08-1.356-1.682-2.11zm.388 19.266c1.293-2.152 2.371-4.73 3.234-7.732l2.199.844c-.863 2.723-1.898 5.396-3.105 8.018l-2.328-1.13zm7.245-7.453h2.458v5.345c-.174 1.594.646 2.344 2.458 2.25h6.081c1.811 0 2.802-.518 2.976-1.547.259-1.029.473-2.438.647-4.221.776.377 1.595.703 2.458.981-.087.378-.174.896-.259 1.55-.174 1.03-.303 1.825-.388 2.393-.518 2.25-2.244 3.326-5.175 3.232h-6.857c-3.105.188-4.573-1.312-4.399-4.5v-5.483zm.776-5.342c2.242-2.154 4.27-4.45 6.081-6.894l1.812 1.406c-1.727 2.344-3.752 4.778-6.081 7.312-.518-.559-1.122-1.168-1.812-1.824zm2.2-5.485c-.517-.562-1.164-1.125-1.94-1.688 2.329-2.72 4.354-5.998 6.081-9.845l2.458.562c-.518 1.125-1.035 2.158-1.552 3.095h14.231v2.25l-2.07 4.78-2.329-1.125 1.682-3.655h-12.68c-1.122 1.878-2.416 3.753-3.881 5.626zm6.727 15.61c-1.552-1.777-3.105-3.422-4.657-4.922l1.552-1.549c1.725 1.405 3.364 2.952 4.917 4.643l-1.812 1.828zm1.682-19.547h2.329v7.731c.172 3.283-1.165 4.83-4.011 4.644-.863.094-1.769.143-2.717.143 0-.654-.174-1.549-.518-2.674.518.098 1.466.143 2.846.143 1.466.188 2.155-.703 2.07-2.672l.001-7.315zm10.221 11.25c-1.898-2.345-3.968-4.5-6.21-6.472l1.552-1.827c2.155 1.879 4.27 3.938 6.339 6.188l-1.681 2.111zm-3.493 5.482c-.604-.844-1.08-1.498-1.423-1.969l1.812-1.406c2.07 2.438 3.836 4.781 5.304 7.031l-2.07 1.405c-.692-1.026-1.899-2.715-3.623-5.061zm18.991 9.444h2.717v-34.256h-1.941c-1.122 3.604-3.667 6.582-7.633 8.94v3.545c2.672-1.353 4.958-3.146 6.856-5.397l.001 27.168zm29.469-9.28c-.174-4.389-1.985-7.257-5.434-8.605 2.846-1.35 4.312-3.881 4.399-7.594-.174-5.625-2.717-8.549-7.633-8.775-4.314.113-6.986 2.929-8.021 8.438l2.846 1.185c.603-4.162 2.372-6.302 5.305-6.412 2.759.11 4.225 1.971 4.398 5.565-.174 4.164-2.114 6.304-5.822 6.412h-1.293v3.039h2.329c3.708.228 5.692 2.36 5.951 6.412 0 4.726-1.94 7.088-5.822 7.088-3.192 0-5.046-2.306-5.563-6.92l-2.976 1.015c1.035 5.965 3.966 8.942 8.797 8.942 5.434-.34 8.28-3.602 8.539-9.79zm10.456 9.112v-4.896h-4.011v4.896h4.011zm6.051-8.608c.259-4.387 1.983-7.312 5.175-8.772-2.587-1.573-3.968-4.104-4.14-7.595.344-5.737 2.931-8.774 7.763-9.112 4.657.451 7.2 3.487 7.633 9.112-.174 3.603-1.467 6.134-3.881 7.595 3.189 1.576 4.872 4.612 5.045 9.11-.259 5.738-3.192 8.72-8.797 8.943-5.693-.224-8.627-3.316-8.798-9.281zm14.619.338c-.259-4.946-2.244-7.534-5.951-7.762-3.451.228-5.349 2.698-5.693 7.424.344 4.051 2.285 6.244 5.822 6.582 3.536-.336 5.476-2.416 5.822-6.244zm-1.294-16.705c-.259-3.713-1.769-5.737-4.528-6.073-2.846.229-4.399 2.138-4.658 5.735.085 4.162 1.638 6.356 4.658 6.58 2.847-.109 4.354-2.191 4.528-6.242zm8.647-5.816h30.274v2.673h-17.983c0 1.222-.129 3.562-.388 7.03h14.619c-.087 2.438-.346 6.848-.776 13.22 0 4.688-2.027 6.938-6.081 6.75h-5.822c-.087-.375-.174-.983-.259-1.827-.087-.75-.174-1.173-.259-1.268 1.638.095 3.665.143 6.081.143 2.414.279 3.665-1.125 3.752-4.221.172-1.688.388-5.105.647-10.269h-12.032c-.174 7.688-3.58 13.781-10.221 18.281-.259-.281-.562-.703-.906-1.267-.433-.562-.734-.938-.905-1.125 6.553-4.125 9.703-9.795 9.444-17.018 0-.279.042-.795.129-1.547.171-3.562.258-5.855.258-6.893h-9.574v-2.67h.002v.008zm36.199.845h8.021v24.188h-2.199v-2.394h-3.623v3.094h-2.199v-24.888zm2.199 2.389v17.018h3.623v-17.018h-3.623zm15.267-6.047h2.329v4.359h8.668v2.391h-8.668v12.097h4.528v-9.144h2.329v11.672h-6.857v6.328c0 1.313.56 1.969 1.682 1.969h2.976c1.207 0 1.896-.514 2.07-1.547v-.422c.258-1.969.431-3.517.517-4.642.776.377 1.508.658 2.2.845 0 1.032-.174 2.769-.518 5.203-.433 1.969-1.769 3-4.011 3.094h-3.623c-2.329-.094-3.538-1.5-3.622-4.219v-6.609h-6.857v-11.672h2.329v9.144h4.528v-12.097h-8.28v-2.391h8.28v-4.359zm16.792 5.625h3.105c.861-2.153 1.508-4.026 1.941-5.625l2.717.847c-.259.562-.647 1.455-1.165 2.672-.433.938-.734 1.645-.906 2.106h6.339v26.859h-2.329v-2.673h-7.245v2.953h-2.458l.001-27.139zm2.458 2.533v8.297h7.245v-8.297h-7.245zm0 10.827v8.577h7.245v-8.577h-7.245zm12.291-4.922c-.604-.467-1.338-.982-2.2-1.547 1.896-3.469 3.536-7.642 4.917-12.519l2.717.703-.388 1.269c-.259.752-.691 1.969-1.294 3.653h10.091c-.259 11.531-.433 18.562-.518 21.097-.087 4.125-2.199 6.094-6.339 5.903-.863 0-1.94.047-3.234.144h-1.552c-.174-1.125-.346-2.107-.518-2.953h1.423c1.637.096 2.976.143 4.01.143 2.414.188 3.665-1.076 3.752-3.797.172-2.812.301-8.812.388-18h-8.409c-.174.279-.388.752-.647 1.404-.95 2.16-1.682 3.658-2.199 4.5zm5.692 8.859c-1.553-2.529-3.279-5.201-5.175-8.017l1.941-1.548c2.414 3.188 4.269 5.767 5.562 7.734l-2.328 1.831zm27.401-18.984c-5.692.188-9.618.281-11.773.281-.087-.654-.216-1.406-.388-2.25 11.298-.188 19.879-.517 25.745-.983l.647 2.25c-1.812.188-5.78.378-11.903.562v2.674h14.231v2.106h-14.231v2.53h10.738v11.812h-10.738v2.529h11.903v1.971h-11.903v2.391h14.231v2.25h-30.922v-2.25h14.361v-2.391h-11.902v-1.971h11.902v-2.529h-10.609v-11.812h10.609v-2.53h-14.102v-2.106h14.102l.002-2.534zm-8.409 9.14v2.953h8.409v-2.953h-8.409zm0 4.922v2.953h8.409v-2.953h-8.409zm19.277-4.922h-8.539v2.953h8.539v-2.953zm-8.539 4.922v2.953h8.539v-2.953h-8.539zm21.837-2.672h23.676v9.422h-10.867v2.109h12.031v1.688h-12.031v1.828h14.49v1.828h-31.05v-1.828h14.49v-1.828h-12.032v-1.688h12.032v-2.109h-10.738v-9.422h-.001zm-3.491-3.515h30.659v1.828h-30.659v-1.828zm3.751-10.405h23.156v8.857h-23.156v-8.857zm1.94 15.61v2.25h8.539v-2.25h-8.539zm0 3.795v2.25h8.539v-2.25h-8.539zm.129-17.717v1.826h18.89v-1.826h-18.89zm0 3.514v1.827h18.89v-1.827h-18.89zm19.146 10.408h-8.668v2.25h8.668v-2.25zm-8.668 3.795v2.25h8.668v-2.25h-8.668zm17.957 5.484c.861-.187 2.199-.423 4.012-.701 3.02-.653 5.219-1.125 6.6-1.406-.086.656-.129 1.455-.129 2.393-1.121.281-2.895.703-5.309 1.268-2.152.472-3.664.799-4.523.982l-.651-2.536zm11.774-19.125c-1.641 2.907-4.1 6.75-7.373 11.53 2.154-.373 4.396-.703 6.728-.981 0 .188-.043.562-.129 1.125 0 .472-.045.844-.129 1.125-1.812.278-4.142.608-6.986.981-.604.097-1.252.235-1.938.422l-1.035-2.25c.521-.278 1.035-.748 1.555-1.403.859-1.031 2.023-2.767 3.492-5.203h-1.553c-.691.098-1.209.143-1.555.143-.175 0-.476.049-.904.143-.348 0-.646.049-.904.142l-.773-2.109c.604-.562 1.164-1.266 1.683-2.106 1.812-2.812 3.362-5.717 4.657-8.721l2.197.983c-1.982 3.846-3.84 7.08-5.562 9.703.432-.093 1.12-.142 2.067-.142.775-.094 1.426-.143 1.939-.143.861-1.406 1.684-2.904 2.459-4.5l2.064 1.261zm-2.977 25.033c-.434-.375-.773-.703-1.033-.982 2.674-3 4.396-6.278 5.178-9.846.771-3.279 1.117-8.904 1.033-16.875h-2.721v-2.392h15.656v2.53l-3.104 6.893h5.176v2.393c-1.293 4.312-2.937 7.969-4.916 10.969 1.979 2.062 4.438 3.894 7.375 5.482-.775.846-1.426 1.688-1.939 2.531-3.279-2.438-5.607-4.404-6.986-5.906-1.984 2.25-4.527 4.358-7.633 6.328-.176-.188-.434-.518-.775-.982-.434-.562-.776-.983-1.035-1.268 3.105-1.688 5.691-3.748 7.763-6.188-1.981-2.623-3.537-5.905-4.653-9.844-.349 7.502-2.507 13.549-6.472 18.141l-.914-.984zm12.418-20.812l2.979-6.894h-7.762c0 .562-.045 1.406-.133 2.531v2.106c1.729 6.099 3.754 10.644 6.082 13.644 1.555-2.062 2.891-5.017 4.012-8.858h-5.178v-2.529zm17.184-3.096c-.086.563-.258 1.454-.52 2.674-.348 2.25-.689 4.03-1.033 5.344-.691-.279-1.381-.469-2.068-.562.431-1.404.861-3.422 1.293-6.047.173-.847.302-1.453.39-1.828l1.938.419zm.517 25.031v-33.188h2.33v6.894l1.293-.983c1.207 1.688 2.242 3.282 3.104 4.78l-1.94 1.406c-.174-.281-.389-.654-.645-1.125-.691-1.406-1.293-2.531-1.812-3.375v25.594h-2.33v-.003zm5.047-2.39c-.436-.375-.732-.654-.904-.844 1.812-1.972 3.535-4.5 5.177-7.597l2.067 1.269c-1.812 3.188-3.621 5.856-5.438 8.018-.172-.19-.472-.471-.902-.846zm9.055-29.25c-.258-.562-.436-.982-.52-1.269l2.328-.7c.521 1.403.99 2.858 1.422 4.356h9.315v2.25h-20.958v-2.25h9.188c-.172-.557-.432-1.352-.775-2.387zm-6.209 8.297h16.302v10.267h-7.115v8.721c.172 2.623-1.035 3.938-3.623 3.938h-3.232c-.086-.845-.26-1.733-.52-2.672.434 0 1.078.047 1.94.141h1.293c1.296.097 1.896-.469 1.812-1.688v-8.438h-6.855l-.002-10.269zm2.328 2.111v5.903h11.646v-5.903h-11.646zm14.619 19.687c-1.293-2.062-3.021-4.688-5.176-7.875l1.938-1.406c1.812 2.723 3.578 5.252 5.306 7.596l-2.068 1.685zm16.018-10.548c-.604-.653-1.252-1.45-1.94-2.392l1.164-.983h-4.525v-6.47h21.732v6.47h-4.271l1.295.983c-.174.278-.479.655-.905 1.125-.519.562-.863.981-1.035 1.267h9.442v2.108h-30.659v-2.108h9.702zm-6.987-13.922h11.385v-2.107h-13.326v-2.107h13.324v-2.953h2.328v2.953h13.455v2.107h-13.455v2.107h11.387v2.106h-25.1l.002-2.106zm1.42 18h22.256v7.875h-2.199v-1.269h-17.854v1.269h-2.197v-7.875h-.006zm2.201 2.109v2.53h17.854v-2.53h-17.854zm.258-13.922v2.394h17.338v-2.394h-17.338zm3.108 4.36c1.035 1.125 1.938 2.25 2.718 3.375h5.951c.946-1.125 1.811-2.25 2.586-3.375h-11.255z"/><path fill="#5CD6FD" d="M127.076 426.311c-.611 2.783-1.788 5.619-3.531 8.51-.96-.93-1.918-1.807-2.877-2.629 3.051-3.919 4.447-9.9 4.185-17.943v-10.674h12.424c-.262-.824-.699-2.062-1.308-3.713-.261-.518-.437-.93-.523-1.236l3.662-.771c.871 1.96 1.524 3.714 1.962 5.261l-1.569.463h12.555v3.56h-24.063v7.271c-.001 5.248-.308 9.219-.917 11.901zm33.979 2.32c-1.308 1.444-2.66 3.146-4.054 5.104l-1.308-3.714c.785-1.026 1.962-2.476 3.531-4.329.958-1.029 1.786-1.549 2.485-1.549.173 0 .347.055.523.152h.393c6.625-4.642 12.555-9.949 17.786-15.933h-22.233v-3.403h12.816c-.349-1.027-.916-2.576-1.7-4.642-.261-.72-.479-1.236-.654-1.547l3.4-.773c.697 1.757 1.524 3.974 2.485 6.652l-.916.31h10.987v3.713c-5.668 6.909-12.164 12.942-19.486 18.102 1.568 2.166 4.009 3.303 7.324 3.4 3.139.104 8.193.056 15.17-.153-.438 1.136-.742 2.319-.916 3.56h-8.893c-2.269-.104-4.273-.207-6.017-.31-4.099 0-7.237-1.548-9.416-4.644-.436-.408-.871-.408-1.307.004zm30.579-21.656v-3.248h5.625c-.438-1.752-.916-3.454-1.438-5.104l3.008-.771c.263 1.137.785 3.096 1.569 5.878h3.662v3.25h-7.062l-.131 5.259h6.277c0 5.568-.131 11.139-.393 16.707 0 3.299-1.265 4.947-3.793 4.947h-2.877l-.654-3.247h2.617c1.48.103 2.178-.724 2.092-2.479.174-5.358.262-9.59.262-12.686h-3.662c0 8.768-1.223 15.211-3.662 19.336l-2.223-2.318c2.178-3.301 3.27-9.332 3.27-18.1l.131-7.427-2.618.003zm17.525-2.012c-1.134 2.271-2.484 4.485-4.054 6.651-.96-1.136-1.657-1.908-2.093-2.319 2.615-3.402 4.531-7.22 5.754-11.447l3.008.312-.785 2.319c-.261.724-.438 1.235-.523 1.548h11.771v2.938l-13.078-.002zm12.555 27.228l-1.177 1.391c-4.884-4.535-7.673-11.342-8.37-20.418-1.046.104-2.092.258-3.139.465v16.242c1.831-1.031 3.531-1.855 5.102-2.479v1.549c.084.723.129 1.234.129 1.547-1.83.721-3.662 1.646-5.492 2.784-.176.103-.393.204-.654.31-.699.412-1.134.721-1.309.93l-1.699-2.783c.785-.725 1.132-1.702 1.046-2.938v-18.1c4.708-.412 9.417-1.236 14.125-2.478l1.046 3.248c-2.007.521-4.186.93-6.539 1.238.262 2.475.609 4.641 1.046 6.496 1.743-1.029 3.443-2.164 5.101-3.402l1.438 2.785c-1.831 1.234-3.707 2.424-5.624 3.557 1.133 3.404 3.182 6.24 6.146 8.51-.174.306-.567.82-1.176 1.546zm10.168-8.509v6.344h25.502v3.094h-28.51v-32.795h28.118v3.25h-25.11v6.188h22.233v13.924h-22.233v-.005zm19.094-10.676h-19.094v7.426h19.094v-7.426zm10.83-7.731v-2.785h7.586v-4.486h2.746v4.486h7.455v2.785h-7.455v4.02h6.801v21.191c0 .721-.088 1.393-.262 2.012 3.4-5.26 5.274-12.375 5.625-21.348h-4.186v-3.096h4.316v-4.332c.084-2.476.13-4.383.13-5.726h2.616c0 2.271-.088 5.158-.262 8.664v1.394h6.016v3.096h-5.754c.609 8.66 2.66 15.418 6.147 20.266-.438.514-1.003 1.338-1.7 2.477.086-.104 0 .052-.262.464-2.877-4.644-4.708-10.058-5.493-16.242-.522 6.188-2.181 11.812-4.97 16.858l-.393-.463c-.785-1.031-1.396-1.701-1.832-2.012-.438 1.34-1.353 2.062-2.746 2.166h-2.354v-.312c-.088-.519-.308-1.394-.653-2.629h2.092c1.045.104 1.523-.361 1.438-1.396v-18.252h-11.376v22.737h-2.485v-25.522h6.801v-4.021h-7.586v.006zm4.578 15.311v-2.783h4.446c.175-.312.394-.824.654-1.547.696-1.548 1.177-2.683 1.438-3.402l1.961 1.082-2.092 3.867h2.354v2.783h-3.14v3.248h3.793v2.784h-3.793v6.961h-2.484v-6.961h-3.792v-2.784h3.792v-3.248h-3.137zm2.092-3.094c-.698-1.235-1.307-2.422-1.83-3.558l1.699-1.084.785 1.394c.523.929.871 1.601 1.047 2.013l-1.701 1.235zm21.841-11.291c-.262-.619-.699-1.442-1.309-2.478-.522-1.135-.959-1.957-1.308-2.477l1.961-1.234c1.046 1.648 1.962 3.246 2.747 4.795l-2.091 1.394z"/><path fill="#5DD6FE" d="M48.998 428.234v5.658h-18.232l.005-4.734c5.4-8.832 8.61-14.299 9.628-16.396 1.018-2.097 1.528-3.733 1.528-4.91 0-.901-.154-1.575-.462-2.021-.308-.444-.777-.666-1.407-.666s-1.099.246-1.407.738-.462 1.471-.462 2.935v3.157h-7.423v-1.211c0-1.858.096-3.326.287-4.397.191-1.071.663-2.129 1.415-3.168.752-1.039 1.729-1.823 2.933-2.355 1.204-.533 2.646-.8 4.327-.8 3.295 0 5.787.812 7.475 2.446 1.688 1.638 2.533 3.703 2.533 6.205 0 1.897-.475 3.909-1.426 6.026-.95 2.119-3.75 6.617-8.398 13.494l9.086-.001zm23.185-16.304v11.074c0 2.516-.137 4.348-.41 5.495-.274 1.148-.841 2.224-1.702 3.22-.861.998-1.9 1.717-3.117 2.153-1.217.438-2.577.656-4.081.656-1.982 0-3.63-.229-4.942-.688s-2.358-1.172-3.138-2.144-1.333-1.992-1.661-3.065c-.328-1.072-.492-2.777-.492-5.115v-11.588c0-3.049.263-5.33.79-6.851.527-1.519 1.572-2.733 3.138-3.649 1.566-.914 3.462-1.373 5.691-1.373 1.818 0 3.445.315 4.881.953 1.436.637 2.509 1.412 3.22 2.328s1.192 1.946 1.446 3.098c.251 1.148.377 2.98.377 5.496zm-8.285-2.789c0-1.764-.085-2.865-.256-3.312-.171-.443-.571-.666-1.2-.666-.615 0-1.022.233-1.22.707-.198.473-.297 1.562-.297 3.271v16.199c0 1.93.092 3.092.277 3.485.185.396.584.597 1.2.597s1.019-.23 1.21-.697c.191-.465.287-1.512.287-3.139l-.001-16.445zm24.457-8.448v33.199h-8.285v-17.802c0-2.567-.062-4.113-.185-4.636-.123-.521-.461-.911-1.015-1.18-.554-.269-1.788-.397-3.702-.397h-.82v-3.871c4.006-.861 7.048-2.636 9.126-5.312h4.881v-.001zm21.728 0v5.311h-10.274v5.641c1.285-1.518 2.939-2.274 4.963-2.274 2.283 0 4.009.64 5.178 1.918 1.169 1.277 1.753 3.734 1.753 7.371v4.738c0 2.352-.113 4.075-.338 5.178-.225 1.103-.708 2.119-1.446 3.058-.738.938-1.767 1.651-3.086 2.151-1.32.498-2.929.748-4.83.748-2.133 0-4.013-.373-5.64-1.117-1.627-.743-2.782-1.854-3.466-3.332-.684-1.477-1.025-3.76-1.025-6.85v-1.808h8.285v2.072c0 2.146.075 3.67.226 4.572.151.898.67 1.354 1.559 1.354.41 0 .741-.131.995-.391.253-.261.39-.539.41-.842s.044-1.605.072-3.916v-6.584c0-1.244-.13-2.094-.39-2.545-.26-.449-.69-.678-1.292-.678-.383 0-.704.117-.964.352-.26.23-.427.479-.502.748-.075.268-.113.887-.113 1.854h-8.203l.349-16.73h17.779v.001z"/></svg>