<?xml version="1.0" encoding="utf-8"?>
<!-- Generator: Adobe Illustrator 16.0.0, SVG Export Plug-In . SVG Version: 6.00 Build 0)  -->
<!DOCTYPE svg PUBLIC "-//W3C//DTD SVG 1.1//EN" "http://www.w3.org/Graphics/SVG/1.1/DTD/svg11.dtd">
<svg version="1.1" id="图层_1" xmlns="http://www.w3.org/2000/svg" xmlns:xlink="http://www.w3.org/1999/xlink" x="0px" y="0px"
	 width="640px" height="157px" viewBox="0 0 640 157" enable-background="new 0 0 640 157" xml:space="preserve">
<g>
	<polygon fill-rule="evenodd" clip-rule="evenodd" fill="#231815" stroke="#FFFFFF" stroke-miterlimit="10" points="291.845,59.113 
		398,59.113 398,60.233 389.699,60.225 389.699,61.397 300.142,61.397 300.142,60.113 291.845,60.113 	"/>
	<path fill-rule="evenodd" clip-rule="evenodd" fill="#F9BE00" stroke="#FFFFFF" stroke-miterlimit="10" d="M267.208,25.984
		c-1.015-0.064-2.272-0.36-4.085,0.071c-1.651,0.399-1.278,1.141-1.417,1.813c-0.139,0.655-0.456,3.566-0.27,4.037
		c0.167,0.451,2.212,1.576,3.526,2.054c1.277,0.479,2.279,0.813,3.584,0.675c1.197-0.121,2.587-1.187,2.874-1.318
		c0.272-0.146,1.048-0.479,1.048-0.479c-0.226-1.218-0.111-4.195-0.111-4.195c-0.726-1.865-2.458-2.669-2.71-2.666
		C269.41,25.98,268.228,26.046,267.208,25.984L267.208,25.984z M265.308,26.472c0.691,0.049,0.819,0.138,1.385,0.37
		c0.562,0.212,1.516,0.893,1.017,2.079c-0.497,1.203-1.85,2.106-2.36,2.202c-0.525,0.097-1.41,0.505-2.286,0.347
		c-0.454-0.066-0.695-0.499-0.637-1.882c0.044-1.382,0.198-2.49,0.703-2.803C263.635,26.453,264.578,26.425,265.308,26.472z"/>
	<path fill-rule="evenodd" clip-rule="evenodd" fill="#009844" stroke="#FFFFFF" stroke-miterlimit="10" d="M254.758,67.39
		c0,0,0.384,0.161,0.657,0.031c0.286-0.13,1.031-0.3,1.375-0.521c0.341-0.202,1.574-0.633,1.992-0.783
		c0.415-0.167,1.9-0.488,2.116-0.582c0.22-0.093,0.4-0.222,0.543-0.225c0.146,0,0.689-0.06,0.562-0.261
		c-0.148-0.178-0.911,0.047-1.216,0.034c-0.309-0.017-2.306,0.347-3.356,0.81c-1.049,0.464-1.751,0.927-2.094,1.092
		C254.975,67.151,254.758,67.39,254.758,67.39L254.758,67.39z M284.844,61.873c0,0,0.057,0.254-0.197,0.312
		c-0.452,0.113-0.64-0.211-0.964-0.246c-0.347-0.032-0.69,0.022-0.928-0.101c-0.237-0.144-0.31-0.178-0.854-0.172
		c-0.548-0.013-2.543-0.013-2.42-0.36c0.104-0.346,0.214-0.402,0.394-0.421c0.543-0.079,2.037,0.017,1.729-0.052
		c0.508,0.104,0.454,0.141,0.964,0.262c0.507,0.123,0.89,0.192,1.105,0.264c0.239,0.087,0.606,0.32,0.789,0.445
		C284.627,61.912,284.844,61.873,284.844,61.873L284.844,61.873z M282.163,55.196c0,0-0.085,0.437-0.357,0.312
		c-0.257-0.107-1.44-0.477-3.132-0.695c-1.69-0.223-3.16,0.139-3.853-0.09c-0.693-0.232-0.785-0.486-0.206-0.617
		c0.814-0.171,3.286-0.177,3.959-0.038C279.23,54.207,282.163,55.196,282.163,55.196L282.163,55.196z M247.308,59.414
		c0.812-0.462,1.302-0.629,1.717-0.87c0.417-0.26,0.666-0.714,0.881-0.771c0.199-0.036,0.748,0.175,1.111,0.044
		c0.38-0.15,0.85-0.57,1.102-0.628c0.255-0.038,1.415-0.396,1.867-0.436c1.161-0.12,1.159-0.394,1.575-0.413
		c0.764-0.062,0.633-0.227,1.487-0.542c2.188-0.877,15.959-4.638,26.198-1.157c0.42,0.142,0.949,0.137,1.421,0.277
		c0.495,0.141,0.569,0.211,0.588,0.449c0.018,0.235-0.138,0.855-0.051,0.908c0.112,0.073,0.132,0.362,0.461,0.359
		c0,0-0.068,0.272-0.088,0.419c0.002,0.128-0.102,0.346-0.099,0.729l0.235,0.052c0,0,0.347,0.267,0.62,0.338
		c0,0-0.383,0.003-0.171,1.019c0.112,0.597-0.136,1.036-0.333,1.295c-0.178,0.255,0.021,0.396,0.352,0.431
		c0.543,0.068,0.308,0.16,0.488,0.303c0,0-1.015,0.01-1.467-0.003c-0.291-0.016-0.249,0.656-0.119,1.002
		c0.167,0.397,1.15,0.607,2.192,1.086c1.202,0.552,1.477,0.856,2.682,1.445c0,0-12.914-3.946-25.238-0.578
		c0,0-2.087,0.256-2.172,1.003c0,0,1.237-0.103,1.636,0.11c0,0-2.989,0.683-5.342,1.722c-2.333,1.04-3.504,1.813-6.088,3.363
		c-2.764,1.662-3.414,1.761-3.835,1.726c-0.416-0.051-0.364-0.268-0.515-0.649c-0.131-0.359-0.641-0.755-0.97-0.878
		c-0.31-0.107-0.873-0.121-1.091-0.209c-0.236-0.089-0.837-0.011-1.113-0.3c-0.275-0.27-0.287-1.595-0.199-1.796
		c0.091-0.217,0.168-1.51-0.105-1.761c-0.278-0.251-0.798,0.133-1.256-0.081c-0.457-0.229-0.587-0.756-0.721-1.479
		c-0.153-0.747-0.904-1.231-0.944-1.719c-0.044-0.818,0.372-1.076,0.786-1.371C243.223,61.541,246.497,59.892,247.308,59.414z"/>
	<path fill-rule="evenodd" clip-rule="evenodd" fill="#E50012" stroke="#FFFFFF" stroke-miterlimit="10" d="M253.837,33.266
		c-2.032,0.384-4.277,1.132-5.433,1.795c-1.177,0.666-3.417,1.76-3.907,2.109c-0.485,0.351-0.315,0.893-0.533,1.168
		c-0.214,0.291-0.43,0.513-0.428,0.714c0,0.215,1.537,3.108,1.537,3.108c0.09,0.142,0.095,0.252-0.031,0.436
		c-0.125,0.166-0.125,0.273-0.215,0.566c-0.105,0.291-0.299,0.837-0.188,1.035c0.129,0.218,0.291,0.179,0.238,0.416
		c-0.034,0.234,0.022,0.42,0.022,0.42s2.766-1.498,3.525-1.926c0.778-0.442,2.746-1.442,3.168-1.21
		c0.38,0.215-0.081,1.311-0.081,1.311c1.085-0.499,1.426-0.634,3.592-0.49c2.181,0.161,3.094,0.245,3.252,0.133
		c0.164-0.11,0.379-0.492,0.561-0.495c0.163-0.002,0.364,0.178,0.494,0.178c0.127-0.003,2.376-2.331,3.098-4.553
		c0.759-2.313,0.713-3.296-0.052-3.688c-0.677-0.356-1.733-0.547-2.246-0.887C259.481,32.94,255.868,32.867,253.837,33.266
		L253.837,33.266z M273.2,35.3c0,0-0.076,1.289-0.035,1.816c0.042,0.526-0.03,2.598-0.057,3.562
		c-0.044,0.944-0.461,3.057-0.822,3.35c-0.343,0.256-1.239,1.318-1.366,1.666c-0.121,0.365-0.248,0.512-0.485,0.623
		c-0.214,0.091-0.901,0.571-1.734,0.869c-0.852,0.281-1.083,0.755-2.354,0.967c-1.249,0.213-2.8-0.5-3.368-0.714
		c-0.563-0.229-1.088-0.115-1.088-0.115s1.691-1.58,1.413-2.194c-0.296-0.615,0.104-0.998,0.243-1.511
		c0.139-0.51-0.266-1.179-0.616-1.684c-0.335-0.505-0.518-0.773-0.213-1.141c0.305-0.365,0.861-1.37,0.859-1.608
		c-0.001-0.253,0.644-0.95,0.966-1.371c0.341-0.42,0.81-0.681,1.248-0.757c0.451-0.095,1.632-0.214,2.717-0.66
		C269.466,36.024,270.385,35.346,273.2,35.3L273.2,35.3z M273.884,26.683c0,0,2.773-0.518,3.262-0.685
		c0.471-0.169,2.032-0.328,3.308,0.113c0.985,0.336,1.233,1.494,1.236,1.84c0.002,0.346,0.049,1.6,0.106,1.907
		c0.058,0.328,0.069,1.361,0.114,2.181c0.025,0.816-0.137,2.742-0.009,3.269c0.154,0.505,0.811,1.245,0.89,1.536
		c0.075,0.31,0.004,0.599-0.484,0.568c-0.491-0.014-1.354-0.497-1.806-0.383c-0.469,0.095-1.043,1.007-1.458,1.356
		c-0.413,0.368-1.407,1.05-1.892,1.419c-0.378,0.275-0.759,0.57-1.047,0.644c-0.291,0.074-0.675,0.099-0.988-0.554
		c-0.318-0.669-0.357-1.396-0.328-1.759c0.016-0.362-0.1-1.054-0.1-1.054s0.347,0.052,0.473,0.032
		c0.111-0.037,0.196-0.438-0.011-1.161c-0.223-0.743-0.627-1.355-0.577-3.464c0.056-2.107,0.381-3.765,0.121-4.343
		c-0.241-0.581-0.679-0.756-0.772-1.027c-0.111-0.29-0.055-0.164-0.111-0.29C273.756,26.7,273.884,26.683,273.884,26.683
		L273.884,26.683z M269.908,15.513c-1.433,0.068-3.729,1.36-5.306,3.792c-1.415,2.12-0.829,2.477-0.442,2.926
		c0.383,0.453,2.028,1.509,2.394,1.779c0.369,0.27,1.567,0.366,1.567,0.366c-0.042-0.491-0.549-0.559-0.407-0.886
		c0.122-0.349,1.863-0.6,2.425-0.404c1.188,0.369,2.456,1.865,2.696,2.081c0.255,0.232,0.784,0.628,1.385,0.659
		c0.618,0.047,1.308-0.068,1.861-1.072c0.374-0.676,1.074-1.683,1.249-2.301c0.176-0.638,0.313-1.621,0.304-2.473
		c-0.01-0.854,0.029-2.635-0.045-2.907c-0.077-0.272-0.946-0.354-1.583-0.438c-0.637-0.086-2.385-0.503-3.205-0.66
		C271.982,15.817,271.344,15.426,269.908,15.513L269.908,15.513z M255.805,16.771c0.271-0.057,0.147,0.016,0.42-0.021
		c0.377-0.06,0.59-0.441,0.756-0.752c0.159-0.291,0.538-0.66,1.175-0.502c0.636,0.137,0.729,0.193,1.51,0.314
		c0.765,0.136,1.757-0.456,2.523-0.262c1.837,0.473,1.759,1.635,1.765,2.399c0.008,0.78-0.834,1.66-2.453,3.984
		c-2.49,3.601-2.676,6.526-2.219,7.249c0.464,0.742,0.597,1.392,0.417,1.56c-0.18,0.146-0.346,0.146-0.488,0.31
		c-0.126,0.169-0.345,0.132-0.561,0.226c-0.472,0.225-1.194,0.503-2.412,0.352c-1.258-0.153-2.132-0.507-2.426-0.814
		c-1.318-1.367-1.863-3.289-2.149-4.685c-0.306-1.395,0.041-3.288,0.303-4.526c0.277-1.218,0.52-4.019,1.815-5.738
		c0.27-0.385,0.831-0.407,0.959-0.263c0,0-0.065,0.619,0.064,0.961c0.112,0.346,0.312,0.235,0.314,0.397
		c0.002,0.146,0.146,0.182,0.344,0.087C255.573,16.99,255.517,16.826,255.805,16.771z"/>
	<path fill-rule="evenodd" clip-rule="evenodd" fill="#231815" stroke="#FFFFFF" stroke-miterlimit="10" d="M311.787,20.633
		c0,0,3.682-1.102,8.981,0.727c0,0,1.768,0.789,2.891,2.1c0,0,0.479,1.808,0.102,2.183c0,0,0.229,1.124-3.801,1.059
		c0,0-2.621,0.481-2.993,0.854c-0.738,0.3-1.138,0.487-1.623,0.646c0,0,0.373,0.372,4.008-0.375c0,0,3.974-0.873,6.969-0.687
		c0,0,3.117,0.043,4.049,1.163c0.356,1.026,1.282,3.054,1.437,3.179c0.022-0.062-4.142,0.336-5.862-0.496
		c0,0,0.021-0.584,0.397-0.894c0,0,0.351-0.665-2.639-0.312c0,0-7.11,0.663-10.854,1.785c0.319,0-4.106,1.125-4.304,1.686
		c0,0,3.577,0.041,6.009,1.912c0,0,1.831,0.624,0.165,5.572c-0.002-0.008-0.641,2.164-2.327,4.863c0,0-1.974,2.808-2.161,3.368
		c0,0-2.787-0.687-6.905,3.431c-1.062-0.531-1.652-0.109-2.41,0.536c1.219-1.383,3.242-3.698,3.242-4.363
		c0-0.538-1.26,1.227-2.056,1.724c0.199-0.074,1.946-2.376,2.329-3.386c0,0,2.495-4.115,2.119-10.288c0,0,0.311-0.562-0.998-2.06
		c-0.147-0.097,0.103-0.312,0.665-0.562c0,0-0.125-0.438-2.158,0.188c0,0-0.998,0.727-3.061-0.209c0,0,0.147-0.395,0.728-0.727
		c-0.105,0.075,3.046-1.591,5.634-2.495c2.47-0.861,2.846-1.122,5.552-1.745c0.166,0.168,0.943-2.792-1.931-1.248
		c-0.354,0.191-0.751,0.533-1.312,0.771c0.034,0.023,0.762-0.477,1.354-1.159c0.633-0.731,1.422-1.244,1.849-1.503
		c0,0,0.017-4.035-2.496-5.113L311.787,20.633L311.787,20.633z M365.073,51.563c-0.616-0.575-1.284-1.65-1.439-2.458
		c-0.229-1.196-0.104-1.555,0.43-1.555c0.732,0,1.39,1.58,1.39,1.58s1.319,0.701,1.257,1.058
		C366.578,50.962,365.234,51.572,365.073,51.563L365.073,51.563z M376.499,35.054c0,0-1.452-0.29-2.353-0.589
		c-0.892-0.299-5.522,0.351-8.693,4.124c-2.279,2.717-0.795,5.067,0.692,6.058c1.491,0.991,4.437,1.82,5.526,1.416
		c1.087-0.393,3.339-3.765,3.871-5.85C376.062,38.131,376.499,35.054,376.499,35.054L376.499,35.054z M364.918,18.202
		c-1.078,7.27-4.336,11.155-4.336,11.155s1.489-1.717,1.813-1.914c0.248-0.153,0.489,0.197,0.436,0.485
		c-0.043,0.284-0.171,0.583-0.171,0.583s1.17-1.332,1.592-1.341c0.704-0.016,0.578,0.572,1.337,0.596
		c1.291,0.052,2.282-2.013,2.282-2.013l1.443,0.18c1.632-3.408,5.09-3.846,5.09-3.846c-0.681,5.067-8.117,7.52-8.117,7.52
		s-1.047-0.602-1.379-0.481c-0.345,0.112-0.564,0.591-0.633,0.864c-0.07,0.265-0.958,2.153-1.247,2.776
		c-0.301,0.621-1.16,3.389-1.333,4.099c-0.168,0.7-1.051,6.447-1.188,8.354c-0.144,1.904-0.1,8.524,2.078,10.616
		c2.178,2.095,4.567,1.284,6.275-0.128c1.708-1.408,2.99-2.905,2.99-2.905s2.265,0.727,4.995,0.042
		c2.738-0.681,5.339-2.005,6.663-2.477c1.325-0.469,3.255-0.384,4.271-1.494c0.793-0.869,0.489-1.947,0.173-2.535
		c-1.078-2.01,0.391-1.974,0.391-1.974c-2.562,0.137-2.51-0.239-1.885-0.538c0.535-0.256,1.501-0.436,1.501-0.436
		s0.803-0.164,0.65-0.621c-0.128-0.378-0.566-0.694-0.079-1.089c0.344-0.281,1.549-0.758,1.549-0.758
		c-3.762,0.024-5.988,0.785-7.867,1.485c-1.881,0.708-3.569,1.93-4.611,2.503c-1.28,0.7-2.377,0.443-2.377,0.443
		c0.883-1.767,1.325-4.844,1.325-4.844s-0.686-2.132,0.072-3.971c0.735-1.835,1.121-4.338,0.68-4.894
		c-0.455-0.557-0.752-0.787-4.126-0.214c-3.377,0.581-5.422,2.443-6.576,3.34c-2.136,1.648-3.648,5.725-3.648,5.725
		c0.342-7.134,3.264-9.681,3.264-9.681s4.646-1.074,5.407-1.347c4.431-1.624,6.063-3.437,6.063-3.437l-0.027-2.135
		c-1.579-0.664-1.854-2.604-1.854-2.604s0.589-0.249,0.908-0.395c0.315-0.153,0.701-0.348,0.827-0.135
		c0.128,0.204,0,0.314,0.215,0.398c0.22,0.078,1.188-0.126,1.573-0.288c0.383-0.153,1.219-0.309,1.219-0.309
		c-0.802-0.853-1.162-1.535-1.162-1.535c-1.348,0.494-2.477,0.553-3.218,0.698c-0.737,0.153-2.113,0.709-3.017,1.221
		c-0.917,0.514-2.596,1.725-3.155,1.648c-0.383-0.06-0.281-0.381,0.121-0.7c0.396-0.306,0.608-0.435,0.822-0.98
		c0.215-0.538,2.22-2.29,2.468-2.871c0.237-0.59,0.258-1.339,0.258-1.339c-1.598-1.239-4.119-1.216-5.545-1.283
		c-1.421-0.068-3.578,0.036-3.578,0.036S365.295,15.657,364.918,18.202L364.918,18.202z M354.958,29.084
		c3.235,1.98,2.048,6.936,1.398,8.618c-0.642,1.683-1.586,3.271-2.325,3.519c-0.732,0.238-2.105-0.188-2.105-0.188
		s0.52,0.401-0.274,2.418c-1.377,3.491-0.214,4.673-0.214,4.673s1.467-0.31,1.861-0.403c0.402-0.095,2.324-2.252,2.938-3.049
		c0.61-0.795,1.009-2.17,1.376-3.815c0.479-2.139,1.096-5.86,0.701-9.083c-0.156-1.229-0.454-1.988-0.454-1.988
		s-0.204,0.144-0.726-0.137C356.349,29.229,354.958,29.084,354.958,29.084L354.958,29.084z M350.258,18.211
		c0,0,0.446-0.02,1.554-0.352c1.171-0.342,2.78-0.385,3.437,0.043c0.647,0.428,1.939,2.811,2.238,4.042
		c0.425,1.732-0.109,2.298-0.109,2.298s2.302-0.454,2.779-0.454c0.488,0,1.738,0.514,1.738,0.734c0,0.231,0,0.718-0.687,0.972
		c-0.682,0.26-1.904-0.084-2.499-0.117c-0.595-0.026-1.021,0-1.223,0.341c-0.196,0.343-0.109,1.086-0.196,1.343
		c-0.176,0.536-0.542,0.562-0.542,0.562s-0.108-0.965-0.28-1.391c-0.171-0.427-0.684-0.224-0.938,0
		c-0.258,0.229-0.766,1.306-1.196,1.759c-0.746,0.795-2.395,2.604-3.887,7.447c-2.393,7.666-2,17.108-2,17.108
		s-1.092-0.965-1.092-1.364c0-1.034,0.136-8.484,1.349-14.727c0.913-4.715,3.649-8.456,3.649-8.456s-2.889,1.444-3.497,1.947
		c-0.606,0.513-1.414,1.31-1.789,1.494c-0.369,0.18-0.651-0.119-1.003-0.024c-0.35,0.094-1.366,0.138-1.366,0.138
		s0.812-0.625,1.742-1.367c1.846-1.479,9.096-5.331,9.096-5.331s-0.066-0.111-0.836-1.392c-0.769-1.281-2.723-4.296-3.772-4.979
		C350.786,18.391,350.258,18.211,350.258,18.211L350.258,18.211z M333.421,34.431c0,0-0.979,0.555-1.306,0.683
		c-0.312,0.129-0.834,0.794-0.749,1.181c0.085,0.391,0.561,0.578,1.204,1.032c0.64,0.446,1.93,1.237,1.93,1.237
		s0.418,0.496,1.719-1.835c1.194-2.169,1.706-2.357,1.921-2.229c0.213,0.128,0.323,0.299,0.323,0.299
		c-1.111,0.812-1.52,2.546-1.773,3.467c-0.258,0.922-1.19,3.901-0.666,5.339c0.361,0.979,1.133,1.181,1.604,1.544
		c0.469,0.36,1.841,1.197,2.103,2.086c0.256,0.904-0.672,1.051-0.672,1.051s0.85-0.189,1.212,0.152
		c0.345,0.335,0.517,0.514,0.73,0.6c0.212,0.086,0.509,0.387,1.282,0.437c0.764,0.052,0.545-0.644,0.545-0.865
		c0-0.214-0.505-1.886-2.187-3.1c-1.536-1.11-2.794-1.213-3.212-1.538c-0.604-0.477-0.981-1.931-0.783-3.374
		c0.188-1.436,0.706-3.552,1.263-4.109c0.562-0.561,1.449-1.885,1.989-2.397c0.651-0.627,0.931-0.497,0.931-0.497
		s-0.129-0.151-0.17-0.398c-0.044-0.21-0.091-0.241-0.128-0.385c-0.033-0.138,0.019-0.292,0.019-0.292s-1.795,0.043-2.062,0.118
		c-0.274,0.08-0.253,0.163-0.573,0.239c-0.322,0.078-0.758,0.351-1.141,0.718c-0.389,0.359-0.742,1.161-2.18,1.632
		C332.134,36.027,333.421,34.431,333.421,34.431L333.421,34.431z M336.219,26.026c0,0,2.203,0.975,2.004,3.477
		c-0.057,0.914-0.954,1.16-1.563,1.521c-0.599,0.366-1.151,0.427-1.972,2.486c0,0-0.061-0.431-0.274-0.926
		c-0.211-0.493-0.28-2.329-0.024-3.337c0.266-1.01,0.862-2.612,0.07-3.307L336.219,26.026z"/>
	<path fill-rule="evenodd" clip-rule="evenodd" fill="#231815" stroke="#FFFFFF" stroke-miterlimit="10" d="M394.999,15.403
		c1.652,0,3.001,1.347,3.001,3.001c0,1.652-1.349,3.002-3.001,3.002c-1.654,0-3-1.35-3-3.002
		C391.999,16.75,393.345,15.403,394.999,15.403L394.999,15.403z M394.999,15.915c-1.37,0-2.492,1.118-2.492,2.489
		c0,1.37,1.122,2.487,2.492,2.487s2.489-1.117,2.489-2.487C397.488,17.033,396.369,15.915,394.999,15.915L394.999,15.915z
		 M393.752,20.038h0.669V18.76h0.705c0.241,0,0.391,0.047,0.461,0.141c0.047,0.068,0.073,0.229,0.073,0.477
		c0,0.169,0.005,0.3,0.017,0.391c0.013,0.093,0.029,0.182,0.058,0.271h0.754v-0.087c-0.069-0.026-0.114-0.076-0.125-0.15
		c-0.016-0.076-0.021-0.243-0.021-0.501c0-0.284-0.035-0.484-0.104-0.6c-0.054-0.083-0.157-0.157-0.312-0.228
		c0.155-0.054,0.283-0.152,0.372-0.295c0.089-0.14,0.132-0.303,0.132-0.484c0-0.297-0.104-0.534-0.322-0.709
		c-0.171-0.144-0.406-0.214-0.705-0.214h-1.651V20.038L393.752,20.038z M394.421,18.208h0.799c0.184,0,0.318-0.033,0.401-0.103
		c0.085-0.067,0.129-0.181,0.129-0.344c0-0.112-0.031-0.205-0.085-0.276c-0.082-0.1-0.213-0.151-0.395-0.151h-0.85V18.208z"/>
	<path fill-rule="evenodd" clip-rule="evenodd" fill="#E50012" stroke="#FFFFFF" stroke-miterlimit="10" d="M306.125,67.679
		c-0.255-0.241-0.516-0.422-0.78-0.538c-0.261-0.122-0.543-0.179-0.834-0.179c-0.459,0-0.826,0.138-1.104,0.413
		c-0.275,0.279-0.417,0.648-0.417,1.11c0,0.45,0.13,0.81,0.397,1.075c0.265,0.271,0.621,0.404,1.068,0.404
		c0.268,0,0.539-0.058,0.818-0.169c0.28-0.114,0.583-0.292,0.91-0.542l-0.09,2.883c-0.305,0.124-0.609,0.215-0.911,0.275
		c-0.302,0.062-0.609,0.092-0.913,0.092c-0.379,0-0.743-0.042-1.092-0.126c-0.353-0.084-0.666-0.201-0.948-0.358
		c-0.684-0.388-1.205-0.881-1.554-1.479c-0.356-0.597-0.533-1.282-0.533-2.055c0-0.572,0.103-1.104,0.305-1.593
		c0.199-0.487,0.488-0.919,0.87-1.291c0.386-0.375,0.831-0.661,1.336-0.856c0.508-0.195,1.061-0.292,1.649-0.292
		c0.315,0,0.624,0.033,0.931,0.097c0.305,0.065,0.601,0.161,0.893,0.292V67.679L306.125,67.679z M331.247,67.759h2.08h0.955h1.243
		c0.008,0.155,0.012,0.273,0.016,0.349c0.005,0.078,0.005,0.146,0.005,0.205c0,0.439-0.045,0.84-0.128,1.201
		c-0.084,0.363-0.209,0.688-0.37,0.965c-0.394,0.657-0.908,1.157-1.532,1.506c-0.629,0.347-1.337,0.52-2.131,0.52
		c-0.588,0-1.133-0.098-1.638-0.292c-0.501-0.192-0.951-0.479-1.338-0.855c-0.387-0.376-0.678-0.806-0.875-1.291
		c-0.199-0.487-0.296-1.013-0.296-1.58c0-0.572,0.097-1.104,0.301-1.591c0.198-0.486,0.49-0.912,0.871-1.283
		c0.385-0.372,0.832-0.659,1.337-0.853c0.505-0.195,1.05-0.294,1.638-0.294c0.796,0,1.502,0.172,2.119,0.519
		c0.62,0.34,1.123,0.846,1.514,1.507l-1.99,0.704c-0.352-0.634-0.887-0.841-1.576-0.841c-1.085,0-1.755,0.832-1.755,2.115
		c0,1.282,0.67,2.08,1.755,2.08c0.886,0,1.491-0.445,1.741-1.396h-1.945V67.759L331.247,67.759z M357.579,72.3
		c-0.927-0.054-1.31-0.395-1.163-1.076l2.77-4.305h-2.715v-2.281h5.218c0.799,0.029,1.337,0.277,1.31,1.002l-2.749,4.301h2.996V72.3
		H357.579L357.579,72.3z M384.187,70.989v-6.352h2.798v5.176h2.715V72.3h-3.902C384.813,72.309,384.281,71.871,384.187,70.989z"/>
</g>
</svg>
