<?xml version="1.0" encoding="UTF-8" standalone="no"?>
<svg width="640px" height="146px" viewBox="0 0 640 146" version="1.1" xmlns="http://www.w3.org/2000/svg" xmlns:xlink="http://www.w3.org/1999/xlink" xmlns:sketch="http://www.bohemiancoding.com/sketch/ns">
    <!-- Generator: Sketch 3.3 (11970) - http://www.bohemiancoding.com/sketch -->
    <title>Rectangle 4</title>
    <desc>Created with Sketch.</desc>
    <defs></defs>
    <g id="Welcome" stroke="none" stroke-width="1" fill="none" fill-rule="evenodd" sketch:type="MSPage">
        <g id="01-02" sketch:type="MSArtboardGroup" transform="translate(0.000000, -246.000000)">
            <g id="01-02-logo-royal" sketch:type="MSLayerGroup" transform="translate(0.000000, 246.000000)">
                <rect id="Rectangle-4" sketch:type="MSShapeGroup" x="0" y="0.686087388" width="640" height="145.313913"></rect>
                <g id="Group" transform="translate(167.000000, 8.000000)" sketch:type="MSShapeGroup">
                    <path d="M0.723,0.00452830189 L301.896,0.00452830189 L301.896,76.9005015 L0.723,76.9005015 L0.723,0.00452830189 Z" id="Fill-29" fill="#FFFFFF"></path>
                    <path d="M2.634,1.92271102 L300.016,1.92271102 L300.016,75.0322195 L2.634,75.0322195 L2.634,1.92271102 Z" id="Fill-30" fill="#006AB6"></path>
                    <path d="M2.629,1.92271102 L75.895,1.92271102 L75.895,75.0322195 L2.629,75.0322195 L2.629,1.92271102 Z" id="Fill-31" fill="#000D57"></path>
                    <path d="M75.892,52.5399801 L300.014,52.5399801 L300.014,75.0322195 L75.892,75.0322195 L75.892,52.5399801 Z" id="Fill-32" fill="#FBC200"></path>
                    <path d="M87.043,59.0320606 L88.521,59.0320606 L88.521,69.2706852 L87.043,69.2706852 L87.043,59.0320606 Z" id="Fill-33" fill="#000D57"></path>
                    <path d="M99.055,59.0320606 L101.045,59.0320606 L105.586,67.2736594 L105.623,67.2736594 L105.623,59.0320606 L107.074,59.0320606 L107.074,69.2706852 L105.2,69.2706852 L100.565,60.854434 L100.522,60.854434 L100.522,69.2706852 L99.055,69.2706852 L99.055,59.0320606" id="Fill-34" fill="#000D57"></path>
                    <path d="M119.662,60.3284806 L116.468,60.3284806 L116.468,59.0320606 L124.324,59.0320606 L124.324,60.3284806 L121.13,60.3284806 L121.13,69.2706852 L119.662,69.2706852 L119.662,60.3284806" id="Fill-35" fill="#000D57"></path>
                    <path d="M133.801,59.0320606 L139.546,59.0320606 L139.546,60.3254866 L135.274,60.3254866 L135.274,63.3105462 L139.16,63.3105462 L139.16,64.6039722 L135.274,64.6039722 L135.274,67.9792552 L139.546,67.9792552 L139.546,69.2706852 L133.801,69.2706852 L133.801,59.0320606" id="Fill-36" fill="#000D57"></path>
                    <path d="M149.752,59.0320606 L152.265,59.0320606 C154.287,59.0320606 156.235,59.3534211 156.235,61.8035452 C156.235,63.0520606 155.316,63.9273188 154.129,64.1378997 L154.129,64.158858 C154.577,64.3385005 154.815,64.5620556 155.127,65.1937984 L157.065,69.2706852 L155.391,69.2706852 L153.822,65.7207498 C153.357,64.7177458 152.872,64.7177458 152.102,64.7177458 L151.209,64.7177458 L151.209,69.2706852 L149.752,69.2706852 L149.752,59.0320606 L149.752,59.0320606 Z M151.209,63.4293098 L152.46,63.4293098 C153.864,63.4293098 154.689,62.8075472 154.689,61.8354816 C154.689,60.9103227 153.976,60.3284806 152.635,60.3284806 L151.209,60.3284806 L151.209,63.4293098 L151.209,63.4293098 Z" id="Fill-37" fill="#000D57"></path>
                    <path d="M166.737,59.0320606 L168.728,59.0320606 L173.258,67.2736594 L173.295,67.2736594 L173.295,59.0320606 L174.763,59.0320606 L174.763,69.2706852 L172.883,69.2706852 L168.242,60.854434 L168.205,60.854434 L168.205,69.2706852 L166.737,69.2706852 L166.737,59.0320606" id="Fill-38" fill="#000D57"></path>
                    <path d="M188.543,59.0320606 L190.09,59.0320606 L194.425,69.2706852 L192.815,69.2706852 L191.779,66.6878252 L186.753,66.6878252 L185.713,69.2706852 L184.171,69.2706852 L188.543,59.0320606 L188.543,59.0320606 Z M189.266,60.4123138 L187.223,65.4892105 L191.31,65.4892105 L189.266,60.4123138 L189.266,60.4123138 Z" id="Fill-39" fill="#000D57"></path>
                    <path d="M204.81,60.3284806 L201.61,60.3284806 L201.61,59.0320606 L209.467,59.0320606 L209.467,60.3284806 L206.283,60.3284806 L206.283,69.2706852 L204.81,69.2706852 L204.81,60.3284806" id="Fill-40" fill="#000D57"></path>
                    <path d="M218.865,59.0320606 L220.333,59.0320606 L220.333,69.2706852 L218.865,69.2706852 L218.865,59.0320606 Z" id="Fill-41" fill="#000D57"></path>
                    <path d="M235.29,58.8524181 C238.4,58.8524181 240.232,61.1189076 240.232,64.1508739 C240.232,67.2566931 238.432,69.4443396 235.29,69.4443396 C232.17,69.4443396 230.364,67.2566931 230.364,64.1508739 C230.364,61.1189076 232.185,58.8524181 235.29,58.8524181 M235.29,68.1578997 C237.661,68.1578997 238.685,66.1878203 238.685,64.1508739 C238.685,62.0700149 237.56,60.135864 235.29,60.138858 C233.03,60.135864 231.911,62.0700149 231.911,64.1508739 C231.911,66.1878203 232.935,68.1578997 235.29,68.1578997" id="Fill-42" fill="#000D57"></path>
                    <path d="M250.243,59.0320606 L252.244,59.0320606 L256.769,67.2736594 L256.795,67.2736594 L256.795,59.0320606 L258.269,59.0320606 L258.269,69.2706852 L256.384,69.2706852 L251.742,60.854434 L251.716,60.854434 L251.716,69.2706852 L250.243,69.2706852 L250.243,59.0320606" id="Fill-43" fill="#000D57"></path>
                    <path d="M272.06,59.0320606 L273.596,59.0320606 L277.931,69.2706852 L276.325,69.2706852 L275.285,66.6878252 L270.259,66.6878252 L269.214,69.2706852 L267.672,69.2706852 L272.06,59.0320606 L272.06,59.0320606 Z M272.772,60.4123138 L270.739,65.4892105 L274.826,65.4892105 L272.772,60.4123138 L272.772,60.4123138 Z" id="Fill-44" fill="#000D57"></path>
                    <path d="M287.334,59.0320606 L288.807,59.0320606 L288.807,67.9792552 L293.104,67.9792552 L293.104,69.2706852 L287.334,69.2706852 L287.334,59.0320606" id="Fill-45" fill="#000D57"></path>
                    <path d="M39.345,12.0026514 C41.969,14.5346127 44.899,17.2222642 47.439,19.8410526 L44.466,23.6584558 L44.466,23.8480785 L52.344,27.3570953 L57.666,23.7083565 L54.445,20.1464449 L54.445,19.8909533 C57.745,17.5615889 60.569,15.3220457 63.764,13.1852979 L62.223,29.1385501 L16.298,29.1385501 L14.746,13.1852979 C17.94,15.3220457 20.77,17.5615889 24.064,19.8909533 L24.064,20.1464449 L20.855,23.7083565 L26.172,27.3570953 L34.038,23.8480785 L34.038,23.6584558 L31.071,19.8410526 C33.616,17.2222642 36.547,14.5346127 39.165,12.0026514 L39.345,12.0026514" id="Fill-46" fill="#FFFFFF"></path>
                    <path d="M61.863,32.0098361 L61.404,37.3302483 L44.408,37.3242602 L44.408,55.68572 L52.692,55.6358193 C54.529,55.6298312 56.483,53.6966783 56.076,52.4212165 C55.648,50.5669067 53.976,49.3343595 52.428,48.4141907 C52.74,48.4141907 58.416,44.2375025 61.076,42.4380834 C60.961,43.5927855 59.049,58.5949305 59.028,58.8364499 L39.424,66.2876216 L39.097,66.2876216 L19.482,58.8364499 C19.461,58.5949305 17.561,43.5927855 17.439,42.4380834 C20.1,44.2375025 25.775,48.4141907 26.076,48.4141907 C24.535,49.3343595 22.877,50.5669067 22.428,52.4212165 C22.037,53.6966783 23.985,55.6298312 25.823,55.6358193 L34.107,55.68572 L34.112,37.3242602 L17.101,37.3302483 L16.646,32.0098361 L61.863,32.0098361" id="Fill-47" fill="#FFFFFF"></path>
                    <path d="M87.56,22.7492651 C87.56,17.5196723 87.381,16.7292453 83.548,16.3919166 L83.548,15.9098759 L91.895,15.6414101 C100.533,15.3649603 101.214,19.5725869 101.214,21.2083317 C101.214,24.0905958 99.435,25.7323287 96.969,26.8251539 L97.138,27.0596872 C99.783,31.6834856 103.061,37.5538034 108.717,38.7154916 L108.616,39.2344588 C104.978,39.0588083 102.302,39.1635998 100.321,37.1086892 C98.072,34.7583664 96.288,31.7473585 95.56,30.277284 C94.197,27.4369364 92.956,28.2483217 90.554,27.8451241 L90.554,33.3491708 C90.554,37.1086892 90.633,37.7903327 95.327,38.4440318 L95.327,38.9580089 L83.3,38.9580089 L83.3,38.4440318 C87.412,37.9011122 87.444,36.8711619 87.56,33.3491708 L87.56,22.7492651 L87.56,22.7492651 Z M90.554,27.263282 C93.849,27.2333416 97.687,25.7323287 97.687,21.9298957 C97.687,17.925864 94.165,16.3320357 90.554,16.3579841 L90.554,27.263282 L90.554,27.263282 Z" id="Fill-48" fill="#FFFFFF"></path>
                    <path d="M113.69,39.2773734 C108.986,39.2773734 105.258,36.3102781 105.258,31.4519464 C105.258,26.7303426 109.134,23.4738232 113.722,23.4738232 C118.379,23.4738232 122.111,26.4858292 122.111,31.3152185 C122.111,35.9679593 118.21,39.2773734 113.69,39.2773734 M113.653,24.2303178 C109.952,24.2303178 108.436,28.0636892 108.436,31.209429 C108.436,34.3920953 110.227,38.528863 113.923,38.528863 C117.381,38.528863 118.923,34.5976862 118.923,31.6465591 C118.923,28.5167875 117.381,24.2303178 113.653,24.2303178" id="Fill-49" fill="#FFFFFF"></path>
                    <path d="M123.194,26.899007 C122.587,25.3610675 122.449,25.0177507 120.733,24.7442949 L120.733,24.2303178 L127.835,24.2303178 L127.835,24.7442949 C125.222,24.8830189 125.913,26.4518967 126.6,28.195427 L129.957,36.88214 L132.074,30.7383664 C133.622,26.2852284 133.897,25.0866137 131.362,24.7442949 L131.362,24.2303178 L137.359,24.2303178 L137.359,24.7442949 C135.855,24.9239374 135.364,25.5317279 134.715,26.8361321 L133.273,30.1505362 L128.004,43.3871946 C126.731,46.5538928 125.85,47.6237637 124.477,47.6237637 C123.548,47.6237637 122.793,46.8652731 122.793,45.9081778 C122.793,45.1916038 123.194,44.5408987 123.886,44.3093595 C124.234,44.5119563 125.295,45.2624628 125.713,45.2624628 C126.462,45.2624628 127.069,43.4081529 127.323,42.9021599 L128.453,40.2703972 L123.194,26.899007" id="Fill-50" fill="#FFFFFF"></path>
                    <path d="M144.25,30.4848709 C144.53,26.7522989 143.564,25.2103674 140.86,25.2103674 C138.511,25.2103674 138.738,26.3431132 138.738,28.2223734 L137.027,28.3271648 C136.753,28.3271648 136.235,28.3561072 136.235,27.9848461 C136.235,27.0596872 140.005,23.5007696 142.787,23.5007696 C145.935,23.5007696 146.885,25.900993 146.885,28.625571 L146.885,33.4908888 C146.885,36.4949106 146.61,38.3811569 149.884,37.8651837 L149.884,38.6316584 C148.569,39.0188878 147.444,39.1296673 146.415,39.1296673 C144.978,39.1296673 144.424,38.3122939 144.25,36.9719613 C143.157,38.2075025 141.657,39.3033217 139.899,39.3033217 C137.714,39.3033217 136.483,37.4480139 136.483,35.4040814 C136.483,34.8871102 136.558,34.4050695 136.684,33.9000745 L144.25,30.4848709 L144.25,30.4848709 Z M139.63,33.5278153 C139.487,33.9729295 139.388,34.4050695 139.388,34.8871102 C139.388,36.3312363 140.216,37.5937239 141.779,37.5937239 C142.719,37.5937239 143.638,36.9719613 144.25,36.3312363 L144.25,31.1645184 L139.63,33.5278153 L139.63,33.5278153 Z" id="Fill-51" fill="#FFFFFF"></path>
                    <path d="M148.295,38.9580089 L148.295,38.1226713 C150.676,37.8412314 150.966,37.2983118 150.966,34.9879096 L150.966,20.4598213 C150.966,19.0216832 151.008,18.578565 149.292,17.3460179 L149.292,17.0036991 L153.231,15.5016882 L153.611,15.6414101 L153.611,34.9879096 C153.611,37.7903327 153.743,38.0647865 156.283,38.4440318 L156.283,38.9580089 L148.295,38.9580089" id="Fill-52" fill="#FFFFFF"></path>
                    <path d="M188.659,30.4848709 C188.939,26.7522989 187.973,25.2103674 185.27,25.2103674 C182.909,25.2103674 183.147,26.3431132 183.147,28.2223734 L181.426,28.3271648 C181.15,28.3271648 180.645,28.3561072 180.645,27.9848461 C180.645,27.0596872 184.414,23.5007696 187.191,23.5007696 C190.343,23.5007696 191.304,25.900993 191.304,28.625571 L191.304,33.4908888 C191.304,36.4949106 190.955,38.5817577 194.276,37.8651837 L194.276,38.6316584 C192.973,39.0188878 191.848,39.1296673 190.808,39.1296673 C189.377,39.1296673 188.838,38.3122939 188.659,36.9719613 C187.566,38.2075025 186.061,39.3033217 184.314,39.3033217 C182.117,39.3033217 180.876,37.4480139 180.876,35.4040814 C180.876,34.8871102 180.955,34.4050695 181.093,33.9000745 L188.659,30.4848709 L188.659,30.4848709 Z M184.033,33.5278153 C183.901,33.9729295 183.802,34.4050695 183.802,34.8871102 C183.802,36.3312363 184.614,37.5937239 186.187,37.5937239 C187.111,37.5937239 188.041,36.9719613 188.659,36.3312363 L188.659,31.1645184 L184.033,33.5278153 L184.033,33.5278153 Z" id="Fill-53" fill="#FFFFFF"></path>
                    <path d="M178.659,22.7342949 L178.147,22.7342949 C177.508,18.8769712 175.227,16.1044886 171.125,16.1044886 C164.852,16.1044886 161.315,21.2402681 161.315,27.120566 C161.315,33.8551639 166.499,38.5368471 171.463,38.5368471 C175.95,38.5368471 177.725,35.2513853 179.282,31.567716 L179.757,31.7733069 C179.346,33.8551639 178.695,35.9020904 177.872,37.886142 C175.67,38.9500248 173.315,39.3532224 170.887,39.3532224 C163.712,39.3532224 157.365,35.2513853 157.365,27.5207696 C157.365,21.4398709 162.106,15.2831231 171.161,15.2831231 C173.765,15.2831231 176.399,15.7990963 178.659,17.1324429 L178.659,22.7342949" id="Fill-54" fill="#FFFFFF"></path>
                    <path d="M270.074,30.4639126 C270.359,26.7463108 269.383,25.1993893 266.68,25.1993893 C264.324,25.1993893 264.557,26.330139 264.557,28.2054071 L262.852,28.3111966 C262.571,28.3111966 262.06,28.3531132 262.06,27.9688779 C262.06,27.0497071 265.824,23.4897915 268.602,23.4897915 C271.748,23.4897915 272.709,25.8850248 272.709,28.6195829 L272.709,33.4749206 C272.709,36.4889225 272.233,38.3991212 275.364,38.2284608 L275.364,38.8292651 C274.06,39.2085104 273.263,39.1136991 272.233,39.1136991 C270.798,39.1136991 270.243,38.2963257 270.074,36.9659732 C268.992,38.1995184 267.471,39.2873535 265.724,39.2873535 C263.537,39.2873535 262.297,37.4430238 262.297,35.3801291 C262.297,34.8661519 262.36,34.4000794 262.503,33.8831082 L270.074,30.4639126 L270.074,30.4639126 Z M265.454,33.509851 C265.311,33.9519712 265.206,34.4000794 265.206,34.8661519 C265.206,36.3162661 266.024,37.5747617 267.613,37.5747617 C268.532,37.5747617 269.462,36.9659732 270.074,36.3162661 L270.074,31.1465541 L265.454,33.509851 L265.454,33.509851 Z" id="Fill-55" fill="#FFFFFF"></path>
                    <path d="M198.004,34.9829196 C198.004,37.7853426 198.142,38.0597964 201.431,38.4310576 L201.431,38.9500248 L192.867,38.9500248 L192.867,38.1306554 C195.169,37.9360427 195.327,37.3741609 195.364,34.7084657 L195.364,28.4569067 C195.364,27.0097865 195.396,26.5666683 193.695,25.3401092 L193.695,24.9918024 L197.762,23.4897915 L198.142,23.6295134 L198.004,27.6664796 L198.072,27.6664796 C198.828,25.8510924 200.75,23.4897915 202.898,23.4897915 C203.865,23.4897915 204.656,24.1065641 204.656,25.0656554 C204.656,25.9848262 203.653,26.8411221 202.872,27.2183714 C202.281,26.7722592 201.431,26.0247468 200.676,26.0876216 C197.762,26.3570854 198.004,31.0198064 198.004,31.5287934 L198.004,34.9829196" id="Fill-56" fill="#FFFFFF"></path>
                    <path d="M205.718,38.9500248 L205.718,38.4310576 C208.242,38.0597964 208.353,37.6516087 208.385,34.9829196 L208.385,28.4509186 C208.385,27.0147766 208.421,26.5666683 206.299,25.3401092 L206.299,24.9918024 L210.649,23.4897915 L211.029,23.6295134 L211.029,34.9829196 C211.029,37.7853426 211.161,38.0597964 213.706,38.4310576 L213.706,38.9500248 L205.718,38.9500248 L205.718,38.9500248 Z M211.304,17.7941261 C211.304,18.7502234 210.507,19.5436445 209.551,19.5436445 C208.596,19.5436445 207.809,18.7502234 207.809,17.7941261 C207.809,16.8400248 208.596,16.0446077 209.551,16.0446077 C210.507,16.0446077 211.304,16.8400248 211.304,17.7941261 L211.304,17.7941261 Z" id="Fill-57" fill="#FFFFFF"></path>
                    <path d="M214.941,20.4498411 C214.941,19.005715 214.969,18.5625968 213.273,17.3330437 L213.273,16.992721 L217.207,15.48572 L217.587,15.6224479 L217.587,25.4029841 C219.266,24.4888034 221.362,23.4897915 223.305,23.4897915 C227.112,23.4897915 229.746,27.0147766 229.746,30.5986445 C229.746,36.6575869 224.16,39.2983317 220.391,39.2983317 C218.348,39.2983317 216.801,38.7394439 214.941,37.9200745 L214.941,20.4498411 L214.941,20.4498411 Z M217.587,32.0048461 C217.587,35.1885104 217.931,38.2284608 221.9,38.2284608 C223.785,38.2284608 226.827,36.7214598 226.827,31.9759037 C226.827,27.8690765 224.087,25.2023833 220.781,25.2023833 C219.603,25.2023833 218.648,25.5077756 217.587,25.9558838 L217.587,32.0048461 L217.587,32.0048461 Z" id="Fill-58" fill="#FFFFFF"></path>
                    <path d="M231.336,20.4498411 C231.336,19.005715 231.357,18.5625968 229.657,17.3330437 L229.657,16.992721 L233.596,15.48572 L233.971,15.6224479 L233.971,25.4029841 C235.649,24.4888034 237.74,23.4897915 239.689,23.4897915 C243.501,23.4897915 246.135,27.0147766 246.135,30.5986445 C246.135,36.6575869 240.549,39.2983317 236.779,39.2983317 C234.731,39.2983317 233.184,38.7394439 231.336,37.9200745 L231.336,20.4498411 L231.336,20.4498411 Z M233.971,32.0048461 C233.971,35.1885104 234.319,38.2284608 238.284,38.2284608 C240.169,38.2284608 243.227,36.7214598 243.227,31.9759037 C243.227,27.8690765 240.48,25.2023833 237.159,25.2023833 C235.987,25.2023833 235.031,25.5077756 233.971,25.9558838 L233.971,32.0048461 L233.971,32.0048461 Z" id="Fill-59" fill="#FFFFFF"></path>
                    <path d="M250.612,30.2293793 C250.344,33.7892949 252.777,37.1056951 256.643,37.1056951 C258.437,37.1056951 259.657,36.3162661 260.686,34.9380089 L261.198,35.3252383 C259.899,37.5488133 257.571,39.2983317 254.905,39.2983317 C250.649,39.2983317 247.709,35.801291 247.709,31.7074379 C247.709,27.2842403 250.787,23.4927855 255.423,23.4927855 C258.506,23.4927855 260.549,25.4399106 260.686,28.5217776 L250.761,28.5217776 L250.612,30.2293793 L250.612,30.2293793 Z M257.434,27.5976167 C257.128,26.0247468 256.167,24.2383019 254.346,24.2383019 C252.397,24.2383019 251.235,26.1584806 250.86,27.8690765 L257.434,27.5976167 L257.434,27.5976167 Z" id="Fill-60" fill="#FFFFFF"></path>
                    <path d="M276.864,28.4569067 C276.864,27.0097865 276.896,26.5666683 275.18,25.3401092 L275.18,24.9918024 L279.267,23.4897915 L279.647,23.6245233 L279.361,26.1305362 C281.331,24.6884062 283.2,23.4897915 285.391,23.4897915 C289.515,23.4897915 289.726,26.8760526 289.726,28.8930387 L289.726,34.9829196 C289.726,37.7853426 289.848,38.0597964 292.392,38.4310576 L292.392,38.9500248 L284.398,38.9500248 L284.398,38.4310576 C286.937,38.0597964 287.049,37.6516087 287.08,34.9829196 L287.08,31.0517428 C287.08,28.6535154 287.17,25.2712463 282.999,25.2712463 C281.595,25.2712463 280.634,25.7103724 279.493,26.7463108 L279.493,34.9829196 C279.493,37.7853426 279.647,38.0597964 282.176,38.4310576 L282.176,38.9500248 L274.197,38.9500248 L274.188,38.3232721 C276.643,38.1226713 276.827,37.6516087 276.864,34.9829196 L276.864,28.4569067" id="Fill-61" fill="#FFFFFF"></path>
                    <path d="M312.878,8.16928004 C314.155,8.16928004 315.053,7.51358491 315.053,6.41976167 L315.053,6.40678749 C315.053,5.37583913 314.256,4.74709037 312.889,4.74709037 L310.291,4.74709037 L310.291,8.16928004 L312.878,8.16928004 L312.878,8.16928004 Z M309.33,3.86185204 L312.968,3.86185204 C314.008,3.86185204 314.842,4.16724429 315.37,4.71016385 C315.792,5.11835154 316.024,5.70817776 316.024,6.36986097 L316.024,6.39680735 C316.024,7.78704071 315.053,8.61439424 313.728,8.84693148 L316.325,12.3060477 L315.148,12.3060477 L312.698,9.02557597 L310.291,9.02557597 L310.291,12.3060477 L309.33,12.3060477 L309.33,3.86185204 L309.33,3.86185204 Z" id="Fill-62" fill="#FFFFFF"></path>
                    <path d="M306.647,8.17427011 C306.647,5.05747269 309.187,2.52551142 312.308,2.52551142 C315.434,2.52551142 317.962,5.05747269 317.962,8.17427011 C317.962,11.2860775 315.434,13.8210328 312.308,13.8210328 C309.187,13.8210328 306.647,11.2860775 306.647,8.17427011 M305.893,8.17427011 C305.893,11.7022493 308.775,14.5875074 312.308,14.5875074 C315.845,14.5875074 318.723,11.7022493 318.723,8.17427011 C318.723,4.64130089 315.845,1.7700149 312.308,1.7700149 C308.775,1.7700149 305.893,4.64130089 305.893,8.17427011" id="Fill-63" fill="#FFFFFF"></path>
                    <path d="M7.502,91.8178153 L17.544,91.8178153 L17.544,90.1082175 L7.502,90.1082175 L7.502,91.8178153 Z M7.502,88.9614995 L17.544,88.9614995 L17.544,87.2908242 L7.502,87.2908242 L7.502,88.9614995 Z M19.466,93.1242155 L19.498,93.1242155 C19.123,93.0114399 16.778,92.9505611 12.476,92.9505611 C8.173,92.9505611 5.865,93.0114399 5.543,93.1242155 C5.67,92.58429 5.733,91.3746971 5.733,89.5074131 C5.733,87.6231629 5.67,86.4584806 5.543,85.9764399 C6.002,86.0612711 7.18,86.1061817 9.091,86.1061817 C9.413,85.1520804 9.672,84.329717 9.878,83.6211271 L12.053,84.2668421 C11.609,84.9414995 11.271,85.5652582 11.039,86.124146 C11.309,86.1431082 11.773,86.1431082 12.449,86.1431082 C16.557,86.1431082 18.891,86.0872195 19.466,85.9764399 C19.36,86.3297368 19.303,87.5024032 19.303,89.5074131 C19.303,90.6641112 19.334,91.5942602 19.393,92.2709136 L19.466,93.1032572 L19.466,93.1242155 L19.466,93.1242155 Z M21.6,100.459618 L21.6,102.161231 C20.892,102.035482 17.792,101.958635 12.285,101.958635 C6.594,101.958635 3.484,102.018515 2.967,102.143267 L2.967,100.459618 C3.447,100.570397 6.282,100.630278 11.44,100.630278 L11.44,98.7360477 C7.739,98.7360477 5.644,98.7889424 5.163,98.8977259 L5.163,97.1971102 C5.38,97.2819414 7.471,97.3448163 11.44,97.3687686 L11.409,95.9645631 C6.795,95.9645631 4.266,96.0224479 3.856,96.1462016 L3.856,94.4575621 C4.303,94.5683416 7.059,94.6262264 12.122,94.6262264 C17.169,94.6262264 19.978,94.5683416 20.523,94.4575621 L20.523,96.1462016 C20.253,96.0434062 17.814,95.9775372 13.209,95.9645631 L13.209,97.3687686 C17.243,97.3448163 19.393,97.2819414 19.656,97.1971102 L19.656,98.9107001 C19.186,98.7919364 17.043,98.7360477 13.209,98.7360477 L13.209,100.630278 C18.331,100.630278 21.129,100.570397 21.6,100.459618 L21.6,100.459618 Z" id="Fill-64" fill="#FFFFFF"></path>
                    <path d="M56.06,89.2199851 L54.089,89.2199851 L54.089,87.2808441 L40.443,87.2808441 L40.443,89.2199851 L38.458,89.2199851 C38.574,88.7219762 38.643,88.1291559 38.643,87.4495084 C38.643,86.7778451 38.574,86.2059831 38.458,85.7239424 C38.875,85.8287339 41.547,85.9005909 46.494,85.913565 C46.431,85.2419017 46.219,84.6061668 45.871,84.0402929 L48.051,83.6211271 C48.31,84.546286 48.5,85.2997865 48.627,85.9005909 C53.268,85.8736445 55.749,85.8187537 56.06,85.7419067 C55.955,86.1161619 55.902,86.6750497 55.902,87.4225621 C55.902,88.2129891 55.955,88.8137934 56.06,89.2199851 M56.288,99.6162959 L56.314,99.6162959 C55.596,100.053426 55.031,100.615308 54.593,101.331882 C53.531,100.544449 52.724,99.7370556 52.133,98.8977259 C51.547,98.0623883 50.944,96.7549901 50.332,94.9665492 C49.841,95.2529791 49.323,95.5244389 48.764,95.814861 C48.959,96.5863257 49.065,97.3448163 49.065,98.0853426 C49.065,98.8807597 48.959,99.695139 48.764,100.538461 C48.568,101.381783 48.067,101.982587 47.259,102.356842 C46.446,102.720119 45.633,102.967627 44.799,103.110343 C44.651,102.251053 44.281,101.529489 43.68,100.922696 C44.289,101.023496 44.83,101.089364 45.279,101.089364 C46.087,101.089364 46.626,100.875789 46.879,100.454628 C47.153,100.030472 47.285,99.3138977 47.285,98.3148858 C47.285,98.0114896 47.249,97.6292502 47.186,97.1502036 C45.148,98.9576068 42.401,100.567403 38.943,101.969613 C38.647,101.447651 38.215,100.960621 37.655,100.506524 C41.288,99.0364499 44.329,97.3448163 46.789,95.456574 C46.642,95.1082671 46.446,94.737006 46.23,94.3627507 C44.588,95.7639623 42.17,97.1611817 38.943,98.5574032 C38.653,98.0114896 38.283,97.4955164 37.835,97.0284459 C40.749,95.9775372 43.299,94.737006 45.527,93.2958739 C45.327,93.0663307 45.068,92.8078451 44.783,92.5443694 C43.41,93.3298064 41.462,94.1731281 38.943,95.0693446 C38.643,94.4974826 38.204,93.9805114 37.655,93.5144389 C40.744,92.6820953 43.347,91.6122244 45.49,90.2818719 C42.977,90.3058242 41.583,90.3686991 41.335,90.4555263 L41.335,88.7559086 C41.684,88.8726763 43.611,88.9195829 47.148,88.9195829 C50.659,88.9195829 52.613,88.8726763 53.02,88.7559086 L53.02,90.4555263 C52.534,90.3527309 50.887,90.2818719 48.078,90.2818719 C47.227,90.8976465 46.567,91.3567329 46.102,91.6750993 C47.227,92.8158292 47.988,93.806857 48.389,94.6421946 C50.205,93.44857 51.615,92.3757051 52.613,91.4126216 L54.35,92.7080437 L53.294,93.1222195 L51.694,94.1601539 C52.37,96.1831281 53.241,97.5983118 54.334,98.4096971 C55.422,99.2130983 56.071,99.6162959 56.288,99.6162959" id="Fill-65" fill="#FFFFFF"></path>
                    <path d="M85.591,98.0803525 L89.129,98.0803525 L89.129,88.3397368 L85.591,88.3397368 L85.591,98.0803525 Z M91.003,101.36282 L89.129,101.36282 L89.129,99.4136991 L85.591,99.4136991 L85.591,101.834881 L83.864,101.834881 C83.959,101.447651 84.012,98.9107001 84.012,94.2679394 C84.012,89.6521251 83.959,87.2069911 83.864,86.8986048 C84.318,87.0273486 85.49,87.0752532 87.37,87.0752532 C89.202,87.0752532 90.422,87.0273486 91.051,86.917567 C90.902,87.5024032 90.845,89.8946425 90.845,94.094285 C90.845,98.4386395 90.892,100.854831 91.003,101.36282 L91.003,101.36282 Z M82.365,88.1850447 L82.35,88.1660824 C82.085,95.675139 81.826,99.8588133 81.547,100.720099 C81.277,101.571405 80.115,102.161231 78.046,102.496564 C78.046,101.610328 77.75,100.870799 77.144,100.287959 C77.66,100.37279 78.12,100.411713 78.489,100.411713 C79.149,100.411713 79.556,100.292949 79.725,100.080372 C79.889,99.8588133 80.047,98.8977259 80.2,97.1761519 C80.353,95.4615641 80.501,93.0064499 80.67,89.8148014 L78.178,89.8148014 C78.046,92.8507597 77.75,95.1801241 77.275,96.818863 C76.811,98.4675819 75.691,100.570397 73.912,103.141281 C73.489,102.557443 73.004,102.048456 72.471,101.610328 C73.706,99.8847617 74.662,98.2649851 75.285,96.7340318 C75.913,95.2110626 76.282,92.8976663 76.404,89.8148014 L73.246,89.8148014 L73.268,88.1660824 C73.669,88.2638878 74.72,88.3187786 76.449,88.3397368 C76.494,87.1071897 76.504,85.7528848 76.504,84.2878004 L78.701,84.6800199 L78.32,85.5892105 L78.268,88.3397368 C80.501,88.3397368 81.879,88.2958242 82.365,88.1850447 L82.365,88.1850447 Z" id="Fill-66" fill="#FFFFFF"></path>
                    <path d="M125.538,88.5772642 C125.248,95.6851192 125.016,99.7270755 124.794,100.686167 C124.588,101.650248 123.326,102.241072 120.992,102.480596 C120.992,101.700149 120.718,100.954633 120.185,100.243049 C120.713,100.298937 121.161,100.33786 121.525,100.33786 C122.317,100.33786 122.777,100.214106 122.93,99.9855611 C123.078,99.7460377 123.221,98.8148908 123.373,97.1661718 C123.526,95.5244389 123.675,93.1691261 123.833,90.1032274 L121.383,90.1032274 C121.193,93.44857 120.845,95.88572 120.316,97.4196673 C119.788,98.9576068 118.706,100.76002 117.08,102.838883 C116.488,102.419717 115.887,102.053446 115.269,101.735079 C116.631,100.406723 117.719,98.9685849 118.5,97.4007051 C119.292,95.8597716 119.746,93.4246177 119.857,90.1032274 L117.08,90.1032274 L117.08,88.5772642 C117.381,88.6531132 118.32,88.7010179 119.904,88.7349503 C119.91,87.8976167 119.921,86.1870209 119.921,83.616137 L121.863,83.7658391 L121.51,84.764851 C121.494,86.2109732 121.451,87.5393297 121.383,88.7509186 C123.817,88.7349503 125.195,88.6770655 125.538,88.5772642 L125.538,88.5772642 Z M113.252,95.3268322 L115.343,95.3268322 L115.343,92.8816981 L113.252,92.8816981 L113.252,95.3268322 Z M111.066,89.209007 L114.212,89.209007 L114.212,87.5463158 L111.066,87.5463158 L111.066,89.209007 Z M109.768,95.3268322 L111.743,95.3268322 L111.743,92.8816981 L109.768,92.8816981 L109.768,95.3268322 Z M117.703,87.6970159 C117.492,87.634141 116.789,87.5892304 115.586,87.5473138 L115.586,90.4375621 L114.213,90.2818719 L113.252,90.2818719 L113.252,91.727994 C115.11,91.727994 116.309,91.6780933 116.853,91.5882721 C116.764,91.9705114 116.716,92.7978649 116.716,94.0334062 C116.716,95.310864 116.764,96.1681579 116.853,96.6262463 C116.325,96.531435 115.11,96.465566 113.221,96.465566 L113.221,97.8428252 C115.443,97.8168769 116.716,97.7639821 117.027,97.6741609 L117.027,99.3578103 C116.562,99.2550149 115.306,99.1951341 113.252,99.1951341 C113.273,101.35284 113.31,102.564429 113.363,102.838883 L111.615,102.872815 C111.674,102.564429 111.721,101.331882 111.742,99.1791658 C109.123,99.1951341 107.65,99.262999 107.339,99.3578103 L107.339,97.6741609 C107.793,97.7829444 109.266,97.8428252 111.753,97.8428252 L111.773,96.465566 C109.994,96.465566 108.807,96.5204568 108.21,96.6102781 C108.331,96.1172592 108.405,95.2529791 108.405,94.0334062 C108.405,92.7529543 108.337,91.9236048 108.226,91.5543396 C108.658,91.6750993 109.815,91.727994 111.742,91.727994 L111.742,90.2818719 L111.056,90.2818719 L109.805,90.4375621 L109.805,87.5473138 C108.605,87.5682721 107.819,87.6131827 107.455,87.6970159 L107.455,85.9973982 C107.75,86.0612711 108.526,86.1001936 109.768,86.1001936 C109.757,84.690998 109.709,83.8716286 109.646,83.6350993 L111.483,83.7897915 C111.203,83.9664399 111.066,84.3506753 111.066,84.9385055 L111.066,86.1431082 C112.233,86.1720506 113.289,86.1610725 114.213,86.1211519 C114.197,84.7668471 114.171,83.9404916 114.123,83.6350993 L115.981,83.7897915 C115.739,83.9404916 115.602,84.327721 115.586,84.9385055 L115.58,86.1211519 C116.736,86.1001936 117.44,86.055283 117.703,85.9973982 L117.703,87.6970159 L117.703,87.6970159 Z" id="Fill-67" fill="#FFFFFF"></path>
                    <path d="M160.121,99.0045134 L160.132,99.0045134 C159.689,100.259017 159.256,101.152239 158.833,101.690169 C158.395,102.2271 158.083,102.496564 157.909,102.496564 L153.759,102.496564 C152.08,102.496564 151.251,101.690169 151.251,100.069394 L151.251,84.472433 L153.184,84.6860079 C153.215,84.7408987 153.184,84.8776266 153.089,85.1071698 L152.951,85.4315243 L152.93,91.727994 C154.599,90.7689027 156.119,89.7309682 157.513,88.6111966 L159.224,90.2978401 L158.072,90.5433515 C157.08,91.2409633 155.385,92.2210129 152.951,93.4615442 L152.951,99.9007299 C152.951,100.538461 153.357,100.864811 154.176,100.870799 L157.359,100.888764 C157.682,100.731077 157.988,99.6612066 158.32,97.685139 C158.653,98.0324479 159.033,98.3358441 159.44,98.6053078 C159.857,98.8737736 160.079,99.0045134 160.121,99.0045134 M149.477,98.976569 C147.312,100.274985 145.375,101.571405 143.627,102.862835 L142.317,101.152239 C142.898,100.646246 143.189,100.282969 143.189,100.035462 L143.189,85.0572691 L145.349,85.2758342 C145.349,85.4993893 145.2,85.768853 144.912,86.053287 L144.912,90.7589225 C147.402,90.7589225 148.864,90.6950497 149.324,90.57928 L149.298,92.3866832 C148.791,92.2918719 147.334,92.2439672 144.912,92.2439672 L144.936,99.8717875 C146.462,98.9526167 147.84,98.0803525 149.06,97.2609831 L149.477,98.976569" id="Fill-68" fill="#FFFFFF"></path>
                    <path d="M190.301,95.4855164 L188.728,96.4066832 C188.469,95.6851192 188.03,95.0374081 187.424,94.4575621 L188.98,93.7968769 C189.557,94.5813158 189.989,95.1421996 190.301,95.4855164 L190.301,95.4855164 Z M191.373,98.2699752 L191.347,98.2699752 C190.897,98.1621897 189.076,98.1072989 185.882,98.1072989 C182.603,98.1072989 180.818,98.1621897 180.527,98.2699752 L180.544,96.5863257 C181.003,96.681137 182.497,96.7290417 185.026,96.7290417 L185.026,93.3537587 C182.883,93.3856951 181.652,93.44857 181.346,93.5433813 L181.346,91.8627259 C181.652,91.9525472 182.883,92.0174181 185.026,92.0313903 L185.026,89.5074131 C182.729,89.5074131 181.378,89.5752781 180.955,89.6860576 L180.955,87.9555015 C181.299,88.0842453 182.935,88.1401341 185.913,88.1401341 C188.886,88.1401341 190.56,88.0842453 190.93,87.9555015 L190.93,89.6860576 C190.449,89.5752781 189.013,89.5074131 186.637,89.5074131 L186.61,92.0313903 C188.838,92.0074379 190.116,91.9525472 190.459,91.8727061 L190.459,93.5334012 C190.153,93.4296077 188.875,93.3697269 186.637,93.3537587 L186.61,96.7290417 C189.176,96.7290417 190.755,96.681137 191.373,96.5863257 L191.373,98.2699752 L191.373,98.2699752 Z M179.377,100.292949 L192.397,100.292949 L192.397,86.0083764 L179.377,86.0083764 L179.377,100.292949 Z M194.366,102.877805 L192.397,102.877805 L192.397,101.802944 L179.388,101.802944 L179.388,102.877805 L177.418,102.877805 C177.539,102.311931 177.608,99.2270705 177.608,93.6172344 C177.608,88.0163803 177.539,84.9484856 177.418,84.4355065 C177.962,84.5512761 180.787,84.6061668 185.893,84.6061668 C191.187,84.6061668 194.008,84.5562661 194.366,84.4514747 C194.245,84.9414995 194.176,88.0004121 194.176,93.6172344 C194.176,99.2270705 194.245,102.311931 194.366,102.877805 L194.366,102.877805 Z" id="Fill-69" fill="#FFFFFF"></path>
                    <path d="M229.73,99.2270705 C228.865,99.4925422 228.221,99.834861 227.793,100.282969 C227.302,99.1502234 226.294,97.2140765 224.763,94.4475819 L226.31,93.6282125 C227.587,95.601286 228.717,97.46857 229.73,99.2270705 L229.73,99.2270705 Z M227.793,87.0542949 C227.387,86.9385253 225.95,86.8756504 223.501,86.8756504 C221.061,86.8756504 219.657,86.9385253 219.314,87.0542949 L219.314,85.336713 C219.657,85.4474926 221.066,85.4993893 223.522,85.4993893 C225.966,85.4993893 227.387,85.4474926 227.793,85.336713 L227.793,87.0542949 L227.793,87.0542949 Z M228.849,91.5942602 C228.342,91.4754965 226.758,91.4305859 224.118,91.4305859 L224.129,100.922696 C223.923,102.018515 222.74,102.681197 220.592,102.898764 C220.322,102.161231 220.031,101.492562 219.731,100.922696 C220.111,100.954633 220.449,100.973595 220.755,100.973595 C221.81,100.973595 222.334,100.819901 222.334,100.538461 L222.334,91.4305859 C219.815,91.4305859 218.284,91.4754965 217.764,91.5942602 L217.782,89.8946425 C218.263,90.0104121 220.111,90.0583168 223.315,90.0583168 C226.516,90.0583168 228.358,90.0104121 228.849,89.8946425 L228.849,91.5942602 L228.849,91.5942602 Z M221.268,94.1781182 L220.618,95.0932969 C219.894,97.0024975 219.034,98.8128947 218.015,100.538461 C217.397,100.209116 216.75,99.9905511 216.061,99.8847617 C217.598,97.4795482 218.685,95.3647567 219.314,93.5383913 L221.268,94.1781182 L221.268,94.1781182 Z M218.273,84.6959881 L215.823,91.2010427 C216.457,92.1182175 216.906,92.8317974 217.159,93.3697269 C217.407,93.9206306 217.534,94.4336097 217.534,94.9296226 C217.534,95.9935055 217.334,96.7450099 216.917,97.2030983 C216.505,97.6591907 215.697,98.0564002 214.504,98.3777607 C214.234,97.6482125 213.886,96.9765492 213.458,96.3757448 C214.028,96.3757448 214.488,96.3517925 214.847,96.2859235 C215.211,96.2230487 215.449,96.1282373 215.581,96.033426 C215.713,95.9096723 215.771,95.7040814 215.771,95.4116634 C215.771,94.2230288 215.296,92.8976663 214.346,91.440566 L216.061,86.2399156 L213.289,86.2399156 L213.289,102.496564 L211.468,102.496564 C211.595,102.151251 211.647,99.1661917 211.647,93.5433813 C211.647,88.0133863 211.6,85.0682473 211.5,84.6959881 C211.98,84.8147517 213.094,84.8776266 214.815,84.8776266 C216.568,84.8776266 217.714,84.8147517 218.273,84.6959881 L218.273,84.6959881 Z" id="Fill-70" fill="#FFFFFF"></path>
                    <path d="M264.995,96.5543893 L265.006,96.5543893 C264.552,96.4306356 263.374,96.3677607 261.505,96.3677607 L261.505,101.158227 C261.299,102.251053 260.37,102.917726 258.76,103.131301 C258.58,102.334886 258.352,101.735079 258.078,101.331882 C258.352,101.36282 258.596,101.370804 258.812,101.370804 C259.641,101.370804 260.053,101.224096 260.053,100.922696 L260.053,96.3677607 C258.263,96.3677607 257.17,96.4306356 256.779,96.5543893 L256.806,94.8557696 C257.233,94.9475869 258.321,95.0054717 260.053,95.0054717 L260.053,93.3647368 L261.98,91.5543396 L258.506,91.5543396 L258.506,90.1211917 C258.971,90.2339672 259.868,90.291852 261.178,90.291852 C262.481,90.291852 263.416,90.2339672 263.955,90.1211917 L264.107,91.5703078 C263.648,91.8287934 262.772,92.4954667 261.505,93.5433813 L261.505,95.0054717 C263.3,95.0054717 264.451,94.9475869 264.995,94.8557696 L264.995,96.5543893 L264.995,96.5543893 Z M264.768,88.3746673 C264.346,88.2718719 262.523,88.2129891 259.298,88.1850447 C258.659,89.6860576 258.015,90.8976465 257.365,91.8387736 C256.953,91.3856753 256.526,91.0383664 256.061,90.7978451 C257.492,89.0413406 258.522,86.6491013 259.16,83.6560576 L261.103,84.0692354 L259.868,86.9275472 C262.867,86.9115789 264.498,86.8536941 264.768,86.7598808 L264.768,88.3746673 L264.768,88.3746673 Z M254.853,86.6381231 L253.252,87.0463108 C252.999,86.0922095 252.666,85.1680487 252.233,84.2748262 L253.712,83.8007696 C254.113,84.6121549 254.498,85.5652582 254.853,86.6381231 L254.853,86.6381231 Z M256.774,87.3127805 L256.774,89.0413406 C256.257,88.9096028 255.074,88.85072 253.242,88.85072 L253.041,88.85072 C253.025,89.5523237 252.994,90.4056256 252.935,91.4066336 L256.119,91.4066336 C255.961,97.1262512 255.818,100.316902 255.744,100.981579 C255.654,101.637274 254.836,102.143267 253.3,102.496564 C253.19,101.802944 252.894,101.152239 252.408,100.523491 C252.904,100.602334 253.306,100.657224 253.617,100.657224 C253.939,100.657224 254.135,100.602334 254.197,100.506524 C254.267,100.411713 254.335,99.8268769 254.414,98.7759682 C254.498,97.7190715 254.557,95.6960973 254.599,92.7190218 L252.894,92.7449702 C252.725,94.9455909 252.471,96.6152681 252.165,97.7719662 C251.853,98.9256703 251.141,100.491554 250.037,102.477602 C249.631,102.161231 249.118,101.873803 248.501,101.584379 C249.847,99.262999 250.676,97.3557944 250.992,95.8517875 C251.305,94.3527706 251.468,92.0174181 251.489,88.85072 C250.639,88.8986246 250.09,88.9405412 249.794,88.9884459 L249.794,87.2858342 C250.37,87.420566 251.521,87.4834409 253.242,87.4834409 C255.074,87.4834409 256.257,87.420566 256.774,87.3127805 L256.774,87.3127805 Z M250.048,86.7279444 L249.008,87.9505114 C248.184,87.1810427 247.233,86.4504965 246.162,85.7528848 L247.481,84.4275223 C248.484,85.1790268 249.346,85.9395134 250.048,86.7279444 L250.048,86.7279444 Z M249.805,91.6092304 L248.506,93.0343942 C247.793,92.2709136 246.869,91.5194091 245.75,90.7978451 L246.79,89.5074131 C247.957,90.2239871 248.955,90.9196028 249.805,91.6092304 L249.805,91.6092304 Z M249.388,95.3477905 L247.434,102.665228 L245.728,101.592363 C246.621,99.121281 247.323,96.7400199 247.852,94.4575621 L249.388,95.3477905 L249.388,95.3477905 Z" id="Fill-71" fill="#FFFFFF"></path>
                    <path d="M297.027,98.3198759 C296.922,100.127279 296.652,101.078386 296.22,101.189166 L293.512,101.189166 C292.941,101.189166 292.646,100.896748 292.646,100.298937 L292.624,97.1611817 C294.304,96.3627706 296.147,95.5903078 298.163,94.8447915 L296.61,93.1242155 C295.734,93.9256207 294.398,94.7769265 292.624,95.6851192 L292.624,91.8307895 L292.883,91.2279891 C292.883,91.1331778 292.255,91.0453525 290.972,90.9425571 L290.972,100.119295 C290.972,101.792964 291.885,102.636286 293.696,102.636286 L297.027,102.65924 C297.25,102.65924 297.551,102.435685 297.941,101.971609 C298.326,101.5235 298.681,100.736068 298.997,99.622284 L298.997,99.6482324 C297.999,99.1841559 297.345,98.7420357 297.027,98.3198759 M294.14,85.0043744 L294.868,84.4514747 L292.413,83.7867974 C291.954,86.5033913 290.158,89.0593049 287.027,91.4305859 C287.756,91.6990516 288.337,92.0413704 288.754,92.4715144 C290.761,90.8587239 292.312,88.8407398 293.4,86.411574 C294.662,88.924573 296.32,90.9535353 298.316,92.4715144 C298.602,92.1441658 299.188,91.6331827 300.074,90.9295829 C297.624,89.6201887 295.649,87.6441212 294.14,85.0043744 M286.13,96.8338332 L286.156,94.4336097 C286.97,94.4026713 287.836,94.4026713 288.754,94.4336097 L288.754,93.1172294 L286.156,93.1172294 L286.156,90.7689027 L286.404,90.1311718 C286.404,90.0553227 285.729,89.9575174 284.377,89.8497319 C284.445,90.0942453 284.488,91.1880685 284.535,93.1401837 L282.672,93.1401837 C283.264,91.5363754 283.918,89.8706902 284.651,88.1501142 L284.805,88.1501142 C287.328,88.1501142 288.87,88.2129891 289.425,88.3237686 L289.425,86.5882224 C288.907,86.7089821 287.524,86.772855 285.248,86.772855 C285.708,85.7528848 286.13,84.9205412 286.553,84.2538679 L284.451,83.3576514 L283.289,86.7379245 C281.722,86.7379245 280.724,86.700998 280.301,86.5882224 L280.301,88.2998163 C280.565,88.2299553 281.378,88.1850447 282.756,88.1501142 C281.526,91.4645184 280.713,93.1172294 280.301,93.1172294 L280.713,94.8447915 C281.69,94.6531728 282.962,94.5124528 284.535,94.452572 L284.535,97.0973088 C283.041,97.3428203 281.562,97.5454171 280.085,97.6741609 L280.713,99.6162959 C281.584,99.408709 282.862,99.1242751 284.562,98.7779643 C284.509,101.247051 284.451,102.60435 284.377,102.846867 L286.156,102.846867 L286.156,98.4546077 L289.425,97.8827458 L289.425,96.1172592 C287.915,96.4815343 286.827,96.7130735 286.13,96.8338332" id="Fill-72" fill="#FFFFFF"></path>
                    <path d="M10.408,114.686306 C10.05,113.80506 9.671,113.033595 9.274,112.371912 L10.05,111.9757 C10.487,112.725209 10.885,113.495675 11.243,114.289096 L10.527,114.686306 L16.492,114.686306 L16.492,115.545596 L5.218,115.545596 L5.218,118.71928 C5.218,120.923893 5.059,122.643471 4.741,123.877016 C4.462,125.111559 3.886,126.366063 3.011,127.645516 C2.931,127.601604 2.812,127.490824 2.653,127.315174 C2.454,127.182438 2.315,127.072656 2.236,126.984831 C3.071,125.882026 3.627,124.75926 3.906,123.612542 C4.184,122.510735 4.324,120.858024 4.324,118.653411 L4.324,114.686306 L10.408,114.686306 L10.408,114.686306 Z M19.617,115.082517 L31.547,115.082517 L31.547,116.074543 C28.763,119.293138 25.642,122.047656 22.182,124.340094 C22.182,124.384007 22.202,124.405963 22.242,124.405963 C23.116,125.463858 24.488,126.013764 26.357,126.058674 C28.346,126.19141 30.572,126.19141 33.038,126.058674 C32.998,126.234325 32.919,126.498798 32.8,126.852095 C32.76,126.939921 32.74,127.006787 32.74,127.0507 L28.803,127.0507 C27.849,127.0507 27.014,127.027746 26.298,126.984831 C24.07,126.939921 22.44,126.234325 21.407,124.869042 C21.247,124.693391 21.028,124.693391 20.751,124.869042 C20.67,124.956867 20.571,125.066648 20.452,125.199384 C19.775,125.86007 19.279,126.432929 18.961,126.917964 L18.484,126.058674 C19.04,125.441902 19.518,124.912954 19.915,124.471832 C20.393,123.987795 20.77,123.74428 21.049,123.74428 L21.227,123.74428 C21.307,123.789191 21.367,123.811147 21.407,123.811147 C25.065,121.298148 28.087,118.676365 30.474,115.942805 L19.617,115.942805 L19.617,115.082517 L19.617,115.082517 Z M26.059,114.95078 C25.741,114.246182 25.303,113.40785 24.747,112.437781 L25.522,112.040571 C25.602,112.173307 25.701,112.349955 25.821,112.570516 C26.337,113.451763 26.695,114.09149 26.895,114.487701 L26.059,114.95078 L26.059,114.95078 Z M35.375,114.487701 L41.042,114.487701 L41.042,115.346991 L37.642,115.346991 L37.642,116.470755 C37.602,117.132438 37.582,117.661385 37.582,118.058595 L40.385,118.058595 C40.385,120.43786 40.326,122.797165 40.206,125.133515 C40.167,126.543709 39.57,127.249305 38.417,127.249305 C38.178,127.292219 37.761,127.315174 37.165,127.315174 C37.124,126.961877 37.065,126.653491 36.985,126.389017 L37.582,126.389017 C37.86,126.432929 38.098,126.454886 38.298,126.454886 C39.053,126.498798 39.451,126.013764 39.491,125.00078 C39.57,122.532691 39.61,120.504727 39.61,118.917885 L37.522,118.917885 C37.522,122.973813 36.905,125.882026 35.673,127.645516 C35.474,127.423957 35.255,127.226351 35.017,127.049702 C36.21,125.552681 36.807,122.686385 36.807,118.454806 C36.807,118.102507 36.826,117.57356 36.866,116.867964 L36.866,115.346991 L35.375,115.346991 L35.375,114.487701 L35.375,114.487701 Z M38.357,114.421832 C38.119,113.672324 37.86,112.94577 37.582,112.240174 L38.298,111.908833 C38.615,112.614429 38.894,113.363937 39.133,114.157358 L38.357,114.421832 L38.357,114.421832 Z M43.129,114.619439 C42.453,115.942805 41.856,116.911877 41.34,117.529647 C41.3,117.441822 41.2,117.353997 41.042,117.264176 C40.922,117.132438 40.823,117.044613 40.743,117.0007 C41.856,115.634419 42.751,113.936797 43.428,111.908833 L44.203,112.173307 C44.163,112.306043 44.084,112.482691 43.964,112.702254 C43.805,113.188287 43.645,113.540586 43.487,113.760149 L49.273,113.760149 L49.273,114.619439 L43.129,114.619439 L43.129,114.619439 Z M46.291,121.429886 C47.284,120.769201 48.12,120.196341 48.796,119.711306 L49.273,120.43786 C48.915,120.703332 48.338,121.077587 47.543,121.562622 C47.105,121.827095 46.768,122.047656 46.529,122.224305 C47.007,123.767234 48.04,125.089603 49.631,126.19141 C49.591,126.279235 49.491,126.410973 49.333,126.587622 C49.214,126.763272 49.114,126.89501 49.035,126.984831 C46.568,125.133515 45.177,122.135482 44.859,117.991728 C44.223,118.124464 43.586,118.213287 42.95,118.2572 L42.95,126.124543 C43.388,125.947895 44.084,125.661465 45.038,125.265253 C45.277,125.133515 45.475,125.023734 45.635,124.934911 L45.635,125.331122 C45.674,125.552681 45.694,125.728332 45.694,125.86007 C44.66,126.168456 43.746,126.564667 42.95,127.049702 C42.831,127.093615 42.632,127.204394 42.354,127.381043 L42.294,127.446912 L41.817,126.719359 C42.095,126.454886 42.214,126.101589 42.175,125.661465 L42.175,117.529647 C44.322,117.309086 46.43,116.933833 48.498,116.404886 L48.796,117.264176 C47.842,117.441822 46.768,117.639429 45.575,117.85999 C45.733,119.226271 45.972,120.416902 46.291,121.429886 L46.291,121.429886 Z M51.621,120.371991 L58.719,120.371991 L58.719,119.446832 L51.621,119.446832 L51.621,120.371991 Z M61.292,121.099543 L74.295,121.099543 L74.295,121.892964 L68.211,121.892964 L68.211,123.811147 L73.52,123.811147 L73.52,124.537701 L68.211,124.537701 L68.211,126.454886 L74.892,126.454886 L74.892,127.248307 L60.695,127.248307 L60.695,126.454886 L67.376,126.454886 L67.376,124.537701 L62.067,124.537701 L62.067,123.811147 L67.376,123.811147 L67.376,121.892964 L61.292,121.892964 L61.292,121.099543 L61.292,121.099543 Z M62.425,113.561544 L65.765,113.561544 C66.004,112.944772 66.183,112.393868 66.302,111.908833 L67.137,112.040571 C67.097,112.218217 67.018,112.460735 66.898,112.768123 C66.779,113.12142 66.68,113.385894 66.6,113.561544 L73.162,113.561544 L73.162,119.446832 L62.425,119.446832 L62.425,113.561544 L62.425,113.561544 Z M63.26,116.074543 L72.327,116.074543 L72.327,114.289096 L63.26,114.289096 L63.26,116.074543 Z M63.26,118.652413 L72.327,118.652413 L72.327,116.866966 L63.26,116.866966 L63.26,118.652413 Z M83.448,120.83507 C82.055,122.290174 80.087,123.502761 77.542,124.471832 C77.343,124.119533 77.185,123.833103 77.065,123.612542 C79.53,122.863034 81.519,121.717314 83.03,120.173386 C82.871,119.821087 82.672,119.512701 82.434,119.248227 C80.883,120.306122 79.192,121.122498 77.363,121.694359 C77.323,121.606534 77.224,121.45284 77.065,121.232279 C76.985,121.056629 76.926,120.923893 76.886,120.83507 C79.431,120.130472 81.539,119.049623 83.21,117.594518 L78.795,117.594518 L78.795,116.802095 L89.174,116.802095 L89.174,117.594518 L84.343,117.594518 C83.944,117.991728 83.507,118.366981 83.03,118.71928 C83.547,119.379965 84.024,120.173386 84.462,121.099543 C86.251,120.218297 87.782,119.379965 89.055,118.587542 L89.532,119.314096 C88.657,119.843044 87.703,120.371991 86.669,120.900938 C87.385,123.281202 88.836,124.890998 91.023,125.727334 C90.864,125.947895 90.685,126.190412 90.486,126.454886 C88.259,125.485814 86.768,123.767234 86.013,121.298148 C85.615,121.474796 85.197,121.672403 84.76,121.892964 C85.038,122.775209 85.178,123.656455 85.178,124.537701 C85.217,126.564667 84.501,127.579647 83.03,127.579647 L81.241,127.579647 C81.201,127.446912 81.161,127.248307 81.122,126.983833 C81.042,126.852095 81.002,126.741316 81.002,126.653491 C81.28,126.653491 81.638,126.675447 82.076,126.719359 L82.851,126.719359 C83.925,126.807185 84.441,126.101589 84.402,124.60357 C84.402,124.031708 84.343,123.479806 84.223,122.950859 C82.553,124.890998 80.287,126.345104 77.423,127.315174 C77.304,127.049702 77.145,126.763272 76.946,126.454886 C79.809,125.661465 82.155,124.207358 83.985,122.091569 C83.944,122.003744 83.885,121.85005 83.806,121.628491 C83.686,121.276192 83.567,121.011718 83.448,120.83507 L83.448,120.83507 Z M83.686,113.098466 C83.527,112.702254 83.388,112.393868 83.269,112.173307 L84.044,111.842964 C84.203,112.107438 84.402,112.570516 84.641,113.231202 C84.76,113.495675 84.839,113.69428 84.879,113.826018 L84.223,114.090492 L90.665,114.090492 L90.665,116.536624 L89.831,116.536624 L89.831,114.883913 L78.08,114.883913 L78.08,116.536624 L77.304,116.536624 L77.304,114.090492 L84.104,114.090492 C84.024,113.870929 83.885,113.539588 83.686,113.098466 L83.686,113.098466 Z M95.629,115.016648 L95.629,112.040571 L96.464,112.040571 L96.464,115.016648 L99.864,115.016648 C99.864,118.410894 99.784,121.73927 99.625,125.00078 C99.585,126.542711 98.929,127.336132 97.657,127.381043 L96.165,127.381043 C96.165,127.071658 96.125,126.741316 96.046,126.389017 L97.478,126.389017 C98.392,126.476842 98.85,125.991807 98.85,124.933913 L98.85,124.074623 C98.969,120.329076 99.029,117.594518 99.029,115.875938 L96.404,115.875938 L96.404,116.802095 C96.324,121.827095 95.45,125.463858 93.78,127.711385 C93.541,127.490824 93.282,127.315174 93.004,127.182438 C94.674,124.933913 95.529,121.45284 95.569,116.735228 L95.569,115.875938 L93.481,115.875938 L93.481,115.016648 L95.629,115.016648 L95.629,115.016648 Z M101.713,114.223227 L107.022,114.223227 L107.022,127.381043 L106.187,127.381043 L106.187,125.794201 L102.548,125.794201 L102.548,127.381043 L101.713,127.381043 L101.713,114.223227 L101.713,114.223227 Z M102.548,124.933913 L106.187,124.933913 L106.187,115.081519 L102.548,115.081519 L102.548,124.933913 Z M109.73,118.454806 L112.593,118.454806 L112.593,116.933833 L110.744,116.933833 L110.744,114.55357 L109.014,114.55357 L109.014,113.826018 L110.744,113.826018 L110.744,112.040571 L111.52,112.040571 L111.52,113.826018 L114.442,113.826018 L114.442,112.040571 L115.218,112.040571 L115.218,113.826018 L117.067,113.826018 L117.067,114.55357 L115.218,114.55357 L115.218,116.933833 L113.369,116.933833 L113.369,118.454806 L116.232,118.454806 L116.232,122.157438 L113.369,122.157438 L113.369,123.942885 L116.769,123.942885 L116.769,124.669439 L113.369,124.669439 L113.369,127.777254 L112.593,127.777254 L112.593,124.669439 L109.014,124.669439 L109.014,123.942885 L112.593,123.942885 L112.593,122.157438 L109.73,122.157438 L109.73,118.454806 L109.73,118.454806 Z M110.505,121.429886 L112.593,121.429886 L112.593,119.182358 L110.505,119.182358 L110.505,121.429886 Z M111.52,116.206281 L114.443,116.206281 L114.443,114.55357 L111.52,114.55357 L111.52,116.206281 Z M113.369,121.429886 L115.457,121.429886 L115.457,119.182358 L113.369,119.182358 L113.369,121.429886 Z M118.558,115.743203 C118.598,114.95078 118.618,113.738193 118.618,112.10644 L119.453,112.10644 C119.413,113.473719 119.394,114.685308 119.394,115.743203 L122.614,115.743203 C122.614,118.652413 122.534,121.672403 122.376,124.802175 C122.376,126.520755 121.68,127.381043 120.288,127.381043 L118.916,127.381043 C118.876,127.204394 118.836,127.005789 118.797,126.785228 C118.757,126.653491 118.737,126.542711 118.737,126.454886 L119.453,126.454886 C119.771,126.498798 120.029,126.520755 120.228,126.520755 C121.103,126.564667 121.56,125.991807 121.601,124.802175 C121.64,123.701365 121.699,121.606534 121.779,118.520675 C121.818,117.594518 121.839,116.933833 121.839,116.536624 L119.333,116.536624 C119.333,116.846008 119.313,117.242219 119.274,117.727254 C119.274,118.301112 119.253,118.71928 119.214,118.982756 C119.134,122.863034 118.2,125.794201 116.411,127.777254 C116.211,127.600606 115.993,127.402999 115.755,127.182438 C117.504,125.28721 118.399,122.620516 118.439,119.182358 C118.478,118.917885 118.499,118.477761 118.499,117.85999 C118.538,117.28713 118.558,116.846008 118.558,116.536624 L116.649,116.536624 L116.649,115.743203 L118.558,115.743203 L118.558,115.743203 Z M125.853,112.437781 L125.853,117.396912 L130.089,117.396912 L130.089,118.322071 L125.853,118.322071 L125.853,125.86007 C127.006,125.243297 127.126,125.177428 126.211,125.661465 C127.126,125.177428 128.378,124.537701 129.97,123.74428 L129.97,124.802175 C128.219,125.552681 126.966,126.1465 126.211,126.587622 C125.853,126.762274 125.535,126.983833 125.257,127.248307 L124.601,126.389017 C124.878,126.03572 125.019,125.661465 125.019,125.264255 L125.019,112.437781 L125.853,112.437781 L125.853,112.437781 Z M131.401,111.974702 L132.236,111.974702 L132.236,119.18136 C134.224,117.727254 135.895,116.074543 137.247,114.223227 L137.962,114.818044 C136.212,116.977746 134.303,118.808103 132.236,120.306122 L132.236,125.132517 C132.236,126.013764 132.693,126.431931 133.608,126.389017 L135.696,126.389017 C136.57,126.431931 137.087,126.03572 137.247,125.199384 C137.247,125.066648 137.266,124.846087 137.306,124.537701 C137.346,124.362051 137.405,123.810149 137.485,122.88499 C137.604,122.928903 137.784,122.973813 138.022,123.016728 C138.142,123.105551 138.24,123.148466 138.32,123.148466 C138.28,124.074623 138.161,124.912954 137.962,125.661465 C137.724,126.719359 137.047,127.270263 135.935,127.314176 L133.37,127.314176 C132.017,127.358088 131.361,126.696405 131.401,125.331122 L131.401,111.974702 L131.401,111.974702 Z M142.084,117.330045 L146.26,117.330045 L146.677,115.214255 L140.294,115.214255 L140.294,114.420834 L148.825,114.420834 C149.142,113.936797 149.52,113.320025 149.958,112.569518 C150.116,112.305045 150.235,112.10644 150.316,111.974702 L151.091,112.437781 C150.932,112.658342 150.693,113.010641 150.375,113.495675 C150.097,113.892885 149.878,114.200273 149.719,114.420834 L154.491,114.420834 L154.491,115.214255 L147.572,115.214255 L147.095,117.330045 L152.761,117.330045 L152.761,127.844121 L151.986,127.844121 L151.986,126.785228 L142.919,126.785228 L142.919,127.844121 L142.084,127.844121 L142.084,117.330045 L142.084,117.330045 Z M142.919,120.306122 L151.986,120.306122 L151.986,118.124464 L142.919,118.124464 L142.919,120.306122 Z M142.919,123.215333 L151.986,123.215333 L151.986,121.032676 L142.919,121.032676 L142.919,123.215333 Z M142.919,125.991807 L151.986,125.991807 L151.986,123.941887 L142.919,123.941887 L142.919,125.991807 Z M145.186,114.354965 C144.668,113.605457 144.191,112.944772 143.754,112.370914 L144.41,111.908833 C144.649,112.217219 144.967,112.636385 145.365,113.165333 C145.603,113.473719 145.762,113.672324 145.842,113.760149 L145.186,114.354965 L145.186,114.354965 Z M164.356,113.826018 C164.237,113.253158 164.098,112.680298 163.94,112.10644 L164.774,111.908833 C164.894,112.481693 165.013,113.12142 165.132,113.826018 L170.799,113.826018 L170.799,114.619439 L158.869,114.619439 L158.869,119.379965 C158.869,121.540665 158.749,123.17142 158.511,124.273227 C158.311,125.375035 157.854,126.542711 157.139,127.777254 C156.94,127.600606 156.722,127.402001 156.482,127.182438 C157.158,126.03572 157.576,124.978823 157.735,124.008754 C157.934,123.082597 158.034,121.495755 158.034,119.248227 L158.034,113.826018 L164.356,113.826018 L164.356,113.826018 Z M167.518,115.214255 L168.293,115.214255 L168.293,116.669359 L170.62,116.669359 L170.62,117.462781 L168.293,117.462781 L168.293,120.173386 L165.31,120.173386 L165.31,122.024702 L169.785,122.024702 L169.785,124.735308 C169.864,125.882026 169.347,126.476842 168.233,126.520755 L166.862,126.520755 L166.683,125.793203 L168.055,125.793203 C168.73,125.838113 169.049,125.46286 169.009,124.669439 L169.009,122.818123 L165.31,122.818123 L165.31,127.777254 L164.535,127.777254 L164.535,122.818123 L160.897,122.818123 L160.897,126.785228 L160.121,126.785228 L160.121,122.024702 L164.535,122.024702 L164.535,120.173386 L161.553,120.173386 L161.553,117.462781 L159.524,117.462781 L159.524,116.669359 L161.553,116.669359 L161.553,115.214255 L162.328,115.214255 L162.328,116.669359 L167.518,116.669359 L167.518,115.214255 L167.518,115.214255 Z M162.328,119.445834 L167.518,119.445834 L167.518,117.461783 L162.328,117.461783 L162.328,119.445834 Z M187.158,117.132438 C187.039,117.352999 186.899,117.617473 186.74,117.924861 C183.917,116.779141 181.69,115.148386 180.06,113.032597 C178.31,115.104474 176.064,116.824052 173.319,118.190333 C173.2,117.924861 173.022,117.660387 172.782,117.396912 C176.083,115.809071 178.469,113.957756 179.94,111.841966 L180.835,112.040571 C180.795,112.084484 180.755,112.151351 180.716,112.239176 C180.636,112.327999 180.576,112.393868 180.537,112.436783 C182.326,114.597483 184.533,116.162368 187.158,117.132438 L187.158,117.132438 Z M175.288,117.396912 L184.474,117.396912 L184.474,118.256202 L180.418,118.256202 L180.418,120.966807 L185.786,120.966807 L185.786,121.760228 L180.418,121.760228 L180.418,126.256281 L186.74,126.256281 L186.74,127.116569 L173.26,127.116569 L173.26,126.256281 L179.583,126.256281 L179.583,121.760228 L174.214,121.760228 L174.214,120.966807 L179.583,120.966807 L179.583,118.256202 L175.288,118.256202 L175.288,117.396912 L175.288,117.396912 Z M176.958,125.528729 C176.481,124.868044 175.825,124.074623 174.989,123.148466 L175.646,122.620516 C176.083,123.105551 176.699,123.810149 177.495,124.735308 C177.415,124.692393 177.455,124.758262 177.614,124.933913 L176.958,125.528729 L176.958,125.528729 Z M184.951,123.148466 C184.315,123.941887 183.599,124.735308 182.804,125.528729 L182.207,124.933913 C182.923,124.229315 183.618,123.45785 184.295,122.620516 L184.951,123.148466 L184.951,123.148466 Z M192.846,112.239176 L193.621,112.239176 L193.621,117.594518 L194.636,117.594518 L194.636,118.387939 L190.938,118.387939 L190.938,120.768203 L193.741,120.768203 L193.741,127.578649 L192.966,127.578649 L192.966,121.495755 L190.938,121.495755 C190.938,123.964841 190.579,126.03572 189.863,127.711385 C189.625,127.534737 189.387,127.381043 189.147,127.248307 C189.585,126.278237 189.863,125.330124 189.982,124.404965 C190.102,123.523719 190.162,122.157438 190.162,120.306122 L190.162,112.702254 L190.938,112.702254 L190.938,117.594518 L192.846,117.594518 L192.846,112.239176 L192.846,112.239176 Z M199.526,121.958833 L200.303,121.958833 L200.303,123.810149 L203.702,123.810149 L203.702,124.60357 L200.303,124.60357 L200.303,127.777254 L199.526,127.777254 L199.526,124.60357 L194.517,124.60357 L194.517,123.810149 L199.526,123.810149 L199.526,121.958833 L199.526,121.958833 Z M202.808,113.693282 L202.808,121.165412 L198.751,121.165412 C198.234,122.135482 197.38,123.016728 196.186,123.810149 C196.027,123.589588 195.848,123.370025 195.649,123.148466 C196.684,122.531693 197.44,121.871008 197.916,121.165412 L195.352,121.165412 L195.352,113.693282 L198.035,113.693282 C198.115,113.385894 198.234,112.922815 198.394,112.305045 C198.433,112.172309 198.453,112.063525 198.453,111.974702 L199.228,112.10644 C199.189,112.283088 199.129,112.547562 199.05,112.899861 C198.931,113.253158 198.85,113.51863 198.81,113.693282 L202.808,113.693282 L202.808,113.693282 Z M196.127,117.065571 L198.751,117.065571 L198.751,114.486703 L196.127,114.486703 L196.127,117.065571 Z M198.274,120.371991 C198.552,119.710308 198.711,118.851018 198.751,117.793123 L196.127,117.793123 L196.127,120.371991 L198.274,120.371991 L198.274,120.371991 Z M199.467,117.793123 C199.467,118.763193 199.348,119.622483 199.109,120.371991 L202.092,120.371991 L202.092,117.793123 L199.467,117.793123 L199.467,117.793123 Z M199.467,117.065571 L202.092,117.065571 L202.092,114.486703 L199.467,114.486703 L199.467,117.065571 Z M207.888,117.660387 C207.331,118.807105 206.715,119.843044 206.039,120.768203 C205.999,120.680377 205.94,120.526683 205.86,120.305124 C205.779,120.085561 205.72,119.931867 205.681,119.843044 C207.191,117.683342 208.404,115.104474 209.319,112.10644 L210.095,112.370914 C209.697,113.605457 209.239,114.796087 208.723,115.941807 L208.723,127.843123 L207.888,127.843123 L207.888,117.660387 L207.888,117.660387 Z M209.976,117.727254 L213.495,117.330045 C213.455,115.832026 213.396,114.068535 213.316,112.040571 L214.151,112.040571 C214.151,112.436783 214.171,113.010641 214.211,113.760149 C214.211,115.345993 214.25,116.492711 214.33,117.197309 L219.878,116.536624 L219.997,117.395914 L214.39,118.057597 C214.588,120.878982 215.065,123.082597 215.821,124.669439 C216.418,126.03572 217.134,126.719359 217.969,126.719359 C218.485,126.762274 218.863,126.409975 219.103,125.661465 C219.142,125.528729 219.182,125.353078 219.222,125.132517 C219.341,124.42792 219.42,123.898972 219.46,123.545675 C219.499,123.589588 219.579,123.634499 219.698,123.677413 C219.818,123.722324 219.997,123.788193 220.235,123.876018 C220.155,124.71435 220.036,125.375035 219.878,125.86007 C219.559,127.049702 218.942,127.644518 218.028,127.644518 C216.836,127.644518 215.841,126.807185 215.046,125.132517 C214.33,123.545675 213.832,121.231281 213.555,118.190333 L210.095,118.586544 L209.976,117.727254 L209.976,117.727254 Z M218.327,115.87494 C217.77,115.303078 216.935,114.486703 215.821,113.428808 L216.358,112.833992 C217.471,113.848972 218.327,114.641395 218.923,115.214255 L218.327,115.87494 L218.327,115.87494 Z M222.454,119.049623 L224.362,119.049623 L224.362,114.288098 L222.335,114.288098 L222.335,113.495675 L227.106,113.495675 L227.106,114.288098 L225.138,114.288098 L225.138,119.049623 L227.047,119.049623 L227.047,119.777175 L225.138,119.777175 L225.138,124.735308 C225.853,124.60357 226.51,124.42792 227.106,124.20636 C227.106,124.295184 227.126,124.449876 227.166,124.669439 L227.166,125.132517 C226.888,125.220343 226.45,125.330124 225.853,125.46286 C224.422,125.771246 223.269,126.03572 222.395,126.256281 L222.215,125.46286 C222.533,125.375035 223.07,125.243297 223.826,125.06565 C224.065,125.022736 224.243,124.977825 224.362,124.933913 L224.362,119.777175 L222.454,119.777175 L222.454,119.049623 L222.454,119.049623 Z M227.763,122.949861 L231.521,122.949861 L231.521,120.636465 L228.06,120.636465 L228.06,112.899861 L235.756,112.899861 L235.756,120.636465 L232.296,120.636465 L232.296,122.949861 L236.113,122.949861 L236.113,123.74428 L232.296,123.74428 L232.296,126.388019 L236.71,126.388019 L236.71,127.18144 L226.868,127.18144 L226.868,126.388019 L231.521,126.388019 L231.521,123.74428 L227.763,123.74428 L227.763,122.949861 L227.763,122.949861 Z M228.836,116.404886 L231.521,116.404886 L231.521,113.627413 L228.836,113.627413 L228.836,116.404886 Z M228.836,119.843044 L231.521,119.843044 L231.521,117.13144 L228.836,117.13144 L228.836,119.843044 Z M232.296,116.404886 L234.981,116.404886 L234.981,113.627413 L232.296,113.627413 L232.296,116.404886 Z M232.296,119.843044 L234.981,119.843044 L234.981,117.13144 L232.296,117.13144 L232.296,119.843044 Z M238.81,113.230204 L244.774,113.230204 L244.774,114.023625 L243.819,114.023625 L243.819,123.611544 C243.94,123.611544 244.138,123.567632 244.416,123.478808 C244.774,123.435894 245.032,123.390983 245.191,123.347071 L245.191,124.140492 C245.032,124.140492 244.814,124.185402 244.535,124.272229 C244.217,124.31714 243.978,124.361053 243.819,124.404965 L243.819,127.777254 L243.044,127.777254 L243.044,124.536703 C242.448,124.669439 241.553,124.867046 240.36,125.132517 C239.724,125.264255 239.227,125.375035 238.869,125.46286 L238.69,124.536703 C238.889,124.536703 239.147,124.493788 239.465,124.404965 C239.624,124.361053 239.743,124.339096 239.823,124.339096 L239.823,114.023625 L238.81,114.023625 L238.81,113.230204 L238.81,113.230204 Z M240.599,116.801097 L243.044,116.801097 L243.044,114.023625 L240.599,114.023625 L240.599,116.801097 Z M240.599,120.305124 L243.044,120.305124 L243.044,117.527651 L240.599,117.527651 L240.599,120.305124 Z M240.599,124.20636 C241.394,124.074623 241.493,124.052666 240.897,124.140492 C241.493,124.052666 242.209,123.91993 243.044,123.74428 L243.044,121.098545 L240.599,121.098545 L240.599,124.20636 L240.599,124.20636 Z M244.715,119.777175 L248.233,119.777175 C248.273,119.336053 248.293,118.851018 248.293,118.322071 L248.293,116.404886 L245.191,116.404886 L245.191,115.544598 L249.009,115.544598 C249.725,114.311053 250.36,113.164335 250.918,112.10644 L251.634,112.502651 C251.236,113.297071 250.659,114.311053 249.904,115.544598 L252.528,115.544598 L252.528,116.404886 L249.069,116.404886 L249.069,118.255204 L249.069,119.777175 L253.065,119.777175 L253.065,120.569598 L249.129,120.569598 C249.725,123.523719 251.076,125.617552 253.185,126.851097 C253.104,126.938923 253.006,127.07066 252.887,127.248307 C252.768,127.423957 252.668,127.555695 252.588,127.644518 C250.44,126.100591 249.148,124.074623 248.711,121.561624 C248.353,124.074623 247.08,126.145501 244.894,127.777254 C244.853,127.732344 244.754,127.621564 244.595,127.446912 C244.476,127.269265 244.376,127.137527 244.297,127.049702 C246.643,125.46286 247.935,123.304156 248.174,120.569598 L244.715,120.569598 L244.715,119.777175 L244.715,119.777175 Z M247.279,115.148386 C246.842,114.354965 246.345,113.517632 245.788,112.635387 L246.444,112.172309 C246.683,112.525606 247.199,113.362939 247.995,114.685308 L247.279,115.148386 L247.279,115.148386 Z M269.482,117.99073 C269.323,118.212289 269.145,118.520675 268.945,118.916887 C266.002,117.330045 263.815,115.478729 262.384,113.362939 C260.793,115.478729 258.566,117.395914 255.703,119.115492 C255.663,119.026668 255.584,118.872974 255.465,118.652413 C255.346,118.476763 255.246,118.344027 255.167,118.255204 C258.269,116.580536 260.654,114.464747 262.324,111.907835 L263.22,112.10644 C263.1,112.283088 262.98,112.481693 262.861,112.701256 C264.531,114.993694 266.738,116.758183 269.482,117.99073 L269.482,117.99073 Z M257.254,120.89994 L267.335,120.89994 L267.335,127.777254 L266.5,127.777254 L266.5,126.719359 L258.089,126.719359 L258.089,127.777254 L257.254,127.777254 L257.254,120.89994 L257.254,120.89994 Z M258.089,125.859071 L266.5,125.859071 L266.5,121.760228 L258.089,121.760228 L258.089,125.859071 Z M258.149,117.660387 L266.5,117.660387 L266.5,118.519677 L258.149,118.519677 L258.149,117.660387 Z M271.893,119.247229 L271.893,113.693282 L272.728,113.693282 L272.728,118.387939 L277.142,118.387939 L277.142,112.172309 L277.917,112.172309 L277.917,118.387939 L282.391,118.387939 L282.391,113.693282 L283.166,113.693282 L283.166,119.247229 L277.917,119.247229 L277.917,126.057676 L282.808,126.057676 L282.808,121.428888 L283.584,121.428888 L283.584,127.511783 L282.808,127.511783 L282.808,126.916966 L271.475,126.916966 L271.475,121.428888 L272.31,121.428888 L272.31,126.057676 L277.142,126.057676 L277.142,119.247229 L271.893,119.247229 L271.893,119.247229 Z M285.58,120.569598 L290.889,120.569598 L290.889,127.777254 L290.113,127.777254 L290.113,126.719359 L286.355,126.719359 L286.355,127.777254 L285.58,127.777254 L285.58,120.569598 L285.58,120.569598 Z M286.355,125.859071 L290.113,125.859071 L290.113,121.428888 L286.355,121.428888 L286.355,125.859071 Z M287.071,112.701256 L296.972,112.701256 L296.972,118.387939 L287.071,118.387939 L287.071,112.701256 Z M287.847,117.527651 L296.198,117.527651 L296.198,113.560546 L287.847,113.560546 L287.847,117.527651 Z M293.096,120.569598 L298.464,120.569598 L298.464,127.777254 L297.689,127.777254 L297.689,126.719359 L293.931,126.719359 L293.931,127.777254 L293.096,127.777254 L293.096,120.569598 L293.096,120.569598 Z M293.931,125.859071 L297.689,125.859071 L297.689,121.428888 L293.931,121.428888 L293.931,125.859071 Z" id="01-02-text" fill="#FFFFFF"></path>
                </g>
            </g>
        </g>
    </g>
</svg>