<?xml version="1.0" encoding="utf-8"?>
<!-- Generator: Adobe Illustrator 16.0.0, SVG Export Plug-In . SVG Version: 6.00 Build 0)  -->
<!DOCTYPE svg PUBLIC "-//W3C//DTD SVG 1.1//EN" "http://www.w3.org/Graphics/SVG/1.1/DTD/svg11.dtd">
<svg version="1.1" id="图层_1" xmlns="http://www.w3.org/2000/svg" xmlns:xlink="http://www.w3.org/1999/xlink" x="0px" y="0px"
	 width="150.156px" height="60px" viewBox="1.849 0 150.156 60" enable-background="new 1.849 0 150.156 60" xml:space="preserve">
<polygon fill="#036BA7" points="16.141,3.969 151.844,3.969 137.551,55.969 1.849,55.969 "/>
<path fill="none" d="M137.714,55.999H2.01l14.292-52h135.703L137.714,55.999z"/>
<path fill="#1185C7" d="M17.066,4.999c0,0-2.601,9.462-4.803,17.472c35.917-1.949,81.822-4.022,135.488-6.172
	c2.545-6.218,2.94-11.3,2.94-11.3H17.066z"/>
<path fill="#FFFFFF" d="M137.714,55.999H2.012l14.291-52h135.703L137.714,55.999z M136.952,54.999l13.741-50H17.066l-13.744,50
	H136.952"/>
<path fill="#FFFFFF" d="M118.523,26.438l-0.729,4.126h5.626l0.729-4.126H118.523z M121.413,21.75h-7.688
	c-1.039,0.937-2.105,1.843-3.197,2.718h7.875L121.413,21.75z M115.641,30.562l0.729-4.125h-5.719l-0.729,4.125H115.641z
	 M125.246,32.438H109.59l-0.562,3.188c-0.283,1.252,0.355,1.876,1.921,1.876h10.687c1.615,0.063,2.59-0.5,2.924-1.688
	c0.021-0.123,0.135-0.403,0.336-0.842c0.258-0.75,0.455-1.344,0.596-1.783c0.758,0.313,1.406,0.533,1.945,0.656
	c-0.031,0.188-0.106,0.439-0.226,0.752c-0.313,1.062-0.603,1.813-0.864,2.25c-0.685,1.747-2.24,2.592-4.666,2.529h-11.719
	c-2.574,0.062-3.626-1.062-3.154-3.374l1.784-10.125l-0.96,0.656c-0.299-0.436-0.71-0.937-1.234-1.5
	c3.386-2.186,6.19-4.623,8.414-7.312l2.387,0.28c-0.158,0.188-0.432,0.501-0.82,0.937c-0.316,0.375-0.59,0.689-0.82,0.938h9
	l-0.315,1.781l-3.119,2.812h5.53L125.246,32.438z M93.341,35.906l-1.825,1.312c-0.052-0.062-0.098-0.154-0.137-0.283
	c-0.833-1.312-1.535-2.279-2.113-2.904l1.621-1.219C91.771,33.812,92.592,34.844,93.341,35.906z M97.786,30.376l0.347-1.969h2.062
	l-0.348,1.969h3l-0.33,1.874h-3.002l-0.857,4.875c-0.27,1.875-1.402,2.812-3.402,2.812c-1.012,0.062-2.049,0.092-3.111,0.092
	c-0.006-0.312-0.017-0.78-0.031-1.404c-0.01-0.312-0.027-0.562-0.057-0.749c0.613,0.06,1.516,0.093,2.703,0.093
	c1.125,0,1.764-0.438,1.918-1.312l0.777-4.406H88.83l0.331-1.874H97.786z M89.447,25.03h-2.156l-0.811,4.594l2.271-0.656
	c-0.155,0.876-0.219,1.595-0.192,2.157l-2.461,0.656l-1.484,8.438H82.55l1.39-7.873l-4.06,1.217l0.114-2.25l4.322-1.125l0.91-5.157
	H83.26c-0.107,0.251-0.262,0.596-0.464,1.032c-0.364,1.001-0.685,1.75-0.96,2.25c-0.165-0.124-0.449-0.281-0.855-0.469
	c-0.237-0.06-0.414-0.124-0.527-0.188c1.027-1.938,1.949-4.5,2.762-7.688l1.561,0.188c-0.116,0.312-0.262,0.783-0.436,1.407
	c-0.246,0.687-0.428,1.187-0.545,1.5h1.781l0.908-5.157h2.063l-0.911,5.157h2.156L89.447,25.03z M103.281,22.593h-4.969
	l-0.545,3.094h5.906l-0.331,1.876H89.469l0.331-1.876h5.812l0.547-3.094h-4.875l0.33-1.874h4.875l0.514-2.906h2.155l-0.513,2.906
	h4.969L103.281,22.593z M62.972,22.688l1.82,0.844c-2.478,3.063-4.69,5.688-6.638,7.874c0.51-0.061,1.272-0.124,2.283-0.186
	c1.084-0.127,1.846-0.188,2.284-0.188c-0.044,0.249-0.125,0.53-0.243,0.842c-0.079,0.438-0.165,0.751-0.26,0.938
	c-2.731,0.25-4.999,0.53-6.804,0.845l-0.343-1.783c0.64-0.437,1.234-0.968,1.781-1.593c0.317-0.375,0.87-1.031,1.661-1.969
	c0.535-0.562,0.925-0.999,1.169-1.313c-1.438,0-2.637,0.063-3.597,0.188l-0.341-1.781c0.439-0.375,0.893-0.811,1.356-1.313
	c1.107-1.313,2.601-3.405,4.483-6.28l2.041,0.656c-0.486,0.625-1.214,1.562-2.185,2.813c-1.467,1.938-2.511,3.25-3.133,3.936
	l2.831-0.093C61.79,24.25,62.402,23.437,62.972,22.688z M78.292,21.937l-0.144,1.876l-7.946,0.937
	c-0.134,0.751-0.197,1.469-0.192,2.157l-0.072,0.937l8.167-1.125l-0.145,1.875l-8.073,1.125c0.006,1.375,0.098,2.625,0.276,3.75
	c1.329-0.811,2.987-2.062,4.974-3.75l1.285,1.219c-2.134,1.812-4.079,3.28-5.84,4.405c0.463,1.626,1.224,2.438,2.289,2.438
	c0.562,0,0.998-0.344,1.306-1.03c0.023-0.126,0.086-0.313,0.194-0.563c0.5-1.062,0.83-1.873,0.991-2.438
	c0.165,0.126,0.563,0.346,1.196,0.656c0.229,0.126,0.4,0.221,0.514,0.281c-0.387,1.123-0.814,2.125-1.28,3
	c-0.713,1.562-1.82,2.342-3.319,2.342c-1.752,0-3.051-1.125-3.905-3.373c-0.137,0.062-0.371,0.156-0.705,0.279
	c-2.323,1.127-4.254,1.969-5.791,2.532c-0.144-0.251-0.316-0.688-0.519-1.313c-0.132-0.312-0.219-0.531-0.258-0.655
	c0.085-0.024,0.168-0.054,0.253-0.078c-0.846,0.071-2.293,0.284-4.385,0.642c-1.418,0.248-2.483,0.437-3.191,0.562l-0.028-1.969
	c0.385-0.063,1.126-0.188,2.222-0.377c2.764-0.436,4.757-0.748,5.979-0.937c-0.056,0.313-0.16,0.72-0.309,1.22
	c-0.065,0.357-0.114,0.625-0.146,0.812c2.284-0.676,4.445-1.564,6.477-2.688c-0.258-1.373-0.39-2.938-0.394-4.688l-4.24,0.655
	l0.065-1.968l4.225-0.562l0.07-0.939c-0.003-0.687,0.061-1.406,0.193-2.157l-3.44,0.375l0.159-1.969l3.441-0.374
	c0.173-1.688,0.413-3.407,0.721-5.157h2.157c-0.32,1.814-0.55,3.469-0.689,4.97L78.292,21.937z M74.966,21.656
	c-0.65-0.562-1.492-1.28-2.526-2.156l1.561-1.406c0.495,0.375,1.259,1,2.293,1.875c0.278,0.188,0.47,0.343,0.573,0.469l-1.67,1.499
	C75.146,21.876,75.069,21.782,74.966,21.656z M40.135,35.344c0.509-1.125,0.986-2.938,1.427-5.437l0.628-3.563h7.313l-1.851,10.5
	c-0.088,0.502,0.148,0.749,0.711,0.749h0.281c0.488,0.063,0.825-0.247,1.009-0.937c0.374-1.062,0.699-2.374,0.976-3.938
	c0.227,0.126,0.547,0.253,0.963,0.376c0.238,0.063,0.416,0.127,0.53,0.188c-0.372,1.75-0.739,3.127-1.104,4.126
	c-0.441,1.438-1.349,2.154-2.723,2.154h-0.937c-1.512,0.062-2.1-0.688-1.76-2.25l1.587-9h-3.282l-0.281,1.595
	c-0.638,4.688-2.276,8.124-4.913,10.312c-0.155-0.188-0.392-0.438-0.711-0.75c-0.32-0.313-0.557-0.563-0.712-0.752
	C38.612,37.593,39.561,36.469,40.135,35.344z M34.777,23.72l1.523-0.657c0.068,0.313,0.153,0.719,0.253,1.218
	c0.221,0.876,0.385,1.533,0.497,1.969l-1.616,0.656C35.277,26.031,35.056,24.97,34.777,23.72z M34.529,21.937l-1.09,6.189h3.938
	l1.091-6.189H34.529z M37.503,37.5c-0.214,1.561-1.1,2.346-2.663,2.346c-0.387,0.061-1.11,0.092-2.173,0.092
	c0.021-0.125-0.002-0.345-0.072-0.655c0.036-0.563,0.05-1.001,0.044-1.313c0.125,0,0.282,0,0.468,0c0.552,0.062,0.988,0.062,1.313,0
	c0.863,0.062,1.326-0.25,1.383-0.938l1.257-7.125h-3.938c-0.668,4.5-1.837,7.936-3.505,10.312c-0.103-0.126-0.295-0.28-0.573-0.469
	c-0.372-0.376-0.635-0.656-0.788-0.845c1.415-1.998,2.442-4.998,3.085-9h-1.406l0.315-1.781h1.406l1.406-7.97h2.343
	c0.118-0.312,0.282-0.717,0.496-1.218c0.16-0.563,0.295-0.968,0.402-1.219l2.047,0.095l-1.069,2.343h3.281L37.503,37.5z
	 M35.75,34.688l-1.614,0.656c-0.229-1.188-0.495-2.343-0.797-3.47l1.523-0.653c0.07,0.312,0.173,0.781,0.315,1.404
	C35.469,33.438,35.662,34.126,35.75,34.688z M52.938,23.344H41.125l0.348-1.969h4.875c-0.1-0.5-0.276-1.28-0.524-2.344
	c-0.059-0.374-0.109-0.624-0.15-0.75l2.334-0.468l0.684,3.562h4.593L52.938,23.344z"/>
</svg>
