<?xml version="1.0" encoding="utf-8"?>
<!-- Generator: Adobe Illustrator 16.0.0, SVG Export Plug-In . SVG Version: 6.00 Build 0)  -->
<!DOCTYPE svg PUBLIC "-//W3C//DTD SVG 1.1//EN" "http://www.w3.org/Graphics/SVG/1.1/DTD/svg11.dtd">
<svg version="1.1" id="图层_1" xmlns="http://www.w3.org/2000/svg" xmlns:xlink="http://www.w3.org/1999/xlink" x="0px" y="0px"
	 width="155px" height="60px" viewBox="0 0 155 60" enable-background="new 0 0 155 60" xml:space="preserve">
<polygon fill-rule="evenodd" clip-rule="evenodd" fill="#036BA7" points="16.303,4 152.006,4 137.713,56 2.011,56 "/>
<path fill-rule="evenodd" clip-rule="evenodd" fill="#0D85C7" d="M16.303,4c0,0,0.763,1.001-0.83,6.793
	c41.065-1.309,85.857-2.63,134.715-3.953c1.163-0.456,0.506-1.84,0.506-1.84L16.303,4z"/>
<path fill="#FFFFFF" d="M137.713,56H2.011L16.303,4h135.703L137.713,56z M136.952,55l13.741-50H17.065L3.322,55H136.952"/>
<path fill="#FFFFFF" d="M126.762,26.75h-9.001l-0.628,3.562h7.875l-0.348,1.969h-7.874l-0.744,4.219c1.187,0,3.281,0,6.28,0
	c1.563,0,2.72,0,3.47,0c-0.203,0.438-0.542,1.127-1.021,2.063c-5.063,0-8.433-0.032-10.109-0.095
	c-3.165-0.125-5.318-1.374-6.463-3.75c-1.037,1.626-2.396,3.125-4.073,4.501c-0.342-0.563-0.741-1.124-1.203-1.688
	c2.8-2.063,4.74-5.094,5.823-9.094l2.105,0.281c-0.419,1.313-0.88,2.501-1.379,3.562c0.934,2.502,2.404,3.907,4.412,4.219l1.72-9.75
	h-9.938l0.348-1.969h21.095L126.762,26.75z M127.119,23.656h-2.157l0.413-2.343h-16.313l-0.396,2.25h-2.157l0.745-4.219h9.376
	c-0.02-0.25-0.043-0.656-0.067-1.22c-0.09-0.562-0.142-0.968-0.16-1.218l2.58-0.282c0.096,0.876,0.155,1.781,0.178,2.72h8.72
	L127.119,23.656z M94.43,28.906l0.563-3.187h1.969l-0.579,3.28c-0.18,1.377-0.551,2.596-1.114,3.657
	c1.851,1.563,3.611,3.094,5.285,4.594l-1.609,1.687c-1.156-1.25-2.735-2.749-4.74-4.499c-1.077,1.5-3.488,3.125-7.233,4.875
	c-0.276-0.562-0.609-1.158-0.998-1.781c3.009-1.125,5.059-2.281,6.143-3.47C93.239,33.001,94.012,31.281,94.43,28.906z
	 M85.694,24.219l0.402,0.375l-0.897,0.842h4.031l-0.332,1.876l-1.538,3.938c-0.302-0.063-0.666-0.126-1.09-0.188
	c-0.24-0.062-0.423-0.095-0.547-0.095l1.488-3.655h-2.251l-1.585,9c-0.237,1.687-1.234,2.562-2.994,2.623c-0.689,0-1.438,0-2.25,0
	c0.02-0.126,0.017-0.28-0.013-0.469c0.069-0.749,0.069-1.281,0-1.593c0.613,0.062,1.203,0.095,1.766,0.095
	c0.938,0,1.436-0.345,1.494-1.032l1.52-8.625h-3.374l0.331-1.876h4.219c-0.054-0.061-0.129-0.155-0.231-0.281
	c-0.751-1.061-1.514-2.062-2.284-3.001l1.604-1.125l1.468,1.781l2.981-3.093h-6.28l0.313-1.781h8.344l-0.381,2.157L85.694,24.219z
	 M103.551,19.718h-5.626l-1.09,3h5.248l-1.933,10.97h-1.969l1.636-9.282H92.6l-1.653,9.375h-1.97l1.951-11.063h3.844l0.997-3h-4.875
	l0.331-1.875h12.656L103.551,19.718z M61.973,21.687l1.818,0.844c-2.477,3.063-4.688,5.688-6.636,7.875
	c0.509-0.062,1.27-0.124,2.282-0.188c1.083-0.124,1.845-0.188,2.283-0.188c-0.044,0.251-0.126,0.532-0.244,0.844
	c-0.077,0.438-0.163,0.749-0.258,0.938c-2.733,0.251-5,0.532-6.805,0.844l-0.343-1.781c0.639-0.436,1.233-0.968,1.781-1.593
	c0.317-0.375,0.869-1.032,1.66-1.969c0.536-0.563,0.926-1,1.169-1.313c-1.44,0-2.638,0.062-3.596,0.188l-0.341-1.781
	c0.439-0.375,0.891-0.812,1.356-1.313c1.105-1.313,2.599-3.406,4.481-6.282l2.041,0.656c-0.487,0.625-1.215,1.564-2.185,2.813
	c-1.468,1.938-2.511,3.25-3.131,3.938l2.829-0.095C60.791,23.251,61.403,22.438,61.973,21.687z M77.291,20.938l-0.142,1.874
	l-7.946,0.939c-0.134,0.75-0.199,1.469-0.194,2.155l-0.072,0.939l8.167-1.125l-0.143,1.875l-8.072,1.125
	c0.005,1.376,0.098,2.625,0.274,3.75c1.331-0.812,2.989-2.063,4.975-3.75l1.285,1.22c-2.132,1.814-4.078,3.282-5.838,4.407
	c0.462,1.626,1.224,2.437,2.287,2.437c0.563,0,0.998-0.343,1.308-1.031c0.021-0.124,0.086-0.312,0.193-0.563
	c0.5-1.061,0.831-1.874,0.991-2.438c0.167,0.128,0.565,0.345,1.198,0.656c0.229,0.128,0.398,0.221,0.513,0.283
	c-0.385,1.124-0.813,2.125-1.28,2.999c-0.713,1.562-1.819,2.344-3.319,2.344c-1.75,0-3.051-1.125-3.903-3.374
	c-0.137,0.062-0.372,0.156-0.707,0.28c-2.323,1.125-4.253,1.969-5.789,2.53c-0.144-0.249-0.316-0.687-0.519-1.313
	c-0.134-0.313-0.22-0.53-0.26-0.656c0.085-0.024,0.167-0.054,0.251-0.078c-0.846,0.073-2.293,0.284-4.382,0.642
	c-1.42,0.25-2.483,0.436-3.191,0.563l-0.028-1.969c0.385-0.063,1.126-0.188,2.222-0.376c2.764-0.436,4.756-0.749,5.979-0.937
	c-0.057,0.313-0.16,0.718-0.31,1.218c-0.063,0.358-0.114,0.623-0.144,0.813c2.284-0.674,4.447-1.565,6.475-2.687
	c-0.258-1.375-0.39-2.938-0.392-4.689l-4.242,0.657l0.065-1.967l4.225-0.563l0.07-0.937c-0.003-0.688,0.062-1.407,0.194-2.157
	l-3.441,0.375l0.16-1.969l3.44-0.375c0.173-1.688,0.415-3.406,0.723-5.156h2.157c-0.322,1.814-0.552,3.468-0.69,4.968L77.291,20.938
	z M73.965,20.657c-0.649-0.563-1.492-1.282-2.524-2.157L73,17.095c0.495,0.374,1.26,0.999,2.294,1.874
	c0.279,0.188,0.47,0.344,0.575,0.468l-1.672,1.5C74.146,20.875,74.068,20.783,73.965,20.657z M39.134,34.345
	c0.51-1.125,0.986-2.938,1.427-5.438l0.628-3.563h7.312l-1.851,10.499c-0.088,0.501,0.15,0.751,0.712,0.751h0.281
	c0.488,0.063,0.826-0.25,1.01-0.937c0.373-1.063,0.699-2.376,0.975-3.938c0.227,0.126,0.549,0.25,0.965,0.374
	c0.238,0.063,0.415,0.128,0.529,0.188c-0.373,1.752-0.74,3.127-1.102,4.126c-0.441,1.437-1.35,2.156-2.723,2.156h-0.939
	c-1.51,0.061-2.098-0.688-1.758-2.249l1.587-9h-3.281l-0.283,1.593c-0.638,4.688-2.275,8.124-4.911,10.313
	c-0.155-0.188-0.392-0.438-0.712-0.751c-0.321-0.313-0.558-0.562-0.711-0.749C37.611,36.594,38.56,35.469,39.134,34.345z
	 M33.778,22.719l1.521-0.656c0.069,0.313,0.154,0.72,0.253,1.219c0.22,0.875,0.385,1.532,0.498,1.967l-1.616,0.656
	C34.276,25.032,34.056,23.969,33.778,22.719z M33.528,20.938l-1.089,6.188h3.938l1.089-6.188H33.528z M36.504,36.499
	c-0.214,1.563-1.102,2.345-2.663,2.345c-0.387,0.062-1.112,0.093-2.173,0.093c0.02-0.126-0.003-0.343-0.072-0.654
	c0.035-0.563,0.049-1.001,0.044-1.313c0.124,0,0.281,0,0.468,0c0.55,0.061,0.988,0.061,1.313,0c0.862,0.061,1.324-0.252,1.383-0.939
	l1.257-7.124h-3.938c-0.667,4.499-1.836,7.936-3.505,10.313c-0.104-0.125-0.295-0.282-0.575-0.468
	c-0.372-0.376-0.633-0.656-0.789-0.845c1.416-2,2.444-5,3.087-9h-1.408l0.315-1.781h1.407l1.404-7.969h2.345
	c0.117-0.312,0.281-0.718,0.495-1.219c0.162-0.562,0.295-0.968,0.403-1.218l2.046,0.093l-1.069,2.344h3.281L36.504,36.499z
	 M34.751,33.688l-1.616,0.656c-0.229-1.188-0.493-2.345-0.795-3.47l1.521-0.656c0.07,0.313,0.175,0.782,0.315,1.405
	C34.469,32.438,34.661,33.125,34.751,33.688z M51.937,22.343H40.125l0.346-1.969h4.875c-0.099-0.5-0.274-1.28-0.524-2.343
	c-0.059-0.375-0.107-0.624-0.148-0.751l2.333-0.469l0.684,3.563h4.594L51.937,22.343z"/>
</svg>
