<svg width="640" height="146" viewBox="0 0 640 146" xmlns="http://www.w3.org/2000/svg" xmlns:sketch="http://www.bohemiancoding.com/sketch/ns"><title>Rectangle 4</title><desc>Created with Sketch.</desc><g sketch:type="MSLayerGroup" fill="none"><path sketch:type="MSShapeGroup" d="M0 .686h640v145.314h-640z"/><g sketch:type="MSShapeGroup"><path d="M167.723 8.005h301.173v76.896h-301.173v-76.896z" fill="#fff"/><path d="M169.634 9.923h297.382v73.11h-297.382v-73.11z" fill="#006AB6"/><path d="M169.629 9.923h73.266v73.11h-73.266v-73.11z" fill="#000D57"/><path d="M242.892 60.54h224.122v22.492h-224.122v-22.492z" fill="#FBC200"/><path d="M254.043 67.032h1.478v10.239h-1.478v-10.239z" fill="#000D57"/><path d="M266.055 67.032h1.99l4.541 8.242h.037v-8.242h1.451v10.239h-1.874l-4.635-8.416h-.043v8.416h-1.467v-10.239" fill="#000D57"/><path d="M286.662 68.328h-3.194v-1.296h7.856v1.296h-3.194v8.942h-1.468v-8.942" fill="#000D57"/><path d="M300.801 67.032h5.745v1.293h-4.272v2.985h3.886v1.293h-3.886v3.375h4.272v1.291h-5.745v-10.239" fill="#000D57"/><path d="M316.752 67.032h2.513c2.022 0 3.97.321 3.97 2.771 0 1.249-.919 2.124-2.106 2.334v.021c.448.18.686.403.998 1.035l1.938 4.077h-1.674l-1.569-3.55c-.465-1.003-.95-1.003-1.72-1.003h-.893v4.553h-1.457v-10.239zm1.457 4.397h1.251c1.404 0 2.229-.622 2.229-1.594 0-.925-.713-1.507-2.054-1.507h-1.426v3.101z" fill="#000D57"/><path d="M333.737 67.032h1.991l4.53 8.242h.037v-8.242h1.468v10.239h-1.88l-4.641-8.416h-.037v8.416h-1.468v-10.239" fill="#000D57"/><path d="M355.543 67.032h1.547l4.335 10.239h-1.61l-1.036-2.583h-5.026l-1.04 2.583h-1.542l4.372-10.239zm.723 1.38l-2.043 5.077h4.087l-2.044-5.077z" fill="#000D57"/><path d="M371.81 68.328h-3.2v-1.296h7.857v1.296h-3.184v8.942h-1.473v-8.942" fill="#000D57"/><path d="M385.865 67.032h1.468v10.239h-1.468v-10.239z" fill="#000D57"/><path d="M402.29 66.852c3.11 0 4.942 2.266 4.942 5.298 0 3.106-1.8 5.293-4.942 5.293-3.12 0-4.926-2.188-4.926-5.293 0-3.032 1.821-5.298 4.926-5.298m0 9.305c2.371 0 3.395-1.97 3.395-4.007 0-2.081-1.125-4.015-3.395-4.012-2.26-.003-3.379 1.931-3.379 4.012 0 2.037 1.024 4.007 3.379 4.007" fill="#000D57"/><path d="M417.243 67.032h2.001l4.525 8.242h.026v-8.242h1.474v10.239h-1.885l-4.642-8.416h-.026v8.416h-1.473v-10.239" fill="#000D57"/><path d="M439.06 67.032h1.536l4.335 10.239h-1.606l-1.04-2.583h-5.026l-1.045 2.583h-1.542l4.388-10.239zm.712 1.38l-2.033 5.077h4.087l-2.054-5.077z" fill="#000D57"/><path d="M454.334 67.032h1.473v8.947h4.297v1.291h-5.77v-10.239" fill="#000D57"/><path d="M206.345 20.003c2.624 2.532 5.554 5.22 8.094 7.838l-2.973 3.817v.19l7.878 3.509 5.322-3.649-3.221-3.562v-.255c3.3-2.329 6.124-4.569 9.319-6.706l-1.541 15.953h-45.925l-1.552-15.953c3.194 2.137 6.024 4.376 9.318 6.706v.255l-3.209 3.562 5.317 3.649 7.866-3.509v-.19l-2.967-3.817c2.545-2.619 5.476-5.306 8.094-7.838h.18" fill="#fff"/><path d="M228.863 40.01l-.459 5.32-16.996-.006v18.361l8.284-.05c1.837-.006 3.791-1.939 3.384-3.215-.428-1.854-2.1-3.087-3.648-4.007.312 0 5.988-4.177 8.648-5.976-.115 1.155-2.027 16.157-2.048 16.398l-19.604 7.451h-.327l-19.615-7.451c-.021-.242-1.921-15.244-2.043-16.398 2.661 1.799 8.336 5.976 8.637 5.976-1.541.92-3.199 2.153-3.648 4.007-.391 1.275 1.557 3.209 3.395 3.215l8.284.05.005-18.361-17.011.006-.455-5.32h45.217" fill="#fff"/><path d="M254.56 30.749c0-5.23-.179-6.02-4.012-6.357v-.482l8.347-.268c8.638-.276 9.319 3.931 9.319 5.567 0 2.882-1.779 4.524-4.245 5.617l.169.235c2.645 4.624 5.923 10.494 11.579 11.656l-.101.519c-3.638-.176-6.314-.071-8.295-2.126-2.249-2.35-4.033-5.361-4.761-6.831-1.363-2.84-2.604-2.029-5.006-2.432v5.504c0 3.76.079 4.441 4.773 5.095v.514h-12.027v-.514c4.112-.543 4.144-1.573 4.26-5.095v-10.6zm2.994 4.514c3.295-.03 7.133-1.531 7.133-5.333 0-4.004-3.522-5.598-7.133-5.572v10.905z" fill="#fff"/><path d="M280.69 47.277c-4.704 0-8.432-2.967-8.432-7.825 0-4.722 3.876-7.978 8.464-7.978 4.657 0 8.389 3.012 8.389 7.841 0 4.653-3.901 7.962-8.421 7.962m-.037-15.047c-3.701 0-5.217 3.833-5.217 6.979 0 3.183 1.791 7.319 5.487 7.319 3.458 0 5-3.931 5-6.882 0-3.13-1.542-7.416-5.27-7.416" fill="#fff"/><path d="M290.194 34.899c-.607-1.538-.745-1.881-2.461-2.155v-.514h7.102v.514c-2.613.139-1.922 1.708-1.235 3.451l3.357 8.687 2.117-6.144c1.548-4.453 1.823-5.652-.712-5.994v-.514h5.997v.514c-1.504.18-1.995.787-2.644 2.092l-1.442 3.314-5.269 13.237c-1.273 3.167-2.154 4.237-3.527 4.237-.929 0-1.684-.758-1.684-1.716 0-.717.401-1.367 1.093-1.599.348.203 1.409.953 1.827.953.749 0 1.356-1.854 1.61-2.36l1.13-2.632-5.259-13.371" fill="#fff"/><path d="M311.25 38.485c.28-3.733-.686-5.275-3.39-5.275-2.349 0-2.122 1.133-2.122 3.012l-1.711.105c-.274 0-.792.029-.792-.342 0-.925 3.77-4.484 6.552-4.484 3.148 0 4.098 2.4 4.098 5.125v4.865c0 3.004-.275 4.89 2.999 4.374v.766c-1.315.387-2.44.498-3.469.498-1.437 0-1.991-.817-2.165-2.158-1.093 1.236-2.593 2.331-4.351 2.331-2.185 0-3.416-1.855-3.416-3.899 0-.517.075-.999.201-1.504l7.566-3.415zm-4.62 3.043c-.143.445-.242.877-.242 1.359 0 1.444.828 2.707 2.391 2.707.94 0 1.859-.622 2.471-1.262v-5.167l-4.62 2.363z" fill="#fff"/><path d="M315.295 46.958v-.835c2.381-.281 2.671-.824 2.671-3.135v-14.528c0-1.438.042-1.881-1.674-3.114v-.342l3.939-1.502.38.14v19.346c0 2.802.132 3.077 2.672 3.456v.514h-7.988" fill="#fff"/><path d="M355.659 38.485c.28-3.733-.686-5.275-3.389-5.275-2.361 0-2.123 1.133-2.123 3.012l-1.721.105c-.276 0-.781.029-.781-.342 0-.925 3.769-4.484 6.546-4.484 3.152 0 4.113 2.4 4.113 5.125v4.865c0 3.004-.349 5.091 2.972 4.374v.766c-1.303.387-2.428.498-3.468.498-1.431 0-1.97-.817-2.149-2.158-1.093 1.236-2.598 2.331-4.345 2.331-2.197 0-3.438-1.855-3.438-3.899 0-.517.079-.999.217-1.504l7.566-3.415zm-4.626 3.043c-.132.445-.231.877-.231 1.359 0 1.444.812 2.707 2.385 2.707.924 0 1.854-.622 2.472-1.262v-5.167l-4.626 2.363z" fill="#fff"/><path d="M345.659 30.734h-.512c-.639-3.857-2.92-6.63-7.022-6.63-6.273 0-9.81 5.136-9.81 11.016 0 6.735 5.184 11.416 10.148 11.416 4.487 0 6.262-3.285 7.819-6.969l.475.206c-.411 2.082-1.062 4.129-1.885 6.113-2.202 1.064-4.557 1.467-6.985 1.467-7.175 0-13.522-4.102-13.522-11.832 0-6.081 4.741-12.238 13.796-12.238 2.604 0 5.238.516 7.498 1.849v5.602" fill="#fff"/><path d="M437.074 38.464c.285-3.718-.691-5.265-3.394-5.265-2.356 0-2.123 1.131-2.123 3.006l-1.705.106c-.281 0-.792.042-.792-.342 0-.919 3.764-4.479 6.542-4.479 3.146 0 4.107 2.395 4.107 5.13v4.855c0 3.014-.476 4.924 2.655 4.754v.601c-1.304.379-2.101.284-3.131.284-1.435 0-1.99-.817-2.159-2.148-1.082 1.234-2.603 2.321-4.35 2.321-2.187 0-3.427-1.844-3.427-3.907 0-.514.063-.98.206-1.497l7.571-3.419zm-4.62 3.046c-.143.442-.248.89-.248 1.356 0 1.45.818 2.709 2.407 2.709.919 0 1.849-.609 2.461-1.258v-5.17l-4.62 2.363z" fill="#fff"/><path d="M365.004 42.983c0 2.802.138 3.077 3.427 3.448v.519h-8.564v-.819c2.302-.195 2.46-.756 2.497-3.422v-6.252c0-1.447.032-1.89-1.669-3.117v-.348l4.067-1.502.38.14-.138 4.037h.068c.756-1.815 2.678-4.177 4.826-4.177.967 0 1.758.617 1.758 1.576 0 .919-1.003 1.775-1.784 2.153-.591-.446-1.441-1.194-2.196-1.131-2.914.269-2.672 4.932-2.672 5.441v3.454" fill="#fff"/><path d="M372.718 46.95v-.519c2.524-.371 2.635-.779 2.667-3.448v-6.532c0-1.436.036-1.884-2.086-3.111v-.348l4.35-1.502.38.14v11.353c0 2.802.132 3.077 2.677 3.448v.519h-7.988zm5.586-21.156c0 .956-.797 1.75-1.753 1.75-.955 0-1.742-.793-1.742-1.75 0-.954.787-1.75 1.742-1.75.956 0 1.753.795 1.753 1.75z" fill="#fff"/><path d="M381.941 28.45c0-1.444.028-1.887-1.668-3.117v-.34l3.934-1.507.38.137v9.781c1.679-.914 3.775-1.913 5.718-1.913 3.807 0 6.441 3.525 6.441 7.109 0 6.059-5.586 8.7-9.355 8.7-2.043 0-3.59-.559-5.45-1.378v-17.47zm2.646 11.555c0 3.184.344 6.224 4.313 6.224 1.885 0 4.927-1.507 4.927-6.253 0-4.107-2.74-6.774-6.046-6.774-1.178 0-2.133.305-3.194.754v6.049z" fill="#fff"/><path d="M398.336 28.45c0-1.444.021-1.887-1.679-3.117v-.34l3.939-1.507.375.137v9.781c1.678-.914 3.769-1.913 5.718-1.913 3.812 0 6.446 3.525 6.446 7.109 0 6.059-5.586 8.7-9.356 8.7-2.048 0-3.595-.559-5.443-1.378v-17.47zm2.635 11.555c0 3.184.348 6.224 4.313 6.224 1.885 0 4.943-1.507 4.943-6.253 0-4.107-2.747-6.774-6.068-6.774-1.172 0-2.128.305-3.188.754v6.049z" fill="#fff"/><path d="M417.612 38.229c-.268 3.56 2.165 6.876 6.031 6.876 1.794 0 3.014-.789 4.043-2.168l.512.387c-1.299 2.224-3.627 3.973-6.293 3.973-4.256 0-7.196-3.497-7.196-7.591 0-4.423 3.078-8.215 7.714-8.215 3.083 0 5.126 1.947 5.263 5.029h-9.925l-.149 1.708zm6.822-2.632c-.306-1.573-1.267-3.359-3.088-3.359-1.949 0-3.111 1.92-3.486 3.631l6.574-.271z" fill="#fff"/><path d="M443.864 36.457c0-1.447.032-1.89-1.684-3.117v-.348l4.087-1.502.38.135-.286 2.506c1.97-1.442 3.839-2.641 6.03-2.641 4.124 0 4.335 3.386 4.335 5.403v6.09c0 2.802.122 3.077 2.666 3.448v.519h-7.994v-.519c2.539-.371 2.651-.779 2.682-3.448v-3.931c0-2.398.09-5.78-4.081-5.78-1.404 0-2.365.439-3.506 1.475v8.237c0 2.802.154 3.077 2.683 3.448v.519h-7.979l-.009-.627c2.455-.201 2.639-.672 2.676-3.34v-6.526" fill="#fff"/><path d="M479.878 16.169c1.277 0 2.175-.656 2.175-1.75v-.013c0-1.031-.797-1.66-2.164-1.66h-2.598v3.422h2.587zm-3.548-4.307h3.638c1.04 0 1.874.305 2.402.848.422.408.654.998.654 1.66v.027c0 1.39-.971 2.218-2.296 2.45l2.597 3.459h-1.177l-2.45-3.28h-2.407v3.28h-.961v-8.444z" fill="#fff"/><path d="M473.647 16.174c0-3.117 2.54-5.649 5.661-5.649 3.126 0 5.654 2.532 5.654 5.649 0 3.112-2.528 5.647-5.654 5.647-3.121 0-5.661-2.535-5.661-5.647m-.754 0c0 3.528 2.882 6.413 6.415 6.413 3.537 0 6.415-2.885 6.415-6.413 0-3.533-2.878-6.404-6.415-6.404-3.533 0-6.415 2.871-6.415 6.404" fill="#fff"/><path d="M174.502 99.818h10.042v-1.71h-10.042v1.71zm0-2.856h10.042v-1.671h-10.042v1.671zm11.964 4.163h.032c-.375-.113-2.72-.174-7.022-.174-4.303 0-6.611.061-6.933.174.127-.54.19-1.75.19-3.617 0-1.884-.063-3.049-.19-3.531.459.085 1.637.13 3.548.13.322-.954.581-1.776.787-2.485l2.175.646c-.444.675-.782 1.298-1.014 1.857.27.019.734.019 1.41.019 4.108 0 6.442-.056 7.017-.167-.106.353-.163 1.526-.163 3.531 0 1.157.031 2.087.09 2.764l.073.832v.021zm2.134 7.335v1.702c-.708-.126-3.808-.203-9.315-.203-5.691 0-8.801.06-9.318.185v-1.684c.48.111 3.315.171 8.473.171v-1.894c-3.701 0-5.796.053-6.277.162v-1.701c.217.085 2.308.148 6.277.172l-.031-1.404c-4.614 0-7.143.058-7.553.182v-1.689c.447.111 3.203.169 8.266.169 5.047 0 7.856-.058 8.401-.169v1.689c-.27-.103-2.709-.169-7.314-.182v1.404c4.034-.024 6.184-.087 6.447-.172v1.714c-.47-.119-2.613-.175-6.447-.175v1.894c5.122 0 7.92-.06 8.391-.171z" fill="#fff"/><path d="M223.06 97.22h-1.971v-1.939h-13.646v1.939h-1.985c.116-.498.185-1.091.185-1.77 0-.672-.069-1.244-.185-1.726.417.105 3.089.177 8.036.19-.063-.672-.275-1.307-.623-1.873l2.18-.419c.259.925.449 1.679.576 2.279 4.641-.027 7.122-.082 7.433-.159-.105.374-.158.933-.158 1.681 0 .79.053 1.391.158 1.797m.228 10.396h.026c-.718.437-1.283.999-1.721 1.716-1.062-.787-1.869-1.595-2.46-2.434-.586-.835-1.189-2.143-1.801-3.931-.491.286-1.009.558-1.568.848.195.771.301 1.53.301 2.27 0 .795-.106 1.61-.301 2.453-.196.843-.697 1.444-1.505 1.818-.813.363-1.626.611-2.46.754-.148-.859-.518-1.581-1.119-2.188.609.101 1.15.167 1.599.167.808 0 1.347-.214 1.6-.635.274-.424.406-1.141.406-2.14 0-.303-.036-.686-.099-1.165-2.038 1.807-4.785 3.417-8.243 4.819-.296-.522-.728-1.009-1.288-1.463 3.633-1.47 6.674-3.162 9.134-5.05-.147-.348-.343-.72-.559-1.094-1.642 1.401-4.06 2.798-7.287 4.195-.29-.546-.66-1.062-1.108-1.529 2.914-1.051 5.464-2.291 7.692-3.733-.2-.23-.459-.488-.744-.752-1.373.785-3.321 1.629-5.84 2.525-.3-.572-.739-1.089-1.288-1.555 3.089-.832 5.692-1.902 7.835-3.233-2.513.024-3.907.087-4.155.174v-1.7c.349.117 2.276.164 5.813.164 3.511 0 5.465-.047 5.872-.164v1.7c-.486-.103-2.133-.174-4.942-.174-.851.616-1.511 1.075-1.976 1.393 1.125 1.141 1.886 2.132 2.287 2.967 1.816-1.194 3.226-2.266 4.224-3.23l1.737 1.295-1.056.414-1.6 1.038c.676 2.023 1.547 3.438 2.64 4.25 1.088.803 1.737 1.207 1.954 1.207" fill="#fff"/><path d="M252.591 106.08h3.538v-9.741h-3.538v9.741zm5.412 3.282h-1.874v-1.949h-3.538v2.421h-1.727c.095-.387.148-2.924.148-7.567 0-4.616-.053-7.061-.148-7.369.454.129 1.626.177 3.506.177 1.832 0 3.052-.048 3.681-.158-.149.585-.206 2.977-.206 7.177 0 4.344.047 6.761.158 7.269zm-8.638-13.178l-.015-.019c-.265 7.509-.524 11.693-.803 12.554-.27.851-1.432 1.441-3.501 1.776 0-.886-.296-1.626-.902-2.209.516.085.976.124 1.345.124.66 0 1.067-.119 1.236-.331.164-.222.322-1.183.475-2.904.153-1.715.301-4.17.47-7.361h-2.492c-.132 3.036-.428 5.365-.903 7.004-.464 1.649-1.584 3.752-3.363 6.322-.423-.584-.908-1.093-1.441-1.531 1.235-1.726 2.191-3.345 2.814-4.876.628-1.523.997-3.836 1.119-6.919h-3.158l.022-1.649c.401.098 1.452.153 3.181.174.045-1.233.055-2.587.055-4.052l2.197.392-.381.909-.052 2.751c2.233 0 3.611-.044 4.097-.155z" fill="#fff"/><path d="M292.538 96.577c-.29 7.108-.522 11.15-.744 12.109-.206.964-1.468 1.555-3.802 1.794 0-.78-.274-1.526-.807-2.238.528.056.976.095 1.34.095.792 0 1.252-.124 1.405-.352.148-.24.291-1.171.443-2.819.153-1.642.302-3.997.46-7.063h-2.45c-.19 3.345-.538 5.782-1.067 7.316-.528 1.538-1.61 3.34-3.236 5.419-.592-.419-1.193-.785-1.811-1.104 1.362-1.328 2.45-2.766 3.231-4.334.792-1.541 1.246-3.976 1.357-7.297h-2.777v-1.526c.301.076 1.24.124 2.824.158.006-.837.017-2.548.017-5.119l1.942.15-.353.999c-.016 1.446-.059 2.774-.127 3.986 2.434-.016 3.812-.074 4.155-.174zm-12.286 6.75h2.091v-2.445h-2.091v2.445zm-2.186-6.118h3.146v-1.663h-3.146v1.663zm-1.298 6.118h1.975v-2.445h-1.975v2.445zm7.935-7.63c-.211-.063-.914-.108-2.117-.15v2.89l-1.373-.156h-.961v1.446c1.858 0 3.057-.05 3.601-.14-.089.382-.137 1.21-.137 2.445 0 1.277.048 2.135.137 2.593-.528-.095-1.743-.161-3.632-.161v1.377c2.222-.026 3.495-.079 3.806-.169v1.684c-.465-.103-1.721-.163-3.775-.163.021 2.158.058 3.369.111 3.644l-1.748.034c.059-.308.106-1.541.127-3.694-2.619.016-4.092.084-4.403.179v-1.684c.454.109 1.927.169 4.414.169l.02-1.377c-1.779 0-2.966.055-3.563.145.121-.493.195-1.357.195-2.577 0-1.28-.068-2.11-.179-2.479.432.121 1.589.174 3.516.174v-1.446h-.686l-1.251.156v-2.89c-1.2.021-1.986.066-2.35.15v-1.7c.295.064 1.071.103 2.313.103-.011-1.409-.059-2.229-.122-2.465l1.837.155c-.28.177-.417.561-.417 1.149v1.205c1.167.029 2.223.018 3.147-.022-.016-1.354-.042-2.181-.09-2.486l1.858.155c-.242.151-.379.538-.395 1.149l-.006 1.183c1.156-.021 1.86-.066 2.123-.124v1.7z" fill="#fff"/><path d="M327.121 107.005h.011c-.443 1.255-.876 2.148-1.299 2.686-.438.537-.75.806-.924.806h-4.15c-1.679 0-2.508-.806-2.508-2.427v-15.597l1.933.214c.031.055 0 .192-.095.421l-.138.324-.021 6.296c1.669-.959 3.189-1.997 4.583-3.117l1.711 1.687-1.152.246c-.992.698-2.687 1.678-5.121 2.918v6.439c0 .638.406.964 1.225.97l3.183.018c.323-.158.629-1.228.961-3.204.333.347.713.651 1.12.92.417.268.639.399.681.399m-10.644-.028c-2.165 1.298-4.102 2.595-5.85 3.886l-1.31-1.711c.581-.506.872-.869.872-1.117v-14.978l2.16.219c0 .224-.149.493-.437.777v4.706c2.49 0 3.952-.064 4.412-.18l-.026 1.807c-.507-.095-1.964-.143-4.386-.143l.024 7.628c1.526-.919 2.904-1.791 4.124-2.611l.417 1.716" fill="#fff"/><path d="M357.301 103.486l-1.573.921c-.259-.722-.698-1.369-1.304-1.949l1.556-.661c.577.784 1.009 1.345 1.321 1.689zm1.072 2.784h-.026c-.45-.108-2.271-.163-5.465-.163-3.279 0-5.064.055-5.355.163l.017-1.684c.459.095 1.953.143 4.482.143v-3.375c-2.143.032-3.374.095-3.68.19v-1.681c.306.09 1.537.155 3.68.169v-2.524c-2.297 0-3.648.068-4.071.179v-1.731c.344.129 1.98.185 4.958.185 2.973 0 4.647-.056 5.017-.185v1.731c-.481-.111-1.917-.179-4.293-.179l-.027 2.524c2.228-.024 3.506-.079 3.849-.159v1.661c-.306-.104-1.584-.164-3.822-.18l-.027 3.375c2.566 0 4.145-.048 4.763-.143v1.684zm-11.996 2.023h13.02v-14.285h-13.02v14.285zm14.989 2.585h-1.969v-1.075h-13.009v1.075h-1.97c.121-.566.19-3.651.19-9.261 0-5.601-.069-8.669-.19-9.182.544.116 3.369.171 8.475.171 5.294 0 8.115-.05 8.473-.155-.121.49-.19 3.549-.19 9.166 0 5.61.069 8.695.19 9.261z" fill="#fff"/><path d="M396.73 107.227c-.865.265-1.509.608-1.937 1.056-.491-1.133-1.499-3.069-3.03-5.835l1.547-.819c1.277 1.973 2.407 3.84 3.42 5.599zm-1.937-12.173c-.406-.116-1.843-.179-4.292-.179-2.44 0-3.844.063-4.187.179v-1.718c.343.111 1.752.163 4.208.163 2.444 0 3.865-.052 4.271-.163v1.718zm1.056 4.54c-.507-.119-2.091-.164-4.731-.164l.011 9.492c-.206 1.096-1.389 1.759-3.537 1.976-.27-.738-.561-1.406-.861-1.976.38.032.718.051 1.024.051 1.055 0 1.579-.154 1.579-.435v-9.108c-2.519 0-4.05.045-4.57.164l.018-1.7c.481.116 2.329.164 5.533.164 3.201 0 5.043-.048 5.534-.164v1.7zm-7.581 2.584l-.65.915c-.724 1.909-1.584 3.72-2.603 5.445-.618-.329-1.265-.548-1.954-.654 1.537-2.405 2.624-4.52 3.253-6.346l1.954.64zm-2.995-9.482l-2.45 6.505c.634.917 1.083 1.631 1.336 2.169.248.551.375 1.064.375 1.56 0 1.064-.2 1.815-.617 2.273-.412.456-1.22.853-2.413 1.175-.27-.73-.618-1.401-1.046-2.002.57 0 1.03-.024 1.389-.09.364-.063.602-.158.734-.252.132-.124.19-.329.19-.622 0-1.189-.475-2.514-1.425-3.971l1.715-5.201h-2.772v16.257h-1.821c.127-.345.179-3.33.179-8.953 0-5.53-.047-8.475-.147-8.847.48.119 1.594.182 3.315.182 1.753 0 2.899-.063 3.458-.182z" fill="#fff"/><path d="M431.995 104.554h.011c-.454-.124-1.632-.187-3.501-.187v4.79c-.206 1.093-1.135 1.759-2.745 1.973-.18-.796-.408-1.396-.682-1.799.274.031.518.039.734.039.829 0 1.241-.147 1.241-.448v-4.555c-1.79 0-2.883.063-3.274.187l.027-1.699c.427.092 1.515.15 3.247.15v-1.641l1.927-1.81h-3.474v-1.433c.465.113 1.362.171 2.672.171 1.303 0 2.238-.058 2.777-.171l.152 1.449c-.459.258-1.335.925-2.602 1.973v1.462c1.795 0 2.946-.058 3.49-.15v1.699zm-.227-8.18c-.422-.103-2.245-.162-5.47-.19-.639 1.501-1.283 2.713-1.933 3.654-.412-.453-.839-.8-1.304-1.041 1.431-1.757 2.461-4.149 3.099-7.142l1.943.413-1.235 2.858c2.999-.016 4.63-.074 4.9-.168v1.615zm-9.915-1.737l-1.601.408c-.253-.954-.586-1.878-1.019-2.771l1.479-.474c.401.811.786 1.764 1.141 2.837zm1.921.675v1.729c-.517-.132-1.7-.191-3.532-.191h-.201c-.016.702-.047 1.555-.106 2.556h3.184c-.158 5.72-.301 8.91-.375 9.575-.09.656-.908 1.162-2.444 1.515-.11-.694-.406-1.344-.892-1.973.496.079.898.134 1.209.134.322 0 .518-.055.58-.151.07-.095.138-.68.217-1.731.084-1.057.143-3.08.185-6.057l-1.705.026c-.169 2.201-.423 3.87-.729 5.027-.312 1.154-1.024 2.72-2.128 4.706-.406-.316-.919-.604-1.536-.893 1.346-2.321 2.175-4.229 2.491-5.733.313-1.499.476-3.834.497-7.001-.85.048-1.399.09-1.695.138v-1.703c.576.135 1.727.198 3.448.198 1.832 0 3.015-.063 3.532-.171zm-6.726-.585l-1.04 1.223c-.824-.769-1.775-1.5-2.846-2.198l1.319-1.325c1.003.752 1.865 1.512 2.567 2.3zm-.243 4.881l-1.299 1.425c-.713-.763-1.637-1.515-2.756-2.237l1.04-1.29c1.167.717 2.165 1.412 3.015 2.102zm-.417 3.739l-1.954 7.317-1.706-1.073c.893-2.471 1.595-4.852 2.124-7.135l1.536.89z" fill="#fff"/><path d="M464.027 106.32c-.105 1.807-.375 2.759-.807 2.869h-2.708c-.571 0-.866-.292-.866-.89l-.022-3.138c1.68-.798 3.523-1.571 5.539-2.316l-1.553-1.721c-.876.801-2.212 1.653-3.986 2.561v-3.854l.259-.603c0-.095-.628-.183-1.911-.285v9.177c0 1.674.913 2.517 2.724 2.517l3.331.023c.223 0 .524-.224.914-.688.385-.448.74-1.236 1.056-2.349v.026c-.998-.464-1.652-.906-1.97-1.328m-2.887-13.316l.728-.553-2.455-.665c-.459 2.717-2.255 5.273-5.386 7.644.729.268 1.31.611 1.727 1.041 2.007-1.613 3.558-3.631 4.646-6.06 1.262 2.513 2.92 4.542 4.916 6.06.286-.327.872-.838 1.758-1.542-2.45-1.309-4.425-3.285-5.934-5.925m-8.01 11.829l.026-2.4c.814-.031 1.68-.031 2.598 0v-1.316h-2.598v-2.348l.248-.638c0-.076-.675-.174-2.027-.281.068.245.111 1.338.158 3.29h-1.863c.592-1.604 1.246-3.269 1.979-4.99h.154c2.523 0 4.065.063 4.62.174v-1.736c-.518.121-1.901.185-4.177.185.46-1.02.882-1.852 1.305-2.519l-2.102-.896-1.162 3.38c-1.567 0-2.565-.037-2.988-.15v1.712c.264-.07 1.077-.115 2.455-.15-1.23 3.314-2.043 4.967-2.455 4.967l.412 1.728c.977-.192 2.249-.332 3.822-.392v2.645c-1.494.246-2.973.448-4.45.577l.628 1.942c.871-.208 2.149-.492 3.849-.838-.053 2.469-.111 3.826-.185 4.069h1.779v-4.392l3.269-.572v-1.765c-1.51.364-2.598.596-3.295.717" fill="#fff"/><path d="M177.408 122.686c-.358-.881-.737-1.653-1.134-2.314l.776-.396c.437.75.835 1.52 1.193 2.313l-.716.397h5.965v.859h-11.274v3.174c0 2.205-.159 3.924-.477 5.158-.279 1.235-.855 2.489-1.73 3.769-.08-.044-.199-.155-.358-.33-.199-.133-.338-.243-.417-.33.835-1.103 1.391-2.226 1.67-3.372.278-1.102.418-2.755.418-4.959v-3.967h6.084zm9.209.396h11.93v.992c-2.784 3.219-5.905 5.973-9.365 8.266l.06.066c.874 1.058 2.246 1.608 4.115 1.653 1.989.133 4.215.133 6.681 0-.04.176-.119.44-.238.793l-.06.199h-3.937c-.954 0-1.789-.023-2.505-.066-2.228-.045-3.858-.751-4.891-2.116-.16-.176-.379-.176-.656 0l-.299.33c-.677.661-1.173 1.234-1.491 1.719l-.477-.859 1.431-1.587c.478-.484.855-.728 1.134-.728h.178l.18.067c3.658-2.513 6.68-5.135 9.067-7.868h-10.857v-.86zm6.442-.132c-.318-.705-.756-1.543-1.312-2.513l.775-.397.299.53c.516.881.874 1.521 1.074 1.917l-.836.463zm9.316-.463h5.667v.859h-3.4v1.124c-.04.662-.06 1.191-.06 1.588h2.803c0 2.379-.059 4.739-.179 7.075-.039 1.41-.636 2.116-1.789 2.116-.239.043-.656.066-1.252.066-.041-.353-.1-.662-.18-.926h.597c.278.044.516.066.716.066.755.044 1.153-.441 1.193-1.454.079-2.468.119-4.496.119-6.083h-2.088c0 4.056-.617 6.964-1.849 8.728-.199-.222-.418-.419-.656-.596 1.193-1.497 1.79-4.363 1.79-8.595 0-.352.019-.881.059-1.587v-1.521h-1.491v-.859zm2.982-.066c-.238-.75-.497-1.476-.775-2.182l.716-.331c.317.706.596 1.455.835 2.249l-.776.264zm4.772.198c-.676 1.323-1.273 2.292-1.789 2.91-.04-.088-.14-.176-.298-.265-.12-.132-.219-.22-.299-.263 1.113-1.366 2.008-3.064 2.685-5.092l.775.264c-.04.133-.119.309-.239.529-.159.486-.319.838-.477 1.058h5.786v.859h-6.144zm3.162 6.81c.993-.661 1.829-1.234 2.505-1.719l.477.727c-.358.265-.935.64-1.73 1.125-.438.264-.775.485-1.014.662.478 1.543 1.511 2.865 3.102 3.967-.04.088-.14.22-.298.396-.119.176-.219.307-.298.397-2.467-1.851-3.858-4.849-4.176-8.993-.636.133-1.273.222-1.909.265v7.867c.438-.177 1.134-.463 2.088-.859l.597-.33v.396c.039.222.059.397.059.529-1.034.308-1.948.705-2.744 1.19-.119.044-.318.155-.596.331l-.06.066-.477-.728c.278-.264.397-.618.358-1.058v-8.132c2.147-.221 4.255-.596 6.323-1.125l.298.859-3.221.596c.158 1.366.397 2.557.716 3.57zm5.33-1.058h7.098v-.925h-7.098v.925zm9.671.728h13.003v.793h-6.084v1.918h5.309v.727h-5.309v1.917h6.681v.793h-14.197v-.793h6.681v-1.917h-5.309v-.727h5.309v-1.918h-6.084v-.793zm1.133-7.538h3.34c.239-.617.418-1.168.537-1.653l.835.132c-.04.178-.119.42-.239.728-.119.353-.218.618-.298.793h6.562v5.885h-10.737v-5.885zm.835 2.513h9.067v-1.785h-9.067v1.785zm0 2.578h9.067v-1.785h-9.067v1.785zm20.188 2.183c-1.393 1.455-3.361 2.668-5.906 3.637l-.477-.859c2.465-.75 4.454-1.895 5.965-3.439-.159-.352-.358-.661-.596-.925-1.551 1.058-3.242 1.874-5.071 2.446-.04-.088-.139-.242-.298-.462l-.179-.397c2.545-.705 4.653-1.785 6.324-3.241h-4.415v-.792h10.379v.792h-4.831c-.399.397-.836.772-1.313 1.125.517.661.994 1.454 1.432 2.38 1.789-.881 3.32-1.72 4.593-2.512l.477.727c-.875.529-1.829 1.058-2.863 1.587.716 2.38 2.167 3.99 4.354 4.826l-.537.728c-2.227-.969-3.718-2.688-4.473-5.157-.398.177-.816.374-1.253.595.278.882.418 1.763.418 2.645.039 2.027-.677 3.042-2.148 3.042h-1.789c-.04-.133-.08-.331-.119-.596-.08-.132-.12-.243-.12-.33.278 0 .636.022 1.074.066h.775c1.074.088 1.59-.618 1.551-2.116 0-.572-.059-1.124-.179-1.653-1.67 1.94-3.936 3.394-6.8 4.364-.119-.265-.278-.552-.477-.86 2.863-.793 5.209-2.248 7.039-4.363l-.179-.463c-.12-.352-.239-.617-.358-.793zm.238-7.737c-.159-.396-.298-.705-.417-.925l.775-.33c.159.264.358.728.597 1.388.119.264.198.463.238.595l-.656.264h6.442v2.446h-.834v-1.653h-11.751v1.653h-.776v-2.446h6.8c-.08-.22-.219-.551-.418-.992zm11.943 1.918v-2.976h.835v2.976h3.4c0 3.394-.08 6.723-.239 9.984-.04 1.542-.696 2.335-1.968 2.38h-1.492c0-.309-.04-.64-.119-.992h1.432c.914.088 1.372-.397 1.372-1.455v-.859c.119-3.746.179-6.48.179-8.199h-2.625v.926c-.08 5.025-.954 8.662-2.624 10.909-.239-.221-.498-.396-.776-.529 1.67-2.249 2.525-5.73 2.565-10.447v-.859h-2.088v-.859h2.148zm6.084-.793h5.309v13.158h-.835v-1.587h-3.639v1.587h-.835v-13.158zm.835 10.711h3.639v-9.852h-3.639v9.852zm7.182-6.479h2.863v-1.521h-1.849v-2.38h-1.73v-.728h1.73v-1.785h.776v1.785h2.922v-1.785h.776v1.785h1.849v.728h-1.849v2.38h-1.849v1.521h2.863v3.703h-2.863v1.785h3.4v.727h-3.4v3.108h-.776v-3.108h-3.579v-.727h3.579v-1.785h-2.863v-3.703zm.775 2.975h2.088v-2.248h-2.088v2.248zm1.015-5.224h2.923v-1.653h-2.923v1.653zm1.849 5.224h2.088v-2.248h-2.088v2.248zm5.189-5.687c.04-.792.06-2.005.06-3.637h.835c-.04 1.367-.059 2.579-.059 3.637h3.22c0 2.909-.08 5.929-.238 9.059 0 1.719-.696 2.579-2.088 2.579h-1.372l-.119-.596c-.04-.132-.06-.243-.06-.33h.716c.318.044.576.066.775.066.875.044 1.332-.529 1.373-1.719.039-1.101.098-3.196.178-6.282.039-.926.06-1.587.06-1.984h-2.506c0 .309-.02.706-.059 1.191 0 .574-.021.992-.06 1.256-.08 3.88-1.014 6.811-2.803 8.794l-.656-.595c1.749-1.895 2.644-4.562 2.684-8 .039-.264.06-.705.06-1.322.039-.573.059-1.014.059-1.323h-1.909v-.793h1.909zm7.295-3.305v4.959h4.236v.925h-4.236v7.538c1.153-.617 1.273-.683.358-.199.915-.484 2.167-1.124 3.759-1.917v1.058c-1.751.751-3.004 1.344-3.759 1.785-.358.175-.676.396-.954.661l-.656-.859c.277-.353.418-.728.418-1.125v-12.826h.834zm5.548-.463h.835v7.207c1.988-1.454 3.659-3.107 5.011-4.958l.715.595c-1.75 2.16-3.659 3.99-5.726 5.488v4.826c0 .881.457 1.299 1.372 1.256h2.088c.874.043 1.391-.353 1.551-1.19 0-.133.019-.353.059-.662.04-.176.099-.728.179-1.653.119.044.299.089.537.132.12.089.218.132.298.132-.04.926-.159 1.764-.358 2.513-.238 1.058-.915 1.609-2.027 1.653h-2.565c-1.353.044-2.009-.618-1.969-1.983v-13.356zm10.683 5.355h4.176l.417-2.116h-6.383v-.793h8.531c.317-.484.695-1.101 1.133-1.851l.358-.595.775.463c-.159.221-.398.573-.716 1.058l-.656.925h4.772v.793h-6.919l-.477 2.116h5.666v10.514h-.775v-1.059h-9.067v1.059h-.835v-10.514zm.835 2.976h9.067v-2.182h-9.067v2.182zm0 2.909h9.067v-2.183h-9.067v2.183zm0 2.776h9.067v-2.05h-9.067v2.05zm2.267-11.637c-.518-.75-.995-1.41-1.432-1.984l.656-.462c.239.308.557.728.955 1.257.238.308.397.507.477.595l-.656.595zm19.17-.529c-.119-.573-.258-1.146-.416-1.72l.834-.198c.12.573.239 1.213.358 1.917h5.667v.793h-11.93v4.761c0 2.161-.12 3.791-.358 4.893-.2 1.102-.657 2.269-1.372 3.504l-.657-.595c.676-1.147 1.094-2.204 1.253-3.174.199-.926.299-2.513.299-4.761v-5.422h6.322zm3.162 1.388h.775v1.455h2.327v.793h-2.327v2.711h-2.983v1.851h4.475v2.711c.079 1.147-.438 1.742-1.552 1.785h-1.371l-.179-.728h1.372c.675.045.994-.33.954-1.124v-1.851h-3.699v4.959h-.775v-4.959h-3.638v3.967h-.776v-4.761h4.414v-1.851h-2.982v-2.711h-2.029v-.793h2.029v-1.455h.775v1.455h5.19v-1.455zm-5.19 4.232h5.19v-1.984h-5.19v1.984zm24.83-2.313l-.418.792c-2.823-1.146-5.05-2.776-6.68-4.892-1.75 2.072-3.996 3.791-6.741 5.158-.119-.265-.297-.53-.537-.793 3.301-1.588 5.687-3.439 7.158-5.555l.895.199-.119.199-.179.198c1.789 2.161 3.996 3.726 6.621 4.696zm-11.87.264h9.186v.859h-4.056v2.711h5.368v.793h-5.368v4.496h6.322v.86h-13.48v-.86h6.323v-4.496h-5.369v-.793h5.369v-2.711h-4.295v-.859zm1.67 8.132c-.477-.661-1.133-1.454-1.969-2.38l.657-.528c.437.485 1.053 1.19 1.849 2.115-.08-.043-.04.023.119.199l-.656.595zm7.993-2.38c-.636.793-1.352 1.587-2.147 2.38l-.597-.595c.716-.705 1.411-1.476 2.088-2.313l.656.528zm7.895-10.909h.775v5.355h1.015v.793h-3.698v2.38h2.803v6.81h-.775v-6.083h-2.028c0 2.469-.359 4.54-1.075 6.216-.238-.177-.476-.33-.716-.463.438-.97.716-1.918.835-2.843.12-.881.18-2.248.18-4.099v-7.604h.776v4.892h1.908v-5.355zm6.68 9.72h.777v1.851h3.399v.793h-3.399v3.174h-.777v-3.174h-5.009v-.793h5.009v-1.851zm3.282-8.266v7.472h-4.057c-.517.97-1.371 1.851-2.565 2.645-.159-.221-.338-.44-.537-.662 1.035-.617 1.791-1.277 2.267-1.983h-2.564v-7.472h2.683l.359-1.388c.039-.133.059-.242.059-.33l.775.132-.178.793c-.119.353-.2.619-.24.793h3.998zm-6.681 3.372h2.624v-2.579h-2.624v2.579zm2.147 3.306c.278-.662.437-1.521.477-2.579h-2.624v2.579h2.147zm1.193-2.579c0 .97-.119 1.829-.358 2.579h2.983v-2.579h-2.625zm0-.728h2.625v-2.579h-2.625v2.579zm8.421.595c-.557 1.147-1.173 2.183-1.849 3.108l-.179-.463-.179-.462c1.51-2.16 2.723-4.739 3.638-7.737l.776.264c-.398 1.235-.856 2.425-1.372 3.571v11.901h-.835v-10.183zm2.088.067l3.519-.397c-.04-1.498-.099-3.262-.179-5.289h.835c0 .396.02.97.06 1.72 0 1.586.039 2.733.119 3.437l5.548-.661.119.859-5.607.662c.198 2.821.675 5.025 1.431 6.612.597 1.366 1.313 2.05 2.148 2.05.516.043.894-.309 1.134-1.058.039-.133.079-.308.119-.529.119-.705.198-1.234.238-1.587.039.044.119.089.238.132l.537.199c-.08.838-.199 1.499-.357 1.984-.319 1.19-.936 1.784-1.85 1.784-1.192 0-2.187-.837-2.982-2.512-.716-1.587-1.214-3.901-1.491-6.942l-3.46.396-.119-.859zm8.351-1.852c-.557-.572-1.392-1.388-2.506-2.446l.537-.595c1.113 1.015 1.969 1.807 2.565 2.38l-.596.661zm4.127 3.175h1.908v-4.762h-2.027v-.792h4.771v.792h-1.968v4.762h1.909v.728h-1.909v4.958c.715-.132 1.372-.307 1.968-.529 0 .089.02.244.06.463v.463c-.278.088-.716.198-1.313.33-1.431.308-2.584.573-3.458.793l-.18-.793c.318-.088.855-.22 1.611-.397.239-.043.417-.088.536-.132v-5.157h-1.908v-.728zm5.309 3.9h3.758v-2.313h-3.461v-7.737h7.696v7.737h-3.46v2.313h3.817v.794h-3.817v2.644h4.414v.793h-9.842v-.793h4.653v-2.644h-3.758v-.794zm1.073-6.545h2.685v-2.777h-2.685v2.777zm0 3.438h2.685v-2.712h-2.685v2.712zm3.46-3.438h2.685v-2.777h-2.685v2.777zm0 3.438h2.685v-2.712h-2.685v2.712zm6.514-6.613h5.964v.793h-.955v9.588c.121 0 .319-.044.597-.133.358-.043.616-.088.775-.132v.793c-.159 0-.377.045-.656.132-.318.045-.557.089-.716.133v3.372h-.775v-3.241l-2.684.596c-.636.132-1.133.243-1.491.33l-.179-.926c.199 0 .457-.043.775-.132.159-.044.278-.066.358-.066v-10.315h-1.013v-.793zm1.789 3.571h2.445v-2.777h-2.445v2.777zm0 3.504h2.445v-2.777h-2.445v2.777zm0 3.901c.795-.132.894-.154.298-.066.596-.088 1.312-.221 2.147-.396v-2.646h-2.445v3.108zm4.116-4.429h3.518c.04-.441.06-.926.06-1.455v-1.917h-3.102v-.86h3.818c.716-1.234 1.351-2.38 1.909-3.438l.716.396c-.398.794-.975 1.808-1.73 3.042h2.624v.86h-3.459v3.372h3.996v.792h-3.936c.596 2.954 1.947 5.048 4.056 6.281-.081.088-.179.22-.298.397-.119.176-.219.307-.299.396-2.148-1.544-3.44-3.57-3.877-6.083-.358 2.513-1.631 4.584-3.817 6.216l-.299-.33c-.119-.178-.219-.309-.298-.397 2.346-1.587 3.638-3.746 3.877-6.48h-3.459v-.792zm2.564-4.629c-.437-.793-.934-1.631-1.491-2.513l.656-.463c.239.353.755 1.191 1.551 2.513l-.716.463zm22.203 2.842c-.159.222-.337.53-.537.926-2.943-1.587-5.13-3.438-6.561-5.554-1.591 2.116-3.818 4.033-6.681 5.753l-.238-.463c-.119-.176-.219-.308-.298-.397 3.102-1.675 5.487-3.79 7.157-6.347l.896.199c-.12.177-.24.375-.359.595 1.67 2.292 3.877 4.057 6.621 5.289zm-12.228 2.909h10.081v6.877h-.835v-1.058h-8.411v1.058h-.835v-6.877zm.835 4.959h8.411v-4.099h-8.411v4.099zm.06-8.199h8.351v.859h-8.351v-.859zm13.744 1.587v-5.554h.835v4.695h4.414v-6.216h.775v6.216h4.474v-4.695h.775v5.554h-5.249v6.81h4.891v-4.629h.776v6.083h-.776v-.595h-11.333v-5.488h.835v4.629h4.832v-6.81h-5.249zm13.687 1.322h5.309v7.208h-.776v-1.058h-3.758v1.058h-.775v-7.208zm.775 5.289h3.758v-4.43h-3.758v4.43zm.716-13.158h9.901v5.687h-9.901v-5.687zm.776 4.826h8.351v-3.967h-8.351v3.967zm5.249 3.042h5.368v7.208h-.775v-1.058h-3.758v1.058h-.835v-7.208zm.835 5.289h3.758v-4.43h-3.758v4.43z" fill="#fff"/></g></g></svg>