<svg width="149" height="149" viewBox="0 0 149 149" xmlns="http://www.w3.org/2000/svg" xmlns:sketch="http://www.bohemiancoding.com/sketch/ns"><title>Icon</title><desc>Created with Sketch.</desc><path d="M146.68 71.311c-1.126 0-2.063.801-2.274 1.865h-18.292c0-13.884-5.568-26.463-14.585-35.643l13.665-13.665-.644-.643-13.665 13.665c-9.179-9.018-21.758-14.587-35.642-14.587v-17.711c1.064-.211 1.864-1.148 1.864-2.273 0-1.281-1.037-2.319-2.318-2.319-1.281 0-2.319 1.038-2.319 2.319 0 1.125.802 2.062 1.865 2.273v17.734c-13.753.242-26.176 5.93-35.193 15.014-8.725-8.724-14.457-14.456-14.457-14.456l-.642.642 14.472 14.472c-8.754 9.137-14.143 21.525-14.143 35.178h-19.781c-.211-1.064-1.147-1.865-2.273-1.865-1.28 0-2.318 1.037-2.318 2.318 0 1.281 1.038 2.319 2.318 2.319 1.125 0 2.062-.801 2.273-1.863h19.804c.238 13.522 5.744 25.755 14.563 34.733-9.3 9.3-15.483 15.481-15.483 15.481l.645.645s6.182-6.183 15.482-15.482c8.977 8.819 21.21 14.325 34.733 14.562v20.383c-1.063.211-1.865 1.147-1.865 2.273 0 1.281 1.038 2.319 2.319 2.319s2.318-1.038 2.318-2.319c0-1.126-.8-2.062-1.864-2.273v-20.36c13.653 0 26.04-5.388 35.177-14.143l14.474 14.472.64-.643s-5.729-5.73-14.455-14.456c9.083-9.018 14.771-21.439 15.012-35.192h18.315c.212 1.062 1.148 1.863 2.274 1.863 1.281 0 2.318-1.038 2.318-2.319s-1.037-2.318-2.318-2.318zm-22.565 1.865h-24.383c-.345-6.422-3.117-12.198-7.414-16.431l17.781-17.782c8.661 8.823 14.016 20.902 14.016 34.213zm-49.326 24.344c-12.673 0-22.981-10.31-22.981-22.981 0-12.673 10.308-22.982 22.981-22.982 12.672 0 22.982 10.309 22.982 22.982 0 12.671-10.31 22.981-22.982 22.981zm34.666-59.2c-5.127 5.128-11.233 11.234-17.796 17.796-4.341-3.977-10.092-6.435-16.416-6.548v-25.264c13.311 0 25.39 5.355 34.212 14.016zm-35.12-13.993v25.241c-6.325.113-12.076 2.571-16.417 6.548l-17.346-17.345c8.66-8.727 20.583-14.201 33.763-14.444zm-34.39 15.101l17.315 17.315c-4.297 4.234-7.07 10.01-7.415 16.433h-23.474c0-13.081 5.176-24.968 13.574-33.748zm-13.551 34.657h23.424l-.011.454c0 6.504 2.487 12.425 6.56 16.87l-15.979 15.979c-8.463-8.621-13.756-20.353-13.994-33.303zm14.638 33.947c4.725-4.726 10.165-10.166 15.964-15.964 4.431 4.497 10.555 7.318 17.339 7.439v22.517c-12.95-.238-24.683-5.529-33.303-13.992zm34.211 14.015v-22.54c6.784-.121 12.907-2.942 17.339-7.44 6 6 11.606 11.606 16.408 16.407-8.78 8.399-20.667 13.573-33.747 13.573zm34.406-14.2l-16.439-16.438c4.073-4.446 6.561-10.367 6.561-16.87l-.012-.454h24.333c-.242 13.179-5.716 25.101-14.443 33.762z" sketch:type="MSShapeGroup" fill="#fff"/></svg>