<?xml version="1.0" encoding="utf-8"?>
<!-- Generator: Adobe Illustrator 16.0.0, SVG Export Plug-In . SVG Version: 6.00 Build 0)  -->
<!DOCTYPE svg PUBLIC "-//W3C//DTD SVG 1.1//EN" "http://www.w3.org/Graphics/SVG/1.1/DTD/svg11.dtd">
<svg version="1.1" id="图层_1" xmlns="http://www.w3.org/2000/svg" xmlns:xlink="http://www.w3.org/1999/xlink" x="0px" y="0px"
	 width="640px" height="448.477px" viewBox="0 0 640 448.477" enable-background="new 0 0 640 448.477" xml:space="preserve">
<path fill="#FFFFFF" d="M36.814,293.267c-1.961-1.874-3.979-3.689-6.048-5.447l2.289-2.988c2.289,1.758,4.414,3.516,6.375,5.271
	L36.814,293.267z M38.94,299.242c-1.528,5.744-2.779,10.838-3.76,15.293l-3.76-1.229c1.198-4.334,2.506-9.492,3.923-15.469
	c0.544,0.117,1.361,0.47,2.452,1.055C38.339,299.01,38.72,299.128,38.94,299.242L38.94,299.242z M37.959,281.664
	c-0.547-0.467-1.364-1.229-2.452-2.283c-1.528-1.521-2.726-2.639-3.597-3.342l2.289-2.812c1.852,1.406,3.977,3.226,6.376,5.449
	L37.959,281.664z M44.171,284.828c-0.437,0.588-1.201,1.468-2.289,2.639c-0.11-0.116-0.22-0.232-0.327-0.354
	c-0.764-1.17-1.471-2.049-2.125-2.637c3.487-3.396,6.156-7.439,8.01-12.129l3.923,0.527c-0.546,1.291-1.144,2.461-1.798,3.516
	h19.944v3.34H47.767c-0.764,1.406-1.635,2.697-2.616,3.867h21.743c-0.11,0.821-0.163,2.579-0.163,5.273
	c-0.11,2.228-0.164,3.983-0.164,5.271h3.76v3.342h-3.76c0,0.938-0.056,2.283-0.164,4.043c0,1.522,0,2.637,0,3.34h2.942v3.34h-3.106
	c-0.22,4.219-2.398,6.268-6.539,6.152c-1.745,0-3.706,0-5.885,0c-0.11-0.354-0.273-0.881-0.49-1.582
	c-0.22-0.822-0.383-1.406-0.49-1.76c1.961,0,3.867,0,5.722,0c2.615,0.115,3.977-0.82,4.087-2.812H42.209l1.144-10.724h-3.596v-3.34
	h3.923l0.981-10.021C44.552,284.244,44.388,284.478,44.171,284.828L44.171,284.828z M62.807,304.867
	c0.107-1.404,0.164-3.865,0.164-7.383H46.787l-0.654,7.383H62.807z M48.094,286.763l-0.817,7.383h15.857c0-2.928,0-5.389,0-7.383
	H48.094z M56.268,304.517c-0.546-0.467-1.308-1.17-2.289-2.107c-1.091-0.819-1.908-1.465-2.452-1.936l1.798-2.107
	c1.308,0.938,2.942,2.228,4.904,3.867L56.268,304.517z M56.595,293.617c-0.654-0.703-1.691-1.582-3.106-2.637
	c-0.654-0.585-1.201-1.055-1.635-1.406l1.961-2.107c0.981,0.703,2.396,1.758,4.25,3.164c-0.22-0.233,0-0.059,0.654,0.525
	L56.595,293.617z M75.038,312.251v-3.867h15.367v-35.156h4.25v12.656h16.184v4.219H94.655v18.281h19.291v3.867H75.038z
	 M125.676,301.88v7.207h31.878v3.516h-35.638v-37.266h35.147v3.689h-31.387v7.031h27.791v15.82L125.676,301.88L125.676,301.88z
	 M149.544,289.751h-23.868v8.438h23.868V289.751z M166.025,279.38v-3.867h32.695v3.867h-14.713c-0.22,3.398-0.49,6.504-0.817,9.314
	h18.473v3.867h-19.291c-1.635,9.376-7.249,16.76-16.838,22.148l-2.779-3.34c8.935-5.039,14.113-11.31,15.53-18.811h-15.203v-3.865
	h16.021c0.327-2.813,0.598-5.918,0.817-9.316L166.025,279.38L166.025,279.38z M188.748,313.306c-4.143,0.115-6.158-1.936-6.048-6.15
	v-14.064h3.923v13.186c-0.22,2.344,0.925,3.453,3.433,3.34h3.923c2.289,0,3.487-1.057,3.597-3.164
	c0.107-0.703,0.217-1.875,0.327-3.518c0.107-0.818,0.164-1.404,0.164-1.758c0.327,0.118,0.817,0.294,1.471,0.525
	c0.544,0.236,1.361,0.527,2.452,0.879c-0.327,2.813-0.6,4.865-0.817,6.152c-0.546,3.164-2.672,4.688-6.375,4.57L188.748,313.306
	L188.748,313.306z M206.701,293.445v-2.285h3.76v-1.582h2.942v1.582h7.683v-1.582h2.943v1.582h3.27v2.285h-3.27v4.043h-5.231v2.107
	h7.03v6.682h-7.03v2.283h8.011v2.285h-8.011v3.867h-3.106v-3.867h-8.991v-2.285h8.991v-2.283h-7.029v-6.682h7.029v-2.107h-5.231
	v-4.043H206.701z M209.97,276.57v-2.461h32.368v2.461h-14.386v2.107h16.838v7.91h-3.433v-5.273h-13.405v6.855h-3.433v-6.855h-13.405
	v5.098h-3.433v-7.733h16.838v-2.108H209.97L209.97,276.57z M211.442,301.531v2.812h4.25v-2.812H211.442z M213.24,284.828v-1.756
	h9.155v1.758L213.24,284.828L213.24,284.828z M213.24,288.345v-1.758h9.155v1.758H213.24z M213.403,293.445v2.107h7.683v-2.107
	H213.403z M223.212,301.531h-4.414v2.812h4.414V301.531z M231.876,306.277c-0.437,2.812-1.527,5.682-3.27,8.611
	c-0.546-0.354-1.308-0.82-2.289-1.404c-0.437-0.119-0.71-0.236-0.817-0.354c2.506-2.697,3.65-6.795,3.433-12.307V290.63h14.713
	v18.982c0.107,2.928-1.254,4.453-4.087,4.57c-0.437,0-1.144,0.059-2.125,0.176c-1.09,0-1.854,0-2.289,0
	c-0.109-0.352-0.219-0.879-0.327-1.582c-0.22-0.82-0.383-1.406-0.49-1.758c0.434,0,1.088,0.059,1.961,0.176c0.981,0,1.635,0,1.961,0
	c1.416,0,2.125-0.646,2.125-1.934v-2.988L231.876,306.277L231.876,306.277z M230.242,284.828v-1.756h8.991v1.758L230.242,284.828
	L230.242,284.828z M230.242,288.345v-1.758h8.991v1.758H230.242z M232.039,293.445v3.689h8.337v-3.689H232.039z M232.039,301.177
	c0,0.938,0,1.758,0,2.461h8.337v-3.689h-8.337V301.177z M267.934,286.41v-12.301h31.878v12.303h-15.53v1.935h8.991v2.812
	c2.069-1.17,4.141-2.461,6.212-3.867l3.27,3.164c-0.546,0.236-1.308,0.646-2.289,1.23c-0.546,0.471-1.798,1.23-3.76,2.285h6.866
	v3.691h-13.896c-1.417,0.703-2.942,1.406-4.577,2.107h14.386v14.943h-5.231v-1.406h-18.473v1.406h-5.231v-9.492l-5.231,1.582
	c-0.327-1.406-0.764-2.93-1.308-4.568c5.992-1.522,11.116-3.048,15.367-4.57h-15.04v-3.691h14.713v-2.109h-10.789v-3.517h10.789
	v-1.935L267.934,286.41L267.934,286.41z M273.329,277.449v1.582h21.089v-1.582H273.329z M273.329,281.664v1.76h21.089v-1.76H273.329
	z M294.254,303.113h-17.656c-0.11,0.116-0.22,0.176-0.327,0.176c-0.22,0.117-0.383,0.176-0.491,0.176v1.758h18.473L294.254,303.113
	L294.254,303.113z M275.781,308.207v1.76h18.473v-1.76H275.781z M287.878,293.97c0.544-0.232,1.415-0.703,2.616-1.406
	c0.544-0.352,0.981-0.585,1.308-0.701h-7.52v2.107H287.878z M311.552,314.712V293.97c-0.765,1.758-1.581,3.398-2.452,4.922
	c-0.11-0.818-0.327-1.99-0.654-3.516c-0.22-1.76-0.437-3.104-0.654-4.045c2.396-4.803,4.357-11.014,5.885-18.633l4.741,1.23
	c-0.221,1.291-0.711,3.225-1.473,5.801c-0.222,0.821-0.385,1.467-0.49,1.934v33.049H311.552z M319.236,314.712v-40.256h12.75v15.117
	h-8.01v3.691h6.865v4.747h-6.865v3.69h7.355v4.746h-7.355v8.263L319.236,314.712L319.236,314.712z M323.977,279.38v5.447h3.76
	v-5.447H323.977z M348.008,309.789c-0.766,1.172-1.637,2.752-2.615,4.746c-2.617-1.522-4.742-3.049-6.377-4.568
	c-1.961,1.758-4.414,3.455-7.355,5.098c-0.221-0.352-0.65-1.055-1.309-2.107c-0.654-1.174-1.199-2.053-1.635-2.637
	c3.051-1.057,5.395-2.285,7.029-3.691c-1.527-2.225-2.779-5.213-3.762-8.965l2.451-1.23h-2.613v-4.746h14.387v4.57
	c-0.98,4.337-2.346,7.794-4.088,10.371C343.758,307.916,345.719,308.971,348.008,309.789L348.008,309.789z M333.621,289.402v-4.924
	h7.521v-5.098h-7.521v-4.746h12.264v14.768H333.621z M339.016,302.935c0.98-1.758,1.742-3.925,2.289-6.504h-5.066
	C336.891,299.01,337.816,301.177,339.016,302.935L339.016,302.935z M354.025,281.841v-5.1h15.205l-1.146-3.689l6.377-0.525
	c0.104,0.234,0.271,0.764,0.49,1.582c0.217,1.172,0.434,2.051,0.65,2.637h14.062v5.098h-10.953l5.229,1.23
	c-0.764,1.172-1.635,2.695-2.613,4.568h10.137v4.922h-16.512v3.867h14.713v4.922h-14.713v5.803c0.326,4.686-1.691,7.029-6.051,7.029
	c-1.744,0.115-3.488,0.178-5.23,0.178c-0.219-1.76-0.6-3.518-1.145-5.273c1.635,0.117,3.051,0.176,4.252,0.176
	c1.852,0.118,2.723-0.879,2.613-2.988v-4.922h-6.703l3.271,3.691c-3.16,2.578-6.758,5.213-10.789,7.91
	c0-0.118-0.057-0.236-0.162-0.354c-1.092-1.992-2.02-3.34-2.779-4.043c4.141-2.693,7.463-5.098,9.971-7.207h-8.336v-4.922h15.529
	v-3.867h-17.328v-4.922h10.463l-2.615-4.568l5.066-1.23L354.025,281.841L354.025,281.841z M365.307,281.841
	c0.217,0.47,0.598,1.113,1.145,1.936c1.088,1.758,1.854,3.047,2.287,3.865h6.377c0.438-0.703,1.033-1.697,1.797-2.986
	c0.766-1.289,1.312-2.227,1.639-2.813L365.307,281.841L365.307,281.841z M388.029,312.781c-0.326-0.236-0.814-0.588-1.471-1.057
	c-4.145-2.693-7.25-4.688-9.318-5.979l3.105-4.219c1.635,0.939,4.141,2.58,7.52,4.922c1.416,0.939,2.453,1.644,3.107,2.109
	L388.029,312.781z M396,296.957v-5.447h17.166v-4.396l10.785-6.854h-24.684v-5.449h33.021v6.854l-13.242,8.264v1.582h16.512v5.447
	h-16.512v9.846c0.217,4.568-1.797,6.913-6.049,7.029c-0.766,0.115-2.02,0.178-3.762,0.178c-1.744,0.113-3,0.176-3.76,0.176
	c-0.328-2.346-0.711-4.337-1.145-5.979c1.088,0.119,2.939,0.178,5.559,0.178c2.395,0.234,3.486-0.938,3.27-3.518v-7.91H396
	L396,296.957z M443.379,314.712V293.97c-0.768,1.758-1.582,3.398-2.453,4.922c-0.109-0.818-0.326-1.99-0.654-3.516
	c-0.219-1.76-0.436-3.104-0.652-4.045c2.396-4.803,4.357-11.014,5.887-18.633l4.738,1.23c-0.219,1.291-0.709,3.225-1.471,5.801
	c-0.221,0.821-0.383,1.467-0.49,1.934v33.049H443.379z M451.062,314.712v-40.256h12.75v15.117h-8.01v3.691h6.865v4.747h-6.865v3.69
	h7.354v4.746h-7.354v8.263L451.062,314.712L451.062,314.712z M455.803,279.38v5.447h3.76v-5.447H455.803z M479.834,309.789
	c-0.768,1.172-1.639,2.752-2.615,4.746c-2.617-1.522-4.742-3.049-6.377-4.568c-1.961,1.758-4.414,3.455-7.355,5.098
	c-0.221-0.352-0.65-1.055-1.309-2.107c-0.654-1.174-1.199-2.053-1.635-2.637c3.051-1.057,5.395-2.285,7.027-3.691
	c-1.525-2.225-2.777-5.213-3.76-8.965l2.451-1.23h-2.615v-4.746h14.387v4.57c-0.979,4.337-2.344,7.794-4.086,10.371
	C475.584,307.916,477.545,308.971,479.834,309.789L479.834,309.789z M465.447,289.402v-4.924h7.521v-5.098h-7.521v-4.746h12.264
	v14.768H465.447z M470.842,302.935c0.979-1.758,1.742-3.925,2.289-6.504h-5.068C468.717,299.01,469.643,301.177,470.842,302.935
	L470.842,302.935z M484.381,281.492v-4.746h2.289v-3.867h4.902v3.867h6.211v-3.867h5.068v3.867h2.125v4.746h-2.125v18.279h2.779
	v4.043c0.543-2.343,0.814-5.917,0.814-10.723v-19.16h15.365v35.332c0,3.046-1.307,4.628-3.922,4.746c-0.547,0-1.473,0-2.779,0
	c-1.309,0.113-2.289,0.176-2.939,0.176c-0.328-2.229-0.654-3.865-0.98-4.922c1.414,0,2.615,0,3.598,0
	c1.412,0.118,2.066-0.585,1.963-2.107v-5.979h-5.561c-0.438,5.625-2.02,10.193-4.742,13.711c-0.219-0.234-0.6-0.525-1.145-0.879
	c-0.438-0.471-1.309-1.173-2.615-2.107l-2.289,2.107c-0.873-1.291-2.451-3.282-4.74-5.979c0.221,0.236,0.057,0-0.488-0.703
	l3.27-2.637h-8.01l3.434,2.637c-1.525,1.877-3.543,4.276-6.049,7.207c-0.221-0.234-0.6-0.588-1.145-1.055
	c-1.418-1.406-2.348-2.228-2.779-2.461c1.416-1.291,3.104-3.222,5.066-5.801c0.219-0.232,0.383-0.409,0.488-0.527h-5.721v-4.922
	h2.943v-18.277H484.381z M491.574,281.492v3.34h6.213v-3.34H491.574z M491.574,289.048v3.164h6.213v-3.164H491.574z
	 M491.574,296.609v3.162h6.213v-3.162H491.574z M499.094,304.695c2.066,2.228,3.486,3.865,4.25,4.922
	c0.979-1.522,1.688-3.164,2.125-4.922H499.094L499.094,304.695z M511.518,279.38v5.979h5.232v-5.979H511.518z M511.518,293.445
	c0,0.938,0,1.816,0,2.637h5.232v-5.625h-5.232V293.445z"/>
<path fill="#FFFFFF" d="M32.878,228.942v-2.078h20.024v2.078h-9.257c-0.068,2.262-0.236,4.34-0.503,6.234h11.572v2.188h-9.46v8.75
	c-0.135,1.53,0.604,2.223,2.214,2.078h2.817c1.409,0.145,2.179-0.51,2.314-1.97c0.134-1.166,0.201-2.259,0.201-3.28
	c0.335,0.146,0.838,0.327,1.509,0.547c0.268,0.072,0.469,0.146,0.604,0.219c-0.068,0.365-0.101,0.803-0.101,1.312
	c-0.135,1.022-0.269,1.823-0.403,2.406c-0.269,1.969-1.544,2.916-3.824,2.844h-3.821c-2.415,0.072-3.589-1.167-3.521-3.719v-9.188
	h-0.604c-1.006,5.834-4.462,10.463-10.364,13.891l-1.509-1.859c5.567-3.062,8.82-7.072,9.76-12.031h-9.559v-2.188h9.962
	c0.335-1.896,0.536-3.974,0.604-6.233L32.878,228.942L32.878,228.942z M57.705,243.926v-2.188h17.811v2.188H57.705z M74.308,250.598
	c-1.409,0.072-3.22,0.108-5.434,0.108c-0.067-0.803-0.201-1.641-0.402-2.516c1.475,0.146,3.22,0.219,5.232,0.219
	c2.415,0.146,3.656-0.801,3.723-2.844c0.201-2.697,0.368-5.359,0.503-7.984H61.428l1.107-12.577h2.113l-0.402,3.938h17.508v2.188
	H64.145l-0.403,4.375h16.502c0,0.365-0.034,0.947-0.101,1.75c-0.201,4.011-0.402,6.891-0.604,8.641
	C79.405,249.102,77.662,250.67,74.308,250.598L74.308,250.598z M94.3,229.926c0-2.553,0.838-4.447,2.516-5.688l0.906,0.875
	c-1.208,0.947-1.846,2.369-1.912,4.266h1.711v3.5h-3.22C94.3,232.296,94.3,231.312,94.3,229.926L94.3,229.926z M98.929,229.926
	c0-2.553,0.805-4.447,2.415-5.688l1.006,0.875c-1.207,0.947-1.846,2.369-1.912,4.266h1.61v3.5h-3.119
	C98.929,232.296,98.929,231.312,98.929,229.926L98.929,229.926z M106.852,230.801v-1.969h2.918c0.066-0.291,0.201-0.766,0.402-1.422
	c0.268-1.094,0.436-1.896,0.503-2.406l2.012,0.219l-1.006,3.609h5.233v1.969h-5.736c-1.074,3.5-1.811,5.944-2.214,7.328h3.12v-5.578
	h1.71v5.578h2.817v1.858h-2.817v3.719c0.066,0,0.167,0,0.302,0c0.871-0.071,1.812-0.219,2.818-0.438
	c0,0.729-0.035,1.387-0.101,1.969l-3.019,0.438v5.469h-1.912v-5.25c-1.812,0.22-3.522,0.438-5.132,0.656l-0.201-2.078l5.333-0.547
	v-3.938h-4.729v-1.969c0.201-0.729,0.536-1.822,1.006-3.28c0.536-1.75,0.905-3.063,1.107-3.938L106.852,230.801L106.852,230.801z
	 M131.203,233.864c-0.336,0.512-0.705,1.167-1.107,1.97c-2.885-2.114-5.031-4.667-6.44-7.656c-1.544,2.844-3.791,5.469-6.742,7.875
	c-0.47-0.875-0.84-1.494-1.107-1.858c3.286-2.553,5.701-5.65,7.245-9.298l2.012,0.328c-0.135,0.366-0.302,0.729-0.503,1.095
	C126.305,229.671,128.519,232.187,131.203,233.864L131.203,233.864z M122.247,250.379c-2.349,0.071-3.489-1.132-3.421-3.609v-11.266
	h1.912v5.25c2.415-1.384,4.594-2.953,6.541-4.703l1.208,1.53c-2.013,1.824-4.596,3.647-7.748,5.47v3.28
	c-0.135,1.459,0.569,2.115,2.113,1.97h2.516c1.409,0.071,2.179-0.547,2.314-1.858c0.201-1.24,0.335-2.517,0.402-3.828
	c0.67,0.291,1.309,0.51,1.912,0.655c-0.201,1.604-0.402,3.026-0.604,4.267c-0.403,1.895-1.645,2.844-3.723,2.844L122.247,250.379
	L122.247,250.379z M138.833,227.411c0,2.406-0.805,4.303-2.415,5.688l-1.006-0.875c1.208-0.947,1.844-2.406,1.912-4.375h-1.61
	v-3.391h3.119C138.833,224.968,138.833,225.952,138.833,227.411L138.833,227.411z M143.462,227.411c0,2.406-0.839,4.303-2.516,5.688
	l-0.905-0.875c1.207-0.947,1.844-2.406,1.912-4.375h-1.71v-3.391h3.22C143.462,224.968,143.462,225.952,143.462,227.411
	L143.462,227.411z M156.036,250.051c-0.269,0.219-0.503,0.364-0.705,0.438l-1.409-1.97c0.604-0.511,0.871-1.239,0.805-2.188v-20.671
	h2.113v7.983h6.642v2.188h-6.642v11.484c1.744-0.875,3.89-1.931,6.44-3.172c0,0.292,0.033,0.729,0.101,1.312
	c0,0.584,0,0.984,0,1.203c-2.214,0.875-4.261,1.75-6.138,2.625C156.975,249.43,156.572,249.685,156.036,250.051L156.036,250.051z
	 M168.916,250.379c-2.349,0.071-3.489-1.095-3.421-3.5v-21.875h2.113v11.155c3.019-2.333,5.534-4.812,7.547-7.438l1.71,1.531
	c-2.684,3.136-5.77,6.016-9.257,8.641v7.438c-0.067,1.313,0.604,1.932,2.013,1.859h2.918c1.341,0.072,2.079-0.547,2.214-1.859
	c0.201-1.094,0.368-2.405,0.503-3.938c0.201,0.073,0.503,0.184,0.906,0.328c0.536,0.146,0.906,0.256,1.107,0.328
	c-0.068,0.947-0.201,2.115-0.403,3.5c-0.067,0.438-0.135,0.766-0.201,0.984c-0.402,1.895-1.645,2.844-3.723,2.844L168.916,250.379
	L168.916,250.379z M180.974,250.818v-21.329h2.717c0.201-0.728,0.469-1.785,0.805-3.172c0.134-0.582,0.234-0.984,0.302-1.203
	l2.113,0.328c-0.402,1.604-0.772,2.953-1.107,4.047h4.729v21.109h-2.013v-2.078h-5.534v2.298H180.974z M182.986,231.458v6.562h5.534
	v-6.562H182.986z M182.986,239.99v6.672h5.534v-6.672H182.986z M198.784,250.598c-1.409,0-2.817,0-4.226,0
	c-0.067-0.292-0.135-0.729-0.201-1.313c-0.135-0.365-0.201-0.655-0.201-0.875c1.273,0,2.616,0,4.025,0
	c1.945,0.146,2.918-0.801,2.918-2.844c0.201-6.488,0.302-11.192,0.302-14.108h-6.44c-0.671,1.604-1.343,3.062-2.012,4.374
	c-0.538-0.438-1.107-0.836-1.711-1.202c1.409-2.479,2.649-5.688,3.723-9.625l2.013,0.547c-0.135,0.584-0.37,1.386-0.705,2.406
	c-0.269,0.656-0.437,1.131-0.503,1.422h7.748c0,0.365,0,0.947,0,1.75c-0.135,6.78-0.269,11.702-0.402,14.766
	C203.044,248.957,201.602,250.525,198.784,250.598L198.784,250.598z M197.074,242.943c-1.208-1.97-2.482-3.9-3.824-5.798
	l1.509-1.202c0.201,0.291,0.536,0.729,1.006,1.312c1.273,1.822,2.28,3.281,3.019,4.375L197.074,242.943z M210.842,237.582
	c-1.476-1.457-2.717-2.586-3.723-3.39l1.308-1.531c1.409,1.021,2.683,2.078,3.824,3.171L210.842,237.582z M211.949,241.52
	c-0.805,3.209-1.544,6.382-2.214,9.517l-2.113-0.656c0.737-2.697,1.542-5.906,2.415-9.625c0.201,0.072,0.536,0.183,1.006,0.328
	C211.446,241.301,211.748,241.449,211.949,241.52L211.949,241.52z M211.647,230.364c-1.544-1.531-2.785-2.697-3.723-3.5l1.308-1.531
	c0.268,0.22,0.67,0.584,1.208,1.095c1.14,0.948,2.013,1.714,2.616,2.297L211.647,230.364z M217.282,229.27
	c-0.94,1.604-2.113,3.209-3.521,4.812c-0.403-0.582-0.84-1.129-1.308-1.641c2.078-1.969,3.756-4.521,5.031-7.656l2.012,0.328
	c-0.402,0.729-0.772,1.496-1.107,2.297h12.578v1.859H217.282L217.282,229.27z M212.653,240.318v-1.859h2.516l0.704-6.673h13.383
	l-0.101,6.673h2.415v1.859h-2.516c0,1.75-0.068,3.391-0.201,4.922h2.012v1.858h-2.012c-0.135,2.625-1.477,3.899-4.025,3.828
	c-1.006,0-2.147,0-3.421,0c-0.068-0.22-0.135-0.547-0.201-0.983c-0.135-0.438-0.236-0.767-0.302-0.984
	c1.072,0.072,2.214,0.109,3.421,0.109c1.61,0.071,2.481-0.584,2.616-1.97h-12.779l0.704-6.78H212.653z M227.043,245.24
	c0.066-0.51,0.101-1.313,0.101-2.406c0.066-1.166,0.101-2.006,0.101-2.516h-10.364l-0.604,4.922H227.043z M217.584,233.645
	l-0.503,4.813h10.163v-4.813H217.584z M222.816,244.801c-0.201-0.146-0.503-0.399-0.906-0.767c-0.805-0.728-1.476-1.312-2.013-1.75
	l1.006-1.203c0.805,0.584,1.812,1.387,3.019,2.406L222.816,244.801z M223.118,237.91c-0.94-0.946-1.912-1.785-2.918-2.516
	l1.006-1.202c0.805,0.583,1.811,1.386,3.019,2.405L223.118,237.91z M234.371,249.615v-2.078h9.66v-22.204h2.214v8.094h10.163v2.188
	h-10.163v11.922h12.075v2.078H234.371z M264.833,245.457c-0.336,1.897-1.041,3.791-2.113,5.688c-0.47-0.511-1.006-0.983-1.61-1.422
	c1.072-1.821,1.744-3.5,2.013-5.03c0.267-1.531,0.402-4.084,0.402-7.656v-9.298h10.264c-0.201-0.875-0.402-1.75-0.604-2.625
	l2.214-0.219c0.201,0.803,0.436,1.75,0.704,2.844h9.157v1.859h-19.823v7.656C265.437,240.828,265.236,243.562,264.833,245.457
	L264.833,245.457z M284.958,249.943c-0.201,0.438-0.369,0.766-0.503,0.983c-3.758-0.584-6.842-1.531-9.258-2.845
	c-2.349,1.24-5.4,2.298-9.157,3.173c-0.067-0.074-0.135-0.257-0.201-0.548c-0.135-0.291-0.402-0.803-0.805-1.53
	c2.883-0.511,5.6-1.203,8.15-2.078c-1.678-1.094-3.187-2.661-4.528-4.703h-1.71v-1.75h15.496v1.859
	c-1.811,2.042-3.556,3.608-5.232,4.702c2.079,0.656,4.795,1.203,8.151,1.642C285.293,249.068,285.159,249.43,284.958,249.943
	L284.958,249.943z M266.242,234.301v-1.859h3.522v-2.188h1.912v2.188h7.144v-2.188h1.812v2.188h4.427v1.859h-4.427v4.155h-10.868
	v-4.155H266.242z M275.197,246.115c1.61-0.803,3.22-2.041,4.83-3.72h-9.157C272.078,243.926,273.52,245.167,275.197,246.115
	L275.197,246.115z M271.676,234.301v2.517h7.144v-2.517H271.676z M290.878,251.145v-15.202c-0.671,1.53-1.375,2.952-2.113,4.266
	c-0.201-0.875-0.437-1.713-0.705-2.516c1.744-3.208,3.152-7.438,4.227-12.688l1.811,0.438c-0.336,1.823-0.805,3.647-1.409,5.469
	v20.234H290.878z M295.305,251.145v-24.719h7.346v8.53h-5.535v3.281h4.83v1.859h-4.83v3.391h5.132v1.75h-5.132v5.906
	L295.305,251.145L295.305,251.145z M297.116,228.286v4.812h3.824v-4.812H297.116z M312.311,250.051
	c-0.27,0.438-0.471,0.728-0.604,0.875c-1.812-1.241-3.291-2.371-4.431-3.392c-1.343,1.24-3.22,2.479-5.635,3.72
	c-0.336-0.438-0.705-1.022-1.107-1.75c2.75-1.313,4.594-2.478,5.534-3.5c-1.275-1.822-2.213-4.156-2.817-7h-0.503v-1.859h8.653
	v1.859c-0.671,2.844-1.646,5.178-2.918,7c0.737,0.948,2.183,1.969,4.327,3.063C312.747,249.285,312.579,249.615,312.311,250.051
	L312.311,250.051z M303.858,234.848v-1.859h5.535v-4.594h-5.434v-1.859h7.144v8.313L303.858,234.848L303.858,234.848z
	 M307.28,244.473c1.006-1.384,1.743-3.208,2.215-5.469h-4.429C305.534,241.265,306.274,243.089,307.28,244.473L307.28,244.473z
	 M318.734,242.068c0,3.646-0.704,6.672-2.112,9.077c-0.472-0.584-0.975-1.094-1.511-1.53c1.272-1.896,1.878-5.104,1.812-9.625
	v-13.563h6.844v21.547c0,1.75-0.738,2.697-2.215,2.845c-0.674,0-1.408,0-2.214,0c0-0.22-0.034-0.548-0.102-0.984
	c-0.068-0.512-0.136-0.875-0.201-1.094c0.27,0.071,0.838,0.108,1.71,0.108c0.871,0.072,1.273-0.292,1.207-1.094v-5.688
	L318.734,242.068L318.734,242.068z M318.734,228.286v5.141h3.219v-5.141H318.734z M318.734,235.176v5.142h3.219v-5.142H318.734z
	 M327.789,233.098c-0.402,1.459-0.84,2.953-1.309,4.483c-0.604-0.219-1.207-0.438-1.812-0.655c1.008-2.697,1.812-6.053,2.414-10.062
	l1.812,0.328c-0.201,1.312-0.438,2.588-0.705,3.827h3.422v-5.797h2.014v5.797h5.637v2.078h-5.637v6.125h4.932v1.969h-4.932v6.781
	h6.039v1.969h-14.49v-1.969h6.438v-6.779h-5.029v-1.97h5.029v-6.125H327.789L327.789,233.098z M342.754,234.52v-1.969h2.617v-7.438
	h1.91v7.438h2.518v1.969h-2.518v10.173l3.119-0.984c0,0.511,0.033,1.203,0.102,2.078c-0.67,0.219-1.91,0.584-3.725,1.094
	c-1.943,0.656-3.354,1.058-4.227,1.203l-0.402-1.969l3.223-0.875v-10.72H342.754z M361.473,242.176
	c-0.473,0.073-0.807,0.108-1.008,0.108c-0.066-0.728-0.201-1.422-0.402-2.078c0.469,0,1.039,0,1.711,0
	c1.006,0.074,1.51-0.618,1.51-2.077c0.133-2.333,0.201-4.266,0.201-5.797l-4.025,1.531v11.593h-2.012V234.52l-3.824,1.312v10.063
	c-0.135,1.679,0.705,2.442,2.52,2.298h5.332c1.812,0.071,2.779-0.51,2.918-1.75c0.064-0.365,0.168-1.021,0.303-1.97
	c0.135-0.728,0.232-1.239,0.303-1.53c0.604,0.291,1.209,0.547,1.812,0.766c0,0.219-0.035,0.511-0.104,0.875
	c-0.137,1.312-0.303,2.297-0.502,2.953c-0.402,1.895-1.779,2.806-4.127,2.733h-6.643c-2.615,0.072-3.857-1.167-3.725-3.719v-9.953
	l-1.91,0.656l-0.303-2.078l2.213-0.766v-6.234h1.912v5.578l3.822-1.312v-7.438h2.014v6.78l5.939-2.078
	c0,2.334-0.104,5.215-0.303,8.642c0.064,2.553-0.807,3.792-2.615,3.719C362.277,242.14,361.941,242.176,361.473,242.176
	L361.473,242.176z"/>
<path fill="#FDF870" d="M42.28,339.434c-2.761,4.408-5.304,8.347-7.633,11.812c1.638-0.188,3.881-0.422,6.728-0.702
	c0,0.28-0.044,0.702-0.129,1.268c0,0.472-0.044,0.845-0.129,1.125c-3.192,0.188-6.254,0.562-9.186,1.125l-0.776-2.53
	c0.861-0.562,1.552-1.267,2.07-2.109c1.294-1.779,2.329-3.326,3.105-4.641c-1.64,0-3.234,0.094-4.787,0.28l-0.776-2.393
	c0.518-0.371,1.12-1.125,1.811-2.25c1.983-3.654,3.623-6.892,4.917-9.701l2.329,1.125c-0.604,1.03-0.776,1.356-0.518,0.981
	c-2.761,4.875-4.658,8.154-5.692,9.845c0.431,0,1.12-0.048,2.07-0.142c0.861,0,1.508,0,1.941,0c0.171-0.373,0.473-0.891,0.905-1.549
	c0.344-0.562,0.861-1.451,1.553-2.672L42.28,339.434L42.28,339.434z M30.766,359.121c3.277-0.562,6.857-1.17,10.738-1.828
	c0,0.281-0.044,0.755-0.129,1.406c0,0.564,0,0.939,0,1.125c-3.02,0.469-6.297,1.078-9.833,1.828L30.766,359.121z M40.21,343.793
	c4.312-3.654,7.675-8.062,10.091-13.22l2.199,0.564c0,0.094-0.044,0.188-0.129,0.281c0,0.188-0.044,0.328-0.129,0.422
	c2.329,4.594,5.648,8.297,9.962,11.107c-0.174,0.188-0.475,0.562-0.906,1.125c-0.433,0.562-0.734,0.938-0.905,1.125
	c-4.14-3.095-7.29-6.701-9.445-10.828c-2.329,4.408-5.349,8.156-9.056,11.25c-0.259-0.373-0.776-0.938-1.552-1.688L40.21,343.793
	L40.21,343.793z M43.056,350.121h15.913v14.064h-2.328v-2.25H45.385v2.391h-2.329V350.121z M44.221,343.654h13.713v2.391H44.221
	V343.654z M45.385,352.514v7.312h11.256v-7.312H45.385z M65.541,341.543c2.414-2.621,4.742-6.232,6.986-10.826l2.329,1.125
	c-0.259,0.375-0.604,0.981-1.035,1.826c-0.691,1.221-1.209,2.108-1.552,2.674v15.188H69.94v-11.533
	c-0.863,1.313-1.769,2.531-2.717,3.656C66.705,342.998,66.143,342.297,65.541,341.543L65.541,341.543z M65.929,360.809
	c1.293-2.153,2.371-4.731,3.234-7.733l2.199,0.844c-0.863,2.723-1.898,5.395-3.105,8.018L65.929,360.809L65.929,360.809z
	 M73.174,353.356h2.458v5.345c-0.174,1.594,0.646,2.344,2.458,2.25h6.081c1.811,0,2.802-0.517,2.976-1.547
	c0.259-1.029,0.473-2.437,0.647-4.22c0.776,0.377,1.595,0.703,2.458,0.981c-0.087,0.378-0.174,0.896-0.259,1.55
	c-0.174,1.03-0.303,1.825-0.388,2.392c-0.518,2.25-2.244,3.327-5.175,3.233h-6.857c-3.105,0.188-4.573-1.312-4.399-4.5V353.356z
	 M73.95,348.014c2.242-2.155,4.27-4.451,6.081-6.894l1.812,1.406c-1.727,2.344-3.752,4.779-6.081,7.312
	C75.244,349.279,74.64,348.67,73.95,348.014L73.95,348.014z M76.15,342.529c-0.517-0.562-1.164-1.125-1.94-1.688
	c2.329-2.72,4.354-5.998,6.081-9.845l2.458,0.562c-0.518,1.125-1.035,2.158-1.552,3.094h14.231v2.25l-2.07,4.781l-2.329-1.125
	l1.682-3.656h-12.68C78.909,338.781,77.615,340.656,76.15,342.529L76.15,342.529z M82.877,358.139
	c-1.552-1.778-3.105-3.422-4.657-4.922l1.552-1.549c1.725,1.405,3.364,2.952,4.917,4.643L82.877,358.139L82.877,358.139z
	 M84.559,338.592h2.329v7.731c0.172,3.283-1.165,4.83-4.011,4.644c-0.863,0.094-1.769,0.142-2.717,0.142
	c0-0.654-0.174-1.548-0.518-2.673c0.518,0.097,1.466,0.142,2.846,0.142c1.466,0.188,2.155-0.703,2.07-2.672L84.559,338.592
	L84.559,338.592z M94.78,349.842c-1.898-2.345-3.968-4.5-6.21-6.472l1.552-1.827c2.155,1.879,4.27,3.938,6.339,6.188L94.78,349.842
	L94.78,349.842z M91.287,355.324c-0.604-0.844-1.08-1.498-1.423-1.969l1.812-1.406c2.07,2.439,3.836,4.781,5.304,7.031l-2.07,1.406
	C94.218,359.359,93.011,357.67,91.287,355.324L91.287,355.324z M110.278,364.768h2.717v-34.256h-1.941
	c-1.122,3.603-3.667,6.582-7.633,8.94v3.545c2.672-1.352,4.958-3.146,6.856-5.397L110.278,364.768L110.278,364.768z
	 M139.747,355.488c-0.174-4.388-1.985-7.257-5.434-8.605c2.846-1.35,4.312-3.881,4.399-7.594c-0.174-5.625-2.717-8.549-7.633-8.775
	c-4.314,0.113-6.986,2.928-8.021,8.438l2.846,1.185c0.603-4.162,2.372-6.302,5.305-6.412c2.759,0.11,4.225,1.97,4.398,5.565
	c-0.174,4.164-2.114,6.304-5.822,6.412c-0.518,0-0.95,0-1.293,0v3.039c0.343,0,1.12,0,2.329,0c3.708,0.228,5.692,2.361,5.951,6.412
	c0,4.726-1.94,7.088-5.822,7.088c-3.192,0-5.046-2.305-5.563-6.92l-2.976,1.015c1.035,5.965,3.966,8.942,8.797,8.942
	C136.642,364.938,139.488,361.676,139.747,355.488L139.747,355.488z M150.203,364.6v-4.896h-4.011v4.896H150.203z M156.254,355.992
	c0.259-4.387,1.983-7.311,5.175-8.772c-2.587-1.574-3.968-4.104-4.14-7.595c0.344-5.737,2.931-8.774,7.763-9.112
	c4.657,0.451,7.2,3.487,7.633,9.112c-0.174,3.603-1.467,6.134-3.881,7.595c3.189,1.576,4.872,4.612,5.045,9.11
	c-0.259,5.738-3.192,8.72-8.797,8.943C159.359,365.049,156.425,361.957,156.254,355.992L156.254,355.992z M170.873,356.33
	c-0.259-4.946-2.244-7.534-5.951-7.762c-3.451,0.228-5.349,2.699-5.693,7.424c0.344,4.051,2.285,6.244,5.822,6.582
	C168.587,362.238,170.527,360.158,170.873,356.33L170.873,356.33z M169.579,339.625c-0.259-3.713-1.769-5.737-4.528-6.073
	c-2.846,0.228-4.399,2.137-4.658,5.735c0.085,4.162,1.638,6.357,4.658,6.58C167.898,345.758,169.405,343.676,169.579,339.625
	L169.579,339.625z M178.226,333.809H208.5v2.672h-17.983c0,1.222-0.129,3.562-0.388,7.031h14.619
	c-0.087,2.438-0.346,6.847-0.776,13.219c0,4.688-2.027,6.938-6.081,6.75c-2.157,0-4.097,0-5.822,0
	c-0.087-0.375-0.174-0.983-0.259-1.827c-0.087-0.75-0.174-1.173-0.259-1.267c1.638,0.094,3.665,0.142,6.081,0.142
	c2.414,0.28,3.665-1.125,3.752-4.22c0.172-1.688,0.388-5.106,0.647-10.269h-12.032c-0.174,7.689-3.58,13.781-10.221,18.281
	c-0.259-0.281-0.562-0.703-0.906-1.266c-0.433-0.562-0.734-0.938-0.905-1.125c6.553-4.125,9.703-9.795,9.444-17.018
	c0-0.279,0.042-0.795,0.129-1.547c0.171-3.562,0.258-5.855,0.258-6.892h-9.574v-2.67h0.002V333.809L178.226,333.809z
	 M214.425,334.654h8.021v24.188h-2.199v-2.394h-3.623v3.094h-2.199V334.654L214.425,334.654z M216.624,337.043v17.018h3.623v-17.018
	H216.624z M231.891,330.996h2.329v4.359h8.668v2.391h-8.668v12.097h4.528v-9.144h2.329v11.672h-6.857v6.328
	c0,1.314,0.56,1.969,1.682,1.969h2.976c1.207,0,1.896-0.514,2.07-1.547c0-0.092,0-0.229,0-0.422
	c0.258-1.969,0.431-3.516,0.517-4.641c0.776,0.377,1.508,0.658,2.2,0.844c0,1.033-0.174,2.769-0.518,5.203
	c-0.433,1.969-1.769,3-4.011,3.094h-3.623c-2.329-0.094-3.538-1.5-3.622-4.219v-6.609h-6.857v-11.672h2.329v9.144h4.528v-12.097
	h-8.28v-2.391h8.28V330.996z M248.683,336.621h3.105c0.861-2.153,1.508-4.026,1.941-5.625l2.717,0.847
	c-0.259,0.562-0.647,1.455-1.165,2.672c-0.433,0.938-0.734,1.644-0.906,2.106h6.339v26.859h-2.329v-2.672h-7.245v2.953h-2.458
	L248.683,336.621L248.683,336.621z M251.141,339.154v8.297h7.245v-8.297H251.141z M251.141,349.981v8.578h7.245v-8.578H251.141z
	 M263.432,345.059c-0.604-0.467-1.338-0.983-2.2-1.547c1.896-3.469,3.536-7.642,4.917-12.519l2.717,0.703
	c-0.087,0.281-0.216,0.703-0.388,1.269c-0.259,0.752-0.691,1.969-1.294,3.653h10.091c-0.259,11.531-0.433,18.562-0.518,21.097
	c-0.087,4.125-2.199,6.094-6.339,5.903c-0.863,0-1.94,0.047-3.234,0.144c-0.776,0-1.293,0-1.552,0
	c-0.174-1.125-0.346-2.108-0.518-2.953c0.259,0,0.732,0,1.423,0c1.637,0.095,2.976,0.142,4.01,0.142
	c2.414,0.188,3.665-1.076,3.752-3.797c0.172-2.812,0.301-8.812,0.388-18h-8.409c-0.174,0.28-0.388,0.752-0.647,1.405
	C264.681,342.719,263.949,344.217,263.432,345.059L263.432,345.059z M269.124,353.918c-1.553-2.529-3.279-5.201-5.175-8.017
	l1.941-1.547c2.414,3.188,4.269,5.766,5.562,7.734L269.124,353.918L269.124,353.918z M296.525,334.934
	c-5.692,0.188-9.618,0.281-11.773,0.281c-0.087-0.654-0.216-1.406-0.388-2.25c11.298-0.188,19.879-0.517,25.745-0.984l0.647,2.25
	c-1.812,0.188-5.78,0.378-11.903,0.562v2.674h14.231v2.106h-14.231v2.531h10.738v11.812h-10.738v2.529h11.903v1.971h-11.903v2.391
	h14.231v2.25h-30.922v-2.25h14.361v-2.391h-11.902v-1.971h11.902v-2.529h-10.609v-11.812h10.609v-2.531h-14.102v-2.106h14.102
	L296.525,334.934L296.525,334.934z M288.116,344.074v2.953h8.409v-2.953H288.116z M288.116,348.996v2.953h8.409v-2.953H288.116z
	 M307.393,344.074h-8.539v2.953h8.539V344.074z M298.854,348.996v2.953h8.539v-2.953H298.854z M320.691,346.324h23.676v9.422H333.5
	v2.109h12.031v1.688H333.5v1.828h14.49v1.828h-31.05v-1.828h14.49v-1.828h-12.032v-1.688h12.032v-2.109h-10.738V346.324
	L320.691,346.324z M317.2,342.809h30.66v1.828H317.2V342.809z M320.951,332.404h23.156v8.858h-23.156V332.404z M322.891,348.014
	v2.25h8.539v-2.25H322.891z M322.891,351.809v2.25h8.539v-2.25H322.891z M323.02,334.092v1.826h18.889v-1.826H323.02z
	 M323.02,337.606v1.828h18.889v-1.828H323.02z M342.166,348.014h-8.668v2.25h8.668V348.014z M333.498,351.809v2.25h8.668v-2.25
	H333.498z M351.455,357.293c0.861-0.187,2.199-0.423,4.012-0.701c3.02-0.654,5.219-1.125,6.6-1.406
	c-0.086,0.656-0.129,1.455-0.129,2.392c-1.121,0.281-2.895,0.703-5.309,1.268c-2.152,0.471-3.664,0.799-4.523,0.982L351.455,357.293
	z M363.229,338.168c-1.641,2.907-4.1,6.75-7.373,11.53c2.154-0.373,4.395-0.703,6.727-0.981c0,0.188-0.043,0.562-0.129,1.125
	c0,0.471-0.045,0.844-0.129,1.125c-1.812,0.278-4.141,0.608-6.986,0.981c-0.604,0.097-1.252,0.236-1.939,0.422l-1.035-2.25
	c0.521-0.278,1.035-0.748,1.555-1.403c0.859-1.031,2.023-2.767,3.492-5.203c-0.346,0-0.861,0-1.553,0
	c-0.691,0.097-1.209,0.142-1.555,0.142c-0.174,0-0.475,0.049-0.904,0.143c-0.348,0-0.646,0.049-0.904,0.141l-0.773-2.109
	c0.604-0.562,1.164-1.266,1.682-2.106c1.812-2.812,3.363-5.717,4.658-8.721l2.197,0.983c-1.982,3.846-3.84,7.08-5.562,9.703
	c0.432-0.092,1.121-0.141,2.068-0.141c0.775-0.094,1.426-0.143,1.939-0.143c0.861-1.406,1.684-2.904,2.459-4.5L363.229,338.168
	L363.229,338.168z M360.252,363.201c-0.434-0.375-0.773-0.703-1.033-0.982c2.674-3,4.396-6.279,5.178-9.846
	c0.771-3.279,1.117-8.904,1.033-16.875h-2.721v-2.392h15.656v2.531l-3.104,6.892h5.176v2.393c-1.293,4.312-2.936,7.969-4.916,10.969
	c1.98,2.062,4.438,3.893,7.375,5.482c-0.775,0.846-1.426,1.688-1.939,2.531c-3.279-2.438-5.607-4.404-6.986-5.906
	c-1.984,2.25-4.527,4.358-7.633,6.328c-0.176-0.188-0.434-0.517-0.775-0.982c-0.434-0.562-0.777-0.984-1.035-1.268
	c3.105-1.688,5.691-3.748,7.762-6.188c-1.982-2.623-3.537-5.906-4.654-9.844c-0.348,7.502-2.506,13.549-6.471,18.141
	C360.986,363.996,360.684,363.668,360.252,363.201L360.252,363.201z M372.67,342.389l2.979-6.894h-7.762
	c0,0.562-0.045,1.406-0.133,2.531c0,0.938,0,1.642,0,2.107c1.729,6.098,3.754,10.643,6.082,13.643
	c1.555-2.062,2.891-5.016,4.012-8.858h-5.178V342.389L372.67,342.389z M389.854,339.293c-0.086,0.563-0.258,1.454-0.52,2.674
	c-0.348,2.25-0.689,4.03-1.033,5.344c-0.691-0.28-1.381-0.469-2.068-0.562c0.43-1.404,0.861-3.422,1.293-6.047
	c0.172-0.847,0.301-1.453,0.389-1.828L389.854,339.293z M390.371,364.324v-33.188h2.33v6.893l1.293-0.983
	c1.207,1.688,2.242,3.282,3.105,4.78l-1.941,1.406c-0.174-0.281-0.389-0.654-0.645-1.125c-0.691-1.406-1.293-2.531-1.812-3.375
	v25.594h-2.33V364.324z M395.418,361.934c-0.436-0.375-0.732-0.655-0.904-0.844c1.811-1.972,3.535-4.5,5.176-7.597l2.068,1.269
	c-1.812,3.188-3.621,5.856-5.438,8.017C396.148,362.59,395.848,362.309,395.418,361.934L395.418,361.934z M404.473,332.684
	c-0.258-0.562-0.436-0.983-0.52-1.269l2.328-0.7c0.521,1.403,0.99,2.858,1.422,4.356h9.316v2.25h-20.959v-2.25h9.188
	C405.076,334.514,404.816,333.719,404.473,332.684L404.473,332.684z M398.264,340.981h16.301v10.267h-7.115v8.721
	c0.172,2.623-1.035,3.938-3.623,3.938c-0.949,0-2.025,0-3.232,0c-0.086-0.844-0.26-1.733-0.52-2.672
	c0.434,0,1.078,0.047,1.941,0.141c0.602,0,1.035,0,1.293,0c1.295,0.097,1.896-0.469,1.812-1.688v-8.438h-6.855L398.264,340.981
	L398.264,340.981z M400.592,343.092v5.903h11.645v-5.903H400.592z M415.211,362.779c-1.293-2.062-3.021-4.687-5.176-7.875
	l1.939-1.406c1.812,2.723,3.578,5.252,5.305,7.596L415.211,362.779L415.211,362.779z M431.229,352.231
	c-0.605-0.653-1.252-1.45-1.941-2.391l1.164-0.984h-4.525v-6.469h21.732v6.469h-4.27l1.295,0.984
	c-0.174,0.278-0.48,0.655-0.906,1.125c-0.518,0.562-0.863,0.981-1.035,1.266h9.443v2.109h-30.66v-2.109H431.229L431.229,352.231z
	 M424.242,338.309h11.385v-2.108h-13.326v-2.107h13.324v-2.953h2.328v2.953h13.455v2.107h-13.455v2.108h11.387v2.106h-25.1
	L424.242,338.309L424.242,338.309z M425.662,356.309h22.256v7.875h-2.199v-1.269h-17.855v1.269h-2.197v-7.875H425.662z
	 M427.863,358.418v2.53h17.855v-2.53H427.863z M428.121,344.496v2.394h17.338v-2.394H428.121z M431.229,348.856
	c1.035,1.125,1.938,2.25,2.717,3.375h5.951c0.947-1.125,1.811-2.25,2.586-3.375H431.229z"/>
<g>
	<path fill="#5CD6FD" d="M127.076,426.311c-0.611,2.783-1.788,5.619-3.531,8.509c-0.96-0.929-1.918-1.806-2.877-2.629
		c3.051-3.919,4.447-9.9,4.185-17.943v-10.674h12.424c-0.262-0.824-0.699-2.062-1.308-3.713c-0.261-0.517-0.437-0.929-0.523-1.236
		l3.662-0.771c0.871,1.959,1.524,3.713,1.962,5.26l-1.569,0.463h12.555v3.56h-24.063v7.271
		C127.992,419.658,127.685,423.629,127.076,426.311L127.076,426.311z M161.055,428.631c-1.308,1.444-2.66,3.146-4.054,5.104
		l-1.308-3.714c0.785-1.026,1.962-2.475,3.531-4.329c0.958-1.029,1.786-1.548,2.485-1.548c0.173,0,0.347,0.054,0.523,0.152
		c0.174,0,0.305,0,0.393,0c6.625-4.642,12.555-9.949,17.786-15.933h-22.233v-3.403h12.816c-0.349-1.027-0.916-2.576-1.7-4.642
		c-0.261-0.719-0.479-1.236-0.654-1.547l3.4-0.773c0.697,1.757,1.524,3.974,2.485,6.652l-0.916,0.31h10.987v3.713
		c-5.668,6.909-12.164,12.942-19.486,18.101c1.568,2.166,4.009,3.303,7.324,3.401c3.139,0.104,8.193,0.055,15.17-0.154
		c-0.438,1.136-0.742,2.32-0.916,3.56c-4.1,0-7.062,0-8.893,0c-2.269-0.104-4.273-0.207-6.017-0.31
		c-4.099,0-7.237-1.547-9.416-4.643C161.926,428.219,161.491,428.219,161.055,428.631L161.055,428.631z M191.634,406.975v-3.248
		h5.625c-0.438-1.752-0.916-3.455-1.438-5.104l3.008-0.771c0.263,1.136,0.785,3.095,1.569,5.877h3.662v3.25h-7.062l-0.131,5.259
		h6.277c0,5.569-0.131,11.139-0.393,16.707c0,3.299-1.265,4.948-3.793,4.948c-1.046,0-2.006,0-2.877,0l-0.654-3.248
		c0.785,0,1.655,0,2.617,0c1.48,0.103,2.178-0.723,2.092-2.478c0.174-5.358,0.262-9.59,0.262-12.686h-3.662
		c0,8.768-1.223,15.211-3.662,19.336l-2.223-2.318c2.178-3.301,3.27-9.332,3.27-18.1l0.131-7.426L191.634,406.975L191.634,406.975z
		 M209.159,404.963c-1.134,2.271-2.484,4.485-4.054,6.651c-0.96-1.135-1.657-1.908-2.093-2.319c2.615-3.402,4.531-7.22,5.754-11.447
		l3.008,0.312c-0.176,0.518-0.438,1.289-0.785,2.319c-0.261,0.724-0.438,1.236-0.523,1.548h11.771v2.938L209.159,404.963
		L209.159,404.963z M221.714,432.191c-0.522,0.616-0.916,1.081-1.177,1.391c-4.884-4.535-7.673-11.342-8.37-20.418
		c-1.046,0.104-2.092,0.258-3.139,0.465v16.242c1.831-1.031,3.531-1.855,5.102-2.478c0,0.312,0,0.826,0,1.548
		c0.084,0.723,0.129,1.235,0.129,1.547c-1.83,0.721-3.662,1.646-5.492,2.784c-0.176,0.103-0.393,0.205-0.654,0.31
		c-0.699,0.412-1.134,0.721-1.309,0.93l-1.699-2.783c0.785-0.725,1.132-1.703,1.046-2.939v-18.1
		c4.708-0.412,9.417-1.236,14.125-2.477l1.046,3.248c-2.007,0.52-4.186,0.93-6.539,1.238c0.262,2.475,0.609,4.641,1.046,6.496
		c1.743-1.029,3.443-2.164,5.101-3.402l1.438,2.785c-1.831,1.235-3.707,2.424-5.624,3.557c1.133,3.404,3.182,6.24,6.146,8.51
		C222.716,430.951,222.323,431.465,221.714,432.191L221.714,432.191z M231.882,423.682v6.343h25.502v3.094h-28.51v-32.795h28.118
		v3.25h-25.11v6.188h22.233v13.924h-22.233V423.682z M250.976,413.006h-19.094v7.426h19.094V413.006z M261.806,405.275v-2.785h7.586
		v-4.486h2.746v4.486h7.455v2.785h-7.455v4.02h6.801v21.191c0,0.721-0.088,1.393-0.262,2.012c3.4-5.26,5.274-12.375,5.625-21.348
		h-4.186v-3.095h4.316c0-0.824,0-2.269,0-4.332c0.084-2.476,0.13-4.383,0.13-5.726h2.616c0,2.271-0.088,5.158-0.262,8.664
		c0,0.617,0,1.082,0,1.394h6.016v3.095h-5.754c0.609,8.661,2.66,15.418,6.147,20.266c-0.438,0.514-1.003,1.338-1.7,2.477
		c0.086-0.105,0,0.051-0.262,0.463c-2.877-4.643-4.708-10.057-5.493-16.242c-0.522,6.188-2.181,11.812-4.97,16.859
		c-0.088-0.104-0.219-0.258-0.393-0.463c-0.785-1.031-1.396-1.701-1.832-2.012c-0.438,1.34-1.353,2.062-2.746,2.166
		c-0.873,0-1.657,0-2.354,0c0-0.104,0-0.209,0-0.312c-0.088-0.519-0.308-1.394-0.653-2.629c0.784,0,1.48,0,2.092,0
		c1.045,0.103,1.523-0.362,1.438-1.396v-18.252h-11.376v22.738h-2.485v-25.523h6.801v-4.021h-7.586V405.275L261.806,405.275z
		 M266.384,420.586v-2.783h4.446c0.175-0.312,0.394-0.824,0.654-1.547c0.696-1.548,1.177-2.683,1.438-3.402l1.961,1.082
		l-2.092,3.867h2.354v2.783h-3.14v3.248h3.793v2.784h-3.793v6.961h-2.484v-6.961h-3.792v-2.784h3.792v-3.248H266.384
		L266.384,420.586z M268.476,417.492c-0.698-1.235-1.307-2.422-1.83-3.557l1.699-1.084c0.175,0.311,0.437,0.771,0.785,1.393
		c0.523,0.929,0.871,1.601,1.047,2.013L268.476,417.492z M290.317,406.201c-0.262-0.619-0.699-1.442-1.309-2.477
		c-0.522-1.135-0.959-1.957-1.308-2.477l1.961-1.234c1.046,1.648,1.962,3.246,2.747,4.795L290.317,406.201z"/>
	<path fill="#5DD6FE" d="M48.998,428.234v5.659H30.766l0.005-4.735c5.4-8.832,8.61-14.299,9.628-16.396s1.528-3.734,1.528-4.91
		c0-0.902-0.154-1.576-0.462-2.021c-0.308-0.444-0.777-0.666-1.407-0.666s-1.099,0.246-1.407,0.738
		c-0.308,0.492-0.462,1.471-0.462,2.935v3.157h-7.423v-1.211c0-1.858,0.096-3.326,0.287-4.397c0.191-1.072,0.663-2.129,1.415-3.168
		s1.729-1.824,2.933-2.356c1.204-0.533,2.646-0.8,4.327-0.8c3.295,0,5.787,0.813,7.475,2.447c1.688,1.637,2.533,3.703,2.533,6.205
		c0,1.897-0.475,3.909-1.426,6.026c-0.95,2.119-3.75,6.617-8.398,13.494H48.998L48.998,428.234z M72.183,411.93v11.074
		c0,2.516-0.137,4.348-0.41,5.495c-0.274,1.148-0.841,2.224-1.702,3.22c-0.861,0.998-1.9,1.717-3.117,2.153
		c-1.217,0.438-2.577,0.656-4.081,0.656c-1.982,0-3.63-0.229-4.942-0.688s-2.358-1.172-3.138-2.144
		c-0.78-0.971-1.333-1.992-1.661-3.065c-0.328-1.072-0.492-2.777-0.492-5.115v-11.588c0-3.049,0.263-5.33,0.79-6.851
		c0.527-1.518,1.572-2.733,3.138-3.649c1.566-0.914,3.462-1.373,5.691-1.373c1.818,0,3.445,0.315,4.881,0.953
		c1.436,0.637,2.509,1.412,3.22,2.328c0.711,0.916,1.192,1.946,1.446,3.098C72.057,407.582,72.183,409.414,72.183,411.93z
		 M63.898,409.141c0-1.764-0.085-2.866-0.256-3.312c-0.171-0.443-0.571-0.666-1.2-0.666c-0.615,0-1.022,0.233-1.22,0.707
		c-0.198,0.473-0.297,1.562-0.297,3.271v16.199c0,1.93,0.092,3.092,0.277,3.485c0.185,0.396,0.584,0.597,1.2,0.597
		c0.616,0,1.019-0.231,1.21-0.697c0.191-0.465,0.287-1.512,0.287-3.139L63.898,409.141L63.898,409.141z M88.355,400.693v33.2H80.07
		V416.09c0-2.568-0.062-4.113-0.185-4.636c-0.123-0.52-0.461-0.911-1.015-1.18c-0.554-0.268-1.788-0.397-3.702-0.397h-0.82v-3.871
		c4.006-0.861,7.048-2.636,9.126-5.313H88.355L88.355,400.693z M110.083,400.693v5.311H99.809v5.641
		c1.285-1.518,2.939-2.275,4.963-2.275c2.283,0,4.009,0.64,5.178,1.918c1.169,1.277,1.753,3.734,1.753,7.371v4.738
		c0,2.352-0.113,4.076-0.338,5.178c-0.225,1.103-0.708,2.119-1.446,3.058c-0.738,0.938-1.767,1.651-3.086,2.151
		c-1.32,0.498-2.929,0.748-4.83,0.748c-2.133,0-4.013-0.373-5.64-1.117c-1.627-0.743-2.782-1.854-3.466-3.332
		c-0.684-1.477-1.025-3.76-1.025-6.85v-1.807h8.285v2.072c0,2.146,0.075,3.67,0.226,4.572c0.151,0.899,0.67,1.354,1.559,1.354
		c0.41,0,0.741-0.131,0.995-0.391c0.253-0.261,0.39-0.539,0.41-0.842c0.02-0.302,0.044-1.605,0.072-3.916v-6.584
		c0-1.244-0.13-2.093-0.39-2.544c-0.26-0.45-0.69-0.678-1.292-0.678c-0.383,0-0.704,0.117-0.964,0.351
		c-0.26,0.231-0.427,0.479-0.502,0.748c-0.075,0.268-0.113,0.887-0.113,1.854h-8.203l0.349-16.731h17.779V400.693z"/>
</g>
</svg>
