<svg xmlns="http://www.w3.org/2000/svg" width="150.156" height="60" viewBox="1.849 0 150.156 60" enable-background="new 1.849 0 150.156 60"><path fill="#036BA7" d="M16.141 3.969h135.703l-14.293 52h-135.702z"/><path d="M137.714 55.999h-135.704l14.292-52h135.703l-14.291 52z" fill="none"/><path fill="#1185C7" d="M17.066 4.999l-4.803 17.472c35.917-1.949 81.822-4.022 135.488-6.172 2.545-6.218 2.94-11.3 2.94-11.3h-133.625z"/><path fill="#fff" d="M137.714 55.999h-135.702l14.291-52h135.703l-14.292 52zm-.762-1l13.741-50h-133.627l-13.744 50h133.63"/><path fill="#fff" d="M118.523 26.438l-.729 4.126h5.626l.729-4.126h-5.626zm2.89-4.688h-7.688c-1.039.937-2.105 1.843-3.197 2.718h7.875l3.01-2.718zm-5.772 8.812l.729-4.125h-5.719l-.729 4.125h5.719zm9.605 1.876h-15.656l-.562 3.188c-.283 1.252.355 1.876 1.921 1.876h10.687c1.615.063 2.59-.5 2.924-1.688.021-.123.135-.403.336-.842.258-.75.455-1.344.596-1.783.758.313 1.406.533 1.945.656-.031.188-.106.439-.226.752-.313 1.062-.603 1.813-.864 2.25-.685 1.747-2.24 2.592-4.666 2.529h-11.719c-2.574.062-3.626-1.062-3.154-3.374l1.784-10.125-.96.656c-.299-.436-.71-.937-1.234-1.5 3.386-2.186 6.19-4.623 8.414-7.312l2.387.28c-.158.188-.432.501-.82.937-.316.375-.59.689-.82.938h9l-.315 1.781-3.119 2.812h5.53l-1.409 7.969zm-31.905 3.468l-1.825 1.312c-.052-.062-.098-.154-.137-.283-.833-1.312-1.535-2.279-2.113-2.904l1.621-1.219c.884 1 1.705 2.032 2.454 3.094zm4.445-5.53l.347-1.969h2.062l-.348 1.969h3l-.33 1.874h-3.002l-.857 4.875c-.27 1.875-1.402 2.812-3.402 2.812-1.012.062-2.049.092-3.111.092l-.031-1.404c-.01-.312-.027-.562-.057-.749.613.06 1.516.093 2.703.093 1.125 0 1.764-.438 1.918-1.312l.777-4.406h-8.625l.331-1.874h8.625zm-8.339-5.346h-2.156l-.811 4.594 2.271-.656c-.155.876-.219 1.595-.192 2.157l-2.461.656-1.484 8.438h-2.064l1.39-7.873-4.06 1.217.114-2.25 4.322-1.125.91-5.157h-1.966c-.107.251-.262.596-.464 1.032-.364 1.001-.685 1.75-.96 2.25-.165-.124-.449-.281-.855-.469-.237-.06-.414-.124-.527-.188 1.027-1.938 1.949-4.5 2.762-7.688l1.561.188c-.116.312-.262.783-.436 1.407-.246.687-.428 1.187-.545 1.5h1.781l.908-5.157h2.063l-.911 5.157h2.156l-.346 1.967zm13.834-2.437h-4.969l-.545 3.094h5.906l-.331 1.876h-13.873l.331-1.876h5.812l.547-3.094h-4.875l.33-1.874h4.875l.514-2.906h2.155l-.513 2.906h4.969l-.333 1.874zm-40.309.095l1.82.844c-2.478 3.063-4.69 5.688-6.638 7.874.51-.061 1.272-.124 2.283-.186 1.084-.127 1.846-.188 2.284-.188-.044.249-.125.53-.243.842-.079.438-.165.751-.26.938-2.731.25-4.999.53-6.804.845l-.343-1.783c.64-.437 1.234-.968 1.781-1.593l1.661-1.969c.535-.562.925-.999 1.169-1.313-1.438 0-2.637.063-3.597.188l-.341-1.781c.439-.375.893-.811 1.356-1.313 1.107-1.313 2.601-3.405 4.483-6.28l2.041.656-2.185 2.813c-1.467 1.938-2.511 3.25-3.133 3.936l2.831-.093c.653-.875 1.265-1.688 1.835-2.437zm15.32-.751l-.144 1.876-7.946.937c-.134.751-.197 1.469-.192 2.157l-.072.937 8.167-1.125-.145 1.875-8.073 1.125c.006 1.375.098 2.625.276 3.75 1.329-.811 2.987-2.062 4.974-3.75l1.285 1.219c-2.134 1.812-4.079 3.28-5.84 4.405.463 1.626 1.224 2.438 2.289 2.438.562 0 .998-.344 1.306-1.03.023-.126.086-.313.194-.563.5-1.062.83-1.873.991-2.438.165.126.563.346 1.196.656l.514.281c-.387 1.123-.814 2.125-1.28 3-.713 1.562-1.82 2.342-3.319 2.342-1.752 0-3.051-1.125-3.905-3.373-.137.062-.371.156-.705.279-2.323 1.127-4.254 1.969-5.791 2.532-.144-.251-.316-.688-.519-1.313-.132-.312-.219-.531-.258-.655l.253-.078c-.846.071-2.293.284-4.385.642l-3.191.562-.028-1.969c.385-.063 1.126-.188 2.222-.377 2.764-.436 4.757-.748 5.979-.937-.056.313-.16.72-.309 1.22l-.146.812c2.284-.676 4.445-1.564 6.477-2.688-.258-1.373-.39-2.938-.394-4.688l-4.24.655.065-1.968 4.225-.562.07-.939c-.003-.687.061-1.406.193-2.157l-3.44.375.159-1.969 3.441-.374c.173-1.688.413-3.407.721-5.157h2.157c-.32 1.814-.55 3.469-.689 4.97l7.857-.935zm-3.326-.281c-.65-.562-1.492-1.28-2.526-2.156l1.561-1.406c.495.375 1.259 1 2.293 1.875.278.188.47.343.573.469l-1.67 1.499-.231-.281zm-34.831 13.688c.509-1.125.986-2.938 1.427-5.437l.628-3.563h7.313l-1.851 10.5c-.088.502.148.749.711.749h.281c.488.063.825-.247 1.009-.937.374-1.062.699-2.374.976-3.938.227.126.547.253.963.376.238.063.416.127.53.188-.372 1.75-.739 3.127-1.104 4.126-.441 1.438-1.349 2.154-2.723 2.154h-.937c-1.512.062-2.1-.688-1.76-2.25l1.587-9h-3.282l-.281 1.595c-.638 4.688-2.276 8.124-4.913 10.312-.155-.188-.392-.438-.711-.75-.32-.313-.557-.563-.712-.752 1.326-1.124 2.275-2.248 2.849-3.373zm-5.358-11.624l1.523-.657c.068.313.153.719.253 1.218l.497 1.969-1.616.656c-.157-.875-.378-1.936-.657-3.186zm-.248-1.783l-1.09 6.189h3.938l1.091-6.189h-3.939zm2.974 15.563c-.214 1.561-1.1 2.346-2.663 2.346-.387.061-1.11.092-2.173.092.021-.125-.002-.345-.072-.655.036-.563.05-1.001.044-1.313h.468c.552.062.988.062 1.313 0 .863.062 1.326-.25 1.383-.938l1.257-7.125h-3.938c-.668 4.5-1.837 7.936-3.505 10.312-.103-.126-.295-.28-.573-.469-.372-.376-.635-.656-.788-.845 1.415-1.998 2.442-4.998 3.085-9h-1.406l.315-1.781h1.406l1.406-7.97h2.343c.118-.312.282-.717.496-1.218.16-.563.295-.968.402-1.219l2.047.095-1.069 2.343h3.281l-3.059 17.345zm-1.753-2.812l-1.614.656c-.229-1.188-.495-2.343-.797-3.47l1.523-.653.315 1.404c.292.813.485 1.501.573 2.063zm17.188-11.344h-11.813l.348-1.969h4.875c-.1-.5-.276-1.28-.524-2.344-.059-.374-.109-.624-.15-.75l2.334-.468.684 3.562h4.593l-.347 1.969z"/></svg>