<?xml version="1.0" encoding="utf-8"?>
<!-- Generator: Adobe Illustrator 16.0.0, SVG Export Plug-In . SVG Version: 6.00 Build 0)  -->
<!DOCTYPE svg PUBLIC "-//W3C//DTD SVG 1.1//EN" "http://www.w3.org/Graphics/SVG/1.1/DTD/svg11.dtd">
<svg version="1.1" id="图层_1" xmlns="http://www.w3.org/2000/svg" xmlns:xlink="http://www.w3.org/1999/xlink" x="0px" y="0px"
	 width="150.756px" height="60px" viewBox="1.25 0 150.756 60" enable-background="new 1.25 0 150.756 60" xml:space="preserve">
<polygon fill="#036BA7" points="16.303,4 152.006,4 137.713,56 2.011,56 "/>
<path fill="#1185C7" d="M14.083,15.849c39.632-1.556,84.392-3.15,134.938-4.765L150.693,5H17.065
	C17.065,5,14.48,10.632,14.083,15.849z"/>
<polygon fill="none" points="16.303,4 152.006,4 137.713,56 2.011,56 "/>
<path fill="#FFFFFF" d="M137.713,56H2.011L16.303,4h135.703L137.713,56z M136.952,55l13.741-50H17.065L3.322,55H136.952"/>
<path fill="#FFFFFF" d="M123.498,37.031l0.895-5.063h-7.969l-0.895,5.063H123.498z M126.802,30L125,40.219h-2.062l0.264-1.501
	h-7.969l-0.264,1.501h-2.156L114.615,30H126.802z M112.529,35.438c-0.151,0.5-0.297,1.155-0.439,1.97
	c-1.263,0.062-3.312,0.343-6.148,0.842c-0.711,0.126-1.228,0.219-1.549,0.283l-0.123-1.97c0.834-0.125,2.086-0.312,3.758-0.563
	C110.329,35.688,111.831,35.5,112.529,35.438z M112.754,23.532c0.316-0.375,0.555-0.656,0.712-0.844l1.726,0.844
	c-3.016,3.625-5.254,6.218-6.715,7.78l4.473-0.375c-0.227,0.563-0.398,1.188-0.518,1.875c-0.824,0.063-1.936,0.158-3.332,0.281
	c-0.636,0.063-1.08,0.094-1.328,0.094c-0.188,0-0.506,0.033-0.955,0.095c-0.385,0.063-0.709,0.126-0.969,0.188l-0.328-1.875
	c0.506-0.375,1.094-0.875,1.768-1.502c0.23-0.248,0.613-0.656,1.15-1.218c0.705-0.811,1.254-1.437,1.645-1.875
	c-0.438,0-1.007,0.032-1.704,0.095c-0.813,0-1.412,0.032-1.799,0.093l-0.325-1.874c0.505-0.375,1.047-0.968,1.626-1.781
	c1.845-2.312,3.218-4.25,4.119-5.813l2.024,0.751c-1.912,2.687-3.652,4.937-5.224,6.749c1.313,0,2.224-0.029,2.736-0.093
	C111.852,24.75,112.258,24.219,112.754,23.532z M127.762,24.562c-0.369,2.438-1.828,3.626-4.378,3.564c-0.252,0-0.655,0-1.22,0
	c-0.824,0.062-1.487,0.093-1.987,0.093c0.009-0.749-0.026-1.437-0.103-2.062c1.373,0,2.438,0,3.188,0
	c1.415,0.126,2.254-0.563,2.52-2.063c0.322-1.125,0.578-2.217,0.768-3.281h-5.346c-0.588,3.689-2.762,6.439-6.518,8.251
	c-0.389-0.624-0.765-1.156-1.125-1.593c3.191-1.438,5.02-3.657,5.487-6.658h-3.47l0.33-1.875h13.124
	C128.658,21.063,128.234,22.938,127.762,24.562z M97.393,27.282l-2.264,12.843h-2.25l2.266-12.843H97.393z M86.066,30.376
	c0.188-1.063,0.369-2.093,0.545-3.094h2.25c-0.155,0.875-0.338,1.907-0.545,3.094c-0.68,4.563-2.862,7.903-6.551,10.03
	c-0.414-0.502-0.875-1.063-1.39-1.688C83.602,37.094,85.498,34.312,86.066,30.376z M103.646,26.906
	c-0.158,0.188-0.471,0.532-0.933,1.032c-0.401,0.501-0.717,0.875-0.948,1.125c-4.061-2.5-6.881-5.281-8.467-8.344
	c-2.926,3.126-6.812,6.032-11.66,8.718c-0.082-0.248-0.234-0.624-0.459-1.125c-0.227-0.5-0.385-0.842-0.475-1.03
	c5.264-2.563,9.383-5.719,12.357-9.469l2.574,0.281c-0.232,0.251-0.475,0.563-0.729,0.938
	C96.764,22.345,99.675,24.97,103.646,26.906z M66.932,26.813h2.064l-0.729,4.125c2.186-1.062,4.32-2.342,6.396-3.842l1.016,1.686
	c-2.61,1.688-5.213,3.156-7.809,4.406l-0.48,2.72c-0.26,1.125,0.27,1.655,1.593,1.594h2.157c1.25,0,2.031-0.53,2.344-1.594
	c0.363-0.999,0.674-2.063,0.937-3.188c0.706,0.252,1.354,0.469,1.948,0.657c-0.465,1.563-0.898,2.781-1.303,3.656
	c-0.548,1.687-1.884,2.53-4.008,2.53h-3.094c-2.189,0-3.095-1.063-2.72-3.188L66.932,26.813z M66.033,22.875h-5.345
	c-1.382,2.875-2.39,4.875-3.025,6h2.718l0.81-4.594h1.781l-0.81,4.594h2.53l-0.328,1.874h-2.532l-0.53,3.001l2.88-0.375
	c-0.196,0.751-0.343,1.407-0.441,1.969l-2.769,0.28l-0.81,4.595H58.1l0.775-4.406c-1.721,0.188-3.316,0.375-4.787,0.562l0.178-2.062
	c0.436,0,1.166-0.062,2.188-0.188c1.198-0.062,2.117-0.126,2.752-0.188l0.563-3.188h-4.313l0.33-1.874
	c0.095-0.188,0.238-0.468,0.431-0.844c0.764-1.5,1.567-3.218,2.408-5.156h-2.157L56.801,21h2.718
	c0.511-1.125,0.979-2.186,1.407-3.187L62.954,18c-0.129,0.374-0.394,0.999-0.798,1.875c-0.276,0.501-0.468,0.876-0.573,1.125h4.78
	L66.033,22.875z M78.837,25.218c-0.313,0.375-0.812,1.064-1.487,2.063c-2.245-1.812-3.832-3.969-4.765-6.47
	c-1.918,2.377-4.369,4.563-7.345,6.563c-0.082-0.249-0.279-0.719-0.596-1.406c-0.155-0.188-0.251-0.343-0.292-0.469
	c3.499-2.124,6.174-4.718,8.027-7.782l2.2,0.283l-0.633,0.937C74.959,21.688,76.591,23.782,78.837,25.218z M33.479,31.534
	c0.129,0.036,0.304,0.085,0.55,0.153c-1.365,3.125-2.543,5.904-3.534,8.342l-1.853-0.655c1.437-3.187,2.584-5.967,3.441-8.342
	C32.291,31.146,32.764,31.316,33.479,31.534z M34.839,27.094l-1.672,1.5c-0.114-0.062-0.243-0.219-0.385-0.468
	c-1.012-1-1.781-1.783-2.305-2.345l1.577-1.5C33.138,25.218,34.065,26.157,34.839,27.094z M32.317,19.594l1.655-1.405
	c0.855,0.811,1.696,1.719,2.519,2.718l-1.763,1.5C33.915,21.344,33.11,20.407,32.317,19.594z M39.466,23.72l-0.689,3.375h4.219
	c-0.155,0.875-0.418,2.188-0.789,3.938c-0.537,2.688-0.942,4.625-1.213,5.812c-0.318,1.812-1.355,2.717-3.104,2.717
	c-0.575,0.063-1.174,0.096-1.799,0.096l-0.028-1.969c0.624,0,1.094,0,1.407,0c1.052,0.062,1.628-0.375,1.73-1.313
	c0.067-0.375,0.203-0.968,0.41-1.78c0.586-2.625,0.979-4.502,1.179-5.625h-2.438c-0.034,0.188-0.062,0.344-0.082,0.468
	C37.34,34,35.768,37.593,33.556,40.219l-1.345-1.406c1.913-2,3.314-5.154,4.2-9.469c0.41-1.625,0.805-3.5,1.179-5.624h-1.686
	l0.346-1.969h3.657c-0.17-0.812-0.304-2-0.403-3.562l2.113-0.283c-0.005,0.375,0.052,0.937,0.169,1.688
	c0.095,0.875,0.157,1.594,0.183,2.157h2.25l-0.346,1.969H39.466z M54.211,20.907l-0.33,1.874h-6.75
	c-0.508,0.751-1.078,1.5-1.709,2.25h7.313L52.386,27l-3.34,3l-0.132,0.749h3.563l-0.332,1.876h-3.563l-0.81,4.596
	c-0.235,1.686-1.26,2.529-3.073,2.529c-0.885,0.062-1.703,0.096-2.452,0.096c0.031-0.188,0.015-0.439-0.057-0.752
	c0.038-0.562,0.046-0.97,0.03-1.218c0.749,0,1.467,0,2.155,0c0.926,0.06,1.43-0.313,1.51-1.125l0.728-4.126H42.77l0.332-1.876h3.843
	l0.232-1.313l2.994-2.624h-5.25l0.248-1.407l-0.823,0.938c-0.359-0.436-0.81-0.905-1.345-1.406c1.863-2.062,3.476-4.468,4.835-7.219
	L49.942,18c-0.55,0.999-1.097,1.969-1.637,2.906L54.211,20.907L54.211,20.907z"/>
</svg>
