<svg width="640" height="80" viewBox="0 0 640 80" xmlns="http://www.w3.org/2000/svg" xmlns:xlink="http://www.w3.org/1999/xlink" xmlns:sketch="http://www.bohemiancoding.com/sketch/ns"><title>Rectangle 7</title><desc>Created with Sketch.</desc><defs><path d="M4.42 13.85c-.548 1.289-1.189 2.603-1.92 3.941l-1.508-.595c.091-.149.205-.372.343-.67.73-1.338 1.256-2.404 1.577-3.198l1.508.521zm-1.44-1.561v-6.47h5.144v-5.726h1.646v2.007h7.474v1.562h-7.474v2.157h5.965v6.47h-12.755zm1.646-1.563h9.463v-3.345h-9.463v3.345zm2.126 6.841c-.137-.545-.366-1.412-.686-2.602-.137-.495-.229-.867-.274-1.116l1.509-.224.205.67c.412 1.389.686 2.379.823 2.975l-1.577.296zm4.32-.149c-.183-.793-.594-2.008-1.234-3.643l1.509-.297.137.371c.548 1.338.936 2.38 1.165 3.124l-1.577.445zm4.801.149c-.504-1.141-1.098-2.404-1.784-3.791l1.509-.521c.092.198.275.57.549 1.115.685 1.289 1.12 2.157 1.303 2.604l-1.577.594zm3.628-12.791v-1.636h6.241v-2.974h1.714v2.974h6.309v1.636h-6.309v3.124h7.406v1.637h-7.406v5.873h4.32v-4.239h1.646v6.693h-1.646v-.966h-12.001v-5.651h1.646v4.163h4.321v-5.873h-7.407v-1.637h7.407v-3.124h-6.241zm19.665 3.124c.091 4.312-.641 7.66-2.194 10.04-.23-.298-.641-.77-1.235-1.414.731-1.14 1.211-2.328 1.441-3.57.227-1.139.343-2.899.343-5.279v-5.577h6.376l-.547-1.785 1.851-.222.069.297c.181.744.342 1.313.479 1.71h5.761v5.8h-12.344zm0-1.561h10.698v-2.678h-10.698v2.678zm1.098 11.601v-7.586h11.04v7.586h-1.577v-1.191h-7.886v1.191h-1.577zm1.577-2.53h7.886v-3.569h-7.886v3.569zm10.616-5.651v-1.413h1.028v-6.321h1.714c.045-.248.115-.569.206-.967.045-.445.091-.767.138-.965l1.508.074-.48 1.858h2.401v13.758c.045 1.24-.504 1.859-1.647 1.859-.274.049-.8.075-1.577.075 0-.101-.046-.274-.137-.521-.046-.446-.092-.794-.137-1.041h.342c.412.048.732.048.96 0 .64.048.937-.2.892-.745v-5.651h-2.88c.091 3.569-.32 6.295-1.234 8.181-.092-.101-.252-.224-.48-.373-.321-.296-.549-.52-.686-.669.777-1.586 1.142-3.966 1.097-7.139h-1.028zm2.331-1.413h2.88v-4.908h-2.88v4.908zm1.303-.966c-.23-.695-.526-1.537-.892-2.529l1.029-.52.343.967.618 1.561-1.098.521zm.137 6.693c-.32-.942-.663-1.86-1.029-2.752l1.029-.521.412 1.115c.319.646.549 1.191.685 1.637l-1.097.521zm6.241-4.313c.136 3.719-.617 6.443-2.264 8.181-.137-.15-.343-.348-.617-.596-.273-.249-.48-.446-.616-.595.822-.892 1.371-1.784 1.645-2.677.229-.893.343-2.329.343-4.313v-2.826h5.349v8.329c0 .396.206.595.617.595h.206c.365.049.571-.199.617-.744.137-.842.205-1.883.205-3.123.183.099.435.198.755.297.182.049.319.099.411.148-.046 1.388-.137 2.479-.274 3.272-.137 1.14-.709 1.71-1.714 1.71h-.686c-1.097.05-1.624-.546-1.577-1.784v-7.139h-2.4v1.264zm-2.675-5.205v-1.563h3.566c-.137-.395-.367-1.016-.686-1.858-.092-.297-.16-.495-.205-.596l1.645-.371.96 2.825h3.361v1.563h-8.641z" id="a"/></defs><g sketch:type="MSLayerGroup" fill="none"><path d="M318.289 71.48l-65.953-63.21h131.903l-65.95 63.21" fill="#1185C7" sketch:type="MSShapeGroup"/><path d="M318.289 71.48l-65.953-63.21h131.903l-65.95 63.21zm0-.695l64.709-62.018h-129.419l64.71 62.018z" fill="#00B7EE" sketch:type="MSShapeGroup"/><g transform="translate(284 15.953)"><mask id="b" sketch:name="Clip 16"><use xlink:href="#a"/></mask><path d="M.992.094h68.128v17.847h-68.128v-17.847z" fill="#fff" sketch:type="MSShapeGroup" mask="url(#b)"/></g><path d="M318.408 52.829l-8.35-8.453v-2.259l8.35 8.455 8.35-8.455v2.259l-8.35 8.453zm-.002 8.328l-14.315-14.089v-3.763l14.315 14.09 14.317-14.09v3.763l-14.317 14.089z" fill="#CFE7F4" sketch:type="MSShapeGroup"/><path sketch:type="MSShapeGroup" d="M0 0h640v80h-640z"/></g></svg>