<?xml version="1.0" encoding="utf-8"?>
<!-- Generator: Adobe Illustrator 16.0.0, SVG Export Plug-In . SVG Version: 6.00 Build 0)  -->
<!DOCTYPE svg PUBLIC "-//W3C//DTD SVG 1.1//EN" "http://www.w3.org/Graphics/SVG/1.1/DTD/svg11.dtd">
<svg version="1.1" id="图层_1" xmlns="http://www.w3.org/2000/svg" xmlns:xlink="http://www.w3.org/1999/xlink" x="0px" y="0px"
	 width="155px" height="60px" viewBox="0 0 155 60" enable-background="new 0 0 155 60" xml:space="preserve">
<polygon fill-rule="evenodd" clip-rule="evenodd" fill="#036BA7" points="16.303,5 152.006,5 137.713,57 2.011,57 "/>
<path fill-rule="evenodd" clip-rule="evenodd" fill="#1185C7" d="M7.233,37.999c0,0-6.408-5.856,139.552-14.007
	C148.507,13.956,152.006,5,152.006,5H16.303L7.233,37.999z"/>
<path fill="#FFFFFF" d="M137.713,57H2.011L16.303,5h135.703L137.713,57z M136.952,56l13.741-50H17.065L3.322,56H136.952"/>
<path fill="#FFFFFF" d="M118.523,26.438l-0.729,4.126h5.626l0.729-4.126H118.523z M121.413,21.75h-7.688
	c-1.04,0.937-2.106,1.843-3.198,2.718h7.875L121.413,21.75z M115.641,30.563l0.728-4.126h-5.719l-0.729,4.126H115.641z
	 M125.246,32.438H109.59l-0.562,3.187c-0.284,1.252,0.355,1.876,1.92,1.876h10.687c1.615,0.063,2.59-0.5,2.923-1.688
	c0.022-0.124,0.135-0.404,0.336-0.842c0.258-0.751,0.456-1.344,0.596-1.783c0.758,0.313,1.406,0.532,1.946,0.656
	c-0.032,0.188-0.107,0.439-0.226,0.751c-0.313,1.063-0.603,1.814-0.865,2.25c-0.684,1.748-2.239,2.593-4.666,2.53h-11.718
	c-2.575,0.063-3.626-1.063-3.154-3.374l1.784-10.125l-0.96,0.656c-0.299-0.436-0.71-0.937-1.234-1.5
	c3.385-2.186,6.19-4.623,8.414-7.312L117.197,18c-0.158,0.188-0.431,0.501-0.82,0.937c-0.317,0.375-0.59,0.689-0.821,0.938h9
	l-0.315,1.781l-3.119,2.813h5.531L125.246,32.438z M93.341,35.906l-1.825,1.313c-0.052-0.063-0.098-0.155-0.137-0.283
	c-0.833-1.313-1.535-2.28-2.113-2.905l1.621-1.219C91.772,33.813,92.592,34.844,93.341,35.906z M97.786,30.376l0.347-1.969h2.063
	l-0.348,1.969h3l-0.331,1.874h-3.001l-0.858,4.875c-0.27,1.875-1.402,2.813-3.402,2.813C94.244,40,93.207,40.03,92.145,40.03
	c-0.007-0.313-0.017-0.781-0.031-1.405c-0.01-0.313-0.028-0.562-0.058-0.749c0.614,0.06,1.516,0.093,2.704,0.093
	c1.125,0,1.763-0.438,1.918-1.313l0.777-4.406H88.83l0.331-1.874H97.786z M89.447,25.03h-2.156l-0.811,4.594l2.271-0.656
	c-0.155,0.876-0.219,1.595-0.193,2.157l-2.46,0.656l-1.485,8.438H82.55l1.389-7.874l-4.059,1.218l0.114-2.25l4.323-1.125
	l0.909-5.157H83.26c-0.107,0.251-0.262,0.596-0.464,1.032c-0.364,1.001-0.684,1.75-0.96,2.25c-0.165-0.124-0.45-0.281-0.855-0.469
	c-0.238-0.06-0.414-0.124-0.528-0.188c1.028-1.937,1.95-4.5,2.762-7.687l1.561,0.187c-0.117,0.313-0.263,0.783-0.436,1.407
	c-0.246,0.687-0.428,1.187-0.545,1.5h1.781l0.909-5.157h2.063l-0.911,5.157h2.156L89.447,25.03z M103.281,22.593h-4.968
	l-0.545,3.094h5.906l-0.331,1.876H89.469l0.331-1.876h5.812l0.546-3.094h-4.875l0.331-1.874h4.875l0.513-2.906h2.155l-0.513,2.906
	h4.97L103.281,22.593z M73.474,37.031l0.958-5.438h-4.875l-0.958,5.438H73.474z M76.733,29.719l-1.835,10.406h-1.969l0.247-1.407
	H68.3l-0.247,1.407H65.99l1.837-10.406H76.733z M57.934,31.594l-0.96,5.438h4.782l0.958-5.438H57.934z M63.272,40.125H61.21
	l0.247-1.407h-4.78l-0.248,1.407h-2.062l1.835-10.406h8.905L63.272,40.125z M62.271,20.812l-0.777,4.406H73.12l0.777-4.406H62.271z
	 M58.897,27.187l1.472-8.344h16.125l-1.472,8.344H58.897z M32.666,27.187h5.531c-0.276-0.562-0.695-1.373-1.257-2.438
	c-0.299-0.436-0.495-0.749-0.584-0.937l1.979-1.125c0.893,1.313,1.571,2.438,2.031,3.375l-1.887,1.125h5.344
	c1.422-1.687,2.55-3.125,3.386-4.312l1.992,0.937c-0.401,0.501-1.064,1.25-1.99,2.25c-0.401,0.501-0.718,0.877-0.95,1.125h6.094
	l-0.348,1.969H34.568l-0.263,1.5c-0.56,3.876-2.027,7.063-4.405,9.563c-0.548-0.438-1.123-0.906-1.722-1.406
	c2.08-1.876,3.378-4.625,3.892-8.249L32.666,27.187z M53.775,22.312H31.838l0.346-1.969h10.406
	c-0.018-0.248-0.077-0.624-0.175-1.125c-0.039-0.5-0.096-0.873-0.178-1.125l2.488-0.281c0.068,0.313,0.135,0.813,0.203,1.5
	c0.047,0.438,0.082,0.782,0.099,1.03h9.095L53.775,22.312z"/>
<path fill-rule="evenodd" clip-rule="evenodd" fill="none" d="M15,5"/>
</svg>
