<svg xmlns="http://www.w3.org/2000/svg" width="640" height="157" viewBox="0 0 640 157"><g fill-rule="evenodd" clip-rule="evenodd" stroke="#fff" stroke-miterlimit="10"><path fill="#231815" d="M291.845 59.113h106.155v1.12l-8.301-.008v1.172h-89.557v-1.284h-8.297z"/><path fill="#F9BE00" d="M267.208 25.984c-1.015-.064-2.272-.36-4.085.071-1.651.399-1.278 1.141-1.417 1.813-.139.655-.456 3.566-.27 4.037.167.451 2.212 1.576 3.526 2.054 1.277.479 2.279.813 3.584.675 1.197-.121 2.587-1.187 2.874-1.318.272-.146 1.048-.479 1.048-.479-.226-1.218-.111-4.195-.111-4.195-.726-1.865-2.458-2.669-2.71-2.666-.237.004-1.419.07-2.439.008zm-1.9.488c.691.049.819.138 1.385.37.562.212 1.516.893 1.017 2.079-.497 1.203-1.85 2.106-2.36 2.202-.525.097-1.41.505-2.286.347-.454-.066-.695-.499-.637-1.882.044-1.382.198-2.49.703-2.803.505-.332 1.448-.36 2.178-.313z"/><path fill="#009844" d="M254.758 67.39s.384.161.657.031c.286-.13 1.031-.3 1.375-.521.341-.202 1.574-.633 1.992-.783.415-.167 1.9-.488 2.116-.582.22-.093.4-.222.543-.225.146 0 .689-.06.562-.261-.148-.178-.911.047-1.216.034-.309-.017-2.306.347-3.356.81-1.049.464-1.751.927-2.094 1.092-.362.166-.579.405-.579.405zm30.086-5.517s.057.254-.197.312c-.452.113-.64-.211-.964-.246-.347-.032-.69.022-.928-.101-.237-.144-.31-.178-.854-.172-.548-.013-2.543-.013-2.42-.36.104-.346.214-.402.394-.421.543-.079 2.037.017 1.729-.052.508.104.454.141.964.262.507.123.89.192 1.105.264.239.087.606.32.789.445.165.108.382.069.382.069zm-2.681-6.677s-.085.437-.357.312c-.257-.107-1.44-.477-3.132-.695-1.69-.223-3.16.139-3.853-.09-.693-.232-.785-.486-.206-.617.814-.171 3.286-.177 3.959-.038.656.139 3.589 1.128 3.589 1.128zm-34.855 4.218c.812-.462 1.302-.629 1.717-.87.417-.26.666-.714.881-.771.199-.036.748.175 1.111.044.38-.15.85-.57 1.102-.628.255-.038 1.415-.396 1.867-.436 1.161-.12 1.159-.394 1.575-.413.764-.062.633-.227 1.487-.542 2.188-.877 15.959-4.638 26.198-1.157.42.142.949.137 1.421.277.495.141.569.211.588.449.018.235-.138.855-.051.908.112.073.132.362.461.359l-.088.419c.002.128-.102.346-.099.729l.235.052s.347.267.62.338c0 0-.383.003-.171 1.019.112.597-.136 1.036-.333 1.295-.178.255.021.396.352.431.543.068.308.16.488.303 0 0-1.015.01-1.467-.003-.291-.016-.249.656-.119 1.002.167.397 1.15.607 2.192 1.086 1.202.552 1.477.856 2.682 1.445 0 0-12.914-3.946-25.238-.578 0 0-2.087.256-2.172 1.003 0 0 1.237-.103 1.636.11 0 0-2.989.683-5.342 1.722-2.333 1.04-3.504 1.813-6.088 3.363-2.764 1.662-3.414 1.761-3.835 1.726-.416-.051-.364-.268-.515-.649-.131-.359-.641-.755-.97-.878-.31-.107-.873-.121-1.091-.209-.236-.089-.837-.011-1.113-.3-.275-.27-.287-1.595-.199-1.796.091-.217.168-1.51-.105-1.761-.278-.251-.798.133-1.256-.081-.457-.229-.587-.756-.721-1.479-.153-.747-.904-1.231-.944-1.719-.044-.818.372-1.076.786-1.371.433-.312 3.707-1.961 4.518-2.439z"/><path fill="#E50012" d="M253.837 33.266c-2.032.384-4.277 1.132-5.433 1.795-1.177.666-3.417 1.76-3.907 2.109-.485.351-.315.893-.533 1.168-.214.291-.43.513-.428.714 0 .215 1.537 3.108 1.537 3.108.09.142.095.252-.031.436-.125.166-.125.273-.215.566-.105.291-.299.837-.188 1.035.129.218.291.179.238.416-.034.234.022.42.022.42s2.766-1.498 3.525-1.926c.778-.442 2.746-1.442 3.168-1.21.38.215-.081 1.311-.081 1.311 1.085-.499 1.426-.634 3.592-.49 2.181.161 3.094.245 3.252.133.164-.11.379-.492.561-.495.163-.002.364.178.494.178.127-.003 2.376-2.331 3.098-4.553.759-2.313.713-3.296-.052-3.688-.677-.356-1.733-.547-2.246-.887-.729-.466-4.342-.539-6.373-.14zm19.363 2.034s-.076 1.289-.035 1.816c.042.526-.03 2.598-.057 3.562-.044.944-.461 3.057-.822 3.35-.343.256-1.239 1.318-1.366 1.666-.121.365-.248.512-.485.623-.214.091-.901.571-1.734.869-.852.281-1.083.755-2.354.967-1.249.213-2.8-.5-3.368-.714-.563-.229-1.088-.115-1.088-.115s1.691-1.58 1.413-2.194c-.296-.615.104-.998.243-1.511.139-.51-.266-1.179-.616-1.684-.335-.505-.518-.773-.213-1.141.305-.365.861-1.37.859-1.608-.001-.253.644-.95.966-1.371.341-.42.81-.681 1.248-.757.451-.095 1.632-.214 2.717-.66.958-.374 1.877-1.052 4.692-1.098zm.684-8.617s2.773-.518 3.262-.685c.471-.169 2.032-.328 3.308.113.985.336 1.233 1.494 1.236 1.84.002.346.049 1.6.106 1.907.058.328.069 1.361.114 2.181.025.816-.137 2.742-.009 3.269.154.505.811 1.245.89 1.536.075.31.004.599-.484.568-.491-.014-1.354-.497-1.806-.383-.469.095-1.043 1.007-1.458 1.356-.413.368-1.407 1.05-1.892 1.419-.378.275-.759.57-1.047.644-.291.074-.675.099-.988-.554-.318-.669-.357-1.396-.328-1.759.016-.362-.1-1.054-.1-1.054s.347.052.473.032c.111-.037.196-.438-.011-1.161-.223-.743-.627-1.355-.577-3.464.056-2.107.381-3.765.121-4.343-.241-.581-.679-.756-.772-1.027l-.111-.29c-.055-.128.073-.145.073-.145zm-3.976-11.17c-1.433.068-3.729 1.36-5.306 3.792-1.415 2.12-.829 2.477-.442 2.926.383.453 2.028 1.509 2.394 1.779.369.27 1.567.366 1.567.366-.042-.491-.549-.559-.407-.886.122-.349 1.863-.6 2.425-.404 1.188.369 2.456 1.865 2.696 2.081.255.232.784.628 1.385.659.618.047 1.308-.068 1.861-1.072.374-.676 1.074-1.683 1.249-2.301.176-.638.313-1.621.304-2.473-.01-.854.029-2.635-.045-2.907-.077-.272-.946-.354-1.583-.438-.637-.086-2.385-.503-3.205-.66-.819-.158-1.457-.549-2.893-.462zm-14.103 1.258l.42-.021c.377-.06.59-.441.756-.752.159-.291.538-.66 1.175-.502.636.137.729.193 1.51.314.765.136 1.757-.456 2.523-.262 1.837.473 1.759 1.635 1.765 2.399.008.78-.834 1.66-2.453 3.984-2.49 3.601-2.676 6.526-2.219 7.249.464.742.597 1.392.417 1.56-.18.146-.346.146-.488.31-.126.169-.345.132-.561.226-.472.225-1.194.503-2.412.352-1.258-.153-2.132-.507-2.426-.814-1.318-1.367-1.863-3.289-2.149-4.685-.306-1.395.041-3.288.303-4.526.277-1.218.52-4.019 1.815-5.738.27-.385.831-.407.959-.263 0 0-.065.619.064.961.112.346.312.235.314.397.002.146.146.182.344.087.111-.057.055-.221.343-.276z"/><path fill="#231815" d="M311.787 20.633s3.682-1.102 8.981.727c0 0 1.768.789 2.891 2.1 0 0 .479 1.808.102 2.183 0 0 .229 1.124-3.801 1.059 0 0-2.621.481-2.993.854-.738.3-1.138.487-1.623.646 0 0 .373.372 4.008-.375 0 0 3.974-.873 6.969-.687 0 0 3.117.043 4.049 1.163.356 1.026 1.282 3.054 1.437 3.179.022-.062-4.142.336-5.862-.496 0 0 .021-.584.397-.894 0 0 .351-.665-2.639-.312 0 0-7.11.663-10.854 1.785.319 0-4.106 1.125-4.304 1.686 0 0 3.577.041 6.009 1.912 0 0 1.831.624.165 5.572-.002-.008-.641 2.164-2.327 4.863 0 0-1.974 2.808-2.161 3.368 0 0-2.787-.687-6.905 3.431-1.062-.531-1.652-.109-2.41.536 1.219-1.383 3.242-3.698 3.242-4.363 0-.538-1.26 1.227-2.056 1.724.199-.074 1.946-2.376 2.329-3.386 0 0 2.495-4.115 2.119-10.288 0 0 .311-.562-.998-2.06-.147-.097.103-.312.665-.562 0 0-.125-.438-2.158.188 0 0-.998.727-3.061-.209 0 0 .147-.395.728-.727-.105.075 3.046-1.591 5.634-2.495 2.47-.861 2.846-1.122 5.552-1.745.166.168.943-2.792-1.931-1.248-.354.191-.751.533-1.312.771.034.023.762-.477 1.354-1.159.633-.731 1.422-1.244 1.849-1.503 0 0 .017-4.035-2.496-5.113l1.411-.125zm53.286 30.93c-.616-.575-1.284-1.65-1.439-2.458-.229-1.196-.104-1.555.43-1.555.732 0 1.39 1.58 1.39 1.58s1.319.701 1.257 1.058c-.133.774-1.477 1.384-1.638 1.375zm11.426-16.509s-1.452-.29-2.353-.589c-.892-.299-5.522.351-8.693 4.124-2.279 2.717-.795 5.067.692 6.058 1.491.991 4.437 1.82 5.526 1.416 1.087-.393 3.339-3.765 3.871-5.85.52-2.082.957-5.159.957-5.159zm-11.581-16.852c-1.078 7.27-4.336 11.155-4.336 11.155s1.489-1.717 1.813-1.914c.248-.153.489.197.436.485-.043.284-.171.583-.171.583s1.17-1.332 1.592-1.341c.704-.016.578.572 1.337.596 1.291.052 2.282-2.013 2.282-2.013l1.443.18c1.632-3.408 5.09-3.846 5.09-3.846-.681 5.067-8.117 7.52-8.117 7.52s-1.047-.602-1.379-.481c-.345.112-.564.591-.633.864-.07.265-.958 2.153-1.247 2.776-.301.621-1.16 3.389-1.333 4.099-.168.7-1.051 6.447-1.188 8.354-.144 1.904-.1 8.524 2.078 10.616 2.178 2.095 4.567 1.284 6.275-.128 1.708-1.408 2.99-2.905 2.99-2.905s2.265.727 4.995.042c2.738-.681 5.339-2.005 6.663-2.477 1.325-.469 3.255-.384 4.271-1.494.793-.869.489-1.947.173-2.535-1.078-2.01.391-1.974.391-1.974-2.562.137-2.51-.239-1.885-.538.535-.256 1.501-.436 1.501-.436s.803-.164.65-.621c-.128-.378-.566-.694-.079-1.089.344-.281 1.549-.758 1.549-.758-3.762.024-5.988.785-7.867 1.485-1.881.708-3.569 1.93-4.611 2.503-1.28.7-2.377.443-2.377.443.883-1.767 1.325-4.844 1.325-4.844s-.686-2.132.072-3.971c.735-1.835 1.121-4.338.68-4.894-.455-.557-.752-.787-4.126-.214-3.377.581-5.422 2.443-6.576 3.34-2.136 1.648-3.648 5.725-3.648 5.725.342-7.134 3.264-9.681 3.264-9.681s4.646-1.074 5.407-1.347c4.431-1.624 6.063-3.437 6.063-3.437l-.027-2.135c-1.579-.664-1.854-2.604-1.854-2.604s.589-.249.908-.395c.315-.153.701-.348.827-.135.128.204 0 .314.215.398.22.078 1.188-.126 1.573-.288.383-.153 1.219-.309 1.219-.309-.802-.853-1.162-1.535-1.162-1.535-1.348.494-2.477.553-3.218.698-.737.153-2.113.709-3.017 1.221-.917.514-2.596 1.725-3.155 1.648-.383-.06-.281-.381.121-.7.396-.306.608-.435.822-.98.215-.538 2.22-2.29 2.468-2.871.237-.59.258-1.339.258-1.339-1.598-1.239-4.119-1.216-5.545-1.283-1.421-.068-3.578.036-3.578.036s.755.2.378 2.745zm-9.96 10.882c3.235 1.98 2.048 6.936 1.398 8.618-.642 1.683-1.586 3.271-2.325 3.519-.732.238-2.105-.188-2.105-.188s.52.401-.274 2.418c-1.377 3.491-.214 4.673-.214 4.673s1.467-.31 1.861-.403c.402-.095 2.324-2.252 2.938-3.049.61-.795 1.009-2.17 1.376-3.815.479-2.139 1.096-5.86.701-9.083-.156-1.229-.454-1.988-.454-1.988s-.204.144-.726-.137c-.785-.42-2.176-.565-2.176-.565zm-4.7-10.873s.446-.02 1.554-.352c1.171-.342 2.78-.385 3.437.043.647.428 1.939 2.811 2.238 4.042.425 1.732-.109 2.298-.109 2.298s2.302-.454 2.779-.454c.488 0 1.738.514 1.738.734 0 .231 0 .718-.687.972-.682.26-1.904-.084-2.499-.117-.595-.026-1.021 0-1.223.341-.196.343-.109 1.086-.196 1.343-.176.536-.542.562-.542.562s-.108-.965-.28-1.391c-.171-.427-.684-.224-.938 0-.258.229-.766 1.306-1.196 1.759-.746.795-2.395 2.604-3.887 7.447-2.393 7.666-2 17.108-2 17.108s-1.092-.965-1.092-1.364c0-1.034.136-8.484 1.349-14.727.913-4.715 3.649-8.456 3.649-8.456s-2.889 1.444-3.497 1.947c-.606.513-1.414 1.31-1.789 1.494-.369.18-.651-.119-1.003-.024-.35.094-1.366.138-1.366.138s.812-.625 1.742-1.367c1.846-1.479 9.096-5.331 9.096-5.331l-.836-1.392c-.769-1.281-2.723-4.296-3.772-4.979-.142-.094-.67-.274-.67-.274zm-16.837 16.22s-.979.555-1.306.683c-.312.129-.834.794-.749 1.181.085.391.561.578 1.204 1.032.64.446 1.93 1.237 1.93 1.237s.418.496 1.719-1.835c1.194-2.169 1.706-2.357 1.921-2.229.213.128.323.299.323.299-1.111.812-1.52 2.546-1.773 3.467-.258.922-1.19 3.901-.666 5.339.361.979 1.133 1.181 1.604 1.544.469.36 1.841 1.197 2.103 2.086.256.904-.672 1.051-.672 1.051s.85-.189 1.212.152c.345.335.517.514.73.6.212.086.509.387 1.282.437.764.052.545-.644.545-.865 0-.214-.505-1.886-2.187-3.1-1.536-1.11-2.794-1.213-3.212-1.538-.604-.477-.981-1.931-.783-3.374.188-1.436.706-3.552 1.263-4.109.562-.561 1.449-1.885 1.989-2.397.651-.627.931-.497.931-.497s-.129-.151-.17-.398l-.128-.385c-.033-.138.019-.292.019-.292s-1.795.043-2.062.118c-.274.08-.253.163-.573.239-.322.078-.758.351-1.141.718-.389.359-.742 1.161-2.18 1.632-2.46.8-1.173-.796-1.173-.796zm2.798-8.405s2.203.975 2.004 3.477c-.057.914-.954 1.16-1.563 1.521-.599.366-1.151.427-1.972 2.486 0 0-.061-.431-.274-.926-.211-.493-.28-2.329-.024-3.337.266-1.01.862-2.612.07-3.307l1.759.086zM394.999 15.403c1.652 0 3.001 1.347 3.001 3.001 0 1.652-1.349 3.002-3.001 3.002-1.654 0-3-1.35-3-3.002 0-1.654 1.346-3.001 3-3.001zm0 .512c-1.37 0-2.492 1.118-2.492 2.489 0 1.37 1.122 2.487 2.492 2.487s2.489-1.117 2.489-2.487c0-1.371-1.119-2.489-2.489-2.489zm-1.247 4.123h.669v-1.278h.705c.241 0 .391.047.461.141.047.068.073.229.073.477l.017.391.058.271h.754v-.087c-.069-.026-.114-.076-.125-.15-.016-.076-.021-.243-.021-.501 0-.284-.035-.484-.104-.6-.054-.083-.157-.157-.312-.228.155-.054.283-.152.372-.295.089-.14.132-.303.132-.484 0-.297-.104-.534-.322-.709-.171-.144-.406-.214-.705-.214h-1.651v3.266h-.001zm.669-1.83h.799c.184 0 .318-.033.401-.103.085-.067.129-.181.129-.344 0-.112-.031-.205-.085-.276-.082-.1-.213-.151-.395-.151h-.85v.874z"/><path fill="#E50012" d="M306.125 67.679c-.255-.241-.516-.422-.78-.538-.261-.122-.543-.179-.834-.179-.459 0-.826.138-1.104.413-.275.279-.417.648-.417 1.11 0 .45.13.81.397 1.075.265.271.621.404 1.068.404.268 0 .539-.058.818-.169.28-.114.583-.292.91-.542l-.09 2.883c-.305.124-.609.215-.911.275-.302.062-.609.092-.913.092-.379 0-.743-.042-1.092-.126-.353-.084-.666-.201-.948-.358-.684-.388-1.205-.881-1.554-1.479-.356-.597-.533-1.282-.533-2.055 0-.572.103-1.104.305-1.593.199-.487.488-.919.87-1.291.386-.375.831-.661 1.336-.856.508-.195 1.061-.292 1.649-.292.315 0 .624.033.931.097.305.065.601.161.893.292v2.837h-.001zm25.122.08h4.2780000000000005l.016.349.005.205c0 .439-.045.84-.128 1.201-.084.363-.209.688-.37.965-.394.657-.908 1.157-1.532 1.506-.629.347-1.337.52-2.131.52-.588 0-1.133-.098-1.638-.292-.501-.192-.951-.479-1.338-.855-.387-.376-.678-.806-.875-1.291-.199-.487-.296-1.013-.296-1.58 0-.572.097-1.104.301-1.591.198-.486.49-.912.871-1.283.385-.372.832-.659 1.337-.853.505-.195 1.05-.294 1.638-.294.796 0 1.502.172 2.119.519.62.34 1.123.846 1.514 1.507l-1.99.704c-.352-.634-.887-.841-1.576-.841-1.085 0-1.755.832-1.755 2.115 0 1.282.67 2.08 1.755 2.08.886 0 1.491-.445 1.741-1.396h-1.945v-1.395h-.001zm26.332 4.541c-.927-.054-1.31-.395-1.163-1.076l2.77-4.305h-2.715v-2.281h5.218c.799.029 1.337.277 1.31 1.002l-2.749 4.301h2.996v2.359h-5.667zm26.608-1.311v-6.352h2.798v5.176h2.715v2.487h-3.902c-.985.009-1.517-.429-1.611-1.311z"/></g></svg>