<?xml version="1.0" encoding="UTF-8" standalone="no"?>
<svg width="640px" height="120px" viewBox="0 0 640 120" version="1.1" xmlns="http://www.w3.org/2000/svg" xmlns:xlink="http://www.w3.org/1999/xlink" xmlns:sketch="http://www.bohemiancoding.com/sketch/ns">
    <!-- Generator: Sketch 3.3 (11970) - http://www.bohemiancoding.com/sketch -->
    <title>Rectangle 6</title>
    <desc>Created with Sketch.</desc>
    <defs></defs>
    <g id="Welcome" stroke="none" stroke-width="1" fill="none" fill-rule="evenodd" sketch:type="MSPage">
        <g id="01-02" sketch:type="MSArtboardGroup" transform="translate(0.000000, -390.000000)">
            <g id="01-02-slogan" sketch:type="MSLayerGroup" transform="translate(0.000000, 390.000000)">
                <g id="Group" transform="translate(128.000000, 5.000000)" fill="#FFFFFF" sketch:type="MSShapeGroup">
                    <path d="M46.941,102.355248 L335.917,102.355248 L335.917,103.219528 L46.941,103.219528 L46.941,102.355248 Z" id="Fill-2"></path>
                    <path d="M6.831,4.22054121 L373.907,4.22054121 L373.907,5.08482125 L6.831,5.08482125 L6.831,4.22054121 Z" id="Fill-3"></path>
                    <path d="M17.3,21.9692205 L42.304,21.9692205 L42.304,23.5001738 L34.119,23.5001738 L34.119,44.4664499 L43.425,44.4664499 L43.425,45.9974032 L16.29,45.9974032 L16.29,44.4664499 L25.485,44.4664499 L25.485,23.5001738 L17.3,23.5001738 L17.3,21.9692205 L17.3,21.9692205 Z M21.785,39.5192949 C20.513,35.5941063 19.13,31.7447666 17.636,27.9762661 L19.094,27.5062016 C19.84,29.4682969 21.037,32.6100447 22.682,36.9284508 C22.98,37.870576 23.204,38.5382473 23.355,38.9304667 L21.785,39.5192949 L21.785,39.5192949 Z M26.942,44.4664499 L32.661,44.4664499 L32.661,23.5001738 L26.942,23.5001738 L26.942,44.4664499 Z M42.191,27.9762661 C40.919,31.5092354 39.35,35.3964995 37.482,39.6370606 L36.137,38.9304667 C37.631,35.4763406 39.164,31.6679196 40.734,27.5062016 L42.191,27.9762661 L42.191,27.9762661 Z M59.173,83.4957795 L59.173,82.3141311 L47.614,82.3141311 C48.773,79.8799752 50.818,77.5516087 53.751,75.3310278 C57.639,72.4677259 59.412,69.8529295 59.071,67.4896326 C58.867,63.8369017 56.854,61.9406753 53.036,61.7949652 C49.624,61.7251043 47.34,63.4067577 46.181,66.8449156 L47.614,67.7042056 C48.363,64.7680487 50,63.2640417 52.524,63.1921847 C55.729,63.2640417 57.366,64.8029791 57.435,67.810993 C57.706,69.602428 56.069,71.8230089 52.524,74.4717378 C49.455,76.6923188 47.205,79.3779742 45.773,82.5287041 L45.773,83.4957795 L59.173,83.4957795 L59.173,83.4957795 Z M51.665,32.4523585 C50.394,31.3545432 49.086,30.2557299 47.741,29.1539225 L48.862,27.9762661 C50.208,28.9183913 51.515,29.978282 52.787,31.1569364 L51.665,32.4523585 L51.665,32.4523585 Z M48.414,47.058292 C49.011,44.9375124 49.908,41.4045432 51.105,36.4573883 C51.254,36.5372294 51.515,36.653997 51.89,36.8096872 C52.187,36.9693694 52.412,37.0871351 52.563,37.1639821 C52.487,37.5581976 52.338,38.1061072 52.114,38.8127011 C51.29,42.4255114 50.618,45.3696524 50.096,47.6471202 L48.414,47.058292 L48.414,47.058292 Z M53.123,25.5021897 C51.777,24.09 50.432,22.7935799 49.086,21.6159235 L50.208,20.4382671 C51.553,21.6159235 52.936,22.8344985 54.356,24.09 L53.123,25.5021897 L53.123,25.5021897 Z M58.393,20.4382671 L59.851,20.4382671 L59.851,29.3894538 C59.851,34.573138 59.514,38.302716 58.841,40.5791857 C58.169,42.9354965 56.748,45.3297319 54.581,47.7648858 C54.43,47.6062016 54.206,47.4115889 53.908,47.1760576 C53.608,46.9405263 53.384,46.7439176 53.235,46.5872294 C55.327,44.4664499 56.711,42.2698213 57.384,39.9913555 C58.057,37.7927309 58.393,34.2597617 58.393,29.3894538 L58.393,20.4382671 L58.393,20.4382671 Z M53.572,34.926435 C54.542,32.414434 55.253,30.2138133 55.702,28.3295631 L56.936,28.683858 C56.336,31.0391708 55.702,33.277716 55.029,35.3964995 C54.878,35.3964995 54.693,35.3196524 54.469,35.1609682 C54.094,35.0841212 53.796,35.00428 53.572,34.926435 L53.572,34.926435 Z M62.205,32.4523585 C61.681,30.7257944 61.308,29.5072195 61.084,28.8006256 L62.205,28.4473287 C62.354,28.8415442 62.542,29.4303724 62.766,30.2138133 C63.363,31.9423734 63.811,33.3555611 64.111,34.4533764 L62.878,34.8086693 C62.727,34.2597617 62.503,33.4733267 62.205,32.4523585 L62.205,32.4523585 Z M63.101,72.9677309 C63.236,65.7351241 65.487,62.0105362 69.852,61.7949652 C74.353,61.7949652 76.604,65.5215492 76.604,72.9677309 C76.536,80.0576216 74.318,83.673426 69.955,83.81714 C65.454,83.673426 63.167,80.0576216 63.101,72.9677309 L63.101,72.9677309 Z M64.737,72.9677309 C64.737,79.3430437 66.441,82.5277061 69.852,82.5277061 C73.331,82.5995631 75.035,79.4129047 74.967,72.9677309 C75.035,66.3798411 73.295,63.1223237 69.75,63.1921847 C66.477,63.3358987 64.805,66.5954121 64.737,72.9677309 L64.737,72.9677309 Z M65.232,21.4981579 L66.69,21.4981579 L66.69,45.9974032 L65.232,45.9974032 L65.232,21.4981579 Z M69.605,34.6909037 C69.081,32.414434 68.521,30.3724975 67.923,28.5660924 L69.045,28.2127954 C69.118,28.3704816 69.23,28.6439374 69.381,29.0371549 C69.754,30.2138133 70.24,31.9423734 70.839,34.2188431 L69.605,34.6909037 L69.605,34.6909037 Z M72.072,20.4382671 L73.529,20.4382671 L73.529,47.7648858 L72.072,47.7648858 L72.072,20.4382671 Z M77.839,21.7336892 L101.834,21.7336892 L101.834,23.2646425 L79.409,23.2646425 L79.409,29.0371549 L98.919,29.0371549 L98.919,38.9304667 L79.409,38.9304667 L79.409,44.8197468 L102.059,44.8197468 L102.059,46.3507001 L77.839,46.3507001 L77.839,21.7336892 L77.839,21.7336892 Z M79.409,37.3995134 L97.349,37.3995134 L97.349,30.4493446 L79.409,30.4493446 L79.409,37.3995134 Z M86.568,83.4947815 L88.102,83.4947815 L88.102,61.7949652 L86.977,61.7949652 C86.159,64.1592602 84.011,66.2371251 80.533,68.0265641 L80.533,69.530571 C83.669,68.0265641 85.681,66.4866286 86.568,64.9107646 L86.568,83.4947815 L86.568,83.4947815 Z M99.295,69.315 C97.249,69.315 95.645,70.0675025 94.487,71.5715094 L95.305,63.6223287 L104.614,63.6223287 L104.614,62.2251092 L94.078,62.2251092 L92.85,73.3978749 L93.873,73.6124479 C94.963,71.6782969 96.635,70.7122195 98.886,70.7122195 C102.226,70.8559335 103.965,72.7900844 104.103,76.5126763 C103.965,80.3799801 102.192,82.3859881 98.783,82.5277061 C95.714,82.5277061 93.94,80.9169116 93.464,77.6943247 L92.032,78.1234707 C92.85,81.9209136 95.167,83.81714 98.988,83.81714 C103.284,83.603565 105.5,81.0965541 105.637,76.2981033 C105.364,71.8579394 103.249,69.530571 99.295,69.315 L99.295,69.315 Z M108.84,22.0869861 L130.929,22.0869861 L130.929,23.6179394 L120.389,23.6179394 C120.313,26.3674677 120.053,28.9183913 119.604,31.2747021 L133.059,31.2747021 L133.059,32.8056554 L122.071,32.8056554 L122.071,42.9354965 C121.92,44.5842155 122.817,45.3696524 124.762,45.2918073 L128.686,45.2918073 C130.405,45.4474975 131.302,44.7019811 131.377,43.0532622 C131.451,42.4255114 131.563,41.247855 131.714,39.5192949 C132.311,39.7548262 132.835,39.951435 133.284,40.1091212 C133.208,41.5223088 133.059,42.8177309 132.835,43.9963853 C132.685,45.9574826 131.339,46.9006058 128.798,46.8227607 L124.201,46.8227607 C121.659,46.9006058 120.426,45.6830288 120.501,43.1710278 L120.501,32.8056554 L119.268,32.8056554 C118.071,39.2458391 114.184,44.3107597 107.607,48.0014151 C107.532,47.921574 107.419,47.8038083 107.27,47.6471202 C106.895,47.1760576 106.598,46.8616832 106.374,46.704995 C112.801,43.328714 116.577,38.6949355 117.698,32.8056554 L106.598,32.8056554 L106.598,31.2747021 L118.035,31.2747021 C118.483,28.9972344 118.744,26.4453128 118.819,23.6179394 L108.84,23.6179394 L108.84,22.0869861 L108.84,22.0869861 Z M110.087,73.3978749 L120.42,73.3978749 L120.42,71.1413654 L112.748,71.1413654 L112.748,70.0675025 L120.42,70.0675025 L120.42,68.5634955 L121.75,68.5634955 L121.75,70.0675025 L127.581,70.0675025 L127.581,71.1413654 L121.75,71.1413654 L121.75,73.3978749 L124.307,73.3978749 C127.103,72.0385799 129.661,70.5695035 131.98,68.9926415 L132.9,69.959717 C130.99,71.178292 129.047,72.3230139 127.069,73.3978749 L134.128,73.3978749 L134.128,74.5795233 L124.921,74.5795233 C124.443,74.7940963 123.693,75.1164548 122.67,75.5456008 C121.374,76.1903178 120.385,76.6573883 119.704,76.9428203 L130.65,76.9428203 L130.65,85.6435055 L129.218,85.6435055 L129.218,84.677428 L116.226,84.677428 L116.226,85.6435055 L114.895,85.6435055 L114.895,78.7691857 C114.418,78.9128997 113.668,79.1624032 112.645,79.5206902 C111.622,79.8081182 110.837,80.0576216 110.292,80.2731927 C110.087,79.8430487 109.848,79.4129047 109.576,78.9837587 C113.94,77.7661817 118.067,76.2981033 121.955,74.5795233 L110.087,74.5795233 L110.087,73.3978749 L110.087,73.3978749 Z M112.85,60.9366733 L130.855,60.9366733 L130.855,67.9187786 L112.85,67.9187786 L112.85,60.9366733 Z M114.18,63.8369017 L129.423,63.8369017 L129.423,62.1183217 L114.18,62.1183217 L114.18,63.8369017 Z M114.18,66.8449156 L129.423,66.8449156 L129.423,64.9117627 L114.18,64.9117627 L114.18,66.8449156 Z M116.941,78.0166832 C116.873,78.0166832 116.804,78.0536097 116.737,78.1234707 C116.6,78.1963257 116.43,78.2322542 116.226,78.2322542 L116.226,80.3799801 L129.218,80.3799801 L129.218,78.0166832 L116.941,78.0166832 L116.941,78.0166832 Z M116.226,83.4947815 L129.218,83.4947815 L129.218,81.4538431 L116.226,81.4538431 L116.226,83.4947815 Z M139.139,37.870576 L144.185,37.870576 L144.185,36.221857 L140.597,36.221857 L140.597,33.5122493 L137.569,33.5122493 L137.569,32.3345929 L140.597,32.3345929 L140.597,31.0391708 L141.83,31.0391708 L141.83,32.3345929 L147.885,32.3345929 L147.885,31.0391708 L149.119,31.0391708 L149.119,32.3345929 L151.697,32.3345929 L151.697,33.5122493 L149.119,33.5122493 L149.119,36.221857 L145.53,36.221857 L145.53,37.870576 L150.576,37.870576 L150.576,42.2289027 L145.53,42.2289027 L145.53,43.9963853 L151.249,43.9963853 L151.249,44.9375124 L145.53,44.9375124 L145.53,47.8836495 L144.185,47.8836495 L144.185,44.9375124 L137.569,44.9375124 L137.569,43.9963853 L144.185,43.9963853 L144.185,42.2289027 L139.139,42.2289027 L139.139,37.870576 L139.139,37.870576 Z M141.01,69.530571 C140.259,71.3210079 139.476,72.9318024 138.657,74.3649503 C138.588,74.2212363 138.52,74.0415938 138.453,73.8270209 C138.248,73.3978749 138.11,73.1124429 138.043,72.9677309 C140.021,68.957711 141.522,64.6612612 142.544,60.0763853 L143.875,60.2919563 C143.465,62.1542502 142.954,64.0165442 142.34,65.8778401 L142.34,85.6435055 L141.01,85.6435055 L141.01,69.530571 L141.01,69.530571 Z M138.467,23.8544687 L150.24,23.8544687 L150.24,22.0869861 L140.036,22.0869861 L140.036,20.9093297 L161.452,20.9093297 L161.452,22.0869861 L151.585,22.0869861 L151.585,23.8544687 L163.358,23.8544687 L163.358,28.4473287 L162.125,28.4473287 L162.125,25.0321251 L151.585,25.0321251 L151.585,29.7437488 L150.24,29.7437488 L150.24,25.0321251 L139.812,25.0321251 L139.812,28.4473287 L138.467,28.4473287 L138.467,23.8544687 L138.467,23.8544687 Z M140.373,41.0502483 L144.186,41.0502483 L144.186,39.0482324 L140.373,39.0482324 L140.373,41.0502483 Z M141.606,26.5630785 L148.334,26.5630785 L148.334,27.6229692 L141.606,27.6229692 L141.606,26.5630785 Z M141.606,29.0371549 L148.334,29.0371549 L148.334,30.2138133 L141.606,30.2138133 L141.606,29.0371549 Z M141.83,35.1609682 L147.885,35.1609682 L147.885,33.5122493 L141.83,33.5122493 L141.83,35.1609682 Z M152.672,61.4736048 L152.672,69.4227855 L146.739,69.4227855 L146.739,73.1823039 L151.956,73.1823039 L151.956,74.4717378 L146.739,74.4717378 L146.739,78.3390417 L152.263,78.3390417 L152.263,79.5206902 L146.739,79.5206902 L146.739,85.6435055 L145.409,85.6435055 L145.409,61.4736048 L152.672,61.4736048 L152.672,61.4736048 Z M145.53,41.0502483 L149.343,41.0502483 L149.343,39.0482324 L145.53,39.0482324 L145.53,41.0502483 Z M146.739,68.241137 L151.342,68.241137 L151.342,62.7620407 L146.739,62.7620407 L146.739,68.241137 Z M152.877,73.3978749 L152.877,72.1084409 L161.572,72.1084409 L161.572,73.3978749 C160.89,76.2621748 159.798,78.6614002 158.299,80.5945531 C159.389,81.8141261 161.026,82.9927805 163.209,84.1404965 C162.936,84.4967875 162.629,84.892001 162.289,85.321147 C160.31,84.10357 158.708,82.885993 157.48,81.6684161 C155.706,83.243282 153.626,84.605571 151.24,85.751291 C151.036,85.321147 150.762,84.9269315 150.422,84.5686445 C153.353,83.2083515 155.399,81.8839871 156.56,80.5945531 C155.263,78.8051142 154.309,76.4058888 153.695,73.3978749 L152.877,73.3978749 L152.877,73.3978749 Z M158.201,46.2329345 L159.546,46.2329345 C160.668,46.3107795 161.19,45.7229494 161.116,44.4664499 L161.116,41.9933714 L154.164,41.9933714 C153.865,44.0363059 153.08,45.9974032 151.81,47.8836495 C151.435,47.5682771 151.024,47.2938232 150.576,47.058292 C152.37,44.9375124 153.192,41.9933714 153.043,38.2248709 L153.043,31.9812959 L162.461,31.9812959 L162.461,44.7019811 C162.461,46.5083863 161.565,47.4505114 159.771,47.5293545 L157.079,47.5293545 C157.004,47.3706703 156.929,47.058292 156.855,46.5872294 C156.78,46.3507001 156.743,46.1930139 156.743,46.1161668 C157.041,46.1161668 157.528,46.1550894 158.201,46.2329345 L158.201,46.2329345 Z M153.491,26.5630785 L160.219,26.5630785 L160.219,27.6229692 L153.491,27.6229692 L153.491,26.5630785 Z M153.491,29.0371549 L160.219,29.0371549 L160.219,30.2138133 L153.491,30.2138133 L153.491,29.0371549 Z M154.104,61.6881778 L161.266,61.6881778 L161.266,69.4227855 L154.002,69.4227855 L154.002,68.1343496 L159.935,68.1343496 L159.935,62.9776117 L154.104,62.9776117 L154.104,61.6881778 L154.104,61.6881778 Z M154.388,38.3416385 C154.388,39.1280735 154.35,39.951435 154.276,40.815715 L161.116,40.815715 L161.116,37.6350447 L154.388,37.6350447 L154.388,38.3416385 L154.388,38.3416385 Z M154.388,36.4573883 L161.115,36.4573883 L161.115,33.277716 L154.388,33.277716 L154.388,36.4573883 Z M157.48,79.4129047 C158.708,77.8380387 159.594,75.8320308 160.14,73.3978749 L155.025,73.3978749 C155.57,75.8320308 156.389,77.8380387 157.48,79.4129047 L157.48,79.4129047 Z M174.796,83.9249255 C175.137,83.8530685 175.648,83.745283 176.331,83.602567 C178.172,83.1734211 179.604,82.814136 180.627,82.5277061 L180.627,83.1734211 C180.559,83.529712 180.525,83.745283 180.525,83.81714 C180.047,83.959856 179.4,84.1404965 178.582,84.3540715 C177.149,84.7123585 175.989,84.961862 175.103,85.106574 C174.557,85.24929 174.012,85.463863 173.467,85.751291 L172.75,84.7842155 C173.227,84.2822145 173.467,83.6384955 173.467,82.8510626 L173.467,82.0985601 C171.83,82.5995631 169.886,83.1364945 167.636,83.7103525 C167.498,83.3510675 167.329,82.95785 167.124,82.5277061 C171.283,81.8141261 174.728,80.5596226 177.456,78.7681877 L170.602,78.7681877 L170.602,74.5795233 L187.277,74.5795233 L187.277,78.7681877 L179.707,78.7681877 C180.592,79.9149057 181.65,80.8819811 182.878,81.6684161 C183.697,81.2402681 184.753,80.6664101 186.049,79.9508342 C187.208,79.3779742 188.027,78.9488282 188.505,78.6614002 L189.323,79.7352632 C187.753,80.5945531 186.049,81.4538431 184.208,82.3141311 C185.845,82.885993 188.027,83.3510675 190.755,83.7103525 C190.686,83.7802135 190.618,83.9249255 190.551,84.1404965 C190.346,84.4249305 190.208,84.7123585 190.142,84.9987885 C184.548,84.2103575 180.73,82.3141311 178.684,79.3061172 C177.523,80.1644091 176.228,80.9169116 174.796,81.5616286 L174.796,83.9249255 L174.796,83.9249255 Z M178.479,61.4736048 C178.275,60.9007448 178.137,60.4715988 178.07,60.1841708 L179.298,59.8618123 C179.569,60.7211023 179.843,61.5803923 180.116,62.4396822 L190.551,62.4396822 L190.551,66.2001986 L189.221,66.2001986 L189.221,63.6223287 L168.761,63.6223287 L168.761,66.2001986 L167.533,66.2001986 L167.533,62.4396822 L178.786,62.4396822 C178.717,62.2251092 178.615,61.9027507 178.479,61.4736048 L178.479,61.4736048 Z M167.533,71.8928699 L190.448,71.8928699 L190.448,72.9677309 L167.533,72.9677309 L167.533,71.8928699 Z M170.602,65.3409086 L187.379,65.3409086 L187.379,70.175288 L170.602,70.175288 L170.602,65.3409086 Z M171.932,69.100427 L175.819,69.100427 L175.819,66.4147716 L171.932,66.4147716 L171.932,69.100427 Z M171.932,77.6943247 L186.049,77.6943247 L186.049,75.6533863 L171.932,75.6533863 L171.932,77.6943247 Z M177.047,69.100427 L180.935,69.100427 L180.935,66.4147716 L177.047,66.4147716 L177.047,69.100427 Z M184.086,32.6888878 C182.965,31.6679196 181.581,30.4902632 179.938,29.1539225 L180.947,27.9762661 C181.469,28.3704816 182.18,28.9183913 183.078,29.6259831 C184.048,30.4114201 184.759,30.9992502 185.208,31.3914697 L184.086,32.6888878 L184.086,32.6888878 Z M184.872,37.517279 C184.199,39.8735899 183.338,43.328714 182.293,47.8836495 L180.611,47.2938232 C181.956,42.5053525 182.89,39.0103078 183.414,36.8096872 C183.562,36.8895283 183.824,37.0072939 184.199,37.1639821 C184.497,37.3226663 184.721,37.440432 184.872,37.517279 L184.872,37.517279 Z M184.983,25.1488928 C184.384,24.52214 183.487,23.658858 182.293,22.5570506 C181.693,22.009141 181.245,21.577001 180.947,21.2626266 L181.956,20.2017378 C182.105,20.360422 182.366,20.5959533 182.741,20.9093297 C184.235,22.1658292 185.357,23.1468769 186.105,23.8544687 L184.983,25.1488928 L184.983,25.1488928 Z M182.265,69.100427 L186.152,69.100427 L186.152,66.4147716 L182.265,66.4147716 L182.265,69.100427 Z M190.59,23.9712363 C189.542,25.6997964 188.272,27.4273585 186.777,29.1539225 C186.627,28.9183913 186.29,28.5271698 185.769,27.9762661 C188.309,25.385422 190.178,22.5570506 191.375,19.495144 L192.832,19.8494389 C192.384,20.790566 191.935,21.6937686 191.487,22.5570506 L206.512,22.5570506 L206.512,23.9712363 L190.59,23.9712363 L190.59,23.9712363 Z M187.899,43.4065591 L188.796,35.9863257 L185.993,35.9863257 L185.993,34.573138 L188.908,34.573138 L189.805,27.1519067 L204.269,27.1519067 C204.269,29.7437488 204.23,32.2168272 204.157,34.573138 L207.072,34.573138 L207.072,35.9863257 L204.045,35.9863257 C204.045,36.7717627 204.006,37.870576 203.933,39.2847617 L203.933,41.9933714 L206.175,41.9933714 L206.175,43.4065591 L203.82,43.4065591 C203.745,46.2329345 202.287,47.6471202 199.447,47.6471202 L195.972,47.6471202 C195.897,47.0972145 195.784,46.5083863 195.636,45.8806356 C196.757,45.9574826 197.915,45.9974032 199.111,45.9974032 C201.203,46.0752483 202.287,45.2119662 202.363,43.4065591 L187.899,43.4065591 L187.899,43.4065591 Z M202.363,41.9933714 C202.512,39.4813704 202.587,37.4783565 202.587,35.9863257 L190.253,35.9863257 L189.581,41.9933714 L202.363,41.9933714 L202.363,41.9933714 Z M191.15,28.5660924 L190.478,34.573138 L202.587,34.573138 C202.661,33.0022642 202.699,30.9992502 202.699,28.5660924 L191.15,28.5660924 L191.15,28.5660924 Z M197.43,41.0502483 C196.382,39.951435 195.299,39.0103078 194.178,38.2248709 L195.075,37.2817478 C196.196,38.0681827 197.278,38.9713853 198.326,39.9913555 L197.43,41.0502483 L197.43,41.0502483 Z M197.766,33.3954816 C196.869,32.3745134 195.784,31.4333863 194.515,30.5681082 L195.411,29.6259831 C196.382,30.3315789 197.503,31.2357795 198.775,32.3345929 L197.766,33.3954816 L197.766,33.3954816 Z M195.58,62.0105362 L218.393,62.0105362 L218.393,63.4067577 L210.925,63.4067577 L210.925,82.5277061 L219.416,82.5277061 L219.416,83.9249255 L194.659,83.9249255 L194.659,82.5277061 L203.048,82.5277061 L203.048,63.4067577 L195.58,63.4067577 L195.58,62.0105362 L195.58,62.0105362 Z M199.672,78.0166832 C198.512,74.4358093 197.25,70.9257944 195.887,67.4886346 L197.217,67.0594886 C197.897,68.8499255 198.989,71.7152234 200.49,75.6533863 C200.762,76.5126763 200.967,77.1214647 201.104,77.4797517 L199.672,78.0166832 L199.672,78.0166832 Z M204.378,82.5277061 L209.595,82.5277061 L209.595,63.4067577 L204.378,63.4067577 L204.378,82.5277061 Z M216.2,33.0421847 C215.976,32.8056554 215.564,32.4932771 214.967,32.0990616 C213.471,30.8435601 212.275,29.902433 211.379,29.2726862 L212.388,28.0940318 C213.658,28.9593098 215.265,30.2138133 217.209,31.8635303 L216.2,33.0421847 L216.2,33.0421847 Z M212.052,46.9405263 L212.052,46.9405263 C213.246,44.2718371 214.479,40.815715 215.751,36.5741559 L215.976,36.6929196 C216.424,36.9284508 216.834,37.1250596 217.209,37.2817478 C217.059,37.7528103 216.797,38.5771698 216.424,39.7548262 C215.152,43.2887934 214.255,45.9195581 213.733,47.6471202 L212.052,46.9405263 L212.052,46.9405263 Z M217.209,25.2676564 C216.386,24.4822195 215.152,23.4223287 213.509,22.0869861 C213.134,21.7746077 212.836,21.5380785 212.612,21.3803923 L213.621,20.3195035 C214.891,21.1847815 216.461,22.4013605 218.33,23.9712363 L217.209,25.2676564 L217.209,25.2676564 Z M218.291,67.4886346 C217.13,70.7122195 215.698,74.2561668 213.994,78.1234707 L212.767,77.4797517 C214.13,74.3290218 215.528,70.8559335 216.961,67.0594886 L218.291,67.4886346 L218.291,67.4886346 Z M220.909,31.8635303 L227.749,31.8635303 L227.749,26.5630785 L219.9,26.5630785 L219.9,25.0321251 L229.879,25.0321251 C230.85,23.6179394 231.971,21.8514548 233.243,19.7316733 L234.7,20.5560328 C233.728,21.8913754 232.683,23.3824081 231.56,25.0321251 L237.615,25.0321251 L237.615,26.5630785 L229.318,26.5630785 L229.318,31.8635303 L236.383,31.8635303 L236.383,33.3954816 L229.318,33.3954816 L229.318,39.0482324 L238.177,39.0482324 L238.177,40.5791857 L229.318,40.5791857 L229.318,47.8836495 L227.749,47.8836495 L227.749,40.5791857 L219.115,40.5791857 L219.115,39.0482324 L227.749,39.0482324 L227.749,33.3954816 L220.909,33.3954816 L220.909,31.8635303 L220.909,31.8635303 Z M225.395,24.6778302 C224.57,23.3444836 223.561,21.9692205 222.367,20.5560328 L223.601,19.7316733 C224.945,21.2237041 225.991,22.5191261 226.739,23.6179394 L225.395,24.6778302 L225.395,24.6778302 Z M236.45,61.5803923 C236.312,60.9356753 236.211,60.4706008 236.144,60.1841708 L237.474,59.8618123 C237.745,60.7929593 237.984,61.8328898 238.19,62.9776117 L247.908,62.9776117 L247.908,64.2660477 L227.448,64.2660477 L227.448,72.0006554 C227.448,75.5106703 227.243,78.1603972 226.834,79.9508342 C226.492,81.7402731 225.709,83.6374975 224.481,85.6435055 C224.139,85.3570755 223.765,85.033719 223.355,84.67643 C224.515,82.814136 225.23,81.0965541 225.504,79.5206902 C225.845,78.0166832 226.016,75.4388133 226.016,71.7860824 L226.016,62.9776117 L236.757,62.9776117 C236.689,62.6193247 236.586,62.1542502 236.45,61.5803923 L236.45,61.5803923 Z M247.601,84.5686445 C247.464,84.9987885 247.361,85.2842205 247.294,85.4289325 C243.27,84.7123585 240.03,83.745283 237.575,82.5277061 C235.461,83.673426 232.289,84.747289 228.061,85.751291 C227.993,85.679434 227.924,85.53572 227.857,85.321147 C227.72,85.105576 227.515,84.7842155 227.243,84.3540715 C230.379,83.7802135 233.346,82.9209235 236.144,81.7762016 C234.164,80.4867676 232.461,78.8400447 231.028,76.8340367 L229.392,76.8340367 L229.392,75.5456008 L244.736,75.5456008 L244.736,76.9428203 C242.758,79.1624032 240.85,80.8101241 239.008,81.8839871 C241.599,82.814136 244.565,83.4947815 247.908,83.9249255 C247.839,84.0676415 247.737,84.2822145 247.601,84.5686445 L247.601,84.5686445 Z M241.565,65.2321251 L242.896,65.2321251 L242.896,67.5964201 L247.601,67.5964201 L247.601,68.884856 L242.896,68.884856 L242.896,72.9667329 L232.358,72.9667329 L232.358,68.884856 L228.573,68.884856 L228.573,67.5964201 L232.358,67.5964201 L232.358,65.2321251 L233.689,65.2321251 L233.689,67.5964201 L241.565,67.5964201 L241.565,65.2321251 L241.565,65.2321251 Z M237.575,81.0246971 C239.622,79.9508342 241.428,78.5536147 242.997,76.8340367 L232.665,76.8340367 C234.369,78.7681877 236.006,80.1644091 237.575,81.0246971 L237.575,81.0246971 Z M233.689,71.7860824 L241.566,71.7860824 L241.566,68.885854 L233.689,68.885854 L233.689,71.7860824 Z M242.6,32.922423 L244.617,32.922423 L244.617,22.9113456 L247.421,22.9113456 C247.494,22.440283 247.606,21.8125323 247.757,21.0260973 C247.83,20.3993446 247.906,19.927284 247.981,19.6119116 L249.439,19.7316733 C249.363,20.2805809 249.139,21.3404717 248.766,22.9113456 L252.915,22.9113456 L252.915,44.4664499 C252.988,46.4285452 252.091,47.4115889 250.224,47.4115889 L249.103,47.4115889 C248.503,47.489434 248.094,47.5293545 247.869,47.5293545 C247.869,47.3706703 247.83,47.0972145 247.757,46.704995 C247.682,46.3107795 247.606,46.0373237 247.533,45.8806356 L249.775,45.8806356 C250.97,45.9574826 251.53,45.4874181 251.457,44.4664499 L251.457,34.2188431 L245.963,34.2188431 L245.963,34.6909037 C245.963,38.1460278 245.812,40.7378699 245.515,42.464434 C245.215,44.191996 244.617,45.9574826 243.721,47.7648858 C243.646,47.6860427 243.533,47.6062016 243.384,47.5293545 C242.86,47.136137 242.56,46.9006058 242.487,46.8227607 C244.057,44.3896028 244.767,40.384573 244.617,34.8086693 L244.617,34.2188431 L242.6,34.2188431 L242.6,32.922423 L242.6,32.922423 Z M245.963,32.922423 L251.457,32.922423 L251.457,24.2067676 L245.963,24.2067676 L245.963,32.922423 Z M248.542,30.9214052 C248.242,29.4303724 247.794,27.9762661 247.196,26.5630785 L248.542,26.2087835 C248.766,26.9163754 249.064,27.8575025 249.439,29.0361569 C249.663,29.6659037 249.812,30.1359682 249.888,30.4493446 L248.542,30.9214052 L248.542,30.9214052 Z M248.878,41.5223088 C248.43,39.8735899 247.942,38.302716 247.421,36.8096872 L248.654,36.3396226 C248.728,36.653997 248.878,37.0871351 249.103,37.6350447 C249.551,38.9713853 249.924,40.1091212 250.224,41.0502483 L248.878,41.5223088 L248.878,41.5223088 Z M254.799,69.529573 C254.048,71.3210079 253.265,72.9318024 252.446,74.3639523 C252.378,74.2212363 252.309,74.0415938 252.241,73.8270209 C252.037,73.3968769 251.899,73.1114449 251.832,72.9667329 C253.81,68.957711 255.31,64.6602632 256.334,60.0763853 L257.663,60.2919563 C257.254,62.1542502 256.743,64.0165442 256.129,65.8778401 L256.129,85.6435055 L254.799,85.6435055 L254.799,69.529573 L254.799,69.529573 Z M264.912,30.5681082 L264.912,44.3496822 C264.837,45.2918073 265.322,45.7229494 266.37,45.6451043 L266.594,45.6451043 C267.416,45.7229494 267.901,45.2508888 268.052,44.2309186 C268.2,43.3686346 268.35,41.9544489 268.5,39.9913555 L268.5,39.5192949 C268.725,39.6779791 268.985,39.7957448 269.285,39.8735899 C269.509,39.951435 269.695,40.0312761 269.846,40.1091212 C269.771,41.9933714 269.621,43.4474777 269.398,44.4664499 C269.246,46.272855 268.388,47.136137 266.818,47.058292 L265.921,47.058292 C264.201,47.136137 263.379,46.272855 263.454,44.4664499 L263.454,32.0990616 L258.297,32.0990616 L258.297,34.8086693 C258.297,38.3416385 258.034,40.9743992 257.512,42.6999652 C257.064,44.3496822 256.054,46.0752483 254.484,47.8836495 C254.26,47.6471202 253.924,47.3327458 253.476,46.9405263 C253.549,47.0183714 253.476,46.9784508 253.251,46.8227607 C254.745,45.2508888 255.718,43.760854 256.166,42.3466683 C256.615,40.8566336 256.839,38.3825571 256.839,34.926435 L256.839,30.5681082 L264.912,30.5681082 L264.912,30.5681082 Z M254.597,24.6778302 L268.613,24.6778302 L268.613,26.0920159 L254.597,26.0920159 L254.597,24.6778302 Z M266.461,61.4736048 L266.461,69.4227855 L260.528,69.4227855 L260.528,73.1823039 L265.745,73.1823039 L265.745,74.4707398 L260.528,74.4707398 L260.528,78.3380437 L266.052,78.3380437 L266.052,79.5206902 L260.528,79.5206902 L260.528,85.6435055 L259.198,85.6435055 L259.198,61.4736048 L266.461,61.4736048 L266.461,61.4736048 Z M261.324,24.6778302 C260.725,23.2646425 260.052,21.8125323 259.306,20.3195035 L260.764,19.7316733 C261.061,20.2805809 261.51,21.2237041 262.109,22.5570506 C262.407,23.1867974 262.631,23.658858 262.781,23.9712363 L261.324,24.6778302 L261.324,24.6778302 Z M260.528,68.241137 L265.131,68.241137 L265.131,62.7620407 L260.528,62.7620407 L260.528,68.241137 Z M266.666,73.3968769 L266.666,72.1084409 L275.361,72.1084409 L275.361,73.3968769 C274.679,76.2621748 273.587,78.6614002 272.088,80.5945531 C273.178,81.8131281 274.815,82.9927805 276.998,84.1394985 C276.725,84.4967875 276.418,84.892001 276.077,85.321147 C274.099,84.102572 272.497,82.885993 271.269,81.6684161 C269.495,83.243282 267.416,84.603575 265.029,85.751291 C264.824,85.321147 264.551,84.9269315 264.211,84.5686445 C267.143,83.2083515 269.189,81.8839871 270.349,80.5945531 C269.053,78.8051142 268.099,76.4048908 267.484,73.3968769 L266.666,73.3968769 L266.666,73.3968769 Z M267.894,61.6881778 L275.055,61.6881778 L275.055,69.4227855 L267.791,69.4227855 L267.791,68.1333515 L273.725,68.1333515 L273.725,62.9776117 L267.894,62.9776117 L267.894,61.6881778 L267.894,61.6881778 Z M271.269,79.4129047 C272.497,77.8380387 273.383,75.8320308 273.93,73.3968769 L268.815,73.3968769 C269.359,75.8320308 270.178,77.8380387 271.269,79.4129047 L271.269,79.4129047 Z M274.84,38.5771698 C274.689,38.2647915 274.465,37.870576 274.167,37.3995134 C276.932,34.9663555 279.51,31.5890765 281.903,27.2686743 L283.361,28.0940318 C282.24,29.978282 281.231,31.5491559 280.334,32.8056554 L280.334,47.8836495 L278.764,47.8836495 L278.764,34.926435 C277.194,36.7328401 275.922,38.0681827 274.952,38.9304667 C274.952,38.8536197 274.913,38.735854 274.84,38.5771698 L274.84,38.5771698 Z M283.249,20.6728004 C281.231,23.658858 278.726,26.4862314 275.736,29.1539225 C275.513,28.6050149 275.213,28.0940318 274.84,27.6229692 C277.455,25.5021897 279.773,22.872423 281.791,19.7316733 L283.249,20.6728004 L283.249,20.6728004 Z M281.548,77.1573932 C281.41,76.8719613 281.206,76.5126763 280.934,76.0835303 C283.456,73.8639474 285.81,70.7840765 287.992,66.8449156 L289.322,67.5964201 C288.3,69.315 287.379,70.749146 286.56,71.8928699 L286.56,85.6435055 L285.128,85.6435055 L285.128,73.8270209 C283.696,75.4747418 282.535,76.6923188 281.65,77.4797517 C281.65,77.4088928 281.615,77.3011072 281.548,77.1573932 L281.548,77.1573932 Z M289.221,60.8288878 C287.379,63.5514697 285.093,66.1293396 282.366,68.5624975 C282.162,68.0624926 281.889,67.5964201 281.548,67.1662761 C283.935,65.2321251 286.049,62.8348957 287.891,59.9685998 L289.221,60.8288878 L289.221,60.8288878 Z M284.37,30.9214052 L301.525,30.9214052 L301.525,32.4523585 L295.919,32.4523585 L295.919,43.6420904 C296.068,46.0752483 294.835,47.2938232 292.219,47.2938232 C291.171,47.3706703 289.938,47.4115889 288.519,47.4115889 C288.443,47.0972145 288.368,46.704995 288.295,46.2329345 C288.219,45.9974032 288.183,45.8007944 288.183,45.6451043 L291.883,45.6451043 C293.677,45.7229494 294.498,45.0153575 294.35,43.5243247 L294.35,32.4523585 L284.37,32.4523585 L284.37,30.9214052 L284.37,30.9214052 Z M286.052,21.9692205 L299.955,21.9692205 L299.955,23.5001738 L286.052,23.5001738 L286.052,21.9692205 Z M290.243,70.17429 L305.896,70.17429 L305.896,71.5705114 L300.78,71.5705114 L300.78,81.7762016 C300.916,83.9947865 299.791,85.105576 297.404,85.105576 C296.448,85.177433 295.323,85.2143595 294.028,85.2143595 C293.96,84.9269315 293.891,84.5686445 293.824,84.1394985 C293.755,83.9249255 293.722,83.745283 293.722,83.602567 L297.098,83.602567 C298.734,83.672428 299.483,83.027711 299.348,81.6684161 L299.348,71.5705114 L290.243,71.5705114 L290.243,70.17429 L290.243,70.17429 Z M291.777,62.0105362 L304.463,62.0105362 L304.463,63.4067577 L291.777,63.4067577 L291.777,62.0105362 Z M322.085,29.2716882 C324.776,27.1519067 327.243,24.7187488 329.485,21.9692205 L330.719,22.9113456 C328.925,25.1109682 326.867,27.2307498 324.552,29.2716882 L332.961,29.2716882 L332.961,30.6858739 L322.758,30.6858739 C320.889,32.0990616 318.87,33.3954816 316.703,34.573138 L328.364,34.573138 L328.364,47.8836495 L326.906,47.8836495 L326.906,46.1161668 L313.228,46.1161668 L313.228,47.8836495 L311.657,47.8836495 L311.657,37.0452185 C310.088,37.7528103 308.406,38.4594042 306.612,39.165998 C306.536,39.0103078 306.424,38.735854 306.275,38.3416385 C306.051,38.0282622 305.9,37.7927309 305.827,37.6350447 C311.282,35.7497964 316.067,33.4354022 320.179,30.6858739 L306.275,30.6858739 L306.275,29.2716882 L317.039,29.2716882 L317.039,25.0321251 L309.078,25.0321251 L309.078,23.6179394 L317.039,23.6179394 L317.039,19.8484409 L318.609,19.8484409 L318.609,23.6179394 L325.448,23.6179394 L325.448,25.0321251 L318.609,25.0321251 L318.609,29.2716882 L322.085,29.2716882 L322.085,29.2716882 Z M310.343,68.025566 L314.229,68.025566 L314.229,63.0843992 C313.82,63.1562562 313.24,63.1921847 312.491,63.1921847 C311.739,63.2640417 311.161,63.2989722 310.752,63.2989722 C310.752,63.1562562 310.717,62.9416832 310.649,62.6542552 C310.649,62.3688232 310.614,62.1542502 310.547,62.0105362 C311.161,61.9396773 312.013,61.8678203 313.104,61.7949652 C315.56,61.6522493 317.504,61.5095333 318.935,61.3658193 L319.141,62.6542552 C318.731,62.6542552 318.15,62.6911817 317.401,62.7620407 C316.583,62.8348957 315.969,62.9067527 315.56,62.9766137 L315.56,68.025566 L319.141,68.025566 L319.141,69.315 L315.56,69.315 L315.56,73.0745184 L316.48,72.4298014 C317.57,73.5765194 318.629,74.6863108 319.651,75.7601738 L318.526,76.7272493 C317.708,75.6533863 316.719,74.5076663 315.56,73.2900894 L315.56,85.6435055 L314.229,85.6435055 L314.229,72.3230139 C313.478,75.4028848 312.286,78.0885402 310.649,80.3799801 C310.581,80.1644091 310.444,79.9139076 310.24,79.6274777 C310.102,79.3420457 309.967,79.1274727 309.831,78.9837587 C311.739,76.4048908 313.207,73.1823039 314.229,69.315 L310.343,69.315 L310.343,68.025566 L310.343,68.025566 Z M314.012,35.9863257 C313.936,35.9863257 313.824,36.0262463 313.676,36.1040914 C313.451,36.1819364 313.301,36.2617776 313.228,36.3396226 L313.228,39.7548262 L326.906,39.7548262 L326.906,35.9863257 L314.012,35.9863257 L314.012,35.9863257 Z M313.228,44.7019811 L326.907,44.7019811 L326.907,41.1690119 L313.228,41.1690119 L313.228,44.7019811 Z M318.424,82.95785 L326.301,82.95785 L326.301,78.6614002 L320.47,78.6614002 L320.47,77.4797517 L326.301,77.4797517 L326.301,73.1823039 L319.856,73.1823039 L319.856,71.8928699 L334.076,71.8928699 L334.076,73.1823039 L327.631,73.1823039 L327.631,77.4797517 L333.565,77.4797517 L333.565,78.6614002 L327.631,78.6614002 L327.631,82.95785 L334.997,82.95785 L334.997,84.246286 L318.424,84.246286 L318.424,82.95785 L318.424,82.95785 Z M320.879,61.6881778 L333.053,61.6881778 L333.053,68.885854 L320.879,68.885854 L320.879,61.6881778 Z M322.311,67.4886346 L331.722,67.4886346 L331.722,62.9766137 L322.311,62.9766137 L322.311,67.4886346 Z M341.537,39.2837637 L343.332,34.1010775 L337.277,34.1010775 L337.277,32.4523585 L364.411,32.4523585 L364.411,34.1010775 L345.014,34.1010775 L343.78,37.7528103 L360.486,37.7528103 C360.411,38.8536197 360.3,40.2268868 360.15,41.8756058 C360.075,42.5053525 360.038,42.9764151 360.038,43.2887934 C359.813,45.9574826 357.908,47.2938232 354.319,47.2938232 C352.526,47.3706703 350.62,47.4115889 348.602,47.4115889 C348.526,46.8616832 348.414,46.2329345 348.265,45.5273386 C349.46,45.6041857 351.441,45.6451043 354.208,45.6451043 C356.898,45.8007944 358.318,44.8975919 358.469,42.9354965 C358.542,42.5432771 358.617,41.9155263 358.692,41.0502483 C358.767,40.1869662 358.805,39.599136 358.805,39.2837637 L341.537,39.2837637 L341.537,39.2837637 Z M341.649,21.143863 L360.038,21.143863 L360.038,29.1539225 L341.649,29.1539225 L341.649,21.143863 Z M343.22,27.6229692 L358.469,27.6229692 L358.469,22.6758143 L343.22,22.6758143 L343.22,27.6229692 Z" id="Fill-4"></path>
                    <path d="M4.229,7.68265144 C2.311,7.68265144 0.757,6.13373386 0.757,4.22054121 C0.757,2.30734856 2.311,0.755436941 4.229,0.755436941 C6.146,0.755436941 7.7,2.30734856 7.7,4.22054121 C7.7,6.13373386 6.146,7.68265144 4.229,7.68265144 L4.229,7.68265144 Z M4.229,5.68762165 C5.039,5.68762165 5.699,5.02893247 5.699,4.22054121 C5.699,3.41015392 5.039,2.75346077 4.229,2.75346077 C3.417,2.75346077 2.756,3.41015392 2.756,4.22054121 C2.756,5.02893247 3.417,5.68762165 4.229,5.68762165 L4.229,5.68762165 Z" id="Fill-6"></path>
                    <path d="M376.511,7.68265144 C374.594,7.68265144 373.039,6.13373386 373.039,4.22054121 C373.039,2.30734856 374.594,0.755436941 376.511,0.755436941 C378.428,0.755436941 379.982,2.30734856 379.982,4.22054121 C379.982,6.13373386 378.428,7.68265144 376.511,7.68265144 L376.511,7.68265144 Z M376.511,5.68762165 C377.32,5.68762165 377.98,5.02893247 377.98,4.22054121 C377.98,3.41015392 377.32,2.75346077 376.511,2.75346077 C375.698,2.75346077 375.038,3.41015392 375.038,4.22054121 C375.038,5.02893247 375.698,5.68762165 376.511,5.68762165 L376.511,5.68762165 Z" id="Fill-7"></path>
                    <path d="M43.28,106.684633 C41.362,106.684633 39.808,105.132721 39.808,103.219528 C39.808,101.306336 41.362,99.7574181 43.28,99.7574181 C45.194,99.7574181 46.749,101.306336 46.749,103.219528 C46.749,105.132721 45.194,106.684633 43.28,106.684633 L43.28,106.684633 Z M43.28,104.686609 C44.09,104.686609 44.75,104.029916 44.75,103.219528 C44.75,102.411137 44.09,101.752448 43.28,101.752448 C42.467,101.752448 41.807,102.411137 41.807,103.219528 C41.807,104.029916 42.467,104.686609 43.28,104.686609 L43.28,104.686609 Z" id="Fill-8"></path>
                    <path d="M340.062,106.684633 C338.146,106.684633 336.591,105.132721 336.591,103.219528 C336.591,101.306336 338.146,99.7574181 340.062,99.7574181 C341.979,99.7574181 343.534,101.306336 343.534,103.219528 C343.534,105.132721 341.979,106.684633 340.062,106.684633 L340.062,106.684633 Z M340.062,104.686609 C340.875,104.686609 341.535,104.029916 341.535,103.219528 C341.535,102.411137 340.875,101.752448 340.062,101.752448 C339.253,101.752448 338.593,102.411137 338.593,103.219528 C338.593,104.029916 339.253,104.686609 340.062,104.686609 L340.062,104.686609 Z" id="Fill-9"></path>
                </g>
                <rect id="Rectangle-6" sketch:type="MSShapeGroup" x="0" y="0" width="640" height="120"></rect>
            </g>
        </g>
    </g>
</svg>