<svg width="640" height="133" viewBox="0 0 640 133" xmlns="http://www.w3.org/2000/svg" xmlns:sketch="http://www.bohemiancoding.com/sketch/ns"><title>Rectangle 8</title><desc>Created with Sketch.</desc><g sketch:type="MSLayerGroup" fill="none"><path d="M373.455 66.306c-.863 0-1.582.613-1.743 1.427h-14.024c0-10.623-4.269-20.248-11.182-27.272l10.476-10.456-.494-.492s-4.129 4.12-10.476 10.456c-7.037-6.9-16.681-11.161-27.326-11.161v-13.551c.816-.161 1.429-.878 1.429-1.739 0-.98-.795-1.774-1.777-1.774-.982 0-1.778.794-1.778 1.774 0 .861.615 1.578 1.43 1.739v13.569c-10.544.185-20.068 4.537-26.981 11.488l-11.084-11.061-.492.491 11.095 11.073c-6.711 6.991-10.843 16.47-10.843 26.916h-15.165c-.162-.814-.879-1.427-1.743-1.427-.981 0-1.777.793-1.777 1.774 0 .98.796 1.774 1.777 1.774.863 0 1.581-.613 1.743-1.425h15.183c.182 10.346 4.404 19.706 11.165 26.576-7.13 7.116-11.87 11.845-11.87 11.845l.495.494s4.74-4.731 11.87-11.846c6.882 6.748 16.261 10.961 26.629 11.142v15.596c-.815.161-1.43.878-1.43 1.739 0 .98.796 1.774 1.778 1.774s1.777-.794 1.777-1.774c0-.862-.613-1.578-1.429-1.739v-15.578c10.467 0 19.964-4.123 26.969-10.821 6.698 6.684 11.097 11.073 11.097 11.073l.491-.492-11.082-11.061c6.964-6.9 11.324-16.404 11.509-26.927h14.042c.163.813.88 1.425 1.743 1.425.982 0 1.777-.794 1.777-1.774s-.795-1.774-1.777-1.774zm-17.3 1.427h-18.694c-.264-4.914-2.39-9.333-5.684-12.572l13.632-13.606c6.64 6.751 10.746 15.993 10.746 26.178zm-37.817 18.627c-9.716 0-17.619-7.889-17.619-17.584 0-9.697 7.903-17.585 17.619-17.585 9.715 0 17.62 7.888 17.62 17.585 0 9.695-7.904 17.584-17.62 17.584zm26.577-45.297c-3.931 3.924-8.612 8.596-13.644 13.617-3.328-3.043-7.737-4.924-12.586-5.01v-19.331c10.205 0 19.466 4.097 26.229 10.724zm-26.925-10.707v19.313c-4.849.086-9.258 1.967-12.586 5.01-4.872-4.862-9.426-9.407-13.299-13.271 6.639-6.677 15.78-10.866 25.885-11.052zm-26.366 11.554l13.275 13.248c-3.294 3.24-5.42 7.659-5.685 12.574h-17.997c0-10.009 3.968-19.104 10.407-25.822zm-10.389 26.518h17.958l-.008.347c0 4.976 1.907 9.507 5.029 12.908l-12.251 12.226c-6.488-6.596-10.546-15.573-10.729-25.482zm11.222 25.974l12.239-12.215c3.397 3.441 8.092 5.599 13.293 5.692v17.229c-9.928-.182-18.924-4.23-25.532-10.706zm26.228 10.723v-17.246c5.201-.093 9.895-2.251 13.293-5.693l12.579 12.554c-6.731 6.426-15.845 10.385-25.873 10.385zm26.378-10.865l-12.603-12.577c3.123-3.402 5.03-7.932 5.03-12.908l-.009-.347h18.655c-.186 10.084-4.382 19.206-11.073 25.833z" fill="#fff" sketch:type="MSShapeGroup"/><path sketch:type="MSShapeGroup" d="M0 0h640v133h-640z"/></g></svg>