<?xml version="1.0" encoding="utf-8"?>
<!-- Generator: Adobe Illustrator 16.0.0, SVG Export Plug-In . SVG Version: 6.00 Build 0)  -->
<!DOCTYPE svg PUBLIC "-//W3C//DTD SVG 1.1//EN" "http://www.w3.org/Graphics/SVG/1.1/DTD/svg11.dtd">
<svg version="1.1" id="图层_1" xmlns="http://www.w3.org/2000/svg" xmlns:xlink="http://www.w3.org/1999/xlink" x="0px" y="0px"
	 width="640px" height="462px" viewBox="0 0 640 462" enable-background="new 0 0 640 462" xml:space="preserve">
<polygon fill-rule="evenodd" clip-rule="evenodd" fill="#FFA9D0" points="0,47.963 346.778,-0.006 356.38,68.322 0,120.925 "/>
<path fill-rule="evenodd" clip-rule="evenodd" fill="#FFFFFF" d="M2.259,49.666c3.911-0.55,338.9-46.862,342.816-47.413
	c0.51,3.622,8.535,60.742,9.045,64.365c-3.911,0.55-348.501,51.497-352.417,52.047C1.193,115.044,2.769,53.29,2.259,49.666"/>
<path fill="#FF489B" d="M50.43,77.761l-0.815-5.802l25.002-3.514l0.815,5.802l-9.533,1.34l0.255,3.12l10.792-1.517l0.815,5.802
	l-8.814,1.239c2.28,2.312,5.662,3.74,10.142,4.294c-1.049,2.12-1.848,4.269-2.395,6.451c-5.586-1.452-9.641-3.773-12.168-6.968
	c-1.31,3.734-4.971,7.272-10.981,10.616c-0.158-0.243-0.46-0.66-0.91-1.253c-1.472-1.766-2.58-3.123-3.323-4.069l-0.583,1.068
	c-1.088-0.769-2.259-1.72-3.52-2.858c-1.473,2.574-3.398,5.408-5.775,8.504c-0.139-0.113-0.355-0.345-0.648-0.698
	c-1.729-1.862-3.017-3.194-3.863-3.993c2.449-2.579,4.291-5.139,5.524-7.68c-0.828-0.672-2.002-1.623-3.52-2.858
	c-1.363-0.992-2.321-1.711-2.872-2.161c0.258-4.243,0.396-8.931,0.409-14.061l-2.878,0.405l-0.789-5.609l3.598-0.506
	c-0.117-1.691-0.247-4.369-0.395-8.031c0.103,2.485,0.119,2.153,0.044-0.993l6.017-0.254l-0.09,8.494l7.555-1.062l0.761,5.416
	c0.746,7.917,0.483,14.33-0.781,19.241l4.501,3.312l-2.334,4.273c5.179-2.306,8.366-4.855,9.563-7.656l-8.814,1.239l-0.815-5.802
	l10.433-1.466c-0.126-0.9-0.213-1.942-0.255-3.12L50.43,77.761z M42.591,82.019c0.781-3.133,0.892-8.015,0.327-14.641l-2.878,0.404
	c-0.121,4.356-0.279,8.456-0.473,12.295L42.591,82.019L42.591,82.019z M50.161,69.318l-2.175-15.473l23.204-3.261l2.175,15.473
	L50.161,69.318z M54.917,58.788l0.544,3.868l11.152-1.567l-0.543-3.868L54.917,58.788z M86.02,73.151l-0.896-23.345
	c11.714-1.908,22.717-4.111,33.004-6.611l3.11,6.466c-8.065,1.793-17.697,3.738-28.895,5.836l0.487,9.99l9.354-1.314l-1.142-8.123
	l7.015-0.986l1.142,8.124l15.29-2.149l0.924,6.576l-15.29,2.149l1.658,11.798c1.103,5.235-0.805,8.2-5.721,8.891
	c-1.182,0.295-3.511,0.69-6.988,1.179c-1.037-3.01-1.84-5.264-2.417-6.761c1.575-0.089,3.445-0.287,5.603-0.59
	c1.935-0.14,2.68-1.363,2.236-3.667l-1.387-9.864L86.02,73.151z M99.443,75.999c-3.311,6.909-5.973,11.884-7.99,14.929
	c-2.312-1.647-4.319-2.878-6.021-3.69c2.138-3.062,4.707-7.826,7.712-14.298L99.443,75.999L99.443,75.999z M124.163,86.133
	c-4.618-5.003-8.342-8.886-11.175-11.644l4.7-4.408c4.232,4.009,8.117,7.734,11.66,11.181L124.163,86.133z M134.891,54.646
	c-1.019-2.88-2.277-6.189-3.779-9.922l3.435-1.666c0.402,1.127,1.056,2.745,1.966,4.852c0.786,2.127,1.381,3.75,1.786,4.877
	L134.891,54.646z M148.044,49.049c-0.263,1.615-0.451,2.892-0.563,3.827l-3.608-0.874l0.435,3.095l4.677-0.657l0.843,5.996
	l-4.677,0.658l0.625,4.448l1.734-2.019c0.55,0.449,1.329,1.194,2.332,2.236c1.675,1.475,2.855,2.493,3.547,3.052l-1.278-9.09
	l23.383-3.286l2.392,17.02c0.752,4.496-0.847,7.022-4.804,7.579c-0.481,0.067-1.2,0.168-2.159,0.303
	c-1.542,0.346-2.851,0.598-3.93,0.75c-0.459-1.513-1.123-3.195-1.993-5.045c1.557-0.219,3.237-0.455,5.036-0.708
	c1.575-0.092,2.205-0.833,1.887-2.237l-11.691,1.643l1.033,7.35l-5.756,0.809l-2.039-14.506l-3.468,4.037l-3.628-3.632l2.12,15.086
	l-5.396,0.758l-1.958-13.926c-0.747,3.393-1.846,6.441-3.301,9.142c-0.568-2.287-1.47-4.789-2.706-7.509
	c1.86-3.285,3.222-7.091,4.081-11.421l-4.856,0.683l-0.843-5.996l5.396-0.758l-2.283-16.247l5.396-0.758l1.767,12.572
	c0.112-0.934,0.291-2.275,0.536-4.02c0.494-2.565,0.77-4.512,0.831-5.836l3.581,0.68C148.579,43.717,148.347,45.983,148.044,49.049
	L148.044,49.049z M149.381,45.508l-0.625-4.448l9.353-1.314l-0.435-3.095l5.936-0.834l0.435,3.095l10.073-1.416l0.625,4.448
	L164.67,43.36l0.272,1.934l8.994-1.264l0.571,4.062l-8.994,1.264l0.299,2.127l10.792-1.517l0.625,4.448l-26.801,3.767l-0.625-4.448
	l10.073-1.416l-0.299-2.128l-8.634,1.214l-0.571-4.062l8.634-1.213l-0.271-1.934L149.381,45.508z M158.52,63.553l0.299,2.127
	l11.691-1.643l-0.299-2.127L158.52,63.553z M159.363,69.548l0.299,2.128l11.692-1.644l-0.299-2.127L159.363,69.548z M189.559,40.847
	c-2.261,0.45-4.051,0.766-5.369,0.952c-0.667-2.141-1.299-4.024-1.895-5.651c6.817-1.087,14.557-2.569,23.22-4.447l1.895,5.651
	C203.009,38.235,197.059,39.398,189.559,40.847L189.559,40.847z M187.511,52.377c-0.891-1.977-2.06-4.641-3.507-7.988l5.026-2.087
	c0.974,1.706,2.191,4.296,3.66,7.77L187.511,52.377z M186.521,60.997l-0.843-5.996l8.994-1.264l-0.435-3.095l6.116-0.859
	l0.435,3.095l8.274-1.163l0.843,5.996l-8.274,1.163l0.625,4.449l1.598-2.986c2.219,1.004,4.991,2.454,8.316,4.354
	c-0.26-0.093-0.053,0.075,0.621,0.504l-3.071,5.56c-0.81-0.542-1.957-1.303-3.438-2.278c-1.602-0.958-2.799-1.644-3.591-2.06
	l1.468,10.444l-6.116,0.859l-1.495-10.638c-1.215,2.67-3.403,5.804-6.565,9.404c-0.314-0.482-0.712-1.151-1.199-2.001
	c-1.076-1.556-1.864-2.826-2.369-3.809c3.253-2.953,5.867-6.544,7.841-10.766L186.521,60.997z M194.82,49.575
	c-0.861-2.64-1.831-5.198-2.913-7.677l5.26-1.726c0.172,0.371,0.375,0.934,0.604,1.69c1.1,2.606,1.868,4.604,2.309,5.987
	L194.82,49.575z M224.531,32.579c-3.719,4.861-7.861,9.324-12.426,13.383l-4.386-5.104c-0.441,2.956-1.063,5.937-1.862,8.94
	l-5.128-1.251c0.914-3.94,1.464-6.977,1.655-9.108l5.461,1.007l-0.125,0.412c4.351-2.978,8.296-7.083,11.843-12.314L224.531,32.579
	L224.531,32.579z M227.001,46.235c-4.006,5.429-8.201,9.963-12.579,13.602c-0.296-0.353-0.737-0.882-1.324-1.589
	c-0.332-0.61-1.36-1.846-3.089-3.708c4.756-3.559,8.754-7.739,11.995-12.534L227.001,46.235L227.001,46.235z M229.623,59.673
	c-3.797,6.056-8.668,11.407-14.618,16.058l-4.565-5.078c5.681-3.954,10.399-9.086,14.16-15.402L229.623,59.673L229.623,59.673z
	 M262.903,47.704c1.387,9.01-0.693,16.4-6.238,22.178c-2.07-1.681-3.668-3.035-4.79-4.061c-1.164,0.426-3.038,1.019-5.62,1.776
	c-3.268,1.116-5.602,1.903-7.004,2.365l-1.824-6.45c2.001-0.543,6.246-1.667,12.733-3.367c1.421-0.329,2.42-0.602,3.003-0.816
	c0.055,0.387,0.083,1.042,0.092,1.959c0.108,0.774,0.138,1.429,0.092,1.959c3.199-3.34,4.284-8.226,3.259-14.659l-2.338,0.329
	l-0.571-4.062l-1.805,2.818c-0.782-1.203-1.694-2.918-2.74-5.138c-0.493,0.858-1.099,2.195-1.822,4.003
	c-1.234,2.541-2.086,4.306-2.558,5.291l6.367-1.684c0.079,1.437,0.292,3.379,0.635,5.828c-5.768,1.599-9.944,2.778-12.526,3.535
	l-2.435-5.575c1.515-1.396,3.234-4.399,5.154-9.008c-2.382,0.467-4.263,0.993-5.647,1.583l-2.282-5.793
	c2.102-3.319,3.819-8.491,5.156-15.517l6.954,1.192c-1.663,4.706-3.449,8.966-5.357,12.784c1.318-0.186,2.568-0.426,3.75-0.724
	c0.539-1.389,1.058-2.91,1.56-4.559l5.39,1.807c1.418-2.961,2.512-6.926,3.28-11.9l6.082,1.512
	c-0.847,6.168-2.69,11.753-5.533,16.753l16.908-2.376c-4.005-3.25-7.402-8.294-10.198-15.135l5.304-2.718
	c2.759,6.583,6.353,11.271,10.781,14.066c-0.333,3.729-0.51,6.383-0.531,7.964c-0.278-0.223-0.751-0.551-1.422-0.983
	c-0.553-0.446-1.026-0.774-1.422-0.983c0.52,5.449,1.154,10.818,1.896,16.104c0.586,5.046-1.331,7.944-5.748,8.697
	c-1.061,0.278-3.03,0.623-5.909,1.027c-0.704-2.4-1.483-4.46-2.336-6.18c0.72-0.101,1.747-0.178,3.085-0.236
	c0.719-0.101,1.259-0.177,1.619-0.228c2.177-0.173,3.093-1.485,2.749-3.937c-0.145-1.03-0.349-2.909-0.608-5.634
	c-0.326-2.321-0.544-3.868-0.652-4.642L262.903,47.704L262.903,47.704z M288.501,45.09l-0.815-5.802l39.572-5.562l0.815,5.802
	l-16.368,2.3l0.517,3.675l14.93-2.098l0.761,5.416l-14.929,2.098l0.543,3.869l18.167-2.554l0.762,5.416l-43.35,6.092l-0.761-5.416
	l18.347-2.579l-0.544-3.868l-14.929,2.098l-0.761-5.416l14.93-2.098l-0.517-3.675L288.501,45.09z M289.977,36.008l-2.202-15.667
	l33.996-4.778l2.202,15.667L289.977,36.008z M295.425,25.183l0.598,4.255l20.505-2.882l-0.598-4.255L295.425,25.183z"/>
</svg>
