<?xml version="1.0" encoding="utf-8"?>
<!-- Generator: Adobe Illustrator 16.0.0, SVG Export Plug-In . SVG Version: 6.00 Build 0)  -->
<!DOCTYPE svg PUBLIC "-//W3C//DTD SVG 1.1//EN" "http://www.w3.org/Graphics/SVG/1.1/DTD/svg11.dtd">
<svg version="1.1" id="图层_1" xmlns="http://www.w3.org/2000/svg" xmlns:xlink="http://www.w3.org/1999/xlink" x="0px" y="0px"
	 width="640px" height="474px" viewBox="0 0 640 474" enable-background="new 0 0 640 474" xml:space="preserve">
<polygon fill="#18AAC3" stroke="#96F0FF" stroke-miterlimit="10" points="-1,50 349.777,-0.006 359.381,68.321 -1,118.001 "/>
<path fill="#FFFFFF" d="M34.199,62.316l-0.625-4.448l6.835-0.96l-0.489-3.481l5.756-0.809l0.489,3.481l6.655-0.936l0.625,4.449
	l-6.655,0.935l0.271,1.935l5.756-0.809l0.571,4.062l-5.756,0.809l0.272,1.934l7.015-0.986l0.625,4.448l-20.146,2.832l-0.625-4.449
	l7.375-1.036l-0.272-1.935l-5.936,0.834l-0.571-4.062l5.936-0.834l-0.271-1.934L34.199,62.316z M40.633,100.267l-3.371-23.983
	l17.448-2.452l2.583,18.374c0.489,3.481-0.758,5.497-3.736,6.047c-0.583,0.211-2.131,0.497-4.649,0.851
	c-0.23-0.756-0.65-2.013-1.263-3.767c-0.314-0.482-0.487-0.853-0.523-1.11c1.318-0.185,2.397-0.337,3.238-0.455
	c1.079-0.151,1.546-0.741,1.401-1.774l-0.082-0.581l-6.655,0.936l1.006,7.156L40.633,100.267z M43.284,79.974l0.299,2.127
	l6.655-0.935l-0.299-2.128L43.284,79.974z M44.154,86.163l0.299,2.128l6.655-0.936l-0.299-2.127L44.154,86.163z M56.748,77.885
	l-0.789-5.609l6.835-0.961l-0.462-3.288l-5.756,0.809l-0.679-4.835c-0.865-0.93-1.693-1.602-2.485-2.018
	c2.035-2.915,3.704-6.7,5.008-11.354l5.99-0.447c-0.084,0.277-0.201,0.752-0.349,1.43c-0.269,0.697-0.438,1.245-0.502,1.648
	l8.274-1.163l0.68,4.835l-2.154,4.248l5.396-0.758l1.25,8.897l1.979-0.278l0.788,5.609l-1.979,0.278l1.495,10.637l-5.216,0.733
	L73.8,84.364l-3.417,0.479l0.761,5.416c0.625,3.592-0.911,5.715-4.608,6.368c-1.321,0.186-3.058,0.43-5.216,0.733
	c-0.284-1.144-0.82-2.778-1.606-4.902c-0.139-0.113-0.216-0.231-0.234-0.361c0.478-0.067,1.328-0.119,2.545-0.161
	c0.837-0.118,1.377-0.193,1.619-0.228c1.439-0.202,1.988-1.068,1.652-2.599l-0.489-3.481l-6.116,0.86l-0.761-5.416l6.116-0.86
	l-0.462-3.288L56.748,77.885z M66.146,58.616l-4.856,0.683c-0.557,1.262-1.131,2.396-1.724,3.398l4.856-0.683L66.146,58.616z
	 M71.326,66.763l-3.417,0.48l0.462,3.288l3.417-0.48L71.326,66.763z M69.159,76.141l0.462,3.288l3.418-0.48l-0.462-3.288
	L69.159,76.141z M85.778,61.776l-0.897-6.383l3.597-0.505l-1.114-7.93l5.936-0.834l1.115,7.93l2.878-0.404l0.897,6.382l-2.878,0.405
	l0.924,6.576l2.769-1.178c0.363,2.581,0.68,4.835,0.952,6.769l-2.77,1.178l1.794,12.765c0.589,3.335-0.723,5.294-3.942,5.879
	c-0.702,0.228-2.193,0.505-4.47,0.826c-0.686-2.271-1.345-4.348-1.977-6.231c0.239-0.034,0.658-0.093,1.259-0.177
	c0.617,0.046,1.106,0.042,1.466-0.009c1.215-0.038,1.665-0.758,1.347-2.162l-1.142-8.123l-3.614,1.691l-1.572-7.274
	c0.46-0.194,1.102-0.417,1.924-0.665c0.922-0.392,1.673-0.694,2.257-0.909l-1.142-8.124L85.778,61.776z M114.148,88.754
	l-1.686-11.992l-4.856,0.683c0.514,4.532-0.282,9.31-2.387,14.339c-0.26-0.096-0.594-0.311-1.008-0.647
	c-2.035-1.424-3.596-2.521-4.681-3.287c2.092-4.238,2.486-10.143,1.178-17.719L97.5,47.309l27.7-3.893l5.437,38.682
	c0.71,3.318-0.673,5.223-4.15,5.711c-1.439,0.202-2.939,0.413-4.497,0.632c-0.496-1.773-1.047-3.535-1.661-5.289
	c0.118-0.017,0.419-0.059,0.899-0.126c0.856,0.012,1.404,0,1.646-0.034c1.216-0.038,1.683-0.631,1.401-1.774l-0.842-5.996
	l-5.037,0.708l1.685,11.992L114.148,88.754z M104.487,52.638l0.897,6.383l4.497-0.632l-0.897-6.382L104.487,52.638z M106.852,69.464
	l0.272,1.934l4.497-0.632l-0.897-6.383l-4.497,0.632L106.852,69.464z M119.956,50.464l-5.037,0.708l0.897,6.383l5.037-0.708
	L119.956,50.464z M116.659,63.55l0.897,6.383l5.037-0.708l-0.897-6.383L116.659,63.55z M156.219,53.257l-3.313-2.69l0.652,4.642
	l-3.417,0.48l0.408,2.901l7.195-1.011l0.789,5.609l-7.195,1.011l0.435,3.095l6.476-0.91l2.392,17.021l-5.396,0.758l-0.299-2.127
	l-7.734,1.087l0.299,2.127l-5.396,0.758l-2.392-17.02l6.475-0.91l-0.435-3.095l-7.735,1.087l-0.788-5.609l7.734-1.087l-0.408-2.901
	l-3.417,0.48l-0.354-2.514c-0.952,1.055-1.957,2.183-3.01,3.381c-0.193-0.497-0.532-1.173-1.019-2.026
	c-0.855-1.72-1.532-3.07-2.037-4.053c4-3.718,6.712-7.911,8.136-12.583l6.35-0.498c-0.169,0.551-0.386,1.173-0.655,1.867
	c2.79,1.58,6.158,3.804,10.108,6.666L156.219,53.257z M152.285,50.063c-1.813-1.585-3.736-3.09-5.771-4.514
	c-0.843,1.829-1.979,3.764-3.403,5.804L152.285,50.063L152.285,50.063z M145.877,73.645l0.625,4.448l7.735-1.087l-0.625-4.448
	L145.877,73.645z M169.246,81.998c-1.798,0.252-3.597,0.505-5.396,0.758c-0.212-0.63-0.614-1.757-1.209-3.38
	c-0.266-1.017-0.495-1.77-0.686-2.271c1.439-0.202,2.757-0.387,3.957-0.556c1.799-0.253,2.519-1.208,2.165-2.868l-1.713-12.185
	l-6.835,0.96l-0.843-5.996l7.195-1.011c-0.967-0.782-2.502-2.145-4.609-4.085c-0.985-0.913-1.754-1.593-2.305-2.043l3.233-4.399
	c1.775,1.328,3.562,2.723,5.356,4.178l3.43-5.61l-13.49,1.896l-0.843-5.996l19.426-2.73l1.033,7.35l-6.196,10.732l8.994-1.264
	l0.815,5.802l-0.521,9.343l-5.172-0.259l0.684-8.183l-3.417,0.48l1.93,13.732C174.982,78.889,173.321,81.425,169.246,81.998
	L169.246,81.998z M192.795,45.153c-1.819-2.506-3.935-5.364-6.341-8.576l4.961-3.853c0.433,0.466,1.081,1.164,1.945,2.093
	c1.176,1.413,2.803,3.422,4.882,6.02L192.795,45.153z M193.818,78.539c-0.206,0.291-0.358,0.51-0.458,0.656l-3.633-7.576
	c0.406-0.581,1.087-1.401,2.04-2.456c0.832-1.035,1.46-1.783,1.887-2.237l-1.658-11.798l-4.317,0.607l-0.952-6.77l10.973-1.542
	l2.582,18.374c2.113,2.859,5.338,4.051,9.673,3.571c10.312-1.449,18.217-2.625,23.716-3.53c-0.084,0.277-0.15,0.681-0.196,1.211
	c-0.294,2.276-0.518,4.147-0.678,5.618c-2.878,0.405-6.785,0.886-11.719,1.45c-5.278,0.742-9.245,1.231-11.899,1.475
	c-4.816,0.544-8.519-0.578-11.112-3.369C196.809,73.711,195.391,75.818,193.818,78.539L193.818,78.539z M199.661,48.33l-0.842-5.996
	l11.512-1.618l-0.435-3.095c-3.083,0.699-6.241,1.272-9.479,1.727l-1.895-5.651c1.781-0.38,4.461-0.889,8.04-1.524
	c7.637-1.335,13.657-2.443,18.059-3.327l2.074,5.625c-3.34,0.602-6.73,1.276-10.171,2.021l0.462,3.288l11.692-1.644l0.843,5.996
	l-11.692,1.643l0.489,3.481l9.533-1.34l2.229,15.86l-25.542,3.589l-2.229-15.859l9.354-1.315l-0.489-3.481L199.661,48.33z
	 M209.573,56.207l0.625,4.448l12.591-1.77l-0.625-4.448L209.573,56.207z M249.213,45.115c-1.397,1.38-3.091,2.801-5.087,4.265
	c-1.161-1.282-2.575-2.661-4.25-4.136c4.949-3.063,8.431-6.575,10.441-10.54l7.222-0.818c-0.103,0.147-0.205,0.294-0.305,0.438
	c-0.169,0.551-0.457,1.118-0.862,1.699l16.188-2.275l-0.38-2.708l-27.701,3.893l0.734,5.222l-6.476,0.91l-1.522-10.831l17.088-2.401
	l-1.857-4.078l7.86-1.499c0.348,0.74,0.925,2.237,1.731,4.49l15.829-2.225l1.522,10.831l-5.396,0.758l0.408,2.901
	c-2.276,2.952-4.343,5.215-6.2,6.789c3.67,0.011,8.16-0.226,13.474-0.71c-0.084,0.277-0.16,0.614-0.224,1.018
	c-0.281,1.488-0.526,3.23-0.732,5.231c-8.984,0.474-15.502,0.207-19.556-0.802c-2.697,1.695-7.21,3.513-13.541,5.453l29.5-4.146
	l2.147,15.279l-6.655,0.936l-0.244-1.741l-18.347,2.579l0.245,1.74l-6.476,0.91l-2.12-15.086l-4.235,1.187
	c-0.351-0.74-0.793-1.729-1.334-2.968c-0.662-1.22-1.157-2.136-1.487-2.75c5.94-1.229,10.886-2.581,14.837-4.058
	C252.419,47.494,251.006,46.574,249.213,45.115L249.213,45.115z M252.854,60.58l0.489,3.481l18.347-2.579l-0.489-3.481
	L252.854,60.58z M260.349,44.734c2.374-1.384,4.298-2.903,5.779-4.56l-11.872,1.668C256.151,43.154,258.182,44.12,260.349,44.734
	L260.349,44.734z M299.2,44.996c0.876,7.11,0.266,13.636-1.833,19.586c-1.962-0.908-3.933-1.882-5.913-2.917
	c1.793-5.51,1.939-13.158,0.444-22.941l-2.311-16.44l15.649-2.2l-1.569-3.33l8.04-1.524c0.384,1,0.866,2.245,1.443,3.742
	l14.571-2.047l2.037,14.506l-31.837,4.475l0.245,1.741l0.245,1.741l12.411-1.745c-0.175-0.37-0.377-0.933-0.604-1.69
	c-0.296-0.353-0.459-0.657-0.496-0.917l7.14-1.398l1.155,2.993l14.03-1.972l0.788,5.609l-20.865,2.933
	c0.145,1.034,0.21,1.943,0.201,2.733l17.627-2.478c0.134,1.824,0.156,2.413,0.065,1.766c0.312,3.112,0.501,5.323,0.563,6.626
	c0.671,4.769-1.225,7.402-5.677,7.898c-2.141,0.43-4.83,0.876-8.067,1.331c-0.789-2.126-1.542-3.993-2.254-5.6
	c1.935-0.14,4.164-0.388,6.682-0.742c2.057-0.156,3.025-1.082,2.912-2.776l-0.119-2.153l-11.872,1.668
	c-0.23,3.583-2.523,7.717-6.877,12.406c-0.414-0.336-0.967-0.786-1.656-1.345c-1.795-1.458-3.106-2.522-3.934-3.195
	c5.128-4.4,7.105-9.479,5.93-15.231L299.2,44.996L299.2,44.996z M296.727,27.395l0.435,3.095l25.722-3.615l-0.435-3.094
	L296.727,27.395z"/>
</svg>
