<?xml version="1.0" encoding="utf-8"?>
<!-- Generator: Adobe Illustrator 16.0.0, SVG Export Plug-In . SVG Version: 6.00 Build 0)  -->
<!DOCTYPE svg PUBLIC "-//W3C//DTD SVG 1.1//EN" "http://www.w3.org/Graphics/SVG/1.1/DTD/svg11.dtd">
<svg version="1.1" id="图层_1" xmlns="http://www.w3.org/2000/svg" xmlns:xlink="http://www.w3.org/1999/xlink" x="0px" y="0px"
	 width="640px" height="644px" viewBox="0 0 640 644" enable-background="new 0 0 640 644" xml:space="preserve">
<polygon fill="#FFFFFF" points="0,76.5 315.968,32.231 325.57,100.561 0,146.174 "/>
<g>
	<polygon fill="#C8C8C8" points="295.667,83.229 325.999,104 317.833,30 291,44.28 	"/>
</g>
<polygon fill="#FFFFFF" points="286.862,17.235 402.968,0.232 412.571,68.56 296.466,85.564 "/>
<path fill="#7B79B8" d="M313.531,35.206l-0.522-3.713l6.476-0.91c-0.169-0.501-0.519-1.241-1.046-2.22
	c-0.154-0.397-0.294-0.693-0.418-0.888l4.396-1.091c0.696,1.48,1.206,2.671,1.528,3.572l5.757-0.809l0.522,3.713l-4.75,0.667
	l3.793,0.887l-1.881,4.367l4.317-0.606l0.521,3.713l-6.763,0.951l0.456,3.249l6.188-0.87l0.522,3.714l-6.188,0.87l1.195,8.51
	c0.502,2.874-0.632,4.559-3.398,5.054c-0.656,0.196-1.801,0.411-3.432,0.64c-0.439-1.728-0.916-3.027-1.429-3.902
	c0.288-0.041,0.767-0.108,1.438-0.202c0.576-0.081,0.959-0.135,1.151-0.162c1.261-0.074,1.757-0.72,1.488-1.945l-1.044-7.427
	l-6.62,0.931l-0.521-3.714l6.62-0.93l-0.457-3.25l-7.482,1.052l-0.522-3.713l4.605-0.647c-0.958-1.231-1.953-2.408-2.99-3.524
	l2.517-1.932L313.531,35.206z M321.32,53.045c-0.665,2.934-1.411,5.617-2.244,8.047l-3.339-0.793
	c0.818-2.534,1.564-5.215,2.244-8.047L321.32,53.045L321.32,53.045z M320.067,36.812c0.582,0.655,1.044,1.169,1.39,1.54
	l-1.984,1.541l4.029-0.566c0.363-0.892,0.818-2.167,1.37-3.822c0.267-0.878,0.468-1.538,0.603-1.978l-7.339,1.031
	C318.605,35.124,319.25,35.876,320.067,36.812L320.067,36.812z M331.213,57.651l-3.826-5.3l2.805-1.972
	c1.314,1.708,2.576,3.373,3.783,4.991c0.553-3.021,0.461-7.165-0.279-12.426l-2.088-14.854c4.85-0.997,9.237-2.139,13.166-3.428
	l1.859,3.841c-3.561,1.131-7.043,2.094-10.453,2.889l0.937,6.653l11.224-1.578l0.588,4.178l-3.598,0.506l2.675,19.032l-3.886,0.546
	l-2.676-19.032l-3.74,0.526l0.064,0.464c1.322,8.019,0.912,14.495-1.231,19.423c-0.413-0.154-1.047-0.484-1.899-0.995
	c-0.938-0.396-1.619-0.719-2.046-0.975c0.147-0.336,0.315-0.888,0.502-1.648c0.431-1.111,0.739-2.049,0.927-2.813L331.213,57.651z
	 M354.462,36.55l-0.631-4.487l2.878-0.405l-1.35-9.593l3.887-0.546l1.348,9.593l2.446-0.344l0.631,4.487l-2.446,0.344l1.74,12.378
	l3.18-1.393c0.121,1.561,0.338,3.108,0.651,4.642c-0.819,0.431-2.106,1.033-3.854,1.804c-2.408,0.97-4.254,1.754-5.539,2.356
	L356.052,51c1.013-0.458,2.072-0.922,3.181-1.394l-1.893-13.461L354.462,36.55z M365.121,39.312l-2-14.235l5.18-0.729
	c-0.236-0.282-0.531-0.66-0.893-1.137c-0.832-1.039-1.428-1.796-1.787-2.273l4.229-1.226l3.057,3.989l3.74-0.526
	c0.496-1.332,1.056-2.934,1.672-4.811l4.592,0.301c-0.297,0.673-0.79,1.689-1.479,3.048c-0.149,0.336-0.258,0.615-0.322,0.834
	l5.324-0.748l2,14.235L365.121,39.312z M369.17,57.677l-2.305-16.401l20.289-2.852l2.306,16.401l-4.028,0.566l-0.24-1.702
	l-12.088,1.699l0.239,1.702L369.17,57.677z M367.175,27.821l1.065,7.582l6.332-0.89l-1.065-7.582L367.175,27.821z M371.275,34.029
	c-0.875-1.349-1.895-2.678-3.055-3.989l1.963-1.696c0.564,0.551,1.396,1.593,2.492,3.121c0.346,0.373,0.58,0.656,0.706,0.848
	L371.275,34.029z M371.494,43.939l0.392,2.785l12.089-1.699l-0.393-2.785L371.494,43.939z M372.299,49.664l0.393,2.785l12.088-1.699
	l-0.393-2.785L372.299,49.664z M383.292,25.556l-6.332,0.89l1.065,7.582l6.332-0.89L383.292,25.556z M381.707,30.985
	c-0.475,0.804-0.779,1.426-0.912,1.864l-2.354-1.089c0.146-0.336,0.33-0.781,0.545-1.339c0.756-1.578,1.275-2.755,1.559-3.532
	l2.498,1.069C382.745,28.63,382.3,29.64,381.707,30.985L381.707,30.985z"/>
<path fill="#343261" d="M36.453,105.827l-2.718-19.341l9.893-1.39c0.167-0.547,0.297-1.354,0.393-2.422
	c0.028-0.661,0.085-1.128,0.169-1.405l7.457-0.456l-0.645,3.246l16.908-2.376l2.718,19.341L36.453,105.827z M34.76,113.362
	l-0.707-5.029l39.572-5.562l0.707,5.029l-16.548,2.326l0.353,2.514l14.57-2.048l0.652,4.642l-14.57,2.048l0.354,2.514l18.347-2.578
	l0.707,5.028l-43.349,6.092l-0.707-5.029l18.347-2.578l-0.354-2.515l-14.569,2.048l-0.653-4.642l14.57-2.047l-0.353-2.515
	L34.76,113.362z M40.764,90.823l0.326,2.321l21.405-3.008l-0.326-2.321L40.764,90.823z M41.661,97.206l0.354,2.514l21.405-3.008
	l-0.353-2.515L41.661,97.206z M81.297,91.832L79.693,80.42l17.448-2.452l-1.83-3.885l7.653-1.667c0.155,0.243,0.33,0.613,0.523,1.11
	c0.19,0.5,0.654,1.619,1.389,3.355l16.009-2.25l1.604,11.411l-6.476,0.91l-0.815-5.802l-28.24,3.969l0.815,5.802L81.297,91.832z
	 M89.483,92.654l-0.707-5.029l25.542-3.59l0.707,5.029l-7.555,1.062c-0.323,0.311-0.88,0.715-1.663,1.22
	c-0.305,0.438-1.123,1.144-2.454,2.12c1.297,1.396,2.396,2.689,3.296,3.875c4.145-2.684,7.965-5.523,11.46-8.514l3.999,4.96
	c-1.995,1.464-3.991,2.928-5.986,4.392c2.439,5.18,6.108,8.677,11.011,10.483c-0.305,0.438-0.695,1.152-1.167,2.137
	c-1.104,1.733-1.89,3.091-2.362,4.079c-5.803-2.997-9.928-7.545-12.373-13.645l-1.69,1.026c1.028,2.093,1.732,4.49,2.112,7.198
	c0.934,5.786-1.106,9.096-6.125,9.934c-1.919,0.27-4.078,0.573-6.475,0.91c-0.248-0.887-0.789-2.126-1.623-3.717
	c-0.212-0.629-0.396-1.063-0.55-1.303c-4.166,2.558-7.624,4.489-10.375,5.797c-0.991-1.833-2.085-3.522-3.279-5.061
	c7.864-3.207,14.484-7.426,19.866-12.654l-0.757-1.472c-4.704,3.95-10.259,7.491-16.666,10.626
	c-0.837-1.589-1.938-3.342-3.307-5.255c6.856-2.542,12.484-5.567,16.883-9.079l-0.91-1.253c-3.02,2.002-7.47,4.273-13.35,6.807
	c-0.175-0.37-0.496-0.917-0.964-1.64c-0.855-1.719-1.576-2.934-2.163-3.641c6.929-2.025,12.409-4.373,16.436-7.043L89.483,92.654z
	 M105.332,110.149c-0.072-0.514-0.136-0.967-0.19-1.354c-2.606,2.338-5.249,4.42-7.927,6.242c0.855,0.012,1.876-0.131,3.058-0.43
	c0.72-0.101,1.259-0.177,1.619-0.228C104.806,114.236,105.952,112.824,105.332,110.149L105.332,110.149z M129.318,79.561
	l-1.006-7.157l42.81-6.016l1.005,7.156l-19.426,2.73l1.414,10.058l2.82-4.735c2.79,1.58,6.44,3.631,10.953,6.152
	c2.255,1.261,3.978,2.202,5.166,2.824l-3.779,7.04c-4.171-2.699-9.117-5.687-14.833-8.96l3.316,23.596l-7.555,1.062l-5.056-35.975
	L129.318,79.561z M191.072,73.642c-1.125,3.314-2.413,6.324-3.867,9.025c-2.017-1.295-4.085-2.514-6.202-3.665
	c2.927-5.274,4.905-11.208,5.937-17.796l7.331-0.044c-0.133,0.808-0.43,2.165-0.896,4.07c-0.066,0.404-0.151,0.681-0.251,0.824
	l25.362-3.564l1.005,7.156l-14.21,1.997l1.387,9.864l17.088-2.402l1.005,7.156l-17.088,2.402l2.311,16.44l-7.195,1.011l-2.311-16.44
	l-19.247,2.705l-1.005-7.156l19.246-2.705l-1.386-9.864L191.072,73.642L191.072,73.642z M256.179,65.478l-0.489-3.481l-12.051,1.694
	l0.489,3.481l-6.476,0.91l-0.489-3.481l-8.454,1.188l-0.815-5.802l8.454-1.188l-0.598-4.255l6.476-0.91l0.598,4.255l12.051-1.693
	l-0.598-4.255l6.655-0.935l0.598,4.255l8.274-1.163l0.815,5.802l-8.274,1.163l0.489,3.481L256.179,65.478z M252.625,98.915
	c-0.943,0.262-3.092,0.632-6.448,1.104c-0.789-2.126-1.542-3.993-2.254-5.6c1.557-0.219,3.058-0.43,4.497-0.632
	c1.935-0.139,2.699-1.233,2.291-3.28l-0.761-5.416l-7.555,1.062l4.583,3.893c-2.025,2.127-4.946,4.837-8.762,8.134
	c-0.871,0.779-1.465,1.322-1.788,1.632c-1.748-1.992-3.183-3.498-4.304-4.523c4.157-3.475,7.46-6.503,9.912-9.085l-5.576,0.784
	l-0.734-5.222l-3.075,1.615l-3.263-6.247c8.786-3.602,14.781-7.927,17.986-12.981l7.429-0.65l-0.862,1.699
	c4.879,3.392,11.357,5.11,19.434,5.158l-1.567,7.124l-3.374-0.512l0.761,5.416l-12.771,1.795l1.033,7.35
	C258.19,95.896,256.582,98.359,252.625,98.915L252.625,98.915z M267.687,76.878c-6.765-1.151-12.367-3.587-16.801-7.303
	c-2.99,3.971-7.642,7.848-13.958,11.626l12.231-1.719l-0.761-5.416l6.476-0.91l0.761,5.416L267.687,76.878L267.687,76.878z
	 M272.373,94.562c-4.818-2.084-9.231-3.896-13.237-5.437l3.098-5.366c1.684,0.685,3.947,1.55,6.785,2.597
	c2.718,1.066,4.85,1.882,6.398,2.454L272.373,94.562z"/>
</svg>
