<?xml version="1.0" encoding="utf-8"?>
<!-- Generator: Adobe Illustrator 16.0.0, SVG Export Plug-In . SVG Version: 6.00 Build 0)  -->
<!DOCTYPE svg PUBLIC "-//W3C//DTD SVG 1.1//EN" "http://www.w3.org/Graphics/SVG/1.1/DTD/svg11.dtd">
<svg version="1.1" id="图层_1" xmlns="http://www.w3.org/2000/svg" xmlns:xlink="http://www.w3.org/1999/xlink" x="0px" y="0px"
	 width="640px" height="474px" viewBox="0 0 640 474" enable-background="new 0 0 640 474" xml:space="preserve">
<polygon fill="#F48116" stroke="#FFBC64" stroke-miterlimit="10" points="-3,110 641,16.999 641,165.999 -3,256.999 "/>
<polygon fill="#FF8900" points="118.218,239.192 -3,256.583 -3,110.5 262.834,72.167 "/>
<g id="图层_2">
	<polygon fill="#F5901A" points="512.095,183.625 601.044,23.312 641.548,17.416 642.55,165.33 	"/>
	<polygon fill="#F5901A" points="-3,110.5 -3,256.583 170.215,232.002 52.16,102.583 	"/>
</g>
<polyline fill="#FF8900" points="557,29.833 641.548,17.416 642.55,131.833 "/>
<path fill="#FFFFFF" d="M56.165,145.703L56.165,145.703c-0.756-0.777-1.945-1.935-3.57-3.475c1.02,0.993,0.854,0.859-0.497-0.403
	c0.214,4.452-0.643,8.58-2.574,12.385c-0.19-0.101-0.514-0.307-0.968-0.622c-0.456-0.314-0.812-0.548-1.067-0.702
	c2.186-3.652,2.945-8.492,2.274-14.52c-0.018-0.124-0.048-0.34-0.091-0.65c-0.19-2.182-0.384-3.984-0.584-5.409l2.159-0.303
	c0.104,0.743,0.209,1.707,0.318,2.89c0.177,1.679,0.31,3.049,0.401,4.109l0.013,0.093c-0.049,0.07-0.068,0.137-0.06,0.197
	l0.146-0.209c0.472,0.439,0.638,0.573,0.497,0.403c2.137,1.846,3.745,3.261,4.823,4.245L56.165,145.703z M54.586,177.658
	c-0.11,1.72-0.53,3.545-1.255,5.478c-0.266-0.216-0.639-0.573-1.119-1.073c-0.274-0.278-0.478-0.47-0.609-0.577
	c0.655-1.607,1.005-3.076,1.053-4.408c0.047-1.332-0.133-3.452-0.542-6.362l-1.2-8.541l15.714-2.208l1.435,10.212
	c0.6,4.271,1.096,6.757,1.489,7.459c0.167,0.355,0.365,0.517,0.596,0.484c0.221-0.095,0.363-0.335,0.427-0.723
	c-0.054-1.633-0.113-2.886-0.177-3.762c0.182,0.038,0.544,0.113,1.088,0.226c0.238,0.03,0.419,0.068,0.544,0.113
	c-0.014,0.318-0.003,0.821,0.036,1.51c-0.007,1.201-0.019,1.959-0.032,2.277c-0.013,1.579-0.595,2.45-1.746,2.612
	c-1.036,0.146-1.857-0.465-2.459-1.832c-0.635-1.172-1.251-3.895-1.852-8.166l-1.148-8.169l-11.656,1.638l0.914,6.499
	C54.53,173.5,54.697,175.938,54.586,177.658L54.586,177.658z M60.133,141.358c0.139,4.335-1.283,8.417-4.267,12.244
	c-0.199-0.161-0.526-0.399-0.98-0.714c-0.397-0.323-0.726-0.561-0.981-0.714c3.599-4.04,5.039-9.039,4.319-14.997
	c-0.25-2.616-0.479-4.666-0.688-6.151l2.072-0.292c0.2,1.425,0.384,2.945,0.553,4.562c1.46,7.054,4.27,11.802,8.429,14.247
	c-0.422,0.753-0.816,1.502-1.181,2.249C63.826,149.265,61.4,145.788,60.133,141.358L60.133,141.358z M60.091,208.71
	c-0.4,0.498-0.733,1.05-1,1.656l-1.703-1.465c0.44-0.63,0.59-1.439,0.451-2.43l-1.044-7.427l-2.59,0.364l-0.287-2.042l4.576-0.643
	l1.292,9.191c0.204-0.218,0.505-0.575,0.906-1.074c0.807-0.933,1.411-1.649,1.811-2.148c0.009,0.063,0.055,0.182,0.139,0.359
	c0.185,0.48,0.448,1.105,0.792,1.877C62.364,206.088,61.249,207.35,60.091,208.71L60.091,208.71z M65.313,178.801
	c-1.378-1.447-2.872-3.1-4.482-4.956c-1.152,2.244-2.495,4.39-4.026,6.435c-0.531-0.43-1.088-0.855-1.676-1.279
	c1.906-2.729,3.315-5.011,4.233-6.843c-0.557-0.616-1.419-1.536-2.589-2.76c-1.112-1.231-1.975-2.151-2.589-2.76l1.385-1.425
	c0.614,0.609,1.476,1.529,2.589,2.76c0.962,1.001,1.684,1.751,2.166,2.251c0.792-1.877,1.55-4.004,2.273-6.378l1.871,0.779
	c-0.667,2.366-1.562,4.764-2.687,7.194c2.356,2.573,4.025,4.421,5.005,5.545L65.313,178.801z M58.824,194.688
	c-1.303-1.332-2.612-2.504-3.928-3.519l1.372-1.518c1.325,1.078,2.654,2.183,3.989,3.321L58.824,194.688z M62.678,209.578
	l-0.274-1.949l5.094-0.716l-2.636-18.753l2.072-0.291l0.913,6.499l5.871-0.825l0.3,2.135l-5.871,0.825l1.422,10.119l6.734-0.946
	l0.274,1.949L62.678,209.578z M69.287,136.282c-0.343-0.771-0.845-1.836-1.505-3.196c-0.186-0.479-0.357-0.864-0.515-1.159
	l1.157-0.542c0.074,0.117,0.191,0.321,0.35,0.614c0.885,1.707,1.467,2.917,1.744,3.636L69.287,136.282z M76.058,144.987
	c-0.424-0.508-1.084-1.235-1.98-2.183c-0.199-0.161-0.336-0.299-0.41-0.416l1.2,8.541l-1.727,0.243l-1.2-8.541
	c-0.395,2.202-1.001,4.149-1.82,5.841c-0.11-0.363-0.333-0.9-0.667-1.61c-0.102-0.301-0.19-0.509-0.264-0.625
	c1.04-1.787,1.762-4.16,2.169-7.121l-2.849,0.4l-0.248-1.764l2.936-0.413l-1.148-8.169l1.727-0.243l1.148,8.17l2.59-0.364
	l0.248,1.764l-2.59,0.364l0.365,2.599l0.759-0.864c1.368,1.386,2.36,2.383,2.974,2.99L76.058,144.987z M72.077,164.315l-0.274-1.95
	l2.59-0.364l-0.613-4.364l1.899-0.267l0.613,4.363l2.331-0.328l0.274,1.95l-2.331,0.328l0.313,2.228l0.147-0.21
	c0.389,0.262,0.977,0.684,1.763,1.267c0.711,0.468,1.228,0.807,1.551,1.013c1.696-0.869,3.126-1.765,4.289-2.686
	c-0.976-0.683-1.901-1.626-2.774-2.829c-0.463,0.886-1.036,1.819-1.72,2.798c-0.423-0.508-0.873-0.981-1.344-1.42
	c1.522-2.107,2.641-4.599,3.352-7.477l2.125,0.08c-0.09,0.202-0.189,0.533-0.301,0.989c-0.17,0.466-0.294,0.831-0.375,1.094
	l7.425-1.043l0.274,1.95c-0.825,2.073-1.947,3.904-3.367,5.491c1.551,0.603,3.423,0.971,5.614,1.104
	c-0.032,0.194-0.099,0.551-0.202,1.07c-0.103,0.52-0.199,0.88-0.288,1.082c-2.811-0.362-5.009-0.967-6.595-1.819
	c-1.637,1.304-3.714,2.605-6.23,3.905c-0.075-0.115-0.16-0.292-0.251-0.533c-0.151-0.23-0.263-0.403-0.337-0.521l-0.267,0.605
	c-0.133-0.107-0.365-0.295-0.696-0.565c-0.207-0.222-0.704-0.626-1.491-1.21l1.618,11.512l-1.899,0.267l-1.618-11.512
	c-0.321,2.317-0.853,4.38-1.596,6.188c-0.177-0.416-0.449-1.104-0.818-2.063c-0.093-0.239-0.147-0.42-0.165-0.545
	c0.864-2.204,1.519-4.853,1.965-7.945L72.077,164.315z M75.296,130.799c-0.252,1.55-0.557,3.14-0.915,4.768l-1.36-0.283
	c0.416-1.635,0.72-3.226,0.915-4.768L75.296,130.799L75.296,130.799z M75.872,131.759l-0.209-1.485l4.835-0.68l-0.274-1.95
	l1.899-0.267l0.274,1.95l5.353-0.753l0.209,1.485l-5.353,0.753l0.208,1.485l4.835-0.68l0.196,1.393l-4.835,0.679l0.222,1.579
	l5.698-0.801l0.208,1.485l-12.778,1.796l-0.208-1.485l5.18-0.729l-0.222-1.578l-4.403,0.619l-0.196-1.393l4.403-0.619l-0.208-1.485
	L75.872,131.759z M78.451,192.785c-0.472,0.824-0.976,1.621-1.513,2.39c-0.16-0.292-0.421-0.698-0.787-1.215
	c-0.216-0.285-0.367-0.517-0.45-0.694c1.718-2.386,2.951-4.895,3.697-7.525l2.004,0.476c-0.411,1.257-0.887,2.46-1.43,3.609
	l1.357,9.655l-1.9,0.267L78.451,192.785L78.451,192.785z M78.926,150.359l-1.579-11.233l10.792-1.517l1.174,8.355
	c0.3,1.724-0.407,2.739-2.125,3.044c-0.23,0.032-0.604,0.085-1.122,0.158c-0.682,0.158-1.226,0.267-1.627,0.323
	c-0.194-0.541-0.424-1.14-0.693-1.796c0.583-0.02,1.423-0.105,2.517-0.259c0.986-0.076,1.39-0.542,1.212-1.401l-0.104-0.743
	l-7.166,1.007l0.535,3.807L78.926,150.359z M81.046,201.225c-0.421,2.016-0.894,3.881-1.415,5.595l-1.931-0.581
	c0.638-1.73,1.089-3.529,1.354-5.397L81.046,201.225L81.046,201.225z M79.355,140.263l0.235,1.671l7.167-1.007l-0.235-1.671
	L79.355,140.263z M79.786,143.327l0.222,1.579l7.166-1.007l-0.222-1.578L79.786,143.327z M82.597,179.026l-1.24-8.82l10.792-1.517
	l1.24,8.82l-1.9,0.267l-0.183-1.299l-6.993,0.982l0.183,1.3L82.597,179.026z M85.093,189.295c-0.428,1.134-0.995,2.317-1.702,3.552
	c-0.133-0.107-0.356-0.233-0.669-0.379c-0.456-0.314-0.812-0.549-1.067-0.702c1.244-2.004,2.194-4.221,2.852-6.649l2.038,0.092
	c-0.081,0.264-0.202,0.66-0.361,1.187c-0.179,0.404-0.284,0.703-0.314,0.896l9.411-1.323l0.274,1.95l-0.804,3.048
	c-0.315-0.145-0.859-0.258-1.633-0.338c-0.125-0.045-0.215-0.065-0.272-0.057l0.71-2.466L85.093,189.295L85.093,189.295z
	 M85.819,206.992c-1.843,0.259-2.894-0.541-3.154-2.397l-0.548-3.899l1.986-0.28l0.47,3.342c0.13,0.929,0.684,1.324,1.664,1.187
	l3.626-0.509c1.283-0.055,1.908-0.615,1.876-1.684c0.085-0.643,0.104-1.34,0.058-2.091c0.247,0.093,0.644,0.194,1.188,0.307
	c0.363,0.076,0.635,0.133,0.816,0.169c0.012,0.504-0.033,1.235-0.132,2.196c-0.041,0.133-0.056,0.229-0.047,0.291
	c-0.128,1.595-1.118,2.492-2.968,2.689L85.819,206.992z M87.009,192.908c-1.081,1.919-2.159,3.649-3.233,5.188
	c-0.531-0.43-1.08-0.795-1.65-1.093c0.994-1.276,2.022-2.935,3.086-4.978L87.009,192.908L87.009,192.908z M86.126,164.045
	c1.07-1.159,2.009-2.617,2.819-4.372l-6.13,0.861c-0.049,0.07-0.068,0.137-0.06,0.198C83.778,162.167,84.902,163.271,86.126,164.045
	L86.126,164.045z M83.518,171.796l0.561,3.992l6.993-0.983l-0.561-3.992L83.518,171.796z M88.677,202.897
	c-0.905-1.009-1.921-1.97-3.047-2.885l1.311-1.32c1.05,0.799,2.115,1.691,3.193,2.675L88.677,202.897z M88.742,198.344
	c-0.576,0.081-1.239,0.174-1.986,0.279c-0.194-0.541-0.424-1.139-0.693-1.796c0.411,0.006,0.991-0.044,1.74-0.15
	c0.92-0.129,1.295-0.591,1.125-1.389l-0.717-5.106l1.899-0.267l0.756,5.385C91.167,197.025,90.459,198.041,88.742,198.344
	L88.742,198.344z M89.729,129.531l-0.274-1.95l9.929-1.396l0.274,1.95l-4.576,0.644c-0.749,2.188-1.42,3.892-2.011,5.111
	c1.438-0.202,2.84-0.462,4.205-0.78l-1.622-2.139l1.437-1.055c0.216,0.287,0.541,0.714,0.973,1.283
	c0.913,1.072,1.591,1.923,2.032,2.555c1.207-2.693,1.944-5.795,2.214-9.306h2.025c-0.154,1.411-0.355,2.701-0.601,3.871l6.562-0.922
	l0.3,2.135l-1.554,0.219c0.206,4.39-0.242,7.892-1.34,10.508c1.368,1.386,3.077,2.471,5.124,3.256
	c-0.316,0.675-0.62,1.444-0.909,2.305c-2.488-1.418-4.214-2.626-5.176-3.627c-0.806,1.376-2.179,3.083-4.123,5.124
	c-0.54-0.492-1.111-1.013-1.716-1.558c0.106-0.078,0.208-0.188,0.307-0.327c0.105-0.079,0.285-0.262,0.539-0.549
	c-3.96,1.061-7.156,1.92-9.587,2.578l-0.546-2.006c0.057-0.008,0.143-0.021,0.259-0.037c1.2-0.231,2.534-0.546,4.006-0.941
	l-0.509-3.621l-3.713,0.522l-0.261-1.857L95.109,139l-0.352-2.507l1.899-0.267l0.352,2.507l3.799-0.534l0.261,1.856l-3.799,0.534
	l0.482,3.435c0.452-0.125,1.105-0.281,1.96-0.464c0.903-0.253,1.581-0.443,2.033-0.57c0.035,0.248,0.053,0.593,0.057,1.033
	c0.043,0.311,0.078,0.557,0.104,0.743c1.57-1.357,2.724-2.75,3.462-4.179c-1.231-1.657-2.305-3.873-3.223-6.647
	c-0.219,0.537-0.461,1.106-0.728,1.712l-0.45-0.694l-1.424,1.147l-0.986-1.376c-1.258,0.24-2.914,0.568-4.968,0.982
	c0.221-0.093-0.039-0.057-0.777,0.109c-0.28,0.104-0.616,0.214-1.01,0.332c-0.222,0.095-0.391,0.149-0.505,0.166l-0.939-1.667
	c0.483-0.319,0.829-0.779,1.039-1.377c0.414-0.815,0.95-2.216,1.611-4.203L89.729,129.531z M95.863,196.397
	c-0.397-0.323-0.965-0.812-1.703-1.465c-1.078-0.985-1.948-1.746-2.61-2.284l1.212-1.401c1.457,1.185,2.947,2.395,4.472,3.632
	L95.863,196.397z M96.967,203.626c-1.063-1.302-2.351-2.73-3.86-4.286l1.397-1.333c1.5,1.493,2.849,2.945,4.046,4.354
	L96.967,203.626z M95.301,171.083l-0.3-2.136l15.109-2.124l0.3,2.135L95.301,171.083z M110.33,174.651
	c-1.2,0.23-2.75,0.481-4.649,0.748c-0.11-0.363-0.275-0.908-0.494-1.635c-0.102-0.302-0.19-0.51-0.264-0.626
	c1.332-0.125,2.804-0.299,4.416-0.525c2.032-0.16,2.959-1.079,2.782-2.758c-0.132-2.19-0.293-4.376-0.481-6.56l-14.074,1.978
	l-0.65-10.891l2.159-0.303l0.197,3.286l14.851-2.087l0.287,2.042l-15.023,2.111l0.224,3.472l13.987-1.966
	c0.151,1.494,0.35,3.959,0.599,7.395c0.038,0.69,0.079,1.188,0.123,1.498C114.661,172.684,113.331,174.291,110.33,174.651
	L110.33,174.651z M100.9,205.248l-2.557-18.196l2.331-0.328c0.022-0.255,0.061-0.607,0.116-1.058
	c0.133-0.712,0.209-1.639,0.226-2.777l2.211,0.068c-0.132,1.155-0.292,2.313-0.48,3.476l3.885-0.546l2.531,18.01l-1.899,0.267
	l-0.248-1.764l-4.403,0.619l0.274,1.95L100.9,205.248z M100.616,188.815l0.717,5.106l4.403-0.619l-0.717-5.106L100.616,188.815z
	 M101.621,195.963l0.744,5.292l4.403-0.619l-0.744-5.292L101.621,195.963z M103.064,131.065c0.854,3.162,1.94,5.66,3.254,7.495l0,0
	c0.767-2.063,1.07-4.916,0.911-8.554l-3.972,0.559l-0.06,0.197C103.157,130.895,103.112,130.996,103.064,131.065L103.064,131.065z
	 M116.156,202.914c-1.152,0.162-2.361,0.332-3.626,0.51c-0.154-0.673-0.403-1.396-0.745-2.167c0.756-0.044,1.883-0.17,3.38-0.381
	c1.628-0.103,2.326-0.99,2.091-2.66c-0.077-1.377-0.399-4.299-0.967-8.764c-0.126-1.308-0.227-2.24-0.305-2.797l-5.18,0.728
	c-0.153,0.59-0.413,1.447-0.783,2.572c-0.161,0.528-0.282,0.924-0.362,1.187c-0.57-0.299-1.198-0.589-1.883-0.872
	c1.008-2.854,1.689-5.729,2.046-8.619l2.051,0.185c-0.064,0.388-0.163,0.938-0.296,1.651c-0.126,0.775-0.221,1.356-0.283,1.744
	l6.389-0.898c0.557,3.961,1.093,8.62,1.612,13.974C119.669,200.968,118.622,202.504,116.156,202.914L116.156,202.914z
	 M113.616,196.739c-0.35-0.392-0.873-0.981-1.569-1.768c-0.989-1.187-1.761-2.087-2.317-2.704l1.397-1.332
	c0.489,0.563,1.215,1.344,2.179,2.344c0.821,0.832,1.443,1.501,1.867,2.01L113.616,196.739z M114.853,144.173l-2.688-19.125
	l7.425-1.043l2.649,18.846l-1.899,0.267l-0.235-1.671l-3.626,0.51l0.274,1.949L114.853,144.173z M114.325,126.638l0.809,5.756
	l3.626-0.51l-0.809-5.755L114.325,126.638z M115.395,134.25l0.822,5.849l3.626-0.51l-0.822-5.849L115.395,134.25z M116.287,158.103
	l-0.274-1.95l2.59-0.364l-0.613-4.364l1.899-0.267l0.613,4.363l2.331-0.328l0.274,1.95l-2.332,0.328l0.313,2.228l0.146-0.21
	c0.389,0.262,0.977,0.684,1.763,1.267c0.711,0.468,1.228,0.807,1.551,1.013c1.696-0.869,3.126-1.765,4.289-2.686
	c-0.977-0.683-1.901-1.626-2.775-2.829c-0.463,0.886-1.036,1.819-1.72,2.798c-0.424-0.508-0.873-0.981-1.344-1.42
	c1.522-2.107,2.64-4.599,3.351-7.477l2.125,0.08c-0.09,0.202-0.189,0.533-0.301,0.989c-0.169,0.466-0.294,0.831-0.375,1.094
	l7.425-1.043l0.274,1.95c-0.824,2.073-1.947,3.904-3.366,5.491c1.551,0.603,3.423,0.971,5.614,1.104
	c-0.032,0.194-0.099,0.551-0.202,1.07c-0.103,0.521-0.2,0.88-0.288,1.082c-2.811-0.362-5.009-0.967-6.595-1.818
	c-1.637,1.304-3.714,2.604-6.23,3.905c-0.075-0.116-0.16-0.293-0.251-0.533c-0.151-0.23-0.263-0.403-0.337-0.521l-0.267,0.605
	c-0.133-0.107-0.365-0.295-0.696-0.565c-0.207-0.222-0.704-0.626-1.491-1.21l1.618,11.512l-1.899,0.267l-1.618-11.512
	c-0.321,2.317-0.852,4.38-1.595,6.188c-0.177-0.416-0.45-1.104-0.818-2.063c-0.093-0.239-0.147-0.42-0.165-0.545
	c0.864-2.204,1.519-4.853,1.965-7.945L116.287,158.103z M121.317,128.779l-0.287-2.042l7.08-0.995l-0.666-4.735l1.986-0.279
	l0.666,4.735l2.59-0.364l0.287,2.042l-2.59,0.364l1.644,11.698c0.361,2.158-0.489,3.413-2.552,3.767
	c-1.094,0.154-2.216,0.312-3.367,0.474c-0.084-0.178-0.177-0.417-0.277-0.719c-0.203-0.603-0.387-1.082-0.554-1.437
	c0.583-0.02,1.624-0.134,3.121-0.344c1.274-0.117,1.796-0.788,1.565-2.019l-1.566-11.141L121.317,128.779z M142.778,196.904
	c-0.539,0.77-1.013,1.563-1.427,2.378c-3.952-2.221-7.363-6.033-10.236-11.437l-0.437-0.602c-0.732,5.658-3.093,10.564-7.087,14.724
	l-1.768-1.929c4.201-3.935,6.59-9.068,7.168-15.397c-1.413-1.695-2.731-2.93-3.954-3.704l1.471-1.438
	c2.125,1.343,4.296,3.846,6.514,7.511C135.834,191.979,139.085,195.278,142.778,196.904L142.778,196.904z M125.6,136.698
	c-0.843-1.396-1.978-3.003-3.407-4.823l1.497-1.252c1.213,1.534,2.402,3.104,3.567,4.706L125.6,136.698z M126.806,172.813
	l-1.24-8.82l10.792-1.517l1.24,8.82l-1.899,0.267l-0.183-1.299l-6.994,0.983l0.183,1.299L126.806,172.813z M130.335,157.832
	c1.07-1.159,2.01-2.617,2.819-4.372l-6.13,0.861c-0.049,0.07-0.069,0.137-0.061,0.198
	C127.987,155.954,129.111,157.058,130.335,157.832L130.335,157.832z M127.727,165.583l0.561,3.992l6.994-0.983l-0.561-3.992
	L127.727,165.583z M139.485,125.189c-1.45-1.122-2.886-2.15-4.308-3.087l1.1-1.574c1.48,0.928,2.999,1.914,4.554,2.957
	L139.485,125.189z M137.624,142.018l-2.192-15.597l8.03-1.129l-0.9-6.406l2.072-0.292l0.9,6.407l8.116-1.141l1.748,12.44
	c0.326,1.91-0.431,2.996-2.272,3.254c-0.453,0.125-1.455,0.299-3.009,0.517c-0.102-0.302-0.294-0.843-0.58-1.622
	c-0.093-0.24-0.147-0.422-0.165-0.545c0.583-0.02,1.537-0.121,2.862-0.308c0.928-0.068,1.308-0.499,1.138-1.296l-1.435-10.212
	l-14.333,2.015l1.918,13.647L137.624,142.018z M156.425,168.078c-0.682,0.158-1.858,0.355-3.527,0.59
	c-0.22-0.727-0.459-1.388-0.719-1.981c0.863-0.122,1.956-0.275,3.281-0.461c1.572-0.095,2.21-0.974,1.919-2.637
	c-0.216-2.367-0.458-4.511-0.728-6.43l-13.814,1.941c0.758,4.565,0.445,8.396-0.938,11.492c-0.134-0.108-0.298-0.242-0.497-0.403
	c-0.605-0.547-1.037-0.896-1.292-1.049c0.655-1.607,0.997-3.137,1.027-4.594c0.104-1.34-0.047-3.464-0.456-6.374l-1.213-8.634
	l16.836-2.366l0.861,6.127l-14.851,2.087l0.274,1.949l15.8-2.22c0.078,0.557,0.166,1.396,0.266,2.519
	c0.395,3.227,0.624,5.278,0.688,6.152C159.651,166.394,158.679,167.824,156.425,168.078L156.425,168.078z M141.552,137.396
	l-1.004-7.149l9.152-1.287l1.004,7.149L141.552,137.396z M141.715,151.116l0.353,2.507l12.951-1.82l-0.353-2.507L141.715,151.116z
	 M144.041,189.622c-0.179,0.403-0.312,0.707-0.401,0.908c-0.11-0.363-0.294-0.842-0.554-1.437c-0.185-0.478-0.324-0.837-0.416-1.078
	c1.62-3.509,2.756-7.329,3.408-11.461l2.15,0.266c-0.382,1.885-0.813,3.617-1.294,5.199l2.349,16.711l-1.986,0.279l-1.774-12.626
	C145.273,187.115,144.778,188.193,144.041,189.622L144.041,189.622z M142.695,131.744l0.496,3.528l5.353-0.752l-0.496-3.528
	L142.695,131.744z M145.6,166.854l-0.861-6.127l9.411-1.322l0.861,6.127L145.6,166.854z M146.873,162.131l0.392,2.785l5.698-0.801
	l-0.392-2.785L146.873,162.131z M152.617,119.651c-0.986,1.339-2.165,2.766-3.536,4.284l-1.504-1.304
	c1.264-1.439,2.419-2.833,3.462-4.178L152.617,119.651L152.617,119.651z M154.941,179.475l7.167-1.007l0.287,2.042l-5.525,0.777
	l0.717,5.106l5.008-0.704l0.287,2.042l-5.008,0.704l0.822,5.849l6.13-0.861l0.261,1.856l-14.419,2.026l-0.261-1.857l6.216-0.874
	l-0.822-5.849l-5.094,0.716l-0.287-2.042l5.094-0.716l-0.718-5.106l-5.698,0.801l-0.287-2.042L154.941,179.475
	c-0.744-1.536-1.321-2.717-1.73-3.544l2.02-0.663c0.392,0.702,0.964,1.853,1.717,3.451L154.941,179.475z M159.192,138.888
	l-2.558-18.196l2.332-0.328c0.022-0.254,0.06-0.607,0.115-1.058c0.134-0.712,0.21-1.639,0.226-2.777l2.211,0.067
	c-0.132,1.156-0.292,2.314-0.48,3.478l3.885-0.546l2.531,18.01l-1.899,0.267l-0.248-1.764l-4.403,0.619l0.274,1.949L159.192,138.888
	z M158.908,122.455l0.718,5.106l4.403-0.619l-0.718-5.106L158.908,122.455z M159.913,129.604l0.744,5.292l4.403-0.619l-0.744-5.292
	L159.913,129.604z M182.321,187.56l-0.157-1.114l-5.698,0.8c-0.013,1.581-0.329,2.887-0.946,3.92
	c2.291,0.436,6.088,0.312,11.394-0.371c-0.241,0.792-0.434,1.512-0.576,2.164c-5.733,0.553-9.796,0.461-12.189-0.275
	c-1.194,1.114-3.317,2.295-6.369,3.546c-0.151-0.232-0.404-0.575-0.761-1.029c-0.283-0.339-0.495-0.593-0.636-0.763
	c2.857-0.969,4.716-1.735,5.576-2.298c-1.066-0.48-2.237-1.295-3.513-2.441l1.225-1.308c1.258,1.023,2.541,1.79,3.845,2.3
	c0.586-0.84,0.907-1.894,0.964-3.165l-6.994,0.983l-1.383-9.841l7.425-1.043l-0.287-2.042l-8.893,1.25l-0.248-1.764l19.686-2.767
	l0.248,1.764l-8.806,1.237c0.087,0.62,0.183,1.3,0.287,2.042l7.253-1.019l1.54,10.955L182.321,187.56z M168.014,162.855
	c0.304,2.166-0.218,3.88-1.566,5.143l-0.895-0.727c0.923-0.951,1.3-2.234,1.131-3.851l-1.468,0.206l-0.431-3.063l2.85-0.4
	C167.705,160.659,167.831,161.556,168.014,162.855L168.014,162.855z M174.448,136.555c-1.152,0.162-2.361,0.332-3.626,0.509
	c-0.154-0.673-0.403-1.396-0.745-2.167c0.756-0.044,1.883-0.17,3.38-0.381c1.628-0.103,2.326-0.989,2.091-2.661
	c-0.077-1.376-0.399-4.298-0.967-8.763c-0.126-1.308-0.227-2.24-0.305-2.798l-5.18,0.729c-0.153,0.589-0.413,1.447-0.783,2.571
	c-0.161,0.528-0.282,0.924-0.362,1.188c-0.57-0.299-1.198-0.589-1.883-0.872c1.008-2.855,1.689-5.729,2.046-8.619l2.051,0.184
	c-0.064,0.389-0.163,0.94-0.296,1.653c-0.126,0.774-0.221,1.356-0.283,1.744l6.389-0.899c0.557,3.963,1.093,8.621,1.612,13.976
	C177.961,134.608,176.914,136.145,174.448,136.555L174.448,136.555z M171.908,130.379c-0.35-0.392-0.873-0.981-1.569-1.768
	c-0.989-1.187-1.761-2.087-2.317-2.704l1.397-1.332c0.489,0.563,1.215,1.344,2.179,2.344c0.821,0.832,1.443,1.501,1.867,2.01
	L171.908,130.379z M168.337,180.153l0.326,2.321l5.353-0.752c-0.047-0.75-0.126-1.528-0.24-2.333L168.337,180.153z M174.491,185.726
	c-0.026-0.186-0.07-0.495-0.131-0.929c-0.03-0.625-0.065-1.094-0.109-1.404l-5.353,0.752l0.326,2.321L174.491,185.726z
	 M181.029,178.369l-5.267,0.74c0.104,0.743,0.184,1.521,0.24,2.333l5.353-0.752L181.029,178.369z M176.237,183.113
	c0.035,0.248,0.062,0.654,0.083,1.219c0.07,0.496,0.092,0.872,0.07,1.126l5.525-0.776l-0.326-2.321L176.237,183.113z
	 M196.433,118.225l-0.365-2.599l-15.196,2.136l0.365,2.6l-1.899,0.267l-0.613-4.364l8.72-1.225c-0.343-0.772-0.653-1.519-0.93-2.236
	l2.206-0.593l0.883,2.526l8.202-1.152l0.613,4.364L196.433,118.225z M189.757,125.223c-1.95,1.159-5.152,2.397-9.603,3.716
	c-0.093-0.238-0.227-0.566-0.402-0.984c-0.233-0.408-0.393-0.702-0.476-0.88c3.516-0.873,6.233-1.791,8.153-2.755
	c-1.132-0.535-2.229-1.233-3.288-2.094c-1.069,1.161-2.001,2.048-2.795,2.665c-0.415-0.447-0.855-0.858-1.318-1.235
	c2.315-1.902,3.999-3.906,5.054-6.012l2.038,0.093c-0.099,0.14-0.245,0.351-0.44,0.629c-0.129,0.335-0.243,0.571-0.34,0.711
	l9.238-1.3l0.261,1.858c-1.328,1.829-2.635,3.18-3.921,4.054c1.689,0.331,4.332,0.338,7.927,0.022
	c-0.144,0.651-0.253,1.329-0.331,2.034C195.318,125.956,192.065,125.783,189.757,125.223L189.757,125.223z M185.335,146.975
	c-1.095-1.108-2.21-2.151-3.345-3.127l1.397-1.333c1.077,0.985,2.217,1.993,3.418,3.022L185.335,146.975z M185.765,153.163
	c-0.415-0.446-1.153-1.1-2.213-1.961c-0.531-0.43-0.898-0.757-1.106-0.98l1.298-1.413c1.258,1.023,2.418,1.965,3.479,2.825
	L185.765,153.163z M183.921,135.7l-1.005-7.149l14.16-1.99l1.005,7.148l-1.899,0.267l-0.144-1.021l-10.361,1.456l0.144,1.021
	L183.921,135.7z M187.412,155.487c-0.333,3.897-0.541,6.797-0.625,8.703l-2.064-0.278c0.302-2.44,0.535-5.376,0.699-8.808
	C186.031,155.271,186.695,155.398,187.412,155.487L187.412,155.487z M185.064,130.048l0.378,2.692l10.361-1.456l-0.378-2.692
	L185.064,130.048z M189.556,123.168c1.458-0.898,2.713-1.991,3.766-3.275l-7.857,1.104
	C186.714,121.958,188.079,122.682,189.556,123.168L189.556,123.168z M196.062,176.347c-1.914-1.498-3.487-2.666-4.719-3.502
	c-0.641,1.29-1.405,2.533-2.293,3.73l5.785-0.813l0.235,1.671l-2.331,0.328l0.339,2.414l3.799-0.534l0.235,1.671l-3.799,0.534
	l0.339,2.414l3.108-0.437l1.096,7.798l-1.727,0.242l-0.157-1.114l-4.749,0.667l0.157,1.114l-1.727,0.243l-1.096-7.798l3.281-0.461
	l-0.339-2.414l-4.058,0.57l-0.234-1.67l4.058-0.57l-0.339-2.414l-2.332,0.327l-0.144-1.021c-0.146,0.21-0.4,0.499-0.759,0.864
	c-0.311,0.296-0.515,0.515-0.612,0.654c-0.327-0.647-0.672-1.231-1.038-1.748c2.019-1.924,3.487-4.213,4.406-6.867l1.938,0.011
	c-0.121,0.396-0.25,0.73-0.388,1.001c0.834,0.514,1.936,1.243,3.301,2.187c0.711,0.468,1.262,0.833,1.65,1.093L196.062,176.347z
	 M187.018,145.791l-0.248-1.763l3.886-0.546l-0.313-2.228l1.899-0.267l0.313,2.228l4.144-0.582l-0.313-2.228l1.813-0.255
	l0.313,2.228l3.886-0.546l0.248,1.764l-3.885,0.546l0.235,1.671l-1.813,0.255l-0.235-1.671l-4.145,0.583l0.235,1.671l-1.899,0.267
	l-0.235-1.671L187.018,145.791z M194.295,156.224c-0.195,1.542-0.743,3.072-1.645,4.586c-0.398-0.323-0.825-0.641-1.279-0.956
	l0.522,3.714l-1.813,0.254l-1.644-11.697l3.972-0.558c-0.113-0.804-0.217-1.547-0.313-2.229l-4.403,0.619l-0.248-1.764l15.541-2.184
	l0.248,1.764l-4.49,0.631c0.104,0.743,0.179,1.49,0.227,2.24l3.886-0.546l1.266,9.005c0.292,1.663-0.368,2.608-1.979,2.834
	c-0.173,0.024-0.518,0.073-1.036,0.146c-0.625,0.15-1.053,0.243-1.282,0.275c-0.128-0.488-0.363-1.118-0.706-1.889
	c0.296,0.021,1.02-0.049,2.171-0.211c0.864-0.121,1.218-0.519,1.065-1.191l-0.261-1.857l-0.793,1.248
	c-0.349-0.392-0.888-0.884-1.616-1.477c-0.341-0.331-0.609-0.577-0.808-0.739c-0.35,1.691-0.94,3.13-1.771,4.32
	c-0.199-0.162-0.484-0.311-0.855-0.448c-0.199-0.162-0.361-0.265-0.484-0.311c1.341-2.145,1.882-4.556,1.625-7.234l-3.022,0.425
	c0.026,0.186,0.031,0.438,0.018,0.755c0.043,0.31,0.049,0.561,0.018,0.755c0.91,0.629,1.729,1.241,2.458,1.832l-0.667,1.514
	L194.295,156.224L194.295,156.224z M190.484,153.541l0.861,6.127c1.194-1.934,1.685-4.086,1.47-6.455L190.484,153.541z
	 M190.52,186.403l0.483,3.436l4.749-0.667l-0.482-3.435L190.52,186.403z M193.908,149.083c0.113,0.805,0.188,1.552,0.227,2.24
	l3.108-0.437c-0.122-0.866-0.226-1.609-0.313-2.229L193.908,149.083z M202.173,191.014c-0.864,0.122-1.641,0.23-2.332,0.328
	c-0.145-0.611-0.355-1.275-0.632-1.994c0.527-0.012,1.192-0.073,1.999-0.187c1.044-0.084,1.477-0.555,1.298-1.413l-1.07-7.613
	l-3.799,0.534l-0.274-1.949l4.49-0.631c-1.277-1.146-2.573-2.225-3.889-3.24l1.112-1.481l2.385,1.937l2.466-3.755l-7.166,1.007
	l-0.261-1.856l9.152-1.287l0.313,2.229l-3.186,4.897l0.484,0.311l-0.806,1.154l5.18-0.728l0.222,1.579l-0.263,4.392l-1.667,0.045
	l0.169-3.811l-2.849,0.4l1.148,8.17C204.698,189.775,203.957,190.763,202.173,191.014L202.173,191.014z M201.363,152.012
	l-2.417,0.339c0.035,0.249,0.053,0.594,0.057,1.034c0.061,0.434,0.079,0.779,0.057,1.034c0.397,0.323,0.956,0.75,1.677,1.279
	c0.596,0.484,1.026,0.835,1.292,1.049L201.363,152.012z M205.339,127.676c-0.071,1.588-0.478,3.286-1.221,5.095l-1.81-0.977
	c0.663-1.544,1.038-3.048,1.126-4.513c0.087-1.463-0.064-3.589-0.456-6.374l-1.122-7.985l8.03-1.128
	c-0.277-0.719-0.608-1.397-0.991-2.038l2.206-0.594l1.203,2.292l7.08-0.995l0.822,5.849l-15.627,2.197l0.287,2.043
	C205.31,123.705,205.468,126.082,205.339,127.676L205.339,127.676z M204.018,114.512l0.313,2.229l13.728-1.93l-0.313-2.227
	L204.018,114.512z M205.412,122.554l-0.248-1.764l7.339-1.031c-0.084-0.178-0.214-0.475-0.39-0.892
	c-0.168-0.355-0.293-0.621-0.376-0.801l2.12-0.581c0.083,0.178,0.217,0.507,0.402,0.985c0.176,0.417,0.31,0.746,0.403,0.985
	l7.08-0.995l0.248,1.764l-10.792,1.517c0.113,0.805,0.184,1.521,0.214,2.147l8.807-1.238c0.096,0.682,0.189,1.772,0.284,3.273
	c-0.006,0.379,0.005,0.663,0.031,0.848c0.237,2.112-0.708,3.318-2.837,3.618c-0.289,0.04-0.807,0.113-1.554,0.218
	c-0.798,0.174-1.368,0.287-1.713,0.335c-0.303-0.904-0.572-1.562-0.805-1.97c0.287-0.04,0.777-0.109,1.468-0.207
	c0.699-0.036,1.25-0.081,1.653-0.137c1.332-0.125,1.945-0.777,1.837-1.962c-0.018-0.123-0.061-0.433-0.13-0.928
	c-0.013-0.502-0.031-0.848-0.057-1.034l-6.994,0.983c0.024,2.269-1.213,4.525-3.715,6.771c-0.134-0.108-0.298-0.242-0.497-0.403
	c-0.54-0.492-0.937-0.815-1.192-0.968c1.627-1.365,2.65-2.645,3.07-3.84c0.427-1.132,0.477-2.875,0.146-5.228L205.412,122.554z
	 M207.543,148.401l-1.174-8.355l15.973-2.245l1.174,8.355l-6.821,0.958l0.548,3.899l7.771-1.092l0.274,1.95l-7.771,1.092l0.6,4.271
	c2.705-0.38,5.727-0.805,9.065-1.274c-0.167,0.907-0.276,1.585-0.33,2.035c-2.763,0.389-5.765,0.747-9.005,1.076
	c-3.281,0.461-5.777-0.387-7.489-2.544c-0.376,1.505-1.141,3.157-2.296,4.961c-0.862-0.7-1.454-1.154-1.776-1.36
	c2.072-2.374,2.875-5.642,2.408-9.806h2.025c0.116,1.247,0.109,2.446-0.022,3.601c1.432,2.26,3.207,3.4,5.323,3.417l-1.396-9.934
	L207.543,148.401z M208.715,141.704l0.64,4.549l11.828-1.662l-0.639-4.549L208.715,141.704z M213.853,186.441
	c-1.182,1.617-1.959,2.768-2.333,3.452l-1.276-2.187c0.367-0.305,0.898-0.915,1.591-1.833c0.341-0.489,0.586-0.84,0.733-1.049
	l-1.018-7.242l-2.504,0.352l-0.287-2.042l4.49-0.631l1.292,9.191c1.137,1.418,2.916,1.957,5.333,1.617
	c1.102-0.093,3.519-0.433,7.252-1.02c1.842-0.258,3.195-0.449,4.058-0.57c-0.193,0.721-0.298,1.43-0.317,2.127
	c-5.18,0.728-8.927,1.222-11.237,1.485C217.271,188.422,215.345,187.872,213.853,186.441L213.853,186.441z M211.974,173.072
	c-0.142-0.169-0.324-0.428-0.549-0.775c-1.262-1.463-2.143-2.506-2.641-3.132l1.497-1.251c1.526,1.679,2.644,2.942,3.35,3.789
	L211.974,173.072z M214.739,174.577l-0.248-1.764l6.216-0.874l-0.378-2.692c-1.595,0.352-3.313,0.655-5.154,0.914l-0.52-1.82
	c3.445-0.546,7.538-1.28,12.281-2.199l0.606,1.808c-1.604,0.289-3.346,0.628-5.228,1.019l0.378,2.692l6.303-0.886l0.248,1.764
	l-6.303,0.886l0.392,2.785l4.835-0.679l1.031,7.334l-11.569,1.626l-1.031-7.334l4.749-0.667l-0.391-2.785L214.739,174.577z
	 M218.832,178.641l0.521,3.713l7.598-1.068l-0.522-3.714L218.832,178.641z M222.348,110.892l-0.274-1.951l11.742-1.65l0.274,1.95
	l-5.698,0.801c-0.851,1.887-1.661,3.642-2.43,5.266l5.573-1.068c-0.216-0.284-0.503-0.654-0.86-1.109
	c-0.424-0.508-0.739-0.875-0.947-1.098l1.337-1.135c1.686,1.973,3.031,3.615,4.038,4.925l-1.397,1.333l-0.986-1.376
	c-1.027,0.208-2.43,0.469-4.205,0.78c-1.077,0.278-1.874,0.452-2.392,0.524c-0.058,0.008-0.168,0.057-0.332,0.143
	c-0.74,0.168-1.273,0.337-1.602,0.509l-0.964-1.854c0.358-0.364,0.636-0.688,0.832-0.969c0.854-1.445,1.549-2.962,2.089-4.554
	L222.348,110.892z M224.264,122.646l-0.274-1.95l4.576-0.643l-0.353-2.508l1.986-0.277l0.352,2.506l4.49-0.631l0.274,1.95
	l-4.489,0.631l0.535,3.807l4.917-1.354c0.003,0.442,0.062,1.065,0.174,1.869c-3.459,0.865-7.279,1.875-11.46,3.03l-0.619-1.9
	c0.912-0.19,2.391-0.526,4.438-1.003c-1.422,0.327-1.226,0.267,0.591-0.178l-0.561-3.992L224.264,122.646z M237.69,144.917
	c-2.252,1.516-5.448,3.007-9.585,4.471c-0.102-0.301-0.339-0.741-0.714-1.32c-0.102-0.301-0.19-0.508-0.264-0.625
	c3.548-1.066,6.321-2.214,8.32-3.441c-1.512-0.734-2.92-1.767-4.221-3.099c-0.765,1.244-1.681,2.447-2.751,3.605
	c-0.49-0.561-0.942-1.065-1.357-1.513c2.148-2.257,3.812-4.827,4.992-7.707l2.21,0.068c-0.308,0.738-0.652,1.417-1.034,2.039
	l10.706-1.505l0.3,2.136c-1.392,2.216-2.93,4.009-4.614,5.382c1.896,0.555,4.656,0.766,8.277,0.635
	c-0.072,0.327-0.185,0.784-0.335,1.373c-0.064,0.388-0.111,0.679-0.142,0.873C243.421,146.227,240.157,145.77,237.69,144.917
	L237.69,144.917z M248.629,178.237l-0.157-1.114l-5.698,0.801c-0.013,1.58-0.329,2.887-0.946,3.92
	c2.291,0.436,6.088,0.312,11.394-0.371c-0.241,0.792-0.434,1.512-0.577,2.164c-5.733,0.553-9.796,0.461-12.188-0.275
	c-1.194,1.115-3.317,2.296-6.369,3.546c-0.151-0.231-0.404-0.575-0.761-1.029c-0.283-0.339-0.495-0.593-0.636-0.763
	c2.857-0.969,4.715-1.735,5.576-2.298c-1.066-0.48-2.237-1.295-3.513-2.441l1.225-1.308c1.258,1.022,2.541,1.789,3.845,2.3
	c0.586-0.84,0.907-1.894,0.964-3.165l-6.994,0.983l-1.383-9.841l7.425-1.043l-0.287-2.042l-8.893,1.25l-0.248-1.764l19.686-2.767
	l0.248,1.764l-8.806,1.238c0.087,0.62,0.183,1.3,0.287,2.042l7.252-1.02l1.54,10.955L248.629,178.237z M231.789,158.054
	l-1.266-9.005l14.764-2.075l1.266,9.005l-1.986,0.28l-0.183-1.3l-10.792,1.517l0.183,1.299L231.789,158.054z M237.377,142.689
	c1.547-1.101,3.009-2.601,4.387-4.498l-9.325,1.311C234.179,141.024,235.825,142.088,237.377,142.689L237.377,142.689z
	 M232.77,150.626l0.587,4.178l10.792-1.517l-0.587-4.178L232.77,150.626z M234.646,170.83l0.326,2.321l5.353-0.752
	c-0.047-0.75-0.126-1.528-0.24-2.333L234.646,170.83z M240.8,176.403c-0.026-0.186-0.07-0.495-0.131-0.929
	c-0.03-0.625-0.065-1.094-0.109-1.404l-5.353,0.752l0.326,2.321L240.8,176.403z M237.277,122.521l-1.983-14.111l1.899-0.268
	l1.983,14.112L237.277,122.521z M241.966,127.069c-0.567,0.142-1.627,0.323-3.181,0.542c-0.171-0.797-0.391-1.523-0.659-2.18
	c0.526-0.012,1.481-0.113,2.862-0.308c0.872-0.061,1.239-0.584,1.099-1.574l-2.557-18.198l1.986-0.279l2.636,18.755
	C244.478,125.737,243.75,126.818,241.966,127.069L241.966,127.069z M247.337,169.046l-5.267,0.74
	c0.104,0.743,0.184,1.521,0.24,2.333l5.353-0.752L247.337,169.046z M242.545,173.791c0.035,0.248,0.062,0.654,0.083,1.219
	c0.07,0.496,0.092,0.872,0.07,1.126l5.525-0.776l-0.326-2.321L242.545,173.791z M244.24,108.195l-0.274-1.949l7.339-1.032
	l0.274,1.95l-2.331,0.328l2.153,15.319c0.292,1.664-0.396,2.613-2.065,2.847c-0.625,0.15-1.282,0.275-1.973,0.372
	c-0.119-0.425-0.325-1.059-0.619-1.9c0.633-0.089,1.179-0.167,1.641-0.231c0.805-0.113,1.123-0.568,0.953-1.365l-2.075-14.762
	L244.24,108.195z M249.256,141.971l-0.287-2.042l2.849-0.4l-0.483-3.435l-2.491,0.445c-0.162-0.735-0.34-1.372-0.533-1.913
	c2.465-0.409,4.837-0.869,7.114-1.379l0.52,1.821l-2.724,0.667l0.496,3.528l2.763-0.388l0.287,2.042l-2.763,0.388l0.392,2.785
	l0.586-0.839c0.331,0.27,0.861,0.7,1.59,1.291c0.662,0.539,1.163,0.973,1.504,1.303l-1.186,1.587
	c-0.341-0.331-0.817-0.799-1.431-1.409c-0.406-0.384-0.713-0.688-0.92-0.912l1.344,9.563l-1.899,0.267l-1.344-9.562
	c-0.315,1.938-0.893,3.881-1.734,5.829c-0.159-0.293-0.397-0.733-0.714-1.32c-0.225-0.347-0.38-0.609-0.462-0.787
	c1.054-2.104,1.817-4.61,2.289-7.517L249.256,141.971z M252.105,106.522l-0.261-1.856l12.692-1.784l0.261,1.856l-5.785,0.813
	l-0.2,2.963l5.525-0.776l1.553,11.048l-1.899,0.267l-1.292-9.192l-7.685,1.081l1.318,9.376l-1.899,0.267l-1.579-11.234l3.886-0.546
	l0.2-2.963L252.105,106.522z M266.35,123.929c-0.786-0.584-2.177-1.493-4.169-2.728c-0.902-0.566-1.576-0.976-2.022-1.23
	c-0.554,1.909-2.506,3.886-5.857,5.935c-0.076-0.116-0.292-0.401-0.648-0.855c-0.358-0.456-0.607-0.767-0.748-0.937
	c2.624-1.377,4.259-2.681,4.91-3.909c0.772-1.181,0.977-3.073,0.612-5.673l-0.266-2.519l1.899-0.267l0.253,2.426
	c0.2,1.424,0.262,2.709,0.189,3.856c1.662,0.966,3.993,2.312,6.994,4.034L266.35,123.929z M254.582,167.369
	c0.053,1.634,0.055,3.527,0.005,5.679c-0.19-0.099-0.578-0.139-1.161-0.121c-0.125-0.044-0.216-0.064-0.272-0.057
	c0.128-1.595,0.157-3.682,0.089-6.261l1.334,0.097C254.594,166.831,254.595,167.052,254.582,167.369L254.582,167.369z
	 M262.449,167.588l-0.144-1.021c-0.759,0.864-1.667,1.718-2.722,2.56c-0.142-0.169-0.424-0.508-0.848-1.017
	c-0.207-0.222-0.349-0.392-0.423-0.508c0.115-0.016,0.221-0.093,0.319-0.234l-1.65-1.093l2.388,16.989l-1.813,0.255l-3.105-22.095
	l1.813-0.255l0.431,3.063l0.073-0.105c0.313,0.146,0.73,0.403,1.253,0.771c0.57,0.299,0.987,0.557,1.253,0.771l-0.556,1.688
	c2.643-2.076,4.493-4.575,5.549-7.502l2.085-0.198l-0.241,0.792c2.131,2.225,4.637,3.767,7.517,4.624
	c-0.267,0.605-0.529,1.243-0.788,1.91c-1.354-0.44-2.543-0.968-3.568-1.582l0.169,1.207L262.449,167.588z M264.418,153.378
	l-1.044-7.427l-2.936,0.413l0.157,1.114l-1.813,0.255l-1.591-11.327l4.749-0.667l-0.626-4.456l1.813-0.255l0.626,4.457l4.749-0.668
	l1.592,11.327l-1.899,0.267l-0.156-1.114l-2.85,0.401l1.044,7.427L264.418,153.378z M259.278,138.101l0.887,6.313l2.936-0.413
	l-0.887-6.313L259.278,138.101z M261.687,182.843l-1.866-13.276l6.216-0.874l1.54,10.955c0.248,1.353-0.285,2.153-1.599,2.402
	c-0.116,0.016-0.317,0.044-0.604,0.085c-0.395,0.118-0.708,0.194-0.937,0.226c-0.026-0.186-0.128-0.488-0.303-0.904
	c-0.119-0.426-0.221-0.727-0.303-0.904c0.46-0.064,0.863-0.121,1.208-0.17c0.7-0.036,0.976-0.359,0.833-0.969l-0.274-1.95
	l-2.936,0.413l0.666,4.735L261.687,182.843z M261.684,170.915l0.274,1.95l2.936-0.413l-0.274-1.95L261.684,170.915z M262.166,174.35
	l0.287,2.042l2.936-0.413l-0.287-2.042L262.166,174.35z M268.775,164.995c-1.282-0.767-2.445-1.739-3.491-2.917
	c-0.624,1.413-1.417,2.661-2.38,3.743L268.775,164.995L268.775,164.995z M266.875,137.033l-2.849,0.401l0.887,6.313l2.849-0.4
	L266.875,137.033z M273.16,115.394c-2.219,0.5-3.632,0.889-4.239,1.164l-0.965-1.853c0.376-0.244,0.816-0.874,1.319-1.89
	c0.528-0.831,1.007-1.814,1.435-2.948c-1.2,0.232-2.223,0.471-3.069,0.715l-0.878-1.865c0.293-0.42,0.613-1.064,0.961-1.934
	c0.664-1.544,1.283-3.399,1.859-5.563l2.077,0.371c-0.041,0.133-0.129,0.334-0.267,0.605c-1.024,2.733-1.825,4.77-2.398,6.112
	c0.173-0.024,0.518-0.073,1.036-0.146c0.739-0.166,1.252-0.271,1.541-0.312c0.405-0.876,0.743-1.809,1.016-2.793l1.943,0.673
	c-0.712,1.615-1.863,4.082-3.451,7.396c-0.228,0.476-0.385,0.812-0.474,1.014l3.833-0.917c-0.021,0.699,0.01,1.324,0.088,1.881
	C274.183,115.156,273.726,115.251,273.16,115.394L273.16,115.394z M268.883,177.666l-1.187-8.448l1.554-0.219l1.188,8.448
	L268.883,177.666z M274.981,119.588c-1.972,0.594-3.958,1.281-5.96,2.068l-0.619-1.901c0.557-0.205,1.457-0.489,2.698-0.852
	c1.567-0.536,2.771-0.958,3.608-1.265C274.803,118.319,274.895,118.97,274.981,119.588L274.981,119.588z M271.763,181.237
	c-0.576,0.081-1.267,0.178-2.072,0.292c-0.052-0.372-0.255-0.975-0.606-1.809c0.748-0.105,1.382-0.194,1.899-0.267
	c0.872-0.061,1.218-0.519,1.04-1.377l-1.448-10.305l1.727-0.243l1.514,10.77C274.115,180.022,273.432,181.003,271.763,181.237
	L271.763,181.237z M271.85,132.354l-0.196-1.393l17.527-2.464l0.196,1.394l-7.771,1.091l0.209,1.486l8.806-1.238l0.613,4.364
	l-1.899,0.267l-0.404-2.878l-6.907,0.971l0.705,5.013l-1.986,0.279l-0.705-5.013l-6.821,0.958l0.405,2.878l-1.9,0.267l-0.613-4.364
	l8.72-1.226l-0.209-1.485L271.85,132.354z M271.783,143.156l-0.222-1.579l20.722-2.912l0.222,1.578l-9.843,1.383l-0.27,1.836
	l8.807-1.237l0.652,4.642c0.265,1.478-0.374,2.356-1.919,2.637c-0.921,0.129-1.612,0.227-2.072,0.291
	c-0.186-0.48-0.379-1.021-0.581-1.623c0.575-0.081,1.093-0.153,1.554-0.218c0.872-0.061,1.227-0.456,1.065-1.191l-0.378-2.692
	l-3.54,0.498l0.705,5.013l-1.727,0.243l-0.705-5.013l-3.367,0.473l0.717,5.106l-1.727,0.243l-0.718-5.106L275.793,146l0.783,5.57
	l-1.985,0.279l-1.005-7.148l6.821-0.959l0.184-1.825L271.783,143.156z M283.783,117.688c-1.23,1.688-2.717,3.222-4.459,4.603
	c-0.707-0.847-1.226-1.406-1.556-1.675c1.769-1.196,3.244-2.602,4.425-4.221c-1.568-1.544-2.887-3.411-3.956-5.598
	c0.427,4.295-0.346,8.192-2.32,11.688c-0.208-0.224-0.605-0.546-1.192-0.968c-0.199-0.162-0.365-0.296-0.497-0.404
	c1.168-2.12,1.874-4.206,2.114-6.261c0.24-2.053,0.09-4.998-0.45-8.836l-0.279-2.611l-1.813,0.254l-0.274-1.949l10.706-1.505
	l0.3,2.135l-1.386,4.55l3.54-0.498l0.274,1.95c-0.349,2.953-1.078,5.485-2.19,7.597c1.383,1.07,2.969,1.92,4.761,2.551
	c-0.316,0.674-0.594,1.409-0.835,2.2C286.728,119.641,285.09,118.64,283.783,117.688L283.783,117.688z M274.852,137.423
	l-0.156-1.114l4.403-0.619l0.156,1.114L274.852,137.423z M275.165,139.651l-0.144-1.021l4.403-0.619l0.144,1.021L275.165,139.651z
	 M276.663,163.504c0.135,2.632,0.167,4.742,0.097,6.329c-0.125-0.045-0.362-0.075-0.717-0.089c-0.354-0.012-0.617-0.008-0.79,0.017
	c0.022-0.254,0.028-0.634,0.016-1.138c0.079-1.526,0.075-3.229-0.014-5.11L276.663,163.504L276.663,163.504z M281.882,166.178
	c-0.739-0.653-1.5-1.271-2.286-1.856l2.205,15.689l-1.899,0.267l-3.092-22.002l1.899-0.267l0.613,4.363l0.293-0.42
	c1.307,0.953,2.392,1.779,3.253,2.478L281.882,166.178z M277.734,104.715c0.026,0.186,0.065,0.464,0.118,0.835
	c-0.006,0.38,0.005,0.662,0.031,0.848c1.5,3.576,3.267,6.326,5.298,8.25c0.836-1.57,1.43-3.61,1.781-6.121l-3.54,0.498l-0.274-1.95
	l1.373-4.643l-5.008,0.704L277.734,104.715z M282.188,170.869l-0.274-1.949l4.921-0.692c-0.068-1.316-0.266-3.149-0.597-5.501
	l-3.712,0.521l-0.274-1.949l3.712-0.522l-0.522-3.713l2.072-0.292c0.235,1.671,0.379,2.914,0.436,3.726l5.267-0.74l1.044,7.427
	l1.899-0.267l0.274,1.95l-6.648,0.935c1.594,2.995,4.124,4.911,7.587,5.75c-0.187,0.342-0.463,0.885-0.827,1.631
	c-0.138,0.271-0.228,0.473-0.267,0.605c-3.667-1.442-6.229-3.605-7.692-6.493c-0.234,2.937-1.829,5.779-4.788,8.531
	c-0.142-0.169-0.449-0.474-0.921-0.912c-0.341-0.331-0.577-0.551-0.708-0.658c3.059-2.449,4.62-5.13,4.681-8.042L282.188,170.869z
	 M283.572,136.197l-0.156-1.114l4.403-0.619l0.156,1.114L283.572,136.197z M283.885,138.425l-0.144-1.021l4.403-0.619l0.144,1.021
	L283.885,138.425z M291.506,161.986l-3.281,0.461c0.305,2.167,0.503,4,0.597,5.501l3.454-0.485L291.506,161.986z M290.887,112.434
	l-0.235-1.672l18.908-2.658l0.235,1.671l-8.461,1.189l0.287,2.042l7.425-1.043l0.222,1.578l-7.425,1.043l0.274,1.951l9.325-1.311
	l0.248,1.763l-20.635,2.901l-0.248-1.765l9.325-1.311l-0.274-1.948l-7.425,1.043l-0.222-1.579l7.425-1.043l-0.287-2.043
	L290.887,112.434z M291.958,108.779l-1.227-8.727l4.749-0.667c0.12-0.396,0.248-0.949,0.382-1.663
	c0.022-0.255,0.03-0.414,0.021-0.477l2.271-0.13c-0.041,0.133-0.072,0.327-0.094,0.582c-0.152,0.589-0.292,1.051-0.422,1.385
	l8.979-1.262l1.227,8.727L291.958,108.779z M293.189,133.239l-0.287-2.043l9.152-1.287l-0.601-4.27l2.072-0.291l0.6,4.271
	l4.663-0.655c-0.266-0.214-0.758-0.587-1.478-1.118c-0.712-0.468-1.229-0.805-1.551-1.013l1.211-1.401
	c1.612,1.037,2.718,1.796,3.314,2.28l-1.238,1.214l4.058-0.57l0.287,2.043l-8.979,1.262l0.104,0.743
	c0.818,1.652,1.751,3.067,2.798,4.246c1.712-2.007,2.985-3.605,3.816-4.796l1.69,1.372c-1.004,1.215-2.419,2.834-4.248,4.857
	c1.766,1.708,4.001,3.003,6.709,3.885c-0.09,0.202-0.194,0.5-0.314,0.896c-0.276,0.544-0.455,0.947-0.534,1.211
	c-4.086-1.509-7.197-4.006-9.33-7.493l1.018,7.241c0.361,2.158-0.493,3.383-2.565,3.674c-1.027,0.206-2.002,0.376-2.922,0.505
	c-0.154-0.673-0.369-1.368-0.646-2.086c0.805-0.113,1.611-0.227,2.417-0.34c1.341-0.063,1.858-0.766,1.552-2.111l-1.618-11.512
	L293.189,133.239z M292.952,101.444l0.274,1.95l11.915-1.674l-0.274-1.95L292.952,101.444z M293.422,104.787l0.287,2.042
	l11.915-1.674l-0.287-2.042L293.422,104.787z M303.23,140.159c-2.284,1.71-4.821,3.707-7.61,5.992l-1.164-2.014
	c2.408-1.664,5.083-3.711,8.029-6.146C302.621,138.541,302.87,139.263,303.23,140.159L303.23,140.159z M299.171,138.836
	c-0.813-0.769-2.143-1.876-3.989-3.321l1.186-1.586c0.852,0.638,2.239,1.737,4.161,3.296L299.171,138.836z M304.596,176.15
	c-1.869,0.073-3.057-0.865-3.564-2.813c-0.123-2.127,0.752-3.419,2.625-3.872c1.982-0.089,3.209,0.907,3.678,2.986
	C307.439,174.456,306.526,175.689,304.596,176.15L304.596,176.15z M303.852,170.858c-1.076,0.278-1.585,1.043-1.526,2.297
	c0.263,1.037,0.949,1.538,2.061,1.509c1.133-0.287,1.684-0.961,1.651-2.031C305.749,171.413,305.021,170.821,303.852,170.858
	L303.852,170.858z M311.61,102.037l-0.6-4.271l9.238-1.298l-1.289-2.28l2.193-0.687c0.449,0.694,0.892,1.548,1.328,2.559
	l-0.16,0.117l8.203-1.152l0.6,4.271l-1.984,0.279l-0.354-2.506l-15.455,2.172l0.353,2.506L311.61,102.037z M314.729,102.924
	l-0.235-1.671l13.814-1.941l0.234,1.671l-5.525,0.776c-0.154,0.149-0.363,0.335-0.625,0.562c-0.516,0.515-0.933,0.888-1.252,1.123
	c0.938,0.815,1.672,1.658,2.205,2.53c2.105-1.305,4.051-2.714,5.834-4.228l1.271,1.525c-1.121,0.789-2.269,1.613-3.438,2.471
	c1.404,2.896,3.547,4.773,6.426,5.629c-0.332,0.553-0.687,1.17-1.06,1.853c-3.097-1.142-5.396-3.313-6.901-6.509
	c-0.107,0.079-0.291,0.23-0.553,0.457c-0.271,0.165-0.482,0.321-0.639,0.468c0.502,1.065,0.844,2.248,1.025,3.549
	c0.448,2.777-0.443,4.354-2.681,4.732c-0.862,0.12-1.813,0.254-2.849,0.4c-0.093-0.239-0.231-0.6-0.416-1.078
	c-0.11-0.362-0.208-0.633-0.29-0.811c0.345-0.049,0.81-0.082,1.395-0.102c0.459-0.065,0.834-0.116,1.122-0.158
	c1.456-0.079,2.033-0.979,1.733-2.705c-0.078-0.557-0.183-1.078-0.31-1.566c-2.152,2.64-5.148,4.921-8.985,6.848
	c-0.318-0.587-0.696-1.196-1.138-1.827c3.833-1.548,6.976-3.821,9.432-6.818c-0.225-0.347-0.458-0.755-0.7-1.227
	c-2.14,2.321-4.806,4.242-7.995,5.764c-0.084-0.179-0.272-0.468-0.563-0.868c-0.225-0.347-0.408-0.606-0.549-0.776
	c3.159-1.327,5.841-3.124,8.047-5.391c-0.084-0.178-0.264-0.404-0.537-0.682c-0.133-0.107-0.233-0.188-0.298-0.242
	c-1.907,1.468-4.128,2.791-6.662,3.966c-0.093-0.238-0.281-0.528-0.563-0.868c-0.233-0.408-0.421-0.698-0.562-0.868
	c3.579-1.26,6.349-2.848,8.311-4.766L314.729,102.924z M322.691,144.521c-1.868,0.073-3.057-0.865-3.564-2.813
	c-0.123-2.128,0.752-3.419,2.625-3.872c1.982-0.089,3.209,0.907,3.678,2.986C325.536,142.828,324.622,144.061,322.691,144.521
	L322.691,144.521z M321.949,139.229c-1.077,0.278-1.586,1.044-1.526,2.297c0.263,1.037,0.949,1.538,2.062,1.509
	c1.134-0.287,1.684-0.962,1.652-2.031C323.846,139.784,323.117,139.193,321.949,139.229L321.949,139.229z M333.332,96.242
	l-0.248-1.764l7.512-1.056c0.338-0.931,0.596-1.819,0.771-2.665l2.11-0.013c-0.055,0.45-0.23,1.074-0.528,1.874
	c-0.031,0.194-0.067,0.357-0.107,0.488l9.931-1.396l0.248,1.764l-6.218,0.874c1.931,1.622,4.372,2.51,7.33,2.662
	c-0.032,0.194-0.133,0.524-0.302,0.989c-0.111,0.458-0.208,0.819-0.288,1.082c-1.386-0.246-2.883-0.667-4.491-1.262l0.053,0.372
	l-9.67,1.359l0.221,1.578l10.966-1.541l0.196,1.393l-10.965,1.541l0.207,1.485l11.053-1.553l0.195,1.393l-11.052,1.553l0.222,1.578
	l14.506-2.039l0.233,1.671l-5.784,0.813c0.389,0.262,0.969,0.621,1.736,1.081c1.348,0.819,2.381,1.495,3.104,2.026l-1.459,1.53
	l-1.392-1.13c-3.915,0.55-7.64,1.2-11.172,1.949c-0.921,0.129-1.632,0.292-2.132,0.489l-1.012-1.562
	c0.162-0.087,0.408-0.216,0.736-0.386c0.271-0.166,0.488-0.29,0.651-0.376c0.669-0.663,1.381-1.457,2.131-2.383l-5.785,0.813
	l-0.233-1.671l3.972-0.558l-1.019-7.241c-0.533,0.391-1.44,1.023-2.728,1.898c0.858-0.562,0.7-0.444-0.479,0.351
	c-0.384-0.64-0.787-1.215-1.211-1.723c2.902-1.48,5.038-3.201,6.406-5.161L333.332,96.242z M338.255,124.35
	c-0.336,0.111-0.563,0.174-0.678,0.19c-0.034-0.247-0.142-0.58-0.315-0.997c-0.128-0.487-0.232-0.82-0.316-0.998
	c2.793-0.582,5.625-1.326,8.49-2.234l0.719,1.981c-0.288,0.041-0.711,0.164-1.27,0.368c-0.854,0.183-1.479,0.335-1.873,0.453
	l0.482,3.435l5.095-0.716c-0.512-2.39-0.916-4.636-1.212-6.741l2.072-0.291c0.199,1.425,0.574,3.675,1.125,6.752L358,124.51
	l0.286,2.042l-7.338,1.032l0.368,1.368c0.39,1.523,0.759,2.892,1.104,4.105c1.189-1.555,2.215-3.246,3.073-5.071l1.823,1.069
	c-1.145,2.308-2.469,4.356-3.979,6.145c0.142,0.169,0.295,0.432,0.463,0.787c0.226,0.347,0.38,0.609,0.464,0.787
	c0.73,1.034,1.467,1.466,2.207,1.299c0.459-0.064,0.758-0.453,0.893-1.167c0.027-0.634,0.053-1.711,0.074-3.229
	c0.867,0.321,1.511,0.514,1.931,0.581c0.036,1.51-0.054,2.753-0.269,3.73c-0.221,1.356-0.992,2.127-2.315,2.313
	c-1.546,0.279-2.942-0.471-4.19-2.251c-0.074-0.115-0.191-0.319-0.351-0.613c-0.15-0.23-0.263-0.404-0.337-0.521
	c-1.242,1.185-2.661,2.362-4.258,3.534c-0.707-0.848-1.188-1.348-1.443-1.501c1.604-1.108,3.175-2.465,4.71-4.07
	c-0.571-1.56-1.091-3.38-1.56-5.461l-0.396-1.554l-5.181,0.728l0.509,3.621c0.51-0.134,1.271-0.368,2.278-0.699
	c0.675-0.22,1.18-0.386,1.516-0.497c0.018,0.125,0.049,0.341,0.092,0.65c0.021,0.565,0.086,1.029,0.195,1.393
	c-0.336,0.111-0.842,0.277-1.516,0.497c-1.01,0.331-1.77,0.565-2.278,0.699l0.666,4.735c0.291,1.663-0.334,2.634-1.88,2.915
	c-0.51,0.134-1.454,0.299-2.836,0.493c-0.094-0.24-0.199-0.572-0.316-0.997c-0.186-0.479-0.324-0.839-0.415-1.078
	c0.296,0.021,1.021-0.048,2.171-0.21c0.93-0.068,1.305-0.529,1.126-1.389l-0.522-3.714l-3.952,1.313l-0.658-2.18
	c0.278-0.102,0.76-0.232,1.44-0.392c1.24-0.364,2.197-0.655,2.871-0.877l-0.562-3.992l-4.317,0.607l-0.287-2.042l4.317-0.607
	l-0.444-3.156C340.307,123.904,339.396,124.127,338.255,124.35L338.255,124.35z M342.052,95.017c-0.56,1.025-1.272,2.01-2.138,2.951
	l7.511-1.056c-0.968-0.622-1.866-1.378-2.696-2.272L342.052,95.017z M343.301,108.284c-0.906,1.074-1.828,2.025-2.77,2.851
	c0.979-0.137,2.5-0.384,4.562-0.735c2.063-0.354,3.583-0.599,4.563-0.737c-0.257-0.153-0.712-0.468-1.365-0.944
	c-0.323-0.206-0.551-0.363-0.683-0.472l0.611-0.654L343.301,108.284L343.301,108.284z M355.033,124.074
	c-1.145-1.037-2.493-2.079-4.049-3.123l1.197-1.494c0.91,0.629,2.275,1.573,4.098,2.833L355.033,124.074z M360.057,105.927
	c-0.07,1.588-0.478,3.286-1.221,5.095l-1.811-0.977c0.664-1.544,1.037-3.048,1.127-4.513c0.087-1.463-0.064-3.589-0.455-6.374
	l-1.123-7.984l8.029-1.128c-0.276-0.718-0.607-1.397-0.99-2.038l2.205-0.594l1.203,2.292l7.08-0.995l0.821,5.849l-15.628,2.196
	l0.287,2.042C360.025,101.955,360.186,104.332,360.057,105.927L360.057,105.927z M358.734,92.764l0.313,2.228l13.729-1.929
	l-0.313-2.228L358.734,92.764z M362.066,127.153c-0.461,1.328-0.957,2.596-1.49,3.807l-0.936-2.898
	c1.446-3.484,2.351-7.083,2.709-10.795l2.149,0.266c-0.032,0.193-0.079,0.485-0.142,0.872c-0.238,1.232-0.541,2.632-0.906,4.198
	l2.335,16.619l-1.985,0.279L362.066,127.153L362.066,127.153z M360.129,100.804l-0.248-1.764l7.34-1.031
	c-0.085-0.177-0.215-0.474-0.39-0.892c-0.169-0.355-0.294-0.621-0.377-0.799l2.118-0.582c0.084,0.178,0.219,0.506,0.404,0.985
	c0.174,0.417,0.31,0.746,0.401,0.985l7.079-0.995l0.248,1.764l-10.792,1.517c0.112,0.805,0.185,1.521,0.214,2.147l8.807-1.238
	c0.096,0.682,0.189,1.772,0.284,3.273c-0.006,0.38,0.005,0.662,0.03,0.848c0.238,2.112-0.708,3.318-2.837,3.618
	c-0.289,0.041-0.808,0.113-1.554,0.219c-0.799,0.174-1.369,0.287-1.715,0.335c-0.304-0.904-0.572-1.562-0.806-1.97
	c0.288-0.041,0.777-0.109,1.468-0.207c0.699-0.036,1.25-0.081,1.654-0.138c1.331-0.125,1.943-0.777,1.837-1.962
	c-0.019-0.124-0.062-0.433-0.131-0.929c-0.013-0.502-0.031-0.848-0.058-1.033l-6.994,0.983c0.025,2.269-1.213,4.525-3.715,6.771
	c-0.133-0.108-0.297-0.243-0.496-0.404c-0.539-0.492-0.938-0.815-1.192-0.968c1.627-1.365,2.651-2.645,3.069-3.84
	c0.428-1.132,0.478-2.875,0.146-5.227L360.129,100.804z M368.973,121.164c-1.055-1.239-2.06-2.329-3.013-3.269l1.483-1.345
	c1.343,1.201,2.396,2.22,3.158,3.06L368.973,121.164z M368.77,138.518l-2.295-16.339l2.071-0.292l2.296,16.339L368.77,138.518z
	 M374.812,137.668c-0.275-0.719-0.529-1.473-0.758-2.26c0.93-0.068,1.913-0.174,2.949-0.32c1.34-0.063,1.862-0.735,1.564-2.019
	l-1.971-14.019l-4.922,0.692l-0.3-2.135l7.08-0.995l2.335,16.618c0.389,2.344-0.453,3.662-2.525,3.953L374.812,137.668z
	 M385.037,103.271c0.304,2.166-0.219,3.88-1.566,5.143l-0.895-0.726c0.923-0.951,1.299-2.234,1.131-3.852l-1.468,0.207l-0.431-3.064
	l2.85-0.4C384.729,101.075,384.854,101.971,385.037,103.271L385.037,103.271z M382.868,121.015l-0.272-1.95l4.92-0.691
	c-0.979-1.125-2.045-2.236-3.197-3.338l1.582-1.264c0.531,0.431,1.307,1.142,2.326,2.135c0.547,0.554,0.957,0.97,1.23,1.246
	l-1.423,1.147l4.835-0.679c1.15-2.244,1.965-3.969,2.441-5.172l2.203,0.637c-0.797,1.438-1.539,2.836-2.229,4.195l5.008-0.704
	l0.274,1.95l-7.771,1.092c0.062,0.434,0.127,1.119,0.2,2.055c0.122,0.867,0.184,1.521,0.188,1.961l9.152-1.286l0.287,2.042
	l-8.807,1.238c1.672,3.551,5.028,5.51,10.069,5.874l-0.908,2.305c-5.178-0.915-8.579-2.991-10.208-6.233
	c-0.238,3.315-2.844,6.3-7.812,8.955c-0.134-0.108-0.308-0.305-0.522-0.589c-0.474-0.439-0.82-0.831-1.047-1.178
	c5.225-2.5,7.779-5.416,7.664-8.745l-8.462,1.189l-0.286-2.042l8.721-1.226c-0.004-0.44-0.07-1.126-0.2-2.055
	c-0.058-0.812-0.118-1.466-0.188-1.961L382.868,121.015z M399.139,85.854l-0.248-1.764l10.706-1.505l0.248,1.764l-2.936,0.413
	l0.418,2.971l2.59-0.364l2.258,16.061l-1.641,0.23l-0.196-1.393l-6.646,0.935l0.194,1.393l-1.641,0.23l-2.258-16.061l2.678-0.376
	l-0.418-2.971L399.139,85.854z M401.678,90.136l0.771,5.479c0.994-1.276,1.27-3.081,0.823-5.417l-0.039-0.278L401.678,90.136z
	 M408.392,94.683c-1.198,0.232-1.866-0.337-2.001-1.707l-0.481-3.435l-1.381,0.194l0.039,0.278c0.487,2.646,0.229,4.765-0.779,6.358
	c-0.125-0.044-0.315-0.145-0.57-0.298c-0.257-0.153-0.446-0.252-0.569-0.299l0.272,1.95l6.648-0.934l-0.313-2.229L408.392,94.683z
	 M403.129,99.209l0.365,2.6l6.647-0.935l-0.364-2.599L403.129,99.209z M407.608,116.019c-1.365-0.944-2.723-1.826-4.069-2.647
	l1.073-1.76c1.403,0.813,2.786,1.661,4.144,2.542L407.608,116.019z M407.594,122.174c-1.309-0.952-2.636-1.838-3.982-2.659
	l1.072-1.76c1.404,0.813,2.786,1.661,4.144,2.542L407.594,122.174z M403.888,85.186l0.417,2.971l1.382-0.194l-0.417-2.971
	L403.888,85.186z M409.225,125.637c-0.544,3.234-0.929,5.716-1.152,7.452l-2.091-0.463c0.537-2.852,0.962-5.689,1.27-8.509
	c0.609,0.167,1.307,0.321,2.09,0.463C409.309,124.774,409.27,125.127,409.225,125.637L409.225,125.637z M408.671,89.153
	l-1.554,0.218l0.404,2.878c0.056,0.813,0.452,1.136,1.191,0.969l0.52-0.073L408.671,89.153z M409.553,116.692l-0.301-2.135
	l6.477-0.91c-0.178-0.416-0.573-1.15-1.189-2.199c-0.26-0.594-0.465-1.007-0.614-1.239l2.007-0.755
	c0.625,1.112,1.261,2.285,1.903,3.52l-1.848,0.638l7.253-1.019l0.3,2.135l-5.957,0.837l0.718,5.106l5.354-0.752l0.287,2.042
	l-5.354,0.752l0.821,5.849l6.647-0.934l0.262,1.856l-15.801,2.221l-0.261-1.856l6.993-0.983l-0.822-5.849l-5.353,0.752l-0.287-2.042
	l5.353-0.753l-0.717-5.106L409.553,116.692z M414.235,91.779l1.004,7.148c0.041,1.13,0.657,1.548,1.85,1.255l1.122-0.158
	c1.168-0.039,1.736-0.59,1.704-1.66c-0.016-0.944-0.082-2.039-0.198-3.286c0.124,0.046,0.334,0.08,0.631,0.101
	c0.602,0.105,1.021,0.173,1.262,0.202c-0.022,0.256,0.001,0.631,0.069,1.126c0.041,1.13,0.035,1.921-0.019,2.37
	c0.03,1.889-0.913,2.905-2.83,3.048l-2.071,0.291c-1.949,0.336-3.034-0.489-3.254-2.478l-1.344-9.562l5.438-0.765l-0.821-5.849
	l-5.698,0.801l-0.274-1.95l7.599-1.067l1.356,9.655L414.235,91.779z M421.75,83.816l-0.248-1.764l7.512-1.056
	c0.339-0.931,0.596-1.818,0.771-2.664l2.111-0.013c-0.057,0.45-0.231,1.074-0.529,1.873c-0.032,0.194-0.068,0.357-0.107,0.488
	l9.93-1.396l0.247,1.764l-6.217,0.874c1.931,1.623,4.373,2.51,7.33,2.662c-0.032,0.194-0.133,0.524-0.302,0.989
	c-0.111,0.458-0.208,0.819-0.288,1.082c-1.385-0.246-2.882-0.667-4.491-1.262l0.052,0.372l-9.67,1.359l0.224,1.579l10.965-1.541
	l0.195,1.392l-10.966,1.541l0.209,1.486l11.052-1.553l0.195,1.393l-11.052,1.553l0.222,1.578l14.506-2.039l0.234,1.671l-5.785,0.813
	c0.391,0.262,0.969,0.622,1.737,1.082c1.348,0.819,2.381,1.495,3.102,2.025l-1.458,1.53l-1.391-1.13
	c-3.915,0.55-7.639,1.199-11.172,1.949c-0.922,0.129-1.632,0.292-2.133,0.489l-1.012-1.562c0.163-0.086,0.409-0.216,0.736-0.388
	c0.271-0.164,0.488-0.289,0.652-0.375c0.669-0.662,1.38-1.456,2.13-2.382l-5.784,0.813l-0.234-1.671l3.972-0.559l-1.019-7.241
	c-0.531,0.392-1.439,1.023-2.727,1.898c0.859-0.562,0.699-0.444-0.479,0.352c-0.385-0.64-0.786-1.215-1.211-1.724
	c2.902-1.48,5.037-3.2,6.406-5.16L421.75,83.816z M430.064,111.067c-1.015,1.974-2.102,3.641-3.26,5.002
	c-0.424-0.508-0.854-1.078-1.297-1.71c1.753-2.14,3.017-4.432,3.788-6.876l2.284-0.037c-0.032,0.194-0.143,0.462-0.327,0.803
	c-0.121,0.396-0.226,0.694-0.313,0.896l14.245-2.002l0.248,1.764L430.064,111.067L430.064,111.067z M426.401,121.333l-0.248-1.764
	l2.936-0.412l0.067-5.784l14.419-2.027l0.623,5.687l2.849-0.4l0.248,1.764l-2.936,0.413c0.062,0.434,0.123,1.088,0.188,1.962
	c0.122,0.867,0.184,1.521,0.188,1.962l2.332-0.328l0.247,1.764l-2.504,0.352c0.256,2.237-0.77,3.517-3.069,3.84
	c-1.152,0.162-2.331,0.328-3.54,0.498c-0.438-1.012-0.671-1.643-0.706-1.889c0.354,0.013,1.479-0.114,3.381-0.381
	c1.332-0.125,1.981-0.72,1.949-1.789l-13.814,1.941l0.067-5.784L426.401,121.333z M430.471,82.591
	c-0.561,1.025-1.272,2.01-2.139,2.951l7.512-1.056c-0.968-0.621-1.867-1.378-2.696-2.271L430.471,82.591z M431.719,95.859
	c-0.904,1.074-1.828,2.024-2.769,2.851c0.978-0.138,2.499-0.384,4.562-0.736c2.063-0.354,3.584-0.598,4.563-0.736
	c-0.257-0.153-0.713-0.468-1.366-0.944c-0.323-0.206-0.55-0.364-0.683-0.472l0.612-0.654L431.719,95.859L431.719,95.859z
	 M442.663,123.024l-0.376-3.923l-11.138,1.565l-0.057,3.984l6.82-0.959c-0.588-0.421-1.494-1.021-2.718-1.795
	c-0.189-0.099-0.349-0.171-0.472-0.218l1.014-1.562c1.148,0.659,2.235,1.294,3.262,1.908l-1,1.656L442.663,123.024z
	 M431.217,114.881l-0.056,3.984l10.965-1.541c-0.068-1.316-0.192-2.625-0.375-3.924L431.217,114.881z M437.537,117.875
	c-1.034-0.674-2.121-1.311-3.262-1.908l0.927-1.55c0.38,0.199,0.95,0.498,1.71,0.895c0.703,0.407,1.245,0.709,1.625,0.908
	L437.537,117.875z M449.469,95.632c-0.358,0.366-0.647,0.816-0.866,1.353l-1.489-1.21c0.267-0.605,0.353-1.248,0.257-1.93
	l-1.122-7.984l-2.245,0.315l-0.272-1.95l4.229-0.594l1.278,9.098c0.438-0.63,1.041-1.566,1.807-2.81
	c0.158,0.294,0.358,0.676,0.602,1.146c0.167,0.355,0.293,0.622,0.377,0.799c-0.498,0.638-1.275,1.789-2.332,3.452
	C450.452,94.074,450.379,94.179,449.469,95.632L449.469,95.632z M447.758,81.577c-0.35-0.392-0.934-1.005-1.755-1.836
	c-0.812-0.769-1.422-1.346-1.828-1.731l1.484-1.345c0.396,0.323,1.031,0.866,1.9,1.626c0.813,0.771,1.423,1.347,1.828,1.731
	L447.758,81.577z M448.268,117.121l-0.339-2.414l20.979-2.948l0.34,2.414L448.268,117.121z M453.886,78.822
	c0.504,2.329-0.361,4.312-2.597,5.951c-0.134-0.107-0.369-0.327-0.709-0.658c-0.397-0.323-0.695-0.565-0.896-0.726
	c1.941-1.22,2.688-2.807,2.236-4.764l-0.301-2.135l9.064-1.274l0.562,3.992c0.055,0.813,0.48,1.132,1.279,0.956l1.898-0.267
	l0.027,2.079l-2.417,0.34c-1.554,0.218-2.439-0.446-2.657-1.994l-0.404-2.878l-5.181,0.729L453.886,78.822L453.886,78.822z
	 M458.482,93.986c-1.734,1.442-3.951,2.795-6.649,4.059c-0.225-0.347-0.69-0.944-1.396-1.792c2.879-1.224,4.948-2.367,6.209-3.429
	c-1.564-1.106-3.102-2.845-4.607-5.222l0.318-0.234l-1.122,0.158l-0.273-1.949l12.173-1.711l0.301,2.135
	c-1.064,2.864-2.234,4.985-3.508,6.362c1.75,0.765,3.869,1.224,6.356,1.379c-0.366,0.745-0.62,1.443-0.762,2.095
	C462.588,95.429,460.241,94.812,458.482,93.986L458.482,93.986z M453.998,87.138c1.323,1.897,2.696,3.313,4.119,4.25
	c1.272-1.377,2.29-3.129,3.047-5.256L453.998,87.138z M465.8,79.044l-0.248-1.764l3.626-0.51c-0.193-0.541-0.513-1.348-0.956-2.421
	c-0.177-0.416-0.307-0.714-0.39-0.892l1.847-0.638c0.167,0.355,0.396,0.924,0.681,1.703c0.352,0.835,0.583,1.433,0.692,1.796
	l-0.579,0.271l2.851-0.4l0.248,1.764l-4.317,0.606l0.47,3.342l3.8-0.534c0.147,1.053,0.336,2.604,0.565,4.654
	c0.313,2.228,0.501,3.78,0.566,4.654c0.312,2.228-0.396,3.463-2.121,3.706c-0.509,0.134-1.081,0.247-1.714,0.335
	c-0.025-0.186-0.132-0.519-0.315-0.997c-0.119-0.425-0.226-0.758-0.315-0.997c0.46-0.065,0.978-0.138,1.554-0.219
	c0.938-0.006,1.329-0.565,1.173-1.68c-0.242-2.553-0.527-5.005-0.858-7.358l-2.157,0.304c0.025,0.186,0.048,0.341,0.064,0.464
	c0.67,4.767,0.344,8.503-0.978,11.214l-1.577-1.198c1.077-2.36,1.328-5.583,0.755-9.668l-0.637-5.78L465.8,79.044z M490.982,108.47
	c-0.276,0.544-0.639,1.32-1.082,2.329c-4.368-1.847-7.754-4.211-10.153-7.093c-1.66,3.642-4.359,6.988-8.098,10.038
	c-0.648-0.856-1.177-1.476-1.582-1.86c4.385-3.457,7.236-7.171,8.559-11.144l2.443-0.154c-0.12,0.396-0.274,0.765-0.461,1.106
	C483.133,104.619,486.59,106.879,490.982,108.47L490.982,108.47z M476.462,76.6c-0.282,0.924-0.874,2.144-1.774,3.658
	c-0.531-0.43-1.062-0.86-1.591-1.292c1.407-2.091,2.346-4.4,2.812-6.928l2.013-0.093c-0.215,0.977-0.438,1.893-0.671,2.745
	l8.634-1.213l0.248,1.764L476.462,76.6L476.462,76.6z M480.943,89.697l-0.979-6.962l-2.426,0.909l0.899,6.406
	c0.067,1.316,0.755,1.818,2.062,1.509L484.473,91c1.218-0.109,1.848-0.639,1.891-1.591c-0.019-0.123-0.012-0.282,0.021-0.476
	c-0.034-0.247-0.025-0.816,0.024-1.708c0.553,0.175,1.102,0.318,1.646,0.431c0.113,0.805,0.086,1.661-0.079,2.567
	c-0.04,1.393-0.983,2.188-2.835,2.387l-5.094,0.716c-1.949,0.336-3.033-0.489-3.254-2.478l-0.926-6.592l-1.17,0.449l-0.435-1.833
	l1.342-0.473l-0.378-2.692l1.728-0.243l0.326,2.321l2.426-0.909l-0.535-3.806l1.727-0.243l0.483,3.435l4.272-1.547
	c0.27,1.919,0.48,3.846,0.637,5.78c0.234,1.671-0.306,2.632-1.621,2.879c-0.509,0.135-1.053,0.243-1.627,0.323
	c-0.093-0.238-0.198-0.571-0.316-0.997c-0.158-0.292-0.251-0.533-0.276-0.718c0.519-0.073,0.95-0.133,1.296-0.182
	c0.689-0.097,0.982-0.517,0.879-1.26c-0.06-1.253-0.157-2.375-0.297-3.366l-2.686,0.945l1.031,7.334L480.943,89.697z
	 M481.14,123.013l-1.931-13.74l2.331-0.327l1.931,13.74L481.14,123.013z M488.921,77.497l-0.64-4.549l8.634-1.213
	c-0.401-0.763-0.798-1.497-1.189-2.2l2.279-0.699c0.083,0.178,0.256,0.564,0.515,1.158c0.325,0.65,0.567,1.12,0.729,1.413
	l7.855-1.104l0.641,4.549l-1.986,0.279l-0.365-2.6l-14.851,2.087l0.365,2.599L488.921,77.497z M489.395,84.625l-0.273-1.95
	l19.771-2.779l0.273,1.95l-6.562,0.922l0.562,3.992c0.032,1.07,0.615,1.459,1.75,1.174l1.555-0.218
	c1.109-0.03,1.634-0.481,1.569-1.357c0.068-0.767,0.07-1.586,0.007-2.462c0.791,0.206,1.46,0.363,2.004,0.476
	c0.031,1.069,0.016,1.986-0.054,2.753c-0.089,1.463-0.999,2.285-2.734,2.467l-2.85,0.4c-1.957,0.275-3.037-0.52-3.24-2.384
	l-0.64-4.549l-3.453,0.485c0.786,3.93-1.113,6.909-5.699,8.943c-0.376-0.579-0.869-1.172-1.481-1.78
	c4.119-1.588,5.821-3.879,5.108-6.872L489.395,84.625z M491.307,79.434l-0.262-1.857l14.765-2.075l0.262,1.856L491.307,79.434z
	 M499.632,113.025c-2.95,0.731-4.864,1.315-5.741,1.753l-0.878-1.865c0.483-0.319,0.829-0.779,1.039-1.376
	c0.552-1.086,1.139-2.337,1.763-3.75c-1.151,0.162-2.207,0.374-3.168,0.634l-0.767-1.691c0.048-0.069,0.097-0.14,0.146-0.21
	c0.293-0.42,0.475-0.792,0.547-1.118c0.703-1.676,1.43-4.019,2.182-7.028l2.077,0.371c-0.081,0.265-0.201,0.66-0.361,1.187
	c-1.016,2.793-1.808,4.893-2.372,6.298c0.287-0.041,0.714-0.132,1.281-0.275c0.52-0.073,0.92-0.129,1.209-0.17
	c0.33-0.993,0.645-1.889,0.942-2.689l1.856,0.686c-1.162,3.003-2.381,5.826-3.651,8.466l3.794-1.196
	c0.018,0.125,0.005,0.253-0.034,0.384C499.534,112.125,499.579,112.654,499.632,113.025L499.632,113.025z M500.53,117.538
	c-2.146,0.617-4.305,1.33-6.479,2.141l-0.62-1.901c0.848-0.245,2.227-0.659,4.141-1.245c1.238-0.363,2.167-0.651,2.784-0.865
	C500.35,116.049,500.408,116.672,500.53,117.538L500.53,117.538z M501.832,119.911l-2.857-20.332l12.089-1.699l2.856,20.332
	l-1.898,0.267l-0.248-1.764l-8.289,1.165l0.248,1.764L501.832,119.911z M501.148,101.262l0.912,6.499l3.194-0.449l-0.913-6.499
	L501.148,101.262z M502.322,109.618l0.913,6.499l3.193-0.449l-0.913-6.499L502.322,109.618z M509.438,100.098l-3.281,0.461
	l0.914,6.499l3.279-0.461L509.438,100.098z M507.33,108.914l0.913,6.499l3.281-0.461l-0.914-6.499L507.33,108.914z M510.404,71.262
	l-0.223-1.579l5.354-0.752c-0.208-0.223-0.515-0.527-0.921-0.912c-0.474-0.438-0.81-0.739-1.007-0.9l1.993-0.848
	c0.813,0.77,1.563,1.517,2.251,2.239l-0.331,0.142l3.972-0.558l1.547-2.773l2.138,0.173c-0.099,0.141-0.265,0.416-0.5,0.828
	c-0.315,0.676-0.572,1.154-0.767,1.433l5.438-0.765l0.224,1.579l-8.636,1.213l0.224,1.578l7.598-1.068l0.209,1.485l-7.599,1.068
	l0.209,1.485l9.151-1.286l0.223,1.578l-4.835,0.68l1.903,0.395l-1.119,2.051l4.661-0.655l0.209,1.485L511.05,81.49l-0.209-1.485
	l4.662-0.655c-0.142-0.169-0.349-0.392-0.622-0.67c-0.54-0.492-0.907-0.819-1.105-0.981l1.463-0.868l-4.49,0.631l-0.222-1.578
	l9.065-1.274l-0.209-1.485l-7.599,1.068l-0.208-1.486l7.598-1.067l-0.222-1.579L510.404,71.262z M514.43,89.251l-0.887-6.313
	l16.059-2.257l0.888,6.313l-1.985,0.279l-0.144-1.021l-12.088,1.699l0.144,1.021L514.43,89.251z M520.104,100.78
	c-0.659,4.069-1.531,8.105-2.611,12.106c-0.751-0.335-1.49-0.579-2.216-0.729c1.085-3.561,1.943-7.468,2.579-11.723L520.104,100.78
	L520.104,100.78z M515.583,76.782c0.264,0.216,0.666,0.569,1.205,1.061c0.548,0.555,0.926,0.944,1.133,1.167l2.245-0.315
	l-0.354-2.507L515.583,76.782z M515.737,84.145l0.312,2.228l12.088-1.699l-0.312-2.229L515.737,84.145z M524.766,116.409
	c-0.682,0.158-1.742,0.339-3.182,0.542c-0.093-0.24-0.207-0.633-0.342-1.182c-0.187-0.48-0.324-0.839-0.416-1.078
	c0.633-0.089,1.523-0.215,2.677-0.376c1.341-0.063,1.867-0.704,1.578-1.926l-2.466-17.546l2.158-0.304l2.558,18.196
	C527.75,114.884,526.895,116.109,524.766,116.409L524.766,116.409z M524.655,78.063c0.6-1.157,1.03-2.069,1.288-2.737l-4.146,0.582
	l0.354,2.507L524.655,78.063z M534.115,110.266c-2.071-3.875-4.062-7.381-5.969-10.521l1.895-0.929
	c2.434,3.951,4.468,7.357,6.104,10.219L534.115,110.266z M535.898,96.663l-0.273-1.949l7.08-0.995l0.273,1.95l-2.505,0.352
	l0.744,5.292l2.417-0.34l0.274,1.95l-2.418,0.34l0.86,6.127l2.438-0.816c0.104,0.743,0.2,1.424,0.287,2.042
	c-0.336,0.111-0.784,0.269-1.342,0.473c-2.425,0.719-4.271,1.357-5.542,1.915l-0.547-2.006c0.838-0.307,1.762-0.626,2.771-0.958
	l-0.913-6.499l-2.418,0.34l-0.273-1.95l2.417-0.34l-0.742-5.292L535.898,96.663z M539.754,81.522
	c0.305,2.166-0.218,3.88-1.565,5.143l-0.896-0.726c0.923-0.951,1.3-2.234,1.132-3.852l-1.468,0.207l-0.431-3.063l2.85-0.4
	C539.445,79.327,539.571,80.223,539.754,81.522L539.754,81.522z M543.876,95.163l-0.287-2.042l11.829-1.663l0.287,2.042
	l-4.922,0.692c-0.171,1.287-0.525,2.946-1.062,4.977l1.209-0.17l1.957,13.926l-1.984,0.279l-1.696-12.069
	c-0.821,2.515-2.045,5.084-3.671,7.711c-0.434-0.57-0.978-1.094-1.629-1.57c2.475-3.692,4.046-7.953,4.719-12.781L543.876,95.163z
	 M556.634,107.003c-1.422-1.756-3.182-3.844-5.282-6.264l1.312-1.32c1.519,1.618,3.324,3.604,5.416,5.96L556.634,107.003z
	 M554.342,64.992l-0.301-2.135l19.857-2.791l0.301,2.135l-7.685,1.08c-0.646,1.669-1.362,3.254-2.149,4.752l1.468-0.207
	l1.957,13.926l-2.244,0.315l-1.813-12.904c-1.707,2.891-4.008,5.739-6.898,8.543c-0.067-0.053-0.171-0.166-0.312-0.335
	c-0.631-0.731-1.08-1.205-1.344-1.421c4.373-3.959,7.289-8.061,8.747-12.306L554.342,64.992z M557.956,94.513l-0.287-2.042
	l5.526-0.776l-0.379-2.692l2.071-0.292l0.378,2.692l5.439-0.765l-0.378-2.692l2.072-0.292l0.378,2.692l5.525-0.776l0.286,2.042
	l-5.524,0.776l0.312,2.228l-2.072,0.292l-0.312-2.229l-5.439,0.765l0.313,2.228l-2.072,0.292l-0.313-2.229L557.956,94.513z
	 M574.396,106.876c-0.452,0.127-1.541,0.312-3.269,0.554c-0.162-0.735-0.385-1.492-0.671-2.272c0.173-0.024,0.518-0.073,1.036-0.146
	c0.812-0.051,1.451-0.109,1.912-0.174c1.801-0.126,2.552-1.052,2.251-2.778c-0.095-1.501-0.224-2.84-0.39-4.016l-8.114,1.141
	l1.631,11.604l-2.158,0.303l-1.632-11.604l-5.181,0.728l-0.286-2.042l17.698-2.487c0.293,2.926,0.479,5.078,0.556,6.454
	C578.19,105.05,577.062,106.629,574.396,106.876L574.396,106.876z M574.713,74.626c-3.103-2.026-5.638-3.563-7.604-4.612
	l1.158-1.772c0.57,0.299,1.432,0.778,2.579,1.437c2.355,1.311,4.074,2.268,5.158,2.873L574.713,74.626z M579.576,79.808
	l-2.922-20.795l18.39-2.584l2.453,17.453c0.41,2.087-0.42,3.278-2.492,3.569c-0.913,0.19-2.002,0.376-3.268,0.554
	c-0.087-0.619-0.331-1.311-0.731-2.074c1.036-0.146,2.014-0.283,2.937-0.413c1.281-0.055,1.788-0.63,1.518-1.729l-2.113-15.04
	l-14.333,2.015l2.637,18.753L579.576,79.808z M580.922,64.945l-0.273-1.95l11.741-1.65l0.273,1.95L580.922,64.945z M583.612,74.696
	l-1.058-7.52l9.065-1.274l1.057,7.52L583.612,74.696z M584.716,68.766l0.535,3.807l5.267-0.74l-0.534-3.806L584.716,68.766z
	 M587.965,103.829c0.305,2.166-0.218,3.879-1.565,5.143l-0.895-0.727c0.923-0.951,1.299-2.234,1.131-3.851l-1.468,0.206
	l-0.431-3.063l2.85-0.4C587.656,101.633,587.782,102.529,587.965,103.829L587.965,103.829z"/>
</svg>
