<svg xmlns="http://www.w3.org/2000/svg" width="640" height="620" viewBox="0 0 640 620"><path fill="#121212" stroke="#9ED9FF" stroke-miterlimit="10" d="M-.001 50l347.776-50.006 9.605 68.327-357.381 49.679z"/><path fill="#0B76BC" d="M39.2 66.458c-1.995-2.875-4.315-5.902-6.962-9.081l4.961-3.853c2.729 2.904 5.214 5.776 7.447 8.618l-5.446 4.316zm4.884 26.926c-1.869 2.364-3.431 4.753-4.679 7.166l-3.633-7.576 3.926-4.693-1.658-11.798-4.317.607-.979-6.963 10.792-1.517 2.555 18.181c2.388 3.085 5.743 4.321 10.061 3.714 6.373-.763 14.228-1.867 23.563-3.312l-1.054 6.854c-2.878.405-6.727.878-11.539 1.425-5.278.742-9.183 1.223-11.719 1.45-4.936.56-8.707-.62-11.319-3.538zm2.444-20.462l-.87-6.189 29.859-4.197.87 6.189-14.21 1.997c-1.993 4.095-3.563 7.274-4.713 9.538l9.479-1.727c-1.058-1.429-2.175-2.85-3.351-4.263l4.836-3.441c1.451 1.639 3.503 4.044 6.151 7.222 1.626 2.009 2.882 3.54 3.765 4.599l-5.267 4.29-2.054-2.867c-3.58.635-8.291 1.495-14.128 2.577-2.261.45-4.083.968-5.468 1.557l-3.361-5.642c1.313-1.103 2.468-2.449 3.468-4.038 1.064-1.99 2.092-4.239 3.087-6.745l-8.093 1.14zm.707-11.933l-.87-6.189 25.002-3.514.87 6.189-25.002 3.514zm36.98 7.825l-.87-6.189 20.865-2.933.87 6.189-8.454 1.188c-.835 5.378-1.829 10.054-2.981 14.028 1.318-.185 3.639-.641 6.96-1.373-.386-.997-1.073-2.414-2.064-4.247-.873-1.849-1.55-3.2-2.037-4.053l4.972-2.474c.834 1.593 2.408 4.528 4.723 8.803.816 1.463 1.398 2.565 1.748 3.305 1.706-3.525 1.788-10.77.248-21.73l-3.597.506-.897-6.383 3.777-.531-1.071-8.92 6.116-.859.625 4.448c.151 1.951.3 3.443.445 4.474l10.972-1.542c.326 2.321.745 5.748 1.261 10.276 1.202 9.431 1.979 15.831 2.331 19.198.478 4.272-1.125 6.796-4.804 7.579l-2.878.404c-1.781.38-3.031.623-3.75.725-.668-2.144-1.397-4.275-2.183-6.399l4.677-.657c1.678-.236 2.441-1.329 2.29-3.28-.631-6.223-1.47-13.073-2.521-20.552l-4.677.657.027.193c1.058 8.4 1.329 14.673.811 18.82-.399 4.133-1.908 8.617-4.529 13.457-.26-.096-.585-.248-.981-.454-2.119-1.151-3.951-2.009-5.499-2.58.185-.42.531-.996 1.042-1.725.526-.601.881-1.11 1.069-1.531-1.762.513-4.306 1.132-7.626 1.861-2.04.287-3.529.561-4.469.825-1.763.51-3.389 1.133-4.874 1.869l-3.154-5.474c.423-.454.998-1.585 1.724-3.398 1.146-4.895 1.853-9.003 2.119-12.329l-5.756.808zm.446-12.488l-.897-6.382 17.268-2.427.897 6.383-17.268 2.426zm81.747 17.104c-1.191 3.718-4.894 7.394-11.106 11.028-1.563-2.412-2.923-4.258-4.081-5.541l-6.835.96.462 3.288-5.576.784-5.573-39.649 13.67-1.921 1.142 8.124c3.226-4.004 5.354-8.444 6.382-13.323l6.557-.33c-.438 1.245-.762 2.409-.977 3.49l10.972-1.542.707 5.029-2.585 5.097 5.576-.784 1.958 13.926 1.979-.278.815 5.802-9.893 1.391c1.856 2.765 5.641 4.468 11.357 5.11-.372.841-.842 2.288-1.408 4.34-.233.951-.443 1.64-.628 2.06-6.186-1.369-10.491-3.722-12.915-7.061zm-26.263-23.725l3.398 24.177 2.878-.404-3.398-24.177-2.878.404zm12.229 21.752l-.815-5.802 1.979-.278-1.468-10.444-3.449-3.657 3.805 27.078c5.418-2.339 8.578-5.083 9.481-8.236l-9.533 1.339zm12.845-26.064l-7.015.986c-.188.421-.525 1.06-1.015 1.917-.574 1.135-1.067 1.993-1.473 2.574l7.195-1.011 2.308-4.466zm-7.275 10.883l1.169 8.317 3.238-.455-.381-2.708c-.099-1.564-.218-2.86-.364-3.894l-.245-1.741-3.417.481zm12.411-1.744l-3.417.48.245 1.741c.326 2.321.573 4.524.744 6.602l3.598-.506-1.17-8.317zm37.381-3.671l-2.691-19.148 19.606-2.755 2.691 19.148-6.295.884.462 3.288 6.835-.96.707 5.029-6.835.96.408 2.901 6.116-.859.68 4.835-6.116.859.435 3.095 7.915-1.112.707 5.029-22.304 3.135-.707-5.029 8.994-1.264-.435-3.094-6.655.935-.489-3.481-.889 1.506c-.728-.816-1.625-1.547-2.691-2.186l1.957 13.926-4.856.683-.354-2.514-9.533 1.34.354 2.514-4.677.657-4.812-34.234 4.137-.582-.652-4.642-5.216.733-.734-5.222 20.686-2.907.734 5.222-4.497.632.652 4.642 3.958-.556 2.5 17.794c1.095-2.65 1.673-5.493 1.736-8.528l4.938-.102-.268 2.01 2.878-.404-.462-3.288-7.918 1.11zm-17.784-1.248l1.277 9.09c.992-2.506 1.165-5.619.521-9.343l-1.798.253zm11.236 9.466c-2.159.303-3.428-.899-3.809-3.606l-.952-6.77-1.619.228c.771 4.625.563 8.796-.626 12.514-.692-.559-1.363-.992-2.016-1.294l.408 2.901 9.533-1.34-.38-2.708-.539.075zm-7.907 9.001l.462 3.288 9.533-1.34-.462-3.288-9.533 1.34zm.141-29.014l.652 4.642 1.619-.228-.652-4.642-1.619.228zm7.682 8.98l-1.798.253.707 5.028c.061 1.308.623 1.82 1.684 1.539l.36-.05-.953-6.77zm10.099-11.675l.326 2.321 8.813-1.239-.326-2.321-8.813 1.239zm1.12 22.327c-.084.277-.201.752-.35 1.43-.251.824-.479 1.383-.682 1.673l5.936-.834-.408-2.901-4.496.632zm-.223-15.945l.326 2.321 8.814-1.239-.327-2.321-8.813 1.239zm30.525-5.478c-2.642-2.257-5.374-4.305-8.201-6.145l3.637-5.442c.946.656 2.301 1.584 4.06 2.782 2.016 1.294 3.498 2.27 4.446 2.925l-3.942 5.88zm.66 12.53c-2.209-1.792-4.951-3.905-8.228-6.338l3.844-5.274c.532.319 1.274.807 2.223 1.462 2.845 1.967 4.879 3.392 6.103 4.271l-3.942 5.879zm3.377 21.418l-6.594-1.243c1.001-5.925 1.693-11.875 2.078-17.846 2.025.504 4.233.983 6.622 1.436l-2.106 17.653zm11.76-40.31c-3.322.731-6.722 1.339-10.198 1.828-.036-.257-.144-.572-.316-.942-.163-1.16-.578-2.81-1.246-4.953 10.515-1.74 19.746-3.497 27.69-5.272l1.382 5.92c-1.2.169-2.98.551-5.342 1.146-2.382.467-4.163.85-5.342 1.145l.734 5.222 12.411-1.745.87 6.189-12.411 1.744.734 5.222 10.433-1.466 2.99 21.275-6.655.936-.354-2.515-14.21 1.997.38 2.708-6.655.936-3.017-21.469 10.433-1.466-.734-5.222-12.051 1.694-.87-6.189 12.052-1.694-.708-5.029zm-.624 22.966l1.006 7.156 14.21-1.997-1.006-7.156-14.21 1.997zm49.363-21.527c1.921 13.669-2.124 24.493-12.128 32.473l-5.699-5.313c8.71-6.747 12.254-15.461 10.632-26.148l-12.591 1.77-1.006-7.156 13.131-1.845-.918-9.141 7.375-1.036.738 9.166 19.786-2.781c1.078 11.159 1.91 20.114 2.492 26.868.73 6.076-1.9 9.537-7.896 10.38-2.742.515-6.15 1.062-10.225 1.634-.686-2.271-1.511-4.651-2.472-7.147 1.817-.123 4.822-.48 9.021-1.071 3.154-.178 4.518-2.212 4.095-6.098-.123-2.612-.561-7.022-1.309-13.228-.081-1.434-.164-2.473-.255-3.12l-12.771 1.793z"/></svg>