<?xml version="1.0" encoding="utf-8"?>
<!-- Generator: Adobe Illustrator 16.0.0, SVG Export Plug-In . SVG Version: 6.00 Build 0)  -->
<!DOCTYPE svg PUBLIC "-//W3C//DTD SVG 1.1//EN" "http://www.w3.org/Graphics/SVG/1.1/DTD/svg11.dtd">
<svg version="1.1" id="图层_1" xmlns="http://www.w3.org/2000/svg" xmlns:xlink="http://www.w3.org/1999/xlink" x="0px" y="0px"
	 width="640px" height="620px" viewBox="0 0 640 620" enable-background="new 0 0 640 620" xml:space="preserve">
<polygon fill="#121212" stroke="#9ED9FF" stroke-miterlimit="10" points="-0.001,50 347.775,-0.006 357.38,68.321 -0.001,118 "/>
<path fill="#0B76BC" d="M39.2,66.458c-1.995-2.875-4.315-5.902-6.962-9.081l4.961-3.853c2.729,2.904,5.214,5.776,7.447,8.618
	L39.2,66.458z M44.084,93.384c-1.869,2.364-3.431,4.753-4.679,7.166l-3.633-7.576l3.926-4.693L38.04,76.483l-4.317,0.607
	l-0.979-6.963l10.792-1.517l2.555,18.181c2.388,3.085,5.743,4.321,10.061,3.714c6.373-0.763,14.228-1.867,23.563-3.312l-1.054,6.854
	c-2.878,0.405-6.727,0.878-11.539,1.425c-5.278,0.742-9.183,1.223-11.719,1.45C50.467,97.482,46.696,96.302,44.084,93.384
	L44.084,93.384z M46.528,72.922l-0.87-6.189l29.859-4.197l0.87,6.189l-14.21,1.997c-1.993,4.095-3.563,7.274-4.713,9.538
	l9.479-1.727c-1.058-1.429-2.175-2.85-3.351-4.263l4.836-3.441c1.451,1.639,3.503,4.044,6.151,7.222
	c1.626,2.009,2.882,3.54,3.765,4.599l-5.267,4.29l-2.054-2.867c-3.58,0.635-8.291,1.495-14.128,2.577
	c-2.261,0.45-4.083,0.968-5.468,1.557l-3.361-5.642c1.313-1.103,2.468-2.449,3.468-4.038c1.064-1.99,2.092-4.239,3.087-6.745
	L46.528,72.922z M47.235,60.989l-0.87-6.189l25.002-3.514l0.87,6.189L47.235,60.989z M84.215,68.814l-0.87-6.189l20.865-2.933
	l0.87,6.189l-8.454,1.188c-0.835,5.378-1.829,10.054-2.981,14.028c1.318-0.185,3.639-0.641,6.96-1.373
	c-0.386-0.997-1.073-2.414-2.064-4.247c-0.873-1.849-1.55-3.2-2.037-4.053l4.972-2.474c0.834,1.593,2.408,4.528,4.723,8.803
	c0.816,1.463,1.398,2.565,1.748,3.305c1.706-3.525,1.788-10.77,0.248-21.73l-3.597,0.506l-0.897-6.383l3.777-0.531L106.407,44
	l6.116-0.859c0.127,0.904,0.335,2.387,0.625,4.448c0.151,1.951,0.3,3.443,0.445,4.474l10.972-1.542
	c0.326,2.321,0.745,5.748,1.261,10.276c1.202,9.431,1.979,15.831,2.331,19.198c0.478,4.272-1.125,6.796-4.804,7.579
	c-0.481,0.067-1.439,0.202-2.878,0.404c-1.781,0.38-3.031,0.623-3.75,0.725c-0.668-2.144-1.397-4.275-2.183-6.399
	c1.439-0.202,2.996-0.421,4.677-0.657c1.678-0.236,2.441-1.329,2.29-3.28c-0.631-6.223-1.47-13.073-2.521-20.552l-4.677,0.657
	l0.027,0.193c1.058,8.4,1.329,14.673,0.811,18.82c-0.399,4.133-1.908,8.617-4.529,13.457c-0.26-0.096-0.585-0.248-0.981-0.454
	c-2.119-1.151-3.951-2.009-5.499-2.58c0.185-0.42,0.531-0.996,1.042-1.725c0.526-0.601,0.881-1.11,1.069-1.531
	c-1.762,0.513-4.306,1.132-7.626,1.861c-2.04,0.287-3.529,0.561-4.469,0.825c-1.763,0.51-3.389,1.133-4.874,1.869l-3.154-5.474
	c0.423-0.454,0.998-1.585,1.724-3.398c1.146-4.895,1.853-9.003,2.119-12.329L84.215,68.814z M84.661,56.326l-0.897-6.382
	l17.268-2.427l0.897,6.383L84.661,56.326z M166.408,73.43c-1.191,3.718-4.894,7.394-11.106,11.028
	c-1.563-2.412-2.923-4.258-4.081-5.541l-6.835,0.96l0.462,3.288l-5.576,0.784L133.699,44.3l13.67-1.921l1.142,8.124
	c3.226-4.004,5.354-8.444,6.382-13.323l6.557-0.33c-0.438,1.245-0.762,2.409-0.977,3.49l10.972-1.542l0.707,5.029l-2.585,5.097
	l5.576-0.784l1.958,13.926l1.979-0.278l0.815,5.802l-9.893,1.391c1.856,2.765,5.641,4.468,11.357,5.11
	c-0.372,0.841-0.842,2.288-1.408,4.34c-0.233,0.951-0.443,1.64-0.628,2.06C173.137,79.122,168.832,76.769,166.408,73.43
	L166.408,73.43z M140.145,49.705l3.398,24.177l2.878-0.404l-3.398-24.177L140.145,49.705z M152.374,71.457l-0.815-5.802l1.979-0.278
	l-1.468-10.444l-3.449-3.657l3.805,27.078c5.418-2.339,8.578-5.083,9.481-8.236L152.374,71.457z M165.219,45.393l-7.015,0.986
	c-0.188,0.421-0.525,1.06-1.015,1.917c-0.574,1.135-1.067,1.993-1.473,2.574l7.195-1.011L165.219,45.393z M157.944,56.276
	l1.169,8.317l3.238-0.455c-0.091-0.644-0.218-1.547-0.381-2.708c-0.099-1.564-0.218-2.86-0.364-3.894l-0.245-1.741L157.944,56.276z
	 M170.355,54.532l-3.417,0.48l0.245,1.741c0.326,2.321,0.573,4.524,0.744,6.602l3.598-0.506L170.355,54.532z M207.736,50.861
	l-2.691-19.148l19.606-2.755l2.691,19.148l-6.295,0.884l0.462,3.288l6.835-0.96l0.707,5.029l-6.835,0.96l0.408,2.901l6.116-0.859
	l0.68,4.835l-6.116,0.859l0.435,3.095l7.915-1.112l0.707,5.029l-22.304,3.135l-0.707-5.029l8.994-1.264l-0.435-3.094l-6.655,0.935
	l-0.489-3.481l-0.889,1.506c-0.728-0.816-1.625-1.547-2.691-2.186l1.957,13.926l-4.856,0.683l-0.354-2.514l-9.533,1.34l0.354,2.514
	l-4.677,0.657l-4.812-34.234l4.137-0.582l-0.652-4.642l-5.216,0.733l-0.734-5.222l20.686-2.907l0.734,5.222l-4.497,0.632
	l0.652,4.642l3.958-0.556l2.5,17.794c1.095-2.65,1.673-5.493,1.736-8.528l4.938-0.102l-0.268,2.01l2.878-0.404l-0.462-3.288
	L207.736,50.861z M189.952,49.613l1.277,9.09c0.992-2.506,1.165-5.619,0.521-9.343L189.952,49.613z M201.188,59.079
	c-2.159,0.303-3.428-0.899-3.809-3.606l-0.952-6.77l-1.619,0.228c0.771,4.625,0.563,8.796-0.626,12.514
	c-0.692-0.559-1.363-0.992-2.016-1.294l0.408,2.901l9.533-1.34l-0.38-2.708L201.188,59.079z M193.281,68.08l0.462,3.288l9.533-1.34
	l-0.462-3.288L193.281,68.08z M193.422,39.066l0.652,4.642l1.619-0.228l-0.652-4.642L193.422,39.066z M201.104,48.046l-1.798,0.253
	l0.707,5.028c0.061,1.308,0.623,1.82,1.684,1.539l0.36-0.05L201.104,48.046z M211.203,36.371l0.326,2.321l8.813-1.239l-0.326-2.321
	L211.203,36.371z M212.323,58.698c-0.084,0.277-0.201,0.752-0.35,1.43c-0.251,0.824-0.479,1.383-0.682,1.673l5.936-0.834
	l-0.408-2.901L212.323,58.698z M212.1,42.753l0.326,2.321l8.814-1.239l-0.327-2.321L212.1,42.753z M242.625,37.275
	c-2.642-2.257-5.374-4.305-8.201-6.145l3.637-5.442c0.946,0.656,2.301,1.584,4.06,2.782c2.016,1.294,3.498,2.27,4.446,2.925
	L242.625,37.275z M243.285,49.805c-2.209-1.792-4.951-3.905-8.228-6.338l3.844-5.274c0.532,0.319,1.274,0.807,2.223,1.462
	c2.845,1.967,4.879,3.392,6.103,4.271L243.285,49.805z M246.662,71.223l-6.594-1.243c1.001-5.925,1.693-11.875,2.078-17.846
	c2.025,0.504,4.233,0.983,6.622,1.436L246.662,71.223z M258.422,30.913c-3.322,0.731-6.722,1.339-10.198,1.828
	c-0.036-0.257-0.144-0.572-0.316-0.942c-0.163-1.16-0.578-2.81-1.246-4.953c10.515-1.74,19.746-3.497,27.69-5.272l1.382,5.92
	c-1.2,0.169-2.98,0.551-5.342,1.146c-2.382,0.467-4.163,0.85-5.342,1.145l0.734,5.222l12.411-1.745l0.87,6.189l-12.411,1.744
	l0.734,5.222l10.433-1.466l2.99,21.275l-6.655,0.936l-0.354-2.515l-14.21,1.997l0.38,2.708l-6.655,0.936L250.3,48.819l10.433-1.466
	l-0.734-5.222l-12.051,1.694l-0.87-6.189l12.052-1.694L258.422,30.913L258.422,30.913z M257.798,53.879l1.006,7.156l14.21-1.997
	l-1.006-7.156L257.798,53.879z M307.161,32.352c1.921,13.669-2.124,24.493-12.128,32.473l-5.699-5.313
	c8.71-6.747,12.254-15.461,10.632-26.148l-12.591,1.77l-1.006-7.156l13.131-1.845l-0.918-9.141l7.375-1.036l0.738,9.166
	l19.786-2.781c1.078,11.159,1.91,20.114,2.492,26.868c0.73,6.076-1.9,9.537-7.896,10.38c-2.742,0.515-6.15,1.062-10.225,1.634
	c-0.686-2.271-1.511-4.651-2.472-7.147c1.817-0.123,4.822-0.48,9.021-1.071c3.154-0.178,4.518-2.212,4.095-6.098
	c-0.123-2.612-0.561-7.022-1.309-13.228c-0.081-1.434-0.164-2.473-0.255-3.12L307.161,32.352L307.161,32.352z"/>
</svg>
