<svg xmlns="http://www.w3.org/2000/svg" width="640" height="644" viewBox="0 0 640 644"><path fill="#333261" stroke="#B2BDF9" stroke-miterlimit="10" d="M-2.775 136l644-93v149l-644 91z"/><path fill="#2A2A59" d="M118.442 265.192l-121.217 17.391v-146.083l265.834-38.333z"/><path fill="#2D2C5C" d="M512.319 209.625l88.95-160.313 40.502-5.895 1.003 147.915zM-2.775 136.5v146.083l173.214-24.582-118.054-129.418z"/><path fill="#2A2A59" d="M557.225 55.833l84.546-12.416 1.003 114.416"/><path fill="#fff" d="M39.37 165.422l-.274-1.95 5.872-.825c.321-1.054.551-2.127.691-3.221l2.198-.025c-.112.458-.255 1.11-.43 1.954-.112.458-.185.783-.215.977l11.828-1.662.274 1.95-12.691 1.784c-.425 1.574-1.11 3.375-2.059 5.401l1.709 12.162-1.986.279-1.357-9.655c-.636.91-1.349 1.894-2.139 2.951-.384-.64-.8-1.308-1.25-2.001 2.243-2.839 3.854-5.78 4.835-8.821l-5.006.702zm3.647 32.175l-.261-1.857 3.626-.51-.483-3.435-1.468.207c-.682.159-1.225.267-1.627.323-.017-.123-.068-.274-.151-.452l-.455-1.356c.566-.142 1.364-.317 2.391-.525 2.4-.463 4.253-.849 5.56-1.16l.606 1.808c-.509.135-1.191.295-2.046.477-.453.127-.793.206-1.023.238l.509 3.62 3.54-.497.261 1.856-3.54.497.535 3.806 2.936-.413 1.357 9.656-1.813.254-.209-1.485-4.144.583.209 1.485-1.813.256-1.357-9.656 3.022-.424-.535-3.807-3.627.511zm3.213 5.323l.652 4.641 4.144-.583-.652-4.642-4.144.584zm.539-30.586l-.274-1.95 5.267-.74-.613-4.363 1.986-.279.613 4.363 5.267-.74.274 1.95-5.267.74.861 6.127 6.389-.898.261 1.857-14.678 2.063-.261-1.856 6.302-.886-.861-6.127-5.266.739zm9.826 64.267c-.894-.505-1.903-1.215-3.029-2.13-.575 1.344-1.724 2.988-3.445 4.934-.596-.484-1.106-.98-1.53-1.489 1.503-1.409 2.607-2.954 3.311-4.631-.853-.637-2.024-1.45-3.513-2.441.223-2.176.365-4.501.429-6.972l-1.899.268-.274-1.95 2.159-.303c.051-.89.032-2.277-.056-4.158.031-.194.039-.352.021-.477l2.098-.105c.003.442-.016 1.139-.058 2.091.032 1.07.026 1.859-.019 2.369l3.799-.533.287 2.042c.229 4.133.021 7.256-.621 9.365 1.232.837 2.433 1.646 3.599 2.429l-1.259 1.691zm-3.991-5.214c.519-2.156.667-4.858.445-8.109l-2.245.315c-.073 2.41-.213 4.543-.421 6.402l2.221 1.392zm-.974-37.652l-.274-1.949 1.64-.23-.535-3.807 1.899-.267.535 3.807 4.835-.68-.535-3.806 1.899-.267.535 3.806 1.554-.218.274 1.95-1.554.218 2.296 16.339-1.899.267-.235-1.67-4.835.679.235 1.67-1.9.268-2.296-16.339-1.639.229zm3.54-.497l.756 5.384 4.835-.68-.756-5.384-4.835.68zm1.179 35.35l-.287-2.042 5.267-.74-.431-3.063 3.104-4.223-8.116 1.14-.287-2.042 10.62-1.493.313 2.228-3.458 4.841.327 2.322 4.749-.668.287 2.042-4.749.667.939 6.684c.335 1.973-.476 3.097-2.432 3.372l-2.763.388c-.009-.063-.056-.182-.139-.359-.229-.789-.431-1.392-.606-1.808.872-.061 1.71-.146 2.517-.259 1.044-.084 1.468-.616 1.272-1.598l-.861-6.127-5.266.738zm-.161-28.109l.796 5.662 4.835-.679-.796-5.664-4.835.681zm7.773-29.141l-.235-1.671 18.909-2.657.235 1.671-8.462 1.189.287 2.042 7.426-1.043.222 1.578-7.425 1.043.274 1.95 9.325-1.311.248 1.764-20.635 2.9-.249-1.764 9.325-1.311-.274-1.95-7.425 1.044-.222-1.579 7.424-1.043-.287-2.042-8.461 1.19zm1.072-3.653l-1.227-8.727 4.749-.667c.121-.396.248-.949.383-1.663.022-.254.03-.414.021-.476l2.271-.13c-.041.133-.072.327-.094.581-.152.59-.292 1.052-.422 1.385l8.979-1.262 1.227 8.727-15.887 2.232zm.994-7.335l.274 1.95 11.915-1.675-.274-1.949-11.915 1.674zm.47 3.342l.287 2.042 11.915-1.675-.287-2.042-11.915 1.675zm2.59 44.155l-1.448-10.304 8.202-1.153 1.449 10.305-1.9.266-.195-1.392-4.403.618.195 1.393-1.9.267zm.272-13.103l-1.161-8.261 14.85-2.087 1.162 8.263-14.851 2.085zm.44 4.388l.757 5.385 4.403-.619-.757-5.384-4.403.618zm22.192 33.82c-.129.333-.21.598-.241.791-3.355-.475-5.981-1.211-7.882-2.205-1.775 1.575-4.118 3.071-7.029 4.49-.151-.231-.484-.722-.999-1.469-.208-.224-.35-.393-.424-.508 2.782-1.085 4.983-2.341 6.602-3.769-1.714-1.336-3.31-3.289-4.786-5.859l.885-.598-.95.133c-.635 4.254-2.063 8.085-4.284 11.489-.142-.169-.363-.486-.662-.948-.3-.463-.521-.778-.662-.948 2.44-3.94 3.806-8.833 4.1-14.682l-5.353.752-.3-2.136 5.698-.801c.034-1.013.028-2.086-.012-3.217l2.172-.21c.072.936.071 1.978-.001 3.124l12.26-1.723.3 2.135-12.605 1.771c-.006.379-.047.922-.124 1.627-.068.767-.135 1.344-.197 1.731l11.224-1.578.274 1.95c-.694 3.001-1.894 5.537-3.598 7.606 1.883.872 4.241 1.361 7.074 1.467-.127.335-.288.862-.48 1.585zm-21.448-44.811l.613 4.363 10.707-1.504-.613-4.363-10.707 1.504zm9.25 18.202l-1.448-10.305 8.203-1.153 1.448 10.304-1.813.255-.196-1.393-4.49.632.196 1.392-1.9.268zm3.697 22.502c1.665-1.938 2.751-4.016 3.262-6.234l-7.684 1.08c1.317 2.277 2.791 3.996 4.422 5.154zm-2.985-31.218l.757 5.385 4.49-.631-.757-5.383-4.49.629zm5.284-36.837l-.6-4.271 9.238-1.298-1.289-2.28 2.192-.687c.45.694.892 1.548 1.328 2.559l-.16.117 8.202-1.153.6 4.271-1.986.279-.352-2.506-15.454 2.172.352 2.507-2.071.29zm3.118.887l-.235-1.671 13.813-1.941.235 1.671-5.525.776c-.155.149-.364.335-.625.562-.515.515-.932.888-1.251 1.123.936.815 1.67 1.659 2.205 2.53 2.105-1.305 4.049-2.714 5.833-4.228l1.271 1.525c-1.122.79-2.269 1.613-3.438 2.472 1.404 2.896 3.546 4.772 6.426 5.629-.334.553-.688 1.169-1.061 1.853-3.096-1.142-5.396-3.313-6.901-6.509-.107.079-.291.23-.552.456-.271.166-.483.321-.639.469.502 1.065.844 2.248 1.027 3.548.448 2.777-.445 4.354-2.681 4.731l-2.849.4-.416-1.078c-.11-.363-.208-.633-.29-.811.345-.049.81-.083 1.394-.102l1.123-.158c1.456-.079 2.033-.979 1.733-2.705-.078-.557-.182-1.078-.308-1.566-2.154 2.638-5.15 4.92-8.986 6.849-.318-.587-.697-1.197-1.138-1.829 3.833-1.547 6.976-3.82 9.431-6.816-.225-.347-.458-.755-.701-1.227-2.139 2.321-4.805 4.242-7.994 5.762-.084-.177-.272-.466-.563-.868-.225-.347-.408-.605-.549-.775 3.159-1.327 5.841-3.124 8.046-5.391-.084-.177-.263-.404-.536-.682l-.298-.242c-1.907 1.468-4.128 2.791-6.662 3.966-.093-.238-.281-.528-.563-.868-.233-.408-.421-.698-.562-.868 3.579-1.26 6.349-2.848 8.311-4.765l-5.525.778zm8.012 38.189c.305 2.165-.218 3.878-1.566 5.143l-.894-.728c.923-.949 1.299-2.234 1.131-3.85l-1.468.206-.431-3.064 2.849-.399.379 2.692zm.603 21.231c.854 5.245.653 9.248-.601 12.013-.19-.1-.484-.311-.881-.633-.447-.254-.765-.43-.955-.528.646-1.668.988-3.2 1.027-4.594.046-1.332-.129-3.421-.529-6.269l-1.135-8.076 8.72-1.226-.753-1.598c-.084-.177-.13-.297-.139-.359l2.292-.606c.277.719.559 1.469.844 2.248l7.771-1.092.261 1.857-16.836 2.366.914 6.497zm.08-2.568l-.248-1.764 3.021-.425-.261-1.857 1.899-.267.261 1.857 5.871-.825-.261-1.857 1.813-.254.261 1.856 3.626-.509.248 1.764-3.626.509.496 3.528-9.583 1.347-.496-3.528-3.021.425zm17.972 10.728c-.103.519-.2.88-.288 1.082-3.303-.104-6.03-.51-8.183-1.216-1.654 1.179-4.123 2.409-7.405 3.691-.375-.579-.783-1.184-1.224-1.816 2.98-.924 5.151-1.765 6.513-2.524-1.587-.849-3.037-1.971-4.347-3.365l-1.381.194-.235-1.671 13.382-1.881.261 1.856c-1.058 1.664-2.293 3.101-3.708 4.309 1.862.306 4.135.397 6.817.272-.024.254-.09.611-.202 1.069zm-13.051-11.419l.274 1.949 5.871-.825-.274-1.949-5.871.825zm4.232 9.44c1.432-1.084 2.588-2.257 3.468-3.517l-7.339 1.031c1.095 1.11 2.386 1.937 3.871 2.486zm9.359-62.987c-1.361 2.842-2.723 5.274-4.081 7.295-.266-.215-.816-.58-1.65-1.093l-.199-.162c1.287-1.695 2.636-3.999 4.047-6.912l1.883.872zm-5.519-1.686l-.313-10.37c4.719-.663 9.946-1.682 15.682-3.056l.892 1.958c-5.745 1.313-10.541 2.271-14.388 2.874l.097 6.329 5.958-.837-.666-4.735 2.159-.303.666 4.735 7.943-1.117.274 1.95-7.944 1.116.939 6.685c.41 2.087-.392 3.274-2.406 3.557-.567.142-1.541.312-2.922.505l-.758-2.26c.756-.044 1.653-.138 2.689-.283.987-.077 1.377-.634 1.173-1.68l-.875-6.22-8.2 1.152zm6.214 36.735l-.366.525-1.716-1.558c.546-.707.72-1.552.524-2.535l-2.205-15.689 2.158-.303 2.231 15.875c1.609-1.488 3.231-3.105 4.865-4.849.018.125.072.306.165.544.312.967.55 1.627.719 1.982-1.66 1.559-3.479 3.233-5.457 5.026l-.918.982zm4.902 26.688c-.791 1.058-1.552 2.332-2.28 3.823l-1.349-2.082c.839-1.127 1.649-2.251 2.432-3.372l-.979-6.963-2.59.364-.3-2.135 4.576-.644 1.252 8.913c1.412 1.695 3.297 2.377 5.658 2.045l10.879-1.529c-.167.907-.277 1.585-.331 2.034-5.007.704-8.582 1.174-10.719 1.412-2.533.357-4.616-.266-6.249-1.866zm-1.495-13.139c-.367-.516-1.11-1.42-2.23-2.716-.557-.615-.942-1.066-1.159-1.352l1.596-1.171c.679.662 1.717 1.779 3.112 3.35-.133-.107-.025.036.324.427l-1.643 1.462zm1.967-27.936c-1.267-1.905-2.547-3.713-3.844-5.424l1.583-1.264c1.479 1.749 2.841 3.515 4.09 5.294l-1.829 1.394zm11.559 13.332c-.972-1.062-2.34-2.446-4.106-4.155-.257-.153-.423-.287-.497-.403-.824 2.073-2.828 4.31-6.012 6.714-.199-.162-.51-.496-.934-1.006-.292-.4-.536-.682-.735-.842 5.465-3.292 7.66-8.145 6.583-14.558-.216-2.368-.454-4.48-.715-6.337l2.073-.291c.374 2.662.612 4.774.714 6.337.28 3.243.2 5.811-.238 7.702.737.654 1.82 1.67 3.246 3.046 1.003.87 1.703 1.465 2.1 1.788l-1.479 2.005zm-10.698 14.68l-.274-1.95 8.548-1.201-.574-4.085 2.072-.292.574 4.085 3.281-.461.274 1.95-3.281.461 1.188 8.448c.437 2.274-.438 3.564-2.625 3.872-.798.176-1.83.352-3.095.529-.093-.238-.198-.571-.316-.997-.186-.478-.329-.868-.429-1.17.814-.051 1.768-.154 2.862-.308 1.226-.045 1.718-.715 1.479-2.007l-1.135-8.076-8.549 1.202zm6.417-43.923c-2.248-2.208-4.218-4.108-5.908-5.702l1.471-1.438c.472.439 1.152 1.101 2.04 1.985 1.881 1.693 3.225 2.893 4.028 3.6l-1.631 1.555zm-1.268 50.489c-.623-.669-1.581-1.638-2.874-2.909l-1.232-1.247 1.397-1.333c1.608 1.416 3.025 2.731 4.253 3.946l-1.544 1.543zm6.695-49.918l-2.975-21.167 18.648-2.621 2.975 21.167-2.072.291-.156-1.114-14.591 2.051.157 1.114-1.986.279zm-.715-19.496l2.31 16.432 14.59-2.051-2.31-16.432-14.59 2.051zm1.979 5.307l-.261-1.857 7.684-1.08-.378-2.692 1.899-.267.378 2.692 2.936-.413.261 1.857-2.936.412.939 6.685c.394 1.965-.359 3.08-2.259 3.347l-1.209.17c-.567.144-.995.235-1.282.275-.035-.247-.141-.579-.316-.997-.119-.424-.22-.727-.303-.904l2.159-.303c1.045-.083 1.468-.616 1.272-1.599l-.783-5.57c-1.048 2.988-3.06 5.795-6.035 8.422-.274-.277-.722-.751-1.344-1.42l-.199-.162c2.757-2.092 4.783-4.585 6.079-7.481l-6.302.885zm13.711 37.378c-1.652 1.62-3.775 3.212-6.372 4.776-.433-.57-.932-1.194-1.496-1.871 2.469-1.23 4.475-2.617 6.019-4.16-2.187-1.775-4.054-4.195-5.599-7.26.416 5.054-.677 9.595-3.28 13.621l-.895-.728c-.406-.384-.708-.657-.907-.819 2.606-3.584 3.554-8.323 2.843-14.22l-.297-3.367-3.626.51-.274-1.95 15.713-2.208.3 2.135-1.744 4.505 4.317-.606.287 2.042c-.89 3.282-2.075 5.91-3.558 7.884 1.966 1.049 4.285 1.67 6.953 1.863-.09.202-.215.566-.375 1.094-.21.598-.383 1.03-.521 1.304-2.836-.549-5.332-1.397-7.488-2.545zm-.589 17.138c-1.914-1.498-3.486-2.665-4.718-3.502-.642 1.29-1.405 2.533-2.293 3.73l5.785-.813.234 1.671-2.331.327.339 2.414 3.799-.533.235 1.671-3.799.534.339 2.414 3.108-.437 1.096 7.798-1.727.243-.157-1.114-4.749.667.156 1.114-1.727.242-1.096-7.798 3.281-.461-.339-2.414-4.058.57-.235-1.671 4.058-.57-.339-2.414-2.331.327-.144-1.021c-.146.21-.4.499-.759.864-.31.297-.515.515-.612.654-.326-.648-.672-1.231-1.038-1.748 2.019-1.924 3.486-4.213 4.405-6.867l1.938.011c-.121.396-.25.73-.388 1.001.834.514 1.936 1.243 3.301 2.187.711.468 1.261.833 1.65 1.094l-.884 1.83zm-7.323-31.458c.087.619.155 1.525.206 2.716.002-.819.015-.727.04.279l.439-.63c2.123 4.246 4.396 7.272 6.822 9.076 1.394-1.772 2.415-3.904 3.063-6.395l-4.49.631-.287-2.042 1.891-4.715-7.684 1.08zm1.781 41.515l.482 3.435 4.749-.667-.483-3.436-4.748.668zm11.654 4.61l-2.331.328c-.145-.611-.355-1.276-.632-1.994.526-.012 1.192-.073 1.999-.186 1.045-.085 1.477-.555 1.298-1.414l-1.07-7.612-3.799.534-.274-1.95 4.49-.631c-1.277-1.146-2.573-2.226-3.889-3.24l1.113-1.482 2.385 1.937 2.466-3.754-7.167 1.007-.261-1.856 9.152-1.286.313 2.228-3.186 4.896.484.311-.806 1.155 5.181-.728.222 1.578-.263 4.392-1.667.045.169-3.811-2.849.4 1.148 8.17c.299 1.724-.443 2.712-2.226 2.963zm-.832-76.597l-.274-1.95 7.167-1.007.274 1.95-2.677.376.796 5.663 2.418-.34.274 1.95-2.417.34.796 5.663c.279-.102.702-.225 1.269-.368.73-.229 1.235-.394 1.515-.497.148 1.053.272 1.729.374 2.03-1.683.553-4.107 1.272-7.27 2.158l-.533-1.913c.337-.109.957-.292 1.86-.545.394-.118.702-.225.924-.319l-.835-5.941-2.331.328-.274-1.95 2.332-.328-.796-5.663-2.592.363zm5.67 31.595c-.344-.771-.846-1.837-1.506-3.197-.186-.478-.357-.864-.515-1.158l1.157-.541c.074.117.191.321.35.613.886 1.707 1.467 2.918 1.744 3.637l-1.23.646zm6.771 8.705c-.424-.509-1.084-1.235-1.98-2.183-.199-.162-.336-.299-.41-.416l1.2 8.541-1.727.243-1.201-8.541c-.395 2.202-1.001 4.15-1.82 5.842-.11-.363-.333-.9-.667-1.611-.102-.301-.19-.509-.264-.625 1.04-1.787 1.762-4.16 2.169-7.121l-2.85.4-.248-1.764 2.936-.413-1.148-8.17 1.727-.243 1.148 8.17 2.59-.364.248 1.764-2.59.364.365 2.6.759-.864c1.368 1.386 2.36 2.383 2.974 2.99l-1.211 1.401zm-3.031-30.357l-1.931-13.74 11.31-1.589 1.905 13.554-1.9.267-1.631-11.605-7.425 1.043 1.657 11.791-1.985.279zm9.069 5.636c-1.727.243-2.716-.534-2.968-2.328l-.522-3.713c-.36 2.45-2.16 5.099-5.397 7.954l-.795-.646c-.407-.385-.709-.658-.908-.819 2.537-1.997 4.128-3.83 4.774-5.5.72-1.552.92-3.883.602-6.995-.1-1.122-.27-2.549-.514-4.283l1.986-.279c.165 1.176.286 2.454.362 3.831.197 2.245.242 3.816.134 4.715l1.381-.194.744 5.292c.064.875.523 1.219 1.378 1.037l.69-.097c.872-.061 1.309-.499 1.312-1.32.004-.379-.029-1.038-.102-1.974.026.186.02-.065-.018-.755.229-.032.864.101 1.905.395.069.496.101 1.344.093 2.543.051-.891.034-.793-.047.291-.013 1.579-.887 2.459-2.623 2.641l-1.467.204zm-4.854 56.286c-1.182 1.617-1.959 2.768-2.333 3.452l-1.276-2.188c.367-.305.898-.915 1.591-1.833l.733-1.05-1.018-7.241-2.504.352-.287-2.042 4.49-.631 1.292 9.191c1.138 1.418 2.917 1.957 5.334 1.617 1.101-.093 3.519-.433 7.252-1.02l4.058-.57c-.193.721-.299 1.43-.317 2.127-5.181.728-8.927 1.222-11.237 1.485-2.36.331-4.287-.219-5.778-1.649zm-1.879-13.37c-.142-.169-.324-.427-.549-.774-1.262-1.463-2.143-2.506-2.641-3.132l1.497-1.251c1.526 1.679 2.643 2.942 3.35 3.789l-1.657 1.368zm-.067-32.383c-.252 1.55-.557 3.14-.915 4.768l-1.36-.282c.416-1.635.72-3.226.915-4.768l1.36.282zm.576.96l-.209-1.485 4.835-.68-.274-1.949 1.899-.267.274 1.95 5.353-.752.209 1.485-5.353.752.208 1.485 4.835-.68.196 1.393-4.835.68.222 1.578 5.699-.801.208 1.485-12.778 1.796-.208-1.485 5.18-.728-.222-1.578-4.403.619-.196-1.393 4.403-.619-.208-1.485-4.835.679zm3.054 18.6l-1.579-11.233 10.792-1.517 1.174 8.355c.3 1.724-.407 2.739-2.125 3.044l-1.123.158c-.682.158-1.225.267-1.627.323-.194-.541-.425-1.14-.693-1.796.583-.02 1.423-.105 2.517-.259.987-.077 1.391-.543 1.212-1.401l-.104-.743-7.166 1.007.535 3.807-1.813.255zm-.798 14.329l-.248-1.764 6.217-.874-.378-2.692c-1.595.352-3.313.655-5.154.914l-.52-1.82c3.445-.546 7.538-1.279 12.281-2.199l.606 1.808c-1.603.289-3.345.628-5.227 1.019l.378 2.692 6.303-.886.248 1.764-6.303.886.392 2.785 4.835-.68 1.031 7.334-11.569 1.626-1.031-7.334 4.749-.667-.392-2.786-6.218.874zm1.227-24.425l.235 1.671 7.167-1.007-.235-1.671-7.167 1.007zm.431 3.064l.222 1.578 7.167-1.007-.222-1.579-7.167 1.008zm2.435 25.424l.522 3.714 7.598-1.068-.521-3.714-7.599 1.068zm5.287-63.069l-.3-2.135 2.417-.34-.809-5.756 1.899-.267.809 5.756 2.245-.316.3 2.135-2.245.316 1.031 7.334c.647-.406 1.299-.782 1.955-1.127.096.682.239 1.292.434 1.833 1.288-1.695 2.049-3.791 2.286-6.286l-2.59.364-.287-2.042 7.631-6.469-7.771 1.092-.261-1.856 10.965-1.541.3 2.135-7.558 6.364 9.498-1.335.933 9.147c.374 2.66-.509 4.11-2.646 4.348l-2.577.457c-.093-.24-.244-.692-.455-1.356-.11-.363-.173-.607-.191-.73.527-.012 1.308-.089 2.344-.235 1.283-.055 1.845-.858 1.686-2.415-.048-.75-.199-2.244-.454-4.48-.109-1.183-.201-2.055-.279-2.611l-2.245.315c.058 5.42-1.348 9.624-4.214 12.615-.473-.439-1.036-.896-1.689-1.372 2.679-2.649 4.044-6.311 4.091-10.989l-2.417.34c-.16 3.873-1.523 7.125-4.087 9.757-.125-.044-.356-.234-.696-.565l-.895-.727c.466-.444.894-.945 1.285-1.506-.927.509-2.313 1.304-4.156 2.383-.696.477-1.208.801-1.536.973l-.818-2.063 2.619-1.409-1.135-8.077-2.417.341zm7.188 25.419c-1.387-1.509-2.519-2.675-3.397-3.499l1.484-1.345c.208.224.542.524 1.007.9 1.161 1.162 1.982 1.994 2.463 2.494l-1.557 1.45zm1.646 13.591c-.915 1.012-1.672 2.096-2.272 3.254l-1.263-2.095c.155-.147.408-.436.759-.864.692-.917 1.19-1.555 1.492-1.914l-1.018-7.241-2.331.328-.287-2.042 4.317-.607 1.279 9.098c1.213 1.534 2.942 2.143 5.187 1.827 1.274-.117 4.009-.501 8.202-1.153l3.367-.473c-.126.775-.231 1.484-.317 2.127-5.871.825-9.732 1.335-11.582 1.533-2.303.324-4.147-.269-5.533-1.778zm3.547-14.226c-.215.977-.438 1.893-.67 2.745-.182-.037-.488-.121-.916-.25-.488-.121-.821-.2-1.002-.238.788-2.319 1.291-4.598 1.504-6.838l1.865.117c-.023.256-.081.674-.176 1.255-.038.573-.091 1.023-.163 1.348l2.763-.388-.521-3.713 1.986-.279.521 3.713 5.18-.728.248 1.764-5.18.728.509 3.621 6.043-.85.248 1.764-4.575.643.587 4.178c.073.937.479 1.322 1.218 1.154l.518-.073c.7-.035 1.045-.493 1.039-1.376.019-.696.001-1.451-.054-2.265.61.167 1.188.307 1.732.419.055.813.078 1.599.067 2.357-.022 1.518-.723 2.374-2.104 2.568l-1.64.23c-1.603.289-2.511-.53-2.722-2.458l-.626-4.456-2.59.364c.553 3.52-.381 6.271-2.802 8.251l-1.689-1.372c2.235-1.639 3.099-3.843 2.592-6.612l-3.626.51-.248-1.764 6.648-.934-.509-3.621-3.455.486zm-.885 40.09l1.139-1.296 5.233 4.661-1.199 1.494-5.173-4.859zm14.466-71.741c-.755-.777-1.832-1.762-3.232-2.954l1.397-1.333c1.325 1.077 2.422 1.996 3.293 2.756l-1.458 1.531zm.257 6.212c-1.02-.993-2.126-1.973-3.319-2.941l1.385-1.426c1.126.916 2.256 1.86 3.392 2.837l-1.458 1.53zm.97 10.656c.039-.133.032.026-.021.477l-2.077-.371c.438-3.153.789-6.075 1.058-8.764.182.038.515.117 1.002.238.419.068.754.147 1.002.238-.204 1.481-.526 4.208-.964 8.182zm.868-15.743l-.548-3.899 6.476-.91-.831-2.156 2.046-.477.857 2.341 6.389-.898.548 3.899-1.813.255-.3-2.136-11.311 1.59.3 2.135-1.813.256zm2.968 44.945l-2.714-19.311 5.698-.801c.014-.317.068-.767.163-1.348.068-.767.109-1.308.124-1.627l2.357-.142c-.006.379-.072.957-.197 1.731-.112.458-.18.815-.202 1.07l8.807-1.238 2.714 19.311-2.159.303-.208-1.485-12.52 1.759.209 1.485-2.072.293zm3.518-31.372c-1.894 1.149-3.274 1.975-4.142 2.476-.358-.456-.729-1.003-1.111-1.643 2.313-1.083 4.251-2.112 5.817-3.09l1.146 1.259c-.378.243-.948.575-1.71.998zm-4.17-12.762l-.222-1.578 10.706-1.505.222 1.579-4.49.631.248 1.764 5.612-.789 1.227 8.727-13.124 1.845-1.227-8.727 5.612-.789-.248-1.764-4.316.606zm.285 26.483l.496 3.528 12.52-1.76-.496-3.528-12.52 1.76zm2.041 28.887c.065 2.137.073 4.282.024 6.435-.479-.059-.948-.057-1.408.008.032-2.277.024-4.42-.024-6.434l1.408-.009zm-1.298-23.596l.496 3.528 12.519-1.759-.496-3.528-12.519 1.759zm.059-28.424l.274 1.95 3.713-.522-.274-1.95-3.713.522zm.483 3.435l.274 1.95 3.712-.522-.274-1.95-3.712.522zm.202 30.281l.496 3.528 12.519-1.76-.496-3.528-12.519 1.76zm5.21 20.111c-.133-.107-.328-.238-.583-.392-.522-.367-.944-.656-1.266-.863l2.296 16.339-1.899.267-3.105-22.095 1.899-.267.548 3.899.121-.396c.313.146.76.399 1.339.759.57.298 1.016.552 1.339.758l-.689 1.991zm3.516-55.15l-3.799.534.274 1.95 3.799-.534-.274-1.95zm2.213 50.18c-1.604.289-3.289.621-5.055.995-.009-.061-.056-.182-.139-.36-.154-.672-.314-1.186-.481-1.542 3.954-.681 8.034-1.508 12.242-2.478l.619 1.901c-.625.151-1.537.343-2.736.574-1.077.278-1.903.457-2.478.537l.509 3.621 5.958-.837.274 1.95-5.958.837.509 3.621 4.835-.679 1.383 9.841-1.986.279-.183-1.3-7.771 1.092.183 1.3-1.899.267-1.383-9.841 4.835-.679-.509-3.621-5.785.813-.274-1.95 5.785-.813-.495-3.528zm-5.529-46.211l.274 1.949 3.799-.534-.274-1.95-3.799.535zm7.338 7.111c-2.384-.675-4.517-1.228-6.396-1.657l.668-1.514c.124.046.333.081.63.101 2.587.457 4.492.851 5.713 1.185l-.615 1.885zm-3.205 50.467l.691 4.92 7.771-1.092-.691-4.92-7.771 1.092zm25.956-61.335c-.258.667-.4 1.13-.422 1.384-2.261-.629-4.111-1.472-5.551-2.533l.157 1.114-3.367.474c.035.248.048.561.044.94l.118.835 6.821-.958.235 1.671-7.252 1.02-.034.383c1.566.286 4.163.804 7.791 1.556l.816.169-.615 1.885c-.488-.121-1.279-.326-2.375-.613-2.747-.75-4.78-1.222-6.098-1.415-.779 1.561-3.274 3.016-7.487 4.366l-.337-.521c-.385-.641-.646-1.045-.787-1.214 4.623-1.345 7.033-2.788 7.228-4.33l-6.389.898-.235-1.671 6.734-.947c.045-.511.021-1.106-.075-1.788l-3.799.534-.157-1.114c-1.159 1.363-2.605 2.766-4.339 4.208-.3-.462-.732-1.033-1.297-1.711 2.194-1.506 3.82-3.093 4.878-4.756l-5.18.728-.235-1.671 6.562-.922c.267-.605.504-1.207.715-1.805l-5.871.825-.235-1.671 6.476-.91.189-1.163c.022-.254.054-.448.094-.581l-7.771 1.092-.235-1.671 8.116-1.141c.028-.634.019-1.328-.028-2.079l2.072-.291c.046.751.027 1.449-.059 2.091l8.72-1.226.235 1.671-8.979 1.262c-.041.133-.073.327-.095.582l-.188 1.163 8.72-1.226.235 1.671-9.238 1.298c-.152.589-.362 1.187-.629 1.792l11.742-1.65.235 1.671-5.612.789c1.426 1.378 3.5 2.348 6.22 2.913l-.182.593zm-17.354 24.324l-.287-2.042 2.504-.352-.613-4.364 2.072-.291.613 4.363 3.885-.546-.757-5.385 1.986-.279.757 5.384 5.18-.728-.757-5.384 1.986-.279.757 5.385 2.849-.4.287 2.042-2.849.401 1.122 7.984-9.152 1.286-1.122-7.984-3.885.546 1.644 11.698 15.541-2.185.274 1.95-17.613 2.476-1.918-13.647-2.504.351zm10.885-25.876c-.588-.422-1.165-.972-1.729-1.65l-5.094.716c-.366.747-.825 1.441-1.379 2.087l8.202-1.153zm-7.195 50.271l-.209-1.485 3.454-.485-.287-2.042 1.813-.255.287 2.042 3.454-.485.209 1.485-3.454.485.195 1.393 3.022-.425.196 1.393-3.022.425.222 1.578 3.712-.522.208 1.485-9.411 1.323-.209-1.485 3.885-.546-.222-1.578-3.022.424-.196-1.393 3.022-.424-.196-1.393-3.451.485zm3.214 18.483l-1.605-11.419 7.511-1.056 1.24 8.819c.217 1.546-.36 2.449-1.733 2.705-.51.134-1.139.254-1.886.36-.137-.549-.334-1.122-.593-1.715.229-.032.579-.051 1.049-.053l.604-.084c.69-.097.992-.456.905-1.074l-.183-1.3-4.144.583.561 3.992-1.726.242zm.33-10.177l.222 1.578 4.145-.583-.222-1.578-4.145.583zm.418 2.971l.222 1.578 4.145-.583-.222-1.578-4.145.583zm2.795-37.14l.835 5.942 5.18-.728-.835-5.942-5.18.728zm3.582 33.025l-.235-1.671 4.058-.57-.353-2.506-3.453.485-.235-1.671c-.142-.169-.374-.357-.696-.565l-.298-.242c1.164-1.74 2.034-3.694 2.61-5.857l1.939.011c-.258.668-.464 1.296-.616 1.885l4.403-.619.222 1.578-1.348 2.935 3.194-.449.587 4.178 1.295-.182.235 1.671-1.295.182.77 5.478-1.64.23-.17-1.207-2.59.364.443 3.157c.283 1.601-.405 2.549-2.065 2.846l-2.245.315c-.194-.541-.424-1.14-.692-1.796l2.158-.303c.863-.122 1.213-.549 1.052-1.284l-.378-2.692-3.54.498-.248-1.764 3.54-.498-.352-2.507-4.057.57zm5.374-9.37l-3.454.485c-.331.993-.784 1.941-1.361 2.842l3.54-.498 1.275-2.829zm2.414 4.015l-2.59.364.352 2.507 2.59-.364-.352-2.507zm-.004-43.768l-2.558-18.196 2.332-.328c.022-.254.06-.607.115-1.058.134-.712.21-1.641.226-2.779l2.21.068c-.132 1.154-.291 2.315-.48 3.478l3.886-.546 2.531 18.01-1.899.267-.248-1.764-4.404.619.274 1.949-1.985.28zm-2 48.31l.353 2.507 2.59-.364-.353-2.506-2.59.363zm1.715-64.743l.718 5.106 4.403-.619-.718-5.106-4.403.619zm1.005 7.149l.744 5.292 4.404-.619-.745-5.292-4.403.619zm15.731 36.145l-1.005-7.148 1.727-.243c-1.734-.639-3.367-1.609-4.899-2.909l.246-.129-.259.037c-1.076 1.54-2.406 2.927-3.994 4.159l1.641-.23c.078.557.129 1.34.153 2.345l.026.186c.048 2.014-1.037 3.9-3.254 5.664-.579-.361-1.192-.748-1.837-1.162 2.146-1.438 3.152-2.84 3.019-4.211.013-.317.002-.82-.036-1.509.013-.317.008-.569-.018-.755-1.317 1.069-2.85 2.073-4.596 3.012l-.337-.521c-.142-.169-.404-.573-.787-1.215 3.181-1.583 5.658-3.382 7.43-5.399l-5.958.837-1.435-10.212 16.923-2.378 1.435 10.212-6.043.85c2.01 1.359 4.864 2.251 8.564 2.678-.281.924-.473 1.645-.576 2.164-1.93-.359-3.636-.814-5.122-1.363l.979 6.963-1.987.277zm-11.94-17.919l.352 2.507 5.526-.777-.353-2.506-5.525.776zm.587 4.178l.353 2.507 5.526-.777-.352-2.506-5.527.776zm2.92 43.922l-2.558-18.196 2.332-.328c.022-.254.06-.607.115-1.058.134-.712.21-1.639.226-2.777l2.21.068c-.132 1.154-.291 2.313-.48 3.476l3.885-.546 2.531 18.01-1.899.268-.248-1.764-4.403.619.274 1.95-1.985.278zm7.239-59.376l-3.626.51c-.154-.674-.402-1.396-.745-2.167.756-.044 1.883-.17 3.38-.38 1.628-.103 2.326-.99 2.091-2.661-.077-1.377-.399-4.299-.968-8.763-.126-1.308-.227-2.24-.305-2.797l-5.181.728c-.152.589-.413 1.447-.783 2.572l-.361 1.187c-.57-.298-1.199-.589-1.883-.871 1.007-2.854 1.689-5.729 2.046-8.621l2.051.185c-.063.387-.162.938-.296 1.651l-.283 1.746 6.389-.898c.557 3.961 1.093 8.62 1.612 13.974.374 2.659-.673 4.195-3.138 4.605zm-7.523 42.943l.718 5.106 4.403-.619-.718-5.106-4.403.619zm1.005 7.148l.744 5.292 4.403-.619-.744-5.292-4.403.619zm3.977-56.266l-1.569-1.768c-.989-1.186-1.761-2.086-2.317-2.704l1.397-1.333c.489.563 1.215 1.344 2.178 2.345.821.831 1.444 1.501 1.867 2.009l-1.556 1.451zm4.746 15.631l-5.526.776.353 2.507 5.525-.777-.352-2.506zm-4.938 4.954l.352 2.507 5.526-.777-.353-2.506-5.525.776zm10.75 42.632l-3.626.51c-.154-.674-.402-1.396-.745-2.167.756-.044 1.883-.17 3.38-.38 1.628-.103 2.326-.99 2.091-2.661-.077-1.377-.399-4.299-.968-8.763-.126-1.308-.227-2.24-.305-2.797l-5.181.728c-.152.589-.413 1.447-.783 2.571l-.361 1.187c-.57-.298-1.199-.589-1.883-.872 1.007-2.854 1.689-5.728 2.046-8.618l2.051.185c-.063.388-.162.938-.296 1.651l-.283 1.744 6.389-.898c.557 3.962 1.093 8.62 1.612 13.975.374 2.659-.672 4.195-3.138 4.605zm-2.541-6.175l-1.569-1.768c-.989-1.187-1.761-2.087-2.317-2.704l1.397-1.333c.489.563 1.215 1.344 2.178 2.344.821.832 1.444 1.501 1.867 2.01l-1.556 1.451zm3.023-60.394l-.952-6.777c-.472.824-1 1.655-1.586 2.495-.277-.719-.607-1.397-.991-2.038 1.505-2.231 2.585-4.782 3.239-7.652l1.917.488c-.393 1.381-.779 2.604-1.158 3.666l1.344 9.564-1.813.254zm1.483 1.78c-.306 2-.729 3.795-1.268 5.385-.125-.046-.277-.088-.458-.125-.62-.229-1.077-.354-1.373-.375.628-1.792 1.026-3.552 1.195-5.28l1.904.395zm10.163 22.161c-2.252 1.516-5.447 3.006-9.584 4.471-.101-.301-.339-.741-.714-1.32-.101-.301-.189-.509-.264-.626 3.548-1.066 6.32-2.213 8.32-3.441-1.512-.734-2.92-1.767-4.221-3.099-.765 1.243-1.681 2.446-2.751 3.605-.49-.562-.942-1.066-1.357-1.514 2.148-2.257 3.812-4.827 4.991-7.707l2.211.068c-.308.739-.652 1.417-1.034 2.039l10.706-1.505.3 2.135c-1.392 2.216-2.93 4.009-4.615 5.382 1.897.554 4.656.766 8.278.635-.073.327-.185.783-.335 1.373l-.142.872c-4.058-.059-7.322-.516-9.789-1.368zm-8.069-26.053l-1.344-9.564 1.727-.243 1.344 9.564-1.727.243zm3.182 9.493c-1.889.328-2.974-.498-3.252-2.478l-.574-4.085 1.986-.279.496 3.528c.09 1.062.734 1.474 1.934 1.243l3.108-.437c1.217-.109 1.856-.576 1.916-1.405.001-.82.012-1.579.032-2.277.676.222 1.344.379 2.004.476-.034 1.015-.093 1.844-.179 2.486-.136 1.534-1.159 2.402-3.067 2.608l-4.404.62zm-1.014 29.696l-1.265-9.005 14.763-2.075 1.266 9.005-1.986.279-.183-1.3-10.792 1.517.183 1.3-1.986.279zm3.82-34.161c-.747-.714-1.927-1.59-3.539-2.627l1.211-1.401c-.423-.508-.852-1.047-1.284-1.618 1.878-.832 3.308-1.727 4.289-2.686-.946-.876-1.781-2.022-2.508-3.435-.375.684-.771 1.403-1.194 2.156-.142-.169-.382-.419-.722-.75-.339-.331-.58-.581-.72-.75 1.521-2.109 2.492-4.391 2.91-6.849l1.964.197c-.09.202-.189.532-.301.989-.17.466-.295.832-.375 1.094l6.735-.946.248 1.764-1.468.206c-.286 2.567-.917 4.549-1.894 5.948 1.322.635 2.972 1.097 4.949 1.387l-.181.594c-.138.272-.308.738-.508 1.396-2.235-.443-4.025-1.075-5.373-1.896-1.069 1.161-2.564 2.223-4.483 3.186 1.489.99 2.66 1.804 3.513 2.441l-1.269 1.6zm.201 45.265c-.581 1.724-1.268 3.303-2.063 4.74-.596-.484-1.238-.867-1.922-1.15 1.666-2.758 2.693-5.68 3.082-8.764l2.284-.037c-.206 1.04-.421 2.016-.645 2.931l12.778-1.796.3 2.135-7.166 1.007.874 6.22 8.807-1.238.3 2.135-8.807 1.238 1.213 8.634-2.159.303-1.213-8.634-9.929 1.396-.3-2.135 9.929-1.396-.875-6.22-4.488.631zm1.567-26.469c1.547-1.1 3.009-2.6 4.386-4.498l-9.325 1.31c1.74 1.524 3.387 2.587 4.939 3.188zm-4.607 7.938l.587 4.178 10.792-1.517-.587-4.178-10.792 1.517zm1.871-40.516c.827 1.717 1.78 3.065 2.858 4.049.822-1.251 1.308-2.804 1.459-4.656l-4.23.595-.087.012zm8.793 14.954c-.825-1.271-1.848-2.706-3.07-4.302l1.51-1.159c.573.74 1.343 1.832 2.309 3.273.424.508.709.879.86 1.11l-1.609 1.078zm2.572-14.185l-.274-1.95 2.417-.339-.613-4.364 1.813-.255.613 4.364 2.417-.34.274 1.95-2.417.339.574 4.087 2.067-.953c.122.867.25 1.574.386 2.123l-.738.388c-.617.214-1.087.406-1.416.578l.926 6.591c.292 1.663-.301 2.661-1.78 2.996l-1.813.255c-.269-.657-.484-1.352-.646-2.086.527-.012 1.02-.049 1.481-.114.699-.036.988-.486.867-1.353l-.77-5.477-2.473 1.199-.572-2.191c.328-.172.881-.408 1.662-.707.442-.188.803-.333 1.083-.436l-.652-4.644-2.416.339zm22.335 34.273c-.559.206-1.183.355-1.874.453-.11-.363-.266-.846-.468-1.449-.093-.239-.177-.416-.251-.533.238.03.732-.008 1.481-.113.756-.042 1.053-.652.888-1.829-.03-.626-.116-1.655-.258-3.088-.048-.751-.092-1.28-.136-1.59l-3.137 1.482 1.383 9.841-1.899.267-1.292-9.191-2.878 1.446 1.187 8.448c.076 1.378.853 1.899 2.333 1.565l4.489-.631c1.447-.141 2.184-.748 2.209-1.825.051-.89.063-1.839.04-2.846.676.222 1.315.383 1.918.488.001 1.263-.049 2.374-.148 3.334-.071 1.587-1.118 2.491-3.141 2.713l-5.871.825c-2.179.368-3.392-.534-3.638-2.708l-1.187-8.448-1.476.775-.632-1.994.246-.129-1.899.267 1.161 8.263c.337-.109.833-.337 1.489-.683.385-.18.689-.317.911-.412.087.62.211 1.296.374 2.03-.723.291-2.129.931-4.221 1.919l-2.253.884-.619-1.901 2.499-1.014-1.239-8.82-2.072.292-.274-1.95 2.072-.292-.875-6.22 1.899-.267.875 6.22 1.986-.279.274 1.95 1.489-.683-.744-5.292 1.899-.267.652 4.642 2.878-1.446-.861-6.127 1.899-.267.77 5.477 4.945-2.399c.423 3.854.694 6.404.811 7.649.238 2.116-.333 3.268-1.714 3.463zm-10.278-31.8c-.293 3.766-1.693 6.959-4.2 9.584-.481-.5-.987-.965-1.517-1.396 2.263-2.273 3.564-4.918 3.904-7.933l-2.676.376-.287-2.042 7.631-6.471-7.771 1.092-.261-1.857 11.051-1.553.3 2.135-7.645 6.376 9.584-1.347c.194 1.806.451 4.263.771 7.373.055.813.109 1.405.162 1.776.316 2.668-.566 4.118-2.646 4.348-.509.134-1.398.291-2.664.469-.255-.974-.498-1.667-.731-2.075l1.036-.146c.583-.02 1.049-.053 1.395-.101 1.341-.063 1.903-.867 1.686-2.415-.043-.309-.085-.808-.123-1.498-.233-2.491-.436-4.355-.61-5.594l-2.158.303c.07 5.102-1.454 9.292-4.573 12.571-.415-.448-.979-.904-1.689-1.372 2.999-2.883 4.482-6.531 4.449-10.944l-2.418.341zm.911 64.1c-.093 1.844-.577 3.835-1.449 5.979l-1.849-1.255c.752-1.746 1.159-3.444 1.221-5.094.128-1.595-.013-3.847-.421-6.757l-1.031-7.334c6.074-1.043 11.578-2.195 16.507-3.456l1.077 2.026c-4.774 1.113-9.85 2.174-15.225 3.181l.417 2.971 16.318-2.293.273 1.949-16.317 2.293.052.372c.444 3.155.586 5.629.427 7.418zm3.114 5.242l-1.396-9.934 12.864-1.808 1.396 9.934-1.985.279-.195-1.393-8.893 1.25.196 1.393-1.987.279zm.864-8.263l.679 4.828 8.893-1.25-.679-4.828-8.893 1.25zm6.734-69.059l-.261-1.857 8.722-1.226c-.144-.169-.329-.458-.563-.868-.309-.524-.537-.902-.688-1.134l2.094-.768c.082.178.237.44.462.787.384.641.692 1.166.927 1.574l-.332.142 8.201-1.153.262 1.857-5.181.728 1.817.407c-.413.816-.854 1.667-1.312 2.552l5.956-.837.248 1.764-20.637 2.9-.248-1.764 5.959-.837c-.631-.731-1.258-1.433-1.88-2.103l1.635-.893-5.181.729zm3.988 17.713l-1.564-11.141 15.714-2.21 1.553 11.049-1.985.279-.17-1.207-11.742 1.65.184 1.3-1.99.28zm4.146 23.196c-.109 1.719-.529 3.544-1.255 5.478-.267-.216-.64-.573-1.119-1.074-.274-.278-.478-.47-.608-.577.653-1.606 1.004-3.076 1.053-4.408.047-1.332-.133-3.452-.543-6.361l-1.199-8.541 15.714-2.208 1.437 10.212c.6 4.271 1.094 6.757 1.487 7.459.167.355.365.517.597.484.221-.094.362-.335.426-.723-.053-1.633-.111-2.886-.176-3.762l1.088.226c.238.03.42.068.545.113-.015.319-.004.822.035 1.51-.006 1.201-.019 1.96-.031 2.277-.014 1.579-.596 2.45-1.746 2.612-1.036.146-1.856-.465-2.458-1.832-.636-1.173-1.253-3.895-1.853-8.166l-1.147-8.17-11.656 1.638.913 6.499c.439 3.156.605 5.594.496 7.314zm-3.478-32.851l.354 2.506 11.742-1.65-.354-2.507-11.742 1.651zm.574 4.084l.354 2.507 11.742-1.65-.354-2.506-11.742 1.649zm.213-12.907c.819.832 1.551 1.645 2.19 2.438l-.565.363 4.748-.667c.543-1.149 1.01-2.225 1.396-3.226l-7.769 1.092zm4.666 74.556l-2.688-19.125 7.425-1.044 2.649 18.846-1.9.267-.234-1.671-3.625.509.272 1.95-1.899.268zm8.752-31.739c-1.379-1.447-2.871-3.099-4.481-4.956-1.153 2.245-2.495 4.391-4.026 6.436-.531-.43-1.089-.856-1.677-1.279 1.905-2.729 3.315-5.01 4.233-6.843-.559-.615-1.42-1.536-2.59-2.76-1.113-1.231-1.976-2.151-2.59-2.76l1.385-1.425c.614.609 1.478 1.529 2.59 2.76l2.166 2.252c.791-1.878 1.55-4.005 2.271-6.378l1.87.778c-.666 2.366-1.562 4.764-2.687 7.194 2.355 2.573 4.024 4.421 5.006 5.545l-1.47 1.436zm-9.28 14.204l.81 5.756 3.626-.51-.809-5.756-3.627.51zm1.071 7.613l.822 5.849 3.626-.51-.821-5.849-3.627.51zm5.922-5.472l-.287-2.042 7.08-.995-.664-4.735 1.984-.279.666 4.735 2.59-.364.287 2.042-2.59.364 1.645 11.697c.36 2.158-.49 3.414-2.553 3.767l-3.367.473c-.084-.177-.178-.417-.276-.718-.203-.603-.388-1.082-.556-1.437.584-.02 1.625-.133 3.123-.344 1.272-.117 1.795-.788 1.563-2.019l-1.565-11.14-7.08.995zm4.283 7.919c-.843-1.396-1.979-3.003-3.406-4.823l1.496-1.251c1.213 1.534 2.401 3.103 3.566 4.706l-1.656 1.368zm9.392-60.248c-1.362 2.844-2.723 5.276-4.082 7.297-.266-.216-.815-.581-1.65-1.094l-.197-.161c1.286-1.696 2.637-3.999 4.047-6.914l1.882.872zm-5.519-1.686l-.312-10.37c4.72-.663 9.945-1.682 15.683-3.056l.892 1.957c-5.744 1.313-10.539 2.271-14.388 2.875l.099 6.329 5.957-.837-.666-4.734 2.158-.303.666 4.734 7.942-1.116.274 1.95-7.943 1.116.939 6.686c.409 2.087-.393 3.274-2.406 3.557-.567.142-1.541.311-2.922.505-.305-.904-.558-1.659-.758-2.26.756-.044 1.652-.138 2.688-.284.985-.076 1.377-.634 1.173-1.679l-.874-6.222-8.202 1.152zm4.529 36.028l-2.439-17.36 5.871-.825 2.191 15.597-4.059.57.248 1.764-1.812.254zm-.351-15.666l1.631 11.604 2.33-.328-1.631-11.604-2.33.328zm2.464 36.307l-.286-2.042 9.237-1.298-1.316-9.377 2.072-.291 1.316 9.376 9.325-1.311.287 2.042-6.821.958.967 6.87c.121.868.67 1.231 1.649 1.093l1.728-.242c.928-.068 1.361-.538 1.297-1.414.061-.828.026-1.897-.098-3.205l2.09.463c.036 1.51.024 2.68-.035 3.508-.07 1.587-1.002 2.475-2.795 2.665l-2.504.352c-1.898.267-2.984-.56-3.254-2.478l-1.029-7.334-3.973.558.083 1.219c.617 4.395-1.18 7.896-5.391 10.509-.207-.224-.558-.617-1.046-1.179-.217-.286-.393-.482-.523-.589 3.723-1.911 5.344-4.79 4.861-8.636l-.057-1.033-5.784.816zm4.661-4.442c-.539-.492-1.385-1.288-2.537-2.389-.945-.876-1.621-1.507-2.026-1.893l1.285-1.506c1.723 1.4 3.298 2.788 4.724 4.165l-1.446 1.623zm-1.366-30.97l-.274-1.95 4.403-.619-.521-3.713 1.985-.279.521 3.713 4.664-.655.272 1.95-4.662.655.481 3.435 5.613-.789.26 1.857-4.92.691c1.616 2.74 3.859 4.917 6.729 6.534l-1.047 1.946c-2.713-1.764-4.751-3.939-6.111-6.525l1.317 9.376-1.985.279-1.318-9.377c-.765 3.327-2.246 6.154-4.441 8.482-.549-.555-1.115-1.042-1.703-1.465 2.551-2.314 4.282-5.241 5.193-8.777l-4.489.631-.261-1.857 5.181-.728-.483-3.435-4.404.62zm8.928-14.818c-2.247-2.208-4.218-4.108-5.908-5.704l1.471-1.438c.474.439 1.152 1.101 2.041 1.985 1.881 1.694 3.225 2.895 4.027 3.601l-1.631 1.556zm5.745 38.995c-1.031 1.849-2.179 3.714-3.438 5.595l-1.764-1.267c1.328-1.827 2.453-3.626 3.379-5.398l1.823 1.07zm-1.143-44.946l-1.565-11.14 8.114-1.141-.651-4.642 2.157-.303.652 4.642 8.116-1.141 1.554 11.048-2.072.291-.17-1.207-6.043.849 1.107 7.893-2.158.303-1.108-7.893-6.043.85.183 1.3-2.073.291zm.793-9.39l.795 5.663 6.045-.849-.797-5.664-6.043.85zm5.871 34.231c-.729 1.492-1.728 2.957-2.992 4.396-.102-.301-.344-.771-.727-1.413l-.337-.521c1.321-1.448 2.466-3.123 3.433-5.026-.33-1.09-.699-2.047-1.108-2.874-.693.918-1.419 1.809-2.179 2.673-.158-.292-.449-.694-.873-1.203l-.338-.521c.815-.872 1.602-1.771 2.352-2.697-.873-1.203-1.812-2.238-2.814-3.107l1.312-1.32c1.003.87 1.895 1.786 2.676 2.748.568-.963 1.129-1.988 1.682-3.076l1.623.908c-.738 1.429-1.47 2.701-2.192 3.811 1.366 2.208 2.362 5.76 2.993 10.656.619 3.573-.223 5.522-2.523 5.846-.395.118-1.139.255-2.23.409-.162-.735-.377-1.431-.646-2.087.354.012 1.077-.057 2.171-.21 1.283-.055 1.731-1.252 1.345-3.597-.199-1.361-.408-2.626-.628-3.795zm8.375-36.233l-6.045.849.797 5.664 6.043-.85-.795-5.663zm-4.375 37.754l-1.436-10.212 4.748-.667-.587-4.178 1.899-.267.588 4.178 4.834-.68 1.291 9.191-4.834.679.729 5.199 3.069-.715-1.502-2.534 1.648-.8c.234.409.58.992 1.038 1.748 1.144 1.86 1.921 3.233 2.341 4.121l-1.636.893c-.144-.169-.306-.494-.489-.973-.232-.41-.393-.702-.476-.88-5.343 1.255-9.034 2.122-11.081 2.599l-.619-1.901.863-.122c2.111-.422 3.765-.78 4.955-1.075l-.743-5.292-2.937.413.145 1.021-1.808.254zm2.564 35.819c-1.869.073-3.057-.865-3.564-2.813-.123-2.128.752-3.419 2.625-3.872 1.982-.089 3.209.907 3.678 2.986.105 2.004-.809 3.238-2.739 3.699zm-.743-5.292c-1.077.279-1.586 1.044-1.526 2.297.264 1.037.949 1.538 2.062 1.509 1.134-.286 1.685-.961 1.651-2.031-.292-1.221-1.019-1.812-2.187-1.775zm-1.183-39.137l.77 5.478 2.936-.413-.77-5.478-2.936.413zm7.857-1.104l-3.021.425.77 5.477 3.021-.424-.77-5.478zm7.43 1.036c-.033 1.015-.103 1.782-.205 2.301-.189-.099-.5-.214-.928-.343-.24-.029-.422-.067-.545-.113.363-2.006.438-4.605.226-7.794l1.493-.021c-.015.318-.006.791.023 1.417-.021.698-.037 1.205-.051 1.522l1.641-.23-.718-5.106 1.899-.267.718 5.106 1.986-.279.272 1.949-1.985.279.64 4.549 1.895-.929c.122.867.278 1.57.474 2.111l-2.066.953 1.174 8.355-1.898.267-1.097-7.798-3.371 1.704-.57-2.191 3.642-1.648-.717-5.106-1.813.254c-.026.257-.064.61-.119 1.058zm1.883-19.224c.304 2.166-.219 3.881-1.566 5.145l-.895-.726c.923-.951 1.299-2.236 1.131-3.853l-1.467.206-.432-3.063 2.85-.4c.071.494.198 1.391.379 2.691zm4.888 14.77l-.261-1.856 4.488-.631-.404-2.878 1.984-.279.405 2.878 4.575-.643.262 1.856-4.576.643.432 3.064 5.438-.765.262 1.857-12.777 1.796-.261-1.857 5.352-.752-.431-3.063-4.488.63zm.652 9.66l-.262-1.857 7.942-1.116-.273-1.95 1.899-.267.273 1.95 2.764-.388.261 1.856-2.763.389.678 4.827c.318 1.849-.442 2.903-2.285 3.162-.912.19-1.856.355-2.836.493l-.454-1.356c-.102-.303-.193-.541-.276-.719.583-.02 1.423-.105 2.517-.259 1.036-.146 1.493-.652 1.372-1.519l-.613-4.363-7.944 1.117zm3.973 4.459c-.067-.053-.138-.137-.212-.254-1.162-1.162-2.104-2.007-2.822-2.538l1.125-1.389c1.118.853 2.184 1.745 3.193 2.675l-1.284 1.506zm5.761-45.323l-.248-1.764 9.411-1.323c-.084-.177-.214-.474-.39-.892-.251-.533-.451-.914-.603-1.146l2.206-.594 1.03 2.316 8.894-1.25.248 1.764-20.548 2.889zm1.758 13.764l-.248-1.764 9.756-1.371-.104-.743 4.44-2.233-12.605 1.771-.233-1.671 16.317-2.293.247 1.764-5.902 3.102 8.894-1.25.248 1.764-8.979 1.262.209 1.485c.301 1.724-.466 2.747-2.299 3.068l-3.453.485-.039-.278c-.109-.363-.299-.874-.566-1.53.346-.048.838-.087 1.479-.113l1.469-.207c1.045-.084 1.477-.555 1.299-1.413l-.17-1.207-9.76 1.372zm1.819-7.735l-.691-4.92 14.938-2.099.691 4.92-14.938 2.099zm3.547 40.228l-2.558-18.196 2.332-.328c.021-.254.06-.607.115-1.058.134-.712.21-1.639.226-2.777l2.211.068c-.132 1.154-.291 2.313-.479 3.476l3.886-.546 2.531 18.011-1.899.267-.248-1.764-4.403.619.273 1.95-1.987.278zm-2.032-43.849l.261 1.856 11.052-1.553-.261-1.857-11.052 1.554zm1.748 27.416l.719 5.106 4.402-.619-.718-5.106-4.403.619zm1.003 7.149l.743 5.292 4.403-.619-.743-5.292-4.403.619zm14.537 6.951l-3.626.51c-.153-.674-.401-1.396-.744-2.167.756-.044 1.883-.17 3.38-.38 1.629-.103 2.325-.99 2.092-2.661-.076-1.377-.399-4.299-.968-8.763-.126-1.308-.228-2.24-.306-2.797l-5.181.728c-.152.589-.413 1.447-.783 2.571l-.36 1.187c-.57-.298-1.198-.589-1.884-.871 1.008-2.854 1.688-5.729 2.047-8.619l2.051.185c-.063.388-.162.938-.296 1.651l-.283 1.744 6.389-.898c.559 3.962 1.094 8.62 1.612 13.975.372 2.658-.675 4.195-3.14 4.605zm-2.541-6.176l-1.567-1.768c-.989-1.186-1.762-2.086-2.317-2.704l1.397-1.333c.489.563 1.215 1.344 2.179 2.344.821.832 1.443 1.501 1.867 2.01l-1.559 1.451zm8.811-30.509c.25 2.616-.192 5.107-1.326 7.476-.637-.353-1.298-.669-1.981-.952.701-1.677 1.103-3.215 1.198-4.618.098-1.401-.06-3.556-.468-6.466l-1.279-9.098 17.527-2.463 2.492 17.732c.393 1.964-.418 3.088-2.432 3.372l-2.765.388c-.145-.611-.358-1.307-.645-2.086l1.122-.158c.525-.012.933-.036 1.222-.077 1.102-.093 1.559-.598 1.371-1.518l-.482-3.435-5.785.813.928 6.592-2.072.291-.926-6.591-5.699.798zm12.323 18.165l-.274-1.95-6.389.898.273 1.95-2.071.292-.274-1.95-4.921.691-.261-1.856 4.921-.692-.326-2.321 2.072-.292.326 2.321 6.389-.898-.326-2.322 1.986-.279.326 2.321 5.008-.704.261 1.856-5.008.704.272 1.95-1.984.281zm-13.82-30.073l.562 3.992 5.525-.776-.562-3.992-5.525.776zm1.005 7.149l.393 2.785 5.524-.777-.562-3.992-5.525.777.17 1.207zm20.398 28.012l-.241.792c-4.443-.701-7.878-2.174-10.307-4.421-1.866 2.598-4.807 5.063-8.821 7.394-.301-.462-.685-1.102-1.15-1.921 4.492-2.272 7.512-4.81 9.056-7.616l2.196-.025-.34.71c2.525 2.106 5.84 3.345 9.942 3.715-.081.264-.193.722-.335 1.372zm-12.631 6.604c-1.463 1.72-3.193 3.384-5.198 4.991-.423-.508-.9-.979-1.432-1.408 1.753-1.319 3.436-2.912 5.053-4.781l1.577 1.198zm-4.57-1.82l-.248-1.764 6.734-.946-.432-3.064 1.986-.279.431 3.063 6.477-.91.247 1.764-6.476.91.652 4.642c.309 1.787-.396 2.832-2.112 3.137l-2.85.4-.026-.186c-.136-.549-.338-1.152-.605-1.809.526-.012 1.309-.089 2.345-.235.986-.076 1.386-.573 1.198-1.494l-.587-4.178-6.734.949zm9.181-41.825l-5.785.813.562 3.992 5.784-.813-.561-3.992zm-4.95 6.754l.562 3.992 5.784-.813-.562-3.992-5.784.813zm13.173 39.252c-2.281-1.194-4.417-2.187-6.406-2.981l.914-1.644c2.179.894 4.339 1.852 6.479 2.876l-.987 1.749zm-.73-43.274c-.344-.771-.846-1.836-1.506-3.196-.187-.479-.356-.864-.516-1.158l1.156-.542c.074.117.191.321.352.614.885 1.707 1.467 2.918 1.743 3.636l-1.229.646zm6.77 8.705c-.424-.508-1.085-1.235-1.979-2.183-.199-.161-.337-.299-.411-.416l1.2 8.541-1.727.243-1.2-8.541c-.396 2.202-1.002 4.149-1.82 5.841-.11-.363-.333-.9-.667-1.61-.102-.301-.189-.509-.264-.625 1.039-1.787 1.762-4.161 2.169-7.122l-2.851.401-.248-1.764 2.937-.413-1.147-8.169 1.728-.243 1.147 8.169 2.59-.364.248 1.764-2.591.364.365 2.6.76-.864c1.368 1.386 2.359 2.383 2.975 2.99l-1.214 1.401zm-1.302 17.62c-.324 1.876-.819 3.776-1.487 5.7l-1.37-1.606c.923-3.032 1.464-6.075 1.622-9.128l1.938.012c-.073 1.146-.188 2.205-.346 3.173l4.229-.594.248 1.764-.834 4.093c-.058.008-.177-.006-.357-.044-.362-.075-.842-.133-1.435-.177l.898-3.629-3.106.436zm.541-31.809c-.253 1.55-.558 3.141-.915 4.768l-1.359-.282c.416-1.635.721-3.225.915-4.768l1.359.282zm2.255 47.321c-.204.218-.384.4-.539.549l-1.431-1.409c.399-.497.543-1.148.43-1.954l-1.344-9.563 1.899-.267 1.356 9.655 1.397-1.333c.621-.592 1.062-1.001 1.324-1.228.1.303.219.727.354 1.276.175.417.276.718.303.904-1.048.905-2.122 1.813-3.227 2.726-.095.142-.269.355-.522.644zm-1.68-46.36l-.209-1.486 4.835-.679-.272-1.95 1.898-.267.273 1.95 5.354-.752.209 1.485-5.354.753.209 1.485 4.835-.679.194 1.393-4.835.679.223 1.579 5.698-.801.208 1.486-12.777 1.796-.208-1.486 5.18-.728-.222-1.579-4.403.619-.195-1.393 4.403-.619-.209-1.485-4.835.679zm3.055 18.6l-1.579-11.233 10.792-1.517 1.176 8.355c.3 1.724-.407 2.739-2.126 3.044l-1.122.158c-.684.158-1.227.267-1.628.324-.193-.541-.425-1.141-.692-1.796.583-.02 1.423-.105 2.518-.259.986-.077 1.391-.543 1.212-1.401l-.104-.743-7.167 1.007.535 3.807-1.815.254zm.429-10.096l.233 1.671 7.167-1.007-.234-1.671-7.166 1.007zm.431 3.063l.222 1.579 7.166-1.007-.222-1.578-7.166 1.006zm11.261 21.82c-.313-.146-.857-.258-1.632-.339-.125-.044-.216-.064-.271-.057l1.093-4.129-6.907.971c-.229 1.295-.681 3.094-1.354 5.397-.515-.306-1.166-.561-1.957-.766 1.104-2.996 1.793-6.247 2.062-9.757l2.038.092c-.091 1.023-.216 2.019-.372 2.987l8.115-1.141.287 2.043-1.102 4.699zm-4.188 4.659c-.19 3.246-1.866 6.353-5.029 9.322-.142-.169-.415-.447-.82-.831-.405-.385-.681-.662-.82-.832 3.437-2.691 5.132-6.085 5.084-10.182-.068-1.316-.214-2.777-.44-4.388l1.985-.279c.053.371.104.964.162 1.776l.183 1.3c1.408 4.599 3.926 7.685 7.552 9.258-.422.753-.792 1.468-1.106 2.144-3.195-1.823-5.443-4.253-6.751-7.288zm4.797-39.034l-.235-1.671 5.525-.776c-.216-.285-.626-.701-1.231-1.247-.54-.492-.912-.85-1.119-1.073l1.907-.836c.074.117.24.25.497.404 1.012.932 1.69 1.594 2.04 1.985l-1.229.646 4.921-.691c.893-1.577 1.493-2.733 1.801-3.472l2.164.358c-.138.272-.396.75-.769 1.433-.383.622-.642 1.069-.779 1.341l5.354-.753.234 1.671-8.547 1.201.287 2.042 7.511-1.056.248 1.764-7.511 1.055.285 2.043 9.066-1.274.234 1.671-20.203 2.84-.235-1.671 9.066-1.274-.287-2.042-7.339 1.031-.248-1.764 7.339-1.032-.287-2.042-8.46 1.189zm1.371 11.641l-.247-1.764 8.634-1.213c.03-.193.025-.444-.019-.754.014-.317.008-.569-.019-.755l2.072-.292c.069.496.081.999.036 1.51l8.893-1.25.248 1.764-8.375 1.177c1.282 2.03 4.42 2.849 9.415 2.464-.13.333-.271.795-.422 1.384-.13.333-.211.598-.241.792-5.056-.047-8.372-1.095-9.951-3.146-.73 2.312-3.672 4.365-8.817 6.163-.084-.177-.276-.498-.575-.96l-.675-1.042c5.103-1.285 7.851-3.027 8.245-5.229l-8.202 1.151zm6.001 21.421l2.764-.388.456 3.25-2.763.388-.457-3.25zm3.702 6.296l.443 3.156c.262 1.857-.418 3.088-2.033 3.694l-.196-1.393c.665-.283.951-.955.861-2.015l-1.382.194-.457-3.25 2.764-.386zm14.469-25.34l-2.557-18.196 2.33-.328c.021-.254.062-.607.115-1.058.134-.712.21-1.639.227-2.777l2.211.068c-.132 1.154-.291 2.313-.479 3.476l3.885-.546 2.532 18.011-1.898.267-.249-1.764-4.403.619.274 1.95-1.988.278zm-.284-16.433l.718 5.106 4.403-.619-.718-5.106-4.403.619zm1.005 7.148l.743 5.292 4.403-.619-.743-5.292-4.403.619zm1.708 32.156l-.3-2.135 15.109-2.124.301 2.135-15.11 2.124zm15.029 3.568c-1.2.23-2.749.481-4.649.748l-.492-1.635c-.104-.302-.19-.51-.266-.625 1.332-.125 2.805-.3 4.417-.526 2.031-.16 2.958-1.079 2.782-2.757-.133-2.19-.294-4.376-.482-6.56l-14.072 1.978-.65-10.891 2.159-.304.197 3.286 14.851-2.087.287 2.042-15.023 2.111.225 3.472 13.986-1.966c.15 1.493.352 3.96.6 7.396.038.69.079 1.188.123 1.498.338 2.853-.992 4.46-3.993 4.82zm-2.2-28.773l-3.626.509c-.154-.673-.403-1.396-.745-2.167.756-.044 1.883-.17 3.38-.381 1.628-.103 2.326-.989 2.093-2.661-.077-1.376-.399-4.298-.969-8.763-.126-1.308-.227-2.24-.305-2.797l-5.181.728c-.152.589-.413 1.447-.783 2.571l-.361 1.187c-.57-.298-1.198-.589-1.884-.872 1.008-2.854 1.689-5.728 2.047-8.619l2.051.186c-.062.387-.162.938-.296 1.651l-.283 1.744 6.39-.898c.557 3.962 1.093 8.62 1.611 13.975.374 2.661-.674 4.197-3.139 4.607zm-2.541-6.175c-.35-.392-.872-.981-1.568-1.768-.989-1.187-1.762-2.087-2.316-2.704l1.396-1.333c.489.563 1.216 1.344 2.18 2.345.82.832 1.442 1.501 1.867 2.01l-1.559 1.45zm21.144-12.344l-.274-1.95-6.389.898.272 1.95-2.072.291-.272-1.95-4.922.692-.261-1.857 4.922-.691-.326-2.321 2.072-.291.325 2.321 6.39-.898-.326-2.321 1.985-.279.325 2.321 5.009-.704.262 1.856-5.009.704.273 1.949-1.984.28zm7.582 5.088l-.24.791c-4.443-.701-7.878-2.173-10.308-4.421-1.865 2.598-4.807 5.063-8.821 7.394-.301-.462-.684-1.102-1.15-1.921 4.493-2.271 7.513-4.81 9.055-7.615l2.198-.025-.341.711c2.526 2.106 5.841 3.344 9.943 3.714-.081.264-.193.721-.336 1.372zm-12.63 6.603c-1.461 1.72-3.192 3.384-5.196 4.991-.425-.509-.901-.979-1.432-1.408 1.752-1.319 3.436-2.912 5.052-4.781l1.576 1.198zm-4.57-1.819l-.248-1.764 6.733-.947-.431-3.063 1.986-.279.431 3.064 6.475-.91.248 1.764-6.476.91.652 4.642c.31 1.786-.396 2.832-2.112 3.137l-2.849.4-.026-.186c-.136-.549-.338-1.153-.606-1.809.526-.012 1.31-.089 2.346-.235.985-.076 1.386-.573 1.197-1.494l-.587-4.178-6.733.948zm.676 21.127l-.6-4.271 9.236-1.298-1.288-2.28 2.192-.688c.449.694.892 1.548 1.328 2.559l-.16.117 8.202-1.153.601 4.271-1.984.279-.354-2.507-15.455 2.172.354 2.507-2.072.292zm3.118.887l-.234-1.671 13.814-1.942.233 1.671-5.524.776c-.155.149-.364.335-.626.562-.516.515-.933.888-1.251 1.123.937.815 1.671 1.658 2.205 2.53 2.104-1.305 4.05-2.714 5.833-4.228l1.271 1.525c-1.121.789-2.269 1.613-3.438 2.472 1.403 2.896 3.546 4.772 6.426 5.629-.333.553-.688 1.169-1.061 1.853-3.097-1.142-5.396-3.313-6.901-6.509-.107.079-.291.23-.552.456-.271.166-.483.321-.64.469.502 1.065.845 2.248 1.026 3.548.448 2.777-.444 4.354-2.681 4.731l-2.85.4-.416-1.078c-.109-.363-.207-.633-.29-.811.347-.049.811-.083 1.396-.102l1.122-.158c1.456-.079 2.033-.979 1.732-2.705-.078-.557-.182-1.078-.309-1.566-2.153 2.638-5.149 4.92-8.986 6.849-.316-.587-.696-1.197-1.137-1.828 3.832-1.548 6.976-3.821 9.431-6.817-.225-.347-.458-.755-.7-1.227-2.14 2.321-4.805 4.242-7.995 5.762-.084-.177-.271-.466-.562-.868-.225-.347-.408-.605-.549-.775 3.159-1.327 5.841-3.124 8.047-5.392-.084-.177-.264-.404-.536-.682l-.298-.242c-1.907 1.467-4.129 2.791-6.662 3.966-.093-.239-.281-.529-.563-.868-.232-.408-.422-.698-.562-.868 3.579-1.261 6.35-2.849 8.311-4.767l-5.524.782zm13.61-17.833c-2.279-1.194-4.416-2.187-6.404-2.981l.913-1.644c2.18.894 4.34 1.852 6.479 2.876l-.988 1.749zm7.632-5.05c-.466 1.707-1.041 3.46-1.727 5.26l-2.005-.476c.089-.202.194-.5.314-.896.686-1.8 1.161-3.224 1.425-4.271l1.993.383zm-2.088-1.695l-1.136-8.077 6.477-.91-1.005-7.148 2.071-.291.354 2.506 9.408-1.323.273 1.95-9.411 1.322.379 2.693 7.512-1.056 1.136 8.077-16.058 2.257zm1.212-6.418l.587 4.178 11.912-1.675-.588-4.178-11.911 1.675zm21.585 37.029c-.562 1.025-.931 1.74-1.107 2.144-5.466-2.134-8.997-5.962-10.594-11.481-.032 5.623-2.416 10.375-7.152 14.26-.142-.169-.382-.42-.722-.75-.481-.5-.797-.868-.946-1.098 5.081-3.933 7.412-9.057 6.995-15.374-.085-1.439-.288-3.304-.61-5.595l2.245-.315.37 3.262c1.724 8.089 5.613 13.002 11.668 14.739l-.147.208zm-17.121-24.687c-.27-.658-.709-1.699-1.32-3.128-.26-.594-.439-1.042-.541-1.344l1.86-.545.377.799c.762 1.661 1.277 2.85 1.556 3.568l-1.932.65zm5.411-.95c-.37-.958-1.103-2.401-2.193-4.331l1.847-.639c.074.117.154.262.238.44.926 1.574 1.597 2.805 2.016 3.693l-1.908.837zm6.07-.664c-.834-1.335-1.803-2.807-2.91-4.419l1.81-.917c.148.232.445.664.886 1.295 1.09 1.489 1.788 2.494 2.098 3.019l-1.884 1.022zm2.91-13.663l-.273-1.95 3.713-.522-.471-3.342c-.346.048-.889.157-1.627.323-.69.097-1.233.206-1.628.323-.034-.247-.141-.58-.315-.997-.118-.424-.221-.727-.303-.904 3.819-.789 6.61-1.403 8.369-1.839l.705 1.889c-1.085.216-2.193.467-3.328.751l.496 3.528 3.626-.51.274 1.95-3.627.509.431 3.063.573-.932c.265.216.658.508 1.18.875 1.109.791 1.928 1.402 2.459 1.832l-1.072 1.761-.994-.808c-.87-.76-1.533-1.299-1.987-1.614l1.291 9.191-1.899.267-1.396-9.934c-.502 2.28-1.342 4.449-2.521 6.507-.344-.771-.711-1.509-1.104-2.211 1.342-2.144 2.302-4.709 2.881-7.695l-3.453.489zm3.588 25.546l-.273-1.95 11.225-1.577c-.079-.557-.213-1.296-.398-2.216l-.224-1.579 2.072-.291c.147 1.053.354 2.317.621 3.794l7.167-1.007.272 1.95-7.079.995.104.743c.616 3.132 1.327 5.683 2.133 7.653.89-2.019 1.603-4.263 2.134-6.738l2.019.569c-.979 3.483-2.02 6.312-3.122 8.486.459.756.995 1.438 1.607 2.046.53.432.996.617 1.399.561.411.004.656-.344.733-1.05.041-.952.032-2.055-.025-3.31.562.237 1.201.399 1.918.488.03 1.889-.047 3.225-.229 4.008-.163 1.349-.819 2.104-1.971 2.266-1.258.239-2.47-.443-3.633-2.046-.274-.277-.586-.612-.935-1.005-.921 1.392-2.041 2.811-3.363 4.26-.681-.662-1.219-1.154-1.616-1.477l.146-.21c.515-.515.88-.85 1.093-1.005-1.596.35-3.94.995-7.035 1.935-1.185.356-2.029.601-2.538.736l-.62-1.901c1.412-.388 4.321-1.207 8.724-2.457.624-.15 1.075-.277 1.355-.38-.016.319.051.783.195 1.393l.077.558c1.143-1.486 1.947-2.641 2.419-3.465-1.104-2.432-2.052-5.612-2.838-9.542l-.063-.464c-.085-.177-.13-.297-.14-.359l-11.311 1.588zm2.704 9.845l-1.083-7.706 7.943-1.117 1.083 7.706-7.943 1.117zm1.064-6.209l.573 4.085 4.145-.583-.573-4.085-4.145.583zm4.964-17.943l-2.675-19.032 9.151-1.286 2.662 18.938-1.986.279-.272-1.95-5.269.741.287 2.042-1.898.268zm-.501-17.349l1.827 12.997 5.267-.74-1.827-12.998-5.267.741zm8.723 27.002c-.795-.646-1.715-1.336-2.757-2.074l1.238-1.215c.321.208.776.522 1.364.944.711.468 1.229.807 1.552 1.013l-1.397 1.332z"/></svg>