<svg xmlns="http://www.w3.org/2000/svg" width="640" height="644" viewBox="0 0 640 644"><path fill="#fff" d="M0 76.5l315.968-44.269 9.602 68.33-325.57 45.613z"/><path fill="#C8C8C8" d="M295.667 83.229l30.332 20.771-8.166-74-26.833 14.28z"/><path fill="#fff" d="M286.862 17.235l116.106-17.003 9.603 68.328-116.105 17.004z"/><path fill="#7B79B8" d="M313.531 35.206l-.522-3.713 6.476-.91c-.169-.501-.519-1.241-1.046-2.22-.154-.397-.294-.693-.418-.888l4.396-1.091c.696 1.48 1.206 2.671 1.528 3.572l5.757-.809.522 3.713-4.75.667 3.793.887-1.881 4.367 4.317-.606.521 3.713-6.763.951.456 3.249 6.188-.87.522 3.714-6.188.87 1.195 8.51c.502 2.874-.632 4.559-3.398 5.054-.656.196-1.801.411-3.432.64-.439-1.728-.916-3.027-1.429-3.902l1.438-.202 1.151-.162c1.261-.074 1.757-.72 1.488-1.945l-1.044-7.427-6.62.931-.521-3.714 6.62-.93-.457-3.25-7.482 1.052-.522-3.713 4.605-.647c-.958-1.231-1.953-2.408-2.99-3.524l2.517-1.932-4.027.565zm7.789 17.839c-.665 2.934-1.411 5.617-2.244 8.047l-3.339-.793c.818-2.534 1.564-5.215 2.244-8.047l3.339.793zm-1.253-16.233c.582.655 1.044 1.169 1.39 1.54l-1.984 1.541 4.029-.566c.363-.892.818-2.167 1.37-3.822l.603-1.978-7.339 1.031c.469.566 1.114 1.318 1.931 2.254zm11.146 20.839l-3.826-5.3 2.805-1.972c1.314 1.708 2.576 3.373 3.783 4.991.553-3.021.461-7.165-.279-12.426l-2.088-14.854c4.85-.997 9.237-2.139 13.166-3.428l1.859 3.841c-3.561 1.131-7.043 2.094-10.453 2.889l.937 6.653 11.224-1.578.588 4.178-3.598.506 2.675 19.032-3.886.546-2.676-19.032-3.74.526.064.464c1.322 8.019.912 14.495-1.231 19.423-.413-.154-1.047-.484-1.899-.995-.938-.396-1.619-.719-2.046-.975.147-.336.315-.888.502-1.648.431-1.111.739-2.049.927-2.813l-2.808 1.972zm23.249-21.101l-.631-4.487 2.878-.405-1.35-9.593 3.887-.546 1.348 9.593 2.446-.344.631 4.487-2.446.344 1.74 12.378 3.18-1.393c.121 1.561.338 3.108.651 4.642-.819.431-2.106 1.033-3.854 1.804-2.408.97-4.254 1.754-5.539 2.356l-1.351-4.386c1.013-.458 2.072-.922 3.181-1.394l-1.893-13.461-2.878.405zm10.659 2.762l-2-14.235 5.18-.729c-.236-.282-.531-.66-.893-1.137-.832-1.039-1.428-1.796-1.787-2.273l4.229-1.226 3.057 3.989 3.74-.526c.496-1.332 1.056-2.934 1.672-4.811l4.592.301c-.297.673-.79 1.689-1.479 3.048-.149.336-.258.615-.322.834l5.324-.748 2 14.235-23.313 3.278zm4.049 18.365l-2.305-16.401 20.289-2.852 2.306 16.401-4.028.566-.24-1.702-12.088 1.699.239 1.702-4.173.587zm-1.995-29.856l1.065 7.582 6.332-.89-1.065-7.582-6.332.89zm4.1 6.208c-.875-1.349-1.895-2.678-3.055-3.989l1.963-1.696c.564.551 1.396 1.593 2.492 3.121.346.373.58.656.706.848l-2.106 1.716zm.219 9.91l.392 2.785 12.089-1.699-.393-2.785-12.088 1.699zm.805 5.725l.393 2.785 12.088-1.699-.393-2.785-12.088 1.699zm10.993-24.108l-6.332.89 1.065 7.582 6.332-.89-1.065-7.582zm-1.585 5.429c-.475.804-.779 1.426-.912 1.864l-2.354-1.089c.146-.336.33-.781.545-1.339.756-1.578 1.275-2.755 1.559-3.532l2.498 1.069-1.336 3.027z"/><path fill="#343261" d="M36.453 105.827l-2.718-19.341 9.893-1.39c.167-.547.297-1.354.393-2.422.028-.661.085-1.128.169-1.405l7.457-.456-.645 3.246 16.908-2.376 2.718 19.341-34.175 4.803zm-1.693 7.535l-.707-5.029 39.572-5.562.707 5.029-16.548 2.326.353 2.514 14.57-2.048.652 4.642-14.57 2.048.354 2.514 18.347-2.578.707 5.028-43.349 6.092-.707-5.029 18.347-2.578-.354-2.515-14.569 2.048-.653-4.642 14.57-2.047-.353-2.515-16.369 2.302zm6.004-22.539l.326 2.321 21.405-3.008-.326-2.321-21.405 3.008zm.897 6.383l.354 2.514 21.405-3.008-.353-2.515-21.406 3.009zm39.636-5.374l-1.604-11.412 17.448-2.452-1.83-3.885 7.653-1.667c.155.243.33.613.523 1.11.19.5.654 1.619 1.389 3.355l16.009-2.25 1.604 11.411-6.476.91-.815-5.802-28.24 3.969.815 5.802-6.476.911zm8.186.822l-.707-5.029 25.542-3.59.707 5.029-7.555 1.062c-.323.311-.88.715-1.663 1.22-.305.438-1.123 1.144-2.454 2.12 1.297 1.396 2.396 2.689 3.296 3.875 4.145-2.684 7.965-5.523 11.46-8.514l3.999 4.96-5.986 4.392c2.439 5.18 6.108 8.677 11.011 10.483-.305.438-.695 1.152-1.167 2.137-1.104 1.733-1.89 3.091-2.362 4.079-5.803-2.997-9.928-7.545-12.373-13.645l-1.69 1.026c1.028 2.093 1.732 4.49 2.112 7.198.934 5.786-1.106 9.096-6.125 9.934l-6.475.91c-.248-.887-.789-2.126-1.623-3.717-.212-.629-.396-1.063-.55-1.303-4.166 2.558-7.624 4.489-10.375 5.797-.991-1.833-2.085-3.522-3.279-5.061 7.864-3.207 14.484-7.426 19.866-12.654l-.757-1.472c-4.704 3.95-10.259 7.491-16.666 10.626-.837-1.589-1.938-3.342-3.307-5.255 6.856-2.542 12.484-5.567 16.883-9.079l-.91-1.253c-3.02 2.002-7.47 4.273-13.35 6.807-.175-.37-.496-.917-.964-1.64-.855-1.719-1.576-2.934-2.163-3.641 6.929-2.025 12.409-4.373 16.436-7.043l-8.811 1.241zm15.849 17.495l-.19-1.354c-2.606 2.338-5.249 4.42-7.927 6.242.855.012 1.876-.131 3.058-.43l1.619-.228c2.914-.143 4.06-1.555 3.44-4.23zm23.986-30.588l-1.006-7.157 42.81-6.016 1.005 7.156-19.426 2.73 1.414 10.058 2.82-4.735c2.79 1.58 6.44 3.631 10.953 6.152 2.255 1.261 3.978 2.202 5.166 2.824l-3.779 7.04c-4.171-2.699-9.117-5.687-14.833-8.96l3.316 23.596-7.555 1.062-5.056-35.975-15.829 2.225zm61.754-5.919c-1.125 3.314-2.413 6.324-3.867 9.025-2.017-1.295-4.085-2.514-6.202-3.665 2.927-5.274 4.905-11.208 5.937-17.796l7.331-.044c-.133.808-.43 2.165-.896 4.07-.066.404-.151.681-.251.824l25.362-3.564 1.005 7.156-14.21 1.997 1.387 9.864 17.088-2.402 1.005 7.156-17.088 2.402 2.311 16.44-7.195 1.011-2.311-16.44-19.247 2.705-1.005-7.156 19.246-2.705-1.386-9.864-7.014.986zm65.107-8.164l-.489-3.481-12.051 1.694.489 3.481-6.476.91-.489-3.481-8.454 1.188-.815-5.802 8.454-1.188-.598-4.255 6.476-.91.598 4.255 12.051-1.693-.598-4.255 6.655-.935.598 4.255 8.274-1.163.815 5.802-8.274 1.163.489 3.481-6.655.934zm-3.554 33.437c-.943.262-3.092.632-6.448 1.104-.789-2.126-1.542-3.993-2.254-5.6l4.497-.632c1.935-.139 2.699-1.233 2.291-3.28l-.761-5.416-7.555 1.062 4.583 3.893c-2.025 2.127-4.946 4.837-8.762 8.134-.871.779-1.465 1.322-1.788 1.632-1.748-1.992-3.183-3.498-4.304-4.523 4.157-3.475 7.46-6.503 9.912-9.085l-5.576.784-.734-5.222-3.075 1.615-3.263-6.247c8.786-3.602 14.781-7.927 17.986-12.981l7.429-.65-.862 1.699c4.879 3.392 11.357 5.11 19.434 5.158l-1.567 7.124-3.374-.512.761 5.416-12.771 1.795 1.033 7.35c.733 4.363-.875 6.826-4.832 7.382zm15.062-22.037c-6.765-1.151-12.367-3.587-16.801-7.303-2.99 3.971-7.642 7.848-13.958 11.626l12.231-1.719-.761-5.416 6.476-.91.761 5.416 12.052-1.694zm4.686 17.684c-4.818-2.084-9.231-3.896-13.237-5.437l3.098-5.366c1.684.685 3.947 1.55 6.785 2.597 2.718 1.066 4.85 1.882 6.398 2.454l-3.044 5.752z"/></svg>