<?xml version="1.0" encoding="utf-8"?>
<!-- Generator: Adobe Illustrator 16.0.0, SVG Export Plug-In . SVG Version: 6.00 Build 0)  -->
<!DOCTYPE svg PUBLIC "-//W3C//DTD SVG 1.1//EN" "http://www.w3.org/Graphics/SVG/1.1/DTD/svg11.dtd">
<svg version="1.1" id="图层_1" xmlns="http://www.w3.org/2000/svg" xmlns:xlink="http://www.w3.org/1999/xlink" x="0px" y="0px"
	 width="640px" height="462px" viewBox="0 0 640 462" enable-background="new 0 0 640 462" xml:space="preserve">
<polygon fill="#E74B92" stroke="#FFA8CF" stroke-miterlimit="10" points="-2.775,109 641.225,16 641.225,165 -2.775,256 "/>
<polygon fill="#FE149D" points="118.442,238.191 -2.775,255.582 -2.775,109.5 263.059,71.167 "/>
<polygon fill="#FC0397" points="512.319,182.625 601.269,22.312 641.772,16.417 642.774,164.331 "/>
<polygon fill="#FC0397" points="-2.775,109.5 -2.775,255.582 170.439,231.001 52.385,101.583 "/>
<polyline fill="#FE149D" points="557.225,28.833 641.772,16.417 642.774,130.833 "/>
<path fill="#FFFFFF" d="M47.31,135.357c-1.015,1.974-2.101,3.641-3.259,5.002c-0.423-0.509-0.855-1.078-1.297-1.711
	c1.753-2.14,3.016-4.431,3.788-6.875l2.284-0.037c-0.032,0.194-0.142,0.462-0.328,0.803c-0.12,0.396-0.226,0.694-0.314,0.896
	l14.246-2.002l0.248,1.764L47.31,135.357L47.31,135.357z M43.646,145.624l-0.248-1.764l2.936-0.412l0.067-5.785l14.418-2.026
	l0.623,5.688l2.85-0.4l0.248,1.764l-2.936,0.413c0.061,0.434,0.123,1.088,0.188,1.962c0.122,0.867,0.184,1.521,0.188,1.961
	l2.331-0.328l0.248,1.764l-2.504,0.352c0.255,2.236-0.769,3.517-3.07,3.84c-1.152,0.162-2.331,0.328-3.54,0.498
	c-0.437-1.013-0.671-1.643-0.706-1.889c0.354,0.013,1.481-0.113,3.38-0.38c1.332-0.125,1.981-0.721,1.95-1.789l-13.814,1.941
	l0.067-5.785L43.646,145.624z M50.907,175.385c0.409,2.91,0.185,5.496-0.67,7.763c-0.19-0.101-0.484-0.311-0.881-0.633
	c-0.341-0.331-0.605-0.547-0.795-0.646c0.801-1.816,0.885-4.763,0.254-8.84l-1.54-10.955l6.13-0.861l2.583,18.382
	c0.209,1.485-0.316,2.348-1.573,2.588c-0.567,0.142-1.253,0.271-2.059,0.384c-0.009-0.063-0.018-0.125-0.026-0.186
	c-0.136-0.549-0.338-1.152-0.606-1.808c0.469-0.004,0.991-0.045,1.567-0.126c0.699-0.036,0.971-0.389,0.819-1.062l-0.613-4.363
	L50.907,175.385L50.907,175.385z M59.908,147.314l-0.375-3.924l-11.138,1.565l-0.056,3.984l6.821-0.959
	c-0.587-0.422-1.494-1.021-2.718-1.795c-0.19-0.099-0.347-0.171-0.471-0.218l1.013-1.563c1.149,0.66,2.236,1.295,3.262,1.909
	l-1,1.655L59.908,147.314z M48.462,139.172l-0.057,3.984l10.965-1.541c-0.068-1.316-0.193-2.624-0.375-3.923L48.462,139.172z
	 M49.349,163.676l0.574,4.085l2.504-0.352l-0.574-4.085L49.349,163.676z M50.171,169.524l0.574,4.085l2.504-0.352l-0.574-4.085
	L50.171,169.524z M51.228,193.918l-0.248-1.764l4.058-0.57l-0.366-2.599l1.727-0.243l0.365,2.599l3.281-0.461l0.248,1.764
	l-3.281,0.461l0.287,2.042l0.56-1.025c0.437,0.191,1.061,0.451,1.87,0.778c0.562,0.238,0.999,0.428,1.313,0.573l-0.741,1.619
	c-0.941-0.436-1.913-0.867-2.911-1.295l0.43,3.063l-1.727,0.243l-0.509-3.621c-0.771,1.623-1.907,3.141-3.411,4.55
	c-0.525-0.81-0.925-1.353-1.198-1.63c1.916-1.405,3.266-3.077,4.049-5.019L51.228,193.918z M54.782,142.165
	c-1.034-0.674-2.121-1.312-3.262-1.908l0.927-1.55c0.38,0.199,0.951,0.498,1.711,0.896c0.702,0.407,1.244,0.709,1.624,0.908
	L54.782,142.165z M69.601,200.614c-2.119,4.969-7.026,8.687-14.72,11.157c-0.093-0.24-0.354-0.645-0.787-1.215
	c-0.216-0.286-0.367-0.516-0.45-0.694c6.998-1.992,11.506-4.993,13.526-9.001l-8.72,1.226c-1.026,1.47-2.345,2.949-3.955,4.437
	c-0.548-0.553-1.054-1.019-1.517-1.396c2.567-2.19,4.423-4.439,5.567-6.747l1.952,0.104c-0.267,0.605-0.543,1.15-0.827,1.631
	l9.67-1.359L69.601,200.614L69.601,200.614z M57.694,166.668c-0.18,1.225-0.352,2.511-0.514,3.859
	c-0.611-0.166-1.246-0.298-1.905-0.395c0.645-2.931,0.906-5.87,0.786-8.82l1.852,0.023c-0.016,1.139-0.041,2.216-0.074,3.229
	l2.59-0.364l-0.692-4.92l1.986-0.279l0.692,4.92l4.662-0.655l0.287,2.042l-4.663,0.655l0.692,4.92l4.058-0.57l0.274,1.949
	l-4.058,0.57l0.757,5.385l5.007-0.704l0.261,1.856l-12.433,1.748l-0.261-1.857l5.439-0.764l-0.757-5.385l-4.317,0.607l-0.274-1.95
	l4.317-0.607l-0.691-4.92L57.694,166.668L57.694,166.668z M61.36,206.506c-0.703-0.406-1.662-0.965-2.877-1.679
	c-0.637-0.351-1.116-0.631-1.438-0.839l1.211-1.401c0.942,0.436,2.305,1.16,4.091,2.17c-0.125-0.044,0.004,0.032,0.384,0.23
	L61.36,206.506z M61.416,192.486l-0.248-1.764l3.108-0.437l-0.366-2.599l1.813-0.255l0.365,2.599l4.317-0.606l0.248,1.764
	l-4.058,0.57c1.336,1.58,3.107,2.688,5.31,3.325c-0.081,0.265-0.234,0.634-0.461,1.106c-0.072,0.327-0.152,0.589-0.241,0.791
	c-2.056-0.847-3.587-1.925-4.593-3.236l0.535,3.806l-1.813,0.255L64.797,194c-0.606,1.538-1.661,3.011-3.165,4.421
	c-0.142-0.169-0.423-0.509-0.847-1.017c-0.208-0.222-0.35-0.392-0.424-0.509c1.761-1.256,3.061-2.859,3.903-4.809L61.416,192.486z
	 M65.783,132.758l-0.287-2.042l18.045-2.536l0.287,2.042l-7.943,1.116c0.183,1.3,0.373,3.072,0.571,5.316l9.325-1.31l0.3,2.135
	l-8.893,1.25c1.604,4.319,5.036,6.804,10.292,7.453c-0.041,0.131-0.129,0.333-0.267,0.605c-0.21,0.598-0.419,1.195-0.629,1.792
	c-5.376-1.076-8.872-3.612-10.491-7.614c-0.324,3.959-2.859,7.438-7.601,10.44c-0.142-0.169-0.419-0.478-0.834-0.924
	c-0.35-0.393-0.626-0.702-0.834-0.924c5.057-2.855,7.563-6.332,7.515-10.429l-8.72,1.226l-0.3-2.135l8.979-1.262
	c-0.021-0.565-0.118-1.466-0.292-2.705c-0.1-1.122-0.192-1.992-0.279-2.611L65.783,132.758z M72.863,174.949
	c-0.417,0.375-0.748,0.737-0.992,1.086l-1.41-1.884c0.391-0.56,0.53-1.242,0.417-2.047L69.3,160.87l1.9-0.267l1.657,11.791
	l2.209-1.825l-1.853-13.183l1.986-0.279l3.092,22.002l-1.986,0.279l-0.913-6.499c-0.483,0.321-1.171,0.86-2.063,1.615
	C73.125,174.723,72.97,174.872,72.863,174.949L72.863,174.949z M73.892,190.446l-0.3-2.135l18.044-2.536l0.3,2.135l-7.857,1.104
	l2.036,14.483l9.065-1.274l0.287,2.042l-20.376,2.864l-0.287-2.042l8.979-1.262l-2.036-14.483L73.892,190.446z M79.287,165.525
	c-0.339,0.933-0.715,1.805-1.128,2.62c-0.076-0.115-0.25-0.311-0.523-0.589c-0.473-0.438-0.812-0.769-1.02-0.993
	c1.614-3.129,2.692-6.532,3.232-10.205h2.025c-0.221,1.356-0.502,2.69-0.847,4l8.116-1.141l0.287,2.042l-2.072,0.291
	c0.165,4.521-0.421,8.075-1.759,10.661c1.599,1.354,3.61,2.302,6.034,2.844c-0.414,0.815-0.75,1.556-1.008,2.224
	c-2.477-0.915-4.505-1.985-6.087-3.215c-0.823,1.252-2.354,2.887-4.593,4.906c-0.499-0.625-1.018-1.182-1.556-1.675
	c2.021-1.482,3.561-3.057,4.619-4.72C81.612,171.006,80.372,168.655,79.287,165.525L79.287,165.525z M80.39,162.72
	c0.906,3.534,2.128,6.171,3.665,7.911c1.054-2.104,1.521-5.042,1.403-8.812l-5.094,0.716L80.39,162.72L80.39,162.72z M87.63,130.917
	l-0.248-1.764l3.367-0.473l-0.405-2.878l1.813-0.255l0.404,2.878l2.849-0.4l0.248,1.764l-2.849,0.4l0.352,2.506l1.209-0.17
	c1.115-1.671,2.03-3.504,2.749-5.499l1.685,0.71c-0.704,1.677-1.434,3.169-2.189,4.473l2.417-0.34l0.248,1.764l-3.972,0.558
	c-0.578,0.902-1.246,1.785-2.005,2.648l5.094-0.716l1.5,10.676l-1.813,0.255l-0.183-1.3l-5.094,0.716l0.183,1.299l-1.813,0.255
	l-1.122-7.984l-1.484,1.345c-0.084-0.178-0.209-0.444-0.376-0.799c-0.242-0.47-0.434-0.791-0.575-0.96
	c2.013-1.545,3.771-3.243,5.271-5.096l-5.526,0.776l-0.248-1.764l4.23-0.595l-0.353-2.506L87.63,130.917z M93.889,176.731
	l-2.557-18.196l2.331-0.328c0.022-0.254,0.061-0.607,0.115-1.058c0.134-0.712,0.21-1.639,0.226-2.777l2.211,0.068
	c-0.132,1.155-0.292,2.313-0.48,3.476l3.885-0.546l2.531,18.01l-1.899,0.267l-0.248-1.764l-4.403,0.619l0.274,1.95L93.889,176.731z
	 M91.728,138.767l0.326,2.321l5.094-0.716l-0.326-2.321L91.728,138.767z M92.275,142.666l0.326,2.321l5.094-0.716l-0.326-2.321
	L92.275,142.666z M93.604,160.299l0.718,5.106l4.403-0.619l-0.718-5.106L93.604,160.299z M94.609,167.447l0.744,5.292l4.403-0.619
	l-0.744-5.292L94.609,167.447z M100.958,199.421c-0.218,1.798-0.829,3.714-1.833,5.749c-0.199-0.162-0.687-0.504-1.465-1.025
	c-0.323-0.208-0.55-0.365-0.683-0.472c1-1.655,1.568-3.25,1.705-4.784c0.146-1.472,0.005-3.724-0.421-6.757l-1.083-7.705l17.786-2.5
	l0.326,2.321l-15.541,2.184l0.757,5.384C100.966,195.098,101.116,197.633,100.958,199.421L100.958,199.421z M102.098,146.776
	l-2.949-20.981l7.425-1.043l0.287,2.042l-1.245,6.802c2.018,1.42,3.147,3.188,3.386,5.299c0.414,2.531-0.406,4.002-2.461,4.417
	c-0.69,0.097-1.353,0.19-1.985,0.279c-0.093-0.238-0.203-0.602-0.33-1.089c-0.186-0.479-0.32-0.807-0.402-0.985
	c0.518-0.073,1.123-0.158,1.813-0.255c1.218-0.107,1.697-0.869,1.44-2.285c-0.209-1.485-1.35-3.124-3.42-4.916l1.206-7.081
	l-3.54,0.498l2.675,19.032L102.098,146.776z M109.145,174.398c-1.152,0.162-2.361,0.332-3.626,0.51
	c-0.154-0.674-0.402-1.396-0.745-2.167c0.756-0.044,1.883-0.17,3.38-0.38c1.628-0.103,2.326-0.99,2.091-2.661
	c-0.077-1.377-0.399-4.299-0.968-8.763c-0.126-1.308-0.227-2.24-0.305-2.797l-5.181,0.728c-0.152,0.589-0.413,1.447-0.783,2.572
	c-0.161,0.528-0.281,0.924-0.361,1.187c-0.57-0.298-1.198-0.589-1.883-0.871c1.007-2.854,1.689-5.729,2.046-8.619l2.051,0.185
	c-0.063,0.388-0.162,0.938-0.296,1.651c-0.126,0.775-0.221,1.356-0.283,1.744l6.389-0.898c0.557,3.961,1.093,8.62,1.612,13.974
	C112.657,172.452,111.61,173.988,109.145,174.398L109.145,174.398z M106.604,168.223c-0.35-0.392-0.873-0.98-1.569-1.768
	c-0.989-1.186-1.761-2.086-2.317-2.704l1.397-1.333c0.489,0.563,1.215,1.344,2.179,2.345c0.821,0.831,1.443,1.501,1.867,2.01
	L106.604,168.223z M110.24,136.453l-0.248-1.764l20.462-2.876l0.248,1.764l-8.979,1.262l0.313,2.228l7.425-1.043l0.248,1.764
	l-7.425,1.043l0.326,2.321c2.992-0.42,6.043-0.85,9.152-1.286c-0.077,0.705-0.159,1.378-0.244,2.022
	c-3.972,0.558-6.883,0.935-8.733,1.133c-3.454,0.485-5.933-0.24-7.437-2.174c-0.385,1.441-1.37,3-2.953,4.675l-1.431-1.409
	c2.142-1.878,3.115-4.35,2.92-7.416l1.938,0.012c-0.023,0.256-0.029,0.636-0.016,1.138c-0.055,0.45-0.068,0.767-0.042,0.953
	c1.19,1.79,2.81,2.667,4.86,2.631l-0.887-6.313L110.24,136.453z M112.42,132.549l-1.227-8.727l15.023-2.111l1.226,8.727
	L112.42,132.549z M116.125,158.93c-1.15-1.921-2.251-3.691-3.3-5.312l1.708-0.998c0.515,0.749,1.29,1.871,2.322,3.366
	c0.524,0.811,0.899,1.388,1.124,1.735L116.125,158.93z M113.428,125.307l0.261,1.857l10.965-1.541l-0.261-1.857L113.428,125.307z
	 M113.897,128.649l0.274,1.95l10.965-1.541l-0.274-1.95L113.897,128.649z M117.69,170.07c-0.132,1.155-0.244,2.022-0.338,2.604
	l-2.203-0.637c0.572-2.604,1.05-5.89,1.432-9.858c0.305,0.084,0.849,0.197,1.632,0.339c0.247,0.092,0.4,0.133,0.458,0.125
	C118.477,164.185,118.149,166.661,117.69,170.07L117.69,170.07z M119.974,200.066l-2.57-18.289l6.994-0.983l2.335,16.618
	l-5.094,0.716l0.235,1.671L119.974,200.066z M123.947,158.209c0.076,4.723-1.18,8.939-3.77,12.647
	c-0.257-0.153-0.634-0.541-1.132-1.167c-0.199-0.161-0.336-0.299-0.411-0.416c2.322-3.103,3.452-6.764,3.387-10.984l-3.108,0.437
	l-0.287-2.042l5.007-0.704L123.947,158.209L123.947,158.209z M119.577,183.46l0.757,5.385l3.281-0.461L122.858,183L119.577,183.46z
	 M121.364,196.179l3.281-0.461l-0.77-5.478l-3.281,0.461L121.364,196.179z M134.992,167.26c-0.228,0.474-0.409,0.847-0.547,1.118
	c-3.198-2.706-5.563-5.75-7.094-9.133l1.317,9.376c0.402,2.026-0.376,3.177-2.332,3.452c-0.51,0.134-1.398,0.291-2.664,0.469
	c-0.07-0.496-0.29-1.222-0.659-2.179c0.229-0.032,0.604-0.085,1.123-0.158c0.527-0.012,0.933-0.037,1.222-0.077
	c1.045-0.085,1.464-0.646,1.259-1.692l-2.557-18.196l1.985-0.279l0.548,3.899c0.571,1.562,1.208,2.955,1.908,4.182
	c1.091-1.415,2.204-2.897,3.337-4.445l1.603,1.384c-0.049,0.07-0.123,0.175-0.22,0.315c-1.599,1.992-2.854,3.494-3.769,4.506
	c1.648,2.546,3.682,4.689,6.099,6.433C135.462,166.436,135.276,166.779,134.992,167.26L134.992,167.26z M130.394,193.395
	c0.038,2.772-0.819,5.448-2.569,8.029c-0.266-0.215-0.717-0.5-1.353-0.851c-0.323-0.208-0.55-0.365-0.683-0.472
	c1.288-1.696,2.057-3.318,2.31-4.869c0.26-1.488,0.173-3.779-0.262-6.875l-1.188-8.448l9.411-1.322l2.505,17.825
	c0.393,1.964-0.413,3.119-2.418,3.464c-0.403,0.057-0.946,0.164-1.627,0.324c-0.576,0.081-1.036,0.146-1.381,0.194
	c-0.102-0.302-0.253-0.754-0.455-1.356c-0.11-0.363-0.212-0.666-0.303-0.904c0.583-0.02,1.481-0.113,2.69-0.283
	c1.101-0.093,1.554-0.628,1.358-1.611l-0.509-3.621L130.394,193.395L130.394,193.395z M128.996,181.568l0.561,3.992l5.267-0.74
	l-0.561-3.992L128.996,181.568z M129.936,188.252c0.174,1.239,0.296,2.325,0.37,3.262l5.353-0.752l-0.561-3.992l-5.267,0.74
	L129.936,188.252z M132.689,128.94l-1.096-7.798l9.756-1.371l1.096,7.798L132.689,128.94z M138.375,141.206
	c-0.093-0.24-0.208-0.634-0.342-1.183c-0.177-0.417-0.277-0.719-0.303-0.904c0.287-0.041,0.695-0.066,1.222-0.077
	c0.518-0.073,0.892-0.125,1.123-0.158c1.283-0.054,1.83-0.761,1.638-2.124c-0.061-0.432-0.132-1.148-0.214-2.147
	c-0.139-0.989-0.21-1.706-0.213-2.147l-3.626,0.51c0.38,3.544-0.625,6.62-3.017,9.229c-0.73-0.593-1.288-1.019-1.676-1.279
	c2.139-2.32,3.069-4.881,2.794-7.682l-3.194,0.449l-0.261-1.856l3.281-0.461l-0.201-2.055l1.899-0.267l0.201,2.054l5.525-0.776
	c0.046,0.751,0.176,2.091,0.389,4.016c0.116,1.247,0.213,2.147,0.292,2.705c0.37,2.22-0.514,3.448-2.652,3.686L138.375,141.206z
	 M133.767,122.825l0.561,3.992l5.871-0.825L139.638,122L133.767,122.825z M137.35,169.584l-0.287-2.042l8.116-1.141l-2.61-18.567
	l2.245-0.315l0.939,6.684l8.547-1.201l0.313,2.228l-8.547,1.202l1.357,9.655l10.188-1.432l0.287,2.042L137.35,169.584z
	 M144.234,190.405c-0.428,1.134-1.103,2.396-2.021,3.787l-1.737-1.082c1.402-1.711,2.354-3.706,2.856-5.987l1.938,0.012
	c0.009,0.062-0.008,0.159-0.047,0.291c-0.094,0.581-0.215,0.977-0.361,1.187l5.008-0.704l-0.274-1.949l1.986-0.279l0.274,1.95
	l7.943-1.117l0.235,1.671l-7.943,1.116l0.3,2.135l7.252-1.019l0.222,1.578l-7.252,1.019l0.3,2.135l8.807-1.237l0.235,1.671
	l-20.29,2.852l-0.235-1.671l9.497-1.334l-0.3-2.135l-6.648,0.934l-0.222-1.578l6.648-0.934l-0.3-2.135L144.234,190.405
	L144.234,190.405z M142.033,186.644l-1.239-8.82l16.404-2.305l1.239,8.819L142.033,186.644z M143.113,179.297l0.261,1.856
	l12.26-1.723l-0.261-1.856L143.113,179.297z M143.609,182.825l0.261,1.856l12.26-1.723l-0.261-1.856L143.609,182.825z
	 M145.859,134.947l-1.983-14.111l1.899-0.267l1.983,14.111L145.859,134.947z M150.13,139.648c-1.036,0.146-2.13,0.299-3.281,0.461
	c-0.163-0.734-0.381-1.461-0.659-2.179c0.872-0.061,1.826-0.162,2.862-0.308c1.217-0.109,1.723-0.683,1.518-1.728l-2.531-18.011
	l1.986-0.279l2.609,18.567C153.028,138.136,152.193,139.295,150.13,139.648L150.13,139.648z M154.79,134.542l-0.248-1.764
	l2.763-0.388l-2.061-14.668l15.368-2.16l2.062,14.668l2.763-0.388l0.248,1.764L154.79,134.542z M163.797,135.359
	c-2.926,1.736-5.271,3.013-7.034,3.829c-0.142-0.169-0.329-0.459-0.563-0.868c-0.292-0.401-0.507-0.686-0.648-0.855
	c2.551-1.054,4.91-2.236,7.073-3.55L163.797,135.359L163.797,135.359z M160.473,149.954c-0.756-0.777-1.833-1.762-3.233-2.954
	l1.398-1.333c1.325,1.077,2.422,1.995,3.292,2.756L160.473,149.954z M157.391,119.219l0.287,2.042l11.569-1.626l-0.287-2.042
	L157.391,119.219z M160.73,156.166c-1.02-0.993-2.126-1.974-3.319-2.942l1.385-1.425c1.126,0.916,2.256,1.86,3.392,2.837
	L160.73,156.166z M157.887,122.747l0.3,2.135l11.569-1.626l-0.3-2.135L157.887,122.747z M158.396,126.367l0.3,2.135l11.57-1.626
	l-0.3-2.135L158.396,126.367z M158.904,129.988l0.3,2.135l11.569-1.625l-0.3-2.135L158.904,129.988z M161.699,166.822
	c0.039-0.133,0.033,0.026-0.021,0.476l-2.077-0.371c0.437-3.153,0.789-6.075,1.057-8.764c0.182,0.038,0.515,0.117,1.002,0.238
	c0.42,0.068,0.754,0.147,1.002,0.238C162.459,160.121,162.138,162.848,161.699,166.822L161.699,166.822z M161.948,182.336
	l-0.3-2.135l8.807-1.238c-0.085-1.439-0.31-3.459-0.675-6.059l2.245-0.315l0.675,6.059l8.979-1.262l0.3,2.135l-8.893,1.25
	c1.521,5.404,5.132,8.746,10.83,10.028c-0.325,0.614-0.71,1.425-1.155,2.435c-5.091-1.557-8.538-4.575-10.341-9.055
	c-0.189,4.509-2.657,8.453-7.405,11.833c-0.142-0.169-0.419-0.478-0.834-0.924c-0.406-0.385-0.713-0.69-0.92-0.912
	c5.267-3.453,7.708-7.805,7.322-13.052L161.948,182.336z M162.568,151.079l-0.548-3.899l6.476-0.91l-0.831-2.155l2.046-0.477
	l0.857,2.341l6.389-0.898l0.548,3.899l-1.813,0.255l-0.3-2.135l-11.311,1.59l0.3,2.135L162.568,151.079z M169.054,164.652
	c-1.894,1.149-3.274,1.975-4.143,2.476c-0.358-0.456-0.728-1.002-1.111-1.643c2.313-1.083,4.251-2.112,5.817-3.089l1.146,1.259
	C170.386,163.897,169.816,164.229,169.054,164.652L169.054,164.652z M164.883,151.89l-0.222-1.579l10.706-1.504l0.222,1.578
	l-4.49,0.631l0.248,1.764l5.612-0.789l1.227,8.727l-13.124,1.844l-1.227-8.727l5.612-0.789l-0.248-1.764L164.883,151.89z
	 M165.97,155.24l0.274,1.949l3.713-0.521l-0.274-1.95L165.97,155.24z M166.453,158.675l0.274,1.95l3.712-0.521l-0.274-1.95
	L166.453,158.675z M175.127,136.418c-1.938-0.423-4.592-0.933-7.963-1.532l0.667-1.514c0.84,0.135,2.097,0.306,3.77,0.512
	c1.911,0.236,3.258,0.425,4.042,0.568L175.127,136.418z M175.381,153.917l-3.799,0.534l0.274,1.95l3.799-0.534L175.381,153.917z
	 M172.065,157.886l0.274,1.95l3.799-0.534l-0.274-1.95L172.065,157.886z M179.404,164.997c-2.384-0.675-4.517-1.228-6.396-1.657
	l0.667-1.514c0.124,0.046,0.333,0.08,0.63,0.101c2.587,0.458,4.492,0.851,5.713,1.185L179.404,164.997z M176.021,125.882
	l-0.339-2.414l20.98-2.949l0.339,2.414L176.021,125.882z M181.888,152.622l-1.148-8.17l2.072-0.291l0.861,6.127l5.267-0.74
	l-1.161-8.262l2.158-0.304l1.162,8.263l5.267-0.74l-0.861-6.127l2.072-0.292l1.148,8.17l-7.339,1.031l1.227,8.727l5.958-0.837
	l-0.861-6.127l1.986-0.279l1.253,8.913l-1.986,0.279l-0.131-0.929l-16.145,2.269l-1.122-7.984l2.072-0.291l0.861,6.127l5.958-0.837
	l-1.227-8.727L181.888,152.622z M188.643,189.374c-0.849,1.066-1.625,2.217-2.332,3.452l-1.276-2.188
	c0.514-0.513,1.24-1.405,2.178-2.673c0.106-0.077,0.184-0.151,0.233-0.222l-1.005-7.148l-2.504,0.352l-0.287-2.042l4.403-0.619
	l1.292,9.191c1.146,1.48,2.757,2.074,4.829,1.783c3.346-0.408,7.29-0.962,11.829-1.663c-0.055,0.449-0.161,1.159-0.317,2.127
	c-3.281,0.461-5.642,0.793-7.08,0.995c-1.727,0.243-3.257,0.425-4.589,0.55C191.819,191.515,190.028,190.883,188.643,189.374
	L188.643,189.374z M187.208,176.037c-1.205-1.471-2.334-2.827-3.389-4.068l1.51-1.159c1.161,1.162,2.311,2.453,3.449,3.87
	L187.208,176.037z M194.15,187.842c-1.569-2.809-3.239-5.509-5.012-8.1c1.102-3.436,1.893-6.576,2.374-9.422l2.004,0.476
	c-0.032,0.194-0.083,0.454-0.155,0.779c-1.001,3.738-1.75,6.337-2.25,7.795c0.225,0.347,0.595,0.896,1.111,1.643
	c1.507,2.377,2.716,4.29,3.624,5.739L194.15,187.842z M198.713,187.106c-1.71-2.979-3.382-5.679-5.012-8.1
	c1.021-3.173,1.829-6.189,2.426-9.051l1.978,0.29c-0.84,3.211-1.646,6.039-2.417,8.481c0.365,0.517,0.891,1.328,1.574,2.43
	c1.341,2.021,2.39,3.641,3.148,4.859L198.713,187.106z M197.683,117.155l-0.274-1.95l2.59-0.364l-0.613-4.363l1.9-0.267l0.613,4.363
	l2.332-0.328l0.274,1.95l-2.331,0.328l0.313,2.228l0.146-0.21c0.389,0.262,0.977,0.684,1.763,1.267
	c0.711,0.468,1.228,0.807,1.551,1.013c1.697-0.869,3.126-1.765,4.289-2.686c-0.977-0.682-1.901-1.626-2.775-2.829
	c-0.463,0.886-1.036,1.818-1.72,2.798c-0.424-0.509-0.873-0.981-1.344-1.421c1.522-2.107,2.64-4.599,3.352-7.477l2.124,0.08
	c-0.09,0.202-0.189,0.533-0.301,0.989c-0.169,0.466-0.294,0.831-0.375,1.094l7.425-1.043l0.274,1.95
	c-0.824,2.073-1.947,3.904-3.366,5.491c1.551,0.603,3.423,0.972,5.614,1.104c-0.032,0.194-0.099,0.551-0.202,1.07
	c-0.103,0.52-0.2,0.88-0.289,1.082c-2.811-0.362-5.008-0.967-6.595-1.818c-1.637,1.304-3.714,2.604-6.23,3.905
	c-0.075-0.115-0.159-0.292-0.251-0.533c-0.15-0.23-0.263-0.404-0.337-0.521l-0.267,0.605c-0.133-0.107-0.365-0.295-0.695-0.565
	c-0.208-0.222-0.705-0.625-1.491-1.21l1.618,11.512l-1.899,0.267l-1.618-11.512c-0.321,2.317-0.852,4.38-1.595,6.188
	c-0.177-0.416-0.45-1.104-0.818-2.063c-0.092-0.238-0.147-0.42-0.165-0.545c0.864-2.204,1.519-4.853,1.965-7.944L197.683,117.155z
	 M203.363,186.358c-1.486-2.631-3.181-5.295-5.086-7.995c0.717-1.994,1.47-4.782,2.258-8.364c0.071-0.325,0.127-0.554,0.167-0.687
	l2.004,0.476c-0.752,3.01-1.57,5.744-2.457,8.203c2.112,2.922,3.71,5.317,4.795,7.184L203.363,186.358z M208.388,172.017
	c-1.069-0.922-2.091-1.726-3.068-2.409l1.099-1.575c1.033,0.676,2.081,1.444,3.142,2.304L208.388,172.017z M208.817,178.204
	c-0.125-0.044-0.29-0.18-0.497-0.403c-1.233-0.835-2.177-1.493-2.83-1.969l1-1.656c1.281,0.767,2.419,1.554,3.413,2.361
	L208.817,178.204z M209.224,156.643c0.305,2.166-0.218,3.88-1.566,5.143l-0.894-0.726c0.923-0.951,1.299-2.234,1.131-3.852
	l-1.468,0.207l-0.431-3.064l2.849-0.4C208.916,154.446,209.042,155.343,209.224,156.643L209.224,156.643z M208.202,131.865
	l-1.239-8.819l10.792-1.517l1.24,8.82l-1.899,0.267l-0.183-1.299l-6.994,0.983l0.183,1.299L208.202,131.865z M210.543,181.086
	c-0.314,3.201-0.56,6.043-0.738,8.529l-1.905-0.395c0.362-3.27,0.58-6.108,0.652-8.518c0.247,0.092,0.791,0.206,1.632,0.338
	C209.524,180.945,209.645,180.961,210.543,181.086L210.543,181.086z M211.731,116.884c1.07-1.159,2.01-2.616,2.819-4.372
	l-6.13,0.861c-0.049,0.071-0.069,0.137-0.061,0.198C209.383,115.006,210.507,116.11,211.731,116.884L211.731,116.884z
	 M209.123,124.635l0.561,3.992l6.994-0.983l-0.561-3.992L209.123,124.635z M209.865,173.134l-0.274-1.95l3.367-0.473
	c-0.401-0.763-0.882-1.895-1.445-3.395l1.86-0.545c0.109,0.363,0.332,0.9,0.667,1.61c0.351,0.835,0.624,1.522,0.818,2.063
	l-0.086,0.012l2.158-0.303l0.274,1.949l-4.058,0.57l0.383,3.354l3.885-0.546c0.122,0.867,0.275,2.171,0.461,3.911
	c0.316,2.67,0.528,4.597,0.636,5.78c0.252,1.794-0.428,2.806-2.039,3.032c-0.509,0.133-1.053,0.242-1.627,0.323l-0.619-1.901
	c0.575-0.081,1.006-0.141,1.295-0.182c0.987-0.077,1.386-0.574,1.199-1.494c-0.052-0.371-0.106-0.963-0.162-1.776
	c-0.25-2.616-0.453-4.48-0.61-5.595l-2.245,0.315c0.026,0.186,0.048,0.341,0.065,0.464c0.519,4.535,0.156,8.214-1.09,11.041
	l-1.663-1.187c1.16-2.182,1.497-5.417,1.013-9.704c-0.111-1.625-0.314-3.49-0.61-5.595L209.865,173.134z M218.875,180.862
	l-0.261-1.857l3.54-0.498l-0.183-1.3l1.966-2.927l-4.835,0.679l-0.196-1.393l-0.474,1.014c-0.464-0.376-1.019-0.771-1.664-1.187
	c1.094-2.236,1.853-4.772,2.276-7.609l2.025-0.001c-0.206,1.04-0.417,2.047-0.632,3.024l5.439-0.765l0.261,1.857l-6.217,0.874
	c-0.241,0.791-0.54,1.591-0.896,2.398l6.734-0.946l0.274,1.949l-2.172,3.335l0.104,0.743l3.281-0.461l0.261,1.857l-3.281,0.461
	l0.639,4.549c0.292,1.663-0.396,2.612-2.065,2.847c-0.798,0.174-1.541,0.311-2.232,0.408c-0.026-0.186-0.119-0.426-0.277-0.718
	c-0.136-0.549-0.251-0.944-0.342-1.183c0.69-0.097,1.352-0.19,1.986-0.279c0.872-0.061,1.222-0.488,1.052-1.284l-0.574-4.085
	L218.875,180.862z M222.502,129.57l-2.557-18.196l2.331-0.328c0.022-0.254,0.061-0.607,0.115-1.058
	c0.134-0.712,0.21-1.639,0.226-2.777l2.211,0.068c-0.132,1.155-0.292,2.313-0.48,3.476l3.886-0.546l2.531,18.01l-1.899,0.267
	l-0.248-1.764l-4.403,0.619l0.274,1.95L222.502,129.57z M222.217,113.137l0.718,5.106l4.403-0.619l-0.718-5.106L222.217,113.137z
	 M223.222,120.286l0.744,5.292l4.403-0.619l-0.744-5.292L223.222,120.286z M226.682,140.554c-0.946-0.876-2.005-1.738-3.18-2.583
	l1.199-1.494c1.033,0.676,2.113,1.471,3.241,2.385L226.682,140.554z M227.099,146.648c-1.069-0.922-2.187-1.775-3.353-2.558
	l1.186-1.587c1.033,0.676,2.147,1.497,3.34,2.466L227.099,146.648z M228.434,151.763c-0.291,2.944-0.474,4.989-0.546,6.136
	l-1.991-0.383c0.319-2.317,0.599-5.133,0.837-8.449c0.677,0.222,1.311,0.353,1.905,0.395
	C228.583,149.912,228.515,150.679,228.434,151.763L228.434,151.763z M246.435,153.304c-0.388,1.001-0.671,1.704-0.848,2.107
	c-1.573-1.168-2.817-2.286-3.729-3.357c-0.681,1.421-1.666,2.98-2.953,4.675c-0.358-0.456-0.843-0.986-1.457-1.594
	c1.486-1.534,2.553-3.135,3.199-4.805c-1.001-1.689-1.86-3.84-2.58-6.454c-0.049,0.07-0.09,0.202-0.121,0.396
	c-0.202,0.66-0.37,1.126-0.508,1.397c-0.332-0.269-0.704-0.626-1.119-1.074l0.039,0.279l-6.907,0.971l-1.161-8.263l2.159-0.303
	c0.022-0.254,0.061-0.608,0.115-1.058c-0.013-0.502-0.002-0.852,0.029-1.045l1.913-0.174c-0.086,0.644-0.167,1.318-0.244,2.022
	l2.936-0.413l1.07,7.613c1.104-2.996,1.747-6.367,1.924-10.116l1.865,0.117c-0.154,1.41-0.321,2.728-0.501,3.952l4.49-0.631
	l0.261,1.857l-0.95,0.133c0.29,4.567,0.048,8.073-0.723,10.516C243.696,151.354,244.962,152.438,246.435,153.304L246.435,153.304z
	 M229.157,149.389l-0.209-1.485l3.626-0.51l-0.654-1.517l1.787-0.441c0.158,0.294,0.347,0.804,0.567,1.53
	c0.009,0.063,0.017,0.125,0.026,0.186l3.108-0.437l0.208,1.485l-5.267,0.74c0.078,0.557,0.123,1.088,0.135,1.59l4.663-0.655
	c0.11,1.626,0.228,2.872,0.349,3.738c0.186,1.74-0.532,2.693-2.151,2.858c-0.395,0.118-0.966,0.23-1.714,0.335
	c-0.026-0.186-0.123-0.456-0.29-0.811c-0.119-0.426-0.221-0.727-0.303-0.904c0.115-0.016,0.345-0.048,0.691-0.097
	c0.354,0.013,0.617,0.008,0.79-0.016c0.92-0.129,1.329-0.565,1.225-1.308l-0.188-1.962l-2.936,0.413
	c0.021,1.828-0.598,3.682-1.859,5.563c-0.398-0.323-0.92-0.692-1.564-1.105c1.182-1.617,1.728-3.367,1.64-5.248
	c-0.021-0.565-0.092-1.28-0.213-2.147L229.157,149.389z M237.758,127.236c-1.152,0.162-2.361,0.332-3.626,0.51
	c-0.154-0.673-0.403-1.396-0.745-2.167c0.756-0.044,1.883-0.17,3.38-0.38c1.628-0.103,2.326-0.99,2.091-2.661
	c-0.077-1.377-0.399-4.299-0.968-8.763c-0.126-1.308-0.227-2.24-0.305-2.797l-5.181,0.728c-0.152,0.59-0.413,1.447-0.783,2.572
	c-0.161,0.528-0.281,0.924-0.361,1.187c-0.57-0.299-1.198-0.589-1.883-0.872c1.007-2.854,1.689-5.729,2.046-8.619l2.051,0.185
	c-0.064,0.388-0.163,0.938-0.296,1.651c-0.126,0.775-0.221,1.356-0.283,1.744l6.389-0.898c0.557,3.961,1.093,8.62,1.612,13.974
	C241.27,125.29,240.223,126.827,237.758,127.236L237.758,127.236z M230.225,138.825l0.274,1.95l3.54-0.498l-0.274-1.95
	L230.225,138.825z M230.695,142.167l0.274,1.95l3.54-0.498l-0.274-1.95L230.695,142.167z M235.217,121.062
	c-0.35-0.392-0.873-0.981-1.569-1.768c-0.989-1.187-1.761-2.087-2.317-2.704l1.397-1.333c0.489,0.563,1.215,1.344,2.179,2.345
	c0.821,0.831,1.443,1.501,1.867,2.01L235.217,121.062z M235.337,182.056c0.305,2.166-0.218,3.88-1.566,5.143l-0.894-0.726
	c0.923-0.951,1.299-2.234,1.131-3.851l-1.468,0.206l-0.431-3.063l2.849-0.4C235.029,179.86,235.155,180.757,235.337,182.056
	L235.337,182.056z M238.97,140.909c0.665,3.063,1.469,5.443,2.412,7.14c0.46-2.147,0.543-4.905,0.247-8.271l-2.504,0.352
	L238.97,140.909L238.97,140.909z M247.03,116.187c-0.712,1.615-1.758,3.15-3.138,4.606c-0.151-0.23-0.404-0.573-0.761-1.029
	c-0.159-0.292-0.309-0.524-0.45-0.694c1.486-1.535,2.7-3.345,3.639-5.435c-0.312-0.965-0.706-1.889-1.182-2.769
	c-0.333,0.553-1.006,1.405-2.018,2.556c0.768-0.802,0.719-0.731-0.146,0.21c-0.075-0.115-0.188-0.289-0.337-0.521
	c-0.15-0.23-0.437-0.602-0.86-1.11c0.048-0.069,0.126-0.144,0.233-0.222c0.962-1.082,1.661-1.968,2.091-2.661
	c-1.072-1.364-2.035-2.365-2.887-3.002l1.298-1.413c1.002,0.869,1.889,1.755,2.662,2.655c0.52-0.893,0.97-1.872,1.349-2.935
	l1.724,0.988c-0.583,1.282-1.208,2.475-1.875,3.577c1.557,2.306,2.671,6.063,3.345,11.269c0.535,3.395-0.405,5.264-2.822,5.604
	c-0.634,0.089-1.381,0.194-2.245,0.316c-0.009-0.063-0.018-0.125-0.026-0.186c-0.136-0.549-0.338-1.152-0.606-1.808
	c0.633-0.089,1.324-0.186,2.072-0.291c1.58-0.033,2.151-1.186,1.715-3.46C247.577,118.824,247.319,117.409,247.03,116.187
	L247.03,116.187z M247.643,138.741c0.045,1.572,0.047,3.465,0.006,5.679c-0.181-0.037-0.42-0.066-0.717-0.088
	c-0.297-0.021-0.531-0.02-0.704,0.004c0.035-1.835,0.031-3.948-0.011-6.342l1.408-0.008
	C247.651,138.171,247.657,138.424,247.643,138.741L247.643,138.741z M252.062,140.108c-0.265-0.214-0.654-0.476-1.167-0.783
	c-0.257-0.153-0.451-0.283-0.583-0.392l2.218,15.782l-1.899,0.267l-3.118-22.188l1.899-0.267l0.574,4.085
	c0.817,0.391,1.715,0.927,2.692,1.61L252.062,140.108z M249.297,107.253l-0.3-2.136l12.347-1.735l0.3,2.135l-5.267,0.74l0.874,6.22
	l4.921-0.692l0.274,1.95l-4.921,0.691l1.018,7.242l5.785-0.813l0.261,1.856l-13.555,1.905l-0.261-1.857l5.698-0.801l-1.018-7.241
	l-4.835,0.679l-0.274-1.949l4.835-0.68l-0.875-6.22L249.297,107.253z M250.365,166.214l-0.248-1.764l3.367-0.473l-0.405-2.878
	l1.813-0.255l0.404,2.878l2.849-0.4l0.248,1.764l-2.849,0.4l0.352,2.507l1.209-0.17c1.114-1.671,2.03-3.504,2.749-5.499l1.685,0.71
	c-0.704,1.677-1.434,3.169-2.189,4.473l2.417-0.34l0.248,1.764l-3.972,0.558c-0.578,0.902-1.246,1.784-2.005,2.648l5.094-0.716
	l1.5,10.676l-1.813,0.255l-0.183-1.3l-5.094,0.716l0.183,1.3l-1.813,0.255l-1.122-7.984l-1.484,1.345
	c-0.084-0.177-0.209-0.444-0.376-0.799c-0.242-0.471-0.435-0.791-0.575-0.961c2.013-1.544,3.771-3.243,5.271-5.096l-5.526,0.777
	l-0.248-1.764l4.23-0.594l-0.353-2.507L250.365,166.214z M252.026,135.474l-0.208-1.485l5.698-0.801l-0.248-1.764l1.899-0.267
	l0.248,1.764l6.13-0.862l0.208,1.485l-6.13,0.862l0.222,1.578l5.526-0.777l0.196,1.393l-5.526,0.777l0.222,1.578l6.476-0.91
	l0.208,1.485l-14.591,2.051l-0.208-1.485l6.216-0.874l-0.222-1.579l-5.094,0.716l-0.196-1.393l5.094-0.716l-0.222-1.578
	L252.026,135.474z M255.366,154.223l-1.592-11.326l12.001-1.687l1.187,8.448c0.309,1.787-0.457,2.81-2.298,3.068
	c-0.231,0.033-0.634,0.089-1.209,0.17c-0.798,0.174-1.398,0.291-1.8,0.348c-0.194-0.541-0.424-1.14-0.693-1.796
	c0.699-0.036,1.654-0.138,2.862-0.308c0.987-0.077,1.39-0.543,1.212-1.401l-0.104-0.743l-8.202,1.153l0.535,3.807L255.366,154.223z
	 M254.462,174.064l0.326,2.321l5.094-0.716l-0.326-2.321L254.462,174.064z M255.01,177.963l0.326,2.321l5.094-0.716l-0.326-2.321
	L255.01,177.963z M255.882,144.115l0.235,1.671l8.202-1.153l-0.235-1.671L255.882,144.115z M256.3,147.086l0.235,1.671l8.202-1.153
	l-0.235-1.671L256.3,147.086z M264.832,182.074l-2.949-20.981l7.425-1.043l0.287,2.042l-1.245,6.802
	c2.018,1.42,3.147,3.188,3.386,5.299c0.414,2.531-0.406,4.002-2.461,4.417c-0.69,0.097-1.353,0.19-1.985,0.279
	c-0.093-0.238-0.203-0.602-0.33-1.09c-0.186-0.479-0.32-0.807-0.402-0.985c0.518-0.073,1.123-0.158,1.813-0.255
	c1.218-0.107,1.697-0.869,1.44-2.285c-0.209-1.485-1.35-3.124-3.42-4.916l1.206-7.081l-3.54,0.498l2.675,19.032L264.832,182.074z
	 M272.361,119.156L269.893,116c-0.831,2.453-1.88,4.588-3.15,6.407c-0.066-0.054-0.17-0.166-0.311-0.335
	c-0.45-0.694-0.808-1.148-1.072-1.364c1.359-2.021,2.371-4.215,3.037-6.581l-4.275-5.363l1.324-1.228l3.489,4.149
	c0.372-1.946,0.475-4.138,0.308-6.576l-5.439,0.764l-0.287-2.042l7.425-1.043l0.287,2.042c0.043,3.655-0.189,6.591-0.699,8.808
	l3.303,4.08L272.361,119.156z M271.272,152.087l-2.91-20.703l18.563-2.609l2.91,20.703l-2.072,0.292l-0.209-1.485l-14.418,2.026
	l0.209,1.485L271.272,152.087z M283.425,142.711c-1.776,0.313-2.766-0.463-2.968-2.328l-1.188-8.448l-2.936,0.413l0.6,4.271
	c0.66,3.443-0.239,6.44-2.698,8.994c-0.531-0.43-1.089-0.855-1.676-1.279c2.213-2.205,3.03-4.749,2.449-7.634
	c-0.174-1.237-0.365-2.6-0.574-4.085l-3.712,0.521l2.166,15.411l14.418-2.026l-2.166-15.411l-3.885,0.546l1.083,7.706
	c0.081,0.999,0.606,1.398,1.577,1.198l2.245-0.315c0.035,0.248,0.025,0.597-0.029,1.045c0.003,0.442-0.007,0.791-0.029,1.045
	L283.425,142.711z M278.724,113.055c-0.164,3.431-1.884,6.639-5.163,9.625c-0.54-0.492-1.115-1.043-1.729-1.65
	c3.6-2.778,5.324-6.176,5.17-10.194c-0.01-1.324-0.128-2.79-0.354-4.4l1.986-0.279c0.043,0.31,0.079,0.779,0.109,1.404
	c0.087,0.62,0.148,1.053,0.183,1.3c1.426,4.723,3.989,7.929,7.69,9.617c-0.081,0.263-0.263,0.636-0.547,1.118
	c-0.228,0.473-0.414,0.815-0.561,1.025C282.27,118.867,280.007,116.346,278.724,113.055L278.724,113.055z M283.011,108.476
	c-0.363-0.075-0.907-0.188-1.632-0.338c-0.181-0.037-0.302-0.052-0.358-0.044l1.032-3.932l-7.08,0.995
	c-0.126,0.775-0.381,1.885-0.765,3.326c-0.193,0.722-0.32,1.276-0.382,1.663c-0.76-0.397-1.417-0.684-1.97-0.859
	c0.892-2.838,1.514-5.924,1.869-9.256l2.038,0.092c-0.092,1.023-0.244,2.022-0.459,3l8.461-1.189l0.287,2.042L283.011,108.476z
	 M292.853,163.458c-0.454,0.949-0.762,1.686-0.922,2.212c-4.506-1.575-7.876-3.626-10.109-6.153
	c-1.952,3.242-4.756,6.254-8.414,9.041c-0.566-0.678-1.059-1.271-1.483-1.78c4.119-2.851,7.066-6.105,8.841-9.763l2.457-0.061
	l-0.5,0.828C285.203,160.401,288.58,162.293,292.853,163.458L292.853,163.458z M273.542,173.273l-0.287-2.042l19.599-2.754
	l0.287,2.042l-10.447,1.468c-1.293,2.075-2.457,3.817-3.492,5.224c1.2-0.23,3.407-0.604,6.622-1.12
	c1.028-0.207,1.8-0.348,2.318-0.42c-0.689-0.723-1.489-1.4-2.398-2.03l1.298-1.414c0.653,0.477,1.672,1.249,3.055,2.316
	c1.25,0.96,2.202,1.679,2.856,2.155l-1.444,1.623l-1.504-1.303c-4.925,0.881-8.409,1.561-10.455,2.037
	c-0.173,0.024-0.428,0.091-0.764,0.202c-0.691,0.097-1.23,0.235-1.614,0.416l-1.323-1.896c0.656-0.344,1.204-0.832,1.644-1.462
	c0.994-1.276,1.865-2.596,2.612-3.964L273.542,173.273z M276.994,167.77l-0.274-1.949l11.311-1.59l0.274,1.95L276.994,167.77z
	 M285.719,103.266l-0.287-2.042l5.525-0.777l-0.378-2.692l2.072-0.291l0.378,2.692l5.439-0.765l-0.378-2.692l2.072-0.291
	l0.378,2.692l5.525-0.777l0.287,2.042l-5.526,0.777l0.313,2.228l-2.072,0.291l-0.313-2.228l-5.439,0.765l0.313,2.228l-2.072,0.291
	l-0.313-2.228L285.719,103.266z M302.16,115.629c-0.453,0.127-1.541,0.311-3.268,0.554c-0.162-0.734-0.386-1.492-0.671-2.272
	c0.173-0.024,0.518-0.073,1.036-0.146c0.814-0.051,1.451-0.109,1.913-0.174c1.801-0.126,2.551-1.053,2.25-2.778
	c-0.094-1.501-0.223-2.84-0.388-4.017l-8.116,1.141l1.631,11.605l-2.159,0.303l-1.631-11.604l-5.18,0.728l-0.287-2.042l17.7-2.488
	c0.293,2.926,0.478,5.078,0.555,6.455C305.954,113.803,304.824,115.381,302.16,115.629L302.16,115.629z M291.059,141.919
	l-0.248-1.764l1.554-0.218l-1.5-10.676l2.763-0.388c0.013-0.317,0.034-0.793,0.063-1.429c-0.021-0.565-0.024-1.005-0.01-1.324
	l2.012-0.094c-0.06,0.83-0.144,1.693-0.252,2.592l3.885-0.546l2.362,16.804c0.283,1.601-0.41,2.519-2.079,2.754
	c-0.567,0.142-1.426,0.295-2.577,0.457c-0.221-0.726-0.455-1.356-0.706-1.889c0.115-0.016,0.402-0.057,0.863-0.122
	c0.814-0.052,1.365-0.097,1.654-0.138c0.747-0.105,1.07-0.529,0.966-1.271l-0.548-3.899l-0.086,0.012
	c-1.305,2.834-3.455,5.281-6.452,7.344c-0.517-0.749-0.887-1.295-1.111-1.643c2.393-1.345,4.252-3.154,5.577-5.423L291.059,141.919z
	 M292.913,130.677l0.287,2.042l4.835-0.679l-0.287-2.042L292.913,130.677z M293.588,159.951l-0.248-1.764l4.058-0.57l-0.365-2.6
	l1.899-0.267l0.365,2.6l3.54-0.498l-0.378-2.692l1.813-0.255l0.378,2.692l3.626-0.51l-0.366-2.599l1.899-0.267l0.366,2.6
	l3.971-0.558l0.248,1.764l-3.972,0.558l0.339,2.414l-1.899,0.267l-0.339-2.414l-3.626,0.51l0.339,2.414l-1.813,0.255l-0.339-2.414
	l-3.54,0.498l0.339,2.414l-1.899,0.267l-0.339-2.414L293.588,159.951z M293.408,134.205l0.287,2.042l4.835-0.679l-0.287-2.042
	L293.408,134.205z M293.891,137.64l0.287,2.042l4.835-0.679l-0.287-2.042L293.891,137.64z M295.349,167.467l-0.587-4.178
	l19.513-2.742l0.587,4.178l-1.985,0.279l-0.326-2.321l-15.541,2.184l0.326,2.321L295.349,167.467z M298.595,175.531l-1.096-7.798
	l6.648-0.934l-0.287-2.042l2.072-0.291l0.287,2.042l6.734-0.946l0.718,5.106c0.292,1.663-0.396,2.612-2.065,2.847
	c-0.453,0.125-1.282,0.275-2.491,0.445c-0.102-0.303-0.236-0.63-0.403-0.985c-0.101-0.301-0.194-0.541-0.277-0.719
	c0.527-0.01,1.25-0.081,2.171-0.21c0.872-0.059,1.218-0.517,1.039-1.377l-0.43-3.063l-4.749,0.667l1.096,7.798l-2.072,0.291
	l-1.096-7.798l-4.663,0.655l0.848,6.035L298.595,175.531z M300.583,132.628l-0.287-2.042l6.13-0.861l-0.705-5.013l1.9-0.267
	l0.705,5.013l2.245-0.315l0.287,2.042l-2.245,0.315l1.631,11.604c0.393,1.964-0.446,3.092-2.518,3.384
	c-0.682,0.158-1.714,0.335-3.095,0.529c-0.221-0.726-0.459-1.388-0.719-1.981c0.92-0.129,1.841-0.259,2.763-0.389
	c1.274-0.117,1.813-0.665,1.618-1.647l-1.579-11.233L300.583,132.628z M304.627,140.107c-0.626-1.11-1.712-2.789-3.26-5.033
	l1.536-0.973c1.265,1.905,2.376,3.548,3.334,4.928L304.627,140.107z M314.914,145.664l-2.557-18.196l2.331-0.328
	c0.022-0.254,0.06-0.607,0.115-1.058c0.134-0.712,0.21-1.639,0.226-2.777l2.211,0.068c-0.132,1.155-0.292,2.313-0.48,3.476
	l3.887-0.546l2.53,18.01l-1.899,0.267l-0.248-1.764l-4.402,0.619l0.274,1.949L314.914,145.664z M315.728,112.59
	c0.305,2.166-0.218,3.88-1.566,5.143l-0.894-0.726c0.923-0.951,1.299-2.234,1.131-3.852l-1.468,0.207l-0.431-3.064l2.849-0.4
	C315.419,110.394,315.545,111.29,315.728,112.59L315.728,112.59z M314.629,129.231l0.718,5.106l4.403-0.619l-0.718-5.106
	L314.629,129.231z M315.634,136.38l0.744,5.292l4.403-0.619l-0.744-5.292L315.634,136.38z M319.728,167.353
	c-0.567,0.143-1.101,0.313-1.601,0.509l-0.779-1.784c0.417-0.374,0.876-1.07,1.38-2.087c0.528-0.832,1.03-1.849,1.508-3.052
	c-1.316,0.249-2.454,0.503-3.415,0.764l-0.779-1.784c0.408-0.436,0.761-1.054,1.06-1.853c0.961-2.343,1.667-4.431,2.114-6.261
	l2.163,0.358c-1.203,3.137-2.239,5.585-3.105,7.348l2.75-0.481c0.139-0.271,0.287-0.67,0.449-1.199
	c0.217-0.535,0.365-0.935,0.446-1.199l1.918,0.488c-1.278,3.02-2.563,5.789-3.852,8.304l4.006-0.941
	c0.009,0.062,0.018,0.125,0.024,0.186c-0.045,0.512-0.023,1.077,0.063,1.695c-0.74,0.167-1.705,0.398-2.896,0.691
	C320.501,167.213,320.016,167.312,319.728,167.353L319.728,167.353z M323.782,171.138c-2.357,0.772-4.205,1.41-5.542,1.915
	l-0.62-1.901c0.394-0.117,1.043-0.303,1.947-0.558c2.308-0.703,4.078-1.267,5.309-1.693c0.028,0.628,0.093,1.282,0.188,1.962
	C324.775,170.903,324.348,170.995,323.782,171.138L323.782,171.138z M330.17,143.331c-1.152,0.162-2.359,0.332-3.626,0.51
	c-0.153-0.674-0.403-1.396-0.745-2.167c0.756-0.044,1.883-0.17,3.381-0.38c1.629-0.103,2.325-0.99,2.092-2.661
	c-0.076-1.377-0.399-4.299-0.969-8.763c-0.125-1.308-0.227-2.24-0.305-2.797l-5.182,0.728c-0.151,0.589-0.412,1.447-0.782,2.572
	c-0.161,0.528-0.281,0.924-0.361,1.187c-0.569-0.298-1.198-0.589-1.884-0.871c1.008-2.854,1.689-5.729,2.047-8.619l2.051,0.185
	c-0.062,0.388-0.162,0.938-0.296,1.651c-0.126,0.775-0.221,1.356-0.282,1.744l6.389-0.898c0.558,3.961,1.094,8.62,1.611,13.974
	C333.684,141.384,332.636,142.92,330.17,143.331L330.17,143.331z M337.083,156.771c-0.269,0.606-0.521,1.304-0.763,2.095
	c-2.909-1.484-5.209-3.434-6.896-5.847c-0.848,2.329-2.059,4.36-3.634,6.096l8.634-1.213l0.262,1.856l-8.807,1.238l-0.248-1.764
	c-0.4,0.499-0.833,0.969-1.299,1.413c-0.523-0.81-0.934-1.415-1.225-1.816c2.56-2.253,4.305-5.085,5.233-8.498l2.024-0.001
	l-0.241,0.792C332.014,153.697,334.332,155.582,337.083,156.771L337.083,156.771z M327.629,137.155
	c-0.35-0.392-0.872-0.981-1.568-1.768c-0.99-1.186-1.762-2.086-2.316-2.704l1.396-1.333c0.489,0.563,1.215,1.344,2.18,2.345
	c0.82,0.831,1.443,1.501,1.867,2.01L327.629,137.155z M326.736,173.373l-1.344-9.563l10.619-1.492l1.346,9.562l-1.899,0.267
	l-0.183-1.3l-6.821,0.959l0.183,1.299L326.736,173.373z M327.555,165.4l0.651,4.642l6.821-0.958l-0.652-4.642L327.555,165.4z
	 M329.779,96.695l-0.247-1.764l4.058-0.57l-0.365-2.6l1.899-0.267l0.364,2.599l3.541-0.498l-0.379-2.692l1.812-0.254l0.378,2.692
	l3.627-0.509l-0.364-2.6l1.898-0.267l0.365,2.6l3.972-0.558l0.248,1.764l-3.972,0.558l0.339,2.414l-1.899,0.267l-0.339-2.414
	l-3.627,0.51l0.34,2.414l-1.812,0.255l-0.339-2.414l-3.541,0.498l0.34,2.414l-1.899,0.267l-0.339-2.414L329.779,96.695z
	 M331.54,104.211l-0.587-4.178l19.513-2.742l0.587,4.178l-1.984,0.279l-0.326-2.321l-15.541,2.185l0.326,2.321L331.54,104.211z
	 M333.811,124.08l-0.287-2.042l20.461-2.875l0.287,2.042l-9.323,1.311l-0.247,3.253l7.943-1.117l2.19,15.597l-2.071,0.291
	l-0.223-1.578l-12.087,1.699l0.222,1.578l-2.072,0.292l-2.19-15.597l6.043-0.849l0.161-3.242L333.811,124.08z M334.787,112.275
	l-1.098-7.798l6.648-0.935l-0.287-2.042l2.072-0.291l0.287,2.042l6.734-0.947l0.717,5.106c0.291,1.663-0.396,2.612-2.064,2.846
	c-0.453,0.126-1.281,0.275-2.49,0.445c-0.103-0.302-0.236-0.63-0.402-0.985c-0.103-0.301-0.194-0.541-0.277-0.718
	c0.527-0.011,1.251-0.081,2.172-0.211c0.872-0.059,1.219-0.517,1.039-1.376l-0.431-3.064l-4.748,0.667l1.096,7.798l-2.071,0.292
	l-1.097-7.798l-4.662,0.655l0.849,6.034L334.787,112.275z M340.688,155.505c-0.472,0.823-0.976,1.621-1.513,2.39
	c-0.159-0.293-0.422-0.698-0.786-1.215c-0.217-0.285-0.367-0.517-0.451-0.694c1.72-2.386,2.951-4.896,3.697-7.525l2.004,0.476
	c-0.41,1.257-0.887,2.46-1.43,3.609l1.355,9.655l-1.898,0.267L340.688,155.505L340.688,155.505z M338.758,128.591l0.588,4.178
	l12.088-1.699l-0.588-4.178L338.758,128.591z M339.605,134.625l0.588,4.178l12.087-1.699l-0.587-4.178L339.605,134.625z
	 M343.282,163.944c-0.421,2.016-0.894,3.881-1.415,5.595l-1.93-0.581c0.637-1.73,1.088-3.529,1.354-5.397L343.282,163.944
	L343.282,163.944z M347.329,152.015c-0.429,1.134-0.995,2.317-1.702,3.553c-0.134-0.107-0.355-0.234-0.67-0.379
	c-0.455-0.314-0.812-0.548-1.066-0.702c1.243-2.005,2.193-4.221,2.852-6.649l2.037,0.092c-0.08,0.265-0.2,0.66-0.36,1.187
	c-0.179,0.404-0.282,0.703-0.313,0.896l9.41-1.322l0.274,1.949l-0.806,3.048c-0.313-0.145-0.857-0.258-1.631-0.338
	c-0.125-0.044-0.217-0.064-0.272-0.057l0.71-2.466L347.329,152.015L347.329,152.015z M348.055,169.711
	c-1.843,0.259-2.894-0.54-3.154-2.397l-0.547-3.899l1.985-0.279l0.47,3.342c0.131,0.928,0.685,1.324,1.664,1.186l3.625-0.509
	c1.283-0.055,1.908-0.615,1.877-1.684c0.086-0.642,0.104-1.34,0.059-2.091c0.247,0.092,0.645,0.193,1.188,0.307
	c0.362,0.076,0.635,0.132,0.815,0.169c0.012,0.504-0.032,1.235-0.132,2.196c-0.04,0.133-0.057,0.229-0.047,0.291
	c-0.129,1.595-1.117,2.491-2.969,2.689L348.055,169.711z M349.245,155.627c-1.081,1.919-2.158,3.649-3.231,5.188
	c-0.531-0.43-1.082-0.795-1.65-1.094c0.994-1.275,2.021-2.935,3.086-4.978L349.245,155.627L349.245,155.627z M350.913,165.618
	c-0.905-1.009-1.921-1.97-3.047-2.885l1.312-1.32c1.051,0.799,2.115,1.69,3.193,2.675L350.913,165.618z M350.979,161.064
	c-0.576,0.081-1.238,0.174-1.985,0.279c-0.194-0.541-0.425-1.139-0.693-1.796c0.411,0.006,0.991-0.045,1.74-0.15
	c0.92-0.129,1.295-0.592,1.125-1.389l-0.717-5.106l1.899-0.267l0.756,5.385C353.402,159.746,352.695,160.761,350.979,161.064
	L350.979,161.064z M355.422,98.683c-0.518,1.336-1.102,2.616-1.749,3.844c-0.177-0.416-0.364-0.927-0.567-1.53
	c-0.186-0.479-0.323-0.838-0.414-1.078c1.529-3.307,2.607-7.12,3.233-11.437l2.15,0.266c-0.364,2.008-0.777,3.865-1.242,5.571
	l2.297,16.339l-1.985,0.279L355.422,98.683L355.422,98.683z M358.1,159.117c-0.396-0.323-0.966-0.811-1.701-1.465
	c-1.078-0.985-1.949-1.746-2.61-2.284l1.212-1.401c1.456,1.184,2.947,2.395,4.473,3.632L358.1,159.117z M359.204,166.346
	c-1.063-1.302-2.353-2.73-3.86-4.286l1.397-1.333c1.5,1.493,2.849,2.946,4.046,4.354L359.204,166.346z M358.25,121.967l-0.261-1.857
	l5.267-0.74l-0.392-2.785l2.071-0.291l0.393,2.785l5.008-0.704l0.262,1.856l-5.009,0.704l0.457,3.249l2.849-0.4
	c1.723-1.946,3.232-4.146,4.531-6.601l1.896,0.964c-1.139,1.927-2.273,3.666-3.405,5.212l5.181-0.728l0.262,1.857l-7.426,1.043
	c-1.479,1.597-3.369,3.188-5.668,4.773l0.248,1.764c3.551-1.446,6.656-2.955,9.312-4.527l1.124,1.735
	c-2.951,1.551-6.345,3.102-10.177,4.649l0.117,0.835c0.082,0.999,0.723,1.381,1.924,1.15l5.957-0.837
	c1.158-0.101,1.756-0.656,1.789-1.671c-0.024-0.186-0.031-0.437-0.018-0.755c0.021-0.254,0.008-0.979-0.041-2.172
	c0.734,0.213,1.459,0.363,2.176,0.452c-0.004,1.643-0.049,2.785-0.134,3.427c-0.146,1.471-1.11,2.333-2.896,2.584l-7.252,1.02
	c-2.072,0.291-3.248-0.554-3.525-2.534l-0.521-3.713c-0.271,0.165-0.678,0.412-1.218,0.739c-0.435,0.25-1.381,0.826-2.839,1.725
	c-0.27-0.656-0.627-1.332-1.077-2.026c3.896-1.935,7.04-3.987,9.437-6.155l-9.842,1.383l-0.262-1.856l7.426-1.043l-0.457-3.25
	L358.25,121.967z M371.734,95.728c-0.66-0.097-1.342-0.158-2.051-0.185l0.812-3.617l-8.375,1.177
	c-0.49,1.521-1.062,3.084-1.719,4.691c-0.653-0.476-1.266-0.864-1.836-1.162c1.271-2.64,2.181-5.575,2.725-8.809l2.139,0.173
	c-0.216,0.977-0.431,1.954-0.646,2.931l9.497-1.334l0.273,1.95L371.734,95.728z M361.631,152.944
	c-0.344-0.771-0.846-1.837-1.506-3.197c-0.186-0.479-0.355-0.864-0.516-1.158l1.156-0.542c0.074,0.117,0.19,0.321,0.352,0.614
	c0.885,1.707,1.466,2.918,1.742,3.636L361.631,152.944z M363.841,98.446c-0.668,3.187-1.306,5.958-1.913,8.316
	c-0.686-0.282-1.361-0.502-2.029-0.662c0.899-2.777,1.547-5.486,1.938-8.13L363.841,98.446L363.841,98.446z M368.4,161.649
	c-0.424-0.508-1.084-1.235-1.979-2.183c-0.198-0.161-0.336-0.299-0.41-0.416l1.2,8.541l-1.727,0.243l-1.2-8.541
	c-0.396,2.202-1.002,4.149-1.82,5.841c-0.11-0.363-0.333-0.9-0.667-1.61c-0.102-0.301-0.189-0.509-0.264-0.625
	c1.039-1.787,1.762-4.16,2.168-7.121l-2.85,0.4l-0.248-1.764l2.937-0.413l-1.147-8.169l1.728-0.243l1.147,8.169l2.59-0.364
	l0.248,1.764l-2.59,0.364l0.364,2.6l0.759-0.864c1.369,1.386,2.36,2.383,2.975,2.99L368.4,161.649z M366.244,109.28
	c-0.51,0.134-1.369,0.287-2.577,0.457c-0.229-0.789-0.478-1.512-0.745-2.167c0.526-0.012,1.278-0.085,2.258-0.223
	c1.045-0.085,1.473-0.586,1.285-1.506l-1.592-11.326l2.072-0.292l1.644,11.698C368.915,107.831,368.135,108.951,366.244,109.28
	L366.244,109.28z M367.641,147.461c-0.254,1.55-0.559,3.14-0.916,4.767l-1.359-0.282c0.415-1.635,0.72-3.226,0.915-4.768
	L367.641,147.461L367.641,147.461z M368.215,148.421l-0.209-1.485l4.835-0.68l-0.274-1.95l1.9-0.267l0.273,1.949l5.354-0.752
	l0.208,1.485l-5.353,0.752l0.209,1.486l4.835-0.68l0.194,1.393l-4.834,0.68l0.222,1.578l5.698-0.801l0.209,1.485l-12.778,1.796
	l-0.209-1.485l5.181-0.728l-0.222-1.579l-4.403,0.619l-0.195-1.393l4.403-0.619l-0.209-1.485L368.215,148.421z M372.88,105.128
	c-0.978-1.945-2.321-4.407-4.03-7.386l1.721-0.905c0.927,1.574,2.207,3.793,3.842,6.655c-0.075-0.115,0.009,0.063,0.251,0.533
	L372.88,105.128z M371.27,167.021l-1.578-11.233l10.791-1.517l1.176,8.355c0.3,1.724-0.408,2.739-2.126,3.044
	c-0.23,0.033-0.604,0.085-1.122,0.158c-0.684,0.158-1.227,0.267-1.628,0.323c-0.194-0.541-0.425-1.14-0.692-1.796
	c0.583-0.02,1.424-0.105,2.518-0.259c0.986-0.077,1.391-0.543,1.211-1.401l-0.104-0.743l-7.166,1.007l0.535,3.806L371.27,167.021z
	 M371.699,156.925l0.234,1.671l7.166-1.007l-0.234-1.671L371.699,156.925z M372.13,159.989l0.222,1.578l7.166-1.007l-0.222-1.578
	L372.13,159.989z M396.168,99.202c-0.309,0.738-0.492,1.3-0.555,1.688c-4.282-1.228-7.301-3.708-9.059-7.437l-7.166,1.007
	c0.375,3.923-0.316,7.556-2.078,10.895c-0.199-0.161-0.651-0.666-1.356-1.513c-0.075-0.115-0.146-0.2-0.212-0.254
	c1.707-2.891,2.146-6.645,1.322-11.262l-0.782-5.57l16.146-2.269l1.122,7.984l-4.922,0.692c1.521,2.879,4.099,4.726,7.734,5.54
	C396.321,98.834,396.257,99,396.168,99.202L396.168,99.202z M382.587,119.112c-0.646-0.414-1.612-1.035-2.903-1.864
	c-0.578-0.359-0.998-0.617-1.252-0.771l1.072-1.76c0.76,0.399,1.909,1.057,3.447,1.977c0.322,0.208,0.549,0.365,0.683,0.472
	L382.587,119.112z M382.473,125.187c-0.597-0.484-1.541-1.14-2.83-1.969c-0.521-0.368-0.912-0.629-1.166-0.783l1.072-1.761
	c0.381,0.2,0.926,0.533,1.639,1.001c1.147,0.659,1.982,1.174,2.504,1.541L382.473,125.187z M379.051,92.045l0.065,0.464
	l12.087-1.699l-0.574-4.085l-12.087,1.699L379.051,92.045z M391.479,105.92c-3.504-0.708-7.172-1.328-11.004-1.862l0.604-1.978
	c1.145,0.218,2.831,0.518,5.057,0.898c2.703,0.441,4.655,0.766,5.86,0.975L391.479,105.92z M383.479,134.229
	c-0.108,0.898-0.189,1.573-0.244,2.022l-2.176-0.451c0.301-1.621,0.623-4.126,0.969-7.521c0.086-0.642,0.14-1.092,0.162-1.348
	c0.306,0.084,0.824,0.231,1.56,0.443c0.237,0.03,0.419,0.068,0.544,0.113C384.129,128.836,383.857,131.084,383.479,134.229
	L383.479,134.229z M388.916,100.221c-1.891-0.492-4.252-1.012-7.087-1.56l0.614-1.885c0.791,0.206,1.881,0.431,3.266,0.677
	c1.633,0.339,2.873,0.607,3.723,0.802L388.916,100.221z M391.787,144.444c-3.756,0.844-6.833,1.497-9.232,1.96
	c-0.085-0.177-0.183-0.448-0.291-0.811c-0.186-0.479-0.32-0.807-0.402-0.985c3.848-0.603,7.5-1.338,10.961-2.203l0.593,1.715
	C393.068,144.169,392.525,144.278,391.787,144.444L391.787,144.444z M384.73,151.874c-0.645-1.235-1.346-2.462-2.103-3.681
	l1.562-0.788c0.15,0.232,0.416,0.668,0.802,1.308c0.683,1.104,1.142,1.86,1.375,2.268L384.73,151.874z M383.746,155.515
	l-0.262-1.856l4.576-0.644l-0.234-1.671l1.812-0.255l0.235,1.671l4.317-0.607l0.261,1.857l-4.317,0.606l0.365,2.6l0.646-1.038
	c1.578,0.789,3.073,1.62,4.488,2.493l-0.975,1.841c-0.646-0.414-1.547-0.981-2.704-1.703c-0.579-0.36-1.03-0.644-1.353-0.852
	l0.873,6.22l-1.812,0.255l-0.967-6.87c-0.719,1.995-1.912,3.93-3.586,5.806c-0.159-0.294-0.445-0.664-0.859-1.11
	c-0.15-0.23-0.264-0.404-0.338-0.521c1.797-1.83,3.179-4.106,4.146-6.831L383.746,155.515z M387.296,134.45l-2.753-19.589
	l13.382-1.881l0.3,2.135l-11.31,1.59l2.19,15.597l11.656-1.638l0.262,1.857L387.296,134.45z M388.127,150.355
	c-0.378-1.02-0.906-2.271-1.584-3.754l1.589-0.602c0.576,1.182,1.134,2.429,1.67,3.741L388.127,150.355z M393.688,146.07
	c-0.265,1.047-0.717,2.626-1.358,4.735l-1.659-0.524c0.659-1.986,1.094-3.498,1.3-4.537L393.688,146.07L393.688,146.07z
	 M401.538,142.411c-1.556,2.301-3.592,4.514-6.111,6.634l-1.37-1.606c2.291-1.647,4.261-3.723,5.904-6.226L401.538,142.411
	L401.538,142.411z M404.275,154.996c-1.771,3.278-4.449,6.147-8.035,8.608c-0.424-0.508-0.914-1.071-1.471-1.687
	c3.359-1.987,5.997-4.724,7.915-8.212L404.275,154.996L404.275,154.996z M402.857,148.663c-1.742,2.645-3.8,4.921-6.173,6.832
	c-0.396-0.323-0.878-0.823-1.442-1.501c2.373-1.91,4.385-4.086,6.038-6.529L402.857,148.663L402.857,148.663z M398.356,88.478
	c0.045,1.572,0.047,3.465,0.006,5.679c-0.183-0.037-0.421-0.066-0.718-0.088c-0.298-0.021-0.53-0.02-0.703,0.004
	c0.034-1.834,0.03-3.948-0.012-6.341l1.407-0.008C398.364,87.908,398.369,88.16,398.356,88.478L398.356,88.478z M402.774,89.845
	c-0.267-0.214-0.654-0.477-1.166-0.783c-0.258-0.153-0.451-0.283-0.584-0.391l2.219,15.782l-1.899,0.267l-3.119-22.188l1.899-0.267
	l0.574,4.085c0.816,0.391,1.716,0.927,2.69,1.609L402.774,89.845z M400.1,114.005l-0.247-1.764l11.482-1.614l0.248,1.764
	l-1.468,0.206l0.938,6.685l-1.727,0.243l-0.939-6.685L400.1,114.005z M401.172,123.511l-0.248-1.764l12.174-1.711l0.248,1.764
	l-1.898,0.267l1.044,7.427c0.3,1.724-0.302,2.661-1.808,2.81c-0.798,0.174-1.627,0.323-2.489,0.445
	c-0.146-0.611-0.348-1.215-0.606-1.808c0.229-0.032,0.579-0.05,1.049-0.053c0.46-0.064,0.807-0.113,1.036-0.146
	c0.872-0.06,1.218-0.519,1.039-1.376l-0.991-7.056L401.172,123.511z M401.751,120.116l-0.665-4.735l5.785-0.813l0.665,4.735
	L401.751,120.116z M403.092,130.91l-0.835-5.941l5.871-0.825l0.691,4.92l-4.316,0.606l0.145,1.021L403.092,130.91z M402.739,85.21
	l-0.208-1.485l5.697-0.801l-0.247-1.764l1.898-0.267l0.248,1.764l6.13-0.861l0.209,1.485l-6.131,0.861l0.223,1.578l5.525-0.776
	l0.195,1.393l-5.525,0.776l0.222,1.579l6.477-0.91l0.209,1.485l-14.592,2.051l-0.209-1.485l6.217-0.874l-0.222-1.578l-5.095,0.716
	l-0.195-1.393l5.095-0.716l-0.223-1.578L402.739,85.21z M402.749,116.568l0.274,1.95l2.763-0.389l-0.274-1.949L402.749,116.568z
	 M404.007,126.142l0.3,2.135l2.765-0.388l-0.302-2.135L404.007,126.142z M408.558,148.522c-1.086,0.216-2.194,0.467-3.327,0.752
	l-0.779-1.784c0.357-0.366,0.729-1.08,1.106-2.144c0.784-1.94,1.443-3.926,1.979-5.958l2.077,0.371
	c-0.927,2.592-1.904,5.034-2.934,7.323c0.855-0.182,1.742-0.34,2.664-0.469c0.355-0.807,0.684-1.61,0.981-2.41l1.758,0.605
	l0.014,0.093c1.314-2.33,2.208-4.538,2.68-6.625l2.11-0.013c-0.282,0.924-0.508,1.619-0.676,2.083l5.698-0.801l0.261,1.856
	l-1.495,3.145l3.367-0.473l1.083,7.706l-9.584,1.347l0.522,3.714c0.08,0.999,0.663,1.389,1.75,1.174l5.267-0.74
	c1.217-0.109,1.812-0.665,1.79-1.672c0.027-0.634,0.005-1.421-0.067-2.357c0.306,0.084,0.759,0.178,1.36,0.282
	c0.238,0.03,0.42,0.068,0.544,0.113c0.032,1.069,0.016,1.986-0.053,2.753c-0.063,1.649-1.02,2.572-2.869,2.77l-6.13,0.861
	c-2.017,0.283-3.161-0.566-3.439-2.546l-1.422-10.119l0.013,0.093c-0.058,0.008-0.082,0.044-0.072,0.105l-1.306-1.142
	c-1.335,3.028-2.348,5.222-3.037,6.581l3.833-0.917c0.029,0.627,0.089,1.251,0.176,1.869c-0.684,0.16-1.619,0.386-2.812,0.679
	c-0.566,0.144-0.994,0.234-1.282,0.275c-0.278,0.103-0.673,0.222-1.183,0.355c-0.279,0.103-0.477,0.162-0.591,0.178l-0.854-1.679
	c0.476-0.381,0.938-1.046,1.394-1.994c0.285-0.481,0.664-1.324,1.142-2.527C408.346,148.899,408.459,148.663,408.558,148.522
	L408.558,148.522z M406.079,103.959l-1.592-11.326l12.001-1.687l1.188,8.448c0.31,1.786-0.457,2.81-2.299,3.068
	c-0.23,0.032-0.634,0.089-1.208,0.17c-0.799,0.174-1.398,0.291-1.801,0.348c-0.194-0.541-0.424-1.14-0.692-1.796
	c0.699-0.036,1.653-0.138,2.862-0.308c0.986-0.076,1.391-0.543,1.212-1.401l-0.104-0.743l-8.202,1.153l0.534,3.806L406.079,103.959z
	 M413.213,158.471c-1.75,0.498-3.941,1.185-6.578,2.061l-0.619-1.901c1.02-0.269,2.571-0.708,4.657-1.317
	c1.011-0.331,1.798-0.568,2.365-0.711C413.076,157.292,413.135,157.914,413.213,158.471L413.213,158.471z M406.596,93.852
	l0.234,1.671l8.202-1.153l-0.234-1.671L406.596,93.852z M407.013,96.822l0.235,1.671l8.202-1.153l-0.235-1.671L407.013,96.822z
	 M420.34,117.693c-0.239-0.028-0.598-0.073-1.075-0.133c-0.297-0.02-0.534-0.05-0.717-0.088l0.541-3.673l-4.663,0.655
	c-0.27,1.427-0.62,2.896-1.053,4.408c-0.19-0.099-0.479-0.279-0.868-0.541c-0.38-0.198-0.665-0.347-0.854-0.448
	c0.852-2.707,1.396-5.498,1.641-8.372l1.938,0.011c-0.092,1.023-0.243,2.022-0.459,3l5.785-0.813l0.261,1.857L420.34,117.693z
	 M417.134,123.067c0.099,3.205-0.896,6.152-2.982,8.845c-0.425-0.508-0.905-1.009-1.443-1.501c2.055-2.498,3.032-5.57,2.931-9.216
	c-0.036-1.51-0.188-3.224-0.459-5.143l1.813-0.255c0.147,1.053,0.267,2.109,0.356,3.168c1.162,4.508,3.142,7.733,5.938,9.674
	c-0.374,0.683-0.693,1.328-0.961,1.934C419.883,128.645,418.151,126.143,417.134,123.067L417.134,123.067z M420.1,141.693
	l-4.575,0.643c-0.494,1.08-1.021,2.132-1.581,3.157l4.575-0.643L420.1,141.693z M414.722,147.277l0.562,3.992l3.021-0.425
	l-0.562-3.992L414.722,147.277z M418.318,83.878l-0.248-1.764l9.411-1.323c-0.084-0.178-0.215-0.474-0.391-0.892
	c-0.251-0.533-0.452-0.914-0.602-1.146l2.206-0.594l1.029,2.317l8.894-1.25l0.248,1.764L418.318,83.878z M422.492,146.185
	l-3.108,0.437l0.562,3.992l3.107-0.437L422.492,146.185z M420.076,97.643l-0.247-1.764l9.756-1.371l-0.104-0.743l4.439-2.233
	l-12.604,1.771l-0.234-1.671l16.317-2.293l0.247,1.764l-5.902,3.102l8.894-1.25l0.247,1.764l-8.979,1.262l0.208,1.485
	c0.301,1.724-0.465,2.747-2.298,3.068c-0.979,0.138-2.131,0.299-3.453,0.485c-0.01-0.063-0.022-0.155-0.039-0.278
	c-0.11-0.363-0.299-0.874-0.567-1.53c0.346-0.048,0.838-0.087,1.48-0.113c0.69-0.097,1.18-0.166,1.468-0.207
	c1.045-0.084,1.477-0.555,1.299-1.413l-0.17-1.207L420.076,97.643z M421.895,89.908l-0.69-4.92l14.937-2.099l0.692,4.92
	L421.895,89.908z M423.814,115.498l-0.223-1.578l2.764-0.388l-0.34-2.414l-0.689,0.097c-0.53,0.832-1.101,1.575-1.712,2.229
	c-0.075-0.115-0.283-0.339-0.622-0.67c-0.274-0.277-0.479-0.469-0.609-0.577c1.265-1.439,2.199-2.927,2.807-4.465l1.853,0.024
	c-0.041,0.133-0.109,0.268-0.207,0.408c-0.072,0.327-0.25,0.73-0.534,1.211l15.8-2.221l0.235,1.671l-2.763,0.388l0.339,2.414
	l2.677-0.376l0.222,1.578l-2.677,0.376l0.339,2.414l3.195-0.449l0.234,1.671l-20.376,2.864l-0.234-1.671l3.626-0.509l-0.339-2.414
	L423.814,115.498z M423.411,86.287l0.261,1.856l11.052-1.553l-0.261-1.856L423.411,86.287z M433.704,121.966
	c-0.961,3.606-3.495,6.455-7.604,8.547c-0.49-0.563-0.941-1.067-1.356-1.513c0.057-0.008,0.139-0.052,0.246-0.129
	c2.023-1.042,3.349-1.858,3.97-2.451l-2.333-1.566l0.966-1.271c0.313,0.145,0.893,0.506,1.736,1.081
	c0.389,0.262,0.679,0.442,0.868,0.541c0.651-0.786,1.208-1.841,1.668-3.169l-4.317,0.607c-0.724,1.112-1.581,2.116-2.569,3.012
	c-0.622-0.67-1.01-1.12-1.158-1.352c1.618-1.426,2.82-3.109,3.604-5.051l1.854,0.023c-0.081,0.264-0.211,0.598-0.389,1.001
	c-0.138,0.272-0.228,0.475-0.268,0.606l4.835-0.68L433.704,121.966L433.704,121.966z M431.361,158.575l-1.749-12.44
	c-0.518,1.336-1.071,2.612-1.662,3.832c-0.312-0.965-0.649-1.897-1.009-2.793c1.588-3.314,2.631-6.964,3.127-10.948l2.15,0.266
	c-0.333,1.814-0.727,3.605-1.183,5.373l2.31,16.432L431.361,158.575z M427.743,110.875l0.34,2.414l2.244-0.315l-0.339-2.414
	L427.743,110.875z M428.305,114.867l0.339,2.414l2.245-0.316l-0.34-2.414L428.305,114.867z M431.629,110.329l0.339,2.414
	l2.331-0.328l-0.339-2.414L431.629,110.329z M432.189,114.321l0.34,2.414l2.331-0.328l-0.341-2.414L432.189,114.321z
	 M446.867,143.615c-2.958-1.414-5.393-3.281-7.302-5.601c-1.257,2.765-3.159,5.305-5.709,7.619
	c-0.441-0.632-0.903-1.199-1.385-1.699c2.869-2.548,4.86-5.511,5.972-8.886l2.283-0.037c-0.04,0.133-0.104,0.299-0.192,0.501
	c-0.081,0.264-0.143,0.462-0.182,0.593c1.901,2.258,4.322,4.031,7.264,5.322L446.867,143.615z M434.481,121.856l-0.235-1.671
	l4.316-0.606l-0.234-1.671l1.812-0.255l0.235,1.671l3.626-0.51l0.234,1.671l-3.626,0.509l0.364,2.6l3.8-0.534l0.222,1.578
	l-3.799,0.534l0.404,2.878l-1.812,0.255l-0.404-2.878l-4.835,0.68l0.208-3.532l1.728-0.243l-0.085,1.905l2.764-0.388l-0.365-2.6
	L434.481,121.856z M440.249,156.664c-2.18,0.368-3.396-0.564-3.651-2.801l-1.305-9.284l1.986-0.279l0.6,4.271
	c2.425-1.539,4.482-3.186,6.174-4.938l1.443,1.501c-2.165,2.136-4.604,3.993-7.317,5.573l0.34,2.414
	c0.059,1.255,0.774,1.752,2.147,1.497l3.28-0.461c1.15-0.162,1.71-0.776,1.678-1.845c0.005-0.379-0.009-1.103-0.041-2.172
	c-0.013-0.502-0.007-0.882,0.017-1.138c0.727,0.151,1.39,0.278,1.99,0.383c0.047,0.751,0.063,1.695,0.046,2.833
	c0.003,0.442-0.012,0.759-0.042,0.953c-0.119,1.657-1.158,2.625-3.113,2.899L440.249,156.664z M435.601,109.771l0.34,2.414
	l2.331-0.328l-0.34-2.414L435.601,109.771z M436.161,113.763l0.34,2.414l2.331-0.328l-0.34-2.414L436.161,113.763z M448.342,90.165
	c-1.36,2.842-2.723,5.274-4.082,7.295c-0.265-0.216-0.814-0.581-1.649-1.094c-0.066-0.054-0.134-0.108-0.198-0.161
	c1.287-1.696,2.637-3.999,4.047-6.912L448.342,90.165L448.342,90.165z M442.822,88.479l-0.313-10.37
	c4.72-0.663,9.947-1.682,15.684-3.056l0.892,1.958c-5.744,1.313-10.54,2.271-14.388,2.874l0.098,6.33l5.957-0.837l-0.665-4.735
	l2.158-0.303l0.665,4.735l7.942-1.116l0.274,1.949l-7.943,1.117l0.939,6.684c0.41,2.087-0.392,3.274-2.405,3.557
	c-0.566,0.142-1.541,0.311-2.923,0.505c-0.303-0.904-0.557-1.659-0.758-2.26c0.756-0.044,1.653-0.138,2.688-0.284
	c0.986-0.076,1.377-0.634,1.174-1.679l-0.874-6.22L442.822,88.479z M448.084,110.292c-1.223-1.594-2.314-2.893-3.276-3.894
	l1.583-1.264c0.415,0.448,0.972,1.063,1.668,1.849c0.765,0.839,1.324,1.487,1.683,1.941L448.084,110.292z M449.69,123.604
	c-0.732,1.05-1.421,2.219-2.061,3.508l-1.276-2.188c0.351-0.428,0.845-1.096,1.479-2.006c0.293-0.42,0.513-0.735,0.659-0.945
	l-0.991-7.056l-2.332,0.328l-0.3-2.135l4.316-0.607l1.291,9.191c1.146,1.481,2.758,2.074,4.829,1.783
	c5.237-0.736,9.234-1.329,11.988-1.779c-0.135,0.713-0.24,1.421-0.317,2.127c-3.396,0.478-5.899,0.829-7.512,1.056
	c-1.843,0.259-3.285,0.429-4.33,0.514C452.645,125.618,450.828,125.021,449.69,123.604L449.69,123.604z M451.545,155.547
	l-2.558-18.196l2.331-0.328c0.021-0.255,0.061-0.608,0.115-1.058c0.135-0.713,0.21-1.639,0.227-2.777l2.211,0.068
	c-0.133,1.155-0.291,2.313-0.48,3.476l3.887-0.546l2.53,18.011l-1.898,0.267l-0.248-1.764l-4.403,0.619l0.273,1.95L451.545,155.547z
	 M450.599,108.14l-0.286-2.042l13.9-1.954l0.287,2.042l-5.612,0.789c-0.376,1.505-0.802,2.858-1.277,4.061l1.122-0.158l1.514,10.77
	l-2.072,0.291l-1.305-9.284c-1.076,2.361-2.633,4.663-4.664,6.904c-0.134-0.107-0.374-0.357-0.722-0.75
	c-0.406-0.384-0.709-0.658-0.908-0.819c3.08-3.146,5.132-6.716,6.155-10.711L450.599,108.14z M451.261,139.115l0.718,5.106
	l4.402-0.619l-0.717-5.106L451.261,139.115z M452.265,146.263l0.744,5.292l4.403-0.619l-0.744-5.292L452.265,146.263z
	 M461.688,94.916c-2.246-2.208-4.218-4.108-5.907-5.702l1.472-1.438c0.472,0.44,1.151,1.102,2.039,1.985
	c1.881,1.693,3.225,2.893,4.028,3.6L461.688,94.916z M466.801,153.214c-1.151,0.162-2.359,0.332-3.626,0.509
	c-0.153-0.673-0.403-1.396-0.745-2.167c0.756-0.044,1.883-0.17,3.38-0.38c1.63-0.103,2.326-0.989,2.093-2.661
	c-0.076-1.376-0.399-4.299-0.969-8.763c-0.126-1.308-0.227-2.24-0.305-2.797l-5.181,0.728c-0.152,0.589-0.413,1.447-0.783,2.571
	c-0.161,0.529-0.281,0.924-0.361,1.187c-0.569-0.299-1.197-0.589-1.884-0.872c1.008-2.854,1.689-5.728,2.047-8.619l2.051,0.185
	c-0.062,0.388-0.161,0.938-0.296,1.651c-0.126,0.775-0.221,1.356-0.282,1.744l6.389-0.898c0.558,3.961,1.094,8.62,1.612,13.974
	C470.312,151.268,469.267,152.804,466.801,153.214L466.801,153.214z M464.99,117.194c-1.294-1.269-3.077-2.881-5.347-4.834
	l1.285-1.506c2.318,1.884,4.116,3.398,5.394,4.544L464.99,117.194z M464.26,147.039c-0.35-0.392-0.872-0.981-1.567-1.768
	c-0.99-1.187-1.763-2.087-2.317-2.704l1.397-1.333c0.488,0.563,1.215,1.344,2.179,2.345c0.821,0.832,1.442,1.501,1.867,2.01
	L464.26,147.039z M470.396,94.257c-1.869,0.073-3.058-0.864-3.564-2.813c-0.123-2.127,0.752-3.419,2.625-3.872
	c1.982-0.089,3.209,0.907,3.678,2.986C473.24,92.563,472.326,93.796,470.396,94.257L470.396,94.257z M467.896,115.27l-0.248-1.764
	l20.462-2.876l0.248,1.764l-8.979,1.262l0.313,2.229l7.425-1.044l0.248,1.764l-7.425,1.043l0.325,2.321
	c2.992-0.42,6.044-0.849,9.151-1.286c-0.077,0.705-0.158,1.379-0.244,2.022c-3.971,0.558-6.883,0.935-8.731,1.133
	c-3.454,0.485-5.934-0.24-7.438-2.174c-0.385,1.442-1.369,3-2.953,4.675l-1.43-1.408c2.142-1.878,3.115-4.351,2.919-7.416
	l1.938,0.011c-0.021,0.256-0.027,0.636-0.016,1.139c-0.055,0.45-0.068,0.767-0.042,0.953c1.189,1.79,2.81,2.667,4.859,2.63
	l-0.888-6.313L467.896,115.27z M469.653,88.965c-1.077,0.278-1.586,1.044-1.526,2.297c0.263,1.037,0.949,1.538,2.062,1.509
	c1.134-0.286,1.684-0.961,1.651-2.031C471.55,89.52,470.821,88.928,469.653,88.965L469.653,88.965z M470.077,111.365l-1.228-8.727
	l15.022-2.111l1.227,8.727L470.077,111.365z M471.084,104.124l0.261,1.856l10.965-1.541l-0.261-1.856L471.084,104.124z
	 M471.554,107.466l0.274,1.949l10.965-1.541l-0.274-1.95L471.554,107.466z M474.726,136.95c0.619,3.574,0.321,6.676-0.894,9.309
	c-0.133-0.107-0.455-0.315-0.968-0.622c-0.314-0.145-0.537-0.271-0.669-0.379c1.019-2.352,1.258-5.036,0.717-8.053l-0.574-4.085
	l10.533-1.48c-0.034-0.247-0.096-0.68-0.184-1.3c-0.145-0.61-0.241-1.102-0.295-1.473l1.813-0.255
	c0.043,0.311,0.137,0.771,0.282,1.38c0.087,0.62,0.181,1.08,0.28,1.38l2.765-0.388c-0.274-0.276-0.739-0.653-1.393-1.13
	c-0.198-0.161-0.364-0.295-0.497-0.403l1.078-1.099c0.065,0.055,0.194,0.131,0.386,0.23c0.908,0.629,1.533,1.109,1.875,1.44
	l-0.847,0.876l2.765-0.388l0.233,1.671l-6.044,0.85c0.486,2.204,1.021,3.927,1.607,5.17c0.736-1.429,1.344-2.965,1.816-4.61
	l1.686,0.71c-0.701,2.119-1.519,4.033-2.451,5.741c0.617,1.049,1.213,1.534,1.789,1.453c0.519-0.073,0.79-0.426,0.819-1.062
	c0.119-0.396,0.192-1.13,0.218-2.208c0.04-0.131,0.057-0.228,0.048-0.291c0.553,0.175,1.101,0.318,1.646,0.432
	c-0.043,0.953-0.123,1.848-0.238,2.684c-0.263,1.489-0.968,2.313-2.118,2.475c-1.208,0.17-2.32-0.431-3.335-1.803
	c-0.604,0.716-1.314,1.51-2.13,2.382c-0.084-0.177-0.301-0.462-0.648-0.855c-0.207-0.222-0.35-0.392-0.424-0.508l0.039,0.278
	l-6.477,0.91l-0.718-5.106l6.477-0.91l0.64,4.549c0.815-0.872,1.522-1.696,2.117-2.475c-0.886-1.705-1.61-3.939-2.174-6.7
	l-8.895,1.25L474.726,136.95L474.726,136.95z M475.97,146.432c-0.367,1.566-0.869,3.215-1.506,4.945l-1.845-0.593
	c0.614-1.474,1.125-3.061,1.532-4.76L475.97,146.432L475.97,146.432z M475.581,137.398l-0.209-1.485l7.252-1.02l0.209,1.485
	L475.581,137.398z M480.784,151.246c-1.892,0.328-2.946-0.501-3.167-2.49l-0.443-3.157l1.899-0.267l0.378,2.692
	c0.041,1.13,0.687,1.544,1.936,1.243l3.281-0.461c1.273-0.117,1.912-0.585,1.915-1.405c-0.008-0.061,0.003-0.189,0.034-0.383
	s0.039-0.763,0.023-1.708l1.918,0.488c0.015,0.945-0.032,1.646-0.145,2.103c-0.129,1.595-1.09,2.487-2.882,2.677L480.784,151.246z
	 M478.07,140.078l0.312,2.228l3.194-0.449l-0.313-2.228L478.07,140.078z M483.276,147.677c-0.83-0.892-1.689-1.782-2.576-2.667
	l1.324-1.228c0.396,0.323,0.965,0.812,1.702,1.465c0.415,0.448,0.756,0.779,1.021,0.993L483.276,147.677z M486.189,73.771
	l-0.287-2.042l17.268-2.427l0.287,2.042l-7.771,1.092c0.137,1.813,0.225,3.472,0.261,4.981l9.756-1.372l0.287,2.042l-10.188,1.432
	c-0.168,5.074-2.585,9.39-7.249,12.947l-1.716-1.558c4.345-3.324,6.614-7.02,6.806-11.086l-8.028,1.128l-0.287-2.042l8.461-1.189
	c-0.035-1.51-0.123-3.169-0.26-4.981L486.189,73.771z M489.106,103.954l-0.262-1.856l2.85-0.4l-0.443-3.157l1.899-0.267l0.442,3.156
	l2.245-0.315l0.261,1.857l-2.243,0.315l0.403,2.878c0.779-0.299,1.502-0.59,2.166-0.873c0.096,0.682,0.188,1.332,0.274,1.95
	l-2.167,0.872l0.443,3.157c0.31,1.788-0.308,2.821-1.854,3.101c-0.69,0.097-1.411,0.198-2.158,0.303
	c-0.009-0.061-0.021-0.154-0.04-0.278c-0.109-0.363-0.303-0.904-0.58-1.623c0.411,0.006,0.991-0.044,1.74-0.15
	c0.747-0.105,1.065-0.56,0.953-1.365l-0.34-2.414c-0.953,0.323-1.926,0.713-2.917,1.167l-0.634-1.994
	c0.395-0.117,0.952-0.323,1.676-0.614c0.729-0.229,1.265-0.398,1.602-0.509l-0.47-3.342L489.106,103.954z M491.938,148.542
	c-0.282-0.339-0.77-0.872-1.456-1.594c-0.648-0.855-1.181-1.506-1.596-1.953l1.424-1.147c1.526,1.679,2.567,2.827,3.125,3.442
	L491.938,148.542z M494.567,115.873c-0.271,1.427-0.682,3.092-1.234,5.001l-2.077-0.371c0.5-1.459,0.947-3.068,1.347-4.828
	L494.567,115.873L494.567,115.873z M493.583,134.588l-0.639-4.549l8.979-1.262c-0.168-0.355-0.414-0.856-0.739-1.505
	c-0.226-0.347-0.38-0.609-0.463-0.787l2.278-0.699c0.477,0.879,0.895,1.768,1.255,2.664l8.116-1.141l0.64,4.549l-1.985,0.279
	l-0.393-2.785l-15.454,2.172l0.393,2.785L493.583,134.588z M500.708,90.002c-2.18,0.369-3.396-0.564-3.651-2.8l-1.043-7.427
	l2.071-0.291l0.979,6.963c0.059,1.255,0.744,1.756,2.062,1.509l2.072-0.292c1.209-0.17,1.763-0.816,1.664-1.938
	c0.005-0.379-0.024-1.005-0.088-1.881c-0.005-0.44-0.019-0.755-0.044-0.94c0.182,0.038,0.452,0.094,0.815,0.169
	c0.305,0.084,0.758,0.178,1.36,0.282c0.035,1.51,0.044,2.614,0.023,3.31c-0.054,1.711-1.062,2.673-3.027,2.887L500.708,90.002z
	 M498.287,149.264l-2.205-15.689l14.073-1.978l0.86,6.127l-12.088,1.699l0.301,2.135l12.95-1.82l1.031,7.334l-1.986,0.279
	l-0.155-1.114l-10.966,1.541l0.169,1.207L498.287,149.264z M503.896,110.207l-2.579-1.437c-0.611,1.917-1.677,3.738-3.194,5.466
	c-0.53-0.43-1.093-0.888-1.689-1.372c1.594-1.611,2.65-3.275,3.174-4.99c-0.323-0.206-0.827-0.452-1.513-0.734
	c-0.446-0.252-0.765-0.428-0.955-0.528l0.729-1.712l2.068,0.94c0.125-0.775,0.112-1.909-0.037-3.403l-2.592,0.364l-0.272-1.95
	l2.59-0.364c-0.039-0.688-0.153-1.713-0.345-3.076l1.898-0.267c0.157,1.114,0.271,2.139,0.346,3.076l4.661-0.655
	c0.534,4.218,1.026,7.304,1.479,9.259c0.295,0.843,0.619,1.271,0.973,1.283c0.287-0.04,0.44-0.408,0.461-1.106
	c-0.009-0.061-0.025-0.186-0.052-0.371c-0.021-0.565-0.027-1.448-0.021-2.648c0.182,0.038,0.424,0.099,0.729,0.181
	c0.362,0.076,0.604,0.137,0.729,0.182c-0.016,0.318-0.008,0.791,0.021,1.417c0.053,0.372,0.059,1.034,0.017,1.986
	c-0.09,1.465-0.676,2.305-1.76,2.519c-1.398,0.071-2.357-0.899-2.874-2.91c-0.407-1.646-0.851-4.171-1.329-7.576l-2.85,0.4
	c0.235,1.671,0.241,3.185,0.022,4.542l2.938,1.48L503.896,110.207z M498.362,119.694c-0.577-1.182-1.2-2.482-1.869-3.903
	l1.748-0.719c0.232,0.409,0.521,1,0.865,1.771c0.531,0.872,0.93,1.604,1.188,2.2L498.362,119.694z M498.315,135.059l0.364,2.6
	l10.104-1.419l-0.366-2.6L498.315,135.059z M510.442,141.78l-10.967,1.541l0.405,2.878l10.965-1.541L510.442,141.78z
	 M503.775,118.744c-0.652-1.297-1.362-2.585-2.128-3.866l1.834-0.731c0.157,0.294,0.392,0.703,0.7,1.227
	c0.666,0.98,1.165,1.824,1.5,2.535L503.775,118.744z M509.659,118.012c-0.691-1.166-1.621-2.549-2.784-4.153l1.734-0.812
	c1.129,1.356,2.105,2.67,2.932,3.943L509.659,118.012z M512.508,88.152c-0.255,0.287-0.43,0.501-0.525,0.642l-1.543-1.582
	c0.457-0.506,0.6-1.157,0.43-1.954l-1.188-8.448l-2.331,0.328l-0.273-1.95l4.316-0.607l1.461,10.398
	c0.312-0.295,0.772-0.771,1.386-1.425c0.457-0.505,0.787-0.868,0.992-1.086c0.116,0.426,0.315,0.997,0.593,1.715
	c0.083,0.178,0.13,0.298,0.139,0.359c-0.155,0.149-0.413,0.406-0.771,0.771c-0.99,0.896-1.709,1.627-2.157,2.196
	C512.935,87.649,512.76,87.863,512.508,88.152L512.508,88.152z M510.721,72.309c-1.387-1.509-2.552-2.702-3.496-3.579l1.472-1.438
	c0.671,0.601,1.621,1.509,2.848,2.724c0.349,0.394,0.623,0.67,0.821,0.832L510.721,72.309z M514.039,117.874l-2.389-16.989
	l1.899-0.267l2.388,16.989L514.039,117.874z M514.854,99.867c-0.896-0.947-1.944-1.935-3.146-2.966l1.471-1.438
	c1.193,0.969,2.232,1.896,3.12,2.781L514.854,99.867z M528.004,71.868c-0.241,0.791-0.49,1.521-0.749,2.188
	c-2.892-1.36-5.354-3.224-7.389-5.589c-1.256,2.765-3.159,5.305-5.709,7.619c-0.44-0.632-0.907-1.229-1.396-1.792
	c2.994-2.504,5.021-5.407,6.083-8.713l2.271-0.13c-0.09,0.202-0.194,0.5-0.314,0.896c-0.106,0.079-0.154,0.149-0.146,0.21
	C522.63,68.931,525.08,70.702,528.004,71.868L528.004,71.868z M514.744,128.488l-0.248-1.764l9.411-1.322
	c-0.084-0.178-0.214-0.475-0.391-0.892c-0.251-0.533-0.451-0.915-0.602-1.146l2.206-0.594l1.03,2.316l8.893-1.25l0.248,1.764
	L514.744,128.488z M522.391,115.28l-1.188-8.448l-2.937,0.413l0.9,6.406l-1.641,0.23l-1.148-8.17l4.576-0.643l-0.326-2.321
	l-5.438,0.765l-0.234-1.671l5.784-0.813c-0.449-0.694-0.896-1.356-1.336-1.99l1.834-0.731c0.366,0.517,0.887,1.295,1.562,2.337
	l-0.073,0.105l4.922-0.692l0.234,1.671l-5.438,0.764l0.325,2.321l4.576-0.643l0.81,5.756c0.266,1.478-0.205,2.301-1.414,2.471
	c-0.575,0.081-1.122,0.158-1.641,0.23c-0.009-0.061-0.018-0.124-0.025-0.186c-0.128-0.487-0.316-0.997-0.567-1.53
	c0.46-0.065,0.863-0.122,1.209-0.17c0.643-0.027,0.885-0.376,0.732-1.05l-0.495-3.528l-2.937,0.413l1.188,8.448L522.391,115.28z
	 M520.735,87.185c-2.181,0.368-3.396-0.564-3.651-2.801l-1.291-9.191l2.072-0.291l0.587,4.178c2.425-1.539,4.425-3.178,6.001-4.914
	l1.442,1.501c-2.116,2.065-4.499,3.915-7.145,5.548l0.353,2.506c0.059,1.255,0.74,1.726,2.049,1.417l3.107-0.437
	c1.217-0.109,1.805-0.727,1.764-1.857c0.006-0.379,0-1.042-0.015-1.986c-0.013-0.502-0.012-0.913,0.003-1.231
	c0.238,0.03,0.568,0.078,0.989,0.145c0.485,0.121,0.82,0.201,1.002,0.238c0.019,1.386,0.016,2.618-0.01,3.693
	c-0.119,1.657-1.158,2.625-3.114,2.899L520.735,87.185z M516.502,142.252l-0.248-1.764l9.757-1.371l-0.104-0.743l4.439-2.233
	l-12.604,1.771l-0.234-1.671l16.317-2.293l0.248,1.764l-5.903,3.102l8.895-1.25l0.248,1.764l-8.979,1.262l0.208,1.485
	c0.301,1.724-0.465,2.748-2.298,3.069c-0.979,0.138-2.13,0.299-3.453,0.485c-0.009-0.063-0.022-0.155-0.039-0.279
	c-0.11-0.363-0.299-0.874-0.567-1.529c0.347-0.049,0.839-0.087,1.48-0.114c0.691-0.097,1.18-0.166,1.468-0.206
	c1.045-0.085,1.478-0.555,1.299-1.414l-0.17-1.207L516.502,142.252z M530.305,115.209c-0.51,0.133-1.427,0.295-2.75,0.481
	c-0.229-0.789-0.497-1.445-0.805-1.97c0.805-0.113,1.61-0.227,2.417-0.34c1.159-0.101,1.641-0.64,1.444-1.623l-2.152-15.318
	l-10.706,1.504l-0.261-1.857l12.604-1.771l2.479,17.639C532.902,113.865,532.146,114.951,530.305,115.209L530.305,115.209z
	 M518.32,134.518l-0.691-4.92l14.938-2.1l0.691,4.92L518.32,134.518z M519.837,130.896l0.261,1.857l11.053-1.553l-0.262-1.857
	L519.837,130.896z M530.191,77.427l-0.248-1.764l20.462-2.876l0.248,1.764l-8.979,1.262l0.313,2.228l7.425-1.043l0.248,1.764
	l-7.425,1.044l0.325,2.321c2.992-0.42,6.044-0.85,9.151-1.286c-0.076,0.705-0.158,1.378-0.244,2.022
	c-3.971,0.558-6.883,0.935-8.731,1.132c-3.454,0.485-5.935-0.24-7.438-2.173c-0.385,1.441-1.369,3-2.953,4.675l-1.43-1.409
	c2.142-1.878,3.115-4.35,2.919-7.416l1.938,0.012c-0.021,0.256-0.027,0.636-0.016,1.138c-0.055,0.45-0.068,0.767-0.042,0.953
	c1.189,1.79,2.81,2.667,4.859,2.63l-0.888-6.313L530.191,77.427z M532.372,73.523l-1.228-8.727l15.022-2.111l1.227,8.727
	L532.372,73.523z M533.295,98.22l-0.287-2.042l6.216-0.874l-0.47-3.342l2.072-0.292l3.104,22.096l-2.071,0.291l-0.641-4.549
	l-6.562,0.922l-0.287-2.042l6.562-0.922l-0.587-4.178l-5.871,0.825l-0.272-1.95l5.871-0.825l-0.562-3.992L533.295,98.22z
	 M533.379,66.281l0.261,1.857l10.967-1.541l-0.263-1.857L533.379,66.281z M533.849,69.624l0.274,1.95l10.965-1.541l-0.273-1.95
	L533.849,69.624z M555.789,121.114c-5.022,1.021-10.921,2.072-17.694,3.149c-0.009-0.061-0.056-0.181-0.139-0.359
	c-0.153-0.672-0.31-1.155-0.468-1.449c6.101-0.857,11.971-1.903,17.607-3.137L555.789,121.114L555.789,121.114z M538.358,133.031
	l-0.626-4.456l3.712-0.522c-0.084-0.177-0.233-0.408-0.449-0.694c-0.433-0.569-1.003-1.279-1.708-2.126l1.921-0.743
	c0.074,0.117,0.253,0.343,0.536,0.682c0.723,0.973,1.229,1.659,1.521,2.059l-1.562,0.787l9.238-1.298
	c0.673-1.482,1.231-2.919,1.685-4.308l2.077,0.371c-0.082,0.264-0.259,0.668-0.534,1.211c-0.138,0.272-0.466,1.076-0.982,2.41
	l4.146-0.583l0.626,4.457l-1.985,0.279l-0.364-2.599l-15.541,2.184l0.364,2.6L538.358,133.031z M559.094,140.247
	c-0.04,0.132-0.056,0.229-0.047,0.291c-4.348-0.021-7.602-0.416-9.763-1.184c-2.205,1.446-5.211,2.815-9.021,4.108
	c-0.16-0.294-0.422-0.698-0.787-1.215c-0.217-0.286-0.366-0.517-0.449-0.694c3.721-1.091,6.421-2.133,8.102-3.126
	c-1.777-0.949-3.418-2.391-4.923-4.326l-1.295,0.182l-0.248-1.764l14.246-2.002l0.261,1.857c-0.988,2.16-2.283,4.013-3.884,5.563
	c1.648,0.463,4.452,0.572,8.41,0.333C559.567,138.602,559.366,139.262,559.094,140.247L559.094,140.247z M547.299,113.292
	l-3.104-22.095l2.071-0.291l0.471,3.342l6.216-0.874l0.287,2.042l-6.216,0.874l0.561,3.992l5.958-0.837l0.273,1.95l-5.957,0.837
	l0.587,4.178l6.647-0.935l0.287,2.042l-6.647,0.934l0.64,4.549L547.299,113.292z M548.971,137.125
	c1.579-1.294,2.834-2.796,3.77-4.506l-8.202,1.152C545.94,135.406,547.418,136.524,548.971,137.125L548.971,137.125z
	 M547.117,127.067c-0.562-1.058-1.141-2.048-1.739-2.975l1.921-0.743c0.59,0.864,1.143,1.86,1.652,2.986L547.117,127.067z
	 M551.704,65.699l-0.234-1.671l5.525-0.776c-0.216-0.285-0.627-0.701-1.231-1.247c-0.54-0.492-0.912-0.85-1.119-1.073l1.907-0.836
	c0.074,0.117,0.24,0.25,0.497,0.404c1.011,0.932,1.69,1.594,2.04,1.985l-1.229,0.646l4.922-0.691
	c0.893-1.577,1.492-2.734,1.801-3.472l2.163,0.359c-0.138,0.272-0.395,0.75-0.768,1.433c-0.383,0.622-0.642,1.069-0.779,1.34
	l5.354-0.752l0.234,1.671l-8.548,1.202l0.287,2.042l7.512-1.056l0.248,1.764l-7.512,1.056l0.286,2.042l9.065-1.274l0.235,1.671
	l-20.203,2.839l-0.235-1.671l9.065-1.274l-0.287-2.042l-7.339,1.032l-0.247-1.764l7.339-1.031l-0.287-2.042L551.704,65.699z
	 M553.076,77.341l-0.248-1.764l8.634-1.213c0.031-0.194,0.026-0.444-0.018-0.755c0.013-0.317,0.008-0.569-0.02-0.755l2.072-0.291
	c0.07,0.496,0.082,0.999,0.036,1.51l8.894-1.25l0.247,1.764l-8.374,1.177c1.282,2.03,4.42,2.849,9.414,2.464
	c-0.129,0.333-0.271,0.795-0.421,1.384c-0.13,0.333-0.211,0.598-0.241,0.792c-5.056-0.047-8.373-1.096-9.951-3.146
	c-0.73,2.312-3.672,4.365-8.817,6.163c-0.085-0.178-0.276-0.498-0.575-0.96c-0.301-0.464-0.525-0.811-0.675-1.042
	c5.102-1.285,7.851-3.028,8.245-5.229L553.076,77.341z M561.222,98.363c1.047,5.786,0.229,10.192-2.456,13.221
	c-0.465-0.377-1.045-0.958-1.741-1.743c1.306-1.571,2.078-3.164,2.321-4.776c0.262-1.488,0.169-3.811-0.273-6.967l-1.097-7.798
	l12.001-1.687l2.35,16.71c0.099,1.123,0.542,1.566,1.331,1.328l0.604-0.085c0.813-0.051,1.213-0.549,1.198-1.494
	c0.046-0.511,0.017-1.548-0.085-3.112c-0.026-0.186-0.048-0.339-0.065-0.464c0.727,0.151,1.39,0.278,1.991,0.383
	c0.124,1.308,0.158,2.597,0.104,3.867c0.004,1.704-0.861,2.645-2.598,2.827l-1.382,0.194c-1.891,0.328-2.955-0.563-3.192-2.675
	l-2.113-15.04l-7.771,1.092L561.222,98.363L561.222,98.363z M566.709,102.325c-1.104-1.17-2.576-2.667-4.417-4.491l1.371-1.518
	c0.074,0.117,0.212,0.254,0.411,0.416c1.947,1.747,3.302,3.039,4.065,3.878L566.709,102.325z M566.822,138.874
	c-1.869,0.073-3.058-0.865-3.564-2.813c-0.123-2.127,0.752-3.419,2.625-3.872c1.982-0.089,3.209,0.907,3.678,2.986
	C569.666,137.18,568.752,138.413,566.822,138.874L566.822,138.874z M566.079,133.582c-1.077,0.278-1.586,1.044-1.526,2.297
	c0.264,1.037,0.949,1.538,2.062,1.509c1.134-0.287,1.684-0.961,1.651-2.031C567.976,134.136,567.247,133.545,566.079,133.582
	L566.079,133.582z M573.44,61.884l-0.301-2.135l19.857-2.791l0.301,2.135l-7.685,1.08c-0.646,1.669-1.362,3.253-2.149,4.751
	l1.468-0.206l1.957,13.926l-2.244,0.315l-1.813-12.904c-1.707,2.891-4.007,5.739-6.899,8.543c-0.065-0.053-0.17-0.165-0.311-0.335
	c-0.632-0.73-1.08-1.205-1.345-1.42c4.374-3.959,7.289-8.061,8.748-12.306L573.44,61.884z M580.148,108.393l-2.559-18.196
	l2.331-0.328c0.022-0.254,0.062-0.607,0.116-1.058c0.134-0.712,0.21-1.639,0.226-2.777l2.211,0.068
	c-0.133,1.154-0.291,2.313-0.479,3.476l3.886-0.546l2.531,18.01l-1.899,0.267l-0.248-1.764l-4.402,0.619l0.272,1.949
	L580.148,108.393z M579.864,91.96l0.718,5.106l4.402-0.619l-0.718-5.106L579.864,91.96z M580.868,99.109l0.744,5.292l4.402-0.619
	l-0.743-5.292L580.868,99.109z M593.812,71.518c-3.103-2.026-5.638-3.563-7.604-4.612l1.16-1.772c0.57,0.299,1.43,0.778,2.579,1.437
	c2.354,1.311,4.073,2.268,5.157,2.873L593.812,71.518z M595.404,106.06c-1.152,0.162-2.361,0.332-3.626,0.51
	c-0.154-0.674-0.403-1.396-0.745-2.167c0.756-0.044,1.883-0.17,3.38-0.38c1.629-0.103,2.326-0.99,2.092-2.661
	c-0.076-1.377-0.398-4.299-0.968-8.763c-0.126-1.308-0.228-2.24-0.305-2.797l-5.182,0.728c-0.151,0.589-0.413,1.447-0.783,2.572
	c-0.16,0.528-0.28,0.924-0.36,1.187c-0.57-0.298-1.198-0.589-1.884-0.871c1.008-2.854,1.688-5.729,2.047-8.619l2.051,0.185
	c-0.063,0.388-0.162,0.938-0.296,1.651c-0.126,0.775-0.222,1.356-0.283,1.744l6.389-0.898c0.559,3.961,1.095,8.62,1.612,13.974
	C598.917,104.113,597.87,105.649,595.404,106.06L595.404,106.06z M592.863,99.884c-0.351-0.392-0.872-0.981-1.568-1.768
	c-0.99-1.186-1.762-2.086-2.317-2.704l1.397-1.333c0.489,0.563,1.215,1.344,2.179,2.345c0.821,0.831,1.443,1.501,1.867,2.01
	L592.863,99.884z"/>
</svg>
