<svg xmlns="http://www.w3.org/2000/svg" width="640" height="640" viewBox="0 0 640 640"><path fill="#F7D5E6" stroke="#F6C0F1" stroke-miterlimit="10" d="M0 49.74c3.399-.472 340.186-46.952 344.075-47.492.509 3.618 8.532 60.731 9.044 64.365-3.906.533-348.657 47.481-353.119 48.094v-64.967"/><path fill="#A1669C" d="M36.657 100.46l-3.126-22.243 18.347-2.578 3.126 22.242-6.116.859-.354-2.514-6.116.859.354 2.514-6.115.861zm.342-26.279l-2.556-18.181 32.377-4.551 2.555 18.181-32.376 4.551zm3.49 9.173l1.142 8.123 6.116-.859-1.142-8.124-6.116.86zm1.659-22.125l.815 5.802 18.707-2.629-.815-5.802-18.707 2.629zm16.273 36.172l-3.126-22.242 18.527-2.604 3.099 22.049-6.116.859-.326-2.321-6.475.91.353 2.515-5.936.834zm3.653-17.08l1.142 8.123 6.476-.91-1.142-8.124-6.476.911zm47.868-4.756c-1.699 4.448-4.25 8.486-7.651 12.12l-3.007-3.127-7.375 1.037.49 3.481-5.576.784-5.545-39.456 13.67-1.921 4.54 32.3c3.604-3.924 6.146-8.029 7.624-12.313l-7.915 1.112-.897-6.383 9.713-1.365-.707-5.028-8.634 1.213-.897-6.383 8.634-1.213-.924-6.576 6.295-.885.924 6.576 8.813-1.239.897 6.383-8.813 1.239.707 5.028 10.073-1.416.897 6.383-8.454 1.188c2.911 4.195 6.754 7.6 11.524 10.214l-2.755 6.501c-4.033-2.589-7.151-5.633-9.355-9.139l2.011 14.313-6.295.885-2.012-14.313zm-22.22-19.755l3.289 23.402 2.878-.404-3.289-23.403-2.878.405zm56.508 8.428c-4.659.787-7.3-1.47-7.923-6.776l-2.283-16.247 34.356-4.829 1.658 11.798c1.908.521 3.735.923 5.488 1.201-.042 1.455-.226 3.188-.552 5.206l-.251.824c-.148 3.309-2.697 5.18-7.649 5.611l-22.844 3.212zm19.43 18.176l-1.413-10.057-10.792 1.517c.429 4.806-1.933 8.882-7.084 12.238-.278-.226-.683-.496-1.215-.815-1.898-1.311-3.509-2.335-4.833-3.068 4.441-2.332 6.599-4.804 6.478-7.419l-9.893 1.39-.843-5.996 10.433-1.466-.435-3.095 6.655-.935.136.967c.006.921.047 1.639.119 2.153l10.433-1.466-.435-3.094 6.655-.936.435 3.095 9.173-1.29.843 5.996-9.173 1.289 1.413 10.058-6.657.934zm-22.165-36.331l.517 3.674 21.045-2.958-.516-3.675-21.046 2.959zm27.261 6.03c-.036-.257.005-.395.125-.412l-26.081 3.665.082.58c.151 1.951 1.119 2.736 2.899 2.354l19.066-2.68c2.914-.144 4.217-1.313 3.909-3.507zm19.881 27.183l-6.279-44.678 40.292-5.663 6.279 44.678-6.835.96-.326-2.321-26.801 3.767.326 2.321-6.656.936zm1.246-39.424l4.295 30.559 26.801-3.767-4.295-30.559-26.801 3.767zm2.58 7.921l-.815-5.802 23.744-3.337.815 5.802-9.174 1.29.435 3.094 8.454-1.188.815 5.802-3.058.43c1.243 1.009 2.544 2.009 3.907 3.001l-1.734 2.019 2.698-.379.843 5.996-24.283 3.413-.843-5.996 8.454-1.188-.734-5.222-7.375 1.036-.815-5.802 7.375-1.037-.435-3.094-8.274 1.162zm20.512 11.516c-.414-.336-1.044-.904-1.891-1.707-.553-.446-.967-.782-1.242-1.009l1.859-2.431-3.417.48.734 5.222 3.957-.555zm26.608-9.854c-.928 2.103-1.925 4.15-2.989 6.14-.266-1.013-.722-2.527-1.372-4.541-.632-1.884-1.141-3.322-1.525-4.322 2.985-6.599 5.083-13.861 6.292-21.791l6.9.806c-.711 3.65-1.549 7.253-2.517 10.807l4.811 34.234-6.475.91-3.125-22.243zm9.134-13.315l-.87-6.189 9.174-1.29-.761-5.416 6.835-.96.761 5.416 9.354-1.314.87 6.189-9.354 1.314.625 4.449 10.792-1.517.87 6.189-28.42 3.994-.87-6.189 10.792-1.517-.625-4.448-9.173 1.289zm2.892 21.881l-.897-6.383 9.354-1.314-.517-3.675 6.835-.96.517 3.675 9.533-1.34.897 6.382-9.533 1.34.652 4.642 11.512-1.618.843 5.996-29.679 4.171-.843-5.996 11.332-1.593-.652-4.642-9.354 1.315zm33.866-19.553l-.761-5.416 12.951-1.82c.575-1.132 1.019-2.313 1.337-3.541-3.093 1.489-6.445 2.878-10.052 4.174-.314-.479-.851-1.261-1.612-2.337-.747-.946-1.333-1.652-1.766-2.119 2.002-.543 4.789-1.591 8.362-3.147.82-.245 1.462-.467 1.924-.665-3.347-.318-6.522-.726-9.527-1.225l2.487-4.491 16.04 1.888c4.478-2.075 8.775-4.124 12.893-6.151l4.114 3.169c-2.597 1.548-5.268 2.978-8.019 4.283l9.527 1.225-1.866 4.996-16.094-2.274-5.719 2.382 6.557-.33c-.354.971-.816 2.022-1.391 3.154l21.945-3.084.762 5.415-25.542 3.59c-.251.824-.632 1.602-1.14 2.33l22.484-3.16 2.419 17.214c.734 4.365-1.055 6.854-5.371 7.46-1.663.363-4.47.826-8.427 1.381l-.784-1.665c-.441-1.386-.834-2.447-1.182-3.187 2.554-.097 4.831-.417 6.835-.96 1.799-.253 2.685-.901 2.661-1.952l-18.887 2.654.952 6.77-6.476.91-2.039-14.506c-1.342 1.767-2.882 3.432-4.618 4.988-.632-1.883-1.591-3.918-2.876-6.104 3.493-2.987 6.578-6.709 9.253-11.162l-9.354 1.313zm13.362 5.026l.326 2.321 18.887-2.654-.326-2.321-18.887 2.654zm.897 6.382l.326 2.321 18.887-2.654-.326-2.321-18.887 2.654z"/></svg>