<svg xmlns="http://www.w3.org/2000/svg" width="640" height="474" viewBox="0 0 640 474"><path fill="#F48116" stroke="#FFBC64" stroke-miterlimit="10" d="M-3 110l644-93.001v149l-644 91z"/><path fill="#FF8900" d="M118.218 239.192l-121.218 17.391v-146.083l265.834-38.333z"/><g fill="#F5901A"><path d="M512.095 183.625l88.949-160.313 40.504-5.896 1.002 147.914zM-3 110.5v146.083l173.215-24.581-118.055-129.419z"/></g><path fill="#FF8900" d="M557 29.833l84.548-12.417 1.002 114.417"/><path fill="#fff" d="M56.165 145.703c-.756-.777-1.945-1.935-3.57-3.475 1.02.993.854.859-.497-.403.214 4.452-.643 8.58-2.574 12.385-.19-.101-.514-.307-.968-.622-.456-.314-.812-.548-1.067-.702 2.186-3.652 2.945-8.492 2.274-14.52l-.091-.65c-.19-2.182-.384-3.984-.584-5.409l2.159-.303c.104.743.209 1.707.318 2.89.177 1.679.31 3.049.401 4.109l.013.093c-.049.07-.068.137-.06.197l.146-.209c.472.439.638.573.497.403 2.137 1.846 3.745 3.261 4.823 4.245l-1.22 1.971zm-1.579 31.955c-.11 1.72-.53 3.545-1.255 5.478-.266-.216-.639-.573-1.119-1.073-.274-.278-.478-.47-.609-.577.655-1.607 1.005-3.076 1.053-4.408.047-1.332-.133-3.452-.542-6.362l-1.2-8.541 15.714-2.208 1.435 10.212c.6 4.271 1.096 6.757 1.489 7.459.167.355.365.517.596.484.221-.095.363-.335.427-.723-.054-1.633-.113-2.886-.177-3.762l1.088.226c.238.03.419.068.544.113-.014.318-.003.821.036 1.51-.007 1.201-.019 1.959-.032 2.277-.013 1.579-.595 2.45-1.746 2.612-1.036.146-1.857-.465-2.459-1.832-.635-1.172-1.251-3.895-1.852-8.166l-1.148-8.169-11.656 1.638.914 6.499c.443 3.155.61 5.593.499 7.313zm5.547-36.3c.139 4.335-1.283 8.417-4.267 12.244-.199-.161-.526-.399-.98-.714-.397-.323-.726-.561-.981-.714 3.599-4.04 5.039-9.039 4.319-14.997-.25-2.616-.479-4.666-.688-6.151l2.072-.292c.2 1.425.384 2.945.553 4.562 1.46 7.054 4.27 11.802 8.429 14.247-.422.753-.816 1.502-1.181 2.249-3.583-2.527-6.009-6.004-7.276-10.434zm-.042 67.352c-.4.498-.733 1.05-1 1.656l-1.703-1.465c.44-.63.59-1.439.451-2.43l-1.044-7.427-2.59.364-.287-2.042 4.576-.643 1.292 9.191c.204-.218.505-.575.906-1.074.807-.933 1.411-1.649 1.811-2.148.009.063.055.182.139.359.185.48.448 1.105.792 1.877-1.07 1.16-2.185 2.422-3.343 3.782zm5.222-29.909c-1.378-1.447-2.872-3.1-4.482-4.956-1.152 2.244-2.495 4.39-4.026 6.435-.531-.43-1.088-.855-1.676-1.279 1.906-2.729 3.315-5.011 4.233-6.843-.557-.616-1.419-1.536-2.589-2.76-1.112-1.231-1.975-2.151-2.589-2.76l1.385-1.425c.614.609 1.476 1.529 2.589 2.76l2.166 2.251c.792-1.877 1.55-4.004 2.273-6.378l1.871.779c-.667 2.366-1.562 4.764-2.687 7.194 2.356 2.573 4.025 4.421 5.005 5.545l-1.473 1.437zm-6.489 15.887c-1.303-1.332-2.612-2.504-3.928-3.519l1.372-1.518c1.325 1.078 2.654 2.183 3.989 3.321l-1.433 1.716zm3.854 14.89l-.274-1.949 5.094-.716-2.636-18.753 2.072-.291.913 6.499 5.871-.825.3 2.135-5.871.825 1.422 10.119 6.734-.946.274 1.949-13.899 1.953zm6.609-73.296c-.343-.771-.845-1.836-1.505-3.196-.186-.479-.357-.864-.515-1.159l1.157-.542c.074.117.191.321.35.614.885 1.707 1.467 2.917 1.744 3.636l-1.231.647zm6.771 8.705c-.424-.508-1.084-1.235-1.98-2.183-.199-.161-.336-.299-.41-.416l1.2 8.541-1.727.243-1.2-8.541c-.395 2.202-1.001 4.149-1.82 5.841-.11-.363-.333-.9-.667-1.61-.102-.301-.19-.509-.264-.625 1.04-1.787 1.762-4.16 2.169-7.121l-2.849.4-.248-1.764 2.936-.413-1.148-8.169 1.727-.243 1.148 8.17 2.59-.364.248 1.764-2.59.364.365 2.599.759-.864c1.368 1.386 2.36 2.383 2.974 2.99l-1.213 1.401zm-3.981 19.328l-.274-1.95 2.59-.364-.613-4.364 1.899-.267.613 4.363 2.331-.328.274 1.95-2.331.328.313 2.228.147-.21c.389.262.977.684 1.763 1.267.711.468 1.228.807 1.551 1.013 1.696-.869 3.126-1.765 4.289-2.686-.976-.683-1.901-1.626-2.774-2.829-.463.886-1.036 1.819-1.72 2.798-.423-.508-.873-.981-1.344-1.42 1.522-2.107 2.641-4.599 3.352-7.477l2.125.08c-.09.202-.189.533-.301.989-.17.466-.294.831-.375 1.094l7.425-1.043.274 1.95c-.825 2.073-1.947 3.904-3.367 5.491 1.551.603 3.423.971 5.614 1.104-.032.194-.099.551-.202 1.07-.103.52-.199.88-.288 1.082-2.811-.362-5.009-.967-6.595-1.819-1.637 1.304-3.714 2.605-6.23 3.905-.075-.115-.16-.292-.251-.533l-.337-.521-.267.605-.696-.565c-.207-.222-.704-.626-1.491-1.21l1.618 11.512-1.899.267-1.618-11.512c-.321 2.317-.853 4.38-1.596 6.188-.177-.416-.449-1.104-.818-2.063-.093-.239-.147-.42-.165-.545.864-2.204 1.519-4.853 1.965-7.945l-2.591.367zm3.219-33.516c-.252 1.55-.557 3.14-.915 4.768l-1.36-.283c.416-1.635.72-3.226.915-4.768l1.36.283zm.576.96l-.209-1.485 4.835-.68-.274-1.95 1.899-.267.274 1.95 5.353-.753.209 1.485-5.353.753.208 1.485 4.835-.68.196 1.393-4.835.679.222 1.579 5.698-.801.208 1.485-12.778 1.796-.208-1.485 5.18-.729-.222-1.578-4.403.619-.196-1.393 4.403-.619-.208-1.485-4.834.681zm2.579 61.026c-.472.824-.976 1.621-1.513 2.39-.16-.292-.421-.698-.787-1.215-.216-.285-.367-.517-.45-.694 1.718-2.386 2.951-4.895 3.697-7.525l2.004.476c-.411 1.257-.887 2.46-1.43 3.609l1.357 9.655-1.9.267-.978-6.963zm.475-42.426l-1.579-11.233 10.792-1.517 1.174 8.355c.3 1.724-.407 2.739-2.125 3.044l-1.122.158c-.682.158-1.226.267-1.627.323-.194-.541-.424-1.14-.693-1.796.583-.02 1.423-.105 2.517-.259.986-.076 1.39-.542 1.212-1.401l-.104-.743-7.166 1.007.535 3.807-1.814.255zm2.12 50.866c-.421 2.016-.894 3.881-1.415 5.595l-1.931-.581c.638-1.73 1.089-3.529 1.354-5.397l1.992.383zm-1.691-60.962l.235 1.671 7.167-1.007-.235-1.671-7.167 1.007zm.431 3.064l.222 1.579 7.166-1.007-.222-1.578-7.166 1.006zm2.811 35.699l-1.24-8.82 10.792-1.517 1.24 8.82-1.9.267-.183-1.299-6.993.982.183 1.3-1.899.267zm2.496 10.269c-.428 1.134-.995 2.317-1.702 3.552-.133-.107-.356-.233-.669-.379-.456-.314-.812-.549-1.067-.702 1.244-2.004 2.194-4.221 2.852-6.649l2.038.092-.361 1.187c-.179.404-.284.703-.314.896l9.411-1.323.274 1.95-.804 3.048c-.315-.145-.859-.258-1.633-.338-.125-.045-.215-.065-.272-.057l.71-2.466-8.463 1.189zm.726 17.697c-1.843.259-2.894-.541-3.154-2.397l-.548-3.899 1.986-.28.47 3.342c.13.929.684 1.324 1.664 1.187l3.626-.509c1.283-.055 1.908-.615 1.876-1.684.085-.643.104-1.34.058-2.091.247.093.644.194 1.188.307l.816.169c.012.504-.033 1.235-.132 2.196-.041.133-.056.229-.047.291-.128 1.595-1.118 2.492-2.968 2.689l-4.835.679zm1.19-14.084c-1.081 1.919-2.159 3.649-3.233 5.188-.531-.43-1.08-.795-1.65-1.093.994-1.276 2.022-2.935 3.086-4.978l1.797.883zm-.883-28.863c1.07-1.159 2.009-2.617 2.819-4.372l-6.13.861c-.049.07-.068.137-.06.198 1.023 1.435 2.147 2.539 3.371 3.313zm-2.608 7.751l.561 3.992 6.993-.983-.561-3.992-6.993.983zm5.159 31.101c-.905-1.009-1.921-1.97-3.047-2.885l1.311-1.32c1.05.799 2.115 1.691 3.193 2.675l-1.457 1.53zm.065-4.553l-1.986.279c-.194-.541-.424-1.139-.693-1.796.411.006.991-.044 1.74-.15.92-.129 1.295-.591 1.125-1.389l-.717-5.106 1.899-.267.756 5.385c.301 1.725-.407 2.741-2.124 3.044zm.987-68.813l-.274-1.95 9.929-1.396.274 1.95-4.576.644c-.749 2.188-1.42 3.892-2.011 5.111 1.438-.202 2.84-.462 4.205-.78l-1.622-2.139 1.437-1.055.973 1.283c.913 1.072 1.591 1.923 2.032 2.555 1.207-2.693 1.944-5.795 2.214-9.306h2.025c-.154 1.411-.355 2.701-.601 3.871l6.562-.922.3 2.135-1.554.219c.206 4.39-.242 7.892-1.34 10.508 1.368 1.386 3.077 2.471 5.124 3.256-.316.675-.62 1.444-.909 2.305-2.488-1.418-4.214-2.626-5.176-3.627-.806 1.376-2.179 3.083-4.123 5.124-.54-.492-1.111-1.013-1.716-1.558.106-.078.208-.188.307-.327.105-.079.285-.262.539-.549-3.96 1.061-7.156 1.92-9.587 2.578l-.546-2.006.259-.037c1.2-.231 2.534-.546 4.006-.941l-.509-3.621-3.713.522-.261-1.857 3.712-.521-.352-2.507 1.899-.267.352 2.507 3.799-.534.261 1.856-3.799.534.482 3.435c.452-.125 1.105-.281 1.96-.464l2.033-.57c.035.248.053.593.057 1.033l.104.743c1.57-1.357 2.724-2.75 3.462-4.179-1.231-1.657-2.305-3.873-3.223-6.647-.219.537-.461 1.106-.728 1.712l-.45-.694-1.424 1.147-.986-1.376c-1.258.24-2.914.568-4.968.982.221-.093-.039-.057-.777.109-.28.104-.616.214-1.01.332-.222.095-.391.149-.505.166l-.939-1.667c.483-.319.829-.779 1.039-1.377.414-.815.95-2.216 1.611-4.203l-3.278.46zm6.134 66.866c-.397-.323-.965-.812-1.703-1.465-1.078-.985-1.948-1.746-2.61-2.284l1.212-1.401c1.457 1.185 2.947 2.395 4.472 3.632l-1.371 1.518zm1.104 7.229c-1.063-1.302-2.351-2.73-3.86-4.286l1.397-1.333c1.5 1.493 2.849 2.945 4.046 4.354l-1.583 1.265zm-1.666-32.543l-.3-2.136 15.109-2.124.3 2.135-15.109 2.125zm15.029 3.568c-1.2.23-2.75.481-4.649.748l-.494-1.635c-.102-.302-.19-.51-.264-.626 1.332-.125 2.804-.299 4.416-.525 2.032-.16 2.959-1.079 2.782-2.758-.132-2.19-.293-4.376-.481-6.56l-14.074 1.978-.65-10.891 2.159-.303.197 3.286 14.851-2.087.287 2.042-15.023 2.111.224 3.472 13.987-1.966c.151 1.494.35 3.959.599 7.395.038.69.079 1.188.123 1.498.341 2.854-.989 4.461-3.99 4.821zm-9.43 30.597l-2.557-18.196 2.331-.328c.022-.255.061-.607.116-1.058.133-.712.209-1.639.226-2.777l2.211.068c-.132 1.155-.292 2.313-.48 3.476l3.885-.546 2.531 18.01-1.899.267-.248-1.764-4.403.619.274 1.95-1.987.279zm-.284-16.433l.717 5.106 4.403-.619-.717-5.106-4.403.619zm1.005 7.148l.744 5.292 4.403-.619-.744-5.292-4.403.619zm1.443-64.898c.854 3.162 1.94 5.66 3.254 7.495.767-2.063 1.07-4.916.911-8.554l-3.972.559-.06.197c-.04.133-.085.234-.133.303zm13.092 71.849l-3.626.51c-.154-.673-.403-1.396-.745-2.167.756-.044 1.883-.17 3.38-.381 1.628-.103 2.326-.99 2.091-2.66-.077-1.377-.399-4.299-.967-8.764-.126-1.308-.227-2.24-.305-2.797l-5.18.728c-.153.59-.413 1.447-.783 2.572l-.362 1.187c-.57-.299-1.198-.589-1.883-.872 1.008-2.854 1.689-5.729 2.046-8.619l2.051.185c-.064.388-.163.938-.296 1.651l-.283 1.744 6.389-.898c.557 3.961 1.093 8.62 1.612 13.974.374 2.661-.673 4.197-3.139 4.607zm-2.54-6.175c-.35-.392-.873-.981-1.569-1.768-.989-1.187-1.761-2.087-2.317-2.704l1.397-1.332c.489.563 1.215 1.344 2.179 2.344.821.832 1.443 1.501 1.867 2.01l-1.557 1.45zm1.237-52.566l-2.688-19.125 7.425-1.043 2.649 18.846-1.899.267-.235-1.671-3.626.51.274 1.949-1.9.267zm-.528-17.535l.809 5.756 3.626-.51-.809-5.755-3.626.509zm1.07 7.612l.822 5.849 3.626-.51-.822-5.849-3.626.51zm.892 23.853l-.274-1.95 2.59-.364-.613-4.364 1.899-.267.613 4.363 2.331-.328.274 1.95-2.332.328.313 2.228.146-.21c.389.262.977.684 1.763 1.267.711.468 1.228.807 1.551 1.013 1.696-.869 3.126-1.765 4.289-2.686-.977-.683-1.901-1.626-2.775-2.829-.463.886-1.036 1.819-1.72 2.798-.424-.508-.873-.981-1.344-1.42 1.522-2.107 2.64-4.599 3.351-7.477l2.125.08c-.09.202-.189.533-.301.989-.169.466-.294.831-.375 1.094l7.425-1.043.274 1.95c-.824 2.073-1.947 3.904-3.366 5.491 1.551.603 3.423.971 5.614 1.104-.032.194-.099.551-.202 1.07-.103.521-.2.88-.288 1.082-2.811-.362-5.009-.967-6.595-1.818-1.637 1.304-3.714 2.604-6.23 3.905-.075-.116-.16-.293-.251-.533l-.337-.521-.267.605-.696-.565c-.207-.222-.704-.626-1.491-1.21l1.618 11.512-1.899.267-1.618-11.512c-.321 2.317-.852 4.38-1.595 6.188-.177-.416-.45-1.104-.818-2.063-.093-.239-.147-.42-.165-.545.864-2.204 1.519-4.853 1.965-7.945l-2.589.366zm5.03-29.324l-.287-2.042 7.08-.995-.666-4.735 1.986-.279.666 4.735 2.59-.364.287 2.042-2.59.364 1.644 11.698c.361 2.158-.489 3.413-2.552 3.767l-3.367.474c-.084-.178-.177-.417-.277-.719-.203-.603-.387-1.082-.554-1.437.583-.02 1.624-.134 3.121-.344 1.274-.117 1.796-.788 1.565-2.019l-1.566-11.141-7.08.995zm21.461 68.125c-.539.77-1.013 1.563-1.427 2.378-3.952-2.221-7.363-6.033-10.236-11.437l-.437-.602c-.732 5.658-3.093 10.564-7.087 14.724l-1.768-1.929c4.201-3.935 6.59-9.068 7.168-15.397-1.413-1.695-2.731-2.93-3.954-3.704l1.471-1.438c2.125 1.343 4.296 3.846 6.514 7.511 2.812 4.969 6.063 8.268 9.756 9.894zm-17.178-60.206c-.843-1.396-1.978-3.003-3.407-4.823l1.497-1.252c1.213 1.534 2.402 3.104 3.567 4.706l-1.657 1.369zm1.206 36.115l-1.24-8.82 10.792-1.517 1.24 8.82-1.899.267-.183-1.299-6.994.983.183 1.299-1.899.267zm3.529-14.981c1.07-1.159 2.01-2.617 2.819-4.372l-6.13.861c-.049.07-.069.137-.061.198 1.024 1.435 2.148 2.539 3.372 3.313zm-2.608 7.751l.561 3.992 6.994-.983-.561-3.992-6.994.983zm11.758-40.394c-1.45-1.122-2.886-2.15-4.308-3.087l1.1-1.574c1.48.928 2.999 1.914 4.554 2.957l-1.346 1.704zm-1.861 16.829l-2.192-15.597 8.03-1.129-.9-6.406 2.072-.292.9 6.407 8.116-1.141 1.748 12.44c.326 1.91-.431 2.996-2.272 3.254-.453.125-1.455.299-3.009.517-.102-.302-.294-.843-.58-1.622-.093-.24-.147-.422-.165-.545.583-.02 1.537-.121 2.862-.308.928-.068 1.308-.499 1.138-1.296l-1.435-10.212-14.333 2.015 1.918 13.647-1.898.268zm18.801 26.06c-.682.158-1.858.355-3.527.59-.22-.727-.459-1.388-.719-1.981l3.281-.461c1.572-.095 2.21-.974 1.919-2.637-.216-2.367-.458-4.511-.728-6.43l-13.814 1.941c.758 4.565.445 8.396-.938 11.492l-.497-.403c-.605-.547-1.037-.896-1.292-1.049.655-1.607.997-3.137 1.027-4.594.104-1.34-.047-3.464-.456-6.374l-1.213-8.634 16.836-2.366.861 6.127-14.851 2.087.274 1.949 15.8-2.22c.078.557.166 1.396.266 2.519.395 3.227.624 5.278.688 6.152.309 2.608-.663 4.038-2.917 4.292zm-14.873-30.682l-1.004-7.149 9.152-1.287 1.004 7.149-9.152 1.287zm.163 13.72l.353 2.507 12.951-1.82-.353-2.507-12.951 1.82zm2.326 38.506l-.401.908c-.11-.363-.294-.842-.554-1.437l-.416-1.078c1.62-3.509 2.756-7.329 3.408-11.461l2.15.266c-.382 1.885-.813 3.617-1.294 5.199l2.349 16.711-1.986.279-1.774-12.626c-.25.732-.745 1.81-1.482 3.239zm-1.346-57.878l.496 3.528 5.353-.752-.496-3.528-5.353.752zm2.905 35.11l-.861-6.127 9.411-1.322.861 6.127-9.411 1.322zm1.273-4.723l.392 2.785 5.698-.801-.392-2.785-5.698.801zm5.744-42.48c-.986 1.339-2.165 2.766-3.536 4.284l-1.504-1.304c1.264-1.439 2.419-2.833 3.462-4.178l1.578 1.198zm2.324 59.824l7.167-1.007.287 2.042-5.525.777.717 5.106 5.008-.704.287 2.042-5.008.704.822 5.849 6.13-.861.261 1.856-14.419 2.026-.261-1.857 6.216-.874-.822-5.849-5.094.716-.287-2.042 5.094-.716-.718-5.106-5.698.801-.287-2.042 6.13-.861c-.744-1.536-1.321-2.717-1.73-3.544l2.02-.663c.392.702.964 1.853 1.717 3.451l-2.007.756zm4.251-40.587l-2.558-18.196 2.332-.328c.022-.254.06-.607.115-1.058.134-.712.21-1.639.226-2.777l2.211.067c-.132 1.156-.292 2.314-.48 3.478l3.885-.546 2.531 18.01-1.899.267-.248-1.764-4.403.619.274 1.949-1.986.279zm-.284-16.433l.718 5.106 4.403-.619-.718-5.106-4.403.619zm1.005 7.149l.744 5.292 4.403-.619-.744-5.292-4.403.619zm22.408 57.956l-.157-1.114-5.698.8c-.013 1.581-.329 2.887-.946 3.92 2.291.436 6.088.312 11.394-.371-.241.792-.434 1.512-.576 2.164-5.733.553-9.796.461-12.189-.275-1.194 1.114-3.317 2.295-6.369 3.546-.151-.232-.404-.575-.761-1.029l-.636-.763c2.857-.969 4.716-1.735 5.576-2.298-1.066-.48-2.237-1.295-3.513-2.441l1.225-1.308c1.258 1.023 2.541 1.79 3.845 2.3.586-.84.907-1.894.964-3.165l-6.994.983-1.383-9.841 7.425-1.043-.287-2.042-8.893 1.25-.248-1.764 19.686-2.767.248 1.764-8.806 1.237.287 2.042 7.253-1.019 1.54 10.955-1.987.279zm-14.307-24.705c.304 2.166-.218 3.88-1.566 5.143l-.895-.727c.923-.951 1.3-2.234 1.131-3.851l-1.468.206-.431-3.063 2.85-.4.379 2.692zm6.434-26.3l-3.626.509c-.154-.673-.403-1.396-.745-2.167.756-.044 1.883-.17 3.38-.381 1.628-.103 2.326-.989 2.091-2.661-.077-1.376-.399-4.298-.967-8.763-.126-1.308-.227-2.24-.305-2.798l-5.18.729c-.153.589-.413 1.447-.783 2.571l-.362 1.188c-.57-.299-1.198-.589-1.883-.872 1.008-2.855 1.689-5.729 2.046-8.619l2.051.184c-.064.389-.163.94-.296 1.653l-.283 1.744 6.389-.899c.557 3.963 1.093 8.621 1.612 13.976.374 2.659-.673 4.196-3.139 4.606zm-2.54-6.176c-.35-.392-.873-.981-1.569-1.768-.989-1.187-1.761-2.087-2.317-2.704l1.397-1.332c.489.563 1.215 1.344 2.179 2.344.821.832 1.443 1.501 1.867 2.01l-1.557 1.45zm-3.571 49.774l.326 2.321 5.353-.752c-.047-.75-.126-1.528-.24-2.333l-5.439.764zm6.154 5.573l-.131-.929c-.03-.625-.065-1.094-.109-1.404l-5.353.752.326 2.321 5.267-.74zm6.538-7.357l-5.267.74c.104.743.184 1.521.24 2.333l5.353-.752-.326-2.321zm-4.792 4.744c.035.248.062.654.083 1.219.07.496.092.872.07 1.126l5.525-.776-.326-2.321-5.352.752zm20.196-64.888l-.365-2.599-15.196 2.136.365 2.6-1.899.267-.613-4.364 8.72-1.225c-.343-.772-.653-1.519-.93-2.236l2.206-.593.883 2.526 8.202-1.152.613 4.364-1.986.276zm-6.676 6.998c-1.95 1.159-5.152 2.397-9.603 3.716-.093-.238-.227-.566-.402-.984-.233-.408-.393-.702-.476-.88 3.516-.873 6.233-1.791 8.153-2.755-1.132-.535-2.229-1.233-3.288-2.094-1.069 1.161-2.001 2.048-2.795 2.665-.415-.447-.855-.858-1.318-1.235 2.315-1.902 3.999-3.906 5.054-6.012l2.038.093-.44.629c-.129.335-.243.571-.34.711l9.238-1.3.261 1.858c-1.328 1.829-2.635 3.18-3.921 4.054 1.689.331 4.332.338 7.927.022-.144.651-.253 1.329-.331 2.034-4.196.211-7.449.038-9.757-.522zm-4.422 21.752c-1.095-1.108-2.21-2.151-3.345-3.127l1.397-1.333c1.077.985 2.217 1.993 3.418 3.022l-1.47 1.438zm.43 6.188c-.415-.446-1.153-1.1-2.213-1.961-.531-.43-.898-.757-1.106-.98l1.298-1.413c1.258 1.023 2.418 1.965 3.479 2.825l-1.458 1.529zm-1.844-17.463l-1.005-7.149 14.16-1.99 1.005 7.148-1.899.267-.144-1.021-10.361 1.456.144 1.021-1.9.268zm3.491 19.787c-.333 3.897-.541 6.797-.625 8.703l-2.064-.278c.302-2.44.535-5.376.699-8.808.609.167 1.273.294 1.99.383zm-2.348-25.439l.378 2.692 10.361-1.456-.378-2.692-10.361 1.456zm4.492-6.88c1.458-.898 2.713-1.991 3.766-3.275l-7.857 1.104c1.249.961 2.614 1.685 4.091 2.171zm6.506 53.179c-1.914-1.498-3.487-2.666-4.719-3.502-.641 1.29-1.405 2.533-2.293 3.73l5.785-.813.235 1.671-2.331.328.339 2.414 3.799-.534.235 1.671-3.799.534.339 2.414 3.108-.437 1.096 7.798-1.727.242-.157-1.114-4.749.667.157 1.114-1.727.243-1.096-7.798 3.281-.461-.339-2.414-4.058.57-.234-1.67 4.058-.57-.339-2.414-2.332.327-.144-1.021c-.146.21-.4.499-.759.864-.311.296-.515.515-.612.654-.327-.647-.672-1.231-1.038-1.748 2.019-1.924 3.487-4.213 4.406-6.867l1.938.011c-.121.396-.25.73-.388 1.001.834.514 1.936 1.243 3.301 2.187.711.468 1.262.833 1.65 1.093l-.886 1.83zm-9.044-30.556l-.248-1.763 3.886-.546-.313-2.228 1.899-.267.313 2.228 4.144-.582-.313-2.228 1.813-.255.313 2.228 3.886-.546.248 1.764-3.885.546.235 1.671-1.813.255-.235-1.671-4.145.583.235 1.671-1.899.267-.235-1.671-3.886.544zm7.277 10.433c-.195 1.542-.743 3.072-1.645 4.586-.398-.323-.825-.641-1.279-.956l.522 3.714-1.813.254-1.644-11.697 3.972-.558-.313-2.229-4.403.619-.248-1.764 15.541-2.184.248 1.764-4.49.631c.104.743.179 1.49.227 2.24l3.886-.546 1.266 9.005c.292 1.663-.368 2.608-1.979 2.834l-1.036.146c-.625.15-1.053.243-1.282.275-.128-.488-.363-1.118-.706-1.889.296.021 1.02-.049 2.171-.211.864-.121 1.218-.519 1.065-1.191l-.261-1.857-.793 1.248c-.349-.392-.888-.884-1.616-1.477-.341-.331-.609-.577-.808-.739-.35 1.691-.94 3.13-1.771 4.32-.199-.162-.484-.311-.855-.448-.199-.162-.361-.265-.484-.311 1.341-2.145 1.882-4.556 1.625-7.234l-3.022.425c.026.186.031.438.018.755.043.31.049.561.018.755.91.629 1.729 1.241 2.458 1.832l-.667 1.514-1.902-1.626zm-3.811-2.683l.861 6.127c1.194-1.934 1.685-4.086 1.47-6.455l-2.331.328zm.036 32.862l.483 3.436 4.749-.667-.482-3.435-4.75.666zm3.388-37.32c.113.805.188 1.552.227 2.24l3.108-.437-.313-2.229-3.022.426zm8.265 41.931l-2.332.328c-.145-.611-.355-1.275-.632-1.994.527-.012 1.192-.073 1.999-.187 1.044-.084 1.477-.555 1.298-1.413l-1.07-7.613-3.799.534-.274-1.949 4.49-.631c-1.277-1.146-2.573-2.225-3.889-3.24l1.112-1.481 2.385 1.937 2.466-3.755-7.166 1.007-.261-1.856 9.152-1.287.313 2.229-3.186 4.897.484.311-.806 1.154 5.18-.728.222 1.579-.263 4.392-1.667.045.169-3.811-2.849.4 1.148 8.17c.301 1.723-.44 2.711-2.224 2.962zm-.81-39.002l-2.417.339c.035.249.053.594.057 1.034.061.434.079.779.057 1.034.397.323.956.75 1.677 1.279l1.292 1.049-.666-4.735zm3.976-24.336c-.071 1.588-.478 3.286-1.221 5.095l-1.81-.977c.663-1.544 1.038-3.048 1.126-4.513.087-1.463-.064-3.589-.456-6.374l-1.122-7.985 8.03-1.128c-.277-.719-.608-1.397-.991-2.038l2.206-.594 1.203 2.292 7.08-.995.822 5.849-15.627 2.197.287 2.043c.444 3.157.602 5.534.473 7.128zm-1.321-13.164l.313 2.229 13.728-1.93-.313-2.227-13.728 1.928zm1.394 8.042l-.248-1.764 7.339-1.031c-.084-.178-.214-.475-.39-.892l-.376-.801 2.12-.581c.083.178.217.507.402.985.176.417.31.746.403.985l7.08-.995.248 1.764-10.792 1.517c.113.805.184 1.521.214 2.147l8.807-1.238c.096.682.189 1.772.284 3.273-.006.379.005.663.031.848.237 2.112-.708 3.318-2.837 3.618l-1.554.218c-.798.174-1.368.287-1.713.335-.303-.904-.572-1.562-.805-1.97l1.468-.207c.699-.036 1.25-.081 1.653-.137 1.332-.125 1.945-.777 1.837-1.962l-.13-.928c-.013-.502-.031-.848-.057-1.034l-6.994.983c.024 2.269-1.213 4.525-3.715 6.771l-.497-.403c-.54-.492-.937-.815-1.192-.968 1.627-1.365 2.65-2.645 3.07-3.84.427-1.132.477-2.875.146-5.228l-3.802.535zm2.131 25.847l-1.174-8.355 15.973-2.245 1.174 8.355-6.821.958.548 3.899 7.771-1.092.274 1.95-7.771 1.092.6 4.271 9.065-1.274c-.167.907-.276 1.585-.33 2.035-2.763.389-5.765.747-9.005 1.076-3.281.461-5.777-.387-7.489-2.544-.376 1.505-1.141 3.157-2.296 4.961-.862-.7-1.454-1.154-1.776-1.36 2.072-2.374 2.875-5.642 2.408-9.806h2.025c.116 1.247.109 2.446-.022 3.601 1.432 2.26 3.207 3.4 5.323 3.417l-1.396-9.934-7.081.995zm1.172-6.697l.64 4.549 11.828-1.662-.639-4.549-11.829 1.662zm5.138 44.737c-1.182 1.617-1.959 2.768-2.333 3.452l-1.276-2.187c.367-.305.898-.915 1.591-1.833l.733-1.049-1.018-7.242-2.504.352-.287-2.042 4.49-.631 1.292 9.191c1.137 1.418 2.916 1.957 5.333 1.617 1.102-.093 3.519-.433 7.252-1.02l4.058-.57c-.193.721-.298 1.43-.317 2.127-5.18.728-8.927 1.222-11.237 1.485-2.359.331-4.285-.219-5.777-1.65zm-1.879-13.369c-.142-.169-.324-.428-.549-.775-1.262-1.463-2.143-2.506-2.641-3.132l1.497-1.251c1.526 1.679 2.644 2.942 3.35 3.789l-1.657 1.369zm2.765 1.505l-.248-1.764 6.216-.874-.378-2.692c-1.595.352-3.313.655-5.154.914l-.52-1.82c3.445-.546 7.538-1.28 12.281-2.199l.606 1.808c-1.604.289-3.346.628-5.228 1.019l.378 2.692 6.303-.886.248 1.764-6.303.886.392 2.785 4.835-.679 1.031 7.334-11.569 1.626-1.031-7.334 4.749-.667-.391-2.785-6.217.872zm4.093 4.064l.521 3.713 7.598-1.068-.522-3.714-7.597 1.069zm3.516-67.749l-.274-1.951 11.742-1.65.274 1.95-5.698.801c-.851 1.887-1.661 3.642-2.43 5.266l5.573-1.068c-.216-.284-.503-.654-.86-1.109-.424-.508-.739-.875-.947-1.098l1.337-1.135c1.686 1.973 3.031 3.615 4.038 4.925l-1.397 1.333-.986-1.376c-1.027.208-2.43.469-4.205.78-1.077.278-1.874.452-2.392.524-.058.008-.168.057-.332.143-.74.168-1.273.337-1.602.509l-.964-1.854c.358-.364.636-.688.832-.969.854-1.445 1.549-2.962 2.089-4.554l-3.798.533zm1.916 11.754l-.274-1.95 4.576-.643-.353-2.508 1.986-.277.352 2.506 4.49-.631.274 1.95-4.489.631.535 3.807 4.917-1.354c.003.442.062 1.065.174 1.869-3.459.865-7.279 1.875-11.46 3.03l-.619-1.9c.912-.19 2.391-.526 4.438-1.003-1.422.327-1.226.267.591-.178l-.561-3.992-4.577.643zm13.426 22.271c-2.252 1.516-5.448 3.007-9.585 4.471-.102-.301-.339-.741-.714-1.32-.102-.301-.19-.508-.264-.625 3.548-1.066 6.321-2.214 8.32-3.441-1.512-.734-2.92-1.767-4.221-3.099-.765 1.244-1.681 2.447-2.751 3.605-.49-.561-.942-1.065-1.357-1.513 2.148-2.257 3.812-4.827 4.992-7.707l2.21.068c-.308.738-.652 1.417-1.034 2.039l10.706-1.505.3 2.136c-1.392 2.216-2.93 4.009-4.614 5.382 1.896.555 4.656.766 8.277.635-.072.327-.185.784-.335 1.373l-.142.873c-4.057-.062-7.321-.519-9.788-1.372zm10.939 33.32l-.157-1.114-5.698.801c-.013 1.58-.329 2.887-.946 3.92 2.291.436 6.088.312 11.394-.371-.241.792-.434 1.512-.577 2.164-5.733.553-9.796.461-12.188-.275-1.194 1.115-3.317 2.296-6.369 3.546-.151-.231-.404-.575-.761-1.029l-.636-.763c2.857-.969 4.715-1.735 5.576-2.298-1.066-.48-2.237-1.295-3.513-2.441l1.225-1.308c1.258 1.022 2.541 1.789 3.845 2.3.586-.84.907-1.894.964-3.165l-6.994.983-1.383-9.841 7.425-1.043-.287-2.042-8.893 1.25-.248-1.764 19.686-2.767.248 1.764-8.806 1.238.287 2.042 7.252-1.02 1.54 10.955-1.986.278zm-16.84-20.183l-1.266-9.005 14.764-2.075 1.266 9.005-1.986.28-.183-1.3-10.792 1.517.183 1.299-1.986.279zm5.588-15.365c1.547-1.101 3.009-2.601 4.387-4.498l-9.325 1.311c1.74 1.522 3.386 2.586 4.938 3.187zm-4.607 7.937l.587 4.178 10.792-1.517-.587-4.178-10.792 1.517zm1.876 20.204l.326 2.321 5.353-.752c-.047-.75-.126-1.528-.24-2.333l-5.439.764zm6.154 5.573l-.131-.929c-.03-.625-.065-1.094-.109-1.404l-5.353.752.326 2.321 5.267-.74zm-3.523-53.882l-1.983-14.111 1.899-.268 1.983 14.112-1.899.267zm4.689 4.548c-.567.142-1.627.323-3.181.542-.171-.797-.391-1.523-.659-2.18.526-.012 1.481-.113 2.862-.308.872-.061 1.239-.584 1.099-1.574l-2.557-18.198 1.986-.279 2.636 18.755c.326 1.91-.402 2.991-2.186 3.242zm5.371 41.977l-5.267.74c.104.743.184 1.521.24 2.333l5.353-.752-.326-2.321zm-4.792 4.745c.035.248.062.654.083 1.219.07.496.092.872.07 1.126l5.525-.776-.326-2.321-5.352.752zm1.695-65.596l-.274-1.949 7.339-1.032.274 1.95-2.331.328 2.153 15.319c.292 1.664-.396 2.613-2.065 2.847-.625.15-1.282.275-1.973.372-.119-.425-.325-1.059-.619-1.9l1.641-.231c.805-.113 1.123-.568.953-1.365l-2.075-14.762-3.023.423zm5.016 33.776l-.287-2.042 2.849-.4-.483-3.435-2.491.445c-.162-.735-.34-1.372-.533-1.913 2.465-.409 4.837-.869 7.114-1.379l.52 1.821-2.724.667.496 3.528 2.763-.388.287 2.042-2.763.388.392 2.785.586-.839 1.59 1.291c.662.539 1.163.973 1.504 1.303l-1.186 1.587c-.341-.331-.817-.799-1.431-1.409-.406-.384-.713-.688-.92-.912l1.344 9.563-1.899.267-1.344-9.562c-.315 1.938-.893 3.881-1.734 5.829l-.714-1.32c-.225-.347-.38-.609-.462-.787 1.054-2.104 1.817-4.61 2.289-7.517l-2.763.387zm2.849-35.449l-.261-1.856 12.692-1.784.261 1.856-5.785.813-.2 2.963 5.525-.776 1.553 11.048-1.899.267-1.292-9.192-7.685 1.081 1.318 9.376-1.899.267-1.579-11.234 3.886-.546.2-2.963-4.835.68zm14.245 17.407c-.786-.584-2.177-1.493-4.169-2.728-.902-.566-1.576-.976-2.022-1.23-.554 1.909-2.506 3.886-5.857 5.935-.076-.116-.292-.401-.648-.855-.358-.456-.607-.767-.748-.937 2.624-1.377 4.259-2.681 4.91-3.909.772-1.181.977-3.073.612-5.673l-.266-2.519 1.899-.267.253 2.426c.2 1.424.262 2.709.189 3.856 1.662.966 3.993 2.312 6.994 4.034l-1.147 1.867zm-11.768 43.44c.053 1.634.055 3.527.005 5.679-.19-.099-.578-.139-1.161-.121-.125-.044-.216-.064-.272-.057.128-1.595.157-3.682.089-6.261l1.334.097c.017.125.018.346.005.663zm7.867.219l-.144-1.021c-.759.864-1.667 1.718-2.722 2.56l-.848-1.017c-.207-.222-.349-.392-.423-.508.115-.016.221-.093.319-.234l-1.65-1.093 2.388 16.989-1.813.255-3.105-22.095 1.813-.255.431 3.063.073-.105c.313.146.73.403 1.253.771.57.299.987.557 1.253.771l-.556 1.688c2.643-2.076 4.493-4.575 5.549-7.502l2.085-.198-.241.792c2.131 2.225 4.637 3.767 7.517 4.624-.267.605-.529 1.243-.788 1.91-1.354-.44-2.543-.968-3.568-1.582l.169 1.207-6.992.98zm1.969-14.21l-1.044-7.427-2.936.413.157 1.114-1.813.255-1.591-11.327 4.749-.667-.626-4.456 1.813-.255.626 4.457 4.749-.668 1.592 11.327-1.899.267-.156-1.114-2.85.401 1.044 7.427-1.815.253zm-5.14-15.277l.887 6.313 2.936-.413-.887-6.313-2.936.413zm2.409 44.742l-1.866-13.276 6.216-.874 1.54 10.955c.248 1.353-.285 2.153-1.599 2.402l-.604.085c-.395.118-.708.194-.937.226-.026-.186-.128-.488-.303-.904-.119-.426-.221-.727-.303-.904l1.208-.17c.7-.036.976-.359.833-.969l-.274-1.95-2.936.413.666 4.735-1.641.231zm-.003-11.928l.274 1.95 2.936-.413-.274-1.95-2.936.413zm.482 3.435l.287 2.042 2.936-.413-.287-2.042-2.936.413zm6.609-9.355c-1.282-.767-2.445-1.739-3.491-2.917-.624 1.413-1.417 2.661-2.38 3.743l5.871-.826zm-1.9-27.962l-2.849.401.887 6.313 2.849-.4-.887-6.314zm6.285-21.639c-2.219.5-3.632.889-4.239 1.164l-.965-1.853c.376-.244.816-.874 1.319-1.89.528-.831 1.007-1.814 1.435-2.948-1.2.232-2.223.471-3.069.715l-.878-1.865c.293-.42.613-1.064.961-1.934.664-1.544 1.283-3.399 1.859-5.563l2.077.371c-.041.133-.129.334-.267.605-1.024 2.733-1.825 4.77-2.398 6.112l1.036-.146c.739-.166 1.252-.271 1.541-.312.405-.876.743-1.809 1.016-2.793l1.943.673c-.712 1.615-1.863 4.082-3.451 7.396-.228.476-.385.812-.474 1.014l3.833-.917c-.021.699.01 1.324.088 1.881-.344.052-.801.147-1.367.29zm-4.277 62.272l-1.187-8.448 1.554-.219 1.188 8.448-1.555.219zm6.098-58.078c-1.972.594-3.958 1.281-5.96 2.068l-.619-1.901c.557-.205 1.457-.489 2.698-.852 1.567-.536 2.771-.958 3.608-1.265l.273 1.95zm-3.218 61.649l-2.072.292c-.052-.372-.255-.975-.606-1.809l1.899-.267c.872-.061 1.218-.519 1.04-1.377l-1.448-10.305 1.727-.243 1.514 10.77c.298 1.724-.385 2.705-2.054 2.939zm.087-48.883l-.196-1.393 17.527-2.464.196 1.394-7.771 1.091.209 1.486 8.806-1.238.613 4.364-1.899.267-.404-2.878-6.907.971.705 5.013-1.986.279-.705-5.013-6.821.958.405 2.878-1.9.267-.613-4.364 8.72-1.226-.209-1.485-7.77 1.093zm-.067 10.802l-.222-1.579 20.722-2.912.222 1.578-9.843 1.383-.27 1.836 8.807-1.237.652 4.642c.265 1.478-.374 2.356-1.919 2.637l-2.072.291c-.186-.48-.379-1.021-.581-1.623l1.554-.218c.872-.061 1.227-.456 1.065-1.191l-.378-2.692-3.54.498.705 5.013-1.727.243-.705-5.013-3.367.473.717 5.106-1.727.243-.718-5.106-3.365.472.783 5.57-1.985.279-1.005-7.148 6.821-.959.184-1.825-8.808 1.239zm12-25.468c-1.23 1.688-2.717 3.222-4.459 4.603-.707-.847-1.226-1.406-1.556-1.675 1.769-1.196 3.244-2.602 4.425-4.221-1.568-1.544-2.887-3.411-3.956-5.598.427 4.295-.346 8.192-2.32 11.688-.208-.224-.605-.546-1.192-.968l-.497-.404c1.168-2.12 1.874-4.206 2.114-6.261.24-2.053.09-4.998-.45-8.836l-.279-2.611-1.813.254-.274-1.949 10.706-1.505.3 2.135-1.386 4.55 3.54-.498.274 1.95c-.349 2.953-1.078 5.485-2.19 7.597 1.383 1.07 2.969 1.92 4.761 2.551-.316.674-.594 1.409-.835 2.2-1.968-1.049-3.606-2.05-4.913-3.002zm-8.931 19.735l-.156-1.114 4.403-.619.156 1.114-4.403.619zm.313 2.228l-.144-1.021 4.403-.619.144 1.021-4.403.619zm1.498 23.853c.135 2.632.167 4.742.097 6.329-.125-.045-.362-.075-.717-.089-.354-.012-.617-.008-.79.017.022-.254.028-.634.016-1.138.079-1.526.075-3.229-.014-5.11l1.408-.009zm5.219 2.674c-.739-.653-1.5-1.271-2.286-1.856l2.205 15.689-1.899.267-3.092-22.002 1.899-.267.613 4.363.293-.42c1.307.953 2.392 1.779 3.253 2.478l-.986 1.748zm-4.148-61.463l.118.835c-.006.38.005.662.031.848 1.5 3.576 3.267 6.326 5.298 8.25.836-1.57 1.43-3.61 1.781-6.121l-3.54.498-.274-1.95 1.373-4.643-5.008.704.221 1.579zm4.454 66.154l-.274-1.949 4.921-.692c-.068-1.316-.266-3.149-.597-5.501l-3.712.521-.274-1.949 3.712-.522-.522-3.713 2.072-.292c.235 1.671.379 2.914.436 3.726l5.267-.74 1.044 7.427 1.899-.267.274 1.95-6.648.935c1.594 2.995 4.124 4.911 7.587 5.75-.187.342-.463.885-.827 1.631-.138.271-.228.473-.267.605-3.667-1.442-6.229-3.605-7.692-6.493-.234 2.937-1.829 5.779-4.788 8.531-.142-.169-.449-.474-.921-.912-.341-.331-.577-.551-.708-.658 3.059-2.449 4.62-5.13 4.681-8.042l-4.663.654zm1.384-34.672l-.156-1.114 4.403-.619.156 1.114-4.403.619zm.313 2.228l-.144-1.021 4.403-.619.144 1.021-4.403.619zm7.621 23.561l-3.281.461c.305 2.167.503 4 .597 5.501l3.454-.485-.77-5.477zm-.619-49.552l-.235-1.672 18.908-2.658.235 1.671-8.461 1.189.287 2.042 7.425-1.043.222 1.578-7.425 1.043.274 1.951 9.325-1.311.248 1.763-20.635 2.901-.248-1.765 9.325-1.311-.274-1.948-7.425 1.043-.222-1.579 7.425-1.043-.287-2.043-8.462 1.192zm1.071-3.655l-1.227-8.727 4.749-.667c.12-.396.248-.949.382-1.663.022-.255.03-.414.021-.477l2.271-.13c-.041.133-.072.327-.094.582-.152.589-.292 1.051-.422 1.385l8.979-1.262 1.227 8.727-15.886 2.232zm1.231 24.46l-.287-2.043 9.152-1.287-.601-4.27 2.072-.291.6 4.271 4.663-.655c-.266-.214-.758-.587-1.478-1.118-.712-.468-1.229-.805-1.551-1.013l1.211-1.401c1.612 1.037 2.718 1.796 3.314 2.28l-1.238 1.214 4.058-.57.287 2.043-8.979 1.262.104.743c.818 1.652 1.751 3.067 2.798 4.246 1.712-2.007 2.985-3.605 3.816-4.796l1.69 1.372c-1.004 1.215-2.419 2.834-4.248 4.857 1.766 1.708 4.001 3.003 6.709 3.885-.09.202-.194.5-.314.896-.276.544-.455.947-.534 1.211-4.086-1.509-7.197-4.006-9.33-7.493l1.018 7.241c.361 2.158-.493 3.383-2.565 3.674-1.027.206-2.002.376-2.922.505-.154-.673-.369-1.368-.646-2.086l2.417-.34c1.341-.063 1.858-.766 1.552-2.111l-1.618-11.512-9.15 1.286zm-.237-31.795l.274 1.95 11.915-1.674-.274-1.95-11.915 1.674zm.47 3.343l.287 2.042 11.915-1.674-.287-2.042-11.915 1.674zm9.808 35.372c-2.284 1.71-4.821 3.707-7.61 5.992l-1.164-2.014c2.408-1.664 5.083-3.711 8.029-6.146.136.55.385 1.272.745 2.168zm-4.059-1.323c-.813-.769-2.143-1.876-3.989-3.321l1.186-1.586c.852.638 2.239 1.737 4.161 3.296l-1.358 1.611zm5.425 37.314c-1.869.073-3.057-.865-3.564-2.813-.123-2.127.752-3.419 2.625-3.872 1.982-.089 3.209.907 3.678 2.986.104 2.005-.809 3.238-2.739 3.699zm-.744-5.292c-1.076.278-1.585 1.043-1.526 2.297.263 1.037.949 1.538 2.061 1.509 1.133-.287 1.684-.961 1.651-2.031-.289-1.22-1.017-1.812-2.186-1.775zm7.758-68.821l-.6-4.271 9.238-1.298-1.289-2.28 2.193-.687c.449.694.892 1.548 1.328 2.559l-.16.117 8.203-1.152.6 4.271-1.984.279-.354-2.506-15.455 2.172.353 2.506-2.073.29zm3.119.887l-.235-1.671 13.814-1.941.234 1.671-5.525.776c-.154.149-.363.335-.625.562-.516.515-.933.888-1.252 1.123.938.815 1.672 1.658 2.205 2.53 2.105-1.305 4.051-2.714 5.834-4.228l1.271 1.525c-1.121.789-2.269 1.613-3.438 2.471 1.404 2.896 3.547 4.773 6.426 5.629-.332.553-.687 1.17-1.06 1.853-3.097-1.142-5.396-3.313-6.901-6.509-.107.079-.291.23-.553.457-.271.165-.482.321-.639.468.502 1.065.844 2.248 1.025 3.549.448 2.777-.443 4.354-2.681 4.732l-2.849.4-.416-1.078c-.11-.362-.208-.633-.29-.811.345-.049.81-.082 1.395-.102l1.122-.158c1.456-.079 2.033-.979 1.733-2.705-.078-.557-.183-1.078-.31-1.566-2.152 2.64-5.148 4.921-8.985 6.848-.318-.587-.696-1.196-1.138-1.827 3.833-1.548 6.976-3.821 9.432-6.818-.225-.347-.458-.755-.7-1.227-2.14 2.321-4.806 4.242-7.995 5.764-.084-.179-.272-.468-.563-.868-.225-.347-.408-.606-.549-.776 3.159-1.327 5.841-3.124 8.047-5.391-.084-.178-.264-.404-.537-.682l-.298-.242c-1.907 1.468-4.128 2.791-6.662 3.966-.093-.238-.281-.528-.563-.868-.233-.408-.421-.698-.562-.868 3.579-1.26 6.349-2.848 8.311-4.766l-5.523.778zm7.962 41.597c-1.868.073-3.057-.865-3.564-2.813-.123-2.128.752-3.419 2.625-3.872 1.982-.089 3.209.907 3.678 2.986.106 2.006-.808 3.239-2.739 3.699zm-.742-5.292c-1.077.278-1.586 1.044-1.526 2.297.263 1.037.949 1.538 2.062 1.509 1.134-.287 1.684-.962 1.652-2.031-.291-1.22-1.02-1.811-2.188-1.775zm11.383-42.987l-.248-1.764 7.512-1.056c.338-.931.596-1.819.771-2.665l2.11-.013c-.055.45-.23 1.074-.528 1.874-.031.194-.067.357-.107.488l9.931-1.396.248 1.764-6.218.874c1.931 1.622 4.372 2.51 7.33 2.662-.032.194-.133.524-.302.989-.111.458-.208.819-.288 1.082-1.386-.246-2.883-.667-4.491-1.262l.053.372-9.67 1.359.221 1.578 10.966-1.541.196 1.393-10.965 1.541.207 1.485 11.053-1.553.195 1.393-11.052 1.553.222 1.578 14.506-2.039.233 1.671-5.784.813c.389.262.969.621 1.736 1.081 1.348.819 2.381 1.495 3.104 2.026l-1.459 1.53-1.392-1.13c-3.915.55-7.64 1.2-11.172 1.949-.921.129-1.632.292-2.132.489l-1.012-1.562.736-.386c.271-.166.488-.29.651-.376.669-.663 1.381-1.457 2.131-2.383l-5.785.813-.233-1.671 3.972-.558-1.019-7.241c-.533.391-1.44 1.023-2.728 1.898.858-.562.7-.444-.479.351-.384-.64-.787-1.215-1.211-1.723 2.902-1.48 5.038-3.201 6.406-5.161l-6.215.874zm4.923 28.108c-.336.111-.563.174-.678.19-.034-.247-.142-.58-.315-.997-.128-.487-.232-.82-.316-.998 2.793-.582 5.625-1.326 8.49-2.234l.719 1.981c-.288.041-.711.164-1.27.368-.854.183-1.479.335-1.873.453l.482 3.435 5.095-.716c-.512-2.39-.916-4.636-1.212-6.741l2.072-.291c.199 1.425.574 3.675 1.125 6.752l7.426-1.042.286 2.042-7.338 1.032.368 1.368c.39 1.523.759 2.892 1.104 4.105 1.189-1.555 2.215-3.246 3.073-5.071l1.823 1.069c-1.145 2.308-2.469 4.356-3.979 6.145.142.169.295.432.463.787.226.347.38.609.464.787.73 1.034 1.467 1.466 2.207 1.299.459-.064.758-.453.893-1.167.027-.634.053-1.711.074-3.229.867.321 1.511.514 1.931.581.036 1.51-.054 2.753-.269 3.73-.221 1.356-.992 2.127-2.315 2.313-1.546.279-2.942-.471-4.19-2.251-.074-.115-.191-.319-.351-.613l-.337-.521c-1.242 1.185-2.661 2.362-4.258 3.534-.707-.848-1.188-1.348-1.443-1.501 1.604-1.108 3.175-2.465 4.71-4.07-.571-1.56-1.091-3.38-1.56-5.461l-.396-1.554-5.181.728.509 3.621c.51-.134 1.271-.368 2.278-.699l1.516-.497.092.65c.021.565.086 1.029.195 1.393l-1.516.497c-1.01.331-1.77.565-2.278.699l.666 4.735c.291 1.663-.334 2.634-1.88 2.915-.51.134-1.454.299-2.836.493-.094-.24-.199-.572-.316-.997l-.415-1.078c.296.021 1.021-.048 2.171-.21.93-.068 1.305-.529 1.126-1.389l-.522-3.714-3.952 1.313-.658-2.18c.278-.102.76-.232 1.44-.392 1.24-.364 2.197-.655 2.871-.877l-.562-3.992-4.317.607-.287-2.042 4.317-.607-.444-3.156c-.67.219-1.581.442-2.722.665zm3.797-29.333c-.56 1.025-1.272 2.01-2.138 2.951l7.511-1.056c-.968-.622-1.866-1.378-2.696-2.272l-2.677.377zm1.249 13.267c-.906 1.074-1.828 2.025-2.77 2.851.979-.137 2.5-.384 4.562-.735 2.063-.354 3.583-.599 4.563-.737-.257-.153-.712-.468-1.365-.944-.323-.206-.551-.363-.683-.472l.611-.654-4.918.691zm11.732 15.79c-1.145-1.037-2.493-2.079-4.049-3.123l1.197-1.494 4.098 2.833-1.246 1.784zm5.024-18.147c-.07 1.588-.478 3.286-1.221 5.095l-1.811-.977c.664-1.544 1.037-3.048 1.127-4.513.087-1.463-.064-3.589-.455-6.374l-1.123-7.984 8.029-1.128c-.276-.718-.607-1.397-.99-2.038l2.205-.594 1.203 2.292 7.08-.995.821 5.849-15.628 2.196.287 2.042c.444 3.157.605 5.534.476 7.129zm-1.323-13.163l.313 2.228 13.729-1.929-.313-2.228-13.729 1.929zm3.332 34.389c-.461 1.328-.957 2.596-1.49 3.807l-.936-2.898c1.446-3.484 2.351-7.083 2.709-10.795l2.149.266-.142.872c-.238 1.232-.541 2.632-.906 4.198l2.335 16.619-1.985.279-1.734-12.348zm-1.937-26.349l-.248-1.764 7.34-1.031c-.085-.177-.215-.474-.39-.892l-.377-.799 2.118-.582c.084.178.219.506.404.985.174.417.31.746.401.985l7.079-.995.248 1.764-10.792 1.517c.112.805.185 1.521.214 2.147l8.807-1.238c.096.682.189 1.772.284 3.273-.006.38.005.662.03.848.238 2.112-.708 3.318-2.837 3.618l-1.554.219c-.799.174-1.369.287-1.715.335-.304-.904-.572-1.562-.806-1.97l1.468-.207c.699-.036 1.25-.081 1.654-.138 1.331-.125 1.943-.777 1.837-1.962l-.131-.929c-.013-.502-.031-.848-.058-1.033l-6.994.983c.025 2.269-1.213 4.525-3.715 6.771l-.496-.404c-.539-.492-.938-.815-1.192-.968 1.627-1.365 2.651-2.645 3.069-3.84.428-1.132.478-2.875.146-5.227l-3.794.534zm8.844 20.36c-1.055-1.239-2.06-2.329-3.013-3.269l1.483-1.345c1.343 1.201 2.396 2.22 3.158 3.06l-1.628 1.554zm-.203 17.354l-2.295-16.339 2.071-.292 2.296 16.339-2.072.292zm6.042-.85c-.275-.719-.529-1.473-.758-2.26.93-.068 1.913-.174 2.949-.32 1.34-.063 1.862-.735 1.564-2.019l-1.971-14.019-4.922.692-.3-2.135 7.08-.995 2.335 16.618c.389 2.344-.453 3.662-2.525 3.953l-3.452.485zm10.225-34.397c.304 2.166-.219 3.88-1.566 5.143l-.895-.726c.923-.951 1.299-2.234 1.131-3.852l-1.468.207-.431-3.064 2.85-.4.379 2.692zm-2.169 17.744l-.272-1.95 4.92-.691c-.979-1.125-2.045-2.236-3.197-3.338l1.582-1.264c.531.431 1.307 1.142 2.326 2.135l1.23 1.246-1.423 1.147 4.835-.679c1.15-2.244 1.965-3.969 2.441-5.172l2.203.637c-.797 1.438-1.539 2.836-2.229 4.195l5.008-.704.274 1.95-7.771 1.092c.062.434.127 1.119.2 2.055.122.867.184 1.521.188 1.961l9.152-1.286.287 2.042-8.807 1.238c1.672 3.551 5.028 5.51 10.069 5.874l-.908 2.305c-5.178-.915-8.579-2.991-10.208-6.233-.238 3.315-2.844 6.3-7.812 8.955-.134-.108-.308-.305-.522-.589-.474-.439-.82-.831-1.047-1.178 5.225-2.5 7.779-5.416 7.664-8.745l-8.462 1.189-.286-2.042 8.721-1.226c-.004-.44-.07-1.126-.2-2.055-.058-.812-.118-1.466-.188-1.961l-7.768 1.092zm16.271-35.161l-.248-1.764 10.706-1.505.248 1.764-2.936.413.418 2.971 2.59-.364 2.258 16.061-1.641.23-.196-1.393-6.646.935.194 1.393-1.641.23-2.258-16.061 2.678-.376-.418-2.971-3.108.437zm2.539 4.282l.771 5.479c.994-1.276 1.27-3.081.823-5.417l-.039-.278-1.555.216zm6.714 4.547c-1.198.232-1.866-.337-2.001-1.707l-.481-3.435-1.381.194.039.278c.487 2.646.229 4.765-.779 6.358-.125-.044-.315-.145-.57-.298-.257-.153-.446-.252-.569-.299l.272 1.95 6.648-.934-.313-2.229-.865.122zm-5.263 4.526l.365 2.6 6.647-.935-.364-2.599-6.648.934zm4.479 16.81c-1.365-.944-2.723-1.826-4.069-2.647l1.073-1.76c1.403.813 2.786 1.661 4.144 2.542l-1.148 1.865zm-.014 6.155c-1.309-.952-2.636-1.838-3.982-2.659l1.072-1.76c1.404.813 2.786 1.661 4.144 2.542l-1.234 1.877zm-3.706-36.988l.417 2.971 1.382-.194-.417-2.971-1.382.194zm5.337 40.451c-.544 3.234-.929 5.716-1.152 7.452l-2.091-.463c.537-2.852.962-5.689 1.27-8.509.609.167 1.307.321 2.09.463-.033.194-.072.547-.117 1.057zm-.554-36.484l-1.554.218.404 2.878c.056.813.452 1.136 1.191.969l.52-.073-.561-3.992zm.882 27.539l-.301-2.135 6.477-.91c-.178-.416-.573-1.15-1.189-2.199-.26-.594-.465-1.007-.614-1.239l2.007-.755c.625 1.112 1.261 2.285 1.903 3.52l-1.848.638 7.253-1.019.3 2.135-5.957.837.718 5.106 5.354-.752.287 2.042-5.354.752.821 5.849 6.647-.934.262 1.856-15.801 2.221-.261-1.856 6.993-.983-.822-5.849-5.353.752-.287-2.042 5.353-.753-.717-5.106-5.871.824zm4.682-24.913l1.004 7.148c.041 1.13.657 1.548 1.85 1.255l1.122-.158c1.168-.039 1.736-.59 1.704-1.66-.016-.944-.082-2.039-.198-3.286.124.046.334.08.631.101.602.105 1.021.173 1.262.202-.022.256.001.631.069 1.126.041 1.13.035 1.921-.019 2.37.03 1.889-.913 2.905-2.83 3.048l-2.071.291c-1.949.336-3.034-.489-3.254-2.478l-1.344-9.562 5.438-.765-.821-5.849-5.698.801-.274-1.95 7.599-1.067 1.356 9.655-5.526.778zm7.515-7.963l-.248-1.764 7.512-1.056c.339-.931.596-1.818.771-2.664l2.111-.013c-.057.45-.231 1.074-.529 1.873-.032.194-.068.357-.107.488l9.93-1.396.247 1.764-6.217.874c1.931 1.623 4.373 2.51 7.33 2.662-.032.194-.133.524-.302.989-.111.458-.208.819-.288 1.082-1.385-.246-2.882-.667-4.491-1.262l.052.372-9.67 1.359.224 1.579 10.965-1.541.195 1.392-10.966 1.541.209 1.486 11.052-1.553.195 1.393-11.052 1.553.222 1.578 14.506-2.039.234 1.671-5.785.813c.391.262.969.622 1.737 1.082 1.348.819 2.381 1.495 3.102 2.025l-1.458 1.53-1.391-1.13c-3.915.55-7.639 1.199-11.172 1.949-.922.129-1.632.292-2.133.489l-1.012-1.562.736-.388c.271-.164.488-.289.652-.375.669-.662 1.38-1.456 2.13-2.382l-5.784.813-.234-1.671 3.972-.559-1.019-7.241c-.531.392-1.439 1.023-2.727 1.898.859-.562.699-.444-.479.352-.385-.64-.786-1.215-1.211-1.724 2.902-1.48 5.037-3.2 6.406-5.16l-6.215.873zm8.314 27.251c-1.015 1.974-2.102 3.641-3.26 5.002-.424-.508-.854-1.078-1.297-1.71 1.753-2.14 3.017-4.432 3.788-6.876l2.284-.037c-.032.194-.143.462-.327.803-.121.396-.226.694-.313.896l14.245-2.002.248 1.764-15.368 2.16zm-3.663 10.266l-.248-1.764 2.936-.412.067-5.784 14.419-2.027.623 5.687 2.849-.4.248 1.764-2.936.413c.062.434.123 1.088.188 1.962.122.867.184 1.521.188 1.962l2.332-.328.247 1.764-2.504.352c.256 2.237-.77 3.517-3.069 3.84l-3.54.498c-.438-1.012-.671-1.643-.706-1.889.354.013 1.479-.114 3.381-.381 1.332-.125 1.981-.72 1.949-1.789l-13.814 1.941.067-5.784-2.677.375zm4.07-38.742c-.561 1.025-1.272 2.01-2.139 2.951l7.512-1.056c-.968-.621-1.867-1.378-2.696-2.271l-2.677.376zm1.248 13.268c-.904 1.074-1.828 2.024-2.769 2.851.978-.138 2.499-.384 4.562-.736 2.063-.354 3.584-.598 4.563-.736-.257-.153-.713-.468-1.366-.944-.323-.206-.55-.364-.683-.472l.612-.654-4.919.691zm10.944 27.165l-.376-3.923-11.138 1.565-.057 3.984 6.82-.959c-.588-.421-1.494-1.021-2.718-1.795-.189-.099-.349-.171-.472-.218l1.014-1.562c1.148.659 2.235 1.294 3.262 1.908l-1 1.656 4.665-.656zm-11.446-8.143l-.056 3.984 10.965-1.541c-.068-1.316-.192-2.625-.375-3.924l-10.534 1.481zm6.32 2.994c-1.034-.674-2.121-1.311-3.262-1.908l.927-1.55 1.71.895c.703.407 1.245.709 1.625.908l-1 1.655zm11.932-22.243c-.358.366-.647.816-.866 1.353l-1.489-1.21c.267-.605.353-1.248.257-1.93l-1.122-7.984-2.245.315-.272-1.95 4.229-.594 1.278 9.098c.438-.63 1.041-1.566 1.807-2.81l.602 1.146.377.799c-.498.638-1.275 1.789-2.332 3.452.759-1.243.686-1.138-.224.315zm-1.711-14.055c-.35-.392-.934-1.005-1.755-1.836l-1.828-1.731 1.484-1.345c.396.323 1.031.866 1.9 1.626l1.828 1.731-1.629 1.555zm.51 35.544l-.339-2.414 20.979-2.948.34 2.414-20.98 2.948zm5.618-38.299c.504 2.329-.361 4.312-2.597 5.951-.134-.107-.369-.327-.709-.658l-.896-.726c1.941-1.22 2.688-2.807 2.236-4.764l-.301-2.135 9.064-1.274.562 3.992c.055.813.48 1.132 1.279.956l1.898-.267.027 2.079-2.417.34c-1.554.218-2.439-.446-2.657-1.994l-.404-2.878-5.181.729.096.649zm4.596 15.164c-1.734 1.442-3.951 2.795-6.649 4.059-.225-.347-.69-.944-1.396-1.792 2.879-1.224 4.948-2.367 6.209-3.429-1.564-1.106-3.102-2.845-4.607-5.222l.318-.234-1.122.158-.273-1.949 12.173-1.711.301 2.135c-1.064 2.864-2.234 4.985-3.508 6.362 1.75.765 3.869 1.224 6.356 1.379-.366.745-.62 1.443-.762 2.095-2.934-.408-5.281-1.025-7.04-1.851zm-4.484-6.848c1.323 1.897 2.696 3.313 4.119 4.25 1.272-1.377 2.29-3.129 3.047-5.256l-7.166 1.006zm11.802-8.094l-.248-1.764 3.626-.51c-.193-.541-.513-1.348-.956-2.421-.177-.416-.307-.714-.39-.892l1.847-.638c.167.355.396.924.681 1.703.352.835.583 1.433.692 1.796l-.579.271 2.851-.4.248 1.764-4.317.606.47 3.342 3.8-.534c.147 1.053.336 2.604.565 4.654.313 2.228.501 3.78.566 4.654.312 2.228-.396 3.463-2.121 3.706-.509.134-1.081.247-1.714.335-.025-.186-.132-.519-.315-.997-.119-.425-.226-.758-.315-.997l1.554-.219c.938-.006 1.329-.565 1.173-1.68-.242-2.553-.527-5.005-.858-7.358l-2.157.304.064.464c.67 4.767.344 8.503-.978 11.214l-1.577-1.198c1.077-2.36 1.328-5.583.755-9.668l-.637-5.78-1.73.243zm25.182 29.426c-.276.544-.639 1.32-1.082 2.329-4.368-1.847-7.754-4.211-10.153-7.093-1.66 3.642-4.359 6.988-8.098 10.038-.648-.856-1.177-1.476-1.582-1.86 4.385-3.457 7.236-7.171 8.559-11.144l2.443-.154c-.12.396-.274.765-.461 1.106 2.525 2.927 5.982 5.187 10.374 6.778zm-14.52-31.87c-.282.924-.874 2.144-1.774 3.658l-1.591-1.292c1.407-2.091 2.346-4.4 2.812-6.928l2.013-.093c-.215.977-.438 1.893-.671 2.745l8.634-1.213.248 1.764-9.671 1.359zm4.481 13.097l-.979-6.962-2.426.909.899 6.406c.067 1.316.755 1.818 2.062 1.509l3.974-.559c1.218-.109 1.848-.639 1.891-1.591-.019-.123-.012-.282.021-.476-.034-.247-.025-.816.024-1.708.553.175 1.102.318 1.646.431.113.805.086 1.661-.079 2.567-.04 1.393-.983 2.188-2.835 2.387l-5.094.716c-1.949.336-3.033-.489-3.254-2.478l-.926-6.592-1.17.449-.435-1.833 1.342-.473-.378-2.692 1.728-.243.326 2.321 2.426-.909-.535-3.806 1.727-.243.483 3.435 4.272-1.547c.27 1.919.48 3.846.637 5.78.234 1.671-.306 2.632-1.621 2.879-.509.135-1.053.243-1.627.323-.093-.238-.198-.571-.316-.997-.158-.292-.251-.533-.276-.718l1.296-.182c.689-.097.982-.517.879-1.26-.06-1.253-.157-2.375-.297-3.366l-2.686.945 1.031 7.334-1.73.244zm.197 33.316l-1.931-13.74 2.331-.327 1.931 13.74-2.331.327zm7.781-45.516l-.64-4.549 8.634-1.213c-.401-.763-.798-1.497-1.189-2.2l2.279-.699c.083.178.256.564.515 1.158.325.65.567 1.12.729 1.413l7.855-1.104.641 4.549-1.986.279-.365-2.6-14.851 2.087.365 2.599-1.987.28zm.474 7.128l-.273-1.95 19.771-2.779.273 1.95-6.562.922.562 3.992c.032 1.07.615 1.459 1.75 1.174l1.555-.218c1.109-.03 1.634-.481 1.569-1.357.068-.767.07-1.586.007-2.462.791.206 1.46.363 2.004.476.031 1.069.016 1.986-.054 2.753-.089 1.463-.999 2.285-2.734 2.467l-2.85.4c-1.957.275-3.037-.52-3.24-2.384l-.64-4.549-3.453.485c.786 3.93-1.113 6.909-5.699 8.943-.376-.579-.869-1.172-1.481-1.78 4.119-1.588 5.821-3.879 5.108-6.872l-5.613.789zm1.912-5.191l-.262-1.857 14.765-2.075.262 1.856-14.765 2.076zm8.325 33.591c-2.95.731-4.864 1.315-5.741 1.753l-.878-1.865c.483-.319.829-.779 1.039-1.376.552-1.086 1.139-2.337 1.763-3.75-1.151.162-2.207.374-3.168.634l-.767-1.691.146-.21c.293-.42.475-.792.547-1.118.703-1.676 1.43-4.019 2.182-7.028l2.077.371-.361 1.187c-1.016 2.793-1.808 4.893-2.372 6.298.287-.041.714-.132 1.281-.275l1.209-.17c.33-.993.645-1.889.942-2.689l1.856.686c-1.162 3.003-2.381 5.826-3.651 8.466l3.794-1.196c.018.125.005.253-.034.384.038.689.083 1.218.136 1.589zm.898 4.513c-2.146.617-4.305 1.33-6.479 2.141l-.62-1.901c.848-.245 2.227-.659 4.141-1.245 1.238-.363 2.167-.651 2.784-.865-.006.381.052 1.004.174 1.87zm1.302 2.373l-2.857-20.332 12.089-1.699 2.856 20.332-1.898.267-.248-1.764-8.289 1.165.248 1.764-1.901.267zm-.684-18.649l.912 6.499 3.194-.449-.913-6.499-3.193.449zm1.174 8.356l.913 6.499 3.193-.449-.913-6.499-3.193.449zm7.116-9.52l-3.281.461.914 6.499 3.279-.461-.912-6.499zm-2.108 8.816l.913 6.499 3.281-.461-.914-6.499-3.28.461zm3.074-37.652l-.223-1.579 5.354-.752c-.208-.223-.515-.527-.921-.912-.474-.438-.81-.739-1.007-.9l1.993-.848c.813.77 1.563 1.517 2.251 2.239l-.331.142 3.972-.558 1.547-2.773 2.138.173c-.099.141-.265.416-.5.828-.315.676-.572 1.154-.767 1.433l5.438-.765.224 1.579-8.636 1.213.224 1.578 7.598-1.068.209 1.485-7.599 1.068.209 1.485 9.151-1.286.223 1.578-4.835.68 1.903.395-1.119 2.051 4.661-.655.209 1.485-20.72 2.912-.209-1.485 4.662-.655c-.142-.169-.349-.392-.622-.67-.54-.492-.907-.819-1.105-.981l1.463-.868-4.49.631-.222-1.578 9.065-1.274-.209-1.485-7.599 1.068-.208-1.486 7.598-1.067-.222-1.579-8.548 1.201zm4.026 17.989l-.887-6.313 16.059-2.257.888 6.313-1.985.279-.144-1.021-12.088 1.699.144 1.021-1.987.279zm5.674 11.529c-.659 4.069-1.531 8.105-2.611 12.106-.751-.335-1.49-.579-2.216-.729 1.085-3.561 1.943-7.468 2.579-11.723l2.248.346zm-4.521-23.998c.264.216.666.569 1.205 1.061.548.555.926.944 1.133 1.167l2.245-.315-.354-2.507-4.229.594zm.154 7.363l.312 2.228 12.088-1.699-.312-2.229-12.088 1.7zm9.029 32.264c-.682.158-1.742.339-3.182.542-.093-.24-.207-.633-.342-1.182l-.416-1.078 2.677-.376c1.341-.063 1.867-.704 1.578-1.926l-2.466-17.546 2.158-.304 2.558 18.196c.419 2.149-.436 3.374-2.565 3.674zm-.111-38.346c.6-1.157 1.03-2.069 1.288-2.737l-4.146.582.354 2.507 2.504-.352zm9.46 32.203c-2.071-3.875-4.062-7.381-5.969-10.521l1.895-.929c2.434 3.951 4.468 7.357 6.104 10.219l-2.03 1.231zm1.783-13.603l-.273-1.949 7.08-.995.273 1.95-2.505.352.744 5.292 2.417-.34.274 1.95-2.418.34.86 6.127 2.438-.816.287 2.042c-.336.111-.784.269-1.342.473-2.425.719-4.271 1.357-5.542 1.915l-.547-2.006c.838-.307 1.762-.626 2.771-.958l-.913-6.499-2.418.34-.273-1.95 2.417-.34-.742-5.292-2.588.364zm3.856-15.141c.305 2.166-.218 3.88-1.565 5.143l-.896-.726c.923-.951 1.3-2.234 1.132-3.852l-1.468.207-.431-3.063 2.85-.4.378 2.691zm4.122 13.641l-.287-2.042 11.829-1.663.287 2.042-4.922.692c-.171 1.287-.525 2.946-1.062 4.977l1.209-.17 1.957 13.926-1.984.279-1.696-12.069c-.821 2.515-2.045 5.084-3.671 7.711-.434-.57-.978-1.094-1.629-1.57 2.475-3.692 4.046-7.953 4.719-12.781l-4.75.668zm12.758 11.84c-1.422-1.756-3.182-3.844-5.282-6.264l1.312-1.32c1.519 1.618 3.324 3.604 5.416 5.96l-1.446 1.624zm-2.292-42.011l-.301-2.135 19.857-2.791.301 2.135-7.685 1.08c-.646 1.669-1.362 3.254-2.149 4.752l1.468-.207 1.957 13.926-2.244.315-1.813-12.904c-1.707 2.891-4.008 5.739-6.898 8.543-.067-.053-.171-.166-.312-.335-.631-.731-1.08-1.205-1.344-1.421 4.373-3.959 7.289-8.061 8.747-12.306l-9.584 1.348zm3.614 29.521l-.287-2.042 5.526-.776-.379-2.692 2.071-.292.378 2.692 5.439-.765-.378-2.692 2.072-.292.378 2.692 5.525-.776.286 2.042-5.524.776.312 2.228-2.072.292-.312-2.229-5.439.765.313 2.228-2.072.292-.313-2.229-5.524.778zm16.44 12.363c-.452.127-1.541.312-3.269.554-.162-.735-.385-1.492-.671-2.272l1.036-.146c.812-.051 1.451-.109 1.912-.174 1.801-.126 2.552-1.052 2.251-2.778-.095-1.501-.224-2.84-.39-4.016l-8.114 1.141 1.631 11.604-2.158.303-1.632-11.604-5.181.728-.286-2.042 17.698-2.487c.293 2.926.479 5.078.556 6.454.411 2.909-.717 4.488-3.383 4.735zm.317-32.25c-3.103-2.026-5.638-3.563-7.604-4.612l1.158-1.772c.57.299 1.432.778 2.579 1.437 2.355 1.311 4.074 2.268 5.158 2.873l-1.291 2.074zm4.863 5.182l-2.922-20.795 18.39-2.584 2.453 17.453c.41 2.087-.42 3.278-2.492 3.569-.913.19-2.002.376-3.268.554-.087-.619-.331-1.311-.731-2.074l2.937-.413c1.281-.055 1.788-.63 1.518-1.729l-2.113-15.04-14.333 2.015 2.637 18.753-2.076.291zm1.346-14.863l-.273-1.95 11.741-1.65.273 1.95-11.741 1.65zm2.69 9.751l-1.058-7.52 9.065-1.274 1.057 7.52-9.064 1.274zm1.104-5.93l.535 3.807 5.267-.74-.534-3.806-5.268.739zm3.249 35.063c.305 2.166-.218 3.879-1.565 5.143l-.895-.727c.923-.951 1.299-2.234 1.131-3.851l-1.468.206-.431-3.063 2.85-.4.378 2.692z"/></svg>