<?xml version="1.0" encoding="utf-8"?>
<!-- Generator: Adobe Illustrator 16.0.0, SVG Export Plug-In . SVG Version: 6.00 Build 0)  -->
<!DOCTYPE svg PUBLIC "-//W3C//DTD SVG 1.1//EN" "http://www.w3.org/Graphics/SVG/1.1/DTD/svg11.dtd">
<svg version="1.1" id="图层_1" xmlns="http://www.w3.org/2000/svg" xmlns:xlink="http://www.w3.org/1999/xlink" x="0px" y="0px"
	 width="640px" height="318px" viewBox="0 0 640 318" enable-background="new 0 0 640 318" xml:space="preserve">
<polygon fill="#361C00" stroke="#D5B281" stroke-miterlimit="10" points="-1,48 341.633,0.095 351.236,68.423 -1,115 "/>
<path fill="#FFFFFF" d="M43.15,84.867c-4.743,1.061-8.687,2.143-11.834,3.241l-2.407-5.381c1.071-1.069,1.928-2.373,2.569-3.911
	c0.759-1.552,1.45-3.163,2.073-4.828c-1.439,0.202-2.98,0.551-4.623,1.044l-0.359,0.05l-2.407-5.381
	c0.711-1.018,1.267-2.28,1.669-3.785c1.531-3.895,2.776-8.082,3.738-12.557l6.235,1.293c-0.874,2.49-2.117,5.82-3.732,9.992
	c-0.641,1.539-1.094,2.653-1.364,3.347c1.08-0.151,2.159-0.303,3.238-0.455c0.62-1.665,1.184-3.322,1.686-4.97l5.651,2.361
	c-2.108,5.03-4.315,10.206-6.623,15.526c0.72-0.101,2.079-0.421,4.083-0.968c0.941-0.262,1.592-0.421,1.952-0.472
	c0.054,0.387,0.065,0.913,0.038,1.573C42.865,82.411,43.005,83.837,43.15,84.867L43.15,84.867z M54.003,81.172l-2.991-4.313
	c0.486,7.821-0.874,15.112-4.079,21.874c-0.139-0.113-0.337-0.217-0.594-0.311c-1.242-1.009-2.803-2.105-4.681-3.287
	c-0.583,0.211-1.464,0.468-2.644,0.766c-3.507,1.149-6.083,1.97-7.724,2.466l-1.796-6.256l14.298-3.982
	c1.439-4.542,1.781-10.374,1.025-17.5c-0.301-5.609-0.911-11.706-1.835-18.282l6.295-0.885c0.616,4.385,1.238,9.688,1.869,15.91
	c0.451,0.596,1.186,1.479,2.207,2.648c1.608,1.879,2.784,3.292,3.53,4.237c0.125-1.725,0.06-3.491-0.194-5.298
	c-0.31-4.819-0.982-10.907-2.015-18.256l6.295-0.885c0.254,1.807,0.527,4.2,0.826,7.181c0.489,3.481,0.772,5.941,0.853,7.375
	c2.463,10.569,6.271,18.516,11.421,23.838l-3.654,6.628c-3.844-4.717-6.607-9.59-8.291-14.613c-0.3,5.697-1.827,11.366-4.579,17.014
	l-5.23-4.59c3.027-5.421,4.536-11.22,4.524-17.4L54.003,81.172z M76.53,56.705l-0.761-5.416l18.167-2.553L92.395,45.6l7.653-1.667
	c0.523,1.11,1.002,2.358,1.443,3.742l17.448-2.452l0.761,5.416L76.53,56.705z M80.4,85.548l-0.734-5.222l19.426-2.73l-0.027-0.193
	l7.92-3.677l-24.103,3.387l-0.707-5.028l35.255-4.955l0.707,5.029l-7.174,3.77l12.052-1.694l0.734,5.222l-17.088,2.401l0.217,1.547
	c0.68,3.979-0.947,6.312-4.886,6.998c-1.781,0.38-4.77,0.868-8.966,1.458c-0.018-0.13-0.116-0.378-0.289-0.749
	c-0.423-1.256-0.991-2.689-1.705-4.296c2.397-0.337,4.736-0.666,7.015-0.986c1.557-0.219,2.177-1.027,1.859-2.431l-0.082-0.58
	L80.4,85.548z M83.523,69.923l-1.686-11.992l32.917-4.626l1.685,11.992L83.523,69.923z M88.84,62.075l0.354,2.514l20.326-2.856
	l-0.354-2.515L88.84,62.075z M131.705,72.619l-4.268-30.365l16.728-2.351l1.604,11.411c2.02-4.752,3.374-9.479,4.06-14.18
	l6.072,0.133c-0.263,1.615-0.585,3.238-0.966,4.87l13.67-1.921c1.987,15.894,3.364,26.548,4.125,31.963
	c0.743,5.286-1.224,8.259-5.9,8.916c-2.5,0.481-5.071,0.91-7.708,1.28c-0.423-1.256-1.019-2.883-1.786-4.877
	c-0.193-0.497-0.306-0.875-0.343-1.135c2.416-0.207,4.583-0.447,6.502-0.717c2.655-0.24,3.714-1.834,3.18-4.786l-0.109-0.773
	l-3.38,2.053c-0.45-0.593-0.792-1.27-1.019-2.026c-2.98,0.551-5.531,1.107-7.653,1.667c-0.462,0.198-1.164,0.429-2.104,0.69
	c-0.804,0.378-1.385,0.589-1.744,0.64l-2.288-3.229l0.027,0.194l-4.497,0.632l-3.343-23.79l-7.915,1.112l3.371,23.983
	L131.705,72.619z M148.761,83.042l-7.58-5.641c-0.735,2.6-2.755,5.645-6.053,9.134c-0.433-0.466-1.161-1.285-2.179-2.455
	c-0.883-1.059-1.611-1.878-2.18-2.455c5.506-4.324,7.425-10.246,5.757-17.771l-1.93-13.732l4.856-0.683l2.011,14.313
	c0.381,2.708,0.536,5.121,0.466,7.232c1.602,0.958,3.953,2.471,7.057,4.531c1.225,0.882,2.171,1.538,2.844,1.967L148.761,83.042z
	 M152.954,48.923c-0.837,2.75-1.821,5.319-2.952,7.712l-3.907-3.001l1.957,13.926c0.423-0.454,0.916-1.312,1.473-2.574
	c0.185-0.42,0.328-0.703,0.431-0.85c1.104-3.44,1.958-7.375,2.561-11.799l5.668,1.176c-0.317,1.228-0.819,2.876-1.506,4.945
	c-0.986,3.427-1.739,5.899-2.259,7.418l4.802-1.069l-2.712-4.944l4.072-2.347c0.659,1.223,1.641,2.993,2.947,5.306
	c1.182,2.333,2.105,4.111,2.767,5.331c-0.407-3.755-1.315-10.663-2.729-20.72L152.954,48.923L152.954,48.923z M183.521,48.967
	c-0.07,2.114-0.149,4.163-0.237,6.147c-0.774-0.286-2.158-0.551-4.147-0.798c0.276-4.113,0.089-9.807-0.566-17.08l4.551-0.245
	c0.151,1.951,0.225,3.783,0.222,5.491l1.979-0.278l-1.386-9.864l5.936-0.834l1.386,9.864l2.698-0.379l0.381,2.708
	c1.993-4.092,3.193-8.6,3.602-13.523l6.153,0.713c-0.33,2.019-0.733,3.918-1.218,5.694l16.908-2.376
	c0.514,4.532,1.258,11.133,2.233,19.804c0.483,5.193,0.836,8.561,1.054,10.108c0.761,5.416-1.25,8.524-6.026,9.328
	c-1.781,0.379-3.812,0.733-6.088,1.053c-0.037-0.26-0.153-0.638-0.343-1.135c-0.668-2.143-1.236-3.574-1.704-4.297
	c-1.545,2.057-3.476,4.433-5.786,7.125c-0.692-0.562-1.935-1.571-3.727-3.026c-0.828-0.672-1.44-1.113-1.836-1.319
	c8.178-7.066,11.867-16.919,11.07-29.563l-1.979,0.278c0.289,9.032-1.908,16.441-6.598,22.228l-3.934-3.194
	c-0.121,0.017-0.232,0.101-0.333,0.244c-0.342,0.18-0.872,0.32-1.592,0.421l2.175,15.473l-5.936,0.834l-1.957-13.926
	c-2.086,0.82-4.343,1.729-6.771,2.727l-1.6-7.467c0.581-0.211,1.574-0.548,2.976-1.01c1.862-0.656,3.327-1.124,4.388-1.406
	l-1.25-8.897L183.521,48.967L183.521,48.967z M200.893,43.37c-1.094,2.653-2.26,5.249-3.491,7.789
	c-0.278-0.223-0.701-0.623-1.27-1.202c-1.003-1.042-1.85-1.842-2.539-2.405l-1.439,0.203l1.06,7.543
	c1.043-0.409,2.095-0.754,3.156-1.035c0.024,1.05,0.205,2.338,0.543,3.868c3.19-4.261,5.056-9.256,5.598-14.988L200.893,43.37
	L200.893,43.37z M216.525,59.318c-0.873-8.817-1.467-14.784-1.781-17.895l-1.979,0.278c1.138,12.463,0.005,21.368-3.4,26.71
	c1.799-0.253,3.355-0.472,4.677-0.657c2.294-0.19,3.254-1.641,2.874-4.349C216.825,62.762,216.694,61.399,216.525,59.318
	L216.525,59.318z M239.926,54.058c-1.473,2.574-3.435,5.152-5.884,7.73c-1.027-2.09-2.176-4.163-3.442-6.222
	c2.912-2.776,5.32-6.073,7.231-9.892c-0.459-1.513-0.957-2.889-1.498-4.128c-0.103,0.147-0.255,0.366-0.458,0.656
	c-0.934,1.185-2.192,2.675-3.773,4.475c-1.027-2.09-2.099-4.044-3.208-5.86c0.305-0.438,0.773-1.027,1.401-1.775
	c0.526-0.598,1.411-1.708,2.65-3.331c-1.351-1.782-3.021-3.649-5.007-5.607l4.133-4.525c1.792,1.458,3.358,3.013,4.691,4.666
	c0.082-0.273,0.278-0.63,0.583-1.068c0.862-1.699,1.468-3.032,1.822-4.003l5.4,3.186c-0.084,0.277-0.269,0.697-0.556,1.262
	c-1.455,2.704-2.64,4.71-3.556,6.022c2.811,4.339,4.943,12.125,6.401,23.36c1.235,7.056-0.734,10.883-5.907,11.481
	c-0.943,0.262-2.612,0.564-5.009,0.901c-0.338-1.531-0.929-3.552-1.77-6.062c1.216-0.039,2.484-0.152,3.805-0.337
	c2.537-0.224,3.507-2.003,2.918-5.341c-0.09-0.644-0.288-1.602-0.588-2.876C240.126,55.478,239.999,54.575,239.926,54.058
	L239.926,54.058z M245.482,33.554l-0.924-6.576l25.362-3.564l0.924,6.576l-9.713,1.365l1.414,10.058l8.634-1.214l0.924,6.576
	l-8.634,1.213l1.549,11.024l10.613-1.491l0.897,6.382l-27.521,3.868l-0.897-6.382l10.252-1.441l-1.549-11.024l-8.634,1.213
	l-0.924-6.576l8.634-1.213l-1.413-10.057L245.482,33.554z M295.979,56.634l-3.819-4.986c-0.958,2.767-2.755,6.501-5.395,11.211
	c-0.469-0.723-1.104-1.752-1.901-3.086c-0.918-1.316-1.612-2.337-2.081-3.061c2.452-4.289,4.14-7.944,5.062-10.967
	c-1.333-1.652-3.412-4.254-6.232-7.802c-0.9-1.187-1.576-2.078-2.026-2.674l4.421-3.777l5.35,6.743
	c0.394-2.422,0.471-5.786,0.232-10.091l-9.893,1.39l-0.897-6.382l16.009-2.25l0.924,6.576c0.021,2.758-0.029,5.462-0.145,8.106
	c2.368-6.644,3.707-13.208,4.019-19.696l6.611,0.057l-0.705,5.424l15.829-2.225l0.87,6.189l-1.366,9.856
	c-2.028-0.504-4.079-0.74-6.153-0.713l1.251-8.065l-11.692,1.643c-0.747,3.393-1.603,6.867-2.571,10.42
	c-0.517-0.189-1.299-0.539-2.349-1.051c-1.687-0.681-2.916-1.168-3.689-1.454c-0.221,2.792-0.619,5.609-1.197,8.452l6.025,7.634
	L295.979,56.634z M311.26,46.597c-0.578,5.474-3.717,10.976-9.419,16.511c-1.593-1.749-3.363-3.472-5.313-5.17
	c6.697-5.41,9.91-11.713,9.632-18.907c-0.054-0.387-0.077-0.976-0.064-1.766c-0.142-2.741-0.338-5.013-0.592-6.82l6.295-0.885
	l0.391,4.087c1.885,9.073,6.933,15.396,15.14,18.976c-1.491,2.443-2.641,4.71-3.447,6.796
	C318.062,56.292,313.856,52.02,311.26,46.597L311.26,46.597z"/>
</svg>
