<?xml version="1.0" encoding="utf-8"?>
<!-- Generator: Adobe Illustrator 16.0.0, SVG Export Plug-In . SVG Version: 6.00 Build 0)  -->
<!DOCTYPE svg PUBLIC "-//W3C//DTD SVG 1.1//EN" "http://www.w3.org/Graphics/SVG/1.1/DTD/svg11.dtd">
<svg version="1.1" id="图层_1" xmlns="http://www.w3.org/2000/svg" xmlns:xlink="http://www.w3.org/1999/xlink" x="0px" y="0px"
	 width="640px" height="640px" viewBox="0 0 640 640" enable-background="new 0 0 640 640" xml:space="preserve">
<polygon fill="#A1679C" stroke="#F6C0F1" stroke-miterlimit="10" points="-1,108.5 643,15.5 643,164.5 -1,255.5 "/>
<polygon fill="#B77DAF" points="120.218,237.692 -1,255.083 -1,109 264.834,70.667 "/>
<polygon fill="#B478AD" points="514.095,182.125 603.044,21.812 643.548,15.917 644.55,163.831 "/>
<polygon fill="#B478AD" points="-1,109 -1,255.083 172.215,230.502 54.16,101.083 "/>
<polyline fill="#B77DAF" points="559,28.333 643.548,15.917 644.55,130.333 "/>
<path fill="#FFFFFF" d="M43.61,136.732c-1.059-0.923-2.072-1.728-3.039-2.413l1.085-1.572c1.023,0.677,2.061,1.447,3.112,2.308
	L43.61,136.732z M44.044,142.919c-0.123-0.045-0.287-0.18-0.492-0.404c-1.221-0.837-2.156-1.496-2.803-1.973l0.987-1.654
	c1.269,0.769,2.396,1.557,3.381,2.365L44.044,142.919z M45.756,145.803c-0.306,3.2-0.544,6.041-0.718,8.527l-1.885-0.398
	c0.353-3.269,0.564-6.105,0.632-8.515c0.244,0.093,0.783,0.207,1.616,0.341C44.749,145.661,44.868,145.676,45.756,145.803
	L45.756,145.803z M45.074,137.852l-0.274-1.949l3.331-0.468c-0.398-0.764-0.876-1.896-1.435-3.396l1.84-0.542
	c0.108,0.364,0.329,0.9,0.662,1.611c0.349,0.836,0.62,1.522,0.813,2.063l-0.085,0.012l2.135-0.3l0.274,1.95l-4.015,0.564
	l0.384,3.354l3.844-0.541c0.122,0.868,0.275,2.171,0.462,3.911c0.317,2.67,0.529,4.597,0.638,5.78
	c0.252,1.794-0.419,2.804-2.013,3.028c-0.504,0.133-1.041,0.241-1.61,0.321l-0.615-1.901c0.568-0.08,0.995-0.14,1.281-0.18
	c0.976-0.075,1.371-0.571,1.184-1.492c-0.052-0.372-0.107-0.963-0.163-1.776c-0.252-2.616-0.456-4.48-0.612-5.595l-2.221,0.313
	c0.026,0.186,0.048,0.341,0.065,0.464c0.521,4.535,0.167,8.213-1.062,11.037l-1.648-1.188c1.145-2.18,1.474-5.414,0.988-9.701
	c-0.112-1.625-0.316-3.49-0.612-5.594L45.074,137.852z M49.787,177.535c-0.098,1.781-0.538,3.609-1.319,5.487
	c-0.188-0.101-0.508-0.307-0.958-0.623c-0.451-0.315-0.77-0.523-0.958-0.623c0.71-1.551,1.104-3.09,1.181-4.616
	c0.093-1.4-0.078-3.648-0.513-6.744l-1.161-8.263l18.449-2.593l0.287,2.042l-16.399,2.305l0.848,6.035
	C49.712,173.285,49.894,175.816,49.787,177.535L49.787,177.535z M52.458,204.628c-0.561,0.143-1.089,0.312-1.584,0.507l-0.773-1.785
	c0.412-0.373,0.865-1.068,1.362-2.084c0.522-0.831,1.017-1.847,1.488-3.049c-1.302,0.247-2.427,0.5-3.377,0.759L48.8,197.19
	c0.403-0.436,0.752-1.053,1.046-1.851c0.948-2.342,1.643-4.428,2.082-6.257l2.141,0.362c-1.186,3.134-2.207,5.581-3.062,7.341
	l2.72-0.477c0.136-0.271,0.283-0.67,0.441-1.198c0.215-0.535,0.361-0.934,0.441-1.198l1.898,0.491
	c-1.261,3.017-2.527,5.784-3.798,8.297l3.962-0.936c0.009,0.063,0.018,0.125,0.026,0.186c-0.045,0.512-0.023,1.077,0.064,1.695
	c-0.732,0.167-1.687,0.395-2.865,0.687C53.223,204.49,52.743,204.588,52.458,204.628L52.458,204.628z M50.3,169.416l-0.287-2.042
	l15.289-2.149l0.287,2.042l-6.064,0.853l1.357,9.655c0.334,1.972-0.547,3.138-2.645,3.496c-1.016,0.205-2.066,0.385-3.147,0.537
	c-0.31-0.966-0.553-1.659-0.727-2.075c0.967-0.136,1.935-0.272,2.904-0.408c1.204-0.107,1.699-0.712,1.486-1.818l-1.279-9.098
	L50.3,169.416z M56.475,208.419c-2.331,0.769-4.158,1.404-5.48,1.906l-0.616-1.902c0.389-0.117,1.031-0.301,1.925-0.554
	c2.282-0.7,4.032-1.261,5.25-1.685c0.029,0.627,0.093,1.281,0.188,1.961C57.458,208.186,57.035,208.276,56.475,208.419
	L56.475,208.419z M54.001,145.591l-0.261-1.856l3.502-0.492l-0.183-1.3L59,139.019l-4.783,0.672l-0.196-1.393l-0.467,1.013
	c-0.46-0.376-1.009-0.772-1.647-1.188c1.079-2.235,1.826-4.769,2.241-7.605l2.003,0.002c-0.202,1.039-0.409,2.046-0.62,3.022
	l5.381-0.756l0.261,1.856l-6.149,0.864c-0.237,0.791-0.532,1.589-0.883,2.396l6.662-0.937l0.274,1.95l-2.145,3.331l0.104,0.743
	l3.246-0.456l0.261,1.857l-3.246,0.456l0.639,4.549c0.291,1.664-0.388,2.611-2.039,2.843c-0.79,0.173-1.524,0.309-2.208,0.405
	c-0.026-0.186-0.119-0.426-0.275-0.719c-0.136-0.549-0.25-0.944-0.34-1.183c0.683-0.096,1.337-0.188,1.964-0.276
	c0.863-0.059,1.208-0.486,1.039-1.282l-0.574-4.085L54.001,145.591z M69.614,194.076c-0.264,0.605-0.514,1.303-0.751,2.094
	c-2.881-1.489-5.158-3.441-6.833-5.856c-0.835,2.327-2.03,4.356-3.586,6.089l8.541-1.2l0.261,1.856l-8.711,1.225l-0.248-1.764
	c-0.396,0.498-0.822,0.968-1.282,1.411c-0.521-0.81-0.926-1.416-1.214-1.817c2.528-2.249,4.251-5.078,5.165-8.489l2.004,0.002
	l-0.237,0.791C64.593,190.995,66.891,192.881,69.614,194.076L69.614,194.076z M59.403,210.658l-1.344-9.562l10.506-1.477
	l1.344,9.562l-1.879,0.264l-0.183-1.3l-6.747,0.948l0.183,1.3L59.403,210.658z M60.199,202.688l0.652,4.642l6.748-0.948
	l-0.652-4.642L60.199,202.688z M63.394,134.425l-0.261-1.857l2.477-0.348c0.128-1.154,0.236-2.242,0.325-3.264l1.905-0.079
	c-0.005,0.379-0.061,1.019-0.167,1.917c-0.101,0.52-0.164,0.907-0.185,1.162l4.356-0.612l0.261,1.856l-4.869,0.685
	c-0.398,2.959-0.717,5.023-0.958,6.193l2.477-0.348l-0.64-4.549l1.623-0.228l0.639,4.549l2.306-0.324l0.261,1.856l-2.306,0.324
	l0.417,2.971l2.51-0.731c0.047,0.751,0.11,1.405,0.188,1.962l-2.438,0.626l0.64,4.549L70.078,151l-0.613-4.363
	c-1.511,0.402-2.909,0.788-4.192,1.157l-0.458-2.019c0.397-0.056,1.044-0.209,1.938-0.462c1.072-0.212,1.89-0.391,2.451-0.534
	l-0.444-3.156l-3.929,0.552l-0.261-1.857c0.03-0.193,0.076-0.484,0.139-0.872c0.246-1.549,0.462-3.315,0.649-5.298L63.394,134.425z
	 M73.286,172.43c0.25,2.616-0.184,5.105-1.302,7.473c-0.63-0.354-1.285-0.671-1.963-0.955c0.692-1.676,1.086-3.213,1.18-4.616
	c0.093-1.4-0.064-3.556-0.473-6.466l-1.279-9.098l17.338-2.437l2.492,17.732c0.392,1.964-0.409,3.087-2.401,3.367
	c-0.912,0.128-1.823,0.256-2.733,0.384c-0.144-0.611-0.358-1.308-0.642-2.087c0.227-0.032,0.598-0.084,1.11-0.156
	c0.521-0.011,0.923-0.035,1.209-0.075c1.089-0.091,1.541-0.595,1.354-1.516l-0.483-3.435l-5.722,0.804l0.926,6.591l-2.05,0.288
	l-0.926-6.591L73.286,172.43L73.286,172.43z M73.729,192.745c-0.465,0.823-0.963,1.619-1.494,2.387
	c-0.158-0.292-0.418-0.698-0.78-1.215c-0.214-0.285-0.364-0.517-0.446-0.695c1.697-2.383,2.913-4.89,3.646-7.518l1.983,0.479
	c-0.404,1.256-0.874,2.458-1.409,3.606l1.357,9.655l-1.879,0.264L73.729,192.745L73.729,192.745z M84.475,133.829
	c-0.176,0.404-0.422,1.133-0.738,2.187c-2.587-1.466-4.681-3.349-6.281-5.649c-1.036,2.545-2.611,4.975-4.724,7.291
	c-0.149-0.23-0.471-0.659-0.964-1.285c-0.197-0.162-0.333-0.299-0.407-0.416c2.551-2.503,4.212-5.357,4.981-8.558l2.089-0.009
	l-0.297,0.988C79.884,130.91,81.997,132.727,84.475,133.829L84.475,133.829z M71.787,160.522l0.561,3.992l5.466-0.768l-0.561-3.992
	L71.787,160.522z M72.792,167.671c0.139,0.991,0.27,1.919,0.392,2.785l5.466-0.769l-0.561-3.992l-5.466,0.768L72.792,167.671z
	 M76.31,201.187c-0.414,2.015-0.878,3.879-1.392,5.592l-1.911-0.583c0.628-1.729,1.072-3.526,1.332-5.394L76.31,201.187
	L76.31,201.187z M78.87,149.102c-1.994,0.28-3.137-0.633-3.433-2.737l-1.331-9.469l1.879-0.264l0.574,4.085
	c1.674-1.308,3.231-2.821,4.675-4.539l1.431,1.503c-1.872,1.967-3.803,3.722-5.792,5.264l0.378,2.692
	c0.099,1.122,0.743,1.567,1.93,1.338l1.964-0.276c1.138-0.16,1.69-0.773,1.657-1.842c0.032-1.013-0.003-2.083-0.102-3.205
	c0.718,0.152,1.375,0.28,1.97,0.386c0.047,1.572,0.016,2.807-0.089,3.705c0.007,1.703-0.958,2.69-2.894,2.962L78.87,149.102z
	 M80.295,189.267c-0.422,1.133-0.981,2.315-1.679,3.549c-0.132-0.107-0.353-0.234-0.663-0.38c-0.451-0.315-0.804-0.55-1.057-0.704
	c1.228-2.002,2.165-4.217,2.812-6.643l2.017,0.095c-0.08,0.264-0.199,0.659-0.356,1.186c-0.176,0.403-0.28,0.702-0.31,0.896
	l9.31-1.309l0.274,1.95l-0.791,3.046c-0.312-0.146-0.851-0.259-1.616-0.341c-0.124-0.045-0.213-0.065-0.27-0.057l0.699-2.465
	L80.295,189.267L80.295,189.267z M81.04,206.96c-1.823,0.256-2.864-0.544-3.125-2.401l-0.548-3.899l1.964-0.276l0.47,3.342
	c0.13,0.929,0.679,1.325,1.647,1.188l3.587-0.504c1.269-0.053,1.887-0.611,1.854-1.681c0.084-0.642,0.102-1.34,0.055-2.09
	c0.245,0.093,0.637,0.194,1.176,0.308c0.359,0.077,0.628,0.133,0.808,0.17c0.012,0.504-0.03,1.235-0.127,2.195
	c-0.04,0.133-0.055,0.229-0.046,0.291c-0.124,1.594-1.102,2.489-2.932,2.684L81.04,206.96z M82.197,192.881
	c-1.067,1.917-2.13,3.645-3.191,5.182c-0.526-0.431-1.07-0.796-1.635-1.096c0.982-1.274,1.997-2.931,3.046-4.972L82.197,192.881
	L82.197,192.881z M85.025,158.662l-5.723,0.804l0.561,3.992l5.723-0.804L85.025,158.662z M80.138,165.408l0.561,3.992l5.722-0.804
	l-0.561-3.992L80.138,165.408z M83.862,202.871c-0.897-1.01-1.903-1.972-3.019-2.889l1.295-1.318
	c1.041,0.801,2.096,1.694,3.164,2.68L83.862,202.871z M83.919,198.319c-0.57,0.08-1.225,0.172-1.965,0.276
	c-0.193-0.541-0.421-1.139-0.688-1.796c0.407,0.006,0.981-0.043,1.722-0.147c0.91-0.128,1.281-0.59,1.111-1.387l-0.718-5.106
	l1.879-0.264l0.756,5.384C86.317,197.004,85.619,198.018,83.919,198.319L83.919,198.319z M88.838,130.943
	c-0.465,0.823-1.049,1.631-1.75,2.423c-0.232-0.408-0.574-0.771-1.024-1.087c1.153-1.298,1.967-2.738,2.441-4.319l1.504,0.167
	c-0.04,0.133-0.099,0.331-0.178,0.593c-0.127,0.334-0.211,0.567-0.25,0.698l1.623-0.228l-0.522-3.714l1.623-0.228l0.156,1.114
	l3.417-0.48l0.183,1.3l-3.417,0.48l0.183,1.299l2.819-0.396l0.222,1.578c-1.672,2.571-4.343,4.84-8.015,6.807
	c-0.083-0.177-0.265-0.436-0.544-0.775c-0.223-0.347-0.4-0.574-0.531-0.683c1.314-0.563,2.449-1.164,3.405-1.804l-1.576-1.293
	l0.908-0.979c0.31,0.146,0.724,0.404,1.241,0.772c0.319,0.208,0.573,0.361,0.762,0.461c0.832-0.685,1.62-1.49,2.36-2.415
	L88.838,130.943L88.838,130.943z M90.963,196.382c-0.394-0.323-0.957-0.812-1.687-1.467c-1.068-0.986-1.93-1.748-2.586-2.287
	l1.197-1.399c1.443,1.186,2.92,2.398,4.431,3.637L90.963,196.382z M105.909,132.804c-1.432-0.682-2.797-1.311-4.097-1.885
	c-0.851,0.562-1.838,1.174-2.964,1.836c2.481,1.545,5.492,2.511,9.03,2.896c-0.04,0.133-0.123,0.365-0.25,0.698
	c-0.158,0.528-0.277,0.924-0.356,1.186c-0.482-0.122-1.205-0.304-2.167-0.547c-0.483-0.122-0.842-0.197-1.077-0.227l0.652,4.642
	c0.315-0.233,0.574-0.459,0.776-0.677l1.194,1.063c-1.091,0.911-2.046,1.551-2.866,1.917l4,0.574l-0.658,1.512
	c-0.359-0.076-0.865-0.162-1.517-0.26c-3.329-0.542-5.853-0.945-7.573-1.208c-0.005,0.379,0.032,0.848,0.11,1.405
	c-1.389,0.447-3.021,1.024-4.896,1.729c-0.106,0.077-0.296,0.167-0.572,0.27c-0.269,0.164-0.458,0.254-0.572,0.27l-0.964-1.284
	c0.345-0.427,0.48-0.919,0.402-1.477l-0.874-6.22c-0.784,0.616-1.607,1.172-2.465,1.672c-0.066-0.053-0.141-0.17-0.223-0.348
	c-0.42-0.509-0.737-0.905-0.952-1.191c3.996-2.139,7.044-4.619,9.145-7.439l1.478-0.019l-0.111-0.173
	c0.105-0.077,0.295-0.167,0.572-0.27c0.591-0.334,1.235-0.709,1.933-1.124c-0.312-0.146-0.778-0.364-1.399-0.655
	c-0.613-0.229-1.075-0.417-1.385-0.563l0.855-1.351l3.336,1.424c0.67-0.598,1.334-1.449,1.993-2.552l-6.15,0.864l-0.222-1.579
	l8.029-1.128l0.235,1.671c-0.825,1.568-1.569,2.682-2.23,3.343l3.618,1.574L105.909,132.804z M92.066,203.611
	c-1.054-1.303-2.33-2.733-3.826-4.291l1.381-1.33c1.487,1.495,2.823,2.949,4.009,4.359L92.066,203.611z M102.318,137l-9.908,1.393
	l0.183,1.3l9.907-1.393L102.318,137z M94.756,170.177c-0.014,0.318-0.036,0.573-0.066,0.767c-0.67-0.221-1.389-0.373-2.154-0.455
	c0.418-2.393,0.798-5.476,1.139-9.249l2.056,0.374C95.583,163.466,95.259,166.32,94.756,170.177L94.756,170.177z M92.92,142.014
	l9.907-1.393l-0.183-1.299l-9.908,1.392L92.92,142.014z M101.767,143.61c0.209-0.155,0.525-0.389,0.947-0.701
	c0.307-0.295,0.832-0.685,1.578-1.168l-11.188,1.572l0.326,2.321c1.379-0.51,2.687-0.915,3.923-1.214l-1.163-0.215l0.514-1.303
	L101.767,143.61z M97.742,134.804c0.074,0.117,0.166,0.355,0.275,0.719c0.166,0.355,0.262,0.626,0.288,0.812l3.246-0.456
	c-1.603-0.658-3.145-1.514-4.628-2.568c-0.975,1.336-2.164,2.576-3.571,3.721l3.331-0.468c-0.009-0.061-0.051-0.15-0.125-0.267
	c-0.026-0.186-0.164-0.545-0.413-1.078L97.742,134.804z M96.5,205.161l-2.557-18.196l2.306-0.324
	c0.021-0.254,0.059-0.607,0.113-1.057c0.131-0.712,0.205-1.639,0.219-2.776l2.188,0.071c-0.129,1.154-0.285,2.312-0.47,3.474
	l3.844-0.541l2.531,18.011l-1.879,0.264l-0.248-1.764l-4.355,0.612l0.274,1.95L96.5,205.161z M96.195,188.731l0.718,5.106
	l4.356-0.612l-0.718-5.106L96.195,188.731z M102.286,174.799c-2.27,0.381-3.549-0.67-3.84-3.153l-1.839-13.09l2.05-0.288
	l1.774,12.626c0.143,1.433,0.864,2.025,2.166,1.778l3.075-0.432c1.367-0.192,2.019-0.914,1.96-2.169
	c0.004-0.379,0.006-0.979,0.008-1.8c-0.031-0.626-0.039-1.098-0.025-1.417c0.718,0.152,1.468,0.331,2.252,0.535
	c0.004,0.442-0.003,1.011-0.021,1.707c0.007,0.884-0.015,1.549-0.068,1.998c-0.147,1.851-1.278,2.893-3.393,3.128L102.286,174.799z
	 M97.2,195.88l0.744,5.292l4.356-0.612l-0.744-5.292L97.2,195.88z M97.804,132.145c0.188,0.101,0.381,0.23,0.578,0.392
	c-0.066-0.053-0.141-0.17-0.223-0.348c-0.132-0.107-0.23-0.188-0.295-0.242L97.804,132.145L97.804,132.145z M103.68,159.929
	c-1.299-1.394-3.045-3.075-5.237-5.039l1.243-1.689c1.903,1.564,3.669,3.177,5.296,4.841L103.68,159.929z M111.592,202.851
	c-1.14,0.16-2.335,0.328-3.587,0.504c-0.153-0.674-0.4-1.396-0.74-2.168c0.748-0.043,1.863-0.167,3.344-0.375
	c1.611-0.101,2.3-0.986,2.065-2.657c-0.078-1.376-0.401-4.298-0.97-8.762c-0.127-1.308-0.228-2.24-0.306-2.797l-5.125,0.72
	c-0.15,0.589-0.407,1.446-0.771,2.57c-0.159,0.528-0.277,0.924-0.356,1.186c-0.565-0.299-1.187-0.59-1.865-0.874
	c0.993-2.852,1.663-5.725,2.012-8.614l2.03,0.188c-0.063,0.388-0.159,0.938-0.291,1.65c-0.124,0.775-0.216,1.356-0.278,1.743
	l6.32-0.888c0.557,3.961,1.095,8.619,1.616,13.974C115.065,200.91,114.031,202.444,111.592,202.851L111.592,202.851z
	 M109.069,196.673c-0.347-0.392-0.865-0.982-1.555-1.77c-0.981-1.188-1.746-2.089-2.296-2.707l1.38-1.33
	c0.485,0.563,1.205,1.346,2.159,2.348c0.814,0.832,1.431,1.503,1.851,2.012L109.069,196.673z M111.405,167.175
	c-0.77-1.343-2.076-3.401-3.916-6.171c-0.364-0.517-0.619-0.891-0.767-1.123l1.735-1.285c0.362,0.517,0.879,1.296,1.548,2.338
	c1.535,2.246,2.604,3.863,3.208,4.851L111.405,167.175z M111.95,127.599c-0.317,1.875-0.806,3.774-1.464,5.696l-1.358-1.608
	c0.909-3.03,1.44-6.072,1.592-9.123l1.918,0.014c-0.071,1.146-0.184,2.204-0.338,3.172l4.185-0.588l0.248,1.764l-0.819,4.091
	c-0.057,0.008-0.175-0.006-0.354-0.045c-0.359-0.075-0.833-0.134-1.419-0.179l0.884-3.627L111.95,127.599L111.95,127.599z
	 M114.74,143.111c-0.202,0.218-0.379,0.4-0.533,0.548l-1.417-1.41c0.394-0.496,0.535-1.147,0.422-1.953l-1.344-9.563l1.879-0.264
	l1.357,9.655c0.307-0.294,0.767-0.738,1.38-1.33c0.614-0.591,1.049-1,1.309-1.225c0.1,0.302,0.218,0.727,0.354,1.275
	c0.174,0.418,0.275,0.719,0.301,0.904c-1.035,0.903-2.097,1.81-3.188,2.721C115.162,142.61,114.989,142.824,114.74,143.111
	L114.74,143.111z M114.705,154.684l-0.235-1.671l8.883-1.249c-0.249-0.533-0.498-1.066-0.747-1.599l2.28-0.51
	c0.249,0.533,0.507,1.128,0.773,1.785l8.712-1.225l0.235,1.671L114.705,154.684z M118.731,199.486l-2.44-17.36l5.808-0.816
	l2.192,15.597l-4.014,0.564l0.248,1.764L118.731,199.486z M125.473,167.466c-0.789,0.175-1.951,0.369-3.489,0.585
	c-0.043-0.309-0.198-0.792-0.465-1.449c0.231,0.41,0.189,0.321-0.125-0.267c0.692-0.034,1.692-0.143,3.002-0.327
	c1.025-0.144,1.451-0.614,1.282-1.411l-0.157-1.114l4.417-2.041l-13.068,1.836l-0.235-1.671l16.741-2.353l0.261,1.857l-6.033,2.931
	l0.104,0.743C127.982,166.325,127.237,167.218,125.473,167.466L125.473,167.466z M119.405,172.011
	c-0.207,0.597-0.35,1.027-0.428,1.291c-0.124-0.046-0.303-0.084-0.539-0.114c-0.604-0.168-1.054-0.263-1.346-0.284
	c0.701-1.613,1.223-3.074,1.561-4.385l1.944,0.2C120.36,169.51,119.961,170.607,119.405,172.011L119.405,172.011z M128.075,130.161
	c-0.312-0.146-0.851-0.259-1.616-0.341c-0.124-0.044-0.213-0.064-0.27-0.057l1.075-4.127l-6.833,0.96
	c-0.225,1.295-0.669,3.092-1.333,5.394c-0.508-0.307-1.154-0.563-1.937-0.769c1.088-2.993,1.764-6.243,2.026-9.752l2.017,0.095
	c-0.089,1.023-0.21,2.018-0.364,2.986l8.028-1.128l0.287,2.042L128.075,130.161z M117.893,160.011l-0.6-4.271l15.032-2.113
	l0.6,4.271L117.893,160.011z M123.938,134.813c-0.184,3.245-1.838,6.349-4.962,9.313c-0.141-0.169-0.411-0.448-0.813-0.832
	c-0.403-0.386-0.674-0.663-0.814-0.833c3.396-2.686,5.069-6.076,5.016-10.172c-0.069-1.316-0.216-2.777-0.442-4.388l1.964-0.276
	c0.052,0.372,0.105,0.964,0.163,1.776c0.087,0.619,0.148,1.053,0.183,1.3c1.4,4.6,3.896,7.688,7.486,9.267
	c-0.417,0.752-0.782,1.466-1.092,2.142C127.464,140.282,125.236,137.85,123.938,134.813L123.938,134.813z M118.359,183.823
	l1.631,11.605l2.306-0.324l-1.631-11.604L118.359,183.823z M119.453,156.856l0.208,1.486l11.189-1.573l-0.209-1.485L119.453,156.856
	z M123.977,172.315c-0.434-1.013-0.964-2.105-1.593-3.279l1.741-0.624c0.166,0.355,0.402,0.795,0.708,1.321
	c0.463,0.818,0.786,1.466,0.971,1.946L123.977,172.315z M124.06,184.726l-0.274-1.949l4.356-0.612l-0.522-3.713l1.965-0.276
	l0.521,3.713l4.612-0.648l0.274,1.95l-4.612,0.648l0.482,3.435l5.552-0.78l0.261,1.857l-4.868,0.684
	c1.604,2.742,3.827,4.922,6.668,6.542l-1.033,1.944c-2.688-1.767-4.707-3.945-6.057-6.533l1.318,9.377l-1.964,0.276l-1.318-9.376
	c-0.752,3.324-2.214,6.149-4.383,8.474c-0.543-0.555-1.105-1.043-1.687-1.467c2.52-2.31,4.229-5.233,5.126-8.768l-4.441,0.624
	l-0.261-1.856l5.125-0.72l-0.483-3.435L124.06,184.726z M129.43,171.454c-0.788-1.468-1.437-2.575-1.948-3.324l1.656-0.612
	c0.643,0.856,1.344,1.925,2.105,3.207L129.43,171.454z M135.991,133.97c0.444,3.156,0.259,5.77-0.553,7.84
	c-0.591-0.485-1.145-0.913-1.661-1.281c0.429-1.07,0.648-2.205,0.654-3.405c0.023-1.076-0.148-2.914-0.514-5.513l-1.527-10.862
	l6.235-0.876l2.583,18.382c0.256,1.415-0.293,2.25-1.651,2.504c-0.562,0.141-1.24,0.269-2.037,0.381
	c-0.104-0.743-0.281-1.38-0.53-1.914c0.293,0.021,0.81-0.019,1.551-0.123c0.683-0.096,0.977-0.485,0.881-1.165l-0.613-4.364
	L135.991,133.97L135.991,133.97z M135.336,170.719c-0.875-1.266-1.834-2.519-2.88-3.761l1.715-0.81
	c1.045,1.242,2.029,2.46,2.953,3.656L135.336,170.719z M134.433,122.261l0.574,4.084l2.733-0.384l-0.574-4.085L134.433,122.261z
	 M135.764,131.73l0.065,0.464l2.733-0.384l-0.574-4.085l-2.733,0.384L135.764,131.73z M137.98,180.02l-0.222-1.578l5.637-0.792
	l-0.195-1.393l1.879-0.264l0.196,1.393l5.295-0.745l-0.196-1.393l1.964-0.276l0.196,1.393l5.637-0.792l0.222,1.579l-5.637,0.792
	l0.196,1.393l-1.964,0.276l-0.196-1.393l-5.295,0.745l0.183,1.3l-1.879,0.264l-0.183-1.299L137.98,180.02z M143.229,166.672
	c-0.289,0.419-0.551,0.835-0.783,1.246l-1.378-1.132c0.328-0.55,0.437-1.229,0.324-2.033l-1.122-7.984l-1.879,0.264l-0.287-2.042
	l3.758-0.528l1.278,9.098c0.096-0.14,0.26-0.416,0.494-0.827c0.311-0.674,0.563-1.151,0.757-1.432
	c0.227,0.789,0.469,1.481,0.727,2.075c-0.185,0.343-0.485,0.889-0.901,1.642C143.791,165.71,143.462,166.261,143.229,166.672
	L143.229,166.672z M141.443,152.722c-1.178-1.349-2.271-2.521-3.281-3.515l1.381-1.33c0.131,0.109,0.332,0.301,0.604,0.578
	c1.338,1.264,2.283,2.204,2.835,2.82L141.443,152.722z M148.725,188.923l-0.652-4.642l-6.918,0.973l0.404,2.878l-1.879,0.264
	l-0.587-4.178l8.797-1.236l-0.196-1.393l-7.772,1.092l-0.196-1.393l17.338-2.437l0.196,1.393l-7.687,1.081l0.196,1.393l8.712-1.225
	l0.587,4.178l-1.879,0.264l-0.404-2.878l-6.833,0.96l0.652,4.642L148.725,188.923z M153.954,138.451
	c-0.089,0.202-0.152,0.368-0.191,0.5c-1.839-0.688-3.37-1.452-4.59-2.29c-0.79,0.994-1.823,2.117-3.097,3.37l-1.148-1.354
	l0.248,1.764l-1.793,0.252l-2.949-20.981l9.993-1.405c0.218,1.548,0.354,2.729,0.411,3.54c0.221,1.989-0.641,3.088-2.585,3.298
	c-0.854,0.12-1.793,0.252-2.818,0.396c-0.193-0.541-0.385-1.082-0.577-1.623c0.854-0.12,1.679-0.236,2.477-0.348
	c1.205-0.106,1.737-0.654,1.598-1.645c0.004-0.379-0.036-0.878-0.123-1.497l-6.321,0.888l0.888,6.313l8.456-1.188l0.274,1.95
	c-0.384,2.643-1.004,4.844-1.859,6.604c1.173,0.909,2.6,1.561,4.281,1.955C154.399,137.284,154.208,137.784,153.954,138.451
	L153.954,138.451z M142.645,198.961l-1.148-8.17l16.57-2.329l1.148,8.17l-1.879,0.264l-0.13-0.928l-12.727,1.789l0.131,0.928
	L142.645,198.961z M142.578,187.326l-0.144-1.021l4.612-0.648l0.144,1.021L142.578,187.326z M142.878,189.461l-0.144-1.021
	l4.612-0.648l0.144,1.021L142.878,189.461z M144.875,138.307c1.262-0.935,2.226-1.922,2.894-2.963
	c-1.225-1.279-2.357-3.139-3.397-5.582l0.875-0.596l-1.623,0.228L144.875,138.307z M143.657,191.908l0.235,1.671l5.466-0.768
	l-0.235-1.671L143.657,191.908z M147.475,164.655c-0.094,1.402-0.511,2.974-1.252,4.72l-1.95-0.862
	c0.833-1.506,1.305-2.896,1.417-4.175c0.11-1.277-0.012-3.185-0.369-5.723l-1.461-10.398l13.153-1.849l2.544,18.104
	c0.299,1.724-0.371,2.734-2.013,3.028c-0.627,0.088-1.537,0.216-2.733,0.384l-0.714-1.982c0.919-0.067,1.721-0.147,2.405-0.243
	c0.976-0.075,1.375-0.541,1.197-1.399l-2.231-15.875l-9.566,1.344l1.2,8.541C147.492,161.055,147.617,163.184,147.475,164.655
	L147.475,164.655z M144.062,194.786l0.209,1.485l5.466-0.768l-0.209-1.486L144.062,194.786z M148.755,133.691
	c0.728-1.428,1.238-3.171,1.529-5.232l-4.356,0.612C146.793,131.095,147.736,132.636,148.755,133.691L148.755,133.691z
	 M147.867,153.808l-0.235-1.671l2.563-0.36l-0.261-1.856l1.708-0.24l0.261,1.856l2.562-0.36l0.235,1.671l-2.562,0.36l0.287,2.042
	l3.075-0.432l0.235,1.671l-7.858,1.104l-0.235-1.671l3.075-0.432l-0.287-2.042L147.867,153.808z M149.682,165.481l-0.861-6.127
	l6.406-0.9l0.861,6.127L149.682,165.481z M150.678,160.797l0.392,2.785l3.075-0.432l-0.392-2.785L150.678,160.797z M156.383,190.119
	l-5.466,0.768l0.235,1.671l5.466-0.769L156.383,190.119z M151.46,186.077l-0.144-1.021l4.527-0.636l0.144,1.021L151.46,186.077z
	 M151.322,193.765l0.208,1.485l5.466-0.768l-0.208-1.485L151.322,193.765z M151.761,188.213l-0.144-1.021l4.527-0.636l0.143,1.021
	L151.761,188.213z M165.57,124.512c-2.292,1.458-5.444,2.786-9.457,3.98c-0.075-0.115-0.227-0.378-0.459-0.788
	c-0.289-0.4-0.508-0.717-0.656-0.949c3.793-1.101,6.548-2.151,8.267-3.15c-1.629-0.844-2.981-1.79-4.057-2.838
	c-0.772,1.119-1.69,2.226-2.756,3.322c-0.42-0.509-0.95-0.97-1.588-1.386c2.253-2.146,4.011-4.507,5.275-7.084l2.273,0.06
	c-0.378,0.621-0.702,1.204-0.974,1.746l10.676-1.5l0.274,1.95c-1.4,2.028-2.96,3.729-4.682,5.107
	c2.154,0.455,4.842,0.583,8.066,0.381c-0.229,0.853-0.389,1.569-0.482,2.15C170.999,125.547,167.759,125.214,165.57,124.512
	L165.57,124.512z M170.722,136.379c-0.79,0.173-1.952,0.369-3.489,0.585c-0.026-0.186-0.131-0.519-0.314-0.997
	c-0.127-0.488-0.237-0.852-0.328-1.09c1.081-0.152,2.277-0.32,3.587-0.504c1.506-0.022,2.179-0.811,2.019-2.367
	c-0.026-0.186-0.087-0.618-0.183-1.3c-0.04-0.688-0.075-1.156-0.11-1.404l-6.748,0.948c0.014,3.406-2.314,6.257-6.984,8.555
	c-0.364-0.517-0.857-1.143-1.483-1.874c4.17-1.722,6.281-3.849,6.332-6.381l-5.722,0.804l-0.261-1.857l6.064-0.852
	c0.018-0.696-0.001-1.451-0.057-2.264l2.05-0.288c0.056,0.813,0.075,1.568,0.057,2.264l8.712-1.225
	c0.029,0.627,0.103,1.564,0.221,2.809c0.007,0.884,0.038,1.509,0.09,1.881C174.622,134.6,173.472,136.118,170.722,136.379
	L170.722,136.379z M160.516,178.373l-0.248-1.764l4.014-0.564l-0.365-2.6l1.879-0.264l0.365,2.6l3.502-0.492l-0.378-2.692
	l1.794-0.252l0.378,2.692l3.587-0.504l-0.365-2.599l1.879-0.264l0.365,2.599l3.929-0.552l0.248,1.764l-3.929,0.552l0.339,2.414
	l-1.879,0.264l-0.339-2.414l-3.587,0.504l0.339,2.414l-1.793,0.252l-0.339-2.414l-3.502,0.492l0.339,2.414l-1.879,0.264
	l-0.339-2.414L160.516,178.373z M165.355,122.364c1.587-1.106,3.072-2.514,4.458-4.224l-9.31,1.308
	C161.964,120.758,163.581,121.73,165.355,122.364L165.355,122.364z M161.223,149.665l-0.261-1.857l5.979-0.84
	c-0.599-0.546-1.344-1.293-2.231-2.242l1.874-0.926c1.002,0.933,1.88,1.819,2.638,2.659l-0.487,0.258l4.356-0.612
	c0.426-0.69,1.03-1.754,1.816-3.19c0.047-0.069,0.068-0.135,0.059-0.198l2.128,0.269c-0.136,0.272-0.37,0.684-0.698,1.234
	c-0.369,0.684-0.646,1.196-0.829,1.537l5.894-0.828l0.261,1.857L161.223,149.665z M162.269,185.889l-0.587-4.178l19.303-2.713
	l0.587,4.178l-1.964,0.276l-0.326-2.321l-15.374,2.161l0.326,2.321L162.269,185.889z M164.931,166.752l-2.127-15.132l9.139-1.284
	l1.722,12.254c0.34,1.593-0.316,2.506-1.967,2.738c-0.448,0.125-1.297,0.277-2.549,0.453c-0.092-0.24-0.206-0.634-0.34-1.183
	c-0.158-0.294-0.249-0.533-0.275-0.719c0.797-0.112,1.538-0.216,2.221-0.312c0.863-0.059,1.217-0.424,1.065-1.096l-0.274-1.95
	l-5.466,0.768l0.73,5.199L164.931,166.752z M165.493,193.957l-1.096-7.798l6.577-0.924l-0.287-2.042l2.05-0.288l0.287,2.042
	l6.662-0.937l0.718,5.106c0.291,1.664-0.388,2.611-2.039,2.843c-0.448,0.125-1.268,0.273-2.464,0.441
	c-0.101-0.302-0.234-0.629-0.4-0.985c-0.101-0.301-0.193-0.541-0.275-0.719c0.521-0.01,1.237-0.079,2.148-0.208
	c0.863-0.058,1.204-0.515,1.026-1.375l-0.431-3.063l-4.698,0.66l1.096,7.798l-2.05,0.288l-1.096-7.798l-4.612,0.648l0.848,6.034
	L165.493,193.957z M164.944,153.212l0.326,2.321l5.466-0.768l-0.326-2.321L164.944,153.212z M165.505,157.204l0.339,2.414
	l5.466-0.768l-0.339-2.414L165.505,157.204z M175.835,160.675l-1.436-10.212l1.794-0.252l1.435,10.212L175.835,160.675z
	 M180.068,164.151c-0.96,0.197-1.923,0.365-2.891,0.501l-0.642-2.087c0.521-0.011,1.322-0.091,2.404-0.243
	c1.147-0.099,1.618-0.668,1.414-1.713l-1.657-11.791l1.879-0.264l1.722,12.255C182.69,162.772,181.948,163.887,180.068,164.151
	L180.068,164.151z M197.485,120.593c-4.658-1.743-8.066-3.884-10.222-6.421c-1.909,3.362-4.67,6.432-8.286,9.212
	c-0.569-0.74-1.059-1.333-1.47-1.782c4.111-2.976,6.965-6.217,8.563-9.724l2.345-0.046l-0.25,0.698
	c2.581,2.667,5.962,4.622,10.144,5.864L197.485,120.593z M181.992,123.149l-0.287-2.042l12.641-1.777l0.287,2.042l-5.295,0.745
	l0.457,3.249l6.577-0.924l0.287,2.042l-6.577,0.924l0.509,3.621l8.456-1.188l0.261,1.857l-19.046,2.677l-0.261-1.857l8.456-1.188
	l-0.509-3.62l-6.577,0.924l-0.287-2.042l6.577-0.924l-0.457-3.25L181.992,123.149z M184.359,175.49l-0.274-1.95l7.943-1.116
	l-0.417-2.971l2.05-0.288l0.417,2.971l7.943-1.116l0.274,1.95l-7.943,1.116l0.822,5.849l9.054-1.272l0.274,1.95l-8.2,1.152
	c2.463,2.243,5.556,3.796,9.278,4.661c-0.08,0.264-0.235,0.601-0.467,1.012c-0.167,0.464-0.318,0.833-0.455,1.105
	c-3.993-1.143-6.989-2.835-8.988-5.08l1.109,7.891l-2.05,0.288l-1.122-7.984c-1.563,2.934-4.015,5.52-7.358,7.756
	c-0.298-0.464-0.78-0.996-1.444-1.596c3.247-2.097,5.798-4.602,7.654-7.514l-8.114,1.141l-0.274-1.95l9.054-1.272l-0.822-5.849
	L184.359,175.49z M184.383,145.176l-0.248-1.764l5.637-0.792l-0.274-1.95l1.964-0.276l0.274,1.95l5.21-0.732l-0.274-1.95
	l1.879-0.264l0.274,1.949l5.723-0.804l0.248,1.764l-5.723,0.804l0.157,1.114l-1.879,0.264l-0.157-1.114l-5.21,0.732l0.183,1.3
	l-1.964,0.276l-0.183-1.3L184.383,145.176z M203.768,146.144c-6.268,1.26-12.045,2.293-17.332,3.099l-0.688-1.797
	c6.149-0.864,11.931-1.866,17.345-3.005L203.768,146.144L203.768,146.144z M186.198,156.85l-0.261-1.856l9.054-1.272l-0.209-1.485
	l1.964-0.276l0.209,1.486l9.139-1.285l0.261,1.857l-7.943,1.116c2.262,1.639,5.187,2.617,8.773,2.933
	c-0.057,0.008-0.081,0.042-0.072,0.104c-0.343,0.868-0.569,1.531-0.679,1.989c-4.111-0.748-7.141-2.057-9.088-3.93l0.822,5.849
	l-1.964,0.276l-0.822-5.849c-1.412,2.345-3.927,4.496-7.541,6.456c-0.132-0.108-0.304-0.305-0.519-0.59
	c-0.364-0.517-0.647-0.888-0.853-1.111c3.277-1.47,5.776-3.304,7.5-5.504L186.198,156.85z M189.288,180.194
	c-0.477-0.501-1.216-1.217-2.218-2.15c-0.468-0.438-0.805-0.77-1.011-0.994l1.368-1.423c0.656,0.54,1.593,1.418,2.809,2.635
	c-0.805-0.77-0.669-0.63,0.407,0.417L189.288,180.194z M189.808,153.408c-0.717-0.972-1.516-1.901-2.395-2.788l1.578-1.168
	c0.206,0.224,0.514,0.56,0.925,1.006c0.682,0.725,1.195,1.285,1.542,1.677L189.808,153.408z M195.328,151.78
	c-0.53-0.872-1.181-1.79-1.955-2.755l1.689-0.995c0.279,0.34,0.675,0.884,1.187,1.632c0.354,0.456,0.605,0.8,0.755,1.03
	L195.328,151.78z M200.96,175.24c-0.996,1.592-1.832,2.877-2.507,3.855l-1.562-1.201c0.981-1.274,1.813-2.589,2.493-3.948
	l1.72,1.083C201.056,175.101,201.007,175.171,200.96,175.24L200.96,175.24z M203.089,148.133c-0.842,1.444-1.678,2.73-2.507,3.855
	l-1.707-0.991c0.877-1.196,1.688-2.446,2.435-3.75L203.089,148.133L203.089,148.133z M199.915,113.245l-0.261-1.857l20.242-2.845
	l0.261,1.856l-9.395,1.32l-0.535,3.01l9.224-1.296l2.283,16.247l-1.879,0.264l-0.208-1.485l-14.264,2.004l0.196,1.393l-1.965,0.276
	l-2.27-16.154l6.748-0.948l0.364-2.986L199.915,113.245z M203.569,117.56l1.579,11.233l3.075-0.432l-1.579-11.233L203.569,117.56z
	 M206.227,178.387l-0.222-1.579l20.669-2.905l0.222,1.578l-10.761,1.513l1.096,7.798c0.162-0.085,0.414-0.153,0.756-0.201
	c0.333-0.109,0.584-0.177,0.755-0.201c0.07,0.496,0.139,0.991,0.209,1.485l-1.524,0.309l0.313,2.228l-1.793,0.252l-0.287-2.042
	c-3.031,0.741-5.58,1.414-7.642,2.021l-0.478-1.542l1.853-0.45l-1.2-8.541L206.227,178.387z M208.628,175.02l-0.965-6.87
	l15.032-2.113l0.965,6.87L208.628,175.02z M208.523,116.863l0.378,2.692l4.356-0.612l-0.378-2.692L208.523,116.863z
	 M209.123,121.134l0.378,2.692l4.356-0.612l-0.378-2.692L209.123,121.134z M209.736,125.497l0.365,2.6l4.356-0.612l-0.365-2.6
	L209.736,125.497z M209.823,169.266l0.208,1.485l11.104-1.561l-0.209-1.485L209.823,169.266z M209.985,177.858l0.261,1.857
	l4.356-0.612l-0.261-1.857L209.985,177.858z M210.201,171.958l0.196,1.393l11.104-1.561l-0.196-1.393L210.201,171.958z
	 M210.429,181.015l0.248,1.764l4.356-0.612l-0.248-1.764L210.429,181.015z M211.172,186.307c0.504-0.133,1.23-0.33,2.182-0.591
	c0.959-0.197,1.661-0.359,2.109-0.485l-0.235-1.671l-4.356,0.612L211.172,186.307z M211.938,153.987l1.125-1.294l5.185,4.668
	l-1.184,1.492L211.938,153.987z M217.833,115.555l-3.16,0.444l1.579,11.233l3.16-0.444L217.833,115.555z M227.772,186.056
	c-0.071,0.325-0.126,0.553-0.165,0.686c-1.861-0.434-3.426-1.033-4.695-1.802c-1,1.149-2.241,2.24-3.721,3.269
	c-0.066-0.054-0.141-0.169-0.223-0.347c-0.42-0.509-0.737-0.907-0.951-1.192c1.45-0.835,2.611-1.66,3.484-2.478
	c-1.248-1.023-2.343-2.416-3.287-4.177l0.401-0.246l-1.025,0.144l-0.222-1.578l8.37-1.176l0.235,1.671
	c-0.511,2.155-1.18,3.796-2.008,4.921c1.177,0.53,2.565,0.901,4.164,1.119C228.048,185.133,227.93,185.528,227.772,186.056
	L227.772,186.056z M222.527,182.817c0.715-1.109,1.261-2.386,1.639-3.828l-4.356,0.612
	C220.628,180.876,221.534,181.948,222.527,182.817L222.527,182.817z M227.647,110.483c-1.187,0.23-2.508,0.542-3.962,0.936
	c-0.008-0.061-0.055-0.181-0.137-0.359c-0.17-0.795-0.339-1.372-0.504-1.728c4.121-0.831,7.742-1.718,10.861-2.663l0.714,1.982
	c-0.277,0.103-0.666,0.221-1.17,0.354c-1.511,0.402-2.661,0.691-3.45,0.864l0.822,5.849l6.491-0.912l-1.357-9.655l2.135-0.3
	l1.357,9.655l4.612-0.648l0.287,2.042l-4.612,0.648l1.435,10.212l-2.135,0.3l-1.435-10.212l-6.491,0.912
	c0.823,4.618-0.509,8.37-3.992,11.259c-0.271-0.278-0.867-0.794-1.785-1.548c3.049-2.258,4.264-5.395,3.642-9.411l-5.125,0.72
	l-0.287-2.042l5.125-0.72l-0.783-5.57C227.846,110.456,227.76,110.468,227.647,110.483L227.647,110.483z M236.311,183.337
	c-0.206-0.224-0.495-0.625-0.866-1.204c-0.744-1.158-1.329-2.022-1.758-2.593c-0.41,1.636-1.307,3.719-2.693,6.248
	c-0.446-0.695-0.879-1.296-1.299-1.806c1.268-2.134,2.123-4.306,2.568-6.515c-1.453-2.068-2.83-4.019-4.133-5.856l1.394-1.237
	l3.155,4.479c0.243-1.99,0.276-4.235,0.099-6.736l-4.783,0.672l-0.274-1.95l6.748-0.948l0.287,2.042
	c0.057,3.717-0.124,6.771-0.541,9.165c1.732,2.407,2.928,4.102,3.588,5.081L236.311,183.337z M236.682,172.966
	c-0.312,0.676-0.584,1.218-0.816,1.629c-0.193-0.541-0.573-1.181-1.141-1.922c1.487-3.049,2.456-6.277,2.906-9.686l2.017,0.095
	c-0.208,1.418-0.489,2.719-0.845,3.905l4.015-0.564c-0.232-0.408-0.622-1.111-1.167-2.108c-0.315-0.586-0.547-0.996-0.695-1.228
	l1.813-0.728c0.786,1.468,1.412,2.61,1.875,3.429l-1.314,0.563l4.698-0.66l0.248,1.764l-4.015,0.564l0.444,3.157l3.758-0.528
	l0.248,1.764l-3.758,0.528l0.457,3.25l3.758-0.528l0.248,1.764l-3.758,0.528l0.47,3.342l4.271-0.6l0.222,1.578l-9.993,1.404
	l0.209,1.485l-1.879,0.264l-1.866-13.275C237.001,172.353,236.865,172.625,236.682,172.966L236.682,172.966z M236.688,140.29
	l-0.287-2.042l18.534-2.604l0.287,2.042l-8.199,1.152l0.718,5.106l7.26-1.021l0.3,2.135l-7.26,1.021l0.796,5.663l9.054-1.272
	l0.274,1.95l-20.242,2.845l-0.274-1.95l9.053-1.272l-0.796-5.663l-7.26,1.021l-0.3-2.135l7.26-1.021l-0.718-5.106L236.688,140.29z
	 M238.539,168.823l0.443,3.157l3.844-0.54l-0.444-3.157L238.539,168.823z M239.23,173.744l0.457,3.25l3.844-0.54l-0.457-3.25
	L239.23,173.744z M239.935,178.757l0.47,3.342l3.843-0.54l-0.47-3.342L239.935,178.757z M245.257,136.813
	c-0.341-0.771-0.957-1.854-1.849-3.243l2.057-0.857c0.537,0.935,1.154,2.016,1.85,3.243L245.257,136.813z M252.147,117.643
	c-2.194,0.498-3.592,0.883-4.192,1.157l-0.958-1.854c0.372-0.241,0.806-0.871,1.303-1.887c0.521-0.831,0.993-1.811,1.415-2.944
	c-1.187,0.23-2.199,0.468-3.036,0.711l-0.872-1.866c0.289-0.419,0.604-1.063,0.948-1.932c0.654-1.543,1.265-3.396,1.832-5.559
	l2.056,0.374c-0.04,0.133-0.127,0.334-0.263,0.605c-1.01,2.73-1.799,4.766-2.364,6.107c0.171-0.024,0.512-0.072,1.025-0.144
	c0.73-0.165,1.239-0.269,1.524-0.309c0.399-0.875,0.732-1.807,1.001-2.792l1.924,0.676c-0.703,1.614-1.837,4.078-3.404,7.39
	c-0.225,0.474-0.38,0.811-0.467,1.012l3.792-0.912c-0.019,0.698,0.012,1.324,0.09,1.881
	C253.16,117.405,252.708,117.501,252.147,117.643L252.147,117.643z M253.957,121.837c-1.95,0.591-3.915,1.275-5.895,2.06
	l-0.616-1.902c0.551-0.203,1.441-0.486,2.668-0.848c1.55-0.533,2.74-0.953,3.568-1.259
	C253.778,120.57,253.87,121.22,253.957,121.837L253.957,121.837z M250.314,166.227l-0.274-1.95l9.737-1.368
	c-0.472-0.88-0.965-1.694-1.476-2.444l2.155-0.776c0.585,0.864,1.147,1.765,1.686,2.698l-0.572,0.27l8.883-1.248l0.274,1.949
	l-15.544,2.185l0.6,4.271l13.836-1.945l0.274,1.95l-15.801,2.221l-0.875-6.22L250.314,166.227z M255.351,174.797
	c-0.283,2.123-0.688,4.2-1.215,6.229c-0.556-0.238-1.184-0.369-1.885-0.397c0.519-2.092,0.923-4.168,1.215-6.23L255.351,174.797
	L255.351,174.797z M262.663,119.951c-1.215,1.686-2.684,3.218-4.406,4.596c-0.7-0.849-1.214-1.408-1.542-1.677
	c1.749-1.192,3.206-2.596,4.373-4.212c-1.554-1.548-2.862-3.416-3.923-5.603c0.429,4.294-0.33,8.188-2.278,11.681
	c-0.206-0.224-0.6-0.547-1.182-0.97c-0.197-0.162-0.361-0.297-0.492-0.404c1.153-2.118,1.848-4.204,2.082-6.257
	c0.234-2.052,0.082-4.997-0.458-8.835l-0.28-2.611l-1.793,0.252l-0.274-1.95l10.591-1.488l0.3,2.135l-1.364,4.547l3.502-0.492
	l0.274,1.949c-0.34,2.952-1.059,5.483-2.155,7.593c1.37,1.071,2.94,1.922,4.714,2.556c-0.312,0.674-0.586,1.408-0.823,2.199
	C265.579,121.908,263.958,120.905,262.663,119.951L262.663,119.951z M256.658,106.973c0.026,0.186,0.065,0.464,0.117,0.835
	c-0.005,0.38,0.006,0.662,0.032,0.848c1.489,3.578,3.241,6.33,5.253,8.255c0.825-1.567,1.41-3.606,1.753-6.116l-3.502,0.492
	l-0.274-1.95l1.352-4.64l-4.954,0.696L256.658,106.973z M260.521,181.833c-1.871,0.325-2.954-0.564-3.25-2.667l-0.756-5.385
	l1.964-0.276l0.666,4.734c0.108,1.185,0.756,1.66,1.943,1.431l3.417-0.48c1.318-0.123,1.94-0.651,1.867-1.588
	c-0.018-0.124-0.011-0.283,0.02-0.476c0-0.82-0.001-1.451-0.005-1.893c0.18,0.039,0.449,0.095,0.808,0.17
	c0.539,0.114,0.93,0.217,1.175,0.309c-0.005,1.2-0.045,2.152-0.121,2.857c-0.133,1.533-1.144,2.4-3.031,2.604L260.521,181.833z
	 M258.729,134.727l-0.248-1.764l5.637-0.792l-0.274-1.95l1.964-0.276l0.274,1.95l5.21-0.732l-0.274-1.95l1.879-0.264l0.274,1.949
	l5.723-0.804l0.248,1.764l-5.723,0.804l0.157,1.114l-1.879,0.264l-0.157-1.114l-5.21,0.732l0.183,1.3l-1.964,0.276l-0.183-1.3
	L258.729,134.727z M263.207,176.154c-0.552-0.616-1.411-1.568-2.579-2.856c-0.272-0.277-0.473-0.469-0.604-0.578l1.295-1.318
	c0.467,0.44,1.208,1.156,2.218,2.15c0.476,0.501,0.846,0.86,1.109,1.075L263.207,176.154z M278.113,135.695
	c-6.268,1.26-12.045,2.293-17.332,3.099l-0.688-1.797c6.15-0.864,11.932-1.866,17.346-3.005L278.113,135.695L278.113,135.695z
	 M260.543,146.4l-0.261-1.856l9.054-1.272l-0.209-1.485l1.964-0.276l0.209,1.486l9.139-1.285l0.261,1.857l-7.943,1.116
	c2.262,1.639,5.187,2.617,8.773,2.933c-0.057,0.008-0.081,0.042-0.072,0.104c-0.343,0.868-0.569,1.531-0.679,1.989
	c-4.111-0.748-7.141-2.057-9.088-3.93l0.822,5.849l-1.964,0.276l-0.822-5.849c-1.412,2.345-3.927,4.496-7.541,6.456
	c-0.132-0.108-0.304-0.305-0.519-0.59c-0.364-0.517-0.647-0.888-0.853-1.111c3.277-1.47,5.776-3.304,7.5-5.504L260.543,146.4z
	 M264.153,142.958c-0.717-0.972-1.516-1.901-2.395-2.788l1.578-1.168c0.206,0.224,0.514,0.56,0.925,1.006
	c0.682,0.725,1.195,1.285,1.542,1.677L264.153,142.958z M271.212,177.964c-1.195-1.472-2.549-3.05-4.062-4.73l1.466-1.342
	c1.439,1.565,2.817,3.107,4.134,4.626L271.212,177.964z M269.673,141.331c-0.53-0.872-1.181-1.79-1.955-2.755l1.689-0.995
	c0.279,0.34,0.676,0.884,1.188,1.632c0.354,0.456,0.605,0.8,0.755,1.03L269.673,141.331z M274.538,106.069
	c0.546,4.72,0.938,8.326,1.172,10.817l-1.537,0.216c-0.823-5.438-1.755-10.83-2.796-16.175l2.563-0.36
	C274.056,101.814,274.255,103.647,274.538,106.069L274.538,106.069z M277.435,137.684c-0.842,1.444-1.678,2.73-2.507,3.855
	l-1.707-0.991c0.877-1.196,1.688-2.446,2.434-3.75L277.435,137.684L277.435,137.684z M275.797,179.966l-2.557-18.196l2.306-0.324
	c0.021-0.254,0.059-0.607,0.113-1.057c0.131-0.712,0.205-1.639,0.219-2.776l2.188,0.071c-0.129,1.154-0.285,2.312-0.47,3.474
	l3.843-0.541l2.531,18.011l-1.879,0.264l-0.248-1.764l-4.355,0.612l0.274,1.95L275.797,179.966z M276.326,118.787l0.365,2.6
	l-2.135,0.3l-0.365-2.6L276.326,118.787z M275.492,163.536l0.718,5.106l4.356-0.612l-0.718-5.106L275.492,163.536z M276.497,170.685
	l0.744,5.292l4.356-0.612l-0.744-5.292L276.497,170.685z M290.889,177.656c-1.14,0.16-2.335,0.328-3.587,0.504
	c-0.153-0.674-0.4-1.396-0.74-2.168c0.748-0.043,1.863-0.167,3.344-0.375c1.611-0.101,2.3-0.986,2.065-2.657
	c-0.078-1.377-0.401-4.299-0.97-8.763c-0.127-1.308-0.228-2.24-0.306-2.797l-5.125,0.72c-0.15,0.589-0.407,1.446-0.771,2.57
	c-0.159,0.528-0.277,0.924-0.356,1.186c-0.565-0.299-1.187-0.59-1.865-0.874c0.993-2.852,1.663-5.725,2.012-8.614l2.03,0.188
	c-0.063,0.388-0.159,0.938-0.291,1.65c-0.124,0.775-0.216,1.356-0.278,1.743l6.32-0.888c0.557,3.961,1.095,8.62,1.616,13.974
	C294.362,175.715,293.328,177.249,290.889,177.656L290.889,177.656z M288.366,171.478c-0.347-0.392-0.865-0.982-1.555-1.77
	c-0.981-1.188-1.746-2.089-2.297-2.707l1.381-1.33c0.485,0.563,1.205,1.346,2.159,2.348c0.813,0.832,1.431,1.503,1.851,2.012
	L288.366,171.478z M286.284,143.538l1.125-1.294l5.185,4.668l-1.184,1.492L286.284,143.538z M294.47,106.676
	c-0.462,1.265-1.003,2.571-1.626,3.921c-0.11-0.363-0.297-0.873-0.562-1.53c-0.185-0.479-0.326-0.868-0.426-1.171
	c1.435-3.42,2.396-7.121,2.881-11.103l2.141,0.362c-0.11,0.458-0.247,1.14-0.409,2.046c-0.282,1.303-0.498,2.247-0.646,2.836
	l2.388,16.989l-1.964,0.276L294.47,106.676L294.47,106.676z M295.868,159.542l-0.235-1.671l5.466-0.769
	c-0.214-0.285-0.621-0.701-1.221-1.249c-0.535-0.493-0.903-0.851-1.109-1.075l1.886-0.833c0.073,0.117,0.238,0.25,0.492,0.404
	c1.002,0.933,1.675,1.596,2.021,1.988l-1.216,0.645l4.869-0.685c0.881-1.575,1.474-2.73,1.777-3.468l2.141,0.362
	c-0.136,0.272-0.389,0.75-0.757,1.432c-0.378,0.621-0.634,1.068-0.77,1.339l5.295-0.744l0.235,1.671l-8.456,1.188l0.287,2.042
	l7.431-1.044l0.248,1.764l-7.431,1.044l0.287,2.042l8.968-1.26l0.235,1.671l-19.986,2.809l-0.235-1.671l8.968-1.261l-0.287-2.042
	l-7.26,1.021l-0.248-1.764l7.26-1.021l-0.287-2.042L295.868,159.542z M297.243,171.182l-0.248-1.764l8.541-1.2
	c0.03-0.194,0.024-0.444-0.019-0.755c0.013-0.317,0.007-0.569-0.019-0.755l2.05-0.288c0.07,0.496,0.082,0.999,0.038,1.51
	l8.797-1.237l0.248,1.764l-8.285,1.165c1.272,2.031,4.378,2.855,9.319,2.477c-0.127,0.333-0.267,0.794-0.415,1.383
	c-0.127,0.333-0.208,0.598-0.237,0.791c-5.002-0.054-8.286-1.107-9.851-3.16c-0.721,2.31-3.627,4.358-8.717,6.148
	c-0.083-0.178-0.274-0.499-0.571-0.961c-0.298-0.464-0.521-0.811-0.669-1.042c5.046-1.277,7.764-3.016,8.151-5.216L297.243,171.182z
	 M297.732,102.62l-0.287-2.042l6.32-0.888c-0.498-1.066-1.071-2.247-1.718-3.545l2.083-0.671c0.249,0.533,0.655,1.36,1.22,2.479
	c0.249,0.533,0.451,0.947,0.609,1.24l-0.828,0.306l6.064-0.853l0.287,2.042L297.732,102.62z M299.333,117.731l-0.261-1.856
	l7.346-1.033c0.831-4.408,1.5-8.542,2.002-12.399l2.141,0.362c-0.332,2.193-0.896,5.396-1.698,9.611
	c-0.211,0.976-0.343,1.69-0.396,2.138l5.381-0.756l0.261,1.856L299.333,117.731z M303.01,113.522
	c-0.651-1.738-1.82-4.478-3.506-8.217c-0.176-0.416-0.305-0.714-0.387-0.893l1.801-0.821c1.686,3.739,3.008,6.741,3.965,9.004
	L303.01,113.522z M301.594,133.526l-0.261-1.856l3.587-0.504l-0.483-3.435c-0.342,0.048-0.826,0.116-1.452,0.204
	c-0.674,0.159-1.212,0.265-1.609,0.321c-0.018-0.124-0.069-0.274-0.151-0.452c-0.202-0.602-0.352-1.054-0.452-1.357
	c0.56-0.141,1.349-0.315,2.365-0.521c2.374-0.459,4.207-0.843,5.5-1.152l0.603,1.809c-0.504,0.135-1.178,0.293-2.024,0.474
	c-0.447,0.126-0.785,0.205-1.012,0.237l0.509,3.621l3.502-0.492l0.261,1.857l-3.501,0.492l0.535,3.806l2.904-0.408l1.356,9.655
	l-1.793,0.252l-0.208-1.485l-4.1,0.576l0.209,1.485l-1.793,0.252l-1.357-9.655l2.989-0.42l-0.535-3.806L301.594,133.526z
	 M304.781,138.854l0.652,4.642l4.1-0.576l-0.653-4.642L304.781,138.854z M310.111,129.679l-0.274-1.95l1.623-0.228l-0.535-3.806
	l1.879-0.264l0.535,3.806l4.783-0.672l-0.535-3.807l1.879-0.264l0.535,3.807l1.538-0.216l0.273,1.95l-1.538,0.216l2.295,16.339
	l-1.879,0.264l-0.234-1.671l-4.783,0.672l0.235,1.671l-1.879,0.264l-2.296-16.339L310.111,129.679z M313.613,129.187l0.757,5.385
	l4.783-0.672l-0.756-5.385L313.613,129.187z M314.631,136.428l0.796,5.663l4.783-0.672l-0.796-5.663L314.631,136.428z
	 M315.551,97.568l-0.3-2.135l17.082-2.4l0.3,2.135l-7.174,1.008l0.796,5.663l8.797-1.236l0.313,2.228l-8.799,1.236l0.967,6.87
	c0.436,2.273-0.43,3.563-2.592,3.867c-1.141,0.16-2.336,0.329-3.588,0.504c-0.093-0.24-0.201-0.603-0.328-1.09
	c-0.192-0.541-0.334-0.932-0.426-1.171c0.577-0.019,1.637-0.135,3.174-0.351c1.261-0.115,1.748-0.781,1.461-2.004l-0.889-6.313
	l-9.395,1.32l-0.313-2.228l9.396-1.32l-0.796-5.663L315.551,97.568z M338.4,171.263L338.4,171.263
	c-2.795-0.871-6.717-1.927-11.77-3.174l0.561-1.593c0.773,0.144,1.975,0.417,3.599,0.819c0.604,0.168,1.058,0.294,1.358,0.377
	c0.422-0.311,1.024-0.774,1.81-1.39c0.784-0.615,1.358-1.074,1.724-1.378l-11.703,1.645l0.602,4.271
	c1.949-0.589,3.586-1.134,4.908-1.637c0.021,0.565,0.076,1.157,0.162,1.776c-0.494,0.195-1.268,0.493-2.312,0.893
	c-1.209,0.485-2.01,0.787-2.398,0.905c-0.105,0.077-0.238,0.159-0.4,0.246c-0.602,0.274-1.006,0.488-1.217,0.645l-1.26-1.527
	c0.453-0.505,0.631-1.099,0.535-1.779l-1.605-11.419c-0.688,0.475-1.428,0.99-2.222,1.543c-0.092-0.239-0.343-0.582-0.754-1.03
	c-0.223-0.347-0.373-0.578-0.446-0.695c4.514-2.59,7.514-5.411,9.002-8.46l2.416-0.15c-0.192,0.28-0.353,0.586-0.479,0.919
	c2.503,2.11,5.777,3.512,9.823,4.205c-0.109,0.458-0.305,1.148-0.58,2.07c-0.245-0.091-0.604-0.167-1.077-0.228
	c-0.245-0.091-0.788-0.235-1.628-0.434l1.096,7.798l0.086-0.012l1.489,1.306c-0.373,0.242-0.927,0.636-1.663,1.18
	c-0.793,0.554-1.371,0.983-1.734,1.286c0.783,0.206,1.979,0.448,3.586,0.727c0.537,0.114,0.93,0.215,1.176,0.308L338.4,171.263z
	 M328.852,155.375c0.25,0.533,0.447,0.917,0.597,1.147l-1.399,0.575l5.979-0.84c-2.367-0.739-4.518-1.983-6.446-3.732
	c-1.399,2.028-3.149,3.82-5.254,5.377l5.296-0.744c-0.258-0.594-0.656-1.359-1.193-2.293l1.741-0.624
	C328.326,154.535,328.555,154.913,328.852,155.375L328.852,155.375z M322.986,159.513l0.274,1.95l10.334-1.453l-0.272-1.95
	L322.986,159.513z M323.471,162.948l0.286,2.042l10.335-1.453l-0.287-2.042L323.471,162.948z M327.771,143.77l-1.448-10.305
	l8.114-1.141l1.447,10.305l-1.879,0.264l-0.195-1.393l-4.355,0.612l0.195,1.393L327.771,143.77z M328.021,130.67l-1.162-8.262
	l14.69-2.065l1.161,8.263L328.021,130.67z M328.464,135.058l0.757,5.385l4.355-0.612l-0.758-5.384L328.464,135.058z
	 M329.184,124.069l0.613,4.363l10.592-1.488l-0.613-4.363L329.184,124.069z M338.361,142.282l-1.447-10.305l8.113-1.14l1.449,10.305
	l-1.793,0.252l-0.197-1.393l-4.44,0.624l0.196,1.393L338.361,142.282z M337.629,102.984l-0.247-1.764l1.366-0.192l-1.109-7.891
	l2.307-0.324c0.014-0.317,0.041-0.73,0.087-1.243c-0.021-0.565-0.021-0.975,0.002-1.231l1.892-0.171
	c-0.021,0.256-0.056,0.64-0.1,1.15c-0.094,0.581-0.15,1-0.172,1.255l3.33-0.468l2.4,17.082c0.273,1.539-0.324,2.443-1.796,2.714
	c-0.569,0.08-1.28,0.18-2.135,0.3c-0.026-0.186-0.123-0.457-0.288-0.812c-0.128-0.488-0.236-0.852-0.328-1.09
	c0.057-0.008,0.229-0.032,0.514-0.072c0.521-0.011,0.922-0.035,1.209-0.075c0.854-0.12,1.203-0.517,1.051-1.189L344.633,102
	l-3.843,0.54c0.748,4.503,0.687,7.982-0.188,10.44c-0.312-0.146-0.817-0.453-1.521-0.922c-0.124-0.046-0.219-0.097-0.282-0.15
	c0.746-2.124,0.812-5.163,0.199-9.116L337.629,102.984z M339.055,133.569l0.758,5.385l4.44-0.625l-0.757-5.384L339.055,133.569z
	 M339.682,94.649l0.86,6.127l3.843-0.54l-0.859-6.127L339.682,94.649z M341.995,99.341c-0.065-0.053-0.142-0.169-0.224-0.347
	c-0.283-0.78-0.756-1.66-1.416-2.641l1.274-0.842c0.288,0.402,0.636,1.016,1.043,1.842c0.306,0.525,0.532,0.904,0.683,1.135
	L341.995,99.341z M343.316,170.672l-2.937-20.889l18.534-2.605l2.936,20.889l-1.965,0.276l-0.209-1.485l-14.604,2.052l0.207,1.485
	L343.316,170.672z M343.327,107.58c-0.158-0.293-0.361-0.707-0.61-1.24c-0.472-0.88-0.857-1.551-1.152-2.015l1.359-0.854
	c0.157,0.294,0.393,0.734,0.708,1.32c0.464,0.819,0.815,1.464,1.056,1.935L343.327,107.58z M342.619,151.457l2.205,15.69
	l14.605-2.053l-2.205-15.689L342.619,151.457z M347.232,163.211l-1.24-8.82l8.798-1.236l1.239,8.82L347.232,163.211z
	 M349.759,93.232c0.571,2.824,0.001,5.176-1.708,7.057c-0.197-0.162-0.488-0.372-0.873-0.635c-0.394-0.323-0.685-0.534-0.873-0.635
	c1.534-1.478,2.051-3.38,1.549-5.708l-0.377-2.692l7.088-0.996l0.73,5.199c0.082,0.999,0.574,1.403,1.479,1.212l1.109-0.156
	c0.025,0.186,0.012,0.504-0.041,0.952c0.004,0.442-0.006,0.791-0.027,1.045l-1.707,0.24c-1.586,0.287-2.48-0.503-2.686-2.368
	l-0.561-3.992l-3.246,0.456L349.759,93.232L349.759,93.232z M349.557,111.627l-1.447-10.305l8.883-1.249l1.447,10.305l-1.879,0.264
	l-0.248-1.764l-5.123,0.72l0.248,1.764L349.557,111.627z M348.133,155.984l0.719,5.106l5.123-0.72l-0.718-5.106L348.133,155.984z
	 M360.812,132.119c-0.453-2.398-1.871-3.808-4.252-4.231c1.774-1.006,2.547-2.535,2.316-4.585c-0.55-3.078-2.455-4.451-5.718-4.12
	c-2.839,0.463-4.386,2.258-4.644,5.386l1.971,0.386c0.076-2.345,1.078-3.686,3.006-4.02c1.831-0.193,2.941,0.692,3.335,2.656
	c0.207,2.306-0.909,3.663-3.349,4.068c-0.342,0.048-0.627,0.088-0.854,0.12l0.234,1.671c0.228-0.032,0.74-0.104,1.537-0.216
	c2.465-0.219,3.94,0.771,4.426,2.976c0.365,2.6-0.733,4.079-3.297,4.439c-2.105,0.296-3.508-0.8-4.207-3.291l-1.887,0.833
	c1.146,3.186,3.312,4.553,6.5,4.104C359.493,137.605,361.12,135.547,360.812,132.119L360.812,132.119z M350.249,102.915l0.718,5.106
	l5.124-0.72l-0.718-5.106L350.249,102.915z M364.729,104.383c-0.115,1.658-0.508,3.416-1.176,5.277
	c-0.132-0.109-0.353-0.235-0.662-0.38c-0.574-0.362-0.983-0.588-1.229-0.68c0.637-1.666,0.969-3.228,0.996-4.684
	c0.084-1.463-0.086-3.711-0.512-6.744l-1.201-8.542l17.168-2.413l0.809,5.756l-15.203,2.137l0.444,3.157
	C364.589,100.301,364.775,102.672,364.729,104.383L364.729,104.383z M364.789,154.017c-0.055,1.271-0.096,2.224-0.121,2.857
	c-0.529-0.051-1.057-0.072-1.576-0.063c0.202-1.858,0.258-3.949,0.163-6.271l1.577,0.063
	C364.812,151.301,364.799,152.439,364.789,154.017L364.789,154.017z M363.158,90.119l0.326,2.321l13.238-1.861l-0.326-2.321
	L363.158,90.119z M374.934,125.971c0.813,6.198-0.596,9.613-4.221,10.25c-3.824,0.474-6.175-2.413-7.054-8.666
	c-0.822-6.258,0.604-9.741,4.28-10.447C371.657,116.713,373.988,119.666,374.934,125.971L374.934,125.971z M369.999,153.285
	c-0.625-0.732-1.485-1.685-2.579-2.856l2.322,16.525l-1.965,0.276l-3.092-22.002l1.965-0.276l0.744,5.292l1.137-1.202
	c0.984,0.809,1.925,1.718,2.822,2.728L369.999,153.285z M365.521,97.645c-0.025-0.186-0.131-0.517-0.313-0.997
	c-0.093-0.239-0.146-0.42-0.164-0.545c4.569-0.957,8.877-1.91,12.925-2.857l0.563,1.53c-2.13,0.553-4.291,1.077-6.485,1.574
	l0.273,1.95l6.938-1.448l0.393,1.554l-7.096,1.565l0.287,2.042l8.364-1.838l0.405,1.647l-8.535,1.862l0.092,0.65
	c0.05,1.192,0.723,1.633,2.016,1.326l2.647-0.372c1.033-0.083,1.588-0.477,1.663-1.181c-0.035-0.247-0.049-0.75-0.038-1.509
	c0.302,0.084,0.75,0.178,1.347,0.284c0.293,0.022,0.5,0.057,0.624,0.102c0.003,0.442-0.013,0.948-0.048,1.521
	c-0.049,0.069-0.068,0.135-0.061,0.198c-0.045,1.332-0.954,2.09-2.729,2.277l-3.758,0.528c-2.156,0.365-3.324-0.512-3.505-2.631
	l-0.104-0.743l-5.842,1.2l-0.49-1.635l6.084-1.329l-0.287-2.042l-4.744,0.951l-0.393-1.555l4.901-1.067l-0.272-1.95L365.521,97.645z
	 M372.969,126.247c-0.757-5.385-2.384-7.869-4.88-7.456c-2.31,0.514-3.131,3.344-2.465,8.488c0.748,5.324,2.341,7.782,4.78,7.375
	C372.861,134.373,373.717,131.571,372.969,126.247L372.969,126.247z M375.788,165.347c-2.629,0.306-4.119-0.59-4.472-2.685
	c-0.258-1.415,0.1-3.011,1.068-4.789c1.777-3.469,3.825-7.07,6.146-10.804l-8.37,1.176l-0.287-2.042l10.933-1.537l0.312,2.228
	c-2.891,4.636-5.205,8.622-6.942,11.958c-0.624,1.351-0.882,2.396-0.776,3.139c0.156,1.114,1.06,1.555,2.711,1.323l3.844-0.54
	c1.773-0.186,2.58-1.056,2.42-2.612c0.025-0.634-0.018-1.764-0.128-3.39c-0.009-0.061-0.019-0.123-0.026-0.186
	c0.549,0.176,1.229,0.27,2.043,0.281c0.111,1.626,0.161,3.007,0.147,4.145c-0.112,2.099-1.278,3.304-3.499,3.616L375.788,165.347z
	 M397.889,119.429c-0.128,0.334-0.344,0.869-0.646,1.605c-1.274-0.389-2.468-0.821-3.579-1.296l0.222,1.578l-4.526,0.636
	l0.418,2.971l8.284-1.164l0.274,1.949l-8.285,1.165l0.68,4.828c0.399,2.026-0.424,3.184-2.475,3.472
	c-0.619,0.149-1.496,0.305-2.635,0.465c-0.01-0.063-0.018-0.125-0.026-0.186c-0.245-0.912-0.481-1.574-0.714-1.982
	c0.577-0.019,1.352-0.095,2.319-0.231c1.089-0.091,1.536-0.627,1.342-1.608l-0.627-4.456l-8.712,1.224l-0.273-1.95l8.713-1.224
	l-0.418-2.971l-5.039,0.708l-0.209-1.485c-0.938,0.763-1.957,1.569-3.058,2.417c-0.438-0.632-0.933-1.256-1.481-1.874
	c4.268-2.683,7.176-5.742,8.726-9.179l2.346-0.046c-0.049,0.071-0.116,0.206-0.204,0.408c-0.098,0.141-0.164,0.276-0.203,0.407
	c2.693,2.651,6.018,4.394,9.967,5.226C398.026,118.969,397.967,119.167,397.889,119.429L397.889,119.429z M385.594,129.867
	c-1.465,1.974-2.945,3.822-4.445,5.548c-0.133-0.109-0.365-0.327-0.703-0.659c-0.401-0.386-0.701-0.659-0.898-0.82
	c1.391-1.268,2.823-3.048,4.303-5.338L385.594,129.867L385.594,129.867z M393.014,119.451c-2.231-1.011-4.166-2.38-5.803-4.107
	c-1.075,1.855-2.613,3.713-4.617,5.572L393.014,119.451L393.014,119.451z M395.363,98.183c-0.454-2.398-1.871-3.808-4.254-4.231
	c1.775-1.006,2.548-2.535,2.317-4.585c-0.55-3.078-2.454-4.451-5.718-4.12c-2.839,0.463-4.386,2.258-4.645,5.386l1.972,0.386
	c0.075-2.345,1.078-3.686,3.006-4.02c1.831-0.193,2.94,0.692,3.335,2.656c0.207,2.306-0.909,3.663-3.348,4.068
	c-0.342,0.048-0.627,0.088-0.854,0.12l0.235,1.671c0.227-0.032,0.738-0.104,1.537-0.216c2.465-0.219,3.939,0.771,4.425,2.976
	c0.364,2.6-0.733,4.079-3.296,4.439c-2.105,0.296-3.51-0.8-4.207-3.291l-1.887,0.833c1.145,3.186,3.311,4.553,6.5,4.104
	C394.044,103.67,395.671,101.611,395.363,98.183L395.363,98.183z M392.576,163.078c-1.85,0.07-3.026-0.869-3.532-2.817
	c-0.124-2.127,0.739-3.417,2.593-3.867c1.961-0.086,3.176,0.912,3.643,2.991C395.387,161.388,394.484,162.62,392.576,163.078
	L392.576,163.078z M391.832,157.786c-1.064,0.277-1.566,1.042-1.507,2.295c0.262,1.037,0.942,1.539,2.042,1.512
	c1.121-0.285,1.664-0.959,1.631-2.028C393.71,158.343,392.988,157.75,391.832,157.786L391.832,157.786z M398.289,132.816
	c-1.983-1.299-3.957-2.535-5.922-3.712l1.072-1.666c2.088,1.222,4.057,2.429,5.908,3.619L398.289,132.816z M396.807,85.668
	l-0.272-1.949l19.303-2.713l0.273,1.949l-9.736,1.369c-1.206,1.748-2.667,3.752-4.381,6.012l9.939-1.775
	c-0.861-0.762-1.838-1.508-2.928-2.24l1.368-1.423c2.065,1.478,4.271,3.125,6.617,4.94l-1.414,1.713l-1.674-1.374
	c-1.87,0.326-4.425,0.749-7.661,1.266c-2.032,0.413-3.505,0.682-4.415,0.81c-0.059,0.008-0.171,0.024-0.342,0.048
	c-1.122,0.285-1.788,0.504-1.998,0.66l-1.142-1.922c0.057-0.008,0.109-0.046,0.157-0.117c0.745-0.483,1.233-0.931,1.467-1.342
	c1.21-1.306,2.376-2.921,3.499-4.847L396.807,85.668z M399.409,97.988l-0.287-2.042l7.771-1.092l-0.403-2.878l2.05-0.288
	l0.404,2.878l7.771-1.092l0.287,2.042l-7.771,1.092l0.495,3.528l9.226-1.296l0.248,1.764l-20.499,2.881l-0.248-1.764l9.225-1.296
	l-0.496-3.528L399.409,97.988z M401.277,119.897l-0.287-2.042l2.817-0.396l-0.481-3.435l-2.464,0.441
	c-0.162-0.734-0.339-1.373-0.53-1.914c2.439-0.405,4.785-0.862,7.037-1.368l0.517,1.821l-2.692,0.663l0.495,3.528l2.732-0.384
	l0.287,2.042l-2.733,0.384l0.393,2.785l0.579-0.839c0.328,0.271,0.853,0.701,1.575,1.293c0.654,0.54,1.151,0.974,1.489,1.306
	l-1.171,1.584c-0.338-0.332-0.81-0.8-1.418-1.41c-0.402-0.384-0.706-0.689-0.912-0.914l1.345,9.563l-1.88,0.264l-1.344-9.563
	c-0.309,1.937-0.878,3.879-1.707,5.826c-0.158-0.293-0.395-0.733-0.708-1.32c-0.223-0.348-0.377-0.61-0.459-0.788
	c1.039-2.102,1.791-4.607,2.254-7.512L401.277,119.897z M416.297,131.324l-1.044-7.427l-2.904,0.408l0.156,1.114l-1.793,0.252
	l-1.592-11.326l4.697-0.66l-0.626-4.456l1.793-0.252l0.627,4.456l4.696-0.66l1.593,11.326l-1.879,0.264l-0.156-1.114l-2.819,0.396
	l1.044,7.427L416.297,131.324z M411.188,116.043l0.888,6.313l2.903-0.408l-0.887-6.313L411.188,116.043z M418.704,114.986
	l-2.819,0.396l0.889,6.313l2.817-0.396L418.704,114.986z M425.991,86.488c-1.253,0.176-2.326,0.8-3.222,1.873l-0.282-5.735
	l7.345-1.032l-0.261-1.857l-8.797,1.236l0.345,9.892l1.32,0.098c0.557-1.403,1.714-2.26,3.471-2.57
	c2.409-0.211,3.87,1.098,4.385,3.928c0.312,3.049-0.748,4.808-3.178,5.274c-2.174,0.244-3.612-0.912-4.319-3.463l-1.801,0.821
	c1.096,3.254,3.267,4.653,6.513,4.197c3.569-0.629,5.115-3.053,4.639-7.279C431.372,88.004,429.319,86.21,425.991,86.488
	L425.991,86.488z M431.71,125.093c0.305,2.166-0.21,3.878-1.542,5.14l-0.886-0.728c0.911-0.949,1.282-2.232,1.114-3.849
	l-1.452,0.204l-0.432-3.063l2.818-0.396C431.401,122.897,431.527,123.793,431.71,125.093L431.71,125.093z M438.344,93.279
	c-0.071,1.967-0.539,4.019-1.397,6.161l-1.615-1.572c0.725-1.868,1.092-3.593,1.103-5.172c0.066-1.586-0.143-4.113-0.63-7.58
	l-0.979-6.963l17.509-2.46l0.914,6.499l-15.545,2.185l0.117,0.835C438.307,88.678,438.48,91.367,438.344,93.279L438.344,93.279z
	 M437.05,79.733l0.417,2.971l13.666-1.921l-0.418-2.971L437.05,79.733z M438.607,92.674l-0.263-1.856l16.826-2.365l0.261,1.857
	l-8.968,1.26c-1.447,2.097-2.498,3.508-3.149,4.229c1.935-0.272,4.487-0.693,7.659-1.266c-0.723-0.592-1.473-1.181-2.251-1.766
	l1.282-1.411c2.656,1.962,4.509,3.374,5.561,4.236l-1.271,1.504l-1.477-1.212c-1.699,0.301-4.163,0.742-7.393,1.323
	c-1.017,0.205-1.725,0.337-2.122,0.393c-0.513,0.072-1.153,0.257-1.925,0.555c-0.115,0.016-0.201,0.028-0.257,0.036l-1.029-1.749
	c0.542-0.266,1.061-0.717,1.553-1.354c0.7-0.792,1.451-1.845,2.256-3.157L438.607,92.674z M443.119,108.53
	c-1.001,1.972-2.073,3.637-3.218,4.996c-0.42-0.509-0.85-1.079-1.286-1.713c1.73-2.137,2.978-4.426,3.737-6.868l2.261-0.034
	c-0.031,0.194-0.14,0.462-0.322,0.803c-0.119,0.396-0.223,0.694-0.31,0.896l14.093-1.98l0.247,1.764L443.119,108.53L443.119,108.53z
	 M439.509,118.789l-0.248-1.764l2.904-0.408l0.058-5.783l14.265-2.004l0.625,5.687l2.817-0.396l0.248,1.764l-2.902,0.408
	c0.061,0.434,0.123,1.087,0.188,1.961c0.122,0.867,0.184,1.521,0.188,1.961l2.306-0.324l0.248,1.764l-2.478,0.348
	c0.257,2.236-0.756,3.514-3.031,3.834c-1.141,0.161-2.307,0.324-3.502,0.492c-0.435-1.013-0.666-1.643-0.701-1.889
	c0.351,0.013,1.465-0.111,3.345-0.375c1.317-0.123,1.959-0.718,1.926-1.786l-13.665,1.921l0.059-5.783L439.509,118.789z
	 M440.044,88.022l-0.235-1.671l12.982-1.825l0.234,1.671L440.044,88.022z M455.602,120.503l-0.377-3.923l-11.019,1.548l-0.05,3.983
	l6.748-0.948c-0.582-0.422-1.48-1.022-2.692-1.799c-0.188-0.1-0.344-0.172-0.466-0.219l1-1.561c1.138,0.661,2.214,1.298,3.229,1.913
	l-0.986,1.654L455.602,120.503z M444.265,112.345l-0.05,3.983l10.848-1.524c-0.069-1.315-0.194-2.623-0.378-3.923L444.265,112.345z
	 M450.521,115.347c-1.024-0.675-2.102-1.314-3.229-1.913l0.914-1.549c0.377,0.2,0.941,0.5,1.694,0.898
	c0.694,0.408,1.231,0.711,1.607,0.91L450.521,115.347z M459.177,96.03l-2.558-18.196l2.306-0.324
	c0.021-0.255,0.061-0.607,0.113-1.057c0.131-0.712,0.205-1.639,0.22-2.776l2.188,0.071c-0.13,1.154-0.285,2.312-0.472,3.474
	l3.845-0.541l2.53,18.011l-1.879,0.264l-0.248-1.764l-4.354,0.612l0.272,1.95L459.177,96.03z M458.871,79.601l0.717,5.106
	l4.356-0.612l-0.719-5.106L458.871,79.601z M459.875,86.749l0.744,5.292l4.354-0.612l-0.742-5.292L459.875,86.749z M462.861,105.753
	l-0.287-2.042l17.851-2.509l0.287,2.042l-7.856,1.104c0.183,1.3,0.372,3.071,0.572,5.315l9.225-1.296l0.301,2.135l-8.798,1.236
	c1.594,4.32,4.992,6.81,10.193,7.467c-0.04,0.131-0.127,0.333-0.263,0.605c-0.207,0.597-0.413,1.194-0.619,1.791
	c-5.32-1.083-8.784-3.625-10.392-7.628c-0.314,3.958-2.817,7.433-7.506,10.427c-0.142-0.17-0.415-0.479-0.827-0.925
	c-0.346-0.394-0.621-0.703-0.826-0.925c5-2.848,7.473-6.319,7.42-10.415l-8.626,1.212l-0.301-2.135l8.883-1.249
	c-0.022-0.565-0.119-1.465-0.293-2.704c-0.101-1.122-0.192-1.992-0.28-2.612L462.861,105.753z M474.268,93.72
	c-1.14,0.16-2.335,0.328-3.587,0.504c-0.152-0.674-0.399-1.396-0.739-2.168c0.748-0.043,1.862-0.167,3.344-0.375
	c1.611-0.101,2.301-0.986,2.064-2.657c-0.076-1.377-0.4-4.299-0.97-8.763c-0.127-1.308-0.228-2.24-0.307-2.797l-5.124,0.72
	c-0.15,0.589-0.406,1.446-0.771,2.57c-0.158,0.528-0.276,0.924-0.354,1.186c-0.564-0.299-1.188-0.59-1.865-0.874
	c0.993-2.852,1.663-5.725,2.013-8.614L470,72.64c-0.062,0.388-0.159,0.938-0.291,1.65c-0.123,0.775-0.216,1.356-0.277,1.743
	l6.32-0.888c0.557,3.961,1.095,8.62,1.615,13.974C477.74,91.779,476.707,93.313,474.268,93.72L474.268,93.72z M471.745,87.542
	c-0.347-0.392-0.865-0.982-1.556-1.77c-0.98-1.188-1.745-2.089-2.297-2.707l1.382-1.33c0.483,0.563,1.204,1.346,2.157,2.348
	c0.814,0.832,1.432,1.503,1.852,2.012L471.745,87.542z M480.883,78.967c-0.031,1.015-0.098,1.781-0.199,2.3
	c-0.188-0.1-0.496-0.215-0.92-0.344c-0.235-0.029-0.416-0.067-0.538-0.114c0.356-2.006,0.428-4.604,0.211-7.793l1.479-0.018
	c-0.014,0.318-0.006,0.791,0.024,1.417c-0.02,0.698-0.034,1.205-0.048,1.521l1.622-0.228l-0.717-5.106l1.879-0.264l0.718,5.106
	l1.965-0.276l0.273,1.95l-1.965,0.276l0.64,4.549l1.873-0.926c0.122,0.867,0.277,1.57,0.472,2.111l-2.044,0.95l1.175,8.355
	l-1.88,0.264l-1.097-7.798l-3.332,1.699l-0.568-2.192l3.602-1.642l-0.718-5.106l-1.794,0.252
	C480.973,78.166,480.936,78.519,480.883,78.967L480.883,78.967z M485.527,103.322l-0.262-1.856l4.101-0.576
	c-0.24-0.471-0.569-1.151-0.983-2.04l1.925-0.554c0.082,0.178,0.241,0.472,0.474,0.88c0.267,0.658,0.478,1.133,0.636,1.426
	l3.502-0.492l0.261,1.856L485.527,103.322z M485.688,108.791l-0.248-1.764l3.073-0.433c-0.354-0.454-0.848-1.079-1.481-1.874
	c-0.271-0.277-0.445-0.473-0.52-0.59l1.335-1.04c0.141,0.169,0.382,0.452,0.729,0.844c0.617,0.67,1.103,1.234,1.457,1.688
	l-1.263,0.935l2.647-0.372c0.519-1.271,0.955-2.501,1.312-3.687l1.8,0.41c-0.207,0.597-0.555,1.436-1.04,2.513
	c-0.08,0.264-0.145,0.432-0.191,0.5l2.904-0.408l0.248,1.764L485.688,108.791z M486.799,112.99l-0.261-1.857l4.1-0.576l-0.325-2.321
	l1.879-0.264l0.325,2.321l3.845-0.54l0.261,1.857l-3.844,0.54l0.757,5.384c0.291,1.664-0.356,2.637-1.94,2.924
	c-0.513,0.072-1.168,0.164-1.965,0.276c-0.127-0.488-0.361-1.118-0.701-1.89c0.568-0.08,1.11-0.156,1.623-0.228
	c0.854-0.12,1.204-0.517,1.054-1.189l-0.705-5.013L486.799,112.99z M489.925,114.16c-0.353,1.628-0.827,3.209-1.424,4.744
	l-1.53-0.353c0.511-1.333,0.954-2.911,1.338-4.732L489.925,114.16L489.925,114.16z M487.574,74.524l-0.261-1.857l4.44-0.624
	l-0.404-2.878l1.965-0.276l0.404,2.878l4.526-0.636l0.261,1.856l-4.525,0.636l0.431,3.064l5.381-0.756l0.261,1.856l-12.641,1.777
	l-0.261-1.857l5.295-0.744l-0.432-3.063L487.574,74.524z M488.235,84.182l-0.263-1.856l7.858-1.104l-0.274-1.95l1.879-0.264
	l0.274,1.95l2.733-0.384l0.261,1.857l-2.733,0.384l0.68,4.828c0.316,1.849-0.436,2.901-2.257,3.157
	c-0.902,0.189-1.839,0.353-2.806,0.489c-0.102-0.302-0.252-0.754-0.452-1.356c-0.102-0.302-0.192-0.541-0.274-0.719
	c0.576-0.019,1.407-0.103,2.489-0.255c1.024-0.144,1.478-0.65,1.354-1.516l-0.613-4.363L488.235,84.182z M492.172,88.646
	c-0.064-0.053-0.136-0.138-0.21-0.254c-1.151-1.164-2.083-2.01-2.796-2.542l1.112-1.387c1.105,0.854,2.161,1.748,3.163,2.679
	L492.172,88.646z M496.058,116.895c-0.289-0.4-0.686-0.945-1.188-1.632c-0.569-0.739-0.994-1.28-1.272-1.62l1.348-0.947
	c0.856,1.143,1.668,2.165,2.435,3.066L496.058,116.895z M503.748,118.938l-1.646-11.697l-2.731,0.384l0.063,0.464
	c0.802,4.874,0.475,8.738-0.982,11.593c-0.065-0.054-0.222-0.127-0.466-0.218c-0.254-0.154-0.726-0.404-1.412-0.749
	c1.403-2.406,1.727-5.89,0.97-10.455l-1.253-8.913c2.82-0.585,5.425-1.267,7.812-2.045l0.871,1.866
	c-1.778,0.567-3.965,1.125-6.558,1.679l0.679,4.828l7.089-0.996l0.274,1.95l-2.477,0.348l1.644,11.697L503.748,118.938z
	 M503.484,76.264c-0.402-0.384-0.929-0.816-1.575-1.293c2.429-2.55,4.253-5.268,5.474-8.154l2.26-0.034
	c-0.089,0.202-0.243,0.54-0.468,1.012c-0.176,0.404-0.331,0.742-0.467,1.013l8.199-1.152l0.248,1.764l-2,3.122l5.039-0.708
	l1.108,7.892l-14.264,2.004l0.443,3.157c0.116,1.247,0.887,1.769,2.311,1.568l9.737-1.368c1.487-0.147,2.207-0.815,2.155-2.007
	c-0.018-0.124,0-0.41,0.055-0.86c0.009-0.758,0.012-1.358,0.008-1.8c0.783,0.207,1.441,0.334,1.971,0.386
	c0.026,0.186,0.031,0.438,0.02,0.755c0.033,1.069-0.003,1.832-0.113,2.288c-0.099,1.78-1.262,2.796-3.491,3.047l-10.677,1.5
	c-2.326,0.389-3.621-0.565-3.886-2.862l-1.409-10.026L503.484,76.264z M514.605,69.873l-7.004,0.984
	c-0.668,1.041-1.365,2.054-2.099,3.041l7.174-1.008L514.605,69.873z M506.205,75.787l0.574,4.085l5.21-0.732l-0.574-4.085
	L506.205,75.787z M509.455,103.752c-0.315-0.586-0.69-1.196-1.128-1.83c1.188-1.871,2.049-4.011,2.581-6.422l1.918,0.015
	c-0.127,0.334-0.268,0.795-0.415,1.384c-0.08,0.264-0.14,0.462-0.178,0.593l3.843-0.54l0.248,1.764l-1.027,2.606l2.308-0.324
	l1.5,10.677l-8.114,1.14l-1.33-9.469L509.455,103.752z M514.445,98.98l-2.818,0.396c-0.391,0.939-0.819,1.819-1.283,2.642
	l3.074-0.432L514.445,98.98z M517.602,115.861c-2.982,0.671-5.229,1.208-6.74,1.61l-0.458-2.019
	c0.396-0.056,1.024-0.144,1.879-0.264c3.391-0.666,5.981-1.219,7.778-1.661c0.026,0.186,0.065,0.464,0.118,0.835
	c-0.006,0.379,0.006,0.662,0.032,0.848C519.649,115.352,518.78,115.568,517.602,115.861L517.602,115.861z M511.347,103.581
	l0.404,2.878l1.794-0.252l-0.404-2.878L511.347,103.581z M511.974,108.037l0.404,2.878l1.793-0.252l-0.404-2.878L511.974,108.037z
	 M518.504,74.059l-5.125,0.721l0.574,4.084l5.125-0.72L518.504,74.059z M516.301,102.885l-1.794,0.252l0.404,2.878l1.794-0.252
	L516.301,102.885z M515.134,107.593l0.404,2.878l1.793-0.252l-0.404-2.878L515.134,107.593z M518.543,100.866l-0.273-1.95
	l5.467-0.768c0.653-1.543,1.223-3.074,1.706-4.595l1.896,0.491c-0.127,0.334-0.348,0.839-0.658,1.513
	c-0.431,1.071-0.786,1.847-1.065,2.327l2.988-0.42l0.274,1.949l-4.271,0.601l0.469,3.342l3.844-0.54l0.261,1.857l-3.843,0.54
	l0.482,3.435l4.611-0.648l0.274,1.95l-4.612,0.648l0.743,5.292l-1.879,0.264l-0.744-5.292l-4.271,0.601l-0.273-1.95l4.271-0.6
	l-0.481-3.435l-3.673,0.516l-0.261-1.857l3.672-0.516l-0.471-3.342L518.543,100.866z M520.963,98.253
	c-0.949-1.381-1.699-2.379-2.25-2.997l1.434-0.959c0.41,0.448,0.976,1.158,1.691,2.129c0.279,0.339,0.489,0.594,0.63,0.764
	L520.963,98.253z M525.574,70.603l-0.287-2.042l18.534-2.605l0.287,2.042l-8.2,1.152l0.718,5.106l7.26-1.021l0.302,2.135
	l-7.261,1.021l0.796,5.663l9.054-1.272l0.273,1.95l-20.242,2.845l-0.273-1.95l9.054-1.272l-0.796-5.663l-7.26,1.021l-0.3-2.135
	l7.26-1.021l-0.718-5.106L525.574,70.603z M534.144,67.126c-0.341-0.771-0.956-1.854-1.85-3.243l2.058-0.857
	c0.537,0.935,1.154,2.016,1.85,3.243L534.144,67.126z M536.588,114.516l-1.723-12.254c-0.526,1.21-1.059,2.39-1.594,3.537
	c-0.166-0.355-0.396-0.953-0.688-1.797c-0.109-0.363-0.206-0.633-0.288-0.812c1.413-3.164,2.401-6.87,2.967-11.115l2.043,0.281
	c-0.291,2.062-0.659,3.975-1.108,5.742l2.271,16.154L536.588,114.516z M537.957,98.229l-0.261-1.856l5.637-0.792l-0.626-4.456
	l1.879-0.264l0.626,4.456l6.235-0.876l0.261,1.857l-5.295,0.744c1.987,3.824,4.485,6.723,7.493,8.698
	c-0.08,0.264-0.224,0.694-0.43,1.291c-0.108,0.458-0.209,0.787-0.296,0.988c-3.248-2.446-5.743-5.536-7.485-9.267l1.135,8.077
	l3.246-0.456l0.261,1.857l-3.246,0.456l0.602,4.271l-1.88,0.264l-0.601-4.271l-3.245,0.456l-0.262-1.856l3.246-0.457l-1.122-7.984
	c-0.736,4.269-2.241,8.016-4.519,11.238c-0.158-0.293-0.483-0.752-0.978-1.377c-0.214-0.285-0.359-0.485-0.434-0.602
	c2.415-3.052,3.999-6.652,4.753-10.798L537.957,98.229z M548.972,70.532l-1.188-8.448l7.517-1.057l1.188,8.448L548.972,70.532z
	 M548.331,74.03l-0.248-1.764l9.479-1.333l0.248,1.764l-3.244,0.456l0.325,2.321l2.989-0.42l0.222,1.578l-2.988,0.42l0.403,2.878
	c0.871,0.003,1.967-0.056,3.284-0.178c2.4-0.275,6.125-0.83,11.176-1.666c-0.021,0.255-0.06,0.608-0.111,1.058
	c-0.103,0.519-0.168,0.875-0.198,1.069c-3.019,0.424-5.154,0.725-6.405,0.9c-1.538,0.216-2.994,0.388-4.369,0.52
	c-3.474,0.488-5.924-0.209-7.349-2.091c-0.055,1.269-0.34,2.54-0.858,3.813l-1.464-1.12c0.769-1.559,0.922-3.979,0.461-7.26
	l1.637-0.135c0.044,0.311,0.069,0.716,0.084,1.219c0.061,0.434,0.107,0.775,0.144,1.021c0.669,1.042,1.385,1.793,2.146,2.254
	l-0.835-5.941L548.331,74.03z M549.729,63.515l0.261,1.857l4.1-0.576l-0.261-1.857L549.729,63.515z M550.197,66.857l0.261,1.857
	l4.1-0.576l-0.261-1.857L550.197,66.857z M561.38,110.555c-0.74,0.104-1.509,0.212-2.306,0.324
	c-0.146-0.611-0.351-1.246-0.615-1.902c0.284-0.04,0.683-0.096,1.195-0.168c0.521-0.011,0.953-0.039,1.294-0.087
	c1.09-0.091,1.591-0.664,1.5-1.725c-0.156-1.934-0.378-3.923-0.664-5.966l-5.125,0.72l-0.563-8.347l1.708-0.24l0.46,6.373l2.137-0.3
	l-0.544-7.592l-4.869,0.684l-0.262-1.857l6.747-0.948l0.722,9.461l1.109-0.156c0.191,1.362,0.445,3.788,0.762,7.277
	c0.069,0.496,0.117,0.835,0.144,1.021C564.495,109.17,563.553,110.312,561.38,110.555L561.38,110.555z M561.333,105.26
	c-1.512,0.401-3.039,0.9-4.58,1.496l-0.373-2.03c0.39-0.117,1.004-0.298,1.841-0.542c1.282-0.37,2.232-0.629,2.853-0.78
	C561.159,104.022,561.246,104.642,561.333,105.26L561.333,105.26z M556.757,62.716l-0.233-1.671l10.249-1.44l0.234,1.671
	l-4.44,0.625l-0.088,2.474l4.014-0.564L567.783,73l-1.623,0.228l-1.057-7.52l-5.467,0.769l1.058,7.52l-1.623,0.228l-1.292-9.191
	l2.818-0.396l0.087-2.474L556.757,62.716z M568.107,77.783c-0.134-0.107-0.354-0.234-0.663-0.38c-1.664-1.091-2.95-1.983-3.86-2.676
	c-0.523,1.652-1.82,3.16-3.894,4.523c-0.329-0.269-0.772-0.743-1.332-1.422c3.241-1.717,4.48-4.258,3.719-7.623l-0.393-2.785
	l1.709-0.24l0.307,2.797c0.165,1.177,0.224,2.21,0.175,3.1c0.188,0.101,0.503,0.277,0.945,0.53c1.833,1.067,3.229,1.913,4.188,2.535
	L568.107,77.783z M576.06,93.533c-0.236,0.791-0.427,1.513-0.566,2.163c-2.732-1.256-4.959-3.057-6.683-5.404
	c-0.918,2.149-2.103,4.051-3.554,5.707l8.285-1.165l0.261,1.857l-8.37,1.176l-0.248-1.764c-0.46,0.443-0.911,0.949-1.354,1.516
	c-0.438-0.632-0.87-1.234-1.299-1.806c2.682-2.396,4.407-5.195,5.178-8.396l1.991-0.09l-0.284,1.081
	C571.319,90.792,573.533,92.501,576.06,93.533L576.06,93.533z M567.034,106.163c-0.8-1.971-1.624-3.905-2.472-5.807l1.559-0.692
	c0.267,0.658,0.356,0.896,0.273,0.718c1.007,2.195,1.736,3.891,2.196,5.088L567.034,106.163z M565.218,109.353l-0.233-1.671
	l7.431-1.044c0.448-2.587,0.811-5.383,1.085-8.389l1.787,0.317c-0.115,0.837-0.312,2.126-0.589,3.87
	c-0.222,1.735-0.413,3.057-0.575,3.962l3.074-0.432l0.234,1.671L565.218,109.353z M570.479,104.637
	c-0.611-1.87-1.247-3.707-1.906-5.507l1.484-0.587c0.717,1.793,1.381,3.625,1.992,5.495L570.479,104.637z M572.715,62.935
	c-0.466,0.823-1.049,1.631-1.75,2.423c-0.23-0.408-0.573-0.771-1.022-1.087c1.151-1.298,1.967-2.738,2.44-4.319l1.504,0.167
	c-0.04,0.133-0.099,0.331-0.178,0.593c-0.127,0.334-0.212,0.567-0.25,0.698l1.622-0.228l-0.521-3.714l1.622-0.228l0.156,1.114
	l3.416-0.48l0.185,1.3l-3.417,0.48l0.183,1.3l2.818-0.396l0.222,1.579c-1.672,2.57-4.343,4.839-8.014,6.806
	c-0.084-0.177-0.267-0.436-0.545-0.775c-0.224-0.347-0.4-0.574-0.531-0.683c1.313-0.563,2.449-1.164,3.403-1.804l-1.574-1.293
	l0.906-0.979c0.312,0.146,0.725,0.404,1.241,0.772c0.319,0.208,0.573,0.361,0.763,0.461c0.832-0.685,1.618-1.49,2.359-2.415
	L572.715,62.935L572.715,62.935z M589.786,64.796c-1.433-0.682-2.797-1.311-4.099-1.886c-0.851,0.562-1.838,1.174-2.964,1.837
	c2.481,1.545,5.491,2.511,9.029,2.896c-0.039,0.133-0.123,0.365-0.25,0.698c-0.158,0.528-0.277,0.924-0.354,1.186
	c-0.483-0.121-1.205-0.304-2.168-0.547c-0.482-0.122-0.842-0.197-1.077-0.227l0.651,4.642c0.315-0.233,0.574-0.459,0.776-0.677
	l1.194,1.063c-1.093,0.911-2.048,1.551-2.866,1.917l4,0.574l-0.658,1.512c-0.359-0.076-0.865-0.162-1.519-0.26
	c-3.327-0.542-5.853-0.945-7.571-1.208c-0.006,0.379,0.03,0.848,0.108,1.405c-1.389,0.447-3.021,1.024-4.896,1.729
	c-0.105,0.077-0.296,0.167-0.571,0.27c-0.269,0.164-0.459,0.254-0.572,0.271l-0.964-1.284c0.347-0.427,0.48-0.919,0.402-1.477
	l-0.875-6.22c-0.784,0.616-1.606,1.172-2.465,1.672c-0.065-0.053-0.142-0.17-0.224-0.348c-0.42-0.509-0.736-0.905-0.951-1.191
	c3.995-2.139,7.045-4.619,9.146-7.439l1.479-0.019l-0.112-0.173c0.104-0.077,0.295-0.167,0.572-0.27
	c0.591-0.334,1.234-0.709,1.933-1.124c-0.312-0.146-0.778-0.364-1.398-0.655c-0.612-0.229-1.074-0.417-1.386-0.563l0.855-1.351
	l3.336,1.424c0.669-0.599,1.334-1.449,1.991-2.552l-6.148,0.864l-0.222-1.579l8.027-1.128l0.235,1.671
	c-0.825,1.568-1.569,2.682-2.23,3.343l3.618,1.574L589.786,64.796z M586.195,68.993l-9.907,1.393l0.183,1.3l9.907-1.393
	L586.195,68.993z M576.797,74.006l9.907-1.393l-0.183-1.299l-9.907,1.392L576.797,74.006z M585.644,75.603
	c0.21-0.155,0.525-0.389,0.946-0.701c0.309-0.295,0.832-0.685,1.578-1.168l-11.188,1.572l0.325,2.321
	c1.379-0.51,2.688-0.915,3.923-1.214l-1.161-0.215l0.513-1.303L585.644,75.603z M581.619,66.796
	c0.073,0.117,0.165,0.355,0.273,0.719c0.166,0.355,0.264,0.626,0.289,0.812l3.245-0.456c-1.603-0.658-3.146-1.514-4.629-2.568
	c-0.974,1.336-2.163,2.576-3.57,3.721l3.331-0.468c-0.009-0.061-0.051-0.15-0.125-0.267c-0.024-0.186-0.163-0.545-0.412-1.078
	L581.619,66.796z M581.681,64.137c0.188,0.101,0.382,0.23,0.577,0.392c-0.064-0.053-0.141-0.17-0.223-0.348
	c-0.132-0.107-0.23-0.188-0.295-0.242L581.681,64.137L581.681,64.137z M586.251,103.375c0.305,2.166-0.21,3.878-1.542,5.139
	l-0.886-0.727c0.911-0.949,1.282-2.232,1.114-3.849l-1.452,0.204l-0.432-3.063l2.818-0.396
	C585.942,101.178,586.068,102.075,586.251,103.375L586.251,103.375z"/>
</svg>
