<svg xmlns="http://www.w3.org/2000/svg" width="640" height="592" viewBox="0 0 640 592"><path fill="#E4597F" stroke="#F8D5E6" stroke-miterlimit="10" d="M0 109l640-91v192.001l-640 92.998z"/><g fill="#E75F89"><path d="M522.812 36.162l-36.144 195.5 153.334-73.792v-138.083zM.002 110.412v192.125l143.331-21.037-92.889-177.814z"/></g><path fill="#fff" d="M45.653 137.722c-1.069-.922-2.091-1.725-3.068-2.409l1.099-1.575c1.033.676 2.081 1.444 3.142 2.304l-1.173 1.68zm.43 6.188c-.125-.044-.29-.18-.497-.403-1.233-.835-2.177-1.493-2.83-1.969l1-1.655c1.281.767 2.419 1.554 3.413 2.36l-1.086 1.667zm1.726 2.882c-.314 3.201-.56 6.043-.738 8.529l-1.905-.395c.362-3.27.58-6.108.652-8.517.247.092.791.205 1.632.338-.66-.096-.54-.08.359.045zm-.678-7.952l-.274-1.949 3.367-.474c-.401-.763-.882-1.895-1.445-3.394l1.86-.545c.109.363.332.9.667 1.61.351.835.624 1.521.818 2.063l-.086.012 2.158-.304.274 1.95-4.058.57.383 3.354 3.885-.546c.122.868.275 2.171.461 3.912.316 2.67.528 4.597.636 5.78.252 1.794-.428 2.806-2.039 3.032-.509.134-1.053.243-1.627.324l-.619-1.901 1.295-.182c.987-.077 1.386-.574 1.199-1.494-.052-.371-.106-.963-.162-1.776-.25-2.616-.453-4.48-.61-5.595l-2.245.315.065.464c.519 4.535.156 8.214-1.09 11.04l-1.663-1.186c1.16-2.182 1.498-5.417 1.013-9.704-.111-1.625-.314-3.49-.61-5.595l-1.553.219zm3.179 45.202l-2.375-16.897 2.072-.291 2.375 16.896-2.072.292zm.815-18.008c-.64-.793-1.698-1.844-3.172-3.151l1.57-1.357c.264.216.633.543 1.106.98 1.068.924 1.806 1.578 2.212 1.961l-1.716 1.567zm.609 30.606l-.287-2.042 18.735-2.633.287 2.042-8.289 1.165.718 5.106 7.339-1.031.3 2.135-7.338 1.031.796 5.663 9.152-1.286.274 1.95-20.462 2.875-.274-1.949 9.152-1.287-.796-5.663-7.339 1.032-.3-2.135 7.339-1.032-.717-5.106-8.29 1.165zm13.56-14.989l-3.626.51c-.093-.24-.203-.603-.329-1.09l-.416-1.078 1.209-.17c.986-.077 1.677-.174 2.072-.291 1.341-.063 1.867-.703 1.579-1.926l-1.997-14.204-9.583 1.347-.313-2.228 11.742-1.65 2.388 16.989c.427 2.212-.481 3.476-2.726 3.791zm-9.153-35.084l-.261-1.856 3.54-.498-.183-1.3 1.966-2.927-4.835.68-.196-1.393-.474 1.013c-.464-.375-1.019-.771-1.664-1.186 1.094-2.237 1.853-4.772 2.276-7.61h2.025c-.206 1.039-.417 2.047-.632 3.023l5.439-.764.261 1.857-6.217.874c-.241.791-.54 1.59-.896 2.398l6.734-.946.274 1.949-2.172 3.335.104.743 3.281-.461.261 1.856-3.281.461.639 4.549c.292 1.663-.396 2.612-2.065 2.846-.798.174-1.541.312-2.232.409-.026-.186-.119-.426-.277-.719-.136-.549-.251-.944-.342-1.183l1.986-.279c.872-.061 1.222-.488 1.052-1.284l-.574-4.084-3.537.497zm9.476 91.885c-.397-.323-1.047-.769-1.948-1.335-.588-.422-1.015-.741-1.279-.957-.805 1.376-2.155 3.048-4.049 5.019-.54-.492-1.111-1.013-1.716-1.558 1.898-1.528 3.236-3.073 4.015-4.635-1.383-1.068-2.715-1.985-3.997-2.752.27-2.247.447-4.543.528-6.891l-2.331.328-.287-2.042 2.676-.376c.021-1.518.014-3.032-.022-4.542l2.185-.118c.028 1.449-.003 2.904-.09 4.368l4.749-.667.274 1.95c.214 4.452-.139 7.783-1.061 9.995 1.223.774 2.453 1.581 3.686 2.417l-1.333 1.796zm1.754 26.847l-2.468-3.156c-.83 2.452-1.88 4.588-3.15 6.407-.066-.054-.17-.165-.311-.335-.45-.694-.808-1.148-1.072-1.364 1.359-2.021 2.371-4.215 3.037-6.581l-4.275-5.363 1.324-1.228 3.489 4.148c.372-1.946.475-4.138.308-6.576l-5.439.765-.287-2.042 7.425-1.043.287 2.042c.043 3.655-.189 6.591-.699 8.808l3.303 4.08-1.472 1.438zm-6.971-72.15c-.344-.771-.965-1.853-1.864-3.241l2.08-.86c.542.934 1.164 2.014 1.864 3.241l-2.08.86zm1.115 39.915c.659-1.986.91-4.798.751-8.437l-3.021.424c-.048 1.333-.199 3.185-.452 5.555-.015.318-.042.543-.082.674l2.804 1.784zm4.308-97.702l-.261-1.857 2.503-.352c.131-1.154.242-2.243.333-3.266l1.926-.082c-.006.38-.063 1.02-.171 1.917-.103.521-.167.908-.188 1.163l4.403-.619.261 1.856-4.921.692c-.407 2.961-.732 5.026-.978 6.196l2.504-.352-.64-4.549 1.641-.23.639 4.549 2.332-.328.261 1.857-2.331.328.417 2.971 2.538-.735c.046.751.109 1.405.188 1.962l-2.465.63.64 4.549-1.899.267-.613-4.363c-1.528.404-2.941.792-4.239 1.164l-.46-2.018c.402-.057 1.056-.21 1.96-.465 1.084-.214 1.91-.394 2.478-.538l-.443-3.156-3.972.558-.261-1.857.141-.872c.251-1.55.472-3.316.664-5.3l-1.987.28zm2.416 103.574l-2.662-18.938 8.461-1.189 2.623 18.661-1.986.279-.235-1.671-4.49.631.274 1.95-1.985.277zm5.494 20.262c-.164 3.431-1.884 6.639-5.163 9.625-.54-.492-1.115-1.042-1.729-1.65 3.6-2.778 5.324-6.175 5.17-10.194-.01-1.324-.128-2.79-.354-4.399l1.986-.279c.043.311.079.779.109 1.405l.183 1.3c1.426 4.722 3.989 7.929 7.69 9.617-.081.263-.263.636-.547 1.118-.228.473-.414.816-.561 1.026-3.237-1.757-5.5-4.277-6.784-7.569zm4.288-4.578l-1.632-.338c-.181-.037-.302-.053-.358-.044l1.032-3.932-7.08.995c-.126.775-.381 1.885-.765 3.326-.193.723-.32 1.276-.382 1.664-.76-.398-1.417-.684-1.97-.859.892-2.838 1.514-5.924 1.869-9.256l2.038.092c-.092 1.023-.244 2.022-.459 2.999l8.461-1.189.287 2.042-1.041 4.5zm-10.171-32.86l1.814 12.904 4.489-.631-1.813-12.904-4.49.631zm2.741-58.082l-.274-1.95 5.871-.825c.321-1.054.551-2.127.691-3.221l2.198-.025c-.112.458-.255 1.11-.43 1.954-.112.458-.185.783-.215.977l11.829-1.662.274 1.949-12.692 1.784c-.425 1.575-1.11 3.375-2.059 5.402l1.709 12.162-1.986.279-1.357-9.655c-.636.91-1.349 1.894-2.139 2.951-.384-.64-.8-1.308-1.25-2.001 2.242-2.839 3.854-5.78 4.835-8.821l-5.005.702zm3.522 30.1l-.274-1.949 2.59-.364-.626-4.456 1.899-.267.626 4.456 2.245-.315.274 1.95-2.245.315.613 4.363c.337-.109.808-.303 1.416-.578.337-.109.587-.208.751-.295l.3 2.135c-.608.275-1.329.565-2.167.873l.926 6.591c.274 1.539-.304 2.441-1.733 2.705l-2.072.292c-.162-.735-.377-1.431-.645-2.087l1.64-.23c.699-.036.972-.39.819-1.062l-.77-5.477-2.485 1.106-.585-2.285c.952-.323 1.875-.642 2.771-.957l-.679-4.828-2.589.364zm13.017-59.043c-.179.404-.428 1.134-.749 2.188-2.613-1.463-4.726-3.343-6.34-5.642-1.051 2.547-2.646 4.98-4.785 7.3-.151-.23-.475-.658-.973-1.284-.199-.161-.336-.299-.411-.416 2.582-2.508 4.265-5.364 5.047-8.567l2.111-.013-.301.989c1.765 2.531 3.898 4.345 6.401 5.445zm-5.688 15.284c-2.016.283-3.17-.628-3.465-2.732l-1.331-9.47 1.899-.267.574 4.084c1.694-1.31 3.271-2.826 4.732-4.546l1.443 1.501c-1.895 1.97-3.849 3.729-5.862 5.273l.378 2.692c.099 1.123.749 1.566 1.949 1.336l1.986-.279c1.151-.162 1.709-.776 1.678-1.845.034-1.014 0-2.083-.099-3.205.726.151 1.389.278 1.991.383.044 1.572.012 2.808-.096 3.706.004 1.703-.973 2.692-2.929 2.967l-2.848.402zm-3.452 20.572l-.274-1.95 5.267-.74-.613-4.363 1.986-.279.613 4.364 5.267-.74.274 1.949-5.267.74.861 6.127 6.389-.898.261 1.857-14.677 2.063-.261-1.856 6.303-.886-.861-6.127-5.268.739zm2.862 56.065l-1.396-9.934 16.318-2.293 1.396 9.934-7.166 1.007.313 2.228 9.238-1.298.261 1.857-7.943 1.116c2.243 1.768 5.178 2.808 8.802 3.118-.146.209-.301.578-.461 1.106-.121.396-.23.663-.327.803-4.081-.626-7.139-1.932-9.179-3.917l.848 6.035-1.985.279-.861-6.127c-1.414 2.471-3.969 4.754-7.666 6.852l-1.31-1.804c3.363-1.545 5.856-3.441 7.477-5.69l-7.771 1.092-.261-1.857 9.152-1.286-.313-2.228-7.166 1.007zm1.069-35.584l-.274-1.95 4.749-.667-.404-2.878 1.986-.279.404 2.878 5.008-.704.274 1.95-5.008.704.404 2.878 5.958-.837.261 1.857-13.728 1.929-.261-1.857 5.785-.813-.405-2.878-4.749.667zm-.232 27.135l.339 2.414 5.18-.728-.339-2.414-5.18.728zm3.433 31.344c-.151-.23-.4-.543-.748-.937-.648-.855-1.496-1.872-2.542-3.051l1.497-1.251c1.169 1.225 2.315 2.483 3.437 3.777l-1.644 1.462zm-2.846-49.062l-.261-1.856 8.634-1.213-.248-1.764 1.986-.279.248 1.764 2.936-.413.261 1.857-2.936.413.679 4.828c.335 1.972-.508 3.068-2.531 3.291-1.085.214-2.089.388-3.009.518-.212-.666-.455-1.356-.732-2.075l1.295-.182c.641-.028 1.135-.065 1.48-.113 1.226-.047 1.699-.648 1.419-1.809l-.587-4.178-8.634 1.211zm-.026 21.71l.339 2.414 5.18-.728-.339-2.414-5.18.728zm4.85 40.801c-.72.731-1.444 1.844-2.172 3.335l-1.177-2.107c.692-.917 1.38-1.865 2.065-2.846l-1.018-7.241-2.158.303-.3-2.135 4.058-.57 1.318 9.376c1.032 1.497 2.641 2.09 4.829 1.783 2.541-.295 6.595-.896 12.161-1.804-.041.132-.068.356-.081.674-.152.589-.231 1.074-.236 1.453l-7.167 1.007c-1.785.251-3.401.445-4.848.586-2.254.254-4.012-.351-5.274-1.814zm-.321-58.032c-.265-.214-.767-.649-1.504-1.303l-1.888-1.534 1.212-1.401c1.299.892 2.454 1.801 3.465 2.732l-1.285 1.506zm4.225 55.116c-.107.079-.185.153-.233.222l-1.245-1.34c.341-.489.47-1.044.383-1.663l-1.696-12.069c.057-.008.139-.051.246-.129 1.657-.737 3.025-1.434 4.108-2.092l1.357 1.513c-1.467.838-2.701 1.454-3.703 1.846l1.487 10.583c.376-.242.937-.636 1.683-1.183.483-.32.831-.558 1.044-.715.035.248.12.646.256 1.195l.117.835c-1.024.65-2.06 1.426-3.106 2.33-.212.159-.445.381-.698.667zm3.118-43.624l-5.267.74.339 2.414 5.267-.74-.339-2.414zm-3.098-81.42c-.033 1.015-.102 1.782-.205 2.301-.19-.099-.5-.213-.929-.343-.239-.028-.421-.066-.544-.113.363-2.007.438-4.606.225-7.795l1.494-.021c-.014.318-.007.791.023 1.417-.02.698-.037 1.205-.05 1.521l1.641-.23-.718-5.106 1.899-.267.718 5.106 1.986-.279.274 1.95-1.986.279.64 4.549 1.894-.929c.122.868.279 1.57.473 2.111l-2.067.953 1.174 8.355-1.899.267-1.096-7.798-3.37 1.705-.572-2.192 3.643-1.648-.718-5.106-1.813.255c-.024.256-.063.609-.117 1.058zm-1.608 86.152l.339 2.414 5.267-.74-.339-2.414-5.267.74zm4.42-53.586l-.248-1.764 1.381-.194-1.109-7.892 2.331-.327c.013-.317.043-.731.089-1.244-.021-.565-.02-.975.003-1.231l1.913-.174-.103 1.15c-.094.582-.154 1.001-.176 1.255l3.367-.473 2.401 17.083c.274 1.538-.332 2.444-1.819 2.717l-2.158.303c-.026-.186-.124-.456-.29-.811-.128-.488-.238-.851-.33-1.09l.518-.073c.527-.012.933-.037 1.222-.077.864-.121 1.218-.519 1.065-1.191l-.979-6.963-3.885.546c.75 4.502.682 7.982-.205 10.443-.315-.145-.827-.452-1.538-.92-.125-.046-.22-.096-.285-.149.758-2.125.829-5.165.215-9.119l-1.38.195zm2.648 93.886l-2.388-16.989 7.167-1.007 1.644 11.697c.283 1.602-.319 2.539-1.807 2.81-.682.159-1.368.287-2.059.384l-.706-1.889c.354.014.876-.028 1.567-.125.863-.122 1.213-.549 1.052-1.284l-1.331-9.469-3.454.485 2.127 15.132-1.812.255zm-.562-102.226l.861 6.127 3.885-.546-.861-6.127-3.885.546zm2.331 4.69c-.066-.053-.142-.169-.225-.347-.286-.779-.761-1.659-1.428-2.64l1.291-.844c.29.401.641 1.015 1.051 1.84.308.525.537.904.688 1.134l-1.377.857zm4.921 37.479c-.477 1.203-1.409 2.722-2.793 4.558-.54-.492-1.016-.962-1.431-1.408 1.322-1.448 2.262-2.905 2.819-4.373l-1.491-1.21c-.721-.529-1.279-.956-1.677-1.279.205-2.301.272-4.74.204-7.318l-1.554.218-.261-1.857 1.813-.255c.042-.953.02-2.369-.069-4.25.049 1.193.057 1.034.021-.476l1.839-.069.054 2.265c-.034 1.015-.045 1.774-.032 2.276l3.367-.473.169 1.207c.528 4.597.436 8.113-.278 10.548 1.05.799 2.07 1.571 3.055 2.316l-1 1.655-2.755-2.075zm-5.38-70.85l-.261-1.856 4.49-.631-.404-2.878 1.986-.279.404 2.878 4.576-.643.261 1.857-4.576.643.431 3.063 5.439-.764.261 1.856-12.778 1.796-.261-1.857 5.353-.752-.43-3.064-4.491.631zm1.793 41.609c-.159-.293-.363-.707-.614-1.239-.476-.88-.864-1.55-1.164-2.014l1.376-.856.714 1.32c.467.819.822 1.463 1.064 1.933l-1.376.856zm-1.14-31.949l-.261-1.857 7.943-1.116-.274-1.95 1.899-.267.274 1.95 2.763-.388.261 1.857-2.763.388.679 4.828c.317 1.849-.444 2.902-2.285 3.161-.913.19-1.858.356-2.836.493l-.455-1.356c-.102-.302-.194-.541-.277-.719.583-.02 1.423-.105 2.517-.259 1.036-.146 1.493-.652 1.372-1.518l-.613-4.363-7.944 1.116zm3.972 4.459c-.066-.053-.138-.137-.212-.254-1.162-1.162-2.102-2.008-2.822-2.538l1.125-1.389c1.117.854 2.182 1.745 3.193 2.675l-1.284 1.506zm-1.831 47.722c-.042.953-.122 2.479-.237 4.578l1.962 1.428c.559-2.287.627-5.137.207-8.549l-1.899.267c-.047.512-.058 1.27-.033 2.276zm3.185 26.464c-.472.824-.976 1.621-1.513 2.39-.16-.292-.422-.698-.787-1.215-.216-.285-.367-.516-.45-.694 1.718-2.387 2.951-4.896 3.697-7.525l2.003.476c-.411 1.257-.887 2.46-1.43 3.609l1.357 9.655-1.899.267-.978-6.963zm2.337-61.056c.573 2.823-.007 5.177-1.737 7.061-.199-.162-.492-.372-.881-.634-.397-.323-.691-.533-.881-.633 1.553-1.48 2.078-3.384 1.574-5.712l-.378-2.692 7.166-1.007.731 5.199c.081.999.578 1.402 1.491 1.21l1.123-.158c.026.186.012.504-.042.953.003.442-.007.791-.029 1.045l-1.727.243c-1.604.289-2.506-.5-2.709-2.364l-.561-3.992-3.281.461.141 1.02zm.258 69.496c-.421 2.016-.893 3.881-1.415 5.595l-1.931-.581c.637-1.73 1.089-3.528 1.354-5.397l1.992.383zm-.49-51.097l-1.448-10.305 8.979-1.262 1.448 10.305-1.899.267-.248-1.764-5.18.728.248 1.764-1.9.267zm12.406 14.936c-.247 1.171-.831 1.821-1.751 1.95-1.094.154-2.018-.157-2.773-.936-.879-.823-1.567-1.958-2.063-3.402l-4.23.595.431 3.063c1.156-.542 2.432-1.067 3.828-1.58-.006.38.044.941.148 1.684-.5.197-1.223.488-2.167.872-.723.291-1.251.493-1.588.602-.55.267-1.037.557-1.463.868l-.959-1.19c.302-.357.405-.876.309-1.558l-1.122-7.984c4.654-.716 8.302-1.482 10.947-2.296l.852 1.679c-.461.065-1.171.229-2.132.489-.913.192-1.623.355-2.132.489.026.186.094.46.204.824.104.743.239 1.292.408 1.646l4.662-.655.222 1.578-4.403.619c.286.781.772 1.534 1.461 2.256.472.439.91.629 1.313.573.346-.049.536-.359.573-.933-.008-.061.002-.19.034-.384.031-.193.065-.577.103-1.15.124.046.367.107.73.182.313.145.532.242.657.286-.006.379-.031.826-.077 1.336-.033.195-.039.354-.022.477zm-12.42 58.213l-.3-2.135 8.807-1.237c-.085-1.439-.31-3.459-.675-6.059l2.245-.315.675 6.059 8.979-1.262.3 2.135-8.893 1.25c1.521 5.404 5.132 8.746 10.83 10.028-.325.614-.71 1.425-1.155 2.434-5.091-1.557-8.538-4.575-10.341-9.055-.189 4.509-2.657 8.453-7.405 11.833-.142-.169-.419-.478-.834-.924-.406-.385-.713-.689-.92-.912 5.267-3.453 7.708-7.805 7.322-13.053l-8.635 1.213zm.726-81.864l.717 5.106 5.181-.728-.718-5.106-5.18.728zm2.142 17.704c-.798.176-1.398.292-1.8.348l.313 2.228 3.972-.558c-.163-.734-.362-1.526-.599-2.377-.394.118-1.023.238-1.886.359zm-.381 19.84l-1.383-9.84 10.62-1.493 1.37 9.748-1.813.254-.156-1.114-6.994.983.169 1.207-1.813.255zm2.064 10.339c-.428 1.134-.995 2.317-1.702 3.553-.133-.107-.356-.234-.669-.379-.456-.314-.812-.549-1.067-.702 1.244-2.004 2.194-4.221 2.852-6.649l2.038.092-.362 1.187c-.178.404-.284.703-.314.896l9.411-1.323.274 1.95-.805 3.048c-.314-.145-.859-.258-1.632-.339-.125-.044-.215-.064-.272-.056l.71-2.467-8.462 1.189zm.726 17.696c-1.843.259-2.893-.54-3.154-2.396l-.548-3.899 1.986-.279.47 3.342c.13.929.684 1.324 1.664 1.187l3.626-.51c1.283-.055 1.909-.614 1.876-1.684.086-.642.105-1.34.059-2.091.247.092.644.193 1.188.306l.816.169c.012.504-.033 1.235-.132 2.196-.041.133-.056.23-.047.291-.128 1.595-1.118 2.492-2.968 2.689l-4.836.679zm1.19-14.084c-1.081 1.919-2.159 3.649-3.233 5.188-.531-.43-1.08-.794-1.65-1.093.994-1.276 2.022-2.935 3.086-4.978l1.797.883zm-3.315-22.375l.287 2.042 6.993-.983-.287-2.042-6.993.983zm.483 3.435l.287 2.042 6.993-.983-.287-2.042-6.993.983zm4.5 28.93c-.905-1.009-1.92-1.97-3.047-2.885l1.312-1.32c1.05.799 2.115 1.691 3.193 2.675l-1.458 1.53zm.064-4.553l-1.986.279c-.194-.541-.424-1.139-.692-1.796.411.006.991-.044 1.74-.15.92-.129 1.295-.592 1.125-1.389l-.718-5.106 1.899-.267.757 5.385c.301 1.725-.406 2.74-2.125 3.044zm-.153-91.868l-1.096-7.798 9.756-1.372 1.096 7.799-9.756 1.371zm5.686 12.266c-.093-.24-.208-.634-.342-1.183-.177-.417-.277-.718-.303-.904.287-.041.695-.066 1.222-.077l1.123-.158c1.283-.055 1.83-.762 1.638-2.124-.061-.433-.132-1.149-.213-2.147-.139-.989-.211-1.706-.214-2.147l-3.626.51c.38 3.544-.625 6.62-3.017 9.229-.73-.593-1.288-1.019-1.677-1.279 2.14-2.32 3.07-4.881 2.794-7.683l-3.194.449-.261-1.857 3.281-.461-.201-2.055 1.9-.267.201 2.055 5.525-.776c.046.75.176 2.09.389 4.016.116 1.247.213 2.147.292 2.705.37 2.22-.514 3.448-2.652 3.686l-2.665.468zm-4.609-18.382l.561 3.992 5.871-.825-.561-3.992-5.871.825zm6.199 96.036c-.397-.323-.965-.811-1.703-1.465-1.078-.984-1.948-1.745-2.61-2.284l1.211-1.401c1.457 1.184 2.948 2.395 4.473 3.631l-1.371 1.519zm-2.625-49.281l-.287-2.042 8.116-1.141-2.61-18.567 2.245-.315.939 6.685 8.547-1.202.313 2.228-8.547 1.202 1.357 9.655 10.188-1.432.287 2.042-20.548 2.887zm3.729 56.51c-1.063-1.302-2.351-2.73-3.86-4.286l1.397-1.332c1.5 1.493 2.849 2.945 4.046 4.354l-1.583 1.264zm3.336-36.28c-1.093 1.417-2.154 2.639-3.183 3.666-.317-.585-.677-1.261-1.077-2.026 2.64-2.516 4.58-5.409 5.824-8.676l-6.13.861-.274-1.949 8.289-1.165.3 2.135c-.646 1.669-1.343 3.187-2.089 4.554l1.592 11.326-1.986.279-1.266-9.005zm-.23-9.151c-.151-.23-.4-.543-.748-.936-.3-.462-.874-1.203-1.721-2.22l1.609-1.078c.208.224.489.563.847 1.017l1.695 2.034-1.682 1.183zm1.684-45.712l-1.983-14.111 1.899-.267 1.983 14.111-1.899.267zm-1.498 83.952l-.248-1.764 20.462-2.876.248 1.764-8.979 1.262.313 2.229 7.425-1.044.248 1.764-7.425 1.043.326 2.321 9.152-1.286c-.077.705-.159 1.379-.244 2.022-3.972.558-6.883.935-8.733 1.133-3.454.485-5.933-.24-7.437-2.174-.385 1.442-1.37 3-2.953 4.675l-1.431-1.408c2.142-1.878 3.115-4.351 2.92-7.416l1.938.011c-.023.256-.029.636-.016 1.139-.055.45-.068.767-.042.953 1.189 1.79 2.81 2.667 4.86 2.63l-.887-6.313-9.497 1.335zm2.18-3.905l-1.227-8.727 15.023-2.111 1.226 8.727-15.022 2.111zm3.589-75.345l-3.281.461c-.163-.734-.381-1.461-.659-2.18.872-.06 1.826-.162 2.862-.307 1.217-.109 1.723-.683 1.518-1.729l-2.531-18.01 1.986-.279 2.609 18.568c.394 1.964-.441 3.123-2.504 3.476zm.114 51.613c-1.052-.799-2.313-1.63-3.785-2.498l1.099-1.575c1.141.597 2.394 1.368 3.759 2.312l-1.073 1.761zm-2.434 49.709l-.6-4.271 9.238-1.298-1.289-2.28 2.192-.687c.45.694.892 1.548 1.328 2.559l-.16.117 8.202-1.153.601 4.271-1.986.279-.353-2.506-15.455 2.172.352 2.507-2.07.29zm-.261-33.218l.261 1.856 10.965-1.541-.261-1.856-10.965 1.541zm.469 3.341l.274 1.95 10.965-1.541-.274-1.95-10.965 1.541zm2.91 30.764l-.235-1.671 13.814-1.941.235 1.671-5.525.776c-.155.149-.364.335-.625.562-.515.515-.932.888-1.251 1.123.936.815 1.67 1.659 2.205 2.53 2.105-1.305 4.049-2.714 5.833-4.228l1.271 1.525c-1.122.79-2.269 1.613-3.439 2.471 1.404 2.896 3.546 4.772 6.426 5.629-.333.553-.688 1.169-1.061 1.853-3.096-1.142-5.396-3.313-6.901-6.509-.107.079-.291.23-.552.456-.271.166-.483.321-.639.468.502 1.066.844 2.249 1.027 3.548.448 2.777-.445 4.354-2.681 4.732l-2.849.4-.416-1.078c-.11-.363-.208-.634-.29-.812.345-.048.81-.083 1.394-.101l1.123-.158c1.456-.079 2.033-.979 1.733-2.705-.078-.557-.182-1.078-.308-1.566-2.154 2.638-5.15 4.92-8.986 6.849-.318-.587-.697-1.197-1.138-1.829 3.833-1.547 6.976-3.82 9.431-6.816-.225-.347-.458-.755-.701-1.227-2.139 2.321-4.805 4.242-7.994 5.762-.084-.177-.272-.466-.563-.868-.225-.347-.408-.605-.549-.775 3.159-1.327 5.841-3.124 8.046-5.391-.084-.178-.263-.404-.536-.682l-.298-.242c-1.907 1.468-4.128 2.791-6.662 3.966-.093-.238-.281-.528-.563-.868-.233-.408-.421-.698-.562-.868 3.579-1.26 6.349-2.848 8.311-4.766l-5.525.78zm5.431-45.302c-2.063.353-3.228-.62-3.492-2.917l-2.518-17.917 2.072-.291 2.466 17.546c.107 1.185.704 1.668 1.789 1.453l1.036-.146c1.101-.091 1.627-.733 1.578-1.926-.026-.186-.033-.436-.018-.755-.068-1.316-.149-2.313-.245-2.995.791.206 1.517.355 2.177.452-.023.256-.025.666-.003 1.231.066 1.316.087 2.292.059 2.927.013 1.764-.988 2.79-3.002 3.073l-1.899.265zm-1.855-73.237l-.274-1.95 2.417-.34-.613-4.363 1.899-.267.613 4.363 1.986-.279.274 1.95-1.986.279.639 4.549 1.895-.929.287 2.042-1.895.929.914 6.499c.274 1.538-.304 2.44-1.733 2.705l-1.973.372-.039-.278c-.119-.426-.325-1.059-.619-1.901.354.013.876-.028 1.567-.125s.967-.42.833-.969l-.757-5.385-2.313 1.083-.572-2.192 2.585-1.026-.717-5.106-2.418.339zm6.787 43.936l-2.557-18.196 2.331-.328c.022-.254.06-.607.115-1.057.134-.713.21-1.639.226-2.777l2.211.068c-.132 1.155-.292 2.313-.48 3.476l3.886-.546 2.531 18.01-1.899.267-.248-1.764-4.403.619.274 1.95-1.987.278zm3.115-29.234l-1.905-13.554c-.09.202-.247.541-.474 1.013-.237.412-.422.755-.561 1.026-.093-.239-.289-.59-.588-1.054-.242-.47-.435-.791-.575-.96 1.373-2.338 2.391-5.321 3.056-8.95l2.038.092c.009.063-.008.16-.047.291-.35 1.691-.679 2.904-.985 3.641l4.489-.631c-.851-1.457-1.526-2.499-2.023-3.124l1.821-.824c.974 1.505 1.657 2.607 2.05 3.31l-1.33.565 5.267-.74.248 1.764-4.662.655.443 3.157 4.403-.619.261 1.857-4.403.619.443 3.157 4.403-.619.248 1.764-4.403.619.457 3.25 4.835-.68.222 1.579-11.052 1.553.222 1.579-1.898.264zm-3.4 12.802l.718 5.106 4.403-.619-.718-5.106-4.403.619zm1.005 7.148l.744 5.292 4.403-.619-.744-5.292-4.403.619zm3.497 25.467c-.575 1.344-1.158 2.624-1.749 3.843-.312-.965-.664-1.8-1.056-2.502 1.717-3.649 2.833-7.404 3.347-11.263l2.077.371c-.324 1.877-.743 3.702-1.255 5.478l2.27 16.154-1.899.267-1.735-12.348zm-1.499-62.023l.443 3.157 4.317-.607-.443-3.156-4.317.606zm.705 5.013l.443 3.156 4.317-.606-.443-3.157-4.317.607zm.691 4.92l.457 3.25 4.317-.606-.457-3.25-4.317.606zm2.534 75.053l-.248-1.764 7.425-1.044-.353-2.506 2.159-.303.352 2.506 7.512-1.056.248 1.764-7.512 1.056.365 2.599 9.238-1.298.248 1.764-6.044.849 1.818.407c-.196.281-.48.763-.854 1.445-.439.63-.754 1.116-.939 1.458l4.921-.691.248 1.764-7.684 1.08.378 2.692 9.238-1.298.261 1.856-9.238 1.298.587 4.178-2.159.304-.587-4.178-9.325 1.311-.261-1.857 9.324-1.311-.378-2.692-7.598 1.068-.248-1.764 4.921-.692c-.481-.5-1.318-1.235-2.511-2.203l1.363-.949-5.871.825-.248-1.764 9.238-1.298-.365-2.6-7.421 1.044zm8.608-41.479l-3.626.51c-.154-.673-.402-1.396-.745-2.167.756-.044 1.883-.17 3.38-.38 1.628-.103 2.326-.99 2.091-2.661-.077-1.377-.399-4.299-.968-8.763-.126-1.308-.227-2.24-.305-2.797l-5.181.729c-.152.589-.413 1.447-.783 2.571l-.361 1.187c-.57-.299-1.198-.589-1.883-.872 1.007-2.854 1.689-5.729 2.046-8.619l2.051.185c-.063.388-.162.938-.296 1.651l-.283 1.744 6.389-.898c.557 3.961 1.093 8.62 1.612 13.974.374 2.66-.673 4.196-3.138 4.606zm.81 24.519c-1.172 1.68-3.159 3.63-5.957 5.855-.142-.169-.391-.482-.748-.937-.358-.456-.64-.794-.848-1.017 2.514-1.741 4.468-3.5 5.862-5.274-1.966-1.868-3.702-4.623-5.211-8.261-.102-.301-.277-.718-.528-1.251-.387-1.082-.682-1.923-.883-2.527l1.921-.743c.21.666.555 1.659 1.035 2.979.101.303.189.511.264.625 1.267 3.168 2.783 5.606 4.549 7.313 1.382-2.277 2.24-5.364 2.573-9.261.034-1.014.086-2.095.161-3.242l2.051.185c-.015.319-.06.83-.137 1.534-.003.821-.035 1.425-.098 1.813-.356 4.153-1.305 7.631-2.848 10.435 1.953 1.368 4.126 2.419 6.519 3.155-.129.333-.396.939-.801 1.817-.081.263-.146.43-.194.5-3.055-1.273-5.282-2.506-6.682-3.698zm-3.351-30.694c-.35-.392-.873-.98-1.569-1.768-.989-1.186-1.761-2.086-2.317-2.704l1.397-1.333c.489.563 1.215 1.344 2.179 2.345.821.831 1.443 1.501 1.867 2.01l-1.557 1.45zm5.797 90.699c-1.578.473-3.979 1.348-7.203 2.622l-.62-1.901c.106-.077.303-.137.591-.178.221-.093.389-.149.505-.166l-1.213-8.634 1.468-.206 1.174 8.355c.501-.196 1.006-.362 1.515-.497l-1.383-9.841-2.935.413-1.057-7.52 6.303-.886 1.057 7.52-1.727.243.483 3.435 1.899-.267.248 1.764-1.9.267.601 4.271c.221-.093.587-.208 1.096-.343.385-.18.665-.283.837-.307l.261 1.856zm-7.183-16.031l.574 4.085 2.849-.401-.574-4.084-2.849.4zm2.886-55.264c-.952-1.76-1.886-3.395-2.803-4.908l1.722-.905c1.125 1.735 2.083 3.337 2.876 4.803l-1.795 1.01zm-.961 33.286c.671.601 1.172 1.035 1.504 1.304l-.565.363 3.454-.485c.333-.551.824-1.441 1.474-2.668.293-.42.483-.731.573-.933l-7.943 1.116c.33.27.832.704 1.503 1.303zm6.66 40.463l-2.166-15.411 4.403-.619c-.513-.307-1.306-.73-2.38-1.275-.637-.352-1.05-.577-1.24-.678l.953-1.365 1.14.597c1.132.536 1.953.956 2.467 1.263l2.976-3.258-9.065 1.274-.235-1.671 11.483-1.614.261 1.856-3.881 4.333.199.162 4.317-.607 1.8 12.812c.274 1.539-.273 2.437-1.646 2.693l-1.899.267c-.194-.541-.424-1.14-.692-1.796l1.554-.218c.69-.097.967-.42.832-.969l-.326-2.321-3.022.425.652 4.642-1.727.243-.652-4.642-3.108.437.731 5.199-1.729.241zm-1.124-128.105l-1.148-8.17 2.072-.291.861 6.127 5.267-.74-1.161-8.263 2.158-.303 1.162 8.263 5.267-.74-.861-6.127 2.072-.291 1.148 8.169-7.339 1.031 1.227 8.727 5.958-.837-.861-6.127 1.986-.279 1.253 8.913-1.986.279-.131-.928-16.145 2.269-1.122-7.984 2.072-.292.861 6.127 5.958-.837-1.227-8.727-7.341 1.031zm.906 114.029l.378 2.692 3.108-.437-.378-2.692-3.108.437zm.614 4.364l.378 2.692 3.108-.437-.378-2.692-3.108.437zm21.224-93.17c-.169.466-.391 1.191-.663 2.176-3.886-.084-7.141-.479-9.763-1.184-2.204 1.446-5.239 2.819-9.106 4.12l-.337-.521c-.384-.64-.683-1.102-.899-1.388 3.211-.956 5.854-1.99 7.928-3.103-1.991-.792-3.922-2.225-5.798-4.297l-1.727.243-.261-1.857 17.181-2.415.274 1.95c-1.556 2.301-3.253 4.213-5.093 5.733 2.291.436 5.046.616 8.264.543zm-17.9 8.574l-.274-1.95 7.252-1.019-.378-2.692 2.158-.303.378 2.692 7.253-1.02.274 1.95-7.252 1.02.509 3.62 9.152-1.286.261 1.857-20.376 2.864-.261-1.857 9.065-1.274-.509-3.621-7.252 1.019zm.739 19.699l-.287-2.042 11.483-1.614c-.275-1.538-.517-3.051-.726-4.537l2.072-.292c.038.69.182 1.711.431 3.064l.209 1.485 7.166-1.007.287 2.042-7.08.995c.245.912.449 1.735.611 2.47.911 3.975 1.937 6.892 3.079 8.75.608.988 1.282 1.396 2.021 1.23.469-.004.767-.392.893-1.167.068-.767.113-1.909.135-3.427.627.291 1.247.52 1.857.686-.004 1.643-.103 2.823-.294 3.544-.168 1.728-.947 2.657-2.337 2.79-1.489.271-2.891-.729-4.208-3.006-1.142-1.859-2.181-4.868-3.118-9.029-.043-.309-.134-.738-.269-1.287-.145-.61-.264-1.036-.355-1.276l-11.57 1.628zm3.18 59.429l-3.022.425.378 2.692 3.022-.425-.378-2.692zm-2.408 4.788l.378 2.692 3.022-.425-.378-2.692-3.022.425zm5.663-93.633c1.826-1.204 3.478-2.823 4.952-4.862l-10.533 1.48c1.756 1.647 3.616 2.774 5.581 3.382zm-4.987 34.704l-.274-1.949 9.756-1.372.274 1.95-3.885.546.822 5.849c.624-.15 1.556-.408 2.797-.772.846-.245 1.466-.426 1.86-.545l.287 2.042c-2.844.652-6.438 1.599-10.782 2.841l-.693-1.796c.846-.245 2.345-.645 4.498-1.2l-.861-6.127-3.799.533zm6.177 28.876c-.561 1.025-1.245 2.006-2.052 2.939-.076-.115-.168-.355-.277-.719-.268-.656-.486-1.162-.653-1.518 1.829-2.023 3.18-4.518 4.055-7.481l-4.576.644-.261-1.857 6.476-.91.287 2.042c-.572 1.785-1.084 3.151-1.537 4.098l.091.65.5-.828c.256.153.616.419 1.081.795.786.584 1.34.98 1.663 1.186l-.13-.928 12.347-1.735 1.513 10.77-1.813.254-.183-1.299-8.72 1.225.183 1.3-1.813.255-1.37-9.748-.914 1.643c-.738-.653-1.471-1.275-2.2-1.868l1.448 10.305-1.813.255-1.332-9.47zm-.139-8.501c-.467-.817-1.232-1.877-2.296-3.18l1.424-1.146c.348.393.913 1.071 1.695 2.034.357.456.605.767.748.937l-1.571 1.355zm1.928 33.174l-1.031-7.334 6.994-.983 1.031 7.334-2.159.303.457 3.25 2.417-.34.248 1.764-2.417.34.587 4.178c.393-.117.976-.357 1.748-.719.394-.118.673-.221.837-.307.096.682.22 1.358.374 2.03-3.088 1.002-5.822 2.016-8.2 3.046l-.706-1.889 1.097-.343-1.162-8.263 1.554-.218 1.122 7.984 1.662-.707-1.344-9.563-3.109.437zm1.045-35.201l-.235-1.671 13.555-1.905.235 1.671-13.555 1.905zm-.101 29.388l.535 3.806 3.54-.498-.535-3.806-3.54.498zm2.573-22.446l-.783-5.57 10.533-1.48.783 5.57-10.533 1.48zm1.339-4.259l.339 2.414 6.734-.946-.339-2.414-6.734.946zm3.103-31.127c-.946-.876-1.968-1.679-3.068-2.409l1.225-1.308c1.357.883 2.403 1.65 3.141 2.304l-1.298 1.413zm-3.048 38.409l.352 2.507 3.454-.485-.352-2.507-3.454.485zm.561 3.992l.352 2.506 3.454-.485-.352-2.506-3.454.485zm4.132-100.13c-1.11-.791-2.38-1.685-3.811-2.684l1.086-1.667c.512.307 1.318.825 2.419 1.554l1.452.932-1.146 1.865zm.071 6.143c-1.242-.898-2.532-1.727-3.871-2.485l1.073-1.76c1.348.821 2.633 1.618 3.858 2.393l-1.06 1.852zm-1.879 109.307c-.009-.061-.06-.212-.151-.452-.154-.672-.31-1.155-.468-1.449 3.445-.546 6.863-1.28 10.256-2.199l.533 1.913c-1.471.396-2.892.723-4.265.978.125 1.308.265 2.93.419 4.864.03-.194.061.024.091.65l5.439-.765.274 1.95-5.267.74c1.083 3.951 3.323 6.728 6.718 8.333-.325.614-.666 1.324-1.021 2.132-3.249-1.816-5.414-4.478-6.493-7.987-.129 3.679-1.549 6.939-4.26 9.782-.68-.662-1.253-1.182-1.715-1.558 2.95-2.813 4.402-6.266 4.354-10.363l-4.145.583-.274-1.949 4.403-.619c-.083-.997-.244-2.773-.485-5.328l-3.943.744zm3.738-106.728c-.562 3.108-.98 5.977-1.256 8.603l-2.09-.464c.421-2.015.863-4.917 1.329-8.707.61.166 1.284.356 2.017.568zm2.097 86.191l-3.54.498.352 2.507 3.54-.498-.352-2.507zm-3.081-59.339l-.287-2.042 9.238-1.299-1.318-9.376 2.072-.291 1.317 9.376 9.325-1.311.287 2.042-6.821.958.966 6.87c.122.867.671 1.231 1.65 1.093l1.727-.243c.929-.068 1.362-.538 1.298-1.413.06-.828.026-1.897-.098-3.205l2.09.464c.036 1.509.024 2.68-.035 3.508-.071 1.587-1.003 2.475-2.795 2.665l-2.504.352c-1.899.267-2.984-.56-3.254-2.478l-1.031-7.334-3.972.558.083 1.219c.618 4.395-1.179 7.896-5.391 10.508-.208-.224-.557-.617-1.046-1.178-.216-.286-.391-.482-.523-.589 3.722-1.911 5.343-4.789 4.861-8.635l-.057-1.034-5.782.815zm4.658-4.442c-.54-.492-1.385-1.288-2.537-2.389-.946-.876-1.621-1.508-2.027-1.893l1.285-1.506c1.723 1.4 3.297 2.788 4.724 4.165l-1.445 1.623zm-4.556 68.27l.353 2.506 3.54-.497-.352-2.507-3.541.498zm17.716-86.797c-.17.464-.396 1.159-.676 2.083-5.053-.869-8.496-3.445-10.331-7.731l-2.417.34.926 6.591c1.263-.618 2.598-1.343 4.009-2.173l.287 2.042c-1.648.8-3.01 1.559-4.082 2.278-.483.319-.915.602-1.291.844l-1.37-1.606c.39-.561.547-1.118.469-1.675l-2.309-16.432 5.267-.74c-.11-.363-.329-.868-.654-1.518-.101-.301-.189-.509-.264-.625l2.119-.582c.334.71.654 1.518.957 2.422l5.181-.728 1.461 10.397-6.303.886c.792 1.467 1.557 2.526 2.295 3.18.098-.14.277-.323.54-.549 1.626-1.365 2.743-2.405 3.347-3.121l1.504 1.303c-1.611 1.49-2.948 2.625-4.012 3.404 1.176.844 2.958 1.415 5.347 1.71zm-14.638-13.943l.366 2.599 8.807-1.237-.366-2.6-8.807 1.238zm.966 6.87l8.807-1.237-.365-2.6-8.807 1.238.365 2.599zm5.95 97.483l-2.557-18.196 2.331-.328c.022-.254.061-.607.115-1.057.134-.713.21-1.639.226-2.777l2.211.068c-.132 1.155-.292 2.313-.48 3.476l3.886-.546 2.531 18.01-1.899.267-.248-1.764-4.403.619.274 1.95-1.987.278zm.814-33.076c.305 2.166-.218 3.879-1.566 5.143l-.894-.727c.923-.951 1.299-2.234 1.131-3.851l-1.468.206-.431-3.063 2.849-.4.379 2.692zm-1.098 16.644l.718 5.106 4.403-.619-.718-5.106-4.403.619zm1.005 7.148l.744 5.292 4.403-.619-.744-5.292-4.403.619zm.549 22.662l-.274-1.95 2.59-.364-.639-4.549 1.899-.267.64 4.549 2.245-.315.274 1.95-2.245.315.574 4.085c.057-.008.168-.055.333-.142.5-.196 1.079-.467 1.735-.812l.287 2.043c-.164.086-.464.254-.897.504-.5.198-.887.378-1.157.542l.926 6.591c.274 1.539-.336 2.414-1.832 2.625-.682.158-1.34.283-1.973.372-.102-.302-.22-.726-.355-1.275-.168-.355-.264-.625-.29-.811l.345-.049c.468-.003.872-.06 1.208-.17.756-.044 1.058-.401.906-1.074l-.757-5.385-2.486 1.107-.572-2.192.997-.424c.779-.299 1.366-.507 1.761-.626l-.652-4.642-2.591.364zm6.601-92.054c-1.032 1.849-2.179 3.714-3.44 5.596l-1.763-1.267c1.328-1.827 2.454-3.626 3.379-5.398l1.824 1.069zm7.385 76.343l-3.626.51c-.154-.673-.403-1.396-.745-2.167.756-.044 1.883-.17 3.38-.38 1.628-.103 2.326-.99 2.091-2.661-.077-1.377-.399-4.299-.968-8.763-.126-1.308-.227-2.24-.305-2.797l-5.181.729c-.152.589-.413 1.447-.783 2.571l-.361 1.187c-.57-.299-1.198-.589-1.883-.872 1.007-2.854 1.689-5.729 2.046-8.619l2.051.185c-.064.388-.163.938-.296 1.651l-.283 1.744 6.389-.898c.557 3.961 1.093 8.62 1.612 13.974.374 2.66-.672 4.196-3.138 4.606zm-3.453-103.988c-.522-.367-1.304-.92-2.346-1.658-.579-.359-1.03-.644-1.352-.852l1.086-1.667c1.206.651 2.489 1.418 3.845 2.3l-1.233 1.877zm11.313 131.681c-.082.263-.146.43-.194.5-1.924-.74-3.526-1.492-4.808-2.259-.955 1.143-2.226 2.332-3.813 3.565-.142-.169-.387-.452-.734-.844-.341-.331-.581-.581-.722-.75 1.614-1.046 2.844-2.104 3.693-3.17-1.343-1.199-2.604-3.073-3.784-5.622l.811-.493-1.986.279 1.553 11.048-1.986.279-2.975-21.167 11.828-1.663c.061.434.114 1.025.162 1.776.113.805.166 1.397.162 1.776.212 1.927-.694 3.001-2.717 3.222-.682.16-1.858.356-3.527.59-.136-.549-.338-1.15-.606-1.808l1.208-.17c.872-.059 1.538-.121 1.999-.186 1.274-.116 1.847-.638 1.717-1.567.022-.254-.018-.755-.123-1.498l-7.857 1.104.887 6.313 9.929-1.396.287 2.042c-.392 2.644-1.133 4.893-2.221 6.75.91.629 2.404 1.241 4.483 1.832-.127.336-.351.841-.666 1.517zm-11.143-125.457c-.654-.476-1.598-1.132-2.83-1.969-.323-.206-.579-.359-.769-.46l1.073-1.76c.389.262 1.001.649 1.836 1.162l1.75 1.174-1.06 1.853zm.743 91.588c-.35-.392-.873-.98-1.569-1.768-.989-1.186-1.761-2.086-2.317-2.704l1.397-1.333c.489.563 1.215 1.344 2.179 2.345.821.831 1.443 1.501 1.867 2.01l-1.557 1.45zm1.017-89.089c-.434 3.596-.762 6.481-.984 8.659l-2.077-.371c.503-3.1.86-5.991 1.071-8.671.238.03.568.078.989.145.486.121.82.201 1.001.238zm-.692 20.09l-.235-1.671 3.022-.425-.405-2.878 1.813-.255.404 2.878 2.504-.352.235 1.671-2.504.352.326 2.321 1.036-.146c.901-1.514 1.741-3.274 2.516-5.276l1.598.722c-.891 2.019-1.572 3.439-2.042 4.263l1.381-.194.248 1.764-2.763.388-1.539 2.205 3.626-.51.235 1.671-2.238 2.871.065.464c1.239-.363 2.452-.723 3.634-1.079l.248 1.764c-1.241.364-2.452.723-3.634 1.079l.3 2.135c.235 1.671-.42 2.646-1.966 2.927l-2.504.352c-.127-.488-.329-1.09-.606-1.808.468-.004 1.164-.069 2.085-.199.92-.129 1.3-.561 1.139-1.296l-.222-1.578-4.398 1.281-.507-1.728c.336-.109.874-.249 1.614-.416 1.297-.372 2.312-.671 3.043-.901l-.157-1.114 2.018-2.556-3.367.474c-.799.997-1.751 1.95-2.855 2.863-.008-.061-.047-.119-.112-.174-.441-.632-.795-1.055-1.059-1.271.639-.469 1.239-.994 1.803-1.579l-.157-1.114 1.468-.207c.595-.777 1.195-1.524 1.798-2.241l-5.181.728-.248-1.764 3.885-.546-.326-2.321-3.019.426zm1.702-20.422l-.653-4.642 14.591-2.051.652 4.642-14.59 2.051zm.274-6.192l-.926-6.592 12.347-1.735.926 6.591-12.347 1.736zm2.706 124.939c.951-1.585 1.579-3.377 1.886-5.377l-5.181.728c.987 2.007 2.085 3.557 3.295 4.649zm13.427-114.142c-.258.667-.464 1.296-.615 1.885-3.178-.06-5.712-.333-7.6-.826-1.885 1.212-4.345 2.283-7.384 3.215-.309-.524-.679-1.073-1.111-1.643 2.143-.618 4.273-1.327 6.392-2.129-1.295-.448-2.591-1.308-3.884-2.578l-1.208.17-.196-1.393 12.778-1.796.208 1.485c-.929 1.33-2.084 2.503-3.468 3.517 1.598.093 3.627.123 6.088.093zm-15.15-8.189l.274 1.95 2.677-.376-.274-1.95-2.677.376zm.186-8.074l.183 1.3 8.547-1.201-.183-1.3-8.547 1.201zm.352 2.507l.196 1.393 8.548-1.201-.196-1.393-8.548 1.201zm10.249 59.752c.475 6.309-1.691 11.567-6.499 15.777-.076-.117-.212-.254-.411-.416-.614-.609-1.087-1.047-1.417-1.315 4.506-3.852 6.563-8.432 6.168-13.742l-7.511 1.056-.287-2.042 7.771-1.092c-.138-1.811-.321-3.742-.55-5.792l2.158-.303c.13.928.268 2.329.415 4.202.038.69.083 1.219.135 1.59l9.066-1.274c.09 1.061.256 2.868.498 5.421.302 2.987.502 5.042.602 6.164.368 3.04-.805 4.72-3.518 5.039-1.258.239-2.635.465-4.131.675-.188-.92-.466-1.639-.832-2.156l3.972-.558c1.859-.135 2.646-1.224 2.358-3.266-.068-1.316-.323-3.962-.764-7.94l-.144-1.021-7.079.993zm-5.645-1.953c-1.029-1.054-2.169-2.062-3.418-3.022l1.285-1.506c.389.262.981.714 1.776 1.36.787.584 1.378 1.037 1.776 1.359l-1.419 1.809zm1.658-44.573c1.245-.743 2.374-1.69 3.386-2.842l-6.993.982c1.05.799 2.253 1.42 3.607 1.86zm-2.569-8.254l.274 1.95 2.677-.376-.274-1.949-2.677.375zm.318 81.14l-.261-1.856 4.145-.583c-.242-.47-.573-1.15-.991-2.038l1.947-.558c.083.178.243.472.476.88.269.657.481 1.132.64 1.425l3.54-.498.261 1.856-9.757 1.372zm.152 5.47l-.248-1.764 3.108-.437c-.358-.454-.856-1.078-1.496-1.873-.274-.276-.449-.473-.523-.589l1.35-1.042c.141.169.386.452.735.843.623.67 1.112 1.233 1.47 1.687l-1.277.937 2.676-.376c.526-1.272.969-2.503 1.331-3.69l1.818.407c-.21.598-.562 1.437-1.056 2.515-.081.264-.146.432-.194.5l2.936-.413.248 1.764-10.878 1.531zm1.118 4.198l-.261-1.857 4.145-.582-.326-2.321 1.899-.267.326 2.321 3.885-.546.261 1.857-3.885.546.757 5.385c.292 1.663-.364 2.638-1.966 2.927l-1.986.279c-.127-.488-.363-1.117-.706-1.889l1.641-.23c.863-.122 1.217-.519 1.065-1.191l-.705-5.013-4.144.581zm3.157 1.165c-.358 1.629-.84 3.211-1.446 4.748l-1.546-.351c.517-1.334.969-2.913 1.359-4.735l1.633.338zm-.067-63.738c-.232.854-.551 1.719-.956 2.596-.375-.578-.836-1.145-1.383-1.699 1.251-3.205 1.973-6.841 2.165-10.907l1.939.011c-.038.574-.102 1.373-.192 2.394-.086.644-.141 1.094-.163 1.348l6.303-.886.3 2.135-1.813.255c.352 4.18-.022 7.577-1.121 10.192 1.426 1.378 3.137 2.494 5.137 3.349-.187.341-.409.846-.667 1.514-.129.333-.215.566-.254.699-2.1-1.158-3.797-2.369-5.09-3.64-.952 1.586-2.44 3.309-4.468 5.172-.208-.224-.548-.554-1.02-.993-.208-.224-.378-.389-.51-.496 2.306-1.965 3.844-3.759 4.614-5.382-1.098-1.549-2.039-3.436-2.821-5.662zm2.229-29.206l-2.676.376.274 1.95 2.676-.376-.274-1.95zm.443 120.901c-.55.267-.96.483-1.23.646-.159-.293-.421-.698-.787-1.215-.216-.285-.367-.517-.45-.694 6.729-2.649 11.76-6.322 15.092-11.02l-9.066 1.274c-1.377 1.898-3.059 3.713-5.046 5.443-.283-.339-.693-.754-1.231-1.247-.076-.115-.146-.2-.212-.254 3.05-2.512 5.383-5.332 6.999-8.463l2.224.161c-.431.692-.857 1.415-1.28 2.168l10.015-1.408.287 2.042c-2.302 3.669-5.395 6.722-9.278 9.162l10.447-1.468 1.409 10.026-2.072.292-.183-1.3-10.965 1.541.183 1.3-2.072.291-1.135-8.077c-.386.182-.937.449-1.649.8zm-1.867-94.743c.793 2.729 1.753 4.96 2.878 6.696.694-1.738.958-4.457.791-8.158l-3.454.485-.215.977zm5.661 37.184c-1.227-1.215-2.5-2.331-3.815-3.345l1.285-1.506c.968.621 2.284 1.636 3.949 3.042l-1.419 1.809zm-.204 32.329c-.292-.4-.691-.944-1.198-1.63-.574-.739-1.002-1.279-1.284-1.618l1.363-.949c.865 1.142 1.683 2.163 2.456 3.063l-1.337 1.134zm2.06 19.703c-.862-.699-2.108-1.628-3.738-2.788.065.054-.029.004-.285-.149l1.285-1.506c.19.101.48.28.869.541 1.413.875 2.547 1.63 3.4 2.268l-1.531 1.634zm-1.929 4.437l.705 5.013 10.965-1.541-.705-5.013-10.965 1.541zm7.638-22.107l-1.644-11.697-2.763.388.065.464c.802 4.874.464 8.739-1.012 11.598-.066-.054-.224-.127-.471-.218-.257-.153-.732-.403-1.426-.747 1.423-2.408 1.754-5.894.996-10.459l-1.252-8.913c2.851-.59 5.484-1.275 7.899-2.057l.878 1.865c-1.799.569-4.009 1.131-6.63 1.689l.679 4.828 7.166-1.007.274 1.95-2.503.352 1.644 11.697-1.9.267zm-5.468-94.531l-.235-1.671 18.908-2.657.235 1.671-8.461 1.189.287 2.042 7.425-1.043.222 1.579-7.425 1.043.274 1.95 9.325-1.311.248 1.764-20.635 2.9-.248-1.764 9.325-1.311-.274-1.95-7.425 1.043-.222-1.578 7.425-1.043-.287-2.042-8.462 1.189zm1.071-3.653l-1.227-8.727 4.749-.667c.121-.396.248-.949.383-1.663.022-.254.03-.414.021-.476l2.271-.13c-.041.133-.072.327-.094.581-.152.589-.292 1.052-.422 1.385l8.979-1.262 1.226 8.727-15.886 2.232zm.994-7.335l.274 1.95 11.915-1.675-.274-1.95-11.915 1.675zm.962 34.445l-.705-5.013 4.835-.68c-.579-.359-1.676-1.057-3.288-2.094l1.312-1.32c1.272.706 2.393 1.367 3.361 1.989l-1.384 1.425 3.799-.534-.561-3.992 2.159-.303.561 3.992 3.54-.497-1.551-1.013c.358-.365.461-.475.306-.327 1.185-1.175 2.006-2.017 2.463-2.524l1.71.896c-.808.935-1.727 1.916-2.756 2.943l4.921-.692.705 5.014-1.986.279-.457-3.25-15.369 2.16.457 3.249-2.072.292zm-.492-31.103l.287 2.042 11.915-1.674-.287-2.042-11.915 1.674zm4.053 35.147l-.822-5.849 13.642-1.917.822 5.849-5.785.813.3 2.135 7.425-1.043.234 1.671-7.425 1.043.313 2.228 9.238-1.298.235 1.671-20.549 2.888-.235-1.671 9.152-1.286-.313-2.228-7.425 1.043-.235-1.671 7.425-1.043-.3-2.135-5.697.8zm-.312 19.659l-.261-1.856 4.145-.583c-.242-.47-.573-1.15-.991-2.038l1.947-.558c.083.178.243.472.476.88.269.657.481 1.132.64 1.425l3.54-.498.261 1.856-9.757 1.372zm.152 5.469l-.248-1.764 3.108-.437c-.358-.454-.856-1.078-1.496-1.873-.274-.277-.449-.473-.523-.589l1.35-1.042c.141.169.386.452.735.843.623.67 1.112 1.233 1.47 1.687l-1.277.937 2.676-.376c.526-1.272.969-2.503 1.331-3.69l1.818.407c-.21.598-.562 1.437-1.056 2.515-.081.264-.146.432-.194.5l2.936-.413.248 1.764-10.878 1.531zm1.118 4.198l-.261-1.857 4.145-.583-.326-2.321 1.899-.267.326 2.321 3.885-.546.261 1.856-3.885.546.757 5.385c.292 1.663-.364 2.638-1.966 2.927l-1.986.279c-.127-.488-.363-1.117-.706-1.889l1.641-.23c.863-.122 1.217-.519 1.065-1.191l-.705-5.013-4.144.583zm3.158 1.166c-.358 1.629-.84 3.211-1.446 4.748l-1.546-.351c.517-1.334.969-2.913 1.359-4.735l1.633.338zm-2.73-35.041l.378 2.692 9.67-1.359-.378-2.692-9.67 1.359zm24.528 65.507c-.56 1.026-.93 1.74-1.107 2.144-5.465-2.134-8.997-5.961-10.594-11.481-.033 5.623-2.416 10.375-7.153 14.259-.142-.169-.382-.42-.722-.751-.481-.5-.797-.867-.947-1.098 5.082-3.933 7.414-9.056 6.996-15.373-.085-1.439-.288-3.304-.61-5.595l2.245-.315.37 3.262c1.723 8.089 5.613 13.002 11.668 14.738l-.146.21zm-10.436 29.697l-2.249-3.471c-.692 2.18-1.636 4.239-2.83 6.173-.151-.232-.441-.633-.874-1.203-.265-.214-.436-.38-.51-.497 1.285-2.136 2.202-4.38 2.752-6.729-.441-.632-1.107-1.611-1.998-2.938l-1.984-2.845 1.437-1.054 2.971 4.221c.257-1.929.307-4.081.149-6.458l-4.921.692-.287-2.042 6.907-.971.287 2.042c.151 3.576-.008 6.628-.474 9.155 1.239 1.719 1.352 1.893.337.521 1.014 1.373 1.972 2.752 2.871 4.141l-1.584 1.263zm-5.168-57.436c-.292-.4-.691-.944-1.198-1.63-.574-.739-1.002-1.279-1.284-1.618l1.363-.949c.865 1.142 1.683 2.163 2.456 3.063l-1.337 1.134zm7.769 2.032l-1.644-11.697-2.763.388.065.464c.802 4.874.464 8.739-1.012 11.598-.066-.054-.224-.127-.471-.218-.257-.153-.732-.403-1.426-.747 1.423-2.408 1.754-5.894.996-10.459l-1.252-8.913c2.851-.59 5.484-1.275 7.899-2.057l.878 1.865c-1.799.569-4.009 1.131-6.63 1.689l.679 4.828 7.166-1.007.274 1.95-2.503.352 1.644 11.697-1.9.267zm-2.84-73.298l-.6-4.271 9.238-1.298-1.289-2.28 2.192-.687c.45.694.892 1.548 1.328 2.559l-.16.117 8.202-1.153.6 4.271-1.985.279-.353-2.506-15.455 2.172.352 2.507-2.07.29zm2.069 124.184l-1.931-13.74 10.706-1.505 1.892 13.462-1.899.267-1.618-11.512-6.907.971 1.657 11.791-1.9.266zm8.637 5.697c-1.67.235-2.63-.546-2.882-2.34l-.522-3.713c-.45 2.652-2.278 5.305-5.484 7.966-.548-.555-1.086-1.047-1.616-1.477 4.496-3.093 6.258-7.253 5.29-12.483-.161-1.554-.332-2.982-.514-4.282l1.986-.279.274 1.95c.073.937.136 1.59.188 1.961.186 1.742.226 3.282.121 4.622l1.295-.182.757 5.385c.055.813.481 1.13 1.279.956l.69-.097c.756-.044 1.166-.479 1.225-1.309.013-.317.001-.819-.036-1.509-.022-.565-.048-.971-.083-1.219.907.189 1.512.325 1.818.407.078.557.101 1.344.067 2.357-.032.194-.038.353-.021.476.044 1.571-.772 2.443-2.45 2.617l-1.382.193zm-7.588-128.994l-.235-1.671 13.814-1.941.235 1.671-5.525.776c-.155.149-.364.335-.625.562-.515.515-.932.888-1.251 1.123.936.815 1.67 1.659 2.205 2.53 2.105-1.305 4.049-2.714 5.833-4.228l1.271 1.525c-1.122.79-2.269 1.613-3.439 2.471 1.404 2.896 3.546 4.772 6.426 5.629-.333.553-.688 1.169-1.061 1.853-3.096-1.142-5.396-3.313-6.902-6.509-.107.079-.291.23-.552.456-.271.166-.483.321-.639.468.502 1.066.844 2.248 1.027 3.548.448 2.777-.445 4.354-2.681 4.732l-2.849.4-.416-1.078c-.11-.363-.208-.634-.29-.812.345-.048.81-.083 1.394-.101l1.123-.158c1.456-.079 2.033-.979 1.733-2.705-.078-.557-.182-1.078-.308-1.566-2.154 2.638-5.15 4.92-8.986 6.849-.318-.587-.697-1.197-1.138-1.829 3.833-1.547 6.976-3.82 9.431-6.816-.225-.347-.458-.755-.7-1.227-2.139 2.321-4.805 4.242-7.995 5.762-.084-.177-.272-.466-.563-.868-.225-.347-.408-.605-.549-.775 3.159-1.327 5.841-3.124 8.046-5.391-.084-.178-.263-.404-.536-.682l-.298-.242c-1.907 1.468-4.128 2.791-6.662 3.966-.093-.238-.281-.528-.563-.868-.233-.408-.421-.698-.562-.868 3.579-1.26 6.349-2.848 8.311-4.766l-5.524.78zm10.263 66.764c-.477 1.203-1.409 2.722-2.793 4.558-.54-.492-1.016-.962-1.431-1.408 1.322-1.448 2.262-2.905 2.819-4.373l-1.491-1.21c-.721-.529-1.279-.957-1.677-1.279.205-2.301.272-4.739.204-7.318l-1.554.218-.261-1.856 1.813-.255c.042-.953.02-2.37-.069-4.25.049 1.192.057 1.033.021-.477l1.839-.069.054 2.264c-.034 1.015-.045 1.774-.032 2.277l3.367-.473.169 1.207c.528 4.598.436 8.113-.278 10.548 1.05.799 2.07 1.571 3.055 2.316l-1 1.655-2.755-2.075zm-2.586-9.009c-.042.953-.122 2.479-.237 4.578l1.962 1.429c.559-2.287.627-5.137.207-8.55l-1.899.267c-.047.511-.057 1.27-.033 2.276zm2.824-26.921c.724 4.317 2.649 7.991 5.775 11.022l1.641-.231c-3.193-3.085-5.061-6.768-5.603-11.046-.591-4.208.175-8.355 2.302-12.441l-1.554.218c-2.242 4.102-3.096 8.261-2.561 12.478zm14.872 25.665c-.247 1.17-.831 1.821-1.751 1.95-1.094.153-2.018-.157-2.773-.936-.879-.823-1.567-1.957-2.063-3.402l-4.23.594.431 3.064c1.156-.542 2.432-1.067 3.828-1.58-.006.379.044.94.148 1.683-.5.198-1.223.488-2.167.873-.723.291-1.251.493-1.588.602-.55.267-1.037.557-1.463.868l-.959-1.19c.302-.358.405-.876.309-1.558l-1.122-7.984c4.654-.716 8.302-1.482 10.947-2.296l.852 1.679c-.461.065-1.171.228-2.132.489-.913.192-1.623.355-2.132.489.026.186.094.46.204.823.104.743.239 1.292.408 1.647l4.662-.655.222 1.578-4.403.619c.286.781.772 1.533 1.461 2.256.472.439.91.629 1.313.573.346-.048.536-.359.573-.933-.008-.061.002-.189.034-.383.031-.194.065-.577.103-1.15.124.046.367.106.73.181.313.146.532.242.657.287-.006.379-.031.825-.077 1.336-.032.193-.039.352-.022.476zm-7.843 62.578c-1.093 1.417-2.154 2.639-3.183 3.666-.317-.585-.677-1.261-1.077-2.026 2.64-2.516 4.58-5.409 5.824-8.676l-6.13.861-.274-1.949 8.289-1.165.3 2.135c-.646 1.669-1.343 3.187-2.089 4.554l1.592 11.326-1.986.279-1.266-9.005zm-1.5-23.853c.305 2.166-.218 3.88-1.566 5.144l-.894-.727c.923-.951 1.299-2.234 1.131-3.851l-1.468.206-.431-3.063 2.849-.4.379 2.691zm-.209-44.672c-.798.176-1.398.291-1.8.348l.313 2.228 3.972-.558c-.163-.735-.362-1.526-.599-2.377-.394.118-1.023.237-1.886.359zm-.381 19.839l-1.383-9.841 10.62-1.493 1.37 9.748-1.813.255-.156-1.114-6.994.983.17 1.207-1.814.255zm1.86 39.535c-.151-.23-.4-.543-.748-.936-.3-.462-.874-1.203-1.721-2.22l1.609-1.078c.208.224.489.563.847 1.017l1.695 2.034-1.682 1.183zm-1.195-47.959l.287 2.042 6.993-.983-.287-2.042-6.993.983zm.483 3.435l.287 2.042 6.993-.983-.287-2.042-6.993.983zm8.871-58.944c-.477 1.203-1.409 2.722-2.793 4.558-.54-.492-1.016-.962-1.431-1.408 1.322-1.448 2.262-2.905 2.819-4.373l-1.491-1.21c-.721-.529-1.279-.957-1.677-1.279.205-2.301.272-4.739.204-7.318l-1.554.218-.261-1.856 1.813-.255c.042-.953.02-2.37-.069-4.25.049 1.192.057 1.033.021-.477l1.839-.069.054 2.264c-.034 1.015-.045 1.774-.032 2.277l3.367-.473.169 1.207c.528 4.598.436 8.113-.278 10.548 1.05.799 2.07 1.571 3.055 2.316l-1 1.655-2.755-2.075zm-2.091 114.071c-1.052-.799-2.313-1.63-3.785-2.498l1.099-1.575c1.141.597 2.394 1.368 3.759 2.312l-1.073 1.761zm-.496-123.08c-.042.953-.122 2.479-.237 4.578l1.962 1.429c.559-2.287.627-5.137.207-8.55l-1.899.267c-.047.512-.057 1.271-.033 2.276zm13.645 20.072l.248 1.764-5.871.825 2.361 16.803-1.986.279-2.361-16.804-5.871.825-.248-1.764 13.728-1.928zm-7.034 108.302c-2.063.353-3.228-.62-3.492-2.917l-2.518-17.917 2.072-.291 2.466 17.546c.107 1.185.704 1.668 1.789 1.453l1.036-.146c1.101-.091 1.627-.733 1.578-1.926-.026-.186-.033-.436-.018-.755-.068-1.316-.149-2.313-.245-2.995.791.206 1.517.355 2.177.452-.023.256-.025.666-.003 1.231.066 1.316.087 2.292.059 2.927.013 1.764-.988 2.79-3.002 3.073l-1.899.265zm11.086-129.63c-.247 1.17-.831 1.821-1.751 1.95-1.094.153-2.018-.157-2.773-.936-.879-.823-1.567-1.957-2.063-3.402l-4.23.594.431 3.064c1.156-.542 2.432-1.067 3.828-1.58-.006.379.044.94.148 1.683-.5.198-1.223.488-2.167.873-.723.291-1.251.493-1.588.602-.55.267-1.037.557-1.463.868l-.959-1.19c.302-.358.405-.876.309-1.558l-1.122-7.984c4.654-.716 8.302-1.482 10.947-2.296l.852 1.679c-.461.065-1.171.228-2.132.489-.913.192-1.623.355-2.132.489.026.186.094.46.204.823.104.743.239 1.292.408 1.647l4.662-.655.222 1.578-4.403.619c.286.781.772 1.533 1.461 2.256.472.439.91.629 1.313.573.346-.048.536-.359.573-.933-.008-.061.002-.189.034-.383.031-.194.065-.577.103-1.15.124.046.367.106.73.181.313.146.532.242.657.287-.006.379-.031.825-.077 1.336-.033.193-.04.353-.022.476zm-11.625 55.734l-.287-2.042 7.771-1.092-.535-3.806 2.245-.315.535 3.806 7.771-1.092.287 2.042-7.857 1.104c.078.557.162 1.366.253 2.426l.222 1.578 9.152-1.286.3 2.135-8.807 1.238c1.649 3.808 5.028 5.92 10.135 6.338-.138.271-.361.776-.667 1.514-.179.403-.288.67-.327.803-5.169-.852-8.593-3.083-10.274-6.698-.328 3.518-2.876 6.684-7.645 9.5l-1.742-1.743c5.131-2.74 7.688-5.845 7.671-9.314l-8.634 1.213-.3-2.135 8.893-1.25c-.077-1.376-.206-2.716-.389-4.016l-7.771 1.092zm2.072-61.681c-.798.176-1.398.291-1.8.348l.313 2.228 3.972-.558c-.163-.735-.362-1.526-.599-2.377-.394.118-1.022.237-1.886.359zm-.381 19.84l-1.383-9.841 10.62-1.493 1.37 9.748-1.813.255-.156-1.114-6.994.983.17 1.207-1.814.255zm.665-8.425l.287 2.042 6.993-.983-.287-2.042-6.993.983zm.801 77.767l-.248-1.764 3.626-.51-.431-3.063 1.899-.267.431 3.063 2.936-.413.248 1.764-2.936.413.457 3.249 3.454-.485.261 1.857-2.763.388.496 3.528 3.108-.437.248 1.764-3.108.437.561 3.992c1.071.103 2.354.048 3.851-.162 4.604-.647 7.939-1.148 10.002-1.5-.176.844-.281 1.554-.317 2.127-4.433.623-7.661 1.044-9.683 1.266-3.954.681-6.739-.127-8.353-2.424-.154 1.411-.444 2.902-.868 4.477-.133-.108-.418-.258-.855-.448-.389-.262-.678-.441-.868-.541.921-2.212 1.02-5.476.296-9.792l1.826-.162c.061.434.114 1.025.162 1.776.122.868.179 1.49.175 1.869.882 1.265 1.773 2.181 2.675 2.748l-1.161-8.263-5.181.728-.261-1.857 4.403-.619-.457-3.249-3.625.51zm-.318-74.332l.287 2.042 6.993-.983-.287-2.042-6.993.983zm6.359 117.902l-2.505-17.825 5.007-.704 2.453 17.454-1.468.206-.248-1.764-1.986.279.3 2.135-1.553.219zm-.69-16.187l1.683 11.976 1.986-.279-1.683-11.976-1.986.279zm8.766-85.921c2.927-.473 4.608 1.057 5.047 4.592l1.213 8.634-1.899.267-1.174-8.355c-.356-2.537-1.484-3.673-3.384-3.406-2.201.626-3.228 2.096-3.079 4.409l1.174 8.355-1.899.267-2.609-18.567 1.899-.267.992 7.056c.761-1.685 2.001-2.68 3.719-2.985zm-1.786 84.846c-.682.16-1.446.361-2.292.606-.11-.363-.262-.815-.455-1.356-.084-.178-.134-.328-.151-.452 2.21-.562 4.239-1.164 6.086-1.802l.692 1.796-2.106.675.47 3.342 3.108-.437-.443-3.157c-.275-1.538-.473-2.741-.595-3.608l1.813-.255c.313 2.228.659 4.484 1.039 6.765l4.662-.655.274 1.95-4.576.643c.41 2.088.745 3.84 1.002 5.255.879-1.26 1.613-2.719 2.202-4.38l1.638 1c-.962 2.345-2.009 4.291-3.142 5.838l.013.093c.689 1.986 1.413 2.957 2.17 2.914.345-.049.531-.392.56-1.026l.024-1.708c-.03-.626-.037-1.098-.023-1.417.238.03.544.113.916.25l.557.206c.058 1.255.063 2.327.012 3.217-.063 1.649-.673 2.523-1.833 2.624-1.431.263-2.678-.887-3.742-3.45-.703.856-1.531 1.635-2.489 2.338-.15-.231-.423-.508-.821-.831-.216-.285-.391-.48-.523-.589 1.21-.99 2.269-2.023 3.174-3.097-.55-1.816-1.053-4.144-1.51-6.983l-3.194.449.496 3.528 2.167-.873c.026.186.098.492.217.917l.144 1.021-2.253.885.705 5.013c.292 1.663-.368 2.608-1.979 2.834l-1.986.279c-.11-.363-.299-.874-.567-1.53-.084-.177-.134-.329-.151-.452l1.727-.243c.872-.06 1.23-.426 1.079-1.098l-.574-4.085-2.499 1.014-.719-1.982 2.931-1.074-.548-3.899-2.763.388-.274-1.95 2.763-.388-.433-3.063zm-2.451-29.306l-.274-1.949 8.979-1.262.274 1.95-3.54.498.796 5.663 4.317-.607.287 2.042-4.317.607 1.109 7.891-1.899.267-1.109-7.891-4.145.582-.287-2.042 4.145-.582-.796-5.664-3.54.497zm5.929-77.955c-1.093 1.417-2.154 2.638-3.183 3.666-.317-.585-.677-1.262-1.077-2.026 2.64-2.516 4.58-5.408 5.824-8.676l-6.13.862-.274-1.95 8.289-1.165.3 2.135c-.646 1.669-1.343 3.188-2.089 4.554l1.592 11.326-1.986.279-1.266-9.005zm-.229-9.151c-.151-.23-.4-.543-.748-.937-.3-.462-.874-1.203-1.721-2.22l1.609-1.078c.208.224.489.563.847 1.017l1.695 2.034-1.682 1.184zm6.068 10.602c-1.052-.799-2.313-1.63-3.785-2.498l1.099-1.575c1.141.597 2.394 1.368 3.759 2.312l-1.073 1.761zm6.891 61.558c-.314-.145-.798-.456-1.451-.932-.579-.359-1.03-.644-1.353-.852-.73 1.492-1.965 3.147-3.704 4.97-.274-.278-.808-.738-1.604-1.384 1.726-1.504 2.944-3.065 3.657-4.68-.456-.314-1.162-.751-2.121-1.311l-1.75-1.174c.296-2.061.44-4.384.429-6.971l-1.899.267-.274-1.949 2.245-.315c.051-.891.032-2.277-.056-4.158.03-.194.039-.352.021-.477l2.012-.093-.077 4.46 4.23-.595.261 1.857c.22 4.072-.008 7.26-.681 9.563 1.083.605 2.141 1.247 3.175 1.921l-1.06 1.853zm-6.169 44.261l-1.093-.888c-.804-.707-1.467-1.245-1.988-1.614l1.052-1.284c.454.314 1.142.819 2.061 1.509.463.377.824.642 1.081.795l-1.113 1.482zm5.393-100.525c-2.063.352-3.228-.62-3.492-2.917l-2.518-17.917 2.072-.292 2.466 17.546c.107 1.185.704 1.669 1.789 1.453l1.036-.146c1.101-.091 1.627-.733 1.578-1.926-.026-.186-.033-.437-.018-.755-.068-1.316-.149-2.313-.245-2.995.791.205 1.517.355 2.177.451-.023.256-.024.667-.003 1.231.066 1.316.087 2.292.059 2.926.013 1.765-.987 2.79-3.001 3.073l-1.9.268zm-3.063 51.502c.568-2.225.74-4.963.519-8.214l-2.676.376c-.073 2.41-.213 4.543-.421 6.402l2.578 1.436zm4.905-25.132c1.957-.275 3.056-1.438 3.295-3.493l1.978.29c-.308 2.821-1.964 4.409-4.965 4.769-3.883.356-6.19-1.654-6.923-6.033-.479-4.666 1.137-7.354 4.854-8.066 3.7-.393 5.939 1.754 6.716 6.44l.064.464-9.583 1.347c.541 3.017 2.062 4.444 4.564 4.282zm-5.404 47.846l-1.018-7.241 1.727-.243 1.018 7.241-1.727.243zm7.518 9.642c-2.589 1.625-4.617 2.857-6.084 3.695-.142-.169-.324-.428-.549-.774-.225-.347-.408-.605-.549-.775 2.516-1.3 4.492-2.492 5.924-3.578l1.258 1.432zm-3.627-68.257c-2.326.58-3.392 2.181-3.199 4.804l7.511-1.056c-.498-2.706-1.935-3.955-4.312-3.748zm15.125 55.47c-.13.334-.236.823-.322 1.465-2.734-.246-4.879-.671-6.431-1.274-.591.399-1.655.959-3.196 1.68 1.156-.541 1.045-.493-.333.142l1.055.609c-1.402.892-2.975 1.807-4.721 2.746 1.208-.169 3.042-.489 5.5-.962l.432-.061c1.131-.727 2.229-1.48 3.293-2.261l1.749 1.174c-4.604 2.73-8.163 4.777-10.671 6.139l9.014-1.646c-.134-.107-.355-.234-.67-.379-.562-.236-.973-.432-1.227-.585l1.139-1.296 1.412.653c1.966 1.049 3.426 1.823 4.376 2.32l-1.025 1.47-1.724-.988-5.068.901.393 2.785c.316 1.849-.416 2.898-2.199 3.149l-2.59.364c-.018-.125-.069-.274-.152-.452l-.455-1.356c.288-.041.666-.063 1.136-.065l.949-.134c1.103-.092 1.56-.598 1.372-1.518l-.34-2.414c-.807.113-1.924.303-3.354.566-1.085.216-1.858.356-2.318.42-.567.144-.764.202-.591.178-.798.176-1.336.315-1.615.417l-.852-1.679c.837-.307 1.69-.711 2.559-1.211 1.418-.768 2.935-1.674 4.548-2.722l-.259.037c-1.364.319-2.68.566-3.946.744-.172.024-.457.097-.85.214-.345.048-.6.117-.764.202l-.839-1.586c.73-.229 1.444-.582 2.141-1.058.984-.517 2.404-1.474 4.263-2.871l-.86-1.11c.73-.229 1.621-.574 2.672-1.038.385-.18.659-.313.823-.4-1.034-.674-2.05-1.636-3.047-2.885l.16-.117-.864.121-.222-1.578 10.103-1.419.221 1.578c-.662 1.546-1.623 2.848-2.883 3.908 1.641.401 3.369.6 5.189.596-.045.131-.081.293-.111.487zm-14.859 2.656l-1.122-7.984 1.813-.255 1.122 7.984-1.813.255zm.838-25.318l-.287-2.042 7.856-1.104-.875-6.22-8.202 1.153-.287-2.042 10.273-1.444 2.832 20.146-2.072.292-.184-1.3-8.375 1.177-.261-1.856 8.375-1.177-.938-6.685-7.855 1.102zm5.407 54.751c-1.094.154-2.131.711-3.111 1.668l.287 2.042c.905-1.074 1.904-1.688 2.999-1.841.978-.138 1.967.007 2.967.435 1.048.359 2.118.459 3.212.306 1.209-.169 2.163-.683 2.865-1.539l-.286-2.042c-.694.918-1.61 1.49-2.753 1.712-.749.105-1.676-.016-2.781-.367-1.296-.447-2.429-.572-3.399-.374zm-1.017-121.775l-.273-1.95 6.994-.983.273 1.95-2.504.352 1.618 11.512 2.585-1.026c-.006.379.122 1.087.387 2.123-2.053.856-4.374 1.878-6.966 3.062l-.672-2.272c.895-.315 1.839-.699 2.831-1.155l-1.684-11.976-2.589.363zm2.69 87.915c.907-.632 1.827-1.613 2.756-2.943l-5.524.777c.828.893 1.752 1.615 2.768 2.166zm8.281 15.688c-.248-.092-.588-.202-1.016-.331-2.518-.782-4.443-1.331-5.777-1.649l.728-1.712c1.039.296 2.692.791 4.963 1.48.84.135 1.446.27 1.817.407l-.715 1.805zm-3.43-105.704l-.273-1.95 12.777-1.796.274 1.95-5.785.813-.126 2.858 5.439-.765 1.564 11.141-1.898.267-1.306-9.284-7.685 1.08 1.33 9.47-1.898.267-1.592-11.326 3.972-.558.127-2.858-4.92.691zm.369 59.634l-.247-1.764 4.058-.57-.364-2.599 1.899-.267.364 2.599 3.54-.497-.379-2.692 1.812-.255.379 2.692 3.627-.51-.365-2.6 1.898-.267.365 2.599 3.973-.558.248 1.764-3.973.558.339 2.414-1.899.267-.338-2.414-3.627.509.34 2.414-1.813.255-.339-2.414-3.54.498.339 2.414-1.898.267-.34-2.414-4.059.571zm14.048-42.253c-.92-.692-2.59-1.719-5.012-3.083-.579-.359-.997-.617-1.253-.771-.547 1.97-2.53 3.92-5.956 5.854-.076-.117-.292-.401-.647-.855-.359-.456-.607-.767-.748-.936 2.688-1.325 4.357-2.601 5.008-3.828.771-1.181.981-3.041.625-5.579l-.293-2.704 1.899-.267.379 2.692c.11 1.626.138 2.854.077 3.681 1.33.698 3.271 1.781 5.827 3.252.569.298.983.524 1.239.678l-1.145 1.866zm-12.286 49.769l-.588-4.178 19.514-2.742.586 4.177-1.984.279-.326-2.321-15.541 2.184.326 2.321-1.987.28zm10.3-23.532c2.802-.52 4.352-2.442 4.647-5.766l2.322.241c-.528 4.178-2.745 6.571-6.649 7.183-4.994.386-8.044-2.309-9.148-8.087-.657-6.345 1.554-10.031 6.634-11.062 3.299-.336 5.882 1.131 7.75 4.402l-2.08.86c-1.41-2.515-3.271-3.642-5.582-3.381-3.459.865-5.017 3.767-4.675 8.704.899 4.736 3.158 7.037 6.781 6.906zm-7.054 31.596l-1.097-7.798 6.647-.934-.287-2.042 2.072-.292.287 2.042 6.734-.946.718 5.106c.291 1.663-.396 2.612-2.065 2.846-.453.126-1.281.275-2.49.445-.103-.302-.235-.629-.402-.985-.102-.301-.193-.541-.277-.718.527-.01 1.252-.081 2.172-.21.873-.059 1.219-.518 1.039-1.377l-.431-3.063-4.748.667 1.097 7.798-2.072.291-1.096-7.798-4.662.655.848 6.035-1.987.278zm3.592 13.05c-.273.985-.689 1.99-1.25 3.016-.248-.091-.678-.22-1.287-.387-.307-.083-.521-.147-.644-.193 1.151-2.245 1.884-4.556 2.194-6.936h2.025c-.117.837-.269 1.647-.451 2.43l4.576-.643-.471-3.342 1.984-.279.472 3.342 7.425-1.043.273 1.95-7.426 1.043.482 3.435 8.895-1.25.272 1.95-20.635 2.9-.274-1.95 9.758-1.371-.482-3.435-5.436.763zm.66 17.232l-1.292-9.191 15.541-2.184 1.292 9.191-2.072.291-.195-1.393-11.396 1.602.195 1.393-2.073.291zm1.052-7.533l.588 4.178 11.396-1.602-.587-4.178-11.397 1.602zm9.684-81.323l-2.948-20.981 16.146-2.269 2.949 20.981-2.072.291-.234-1.671-12.002 1.687.234 1.671-2.073.291zm-.59-19.23l.549 3.899 12.001-1.687-.548-3.899-12.002 1.687zm.81 5.756l.535 3.806 12.001-1.687-.535-3.807-12.001 1.688zm7.249 25.506c2.928-.473 4.608 1.057 5.049 4.592l1.213 8.634-1.899.267-1.175-8.355c-.355-2.537-1.484-3.673-3.385-3.406-2.201.626-3.227 2.095-3.078 4.409l1.176 8.355-1.899.267-2.608-18.567 1.898-.267.991 7.056c.759-1.685 1.999-2.68 3.717-2.985zm-6.442-19.75l.562 3.992 12.001-1.687-.562-3.992-12.001 1.687zm3.627 47.721l-.274-1.949 8.03-1.129-.418-2.971 2.072-.291.416 2.971 8.03-1.128.273 1.95-8.029 1.128.822 5.849 9.151-1.286.273 1.95-8.289 1.165c2.486 2.239 5.609 3.789 9.37 4.647-.081.265-.239.602-.474 1.014-.17.464-.323.833-.461 1.106-4.035-1.137-7.061-2.826-9.078-5.067l1.109 7.891-2.072.292-1.121-7.984c-1.584 2.937-4.065 5.527-7.448 7.769-.302-.464-.786-.994-1.457-1.594 3.284-2.102 5.866-4.612 7.747-7.526l-8.202 1.152-.274-1.949 9.152-1.287-.822-5.849-8.026 1.126zm4.975 4.697c-.482-.5-1.229-1.215-2.238-2.147-.474-.438-.813-.769-1.021-.993l1.384-1.425c.662.539 1.607 1.416 2.835 2.631-.812-.769-.676-.63.411.416l-1.371 1.518zm3.439 37.593c-.246.351-.51.765-.793 1.248l-1.604-1.384c.433-.69.562-1.435.392-2.232l-1.004-7.149-2.16.303-.272-1.949 4.144-.583 1.188 8.448 1.832-2.625.429 1.17c.127.488.241.882.344 1.183-1.251 1.565-2.081 2.754-2.496 3.57zm-1.572-13.696c-1.047-1.178-2.18-2.345-3.396-3.499l1.483-1.345c1.002.87 2.157 2.001 3.47 3.394l-1.557 1.45zm6.476 4.107c.878 4.989.48 9.054-1.19 12.191-.135-.108-.395-.292-.782-.553-.522-.369-.877-.603-1.067-.702.787-1.498 1.229-2.949 1.325-4.352.154-1.41.031-3.539-.369-6.386l-1.174-8.355c5.302-1.124 9.071-2.063 11.313-2.821l1.062 1.933c-2.537.735-5.887 1.554-10.044 2.453l.509 3.621 10.879-1.529.273 1.95-4.316.606.704 5.013 4.453.984-.504 2.059c-1.163-.341-2.379-.644-3.649-.907l.783 5.57-1.984.279-.889-6.313c-1.395-.309-2.725-.595-3.994-.859l.517-1.966c1.03.234 2.09.463 3.179.689l-.602-4.271-4.574.643.141 1.023zm6.371-62.664l1.813-.255 1.892 13.461-1.813.255-.26-1.856c-.723 1.552-1.998 2.489-3.832 2.811-2.927.473-4.602-.994-5.021-4.407l-1.239-8.819 1.812-.255 1.215 8.634c.396 2.406 1.549 3.507 3.457 3.301 2.21-.562 3.269-2.005 3.178-4.328l-1.202-8.542zm-2.911 29.688c-1.008 1.594-1.854 2.88-2.539 3.859l-1.576-1.198c.994-1.276 1.836-2.592 2.525-3.953l1.736 1.082-.146.21zm5.019-47.515c.304 2.166-.219 3.88-1.566 5.143l-.895-.726c.923-.951 1.3-2.234 1.132-3.852l-1.468.207-.432-3.064 2.85-.4c.071.496.198 1.392.379 2.692zm8.434 49.972c-.449 3.914-2.145 7.307-5.085 10.182-.216-.286-.562-.647-1.032-1.085-.217-.285-.392-.481-.522-.589 2.567-2.19 4.086-4.96 4.555-8.309l-4.835.68-.273-1.95 6.908-.971.284 2.042zm13.167 7.238c-4.182-2.189-7.2-5.078-9.055-8.668l1.214 8.634c.335 1.972-.477 3.096-2.432 3.371l-3.021.425c-.193-.541-.438-1.233-.732-2.075.584-.02 1.481-.113 2.689-.283 1.219-.109 1.693-.68 1.432-1.716l-1.694-12.069-7.253 1.019-.274-1.949 9.238-1.298.157 1.114c.817 1.653 1.606 3.087 2.365 4.307 1.699-1.69 3.168-3.348 4.407-4.975l1.616 1.477c-1.52 1.728-3.127 3.438-4.826 5.128 1.703 2.096 4.128 3.902 7.276 5.415l-1.107 2.143zm-12.868-39.202c.519-.073 1.062.04 1.633.338l.516-1.966c-.76-.397-1.48-.517-2.163-.358-1.373.256-2.226 1.292-2.558 3.104l-.086.012-.34-2.414-1.812.255 1.904 13.554 1.813-.255-1.03-7.334c-.209-1.486-.103-2.604.32-3.359.51-.953 1.111-1.479 1.803-1.577zm-3.297 53.901c-.336.111-.562.174-.678.19-.034-.247-.141-.58-.314-.997-.129-.486-.233-.819-.316-.997 2.793-.582 5.624-1.326 8.49-2.234l.719 1.982c-.289.041-.713.164-1.27.368-.854.184-1.479.335-1.873.453l.482 3.435 5.094-.716c-.512-2.39-.916-4.636-1.212-6.741l2.072-.291c.2 1.424.573 3.675 1.125 6.753l7.426-1.043.287 2.042-7.339 1.032.367 1.368c.391 1.523.76 2.892 1.104 4.105 1.19-1.555 2.215-3.246 3.074-5.071l1.822 1.069c-1.145 2.307-2.47 4.356-3.979 6.145.141.169.295.432.463.787.226.347.379.609.463.787.731 1.033 1.468 1.465 2.207 1.299.461-.064.759-.453.894-1.167.027-.634.053-1.712.075-3.229.865.321 1.51.514 1.93.581.036 1.51-.053 2.753-.269 3.73-.221 1.356-.992 2.127-2.315 2.313-1.546.28-2.942-.471-4.189-2.251-.076-.115-.191-.319-.352-.614l-.337-.521c-1.242 1.185-2.661 2.362-4.259 3.533-.707-.847-1.188-1.348-1.442-1.501 1.604-1.109 3.175-2.465 4.71-4.07-.57-1.56-1.091-3.38-1.561-5.461l-.395-1.554-5.18.728.509 3.621c.509-.133 1.269-.368 2.278-.699l1.516-.497.091.65c.021.565.087 1.029.195 1.393l-1.515.497c-1.01.331-1.771.565-2.278.699l.665 4.735c.291 1.663-.334 2.634-1.881 2.915-.508.134-1.453.299-2.836.493-.092-.24-.197-.573-.315-.997l-.415-1.078c.296.021 1.02-.048 2.171-.21.929-.068 1.306-.529 1.126-1.389l-.521-3.714-3.953 1.313-.658-2.179c.277-.102.76-.232 1.441-.392 1.238-.363 2.197-.655 2.869-.877l-.561-3.992-4.316.606-.287-2.042 4.316-.606-.443-3.157c-.671.22-1.58.442-2.722.665zm8.11-30.04c-1.337-.316-3.446-.714-6.331-1.193-.487-.121-.852-.196-1.088-.226l.527-1.874c1.971.229 4.405.645 7.308 1.246l-.416 2.047zm5.138-25.54c1.628-.102 2.833.738 3.611 2.522l1.723-.905c-1.057-2.502-2.971-3.59-5.742-3.264-3.543.688-5.05 3.33-4.521 7.925.69 4.51 2.889 6.567 6.591 6.174 3.067-.305 4.604-2.098 4.614-5.382l-1.965-.197c.157 2.377-.771 3.706-2.785 3.989-2.476.348-3.966-1.272-4.47-4.863-.512-3.651.468-5.651 2.944-5.999zm-2.067-33.243c-.336.111-.563.173-.678.19-.035-.247-.142-.58-.316-.997-.127-.487-.232-.819-.315-.997 2.793-.582 5.624-1.326 8.49-2.235l.719 1.982c-.289.041-.712.164-1.269.368-.855.184-1.48.335-1.874.453l.482 3.435 5.095-.716c-.513-2.39-.916-4.636-1.213-6.741l2.072-.292c.2 1.425.574 3.675 1.125 6.753l7.426-1.043.287 2.042-7.339 1.031.368 1.369c.39 1.523.759 2.892 1.104 4.104 1.19-1.555 2.216-3.246 3.074-5.071l1.822 1.069c-1.145 2.307-2.469 4.356-3.979 6.145.142.169.296.432.464.787.225.347.379.61.463.787.73 1.033 1.467 1.465 2.207 1.299.461-.065.758-.453.893-1.167.028-.634.053-1.711.075-3.229.866.321 1.51.514 1.93.581.036 1.51-.053 2.753-.268 3.73-.222 1.356-.993 2.127-2.316 2.313-1.546.279-2.941-.471-4.189-2.251-.075-.115-.191-.319-.352-.613l-.337-.521c-1.242 1.185-2.661 2.362-4.258 3.533-.707-.848-1.188-1.348-1.443-1.501 1.604-1.108 3.176-2.465 4.71-4.07-.57-1.561-1.091-3.381-1.56-5.461l-.396-1.554-5.18.728.509 3.621c.51-.134 1.27-.368 2.278-.699l1.516-.497.092.649c.021.565.086 1.03.194 1.393l-1.515.497c-1.01.332-1.771.565-2.278.699l.665 4.734c.291 1.664-.334 2.634-1.88 2.915-.509.134-1.454.299-2.836.493-.093-.24-.198-.572-.316-.997l-.414-1.078c.295.021 1.02-.049 2.17-.21.93-.068 1.306-.53 1.127-1.389l-.522-3.713-3.953 1.313-.657-2.18c.277-.101.76-.232 1.44-.392 1.239-.364 2.196-.655 2.87-.877l-.561-3.992-4.317.607-.287-2.042 4.317-.607-.444-3.156c-.671.222-1.579.445-2.722.668zm5.597 88.547c-1.146-1.037-2.493-2.078-4.05-3.123l1.199-1.494 4.097 2.833-1.246 1.784zm5.602-28.93c-.489 1.522-1.075 2.992-1.757 4.413-.189-.099-.537-.271-1.041-.516-.447-.252-.765-.428-.955-.529 1.494-2.733 2.479-5.745 2.957-9.031l2.124.08c-.103.521-.232 1.264-.391 2.232-.16.529-.253.92-.274 1.175l4.662-.655-.679-4.827 2.072-.292.679 4.828 7.771-1.092.287 2.042-7.771 1.092.69 4.92 7.079-.995.287 2.042-7.079.995.757 5.384 8.894-1.25.273 1.949-20.636 2.9-.272-1.95 9.67-1.359-.757-5.385-7.513 1.056-.287-2.042 7.513-1.056-.691-4.92-5.612.791zm4.764-30.129c2.927-.473 4.607 1.057 5.048 4.592l1.213 8.634-1.899.267-1.174-8.355c-.355-2.537-1.484-3.673-3.385-3.406-2.201.626-3.227 2.096-3.078 4.409l1.175 8.355-1.898.267-2.609-18.567 1.899-.267.99 7.056c.76-1.685 2.001-2.68 3.718-2.985zm-2.219 61.987c-.46 1.328-.956 2.596-1.489 3.807l-.937-2.898c1.447-3.484 2.352-7.083 2.709-10.794l2.15.266-.143.872c-.237 1.233-.541 2.632-.905 4.198l2.335 16.618-1.985.279-1.735-12.348zm3.035-91.751c-1.145-1.038-2.493-2.079-4.049-3.123l1.198-1.494 4.097 2.833-1.246 1.784zm3.871 85.763c-1.055-1.24-2.06-2.329-3.013-3.269l1.482-1.344c1.344 1.2 2.396 2.219 3.16 3.059l-1.629 1.554zm-.202 17.353l-2.297-16.339 2.072-.291 2.297 16.339-2.072.291zm4.477-100.189c-.46 1.328-.956 2.596-1.49 3.807l-.936-2.898c1.446-3.484 2.351-7.083 2.709-10.794l2.149.266-.142.872c-.238 1.233-.541 2.632-.906 4.198l2.335 16.618-1.985.279-1.734-12.348zm1.566 99.34c-.275-.719-.529-1.473-.758-2.26.929-.068 1.913-.174 2.949-.32 1.341-.063 1.862-.735 1.563-2.019l-1.97-14.019-4.921.691-.301-2.135 7.08-.995 2.336 16.618c.387 2.343-.454 3.661-2.526 3.953l-3.452.486zm5.34-105.328c-1.055-1.239-2.06-2.329-3.013-3.269l1.483-1.345c1.343 1.2 2.396 2.22 3.16 3.059l-1.63 1.555zm-.202 17.354l-2.297-16.339 2.071-.292 2.297 16.339-2.071.292zm6.768 55.033c-.208-.224-.499-.624-.874-1.203-.749-1.156-1.34-2.02-1.771-2.591-.416 1.637-1.326 3.722-2.73 6.253-.45-.694-.887-1.295-1.311-1.804 1.283-2.136 2.151-4.31 2.604-6.52-1.465-2.066-2.854-4.016-4.168-5.852l1.41-1.24 3.183 4.476c.249-1.99.285-4.236.109-6.737l-4.835.68-.273-1.95 6.82-.959.287 2.042c.052 3.718-.135 6.773-.562 9.167 1.747 2.405 2.953 4.098 3.619 5.077l-1.508 1.161zm5.22-36.152c.595 4.65-1.032 7.277-4.88 7.881-3.776.278-6.051-1.706-6.822-5.952-.557-4.781 1.114-7.508 5.013-8.184 3.651-.324 5.881 1.762 6.689 6.255zm-1.974.372c-.659-3.441-2.188-5.12-4.581-5.037-2.64.435-3.728 2.512-3.263 6.233.544 3.459 2.148 5.063 4.814 4.814 2.458-.47 3.468-2.475 3.03-6.01zm-3.971-20.103c-.276-.718-.53-1.473-.758-2.26.929-.068 1.912-.174 2.948-.32 1.341-.063 1.862-.735 1.564-2.019l-1.97-14.019-4.922.692-.301-2.135 7.08-.995 2.336 16.618c.387 2.344-.454 3.662-2.525 3.953l-3.452.485zm14.471 69.778l-.365-2.6-15.194 2.136.364 2.6-1.898.267-.613-4.364 8.721-1.225c-.344-.771-.653-1.518-.931-2.236l2.205-.594.884 2.526 8.202-1.152.613 4.363-1.988.279zm-6.676 6.997c-1.95 1.158-5.152 2.397-9.604 3.716-.092-.239-.227-.567-.401-.985-.233-.408-.394-.702-.477-.88 3.517-.873 6.233-1.79 8.153-2.755-1.132-.535-2.229-1.232-3.288-2.094-1.069 1.161-2.001 2.049-2.795 2.665-.415-.446-.855-.857-1.318-1.234 2.315-1.902 3.999-3.907 5.054-6.012l2.038.092-.438.63c-.129.334-.243.571-.34.71l9.237-1.298.262 1.857c-1.328 1.829-2.636 3.179-3.921 4.054 1.688.331 4.331.338 7.927.022-.145.652-.253 1.33-.33 2.035-4.197.21-7.45.038-9.759-.523zm-6.679-31.266c-.315.676-.592 1.219-.826 1.631-.194-.541-.577-1.181-1.15-1.921 1.508-3.052 2.491-6.282 2.952-9.693l2.038.092c-.212 1.419-.498 2.721-.86 3.908l4.06-.57c-.233-.408-.627-1.11-1.178-2.106-.316-.586-.551-.995-.699-1.227l1.834-.731c.792 1.467 1.423 2.609 1.89 3.427l-1.329.565 4.749-.667.248 1.764-4.06.57.444 3.156 3.799-.534.248 1.764-3.799.534.456 3.249 3.799-.534.248 1.764-3.799.534.47 3.342 4.316-.607.223 1.578-10.102 1.42.208 1.485-1.899.267-1.865-13.276c-.092.203-.231.475-.416.816zm.843 41.743l-1.004-7.148 14.158-1.99 1.006 7.148-1.899.267-.144-1.021-10.361 1.457.144 1.021-1.9.266zm1.039-45.889l.442 3.156 3.886-.546-.443-3.157-3.885.547zm.104 40.237l.379 2.692 10.36-1.456-.378-2.692-10.361 1.456zm4.492-6.879c1.459-.899 2.714-1.991 3.766-3.275l-7.855 1.104c1.247.961 2.612 1.684 4.089 2.171zm-3.904-28.437l.457 3.249 3.885-.546-.457-3.25-3.885.547zm.704 5.013l.47 3.342 3.887-.546-.471-3.342-3.886.546zm7.579-43.02c-1.103.093-1.533.784-1.293 2.075l.162 1.776 2.59-.364.234 1.671-2.59.364 1.656 11.791-1.812.255-1.656-11.791-1.986.279-.233-1.671 1.984-.279-.233-1.671c-.406-2.466.401-3.811 2.426-4.033.864-.121 1.72-.083 2.569.112l-.138 1.534c-.544-.112-1.105-.129-1.68-.048zm-1.461-9.754l-2.558-18.196 2.331-.328c.021-.254.061-.607.115-1.058.135-.712.21-1.639.227-2.777l2.211.068c-.133 1.154-.291 2.313-.48 3.476l3.887-.546 2.53 18.011-1.898.267-.248-1.764-4.403.619.273 1.95-1.987.278zm-.284-16.433l.718 5.106 4.402-.619-.717-5.106-4.403.619zm1.004 7.148l.744 5.292 4.403-.619-.744-5.292-4.403.619zm4.219 49.428l-.274-1.949 9.843-1.383c-.476-.88-.973-1.693-1.487-2.442l2.18-.78c.591.864 1.157 1.764 1.7 2.696l-.578.271 8.979-1.262.274 1.95-15.714 2.208.601 4.271 13.986-1.966.273 1.95-15.973 2.245-.874-6.22-2.936.411zm10.317-42.476l-3.626.51c-.154-.674-.403-1.396-.745-2.167.756-.044 1.883-.17 3.38-.38 1.629-.104 2.326-.99 2.093-2.661-.076-1.377-.399-4.299-.969-8.763-.126-1.308-.227-2.24-.305-2.797l-5.181.729c-.152.589-.413 1.447-.783 2.571l-.361 1.187c-.569-.298-1.198-.589-1.884-.871 1.008-2.855 1.689-5.729 2.047-8.619l2.051.185c-.062.387-.162.938-.296 1.651l-.282 1.744 6.389-.898c.558 3.962 1.094 8.62 1.612 13.975.373 2.657-.674 4.193-3.14 4.604zm-5.239 51.041c-.289 2.124-.7 4.202-1.236 6.233-.562-.238-1.196-.368-1.904-.395.527-2.093.939-4.17 1.237-6.233l1.903.395zm2.698-57.217c-.35-.392-.872-.981-1.568-1.768-.989-1.187-1.762-2.087-2.316-2.704l1.396-1.333c.489.563 1.216 1.344 2.18 2.344.82.832 1.442 1.501 1.867 2.01l-1.559 1.451zm.53 86.413c.442 3.156.253 5.771-.57 7.843-.597-.484-1.156-.912-1.677-1.279.436-1.071.658-2.207.666-3.407.023-1.076-.146-2.914-.511-5.514l-1.526-10.862 6.303-.886 2.583 18.382c.257 1.415-.3 2.25-1.673 2.507-.566.142-1.254.271-2.059.384-.104-.743-.282-1.38-.533-1.913.296.021.818-.021 1.567-.126.689-.097.987-.486.893-1.167l-.613-4.363-2.85.401zm1.986-22.166c-1.891.328-2.982-.56-3.278-2.663l-.757-5.385 1.984-.279.666 4.735c.107 1.185.763 1.659 1.962 1.429l3.453-.486c1.332-.125 1.962-.654 1.891-1.591-.019-.123-.012-.282.021-.476.002-.82.001-1.451-.001-1.893l.815.169c.544.113.938.216 1.188.307-.007 1.201-.049 2.153-.126 2.858-.137 1.534-1.159 2.402-3.067 2.608l-4.751.667zm-3.543 10.456l.574 4.085 2.764-.388-.574-4.085-2.764.388zm1.331 9.47l.065.464 2.763-.388-.573-4.085-2.764.388.509 3.621zm13.1-51.865l-.234-1.671-8.894 1.25-2.374-16.896-1.986.279 2.609 18.567 10.879-1.529zm-8.165 26.254c-.559-.615-1.424-1.566-2.604-2.853-.273-.276-.477-.468-.608-.577l1.312-1.32c.473.439 1.22 1.154 2.238 2.146.48.5.854.859 1.119 1.073l-1.457 1.531zm13.439 32.306c-.09.202-.154.368-.193.5-1.857-.686-3.403-1.447-4.635-2.283-.801.996-1.847 2.12-3.137 3.375l-1.158-1.352.248 1.764-1.812.255-2.948-20.981 10.103-1.42c.217 1.548.353 2.729.408 3.54.222 1.99-.651 3.09-2.616 3.303l-2.851.4-.58-1.623 2.504-.352c1.219-.107 1.758-.656 1.617-1.647.005-.379-.035-.878-.122-1.498l-6.389.898.887 6.313 8.548-1.202.273 1.95c-.393 2.644-1.021 4.846-1.889 6.608 1.185.908 2.625 1.557 4.323 1.949l-.581 1.503zm-8.203-103.32c-1.069-.922-2.093-1.725-3.068-2.409l1.1-1.574c1.033.676 2.081 1.444 3.143 2.304l-1.175 1.679zm.43 6.188c-.125-.045-.29-.18-.497-.404-1.233-.835-2.177-1.493-2.83-1.969l1-1.655c1.281.767 2.419 1.553 3.413 2.36l-1.086 1.668zm-1.403 97.002c1.277-.937 2.253-1.926 2.929-2.968-1.234-1.277-2.377-3.136-3.425-5.578l.886-.598-1.642.23 1.252 8.914zm3.825-30.377c-1.205-1.471-2.571-3.047-4.098-4.726l1.483-1.345c1.452 1.563 2.842 3.104 4.171 4.621l-1.556 1.45zm-.696-63.744c-.312 3.201-.56 6.043-.737 8.53l-1.904-.395c.361-3.27.579-6.108.651-8.518.246.093.79.206 1.633.339-.662-.097-.542-.081.357.044zm.8 89.498c.737-1.429 1.257-3.173 1.555-5.236l-4.403.619c.868 2.023 1.819 3.563 2.848 4.617zm-1.478-97.45l-.273-1.95 3.367-.473c-.401-.763-.883-1.895-1.444-3.395l1.858-.545c.109.363.332.9.667 1.61.353.835.624 1.522.818 2.063l-.087.012 2.159-.303.272 1.95-4.058.57.383 3.354 3.886-.546c.122.867.274 2.171.462 3.911.315 2.67.527 4.597.636 5.78.253 1.794-.428 2.806-2.038 3.032-.511.134-1.054.243-1.628.323l-.619-1.901 1.296-.182c.985-.077 1.386-.574 1.197-1.494-.052-.372-.105-.963-.16-1.776-.251-2.616-.454-4.48-.61-5.594l-2.245.315.065.464c.52 4.535.155 8.215-1.091 11.041l-1.662-1.187c1.158-2.182 1.497-5.417 1.013-9.704-.111-1.625-.313-3.49-.609-5.594l-1.555.219zm2.8 27.082l1.813-.255-.353-2.506-1.812.255.352 2.506zm2.257 16.061l1.813-.255-1.905-13.554-1.812.255 1.904 13.554zm1.506 30.475l-2.558-18.196 2.331-.328c.022-.254.061-.607.116-1.057.134-.713.21-1.639.226-2.777l2.211.068c-.133 1.155-.291 2.313-.479 3.476l3.886-.546 2.531 18.01-1.899.267-.248-1.764-4.402.619.272 1.95-1.987.278zm-.285-16.432l.718 5.106 4.402-.619-.718-5.106-4.402.619zm2.732-49.458l-.261-1.857 3.54-.498-.183-1.299 1.966-2.927-4.835.679-.195-1.392-.475 1.013c-.464-.375-1.02-.771-1.663-1.187 1.095-2.236 1.853-4.772 2.275-7.609h2.024c-.206 1.039-.416 2.046-.631 3.023l5.438-.765.262 1.857-6.218.874c-.24.792-.54 1.591-.896 2.398l6.733-.946.274 1.95-2.173 3.334.104.743 3.28-.461.262 1.857-3.28.461.64 4.549c.291 1.664-.396 2.612-2.065 2.847-.798.174-1.541.311-2.23.408-.026-.186-.119-.425-.277-.718-.137-.549-.251-.944-.343-1.183l1.986-.279c.872-.06 1.222-.488 1.052-1.284l-.574-4.085-3.537.497zm-1.728 56.606l.744 5.292 4.402-.619-.744-5.292-4.402.619zm2.932 35.296l-2.453-17.454 5.612-.789 2.361 16.804-1.641.23-.223-1.578-2.158.303.313 2.228-1.811.256zm9.325-72.352l1.657 11.79c.854 4.424-.83 6.838-5.058 7.243-2.071.292-3.718-.14-4.937-1.294l.634-1.13c1.272.705 2.604.991 3.994.859 2.828-.335 4.01-1.953 3.544-4.853l-.195-1.393c-.367 1.566-1.678 2.475-3.931 2.729-3.25.268-5.224-1.664-5.921-5.794-.445-4.418 1.046-6.963 4.474-7.635 1.678-.172 3.049.393 4.112 1.694l-.274-1.95 1.901-.266zm-9.704 56.5l1.605 11.419 2.157-.303-1.604-11.419-2.158.303zm5.736-44.015c2.409-.4 3.438-2.06 3.086-4.978l-.287-2.042c-.446-2.335-1.779-3.473-4.001-3.414-2.516.481-3.592 2.431-3.229 5.85.568 3.203 2.045 4.731 4.431 4.584zm6.247 31.522l-3.626.51c-.154-.673-.403-1.396-.745-2.167.756-.044 1.883-.17 3.38-.38 1.629-.103 2.326-.989 2.092-2.661-.076-1.377-.399-4.299-.968-8.763-.126-1.308-.228-2.24-.305-2.797l-5.182.728c-.151.59-.413 1.447-.783 2.572l-.36 1.187c-.57-.299-1.198-.589-1.884-.872 1.008-2.854 1.688-5.729 2.047-8.619l2.051.185c-.063.388-.162.938-.296 1.651l-.283 1.744 6.389-.898c.559 3.961 1.095 8.62 1.612 13.974.374 2.66-.673 4.196-3.139 4.606zm-.87 28.919c-2.017.283-3.133-.57-3.354-2.558l-2.438-17.361 11.224-1.577 1.553 11.047-9.323 1.311.835 5.942c.081.999.691 1.385 1.836 1.162l4.835-.68c1.218-.109 1.812-.665 1.79-1.672.033-1.014.021-2.147-.038-3.403.791.206 1.456.333 1.991.383.045 1.572.017 2.837-.083 3.798-.128 1.595-1.172 2.531-3.128 2.806l-5.7.802zm-1.671-35.094c-.351-.392-.872-.98-1.568-1.768-.99-1.186-1.762-2.086-2.317-2.704l1.397-1.333c.489.563 1.215 1.344 2.179 2.345.821.832 1.443 1.501 1.867 2.01l-1.558 1.45zm-1.962 16.765l1.018 7.241 2.85-.4-1.018-7.241-2.85.4zm1.368-85.352l-.261-1.857 2.504-.352c.131-1.154.242-2.242.333-3.266l1.926-.081c-.006.379-.062 1.019-.171 1.917-.103.52-.167.908-.188 1.163l4.403-.619.261 1.857-4.921.691c-.407 2.961-.733 5.026-.979 6.197l2.504-.352-.64-4.549 1.641-.231.641 4.549 2.331-.328.261 1.857-2.331.327.417 2.971 2.538-.736c.047.751.108 1.405.188 1.962l-2.465.63.64 4.549-1.899.267-.613-4.363c-1.526.404-2.94.792-4.237 1.164l-.46-2.019c.401-.056 1.056-.21 1.96-.465 1.084-.214 1.909-.394 2.478-.537l-.443-3.157-3.972.558-.261-1.856.142-.872c.251-1.55.473-3.316.664-5.3l-1.991.281zm6.058 84.308l-2.851.4 1.019 7.241 2.85-.4-1.018-7.241zm4.923-55.348c2.927-.473 4.608 1.057 5.048 4.592l1.213 8.634-1.898.267-1.175-8.355c-.355-2.537-1.484-3.673-3.385-3.406-2.201.626-3.227 2.095-3.078 4.409l1.176 8.355-1.899.267-2.609-18.567 1.899-.267.991 7.056c.759-1.684 1.999-2.68 3.717-2.985zm10.325-29.588c-.18.404-.429 1.134-.749 2.188-2.613-1.462-4.728-3.343-6.34-5.641-1.052 2.547-2.646 4.979-4.785 7.299-.15-.23-.476-.658-.974-1.283-.197-.162-.336-.299-.409-.416 2.582-2.508 4.265-5.364 5.047-8.567l2.11-.013-.301.989c1.766 2.53 3.898 4.345 6.401 5.444zm-12.564 57.182l-.233-1.671 5.524-.776c-.216-.285-.627-.701-1.23-1.247-.54-.492-.912-.85-1.119-1.073l1.907-.836c.073.117.239.25.496.403 1.012.932 1.69 1.594 2.04 1.986l-1.229.646 4.922-.691c.893-1.577 1.493-2.733 1.801-3.472l2.164.359c-.139.272-.395.75-.768 1.433-.383.622-.643 1.069-.78 1.34l5.354-.752.233 1.671-8.548 1.201.287 2.042 7.512-1.056.248 1.764-7.512 1.056.287 2.042 9.064-1.274.235 1.671-20.203 2.839-.235-1.671 9.065-1.274-.287-2.042-7.339 1.031-.247-1.764 7.339-1.031-.287-2.042-8.461 1.188zm1.372 11.642l-.248-1.764 8.634-1.213c.031-.194.026-.444-.018-.755.013-.317.008-.569-.019-.755l2.071-.291c.07.496.082.999.036 1.509l8.895-1.25.246 1.764-8.373 1.177c1.281 2.03 4.42 2.849 9.413 2.464-.129.333-.271.795-.421 1.384-.13.333-.211.598-.24.792-5.057-.047-8.373-1.096-9.951-3.146-.731 2.312-3.672 4.365-8.818 6.163-.085-.178-.276-.498-.575-.961l-.675-1.041c5.102-1.285 7.852-3.028 8.245-5.229l-8.202 1.152zm5.505-53.54c-2.016.283-3.17-.628-3.466-2.732l-1.331-9.469 1.899-.267.573 4.085c1.693-1.311 3.271-2.826 4.731-4.546l1.444 1.501c-1.896 1.971-3.851 3.729-5.862 5.273l.378 2.692c.099 1.122.748 1.566 1.949 1.335l1.984-.279c1.15-.162 1.71-.776 1.679-1.845.033-1.014 0-2.083-.1-3.205.727.151 1.39.278 1.991.383.045 1.572.012 2.808-.096 3.706.004 1.704-.974 2.693-2.929 2.968l-2.844.4zm1.898 77.984l-.432-3.064-2.85.4.431 3.064 2.851-.4zm7.328-52.564c.345-.049.655-.124.937-.227l.488.973c-.541.328-1.156.541-1.847.638-1.776.312-2.779-.556-3.009-2.606l-1.277-9.098-1.729.243-.233-1.671 1.727-.243-.509-3.621 1.67-1.276.652 4.642 2.331-.328.233 1.671-2.331.328 1.279 9.098c.109 1.185.648 1.677 1.618 1.477zm.011 51.532l-.431-3.063-2.851.4.432 3.064 2.85-.401zm-.838-87.882l-.248-1.764 1.382-.194-1.109-7.892 2.331-.327c.015-.317.044-.731.09-1.244-.021-.565-.021-.975.004-1.231l1.912-.174-.103 1.15c-.095.582-.154 1.001-.176 1.255l3.367-.473 2.399 17.083c.274 1.538-.332 2.444-1.818 2.717l-2.158.303c-.026-.186-.123-.456-.29-.811-.128-.488-.238-.851-.329-1.09l.518-.073c.526-.012.935-.037 1.223-.077.862-.121 1.218-.519 1.064-1.191l-.979-6.963-3.887.546c.75 4.502.683 7.982-.204 10.443-.314-.145-.827-.452-1.538-.92-.124-.046-.221-.096-.285-.149.758-2.125.829-5.165.216-9.119l-1.382.195zm2.086-8.34l.861 6.127 3.885-.546-.861-6.127-3.885.546zm2.332 4.689c-.066-.053-.144-.169-.226-.347-.285-.779-.762-1.659-1.428-2.64l1.29-.844c.29.401.641 1.015 1.051 1.84.309.525.537.904.688 1.134l-1.375.857zm1.334 8.239c-.16-.293-.363-.707-.614-1.239-.477-.88-.865-1.55-1.164-2.014l1.377-.856.714 1.32c.468.819.821 1.463 1.063 1.933l-1.376.856zm2.511 82.251l-.431-3.063-2.85.4.432 3.063 2.849-.4zm4.117-60.258c.647 4.202-.104 8.251-2.254 12.151l1.554-.218c2.169-3.775 3.006-7.838 2.514-12.188-.648-4.2-2.588-7.967-5.813-11.301l-1.642.231c3.168 3.342 5.049 7.117 5.641 11.325zm4.803 37.403c-.894-.504-1.903-1.215-3.028-2.13-.574 1.344-1.724 2.988-3.444 4.934-.597-.484-1.106-.98-1.53-1.489 1.504-1.409 2.607-2.954 3.312-4.631-.854-.637-2.023-1.451-3.514-2.441.224-2.176.365-4.501.43-6.971l-1.899.267-.272-1.949 2.157-.304c.052-.89.032-2.276-.056-4.158.03-.193.038-.352.021-.476l2.1-.105c.003.442-.018 1.138-.06 2.091.032 1.069.026 1.859-.02 2.37l3.799-.534.287 2.042c.229 4.134.021 7.256-.62 9.365 1.231.837 2.433 1.646 3.599 2.429l-1.262 1.69zm-4.909-73.756c.573 2.823-.007 5.177-1.735 7.061-.199-.162-.493-.372-.882-.634-.397-.323-.691-.533-.883-.633 1.555-1.48 2.078-3.384 1.575-5.712l-.379-2.692 7.166-1.007.729 5.199c.082.999.579 1.402 1.491 1.21l1.122-.158c.026.186.013.504-.042.953.003.442-.007.791-.028 1.045l-1.728.243c-1.604.289-2.507-.5-2.709-2.364l-.562-3.992-3.281.461.146 1.02zm-.232 18.398l-1.448-10.305 8.979-1.262 1.447 10.305-1.898.267-.248-1.764-5.182.728.248 1.764-1.898.267zm1.151 50.143c.519-2.155.666-4.858.444-8.109l-2.244.315c-.073 2.41-.213 4.543-.421 6.402l2.221 1.392zm-.439-58.858l.718 5.106 5.182-.728-.719-5.106-5.181.728zm3.948 85.742l-.432-3.063-2.85.4.431 3.063 2.851-.4zm.235-29.682l-.287-2.042 5.268-.74-.43-3.064 3.104-4.223-8.115 1.141-.287-2.042 10.619-1.492.313 2.228-3.458 4.841.326 2.321 4.749-.667.287 2.042-4.75.667.939 6.684c.335 1.972-.476 3.097-2.432 3.372l-2.764.388c-.009-.063-.056-.182-.139-.359-.229-.789-.431-1.392-.605-1.808.871-.061 1.711-.146 2.518-.259 1.044-.084 1.468-.616 1.271-1.599l-.86-6.127-5.267.738zm7.104 28.65l-.432-3.063-2.85.4.431 3.063 2.851-.4zm19.98-81.35c-5.286-1.276-9.031-4.127-11.237-8.551l-3.887.546 1.098 7.798c1.824-1.203 3.442-2.219 4.854-3.049l.326 2.321c-1.378.634-2.895 1.543-4.548 2.722-.656.344-1.246.743-1.77 1.195l-1.47-1.687c.448-.569.591-1.219.43-1.954l-.993-7.054-3.453.485-.287-2.042 3.453-.485-1.291-9.191 2.072-.291 1.291 9.191 14.851-2.087.287 2.042-8.894 1.25c2.035 3.628 5.432 5.864 10.188 6.71l-1.02 2.131zm-8.061 16.4c.476 6.309-1.69 11.567-6.499 15.777-.075-.117-.212-.254-.41-.416-.614-.609-1.087-1.047-1.418-1.316 4.507-3.852 6.562-8.432 6.169-13.742l-7.512 1.056-.287-2.042 7.771-1.092c-.137-1.811-.319-3.742-.55-5.792l2.159-.303c.13.928.268 2.329.414 4.202.038.69.083 1.219.136 1.59l9.065-1.274c.09 1.062.256 2.868.498 5.421.301 2.987.502 5.042.602 6.164.368 3.04-.805 4.719-3.518 5.039-1.26.239-2.637.465-4.133.675-.188-.92-.465-1.639-.83-2.155l3.972-.558c1.857-.136 2.646-1.224 2.357-3.266-.067-1.316-.322-3.962-.764-7.94l-.144-1.021-7.078.993zm-5.644-1.952c-1.027-1.054-2.169-2.062-3.418-3.022l1.284-1.506c.391.262.981.714 1.776 1.36.786.585 1.378 1.037 1.775 1.36l-1.417 1.808zm1.15 65.859l-.431-3.064-2.85.401.432 3.063 2.849-.4zm9.255-98.777c-2.848 2.293-6.087 4.517-9.717 6.667-.3-.462-.732-1.033-1.297-1.711 3.482-1.94 6.669-4.124 9.557-6.55l1.457 1.594zm-6.955 78.935l-2.936-20.889 18.734-2.633 2.937 20.889-1.985.279-.209-1.485-14.764 2.075.208 1.485-1.985.279zm-.676-19.218l2.205 15.689 14.764-2.075-2.205-15.689-14.764 2.075zm2.637 29.374c-.336.111-.562.174-.678.19-.034-.247-.141-.58-.315-.997-.128-.486-.232-.819-.315-.997 2.793-.582 5.624-1.326 8.49-2.234l.719 1.982c-.289.041-.712.164-1.27.368-.854.184-1.479.335-1.874.453l.483 3.435 5.094-.716c-.512-2.39-.916-4.636-1.212-6.741l2.072-.291c.2 1.424.574 3.675 1.125 6.753l7.426-1.043.286 2.042-7.338 1.032.368 1.368c.39 1.523.759 2.892 1.104 4.105 1.19-1.555 2.215-3.246 3.074-5.071l1.822 1.069c-1.145 2.307-2.47 4.356-3.979 6.145.142.169.295.432.463.787.226.347.379.609.463.787.731 1.033 1.468 1.465 2.207 1.299.461-.064.759-.453.894-1.167.028-.634.053-1.712.075-3.229.865.321 1.51.514 1.931.581.035 1.51-.054 2.753-.269 3.73-.222 1.356-.993 2.127-2.316 2.313-1.546.28-2.942-.471-4.189-2.251-.075-.115-.191-.319-.352-.614l-.337-.521c-1.242 1.185-2.661 2.362-4.258 3.533-.707-.847-1.188-1.348-1.443-1.501 1.604-1.109 3.175-2.465 4.71-4.07-.57-1.56-1.091-3.38-1.56-5.461l-.396-1.554-5.18.728.509 3.621c.509-.133 1.27-.368 2.278-.699l1.516-.497.091.65c.021.565.087 1.029.195 1.393l-1.515.497c-1.01.331-1.771.565-2.279.699l.666 4.735c.291 1.663-.334 2.634-1.88 2.915-.509.134-1.454.299-2.836.493-.093-.24-.198-.573-.316-.997l-.415-1.078c.297.021 1.021-.048 2.172-.21.929-.068 1.305-.529 1.125-1.389l-.521-3.714-3.953 1.313-.658-2.179c.278-.102.761-.232 1.441-.392 1.239-.363 2.197-.655 2.87-.877l-.562-3.992-4.316.606-.287-2.042 4.316-.606-.443-3.157c-.672.22-1.581.442-2.723.665zm2.008-17.625l-1.238-8.819 8.893-1.25 1.239 8.82-8.894 1.249zm2.814-29.004c-1.227-1.215-2.5-2.331-3.815-3.345l1.285-1.506c.968.622 2.283 1.636 3.949 3.042l-1.419 1.809zm-1.894 21.774l.718 5.106 5.18-.728-.717-5.106-5.181.728zm28.155-62.694c-.454.948-.762 1.685-.922 2.212-4.507-1.575-7.876-3.626-10.108-6.153-1.952 3.242-4.757 6.254-8.414 9.041l-1.483-1.78c4.119-2.851 7.066-6.105 8.842-9.763l2.456-.061-.5.828c2.479 2.618 5.855 4.51 10.129 5.676zm-19.312 9.814l-.287-2.042 19.6-2.754.287 2.042-10.447 1.468c-1.293 2.075-2.457 3.817-3.491 5.225 1.199-.231 3.406-.604 6.622-1.12 1.026-.207 1.8-.348 2.317-.42-.688-.723-1.488-1.4-2.397-2.03l1.298-1.413c.652.476 1.673 1.249 3.056 2.316 1.249.96 2.201 1.679 2.855 2.155l-1.444 1.623-1.504-1.303c-4.925.881-8.409 1.561-10.455 2.037-.173.024-.428.091-.764.202-.691.097-1.23.235-1.615.417l-1.322-1.897c.655-.344 1.203-.832 1.644-1.462.994-1.275 1.864-2.596 2.612-3.964l-6.565.92zm5.007 77.46c-1.146-1.037-2.493-2.078-4.049-3.123l1.198-1.494c.909.629 2.274 1.574 4.097 2.833l-1.246 1.784zm-3.594-59.363l-.262-1.857 4.146-.583c-.242-.47-.573-1.15-.991-2.038l1.947-.558c.082.178.242.472.476.88.27.658.48 1.132.642 1.425l3.539-.498.262 1.857-9.759 1.372zm.153 5.469l-.248-1.764 3.108-.437c-.358-.454-.855-1.078-1.495-1.873-.273-.276-.449-.472-.522-.589l1.351-1.042c.141.169.385.452.734.843.623.67 1.11 1.233 1.47 1.687l-1.276.937 2.677-.376c.524-1.272.969-2.503 1.329-3.689l1.818.407c-.21.597-.562 1.437-1.055 2.515-.081.264-.146.432-.194.5l2.937-.413.247 1.764-10.881 1.53zm1.118 4.198l-.261-1.856 4.145-.583-.325-2.321 1.898-.267.326 2.321 3.885-.546.263 1.857-3.887.546.757 5.384c.293 1.663-.362 2.639-1.966 2.927l-1.984.279c-.128-.488-.364-1.118-.706-1.889l1.641-.23c.863-.121 1.218-.519 1.065-1.191l-.705-5.013-4.146.582zm3.157 1.166c-.358 1.628-.84 3.211-1.445 4.747l-1.546-.351c.518-1.334.969-2.913 1.359-4.735l1.632.339zm-2.388-34.433l-.274-1.95 11.312-1.59.273 1.95-11.311 1.59zm5.098 56.319l-.126 2.858c-.535-.051-1.066-.071-1.594-.06.208-1.859.267-3.95.175-6.273l1.594.06c-.021.698-.036 1.836-.049 3.415zm5.268-.74c-.632-.731-1.5-1.683-2.603-2.853l2.322 16.525-1.985.279-3.093-22.003 1.985-.279.743 5.292 1.152-1.203c.993.807 1.942 1.715 2.848 2.724l-1.369 1.518zm-1.784-18.419l-1.197-1.631c-.574-.739-1.003-1.279-1.284-1.618l1.363-.949c.864 1.142 1.683 2.163 2.456 3.063l-1.338 1.135zm1.109 48.73c-.46 1.328-.956 2.596-1.489 3.807l-.937-2.898c1.447-3.484 2.351-7.083 2.709-10.794l2.15.266-.143.872c-.237 1.233-.541 2.632-.905 4.198l2.335 16.618-1.985.279-1.735-12.348zm6.661-46.698l-1.644-11.698-2.764.388.064.464c.803 4.874.465 8.739-1.011 11.597-.067-.054-.226-.126-.473-.218-.256-.153-.73-.403-1.425-.747 1.422-2.408 1.754-5.894.995-10.459l-1.253-8.912c2.852-.59 5.485-1.275 7.899-2.057l.878 1.864c-1.8.569-4.01 1.132-6.63 1.689l.679 4.827 7.166-1.007.273 1.949-2.504.352 1.645 11.698-1.895.27zm-.154 28.442c-2.656.31-4.162-.583-4.515-2.679-.258-1.415.104-3.012 1.088-4.792 1.801-3.472 3.876-7.077 6.229-10.816l-8.461 1.189-.287-2.042 11.051-1.553.312 2.229c-2.929 4.641-5.272 8.631-7.033 11.97-.634 1.353-.896 2.398-.791 3.141.155 1.114 1.067 1.554 2.737 1.319l3.887-.546c1.792-.188 2.608-1.061 2.448-2.617.028-.634-.014-1.764-.124-3.391l-.025-.186c.553.175 1.239.268 2.063.278.11 1.626.158 3.007.144 4.146-.116 2.099-1.297 3.307-3.541 3.622l-5.182.728zm.399 12.268c-1.055-1.24-2.06-2.329-3.013-3.269l1.482-1.344c1.344 1.2 2.396 2.219 3.159 3.059l-1.628 1.554zm-.202 17.353l-2.297-16.339 2.072-.291 2.297 16.339-2.072.291zm2.638-105.137l-.273-1.95 6.044-.849c.312-1.117.521-2.124.632-3.024l2.344-.235-.645 2.931 9.929-1.396.274 1.95-10.62 1.492c-.072.327-.208.819-.408 1.478-.144.652-.279 1.145-.409 1.478l13.124-1.844.262 1.856-13.9 1.954c-.129.335-.271.795-.422 1.385-.201.66-.365 1.156-.495 1.49l12.951-1.82.3 2.135-4.86 5.512 3.638.814-.923 2.212-1.372-.375c-5.148-1.549-8.94-2.625-11.372-3.23l.774-2.002c.371.137.98.305 1.831.5.857.258 2.569.744 5.135 1.456l4.36-4.684-12.519 1.76-.274-1.95.361-1.187c.259-.667.442-1.229.556-1.688l-4.576.643-.261-1.856 5.354-.752c.13-.333.266-.826.408-1.478.2-.658.336-1.151.408-1.478l-5.356.752zm3.405 104.288c-.275-.719-.53-1.473-.758-2.26.929-.068 1.913-.174 2.949-.32 1.341-.063 1.861-.735 1.563-2.019l-1.97-14.019-4.921.691-.301-2.135 7.08-.995 2.336 16.618c.387 2.343-.454 3.661-2.526 3.953l-3.452.486zm20.958-63.286c-.56 1.025-.93 1.74-1.106 2.144-5.467-2.134-8.997-5.961-10.595-11.481-.031 5.623-2.416 10.375-7.151 14.259-.144-.169-.383-.419-.723-.75-.481-.5-.798-.867-.946-1.098 5.082-3.933 7.413-9.057 6.995-15.374-.085-1.439-.287-3.304-.609-5.594l2.245-.315.37 3.261c1.723 8.089 5.612 13.002 11.668 14.738l-.148.21zm-9.681 32.147c-1.869.074-3.058-.864-3.564-2.813-.123-2.127.752-3.419 2.625-3.872 1.982-.089 3.209.907 3.678 2.986.105 2.005-.809 3.238-2.739 3.699zm7.226 23.806l-1.277-9.098-4.493 1.862 1.096 7.798c.169 1.619 1.026 2.285 2.571 2.006l9.064-1.274c1.496-.21 2.225-.88 2.184-2.011.034-1.014.028-2.087-.013-3.217.363.076.873.162 1.533.258.296.022.506.056.631.101.011 1.324-.022 2.559-.096 3.706.004 1.704-1.178 2.689-3.546 2.96l-10.188 1.432c-2.408.401-3.754-.608-4.034-3.03l-1.109-7.891-2.499 1.014-.546-2.006 2.745-1.143-.731-5.199 1.986-.279.665 4.735 4.493-1.862-.861-6.127 2.072-.291.782 5.57 7.164-2.9c.115 1.247.277 3.023.484 5.328.099 1.122.184 1.931.253 2.426.29 2.484-.576 3.837-2.6 4.058-.509.135-1.312.279-2.404.433-.119-.424-.316-.997-.593-1.715-.085-.178-.13-.297-.14-.359l2.244-.315c1.228-.045 1.714-.745 1.466-2.1-.021-.565-.098-1.532-.23-2.902-.074-.937-.14-1.621-.201-2.055l-5.157 2.145 1.357 9.655-2.072.287zm-7.969-29.098c-1.077.278-1.586 1.044-1.526 2.297.264 1.037.949 1.538 2.062 1.509 1.134-.286 1.684-.961 1.651-2.031-.29-1.221-1.019-1.812-2.187-1.775z"/></svg>