<svg xmlns="http://www.w3.org/2000/svg" width="640" height="462" viewBox="0 0 640 462"><path fill="#E74B92" stroke="#FFA8CF" stroke-miterlimit="10" d="M-2.775 109l644-93v149l-644 91z"/><path fill="#FE149D" d="M118.442 238.191l-121.217 17.391v-146.082l265.834-38.333z"/><path fill="#FC0397" d="M512.319 182.625l88.95-160.313 40.503-5.895 1.002 147.914zM-2.775 109.5v146.082l173.214-24.581-118.054-129.418z"/><path fill="#FE149D" d="M557.225 28.833l84.547-12.416 1.002 114.416"/><path fill="#fff" d="M47.31 135.357c-1.015 1.974-2.101 3.641-3.259 5.002-.423-.509-.855-1.078-1.297-1.711 1.753-2.14 3.016-4.431 3.788-6.875l2.284-.037c-.032.194-.142.462-.328.803-.12.396-.226.694-.314.896l14.246-2.002.248 1.764-15.368 2.16zm-3.664 10.267l-.248-1.764 2.936-.412.067-5.785 14.418-2.026.623 5.688 2.85-.4.248 1.764-2.936.413c.061.434.123 1.088.188 1.962.122.867.184 1.521.188 1.961l2.331-.328.248 1.764-2.504.352c.255 2.236-.769 3.517-3.07 3.84l-3.54.498c-.437-1.013-.671-1.643-.706-1.889.354.013 1.481-.113 3.38-.38 1.332-.125 1.981-.721 1.95-1.789l-13.814 1.941.067-5.785-2.676.375zm7.261 29.761c.409 2.91.185 5.496-.67 7.763-.19-.101-.484-.311-.881-.633-.341-.331-.605-.547-.795-.646.801-1.816.885-4.763.254-8.84l-1.54-10.955 6.13-.861 2.583 18.382c.209 1.485-.316 2.348-1.573 2.588-.567.142-1.253.271-2.059.384l-.026-.186c-.136-.549-.338-1.152-.606-1.808.469-.004.991-.045 1.567-.126.699-.036.971-.389.819-1.062l-.613-4.363-2.59.363zm9.001-28.071l-.375-3.924-11.138 1.565-.056 3.984 6.821-.959c-.587-.422-1.494-1.021-2.718-1.795-.19-.099-.347-.171-.471-.218l1.013-1.563c1.149.66 2.236 1.295 3.262 1.909l-1 1.655 4.662-.654zm-11.446-8.142l-.057 3.984 10.965-1.541c-.068-1.316-.193-2.624-.375-3.923l-10.533 1.48zm.887 24.504l.574 4.085 2.504-.352-.574-4.085-2.504.352zm.822 5.848l.574 4.085 2.504-.352-.574-4.085-2.504.352zm1.057 24.394l-.248-1.764 4.058-.57-.366-2.599 1.727-.243.365 2.599 3.281-.461.248 1.764-3.281.461.287 2.042.56-1.025c.437.191 1.061.451 1.87.778.562.238.999.428 1.313.573l-.741 1.619c-.941-.436-1.913-.867-2.911-1.295l.43 3.063-1.727.243-.509-3.621c-.771 1.623-1.907 3.141-3.411 4.55-.525-.81-.925-1.353-1.198-1.63 1.916-1.405 3.266-3.077 4.049-5.019l-3.796.535zm3.554-51.753c-1.034-.674-2.121-1.312-3.262-1.908l.927-1.55 1.711.896c.702.407 1.244.709 1.624.908l-1 1.654zm14.819 58.449c-2.119 4.969-7.026 8.687-14.72 11.157-.093-.24-.354-.645-.787-1.215-.216-.286-.367-.516-.45-.694 6.998-1.992 11.506-4.993 13.526-9.001l-8.72 1.226c-1.026 1.47-2.345 2.949-3.955 4.437-.548-.553-1.054-1.019-1.517-1.396 2.567-2.19 4.423-4.439 5.567-6.747l1.952.104c-.267.605-.543 1.15-.827 1.631l9.67-1.359.261 1.857zm-11.907-33.946c-.18 1.225-.352 2.511-.514 3.859-.611-.166-1.246-.298-1.905-.395.645-2.931.906-5.87.786-8.82l1.852.023c-.016 1.139-.041 2.216-.074 3.229l2.59-.364-.692-4.92 1.986-.279.692 4.92 4.662-.655.287 2.042-4.663.655.692 4.92 4.058-.57.274 1.949-4.058.57.757 5.385 5.007-.704.261 1.856-12.433 1.748-.261-1.857 5.439-.764-.757-5.385-4.317.607-.274-1.95 4.317-.607-.691-4.92-3.021.427zm3.666 39.838c-.703-.406-1.662-.965-2.877-1.679-.637-.351-1.116-.631-1.438-.839l1.211-1.401c.942.436 2.305 1.16 4.091 2.17-.125-.044.004.032.384.23l-1.371 1.519zm.056-14.02l-.248-1.764 3.108-.437-.366-2.599 1.813-.255.365 2.599 4.317-.606.248 1.764-4.058.57c1.336 1.58 3.107 2.688 5.31 3.325-.081.265-.234.634-.461 1.106-.072.327-.152.589-.241.791-2.056-.847-3.587-1.925-4.593-3.236l.535 3.806-1.813.255-.535-3.805c-.606 1.538-1.661 3.011-3.165 4.421l-.847-1.017c-.208-.222-.35-.392-.424-.509 1.761-1.256 3.061-2.859 3.903-4.809l-2.848.4zm4.367-59.728l-.287-2.042 18.045-2.536.287 2.042-7.943 1.116c.183 1.3.373 3.072.571 5.316l9.325-1.31.3 2.135-8.893 1.25c1.604 4.319 5.036 6.804 10.292 7.453-.041.131-.129.333-.267.605l-.629 1.792c-5.376-1.076-8.872-3.612-10.491-7.614-.324 3.959-2.859 7.438-7.601 10.44-.142-.169-.419-.478-.834-.924-.35-.393-.626-.702-.834-.924 5.057-2.855 7.563-6.332 7.515-10.429l-8.72 1.226-.3-2.135 8.979-1.262c-.021-.565-.118-1.466-.292-2.705-.1-1.122-.192-1.992-.279-2.611l-7.944 1.117zm7.08 42.191c-.417.375-.748.737-.992 1.086l-1.41-1.884c.391-.56.53-1.242.417-2.047l-1.578-11.234 1.9-.267 1.657 11.791 2.209-1.825-1.853-13.183 1.986-.279 3.092 22.002-1.986.279-.913-6.499c-.483.321-1.171.86-2.063 1.615-.204.219-.359.368-.466.445zm1.029 15.497l-.3-2.135 18.044-2.536.3 2.135-7.857 1.104 2.036 14.483 9.065-1.274.287 2.042-20.376 2.864-.287-2.042 8.979-1.262-2.036-14.483-7.855 1.104zm5.395-24.921c-.339.933-.715 1.805-1.128 2.62-.076-.115-.25-.311-.523-.589-.473-.438-.812-.769-1.02-.993 1.614-3.129 2.692-6.532 3.232-10.205h2.025c-.221 1.356-.502 2.69-.847 4l8.116-1.141.287 2.042-2.072.291c.165 4.521-.421 8.075-1.759 10.661 1.599 1.354 3.61 2.302 6.034 2.844-.414.815-.75 1.556-1.008 2.224-2.477-.915-4.505-1.985-6.087-3.215-.823 1.252-2.354 2.887-4.593 4.906-.499-.625-1.018-1.182-1.556-1.675 2.021-1.482 3.561-3.057 4.619-4.72-1.395-1.569-2.635-3.92-3.72-7.05zm1.103-2.805c.906 3.534 2.128 6.171 3.665 7.911 1.054-2.104 1.521-5.042 1.403-8.812l-5.094.716.026.185zm7.24-31.803l-.248-1.764 3.367-.473-.405-2.878 1.813-.255.404 2.878 2.849-.4.248 1.764-2.849.4.352 2.506 1.209-.17c1.115-1.671 2.03-3.504 2.749-5.499l1.685.71c-.704 1.677-1.434 3.169-2.189 4.473l2.417-.34.248 1.764-3.972.558c-.578.902-1.246 1.785-2.005 2.648l5.094-.716 1.5 10.676-1.813.255-.183-1.3-5.094.716.183 1.299-1.813.255-1.122-7.984-1.484 1.345-.376-.799c-.242-.47-.434-.791-.575-.96 2.013-1.545 3.771-3.243 5.271-5.096l-5.526.776-.248-1.764 4.23-.595-.353-2.506-3.364.476zm6.259 45.814l-2.557-18.196 2.331-.328c.022-.254.061-.607.115-1.058.134-.712.21-1.639.226-2.777l2.211.068c-.132 1.155-.292 2.313-.48 3.476l3.885-.546 2.531 18.01-1.899.267-.248-1.764-4.403.619.274 1.95-1.986.279zm-2.161-37.964l.326 2.321 5.094-.716-.326-2.321-5.094.716zm.547 3.899l.326 2.321 5.094-.716-.326-2.321-5.094.716zm1.329 17.633l.718 5.106 4.403-.619-.718-5.106-4.403.619zm1.005 7.148l.744 5.292 4.403-.619-.744-5.292-4.403.619zm6.349 31.974c-.218 1.798-.829 3.714-1.833 5.749-.199-.162-.687-.504-1.465-1.025-.323-.208-.55-.365-.683-.472 1-1.655 1.568-3.25 1.705-4.784.146-1.472.005-3.724-.421-6.757l-1.083-7.705 17.786-2.5.326 2.321-15.541 2.184.757 5.384c.46 3.282.61 5.817.452 7.605zm1.14-52.645l-2.949-20.981 7.425-1.043.287 2.042-1.245 6.802c2.018 1.42 3.147 3.188 3.386 5.299.414 2.531-.406 4.002-2.461 4.417l-1.985.279c-.093-.238-.203-.602-.33-1.089-.186-.479-.32-.807-.402-.985l1.813-.255c1.218-.107 1.697-.869 1.44-2.285-.209-1.485-1.35-3.124-3.42-4.916l1.206-7.081-3.54.498 2.675 19.032-1.9.266zm7.047 27.622l-3.626.51c-.154-.674-.402-1.396-.745-2.167.756-.044 1.883-.17 3.38-.38 1.628-.103 2.326-.99 2.091-2.661-.077-1.377-.399-4.299-.968-8.763-.126-1.308-.227-2.24-.305-2.797l-5.181.728c-.152.589-.413 1.447-.783 2.572l-.361 1.187c-.57-.298-1.198-.589-1.883-.871 1.007-2.854 1.689-5.729 2.046-8.619l2.051.185c-.063.388-.162.938-.296 1.651l-.283 1.744 6.389-.898c.557 3.961 1.093 8.62 1.612 13.974.374 2.659-.673 4.195-3.138 4.605zm-2.541-6.175c-.35-.392-.873-.98-1.569-1.768-.989-1.186-1.761-2.086-2.317-2.704l1.397-1.333c.489.563 1.215 1.344 2.179 2.345.821.831 1.443 1.501 1.867 2.01l-1.557 1.45zm3.636-31.77l-.248-1.764 20.462-2.876.248 1.764-8.979 1.262.313 2.228 7.425-1.043.248 1.764-7.425 1.043.326 2.321 9.152-1.286c-.077.705-.159 1.378-.244 2.022-3.972.558-6.883.935-8.733 1.133-3.454.485-5.933-.24-7.437-2.174-.385 1.441-1.37 3-2.953 4.675l-1.431-1.409c2.142-1.878 3.115-4.35 2.92-7.416l1.938.012c-.023.256-.029.636-.016 1.138-.055.45-.068.767-.042.953 1.19 1.79 2.81 2.667 4.86 2.631l-.887-6.313-9.497 1.335zm2.18-3.904l-1.227-8.727 15.023-2.111 1.226 8.727-15.022 2.111zm3.705 26.381c-1.15-1.921-2.251-3.691-3.3-5.312l1.708-.998 2.322 3.366 1.124 1.735-1.854 1.209zm-2.697-33.623l.261 1.857 10.965-1.541-.261-1.857-10.965 1.541zm.469 3.342l.274 1.95 10.965-1.541-.274-1.95-10.965 1.541zm3.793 41.421c-.132 1.155-.244 2.022-.338 2.604l-2.203-.637c.572-2.604 1.05-5.89 1.432-9.858.305.084.849.197 1.632.339.247.092.4.133.458.125-.194 1.542-.522 4.018-.981 7.427zm2.284 29.996l-2.57-18.289 6.994-.983 2.335 16.618-5.094.716.235 1.671-1.9.267zm3.973-41.857c.076 4.723-1.18 8.939-3.77 12.647-.257-.153-.634-.541-1.132-1.167-.199-.161-.336-.299-.411-.416 2.322-3.103 3.452-6.764 3.387-10.984l-3.108.437-.287-2.042 5.007-.704.314 2.229zm-4.37 25.251l.757 5.385 3.281-.461-.757-5.384-3.281.46zm1.787 12.719l3.281-.461-.77-5.478-3.281.461.77 5.478zm13.628-28.919c-.228.474-.409.847-.547 1.118-3.198-2.706-5.563-5.75-7.094-9.133l1.317 9.376c.402 2.026-.376 3.177-2.332 3.452-.51.134-1.398.291-2.664.469-.07-.496-.29-1.222-.659-2.179l1.123-.158c.527-.012.933-.037 1.222-.077 1.045-.085 1.464-.646 1.259-1.692l-2.557-18.196 1.985-.279.548 3.899c.571 1.562 1.208 2.955 1.908 4.182 1.091-1.415 2.204-2.897 3.337-4.445l1.603 1.384-.22.315c-1.599 1.992-2.854 3.494-3.769 4.506 1.648 2.546 3.682 4.689 6.099 6.433-.089.201-.275.544-.559 1.025zm-4.598 26.135c.038 2.772-.819 5.448-2.569 8.029-.266-.215-.717-.5-1.353-.851-.323-.208-.55-.365-.683-.472 1.288-1.696 2.057-3.318 2.31-4.869.26-1.488.173-3.779-.262-6.875l-1.188-8.448 9.411-1.322 2.505 17.825c.393 1.964-.413 3.119-2.418 3.464-.403.057-.946.164-1.627.324l-1.381.194-.455-1.356c-.11-.363-.212-.666-.303-.904.583-.02 1.481-.113 2.69-.283 1.101-.093 1.554-.628 1.358-1.611l-.509-3.621-5.526.776zm-1.398-11.827l.561 3.992 5.267-.74-.561-3.992-5.267.74zm.94 6.684c.174 1.239.296 2.325.37 3.262l5.353-.752-.561-3.992-5.267.74.105.742zm2.753-59.312l-1.096-7.798 9.756-1.371 1.096 7.798-9.756 1.371zm5.686 12.266c-.093-.24-.208-.634-.342-1.183-.177-.417-.277-.719-.303-.904.287-.041.695-.066 1.222-.077l1.123-.158c1.283-.054 1.83-.761 1.638-2.124-.061-.432-.132-1.148-.214-2.147-.139-.989-.21-1.706-.213-2.147l-3.626.51c.38 3.544-.625 6.62-3.017 9.229-.73-.593-1.288-1.019-1.676-1.279 2.139-2.32 3.069-4.881 2.794-7.682l-3.194.449-.261-1.856 3.281-.461-.201-2.055 1.899-.267.201 2.054 5.525-.776c.046.751.176 2.091.389 4.016.116 1.247.213 2.147.292 2.705.37 2.22-.514 3.448-2.652 3.686l-2.665.467zm-4.608-18.381l.561 3.992 5.871-.825-.561-3.992-5.871.825zm3.583 46.759l-.287-2.042 8.116-1.141-2.61-18.567 2.245-.315.939 6.684 8.547-1.201.313 2.228-8.547 1.202 1.357 9.655 10.188-1.432.287 2.042-20.548 2.887zm6.884 20.821c-.428 1.134-1.103 2.396-2.021 3.787l-1.737-1.082c1.402-1.711 2.354-3.706 2.856-5.987l1.938.012c.009.062-.008.159-.047.291-.094.581-.215.977-.361 1.187l5.008-.704-.274-1.949 1.986-.279.274 1.95 7.943-1.117.235 1.671-7.943 1.116.3 2.135 7.252-1.019.222 1.578-7.252 1.019.3 2.135 8.807-1.237.235 1.671-20.29 2.852-.235-1.671 9.497-1.334-.3-2.135-6.648.934-.222-1.578 6.648-.934-.3-2.135-5.871.823zm-2.201-3.761l-1.239-8.82 16.404-2.305 1.239 8.819-16.404 2.306zm1.08-7.347l.261 1.856 12.26-1.723-.261-1.856-12.26 1.723zm.496 3.528l.261 1.856 12.26-1.723-.261-1.856-12.26 1.723zm2.25-47.878l-1.983-14.111 1.899-.267 1.983 14.111-1.899.267zm4.271 4.701l-3.281.461c-.163-.734-.381-1.461-.659-2.179.872-.061 1.826-.162 2.862-.308 1.217-.109 1.723-.683 1.518-1.728l-2.531-18.011 1.986-.279 2.609 18.567c.394 1.965-.441 3.124-2.504 3.477zm4.66-5.106l-.248-1.764 2.763-.388-2.061-14.668 15.368-2.16 2.062 14.668 2.763-.388.248 1.764-20.895 2.936zm9.007.817c-2.926 1.736-5.271 3.013-7.034 3.829-.142-.169-.329-.459-.563-.868-.292-.401-.507-.686-.648-.855 2.551-1.054 4.91-2.236 7.073-3.55l1.172 1.444zm-3.324 14.595c-.756-.777-1.833-1.762-3.233-2.954l1.398-1.333c1.325 1.077 2.422 1.995 3.292 2.756l-1.457 1.531zm-3.082-30.735l.287 2.042 11.569-1.626-.287-2.042-11.569 1.626zm3.339 36.947c-1.02-.993-2.126-1.974-3.319-2.942l1.385-1.425c1.126.916 2.256 1.86 3.392 2.837l-1.458 1.53zm-2.843-33.419l.3 2.135 11.569-1.626-.3-2.135-11.569 1.626zm.509 3.62l.3 2.135 11.57-1.626-.3-2.135-11.57 1.626zm.508 3.621l.3 2.135 11.569-1.625-.3-2.135-11.569 1.625zm2.795 36.834c.039-.133.033.026-.021.476l-2.077-.371c.437-3.153.789-6.075 1.057-8.764.182.038.515.117 1.002.238.42.068.754.147 1.002.238-.203 1.482-.524 4.209-.963 8.183zm.249 15.514l-.3-2.135 8.807-1.238c-.085-1.439-.31-3.459-.675-6.059l2.245-.315.675 6.059 8.979-1.262.3 2.135-8.893 1.25c1.521 5.404 5.132 8.746 10.83 10.028-.325.614-.71 1.425-1.155 2.435-5.091-1.557-8.538-4.575-10.341-9.055-.189 4.509-2.657 8.453-7.405 11.833-.142-.169-.419-.478-.834-.924-.406-.385-.713-.69-.92-.912 5.267-3.453 7.708-7.805 7.322-13.052l-8.635 1.212zm.62-31.257l-.548-3.899 6.476-.91-.831-2.155 2.046-.477.857 2.341 6.389-.898.548 3.899-1.813.255-.3-2.135-11.311 1.59.3 2.135-1.813.254zm6.486 13.573c-1.894 1.149-3.274 1.975-4.143 2.476-.358-.456-.728-1.002-1.111-1.643 2.313-1.083 4.251-2.112 5.817-3.089l1.146 1.259c-.377.242-.947.574-1.709.997zm-4.171-12.762l-.222-1.579 10.706-1.504.222 1.578-4.49.631.248 1.764 5.612-.789 1.227 8.727-13.124 1.844-1.227-8.727 5.612-.789-.248-1.764-4.316.608zm1.087 3.35l.274 1.949 3.713-.521-.274-1.95-3.713.522zm.483 3.435l.274 1.95 3.712-.521-.274-1.95-3.712.521zm8.674-22.257c-1.938-.423-4.592-.933-7.963-1.532l.667-1.514c.84.135 2.097.306 3.77.512 1.911.236 3.258.425 4.042.568l-.516 1.966zm.254 17.499l-3.799.534.274 1.95 3.799-.534-.274-1.95zm-3.316 3.969l.274 1.95 3.799-.534-.274-1.95-3.799.534zm7.339 7.111c-2.384-.675-4.517-1.228-6.396-1.657l.667-1.514c.124.046.333.08.63.101 2.587.458 4.492.851 5.713 1.185l-.614 1.885zm-3.383-39.115l-.339-2.414 20.98-2.949.339 2.414-20.98 2.949zm5.867 26.74l-1.148-8.17 2.072-.291.861 6.127 5.267-.74-1.161-8.262 2.158-.304 1.162 8.263 5.267-.74-.861-6.127 2.072-.292 1.148 8.17-7.339 1.031 1.227 8.727 5.958-.837-.861-6.127 1.986-.279 1.253 8.913-1.986.279-.131-.929-16.145 2.269-1.122-7.984 2.072-.291.861 6.127 5.958-.837-1.227-8.727-7.341 1.031zm6.755 36.752c-.849 1.066-1.625 2.217-2.332 3.452l-1.276-2.188c.514-.513 1.24-1.405 2.178-2.673.106-.077.184-.151.233-.222l-1.005-7.148-2.504.352-.287-2.042 4.403-.619 1.292 9.191c1.146 1.48 2.757 2.074 4.829 1.783 3.346-.408 7.29-.962 11.829-1.663-.055.449-.161 1.159-.317 2.127l-7.08.995c-1.727.243-3.257.425-4.589.55-2.198.246-3.989-.386-5.374-1.895zm-1.435-13.337c-1.205-1.471-2.334-2.827-3.389-4.068l1.51-1.159c1.161 1.162 2.311 2.453 3.449 3.87l-1.57 1.357zm6.942 11.805c-1.569-2.809-3.239-5.509-5.012-8.1 1.102-3.436 1.893-6.576 2.374-9.422l2.004.476c-.032.194-.083.454-.155.779-1.001 3.738-1.75 6.337-2.25 7.795.225.347.595.896 1.111 1.643 1.507 2.377 2.716 4.29 3.624 5.739l-1.696 1.09zm4.563-.736c-1.71-2.979-3.382-5.679-5.012-8.1 1.021-3.173 1.829-6.189 2.426-9.051l1.978.29c-.84 3.211-1.646 6.039-2.417 8.481.365.517.891 1.328 1.574 2.43 1.341 2.021 2.39 3.641 3.148 4.859l-1.697 1.091zm-1.03-69.951l-.274-1.95 2.59-.364-.613-4.363 1.9-.267.613 4.363 2.332-.328.274 1.95-2.331.328.313 2.228.146-.21c.389.262.977.684 1.763 1.267.711.468 1.228.807 1.551 1.013 1.697-.869 3.126-1.765 4.289-2.686-.977-.682-1.901-1.626-2.775-2.829-.463.886-1.036 1.818-1.72 2.798-.424-.509-.873-.981-1.344-1.421 1.522-2.107 2.64-4.599 3.352-7.477l2.124.08c-.09.202-.189.533-.301.989-.169.466-.294.831-.375 1.094l7.425-1.043.274 1.95c-.824 2.073-1.947 3.904-3.366 5.491 1.551.603 3.423.972 5.614 1.104-.032.194-.099.551-.202 1.07-.103.52-.2.88-.289 1.082-2.811-.362-5.008-.967-6.595-1.818-1.637 1.304-3.714 2.604-6.23 3.905-.075-.115-.159-.292-.251-.533l-.337-.521-.267.605-.695-.565c-.208-.222-.705-.625-1.491-1.21l1.618 11.512-1.899.267-1.618-11.512c-.321 2.317-.852 4.38-1.595 6.188-.177-.416-.45-1.104-.818-2.063-.092-.238-.147-.42-.165-.545.864-2.204 1.519-4.853 1.965-7.944l-2.592.365zm5.68 69.203c-1.486-2.631-3.181-5.295-5.086-7.995.717-1.994 1.47-4.782 2.258-8.364.071-.325.127-.554.167-.687l2.004.476c-.752 3.01-1.57 5.744-2.457 8.203 2.112 2.922 3.71 5.317 4.795 7.184l-1.681 1.183zm5.025-14.341c-1.069-.922-2.091-1.726-3.068-2.409l1.099-1.575c1.033.676 2.081 1.444 3.142 2.304l-1.173 1.68zm.429 6.187c-.125-.044-.29-.18-.497-.403-1.233-.835-2.177-1.493-2.83-1.969l1-1.656c1.281.767 2.419 1.554 3.413 2.361l-1.086 1.667zm.407-21.561c.305 2.166-.218 3.88-1.566 5.143l-.894-.726c.923-.951 1.299-2.234 1.131-3.852l-1.468.207-.431-3.064 2.849-.4.379 2.692zm-1.022-24.778l-1.239-8.819 10.792-1.517 1.24 8.82-1.899.267-.183-1.299-6.994.983.183 1.299-1.9.266zm2.341 49.221c-.314 3.201-.56 6.043-.738 8.529l-1.905-.395c.362-3.27.58-6.108.652-8.518.247.092.791.206 1.632.338l.359.046zm1.188-64.202c1.07-1.159 2.01-2.616 2.819-4.372l-6.13.861c-.049.071-.069.137-.061.198 1.024 1.435 2.148 2.539 3.372 3.313zm-2.608 7.751l.561 3.992 6.994-.983-.561-3.992-6.994.983zm.742 48.499l-.274-1.95 3.367-.473c-.401-.763-.882-1.895-1.445-3.395l1.86-.545c.109.363.332.9.667 1.61.351.835.624 1.522.818 2.063l-.086.012 2.158-.303.274 1.949-4.058.57.383 3.354 3.885-.546c.122.867.275 2.171.461 3.911.316 2.67.528 4.597.636 5.78.252 1.794-.428 2.806-2.039 3.032-.509.133-1.053.242-1.627.323l-.619-1.901 1.295-.182c.987-.077 1.386-.574 1.199-1.494-.052-.371-.106-.963-.162-1.776-.25-2.616-.453-4.48-.61-5.595l-2.245.315.065.464c.519 4.535.156 8.214-1.09 11.041l-1.663-1.187c1.16-2.182 1.497-5.417 1.013-9.704-.111-1.625-.314-3.49-.61-5.595l-1.553.222zm9.01 7.728l-.261-1.857 3.54-.498-.183-1.3 1.966-2.927-4.835.679-.196-1.393-.474 1.014c-.464-.376-1.019-.771-1.664-1.187 1.094-2.236 1.853-4.772 2.276-7.609l2.025-.001c-.206 1.04-.417 2.047-.632 3.024l5.439-.765.261 1.857-6.217.874c-.241.791-.54 1.591-.896 2.398l6.734-.946.274 1.949-2.172 3.335.104.743 3.281-.461.261 1.857-3.281.461.639 4.549c.292 1.663-.396 2.612-2.065 2.847-.798.174-1.541.311-2.232.408-.026-.186-.119-.426-.277-.718-.136-.549-.251-.944-.342-1.183l1.986-.279c.872-.061 1.222-.488 1.052-1.284l-.574-4.085-3.537.498zm3.627-51.292l-2.557-18.196 2.331-.328c.022-.254.061-.607.115-1.058.134-.712.21-1.639.226-2.777l2.211.068c-.132 1.155-.292 2.313-.48 3.476l3.886-.546 2.531 18.01-1.899.267-.248-1.764-4.403.619.274 1.95-1.987.279zm-.285-16.433l.718 5.106 4.403-.619-.718-5.106-4.403.619zm1.005 7.149l.744 5.292 4.403-.619-.744-5.292-4.403.619zm3.46 20.268c-.946-.876-2.005-1.738-3.18-2.583l1.199-1.494c1.033.676 2.113 1.471 3.241 2.385l-1.26 1.692zm.417 6.094c-1.069-.922-2.187-1.775-3.353-2.558l1.186-1.587c1.033.676 2.147 1.497 3.34 2.466l-1.173 1.679zm1.335 5.115c-.291 2.944-.474 4.989-.546 6.136l-1.991-.383c.319-2.317.599-5.133.837-8.449.677.222 1.311.353 1.905.395-.056.45-.124 1.217-.205 2.301zm18.001 1.541c-.388 1.001-.671 1.704-.848 2.107-1.573-1.168-2.817-2.286-3.729-3.357-.681 1.421-1.666 2.98-2.953 4.675-.358-.456-.843-.986-1.457-1.594 1.486-1.534 2.553-3.135 3.199-4.805-1.001-1.689-1.86-3.84-2.58-6.454-.049.07-.09.202-.121.396-.202.66-.37 1.126-.508 1.397-.332-.269-.704-.626-1.119-1.074l.039.279-6.907.971-1.161-8.263 2.159-.303c.022-.254.061-.608.115-1.058-.013-.502-.002-.852.029-1.045l1.913-.174c-.086.644-.167 1.318-.244 2.022l2.936-.413 1.07 7.613c1.104-2.996 1.747-6.367 1.924-10.116l1.865.117c-.154 1.41-.321 2.728-.501 3.952l4.49-.631.261 1.857-.95.133c.29 4.567.048 8.073-.723 10.516 1.062 1.302 2.328 2.386 3.801 3.252zm-17.278-3.915l-.209-1.485 3.626-.51-.654-1.517 1.787-.441c.158.294.347.804.567 1.53l.026.186 3.108-.437.208 1.485-5.267.74c.078.557.123 1.088.135 1.59l4.663-.655c.11 1.626.228 2.872.349 3.738.186 1.74-.532 2.693-2.151 2.858-.395.118-.966.23-1.714.335-.026-.186-.123-.456-.29-.811-.119-.426-.221-.727-.303-.904l.691-.097c.354.013.617.008.79-.016.92-.129 1.329-.565 1.225-1.308l-.188-1.962-2.936.413c.021 1.828-.598 3.682-1.859 5.563-.398-.323-.92-.692-1.564-1.105 1.182-1.617 1.728-3.367 1.64-5.248-.021-.565-.092-1.28-.213-2.147l-1.467.205zm8.601-22.153l-3.626.51c-.154-.673-.403-1.396-.745-2.167.756-.044 1.883-.17 3.38-.38 1.628-.103 2.326-.99 2.091-2.661-.077-1.377-.399-4.299-.968-8.763-.126-1.308-.227-2.24-.305-2.797l-5.181.728c-.152.59-.413 1.447-.783 2.572l-.361 1.187c-.57-.299-1.198-.589-1.883-.872 1.007-2.854 1.689-5.729 2.046-8.619l2.051.185c-.064.388-.163.938-.296 1.651l-.283 1.744 6.389-.898c.557 3.961 1.093 8.62 1.612 13.974.374 2.66-.673 4.197-3.138 4.606zm-7.533 11.589l.274 1.95 3.54-.498-.274-1.95-3.54.498zm.47 3.342l.274 1.95 3.54-.498-.274-1.95-3.54.498zm4.522-21.105c-.35-.392-.873-.981-1.569-1.768-.989-1.187-1.761-2.087-2.317-2.704l1.397-1.333c.489.563 1.215 1.344 2.179 2.345.821.831 1.443 1.501 1.867 2.01l-1.557 1.45zm.12 60.994c.305 2.166-.218 3.88-1.566 5.143l-.894-.726c.923-.951 1.299-2.234 1.131-3.851l-1.468.206-.431-3.063 2.849-.4.379 2.691zm3.633-41.147c.665 3.063 1.469 5.443 2.412 7.14.46-2.147.543-4.905.247-8.271l-2.504.352-.155.779zm8.06-24.722c-.712 1.615-1.758 3.15-3.138 4.606-.151-.23-.404-.573-.761-1.029-.159-.292-.309-.524-.45-.694 1.486-1.535 2.7-3.345 3.639-5.435-.312-.965-.706-1.889-1.182-2.769-.333.553-1.006 1.405-2.018 2.556.768-.802.719-.731-.146.21l-.337-.521c-.15-.23-.437-.602-.86-1.11.048-.069.126-.144.233-.222.962-1.082 1.661-1.968 2.091-2.661-1.072-1.364-2.035-2.365-2.887-3.002l1.298-1.413c1.002.869 1.889 1.755 2.662 2.655.52-.893.97-1.872 1.349-2.935l1.724.988c-.583 1.282-1.208 2.475-1.875 3.577 1.557 2.306 2.671 6.063 3.345 11.269.535 3.395-.405 5.264-2.822 5.604l-2.245.316-.026-.186c-.136-.549-.338-1.152-.606-1.808l2.072-.291c1.58-.033 2.151-1.186 1.715-3.46-.228-1.608-.486-3.023-.775-4.245zm.613 22.554c.045 1.572.047 3.465.006 5.679-.181-.037-.42-.066-.717-.088-.297-.021-.531-.02-.704.004.035-1.835.031-3.948-.011-6.342l1.408-.008c.026.185.032.438.018.755zm4.419 1.367c-.265-.214-.654-.476-1.167-.783-.257-.153-.451-.283-.583-.392l2.218 15.782-1.899.267-3.118-22.188 1.899-.267.574 4.085c.817.391 1.715.927 2.692 1.61l-.616 1.886zm-2.765-32.855l-.3-2.136 12.347-1.735.3 2.135-5.267.74.874 6.22 4.921-.692.274 1.95-4.921.691 1.018 7.242 5.785-.813.261 1.856-13.555 1.905-.261-1.857 5.698-.801-1.018-7.241-4.835.679-.274-1.949 4.835-.68-.875-6.22-5.007.706zm1.068 58.961l-.248-1.764 3.367-.473-.405-2.878 1.813-.255.404 2.878 2.849-.4.248 1.764-2.849.4.352 2.507 1.209-.17c1.114-1.671 2.03-3.504 2.749-5.499l1.685.71c-.704 1.677-1.434 3.169-2.189 4.473l2.417-.34.248 1.764-3.972.558c-.578.902-1.246 1.784-2.005 2.648l5.094-.716 1.5 10.676-1.813.255-.183-1.3-5.094.716.183 1.3-1.813.255-1.122-7.984-1.484 1.345-.376-.799c-.242-.471-.435-.791-.575-.961 2.013-1.544 3.771-3.243 5.271-5.096l-5.526.777-.248-1.764 4.23-.594-.353-2.507-3.364.474zm1.661-30.74l-.208-1.485 5.698-.801-.248-1.764 1.899-.267.248 1.764 6.13-.862.208 1.485-6.13.862.222 1.578 5.526-.777.196 1.393-5.526.777.222 1.578 6.476-.91.208 1.485-14.591 2.051-.208-1.485 6.216-.874-.222-1.579-5.094.716-.196-1.393 5.094-.716-.222-1.578-5.698.802zm3.34 18.749l-1.592-11.326 12.001-1.687 1.187 8.448c.309 1.787-.457 2.81-2.298 3.068l-1.209.17c-.798.174-1.398.291-1.8.348-.194-.541-.424-1.14-.693-1.796.699-.036 1.654-.138 2.862-.308.987-.077 1.39-.543 1.212-1.401l-.104-.743-8.202 1.153.535 3.807-1.899.267zm-.904 19.841l.326 2.321 5.094-.716-.326-2.321-5.094.716zm.548 3.899l.326 2.321 5.094-.716-.326-2.321-5.094.716zm.872-33.848l.235 1.671 8.202-1.153-.235-1.671-8.202 1.153zm.418 2.971l.235 1.671 8.202-1.153-.235-1.671-8.202 1.153zm8.532 34.988l-2.949-20.981 7.425-1.043.287 2.042-1.245 6.802c2.018 1.42 3.147 3.188 3.386 5.299.414 2.531-.406 4.002-2.461 4.417l-1.985.279c-.093-.238-.203-.602-.33-1.09-.186-.479-.32-.807-.402-.985l1.813-.255c1.218-.107 1.697-.869 1.44-2.285-.209-1.485-1.35-3.124-3.42-4.916l1.206-7.081-3.54.498 2.675 19.032-1.9.267zm7.529-62.918l-2.468-3.156c-.831 2.453-1.88 4.588-3.15 6.407-.066-.054-.17-.166-.311-.335-.45-.694-.808-1.148-1.072-1.364 1.359-2.021 2.371-4.215 3.037-6.581l-4.275-5.363 1.324-1.228 3.489 4.149c.372-1.946.475-4.138.308-6.576l-5.439.764-.287-2.042 7.425-1.043.287 2.042c.043 3.655-.189 6.591-.699 8.808l3.303 4.08-1.472 1.438zm-1.089 32.931l-2.91-20.703 18.563-2.609 2.91 20.703-2.072.292-.209-1.485-14.418 2.026.209 1.485-2.073.291zm12.153-9.376c-1.776.313-2.766-.463-2.968-2.328l-1.188-8.448-2.936.413.6 4.271c.66 3.443-.239 6.44-2.698 8.994-.531-.43-1.089-.855-1.676-1.279 2.213-2.205 3.03-4.749 2.449-7.634l-.574-4.085-3.712.521 2.166 15.411 14.418-2.026-2.166-15.411-3.885.546 1.083 7.706c.081.999.606 1.398 1.577 1.198l2.245-.315c.035.248.025.597-.029 1.045.003.442-.007.791-.029 1.045l-2.677.376zm-4.701-29.656c-.164 3.431-1.884 6.639-5.163 9.625-.54-.492-1.115-1.043-1.729-1.65 3.6-2.778 5.324-6.176 5.17-10.194-.01-1.324-.128-2.79-.354-4.4l1.986-.279c.043.31.079.779.109 1.404l.183 1.3c1.426 4.723 3.989 7.929 7.69 9.617-.081.263-.263.636-.547 1.118-.228.473-.414.815-.561 1.025-3.238-1.754-5.501-4.275-6.784-7.566zm4.287-4.579l-1.632-.338c-.181-.037-.302-.052-.358-.044l1.032-3.932-7.08.995c-.126.775-.381 1.885-.765 3.326-.193.722-.32 1.276-.382 1.663-.76-.397-1.417-.684-1.97-.859.892-2.838 1.514-5.924 1.869-9.256l2.038.092c-.092 1.023-.244 2.022-.459 3l8.461-1.189.287 2.042-1.041 4.5zm9.842 54.982c-.454.949-.762 1.686-.922 2.212-4.506-1.575-7.876-3.626-10.109-6.153-1.952 3.242-4.756 6.254-8.414 9.041l-1.483-1.78c4.119-2.851 7.066-6.105 8.841-9.763l2.457-.061-.5.828c2.48 2.619 5.857 4.511 10.13 5.676zm-19.311 9.815l-.287-2.042 19.599-2.754.287 2.042-10.447 1.468c-1.293 2.075-2.457 3.817-3.492 5.224 1.2-.23 3.407-.604 6.622-1.12 1.028-.207 1.8-.348 2.318-.42-.689-.723-1.489-1.4-2.398-2.03l1.298-1.414c.653.477 1.672 1.249 3.055 2.316 1.25.96 2.202 1.679 2.856 2.155l-1.444 1.623-1.504-1.303c-4.925.881-8.409 1.561-10.455 2.037-.173.024-.428.091-.764.202-.691.097-1.23.235-1.614.416l-1.323-1.896c.656-.344 1.204-.832 1.644-1.462.994-1.276 1.865-2.596 2.612-3.964l-6.563.922zm3.452-5.503l-.274-1.949 11.311-1.59.274 1.95-11.311 1.589zm8.725-64.504l-.287-2.042 5.525-.777-.378-2.692 2.072-.291.378 2.692 5.439-.765-.378-2.692 2.072-.291.378 2.692 5.525-.777.287 2.042-5.526.777.313 2.228-2.072.291-.313-2.228-5.439.765.313 2.228-2.072.291-.313-2.228-5.524.777zm16.441 12.363c-.453.127-1.541.311-3.268.554-.162-.734-.386-1.492-.671-2.272l1.036-.146c.814-.051 1.451-.109 1.913-.174 1.801-.126 2.551-1.053 2.25-2.778-.094-1.501-.223-2.84-.388-4.017l-8.116 1.141 1.631 11.605-2.159.303-1.631-11.604-5.18.728-.287-2.042 17.7-2.488c.293 2.926.478 5.078.555 6.455.409 2.909-.721 4.487-3.385 4.735zm-11.101 26.29l-.248-1.764 1.554-.218-1.5-10.676 2.763-.388.063-1.429c-.021-.565-.024-1.005-.01-1.324l2.012-.094c-.06.83-.144 1.693-.252 2.592l3.885-.546 2.362 16.804c.283 1.601-.41 2.519-2.079 2.754-.567.142-1.426.295-2.577.457-.221-.726-.455-1.356-.706-1.889l.863-.122c.814-.052 1.365-.097 1.654-.138.747-.105 1.07-.529.966-1.271l-.548-3.899-.086.012c-1.305 2.834-3.455 5.281-6.452 7.344-.517-.749-.887-1.295-1.111-1.643 2.393-1.345 4.252-3.154 5.577-5.423l-6.13.861zm1.854-11.242l.287 2.042 4.835-.679-.287-2.042-4.835.679zm.675 29.274l-.248-1.764 4.058-.57-.365-2.6 1.899-.267.365 2.6 3.54-.498-.378-2.692 1.813-.255.378 2.692 3.626-.51-.366-2.599 1.899-.267.366 2.6 3.971-.558.248 1.764-3.972.558.339 2.414-1.899.267-.339-2.414-3.626.51.339 2.414-1.813.255-.339-2.414-3.54.498.339 2.414-1.899.267-.339-2.414-4.057.569zm-.18-25.746l.287 2.042 4.835-.679-.287-2.042-4.835.679zm.483 3.435l.287 2.042 4.835-.679-.287-2.042-4.835.679zm1.458 29.827l-.587-4.178 19.513-2.742.587 4.178-1.985.279-.326-2.321-15.541 2.184.326 2.321-1.987.279zm3.246 8.064l-1.096-7.798 6.648-.934-.287-2.042 2.072-.291.287 2.042 6.734-.946.718 5.106c.292 1.663-.396 2.612-2.065 2.847-.453.125-1.282.275-2.491.445-.102-.303-.236-.63-.403-.985-.101-.301-.194-.541-.277-.719.527-.01 1.25-.081 2.171-.21.872-.059 1.218-.517 1.039-1.377l-.43-3.063-4.749.667 1.096 7.798-2.072.291-1.096-7.798-4.663.655.848 6.035-1.984.277zm1.988-42.903l-.287-2.042 6.13-.861-.705-5.013 1.9-.267.705 5.013 2.245-.315.287 2.042-2.245.315 1.631 11.604c.393 1.964-.446 3.092-2.518 3.384-.682.158-1.714.335-3.095.529-.221-.726-.459-1.388-.719-1.981l2.763-.389c1.274-.117 1.813-.665 1.618-1.647l-1.579-11.233-6.131.861zm4.044 7.479c-.626-1.11-1.712-2.789-3.26-5.033l1.536-.973c1.265 1.905 2.376 3.548 3.334 4.928l-1.61 1.078zm10.287 5.557l-2.557-18.196 2.331-.328c.022-.254.06-.607.115-1.058.134-.712.21-1.639.226-2.777l2.211.068c-.132 1.155-.292 2.313-.48 3.476l3.887-.546 2.53 18.01-1.899.267-.248-1.764-4.402.619.274 1.949-1.988.28zm.814-33.074c.305 2.166-.218 3.88-1.566 5.143l-.894-.726c.923-.951 1.299-2.234 1.131-3.852l-1.468.207-.431-3.064 2.849-.4.379 2.692zm-1.099 16.641l.718 5.106 4.403-.619-.718-5.106-4.403.619zm1.005 7.149l.744 5.292 4.403-.619-.744-5.292-4.403.619zm4.094 30.973c-.567.143-1.101.313-1.601.509l-.779-1.784c.417-.374.876-1.07 1.38-2.087.528-.832 1.03-1.849 1.508-3.052-1.316.249-2.454.503-3.415.764l-.779-1.784c.408-.436.761-1.054 1.06-1.853.961-2.343 1.667-4.431 2.114-6.261l2.163.358c-1.203 3.137-2.239 5.585-3.105 7.348l2.75-.481c.139-.271.287-.67.449-1.199.217-.535.365-.935.446-1.199l1.918.488c-1.278 3.02-2.563 5.789-3.852 8.304l4.006-.941.024.186c-.045.512-.023 1.077.063 1.695-.74.167-1.705.398-2.896.691-.681.158-1.166.257-1.454.298zm4.054 3.785c-2.357.772-4.205 1.41-5.542 1.915l-.62-1.901c.394-.117 1.043-.303 1.947-.558 2.308-.703 4.078-1.267 5.309-1.693.028.628.093 1.282.188 1.962-.289.04-.716.132-1.282.275zm6.388-27.807l-3.626.51c-.153-.674-.403-1.396-.745-2.167.756-.044 1.883-.17 3.381-.38 1.629-.103 2.325-.99 2.092-2.661-.076-1.377-.399-4.299-.969-8.763-.125-1.308-.227-2.24-.305-2.797l-5.182.728c-.151.589-.412 1.447-.782 2.572l-.361 1.187c-.569-.298-1.198-.589-1.884-.871 1.008-2.854 1.689-5.729 2.047-8.619l2.051.185c-.062.388-.162.938-.296 1.651l-.282 1.744 6.389-.898c.558 3.961 1.094 8.62 1.611 13.974.375 2.658-.673 4.194-3.139 4.605zm6.913 13.44c-.269.606-.521 1.304-.763 2.095-2.909-1.484-5.209-3.434-6.896-5.847-.848 2.329-2.059 4.36-3.634 6.096l8.634-1.213.262 1.856-8.807 1.238-.248-1.764c-.4.499-.833.969-1.299 1.413-.523-.81-.934-1.415-1.225-1.816 2.56-2.253 4.305-5.085 5.233-8.498l2.024-.001-.241.792c1.891 2.575 4.209 4.46 6.96 5.649zm-9.454-19.616c-.35-.392-.872-.981-1.568-1.768-.99-1.186-1.762-2.086-2.316-2.704l1.396-1.333c.489.563 1.215 1.344 2.18 2.345.82.831 1.443 1.501 1.867 2.01l-1.559 1.45zm-.893 36.218l-1.344-9.563 10.619-1.492 1.346 9.562-1.899.267-.183-1.3-6.821.959.183 1.299-1.901.268zm.819-7.973l.651 4.642 6.821-.958-.652-4.642-6.82.958zm2.224-68.705l-.247-1.764 4.058-.57-.365-2.6 1.899-.267.364 2.599 3.541-.498-.379-2.692 1.812-.254.378 2.692 3.627-.509-.364-2.6 1.898-.267.365 2.6 3.972-.558.248 1.764-3.972.558.339 2.414-1.899.267-.339-2.414-3.627.51.34 2.414-1.812.255-.339-2.414-3.541.498.34 2.414-1.899.267-.339-2.414-4.059.569zm1.761 7.516l-.587-4.178 19.513-2.742.587 4.178-1.984.279-.326-2.321-15.541 2.185.326 2.321-1.988.278zm2.271 19.869l-.287-2.042 20.461-2.875.287 2.042-9.323 1.311-.247 3.253 7.943-1.117 2.19 15.597-2.071.291-.223-1.578-12.087 1.699.222 1.578-2.072.292-2.19-15.597 6.043-.849.161-3.242-8.807 1.237zm.976-11.805l-1.098-7.798 6.648-.935-.287-2.042 2.072-.291.287 2.042 6.734-.947.717 5.106c.291 1.663-.396 2.612-2.064 2.846-.453.126-1.281.275-2.49.445-.103-.302-.236-.63-.402-.985-.103-.301-.194-.541-.277-.718.527-.011 1.251-.081 2.172-.211.872-.059 1.219-.517 1.039-1.376l-.431-3.064-4.748.667 1.096 7.798-2.071.292-1.097-7.798-4.662.655.849 6.034-1.987.28zm5.901 43.23c-.472.823-.976 1.621-1.513 2.39-.159-.293-.422-.698-.786-1.215-.217-.285-.367-.517-.451-.694 1.72-2.386 2.951-4.896 3.697-7.525l2.004.476c-.41 1.257-.887 2.46-1.43 3.609l1.355 9.655-1.898.267-.978-6.963zm-1.93-26.914l.588 4.178 12.088-1.699-.588-4.178-12.088 1.699zm.847 6.034l.588 4.178 12.087-1.699-.587-4.178-12.088 1.699zm3.677 29.319c-.421 2.016-.894 3.881-1.415 5.595l-1.93-.581c.637-1.73 1.088-3.529 1.354-5.397l1.991.383zm4.047-11.929c-.429 1.134-.995 2.317-1.702 3.553-.134-.107-.355-.234-.67-.379-.455-.314-.812-.548-1.066-.702 1.243-2.005 2.193-4.221 2.852-6.649l2.037.092-.36 1.187c-.179.404-.282.703-.313.896l9.41-1.322.274 1.949-.806 3.048c-.313-.145-.857-.258-1.631-.338-.125-.044-.217-.064-.272-.057l.71-2.466-8.463 1.188zm.726 17.696c-1.843.259-2.894-.54-3.154-2.397l-.547-3.899 1.985-.279.47 3.342c.131.928.685 1.324 1.664 1.186l3.625-.509c1.283-.055 1.908-.615 1.877-1.684.086-.642.104-1.34.059-2.091.247.092.645.193 1.188.307l.815.169c.012.504-.032 1.235-.132 2.196-.04.133-.057.229-.047.291-.129 1.595-1.117 2.491-2.969 2.689l-4.834.679zm1.19-14.084c-1.081 1.919-2.158 3.649-3.231 5.188-.531-.43-1.082-.795-1.65-1.094.994-1.275 2.021-2.935 3.086-4.978l1.795.884zm1.668 9.991c-.905-1.009-1.921-1.97-3.047-2.885l1.312-1.32c1.051.799 2.115 1.69 3.193 2.675l-1.458 1.53zm.066-4.554l-1.985.279c-.194-.541-.425-1.139-.693-1.796.411.006.991-.045 1.74-.15.92-.129 1.295-.592 1.125-1.389l-.717-5.106 1.899-.267.756 5.385c.298 1.726-.409 2.741-2.125 3.044zm4.443-62.381c-.518 1.336-1.102 2.616-1.749 3.844-.177-.416-.364-.927-.567-1.53l-.414-1.078c1.529-3.307 2.607-7.12 3.233-11.437l2.15.266c-.364 2.008-.777 3.865-1.242 5.571l2.297 16.339-1.985.279-1.723-12.254zm2.678 60.434c-.396-.323-.966-.811-1.701-1.465-1.078-.985-1.949-1.746-2.61-2.284l1.212-1.401c1.456 1.184 2.947 2.395 4.473 3.632l-1.374 1.518zm1.104 7.229c-1.063-1.302-2.353-2.73-3.86-4.286l1.397-1.333c1.5 1.493 2.849 2.946 4.046 4.354l-1.583 1.265zm-.954-44.379l-.261-1.857 5.267-.74-.392-2.785 2.071-.291.393 2.785 5.008-.704.262 1.856-5.009.704.457 3.249 2.849-.4c1.723-1.946 3.232-4.146 4.531-6.601l1.896.964c-1.139 1.927-2.273 3.666-3.405 5.212l5.181-.728.262 1.857-7.426 1.043c-1.479 1.597-3.369 3.188-5.668 4.773l.248 1.764c3.551-1.446 6.656-2.955 9.312-4.527l1.124 1.735c-2.951 1.551-6.345 3.102-10.177 4.649l.117.835c.082.999.723 1.381 1.924 1.15l5.957-.837c1.158-.101 1.756-.656 1.789-1.671-.024-.186-.031-.437-.018-.755.021-.254.008-.979-.041-2.172.734.213 1.459.363 2.176.452-.004 1.643-.049 2.785-.134 3.427-.146 1.471-1.11 2.333-2.896 2.584l-7.252 1.02c-2.072.291-3.248-.554-3.525-2.534l-.521-3.713-1.218.739c-.435.25-1.381.826-2.839 1.725-.27-.656-.627-1.332-1.077-2.026 3.896-1.935 7.04-3.987 9.437-6.155l-9.842 1.383-.262-1.856 7.426-1.043-.457-3.25-5.267.739zm13.484-26.239c-.66-.097-1.342-.158-2.051-.185l.812-3.617-8.375 1.177c-.49 1.521-1.062 3.084-1.719 4.691-.653-.476-1.266-.864-1.836-1.162 1.271-2.64 2.181-5.575 2.725-8.809l2.139.173-.646 2.931 9.497-1.334.273 1.95-.819 4.185zm-10.103 57.216c-.344-.771-.846-1.837-1.506-3.197-.186-.479-.355-.864-.516-1.158l1.156-.542c.074.117.19.321.352.614.885 1.707 1.466 2.918 1.742 3.636l-1.228.647zm2.21-54.498c-.668 3.187-1.306 5.958-1.913 8.316-.686-.282-1.361-.502-2.029-.662.899-2.777 1.547-5.486 1.938-8.13l2.004.476zm4.559 63.203c-.424-.508-1.084-1.235-1.979-2.183-.198-.161-.336-.299-.41-.416l1.2 8.541-1.727.243-1.2-8.541c-.396 2.202-1.002 4.149-1.82 5.841-.11-.363-.333-.9-.667-1.61-.102-.301-.189-.509-.264-.625 1.039-1.787 1.762-4.16 2.168-7.121l-2.85.4-.248-1.764 2.937-.413-1.147-8.169 1.728-.243 1.147 8.169 2.59-.364.248 1.764-2.59.364.364 2.6.759-.864c1.369 1.386 2.36 2.383 2.975 2.99l-1.214 1.401zm-2.156-52.369c-.51.134-1.369.287-2.577.457-.229-.789-.478-1.512-.745-2.167.526-.012 1.278-.085 2.258-.223 1.045-.085 1.473-.586 1.285-1.506l-1.592-11.326 2.072-.292 1.644 11.698c.326 1.91-.454 3.03-2.345 3.359zm1.397 38.181c-.254 1.55-.559 3.14-.916 4.767l-1.359-.282c.415-1.635.72-3.226.915-4.768l1.36.283zm.574.96l-.209-1.485 4.835-.68-.274-1.95 1.9-.267.273 1.949 5.354-.752.208 1.485-5.353.752.209 1.486 4.835-.68.194 1.393-4.834.68.222 1.578 5.698-.801.209 1.485-12.778 1.796-.209-1.485 5.181-.728-.222-1.579-4.403.619-.195-1.393 4.403-.619-.209-1.485-4.835.681zm4.665-43.293c-.978-1.945-2.321-4.407-4.03-7.386l1.721-.905c.927 1.574 2.207 3.793 3.842 6.655-.075-.115.009.063.251.533l-1.784 1.103zm-1.61 61.893l-1.578-11.233 10.791-1.517 1.176 8.355c.3 1.724-.408 2.739-2.126 3.044l-1.122.158c-.684.158-1.227.267-1.628.323-.194-.541-.425-1.14-.692-1.796.583-.02 1.424-.105 2.518-.259.986-.077 1.391-.543 1.211-1.401l-.104-.743-7.166 1.007.535 3.806-1.815.256zm.429-10.096l.234 1.671 7.166-1.007-.234-1.671-7.166 1.007zm.431 3.064l.222 1.578 7.166-1.007-.222-1.578-7.166 1.007zm24.038-60.787c-.309.738-.492 1.3-.555 1.688-4.282-1.228-7.301-3.708-9.059-7.437l-7.166 1.007c.375 3.923-.316 7.556-2.078 10.895-.199-.161-.651-.666-1.356-1.513-.075-.115-.146-.2-.212-.254 1.707-2.891 2.146-6.645 1.322-11.262l-.782-5.57 16.146-2.269 1.122 7.984-4.922.692c1.521 2.879 4.099 4.726 7.734 5.54-.041.131-.105.297-.194.499zm-13.581 19.91l-2.903-1.864-1.252-.771 1.072-1.76c.76.399 1.909 1.057 3.447 1.977.322.208.549.365.683.472l-1.047 1.946zm-.114 6.075c-.597-.484-1.541-1.14-2.83-1.969-.521-.368-.912-.629-1.166-.783l1.072-1.761c.381.2.926.533 1.639 1.001 1.147.659 1.982 1.174 2.504 1.541l-1.219 1.971zm-3.422-33.142l.065.464 12.087-1.699-.574-4.085-12.087 1.699.509 3.621zm12.428 13.875c-3.504-.708-7.172-1.328-11.004-1.862l.604-1.978c1.145.218 2.831.518 5.057.898 2.703.441 4.655.766 5.86.975l-.517 1.967zm-8 28.309l-.244 2.022-2.176-.451c.301-1.621.623-4.126.969-7.521.086-.642.14-1.092.162-1.348.306.084.824.231 1.56.443.237.03.419.068.544.113-.165 1.349-.437 3.597-.815 6.742zm5.437-34.008c-1.891-.492-4.252-1.012-7.087-1.56l.614-1.885c.791.206 1.881.431 3.266.677 1.633.339 2.873.607 3.723.802l-.516 1.966zm2.871 44.223c-3.756.844-6.833 1.497-9.232 1.96-.085-.177-.183-.448-.291-.811-.186-.479-.32-.807-.402-.985 3.848-.603 7.5-1.338 10.961-2.203l.593 1.715c-.348.049-.891.158-1.629.324zm-7.057 7.43c-.645-1.235-1.346-2.462-2.103-3.681l1.562-.788c.15.232.416.668.802 1.308.683 1.104 1.142 1.86 1.375 2.268l-1.636.893zm-.984 3.641l-.262-1.856 4.576-.644-.234-1.671 1.812-.255.235 1.671 4.317-.607.261 1.857-4.317.606.365 2.6.646-1.038c1.578.789 3.073 1.62 4.488 2.493l-.975 1.841c-.646-.414-1.547-.981-2.704-1.703-.579-.36-1.03-.644-1.353-.852l.873 6.22-1.812.255-.967-6.87c-.719 1.995-1.912 3.93-3.586 5.806-.159-.294-.445-.664-.859-1.11l-.338-.521c1.797-1.83 3.179-4.106 4.146-6.831l-4.312.609zm3.55-21.065l-2.753-19.589 13.382-1.881.3 2.135-11.31 1.59 2.19 15.597 11.656-1.638.262 1.857-13.727 1.929zm.831 15.905c-.378-1.02-.906-2.271-1.584-3.754l1.589-.602c.576 1.182 1.134 2.429 1.67 3.741l-1.675.615zm5.561-4.285c-.265 1.047-.717 2.626-1.358 4.735l-1.659-.524c.659-1.986 1.094-3.498 1.3-4.537l1.717.326zm7.85-3.659c-1.556 2.301-3.592 4.514-6.111 6.634l-1.37-1.606c2.291-1.647 4.261-3.723 5.904-6.226l1.577 1.198zm2.737 12.585c-1.771 3.278-4.449 6.147-8.035 8.608-.424-.508-.914-1.071-1.471-1.687 3.359-1.987 5.997-4.724 7.915-8.212l1.591 1.291zm-1.418-6.333c-1.742 2.645-3.8 4.921-6.173 6.832-.396-.323-.878-.823-1.442-1.501 2.373-1.91 4.385-4.086 6.038-6.529l1.577 1.198zm-4.501-60.185c.045 1.572.047 3.465.006 5.679-.183-.037-.421-.066-.718-.088-.298-.021-.53-.02-.703.004.034-1.834.03-3.948-.012-6.341l1.407-.008c.028.184.033.436.02.754zm4.418 1.367c-.267-.214-.654-.477-1.166-.783-.258-.153-.451-.283-.584-.391l2.219 15.782-1.899.267-3.119-22.188 1.899-.267.574 4.085c.816.391 1.716.927 2.69 1.609l-.614 1.886zm-2.674 24.16l-.247-1.764 11.482-1.614.248 1.764-1.468.206.938 6.685-1.727.243-.939-6.685-8.287 1.165zm1.072 9.506l-.248-1.764 12.174-1.711.248 1.764-1.898.267 1.044 7.427c.3 1.724-.302 2.661-1.808 2.81-.798.174-1.627.323-2.489.445-.146-.611-.348-1.215-.606-1.808.229-.032.579-.05 1.049-.053l1.036-.146c.872-.06 1.218-.519 1.039-1.376l-.991-7.056-8.55 1.201zm.579-3.395l-.665-4.735 5.785-.813.665 4.735-5.785.813zm1.341 10.794l-.835-5.941 5.871-.825.691 4.92-4.316.606.145 1.021-1.556.219zm-.353-45.7l-.208-1.485 5.697-.801-.247-1.764 1.898-.267.248 1.764 6.13-.861.209 1.485-6.131.861.223 1.578 5.525-.776.195 1.393-5.525.776.222 1.579 6.477-.91.209 1.485-14.592 2.051-.209-1.485 6.217-.874-.222-1.578-5.095.716-.195-1.393 5.095-.716-.223-1.578-5.698.8zm.01 31.358l.274 1.95 2.763-.389-.274-1.949-2.763.388zm1.258 9.574l.3 2.135 2.765-.388-.302-2.135-2.763.388zm4.551 22.38c-1.086.216-2.194.467-3.327.752l-.779-1.784c.357-.366.729-1.08 1.106-2.144.784-1.94 1.443-3.926 1.979-5.958l2.077.371c-.927 2.592-1.904 5.034-2.934 7.323.855-.182 1.742-.34 2.664-.469.355-.807.684-1.61.981-2.41l1.758.605.014.093c1.314-2.33 2.208-4.538 2.68-6.625l2.11-.013c-.282.924-.508 1.619-.676 2.083l5.698-.801.261 1.856-1.495 3.145 3.367-.473 1.083 7.706-9.584 1.347.522 3.714c.08.999.663 1.389 1.75 1.174l5.267-.74c1.217-.109 1.812-.665 1.79-1.672.027-.634.005-1.421-.067-2.357.306.084.759.178 1.36.282.238.03.42.068.544.113.032 1.069.016 1.986-.053 2.753-.063 1.649-1.02 2.572-2.869 2.77l-6.13.861c-2.017.283-3.161-.566-3.439-2.546l-1.422-10.119.013.093c-.058.008-.082.044-.072.105l-1.306-1.142c-1.335 3.028-2.348 5.222-3.037 6.581l3.833-.917c.029.627.089 1.251.176 1.869-.684.16-1.619.386-2.812.679-.566.144-.994.234-1.282.275-.278.103-.673.222-1.183.355-.279.103-.477.162-.591.178l-.854-1.679c.476-.381.938-1.046 1.394-1.994.285-.481.664-1.324 1.142-2.527.131-.336.244-.572.343-.713zm-2.479-44.563l-1.592-11.326 12.001-1.687 1.188 8.448c.31 1.786-.457 2.81-2.299 3.068l-1.208.17c-.799.174-1.398.291-1.801.348-.194-.541-.424-1.14-.692-1.796.699-.036 1.653-.138 2.862-.308.986-.076 1.391-.543 1.212-1.401l-.104-.743-8.202 1.153.534 3.806-1.899.268zm7.134 54.512c-1.75.498-3.941 1.185-6.578 2.061l-.619-1.901c1.02-.269 2.571-.708 4.657-1.317 1.011-.331 1.798-.568 2.365-.711.038.689.097 1.311.175 1.868zm-6.617-64.619l.234 1.671 8.202-1.153-.234-1.671-8.202 1.153zm.417 2.97l.235 1.671 8.202-1.153-.235-1.671-8.202 1.153zm13.327 20.871l-1.075-.133c-.297-.02-.534-.05-.717-.088l.541-3.673-4.663.655c-.27 1.427-.62 2.896-1.053 4.408-.19-.099-.479-.279-.868-.541l-.854-.448c.852-2.707 1.396-5.498 1.641-8.372l1.938.011c-.092 1.023-.243 2.022-.459 3l5.785-.813.261 1.857-.477 4.137zm-3.206 5.374c.099 3.205-.896 6.152-2.982 8.845-.425-.508-.905-1.009-1.443-1.501 2.055-2.498 3.032-5.57 2.931-9.216-.036-1.51-.188-3.224-.459-5.143l1.813-.255c.147 1.053.267 2.109.356 3.168 1.162 4.508 3.142 7.733 5.938 9.674-.374.683-.693 1.328-.961 1.934-2.444-1.928-4.176-4.43-5.193-7.506zm2.966 18.626l-4.575.643c-.494 1.08-1.021 2.132-1.581 3.157l4.575-.643 1.581-3.157zm-5.378 5.584l.562 3.992 3.021-.425-.562-3.992-3.021.425zm3.596-63.399l-.248-1.764 9.411-1.323c-.084-.178-.215-.474-.391-.892-.251-.533-.452-.914-.602-1.146l2.206-.594 1.029 2.317 8.894-1.25.248 1.764-20.547 2.888zm4.174 62.307l-3.108.437.562 3.992 3.107-.437-.561-3.992zm-2.416-48.542l-.247-1.764 9.756-1.371-.104-.743 4.439-2.233-12.604 1.771-.234-1.671 16.317-2.293.247 1.764-5.902 3.102 8.894-1.25.247 1.764-8.979 1.262.208 1.485c.301 1.724-.465 2.747-2.298 3.068l-3.453.485-.039-.278c-.11-.363-.299-.874-.567-1.53.346-.048.838-.087 1.48-.113l1.468-.207c1.045-.084 1.477-.555 1.299-1.413l-.17-1.207-9.758 1.372zm1.819-7.735l-.69-4.92 14.937-2.099.692 4.92-14.939 2.099zm1.919 25.59l-.223-1.578 2.764-.388-.34-2.414-.689.097c-.53.832-1.101 1.575-1.712 2.229-.075-.115-.283-.339-.622-.67-.274-.277-.479-.469-.609-.577 1.265-1.439 2.199-2.927 2.807-4.465l1.853.024c-.041.133-.109.268-.207.408-.072.327-.25.73-.534 1.211l15.8-2.221.235 1.671-2.763.388.339 2.414 2.677-.376.222 1.578-2.677.376.339 2.414 3.195-.449.234 1.671-20.376 2.864-.234-1.671 3.626-.509-.339-2.414-2.766.387zm-.403-29.211l.261 1.856 11.052-1.553-.261-1.856-11.052 1.553zm10.293 35.679c-.961 3.606-3.495 6.455-7.604 8.547-.49-.563-.941-1.067-1.356-1.513.057-.008.139-.052.246-.129 2.023-1.042 3.349-1.858 3.97-2.451l-2.333-1.566.966-1.271c.313.145.893.506 1.736 1.081.389.262.679.442.868.541.651-.786 1.208-1.841 1.668-3.169l-4.317.607c-.724 1.112-1.581 2.116-2.569 3.012-.622-.67-1.01-1.12-1.158-1.352 1.618-1.426 2.82-3.109 3.604-5.051l1.854.023c-.081.264-.211.598-.389 1.001-.138.272-.228.475-.268.606l4.835-.68.247 1.764zm-2.343 36.609l-1.749-12.44c-.518 1.336-1.071 2.612-1.662 3.832-.312-.965-.649-1.897-1.009-2.793 1.588-3.314 2.631-6.964 3.127-10.948l2.15.266c-.333 1.814-.727 3.605-1.183 5.373l2.31 16.432-1.984.278zm-3.618-47.7l.34 2.414 2.244-.315-.339-2.414-2.245.315zm.562 3.992l.339 2.414 2.245-.316-.34-2.414-2.244.316zm3.324-4.538l.339 2.414 2.331-.328-.339-2.414-2.331.328zm.56 3.992l.34 2.414 2.331-.328-.341-2.414-2.33.328zm14.678 29.294c-2.958-1.414-5.393-3.281-7.302-5.601-1.257 2.765-3.159 5.305-5.709 7.619-.441-.632-.903-1.199-1.385-1.699 2.869-2.548 4.86-5.511 5.972-8.886l2.283-.037c-.04.133-.104.299-.192.501l-.182.593c1.901 2.258 4.322 4.031 7.264 5.322l-.749 2.188zm-12.386-21.759l-.235-1.671 4.316-.606-.234-1.671 1.812-.255.235 1.671 3.626-.51.234 1.671-3.626.509.364 2.6 3.8-.534.222 1.578-3.799.534.404 2.878-1.812.255-.404-2.878-4.835.68.208-3.532 1.728-.243-.085 1.905 2.764-.388-.365-2.6-4.318.607zm5.768 34.808c-2.18.368-3.396-.564-3.651-2.801l-1.305-9.284 1.986-.279.6 4.271c2.425-1.539 4.482-3.186 6.174-4.938l1.443 1.501c-2.165 2.136-4.604 3.993-7.317 5.573l.34 2.414c.059 1.255.774 1.752 2.147 1.497l3.28-.461c1.15-.162 1.71-.776 1.678-1.845.005-.379-.009-1.103-.041-2.172-.013-.502-.007-.882.017-1.138.727.151 1.39.278 1.99.383.047.751.063 1.695.046 2.833.003.442-.012.759-.042.953-.119 1.657-1.158 2.625-3.113 2.899l-4.232.594zm-4.648-46.893l.34 2.414 2.331-.328-.34-2.414-2.331.328zm.56 3.992l.34 2.414 2.331-.328-.34-2.414-2.331.328zm12.181-23.598c-1.36 2.842-2.723 5.274-4.082 7.295-.265-.216-.814-.581-1.649-1.094l-.198-.161c1.287-1.696 2.637-3.999 4.047-6.912l1.882.872zm-5.52-1.686l-.313-10.37c4.72-.663 9.947-1.682 15.684-3.056l.892 1.958c-5.744 1.313-10.54 2.271-14.388 2.874l.098 6.33 5.957-.837-.665-4.735 2.158-.303.665 4.735 7.942-1.116.274 1.949-7.943 1.117.939 6.684c.41 2.087-.392 3.274-2.405 3.557-.566.142-1.541.311-2.923.505l-.758-2.26c.756-.044 1.653-.138 2.688-.284.986-.076 1.377-.634 1.174-1.679l-.874-6.22-8.202 1.151zm5.262 21.813c-1.223-1.594-2.314-2.893-3.276-3.894l1.583-1.264c.415.448.972 1.063 1.668 1.849.765.839 1.324 1.487 1.683 1.941l-1.658 1.368zm1.606 13.312c-.732 1.05-1.421 2.219-2.061 3.508l-1.276-2.188c.351-.428.845-1.096 1.479-2.006l.659-.945-.991-7.056-2.332.328-.3-2.135 4.316-.607 1.291 9.191c1.146 1.481 2.758 2.074 4.829 1.783 5.237-.736 9.234-1.329 11.988-1.779-.135.713-.24 1.421-.317 2.127l-7.512 1.056c-1.843.259-3.285.429-4.33.514-2.488.223-4.305-.374-5.443-1.791zm1.855 31.943l-2.558-18.196 2.331-.328c.021-.255.061-.608.115-1.058.135-.713.21-1.639.227-2.777l2.211.068c-.133 1.155-.291 2.313-.48 3.476l3.887-.546 2.53 18.011-1.898.267-.248-1.764-4.403.619.273 1.95-1.987.278zm-.946-47.407l-.286-2.042 13.9-1.954.287 2.042-5.612.789c-.376 1.505-.802 2.858-1.277 4.061l1.122-.158 1.514 10.77-2.072.291-1.305-9.284c-1.076 2.361-2.633 4.663-4.664 6.904-.134-.107-.374-.357-.722-.75-.406-.384-.709-.658-.908-.819 3.08-3.146 5.132-6.716 6.155-10.711l-6.132.861zm.662 30.975l.718 5.106 4.402-.619-.717-5.106-4.403.619zm1.004 7.148l.744 5.292 4.403-.619-.744-5.292-4.403.619zm9.423-51.347c-2.246-2.208-4.218-4.108-5.907-5.702l1.472-1.438c.472.44 1.151 1.102 2.039 1.985 1.881 1.693 3.225 2.893 4.028 3.6l-1.632 1.555zm5.113 58.298l-3.626.509c-.153-.673-.403-1.396-.745-2.167.756-.044 1.883-.17 3.38-.38 1.63-.103 2.326-.989 2.093-2.661-.076-1.376-.399-4.299-.969-8.763-.126-1.308-.227-2.24-.305-2.797l-5.181.728c-.152.589-.413 1.447-.783 2.571l-.361 1.187c-.569-.299-1.197-.589-1.884-.872 1.008-2.854 1.689-5.728 2.047-8.619l2.051.185c-.062.388-.161.938-.296 1.651l-.282 1.744 6.389-.898c.558 3.961 1.094 8.62 1.612 13.974.371 2.662-.674 4.198-3.14 4.608zm-1.811-36.02c-1.294-1.269-3.077-2.881-5.347-4.834l1.285-1.506c2.318 1.884 4.116 3.398 5.394 4.544l-1.332 1.796zm-.73 29.845c-.35-.392-.872-.981-1.567-1.768-.99-1.187-1.763-2.087-2.317-2.704l1.397-1.333c.488.563 1.215 1.344 2.179 2.345.821.832 1.442 1.501 1.867 2.01l-1.559 1.45zm6.136-52.782c-1.869.073-3.058-.864-3.564-2.813-.123-2.127.752-3.419 2.625-3.872 1.982-.089 3.209.907 3.678 2.986.105 2.005-.809 3.238-2.739 3.699zm-2.5 21.013l-.248-1.764 20.462-2.876.248 1.764-8.979 1.262.313 2.229 7.425-1.044.248 1.764-7.425 1.043.325 2.321c2.992-.42 6.044-.849 9.151-1.286-.077.705-.158 1.379-.244 2.022-3.971.558-6.883.935-8.731 1.133-3.454.485-5.934-.24-7.438-2.174-.385 1.442-1.369 3-2.953 4.675l-1.43-1.408c2.142-1.878 3.115-4.351 2.919-7.416l1.938.011c-.021.256-.027.636-.016 1.139-.055.45-.068.767-.042.953 1.189 1.79 2.81 2.667 4.859 2.63l-.888-6.313-9.494 1.335zm1.757-26.305c-1.077.278-1.586 1.044-1.526 2.297.263 1.037.949 1.538 2.062 1.509 1.134-.286 1.684-.961 1.651-2.031-.29-1.22-1.019-1.812-2.187-1.775zm.424 22.4l-1.228-8.727 15.022-2.111 1.227 8.727-15.021 2.111zm1.007-7.241l.261 1.856 10.965-1.541-.261-1.856-10.965 1.541zm.47 3.342l.274 1.949 10.965-1.541-.274-1.95-10.965 1.542zm3.172 29.484c.619 3.574.321 6.676-.894 9.309-.133-.107-.455-.315-.968-.622-.314-.145-.537-.271-.669-.379 1.019-2.352 1.258-5.036.717-8.053l-.574-4.085 10.533-1.48-.184-1.3c-.145-.61-.241-1.102-.295-1.473l1.813-.255c.043.311.137.771.282 1.38.087.62.181 1.08.28 1.38l2.765-.388c-.274-.276-.739-.653-1.393-1.13l-.497-.403 1.078-1.099c.065.055.194.131.386.23.908.629 1.533 1.109 1.875 1.44l-.847.876 2.765-.388.233 1.671-6.044.85c.486 2.204 1.021 3.927 1.607 5.17.736-1.429 1.344-2.965 1.816-4.61l1.686.71c-.701 2.119-1.519 4.033-2.451 5.741.617 1.049 1.213 1.534 1.789 1.453.519-.073.79-.426.819-1.062.119-.396.192-1.13.218-2.208.04-.131.057-.228.048-.291.553.175 1.101.318 1.646.432-.043.953-.123 1.848-.238 2.684-.263 1.489-.968 2.313-2.118 2.475-1.208.17-2.32-.431-3.335-1.803-.604.716-1.314 1.51-2.13 2.382-.084-.177-.301-.462-.648-.855-.207-.222-.35-.392-.424-.508l.039.278-6.477.91-.718-5.106 6.477-.91.64 4.549c.815-.872 1.522-1.696 2.117-2.475-.886-1.705-1.61-3.939-2.174-6.7l-8.895 1.25.344 2.413zm1.244 9.482c-.367 1.566-.869 3.215-1.506 4.945l-1.845-.593c.614-1.474 1.125-3.061 1.532-4.76l1.819.408zm-.389-9.034l-.209-1.485 7.252-1.02.209 1.485-7.252 1.02zm5.203 13.848c-1.892.328-2.946-.501-3.167-2.49l-.443-3.157 1.899-.267.378 2.692c.041 1.13.687 1.544 1.936 1.243l3.281-.461c1.273-.117 1.912-.585 1.915-1.405-.008-.061.003-.189.034-.383s.039-.763.023-1.708l1.918.488c.015.945-.032 1.646-.145 2.103-.129 1.595-1.09 2.487-2.882 2.677l-4.747.668zm-2.714-11.168l.312 2.228 3.194-.449-.313-2.228-3.193.449zm5.206 7.599c-.83-.892-1.689-1.782-2.576-2.667l1.324-1.228c.396.323.965.812 1.702 1.465.415.448.756.779 1.021.993l-1.471 1.437zm2.913-73.906l-.287-2.042 17.268-2.427.287 2.042-7.771 1.092c.137 1.813.225 3.472.261 4.981l9.756-1.372.287 2.042-10.188 1.432c-.168 5.074-2.585 9.39-7.249 12.947l-1.716-1.558c4.345-3.324 6.614-7.02 6.806-11.086l-8.028 1.128-.287-2.042 8.461-1.189c-.035-1.51-.123-3.169-.26-4.981l-7.34 1.033zm2.917 30.183l-.262-1.856 2.85-.4-.443-3.157 1.899-.267.442 3.156 2.245-.315.261 1.857-2.243.315.403 2.878c.779-.299 1.502-.59 2.166-.873l.274 1.95-2.167.872.443 3.157c.31 1.788-.308 2.821-1.854 3.101l-2.158.303-.04-.278c-.109-.363-.303-.904-.58-1.623.411.006.991-.044 1.74-.15.747-.105 1.065-.56.953-1.365l-.34-2.414c-.953.323-1.926.713-2.917 1.167l-.634-1.994c.395-.117.952-.323 1.676-.614.729-.229 1.265-.398 1.602-.509l-.47-3.342-2.846.401zm2.832 44.588c-.282-.339-.77-.872-1.456-1.594-.648-.855-1.181-1.506-1.596-1.953l1.424-1.147c1.526 1.679 2.567 2.827 3.125 3.442l-1.497 1.252zm2.629-32.669c-.271 1.427-.682 3.092-1.234 5.001l-2.077-.371c.5-1.459.947-3.068 1.347-4.828l1.964.198zm-.984 18.715l-.639-4.549 8.979-1.262c-.168-.355-.414-.856-.739-1.505-.226-.347-.38-.609-.463-.787l2.278-.699c.477.879.895 1.768 1.255 2.664l8.116-1.141.64 4.549-1.985.279-.393-2.785-15.454 2.172.393 2.785-1.988.279zm7.125-44.586c-2.18.369-3.396-.564-3.651-2.8l-1.043-7.427 2.071-.291.979 6.963c.059 1.255.744 1.756 2.062 1.509l2.072-.292c1.209-.17 1.763-.816 1.664-1.938.005-.379-.024-1.005-.088-1.881-.005-.44-.019-.755-.044-.94l.815.169c.305.084.758.178 1.36.282.035 1.51.044 2.614.023 3.31-.054 1.711-1.062 2.673-3.027 2.887l-3.193.449zm-2.421 59.262l-2.205-15.689 14.073-1.978.86 6.127-12.088 1.699.301 2.135 12.95-1.82 1.031 7.334-1.986.279-.155-1.114-10.966 1.541.169 1.207-1.984.279zm5.609-39.057l-2.579-1.437c-.611 1.917-1.677 3.738-3.194 5.466l-1.689-1.372c1.594-1.611 2.65-3.275 3.174-4.99-.323-.206-.827-.452-1.513-.734-.446-.252-.765-.428-.955-.528l.729-1.712 2.068.94c.125-.775.112-1.909-.037-3.403l-2.592.364-.272-1.95 2.59-.364c-.039-.688-.153-1.713-.345-3.076l1.898-.267c.157 1.114.271 2.139.346 3.076l4.661-.655c.534 4.218 1.026 7.304 1.479 9.259.295.843.619 1.271.973 1.283.287-.04.44-.408.461-1.106l-.052-.371c-.021-.565-.027-1.448-.021-2.648.182.038.424.099.729.181.362.076.604.137.729.182-.016.318-.008.791.021 1.417.053.372.059 1.034.017 1.986-.09 1.465-.676 2.305-1.76 2.519-1.398.071-2.357-.899-2.874-2.91-.407-1.646-.851-4.171-1.329-7.576l-2.85.4c.235 1.671.241 3.185.022 4.542l2.938 1.48-.773 2.004zm-5.534 9.487c-.577-1.182-1.2-2.482-1.869-3.903l1.748-.719c.232.409.521 1 .865 1.771.531.872.93 1.604 1.188 2.2l-1.932.651zm-.047 15.365l.364 2.6 10.104-1.419-.366-2.6-10.102 1.419zm12.127 6.721l-10.967 1.541.405 2.878 10.965-1.541-.403-2.878zm-6.667-23.036c-.652-1.297-1.362-2.585-2.128-3.866l1.834-.731c.157.294.392.703.7 1.227.666.98 1.165 1.824 1.5 2.535l-1.906.835zm5.884-.732c-.691-1.166-1.621-2.549-2.784-4.153l1.734-.812c1.129 1.356 2.105 2.67 2.932 3.943l-1.882 1.022zm2.849-29.86c-.255.287-.43.501-.525.642l-1.543-1.582c.457-.506.6-1.157.43-1.954l-1.188-8.448-2.331.328-.273-1.95 4.316-.607 1.461 10.398c.312-.295.772-.771 1.386-1.425.457-.505.787-.868.992-1.086.116.426.315.997.593 1.715.083.178.13.298.139.359-.155.149-.413.406-.771.771-.99.896-1.709 1.627-2.157 2.196-.102.14-.277.354-.529.643zm-1.787-15.843c-1.387-1.509-2.552-2.702-3.496-3.579l1.472-1.438c.671.601 1.621 1.509 2.848 2.724.349.394.623.67.821.832l-1.645 1.461zm3.318 45.565l-2.389-16.989 1.899-.267 2.388 16.989-1.898.267zm.815-18.007c-.896-.947-1.944-1.935-3.146-2.966l1.471-1.438c1.193.969 2.232 1.896 3.12 2.781l-1.445 1.623zm13.15-27.999c-.241.791-.49 1.521-.749 2.188-2.892-1.36-5.354-3.224-7.389-5.589-1.256 2.765-3.159 5.305-5.709 7.619-.44-.632-.907-1.229-1.396-1.792 2.994-2.504 5.021-5.407 6.083-8.713l2.271-.13c-.09.202-.194.5-.314.896-.106.079-.154.149-.146.21 1.975 2.374 4.425 4.145 7.349 5.311zm-13.26 56.62l-.248-1.764 9.411-1.322c-.084-.178-.214-.475-.391-.892-.251-.533-.451-.915-.602-1.146l2.206-.594 1.03 2.316 8.893-1.25.248 1.764-20.547 2.888zm7.647-13.208l-1.188-8.448-2.937.413.9 6.406-1.641.23-1.148-8.17 4.576-.643-.326-2.321-5.438.765-.234-1.671 5.784-.813c-.449-.694-.896-1.356-1.336-1.99l1.834-.731c.366.517.887 1.295 1.562 2.337l-.073.105 4.922-.692.234 1.671-5.438.764.325 2.321 4.576-.643.81 5.756c.266 1.478-.205 2.301-1.414 2.471l-1.641.23-.025-.186c-.128-.487-.316-.997-.567-1.53l1.209-.17c.643-.027.885-.376.732-1.05l-.495-3.528-2.937.413 1.188 8.448-1.814.256zm-1.656-28.095c-2.181.368-3.396-.564-3.651-2.801l-1.291-9.191 2.072-.291.587 4.178c2.425-1.539 4.425-3.178 6.001-4.914l1.442 1.501c-2.116 2.065-4.499 3.915-7.145 5.548l.353 2.506c.059 1.255.74 1.726 2.049 1.417l3.107-.437c1.217-.109 1.805-.727 1.764-1.857.006-.379 0-1.042-.015-1.986-.013-.502-.012-.913.003-1.231.238.03.568.078.989.145.485.121.82.201 1.002.238.019 1.386.016 2.618-.01 3.693-.119 1.657-1.158 2.625-3.114 2.899l-4.143.583zm-4.233 55.067l-.248-1.764 9.757-1.371-.104-.743 4.439-2.233-12.604 1.771-.234-1.671 16.317-2.293.248 1.764-5.903 3.102 8.895-1.25.248 1.764-8.979 1.262.208 1.485c.301 1.724-.465 2.748-2.298 3.069l-3.453.485-.039-.279c-.11-.363-.299-.874-.567-1.529.347-.049.839-.087 1.48-.114l1.468-.206c1.045-.085 1.478-.555 1.299-1.414l-.17-1.207-9.76 1.372zm13.803-27.043c-.51.133-1.427.295-2.75.481-.229-.789-.497-1.445-.805-1.97l2.417-.34c1.159-.101 1.641-.64 1.444-1.623l-2.152-15.318-10.706 1.504-.261-1.857 12.604-1.771 2.479 17.639c.327 1.911-.429 2.997-2.27 3.255zm-11.985 19.309l-.691-4.92 14.938-2.1.691 4.92-14.938 2.1zm1.517-3.622l.261 1.857 11.053-1.553-.262-1.857-11.052 1.553zm10.354-53.469l-.248-1.764 20.462-2.876.248 1.764-8.979 1.262.313 2.228 7.425-1.043.248 1.764-7.425 1.044.325 2.321 9.151-1.286c-.076.705-.158 1.378-.244 2.022-3.971.558-6.883.935-8.731 1.132-3.454.485-5.935-.24-7.438-2.173-.385 1.441-1.369 3-2.953 4.675l-1.43-1.409c2.142-1.878 3.115-4.35 2.919-7.416l1.938.012c-.021.256-.027.636-.016 1.138-.055.45-.068.767-.042.953 1.189 1.79 2.81 2.667 4.859 2.63l-.888-6.313-9.494 1.335zm2.181-3.904l-1.228-8.727 15.022-2.111 1.227 8.727-15.021 2.111zm.923 24.697l-.287-2.042 6.216-.874-.47-3.342 2.072-.292 3.104 22.096-2.071.291-.641-4.549-6.562.922-.287-2.042 6.562-.922-.587-4.178-5.871.825-.272-1.95 5.871-.825-.562-3.992-6.215.874zm.084-31.939l.261 1.857 10.967-1.541-.263-1.857-10.965 1.541zm.47 3.343l.274 1.95 10.965-1.541-.273-1.95-10.966 1.541zm21.94 51.49c-5.022 1.021-10.921 2.072-17.694 3.149-.009-.061-.056-.181-.139-.359-.153-.672-.31-1.155-.468-1.449 6.101-.857 11.971-1.903 17.607-3.137l.694 1.796zm-17.431 11.917l-.626-4.456 3.712-.522c-.084-.177-.233-.408-.449-.694-.433-.569-1.003-1.279-1.708-2.126l1.921-.743c.074.117.253.343.536.682.723.973 1.229 1.659 1.521 2.059l-1.562.787 9.238-1.298c.673-1.482 1.231-2.919 1.685-4.308l2.077.371c-.082.264-.259.668-.534 1.211-.138.272-.466 1.076-.982 2.41l4.146-.583.626 4.457-1.985.279-.364-2.599-15.541 2.184.364 2.6-2.075.289zm20.736 7.216c-.04.132-.056.229-.047.291-4.348-.021-7.602-.416-9.763-1.184-2.205 1.446-5.211 2.815-9.021 4.108-.16-.294-.422-.698-.787-1.215-.217-.286-.366-.517-.449-.694 3.721-1.091 6.421-2.133 8.102-3.126-1.777-.949-3.418-2.391-4.923-4.326l-1.295.182-.248-1.764 14.246-2.002.261 1.857c-.988 2.16-2.283 4.013-3.884 5.563 1.648.463 4.452.572 8.41.333-.129.332-.33.992-.602 1.977zm-11.795-26.955l-3.104-22.095 2.071-.291.471 3.342 6.216-.874.287 2.042-6.216.874.561 3.992 5.958-.837.273 1.95-5.957.837.587 4.178 6.647-.935.287 2.042-6.647.934.64 4.549-2.074.292zm1.672 23.833c1.579-1.294 2.834-2.796 3.77-4.506l-8.202 1.152c1.401 1.635 2.879 2.753 4.432 3.354zm-1.854-10.058c-.562-1.058-1.141-2.048-1.739-2.975l1.921-.743c.59.864 1.143 1.86 1.652 2.986l-1.834.732zm4.587-61.368l-.234-1.671 5.525-.776c-.216-.285-.627-.701-1.231-1.247-.54-.492-.912-.85-1.119-1.073l1.907-.836c.074.117.24.25.497.404 1.011.932 1.69 1.594 2.04 1.985l-1.229.646 4.922-.691c.893-1.577 1.492-2.734 1.801-3.472l2.163.359c-.138.272-.395.75-.768 1.433-.383.622-.642 1.069-.779 1.34l5.354-.752.234 1.671-8.548 1.202.287 2.042 7.512-1.056.248 1.764-7.512 1.056.286 2.042 9.065-1.274.235 1.671-20.203 2.839-.235-1.671 9.065-1.274-.287-2.042-7.339 1.032-.247-1.764 7.339-1.031-.287-2.042-8.462 1.186zm1.372 11.642l-.248-1.764 8.634-1.213c.031-.194.026-.444-.018-.755.013-.317.008-.569-.02-.755l2.072-.291c.07.496.082.999.036 1.51l8.894-1.25.247 1.764-8.374 1.177c1.282 2.03 4.42 2.849 9.414 2.464-.129.333-.271.795-.421 1.384-.13.333-.211.598-.241.792-5.056-.047-8.373-1.096-9.951-3.146-.73 2.312-3.672 4.365-8.817 6.163-.085-.178-.276-.498-.575-.96l-.675-1.042c5.102-1.285 7.851-3.028 8.245-5.229l-8.202 1.151zm8.146 21.022c1.047 5.786.229 10.192-2.456 13.221-.465-.377-1.045-.958-1.741-1.743 1.306-1.571 2.078-3.164 2.321-4.776.262-1.488.169-3.811-.273-6.967l-1.097-7.798 12.001-1.687 2.35 16.71c.099 1.123.542 1.566 1.331 1.328l.604-.085c.813-.051 1.213-.549 1.198-1.494.046-.511.017-1.548-.085-3.112l-.065-.464c.727.151 1.39.278 1.991.383.124 1.308.158 2.597.104 3.867.004 1.704-.861 2.645-2.598 2.827l-1.382.194c-1.891.328-2.955-.563-3.192-2.675l-2.113-15.04-7.771 1.092.873 6.219zm5.487 3.962c-1.104-1.17-2.576-2.667-4.417-4.491l1.371-1.518c.074.117.212.254.411.416 1.947 1.747 3.302 3.039 4.065 3.878l-1.43 1.715zm.113 36.549c-1.869.073-3.058-.865-3.564-2.813-.123-2.127.752-3.419 2.625-3.872 1.982-.089 3.209.907 3.678 2.986.105 2.005-.809 3.238-2.739 3.699zm-.743-5.292c-1.077.278-1.586 1.044-1.526 2.297.264 1.037.949 1.538 2.062 1.509 1.134-.287 1.684-.961 1.651-2.031-.29-1.221-1.019-1.812-2.187-1.775zm7.361-71.698l-.301-2.135 19.857-2.791.301 2.135-7.685 1.08c-.646 1.669-1.362 3.253-2.149 4.751l1.468-.206 1.957 13.926-2.244.315-1.813-12.904c-1.707 2.891-4.007 5.739-6.899 8.543-.065-.053-.17-.165-.311-.335-.632-.73-1.08-1.205-1.345-1.42 4.374-3.959 7.289-8.061 8.748-12.306l-9.584 1.347zm6.708 46.509l-2.559-18.196 2.331-.328c.022-.254.062-.607.116-1.058.134-.712.21-1.639.226-2.777l2.211.068c-.133 1.154-.291 2.313-.479 3.476l3.886-.546 2.531 18.01-1.899.267-.248-1.764-4.402.619.272 1.949-1.986.28zm-.284-16.433l.718 5.106 4.402-.619-.718-5.106-4.402.619zm1.004 7.149l.744 5.292 4.402-.619-.743-5.292-4.403.619zm12.944-27.591c-3.103-2.026-5.638-3.563-7.604-4.612l1.16-1.772c.57.299 1.43.778 2.579 1.437l5.157 2.873-1.292 2.074zm1.592 34.542l-3.626.51c-.154-.674-.403-1.396-.745-2.167.756-.044 1.883-.17 3.38-.38 1.629-.103 2.326-.99 2.092-2.661-.076-1.377-.398-4.299-.968-8.763-.126-1.308-.228-2.24-.305-2.797l-5.182.728c-.151.589-.413 1.447-.783 2.572l-.36 1.187c-.57-.298-1.198-.589-1.884-.871 1.008-2.854 1.688-5.729 2.047-8.619l2.051.185c-.063.388-.162.938-.296 1.651l-.283 1.744 6.389-.898c.559 3.961 1.095 8.62 1.612 13.974.374 2.658-.673 4.194-3.139 4.605zm-2.541-6.176c-.351-.392-.872-.981-1.568-1.768-.99-1.186-1.762-2.086-2.317-2.704l1.397-1.333c.489.563 1.215 1.344 2.179 2.345.821.831 1.443 1.501 1.867 2.01l-1.558 1.45z"/></svg>