<svg xmlns="http://www.w3.org/2000/svg" width="640" height="584" viewBox="0 0 640 584"><path fill="#EDAF37" d="M-.5 120.434l640-90.857v144.989l-640 90.858z"/><path fill="#FFE6A6" d="M639 30.153v143.979l-639 90.716v-143.98l639-90.715m1-1.152l-641 90.999v146l641-91v-145.999z"/><g fill="#FAAF32"><path d="M502.637 49.754l-51.612 150.962 188.975-27.091v-143.366zM0 121.5l99.825-14.492 108.706 128.388-208.531 29.375z"/></g><path fill="#fff" d="M57.931 153.438c-.795-.646-2.065-1.54-3.811-2.684l1.086-1.667c1.711.896 3.029 1.72 3.958 2.473l-1.233 1.878zm.214-5.994c-1.251-.96-2.583-1.876-3.997-2.751l1.172-1.68c1.149.659 2.472 1.515 3.971 2.566l-1.146 1.865zm1.632 8.48c-.616 3.558-1.06 6.459-1.33 8.708l-2.189-.544c.421-2.015.893-4.921 1.416-8.72.247.093.614.198 1.101.319.419.068.754.146 1.002.237zm-1.178 27.351l-.339-2.414 20.98-2.948.339 2.414-20.98 2.948zm5.441-38.364c.521 2.452-.366 4.501-2.658 6.148-.481-.5-1.02-.993-1.616-1.477 1.999-1.228 2.769-2.851 2.309-4.869l-.287-2.042 9.152-1.287.561 3.992c.055.813.511 1.128 1.365.944l1.899-.267.028 2.079-2.417.34c-1.612.227-2.53-.464-2.757-2.074l-.391-2.785-5.267.74.079.558zm12.571 14.896c-.241.792-.491 1.52-.749 2.188-2.876-.417-5.281-1.025-7.212-1.826-1.62 1.426-3.861 2.814-6.723 4.164-.384-.641-.825-1.273-1.323-1.897 2.879-1.224 4.92-2.363 6.123-3.417-1.648-1.283-3.185-3.023-4.608-5.222l.319-.234-1.123.158-.274-1.949 12.347-1.735.3 2.135c-.936 2.531-2.102 4.683-3.495 6.456 1.742.7 3.882 1.095 6.418 1.179zm-11.213 53.021l-1.67-11.883 15.973-2.245 1.67 11.883-15.973 2.245zm6.31 1.669c-1.808 2.59-3.811 5.047-6.007 7.377l-.894-.727c-.407-.385-.709-.658-.908-.819 2.174-2.072 4.16-4.434 5.959-7.086l1.85 1.255zm-3.337-56.94c1.225-1.308 2.24-3.06 3.047-5.256l-7.252 1.019c1.256 1.844 2.658 3.256 4.205 4.237zm-2.284 45.139l1.083 7.706 11.742-1.65-1.083-7.705-11.742 1.649zm17.041 16.634c-2.294-1.698-4.863-3.482-7.708-5.354l1.345-1.704c.454.315 1.104.761 1.949 1.336 2.655 1.773 4.624 3.042 5.906 3.809l-1.492 1.913zm-6.053-75.021l-.287-2.042 6.562-.922c.039-.131.091-.392.154-.779.177-.403.371-1.125.577-2.164l2.284-.037c-.215.977-.443 1.861-.684 2.652l11.224-1.578.287 2.042-12.26 1.723c-.041.133-.125.365-.254.698-.129.335-.396.94-.801 1.817l11.396-1.602 1.683 11.976c.376 1.84-.443 2.902-2.458 3.186l-3.367.473c-.203-.603-.438-1.233-.706-1.889l3.022-.424c1.168-.039 1.621-.576 1.358-1.611l-.169-1.207-10.274 1.444.691 4.92-2.072.291-1.54-10.955c-.765 1.243-1.653 2.442-2.665 3.593-.499-.624-.912-1.259-1.237-1.909 2.26-2.715 3.946-5.54 5.061-8.474l-5.525.778zm6.864 33.132c-.469 1.266-1.018 2.574-1.65 3.924-.11-.363-.298-.873-.567-1.53-.186-.479-.329-.868-.429-1.17 1.456-3.424 2.432-7.126 2.929-11.11l2.164.359c-.112.458-.251 1.14-.417 2.046-.288 1.304-.507 2.249-.658 2.838l2.388 16.989-1.986.279-1.774-12.625zm-.751-29.731l.339 2.414 10.274-1.444-.339-2.414-10.274 1.444zm.587 4.178l.339 2.414 10.274-1.444-.339-2.414-10.274 1.444zm1.346 47.182l-.195-1.393 17.526-2.463.196 1.393-7.771 1.092.209 1.486 8.807-1.238.613 4.363-1.899.267-.405-2.878-6.907.971.705 5.013-1.986.279-.705-5.013-6.82.958.404 2.878-1.899.267-.613-4.363 8.72-1.226-.209-1.485-7.771 1.092zm-.067 10.802l-.222-1.578 20.721-2.913.222 1.579-9.843 1.383-.27 1.836 8.807-1.237.652 4.642c.266 1.478-.373 2.355-1.918 2.637l-2.072.291c-.186-.48-.379-1.021-.58-1.623l1.554-.218c.872-.061 1.226-.457 1.065-1.191l-.378-2.692-3.54.498.704 5.013-1.727.243-.705-5.013-3.367.474.718 5.106-1.727.243-.717-5.106-3.368.474.783 5.57-1.986.279-1.005-7.148 6.821-.958.184-1.825-8.806 1.234zm2.188-36.492l-.287-2.042 6.389-.898c-.502-1.065-1.08-2.246-1.731-3.543l2.106-.675c.251.533.66 1.36 1.229 2.478.251.533.455.946.614 1.239l-.837.307 6.13-.861.287 2.042-13.9 1.953zm.881 30.759l-.157-1.114 4.403-.619.157 1.114-4.403.619zm.313 2.228l-.144-1.021 4.403-.619.144 1.021-4.403.619zm.401-17.875l-.261-1.856 7.425-1.044c.847-4.41 1.528-8.546 2.042-12.405l2.164.359c-.338 2.194-.914 5.399-1.73 9.615-.215.977-.35 1.691-.403 2.14l5.439-.765.261 1.857-14.937 2.099zm3.723-4.215c-.656-1.737-1.833-4.476-3.532-8.213-.177-.416-.307-.714-.39-.892l1.821-.824c1.699 3.737 3.03 6.738 3.995 9l-1.894.929zm4.283 18.637l-.157-1.114 4.403-.619.157 1.114-4.403.619zm.313 2.228l-.144-1.021 4.403-.619.144 1.021-4.403.619zm3.538-56.296l-.274-1.95 3.281-.461-.091-.65-1.044-7.427 4.403-.619c.054-.449.168-1.096.343-1.942.071-.325.127-.553.168-.686l2.284-.037-.723 2.374 7.943-1.116 1.135 8.077 2.936-.412.274 1.949-2.936.413.874 6.22c.353 2.095-.478 3.286-2.492 3.569-.971.199-2.059.384-3.268.554-.11-.363-.271-.877-.481-1.542-.093-.24-.181-.448-.264-.625l1.295-.182c.583-.02 1.049-.053 1.395-.101 1.332-.125 1.887-.77 1.665-1.938l-.796-5.663-10.36 1.456c.583 4.147.064 7.564-1.553 10.253l-1.936-1.243c1.505-2.23 2.007-5.141 1.502-8.731l-3.28.46zm3.694 20.608l-.248-1.764 3.367-.473-.405-2.878 1.813-.255.404 2.878 2.849-.4.248 1.764-2.849.4.352 2.506 1.209-.17c1.115-1.671 2.03-3.504 2.749-5.499l1.685.71c-.704 1.677-1.434 3.169-2.189 4.473l2.417-.339.248 1.764-3.972.558c-.578.902-1.246 1.785-2.005 2.648l5.094-.716 1.5 10.676-1.813.255-.183-1.3-5.094.716.183 1.299-1.813.255-1.122-7.984-1.484 1.345-.376-.799c-.242-.47-.434-.791-.575-.96 2.013-1.545 3.771-3.243 5.271-5.096l-5.526.776-.248-1.764 4.23-.595-.353-2.506-3.364.475zm1.306-23.867l.078.557 10.274-1.444-.861-6.127-10.274 1.444.783 5.57zm1.019 56.788l-.274-1.95 3.713-.522-.47-3.342c-.345.048-.889.157-1.627.323-.691.097-1.234.206-1.627.323-.035-.247-.141-.579-.316-.997-.119-.424-.22-.727-.303-.904 3.821-.789 6.611-1.402 8.37-1.839l.706 1.889c-1.085.216-2.194.467-3.328.752l.496 3.528 3.626-.51.274 1.95-3.626.509.431 3.064.573-.933c.264.216.657.508 1.18.875 1.108.791 1.928 1.402 2.458 1.832l-1.073 1.76-.994-.807c-.87-.761-1.533-1.299-1.988-1.614l1.292 9.191-1.899.267-1.396-9.934c-.502 2.281-1.342 4.449-2.52 6.508-.343-.771-.711-1.51-1.103-2.212 1.341-2.144 2.301-4.709 2.88-7.694l-3.455.487zm4.9-57.904c-1.242-.898-2.504-1.731-3.785-2.498l1-1.655c1.348.821 2.633 1.618 3.858 2.393l-1.073 1.76zm-3.128 32.833l.326 2.321 5.094-.716-.326-2.321-5.094.716zm4.203-24.558c-1.383-1.067-2.715-1.985-3.997-2.752l1.1-1.575c.702.407 1.927 1.182 3.672 2.324.19.101.318.177.385.23l-1.16 1.773zm-3.655 28.457l.326 2.321 5.094-.716-.326-2.321-5.094.716zm9.822 4.11l-2.949-20.981 7.425-1.043.287 2.042-1.245 6.802c2.018 1.42 3.147 3.188 3.386 5.299.414 2.531-.406 4.002-2.461 4.417l-1.985.279c-.093-.238-.203-.602-.33-1.089-.186-.479-.32-.807-.402-.985l1.813-.255c1.218-.107 1.697-.869 1.44-2.285-.209-1.485-1.35-3.124-3.42-4.916l1.206-7.081-3.54.498 2.675 19.032-1.9.266zm.179 28.3l-2.675-19.032 9.152-1.286 2.662 18.939-1.986.279-.274-1.949-5.267.74.287 2.042-1.899.267zm-.501-17.349l1.827 12.997 5.267-.74-1.827-12.998-5.267.741zm4.711-58.066l-.274-1.95 5.612-.789c.218-.535.483-1.361.796-2.479.112-.457.211-.787.301-.989l2.383.044c-.129.334-.294.831-.495 1.49-.25.73-.439 1.261-.568 1.594l11.224-1.577.274 1.949-12.26 1.723c-.775 2.002-1.568 3.881-2.377 5.636l5.353-.752-.561-3.992 2.072-.292.561 3.992 6.648-.934.274 1.949-6.648.935.509 3.621 8.547-1.201.274 1.95-8.547 1.201.613 4.363-2.072.291-.613-4.363-9.929 1.396-.274-1.95 9.929-1.396-.509-3.621-7.684 1.08-.287-2.042c.801-1.817 1.568-3.66 2.304-5.531l-4.576.644zm24.413 28.393c-.454.948-.762 1.685-.922 2.212-4.506-1.575-7.876-3.626-10.109-6.153-1.952 3.242-4.756 6.254-8.414 9.041l-1.483-1.78c4.119-2.851 7.066-6.105 8.841-9.763l2.457-.061-.5.828c2.481 2.618 5.857 4.51 10.13 5.676zm-19.311 9.814l-.287-2.042 19.599-2.754.287 2.042-10.447 1.468c-1.293 2.075-2.457 3.817-3.492 5.225 1.2-.231 3.407-.604 6.622-1.12 1.028-.207 1.8-.348 2.318-.42-.689-.723-1.489-1.4-2.398-2.03l1.298-1.413c.653.476 1.672 1.249 3.055 2.316 1.25.96 2.202 1.679 2.856 2.155l-1.444 1.623-1.504-1.303c-4.925.881-8.409 1.561-10.455 2.037-.173.024-.428.091-.764.202-.691.097-1.23.235-1.614.417l-1.323-1.897c.656-.344 1.204-.832 1.644-1.462.994-1.275 1.865-2.596 2.612-3.964l-6.563.92zm.548 20.87l-.6-4.271 9.238-1.299-1.289-2.28 2.192-.687c.45.694.892 1.548 1.328 2.559l-.16.117 8.202-1.153.601 4.271-1.986.279-.353-2.507-15.455 2.172.352 2.506-2.07.293zm3.118.887l-.235-1.671 13.814-1.941.235 1.671-5.525.777c-.155.149-.364.335-.625.561-.515.515-.932.889-1.251 1.123.936.815 1.67 1.659 2.205 2.53 2.105-1.305 4.049-2.714 5.833-4.228l1.271 1.526c-1.122.789-2.269 1.613-3.439 2.471 1.404 2.896 3.546 4.772 6.426 5.629-.333.553-.688 1.169-1.061 1.853-3.096-1.142-5.396-3.313-6.901-6.509-.107.079-.291.23-.552.457-.271.165-.483.321-.639.468.502 1.065.844 2.248 1.027 3.548.448 2.777-.445 4.354-2.681 4.731l-2.849.401-.416-1.078c-.11-.363-.208-.633-.29-.811.345-.048.81-.083 1.394-.102l1.123-.158c1.456-.079 2.033-.979 1.733-2.705-.078-.557-.182-1.078-.308-1.566-2.154 2.639-5.15 4.92-8.986 6.849-.318-.587-.697-1.196-1.138-1.828 3.833-1.547 6.976-3.821 9.431-6.816-.225-.347-.458-.755-.701-1.227-2.139 2.321-4.805 4.242-7.994 5.763-.084-.178-.272-.466-.563-.868-.225-.347-.408-.605-.549-.775 3.159-1.327 5.841-3.124 8.046-5.391-.084-.178-.263-.404-.536-.682l-.298-.242c-1.907 1.468-4.128 2.79-6.662 3.966-.093-.238-.281-.529-.563-.868-.233-.408-.421-.698-.562-.868 3.579-1.26 6.349-2.848 8.311-4.766l-5.525.776zm-.213-27.26l-.274-1.95 11.311-1.59.274 1.95-11.311 1.59zm26.79-36.821l-.274-1.949-5.612.789.274 1.95-1.986.279-.274-1.95-5.008.704-.261-1.857 5.007-.704-.3-2.135 1.986-.279.3 2.135 5.612-.789-.3-2.135 1.986-.279.3 2.136 5.094-.716.261 1.857-5.094.716.274 1.95-1.985.277zm-11.974 6.89l-.561-3.992 19.858-2.791.561 3.992-1.986.279-.3-2.135-15.887 2.232.3 2.135-1.985.28zm11.343 9.293l-.831-2.155c1.39-.133 2.746-.292 4.071-.478 1.447-.141 2.113-.833 1.997-2.08-.042-1.13-.154-2.345-.336-3.645l-6.562.922c.168 3.701-2.308 6.762-7.426 9.186-.3-.464-.737-1.065-1.31-1.804 4.39-1.753 6.611-4.115 6.664-7.09l-6.13.861-.261-1.857 6.389-.898c.01-.759-.045-1.57-.167-2.438l2.158-.303.081 2.45 8.461-1.189c.284 2.864.439 4.799.464 5.804.272 2.36-.916 3.726-3.563 4.098l-3.699.616zm-7.855 13.056l-.274-1.95 5.871-.825c.321-1.054.551-2.127.691-3.221l2.198-.025c-.112.458-.255 1.11-.43 1.954-.112.458-.184.783-.215.977l11.829-1.662.274 1.949-12.692 1.784c-.425 1.574-1.11 3.375-2.059 5.401l1.709 12.162-1.986.279-1.357-9.655c-.636.91-1.349 1.894-2.139 2.951-.384-.64-.8-1.308-1.25-2.001 2.242-2.839 3.854-5.78 4.835-8.821l-5.005.703zm22.748 41.027c-.56 1.026-.93 1.74-1.107 2.144-5.465-2.134-8.997-5.962-10.594-11.481-.033 5.623-2.416 10.375-7.153 14.259-.142-.169-.382-.419-.722-.75-.481-.5-.797-.867-.947-1.098 5.082-3.933 7.414-9.056 6.996-15.373-.085-1.439-.288-3.304-.61-5.595l2.245-.315.37 3.261c1.723 8.089 5.613 13.002 11.668 14.738l-.146.21zm-15.35-34.115l-.274-1.95 5.267-.74-.613-4.363 1.986-.279.613 4.364 5.267-.74.274 1.949-5.267.74.861 6.127 6.389-.898.261 1.857-14.677 2.063-.261-1.856 6.303-.886-.861-6.127-5.268.739zm10.61-39.194l-.248-1.764 3.799-.534-.339-2.414 1.813-.255.339 2.414 3.712-.521.248 1.764-3.712.522 1.161 8.263 1.727-.243-.874-6.22 1.468-.207 1.135 8.077-3.195.449.64 4.549c.319-.234.854-.594 1.609-1.079l1.596-1.171c.035.248.115.615.243 1.102l.144 1.021c-1.312.689-2.549 1.495-3.71 2.415-.049.069-.155.147-.319.234-.205.218-.384.4-.539.549l-1.271-1.525c.408-.436.535-.989.383-1.663l-.587-4.178-3.281.461-1.135-8.077 1.554-.218.874 6.22 1.727-.243-1.162-8.262-3.8.534zm4.052 57.79l-.248-1.764 4.058-.57-.365-2.6 1.899-.267.365 2.6 3.54-.498-.378-2.692 1.813-.255.378 2.692 3.626-.51-.366-2.599 1.899-.267.366 2.6 3.971-.559.248 1.764-3.972.558.339 2.414-1.899.267-.339-2.414-3.626.509.339 2.414-1.813.255-.339-2.414-3.54.498.339 2.414-1.899.267-.339-2.414-4.057.571zm3.74-29.324c-.323-.206-.812-.548-1.464-1.025-.92-.69-1.635-1.19-2.147-1.497l1-1.655c1.083.605 2.34 1.408 3.771 2.405l-1.16 1.772zm.257 6.213c-1.175-.844-2.376-1.654-3.599-2.429l.987-1.749c1.339.759 2.592 1.529 3.758 2.312l-1.146 1.866zm-2.237 30.627l-.587-4.178 19.513-2.742.587 4.178-1.986.279-.326-2.321-15.541 2.184.326 2.321-1.986.279zm3.803-27.628c-.38 3.146-.663 5.93-.851 8.355l-2.077-.371c.311-2.378.619-5.199.924-8.461.296.022.754.147 1.374.375.296.023.505.057.63.102zm-.557 35.692l-1.096-7.798 6.648-.934-.287-2.042 2.072-.291.287 2.042 6.734-.946.718 5.106c.292 1.663-.396 2.612-2.065 2.847-.453.125-1.282.275-2.491.444-.102-.302-.236-.629-.403-.984-.101-.301-.194-.541-.277-.719.527-.01 1.25-.081 2.171-.21.872-.059 1.218-.517 1.039-1.377l-.43-3.063-4.749.667 1.096 7.798-2.072.291-1.096-7.798-4.663.655.848 6.035-1.984.277zm2.25-43.693c-.188.343-.525.863-1.013 1.562l-.199-.161c-.49-.562-.929-.973-1.318-1.235 1.589-2.053 2.699-4.387 3.331-7l2.111-.013c-.193.722-.422 1.385-.689 1.99l10.533-1.48.248 1.764-11.483 1.614c-.299.799-.664 1.546-1.095 2.236l11.483-1.614c.003.442.105 1.375.305 2.797.107 1.185.209 2.117.305 2.797l1.986-.279.248 1.764-1.986.279c.07.496.14 1.211.214 2.147l.248 1.764 1.554-.218.248 1.764-1.641.23c.197 2.245-.801 3.488-2.997 3.735l-3.108.437-.376-.799c-.177-.417-.307-.714-.389-.892l3.021-.425c1.39-.133 2.04-.729 1.95-1.789l-10.792 1.517-.192-5.748-1.899.267-.248-1.764 2.072-.291-.226-5.365c-.049.071-.118.207-.206.409zm-1.488-32.478l-.261-1.856 10.534-1.48.261 1.857-4.403.619-.113 2.951 4.23-.594 1.526 10.862-1.727.243-1.279-9.098-5.785.813 1.292 9.191-1.64.23-1.54-10.955 3.022-.425.113-2.951-4.23.593zm12.012 17.815c-.663-.539-1.615-1.257-2.856-2.155l-1.888-1.534c-.589 1.661-1.901 3.392-3.937 5.192-.265-.216-.704-.627-1.318-1.235.415.446.315.366-.298-.242 3.392-2.181 4.715-5.08 3.972-8.7l-.548-3.899 1.813-.255.535 3.807c.183 1.3.228 2.462.138 3.483.587.423 1.464 1.025 2.631 1.808 1.29.829 2.262 1.481 2.917 1.957l-1.161 1.773zm-8.309 15.393l.116 3.959 8.375-1.177-.548-3.899-7.943 1.117zm9.115 8.47c-.047-.751-.201-2.055-.461-3.912l-8.547 1.201.203 3.948 8.805-1.237zm-4.116-5.481c-.397-.323-1.01-.71-1.836-1.162-.389-.261-.712-.468-.968-.622l.879-1.26c.57.299 1.396.75 2.479 1.356-.133-.107-.004-.031.385.23l-.939 1.458zm.636 5.78c-.323-.206-.777-.521-1.365-.944-.637-.352-1.116-.632-1.438-.839l.793-1.248c.76.399 1.719.958 2.877 1.678l-.867 1.353zm7.775 14.733l-.208-1.485 5.698-.801c-.415-.446-1.054-1.019-1.915-1.719l1.92-.743c.778.522 1.577 1.199 2.398 2.03l-.073.105 3.54-.498c.186-.341.446-.788.78-1.34.382-.622.643-1.068.78-1.34l2.137.173-1.28 2.168 5.439-.764.208 1.485-9.67 1.359c-.094.582-.197 1.102-.309 1.558l8.72-1.226.208 1.486-9.238 1.298c-.023.256-.094.581-.215.977l-.181.594 11.569-1.626.222 1.578-12.433 1.747c-.21.598-.457 1.138-.741 1.619l11.31-1.59 1.527 10.862-1.899.267-.157-1.114-10.447 1.468.157 1.114-1.899.267-1.044-7.427c-.849 1.066-1.811 2.148-2.889 3.246-.142-.169-.358-.454-.648-.855l-.636-.763c2.436-2.298 4.143-4.559 5.123-6.779l-5.526.777-.222-1.578 6.475-.91c.089-.202.19-.531.301-.989l.181-.593-5.525.776-.209-1.485 6.044-.849c.112-.457.215-.977.309-1.558l-7.682 1.078zm4.455-22.322c-1.499-1.051-2.879-1.898-4.143-2.542l1.159-1.772c.389.262.964.591 1.724.989 1.149.659 1.951 1.146 2.406 1.46l-1.146 1.865zm-.171-6.225c-.778-.521-1.907-1.247-3.387-2.175-.257-.153-.451-.283-.583-.391l.987-1.748c1.206.651 2.583 1.468 4.13 2.449l-1.147 1.865zm-.348-15.596c.305 2.166-.218 3.879-1.566 5.143l-.894-.727c.923-.951 1.299-2.234 1.131-3.851l-1.468.207-.431-3.064 2.849-.4.379 2.692zm2.205 24.424c-.292 1.683-.744 4.523-1.356 8.521l-2.103-.556c.546-2.79.999-5.631 1.355-8.522.057-.008.177.008.358.044.191.101.772.271 1.746.513zm.471-7.924l-.274-1.95 7.425-1.043c.177-.404.425-.943.741-1.619.582-1.28.974-2.251 1.176-2.911l2.09.464c-.178.404-.474 1.013-.887 1.829-.405.878-.726 1.522-.961 1.934l4.144-.583.274 1.95-5.957.837.47 3.342 5.094-.716.261 1.856-5.094.716.509 3.621 6.476-.91.274 1.95-6.476.91.744 5.292-2.072.292-.744-5.292-6.303.886-.274-1.95 6.303-.886-.509-3.621-5.007.704-.261-1.856 5.008-.704-.47-3.342-5.7.8zm-.093 35.815l.208 1.485 10.447-1.468-.209-1.485-10.446 1.468zm.392 2.785l.209 1.485 10.447-1.468-.208-1.485-10.448 1.468zm.391 2.785l.183 1.3 10.447-1.468-.183-1.3-10.447 1.468zm2.908-43.973c-.848-1.017-1.753-2.026-2.715-3.027l1.609-1.078c1.085 1.047 2.015 2.021 2.788 2.922l-1.682 1.183zm10.251-31.097l-.287-2.042 17.268-2.427.287 2.042-7.771 1.092c.137 1.812.224 3.471.26 4.981l9.756-1.371.287 2.042-10.188 1.432c-.167 5.074-2.584 9.39-7.249 12.948l-1.715-1.558c4.345-3.324 6.614-7.02 6.806-11.086l-8.03 1.128-.287-2.042 8.461-1.189c-.036-1.509-.124-3.168-.26-4.981l-7.338 1.031zm1.756 59.053l-.235-1.671 5.525-.777c-.216-.285-.626-.7-1.231-1.247-.54-.492-.912-.85-1.12-1.074l1.908-.836c.074.117.24.25.497.403 1.012.932 1.691 1.594 2.04 1.985l-1.23.646 4.921-.692c.893-1.576 1.494-2.733 1.801-3.472l2.164.358c-.138.272-.394.751-.767 1.434-.383.622-.642 1.069-.78 1.34l5.353-.752.235 1.671-8.547 1.202.287 2.042 7.511-1.056.248 1.764-7.512 1.056.287 2.042 9.066-1.274.235 1.671-20.204 2.839-.235-1.671 9.066-1.274-.287-2.042-7.339 1.032-.248-1.764 7.339-1.031-.287-2.042-8.461 1.19zm1.372 11.641l-.248-1.764 8.634-1.213c.03-.194.025-.445-.018-.755.013-.317.008-.569-.018-.755l2.072-.292c.069.496.081.999.036 1.51l8.893-1.25.248 1.764-8.375 1.177c1.283 2.029 4.42 2.849 9.415 2.463-.129.333-.271.795-.422 1.385-.129.333-.21.598-.241.792-5.056-.047-8.373-1.096-9.951-3.146-.731 2.312-3.672 4.365-8.819 6.163-.084-.178-.276-.499-.575-.961l-.674-1.041c5.102-1.285 7.851-3.028 8.245-5.23l-8.202 1.153zm.25-33.467l-.248-1.764 1.295-.182-1.109-7.891 2.158-.303c.013-.317.043-.731.089-1.243-.021-.565-.02-.975.003-1.231l1.912-.174-.278 2.406 3.021-.425 2.414 17.175c.274 1.539-.308 2.41-1.746 2.612-.337.109-.995.234-1.973.372-.018-.125-.106-.333-.264-.625-.136-.549-.255-.975-.355-1.276l.432-.061c.526-.012.928-.068 1.208-.17.814-.052 1.144-.414.992-1.086l-.992-7.056-3.626.51c.741 4.44.701 7.916-.119 10.431-.134-.109-.356-.234-.67-.379-.455-.315-.782-.553-.98-.714.7-2.118.742-5.153.129-9.106l-1.293.18zm1.827-8.304l.861 6.127 3.626-.509-.861-6.127-3.626.509zm2.332 4.69c-.411-.825-.932-1.824-1.566-2.999l1.204-.832c.158.294.359.676.601 1.146l1.051 1.84-1.29.845zm1.347 8.331c-.568-1.118-1.161-2.204-1.778-3.253l1.204-.832.713 1.32c.515.749.9 1.388 1.15 1.921l-1.289.844zm5.635-25.713c-2.179.368-3.396-.564-3.651-2.801l-1.044-7.427 2.072-.291.979 6.963c.058 1.255.745 1.756 2.061 1.509l2.072-.291c1.208-.17 1.763-.816 1.665-1.938.004-.379-.024-1.005-.088-1.881-.004-.44-.018-.755-.044-.94l.816.169c.305.084.758.177 1.36.282.036 1.51.044 2.613.025 3.31-.054 1.711-1.063 2.673-3.028 2.887l-3.195.449zm-2.816 13.199l-.274-1.949 4.489-.631c-.242-.47-.639-1.203-1.189-2.199-.168-.355-.289-.59-.363-.707l2.007-.755 1.705 3.358 4.23-.595.274 1.95-10.879 1.528zm4.281 6.025c.825 4.618.354 8.154-1.414 10.613-.199-.162-.493-.373-.882-.633-.389-.262-.683-.472-.881-.634.879-1.26 1.414-2.471 1.603-3.633.131-1.154.023-2.969-.325-5.445l-.496-3.528 6.734-.946 1.461 10.397c.07.496.363.707.881.634l.259-.037c.469-.003.685-.348.647-1.038.025-1.076-.072-2.388-.289-3.936.247.093.581.171 1.002.238.238.03.419.068.544.113.186 1.741.262 3.12.229 4.133.027 1.447-.593 2.261-1.858 2.438l-.864.122c-1.373.255-2.14-.395-2.299-1.949l-1.252-8.913-3.022.425.222 1.579zm6.581-39.66l-.195-1.393 17.527-2.463.195 1.393-7.771 1.092.209 1.485 8.807-1.238.613 4.363-1.899.267-.405-2.878-6.907.971.705 5.013-1.986.279-.704-5.014-6.821.959.404 2.878-1.899.267-.613-4.363 8.72-1.226-.209-1.485-7.771 1.093zm-.067 10.801l-.222-1.578 20.721-2.912.222 1.578-9.843 1.383-.27 1.837 8.807-1.238.652 4.642c.266 1.478-.373 2.356-1.918 2.637l-2.072.291c-.186-.48-.379-1.021-.58-1.623l1.554-.218c.872-.061 1.226-.457 1.065-1.191l-.378-2.692-3.54.498.704 5.013-1.727.243-.705-5.013-3.367.473.718 5.106-1.727.243-.717-5.106-3.368.473.783 5.57-1.986.279-1.005-7.148 6.821-.958.184-1.825-8.806 1.236zm10.603 63.772c-.894-.504-1.903-1.215-3.029-2.13-.575 1.344-1.724 2.988-3.445 4.934-.596-.484-1.106-.98-1.53-1.489 1.503-1.41 2.607-2.954 3.311-4.631-.853-.638-2.024-1.451-3.513-2.441.223-2.176.365-4.501.429-6.971l-1.899.267-.274-1.95 2.159-.303c.051-.891.032-2.277-.056-4.158.031-.194.039-.352.021-.477l2.098-.105c.003.442-.016 1.138-.058 2.091.032 1.07.026 1.859-.019 2.37l3.799-.534.287 2.042c.229 4.133.021 7.255-.621 9.365 1.232.837 2.433 1.646 3.599 2.429l-1.259 1.691zm-7.534-69.505l-.157-1.114 4.403-.619.157 1.114-4.403.619zm6.431 21.359c-1.681 3.076-3.387 5.557-5.118 7.441-.534-.872-.946-1.508-1.237-1.909 1.877-2.094 3.364-4.259 4.458-6.496l1.897.964zm-6.118-19.131l-.144-1.021 4.403-.619.144 1.021-4.403.619zm3.718 31.491c-.676 1.042-1.388 2.026-2.139 2.952-.335-.71-.698-1.417-1.09-2.119 1.859-2.217 3.449-4.902 4.767-8.054l1.81.977c-.583 1.281-1.15 2.466-1.702 3.552l1.631 11.605-1.986.279-1.291-9.192zm-.487 30.572c.519-2.156.667-4.858.445-8.11l-2.245.315c-.072 2.41-.213 4.543-.421 6.402l2.221 1.393zm3.745-2.798l-.287-2.042 5.267-.74-.431-3.063 3.104-4.224-8.116 1.141-.287-2.042 10.62-1.493.313 2.228-3.458 4.841.326 2.321 4.749-.667.287 2.042-4.749.667.939 6.685c.335 1.972-.475 3.096-2.432 3.371l-2.763.388c-.009-.062-.056-.181-.139-.359-.229-.789-.431-1.392-.606-1.809.872-.06 1.71-.146 2.517-.259 1.045-.085 1.468-.616 1.272-1.599l-.861-6.127-5.265.74zm1.151-30.855l-.3-2.135 12.951-1.82.3 2.135-3.713.521 1.096 7.798c.37 2.22-.51 3.48-2.639 3.779-.971.198-2.089.388-3.354.566-.277-.718-.526-1.441-.745-2.167l1.295-.182c.756-.044 1.336-.093 1.74-.15 1.274-.117 1.8-.757 1.578-1.926l-1.044-7.427-7.165 1.008zm.144-7.12l-.3-2.135 10.792-1.517.3 2.135-10.792 1.517zm.136-24.743l-.157-1.114 4.403-.619.157 1.114-4.403.619zm.313 2.228l-.144-1.021 4.403-.619.144 1.021-4.403.619zm14.277 1.969c-.714.353-1.538.753-2.473 1.2-.309-.525-.65-1.076-1.025-1.655 3.579-1.26 5.503-2.603 5.773-4.03l-4.921.692-.001-5.018 4.921-.692-.248-1.764-5.784.813-.222-1.578 5.871-.825-.235-1.671 1.899-.267c.078.557.127 1.118.148 1.683l3.54-.498-.235-1.671 1.813-.255.235 1.671 5.094-.716.691 4.92-5.094.716.248 1.764 5.958-.837c.043.311.07.716.083 1.219l.144 1.021c.09 1.061-.436 1.703-1.578 1.926l-2.245.315c-.017-.123-.11-.363-.277-.718-.084-.178-.13-.297-.139-.359l1.727-.243c.518-.073.771-.36.759-.864l-.065-.464-4.145.583.287 2.042-1.813.255-.287-2.042-3.972.558c-.189 1.163-.779 2.192-1.767 3.088l11.483-1.614.77 5.478-1.986.279-.548-3.899-10.447 1.468.587 4.178-1.899.267-.625-4.456zm-.125 60.071c-.014.318-.038.573-.068.767-.678-.22-1.403-.371-2.177-.452.426-2.394.815-5.478 1.165-9.252l2.077.371c-.15 1.853-.483 4.707-.997 8.566zm17.146-54.227c-4.124-.935-7.231-1.54-9.323-1.814-.836 1.569-3.62 3.065-8.35 4.487-.269-.658-.653-1.297-1.15-1.921 6.212-1.315 8.913-3.397 8.102-6.251l2.072-.291c.055.813.015 1.576-.119 2.289 1.442.24 1.924.33 1.447.27 3.42.53 6.056.915 7.911 1.161l-.59 2.07zm-17.892-13.296l-.011 1.8 3.454-.485c.031-.194.021-.477-.031-.848.014-.317.008-.569-.018-.755l-.026-.186-3.368.474zm2.233 26.494l-.248-1.764 5.698-.801-.365-2.599 1.986-.279.365 2.6 5.008-.704.248 1.764-5.008.704.378 2.692 2.59-.364c1.837-1.962 3.441-4.112 4.816-6.452l1.81.977c-1.205 1.874-2.435 3.561-3.69 5.063l5.439-.765.261 1.857-7.771 1.092c-.972 1.021-2.068 1.995-3.287 2.923l8.461-1.189 1.527 10.862-1.986.279-.169-1.207-10.102 1.42.17 1.207-1.986.279-1.109-7.891c-.918.571-1.946 1.189-3.085 1.854-.353-.833-.679-1.481-.978-1.945 3.886-1.997 7.003-4.045 9.35-6.142l-9.67 1.359-.261-1.856 7.684-1.08-.378-2.692-5.698.798zm6.117 45.641c-2.294.384-3.586-.665-3.876-3.147l-1.839-13.09 2.072-.291 1.775 12.626c.142 1.433.87 2.024 2.187 1.775l3.108-.437c1.381-.194 2.042-.917 1.984-2.172l.011-1.8c-.03-.626-.038-1.098-.023-1.417.726.151 1.483.328 2.276.532.003.442-.005 1.011-.024 1.708.006.883-.017 1.549-.071 1.998-.151 1.851-1.296 2.895-3.434 3.133l-4.146.582zm1.431-14.876c-1.312-1.393-3.073-3.071-5.286-5.032l1.259-1.691c1.921 1.561 3.704 3.172 5.346 4.834l-1.319 1.889zm-4.984-61.341l.248 1.764 3.54-.498-.248-1.764-3.54.498zm.422 3.633c.078.557.118 1.058.122 1.498l3.713-.522-.248-1.764-3.626.51.039.278zm11.968 33.74l-9.67 1.359-.406.247.3 2.135 10.102-1.42-.326-2.321zm-9.541 5.412l.326 2.321 10.102-1.42-.326-2.321-10.102 1.42zm5.784-43.998l-3.281.461.248 1.764 3.281-.461-.248-1.764zm4.148 69.79c-.776-1.342-2.093-3.398-3.948-6.167-.367-.517-.625-.89-.774-1.122l1.756-1.288c.366.517.887 1.295 1.562 2.337 1.548 2.244 2.625 3.86 3.234 4.847l-1.83 1.393zm3.859-10.1c.044 1.572.046 3.465.005 5.679-.181-.037-.42-.066-.717-.088-.297-.021-.531-.02-.704.004.035-1.835.031-3.948-.011-6.342l1.407-.008c.028.186.033.439.02.755zm1.194-48.109c-.014.318-.038.573-.068.767-.678-.22-1.403-.371-2.177-.452.426-2.394.815-5.478 1.165-9.252l2.077.371c-.15 1.852-.483 4.707-.997 8.566zm3.224 49.477c-.265-.214-.654-.476-1.167-.783-.257-.153-.451-.283-.583-.392l2.218 15.782-1.899.267-3.118-22.188 1.899-.267.574 4.085c.817.391 1.715.927 2.692 1.61l-.616 1.886zm-1.943-24.744l-.274-1.949 20.98-2.949.274 1.95-14.678 2.063-.377 2.325 12.692-1.784c.15 1.494.215 3 .194 4.517.188 2.182-1.093 3.498-3.847 3.949l-5.008.704c-.102-.302-.294-.843-.58-1.622-.093-.24-.147-.422-.165-.545 1.101-.093 2.718-.288 4.848-.587 1.917-.144 2.788-.833 2.614-2.071.01-.759-.032-1.478-.127-2.16l-12.951 1.82.548-4.242-4.143.581zm6.323-20.122c-2.294.384-3.586-.665-3.876-3.147l-1.839-13.09 2.072-.291 1.775 12.626c.142 1.433.87 2.024 2.187 1.775l3.108-.437c1.381-.194 2.042-.917 1.984-2.172l.011-1.8c-.03-.626-.038-1.098-.023-1.417.726.151 1.483.328 2.276.532.003.442-.005 1.011-.024 1.708.006.883-.017 1.549-.071 1.998-.151 1.851-1.296 2.895-3.434 3.133l-4.146.582zm-3.862 15.706l-.965-6.87 14.937-2.099.965 6.87-14.937 2.099zm-.553 24.525l-.208-1.485 5.698-.801-.248-1.764 1.899-.267.248 1.764 6.13-.861.208 1.485-6.13.861.222 1.579 5.526-.777.196 1.393-5.526.777.222 1.578 6.476-.91.208 1.485-14.591 2.051-.208-1.485 6.216-.874-.222-1.579-5.094.716-.196-1.393 5.094-.716-.222-1.578-5.698.801zm5.846-55.106c-1.312-1.393-3.073-3.071-5.286-5.032l1.259-1.691c1.921 1.561 3.704 3.172 5.346 4.834l-1.319 1.889zm-2.506 73.855l-1.592-11.326 12.001-1.687 1.187 8.448c.309 1.786-.457 2.81-2.298 3.068l-1.209.17c-.798.174-1.398.291-1.8.348-.194-.541-.424-1.14-.693-1.796.699-.036 1.654-.138 2.862-.308.987-.077 1.39-.543 1.212-1.401l-.104-.743-8.202 1.153.535 3.806-1.899.268zm-1.419-48.578l.43 3.063 10.792-1.517-.431-3.064-10.791 1.518zm1.935 38.471l.235 1.671 8.202-1.153-.235-1.671-8.202 1.153zm.417 2.971l.235 1.671 8.202-1.153-.235-1.671-8.202 1.153zm9.37-59.484c-.776-1.342-2.093-3.398-3.948-6.167-.367-.517-.625-.89-.774-1.122l1.756-1.288c.366.517.887 1.295 1.562 2.337 1.548 2.244 2.625 3.86 3.234 4.847l-1.83 1.393zm3.374-4.26l-.287-2.042 6.476-.91c.517-1.334.971-2.692 1.364-4.073l2.336.334c-.129.334-.303.769-.521 1.304l-.762 2.095 12-1.687.287 2.042-4.058.57c-.429 2.396-1.371 4.453-2.832 6.173.553.175 1.412.433 2.576.774.789.205 2.25.568 4.379 1.088l-.822 2.293c-2.782-.998-5.391-1.799-7.822-2.403-2.267 1.833-5.354 3.465-9.26 4.899-.177-.417-.519-.969-1.025-1.655-.084-.178-.164-.325-.238-.44 3.729-1.028 6.44-2.198 8.135-3.51l-6.176-1.972c.129-.333.352-.837.667-1.514.396-.939.707-1.645.935-2.12l-5.352.754zm17.213-6.585l-.354-2.507-14.678 2.063.339 2.414-2.072.292-.613-4.363 8.979-1.262-1.125-1.735c-.216-.285-.367-.517-.45-.694l2.093-.768c.208.224.502.656.886 1.296l.9 1.388-.751.295 8.288-1.165.627 4.457-2.069.289zm-10.733 70.558c.305 2.166-.218 3.879-1.566 5.143l-.894-.727c.923-.951 1.299-2.234 1.131-3.851l-1.468.206-.431-3.063 2.849-.4.379 2.692zm-2.948-40.693l-.261-1.857 3.195-.449-.613-4.363 1.986-.279.613 4.363 2.849-.4.261 1.857-2.849.4.652 4.642c.394-.118 1.067-.339 2.02-.663.452-.126.788-.237 1.01-.332-.014.319.051.783.196 1.393l.104.743-3.03.994.874 6.22c.3 1.724-.383 2.705-2.052 2.939l-2.072.291c-.018-.125-.11-.363-.277-.718-.145-.611-.264-1.037-.355-1.275l1.641-.23c.872-.061 1.222-.488 1.052-1.284l-.731-5.199-3.189 1.111-.585-2.285c.337-.109.898-.283 1.688-.521l1.774-.533-.705-5.013-3.196.448zm3.437-22.556c-.228.474-.381.843-.461 1.106.726.151 1.879.431 3.463.839.791.206 1.402.371 1.832.5 1.38-1.456 2.309-3.196 2.789-5.22l-6.819.958c-.182.404-.449 1.01-.804 1.817zm4.945 23.934l-.533-1.914 3.401-.856c-.188-.92-.45-2.366-.786-4.339-.188-.92-.316-1.627-.386-2.123l2.071-.291c.312 2.228.662 4.294 1.048 6.196l6.79-1.806.359 1.937-6.789 1.807.039.278c.191.541.33 1.09.406 1.647.102.302.217.696.344 1.183.254.975.438 1.675.56 2.099 1.264-1.439 2.407-3.115 3.433-5.026l1.735 1.081c-1.365 2.402-2.806 4.465-4.324 6.193.353.835.781 1.595 1.289 2.28.657.918 1.358 1.324 2.108 1.219.469-.004.771-.36.904-1.074.047-1.332.06-2.5.035-3.508.504.246 1.146.439 1.932.581.002 1.263-.045 2.405-.135 3.427-.16 1.789-.936 2.75-2.324 2.883-1.498.21-2.86-.514-4.092-2.17-.439-.632-.861-1.33-1.264-2.095-1.242 1.185-2.752 2.344-4.53 3.477-.208-.224-.514-.527-.92-.912-.216-.285-.396-.513-.536-.682 1.989-1.289 3.685-2.601 5.083-3.933-.424-1.328-.852-2.91-1.283-4.743l-.407-1.646-3.228.83zm8.863-5.222c-.588-.422-1.594-1.101-3.018-2.038-.248-.091-.438-.19-.568-.298l.926-1.55c.57.298 1.273.706 2.108 1.218.702.407 1.243.71 1.625.908l-1.073 1.76zm1.632-27.889l-.274-1.95 2.16-.303-.613-4.363 1.898-.267.613 4.363 1.727-.243.273 1.95-1.727.243.562 3.992c.222-.093.521-.262.897-.504.385-.18.66-.313.824-.4l.285 2.042c-.162.086-.438.22-.822.4-.379.242-.679.412-.897.504l1.004 7.149c.2 1.423-.386 2.263-1.759 2.519-.338.109-.938.227-1.801.348l-.039-.278c-.127-.488-.328-1.09-.605-1.809.354.013.848-.024 1.48-.113.574-.081.828-.369.76-.864l-.836-5.942-2.127 1.151-.559-2.099c.762-.422 1.558-.818 2.385-1.188l-.651-4.642-2.158.304zm20.311 65.256c-.31.738-.492 1.3-.555 1.688-4.283-1.228-7.303-3.708-9.06-7.437l-7.166 1.007c.375 3.923-.315 7.556-2.078 10.895-.198-.161-.651-.666-1.356-1.513-.074-.115-.146-.2-.211-.254 1.707-2.891 2.146-6.645 1.32-11.262l-.781-5.57 16.146-2.269 1.122 7.984-4.924.692c1.521 2.879 4.1 4.726 7.734 5.54-.036.131-.102.297-.191.499zm-17.117-7.156l.064.464 12.088-1.699-.574-4.085-12.088 1.699.51 3.621zm.365-32.741l-.273-1.949 11.742-1.65.273 1.95-5.699.801c-.851 1.887-1.659 3.642-2.43 5.264l5.572-1.067c-.216-.285-.503-.654-.859-1.11-.425-.509-.738-.874-.945-1.098l1.337-1.135c1.687 1.973 3.03 3.614 4.038 4.923l-1.398 1.333-.984-1.376c-1.026.208-2.431.468-4.205.78-1.075.278-1.873.452-2.392.525-.059.008-.168.056-.333.141-.738.167-1.271.337-1.601.509l-.966-1.853c.357-.366.638-.688.832-.969.854-1.445 1.551-2.963 2.091-4.554l-3.8.535zm12.062 46.615c-3.504-.708-7.172-1.328-11.003-1.862l.604-1.978c1.146.218 2.83.518 5.058.898 2.703.441 4.653.766 5.858.975l-.517 1.967zm-10.146-34.861l-.273-1.949 4.576-.643-.354-2.507 1.985-.279.353 2.506 4.489-.631.272 1.95-4.488.631.535 3.806 4.916-1.354c.003.442.062 1.065.175 1.869-3.46.865-7.278 1.875-11.46 3.031l-.619-1.901c.911-.19 2.393-.525 4.438-1.002-1.422.327-1.226.267.593-.178l-.562-3.992-4.576.643zm7.584 29.162c-1.892-.492-4.252-1.012-7.088-1.56l.614-1.885c.791.206 1.882.431 3.267.677 1.633.339 2.873.607 3.723.802l-.516 1.966zm-6.563-67.661l-.261-1.857 3.281-.461-.562-3.992 1.898-.267 3.119 22.188-1.899.267-.69-4.92-4.145.583-.273-1.95 4.146-.582-.535-3.807-3.106.437-.263-1.857 3.106-.437-.533-3.807-3.283.462zm9.979 15.259l-3.117-22.188 1.898-.267.562 3.992 4.146-.582.262 1.856-4.146.583.535 3.806 3.626-.509.261 1.856-3.626.51.535 3.806 4.489-.631.273 1.95-4.49.631.69 4.92-1.898.267zm2.014 23.116l-1.982-14.111 1.898-.267 1.982 14.111-1.898.267zm4.69 4.548c-.565.142-1.627.323-3.182.542-.171-.797-.391-1.524-.658-2.18.526-.012 1.48-.113 2.862-.308.871-.061 1.237-.584 1.099-1.575l-2.557-18.196 1.984-.279 2.637 18.753c.326 1.91-.402 2.992-2.185 3.243zm-.679 12.993c.045 1.572.048 3.465.007 5.68-.183-.037-.422-.067-.718-.089-.298-.02-.53-.02-.704.004.035-1.834.031-3.948-.011-6.341l1.407-.009c.028.186.032.438.019.755zm4.418 1.367c-.266-.214-.653-.476-1.166-.783-.257-.153-.45-.283-.584-.391l2.22 15.782-1.898.267-3.119-22.188 1.898-.267.574 4.085c.816.391 1.715.928 2.69 1.61l-.615 1.885zm6.858-56.763c-2.252 1.516-5.447 3.006-9.585 4.471-.103-.301-.339-.741-.714-1.32-.104-.301-.189-.509-.264-.625 3.547-1.067 6.319-2.214 8.318-3.441-1.514-.734-2.92-1.767-4.223-3.099-.764 1.244-1.682 2.446-2.75 3.605-.489-.561-.941-1.066-1.356-1.513 2.146-2.257 3.812-4.827 4.992-7.708l2.21.068c-.309.738-.652 1.417-1.034 2.039l10.706-1.505.301 2.135c-1.392 2.216-2.93 4.009-4.613 5.382 1.896.554 4.654.766 8.276.635-.071.327-.187.783-.336 1.373l-.144.872c-4.053-.059-7.317-.516-9.784-1.369zm-5.901 13.136l-1.266-9.005 14.764-2.075 1.267 9.005-1.984.279-.186-1.3-10.791 1.517.184 1.3-1.988.279zm-.991 38.994l-.209-1.485 5.698-.801-.248-1.764 1.899-.267.248 1.764 6.13-.862.209 1.485-6.132.862.224 1.578 5.524-.776.195 1.393-5.525.776.223 1.578 6.477-.91.209 1.485-14.592 2.05-.21-1.485 6.218-.874-.223-1.578-5.094.716-.196-1.393 5.095-.716-.223-1.578-5.697.802zm4.755-15.935c-.104 1.782-.569 3.678-1.401 5.688l-1.677-1.279c.692-1.738 1.076-3.401 1.146-4.989.079-1.526-.09-3.774-.507-6.745l-1.162-8.263 17.7-2.487.665 4.735-15.801 2.22.51 3.621c.463 3.28.638 5.779.527 7.499zm1.825-38.423c1.547-1.101 3.01-2.601 4.387-4.498l-9.323 1.311c1.736 1.522 3.383 2.585 4.936 3.187zm-3.242 73.107l-1.592-11.326 12.002-1.687 1.188 8.448c.309 1.787-.457 2.81-2.3 3.069l-1.209.17c-.799.174-1.396.291-1.801.348-.192-.541-.424-1.14-.69-1.796.698-.036 1.651-.138 2.86-.308.986-.077 1.393-.543 1.213-1.401l-.104-.743-8.202 1.153.535 3.806-1.9.267zm-1.368-65.17l.589 4.178 10.792-1.517-.588-4.178-10.793 1.517zm1.293 16.116l.248 1.764 13.899-1.954-.247-1.764-13.9 1.954zm.592 38.946l.234 1.671 8.201-1.152-.233-1.671-8.202 1.152zm.417 2.97l.235 1.671 8.201-1.153-.234-1.671-8.202 1.153zm11.003-25.995c-2.449.533-4.391.932-5.818 1.196l-.382-1.461 1.728-.243c.971-.199 1.686-.332 2.146-.396l-.273-1.949-4.834.679.783 5.57-1.729.243-.979-6.963 6.562-.922-.195-1.393-5.698.801-.572-4.085 5.697-.801-.195-1.393c-1.432.265-3.526.59-6.289.979l-.442-1.263 1.899-.267c5.738-.932 9.919-1.678 12.541-2.236l.468 1.449c-.626.151-1.687.332-3.183.542-1.432.265-2.521.449-3.27.554l.196 1.393 5.782-.813.574 4.085-5.783.813.194 1.393 6.907-.971.602 4.271c.291 1.663-.252 2.591-1.635 2.786l-2.244.315c-.084-.178-.178-.417-.275-.719l-.379-.799.604-.085c-.034-.248-.132-.519-.29-.812-.509.134-1.249.302-2.218.502zm-7.283-7.97l.223 1.578 3.887-.546-.225-1.578-3.885.546zm9.67-1.359l-4.058.57.222 1.578 4.059-.57-.223-1.578zm1.832 5.517l-5.094.716.287 2.042 2.219-.501-.488-.973 1.155-.541c.626 1.111 1.11 2.054 1.454 2.825l-1.07.529 1.036-.146c.757-.044 1.058-.402.905-1.074l-.404-2.877zm-3.926 16.855l-.248-1.764 9.411-1.323c-.084-.178-.214-.475-.39-.892-.252-.533-.452-.914-.604-1.146l2.206-.594 1.03 2.317 8.893-1.25.248 1.764-20.546 2.888zm1.758 13.764l-.246-1.764 9.756-1.371-.104-.743 4.439-2.233-12.604 1.771-.233-1.671 16.316-2.293.248 1.764-5.903 3.102 8.896-1.25.246 1.764-8.979 1.262.208 1.485c.303 1.724-.465 2.747-2.298 3.068l-3.453.485-.039-.278c-.108-.363-.299-.874-.565-1.53.346-.048.838-.087 1.479-.113l1.469-.207c1.045-.084 1.477-.555 1.299-1.413l-.17-1.207-9.762 1.372zm1.904-67.614l-.287-2.042 2.85-.4-.481-3.435-2.491.445c-.162-.735-.34-1.373-.531-1.913 2.465-.409 4.838-.869 7.112-1.378l.521 1.82-2.725.667.495 3.528 2.763-.388.287 2.042-2.763.388.392 2.785.588-.84 1.59 1.292c.66.539 1.162.973 1.504 1.303l-1.187 1.587c-.341-.331-.817-.8-1.431-1.409-.406-.384-.713-.688-.922-.912l1.345 9.563-1.899.267-1.344-9.563c-.314 1.938-.895 3.881-1.734 5.83l-.713-1.32c-.226-.347-.381-.609-.463-.787 1.055-2.104 1.817-4.61 2.289-7.517l-2.765.387zm-.086 59.88l-.691-4.92 14.938-2.099.69 4.92-14.937 2.099zm1.517-3.621l.261 1.856 11.054-1.553-.263-1.856-11.052 1.553zm3.406-33.152l-.3-2.135 17.268-2.427.3 2.135-7.251 1.02.795 5.663 8.895-1.25.312 2.228-8.893 1.25.966 6.87c.438 2.273-.438 3.564-2.626 3.872l-3.626.51c-.093-.24-.203-.603-.329-1.09-.194-.541-.337-.932-.429-1.17.583-.02 1.652-.138 3.208-.356 1.272-.117 1.769-.784 1.479-2.006l-.889-6.313-9.498 1.335-.312-2.229 9.498-1.334-.797-5.663-7.771 1.09zm10.325-11.7l-1.045-7.427-2.937.413.156 1.114-1.812.255-1.593-11.326 4.748-.667-.626-4.457 1.812-.255.627 4.457 4.748-.667 1.593 11.326-1.897.267-.156-1.114-2.852.4 1.044 7.427-1.81.254zm-5.14-15.277l.887 6.313 2.938-.413-.887-6.313-2.938.413zm7.597-1.067l-2.85.4.887 6.313 2.85-.4-.887-6.313zm19.774 51.414c-5.021 1.022-10.921 2.072-17.693 3.149-.01-.061-.057-.181-.139-.359-.154-.672-.311-1.155-.469-1.449 6.103-.857 11.971-1.903 17.608-3.137l.693 1.796zm-17.431 11.917l-.626-4.456 3.712-.522c-.084-.178-.233-.408-.449-.694-.433-.569-1.003-1.279-1.708-2.126l1.921-.744c.074.117.253.343.536.682.725.973 1.23 1.659 1.521 2.059l-1.563.788 9.238-1.298c.673-1.482 1.232-2.919 1.685-4.308l2.077.371c-.082.264-.259.668-.534 1.211-.138.272-.466 1.076-.98 2.41l4.145-.582.626 4.456-1.983.279-.365-2.599-15.541 2.184.365 2.599-2.077.29zm20.735 7.216c-.04.132-.058.229-.047.291-4.35-.021-7.604-.416-9.765-1.184-2.205 1.446-5.211 2.815-9.02 4.108-.16-.294-.422-.698-.787-1.215-.218-.286-.367-.517-.45-.694 3.721-1.091 6.421-2.133 8.102-3.126-1.775-.949-3.418-2.391-4.923-4.326l-1.295.182-.248-1.764 14.246-2.002.261 1.857c-.986 2.16-2.281 4.013-3.884 5.563 1.649.463 4.452.572 8.41.333-.126.332-.327.992-.6 1.977zm-10.089-59.024l-2.062-1.509c-.478 1.203-1.461 2.761-2.952 4.675-.199-.162-.54-.492-1.021-.993-.207-.224-.378-.389-.512-.497 1.382-1.456 2.351-2.917 2.905-4.385-1.107-.791-2.16-1.589-3.154-2.396.147-2.293.218-4.731.204-7.318l-1.551.218-.261-1.857 1.812-.254-.065-2.357c-.023-1.005-.042-1.76-.056-2.265l1.841-.069.01 4.449 3.626-.51.248 1.764c.41 4.172.258 7.476-.456 9.91.389.262.94.657 1.663 1.186.331.27.592.454.782.553l-1.001 1.655zm-3.01-4.5c.544-1.97.647-4.792.309-8.469l-2.158.304c-.024 2.339-.09 4.589-.196 6.749l2.045 1.416zm2.976 60.402c1.579-1.294 2.834-2.796 3.769-4.506l-8.202 1.152c1.403 1.635 2.881 2.753 4.433 3.354zm-1.853-10.058c-.561-1.058-1.14-2.048-1.739-2.975l1.923-.743c.59.864 1.142 1.86 1.65 2.986l-1.834.732zm1.865-14.008l-2.714-19.31 5.698-.801c.014-.317.066-.767.161-1.348.068-.767.109-1.308.123-1.626l2.357-.142c-.006.379-.071.957-.196 1.731-.11.458-.18.815-.202 1.07l8.809-1.237 2.714 19.31-2.158.303-.209-1.485-12.52 1.759.209 1.485-2.072.291zm-.367-17.652l.495 3.528 12.521-1.759-.496-3.528-12.52 1.759zm1.075-26.209l-.965-6.87 10.619-1.492.966 6.87-10.62 1.492zm-.082 3.798l-.248-1.764 12.001-1.687.248 1.764-5.094.716c.081.999.11 1.847.093 2.543l5.958-.837.261 1.857-5.354.752c1.272 1.967 3.341 3.097 6.199 3.389-.04.132-.104.299-.193.501-.308.737-.493 1.3-.556 1.688-3.282-.802-5.513-2.255-6.688-4.362-.339 2.194-2.271 4.295-5.805 6.307-.367-.516-.832-1.114-1.396-1.792 3.42-1.553 5.255-3.326 5.503-5.318l-5.007.704-.262-1.856 5.438-.765c.021-.696-.04-1.54-.18-2.531l-4.918.691zm-.25 27.702l.496 3.528 12.519-1.759-.493-3.528-12.522 1.759zm.744 5.292l.495 3.528 12.52-1.76-.496-3.527-12.519 1.759zm.783-42.073l.441 3.157 6.907-.971-.443-3.157-6.905.971zm16.828 71.895l-2.469-3.156c-.83 2.452-1.879 4.588-3.147 6.407-.066-.054-.17-.165-.312-.335-.45-.694-.809-1.148-1.071-1.364 1.357-2.021 2.369-4.215 3.036-6.581l-4.274-5.363 1.325-1.228 3.486 4.148c.371-1.946.477-4.138.311-6.576l-5.439.765-.287-2.042 7.425-1.043.287 2.042c.043 3.655-.188 6.591-.697 8.808l3.303 4.08-1.477 1.438zm3.626-62.937c-1.361 2.842-2.725 5.274-4.082 7.295-.267-.216-.815-.581-1.65-1.093l-.198-.162c1.287-1.696 2.639-3.999 4.047-6.912l1.883.872zm-5.519-1.685l-.312-10.37c4.72-.663 9.945-1.682 15.683-3.056l.892 1.957c-5.742 1.313-10.54 2.271-14.388 2.875l.098 6.329 5.957-.837-.665-4.734 2.158-.304.665 4.735 7.943-1.116.272 1.95-7.941 1.116.938 6.684c.41 2.087-.392 3.274-2.403 3.557-.567.142-1.541.311-2.925.505l-.758-2.26c.756-.044 1.653-.138 2.689-.283.984-.077 1.377-.635 1.173-1.68l-.874-6.22-8.202 1.152zm8.255 58.521c-.164 3.431-1.885 6.639-5.162 9.625-.54-.492-1.113-1.043-1.729-1.651 3.601-2.778 5.324-6.175 5.171-10.194-.01-1.324-.128-2.79-.354-4.399l1.986-.279c.044.311.079.779.109 1.405l.183 1.3c1.426 4.722 3.989 7.929 7.69 9.617-.081.263-.265.636-.547 1.119-.229.473-.414.815-.562 1.025-3.239-1.756-5.501-4.276-6.785-7.568zm4.287-4.578l-1.633-.338c-.181-.037-.302-.052-.358-.044l1.032-3.932-7.079.995c-.127.775-.382 1.885-.766 3.326-.192.723-.32 1.276-.383 1.664-.762-.398-1.416-.684-1.972-.859.894-2.838 1.517-5.924 1.869-9.256l2.038.092c-.092 1.023-.244 2.022-.459 2.999l8.461-1.189.287 2.042-1.037 4.5zm-3.076-16.624c-2.476.348-3.854-.689-4.136-3.111l-1.213-8.634 14.332-2.014-.811-5.756-14.764 2.075-.287-2.042 16.836-2.366 1.383 9.841-14.244 2.002.835 5.941c.169 1.618 1.024 2.286 2.569 2.005l9.324-1.311c1.563-.156 2.323-.8 2.282-1.93.02-.696.035-1.834.049-3.415.667.159 1.417.274 2.249.346.028 1.449-.024 2.749-.155 3.903-.108 1.72-1.293 2.706-3.546 2.96l-10.703 1.506zm9.399-30.882c-2.247-2.208-4.218-4.108-5.908-5.702l1.472-1.438c.474.44 1.151 1.102 2.039 1.986 1.881 1.692 3.227 2.893 4.028 3.599l-1.631 1.555zm4.281 50.943c-1.361 2.842-2.725 5.274-4.082 7.295-.267-.215-.815-.58-1.65-1.093l-.198-.161c1.287-1.696 2.639-4 4.047-6.912l1.883.871zm-5.519-1.686l-.312-10.37c4.72-.663 9.945-1.682 15.683-3.056l.892 1.958c-5.742 1.313-10.54 2.271-14.388 2.874l.098 6.33 5.957-.837-.665-4.735 2.158-.303.665 4.735 7.943-1.117.272 1.95-7.941 1.116.938 6.685c.41 2.087-.392 3.274-2.403 3.557-.567.142-1.541.312-2.925.505l-.758-2.26c.756-.044 1.653-.138 2.689-.283.984-.077 1.377-.634 1.173-1.68l-.874-6.22-8.202 1.151zm2.867-65.866l-.287-2.042 5.526-.776-.379-2.692 2.07-.291.379 2.692 5.438-.764-.378-2.692 2.072-.291.378 2.692 5.524-.777.287 2.042-5.526.776.313 2.228-2.072.292-.312-2.228-5.438.764.313 2.229-2.072.291-.312-2.228-5.524.775zm16.441 12.364c-.453.127-1.541.312-3.27.554-.163-.734-.386-1.492-.672-2.272l1.036-.146c.812-.051 1.451-.109 1.912-.174 1.802-.125 2.552-1.052 2.251-2.778-.096-1.501-.225-2.84-.39-4.016l-8.114 1.141 1.631 11.604-2.158.304-1.631-11.605-5.182.728-.286-2.042 17.697-2.487c.293 2.926.479 5.078.558 6.454.411 2.909-.717 4.488-3.382 4.735zm-9.345 33.146l-2.558-18.196 2.331-.328c.021-.254.061-.607.116-1.058.134-.712.21-1.639.226-2.777l2.211.068c-.133 1.154-.291 2.313-.479 3.476l3.886-.546 2.531 18.011-1.899.267-.25-1.764-4.403.619.273 1.95-1.985.278zm-.284-16.433l.72 5.106 4.4-.619-.717-5.106-4.403.619zm1.003 7.149l.744 5.292 4.403-.619-.744-5.292-4.403.619zm8.183 36.078c-2.247-2.208-4.218-4.108-5.908-5.702l1.472-1.438c.474.439 1.151 1.101 2.039 1.985 1.882 1.693 3.227 2.893 4.028 3.6l-1.631 1.555zm6.354-29.127l-3.626.51c-.152-.674-.401-1.396-.745-2.167.758-.044 1.885-.17 3.382-.38 1.629-.103 2.324-.99 2.092-2.661-.076-1.377-.399-4.299-.968-8.763-.126-1.308-.229-2.24-.307-2.797l-5.181.728c-.152.589-.413 1.447-.783 2.571l-.359 1.187c-.57-.298-1.198-.589-1.886-.871 1.008-2.855 1.689-5.729 2.047-8.619l2.053.185c-.063.387-.162.938-.296 1.651-.128.775-.223 1.356-.283 1.744l6.389-.898c.56 3.962 1.094 8.62 1.612 13.975.371 2.658-.676 4.195-3.141 4.605zm-2.541-6.176c-.35-.392-.872-.981-1.566-1.768-.99-1.187-1.764-2.087-2.317-2.704l1.397-1.333c.487.563 1.215 1.344 2.179 2.344.821.832 1.443 1.501 1.867 2.01l-1.56 1.451zm.745 18.187c-.321-.206-.812-.549-1.465-1.025-.92-.69-1.636-1.19-2.146-1.497l1-1.655c1.082.605 2.34 1.408 3.771 2.405l-1.16 1.772zm.257 6.212c-1.176-.844-2.376-1.654-3.6-2.429l.987-1.748c1.339.758 2.592 1.529 3.759 2.312l-1.146 1.865zm1.565 2.998c-.38 3.146-.663 5.93-.851 8.356l-2.077-.371c.312-2.378.619-5.199.924-8.461.296.022.754.147 1.374.375.296.023.506.057.63.101zm1.693-8.001c-.188.343-.525.864-1.016 1.563l-.196-.162c-.49-.561-.932-.973-1.318-1.235 1.59-2.053 2.699-4.386 3.33-7l2.109-.013c-.19.722-.422 1.384-.688 1.99l10.533-1.48.248 1.764-11.483 1.614c-.299.799-.663 1.545-1.094 2.236l11.48-1.614c.003.442.105 1.374.308 2.797.105 1.185.209 2.117.305 2.797l1.986-.279.247 1.764-1.985.279c.069.496.14 1.211.214 2.147l.248 1.764 1.554-.218.248 1.764-1.641.231c.197 2.244-.802 3.488-2.997 3.734l-3.107.437-.377-.799c-.177-.417-.307-.714-.39-.892l3.021-.424c1.391-.133 2.038-.729 1.948-1.789l-10.792 1.517-.189-5.748-1.899.267-.248-1.764 2.072-.291-.228-5.365c-.045.071-.115.207-.203.408zm3.482-42.652l-2.948-20.981 16.146-2.269 2.949 20.981-2.072.292-.234-1.671-12.002 1.687.235 1.671-2.074.29zm-1.266 43.382l.116 3.96 8.375-1.177-.551-3.899-7.94 1.116zm9.114 8.471c-.05-.75-.201-2.055-.464-3.911l-8.548 1.201.203 3.948 8.809-1.238zm.246-27.509l-2.469-3.156c-.83 2.453-1.879 4.588-3.147 6.407-.066-.055-.17-.166-.312-.335-.45-.694-.809-1.148-1.072-1.364 1.358-2.021 2.37-4.215 3.037-6.581l-4.274-5.363 1.325-1.229 3.486 4.148c.371-1.945.477-4.137.311-6.576l-5.439.765-.287-2.042 7.425-1.043.287 2.042c.043 3.655-.188 6.591-.697 8.808l3.303 4.08-1.477 1.439zm-8.684-43.574l.549 3.899 12.001-1.687-.548-3.899-12.002 1.687zm.81 5.756l.533 3.807 12.001-1.687-.533-3.807-12.001 1.687zm3.512 59.846c-.397-.323-1.011-.71-1.836-1.162-.391-.26-.713-.468-.97-.621l.881-1.26c.568.298 1.396.75 2.479 1.355-.134-.107-.005-.03.384.23l-.938 1.458zm-2.704-54.09l.562 3.992 12.001-1.687-.562-3.992-12.001 1.687zm3.341 59.87c-.324-.206-.778-.521-1.366-.944-.637-.351-1.116-.631-1.438-.839l.794-1.248c.76.399 1.719.958 2.877 1.679l-.867 1.352zm10.087-33.909c-.164 3.432-1.885 6.639-5.162 9.625-.54-.492-1.113-1.043-1.729-1.65 3.601-2.778 5.324-6.176 5.171-10.194-.01-1.324-.128-2.79-.354-4.4l1.986-.279c.044.311.079.779.109 1.405l.183 1.3c1.426 4.723 3.989 7.929 7.69 9.617-.081.263-.265.636-.549 1.118-.229.473-.412.815-.561 1.025-3.238-1.754-5.5-4.275-6.784-7.567zm4.287-4.578l-1.633-.338c-.181-.037-.302-.052-.358-.044l1.032-3.932-7.079.995c-.127.775-.382 1.885-.766 3.327-.192.722-.32 1.275-.383 1.663-.762-.397-1.416-.684-1.972-.859.894-2.838 1.517-5.924 1.869-9.256l2.038.092c-.092 1.023-.244 2.022-.459 3l8.461-1.189.287 2.042-1.037 4.499zm-4.997 41.331l-.287-2.042 8.116-1.14-2.609-18.568 2.244-.315.939 6.685 8.548-1.202.312 2.228-8.548 1.202 1.357 9.655 10.188-1.432.287 2.042-20.547 2.887zm12.373-62.739c.304 2.166-.219 3.88-1.566 5.143l-.895-.726c.923-.951 1.3-2.234 1.132-3.852l-1.468.207-.431-3.064 2.849-.4.379 2.692zm4.01 24.729c-1.359 2.842-2.723 5.274-4.082 7.295-.265-.215-.813-.58-1.648-1.093l-.198-.161c1.287-1.696 2.637-4 4.047-6.912l1.881.871zm-5.52-1.686l-.313-10.37c4.722-.663 9.947-1.682 15.685-3.056l.892 1.958c-5.744 1.313-10.54 2.271-14.388 2.874l.098 6.329 5.957-.837-.665-4.735 2.158-.303.665 4.735 7.943-1.117.272 1.95-7.941 1.116.938 6.685c.41 2.087-.392 3.274-2.405 3.557-.565.142-1.541.312-2.923.505l-.758-2.26c.756-.044 1.653-.138 2.688-.283.986-.077 1.379-.634 1.175-1.68l-.874-6.22-8.204 1.152zm13.405 37.616l-1.749-12.44c-.354 1.249-.771 2.444-1.259 3.585-.009-.061-.056-.182-.139-.359-.203-.602-.479-1.32-.831-2.155 1.056-2.925 1.716-6.584 1.979-10.976l1.878.209c-.08 1.526-.273 3.068-.582 4.626l2.427 17.268-1.724.242zm5.46-31.179c-2.247-2.208-4.22-4.108-5.908-5.702l1.472-1.438c.472.439 1.151 1.101 2.039 1.985 1.881 1.693 3.225 2.893 4.028 3.6l-1.631 1.555zm-1.661 30.644l-2.962-21.074 6.476-.91 1.044 7.427-4.663.655.365 2.6 4.059-.57.248 1.764-4.059.57.379 2.692 4.316-.607.247 1.764-4.315.606.678 4.828-1.813.255zm-.887-19.472l.534 3.807 3.022-.425-.535-3.807-3.021.425zm.965-54.419l-.602-4.271 9.238-1.298-1.289-2.28 2.192-.687c.448.694.892 1.548 1.326 2.559l-.157.117 8.2-1.153.602 4.271-1.985.279-.353-2.507-15.455 2.172.353 2.507-2.07.291zm3.119.888l-.232-1.671 13.812-1.941.234 1.671-5.525.777c-.153.149-.362.335-.626.561-.515.515-.932.888-1.251 1.123.938.815 1.672 1.659 2.205 2.53 2.105-1.305 4.052-2.714 5.833-4.228l1.271 1.525c-1.121.79-2.271 1.613-3.438 2.472 1.404 2.896 3.546 4.772 6.428 5.629-.333.553-.688 1.169-1.062 1.853-3.097-1.142-5.396-3.313-6.901-6.509-.106.079-.291.23-.553.456-.271.166-.481.321-.639.469.502 1.065.844 2.248 1.026 3.548.446 2.777-.444 4.354-2.682 4.731l-2.85.4-.416-1.078c-.109-.363-.207-.633-.29-.811.346-.049.81-.083 1.395-.102l1.123-.158c1.455-.079 2.033-.979 1.732-2.705-.078-.557-.182-1.078-.309-1.566-2.153 2.638-5.149 4.92-8.986 6.849-.317-.587-.696-1.197-1.137-1.828 3.83-1.548 6.976-3.821 9.431-6.816-.226-.347-.458-.755-.7-1.227-2.14 2.321-4.805 4.242-7.995 5.762-.084-.177-.271-.466-.562-.868-.228-.347-.409-.605-.551-.775 3.158-1.327 5.843-3.124 8.048-5.391-.084-.177-.265-.404-.536-.682l-.298-.242c-1.907 1.467-4.13 2.79-6.662 3.966-.095-.239-.281-.529-.563-.868-.231-.408-.421-.698-.562-.868 3.579-1.26 6.35-2.848 8.312-4.766l-5.524.778zm1.371 24.815l-.3-2.135 17.872-2.512.3 2.135-7.854 1.104.848 6.035 7.08-.995.287 2.042-7.08.995.913 6.499 8.979-1.262.273 1.95-20.117 2.827-.272-1.949 8.979-1.262-.913-6.499-7.08.995-.287-2.042 7.08-.995-.849-6.034-7.859 1.103zm10.267 44.116c-.334.551-.599 1.187-.788 1.909-1.628-.718-3.023-1.468-4.19-2.251-.944 1.205-2.299 2.437-4.059 3.694l-1.371-1.606c1.901-1.088 3.271-2.195 4.111-3.323-1.162-1.162-2.176-2.944-3.04-5.348l.159-.117-.604.085-.261-1.857 7.425-1.043.248 1.764c-.188 2.425-.72 4.488-1.596 6.188.928.755 2.249 1.388 3.966 1.905zm-9.341-10.711l-.248-1.764 4.574-.643-.509-3.621-4.488.631-.263-1.857 6.217-.874 1.02 7.241-6.303.887zm4.058 7.572c.582-1.28.953-2.816 1.113-4.606l-3.54.498c.704 1.668 1.513 3.038 2.427 4.108zm4.367-12.83l-.248-1.764 1.468-.206-.34-2.414 1.897-.267.342 2.414 4.145-.583-.353-2.506 1.897-.267.354 2.507 1.381-.194.248 1.764-1.382.194 1.475 10.491 1.641-.23.248 1.764-11.311 1.59-.248-1.764 1.727-.243-1.474-10.491-1.467.205zm4.714 16l-1.026 1.47c-.86-.7-1.417-1.095-1.663-1.186 1.108-1.292 2.059-2.687 2.847-4.187l1.724.988c-.434.692-1.061 1.663-1.882 2.915zm-1.347-16.473l.339 2.414 4.145-.583-.34-2.414-4.144.583zm.575 4.085l.326 2.321 4.146-.583-.326-2.321-4.146.583zm.56 3.992l.339 2.414 4.145-.583-.339-2.414-4.145.583zm6.308 7.918c-.558-.617-1.56-1.485-3.008-2.606l1.212-1.401c1.126.916 2.148 1.719 3.068 2.409l-1.272 1.598zm2.282-62.555c-.071 1.588-.44 3.343-1.108 5.268-.577-.361-1.16-.752-1.75-1.174.646-1.668.992-3.169 1.04-4.501.047-1.332-.133-3.452-.542-6.361l-1.096-7.798 8.807-1.238-.931-2.236 2.219-.501c.083.178.182.448.29.811.334.71.559 1.247.667 1.61l7.856-1.104.248 1.764-17.009 2.391.888 6.313c.4 2.847.54 5.099.421 6.756zm2.071 55.316c.178 2.942-.329 5.599-1.521 7.977-.188-.1-.479-.28-.868-.541-.445-.253-.77-.46-.968-.621.854-1.445 1.318-2.931 1.398-4.457.137-1.534-.004-3.786-.422-6.757l-1.291-9.191 7.684-1.08 2.609 18.567c.218 1.546-.392 2.453-1.818 2.717-.453.125-1.282.275-2.491.445-.136-.549-.405-1.207-.805-1.97.287-.041.693-.067 1.222-.077l.863-.121c.863-.122 1.213-.549 1.052-1.284l-.587-4.178-4.057.571zm.479-21.483l-2.975-21.167 18.822-2.646 2.975 21.167-2.072.292-.17-1.207-14.764 2.075.17 1.207-1.986.279zm15.402-33.894c-.086.642-.145 1.282-.171 1.917-2.938.413-5.303.712-7.095.902-2.715.318-4.758-.027-6.132-1.032-.56 1.025-1.327 2.047-2.298 3.068-.134-.108-.369-.327-.709-.658l-.795-.646c1.152-.983 1.961-1.916 2.424-2.802-.839-.955-1.617-2.107-2.335-3.458l1.363-.949c.566 1.12 1.168 2.046 1.799 2.777.361-1.187.553-2.539.574-4.057l-3.626.51-.224-1.578 2.858-4.094-3.367.473-.233-1.671 5.267-.74.248 1.764-2.452 3.848 2.938-.413.232 1.671c.074 2.2-.221 4.071-.884 5.615 1.033.676 2.792.869 5.276.584l7.342-1.031zm-17.379 43.47l.573 4.084 3.887-.546-.574-4.085-3.886.547zm1.032 7.334c.13.928.223 1.8.277 2.612l3.973-.559-.562-3.992-3.886.546.198 1.393zm.217-36.5l2.31 16.432 14.764-2.075-2.31-16.432-14.764 2.075zm1.929 3.705l-.247-1.764 12.001-1.687.248 1.764-5.181.728.392 2.785 4.748-.667.248 1.764-4.748.667.561 3.992 5.439-.765.261 1.857-12.519 1.759-.263-1.857 5.182-.728-.562-3.992-4.488.631-.248-1.764 4.489-.631-.393-2.785-4.92.693zm6.341-28.833c-.739.167-1.855.355-3.354.566l-.494-1.635c3.271-.522 6.128-1.082 8.566-1.677l.58 1.623c-1.238.363-2.406.622-3.5.776l.443 3.156 3.28-.461.233 1.671-3.279.461.47 3.342 3.799-.534.248 1.764-9.497 1.335-.248-1.764 3.886-.546-.47-3.342-3.367.474-.233-1.671 3.366-.473-.429-3.065zm1.534 69.691l-2.453-17.454 5.612-.789 2.361 16.804-1.642.23-.223-1.578-2.158.303.312 2.228-1.809.256zm-.379-15.851l1.604 11.419 2.158-.303-1.604-11.419-2.158.303zm3.78-18.071c-.879-.823-1.681-1.5-2.398-2.03l.893-1.167c.834.515 1.688 1.152 2.56 1.913l-1.055 1.284zm7.333 34.497c-2.018.283-3.135-.57-3.354-2.558l-2.438-17.361 11.224-1.578 1.553 11.048-9.323 1.311.836 5.941c.08.999.69 1.385 1.836 1.162l4.835-.679c1.218-.109 1.812-.665 1.79-1.672.032-1.014.021-2.147-.038-3.403.791.206 1.456.333 1.989.383.047 1.572.019 2.838-.083 3.798-.128 1.595-1.171 2.532-3.127 2.807l-5.7.801zm-3.632-18.329l1.02 7.241 2.85-.4-1.018-7.241-2.852.4zm1.96-45.475l-1.564-11.14 8.115-1.141-.652-4.642 2.158-.303.65 4.642 8.116-1.141 1.555 11.047-2.072.292-.169-1.207-6.044.849 1.106 7.892-2.158.303-1.107-7.891-6.043.849.183 1.3-2.074.291zm.792-9.389l.796 5.663 6.044-.849-.796-5.663-6.044.849zm4.673 53.82l-2.852.4 1.02 7.241 2.85-.4-1.018-7.241zm3.759-10.778c-1.869.073-3.057-.865-3.564-2.813-.123-2.127.752-3.419 2.625-3.872 1.982-.089 3.209.907 3.68 2.986.103 2.005-.811 3.238-2.741 3.699zm-.743-5.292c-1.077.278-1.586 1.043-1.526 2.297.265 1.037.949 1.539 2.062 1.509 1.134-.287 1.684-.961 1.651-2.031-.291-1.221-1.019-1.812-2.187-1.775zm6.557-39.752l-6.044.849.797 5.663 6.045-.849-.798-5.663zm1.426 57.68c.546 4.721.936 8.327 1.169 10.818l-1.557.218c-.821-5.437-1.757-10.83-2.801-16.174l2.59-.364c.119 1.248.317 3.081.599 5.502zm1.788 12.719l.363 2.6-2.157.303-.364-2.599 2.158-.304zm6.704-75.013c-1.014 1.974-2.101 3.641-3.259 5.002-.424-.508-.854-1.078-1.297-1.711 1.753-2.14 3.016-4.431 3.788-6.875l2.284-.037c-.032.194-.144.462-.327.803-.121.396-.226.695-.314.896l14.246-2.002.247 1.764-15.368 2.16zm-3.664 10.266l-.248-1.764 2.936-.413.067-5.785 14.419-2.026.623 5.688 2.849-.4.248 1.764-2.938.413c.062.434.123 1.088.188 1.962.122.868.184 1.521.188 1.962l2.331-.328.247 1.764-2.504.352c.256 2.236-.769 3.516-3.067 3.839l-3.54.498c-.438-1.012-.672-1.642-.706-1.889.354.012 1.479-.114 3.38-.38 1.332-.125 1.98-.721 1.95-1.789l-13.814 1.941.067-5.784-2.676.375zm5.704 21.746c-.472.824-.976 1.621-1.513 2.39-.159-.293-.422-.698-.787-1.215-.216-.285-.367-.517-.45-.694 1.721-2.386 2.951-4.895 3.697-7.525l2.004.476c-.411 1.257-.887 2.46-1.43 3.609l1.354 9.655-1.897.267-.978-6.963zm10.558-20.055l-.376-3.923-11.138 1.565-.059 3.984 6.821-.958c-.588-.422-1.494-1.021-2.718-1.795-.189-.099-.35-.172-.473-.218l1.015-1.562c1.147.659 2.234 1.295 3.262 1.908l-1 1.655 4.666-.656zm-11.446-8.143l-.056 3.984 10.965-1.541c-.068-1.315-.192-2.624-.375-3.923l-10.534 1.48zm3.482 36.637c-.421 2.017-.896 3.881-1.415 5.595l-1.932-.581c.639-1.73 1.089-3.529 1.354-5.397l1.993.383zm2.838-33.644c-1.034-.674-2.122-1.311-3.264-1.908l.929-1.55 1.71.896c.703.407 1.245.71 1.625.908l-1 1.654zm1.209 21.715c-.429 1.134-.995 2.317-1.702 3.553-.134-.107-.356-.234-.67-.379-.455-.314-.812-.548-1.066-.702 1.243-2.005 2.193-4.221 2.853-6.649l2.038.092-.361 1.187c-.179.404-.283.703-.314.896l9.411-1.322.274 1.949-.805 3.048c-.314-.145-.858-.258-1.634-.338-.125-.044-.216-.064-.271-.057l.71-2.466-8.463 1.188zm.726 17.696c-1.843.259-2.893-.54-3.154-2.397l-.548-3.899 1.986-.279.47 3.342c.13.928.686 1.324 1.663 1.186l3.626-.509c1.283-.055 1.908-.614 1.877-1.684.086-.642.104-1.34.06-2.091.247.092.644.193 1.188.307l.815.169c.012.504-.032 1.235-.131 2.196-.041.133-.059.229-.048.291-.13 1.595-1.117 2.491-2.97 2.689l-4.834.679zm1.19-14.084c-1.081 1.919-2.159 3.649-3.232 5.188-.531-.43-1.081-.795-1.649-1.093.992-1.276 2.021-2.935 3.087-4.978l1.794.883zm1.668 9.991c-.905-1.009-1.921-1.97-3.047-2.885l1.312-1.32c1.051.799 2.115 1.69 3.193 2.675l-1.458 1.53zm.065-4.554l-1.983.279c-.194-.541-.425-1.139-.693-1.796.411.006.991-.045 1.74-.15.92-.129 1.295-.592 1.125-1.389l-.717-5.106 1.897-.267.757 5.384c.299 1.726-.408 2.742-2.126 3.045zm7.122-1.947c-.396-.323-.966-.811-1.702-1.465-1.076-.984-1.946-1.746-2.608-2.284l1.212-1.401c1.457 1.184 2.947 2.395 4.472 3.632l-1.374 1.518zm1.104 7.229c-1.063-1.302-2.354-2.73-3.86-4.286l1.397-1.333c1.5 1.493 2.849 2.946 4.046 4.354l-1.583 1.265z"/></svg>