<svg xmlns="http://www.w3.org/2000/svg" width="640" height="318" viewBox="0 0 640 318"><path fill="#97744A" stroke="#D5B281" stroke-miterlimit="10" d="M-1 106l567.146-80.64 72.854-10.359v177l-204.469 29.394-435.531 62.606z"/><path fill="#A27C4D" d="M522.369 31.975l-73.65 186.621 191.281-27.364v-175.447zM-1 106.451v176.55l81.824-11.762 162.176-199.481z"/><path fill="#fff" d="M39.606 146.701l-.235-1.671 18.908-2.657.235 1.671-8.461 1.189.287 2.042 7.425-1.043.222 1.578-7.425 1.044.274 1.949 9.325-1.311.248 1.764-20.635 2.9-.248-1.764 9.325-1.311-.274-1.95-7.425 1.043-.222-1.578 7.425-1.043-.287-2.042-8.462 1.19zm1.071-3.654l-1.227-8.727 4.749-.667c.12-.396.248-.949.382-1.663.022-.255.03-.414.021-.477l2.271-.13c-.041.133-.072.327-.094.582-.152.589-.292 1.051-.422 1.385l8.979-1.262 1.226 8.727-15.885 2.232zm4.069 22.644c-1.002-.867-2.035-1.732-3.094-2.594l1.225-1.31c1.108.791 2.16 1.59 3.154 2.396l-1.285 1.508zm-3.075-29.978l.274 1.949 11.915-1.674-.274-1.95-11.915 1.675zm5.693 31.694c-1.277.937-2.735 2.057-4.371 3.358l-1.064-1.934c1.245-.743 2.956-1.93 5.134-3.562l-.691-4.92 1.899-.268 1.448 10.305-1.899.268-.456-3.247zm-5.223-28.352l.287 2.042 11.915-1.674-.287-2.042-11.915 1.674zm.597 35.534l-.248-1.764 9.67-1.359c-.3-.462-.666-.979-1.098-1.55l1.748-.719c.498.625.973 1.283 1.422 1.978l8.893-1.25.248 1.765-9.324 1.31c.865 1.143 1.723 2.029 2.576 2.667 1.769-1.194 3.128-2.175 4.077-2.938l1.271 1.524c-.271.165-.672.442-1.204.832-1.016.71-1.818 1.267-2.408 1.663 1.685.71 3.613 1.07 5.787 1.08-.25.729-.529 1.462-.835 2.199-4.961-.627-8.527-2.618-10.701-5.975-.635.91-1.418 1.809-2.35 2.697l.443 3.156c.279-.104.639-.248 1.083-.438 1.435-.643 2.596-1.152 3.482-1.529.046.75.105 1.371.175 1.867-1.715.746-3.176 1.426-4.38 2.036-.28.103-.608.274-.984.517-.222.095-.386.182-.492.26l-1.159-1.352c.341-.49.478-.983.409-1.479l-.222-1.579c-1.212.991-2.636 1.918-4.276 2.778-.084-.178-.272-.467-.562-.867-.234-.408-.421-.698-.563-.868 3.289-1.66 5.862-3.601 7.723-5.817l-8.201 1.155zm2.613 19.245l-.248-1.764 9.583-1.348-.978-1.945 2.192-.687c.074.116.154.263.238.438.242.473.506 1.099.792 1.878l8.807-1.237.248 1.764-20.634 2.901zm3.839 17.922l-2.114-15.04 5.095-.716-1.894-2.195 1.821-.824c.141.17.415.449.821.832.705.849 1.163 1.385 1.37 1.605l-1.169.449 4.576-.645c.543-1.147 1.032-2.259 1.469-3.33l1.978.289c-.121.396-.388 1.002-.801 1.817l-.4.908 5.094-.716 1.657 11.789c.384 1.901-.377 2.955-2.285 3.162l-2.849.399c-.221-.726-.427-1.358-.62-1.899.756-.045 1.596-.131 2.517-.261 1.044-.084 1.477-.555 1.298-1.413l-1.37-9.748-14.16 1.99 1.866 13.275-1.9.272zm.757-47.27l-.248-1.764 5.094-.716-.378-2.692 1.899-.267.378 2.692 5.094-.717.248 1.765-5.094.716.391 2.785 4.49-.631.248 1.764-10.792 1.518-.248-1.765 4.403-.618-.391-2.785-5.094.715zm3.08 58.869c-1.072-1.363-2.165-2.662-3.276-3.895l1.583-1.264c.348.394.904 1.009 1.668 1.848.772.902 1.332 1.551 1.682 1.941l-1.657 1.37zm1.866 13.277c-.897 1.136-1.646 2.282-2.246 3.44l-1.263-2.096c.798-.996 1.57-1.986 2.312-2.976l-1.005-7.147-2.504.352-.287-2.043 4.49-.631 1.279 9.099c1.213 1.533 2.942 2.144 5.187 1.827 3.644-.387 7.471-.925 11.483-1.614.008.062-.008.158-.047.291-.152.589-.238 1.231-.257 1.931-1.267.178-3.199.416-5.798.72-2.821.396-4.725.632-5.711.708-2.304.321-4.181-.3-5.633-1.861zm-3.729-33.39c-.309-.524-.729-1.001-1.258-1.434 1.316-1.067 2.709-2.432 4.179-4.091l1.478 1.118c-1.022 1.09-1.945 2.041-2.769 2.852l8.289-1.166.9 6.406-8.375 1.178-.9-6.406-1.544 1.543zm3.936 2.949l4.921-.691-.443-3.156-4.921.691.443 3.156zm.703 16.87l-.274-1.949 6.389-.897c-.309-.524-.767-1.278-1.375-2.269-.225-.348-.408-.604-.549-.774l1.994-.848.675 1.04c.599.927 1.025 1.654 1.276 2.188l-1.157.541 6.821-.958.274 1.949-2.072.291c-.384 2.705-1.165 5.087-2.342 7.146 1.746 1.144 3.47 2.353 5.176 3.627l-1.233 1.877c-.531-.43-1.317-1.012-2.359-1.75-1.242-.898-2.156-1.56-2.744-1.981-1.222 1.75-3.143 3.535-5.763 5.354-.707-.849-1.229-1.438-1.569-1.769 2.27-1.392 4.159-2.981 5.668-4.772-2.161-1.59-3.949-2.82-5.362-3.695l1.186-1.587 5.335 3.51c1-1.655 1.644-3.544 1.933-5.668l-9.928 1.394zm7.163-21.666c-1.596-.912-3.374-1.859-5.331-2.849l.854-1.444c.999.428 2.288 1.035 3.866 1.822.636.354 1.111.602 1.425.746l-.814 1.725zm-.976-65.318l-.6-4.271 9.238-1.298-1.289-2.28 2.192-.687c.45.694.892 1.547 1.328 2.559l-.16.117 8.202-1.153.601 4.271-1.986.279-.353-2.507-15.455 2.172.352 2.507-2.07.291zm3.118.887l-.235-1.671 13.814-1.941.235 1.671-5.525.777c-.155.149-.364.335-.625.561-.515.515-.932.888-1.251 1.123.936.815 1.67 1.659 2.205 2.53 2.105-1.305 4.049-2.714 5.833-4.228l1.271 1.525c-1.122.79-2.269 1.613-3.439 2.472 1.404 2.896 3.546 4.772 6.426 5.629-.334.553-.688 1.169-1.061 1.854-3.096-1.142-5.396-3.313-6.901-6.509-.107.079-.291.23-.552.456-.271.166-.483.321-.639.469.502 1.065.844 2.248 1.027 3.548.448 2.777-.445 4.354-2.681 4.731l-2.849.4-.416-1.078c-.11-.363-.208-.633-.29-.811.345-.049.81-.083 1.394-.102l1.123-.158c1.456-.079 2.033-.979 1.733-2.705-.078-.557-.182-1.078-.308-1.566-2.154 2.638-5.15 4.92-8.986 6.849-.318-.587-.697-1.196-1.138-1.828 3.833-1.548 6.976-3.821 9.431-6.816-.225-.347-.458-.755-.701-1.227-2.139 2.321-4.805 4.242-7.994 5.762-.084-.177-.272-.466-.563-.868-.225-.347-.408-.605-.549-.775 3.159-1.327 5.841-3.124 8.046-5.391-.084-.177-.263-.404-.536-.682l-.298-.242c-1.907 1.468-4.128 2.79-6.662 3.966-.093-.239-.281-.529-.563-.868-.233-.408-.421-.698-.562-.868 3.579-1.26 6.349-2.848 8.311-4.766l-5.525.777zm3.656 25.352c-.531-.43-1.288-1.018-2.273-1.764-.587-.422-1.043-.736-1.365-.943l1.086-1.667c.579.361 1.422.936 2.532 1.727.579.36 1 .649 1.266.863l-1.246 1.784zm.231 6.028c-1.44-1.06-2.644-1.9-3.612-2.521l1.086-1.669c.19.102.417.259.683.474 1.348.82 2.348 1.47 3.002 1.944l-1.159 1.772zm1.846 2.486c-.183 2.046-.452 4.924-.812 8.634l-2.15-.266c.274-1.806.598-4.724.971-8.751l.816.169c.486.12.878.195 1.175.214zm-.174-10.012l-.222-1.577 3.281-.461-.3-2.135 1.899-.267.3 2.135 3.972-.558-.3-2.135 1.899-.267.3 2.135 3.367-.473.222 1.578-3.367.473.3 2.136 4.058-.57.222 1.578-6.993.982.248 1.765 5.785-.813 1.201 8.541-13.383 1.881-1.2-8.541 5.698-.801-.248-1.764-6.82.958-.222-1.578 3.885-.546-.3-2.135-3.282.459zm3.664 42.388c-.062 1.649-.464 3.379-1.208 5.188-.19-.102-.513-.308-.968-.623-.389-.262-.712-.467-.968-.621 1.259-2.32 1.469-6.043.632-11.164l-1.018-7.241 8.548-1.202-1.043-2.409 2.378-.618.996 2.7 7.943-1.116.261 1.856-16.836 2.366.783 5.57c.444 3.156.61 5.594.5 7.314zm4.438-27.337c-1.991 1.289-3.855 2.436-5.592 3.438-.076-.117-.221-.316-.437-.603-.292-.399-.512-.718-.662-.948 2.091-.988 3.91-2.031 5.458-3.134l1.233 1.247zm-4.78-8.322l.274 1.95 3.885-.547-.274-1.949-3.885.546zm2.132 64.019l-.261-1.856 8.116-1.142-.352-2.506-7.598 1.067-1.592-11.325 17.182-2.416 1.592 11.326-7.598 1.067.353 2.507 8.202-1.152.261 1.856-8.202 1.153.366 2.599 9.411-1.322.235 1.671-20.808 2.926-.235-1.672 9.411-1.322-.366-2.601-8.117 1.142zm-1.662-60.675l.274 1.948 3.885-.546-.274-1.95-3.885.548zm1.388-10.8l.3 2.136 3.972-.559-.3-2.135-3.972.558zm1.593 47.695l-1.344-9.562 4.576-.645-1.005-7.148 1.986-.279.313 2.229 7.943-1.116.261 1.856-7.943 1.116.431 3.062 6.562-.922 1.344 9.562-1.986.279-.209-1.486-9.152 1.287.209 1.485-1.986.282zm-.673 9.584l.417 2.971 5.526-.776-.417-2.971-5.526.776zm.652 4.642l.431 3.063 5.526-.776-.431-3.062-5.526.775zm.924-22.21l.639 4.55 9.152-1.287-.639-4.549-9.152 1.286zm5.317-33.614l-3.885.547.274 1.949 3.885-.547-.274-1.949zm-3.416 3.888l.274 1.949 3.885-.547-.274-1.949-3.885.547zm7.079 7.147c-.371-.137-.92-.281-1.646-.431-1.783-.569-3.251-.996-4.405-1.274l.841-1.537c2.367.552 4.34 1.029 5.925 1.438l-.715 1.804zm2.567 38.302l-5.612.789.417 2.971 5.612-.789-.417-2.971zm-4.959 5.431l.431 3.063 5.612-.789-.431-3.063-5.612.789zm.855-86.708l-.3-2.135 8.807-1.238c-.085-1.439-.31-3.459-.675-6.059l2.245-.315.675 6.059 8.979-1.262.3 2.135-8.893 1.25c1.521 5.404 5.132 8.746 10.83 10.028-.325.614-.71 1.425-1.155 2.435-5.091-1.557-8.538-4.575-10.341-9.055-.189 4.509-2.657 8.453-7.405 11.833-.142-.169-.419-.478-.834-.924-.406-.385-.713-.689-.92-.912 5.267-3.453 7.708-7.805 7.322-13.052l-8.635 1.212zm4.78 27.084c-.344-.771-.846-1.837-1.506-3.197-.186-.479-.357-.864-.515-1.158l1.157-.542c.074.117.191.321.35.614.885 1.707 1.467 2.917 1.744 3.637l-1.23.646zm6.77 8.705c-.424-.51-1.084-1.235-1.979-2.184-.199-.162-.336-.299-.411-.416l1.2 8.541-1.727.242-1.201-8.541c-.395 2.202-1.001 4.149-1.82 5.842-.11-.362-.333-.899-.667-1.609-.102-.301-.19-.51-.264-.626 1.04-1.786 1.762-4.16 2.169-7.121l-2.849.399-.248-1.764 2.936-.412-1.148-8.17 1.727-.243 1.148 8.17 2.59-.364.248 1.764-2.59.364.365 2.6.759-.863c1.368 1.386 2.36 2.383 2.974 2.99l-1.212 1.401zm-.761-14.188c-.253 1.55-.558 3.14-.915 4.768l-1.36-.282c.416-1.635.72-3.226.915-4.768l1.36.282zm.575.96l-.209-1.485 4.835-.68-.274-1.95 1.899-.267.274 1.949 5.353-.752.209 1.485-5.353.752.208 1.485 4.835-.68.196 1.393-4.835.68.222 1.577 5.699-.801.208 1.485-12.778 1.796-.208-1.484 5.18-.729-.222-1.578-4.403.618-.196-1.392 4.403-.619-.208-1.485-4.835.682zm3.734 43.518c.305 2.165-.218 3.879-1.566 5.144l-.894-.728c.923-.95 1.299-2.234 1.131-3.851l-1.468.205-.431-3.062 2.849-.4.379 2.692zm-.679-24.918l-1.579-11.233 10.792-1.518 1.174 8.355c.3 1.725-.407 2.738-2.125 3.045l-1.123.156c-.682.158-1.225.268-1.627.323-.194-.54-.425-1.14-.693-1.796.583-.02 1.423-.105 2.517-.26.986-.076 1.39-.543 1.211-1.4l-.104-.742-7.167 1.008.535 3.807-1.811.255zm19.087 53.12c-.244 1.611-1.003 2.476-2.277 2.593-1.431.263-2.867-.767-4.308-3.087-.871 1.32-2 2.679-3.389 4.072-.076-.115-.246-.28-.51-.496-.473-.438-.813-.771-1.02-.991 1.609-1.488 2.92-3.029 3.928-4.623-1.148-2.741-2.083-6.052-2.803-9.927l-7.857 1.104.47 3.343 5.957-.838c.07.496.136 1.182.201 2.055.186 1.742.328 3.174.428 4.295.331 2.354-.454 3.662-2.354 3.929l-2.158.304c-.163-.734-.377-1.43-.646-2.087.756-.042 1.395-.103 1.913-.174 1.044-.083 1.484-.713 1.319-1.89l-.078-.557c-.103-1.563-.219-2.811-.349-3.738l-3.972.559c.692 4.511.423 8.24-.805 11.189l-1.909-1.058c.654-1.606 1.001-3.106 1.04-4.502.105-1.34-.046-3.463-.456-6.373l-.861-6.127 9.756-1.372c-.18-.857-.404-2.246-.674-4.165l1.986-.278c.209 1.484.433 2.873.674 4.166l6.993-.983.274 1.95-6.907.971c.677 3.564 1.372 6.214 2.085 7.943.858-1.825 1.579-4.01 2.161-6.553l1.931.58c-1.019 3.615-2.044 6.348-3.074 8.195.995 2.07 1.89 3.016 2.688 2.841.411.005.684-.348.819-1.062.133-.713.158-1.789.074-3.229l.557.206c.363.076.782.143 1.261.201.055 1.637.017 2.84-.108 3.614zm-18.658-63.217l.235 1.672 7.167-1.008-.235-1.672-7.167 1.008zm.431 3.065l.222 1.578 7.166-1.007-.222-1.579-7.166 1.008zm10.878-40.455c-.358-.454-.89-1.105-1.595-1.953-.715-.908-1.247-1.56-1.595-1.953l1.411-1.24 1.569 1.768c.83.894 1.423 1.568 1.781 2.022l-1.571 1.356zm1.965 13.356c-.653.786-1.319 1.89-2 3.311l-1.25-2.001.293-.42c.772-1.181 1.359-2.021 1.759-2.52l-1.018-7.241-2.245.315-.287-2.042 4.145-.583 1.317 9.377c1.146 1.48 2.925 2.018 5.334 1.617 3.24-.33 7.125-.876 11.656-1.638-.023.254-.062.607-.115 1.058-.112.457-.18.813-.202 1.07-3.117.375-6.92.877-11.41 1.509-2.59.363-4.583-.241-5.977-1.812zm.663 71.822c-.985-.744-2.052-1.447-3.202-2.105l1.225-1.309c1.14.598 2.203 1.269 3.188 2.014l-1.211 1.4zm-1.903-58.755l-.274-1.949 9.929-1.396.274 1.949-4.576.644c-.749 2.188-1.42 3.892-2.011 5.111 1.438-.202 2.84-.461 4.204-.78l-1.621-2.139 1.437-1.054.973 1.283c.913 1.071 1.591 1.923 2.032 2.555 1.206-2.693 1.944-5.795 2.214-9.305h2.025c-.154 1.411-.355 2.701-.601 3.871l6.562-.922.3 2.135-1.554.218c.206 4.39-.242 7.892-1.341 10.508 1.368 1.386 3.077 2.471 5.124 3.256-.316.675-.62 1.443-.909 2.307-2.488-1.419-4.214-2.628-5.176-3.629-.805 1.377-2.179 3.083-4.122 5.124-.54-.491-1.111-1.013-1.716-1.558.106-.079.208-.188.306-.327.106-.079.285-.263.539-.55-3.96 1.062-7.156 1.92-9.586 2.578l-.546-2.006.259-.037c1.2-.23 2.534-.545 4.006-.94l-.509-3.621-3.712.521-.261-1.855 3.712-.521-.352-2.506 1.899-.268.352 2.506 3.799-.533.261 1.856-3.799.534.482 3.435c.452-.125 1.105-.28 1.96-.465l2.033-.569c.035.248.053.594.057 1.033l.104.742c1.57-1.355 2.724-2.749 3.463-4.18-1.231-1.655-2.305-3.871-3.224-6.646-.219.537-.46 1.105-.728 1.711l-.45-.693-1.424 1.146-.986-1.377c-1.258.241-2.914.568-4.969.982.221-.094-.038-.058-.777.108-.28.104-.617.214-1.01.331-.222.096-.391.15-.505.166l-.938-1.667c.483-.319.829-.779 1.039-1.376.414-.815.95-2.216 1.611-4.203l-3.279.462zm1.855-28.111l-.235-1.671 3.972-.558c-.623-.67-1.274-1.336-1.954-1.998l1.735-.812c.397.323.944.877 1.642 1.663.331.27.567.488.709.658l-.578.271 2.936-.412 1.249-3.016 1.978.291-1.155 2.434 4.145-.583.235 1.671-6.821.958-.244 2.022 6.044-.85 1.631 11.605-12.433 1.747-1.631-11.604 4.403-.619.158-2.01-5.786.813zm2.945 62.295l-.287-2.043 2.85-.399-.483-3.435-2.491.443c-.163-.734-.34-1.371-.533-1.912 2.466-.41 4.837-.869 7.114-1.379l.52 1.819-2.724.667.496 3.527 2.763-.389.287 2.043-2.763.389.392 2.785.586-.84 1.59 1.291c.662.539 1.163.973 1.504 1.303l-1.186 1.588c-.341-.331-.816-.801-1.431-1.408-.406-.384-.713-.688-.92-.912l1.344 9.562-1.899.268-1.344-9.562c-.315 1.938-.894 3.881-1.734 5.828l-.714-1.318c-.225-.348-.38-.609-.463-.787 1.054-2.104 1.817-4.61 2.29-7.518l-2.764.389zm.4-59.168l.261 1.857 8.634-1.213-.261-1.857-8.634 1.213zm.457 3.25l.274 1.949 8.634-1.213-.274-1.949-8.634 1.213zm.469 3.342l.261 1.857 8.634-1.213-.261-1.857-8.634 1.213zm12.633 78.561c.475 6.309-1.691 11.566-6.499 15.776-.076-.117-.212-.255-.411-.416-.614-.608-1.087-1.047-1.417-1.315 4.506-3.853 6.563-8.433 6.168-13.742l-7.511 1.057-.287-2.043 7.771-1.092c-.138-1.812-.321-3.741-.55-5.793l2.158-.303c.13.928.268 2.328.415 4.201.038.69.083 1.219.135 1.592l9.066-1.274c.09 1.062.256 2.866.498 5.421.302 2.986.502 5.042.602 6.164.368 3.039-.805 4.719-3.518 5.038-1.258.239-2.635.465-4.131.676-.188-.921-.466-1.64-.832-2.155l3.972-.559c1.859-.137 2.646-1.225 2.358-3.268-.068-1.314-.323-3.961-.764-7.938l-.144-1.021-7.079.994zm-5.645-1.953c-1.029-1.054-2.169-2.062-3.418-3.021l1.285-1.506c.389.262.981.715 1.776 1.359.787.584 1.378 1.037 1.776 1.359l-1.419 1.809zm6.848-12.623l-1.044-7.428-2.936.413.157 1.113-1.813.255-1.592-11.326 4.749-.667-.626-4.456 1.813-.255.626 4.456 4.749-.667 1.592 11.326-1.899.267-.156-1.113-2.849.399 1.043 7.427-1.814.256zm-6.627-44.059c.854 3.162 1.94 5.661 3.254 7.495.767-2.063 1.07-4.915.911-8.554l-3.971.558-.061.198c-.04.133-.085.234-.133.303zm1.487 28.781l.887 6.312 2.936-.412-.887-6.312-2.936.412zm8.526 37.444c-1.227-1.215-2.5-2.33-3.815-3.346l1.285-1.506c.968.622 2.284 1.637 3.949 3.043l-1.419 1.809zm-.928-38.512l-2.85.4.887 6.312 2.85-.4-.887-6.312zm19.703-47.304c-.244 1.611-1.003 2.475-2.277 2.592-1.431.263-2.867-.766-4.308-3.087-.871 1.32-2.001 2.679-3.39 4.074-.076-.117-.246-.282-.51-.496-.473-.439-.813-.771-1.02-.993 1.609-1.488 2.92-3.029 3.928-4.623-1.148-2.741-2.083-6.05-2.803-9.925l-7.857 1.104.47 3.342 5.957-.837c.07.496.136 1.181.201 2.055.186 1.742.328 3.173.428 4.295.331 2.353-.454 3.661-2.354 3.928l-2.158.303c-.163-.734-.377-1.429-.646-2.086.756-.043 1.395-.102 1.913-.174 1.044-.083 1.484-.713 1.319-1.89l-.078-.557c-.103-1.563-.219-2.81-.349-3.738l-3.972.558c.692 4.51.423 8.24-.805 11.189l-1.909-1.057c.654-1.606 1.001-3.106 1.04-4.501.105-1.34-.046-3.464-.456-6.374l-.861-6.127 9.756-1.371c-.18-.858-.404-2.247-.674-4.166l1.986-.279c.209 1.485.433 2.874.674 4.166l6.993-.982.274 1.949-6.907.971c.677 3.566 1.372 6.214 2.085 7.943.858-1.824 1.579-4.008 2.161-6.552l1.931.581c-1.019 3.615-2.044 6.346-3.074 8.195.995 2.07 1.89 3.015 2.688 2.841.411.004.684-.348.819-1.062.133-.713.158-1.789.074-3.229l.557.206c.363.076.782.143 1.261.202.055 1.633.018 2.837-.107 3.612zm-15.209 33.4l-2.557-18.196 2.331-.328c.022-.254.06-.607.115-1.058.134-.712.21-1.639.226-2.777l2.211.068c-.132 1.154-.292 2.313-.48 3.476l3.886-.546 2.531 18.01-1.899.268-.248-1.764-4.403.618.274 1.95-1.987.279zm-.285-16.434l.718 5.106 4.403-.619-.718-5.106-4.403.619zm1.005 7.148l.744 5.291 4.403-.618-.744-5.291-4.403.618zm20.887 25.866c-2.995-.841-5.886-1.569-8.672-2.188l.261 1.856-2.072.291-.47-3.343c-1.498 2.294-3.939 4.341-7.325 6.142l-.562-.866c-.292-.4-.508-.687-.648-.854 3.083-1.443 5.409-3.063 6.977-4.863l-7.167 1.008-.261-1.856 8.634-1.214-.744-5.291 2.072-.292.744 5.292 8.634-1.213.261 1.855-8.634 1.215.261 1.855.581-1.502c1.27.264 3.364.758 6.284 1.483 1.154.28 1.974.479 2.461.601l-.615 1.884zm-18.75 5.666l-.261-1.857 8.893-1.25-.091-.649c-.013-.503-.036-.878-.07-1.126l2.072-.292c.035.248.053.595.057 1.034l.104.742 8.893-1.25.261 1.857-8.548 1.2c1.76 2.089 4.982 3.087 9.666 2.996l-.577 2.164c-5.138-.226-8.548-1.512-10.228-3.864-.67 2.745-3.638 5.023-8.9 6.836-.093-.238-.322-.617-.688-1.134-.225-.347-.38-.608-.463-.786 4.92-1.324 7.671-3.256 8.253-5.8l-8.373 1.179zm4.112-11.467c-1.034-.674-2.387-1.525-4.057-2.554l1.013-1.563c1.273.707 2.649 1.521 4.13 2.449l-1.086 1.668zm3.77 30.54c-1.369-1.385-2.848-2.725-4.438-4.016l1.285-1.507c.588.424 1.582 1.23 2.982 2.422.804.707 1.371 1.195 1.703 1.465l-1.532 1.636zm-2.413 9.143l-.274-1.95 15.196-2.136-.509-3.621-15.886 2.232-.274-1.949 8.029-1.129-1.122-7.984 2.159-.303 1.122 7.983 7.856-1.104 1.997 14.205-2.159.303-.169-1.206-16.404 2.305-.248-1.764 16.404-2.306-.522-3.713-15.196 2.137zm6.93-52.796l-3.626.51c-.154-.674-.402-1.396-.745-2.168.756-.043 1.883-.17 3.38-.379 1.628-.104 2.326-.99 2.091-2.662-.077-1.377-.399-4.297-.968-8.762-.126-1.308-.227-2.24-.305-2.797l-5.181.728c-.152.589-.413 1.447-.783 2.571l-.361 1.187c-.57-.298-1.198-.589-1.883-.871 1.007-2.855 1.689-5.729 2.046-8.619l2.051.185c-.063.388-.162.938-.296 1.651l-.283 1.744 6.389-.898c.557 3.962 1.093 8.62 1.612 13.975.374 2.658-.673 4.194-3.138 4.605zm-4.769-46.497c-.985-.745-2.052-1.447-3.202-2.106l1.225-1.308c1.14.597 2.203 1.269 3.188 2.013l-1.211 1.401zm2.228 40.323l-1.569-1.769c-.989-1.187-1.761-2.087-2.317-2.704l1.397-1.333c.489.563 1.215 1.344 2.179 2.344.821.832 1.443 1.501 1.867 2.011l-1.557 1.451zm6.17 14.488c-1.07 1.161-2.247 2.398-3.528 3.715l-1.417-1.314c.572-.521 1.34-1.324 2.303-2.406.514-.514.898-.915 1.152-1.203l1.49 1.208zm-2.16-55.024l-.3-2.135 8.03-1.128.3 2.135-2.849.4 1.475 10.49 2.831-1.155c.07.497.231 1.231.486 2.204-2.84 1.094-5.446 2.186-7.816 3.276l-.771-2.353c.616-.212 1.703-.618 3.263-1.216l-1.54-10.955-3.109.437zm6.943 84.002c-.982 1.778-2.176 3.523-3.579 5.235l-1.663-1.187c1.296-1.633 2.432-3.371 3.405-5.213l1.837 1.165zm-1.329-51.541l-1.444-1.501c2.623-2.641 4.475-5.33 5.557-8.07l2.224.161c-.196.28-.422.754-.681 1.421-.09.202-.154.37-.194.501l8.289-1.165.235 1.671-2.125 3.044 5.008-.704 1.07 7.613-8.029 1.128c-.492 3.604-3.102 6.746-7.831 9.433-.199-.162-.549-.556-1.046-1.179-.216-.287-.391-.481-.523-.59 4.183-1.976 6.625-4.435 7.328-7.373l-6.044.849-.874-6.22-.92.981zm12.746-17.717c-.567.142-1.657.328-3.268.554-.093-.24-.203-.603-.33-1.09-.194-.541-.333-.9-.416-1.078l2.936-.413c1.456-.079 2.085-.829 1.885-2.253-.284-3.684-.677-7.32-1.182-10.911l-4.576.643.096 1.312c.847 6.446-.416 11.452-3.789 15.017-.066-.054-.194-.131-.384-.23-.721-.53-1.266-.863-1.637-1 3.326-3.055 4.573-7.554 3.738-13.496l-.096-1.312-2.59.364-.3-2.135 2.676-.376c-.082-.998-.261-2.487-.54-4.468l2.072-.292c.079.557.158 1.336.24 2.333l.3 2.135 6.562-.922c.641 5.401 1.124 9.877 1.447 13.429.349 2.477-.599 3.874-2.844 4.189zm-1.337 11.191l-6.993.983c-.619 1.034-1.332 2.019-2.139 2.951l7.08-.995 2.052-2.939zm-8.453 5.637l.574 4.085 4.662-.655c.048-.069.06-.198.034-.383.039-.131.056-.229.047-.291.024-1.076-.021-2.237-.138-3.484l-5.179.728zm.332 26.193l-.3-2.136 8.375-1.178-.47-3.342 2.159-.304.47 3.342 8.461-1.188.3 2.135-8.461 1.189.509 3.62 7.167-1.007.287 2.043-7.166 1.007.509 3.62 9.152-1.286.3 2.136-9.152 1.287.744 5.291-2.158.303-.744-5.291-9.152 1.287-.3-2.137 9.152-1.285-.509-3.621-7.167 1.008-.287-2.043 7.166-1.008-.509-3.621-8.376 1.179zm8.245 41.086c-.741.989-1.491 2.135-2.246 3.44l-1.176-2.107c.431-.689 1.086-1.667 1.966-2.928.546-.707 1.048-1.094 1.51-1.158.115-.016.234 0 .358.045l.259-.037c3.982-3.398 7.449-7.137 10.398-11.212l-14.677 2.063-.287-2.043 8.461-1.188c-.317-.586-.822-1.462-1.514-2.628-.233-.407-.421-.697-.562-.867l2.179-.779c.608.988 1.341 2.241 2.202 3.762l-.578.271 7.252-1.019.313 2.228c-3.159 4.674-6.938 8.896-11.338 12.67 1.219 1.154 2.925 1.609 5.122 1.363 2.081-.229 5.414-.729 10.002-1.5-.193.721-.294 1.461-.305 2.22l-5.871.825c-1.506.147-2.839.271-3.998.372-2.706.381-4.909-.258-6.608-1.911-.322-.209-.609-.169-.862.118zm2.195-55.16c-1.949.336-3.024-.427-3.228-2.292l-.548-3.899 1.986-.279.47 3.342c.023 1.007.636 1.393 1.836 1.162l2.849-.4c1.102-.093 1.645-.609 1.631-1.555-.026-.186-.037-.469-.031-.848.001-.82-.003-1.482-.015-1.986.182.038.51.087.989.145.486.121.82.201 1.001.238.09 1.062.061 2.107-.087 3.137-.071 1.588-.973 2.471-2.708 2.652l-4.145.583zm1.489-13.842l-5.008.704c.013 1.766.005 2.966-.022 3.601l.04.278c-.041.133-.056.23-.047.291l5.612-.789-.575-4.085zm3.808-34.447l-.287-2.042 18.822-2.645.287 2.042-3.971.559.9 6.406 4.921-.692.3 2.135-4.921.692 1.396 9.934-2.072.291-1.396-9.934-6.475.91c.816 4.557-.519 8.214-4.004 10.977-.199-.162-.501-.436-.907-.819-.407-.385-.709-.658-.908-.819 3.144-2.272 4.393-5.288 3.747-9.047l-5.267.74-.3-2.135 5.267-.74-.9-6.406-4.232.593zm3.685 33.773l-.274-1.95 2.849-.4-.496-3.528-1.209.17c-.567.144-.995.234-1.282.275-.162-.734-.335-1.34-.52-1.82 1.718-.304 4.027-.787 6.928-1.447l.606 1.809-.259.036c-.731.23-1.558.408-2.478.538l.522 3.713 2.59-.364.274 1.949-2.59.364.366 2.6.207-.408c.264.216.715.5 1.353.851.91.629 1.56 1.075 1.948 1.335l-.801 1.817c-.795-.646-1.62-1.287-2.471-1.925l1.292 9.191-1.813.254-1.318-9.376c-.404 2.139-.991 4.021-1.76 5.644-.344-.771-.703-1.447-1.077-2.026 1.192-2.376 1.947-4.943 2.263-7.702l-2.85.4zm2.618-34.659l.9 6.406 6.476-.91-.9-6.406-6.476.91zm1.64 61.152l-.652-4.642 8.72-1.226c-.035-.246-.141-.579-.316-.997-.127-.486-.233-.819-.316-.997l2.305-.514.659 2.181 8.375-1.179.652 4.644-1.986.278-.417-2.971-15.455 2.172.417 2.972-1.986.279zm3.301 15.348l-1.252-8.912 17.181-2.415 1.253 8.912-1.986.278-.157-1.113-13.21 1.855.157 1.114-1.986.281zm-.245-16.154l-.17-1.207 13.21-1.855.169 1.207-13.209 1.855zm.623 5.687l-.6-4.271 13.642-1.918.6 4.271-13.642 1.918zm.845-27.779l-1.279-9.098 6.13-.862c.494-1.078 1.042-2.608 1.645-4.586l2.09.464c-.655 1.606-1.21 2.884-1.663 3.831l3.022-.425 1.279 9.098-3.108.437.718 5.106c.064.875.494 1.224 1.292 1.049l.432-.061c.699-.036 1.03-.396.992-1.086.013-.317-.024-1.005-.114-2.067.004-.379-.001-.63-.018-.755.601.105 1.183.276 1.745.512.055.813.08 1.82.072 3.02-.098 1.401-.865 2.204-2.303 2.405l-.95.135c-1.776.312-2.77-.495-2.981-2.421l-.783-5.57-1.986.279.065.464c-.023.256-.025.446-.008.569.535 3.396-.768 6.229-3.912 8.501-.142-.17-.387-.451-.735-.844-.341-.33-.581-.58-.722-.75 2.818-1.658 3.971-3.903 3.456-6.734l-.052-.372c.022-.254.025-.444.008-.569l-2.332.33zm1.57-9.499c-.292-.4-.969-1.251-2.032-2.555-.216-.285-.391-.48-.523-.589l1.709-.998c.83.894 1.677 1.911 2.542 3.051l-1.696 1.091zm-1.411 57.606l-.287-2.043 17.268-2.428.287 2.043-7.771 1.092c.137 1.813.224 3.473.26 4.981l9.756-1.371.287 2.042-10.188 1.432c-.167 5.074-2.584 9.391-7.249 12.947l-1.715-1.558c4.345-3.323 6.614-7.021 6.806-11.086l-8.03 1.129-.287-2.043 8.461-1.188c-.036-1.511-.124-3.17-.26-4.98l-7.338 1.031zm-.44-17.567l.261 1.856 5.612-.789-.261-1.856-5.612.789zm.444 3.155l.235 1.672 5.612-.788-.235-1.673-5.612.789zm.561-9.166l.235 1.67 9.583-1.346-.235-1.672-9.583 1.348zm.171-31.945l.73 5.199 7.425-1.043-.731-5.199-7.424 1.043zm12.034 36.1l-5.612.789.261 1.856 5.612-.789-.261-1.856zm-5.168 3.945l.235 1.671 5.612-.789-.234-1.671-5.613.789zm6.917 31.709c-2.179.369-3.396-.562-3.651-2.8l-1.044-7.427 2.072-.293.979 6.963c.058 1.257.745 1.758 2.061 1.511l2.072-.291c1.208-.17 1.763-.815 1.665-1.938.004-.379-.024-1.006-.088-1.881-.004-.439-.018-.755-.044-.939l.816.169c.305.084.758.178 1.36.282.036 1.51.044 2.613.025 3.31-.054 1.712-1.063 2.674-3.028 2.888l-3.195.446zm.411-99.33c.871 5.368.537 9.675-1.001 12.921-.341-.331-.942-.847-1.802-1.546.72-1.552 1.116-3.123 1.187-4.711.087-1.463-.077-3.681-.495-6.652l-.979-6.963 8.029-1.128-1.004-2.131 2.292-.606c.009.063.055.182.139.359.36.896.662 1.58.904 2.05l7.253-1.02 1.018 7.242-15.541 2.185zm.863 26.213c-.344-.771-.846-1.837-1.506-3.197-.186-.478-.357-.864-.515-1.158l1.157-.542c.074.117.191.321.35.614.885 1.707 1.467 2.918 1.744 3.636l-1.23.647zm-1.606-31.505l.47 3.342 13.469-1.893-.47-3.342-13.469 1.893zm8.376 40.21c-.424-.509-1.084-1.235-1.979-2.184-.199-.161-.336-.299-.411-.416l1.2 8.541-1.727.243-1.201-8.542c-.395 2.202-1.001 4.149-1.82 5.841-.11-.363-.333-.9-.667-1.61-.102-.301-.19-.509-.264-.625 1.04-1.787 1.762-4.16 2.169-7.121l-2.849.4-.248-1.764 2.936-.412-1.148-8.17 1.727-.243 1.148 8.169 2.59-.364.248 1.764-2.59.364.365 2.6.759-.864c1.368 1.386 2.36 2.383 2.974 2.99l-1.212 1.403zm-4.49-22.579l-1.331-9.47 13.9-1.954 1.331 9.47-1.986.279-.209-1.485-9.929 1.396.208 1.485-1.984.279zm3.23 57.427l-2.557-18.195 2.331-.327c.022-.255.061-.606.115-1.058.134-.713.21-1.64.226-2.777l2.211.068c-.132 1.154-.292 2.312-.48 3.476l3.886-.546 2.531 18.01-1.899.268-.248-1.765-4.403.619.274 1.949-1.987.278zm-2.314-65.319l.626 4.457 9.929-1.396-.626-4.456-9.929 1.395zm2.813 16.283c-.253 1.55-.558 3.14-.915 4.767l-1.36-.282c.416-1.635.72-3.226.915-4.768l1.36.283zm-.784 32.604l.718 5.105 4.403-.618-.718-5.106-4.403.619zm1.005 7.148l.744 5.291 4.403-.618-.744-5.292-4.403.619zm.354-38.792l-.209-1.485 4.835-.68-.274-1.95 1.899-.267.274 1.95 5.353-.752.209 1.485-5.353.752.208 1.485 4.835-.68.196 1.393-4.835.68.222 1.578 5.699-.801.208 1.485-12.778 1.796-.208-1.485 5.18-.728-.222-1.579-4.403.619-.196-1.393 4.403-.619-.208-1.485-4.835.681zm1.864 59.613c.083 2.262.024 4.353-.175 6.273-.479-.059-.894-.096-1.248-.109.063-2.47.069-4.521.015-6.154l1.408-.01zm1.19-41.013l-1.579-11.233 10.792-1.517 1.174 8.355c.3 1.724-.407 2.739-2.125 3.044l-1.123.158c-.682.158-1.225.267-1.627.324-.194-.541-.425-1.14-.693-1.796.583-.02 1.423-.105 2.517-.259.986-.077 1.39-.543 1.211-1.401l-.104-.743-7.167 1.007.535 3.806-1.811.255zm2.775 42.917c-.54-.492-1.016-.961-1.431-1.408l2.271 16.153-1.899.269-3.105-22.097 1.899-.267.496 3.527.061-.197 1.391 1.129c.597.484 1.031.865 1.305 1.143l-.988 1.748zm-2.345-53.013l.235 1.671 7.167-1.007-.235-1.671-7.167 1.007zm.431 3.064l.222 1.578 7.166-1.007-.222-1.578-7.166 1.007zm10.267 34.175l-3.626.51c-.154-.674-.403-1.396-.745-2.168.756-.045 1.883-.17 3.38-.381 1.628-.104 2.326-.989 2.091-2.66-.077-1.377-.399-4.299-.968-8.764-.126-1.308-.227-2.24-.305-2.797l-5.181.729c-.152.589-.413 1.447-.783 2.57l-.361 1.188c-.57-.298-1.198-.589-1.883-.871 1.007-2.854 1.689-5.729 2.046-8.618l2.051.185c-.064.389-.163.938-.296 1.652l-.283 1.743 6.389-.897c.557 3.961 1.093 8.619 1.612 13.975.374 2.658-.673 4.194-3.138 4.604zm-6.215 20.963l-1.5-10.676 3.885-.547.291-2.312 2.099-.105c-.077.706-.24 1.424-.49 2.151l6.821-.959 1.5 10.677-6.216.874c-.041.134-.072.326-.094.581-.17.466-.267.827-.289 1.082l1.554-.219.261 1.855c.267-.604.592-1.629.977-3.07l1.447.27-.581 1.502-.582 1.502 2.046-.479-.8-1.307 1.057-.623c.141.17.324.43.549.775.441.633.74 1.096.899 1.389l-.065-.465 1.732.42c.098 1.122.097 1.943-.006 2.463-.04 1.394-.835 2.199-2.39 2.418l-2.763.389c-1.785.251-2.766-.463-2.942-2.143l-.574-4.086c-.648 2.491-2.27 5.147-4.866 7.975-.134-.108-.402-.354-.808-.738l-.895-.727c3.065-2.828 4.809-5.66 5.233-8.498l-4.49.631zm3.674-27.138c-.35-.392-.873-.979-1.569-1.768-.989-1.186-1.761-2.086-2.317-2.703l1.397-1.333c.489.563 1.215 1.345 2.179 2.345.821.831 1.443 1.502 1.867 2.01l-1.557 1.449zm-3.1 18.065l.378 2.692 3.54-.498c-.026-.187-.028-.405-.005-.662l-.078-.557-.209-1.486-3.626.511zm4.086 6.526c.06-.828.048-1.742-.033-2.742l-3.454.486.378 2.691 3.109-.435zm5.9-77.191c-.238-.852-.485-1.574-.745-2.167l3.54-.498c1.446-.141 2.009-.945 1.686-2.415l-1.239-8.819 6.289-5.996-15.973 2.245-.287-2.042 18.908-2.657.353 2.506-6.888 6.743 1.161 8.263c.471 2.521-.506 3.92-2.932 4.199l-3.873.638zm-1.007 69.402l-3.54.498.195 1.393.097 1.312 3.626-.51-.378-2.693zm-3.113 4.793c.072.937.084 1.851.033 2.74l4.058-.57-.378-2.691-3.713.521zm5.74 9.513c-.009-.062-.056-.183-.139-.358-.075-.115-.146-.201-.212-.255-.913.191-1.968.403-3.168.636-.28.103-.477.16-.591.178l-.013-.094.104.742c.055.812.511 1.127 1.365.944l2.072-.291c.863-.122 1.308-.501 1.337-1.136l-.031-.848-.724.482zm-1.276-54.298l-1.448-10.305 8.202-1.153 1.448 10.305-1.899.267-.196-1.393-4.403.619.196 1.393-1.9.267zm.271-13.103l-1.161-8.263 14.85-2.087 1.162 8.263-14.851 2.087zm.441 4.388l.757 5.384 4.403-.619-.757-5.385-4.403.62zm.489 22.864l-.287-2.043 2.504-.352-.613-4.363 2.072-.291.613 4.363 3.885-.547-.757-5.385 1.986-.278.757 5.385 5.18-.729-.757-5.385 1.986-.277.757 5.384 2.849-.399.287 2.043-2.849.399 1.122 7.983-9.152 1.287-1.122-7.984-3.885.546 1.644 11.696 15.541-2.184.274 1.949-17.613 2.477-1.918-13.647-2.504.352zm.255-33.856l.613 4.364 10.706-1.505-.613-4.363-10.706 1.504zm6.363 76.584l-2.557-18.196 2.331-.327c.022-.255.061-.607.115-1.058.134-.713.21-1.64.226-2.777l2.211.067c-.132 1.154-.292 2.312-.48 3.477l3.886-.547 2.531 18.012-1.899.267-.248-1.765-4.403.619.274 1.949-1.987.279zm-.285-16.431l.718 5.104 4.403-.618-.718-5.105-4.403.619zm1.005 7.147l.744 5.292 4.403-.619-.744-5.292-4.403.619zm2.167-49.098l-1.448-10.305 8.202-1.152 1.448 10.305-1.813.255-.196-1.393-4.49.631.196 1.393-1.899.266zm.712-8.715l.757 5.385 4.49-.631-.757-5.385-4.49.631zm.23 22.9l.835 5.941 5.18-.729-.835-5.941-5.18.729zm11.427 41.864c-1.152.161-2.361.331-3.626.51-.154-.674-.403-1.396-.745-2.168.756-.044 1.883-.17 3.38-.38 1.628-.104 2.326-.99 2.091-2.661-.077-1.377-.399-4.299-.968-8.763-.126-1.309-.227-2.24-.305-2.799l-5.181.729c-.152.589-.413 1.446-.783 2.571l-.361 1.187c-.57-.298-1.198-.589-1.883-.87 1.007-2.854 1.689-5.729 2.046-8.619l2.051.186c-.064.389-.163.938-.296 1.65l-.283 1.744 6.389-.897c.557 3.962 1.093 8.62 1.612 13.974.374 2.66-.673 4.196-3.138 4.606zm-2.91-104.165c-.323-.206-.812-.548-1.464-1.025-.92-.69-1.635-1.19-2.147-1.497l1-1.655c1.083.605 2.34 1.408 3.771 2.405l-1.16 1.772zm.369 97.988c-.35-.392-.873-.979-1.569-1.768-.989-1.188-1.761-2.087-2.317-2.703l1.397-1.332c.489.562 1.215 1.344 2.179 2.344.821.832 1.443 1.502 1.867 2.011l-1.557 1.448zm-.112-91.776c-1.175-.844-2.376-1.654-3.599-2.429l.987-1.748c1.339.759 2.592 1.529 3.758 2.312l-1.146 1.865zm1.566 2.999c-.38 3.146-.663 5.93-.851 8.356l-2.077-.371c.311-2.378.619-5.199.924-8.461.296.022.754.147 1.374.375.296.022.505.056.63.101zm-1.623 19.182l-.248-1.764 9.583-1.347-.978-1.946 2.192-.687c.074.117.154.262.238.44.242.472.506 1.097.792 1.876l8.807-1.237.248 1.764-20.634 2.901zm3.316-27.183c-.188.343-.525.864-1.013 1.563l-.199-.161c-.49-.562-.929-.973-1.318-1.235 1.589-2.053 2.699-4.387 3.331-7l2.111-.013c-.193.722-.422 1.385-.689 1.99l10.533-1.48.248 1.764-11.483 1.614c-.299.799-.664 1.545-1.095 2.236l11.483-1.614c.003.442.105 1.374.305 2.797.107 1.185.209 2.117.305 2.797l1.986-.279.248 1.764-1.986.279c.07.496.14 1.211.214 2.147l.248 1.764 1.554-.218.248 1.764-1.641.23c.197 2.244-.801 3.488-2.997 3.734l-3.108.437-.376-.799c-.177-.417-.307-.714-.389-.892l3.021-.425c1.39-.133 2.04-.729 1.95-1.789l-10.792 1.517-.192-5.748-1.899.267-.248-1.764 2.072-.291-.226-5.365c-.049.072-.118.207-.206.409zm.523 45.105l-2.114-15.04 5.094-.716-1.894-2.195 1.821-.824c.141.169.415.448.821.832.705.848 1.163 1.384 1.37 1.606l-1.169.448 4.576-.643c.543-1.148 1.032-2.259 1.469-3.331l1.978.29c-.121.396-.388 1.001-.801 1.817l-.4.908 5.094-.716 1.657 11.791c.384 1.901-.377 2.955-2.285 3.161l-2.849.4c-.221-.727-.427-1.36-.62-1.901.756-.044 1.596-.13 2.517-.259 1.044-.084 1.477-.555 1.298-1.413l-1.37-9.748-14.16 1.99 1.866 13.276-1.899.267zm1.974-8.514c-.309-.524-.728-1.001-1.258-1.433 1.316-1.068 2.709-2.431 4.179-4.09l1.478 1.118c-1.022 1.09-1.945 2.041-2.769 2.851l8.289-1.165.9 6.406-8.375 1.177-.9-6.406-1.544 1.542zm13.842 35.187l-1.004-7.148 1.727-.243c-1.734-.639-3.367-1.608-4.899-2.907l.246-.131-.259.037c-1.075 1.54-2.406 2.928-3.994 4.158l1.64-.23c.078.559.129 1.34.153 2.346l.026.187c.048 2.015-1.037 3.899-3.254 5.664-.579-.36-1.192-.748-1.836-1.162 2.145-1.438 3.152-2.841 3.018-4.211.013-.317.002-.819-.036-1.51.013-.315.008-.569-.018-.755-1.317 1.07-2.849 2.072-4.595 3.013l-.337-.521c-.142-.17-.404-.573-.787-1.215 3.181-1.584 5.657-3.383 7.429-5.399l-5.958.838-1.435-10.213 16.922-2.378 1.436 10.212-6.044.851c2.01 1.358 4.864 2.25 8.564 2.678-.281.925-.473 1.646-.576 2.164-1.93-.359-3.636-.814-5.122-1.363l.979 6.963-1.986.275zm-14.124-71.048l.116 3.96 8.375-1.177-.548-3.899-7.943 1.116zm9.115 8.47c-.047-.75-.201-2.055-.461-3.911l-8.547 1.201.203 3.948 8.805-1.238zm-6.93 44.659l.352 2.508 5.526-.777-.353-2.506-5.525.775zm2.814-50.14c-.397-.323-1.011-.71-1.836-1.162-.389-.26-.712-.468-.968-.621l.879-1.26c.57.298 1.396.75 2.479 1.355-.133-.107-.004-.03.385.23l-.939 1.458zm-2.227 54.318l.353 2.507 5.525-.777-.352-2.506-5.526.776zm2.863-48.537c-.323-.206-.777-.521-1.365-.944-.637-.351-1.116-.631-1.438-.839l.793-1.248c.76.399 1.719.958 2.877 1.678l-.867 1.353zm-.693 85.927l-1.996-14.204 7.339-1.03 1.983 14.11-1.554.22-1.722-12.256-4.317.606 1.735 12.348-1.468.206zm-.724-55.886l4.921-.691-.443-3.157-4.921.692.443 3.156zm8.612 60.648c-.473-.439-1.136-.977-1.988-1.613-.87-.762-1.538-1.33-2-1.707-.244 1.611-1.227 3.391-2.948 5.337l-1.357-1.515c1.437-1.463 2.329-2.851 2.673-4.162.344-1.311.338-3.232-.019-5.771l-.861-6.127 1.554-.219.875 6.22c.235 1.672.349 3.108.341 4.308 1.904 1.438 3.505 2.602 4.805 3.49l-1.075 1.759zm-.746-65.446c-1.596-.912-3.373-1.86-5.331-2.848l.854-1.445c.999.428 2.288 1.037 3.866 1.823.636.353 1.111.602 1.426.747l-.815 1.723zm3.052 17.296l-5.526.776.353 2.506 5.526-.775-.353-2.507zm-4.938 4.954l.352 2.507 5.526-.776-.352-2.507-5.526.776zm4.002 26.623c-.296 1.242-.701 2.529-1.218 3.863-.133-.105-.328-.236-.583-.392-.19-.099-.546-.333-1.067-.702 1.042-2.607 1.759-5.23 2.15-7.876l1.952.104c-.111.457-.255 1.109-.43 1.953-.112.459-.184.783-.215.978l7.598-1.067c.14.991.336 2.604.592 4.84.69 5.332 1.106 8.713 1.25 10.145.331 2.352-.652 3.721-2.945 4.105l-3.626.51c-.163-.734-.373-1.4-.632-1.993.345-.05.924-.101 1.74-.149l1.554-.22c1.619-.165 2.292-1.017 2.018-2.556-.39-3.604-.914-7.76-1.575-12.465l-6.563.922zm1.073 11.401c-.567.143-1.068.34-1.502.59l-1.098-1.55c.457-.506.785-1.089.987-1.747.576-2.164 1.082-4.414 1.517-6.746l1.719.325c-.39 1.823-1.014 4.277-1.871 7.363l3.674-.8c-.56-1.059-1.172-2.075-1.838-3.057l1.29-.844c1.341 2.021 2.52 3.938 3.538 5.751l-1.376.856-.601-1.146c-.846.246-2.013.506-3.501.776-.454.129-.765.203-.938.229zm1.4-82.902l-.287-2.042 8.116-1.141-2.61-18.567 2.245-.316.939 6.685 8.547-1.201.313 2.228-8.547 1.201 1.357 9.655 10.188-1.432.287 2.042-20.548 2.888zm6.776 24.44c-.062 1.651-.464 3.379-1.208 5.188-.19-.101-.514-.307-.968-.622-.389-.262-.712-.468-.968-.622 1.258-2.321 1.468-6.043.632-11.165l-1.018-7.241 8.548-1.202-1.043-2.409 2.378-.619.996 2.7 7.943-1.116.261 1.857-16.836 2.366.783 5.57c.443 3.157.61 5.595.5 7.315zm2.353 26.098c-.55.268-.96.482-1.23.646-.159-.293-.421-.697-.787-1.215-.216-.285-.367-.518-.45-.693 6.729-2.65 11.76-6.324 15.092-11.021l-9.066 1.273c-1.377 1.897-3.059 3.713-5.046 5.442-.283-.339-.693-.754-1.231-1.247-.076-.115-.146-.199-.212-.254 3.05-2.512 5.383-5.332 6.999-8.463l2.224.161c-.431.692-.857 1.415-1.28 2.168l10.015-1.408.287 2.042c-2.302 3.67-5.395 6.723-9.278 9.162l10.447-1.469 1.409 10.025-2.072.291-.183-1.299-10.965 1.541.183 1.299-2.072.292-1.135-8.077-1.649.804zm.756-21.518l-1.344-9.562 4.576-.644-1.005-7.148 1.986-.279.313 2.228 7.943-1.116.261 1.856-7.943 1.116.431 3.064 6.562-.922 1.344 9.563-1.986.279-.209-1.485-9.152 1.286.209 1.485-1.986.279zm1.932 42.557c-.016 1.139-.095 2.254-.234 3.347-.553-.175-1.041-.295-1.46-.363.311-2.378.354-5.004.126-7.875l1.58-.032c-.034 1.016-.015 1.989.059 2.926l1.641-.229-.731-5.198 1.813-.257.73 5.199 1.899-.268.274 1.949-1.899.268.652 4.643 1.808-.917c.087.619.239 1.292.46 2.019l-1.981.94 1.174 8.354-1.813.256-1.096-7.799-3.443 1.81-.585-2.284c1.166-.479 2.408-1.031 3.729-1.66l-.717-5.105-1.986.276zm2.962-26.566c-.862-.698-2.108-1.628-3.738-2.788.065.056-.029.005-.285-.149l1.285-1.506c.19.102.479.28.869.541 1.413.875 2.547 1.631 3.4 2.268l-1.531 1.634zm-3.991-23.975l.639 4.549 9.152-1.286-.639-4.549-9.152 1.286zm2.062 28.413l.705 5.014 10.965-1.541-.705-5.014-10.965 1.541zm7.379 19.336c-.482 1.584-1.015 3.017-1.598 4.297-.199-.161-.492-.373-.881-.635l-.696-.563c1.338-2.586 2.193-5.481 2.564-8.69l1.878.209c-.189 1.162-.42 2.235-.692 3.221l8.72-1.226c.299 2.548.758 6.647 1.377 12.304.082.998.145 1.652.188 1.961.348 2.476-.626 3.906-2.919 4.293l-1.295.182c-.682.158-1.196.263-1.541.312-.229-.789-.472-1.481-.732-2.076l2.763-.387c1.399-.072 2.014-.914 1.846-2.531-.043-.311-.098-.9-.162-1.776-.602-5.532-.98-8.856-1.137-9.97l-1.468.205c.693 7.854-.94 13.576-4.896 17.162-.133-.108-.427-.319-.881-.635l-.895-.727c4.006-3.654 5.712-8.85 5.118-15.583l-1.64.231c.036 4.854-1.238 8.946-3.822 12.275-.613-.607-1.173-1.034-1.676-1.279 2.618-3.08 3.961-6.678 4.03-10.791l-1.553.217zm6.3-78.099l.535 3.806 16.836-2.366.261 1.856-18.822 2.646-2.766-19.682 18.563-2.609.274 1.95-16.577 2.33.521 3.713 14.678-2.063 1.174 8.355-14.677 2.064zm11.706-8.177l-12.605 1.771.626 4.456 12.605-1.771-.626-4.456zm-8.72 37.6l1.139-1.296 5.233 4.661-1.199 1.494-5.173-4.859zm3.209 34.689l-1.448-10.307 8.202-1.151 1.448 10.305-1.899.267-.196-1.392-4.403.618.196 1.393-1.9.267zm.271-13.103l-1.161-8.262 14.85-2.087 1.161 8.263-14.85 2.086zm.441 4.386l.757 5.386 4.403-.619-.757-5.384-4.403.617zm1.101 18.518l-.287-2.043 18.044-2.536.287 2.043-7.943 1.116c.184 1.3.373 3.07.572 5.314l9.323-1.311.302 2.137-8.895 1.25c1.604 4.317 5.035 6.803 10.292 7.451-.04.133-.129.333-.267.605l-.629 1.793c-5.377-1.076-8.873-3.612-10.49-7.614-.324 3.96-2.859 7.438-7.603 10.44-.142-.17-.419-.479-.834-.924-.35-.395-.626-.703-.834-.925 5.057-2.856 7.562-6.332 7.515-10.429l-8.721 1.227-.3-2.137 8.979-1.262c-.022-.565-.118-1.467-.292-2.704-.101-1.122-.192-1.992-.279-2.612l-7.94 1.121zm-.357-29.508l.613 4.363 10.707-1.504-.613-4.363-10.707 1.504zm9.249 18.201l-1.448-10.305 8.202-1.152 1.449 10.305-1.813.255-.196-1.394-4.488.632.195 1.394-1.901.265zm.713-8.715l.757 5.385 4.489-.631-.758-5.385-4.488.631zm2.578-68.845l-.287-2.042 17.268-2.427.287 2.042-7.771 1.092c.137 1.813.225 3.472.261 4.981l9.756-1.371.287 2.042-10.188 1.432c-.168 5.074-2.584 9.39-7.248 12.947l-1.717-1.558c4.346-3.324 6.614-7.02 6.807-11.086l-8.029 1.128-.287-2.042 8.461-1.189c-.035-1.51-.123-3.169-.26-4.981l-7.34 1.032zm4.065 32.012c-.344-.771-.846-1.837-1.506-3.197-.186-.478-.355-.864-.516-1.158l1.156-.541c.074.117.19.321.352.613.885 1.707 1.466 2.918 1.742 3.636l-1.228.647zm6.769 8.706c-.424-.509-1.084-1.235-1.979-2.184-.198-.161-.336-.299-.409-.416l1.199 8.541-1.727.243-1.2-8.541c-.396 2.202-1.002 4.149-1.82 5.841-.11-.363-.333-.9-.667-1.61-.102-.301-.189-.509-.264-.625 1.039-1.787 1.762-4.16 2.168-7.121l-2.85.4-.248-1.764 2.937-.413-1.147-8.17 1.728-.243 1.147 8.17 2.59-.364.248 1.764-2.59.364.364 2.6.759-.864c1.369 1.386 2.36 2.383 2.975 2.99l-1.214 1.402zm-.759-14.189c-.254 1.55-.559 3.14-.916 4.768l-1.359-.282c.415-1.635.72-3.226.915-4.768l1.36.282zm4.444-10.298c-2.18.369-3.396-.564-3.651-2.8l-1.043-7.427 2.071-.292.979 6.963c.059 1.255.744 1.756 2.062 1.509l2.072-.292c1.209-.17 1.763-.816 1.664-1.938.005-.379-.024-1.005-.089-1.881-.004-.44-.018-.755-.043-.94l.815.169c.306.084.759.178 1.36.282.035 1.51.044 2.614.023 3.31-.054 1.712-1.062 2.673-3.027 2.887l-3.193.45zm-3.87 11.259l-.209-1.485 4.835-.68-.274-1.949 1.9-.267.273 1.95 5.354-.752.209 1.485-5.354.752.209 1.485 4.835-.68.194 1.393-4.834.68.222 1.578 5.698-.801.209 1.485-12.778 1.796-.209-1.485 5.181-.728-.222-1.579-4.403.619-.195-1.393 4.403-.619-.209-1.486-4.835.681zm1.019 63.705l-.704-5.014 4.835-.68c-.579-.359-1.676-1.058-3.288-2.094l1.312-1.32c1.272.705 2.395 1.367 3.361 1.989l-1.385 1.425 3.799-.533-.561-3.992 2.158-.303.561 3.991 3.539-.498-1.551-1.013c.358-.365.463-.475.308-.327 1.185-1.175 2.005-2.017 2.462-2.522l1.711.896c-.809.935-1.727 1.916-2.756 2.942l4.921-.69.705 5.015-1.986.277-.456-3.249-15.367 2.16.455 3.249-2.073.291zm2.715-20.187c.304 2.166-.219 3.879-1.566 5.144l-.895-.728c.923-.949 1.3-2.233 1.132-3.851l-1.468.206-.432-3.062 2.85-.4c.071.493.198 1.391.379 2.691zm-.68-24.919l-1.578-11.233 10.791-1.517 1.176 8.355c.3 1.724-.408 2.739-2.126 3.044l-1.122.158c-.684.158-1.227.267-1.628.324-.194-.541-.425-1.14-.692-1.796.583-.02 1.424-.105 2.518-.259.986-.077 1.391-.543 1.211-1.401l-.104-.743-7.166 1.007.535 3.806-1.815.255zm1.528 49.15l-.822-5.849 13.643-1.918.822 5.85-5.785.812.3 2.137 7.426-1.045.234 1.672-7.425 1.044.312 2.229 9.238-1.3.234 1.671-20.55 2.889-.233-1.672 9.15-1.285-.312-2.229-7.426 1.043-.234-1.671 7.425-1.043-.3-2.136-5.697.801zm-1.098-59.246l.234 1.671 7.166-1.007-.234-1.671-7.166 1.007zm.431 3.064l.222 1.578 7.166-1.007-.222-1.578-7.166 1.007zm2.054 51.632l.377 2.691 9.67-1.357-.377-2.692-9.67 1.358zm6.933-95.513l-.184-1.3 17.096-2.402.183 1.299-7.598 1.068.155 1.114 8.895-1.25.587 4.178-1.813.255-.392-2.785-7.079.995.51 3.621-1.813.255-.509-3.621-7.08.995.379 2.692-1.812.255-.574-4.085 8.894-1.25-.157-1.114-7.688 1.08zm-.474 9.155l-.17-1.207 1.986-.279-.117-.835 1.555-.218.117.835 4.059-.57-.118-.835 1.555-.219.117.836 1.728-.243.17 1.207-1.728.243.3 2.135-2.763.389.155 1.114 3.714-.521.496 3.528-3.714.521.17 1.207 4.23-.595.17 1.207-4.23.595.287 2.042-1.641.23-.287-2.042-4.748.667-.17-1.207 4.748-.667-.17-1.207-3.713.522-.495-3.528 3.712-.522-.156-1.114-2.762.388-.301-2.135-1.986.278zm2.814-5.034l-.131-.928 4.835-.68.131.928-4.835.68zm.261 1.857l-.131-.929 4.836-.679.13.928-4.835.68zm.029 7.096l.208 1.485 2.245-.315-.209-1.485-2.244.315zm.437-4.416l.155 1.114 4.06-.57-.157-1.114-4.058.57zm.362 22.592l-.233-1.671 5.524-.776c-.216-.285-.627-.7-1.231-1.247-.539-.492-.912-.85-1.119-1.073l1.908-.836c.074.117.239.25.496.404 1.012.932 1.69 1.594 2.041 1.985l-1.23.646 4.922-.691c.893-1.577 1.493-2.733 1.801-3.472l2.164.359c-.139.272-.395.75-.768 1.433-.383.622-.643 1.069-.78 1.34l5.354-.752.233 1.671-8.548 1.201.287 2.042 7.512-1.056.248 1.764-7.512 1.056.287 2.042 9.064-1.274.235 1.671-20.203 2.839-.235-1.671 9.065-1.274-.287-2.042-7.339 1.03-.247-1.764 7.339-1.031-.287-2.042-8.461 1.189zm1.372 11.641l-.248-1.764 8.635-1.213c.03-.193.025-.444-.019-.755.013-.317.008-.569-.019-.755l2.071-.291c.07.496.082.999.036 1.51l8.895-1.25.246 1.764-8.373 1.177c1.281 2.03 4.42 2.849 9.414 2.464-.129.333-.271.795-.422 1.384-.13.333-.211.598-.24.792-5.057-.047-8.373-1.096-9.951-3.146-.731 2.312-3.672 4.365-8.818 6.163-.085-.178-.275-.498-.574-.96l-.676-1.042c5.102-1.285 7.852-3.028 8.245-5.229l-8.202 1.151zm4.045-30.691l-2.331.328.209 1.485 2.331-.328-.209-1.485zm-1.361 46.05l-.287-2.042 18.648-2.621.287 2.042-8.289 1.165 1.292 9.19 9.238-1.298.3 2.136-9.238 1.298 1.084 7.706-2.158.303-1.084-7.705-9.237 1.299-.302-2.135 9.238-1.298-1.291-9.191-8.201 1.151zm5.597 7.26c-1.461-1.625-2.938-3.152-4.432-4.584l1.373-1.518c1.558 1.485 3.088 2.974 4.59 4.467l-1.531 1.635zm.694-51.446c-.022 1.518-.386 3.115-1.088 4.792-.314-.146-.752-.337-1.313-.573-.24-.03-.394-.072-.458-.125 1.123-1.61 1.423-3.859.898-6.753l-.757-5.384 7.771-1.092 1.41 10.026c.273 1.539-.332 2.445-1.819 2.717-.229.032-.601.115-1.109.25l-1.208.17c-.085-.177-.182-.448-.291-.811-.177-.417-.307-.714-.389-.892.229-.032.578-.05 1.049-.053l1.036-.146c.747-.105 1.074-.499.979-1.179l-.223-1.578-4.488.631zm-2.457-11.205l-.131-.929 4.75-.667.129.929-4.748.667zm.261 1.856l-.131-.928 4.748-.667.131.928-4.748.667zm1.328 2.559l.272 1.95 4.403-.619-.273-1.95-4.402.619zm.575 4.085l.184 1.3 4.402-.619-.273-1.95-4.403.619.09.65zm5.064 93.064c-1.869.074-3.057-.863-3.564-2.812-.123-2.127.752-3.419 2.625-3.871 1.982-.09 3.209.906 3.678 2.985.105 2.006-.809 3.239-2.739 3.698zm-.743-5.291c-1.077.279-1.586 1.045-1.526 2.298.264 1.036.949 1.538 2.062 1.509 1.134-.286 1.685-.961 1.651-2.029-.292-1.223-1.019-1.814-2.187-1.778zm7.856-40.597c-1.072 1.982-2.182 3.904-3.327 5.77l-1.75-1.174c1.202-1.873 2.289-3.761 3.254-5.664l1.823 1.068zm-.168-59.566c-1.068-.922-2.092-1.725-3.067-2.409l1.101-1.574c1.032.676 2.08 1.444 3.142 2.304l-1.176 1.679zm.431 6.188c-.125-.045-.29-.18-.497-.404-1.232-.835-2.177-1.493-2.83-1.969l1-1.655c1.281.767 2.419 1.553 3.413 2.36l-1.086 1.668zm1.726 2.882c-.312 3.201-.56 6.043-.738 8.53l-1.903-.395c.36-3.27.579-6.108.651-8.518.246.093.791.206 1.633.339-.662-.097-.542-.081.357.044zm2.953 30.375c-.682.16-1.269.368-1.761.626l-.978-1.946c.311-.295.759-.864 1.345-1.704.649-1.227 1.196-2.346 1.642-3.355-1.439.203-2.576.457-3.414.764l-.865-1.772c.457-.505.814-1.092 1.074-1.76.672-1.482 1.457-3.613 2.358-6.391l2.077.371c-.856 2.267-1.866 4.681-3.032 7.243l2.75-.481c.483-1.141.926-2.181 1.321-3.121l1.857.686c-.912 2.275-2.344 5.252-4.291 8.934l4.411-1.188c.013.504.074 1.158.188 1.962-.338.111-.822.21-1.455.299-1.535.343-2.612.62-3.227.833zm-3.631-38.327l-.273-1.95 3.367-.473c-.401-.763-.883-1.895-1.445-3.395l1.859-.545c.109.364.332.9.668 1.61.352.835.623 1.522.817 2.063l-.087.012 2.158-.303.273 1.95-4.058.57.383 3.354 3.886-.546c.122.867.274 2.171.463 3.911.314 2.67.526 4.598.635 5.78.252 1.794-.428 2.806-2.039 3.032-.51.134-1.053.243-1.627.323l-.619-1.901 1.296-.182c.985-.077 1.386-.573 1.198-1.494-.053-.372-.106-.963-.162-1.776-.25-2.616-.453-4.48-.609-5.594l-2.245.315.065.464c.52 4.535.156 8.215-1.09 11.041l-1.664-1.186c1.16-2.183 1.498-5.417 1.014-9.705-.111-1.625-.312-3.49-.609-5.594l-1.555.219zm9.213 41.708c-1.809.505-4.26 1.229-7.355 2.169l-.531-1.913c2.883-.784 5.454-1.491 7.713-2.125l.131.928c.001.442.014.755.042.941zm-2.521 19.687l-1.267-9.005 15.974-2.245 1.266 9.005-11.828 1.663.89.064c-.315.676-.666 1.324-1.047 1.946l13.297-1.869c.087.619.211 1.927.375 3.923.062.875.121 1.498.175 1.869.342 2.854-.733 4.394-3.226 4.62-.453.125-1.397.291-2.837.492-.108-.363-.266-.847-.468-1.449-.093-.238-.177-.416-.251-.531.347-.049.838-.088 1.481-.113l1.207-.17c1.679-.174 2.396-1.125 2.152-2.859-.077-1.377-.188-2.592-.337-3.645l-2.763.388c-.358 3.712-2.233 6.877-5.62 9.5-.579-.36-1.162-.752-1.75-1.174 3.258-2.288 5.054-4.97 5.385-8.046l-2.937.413c-.969 3.544-3.467 6.451-7.49 8.721l-.198-.161c-.489-.562-.93-.975-1.317-1.234 3.599-1.957 5.91-4.301 6.936-7.034l-3.107.437c-.896 1.136-1.91 2.289-3.037 3.457-.424-.509-.929-.973-1.517-1.396 2.103-1.747 3.644-3.731 4.622-5.952l-2.763.385zm2.318-53.667l-.261-1.857 3.54-.498-.184-1.299 1.967-2.927-4.835.68-.195-1.393-.475 1.013c-.464-.375-1.019-.771-1.663-1.187 1.095-2.236 1.854-4.772 2.275-7.609h2.024c-.206 1.039-.416 2.046-.631 3.023l5.438-.765.262 1.857-6.217.874c-.242.792-.541 1.591-.896 2.398l6.734-.946.273 1.95-2.173 3.335.104.743 3.279-.461.262 1.857-3.281.461.641 4.549c.291 1.663-.396 2.612-2.064 2.846-.799.174-1.541.312-2.231.408-.026-.186-.119-.425-.276-.718-.138-.549-.252-.944-.344-1.183l1.986-.279c.871-.06 1.222-.488 1.052-1.284l-.574-4.085-3.537.497zm5.127 35.181c-2.236.376-3.482-.552-3.738-2.788l-1.291-9.191 8.029-1.128-.795-5.663-8.375 1.177-.287-2.042 10.445-1.468 1.37 9.748-8.028 1.128.926 6.592c.076 1.378.802 1.938 2.174 1.683l3.195-.449c1.265-.178 1.902-.866 1.91-2.067.076-.705.09-1.653.039-2.846.734.213 1.432.367 2.091.464.1 1.122.073 2.2-.074 3.229-.036 1.835-1.155 2.845-3.36 3.029l-4.231.592zm-6.39 10.954l.272 1.95 11.916-1.675-.273-1.949-11.915 1.674zm.481 3.435l.287 2.042 11.916-1.675-.287-2.042-11.916 1.675zm11.011-60.853l-.261-1.856 2.504-.352c.131-1.154.242-2.243.333-3.266l1.926-.082c-.006.38-.063 1.02-.171 1.917-.104.521-.167.908-.188 1.163l4.403-.619.261 1.857-4.921.691c-.407 2.961-.732 5.026-.979 6.196l2.504-.352-.641-4.549 1.642-.23.64 4.549 2.331-.328.261 1.857-2.331.328.417 2.971 2.538-.735c.047.751.109 1.405.188 1.962l-2.465.63.639 4.549-1.899.267-.612-4.363c-1.527.404-2.941.792-4.238 1.164l-.46-2.018c.401-.057 1.056-.21 1.96-.465 1.084-.214 1.91-.394 2.478-.538l-.442-3.156-3.973.558-.261-1.857.142-.872c.252-1.55.473-3.316.664-5.3l-1.989.279zm24.294 29.364c-4.331-1.157-7.743-2.888-10.237-5.188-1.725 2.767-4.631 5.479-8.718 8.136-.084-.178-.276-.497-.575-.96-.292-.4-.508-.686-.647-.856 4.335-2.564 7.309-5.413 8.924-8.544l2.443-.154c-.05.07-.118.206-.206.408-.1.141-.169.276-.207.408 2.602 2.223 5.921 3.712 9.961 4.47l-.738 2.28zm-15.231 8.767c-.312 2.38-.708 4.36-1.189 5.942-.619-.229-1.259-.391-1.917-.488.624-2.233 1.024-4.183 1.202-5.85l1.904.396zm10.394-1.839c-.579-.359-1.175-.624-1.784-.791l1.768-3.089-11.311 1.59-.262-1.857 13.556-1.905.274 1.949-2.241 4.103zm1.85-36.92c-.179.404-.428 1.134-.749 2.188-2.612-1.462-4.727-3.343-6.34-5.642-1.051 2.547-2.646 4.98-4.785 7.3-.149-.23-.475-.658-.973-1.284-.198-.161-.336-.299-.41-.416 2.582-2.508 4.265-5.364 5.047-8.567l2.111-.013-.301.989c1.764 2.532 3.897 4.346 6.4 5.445zm-7.831 70.816c-.88 1.26-1.61 2.53-2.192 3.812l-1.437-2.069c.357-.368.905-1.074 1.639-2.125.333-.551.572-.933.72-1.143l-.991-7.056-2.504.352-.287-2.042 4.576-.644 1.266 9.005c1.396 1.572 3.271 2.191 5.632 1.859l10.966-1.541c-.161.527-.297 1.24-.403 2.14-1.036.146-2.825.364-5.366.66-2.533.355-4.321.574-5.366.66-2.537.356-4.62-.267-6.253-1.868zm-1.68-13.207c-.593-.864-1.688-2.192-3.29-3.987l1.583-1.264c.556.617 1.427 1.598 2.615 2.946.415.447.691.754.834.924l-1.742 1.381zm2.656-13.075c-2.007.344-3.124-.507-3.354-2.558l-.6-4.271 1.898-.267.535 3.807c.09 1.061.735 1.473 1.937 1.243l3.106-.437c1.283-.055 1.909-.614 1.877-1.684.111-.457.136-1.123.071-1.999.726.151 1.389.278 1.99.383-.017 1.138-.097 2.034-.238 2.684-.089 1.464-1.086 2.298-2.994 2.503l-4.228.596zm1.167-29.249c-2.017.283-3.17-.628-3.466-2.732l-1.331-9.47 1.898-.267.574 4.085c1.693-1.311 3.271-2.827 4.731-4.547l1.443 1.501c-1.896 1.97-3.85 3.729-5.862 5.273l.379 2.692c.099 1.122.747 1.566 1.948 1.335l1.985-.279c1.15-.162 1.71-.776 1.678-1.845.033-1.014 0-2.083-.099-3.205.726.151 1.389.278 1.991.383.045 1.572.012 2.807-.097 3.706.004 1.703-.973 2.693-2.929 2.967l-2.843.403zm-.663 15.924c-.82-.832-1.672-1.659-2.55-2.482l1.323-1.228c.598.484 1.435 1.219 2.512 2.204-.075-.115-.009-.061.198.161l-1.483 1.345zm1.931 8.723c-1.162-1.162-2.347-2.289-3.557-3.382l1.312-1.32c.661.539 1.659 1.376 2.994 2.514.34.331.575.551.709.658l-1.458 1.53zm1.972 20.945c.43 3.475-.024 6.505-1.363 9.091l-.397-.323c-.776-.521-1.291-.827-1.538-.92.787-1.498 1.241-2.856 1.364-4.073.131-1.154.027-2.938-.312-5.352l-.835-5.942c2.982-.481 6.537-1.297 10.661-2.445l.979 1.946c-2.201.626-5.328 1.349-9.38 2.17l.548 3.899 10.188-1.432.273 1.95-3.713.522 1.227 8.727-2.071.292-1.227-8.727-4.404.617zm6.41-19.567c-.765-.839-1.843-2.044-3.236-3.616-.274-.277-.481-.5-.623-.67l1.411-1.24c.82.832 1.928 2.034 3.322 3.604.282.339.489.563.623.67l-1.497 1.252zm1.556-27.221l-2.559-18.196 2.331-.328c.022-.255.062-.608.116-1.058.134-.713.21-1.639.226-2.777l2.212.068c-.134 1.155-.291 2.313-.48 3.476l3.886-.546 2.531 18.01-1.899.267-.248-1.764-4.402.619.272 1.95-1.986.279zm-.284-16.433l.718 5.106 4.402-.619-.717-5.106-4.403.619zm1.004 7.149l.744 5.292 4.403-.619-.744-5.292-4.403.619zm3.493 37.967l-1.449-10.305 8.203-1.153 1.448 10.305-1.899.267-.196-1.393-4.402.619.195 1.393-1.9.267zm.272-13.103l-1.162-8.263 14.852-2.087 1.161 8.263-14.851 2.087zm.44 4.388l.757 5.384 4.403-.619-.757-5.385-4.403.62zm.744-10.992l.612 4.363 10.706-1.505-.612-4.363-10.706 1.505zm9.587-11.31l-3.626.51c-.154-.673-.403-1.396-.745-2.167.756-.044 1.883-.17 3.38-.38 1.629-.103 2.326-.99 2.092-2.661-.076-1.376-.398-4.299-.968-8.763-.126-1.308-.227-2.24-.305-2.797l-5.182.728c-.151.59-.413 1.447-.782 2.572l-.361 1.187c-.57-.299-1.198-.589-1.884-.872 1.008-2.854 1.688-5.728 2.047-8.619l2.051.185c-.062.388-.162.938-.296 1.651l-.283 1.744 6.39-.898c.558 3.961 1.094 8.62 1.611 13.974.374 2.66-.673 4.197-3.139 4.606zm12.32 54.447c-.561 1.025-.931 1.74-1.107 2.144-5.466-2.134-8.997-5.961-10.594-11.481-.032 5.623-2.416 10.375-7.152 14.259-.143-.169-.383-.419-.723-.75-.481-.5-.797-.867-.946-1.098 5.082-3.933 7.413-9.057 6.996-15.374-.085-1.439-.288-3.304-.61-5.594l2.245-.316.37 3.262c1.723 8.089 5.613 13.002 11.668 14.738l-.147.21zm-14.861-60.622c-.351-.392-.872-.981-1.568-1.768-.99-1.187-1.762-2.087-2.316-2.704l1.396-1.333c.489.562 1.215 1.344 2.179 2.345.821.831 1.443 1.501 1.867 2.01l-1.558 1.45zm2.203 35.687l-1.448-10.305 8.202-1.152 1.449 10.305-1.813.255-.196-1.393-4.488.631.195 1.393-1.901.266zm.713-8.715l.757 5.385 4.489-.631-.757-5.385-4.489.631zm4.933-39.529l-.247-1.764 9.583-1.347-.978-1.945 2.191-.687c.074.117.154.263.238.44.242.472.506 1.098.792 1.877l8.808-1.238.247 1.764-20.634 2.9zm3.84 17.921l-2.112-15.04 5.094-.716-1.895-2.195 1.821-.824c.142.169.415.447.821.831.705.848 1.163 1.384 1.37 1.606l-1.17.448 4.575-.643c.543-1.149 1.032-2.259 1.47-3.331l1.978.29c-.12.396-.387 1.001-.801 1.816l-.4.909 5.095-.716 1.656 11.791c.385 1.902-.377 2.956-2.284 3.162l-2.851.4c-.22-.727-.426-1.36-.619-1.901.756-.044 1.597-.129 2.518-.259 1.045-.085 1.477-.555 1.299-1.413l-1.37-9.748-14.16 1.99 1.866 13.276-1.901.267zm.999 15.213l-.272-1.949 3.712-.522-.47-3.342c-.346.049-.89.158-1.627.324-.69.097-1.234.206-1.628.323-.034-.247-.141-.58-.315-.997-.119-.424-.221-.726-.304-.904 3.82-.789 6.61-1.403 8.369-1.839l.706 1.889c-1.086.216-2.194.467-3.327.751l.494 3.528 3.627-.509.273 1.949-3.626.51.431 3.064.573-.933c.265.216.657.508 1.18.876 1.108.791 1.929 1.402 2.458 1.832l-1.072 1.76-.993-.807c-.871-.761-1.534-1.299-1.988-1.614l1.292 9.191-1.898.267-1.396-9.934c-.502 2.28-1.342 4.449-2.519 6.507-.345-.771-.713-1.509-1.104-2.211 1.341-2.144 2.302-4.709 2.881-7.695l-3.457.485zm.973-23.726c-.31-.525-.729-1.001-1.258-1.433 1.315-1.068 2.71-2.431 4.18-4.09l1.478 1.118c-1.021 1.09-1.943 2.041-2.769 2.851l8.288-1.165.899 6.406-8.375 1.177-.899-6.406-1.544 1.542zm5.402 65.358l-2.558-18.196 2.331-.328c.021-.254.061-.607.116-1.058.134-.712.21-1.639.226-2.777l2.211.068c-.133 1.155-.291 2.313-.479 3.476l3.886-.546 2.531 18.011-1.899.267-.248-1.764-4.403.619.273 1.95-1.987.278zm-1.465-62.409l4.922-.692-.443-3.156-4.921.691.442 3.157zm1.18 45.976l.719 5.106 4.401-.619-.717-5.106-4.403.619zm1.004 7.149l.743 5.292 4.403-.619-.744-5.292-4.402.619zm5.682-57.923c-1.596-.912-3.373-1.86-5.331-2.848l.854-1.445c.997.427 2.287 1.036 3.865 1.823.637.353 1.11.601 1.427.746l-.815 1.724zm-.455 36.814l-2.675-19.032 9.15-1.286 2.662 18.938-1.984.279-.274-1.95-5.267.74.287 2.042-1.899.269zm-.501-17.349l1.826 12.997 5.267-.74-1.826-12.997-5.267.74zm9.811 45.409l-3.626.509c-.153-.673-.402-1.396-.744-2.167.756-.044 1.883-.17 3.38-.38 1.629-.104 2.326-.99 2.092-2.661-.076-1.376-.399-4.298-.968-8.763-.126-1.308-.228-2.24-.306-2.797l-5.181.728c-.152.589-.413 1.447-.783 2.571l-.36 1.187c-.57-.298-1.198-.589-1.885-.872 1.009-2.854 1.689-5.728 2.048-8.619l2.051.185c-.063.388-.162.938-.296 1.651l-.283 1.744 6.389-.898c.559 3.962 1.094 8.62 1.612 13.974.372 2.662-.675 4.198-3.14 4.608zm-2.541-6.175l-1.567-1.768c-.99-1.187-1.762-2.087-2.317-2.704l1.397-1.333c.489.563 1.215 1.344 2.179 2.345.821.832 1.443 1.501 1.867 2.01l-1.559 1.45zm5.127-59.547c-1.497-3.134-3.008-6.141-4.525-9.02l1.722-.905c.851 1.458 2.054 3.751 3.607 6.877.427.951.758 1.63.991 2.039l-1.795 1.009zm-2.924 6.754l-.273-1.95 6.476-.91-2.608-18.567 2.071-.292 2.609 18.568 3.54-.498-2.609-18.567 2.071-.292 2.61 18.567 6.475-.91.274 1.949-20.636 2.902zm2.372 11.895l-.248-1.764 4.059-.57-.365-2.6 1.727-.243.366 2.6 3.28-.461.248 1.764-3.281.461.287 2.042.562-1.025c.437.191 1.061.452 1.869.778.562.238.998.428 1.313.573l-.741 1.619c-.941-.436-1.913-.867-2.911-1.295l.432 3.063-1.729.243-.509-3.621c-.771 1.623-1.906 3.141-3.41 4.55-.525-.81-.925-1.352-1.197-1.63 1.915-1.405 3.266-3.077 4.049-5.019l-3.801.535zm18.374 6.695c-2.119 4.969-7.025 8.687-14.721 11.157-.093-.24-.354-.646-.787-1.215-.216-.286-.367-.517-.449-.694 6.997-1.992 11.506-4.993 13.526-9.001l-8.721 1.226c-1.026 1.47-2.346 2.949-3.954 4.438-.549-.553-1.056-1.019-1.519-1.396 2.567-2.19 4.424-4.439 5.567-6.747l1.951.104c-.268.605-.542 1.15-.827 1.631l9.67-1.359.264 1.856zm-13.325 26.129l-1.443-1.501c2.622-2.641 4.474-5.33 5.557-8.071l2.225.161c-.195.28-.422.754-.682 1.421-.09.202-.153.37-.192.5l8.288-1.165.234 1.671-2.126 3.044 5.008-.704 1.07 7.613-8.03 1.128c-.492 3.604-3.102 6.747-7.831 9.432-.197-.161-.548-.555-1.046-1.178-.216-.286-.391-.482-.521-.589 4.182-1.975 6.625-4.434 7.327-7.373l-6.043.849-.874-6.22-.921.982zm5.084-20.237c-.703-.406-1.662-.965-2.878-1.679-.637-.351-1.115-.631-1.438-.839l1.212-1.401c.941.436 2.305 1.16 4.091 2.17-.125-.045.004.032.385.23l-1.372 1.519zm6.325 13.711l-6.994.983c-.617 1.033-1.33 2.018-2.139 2.951l7.08-.995 2.053-2.939zm-8.453 5.637l.574 4.085 4.662-.655c.049-.069.062-.198.034-.383.04-.131.057-.229.048-.291.024-1.076-.021-2.236-.138-3.483l-5.18.727zm2.182-33.367l-.248-1.764 3.107-.437-.364-2.6 1.812-.255.365 2.6 4.316-.607.248 1.764-4.059.57c1.336 1.58 3.107 2.688 5.311 3.325-.081.264-.234.633-.462 1.106-.071.327-.151.589-.24.791-2.057-.847-3.587-1.924-4.594-3.236l.535 3.807-1.812.254-.534-3.806c-.606 1.538-1.661 3.011-3.165 4.421l-.847-1.017c-.208-.222-.351-.392-.424-.508 1.76-1.256 3.061-2.859 3.901-4.809l-2.846.401zm5.365-28.887c-.498 2.721-1.239 6.013-2.224 9.875l-1.93-.581c.88-3.342 1.596-6.598 2.147-9.769l2.007.475zm3.225 74.373c-1.949.336-3.025-.427-3.228-2.292l-.55-3.899 1.986-.279.47 3.342c.023 1.007.637 1.393 1.836 1.162l2.851-.4c1.101-.093 1.645-.61 1.63-1.554-.025-.186-.037-.468-.031-.848.002-.819-.003-1.481-.015-1.986.182.038.511.086.988.145.486.121.82.201 1.003.238.09 1.062.061 2.107-.089 3.137-.07 1.587-.974 2.471-2.709 2.653l-4.142.581zm1.488-13.842l-5.009.704c.014 1.766.007 2.966-.021 3.601l.039.278c-.04.133-.056.23-.047.291l5.611-.789-.573-4.085zm4.46-66.174c-1.109 2.555-2.531 4.964-4.269 7.227-.065-.053-.142-.169-.225-.347-.394-.702-.696-1.195-.912-1.481 1.491-1.914 2.664-4.003 3.521-6.27l1.885.871zm-.924 21.62l-1.317-9.376c-.188.343-.496.859-.927 1.55-.245.351-.412.626-.5.828-.094-.238-.256-.563-.489-.973-.194-.541-.365-.926-.515-1.158 1.425-1.967 2.666-4.413 3.723-7.34l1.638 1c-.161.529-.469 1.266-.922 2.212-.219.537-.396.94-.534 1.211l1.657 11.79-1.814.256zm.524 10.64l-.301-2.135 18.045-2.536.301 2.135-7.856 1.104 2.035 14.483 9.065-1.274.286 2.042-20.376 2.864-.287-2.043 8.979-1.262-2.034-14.483-7.857 1.105zm1.28-28.502l-.261-1.856 2.59-.364-.404-2.878 1.727-.243.404 2.878 2.677-.376.262 1.856-2.677.376.417 2.971 3.022-.425.261 1.857-7.856 1.104-.262-1.857 3.108-.437-.417-2.971-2.591.365zm.965 9.994l-.248-1.764 3.021-.425-.326-2.321 1.727-.243.326 2.321 2.936-.413.248 1.764-2.936.413.457 3.249c1.2-.23 2.333-.517 3.401-.856l.261 1.856c-1.422.326-3.459.865-6.112 1.617-1.019.269-1.812.475-2.378.618l-.521-1.82 3.66-.893-.496-3.528-3.02.425zm1.198 51.749l-.273-1.95 2.851-.4-.496-3.528-1.209.17c-.567.143-.995.234-1.282.275-.162-.735-.335-1.34-.521-1.82 1.719-.304 4.027-.787 6.929-1.447l.605 1.808-.259.037c-.731.229-1.558.408-2.478.538l.521 3.713 2.59-.364.274 1.949-2.59.364.364 2.6.207-.408c.265.216.715.5 1.353.852.91.629 1.561 1.075 1.949 1.335l-.803 1.817c-.795-.646-1.62-1.287-2.472-1.925l1.292 9.191-1.813.255-1.316-9.377c-.403 2.14-.991 4.021-1.76 5.644-.345-.771-.703-1.447-1.077-2.026 1.19-2.376 1.945-4.943 2.263-7.702l-2.849.399zm5.917-64.394l-.274-1.949 5.526-.777.272 1.95-5.524.776zm.642 6.443l-.262-1.857 6.303-.886.262 1.857-1.985.279 1.356 9.655c.227 1.609-.434 2.554-1.979 2.834l-2.245.315c-.025-.186-.127-.488-.303-.904-.128-.488-.233-.819-.316-.997l.691-.097c.525-.012.929-.068 1.208-.17.862-.122 1.222-.488 1.078-1.099l-1.306-9.284-2.502.354zm2.222 61.544l-1.278-9.098 6.13-.862c.494-1.078 1.043-2.608 1.645-4.586l2.092.464c-.655 1.606-1.21 2.884-1.663 3.831l3.021-.425 1.278 9.098-3.108.437.719 5.106c.063.875.493 1.223 1.292 1.049l.432-.061c.699-.036 1.03-.396.992-1.086.013-.317-.024-1.005-.114-2.067.004-.379-.001-.63-.019-.755.601.105 1.184.276 1.744.512.056.813.08 1.82.072 3.02-.098 1.401-.865 2.204-2.304 2.406l-.949.134c-1.776.312-2.771-.496-2.98-2.421l-.783-5.57-1.985.279.064.464c-.022.256-.024.446-.009.569.535 3.396-.769 6.229-3.91 8.502-.144-.169-.388-.452-.735-.844-.341-.331-.581-.581-.722-.75 2.817-1.658 3.971-3.903 3.456-6.734l-.054-.372c.022-.254.026-.444.01-.569l-2.334.329zm1.572-9.498c-.292-.4-.969-1.251-2.032-2.555-.216-.285-.391-.48-.521-.589l1.708-.998c.83.894 1.678 1.911 2.542 3.051l-1.697 1.091zm-.676 2.083l.73 5.199 7.425-1.043-.73-5.199-7.425 1.043zm8.405-44.298l-2.688-19.125 7.425-1.043 2.65 18.846-1.899.267-.234-1.671-3.626.51.272 1.949-1.9.267zm-.527-17.535l.811 5.756 3.625-.51-.809-5.756-3.627.51zm1.07 7.613l.822 5.849 3.625-.51-.821-5.849-3.626.51zm1.115 25.519l-.3-2.135 2.418-.339-.81-5.756 1.898-.267.811 5.756 2.244-.315.301 2.135-2.245.315 1.03 7.334c.646-.406 1.3-.782 1.955-1.126.096.682.239 1.292.434 1.833 1.287-1.696 2.051-3.791 2.286-6.286l-2.59.364-.287-2.042 7.631-6.469-7.771 1.092-.262-1.857 10.966-1.541.301 2.135-7.56 6.364 9.498-1.334.934 9.146c.374 2.66-.509 4.11-2.646 4.348l-2.577.457c-.093-.24-.243-.692-.454-1.356-.109-.363-.174-.607-.19-.73.526-.012 1.309-.089 2.345-.235 1.282-.055 1.845-.858 1.687-2.414-.048-.751-.198-2.245-.454-4.48-.108-1.183-.2-2.055-.278-2.612l-2.245.315c.059 5.421-1.348 9.624-4.214 12.616-.474-.439-1.037-.896-1.688-1.372 2.679-2.648 4.043-6.311 4.09-10.989l-2.417.34c-.16 3.873-1.523 7.125-4.088 9.757-.124-.044-.355-.234-.695-.565l-.896-.726c.467-.444.895-.945 1.285-1.506-.928.509-2.312 1.304-4.155 2.382-.695.477-1.208.802-1.535.974l-.818-2.063 2.619-1.41-1.135-8.077-2.423.339zm6.147 31.153c-.42 1.195-.792 2.1-1.115 2.713l-.455-1.356c-.26-.594-.439-1.042-.541-1.344 1.406-3.353 2.351-7.083 2.829-11.19l2.064.278c-.218 1.798-.559 3.55-1.022 5.256l2.322 16.525-1.898.267-1.723-12.254c-.081.263-.234.632-.461 1.105zm-1.34-62.143l-.287-2.042 7.08-.995-.665-4.735 1.985-.279.666 4.734 2.59-.364.287 2.042-2.59.364 1.644 11.698c.361 2.158-.488 3.413-2.552 3.767l-3.367.473c-.084-.177-.178-.417-.277-.718-.203-.603-.388-1.082-.555-1.437.584-.02 1.624-.133 3.122-.344 1.272-.117 1.796-.788 1.563-2.019l-1.564-11.141-7.08.996zm4.283 7.918c-.844-1.396-1.979-3.003-3.407-4.823l1.497-1.252c1.213 1.534 2.4 3.103 3.565 4.706l-1.655 1.369zm15.233 49.493l-.36 1.187c-3.215-1.568-5.72-3.519-7.515-5.855-1.296 2.896-3.243 5.537-5.843 7.921-.317-.585-.759-1.219-1.323-1.897 3.051-2.511 5.038-5.503 5.958-8.979l2.357-.142-.374 1.094c2.06 2.551 4.551 4.41 7.475 5.576-.081.265-.206.63-.375 1.095zm-8.828 4.838c.8 4.432.088 7.94-2.131 10.524-.065-.054-.162-.104-.285-.149-.396-.323-.947-.688-1.649-1.093 2.058-2.056 2.719-5.083 1.98-9.083l-.404-2.878 2.071-.291.418 2.97zm5.415 9.085l-1.773-12.626 2.071-.292 1.773 12.626-2.071.292zm3.434-58.364l-1.787-12.719c-.566 1.405-1.229 2.761-1.982 4.065l-.44-1.263c-.203-.602-.352-1.023-.442-1.263 1.646-3.323 2.796-7.051 3.447-11.183l2.077.371c-.341 1.752-.743 3.481-1.208 5.187l2.322 16.525-1.987.28zm-1.269 10.424l-.272-1.95 6.993-.983.273 1.95-2.504.352.757 5.385 2.244-.315.262 1.856-2.245.315.797 5.663c.277-.101.691-.287 1.242-.553l1.257-.46c.087.619.211 1.296.372 2.03-.723.291-1.858.767-3.408 1.426-1.502.59-2.645 1.034-3.423 1.333l-.633-1.994 2.671-1.039-.86-6.127-2.417.34-.261-1.857 2.417-.34-.758-5.384-2.504.352zm3.099-23.083l-.56-2.099 4.67-1.225c-.468-2.079-.928-4.508-1.376-7.286l2.072-.291c.349 2.476.765 4.815 1.251 7.019l7.381-1.984.474 2.111-7.468 1.996c.934 3.72 1.925 6.389 2.975 8.008.917 1.513 1.831 2.172 2.744 1.981.698-.036 1.09-.594 1.173-1.68.021-.254.047-.7.076-1.336.002-.82.01-1.389.022-1.708.306.084.759.177 1.361.282.237.03.419.068.544.113.055.813.011 1.956-.135 3.427-.151 1.851-1.003 2.887-2.559 3.105-1.784.251-3.409-.657-4.873-2.723-1.349-2.083-2.44-5.053-3.276-8.912l-4.496 1.202zm1.367 54.187l-.274-1.95 2.591-.364-.613-4.363 1.899-.267.613 4.363 2.331-.328.272 1.95-2.331.328.313 2.228.146-.21c.39.262.978.684 1.764 1.267.711.468 1.228.807 1.551 1.013 1.697-.869 3.127-1.765 4.289-2.686-.977-.683-1.901-1.626-2.774-2.829-.463.886-1.036 1.819-1.72 2.798-.424-.508-.873-.981-1.345-1.42 1.521-2.107 2.641-4.599 3.352-7.477l2.125.08c-.091.202-.188.532-.302.989-.17.466-.295.832-.374 1.094l7.425-1.043.273 1.949c-.824 2.073-1.946 3.904-3.366 5.491 1.552.603 3.424.972 5.614 1.104-.032.194-.1.551-.202 1.07-.104.521-.199.88-.288 1.082-2.812-.362-5.009-.968-6.596-1.819-1.637 1.304-3.714 2.605-6.229 3.905-.075-.115-.159-.292-.251-.533l-.337-.521-.269.605-.694-.565c-.208-.223-.704-.626-1.491-1.21l1.618 11.512-1.899.267-1.618-11.512c-.319 2.317-.853 4.38-1.596 6.188-.177-.416-.449-1.104-.817-2.063-.093-.238-.146-.42-.164-.544.863-2.205 1.52-4.853 1.965-7.945l-2.591.366zm4.032-25.767l-.272-1.949 12.863-1.808.274 1.95-4.059.57 1.188 8.448c.029.627.36.896.994.807l.689-.097c.634-.089.936-.447.906-1.074-.014-.502-.065-1.505-.159-3.007l1.374.375c.182.038.301.053.358.044.003.442.017 1.167.041 2.172.003.442.018.755.044.94-.031 1.456-.766 2.285-2.204 2.487l-1.295.182c-1.604.288-2.493-.407-2.67-2.086l-1.253-8.913-2.504.352c.061.434.114 1.025.161 1.776.122.868.175 1.459.162 1.776.438 3.536-.685 6.628-3.362 9.277-.208-.224-.605-.547-1.193-.968l-.596-.484c2.52-2.12 3.574-4.635 3.165-7.545-.016-.944-.122-2.127-.322-3.552l-2.33.327zm.222-6.563l-.274-1.95 10.534-1.48.272 1.949-10.532 1.481zm5.237-27.927l-.298-.242c-1.573-1.167-2.811-2.034-3.712-2.603l1.1-1.575c1.216.714 2.575 1.626 4.083 2.74l-1.173 1.68zm1.028 74.967l-1.239-8.819 10.792-1.517 1.239 8.819-1.899.267-.183-1.3-6.993.983.184 1.3-1.901.267zm3.529-14.98c1.069-1.159 2.01-2.617 2.818-4.373l-6.13.862c-.05.07-.068.137-.061.198 1.026 1.434 2.149 2.538 3.373 3.313zm-2.608 7.751l.562 3.992 6.992-.983-.562-3.992-6.992.983zm11.781-53.478c-1.869.073-3.058-.865-3.564-2.813-.123-2.127.752-3.419 2.625-3.872 1.982-.089 3.209.907 3.678 2.986.105 2.005-.809 3.239-2.739 3.699zm-2.169 25.313l-.248-1.764 2.763-.388-2.062-14.668 15.367-2.16 2.062 14.668 2.764-.388.247 1.764-20.893 2.936zm1.426-30.604c-1.077.278-1.586 1.043-1.526 2.297.264 1.037.949 1.538 2.062 1.509 1.134-.287 1.684-.961 1.651-2.031-.289-1.221-1.019-1.813-2.187-1.775zm7.581 31.421c-2.925 1.737-5.271 3.013-7.033 3.829-.143-.169-.329-.459-.562-.868-.291-.401-.509-.686-.648-.855 2.551-1.054 4.909-2.236 7.073-3.55l1.17 1.444zm-6.406-16.14l.287 2.042 11.569-1.626-.287-2.042-11.569 1.626zm4.409 48.253l-1.695-12.069c-.082.264-.233.633-.461 1.106-.388 1.001-.694 1.74-.922 2.212l-.455-1.356c-.251-.533-.428-.949-.528-1.251 1.341-3.407 2.23-7.097 2.671-11.073l2.063.278c-.257 1.929-.609 3.81-1.057 5.639l2.283 16.247-1.899.267zm-3.913-44.725l.3 2.135 11.569-1.626-.3-2.135-11.569 1.626zm.509 3.621l.3 2.135 11.569-1.626-.3-2.135-11.569 1.626zm.509 3.62l.301 2.135 11.568-1.626-.3-2.135-11.569 1.626zm20.972 32.671c-.268.606-.464 1.296-.589 2.071-3.745.084-6.675-.293-8.788-1.132-1.014 1.151-2.613 2.292-4.803 3.42-.357-.456-.847-1.017-1.47-1.687 2.265-1.014 3.731-1.85 4.401-2.512-1.052-.799-2.034-1.733-2.947-2.804l1.225-1.309c.913 1.071 1.884 1.913 2.909 2.526.443-1.009.653-2.237.626-3.686l-5.438.764-.952-6.777 5.525-.777-.313-2.228-6.217.874-.261-1.856 6.216-.874-.292-2.704 1.985-.279.378 2.692 6.391-.898.261 1.857-6.476.91.312 2.228 5.611-.789 1.031 7.334-1.899.267-.078-.557-3.886.546c.123 2.129-.12 3.742-.729 4.836 1.498.612 4.254.792 8.267.544zm-9.596-6.888l-.171-1.207-.3-2.135-3.627.509.47 3.342 3.628-.509zm4.847-19.353c-1.938-.423-4.593-.933-7.964-1.532l.668-1.514c.841.135 2.097.306 3.77.511 1.911.236 3.26.425 4.042.568l-.516 1.967zm-3.017 17.96l.156 1.114 3.713-.522-.47-3.342-3.713.521.314 2.229z"/></svg>