<svg xmlns="http://www.w3.org/2000/svg" width="640" height="592" viewBox="0 0 640 592"><path fill="#F4D3E4" stroke="#F8D5E6" stroke-miterlimit="10" d="M0 49.729l346.777-48.735 9.603 68.327-356.38 50.087z"/><path fill="#E4597F" d="M37.458 77.819l-2.718-19.341 9.893-1.39c.167-.547.297-1.354.393-2.422.028-.661.085-1.128.169-1.405l7.457-.456-.645 3.246 16.908-2.376 2.718 19.341-34.175 4.803zm-1.692 7.536l-.707-5.029 39.572-5.562.707 5.029-16.548 2.326.353 2.514 14.57-2.047.652 4.642-14.57 2.048.354 2.514 18.347-2.579.707 5.029-43.349 6.092-.707-5.028 18.347-2.579-.354-2.515-14.569 2.048-.652-4.642 14.569-2.047-.353-2.515-16.369 2.301zm6.004-22.54l.326 2.321 21.405-3.008-.326-2.321-21.405 3.008zm.897 6.383l.354 2.514 21.405-3.008-.353-2.514-21.406 3.008zm40.778-5.534l-1.604-11.411 17.449-2.453-1.83-3.885 7.653-1.667c.155.243.33.613.523 1.11.19.5.654 1.618 1.389 3.355l16.009-2.25 1.604 11.412-6.475.91-.816-5.802-28.24 3.969.815 5.803-6.477.909zm8.187.821l-.707-5.028 25.542-3.59.707 5.029-7.555 1.062c-.323.311-.88.715-1.663 1.22-.305.437-1.123 1.144-2.453 2.12 1.296 1.396 2.396 2.689 3.296 3.876 4.146-2.685 7.965-5.523 11.46-8.514l3.999 4.96-5.986 4.392c2.439 5.18 6.109 8.676 11.011 10.483-.305.438-.695 1.152-1.167 2.136-1.104 1.733-1.89 3.092-2.361 4.08-5.804-2.997-9.928-7.545-12.373-13.646l-1.69 1.026c1.028 2.093 1.731 4.49 2.112 7.198.934 5.786-1.106 9.096-6.125 9.934l-6.475.91c-.248-.886-.789-2.126-1.623-3.716-.211-.63-.396-1.063-.55-1.304-4.166 2.558-7.624 4.489-10.375 5.797-.991-1.833-2.085-3.522-3.279-5.062 7.864-3.207 14.485-7.426 19.866-12.654l-.757-1.471c-4.704 3.949-10.259 7.491-16.666 10.626-.837-1.59-1.938-3.343-3.307-5.255 6.856-2.541 12.484-5.566 16.883-9.079l-.91-1.252c-3.021 2.002-7.47 4.273-13.351 6.807-.175-.37-.496-.917-.964-1.64-.855-1.72-1.576-2.934-2.163-3.641 6.929-2.025 12.409-4.373 16.436-7.043l-8.812 1.239zm15.848 17.496l-.19-1.354c-2.606 2.339-5.249 4.42-7.927 6.242.855.012 1.876-.131 3.058-.43l1.619-.228c2.915-.143 4.06-1.555 3.44-4.23zm32.759-30.045c-2.606-2.001-5.311-3.855-8.119-5.565l3.458-5.417c.81.545 2.282 1.454 4.419 2.731 1.602.958 2.809 1.71 3.619 2.253l-3.377 5.998zm.741 13.11c-2.466-1.888-5.113-3.75-7.939-5.59l3.458-5.417 2.403 1.437c1.324.735 3.213 1.983 5.662 3.741l-3.584 5.829zm4.15 11.25c-.669 4.828-1.106 8.242-1.312 10.243l-6.415-1.268c1.059-7.249 1.822-13.141 2.285-17.677 2.025.504 4.174.991 6.442 1.461-.245 1.745-.579 4.159-1 7.241zm34.845-1.346c-.94 2.893-1.559 5.017-1.855 6.375-7.08-1.637-12.182-4.008-15.308-7.119l.761 5.416c-3.011 1.212-5.701 2.508-8.074 3.896-.121.017-.292.105-.512.269-1.608.75-2.674 1.427-3.2 2.028l-4.179-4.936c1.053-1.199 1.464-2.637 1.228-4.314l-4.594-32.687 10.433-1.466c-.193-.497-.464-1.118-.812-1.858-.387-.997-.666-1.682-.839-2.052l7.114-1.592c.33.613.713 1.61 1.154 2.994.209.63.402 1.127.577 1.497l10.073-1.416 3.316 23.596-.899.126 3.961 3.388c-2.062 1.867-4.183 3.743-6.363 5.627 2.22 1.006 4.892 1.748 8.018 2.228zm-28.415-25.986l.435 3.094 14.929-2.098-.435-3.095-14.929 2.099zm1.658 11.798l14.93-2.098-.462-3.288-14.929 2.098.461 3.288zm2.202 15.666l6.536-3.088c-1.765-2.119-3.269-4.536-4.505-7.256l-3.417.48 1.386 9.864zm8.327-11.229c1.109 1.816 2.297 3.295 3.557 4.431.647-.615 1.547-1.598 2.705-2.944 1.294-1.232 2.203-2.149 2.732-2.75l-8.994 1.263zm26.939-20.55c-2.467-1.888-5.166-3.678-8.092-5.372l3.458-5.417c1.324.735 3.461 2.013 6.409 3.833.81.546 1.413.92 1.809 1.126l-3.584 5.83zm.535 12.942c-.81-.542-1.898-1.311-3.258-2.303-1.898-1.311-3.32-2.295-4.267-2.951l3.25-5.585c2.669 1.597 5.22 3.211 7.65 4.842l-3.375 5.997zm4.193 10.259c-.391 5.054-.594 8.827-.609 11.328l-6.72-.831c.54-5.728.933-11.635 1.178-17.719 1.872.264 4.05.549 6.541.855-.043 1.455-.172 3.575-.39 6.367zm1.375-18.931l-2.093-14.893 27.341-3.842 2.093 14.893-27.341 3.842zm-.293 12.27l-1.468-10.444 31.298-4.398 1.468 10.444-31.298 4.398zm34.809 7.534c-.826 1.956-1.48 3.823-1.964 5.601-6.466.12-11.648-.206-15.544-.971-3.86 2.121-8.666 4.044-14.413 5.773-.487-.853-1.347-2.178-2.577-3.977-.433-.466-.729-.819-.883-1.06.94-.265 2.24-.58 3.903-.943 3.202-.712 5.495-1.364 6.879-1.953-2.083-.891-4.135-2.442-6.157-4.657l-2.159.304-.571-4.062 28.24-3.969.625 4.449c-1.887 2.237-3.871 4.227-5.949 5.964 2.952.112 6.473-.053 10.57-.499zm-30.338-14.869l.381 2.708 3.777-.531-.381-2.708-3.777.531zm.415-16.625l.245 1.741 15.109-2.124-.245-1.741-15.109 2.124zm.707 5.029l.245 1.741 15.109-2.124-.245-1.741-15.109 2.124zm11.18 26.041c2.132-1.351 3.888-2.781 5.267-4.291l-10.973 1.542c1.739 1.072 3.642 1.988 5.706 2.749zm-4.027-15.607l.38 2.708 3.777-.531-.38-2.708-3.777.531zm12.231-1.719l-3.777.531.38 2.708 3.777-.531-.38-2.708zm25.858 13.526c-1.575 2.718-3.398 5.409-5.469 8.066-.296-.353-.796-.874-1.504-1.564-1.315-1.525-2.318-2.568-3.007-3.127 2.346-2.431 4.138-4.92 5.371-7.46l-6.266-5.431c.321-2.936.475-7.494.463-13.674l-2.878.404-.87-6.189 3.597-.506c-.008-.917-.037-2.426-.085-4.524-.136-1.821-.205-3.192-.211-4.112l5.837-.229.031 4.138c.115 1.694.175 3.002.184 3.919l7.015-.986.408 2.901c.987 10.512.82 18.03-.499 22.555l5.771 4.514-2.918 5.341-4.97-4.036zm-5.017-23.949c.063 3.936-.026 8.09-.266 12.463l2.665 1.992c.708-3.649.81-8.595.3-14.834l-2.699.379zm35.722 2.277c-.753 2.473-2.208 3.86-4.367 4.164-2.518.354-4.523-.416-6.011-2.311-1.279-1.266-2.504-3.46-3.677-6.583l-6.295.885.571 4.062c.239-.034.702-.228 1.384-.589 2.104-.69 3.737-1.246 4.901-1.675.042 1.178.228 2.927.554 5.248-2.481.614-4.756 1.393-6.825 2.34-1.402.462-2.499.943-3.282 1.447l22.304-3.135 2.936 20.889-5.936.834-.245-1.741-11.332 1.593.245 1.741-5.936.834-2.909-20.695-2.702-3.565c.971-.925 1.285-2.153.95-3.684l-2.283-16.247c10.276-1.706 18.015-3.188 23.22-4.447l2.56 5.163c-2.261.45-4.932 1.023-8.013 1.718.163 1.161.376 2.25.642 3.263l8.634-1.213.707 5.029-7.914 1.112c.541 1.24 1.114 2.278 1.721 3.111.451.596.974.85 1.575.765.478-.067.783-.504.916-1.312.197-1.211.309-2.146.339-2.809l4.311 1.958c-.048.534-.146 1.139-.295 1.817-.233.952-.384 1.63-.448 2.033zm-15.916-12.753c-1.798.253-3.65.581-5.549.977l.408 2.901 5.756-.809c-.248-.883-.452-1.908-.615-3.069zm-1.415 23.867l.38 2.708 11.332-1.592-.38-2.708-11.332 1.592zm.979 6.963l.38 2.708 11.332-1.592-.38-2.708-11.332 1.592zm45.685-9.775c-.674-.429-1.75-1.134-3.231-2.11-1.224-.879-2.173-1.534-2.844-1.967l2.392 17.021-6.476.91-2.174-15.473c-.934 1.186-2.407 2.902-4.412 5.157-.323.31-.597.546-.818.707-.157-.24-.341-.673-.55-1.303-1.167-2.203-2.046-4.117-2.642-5.743 4.805-4.093 8.303-8.791 10.492-14.097l-10.792 1.517-.924-6.576 8.454-1.188c-.469-.723-1.162-1.741-2.081-3.061-.955-1.573-1.738-2.779-2.342-3.615l5.43-3.13c.604.836 1.496 1.959 2.675 3.372 1.073 1.559 1.915 2.757 2.522 3.59l-4.945 2.667 8.454-1.188.952 6.77c-1.4 3.09-2.736 5.778-4.004 8.058l.354 2.514 2.11-3.255c.275.226.739.488 1.395.79 2.945 1.823 5.023 3.109 6.229 3.858l-3.941-28.045 6.835-.96 4.893 34.814c.272 1.934 1.118 2.736 2.539 2.404l1.259-.177c1.477.058 2.168-1.094 2.084-3.449-.068-2.225-.261-4.894-.574-8.005 2.799.79 5.065 1.26 6.801 1.411.072.517.111 1.236.119 2.153.158 2.872.194 5.298.106 7.283.117 4.323-2.231 6.754-7.045 7.301l-3.957.556c-4.659.784-7.3-1.473-7.922-6.776l-1.142-8.123-3.279 5.388z"/></svg>