<svg xmlns="http://www.w3.org/2000/svg" width="640" height="652" viewBox="0 0 640 652"><path fill="#12B5B2" d="M-3.275 145l644-93v149l-644 91z"/><path fill="#13BCB3" d="M117.942 274.191l-121.217 17.391v-146.082l265.834-38.333z"/><path fill="#0EBEBB" d="M511.819 218.625l88.95-160.313 40.502-5.895 1.003 147.914zM-3.275 145.5v146.082l173.214-24.581-118.054-129.418z"/><path fill="#13BCB3" d="M556.725 64.833l84.546-12.416 1.003 114.416"/><path fill="#fff" d="M46.002 186.186c.25 2.616-.193 5.107-1.326 7.476-.637-.353-1.298-.669-1.983-.952.703-1.677 1.103-3.215 1.2-4.618.096-1.401-.06-3.557-.469-6.466l-1.279-9.098 17.527-2.463 2.492 17.732c.393 1.964-.417 3.088-2.432 3.372l-2.763.388c-.146-.611-.36-1.308-.646-2.087l1.122-.158c.527-.012.933-.036 1.222-.077 1.101-.092 1.559-.598 1.371-1.518l-.482-3.435-5.785.813.927 6.592-2.072.291-.926-6.591-5.698.799zm-1.497-11.908l.561 3.992 5.525-.776-.561-3.992-5.525.776zm1.004 7.149l.392 2.785 5.526-.776-.561-3.992-5.526.777.169 1.206zm9.805 25.248c-.646 1.669-2.153 3.27-4.52 4.801-.15-.23-.367-.517-.648-.855-.283-.339-.523-.589-.722-.751 3.04-1.752 4.528-3.697 4.462-5.834l-5.957.837 2.375 16.896-2.072.291-2.662-18.939 8.202-1.152c-.021-.565-.135-1.591-.344-3.076l2.072-.291c.052.371.101.933.148 1.683l.196 1.393 7.943-1.116 2.192 15.597c.393 1.964-.414 3.119-2.419 3.464l-3.108.437c-.084-.177-.218-.506-.403-.985l-.416-1.078 2.849-.4c1.168-.039 1.617-.606 1.346-1.704l-1.827-12.998-6.13.862c.003.442-.031.825-.102 1.15.247.092.594.264 1.041.516 2.32 1.063 4.084 1.92 5.292 2.57l-1.073 1.76c-1.464-.803-3.369-1.83-5.715-3.078zm-4.834 28.903c-.251-.533-.619-1.27-1.103-2.211l-1.09-2.119 1.316-.658c.233.41.554 1.027.965 1.853.559 1.058.969 1.884 1.229 2.478l-1.317.657zm-1.011 3.455l-.261-1.856 3.454-.485-1.2-8.541 1.899-.267 1.2 8.541 3.281-.461.261 1.856-3.281.461.339 2.414.586-.84c1.457 1.185 2.555 2.103 3.293 2.756l-1.086 1.667c-.68-.662-1.56-1.485-2.636-2.469l1.161 8.262-1.899.267-1.187-8.448c-.546 1.97-1.296 3.938-2.252 5.902-.075-.115-.164-.323-.264-.626-.225-.347-.476-.879-.753-1.598 1.177-2.059 2.053-4.391 2.626-6.996l-3.281.461zm6.844-25.872c-.628 1.792-2.18 3.494-4.653 5.104l-1.396-1.792c3.625-1.771 5.129-4.224 4.513-7.356l1.986-.279c.122.868.119 1.688-.006 2.462 2.139 1.025 4.102 2.043 5.888 3.054l-.961 1.934-.855-.448c-1.936-1.242-3.441-2.134-4.516-2.679zm1.574-40.763l-5.785.813.561 3.992 5.785-.813-.561-3.992zm-4.949 6.754l.561 3.992 5.785-.813-.561-3.992-5.785.813zm4.354 51.019c-.43 1.954-.825 3.524-1.187 4.711l-1.374-.375c.407-1.698.77-3.294 1.087-4.792l1.474.456zm5.297 3.232c-.257-.153-.613-.387-1.067-.702-1.118-.852-2.028-1.481-2.73-1.888l1.013-1.563c.132.108.354.234.669.379 1.357.883 2.394 1.589 3.115 2.118l-1 1.656zm.178 5.655c-.456-.315-1.101-.729-1.936-1.243-.844-.575-1.49-.989-1.936-1.243l.927-1.55c.19.101.479.28.869.541 1.396.75 2.421 1.364 3.076 1.84l-1 1.655zm-3.039 4.687l-.546-2.006 6.458-1.665-1.918-13.647 2.072-.292 1.892 13.462 2.797-.772.374 2.03-2.883.784.939 6.685-2.072.291-.9-6.406-6.213 1.536zm6.502-59.641c-.014.318-.038.573-.068.767-.678-.22-1.403-.371-2.177-.452.426-2.394.815-5.479 1.165-9.252l2.077.371c-.15 1.853-.483 4.707-.997 8.566zm7.604 4.611c-2.294.385-3.586-.665-3.876-3.147l-1.839-13.09 2.072-.292 1.775 12.626c.142 1.433.87 2.024 2.186 1.775l3.108-.437c1.381-.194 2.042-.917 1.984-2.172l.011-1.8c-.03-.626-.038-1.098-.023-1.417.726.151 1.483.329 2.276.532.003.442-.005 1.011-.024 1.708.006.884-.018 1.55-.071 1.998-.151 1.851-1.296 2.896-3.434 3.133l-4.145.583zm-3.848 30.28l-1.448-10.305 8.202-1.153 1.448 10.305-1.899.267-.196-1.393-4.403.619.196 1.393-1.9.267zm.271-13.103l-1.161-8.263 14.85-2.087 1.162 8.262-14.851 2.088zm5.008-32.052c-1.312-1.393-3.073-3.071-5.286-5.032l1.259-1.691c1.921 1.561 3.704 3.171 5.346 4.834l-1.319 1.889zm-4.567 36.439l.757 5.385 4.403-.619-.757-5.385-4.403.619zm.744-10.991l.613 4.364 10.706-1.505-.613-4.363-10.706 1.504zm7.167 43.51c.305 2.166-.218 3.879-1.566 5.143l-.894-.727c.923-.951 1.299-2.234 1.131-3.851l-1.468.206-.431-3.063 2.849-.4.379 2.692zm4.452-61.722c-.776-1.342-2.092-3.398-3.948-6.167-.367-.516-.624-.89-.774-1.122l1.756-1.288c.365.517.886 1.295 1.561 2.336 1.548 2.244 2.625 3.86 3.234 4.847l-1.829 1.394zm-2.369 36.414l-1.448-10.305 8.202-1.153 1.448 10.305-1.813.255-.196-1.393-4.49.631.196 1.393-1.899.267zm.712-8.715l.757 5.385 4.49-.631-.757-5.385-4.49.631zm6.66-38.446l-1.906-2.288c-.499-.624-.856-1.078-1.072-1.364l1.497-1.252c.074.117.216.286.424.508.688.725 1.535 1.742 2.542 3.051l-1.485 1.345zm1.905 13.555c-.8.995-1.524 2.107-2.173 3.334l-1.224-1.816c.968-1.461 1.677-2.475 2.125-3.044l-1.044-7.427-2.245.315-.274-1.95 4.144-.582 1.305 9.284c1.213 1.534 3.024 2.098 5.433 1.698 3.758-.402 7.644-.948 11.656-1.638-.032.194-.083.453-.154.779-.103.519-.163.937-.176 1.255-5.871.825-9.732 1.335-11.583 1.533-2.359.333-4.29-.248-5.79-1.741zm.724-13.64l-.208-1.485 6.13-.861-.574-4.085 1.899-.267.574 4.085 6.303-.886.209 1.485-6.303.886.222 1.579.547-1.119c1.879.431 3.863.972 5.951 1.625l-.582 1.502c-.991-.365-2.496-.847-4.518-1.448l-1.374-.375.313 2.228-1.899.267-.405-2.878c-1.314 1.51-3.144 2.903-5.488 4.179-.066-.053-.179-.227-.337-.521-.367-.517-.616-.828-.748-.937 2.495-1.044 4.402-2.29 5.726-3.739l-5.438.765zm3.405-2.088c-.464-.375-1.408-1.033-2.83-1.969-.125-.045-.22-.095-.285-.149l1.052-1.284c1.471.867 2.534 1.537 3.188 2.013l-1.125 1.389zm-.935 10.261c-.4.499-.737 1.02-1.013 1.563-.151-.23-.428-.539-.834-.924-.142-.169-.246-.281-.311-.335 1.279-1.757 2.146-3.521 2.603-5.289l1.679.048c-.12.396-.245.761-.375 1.094l3.022-.424.209 1.485c-.229 3.378-1.704 6.047-4.422 8.006-.133-.107-.369-.327-.708-.658l-.696-.565c2.522-1.68 3.889-3.86 4.099-6.54l-2.072.291c-.049.071-.094.171-.134.303-.196.281-.31.517-.34.71.627.291 1.288.609 1.983.952l-.867 1.353c-.19-.099-.542-.302-1.054-.609-.324-.207-.579-.36-.769-.461zm-.493 48.491l-.248-1.764 4.058-.57-.365-2.599 1.899-.267.365 2.6 3.54-.498-.378-2.692 1.813-.255.378 2.692 3.626-.51-.365-2.6 1.899-.267.366 2.599 3.971-.558.248 1.764-3.972.558.339 2.414-1.899.267-.339-2.414-3.626.509.339 2.414-1.813.255-.339-2.414-3.54.498.339 2.414-1.899.267-.339-2.414-4.058.571zm4.035-15.737c.305 2.166-.218 3.879-1.566 5.143l-.894-.726c.923-.951 1.299-2.234 1.131-3.851l-1.468.206-.431-3.063 2.849-.4.379 2.691zm-2.274 23.253l-.587-4.178 19.513-2.742.587 4.177-1.985.279-.326-2.321-15.541 2.184.326 2.321-1.987.28zm3.246 8.064l-1.096-7.798 6.648-.934-.287-2.042 2.072-.292.287 2.042 6.734-.946.718 5.106c.292 1.663-.396 2.612-2.065 2.846-.453.126-1.282.275-2.491.445-.102-.302-.236-.629-.403-.985-.101-.301-.194-.541-.277-.718.527-.01 1.25-.081 2.171-.21.872-.059 1.218-.518 1.039-1.377l-.43-3.063-4.749.667 1.096 7.798-2.072.291-1.096-7.798-4.663.655.848 6.035-1.984.278zm1.368-66.696l-.196-1.393 2.59-.364-.183-1.3 1.727-.243.183 1.3 2.504-.352.196 1.393-2.504.352.378 2.692 2.677-.376.208 1.486-2.676.376.365 2.6-1.727.243-.365-2.6-3.454.485.407-3.371 1.295-.182-.271 1.837 1.813-.255-.378-2.692-2.589.364zm4.004-10.977c-1.013 1.152-1.723 1.946-2.131 2.382l-1.378-1.037c.097-.139.302-.357.612-.654.923-.949 1.555-1.67 1.897-2.16l1.452.932c-.098.141-.249.319-.452.537zm7.633 2.337c-1.387-1.509-2.519-2.675-3.397-3.499l1.484-1.345c.208.224.543.524 1.007.9 1.161 1.162 1.982 1.994 2.463 2.494l-1.557 1.45zm1.646 13.591c-.914 1.012-1.672 2.096-2.272 3.254l-1.263-2.095c.155-.147.408-.436.759-.864.692-.917 1.19-1.555 1.492-1.914l-1.018-7.241-2.331.328-.287-2.042 4.317-.607 1.279 9.098c1.213 1.534 2.942 2.143 5.188 1.827 1.274-.117 4.008-.501 8.202-1.153l3.367-.473c-.126.775-.232 1.484-.317 2.127-5.871.825-9.732 1.335-11.583 1.533-2.303.324-4.148-.269-5.533-1.778zm-1.58 13.783l-.248-1.764 5.699-.801-.274-1.95 1.986-.279.274 1.95 5.267-.74-.274-1.95 1.9-.267.274 1.95 5.785-.813.248 1.764-5.785.813.157 1.114-1.899.267-.157-1.114-5.267.74.183 1.3-1.986.279-.183-1.299-5.7.8zm19.59.939c-6.337 1.269-12.177 2.312-17.522 3.125l-.692-1.796c6.216-.874 12.061-1.884 17.535-3.032l.679 1.703zm-17.774 10.735l-.261-1.857 9.152-1.286-.208-1.485 1.986-.279.208 1.485 9.238-1.298.261 1.857-8.03 1.128c2.284 1.636 5.238 2.61 8.863 2.92-.058.008-.082.042-.073.105-.349.869-.577 1.532-.689 1.99-4.154-.742-7.214-2.047-9.179-3.917l.822 5.849-1.986.279-.822-5.849c-1.431 2.347-3.976 4.502-7.631 6.469-.133-.108-.307-.305-.523-.589-.367-.517-.653-.887-.86-1.11 3.314-1.475 5.843-3.313 7.589-5.516l-7.857 1.104zm3.311-39.683c-.215.977-.438 1.893-.67 2.745-.181-.037-.488-.121-.916-.25-.488-.121-.821-.2-1.002-.238.788-2.319 1.291-4.598 1.504-6.838l1.865.117c-.023.256-.081.674-.176 1.255-.038.573-.091 1.023-.163 1.348l2.763-.388-.522-3.713 1.986-.279.521 3.713 5.181-.728.248 1.764-5.181.728.509 3.621 6.044-.85.248 1.764-4.576.643.587 4.178c.073.937.479 1.322 1.219 1.154l.518-.073c.7-.035 1.045-.493 1.039-1.377.02-.696.001-1.451-.054-2.265.609.167 1.188.307 1.731.419.055.813.078 1.599.067 2.357-.022 1.518-.723 2.374-2.104 2.568l-1.64.23c-1.604.289-2.511-.53-2.723-2.458l-.626-4.456-2.59.364c.553 3.52-.381 6.271-2.802 8.251l-1.689-1.372c2.235-1.64 3.099-3.844 2.592-6.613l-3.626.51-.248-1.764 6.648-.934-.509-3.621-3.453.488zm.343 36.234c-.724-.971-1.53-1.899-2.417-2.785l1.596-1.171.934 1.004c.688.725 1.207 1.283 1.556 1.675l-1.669 1.277zm2.582 31.563c-.567.144-1.101.313-1.601.509l-.779-1.784c.417-.374.876-1.07 1.38-2.087.528-.832 1.03-1.849 1.508-3.052-1.316.249-2.454.503-3.415.764l-.779-1.784c.408-.436.761-1.054 1.06-1.853.961-2.344 1.667-4.431 2.114-6.261l2.164.358c-1.204 3.137-2.239 5.585-3.105 7.348l2.75-.481c.138-.271.287-.67.448-1.199.218-.535.367-.935.448-1.199l1.917.488c-1.278 3.02-2.562 5.789-3.851 8.304l4.005-.942.026.186c-.046.513-.025 1.078.062 1.696-.74.167-1.705.397-2.896.691-.683.158-1.168.258-1.456.298zm4.054 3.786c-2.356.772-4.204 1.41-5.542 1.915l-.62-1.901c.394-.118 1.043-.303 1.947-.558 2.307-.703 4.077-1.267 5.309-1.693.029.627.092 1.281.188 1.962-.288.04-.716.131-1.282.275zm-1.055-36.985c-.534-.872-1.191-1.788-1.972-2.752l1.708-.998c.282.339.682.884 1.198 1.63.357.456.61.799.761 1.029l-1.695 1.091zm14.356 22.618c-.267.605-.521 1.304-.762 2.095-2.909-1.484-5.208-3.434-6.896-5.847-.848 2.329-2.059 4.36-3.634 6.097l8.634-1.214.261 1.857-8.807 1.238-.248-1.764c-.4.499-.832.969-1.298 1.414-.525-.81-.934-1.415-1.224-1.816 2.559-2.253 4.304-5.085 5.232-8.499h2.025l-.241.792c1.888 2.573 4.207 4.457 6.958 5.647zm-10.345 16.602l-1.344-9.563 10.62-1.493 1.344 9.563-1.899.267-.183-1.3-6.821.958.183 1.3-1.9.268zm3.839-42.879c-.854 1.445-1.7 2.733-2.539 3.859l-1.724-.988c.888-1.197 1.709-2.449 2.466-3.755l1.797.884zm-3.023 34.906l.652 4.642 6.821-.959-.652-4.642-6.821.959zm2.852-65.576l-.287-2.042 2.504-.352-.613-4.363 2.072-.292.613 4.363 3.885-.546-.757-5.385 1.986-.279.757 5.384 5.18-.728-.757-5.385 1.986-.279.757 5.385 2.849-.4.287 2.042-2.849.4 1.122 7.984-9.152 1.286-1.122-7.984-3.885.546 1.644 11.698 15.541-2.184.274 1.949-17.613 2.476-1.918-13.647-2.504.353zm4.446 29.787l-.248-1.764 6.389-.898c.186-.341.409-.846.667-1.514.129-.333.214-.565.254-.699l2.125.08c-.041.133-.129.335-.267.606-.21.598-.388 1.001-.534 1.211l11.397-1.602.248 1.764-12.605 1.772c-.325.613-.678 1.231-1.06 1.853l11.483-1.614 1.201 8.541c.292 1.663-.479 2.654-2.312 2.976-.682.158-1.83.352-3.44.578-.203-.603-.429-1.17-.68-1.703l3.108-.437c1.044-.084 1.481-.525 1.311-1.32l-.078-.557-10.447 1.468.521 3.713-1.986.279-1.161-8.263c-.75.927-1.583 1.896-2.497 2.907-.242-.471-.623-1.08-1.138-1.828 2.019-1.924 3.662-4.018 4.929-6.278l-5.18.729zm17.114-4.772c-2.597-.519-5.161-1.01-7.691-1.476-1.592.792-4.221 1.919-7.889 3.381-.309-.524-.642-1.013-.999-1.469 2.175-.81 4.202-1.632 6.081-2.464-1.995-.413-3.887-.715-5.674-.906l.754-1.526c.238.03.568.079.989.145 2.76.433 4.953.788 6.577 1.064 2.141-1.058 4.157-2.161 6.05-3.312l1.305 1.142c-.705.416-1.738 1.002-3.098 1.761-.705.416-1.221.708-1.549.88l5.687 1-.543 1.78zm-11.278 30.66c-.472.824-.976 1.621-1.513 2.39-.16-.293-.422-.698-.787-1.215-.216-.285-.367-.517-.45-.694 1.718-2.386 2.951-4.895 3.697-7.525l2.003.476c-.411 1.257-.887 2.46-1.43 3.609l1.357 9.655-1.899.267-.978-6.963zm2.594 8.44c-.421 2.016-.893 3.881-1.415 5.595l-1.931-.581c.637-1.73 1.089-3.529 1.354-5.397l1.992.383zm-2.806-31.9l.234 1.671 10.447-1.468-.235-1.671-10.446 1.468zm.377-33.683l.835 5.942 5.18-.728-.835-5.942-5.18.728zm.053 36.746l.261 1.857 10.447-1.468-.261-1.856-10.447 1.467zm6.423 16.908c-.428 1.134-.995 2.317-1.702 3.553-.133-.107-.356-.234-.669-.379-.456-.315-.812-.549-1.067-.702 1.244-2.005 2.194-4.221 2.852-6.649l2.038.092-.362 1.187c-.178.404-.284.703-.314.896l9.411-1.323.274 1.95-.805 3.048c-.314-.146-.859-.258-1.632-.339-.125-.044-.215-.064-.272-.057l.71-2.466-8.462 1.189zm.726 17.696c-1.843.259-2.893-.54-3.154-2.397l-.548-3.899 1.986-.279.47 3.342c.13.928.684 1.324 1.664 1.187l3.626-.51c1.283-.055 1.909-.614 1.876-1.684.086-.642.105-1.34.059-2.091.247.093.644.194 1.188.307l.816.169c.012.504-.033 1.235-.132 2.196-.041.133-.056.229-.047.291-.128 1.595-1.118 2.491-2.968 2.689l-4.836.679zm1.19-14.084c-1.081 1.92-2.159 3.649-3.233 5.188-.531-.43-1.08-.795-1.65-1.093.994-1.276 2.022-2.935 3.086-4.978l1.797.883zm1.668 9.99c-.905-1.009-1.92-1.97-3.047-2.885l1.312-1.32c1.05.799 2.115 1.69 3.193 2.675l-1.458 1.53zm.065-4.553l-1.986.279c-.194-.541-.424-1.139-.692-1.796.411.006.991-.044 1.74-.15.92-.129 1.295-.592 1.125-1.389l-.718-5.106 1.899-.267.757 5.384c.301 1.726-.407 2.741-2.125 3.045zm16.587-51.781l-1.004-7.148 1.727-.243c-1.734-.64-3.367-1.609-4.899-2.909l.246-.129-.259.036c-1.075 1.54-2.406 2.927-3.994 4.159l1.64-.231c.078.557.129 1.34.154 2.345l.026.186c.048 2.014-1.037 3.9-3.254 5.664-.579-.361-1.192-.748-1.836-1.162 2.145-1.438 3.152-2.841 3.018-4.211.013-.317.002-.82-.036-1.51.013-.317.008-.569-.018-.755-1.317 1.07-2.849 2.074-4.595 3.013l-.337-.521c-.142-.169-.404-.573-.787-1.215 3.181-1.583 5.657-3.382 7.429-5.399l-5.958.837-1.435-10.212 16.922-2.378 1.436 10.212-6.044.849c2.01 1.36 4.864 2.251 8.564 2.678-.281.924-.473 1.645-.576 2.164-1.93-.359-3.636-.814-5.122-1.363l.979 6.963-1.987.28zm-9.465 49.833c-.397-.323-.965-.811-1.703-1.465-1.078-.984-1.948-1.745-2.61-2.284l1.211-1.401c1.457 1.184 2.948 2.395 4.473 3.632l-1.371 1.518zm1.104 7.229c-1.063-1.301-2.351-2.73-3.86-4.286l1.397-1.333c1.5 1.493 2.849 2.946 4.046 4.354l-1.583 1.265zm-3.578-74.981l.352 2.506 5.526-.776-.353-2.506-5.525.776zm.587 4.178l.353 2.506 5.525-.776-.352-2.507-5.526.777zm.774 27.452l-.3-2.135 8.375-1.177-.47-3.342 2.159-.303.47 3.342 8.461-1.189.3 2.135-8.461 1.189.509 3.621 7.167-1.007.287 2.042-7.166 1.007.509 3.621 9.152-1.286.3 2.135-9.152 1.286.744 5.292-2.158.303-.744-5.292-9.152 1.286-.3-2.135 9.152-1.286-.509-3.621-7.167 1.007-.287-2.042 7.166-1.007-.509-3.621-8.376 1.177zm23.462 30.334c-4.706-1.736-8.146-3.873-10.321-6.407-1.935 3.365-4.73 6.44-8.388 9.226-.574-.739-1.068-1.332-1.483-1.78 4.159-2.982 7.049-6.229 8.668-9.739l2.37-.049-.254.698c2.604 2.664 6.019 4.614 10.243 5.85l-.835 2.201zm-15.662 2.58l-.287-2.042 12.778-1.796.287 2.042-5.353.752.457 3.249 6.648-.934.287 2.042-6.648.934.509 3.621 8.547-1.201.261 1.857-19.254 2.706-.261-1.856 8.547-1.202-.509-3.621-6.648.935-.287-2.042 6.648-.935-.457-3.249-5.265.74zm3.79-66.365l-5.526.777.353 2.506 5.526-.776-.353-2.507zm-4.939 4.955l.352 2.506 5.526-.776-.352-2.507-5.526.777zm21.767.151c-2.252 1.517-5.447 3.007-9.585 4.472-.101-.301-.339-.741-.713-1.32-.102-.301-.19-.509-.264-.625 3.548-1.067 6.321-2.214 8.321-3.442-1.512-.734-2.92-1.767-4.222-3.099-.765 1.244-1.681 2.446-2.75 3.605-.49-.562-.942-1.066-1.357-1.514 2.148-2.257 3.812-4.827 4.992-7.707l2.211.068c-.308.739-.652 1.417-1.034 2.039l10.706-1.505.3 2.135c-1.392 2.216-2.929 4.009-4.614 5.382 1.896.554 4.656.766 8.277.635-.072.327-.184.783-.335 1.373l-.142.872c-4.06-.058-7.325-.516-9.791-1.369zm-5.902 13.137l-1.265-9.005 14.764-2.075 1.266 9.005-1.986.279-.183-1.3-10.792 1.517.183 1.3-1.987.279zm-.496 13.347l-.652-4.642 8.72-1.226c-.035-.247-.141-.579-.316-.997-.127-.486-.233-.819-.316-.997l2.305-.514.659 2.18 8.375-1.177.652 4.642-1.986.279-.417-2.971-15.455 2.172.417 2.971-1.986.28zm6.085-28.712c1.547-1.101 3.009-2.6 4.386-4.498l-9.325 1.311c1.74 1.523 3.386 2.586 4.939 3.187zm-4.608 7.938l.587 4.178 10.792-1.517-.587-4.178-10.792 1.517zm1.824 36.121l-1.252-8.913 17.181-2.415 1.253 8.912-1.986.279-.157-1.114-13.21 1.856.157 1.114-1.986.281zm-.245-16.155l-.17-1.207 13.21-1.856.169 1.207-13.209 1.856zm.623 5.687l-.6-4.271 13.642-1.917.6 4.271-13.642 1.917zm-.114 21.15l-.261-1.857 4.145-.582c-.242-.471-.573-1.15-.991-2.039l1.947-.558c.083.178.243.472.476.88.269.658.481 1.132.64 1.425l3.54-.498.261 1.857-9.757 1.372zm.152 5.469l-.248-1.764 3.108-.437c-.358-.454-.856-1.078-1.496-1.873-.274-.277-.449-.473-.523-.589l1.35-1.042c.141.17.386.452.735.844.623.67 1.112 1.232 1.47 1.687l-1.277.937 2.676-.376c.526-1.272.969-2.503 1.331-3.69l1.818.407c-.21.598-.562 1.437-1.056 2.515-.081.264-.146.432-.194.5l2.936-.413.248 1.764-10.878 1.53zm.526-23.858l.261 1.857 5.612-.789-.261-1.857-5.612.789zm.593 28.056l-.261-1.857 4.145-.583-.326-2.321 1.899-.267.326 2.321 3.885-.546.261 1.857-3.885.546.757 5.385c.292 1.663-.364 2.638-1.966 2.927l-1.986.279c-.127-.488-.363-1.118-.706-1.889l1.641-.23c.863-.121 1.217-.519 1.065-1.191l-.705-5.013-4.144.582zm-.149-24.899l.235 1.671 5.612-.789-.235-1.671-5.612.789zm3.306 26.065c-.358 1.628-.84 3.211-1.446 4.748l-1.546-.351c.517-1.334.969-2.913 1.359-4.735l1.633.338zm-2.746-35.233l.235 1.671 9.583-1.347-.235-1.671-9.583 1.347zm8.94 37.96c-.292-.4-.691-.944-1.198-1.63-.574-.739-1.002-1.279-1.284-1.619l1.363-.949c.865 1.142 1.683 2.163 2.456 3.063l-1.337 1.135zm3.266-33.805l-5.612.789.261 1.856 5.612-.789-.261-1.856zm-5.169 3.945l.235 1.671 5.612-.789-.234-1.671-5.613.789zm9.672 31.892l-1.644-11.698-2.763.388.065.464c.802 4.874.464 8.739-1.012 11.597-.066-.054-.224-.126-.471-.218-.257-.153-.732-.403-1.426-.746 1.423-2.409 1.754-5.895.996-10.459l-1.252-8.913c2.851-.59 5.484-1.275 7.899-2.057l.878 1.864c-1.799.57-4.009 1.132-6.63 1.689l.679 4.828 7.166-1.007.274 1.95-2.503.352 1.644 11.698-1.9.268zm13.998-67.711c-.559.206-1.183.355-1.874.453-.11-.363-.266-.846-.468-1.449-.093-.238-.177-.416-.251-.533.238.03.732-.008 1.481-.113.756-.043 1.053-.652.887-1.829-.03-.626-.116-1.655-.258-3.088-.047-.75-.092-1.28-.135-1.59l-3.138 1.482 1.383 9.841-1.899.267-1.292-9.191-2.878 1.446 1.187 8.448c.076 1.378.853 1.899 2.333 1.565l4.49-.631c1.447-.141 2.184-.748 2.209-1.825.051-.891.063-1.839.04-2.846.676.222 1.315.383 1.917.488.001 1.263-.049 2.374-.147 3.334-.071 1.587-1.118 2.491-3.141 2.713l-5.871.825c-2.18.369-3.392-.534-3.638-2.708l-1.187-8.448-1.476.775-.632-1.994.246-.129-1.899.267 1.161 8.263c.337-.11.833-.337 1.489-.683.385-.18.688-.317.911-.412.087.62.211 1.296.374 2.03-.723.291-2.129.931-4.221 1.918l-2.253.885-.62-1.901 2.499-1.014-1.239-8.819-2.072.291-.274-1.95 2.072-.291-.874-6.22 1.899-.267.874 6.22 1.986-.279.274 1.949 1.489-.683-.744-5.292 1.899-.267.652 4.642 2.878-1.446-.861-6.127 1.899-.267.77 5.478 4.945-2.399c.423 3.854.694 6.403.811 7.649.24 2.115-.331 3.268-1.713 3.462zm-9.388 20.938c-.958.703-1.94 1.441-2.946 2.213-.375-.578-.832-1.114-1.371-1.606 3.302-1.979 5.89-4.236 7.765-6.771l2.297.056c-.586.84-1.186 1.587-1.798 2.241l9.238-1.298.274 1.949c-3.613 4.358-9.22 8.112-16.818 11.263-.268-.656-.619-1.27-1.051-1.84 3.176-1.204 5.846-2.462 8.009-3.777-.257-.153-.617-.417-1.08-.795-1.043-.737-1.884-1.281-2.519-1.635zm4.102 8.512c-1.85 1.46-3.619 2.655-5.307 3.586-.216-.285-.503-.654-.86-1.11-.216-.285-.362-.484-.437-.601 4.1-2.153 7.348-4.725 9.746-7.713l2.237.254c-.099.141-.273.355-.526.642-.506.577-.857 1.005-1.052 1.284l7.512-1.056.261 1.857c-3.417 5.341-9.228 9.312-17.431 11.917-.26-.595-.614-1.239-1.064-1.934 3.844-1.046 6.897-2.294 9.158-3.749-.663-.537-1.667-1.217-3.016-2.038.19.101.057-.008-.397-.323l1.176-1.016zm-2.339 37.272l-2.557-18.196 2.331-.328c.022-.255.061-.608.115-1.058.134-.713.21-1.639.226-2.777l2.211.068c-.132 1.155-.292 2.313-.48 3.476l3.886-.546 2.531 18.011-1.899.267-.248-1.764-4.403.619.274 1.95-1.987.278zm2.241-43.601c2.49-1.486 4.684-3.214 6.579-5.185l-8.634 1.213-.625.562c1.273.706 2.554 1.472 3.845 2.3l-1.165 1.11zm-2.525 27.169l.718 5.106 4.403-.619-.718-5.106-4.403.619zm1.004 7.148l.744 5.292 4.403-.619-.744-5.292-4.403.619zm4.665-25.103c2.145-1.438 4.09-3.256 5.836-5.459l-7.166 1.007c-.466.444-.961.893-1.484 1.344.512.307 1.223.775 2.134 1.404.645.416 1.158.722 1.538.92l-.858.784zm9.871 32.054l-3.626.509c-.154-.673-.403-1.396-.745-2.167.756-.044 1.883-.17 3.38-.38 1.628-.103 2.326-.989 2.091-2.661-.077-1.376-.399-4.299-.968-8.763-.126-1.308-.227-2.24-.305-2.797l-5.181.728c-.152.589-.413 1.447-.783 2.571l-.361 1.187c-.57-.299-1.198-.589-1.883-.872 1.007-2.854 1.689-5.728 2.046-8.619l2.051.185c-.064.388-.163.938-.296 1.651l-.283 1.744 6.389-.898c.557 3.961 1.093 8.62 1.612 13.974.374 2.662-.673 4.198-3.138 4.608zm-2.54-6.175c-.35-.392-.873-.981-1.569-1.768-.989-1.187-1.761-2.087-2.317-2.704l1.397-1.333c.489.563 1.215 1.344 2.179 2.345.821.832 1.443 1.501 1.867 2.01l-1.557 1.45zm19.348-54.073c-2.822-.866-6.785-1.917-11.89-3.157l.568-1.594c.782.143 1.995.415 3.636.814l1.373.375c.426-.311 1.036-.775 1.83-1.393.794-.616 1.374-1.076 1.743-1.381l-11.828 1.662.6 4.271c1.971-.592 3.625-1.14 4.963-1.644.021.565.075 1.157.162 1.776-.501.196-1.281.495-2.339.897-1.223.487-2.032.79-2.425.909-.107.078-.242.16-.406.247-.608.275-1.018.489-1.23.646l-1.271-1.525c.458-.506.638-1.1.542-1.78l-1.605-11.419c-.696.477-1.445.993-2.248 1.547-.093-.239-.346-.582-.761-1.029l-.45-.694c4.565-2.597 7.602-5.423 9.11-8.475l2.444-.154c-.196.281-.358.587-.487.92 2.526 2.106 5.833 3.504 9.921 4.191-.111.458-.309 1.148-.589 2.071-.248-.091-.61-.166-1.088-.226-.248-.091-.796-.234-1.645-.432l1.096 7.798.086-.012 1.504 1.303c-.377.242-.938.638-1.683 1.183-.803.555-1.389.985-1.756 1.288.791.206 2 .445 3.623.722.544.113.939.214 1.188.306l-.688 1.989zm-16.652 15.616l-.274-1.95 2.677-.376-.64-4.549 1.899-.267.64 4.549 2.245-.315.274 1.949-2.245.315.457 3.25.513-.735c1.05.799 2.074 1.602 3.068 2.409l-1 1.655c-.35-.392-.888-.884-1.616-1.477-.341-.331-.609-.577-.808-.738l1.592 11.326-1.899.267-1.592-11.326c-.298 2.063-.868 4.067-1.708 6.015-.303-.904-.665-1.8-1.082-2.688 1.142-2.306 1.839-4.865 2.09-7.678l-2.591.364zm7.024-31.493c.251.533.451.916.602 1.146l-1.416.578 6.043-.849c-2.393-.736-4.563-1.977-6.51-3.724-1.417 2.031-3.19 3.826-5.318 5.386l5.353-.752c-.26-.594-.662-1.358-1.203-2.292l1.761-.626c.159.293.388.671.688 1.133zm-5.932 4.147l.274 1.95 10.447-1.468-.274-1.949-10.447 1.467zm.483 3.435l.287 2.042 10.447-1.468-.287-2.042-10.447 1.468zm8.051 56.653c-.216-.285-.574-.739-1.072-1.364-1.571-1.988-2.871-3.509-3.899-4.564l1.57-1.357c.83.894 1.984 2.215 3.462 3.963.754.778 1.31 1.394 1.668 1.848l-1.729 1.474zm16.802 6.159c-.422.753-.816 1.502-1.181 2.249-5.131-1.425-8.544-4.416-10.242-8.975-.181 4.57-2.711 8.49-7.591 11.765l-1.655-1.756c5.612-3.501 8.088-8.015 7.43-13.541l-.052-.372c-.268-2.739-.558-5.223-.871-7.451l2.158-.303c.122.867.266 2.109.436 3.726.227 1.61.371 2.852.436 3.726 1.873 6.238 5.584 9.882 11.132 10.932zm-18.597-40.191l-.274-1.95 6.476-.91c.565-1.405 1.167-2.971 1.804-4.703l1.991.383c-.615 1.475-1.218 2.822-1.809 4.041l3.54-.498.274 1.95-5.18.728.457 3.249 4.576-.643.274 1.95-4.576.643.483 3.435 5.871-.825.274 1.95-5.871.825.73 5.199-1.986.279-.73-5.199-5.871.825-.274-1.95 5.871-.825-.483-3.435-4.317.606-.274-1.95 4.317-.606-.457-3.25-4.836.681zm2.881-2.677c-.865-1.14-1.716-2.188-2.555-3.144l1.536-.973c.48.5 1.178 1.287 2.092 2.356.216.286.394.513.536.682l-1.609 1.079zm12.446 28.37c-.753 1.748-1.945 4.124-3.577 7.129l-1.836-1.162c1.382-2.277 2.554-4.586 3.516-6.932l1.897.965zm-4.989-56.135l-.287-2.042 3.108-.437-.613-4.363 1.986-.279.613 4.363 3.022-.424.287 2.042-3.022.424.443 3.157.66-.945c.463.377 1.217.934 2.26 1.67.645.416 1.1.73 1.366.944l-1.16 1.772c-1.326-1.076-2.316-1.852-2.969-2.329l1.618 11.512-1.985.279-1.579-11.233c-.533 2.474-1.204 4.588-2.014 6.342l-1.108-2.874c1.103-2.174 1.93-4.846 2.483-8.017l-3.109.438zm9.055 58.784c.009.063-.036.164-.133.303-.441-.632-.874-1.203-1.297-1.711.899-1.956 1.507-4.313 1.824-7.073l1.865.117c-.091 1.023-.249 1.992-.472 2.906l3.626-.509.248 1.764-4.403.619c-.232.854-.542 1.78-.93 2.781l4.921-.691.248 1.764-2.158.303.404 2.878 2.417-.339.261 1.856-2.417.34.679 4.828 2.083-2.092c.092.24.198.573.316.997.118.426.195.763.23 1.009-.436.25-1.07.75-1.903 1.498-.36.366-.646.626-.858.783-.245.35-.521.672-.832.969l-1.258-1.433c.332-.553.457-1.137.369-1.756l-.639-4.549-2.417.34-.261-1.857 2.417-.34-.405-2.878-1.381.194-.144-1.021zm.196-59.989l-.287-2.042 6.648-.935-.626-4.456 1.986-.279.626 4.457 2.677-.376.287 2.042-2.677.376 1.696 12.069c.353 2.095-.506 3.29-2.578 3.581-.625.15-1.714.335-3.268.554l-.026-.186c-.247-.912-.457-1.578-.632-1.994.468-.004 1.423-.105 2.862-.308 1.274-.117 1.8-.758 1.579-1.926l-1.422-10.119c-1.255 4.848-3.386 8.902-6.391 12.164l-1.703-1.465c3.274-3.426 5.446-7.393 6.516-11.897l-5.267.74zm2.191 40.603c.305 2.166-.218 3.879-1.566 5.143l-.894-.727c.923-.951 1.299-2.234 1.131-3.851l-1.468.206-.431-3.063 2.849-.4.379 2.692zm5.371 18.201l-1.004-7.148 10.102-1.42 1.005 7.148-4.058.57.253 2.426 5.267-.74 1.174 8.355c.393 1.964-.417 3.088-2.432 3.371-.798.175-1.627.324-2.491.445-.145-.611-.351-1.245-.62-1.901.527-.012 1.308-.089 2.344-.235 1.16-.101 1.604-.699 1.333-1.796l-.861-6.127-3.626.51c.052.371.046.75-.016 1.138.711.468 1.688 1.152 2.929 2.05.579.361 1 .649 1.266.863l-1.013 1.563c-1.59-1.291-2.808-2.224-3.651-2.8-.344 1.312-1.26 2.733-2.746 4.268-.133-.107-.307-.303-.523-.589l-.597-.484.613 4.363-1.727.243-1.618-11.512 5.267-.74-.339-2.414-4.231.593zm.97-5.627l.509 3.621 6.562-.922-.509-3.621-6.562.922zm.321 9.8l.691 4.92c1.832-1.583 2.724-3.38 2.676-5.394l-3.367.474zm10.957-33.558c-.792 1.879-1.4 3.195-1.822 3.948-.294-.842-.647-1.675-1.056-2.502 1.556-3.121 2.648-6.841 3.274-11.158l2.15.266c-.283 1.744-.657 3.469-1.122 5.175l2.335 16.618-1.986.279-1.773-12.626zm.467-20.433c.305 2.166-.218 3.88-1.566 5.143l-.894-.726c.923-.951 1.299-2.234 1.131-3.852l-1.468.207-.431-3.064 2.849-.4.379 2.692zm4.965 61.63l-1.722-12.254c-.534 1.211-1.072 2.392-1.615 3.541-.168-.355-.398-.953-.693-1.796-.11-.363-.207-.634-.29-.812 1.433-3.167 2.438-6.875 3.015-11.122l2.064.278c-.298 2.063-.674 3.977-1.13 5.745l2.271 16.154-1.9.266zm3.8-48.175c-1.604.289-3.317.625-5.141 1.007-.035-.247-.117-.614-.243-1.102-.127-.486-.233-.819-.316-.997 5.318-.999 9.389-1.887 12.216-2.664l.732 2.075c-1.644.42-3.377.822-5.202 1.205l.914 6.499 6.043-.85.287 2.042-6.044.85.939 6.684 5.612-.789.274 1.95-13.469 1.893-.274-1.95 5.785-.813-.939-6.685-6.216.874-.287-2.042 6.216-.874-.887-6.313zm-2.391 31.883l-.261-1.856 5.698-.801-.626-4.457 1.899-.267.626 4.456 6.303-.886.261 1.856-5.353.752c2.003 3.822 4.523 6.718 7.56 8.688-.081.265-.226.695-.435 1.292-.112.458-.213.787-.301.989-3.279-2.441-5.795-5.529-7.552-9.258l1.135 8.077 3.281-.461.261 1.857-3.281.461.6 4.271-1.899.267-.6-4.271-3.281.461-.261-1.857 3.281-.461-1.122-7.984c-.751 4.271-2.278 8.021-4.583 11.247-.16-.292-.488-.751-.986-1.376-.216-.285-.362-.484-.437-.601 2.445-3.057 4.052-6.66 4.82-10.807l-4.747.669zm8.035-59.393l-.274-1.95 2.331-.328-.613-4.363 1.813-.255.613 4.363 1.9-.267.274 1.95-1.899.267.613 4.363c.221-.093.52-.263.897-.505.442-.188.747-.325.911-.412.043.311.124.678.243 1.102l.144 1.021-.738.388c-.5.197-.887.377-1.157.541l.939 6.684c.274 1.539-.27 2.467-1.633 2.786-.173.024-.458.096-.851.214l-.863.122c-.026-.186-.124-.456-.29-.812-.136-.549-.255-.974-.355-1.275.354.012.76-.012 1.222-.077.691-.097.997-.424.919-.981l-.809-5.756c-.714.353-1.452.741-2.214 1.163l-.486-2.204c.106-.077.27-.164.492-.258.492-.258 1.127-.537 1.907-.836l-.705-5.013-2.331.328zm6.547 28.449c-.472.824-.976 1.621-1.513 2.39-.16-.292-.422-.698-.787-1.215-.216-.285-.367-.516-.45-.694 1.718-2.387 2.951-4.896 3.697-7.525l2.004.476c-.411 1.258-.887 2.46-1.43 3.609l1.357 9.655-1.899.267-.979-6.963zm2.594 8.44c-.421 2.016-.893 3.881-1.415 5.595l-1.931-.581c.637-1.73 1.089-3.528 1.354-5.397l1.992.383zm6.431-38.226l-.222-1.578 2.417-.34-.339-2.414-2.677.376-.235-1.671 4.49-.631 1.37 9.748-5.353.752.287 2.042 4.749-.667.248 1.764c-.672 1.483-1.756 2.961-3.251 4.433 1.508.294 3.435.431 5.782.418-.023.255-.095.582-.215.977-.112.457-.213.787-.301.989-2.899-.161-5.244-.558-7.035-1.189-1.818 1.264-4.099 2.375-6.84 3.328-.076-.117-.259-.375-.549-.775l-.562-.868c2.462-.852 4.465-1.637 6.007-2.359-1.538-.919-2.934-2.08-4.187-3.482l-.95.133-.235-1.671 5.439-.764-.287-2.042-5.353.752-1.305-9.284c1.116-.409 2.331-.958 3.642-1.648l.999 1.469c-.936.448-1.821.824-2.659 1.131l.339 2.414 2.59-.364.222 1.579-2.59.364.353 2.507 3.54-.498-1.356-9.655 1.899-.267 1.357 9.655 3.54-.498-.352-2.506-2.417.34zm-1.417 73.235l-2.331.328c-.146-.611-.352-1.245-.62-1.901l1.209-.17c.526-.012.962-.041 1.308-.089 1.101-.093 1.608-.667 1.518-1.729-.155-1.934-.375-3.923-.663-5.966l-5.18.728-.557-8.347 1.727-.243.456 6.374 2.158-.303-.539-7.593-4.921.691-.261-1.856 6.821-.958.713 9.461 1.123-.158c.191 1.362.444 3.788.759 7.277l.144 1.021c.286 2.044-.669 3.187-2.864 3.433zm-.04-5.295c-1.528.404-3.073.905-4.631 1.503l-.374-2.03 1.86-.545c1.297-.372 2.258-.632 2.884-.784l.261 1.856zm-.927-41.643c-.428 1.134-.995 2.317-1.702 3.553-.133-.107-.356-.234-.669-.379-.456-.314-.812-.548-1.067-.702 1.244-2.004 2.194-4.221 2.852-6.649l2.038.092-.362 1.187c-.178.404-.284.702-.314.896l9.411-1.323.274 1.95-.805 3.048c-.314-.145-.859-.258-1.632-.338-.125-.045-.215-.064-.272-.057l.71-2.467-8.462 1.189zm.726 17.696c-1.843.259-2.893-.54-3.154-2.397l-.548-3.899 1.986-.279.47 3.342c.13.928.684 1.324 1.664 1.186l3.626-.51c1.283-.054 1.909-.614 1.876-1.684.086-.642.105-1.34.059-2.091.247.092.644.193 1.188.306l.816.169c.012.504-.033 1.235-.132 2.196-.041.133-.056.23-.047.291-.128 1.595-1.118 2.492-2.968 2.689l-4.836.681zm1.19-14.084c-1.081 1.919-2.159 3.649-3.233 5.188-.531-.43-1.08-.794-1.65-1.093.994-1.276 2.022-2.935 3.086-4.978l1.797.883zm-.078-18.756c1.357-1.199 2.364-2.382 3.023-3.549l-6.648.934c1.029 1.056 2.237 1.927 3.625 2.615zm1.746 28.746c-.905-1.009-1.92-1.969-3.047-2.885l1.312-1.32c1.05.799 2.115 1.691 3.193 2.675l-1.458 1.53zm.065-4.553l-1.986.279c-.194-.541-.424-1.139-.692-1.796.411.006.991-.044 1.74-.149.92-.129 1.295-.592 1.125-1.389l-.718-5.106 1.899-.267.757 5.385c.3 1.724-.407 2.739-2.125 3.043zm12.179 20.843c-.241.792-.434 1.514-.576 2.164-2.76-1.252-5.007-3.05-6.746-5.395-.93 2.151-2.13 4.055-3.599 5.713l8.375-1.177.261 1.856-8.461 1.189-.248-1.764c-.466.444-.923.951-1.372 1.518-.441-.632-.877-1.233-1.31-1.804 2.714-2.401 4.463-5.203 5.246-8.406l2.012-.093-.288 1.082c1.919 2.382 4.154 4.088 6.706 5.117zm-9.14 12.645c-.805-1.97-1.636-3.903-2.489-5.804l1.575-.695c.269.658.36.896.277.718 1.013 2.194 1.749 3.889 2.212 5.085l-1.575.696zm-1.841 3.193l-.234-1.671 7.511-1.056c.458-2.588.828-5.385 1.11-8.393l1.805.314c-.117.838-.317 2.127-.6 3.872-.227 1.736-.422 3.058-.587 3.964l3.108-.437.235 1.671-12.348 1.736zm5.924-38.628c-.397-.323-.965-.812-1.703-1.465-1.078-.985-1.948-1.746-2.61-2.284l1.211-1.401c1.457 1.184 2.948 2.395 4.473 3.631l-1.371 1.519zm1.104 7.229c-1.063-1.302-2.351-2.73-3.86-4.286l1.397-1.333c1.5 1.493 2.849 2.946 4.046 4.354l-1.583 1.265zm-1.705 26.675c-.615-1.869-1.255-3.705-1.918-5.505l1.502-.59c.721 1.792 1.39 3.624 2.005 5.493l-1.589.602zm.203-66.814l-1.096-7.798 18.563-2.609 1.096 7.798-11.828 1.662h2.025c-.049.071-.094.172-.134.303-.383.622-.818 1.284-1.306 1.982l10.533-1.48.273 1.95c-2.735 5.182-8.022 9.111-15.863 11.792-.3-.464-.741-1.096-1.323-1.897 3.654-1.145 6.341-2.279 8.062-3.405-1.423-.936-3.052-1.874-4.886-2.816l1.125-1.389c-1.119 1.231-2.406 2.516-3.86 3.856-.481-.5-1.024-1.023-1.629-1.57 3.029-2.255 5.241-4.68 6.637-7.276l-6.389.897zm1.151-6.221l.574 4.085 3.626-.51-.574-4.085-3.626.51zm1.513 32.661l-.287-2.042 2.417-.34-.626-4.456 1.899-.267.626 4.457 1.899-.267.287 2.042-1.899.267.6 4.271 1.98-.941c.035.248.12.646.256 1.195l.117.835c-.213.157-.623.372-1.23.646-.386.181-.66.314-.824.4l.887 6.313c.292 1.664-.33 2.665-1.866 3.008-.231.033-.572.112-1.023.239l-.864.121c-.153-.673-.368-1.368-.645-2.086l1.554-.219c.691-.097.988-.486.893-1.167l-.756-5.385c-.222.095-.608.275-1.157.542-.492.258-.874.47-1.144.634l-.585-2.285 1.994-.848c.279-.101.471-.192.578-.271l-.666-4.735-2.415.339zm3.103-22.99l-.379.432c1.702.835 3.45 1.788 5.245 2.861l-1.065 1.191c2.212-1.383 4.14-3.327 5.784-5.831l-9.585 1.347zm.823-10.436l.574 4.085 3.626-.51-.574-4.084-3.626.509zm4.569 34.978c-.612-1.429-1.473-3.168-2.583-5.223l1.476-.775c.559 1.058 1.402 2.676 2.531 4.851.083.178.13.298.139.359l-1.563.788zm.584 5.409c-.515.515-.899.917-1.152 1.203l-1.21-1.723c1.397-1.333 2.684-2.617 3.86-3.856-.019-.123-.012-.282.021-.476l-.065-.464-1.305-9.284 1.812-.255 1.306 9.284c.487 3.467.53 6.079.133 7.839-.392 1.823-1.479 3.678-3.267 5.572l-1.69-1.372c2.591-2.447 3.693-5.252 3.308-8.417-.351.427-.936 1.077-1.751 1.949zm2.465 35.735c-1.869.074-3.057-.865-3.564-2.813-.123-2.127.752-3.419 2.625-3.872 1.982-.089 3.209.907 3.678 2.986.105 2.005-.809 3.238-2.739 3.699zm-.743-5.292c-1.077.278-1.585 1.044-1.526 2.297.263 1.037.949 1.538 2.061 1.509 1.135-.286 1.685-.961 1.652-2.031-.289-1.221-1.019-1.812-2.187-1.775zm2.277-72.116l-3.625.51.574 4.085 3.628-.51-.577-4.085zm7.662 40.697c-.693-.343-1.711-.896-3.05-1.654l-.854-.448.861 6.127c.096.682.453.945 1.079.795l.69-.097c.699-.036 1.054-.432 1.064-1.191-.023-1.005-.084-1.849-.18-2.531.182.038.482.09.902.157.429.129.734.213.916.25.09 1.061.097 1.943.02 2.647-.029 1.456-.794 2.289-2.29 2.5l-1.295.182c-1.604.288-2.519-.373-2.743-1.981l-2.675-19.032 1.899-.267 1.146 8.169c.896-2.398 1.516-4.251 1.86-5.563l1.685.71c-.322 1.055-.975 2.882-1.959 5.482l-1.586-.629.301 2.135c.941.436 2.26 1.041 3.952 1.812.445.254.793.425 1.041.516l-.784 1.911zm-.014-23.214l-2.688-19.125 7.425-1.043 2.649 18.846-1.899.267-.235-1.671-3.626.51.272 1.95-1.898.266zm-.527-17.535l.811 5.756 3.626-.509-.81-5.756-3.627.509zm1.07 7.613l.822 5.849 3.626-.509-.822-5.849-3.626.509zm4.301 22.424c-1.387-1.509-2.52-2.675-3.396-3.499l1.484-1.344c.207.224.543.524 1.006.899 1.162 1.163 1.982 1.994 2.465 2.494l-1.559 1.45zm1.646 13.591c-.915 1.011-1.674 2.096-2.271 3.254l-1.264-2.095c.154-.147.407-.436.759-.864.692-.917 1.19-1.555 1.492-1.914l-1.019-7.241-2.33.328-.287-2.042 4.316-.606 1.278 9.098c1.213 1.534 2.942 2.143 5.187 1.827 1.274-.117 4.01-.501 8.203-1.152l3.366-.474c-.126.775-.231 1.484-.317 2.127-5.871.825-9.731 1.335-11.582 1.533-2.3.323-4.146-.27-5.531-1.779zm-.025-41.486l-.285-2.042 7.078-.995-.664-4.734 1.984-.279.666 4.735 2.59-.364.287 2.042-2.59.364 1.644 11.697c.361 2.158-.487 3.414-2.552 3.767l-3.367.473c-.084-.178-.178-.417-.277-.718-.203-.604-.388-1.082-.555-1.437.584-.02 1.624-.134 3.122-.344 1.272-.117 1.796-.788 1.563-2.019l-1.564-11.141-7.08.995zm4.283 7.918c-.843-1.396-1.979-3.003-3.407-4.823l1.497-1.251c1.213 1.533 2.401 3.103 3.566 4.706l-1.656 1.368zm-.711 19.341c-.215.977-.438 1.893-.671 2.745-.181-.037-.487-.121-.915-.25-.487-.121-.82-.2-1.002-.238.787-2.319 1.291-4.599 1.504-6.838l1.865.116c-.023.256-.082.674-.176 1.255-.037.574-.092 1.023-.162 1.349l2.763-.389-.522-3.713 1.986-.279.521 3.714 5.181-.728.248 1.764-5.181.728.508 3.621 6.045-.849.248 1.764-4.576.643.587 4.178c.071.937.479 1.322 1.219 1.154l.519-.073c.699-.035 1.046-.493 1.039-1.377.02-.696.002-1.451-.055-2.264.61.167 1.188.306 1.732.419.055.813.076 1.599.066 2.357-.021 1.518-.724 2.374-2.104 2.568l-1.642.23c-1.604.289-2.51-.53-2.723-2.458l-.626-4.456-2.59.364c.553 3.52-.382 6.271-2.802 8.252l-1.69-1.372c2.235-1.64 3.1-3.844 2.594-6.613l-3.627.51-.248-1.764 6.648-.934-.509-3.621-3.452.485zm30.113-29.434c-.219.537-.367.937-.447 1.199-4.334-1.6-7.812-3.793-10.434-6.581-1.729 3.147-4.601 6.327-8.608 9.541l-1.336-1.99c4.479-3.216 7.407-6.594 8.789-10.134l2.456-.061c-.049.07-.113.238-.193.5-.09.202-.154.369-.193.5 2.795 2.764 6.242 4.741 10.342 5.931-.091.203-.215.568-.376 1.095zm-5.239 14.085c-1.836-.941-4.503-2.176-8.005-3.703-.817-.39-1.446-.68-1.883-.872l.986-1.748c2.131.964 3.914 1.754 5.352 2.372l4.257-5.426-13.124 1.844-.287-2.042 15.887-2.232.313 2.228-4.989 6.476c.866.319 1.741.702 2.627 1.146l-1.134 1.957zm-7.64 17.085l2.763-.388.457 3.249-2.763.388-.457-3.249zm3.504-28.338c-.198-.161-.473-.438-.82-.831-1.087-1.045-1.928-1.812-2.523-2.296l1.397-1.333c.651.476 1.586 1.261 2.796 2.353.271.278.477.47.609.577l-1.459 1.53zm.2 34.634l.443 3.157c.262 1.856-.418 3.088-2.033 3.694l-.197-1.393c.666-.283.951-.955.861-2.015l-1.381.194-.457-3.25 2.764-.387zm11.308-39.194c-.317-.585-.696-1.195-1.139-1.828 1.205-1.873 2.078-4.015 2.619-6.427l1.938.011c-.129.335-.271.795-.422 1.385l-.181.594 3.885-.546.248 1.764-1.043 2.608 2.332-.328 1.5 10.676-8.201 1.153-1.331-9.47-.205.408zm5.051-4.781l-2.85.4c-.396.94-.83 1.821-1.301 2.645l3.107-.437 1.044-2.608zm3.165 16.88c-3.017.675-5.288 1.216-6.815 1.621l-.459-2.018 1.898-.267c3.428-.671 6.048-1.229 7.865-1.673l.117.835c-.006.379.004.662.031.848l-2.637.654zm-6.304-12.273l.404 2.878 1.813-.255-.404-2.878-1.813.255zm.627 4.456l.404 2.878 1.812-.255-.405-2.878-1.811.255zm.352 19.381l-.248-1.764 10.706-1.504.248 1.764-2.937.413.418 2.971 2.591-.364 2.257 16.061-1.641.23-.195-1.393-6.648.934.196 1.393-1.641.231-2.257-16.061 2.676-.376-.417-2.971-3.108.436zm4.029-24.541l-1.812.255.403 2.878 1.813-.255-.404-2.878zm-1.49 28.824l.77 5.477c.994-1.275 1.27-3.081.824-5.417l-.039-.279-1.555.219zm.305-24.113l.403 2.878 1.813-.255-.404-2.878-1.812.255zm6.41 28.66c-1.201.232-1.867-.336-2.002-1.707l-.482-3.435-1.381.194.039.278c.488 2.646.229 4.765-.779 6.358-.124-.045-.314-.145-.57-.299-.257-.153-.445-.252-.57-.298l.274 1.95 6.647-.935-.312-2.228-.864.122zm-5.264 4.526l.365 2.599 6.648-.934-.367-2.6-6.646.935zm.758-14.023l.418 2.971 1.383-.194-.418-2.971-1.383.194zm1.551-25.897l-.273-1.949 5.525-.777c.664-1.544 1.24-3.077 1.73-4.598l1.918.488c-.13.335-.354.84-.668 1.514-.438 1.072-.797 1.849-1.081 2.329l3.021-.424.274 1.95-4.317.606.471 3.342 3.885-.546.262 1.857-3.886.546.483 3.435 4.662-.655.272 1.95-4.662.655.744 5.292-1.899.267-.744-5.292-4.316.606-.273-1.949 4.316-.607-.482-3.435-3.713.522-.261-1.857 3.714-.521-.471-3.342-4.231.593zm2.449-2.616c-.957-1.38-1.714-2.377-2.27-2.995l1.449-.961c.416.448.983 1.156 1.707 2.127l.637.763-1.523 1.066zm.784 32.48l-1.554.218.404 2.878c.055.813.451 1.136 1.191.968l.518-.073-.559-3.991zm5.563 2.626l1.004 7.148c.041 1.13.658 1.548 1.851 1.255l1.122-.158c1.168-.038 1.735-.59 1.703-1.659-.017-.945-.081-2.039-.197-3.286.124.046.333.081.631.101.602.105 1.021.173 1.262.201-.023.256.001.632.069 1.126.04 1.13.034 1.921-.02 2.369.029 1.889-.912 2.905-2.829 3.049l-2.072.291c-1.947.336-3.033-.489-3.253-2.478l-1.345-9.563 5.439-.764-.822-5.849-5.698.801-.272-1.95 7.598-1.068 1.355 9.655-5.526.779zm2.983-36.984l-.248-1.764 5.612-.789-.248-1.764 1.985-.279.247 1.764 5.268-.74-.248-1.764 1.899-.267.247 1.764 5.785-.813.248 1.764-5.785.813.145 1.021-1.899.267-.144-1.021-5.268.74.171 1.207-1.986.279-.17-1.207-5.611.789zm9.915 14.796c-2.579.867-4.972 1.802-7.178 2.808l-.605-1.809 1.011-.331-1.188-8.448 1.468-.206 1.148 8.169c.164-.085.414-.184.751-.295.328-.172.578-.271.751-.295l-1.136-8.077 1.435-2.947-5.007.704-.235-1.671 6.907-.971.235 1.671-1.557 3.343.195 1.392 2.072-.291.248 1.764-2.072.291.587 4.178c.607-.274 1.243-.553 1.908-.836l.262 1.857zm-1.209 30.203l-.366.525-1.716-1.558c.546-.707.72-1.552.524-2.535l-2.205-15.689 2.158-.303 2.23 15.875c1.609-1.488 3.23-3.105 4.865-4.849.018.125.07.306.164.545.312.966.551 1.626.719 1.981-1.66 1.559-3.479 3.234-5.456 5.027l-.917.981zm.334-41.441l-.222-1.579 4.748-.667-.728-1.412 2.033-.57c.092.24.226.569.402.985.157.294.278.529.362.706l4.923-.691.222 1.578-6.477.91c-1.222 1.75-2.057 2.909-2.505 3.476 1.899-.267 3.79-.595 5.672-.987-.529-.43-.998-.837-1.403-1.223l1.165-1.11c1.59 1.292 2.994 2.514 4.213 3.668l-1.226 1.308c-.143-.169-.378-.388-.709-.658-.332-.269-.566-.488-.709-.658-2.983.483-5.244.895-6.78 1.237-.799.176-1.446.362-1.946.558l-.854-1.679c.753-.484 1.699-1.689 2.838-3.617l-3.019.425zm3.336 6.821c.683 3.187.054 5.609-1.884 7.271l-.497-.404c-.406-.385-.743-.686-1.007-.9 1.776-1.134 2.358-3.044 1.747-5.736l-.195-1.393 1.64-.23.196 1.392zm1.704 20.233c-1.267-1.905-2.547-3.713-3.844-5.424l1.583-1.264c1.479 1.749 2.841 3.515 4.09 5.295l-1.829 1.393zm11.559 13.333c-.973-1.063-2.34-2.448-4.105-4.156-.257-.153-.423-.287-.497-.404-.824 2.073-2.827 4.31-6.012 6.714-.198-.161-.511-.496-.935-1.004-.291-.401-.536-.682-.733-.844 5.465-3.292 7.659-8.144 6.582-14.558-.217-2.368-.453-4.48-.714-6.337l2.07-.291c.375 2.662.612 4.775.715 6.337.28 3.243.2 5.811-.237 7.702.736.654 1.818 1.67 3.246 3.047 1.002.869 1.701 1.464 2.1 1.788l-1.48 2.006zm-10.576-27.6l-1.07-7.613 1.727-.243 1.07 7.613-1.727.243zm5.439-.765c-1.258.239-1.958-.356-2.1-1.788l-.783-5.57 1.641-.23.744 5.292c.002.44.259.594.77.46.525-.012.751-.295.673-.852-.024-1.005-.097-1.942-.219-2.81.113-.016.323.018.631.101.361.076.601.105.717.089.112.805.194 1.804.244 2.995.019 1.385-.58 2.132-1.798 2.241l-.52.072zm5.799-6.398l1.14-1.296 5.232 4.661-1.199 1.494-5.173-4.859zm.335 16.827l-.261-1.856 4.146-.583c-.242-.471-.573-1.15-.991-2.039l1.947-.558c.082.178.241.472.476.88.269.658.479 1.132.641 1.425l3.54-.498.262 1.857-9.76 1.372zm.152 5.469l-.248-1.764 3.108-.437c-.358-.454-.855-1.078-1.495-1.873-.274-.277-.449-.473-.523-.589l1.352-1.042c.141.17.385.452.733.844.623.67 1.111 1.232 1.471 1.687l-1.277.937 2.677-.376c.525-1.272.969-2.503 1.331-3.69l1.817.407c-.21.598-.562 1.437-1.056 2.515-.081.264-.146.432-.193.5l2.936-.413.248 1.764-10.881 1.53zm1.118 4.198l-.261-1.857 4.145-.583-.326-2.321 1.899-.267.326 2.321 3.885-.546.262 1.857-3.886.546.757 5.385c.292 1.663-.364 2.638-1.966 2.927l-1.985.279c-.128-.488-.363-1.118-.706-1.889l1.642-.23c.862-.121 1.217-.519 1.064-1.191l-.705-5.013-4.145.582zm3.157 1.166c-.358 1.629-.841 3.211-1.445 4.748l-1.546-.351c.517-1.334.969-2.913 1.358-4.735l1.633.338zm6.195 2.727c-.291-.4-.69-.944-1.196-1.63-.574-.739-1.003-1.279-1.284-1.619l1.362-.949c.865 1.142 1.684 2.163 2.456 3.063l-1.338 1.135zm7.769 2.032l-1.645-11.698-2.763.389.063.464c.804 4.874.466 8.739-1.011 11.598-.066-.054-.225-.127-.472-.218-.256-.153-.731-.403-1.425-.747 1.422-2.409 1.754-5.894.995-10.459l-1.253-8.913c2.852-.59 5.483-1.275 7.898-2.057l.878 1.864c-1.799.57-4.009 1.132-6.63 1.689l.679 4.828 7.166-1.007.274 1.95-2.504.352 1.644 11.697-1.894.268zm-.296-47.219l-.262-1.857 4.146-.582c-.242-.471-.573-1.15-.991-2.039l1.947-.558c.082.178.242.472.476.88.27.658.48 1.132.642 1.425l3.54-.498.261 1.857-9.759 1.372zm.153 5.469l-.248-1.764 3.108-.437c-.358-.454-.855-1.078-1.495-1.872-.273-.277-.449-.473-.522-.589l1.351-1.042c.141.169.385.452.734.843.623.67 1.11 1.233 1.47 1.687l-1.277.937 2.677-.376c.525-1.272.97-2.503 1.331-3.69l1.817.407c-.21.598-.562 1.437-1.055 2.515-.081.264-.146.432-.194.5l2.936-.413.248 1.764-10.881 1.53zm1.118 4.198l-.261-1.857 4.145-.583-.325-2.321 1.898-.267.326 2.321 3.885-.546.262 1.857-3.886.546.757 5.385c.292 1.663-.363 2.638-1.966 2.927l-1.984.279c-.128-.488-.364-1.118-.706-1.889l1.641-.23c.863-.121 1.217-.519 1.065-1.191l-.705-5.013-4.146.582zm3.157 1.166c-.358 1.629-.84 3.211-1.445 4.748l-1.546-.351c.518-1.334.969-2.913 1.359-4.735l1.632.338zm.194 21.381c-.317-.585-.696-1.195-1.139-1.828 1.204-1.873 2.077-4.015 2.619-6.427l1.938.012c-.13.335-.271.795-.423 1.385l-.181.593 3.886-.546.247 1.764-1.042 2.607 2.331-.327 1.501 10.676-8.202 1.153-1.331-9.47-.204.408zm5.051-4.781l-2.85.4c-.396.94-.831 1.821-1.302 2.645l3.108-.437 1.044-2.608zm3.165 16.881c-3.018.675-5.288 1.216-6.815 1.621l-.46-2.019 1.899-.267c3.428-.671 6.048-1.229 7.864-1.673l.117.835c-.006.379.005.662.031.848l-2.636.655zm-6.303-12.274l.405 2.878 1.813-.255-.404-2.878-1.814.255zm.626 4.456l.403 2.878 1.813-.255-.405-2.878-1.811.255zm3.461-22.936c-.291-.4-.691-.944-1.197-1.63-.574-.739-1.003-1.279-1.284-1.619l1.363-.949c.864 1.142 1.683 2.163 2.456 3.063l-1.338 1.135zm.92 17.776l-1.813.255.404 2.878 1.812-.255-.403-2.878zm-1.186 4.711l.404 2.878 1.812-.254-.403-2.878-1.813.254zm8.036-20.455l-1.644-11.698-2.764.388.064.464c.803 4.874.465 8.739-1.011 11.598-.067-.055-.226-.127-.473-.218-.256-.153-.73-.403-1.425-.746 1.422-2.409 1.754-5.894.995-10.459l-1.253-8.913c2.852-.59 5.483-1.275 7.898-2.057l.878 1.864c-1.799.569-4.009 1.132-6.63 1.689l.68 4.828 7.166-1.007.273 1.95-2.504.352 1.645 11.697-1.895.268zm-4.58 13.721l-.273-1.949 5.525-.777c.663-1.544 1.24-3.077 1.73-4.598l1.918.488c-.13.335-.354.839-.668 1.514-.438 1.071-.797 1.849-1.081 2.329l3.021-.425.274 1.95-4.317.607.471 3.342 3.885-.546.262 1.857-3.886.546.482 3.435 4.662-.655.273 1.95-4.662.655.744 5.292-1.899.267-.744-5.292-4.316.606-.273-1.95 4.316-.606-.482-3.435-3.713.521-.261-1.856 3.713-.522-.47-3.342-4.231.594zm2.449-2.616c-.957-1.38-1.714-2.377-2.271-2.995l1.45-.961c.415.447.983 1.156 1.707 2.126l.636.763-1.522 1.067zm6.447-26.11c-.317-.585-.696-1.195-1.139-1.828 1.204-1.874 2.077-4.015 2.619-6.427l1.938.012c-.129.335-.271.795-.422 1.385l-.182.593 3.886-.546.247 1.764-1.042 2.608 2.331-.327 1.501 10.676-8.201 1.153-1.331-9.469-.205.406zm5.051-4.781l-2.85.4c-.396.94-.83 1.821-1.302 2.646l3.108-.438 1.044-2.608zm3.165 16.88c-3.018.676-5.288 1.217-6.815 1.621l-.46-2.019 1.899-.267c3.428-.671 6.048-1.229 7.865-1.674l.116.836c-.006.379.005.662.031.848-.566.143-1.444.361-2.636.655zm-6.304-12.273l.404 2.878 1.813-.254-.404-2.878-1.813.254zm.627 4.456l.403 2.878 1.813-.255-.405-2.878-1.811.255zm5.817 35.086c-.293.42-.559.836-.793 1.248l-1.392-1.13c.332-.551.442-1.229.33-2.035l-1.122-7.984-1.899.267-.287-2.042 3.799-.534 1.279 9.098c.097-.139.263-.416.5-.828.314-.674.571-1.153.768-1.433.228.789.473 1.481.73 2.075-.187.343-.491.89-.913 1.643-.431.692-.765 1.244-1 1.655zm-1.784-13.95c-1.188-1.348-2.291-2.518-3.312-3.511l1.396-1.333c.134.109.336.301.609.577 1.352 1.263 2.305 2.201 2.861 2.817l-1.554 1.45zm.348-26.296l-1.813.255.404 2.878 1.812-.255-.403-2.878zm-1.186 4.711l.404 2.878 1.812-.254-.403-2.878-1.813.254zm3.456-6.734l-.273-1.949 5.525-.777c.663-1.544 1.24-3.077 1.73-4.598l1.918.488c-.13.334-.354.839-.668 1.514-.438 1.071-.797 1.849-1.081 2.329l3.021-.425.274 1.95-4.317.607.471 3.342 3.885-.546.262 1.857-3.886.546.482 3.435 4.662-.655.273 1.95-4.662.655.744 5.292-1.899.267-.744-5.292-4.316.607-.273-1.95 4.316-.606-.482-3.435-3.713.521-.261-1.856 3.713-.522-.47-3.342-4.231.593zm3.46 40.246c-.098 1.402-.521 2.976-1.272 4.723l-1.971-.859c.846-1.508 1.323-2.899 1.438-4.178.114-1.278-.007-3.185-.363-5.724l-1.462-10.398 13.296-1.869 2.545 18.104c.3 1.724-.379 2.735-2.039 3.032l-2.763.388-.719-1.981c.928-.068 1.738-.15 2.43-.247.987-.077 1.391-.543 1.212-1.401l-2.229-15.875-9.67 1.359 1.199 8.542c.39 2.783.513 4.912.368 6.384zm-1.011-42.862c-.957-1.38-1.714-2.377-2.27-2.995l1.449-.961c.415.447.983 1.156 1.707 2.126l.637.763-1.523 1.067zm1.423 32.011l-.235-1.671 2.592-.364-.263-1.857 1.729-.243.261 1.857 2.59-.364.235 1.671-2.591.364.287 2.042 3.107-.437.235 1.671-7.943 1.116-.235-1.671 3.107-.437-.287-2.042-2.589.365zm1.816 11.674l-.861-6.127 6.476-.91.861 6.127-6.476.91zm1.015-4.687l.391 2.785 3.108-.437-.392-2.785-3.107.437zm7.085-36.044l-1.59-1.291c2.058-2.056 3.8-4.7 5.225-7.929l2.198-.025c-.139.272-.316.676-.534 1.211-.188.343-.302.579-.341.71l8.289-1.165.247 1.764-1.573 2.588 4.663-.655 1.526 10.862-15.888 2.233-1.305-9.284-.917.981zm.467 12.715l-.234-1.671 20.463-2.876.233 1.671-20.462 2.876zm1.546 10.407l-.248-1.764 10.706-1.505.248 1.764-2.936.413.417 2.971 2.591-.364 2.257 16.061-1.641.231-.195-1.393-6.647.934.195 1.393-1.641.23-2.257-16.061 2.676-.376-.417-2.971-3.108.437zm9.15-29.519l-7.252 1.02c-.521.894-1.073 1.76-1.66 2.6l7.253-1.019 1.659-2.601zm-8.219 5.415l.378 2.692 5.008-.704-.379-2.692-5.007.704zm.614 4.363l.392 2.785 5.008-.704-.392-2.785-5.008.704zm.994 24.023l.771 5.478c.994-1.276 1.269-3.081.823-5.417l-.039-.278-1.555.217zm6.714 4.548c-1.2.232-1.867-.336-2.002-1.707l-.481-3.435-1.382.194.039.279c.488 2.646.229 4.765-.779 6.357-.124-.044-.314-.145-.57-.298-.257-.153-.445-.252-.569-.298l.273 1.949 6.648-.934-.313-2.228-.864.121zm-5.263 4.526l.365 2.6 6.648-.934-.366-2.6-6.647.934zm.758-14.023l.418 2.971 1.383-.194-.418-2.971-1.383.194zm8.097-25.112l-5.008.704.379 2.692 5.008-.704-.379-2.692zm-3.313 29.078l-1.554.219.404 2.878c.055.813.451 1.136 1.191.968l.519-.073-.56-3.992zm-1.081-24.01l.393 2.785 5.008-.704-.393-2.785-5.008.704zm6.644 26.637l1.005 7.148c.04 1.13.658 1.548 1.85 1.255l1.122-.158c1.168-.039 1.735-.59 1.703-1.66-.016-.944-.081-2.039-.197-3.286.124.046.333.081.631.101.602.105 1.021.173 1.262.202-.023.256.001.631.069 1.126.04 1.13.034 1.921-.02 2.37.03 1.889-.912 2.905-2.829 3.048l-2.072.292c-1.947.336-3.032-.49-3.253-2.478l-1.345-9.563 5.439-.765-.822-5.849-5.698.801-.273-1.949 7.599-1.068 1.355 9.655-5.526.778zm5.15-26.021l-1.462-10.398 3.194-.449-.574-4.084 1.813-.255.573 4.085 3.281-.461 1.33 9.47-3.28.461.64 4.549c.229-.032.601-.116 1.108-.251.52-.073.889-.156 1.109-.25l-1.116-2.305 1.489-.683c.744 1.538 1.618 3.37 2.622 5.501l-1.588.602c-.085-.177-.216-.476-.391-.892-.102-.303-.193-.541-.276-.719-3.442.988-6.148 1.778-8.119 2.372l-.619-1.901c.738-.166 2.07-.511 3.992-1.034l-.665-4.735-1.554.218.13.929-1.637.23zm.452-8.678l.796 5.663 1.729-.243-.796-5.663-1.729.243zm4.592 44.535l-2.558-18.196 2.331-.328c.021-.254.061-.607.116-1.058.134-.712.21-1.639.226-2.777l2.211.068c-.133 1.155-.291 2.313-.479 3.476l3.886-.546 2.531 18.01-1.899.267-.248-1.764-4.403.619.273 1.95-1.987.279zm.416-45.239l-1.727.243.796 5.663 1.727-.243-.796-5.663zm-.702 28.807l.719 5.106 4.401-.619-.717-5.106-4.403.619zm1.005 7.148l.743 5.292 4.403-.619-.744-5.292-4.402.619zm1.296-38.358l-.301-2.135 11.482-1.614.301 2.135-5.611.789.729 5.199.587-.84c1.471.867 3.309 2.029 5.508 3.486l-1.146 1.865c-1.563-1.106-3.153-2.175-4.767-3.212l1.632 11.604-1.985.279-2.544-18.104-3.885.548zm13.241 45.309l-3.625.51c-.154-.674-.403-1.396-.745-2.167.756-.044 1.883-.17 3.38-.38 1.629-.103 2.326-.989 2.092-2.661-.076-1.376-.399-4.299-.968-8.763-.126-1.308-.228-2.24-.306-2.797l-5.181.728c-.152.59-.413 1.447-.783 2.572l-.36 1.187c-.57-.299-1.198-.589-1.885-.872 1.008-2.854 1.689-5.729 2.047-8.619l2.052.185c-.063.388-.162.938-.296 1.651l-.283 1.744 6.389-.898c.558 3.961 1.094 8.62 1.612 13.974.372 2.66-.675 4.196-3.14 4.606zm-2.542-6.175c-.35-.392-.871-.98-1.567-1.768-.99-1.186-1.762-2.086-2.317-2.704l1.397-1.333c.489.563 1.215 1.344 2.179 2.345.821.831 1.443 1.501 1.867 2.01l-1.559 1.45zm6.376-29.129l1.14-1.296 5.232 4.661-1.198 1.494-5.174-4.859zm.873 18.067l-.3-2.135 8.375-1.177-.47-3.342 2.158-.304.47 3.342 8.461-1.189.3 2.135-8.461 1.189.509 3.621 7.166-1.007.287 2.042-7.166 1.007.509 3.621 9.152-1.286.3 2.135-9.15 1.286.743 5.292-2.158.303-.744-5.292-9.151 1.286-.301-2.135 9.152-1.286-.51-3.621-7.166 1.007-.286-2.042 7.166-1.007-.51-3.621-8.375 1.178zm18.736-30.203c-.344-.771-.846-1.836-1.506-3.196-.186-.479-.356-.864-.516-1.158l1.156-.542c.074.117.19.321.352.614.885 1.707 1.466 2.918 1.743 3.636l-1.229.646zm6.769 8.706c-.424-.508-1.084-1.235-1.979-2.183-.198-.162-.336-.299-.41-.416l1.2 8.541-1.727.243-1.2-8.541c-.396 2.202-1.002 4.149-1.82 5.841-.11-.363-.333-.9-.667-1.61-.102-.301-.188-.509-.264-.625 1.039-1.787 1.762-4.16 2.168-7.121l-2.85.4-.247-1.764 2.936-.413-1.148-8.169 1.729-.243 1.146 8.169 2.592-.364.247 1.764-2.591.364.365 2.599.759-.864c1.369 1.386 2.36 2.383 2.975 2.99l-1.214 1.402zm-3.496 19.636l-.652-4.642 8.721-1.226c-.034-.247-.141-.58-.315-.997-.127-.486-.233-.819-.316-.997l2.307-.513.657 2.18 8.375-1.177.652 4.642-1.986.279-.417-2.971-15.455 2.172.419 2.971-1.99.279zm2.736-33.824c-.253 1.55-.558 3.14-.915 4.767l-1.359-.282c.415-1.635.72-3.225.915-4.767l1.359.282zm.566 49.17l-1.253-8.913 17.182-2.415 1.253 8.913-1.985.279-.156-1.114-13.21 1.856.156 1.114-1.987.28zm-.245-16.154l-.17-1.207 13.21-1.856.17 1.207-13.21 1.856zm.623 5.688l-.601-4.271 13.642-1.917.601 4.271-13.642 1.917zm-.369-37.744l-.209-1.485 4.835-.68-.273-1.95 1.899-.267.273 1.949 5.354-.752.208 1.485-5.353.752.209 1.485 4.835-.68.195 1.393-4.835.68.222 1.578 5.698-.801.209 1.485-12.778 1.796-.209-1.485 5.181-.729-.222-1.578-4.403.619-.194-1.393 4.402-.619-.209-1.485-4.835.682zm.933 40.504l.261 1.857 5.612-.789-.263-1.856-5.61.788zm.444 3.157l.234 1.671 5.611-.789-.233-1.671-5.612.789zm1.677-25.061l-1.577-11.233 10.792-1.517 1.174 8.355c.301 1.724-.407 2.739-2.125 3.044l-1.122.158c-.684.158-1.227.267-1.628.323-.194-.541-.424-1.14-.692-1.796.583-.02 1.423-.105 2.518-.259.986-.076 1.391-.543 1.212-1.401l-.104-.743-7.166 1.007.535 3.806-1.817.256zm-1.117 15.894l.233 1.671 9.584-1.347-.233-1.671-9.584 1.347zm1.547-25.99l.233 1.671 7.166-1.007-.233-1.671-7.166 1.007zm.431 3.063l.222 1.579 7.166-1.007-.222-1.578-7.166 1.006zm10.227 27.081l-5.611.789.261 1.857 5.612-.789-.262-1.857zm-5.168 3.945l.233 1.671 5.612-.789-.234-1.671-5.611.789zm8.737-43.092c-1.387-1.509-2.52-2.676-3.396-3.499l1.483-1.345c.207.224.543.524 1.007.9 1.161 1.163 1.982 1.994 2.465 2.494l-1.559 1.45zm1.646 13.59c-.915 1.012-1.673 2.096-2.272 3.254l-1.263-2.095c.155-.147.407-.436.759-.864.692-.917 1.19-1.555 1.492-1.914l-1.019-7.241-2.33.328-.287-2.042 4.315-.607 1.279 9.098c1.213 1.534 2.942 2.143 5.187 1.827 1.274-.117 4.01-.501 8.202-1.153l3.367-.473c-.126.775-.231 1.484-.317 2.127-5.87.825-9.731 1.335-11.582 1.533-2.301.324-4.146-.268-5.531-1.778zm-1.655 13.319l-.222-1.578 5.871-.825-.234-1.671 1.898-.267.234 1.671 5.525-.776-.234-1.671 1.899-.267.233 1.671 5.612-.789.222 1.578-5.61.789.155 1.114-1.898.267-.157-1.114-5.525.777.156 1.114-1.897.267-.157-1.114-5.871.824zm.569 3.423l-.209-1.485 9.497-1.335.209 1.486-2.764.388.3 2.135 2.159-.303 1.854 13.183-1.468.207-.171-1.207-5.438.765.17 1.207-1.468.207-1.854-13.183 2.244-.315-.3-2.135-2.761.385zm4.633-30.967c-.215.977-.438 1.893-.671 2.745-.182-.037-.487-.121-.915-.25-.487-.121-.82-.2-1.002-.238.788-2.319 1.291-4.598 1.504-6.838l1.865.117c-.023.256-.081.674-.177 1.255-.037.573-.091 1.023-.162 1.348l2.764-.388-.522-3.713 1.986-.279.521 3.713 5.182-.728.248 1.764-5.182.728.51 3.621 6.044-.849.248 1.764-4.576.643.587 4.178c.072.937.479 1.322 1.219 1.154l.519-.073c.699-.035 1.046-.493 1.039-1.377.02-.696.001-1.451-.055-2.265.609.167 1.188.307 1.732.419.055.813.077 1.599.065 2.357-.021 1.518-.723 2.374-2.104 2.568l-1.642.23c-1.604.289-2.511-.53-2.723-2.458l-.626-4.456-2.591.364c.553 3.52-.382 6.271-2.802 8.251l-1.69-1.372c2.235-1.64 3.099-3.844 2.593-6.613l-3.626.51-.248-1.764 6.648-.934-.509-3.621-3.451.487zm-2.31 34.333l.534 3.806c.742-.987.995-2.317.761-3.988l-1.295.182zm5.555 3.196c-1.036.146-1.624-.276-1.765-1.267l-.339-2.414-1.122.158c.278 1.982.012 3.629-.803 4.941-.207-.223-.469-.408-.782-.553l.223 1.578 5.438-.765-.247-1.764-.603.086zm-4.391 3.835l.301 2.135 5.438-.765-.3-2.135-5.439.765zm.658-10.98l.3 2.135 1.122-.158-.3-2.135-1.122.158zm4.049 3.124l-1.296.182.263 1.857c.027.627.299.874.808.738l.604-.084-.379-2.693zm3.133-.251c-.283.482-.563.995-.84 1.538l-1.013-1.562c1.155-1.803 1.931-3.805 2.326-6.007l1.68.048c-.095.582-.247 1.171-.456 1.769l2.937-.413c-.067-.053-.139-.138-.212-.254-.441-.632-.771-1.09-.986-1.376l1.489-.683c.498.625.973 1.283 1.423 1.978l-.333.141 3.021-.425.195 1.393-3.281.461.235 1.671 2.849-.4.196 1.393-2.85.4.234 1.671 2.85-.4.195 1.393-2.85.4.234 1.671 3.367-.474.195 1.393-8.029 1.128.078.557-1.641.231-1.013-7.242zm2.258 7.919c-.099 1.401-.244 2.652-.441 3.754-.058.008-.206-.003-.444-.032-.534-.052-.864-.1-.988-.145.172-1.287.326-2.475.468-3.568l1.405-.009zm-.969-10.656l.235 1.671 3.108-.437-.235-1.671-3.108.437zm.43 3.063l.234 1.671 3.107-.437-.234-1.671-3.107.437zm.431 3.064l.234 1.671 3.107-.437-.233-1.671-3.108.437zm1.873 7.689c-.264-1.037-.555-2.068-.875-3.096l1.441-.392c.107.363.27.877.479 1.542.152.672.284 1.191.396 1.554l-1.441.392zm2.996-.61c-.076-.117-.16-.294-.251-.533-.212-.665-.56-1.469-1.043-2.409l1.342-.473c.493 1.004.924 1.984 1.294 2.942l-1.342.473zm3.134-.252c-.159-.294-.362-.706-.614-1.239-.168-.355-.522-1-1.063-1.934l1.416-.578c.092.24.256.565.489.973.29.4.688 1.134 1.188 2.2l-1.416.578z"/></svg>