<?xml version="1.0" encoding="utf-8"?>
<!-- Generator: Adobe Illustrator 16.0.0, SVG Export Plug-In . SVG Version: 6.00 Build 0)  -->
<!DOCTYPE svg PUBLIC "-//W3C//DTD SVG 1.1//EN" "http://www.w3.org/Graphics/SVG/1.1/DTD/svg11.dtd">
<svg version="1.1" id="图层_1" xmlns="http://www.w3.org/2000/svg" xmlns:xlink="http://www.w3.org/1999/xlink" x="0px" y="0px"
	 width="640px" height="584px" viewBox="0 0 640 584" enable-background="new 0 0 640 584" xml:space="preserve">
<g>
	<polygon fill="#EDAF37" points="-0.5,120.434 639.5,29.577 639.5,174.566 -0.5,265.424 	"/>
	<path fill="#FFE6A6" d="M639,30.153v143.979L0,264.848v-143.98L639,30.153 M640,29.001L-1,120v146l641-91V29.001L640,29.001z"/>
</g>
<g id="图层_2">
	<polygon fill="#FAAF32" points="502.637,49.754 451.025,200.716 640,173.625 640,30.259 	"/>
	<polygon fill="#FAAF32" points="0,121.5 99.825,107.008 208.531,235.396 0,264.771 	"/>
</g>
<path fill="#FFFFFF" d="M57.931,153.438c-0.795-0.646-2.065-1.54-3.811-2.684l1.086-1.667c1.711,0.896,3.029,1.72,3.958,2.473
	L57.931,153.438z M58.145,147.444c-1.251-0.96-2.583-1.876-3.997-2.751l1.172-1.68c1.149,0.659,2.472,1.515,3.971,2.566
	L58.145,147.444z M59.777,155.924c-0.616,3.558-1.06,6.459-1.33,8.708l-2.189-0.544c0.421-2.015,0.893-4.921,1.416-8.72
	c0.247,0.093,0.614,0.198,1.101,0.319C59.194,155.755,59.529,155.833,59.777,155.924L59.777,155.924z M58.599,183.275l-0.339-2.414
	l20.98-2.948l0.339,2.414L58.599,183.275z M64.04,144.911c0.521,2.452-0.366,4.501-2.658,6.148c-0.481-0.5-1.02-0.993-1.616-1.477
	c1.999-1.228,2.769-2.851,2.309-4.869l-0.287-2.042l9.152-1.287l0.561,3.992c0.055,0.813,0.511,1.128,1.365,0.944l1.899-0.267
	l0.028,2.079l-2.417,0.34c-1.612,0.227-2.53-0.464-2.757-2.074l-0.391-2.785l-5.267,0.74L64.04,144.911L64.04,144.911z
	 M76.611,159.807c-0.241,0.792-0.491,1.52-0.749,2.188c-2.876-0.417-5.281-1.025-7.212-1.826c-1.62,1.426-3.861,2.814-6.723,4.164
	c-0.384-0.641-0.825-1.273-1.323-1.897c2.879-1.224,4.92-2.363,6.123-3.417c-1.648-1.283-3.185-3.023-4.608-5.222l0.319-0.234
	l-1.123,0.158l-0.274-1.949l12.347-1.735l0.3,2.135c-0.936,2.531-2.102,4.683-3.495,6.456
	C71.935,159.328,74.075,159.723,76.611,159.807L76.611,159.807z M65.398,212.828l-1.67-11.883l15.973-2.245l1.67,11.883
	L65.398,212.828z M71.708,214.497c-1.808,2.59-3.811,5.047-6.007,7.377c-0.133-0.109-0.432-0.351-0.894-0.727
	c-0.407-0.385-0.709-0.658-0.908-0.819c2.174-2.072,4.16-4.434,5.959-7.086L71.708,214.497L71.708,214.497z M68.371,157.557
	c1.225-1.308,2.24-3.06,3.047-5.256l-7.252,1.019C65.422,155.164,66.824,156.576,68.371,157.557L68.371,157.557z M66.087,202.696
	l1.083,7.706l11.742-1.65l-1.083-7.705L66.087,202.696z M83.128,219.33c-2.294-1.698-4.863-3.482-7.708-5.354l1.345-1.704
	c0.454,0.315,1.104,0.761,1.949,1.336c2.655,1.773,4.624,3.042,5.906,3.809L83.128,219.33z M77.075,144.309l-0.287-2.042
	l6.562-0.922c0.039-0.131,0.091-0.392,0.154-0.779c0.177-0.403,0.371-1.125,0.577-2.164l2.284-0.037
	c-0.215,0.977-0.443,1.861-0.684,2.652l11.224-1.578l0.287,2.042l-12.26,1.723c-0.041,0.133-0.125,0.365-0.254,0.698
	c-0.129,0.335-0.396,0.94-0.801,1.817l11.396-1.602l1.683,11.976c0.376,1.84-0.443,2.902-2.458,3.186
	c-1.267,0.178-2.389,0.335-3.367,0.473c-0.203-0.603-0.438-1.233-0.706-1.889c0.864-0.121,1.87-0.263,3.022-0.424
	c1.168-0.039,1.621-0.576,1.358-1.611l-0.169-1.207l-10.274,1.444l0.691,4.92l-2.072,0.291l-1.54-10.955
	c-0.765,1.243-1.653,2.442-2.665,3.593c-0.499-0.624-0.912-1.259-1.237-1.909c2.26-2.715,3.946-5.54,5.061-8.474L77.075,144.309z
	 M83.939,177.441c-0.469,1.266-1.018,2.574-1.65,3.924c-0.11-0.363-0.298-0.873-0.567-1.53c-0.186-0.479-0.329-0.868-0.429-1.17
	c1.456-3.424,2.432-7.126,2.929-11.11l2.164,0.359c-0.112,0.458-0.251,1.14-0.417,2.046c-0.288,1.304-0.507,2.249-0.658,2.838
	l2.388,16.989l-1.986,0.279L83.939,177.441L83.939,177.441z M83.188,147.71l0.339,2.414l10.274-1.444l-0.339-2.414L83.188,147.71z
	 M83.775,151.888l0.339,2.414l10.274-1.444l-0.339-2.414L83.775,151.888z M85.121,199.07l-0.195-1.393l17.526-2.463l0.196,1.393
	l-7.771,1.092l0.209,1.486l8.807-1.238l0.613,4.363l-1.899,0.267l-0.405-2.878l-6.907,0.971L96,205.683l-1.986,0.279l-0.705-5.013
	l-6.82,0.958l0.404,2.878l-1.899,0.267l-0.613-4.363l8.72-1.226l-0.209-1.485L85.121,199.07z M85.054,209.872l-0.222-1.578
	l20.721-2.913l0.222,1.579l-9.843,1.383l-0.27,1.836l8.807-1.237l0.652,4.642c0.266,1.478-0.373,2.355-1.918,2.637
	c-0.921,0.129-1.612,0.226-2.072,0.291c-0.186-0.48-0.379-1.021-0.58-1.623c0.575-0.081,1.093-0.154,1.554-0.218
	c0.872-0.061,1.226-0.457,1.065-1.191l-0.378-2.692l-3.54,0.498l0.704,5.013l-1.727,0.243l-0.705-5.013l-3.367,0.474l0.718,5.106
	l-1.727,0.243l-0.717-5.106l-3.368,0.474l0.783,5.57l-1.986,0.279l-1.005-7.148l6.821-0.958l0.184-1.825L85.054,209.872z
	 M87.242,173.38l-0.287-2.042l6.389-0.898c-0.502-1.065-1.08-2.246-1.731-3.543l2.106-0.675c0.251,0.533,0.66,1.36,1.229,2.478
	c0.251,0.533,0.455,0.946,0.614,1.239l-0.837,0.307l6.13-0.861l0.287,2.042L87.242,173.38z M88.123,204.139l-0.157-1.114
	l4.403-0.619l0.157,1.114L88.123,204.139z M88.436,206.367l-0.144-1.021l4.403-0.619l0.144,1.021L88.436,206.367z M88.837,188.492
	l-0.261-1.856l7.425-1.044c0.847-4.41,1.528-8.546,2.042-12.405l2.164,0.359c-0.338,2.194-0.914,5.399-1.73,9.615
	c-0.215,0.977-0.35,1.691-0.403,2.14l5.439-0.765l0.261,1.857L88.837,188.492z M92.56,184.277c-0.656-1.737-1.833-4.476-3.532-8.213
	c-0.177-0.416-0.307-0.714-0.39-0.892l1.821-0.824c1.699,3.737,3.03,6.738,3.995,9L92.56,184.277z M96.843,202.914l-0.157-1.114
	l4.403-0.619l0.157,1.114L96.843,202.914z M97.156,205.142l-0.144-1.021l4.403-0.619l0.144,1.021L97.156,205.142z M100.694,148.846
	l-0.274-1.95l3.281-0.461l-0.091-0.65l-1.044-7.427l4.403-0.619c0.054-0.449,0.168-1.096,0.343-1.942
	c0.071-0.325,0.127-0.553,0.168-0.686l2.284-0.037c-0.241,0.791-0.482,1.583-0.723,2.374l7.943-1.116l1.135,8.077l2.936-0.412
	l0.274,1.949l-2.936,0.413l0.874,6.22c0.353,2.095-0.478,3.286-2.492,3.569c-0.971,0.199-2.059,0.384-3.268,0.554
	c-0.11-0.363-0.271-0.877-0.481-1.542c-0.093-0.24-0.181-0.448-0.264-0.625c0.288-0.041,0.719-0.101,1.295-0.182
	c0.583-0.02,1.049-0.053,1.395-0.101c1.332-0.125,1.887-0.77,1.665-1.938l-0.796-5.663l-10.36,1.456
	c0.583,4.147,0.064,7.564-1.553,10.253l-1.936-1.243c1.505-2.23,2.007-5.141,1.502-8.731L100.694,148.846z M104.388,169.454
	l-0.248-1.764l3.367-0.473l-0.405-2.878l1.813-0.255l0.404,2.878l2.849-0.4l0.248,1.764l-2.849,0.4l0.352,2.506l1.209-0.17
	c1.115-1.671,2.03-3.504,2.749-5.499l1.685,0.71c-0.704,1.677-1.434,3.169-2.189,4.473l2.417-0.339l0.248,1.764l-3.972,0.558
	c-0.578,0.902-1.246,1.785-2.005,2.648l5.094-0.716l1.5,10.676l-1.813,0.255l-0.183-1.3l-5.094,0.716l0.183,1.299l-1.813,0.255
	l-1.122-7.984l-1.484,1.345c-0.084-0.178-0.209-0.444-0.376-0.799c-0.242-0.47-0.434-0.791-0.575-0.96
	c2.013-1.545,3.771-3.243,5.271-5.096l-5.526,0.776l-0.248-1.764l4.23-0.595l-0.353-2.506L104.388,169.454z M105.694,145.587
	l0.078,0.557l10.274-1.444l-0.861-6.127l-10.274,1.444L105.694,145.587z M106.713,202.375l-0.274-1.95l3.713-0.522l-0.47-3.342
	c-0.345,0.048-0.889,0.157-1.627,0.323c-0.691,0.097-1.234,0.206-1.627,0.323c-0.035-0.247-0.141-0.579-0.316-0.997
	c-0.119-0.424-0.22-0.727-0.303-0.904c3.821-0.789,6.611-1.402,8.37-1.839l0.706,1.889c-1.085,0.216-2.194,0.467-3.328,0.752
	l0.496,3.528l3.626-0.51l0.274,1.95l-3.626,0.509l0.431,3.064l0.573-0.933c0.264,0.216,0.657,0.508,1.18,0.875
	c1.108,0.791,1.928,1.402,2.458,1.832l-1.073,1.76c-0.199-0.162-0.531-0.43-0.994-0.807c-0.87-0.761-1.533-1.299-1.988-1.614
	l1.292,9.191l-1.899,0.267l-1.396-9.934c-0.502,2.281-1.342,4.449-2.52,6.508c-0.343-0.771-0.711-1.51-1.103-2.212
	c1.341-2.144,2.301-4.709,2.88-7.694L106.713,202.375z M111.613,144.471c-1.242-0.898-2.504-1.731-3.785-2.498l1-1.655
	c1.348,0.821,2.633,1.618,3.858,2.393L111.613,144.471z M108.485,177.304l0.326,2.321l5.094-0.716l-0.326-2.321L108.485,177.304z
	 M112.688,152.746c-1.383-1.067-2.715-1.985-3.997-2.752l1.1-1.575c0.702,0.407,1.927,1.182,3.672,2.324
	c0.19,0.101,0.318,0.177,0.385,0.23L112.688,152.746z M109.033,181.203l0.326,2.321l5.094-0.716l-0.326-2.321L109.033,181.203z
	 M118.855,185.313l-2.949-20.981l7.425-1.043l0.287,2.042l-1.245,6.802c2.018,1.42,3.147,3.188,3.386,5.299
	c0.414,2.531-0.406,4.002-2.461,4.417c-0.69,0.097-1.353,0.19-1.985,0.279c-0.093-0.238-0.203-0.602-0.33-1.089
	c-0.186-0.479-0.32-0.807-0.402-0.985c0.518-0.073,1.123-0.158,1.813-0.255c1.218-0.107,1.697-0.869,1.44-2.285
	c-0.209-1.485-1.35-3.124-3.42-4.916l1.206-7.081l-3.54,0.498l2.675,19.032L118.855,185.313z M119.034,213.613l-2.675-19.032
	l9.152-1.286l2.662,18.939l-1.986,0.279l-0.274-1.949l-5.267,0.74l0.287,2.042L119.034,213.613z M118.533,196.264l1.827,12.997
	l5.267-0.74l-1.827-12.998L118.533,196.264z M123.244,138.198l-0.274-1.95l5.612-0.789c0.218-0.535,0.483-1.361,0.796-2.479
	c0.112-0.457,0.211-0.787,0.301-0.989l2.383,0.044c-0.129,0.334-0.294,0.831-0.495,1.49c-0.25,0.73-0.439,1.261-0.568,1.594
	l11.224-1.577l0.274,1.949l-12.26,1.723c-0.775,2.002-1.568,3.881-2.377,5.636l5.353-0.752l-0.561-3.992l2.072-0.292l0.561,3.992
	l6.648-0.934l0.274,1.949l-6.648,0.935l0.509,3.621l8.547-1.201l0.274,1.95l-8.547,1.201l0.613,4.363l-2.072,0.291l-0.613-4.363
	l-9.929,1.396l-0.274-1.95l9.929-1.396l-0.509-3.621l-7.684,1.08l-0.287-2.042c0.801-1.817,1.568-3.66,2.304-5.531L123.244,138.198z
	 M147.657,166.591c-0.454,0.948-0.762,1.685-0.922,2.212c-4.506-1.575-7.876-3.626-10.109-6.153
	c-1.952,3.242-4.756,6.254-8.414,9.041c-0.566-0.678-1.059-1.271-1.483-1.78c4.119-2.851,7.066-6.105,8.841-9.763l2.457-0.061
	l-0.5,0.828C140.008,163.533,143.384,165.425,147.657,166.591L147.657,166.591z M128.346,176.405l-0.287-2.042l19.599-2.754
	l0.287,2.042l-10.447,1.468c-1.293,2.075-2.457,3.817-3.492,5.225c1.2-0.231,3.407-0.604,6.622-1.12
	c1.028-0.207,1.8-0.348,2.318-0.42c-0.689-0.723-1.489-1.4-2.398-2.03l1.298-1.413c0.653,0.476,1.672,1.249,3.055,2.316
	c1.25,0.96,2.202,1.679,2.856,2.155l-1.444,1.623l-1.504-1.303c-4.925,0.881-8.409,1.561-10.455,2.037
	c-0.173,0.024-0.428,0.091-0.764,0.202c-0.691,0.097-1.23,0.235-1.614,0.417l-1.323-1.897c0.656-0.344,1.204-0.832,1.644-1.462
	c0.994-1.275,1.865-2.596,2.612-3.964L128.346,176.405z M128.894,197.275l-0.6-4.271l9.238-1.299l-1.289-2.28l2.192-0.687
	c0.45,0.694,0.892,1.548,1.328,2.559l-0.16,0.117l8.202-1.153l0.601,4.271l-1.986,0.279l-0.353-2.507l-15.455,2.172l0.352,2.506
	L128.894,197.275z M132.012,198.162l-0.235-1.671l13.814-1.941l0.235,1.671l-5.525,0.777c-0.155,0.149-0.364,0.335-0.625,0.561
	c-0.515,0.515-0.932,0.889-1.251,1.123c0.936,0.815,1.67,1.659,2.205,2.53c2.105-1.305,4.049-2.714,5.833-4.228l1.271,1.526
	c-1.122,0.789-2.269,1.613-3.439,2.471c1.404,2.896,3.546,4.772,6.426,5.629c-0.333,0.553-0.688,1.169-1.061,1.853
	c-3.096-1.142-5.396-3.313-6.901-6.509c-0.107,0.079-0.291,0.23-0.552,0.457c-0.271,0.165-0.483,0.321-0.639,0.468
	c0.502,1.065,0.844,2.248,1.027,3.548c0.448,2.777-0.445,4.354-2.681,4.731c-0.863,0.122-1.813,0.255-2.849,0.401
	c-0.093-0.24-0.231-0.6-0.416-1.078c-0.11-0.363-0.208-0.633-0.29-0.811c0.345-0.048,0.81-0.083,1.394-0.102
	c0.46-0.064,0.834-0.117,1.123-0.158c1.456-0.079,2.033-0.979,1.733-2.705c-0.078-0.557-0.182-1.078-0.308-1.566
	c-2.154,2.639-5.15,4.92-8.986,6.849c-0.318-0.587-0.697-1.196-1.138-1.828c3.833-1.547,6.976-3.821,9.431-6.816
	c-0.225-0.347-0.458-0.755-0.701-1.227c-2.139,2.321-4.805,4.242-7.994,5.763c-0.084-0.178-0.272-0.466-0.563-0.868
	c-0.225-0.347-0.408-0.605-0.549-0.775c3.159-1.327,5.841-3.124,8.046-5.391c-0.084-0.178-0.263-0.404-0.536-0.682
	c-0.134-0.107-0.233-0.188-0.298-0.242c-1.907,1.468-4.128,2.79-6.662,3.966c-0.093-0.238-0.281-0.529-0.563-0.868
	c-0.233-0.408-0.421-0.698-0.562-0.868c3.579-1.26,6.349-2.848,8.311-4.766L132.012,198.162z M131.799,170.902l-0.274-1.95
	l11.311-1.59l0.274,1.95L131.799,170.902z M158.589,134.081l-0.274-1.949l-5.612,0.789l0.274,1.95l-1.986,0.279l-0.274-1.95
	l-5.008,0.704l-0.261-1.857l5.007-0.704l-0.3-2.135l1.986-0.279l0.3,2.135l5.612-0.789l-0.3-2.135l1.986-0.279l0.3,2.136
	l5.094-0.716l0.261,1.857l-5.094,0.716l0.274,1.95L158.589,134.081z M146.615,140.971l-0.561-3.992l19.858-2.791l0.561,3.992
	l-1.986,0.279l-0.3-2.135l-15.887,2.232l0.3,2.135L146.615,140.971z M157.958,150.264c-0.277-0.718-0.554-1.437-0.831-2.155
	c1.39-0.133,2.746-0.292,4.071-0.478c1.447-0.141,2.113-0.833,1.997-2.08c-0.042-1.13-0.154-2.345-0.336-3.645l-6.562,0.922
	c0.168,3.701-2.308,6.762-7.426,9.186c-0.3-0.464-0.737-1.065-1.31-1.804c4.39-1.753,6.611-4.115,6.664-7.09l-6.13,0.861
	l-0.261-1.857l6.389-0.898c0.01-0.759-0.045-1.57-0.167-2.438l2.158-0.303l0.081,2.45l8.461-1.189
	c0.284,2.864,0.439,4.799,0.464,5.804c0.272,2.36-0.916,3.726-3.563,4.098L157.958,150.264z M150.103,163.32l-0.274-1.95
	l5.871-0.825c0.321-1.054,0.551-2.127,0.691-3.221l2.198-0.025c-0.112,0.458-0.255,1.11-0.43,1.954
	c-0.112,0.458-0.184,0.783-0.215,0.977l11.829-1.662l0.274,1.949l-12.692,1.784c-0.425,1.574-1.11,3.375-2.059,5.401l1.709,12.162
	l-1.986,0.279l-1.357-9.655c-0.636,0.91-1.349,1.894-2.139,2.951c-0.384-0.64-0.8-1.308-1.25-2.001
	c2.242-2.839,3.854-5.78,4.835-8.821L150.103,163.32z M172.851,204.347c-0.56,1.026-0.93,1.74-1.107,2.144
	c-5.465-2.134-8.997-5.962-10.594-11.481c-0.033,5.623-2.416,10.375-7.153,14.259c-0.142-0.169-0.382-0.419-0.722-0.75
	c-0.481-0.5-0.797-0.867-0.947-1.098c5.082-3.933,7.414-9.056,6.996-15.373c-0.085-1.439-0.288-3.304-0.61-5.595l2.245-0.315
	l0.37,3.261c1.723,8.089,5.613,13.002,11.668,14.738C172.948,204.207,172.899,204.277,172.851,204.347L172.851,204.347z
	 M157.501,170.232l-0.274-1.95l5.267-0.74l-0.613-4.363l1.986-0.279l0.613,4.364l5.267-0.74l0.274,1.949l-5.267,0.74l0.861,6.127
	l6.389-0.898l0.261,1.857l-14.677,2.063l-0.261-1.856l6.303-0.886l-0.861-6.127L157.501,170.232z M168.111,131.038l-0.248-1.764
	l3.799-0.534l-0.339-2.414l1.813-0.255l0.339,2.414l3.712-0.521l0.248,1.764l-3.712,0.522l1.161,8.263l1.727-0.243l-0.874-6.22
	l1.468-0.207l1.135,8.077l-3.195,0.449l0.64,4.549c0.319-0.234,0.854-0.594,1.609-1.079c0.745-0.545,1.277-0.937,1.596-1.171
	c0.035,0.248,0.115,0.615,0.243,1.102c0.07,0.496,0.118,0.835,0.144,1.021c-1.312,0.689-2.549,1.495-3.71,2.415
	c-0.049,0.069-0.155,0.147-0.319,0.234c-0.205,0.218-0.384,0.4-0.539,0.549l-1.271-1.525c0.408-0.436,0.535-0.989,0.383-1.663
	l-0.587-4.178l-3.281,0.461l-1.135-8.077l1.554-0.218l0.874,6.22l1.727-0.243l-1.162-8.262L168.111,131.038z M172.163,188.828
	l-0.248-1.764l4.058-0.57l-0.365-2.6l1.899-0.267l0.365,2.6l3.54-0.498l-0.378-2.692l1.813-0.255l0.378,2.692l3.626-0.51
	l-0.366-2.599l1.899-0.267l0.366,2.6l3.971-0.559l0.248,1.764l-3.972,0.558l0.339,2.414l-1.899,0.267l-0.339-2.414l-3.626,0.509
	l0.339,2.414l-1.813,0.255l-0.339-2.414l-3.54,0.498l0.339,2.414l-1.899,0.267l-0.339-2.414L172.163,188.828z M175.903,159.504
	c-0.323-0.206-0.812-0.548-1.464-1.025c-0.92-0.69-1.635-1.19-2.147-1.497l1-1.655c1.083,0.605,2.34,1.408,3.771,2.405
	L175.903,159.504z M176.16,165.717c-1.175-0.844-2.376-1.654-3.599-2.429l0.987-1.749c1.339,0.759,2.592,1.529,3.758,2.312
	L176.16,165.717z M173.923,196.344l-0.587-4.178l19.513-2.742l0.587,4.178l-1.986,0.279l-0.326-2.321l-15.541,2.184l0.326,2.321
	L173.923,196.344z M177.726,168.716c-0.38,3.146-0.663,5.93-0.851,8.355l-2.077-0.371c0.311-2.378,0.619-5.199,0.924-8.461
	c0.296,0.022,0.754,0.147,1.374,0.375C177.392,168.637,177.601,168.671,177.726,168.716L177.726,168.716z M177.169,204.408
	l-1.096-7.798l6.648-0.934l-0.287-2.042l2.072-0.291l0.287,2.042l6.734-0.946l0.718,5.106c0.292,1.663-0.396,2.612-2.065,2.847
	c-0.453,0.125-1.282,0.275-2.491,0.444c-0.102-0.302-0.236-0.629-0.403-0.984c-0.101-0.301-0.194-0.541-0.277-0.719
	c0.527-0.01,1.25-0.081,2.171-0.21c0.872-0.059,1.218-0.517,1.039-1.377l-0.43-3.063l-4.749,0.667l1.096,7.798l-2.072,0.291
	l-1.096-7.798l-4.663,0.655l0.848,6.035L177.169,204.408z M179.419,160.715c-0.188,0.343-0.525,0.863-1.013,1.562
	c-0.067-0.053-0.133-0.107-0.199-0.161c-0.49-0.562-0.929-0.973-1.318-1.235c1.589-2.053,2.699-4.387,3.331-7l2.111-0.013
	c-0.193,0.722-0.422,1.385-0.689,1.99l10.533-1.48l0.248,1.764l-11.483,1.614c-0.299,0.799-0.664,1.546-1.095,2.236l11.483-1.614
	c0.003,0.442,0.105,1.375,0.305,2.797c0.107,1.185,0.209,2.117,0.305,2.797l1.986-0.279l0.248,1.764l-1.986,0.279
	c0.07,0.496,0.14,1.211,0.214,2.147c0.113,0.805,0.196,1.393,0.248,1.764l1.554-0.218l0.248,1.764l-1.641,0.23
	c0.197,2.245-0.801,3.488-2.997,3.735c-0.921,0.129-1.958,0.275-3.108,0.437c-0.084-0.177-0.209-0.444-0.376-0.799
	c-0.177-0.417-0.307-0.714-0.389-0.892c1.036-0.146,2.042-0.287,3.021-0.425c1.39-0.133,2.04-0.729,1.95-1.789l-10.792,1.517
	l-0.192-5.748l-1.899,0.267l-0.248-1.764l2.072-0.291l-0.226-5.365C179.576,160.377,179.507,160.513,179.419,160.715
	L179.419,160.715z M177.931,128.237l-0.261-1.856l10.534-1.48l0.261,1.857l-4.403,0.619l-0.113,2.951l4.23-0.594l1.526,10.862
	l-1.727,0.243l-1.279-9.098l-5.785,0.813l1.292,9.191l-1.64,0.23l-1.54-10.955l3.022-0.425l0.113-2.951L177.931,128.237z
	 M189.943,146.052c-0.663-0.539-1.615-1.257-2.856-2.155c-0.862-0.699-1.491-1.21-1.888-1.534c-0.589,1.661-1.901,3.392-3.937,5.192
	c-0.265-0.216-0.704-0.627-1.318-1.235c0.415,0.446,0.315,0.366-0.298-0.242c3.392-2.181,4.715-5.08,3.972-8.7l-0.548-3.899
	l1.813-0.255l0.535,3.807c0.183,1.3,0.228,2.462,0.138,3.483c0.587,0.423,1.464,1.025,2.631,1.808
	c1.29,0.829,2.262,1.481,2.917,1.957L189.943,146.052z M181.634,161.445l0.116,3.959l8.375-1.177
	c-0.217-1.546-0.4-2.846-0.548-3.899L181.634,161.445z M190.749,169.915c-0.047-0.751-0.201-2.055-0.461-3.912l-8.547,1.201
	l0.203,3.948L190.749,169.915z M186.633,164.434c-0.397-0.323-1.01-0.71-1.836-1.162c-0.389-0.261-0.712-0.468-0.968-0.622
	l0.879-1.26c0.57,0.299,1.396,0.75,2.479,1.356c-0.133-0.107-0.004-0.031,0.385,0.23L186.633,164.434z M187.269,170.214
	c-0.323-0.206-0.777-0.521-1.365-0.944c-0.637-0.352-1.116-0.632-1.438-0.839l0.793-1.248c0.76,0.399,1.719,0.958,2.877,1.678
	L187.269,170.214z M195.044,184.947l-0.208-1.485l5.698-0.801c-0.415-0.446-1.054-1.019-1.915-1.719l1.92-0.743
	c0.778,0.522,1.577,1.199,2.398,2.03l-0.073,0.105l3.54-0.498c0.186-0.341,0.446-0.788,0.78-1.34c0.382-0.622,0.643-1.068,0.78-1.34
	l2.137,0.173l-1.28,2.168l5.439-0.764l0.208,1.485l-9.67,1.359c-0.094,0.582-0.197,1.102-0.309,1.558l8.72-1.226l0.208,1.486
	l-9.238,1.298c-0.023,0.256-0.094,0.581-0.215,0.977c-0.081,0.265-0.141,0.462-0.181,0.594l11.569-1.626l0.222,1.578l-12.433,1.747
	c-0.21,0.598-0.457,1.138-0.741,1.619l11.31-1.59l1.527,10.862l-1.899,0.267l-0.157-1.114l-10.447,1.468l0.157,1.114l-1.899,0.267
	l-1.044-7.427c-0.849,1.066-1.811,2.148-2.889,3.246c-0.142-0.169-0.358-0.454-0.648-0.855c-0.283-0.339-0.495-0.593-0.636-0.763
	c2.436-2.298,4.143-4.559,5.123-6.779l-5.526,0.777l-0.222-1.578l6.475-0.91c0.089-0.202,0.19-0.531,0.301-0.989
	c0.08-0.263,0.141-0.46,0.181-0.593l-5.525,0.776l-0.209-1.485l6.044-0.849c0.112-0.457,0.215-0.977,0.309-1.558L195.044,184.947z
	 M199.499,162.625c-1.499-1.051-2.879-1.898-4.143-2.542l1.159-1.772c0.389,0.262,0.964,0.591,1.724,0.989
	c1.149,0.659,1.951,1.146,2.406,1.46L199.499,162.625z M199.328,156.4c-0.778-0.521-1.907-1.247-3.387-2.175
	c-0.257-0.153-0.451-0.283-0.583-0.391l0.987-1.748c1.206,0.651,2.583,1.468,4.13,2.449L199.328,156.4z M198.98,140.804
	c0.305,2.166-0.218,3.879-1.566,5.143l-0.894-0.727c0.923-0.951,1.299-2.234,1.131-3.851l-1.468,0.207l-0.431-3.064l2.849-0.4
	C198.671,138.608,198.797,139.504,198.98,140.804L198.98,140.804z M201.185,165.228c-0.292,1.683-0.744,4.523-1.356,8.521
	l-2.103-0.556c0.546-2.79,0.999-5.631,1.355-8.522c0.057-0.008,0.177,0.008,0.358,0.044
	C199.63,164.816,200.211,164.986,201.185,165.228L201.185,165.228z M201.656,157.304l-0.274-1.95l7.425-1.043
	c0.177-0.404,0.425-0.943,0.741-1.619c0.582-1.28,0.974-2.251,1.176-2.911l2.09,0.464c-0.178,0.404-0.474,1.013-0.887,1.829
	c-0.405,0.878-0.726,1.522-0.961,1.934l4.144-0.583l0.274,1.95l-5.957,0.837l0.47,3.342l5.094-0.716l0.261,1.856l-5.094,0.716
	l0.509,3.621l6.476-0.91l0.274,1.95l-6.476,0.91l0.744,5.292l-2.072,0.292l-0.744-5.292l-6.303,0.886l-0.274-1.95l6.303-0.886
	l-0.509-3.621l-5.007,0.704l-0.261-1.856l5.008-0.704l-0.47-3.342L201.656,157.304z M201.563,193.119l0.208,1.485l10.447-1.468
	l-0.209-1.485L201.563,193.119z M201.955,195.904l0.209,1.485l10.447-1.468l-0.208-1.485L201.955,195.904z M202.346,198.689
	l0.183,1.3l10.447-1.468l-0.183-1.3L202.346,198.689z M205.254,154.716c-0.848-1.017-1.753-2.026-2.715-3.027l1.609-1.078
	c1.085,1.047,2.015,2.021,2.788,2.922L205.254,154.716z M215.505,123.619l-0.287-2.042l17.268-2.427l0.287,2.042l-7.771,1.092
	c0.137,1.812,0.224,3.471,0.26,4.981l9.756-1.371l0.287,2.042l-10.188,1.432c-0.167,5.074-2.584,9.39-7.249,12.948l-1.715-1.558
	c4.345-3.324,6.614-7.02,6.806-11.086l-8.03,1.128l-0.287-2.042l8.461-1.189c-0.036-1.509-0.124-3.168-0.26-4.981L215.505,123.619z
	 M217.261,182.672l-0.235-1.671l5.525-0.777c-0.216-0.285-0.626-0.7-1.231-1.247c-0.54-0.492-0.912-0.85-1.12-1.074l1.908-0.836
	c0.074,0.117,0.24,0.25,0.497,0.403c1.012,0.932,1.691,1.594,2.04,1.985l-1.23,0.646l4.921-0.692
	c0.893-1.576,1.494-2.733,1.801-3.472l2.164,0.358c-0.138,0.272-0.394,0.751-0.767,1.434c-0.383,0.622-0.642,1.069-0.78,1.34
	l5.353-0.752l0.235,1.671l-8.547,1.202l0.287,2.042l7.511-1.056l0.248,1.764l-7.512,1.056l0.287,2.042l9.066-1.274l0.235,1.671
	l-20.204,2.839l-0.235-1.671l9.066-1.274l-0.287-2.042l-7.339,1.032l-0.248-1.764l7.339-1.031l-0.287-2.042L217.261,182.672z
	 M218.633,194.313l-0.248-1.764l8.634-1.213c0.03-0.194,0.025-0.445-0.018-0.755c0.013-0.317,0.008-0.569-0.018-0.755l2.072-0.292
	c0.069,0.496,0.081,0.999,0.036,1.51l8.893-1.25l0.248,1.764l-8.375,1.177c1.283,2.029,4.42,2.849,9.415,2.463
	c-0.129,0.333-0.271,0.795-0.422,1.385c-0.129,0.333-0.21,0.598-0.241,0.792c-5.056-0.047-8.373-1.096-9.951-3.146
	c-0.731,2.312-3.672,4.365-8.819,6.163c-0.084-0.178-0.276-0.499-0.575-0.961c-0.3-0.463-0.525-0.811-0.674-1.041
	c5.102-1.285,7.851-3.028,8.245-5.23L218.633,194.313z M218.883,160.846l-0.248-1.764l1.295-0.182l-1.109-7.891l2.158-0.303
	c0.013-0.317,0.043-0.731,0.089-1.243c-0.021-0.565-0.02-0.975,0.003-1.231l1.912-0.174l-0.278,2.406l3.021-0.425l2.414,17.175
	c0.274,1.539-0.308,2.41-1.746,2.612c-0.337,0.109-0.995,0.234-1.973,0.372c-0.018-0.125-0.106-0.333-0.264-0.625
	c-0.136-0.549-0.255-0.975-0.355-1.276c0.114-0.016,0.259-0.036,0.432-0.061c0.526-0.012,0.928-0.068,1.208-0.17
	c0.814-0.052,1.144-0.414,0.992-1.086l-0.992-7.056l-3.626,0.51c0.741,4.44,0.701,7.916-0.119,10.431
	c-0.134-0.109-0.356-0.234-0.67-0.379c-0.455-0.315-0.782-0.553-0.98-0.714c0.7-2.118,0.742-5.153,0.129-9.106L218.883,160.846z
	 M220.71,152.542l0.861,6.127l3.626-0.509l-0.861-6.127L220.71,152.542z M223.042,157.232c-0.411-0.825-0.932-1.824-1.566-2.999
	l1.204-0.832c0.158,0.294,0.359,0.676,0.601,1.146c0.467,0.819,0.818,1.432,1.051,1.84L223.042,157.232z M224.389,165.563
	c-0.568-1.118-1.161-2.204-1.778-3.253l1.204-0.832c0.158,0.294,0.396,0.734,0.713,1.32c0.515,0.749,0.9,1.388,1.15,1.921
	L224.389,165.563z M230.024,139.85c-2.179,0.368-3.396-0.564-3.651-2.801l-1.044-7.427l2.072-0.291l0.979,6.963
	c0.058,1.255,0.745,1.756,2.061,1.509l2.072-0.291c1.208-0.17,1.763-0.816,1.665-1.938c0.004-0.379-0.024-1.005-0.088-1.881
	c-0.004-0.44-0.018-0.755-0.044-0.94c0.181,0.038,0.453,0.095,0.816,0.169c0.305,0.084,0.758,0.177,1.36,0.282
	c0.036,1.51,0.044,2.613,0.025,3.31c-0.054,1.711-1.063,2.673-3.028,2.887L230.024,139.85z M227.208,153.049l-0.274-1.949
	l4.489-0.631c-0.242-0.47-0.639-1.203-1.189-2.199c-0.168-0.355-0.289-0.59-0.363-0.707l2.007-0.755l1.705,3.358l4.23-0.595
	l0.274,1.95L227.208,153.049z M231.489,159.074c0.825,4.618,0.354,8.154-1.414,10.613c-0.199-0.162-0.493-0.373-0.882-0.633
	c-0.389-0.262-0.683-0.472-0.881-0.634c0.879-1.26,1.414-2.471,1.603-3.633c0.131-1.154,0.023-2.969-0.325-5.445l-0.496-3.528
	l6.734-0.946l1.461,10.397c0.07,0.496,0.363,0.707,0.881,0.634l0.259-0.037c0.469-0.003,0.685-0.348,0.647-1.038
	c0.025-1.076-0.072-2.388-0.289-3.936c0.247,0.093,0.581,0.171,1.002,0.238c0.238,0.03,0.419,0.068,0.544,0.113
	c0.186,1.741,0.262,3.12,0.229,4.133c0.027,1.447-0.593,2.261-1.858,2.438l-0.864,0.122c-1.373,0.255-2.14-0.395-2.299-1.949
	l-1.252-8.913l-3.022,0.425L231.489,159.074L231.489,159.074z M238.07,119.414l-0.195-1.393l17.527-2.463l0.195,1.393l-7.771,1.092
	l0.209,1.485l8.807-1.238l0.613,4.363l-1.899,0.267l-0.405-2.878l-6.907,0.971l0.705,5.013l-1.986,0.279l-0.704-5.014l-6.821,0.959
	l0.404,2.878l-1.899,0.267l-0.613-4.363l8.72-1.226l-0.209-1.485L238.07,119.414z M238.003,130.215l-0.222-1.578l20.721-2.912
	l0.222,1.578l-9.843,1.383l-0.27,1.837l8.807-1.238l0.652,4.642c0.266,1.478-0.373,2.356-1.918,2.637
	c-0.921,0.129-1.612,0.227-2.072,0.291c-0.186-0.48-0.379-1.021-0.58-1.623c0.575-0.081,1.093-0.153,1.554-0.218
	c0.872-0.061,1.226-0.457,1.065-1.191l-0.378-2.692l-3.54,0.498l0.704,5.013l-1.727,0.243l-0.705-5.013l-3.367,0.473l0.718,5.106
	l-1.727,0.243l-0.717-5.106l-3.368,0.473l0.783,5.57l-1.986,0.279l-1.005-7.148l6.821-0.958l0.184-1.825L238.003,130.215z
	 M248.606,193.987c-0.894-0.504-1.903-1.215-3.029-2.13c-0.575,1.344-1.724,2.988-3.445,4.934c-0.596-0.484-1.106-0.98-1.53-1.489
	c1.503-1.41,2.607-2.954,3.311-4.631c-0.853-0.638-2.024-1.451-3.513-2.441c0.223-2.176,0.365-4.501,0.429-6.971l-1.899,0.267
	l-0.274-1.95l2.159-0.303c0.051-0.891,0.032-2.277-0.056-4.158c0.031-0.194,0.039-0.352,0.021-0.477l2.098-0.105
	c0.003,0.442-0.016,1.138-0.058,2.091c0.032,1.07,0.026,1.859-0.019,2.37l3.799-0.534l0.287,2.042
	c0.229,4.133,0.021,7.255-0.621,9.365c1.232,0.837,2.433,1.646,3.599,2.429L248.606,193.987z M241.072,124.482l-0.157-1.114
	l4.403-0.619l0.157,1.114L241.072,124.482z M247.503,145.841c-1.681,3.076-3.387,5.557-5.118,7.441
	c-0.534-0.872-0.946-1.508-1.237-1.909c1.877-2.094,3.364-4.259,4.458-6.496L247.503,145.841L247.503,145.841z M241.385,126.71
	l-0.144-1.021l4.403-0.619l0.144,1.021L241.385,126.71z M245.103,158.201c-0.676,1.042-1.388,2.026-2.139,2.952
	c-0.335-0.71-0.698-1.417-1.09-2.119c1.859-2.217,3.449-4.902,4.767-8.054l1.81,0.977c-0.583,1.281-1.15,2.466-1.702,3.552
	l1.631,11.605l-1.986,0.279L245.103,158.201L245.103,158.201z M244.616,188.773c0.519-2.156,0.667-4.858,0.445-8.11l-2.245,0.315
	c-0.072,2.41-0.213,4.543-0.421,6.402L244.616,188.773L244.616,188.773z M248.361,185.975l-0.287-2.042l5.267-0.74l-0.431-3.063
	l3.104-4.224l-8.116,1.141l-0.287-2.042l10.62-1.493l0.313,2.228l-3.458,4.841l0.326,2.321l4.749-0.667l0.287,2.042l-4.749,0.667
	l0.939,6.685c0.335,1.972-0.475,3.096-2.432,3.371c-1.094,0.154-2.015,0.283-2.763,0.388c-0.009-0.062-0.056-0.181-0.139-0.359
	c-0.229-0.789-0.431-1.392-0.606-1.809c0.872-0.06,1.71-0.146,2.517-0.259c1.045-0.085,1.468-0.616,1.272-1.599l-0.861-6.127
	L248.361,185.975z M249.512,155.12l-0.3-2.135l12.951-1.82l0.3,2.135l-3.713,0.521l1.096,7.798c0.37,2.22-0.51,3.48-2.639,3.779
	c-0.971,0.198-2.089,0.388-3.354,0.566c-0.277-0.718-0.526-1.441-0.745-2.167c0.288-0.041,0.719-0.101,1.295-0.182
	c0.756-0.044,1.336-0.093,1.74-0.15c1.274-0.117,1.8-0.757,1.578-1.926l-1.044-7.427L249.512,155.12z M249.656,148l-0.3-2.135
	l10.792-1.517l0.3,2.135L249.656,148z M249.792,123.257l-0.157-1.114l4.403-0.619l0.157,1.114L249.792,123.257z M250.105,125.485
	l-0.144-1.021l4.403-0.619l0.144,1.021L250.105,125.485z M264.382,127.454c-0.714,0.353-1.538,0.753-2.473,1.2
	c-0.309-0.525-0.65-1.076-1.025-1.655c3.579-1.26,5.503-2.603,5.773-4.03l-4.921,0.692l-0.001-5.018l4.921-0.692
	c-0.078-0.557-0.161-1.145-0.248-1.764L260.624,117l-0.222-1.578l5.871-0.825c-0.079-0.557-0.157-1.114-0.235-1.671l1.899-0.267
	c0.078,0.557,0.127,1.118,0.148,1.683l3.54-0.498l-0.235-1.671l1.813-0.255l0.235,1.671l5.094-0.716l0.691,4.92l-5.094,0.716
	l0.248,1.764l5.958-0.837c0.043,0.311,0.07,0.716,0.083,1.219c0.07,0.496,0.118,0.836,0.144,1.021
	c0.09,1.061-0.436,1.703-1.578,1.926c-0.807,0.113-1.554,0.219-2.245,0.315c-0.017-0.123-0.11-0.363-0.277-0.718
	c-0.084-0.178-0.13-0.297-0.139-0.359c0.633-0.089,1.209-0.17,1.727-0.243c0.518-0.073,0.771-0.36,0.759-0.864
	c-0.026-0.186-0.048-0.339-0.065-0.464l-4.145,0.583l0.287,2.042l-1.813,0.255l-0.287-2.042l-3.972,0.558
	c-0.189,1.163-0.779,2.192-1.767,3.088l11.483-1.614l0.77,5.478l-1.986,0.279l-0.548-3.899l-10.447,1.468l0.587,4.178l-1.899,0.267
	L264.382,127.454L264.382,127.454z M264.257,187.525c-0.014,0.318-0.038,0.573-0.068,0.767c-0.678-0.22-1.403-0.371-2.177-0.452
	c0.426-2.394,0.815-5.478,1.165-9.252l2.077,0.371C265.104,180.812,264.771,183.666,264.257,187.525L264.257,187.525z
	 M281.403,133.298c-4.124-0.935-7.231-1.54-9.323-1.814c-0.836,1.569-3.62,3.065-8.35,4.487c-0.269-0.658-0.653-1.297-1.15-1.921
	c6.212-1.315,8.913-3.397,8.102-6.251l2.072-0.291c0.055,0.813,0.015,1.576-0.119,2.289c1.442,0.24,1.924,0.33,1.447,0.27
	c3.42,0.53,6.056,0.915,7.911,1.161L281.403,133.298z M263.511,120.002l-0.011,1.8l3.454-0.485c0.031-0.194,0.021-0.477-0.031-0.848
	c0.014-0.317,0.008-0.569-0.018-0.755l-0.026-0.186L263.511,120.002z M265.744,146.496l-0.248-1.764l5.698-0.801l-0.365-2.599
	l1.986-0.279l0.365,2.6l5.008-0.704l0.248,1.764l-5.008,0.704l0.378,2.692l2.59-0.364c1.837-1.962,3.441-4.112,4.816-6.452
	l1.81,0.977c-1.205,1.874-2.435,3.561-3.69,5.063l5.439-0.765l0.261,1.857l-7.771,1.092c-0.972,1.021-2.068,1.995-3.287,2.923
	l8.461-1.189l1.527,10.862l-1.986,0.279l-0.169-1.207l-10.102,1.42l0.17,1.207l-1.986,0.279l-1.109-7.891
	c-0.918,0.571-1.946,1.189-3.085,1.854c-0.353-0.833-0.679-1.481-0.978-1.945c3.886-1.997,7.003-4.045,9.35-6.142l-9.67,1.359
	l-0.261-1.856l7.684-1.08l-0.378-2.692L265.744,146.496z M271.861,192.137c-2.294,0.384-3.586-0.665-3.876-3.147l-1.839-13.09
	l2.072-0.291l1.775,12.626c0.142,1.433,0.87,2.024,2.187,1.775l3.108-0.437c1.381-0.194,2.042-0.917,1.984-2.172
	c0.004-0.379,0.008-0.979,0.011-1.8c-0.03-0.626-0.038-1.098-0.023-1.417c0.726,0.151,1.483,0.328,2.276,0.532
	c0.003,0.442-0.005,1.011-0.024,1.708c0.006,0.883-0.017,1.549-0.071,1.998c-0.151,1.851-1.296,2.895-3.434,3.133L271.861,192.137z
	 M273.292,177.261c-1.312-1.393-3.073-3.071-5.286-5.032l1.259-1.691c1.921,1.561,3.704,3.172,5.346,4.834L273.292,177.261z
	 M268.308,115.92c0.087,0.62,0.17,1.207,0.248,1.764l3.54-0.498l-0.248-1.764L268.308,115.92z M268.73,119.553
	c0.078,0.557,0.118,1.058,0.122,1.498l3.713-0.522l-0.248-1.764l-3.626,0.51L268.73,119.553z M280.698,153.293l-9.67,1.359
	l-0.406,0.247l0.3,2.135l10.102-1.42L280.698,153.293z M271.157,158.705l0.326,2.321l10.102-1.42l-0.326-2.321L271.157,158.705z
	 M276.941,114.707l-3.281,0.461l0.248,1.764l3.281-0.461L276.941,114.707z M281.089,184.497c-0.776-1.342-2.093-3.398-3.948-6.167
	c-0.367-0.517-0.625-0.89-0.774-1.122l1.756-1.288c0.366,0.517,0.887,1.295,1.562,2.337c1.548,2.244,2.625,3.86,3.234,4.847
	L281.089,184.497z M284.948,174.397c0.044,1.572,0.046,3.465,0.005,5.679c-0.181-0.037-0.42-0.066-0.717-0.088
	c-0.297-0.021-0.531-0.02-0.704,0.004c0.035-1.835,0.031-3.948-0.011-6.342l1.407-0.008
	C284.956,173.828,284.961,174.081,284.948,174.397L284.948,174.397z M286.142,126.288c-0.014,0.318-0.038,0.573-0.068,0.767
	c-0.678-0.22-1.403-0.371-2.177-0.452c0.426-2.394,0.815-5.478,1.165-9.252l2.077,0.371
	C286.989,119.574,286.656,122.429,286.142,126.288L286.142,126.288z M289.366,175.765c-0.265-0.214-0.654-0.476-1.167-0.783
	c-0.257-0.153-0.451-0.283-0.583-0.392l2.218,15.782l-1.899,0.267l-3.118-22.188l1.899-0.267l0.574,4.085
	c0.817,0.391,1.715,0.927,2.692,1.61L289.366,175.765z M287.423,151.021l-0.274-1.949l20.98-2.949l0.274,1.95l-14.678,2.063
	l-0.377,2.325l12.692-1.784c0.15,1.494,0.215,3,0.194,4.517c0.188,2.182-1.093,3.498-3.847,3.949
	c-1.439,0.202-3.108,0.437-5.008,0.704c-0.102-0.302-0.294-0.843-0.58-1.622c-0.093-0.24-0.147-0.422-0.165-0.545
	c1.101-0.093,2.718-0.288,4.848-0.587c1.917-0.144,2.788-0.833,2.614-2.071c0.01-0.759-0.032-1.478-0.127-2.16l-12.951,1.82
	l0.548-4.242L287.423,151.021z M293.746,130.899c-2.294,0.384-3.586-0.665-3.876-3.147l-1.839-13.09l2.072-0.291l1.775,12.626
	c0.142,1.433,0.87,2.024,2.187,1.775l3.108-0.437c1.381-0.194,2.042-0.917,1.984-2.172c0.004-0.379,0.008-0.979,0.011-1.8
	c-0.03-0.626-0.038-1.098-0.023-1.417c0.726,0.151,1.483,0.328,2.276,0.532c0.003,0.442-0.005,1.011-0.024,1.708
	c0.006,0.883-0.017,1.549-0.071,1.998c-0.151,1.851-1.296,2.895-3.434,3.133L293.746,130.899z M289.884,146.605l-0.965-6.87
	l14.937-2.099l0.965,6.87L289.884,146.605z M289.331,171.13l-0.208-1.485l5.698-0.801l-0.248-1.764l1.899-0.267l0.248,1.764
	l6.13-0.861l0.208,1.485l-6.13,0.861l0.222,1.579l5.526-0.777l0.196,1.393l-5.526,0.777l0.222,1.578l6.476-0.91l0.208,1.485
	l-14.591,2.051l-0.208-1.485l6.216-0.874l-0.222-1.579l-5.094,0.716l-0.196-1.393l5.094-0.716l-0.222-1.578L289.331,171.13z
	 M295.177,116.024c-1.312-1.393-3.073-3.071-5.286-5.032l1.259-1.691c1.921,1.561,3.704,3.172,5.346,4.834L295.177,116.024z
	 M292.671,189.879l-1.592-11.326l12.001-1.687l1.187,8.448c0.309,1.786-0.457,2.81-2.298,3.068c-0.231,0.032-0.634,0.089-1.209,0.17
	c-0.798,0.174-1.398,0.291-1.8,0.348c-0.194-0.541-0.424-1.14-0.693-1.796c0.699-0.036,1.654-0.138,2.862-0.308
	c0.987-0.077,1.39-0.543,1.212-1.401l-0.104-0.743l-8.202,1.153l0.535,3.806L292.671,189.879z M291.252,141.301l0.43,3.063
	l10.792-1.517l-0.431-3.064L291.252,141.301z M293.187,179.772l0.235,1.671l8.202-1.153l-0.235-1.671L293.187,179.772z
	 M293.604,182.743l0.235,1.671l8.202-1.153l-0.235-1.671L293.604,182.743z M302.974,123.259c-0.776-1.342-2.093-3.398-3.948-6.167
	c-0.367-0.517-0.625-0.89-0.774-1.122l1.756-1.288c0.366,0.517,0.887,1.295,1.562,2.337c1.548,2.244,2.625,3.86,3.234,4.847
	L302.974,123.259z M306.348,118.999l-0.287-2.042l6.476-0.91c0.517-1.334,0.971-2.692,1.364-4.073l2.336,0.334
	c-0.129,0.334-0.303,0.769-0.521,1.304c-0.339,0.933-0.593,1.631-0.762,2.095l12-1.687l0.287,2.042l-4.058,0.57
	c-0.429,2.396-1.371,4.453-2.832,6.173c0.553,0.175,1.412,0.433,2.576,0.774c0.789,0.205,2.25,0.568,4.379,1.088l-0.822,2.293
	c-2.782-0.998-5.391-1.799-7.822-2.403c-2.267,1.833-5.354,3.465-9.26,4.899c-0.177-0.417-0.519-0.969-1.025-1.655
	c-0.084-0.178-0.164-0.325-0.238-0.44c3.729-1.028,6.44-2.198,8.135-3.51l-6.176-1.972c0.129-0.333,0.352-0.837,0.667-1.514
	c0.396-0.939,0.707-1.645,0.935-2.12L306.348,118.999z M323.561,112.414l-0.354-2.507l-14.678,2.063l0.339,2.414l-2.072,0.292
	l-0.613-4.363l8.979-1.262c-0.225-0.347-0.601-0.924-1.125-1.735c-0.216-0.285-0.367-0.517-0.45-0.694l2.093-0.768
	c0.208,0.224,0.502,0.656,0.886,1.296c0.375,0.579,0.675,1.041,0.9,1.388l-0.751,0.295l8.288-1.165l0.627,4.457L323.561,112.414z
	 M312.828,182.972c0.305,2.166-0.218,3.879-1.566,5.143l-0.894-0.727c0.923-0.951,1.299-2.234,1.131-3.851l-1.468,0.206
	l-0.431-3.063l2.849-0.4C312.519,180.775,312.645,181.672,312.828,182.972L312.828,182.972z M309.88,142.279l-0.261-1.857
	l3.195-0.449l-0.613-4.363l1.986-0.279l0.613,4.363l2.849-0.4l0.261,1.857l-2.849,0.4l0.652,4.642
	c0.394-0.118,1.067-0.339,2.02-0.663c0.452-0.126,0.788-0.237,1.01-0.332c-0.014,0.319,0.051,0.783,0.196,1.393
	c0.044,0.311,0.079,0.557,0.104,0.743l-3.03,0.994l0.874,6.22c0.3,1.724-0.383,2.705-2.052,2.939
	c-0.807,0.113-1.498,0.21-2.072,0.291c-0.018-0.125-0.11-0.363-0.277-0.718c-0.145-0.611-0.264-1.037-0.355-1.275
	c0.402-0.057,0.95-0.133,1.641-0.23c0.872-0.061,1.222-0.488,1.052-1.284l-0.731-5.199l-3.189,1.111l-0.585-2.285
	c0.337-0.109,0.898-0.283,1.688-0.521c0.788-0.236,1.379-0.415,1.774-0.533l-0.705-5.013L309.88,142.279z M313.317,119.723
	c-0.228,0.474-0.381,0.843-0.461,1.106c0.726,0.151,1.879,0.431,3.463,0.839c0.791,0.206,1.402,0.371,1.832,0.5
	c1.38-1.456,2.309-3.196,2.789-5.22l-6.819,0.958C313.939,118.31,313.672,118.916,313.317,119.723L313.317,119.723z
	 M318.262,143.657l-0.533-1.914l3.401-0.856c-0.188-0.92-0.45-2.366-0.786-4.339c-0.188-0.92-0.316-1.627-0.386-2.123l2.071-0.291
	c0.312,2.228,0.662,4.294,1.048,6.196l6.79-1.806l0.359,1.937l-6.789,1.807c0.008,0.062,0.021,0.155,0.039,0.278
	c0.191,0.541,0.33,1.09,0.406,1.647c0.102,0.302,0.217,0.696,0.344,1.183c0.254,0.975,0.438,1.675,0.56,2.099
	c1.264-1.439,2.407-3.115,3.433-5.026l1.735,1.081c-1.365,2.402-2.806,4.465-4.324,6.193c0.353,0.835,0.781,1.595,1.289,2.28
	c0.657,0.918,1.358,1.324,2.108,1.219c0.469-0.004,0.771-0.36,0.904-1.074c0.047-1.332,0.06-2.5,0.035-3.508
	c0.504,0.246,1.146,0.439,1.932,0.581c0.002,1.263-0.045,2.405-0.135,3.427c-0.16,1.789-0.936,2.75-2.324,2.883
	c-1.498,0.21-2.86-0.514-4.092-2.17c-0.439-0.632-0.861-1.33-1.264-2.095c-1.242,1.185-2.752,2.344-4.53,3.477
	c-0.208-0.224-0.514-0.527-0.92-0.912c-0.216-0.285-0.396-0.513-0.536-0.682c1.989-1.289,3.685-2.601,5.083-3.933
	c-0.424-1.328-0.852-2.91-1.283-4.743l-0.407-1.646L318.262,143.657z M327.125,138.435c-0.588-0.422-1.594-1.101-3.018-2.038
	c-0.248-0.091-0.438-0.19-0.568-0.298l0.926-1.55c0.57,0.298,1.273,0.706,2.108,1.218c0.702,0.407,1.243,0.71,1.625,0.908
	L327.125,138.435z M328.757,110.546l-0.274-1.95l2.16-0.303l-0.613-4.363l1.898-0.267l0.613,4.363l1.727-0.243l0.273,1.95
	l-1.727,0.243l0.562,3.992c0.222-0.093,0.521-0.262,0.897-0.504c0.385-0.18,0.66-0.313,0.824-0.4
	c0.104,0.743,0.198,1.424,0.285,2.042c-0.162,0.086-0.438,0.22-0.822,0.4c-0.379,0.242-0.679,0.412-0.897,0.504l1.004,7.149
	c0.2,1.423-0.386,2.263-1.759,2.519c-0.338,0.109-0.938,0.227-1.801,0.348c-0.008-0.063-0.021-0.155-0.039-0.278
	c-0.127-0.488-0.328-1.09-0.605-1.809c0.354,0.013,0.848-0.024,1.48-0.113c0.574-0.081,0.828-0.369,0.76-0.864l-0.836-5.942
	l-2.127,1.151l-0.559-2.099c0.762-0.422,1.558-0.818,2.385-1.188l-0.651-4.642L328.757,110.546z M349.068,175.802
	c-0.31,0.738-0.492,1.3-0.555,1.688c-4.283-1.228-7.303-3.708-9.06-7.437l-7.166,1.007c0.375,3.923-0.315,7.556-2.078,10.895
	c-0.198-0.161-0.651-0.666-1.356-1.513c-0.074-0.115-0.146-0.2-0.211-0.254c1.707-2.891,2.146-6.645,1.32-11.262l-0.781-5.57
	l16.146-2.269l1.122,7.984l-4.924,0.692c1.521,2.879,4.1,4.726,7.734,5.54C349.223,175.434,349.157,175.6,349.068,175.802
	L349.068,175.802z M331.951,168.646l0.064,0.464l12.088-1.699l-0.574-4.085l-12.088,1.699L331.951,168.646z M332.316,135.905
	l-0.273-1.949l11.742-1.65l0.273,1.95l-5.699,0.801c-0.851,1.887-1.659,3.642-2.43,5.264l5.572-1.067
	c-0.216-0.285-0.503-0.654-0.859-1.11c-0.425-0.509-0.738-0.874-0.945-1.098l1.337-1.135c1.687,1.973,3.03,3.614,4.038,4.923
	l-1.398,1.333l-0.984-1.376c-1.026,0.208-2.431,0.468-4.205,0.78c-1.075,0.278-1.873,0.452-2.392,0.525
	c-0.059,0.008-0.168,0.056-0.333,0.141c-0.738,0.167-1.271,0.337-1.601,0.509l-0.966-1.853c0.357-0.366,0.638-0.688,0.832-0.969
	c0.854-1.445,1.551-2.963,2.091-4.554L332.316,135.905z M344.378,182.52c-3.504-0.708-7.172-1.328-11.003-1.862l0.604-1.978
	c1.146,0.218,2.83,0.518,5.058,0.898c2.703,0.441,4.653,0.766,5.858,0.975L344.378,182.52z M334.232,147.659l-0.273-1.949
	l4.576-0.643l-0.354-2.507l1.985-0.279l0.353,2.506l4.489-0.631l0.272,1.95l-4.488,0.631l0.535,3.806l4.916-1.354
	c0.003,0.442,0.062,1.065,0.175,1.869c-3.46,0.865-7.278,1.875-11.46,3.031l-0.619-1.901c0.911-0.19,2.393-0.525,4.438-1.002
	c-1.422,0.327-1.226,0.267,0.593-0.178l-0.562-3.992L334.232,147.659z M341.816,176.821c-1.892-0.492-4.252-1.012-7.088-1.56
	l0.614-1.885c0.791,0.206,1.882,0.431,3.267,0.677c1.633,0.339,2.873,0.607,3.723,0.802L341.816,176.821z M335.253,109.16
	l-0.261-1.857l3.281-0.461l-0.562-3.992l1.898-0.267l3.119,22.188l-1.899,0.267l-0.69-4.92l-4.145,0.583l-0.273-1.95l4.146-0.582
	l-0.535-3.807l-3.106,0.437l-0.263-1.857l3.106-0.437l-0.533-3.807L335.253,109.16z M345.232,124.419l-3.117-22.188l1.898-0.267
	l0.562,3.992l4.146-0.582l0.262,1.856l-4.146,0.583l0.535,3.806l3.626-0.509l0.261,1.856l-3.626,0.51l0.535,3.806l4.489-0.631
	l0.273,1.95l-4.49,0.631l0.69,4.92L345.232,124.419z M347.246,147.535l-1.982-14.111l1.898-0.267l1.982,14.111L347.246,147.535z
	 M351.936,152.083c-0.565,0.142-1.627,0.323-3.182,0.542c-0.171-0.797-0.391-1.524-0.658-2.18c0.526-0.012,1.48-0.113,2.862-0.308
	c0.871-0.061,1.237-0.584,1.099-1.575l-2.557-18.196l1.984-0.279l2.637,18.753C354.447,150.75,353.719,151.832,351.936,152.083
	L351.936,152.083z M351.257,165.076c0.045,1.572,0.048,3.465,0.007,5.68c-0.183-0.037-0.422-0.067-0.718-0.089
	c-0.298-0.02-0.53-0.02-0.704,0.004c0.035-1.834,0.031-3.948-0.011-6.341l1.407-0.009
	C351.266,164.507,351.27,164.759,351.257,165.076L351.257,165.076z M355.675,166.443c-0.266-0.214-0.653-0.476-1.166-0.783
	c-0.257-0.153-0.45-0.283-0.584-0.391l2.22,15.782l-1.898,0.267l-3.119-22.188l1.898-0.267l0.574,4.085
	c0.816,0.391,1.715,0.928,2.69,1.61L355.675,166.443z M362.533,109.68c-2.252,1.516-5.447,3.006-9.585,4.471
	c-0.103-0.301-0.339-0.741-0.714-1.32c-0.104-0.301-0.189-0.509-0.264-0.625c3.547-1.067,6.319-2.214,8.318-3.441
	c-1.514-0.734-2.92-1.767-4.223-3.099c-0.764,1.244-1.682,2.446-2.75,3.605c-0.489-0.561-0.941-1.066-1.356-1.513
	c2.146-2.257,3.812-4.827,4.992-7.708l2.21,0.068c-0.309,0.738-0.652,1.417-1.034,2.039l10.706-1.505l0.301,2.135
	c-1.392,2.216-2.93,4.009-4.613,5.382c1.896,0.554,4.654,0.766,8.276,0.635c-0.071,0.327-0.187,0.783-0.336,1.373
	c-0.062,0.388-0.108,0.678-0.144,0.872C368.264,110.99,365,110.533,362.533,109.68L362.533,109.68z M356.632,122.816l-1.266-9.005
	l14.764-2.075l1.267,9.005l-1.984,0.279l-0.186-1.3l-10.791,1.517l0.184,1.3L356.632,122.816z M355.641,161.81l-0.209-1.485
	l5.698-0.801l-0.248-1.764l1.899-0.267l0.248,1.764l6.13-0.862l0.209,1.485l-6.132,0.862l0.224,1.578l5.524-0.776l0.195,1.393
	l-5.525,0.776l0.223,1.578l6.477-0.91l0.209,1.485l-14.592,2.05l-0.21-1.485l6.218-0.874l-0.223-1.578l-5.094,0.716l-0.196-1.393
	l5.095-0.716l-0.223-1.578L355.641,161.81z M360.396,145.875c-0.104,1.782-0.569,3.678-1.401,5.688l-1.677-1.279
	c0.692-1.738,1.076-3.401,1.146-4.989c0.079-1.526-0.09-3.774-0.507-6.745l-1.162-8.263l17.7-2.487l0.665,4.735l-15.801,2.22
	l0.51,3.621C360.332,141.656,360.507,144.155,360.396,145.875L360.396,145.875z M362.221,107.452
	c1.547-1.101,3.01-2.601,4.387-4.498l-9.323,1.311C359.021,105.787,360.668,106.85,362.221,107.452L362.221,107.452z
	 M358.979,180.559l-1.592-11.326l12.002-1.687l1.188,8.448c0.309,1.787-0.457,2.81-2.3,3.069c-0.229,0.032-0.635,0.089-1.209,0.17
	c-0.799,0.174-1.396,0.291-1.801,0.348c-0.192-0.541-0.424-1.14-0.69-1.796c0.698-0.036,1.651-0.138,2.86-0.308
	c0.986-0.077,1.393-0.543,1.213-1.401l-0.104-0.743l-8.202,1.153l0.535,3.806L358.979,180.559z M357.611,115.389l0.589,4.178
	l10.792-1.517l-0.588-4.178L357.611,115.389z M358.904,131.505l0.248,1.764l13.899-1.954l-0.247-1.764L358.904,131.505z
	 M359.496,170.451l0.234,1.671l8.201-1.152l-0.233-1.671L359.496,170.451z M359.913,173.421l0.235,1.671l8.201-1.153l-0.234-1.671
	L359.913,173.421z M370.916,147.426c-2.449,0.533-4.391,0.932-5.818,1.196l-0.382-1.461c0.345-0.049,0.921-0.129,1.728-0.243
	c0.971-0.199,1.686-0.332,2.146-0.396l-0.273-1.949l-4.834,0.679l0.783,5.57l-1.729,0.243l-0.979-6.963l6.562-0.922l-0.195-1.393
	l-5.698,0.801l-0.572-4.085l5.697-0.801l-0.195-1.393c-1.432,0.265-3.526,0.59-6.289,0.979l-0.442-1.263
	c0.402-0.057,1.036-0.146,1.899-0.267c5.738-0.932,9.919-1.678,12.541-2.236l0.468,1.449c-0.626,0.151-1.687,0.332-3.183,0.542
	c-1.432,0.265-2.521,0.449-3.27,0.554l0.196,1.393l5.782-0.813l0.574,4.085l-5.783,0.813l0.194,1.393l6.907-0.971l0.602,4.271
	c0.291,1.663-0.252,2.591-1.635,2.786c-0.689,0.097-1.439,0.202-2.244,0.315c-0.084-0.178-0.178-0.417-0.275-0.719
	c-0.17-0.355-0.295-0.621-0.379-0.799c0.229-0.032,0.434-0.061,0.604-0.085c-0.034-0.248-0.132-0.519-0.29-0.812
	C372.625,147.058,371.885,147.226,370.916,147.426L370.916,147.426z M363.633,139.456l0.223,1.578l3.887-0.546l-0.225-1.578
	L363.633,139.456z M373.303,138.097l-4.058,0.57l0.222,1.578l4.059-0.57L373.303,138.097z M375.135,143.614l-5.094,0.716
	l0.287,2.042l2.219-0.501l-0.488-0.973l1.155-0.541c0.626,1.111,1.11,2.054,1.454,2.825l-1.07,0.529l1.036-0.146
	c0.757-0.044,1.058-0.402,0.905-1.074L375.135,143.614z M371.209,160.469l-0.248-1.764l9.411-1.323
	c-0.084-0.178-0.214-0.475-0.39-0.892c-0.252-0.533-0.452-0.914-0.604-1.146l2.206-0.594l1.03,2.317l8.893-1.25l0.248,1.764
	L371.209,160.469z M372.967,174.233l-0.246-1.764l9.756-1.371l-0.104-0.743l4.439-2.233l-12.604,1.771l-0.233-1.671l16.316-2.293
	l0.248,1.764l-5.903,3.102l8.896-1.25l0.246,1.764l-8.979,1.262l0.208,1.485c0.303,1.724-0.465,2.747-2.298,3.068
	c-0.979,0.138-2.13,0.299-3.453,0.485c-0.009-0.063-0.021-0.155-0.039-0.278c-0.108-0.363-0.299-0.874-0.565-1.53
	c0.346-0.048,0.838-0.087,1.479-0.113c0.689-0.097,1.182-0.166,1.469-0.207c1.045-0.084,1.477-0.555,1.299-1.413l-0.17-1.207
	L372.967,174.233z M374.871,106.619l-0.287-2.042l2.85-0.4l-0.481-3.435l-2.491,0.445c-0.162-0.735-0.34-1.373-0.531-1.913
	c2.465-0.409,4.838-0.869,7.112-1.378l0.521,1.82l-2.725,0.667l0.495,3.528l2.763-0.388l0.287,2.042l-2.763,0.388l0.392,2.785
	l0.588-0.84c0.33,0.27,0.859,0.7,1.59,1.292c0.66,0.539,1.162,0.973,1.504,1.303l-1.187,1.587c-0.341-0.331-0.817-0.8-1.431-1.409
	c-0.406-0.384-0.713-0.688-0.922-0.912l1.345,9.563l-1.899,0.267l-1.344-9.563c-0.314,1.938-0.895,3.881-1.734,5.83
	c-0.157-0.293-0.396-0.733-0.713-1.32c-0.226-0.347-0.381-0.609-0.463-0.787c1.055-2.104,1.817-4.61,2.289-7.517L374.871,106.619z
	 M374.785,166.499l-0.691-4.92l14.938-2.099l0.69,4.92L374.785,166.499z M376.302,162.878l0.261,1.856l11.054-1.553l-0.263-1.856
	L376.302,162.878z M379.708,129.726l-0.3-2.135l17.268-2.427l0.3,2.135l-7.251,1.02l0.795,5.663l8.895-1.25l0.312,2.228l-8.893,1.25
	l0.966,6.87c0.438,2.273-0.438,3.564-2.626,3.872c-1.151,0.162-2.36,0.332-3.626,0.51c-0.093-0.24-0.203-0.603-0.329-1.09
	c-0.194-0.541-0.337-0.932-0.429-1.17c0.583-0.02,1.652-0.138,3.208-0.356c1.272-0.117,1.769-0.784,1.479-2.006l-0.889-6.313
	l-9.498,1.335l-0.312-2.229l9.498-1.334l-0.797-5.663L379.708,129.726z M390.033,118.026l-1.045-7.427l-2.937,0.413l0.156,1.114
	l-1.812,0.255l-1.593-11.326l4.748-0.667l-0.626-4.457l1.812-0.255l0.627,4.457l4.748-0.667l1.593,11.326l-1.897,0.267l-0.156-1.114
	l-2.852,0.4l1.044,7.427L390.033,118.026z M384.893,102.749l0.887,6.313l2.938-0.413l-0.887-6.313L384.893,102.749z M392.49,101.682
	l-2.85,0.4l0.887,6.313l2.85-0.4L392.49,101.682z M412.264,153.096c-5.021,1.022-10.921,2.072-17.693,3.149
	c-0.01-0.061-0.057-0.181-0.139-0.359c-0.154-0.672-0.311-1.155-0.469-1.449c6.103-0.857,11.971-1.903,17.608-3.137L412.264,153.096
	L412.264,153.096z M394.833,165.013l-0.626-4.456l3.712-0.522c-0.084-0.178-0.233-0.408-0.449-0.694
	c-0.433-0.569-1.003-1.279-1.708-2.126l1.921-0.744c0.074,0.117,0.253,0.343,0.536,0.682c0.725,0.973,1.23,1.659,1.521,2.059
	L398.177,160l9.238-1.298c0.673-1.482,1.232-2.919,1.685-4.308l2.077,0.371c-0.082,0.264-0.259,0.668-0.534,1.211
	c-0.138,0.272-0.466,1.076-0.98,2.41l4.145-0.582l0.626,4.456l-1.983,0.279l-0.365-2.599l-15.541,2.184l0.365,2.599L394.833,165.013
	z M415.568,172.229c-0.04,0.132-0.058,0.229-0.047,0.291c-4.35-0.021-7.604-0.416-9.765-1.184c-2.205,1.446-5.211,2.815-9.02,4.108
	c-0.16-0.294-0.422-0.698-0.787-1.215c-0.218-0.286-0.367-0.517-0.45-0.694c3.721-1.091,6.421-2.133,8.102-3.126
	c-1.775-0.949-3.418-2.391-4.923-4.326l-1.295,0.182l-0.248-1.764l14.246-2.002l0.261,1.857c-0.986,2.16-2.281,4.013-3.884,5.563
	c1.649,0.463,4.452,0.572,8.41,0.333C416.042,170.584,415.841,171.244,415.568,172.229L415.568,172.229z M405.479,113.205
	l-2.062-1.509c-0.478,1.203-1.461,2.761-2.952,4.675c-0.199-0.162-0.54-0.492-1.021-0.993c-0.207-0.224-0.378-0.389-0.512-0.497
	c1.382-1.456,2.351-2.917,2.905-4.385c-1.107-0.791-2.16-1.589-3.154-2.396c0.147-2.293,0.218-4.731,0.204-7.318L397.336,101
	l-0.261-1.857l1.812-0.254c-0.013-0.503-0.035-1.288-0.065-2.357c-0.023-1.005-0.042-1.76-0.056-2.265l1.841-0.069l0.01,4.449
	l3.626-0.51l0.248,1.764c0.41,4.172,0.258,7.476-0.456,9.91c0.389,0.262,0.94,0.657,1.663,1.186c0.331,0.27,0.592,0.454,0.782,0.553
	L405.479,113.205z M402.469,108.705c0.544-1.97,0.647-4.792,0.309-8.469l-2.158,0.304c-0.024,2.339-0.09,4.589-0.196,6.749
	L402.469,108.705L402.469,108.705z M405.445,169.107c1.579-1.294,2.834-2.796,3.769-4.506l-8.202,1.152
	C402.415,167.388,403.893,168.506,405.445,169.107L405.445,169.107z M403.592,159.049c-0.561-1.058-1.14-2.048-1.739-2.975
	l1.923-0.743c0.59,0.864,1.142,1.86,1.65,2.986L403.592,159.049z M405.457,145.041l-2.714-19.31l5.698-0.801
	c0.014-0.317,0.066-0.767,0.161-1.348c0.068-0.767,0.109-1.308,0.123-1.626l2.357-0.142c-0.006,0.379-0.071,0.957-0.196,1.731
	c-0.11,0.458-0.18,0.815-0.202,1.07l8.809-1.237l2.714,19.31l-2.158,0.303l-0.209-1.485l-12.52,1.759l0.209,1.485L405.457,145.041z
	 M405.09,127.389l0.495,3.528l12.521-1.759l-0.496-3.528L405.09,127.389z M406.165,101.18l-0.965-6.87l10.619-1.492l0.966,6.87
	L406.165,101.18z M406.083,104.978l-0.248-1.764l12.001-1.687l0.248,1.764l-5.094,0.716c0.081,0.999,0.11,1.847,0.093,2.543
	l5.958-0.837l0.261,1.857l-5.354,0.752c1.272,1.967,3.341,3.097,6.199,3.389c-0.04,0.132-0.104,0.299-0.193,0.501
	c-0.308,0.737-0.493,1.3-0.556,1.688c-3.282-0.802-5.513-2.255-6.688-4.362c-0.339,2.194-2.271,4.295-5.805,6.307
	c-0.367-0.516-0.832-1.114-1.396-1.792c3.42-1.553,5.255-3.326,5.503-5.318l-5.007,0.704l-0.262-1.856l5.438-0.765
	c0.021-0.696-0.04-1.54-0.18-2.531L406.083,104.978z M405.833,132.68l0.496,3.528l12.519-1.759l-0.493-3.528L405.833,132.68z
	 M406.577,137.972l0.495,3.528l12.52-1.76l-0.496-3.527L406.577,137.972z M407.36,95.899l0.441,3.157l6.907-0.971l-0.443-3.157
	L407.36,95.899z M424.188,167.794l-2.469-3.156c-0.83,2.452-1.879,4.588-3.147,6.407c-0.066-0.054-0.17-0.165-0.312-0.335
	c-0.45-0.694-0.809-1.148-1.071-1.364c1.357-2.021,2.369-4.215,3.036-6.581l-4.274-5.363l1.325-1.228l3.486,4.148
	c0.371-1.946,0.477-4.138,0.311-6.576l-5.439,0.765l-0.287-2.042l7.425-1.043l0.287,2.042c0.043,3.655-0.188,6.591-0.697,8.808
	l3.303,4.08L424.188,167.794z M427.814,104.857c-1.361,2.842-2.725,5.274-4.082,7.295c-0.267-0.216-0.815-0.581-1.65-1.093
	c-0.066-0.054-0.133-0.108-0.198-0.162c1.287-1.696,2.639-3.999,4.047-6.912L427.814,104.857L427.814,104.857z M422.295,103.172
	l-0.312-10.37c4.72-0.663,9.945-1.682,15.683-3.056l0.892,1.957c-5.742,1.313-10.54,2.271-14.388,2.875l0.098,6.329l5.957-0.837
	l-0.665-4.734l2.158-0.304l0.665,4.735l7.943-1.116l0.272,1.95l-7.941,1.116l0.938,6.684c0.41,2.087-0.392,3.274-2.403,3.557
	c-0.567,0.142-1.541,0.311-2.925,0.505c-0.303-0.904-0.557-1.659-0.758-2.26c0.756-0.044,1.653-0.138,2.689-0.283
	c0.984-0.077,1.377-0.635,1.173-1.68l-0.874-6.22L422.295,103.172z M430.55,161.693c-0.164,3.431-1.885,6.639-5.162,9.625
	c-0.54-0.492-1.113-1.043-1.729-1.651c3.601-2.778,5.324-6.175,5.171-10.194c-0.01-1.324-0.128-2.79-0.354-4.399l1.986-0.279
	c0.044,0.311,0.079,0.779,0.109,1.405c0.087,0.619,0.146,1.053,0.183,1.3c1.426,4.722,3.989,7.929,7.69,9.617
	c-0.081,0.263-0.265,0.636-0.547,1.119c-0.229,0.473-0.414,0.815-0.562,1.025C434.096,167.505,431.834,164.985,430.55,161.693
	L430.55,161.693z M434.837,157.115c-0.362-0.075-0.907-0.188-1.633-0.338c-0.181-0.037-0.302-0.052-0.358-0.044l1.032-3.932
	l-7.079,0.995c-0.127,0.775-0.382,1.885-0.766,3.326c-0.192,0.723-0.32,1.276-0.383,1.664c-0.762-0.398-1.416-0.684-1.972-0.859
	c0.894-2.838,1.517-5.924,1.869-9.256l2.038,0.092c-0.092,1.023-0.244,2.022-0.459,2.999l8.461-1.189l0.287,2.042L434.837,157.115z
	 M431.761,140.491c-2.476,0.348-3.854-0.689-4.136-3.111l-1.213-8.634l14.332-2.014l-0.811-5.756l-14.764,2.075l-0.287-2.042
	l16.836-2.366l1.383,9.841l-14.244,2.002l0.835,5.941c0.169,1.618,1.024,2.286,2.569,2.005l9.324-1.311
	c1.563-0.156,2.323-0.8,2.282-1.93c0.02-0.696,0.035-1.834,0.049-3.415c0.667,0.159,1.417,0.274,2.249,0.346
	c0.028,1.449-0.024,2.749-0.155,3.903c-0.108,1.72-1.293,2.706-3.546,2.96L431.761,140.491z M441.16,109.609
	c-2.247-2.208-4.218-4.108-5.908-5.702l1.472-1.438c0.474,0.44,1.151,1.102,2.039,1.986c1.881,1.692,3.227,2.893,4.028,3.599
	L441.16,109.609z M445.441,160.552c-1.361,2.842-2.725,5.274-4.082,7.295c-0.267-0.215-0.815-0.58-1.65-1.093
	c-0.066-0.054-0.133-0.108-0.198-0.161c1.287-1.696,2.639-4,4.047-6.912L445.441,160.552L445.441,160.552z M439.922,158.866
	l-0.312-10.37c4.72-0.663,9.945-1.682,15.683-3.056l0.892,1.958c-5.742,1.313-10.54,2.271-14.388,2.874l0.098,6.33l5.957-0.837
	l-0.665-4.735l2.158-0.303l0.665,4.735l7.943-1.117l0.272,1.95l-7.941,1.116l0.938,6.685c0.41,2.087-0.392,3.274-2.403,3.557
	c-0.567,0.142-1.541,0.312-2.925,0.505c-0.303-0.904-0.557-1.658-0.758-2.26c0.756-0.044,1.653-0.138,2.689-0.283
	c0.984-0.077,1.377-0.634,1.173-1.68l-0.874-6.22L439.922,158.866z M442.789,93l-0.287-2.042l5.526-0.776l-0.379-2.692l2.07-0.291
	l0.379,2.692l5.438-0.764l-0.378-2.692l2.072-0.291l0.378,2.692l5.524-0.777l0.287,2.042l-5.526,0.776l0.313,2.228l-2.072,0.292
	l-0.312-2.228l-5.438,0.764l0.313,2.229l-2.072,0.291l-0.312-2.228L442.789,93z M459.23,105.364
	c-0.453,0.127-1.541,0.312-3.27,0.554c-0.163-0.734-0.386-1.492-0.672-2.272c0.173-0.024,0.518-0.073,1.036-0.146
	c0.812-0.051,1.451-0.109,1.912-0.174c1.802-0.125,2.552-1.052,2.251-2.778c-0.096-1.501-0.225-2.84-0.39-4.016l-8.114,1.141
	l1.631,11.604l-2.158,0.304l-1.631-11.605l-5.182,0.728l-0.286-2.042l17.697-2.487c0.293,2.926,0.479,5.078,0.558,6.454
	C463.023,103.538,461.895,105.117,459.23,105.364L459.23,105.364z M449.885,138.51l-2.558-18.196l2.331-0.328
	c0.021-0.254,0.061-0.607,0.116-1.058c0.134-0.712,0.21-1.639,0.226-2.777l2.211,0.068c-0.133,1.154-0.291,2.313-0.479,3.476
	l3.886-0.546l2.531,18.011l-1.899,0.267l-0.25-1.764l-4.403,0.619l0.273,1.95L449.885,138.51z M449.601,122.077l0.72,5.106
	l4.4-0.619l-0.717-5.106L449.601,122.077z M450.604,129.226l0.744,5.292l4.403-0.619l-0.744-5.292L450.604,129.226z
	 M458.787,165.304c-2.247-2.208-4.218-4.108-5.908-5.702l1.472-1.438c0.474,0.439,1.151,1.101,2.039,1.985
	c1.882,1.693,3.227,2.893,4.028,3.6L458.787,165.304z M465.141,136.177c-1.15,0.162-2.358,0.332-3.626,0.51
	c-0.152-0.674-0.401-1.396-0.745-2.167c0.758-0.044,1.885-0.17,3.382-0.38c1.629-0.103,2.324-0.99,2.092-2.661
	c-0.076-1.377-0.399-4.299-0.968-8.763c-0.126-1.308-0.229-2.24-0.307-2.797l-5.181,0.728c-0.152,0.589-0.413,1.447-0.783,2.571
	c-0.161,0.529-0.281,0.924-0.359,1.187c-0.57-0.298-1.198-0.589-1.886-0.871c1.008-2.855,1.689-5.729,2.047-8.619l2.053,0.185
	c-0.063,0.387-0.162,0.938-0.296,1.651c-0.128,0.775-0.223,1.356-0.283,1.744l6.389-0.898c0.56,3.962,1.094,8.62,1.612,13.975
	C468.653,134.23,467.606,135.767,465.141,136.177L465.141,136.177z M462.6,130.001c-0.35-0.392-0.872-0.981-1.566-1.768
	c-0.99-1.187-1.764-2.087-2.317-2.704l1.397-1.333c0.487,0.563,1.215,1.344,2.179,2.344c0.821,0.832,1.443,1.501,1.867,2.01
	L462.6,130.001z M463.345,148.188c-0.321-0.206-0.812-0.549-1.465-1.025c-0.92-0.69-1.636-1.19-2.146-1.497l1-1.655
	c1.082,0.605,2.34,1.408,3.771,2.405L463.345,148.188z M463.602,154.4c-1.176-0.844-2.376-1.654-3.6-2.429l0.987-1.748
	c1.339,0.758,2.592,1.529,3.759,2.312L463.602,154.4z M465.167,157.398c-0.38,3.146-0.663,5.93-0.851,8.356l-2.077-0.371
	c0.312-2.378,0.619-5.199,0.924-8.461c0.296,0.022,0.754,0.147,1.374,0.375C464.833,157.32,465.043,157.354,465.167,157.398
	L465.167,157.398z M466.86,149.397c-0.188,0.343-0.525,0.864-1.016,1.563c-0.064-0.053-0.133-0.107-0.196-0.162
	c-0.49-0.561-0.932-0.973-1.318-1.235c1.59-2.053,2.699-4.386,3.33-7l2.109-0.013c-0.19,0.722-0.422,1.384-0.688,1.99l10.533-1.48
	l0.248,1.764l-11.483,1.614c-0.299,0.799-0.663,1.545-1.094,2.236l11.48-1.614c0.003,0.442,0.105,1.374,0.308,2.797
	c0.105,1.185,0.209,2.117,0.305,2.797l1.986-0.279l0.247,1.764l-1.985,0.279c0.069,0.496,0.14,1.211,0.214,2.147
	c0.113,0.805,0.195,1.393,0.248,1.764l1.554-0.218l0.248,1.764l-1.641,0.231c0.197,2.244-0.802,3.488-2.997,3.734
	c-0.921,0.129-1.957,0.275-3.107,0.437c-0.085-0.178-0.21-0.444-0.377-0.799c-0.177-0.417-0.307-0.714-0.39-0.892
	c1.036-0.146,2.043-0.287,3.021-0.424c1.391-0.133,2.038-0.729,1.948-1.789l-10.792,1.517l-0.189-5.748l-1.899,0.267l-0.248-1.764
	l2.072-0.291l-0.228-5.365C467.018,149.06,466.948,149.196,466.86,149.397L466.86,149.397z M470.342,106.745l-2.948-20.981
	l16.146-2.269l2.949,20.981l-2.072,0.292l-0.234-1.671l-12.002,1.687l0.235,1.671L470.342,106.745z M469.076,150.127l0.116,3.96
	l8.375-1.177c-0.22-1.546-0.4-2.846-0.551-3.899L469.076,150.127z M478.19,158.598c-0.05-0.75-0.201-2.055-0.464-3.911l-8.548,1.201
	l0.203,3.948L478.19,158.598z M478.436,131.089l-2.469-3.156c-0.83,2.453-1.879,4.588-3.147,6.407
	c-0.066-0.055-0.17-0.166-0.312-0.335c-0.45-0.694-0.809-1.148-1.072-1.364c1.358-2.021,2.37-4.215,3.037-6.581l-4.274-5.363
	l1.325-1.229l3.486,4.148c0.371-1.945,0.477-4.137,0.311-6.576l-5.439,0.765l-0.287-2.042l7.425-1.043l0.287,2.042
	c0.043,3.655-0.188,6.591-0.697,8.808l3.303,4.08L478.436,131.089z M469.752,87.515l0.549,3.899l12.001-1.687l-0.548-3.899
	L469.752,87.515z M470.562,93.271l0.533,3.807l12.001-1.687l-0.533-3.807L470.562,93.271z M474.074,153.117
	c-0.397-0.323-1.011-0.71-1.836-1.162c-0.391-0.26-0.713-0.468-0.97-0.621l0.881-1.26c0.568,0.298,1.396,0.75,2.479,1.355
	c-0.134-0.107-0.005-0.03,0.384,0.23L474.074,153.117z M471.37,99.027l0.562,3.992l12.001-1.687l-0.562-3.992L471.37,99.027z
	 M474.711,158.897c-0.324-0.206-0.778-0.521-1.366-0.944c-0.637-0.351-1.116-0.631-1.438-0.839l0.794-1.248
	c0.76,0.399,1.719,0.958,2.877,1.679L474.711,158.897z M484.798,124.988c-0.164,3.432-1.885,6.639-5.162,9.625
	c-0.54-0.492-1.113-1.043-1.729-1.65c3.601-2.778,5.324-6.176,5.171-10.194c-0.01-1.324-0.128-2.79-0.354-4.4l1.986-0.279
	c0.044,0.311,0.079,0.779,0.109,1.405c0.087,0.62,0.146,1.053,0.183,1.3c1.426,4.723,3.989,7.929,7.69,9.617
	c-0.081,0.263-0.265,0.636-0.549,1.118c-0.229,0.473-0.412,0.815-0.561,1.025C488.344,130.801,486.082,128.28,484.798,124.988
	L484.798,124.988z M489.085,120.41c-0.362-0.075-0.907-0.188-1.633-0.338c-0.181-0.037-0.302-0.052-0.358-0.044l1.032-3.932
	l-7.079,0.995c-0.127,0.775-0.382,1.885-0.766,3.327c-0.192,0.722-0.32,1.275-0.383,1.663c-0.762-0.397-1.416-0.684-1.972-0.859
	c0.894-2.838,1.517-5.924,1.869-9.256l2.038,0.092c-0.092,1.023-0.244,2.022-0.459,3l8.461-1.189l0.287,2.042L489.085,120.41z
	 M484.088,161.741l-0.287-2.042l8.116-1.14l-2.609-18.568l2.244-0.315l0.939,6.685l8.548-1.202l0.312,2.228l-8.548,1.202
	l1.357,9.655l10.188-1.432l0.287,2.042L484.088,161.741z M496.461,99.002c0.304,2.166-0.219,3.88-1.566,5.143L494,103.419
	c0.923-0.951,1.3-2.234,1.132-3.852l-1.468,0.207l-0.431-3.064l2.849-0.4C496.152,96.806,496.278,97.702,496.461,99.002
	L496.461,99.002z M500.471,123.731c-1.359,2.842-2.723,5.274-4.082,7.295c-0.265-0.215-0.813-0.58-1.648-1.093
	c-0.066-0.054-0.133-0.108-0.198-0.161c1.287-1.696,2.637-4,4.047-6.912L500.471,123.731L500.471,123.731z M494.951,122.045
	l-0.313-10.37c4.722-0.663,9.947-1.682,15.685-3.056l0.892,1.958c-5.744,1.313-10.54,2.271-14.388,2.874l0.098,6.329l5.957-0.837
	l-0.665-4.735l2.158-0.303l0.665,4.735l7.943-1.117l0.272,1.95l-7.941,1.116l0.938,6.685c0.41,2.087-0.392,3.274-2.405,3.557
	c-0.565,0.142-1.541,0.312-2.923,0.505c-0.303-0.904-0.557-1.658-0.758-2.26c0.756-0.044,1.653-0.138,2.688-0.283
	c0.986-0.077,1.379-0.634,1.175-1.68l-0.874-6.22L494.951,122.045z M508.356,159.661l-1.749-12.44
	c-0.354,1.249-0.771,2.444-1.259,3.585c-0.009-0.061-0.056-0.182-0.139-0.359c-0.203-0.602-0.479-1.32-0.831-2.155
	c1.056-2.925,1.716-6.584,1.979-10.976l1.878,0.209c-0.08,1.526-0.273,3.068-0.582,4.626l2.427,17.268L508.356,159.661z
	 M513.816,128.482c-2.247-2.208-4.22-4.108-5.908-5.702l1.472-1.438c0.472,0.439,1.151,1.101,2.039,1.985
	c1.881,1.693,3.225,2.893,4.028,3.6L513.816,128.482z M512.155,159.126l-2.962-21.074l6.476-0.91l1.044,7.427l-4.663,0.655
	l0.365,2.6l4.059-0.57l0.248,1.764l-4.059,0.57l0.379,2.692l4.316-0.607l0.247,1.764l-4.315,0.606l0.678,4.828L512.155,159.126z
	 M511.268,139.654l0.534,3.807l3.022-0.425l-0.535-3.807L511.268,139.654z M512.233,85.235l-0.602-4.271l9.238-1.298l-1.289-2.28
	l2.192-0.687c0.448,0.694,0.892,1.548,1.326,2.559l-0.157,0.117l8.2-1.153l0.602,4.271l-1.985,0.279l-0.353-2.507l-15.455,2.172
	l0.353,2.507L512.233,85.235z M515.352,86.123l-0.232-1.671l13.812-1.941l0.234,1.671l-5.525,0.777
	c-0.153,0.149-0.362,0.335-0.626,0.561c-0.515,0.515-0.932,0.888-1.251,1.123c0.938,0.815,1.672,1.659,2.205,2.53
	c2.105-1.305,4.052-2.714,5.833-4.228l1.271,1.525c-1.121,0.79-2.271,1.613-3.438,2.472c1.404,2.896,3.546,4.772,6.428,5.629
	c-0.333,0.553-0.688,1.169-1.062,1.853c-3.097-1.142-5.396-3.313-6.901-6.509c-0.106,0.079-0.291,0.23-0.553,0.456
	c-0.271,0.166-0.481,0.321-0.639,0.469c0.502,1.065,0.844,2.248,1.026,3.548c0.446,2.777-0.444,4.354-2.682,4.731
	c-0.862,0.122-1.812,0.255-2.85,0.4c-0.093-0.24-0.231-0.599-0.416-1.078c-0.109-0.363-0.207-0.633-0.29-0.811
	c0.346-0.049,0.81-0.083,1.395-0.102c0.46-0.064,0.834-0.117,1.123-0.158c1.455-0.079,2.033-0.979,1.732-2.705
	c-0.078-0.557-0.182-1.078-0.309-1.566c-2.153,2.638-5.149,4.92-8.986,6.849c-0.317-0.587-0.696-1.197-1.137-1.828
	c3.83-1.548,6.976-3.821,9.431-6.816c-0.226-0.347-0.458-0.755-0.7-1.227c-2.14,2.321-4.805,4.242-7.995,5.762
	c-0.084-0.177-0.271-0.466-0.562-0.868c-0.228-0.347-0.409-0.605-0.551-0.775c3.158-1.327,5.843-3.124,8.048-5.391
	c-0.084-0.177-0.265-0.404-0.536-0.682c-0.133-0.107-0.232-0.188-0.298-0.242c-1.907,1.467-4.13,2.79-6.662,3.966
	c-0.095-0.239-0.281-0.529-0.563-0.868c-0.231-0.408-0.421-0.698-0.562-0.868c3.579-1.26,6.35-2.848,8.312-4.766L515.352,86.123z
	 M516.723,110.938l-0.3-2.135l17.872-2.512l0.3,2.135l-7.854,1.104l0.848,6.035l7.08-0.995l0.287,2.042l-7.08,0.995l0.913,6.499
	l8.979-1.262l0.273,1.95l-20.117,2.827l-0.272-1.949l8.979-1.262l-0.913-6.499l-7.08,0.995l-0.287-2.042l7.08-0.995l-0.849-6.034
	L516.723,110.938z M526.99,155.054c-0.334,0.551-0.599,1.187-0.788,1.909c-1.628-0.718-3.023-1.468-4.19-2.251
	c-0.944,1.205-2.299,2.437-4.059,3.694l-1.371-1.606c1.901-1.088,3.271-2.195,4.111-3.323c-1.162-1.162-2.176-2.944-3.04-5.348
	l0.159-0.117l-0.604,0.085l-0.261-1.857l7.425-1.043l0.248,1.764c-0.188,2.425-0.72,4.488-1.596,6.188
	C523.952,153.904,525.273,154.537,526.99,155.054L526.99,155.054z M517.649,144.343l-0.248-1.764l4.574-0.643l-0.509-3.621
	l-4.488,0.631l-0.263-1.857l6.217-0.874l1.02,7.241L517.649,144.343z M521.707,151.915c0.582-1.28,0.953-2.816,1.113-4.606
	l-3.54,0.498C519.984,149.475,520.793,150.845,521.707,151.915L521.707,151.915z M526.074,139.085l-0.248-1.764l1.468-0.206
	l-0.34-2.414l1.897-0.267l0.342,2.414l4.145-0.583l-0.353-2.506l1.897-0.267l0.354,2.507l1.381-0.194l0.248,1.764l-1.382,0.194
	l1.475,10.491l1.641-0.23l0.248,1.764l-11.311,1.59l-0.248-1.764l1.727-0.243l-1.474-10.491L526.074,139.085z M530.788,155.085
	c-0.489,0.699-0.832,1.189-1.026,1.47c-0.86-0.7-1.417-1.095-1.663-1.186c1.108-1.292,2.059-2.687,2.847-4.187l1.724,0.988
	C532.236,152.862,531.609,153.833,530.788,155.085L530.788,155.085z M529.441,138.612l0.339,2.414l4.145-0.583l-0.34-2.414
	L529.441,138.612z M530.016,142.697l0.326,2.321l4.146-0.583l-0.326-2.321L530.016,142.697z M530.576,146.689l0.339,2.414
	l4.145-0.583l-0.339-2.414L530.576,146.689z M536.884,154.607c-0.558-0.617-1.56-1.485-3.008-2.606l1.212-1.401
	c1.126,0.916,2.148,1.719,3.068,2.409L536.884,154.607z M539.166,92.052c-0.071,1.588-0.44,3.343-1.108,5.268
	c-0.577-0.361-1.16-0.752-1.75-1.174c0.646-1.668,0.992-3.169,1.04-4.501c0.047-1.332-0.133-3.452-0.542-6.361l-1.096-7.798
	l8.807-1.238l-0.931-2.236l2.219-0.501c0.083,0.178,0.182,0.448,0.29,0.811c0.334,0.71,0.559,1.247,0.667,1.61l7.856-1.104
	l0.248,1.764l-17.009,2.391l0.888,6.313C539.145,88.143,539.285,90.395,539.166,92.052L539.166,92.052z M541.237,147.368
	c0.178,2.942-0.329,5.599-1.521,7.977c-0.188-0.1-0.479-0.28-0.868-0.541c-0.445-0.253-0.77-0.46-0.968-0.621
	c0.854-1.445,1.318-2.931,1.398-4.457c0.137-1.534-0.004-3.786-0.422-6.757l-1.291-9.191l7.684-1.08l2.609,18.567
	c0.218,1.546-0.392,2.453-1.818,2.717c-0.453,0.125-1.282,0.275-2.491,0.445c-0.136-0.549-0.405-1.207-0.805-1.97
	c0.287-0.041,0.693-0.067,1.222-0.077c0.401-0.057,0.69-0.097,0.863-0.121c0.863-0.122,1.213-0.549,1.052-1.284l-0.587-4.178
	L541.237,147.368L541.237,147.368z M541.716,125.885l-2.975-21.167l18.822-2.646l2.975,21.167l-2.072,0.292l-0.17-1.207
	l-14.764,2.075l0.17,1.207L541.716,125.885z M557.118,91.991c-0.086,0.642-0.145,1.282-0.171,1.917
	c-2.938,0.413-5.303,0.712-7.095,0.902c-2.715,0.318-4.758-0.027-6.132-1.032c-0.56,1.025-1.327,2.047-2.298,3.068
	c-0.134-0.108-0.369-0.327-0.709-0.658c-0.332-0.27-0.596-0.484-0.795-0.646c1.152-0.983,1.961-1.916,2.424-2.802
	c-0.839-0.955-1.617-2.107-2.335-3.458l1.363-0.949c0.566,1.12,1.168,2.046,1.799,2.777c0.361-1.187,0.553-2.539,0.574-4.057
	l-3.626,0.51l-0.224-1.578l2.858-4.094l-3.367,0.473l-0.233-1.671l5.267-0.74l0.248,1.764l-2.452,3.848l2.938-0.413l0.232,1.671
	c0.074,2.2-0.221,4.071-0.884,5.615c1.033,0.676,2.792,0.869,5.276,0.584C552.081,92.699,554.528,92.355,557.118,91.991
	L557.118,91.991z M539.739,135.461l0.573,4.084l3.887-0.546l-0.574-4.085L539.739,135.461z M540.771,142.795
	c0.13,0.928,0.223,1.8,0.277,2.612l3.973-0.559l-0.562-3.992l-3.886,0.546L540.771,142.795z M540.988,106.295l2.31,16.432
	l14.764-2.075l-2.31-16.432L540.988,106.295z M542.917,110l-0.247-1.764l12.001-1.687l0.248,1.764l-5.181,0.728l0.392,2.785
	l4.748-0.667l0.248,1.764l-4.748,0.667l0.561,3.992l5.439-0.765l0.261,1.857l-12.519,1.759l-0.263-1.857l5.182-0.728l-0.562-3.992
	l-4.488,0.631l-0.248-1.764l4.489-0.631l-0.393-2.785L542.917,110z M549.258,81.167c-0.739,0.167-1.855,0.355-3.354,0.566
	l-0.494-1.635c3.271-0.522,6.128-1.082,8.566-1.677l0.58,1.623c-1.238,0.363-2.406,0.622-3.5,0.776l0.443,3.156l3.28-0.461
	l0.233,1.671l-3.279,0.461l0.47,3.342l3.799-0.534l0.248,1.764l-9.497,1.335l-0.248-1.764l3.886-0.546l-0.47-3.342l-3.367,0.474
	l-0.233-1.671l3.366-0.473L549.258,81.167L549.258,81.167z M550.792,150.858l-2.453-17.454l5.612-0.789l2.361,16.804l-1.642,0.23
	l-0.223-1.578l-2.158,0.303l0.312,2.228L550.792,150.858z M550.413,135.007l1.604,11.419l2.158-0.303l-1.604-11.419L550.413,135.007
	z M554.193,116.936c-0.879-0.823-1.681-1.5-2.398-2.03l0.893-1.167c0.834,0.515,1.688,1.152,2.56,1.913L554.193,116.936z
	 M561.526,151.433c-2.018,0.283-3.135-0.57-3.354-2.558l-2.438-17.361l11.224-1.578l1.553,11.048l-9.323,1.311l0.836,5.941
	c0.08,0.999,0.69,1.385,1.836,1.162l4.835-0.679c1.218-0.109,1.812-0.665,1.79-1.672c0.032-1.014,0.021-2.147-0.038-3.403
	c0.791,0.206,1.456,0.333,1.989,0.383c0.047,1.572,0.019,2.838-0.083,3.798c-0.128,1.595-1.171,2.532-3.127,2.807L561.526,151.433z
	 M557.894,133.104l1.02,7.241l2.85-0.4l-1.018-7.241L557.894,133.104z M559.854,87.629l-1.564-11.14l8.115-1.141l-0.652-4.642
	l2.158-0.303l0.65,4.642l8.116-1.141l1.555,11.047l-2.072,0.292l-0.169-1.207l-6.044,0.849l1.106,7.892l-2.158,0.303l-1.107-7.891
	l-6.043,0.849l0.183,1.3L559.854,87.629z M560.646,78.24l0.796,5.663l6.044-0.849l-0.796-5.663L560.646,78.24z M565.319,132.06
	l-2.852,0.4l1.02,7.241l2.85-0.4L565.319,132.06z M569.078,121.282c-1.869,0.073-3.057-0.865-3.564-2.813
	c-0.123-2.127,0.752-3.419,2.625-3.872c1.982-0.089,3.209,0.907,3.68,2.986C571.922,119.588,571.008,120.821,569.078,121.282
	L569.078,121.282z M568.335,115.99c-1.077,0.278-1.586,1.043-1.526,2.297c0.265,1.037,0.949,1.539,2.062,1.509
	c1.134-0.287,1.684-0.961,1.651-2.031C570.231,116.544,569.503,115.953,568.335,115.99L568.335,115.99z M574.892,76.238
	l-6.044,0.849l0.797,5.663l6.045-0.849L574.892,76.238z M576.318,133.918c0.546,4.721,0.936,8.327,1.169,10.818l-1.557,0.218
	c-0.821-5.437-1.757-10.83-2.801-16.174l2.59-0.364C575.838,129.664,576.036,131.497,576.318,133.918L576.318,133.918z
	 M578.106,146.637l0.363,2.6l-2.157,0.303l-0.364-2.599L578.106,146.637z M584.81,71.624c-1.014,1.974-2.101,3.641-3.259,5.002
	c-0.424-0.508-0.854-1.078-1.297-1.711c1.753-2.14,3.016-4.431,3.788-6.875l2.284-0.037c-0.032,0.194-0.144,0.462-0.327,0.803
	c-0.121,0.396-0.226,0.695-0.314,0.896l14.246-2.002l0.247,1.764L584.81,71.624L584.81,71.624z M581.146,81.89l-0.248-1.764
	l2.936-0.413l0.067-5.785l14.419-2.026l0.623,5.688l2.849-0.4l0.248,1.764l-2.938,0.413c0.062,0.434,0.123,1.088,0.188,1.962
	c0.122,0.868,0.184,1.521,0.188,1.962l2.331-0.328l0.247,1.764l-2.504,0.352c0.256,2.236-0.769,3.516-3.067,3.839
	c-1.152,0.162-2.331,0.328-3.54,0.498c-0.438-1.012-0.672-1.642-0.706-1.889c0.354,0.012,1.479-0.114,3.38-0.38
	c1.332-0.125,1.98-0.721,1.95-1.789l-13.814,1.941l0.067-5.784L581.146,81.89z M586.85,103.636c-0.472,0.824-0.976,1.621-1.513,2.39
	c-0.159-0.293-0.422-0.698-0.787-1.215c-0.216-0.285-0.367-0.517-0.45-0.694c1.721-2.386,2.951-4.895,3.697-7.525l2.004,0.476
	c-0.411,1.257-0.887,2.46-1.43,3.609l1.354,9.655l-1.897,0.267L586.85,103.636L586.85,103.636z M597.408,83.581l-0.376-3.923
	l-11.138,1.565l-0.059,3.984l6.821-0.958c-0.588-0.422-1.494-1.021-2.718-1.795c-0.189-0.099-0.35-0.172-0.473-0.218l1.015-1.562
	c1.147,0.659,2.234,1.295,3.262,1.908l-1,1.655L597.408,83.581z M585.962,75.438l-0.056,3.984l10.965-1.541
	c-0.068-1.315-0.192-2.624-0.375-3.923L585.962,75.438z M589.444,112.075c-0.421,2.017-0.896,3.881-1.415,5.595l-1.932-0.581
	c0.639-1.73,1.089-3.529,1.354-5.397L589.444,112.075L589.444,112.075z M592.282,78.431c-1.034-0.674-2.122-1.311-3.264-1.908
	l0.929-1.55c0.38,0.2,0.948,0.498,1.71,0.896c0.703,0.407,1.245,0.71,1.625,0.908L592.282,78.431z M593.491,100.146
	c-0.429,1.134-0.995,2.317-1.702,3.553c-0.134-0.107-0.356-0.234-0.67-0.379c-0.455-0.314-0.812-0.548-1.066-0.702
	c1.243-2.005,2.193-4.221,2.853-6.649l2.038,0.092c-0.081,0.265-0.201,0.66-0.361,1.187c-0.179,0.404-0.283,0.703-0.314,0.896
	l9.411-1.322l0.274,1.949l-0.805,3.048c-0.314-0.145-0.858-0.258-1.634-0.338c-0.125-0.044-0.216-0.064-0.271-0.057l0.71-2.466
	L593.491,100.146L593.491,100.146z M594.217,117.842c-1.843,0.259-2.893-0.54-3.154-2.397l-0.548-3.899l1.986-0.279l0.47,3.342
	c0.13,0.928,0.686,1.324,1.663,1.186l3.626-0.509c1.283-0.055,1.908-0.614,1.877-1.684c0.086-0.642,0.104-1.34,0.06-2.091
	c0.247,0.092,0.644,0.193,1.188,0.307c0.362,0.076,0.636,0.132,0.815,0.169c0.012,0.504-0.032,1.235-0.131,2.196
	c-0.041,0.133-0.059,0.229-0.048,0.291c-0.13,1.595-1.117,2.491-2.97,2.689L594.217,117.842z M595.407,103.758
	c-1.081,1.919-2.159,3.649-3.232,5.188c-0.531-0.43-1.081-0.795-1.649-1.093c0.992-1.276,2.021-2.935,3.087-4.978L595.407,103.758
	L595.407,103.758z M597.075,113.749c-0.905-1.009-1.921-1.97-3.047-2.885l1.312-1.32c1.051,0.799,2.115,1.69,3.193,2.675
	L597.075,113.749z M597.14,109.195c-0.574,0.081-1.236,0.174-1.983,0.279c-0.194-0.541-0.425-1.139-0.693-1.796
	c0.411,0.006,0.991-0.045,1.74-0.15c0.92-0.129,1.295-0.592,1.125-1.389l-0.717-5.106l1.897-0.267l0.757,5.384
	C599.565,107.876,598.858,108.892,597.14,109.195L597.14,109.195z M604.262,107.248c-0.396-0.323-0.966-0.811-1.702-1.465
	c-1.076-0.984-1.946-1.746-2.608-2.284l1.212-1.401c1.457,1.184,2.947,2.395,4.472,3.632L604.262,107.248z M605.366,114.477
	c-1.063-1.302-2.354-2.73-3.86-4.286l1.397-1.333c1.5,1.493,2.849,2.946,4.046,4.354L605.366,114.477z"/>
</svg>
