<?xml version="1.0" encoding="utf-8"?>
<!-- Generator: Adobe Illustrator 16.0.0, SVG Export Plug-In . SVG Version: 6.00 Build 0)  -->
<!DOCTYPE svg PUBLIC "-//W3C//DTD SVG 1.1//EN" "http://www.w3.org/Graphics/SVG/1.1/DTD/svg11.dtd">
<svg version="1.1" id="图层_1" xmlns="http://www.w3.org/2000/svg" xmlns:xlink="http://www.w3.org/1999/xlink" x="0px" y="0px"
	 width="640px" height="584px" viewBox="0 0 640 584" enable-background="new 0 0 640 584" xml:space="preserve">
<g id="图层_2">
	<rect fill="none" width="640" height="584"/>
</g>
<polygon fill-rule="evenodd" clip-rule="evenodd" fill="#FCC127" points="0,53 360.5,2 370.5,72 0,124.5 "/>
<polygon fill-rule="evenodd" clip-rule="evenodd" fill="#FFFFFF" points="-1,54 359.967,3.231 369.57,71.561 -1,124.001 "/>
<path fill="#FCC127" d="M45.665,68.136l-0.788-5.609l9.533-1.34l-3.296-3.876l7.059-1.978c0.451,0.596,1.333,1.655,2.648,3.178
	c0.586,0.706,1.028,1.236,1.324,1.589l6.296-0.885c0.269-0.694,0.682-1.674,1.238-2.936c0.556-1.261,0.917-2.166,1.085-2.716
	l7.151-0.019l-2.1,4.634l9.713-1.365l0.788,5.609l-17.088,2.401l0.326,2.321l14.75-2.073l0.761,5.416l-14.75,2.073l0.354,2.515
	l17.987-2.528l0.761,5.415l-42.63,5.991l-0.761-5.415l17.808-2.503l-0.354-2.514l-14.21,1.997l-0.761-5.416l14.21-1.997
	l-0.326-2.321L45.665,68.136z M48.703,92.363l-0.761-5.416l16.908-2.376c-0.018-0.126-0.063-0.45-0.136-0.967
	c0.046-0.53,0.053-0.926,0.017-1.186l7.015-0.986c-0.084,0.277-0.098,0.605-0.044,0.993c-0.048,0.534-0.053,0.929-0.017,1.186
	l17.447-2.452l0.761,5.416L73.345,88.9c2.576,2.665,8.738,3.441,18.487,2.333c-0.475,0.988-0.968,2.7-1.479,5.139
	c-0.27,0.694-0.438,1.245-0.502,1.648c-9.103,0.491-15.715-0.882-19.838-4.115c-2.887,3.823-8.951,7.239-18.186,10.248
	c-0.019-0.13-0.107-0.315-0.262-0.555c-1.342-2.573-2.451-4.389-3.333-5.448c9.623-2.009,14.936-4.663,15.94-7.96L48.703,92.363z
	 M109.298,86.805c-1.454,2.704-3.645,5.837-6.565,9.404c-1.106-0.898-2.367-2.034-3.781-3.413c2.993-3.049,5.202-6.057,6.62-9.017
	c-2.466-1.888-4.924-3.712-7.372-5.473c0.5-4.276,0.755-8.981,0.768-14.111l-3.238,0.455l-0.68-4.835l3.958-0.556
	c-0.029-3.675-0.164-6.812-0.406-9.41l6.917-0.38l-0.036,8.88l6.296-0.885l0.707,5.029c0.516,7.161,0.252,13.114-0.792,17.862
	c0.946,0.656,2.369,1.639,4.267,2.951c1.914,1.441,3.345,2.488,4.294,3.144l-3.997,5.493c-1.242-1.009-3.159-2.45-5.743-4.321
	C109.978,87.301,109.573,87.031,109.298,86.805L109.298,86.805z M105.262,63.31c-0.103,4.486-0.313,8.658-0.626,12.514l3.024,1.942
	c0.738-4.311,0.899-9.264,0.479-14.86L105.262,63.31L105.262,63.31z M117.004,75.071l-0.979-6.963l8.993-1.264l-0.571-4.062
	l4.903-8.184L116.04,56.47l-0.951-6.77l21.405-3.008l0.952,6.77l-5.917,10.102l0.326,2.321l7.915-1.112l0.979,6.963l-7.915,1.112
	l1.631,11.604c0.752,4.496-1.148,7.064-5.704,7.705c-1.781,0.379-3.93,0.75-6.448,1.104c-0.194-0.5-0.596-1.627-1.209-3.38
	c-0.441-1.387-0.766-2.389-0.975-3.019c1.557-0.219,3.176-0.446,4.856-0.683c1.935-0.139,2.699-1.232,2.291-3.28l-1.277-9.09
	L117.004,75.071z M147.666,53.602l-0.843-5.996l16.369-2.3c-0.332-0.61-0.828-1.526-1.487-2.75
	c-0.193-0.497-0.298-0.812-0.316-0.942l7.653-1.667c0.155,0.243,0.348,0.74,0.577,1.497c0.542,1.24,0.975,2.165,1.307,2.775
	l15.109-2.124l0.843,5.996l-12.052,1.694l6.126,0.52l-1.893,4.802l10.612-1.491l0.87,6.189l-17.808,2.503l0.517,3.675l16.009-2.25
	l0.815,5.802l-9.893,1.391c2.219,1.004,5.616,2.563,10.196,4.681c1.049,0.512,1.832,0.861,2.349,1.05l-3.016,5.947
	c-1.862-1.054-5.269-2.68-10.223-4.875c-1.309-0.605-2.23-1.067-2.763-1.387l2.738-5.315l-5.396,0.758l0.843,5.996
	c1.103,5.235-0.805,8.2-5.721,8.891c-1.902,0.397-3.812,0.733-5.729,1.002c-0.65-2.014-1.42-4.01-2.309-5.987
	c1.678-0.236,3.237-0.455,4.676-0.657c1.817-0.123,2.51-1.271,2.083-3.449l-0.68-4.835l-6.295,0.885l3.781,3.414
	c-3.486,3.911-7.088,7.437-10.801,10.59c-0.158-0.243-0.441-0.53-0.855-0.866c-1.49-1.896-2.657-3.242-3.503-4.044
	c3.169-2.68,6.363-5.628,9.58-8.841l-8.813,1.239l-0.815-5.802l16.908-2.376l-0.516-3.675l-18.707,2.629l-0.87-6.189l10.972-1.542
	l-3.323-4.069l5.746-2.188L147.666,53.602z M160.437,51.807c1.351,1.782,2.761,3.557,4.233,5.322l6.835-0.96l2.602-6.283
	L160.437,51.807z M198.526,63.621l-0.924-6.576l18.527-2.604l-0.68-4.835l10.534-8.581l-26.622,3.742l-0.924-6.576l36.694-5.157
	l1.169,8.317l-13.167,10.726l0.19,1.354l17.808-2.502l0.924,6.576l-17.808,2.502l1.441,10.251c0.963,5.122-0.944,8.086-5.721,8.891
	c-0.823,0.245-2.252,0.514-4.29,0.8c-2.022,0.414-3.452,0.683-4.29,0.8c-0.284-1.144-0.82-2.778-1.606-4.902
	c-0.247-0.884-0.468-1.577-0.659-2.077c0.239-0.034,0.779-0.109,1.619-0.228c1.575-0.089,3.023-0.228,4.344-0.413
	c2.672-0.111,3.691-1.57,3.054-4.374l-1.087-7.736L198.526,63.621z M253.029,73.512l-5.817-41.39l17.268-2.427l5.735,40.81
	l-6.116,0.859l-0.435-3.095l-5.036,0.708l0.516,3.675L253.029,73.512z M254.198,37.452l1.359,9.671l5.037-0.708l-1.359-9.67
	L254.198,37.452z M256.426,53.312l1.387,9.864l5.036-0.708l-1.386-9.864L256.426,53.312z M267.658,41.872l-0.951-6.77l12.771-1.795
	l-1.196-8.51l6.655-0.935l1.196,8.51l3.958-0.556l0.951,6.769l-3.957,0.556l3.126,22.243c1,5.382-1.026,8.36-6.081,8.941
	c-2.519,0.354-5.099,0.716-7.735,1.087c-0.704-2.4-1.493-4.524-2.363-6.374c0.478-0.067,1.439-0.202,2.878-0.405
	c1.575-0.089,2.725-0.186,3.445-0.287c2.416-0.207,3.372-1.657,2.874-4.349l-2.8-19.921L267.658,41.872z M275.986,58.058
	c-1.526-2.152-3.846-5.179-6.962-9.081c-0.45-0.593-0.814-1.001-1.09-1.228l4.575-3.996c2.887,3.145,5.732,6.427,8.537,9.845
	L275.986,58.058z M299.706,47.228l-0.924-6.576l18.167-2.554l-2.582-18.374l6.835-0.96l2.582,18.374l18.167-2.553l0.924,6.576
	l-12.95,1.82l1.604,11.412c0.133,1.824,0.971,2.56,2.512,2.211l1.799-0.253c1.439-0.202,2.091-1.212,1.958-3.036
	c-0.036-0.257-0.031-0.652,0.017-1.186c-0.069-2.225-0.161-4.184-0.275-5.878c1.013,0.252,2.602,0.688,4.769,1.302
	c0.892,0.269,1.529,0.445,1.907,0.521c-0.013,0.791,0.003,1.775,0.048,2.952c-0.088,1.985-0.153,3.704-0.192,5.155
	c-0.315,3.856-2.589,5.951-6.821,6.284l-4.496,0.632c-4.659,0.785-7.265-1.216-7.814-6.002l-1.848-13.152l-5.936,0.834
	c1.873,9.863-1.677,17.657-10.653,23.39c-0.278-0.226-0.639-0.634-1.089-1.228c-1.629-2.008-2.926-3.404-3.89-4.187
	c7.238-4.173,10.172-9.843,8.797-17.015L299.706,47.228z M308.61,37.496c-2.575-2.661-5.744-5.633-9.508-8.92l4.259-4.938
	c3.295,2.563,6.564,5.389,9.813,8.482L308.61,37.496z M338.107,22.897c-2.455,4.29-4.853,8.112-7.193,11.464l-5.302-3.792
	c2.813-4.34,5.039-8.07,6.681-11.195L338.107,22.897L338.107,22.897z"/>
</svg>
