<svg xmlns="http://www.w3.org/2000/svg" width="640" height="474" viewBox="0 0 640 474"><path fill="#18AAC3" stroke="#96F0FF" stroke-miterlimit="10" d="M-1 50l350.777-50.006 9.604 68.327-360.381 49.68z"/><path fill="#fff" d="M34.199 62.316l-.625-4.448 6.835-.96-.489-3.481 5.756-.809.489 3.481 6.655-.936.625 4.449-6.655.935.271 1.935 5.756-.809.571 4.062-5.756.809.272 1.934 7.015-.986.625 4.448-20.146 2.832-.625-4.449 7.375-1.036-.272-1.935-5.936.834-.571-4.062 5.936-.834-.271-1.934-6.835.96zm6.434 37.951l-3.371-23.983 17.448-2.452 2.583 18.374c.489 3.481-.758 5.497-3.736 6.047-.583.211-2.131.497-4.649.851-.23-.756-.65-2.013-1.263-3.767-.314-.482-.487-.853-.523-1.11l3.238-.455c1.079-.151 1.546-.741 1.401-1.774l-.082-.581-6.655.936 1.006 7.156-5.397.758zm2.651-20.293l.299 2.127 6.655-.935-.299-2.128-6.655.936zm.87 6.189l.299 2.128 6.655-.936-.299-2.127-6.655.935zm12.594-8.278l-.789-5.609 6.835-.961-.462-3.288-5.756.809-.679-4.835c-.865-.93-1.693-1.602-2.485-2.018 2.035-2.915 3.704-6.7 5.008-11.354l5.99-.447c-.084.277-.201.752-.349 1.43-.269.697-.438 1.245-.502 1.648l8.274-1.163.68 4.835-2.154 4.248 5.396-.758 1.25 8.897 1.979-.278.788 5.609-1.979.278 1.495 10.637-5.216.733-.272-1.934-3.417.479.761 5.416c.625 3.592-.911 5.715-4.608 6.368l-5.216.733c-.284-1.144-.82-2.778-1.606-4.902-.139-.113-.216-.231-.234-.361.478-.067 1.328-.119 2.545-.161l1.619-.228c1.439-.202 1.988-1.068 1.652-2.599l-.489-3.481-6.116.86-.761-5.416 6.116-.86-.462-3.288-6.836.961zm9.398-19.269l-4.856.683c-.557 1.262-1.131 2.396-1.724 3.398l4.856-.683 1.724-3.398zm5.18 8.147l-3.417.48.462 3.288 3.417-.48-.462-3.288zm-2.167 9.378l.462 3.288 3.418-.48-.462-3.288-3.418.48zm16.619-14.365l-.897-6.383 3.597-.505-1.114-7.93 5.936-.834 1.115 7.93 2.878-.404.897 6.382-2.878.405.924 6.576 2.769-1.178.952 6.769-2.77 1.178 1.794 12.765c.589 3.335-.723 5.294-3.942 5.879-.702.228-2.193.505-4.47.826-.686-2.271-1.345-4.348-1.977-6.231l1.259-.177c.617.046 1.106.042 1.466-.009 1.215-.038 1.665-.758 1.347-2.162l-1.142-8.123-3.614 1.691-1.572-7.274c.46-.194 1.102-.417 1.924-.665.922-.392 1.673-.694 2.257-.909l-1.142-8.124-3.597.507zm28.37 26.978l-1.686-11.992-4.856.683c.514 4.532-.282 9.31-2.387 14.339-.26-.096-.594-.311-1.008-.647-2.035-1.424-3.596-2.521-4.681-3.287 2.092-4.238 2.486-10.143 1.178-17.719l-3.208-22.822 27.7-3.893 5.437 38.682c.71 3.318-.673 5.223-4.15 5.711l-4.497.632c-.496-1.773-1.047-3.535-1.661-5.289l.899-.126c.856.012 1.404 0 1.646-.034 1.216-.038 1.683-.631 1.401-1.774l-.842-5.996-5.037.708 1.685 11.992-5.933.832zm-9.661-36.116l.897 6.383 4.497-.632-.897-6.382-4.497.631zm2.365 16.826l.272 1.934 4.497-.632-.897-6.383-4.497.632.625 4.449zm13.104-19l-5.037.708.897 6.383 5.037-.708-.897-6.383zm-3.297 13.086l.897 6.383 5.037-.708-.897-6.383-5.037.708zm39.56-10.293l-3.313-2.69.652 4.642-3.417.48.408 2.901 7.195-1.011.789 5.609-7.195 1.011.435 3.095 6.476-.91 2.392 17.021-5.396.758-.299-2.127-7.734 1.087.299 2.127-5.396.758-2.392-17.02 6.475-.91-.435-3.095-7.735 1.087-.788-5.609 7.734-1.087-.408-2.901-3.417.48-.354-2.514c-.952 1.055-1.957 2.183-3.01 3.381-.193-.497-.532-1.173-1.019-2.026-.855-1.72-1.532-3.07-2.037-4.053 4-3.718 6.712-7.911 8.136-12.583l6.35-.498c-.169.551-.386 1.173-.655 1.867 2.79 1.58 6.158 3.804 10.108 6.666l-2.449 6.064zm-3.934-3.194c-1.813-1.585-3.736-3.09-5.771-4.514-.843 1.829-1.979 3.764-3.403 5.804l9.174-1.29zm-6.408 23.582l.625 4.448 7.735-1.087-.625-4.448-7.735 1.087zm23.369 8.353l-5.396.758c-.212-.63-.614-1.757-1.209-3.38-.266-1.017-.495-1.77-.686-2.271l3.957-.556c1.799-.253 2.519-1.208 2.165-2.868l-1.713-12.185-6.835.96-.843-5.996 7.195-1.011c-.967-.782-2.502-2.145-4.609-4.085-.985-.913-1.754-1.593-2.305-2.043l3.233-4.399c1.775 1.328 3.562 2.723 5.356 4.178l3.43-5.61-13.49 1.896-.843-5.996 19.426-2.73 1.033 7.35-6.196 10.732 8.994-1.264.815 5.802-.521 9.343-5.172-.259.684-8.183-3.417.48 1.93 13.732c.753 4.496-.908 7.032-4.983 7.605zm23.549-36.845c-1.819-2.506-3.935-5.364-6.341-8.576l4.961-3.853 1.945 2.093c1.176 1.413 2.803 3.422 4.882 6.02l-5.447 4.316zm1.023 33.386l-.458.656-3.633-7.576c.406-.581 1.087-1.401 2.04-2.456.832-1.035 1.46-1.783 1.887-2.237l-1.658-11.798-4.317.607-.952-6.77 10.973-1.542 2.582 18.374c2.113 2.859 5.338 4.051 9.673 3.571 10.312-1.449 18.217-2.625 23.716-3.53-.084.277-.15.681-.196 1.211-.294 2.276-.518 4.147-.678 5.618-2.878.405-6.785.886-11.719 1.45-5.278.742-9.245 1.231-11.899 1.475-4.816.544-8.519-.578-11.112-3.369-1.258 1.488-2.676 3.595-4.249 6.316zm5.843-30.209l-.842-5.996 11.512-1.618-.435-3.095c-3.083.699-6.241 1.272-9.479 1.727l-1.895-5.651c1.781-.38 4.461-.889 8.04-1.524 7.637-1.335 13.657-2.443 18.059-3.327l2.074 5.625c-3.34.602-6.73 1.276-10.171 2.021l.462 3.288 11.692-1.644.843 5.996-11.692 1.643.489 3.481 9.533-1.34 2.229 15.86-25.542 3.589-2.229-15.859 9.354-1.315-.489-3.481-11.513 1.62zm9.912 7.877l.625 4.448 12.591-1.77-.625-4.448-12.591 1.77zm39.64-11.092c-1.397 1.38-3.091 2.801-5.087 4.265-1.161-1.282-2.575-2.661-4.25-4.136 4.949-3.063 8.431-6.575 10.441-10.54l7.222-.818-.305.438c-.169.551-.457 1.118-.862 1.699l16.188-2.275-.38-2.708-27.701 3.893.734 5.222-6.476.91-1.522-10.831 17.088-2.401-1.857-4.078 7.86-1.499c.348.74.925 2.237 1.731 4.49l15.829-2.225 1.522 10.831-5.396.758.408 2.901c-2.276 2.952-4.343 5.215-6.2 6.789 3.67.011 8.16-.226 13.474-.71-.084.277-.16.614-.224 1.018-.281 1.488-.526 3.23-.732 5.231-8.984.474-15.502.207-19.556-.802-2.697 1.695-7.21 3.513-13.541 5.453l29.5-4.146 2.147 15.279-6.655.936-.244-1.741-18.347 2.579.245 1.74-6.476.91-2.12-15.086-4.235 1.187c-.351-.74-.793-1.729-1.334-2.968-.662-1.22-1.157-2.136-1.487-2.75 5.94-1.229 10.886-2.581 14.837-4.058-1.033-.378-2.446-1.298-4.239-2.757zm3.641 15.465l.489 3.481 18.347-2.579-.489-3.481-18.347 2.579zm7.495-15.846c2.374-1.384 4.298-2.903 5.779-4.56l-11.872 1.668c1.895 1.312 3.926 2.278 6.093 2.892zm38.851.262c.876 7.11.266 13.636-1.833 19.586-1.962-.908-3.933-1.882-5.913-2.917 1.793-5.51 1.939-13.158.444-22.941l-2.311-16.44 15.649-2.2-1.569-3.33 8.04-1.524 1.443 3.742 14.571-2.047 2.037 14.506-31.837 4.475.245 1.741.245 1.741 12.411-1.745c-.175-.37-.377-.933-.604-1.69-.296-.353-.459-.657-.496-.917l7.14-1.398 1.155 2.993 14.03-1.972.788 5.609-20.865 2.933c.145 1.034.21 1.943.201 2.733l17.627-2.478c.134 1.824.156 2.413.065 1.766.312 3.112.501 5.323.563 6.626.671 4.769-1.225 7.402-5.677 7.898-2.141.43-4.83.876-8.067 1.331-.789-2.126-1.542-3.993-2.254-5.6 1.935-.14 4.164-.388 6.682-.742 2.057-.156 3.025-1.082 2.912-2.776l-.119-2.153-11.872 1.668c-.23 3.583-2.523 7.717-6.877 12.406l-1.656-1.345-3.934-3.195c5.128-4.4 7.105-9.479 5.93-15.231l-6.294.887zm-2.473-17.601l.435 3.095 25.722-3.615-.435-3.094-25.722 3.614z"/></svg>