<svg xmlns="http://www.w3.org/2000/svg" width="640" height="318" viewBox="0 0 640 318"><path fill="#361C00" stroke="#D5B281" stroke-miterlimit="10" d="M-1 48l342.633-47.905 9.603 68.328-352.236 46.577z"/><path fill="#fff" d="M43.15 84.867c-4.743 1.061-8.687 2.143-11.834 3.241l-2.407-5.381c1.071-1.069 1.928-2.373 2.569-3.911.759-1.552 1.45-3.163 2.073-4.828-1.439.202-2.98.551-4.623 1.044l-.359.05-2.407-5.381c.711-1.018 1.267-2.28 1.669-3.785 1.531-3.895 2.776-8.082 3.738-12.557l6.235 1.293c-.874 2.49-2.117 5.82-3.732 9.992-.641 1.539-1.094 2.653-1.364 3.347l3.238-.455c.62-1.665 1.184-3.322 1.686-4.97l5.651 2.361c-2.108 5.03-4.315 10.206-6.623 15.526.72-.101 2.079-.421 4.083-.968.941-.262 1.592-.421 1.952-.472.054.387.065.913.038 1.573.132 1.825.272 3.251.417 4.281zm10.853-3.695l-2.991-4.313c.486 7.821-.874 15.112-4.079 21.874-.139-.113-.337-.217-.594-.311-1.242-1.009-2.803-2.105-4.681-3.287-.583.211-1.464.468-2.644.766-3.507 1.149-6.083 1.97-7.724 2.466l-1.796-6.256 14.298-3.982c1.439-4.542 1.781-10.374 1.025-17.5-.301-5.609-.911-11.706-1.835-18.282l6.295-.885c.616 4.385 1.238 9.688 1.869 15.91.451.596 1.186 1.479 2.207 2.648 1.608 1.879 2.784 3.292 3.53 4.237.125-1.725.06-3.491-.194-5.298-.31-4.819-.982-10.907-2.015-18.256l6.295-.885c.254 1.807.527 4.2.826 7.181.489 3.481.772 5.941.853 7.375 2.463 10.569 6.271 18.516 11.421 23.838l-3.654 6.628c-3.844-4.717-6.607-9.59-8.291-14.613-.3 5.697-1.827 11.366-4.579 17.014l-5.23-4.59c3.027-5.421 4.536-11.22 4.524-17.4l-2.836 5.921zm22.527-24.467l-.761-5.416 18.167-2.553-1.541-3.136 7.653-1.667c.523 1.11 1.002 2.358 1.443 3.742l17.448-2.452.761 5.416-43.17 6.066zm3.87 28.843l-.734-5.222 19.426-2.73-.027-.193 7.92-3.677-24.103 3.387-.707-5.028 35.255-4.955.707 5.029-7.174 3.77 12.052-1.694.734 5.222-17.088 2.401.217 1.547c.68 3.979-.947 6.312-4.886 6.998-1.781.38-4.77.868-8.966 1.458-.018-.13-.116-.378-.289-.749-.423-1.256-.991-2.689-1.705-4.296l7.015-.986c1.557-.219 2.177-1.027 1.859-2.431l-.082-.58-19.424 2.729zm3.123-15.625l-1.686-11.992 32.917-4.626 1.685 11.992-32.916 4.626zm5.317-7.848l.354 2.514 20.326-2.856-.354-2.515-20.326 2.857zm42.865 10.544l-4.268-30.365 16.728-2.351 1.604 11.411c2.02-4.752 3.374-9.479 4.06-14.18l6.072.133c-.263 1.615-.585 3.238-.966 4.87l13.67-1.921c1.987 15.894 3.364 26.548 4.125 31.963.743 5.286-1.224 8.259-5.9 8.916-2.5.481-5.071.91-7.708 1.28-.423-1.256-1.019-2.883-1.786-4.877-.193-.497-.306-.875-.343-1.135 2.416-.207 4.583-.447 6.502-.717 2.655-.24 3.714-1.834 3.18-4.786l-.109-.773-3.38 2.053c-.45-.593-.792-1.27-1.019-2.026-2.98.551-5.531 1.107-7.653 1.667-.462.198-1.164.429-2.104.69-.804.378-1.385.589-1.744.64l-2.288-3.229.027.194-4.497.632-3.343-23.79-7.915 1.112 3.371 23.983-4.316.606zm17.056 10.423l-7.58-5.641c-.735 2.6-2.755 5.645-6.053 9.134-.433-.466-1.161-1.285-2.179-2.455-.883-1.059-1.611-1.878-2.18-2.455 5.506-4.324 7.425-10.246 5.757-17.771l-1.93-13.732 4.856-.683 2.011 14.313c.381 2.708.536 5.121.466 7.232 1.602.958 3.953 2.471 7.057 4.531 1.225.882 2.171 1.538 2.844 1.967l-3.069 5.56zm4.193-34.119c-.837 2.75-1.821 5.319-2.952 7.712l-3.907-3.001 1.957 13.926c.423-.454.916-1.312 1.473-2.574.185-.42.328-.703.431-.85 1.104-3.44 1.958-7.375 2.561-11.799l5.668 1.176c-.317 1.228-.819 2.876-1.506 4.945-.986 3.427-1.739 5.899-2.259 7.418l4.802-1.069-2.712-4.944 4.072-2.347c.659 1.223 1.641 2.993 2.947 5.306 1.182 2.333 2.105 4.111 2.767 5.331-.407-3.755-1.315-10.663-2.729-20.72l-10.613 1.49zm30.567.044c-.07 2.114-.149 4.163-.237 6.147-.774-.286-2.158-.551-4.147-.798.276-4.113.089-9.807-.566-17.08l4.551-.245c.151 1.951.225 3.783.222 5.491l1.979-.278-1.386-9.864 5.936-.834 1.386 9.864 2.698-.379.381 2.708c1.993-4.092 3.193-8.6 3.602-13.523l6.153.713c-.33 2.019-.733 3.918-1.218 5.694l16.908-2.376c.514 4.532 1.258 11.133 2.233 19.804.483 5.193.836 8.561 1.054 10.108.761 5.416-1.25 8.524-6.026 9.328-1.781.379-3.812.733-6.088 1.053-.037-.26-.153-.638-.343-1.135-.668-2.143-1.236-3.574-1.704-4.297-1.545 2.057-3.476 4.433-5.786 7.125l-3.727-3.026c-.828-.672-1.44-1.113-1.836-1.319 8.178-7.066 11.867-16.919 11.07-29.563l-1.979.278c.289 9.032-1.908 16.441-6.598 22.228l-3.934-3.194c-.121.017-.232.101-.333.244-.342.18-.872.32-1.592.421l2.175 15.473-5.936.834-1.957-13.926c-2.086.82-4.343 1.729-6.771 2.727l-1.6-7.467c.581-.211 1.574-.548 2.976-1.01 1.862-.656 3.327-1.124 4.388-1.406l-1.25-8.897-2.698.377zm17.372-5.597c-1.094 2.653-2.26 5.249-3.491 7.789-.278-.223-.701-.623-1.27-1.202-1.003-1.042-1.85-1.842-2.539-2.405l-1.439.203 1.06 7.543c1.043-.409 2.095-.754 3.156-1.035.024 1.05.205 2.338.543 3.868 3.19-4.261 5.056-9.256 5.598-14.988l-1.618.227zm15.632 15.948c-.873-8.817-1.467-14.784-1.781-17.895l-1.979.278c1.138 12.463.005 21.368-3.4 26.71l4.677-.657c2.294-.19 3.254-1.641 2.874-4.349-.091-.643-.222-2.006-.391-4.087zm23.401-5.26c-1.473 2.574-3.435 5.152-5.884 7.73-1.027-2.09-2.176-4.163-3.442-6.222 2.912-2.776 5.32-6.073 7.231-9.892-.459-1.513-.957-2.889-1.498-4.128l-.458.656c-.934 1.185-2.192 2.675-3.773 4.475-1.027-2.09-2.099-4.044-3.208-5.86.305-.438.773-1.027 1.401-1.775.526-.598 1.411-1.708 2.65-3.331-1.351-1.782-3.021-3.649-5.007-5.607l4.133-4.525c1.792 1.458 3.358 3.013 4.691 4.666.082-.273.278-.63.583-1.068.862-1.699 1.468-3.032 1.822-4.003l5.4 3.186c-.084.277-.269.697-.556 1.262-1.455 2.704-2.64 4.71-3.556 6.022 2.811 4.339 4.943 12.125 6.401 23.36 1.235 7.056-.734 10.883-5.907 11.481-.943.262-2.612.564-5.009.901-.338-1.531-.929-3.552-1.77-6.062 1.216-.039 2.484-.152 3.805-.337 2.537-.224 3.507-2.003 2.918-5.341-.09-.644-.288-1.602-.588-2.876l-.379-2.712zm5.556-20.504l-.924-6.576 25.362-3.564.924 6.576-9.713 1.365 1.414 10.058 8.634-1.214.924 6.576-8.634 1.213 1.549 11.024 10.613-1.491.897 6.382-27.521 3.868-.897-6.382 10.252-1.441-1.549-11.024-8.634 1.213-.924-6.576 8.634-1.213-1.413-10.057-8.994 1.263zm50.497 23.08l-3.819-4.986c-.958 2.767-2.755 6.501-5.395 11.211-.469-.723-1.104-1.752-1.901-3.086-.918-1.316-1.612-2.337-2.081-3.061 2.452-4.289 4.14-7.944 5.062-10.967-1.333-1.652-3.412-4.254-6.232-7.802l-2.026-2.674 4.421-3.777 5.35 6.743c.394-2.422.471-5.786.232-10.091l-9.893 1.39-.897-6.382 16.009-2.25.924 6.576c.021 2.758-.029 5.462-.145 8.106 2.368-6.644 3.707-13.208 4.019-19.696l6.611.057-.705 5.424 15.829-2.225.87 6.189-1.366 9.856c-2.028-.504-4.079-.74-6.153-.713l1.251-8.065-11.692 1.643c-.747 3.393-1.603 6.867-2.571 10.42-.517-.189-1.299-.539-2.349-1.051-1.687-.681-2.916-1.168-3.689-1.454-.221 2.792-.619 5.609-1.197 8.452l6.025 7.634-4.492 4.579zm15.281-10.037c-.578 5.474-3.717 10.976-9.419 16.511-1.593-1.749-3.363-3.472-5.313-5.17 6.697-5.41 9.91-11.713 9.632-18.907-.054-.387-.077-.976-.064-1.766-.142-2.741-.338-5.013-.592-6.82l6.295-.885.391 4.087c1.885 9.073 6.933 15.396 15.14 18.976-1.491 2.443-2.641 4.71-3.447 6.796-5.821-3.127-10.027-7.399-12.623-12.822z"/></svg>