<?xml version="1.0" encoding="utf-8"?>
<!-- Generator: Adobe Illustrator 16.0.0, SVG Export Plug-In . SVG Version: 6.00 Build 0)  -->
<!DOCTYPE svg PUBLIC "-//W3C//DTD SVG 1.1//EN" "http://www.w3.org/Graphics/SVG/1.1/DTD/svg11.dtd">
<svg version="1.1" id="图层_1" xmlns="http://www.w3.org/2000/svg" xmlns:xlink="http://www.w3.org/1999/xlink" x="0px" y="0px"
	 width="640px" height="644px" viewBox="0 0 640 644" enable-background="new 0 0 640 644" xml:space="preserve">
<g>
	<polygon fill="#333261" stroke="#B2BDF9" stroke-miterlimit="10" points="-2.775,136 641.225,43 641.225,192 -2.775,283 	"/>
	<polygon fill="#2A2A59" points="118.442,265.192 -2.775,282.583 -2.775,136.5 263.059,98.167 	"/>
	<polygon fill="#2D2C5C" points="512.319,209.625 601.269,49.312 641.771,43.417 642.774,191.332 	"/>
	<polygon fill="#2D2C5C" points="-2.775,136.5 -2.775,282.583 170.439,258.001 52.385,128.583 	"/>
	<polyline fill="#2A2A59" points="557.225,55.833 641.771,43.417 642.774,157.833 	"/>
</g>
<path fill="#FFFFFF" d="M39.37,165.422l-0.274-1.95l5.872-0.825c0.321-1.054,0.551-2.127,0.691-3.221l2.198-0.025
	c-0.112,0.458-0.255,1.11-0.43,1.954c-0.112,0.458-0.185,0.783-0.215,0.977l11.828-1.662l0.274,1.95l-12.691,1.784
	c-0.425,1.574-1.11,3.375-2.059,5.401l1.709,12.162l-1.986,0.279l-1.357-9.655c-0.636,0.91-1.349,1.894-2.139,2.951
	c-0.384-0.64-0.8-1.308-1.25-2.001c2.243-2.839,3.854-5.78,4.835-8.821L39.37,165.422z M43.017,197.597l-0.261-1.857l3.626-0.51
	l-0.483-3.435c-0.345,0.049-0.835,0.118-1.468,0.207c-0.682,0.159-1.225,0.267-1.627,0.323c-0.017-0.123-0.068-0.274-0.151-0.452
	c-0.203-0.602-0.354-1.054-0.455-1.356c0.566-0.142,1.364-0.317,2.391-0.525c2.4-0.463,4.253-0.849,5.56-1.16l0.606,1.808
	c-0.509,0.135-1.191,0.295-2.046,0.477c-0.453,0.127-0.793,0.206-1.023,0.238l0.509,3.62l3.54-0.497l0.261,1.856l-3.54,0.497
	l0.535,3.806l2.936-0.413l1.357,9.656l-1.813,0.254l-0.209-1.485l-4.144,0.583l0.209,1.485l-1.813,0.256l-1.357-9.656l3.022-0.424
	l-0.535-3.807L43.017,197.597z M46.23,202.92l0.652,4.641l4.144-0.583l-0.652-4.642L46.23,202.92z M46.769,172.334l-0.274-1.95
	l5.267-0.74l-0.613-4.363l1.986-0.279l0.613,4.363l5.267-0.74l0.274,1.95l-5.267,0.74l0.861,6.127l6.389-0.898l0.261,1.857
	l-14.678,2.063l-0.261-1.856l6.302-0.886l-0.861-6.127L46.769,172.334z M56.595,236.601c-0.894-0.505-1.903-1.215-3.029-2.13
	c-0.575,1.344-1.724,2.988-3.445,4.934c-0.596-0.484-1.106-0.98-1.53-1.489c1.503-1.409,2.607-2.954,3.311-4.631
	c-0.853-0.637-2.024-1.45-3.513-2.441c0.223-2.176,0.365-4.501,0.429-6.972l-1.899,0.268l-0.274-1.95l2.159-0.303
	c0.051-0.89,0.032-2.277-0.056-4.158c0.031-0.194,0.039-0.352,0.021-0.477l2.098-0.105c0.003,0.442-0.016,1.139-0.058,2.091
	c0.032,1.07,0.026,1.859-0.019,2.369l3.799-0.533l0.287,2.042c0.229,4.133,0.021,7.256-0.621,9.365
	c1.232,0.837,2.433,1.646,3.599,2.429L56.595,236.601z M52.604,231.387c0.519-2.156,0.667-4.858,0.445-8.109l-2.245,0.315
	c-0.073,2.41-0.213,4.543-0.421,6.402L52.604,231.387L52.604,231.387z M51.63,193.735l-0.274-1.949l1.64-0.23l-0.535-3.807
	l1.899-0.267l0.535,3.807l4.835-0.68l-0.535-3.806l1.899-0.267l0.535,3.806l1.554-0.218l0.274,1.95l-1.554,0.218l2.296,16.339
	l-1.899,0.267l-0.235-1.67l-4.835,0.679l0.235,1.67l-1.9,0.268l-2.296-16.339L51.63,193.735z M55.17,193.238l0.756,5.384l4.835-0.68
	l-0.756-5.384L55.17,193.238z M56.349,228.588l-0.287-2.042l5.267-0.74l-0.431-3.063l3.104-4.223l-8.116,1.14l-0.287-2.042
	l10.62-1.493l0.313,2.228l-3.458,4.841l0.327,2.322l4.749-0.668l0.287,2.042l-4.749,0.667l0.939,6.684
	c0.335,1.973-0.476,3.097-2.432,3.372c-1.094,0.154-2.015,0.283-2.763,0.388c-0.009-0.063-0.056-0.182-0.139-0.359
	c-0.229-0.789-0.431-1.392-0.606-1.808c0.872-0.061,1.71-0.146,2.517-0.259c1.044-0.084,1.468-0.616,1.272-1.598l-0.861-6.127
	L56.349,228.588z M56.188,200.479l0.796,5.662l4.835-0.679l-0.796-5.664L56.188,200.479z M63.961,171.338l-0.235-1.671l18.909-2.657
	l0.235,1.671l-8.462,1.189l0.287,2.042l7.426-1.043l0.222,1.578l-7.425,1.043l0.274,1.95l9.325-1.311l0.248,1.764l-20.635,2.9
	l-0.249-1.764l9.325-1.311l-0.274-1.95l-7.425,1.044l-0.222-1.579l7.424-1.043l-0.287-2.042L63.961,171.338z M65.033,167.685
	l-1.227-8.727l4.749-0.667c0.121-0.396,0.248-0.949,0.383-1.663c0.022-0.254,0.03-0.414,0.021-0.476l2.271-0.13
	c-0.041,0.133-0.072,0.327-0.094,0.581c-0.152,0.59-0.292,1.052-0.422,1.385l8.979-1.262l1.227,8.727L65.033,167.685z
	 M66.027,160.35l0.274,1.95l11.915-1.675l-0.274-1.949L66.027,160.35z M66.497,163.692l0.287,2.042l11.915-1.675l-0.287-2.042
	L66.497,163.692z M69.087,207.847l-1.448-10.304l8.202-1.153l1.449,10.305l-1.9,0.266l-0.195-1.392l-4.403,0.618l0.195,1.393
	L69.087,207.847z M69.359,194.744l-1.161-8.261l14.85-2.087l1.162,8.263L69.359,194.744z M69.799,199.132l0.757,5.385l4.403-0.619
	l-0.757-5.384L69.799,199.132z M91.991,232.952c-0.129,0.333-0.21,0.598-0.241,0.791c-3.355-0.475-5.981-1.211-7.882-2.205
	c-1.775,1.575-4.118,3.071-7.029,4.49c-0.151-0.231-0.484-0.722-0.999-1.469c-0.208-0.224-0.35-0.393-0.424-0.508
	c2.782-1.085,4.983-2.341,6.602-3.769c-1.714-1.336-3.31-3.289-4.786-5.859l0.885-0.598l-0.95,0.133
	c-0.635,4.254-2.063,8.085-4.284,11.489c-0.142-0.169-0.363-0.486-0.662-0.948c-0.3-0.463-0.521-0.778-0.662-0.948
	c2.44-3.94,3.806-8.833,4.1-14.682l-5.353,0.752l-0.3-2.136l5.698-0.801c0.034-1.013,0.028-2.086-0.012-3.217l2.172-0.21
	c0.072,0.936,0.071,1.978-0.001,3.124l12.26-1.723l0.3,2.135l-12.605,1.771c-0.006,0.379-0.047,0.922-0.124,1.627
	c-0.068,0.767-0.135,1.344-0.197,1.731l11.224-1.578l0.274,1.95c-0.694,3.001-1.894,5.537-3.598,7.606
	c1.883,0.872,4.241,1.361,7.074,1.467C92.344,231.702,92.183,232.229,91.991,232.952L91.991,232.952z M70.543,188.141l0.613,4.363
	L81.863,191l-0.613-4.363L70.543,188.141z M79.793,206.343l-1.448-10.305l8.203-1.153l1.448,10.304l-1.813,0.255l-0.196-1.393
	l-4.49,0.632l0.196,1.392L79.793,206.343z M83.49,228.845c1.665-1.938,2.751-4.016,3.262-6.234l-7.684,1.08
	C80.385,225.968,81.859,227.687,83.49,228.845L83.49,228.845z M80.505,197.627l0.757,5.385l4.49-0.631l-0.757-5.383L80.505,197.627z
	 M85.789,160.79l-0.6-4.271l9.238-1.298l-1.289-2.28l2.192-0.687c0.45,0.694,0.892,1.548,1.328,2.559l-0.16,0.117l8.202-1.153
	l0.6,4.271l-1.986,0.279l-0.352-2.506l-15.454,2.172l0.352,2.507L85.789,160.79z M88.907,161.677l-0.235-1.671l13.813-1.941
	l0.235,1.671l-5.525,0.776c-0.155,0.149-0.364,0.335-0.625,0.562c-0.515,0.515-0.932,0.888-1.251,1.123
	c0.936,0.815,1.67,1.659,2.205,2.53c2.105-1.305,4.049-2.714,5.833-4.228l1.271,1.525c-1.122,0.79-2.269,1.613-3.438,2.472
	c1.404,2.896,3.546,4.772,6.426,5.629c-0.334,0.553-0.688,1.169-1.061,1.853c-3.096-1.142-5.396-3.313-6.901-6.509
	c-0.107,0.079-0.291,0.23-0.552,0.456c-0.271,0.166-0.483,0.321-0.639,0.469c0.502,1.065,0.844,2.248,1.027,3.548
	c0.448,2.777-0.445,4.354-2.681,4.731c-0.863,0.121-1.813,0.255-2.849,0.4c-0.093-0.24-0.231-0.599-0.416-1.078
	c-0.11-0.363-0.208-0.633-0.29-0.811c0.345-0.049,0.81-0.083,1.394-0.102c0.46-0.064,0.834-0.117,1.123-0.158
	c1.456-0.079,2.033-0.979,1.733-2.705c-0.078-0.557-0.182-1.078-0.308-1.566c-2.154,2.638-5.15,4.92-8.986,6.849
	c-0.318-0.587-0.697-1.197-1.138-1.829c3.833-1.547,6.976-3.82,9.431-6.816c-0.225-0.347-0.458-0.755-0.701-1.227
	c-2.139,2.321-4.805,4.242-7.994,5.762c-0.084-0.177-0.272-0.466-0.563-0.868c-0.225-0.347-0.408-0.605-0.549-0.775
	c3.159-1.327,5.841-3.124,8.046-5.391c-0.084-0.177-0.263-0.404-0.536-0.682c-0.133-0.107-0.232-0.188-0.298-0.242
	c-1.907,1.468-4.128,2.791-6.662,3.966c-0.093-0.238-0.281-0.528-0.563-0.868c-0.233-0.408-0.421-0.698-0.562-0.868
	c3.579-1.26,6.349-2.848,8.311-4.765L88.907,161.677z M96.919,199.866c0.305,2.165-0.218,3.878-1.566,5.143l-0.894-0.728
	c0.923-0.949,1.299-2.234,1.131-3.85l-1.468,0.206l-0.431-3.064l2.849-0.399C96.611,197.669,96.737,198.565,96.919,199.866
	L96.919,199.866z M97.522,221.097c0.854,5.245,0.653,9.248-0.601,12.013c-0.19-0.1-0.484-0.311-0.881-0.633
	c-0.447-0.254-0.765-0.43-0.955-0.528c0.646-1.668,0.988-3.2,1.027-4.594c0.046-1.332-0.129-3.421-0.529-6.269l-1.135-8.076
	l8.72-1.226c-0.168-0.355-0.419-0.888-0.753-1.598c-0.084-0.177-0.13-0.297-0.139-0.359l2.292-0.606
	c0.277,0.719,0.559,1.469,0.844,2.248l7.771-1.092l0.261,1.857L96.608,214.6L97.522,221.097L97.522,221.097z M97.602,218.529
	l-0.248-1.764l3.021-0.425l-0.261-1.857l1.899-0.267l0.261,1.857l5.871-0.825l-0.261-1.857l1.813-0.254l0.261,1.856l3.626-0.509
	l0.248,1.764l-3.626,0.509l0.496,3.528l-9.583,1.347l-0.496-3.528L97.602,218.529z M115.574,229.257
	c-0.103,0.519-0.2,0.88-0.288,1.082c-3.303-0.104-6.03-0.51-8.183-1.216c-1.654,1.179-4.123,2.409-7.405,3.691
	c-0.375-0.579-0.783-1.184-1.224-1.816c2.98-0.924,5.151-1.765,6.513-2.524c-1.587-0.849-3.037-1.971-4.347-3.365l-1.381,0.194
	l-0.235-1.671l13.382-1.881l0.261,1.856c-1.058,1.664-2.293,3.101-3.708,4.309c1.862,0.306,4.135,0.397,6.817,0.272
	C115.752,228.442,115.686,228.799,115.574,229.257L115.574,229.257z M102.523,217.838l0.274,1.949l5.871-0.825l-0.274-1.949
	L102.523,217.838z M106.755,227.278c1.432-1.084,2.588-2.257,3.468-3.517l-7.339,1.031
	C103.979,225.902,105.27,226.729,106.755,227.278L106.755,227.278z M116.114,164.291c-1.361,2.842-2.723,5.274-4.081,7.295
	c-0.266-0.215-0.816-0.58-1.65-1.093c-0.067-0.054-0.134-0.108-0.199-0.162c1.287-1.695,2.636-3.999,4.047-6.912L116.114,164.291
	L116.114,164.291z M110.595,162.605l-0.313-10.37c4.719-0.663,9.946-1.682,15.682-3.056l0.892,1.958
	c-5.745,1.313-10.541,2.271-14.388,2.874l0.097,6.329l5.958-0.837l-0.666-4.735l2.159-0.303l0.666,4.735l7.943-1.117l0.274,1.95
	l-7.944,1.116l0.939,6.685c0.41,2.087-0.392,3.274-2.406,3.557c-0.567,0.142-1.541,0.312-2.922,0.505
	c-0.303-0.904-0.557-1.658-0.758-2.26c0.756-0.044,1.653-0.138,2.689-0.283c0.987-0.077,1.377-0.634,1.173-1.68l-0.875-6.22
	L110.595,162.605z M116.809,199.34c-0.146,0.21-0.269,0.383-0.366,0.525l-1.716-1.558c0.546-0.707,0.72-1.552,0.524-2.535
	l-2.205-15.689l2.158-0.303l2.231,15.875c1.609-1.488,3.231-3.105,4.865-4.849c0.018,0.125,0.072,0.306,0.165,0.544
	c0.312,0.967,0.55,1.627,0.719,1.982c-1.66,1.559-3.479,3.233-5.457,5.026C117.523,198.577,117.217,198.904,116.809,199.34
	L116.809,199.34z M121.711,226.028c-0.791,1.058-1.552,2.332-2.28,3.823l-1.349-2.082c0.839-1.127,1.649-2.251,2.432-3.372
	l-0.979-6.963l-2.59,0.364l-0.3-2.135l4.576-0.644l1.252,8.913c1.412,1.695,3.297,2.377,5.658,2.045
	c3.223-0.453,6.849-0.962,10.879-1.529c-0.167,0.907-0.277,1.585-0.331,2.034c-5.007,0.704-8.582,1.174-10.719,1.412
	C125.427,228.251,123.344,227.628,121.711,226.028L121.711,226.028z M120.216,212.889c-0.367-0.516-1.11-1.42-2.23-2.716
	c-0.557-0.615-0.942-1.066-1.159-1.352l1.596-1.171c0.679,0.662,1.717,1.779,3.112,3.35c-0.133-0.107-0.025,0.036,0.324,0.427
	L120.216,212.889z M122.183,184.953c-1.267-1.905-2.547-3.713-3.844-5.424l1.583-1.264c1.479,1.749,2.841,3.515,4.09,5.294
	L122.183,184.953z M133.742,198.285c-0.972-1.062-2.34-2.446-4.106-4.155c-0.257-0.153-0.423-0.287-0.497-0.403
	c-0.824,2.073-2.828,4.31-6.012,6.714c-0.199-0.162-0.51-0.496-0.934-1.006c-0.292-0.4-0.536-0.682-0.735-0.842
	c5.465-3.292,7.66-8.145,6.583-14.558c-0.216-2.368-0.454-4.48-0.715-6.337l2.073-0.291c0.374,2.662,0.612,4.774,0.714,6.337
	c0.28,3.243,0.2,5.811-0.238,7.702c0.737,0.654,1.82,1.67,3.246,3.046c1.003,0.87,1.703,1.465,2.1,1.788L133.742,198.285z
	 M123.044,212.965l-0.274-1.95l8.548-1.201l-0.574-4.085l2.072-0.292l0.574,4.085l3.281-0.461l0.274,1.95l-3.281,0.461l1.188,8.448
	c0.437,2.274-0.438,3.564-2.625,3.872c-0.798,0.176-1.83,0.352-3.095,0.529c-0.093-0.238-0.198-0.571-0.316-0.997
	c-0.186-0.478-0.329-0.868-0.429-1.17c0.814-0.051,1.768-0.154,2.862-0.308c1.226-0.045,1.718-0.715,1.479-2.007l-1.135-8.076
	L123.044,212.965z M129.461,169.042c-2.248-2.208-4.218-4.108-5.908-5.702l1.471-1.438c0.472,0.439,1.152,1.101,2.04,1.985
	c1.881,1.693,3.225,2.893,4.028,3.6L129.461,169.042z M128.193,219.531c-0.623-0.669-1.581-1.638-2.874-2.909
	c-0.548-0.553-0.959-0.969-1.232-1.247l1.397-1.333c1.608,1.416,3.025,2.731,4.253,3.946L128.193,219.531z M134.888,169.613
	l-2.975-21.167l18.648-2.621l2.975,21.167l-2.072,0.291l-0.156-1.114l-14.591,2.051l0.157,1.114L134.888,169.613z M134.173,150.117
	l2.31,16.432l14.59-2.051l-2.31-16.432L134.173,150.117z M136.152,155.424l-0.261-1.857l7.684-1.08l-0.378-2.692l1.899-0.267
	l0.378,2.692l2.936-0.413l0.261,1.857l-2.936,0.412l0.939,6.685c0.394,1.965-0.359,3.08-2.259,3.347
	c-0.23,0.033-0.634,0.089-1.209,0.17c-0.567,0.144-0.995,0.235-1.282,0.275c-0.035-0.247-0.141-0.579-0.316-0.997
	c-0.119-0.424-0.22-0.727-0.303-0.904c0.748-0.105,1.468-0.207,2.159-0.303c1.045-0.083,1.468-0.616,1.272-1.599l-0.783-5.57
	c-1.048,2.988-3.06,5.795-6.035,8.422c-0.274-0.277-0.722-0.751-1.344-1.42c-0.066-0.053-0.133-0.107-0.199-0.162
	c2.757-2.092,4.783-4.585,6.079-7.481L136.152,155.424z M149.863,192.802c-1.652,1.62-3.775,3.212-6.372,4.776
	c-0.433-0.57-0.932-1.194-1.496-1.871c2.469-1.23,4.475-2.617,6.019-4.16c-2.187-1.775-4.054-4.195-5.599-7.26
	c0.416,5.054-0.677,9.595-3.28,13.621c-0.199-0.162-0.497-0.404-0.895-0.728c-0.406-0.384-0.708-0.657-0.907-0.819
	c2.606-3.584,3.554-8.323,2.843-14.22l-0.297-3.367l-3.626,0.51l-0.274-1.95l15.713-2.208l0.3,2.135l-1.744,4.505l4.317-0.606
	l0.287,2.042c-0.89,3.282-2.075,5.91-3.558,7.884c1.966,1.049,4.285,1.67,6.953,1.863c-0.09,0.202-0.215,0.566-0.375,1.094
	c-0.21,0.598-0.383,1.03-0.521,1.304C154.515,194.798,152.019,193.95,149.863,192.802L149.863,192.802z M149.274,209.94
	c-1.914-1.498-3.486-2.665-4.718-3.502c-0.642,1.29-1.405,2.533-2.293,3.73l5.785-0.813l0.234,1.671l-2.331,0.327l0.339,2.414
	l3.799-0.533l0.235,1.671l-3.799,0.534l0.339,2.414l3.108-0.437l1.096,7.798l-1.727,0.243l-0.157-1.114l-4.749,0.667l0.156,1.114
	l-1.727,0.242l-1.096-7.798l3.281-0.461l-0.339-2.414l-4.058,0.57l-0.235-1.671l4.058-0.57l-0.339-2.414l-2.331,0.327l-0.144-1.021
	c-0.146,0.21-0.4,0.499-0.759,0.864c-0.31,0.297-0.515,0.515-0.612,0.654c-0.326-0.648-0.672-1.231-1.038-1.748
	c2.019-1.924,3.486-4.213,4.405-6.867l1.938,0.011c-0.121,0.396-0.25,0.73-0.388,1.001c0.834,0.514,1.936,1.243,3.301,2.187
	c0.711,0.468,1.261,0.833,1.65,1.094L149.274,209.94z M141.951,178.482c0.087,0.619,0.155,1.525,0.206,2.716
	c0.002-0.819,0.015-0.727,0.04,0.279l0.439-0.63c2.123,4.246,4.396,7.272,6.822,9.076c1.394-1.772,2.415-3.904,3.063-6.395
	l-4.49,0.631l-0.287-2.042l1.891-4.715L141.951,178.482z M143.732,219.997l0.482,3.435l4.749-0.667l-0.483-3.436L143.732,219.997z
	 M155.386,224.607c-0.863,0.121-1.641,0.23-2.331,0.328c-0.145-0.611-0.355-1.276-0.632-1.994c0.526-0.012,1.192-0.073,1.999-0.186
	c1.045-0.085,1.477-0.555,1.298-1.414l-1.07-7.612l-3.799,0.534l-0.274-1.95l4.49-0.631c-1.277-1.146-2.573-2.226-3.889-3.24
	l1.113-1.482l2.385,1.937l2.466-3.754l-7.167,1.007l-0.261-1.856l9.152-1.286l0.313,2.228l-3.186,4.896l0.484,0.311l-0.806,1.155
	l5.181-0.728l0.222,1.578l-0.263,4.392l-1.667,0.045l0.169-3.811l-2.849,0.4l1.148,8.17
	C157.911,223.368,157.169,224.356,155.386,224.607L155.386,224.607z M154.554,148.01l-0.274-1.95l7.167-1.007l0.274,1.95
	l-2.677,0.376l0.796,5.663l2.418-0.34l0.274,1.95l-2.417,0.34l0.796,5.663c0.279-0.102,0.702-0.225,1.269-0.368
	c0.73-0.229,1.235-0.394,1.515-0.497c0.148,1.053,0.272,1.729,0.374,2.03c-1.683,0.553-4.107,1.272-7.27,2.158l-0.533-1.913
	c0.337-0.109,0.957-0.292,1.86-0.545c0.394-0.118,0.702-0.225,0.924-0.319l-0.835-5.941l-2.331,0.328l-0.274-1.95l2.332-0.328
	l-0.796-5.663L154.554,148.01z M160.224,179.605c-0.344-0.771-0.846-1.837-1.506-3.197c-0.186-0.478-0.357-0.864-0.515-1.158
	l1.157-0.541c0.074,0.117,0.191,0.321,0.35,0.613c0.886,1.707,1.467,2.918,1.744,3.637L160.224,179.605z M166.995,188.31
	c-0.424-0.509-1.084-1.235-1.98-2.183c-0.199-0.162-0.336-0.299-0.41-0.416l1.2,8.541l-1.727,0.243l-1.201-8.541
	c-0.395,2.202-1.001,4.15-1.82,5.842c-0.11-0.363-0.333-0.9-0.667-1.611c-0.102-0.301-0.19-0.509-0.264-0.625
	c1.04-1.787,1.762-4.16,2.169-7.121l-2.85,0.4l-0.248-1.764l2.936-0.413l-1.148-8.17l1.727-0.243l1.148,8.17l2.59-0.364l0.248,1.764
	l-2.59,0.364l0.365,2.6l0.759-0.864c1.368,1.386,2.36,2.383,2.974,2.99L166.995,188.31z M163.964,157.953l-1.931-13.74l11.31-1.589
	l1.905,13.554l-1.9,0.267l-1.631-11.605l-7.425,1.043l1.657,11.791L163.964,157.953z M173.033,163.589
	c-1.727,0.243-2.716-0.534-2.968-2.328l-0.522-3.713c-0.36,2.45-2.16,5.099-5.397,7.954c-0.134-0.108-0.397-0.323-0.795-0.646
	c-0.407-0.385-0.709-0.658-0.908-0.819c2.537-1.997,4.128-3.83,4.774-5.5c0.72-1.552,0.92-3.883,0.602-6.995
	c-0.1-1.122-0.27-2.549-0.514-4.283l1.986-0.279c0.165,1.176,0.286,2.454,0.362,3.831c0.197,2.245,0.242,3.816,0.134,4.715
	l1.381-0.194l0.744,5.292c0.064,0.875,0.523,1.219,1.378,1.037l0.69-0.097c0.872-0.061,1.309-0.499,1.312-1.32
	c0.004-0.379-0.029-1.038-0.102-1.974c0.026,0.186,0.02-0.065-0.018-0.755c0.229-0.032,0.864,0.101,1.905,0.395
	c0.069,0.496,0.101,1.344,0.093,2.543c0.051-0.891,0.034-0.793-0.047,0.291c-0.013,1.579-0.887,2.459-2.623,2.641L173.033,163.589z
	 M168.179,219.875c-1.182,1.617-1.959,2.768-2.333,3.452l-1.276-2.188c0.367-0.305,0.898-0.915,1.591-1.833
	c0.341-0.489,0.586-0.84,0.733-1.05l-1.018-7.241l-2.504,0.352l-0.287-2.042l4.49-0.631l1.292,9.191
	c1.138,1.418,2.917,1.957,5.334,1.617c1.101-0.093,3.519-0.433,7.252-1.02c1.841-0.259,3.194-0.449,4.058-0.57
	c-0.193,0.721-0.299,1.43-0.317,2.127c-5.181,0.728-8.927,1.222-11.237,1.485C171.597,221.855,169.67,221.305,168.179,219.875
	L168.179,219.875z M166.3,206.505c-0.142-0.169-0.324-0.427-0.549-0.774c-1.262-1.463-2.143-2.506-2.641-3.132l1.497-1.251
	c1.526,1.679,2.643,2.942,3.35,3.789L166.3,206.505z M166.233,174.122c-0.252,1.55-0.557,3.14-0.915,4.768l-1.36-0.282
	c0.416-1.635,0.72-3.226,0.915-4.768L166.233,174.122L166.233,174.122z M166.809,175.082l-0.209-1.485l4.835-0.68l-0.274-1.949
	l1.899-0.267l0.274,1.95l5.353-0.752l0.209,1.485l-5.353,0.752l0.208,1.485l4.835-0.68l0.196,1.393l-4.835,0.68l0.222,1.578
	l5.699-0.801l0.208,1.485l-12.778,1.796l-0.208-1.485l5.18-0.728l-0.222-1.578l-4.403,0.619l-0.196-1.393l4.403-0.619l-0.208-1.485
	L166.809,175.082z M169.863,193.682l-1.579-11.233l10.792-1.517l1.174,8.355c0.3,1.724-0.407,2.739-2.125,3.044
	c-0.23,0.033-0.604,0.085-1.123,0.158c-0.682,0.158-1.225,0.267-1.627,0.323c-0.194-0.541-0.425-1.14-0.693-1.796
	c0.583-0.02,1.423-0.105,2.517-0.259c0.987-0.077,1.391-0.543,1.212-1.401l-0.104-0.743l-7.166,1.007l0.535,3.807L169.863,193.682z
	 M169.065,208.011l-0.248-1.764l6.217-0.874l-0.378-2.692c-1.595,0.352-3.313,0.655-5.154,0.914l-0.52-1.82
	c3.445-0.546,7.538-1.279,12.281-2.199l0.606,1.808c-1.603,0.289-3.345,0.628-5.227,1.019l0.378,2.692l6.303-0.886l0.248,1.764
	l-6.303,0.886l0.392,2.785l4.835-0.68l1.031,7.334l-11.569,1.626l-1.031-7.334l4.749-0.667l-0.392-2.786L169.065,208.011z
	 M170.292,183.586l0.235,1.671l7.167-1.007l-0.235-1.671L170.292,183.586z M170.723,186.65l0.222,1.578l7.167-1.007l-0.222-1.579
	L170.723,186.65z M173.158,212.074l0.522,3.714l7.598-1.068l-0.521-3.714L173.158,212.074z M178.445,149.005l-0.3-2.135l2.417-0.34
	l-0.809-5.756l1.899-0.267l0.809,5.756l2.245-0.316l0.3,2.135l-2.245,0.316l1.031,7.334c0.647-0.406,1.299-0.782,1.955-1.127
	c0.096,0.682,0.239,1.292,0.434,1.833c1.288-1.695,2.049-3.791,2.286-6.286l-2.59,0.364l-0.287-2.042l7.631-6.469l-7.771,1.092
	l-0.261-1.856l10.965-1.541l0.3,2.135l-7.558,6.364l9.498-1.335l0.933,9.147c0.374,2.66-0.509,4.11-2.646,4.348l-2.577,0.457
	c-0.093-0.24-0.244-0.692-0.455-1.356c-0.11-0.363-0.173-0.607-0.191-0.73c0.527-0.012,1.308-0.089,2.344-0.235
	c1.283-0.055,1.845-0.858,1.686-2.415c-0.048-0.75-0.199-2.244-0.454-4.48c-0.109-1.183-0.201-2.055-0.279-2.611l-2.245,0.315
	c0.058,5.42-1.348,9.624-4.214,12.615c-0.473-0.439-1.036-0.896-1.689-1.372c2.679-2.649,4.044-6.311,4.091-10.989l-2.417,0.34
	c-0.16,3.873-1.523,7.125-4.087,9.757c-0.125-0.044-0.356-0.234-0.696-0.565c-0.397-0.323-0.696-0.565-0.895-0.727
	c0.466-0.444,0.894-0.945,1.285-1.506c-0.927,0.509-2.313,1.304-4.156,2.383c-0.696,0.477-1.208,0.801-1.536,0.973l-0.818-2.063
	l2.619-1.409l-1.135-8.077L178.445,149.005z M185.633,174.424c-1.387-1.509-2.519-2.675-3.397-3.499l1.484-1.345
	c0.208,0.224,0.542,0.524,1.007,0.9c1.161,1.162,1.982,1.994,2.463,2.494L185.633,174.424z M187.279,188.015
	c-0.915,1.012-1.672,2.096-2.272,3.254l-1.263-2.095c0.155-0.147,0.408-0.436,0.759-0.864c0.692-0.917,1.19-1.555,1.492-1.914
	l-1.018-7.241l-2.331,0.328l-0.287-2.042l4.317-0.607l1.279,9.098c1.213,1.534,2.942,2.143,5.187,1.827
	c1.274-0.117,4.009-0.501,8.202-1.153c1.611-0.227,2.733-0.384,3.367-0.473c-0.126,0.775-0.231,1.484-0.317,2.127
	c-5.871,0.825-9.732,1.335-11.582,1.533C190.509,190.117,188.665,189.524,187.279,188.015L187.279,188.015z M190.826,173.789
	c-0.215,0.977-0.438,1.893-0.67,2.745c-0.182-0.037-0.488-0.121-0.916-0.25c-0.488-0.121-0.821-0.2-1.002-0.238
	c0.788-2.319,1.291-4.598,1.504-6.838l1.865,0.117c-0.023,0.256-0.081,0.674-0.176,1.255c-0.038,0.573-0.091,1.023-0.163,1.348
	l2.763-0.388l-0.521-3.713l1.986-0.279l0.521,3.713l5.18-0.728l0.248,1.764l-5.18,0.728l0.509,3.621l6.043-0.85l0.248,1.764
	l-4.575,0.643l0.587,4.178c0.073,0.937,0.479,1.322,1.218,1.154l0.518-0.073c0.7-0.035,1.045-0.493,1.039-1.376
	c0.019-0.696,0.001-1.451-0.054-2.265c0.61,0.167,1.188,0.307,1.732,0.419c0.055,0.813,0.078,1.599,0.067,2.357
	c-0.022,1.518-0.723,2.374-2.104,2.568l-1.64,0.23c-1.603,0.289-2.511-0.53-2.722-2.458l-0.626-4.456l-2.59,0.364
	c0.553,3.52-0.381,6.271-2.802,8.251c-0.531-0.43-1.093-0.888-1.689-1.372c2.235-1.639,3.099-3.843,2.592-6.612l-3.626,0.51
	l-0.248-1.764l6.648-0.934l-0.509-3.621L190.826,173.789L190.826,173.789z M189.941,213.879l1.139-1.296l5.233,4.661l-1.199,1.494
	L189.941,213.879z M204.407,142.138c-0.755-0.777-1.832-1.762-3.232-2.954l1.397-1.333c1.325,1.077,2.422,1.996,3.293,2.756
	L204.407,142.138z M204.664,148.35c-1.02-0.993-2.126-1.973-3.319-2.941l1.385-1.426c1.126,0.916,2.256,1.86,3.392,2.837
	L204.664,148.35z M205.634,159.006c0.039-0.133,0.032,0.026-0.021,0.477l-2.077-0.371c0.438-3.153,0.789-6.075,1.058-8.764
	c0.182,0.038,0.515,0.117,1.002,0.238c0.419,0.068,0.754,0.147,1.002,0.238C206.394,152.305,206.072,155.032,205.634,159.006
	L205.634,159.006z M206.502,143.263l-0.548-3.899l6.476-0.91l-0.831-2.156l2.046-0.477l0.857,2.341l6.389-0.898l0.548,3.899
	l-1.813,0.255l-0.3-2.136l-11.311,1.59l0.3,2.135L206.502,143.263z M209.47,188.208l-2.714-19.311l5.698-0.801
	c0.014-0.317,0.068-0.767,0.163-1.348c0.068-0.767,0.109-1.308,0.124-1.627l2.357-0.142c-0.006,0.379-0.072,0.957-0.197,1.731
	c-0.112,0.458-0.18,0.815-0.202,1.07l8.807-1.238l2.714,19.311l-2.159,0.303l-0.208-1.485l-12.52,1.759l0.209,1.485L209.47,188.208z
	 M212.988,156.836c-1.894,1.149-3.274,1.975-4.142,2.476c-0.358-0.456-0.729-1.003-1.111-1.643c2.313-1.083,4.251-2.112,5.817-3.09
	l1.146,1.259C214.32,156.081,213.75,156.413,212.988,156.836L212.988,156.836z M208.818,144.074l-0.222-1.578l10.706-1.505
	l0.222,1.579l-4.49,0.631l0.248,1.764l5.612-0.789l1.227,8.727l-13.124,1.845l-1.227-8.727l5.612-0.789l-0.248-1.764
	L208.818,144.074z M209.103,170.557l0.496,3.528l12.52-1.76l-0.496-3.528L209.103,170.557z M211.144,199.444
	c0.065,2.137,0.073,4.282,0.024,6.435c-0.479-0.059-0.948-0.057-1.408,0.008c0.032-2.277,0.024-4.42-0.024-6.434L211.144,199.444
	L211.144,199.444z M209.846,175.848l0.496,3.528l12.519-1.759l-0.496-3.528L209.846,175.848z M209.905,147.424l0.274,1.95
	l3.713-0.522l-0.274-1.95L209.905,147.424z M210.388,150.859l0.274,1.95l3.712-0.522l-0.274-1.95L210.388,150.859z M210.59,181.14
	l0.496,3.528l12.519-1.76l-0.496-3.528L210.59,181.14z M215.8,201.251c-0.133-0.107-0.328-0.238-0.583-0.392
	c-0.522-0.367-0.944-0.656-1.266-0.863l2.296,16.339l-1.899,0.267l-3.105-22.095l1.899-0.267l0.548,3.899l0.121-0.396
	c0.313,0.146,0.76,0.399,1.339,0.759c0.57,0.298,1.016,0.552,1.339,0.758L215.8,201.251z M219.316,146.101l-3.799,0.534l0.274,1.95
	l3.799-0.534L219.316,146.101z M221.529,196.281c-1.604,0.289-3.289,0.621-5.055,0.995c-0.009-0.061-0.056-0.182-0.139-0.36
	c-0.154-0.672-0.314-1.186-0.481-1.542c3.954-0.681,8.034-1.508,12.242-2.478l0.619,1.901c-0.625,0.151-1.537,0.343-2.736,0.574
	c-1.077,0.278-1.903,0.457-2.478,0.537l0.509,3.621l5.958-0.837l0.274,1.95l-5.958,0.837l0.509,3.621l4.835-0.679l1.383,9.841
	l-1.986,0.279l-0.183-1.3l-7.771,1.092l0.183,1.3l-1.899,0.267l-1.383-9.841l4.835-0.679l-0.509-3.621l-5.785,0.813l-0.274-1.95
	l5.785-0.813L221.529,196.281L221.529,196.281z M216,150.07l0.274,1.949l3.799-0.534l-0.274-1.95L216,150.07z M223.338,157.181
	c-2.384-0.675-4.517-1.228-6.396-1.657l0.668-1.514c0.124,0.046,0.333,0.081,0.63,0.101c2.587,0.457,4.492,0.851,5.713,1.185
	L223.338,157.181z M220.133,207.648l0.691,4.92l7.771-1.092l-0.691-4.92L220.133,207.648z M246.089,146.313
	c-0.258,0.667-0.4,1.13-0.422,1.384c-2.261-0.629-4.111-1.472-5.551-2.533l0.157,1.114l-3.367,0.474
	c0.035,0.248,0.048,0.561,0.044,0.94c0.052,0.371,0.091,0.65,0.118,0.835l6.821-0.958l0.235,1.671l-7.252,1.02l-0.034,0.383
	c1.566,0.286,4.163,0.804,7.791,1.556c0.362,0.075,0.635,0.131,0.816,0.169l-0.615,1.885c-0.488-0.121-1.279-0.326-2.375-0.613
	c-2.747-0.75-4.78-1.222-6.098-1.415c-0.779,1.561-3.274,3.016-7.487,4.366c-0.075-0.117-0.188-0.291-0.337-0.521
	c-0.385-0.641-0.646-1.045-0.787-1.214c4.623-1.345,7.033-2.788,7.228-4.33l-6.389,0.898l-0.235-1.671l6.734-0.947
	c0.045-0.511,0.021-1.106-0.075-1.788l-3.799,0.534l-0.157-1.114c-1.159,1.363-2.605,2.766-4.339,4.208
	c-0.3-0.462-0.732-1.033-1.297-1.711c2.194-1.506,3.82-3.093,4.878-4.756l-5.18,0.728l-0.235-1.671l6.562-0.922
	c0.267-0.605,0.504-1.207,0.715-1.805l-5.871,0.825l-0.235-1.671l6.476-0.91c0.031-0.193,0.094-0.581,0.189-1.163
	c0.022-0.254,0.054-0.448,0.094-0.581l-7.771,1.092l-0.235-1.671l8.116-1.141c0.028-0.634,0.019-1.328-0.028-2.079l2.072-0.291
	c0.046,0.751,0.027,1.449-0.059,2.091l8.72-1.226l0.235,1.671l-8.979,1.262c-0.041,0.133-0.073,0.327-0.095,0.582
	c-0.094,0.581-0.158,0.969-0.188,1.163l8.72-1.226l0.235,1.671l-9.238,1.298c-0.152,0.589-0.362,1.187-0.629,1.792l11.742-1.65
	l0.235,1.671l-5.612,0.789c1.426,1.378,3.5,2.348,6.22,2.913C246.229,145.853,246.169,146.05,246.089,146.313L246.089,146.313z
	 M228.735,170.637l-0.287-2.042l2.504-0.352l-0.613-4.364l2.072-0.291l0.613,4.363l3.885-0.546l-0.757-5.385l1.986-0.279
	l0.757,5.384l5.18-0.728l-0.757-5.384l1.986-0.279l0.757,5.385l2.849-0.4l0.287,2.042l-2.849,0.401l1.122,7.984l-9.152,1.286
	l-1.122-7.984l-3.885,0.546l1.644,11.698l15.541-2.185l0.274,1.95l-17.613,2.476l-1.918-13.647L228.735,170.637z M239.62,144.761
	c-0.588-0.422-1.165-0.972-1.729-1.65l-5.094,0.716c-0.366,0.747-0.825,1.441-1.379,2.087L239.62,144.761z M232.425,195.032
	l-0.209-1.485l3.454-0.485l-0.287-2.042l1.813-0.255l0.287,2.042l3.454-0.485l0.209,1.485l-3.454,0.485l0.195,1.393l3.022-0.425
	l0.196,1.393l-3.022,0.425l0.222,1.578l3.712-0.522l0.208,1.485l-9.411,1.323l-0.209-1.485l3.885-0.546l-0.222-1.578l-3.022,0.424
	l-0.196-1.393l3.022-0.424l-0.196-1.393L232.425,195.032z M235.639,213.515l-1.605-11.419l7.511-1.056l1.24,8.819
	c0.217,1.546-0.36,2.449-1.733,2.705c-0.51,0.134-1.139,0.254-1.886,0.36c-0.137-0.549-0.334-1.122-0.593-1.715
	c0.229-0.032,0.579-0.051,1.049-0.053c0.288-0.04,0.488-0.068,0.604-0.084c0.69-0.097,0.992-0.456,0.905-1.074l-0.183-1.3
	l-4.144,0.583l0.561,3.992L235.639,213.515z M235.969,203.338l0.222,1.578l4.145-0.583l-0.222-1.578L235.969,203.338z
	 M236.387,206.309l0.222,1.578l4.145-0.583l-0.222-1.578L236.387,206.309z M239.182,169.169l0.835,5.942l5.18-0.728l-0.835-5.942
	L239.182,169.169z M242.764,202.194l-0.235-1.671l4.058-0.57l-0.353-2.506l-3.453,0.485l-0.235-1.671
	c-0.142-0.169-0.374-0.357-0.696-0.565c-0.133-0.107-0.233-0.188-0.298-0.242c1.164-1.74,2.034-3.694,2.61-5.857l1.939,0.011
	c-0.258,0.668-0.464,1.296-0.616,1.885l4.403-0.619l0.222,1.578l-1.348,2.935l3.194-0.449l0.587,4.178l1.295-0.182l0.235,1.671
	l-1.295,0.182l0.77,5.478l-1.64,0.23l-0.17-1.207l-2.59,0.364l0.443,3.157c0.283,1.601-0.405,2.549-2.065,2.846
	c-0.807,0.113-1.554,0.219-2.245,0.315c-0.194-0.541-0.424-1.14-0.692-1.796c0.805-0.113,1.524-0.214,2.158-0.303
	c0.863-0.122,1.213-0.549,1.052-1.284l-0.378-2.692l-3.54,0.498l-0.248-1.764l3.54-0.498l-0.352-2.507L242.764,202.194z
	 M248.138,192.824l-3.454,0.485c-0.331,0.993-0.784,1.941-1.361,2.842l3.54-0.498L248.138,192.824z M250.552,196.839l-2.59,0.364
	l0.352,2.507l2.59-0.364L250.552,196.839z M250.548,153.071l-2.558-18.196l2.332-0.328c0.022-0.254,0.06-0.607,0.115-1.058
	c0.134-0.712,0.21-1.641,0.226-2.779l2.21,0.068c-0.132,1.154-0.291,2.315-0.48,3.478l3.886-0.546l2.531,18.01l-1.899,0.267
	l-0.248-1.764l-4.404,0.619l0.274,1.949L250.548,153.071z M248.548,201.381l0.353,2.507l2.59-0.364l-0.353-2.506L248.548,201.381z
	 M250.263,136.638l0.718,5.106l4.403-0.619l-0.718-5.106L250.263,136.638z M251.268,143.787l0.744,5.292l4.404-0.619l-0.745-5.292
	L251.268,143.787z M266.999,179.932l-1.005-7.148l1.727-0.243c-1.734-0.639-3.367-1.609-4.899-2.909l0.246-0.129l-0.259,0.037
	c-1.076,1.54-2.406,2.927-3.994,4.159l1.641-0.23c0.078,0.557,0.129,1.34,0.153,2.345c-0.008-0.061,0,0,0.026,0.186
	c0.048,2.014-1.037,3.9-3.254,5.664c-0.579-0.361-1.192-0.748-1.837-1.162c2.146-1.438,3.152-2.84,3.019-4.211
	c0.013-0.317,0.002-0.82-0.036-1.509c0.013-0.317,0.008-0.569-0.018-0.755c-1.317,1.069-2.85,2.073-4.596,3.012
	c-0.075-0.115-0.188-0.289-0.337-0.521c-0.142-0.169-0.404-0.573-0.787-1.215c3.181-1.583,5.658-3.382,7.43-5.399l-5.958,0.837
	l-1.435-10.212l16.923-2.378l1.435,10.212l-6.043,0.85c2.01,1.359,4.864,2.251,8.564,2.678c-0.281,0.924-0.473,1.645-0.576,2.164
	c-1.93-0.359-3.636-0.814-5.122-1.363l0.979,6.963L266.999,179.932z M255.059,162.013l0.352,2.507l5.526-0.777l-0.353-2.506
	L255.059,162.013z M255.646,166.191l0.353,2.507l5.526-0.777l-0.352-2.506L255.646,166.191z M258.566,210.113l-2.558-18.196
	l2.332-0.328c0.022-0.254,0.06-0.607,0.115-1.058c0.134-0.712,0.21-1.639,0.226-2.777l2.21,0.068
	c-0.132,1.154-0.291,2.313-0.48,3.476l3.885-0.546l2.531,18.01l-1.899,0.268l-0.248-1.764l-4.403,0.619l0.274,1.95L258.566,210.113z
	 M265.805,150.737c-1.152,0.162-2.361,0.332-3.626,0.51c-0.154-0.674-0.402-1.396-0.745-2.167c0.756-0.044,1.883-0.17,3.38-0.38
	c1.628-0.103,2.326-0.99,2.091-2.661c-0.077-1.377-0.399-4.299-0.968-8.763c-0.126-1.308-0.227-2.24-0.305-2.797l-5.181,0.728
	c-0.152,0.589-0.413,1.447-0.783,2.572c-0.161,0.528-0.281,0.924-0.361,1.187c-0.57-0.298-1.199-0.589-1.883-0.871
	c1.007-2.854,1.689-5.729,2.046-8.621l2.051,0.185c-0.063,0.387-0.162,0.938-0.296,1.651c-0.126,0.777-0.221,1.358-0.283,1.746
	l6.389-0.898c0.557,3.961,1.093,8.62,1.612,13.974C269.317,148.791,268.27,150.327,265.805,150.737L265.805,150.737z
	 M258.282,193.68l0.718,5.106l4.403-0.619l-0.718-5.106L258.282,193.68z M259.287,200.828l0.744,5.292l4.403-0.619l-0.744-5.292
	L259.287,200.828z M263.264,144.562c-0.349-0.392-0.872-0.981-1.569-1.768c-0.989-1.186-1.761-2.086-2.317-2.704l1.397-1.333
	c0.489,0.563,1.215,1.344,2.178,2.345c0.821,0.831,1.444,1.501,1.867,2.009L263.264,144.562z M268.01,160.193l-5.526,0.776
	l0.353,2.507l5.525-0.777L268.01,160.193z M263.072,165.147l0.352,2.507l5.526-0.777l-0.353-2.506L263.072,165.147z
	 M273.822,207.779c-1.152,0.162-2.361,0.332-3.626,0.51c-0.154-0.674-0.402-1.396-0.745-2.167c0.756-0.044,1.883-0.17,3.38-0.38
	c1.628-0.103,2.326-0.99,2.091-2.661c-0.077-1.377-0.399-4.299-0.968-8.763c-0.126-1.308-0.227-2.24-0.305-2.797l-5.181,0.728
	c-0.152,0.589-0.413,1.447-0.783,2.571c-0.161,0.529-0.281,0.924-0.361,1.187c-0.57-0.298-1.199-0.589-1.883-0.872
	c1.007-2.854,1.689-5.728,2.046-8.618l2.051,0.185c-0.063,0.388-0.162,0.938-0.296,1.651c-0.126,0.775-0.221,1.356-0.283,1.744
	l6.389-0.898c0.557,3.962,1.093,8.62,1.612,13.975C277.334,205.833,276.288,207.369,273.822,207.779L273.822,207.779z
	 M271.281,201.604c-0.349-0.392-0.872-0.981-1.569-1.768c-0.989-1.187-1.761-2.087-2.317-2.704l1.397-1.333
	c0.489,0.563,1.215,1.344,2.178,2.344c0.821,0.832,1.444,1.501,1.867,2.01L271.281,201.604z M274.304,141.21l-0.952-6.777
	c-0.472,0.824-1,1.655-1.586,2.495c-0.277-0.719-0.607-1.397-0.991-2.038c1.505-2.231,2.585-4.782,3.239-7.652l1.917,0.488
	c-0.393,1.381-0.779,2.604-1.158,3.666l1.344,9.564L274.304,141.21z M275.787,142.99c-0.306,2-0.729,3.795-1.268,5.385
	c-0.125-0.046-0.277-0.088-0.458-0.125c-0.62-0.229-1.077-0.354-1.373-0.375c0.628-1.792,1.026-3.552,1.195-5.28L275.787,142.99
	L275.787,142.99z M285.95,165.151c-2.252,1.516-5.447,3.006-9.584,4.471c-0.101-0.301-0.339-0.741-0.714-1.32
	c-0.101-0.301-0.189-0.509-0.264-0.626c3.548-1.066,6.32-2.213,8.32-3.441c-1.512-0.734-2.92-1.767-4.221-3.099
	c-0.765,1.243-1.681,2.446-2.751,3.605c-0.49-0.562-0.942-1.066-1.357-1.514c2.148-2.257,3.812-4.827,4.991-7.707l2.211,0.068
	c-0.308,0.739-0.652,1.417-1.034,2.039l10.706-1.505l0.3,2.135c-1.392,2.216-2.93,4.009-4.615,5.382
	c1.897,0.554,4.656,0.766,8.278,0.635c-0.073,0.327-0.185,0.783-0.335,1.373c-0.064,0.388-0.111,0.678-0.142,0.872
	C291.681,166.46,288.417,166.003,285.95,165.151L285.95,165.151z M277.881,139.098l-1.344-9.564l1.727-0.243l1.344,9.564
	L277.881,139.098z M281.063,148.591c-1.889,0.328-2.974-0.498-3.252-2.478l-0.574-4.085l1.986-0.279l0.496,3.528
	c0.09,1.062,0.734,1.474,1.934,1.243l3.108-0.437c1.217-0.109,1.856-0.576,1.916-1.405c0.001-0.82,0.012-1.579,0.032-2.277
	c0.676,0.222,1.344,0.379,2.004,0.476c-0.034,1.015-0.093,1.844-0.179,2.486c-0.136,1.534-1.159,2.402-3.067,2.608L281.063,148.591z
	 M280.049,178.287l-1.265-9.005l14.763-2.075l1.266,9.005l-1.986,0.279l-0.183-1.3l-10.792,1.517l0.183,1.3L280.049,178.287z
	 M283.869,144.126c-0.747-0.714-1.927-1.59-3.539-2.627l1.211-1.401c-0.423-0.508-0.852-1.047-1.284-1.618
	c1.878-0.832,3.308-1.727,4.289-2.686c-0.946-0.876-1.781-2.022-2.508-3.435c-0.375,0.684-0.771,1.403-1.194,2.156
	c-0.142-0.169-0.382-0.419-0.722-0.75c-0.339-0.331-0.58-0.581-0.72-0.75c1.521-2.109,2.492-4.391,2.91-6.849l1.964,0.197
	c-0.09,0.202-0.189,0.532-0.301,0.989c-0.17,0.466-0.295,0.832-0.375,1.094l6.735-0.946l0.248,1.764l-1.468,0.206
	c-0.286,2.567-0.917,4.549-1.894,5.948c1.322,0.635,2.972,1.097,4.949,1.387c-0.04,0.133-0.101,0.331-0.181,0.594
	c-0.138,0.272-0.308,0.738-0.508,1.396c-2.235-0.443-4.025-1.075-5.373-1.896c-1.069,1.161-2.564,2.223-4.483,3.186
	c1.489,0.99,2.66,1.804,3.513,2.441L283.869,144.126z M284.07,189.391c-0.581,1.724-1.268,3.303-2.063,4.74
	c-0.596-0.484-1.238-0.867-1.922-1.15c1.666-2.758,2.693-5.68,3.082-8.764l2.284-0.037c-0.206,1.04-0.421,2.016-0.645,2.931
	l12.778-1.796l0.3,2.135l-7.166,1.007l0.874,6.22l8.807-1.238l0.3,2.135l-8.807,1.238l1.213,8.634l-2.159,0.303l-1.213-8.634
	l-9.929,1.396l-0.3-2.135l9.929-1.396l-0.875-6.22L284.07,189.391L284.07,189.391z M285.637,162.922
	c1.547-1.1,3.009-2.6,4.386-4.498l-9.325,1.31C282.438,161.258,284.085,162.321,285.637,162.922L285.637,162.922z M281.03,170.86
	l0.587,4.178l10.792-1.517l-0.587-4.178L281.03,170.86z M282.901,130.344c0.827,1.717,1.78,3.065,2.858,4.049l0,0
	c0.822-1.251,1.308-2.804,1.459-4.656l-4.23,0.595L282.901,130.344L282.901,130.344z M291.694,145.298
	c-0.825-1.271-1.848-2.706-3.07-4.302l1.51-1.159c0.573,0.74,1.343,1.832,2.309,3.273c0.424,0.508,0.709,0.879,0.86,1.11
	L291.694,145.298z M294.266,131.113l-0.274-1.95l2.417-0.339l-0.613-4.364l1.813-0.255l0.613,4.364l2.417-0.34l0.274,1.95
	l-2.417,0.339l0.574,4.087l2.067-0.953c0.122,0.867,0.25,1.574,0.386,2.123c-0.164,0.086-0.41,0.216-0.738,0.388
	c-0.617,0.214-1.087,0.406-1.416,0.578l0.926,6.591c0.292,1.663-0.301,2.661-1.78,2.996c-0.576,0.081-1.181,0.166-1.813,0.255
	c-0.269-0.657-0.484-1.352-0.646-2.086c0.527-0.012,1.02-0.049,1.481-0.114c0.699-0.036,0.988-0.486,0.867-1.353l-0.77-5.477
	l-2.473,1.199l-0.572-2.191c0.328-0.172,0.881-0.408,1.662-0.707c0.442-0.188,0.803-0.333,1.083-0.436l-0.652-4.644L294.266,131.113
	z M316.601,165.386c-0.559,0.206-1.183,0.355-1.874,0.453c-0.11-0.363-0.266-0.846-0.468-1.449
	c-0.093-0.239-0.177-0.416-0.251-0.533c0.238,0.03,0.732-0.008,1.481-0.113c0.756-0.042,1.053-0.652,0.888-1.829
	c-0.03-0.626-0.116-1.655-0.258-3.088c-0.048-0.751-0.092-1.28-0.136-1.59l-3.137,1.482l1.383,9.841l-1.899,0.267l-1.292-9.191
	l-2.878,1.446l1.187,8.448c0.076,1.378,0.853,1.899,2.333,1.565l4.489-0.631c1.447-0.141,2.184-0.748,2.209-1.825
	c0.051-0.89,0.063-1.839,0.04-2.846c0.676,0.222,1.315,0.383,1.918,0.488c0.001,1.263-0.049,2.374-0.148,3.334
	c-0.071,1.587-1.118,2.491-3.141,2.713l-5.871,0.825c-2.179,0.368-3.392-0.534-3.638-2.708l-1.187-8.448l-1.476,0.775l-0.632-1.994
	l0.246-0.129l-1.899,0.267l1.161,8.263c0.337-0.109,0.833-0.337,1.489-0.683c0.385-0.18,0.689-0.317,0.911-0.412
	c0.087,0.62,0.211,1.296,0.374,2.03c-0.723,0.291-2.129,0.931-4.221,1.919c-1.001,0.394-1.752,0.687-2.253,0.884l-0.619-1.901
	l2.499-1.014l-1.239-8.82l-2.072,0.292l-0.274-1.95l2.072-0.292l-0.875-6.22l1.899-0.267l0.875,6.22l1.986-0.279l0.274,1.95
	l1.489-0.683l-0.744-5.292l1.899-0.267l0.652,4.642l2.878-1.446l-0.861-6.127l1.899-0.267l0.77,5.477l4.945-2.399
	c0.423,3.854,0.694,6.404,0.811,7.649C318.553,164.039,317.982,165.191,316.601,165.386L316.601,165.386z M306.323,133.586
	c-0.293,3.766-1.693,6.959-4.2,9.584c-0.481-0.5-0.987-0.965-1.517-1.396c2.263-2.273,3.564-4.918,3.904-7.933l-2.676,0.376
	l-0.287-2.042l7.631-6.471l-7.771,1.092l-0.261-1.857l11.051-1.553l0.3,2.135l-7.645,6.376l9.584-1.347
	c0.194,1.806,0.451,4.263,0.771,7.373c0.055,0.813,0.109,1.405,0.162,1.776c0.316,2.668-0.566,4.118-2.646,4.348
	c-0.509,0.134-1.398,0.291-2.664,0.469c-0.255-0.974-0.498-1.667-0.731-2.075c0.229-0.032,0.574-0.081,1.036-0.146
	c0.583-0.02,1.049-0.053,1.395-0.101c1.341-0.063,1.903-0.867,1.686-2.415c-0.043-0.309-0.085-0.808-0.123-1.498
	c-0.233-2.491-0.436-4.355-0.61-5.594l-2.158,0.303c0.07,5.102-1.454,9.292-4.573,12.571c-0.415-0.448-0.979-0.904-1.689-1.372
	c2.999-2.883,4.482-6.531,4.449-10.944L306.323,133.586L306.323,133.586z M307.234,197.686c-0.093,1.844-0.577,3.835-1.449,5.979
	l-1.849-1.255c0.752-1.746,1.159-3.444,1.221-5.094c0.128-1.595-0.013-3.847-0.421-6.757l-1.031-7.334
	c6.074-1.043,11.578-2.195,16.507-3.456l1.077,2.026c-4.774,1.113-9.85,2.174-15.225,3.181l0.417,2.971l16.318-2.293l0.273,1.949
	l-16.317,2.293l0.052,0.372C307.251,193.423,307.393,195.897,307.234,197.686L307.234,197.686z M310.348,202.928l-1.396-9.934
	l12.864-1.808l1.396,9.934l-1.985,0.279l-0.195-1.393l-8.893,1.25l0.196,1.393L310.348,202.928z M311.212,194.665l0.679,4.828
	l8.893-1.25l-0.679-4.828L311.212,194.665z M317.946,125.606l-0.261-1.857l8.722-1.226c-0.144-0.169-0.329-0.458-0.563-0.868
	c-0.309-0.524-0.537-0.902-0.688-1.134l2.094-0.768c0.082,0.178,0.237,0.44,0.462,0.787c0.384,0.641,0.692,1.166,0.927,1.574
	l-0.332,0.142l8.201-1.153l0.262,1.857l-5.181,0.728l1.817,0.407c-0.413,0.816-0.854,1.667-1.312,2.552l5.956-0.837l0.248,1.764
	l-20.637,2.9l-0.248-1.764l5.959-0.837c-0.631-0.731-1.258-1.433-1.88-2.103l1.635-0.893L317.946,125.606z M321.934,143.319
	l-1.564-11.141l15.714-2.21l1.553,11.049l-1.985,0.279l-0.17-1.207l-11.742,1.65l0.184,1.3L321.934,143.319z M326.08,166.515
	c-0.109,1.719-0.529,3.544-1.255,5.478c-0.267-0.216-0.64-0.573-1.119-1.074c-0.274-0.278-0.478-0.47-0.608-0.577
	c0.653-1.606,1.004-3.076,1.053-4.408c0.047-1.332-0.133-3.452-0.543-6.361l-1.199-8.541l15.714-2.208l1.437,10.212
	c0.6,4.271,1.094,6.757,1.487,7.459c0.167,0.355,0.365,0.517,0.597,0.484c0.221-0.094,0.362-0.335,0.426-0.723
	c-0.053-1.633-0.111-2.886-0.176-3.762c0.182,0.038,0.545,0.113,1.088,0.226c0.238,0.03,0.42,0.068,0.545,0.113
	c-0.015,0.319-0.004,0.822,0.035,1.51c-0.006,1.201-0.019,1.96-0.031,2.277c-0.014,1.579-0.596,2.45-1.746,2.612
	c-1.036,0.146-1.856-0.465-2.458-1.832c-0.636-1.173-1.253-3.895-1.853-8.166l-1.147-8.17l-11.656,1.638l0.913,6.499
	C326.023,162.357,326.189,164.795,326.08,166.515L326.08,166.515z M322.602,133.664l0.354,2.506l11.742-1.65l-0.354-2.507
	L322.602,133.664z M323.176,137.748l0.354,2.507l11.742-1.65l-0.354-2.506L323.176,137.748z M323.389,124.841
	c0.819,0.832,1.551,1.645,2.19,2.438l-0.565,0.363l4.748-0.667c0.543-1.149,1.01-2.225,1.396-3.226L323.389,124.841L323.389,124.841
	z M328.055,199.397l-2.688-19.125l7.425-1.044l2.649,18.846l-1.9,0.267l-0.234-1.671l-3.625,0.509l0.272,1.95L328.055,199.397z
	 M336.807,167.658c-1.379-1.447-2.871-3.099-4.481-4.956c-1.153,2.245-2.495,4.391-4.026,6.436c-0.531-0.43-1.089-0.856-1.677-1.279
	c1.905-2.729,3.315-5.01,4.233-6.843c-0.559-0.615-1.42-1.536-2.59-2.76c-1.113-1.231-1.976-2.151-2.59-2.76l1.385-1.425
	c0.614,0.609,1.478,1.529,2.59,2.76c0.961,1.001,1.684,1.751,2.166,2.252c0.791-1.878,1.55-4.005,2.271-6.378l1.87,0.778
	c-0.666,2.366-1.562,4.764-2.687,7.194c2.355,2.573,4.024,4.421,5.006,5.545L336.807,167.658z M327.527,181.862l0.81,5.756
	l3.626-0.51l-0.809-5.756L327.527,181.862z M328.598,189.475l0.822,5.849l3.626-0.51l-0.821-5.849L328.598,189.475z M334.52,184.003
	l-0.287-2.042l7.08-0.995l-0.664-4.735l1.984-0.279l0.666,4.735l2.59-0.364l0.287,2.042l-2.59,0.364l1.645,11.697
	c0.36,2.158-0.49,3.414-2.553,3.767c-1.095,0.154-2.217,0.312-3.367,0.473c-0.084-0.177-0.178-0.417-0.276-0.718
	c-0.203-0.603-0.388-1.082-0.556-1.437c0.584-0.02,1.625-0.133,3.123-0.344c1.272-0.117,1.795-0.788,1.563-2.019l-1.565-11.14
	L334.52,184.003z M338.803,191.922c-0.843-1.396-1.979-3.003-3.406-4.823l1.496-1.251c1.213,1.534,2.401,3.103,3.566,4.706
	L338.803,191.922z M348.195,131.674c-1.362,2.844-2.723,5.276-4.082,7.297c-0.266-0.216-0.815-0.581-1.65-1.094
	c-0.066-0.054-0.133-0.108-0.197-0.161c1.286-1.696,2.637-3.999,4.047-6.914L348.195,131.674L348.195,131.674z M342.676,129.988
	l-0.312-10.37c4.72-0.663,9.945-1.682,15.683-3.056l0.892,1.957c-5.744,1.313-10.539,2.271-14.388,2.875l0.099,6.329l5.957-0.837
	l-0.666-4.734l2.158-0.303l0.666,4.734l7.942-1.116l0.274,1.95l-7.943,1.116l0.939,6.686c0.409,2.087-0.393,3.274-2.406,3.557
	c-0.567,0.142-1.541,0.311-2.922,0.505c-0.305-0.904-0.558-1.659-0.758-2.26c0.756-0.044,1.652-0.138,2.688-0.284
	c0.985-0.076,1.377-0.634,1.173-1.679l-0.874-6.222L342.676,129.988z M347.205,166.016l-2.439-17.36l5.871-0.825l2.191,15.597
	l-4.059,0.57l0.248,1.764L347.205,166.016z M346.854,150.35l1.631,11.604l2.33-0.328l-1.631-11.604L346.854,150.35z
	 M349.318,186.657l-0.286-2.042l9.237-1.298l-1.316-9.377l2.072-0.291l1.316,9.376l9.325-1.311l0.287,2.042l-6.821,0.958l0.967,6.87
	c0.121,0.868,0.67,1.231,1.649,1.093l1.728-0.242c0.928-0.068,1.361-0.538,1.297-1.414c0.061-0.828,0.026-1.897-0.098-3.205
	l2.09,0.463c0.036,1.51,0.024,2.68-0.035,3.508c-0.07,1.587-1.002,2.475-2.795,2.665l-2.504,0.352
	c-1.898,0.267-2.984-0.56-3.254-2.478l-1.029-7.334l-3.973,0.558l0.083,1.219c0.617,4.395-1.18,7.896-5.391,10.509
	c-0.207-0.224-0.558-0.617-1.046-1.179c-0.217-0.286-0.393-0.482-0.523-0.589c3.723-1.911,5.344-4.79,4.861-8.636l-0.057-1.033
	L349.318,186.657z M353.979,182.215c-0.539-0.492-1.385-1.288-2.537-2.389c-0.945-0.876-1.621-1.507-2.026-1.893l1.285-1.506
	c1.723,1.4,3.298,2.788,4.724,4.165L353.979,182.215z M352.613,151.245l-0.274-1.95l4.403-0.619l-0.521-3.713l1.985-0.279
	l0.521,3.713l4.664-0.655l0.272,1.95l-4.662,0.655l0.481,3.435l5.613-0.789l0.26,1.857l-4.92,0.691
	c1.616,2.74,3.859,4.917,6.729,6.534l-1.047,1.946c-2.713-1.764-4.751-3.939-6.111-6.525l1.317,9.376l-1.985,0.279l-1.318-9.377
	c-0.765,3.327-2.246,6.154-4.441,8.482c-0.549-0.555-1.115-1.042-1.703-1.465c2.551-2.314,4.282-5.241,5.193-8.777l-4.489,0.631
	l-0.261-1.857l5.181-0.728l-0.483-3.435L352.613,151.245z M361.541,136.427c-2.247-2.208-4.218-4.108-5.908-5.704l1.471-1.438
	c0.474,0.439,1.152,1.101,2.041,1.985c1.881,1.694,3.225,2.895,4.027,3.601L361.541,136.427z M367.286,175.422
	c-1.031,1.849-2.179,3.714-3.438,5.595l-1.764-1.267c1.328-1.827,2.453-3.626,3.379-5.398L367.286,175.422L367.286,175.422z
	 M366.143,130.476l-1.565-11.14l8.114-1.141l-0.651-4.642l2.157-0.303l0.652,4.642l8.116-1.141l1.554,11.048l-2.072,0.291
	l-0.17-1.207l-6.043,0.849l1.107,7.893l-2.158,0.303l-1.108-7.893l-6.043,0.85l0.183,1.3L366.143,130.476z M366.936,121.086
	l0.795,5.663l6.045-0.849l-0.797-5.664L366.936,121.086z M372.807,155.317c-0.729,1.492-1.728,2.957-2.992,4.396
	c-0.102-0.301-0.344-0.771-0.727-1.413c-0.15-0.23-0.264-0.404-0.337-0.521c1.321-1.448,2.466-3.123,3.433-5.026
	c-0.33-1.09-0.699-2.047-1.108-2.874c-0.693,0.918-1.419,1.809-2.179,2.673c-0.158-0.292-0.449-0.694-0.873-1.203
	c-0.15-0.23-0.264-0.404-0.338-0.521c0.815-0.872,1.602-1.771,2.352-2.697c-0.873-1.203-1.812-2.238-2.814-3.107l1.312-1.32
	c1.003,0.87,1.895,1.786,2.676,2.748c0.568-0.963,1.129-1.988,1.682-3.076l1.623,0.908c-0.738,1.429-1.47,2.701-2.192,3.811
	c1.366,2.208,2.362,5.76,2.993,10.656c0.619,3.573-0.223,5.522-2.523,5.846c-0.395,0.118-1.139,0.255-2.23,0.409
	c-0.162-0.735-0.377-1.431-0.646-2.087c0.354,0.012,1.077-0.057,2.171-0.21c1.283-0.055,1.731-1.252,1.345-3.597
	C373.236,157.751,373.027,156.486,372.807,155.317L372.807,155.317z M381.182,119.084l-6.045,0.849l0.797,5.664l6.043-0.85
	L381.182,119.084z M376.807,156.838l-1.436-10.212l4.748-0.667l-0.587-4.178l1.899-0.267l0.588,4.178l4.834-0.68l1.291,9.191
	l-4.834,0.679l0.729,5.199l3.069-0.715l-1.502-2.534l1.648-0.8c0.234,0.409,0.58,0.992,1.038,1.748
	c1.144,1.86,1.921,3.233,2.341,4.121l-1.636,0.893c-0.144-0.169-0.306-0.494-0.489-0.973c-0.232-0.41-0.393-0.702-0.476-0.88
	c-5.343,1.255-9.034,2.122-11.081,2.599l-0.619-1.901c0.173-0.024,0.46-0.065,0.863-0.122c2.111-0.422,3.765-0.78,4.955-1.075
	l-0.743-5.292l-2.937,0.413l0.145,1.021L376.807,156.838z M379.371,192.657c-1.869,0.073-3.057-0.865-3.564-2.813
	c-0.123-2.128,0.752-3.419,2.625-3.872c1.982-0.089,3.209,0.907,3.678,2.986C382.215,190.962,381.301,192.196,379.371,192.657
	L379.371,192.657z M378.628,187.365c-1.077,0.279-1.586,1.044-1.526,2.297c0.264,1.037,0.949,1.538,2.062,1.509
	c1.134-0.286,1.685-0.961,1.651-2.031C380.523,187.919,379.796,187.328,378.628,187.365L378.628,187.365z M377.445,148.228
	l0.77,5.478l2.936-0.413l-0.77-5.478L377.445,148.228z M385.302,147.124l-3.021,0.425l0.77,5.477l3.021-0.424L385.302,147.124z
	 M392.732,148.16c-0.033,1.015-0.103,1.782-0.205,2.301c-0.189-0.099-0.5-0.214-0.928-0.343c-0.24-0.029-0.422-0.067-0.545-0.113
	c0.363-2.006,0.438-4.605,0.226-7.794l1.493-0.021c-0.015,0.318-0.006,0.791,0.023,1.417c-0.021,0.698-0.037,1.205-0.051,1.522
	l1.641-0.23l-0.718-5.106l1.899-0.267l0.718,5.106l1.986-0.279l0.272,1.949l-1.985,0.279l0.64,4.549l1.895-0.929
	c0.122,0.867,0.278,1.57,0.474,2.111l-2.066,0.953l1.174,8.355l-1.898,0.267l-1.097-7.798l-3.371,1.704l-0.57-2.191l3.642-1.648
	l-0.717-5.106l-1.813,0.254C392.825,147.359,392.787,147.712,392.732,148.16L392.732,148.16z M394.615,128.936
	c0.304,2.166-0.219,3.881-1.566,5.145l-0.895-0.726c0.923-0.951,1.299-2.236,1.131-3.853l-1.467,0.206l-0.432-3.063l2.85-0.4
	C394.307,126.739,394.434,127.636,394.615,128.936L394.615,128.936z M399.503,143.706l-0.261-1.856l4.488-0.631l-0.404-2.878
	l1.984-0.279l0.405,2.878l4.575-0.643l0.262,1.856l-4.576,0.643l0.432,3.064l5.438-0.765l0.262,1.857l-12.777,1.796l-0.261-1.857
	l5.352-0.752l-0.431-3.063L399.503,143.706z M400.155,153.366l-0.262-1.857l7.942-1.116l-0.273-1.95l1.899-0.267l0.273,1.95
	l2.764-0.388l0.261,1.856l-2.763,0.389l0.678,4.827c0.318,1.849-0.442,2.903-2.285,3.162c-0.912,0.19-1.856,0.355-2.836,0.493
	c-0.102-0.302-0.253-0.754-0.454-1.356c-0.102-0.303-0.193-0.541-0.276-0.719c0.583-0.02,1.423-0.105,2.517-0.259
	c1.036-0.146,1.493-0.652,1.372-1.519l-0.613-4.363L400.155,153.366z M404.128,157.825c-0.067-0.053-0.138-0.137-0.212-0.254
	c-1.162-1.162-2.104-2.007-2.822-2.538l1.125-1.389c1.118,0.853,2.184,1.745,3.193,2.675L404.128,157.825z M409.889,112.502
	l-0.248-1.764l9.411-1.323c-0.084-0.177-0.214-0.474-0.39-0.892c-0.251-0.533-0.451-0.914-0.603-1.146l2.206-0.594l1.03,2.316
	l8.894-1.25l0.248,1.764L409.889,112.502z M411.647,126.266l-0.248-1.764l9.756-1.371l-0.104-0.743l4.44-2.233l-12.605,1.771
	l-0.233-1.671l16.317-2.293l0.247,1.764l-5.902,3.102l8.894-1.25l0.248,1.764l-8.979,1.262l0.209,1.485
	c0.301,1.724-0.466,2.747-2.299,3.068c-0.979,0.138-2.13,0.3-3.453,0.485c-0.009-0.063-0.021-0.155-0.039-0.278
	c-0.109-0.363-0.299-0.874-0.566-1.53c0.346-0.048,0.838-0.087,1.479-0.113c0.691-0.097,1.181-0.166,1.469-0.207
	c1.045-0.084,1.477-0.555,1.299-1.413l-0.17-1.207L411.647,126.266z M413.466,118.531l-0.691-4.92l14.938-2.099l0.691,4.92
	L413.466,118.531z M417.013,158.759l-2.558-18.196l2.332-0.328c0.021-0.254,0.06-0.607,0.115-1.058
	c0.134-0.712,0.21-1.639,0.226-2.777l2.211,0.068c-0.132,1.154-0.291,2.313-0.479,3.476l3.886-0.546l2.531,18.011l-1.899,0.267
	l-0.248-1.764l-4.403,0.619l0.273,1.95L417.013,158.759z M414.981,114.91l0.261,1.856l11.052-1.553l-0.261-1.857L414.981,114.91z
	 M416.729,142.326l0.719,5.106l4.402-0.619l-0.718-5.106L416.729,142.326z M417.732,149.475l0.743,5.292l4.403-0.619l-0.743-5.292
	L417.732,149.475z M432.269,156.426c-1.151,0.162-2.359,0.332-3.626,0.51c-0.153-0.674-0.401-1.396-0.744-2.167
	c0.756-0.044,1.883-0.17,3.38-0.38c1.629-0.103,2.325-0.99,2.092-2.661c-0.076-1.377-0.399-4.299-0.968-8.763
	c-0.126-1.308-0.228-2.24-0.306-2.797l-5.181,0.728c-0.152,0.589-0.413,1.447-0.783,2.571c-0.161,0.529-0.281,0.924-0.36,1.187
	c-0.57-0.298-1.198-0.589-1.884-0.871c1.008-2.854,1.688-5.729,2.047-8.619l2.051,0.185c-0.063,0.388-0.162,0.938-0.296,1.651
	c-0.126,0.775-0.222,1.356-0.283,1.744l6.389-0.898c0.559,3.962,1.094,8.62,1.612,13.975
	C435.781,154.479,434.734,156.016,432.269,156.426L432.269,156.426z M429.728,150.25c-0.349-0.392-0.871-0.981-1.567-1.768
	c-0.989-1.186-1.762-2.086-2.317-2.704l1.397-1.333c0.489,0.563,1.215,1.344,2.179,2.344c0.821,0.832,1.443,1.501,1.867,2.01
	L429.728,150.25z M438.539,119.741c0.25,2.616-0.192,5.107-1.326,7.476c-0.637-0.353-1.298-0.669-1.981-0.952
	c0.701-1.677,1.103-3.215,1.198-4.618c0.098-1.401-0.06-3.556-0.468-6.466l-1.279-9.098l17.527-2.463l2.492,17.732
	c0.393,1.964-0.418,3.088-2.432,3.372c-0.923,0.129-1.844,0.259-2.765,0.388c-0.145-0.611-0.358-1.307-0.645-2.086
	c0.229-0.032,0.604-0.085,1.122-0.158c0.525-0.012,0.933-0.036,1.222-0.077c1.102-0.093,1.559-0.598,1.371-1.518l-0.482-3.435
	l-5.785,0.813l0.928,6.592l-2.072,0.291l-0.926-6.591L438.539,119.741L438.539,119.741z M450.862,137.906l-0.274-1.95l-6.389,0.898
	l0.273,1.95l-2.071,0.292l-0.274-1.95l-4.921,0.691l-0.261-1.856l4.921-0.692l-0.326-2.321l2.072-0.292l0.326,2.321l6.389-0.898
	l-0.326-2.322l1.986-0.279l0.326,2.321l5.008-0.704l0.261,1.856l-5.008,0.704l0.272,1.95L450.862,137.906z M437.042,107.833
	l0.562,3.992l5.525-0.776l-0.562-3.992L437.042,107.833z M438.047,114.982c0.139,0.991,0.271,1.919,0.393,2.785l5.524-0.777
	l-0.562-3.992l-5.525,0.777L438.047,114.982z M458.445,142.994c-0.121,0.396-0.202,0.66-0.241,0.792
	c-4.443-0.701-7.878-2.174-10.307-4.421c-1.866,2.598-4.807,5.063-8.821,7.394c-0.301-0.462-0.685-1.102-1.15-1.921
	c4.492-2.272,7.512-4.81,9.056-7.616l2.196-0.025l-0.34,0.71c2.525,2.106,5.84,3.345,9.942,3.715
	C458.699,141.886,458.587,142.344,458.445,142.994L458.445,142.994z M445.814,149.598c-1.463,1.72-3.193,3.384-5.198,4.991
	c-0.423-0.508-0.9-0.979-1.432-1.408c1.753-1.319,3.436-2.912,5.053-4.781L445.814,149.598L445.814,149.598z M441.244,147.778
	l-0.248-1.764l6.734-0.946l-0.432-3.064l1.986-0.279l0.431,3.063l6.477-0.91l0.247,1.764l-6.476,0.91l0.652,4.642
	c0.309,1.787-0.396,2.832-2.112,3.137c-0.864,0.121-1.812,0.254-2.85,0.4c-0.01-0.063-0.019-0.125-0.026-0.186
	c-0.136-0.549-0.338-1.152-0.605-1.809c0.526-0.012,1.309-0.089,2.345-0.235c0.986-0.076,1.386-0.573,1.198-1.494l-0.587-4.178
	L441.244,147.778z M450.425,105.953l-5.785,0.813l0.562,3.992l5.784-0.813L450.425,105.953z M445.475,112.707l0.562,3.992
	l5.784-0.813l-0.562-3.992L445.475,112.707z M458.648,151.959c-2.281-1.194-4.417-2.187-6.406-2.981l0.914-1.644
	c2.179,0.894,4.339,1.852,6.479,2.876L458.648,151.959z M457.918,108.685c-0.344-0.771-0.846-1.836-1.506-3.196
	c-0.187-0.479-0.356-0.864-0.516-1.158l1.156-0.542c0.074,0.117,0.191,0.321,0.352,0.614c0.885,1.707,1.467,2.918,1.743,3.636
	L457.918,108.685z M464.688,117.39c-0.424-0.508-1.085-1.235-1.979-2.183c-0.199-0.161-0.337-0.299-0.411-0.416l1.2,8.541
	l-1.727,0.243l-1.2-8.541c-0.396,2.202-1.002,4.149-1.82,5.841c-0.11-0.363-0.333-0.9-0.667-1.61
	c-0.102-0.301-0.189-0.509-0.264-0.625c1.039-1.787,1.762-4.161,2.169-7.122l-2.851,0.401l-0.248-1.764l2.937-0.413l-1.147-8.169
	l1.728-0.243l1.147,8.169l2.59-0.364l0.248,1.764l-2.591,0.364l0.365,2.6l0.76-0.864c1.368,1.386,2.359,2.383,2.975,2.99
	L464.688,117.39z M463.386,135.01c-0.324,1.876-0.819,3.776-1.487,5.7l-1.37-1.606c0.923-3.032,1.464-6.075,1.622-9.128l1.938,0.012
	c-0.073,1.146-0.188,2.205-0.346,3.173l4.229-0.594l0.248,1.764l-0.834,4.093c-0.058,0.008-0.177-0.006-0.357-0.044
	c-0.362-0.075-0.842-0.133-1.435-0.177l0.898-3.629L463.386,135.01L463.386,135.01z M463.927,103.201
	c-0.253,1.55-0.558,3.141-0.915,4.768l-1.359-0.282c0.416-1.635,0.721-3.225,0.915-4.768L463.927,103.201L463.927,103.201z
	 M466.182,150.522c-0.204,0.218-0.384,0.4-0.539,0.549l-1.431-1.409c0.399-0.497,0.543-1.148,0.43-1.954l-1.344-9.563l1.899-0.267
	l1.356,9.655c0.312-0.295,0.776-0.739,1.397-1.333c0.621-0.592,1.062-1.001,1.324-1.228c0.1,0.303,0.219,0.727,0.354,1.276
	c0.175,0.417,0.276,0.718,0.303,0.904c-1.048,0.905-2.122,1.813-3.227,2.726C466.609,150.02,466.435,150.233,466.182,150.522
	L466.182,150.522z M464.502,104.162l-0.209-1.486l4.835-0.679l-0.272-1.95l1.898-0.267l0.273,1.95l5.354-0.752l0.209,1.485
	l-5.354,0.753l0.209,1.485l4.835-0.679l0.194,1.393l-4.835,0.679l0.223,1.579l5.698-0.801l0.208,1.486l-12.777,1.796l-0.208-1.486
	l5.18-0.728l-0.222-1.579l-4.403,0.619l-0.195-1.393l4.403-0.619l-0.209-1.485L464.502,104.162z M467.557,122.762l-1.579-11.233
	l10.792-1.517l1.176,8.355c0.3,1.724-0.407,2.739-2.126,3.044c-0.23,0.032-0.604,0.085-1.122,0.158
	c-0.684,0.158-1.227,0.267-1.628,0.324c-0.193-0.541-0.425-1.141-0.692-1.796c0.583-0.02,1.423-0.105,2.518-0.259
	c0.986-0.077,1.391-0.543,1.212-1.401l-0.104-0.743l-7.167,1.007l0.535,3.807L467.557,122.762z M467.986,112.666l0.233,1.671
	l7.167-1.007l-0.234-1.671L467.986,112.666z M468.417,115.729l0.222,1.579l7.166-1.007l-0.222-1.578L468.417,115.729z
	 M479.678,137.549c-0.313-0.146-0.857-0.258-1.632-0.339c-0.125-0.044-0.216-0.064-0.271-0.057l1.093-4.129l-6.907,0.971
	c-0.229,1.295-0.681,3.094-1.354,5.397c-0.515-0.306-1.166-0.561-1.957-0.766c1.104-2.996,1.793-6.247,2.062-9.757l2.038,0.092
	c-0.091,1.023-0.216,2.019-0.372,2.987l8.115-1.141l0.287,2.043L479.678,137.549z M475.49,142.208
	c-0.19,3.246-1.866,6.353-5.029,9.322c-0.142-0.169-0.415-0.447-0.82-0.831c-0.405-0.385-0.681-0.662-0.82-0.832
	c3.437-2.691,5.132-6.085,5.084-10.182c-0.068-1.316-0.214-2.777-0.44-4.388l1.985-0.279c0.053,0.371,0.104,0.964,0.162,1.776
	c0.087,0.62,0.146,1.053,0.183,1.3c1.408,4.599,3.926,7.685,7.552,9.258c-0.422,0.753-0.792,1.468-1.106,2.144
	C479.046,147.673,476.798,145.243,475.49,142.208L475.49,142.208z M480.287,103.174l-0.235-1.671l5.525-0.776
	c-0.216-0.285-0.626-0.701-1.231-1.247c-0.54-0.492-0.912-0.85-1.119-1.073l1.907-0.836c0.074,0.117,0.24,0.25,0.497,0.404
	c1.012,0.932,1.69,1.594,2.04,1.985l-1.229,0.646l4.921-0.691c0.893-1.577,1.493-2.733,1.801-3.472l2.164,0.358
	c-0.138,0.272-0.396,0.75-0.769,1.433c-0.383,0.622-0.642,1.069-0.779,1.341l5.354-0.753l0.234,1.671l-8.547,1.201l0.287,2.042
	l7.511-1.056l0.248,1.764l-7.511,1.055l0.285,2.043l9.066-1.274l0.234,1.671l-20.203,2.84l-0.235-1.671l9.066-1.274l-0.287-2.042
	l-7.339,1.031l-0.248-1.764l7.339-1.032l-0.287-2.042L480.287,103.174z M481.658,114.815l-0.247-1.764l8.634-1.213
	c0.03-0.193,0.025-0.444-0.019-0.754c0.014-0.317,0.008-0.569-0.019-0.755l2.072-0.292c0.069,0.496,0.081,0.999,0.036,1.51
	l8.893-1.25l0.248,1.764l-8.375,1.177c1.282,2.03,4.42,2.849,9.415,2.464c-0.13,0.333-0.271,0.795-0.422,1.384
	c-0.13,0.333-0.211,0.598-0.241,0.792c-5.056-0.047-8.372-1.095-9.951-3.146c-0.73,2.312-3.672,4.365-8.817,6.163
	c-0.084-0.177-0.276-0.498-0.575-0.96c-0.301-0.464-0.525-0.811-0.675-1.042c5.103-1.285,7.851-3.027,8.245-5.229L481.658,114.815z
	 M487.659,136.236l2.764-0.388l0.456,3.25l-2.763,0.388L487.659,136.236z M491.361,142.532l0.443,3.156
	c0.262,1.857-0.418,3.088-2.033,3.694l-0.196-1.393c0.665-0.283,0.951-0.955,0.861-2.015l-1.382,0.194l-0.457-3.25L491.361,142.532z
	 M505.83,117.192l-2.557-18.196l2.33-0.328c0.021-0.254,0.062-0.607,0.115-1.058c0.134-0.712,0.21-1.639,0.227-2.777l2.211,0.068
	c-0.132,1.154-0.291,2.313-0.479,3.476l3.885-0.546l2.532,18.011l-1.898,0.267l-0.249-1.764l-4.403,0.619l0.274,1.95L505.83,117.192
	z M505.546,100.759l0.718,5.106l4.403-0.619l-0.718-5.106L505.546,100.759z M506.551,107.907l0.743,5.292l4.403-0.619l-0.743-5.292
	L506.551,107.907z M508.259,140.063l-0.3-2.135l15.109-2.124l0.301,2.135L508.259,140.063z M523.288,143.631
	c-1.2,0.23-2.749,0.481-4.649,0.748c-0.109-0.363-0.273-0.908-0.492-1.635c-0.104-0.302-0.19-0.51-0.266-0.625
	c1.332-0.125,2.805-0.3,4.417-0.526c2.031-0.16,2.958-1.079,2.782-2.757c-0.133-2.19-0.294-4.376-0.482-6.56l-14.072,1.978
	l-0.65-10.891l2.159-0.304l0.197,3.286l14.851-2.087l0.287,2.042l-15.023,2.111l0.225,3.472l13.986-1.966
	c0.15,1.493,0.352,3.96,0.6,7.396c0.038,0.69,0.079,1.188,0.123,1.498C527.619,141.664,526.289,143.271,523.288,143.631
	L523.288,143.631z M521.088,114.858c-1.152,0.162-2.361,0.332-3.626,0.509c-0.154-0.673-0.403-1.396-0.745-2.167
	c0.756-0.044,1.883-0.17,3.38-0.381c1.628-0.103,2.326-0.989,2.093-2.661c-0.077-1.376-0.399-4.298-0.969-8.763
	c-0.126-1.308-0.227-2.24-0.305-2.797l-5.181,0.728c-0.152,0.589-0.413,1.447-0.783,2.571c-0.161,0.529-0.281,0.924-0.361,1.187
	c-0.57-0.298-1.198-0.589-1.884-0.872c1.008-2.854,1.689-5.728,2.047-8.619l2.051,0.186c-0.062,0.387-0.162,0.938-0.296,1.651
	c-0.126,0.775-0.221,1.356-0.283,1.744l6.39-0.898c0.557,3.962,1.093,8.62,1.611,13.975
	C524.601,112.912,523.553,114.448,521.088,114.858L521.088,114.858z M518.547,108.683c-0.35-0.392-0.872-0.981-1.568-1.768
	c-0.989-1.187-1.762-2.087-2.316-2.704l1.396-1.333c0.489,0.563,1.216,1.344,2.18,2.345c0.82,0.832,1.442,1.501,1.867,2.01
	L518.547,108.683z M539.691,96.339l-0.274-1.95l-6.389,0.898l0.272,1.95l-2.072,0.291l-0.272-1.95l-4.922,0.692l-0.261-1.857
	l4.922-0.691l-0.326-2.321l2.072-0.291l0.325,2.321l6.39-0.898l-0.326-2.321l1.985-0.279l0.325,2.321l5.009-0.704l0.262,1.856
	l-5.009,0.704l0.273,1.949L539.691,96.339z M547.273,101.427c-0.12,0.396-0.201,0.66-0.24,0.791
	c-4.443-0.701-7.878-2.173-10.308-4.421c-1.865,2.598-4.807,5.063-8.821,7.394c-0.301-0.462-0.684-1.102-1.15-1.921
	c4.493-2.271,7.513-4.81,9.055-7.615l2.198-0.025l-0.341,0.711c2.526,2.106,5.841,3.344,9.943,3.714
	C547.528,100.319,547.416,100.776,547.273,101.427L547.273,101.427z M534.643,108.03c-1.461,1.72-3.192,3.384-5.196,4.991
	c-0.425-0.509-0.901-0.979-1.432-1.408c1.752-1.319,3.436-2.912,5.052-4.781L534.643,108.03L534.643,108.03z M530.073,106.211
	l-0.248-1.764l6.733-0.947l-0.431-3.063l1.986-0.279l0.431,3.064l6.475-0.91l0.248,1.764l-6.476,0.91l0.652,4.642
	c0.31,1.786-0.396,2.832-2.112,3.137c-0.863,0.121-1.813,0.254-2.849,0.4c-0.01-0.063-0.019-0.125-0.026-0.186
	c-0.136-0.549-0.338-1.153-0.606-1.809c0.526-0.012,1.31-0.089,2.346-0.235c0.985-0.076,1.386-0.573,1.197-1.494l-0.587-4.178
	L530.073,106.211z M530.749,127.338l-0.6-4.271l9.236-1.298l-1.288-2.28l2.192-0.688c0.449,0.694,0.892,1.548,1.328,2.559
	l-0.16,0.117l8.202-1.153l0.601,4.271l-1.984,0.279l-0.354-2.507l-15.455,2.172l0.354,2.507L530.749,127.338z M533.867,128.225
	l-0.234-1.671l13.814-1.942l0.233,1.671l-5.524,0.776c-0.155,0.149-0.364,0.335-0.626,0.562c-0.516,0.515-0.933,0.888-1.251,1.123
	c0.937,0.815,1.671,1.658,2.205,2.53c2.104-1.305,4.05-2.714,5.833-4.228l1.271,1.525c-1.121,0.789-2.269,1.613-3.438,2.472
	c1.403,2.896,3.546,4.772,6.426,5.629c-0.333,0.553-0.688,1.169-1.061,1.853c-3.097-1.142-5.396-3.313-6.901-6.509
	c-0.107,0.079-0.291,0.23-0.552,0.456c-0.271,0.166-0.483,0.321-0.64,0.469c0.502,1.065,0.845,2.248,1.026,3.548
	c0.448,2.777-0.444,4.354-2.681,4.731c-0.863,0.122-1.813,0.255-2.85,0.4c-0.093-0.24-0.23-0.599-0.416-1.078
	c-0.109-0.363-0.207-0.633-0.29-0.811c0.347-0.049,0.811-0.083,1.396-0.102c0.46-0.064,0.834-0.117,1.122-0.158
	c1.456-0.079,2.033-0.979,1.732-2.705c-0.078-0.557-0.182-1.078-0.309-1.566c-2.153,2.638-5.149,4.92-8.986,6.849
	c-0.316-0.587-0.696-1.197-1.137-1.828c3.832-1.548,6.976-3.821,9.431-6.817c-0.225-0.347-0.458-0.755-0.7-1.227
	c-2.14,2.321-4.805,4.242-7.995,5.762c-0.084-0.177-0.271-0.466-0.562-0.868c-0.225-0.347-0.408-0.605-0.549-0.775
	c3.159-1.327,5.841-3.124,8.047-5.392c-0.084-0.177-0.264-0.404-0.536-0.682c-0.133-0.106-0.232-0.188-0.298-0.242
	c-1.907,1.467-4.129,2.791-6.662,3.966c-0.093-0.239-0.281-0.529-0.563-0.868c-0.232-0.408-0.422-0.698-0.562-0.868
	c3.579-1.261,6.35-2.849,8.311-4.767L533.867,128.225z M547.477,110.392c-2.279-1.194-4.416-2.187-6.404-2.981l0.913-1.644
	c2.18,0.894,4.34,1.852,6.479,2.876L547.477,110.392z M555.109,105.342c-0.466,1.707-1.041,3.46-1.727,5.26l-2.005-0.476
	c0.089-0.202,0.194-0.5,0.314-0.896c0.686-1.8,1.161-3.224,1.425-4.271L555.109,105.342L555.109,105.342z M553.021,103.647
	l-1.136-8.077l6.477-0.91l-1.005-7.148l2.071-0.291l0.354,2.506l9.408-1.323l0.273,1.95l-9.411,1.322l0.379,2.693l7.512-1.056
	l1.136,8.077L553.021,103.647z M554.233,97.229l0.587,4.178l11.912-1.675l-0.588-4.178L554.233,97.229z M575.818,134.258
	c-0.562,1.025-0.931,1.74-1.107,2.144c-5.466-2.134-8.997-5.962-10.594-11.481c-0.032,5.623-2.416,10.375-7.152,14.26
	c-0.142-0.169-0.382-0.42-0.722-0.75c-0.481-0.5-0.797-0.868-0.946-1.098c5.081-3.933,7.412-9.057,6.995-15.374
	c-0.085-1.439-0.288-3.304-0.61-5.595l2.245-0.315l0.37,3.262c1.724,8.089,5.613,13.002,11.668,14.739
	C575.916,134.117,575.866,134.188,575.818,134.258L575.818,134.258z M558.697,109.571c-0.27-0.658-0.709-1.699-1.32-3.128
	c-0.26-0.594-0.439-1.042-0.541-1.344l1.86-0.545c0.083,0.178,0.208,0.444,0.377,0.799c0.762,1.661,1.277,2.85,1.556,3.568
	L558.697,109.571z M564.108,108.621c-0.37-0.958-1.103-2.401-2.193-4.331l1.847-0.639c0.074,0.117,0.154,0.262,0.238,0.44
	c0.926,1.574,1.597,2.805,2.016,3.693L564.108,108.621z M570.178,107.957c-0.834-1.335-1.803-2.807-2.91-4.419l1.81-0.917
	c0.148,0.232,0.445,0.664,0.886,1.295c1.09,1.489,1.788,2.494,2.098,3.019L570.178,107.957z M573.088,94.294l-0.273-1.95
	l3.713-0.522l-0.471-3.342c-0.346,0.048-0.889,0.157-1.627,0.323c-0.69,0.097-1.233,0.206-1.628,0.323
	c-0.034-0.247-0.141-0.58-0.315-0.997c-0.118-0.424-0.221-0.727-0.303-0.904c3.819-0.789,6.61-1.403,8.369-1.839l0.705,1.889
	c-1.085,0.216-2.193,0.467-3.328,0.751l0.496,3.528l3.626-0.51l0.274,1.95l-3.627,0.509l0.431,3.063l0.573-0.932
	c0.265,0.216,0.658,0.508,1.18,0.875c1.109,0.791,1.928,1.402,2.459,1.832l-1.072,1.761c-0.199-0.162-0.531-0.43-0.994-0.808
	c-0.87-0.76-1.533-1.299-1.987-1.614l1.291,9.191l-1.899,0.267l-1.396-9.934c-0.502,2.28-1.342,4.449-2.521,6.507
	c-0.344-0.771-0.711-1.509-1.104-2.211c1.342-2.144,2.302-4.709,2.881-7.695L573.088,94.294z M576.676,119.84l-0.273-1.95
	l11.225-1.577c-0.079-0.557-0.213-1.296-0.398-2.216c-0.104-0.743-0.18-1.268-0.224-1.579l2.072-0.291
	c0.147,1.053,0.354,2.317,0.621,3.794l7.167-1.007l0.272,1.95l-7.079,0.995c0.043,0.311,0.078,0.557,0.104,0.743
	c0.616,3.132,1.327,5.683,2.133,7.653c0.89-2.019,1.603-4.263,2.134-6.738l2.019,0.569c-0.979,3.483-2.02,6.312-3.122,8.486
	c0.459,0.756,0.995,1.438,1.607,2.046c0.53,0.432,0.996,0.617,1.399,0.561c0.411,0.004,0.656-0.344,0.733-1.05
	c0.041-0.952,0.032-2.055-0.025-3.31c0.562,0.237,1.201,0.399,1.918,0.488c0.03,1.889-0.047,3.225-0.229,4.008
	c-0.163,1.349-0.819,2.104-1.971,2.266c-1.258,0.239-2.47-0.443-3.633-2.046c-0.274-0.277-0.586-0.612-0.935-1.005
	c-0.921,1.392-2.041,2.811-3.363,4.26c-0.681-0.662-1.219-1.154-1.616-1.477c0.048-0.07,0.098-0.141,0.146-0.21
	c0.515-0.515,0.88-0.85,1.093-1.005c-1.596,0.35-3.94,0.995-7.035,1.935c-1.185,0.356-2.029,0.601-2.538,0.736l-0.62-1.901
	c1.412-0.388,4.321-1.207,8.724-2.457c0.624-0.15,1.075-0.277,1.355-0.38c-0.016,0.319,0.051,0.783,0.195,1.393
	c0.034,0.248,0.062,0.434,0.077,0.558c1.143-1.486,1.947-2.641,2.419-3.465c-1.104-2.432-2.052-5.612-2.838-9.542
	c-0.018-0.124-0.039-0.279-0.063-0.464c-0.085-0.177-0.13-0.297-0.14-0.359L576.676,119.84z M579.38,129.685l-1.083-7.706
	l7.943-1.117l1.083,7.706L579.38,129.685z M580.444,123.476l0.573,4.085l4.145-0.583l-0.573-4.085L580.444,123.476z
	 M585.408,105.533l-2.675-19.032l9.151-1.286l2.662,18.938l-1.986,0.279l-0.272-1.95l-5.269,0.741l0.287,2.042L585.408,105.533z
	 M584.907,88.184l1.827,12.997l5.267-0.74l-1.827-12.998L584.907,88.184z M593.63,115.186c-0.795-0.646-1.715-1.336-2.757-2.074
	l1.238-1.215c0.321,0.208,0.776,0.522,1.364,0.944c0.711,0.468,1.229,0.807,1.552,1.013L593.63,115.186z"/>
</svg>
