<?xml version="1.0" encoding="utf-8"?>
<!-- Generator: Adobe Illustrator 16.0.0, SVG Export Plug-In . SVG Version: 6.00 Build 0)  -->
<!DOCTYPE svg PUBLIC "-//W3C//DTD SVG 1.1//EN" "http://www.w3.org/Graphics/SVG/1.1/DTD/svg11.dtd">
<svg version="1.1" id="图层_1" xmlns="http://www.w3.org/2000/svg" xmlns:xlink="http://www.w3.org/1999/xlink" x="0px" y="0px"
	 width="640px" height="652px" viewBox="0 0 640 652" enable-background="new 0 0 640 652" xml:space="preserve">
<g>
	<polygon fill="#12B5B2" points="-3.275,145 640.725,52 640.725,201 -3.275,292 	"/>
	<polygon fill="#13BCB3" points="117.942,274.191 -3.275,291.582 -3.275,145.5 262.559,107.167 	"/>
	<polygon fill="#0EBEBB" points="511.819,218.625 600.769,58.312 641.271,52.417 642.274,200.331 	"/>
	<polygon fill="#0EBEBB" points="-3.275,145.5 -3.275,291.582 169.939,267.001 51.885,137.583 	"/>
	<polyline fill="#13BCB3" points="556.725,64.833 641.271,52.417 642.274,166.833 	"/>
</g>
<path fill="#FFFFFF" d="M46.002,186.186c0.25,2.616-0.193,5.107-1.326,7.476c-0.637-0.353-1.298-0.669-1.983-0.952
	c0.703-1.677,1.103-3.215,1.2-4.618c0.096-1.401-0.06-3.557-0.469-6.466l-1.279-9.098l17.527-2.463l2.492,17.732
	c0.393,1.964-0.417,3.088-2.432,3.372c-0.921,0.129-1.843,0.259-2.763,0.388c-0.146-0.611-0.36-1.308-0.646-2.087
	c0.229-0.032,0.604-0.085,1.122-0.158c0.527-0.012,0.933-0.036,1.222-0.077c1.101-0.092,1.559-0.598,1.371-1.518l-0.482-3.435
	l-5.785,0.813l0.927,6.592l-2.072,0.291l-0.926-6.591L46.002,186.186L46.002,186.186z M44.505,174.278l0.561,3.992l5.525-0.776
	l-0.561-3.992L44.505,174.278z M45.509,181.427c0.14,0.991,0.27,1.919,0.392,2.785l5.526-0.776l-0.561-3.992l-5.526,0.777
	L45.509,181.427z M55.314,206.675c-0.646,1.669-2.153,3.27-4.52,4.801c-0.15-0.23-0.367-0.517-0.648-0.855
	c-0.283-0.339-0.523-0.589-0.722-0.751c3.04-1.752,4.528-3.697,4.462-5.834l-5.957,0.837l2.375,16.896l-2.072,0.291l-2.662-18.939
	l8.202-1.152c-0.021-0.565-0.135-1.591-0.344-3.076l2.072-0.291c0.052,0.371,0.101,0.933,0.148,1.683
	c0.087,0.62,0.152,1.083,0.196,1.393l7.943-1.116l2.192,15.597c0.393,1.964-0.414,3.119-2.419,3.464
	c-0.921,0.13-1.957,0.275-3.108,0.437c-0.084-0.177-0.218-0.506-0.403-0.985c-0.186-0.479-0.324-0.839-0.416-1.078
	c0.978-0.137,1.928-0.271,2.849-0.4c1.168-0.039,1.617-0.606,1.346-1.704l-1.827-12.998l-6.13,0.862
	c0.003,0.442-0.031,0.825-0.102,1.15c0.247,0.092,0.594,0.264,1.041,0.516c2.32,1.063,4.084,1.92,5.292,2.57l-1.073,1.76
	C59.565,208.95,57.66,207.923,55.314,206.675L55.314,206.675z M50.48,235.578c-0.251-0.533-0.619-1.27-1.103-2.211
	c-0.484-0.941-0.848-1.647-1.09-2.119l1.316-0.658c0.233,0.41,0.554,1.027,0.965,1.853c0.559,1.058,0.969,1.884,1.229,2.478
	L50.48,235.578z M49.469,239.033l-0.261-1.856l3.454-0.485l-1.2-8.541l1.899-0.267l1.2,8.541l3.281-0.461l0.261,1.856l-3.281,0.461
	l0.339,2.414l0.586-0.84c1.457,1.185,2.555,2.103,3.293,2.756l-1.086,1.667c-0.68-0.662-1.56-1.485-2.636-2.469l1.161,8.262
	l-1.899,0.267l-1.187-8.448c-0.546,1.97-1.296,3.938-2.252,5.902c-0.075-0.115-0.164-0.323-0.264-0.626
	c-0.225-0.347-0.476-0.879-0.753-1.598c1.177-2.059,2.053-4.391,2.626-6.996L49.469,239.033z M56.313,213.161
	c-0.628,1.792-2.18,3.494-4.653,5.104l-1.396-1.792c3.625-1.771,5.129-4.224,4.513-7.356l1.986-0.279
	c0.122,0.868,0.119,1.688-0.006,2.462c2.139,1.025,4.102,2.043,5.888,3.054l-0.961,1.934c-0.19-0.099-0.475-0.248-0.855-0.448
	C58.893,214.598,57.388,213.706,56.313,213.161L56.313,213.161z M57.887,172.398l-5.785,0.813l0.561,3.992l5.785-0.813
	L57.887,172.398z M52.938,179.152l0.561,3.992l5.785-0.813l-0.561-3.992L52.938,179.152z M57.292,230.171
	c-0.43,1.954-0.825,3.524-1.187,4.711l-1.374-0.375c0.407-1.698,0.77-3.294,1.087-4.792L57.292,230.171L57.292,230.171z
	 M62.589,233.403c-0.257-0.153-0.613-0.387-1.067-0.702c-1.118-0.852-2.028-1.481-2.73-1.888l1.013-1.563
	c0.132,0.108,0.354,0.234,0.669,0.379c1.357,0.883,2.394,1.589,3.115,2.118L62.589,233.403z M62.767,239.058
	c-0.456-0.315-1.101-0.729-1.936-1.243c-0.844-0.575-1.49-0.989-1.936-1.243l0.927-1.55c0.19,0.101,0.479,0.28,0.869,0.541
	c1.396,0.75,2.421,1.364,3.076,1.84L62.767,239.058z M59.728,243.745l-0.546-2.006l6.458-1.665l-1.918-13.647l2.072-0.292
	l1.892,13.462l2.797-0.772l0.374,2.03l-2.883,0.784l0.939,6.685l-2.072,0.291l-0.9-6.406L59.728,243.745z M66.23,184.104
	c-0.014,0.318-0.038,0.573-0.068,0.767c-0.678-0.22-1.403-0.371-2.177-0.452c0.426-2.394,0.815-5.479,1.165-9.252l2.077,0.371
	C67.077,177.391,66.744,180.245,66.23,184.104L66.23,184.104z M73.834,188.715c-2.294,0.385-3.586-0.665-3.876-3.147l-1.839-13.09
	l2.072-0.292l1.775,12.626c0.142,1.433,0.87,2.024,2.186,1.775l3.108-0.437c1.381-0.194,2.042-0.917,1.984-2.172
	c0.004-0.379,0.008-0.979,0.011-1.8c-0.03-0.626-0.038-1.098-0.023-1.417c0.726,0.151,1.483,0.329,2.276,0.532
	c0.003,0.442-0.005,1.011-0.024,1.708c0.006,0.884-0.018,1.55-0.071,1.998c-0.151,1.851-1.296,2.896-3.434,3.133L73.834,188.715z
	 M69.986,218.995l-1.448-10.305l8.202-1.153l1.448,10.305l-1.899,0.267l-0.196-1.393l-4.403,0.619l0.196,1.393L69.986,218.995z
	 M70.257,205.892l-1.161-8.263l14.85-2.087l1.162,8.262L70.257,205.892z M75.265,173.84c-1.312-1.393-3.073-3.071-5.286-5.032
	l1.259-1.691c1.921,1.561,3.704,3.171,5.346,4.834L75.265,173.84z M70.698,210.279l0.757,5.385l4.403-0.619l-0.757-5.385
	L70.698,210.279z M71.442,199.288l0.613,4.364l10.706-1.505l-0.613-4.363L71.442,199.288z M78.609,242.798
	c0.305,2.166-0.218,3.879-1.566,5.143l-0.894-0.727c0.923-0.951,1.299-2.234,1.131-3.851l-1.468,0.206l-0.431-3.063l2.849-0.4
	C78.3,240.602,78.426,241.498,78.609,242.798L78.609,242.798z M83.061,181.076c-0.776-1.342-2.092-3.398-3.948-6.167
	c-0.367-0.516-0.624-0.89-0.774-1.122l1.756-1.288c0.365,0.517,0.886,1.295,1.561,2.336c1.548,2.244,2.625,3.86,3.234,4.847
	L83.061,181.076z M80.692,217.49l-1.448-10.305l8.202-1.153l1.448,10.305l-1.813,0.255l-0.196-1.393l-4.49,0.631l0.196,1.393
	L80.692,217.49z M81.404,208.775l0.757,5.385l4.49-0.631l-0.757-5.385L81.404,208.775z M88.064,170.329
	c-0.423-0.508-1.059-1.271-1.906-2.288c-0.499-0.624-0.856-1.078-1.072-1.364l1.497-1.252c0.074,0.117,0.216,0.286,0.424,0.508
	c0.688,0.725,1.535,1.742,2.542,3.051L88.064,170.329z M89.969,183.884c-0.8,0.995-1.524,2.107-2.173,3.334l-1.224-1.816
	c0.968-1.461,1.677-2.475,2.125-3.044l-1.044-7.427l-2.245,0.315l-0.274-1.95l4.144-0.582l1.305,9.284
	c1.213,1.534,3.024,2.098,5.433,1.698c3.758-0.402,7.644-0.948,11.656-1.638c-0.032,0.194-0.083,0.453-0.154,0.779
	c-0.103,0.519-0.163,0.937-0.176,1.255c-5.871,0.825-9.732,1.335-11.583,1.533C93.4,185.958,91.469,185.377,89.969,183.884
	L89.969,183.884z M90.693,170.244l-0.208-1.485l6.13-0.861l-0.574-4.085l1.899-0.267l0.574,4.085l6.303-0.886l0.209,1.485
	l-6.303,0.886l0.222,1.579l0.547-1.119c1.879,0.431,3.863,0.972,5.951,1.625l-0.582,1.502c-0.991-0.365-2.496-0.847-4.518-1.448
	c-0.611-0.166-1.068-0.291-1.374-0.375l0.313,2.228l-1.899,0.267l-0.405-2.878c-1.314,1.51-3.144,2.903-5.488,4.179
	c-0.066-0.053-0.179-0.227-0.337-0.521c-0.367-0.517-0.616-0.828-0.748-0.937c2.495-1.044,4.402-2.29,5.726-3.739L90.693,170.244z
	 M94.098,168.156c-0.464-0.375-1.408-1.033-2.83-1.969c-0.125-0.045-0.22-0.095-0.285-0.149l1.052-1.284
	c1.471,0.867,2.534,1.537,3.188,2.013L94.098,168.156z M93.163,178.417c-0.4,0.499-0.737,1.02-1.013,1.563
	c-0.151-0.23-0.428-0.539-0.834-0.924c-0.142-0.169-0.246-0.281-0.311-0.335c1.279-1.757,2.146-3.521,2.603-5.289l1.679,0.048
	c-0.12,0.396-0.245,0.761-0.375,1.094l3.022-0.424l0.209,1.485c-0.229,3.378-1.704,6.047-4.422,8.006
	c-0.133-0.107-0.369-0.327-0.708-0.658c-0.333-0.268-0.563-0.456-0.696-0.565c2.522-1.68,3.889-3.86,4.099-6.54l-2.072,0.291
	c-0.049,0.071-0.094,0.171-0.134,0.303c-0.196,0.281-0.31,0.517-0.34,0.71c0.627,0.291,1.288,0.609,1.983,0.952l-0.867,1.353
	c-0.19-0.099-0.542-0.302-1.054-0.609C93.608,178.671,93.353,178.518,93.163,178.417L93.163,178.417z M92.67,226.908l-0.248-1.764
	l4.058-0.57l-0.365-2.599l1.899-0.267l0.365,2.6l3.54-0.498l-0.378-2.692l1.813-0.255l0.378,2.692l3.626-0.51l-0.365-2.6
	l1.899-0.267l0.366,2.599l3.971-0.558l0.248,1.764l-3.972,0.558l0.339,2.414l-1.899,0.267l-0.339-2.414l-3.626,0.509l0.339,2.414
	l-1.813,0.255l-0.339-2.414l-3.54,0.498l0.339,2.414l-1.899,0.267l-0.339-2.414L92.67,226.908z M96.705,211.171
	c0.305,2.166-0.218,3.879-1.566,5.143l-0.894-0.726c0.923-0.951,1.299-2.234,1.131-3.851l-1.468,0.206l-0.431-3.063l2.849-0.4
	C96.396,208.975,96.522,209.871,96.705,211.171L96.705,211.171z M94.431,234.424l-0.587-4.178l19.513-2.742l0.587,4.177
	l-1.985,0.279l-0.326-2.321l-15.541,2.184l0.326,2.321L94.431,234.424z M97.677,242.488l-1.096-7.798l6.648-0.934l-0.287-2.042
	l2.072-0.292l0.287,2.042l6.734-0.946l0.718,5.106c0.292,1.663-0.396,2.612-2.065,2.846c-0.453,0.126-1.282,0.275-2.491,0.445
	c-0.102-0.302-0.236-0.629-0.403-0.985c-0.101-0.301-0.194-0.541-0.277-0.718c0.527-0.01,1.25-0.081,2.171-0.21
	c0.872-0.059,1.218-0.518,1.039-1.377l-0.43-3.063l-4.749,0.667l1.096,7.798l-2.072,0.291l-1.096-7.798l-4.663,0.655l0.848,6.035
	L97.677,242.488z M99.045,175.792l-0.196-1.393l2.59-0.364l-0.183-1.3l1.727-0.243l0.183,1.3l2.504-0.352l0.196,1.393l-2.504,0.352
	l0.378,2.692l2.677-0.376l0.208,1.486l-2.676,0.376l0.365,2.6l-1.727,0.243l-0.365-2.6l-3.454,0.485l0.407-3.371l1.295-0.182
	l-0.271,1.837l1.813-0.255l-0.378-2.692L99.045,175.792z M103.049,164.815c-1.013,1.152-1.723,1.946-2.131,2.382l-1.378-1.037
	c0.097-0.139,0.302-0.357,0.612-0.654c0.923-0.949,1.555-1.67,1.897-2.16l1.452,0.932
	C103.403,164.419,103.252,164.597,103.049,164.815L103.049,164.815z M110.682,167.152c-1.387-1.509-2.519-2.675-3.397-3.499
	l1.484-1.345c0.208,0.224,0.543,0.524,1.007,0.9c1.161,1.162,1.982,1.994,2.463,2.494L110.682,167.152z M112.328,180.743
	c-0.914,1.012-1.672,2.096-2.272,3.254l-1.263-2.095c0.155-0.147,0.408-0.436,0.759-0.864c0.692-0.917,1.19-1.555,1.492-1.914
	l-1.018-7.241l-2.331,0.328l-0.287-2.042l4.317-0.607l1.279,9.098c1.213,1.534,2.942,2.143,5.188,1.827
	c1.274-0.117,4.008-0.501,8.202-1.153c1.611-0.227,2.733-0.384,3.367-0.473c-0.126,0.775-0.232,1.484-0.317,2.127
	c-5.871,0.825-9.732,1.335-11.583,1.533C115.558,182.845,113.713,182.252,112.328,180.743L112.328,180.743z M110.748,194.526
	l-0.248-1.764l5.699-0.801l-0.274-1.95l1.986-0.279l0.274,1.95l5.267-0.74l-0.274-1.95l1.9-0.267l0.274,1.95l5.785-0.813
	l0.248,1.764l-5.785,0.813l0.157,1.114l-1.899,0.267l-0.157-1.114l-5.267,0.74l0.183,1.3l-1.986,0.279l-0.183-1.299L110.748,194.526
	z M130.338,195.465c-6.337,1.269-12.177,2.312-17.522,3.125l-0.692-1.796c6.216-0.874,12.061-1.884,17.535-3.032L130.338,195.465
	L130.338,195.465z M112.564,206.2l-0.261-1.857l9.152-1.286l-0.208-1.485l1.986-0.279l0.208,1.485l9.238-1.298l0.261,1.857
	l-8.03,1.128c2.284,1.636,5.238,2.61,8.863,2.92c-0.058,0.008-0.082,0.042-0.073,0.105c-0.349,0.869-0.577,1.532-0.689,1.99
	c-4.154-0.742-7.214-2.047-9.179-3.917l0.822,5.849l-1.986,0.279l-0.822-5.849c-1.431,2.347-3.976,4.502-7.631,6.469
	c-0.133-0.108-0.307-0.305-0.523-0.589c-0.367-0.517-0.653-0.887-0.86-1.11c3.314-1.475,5.843-3.313,7.589-5.516L112.564,206.2z
	 M115.875,166.517c-0.215,0.977-0.438,1.893-0.67,2.745c-0.181-0.037-0.488-0.121-0.916-0.25c-0.488-0.121-0.821-0.2-1.002-0.238
	c0.788-2.319,1.291-4.598,1.504-6.838l1.865,0.117c-0.023,0.256-0.081,0.674-0.176,1.255c-0.038,0.573-0.091,1.023-0.163,1.348
	l2.763-0.388l-0.522-3.713l1.986-0.279l0.521,3.713l5.181-0.728l0.248,1.764l-5.181,0.728l0.509,3.621l6.044-0.85l0.248,1.764
	l-4.576,0.643l0.587,4.178c0.073,0.937,0.479,1.322,1.219,1.154l0.518-0.073c0.7-0.035,1.045-0.493,1.039-1.377
	c0.02-0.696,0.001-1.451-0.054-2.265c0.609,0.167,1.188,0.307,1.731,0.419c0.055,0.813,0.078,1.599,0.067,2.357
	c-0.022,1.518-0.723,2.374-2.104,2.568l-1.64,0.23c-1.604,0.289-2.511-0.53-2.723-2.458l-0.626-4.456l-2.59,0.364
	c0.553,3.52-0.381,6.271-2.802,8.251c-0.531-0.43-1.093-0.888-1.689-1.372c2.235-1.64,3.099-3.844,2.592-6.613l-3.626,0.51
	l-0.248-1.764l6.648-0.934l-0.509-3.621L115.875,166.517L115.875,166.517z M116.218,202.751c-0.724-0.971-1.53-1.899-2.417-2.785
	l1.596-1.171c0.208,0.224,0.519,0.559,0.934,1.004c0.688,0.725,1.207,1.283,1.556,1.675L116.218,202.751z M118.8,234.314
	c-0.567,0.144-1.101,0.313-1.601,0.509l-0.779-1.784c0.417-0.374,0.876-1.07,1.38-2.087c0.528-0.832,1.03-1.849,1.508-3.052
	c-1.316,0.249-2.454,0.503-3.415,0.764l-0.779-1.784c0.408-0.436,0.761-1.054,1.06-1.853c0.961-2.344,1.667-4.431,2.114-6.261
	l2.164,0.358c-1.204,3.137-2.239,5.585-3.105,7.348l2.75-0.481c0.138-0.271,0.287-0.67,0.448-1.199
	c0.218-0.535,0.367-0.935,0.448-1.199l1.917,0.488c-1.278,3.02-2.562,5.789-3.851,8.304l4.005-0.942
	c0.009,0.063,0.018,0.125,0.026,0.186c-0.046,0.513-0.025,1.078,0.062,1.696c-0.74,0.167-1.705,0.397-2.896,0.691
	C119.573,234.174,119.088,234.274,118.8,234.314L118.8,234.314z M122.854,238.1c-2.356,0.772-4.204,1.41-5.542,1.915l-0.62-1.901
	c0.394-0.118,1.043-0.303,1.947-0.558c2.307-0.703,4.077-1.267,5.309-1.693c0.029,0.627,0.092,1.281,0.188,1.962
	C123.848,237.865,123.42,237.956,122.854,238.1L122.854,238.1z M121.799,201.115c-0.534-0.872-1.191-1.788-1.972-2.752l1.708-0.998
	c0.282,0.339,0.682,0.884,1.198,1.63c0.357,0.456,0.61,0.799,0.761,1.029L121.799,201.115z M136.155,223.733
	c-0.267,0.605-0.521,1.304-0.762,2.095c-2.909-1.484-5.208-3.434-6.896-5.847c-0.848,2.329-2.059,4.36-3.634,6.097l8.634-1.214
	l0.261,1.857l-8.807,1.238l-0.248-1.764c-0.4,0.499-0.832,0.969-1.298,1.414c-0.525-0.81-0.934-1.415-1.224-1.816
	c2.559-2.253,4.304-5.085,5.232-8.499h2.025l-0.241,0.792C131.085,220.659,133.404,222.543,136.155,223.733L136.155,223.733z
	 M125.81,240.335l-1.344-9.563l10.62-1.493l1.344,9.563l-1.899,0.267l-0.183-1.3l-6.821,0.958l0.183,1.3L125.81,240.335z
	 M129.649,197.456c-0.854,1.445-1.7,2.733-2.539,3.859l-1.724-0.988c0.888-1.197,1.709-2.449,2.466-3.755L129.649,197.456
	L129.649,197.456z M126.626,232.362l0.652,4.642l6.821-0.959l-0.652-4.642L126.626,232.362z M129.478,166.786l-0.287-2.042
	l2.504-0.352l-0.613-4.363l2.072-0.292l0.613,4.363l3.885-0.546l-0.757-5.385l1.986-0.279l0.757,5.384l5.18-0.728l-0.757-5.385
	l1.986-0.279l0.757,5.385l2.849-0.4l0.287,2.042l-2.849,0.4l1.122,7.984l-9.152,1.286l-1.122-7.984l-3.885,0.546l1.644,11.698
	l15.541-2.184l0.274,1.949L133.9,180.08l-1.918-13.647L129.478,166.786z M133.924,196.573l-0.248-1.764l6.389-0.898
	c0.186-0.341,0.409-0.846,0.667-1.514c0.129-0.333,0.214-0.565,0.254-0.699l2.125,0.08c-0.041,0.133-0.129,0.335-0.267,0.606
	c-0.21,0.598-0.388,1.001-0.534,1.211l11.397-1.602l0.248,1.764l-12.605,1.772c-0.325,0.613-0.678,1.231-1.06,1.853l11.483-1.614
	l1.201,8.541c0.292,1.663-0.479,2.654-2.312,2.976c-0.682,0.158-1.83,0.352-3.44,0.578c-0.203-0.603-0.429-1.17-0.68-1.703
	c0.978-0.138,2.014-0.283,3.108-0.437c1.044-0.084,1.481-0.525,1.311-1.32l-0.078-0.557l-10.447,1.468l0.521,3.713l-1.986,0.279
	l-1.161-8.263c-0.75,0.927-1.583,1.896-2.497,2.907c-0.242-0.471-0.623-1.08-1.138-1.828c2.019-1.924,3.662-4.018,4.929-6.278
	L133.924,196.573z M151.038,191.801c-2.597-0.519-5.161-1.01-7.691-1.476c-1.592,0.792-4.221,1.919-7.889,3.381
	c-0.309-0.524-0.642-1.013-0.999-1.469c2.175-0.81,4.202-1.632,6.081-2.464c-1.995-0.413-3.887-0.715-5.674-0.906l0.754-1.526
	c0.238,0.03,0.568,0.079,0.989,0.145c2.76,0.433,4.953,0.788,6.577,1.064c2.141-1.058,4.157-2.161,6.05-3.312l1.305,1.142
	c-0.705,0.416-1.738,1.002-3.098,1.761c-0.705,0.416-1.221,0.708-1.549,0.88l5.687,1L151.038,191.801z M139.76,222.461
	c-0.472,0.824-0.976,1.621-1.513,2.39c-0.16-0.293-0.422-0.698-0.787-1.215c-0.216-0.285-0.367-0.517-0.45-0.694
	c1.718-2.386,2.951-4.895,3.697-7.525l2.003,0.476c-0.411,1.257-0.887,2.46-1.43,3.609l1.357,9.655l-1.899,0.267L139.76,222.461
	L139.76,222.461z M142.354,230.901c-0.421,2.016-0.893,3.881-1.415,5.595l-1.931-0.581c0.637-1.73,1.089-3.529,1.354-5.397
	L142.354,230.901L142.354,230.901z M139.548,199.001l0.234,1.671l10.447-1.468l-0.235-1.671L139.548,199.001z M139.925,165.318
	l0.835,5.942l5.18-0.728l-0.835-5.942L139.925,165.318z M139.978,202.064l0.261,1.857l10.447-1.468l-0.261-1.856L139.978,202.064z
	 M146.401,218.972c-0.428,1.134-0.995,2.317-1.702,3.553c-0.133-0.107-0.356-0.234-0.669-0.379
	c-0.456-0.315-0.812-0.549-1.067-0.702c1.244-2.005,2.194-4.221,2.852-6.649l2.038,0.092c-0.082,0.265-0.202,0.66-0.362,1.187
	c-0.178,0.404-0.284,0.703-0.314,0.896l9.411-1.323l0.274,1.95l-0.805,3.048c-0.314-0.146-0.859-0.258-1.632-0.339
	c-0.125-0.044-0.215-0.064-0.272-0.057l0.71-2.466L146.401,218.972L146.401,218.972z M147.127,236.668
	c-1.843,0.259-2.893-0.54-3.154-2.397l-0.548-3.899l1.986-0.279l0.47,3.342c0.13,0.928,0.684,1.324,1.664,1.187l3.626-0.51
	c1.283-0.055,1.909-0.614,1.876-1.684c0.086-0.642,0.105-1.34,0.059-2.091c0.247,0.093,0.644,0.194,1.188,0.307
	c0.363,0.076,0.635,0.132,0.816,0.169c0.012,0.504-0.033,1.235-0.132,2.196c-0.041,0.133-0.056,0.229-0.047,0.291
	c-0.128,1.595-1.118,2.491-2.968,2.689L147.127,236.668z M148.317,222.584c-1.081,1.92-2.159,3.649-3.233,5.188
	c-0.531-0.43-1.08-0.795-1.65-1.093c0.994-1.276,2.022-2.935,3.086-4.978L148.317,222.584L148.317,222.584z M149.985,232.574
	c-0.905-1.009-1.92-1.97-3.047-2.885l1.312-1.32c1.05,0.799,2.115,1.69,3.193,2.675L149.985,232.574z M150.05,228.021
	c-0.576,0.081-1.238,0.174-1.986,0.279c-0.194-0.541-0.424-1.139-0.692-1.796c0.411,0.006,0.991-0.044,1.74-0.15
	c0.92-0.129,1.295-0.592,1.125-1.389l-0.718-5.106l1.899-0.267l0.757,5.384C152.476,226.702,151.768,227.717,150.05,228.021
	L150.05,228.021z M166.637,176.24l-1.004-7.148l1.727-0.243c-1.734-0.64-3.367-1.609-4.899-2.909l0.246-0.129l-0.259,0.036
	c-1.075,1.54-2.406,2.927-3.994,4.159l1.64-0.231c0.078,0.557,0.129,1.34,0.154,2.345c-0.009-0.061,0,0,0.026,0.186
	c0.048,2.014-1.037,3.9-3.254,5.664c-0.579-0.361-1.192-0.748-1.836-1.162c2.145-1.438,3.152-2.841,3.018-4.211
	c0.013-0.317,0.002-0.82-0.036-1.51c0.013-0.317,0.008-0.569-0.018-0.755c-1.317,1.07-2.849,2.074-4.595,3.013
	c-0.076-0.115-0.188-0.289-0.337-0.521c-0.142-0.169-0.404-0.573-0.787-1.215c3.181-1.583,5.657-3.382,7.429-5.399l-5.958,0.837
	l-1.435-10.212l16.922-2.378l1.436,10.212l-6.044,0.849c2.01,1.36,4.864,2.251,8.564,2.678c-0.281,0.924-0.473,1.645-0.576,2.164
	c-1.93-0.359-3.636-0.814-5.122-1.363l0.979,6.963L166.637,176.24z M157.172,226.073c-0.397-0.323-0.965-0.811-1.703-1.465
	c-1.078-0.984-1.948-1.745-2.61-2.284l1.211-1.401c1.457,1.184,2.948,2.395,4.473,3.632L157.172,226.073z M158.276,233.302
	c-1.063-1.301-2.351-2.73-3.86-4.286l1.397-1.333c1.5,1.493,2.849,2.946,4.046,4.354L158.276,233.302z M154.698,158.321l0.352,2.506
	l5.526-0.776l-0.353-2.506L154.698,158.321z M155.285,162.499l0.353,2.506l5.525-0.776l-0.352-2.507L155.285,162.499z
	 M156.059,189.951l-0.3-2.135l8.375-1.177l-0.47-3.342l2.159-0.303l0.47,3.342l8.461-1.189l0.3,2.135l-8.461,1.189l0.509,3.621
	l7.167-1.007l0.287,2.042l-7.166,1.007l0.509,3.621l9.152-1.286l0.3,2.135l-9.152,1.286l0.744,5.292l-2.158,0.303l-0.744-5.292
	l-9.152,1.286l-0.3-2.135l9.152-1.286l-0.509-3.621l-7.167,1.007l-0.287-2.042l7.166-1.007l-0.509-3.621L156.059,189.951z
	 M179.521,220.285c-4.706-1.736-8.146-3.873-10.321-6.407c-1.935,3.365-4.73,6.44-8.388,9.226c-0.574-0.739-1.068-1.332-1.483-1.78
	c4.159-2.982,7.049-6.229,8.668-9.739l2.37-0.049l-0.254,0.698c2.604,2.664,6.019,4.614,10.243,5.85L179.521,220.285z
	 M163.859,222.865l-0.287-2.042l12.778-1.796l0.287,2.042l-5.353,0.752l0.457,3.249l6.648-0.934l0.287,2.042l-6.648,0.934
	l0.509,3.621l8.547-1.201l0.261,1.857l-19.254,2.706l-0.261-1.856l8.547-1.202l-0.509-3.621l-6.648,0.935l-0.287-2.042l6.648-0.935
	l-0.457-3.249L163.859,222.865z M167.649,156.5l-5.526,0.777l0.353,2.506l5.526-0.776L167.649,156.5z M162.71,161.455l0.352,2.506
	l5.526-0.776l-0.352-2.507L162.71,161.455z M184.477,161.606c-2.252,1.517-5.447,3.007-9.585,4.472
	c-0.101-0.301-0.339-0.741-0.713-1.32c-0.102-0.301-0.19-0.509-0.264-0.625c3.548-1.067,6.321-2.214,8.321-3.442
	c-1.512-0.734-2.92-1.767-4.222-3.099c-0.765,1.244-1.681,2.446-2.75,3.605c-0.49-0.562-0.942-1.066-1.357-1.514
	c2.148-2.257,3.812-4.827,4.992-7.707l2.211,0.068c-0.308,0.739-0.652,1.417-1.034,2.039l10.706-1.505l0.3,2.135
	c-1.392,2.216-2.929,4.009-4.614,5.382c1.896,0.554,4.656,0.766,8.277,0.635c-0.072,0.327-0.184,0.783-0.335,1.373
	c-0.064,0.388-0.111,0.678-0.142,0.872C190.208,162.917,186.943,162.459,184.477,161.606L184.477,161.606z M178.575,174.743
	l-1.265-9.005l14.764-2.075l1.266,9.005l-1.986,0.279l-0.183-1.3l-10.792,1.517l0.183,1.3L178.575,174.743z M178.079,188.09
	l-0.652-4.642l8.72-1.226c-0.035-0.247-0.141-0.579-0.316-0.997c-0.127-0.486-0.233-0.819-0.316-0.997l2.305-0.514l0.659,2.18
	l8.375-1.177l0.652,4.642l-1.986,0.279l-0.417-2.971l-15.455,2.172l0.417,2.971L178.079,188.09z M184.164,159.378
	c1.547-1.101,3.009-2.6,4.386-4.498l-9.325,1.311C180.965,157.714,182.611,158.777,184.164,159.378L184.164,159.378z
	 M179.556,167.316l0.587,4.178l10.792-1.517l-0.587-4.178L179.556,167.316z M181.38,203.437l-1.252-8.913l17.181-2.415l1.253,8.912
	l-1.986,0.279l-0.157-1.114l-13.21,1.856l0.157,1.114L181.38,203.437z M181.135,187.282l-0.17-1.207l13.21-1.856l0.169,1.207
	L181.135,187.282z M181.758,192.969l-0.6-4.271l13.642-1.917l0.6,4.271L181.758,192.969z M181.644,214.119l-0.261-1.857l4.145-0.582
	c-0.242-0.471-0.573-1.15-0.991-2.039l1.947-0.558c0.083,0.178,0.243,0.472,0.476,0.88c0.269,0.658,0.481,1.132,0.64,1.425
	l3.54-0.498l0.261,1.857L181.644,214.119z M181.796,219.588l-0.248-1.764l3.108-0.437c-0.358-0.454-0.856-1.078-1.496-1.873
	c-0.274-0.277-0.449-0.473-0.523-0.589l1.35-1.042c0.141,0.17,0.386,0.452,0.735,0.844c0.623,0.67,1.112,1.232,1.47,1.687
	l-1.277,0.937l2.676-0.376c0.526-1.272,0.969-2.503,1.331-3.69l1.818,0.407c-0.21,0.598-0.562,1.437-1.056,2.515
	c-0.081,0.264-0.146,0.432-0.194,0.5l2.936-0.413l0.248,1.764L181.796,219.588z M182.322,195.73l0.261,1.857l5.612-0.789
	l-0.261-1.857L182.322,195.73z M182.915,223.786l-0.261-1.857l4.145-0.583l-0.326-2.321l1.899-0.267l0.326,2.321l3.885-0.546
	l0.261,1.857l-3.885,0.546l0.757,5.385c0.292,1.663-0.364,2.638-1.966,2.927c-0.518,0.073-1.18,0.166-1.986,0.279
	c-0.127-0.488-0.363-1.118-0.706-1.889c0.575-0.081,1.123-0.158,1.641-0.23c0.863-0.121,1.217-0.519,1.065-1.191l-0.705-5.013
	L182.915,223.786z M182.766,198.887l0.235,1.671l5.612-0.789l-0.235-1.671L182.766,198.887z M186.072,224.952
	c-0.358,1.628-0.84,3.211-1.446,4.748l-1.546-0.351c0.517-1.334,0.969-2.913,1.359-4.735L186.072,224.952L186.072,224.952z
	 M183.326,189.719l0.235,1.671l9.583-1.347l-0.235-1.671L183.326,189.719z M192.266,227.679c-0.292-0.4-0.691-0.944-1.198-1.63
	c-0.574-0.739-1.002-1.279-1.284-1.619l1.363-0.949c0.865,1.142,1.683,2.163,2.456,3.063L192.266,227.679z M195.532,193.874
	l-5.612,0.789l0.261,1.856l5.612-0.789L195.532,193.874z M190.363,197.819l0.235,1.671l5.612-0.789l-0.234-1.671L190.363,197.819z
	 M200.035,229.711l-1.644-11.698l-2.763,0.388l0.065,0.464c0.802,4.874,0.464,8.739-1.012,11.597
	c-0.066-0.054-0.224-0.126-0.471-0.218c-0.257-0.153-0.732-0.403-1.426-0.746c1.423-2.409,1.754-5.895,0.996-10.459l-1.252-8.913
	c2.851-0.59,5.484-1.275,7.899-2.057l0.878,1.864c-1.799,0.57-4.009,1.132-6.63,1.689l0.679,4.828l7.166-1.007l0.274,1.95
	l-2.503,0.352l1.644,11.698L200.035,229.711z M214.033,162c-0.559,0.206-1.183,0.355-1.874,0.453
	c-0.11-0.363-0.266-0.846-0.468-1.449c-0.093-0.238-0.177-0.416-0.251-0.533c0.238,0.03,0.732-0.008,1.481-0.113
	c0.756-0.043,1.053-0.652,0.887-1.829c-0.03-0.626-0.116-1.655-0.258-3.088c-0.047-0.75-0.092-1.28-0.135-1.59l-3.138,1.482
	l1.383,9.841l-1.899,0.267l-1.292-9.191l-2.878,1.446l1.187,8.448c0.076,1.378,0.853,1.899,2.333,1.565l4.49-0.631
	c1.447-0.141,2.184-0.748,2.209-1.825c0.051-0.891,0.063-1.839,0.04-2.846c0.676,0.222,1.315,0.383,1.917,0.488
	c0.001,1.263-0.049,2.374-0.147,3.334c-0.071,1.587-1.118,2.491-3.141,2.713l-5.871,0.825c-2.18,0.369-3.392-0.534-3.638-2.708
	l-1.187-8.448l-1.476,0.775l-0.632-1.994l0.246-0.129l-1.899,0.267l1.161,8.263c0.337-0.11,0.833-0.337,1.489-0.683
	c0.385-0.18,0.688-0.317,0.911-0.412c0.087,0.62,0.211,1.296,0.374,2.03c-0.723,0.291-2.129,0.931-4.221,1.918
	c-1.001,0.394-1.752,0.687-2.253,0.885l-0.62-1.901l2.499-1.014l-1.239-8.819l-2.072,0.291l-0.274-1.95l2.072-0.291l-0.874-6.22
	l1.899-0.267l0.874,6.22l1.986-0.279l0.274,1.949l1.489-0.683l-0.744-5.292l1.899-0.267l0.652,4.642l2.878-1.446l-0.861-6.127
	l1.899-0.267l0.77,5.478l4.945-2.399c0.423,3.854,0.694,6.403,0.811,7.649C215.986,160.653,215.415,161.806,214.033,162L214.033,162
	z M204.645,182.938c-0.958,0.703-1.94,1.441-2.946,2.213c-0.375-0.578-0.832-1.114-1.371-1.606c3.302-1.979,5.89-4.236,7.765-6.771
	l2.297,0.056c-0.586,0.84-1.186,1.587-1.798,2.241l9.238-1.298l0.274,1.949c-3.613,4.358-9.22,8.112-16.818,11.263
	c-0.268-0.656-0.619-1.27-1.051-1.84c3.176-1.204,5.846-2.462,8.009-3.777c-0.257-0.153-0.617-0.417-1.08-0.795
	C206.121,183.836,205.28,183.292,204.645,182.938L204.645,182.938z M208.747,191.45c-1.85,1.46-3.619,2.655-5.307,3.586
	c-0.216-0.285-0.503-0.654-0.86-1.11c-0.216-0.285-0.362-0.484-0.437-0.601c4.1-2.153,7.348-4.725,9.746-7.713l2.237,0.254
	c-0.099,0.141-0.273,0.355-0.526,0.642c-0.506,0.577-0.857,1.005-1.052,1.284l7.512-1.056l0.261,1.857
	c-3.417,5.341-9.228,9.312-17.431,11.917c-0.26-0.595-0.614-1.239-1.064-1.934c3.844-1.046,6.897-2.294,9.158-3.749
	c-0.663-0.537-1.667-1.217-3.016-2.038c0.19,0.101,0.057-0.008-0.397-0.323L208.747,191.45L208.747,191.45z M206.408,228.722
	l-2.557-18.196l2.331-0.328c0.022-0.255,0.061-0.608,0.115-1.058c0.134-0.713,0.21-1.639,0.226-2.777l2.211,0.068
	c-0.132,1.155-0.292,2.313-0.48,3.476l3.886-0.546l2.531,18.011l-1.899,0.267l-0.248-1.764l-4.403,0.619l0.274,1.95L206.408,228.722
	z M208.649,185.121c2.49-1.486,4.684-3.214,6.579-5.185l-8.634,1.213l-0.625,0.562c1.273,0.706,2.554,1.472,3.845,2.3
	L208.649,185.121L208.649,185.121z M206.124,212.29l0.718,5.106l4.403-0.619l-0.718-5.106L206.124,212.29z M207.128,219.438
	l0.744,5.292l4.403-0.619l-0.744-5.292L207.128,219.438z M211.793,194.335c2.145-1.438,4.09-3.256,5.836-5.459l-7.166,1.007
	c-0.466,0.444-0.961,0.893-1.484,1.344c0.512,0.307,1.223,0.775,2.134,1.404c0.645,0.416,1.158,0.722,1.538,0.92L211.793,194.335
	L211.793,194.335z M221.664,226.389c-1.152,0.162-2.361,0.332-3.626,0.509c-0.154-0.673-0.403-1.396-0.745-2.167
	c0.756-0.044,1.883-0.17,3.38-0.38c1.628-0.103,2.326-0.989,2.091-2.661c-0.077-1.376-0.399-4.299-0.968-8.763
	c-0.126-1.308-0.227-2.24-0.305-2.797l-5.181,0.728c-0.152,0.589-0.413,1.447-0.783,2.571c-0.161,0.528-0.281,0.924-0.361,1.187
	c-0.57-0.299-1.198-0.589-1.883-0.872c1.007-2.854,1.689-5.728,2.046-8.619l2.051,0.185c-0.064,0.388-0.163,0.938-0.296,1.651
	c-0.126,0.775-0.221,1.356-0.283,1.744l6.389-0.898c0.557,3.961,1.093,8.62,1.612,13.974
	C225.176,224.443,224.129,225.979,221.664,226.389L221.664,226.389z M219.124,220.214c-0.35-0.392-0.873-0.981-1.569-1.768
	c-0.989-1.187-1.761-2.087-2.317-2.704l1.397-1.333c0.489,0.563,1.215,1.344,2.179,2.345c0.821,0.832,1.443,1.501,1.867,2.01
	L219.124,220.214z M238.472,166.141L238.472,166.141c-2.822-0.866-6.785-1.917-11.89-3.157l0.568-1.594
	c0.782,0.143,1.995,0.415,3.636,0.814c0.609,0.167,1.067,0.292,1.373,0.375c0.426-0.311,1.036-0.775,1.83-1.393
	c0.794-0.616,1.374-1.076,1.743-1.381l-11.828,1.662l0.6,4.271c1.971-0.592,3.625-1.14,4.963-1.644
	c0.021,0.565,0.075,1.157,0.162,1.776c-0.501,0.196-1.281,0.495-2.339,0.897c-1.223,0.487-2.032,0.79-2.425,0.909
	c-0.107,0.078-0.242,0.16-0.406,0.247c-0.608,0.275-1.018,0.489-1.23,0.646l-1.271-1.525c0.458-0.506,0.638-1.1,0.542-1.78
	l-1.605-11.419c-0.696,0.477-1.445,0.993-2.248,1.547c-0.093-0.239-0.346-0.582-0.761-1.029c-0.225-0.347-0.375-0.578-0.45-0.694
	c4.565-2.597,7.602-5.423,9.11-8.475l2.444-0.154c-0.196,0.281-0.358,0.587-0.487,0.92c2.526,2.106,5.833,3.504,9.921,4.191
	c-0.111,0.458-0.309,1.148-0.589,2.071c-0.248-0.091-0.61-0.166-1.088-0.226c-0.248-0.091-0.796-0.234-1.645-0.432l1.096,7.798
	l0.086-0.012l1.504,1.303c-0.377,0.242-0.938,0.638-1.683,1.183c-0.803,0.555-1.389,0.985-1.756,1.288
	c0.791,0.206,2,0.445,3.623,0.722c0.544,0.113,0.939,0.214,1.188,0.306L238.472,166.141z M221.82,181.757l-0.274-1.95l2.677-0.376
	l-0.64-4.549l1.899-0.267l0.64,4.549l2.245-0.315l0.274,1.949l-2.245,0.315l0.457,3.25l0.513-0.735
	c1.05,0.799,2.074,1.602,3.068,2.409l-1,1.655c-0.35-0.392-0.888-0.884-1.616-1.477c-0.341-0.331-0.609-0.577-0.808-0.738
	l1.592,11.326l-1.899,0.267l-1.592-11.326c-0.298,2.063-0.868,4.067-1.708,6.015c-0.303-0.904-0.665-1.8-1.082-2.688
	c1.142-2.306,1.839-4.865,2.09-7.678L221.82,181.757z M228.844,150.264c0.251,0.533,0.451,0.916,0.602,1.146l-1.416,0.578
	l6.043-0.849c-2.393-0.736-4.563-1.977-6.51-3.724c-1.417,2.031-3.19,3.826-5.318,5.386l5.353-0.752
	c-0.26-0.594-0.662-1.358-1.203-2.292l1.761-0.626C228.315,149.424,228.544,149.802,228.844,150.264L228.844,150.264z
	 M222.912,154.411l0.274,1.95l10.447-1.468l-0.274-1.949L222.912,154.411z M223.395,157.846l0.287,2.042l10.447-1.468l-0.287-2.042
	L223.395,157.846z M231.446,214.499c-0.216-0.285-0.574-0.739-1.072-1.364c-1.571-1.988-2.871-3.509-3.899-4.564l1.57-1.357
	c0.83,0.894,1.984,2.215,3.462,3.963c0.754,0.778,1.31,1.394,1.668,1.848L231.446,214.499z M248.248,220.658
	c-0.422,0.753-0.816,1.502-1.181,2.249c-5.131-1.425-8.544-4.416-10.242-8.975c-0.181,4.57-2.711,8.49-7.591,11.765l-1.655-1.756
	c5.612-3.501,8.088-8.015,7.43-13.541c-0.009-0.061-0.026-0.186-0.052-0.372c-0.268-2.739-0.558-5.223-0.871-7.451l2.158-0.303
	c0.122,0.867,0.266,2.109,0.436,3.726c0.227,1.61,0.371,2.852,0.436,3.726C238.989,215.964,242.7,219.608,248.248,220.658
	L248.248,220.658z M229.651,180.467l-0.274-1.95l6.476-0.91c0.565-1.405,1.167-2.971,1.804-4.703l1.991,0.383
	c-0.615,1.475-1.218,2.822-1.809,4.041l3.54-0.498l0.274,1.95l-5.18,0.728l0.457,3.249l4.576-0.643l0.274,1.95l-4.576,0.643
	l0.483,3.435l5.871-0.825l0.274,1.95l-5.871,0.825l0.73,5.199l-1.986,0.279l-0.73-5.199l-5.871,0.825l-0.274-1.95l5.871-0.825
	l-0.483-3.435l-4.317,0.606l-0.274-1.95l4.317-0.606l-0.457-3.25L229.651,180.467z M232.532,177.79
	c-0.865-1.14-1.716-2.188-2.555-3.144l1.536-0.973c0.48,0.5,1.178,1.287,2.092,2.356c0.216,0.286,0.394,0.513,0.536,0.682
	L232.532,177.79z M244.978,206.16c-0.753,1.748-1.945,4.124-3.577,7.129l-1.836-1.162c1.382-2.277,2.554-4.586,3.516-6.932
	L244.978,206.16L244.978,206.16z M239.989,150.025l-0.287-2.042l3.108-0.437l-0.613-4.363l1.986-0.279l0.613,4.363l3.022-0.424
	l0.287,2.042l-3.022,0.424l0.443,3.157l0.66-0.945c0.463,0.377,1.217,0.934,2.26,1.67c0.645,0.416,1.1,0.73,1.366,0.944l-1.16,1.772
	c-1.326-1.076-2.316-1.852-2.969-2.329l1.618,11.512l-1.985,0.279l-1.579-11.233c-0.533,2.474-1.204,4.588-2.014,6.342
	c-0.462-1.197-0.831-2.155-1.108-2.874c1.103-2.174,1.93-4.846,2.483-8.017L239.989,150.025z M249.044,208.809
	c0.009,0.063-0.036,0.164-0.133,0.303c-0.441-0.632-0.874-1.203-1.297-1.711c0.899-1.956,1.507-4.313,1.824-7.073l1.865,0.117
	c-0.091,1.023-0.249,1.992-0.472,2.906l3.626-0.509l0.248,1.764l-4.403,0.619c-0.232,0.854-0.542,1.78-0.93,2.781l4.921-0.691
	l0.248,1.764l-2.158,0.303l0.404,2.878l2.417-0.339l0.261,1.856l-2.417,0.34l0.679,4.828l2.083-2.092
	c0.092,0.24,0.198,0.573,0.316,0.997c0.118,0.426,0.195,0.763,0.23,1.009c-0.436,0.25-1.07,0.75-1.903,1.498
	c-0.36,0.366-0.646,0.626-0.858,0.783c-0.245,0.35-0.521,0.672-0.832,0.969l-1.258-1.433c0.332-0.553,0.457-1.137,0.369-1.756
	l-0.639-4.549l-2.417,0.34l-0.261-1.857l2.417-0.34l-0.405-2.878l-1.381,0.194L249.044,208.809L249.044,208.809z M249.24,148.82
	l-0.287-2.042l6.648-0.935l-0.626-4.456l1.986-0.279l0.626,4.457l2.677-0.376l0.287,2.042l-2.677,0.376l1.696,12.069
	c0.353,2.095-0.506,3.29-2.578,3.581c-0.625,0.15-1.714,0.335-3.268,0.554c-0.009-0.062-0.018-0.125-0.026-0.186
	c-0.247-0.912-0.457-1.578-0.632-1.994c0.468-0.004,1.423-0.105,2.862-0.308c1.274-0.117,1.8-0.758,1.579-1.926l-1.422-10.119
	c-1.255,4.848-3.386,8.902-6.391,12.164l-1.703-1.465c3.274-3.426,5.446-7.393,6.516-11.897L249.24,148.82z M251.431,189.423
	c0.305,2.166-0.218,3.879-1.566,5.143l-0.894-0.727c0.923-0.951,1.299-2.234,1.131-3.851l-1.468,0.206l-0.431-3.063l2.849-0.4
	C251.123,187.227,251.249,188.123,251.431,189.423L251.431,189.423z M256.802,207.624l-1.004-7.148l10.102-1.42l1.005,7.148
	l-4.058,0.57l0.253,2.426l5.267-0.74l1.174,8.355c0.393,1.964-0.417,3.088-2.432,3.371c-0.798,0.175-1.627,0.324-2.491,0.445
	c-0.145-0.611-0.351-1.245-0.62-1.901c0.527-0.012,1.308-0.089,2.344-0.235c1.16-0.101,1.604-0.699,1.333-1.796l-0.861-6.127
	l-3.626,0.51c0.052,0.371,0.046,0.75-0.016,1.138c0.711,0.468,1.688,1.152,2.929,2.05c0.579,0.361,1,0.649,1.266,0.863l-1.013,1.563
	c-1.59-1.291-2.808-2.224-3.651-2.8c-0.344,1.312-1.26,2.733-2.746,4.268c-0.133-0.107-0.307-0.303-0.523-0.589
	c-0.266-0.214-0.464-0.375-0.597-0.484l0.613,4.363l-1.727,0.243l-1.618-11.512l5.267-0.74c-0.104-0.743-0.218-1.546-0.339-2.414
	L256.802,207.624z M257.772,201.997l0.509,3.621l6.562-0.922l-0.509-3.621L257.772,201.997z M258.093,211.797l0.691,4.92
	c1.832-1.583,2.724-3.38,2.676-5.394L258.093,211.797z M269.05,178.239c-0.792,1.879-1.4,3.195-1.822,3.948
	c-0.294-0.842-0.647-1.675-1.056-2.502c1.556-3.121,2.648-6.841,3.274-11.158l2.15,0.266c-0.283,1.744-0.657,3.469-1.122,5.175
	l2.335,16.618l-1.986,0.279L269.05,178.239L269.05,178.239z M269.517,157.806c0.305,2.166-0.218,3.88-1.566,5.143l-0.894-0.726
	c0.923-0.951,1.299-2.234,1.131-3.852l-1.468,0.207l-0.431-3.064l2.849-0.4C269.208,155.609,269.334,156.506,269.517,157.806
	L269.517,157.806z M274.482,219.436l-1.722-12.254c-0.534,1.211-1.072,2.392-1.615,3.541c-0.168-0.355-0.398-0.953-0.693-1.796
	c-0.11-0.363-0.207-0.634-0.29-0.812c1.433-3.167,2.438-6.875,3.015-11.122l2.064,0.278c-0.298,2.063-0.674,3.977-1.13,5.745
	l2.271,16.154L274.482,219.436z M278.282,171.261c-1.604,0.289-3.317,0.625-5.141,1.007c-0.035-0.247-0.117-0.614-0.243-1.102
	c-0.127-0.486-0.233-0.819-0.316-0.997c5.318-0.999,9.389-1.887,12.216-2.664l0.732,2.075c-1.644,0.42-3.377,0.822-5.202,1.205
	l0.914,6.499l6.043-0.85l0.287,2.042l-6.044,0.85l0.939,6.684l5.612-0.789l0.274,1.95l-13.469,1.893l-0.274-1.95l5.785-0.813
	l-0.939-6.685l-6.216,0.874l-0.287-2.042l6.216-0.874L278.282,171.261L278.282,171.261z M275.891,203.144l-0.261-1.856l5.698-0.801
	l-0.626-4.457l1.899-0.267l0.626,4.456l6.303-0.886l0.261,1.856l-5.353,0.752c2.003,3.822,4.523,6.718,7.56,8.688
	c-0.081,0.265-0.226,0.695-0.435,1.292c-0.112,0.458-0.213,0.787-0.301,0.989c-3.279-2.441-5.795-5.529-7.552-9.258l1.135,8.077
	l3.281-0.461l0.261,1.857l-3.281,0.461l0.6,4.271l-1.899,0.267l-0.6-4.271l-3.281,0.461l-0.261-1.857l3.281-0.461l-1.122-7.984
	c-0.751,4.271-2.278,8.021-4.583,11.247c-0.16-0.292-0.488-0.751-0.986-1.376c-0.216-0.285-0.362-0.484-0.437-0.601
	c2.445-3.057,4.052-6.66,4.82-10.807L275.891,203.144z M283.926,143.751l-0.274-1.95l2.331-0.328l-0.613-4.363l1.813-0.255
	l0.613,4.363l1.9-0.267l0.274,1.95l-1.899,0.267l0.613,4.363c0.221-0.093,0.52-0.263,0.897-0.505
	c0.442-0.188,0.747-0.325,0.911-0.412c0.043,0.311,0.124,0.678,0.243,1.102c0.061,0.434,0.109,0.774,0.144,1.021
	c-0.164,0.087-0.41,0.216-0.738,0.388c-0.5,0.197-0.887,0.377-1.157,0.541l0.939,6.684c0.274,1.539-0.27,2.467-1.633,2.786
	c-0.173,0.024-0.458,0.096-0.851,0.214c-0.403,0.057-0.69,0.097-0.863,0.122c-0.026-0.186-0.124-0.456-0.29-0.812
	c-0.136-0.549-0.255-0.974-0.355-1.275c0.354,0.012,0.76-0.012,1.222-0.077c0.691-0.097,0.997-0.424,0.919-0.981l-0.809-5.756
	c-0.714,0.353-1.452,0.741-2.214,1.163l-0.486-2.204c0.106-0.077,0.27-0.164,0.492-0.258c0.492-0.258,1.127-0.537,1.907-0.836
	l-0.705-5.013L283.926,143.751z M290.473,172.2c-0.472,0.824-0.976,1.621-1.513,2.39c-0.16-0.292-0.422-0.698-0.787-1.215
	c-0.216-0.285-0.367-0.516-0.45-0.694c1.718-2.387,2.951-4.896,3.697-7.525l2.004,0.476c-0.411,1.258-0.887,2.46-1.43,3.609
	l1.357,9.655l-1.899,0.267L290.473,172.2L290.473,172.2z M293.067,180.64c-0.421,2.016-0.893,3.881-1.415,5.595l-1.931-0.581
	c0.637-1.73,1.089-3.528,1.354-5.397L293.067,180.64L293.067,180.64z M299.498,142.414l-0.222-1.578l2.417-0.34l-0.339-2.414
	l-2.677,0.376l-0.235-1.671l4.49-0.631l1.37,9.748l-5.353,0.752l0.287,2.042l4.749-0.667l0.248,1.764
	c-0.672,1.483-1.756,2.961-3.251,4.433c1.508,0.294,3.435,0.431,5.782,0.418c-0.023,0.255-0.095,0.582-0.215,0.977
	c-0.112,0.457-0.213,0.787-0.301,0.989c-2.899-0.161-5.244-0.558-7.035-1.189c-1.818,1.264-4.099,2.375-6.84,3.328
	c-0.076-0.117-0.259-0.375-0.549-0.775c-0.225-0.347-0.413-0.637-0.562-0.868c2.462-0.852,4.465-1.637,6.007-2.359
	c-1.538-0.919-2.934-2.08-4.187-3.482l-0.95,0.133l-0.235-1.671l5.439-0.764l-0.287-2.042l-5.353,0.752l-1.305-9.284
	c1.116-0.409,2.331-0.958,3.642-1.648l0.999,1.469c-0.936,0.448-1.821,0.824-2.659,1.131l0.339,2.414l2.59-0.364l0.222,1.579
	l-2.59,0.364l0.353,2.507l3.54-0.498l-1.356-9.655l1.899-0.267l1.357,9.655l3.54-0.498l-0.352-2.506L299.498,142.414z
	 M298.081,215.649c-0.749,0.105-1.526,0.215-2.331,0.328c-0.146-0.611-0.352-1.245-0.62-1.901c0.288-0.041,0.691-0.097,1.209-0.17
	c0.526-0.012,0.962-0.041,1.308-0.089c1.101-0.093,1.608-0.667,1.518-1.729c-0.155-1.934-0.375-3.923-0.663-5.966l-5.18,0.728
	l-0.557-8.347l1.727-0.243l0.456,6.374l2.158-0.303l-0.539-7.593l-4.921,0.691l-0.261-1.856l6.821-0.958l0.713,9.461l1.123-0.158
	c0.191,1.362,0.444,3.788,0.759,7.277c0.07,0.496,0.117,0.836,0.144,1.021C301.231,214.26,300.276,215.403,298.081,215.649
	L298.081,215.649z M298.041,210.354c-1.528,0.404-3.073,0.905-4.631,1.503l-0.374-2.03c0.394-0.117,1.015-0.299,1.86-0.545
	c1.297-0.372,2.258-0.632,2.884-0.784C297.867,209.116,297.954,209.736,298.041,210.354L298.041,210.354z M297.114,168.711
	c-0.428,1.134-0.995,2.317-1.702,3.553c-0.133-0.107-0.356-0.234-0.669-0.379c-0.456-0.314-0.812-0.548-1.067-0.702
	c1.244-2.004,2.194-4.221,2.852-6.649l2.038,0.092c-0.082,0.264-0.202,0.66-0.362,1.187c-0.178,0.404-0.284,0.702-0.314,0.896
	l9.411-1.323l0.274,1.95l-0.805,3.048c-0.314-0.145-0.859-0.258-1.632-0.338c-0.125-0.045-0.215-0.064-0.272-0.057l0.71-2.467
	L297.114,168.711L297.114,168.711z M297.84,186.407c-1.843,0.259-2.893-0.54-3.154-2.397l-0.548-3.899l1.986-0.279l0.47,3.342
	c0.13,0.928,0.684,1.324,1.664,1.186l3.626-0.51c1.283-0.054,1.909-0.614,1.876-1.684c0.086-0.642,0.105-1.34,0.059-2.091
	c0.247,0.092,0.644,0.193,1.188,0.306c0.363,0.076,0.635,0.133,0.816,0.169c0.012,0.504-0.033,1.235-0.132,2.196
	c-0.041,0.133-0.056,0.23-0.047,0.291c-0.128,1.595-1.118,2.492-2.968,2.689L297.84,186.407z M299.03,172.323
	c-1.081,1.919-2.159,3.649-3.233,5.188c-0.531-0.43-1.08-0.794-1.65-1.093c0.994-1.276,2.022-2.935,3.086-4.978L299.03,172.323
	L299.03,172.323z M298.952,153.567c1.357-1.199,2.364-2.382,3.023-3.549l-6.648,0.934
	C296.356,152.008,297.564,152.879,298.952,153.567L298.952,153.567z M300.698,182.313c-0.905-1.009-1.92-1.969-3.047-2.885
	l1.312-1.32c1.05,0.799,2.115,1.691,3.193,2.675L300.698,182.313z M300.763,177.76c-0.576,0.081-1.238,0.174-1.986,0.279
	c-0.194-0.541-0.424-1.139-0.692-1.796c0.411,0.006,0.991-0.044,1.74-0.149c0.92-0.129,1.295-0.592,1.125-1.389l-0.718-5.106
	l1.899-0.267l0.757,5.385C303.188,176.441,302.481,177.456,300.763,177.76L300.763,177.76z M312.942,198.603
	c-0.241,0.792-0.434,1.514-0.576,2.164c-2.76-1.252-5.007-3.05-6.746-5.395c-0.93,2.151-2.13,4.055-3.599,5.713l8.375-1.177
	l0.261,1.856l-8.461,1.189l-0.248-1.764c-0.466,0.444-0.923,0.951-1.372,1.518c-0.441-0.632-0.877-1.233-1.31-1.804
	c2.714-2.401,4.463-5.203,5.246-8.406l2.012-0.093l-0.288,1.082C308.155,195.868,310.39,197.574,312.942,198.603L312.942,198.603z
	 M303.802,211.248c-0.805-1.97-1.636-3.903-2.489-5.804l1.575-0.695c0.269,0.658,0.36,0.896,0.277,0.718
	c1.013,2.194,1.749,3.889,2.212,5.085L303.802,211.248z M301.961,214.441l-0.234-1.671l7.511-1.056
	c0.458-2.588,0.828-5.385,1.11-8.393l1.805,0.314c-0.117,0.838-0.317,2.127-0.6,3.872c-0.227,1.736-0.422,3.058-0.587,3.964
	l3.108-0.437l0.235,1.671L301.961,214.441z M307.885,175.813c-0.397-0.323-0.965-0.812-1.703-1.465
	c-1.078-0.985-1.948-1.746-2.61-2.284l1.211-1.401c1.457,1.184,2.948,2.395,4.473,3.631L307.885,175.813z M308.989,183.042
	c-1.063-1.302-2.351-2.73-3.86-4.286l1.397-1.333c1.5,1.493,2.849,2.946,4.046,4.354L308.989,183.042z M307.284,209.717
	c-0.615-1.869-1.255-3.705-1.918-5.505l1.502-0.59c0.721,1.792,1.39,3.624,2.005,5.493L307.284,209.717z M307.487,142.903
	l-1.096-7.798l18.563-2.609l1.096,7.798l-11.828,1.662h2.025c-0.049,0.071-0.094,0.172-0.134,0.303
	c-0.383,0.622-0.818,1.284-1.306,1.982l10.533-1.48l0.273,1.95c-2.735,5.182-8.022,9.111-15.863,11.792
	c-0.3-0.464-0.741-1.096-1.323-1.897c3.654-1.145,6.341-2.279,8.062-3.405c-1.423-0.936-3.052-1.874-4.886-2.816l1.125-1.389
	c-1.119,1.231-2.406,2.516-3.86,3.856c-0.481-0.5-1.024-1.023-1.629-1.57c3.029-2.255,5.241-4.68,6.637-7.276L307.487,142.903z
	 M308.638,136.682l0.574,4.085l3.626-0.51l-0.574-4.085L308.638,136.682z M310.151,169.343l-0.287-2.042l2.417-0.34l-0.626-4.456
	l1.899-0.267l0.626,4.457l1.899-0.267l0.287,2.042l-1.899,0.267l0.6,4.271l1.98-0.941c0.035,0.248,0.12,0.646,0.256,1.195
	c0.052,0.372,0.091,0.65,0.117,0.835c-0.213,0.157-0.623,0.372-1.23,0.646c-0.386,0.181-0.66,0.314-0.824,0.4l0.887,6.313
	c0.292,1.664-0.33,2.665-1.866,3.008c-0.231,0.033-0.572,0.112-1.023,0.239c-0.403,0.057-0.691,0.097-0.864,0.121
	c-0.153-0.673-0.368-1.368-0.645-2.086c0.575-0.081,1.093-0.154,1.554-0.219c0.691-0.097,0.988-0.486,0.893-1.167l-0.756-5.385
	c-0.222,0.095-0.608,0.275-1.157,0.542c-0.492,0.258-0.874,0.47-1.144,0.634l-0.585-2.285c0.443-0.188,1.107-0.471,1.994-0.848
	c0.279-0.101,0.471-0.192,0.578-0.271l-0.666-4.735L310.151,169.343z M313.254,146.353l-0.379,0.432
	c1.702,0.835,3.45,1.788,5.245,2.861l-1.065,1.191c2.212-1.383,4.14-3.327,5.784-5.831L313.254,146.353z M314.077,135.917
	l0.574,4.085l3.626-0.51l-0.574-4.084L314.077,135.917z M318.646,170.895c-0.612-1.429-1.473-3.168-2.583-5.223l1.476-0.775
	c0.559,1.058,1.402,2.676,2.531,4.851c0.083,0.178,0.13,0.298,0.139,0.359L318.646,170.895z M319.23,176.304
	c-0.515,0.515-0.899,0.917-1.152,1.203l-1.21-1.723c1.397-1.333,2.684-2.617,3.86-3.856c-0.019-0.123-0.012-0.282,0.021-0.476
	c-0.035-0.247-0.058-0.402-0.065-0.464l-1.305-9.284l1.812-0.255l1.306,9.284c0.487,3.467,0.53,6.079,0.133,7.839
	c-0.392,1.823-1.479,3.678-3.267,5.572c-0.464-0.377-1.028-0.835-1.69-1.372c2.591-2.447,3.693-5.252,3.308-8.417
	C320.63,174.782,320.045,175.432,319.23,176.304L319.23,176.304z M321.695,212.039c-1.869,0.074-3.057-0.865-3.564-2.813
	c-0.123-2.127,0.752-3.419,2.625-3.872c1.982-0.089,3.209,0.907,3.678,2.986C324.539,210.345,323.625,211.578,321.695,212.039
	L321.695,212.039z M320.952,206.747c-1.077,0.278-1.585,1.044-1.526,2.297c0.263,1.037,0.949,1.538,2.061,1.509
	c1.135-0.286,1.685-0.961,1.652-2.031C322.85,207.301,322.12,206.71,320.952,206.747L320.952,206.747z M323.229,134.631l-3.625,0.51
	l0.574,4.085l3.628-0.51L323.229,134.631z M330.891,175.328c-0.693-0.343-1.711-0.896-3.05-1.654
	c-0.38-0.198-0.665-0.348-0.854-0.448l0.861,6.127c0.096,0.682,0.453,0.945,1.079,0.795l0.69-0.097
	c0.699-0.036,1.054-0.432,1.064-1.191c-0.023-1.005-0.084-1.849-0.18-2.531c0.182,0.038,0.482,0.09,0.902,0.157
	c0.429,0.129,0.734,0.213,0.916,0.25c0.09,1.061,0.097,1.943,0.02,2.647c-0.029,1.456-0.794,2.289-2.29,2.5l-1.295,0.182
	c-1.604,0.288-2.519-0.373-2.743-1.981l-2.675-19.032l1.899-0.267l1.146,8.169c0.896-2.398,1.516-4.251,1.86-5.563l1.685,0.71
	c-0.322,1.055-0.975,2.882-1.959,5.482l-1.586-0.629l0.301,2.135c0.941,0.436,2.26,1.041,3.952,1.812
	c0.445,0.254,0.793,0.425,1.041,0.516L330.891,175.328z M330.877,152.114l-2.688-19.125l7.425-1.043l2.649,18.846l-1.899,0.267
	l-0.235-1.671l-3.626,0.51l0.272,1.95L330.877,152.114z M330.35,134.579l0.811,5.756l3.626-0.509l-0.81-5.756L330.35,134.579z
	 M331.42,142.192l0.822,5.849l3.626-0.509l-0.822-5.849L331.42,142.192z M335.721,164.616c-1.387-1.509-2.52-2.675-3.396-3.499
	l1.484-1.344c0.207,0.224,0.543,0.524,1.006,0.899c1.162,1.163,1.982,1.994,2.465,2.494L335.721,164.616z M337.367,178.207
	c-0.915,1.011-1.674,2.096-2.271,3.254l-1.264-2.095c0.154-0.147,0.407-0.436,0.759-0.864c0.692-0.917,1.19-1.555,1.492-1.914
	l-1.019-7.241l-2.33,0.328l-0.287-2.042l4.316-0.606l1.278,9.098c1.213,1.534,2.942,2.143,5.187,1.827
	c1.274-0.117,4.01-0.501,8.203-1.152c1.61-0.227,2.732-0.384,3.366-0.474c-0.126,0.775-0.231,1.484-0.317,2.127
	c-5.871,0.825-9.731,1.335-11.582,1.533C340.598,180.309,338.752,179.716,337.367,178.207L337.367,178.207z M337.342,136.721
	l-0.285-2.042l7.078-0.995l-0.664-4.734l1.984-0.279l0.666,4.735l2.59-0.364l0.287,2.042l-2.59,0.364l1.644,11.697
	c0.361,2.158-0.487,3.414-2.552,3.767c-1.096,0.154-2.217,0.312-3.367,0.473c-0.084-0.178-0.178-0.417-0.277-0.718
	c-0.203-0.604-0.388-1.082-0.555-1.437c0.584-0.02,1.624-0.134,3.122-0.344c1.272-0.117,1.796-0.788,1.563-2.019l-1.564-11.141
	L337.342,136.721z M341.625,144.639c-0.843-1.396-1.979-3.003-3.407-4.823l1.497-1.251c1.213,1.533,2.401,3.103,3.566,4.706
	L341.625,144.639z M340.914,163.98c-0.215,0.977-0.438,1.893-0.671,2.745c-0.181-0.037-0.487-0.121-0.915-0.25
	c-0.487-0.121-0.82-0.2-1.002-0.238c0.787-2.319,1.291-4.599,1.504-6.838l1.865,0.116c-0.023,0.256-0.082,0.674-0.176,1.255
	c-0.037,0.574-0.092,1.023-0.162,1.349l2.763-0.389l-0.522-3.713l1.986-0.279l0.521,3.714l5.181-0.728l0.248,1.764l-5.181,0.728
	l0.508,3.621l6.045-0.849l0.248,1.764l-4.576,0.643l0.587,4.178c0.071,0.937,0.479,1.322,1.219,1.154l0.519-0.073
	c0.699-0.035,1.046-0.493,1.039-1.377c0.02-0.696,0.002-1.451-0.055-2.264c0.61,0.167,1.188,0.306,1.732,0.419
	c0.055,0.813,0.076,1.599,0.066,2.357c-0.021,1.518-0.724,2.374-2.104,2.568l-1.642,0.23c-1.604,0.289-2.51-0.53-2.723-2.458
	l-0.626-4.456L344,169.037c0.553,3.52-0.382,6.271-2.802,8.252c-0.531-0.43-1.095-0.888-1.69-1.372
	c2.235-1.64,3.1-3.844,2.594-6.613l-3.627,0.51l-0.248-1.764l6.648-0.934l-0.509-3.621L340.914,163.98L340.914,163.98z
	 M371.027,134.546c-0.219,0.537-0.367,0.937-0.447,1.199c-4.334-1.6-7.812-3.793-10.434-6.581c-1.729,3.147-4.601,6.327-8.608,9.541
	l-1.336-1.99c4.479-3.216,7.407-6.594,8.789-10.134l2.456-0.061c-0.049,0.07-0.113,0.238-0.193,0.5
	c-0.09,0.202-0.154,0.369-0.193,0.5c2.795,2.764,6.242,4.741,10.342,5.931C371.312,133.654,371.188,134.019,371.027,134.546
	L371.027,134.546z M365.788,148.631c-1.836-0.941-4.503-2.176-8.005-3.703c-0.817-0.39-1.446-0.68-1.883-0.872l0.986-1.748
	c2.131,0.964,3.914,1.754,5.352,2.372l4.257-5.426l-13.124,1.844l-0.287-2.042l15.887-2.232l0.313,2.228l-4.989,6.476
	c0.866,0.319,1.741,0.702,2.627,1.146L365.788,148.631z M358.148,165.716l2.763-0.388l0.457,3.249l-2.763,0.388L358.148,165.716z
	 M361.652,137.378c-0.198-0.161-0.473-0.438-0.82-0.831c-1.087-1.045-1.928-1.812-2.523-2.296l1.397-1.333
	c0.651,0.476,1.586,1.261,2.796,2.353c0.271,0.278,0.477,0.47,0.609,0.577L361.652,137.378z M361.852,172.012l0.443,3.157
	c0.262,1.856-0.418,3.088-2.033,3.694l-0.197-1.393c0.666-0.283,0.951-0.955,0.861-2.015l-1.381,0.194l-0.457-3.25L361.852,172.012z
	 M373.16,132.818c-0.317-0.585-0.696-1.195-1.139-1.828c1.205-1.873,2.078-4.015,2.619-6.427l1.938,0.011
	c-0.129,0.335-0.271,0.795-0.422,1.385c-0.081,0.265-0.142,0.462-0.181,0.594l3.885-0.546l0.248,1.764l-1.043,2.608l2.332-0.328
	l1.5,10.676l-8.201,1.153l-1.331-9.47L373.16,132.818z M378.211,128.037l-2.85,0.4c-0.396,0.94-0.83,1.821-1.301,2.645l3.107-0.437
	L378.211,128.037z M381.376,144.917c-3.017,0.675-5.288,1.216-6.815,1.621l-0.459-2.018c0.401-0.057,1.035-0.146,1.898-0.267
	c3.428-0.671,6.048-1.229,7.865-1.673c0.025,0.186,0.064,0.464,0.117,0.835c-0.006,0.379,0.004,0.662,0.031,0.848
	C383.445,144.405,382.566,144.623,381.376,144.917L381.376,144.917z M375.072,132.644l0.404,2.878l1.813-0.255l-0.404-2.878
	L375.072,132.644z M375.699,137.1l0.404,2.878l1.812-0.255l-0.405-2.878L375.699,137.1z M376.051,156.481l-0.248-1.764l10.706-1.504
	l0.248,1.764l-2.937,0.413l0.418,2.971l2.591-0.364l2.257,16.061l-1.641,0.23l-0.195-1.393l-6.648,0.934l0.196,1.393l-1.641,0.231
	l-2.257-16.061l2.676-0.376l-0.417-2.971L376.051,156.481z M380.08,131.94l-1.812,0.255l0.403,2.878l1.813-0.255L380.08,131.94z
	 M378.59,160.764l0.77,5.477c0.994-1.275,1.27-3.081,0.824-5.417l-0.039-0.279L378.59,160.764z M378.895,136.651l0.403,2.878
	l1.813-0.255l-0.404-2.878L378.895,136.651z M385.305,165.311c-1.201,0.232-1.867-0.336-2.002-1.707l-0.482-3.435l-1.381,0.194
	l0.039,0.278c0.488,2.646,0.229,4.765-0.779,6.358c-0.124-0.045-0.314-0.145-0.57-0.299c-0.257-0.153-0.445-0.252-0.57-0.298
	l0.274,1.95l6.647-0.935l-0.312-2.228L385.305,165.311z M380.041,169.837l0.365,2.599l6.648-0.934l-0.367-2.6L380.041,169.837z
	 M380.799,155.814l0.418,2.971l1.383-0.194l-0.418-2.971L380.799,155.814z M382.35,129.917l-0.273-1.949l5.525-0.777
	c0.664-1.544,1.24-3.077,1.73-4.598l1.918,0.488c-0.13,0.335-0.354,0.84-0.668,1.514c-0.438,1.072-0.797,1.849-1.081,2.329
	l3.021-0.424l0.274,1.95l-4.317,0.606l0.471,3.342l3.885-0.546l0.262,1.857l-3.886,0.546l0.483,3.435l4.662-0.655l0.272,1.95
	l-4.662,0.655l0.744,5.292l-1.899,0.267l-0.744-5.292l-4.316,0.606l-0.273-1.949l4.316-0.607l-0.482-3.435l-3.713,0.522
	l-0.261-1.857l3.714-0.521l-0.471-3.342L382.35,129.917z M384.799,127.301c-0.957-1.38-1.714-2.377-2.27-2.995l1.449-0.961
	c0.416,0.448,0.983,1.156,1.707,2.127c0.281,0.339,0.494,0.593,0.637,0.763L384.799,127.301z M385.583,159.781l-1.554,0.218
	l0.404,2.878c0.055,0.813,0.451,1.136,1.191,0.968l0.518-0.073L385.583,159.781z M391.146,162.407l1.004,7.148
	c0.041,1.13,0.658,1.548,1.851,1.255l1.122-0.158c1.168-0.038,1.735-0.59,1.703-1.659c-0.017-0.945-0.081-2.039-0.197-3.286
	c0.124,0.046,0.333,0.081,0.631,0.101c0.602,0.105,1.021,0.173,1.262,0.201c-0.023,0.256,0.001,0.632,0.069,1.126
	c0.04,1.13,0.034,1.921-0.02,2.369c0.029,1.889-0.912,2.905-2.829,3.049l-2.072,0.291c-1.947,0.336-3.033-0.489-3.253-2.478
	l-1.345-9.563l5.439-0.764l-0.822-5.849l-5.698,0.801l-0.272-1.95l7.598-1.068l1.355,9.655L391.146,162.407z M394.129,125.423
	l-0.248-1.764l5.612-0.789l-0.248-1.764l1.985-0.279l0.247,1.764l5.268-0.74l-0.248-1.764l1.899-0.267l0.247,1.764l5.785-0.813
	l0.248,1.764l-5.785,0.813l0.145,1.021l-1.899,0.267l-0.144-1.021l-5.268,0.74l0.171,1.207l-1.986,0.279l-0.17-1.207
	L394.129,125.423z M404.044,140.219c-2.579,0.867-4.972,1.802-7.178,2.808l-0.605-1.809l1.011-0.331l-1.188-8.448l1.468-0.206
	l1.148,8.169c0.164-0.085,0.414-0.184,0.751-0.295c0.328-0.172,0.578-0.271,0.751-0.295l-1.136-8.077l1.435-2.947l-5.007,0.704
	l-0.235-1.671l6.907-0.971l0.235,1.671l-1.557,3.343l0.195,1.392l2.072-0.291l0.248,1.764l-2.072,0.291l0.587,4.178
	c0.607-0.274,1.243-0.553,1.908-0.836C403.879,139.044,403.966,139.662,404.044,140.219L404.044,140.219z M402.835,170.422
	c-0.146,0.21-0.27,0.384-0.366,0.525l-1.716-1.558c0.546-0.707,0.72-1.552,0.524-2.535l-2.205-15.689l2.158-0.303l2.23,15.875
	c1.609-1.488,3.23-3.105,4.865-4.849c0.018,0.125,0.07,0.306,0.164,0.545c0.312,0.966,0.551,1.626,0.719,1.981
	c-1.66,1.559-3.479,3.234-5.456,5.027C403.549,169.66,403.243,169.986,402.835,170.422L402.835,170.422z M403.169,128.981
	l-0.222-1.579l4.748-0.667l-0.728-1.412l2.033-0.57c0.092,0.24,0.226,0.569,0.402,0.985c0.157,0.294,0.278,0.529,0.362,0.706
	l4.923-0.691l0.222,1.578l-6.477,0.91c-1.222,1.75-2.057,2.909-2.505,3.476c1.899-0.267,3.79-0.595,5.672-0.987
	c-0.529-0.43-0.998-0.837-1.403-1.223l1.165-1.11c1.59,1.292,2.994,2.514,4.213,3.668l-1.226,1.308
	c-0.143-0.169-0.378-0.388-0.709-0.658c-0.332-0.269-0.566-0.488-0.709-0.658c-2.983,0.483-5.244,0.895-6.78,1.237
	c-0.799,0.176-1.446,0.362-1.946,0.558l-0.854-1.679c0.753-0.484,1.699-1.689,2.838-3.617L403.169,128.981z M406.505,135.802
	c0.683,3.187,0.054,5.609-1.884,7.271c-0.066-0.055-0.233-0.189-0.497-0.404c-0.406-0.385-0.743-0.686-1.007-0.9
	c1.776-1.134,2.358-3.044,1.747-5.736l-0.195-1.393l1.64-0.23L406.505,135.802L406.505,135.802z M408.209,156.035
	c-1.267-1.905-2.547-3.713-3.844-5.424l1.583-1.264c1.479,1.749,2.841,3.515,4.09,5.295L408.209,156.035z M419.768,169.368
	c-0.973-1.063-2.34-2.448-4.105-4.156c-0.257-0.153-0.423-0.287-0.497-0.404c-0.824,2.073-2.827,4.31-6.012,6.714
	c-0.198-0.161-0.511-0.496-0.935-1.004c-0.291-0.401-0.536-0.682-0.733-0.844c5.465-3.292,7.659-8.144,6.582-14.558
	c-0.217-2.368-0.453-4.48-0.714-6.337l2.07-0.291c0.375,2.662,0.612,4.775,0.715,6.337c0.28,3.243,0.2,5.811-0.237,7.702
	c0.736,0.654,1.818,1.67,3.246,3.047c1.002,0.869,1.701,1.464,2.1,1.788L419.768,169.368z M409.192,141.768l-1.07-7.613l1.727-0.243
	l1.07,7.613L409.192,141.768z M414.631,141.003c-1.258,0.239-1.958-0.356-2.1-1.788l-0.783-5.57l1.641-0.23l0.744,5.292
	c0.002,0.44,0.259,0.594,0.77,0.46c0.525-0.012,0.751-0.295,0.673-0.852c-0.024-1.005-0.097-1.942-0.219-2.81
	c0.113-0.016,0.323,0.018,0.631,0.101c0.361,0.076,0.601,0.105,0.717,0.089c0.112,0.805,0.194,1.804,0.244,2.995
	c0.019,1.385-0.58,2.132-1.798,2.241L414.631,141.003z M420.43,134.605l1.14-1.296l5.232,4.661l-1.199,1.494L420.43,134.605z
	 M420.765,151.432l-0.261-1.856l4.146-0.583c-0.242-0.471-0.573-1.15-0.991-2.039l1.947-0.558c0.082,0.178,0.241,0.472,0.476,0.88
	c0.269,0.658,0.479,1.132,0.641,1.425l3.54-0.498l0.262,1.857L420.765,151.432z M420.917,156.901l-0.248-1.764l3.108-0.437
	c-0.358-0.454-0.855-1.078-1.495-1.873c-0.274-0.277-0.449-0.473-0.523-0.589l1.352-1.042c0.141,0.17,0.385,0.452,0.733,0.844
	c0.623,0.67,1.111,1.232,1.471,1.687l-1.277,0.937l2.677-0.376c0.525-1.272,0.969-2.503,1.331-3.69l1.817,0.407
	c-0.21,0.598-0.562,1.437-1.056,2.515c-0.081,0.264-0.146,0.432-0.193,0.5l2.936-0.413l0.248,1.764L420.917,156.901z
	 M422.035,161.099l-0.261-1.857l4.145-0.583l-0.326-2.321l1.899-0.267l0.326,2.321l3.885-0.546l0.262,1.857l-3.886,0.546
	l0.757,5.385c0.292,1.663-0.364,2.638-1.966,2.927c-0.519,0.073-1.181,0.166-1.985,0.279c-0.128-0.488-0.363-1.118-0.706-1.889
	c0.574-0.081,1.122-0.158,1.642-0.23c0.862-0.121,1.217-0.519,1.064-1.191l-0.705-5.013L422.035,161.099z M425.192,162.265
	c-0.358,1.629-0.841,3.211-1.445,4.748l-1.546-0.351c0.517-1.334,0.969-2.913,1.358-4.735L425.192,162.265L425.192,162.265z
	 M431.387,164.992c-0.291-0.4-0.69-0.944-1.196-1.63c-0.574-0.739-1.003-1.279-1.284-1.619l1.362-0.949
	c0.865,1.142,1.684,2.163,2.456,3.063L431.387,164.992z M439.156,167.024l-1.645-11.698l-2.763,0.389l0.063,0.464
	c0.804,4.874,0.466,8.739-1.011,11.598c-0.066-0.054-0.225-0.127-0.472-0.218c-0.256-0.153-0.731-0.403-1.425-0.747
	c1.422-2.409,1.754-5.894,0.995-10.459l-1.253-8.913c2.852-0.59,5.483-1.275,7.898-2.057l0.878,1.864
	c-1.799,0.57-4.009,1.132-6.63,1.689l0.679,4.828l7.166-1.007l0.274,1.95l-2.504,0.352l1.644,11.697L439.156,167.024z
	 M438.86,119.805l-0.262-1.857l4.146-0.582c-0.242-0.471-0.573-1.15-0.991-2.039l1.947-0.558c0.082,0.178,0.242,0.472,0.476,0.88
	c0.27,0.658,0.48,1.132,0.642,1.425l3.54-0.498l0.261,1.857L438.86,119.805z M439.013,125.274l-0.248-1.764l3.108-0.437
	c-0.358-0.454-0.855-1.078-1.495-1.872c-0.273-0.277-0.449-0.473-0.522-0.589l1.351-1.042c0.141,0.169,0.385,0.452,0.734,0.843
	c0.623,0.67,1.11,1.233,1.47,1.687l-1.277,0.937l2.677-0.376c0.525-1.272,0.97-2.503,1.331-3.69l1.817,0.407
	c-0.21,0.598-0.562,1.437-1.055,2.515c-0.081,0.264-0.146,0.432-0.194,0.5l2.936-0.413l0.248,1.764L439.013,125.274z
	 M440.131,129.472l-0.261-1.857l4.145-0.583l-0.325-2.321l1.898-0.267l0.326,2.321l3.885-0.546l0.262,1.857l-3.886,0.546
	l0.757,5.385c0.292,1.663-0.363,2.638-1.966,2.927c-0.518,0.073-1.181,0.166-1.984,0.279c-0.128-0.488-0.364-1.118-0.706-1.889
	c0.573-0.081,1.122-0.158,1.641-0.23c0.863-0.121,1.217-0.519,1.065-1.191l-0.705-5.013L440.131,129.472z M443.288,130.638
	c-0.358,1.629-0.84,3.211-1.445,4.748l-1.546-0.351c0.518-1.334,0.969-2.913,1.359-4.735L443.288,130.638L443.288,130.638z
	 M443.482,152.019c-0.317-0.585-0.696-1.195-1.139-1.828c1.204-1.873,2.077-4.015,2.619-6.427l1.938,0.012
	c-0.13,0.335-0.271,0.795-0.423,1.385c-0.08,0.264-0.142,0.462-0.181,0.593l3.886-0.546l0.247,1.764l-1.042,2.607l2.331-0.327
	l1.501,10.676l-8.202,1.153l-1.331-9.47L443.482,152.019z M448.533,147.238l-2.85,0.4c-0.396,0.94-0.831,1.821-1.302,2.645
	l3.108-0.437L448.533,147.238z M451.698,164.119c-3.018,0.675-5.288,1.216-6.815,1.621l-0.46-2.019
	c0.402-0.056,1.036-0.146,1.899-0.267c3.428-0.671,6.048-1.229,7.864-1.673c0.025,0.186,0.064,0.464,0.117,0.835
	c-0.006,0.379,0.005,0.662,0.031,0.848C453.769,163.605,452.89,163.824,451.698,164.119L451.698,164.119z M445.395,151.845
	l0.405,2.878l1.813-0.255l-0.404-2.878L445.395,151.845z M446.021,156.301l0.403,2.878l1.813-0.255l-0.405-2.878L446.021,156.301z
	 M449.482,133.365c-0.291-0.4-0.691-0.944-1.197-1.63c-0.574-0.739-1.003-1.279-1.284-1.619l1.363-0.949
	c0.864,1.142,1.683,2.163,2.456,3.063L449.482,133.365z M450.402,151.141l-1.813,0.255l0.404,2.878l1.812-0.255L450.402,151.141z
	 M449.216,155.852l0.404,2.878l1.812-0.254l-0.403-2.878L449.216,155.852z M457.252,135.397l-1.644-11.698l-2.764,0.388l0.064,0.464
	c0.803,4.874,0.465,8.739-1.011,11.598c-0.067-0.055-0.226-0.127-0.473-0.218c-0.256-0.153-0.73-0.403-1.425-0.746
	c1.422-2.409,1.754-5.894,0.995-10.459l-1.253-8.913c2.852-0.59,5.483-1.275,7.898-2.057l0.878,1.864
	c-1.799,0.569-4.009,1.132-6.63,1.689l0.68,4.828l7.166-1.007l0.273,1.95l-2.504,0.352l1.645,11.697L457.252,135.397z
	 M452.672,149.118l-0.273-1.949l5.525-0.777c0.663-1.544,1.24-3.077,1.73-4.598l1.918,0.488c-0.13,0.335-0.354,0.839-0.668,1.514
	c-0.438,1.071-0.797,1.849-1.081,2.329l3.021-0.425l0.274,1.95l-4.317,0.607l0.471,3.342l3.885-0.546l0.262,1.857l-3.886,0.546
	l0.482,3.435l4.662-0.655l0.273,1.95l-4.662,0.655l0.744,5.292l-1.899,0.267l-0.744-5.292l-4.316,0.606l-0.273-1.95l4.316-0.606
	l-0.482-3.435l-3.713,0.521l-0.261-1.856l3.713-0.522l-0.47-3.342L452.672,149.118z M455.121,146.502
	c-0.957-1.38-1.714-2.377-2.271-2.995l1.45-0.961c0.415,0.447,0.983,1.156,1.707,2.126c0.281,0.339,0.493,0.594,0.636,0.763
	L455.121,146.502z M461.568,120.392c-0.317-0.585-0.696-1.195-1.139-1.828c1.204-1.874,2.077-4.015,2.619-6.427l1.938,0.012
	c-0.129,0.335-0.271,0.795-0.422,1.385c-0.081,0.264-0.143,0.462-0.182,0.593l3.886-0.546l0.247,1.764l-1.042,2.608l2.331-0.327
	l1.501,10.676l-8.201,1.153l-1.331-9.469L461.568,120.392z M466.619,115.611l-2.85,0.4c-0.396,0.94-0.83,1.821-1.302,2.646
	l3.108-0.438L466.619,115.611z M469.784,132.491c-3.018,0.676-5.288,1.217-6.815,1.621l-0.46-2.019
	c0.402-0.056,1.036-0.146,1.899-0.267c3.428-0.671,6.048-1.229,7.865-1.674c0.024,0.186,0.063,0.464,0.116,0.836
	c-0.006,0.379,0.005,0.662,0.031,0.848C471.854,131.979,470.976,132.197,469.784,132.491L469.784,132.491z M463.48,120.218
	l0.404,2.878l1.813-0.254l-0.404-2.878L463.48,120.218z M464.107,124.674l0.403,2.878l1.813-0.255l-0.405-2.878L464.107,124.674z
	 M469.924,159.76c-0.293,0.42-0.559,0.836-0.793,1.248l-1.392-1.13c0.332-0.551,0.442-1.229,0.33-2.035l-1.122-7.984l-1.899,0.267
	l-0.287-2.042l3.799-0.534l1.279,9.098c0.097-0.139,0.263-0.416,0.5-0.828c0.314-0.674,0.571-1.153,0.768-1.433
	c0.228,0.789,0.473,1.481,0.73,2.075c-0.187,0.343-0.491,0.89-0.913,1.643C470.493,158.797,470.159,159.349,469.924,159.76
	L469.924,159.76z M468.14,145.81c-1.188-1.348-2.291-2.518-3.312-3.511l1.396-1.333c0.134,0.109,0.336,0.301,0.609,0.577
	c1.352,1.263,2.305,2.201,2.861,2.817L468.14,145.81z M468.488,119.514l-1.813,0.255l0.404,2.878l1.812-0.255L468.488,119.514z
	 M467.302,124.225l0.404,2.878l1.812-0.254l-0.403-2.878L467.302,124.225z M470.758,117.491l-0.273-1.949l5.525-0.777
	c0.663-1.544,1.24-3.077,1.73-4.598l1.918,0.488c-0.13,0.334-0.354,0.839-0.668,1.514c-0.438,1.071-0.797,1.849-1.081,2.329
	l3.021-0.425l0.274,1.95l-4.317,0.607l0.471,3.342l3.885-0.546l0.262,1.857l-3.886,0.546l0.482,3.435l4.662-0.655l0.273,1.95
	l-4.662,0.655l0.744,5.292l-1.899,0.267l-0.744-5.292l-4.316,0.607l-0.273-1.95l4.316-0.606l-0.482-3.435l-3.713,0.521l-0.261-1.856
	l3.713-0.522l-0.47-3.342L470.758,117.491z M474.218,157.737c-0.098,1.402-0.521,2.976-1.272,4.723l-1.971-0.859
	c0.846-1.508,1.323-2.899,1.438-4.178c0.114-1.278-0.007-3.185-0.363-5.724l-1.462-10.398l13.296-1.869l2.545,18.104
	c0.3,1.724-0.379,2.735-2.039,3.032c-0.635,0.089-1.555,0.218-2.763,0.388l-0.719-1.981c0.928-0.068,1.738-0.15,2.43-0.247
	c0.987-0.077,1.391-0.543,1.212-1.401l-2.229-15.875l-9.67,1.359l1.199,8.542C474.24,154.136,474.363,156.265,474.218,157.737
	L474.218,157.737z M473.207,114.875c-0.957-1.38-1.714-2.377-2.27-2.995l1.449-0.961c0.415,0.447,0.983,1.156,1.707,2.126
	c0.281,0.339,0.493,0.594,0.637,0.763L473.207,114.875z M474.63,146.886l-0.235-1.671l2.592-0.364l-0.263-1.857l1.729-0.243
	l0.261,1.857l2.59-0.364l0.235,1.671l-2.591,0.364l0.287,2.042l3.107-0.437l0.235,1.671l-7.943,1.116L474.399,149l3.107-0.437
	l-0.287-2.042L474.63,146.886z M476.446,158.56l-0.861-6.127l6.476-0.91l0.861,6.127L476.446,158.56z M477.461,153.873l0.391,2.785
	l3.108-0.437l-0.392-2.785L477.461,153.873z M484.546,117.829c-0.53-0.43-1.061-0.86-1.59-1.291c2.058-2.056,3.8-4.7,5.225-7.929
	l2.198-0.025c-0.139,0.272-0.316,0.676-0.534,1.211c-0.188,0.343-0.302,0.579-0.341,0.71l8.289-1.165l0.247,1.764l-1.573,2.588
	l4.663-0.655l1.526,10.862l-15.888,2.233l-1.305-9.284L484.546,117.829z M485.013,130.544l-0.234-1.671l20.463-2.876l0.233,1.671
	L485.013,130.544z M486.559,140.951l-0.248-1.764l10.706-1.505l0.248,1.764l-2.936,0.413l0.417,2.971l2.591-0.364l2.257,16.061
	l-1.641,0.231l-0.195-1.393l-6.647,0.934l0.195,1.393l-1.641,0.23l-2.257-16.061l2.676-0.376l-0.417-2.971L486.559,140.951z
	 M495.709,111.432l-7.252,1.02c-0.521,0.894-1.073,1.76-1.66,2.6l7.253-1.019L495.709,111.432z M487.49,116.847l0.378,2.692
	l5.008-0.704l-0.379-2.692L487.49,116.847z M488.104,121.21l0.392,2.785l5.008-0.704l-0.392-2.785L488.104,121.21z M489.098,145.233
	l0.771,5.478c0.994-1.276,1.269-3.081,0.823-5.417l-0.039-0.278L489.098,145.233z M495.812,149.781
	c-1.2,0.232-1.867-0.336-2.002-1.707l-0.481-3.435l-1.382,0.194l0.039,0.279c0.488,2.646,0.229,4.765-0.779,6.357
	c-0.124-0.044-0.314-0.145-0.57-0.298c-0.257-0.153-0.445-0.252-0.569-0.298l0.273,1.949l6.648-0.934l-0.313-2.228L495.812,149.781z
	 M490.549,154.307l0.365,2.6l6.648-0.934l-0.366-2.6L490.549,154.307z M491.307,140.284l0.418,2.971l1.383-0.194l-0.418-2.971
	L491.307,140.284z M499.404,115.172l-5.008,0.704l0.379,2.692l5.008-0.704L499.404,115.172z M496.091,144.25l-1.554,0.219
	l0.404,2.878c0.055,0.813,0.451,1.136,1.191,0.968l0.519-0.073L496.091,144.25z M495.01,120.24l0.393,2.785l5.008-0.704
	l-0.393-2.785L495.01,120.24z M501.654,146.877l1.005,7.148c0.04,1.13,0.658,1.548,1.85,1.255l1.122-0.158
	c1.168-0.039,1.735-0.59,1.703-1.66c-0.016-0.944-0.081-2.039-0.197-3.286c0.124,0.046,0.333,0.081,0.631,0.101
	c0.602,0.105,1.021,0.173,1.262,0.202c-0.023,0.256,0.001,0.631,0.069,1.126c0.04,1.13,0.034,1.921-0.02,2.37
	c0.03,1.889-0.912,2.905-2.829,3.048l-2.072,0.292c-1.947,0.336-3.032-0.49-3.253-2.478l-1.345-9.563l5.439-0.765l-0.822-5.849
	l-5.698,0.801l-0.273-1.949l7.599-1.068l1.355,9.655L501.654,146.877z M506.804,120.856l-1.462-10.398l3.194-0.449l-0.574-4.084
	l1.813-0.255l0.573,4.085l3.281-0.461l1.33,9.47l-3.28,0.461l0.64,4.549c0.229-0.032,0.601-0.116,1.108-0.251
	c0.52-0.073,0.889-0.156,1.109-0.25l-1.116-2.305l1.489-0.683c0.744,1.538,1.618,3.37,2.622,5.501l-1.588,0.602
	c-0.085-0.177-0.216-0.476-0.391-0.892c-0.102-0.303-0.193-0.541-0.276-0.719c-3.442,0.988-6.148,1.778-8.119,2.372l-0.619-1.901
	c0.738-0.166,2.07-0.511,3.992-1.034l-0.665-4.735l-1.554,0.218l0.13,0.929L506.804,120.856z M507.256,112.178l0.796,5.663
	l1.729-0.243l-0.796-5.663L507.256,112.178z M511.848,156.713l-2.558-18.196l2.331-0.328c0.021-0.254,0.061-0.607,0.116-1.058
	c0.134-0.712,0.21-1.639,0.226-2.777l2.211,0.068c-0.133,1.155-0.291,2.313-0.479,3.476l3.886-0.546l2.531,18.01l-1.899,0.267
	l-0.248-1.764l-4.403,0.619l0.273,1.95L511.848,156.713z M512.264,111.474l-1.727,0.243l0.796,5.663l1.727-0.243L512.264,111.474z
	 M511.562,140.281l0.719,5.106l4.401-0.619l-0.717-5.106L511.562,140.281z M512.567,147.429l0.743,5.292l4.403-0.619l-0.744-5.292
	L512.567,147.429z M513.863,109.071l-0.301-2.135l11.482-1.614l0.301,2.135l-5.611,0.789l0.729,5.199l0.587-0.84
	c1.471,0.867,3.309,2.029,5.508,3.486l-1.146,1.865c-1.563-1.106-3.153-2.175-4.767-3.212l1.632,11.604l-1.985,0.279l-2.544-18.104
	L513.863,109.071z M527.104,154.38c-1.151,0.162-2.36,0.332-3.625,0.51c-0.154-0.674-0.403-1.396-0.745-2.167
	c0.756-0.044,1.883-0.17,3.38-0.38c1.629-0.103,2.326-0.989,2.092-2.661c-0.076-1.376-0.399-4.299-0.968-8.763
	c-0.126-1.308-0.228-2.24-0.306-2.797l-5.181,0.728c-0.152,0.59-0.413,1.447-0.783,2.572c-0.161,0.528-0.281,0.924-0.36,1.187
	c-0.57-0.299-1.198-0.589-1.885-0.872c1.008-2.854,1.689-5.729,2.047-8.619l2.052,0.185c-0.063,0.388-0.162,0.938-0.296,1.651
	c-0.126,0.775-0.222,1.356-0.283,1.744l6.389-0.898c0.558,3.961,1.094,8.62,1.612,13.974
	C530.616,152.434,529.569,153.97,527.104,154.38L527.104,154.38z M524.562,148.205c-0.35-0.392-0.871-0.98-1.567-1.768
	c-0.99-1.186-1.762-2.086-2.317-2.704l1.397-1.333c0.489,0.563,1.215,1.344,2.179,2.345c0.821,0.831,1.443,1.501,1.867,2.01
	L524.562,148.205z M530.938,119.076l1.14-1.296l5.232,4.661l-1.198,1.494L530.938,119.076z M531.811,137.143l-0.3-2.135l8.375-1.177
	l-0.47-3.342l2.158-0.304l0.47,3.342l8.461-1.189l0.3,2.135l-8.461,1.189l0.509,3.621l7.166-1.007l0.287,2.042l-7.166,1.007
	l0.509,3.621l9.152-1.286l0.3,2.135l-9.15,1.286l0.743,5.292l-2.158,0.303l-0.744-5.292l-9.151,1.286l-0.301-2.135l9.152-1.286
	l-0.51-3.621l-7.166,1.007l-0.286-2.042l7.166-1.007l-0.51-3.621L531.811,137.143z M550.547,106.94
	c-0.344-0.771-0.846-1.836-1.506-3.196c-0.186-0.479-0.356-0.864-0.516-1.158l1.156-0.542c0.074,0.117,0.19,0.321,0.352,0.614
	c0.885,1.707,1.466,2.918,1.743,3.636L550.547,106.94z M557.316,115.646c-0.424-0.508-1.084-1.235-1.979-2.183
	c-0.198-0.162-0.336-0.299-0.41-0.416l1.2,8.541l-1.727,0.243l-1.2-8.541c-0.396,2.202-1.002,4.149-1.82,5.841
	c-0.11-0.363-0.333-0.9-0.667-1.61c-0.102-0.301-0.188-0.509-0.264-0.625c1.039-1.787,1.762-4.16,2.168-7.121l-2.85,0.4
	l-0.247-1.764l2.936-0.413l-1.148-8.169l1.729-0.243l1.146,8.169l2.592-0.364l0.247,1.764l-2.591,0.364l0.365,2.599l0.759-0.864
	c1.369,1.386,2.36,2.383,2.975,2.99L557.316,115.646z M553.82,135.282l-0.652-4.642l8.721-1.226
	c-0.034-0.247-0.141-0.58-0.315-0.997c-0.127-0.486-0.233-0.819-0.316-0.997l2.307-0.513l0.657,2.18l8.375-1.177l0.652,4.642
	l-1.986,0.279l-0.417-2.971l-15.455,2.172l0.419,2.971L553.82,135.282z M556.556,101.458c-0.253,1.55-0.558,3.14-0.915,4.767
	l-1.359-0.282c0.415-1.635,0.72-3.225,0.915-4.767L556.556,101.458L556.556,101.458z M557.122,150.628l-1.253-8.913l17.182-2.415
	l1.253,8.913l-1.985,0.279l-0.156-1.114l-13.21,1.856l0.156,1.114L557.122,150.628z M556.877,134.474l-0.17-1.207l13.21-1.856
	l0.17,1.207L556.877,134.474z M557.5,140.162l-0.601-4.271l13.642-1.917l0.601,4.271L557.5,140.162z M557.131,102.418l-0.209-1.485
	l4.835-0.68l-0.273-1.95l1.899-0.267l0.273,1.949l5.354-0.752l0.208,1.485l-5.353,0.752l0.209,1.485l4.835-0.68l0.195,1.393
	l-4.835,0.68l0.222,1.578l5.698-0.801l0.209,1.485l-12.778,1.796l-0.209-1.485l5.181-0.729l-0.222-1.578l-4.403,0.619l-0.194-1.393
	l4.402-0.619l-0.209-1.485L557.131,102.418z M558.064,142.922l0.261,1.857l5.612-0.789l-0.263-1.856L558.064,142.922z
	 M558.508,146.079l0.234,1.671l5.611-0.789l-0.233-1.671L558.508,146.079z M560.185,121.018l-1.577-11.233l10.792-1.517l1.174,8.355
	c0.301,1.724-0.407,2.739-2.125,3.044c-0.23,0.032-0.604,0.085-1.122,0.158c-0.684,0.158-1.227,0.267-1.628,0.323
	c-0.194-0.541-0.424-1.14-0.692-1.796c0.583-0.02,1.423-0.105,2.518-0.259c0.986-0.076,1.391-0.543,1.212-1.401l-0.104-0.743
	l-7.166,1.007l0.535,3.806L560.185,121.018z M559.068,136.912l0.233,1.671l9.584-1.347l-0.233-1.671L559.068,136.912z
	 M560.615,110.922l0.233,1.671l7.166-1.007l-0.233-1.671L560.615,110.922z M561.046,113.985l0.222,1.579l7.166-1.007l-0.222-1.578
	L561.046,113.985z M571.273,141.066l-5.611,0.789l0.261,1.857l5.612-0.789L571.273,141.066z M566.105,145.011l0.233,1.671
	l5.612-0.789l-0.234-1.671L566.105,145.011z M574.842,101.919c-1.387-1.509-2.52-2.676-3.396-3.499l1.483-1.345
	c0.207,0.224,0.543,0.524,1.007,0.9c1.161,1.163,1.982,1.994,2.465,2.494L574.842,101.919z M576.488,115.509
	c-0.915,1.012-1.673,2.096-2.272,3.254l-1.263-2.095c0.155-0.147,0.407-0.436,0.759-0.864c0.692-0.917,1.19-1.555,1.492-1.914
	l-1.019-7.241l-2.33,0.328l-0.287-2.042l4.315-0.607l1.279,9.098c1.213,1.534,2.942,2.143,5.187,1.827
	c1.274-0.117,4.01-0.501,8.202-1.153c1.611-0.227,2.733-0.384,3.367-0.473c-0.126,0.775-0.231,1.484-0.317,2.127
	c-5.87,0.825-9.731,1.335-11.582,1.533C579.718,117.611,577.873,117.019,576.488,115.509L576.488,115.509z M574.833,128.828
	l-0.222-1.578l5.871-0.825l-0.234-1.671l1.898-0.267l0.234,1.671l5.525-0.776l-0.234-1.671l1.899-0.267l0.233,1.671l5.612-0.789
	l0.222,1.578l-5.61,0.789l0.155,1.114l-1.898,0.267l-0.157-1.114l-5.525,0.777l0.156,1.114l-1.897,0.267l-0.157-1.114
	L574.833,128.828z M575.402,132.251l-0.209-1.485l9.497-1.335l0.209,1.486l-2.764,0.388l0.3,2.135l2.159-0.303l1.854,13.183
	l-1.468,0.207l-0.171-1.207l-5.438,0.765l0.17,1.207l-1.468,0.207l-1.854-13.183l2.244-0.315l-0.3-2.135L575.402,132.251z
	 M580.035,101.284c-0.215,0.977-0.438,1.893-0.671,2.745c-0.182-0.037-0.487-0.121-0.915-0.25c-0.487-0.121-0.82-0.2-1.002-0.238
	c0.788-2.319,1.291-4.598,1.504-6.838l1.865,0.117c-0.023,0.256-0.081,0.674-0.177,1.255c-0.037,0.573-0.091,1.023-0.162,1.348
	l2.764-0.388l-0.522-3.713l1.986-0.279l0.521,3.713l5.182-0.728l0.248,1.764l-5.182,0.728l0.51,3.621l6.044-0.849l0.248,1.764
	l-4.576,0.643l0.587,4.178c0.072,0.937,0.479,1.322,1.219,1.154l0.519-0.073c0.699-0.035,1.046-0.493,1.039-1.377
	c0.02-0.696,0.001-1.451-0.055-2.265c0.609,0.167,1.188,0.307,1.732,0.419c0.055,0.813,0.077,1.599,0.065,2.357
	c-0.021,1.518-0.723,2.374-2.104,2.568l-1.642,0.23c-1.604,0.289-2.511-0.53-2.723-2.458l-0.626-4.456l-2.591,0.364
	c0.553,3.52-0.382,6.271-2.802,8.251c-0.531-0.43-1.095-0.888-1.69-1.372c2.235-1.64,3.099-3.844,2.593-6.613l-3.626,0.51
	l-0.248-1.764l6.648-0.934l-0.509-3.621L580.035,101.284L580.035,101.284z M577.725,135.617l0.534,3.806
	c0.742-0.987,0.995-2.317,0.761-3.988L577.725,135.617z M583.28,138.813c-1.036,0.146-1.624-0.276-1.765-1.267l-0.339-2.414
	l-1.122,0.158c0.278,1.982,0.012,3.629-0.803,4.941c-0.207-0.223-0.469-0.408-0.782-0.553l0.223,1.578l5.438-0.765l-0.247-1.764
	L583.28,138.813z M578.889,142.648l0.301,2.135l5.438-0.765l-0.3-2.135L578.889,142.648z M579.547,131.668l0.3,2.135l1.122-0.158
	l-0.3-2.135L579.547,131.668z M583.596,134.792l-1.296,0.182l0.263,1.857c0.027,0.627,0.299,0.874,0.808,0.738l0.604-0.084
	L583.596,134.792z M586.729,134.541c-0.283,0.482-0.563,0.995-0.84,1.538c-0.301-0.462-0.638-0.982-1.013-1.562
	c1.155-1.803,1.931-3.805,2.326-6.007l1.68,0.048c-0.095,0.582-0.247,1.171-0.456,1.769l2.937-0.413
	c-0.067-0.053-0.139-0.138-0.212-0.254c-0.441-0.632-0.771-1.09-0.986-1.376l1.489-0.683c0.498,0.625,0.973,1.283,1.423,1.978
	l-0.333,0.141l3.021-0.425l0.195,1.393l-3.281,0.461l0.235,1.671l2.849-0.4l0.196,1.393l-2.85,0.4l0.234,1.671l2.85-0.4l0.195,1.393
	l-2.85,0.4l0.234,1.671l3.367-0.474l0.195,1.393l-8.029,1.128l0.078,0.557l-1.641,0.231L586.729,134.541L586.729,134.541z
	 M588.987,142.46c-0.099,1.401-0.244,2.652-0.441,3.754c-0.058,0.008-0.206-0.003-0.444-0.032c-0.534-0.052-0.864-0.1-0.988-0.145
	c0.172-1.287,0.326-2.475,0.468-3.568L588.987,142.46L588.987,142.46z M588.018,131.804l0.235,1.671l3.108-0.437l-0.235-1.671
	L588.018,131.804z M588.448,134.867l0.234,1.671l3.107-0.437l-0.234-1.671L588.448,134.867z M588.879,137.931l0.234,1.671
	l3.107-0.437l-0.233-1.671L588.879,137.931z M590.752,145.62c-0.264-1.037-0.555-2.068-0.875-3.096l1.441-0.392
	c0.107,0.363,0.27,0.877,0.479,1.542c0.152,0.672,0.284,1.191,0.396,1.554L590.752,145.62z M593.748,145.01
	c-0.076-0.117-0.16-0.294-0.251-0.533c-0.212-0.665-0.56-1.469-1.043-2.409l1.342-0.473c0.493,1.004,0.924,1.984,1.294,2.942
	L593.748,145.01z M596.882,144.758c-0.159-0.294-0.362-0.706-0.614-1.239c-0.168-0.355-0.522-1-1.063-1.934l1.416-0.578
	c0.092,0.24,0.256,0.565,0.489,0.973c0.29,0.4,0.688,1.134,1.188,2.2L596.882,144.758z"/>
</svg>
