<svg xmlns="http://www.w3.org/2000/svg" xmlns:xlink="http://www.w3.org/1999/xlink" width="640" height="652" viewBox="0 0 640 652"><defs><path id="a" d="M0 85.907l375.967-52.676 9.603 68.329-385.57 54.022z"/></defs><use xlink:href="#a" overflow="visible" fill-rule="evenodd" clip-rule="evenodd" fill="#fff"/><clipPath id="b"><use xlink:href="#a" overflow="visible"/></clipPath><path clip-path="url(#b)" fill-rule="evenodd" clip-rule="evenodd" fill="#9C9C9C" d="M355.667 84.228l30.334 20.772-8.167-74.001-26.834 14.281z"/><path fill-rule="evenodd" clip-rule="evenodd" fill="#fff" d="M346.863 18.235l116.104-17.003 9.603 68.328-116.105 17.004z"/><path fill="#30D4D1" d="M373.531 36.208l-.521-3.714 6.475-.91c-.169-.501-.518-1.241-1.045-2.22-.155-.397-.295-.693-.419-.888l4.396-1.091c.696 1.48 1.206 2.671 1.529 3.572l5.756-.809.522 3.713-4.749.667 3.793.887-1.881 4.367 4.317-.606.521 3.713-6.763.951.456 3.249 6.188-.869.521 3.713-6.188.87 1.196 8.51c.5 2.874-.632 4.559-3.399 5.054-.657.196-1.801.411-3.432.64-.439-1.728-.916-3.027-1.429-3.902l1.439-.202 1.151-.162c1.26-.074 1.756-.72 1.487-1.945l-1.044-7.427-6.619.931-.522-3.713 6.62-.931-.457-3.249-7.482 1.051-.522-3.713 4.604-.647c-.957-1.231-1.952-2.408-2.989-3.524l2.517-1.932-4.027.566zm7.79 17.84c-.666 2.934-1.412 5.617-2.244 8.047l-3.34-.793c.817-2.534 1.564-5.215 2.244-8.047l3.34.793zm-1.255-16.234c.581.655 1.045 1.169 1.391 1.54l-1.984 1.541 4.029-.566c.363-.892.819-2.167 1.37-3.822l.603-1.978-7.339 1.031c.469.566 1.114 1.319 1.93 2.254zm11.147 20.839l-3.826-5.3 2.805-1.972c1.314 1.709 2.576 3.373 3.782 4.991.553-3.021.461-7.165-.278-12.426l-2.088-14.854c4.849-.997 9.237-2.139 13.165-3.428l1.86 3.841c-3.56 1.131-7.043 2.094-10.453 2.889l.936 6.653 11.224-1.578.588 4.178-3.598.506 2.675 19.032-3.886.546-2.675-19.032-3.741.526.065.464c1.322 8.019.911 14.494-1.232 19.423-.413-.154-1.047-.484-1.9-.995-.937-.396-1.619-.719-2.045-.975.147-.336.315-.887.502-1.648.431-1.111.739-2.049.926-2.812l-2.806 1.971zm23.249-21.102l-.631-4.487 2.878-.405-1.349-9.593 3.886-.546 1.348 9.593 2.446-.344.631 4.487-2.446.344 1.74 12.378 3.179-1.394c.121 1.561.338 3.108.652 4.642-.819.431-2.106 1.033-3.855 1.804-2.408.97-4.254 1.754-5.538 2.356l-1.351-4.386c1.012-.458 2.072-.922 3.18-1.394l-1.892-13.461-2.878.406zm10.659 2.762l-2-14.235 5.18-.728c-.236-.282-.532-.66-.893-1.137-.832-1.039-1.427-1.796-1.787-2.273l4.229-1.226 3.056 3.989 3.741-.526c.496-1.332 1.055-2.934 1.672-4.811l4.591.301c-.297.673-.789 1.689-1.479 3.048-.15.337-.258.616-.323.834l5.324-.748 2 14.235-23.311 3.277zm4.049 18.366l-2.305-16.401 20.289-2.852 2.306 16.401-4.029.566-.239-1.702-12.088 1.699.239 1.702-4.173.587zm-1.995-29.857l1.065 7.582 6.332-.89-1.065-7.582-6.332.89zm4.1 6.208c-.875-1.349-1.894-2.677-3.055-3.988l1.963-1.696c.565.552 1.397 1.594 2.493 3.121.346.373.58.656.706.848l-2.107 1.715zm.22 9.91l.391 2.785 12.088-1.699-.392-2.785-12.087 1.699zm.804 5.725l.392 2.785 12.088-1.699-.392-2.785-12.088 1.699zm10.993-24.108l-6.332.89 1.065 7.582 6.332-.89-1.065-7.582zm-1.585 5.43c-.475.804-.779 1.426-.912 1.864l-2.354-1.089c.147-.336.331-.781.546-1.339.755-1.578 1.275-2.755 1.558-3.533l2.498 1.069-1.336 3.028z"/><path fill="#17BDBA" d="M29.005 104.178l-.789-5.609 7.375-1.036-1.416-3.548 6.934-1.566 1.317 4.154 7.015-.986.789 5.609-5.037.708 4.147.798-2.073 4.828 4.497-.632.789 5.609-7.915 1.112.435 3.094 7.195-1.011.788 5.609-7.195 1.011 1.359 9.671c.662 3.852-.786 6.157-4.347 6.922l-4.317.607c-.577-1.497-1.173-3.124-1.786-4.877.036.257-.048.531-.251.824-.066.404-.151.678-.251.824l-4.769-1.302c1.004-3.297 1.878-6.64 2.625-10.033l4.921 1.083c-.214 1.084-.589 2.779-1.119 5.088-.317 1.228-.559 2.119-.726 2.666l2.158-.303c1.439-.202 2.006-.938 1.707-2.212l-1.142-8.123-8.274 1.163-.788-5.609 8.274-1.163-.435-3.095-9.173 1.289-.788-5.609 5.036-.708c-.468-.723-1.351-1.783-2.647-3.178-.296-.353-.512-.584-.648-.698l2.84-1.977-4.315.606zm8.573.964c.726.819 1.306 1.462 1.738 1.925l-2.48 1.927 4.317-.607c.807-2.086 1.553-4.163 2.242-6.232l-7.734 1.087c.413.336 1.053.971 1.917 1.9zm13.475 26.705l-4.423-6.676 4.198-2.759c.293.353.667.828 1.117 1.421.586.707 1.497 1.959 2.729 3.758.366-3.469.117-8.3-.752-14.489l-2.609-18.568c5.36-1.015 10.895-2.517 16.609-4.503l2.875 6.104c-1.644.496-4.117 1.17-7.418 2.028-2.243.581-3.956 1.019-5.135 1.313l.951 6.77 13.131-1.846.897 6.383-3.777.531 3.262 23.209-5.936.834-3.262-23.209-3.417.48.027.193c1.634 9.896 1.251 18.037-1.153 24.421l-1.782-.933c-1.844-.924-3.229-1.651-4.158-2.177l.376-1.236c.27-.694.602-1.792 1.004-3.297l-3.354 2.248zm52.958-39.786l-.815-5.802 15.829-2.225.815 5.802-4.497.632c.393 4.549.589 7.677.585 9.385l.119 2.152 5.936-.834.815 5.802-7.015.986c.037.26-.021.728-.169 1.405-.03.664-.079 1.194-.142 1.598l2.698-.379 1.414 10.058c.127.904.429 1.32.91 1.253l.36-.051c.617.046.904-.521.862-1.699l-.38-2.708c-.118-1.691-.21-2.796-.282-3.313l3.482 1.286c.454 3.224.6 5.571.439 7.039.139 2.742-1.168 4.306-3.926 4.693l-1.259.177c-2.981.548-4.628-.73-4.942-3.842l-.789-5.609c-1.137 4.104-3 8.243-5.591 12.422-.414-.336-1.295-.937-2.638-1.799-1.088-.769-1.836-1.32-2.25-1.656.202-.293.507-.731.916-1.312.747-.761 1.267-1.426 1.554-1.994l-1.406-2.169c-.426.454-1.073 1.072-1.941 1.851-1.158 1.346-1.958 2.183-2.399 2.506-.324.308-.862.843-1.608 1.607-.732.892-1.249 1.556-1.554 1.994l-4.043-3.968c.898-1.439 1.184-3.322.858-5.643l-1.604-11.411-1.038 5.668c-.71-.689-1.477-1.37-2.305-2.043l2.909 20.695-5.396.758-2.636-18.761c-.423 3.085-1.113 6.008-2.069 8.771-.32-1.4-.876-3.624-1.671-6.668-.284-1.144-.522-1.964-.713-2.464 1.346-3.475 2.111-7.594 2.299-12.354l-3.418.48-.87-6.189 3.777-.531-1.196-8.51 5.396-.759 1.196 8.51 2.698-.379.87 6.189-2.698.379.489 3.481c1.481.976 2.903 1.959 4.267 2.951l-2.772-19.728 12.231-1.719 3.479 24.757-7.375 1.036 1.087 7.736 2.912-2.776-2.081-3.061 3.865-2.515 5.044 7.18c1.177-2.927 1.942-6.19 2.293-9.79l-5.037.708-.861-15.263 3.777-.531.405 9.41 1.979-.278-.119-2.153c.052-2.241-.203-5.361-.765-9.359l-6.295.888zm-5.865.035l-3.058.43.598 4.255 3.058-.43-.598-4.255zm-1.698 10.101l.598 4.255 3.058-.43-.598-4.255-3.058.43zm74.49-15.801c-.402 1.505-1.103 3.902-2.106 7.199-8.195-1.739-14.95-5-20.267-9.774-3.628 5.508-9.558 10.746-17.785 15.714-.469-.723-1.396-2.103-2.784-4.145-.505-.98-.905-1.648-1.199-2.001 9-4.683 14.869-9.911 17.605-15.688l8.121-.944-.834 1.893c4.97 4.033 11.386 6.616 19.249 7.746zm-31.512 23.757c-.799 5.635-1.599 9.957-2.397 12.96-1.962-.908-3.94-1.486-5.93-1.731.118-.017.212-.227.278-.631 1.062-4.618 1.684-8.452 1.868-11.504l6.181.906zm21.224-2.983c-1.363-.992-3.204-1.917-5.525-2.773l2.721-4.13-22.484 3.16-.815-5.802 13.851-1.946c-1.179-1.413-2.603-2.855-4.277-4.33l4.242-3.751c2.053 1.554 3.934 3.194 5.645 4.926l-3.091 2.801 13.49-1.896.843 5.996-4.6 7.745zm9.159 10.35c-.865-.933-2.062-2.472-3.585-4.624-.45-.593-.823-1.068-1.117-1.421.037.26.02.589-.044.992-.124 1.728-.346 3.204-.661 4.432-.405 3.213-2.536 5.022-6.39 5.435l-8.994 1.264c-4.659.784-7.292-1.41-7.896-6.583l-1.277-9.09 6.475-.91 1.061 7.543c.205 2.338 1.318 3.3 3.34 2.884l4.856-.683c2.056-.156 3.067-1.22 3.037-3.188.028-.66.021-1.581-.021-2.758.027-.661.026-1.12-.011-1.379.257.097.703.231 1.341.403 1.134.235 2.704.542 4.714.916l-2.441-3.01 4.602-3.802c1.315 1.525 3.139 3.636 5.476 6.331l2.647 3.178-5.112 4.07zm-16.671-3.771c-1.922-2.359-4.102-4.814-6.538-7.365l4.602-3.802c1.554 1.492 2.054 2.013 1.504 1.563 2.418 2.422 4.188 4.145 5.312 5.17l-4.88 4.434zm37.29-29.893c-.757 6.812-2.107 15.024-4.059 24.633-2.443-.84-4.787-1.429-7.036-1.772 1.827-7.881 3.155-15.828 3.987-23.834l7.108.973zm9.298 32.223c-2.621.498-5.009.901-7.167 1.205-.843-2.513-1.718-4.819-2.625-6.929l2.878-.404c1.336-.056 2.365-.135 3.085-.236 2.294-.19 3.211-1.502 2.748-3.937l-4.811-34.234 7.195-1.011 5.138 36.555c1.12 5.365-1.027 8.36-6.441 8.991zm16.987-12.249c-3.073-7.063-6.679-14.445-10.816-22.148l6.356-3.063c.659 1.223.902 1.648.73 1.278 4.733 9.329 8.257 16.131 10.572 20.407l-6.842 3.526zm20.28-13.892c-3.134-4.028-6.398-8.106-9.79-12.233l4.879-4.433c.726.819 1.748 1.992 3.062 3.514 3.18 3.498 5.584 6.251 7.213 8.256l-5.364 4.896zm36.601 9.845c-1.409 2.17-2.667 4.517-3.78 7.04-9.474-3.008-15.951-8.211-19.436-15.611-1.007 7.636-6.011 14.651-15.018 21.045l-5.214-5.776c11.129-6.954 15.978-15.525 14.546-25.712-.419-5.593-1.01-11.101-1.771-16.516l7.015-.986c.507 3.611 1.075 8.527 1.706 14.75l.245 1.74c3.614 10.932 10.849 17.608 21.707 20.026zm-4.993-27.699c-2.243 4.919-4.729 9.87-7.45 14.853l-5.869-3.909c3.184-5.181 5.523-9.849 7.02-14.004l6.299 3.06zm9.975 8.058l-.571-4.062-2.315-3.422c1.615-4.171 2.677-8.789 3.188-13.86l6.099.326-.295 1.817c-.169.551-.331 1.56-.491 3.027l6.295-.885.815 5.802-8.634 1.213c-.084.277-.26.761-.529 1.455l-.753 2.473 8.994-1.264.788 5.609-3.957.556.598 4.255 4.497-.632.815 5.802-4.497.632.897 6.383c1.209-.959 2.462-2.054 3.756-3.29.254 1.808.671 3.918 1.257 6.332-1.128.683-2.772 2.032-4.934 4.047-.324.307-.597.543-.818.707-.103.144-.315.371-.638.681-.547.471-.97.925-1.276 1.363l-3.819-4.986c.674-1.278.888-2.818.634-4.625l-.815-5.802-4.137.582-.815-5.802 4.137-.582-.598-4.255-2.878.405zm15.988-5.008l-2.229-15.86 22.125-3.109 2.229 15.86-8.094 1.138.435 3.094 10.073-1.416 2.5 17.794c.892 4.608-.882 7.224-5.316 7.848-1.183.295-3.031.623-5.549.977-.668-2.144-1.353-3.952-2.048-5.432l4.677-.657c2.074-.026 2.819-1.25 2.236-3.667l-.218-1.547-2.263 3.474c-1.692-1.602-3.438-3.131-5.23-4.59-.789 2.215-2.23 4.587-4.319 7.116l-2.512-2.211 1.223 8.703-5.576.784-3.506-24.95 10.073-1.416c-.027-1.047-.11-2.086-.255-3.12l-8.456 1.187zm4.136-11.035l.625 4.449 10.972-1.542-.625-4.449-10.972 1.542zm.892 19.401l1.006 7.156c2.21-2.545 3.314-5.132 3.312-7.763l-4.318.607zm14.57-2.048l-4.677.657c.019.13-.016.332-.098.605.054.387.029.656-.071.799 2.035 1.425 3.939 2.8 5.716 4.128l-.87-6.189z"/></svg>