<?xml version="1.0" encoding="utf-8"?>
<!-- Generator: Adobe Illustrator 16.0.0, SVG Export Plug-In . SVG Version: 6.00 Build 0)  -->
<!DOCTYPE svg PUBLIC "-//W3C//DTD SVG 1.1//EN" "http://www.w3.org/Graphics/SVG/1.1/DTD/svg11.dtd">
<svg version="1.1" id="图层_1" xmlns="http://www.w3.org/2000/svg" xmlns:xlink="http://www.w3.org/1999/xlink" x="0px" y="0px"
	 width="640px" height="318px" viewBox="0 0 640 318" enable-background="new 0 0 640 318" xml:space="preserve">
<polygon fill="#97744A" stroke="#D5B281" stroke-miterlimit="10" points="-1,106 566.146,25.36 639,15.001 639,192.001 
	434.531,221.395 -1,284.001 "/>
<polygon fill="#A27C4D" points="522.369,31.975 448.719,218.596 640,191.232 640,15.785 "/>
<polygon fill="#A27C4D" points="-1,106.451 -1,283.001 80.824,271.239 243,71.758 "/>
<path fill="#FFFFFF" d="M39.606,146.701l-0.235-1.671l18.908-2.657l0.235,1.671l-8.461,1.189l0.287,2.042l7.425-1.043l0.222,1.578
	l-7.425,1.044l0.274,1.949l9.325-1.311l0.248,1.764l-20.635,2.9l-0.248-1.764l9.325-1.311l-0.274-1.95l-7.425,1.043l-0.222-1.578
	l7.425-1.043l-0.287-2.042L39.606,146.701z M40.677,143.047l-1.227-8.727l4.749-0.667c0.12-0.396,0.248-0.949,0.382-1.663
	c0.022-0.255,0.03-0.414,0.021-0.477l2.271-0.13c-0.041,0.133-0.072,0.327-0.094,0.582c-0.152,0.589-0.292,1.051-0.422,1.385
	l8.979-1.262l1.226,8.727L40.677,143.047z M44.746,165.691c-1.002-0.867-2.035-1.732-3.094-2.594l1.225-1.31
	c1.108,0.791,2.16,1.59,3.154,2.396L44.746,165.691z M41.671,135.713l0.274,1.949l11.915-1.674l-0.274-1.95L41.671,135.713z
	 M47.364,167.407c-1.277,0.937-2.735,2.057-4.371,3.358l-1.064-1.934c1.245-0.743,2.956-1.93,5.134-3.562l-0.691-4.92l1.899-0.268
	l1.448,10.305l-1.899,0.268L47.364,167.407L47.364,167.407z M42.141,139.055l0.287,2.042l11.915-1.674l-0.287-2.042L42.141,139.055z
	 M42.738,174.589l-0.248-1.764l9.67-1.359c-0.3-0.462-0.666-0.979-1.098-1.55l1.748-0.719c0.498,0.625,0.973,1.283,1.422,1.978
	l8.893-1.25l0.248,1.765L54.049,173c0.865,1.143,1.723,2.029,2.576,2.667c1.769-1.194,3.128-2.175,4.077-2.938l1.271,1.524
	c-0.271,0.165-0.672,0.442-1.204,0.832c-1.016,0.71-1.818,1.267-2.408,1.663c1.685,0.71,3.613,1.07,5.787,1.08
	c-0.25,0.729-0.529,1.462-0.835,2.199c-4.961-0.627-8.527-2.618-10.701-5.975c-0.635,0.91-1.418,1.809-2.35,2.697l0.443,3.156
	c0.279-0.104,0.639-0.248,1.083-0.438c1.435-0.643,2.596-1.152,3.482-1.529c0.046,0.75,0.105,1.371,0.175,1.867
	c-1.715,0.746-3.176,1.426-4.38,2.036c-0.28,0.103-0.608,0.274-0.984,0.517c-0.222,0.095-0.386,0.182-0.492,0.26l-1.159-1.352
	c0.341-0.49,0.478-0.983,0.409-1.479l-0.222-1.579c-1.212,0.991-2.636,1.918-4.276,2.778c-0.084-0.178-0.272-0.467-0.562-0.867
	c-0.234-0.408-0.421-0.698-0.563-0.868c3.289-1.66,5.862-3.601,7.723-5.817L42.738,174.589z M45.351,193.834l-0.248-1.764
	l9.583-1.348l-0.978-1.945l2.192-0.687c0.074,0.116,0.154,0.263,0.238,0.438c0.242,0.473,0.506,1.099,0.792,1.878l8.807-1.237
	l0.248,1.764L45.351,193.834z M49.19,211.756l-2.114-15.04L52.171,196l-1.894-2.195l1.821-0.824c0.141,0.17,0.415,0.449,0.821,0.832
	c0.705,0.849,1.163,1.385,1.37,1.605l-1.169,0.449l4.576-0.645c0.543-1.147,1.032-2.259,1.469-3.33l1.978,0.289
	c-0.121,0.396-0.388,1.002-0.801,1.817c-0.179,0.403-0.312,0.706-0.4,0.908l5.094-0.716l1.657,11.789
	c0.384,1.901-0.377,2.955-2.285,3.162c-0.807,0.112-1.756,0.246-2.849,0.399c-0.221-0.726-0.427-1.358-0.62-1.899
	c0.756-0.045,1.596-0.131,2.517-0.261c1.044-0.084,1.477-0.555,1.298-1.413l-1.37-9.748l-14.16,1.99l1.866,13.275L49.19,211.756z
	 M49.947,164.486l-0.248-1.764l5.094-0.716l-0.378-2.692l1.899-0.267l0.378,2.692l5.094-0.717l0.248,1.765l-5.094,0.716l0.391,2.785
	l4.49-0.631l0.248,1.764l-10.792,1.518l-0.248-1.765l4.403-0.618l-0.391-2.785L49.947,164.486z M53.027,223.355
	c-1.072-1.363-2.165-2.662-3.276-3.895l1.583-1.264c0.348,0.394,0.904,1.009,1.668,1.848c0.772,0.902,1.332,1.551,1.682,1.941
	L53.027,223.355z M54.893,236.632c-0.897,1.136-1.646,2.282-2.246,3.44l-1.263-2.096c0.798-0.996,1.57-1.986,2.312-2.976
	l-1.005-7.147l-2.504,0.352l-0.287-2.043l4.49-0.631l1.279,9.099c1.213,1.533,2.942,2.144,5.187,1.827
	c3.644-0.387,7.471-0.925,11.483-1.614c0.008,0.062-0.008,0.158-0.047,0.291c-0.152,0.589-0.238,1.231-0.257,1.931
	c-1.267,0.178-3.199,0.416-5.798,0.72c-2.821,0.396-4.725,0.632-5.711,0.708C58.222,238.814,56.345,238.193,54.893,236.632
	L54.893,236.632z M51.164,203.242c-0.309-0.524-0.729-1.001-1.258-1.434c1.316-1.067,2.709-2.432,4.179-4.091l1.478,1.118
	c-1.022,1.09-1.945,2.041-2.769,2.852l8.289-1.166l0.9,6.406l-8.375,1.178l-0.9-6.406L51.164,203.242z M55.1,206.191l4.921-0.691
	l-0.443-3.156l-4.921,0.691L55.1,206.191z M55.803,223.061l-0.274-1.949l6.389-0.897c-0.309-0.524-0.767-1.278-1.375-2.269
	c-0.225-0.348-0.408-0.604-0.549-0.774l1.994-0.848c0.149,0.231,0.375,0.579,0.675,1.04c0.599,0.927,1.025,1.654,1.276,2.188
	l-1.157,0.541l6.821-0.958l0.274,1.949l-2.072,0.291c-0.384,2.705-1.165,5.087-2.342,7.146c1.746,1.144,3.47,2.353,5.176,3.627
	l-1.233,1.877c-0.531-0.43-1.317-1.012-2.359-1.75c-1.242-0.898-2.156-1.56-2.744-1.981c-1.222,1.75-3.143,3.535-5.763,5.354
	c-0.707-0.849-1.229-1.438-1.569-1.769c2.27-1.392,4.159-2.981,5.668-4.772c-2.161-1.59-3.949-2.82-5.362-3.695l1.186-1.587
	l5.335,3.51c1-1.655,1.644-3.544,1.933-5.668L55.803,223.061z M62.966,201.395c-1.596-0.912-3.374-1.859-5.331-2.849l0.854-1.444
	c0.999,0.428,2.288,1.035,3.866,1.822c0.636,0.354,1.111,0.602,1.425,0.746L62.966,201.395z M61.99,136.077l-0.6-4.271l9.238-1.298
	l-1.289-2.28l2.192-0.687c0.45,0.694,0.892,1.547,1.328,2.559l-0.16,0.117l8.202-1.153l0.601,4.271l-1.986,0.279l-0.353-2.507
	l-15.455,2.172l0.352,2.507L61.99,136.077z M65.108,136.964l-0.235-1.671l13.814-1.941l0.235,1.671l-5.525,0.777
	c-0.155,0.149-0.364,0.335-0.625,0.561c-0.515,0.515-0.932,0.888-1.251,1.123c0.936,0.815,1.67,1.659,2.205,2.53
	c2.105-1.305,4.049-2.714,5.833-4.228l1.271,1.525c-1.122,0.79-2.269,1.613-3.439,2.472c1.404,2.896,3.546,4.772,6.426,5.629
	c-0.334,0.553-0.688,1.169-1.061,1.854c-3.096-1.142-5.396-3.313-6.901-6.509c-0.107,0.079-0.291,0.23-0.552,0.456
	c-0.271,0.166-0.483,0.321-0.639,0.469c0.502,1.065,0.844,2.248,1.027,3.548c0.448,2.777-0.445,4.354-2.681,4.731
	c-0.863,0.122-1.813,0.255-2.849,0.4c-0.093-0.24-0.231-0.599-0.416-1.078c-0.11-0.363-0.208-0.633-0.29-0.811
	c0.345-0.049,0.81-0.083,1.394-0.102c0.46-0.064,0.834-0.117,1.123-0.158c1.456-0.079,2.033-0.979,1.733-2.705
	c-0.078-0.557-0.182-1.078-0.308-1.566c-2.154,2.638-5.15,4.92-8.986,6.849c-0.318-0.587-0.697-1.196-1.138-1.828
	c3.833-1.548,6.976-3.821,9.431-6.816c-0.225-0.347-0.458-0.755-0.701-1.227c-2.139,2.321-4.805,4.242-7.994,5.762
	c-0.084-0.177-0.272-0.466-0.563-0.868c-0.225-0.347-0.408-0.605-0.549-0.775c3.159-1.327,5.841-3.124,8.046-5.391
	c-0.084-0.177-0.263-0.404-0.536-0.682c-0.134-0.107-0.233-0.188-0.298-0.242c-1.907,1.468-4.128,2.79-6.662,3.966
	c-0.093-0.239-0.281-0.529-0.563-0.868c-0.233-0.408-0.421-0.698-0.562-0.868c3.579-1.26,6.349-2.848,8.311-4.766L65.108,136.964z
	 M68.764,162.316c-0.531-0.43-1.288-1.018-2.273-1.764c-0.587-0.422-1.043-0.736-1.365-0.943l1.086-1.667
	c0.579,0.361,1.422,0.936,2.532,1.727c0.579,0.36,1,0.649,1.266,0.863L68.764,162.316z M68.995,168.344
	c-1.44-1.06-2.644-1.9-3.612-2.521l1.086-1.669c0.19,0.102,0.417,0.259,0.683,0.474c1.348,0.82,2.348,1.47,3.002,1.944
	L68.995,168.344z M70.841,170.83c-0.183,2.046-0.452,4.924-0.812,8.634l-2.15-0.266c0.274-1.806,0.598-4.724,0.971-8.751
	c0.182,0.037,0.454,0.094,0.816,0.169C70.152,170.736,70.544,170.811,70.841,170.83L70.841,170.83z M70.667,160.818l-0.222-1.577
	l3.281-0.461l-0.3-2.135l1.899-0.267l0.3,2.135l3.972-0.558l-0.3-2.135l1.899-0.267l0.3,2.135l3.367-0.473l0.222,1.578l-3.367,0.473
	l0.3,2.136l4.058-0.57l0.222,1.578l-6.993,0.982l0.248,1.765l5.785-0.813l1.201,8.541l-13.383,1.881l-1.2-8.541l5.698-0.801
	l-0.248-1.764l-6.82,0.958l-0.222-1.578l3.885-0.546l-0.3-2.135L70.667,160.818z M74.331,203.206
	c-0.062,1.649-0.464,3.379-1.208,5.188c-0.19-0.102-0.513-0.308-0.968-0.623c-0.389-0.262-0.712-0.467-0.968-0.621
	c1.259-2.32,1.469-6.043,0.632-11.164l-1.018-7.241l8.548-1.202l-1.043-2.409l2.378-0.618l0.996,2.7l7.943-1.116l0.261,1.856
	l-16.836,2.366l0.783,5.57C74.275,199.048,74.441,201.486,74.331,203.206L74.331,203.206z M78.769,175.869
	c-1.991,1.289-3.855,2.436-5.592,3.438c-0.076-0.117-0.221-0.316-0.437-0.603c-0.292-0.399-0.512-0.718-0.662-0.948
	c2.091-0.988,3.91-2.031,5.458-3.134L78.769,175.869L78.769,175.869z M73.989,167.547l0.274,1.95l3.885-0.547l-0.274-1.949
	L73.989,167.547z M76.121,231.566l-0.261-1.856l8.116-1.142l-0.352-2.506l-7.598,1.067l-1.592-11.325l17.182-2.416l1.592,11.326
	l-7.598,1.067l0.353,2.507l8.202-1.152l0.261,1.856l-8.202,1.153l0.366,2.599l9.411-1.322l0.235,1.671l-20.808,2.926l-0.235-1.672
	l9.411-1.322l-0.366-2.601L76.121,231.566z M74.459,170.891l0.274,1.948l3.885-0.546l-0.274-1.95L74.459,170.891z M75.847,160.091
	l0.3,2.136l3.972-0.559l-0.3-2.135L75.847,160.091z M77.44,207.786l-1.344-9.562l4.576-0.645l-1.005-7.148l1.986-0.279l0.313,2.229
	l7.943-1.116l0.261,1.856l-7.943,1.116l0.431,3.062l6.562-0.922l1.344,9.562l-1.986,0.279l-0.209-1.486l-9.152,1.287l0.209,1.485
	L77.44,207.786z M76.767,217.37l0.417,2.971l5.526-0.776l-0.417-2.971L76.767,217.37z M77.419,222.012l0.431,3.063l5.526-0.776
	l-0.431-3.062L77.419,222.012z M78.343,199.802l0.639,4.55l9.152-1.287l-0.639-4.549L78.343,199.802z M83.66,166.188l-3.885,0.547
	l0.274,1.949l3.885-0.547L83.66,166.188z M80.244,170.076l0.274,1.949l3.885-0.547l-0.274-1.949L80.244,170.076z M87.323,177.223
	c-0.371-0.137-0.92-0.281-1.646-0.431c-1.783-0.569-3.251-0.996-4.405-1.274l0.841-1.537c2.367,0.552,4.34,1.029,5.925,1.438
	L87.323,177.223z M89.89,215.525l-5.612,0.789l0.417,2.971l5.612-0.789L89.89,215.525z M84.931,220.956l0.431,3.063l5.612-0.789
	l-0.431-3.063L84.931,220.956z M85.786,134.248l-0.3-2.135l8.807-1.238c-0.085-1.439-0.31-3.459-0.675-6.059l2.245-0.315
	l0.675,6.059l8.979-1.262l0.3,2.135l-8.893,1.25c1.521,5.404,5.132,8.746,10.83,10.028c-0.325,0.614-0.71,1.425-1.155,2.435
	c-5.091-1.557-8.538-4.575-10.341-9.055c-0.189,4.509-2.657,8.453-7.405,11.833c-0.142-0.169-0.419-0.478-0.834-0.924
	c-0.406-0.385-0.713-0.689-0.92-0.912c5.267-3.453,7.708-7.805,7.322-13.052L85.786,134.248z M90.566,161.332
	c-0.344-0.771-0.846-1.837-1.506-3.197c-0.186-0.479-0.357-0.864-0.515-1.158l1.157-0.542c0.074,0.117,0.191,0.321,0.35,0.614
	c0.885,1.707,1.467,2.917,1.744,3.637L90.566,161.332z M97.336,170.037c-0.424-0.51-1.084-1.235-1.979-2.184
	c-0.199-0.162-0.336-0.299-0.411-0.416l1.2,8.541l-1.727,0.242l-1.201-8.541c-0.395,2.202-1.001,4.149-1.82,5.842
	c-0.11-0.362-0.333-0.899-0.667-1.609c-0.102-0.301-0.19-0.51-0.264-0.626c1.04-1.786,1.762-4.16,2.169-7.121l-2.849,0.399
	l-0.248-1.764l2.936-0.412l-1.148-8.17l1.727-0.243l1.148,8.17l2.59-0.364l0.248,1.764l-2.59,0.364l0.365,2.6l0.759-0.863
	c1.368,1.386,2.36,2.383,2.974,2.99L97.336,170.037z M96.575,155.849c-0.253,1.55-0.558,3.14-0.915,4.768l-1.36-0.282
	c0.416-1.635,0.72-3.226,0.915-4.768L96.575,155.849L96.575,155.849z M97.15,156.809l-0.209-1.485l4.835-0.68l-0.274-1.95
	l1.899-0.267l0.274,1.949l5.353-0.752l0.209,1.485l-5.353,0.752l0.208,1.485l4.835-0.68l0.196,1.393l-4.835,0.68l0.222,1.577
	l5.699-0.801l0.208,1.485l-12.778,1.796l-0.208-1.484l5.18-0.729l-0.222-1.578l-4.403,0.618l-0.196-1.392l4.403-0.619l-0.208-1.485
	L97.15,156.809z M100.884,200.327c0.305,2.165-0.218,3.879-1.566,5.144l-0.894-0.728c0.923-0.95,1.299-2.234,1.131-3.851
	l-1.468,0.205l-0.431-3.062l2.849-0.4C100.576,198.131,100.702,199.027,100.884,200.327L100.884,200.327z M100.205,175.409
	l-1.579-11.233l10.792-1.518l1.174,8.355c0.3,1.725-0.407,2.738-2.125,3.045c-0.23,0.031-0.604,0.084-1.123,0.156
	c-0.682,0.158-1.225,0.268-1.627,0.323c-0.194-0.54-0.425-1.14-0.693-1.796c0.583-0.02,1.423-0.105,2.517-0.26
	c0.986-0.076,1.39-0.543,1.211-1.4l-0.104-0.742l-7.167,1.008l0.535,3.807L100.205,175.409z M119.292,228.529
	c-0.244,1.611-1.003,2.476-2.277,2.593c-1.431,0.263-2.867-0.767-4.308-3.087c-0.871,1.32-2,2.679-3.389,4.072
	c-0.076-0.115-0.246-0.28-0.51-0.496c-0.473-0.438-0.813-0.771-1.02-0.991c1.609-1.488,2.92-3.029,3.928-4.623
	c-1.148-2.741-2.083-6.052-2.803-9.927l-7.857,1.104l0.47,3.343l5.957-0.838c0.07,0.496,0.136,1.182,0.201,2.055
	c0.186,1.742,0.328,3.174,0.428,4.295c0.331,2.354-0.454,3.662-2.354,3.929c-0.69,0.099-1.411,0.198-2.158,0.304
	c-0.163-0.734-0.377-1.43-0.646-2.087c0.756-0.042,1.395-0.103,1.913-0.174c1.044-0.083,1.484-0.713,1.319-1.89
	c-0.017-0.123-0.043-0.31-0.078-0.557c-0.103-1.563-0.219-2.811-0.349-3.738l-3.972,0.559c0.692,4.511,0.423,8.24-0.805,11.189
	l-1.909-1.058c0.654-1.606,1.001-3.106,1.04-4.502c0.105-1.34-0.046-3.463-0.456-6.373l-0.861-6.127l9.756-1.372
	c-0.18-0.857-0.404-2.246-0.674-4.165l1.986-0.278c0.209,1.484,0.433,2.873,0.674,4.166l6.993-0.983l0.274,1.95l-6.907,0.971
	c0.677,3.564,1.372,6.214,2.085,7.943c0.858-1.825,1.579-4.01,2.161-6.553l1.931,0.58c-1.019,3.615-2.044,6.348-3.074,8.195
	c0.995,2.07,1.89,3.016,2.688,2.841c0.411,0.005,0.684-0.348,0.819-1.062c0.133-0.713,0.158-1.789,0.074-3.229
	c0.124,0.046,0.309,0.115,0.557,0.206c0.363,0.076,0.782,0.143,1.261,0.201C119.455,226.552,119.417,227.755,119.292,228.529
	L119.292,228.529z M100.634,165.312l0.235,1.672l7.167-1.008l-0.235-1.672L100.634,165.312z M101.065,168.377l0.222,1.578
	l7.166-1.007l-0.222-1.579L101.065,168.377z M111.943,127.922c-0.358-0.454-0.89-1.105-1.595-1.953
	c-0.715-0.908-1.247-1.56-1.595-1.953l1.411-1.24c0.348,0.394,0.871,0.982,1.569,1.768c0.83,0.894,1.423,1.568,1.781,2.022
	L111.943,127.922z M113.908,141.278c-0.653,0.786-1.319,1.89-2,3.311l-1.25-2.001c0.048-0.07,0.146-0.21,0.293-0.42
	c0.772-1.181,1.359-2.021,1.759-2.52l-1.018-7.241l-2.245,0.315l-0.287-2.042l4.145-0.583l1.317,9.377
	c1.146,1.48,2.925,2.018,5.334,1.617c3.24-0.33,7.125-0.876,11.656-1.638c-0.023,0.254-0.062,0.607-0.115,1.058
	c-0.112,0.457-0.18,0.813-0.202,1.07c-3.117,0.375-6.92,0.877-11.41,1.509C117.295,143.453,115.302,142.849,113.908,141.278
	L113.908,141.278z M114.571,213.1c-0.985-0.744-2.052-1.447-3.202-2.105l1.225-1.309c1.14,0.598,2.203,1.269,3.188,2.014
	L114.571,213.1z M112.668,154.345l-0.274-1.949l9.929-1.396l0.274,1.949l-4.576,0.644c-0.749,2.188-1.42,3.892-2.011,5.111
	c1.438-0.202,2.84-0.461,4.204-0.78l-1.621-2.139l1.437-1.054c0.216,0.286,0.541,0.714,0.973,1.283
	c0.913,1.071,1.591,1.923,2.032,2.555c1.206-2.693,1.944-5.795,2.214-9.305h2.025c-0.154,1.411-0.355,2.701-0.601,3.871l6.562-0.922
	l0.3,2.135l-1.554,0.218c0.206,4.39-0.242,7.892-1.341,10.508c1.368,1.386,3.077,2.471,5.124,3.256
	c-0.316,0.675-0.62,1.443-0.909,2.307c-2.488-1.419-4.214-2.628-5.176-3.629c-0.805,1.377-2.179,3.083-4.122,5.124
	c-0.54-0.491-1.111-1.013-1.716-1.558c0.106-0.079,0.208-0.188,0.306-0.327c0.106-0.079,0.285-0.263,0.539-0.55
	c-3.96,1.062-7.156,1.92-9.586,2.578l-0.546-2.006c0.057-0.008,0.143-0.021,0.259-0.037c1.2-0.23,2.534-0.545,4.006-0.94
	l-0.509-3.621l-3.712,0.521l-0.261-1.855l3.712-0.521l-0.352-2.506l1.899-0.268l0.352,2.506l3.799-0.533l0.261,1.856l-3.799,0.534
	l0.482,3.435c0.452-0.125,1.105-0.28,1.96-0.465c0.902-0.252,1.58-0.442,2.033-0.569c0.035,0.248,0.053,0.594,0.057,1.033
	c0.044,0.311,0.079,0.557,0.104,0.742c1.57-1.355,2.724-2.749,3.463-4.18c-1.231-1.655-2.305-3.871-3.224-6.646
	c-0.219,0.537-0.46,1.105-0.728,1.711l-0.45-0.693l-1.424,1.146l-0.986-1.377c-1.258,0.241-2.914,0.568-4.969,0.982
	c0.221-0.094-0.038-0.058-0.777,0.108c-0.28,0.104-0.617,0.214-1.01,0.331c-0.222,0.096-0.391,0.15-0.505,0.166l-0.938-1.667
	c0.483-0.319,0.829-0.779,1.039-1.376c0.414-0.815,0.95-2.216,1.611-4.203L112.668,154.345z M114.523,126.234l-0.235-1.671
	l3.972-0.558c-0.623-0.67-1.274-1.336-1.954-1.998l1.735-0.812c0.397,0.323,0.944,0.877,1.642,1.663
	c0.331,0.27,0.567,0.488,0.709,0.658l-0.578,0.271l2.936-0.412l1.249-3.016l1.978,0.291l-1.155,2.434l4.145-0.583l0.235,1.671
	l-6.821,0.958l-0.244,2.022l6.044-0.85l1.631,11.605l-12.433,1.747l-1.631-11.604l4.403-0.619l0.158-2.01L114.523,126.234z
	 M117.468,188.529l-0.287-2.043l2.85-0.399l-0.483-3.435l-2.491,0.443c-0.163-0.734-0.34-1.371-0.533-1.912
	c2.466-0.41,4.837-0.869,7.114-1.379l0.52,1.819l-2.724,0.667l0.496,3.527l2.763-0.389l0.287,2.043l-2.763,0.389l0.392,2.785
	l0.586-0.84c0.331,0.271,0.86,0.699,1.59,1.291c0.662,0.539,1.163,0.973,1.504,1.303l-1.186,1.588
	c-0.341-0.331-0.816-0.801-1.431-1.408c-0.406-0.384-0.713-0.688-0.92-0.912l1.344,9.562l-1.899,0.268l-1.344-9.562
	c-0.315,1.938-0.894,3.881-1.734,5.828c-0.16-0.291-0.397-0.731-0.714-1.318c-0.225-0.348-0.38-0.609-0.463-0.787
	c1.054-2.104,1.817-4.61,2.29-7.518L117.468,188.529z M117.868,129.361l0.261,1.857l8.634-1.213l-0.261-1.857L117.868,129.361z
	 M118.325,132.611l0.274,1.949l8.634-1.213l-0.274-1.949L118.325,132.611z M118.794,135.953l0.261,1.857l8.634-1.213l-0.261-1.857
	L118.794,135.953z M131.427,214.514c0.475,6.309-1.691,11.566-6.499,15.776c-0.076-0.117-0.212-0.255-0.411-0.416
	c-0.614-0.608-1.087-1.047-1.417-1.315c4.506-3.853,6.563-8.433,6.168-13.742l-7.511,1.057l-0.287-2.043l7.771-1.092
	c-0.138-1.812-0.321-3.741-0.55-5.793l2.158-0.303c0.13,0.928,0.268,2.328,0.415,4.201c0.038,0.69,0.083,1.219,0.135,1.592
	l9.066-1.274c0.09,1.062,0.256,2.866,0.498,5.421c0.302,2.986,0.502,5.042,0.602,6.164c0.368,3.039-0.805,4.719-3.518,5.038
	c-1.258,0.239-2.635,0.465-4.131,0.676c-0.188-0.921-0.466-1.64-0.832-2.155c1.209-0.17,2.532-0.355,3.972-0.559
	c1.859-0.137,2.646-1.225,2.358-3.268c-0.068-1.314-0.323-3.961-0.764-7.938c-0.061-0.433-0.108-0.772-0.144-1.021L131.427,214.514
	L131.427,214.514z M125.782,212.561c-1.029-1.054-2.169-2.062-3.418-3.021l1.285-1.506c0.389,0.262,0.981,0.715,1.776,1.359
	c0.787,0.584,1.378,1.037,1.776,1.359L125.782,212.561z M132.63,199.938l-1.044-7.428l-2.936,0.413l0.157,1.113l-1.813,0.255
	l-1.592-11.326l4.749-0.667l-0.626-4.456l1.813-0.255l0.626,4.456l4.749-0.667l1.592,11.326l-1.899,0.267l-0.156-1.113l-2.849,0.399
	l1.043,7.427L132.63,199.938z M126.003,155.879c0.854,3.162,1.94,5.661,3.254,7.495l0,0c0.767-2.063,1.07-4.915,0.911-8.554
	l-3.971,0.558l-0.061,0.198C126.096,155.709,126.051,155.81,126.003,155.879L126.003,155.879z M127.49,184.66l0.887,6.312
	l2.936-0.412l-0.887-6.312L127.49,184.66z M136.016,222.104c-1.227-1.215-2.5-2.33-3.815-3.346l1.285-1.506
	c0.968,0.622,2.284,1.637,3.949,3.043L136.016,222.104z M135.088,183.592l-2.85,0.4l0.887,6.312l2.85-0.4L135.088,183.592z
	 M154.791,136.288c-0.244,1.611-1.003,2.475-2.277,2.592c-1.431,0.263-2.867-0.766-4.308-3.087c-0.871,1.32-2.001,2.679-3.39,4.074
	c-0.076-0.117-0.246-0.282-0.51-0.496c-0.473-0.439-0.813-0.771-1.02-0.993c1.609-1.488,2.92-3.029,3.928-4.623
	c-1.148-2.741-2.083-6.05-2.803-9.925l-7.857,1.104l0.47,3.342l5.957-0.837c0.07,0.496,0.136,1.181,0.201,2.055
	c0.186,1.742,0.328,3.173,0.428,4.295c0.331,2.353-0.454,3.661-2.354,3.928c-0.69,0.097-1.411,0.198-2.158,0.303
	c-0.163-0.734-0.377-1.429-0.646-2.086c0.756-0.043,1.395-0.102,1.913-0.174c1.044-0.083,1.484-0.713,1.319-1.89
	c-0.017-0.123-0.043-0.309-0.078-0.557c-0.103-1.563-0.219-2.81-0.349-3.738l-3.972,0.558c0.692,4.51,0.423,8.24-0.805,11.189
	l-1.909-1.057c0.654-1.606,1.001-3.106,1.04-4.501c0.105-1.34-0.046-3.464-0.456-6.374l-0.861-6.127l9.756-1.371
	c-0.18-0.858-0.404-2.247-0.674-4.166l1.986-0.279c0.209,1.485,0.433,2.874,0.674,4.166l6.993-0.982l0.274,1.949l-6.907,0.971
	c0.677,3.566,1.372,6.214,2.085,7.943c0.858-1.824,1.579-4.008,2.161-6.552l1.931,0.581c-1.019,3.615-2.044,6.346-3.074,8.195
	c0.995,2.07,1.89,3.015,2.688,2.841c0.411,0.004,0.684-0.348,0.819-1.062c0.133-0.713,0.158-1.789,0.074-3.229
	c0.124,0.046,0.309,0.115,0.557,0.206c0.363,0.076,0.782,0.143,1.261,0.202C154.953,134.309,154.916,135.513,154.791,136.288
	L154.791,136.288z M139.582,169.688l-2.557-18.196l2.331-0.328c0.022-0.254,0.06-0.607,0.115-1.058
	c0.134-0.712,0.21-1.639,0.226-2.777l2.211,0.068c-0.132,1.154-0.292,2.313-0.48,3.476l3.886-0.546l2.531,18.01l-1.899,0.268
	l-0.248-1.764l-4.403,0.618l0.274,1.95L139.582,169.688z M139.297,153.254l0.718,5.106l4.403-0.619l-0.718-5.106L139.297,153.254z
	 M140.302,160.402l0.744,5.291l4.403-0.618l-0.744-5.291L140.302,160.402z M161.189,186.268c-2.995-0.841-5.886-1.569-8.672-2.188
	l0.261,1.856l-2.072,0.291l-0.47-3.343c-1.498,2.294-3.939,4.341-7.325,6.142c-0.151-0.229-0.337-0.521-0.562-0.866
	c-0.292-0.4-0.508-0.687-0.648-0.854c3.083-1.443,5.409-3.063,6.977-4.863l-7.167,1.008l-0.261-1.856l8.634-1.214l-0.744-5.291
	l2.072-0.292l0.744,5.292l8.634-1.213l0.261,1.855l-8.634,1.215l0.261,1.855l0.581-1.502c1.27,0.264,3.364,0.758,6.284,1.483
	c1.154,0.28,1.974,0.479,2.461,0.601L161.189,186.268z M142.439,191.934l-0.261-1.857l8.893-1.25
	c-0.018-0.123-0.048-0.34-0.091-0.649c-0.013-0.503-0.036-0.878-0.07-1.126l2.072-0.292c0.035,0.248,0.053,0.595,0.057,1.034
	c0.052,0.371,0.087,0.619,0.104,0.742l8.893-1.25l0.261,1.857l-8.548,1.2c1.76,2.089,4.982,3.087,9.666,2.996l-0.577,2.164
	c-5.138-0.226-8.548-1.512-10.228-3.864c-0.67,2.745-3.638,5.023-8.9,6.836c-0.093-0.238-0.322-0.617-0.688-1.134
	c-0.225-0.347-0.38-0.608-0.463-0.786c4.92-1.324,7.671-3.256,8.253-5.8L142.439,191.934z M146.551,180.467
	c-1.034-0.674-2.387-1.525-4.057-2.554l1.013-1.563c1.273,0.707,2.649,1.521,4.13,2.449L146.551,180.467z M150.321,211.007
	c-1.369-1.385-2.848-2.725-4.438-4.016l1.285-1.507c0.588,0.424,1.582,1.23,2.982,2.422c0.804,0.707,1.371,1.195,1.703,1.465
	L150.321,211.007z M147.908,220.15l-0.274-1.95l15.196-2.136l-0.509-3.621l-15.886,2.232l-0.274-1.949l8.029-1.129l-1.122-7.984
	l2.159-0.303l1.122,7.983l7.856-1.104l1.997,14.205l-2.159,0.303l-0.169-1.206l-16.404,2.305l-0.248-1.764l16.404-2.306
	l-0.522-3.713L147.908,220.15z M154.838,167.354c-1.152,0.162-2.361,0.332-3.626,0.51c-0.154-0.674-0.402-1.396-0.745-2.168
	c0.756-0.043,1.883-0.17,3.38-0.379c1.628-0.104,2.326-0.99,2.091-2.662c-0.077-1.377-0.399-4.297-0.968-8.762
	c-0.126-1.308-0.227-2.24-0.305-2.797l-5.181,0.728c-0.152,0.589-0.413,1.447-0.783,2.571c-0.161,0.529-0.281,0.924-0.361,1.187
	c-0.57-0.298-1.198-0.589-1.883-0.871c1.007-2.855,1.689-5.729,2.046-8.619l2.051,0.185c-0.063,0.388-0.162,0.938-0.296,1.651
	c-0.126,0.775-0.221,1.356-0.283,1.744l6.389-0.898c0.557,3.962,1.093,8.62,1.612,13.975
	C158.35,165.407,157.303,166.943,154.838,167.354L154.838,167.354z M150.069,120.857c-0.985-0.745-2.052-1.447-3.202-2.106
	l1.225-1.308c1.14,0.597,2.203,1.269,3.188,2.013L150.069,120.857z M152.297,161.18c-0.35-0.394-0.873-0.981-1.569-1.769
	c-0.989-1.187-1.761-2.087-2.317-2.704l1.397-1.333c0.489,0.563,1.215,1.344,2.179,2.344c0.821,0.832,1.443,1.501,1.867,2.011
	L152.297,161.18z M158.467,175.668c-1.07,1.161-2.247,2.398-3.528,3.715l-1.417-1.314c0.572-0.521,1.34-1.324,2.303-2.406
	c0.514-0.514,0.898-0.915,1.152-1.203L158.467,175.668L158.467,175.668z M156.307,120.644l-0.3-2.135l8.03-1.128l0.3,2.135
	l-2.849,0.4l1.475,10.49l2.831-1.155c0.07,0.497,0.231,1.231,0.486,2.204c-2.84,1.094-5.446,2.186-7.816,3.276l-0.771-2.353
	c0.616-0.212,1.703-0.618,3.263-1.216l-1.54-10.955L156.307,120.644z M163.25,204.646c-0.982,1.778-2.176,3.523-3.579,5.235
	l-1.663-1.187c1.296-1.633,2.432-3.371,3.405-5.213L163.25,204.646L163.25,204.646z M161.921,153.105l-1.444-1.501
	c2.623-2.641,4.475-5.33,5.557-8.07l2.224,0.161c-0.196,0.28-0.422,0.754-0.681,1.421c-0.09,0.202-0.154,0.37-0.194,0.501
	l8.289-1.165l0.235,1.671l-2.125,3.044l5.008-0.704l1.07,7.613l-8.029,1.128c-0.492,3.604-3.102,6.746-7.831,9.433
	c-0.199-0.162-0.549-0.556-1.046-1.179c-0.216-0.287-0.391-0.481-0.523-0.59c4.183-1.976,6.625-4.435,7.328-7.373l-6.044,0.849
	l-0.874-6.22L161.921,153.105z M174.667,135.388c-0.567,0.142-1.657,0.328-3.268,0.554c-0.093-0.24-0.203-0.603-0.33-1.09
	c-0.194-0.541-0.333-0.9-0.416-1.078c0.575-0.081,1.554-0.218,2.936-0.413c1.456-0.079,2.085-0.829,1.885-2.253
	c-0.284-3.684-0.677-7.32-1.182-10.911l-4.576,0.643l0.096,1.312c0.847,6.446-0.416,11.452-3.789,15.017
	c-0.066-0.054-0.194-0.131-0.384-0.23c-0.721-0.53-1.266-0.863-1.637-1c3.326-3.055,4.573-7.554,3.738-13.496l-0.096-1.312
	l-2.59,0.364l-0.3-2.135l2.676-0.376c-0.082-0.998-0.261-2.487-0.54-4.468l2.072-0.292c0.079,0.557,0.158,1.336,0.24,2.333
	c0.14,0.991,0.24,1.703,0.3,2.135l6.562-0.922c0.641,5.401,1.124,9.877,1.447,13.429
	C177.86,133.676,176.912,135.073,174.667,135.388L174.667,135.388z M173.33,146.579l-6.993,0.983
	c-0.619,1.034-1.332,2.019-2.139,2.951l7.08-0.995L173.33,146.579z M164.877,152.216l0.574,4.085l4.662-0.655
	c0.048-0.069,0.06-0.198,0.034-0.383c0.039-0.131,0.056-0.229,0.047-0.291c0.024-1.076-0.021-2.237-0.138-3.484L164.877,152.216z
	 M165.209,178.409l-0.3-2.136l8.375-1.178l-0.47-3.342l2.159-0.304l0.47,3.342l8.461-1.188l0.3,2.135l-8.461,1.189l0.509,3.62
	l7.167-1.007l0.287,2.043l-7.166,1.007l0.509,3.62l9.152-1.286l0.3,2.136l-9.152,1.287l0.744,5.291l-2.158,0.303l-0.744-5.291
	l-9.152,1.287l-0.3-2.137l9.152-1.285l-0.509-3.621l-7.167,1.008l-0.287-2.043l7.166-1.008l-0.509-3.621L165.209,178.409z
	 M173.454,219.495c-0.741,0.989-1.491,2.135-2.246,3.44l-1.176-2.107c0.431-0.689,1.086-1.667,1.966-2.928
	c0.546-0.707,1.048-1.094,1.51-1.158c0.115-0.016,0.234,0,0.358,0.045c0.115-0.018,0.201-0.028,0.259-0.037
	c3.982-3.398,7.449-7.137,10.398-11.212l-14.677,2.063l-0.287-2.043l8.461-1.188c-0.317-0.586-0.822-1.462-1.514-2.628
	c-0.233-0.407-0.421-0.697-0.562-0.867l2.179-0.779c0.608,0.988,1.341,2.241,2.202,3.762l-0.578,0.271l7.252-1.019l0.313,2.228
	c-3.159,4.674-6.938,8.896-11.338,12.67c1.219,1.154,2.925,1.609,5.122,1.363c2.081-0.229,5.414-0.729,10.002-1.5
	c-0.193,0.721-0.294,1.461-0.305,2.22c-2.706,0.381-4.662,0.655-5.871,0.825c-1.506,0.147-2.839,0.271-3.998,0.372
	c-2.706,0.381-4.909-0.258-6.608-1.911C173.994,219.168,173.707,219.208,173.454,219.495L173.454,219.495z M175.649,164.335
	c-1.949,0.336-3.024-0.427-3.228-2.292l-0.548-3.899l1.986-0.279l0.47,3.342c0.023,1.007,0.636,1.393,1.836,1.162l2.849-0.4
	c1.102-0.093,1.645-0.609,1.631-1.555c-0.026-0.186-0.037-0.469-0.031-0.848c0.001-0.82-0.003-1.482-0.015-1.986
	c0.182,0.038,0.51,0.087,0.989,0.145c0.486,0.121,0.82,0.201,1.001,0.238c0.09,1.062,0.061,2.107-0.087,3.137
	c-0.071,1.588-0.973,2.471-2.708,2.652L175.649,164.335z M177.138,150.493l-5.008,0.704c0.013,1.766,0.005,2.966-0.022,3.601
	c0.009,0.063,0.022,0.155,0.04,0.278c-0.041,0.133-0.056,0.23-0.047,0.291l5.612-0.789L177.138,150.493z M180.946,116.046
	l-0.287-2.042l18.822-2.645l0.287,2.042l-3.971,0.559l0.9,6.406l4.921-0.692l0.3,2.135l-4.921,0.692l1.396,9.934l-2.072,0.291
	l-1.396-9.934l-6.475,0.91c0.816,4.557-0.519,8.214-4.004,10.977c-0.199-0.162-0.501-0.436-0.907-0.819
	c-0.407-0.385-0.709-0.658-0.908-0.819c3.144-2.272,4.393-5.288,3.747-9.047l-5.267,0.74l-0.3-2.135l5.267-0.74l-0.9-6.406
	L180.946,116.046z M184.631,149.819l-0.274-1.95l2.849-0.4l-0.496-3.528c-0.231,0.032-0.634,0.089-1.209,0.17
	c-0.567,0.144-0.995,0.234-1.282,0.275c-0.162-0.734-0.335-1.34-0.52-1.82c1.718-0.304,4.027-0.787,6.928-1.447l0.606,1.809
	c-0.058,0.008-0.144,0.02-0.259,0.036c-0.731,0.23-1.558,0.408-2.478,0.538l0.522,3.713l2.59-0.364l0.274,1.949l-2.59,0.364
	l0.366,2.6l0.207-0.408c0.264,0.216,0.715,0.5,1.353,0.851c0.91,0.629,1.56,1.075,1.948,1.335l-0.801,1.817
	c-0.795-0.646-1.62-1.287-2.471-1.925l1.292,9.191l-1.813,0.254l-1.318-9.376c-0.404,2.139-0.991,4.021-1.76,5.644
	c-0.344-0.771-0.703-1.447-1.077-2.026c1.192-2.376,1.947-4.943,2.263-7.702L184.631,149.819z M187.249,115.16l0.9,6.406l6.476-0.91
	l-0.9-6.406L187.249,115.16z M188.889,176.312l-0.652-4.642l8.72-1.226c-0.035-0.246-0.141-0.579-0.316-0.997
	c-0.127-0.486-0.233-0.819-0.316-0.997l2.305-0.514l0.659,2.181l8.375-1.179l0.652,4.644l-1.986,0.278l-0.417-2.971l-15.455,2.172
	l0.417,2.972L188.889,176.312z M192.19,191.66l-1.252-8.912l17.181-2.415l1.253,8.912l-1.986,0.278l-0.157-1.113l-13.21,1.855
	l0.157,1.114L192.19,191.66z M191.945,175.506l-0.17-1.207l13.21-1.855l0.169,1.207L191.945,175.506z M192.568,181.193l-0.6-4.271
	l13.642-1.918l0.6,4.271L192.568,181.193z M193.413,153.414l-1.279-9.098l6.13-0.862c0.494-1.078,1.042-2.608,1.645-4.586
	l2.09,0.464c-0.655,1.606-1.21,2.884-1.663,3.831l3.022-0.425l1.279,9.098l-3.108,0.437l0.718,5.106
	c0.064,0.875,0.494,1.224,1.292,1.049l0.432-0.061c0.699-0.036,1.03-0.396,0.992-1.086c0.013-0.317-0.024-1.005-0.114-2.067
	c0.004-0.379-0.001-0.63-0.018-0.755c0.601,0.105,1.183,0.276,1.745,0.512c0.055,0.813,0.08,1.82,0.072,3.02
	c-0.098,1.401-0.865,2.204-2.303,2.405l-0.95,0.135c-1.776,0.312-2.77-0.495-2.981-2.421l-0.783-5.57l-1.986,0.279
	c0.018,0.125,0.04,0.278,0.065,0.464c-0.023,0.256-0.025,0.446-0.008,0.569c0.535,3.396-0.768,6.229-3.912,8.501
	c-0.142-0.17-0.387-0.451-0.735-0.844c-0.341-0.33-0.581-0.58-0.722-0.75c2.818-1.658,3.971-3.903,3.456-6.734
	c-0.009-0.061-0.026-0.186-0.052-0.372c0.022-0.254,0.025-0.444,0.008-0.569L193.413,153.414z M194.983,143.915
	c-0.292-0.4-0.969-1.251-2.032-2.555c-0.216-0.285-0.391-0.48-0.523-0.589l1.709-0.998c0.83,0.894,1.677,1.911,2.542,3.051
	L194.983,143.915z M193.572,201.521l-0.287-2.043l17.268-2.428l0.287,2.043l-7.771,1.092c0.137,1.813,0.224,3.473,0.26,4.981
	l9.756-1.371l0.287,2.042l-10.188,1.432c-0.167,5.074-2.584,9.391-7.249,12.947l-1.715-1.558c4.345-3.323,6.614-7.021,6.806-11.086
	l-8.03,1.129l-0.287-2.043l8.461-1.188c-0.036-1.511-0.124-3.17-0.26-4.98L193.572,201.521z M193.132,183.954l0.261,1.856
	l5.612-0.789l-0.261-1.856L193.132,183.954z M193.576,187.109l0.235,1.672l5.612-0.788l-0.235-1.673L193.576,187.109z
	 M194.137,177.943l0.235,1.67l9.583-1.346l-0.235-1.672L194.137,177.943z M194.308,145.998l0.73,5.199l7.425-1.043l-0.731-5.199
	L194.308,145.998z M206.342,182.098l-5.612,0.789l0.261,1.856l5.612-0.789L206.342,182.098z M201.174,186.043l0.235,1.671
	l5.612-0.789l-0.234-1.671L201.174,186.043z M208.091,217.752c-2.179,0.369-3.396-0.562-3.651-2.8l-1.044-7.427l2.072-0.293
	l0.979,6.963c0.058,1.257,0.745,1.758,2.061,1.511l2.072-0.291c1.208-0.17,1.763-0.815,1.665-1.938
	c0.004-0.379-0.024-1.006-0.088-1.881c-0.004-0.439-0.018-0.755-0.044-0.939c0.181,0.037,0.453,0.095,0.816,0.169
	c0.305,0.084,0.758,0.178,1.36,0.282c0.036,1.51,0.044,2.613,0.025,3.31c-0.054,1.712-1.063,2.674-3.028,2.888L208.091,217.752z
	 M208.502,118.422c0.871,5.368,0.537,9.675-1.001,12.921c-0.341-0.331-0.942-0.847-1.802-1.546c0.72-1.552,1.116-3.123,1.187-4.711
	c0.087-1.463-0.077-3.681-0.495-6.652l-0.979-6.963l8.029-1.128l-1.004-2.131l2.292-0.606c0.009,0.063,0.055,0.182,0.139,0.359
	c0.36,0.896,0.662,1.58,0.904,2.05l7.253-1.02l1.018,7.242L208.502,118.422L208.502,118.422z M209.365,144.635
	c-0.344-0.771-0.846-1.837-1.506-3.197c-0.186-0.478-0.357-0.864-0.515-1.158l1.157-0.542c0.074,0.117,0.191,0.321,0.35,0.614
	c0.885,1.707,1.467,2.918,1.744,3.636L209.365,144.635z M207.759,113.13l0.47,3.342l13.469-1.893l-0.47-3.342L207.759,113.13z
	 M216.135,153.34c-0.424-0.509-1.084-1.235-1.979-2.184c-0.199-0.161-0.336-0.299-0.411-0.416l1.2,8.541l-1.727,0.243l-1.201-8.542
	c-0.395,2.202-1.001,4.149-1.82,5.841c-0.11-0.363-0.333-0.9-0.667-1.61c-0.102-0.301-0.19-0.509-0.264-0.625
	c1.04-1.787,1.762-4.16,2.169-7.121l-2.849,0.4l-0.248-1.764l2.936-0.412l-1.148-8.17l1.727-0.243l1.148,8.169l2.59-0.364
	l0.248,1.764l-2.59,0.364l0.365,2.6l0.759-0.864c1.368,1.386,2.36,2.383,2.974,2.99L216.135,153.34z M211.645,130.761l-1.331-9.47
	l13.9-1.954l1.331,9.47l-1.986,0.279l-0.209-1.485l-9.929,1.396l0.208,1.485L211.645,130.761z M214.875,188.188l-2.557-18.195
	l2.331-0.327c0.022-0.255,0.061-0.606,0.115-1.058c0.134-0.713,0.21-1.64,0.226-2.777l2.211,0.068
	c-0.132,1.154-0.292,2.312-0.48,3.476l3.886-0.546l2.531,18.01l-1.899,0.268l-0.248-1.765l-4.403,0.619l0.274,1.949L214.875,188.188
	z M212.561,122.869l0.626,4.457l9.929-1.396l-0.626-4.456L212.561,122.869z M215.374,139.152c-0.253,1.55-0.558,3.14-0.915,4.767
	l-1.36-0.282c0.416-1.635,0.72-3.226,0.915-4.768L215.374,139.152L215.374,139.152z M214.59,171.756l0.718,5.105l4.403-0.618
	l-0.718-5.106L214.59,171.756z M215.595,178.904l0.744,5.291l4.403-0.618l-0.744-5.292L215.595,178.904z M215.949,140.112
	l-0.209-1.485l4.835-0.68l-0.274-1.95l1.899-0.267l0.274,1.95l5.353-0.752l0.209,1.485l-5.353,0.752l0.208,1.485l4.835-0.68
	l0.196,1.393l-4.835,0.68l0.222,1.578l5.699-0.801l0.208,1.485l-12.778,1.796l-0.208-1.485l5.18-0.728l-0.222-1.579l-4.403,0.619
	l-0.196-1.393l4.403-0.619l-0.208-1.485L215.949,140.112z M217.813,199.725c0.083,2.262,0.024,4.353-0.175,6.273
	c-0.479-0.059-0.894-0.096-1.248-0.109c0.063-2.47,0.069-4.521,0.015-6.154L217.813,199.725L217.813,199.725z M219.003,158.712
	l-1.579-11.233l10.792-1.517l1.174,8.355c0.3,1.724-0.407,2.739-2.125,3.044c-0.23,0.033-0.604,0.085-1.123,0.158
	c-0.682,0.158-1.225,0.267-1.627,0.324c-0.194-0.541-0.425-1.14-0.693-1.796c0.583-0.02,1.423-0.105,2.517-0.259
	c0.986-0.077,1.39-0.543,1.211-1.401l-0.104-0.743l-7.167,1.007l0.535,3.806L219.003,158.712z M221.778,201.629
	c-0.54-0.492-1.016-0.961-1.431-1.408l2.271,16.153l-1.899,0.269l-3.105-22.097l1.899-0.267l0.496,3.527l0.061-0.197
	c0.264,0.216,0.729,0.593,1.391,1.129c0.597,0.484,1.031,0.865,1.305,1.143L221.778,201.629z M219.433,148.616l0.235,1.671
	l7.167-1.007l-0.235-1.671L219.433,148.616z M219.864,151.68l0.222,1.578l7.166-1.007l-0.222-1.578L219.864,151.68z
	 M230.131,185.855c-1.152,0.162-2.361,0.332-3.626,0.51c-0.154-0.674-0.403-1.396-0.745-2.168c0.756-0.045,1.883-0.17,3.38-0.381
	c1.628-0.104,2.326-0.989,2.091-2.66c-0.077-1.377-0.399-4.299-0.968-8.764c-0.126-1.308-0.227-2.24-0.305-2.797l-5.181,0.729
	c-0.152,0.589-0.413,1.447-0.783,2.57c-0.161,0.528-0.281,0.924-0.361,1.188c-0.57-0.298-1.198-0.589-1.883-0.871
	c1.007-2.854,1.689-5.729,2.046-8.618l2.051,0.185c-0.064,0.389-0.163,0.938-0.296,1.652c-0.126,0.774-0.221,1.355-0.283,1.743
	l6.389-0.897c0.557,3.961,1.093,8.619,1.612,13.975C233.643,183.909,232.596,185.445,230.131,185.855L230.131,185.855z
	 M223.916,206.818l-1.5-10.676l3.885-0.547l0.291-2.312l2.099-0.105c-0.077,0.706-0.24,1.424-0.49,2.151l6.821-0.959l1.5,10.677
	l-6.216,0.874c-0.041,0.134-0.072,0.326-0.094,0.581c-0.17,0.466-0.267,0.827-0.289,1.082l1.554-0.219l0.261,1.855
	c0.267-0.604,0.592-1.629,0.977-3.07l1.447,0.27c-0.129,0.335-0.323,0.835-0.581,1.502c-0.258,0.668-0.452,1.168-0.582,1.502
	l2.046-0.479l-0.8-1.307l1.057-0.623c0.141,0.17,0.324,0.43,0.549,0.775c0.441,0.633,0.74,1.096,0.899,1.389l-0.065-0.465
	l1.732,0.42c0.098,1.122,0.097,1.943-0.006,2.463c-0.04,1.394-0.835,2.199-2.39,2.418l-2.763,0.389
	c-1.785,0.251-2.766-0.463-2.942-2.143l-0.574-4.086c-0.648,2.491-2.27,5.147-4.866,7.975c-0.134-0.108-0.402-0.354-0.808-0.738
	c-0.397-0.322-0.696-0.564-0.895-0.727c3.065-2.828,4.809-5.66,5.233-8.498L223.916,206.818z M227.59,179.68
	c-0.35-0.392-0.873-0.979-1.569-1.768c-0.989-1.186-1.761-2.086-2.317-2.703l1.397-1.333c0.489,0.563,1.215,1.345,2.179,2.345
	c0.821,0.831,1.443,1.502,1.867,2.01L227.59,179.68z M224.49,197.745l0.378,2.692l3.54-0.498c-0.026-0.187-0.028-0.405-0.005-0.662
	c-0.035-0.246-0.061-0.432-0.078-0.557l-0.209-1.486L224.49,197.745z M228.576,204.271c0.06-0.828,0.048-1.742-0.033-2.742
	l-3.454,0.486l0.378,2.691L228.576,204.271z M234.476,127.08c-0.238-0.852-0.485-1.574-0.745-2.167
	c1.036-0.146,2.215-0.312,3.54-0.498c1.446-0.141,2.009-0.945,1.686-2.415l-1.239-8.819l6.289-5.996l-15.973,2.245l-0.287-2.042
	l18.908-2.657l0.353,2.506l-6.888,6.743l1.161,8.263c0.471,2.521-0.506,3.92-2.932,4.199L234.476,127.08z M233.469,196.482
	l-3.54,0.498l0.195,1.393l0.097,1.312l3.626-0.51L233.469,196.482z M230.356,201.275c0.072,0.937,0.084,1.851,0.033,2.74l4.058-0.57
	l-0.378-2.691L230.356,201.275z M236.096,210.788c-0.009-0.062-0.056-0.183-0.139-0.358c-0.075-0.115-0.146-0.201-0.212-0.255
	c-0.913,0.191-1.968,0.403-3.168,0.636c-0.28,0.103-0.477,0.16-0.591,0.178l-0.013-0.094l0.104,0.742
	c0.055,0.812,0.511,1.127,1.365,0.944l2.072-0.291c0.863-0.122,1.308-0.501,1.337-1.136l-0.031-0.848L236.096,210.788z
	 M234.82,156.49l-1.448-10.305l8.202-1.153l1.448,10.305l-1.899,0.267l-0.196-1.393l-4.403,0.619l0.196,1.393L234.82,156.49z
	 M235.091,143.387l-1.161-8.263l14.85-2.087l1.162,8.263L235.091,143.387z M235.532,147.775l0.757,5.384l4.403-0.619l-0.757-5.385
	L235.532,147.775z M236.021,170.639l-0.287-2.043l2.504-0.352l-0.613-4.363l2.072-0.291l0.613,4.363l3.885-0.547l-0.757-5.385
	l1.986-0.278l0.757,5.385l5.18-0.729l-0.757-5.385l1.986-0.277l0.757,5.384l2.849-0.399l0.287,2.043l-2.849,0.399l1.122,7.983
	l-9.152,1.287l-1.122-7.984l-3.885,0.546l1.644,11.696l15.541-2.184l0.274,1.949l-17.613,2.477l-1.918-13.647L236.021,170.639z
	 M236.276,136.783l0.613,4.364l10.706-1.505l-0.613-4.363L236.276,136.783z M242.639,213.367l-2.557-18.196l2.331-0.327
	c0.022-0.255,0.061-0.607,0.115-1.058c0.134-0.713,0.21-1.64,0.226-2.777l2.211,0.067c-0.132,1.154-0.292,2.312-0.48,3.477
	l3.886-0.547l2.531,18.012l-1.899,0.267l-0.248-1.765l-4.403,0.619l0.274,1.949L242.639,213.367z M242.354,196.936l0.718,5.104
	l4.403-0.618l-0.718-5.105L242.354,196.936z M243.359,204.083l0.744,5.292l4.403-0.619l-0.744-5.292L243.359,204.083z
	 M245.526,154.985l-1.448-10.305l8.202-1.152l1.448,10.305l-1.813,0.255l-0.196-1.393l-4.49,0.631l0.196,1.393L245.526,154.985z
	 M246.238,146.27l0.757,5.385l4.49-0.631l-0.757-5.385L246.238,146.27z M246.468,169.17l0.835,5.941l5.18-0.729l-0.835-5.941
	L246.468,169.17z M257.895,211.034c-1.152,0.161-2.361,0.331-3.626,0.51c-0.154-0.674-0.403-1.396-0.745-2.168
	c0.756-0.044,1.883-0.17,3.38-0.38c1.628-0.104,2.326-0.99,2.091-2.661c-0.077-1.377-0.399-4.299-0.968-8.763
	c-0.126-1.309-0.227-2.24-0.305-2.799l-5.181,0.729c-0.152,0.589-0.413,1.446-0.783,2.571c-0.161,0.527-0.281,0.924-0.361,1.187
	c-0.57-0.298-1.198-0.589-1.883-0.87c1.007-2.854,1.689-5.729,2.046-8.619l2.051,0.186c-0.064,0.389-0.163,0.938-0.296,1.65
	c-0.126,0.774-0.221,1.356-0.283,1.744l6.389-0.897c0.557,3.962,1.093,8.62,1.612,13.974
	C261.407,209.088,260.36,210.624,257.895,211.034L257.895,211.034z M254.985,106.869c-0.323-0.206-0.812-0.548-1.464-1.025
	c-0.92-0.69-1.635-1.19-2.147-1.497l1-1.655c1.083,0.605,2.34,1.408,3.771,2.405L254.985,106.869z M255.354,204.857
	c-0.35-0.392-0.873-0.979-1.569-1.768c-0.989-1.188-1.761-2.087-2.317-2.703l1.397-1.332c0.489,0.562,1.215,1.344,2.179,2.344
	c0.821,0.832,1.443,1.502,1.867,2.011L255.354,204.857z M255.242,113.081c-1.175-0.844-2.376-1.654-3.599-2.429l0.987-1.748
	c1.339,0.759,2.592,1.529,3.758,2.312L255.242,113.081z M256.808,116.08c-0.38,3.146-0.663,5.93-0.851,8.356l-2.077-0.371
	c0.311-2.378,0.619-5.199,0.924-8.461c0.296,0.022,0.754,0.147,1.374,0.375C256.474,116.001,256.683,116.035,256.808,116.08
	L256.808,116.08z M255.185,135.262l-0.248-1.764l9.583-1.347l-0.978-1.946l2.192-0.687c0.074,0.117,0.154,0.262,0.238,0.44
	c0.242,0.472,0.506,1.097,0.792,1.876l8.807-1.237l0.248,1.764L255.185,135.262z M258.501,108.079
	c-0.188,0.343-0.525,0.864-1.013,1.563c-0.067-0.053-0.133-0.107-0.199-0.161c-0.49-0.562-0.929-0.973-1.318-1.235
	c1.589-2.053,2.699-4.387,3.331-7l2.111-0.013c-0.193,0.722-0.422,1.385-0.689,1.99l10.533-1.48l0.248,1.764l-11.483,1.614
	c-0.299,0.799-0.664,1.545-1.095,2.236l11.483-1.614c0.003,0.442,0.105,1.374,0.305,2.797c0.107,1.185,0.209,2.117,0.305,2.797
	l1.986-0.279l0.248,1.764l-1.986,0.279c0.07,0.496,0.14,1.211,0.214,2.147c0.113,0.805,0.196,1.393,0.248,1.764l1.554-0.218
	l0.248,1.764l-1.641,0.23c0.197,2.244-0.801,3.488-2.997,3.734c-0.921,0.13-1.958,0.275-3.108,0.437
	c-0.084-0.177-0.209-0.444-0.376-0.799c-0.177-0.417-0.307-0.714-0.389-0.892c1.036-0.146,2.042-0.287,3.021-0.425
	c1.39-0.133,2.04-0.729,1.95-1.789l-10.792,1.517l-0.192-5.748l-1.899,0.267l-0.248-1.764l2.072-0.291l-0.226-5.365
	C258.658,107.742,258.589,107.877,258.501,108.079L258.501,108.079z M259.024,153.184l-2.114-15.04l5.094-0.716l-1.894-2.195
	l1.821-0.824c0.141,0.169,0.415,0.448,0.821,0.832c0.705,0.848,1.163,1.384,1.37,1.606l-1.169,0.448l4.576-0.643
	c0.543-1.148,1.032-2.259,1.469-3.331l1.978,0.29c-0.121,0.396-0.388,1.001-0.801,1.817c-0.179,0.404-0.312,0.707-0.4,0.908
	l5.094-0.716l1.657,11.791c0.384,1.901-0.377,2.955-2.285,3.161c-0.807,0.113-1.757,0.247-2.849,0.4
	c-0.221-0.727-0.427-1.36-0.62-1.901c0.756-0.044,1.596-0.13,2.517-0.259c1.044-0.084,1.477-0.555,1.298-1.413l-1.37-9.748
	l-14.16,1.99l1.866,13.276L259.024,153.184z M260.998,144.67c-0.309-0.524-0.728-1.001-1.258-1.433
	c1.316-1.068,2.709-2.431,4.179-4.09l1.478,1.118c-1.022,1.09-1.945,2.041-2.769,2.851l8.289-1.165l0.9,6.406l-8.375,1.177
	l-0.9-6.406L260.998,144.67z M274.84,179.857l-1.004-7.148l1.727-0.243c-1.734-0.639-3.367-1.608-4.899-2.907l0.246-0.131
	l-0.259,0.037c-1.075,1.54-2.406,2.928-3.994,4.158l1.64-0.23c0.078,0.559,0.129,1.34,0.153,2.346c-0.008-0.062,0,0,0.026,0.187
	c0.048,2.015-1.037,3.899-3.254,5.664c-0.579-0.36-1.192-0.748-1.836-1.162c2.145-1.438,3.152-2.841,3.018-4.211
	c0.013-0.317,0.002-0.819-0.036-1.51c0.013-0.315,0.008-0.569-0.018-0.755c-1.317,1.07-2.849,2.072-4.595,3.013
	c-0.076-0.114-0.188-0.289-0.337-0.521c-0.142-0.17-0.404-0.573-0.787-1.215c3.181-1.584,5.657-3.383,7.429-5.399l-5.958,0.838
	l-1.435-10.213l16.922-2.378l1.436,10.212l-6.044,0.851c2.01,1.358,4.864,2.25,8.564,2.678c-0.281,0.925-0.473,1.646-0.576,2.164
	c-1.93-0.359-3.636-0.814-5.122-1.363l0.979,6.963L274.84,179.857z M260.716,108.809l0.116,3.96l8.375-1.177
	c-0.217-1.546-0.4-2.846-0.548-3.899L260.716,108.809z M269.831,117.279c-0.047-0.75-0.201-2.055-0.461-3.911l-8.547,1.201
	l0.203,3.948L269.831,117.279z M262.901,161.938l0.352,2.508l5.526-0.777l-0.353-2.506L262.901,161.938z M265.715,111.798
	c-0.397-0.323-1.011-0.71-1.836-1.162c-0.389-0.26-0.712-0.468-0.968-0.621l0.879-1.26c0.57,0.298,1.396,0.75,2.479,1.355
	c-0.133-0.107-0.004-0.03,0.385,0.23L265.715,111.798z M263.488,166.116l0.353,2.507l5.525-0.777l-0.352-2.506L263.488,166.116z
	 M266.351,117.579c-0.323-0.206-0.777-0.521-1.365-0.944c-0.637-0.351-1.116-0.631-1.438-0.839l0.793-1.248
	c0.76,0.399,1.719,0.958,2.877,1.678L266.351,117.579z M265.658,203.506l-1.996-14.204l7.339-1.03l1.983,14.11l-1.554,0.22
	l-1.722-12.256l-4.317,0.606l1.735,12.348L265.658,203.506z M264.934,147.62l4.921-0.691l-0.443-3.157l-4.921,0.692L264.934,147.62z
	 M273.546,208.268c-0.473-0.439-1.136-0.977-1.988-1.613c-0.87-0.762-1.538-1.33-2-1.707c-0.244,1.611-1.227,3.391-2.948,5.337
	l-1.357-1.515c1.437-1.463,2.329-2.851,2.673-4.162c0.344-1.311,0.338-3.232-0.019-5.771l-0.861-6.127l1.554-0.219l0.875,6.22
	c0.235,1.672,0.349,3.108,0.341,4.308c1.904,1.438,3.505,2.602,4.805,3.49L273.546,208.268z M272.8,142.822
	c-1.596-0.912-3.373-1.86-5.331-2.848l0.854-1.445c0.999,0.428,2.288,1.037,3.866,1.823c0.636,0.353,1.111,0.602,1.426,0.747
	L272.8,142.822z M275.852,160.118l-5.526,0.776l0.353,2.506l5.526-0.775L275.852,160.118z M270.914,165.072l0.352,2.507l5.526-0.776
	l-0.352-2.507L270.914,165.072z M274.916,191.695c-0.296,1.242-0.701,2.529-1.218,3.863c-0.133-0.105-0.328-0.236-0.583-0.392
	c-0.19-0.099-0.546-0.333-1.067-0.702c1.042-2.607,1.759-5.23,2.15-7.876l1.952,0.104c-0.111,0.457-0.255,1.109-0.43,1.953
	c-0.112,0.459-0.184,0.783-0.215,0.978l7.598-1.067c0.14,0.991,0.336,2.604,0.592,4.84c0.69,5.332,1.106,8.713,1.25,10.145
	c0.331,2.352-0.652,3.721-2.945,4.105l-3.626,0.51c-0.163-0.734-0.373-1.4-0.632-1.993c0.345-0.05,0.924-0.101,1.74-0.149
	c0.747-0.104,1.265-0.179,1.554-0.22c1.619-0.165,2.292-1.017,2.018-2.556c-0.39-3.604-0.914-7.76-1.575-12.465L274.916,191.695
	L274.916,191.695z M275.989,203.096c-0.567,0.143-1.068,0.34-1.502,0.59l-1.098-1.55c0.457-0.506,0.785-1.089,0.987-1.747
	c0.576-2.164,1.082-4.414,1.517-6.746l1.719,0.325c-0.39,1.823-1.014,4.277-1.871,7.363l3.674-0.8
	c-0.56-1.059-1.172-2.075-1.838-3.057l1.29-0.844c1.341,2.021,2.52,3.938,3.538,5.751l-1.376,0.856l-0.601-1.146
	c-0.846,0.246-2.013,0.506-3.501,0.776C276.473,202.996,276.162,203.07,275.989,203.096L275.989,203.096z M277.389,120.194
	l-0.287-2.042l8.116-1.141l-2.61-18.567l2.245-0.316l0.939,6.685l8.547-1.201l0.313,2.228l-8.547,1.201l1.357,9.655l10.188-1.432
	l0.287,2.042L277.389,120.194z M284.165,144.634c-0.062,1.651-0.464,3.379-1.208,5.188c-0.19-0.101-0.514-0.307-0.968-0.622
	c-0.389-0.262-0.712-0.468-0.968-0.622c1.258-2.321,1.468-6.043,0.632-11.165l-1.018-7.241l8.548-1.202l-1.043-2.409l2.378-0.619
	l0.996,2.7l7.943-1.116l0.261,1.857l-16.836,2.366l0.783,5.57C284.108,140.476,284.275,142.914,284.165,144.634L284.165,144.634z
	 M286.518,170.732c-0.55,0.268-0.96,0.482-1.23,0.646c-0.159-0.293-0.421-0.697-0.787-1.215c-0.216-0.285-0.367-0.518-0.45-0.693
	c6.729-2.65,11.76-6.324,15.092-11.021l-9.066,1.273c-1.377,1.897-3.059,3.713-5.046,5.442c-0.283-0.339-0.693-0.754-1.231-1.247
	c-0.076-0.115-0.146-0.199-0.212-0.254c3.05-2.512,5.383-5.332,6.999-8.463l2.224,0.161c-0.431,0.692-0.857,1.415-1.28,2.168
	l10.015-1.408l0.287,2.042c-2.302,3.67-5.395,6.723-9.278,9.162l10.447-1.469l1.409,10.025l-2.072,0.291l-0.183-1.299l-10.965,1.541
	l0.183,1.299l-2.072,0.292l-1.135-8.077C287.781,170.115,287.23,170.382,286.518,170.732L286.518,170.732z M287.274,149.214
	l-1.344-9.562l4.576-0.644l-1.005-7.148l1.986-0.279l0.313,2.228l7.943-1.116l0.261,1.856l-7.943,1.116l0.431,3.064l6.562-0.922
	l1.344,9.563l-1.986,0.279l-0.209-1.485l-9.152,1.286l0.209,1.485L287.274,149.214z M289.206,191.771
	c-0.016,1.139-0.095,2.254-0.234,3.347c-0.553-0.175-1.041-0.295-1.46-0.363c0.311-2.378,0.354-5.004,0.126-7.875l1.58-0.032
	c-0.034,1.016-0.015,1.989,0.059,2.926l1.641-0.229l-0.731-5.198L292,184.09l0.73,5.199l1.899-0.268l0.274,1.949l-1.899,0.268
	l0.652,4.643l1.808-0.917c0.087,0.619,0.239,1.292,0.46,2.019l-1.981,0.94l1.174,8.354l-1.813,0.256l-1.096-7.799l-3.443,1.81
	l-0.585-2.284c1.166-0.479,2.408-1.031,3.729-1.66l-0.717-5.105L289.206,191.771L289.206,191.771z M292.168,165.205
	c-0.862-0.698-2.108-1.628-3.738-2.788c0.065,0.056-0.029,0.005-0.285-0.149l1.285-1.506c0.19,0.102,0.479,0.28,0.869,0.541
	c1.413,0.875,2.547,1.631,3.4,2.268L292.168,165.205z M288.177,141.23l0.639,4.549l9.152-1.286l-0.639-4.549L288.177,141.23z
	 M290.239,169.643l0.705,5.014l10.965-1.541l-0.705-5.014L290.239,169.643z M297.618,188.979c-0.482,1.584-1.015,3.017-1.598,4.297
	c-0.199-0.161-0.492-0.373-0.881-0.635c-0.332-0.269-0.563-0.455-0.696-0.563c1.338-2.586,2.193-5.481,2.564-8.69l1.878,0.209
	c-0.189,1.162-0.42,2.235-0.692,3.221l8.72-1.226c0.299,2.548,0.758,6.647,1.377,12.304c0.082,0.998,0.145,1.652,0.188,1.961
	c0.348,2.476-0.626,3.906-2.919,4.293c-0.23,0.031-0.662,0.093-1.295,0.182c-0.682,0.158-1.196,0.263-1.541,0.312
	c-0.229-0.789-0.472-1.481-0.732-2.076c0.978-0.137,1.899-0.267,2.763-0.387c1.399-0.072,2.014-0.914,1.846-2.531
	c-0.043-0.311-0.098-0.9-0.162-1.776c-0.602-5.532-0.98-8.856-1.137-9.97l-1.468,0.205c0.693,7.854-0.94,13.576-4.896,17.162
	c-0.133-0.108-0.427-0.319-0.881-0.635c-0.397-0.322-0.696-0.564-0.895-0.727c4.006-3.654,5.712-8.85,5.118-15.583l-1.64,0.231
	c0.036,4.854-1.238,8.946-3.822,12.275c-0.613-0.607-1.173-1.034-1.676-1.279c2.618-3.08,3.961-6.678,4.03-10.791L297.618,188.979
	L297.618,188.979z M303.918,110.88l0.535,3.806l16.836-2.366l0.261,1.856l-18.822,2.646l-2.766-19.682l18.563-2.609l0.274,1.95
	l-16.577,2.33l0.521,3.713l14.678-2.063l1.174,8.355L303.918,110.88z M315.624,102.703l-12.605,1.771l0.626,4.456l12.605-1.771
	L315.624,102.703z M306.904,140.303l1.139-1.296l5.233,4.661l-1.199,1.494L306.904,140.303z M310.113,174.992l-1.448-10.307
	l8.202-1.151l1.448,10.305l-1.899,0.267l-0.196-1.392l-4.403,0.618l0.196,1.393L310.113,174.992z M310.384,161.889l-1.161-8.262
	l14.85-2.087l1.161,8.263L310.384,161.889z M310.825,166.275l0.757,5.386l4.403-0.619l-0.757-5.384L310.825,166.275z
	 M311.926,184.793l-0.287-2.043l18.044-2.536l0.287,2.043l-7.943,1.116c0.184,1.3,0.373,3.07,0.572,5.314l9.323-1.311l0.302,2.137
	l-8.895,1.25c1.604,4.317,5.035,6.803,10.292,7.451c-0.04,0.133-0.129,0.333-0.267,0.605c-0.211,0.598-0.42,1.195-0.629,1.793
	c-5.377-1.076-8.873-3.612-10.49-7.614c-0.324,3.96-2.859,7.438-7.603,10.44c-0.142-0.17-0.419-0.479-0.834-0.924
	c-0.35-0.395-0.626-0.703-0.834-0.925c5.057-2.856,7.562-6.332,7.515-10.429l-8.721,1.227l-0.3-2.137l8.979-1.262
	c-0.022-0.565-0.118-1.467-0.292-2.704c-0.101-1.122-0.192-1.992-0.279-2.612L311.926,184.793z M311.569,155.285l0.613,4.363
	l10.707-1.504l-0.613-4.363L311.569,155.285z M320.818,173.486l-1.448-10.305l8.202-1.152l1.449,10.305l-1.813,0.255l-0.196-1.394
	l-4.488,0.632l0.195,1.394L320.818,173.486z M321.531,164.771l0.757,5.385l4.489-0.631l-0.758-5.385L321.531,164.771z
	 M324.109,95.926l-0.287-2.042l17.268-2.427l0.287,2.042l-7.771,1.092c0.137,1.813,0.225,3.472,0.261,4.981l9.756-1.371l0.287,2.042
	l-10.188,1.432c-0.168,5.074-2.584,9.39-7.248,12.947l-1.717-1.558c4.346-3.324,6.614-7.02,6.807-11.086l-8.029,1.128l-0.287-2.042
	l8.461-1.189c-0.035-1.51-0.123-3.169-0.26-4.981L324.109,95.926z M328.174,127.938c-0.344-0.771-0.846-1.837-1.506-3.197
	c-0.186-0.478-0.355-0.864-0.516-1.158l1.156-0.541c0.074,0.117,0.19,0.321,0.352,0.613c0.885,1.707,1.466,2.918,1.742,3.636
	L328.174,127.938z M334.943,136.644c-0.424-0.509-1.084-1.235-1.979-2.184c-0.198-0.161-0.336-0.299-0.409-0.416l1.199,8.541
	l-1.727,0.243l-1.2-8.541c-0.396,2.202-1.002,4.149-1.82,5.841c-0.11-0.363-0.333-0.9-0.667-1.61
	c-0.102-0.301-0.189-0.509-0.264-0.625c1.039-1.787,1.762-4.16,2.168-7.121l-2.85,0.4l-0.248-1.764l2.937-0.413l-1.147-8.17
	l1.728-0.243l1.147,8.17l2.59-0.364l0.248,1.764l-2.59,0.364l0.364,2.6l0.759-0.864c1.369,1.386,2.36,2.383,2.975,2.99
	L334.943,136.644z M334.184,122.455c-0.254,1.55-0.559,3.14-0.916,4.768l-1.359-0.282c0.415-1.635,0.72-3.226,0.915-4.768
	L334.184,122.455L334.184,122.455z M338.628,112.157c-2.18,0.369-3.396-0.564-3.651-2.8l-1.043-7.427l2.071-0.292l0.979,6.963
	c0.059,1.255,0.744,1.756,2.062,1.509l2.072-0.292c1.209-0.17,1.763-0.816,1.664-1.938c0.005-0.379-0.024-1.005-0.089-1.881
	c-0.004-0.44-0.018-0.755-0.043-0.94c0.182,0.038,0.453,0.094,0.815,0.169c0.306,0.084,0.759,0.178,1.36,0.282
	c0.035,1.51,0.044,2.614,0.023,3.31c-0.054,1.712-1.062,2.673-3.027,2.887L338.628,112.157z M334.758,123.416l-0.209-1.485
	l4.835-0.68l-0.274-1.949l1.9-0.267l0.273,1.95l5.354-0.752l0.209,1.485l-5.354,0.752l0.209,1.485l4.835-0.68l0.194,1.393
	l-4.834,0.68l0.222,1.578l5.698-0.801l0.209,1.485l-12.778,1.796l-0.209-1.485l5.181-0.728l-0.222-1.579l-4.403,0.619l-0.195-1.393
	l4.403-0.619l-0.209-1.486L334.758,123.416z M335.777,187.121l-0.704-5.014l4.835-0.68c-0.579-0.359-1.676-1.058-3.288-2.094
	l1.312-1.32c1.272,0.705,2.395,1.367,3.361,1.989l-1.385,1.425l3.799-0.533l-0.561-3.992l2.158-0.303l0.561,3.991l3.539-0.498
	l-1.551-1.013c0.358-0.365,0.463-0.475,0.308-0.327c1.185-1.175,2.005-2.017,2.462-2.522l1.711,0.896
	c-0.809,0.935-1.727,1.916-2.756,2.942l4.921-0.69l0.705,5.015l-1.986,0.277l-0.456-3.249l-15.367,2.16l0.455,3.249L335.777,187.121
	z M338.492,166.934c0.304,2.166-0.219,3.879-1.566,5.144l-0.895-0.728c0.923-0.949,1.3-2.233,1.132-3.851l-1.468,0.206l-0.432-3.062
	l2.85-0.4C338.184,164.736,338.311,165.634,338.492,166.934L338.492,166.934z M337.812,142.015l-1.578-11.233l10.791-1.517
	l1.176,8.355c0.3,1.724-0.408,2.739-2.126,3.044c-0.23,0.033-0.604,0.085-1.122,0.158c-0.684,0.158-1.227,0.267-1.628,0.324
	c-0.194-0.541-0.425-1.14-0.692-1.796c0.583-0.02,1.424-0.105,2.518-0.259c0.986-0.077,1.391-0.543,1.211-1.401l-0.104-0.743
	l-7.166,1.007l0.535,3.806L337.812,142.015z M339.34,191.165l-0.822-5.849l13.643-1.918l0.822,5.85l-5.785,0.812l0.3,2.137
	l7.426-1.045l0.234,1.672l-7.425,1.044l0.312,2.229l9.238-1.3l0.234,1.671l-20.55,2.889l-0.233-1.672l9.15-1.285l-0.312-2.229
	l-7.426,1.043l-0.234-1.671l7.425-1.043l-0.3-2.136L339.34,191.165z M338.242,131.919l0.234,1.671l7.166-1.007l-0.234-1.671
	L338.242,131.919z M338.673,134.983l0.222,1.578l7.166-1.007l-0.222-1.578L338.673,134.983z M340.727,186.615l0.377,2.691
	l9.67-1.357l-0.377-2.692L340.727,186.615z M347.66,91.102l-0.184-1.3l17.096-2.402l0.183,1.299l-7.598,1.068l0.155,1.114
	l8.895-1.25l0.587,4.178l-1.813,0.255l-0.392-2.785l-7.079,0.995l0.51,3.621l-1.813,0.255l-0.509-3.621l-7.08,0.995l0.379,2.692
	l-1.812,0.255l-0.574-4.085l8.894-1.25l-0.157-1.114L347.66,91.102z M347.186,100.257l-0.17-1.207l1.986-0.279l-0.117-0.835
	l1.555-0.218l0.117,0.835l4.059-0.57l-0.118-0.835l1.555-0.219l0.117,0.836l1.728-0.243l0.17,1.207l-1.728,0.243l0.3,2.135
	l-2.763,0.389l0.155,1.114l3.714-0.521l0.496,3.528l-3.714,0.521l0.17,1.207l4.23-0.595l0.17,1.207l-4.23,0.595l0.287,2.042
	l-1.641,0.23l-0.287-2.042l-4.748,0.667l-0.17-1.207l4.748-0.667l-0.17-1.207l-3.713,0.522l-0.495-3.528l3.712-0.522l-0.156-1.114
	l-2.762,0.388l-0.301-2.135L347.186,100.257z M350,95.223l-0.131-0.928l4.835-0.68l0.131,0.928L350,95.223z M350.261,97.08
	l-0.131-0.929l4.836-0.679l0.13,0.928L350.261,97.08z M350.29,104.176l0.208,1.485l2.245-0.315l-0.209-1.485L350.29,104.176z
	 M350.727,99.76l0.155,1.114l4.06-0.57l-0.157-1.114L350.727,99.76z M351.089,122.352l-0.233-1.671l5.524-0.776
	c-0.216-0.285-0.627-0.7-1.231-1.247c-0.539-0.492-0.912-0.85-1.119-1.073l1.908-0.836c0.074,0.117,0.239,0.25,0.496,0.404
	c1.012,0.932,1.69,1.594,2.041,1.985l-1.23,0.646l4.922-0.691c0.893-1.577,1.493-2.733,1.801-3.472l2.164,0.359
	c-0.139,0.272-0.395,0.75-0.768,1.433c-0.383,0.622-0.643,1.069-0.78,1.34l5.354-0.752l0.233,1.671l-8.548,1.201l0.287,2.042
	l7.512-1.056l0.248,1.764l-7.512,1.056l0.287,2.042l9.064-1.274l0.235,1.671l-20.203,2.839l-0.235-1.671l9.065-1.274l-0.287-2.042
	l-7.339,1.03l-0.247-1.764l7.339-1.031l-0.287-2.042L351.089,122.352z M352.461,133.993l-0.248-1.764l8.635-1.213
	c0.03-0.193,0.025-0.444-0.019-0.755c0.013-0.317,0.008-0.569-0.019-0.755l2.071-0.291c0.07,0.496,0.082,0.999,0.036,1.51
	l8.895-1.25l0.246,1.764l-8.373,1.177c1.281,2.03,4.42,2.849,9.414,2.464c-0.129,0.333-0.271,0.795-0.422,1.384
	c-0.13,0.333-0.211,0.598-0.24,0.792c-5.057-0.047-8.373-1.096-9.951-3.146c-0.731,2.312-3.672,4.365-8.818,6.163
	c-0.085-0.178-0.275-0.498-0.574-0.96c-0.302-0.464-0.525-0.811-0.676-1.042c5.102-1.285,7.852-3.028,8.245-5.229L352.461,133.993z
	 M356.506,103.302l-2.331,0.328l0.209,1.485l2.331-0.328L356.506,103.302z M355.145,149.352l-0.287-2.042l18.648-2.621l0.287,2.042
	l-8.289,1.165l1.292,9.19l9.238-1.298l0.3,2.136l-9.238,1.298l1.084,7.706l-2.158,0.303l-1.084-7.705l-9.237,1.299l-0.302-2.135
	l9.238-1.298l-1.291-9.191L355.145,149.352z M360.742,156.612c-1.461-1.625-2.938-3.152-4.432-4.584l1.373-1.518
	c1.558,1.485,3.088,2.974,4.59,4.467L360.742,156.612z M361.436,105.166c-0.022,1.518-0.386,3.115-1.088,4.792
	c-0.314-0.146-0.752-0.337-1.313-0.573c-0.24-0.03-0.394-0.072-0.458-0.125c1.123-1.61,1.423-3.859,0.898-6.753l-0.757-5.384
	l7.771-1.092l1.41,10.026c0.273,1.539-0.332,2.445-1.819,2.717c-0.229,0.032-0.601,0.115-1.109,0.25
	c-0.575,0.081-0.979,0.138-1.208,0.17c-0.085-0.177-0.182-0.448-0.291-0.811c-0.177-0.417-0.307-0.714-0.389-0.892
	c0.229-0.032,0.578-0.05,1.049-0.053c0.518-0.073,0.863-0.122,1.036-0.146c0.747-0.105,1.074-0.499,0.979-1.179l-0.223-1.578
	L361.436,105.166L361.436,105.166z M358.979,93.961l-0.131-0.929l4.75-0.667l0.129,0.929L358.979,93.961z M359.24,95.817
	l-0.131-0.928l4.748-0.667l0.131,0.928L359.24,95.817z M360.568,98.376l0.272,1.95l4.403-0.619l-0.273-1.95L360.568,98.376z
	 M361.143,102.461c0.069,0.496,0.131,0.929,0.184,1.3l4.402-0.619l-0.273-1.95l-4.403,0.619L361.143,102.461z M366.207,195.525
	c-1.869,0.074-3.057-0.863-3.564-2.812c-0.123-2.127,0.752-3.419,2.625-3.871c1.982-0.09,3.209,0.906,3.678,2.985
	C369.051,193.833,368.137,195.066,366.207,195.525L366.207,195.525z M365.464,190.234c-1.077,0.279-1.586,1.045-1.526,2.298
	c0.264,1.036,0.949,1.538,2.062,1.509c1.134-0.286,1.685-0.961,1.651-2.029C367.359,190.789,366.632,190.198,365.464,190.234
	L365.464,190.234z M373.32,149.637c-1.072,1.982-2.182,3.904-3.327,5.77l-1.75-1.174c1.202-1.873,2.289-3.761,3.254-5.664
	L373.32,149.637L373.32,149.637z M373.152,90.071c-1.068-0.922-2.092-1.725-3.067-2.409l1.101-1.574
	c1.032,0.676,2.08,1.444,3.142,2.304L373.152,90.071z M373.583,96.259c-0.125-0.045-0.29-0.18-0.497-0.404
	c-1.232-0.835-2.177-1.493-2.83-1.969l1-1.655c1.281,0.767,2.419,1.553,3.413,2.36L373.583,96.259z M375.309,99.141
	c-0.312,3.201-0.56,6.043-0.738,8.53l-1.903-0.395c0.36-3.27,0.579-6.108,0.651-8.518c0.246,0.093,0.791,0.206,1.633,0.339
	C374.29,99,374.41,99.016,375.309,99.141L375.309,99.141z M378.262,129.516c-0.682,0.16-1.269,0.368-1.761,0.626l-0.978-1.946
	c0.311-0.295,0.759-0.864,1.345-1.704c0.649-1.227,1.196-2.346,1.642-3.355c-1.439,0.203-2.576,0.457-3.414,0.764l-0.865-1.772
	c0.457-0.505,0.814-1.092,1.074-1.76c0.672-1.482,1.457-3.613,2.358-6.391l2.077,0.371c-0.856,2.267-1.866,4.681-3.032,7.243
	l2.75-0.481c0.483-1.141,0.926-2.181,1.321-3.121l1.857,0.686c-0.912,2.275-2.344,5.252-4.291,8.934l4.411-1.188
	c0.013,0.504,0.074,1.158,0.188,1.962c-0.338,0.111-0.822,0.21-1.455,0.299C379.954,129.026,378.877,129.303,378.262,129.516
	L378.262,129.516z M374.631,91.189l-0.273-1.95l3.367-0.473c-0.401-0.763-0.883-1.895-1.445-3.395l1.859-0.545
	c0.109,0.364,0.332,0.9,0.668,1.61c0.352,0.835,0.623,1.522,0.817,2.063l-0.087,0.012l2.158-0.303l0.273,1.95l-4.058,0.57
	l0.383,3.354l3.886-0.546c0.122,0.867,0.274,2.171,0.463,3.911c0.314,2.67,0.526,4.598,0.635,5.78
	c0.252,1.794-0.428,2.806-2.039,3.032c-0.51,0.134-1.053,0.243-1.627,0.323l-0.619-1.901c0.574-0.081,1.007-0.142,1.296-0.182
	c0.985-0.077,1.386-0.573,1.198-1.494c-0.053-0.372-0.106-0.963-0.162-1.776c-0.25-2.616-0.453-4.48-0.609-5.594l-2.245,0.315
	c0.026,0.186,0.048,0.341,0.065,0.464c0.52,4.535,0.156,8.215-1.09,11.041l-1.664-1.186c1.16-2.183,1.498-5.417,1.014-9.705
	c-0.111-1.625-0.312-3.49-0.609-5.594L374.631,91.189z M383.844,132.897c-1.809,0.505-4.26,1.229-7.355,2.169l-0.531-1.913
	c2.883-0.784,5.454-1.491,7.713-2.125c0.025,0.186,0.068,0.496,0.131,0.928C383.803,132.398,383.816,132.711,383.844,132.897
	L383.844,132.897z M381.323,152.584l-1.267-9.005l15.974-2.245l1.266,9.005l-11.828,1.663l0.89,0.064
	c-0.315,0.676-0.666,1.324-1.047,1.946l13.297-1.869c0.087,0.619,0.211,1.927,0.375,3.923c0.062,0.875,0.121,1.498,0.175,1.869
	c0.342,2.854-0.733,4.394-3.226,4.62c-0.453,0.125-1.397,0.291-2.837,0.492c-0.108-0.363-0.266-0.847-0.468-1.449
	c-0.093-0.238-0.177-0.416-0.251-0.531c0.347-0.049,0.838-0.088,1.481-0.113c0.518-0.073,0.92-0.131,1.207-0.17
	c1.679-0.174,2.396-1.125,2.152-2.859c-0.077-1.377-0.188-2.592-0.337-3.645l-2.763,0.388c-0.358,3.712-2.233,6.877-5.62,9.5
	c-0.579-0.36-1.162-0.752-1.75-1.174c3.258-2.288,5.054-4.97,5.385-8.046l-2.937,0.413c-0.969,3.544-3.467,6.451-7.49,8.721
	c-0.066-0.054-0.133-0.108-0.198-0.161c-0.489-0.562-0.93-0.975-1.317-1.234c3.599-1.957,5.91-4.301,6.936-7.034l-3.107,0.437
	c-0.896,1.136-1.91,2.289-3.037,3.457c-0.424-0.509-0.929-0.973-1.517-1.396c2.103-1.747,3.644-3.731,4.622-5.952L381.323,152.584z
	 M383.641,98.917l-0.261-1.857l3.54-0.498l-0.184-1.299l1.967-2.927l-4.835,0.68l-0.195-1.393l-0.475,1.013
	c-0.464-0.375-1.019-0.771-1.663-1.187c1.095-2.236,1.854-4.772,2.275-7.609h2.024c-0.206,1.039-0.416,2.046-0.631,3.023
	l5.438-0.765l0.262,1.857l-6.217,0.874c-0.242,0.792-0.541,1.591-0.896,2.398l6.734-0.946l0.273,1.95l-2.173,3.335l0.104,0.743
	l3.279-0.461l0.262,1.857l-3.281,0.461l0.641,4.549c0.291,1.663-0.396,2.612-2.064,2.846c-0.799,0.174-1.541,0.312-2.231,0.408
	c-0.026-0.186-0.119-0.425-0.276-0.718c-0.138-0.549-0.252-0.944-0.344-1.183c0.691-0.097,1.354-0.19,1.986-0.279
	c0.871-0.06,1.222-0.488,1.052-1.284l-0.574-4.085L383.641,98.917z M388.768,134.098c-2.236,0.376-3.482-0.552-3.738-2.788
	l-1.291-9.191l8.029-1.128l-0.795-5.663l-8.375,1.177l-0.287-2.042l10.445-1.468l1.37,9.748l-8.028,1.128l0.926,6.592
	c0.076,1.378,0.802,1.938,2.174,1.683l3.195-0.449c1.265-0.178,1.902-0.866,1.91-2.067c0.076-0.705,0.09-1.653,0.039-2.846
	c0.734,0.213,1.432,0.367,2.091,0.464c0.1,1.122,0.073,2.2-0.074,3.229c-0.036,1.835-1.155,2.845-3.36,3.029L388.768,134.098z
	 M382.378,145.052l0.272,1.95l11.916-1.675l-0.273-1.949L382.378,145.052z M382.859,148.487l0.287,2.042l11.916-1.675l-0.287-2.042
	L382.859,148.487z M393.87,87.634l-0.261-1.856l2.504-0.352c0.131-1.154,0.242-2.243,0.333-3.266l1.926-0.082
	c-0.006,0.38-0.063,1.02-0.171,1.917c-0.104,0.521-0.167,0.908-0.188,1.163l4.403-0.619l0.261,1.857l-4.921,0.691
	c-0.407,2.961-0.732,5.026-0.979,6.196l2.504-0.352l-0.641-4.549l1.642-0.23l0.64,4.549l2.331-0.328l0.261,1.857l-2.331,0.328
	l0.417,2.971l2.538-0.735c0.047,0.751,0.109,1.405,0.188,1.962l-2.465,0.63l0.639,4.549l-1.899,0.267l-0.612-4.363
	c-1.527,0.404-2.941,0.792-4.238,1.164l-0.46-2.018c0.401-0.057,1.056-0.21,1.96-0.465c1.084-0.214,1.91-0.394,2.478-0.538
	l-0.442-3.156l-3.973,0.558l-0.261-1.857c0.03-0.193,0.077-0.484,0.142-0.872c0.252-1.55,0.473-3.316,0.664-5.3L393.87,87.634z
	 M418.164,116.998c-4.331-1.157-7.743-2.888-10.237-5.188c-1.725,2.767-4.631,5.479-8.718,8.136
	c-0.084-0.178-0.276-0.497-0.575-0.96c-0.292-0.4-0.508-0.686-0.647-0.856c4.335-2.564,7.309-5.413,8.924-8.544l2.443-0.154
	c-0.05,0.07-0.118,0.206-0.206,0.408c-0.1,0.141-0.169,0.276-0.207,0.408c2.602,2.223,5.921,3.712,9.961,4.47L418.164,116.998z
	 M402.933,125.765c-0.312,2.38-0.708,4.36-1.189,5.942c-0.619-0.229-1.259-0.391-1.917-0.488c0.624-2.233,1.024-4.183,1.202-5.85
	L402.933,125.765L402.933,125.765z M413.327,123.926c-0.579-0.359-1.175-0.624-1.784-0.791l1.768-3.089L402,121.636l-0.262-1.857
	l13.556-1.905l0.274,1.949L413.327,123.926z M415.177,87.006c-0.179,0.404-0.428,1.134-0.749,2.188
	c-2.612-1.462-4.727-3.343-6.34-5.642c-1.051,2.547-2.646,4.98-4.785,7.3c-0.149-0.23-0.475-0.658-0.973-1.284
	c-0.198-0.161-0.336-0.299-0.41-0.416c2.582-2.508,4.265-5.364,5.047-8.567l2.111-0.013l-0.301,0.989
	C410.541,84.093,412.674,85.907,415.177,87.006L415.177,87.006z M407.346,157.822c-0.88,1.26-1.61,2.53-2.192,3.812l-1.437-2.069
	c0.357-0.368,0.905-1.074,1.639-2.125c0.333-0.551,0.572-0.933,0.72-1.143l-0.991-7.056l-2.504,0.352l-0.287-2.042l4.576-0.644
	l1.266,9.005c1.396,1.572,3.271,2.191,5.632,1.859c3.224-0.453,6.878-0.966,10.966-1.541c-0.161,0.527-0.297,1.24-0.403,2.14
	c-1.036,0.146-2.825,0.364-5.366,0.66c-2.533,0.355-4.321,0.574-5.366,0.66C411.062,160.046,408.979,159.423,407.346,157.822
	L407.346,157.822z M405.666,144.615c-0.593-0.864-1.688-2.192-3.29-3.987l1.583-1.264c0.556,0.617,1.427,1.598,2.615,2.946
	c0.415,0.447,0.691,0.754,0.834,0.924L405.666,144.615z M408.322,131.54c-2.007,0.344-3.124-0.507-3.354-2.558l-0.6-4.271
	l1.898-0.267l0.535,3.807c0.09,1.061,0.735,1.473,1.937,1.243l3.106-0.437c1.283-0.055,1.909-0.614,1.877-1.684
	c0.111-0.457,0.136-1.123,0.071-1.999c0.726,0.151,1.389,0.278,1.99,0.383c-0.017,1.138-0.097,2.034-0.238,2.684
	c-0.089,1.464-1.086,2.298-2.994,2.503L408.322,131.54z M409.489,102.291c-2.017,0.283-3.17-0.628-3.466-2.732l-1.331-9.47
	l1.898-0.267l0.574,4.085c1.693-1.311,3.271-2.827,4.731-4.547l1.443,1.501c-1.896,1.97-3.85,3.729-5.862,5.273l0.379,2.692
	c0.099,1.122,0.747,1.566,1.948,1.335l1.985-0.279c1.15-0.162,1.71-0.776,1.678-1.845c0.033-1.014,0-2.083-0.099-3.205
	c0.726,0.151,1.389,0.278,1.991,0.383c0.045,1.572,0.012,2.807-0.097,3.706c0.004,1.703-0.973,2.693-2.929,2.967L409.489,102.291z
	 M408.826,118.215c-0.82-0.832-1.672-1.659-2.55-2.482l1.323-1.228c0.598,0.484,1.435,1.219,2.512,2.204
	c-0.075-0.115-0.009-0.061,0.198,0.161L408.826,118.215z M410.757,126.938c-1.162-1.162-2.347-2.289-3.557-3.382l1.312-1.32
	c0.661,0.539,1.659,1.376,2.994,2.514c0.34,0.331,0.575,0.551,0.709,0.658L410.757,126.938z M412.729,147.883
	c0.43,3.475-0.024,6.505-1.363,9.091c-0.066-0.053-0.198-0.162-0.397-0.323c-0.776-0.521-1.291-0.827-1.538-0.92
	c0.787-1.498,1.241-2.856,1.364-4.073c0.131-1.154,0.027-2.938-0.312-5.352l-0.835-5.942c2.982-0.481,6.537-1.297,10.661-2.445
	l0.979,1.946c-2.201,0.626-5.328,1.349-9.38,2.17l0.548,3.899l10.188-1.432l0.273,1.95l-3.713,0.522l1.227,8.727l-2.071,0.292
	l-1.227-8.727L412.729,147.883L412.729,147.883z M419.139,128.316c-0.765-0.839-1.843-2.044-3.236-3.616
	c-0.274-0.277-0.481-0.5-0.623-0.67l1.411-1.24c0.82,0.832,1.928,2.034,3.322,3.604c0.282,0.339,0.489,0.563,0.623,0.67
	L419.139,128.316z M420.695,101.095l-2.559-18.196l2.331-0.328c0.022-0.255,0.062-0.608,0.116-1.058
	c0.134-0.713,0.21-1.639,0.226-2.777l2.212,0.068c-0.134,1.155-0.291,2.313-0.48,3.476l3.886-0.546l2.531,18.01l-1.899,0.267
	l-0.248-1.764l-4.402,0.619l0.272,1.95L420.695,101.095z M420.411,84.662l0.718,5.106l4.402-0.619l-0.717-5.106L420.411,84.662z
	 M421.415,91.811l0.744,5.292l4.403-0.619l-0.744-5.292L421.415,91.811z M424.908,129.778l-1.449-10.305l8.203-1.153l1.448,10.305
	l-1.899,0.267l-0.196-1.393l-4.402,0.619l0.195,1.393L424.908,129.778z M425.18,116.675l-1.162-8.263l14.852-2.087l1.161,8.263
	L425.18,116.675z M425.62,121.063l0.757,5.384l4.403-0.619l-0.757-5.385L425.62,121.063z M426.364,110.071l0.612,4.363l10.706-1.505
	l-0.612-4.363L426.364,110.071z M435.951,98.761c-1.152,0.162-2.36,0.332-3.626,0.51c-0.154-0.673-0.403-1.396-0.745-2.167
	c0.756-0.044,1.883-0.17,3.38-0.38c1.629-0.103,2.326-0.99,2.092-2.661c-0.076-1.376-0.398-4.299-0.968-8.763
	c-0.126-1.308-0.227-2.24-0.305-2.797l-5.182,0.728c-0.151,0.59-0.413,1.447-0.782,2.572c-0.161,0.528-0.281,0.924-0.361,1.187
	c-0.57-0.299-1.198-0.589-1.884-0.872c1.008-2.854,1.688-5.728,2.047-8.619l2.051,0.185c-0.062,0.388-0.162,0.938-0.296,1.651
	c-0.126,0.775-0.221,1.356-0.283,1.744l6.39-0.898c0.558,3.961,1.094,8.62,1.611,13.974
	C439.464,96.815,438.417,98.352,435.951,98.761L435.951,98.761z M448.271,153.208c-0.561,1.025-0.931,1.74-1.107,2.144
	c-5.466-2.134-8.997-5.961-10.594-11.481c-0.032,5.623-2.416,10.375-7.152,14.259c-0.143-0.169-0.383-0.419-0.723-0.75
	c-0.481-0.5-0.797-0.867-0.946-1.098c5.082-3.933,7.413-9.057,6.996-15.374c-0.085-1.439-0.288-3.304-0.61-5.594l2.245-0.316
	l0.37,3.262c1.723,8.089,5.613,13.002,11.668,14.738C448.368,153.066,448.318,153.137,448.271,153.208L448.271,153.208z
	 M433.41,92.586c-0.351-0.392-0.872-0.981-1.568-1.768c-0.99-1.187-1.762-2.087-2.316-2.704l1.396-1.333
	c0.489,0.562,1.215,1.344,2.179,2.345c0.821,0.831,1.443,1.501,1.867,2.01L433.41,92.586z M435.613,128.273l-1.448-10.305
	l8.202-1.152l1.449,10.305l-1.813,0.255l-0.196-1.393l-4.488,0.631l0.195,1.393L435.613,128.273z M436.326,119.558l0.757,5.385
	l4.489-0.631l-0.757-5.385L436.326,119.558z M441.259,80.029l-0.247-1.764l9.583-1.347l-0.978-1.945l2.191-0.687
	c0.074,0.117,0.154,0.263,0.238,0.44c0.242,0.472,0.506,1.098,0.792,1.877l8.808-1.238l0.247,1.764L441.259,80.029z M445.099,97.95
	l-2.112-15.04l5.094-0.716l-1.895-2.195l1.821-0.824c0.142,0.169,0.415,0.447,0.821,0.831c0.705,0.848,1.163,1.384,1.37,1.606
	l-1.17,0.448l4.575-0.643c0.543-1.149,1.032-2.259,1.47-3.331l1.978,0.29c-0.12,0.396-0.387,1.001-0.801,1.816
	c-0.179,0.404-0.313,0.707-0.4,0.909l5.095-0.716l1.656,11.791c0.385,1.902-0.377,2.956-2.284,3.162
	c-0.808,0.113-1.758,0.247-2.851,0.4c-0.22-0.727-0.426-1.36-0.619-1.901c0.756-0.044,1.597-0.129,2.518-0.259
	c1.045-0.085,1.477-0.555,1.299-1.413l-1.37-9.748l-14.16,1.99l1.866,13.276L445.099,97.95z M446.098,113.163l-0.272-1.949
	l3.712-0.522l-0.47-3.342c-0.346,0.049-0.89,0.158-1.627,0.324c-0.69,0.097-1.234,0.206-1.628,0.323
	c-0.034-0.247-0.141-0.58-0.315-0.997c-0.119-0.424-0.221-0.726-0.304-0.904c3.82-0.789,6.61-1.403,8.369-1.839l0.706,1.889
	c-1.086,0.216-2.194,0.467-3.327,0.751l0.494,3.528l3.627-0.509l0.273,1.949l-3.626,0.51l0.431,3.064l0.573-0.933
	c0.265,0.216,0.657,0.508,1.18,0.876c1.108,0.791,1.929,1.402,2.458,1.832l-1.072,1.76c-0.198-0.161-0.53-0.43-0.993-0.807
	c-0.871-0.761-1.534-1.299-1.988-1.614l1.292,9.191l-1.898,0.267l-1.396-9.934c-0.502,2.28-1.342,4.449-2.519,6.507
	c-0.345-0.771-0.713-1.509-1.104-2.211c1.341-2.144,2.302-4.709,2.881-7.695L446.098,113.163z M447.071,89.437
	c-0.31-0.525-0.729-1.001-1.258-1.433c1.315-1.068,2.71-2.431,4.18-4.09l1.478,1.118c-1.021,1.09-1.943,2.041-2.769,2.851
	l8.288-1.165l0.899,6.406l-8.375,1.177l-0.899-6.406L447.071,89.437z M452.473,154.795l-2.558-18.196l2.331-0.328
	c0.021-0.254,0.061-0.607,0.116-1.058c0.134-0.712,0.21-1.639,0.226-2.777l2.211,0.068c-0.133,1.155-0.291,2.313-0.479,3.476
	l3.886-0.546l2.531,18.011l-1.899,0.267l-0.248-1.764l-4.403,0.619l0.273,1.95L452.473,154.795z M451.008,92.386l4.922-0.692
	l-0.443-3.156l-4.921,0.691L451.008,92.386z M452.188,138.362l0.719,5.106l4.401-0.619l-0.717-5.106L452.188,138.362z
	 M453.192,145.511l0.743,5.292l4.403-0.619l-0.744-5.292L453.192,145.511z M458.874,87.588c-1.596-0.912-3.373-1.86-5.331-2.848
	l0.854-1.445c0.997,0.427,2.287,1.036,3.865,1.823c0.637,0.353,1.11,0.601,1.427,0.746L458.874,87.588z M458.419,124.402
	l-2.675-19.032l9.15-1.286l2.662,18.938l-1.984,0.279l-0.274-1.95l-5.267,0.74l0.287,2.042L458.419,124.402z M457.918,107.053
	l1.826,12.997l5.267-0.74l-1.826-12.997L457.918,107.053z M467.729,152.462c-1.151,0.162-2.359,0.332-3.626,0.509
	c-0.153-0.673-0.402-1.396-0.744-2.167c0.756-0.044,1.883-0.17,3.38-0.38c1.629-0.104,2.326-0.99,2.092-2.661
	c-0.076-1.376-0.399-4.298-0.968-8.763c-0.126-1.308-0.228-2.24-0.306-2.797l-5.181,0.728c-0.152,0.589-0.413,1.447-0.783,2.571
	c-0.161,0.529-0.28,0.924-0.36,1.187c-0.57-0.298-1.198-0.589-1.885-0.872c1.009-2.854,1.689-5.728,2.048-8.619l2.051,0.185
	c-0.063,0.388-0.162,0.938-0.296,1.651c-0.126,0.775-0.222,1.356-0.283,1.744l6.389-0.898c0.559,3.962,1.094,8.62,1.612,13.974
	C471.241,150.516,470.194,152.052,467.729,152.462L467.729,152.462z M465.188,146.287c-0.35-0.392-0.871-0.981-1.567-1.768
	c-0.99-1.187-1.762-2.087-2.317-2.704l1.397-1.333c0.489,0.563,1.215,1.344,2.179,2.345c0.821,0.832,1.443,1.501,1.867,2.01
	L465.188,146.287z M470.315,86.74c-1.497-3.134-3.008-6.141-4.525-9.02l1.722-0.905c0.851,1.458,2.054,3.751,3.607,6.877
	c0.427,0.951,0.758,1.63,0.991,2.039L470.315,86.74z M467.391,93.494l-0.273-1.95l6.476-0.91l-2.608-18.567l2.071-0.292
	l2.609,18.568l3.54-0.498l-2.609-18.567l2.071-0.292l2.61,18.567l6.475-0.91l0.274,1.949L467.391,93.494z M469.763,105.389
	l-0.248-1.764l4.059-0.57l-0.365-2.6l1.727-0.243l0.366,2.6l3.28-0.461l0.248,1.764l-3.281,0.461l0.287,2.042l0.562-1.025
	c0.437,0.191,1.061,0.452,1.869,0.778c0.562,0.238,0.998,0.428,1.313,0.573l-0.741,1.619c-0.941-0.436-1.913-0.867-2.911-1.295
	l0.432,3.063l-1.729,0.243l-0.509-3.621c-0.771,1.623-1.906,3.141-3.41,4.55c-0.525-0.81-0.925-1.352-1.197-1.63
	c1.915-1.405,3.266-3.077,4.049-5.019L469.763,105.389z M488.137,112.084c-2.119,4.969-7.025,8.687-14.721,11.157
	c-0.093-0.24-0.354-0.646-0.787-1.215c-0.216-0.286-0.367-0.517-0.449-0.694c6.997-1.992,11.506-4.993,13.526-9.001l-8.721,1.226
	c-1.026,1.47-2.346,2.949-3.954,4.438c-0.549-0.553-1.056-1.019-1.519-1.396c2.567-2.19,4.424-4.439,5.567-6.747l1.951,0.104
	c-0.268,0.605-0.542,1.15-0.827,1.631l9.67-1.359L488.137,112.084L488.137,112.084z M474.812,138.213l-1.443-1.501
	c2.622-2.641,4.474-5.33,5.557-8.071l2.225,0.161c-0.195,0.28-0.422,0.754-0.682,1.421c-0.09,0.202-0.153,0.37-0.192,0.5
	l8.288-1.165l0.234,1.671l-2.126,3.044l5.008-0.704l1.07,7.613l-8.03,1.128c-0.492,3.604-3.102,6.747-7.831,9.432
	c-0.197-0.161-0.548-0.555-1.046-1.178c-0.216-0.286-0.391-0.482-0.521-0.589c4.182-1.975,6.625-4.434,7.327-7.373l-6.043,0.849
	l-0.874-6.22L474.812,138.213z M479.896,117.976c-0.703-0.406-1.662-0.965-2.878-1.679c-0.637-0.351-1.115-0.631-1.438-0.839
	l1.212-1.401c0.941,0.436,2.305,1.16,4.091,2.17c-0.125-0.045,0.004,0.032,0.385,0.23L479.896,117.976z M486.221,131.687
	l-6.994,0.983c-0.617,1.033-1.33,2.018-2.139,2.951l7.08-0.995L486.221,131.687z M477.768,137.324l0.574,4.085l4.662-0.655
	c0.049-0.069,0.062-0.198,0.034-0.383c0.04-0.131,0.057-0.229,0.048-0.291c0.024-1.076-0.021-2.236-0.138-3.483L477.768,137.324z
	 M479.95,103.957l-0.248-1.764l3.107-0.437l-0.364-2.6l1.812-0.255l0.365,2.6l4.316-0.607l0.248,1.764l-4.059,0.57
	c1.336,1.58,3.107,2.688,5.311,3.325c-0.081,0.264-0.234,0.633-0.462,1.106c-0.071,0.327-0.151,0.589-0.24,0.791
	c-2.057-0.847-3.587-1.924-4.594-3.236l0.535,3.807l-1.812,0.254l-0.534-3.806c-0.606,1.538-1.661,3.011-3.165,4.421
	c-0.142-0.169-0.424-0.508-0.847-1.017c-0.208-0.222-0.351-0.392-0.424-0.508c1.76-1.256,3.061-2.859,3.901-4.809L479.95,103.957z
	 M485.315,75.07c-0.498,2.721-1.239,6.013-2.224,9.875l-1.93-0.581c0.88-3.342,1.596-6.598,2.147-9.769L485.315,75.07L485.315,75.07
	z M488.54,149.443c-1.949,0.336-3.025-0.427-3.228-2.292l-0.55-3.899l1.986-0.279l0.47,3.342c0.023,1.007,0.637,1.393,1.836,1.162
	l2.851-0.4c1.101-0.093,1.645-0.61,1.63-1.554c-0.025-0.186-0.037-0.468-0.031-0.848c0.002-0.819-0.003-1.481-0.015-1.986
	c0.182,0.038,0.511,0.086,0.988,0.145c0.486,0.121,0.82,0.201,1.003,0.238c0.09,1.062,0.061,2.107-0.089,3.137
	c-0.07,1.587-0.974,2.471-2.709,2.653L488.54,149.443z M490.028,135.601l-5.009,0.704c0.014,1.766,0.007,2.966-0.021,3.601
	c0.009,0.063,0.021,0.155,0.039,0.278c-0.04,0.133-0.056,0.23-0.047,0.291l5.611-0.789L490.028,135.601z M494.488,69.427
	c-1.109,2.555-2.531,4.964-4.269,7.227c-0.065-0.053-0.142-0.169-0.225-0.347c-0.394-0.702-0.696-1.195-0.912-1.481
	c1.491-1.914,2.664-4.003,3.521-6.27L494.488,69.427L494.488,69.427z M493.564,91.047l-1.317-9.376
	c-0.188,0.343-0.496,0.859-0.927,1.55c-0.245,0.351-0.412,0.626-0.5,0.828c-0.094-0.238-0.256-0.563-0.489-0.973
	c-0.194-0.541-0.365-0.926-0.515-1.158c1.425-1.967,2.666-4.413,3.723-7.34l1.638,1c-0.161,0.529-0.469,1.266-0.922,2.212
	c-0.219,0.537-0.396,0.94-0.534,1.211l1.657,11.79L493.564,91.047z M494.088,101.687l-0.301-2.135l18.045-2.536l0.301,2.135
	l-7.856,1.104l2.035,14.483l9.065-1.274l0.286,2.042l-20.376,2.864L495,116.327l8.979-1.262l-2.034-14.483L494.088,101.687z
	 M495.368,73.185l-0.261-1.856l2.59-0.364l-0.404-2.878l1.727-0.243l0.404,2.878l2.677-0.376l0.262,1.856l-2.677,0.376l0.417,2.971
	l3.022-0.425l0.261,1.857l-7.856,1.104l-0.262-1.857l3.108-0.437l-0.417-2.971L495.368,73.185z M496.333,83.179l-0.248-1.764
	l3.021-0.425l-0.326-2.321l1.727-0.243l0.326,2.321l2.936-0.413l0.248,1.764l-2.936,0.413l0.457,3.249
	c1.2-0.23,2.333-0.517,3.401-0.856c0.068,0.496,0.155,1.114,0.261,1.856c-1.422,0.326-3.459,0.865-6.112,1.617
	c-1.019,0.269-1.812,0.475-2.378,0.618l-0.521-1.82l3.66-0.893l-0.496-3.528L496.333,83.179z M497.531,134.928l-0.273-1.95
	l2.851-0.4l-0.496-3.528c-0.23,0.032-0.635,0.089-1.209,0.17c-0.567,0.143-0.995,0.234-1.282,0.275
	c-0.162-0.735-0.335-1.34-0.521-1.82c1.719-0.304,4.027-0.787,6.929-1.447l0.605,1.808c-0.058,0.008-0.145,0.021-0.259,0.037
	c-0.731,0.229-1.558,0.408-2.478,0.538l0.521,3.713l2.59-0.364l0.274,1.949l-2.59,0.364l0.364,2.6l0.207-0.408
	c0.265,0.216,0.715,0.5,1.353,0.852c0.91,0.629,1.561,1.075,1.949,1.335l-0.803,1.817c-0.795-0.646-1.62-1.287-2.472-1.925
	l1.292,9.191l-1.813,0.255l-1.316-9.377c-0.403,2.14-0.991,4.021-1.76,5.644c-0.345-0.771-0.703-1.447-1.077-2.026
	c1.19-2.376,1.945-4.943,2.263-7.702L497.531,134.928z M503.448,70.534l-0.274-1.949l5.526-0.777l0.272,1.95L503.448,70.534z
	 M504.09,76.977l-0.262-1.857l6.303-0.886l0.262,1.857l-1.985,0.279l1.356,9.655c0.227,1.609-0.434,2.554-1.979,2.834
	c-0.69,0.097-1.439,0.202-2.245,0.315c-0.025-0.186-0.127-0.488-0.303-0.904c-0.128-0.488-0.233-0.819-0.316-0.997
	c0.173-0.024,0.402-0.056,0.691-0.097c0.525-0.012,0.929-0.068,1.208-0.17c0.862-0.122,1.222-0.488,1.078-1.099l-1.306-9.284
	L504.09,76.977z M506.312,138.521l-1.278-9.098l6.13-0.862c0.494-1.078,1.043-2.608,1.645-4.586l2.092,0.464
	c-0.655,1.606-1.21,2.884-1.663,3.831l3.021-0.425l1.278,9.098l-3.108,0.437l0.719,5.106c0.063,0.875,0.493,1.223,1.292,1.049
	l0.432-0.061c0.699-0.036,1.03-0.396,0.992-1.086c0.013-0.317-0.024-1.005-0.114-2.067c0.004-0.379-0.001-0.63-0.019-0.755
	c0.601,0.105,1.184,0.276,1.744,0.512c0.056,0.813,0.08,1.82,0.072,3.02c-0.098,1.401-0.865,2.204-2.304,2.406l-0.949,0.134
	c-1.776,0.312-2.771-0.496-2.98-2.421l-0.783-5.57l-1.985,0.279c0.019,0.125,0.039,0.278,0.064,0.464
	c-0.022,0.256-0.024,0.446-0.009,0.569c0.535,3.396-0.769,6.229-3.91,8.502c-0.144-0.169-0.388-0.452-0.735-0.844
	c-0.341-0.331-0.581-0.581-0.722-0.75c2.817-1.658,3.971-3.903,3.456-6.734c-0.01-0.061-0.026-0.186-0.054-0.372
	c0.022-0.254,0.026-0.444,0.01-0.569L506.312,138.521z M507.884,129.023c-0.292-0.4-0.969-1.251-2.032-2.555
	c-0.216-0.285-0.391-0.48-0.521-0.589l1.708-0.998c0.83,0.894,1.678,1.911,2.542,3.051L507.884,129.023z M507.208,131.106
	l0.73,5.199l7.425-1.043l-0.73-5.199L507.208,131.106z M515.613,86.808l-2.688-19.125l7.425-1.043L523,85.486l-1.899,0.267
	l-0.234-1.671l-3.626,0.51l0.272,1.949L515.613,86.808z M515.086,69.273l0.811,5.756l3.625-0.51l-0.809-5.756L515.086,69.273z
	 M516.156,76.886l0.822,5.849l3.625-0.51l-0.821-5.849L516.156,76.886z M517.271,102.405l-0.3-2.135l2.418-0.339l-0.81-5.756
	l1.898-0.267l0.811,5.756l2.244-0.315l0.301,2.135l-2.245,0.315l1.03,7.334c0.646-0.406,1.3-0.782,1.955-1.126
	c0.096,0.682,0.239,1.292,0.434,1.833c1.287-1.696,2.051-3.791,2.286-6.286l-2.59,0.364l-0.287-2.042l7.631-6.469l-7.771,1.092
	l-0.262-1.857l10.966-1.541l0.301,2.135l-7.56,6.364l9.498-1.334l0.934,9.146c0.374,2.66-0.509,4.11-2.646,4.348l-2.577,0.457
	c-0.093-0.24-0.243-0.692-0.454-1.356c-0.109-0.363-0.174-0.607-0.19-0.73c0.526-0.012,1.309-0.089,2.345-0.235
	c1.282-0.055,1.845-0.858,1.687-2.414c-0.048-0.751-0.198-2.245-0.454-4.48c-0.108-1.183-0.2-2.055-0.278-2.612l-2.245,0.315
	c0.059,5.421-1.348,9.624-4.214,12.616c-0.474-0.439-1.037-0.896-1.688-1.372c2.679-2.648,4.043-6.311,4.09-10.989l-2.417,0.34
	c-0.16,3.873-1.523,7.125-4.088,9.757c-0.124-0.044-0.355-0.234-0.695-0.565c-0.397-0.323-0.696-0.565-0.896-0.726
	c0.467-0.444,0.895-0.945,1.285-1.506c-0.928,0.509-2.312,1.304-4.155,2.382c-0.695,0.477-1.208,0.802-1.535,0.974l-0.818-2.063
	l2.619-1.41l-1.135-8.077L517.271,102.405z M523.418,133.558c-0.42,1.195-0.792,2.1-1.115,2.713
	c-0.102-0.301-0.254-0.753-0.455-1.356c-0.26-0.594-0.439-1.042-0.541-1.344c1.406-3.353,2.351-7.083,2.829-11.19l2.064,0.278
	c-0.218,1.798-0.559,3.55-1.022,5.256l2.322,16.525l-1.898,0.267l-1.723-12.254C523.798,132.716,523.645,133.085,523.418,133.558
	L523.418,133.558z M522.078,71.415l-0.287-2.042l7.08-0.995l-0.665-4.735l1.985-0.279l0.666,4.734l2.59-0.364l0.287,2.042
	l-2.59,0.364l1.644,11.698c0.361,2.158-0.488,3.413-2.552,3.767c-1.096,0.154-2.217,0.312-3.367,0.473
	c-0.084-0.177-0.178-0.417-0.277-0.718c-0.203-0.603-0.388-1.082-0.555-1.437c0.584-0.02,1.624-0.133,3.122-0.344
	c1.272-0.117,1.796-0.788,1.563-2.019l-1.564-11.141L522.078,71.415z M526.361,79.333c-0.844-1.396-1.979-3.003-3.407-4.823
	l1.497-1.252c1.213,1.534,2.4,3.103,3.565,4.706L526.361,79.333z M541.594,128.826c-0.16,0.528-0.281,0.924-0.36,1.187
	c-3.215-1.568-5.72-3.519-7.515-5.855c-1.296,2.896-3.243,5.537-5.843,7.921c-0.317-0.585-0.759-1.219-1.323-1.897
	c3.051-2.511,5.038-5.503,5.958-8.979l2.357-0.142l-0.374,1.094c2.06,2.551,4.551,4.41,7.475,5.576
	C541.888,127.996,541.763,128.361,541.594,128.826L541.594,128.826z M532.766,133.664c0.8,4.432,0.088,7.94-2.131,10.524
	c-0.065-0.054-0.162-0.104-0.285-0.149c-0.396-0.323-0.947-0.688-1.649-1.093c2.058-2.056,2.719-5.083,1.98-9.083l-0.404-2.878
	l2.071-0.291L532.766,133.664L532.766,133.664z M538.181,142.749l-1.773-12.626l2.071-0.292l1.773,12.626L538.181,142.749z
	 M541.615,84.385l-1.787-12.719c-0.566,1.405-1.229,2.761-1.982,4.065c-0.102-0.301-0.249-0.722-0.44-1.263
	c-0.203-0.602-0.352-1.023-0.442-1.263c1.646-3.323,2.796-7.051,3.447-11.183l2.077,0.371c-0.341,1.752-0.743,3.481-1.208,5.187
	l2.322,16.525L541.615,84.385z M540.346,94.809l-0.272-1.95l6.993-0.983l0.273,1.95l-2.504,0.352l0.757,5.385l2.244-0.315
	l0.262,1.856l-2.245,0.315l0.797,5.663c0.277-0.101,0.691-0.287,1.242-0.553c0.558-0.204,0.977-0.357,1.257-0.46
	c0.087,0.619,0.211,1.296,0.372,2.03c-0.723,0.291-1.858,0.767-3.408,1.426c-1.502,0.59-2.645,1.034-3.423,1.333l-0.633-1.994
	l2.671-1.039l-0.86-6.127l-2.417,0.34l-0.261-1.857l2.417-0.34l-0.758-5.384L540.346,94.809z M543.445,71.726l-0.56-2.099
	l4.67-1.225c-0.468-2.079-0.928-4.508-1.376-7.286l2.072-0.291c0.349,2.476,0.765,4.815,1.251,7.019l7.381-1.984l0.474,2.111
	l-7.468,1.996c0.934,3.72,1.925,6.389,2.975,8.008c0.917,1.513,1.831,2.172,2.744,1.981c0.698-0.036,1.09-0.594,1.173-1.68
	c0.021-0.254,0.047-0.7,0.076-1.336c0.002-0.82,0.01-1.389,0.022-1.708c0.306,0.084,0.759,0.177,1.361,0.282
	c0.237,0.03,0.419,0.068,0.544,0.113c0.055,0.813,0.011,1.956-0.135,3.427c-0.151,1.851-1.003,2.887-2.559,3.105
	c-1.784,0.251-3.409-0.657-4.873-2.723c-1.349-2.083-2.44-5.053-3.276-8.912L543.445,71.726z M544.812,125.913l-0.274-1.95
	l2.591-0.364l-0.613-4.363l1.899-0.267l0.613,4.363l2.331-0.328l0.272,1.95l-2.331,0.328l0.313,2.228l0.146-0.21
	c0.39,0.262,0.978,0.684,1.764,1.267c0.711,0.468,1.228,0.807,1.551,1.013c1.697-0.869,3.127-1.765,4.289-2.686
	c-0.977-0.683-1.901-1.626-2.774-2.829c-0.463,0.886-1.036,1.819-1.72,2.798c-0.424-0.508-0.873-0.981-1.345-1.42
	c1.521-2.107,2.641-4.599,3.352-7.477l2.125,0.08c-0.091,0.202-0.188,0.532-0.302,0.989c-0.17,0.466-0.295,0.832-0.374,1.094
	l7.425-1.043l0.273,1.949c-0.824,2.073-1.946,3.904-3.366,5.491c1.552,0.603,3.424,0.972,5.614,1.104
	c-0.032,0.194-0.1,0.551-0.202,1.07c-0.104,0.521-0.199,0.88-0.288,1.082c-2.812-0.362-5.009-0.968-6.596-1.819
	c-1.637,1.304-3.714,2.605-6.229,3.905c-0.075-0.115-0.159-0.292-0.251-0.533c-0.15-0.23-0.263-0.404-0.337-0.521l-0.269,0.605
	c-0.133-0.107-0.363-0.295-0.694-0.565c-0.208-0.223-0.704-0.626-1.491-1.21l1.618,11.512l-1.899,0.267l-1.618-11.512
	c-0.319,2.317-0.853,4.38-1.596,6.188c-0.177-0.416-0.449-1.104-0.817-2.063c-0.093-0.238-0.146-0.42-0.164-0.544
	c0.863-2.205,1.52-4.853,1.965-7.945L544.812,125.913z M548.844,100.146l-0.272-1.949l12.863-1.808l0.274,1.95l-4.059,0.57
	l1.188,8.448c0.029,0.627,0.36,0.896,0.994,0.807l0.689-0.097c0.634-0.089,0.936-0.447,0.906-1.074
	c-0.014-0.502-0.065-1.505-0.159-3.007c0.306,0.084,0.764,0.209,1.374,0.375c0.182,0.038,0.301,0.053,0.358,0.044
	c0.003,0.442,0.017,1.167,0.041,2.172c0.003,0.442,0.018,0.755,0.044,0.94c-0.031,1.456-0.766,2.285-2.204,2.487l-1.295,0.182
	c-1.604,0.288-2.493-0.407-2.67-2.086l-1.253-8.913l-2.504,0.352c0.061,0.434,0.114,1.025,0.161,1.776
	c0.122,0.868,0.175,1.459,0.162,1.776c0.438,3.536-0.685,6.628-3.362,9.277c-0.208-0.224-0.605-0.547-1.193-0.968
	c-0.266-0.216-0.464-0.377-0.596-0.484c2.52-2.12,3.574-4.635,3.165-7.545c-0.016-0.944-0.122-2.127-0.322-3.552L548.844,100.146z
	 M549.066,93.583l-0.274-1.95l10.534-1.48l0.272,1.949L549.066,93.583z M554.303,65.656c-0.065-0.053-0.166-0.134-0.298-0.242
	c-1.573-1.167-2.811-2.034-3.712-2.603l1.1-1.575c1.216,0.714,2.575,1.626,4.083,2.74L554.303,65.656z M555.331,140.623
	l-1.239-8.819l10.792-1.517l1.239,8.819l-1.899,0.267l-0.183-1.3l-6.993,0.983l0.184,1.3L555.331,140.623z M558.86,125.643
	c1.069-1.159,2.01-2.617,2.818-4.373l-6.13,0.862c-0.05,0.07-0.068,0.137-0.061,0.198
	C556.513,123.764,557.636,124.868,558.86,125.643L558.86,125.643z M556.252,133.394l0.562,3.992l6.992-0.983l-0.562-3.992
	L556.252,133.394z M568.033,79.916c-1.869,0.073-3.058-0.865-3.564-2.813c-0.123-2.127,0.752-3.419,2.625-3.872
	c1.982-0.089,3.209,0.907,3.678,2.986C570.877,78.222,569.963,79.456,568.033,79.916L568.033,79.916z M565.864,105.229l-0.248-1.764
	l2.763-0.388l-2.062-14.668l15.367-2.16l2.062,14.668l2.764-0.388l0.247,1.764L565.864,105.229z M567.29,74.625
	c-1.077,0.278-1.586,1.043-1.526,2.297c0.264,1.037,0.949,1.538,2.062,1.509c1.134-0.287,1.684-0.961,1.651-2.031
	C569.188,75.179,568.458,74.587,567.29,74.625L567.29,74.625z M574.871,106.046c-2.925,1.737-5.271,3.013-7.033,3.829
	c-0.143-0.169-0.329-0.459-0.562-0.868c-0.291-0.401-0.509-0.686-0.648-0.855c2.551-1.054,4.909-2.236,7.073-3.55L574.871,106.046
	L574.871,106.046z M568.465,89.906l0.287,2.042l11.569-1.626l-0.287-2.042L568.465,89.906z M572.874,138.159l-1.695-12.069
	c-0.082,0.264-0.233,0.633-0.461,1.106c-0.388,1.001-0.694,1.74-0.922,2.212c-0.102-0.301-0.253-0.753-0.455-1.356
	c-0.251-0.533-0.428-0.949-0.528-1.251c1.341-3.407,2.23-7.097,2.671-11.073l2.063,0.278c-0.257,1.929-0.609,3.81-1.057,5.639
	l2.283,16.247L572.874,138.159z M568.961,93.434l0.3,2.135l11.569-1.626l-0.3-2.135L568.961,93.434z M569.47,97.055l0.3,2.135
	l11.569-1.626l-0.3-2.135L569.47,97.055z M569.979,100.675l0.301,2.135l11.568-1.626l-0.3-2.135L569.979,100.675z M590.951,133.346
	c-0.268,0.606-0.464,1.296-0.589,2.071c-3.745,0.084-6.675-0.293-8.788-1.132c-1.014,1.151-2.613,2.292-4.803,3.42
	c-0.357-0.456-0.847-1.017-1.47-1.687c2.265-1.014,3.731-1.85,4.401-2.512c-1.052-0.799-2.034-1.733-2.947-2.804l1.225-1.309
	c0.913,1.071,1.884,1.913,2.909,2.526c0.443-1.009,0.653-2.237,0.626-3.686l-5.438,0.764l-0.952-6.777l5.525-0.777l-0.313-2.228
	l-6.217,0.874l-0.261-1.856l6.216-0.874l-0.292-2.704l1.985-0.279l0.378,2.692l6.391-0.898l0.261,1.857l-6.476,0.91l0.312,2.228
	l5.611-0.789l1.031,7.334l-1.899,0.267l-0.078-0.557l-3.886,0.546c0.123,2.129-0.12,3.742-0.729,4.836
	C584.182,133.414,586.938,133.594,590.951,133.346L590.951,133.346z M581.355,126.458c-0.054-0.371-0.109-0.773-0.171-1.207
	l-0.3-2.135l-3.627,0.509l0.47,3.342L581.355,126.458z M586.202,107.105c-1.938-0.423-4.593-0.933-7.964-1.532l0.668-1.514
	c0.841,0.135,2.097,0.306,3.77,0.511c1.911,0.236,3.26,0.425,4.042,0.568L586.202,107.105z M583.185,125.065
	c0.053,0.372,0.104,0.743,0.156,1.114l3.713-0.522l-0.47-3.342l-3.713,0.521L583.185,125.065z"/>
</svg>
