<svg xmlns="http://www.w3.org/2000/svg" width="640" height="640" viewBox="0 0 640 640"><path fill="#A1679C" stroke="#F6C0F1" stroke-miterlimit="10" d="M-1 108.5l644-93v149l-644 91z"/><path fill="#B77DAF" d="M120.218 237.692l-121.218 17.391v-146.083l265.834-38.333z"/><path fill="#B478AD" d="M514.095 182.125l88.949-160.313 40.504-5.895 1.002 147.914zM-1 109v146.083l173.215-24.581-118.055-129.419z"/><path fill="#B77DAF" d="M559 28.333l84.548-12.416 1.002 114.416"/><path fill="#fff" d="M43.61 136.732c-1.059-.923-2.072-1.728-3.039-2.413l1.085-1.572c1.023.677 2.061 1.447 3.112 2.308l-1.158 1.677zm.434 6.187c-.123-.045-.287-.18-.492-.404-1.221-.837-2.156-1.496-2.803-1.973l.987-1.654c1.269.769 2.396 1.557 3.381 2.365l-1.073 1.666zm1.712 2.884c-.306 3.2-.544 6.041-.718 8.527l-1.885-.398c.353-3.269.564-6.105.632-8.515.244.093.783.207 1.616.341-.652-.097-.533-.082.355.045zm-.682-7.951l-.274-1.949 3.331-.468c-.398-.764-.876-1.896-1.435-3.396l1.84-.542c.108.364.329.9.662 1.611.349.836.62 1.522.813 2.063l-.085.012 2.135-.3.274 1.95-4.015.564.384 3.354 3.844-.541c.122.868.275 2.171.462 3.911.317 2.67.529 4.597.638 5.78.252 1.794-.419 2.804-2.013 3.028-.504.133-1.041.241-1.61.321l-.615-1.901 1.281-.18c.976-.075 1.371-.571 1.184-1.492-.052-.372-.107-.963-.163-1.776-.252-2.616-.456-4.48-.612-5.595l-2.221.313.065.464c.521 4.535.167 8.213-1.062 11.037l-1.648-1.188c1.145-2.18 1.474-5.414.988-9.701-.112-1.625-.316-3.49-.612-5.594l-1.536.215zm4.713 39.683c-.098 1.781-.538 3.609-1.319 5.487-.188-.101-.508-.307-.958-.623-.451-.315-.77-.523-.958-.623.71-1.551 1.104-3.09 1.181-4.616.093-1.4-.078-3.648-.513-6.744l-1.161-8.263 18.449-2.593.287 2.042-16.399 2.305.848 6.035c.468 3.343.65 5.874.543 7.593zm2.671 27.093c-.561.143-1.089.312-1.584.507l-.773-1.785c.412-.373.865-1.068 1.362-2.084.522-.831 1.017-1.847 1.488-3.049-1.302.247-2.427.5-3.377.759l-.774-1.786c.403-.436.752-1.053 1.046-1.851.948-2.342 1.643-4.428 2.082-6.257l2.141.362c-1.186 3.134-2.207 5.581-3.062 7.341l2.72-.477c.136-.271.283-.67.441-1.198.215-.535.361-.934.441-1.198l1.898.491c-1.261 3.017-2.527 5.784-3.798 8.297l3.962-.936.026.186c-.045.512-.023 1.077.064 1.695-.732.167-1.687.395-2.865.687-.673.158-1.153.256-1.438.296zm-2.158-35.212l-.287-2.042 15.289-2.149.287 2.042-6.064.853 1.357 9.655c.334 1.972-.547 3.138-2.645 3.496-1.016.205-2.066.385-3.147.537-.31-.966-.553-1.659-.727-2.075l2.904-.408c1.204-.107 1.699-.712 1.486-1.818l-1.279-9.098-7.174 1.007zm6.175 39.003c-2.331.769-4.158 1.404-5.48 1.906l-.616-1.902c.389-.117 1.031-.301 1.925-.554 2.282-.7 4.032-1.261 5.25-1.685.029.627.093 1.281.188 1.961-.284.041-.707.131-1.267.274zm-2.474-62.828l-.261-1.856 3.502-.492-.183-1.3 1.941-2.924-4.783.672-.196-1.393-.467 1.013c-.46-.376-1.009-.772-1.647-1.188 1.079-2.235 1.826-4.769 2.241-7.605l2.003.002c-.202 1.039-.409 2.046-.62 3.022l5.381-.756.261 1.856-6.149.864c-.237.791-.532 1.589-.883 2.396l6.662-.937.274 1.95-2.145 3.331.104.743 3.246-.456.261 1.857-3.246.456.639 4.549c.291 1.664-.388 2.611-2.039 2.843-.79.173-1.524.309-2.208.405-.026-.186-.119-.426-.275-.719-.136-.549-.25-.944-.34-1.183l1.964-.276c.863-.059 1.208-.486 1.039-1.282l-.574-4.085-3.502.493zm15.613 48.485c-.264.605-.514 1.303-.751 2.094-2.881-1.489-5.158-3.441-6.833-5.856-.835 2.327-2.03 4.356-3.586 6.089l8.541-1.2.261 1.856-8.711 1.225-.248-1.764c-.396.498-.822.968-1.282 1.411-.521-.81-.926-1.416-1.214-1.817 2.528-2.249 4.251-5.078 5.165-8.489l2.004.002-.237.791c1.87 2.577 4.168 4.463 6.891 5.658zm-10.211 16.582l-1.344-9.562 10.506-1.477 1.344 9.562-1.879.264-.183-1.3-6.747.948.183 1.3-1.88.265zm.796-7.97l.652 4.642 6.748-.948-.652-4.642-6.748.948zm3.195-68.263l-.261-1.857 2.477-.348c.128-1.154.236-2.242.325-3.264l1.905-.079c-.005.379-.061 1.019-.167 1.917-.101.52-.164.907-.185 1.162l4.356-.612.261 1.856-4.869.685c-.398 2.959-.717 5.023-.958 6.193l2.477-.348-.64-4.549 1.623-.228.639 4.549 2.306-.324.261 1.856-2.306.324.417 2.971 2.51-.731c.047.751.11 1.405.188 1.962l-2.438.626.64 4.549-1.877.265-.613-4.363c-1.511.402-2.909.788-4.192 1.157l-.458-2.019c.397-.056 1.044-.209 1.938-.462 1.072-.212 1.89-.391 2.451-.534l-.444-3.156-3.929.552-.261-1.857.139-.872c.246-1.549.462-3.315.649-5.298l-1.964.277zm9.892 38.005c.25 2.616-.184 5.105-1.302 7.473-.63-.354-1.285-.671-1.963-.955.692-1.676 1.086-3.213 1.18-4.616.093-1.4-.064-3.556-.473-6.466l-1.279-9.098 17.338-2.437 2.492 17.732c.392 1.964-.409 3.087-2.401 3.367l-2.733.384c-.144-.611-.358-1.308-.642-2.087l1.11-.156c.521-.011.923-.035 1.209-.075 1.089-.091 1.541-.595 1.354-1.516l-.483-3.435-5.722.804.926 6.591-2.05.288-.926-6.591-5.635.793zm.443 20.315c-.465.823-.963 1.619-1.494 2.387-.158-.292-.418-.698-.78-1.215-.214-.285-.364-.517-.446-.695 1.697-2.383 2.913-4.89 3.646-7.518l1.983.479c-.404 1.256-.874 2.458-1.409 3.606l1.357 9.655-1.879.264-.978-6.963zm10.746-58.916c-.176.404-.422 1.133-.738 2.187-2.587-1.466-4.681-3.349-6.281-5.649-1.036 2.545-2.611 4.975-4.724 7.291-.149-.23-.471-.659-.964-1.285-.197-.162-.333-.299-.407-.416 2.551-2.503 4.212-5.357 4.981-8.558l2.089-.009-.297.988c1.75 2.532 3.863 4.349 6.341 5.451zm-12.688 26.693l.561 3.992 5.466-.768-.561-3.992-5.466.768zm1.005 7.149l.392 2.785 5.466-.769-.561-3.992-5.466.768.169 1.208zm3.518 33.516c-.414 2.015-.878 3.879-1.392 5.592l-1.911-.583c.628-1.729 1.072-3.526 1.332-5.394l1.971.385zm2.56-52.085c-1.994.28-3.137-.633-3.433-2.737l-1.331-9.469 1.879-.264.574 4.085c1.674-1.308 3.231-2.821 4.675-4.539l1.431 1.503c-1.872 1.967-3.803 3.722-5.792 5.264l.378 2.692c.099 1.122.743 1.567 1.93 1.338l1.964-.276c1.138-.16 1.69-.773 1.657-1.842.032-1.013-.003-2.083-.102-3.205.718.152 1.375.28 1.97.386.047 1.572.016 2.807-.089 3.705.007 1.703-.958 2.69-2.894 2.962l-2.817.397zm1.425 40.165c-.422 1.133-.981 2.315-1.679 3.549-.132-.107-.353-.234-.663-.38-.451-.315-.804-.55-1.057-.704 1.228-2.002 2.165-4.217 2.812-6.643l2.017.095-.356 1.186c-.176.403-.28.702-.31.896l9.31-1.309.274 1.95-.791 3.046c-.312-.146-.851-.259-1.616-.341-.124-.045-.213-.065-.27-.057l.699-2.465-8.37 1.177zm.745 17.693c-1.823.256-2.864-.544-3.125-2.401l-.548-3.899 1.964-.276.47 3.342c.13.929.679 1.325 1.647 1.188l3.587-.504c1.269-.053 1.887-.611 1.854-1.681.084-.642.102-1.34.055-2.09.245.093.637.194 1.176.308l.808.17c.012.504-.03 1.235-.127 2.195-.04.133-.055.229-.046.291-.124 1.594-1.102 2.489-2.932 2.684l-4.783.673zm1.157-14.079c-1.067 1.917-2.13 3.645-3.191 5.182-.526-.431-1.07-.796-1.635-1.096.982-1.274 1.997-2.931 3.046-4.972l1.78.886zm2.828-34.219l-5.723.804.561 3.992 5.723-.804-.561-3.992zm-4.887 6.746l.561 3.992 5.722-.804-.561-3.992-5.722.804zm3.724 37.463c-.897-1.01-1.903-1.972-3.019-2.889l1.295-1.318c1.041.801 2.096 1.694 3.164 2.68l-1.44 1.527zm.057-4.552l-1.965.276c-.193-.541-.421-1.139-.688-1.796.407.006.981-.043 1.722-.147.91-.128 1.281-.59 1.111-1.387l-.718-5.106 1.879-.264.756 5.384c.301 1.725-.397 2.739-2.097 3.04zm4.919-67.376c-.465.823-1.049 1.631-1.75 2.423-.232-.408-.574-.771-1.024-1.087 1.153-1.298 1.967-2.738 2.441-4.319l1.504.167-.178.593c-.127.334-.211.567-.25.698l1.623-.228-.522-3.714 1.623-.228.156 1.114 3.417-.48.183 1.3-3.417.48.183 1.299 2.819-.396.222 1.578c-1.672 2.571-4.343 4.84-8.015 6.807-.083-.177-.265-.436-.544-.775-.223-.347-.4-.574-.531-.683 1.314-.563 2.449-1.164 3.405-1.804l-1.576-1.293.908-.979c.31.146.724.404 1.241.772.319.208.573.361.762.461.832-.685 1.62-1.49 2.36-2.415l-5.04.709zm2.125 65.439c-.394-.323-.957-.812-1.687-1.467-1.068-.986-1.93-1.748-2.586-2.287l1.197-1.399c1.443 1.186 2.92 2.398 4.431 3.637l-1.355 1.516zm14.946-63.578c-1.432-.682-2.797-1.311-4.097-1.885-.851.562-1.838 1.174-2.964 1.836 2.481 1.545 5.492 2.511 9.03 2.896-.04.133-.123.365-.25.698l-.356 1.186-2.167-.547c-.483-.122-.842-.197-1.077-.227l.652 4.642c.315-.233.574-.459.776-.677l1.194 1.063c-1.091.911-2.046 1.551-2.866 1.917l4 .574-.658 1.512c-.359-.076-.865-.162-1.517-.26-3.329-.542-5.853-.945-7.573-1.208-.005.379.032.848.11 1.405-1.389.447-3.021 1.024-4.896 1.729-.106.077-.296.167-.572.27-.269.164-.458.254-.572.27l-.964-1.284c.345-.427.48-.919.402-1.477l-.874-6.22c-.784.616-1.607 1.172-2.465 1.672-.066-.053-.141-.17-.223-.348-.42-.509-.737-.905-.952-1.191 3.996-2.139 7.044-4.619 9.145-7.439l1.478-.019-.111-.173c.105-.077.295-.167.572-.27.591-.334 1.235-.709 1.933-1.124l-1.399-.655c-.613-.229-1.075-.417-1.385-.563l.855-1.351 3.336 1.424c.67-.598 1.334-1.449 1.993-2.552l-6.15.864-.222-1.579 8.029-1.128.235 1.671c-.825 1.568-1.569 2.682-2.23 3.343l3.618 1.574-.818 1.631zm-13.843 70.807c-1.054-1.303-2.33-2.733-3.826-4.291l1.381-1.33c1.487 1.495 2.823 2.949 4.009 4.359l-1.564 1.262zm10.252-66.611l-9.908 1.393.183 1.3 9.907-1.393-.182-1.3zm-7.562 33.177c-.014.318-.036.573-.066.767-.67-.221-1.389-.373-2.154-.455.418-2.393.798-5.476 1.139-9.249l2.056.374c-.148 1.852-.472 4.706-.975 8.563zm-1.836-28.163l9.907-1.393-.183-1.299-9.908 1.392.184 1.3zm8.847 1.596l.947-.701c.307-.295.832-.685 1.578-1.168l-11.188 1.572.326 2.321c1.379-.51 2.687-.915 3.923-1.214l-1.163-.215.514-1.303 5.063.708zm-4.025-8.806c.074.117.166.355.275.719.166.355.262.626.288.812l3.246-.456c-1.603-.658-3.145-1.514-4.628-2.568-.975 1.336-2.164 2.576-3.571 3.721l3.331-.468c-.009-.061-.051-.15-.125-.267-.026-.186-.164-.545-.413-1.078l1.597-.415zm-1.242 70.357l-2.557-18.196 2.306-.324c.021-.254.059-.607.113-1.057.131-.712.205-1.639.219-2.776l2.188.071c-.129 1.154-.285 2.312-.47 3.474l3.844-.541 2.531 18.011-1.879.264-.248-1.764-4.355.612.274 1.95-1.966.276zm-.305-16.43l.718 5.106 4.356-.612-.718-5.106-4.356.612zm6.091-13.932c-2.27.381-3.549-.67-3.84-3.153l-1.839-13.09 2.05-.288 1.774 12.626c.143 1.433.864 2.025 2.166 1.778l3.075-.432c1.367-.192 2.019-.914 1.96-2.169l.008-1.8c-.031-.626-.039-1.098-.025-1.417.718.152 1.468.331 2.252.535.004.442-.003 1.011-.021 1.707.007.884-.015 1.549-.068 1.998-.147 1.851-1.278 2.893-3.393 3.128l-4.099.577zm-5.086 21.081l.744 5.292 4.356-.612-.744-5.292-4.356.612zm.604-63.735c.188.101.381.23.578.392-.066-.053-.141-.17-.223-.348l-.295-.242-.06.198zm5.876 27.784c-1.299-1.394-3.045-3.075-5.237-5.039l1.243-1.689c1.903 1.564 3.669 3.177 5.296 4.841l-1.302 1.887zm7.912 42.922l-3.587.504c-.153-.674-.4-1.396-.74-2.168.748-.043 1.863-.167 3.344-.375 1.611-.101 2.3-.986 2.065-2.657-.078-1.376-.401-4.298-.97-8.762-.127-1.308-.228-2.24-.306-2.797l-5.125.72c-.15.589-.407 1.446-.771 2.57l-.356 1.186c-.565-.299-1.187-.59-1.865-.874.993-2.852 1.663-5.725 2.012-8.614l2.03.188c-.063.388-.159.938-.291 1.65l-.278 1.743 6.32-.888c.557 3.961 1.095 8.619 1.616 13.974.375 2.659-.659 4.193-3.098 4.6zm-2.523-6.178c-.347-.392-.865-.982-1.555-1.77-.981-1.188-1.746-2.089-2.296-2.707l1.38-1.33c.485.563 1.205 1.346 2.159 2.348.814.832 1.431 1.503 1.851 2.012l-1.539 1.447zm2.336-29.498c-.77-1.343-2.076-3.401-3.916-6.171-.364-.517-.619-.891-.767-1.123l1.735-1.285c.362.517.879 1.296 1.548 2.338 1.535 2.246 2.604 3.863 3.208 4.851l-1.808 1.39zm.545-39.576c-.317 1.875-.806 3.774-1.464 5.696l-1.358-1.608c.909-3.03 1.44-6.072 1.592-9.123l1.918.014c-.071 1.146-.184 2.204-.338 3.172l4.185-.588.248 1.764-.819 4.091c-.057.008-.175-.006-.354-.045-.359-.075-.833-.134-1.419-.179l.884-3.627-3.075.433zm2.79 15.512c-.202.218-.379.4-.533.548l-1.417-1.41c.394-.496.535-1.147.422-1.953l-1.344-9.563 1.879-.264 1.357 9.655 1.38-1.33c.614-.591 1.049-1 1.309-1.225.1.302.218.727.354 1.275.174.418.275.719.301.904-1.035.903-2.097 1.81-3.188 2.721-.098.141-.271.355-.52.642zm-.035 11.573l-.235-1.671 8.883-1.249-.747-1.599 2.28-.51c.249.533.507 1.128.773 1.785l8.712-1.225.235 1.671-19.901 2.798zm4.026 44.802l-2.44-17.36 5.808-.816 2.192 15.597-4.014.564.248 1.764-1.794.251zm6.742-32.02c-.789.175-1.951.369-3.489.585-.043-.309-.198-.792-.465-1.449.231.41.189.321-.125-.267.692-.034 1.692-.143 3.002-.327 1.025-.144 1.451-.614 1.282-1.411l-.157-1.114 4.417-2.041-13.068 1.836-.235-1.671 16.741-2.353.261 1.857-6.033 2.931.104.743c.274 1.54-.471 2.433-2.235 2.681zm-6.068 4.545c-.207.597-.35 1.027-.428 1.291-.124-.046-.303-.084-.539-.114-.604-.168-1.054-.263-1.346-.284.701-1.613 1.223-3.074 1.561-4.385l1.944.2c-.237.791-.636 1.888-1.192 3.292zm8.67-41.85c-.312-.146-.851-.259-1.616-.341-.124-.044-.213-.064-.27-.057l1.075-4.127-6.833.96c-.225 1.295-.669 3.092-1.333 5.394-.508-.307-1.154-.563-1.937-.769 1.088-2.993 1.764-6.243 2.026-9.752l2.017.095c-.089 1.023-.21 2.018-.364 2.986l8.028-1.128.287 2.042-1.08 4.697zm-10.182 29.85l-.6-4.271 15.032-2.113.6 4.271-15.032 2.113zm6.045-25.198c-.184 3.245-1.838 6.349-4.962 9.313-.141-.169-.411-.448-.813-.832-.403-.386-.674-.663-.814-.833 3.396-2.686 5.069-6.076 5.016-10.172-.069-1.316-.216-2.777-.442-4.388l1.964-.276c.052.372.105.964.163 1.776l.183 1.3c1.4 4.6 3.896 7.688 7.486 9.267-.417.752-.782 1.466-1.092 2.142-3.163-1.828-5.391-4.26-6.689-7.297zm-5.579 49.01l1.631 11.605 2.306-.324-1.631-11.604-2.306.323zm1.094-26.967l.208 1.486 11.189-1.573-.209-1.485-11.188 1.572zm4.524 15.459c-.434-1.013-.964-2.105-1.593-3.279l1.741-.624c.166.355.402.795.708 1.321.463.818.786 1.466.971 1.946l-1.827.636zm.083 12.411l-.274-1.949 4.356-.612-.522-3.713 1.965-.276.521 3.713 4.612-.648.274 1.95-4.612.648.482 3.435 5.552-.78.261 1.857-4.868.684c1.604 2.742 3.827 4.922 6.668 6.542l-1.033 1.944c-2.688-1.767-4.707-3.945-6.057-6.533l1.318 9.377-1.964.276-1.318-9.376c-.752 3.324-2.214 6.149-4.383 8.474-.543-.555-1.105-1.043-1.687-1.467 2.52-2.31 4.229-5.233 5.126-8.768l-4.441.624-.261-1.856 5.125-.72-.483-3.435-4.357.609zm5.37-13.272c-.788-1.468-1.437-2.575-1.948-3.324l1.656-.612c.643.856 1.344 1.925 2.105 3.207l-1.813.729zm6.561-37.484c.444 3.156.259 5.77-.553 7.84-.591-.485-1.145-.913-1.661-1.281.429-1.07.648-2.205.654-3.405.023-1.076-.148-2.914-.514-5.513l-1.527-10.862 6.235-.876 2.583 18.382c.256 1.415-.293 2.25-1.651 2.504-.562.141-1.24.269-2.037.381-.104-.743-.281-1.38-.53-1.914.293.021.81-.019 1.551-.123.683-.096.977-.485.881-1.165l-.613-4.364-2.818.396zm-.655 36.749c-.875-1.266-1.834-2.519-2.88-3.761l1.715-.81c1.045 1.242 2.029 2.46 2.953 3.656l-1.788.915zm-.903-48.458l.574 4.084 2.733-.384-.574-4.085-2.733.385zm1.331 9.469l.065.464 2.733-.384-.574-4.085-2.733.384.509 3.621zm2.216 48.29l-.222-1.578 5.637-.792-.195-1.393 1.879-.264.196 1.393 5.295-.745-.196-1.393 1.964-.276.196 1.393 5.637-.792.222 1.579-5.637.792.196 1.393-1.964.276-.196-1.393-5.295.745.183 1.3-1.879.264-.183-1.299-5.638.79zm5.249-13.348c-.289.419-.551.835-.783 1.246l-1.378-1.132c.328-.55.437-1.229.324-2.033l-1.122-7.984-1.879.264-.287-2.042 3.758-.528 1.278 9.098c.096-.14.26-.416.494-.827.311-.674.563-1.151.757-1.432.227.789.469 1.481.727 2.075-.185.343-.485.889-.901 1.642-.426.691-.755 1.242-.988 1.653zm-1.786-13.95c-1.178-1.349-2.271-2.521-3.281-3.515l1.381-1.33c.131.109.332.301.604.578 1.338 1.264 2.283 2.204 2.835 2.82l-1.539 1.447zm7.282 36.201l-.652-4.642-6.918.973.404 2.878-1.879.264-.587-4.178 8.797-1.236-.196-1.393-7.772 1.092-.196-1.393 17.338-2.437.196 1.393-7.687 1.081.196 1.393 8.712-1.225.587 4.178-1.879.264-.404-2.878-6.833.96.652 4.642-1.879.264zm5.229-50.472c-.089.202-.152.368-.191.5-1.839-.688-3.37-1.452-4.59-2.29-.79.994-1.823 2.117-3.097 3.37l-1.148-1.354.248 1.764-1.793.252-2.949-20.981 9.993-1.405c.218 1.548.354 2.729.411 3.54.221 1.989-.641 3.088-2.585 3.298l-2.818.396-.577-1.623 2.477-.348c1.205-.106 1.737-.654 1.598-1.645.004-.379-.036-.878-.123-1.497l-6.321.888.888 6.313 8.456-1.188.274 1.95c-.384 2.643-1.004 4.844-1.859 6.604 1.173.909 2.6 1.561 4.281 1.955l-.575 1.501zm-11.309 60.51l-1.148-8.17 16.57-2.329 1.148 8.17-1.879.264-.13-.928-12.727 1.789.131.928-1.965.276zm-.067-11.635l-.144-1.021 4.612-.648.144 1.021-4.612.648zm.3 2.135l-.144-1.021 4.612-.648.144 1.021-4.612.648zm1.997-51.154c1.262-.935 2.226-1.922 2.894-2.963-1.225-1.279-2.357-3.139-3.397-5.582l.875-.596-1.623.228 1.251 8.913zm-1.218 53.601l.235 1.671 5.466-.768-.235-1.671-5.466.768zm3.818-27.253c-.094 1.402-.511 2.974-1.252 4.72l-1.95-.862c.833-1.506 1.305-2.896 1.417-4.175.11-1.277-.012-3.185-.369-5.723l-1.461-10.398 13.153-1.849 2.544 18.104c.299 1.724-.371 2.734-2.013 3.028l-2.733.384-.714-1.982c.919-.067 1.721-.147 2.405-.243.976-.075 1.375-.541 1.197-1.399l-2.231-15.875-9.566 1.344 1.2 8.541c.39 2.785.515 4.914.373 6.385zm-3.413 30.131l.209 1.485 5.466-.768-.209-1.486-5.466.769zm4.693-61.095c.728-1.428 1.238-3.171 1.529-5.232l-4.356.612c.865 2.024 1.808 3.565 2.827 4.62zm-.888 20.117l-.235-1.671 2.563-.36-.261-1.856 1.708-.24.261 1.856 2.562-.36.235 1.671-2.562.36.287 2.042 3.075-.432.235 1.671-7.858 1.104-.235-1.671 3.075-.432-.287-2.042-2.563.36zm1.815 11.673l-.861-6.127 6.406-.9.861 6.127-6.406.9zm.996-4.684l.392 2.785 3.075-.432-.392-2.785-3.075.432zm5.705 29.322l-5.466.768.235 1.671 5.466-.769-.235-1.67zm-4.923-4.042l-.144-1.021 4.527-.636.144 1.021-4.527.636zm-.138 7.688l.208 1.485 5.466-.768-.208-1.485-5.466.768zm.439-5.552l-.144-1.021 4.527-.636.143 1.021-4.526.636zm13.809-63.701c-2.292 1.458-5.444 2.786-9.457 3.98-.075-.115-.227-.378-.459-.788-.289-.4-.508-.717-.656-.949 3.793-1.101 6.548-2.151 8.267-3.15-1.629-.844-2.981-1.79-4.057-2.838-.772 1.119-1.69 2.226-2.756 3.322-.42-.509-.95-.97-1.588-1.386 2.253-2.146 4.011-4.507 5.275-7.084l2.273.06c-.378.621-.702 1.204-.974 1.746l10.676-1.5.274 1.95c-1.4 2.028-2.96 3.729-4.682 5.107 2.154.455 4.842.583 8.066.381-.229.853-.389 1.569-.482 2.15-4.291.034-7.531-.299-9.72-1.001zm5.152 11.867c-.79.173-1.952.369-3.489.585-.026-.186-.131-.519-.314-.997-.127-.488-.237-.852-.328-1.09l3.587-.504c1.506-.022 2.179-.811 2.019-2.367l-.183-1.3c-.04-.688-.075-1.156-.11-1.404l-6.748.948c.014 3.406-2.314 6.257-6.984 8.555-.364-.517-.857-1.143-1.483-1.874 4.17-1.722 6.281-3.849 6.332-6.381l-5.722.804-.261-1.857 6.064-.852c.018-.696-.001-1.451-.057-2.264l2.05-.288c.056.813.075 1.568.057 2.264l8.712-1.225c.029.627.103 1.564.221 2.809.007.884.038 1.509.09 1.881.447 2.778-.703 4.296-3.453 4.557zm-10.206 41.994l-.248-1.764 4.014-.564-.365-2.6 1.879-.264.365 2.6 3.502-.492-.378-2.692 1.794-.252.378 2.692 3.587-.504-.365-2.599 1.879-.264.365 2.599 3.929-.552.248 1.764-3.929.552.339 2.414-1.879.264-.339-2.414-3.587.504.339 2.414-1.793.252-.339-2.414-3.502.492.339 2.414-1.879.264-.339-2.414-4.015.564zm4.839-56.009c1.587-1.106 3.072-2.514 4.458-4.224l-9.31 1.308c1.461 1.31 3.078 2.282 4.852 2.916zm-4.132 27.301l-.261-1.857 5.979-.84c-.599-.546-1.344-1.293-2.231-2.242l1.874-.926c1.002.933 1.88 1.819 2.638 2.659l-.487.258 4.356-.612c.426-.69 1.03-1.754 1.816-3.19.047-.069.068-.135.059-.198l2.128.269c-.136.272-.37.684-.698 1.234l-.829 1.537 5.894-.828.261 1.857-20.499 2.879zm1.046 36.224l-.587-4.178 19.303-2.713.587 4.178-1.964.276-.326-2.321-15.374 2.161.326 2.321-1.965.276zm2.662-19.137l-2.127-15.132 9.139-1.284 1.722 12.254c.34 1.593-.316 2.506-1.967 2.738-.448.125-1.297.277-2.549.453-.092-.24-.206-.634-.34-1.183-.158-.294-.249-.533-.275-.719l2.221-.312c.863-.059 1.217-.424 1.065-1.096l-.274-1.95-5.466.768.73 5.199-1.879.264zm.562 27.205l-1.096-7.798 6.577-.924-.287-2.042 2.05-.288.287 2.042 6.662-.937.718 5.106c.291 1.664-.388 2.611-2.039 2.843-.448.125-1.268.273-2.464.441-.101-.302-.234-.629-.4-.985-.101-.301-.193-.541-.275-.719.521-.01 1.237-.079 2.148-.208.863-.058 1.204-.515 1.026-1.375l-.431-3.063-4.698.66 1.096 7.798-2.05.288-1.096-7.798-4.612.648.848 6.034-1.964.277zm-.549-40.745l.326 2.321 5.466-.768-.326-2.321-5.466.768zm.561 3.992l.339 2.414 5.466-.768-.339-2.414-5.466.768zm10.33 3.471l-1.436-10.212 1.794-.252 1.435 10.212-1.793.252zm4.233 3.476c-.96.197-1.923.365-2.891.501l-.642-2.087c.521-.011 1.322-.091 2.404-.243 1.147-.099 1.618-.668 1.414-1.713l-1.657-11.791 1.879-.264 1.722 12.255c.393 1.963-.349 3.078-2.229 3.342zm17.417-43.558c-4.658-1.743-8.066-3.884-10.222-6.421-1.909 3.362-4.67 6.432-8.286 9.212-.569-.74-1.059-1.333-1.47-1.782 4.111-2.976 6.965-6.217 8.563-9.724l2.345-.046-.25.698c2.581 2.667 5.962 4.622 10.144 5.864l-.824 2.199zm-15.493 2.556l-.287-2.042 12.641-1.777.287 2.042-5.295.745.457 3.249 6.577-.924.287 2.042-6.577.924.509 3.621 8.456-1.188.261 1.857-19.046 2.677-.261-1.857 8.456-1.188-.509-3.62-6.577.924-.287-2.042 6.577-.924-.457-3.25-5.212.731zm2.367 52.341l-.274-1.95 7.943-1.116-.417-2.971 2.05-.288.417 2.971 7.943-1.116.274 1.95-7.943 1.116.822 5.849 9.054-1.272.274 1.95-8.2 1.152c2.463 2.243 5.556 3.796 9.278 4.661-.08.264-.235.601-.467 1.012-.167.464-.318.833-.455 1.105-3.993-1.143-6.989-2.835-8.988-5.08l1.109 7.891-2.05.288-1.122-7.984c-1.563 2.934-4.015 5.52-7.358 7.756-.298-.464-.78-.996-1.444-1.596 3.247-2.097 5.798-4.602 7.654-7.514l-8.114 1.141-.274-1.95 9.054-1.272-.822-5.849-7.944 1.116zm.024-30.314l-.248-1.764 5.637-.792-.274-1.95 1.964-.276.274 1.95 5.21-.732-.274-1.95 1.879-.264.274 1.949 5.723-.804.248 1.764-5.723.804.157 1.114-1.879.264-.157-1.114-5.21.732.183 1.3-1.964.276-.183-1.3-5.637.793zm19.385.968c-6.268 1.26-12.045 2.293-17.332 3.099l-.688-1.797c6.149-.864 11.931-1.866 17.345-3.005l.675 1.703zm-17.57 10.706l-.261-1.856 9.054-1.272-.209-1.485 1.964-.276.209 1.486 9.139-1.285.261 1.857-7.943 1.116c2.262 1.639 5.187 2.617 8.773 2.933-.057.008-.081.042-.072.104-.343.868-.569 1.531-.679 1.989-4.111-.748-7.141-2.057-9.088-3.93l.822 5.849-1.964.276-.822-5.849c-1.412 2.345-3.927 4.496-7.541 6.456-.132-.108-.304-.305-.519-.59-.364-.517-.647-.888-.853-1.111 3.277-1.47 5.776-3.304 7.5-5.504l-7.771 1.092zm3.09 23.344c-.477-.501-1.216-1.217-2.218-2.15-.468-.438-.805-.77-1.011-.994l1.368-1.423c.656.54 1.593 1.418 2.809 2.635-.805-.77-.669-.63.407.417l-1.355 1.515zm.52-26.786c-.717-.972-1.516-1.901-2.395-2.788l1.578-1.168.925 1.006c.682.725 1.195 1.285 1.542 1.677l-1.65 1.273zm5.52-1.628c-.53-.872-1.181-1.79-1.955-2.755l1.689-.995c.279.34.675.884 1.187 1.632.354.456.605.8.755 1.03l-1.676 1.088zm5.632 23.46c-.996 1.592-1.832 2.877-2.507 3.855l-1.562-1.201c.981-1.274 1.813-2.589 2.493-3.948l1.72 1.083-.144.211zm2.129-27.107c-.842 1.444-1.678 2.73-2.507 3.855l-1.707-.991c.877-1.196 1.688-2.446 2.435-3.75l1.779.886zm-3.174-34.888l-.261-1.857 20.242-2.845.261 1.856-9.395 1.32-.535 3.01 9.224-1.296 2.283 16.247-1.879.264-.208-1.485-14.264 2.004.196 1.393-1.965.276-2.27-16.154 6.748-.948.364-2.986-8.541 1.201zm3.654 4.315l1.579 11.233 3.075-.432-1.579-11.233-3.075.432zm2.658 60.827l-.222-1.579 20.669-2.905.222 1.578-10.761 1.513 1.096 7.798c.162-.085.414-.153.756-.201.333-.109.584-.177.755-.201l.209 1.485-1.524.309.313 2.228-1.793.252-.287-2.042c-3.031.741-5.58 1.414-7.642 2.021l-.478-1.542 1.853-.45-1.2-8.541-1.966.277zm2.401-3.367l-.965-6.87 15.032-2.113.965 6.87-15.032 2.113zm-.105-58.157l.378 2.692 4.356-.612-.378-2.692-4.356.612zm.6 4.271l.378 2.692 4.356-.612-.378-2.692-4.356.612zm.613 4.363l.365 2.6 4.356-.612-.365-2.6-4.356.612zm.087 43.769l.208 1.485 11.104-1.561-.209-1.485-11.103 1.561zm.162 8.592l.261 1.857 4.356-.612-.261-1.857-4.356.612zm.216-5.9l.196 1.393 11.104-1.561-.196-1.393-11.104 1.561zm.228 9.057l.248 1.764 4.356-.612-.248-1.764-4.356.612zm.743 5.292c.504-.133 1.23-.33 2.182-.591.959-.197 1.661-.359 2.109-.485l-.235-1.671-4.356.612.3 2.135zm.766-32.32l1.125-1.294 5.185 4.668-1.184 1.492-5.126-4.866zm5.895-38.432l-3.16.444 1.579 11.233 3.16-.444-1.579-11.233zm9.939 70.501c-.071.325-.126.553-.165.686-1.861-.434-3.426-1.033-4.695-1.802-1 1.149-2.241 2.24-3.721 3.269-.066-.054-.141-.169-.223-.347-.42-.509-.737-.907-.951-1.192 1.45-.835 2.611-1.66 3.484-2.478-1.248-1.023-2.343-2.416-3.287-4.177l.401-.246-1.025.144-.222-1.578 8.37-1.176.235 1.671c-.511 2.155-1.18 3.796-2.008 4.921 1.177.53 2.565.901 4.164 1.119l-.357 1.186zm-5.245-3.239c.715-1.109 1.261-2.386 1.639-3.828l-4.356.612c.818 1.275 1.724 2.347 2.717 3.216zm5.12-72.334c-1.187.23-2.508.542-3.962.936-.008-.061-.055-.181-.137-.359-.17-.795-.339-1.372-.504-1.728 4.121-.831 7.742-1.718 10.861-2.663l.714 1.982c-.277.103-.666.221-1.17.354-1.511.402-2.661.691-3.45.864l.822 5.849 6.491-.912-1.357-9.655 2.135-.3 1.357 9.655 4.612-.648.287 2.042-4.612.648 1.435 10.212-2.135.3-1.435-10.212-6.491.912c.823 4.618-.509 8.37-3.992 11.259-.271-.278-.867-.794-1.785-1.548 3.049-2.258 4.264-5.395 3.642-9.411l-5.125.72-.287-2.042 5.125-.72-.783-5.57-.256.035zm8.664 72.854c-.206-.224-.495-.625-.866-1.204-.744-1.158-1.329-2.022-1.758-2.593-.41 1.636-1.307 3.719-2.693 6.248-.446-.695-.879-1.296-1.299-1.806 1.268-2.134 2.123-4.306 2.568-6.515-1.453-2.068-2.83-4.019-4.133-5.856l1.394-1.237 3.155 4.479c.243-1.99.276-4.235.099-6.736l-4.783.672-.274-1.95 6.748-.948.287 2.042c.057 3.717-.124 6.771-.541 9.165 1.732 2.407 2.928 4.102 3.588 5.081l-1.492 1.158zm.371-10.371c-.312.676-.584 1.218-.816 1.629-.193-.541-.573-1.181-1.141-1.922 1.487-3.049 2.456-6.277 2.906-9.686l2.017.095c-.208 1.418-.489 2.719-.845 3.905l4.015-.564c-.232-.408-.622-1.111-1.167-2.108-.315-.586-.547-.996-.695-1.228l1.813-.728c.786 1.468 1.412 2.61 1.875 3.429l-1.314.563 4.698-.66.248 1.764-4.015.564.444 3.157 3.758-.528.248 1.764-3.758.528.457 3.25 3.758-.528.248 1.764-3.758.528.47 3.342 4.271-.6.222 1.578-9.993 1.404.209 1.485-1.879.264-1.866-13.275c-.091.201-.227.473-.41.814zm.006-32.676l-.287-2.042 18.534-2.604.287 2.042-8.199 1.152.718 5.106 7.26-1.021.3 2.135-7.26 1.021.796 5.663 9.054-1.272.274 1.95-20.242 2.845-.274-1.95 9.053-1.272-.796-5.663-7.26 1.021-.3-2.135 7.26-1.021-.718-5.106-8.2 1.151zm1.851 28.533l.443 3.157 3.844-.54-.444-3.157-3.843.54zm.691 4.921l.457 3.25 3.844-.54-.457-3.25-3.844.54zm.705 5.013l.47 3.342 3.843-.54-.47-3.342-3.843.54zm5.322-41.944c-.341-.771-.957-1.854-1.849-3.243l2.057-.857c.537.935 1.154 2.016 1.85 3.243l-2.058.857zm6.89-19.17c-2.194.498-3.592.883-4.192 1.157l-.958-1.854c.372-.241.806-.871 1.303-1.887.521-.831.993-1.811 1.415-2.944-1.187.23-2.199.468-3.036.711l-.872-1.866c.289-.419.604-1.063.948-1.932.654-1.543 1.265-3.396 1.832-5.559l2.056.374c-.04.133-.127.334-.263.605-1.01 2.73-1.799 4.766-2.364 6.107l1.025-.144c.73-.165 1.239-.269 1.524-.309.399-.875.732-1.807 1.001-2.792l1.924.676c-.703 1.614-1.837 4.078-3.404 7.39-.225.474-.38.811-.467 1.012l3.792-.912c-.019.698.012 1.324.09 1.881-.341.048-.793.144-1.354.286zm1.81 4.194c-1.95.591-3.915 1.275-5.895 2.06l-.616-1.902c.551-.203 1.441-.486 2.668-.848 1.55-.533 2.74-.953 3.568-1.259l.275 1.949zm-3.643 44.39l-.274-1.95 9.737-1.368c-.472-.88-.965-1.694-1.476-2.444l2.155-.776c.585.864 1.147 1.765 1.686 2.698l-.572.27 8.883-1.248.274 1.949-15.544 2.185.6 4.271 13.836-1.945.274 1.95-15.801 2.221-.875-6.22-2.903.407zm5.037 8.57c-.283 2.123-.688 4.2-1.215 6.229-.556-.238-1.184-.369-1.885-.397.519-2.092.923-4.168 1.215-6.23l1.885.398zm7.312-54.846c-1.215 1.686-2.684 3.218-4.406 4.596-.7-.849-1.214-1.408-1.542-1.677 1.749-1.192 3.206-2.596 4.373-4.212-1.554-1.548-2.862-3.416-3.923-5.603.429 4.294-.33 8.188-2.278 11.681-.206-.224-.6-.547-1.182-.97l-.492-.404c1.153-2.118 1.848-4.204 2.082-6.257.234-2.052.082-4.997-.458-8.835l-.28-2.611-1.793.252-.274-1.95 10.591-1.488.3 2.135-1.364 4.547 3.502-.492.274 1.949c-.34 2.952-1.059 5.483-2.155 7.593 1.37 1.071 2.94 1.922 4.714 2.556-.312.674-.586 1.408-.823 2.199-1.95-1.052-3.571-2.055-4.866-3.009zm-6.005-12.978l.117.835c-.005.38.006.662.032.848 1.489 3.578 3.241 6.33 5.253 8.255.825-1.567 1.41-3.606 1.753-6.116l-3.502.492-.274-1.95 1.352-4.64-4.954.696.223 1.58zm3.863 74.86c-1.871.325-2.954-.564-3.25-2.667l-.756-5.385 1.964-.276.666 4.734c.108 1.185.756 1.66 1.943 1.431l3.417-.48c1.318-.123 1.94-.651 1.867-1.588-.018-.124-.011-.283.02-.476 0-.82-.001-1.451-.005-1.893l.808.17c.539.114.93.217 1.175.309-.005 1.2-.045 2.152-.121 2.857-.133 1.533-1.144 2.4-3.031 2.604l-4.697.66zm-1.792-47.106l-.248-1.764 5.637-.792-.274-1.95 1.964-.276.274 1.95 5.21-.732-.274-1.95 1.879-.264.274 1.949 5.723-.804.248 1.764-5.723.804.157 1.114-1.879.264-.157-1.114-5.21.732.183 1.3-1.964.276-.183-1.3-5.637.793zm4.478 41.427c-.552-.616-1.411-1.568-2.579-2.856-.272-.277-.473-.469-.604-.578l1.295-1.318c.467.44 1.208 1.156 2.218 2.15.476.501.846.86 1.109 1.075l-1.439 1.527zm14.906-40.459c-6.268 1.26-12.045 2.293-17.332 3.099l-.688-1.797c6.15-.864 11.932-1.866 17.346-3.005l.674 1.703zm-17.57 10.705l-.261-1.856 9.054-1.272-.209-1.485 1.964-.276.209 1.486 9.139-1.285.261 1.857-7.943 1.116c2.262 1.639 5.187 2.617 8.773 2.933-.057.008-.081.042-.072.104-.343.868-.569 1.531-.679 1.989-4.111-.748-7.141-2.057-9.088-3.93l.822 5.849-1.964.276-.822-5.849c-1.412 2.345-3.927 4.496-7.541 6.456-.132-.108-.304-.305-.519-.59-.364-.517-.647-.888-.853-1.111 3.277-1.47 5.776-3.304 7.5-5.504l-7.771 1.092zm3.61-3.442c-.717-.972-1.516-1.901-2.395-2.788l1.578-1.168.925 1.006c.682.725 1.195 1.285 1.542 1.677l-1.65 1.273zm7.059 35.006c-1.195-1.472-2.549-3.05-4.062-4.73l1.466-1.342c1.439 1.565 2.817 3.107 4.134 4.626l-1.538 1.446zm-1.539-36.633c-.53-.872-1.181-1.79-1.955-2.755l1.689-.995c.279.34.676.884 1.188 1.632.354.456.605.8.755 1.03l-1.677 1.088zm4.865-35.262c.546 4.72.938 8.326 1.172 10.817l-1.537.216c-.823-5.438-1.755-10.83-2.796-16.175l2.563-.36c.116 1.247.315 3.08.598 5.502zm2.897 31.615c-.842 1.444-1.678 2.73-2.507 3.855l-1.707-.991c.877-1.196 1.688-2.446 2.434-3.75l1.78.886zm-1.638 42.282l-2.557-18.196 2.306-.324c.021-.254.059-.607.113-1.057.131-.712.205-1.639.219-2.776l2.188.071c-.129 1.154-.285 2.312-.47 3.474l3.843-.541 2.531 18.011-1.879.264-.248-1.764-4.355.612.274 1.95-1.965.276zm.529-61.179l.365 2.6-2.135.3-.365-2.6 2.135-.3zm-.834 44.749l.718 5.106 4.356-.612-.718-5.106-4.356.612zm1.005 7.149l.744 5.292 4.356-.612-.744-5.292-4.356.612zm14.392 6.971l-3.587.504c-.153-.674-.4-1.396-.74-2.168.748-.043 1.863-.167 3.344-.375 1.611-.101 2.3-.986 2.065-2.657-.078-1.377-.401-4.299-.97-8.763-.127-1.308-.228-2.24-.306-2.797l-5.125.72c-.15.589-.407 1.446-.771 2.57l-.356 1.186c-.565-.299-1.187-.59-1.865-.874.993-2.852 1.663-5.725 2.012-8.614l2.03.188c-.063.388-.159.938-.291 1.65l-.278 1.743 6.32-.888c.557 3.961 1.095 8.62 1.616 13.974.375 2.66-.659 4.194-3.098 4.601zm-2.523-6.178c-.347-.392-.865-.982-1.555-1.77-.981-1.188-1.746-2.089-2.297-2.707l1.381-1.33c.485.563 1.205 1.346 2.159 2.348.813.832 1.431 1.503 1.851 2.012l-1.539 1.447zm-2.082-27.94l1.125-1.294 5.185 4.668-1.184 1.492-5.126-4.866zm8.186-36.862c-.462 1.265-1.003 2.571-1.626 3.921-.11-.363-.297-.873-.562-1.53-.185-.479-.326-.868-.426-1.171 1.435-3.42 2.396-7.121 2.881-11.103l2.141.362c-.11.458-.247 1.14-.409 2.046-.282 1.303-.498 2.247-.646 2.836l2.388 16.989-1.964.276-1.777-12.626zm1.398 52.866l-.235-1.671 5.466-.769c-.214-.285-.621-.701-1.221-1.249-.535-.493-.903-.851-1.109-1.075l1.886-.833c.073.117.238.25.492.404 1.002.933 1.675 1.596 2.021 1.988l-1.216.645 4.869-.685c.881-1.575 1.474-2.73 1.777-3.468l2.141.362c-.136.272-.389.75-.757 1.432-.378.621-.634 1.068-.77 1.339l5.295-.744.235 1.671-8.456 1.188.287 2.042 7.431-1.044.248 1.764-7.431 1.044.287 2.042 8.968-1.26.235 1.671-19.986 2.809-.235-1.671 8.968-1.261-.287-2.042-7.26 1.021-.248-1.764 7.26-1.021-.287-2.042-8.368 1.177zm1.375 11.64l-.248-1.764 8.541-1.2c.03-.194.024-.444-.019-.755.013-.317.007-.569-.019-.755l2.05-.288c.07.496.082.999.038 1.51l8.797-1.237.248 1.764-8.285 1.165c1.272 2.031 4.378 2.855 9.319 2.477-.127.333-.267.794-.415 1.383-.127.333-.208.598-.237.791-5.002-.054-8.286-1.107-9.851-3.16-.721 2.31-3.627 4.358-8.717 6.148-.083-.178-.274-.499-.571-.961l-.669-1.042c5.046-1.277 7.764-3.016 8.151-5.216l-8.113 1.14zm.489-68.562l-.287-2.042 6.32-.888c-.498-1.066-1.071-2.247-1.718-3.545l2.083-.671c.249.533.655 1.36 1.22 2.479.249.533.451.947.609 1.24l-.828.306 6.064-.853.287 2.042-13.75 1.932zm1.601 15.111l-.261-1.856 7.346-1.033c.831-4.408 1.5-8.542 2.002-12.399l2.141.362c-.332 2.193-.896 5.396-1.698 9.611-.211.976-.343 1.69-.396 2.138l5.381-.756.261 1.856-14.776 2.077zm3.677-4.209c-.651-1.738-1.82-4.478-3.506-8.217-.176-.416-.305-.714-.387-.893l1.801-.821c1.686 3.739 3.008 6.741 3.965 9.004l-1.873.927zm-1.416 20.004l-.261-1.856 3.587-.504-.483-3.435-1.452.204c-.674.159-1.212.265-1.609.321-.018-.124-.069-.274-.151-.452l-.452-1.357c.56-.141 1.349-.315 2.365-.521 2.374-.459 4.207-.843 5.5-1.152l.603 1.809c-.504.135-1.178.293-2.024.474-.447.126-.785.205-1.012.237l.509 3.621 3.502-.492.261 1.857-3.501.492.535 3.806 2.904-.408 1.356 9.655-1.793.252-.208-1.485-4.1.576.209 1.485-1.793.252-1.357-9.655 2.989-.42-.535-3.806-3.589.502zm3.187 5.328l.652 4.642 4.1-.576-.653-4.642-4.099.576zm5.33-9.175l-.274-1.95 1.623-.228-.535-3.806 1.879-.264.535 3.806 4.783-.672-.535-3.807 1.879-.264.535 3.807 1.538-.216.273 1.95-1.538.216 2.295 16.339-1.879.264-.234-1.671-4.783.672.235 1.671-1.879.264-2.296-16.339-1.622.228zm3.502-.492l.757 5.385 4.783-.672-.756-5.385-4.784.672zm1.018 7.241l.796 5.663 4.783-.672-.796-5.663-4.783.672zm.92-38.86l-.3-2.135 17.082-2.4.3 2.135-7.174 1.008.796 5.663 8.797-1.236.313 2.228-8.799 1.236.967 6.87c.436 2.273-.43 3.563-2.592 3.867l-3.588.504c-.093-.24-.201-.603-.328-1.09-.192-.541-.334-.932-.426-1.171.577-.019 1.637-.135 3.174-.351 1.261-.115 1.748-.781 1.461-2.004l-.889-6.313-9.395 1.32-.313-2.228 9.396-1.32-.796-5.663-7.686 1.08zm22.849 73.695c-2.795-.871-6.717-1.927-11.77-3.174l.561-1.593c.773.144 1.975.417 3.599.819l1.358.377c.422-.311 1.024-.774 1.81-1.39.784-.615 1.358-1.074 1.724-1.378l-11.703 1.645.602 4.271c1.949-.589 3.586-1.134 4.908-1.637.021.565.076 1.157.162 1.776-.494.195-1.268.493-2.312.893-1.209.485-2.01.787-2.398.905-.105.077-.238.159-.4.246-.602.274-1.006.488-1.217.645l-1.26-1.527c.453-.505.631-1.099.535-1.779l-1.605-11.419c-.688.475-1.428.99-2.222 1.543-.092-.239-.343-.582-.754-1.03l-.446-.695c4.514-2.59 7.514-5.411 9.002-8.46l2.416-.15c-.192.28-.353.586-.479.919 2.503 2.11 5.777 3.512 9.823 4.205-.109.458-.305 1.148-.58 2.07-.245-.091-.604-.167-1.077-.228-.245-.091-.788-.235-1.628-.434l1.096 7.798.086-.012 1.489 1.306c-.373.242-.927.636-1.663 1.18-.793.554-1.371.983-1.734 1.286.783.206 1.979.448 3.586.727.537.114.93.215 1.176.308l-.685 1.987zm-9.548-15.888c.25.533.447.917.597 1.147l-1.399.575 5.979-.84c-2.367-.739-4.518-1.983-6.446-3.732-1.399 2.028-3.149 3.82-5.254 5.377l5.296-.744c-.258-.594-.656-1.359-1.193-2.293l1.741-.624c.153.294.382.672.679 1.134zm-5.866 4.138l.274 1.95 10.334-1.453-.272-1.95-10.336 1.453zm.485 3.435l.286 2.042 10.335-1.453-.287-2.042-10.334 1.453zm4.3-19.178l-1.448-10.305 8.114-1.141 1.447 10.305-1.879.264-.195-1.393-4.355.612.195 1.393-1.879.265zm.25-13.1l-1.162-8.262 14.69-2.065 1.161 8.263-14.689 2.064zm.443 4.388l.757 5.385 4.355-.612-.758-5.384-4.354.611zm.72-10.989l.613 4.363 10.592-1.488-.613-4.363-10.592 1.488zm9.177 18.213l-1.447-10.305 8.113-1.14 1.449 10.305-1.793.252-.197-1.393-4.44.624.196 1.393-1.881.264zm-.732-39.298l-.247-1.764 1.366-.192-1.109-7.891 2.307-.324c.014-.317.041-.73.087-1.243-.021-.565-.021-.975.002-1.231l1.892-.171-.1 1.15c-.094.581-.15 1-.172 1.255l3.33-.468 2.4 17.082c.273 1.539-.324 2.443-1.796 2.714l-2.135.3c-.026-.186-.123-.457-.288-.812-.128-.488-.236-.852-.328-1.09l.514-.072c.521-.011.922-.035 1.209-.075.854-.12 1.203-.517 1.051-1.189l-.979-6.963-3.843.54c.748 4.503.687 7.982-.188 10.44-.312-.146-.817-.453-1.521-.922-.124-.046-.219-.097-.282-.15.746-2.124.812-5.163.199-9.116l-1.369.192zm1.426 30.585l.758 5.385 4.44-.625-.757-5.384-4.441.624zm.627-38.92l.86 6.127 3.843-.54-.859-6.127-3.844.54zm2.313 4.692c-.065-.053-.142-.169-.224-.347-.283-.78-.756-1.66-1.416-2.641l1.274-.842c.288.402.636 1.016 1.043 1.842.306.525.532.904.683 1.135l-1.36.853zm1.321 71.331l-2.937-20.889 18.534-2.605 2.936 20.889-1.965.276-.209-1.485-14.604 2.052.207 1.485-1.962.277zm.011-63.092c-.158-.293-.361-.707-.61-1.24-.472-.88-.857-1.551-1.152-2.015l1.359-.854.708 1.32c.464.819.815 1.464 1.056 1.935l-1.361.854zm-.708 43.877l2.205 15.69 14.605-2.053-2.205-15.689-14.605 2.052zm4.613 11.754l-1.24-8.82 8.798-1.236 1.239 8.82-8.797 1.236zm2.527-69.979c.571 2.824.001 5.176-1.708 7.057-.197-.162-.488-.372-.873-.635-.394-.323-.685-.534-.873-.635 1.534-1.478 2.051-3.38 1.549-5.708l-.377-2.692 7.088-.996.73 5.199c.082.999.574 1.403 1.479 1.212l1.109-.156c.025.186.012.504-.041.952.004.442-.006.791-.027 1.045l-1.707.24c-1.586.287-2.48-.503-2.686-2.368l-.561-3.992-3.246.456.144 1.021zm-.202 18.395l-1.447-10.305 8.883-1.249 1.447 10.305-1.879.264-.248-1.764-5.123.72.248 1.764-1.881.265zm-1.424 44.357l.719 5.106 5.123-.72-.718-5.106-5.124.72zm12.679-23.865c-.453-2.398-1.871-3.808-4.252-4.231 1.774-1.006 2.547-2.535 2.316-4.585-.55-3.078-2.455-4.451-5.718-4.12-2.839.463-4.386 2.258-4.644 5.386l1.971.386c.076-2.345 1.078-3.686 3.006-4.02 1.831-.193 2.941.692 3.335 2.656.207 2.306-.909 3.663-3.349 4.068l-.854.12.234 1.671 1.537-.216c2.465-.219 3.94.771 4.426 2.976.365 2.6-.733 4.079-3.297 4.439-2.105.296-3.508-.8-4.207-3.291l-1.887.833c1.146 3.186 3.312 4.553 6.5 4.104 3.564-.69 5.191-2.748 4.883-6.176zm-10.563-29.204l.718 5.106 5.124-.72-.718-5.106-5.124.72zm14.48 1.468c-.115 1.658-.508 3.416-1.176 5.277-.132-.109-.353-.235-.662-.38-.574-.362-.983-.588-1.229-.68.637-1.666.969-3.228.996-4.684.084-1.463-.086-3.711-.512-6.744l-1.201-8.542 17.168-2.413.809 5.756-15.203 2.137.444 3.157c.426 3.034.612 5.405.566 7.116zm.06 49.634c-.055 1.271-.096 2.224-.121 2.857-.529-.051-1.057-.072-1.576-.063.202-1.858.258-3.949.163-6.271l1.577.063c-.02.698-.033 1.836-.043 3.414zm-1.631-63.898l.326 2.321 13.238-1.861-.326-2.321-13.238 1.861zm11.776 35.852c.813 6.198-.596 9.613-4.221 10.25-3.824.474-6.175-2.413-7.054-8.666-.822-6.258.604-9.741 4.28-10.447 3.718-.395 6.049 2.558 6.995 8.863zm-4.935 27.314c-.625-.732-1.485-1.685-2.579-2.856l2.322 16.525-1.965.276-3.092-22.002 1.965-.276.744 5.292 1.137-1.202c.984.809 1.925 1.718 2.822 2.728l-1.354 1.515zm-4.478-55.64c-.025-.186-.131-.517-.313-.997-.093-.239-.146-.42-.164-.545 4.569-.957 8.877-1.91 12.925-2.857l.563 1.53c-2.13.553-4.291 1.077-6.485 1.574l.273 1.95 6.938-1.448.393 1.554-7.096 1.565.287 2.042 8.364-1.838.405 1.647-8.535 1.862.092.65c.05 1.192.723 1.633 2.016 1.326l2.647-.372c1.033-.083 1.588-.477 1.663-1.181-.035-.247-.049-.75-.038-1.509.302.084.75.178 1.347.284.293.022.5.057.624.102.003.442-.013.948-.048 1.521-.049.069-.068.135-.061.198-.045 1.332-.954 2.09-2.729 2.277l-3.758.528c-2.156.365-3.324-.512-3.505-2.631l-.104-.743-5.842 1.2-.49-1.635 6.084-1.329-.287-2.042-4.744.951-.393-1.555 4.901-1.067-.272-1.95-4.658.938zm7.448 28.602c-.757-5.385-2.384-7.869-4.88-7.456-2.31.514-3.131 3.344-2.465 8.488.748 5.324 2.341 7.782 4.78 7.375 2.457-.281 3.313-3.083 2.565-8.407zm2.819 39.1c-2.629.306-4.119-.59-4.472-2.685-.258-1.415.1-3.011 1.068-4.789 1.777-3.469 3.825-7.07 6.146-10.804l-8.37 1.176-.287-2.042 10.933-1.537.312 2.228c-2.891 4.636-5.205 8.622-6.942 11.958-.624 1.351-.882 2.396-.776 3.139.156 1.114 1.06 1.555 2.711 1.323l3.844-.54c1.773-.186 2.58-1.056 2.42-2.612.025-.634-.018-1.764-.128-3.39l-.026-.186c.549.176 1.229.27 2.043.281.111 1.626.161 3.007.147 4.145-.112 2.099-1.278 3.304-3.499 3.616l-5.124.719zm22.101-45.918c-.128.334-.344.869-.646 1.605-1.274-.389-2.468-.821-3.579-1.296l.222 1.578-4.526.636.418 2.971 8.284-1.164.274 1.949-8.285 1.165.68 4.828c.399 2.026-.424 3.184-2.475 3.472-.619.149-1.496.305-2.635.465l-.026-.186c-.245-.912-.481-1.574-.714-1.982.577-.019 1.352-.095 2.319-.231 1.089-.091 1.536-.627 1.342-1.608l-.627-4.456-8.712 1.224-.273-1.95 8.713-1.224-.418-2.971-5.039.708-.209-1.485c-.938.763-1.957 1.569-3.058 2.417-.438-.632-.933-1.256-1.481-1.874 4.268-2.683 7.176-5.742 8.726-9.179l2.346-.046c-.049.071-.116.206-.204.408-.098.141-.164.276-.203.407 2.693 2.651 6.018 4.394 9.967 5.226l-.181.593zm-12.295 10.438c-1.465 1.974-2.945 3.822-4.445 5.548-.133-.109-.365-.327-.703-.659-.401-.386-.701-.659-.898-.82 1.391-1.268 2.823-3.048 4.303-5.338l1.743 1.269zm7.42-10.416c-2.231-1.011-4.166-2.38-5.803-4.107-1.075 1.855-2.613 3.713-4.617 5.572l10.42-1.465zm2.349-21.268c-.454-2.398-1.871-3.808-4.254-4.231 1.775-1.006 2.548-2.535 2.317-4.585-.55-3.078-2.454-4.451-5.718-4.12-2.839.463-4.386 2.258-4.645 5.386l1.972.386c.075-2.345 1.078-3.686 3.006-4.02 1.831-.193 2.94.692 3.335 2.656.207 2.306-.909 3.663-3.348 4.068l-.854.12.235 1.671 1.537-.216c2.465-.219 3.939.771 4.425 2.976.364 2.6-.733 4.079-3.296 4.439-2.105.296-3.51-.8-4.207-3.291l-1.887.833c1.145 3.186 3.311 4.553 6.5 4.104 3.563-.689 5.19-2.748 4.882-6.176zm-2.787 64.895c-1.85.07-3.026-.869-3.532-2.817-.124-2.127.739-3.417 2.593-3.867 1.961-.086 3.176.912 3.643 2.991.107 2.003-.796 3.235-2.704 3.693zm-.744-5.292c-1.064.277-1.566 1.042-1.507 2.295.262 1.037.942 1.539 2.042 1.512 1.121-.285 1.664-.959 1.631-2.028-.288-1.222-1.01-1.815-2.166-1.779zm6.457-24.97c-1.983-1.299-3.957-2.535-5.922-3.712l1.072-1.666c2.088 1.222 4.057 2.429 5.908 3.619l-1.058 1.759zm-1.482-47.148l-.272-1.949 19.303-2.713.273 1.949-9.736 1.369c-1.206 1.748-2.667 3.752-4.381 6.012l9.939-1.775c-.861-.762-1.838-1.508-2.928-2.24l1.368-1.423c2.065 1.478 4.271 3.125 6.617 4.94l-1.414 1.713-1.674-1.374c-1.87.326-4.425.749-7.661 1.266-2.032.413-3.505.682-4.415.81l-.342.048c-1.122.285-1.788.504-1.998.66l-1.142-1.922c.057-.008.109-.046.157-.117.745-.483 1.233-.931 1.467-1.342 1.21-1.306 2.376-2.921 3.499-4.847l-6.66.935zm2.602 12.32l-.287-2.042 7.771-1.092-.403-2.878 2.05-.288.404 2.878 7.771-1.092.287 2.042-7.771 1.092.495 3.528 9.226-1.296.248 1.764-20.499 2.881-.248-1.764 9.225-1.296-.496-3.528-7.773 1.091zm1.868 21.909l-.287-2.042 2.817-.396-.481-3.435-2.464.441c-.162-.734-.339-1.373-.53-1.914 2.439-.405 4.785-.862 7.037-1.368l.517 1.821-2.692.663.495 3.528 2.732-.384.287 2.042-2.733.384.393 2.785.579-.839 1.575 1.293c.654.54 1.151.974 1.489 1.306l-1.171 1.584c-.338-.332-.81-.8-1.418-1.41-.402-.384-.706-.689-.912-.914l1.345 9.563-1.88.264-1.344-9.563c-.309 1.937-.878 3.879-1.707 5.826l-.708-1.32c-.223-.348-.377-.61-.459-.788 1.039-2.102 1.791-4.607 2.254-7.512l-2.734.385zm15.02 11.427l-1.044-7.427-2.904.408.156 1.114-1.793.252-1.592-11.326 4.697-.66-.626-4.456 1.793-.252.627 4.456 4.696-.66 1.593 11.326-1.879.264-.156-1.114-2.819.396 1.044 7.427-1.793.252zm-5.109-15.281l.888 6.313 2.903-.408-.887-6.313-2.904.408zm7.516-1.057l-2.819.396.889 6.313 2.817-.396-.887-6.313zm7.287-28.498c-1.253.176-2.326.8-3.222 1.873l-.282-5.735 7.345-1.032-.261-1.857-8.797 1.236.345 9.892 1.32.098c.557-1.403 1.714-2.26 3.471-2.57 2.409-.211 3.87 1.098 4.385 3.928.312 3.049-.748 4.808-3.178 5.274-2.174.244-3.612-.912-4.319-3.463l-1.801.821c1.096 3.254 3.267 4.653 6.513 4.197 3.569-.629 5.115-3.053 4.639-7.279-.777-3.867-2.83-5.661-6.158-5.383zm5.719 38.605c.305 2.166-.21 3.878-1.542 5.14l-.886-.728c.911-.949 1.282-2.232 1.114-3.849l-1.452.204-.432-3.063 2.818-.396.38 2.692zm6.634-31.814c-.071 1.967-.539 4.019-1.397 6.161l-1.615-1.572c.725-1.868 1.092-3.593 1.103-5.172.066-1.586-.143-4.113-.63-7.58l-.979-6.963 17.509-2.46.914 6.499-15.545 2.185.117.835c.486 3.466.659 6.155.523 8.067zm-1.294-13.546l.417 2.971 13.666-1.921-.418-2.971-13.665 1.921zm1.557 12.941l-.263-1.856 16.826-2.365.261 1.857-8.968 1.26c-1.447 2.097-2.498 3.508-3.149 4.229 1.935-.272 4.487-.693 7.659-1.266-.723-.592-1.473-1.181-2.251-1.766l1.282-1.411c2.656 1.962 4.509 3.374 5.561 4.236l-1.271 1.504-1.477-1.212c-1.699.301-4.163.742-7.393 1.323-1.017.205-1.725.337-2.122.393-.513.072-1.153.257-1.925.555l-.257.036-1.029-1.749c.542-.266 1.061-.717 1.553-1.354.7-.792 1.451-1.845 2.256-3.157l-5.293.743zm4.512 15.856c-1.001 1.972-2.073 3.637-3.218 4.996-.42-.509-.85-1.079-1.286-1.713 1.73-2.137 2.978-4.426 3.737-6.868l2.261-.034c-.031.194-.14.462-.322.803-.119.396-.223.694-.31.896l14.093-1.98.247 1.764-15.202 2.136zm-3.61 10.259l-.248-1.764 2.904-.408.058-5.783 14.265-2.004.625 5.687 2.817-.396.248 1.764-2.902.408c.061.434.123 1.087.188 1.961.122.867.184 1.521.188 1.961l2.306-.324.248 1.764-2.478.348c.257 2.236-.756 3.514-3.031 3.834l-3.502.492c-.435-1.013-.666-1.643-.701-1.889.351.013 1.465-.111 3.345-.375 1.317-.123 1.959-.718 1.926-1.786l-13.665 1.921.059-5.783-2.65.372zm.535-30.767l-.235-1.671 12.982-1.825.234 1.671-12.981 1.825zm15.558 32.481l-.377-3.923-11.019 1.548-.05 3.983 6.748-.948c-.582-.422-1.48-1.022-2.692-1.799-.188-.1-.344-.172-.466-.219l1-1.561c1.138.661 2.214 1.298 3.229 1.913l-.986 1.654 4.613-.648zm-11.337-8.158l-.05 3.983 10.848-1.524c-.069-1.315-.194-2.623-.378-3.923l-10.42 1.464zm6.256 3.002c-1.024-.675-2.102-1.314-3.229-1.913l.914-1.549 1.694.898c.694.408 1.231.711 1.607.91l-.986 1.654zm8.656-19.317l-2.558-18.196 2.306-.324c.021-.255.061-.607.113-1.057.131-.712.205-1.639.22-2.776l2.188.071c-.13 1.154-.285 2.312-.472 3.474l3.845-.541 2.53 18.011-1.879.264-.248-1.764-4.354.612.272 1.95-1.963.276zm-.306-16.429l.717 5.106 4.356-.612-.719-5.106-4.354.612zm1.004 7.148l.744 5.292 4.354-.612-.742-5.292-4.356.612zm2.986 19.004l-.287-2.042 17.851-2.509.287 2.042-7.856 1.104c.183 1.3.372 3.071.572 5.315l9.225-1.296.301 2.135-8.798 1.236c1.594 4.32 4.992 6.81 10.193 7.467-.04.131-.127.333-.263.605l-.619 1.791c-5.32-1.083-8.784-3.625-10.392-7.628-.314 3.958-2.817 7.433-7.506 10.427-.142-.17-.415-.479-.827-.925-.346-.394-.621-.703-.826-.925 5-2.848 7.473-6.319 7.42-10.415l-8.626 1.212-.301-2.135 8.883-1.249c-.022-.565-.119-1.465-.293-2.704-.101-1.122-.192-1.992-.28-2.612l-7.858 1.106zm11.407-12.033l-3.587.504c-.152-.674-.399-1.396-.739-2.168.748-.043 1.862-.167 3.344-.375 1.611-.101 2.301-.986 2.064-2.657-.076-1.377-.4-4.299-.97-8.763-.127-1.308-.228-2.24-.307-2.797l-5.124.72c-.15.589-.406 1.446-.771 2.57l-.354 1.186c-.564-.299-1.188-.59-1.865-.874.993-2.852 1.663-5.725 2.013-8.614l2.028.188c-.062.388-.159.938-.291 1.65l-.277 1.743 6.32-.888c.557 3.961 1.095 8.62 1.615 13.974.373 2.66-.66 4.194-3.099 4.601zm-2.523-6.178l-1.556-1.77c-.98-1.188-1.745-2.089-2.297-2.707l1.382-1.33c.483.563 1.204 1.346 2.157 2.348.814.832 1.432 1.503 1.852 2.012l-1.538 1.447zm9.138-8.575c-.031 1.015-.098 1.781-.199 2.3-.188-.1-.496-.215-.92-.344-.235-.029-.416-.067-.538-.114.356-2.006.428-4.604.211-7.793l1.479-.018c-.014.318-.006.791.024 1.417-.02.698-.034 1.205-.048 1.521l1.622-.228-.717-5.106 1.879-.264.718 5.106 1.965-.276.273 1.95-1.965.276.64 4.549 1.873-.926c.122.867.277 1.57.472 2.111l-2.044.95 1.175 8.355-1.88.264-1.097-7.798-3.332 1.699-.568-2.192 3.602-1.642-.718-5.106-1.794.252c-.023.256-.06.609-.113 1.057zm4.644 24.355l-.262-1.856 4.101-.576c-.24-.471-.569-1.151-.983-2.04l1.925-.554c.082.178.241.472.474.88.267.658.478 1.133.636 1.426l3.502-.492.261 1.856-9.654 1.356zm.161 5.469l-.248-1.764 3.073-.433c-.354-.454-.848-1.079-1.481-1.874-.271-.277-.445-.473-.52-.59l1.335-1.04c.141.169.382.452.729.844.617.67 1.103 1.234 1.457 1.688l-1.263.935 2.647-.372c.519-1.271.955-2.501 1.312-3.687l1.8.41c-.207.597-.555 1.436-1.04 2.513-.08.264-.145.432-.191.5l2.904-.408.248 1.764-10.762 1.514zm1.111 4.199l-.261-1.857 4.1-.576-.325-2.321 1.879-.264.325 2.321 3.845-.54.261 1.857-3.844.54.757 5.384c.291 1.664-.356 2.637-1.94 2.924l-1.965.276c-.127-.488-.361-1.118-.701-1.89l1.623-.228c.854-.12 1.204-.517 1.054-1.189l-.705-5.013-4.103.576zm3.126 1.17c-.353 1.628-.827 3.209-1.424 4.744l-1.53-.353c.511-1.333.954-2.911 1.338-4.732l1.616.341zm-2.351-39.636l-.261-1.857 4.44-.624-.404-2.878 1.965-.276.404 2.878 4.526-.636.261 1.856-4.525.636.431 3.064 5.381-.756.261 1.856-12.641 1.777-.261-1.857 5.295-.744-.432-3.063-4.44.624zm.661 9.658l-.263-1.856 7.858-1.104-.274-1.95 1.879-.264.274 1.95 2.733-.384.261 1.857-2.733.384.68 4.828c.316 1.849-.436 2.901-2.257 3.157-.902.189-1.839.353-2.806.489l-.452-1.356c-.102-.302-.192-.541-.274-.719.576-.019 1.407-.103 2.489-.255 1.024-.144 1.478-.65 1.354-1.516l-.613-4.363-7.856 1.102zm3.937 4.464c-.064-.053-.136-.138-.21-.254-1.151-1.164-2.083-2.01-2.796-2.542l1.112-1.387c1.105.854 2.161 1.748 3.163 2.679l-1.269 1.504zm3.886 28.249l-1.188-1.632c-.569-.739-.994-1.28-1.272-1.62l1.348-.947c.856 1.143 1.668 2.165 2.435 3.066l-1.323 1.133zm7.69 2.043l-1.646-11.697-2.731.384.063.464c.802 4.874.475 8.738-.982 11.593-.065-.054-.222-.127-.466-.218-.254-.154-.726-.404-1.412-.749 1.403-2.406 1.727-5.89.97-10.455l-1.253-8.913c2.82-.585 5.425-1.267 7.812-2.045l.871 1.866c-1.778.567-3.965 1.125-6.558 1.679l.679 4.828 7.089-.996.274 1.95-2.477.348 1.644 11.697-1.877.264zm-.264-42.674c-.402-.384-.929-.816-1.575-1.293 2.429-2.55 4.253-5.268 5.474-8.154l2.26-.034c-.089.202-.243.54-.468 1.012-.176.404-.331.742-.467 1.013l8.199-1.152.248 1.764-2 3.122 5.039-.708 1.108 7.892-14.264 2.004.443 3.157c.116 1.247.887 1.769 2.311 1.568l9.737-1.368c1.487-.147 2.207-.815 2.155-2.007-.018-.124 0-.41.055-.86.009-.758.012-1.358.008-1.8.783.207 1.441.334 1.971.386.026.186.031.438.02.755.033 1.069-.003 1.832-.113 2.288-.099 1.78-1.262 2.796-3.491 3.047l-10.677 1.5c-2.326.389-3.621-.565-3.886-2.862l-1.409-10.026-.678.756zm11.121-6.391l-7.004.984c-.668 1.041-1.365 2.054-2.099 3.041l7.174-1.008 1.929-3.017zm-8.4 5.914l.574 4.085 5.21-.732-.574-4.085-5.21.732zm3.25 27.965c-.315-.586-.69-1.196-1.128-1.83 1.188-1.871 2.049-4.011 2.581-6.422l1.918.015c-.127.334-.268.795-.415 1.384l-.178.593 3.843-.54.248 1.764-1.027 2.606 2.308-.324 1.5 10.677-8.114 1.14-1.33-9.469-.206.406zm4.99-4.772l-2.818.396c-.391.939-.819 1.819-1.283 2.642l3.074-.432 1.027-2.606zm3.157 16.881c-2.982.671-5.229 1.208-6.74 1.61l-.458-2.019 1.879-.264c3.391-.666 5.981-1.219 7.778-1.661l.118.835c-.006.379.006.662.032.848l-2.609.651zm-6.255-12.28l.404 2.878 1.794-.252-.404-2.878-1.794.252zm.627 4.456l.404 2.878 1.793-.252-.404-2.878-1.793.252zm6.53-33.978l-5.125.721.574 4.084 5.125-.72-.574-4.085zm-2.203 28.826l-1.794.252.404 2.878 1.794-.252-.404-2.878zm-1.167 4.708l.404 2.878 1.793-.252-.404-2.878-1.793.252zm3.409-6.727l-.273-1.95 5.467-.768c.653-1.543 1.223-3.074 1.706-4.595l1.896.491c-.127.334-.348.839-.658 1.513-.431 1.071-.786 1.847-1.065 2.327l2.988-.42.274 1.949-4.271.601.469 3.342 3.844-.54.261 1.857-3.843.54.482 3.435 4.611-.648.274 1.95-4.612.648.743 5.292-1.879.264-.744-5.292-4.271.601-.273-1.95 4.271-.6-.481-3.435-3.673.516-.261-1.857 3.672-.516-.471-3.342-4.183.587zm2.42-2.613c-.949-1.381-1.699-2.379-2.25-2.997l1.434-.959c.41.448.976 1.158 1.691 2.129l.63.764-1.505 1.063zm4.611-27.65l-.287-2.042 18.534-2.605.287 2.042-8.2 1.152.718 5.106 7.26-1.021.302 2.135-7.261 1.021.796 5.663 9.054-1.272.273 1.95-20.242 2.845-.273-1.95 9.054-1.272-.796-5.663-7.26 1.021-.3-2.135 7.26-1.021-.718-5.106-8.201 1.152zm8.57-3.477c-.341-.771-.956-1.854-1.85-3.243l2.058-.857c.537.935 1.154 2.016 1.85 3.243l-2.058.857zm2.444 47.39l-1.723-12.254c-.526 1.21-1.059 2.39-1.594 3.537-.166-.355-.396-.953-.688-1.797-.109-.363-.206-.633-.288-.812 1.413-3.164 2.401-6.87 2.967-11.115l2.043.281c-.291 2.062-.659 3.975-1.108 5.742l2.271 16.154-1.88.264zm1.369-16.287l-.261-1.856 5.637-.792-.626-4.456 1.879-.264.626 4.456 6.235-.876.261 1.857-5.295.744c1.987 3.824 4.485 6.723 7.493 8.698-.08.264-.224.694-.43 1.291-.108.458-.209.787-.296.988-3.248-2.446-5.743-5.536-7.485-9.267l1.135 8.077 3.246-.456.261 1.857-3.246.456.602 4.271-1.88.264-.601-4.271-3.245.456-.262-1.856 3.246-.457-1.122-7.984c-.736 4.269-2.241 8.016-4.519 11.238-.158-.293-.483-.752-.978-1.377-.214-.285-.359-.485-.434-.602 2.415-3.052 3.999-6.652 4.753-10.798l-4.694.659zm11.015-27.697l-1.188-8.448 7.517-1.057 1.188 8.448-7.517 1.057zm-.641 3.498l-.248-1.764 9.479-1.333.248 1.764-3.244.456.325 2.321 2.989-.42.222 1.578-2.988.42.403 2.878c.871.003 1.967-.056 3.284-.178 2.4-.275 6.125-.83 11.176-1.666-.021.255-.06.608-.111 1.058-.103.519-.168.875-.198 1.069l-6.405.9c-1.538.216-2.994.388-4.369.52-3.474.488-5.924-.209-7.349-2.091-.055 1.269-.34 2.54-.858 3.813l-1.464-1.12c.769-1.559.922-3.979.461-7.26l1.637-.135c.044.311.069.716.084 1.219l.144 1.021c.669 1.042 1.385 1.793 2.146 2.254l-.835-5.941-4.529.637zm1.398-10.515l.261 1.857 4.1-.576-.261-1.857-4.1.576zm.468 3.342l.261 1.857 4.1-.576-.261-1.857-4.1.576zm11.183 43.698l-2.306.324c-.146-.611-.351-1.246-.615-1.902l1.195-.168c.521-.011.953-.039 1.294-.087 1.09-.091 1.591-.664 1.5-1.725-.156-1.934-.378-3.923-.664-5.966l-5.125.72-.563-8.347 1.708-.24.46 6.373 2.137-.3-.544-7.592-4.869.684-.262-1.857 6.747-.948.722 9.461 1.109-.156c.191 1.362.445 3.788.762 7.277l.144 1.021c.285 2.043-.657 3.185-2.83 3.428zm-.047-5.295c-1.512.401-3.039.9-4.58 1.496l-.373-2.03c.39-.117 1.004-.298 1.841-.542 1.282-.37 2.232-.629 2.853-.78l.259 1.856zm-4.576-42.544l-.233-1.671 10.249-1.44.234 1.671-4.44.625-.088 2.474 4.014-.564 1.29 9.189-1.623.228-1.057-7.52-5.467.769 1.058 7.52-1.623.228-1.292-9.191 2.818-.396.087-2.474-3.927.552zm11.35 15.067c-.134-.107-.354-.234-.663-.38-1.664-1.091-2.95-1.983-3.86-2.676-.523 1.652-1.82 3.16-3.894 4.523-.329-.269-.772-.743-1.332-1.422 3.241-1.717 4.48-4.258 3.719-7.623l-.393-2.785 1.709-.24.307 2.797c.165 1.177.224 2.21.175 3.1.188.101.503.277.945.53 1.833 1.067 3.229 1.913 4.188 2.535l-.901 1.641zm7.953 15.75c-.236.791-.427 1.513-.566 2.163-2.732-1.256-4.959-3.057-6.683-5.404-.918 2.149-2.103 4.051-3.554 5.707l8.285-1.165.261 1.857-8.37 1.176-.248-1.764c-.46.443-.911.949-1.354 1.516-.438-.632-.87-1.234-1.299-1.806 2.682-2.396 4.407-5.195 5.178-8.396l1.991-.09-.284 1.081c1.902 2.384 4.116 4.093 6.643 5.125zm-9.026 12.63c-.8-1.971-1.624-3.905-2.472-5.807l1.559-.692c.267.658.356.896.273.718 1.007 2.195 1.736 3.891 2.196 5.088l-1.556.693zm-1.816 3.19l-.233-1.671 7.431-1.044c.448-2.587.811-5.383 1.085-8.389l1.787.317c-.115.837-.312 2.126-.589 3.87-.222 1.735-.413 3.057-.575 3.962l3.074-.432.234 1.671-12.214 1.716zm5.261-4.716c-.611-1.87-1.247-3.707-1.906-5.507l1.484-.587c.717 1.793 1.381 3.625 1.992 5.495l-1.57.599zm2.236-41.702c-.466.823-1.049 1.631-1.75 2.423-.23-.408-.573-.771-1.022-1.087 1.151-1.298 1.967-2.738 2.44-4.319l1.504.167-.178.593c-.127.334-.212.567-.25.698l1.622-.228-.521-3.714 1.622-.228.156 1.114 3.416-.48.185 1.3-3.417.48.183 1.3 2.818-.396.222 1.579c-1.672 2.57-4.343 4.839-8.014 6.806-.084-.177-.267-.436-.545-.775-.224-.347-.4-.574-.531-.683 1.313-.563 2.449-1.164 3.403-1.804l-1.574-1.293.906-.979c.312.146.725.404 1.241.772.319.208.573.361.763.461.832-.685 1.618-1.49 2.359-2.415l-5.038.708zm17.071 1.861c-1.433-.682-2.797-1.311-4.099-1.886-.851.562-1.838 1.174-2.964 1.837 2.481 1.545 5.491 2.511 9.029 2.896-.039.133-.123.365-.25.698l-.354 1.186-2.168-.547c-.482-.122-.842-.197-1.077-.227l.651 4.642c.315-.233.574-.459.776-.677l1.194 1.063c-1.093.911-2.048 1.551-2.866 1.917l4 .574-.658 1.512c-.359-.076-.865-.162-1.519-.26-3.327-.542-5.853-.945-7.571-1.208-.006.379.03.848.108 1.405-1.389.447-3.021 1.024-4.896 1.729-.105.077-.296.167-.571.27-.269.164-.459.254-.572.271l-.964-1.284c.347-.427.48-.919.402-1.477l-.875-6.22c-.784.616-1.606 1.172-2.465 1.672-.065-.053-.142-.17-.224-.348-.42-.509-.736-.905-.951-1.191 3.995-2.139 7.045-4.619 9.146-7.439l1.479-.019-.112-.173c.104-.077.295-.167.572-.27.591-.334 1.234-.709 1.933-1.124l-1.398-.655c-.612-.229-1.074-.417-1.386-.563l.855-1.351 3.336 1.424c.669-.599 1.334-1.449 1.991-2.552l-6.148.864-.222-1.579 8.027-1.128.235 1.671c-.825 1.568-1.569 2.682-2.23 3.343l3.618 1.574-.812 1.63zm-3.591 4.197l-9.907 1.393.183 1.3 9.907-1.393-.183-1.3zm-9.398 5.013l9.907-1.393-.183-1.299-9.907 1.392.183 1.3zm8.847 1.597l.946-.701c.309-.295.832-.685 1.578-1.168l-11.188 1.572.325 2.321c1.379-.51 2.688-.915 3.923-1.214l-1.161-.215.513-1.303 5.064.708zm-4.025-8.807c.073.117.165.355.273.719.166.355.264.626.289.812l3.245-.456c-1.603-.658-3.146-1.514-4.629-2.568-.974 1.336-2.163 2.576-3.57 3.721l3.331-.468c-.009-.061-.051-.15-.125-.267-.024-.186-.163-.545-.412-1.078l1.598-.415zm.062-2.659c.188.101.382.23.577.392-.064-.053-.141-.17-.223-.348l-.295-.242-.059.198zm4.57 39.238c.305 2.166-.21 3.878-1.542 5.139l-.886-.727c.911-.949 1.282-2.232 1.114-3.849l-1.452.204-.432-3.063 2.818-.396.38 2.692z"/></svg>