<?xml version="1.0" encoding="utf-8"?>
<!-- Generator: Adobe Illustrator 16.0.0, SVG Export Plug-In . SVG Version: 6.00 Build 0)  -->
<!DOCTYPE svg PUBLIC "-//W3C//DTD SVG 1.1//EN" "http://www.w3.org/Graphics/SVG/1.1/DTD/svg11.dtd">
<svg version="1.1" id="图层_1" xmlns="http://www.w3.org/2000/svg" xmlns:xlink="http://www.w3.org/1999/xlink" x="0px" y="0px"
	 width="640px" height="620px" viewBox="0 0 640 620" enable-background="new 0 0 640 620" xml:space="preserve">
<polygon fill="#0A6EB6" stroke="#9ED9FF" stroke-miterlimit="10" points="-1,109 640.001,19 640,167 -1,258.001 "/>
<g id="图层_2">
	<polygon fill="#0B76BC" points="545.057,33.651 485.63,187.5 640,165.75 640,20.25 	"/>
	<polygon fill="#0B76BC" points="245.75,75.5 106.182,241.28 0,256.75 -1,110 	"/>
</g>
<path fill="#FFFFFF" d="M45.125,135.892l-0.287-2.042l17.268-2.427l0.287,2.042l-7.771,1.092c0.137,1.812,0.224,3.471,0.26,4.981
	l9.756-1.371l0.287,2.042l-10.188,1.432c-0.167,5.074-2.584,9.39-7.249,12.947l-1.716-1.558c4.345-3.323,6.614-7.02,6.807-11.086
	l-8.03,1.129l-0.287-2.042l8.461-1.189c-0.036-1.509-0.124-3.168-0.26-4.981L45.125,135.892z M48.941,174.289l-0.248-1.764
	l20.462-2.876l0.248,1.764l-8.979,1.262l0.313,2.228l7.425-1.043l0.248,1.764l-7.425,1.044l0.326,2.321
	c2.992-0.42,6.044-0.85,9.152-1.286c-0.077,0.705-0.158,1.378-0.244,2.022c-3.972,0.558-6.883,0.935-8.733,1.132
	c-3.454,0.485-5.933-0.24-7.437-2.173c-0.385,1.441-1.37,3-2.953,4.675l-1.431-1.409c2.143-1.878,3.116-4.35,2.92-7.416l1.938,0.012
	c-0.023,0.256-0.029,0.636-0.016,1.138c-0.055,0.45-0.068,0.767-0.042,0.953c1.19,1.79,2.81,2.667,4.86,2.631l-0.887-6.313
	L48.941,174.289z M51.122,170.385l-1.227-8.727l15.023-2.111l1.227,8.727L51.122,170.385z M59.582,203.678
	c-2.95,0.731-4.864,1.315-5.741,1.753l-0.878-1.864c0.483-0.319,0.829-0.779,1.039-1.377c0.552-1.086,1.138-2.337,1.762-3.75
	c-1.152,0.162-2.208,0.374-3.168,0.635l-0.766-1.691c0.048-0.069,0.097-0.139,0.146-0.21c0.293-0.42,0.475-0.792,0.547-1.118
	c0.703-1.676,1.43-4.019,2.182-7.028l2.077,0.371c-0.081,0.264-0.202,0.66-0.362,1.187c-1.016,2.794-1.808,4.893-2.373,6.298
	c0.288-0.041,0.715-0.131,1.282-0.275c0.518-0.073,0.92-0.129,1.209-0.17c0.33-0.993,0.644-1.889,0.942-2.688l1.857,0.686
	c-1.163,3.004-2.381,5.826-3.653,8.466l3.794-1.196c0.018,0.125,0.005,0.252-0.034,0.383
	C59.484,202.777,59.53,203.307,59.582,203.678L59.582,203.678z M52.129,163.143L52.39,165l10.965-1.541l-0.261-1.857L52.129,163.143
	z M52.599,166.485l0.274,1.95l10.965-1.541l-0.274-1.95L52.599,166.485z M60.48,208.19c-2.145,0.617-4.304,1.33-6.479,2.141
	l-0.62-1.901c0.846-0.245,2.226-0.659,4.14-1.245c1.239-0.363,2.167-0.651,2.784-0.864C60.3,206.701,60.358,207.325,60.48,208.19
	L60.48,208.19z M59.644,152.123c-2.18,0.369-3.396-0.564-3.651-2.8l-1.044-7.427l2.072-0.291L58,148.567
	c0.058,1.255,0.745,1.756,2.061,1.509l2.072-0.291c1.209-0.17,1.763-0.816,1.665-1.938c0.004-0.379-0.024-1.006-0.088-1.881
	c-0.004-0.44-0.018-0.755-0.044-0.94c0.182,0.038,0.454,0.095,0.816,0.169c0.305,0.084,0.758,0.177,1.36,0.282
	c0.036,1.51,0.044,2.613,0.025,3.31c-0.054,1.711-1.063,2.673-3.028,2.887L59.644,152.123z M61.782,210.563l-2.857-20.331
	l12.087-1.699l2.857,20.332l-1.899,0.267l-0.248-1.764l-8.289,1.165l0.248,1.764L61.782,210.563z M61.099,191.915l0.913,6.499
	l3.194-0.449l-0.913-6.499L61.099,191.915z M62.272,200.271l0.914,6.499l3.194-0.449l-0.913-6.499L62.272,200.271z M69.387,190.75
	l-3.281,0.461l0.914,6.499l3.281-0.461L69.387,190.75z M72.557,150.127c-0.254,0.287-0.429,0.501-0.526,0.642l-1.543-1.582
	c0.457-0.507,0.6-1.157,0.43-1.954l-1.188-8.448l-2.331,0.328l-0.274-1.95l4.317-0.606l1.461,10.397
	c0.311-0.295,0.772-0.771,1.384-1.425c0.458-0.505,0.788-0.868,0.992-1.086c0.118,0.426,0.316,0.997,0.593,1.715
	c0.083,0.178,0.13,0.298,0.138,0.359c-0.155,0.149-0.413,0.406-0.772,0.771c-0.99,0.896-1.708,1.628-2.156,2.197
	C72.984,149.625,72.809,149.838,72.557,150.127L72.557,150.127z M70.771,134.284c-1.387-1.509-2.552-2.702-3.497-3.58l1.471-1.438
	c0.67,0.601,1.621,1.509,2.848,2.724c0.348,0.393,0.622,0.67,0.821,0.832L70.771,134.284z M67.28,199.566l0.914,6.499l3.281-0.461
	l-0.914-6.499L67.28,199.566z M91.269,177.425c-0.199-0.161-0.468-0.407-0.808-0.738c-0.341-0.331-0.609-0.577-0.808-0.738
	c-2.64,0.433-6.417,1.122-11.332,2.066c-1.027,0.206-1.903,0.457-2.624,0.747l-1.323-1.896c0.687-0.538,1.324-1.228,1.911-2.067
	c1.172-1.68,2.266-3.505,3.28-5.479l-7.684,1.08l-0.287-2.042l9.238-1.298l-0.639-4.549l-7.684,1.08l-0.287-2.042l7.684-1.08
	l-0.548-3.899l2.158-0.304l0.548,3.899l7.771-1.092l0.287,2.042l-7.771,1.092l0.639,4.549l9.325-1.311l0.287,2.042l-10.188,1.432
	c-1.082,1.919-2.59,4.34-4.526,7.263l9.963-1.779c-1.02-0.993-2.098-1.977-3.233-2.954l1.398-1.333c0.86,0.7,2.091,1.727,3.69,3.079
	c1.392,1.13,2.451,1.99,3.181,2.583L91.269,177.425z M88.053,133.843c-0.241,0.791-0.491,1.521-0.749,2.188
	c-2.892-1.36-5.354-3.224-7.389-5.588c-1.255,2.765-3.159,5.305-5.709,7.619c-0.441-0.632-0.907-1.229-1.396-1.792
	c2.994-2.503,5.021-5.407,6.083-8.712l2.271-0.13c-0.09,0.202-0.194,0.5-0.314,0.896c-0.107,0.079-0.155,0.149-0.146,0.21
	C82.68,130.906,85.13,132.677,88.053,133.843L88.053,133.843z M78.944,200.577c0.325,2.732,0.135,5.345-0.571,7.843
	c-0.777-0.522-1.333-0.918-1.663-1.187c0.758-2.125,0.802-5.351,0.137-9.676l-1.435-10.212l5.785-0.813l2.583,18.382
	c0.2,1.423-0.382,2.293-1.746,2.612c-0.173,0.024-0.432,0.061-0.777,0.109c-0.395,0.118-0.708,0.194-0.937,0.227
	c-0.009-0.063-0.06-0.213-0.151-0.452c-0.154-0.674-0.31-1.156-0.468-1.449c0.46-0.064,0.95-0.133,1.468-0.206
	c0.699-0.036,0.971-0.39,0.819-1.062l-0.626-4.456L78.944,200.577L78.944,200.577z M80.785,149.16
	c-2.18,0.369-3.396-0.564-3.651-2.8l-1.292-9.191l2.072-0.291l0.587,4.177c2.425-1.539,4.425-3.178,6.001-4.914l1.443,1.501
	c-2.117,2.065-4.499,3.915-7.145,5.548l0.353,2.507c0.058,1.255,0.74,1.726,2.048,1.417l3.108-0.437
	c1.217-0.109,1.805-0.727,1.764-1.857c0.004-0.379,0-1.042-0.015-1.986c-0.013-0.503-0.011-0.913,0.003-1.231
	c0.238,0.03,0.568,0.079,0.989,0.145c0.486,0.121,0.821,0.202,1.002,0.238c0.019,1.386,0.016,2.617-0.009,3.693
	c-0.12,1.657-1.158,2.624-3.115,2.899L80.785,149.16z M77.386,188.867l0.574,4.084l2.331-0.328l-0.574-4.085L77.386,188.867z
	 M78.678,198.058l0.104,0.743l2.331-0.328l-0.574-4.084l-2.332,0.328L78.678,198.058z M88.902,206.277
	c-1.949,0.336-3.038-0.52-3.267-2.57l-1.487-10.583l-0.547,1.118c-0.143-0.169-0.382-0.419-0.722-0.75
	c-0.332-0.269-0.596-0.484-0.795-0.646c1.422-2.409,2.34-5.063,2.755-7.961l1.952,0.104c-0.126,0.775-0.309,1.558-0.55,2.349
	l7.857-1.104c0.505,3.59,0.947,7.157,1.328,10.701c0.348,2.476-0.544,3.863-2.673,4.163c-0.691,0.097-1.526,0.214-2.504,0.352
	c-0.093-0.238-0.231-0.598-0.416-1.078c-0.11-0.363-0.211-0.664-0.303-0.904c0.929-0.067,1.768-0.154,2.517-0.259
	c1.274-0.116,1.778-0.913,1.513-2.39c-0.216-2.368-0.553-5.191-1.015-8.473l-6.821,0.958c-0.331,0.994-0.697,1.93-1.102,2.806
	l6.303-0.886l0.992,7.056l-5.094,0.716l0.561,3.992c0.107,1.184,0.704,1.667,1.789,1.453l4.317-0.607
	c1.274-0.117,1.934-0.65,1.976-1.603c-0.008-0.061-0.002-0.22,0.021-0.477c0.022-0.254,0.017-0.917-0.015-1.986
	c0.676,0.222,1.315,0.383,1.917,0.488c0.015,0.945-0.041,1.805-0.166,2.58c-0.128,1.595-1.146,2.495-3.054,2.701L88.902,206.277z
	 M86.091,193.797l0.482,3.435l3.367-0.473l-0.482-3.435L86.091,193.797z M91.344,139.247l-0.248-1.764l20.462-2.876l0.248,1.764
	l-8.979,1.262l0.313,2.228l7.425-1.043l0.248,1.764l-7.425,1.044l0.326,2.321c2.992-0.421,6.044-0.85,9.152-1.286
	c-0.077,0.705-0.158,1.378-0.244,2.022c-3.971,0.558-6.883,0.935-8.733,1.132c-3.454,0.486-5.933-0.24-7.438-2.173
	c-0.385,1.441-1.37,3-2.953,4.675l-1.431-1.408c2.142-1.878,3.115-4.351,2.92-7.416l1.938,0.012
	c-0.023,0.256-0.029,0.636-0.016,1.138c-0.055,0.45-0.068,0.767-0.042,0.953c1.189,1.79,2.81,2.667,4.86,2.631l-0.887-6.313
	L91.344,139.247z M93.524,135.343l-1.226-8.727l15.023-2.111l1.227,8.727L93.524,135.343z M97.71,158.825
	c-0.323-0.206-0.812-0.549-1.465-1.025c-0.919-0.69-1.635-1.19-2.147-1.497l1-1.655c1.083,0.605,2.34,1.408,3.772,2.405
	L97.71,158.825z M97.967,165.037c-1.175-0.843-2.376-1.654-3.599-2.429l0.987-1.748c1.339,0.758,2.592,1.529,3.759,2.312
	L97.967,165.037z M94.532,128.101l0.261,1.857l10.965-1.541l-0.261-1.857L94.532,128.101z M95.001,131.443l0.274,1.95l10.965-1.542
	l-0.274-1.949L95.001,131.443z M99.533,168.036c-0.38,3.146-0.663,5.93-0.851,8.356l-2.077-0.371
	c0.311-2.378,0.619-5.199,0.924-8.46c0.296,0.022,0.754,0.147,1.374,0.375C99.198,167.957,99.408,167.991,99.533,168.036
	L99.533,168.036z M101.226,160.035c-0.187,0.343-0.525,0.864-1.013,1.563c-0.067-0.053-0.133-0.107-0.199-0.162
	c-0.491-0.561-0.929-0.973-1.318-1.235c1.589-2.053,2.699-4.386,3.331-7l2.111-0.013c-0.193,0.723-0.422,1.385-0.689,1.99
	l10.533-1.48l0.248,1.764l-11.483,1.614c-0.299,0.799-0.664,1.546-1.095,2.237l11.483-1.614c0.003,0.442,0.105,1.374,0.305,2.797
	c0.107,1.184,0.21,2.117,0.305,2.797l1.986-0.279l0.248,1.764l-1.986,0.279c0.07,0.496,0.14,1.211,0.214,2.147
	c0.113,0.805,0.196,1.393,0.248,1.764l1.554-0.218l0.248,1.764l-1.641,0.231c0.197,2.244-0.801,3.488-2.997,3.734
	c-0.921,0.129-1.958,0.275-3.108,0.437c-0.084-0.178-0.209-0.444-0.376-0.799c-0.177-0.417-0.307-0.714-0.39-0.892
	c1.036-0.146,2.042-0.287,3.022-0.424c1.39-0.133,2.04-0.729,1.95-1.789l-10.792,1.517l-0.191-5.748l-1.899,0.267l-0.248-1.764
	l2.072-0.292l-0.226-5.364C101.383,159.697,101.314,159.833,101.226,160.035L101.226,160.035z M105.924,200.379
	c0.304,2.166-0.218,3.88-1.566,5.143l-0.895-0.727c0.923-0.95,1.3-2.234,1.131-3.851l-1.468,0.207l-0.43-3.064l2.849-0.4
	C105.615,198.183,105.741,199.08,105.924,200.379L105.924,200.379z M103.441,160.765l0.116,3.96l8.375-1.177
	c-0.217-1.546-0.4-2.846-0.548-3.899L103.441,160.765z M112.556,169.235c-0.047-0.75-0.201-2.055-0.461-3.912l-8.547,1.202
	l0.203,3.948L112.556,169.235z M108.44,163.754c-0.397-0.323-1.01-0.71-1.836-1.162c-0.389-0.26-0.712-0.468-0.968-0.622
	l0.879-1.259c0.57,0.298,1.396,0.75,2.479,1.355c-0.133-0.107-0.004-0.03,0.385,0.23L108.44,163.754z M109.076,169.535
	c-0.323-0.206-0.777-0.521-1.365-0.944c-0.637-0.352-1.116-0.631-1.438-0.839l0.793-1.247c0.76,0.398,1.719,0.958,2.877,1.678
	L109.076,169.535z M114,127.636l-0.274-1.95l5.871-0.825c0.321-1.054,0.551-2.127,0.692-3.221l2.198-0.025
	c-0.112,0.458-0.255,1.11-0.43,1.954c-0.111,0.458-0.184,0.784-0.215,0.977l11.829-1.662l0.274,1.949l-12.692,1.784
	c-0.425,1.574-1.11,3.375-2.058,5.401l1.709,12.162l-1.985,0.279l-1.357-9.655c-0.636,0.91-1.349,1.894-2.139,2.951
	c-0.384-0.64-0.8-1.308-1.25-2.002c2.243-2.838,3.854-5.779,4.835-8.821L114,127.636z M119.617,158.867l-0.966-6.87l16.75-2.354
	l0.965,6.87l-7.511,1.056c0.242,0.472,0.459,0.977,0.653,1.518l9.065-1.274l0.222,1.579l-20.722,2.912l-0.222-1.578l9.497-1.335
	c-0.242-0.47-0.489-0.973-0.74-1.505l0.345-0.049L119.617,158.867z M126.622,169.243c-1.933,1.28-3.982,2.579-6.145,3.893
	c-0.151-0.232-0.399-0.544-0.748-0.937c-0.16-0.294-0.309-0.524-0.45-0.694c1.936-0.84,3.968-2.04,6.097-3.603L126.622,169.243
	L126.622,169.243z M120.833,153.111l0.196,1.392l12.778-1.795l-0.196-1.393L120.833,153.111z M128.853,171.959
	c-0.576,0.081-1.353,0.19-2.331,0.328l-0.706-1.889c0.641-0.028,1.308-0.089,1.999-0.187c0.864-0.121,1.248-0.523,1.152-1.203
	l-0.287-2.042l-7.166,1.007l-0.652-4.642l15.627-2.196l0.652,4.642l-6.476,0.91l0.326,2.321
	C131.283,170.671,130.571,171.654,128.853,171.959L128.853,171.959z M121.399,134.548l-0.274-1.95l5.267-0.74l-0.613-4.363
	l1.986-0.279l0.613,4.364l5.267-0.74l0.274,1.95l-5.267,0.74l0.861,6.127l6.389-0.898l0.261,1.857l-14.678,2.063l-0.261-1.856
	l6.303-0.886l-0.861-6.127L121.399,134.548z M121.198,155.71l0.209,1.485l12.778-1.796l-0.209-1.485L121.198,155.71z
	 M123.441,196.686l-1.892-13.462l3.022-0.424l-0.483-3.435l1.813-0.255l0.483,3.435l3.022-0.425l1.761,12.533
	c1.296-1.633,2.047-3.602,2.252-5.902l-1.986,0.279l-0.3-2.135l6.176-6.17l-6.648,0.935l-0.274-1.95l9.325-1.311l0.313,2.228
	l-6.176,6.17l8.029-1.128c0.194,1.804,0.443,4.198,0.746,7.185c0.064,0.875,0.123,1.498,0.175,1.869
	c0.391,2.785-0.458,4.261-2.547,4.429c-0.798,0.174-1.599,0.319-2.404,0.433c-0.093-0.24-0.199-0.573-0.316-0.997
	c-0.186-0.48-0.324-0.839-0.416-1.078c0.288-0.04,0.666-0.063,1.136-0.065c0.518-0.073,0.892-0.125,1.122-0.158
	c1.283-0.054,1.813-0.885,1.586-2.495c-0.033-1.067-0.199-2.874-0.498-5.421c-0.048-0.75-0.092-1.28-0.136-1.59l-1.813,0.255
	c0.155,5.28-1.229,9.418-4.154,12.417c-0.274-0.278-0.775-0.712-1.504-1.303c2.761-2.912,4.1-6.541,4.017-10.884l-1.899,0.267
	c-0.074,3.229-1.193,6.132-3.354,8.708c-0.142-0.169-0.377-0.388-0.708-0.658c-0.332-0.269-0.568-0.488-0.709-0.658
	c0.098-0.139,0.249-0.319,0.453-0.537c0.194-0.279,0.345-0.458,0.453-0.537l-2.936,0.413l0.835,5.941l-1.813,0.255l-0.835-5.942
	l-1.468,0.207l0.104,0.743L123.441,196.686z M123.042,164.445l0.261,1.857l11.656-1.639l-0.261-1.856L123.042,164.445z
	 M123.352,184.77l0.521,3.713l1.641-0.231l-0.522-3.713L123.352,184.77z M124.108,190.154l0.535,3.806l1.641-0.23l-0.535-3.806
	L124.108,190.154z M128.187,184.09l-1.727,0.243l0.522,3.713l1.727-0.243L128.187,184.09z M127.751,193.523l1.727-0.243
	l-0.535-3.806l-1.727,0.242L127.751,193.523z M139.347,170.2c-1.907-0.616-4.154-1.153-6.742-1.608l0.741-1.619
	c0.601,0.105,1.479,0.298,2.634,0.577c1.756,0.385,3.112,0.635,4.068,0.753L139.347,170.2z M148.091,140.451l-1.004-7.148
	l-5.612,0.789l0.183,1.3l-2.072,0.291l-2.127-15.132l17.527-2.463l2.127,15.132l-1.986,0.279l-0.183-1.3L149.245,133l1.005,7.148
	L148.091,140.451z M139.818,122.3l0.548,3.899l5.612-0.789l-0.548-3.899L139.818,122.3z M140.64,128.149l0.548,3.899l5.612-0.789
	l-0.548-3.899L140.64,128.149z M144.753,169.913l-1.709-12.162c-0.255,1.11-0.634,2.172-1.136,3.189
	c-0.145-0.61-0.463-1.417-0.957-2.422c1.225-3.391,1.947-7.026,2.165-10.907l1.853,0.023c-0.015,0.319-0.068,0.767-0.163,1.349
	c-0.209,1.86-0.424,3.247-0.648,4.162l2.322,16.525L144.753,169.913z M144.412,180.68l-0.248-1.764l9.411-1.323
	c-0.084-0.177-0.214-0.474-0.39-0.892c-0.251-0.533-0.452-0.915-0.601-1.146l2.206-0.594l1.03,2.317l8.893-1.25l0.248,1.764
	L144.412,180.68z M163.202,165.237c-0.144,0.65-0.223,1.135-0.236,1.453c-2.763,0.388-4.753,0.636-5.971,0.745
	c-3.126,0.312-5.447-0.119-6.961-1.294c-0.445,1.009-1.107,2.144-1.987,3.403c-0.49-0.563-0.914-1.071-1.271-1.525
	c0.097-0.141,0.19-0.311,0.28-0.513c0.839-1.127,1.358-2.021,1.56-2.681c-0.782-0.962-1.612-2.486-2.492-4.573l1.277-0.937
	c0.537,1.313,1.108,2.464,1.717,3.451c0.263-1.046,0.317-2.758,0.159-5.135l-3.108,0.437l-0.261-1.857l2.417-5.357l-2.763,0.389
	l-0.261-1.857l4.576-0.643l0.274,1.949l-2.331,5.345l2.85-0.4l0.13,0.928c0.289,3.306,0.213,5.903-0.225,7.795
	c1.284,1.208,3.395,1.605,6.331,1.193c2.089-0.167,4.218-0.467,6.389-0.897C163.255,164.787,163.223,164.981,163.202,165.237
	L163.202,165.237z M146.17,194.444l-0.248-1.764l9.756-1.371l-0.104-0.743l4.44-2.233l-12.605,1.771l-0.235-1.671l16.318-2.293
	l0.248,1.764l-5.903,3.102l8.893-1.25l0.248,1.764l-8.979,1.262l0.208,1.485c0.3,1.724-0.465,2.748-2.298,3.068
	c-0.979,0.138-2.13,0.3-3.454,0.486c-0.009-0.063-0.022-0.155-0.039-0.279c-0.11-0.363-0.299-0.874-0.567-1.53
	c0.345-0.048,0.838-0.087,1.481-0.113c0.69-0.097,1.179-0.166,1.468-0.207c1.044-0.084,1.477-0.555,1.298-1.413l-0.169-1.207
	L146.17,194.444z M147.989,186.709l-0.691-4.92l14.937-2.099l0.692,4.92L147.989,186.709z M153.287,120.407l-5.698,0.801
	l0.548,3.899l5.698-0.801L153.287,120.407z M148.41,127.057l0.548,3.899l5.699-0.801l-0.548-3.899L148.41,127.057z M149.505,183.088
	l0.261,1.857l11.051-1.553l-0.261-1.857L149.505,183.088z M150.669,153.744l-0.222-1.578l3.885-0.546l-0.248-1.764l-2.936,0.413
	l-0.222-1.578l2.936-0.413l-0.3-2.135l1.727-0.243l0.3,2.135l3.885-0.546l0.47,3.342l1.295-0.182l0.222,1.578l-1.295,0.182
	l0.47,3.342l-3.885,0.546l0.248,1.764l4.23-0.595l0.222,1.578l-4.231,0.595l0.248,1.764l4.49-0.631l0.208,1.485l-4.49,0.631
	l0.339,2.414l-1.727,0.243l-0.339-2.414l-3.799,0.534l-0.209-1.485l3.799-0.534l-0.248-1.764l-3.281,0.461l-0.222-1.578l3.281-0.461
	l-0.248-1.764l-3.108,0.437l-0.209-1.485l3.108-0.437l-0.261-1.857L150.669,153.744z M158.142,149.286l-2.331,0.328l0.248,1.764
	l2.331-0.328L158.142,149.286z M156.542,154.813l2.332-0.328l-0.261-1.856l-2.331,0.328L156.542,154.813z M159.835,122.619
	l-0.274-1.95l2.763-0.388l-0.613-4.363l1.813-0.255l0.613,4.363l2.59-0.364l0.274,1.95l-2.59,0.364l0.339,2.414l0.086-0.012
	c0.19,0.1,0.484,0.311,0.881,0.633c1.149,0.66,1.988,1.205,2.519,1.634l-0.887,1.829c-0.739-0.653-1.495-1.241-2.273-1.763
	l1.565,11.141l-1.813,0.255l-1.631-11.605c-0.24,2.054-0.772,4.117-1.596,6.188c-0.101-0.301-0.253-0.753-0.455-1.356
	c-0.211-0.664-0.363-1.116-0.455-1.356c0.881-2.079,1.487-4.658,1.818-7.734L159.835,122.619z M180.337,164.53
	c-0.682,0.158-1.916,0.364-3.7,0.615c-0.009-0.063-0.018-0.125-0.026-0.186c-0.137-0.549-0.338-1.152-0.606-1.809
	c0.411,0.005,1.159-0.101,2.245-0.315c0.518-0.073,0.892-0.125,1.123-0.158c1.332-0.125,1.862-0.735,1.591-1.833l-0.404-2.878
	c-3.328,3.056-7.845,5.993-13.553,8.816c-0.384-0.642-0.796-1.277-1.237-1.909c4.497-1.83,8.381-4.049,11.655-6.656l-12.26,1.723
	l-0.261-1.857l2.677-0.376l-1.553-11.048l4.921-0.691c0.143-0.65,0.264-1.457,0.365-2.418l2.284-0.037
	c-0.144,0.652-0.307,1.369-0.49,2.152l7.598-1.068l1.305,9.284c0.612-0.654,1.273-1.377,1.984-2.172l1.357,1.513
	c-0.36,0.367-0.923,0.951-1.691,1.753c-0.621,0.593-1.059,1.033-1.311,1.32l0.666,4.735
	C183.367,163.125,182.474,164.292,180.337,164.53L180.337,164.53z M176.627,132.472c-1.297,1.634-2.846,3.146-4.645,4.535
	c-0.508-0.686-0.964-1.223-1.371-1.606c1.924-1.343,3.428-2.753,4.512-4.231c-1.668-1.848-2.996-4.185-3.979-7.015l0.884-0.597
	l-1.813,0.254l0.196,1.393c0.86,4.866,0.368,8.88-1.478,12.042c-0.323-0.207-0.881-0.633-1.676-1.279
	c1.569-2.619,1.987-6.117,1.254-10.496l-1.201-8.541c4.339-0.861,8.202-1.783,11.586-2.764l0.978,1.945
	c-3.114,0.816-6.582,1.62-10.403,2.409l0.47,3.342l9.583-1.347l0.274,1.95c-0.149,3.114-0.874,5.898-2.172,8.352
	c1.448,1.122,3.098,1.995,4.946,2.619l-0.948,2.026C179.676,134.536,178.01,133.539,176.627,132.472L176.627,132.472z
	 M170.712,177.456c-1.069-0.922-2.091-1.725-3.068-2.409l1.1-1.575c1.033,0.676,2.081,1.444,3.141,2.304L170.712,177.456z
	 M171.142,183.644c-0.125-0.044-0.29-0.18-0.497-0.403c-1.233-0.836-2.177-1.493-2.83-1.969l1-1.655
	c1.281,0.767,2.419,1.553,3.414,2.36L171.142,183.644z M168.188,148.25l0.287,2.042l10.792-1.517l-0.287-2.042L168.188,148.25z
	 M168.684,151.778l0.287,2.042l10.792-1.517l-0.287-2.042L168.684,151.778z M179.927,155.973c0.155-0.148,0.257-0.257,0.306-0.327
	l-0.248-1.764l-10.792,1.517l0.287,2.043L179.927,155.973z M172.867,186.525c-0.313,3.201-0.56,6.043-0.738,8.529l-1.904-0.395
	c0.362-3.27,0.579-6.108,0.652-8.517c0.247,0.092,0.791,0.205,1.632,0.338C171.849,186.384,171.969,186.4,172.867,186.525
	L172.867,186.525z M172.19,178.573l-0.274-1.95l3.367-0.473c-0.402-0.763-0.883-1.895-1.446-3.394l1.86-0.546
	c0.109,0.364,0.332,0.9,0.667,1.61c0.352,0.835,0.624,1.522,0.818,2.063l-0.086,0.012l2.159-0.303l0.274,1.95l-4.058,0.57
	l0.383,3.354l3.885-0.546c0.122,0.868,0.275,2.171,0.462,3.911c0.316,2.67,0.528,4.598,0.636,5.78
	c0.252,1.794-0.428,2.806-2.039,3.032c-0.51,0.134-1.053,0.243-1.627,0.323l-0.62-1.901c0.575-0.081,1.006-0.142,1.295-0.182
	c0.986-0.077,1.386-0.573,1.199-1.494c-0.052-0.372-0.106-0.963-0.162-1.776c-0.25-2.615-0.454-4.48-0.61-5.594l-2.245,0.315
	c0.026,0.186,0.048,0.341,0.065,0.464c0.519,4.535,0.156,8.215-1.089,11.041l-1.664-1.186c1.16-2.183,1.498-5.417,1.013-9.705
	c-0.111-1.625-0.314-3.49-0.61-5.594L172.19,178.573z M176.197,129.408c0.965-1.902,1.533-4.128,1.703-6.677l-5.094,0.715
	C173.672,125.851,174.802,127.838,176.197,129.408L176.197,129.408z M181.2,186.301l-0.261-1.857l3.54-0.498l-0.183-1.299
	l1.966-2.927l-4.835,0.68l-0.196-1.393l-0.474,1.013c-0.464-0.375-1.019-0.771-1.664-1.186c1.095-2.237,1.853-4.772,2.276-7.61
	h2.025c-0.206,1.039-0.417,2.046-0.631,3.023l5.439-0.764l0.261,1.856l-6.216,0.874c-0.241,0.792-0.54,1.591-0.896,2.398
	l6.734-0.947l0.274,1.95l-2.173,3.335l0.104,0.743l3.281-0.461l0.261,1.857l-3.281,0.461l0.64,4.549
	c0.292,1.663-0.396,2.612-2.065,2.846c-0.798,0.174-1.541,0.312-2.231,0.408c-0.026-0.186-0.119-0.425-0.277-0.718
	c-0.136-0.549-0.251-0.944-0.342-1.183c0.691-0.097,1.352-0.19,1.986-0.279c0.872-0.061,1.222-0.488,1.052-1.284l-0.574-4.085
	L181.2,186.301z M185.173,133.919l-0.287-2.043l8.116-1.14l-2.609-18.567l2.245-0.316l0.939,6.685l8.548-1.201l0.313,2.228
	l-8.548,1.201l1.357,9.655l10.188-1.432l0.287,2.042L185.173,133.919z M191.872,158.363c-0.071,1.588-0.478,3.286-1.221,5.095
	l-1.81-0.977c0.664-1.544,1.038-3.048,1.126-4.513c0.087-1.463-0.064-3.588-0.455-6.374l-1.122-7.984l8.029-1.128
	c-0.277-0.719-0.607-1.397-0.991-2.038l2.206-0.594l1.203,2.292l7.08-0.995l0.822,5.849l-15.627,2.196l0.287,2.042
	C191.842,154.391,192,156.768,191.872,158.363L191.872,158.363z M190.55,145.2l0.313,2.228l13.728-1.929l-0.313-2.229L190.55,145.2z
	 M190.872,175.093l-0.261-1.857l2.504-0.352c0.131-1.155,0.242-2.243,0.333-3.266l1.925-0.082c-0.006,0.379-0.063,1.019-0.17,1.917
	c-0.103,0.521-0.167,0.908-0.189,1.163l4.403-0.619l0.261,1.857l-4.921,0.692c-0.406,2.961-0.732,5.026-0.978,6.196l2.504-0.352
	l-0.639-4.549l1.64-0.23l0.64,4.549l2.331-0.328l0.261,1.857l-2.332,0.328l0.417,2.971l2.538-0.735
	c0.046,0.751,0.109,1.405,0.188,1.961l-2.465,0.631l0.639,4.549l-1.899,0.267l-0.613-4.364c-1.528,0.404-2.941,0.792-4.239,1.164
	l-0.459-2.018c0.402-0.057,1.056-0.21,1.959-0.465c1.084-0.214,1.911-0.395,2.478-0.538l-0.444-3.157l-3.972,0.559l-0.261-1.857
	c0.03-0.193,0.078-0.484,0.142-0.872c0.251-1.55,0.472-3.316,0.664-5.3L190.872,175.093z M191.944,153.24l-0.248-1.764l7.338-1.031
	c-0.084-0.178-0.214-0.475-0.389-0.892c-0.168-0.355-0.294-0.622-0.376-0.799l2.12-0.582c0.083,0.178,0.217,0.506,0.402,0.985
	c0.176,0.417,0.31,0.746,0.402,0.984l7.08-0.995l0.248,1.764l-10.793,1.517c0.113,0.805,0.184,1.521,0.214,2.147l8.807-1.237
	c0.096,0.682,0.19,1.772,0.284,3.273c-0.006,0.379,0.005,0.662,0.031,0.848c0.237,2.111-0.708,3.318-2.837,3.618
	c-0.289,0.041-0.807,0.113-1.554,0.218c-0.798,0.174-1.368,0.287-1.714,0.335c-0.303-0.904-0.571-1.562-0.805-1.969
	c0.287-0.041,0.777-0.109,1.468-0.207c0.699-0.036,1.25-0.081,1.653-0.138c1.332-0.125,1.945-0.778,1.837-1.962
	c-0.018-0.123-0.061-0.432-0.131-0.928c-0.013-0.503-0.031-0.848-0.057-1.033l-6.994,0.982c0.024,2.269-1.213,4.525-3.715,6.771
	c-0.133-0.108-0.298-0.242-0.497-0.403c-0.54-0.492-0.938-0.815-1.193-0.969c1.627-1.364,2.651-2.645,3.07-3.839
	c0.427-1.132,0.477-2.875,0.146-5.228L191.944,153.24z M212.179,174.465c-0.178,0.404-0.428,1.134-0.749,2.188
	c-2.613-1.463-4.726-3.343-6.339-5.642c-1.051,2.547-2.646,4.979-4.785,7.299c-0.151-0.23-0.475-0.658-0.973-1.283
	c-0.199-0.161-0.336-0.299-0.411-0.416c2.582-2.508,4.265-5.364,5.047-8.567l2.111-0.013l-0.301,0.989
	C207.543,171.552,209.676,173.366,212.179,174.465L212.179,174.465z M206.491,189.749c-2.016,0.284-3.17-0.628-3.466-2.731
	l-1.331-9.47l1.899-0.267l0.574,4.084c1.694-1.31,3.271-2.826,4.732-4.546l1.444,1.501c-1.896,1.971-3.85,3.729-5.862,5.273
	l0.378,2.692c0.099,1.123,0.749,1.566,1.948,1.336l1.986-0.279c1.151-0.162,1.71-0.776,1.678-1.845c0.034-1.014,0-2.083-0.098-3.205
	c0.726,0.151,1.389,0.278,1.991,0.383c0.045,1.572,0.012,2.808-0.096,3.706c0.004,1.704-0.972,2.693-2.928,2.968L206.491,189.749z
	 M208.055,114.513c-0.002,2.083-0.026,4.202-0.076,6.354c-0.116,0.016-0.263,0.006-0.445-0.032c-0.47,0.004-0.766-0.018-0.889-0.064
	c0.08-2.346,0.11-4.433,0.088-6.261L208.055,114.513L208.055,114.513z M211.047,131.417l-3.092-22.002l1.727-0.243l0.691,4.92
	l0.547-1.118c0.91,0.629,1.763,1.267,2.558,1.912l-0.715,1.805c-0.739-0.654-1.5-1.271-2.286-1.856l2.296,16.339L211.047,131.417z
	 M219.891,143.639c-1.914-1.497-3.486-2.665-4.718-3.502c-0.642,1.29-1.405,2.533-2.293,3.73l5.785-0.813l0.235,1.671l-2.332,0.327
	l0.339,2.414l3.799-0.534l0.235,1.671l-3.799,0.534l0.339,2.414l3.108-0.437l1.096,7.798l-1.727,0.243l-0.157-1.114l-4.749,0.667
	l0.156,1.114l-1.727,0.243l-1.096-7.798l3.281-0.461l-0.339-2.414l-4.058,0.57l-0.235-1.671l4.058-0.57l-0.339-2.414l-2.331,0.328
	l-0.144-1.021c-0.146,0.21-0.4,0.499-0.759,0.864c-0.31,0.296-0.515,0.514-0.612,0.654c-0.326-0.648-0.672-1.231-1.038-1.748
	c2.019-1.924,3.487-4.213,4.406-6.867l1.938,0.011c-0.121,0.396-0.25,0.73-0.388,1.001c0.834,0.514,1.936,1.243,3.301,2.187
	c0.711,0.468,1.262,0.833,1.65,1.093L219.891,143.639z M213.833,116.162l-0.926-6.591l11.656-1.638l0.926,6.591L213.833,116.162z
	 M213.658,122.435l-0.666-4.735l13.728-1.929l0.666,4.734L213.658,122.435z M228.917,127.012c-0.299,0.799-0.5,1.458-0.603,1.978
	c-2.767-0.053-5.065-0.33-6.896-0.83c-1.672,1.055-3.849,2.056-6.534,3.001c-0.009-0.063-0.052-0.151-0.125-0.266
	c-0.225-0.347-0.583-0.803-1.072-1.364c2.365-0.711,4.265-1.389,5.702-2.032c-1.123-0.473-2.303-1.348-3.539-2.627l-1.208,0.17
	l-0.196-1.393l12.001-1.686l0.222,1.578c-0.938,1.268-2.04,2.402-3.308,3.399C224.718,127.002,226.57,127.025,228.917,127.012
	L228.917,127.012z M214.349,153.696l0.482,3.435l4.749-0.667l-0.483-3.435L214.349,153.696z M214.902,118.757l0.3,2.135l2.418-0.34
	l-0.3-2.135L214.902,118.757z M214.916,110.708l0.196,1.392l8.03-1.128l-0.196-1.393L214.916,110.708z M215.281,113.308l0.183,1.3
	l8.029-1.128l-0.183-1.3L215.281,113.308z M216.403,187.692l-0.287-2.042l8.116-1.141l-2.609-18.567l2.245-0.315l0.939,6.685
	l8.548-1.202l0.313,2.228l-8.548,1.202l1.357,9.655l10.188-1.432l0.287,2.042L216.403,187.692z M221.27,126.478
	c1.13-0.727,2.144-1.658,3.041-2.794l-6.389,0.898C218.924,125.45,220.04,126.083,221.27,126.478L221.27,126.478z M218.788,118.211
	l0.3,2.135l2.503-0.352l-0.3-2.135L218.788,118.211z M226.002,158.307c-0.863,0.121-1.641,0.23-2.331,0.328
	c-0.145-0.611-0.355-1.275-0.632-1.994c0.526-0.012,1.192-0.073,1.999-0.186c1.045-0.085,1.477-0.555,1.298-1.413l-1.07-7.613
	l-3.799,0.534l-0.274-1.949l4.49-0.631c-1.277-1.146-2.573-2.226-3.889-3.24l1.113-1.481l2.385,1.937l2.466-3.754l-7.167,1.007
	l-0.261-1.856l9.152-1.287l0.313,2.228l-3.186,4.897l0.484,0.311l-0.806,1.155l5.18-0.728l0.222,1.578l-0.263,4.392l-1.667,0.045
	l0.169-3.811l-2.849,0.4l1.148,8.169C228.527,157.067,227.786,158.056,226.002,158.307L226.002,158.307z M225.263,117.301
	l-2.504,0.352l0.3,2.135l2.504-0.352L225.263,117.301z M238.354,114.133c-0.358-0.454-0.739-0.874-1.146-1.259l0.144,1.021
	l-1.899,0.267l0.509,3.621l2.245-0.315l0.261,1.857l-2.245,0.315l0.613,4.363l2.266-0.792c0.113,0.805,0.2,1.425,0.261,1.857
	c-0.837,0.307-2.093,0.768-3.768,1.381c-1.684,0.552-2.973,0.986-3.867,1.301l-0.632-1.994l1.023-0.238l-1.188-8.448l1.554-0.218
	l1.148,8.169c0.501-0.196,1.006-0.362,1.515-0.497l-1.422-10.119l-2.936,0.413l-1.043-7.427l6.562-0.922l0.835,5.941
	c1.177-2.059,2.003-4.542,2.475-7.448l1.952,0.104c-0.126,0.775-0.313,1.528-0.563,2.257l7.338-1.032
	c0.496,3.528,0.942,7.126,1.341,10.793c0.348,2.476-0.514,3.859-2.586,4.15c-0.691,0.097-1.526,0.214-2.504,0.352
	c-0.269-0.656-0.508-1.316-0.719-1.982c0.872-0.059,1.682-0.142,2.431-0.247c1.283-0.053,1.817-0.854,1.599-2.402
	c-0.104-0.743-0.28-2.2-0.527-4.375c-0.295-2.104-0.491-3.496-0.587-4.178l-6.389,0.898c-0.331,0.993-0.693,1.959-1.089,2.898
	l5.698-0.801l0.992,7.056l-4.576,0.643l0.561,3.992c0.107,1.185,0.732,1.663,1.875,1.44l3.972-0.558
	c1.274-0.117,1.934-0.65,1.976-1.604c0.022-0.254,0.043-0.73,0.063-1.429c-0.004-0.44,0.006-0.789,0.029-1.046
	c0.065,0.055,0.19,0.101,0.372,0.137c0.61,0.167,1.125,0.285,1.546,0.351c0.014,0.944-0.041,1.805-0.166,2.58
	c-0.128,1.595-1.176,2.499-3.141,2.713l-5.007,0.704c-1.891,0.328-2.952-0.532-3.181-2.583l-1.474-10.491L238.354,114.133z
	 M231.735,109.004l0.535,3.806l3.195-0.449l-0.535-3.806L231.735,109.004z M256.094,151.993c-0.357,0.808-0.616,1.474-0.775,2.002
	c-5.222-0.402-8.775-2.301-10.662-5.697l-2.072,0.291l0.692,4.92l3.655-1.555c0.012,0.504,0.094,1.091,0.248,1.764
	c-0.78,0.299-1.769,0.784-2.964,1.458c-0.222,0.093-0.386,0.18-0.492,0.258c-0.328,0.172-0.733,0.418-1.217,0.739
	c-0.164,0.085-0.299,0.168-0.405,0.246l-1.258-1.432c0.457-0.507,0.595-1.189,0.417-2.047l-0.574-4.085l-2.331,0.328
	c0.228,2.872-0.202,5.456-1.287,7.754c-0.531-0.431-1.093-0.888-1.69-1.372c0.614-1.474,0.965-2.943,1.053-4.408
	c0.047-1.332-0.146-3.545-0.581-6.64l-1.24-8.82l17.527-2.463l0.783,5.57l-15.541,2.184l0.457,3.249
	c0.061,0.434,0.114,1.025,0.162,1.776c0.096,0.682,0.166,1.176,0.209,1.485l4.144-0.583l-0.339-2.414l-3.885,0.546l-0.235-1.671
	l3.885-0.546l-0.287-2.042l1.899-0.267l0.287,2.042l4.058-0.571l-0.287-2.042l1.9-0.267l0.287,2.042l3.713-0.522l0.235,1.671
	l-3.713,0.521l0.339,2.414l4.576-0.644l0.235,1.671l-8.548,1.201c0.009,0.063,0.046,0.121,0.113,0.173
	c0.971,1.063,1.774,1.771,2.411,2.123c1.645-1.24,2.856-2.231,3.632-2.972l1.258,1.433c-0.213,0.157-0.586,0.43-1.117,0.82
	c-0.958,0.703-1.678,1.215-2.162,1.534C251.785,151.621,253.616,151.9,256.094,151.993L256.094,151.993z M236.844,137.185l0.3,2.135
	l13.642-1.917l-0.3-2.135L236.844,137.185z M240.354,185.374l-2.557-18.196l2.331-0.328c0.022-0.254,0.061-0.607,0.116-1.058
	c0.134-0.712,0.21-1.639,0.226-2.777l2.21,0.068c-0.132,1.155-0.291,2.313-0.48,3.476l3.885-0.546l2.531,18.011l-1.899,0.267
	l-0.248-1.764l-4.403,0.619l0.274,1.95L240.354,185.374z M240.069,168.941l0.717,5.106l4.403-0.619l-0.717-5.106L240.069,168.941z
	 M240.699,113.898l0.47,3.342l2.849-0.4l-0.47-3.342L240.699,113.898z M241.074,176.089l0.744,5.292l4.403-0.619l-0.744-5.292
	L241.074,176.089z M243.911,144.238l0.339,2.414l4.058-0.57l-0.339-2.414L243.911,144.238z M255.609,183.041
	c-1.152,0.162-2.361,0.332-3.626,0.51c-0.154-0.674-0.403-1.396-0.745-2.167c0.756-0.044,1.883-0.17,3.38-0.381
	c1.628-0.103,2.326-0.989,2.091-2.661c-0.076-1.376-0.399-4.298-0.967-8.763c-0.126-1.308-0.227-2.241-0.305-2.797l-5.18,0.728
	c-0.152,0.589-0.413,1.447-0.783,2.571c-0.161,0.529-0.282,0.924-0.361,1.187c-0.57-0.298-1.199-0.589-1.884-0.871
	c1.008-2.855,1.689-5.729,2.046-8.619l2.051,0.186c-0.064,0.388-0.163,0.938-0.296,1.651c-0.126,0.775-0.221,1.356-0.283,1.744
	l6.389-0.898c0.557,3.962,1.093,8.62,1.612,13.974C259.122,181.094,258.075,182.63,255.609,183.041L255.609,183.041z
	 M253.069,176.865c-0.35-0.392-0.873-0.981-1.569-1.768c-0.99-1.187-1.761-2.087-2.317-2.704l1.398-1.332
	c0.489,0.563,1.215,1.344,2.178,2.344c0.821,0.832,1.443,1.501,1.867,2.01L253.069,176.865z M260.369,120.514
	c0.304,2.166-0.218,3.88-1.566,5.143l-0.895-0.727c0.923-0.95,1.3-2.234,1.131-3.851l-1.468,0.207l-0.43-3.063l2.849-0.401
	C260.06,118.318,260.186,119.214,260.369,120.514L260.369,120.514z M273.169,151.484c-0.682,0.158-1.916,0.364-3.699,0.615
	c-0.009-0.063-0.018-0.125-0.026-0.186c-0.136-0.549-0.338-1.152-0.606-1.809c0.411,0.004,1.16-0.101,2.245-0.315
	c0.518-0.073,0.892-0.125,1.122-0.158c1.332-0.125,1.863-0.735,1.592-1.833l-0.405-2.878c-3.328,3.056-7.845,5.993-13.552,8.816
	c-0.385-0.642-0.796-1.277-1.237-1.909c4.497-1.83,8.381-4.049,11.655-6.656l-12.26,1.723l-0.261-1.857l2.676-0.376l-1.552-11.048
	l4.921-0.691c0.143-0.65,0.265-1.457,0.365-2.418l2.284-0.037c-0.144,0.652-0.307,1.369-0.49,2.152l7.598-1.068l1.305,9.284
	c0.613-0.654,1.273-1.377,1.984-2.172l1.357,1.513c-0.36,0.367-0.923,0.951-1.69,1.752c-0.621,0.593-1.059,1.034-1.312,1.32
	l0.666,4.735C276.199,150.079,275.307,151.246,273.169,151.484L273.169,151.484z M265.201,163.041
	c-1.014,1.974-2.101,3.641-3.259,5.002c-0.424-0.508-0.856-1.078-1.297-1.711c1.753-2.14,3.016-4.431,3.788-6.875l2.284-0.037
	c-0.032,0.194-0.142,0.462-0.327,0.803c-0.121,0.396-0.226,0.695-0.314,0.896l14.246-2.002l0.248,1.764L265.201,163.041
	L265.201,163.041z M261.02,135.204l0.287,2.042l10.792-1.517l-0.287-2.042L261.02,135.204z M261.537,173.307l-0.248-1.764
	l2.936-0.413l0.067-5.785l14.419-2.026l0.623,5.688l2.849-0.4l0.248,1.764l-2.936,0.413c0.061,0.434,0.123,1.087,0.188,1.961
	c0.122,0.868,0.184,1.521,0.188,1.962l2.332-0.328l0.248,1.764l-2.504,0.352c0.255,2.236-0.769,3.516-3.07,3.839
	c-1.152,0.162-2.331,0.328-3.54,0.498c-0.437-1.012-0.671-1.642-0.706-1.889c0.354,0.012,1.48-0.113,3.38-0.38
	c1.332-0.125,1.981-0.721,1.95-1.789l-13.814,1.941l0.067-5.784L261.537,173.307z M261.516,138.731l0.287,2.042l10.792-1.517
	l-0.287-2.042L261.516,138.731z M272.759,142.926c0.155-0.147,0.257-0.256,0.306-0.327l-0.248-1.764l-10.792,1.517l0.287,2.042
	L272.759,142.926z M277.799,174.998l-0.375-3.923l-11.138,1.565l-0.057,3.984l6.821-0.958c-0.587-0.422-1.494-1.021-2.717-1.795
	c-0.19-0.099-0.348-0.172-0.471-0.218l1.013-1.562c1.149,0.659,2.236,1.295,3.262,1.908l-1,1.655L277.799,174.998z M266.353,166.855
	l-0.056,3.984l10.965-1.542c-0.068-1.315-0.192-2.624-0.375-3.923L266.353,166.855z M272.673,169.848
	c-1.035-0.674-2.122-1.311-3.262-1.908l0.927-1.55c0.38,0.2,0.95,0.498,1.71,0.896c0.703,0.407,1.245,0.71,1.625,0.908
	L272.673,169.848z M276.97,104.735l-0.274-1.95l8.029-1.128l-0.417-2.971l2.072-0.291l0.417,2.971l8.029-1.128l0.274,1.949
	l-8.03,1.129l0.822,5.849l9.152-1.286l0.274,1.949l-8.289,1.165c2.485,2.239,5.609,3.789,9.37,4.647
	c-0.081,0.265-0.239,0.602-0.474,1.013c-0.17,0.465-0.323,0.834-0.461,1.106c-4.034-1.137-7.06-2.826-9.076-5.068l1.109,7.892
	l-2.072,0.291l-1.122-7.984c-1.583,2.937-4.066,5.527-7.449,7.769c-0.3-0.464-0.787-0.995-1.457-1.594
	c3.284-2.102,5.867-4.611,7.747-7.526l-8.202,1.153l-0.274-1.95l9.152-1.286l-0.82-5.85L276.97,104.735z M281.944,109.432
	c-0.481-0.5-1.227-1.215-2.239-2.147c-0.473-0.438-0.812-0.769-1.02-0.993l1.384-1.425c0.662,0.539,1.608,1.416,2.835,2.631
	c-0.813-0.769-0.676-0.629,0.411,0.416L281.944,109.432z M283.767,132.384c-1.175-0.843-1.337-0.948-0.484-0.311
	c-0.853-0.637-1.92-1.339-3.202-2.106l1.113-1.482c1.586,0.851,2.834,1.59,3.746,2.219L283.767,132.384z M286.205,134.692
	c-1.225,1.308-2.646,2.897-4.261,4.764l-1.53-1.489c1.397-1.333,2.851-2.894,4.36-4.684c0.083,0.177,0.361,0.486,0.834,0.924
	C285.873,134.424,286.071,134.585,286.205,134.692L286.205,134.692z M298.374,132.319c-0.125-0.044-0.306-0.083-0.544-0.113
	c-0.438-0.19-0.863-0.289-1.274-0.294l0.723-2.374l-3.54,0.498l-0.068,0.767c1.246,2.603,3.705,4.023,7.379,4.265
	c-0.072,0.327-0.213,0.788-0.422,1.385c-0.081,0.265-0.141,0.462-0.181,0.593c-3.602-0.566-5.986-1.872-7.154-3.917
	c-0.554,1.909-2.081,3.575-4.58,4.999l2.137,0.173c-0.099,0.141-0.241,0.381-0.427,0.723c-0.196,0.28-0.338,0.521-0.427,0.723
	l11.138-1.565l0.248,1.764l-3.54,0.498c-0.58,1.723-1.482,3.237-2.707,4.546l6.477,0.983l-0.602,1.978
	c-2.606-0.581-5.174-1.104-7.704-1.568c-2.187,1.569-5.571,2.96-10.155,4.172c-0.168-0.355-0.514-0.938-1.038-1.748
	c3.516-0.873,6.32-1.802,8.412-2.792l-5.787-1.08c0.293-0.42,0.699-1.076,1.22-1.97c0.235-0.412,0.426-0.723,0.573-0.933
	l-5.267,0.74l-0.248-1.764l6.648-0.934c0.146-0.21,0.333-0.551,0.56-1.025c0.235-0.412,0.397-0.719,0.487-0.92
	c-0.492,0.258-0.984,0.517-1.476,0.775c-0.093-0.239-0.354-0.644-0.787-1.215c-0.207-0.223-0.349-0.392-0.423-0.509
	c3.388-1.359,5.241-3.009,5.556-4.946c0.201-0.658,0.286-1.302,0.257-1.93l-2.59,0.364c-0.437,1.072-1.07,2.202-1.9,3.391
	c-0.199-0.161-0.527-0.399-0.981-0.714c-0.315-0.146-0.537-0.271-0.669-0.379c1.287-1.696,2.157-3.648,2.61-5.858l1.938,0.012
	c-0.032,0.194-0.079,0.484-0.142,0.872c-0.121,0.396-0.197,0.69-0.228,0.884l9.152-1.286l0.235,1.671L298.374,132.319z
	 M284.497,168.941l-0.339-2.414l20.98-2.949l0.339,2.414L284.497,168.941z M287.669,143.859c1.615,0.215,3.267,0.488,4.958,0.818
	c1.316-1.068,2.278-2.371,2.884-3.909l-6.648,0.935C288.432,142.396,288.033,143.114,287.669,143.859L287.669,143.859z
	 M293.748,104.46c-1.009,1.594-1.855,2.88-2.539,3.859l-1.577-1.198c0.994-1.276,1.837-2.592,2.526-3.953l1.737,1.082
	C293.845,104.32,293.796,104.391,293.748,104.46L293.748,104.46z M299.491,104.692l-0.3-2.135l2.417-0.34l-0.809-5.756l1.899-0.267
	l0.809,5.756l2.245-0.315l0.3,2.135l-2.245,0.316l1.031,7.334c0.647-0.406,1.299-0.782,1.955-1.127
	c0.096,0.682,0.239,1.292,0.434,1.833c1.288-1.696,2.05-3.791,2.287-6.286l-2.59,0.364l-0.287-2.042l7.631-6.469l-7.771,1.092
	l-0.261-1.856l10.965-1.541l0.3,2.135l-7.558,6.364l9.497-1.334l0.934,9.146c0.374,2.66-0.509,4.11-2.647,4.348l-2.577,0.457
	c-0.093-0.24-0.244-0.692-0.455-1.356c-0.11-0.363-0.173-0.607-0.19-0.731c0.526-0.012,1.308-0.089,2.344-0.234
	c1.283-0.055,1.846-0.858,1.686-2.415c-0.048-0.75-0.199-2.244-0.454-4.48c-0.108-1.183-0.201-2.054-0.279-2.611l-2.245,0.315
	c0.058,5.421-1.348,9.624-4.214,12.615c-0.473-0.439-1.037-0.896-1.69-1.372c2.679-2.649,4.044-6.311,4.091-10.989l-2.417,0.339
	c-0.16,3.873-1.523,7.125-4.087,9.758c-0.125-0.045-0.356-0.234-0.696-0.565c-0.397-0.323-0.696-0.565-0.895-0.727
	c0.466-0.444,0.894-0.945,1.285-1.506c-0.927,0.509-2.312,1.304-4.155,2.383c-0.697,0.477-1.208,0.801-1.536,0.973l-0.818-2.063
	l2.62-1.409l-1.135-8.077L299.491,104.692z M315.349,153.622c-1.45,4.307-3.662,7.993-6.634,11.062
	c-0.216-0.285-0.611-0.797-1.185-1.538c-0.084-0.178-0.159-0.293-0.225-0.347c2.754-2.532,4.73-5.808,5.927-9.827L315.349,153.622
	L315.349,153.622z M310.788,142.51c0.304,2.166-0.218,3.88-1.566,5.143l-0.895-0.726c0.923-0.951,1.3-2.234,1.132-3.852
	l-1.468,0.207l-0.431-3.064l2.849-0.4C310.479,140.313,310.605,141.21,310.788,142.51L310.788,142.51z M321.846,173.537
	c-0.912,0.19-2.031,0.38-3.354,0.566c-0.008-0.063-0.017-0.125-0.026-0.186c-0.247-0.912-0.453-1.546-0.619-1.901
	c0.978-0.137,2.128-0.299,3.453-0.485c1.514-0.087,2.153-0.965,1.919-2.636c-0.03-0.626-0.124-1.718-0.284-3.274
	c-0.091-1.06-0.17-1.837-0.238-2.333l-6.39,0.898c0.073,0.936,0.075,1.788,0.007,2.555c0.216,3.631-1.588,6.661-5.414,9.092
	c-0.3-0.464-0.791-1.025-1.47-1.687c3.311-1.917,4.931-4.385,4.858-7.404c-0.026-0.186-0.032-0.437-0.018-0.755
	c-0.03-0.626-0.042-1.13-0.036-1.51l-3.54,0.498l-0.274-1.95l14.159-1.99c0.071,0.937,0.224,2.43,0.454,4.48
	c0.117,1.688,0.228,2.872,0.322,3.552C325.671,171.735,324.501,173.226,321.846,173.537L321.846,173.537z M327.959,160.654
	c-0.268,0.606-0.466,1.076-0.595,1.409c-4.05-2.082-7.15-5.149-9.305-9.201l1.795-1.01c2.071,3.875,4.876,6.51,8.417,7.905
	C328.232,159.891,328.127,160.189,327.959,160.654L327.959,160.654z M323.773,102.224l-1.096-7.798l9.758-1.372l1.096,7.799
	L323.773,102.224z M329.461,114.489c-0.093-0.24-0.208-0.634-0.343-1.183c-0.177-0.417-0.276-0.718-0.304-0.904
	c0.287-0.041,0.694-0.066,1.223-0.077c0.518-0.073,0.893-0.125,1.122-0.158c1.282-0.055,1.829-0.762,1.639-2.124
	c-0.062-0.433-0.133-1.148-0.214-2.147c-0.139-0.989-0.211-1.706-0.214-2.147l-3.626,0.51c0.38,3.544-0.625,6.62-3.018,9.229
	c-0.729-0.593-1.287-1.019-1.677-1.279c2.14-2.32,3.069-4.881,2.794-7.683l-3.193,0.449l-0.262-1.857l3.28-0.461l-0.2-2.055
	l1.899-0.267l0.2,2.055l5.525-0.776c0.047,0.751,0.176,2.09,0.389,4.016c0.115,1.247,0.213,2.147,0.291,2.705
	c0.371,2.22-0.514,3.448-2.65,3.686L329.461,114.489z M324.854,96.108l0.561,3.992l5.871-0.825l-0.561-3.992L324.854,96.108z
	 M331.511,136.566c0.25,2.616-0.192,5.107-1.325,7.476c-0.638-0.353-1.299-0.669-1.982-0.952c0.701-1.677,1.104-3.215,1.199-4.618
	c0.097-1.401-0.061-3.556-0.469-6.466l-1.278-9.098l17.526-2.463l2.492,17.732c0.393,1.964-0.418,3.088-2.433,3.372
	c-0.921,0.129-1.843,0.259-2.763,0.388c-0.146-0.611-0.359-1.308-0.646-2.087c0.229-0.032,0.604-0.084,1.123-0.158
	c0.525-0.012,0.934-0.036,1.222-0.077c1.103-0.092,1.56-0.598,1.371-1.518l-0.481-3.435l-5.785,0.813l0.927,6.592l-2.071,0.291
	l-0.928-6.591L331.511,136.566L331.511,136.566z M330.014,124.659l0.562,3.992l5.526-0.776l-0.562-3.992L330.014,124.659z
	 M331.506,159.111c-0.433-0.569-0.919-1.102-1.457-1.594c0.987-2.158,1.664-4.651,2.03-7.48l2.051,0.185
	c-0.157,0.969-0.343,1.942-0.558,2.919l3.799-0.534l0.248,1.764l-4.576,0.643c-0.111,0.458-0.318,1.086-0.615,1.885
	c-0.13,0.335-0.215,0.567-0.255,0.698l5.181-0.728l0.262,1.857l-2.331,0.328l0.418,2.971l2.849-0.4l0.262,1.857l-2.85,0.4
	l0.665,4.735c0.785-0.679,1.619-1.426,2.502-2.245c0.161,0.734,0.377,1.431,0.646,2.086c-1.023,0.648-2.084,1.46-3.18,2.435
	c-0.164,0.085-0.367,0.303-0.611,0.654c-0.155,0.147-0.258,0.257-0.307,0.327l-1.443-1.501c0.398-0.499,0.552-1.086,0.455-1.768
	l-0.625-4.456l-2.678,0.376l-0.261-1.857l2.677-0.376l-0.418-2.971l-1.468,0.207l-0.13-0.928L331.506,159.111z M331.02,131.808
	c0.139,0.991,0.27,1.919,0.392,2.785l5.524-0.777l-0.562-3.992l-5.524,0.777L331.02,131.808z M336.945,108.23l-1.983-14.111
	l1.899-0.267l1.982,14.111L336.945,108.23z M341.216,112.932c-1.036,0.146-2.13,0.299-3.28,0.461
	c-0.162-0.734-0.381-1.461-0.658-2.18c0.871-0.06,1.826-0.162,2.861-0.308c1.219-0.109,1.723-0.683,1.519-1.728l-2.53-18.011
	l1.984-0.279l2.609,18.568C344.113,111.419,343.279,112.578,341.216,112.932L341.216,112.932z M343.396,122.778l-5.785,0.813
	l0.562,3.992l5.784-0.813L343.396,122.778z M338.445,129.533l0.562,3.992l5.784-0.813l-0.562-3.992L338.445,129.533z
	 M345.816,170.732l-1.057-7.52l-3.021,0.424l0.156,1.114l-1.812,0.255l-1.592-11.326l4.835-0.68l-0.601-4.271l1.898-0.267
	l0.602,4.271l4.748-0.667l1.592,11.326l-1.812,0.255l-0.156-1.114l-2.936,0.413l1.057,7.52L345.816,170.732z M340.577,155.375
	l0.888,6.313l3.021-0.425l-0.887-6.313L340.577,155.375z M348.436,154.271l-2.937,0.413l0.887,6.313l2.937-0.413L348.436,154.271z
	 M347.975,100.336l-1.148-8.17l2.072-0.291l0.86,6.127l5.267-0.74L353.864,89l2.157-0.303l1.162,8.262l5.267-0.74l-0.861-6.127
	l2.072-0.291l1.147,8.17l-7.338,1.031l1.227,8.727l5.957-0.837l-0.86-6.127l1.985-0.279l1.253,8.913l-1.986,0.279l-0.13-0.929
	l-16.146,2.27l-1.121-7.984l2.072-0.291l0.859,6.127l5.958-0.837l-1.228-8.726L347.975,100.336z M354.777,136.891
	c-0.879,1.26-1.611,2.53-2.192,3.811l-1.437-2.07c0.789-1.058,1.576-2.146,2.357-3.266l-0.99-7.056l-2.504,0.352l-0.301-2.136
	l4.489-0.631l1.253,8.913c1.411,1.695,3.327,2.373,5.744,2.033c3.223-0.453,6.878-0.967,10.965-1.541
	c-0.17,0.465-0.309,1.147-0.416,2.046c-5.008,0.704-8.582,1.174-10.721,1.412C358.494,139.114,356.412,138.491,354.777,136.891
	L354.777,136.891z M353.111,123.776c-0.657-0.916-1.787-2.272-3.391-4.068l1.584-1.264c0.557,0.617,1.428,1.598,2.615,2.946
	c0.415,0.448,0.691,0.755,0.834,0.924L353.111,123.776z M354.902,154.032c-0.344-0.771-0.846-1.836-1.506-3.196
	c-0.187-0.479-0.356-0.864-0.516-1.159l1.156-0.541c0.074,0.117,0.189,0.321,0.352,0.613c0.885,1.707,1.467,2.918,1.742,3.637
	L354.902,154.032z M361.673,162.737c-0.424-0.508-1.085-1.235-1.979-2.183c-0.198-0.162-0.336-0.299-0.41-0.416l1.199,8.541
	l-1.727,0.243l-1.199-8.541c-0.396,2.202-1.002,4.15-1.82,5.842c-0.11-0.363-0.334-0.9-0.668-1.61
	c-0.102-0.301-0.188-0.509-0.264-0.626c1.039-1.787,1.762-4.16,2.17-7.121l-2.851,0.4l-0.248-1.764l2.937-0.413l-1.148-8.169
	l1.729-0.243l1.146,8.17l2.591-0.364l0.248,1.764l-2.591,0.364l0.365,2.6l0.76-0.864c1.367,1.386,2.359,2.382,2.973,2.99
	L361.673,162.737z M356.023,126.965l-0.273-1.95l14.246-2.002l0.273,1.95l-7.166,1.007c-0.979,2.221-2.01,4.291-3.09,6.209
	c0.402-0.056,1.002-0.172,1.801-0.348c2.343-0.455,4.031-0.756,5.067-0.902c-0.854-1.078-1.666-2.038-2.43-2.877l1.511-1.159
	c0.979,1.125,2.479,2.808,4.495,5.048c0.28,0.339,0.493,0.593,0.636,0.763l-1.57,1.357l-1.172-1.445
	c-3.494,0.618-6.182,1.122-8.062,1.512c-0.922,0.129-1.628,0.323-2.119,0.582l-1.15-1.921c0.483-0.319,0.94-0.826,1.371-1.518
	c0.698-1.296,1.463-2.951,2.297-4.961L356.023,126.965z M356.584,120.922l-0.273-1.95l11.655-1.638l0.273,1.95L356.584,120.922z
	 M360.911,148.549c-0.253,1.55-0.558,3.141-0.915,4.768l-1.359-0.282c0.414-1.635,0.721-3.226,0.914-4.768L360.911,148.549
	L360.911,148.549z M361.486,149.509l-0.209-1.485l4.834-0.679l-0.272-1.95l1.899-0.267l0.272,1.95l5.354-0.752l0.207,1.485
	l-5.353,0.752l0.21,1.485l4.834-0.68l0.195,1.393l-4.835,0.679l0.222,1.578l5.698-0.801l0.209,1.485l-12.778,1.796l-0.207-1.485
	l5.18-0.728l-0.223-1.578l-4.402,0.619l-0.195-1.393l4.402-0.619l-0.209-1.485L361.486,149.509z M364.54,168.109l-1.578-11.233
	l10.792-1.517l1.176,8.355c0.299,1.724-0.408,2.739-2.127,3.044c-0.23,0.032-0.604,0.085-1.121,0.158
	c-0.684,0.158-1.227,0.267-1.629,0.323c-0.193-0.541-0.424-1.14-0.691-1.796c0.582-0.02,1.423-0.105,2.517-0.259
	c0.987-0.077,1.392-0.543,1.212-1.401l-0.104-0.743l-7.166,1.007l0.535,3.807L364.54,168.109z M364.971,158.014l0.234,1.671
	l7.166-1.007l-0.234-1.671L364.971,158.014z M365.4,161.077l0.223,1.578l7.166-1.007l-0.223-1.579L365.4,161.077z M372.033,102.547
	c-0.016,0.318-0.038,0.573-0.068,0.767c-0.678-0.22-1.402-0.371-2.177-0.451c0.426-2.394,0.813-5.479,1.165-9.252l2.076,0.371
	C372.879,95.833,372.547,98.688,372.033,102.547L372.033,102.547z M373.139,125.41l-0.273-1.95l10.016-1.408l0.273,1.95
	l-4.489,0.631c-0.653,2.87-1.285,5.482-1.892,7.84c0.401-0.057,1.026-0.207,1.873-0.453c1.314-0.247,2.283-0.447,2.908-0.599
	c-0.242-0.47-0.597-1.114-1.062-1.933c-0.477-0.879-0.831-1.523-1.064-1.933l1.551-0.88c0.84,1.396,2.041,3.469,3.603,6.215
	c1.25-2.384,1.542-6.148,0.878-11.294c-0.025-0.186-0.027-0.406-0.005-0.662c-0.044-0.309-0.074-0.525-0.093-0.65l-2.676,0.376
	l-0.273-1.95l2.677-0.376c-0.151-1.493-0.34-3.044-0.565-4.654l1.984-0.279c0.143,1.433,0.332,2.983,0.566,4.654l5.525-0.777
	c0.885,7.134,1.404,11.669,1.56,13.603c0.256,2.236-0.562,3.518-2.452,3.848c-0.863,0.121-1.844,0.259-2.936,0.413
	c-0.229-0.789-0.474-1.481-0.732-2.075c0.288-0.041,0.72-0.101,1.296-0.182c0.574-0.081,1.006-0.141,1.295-0.182
	c1.218-0.109,1.709-0.775,1.479-2.006c-0.318-3.932-0.726-7.661-1.222-11.189l-3.626,0.509c0.062,0.434,0.126,0.898,0.196,1.393
	c0.869,6.189,0.067,11.13-2.407,14.823c-0.248-0.092-0.624-0.26-1.128-0.504c-0.38-0.199-0.665-0.349-0.854-0.448
	c0.293-0.42,0.654-0.977,1.086-1.667c0.139-0.271,0.23-0.442,0.281-0.513l-1.59,0.602c-0.084-0.178-0.195-0.352-0.337-0.521
	c-0.567,0.144-1.308,0.311-2.219,0.501c-1.422,0.327-2.503,0.574-3.242,0.74c-0.683,0.159-1.272,0.337-1.772,0.533l-1.025-1.655
	c0.352-0.428,0.65-1.006,0.9-1.736c0.586-2.102,1.037-4.312,1.357-6.628L373.139,125.41z M373.301,119.044l-0.273-1.95l8.201-1.153
	l0.274,1.95L373.301,119.044z M379.637,107.158c-2.295,0.385-3.587-0.665-3.876-3.147l-1.84-13.09l2.072-0.291l1.774,12.625
	c0.142,1.433,0.869,2.024,2.187,1.776l3.106-0.438c1.383-0.194,2.043-0.917,1.984-2.172c0.004-0.379,0.008-0.979,0.012-1.8
	c-0.031-0.626-0.037-1.098-0.022-1.417c0.726,0.151,1.483,0.328,2.274,0.532c0.004,0.442-0.005,1.011-0.023,1.708
	c0.007,0.884-0.018,1.55-0.071,1.998c-0.149,1.851-1.296,2.896-3.435,3.134L379.637,107.158z M381.066,92.283
	c-1.312-1.393-3.071-3.071-5.284-5.032l1.259-1.691c1.921,1.561,3.703,3.171,5.346,4.834L381.066,92.283z M386.152,145.377
	c-3.756,0.844-6.834,1.497-9.233,1.96c-0.084-0.178-0.183-0.448-0.29-0.812c-0.186-0.479-0.32-0.807-0.402-0.985
	c3.848-0.603,7.5-1.338,10.961-2.203l0.592,1.715C387.436,145.103,386.891,145.211,386.152,145.377L386.152,145.377z
	 M379.096,152.807c-0.644-1.235-1.345-2.462-2.102-3.681l1.562-0.788c0.149,0.232,0.416,0.668,0.801,1.308
	c0.684,1.104,1.142,1.86,1.375,2.268L379.096,152.807z M378.111,156.448l-0.262-1.856l4.575-0.643l-0.233-1.671l1.812-0.255
	l0.234,1.671l4.318-0.607l0.26,1.857l-4.316,0.606l0.365,2.6l0.646-1.038c1.578,0.789,3.074,1.62,4.489,2.493l-0.975,1.841
	c-0.646-0.414-1.547-0.981-2.705-1.703c-0.578-0.36-1.029-0.644-1.353-0.852l0.874,6.22l-1.812,0.255l-0.967-6.87
	c-0.719,1.994-1.912,3.93-3.586,5.806c-0.16-0.294-0.445-0.664-0.859-1.11c-0.151-0.23-0.264-0.404-0.338-0.521
	c1.797-1.83,3.179-4.106,4.146-6.831L378.111,156.448z M382.492,151.288c-0.378-1.02-0.906-2.271-1.584-3.754l1.589-0.602
	c0.575,1.182,1.134,2.429,1.67,3.741L382.492,151.288z M388.864,99.519c-0.776-1.342-2.093-3.398-3.948-6.167
	c-0.367-0.516-0.625-0.89-0.773-1.122l1.756-1.289c0.365,0.517,0.887,1.296,1.562,2.337c1.548,2.244,2.625,3.86,3.233,4.847
	L388.864,99.519z M388.055,147.003c-0.266,1.047-0.719,2.626-1.359,4.735l-1.659-0.524c0.659-1.986,1.094-3.498,1.3-4.537
	L388.055,147.003L388.055,147.003z M395.902,143.344c-1.555,2.301-3.592,4.514-6.11,6.634l-1.37-1.606
	c2.291-1.647,4.26-3.723,5.904-6.227L395.902,143.344L395.902,143.344z M398.641,155.93c-1.771,3.278-4.449,6.147-8.035,8.608
	c-0.422-0.508-0.914-1.071-1.47-1.687c3.359-1.987,5.997-4.724,7.915-8.212L398.641,155.93L398.641,155.93z M397.223,149.597
	c-1.742,2.644-3.799,4.921-6.172,6.832c-0.396-0.323-0.879-0.823-1.443-1.501c2.373-1.91,4.386-4.086,6.039-6.529L397.223,149.597
	L397.223,149.597z M392.639,87.626l-0.248-1.764l4.06-0.57l-0.313-2.229l1.899-0.267l0.312,2.228l3.973-0.558l0.248,1.764
	l-3.973,0.558l0.313,2.228l5.354-0.752c-0.488-2.644-0.842-4.741-1.06-6.289l1.985-0.279c0.19,1.362,0.544,3.459,1.061,6.289
	l6.476-0.91l0.247,1.764l-6.389,0.898c0.599,3.009,1.128,5.112,1.591,6.309c0.812-1.754,1.482-3.647,2.021-5.68l1.856,0.686
	c-0.796,2.7-1.752,5.074-2.873,7.125l0.112,0.174c0.952,1.76,1.773,2.591,2.464,2.494c0.346-0.048,0.574-0.301,0.687-0.759
	c0.005-0.379-0.01-1.102-0.041-2.172c-0.014-0.502-0.008-0.882,0.017-1.138c0.181,0.038,0.485,0.121,0.915,0.25
	c0.363,0.076,0.64,0.163,0.829,0.262c0.032,1.069-0.008,2.242-0.121,3.52c-0.041,0.131-0.057,0.228-0.048,0.291
	c-0.132,1.155-0.74,1.839-1.824,2.055c-1.381,0.194-2.751-0.782-4.108-2.925c-1.005,1.213-2.108,2.536-3.315,3.969
	c-0.415-0.448-0.946-0.877-1.59-1.292c1.708-1.627,2.983-3.196,3.829-4.704c-0.956-2.2-1.749-4.928-2.384-8.186l-12.521,1.76
	l-0.247-1.764l5.18-0.728l-0.312-2.228L392.639,87.626z M393.036,96.091l-0.235-1.671l5.354-0.752
	c-0.458-0.755-0.899-1.388-1.323-1.896l1.834-0.731c0.723,0.973,1.244,1.751,1.562,2.337l3.972-0.558l0.234,1.671l-4.836,0.68
	c-0.617,1.034-1.215,2.002-1.793,2.903l0.613,4.363c0.155-0.147,0.503-0.386,1.044-0.715c0.909-0.632,1.552-1.07,1.93-1.313
	c0.097,0.682,0.23,1.231,0.407,1.647c-0.976,0.578-2.16,1.345-3.552,2.298c-0.099,0.14-0.282,0.291-0.552,0.456
	c-0.214,0.156-0.373,0.273-0.479,0.352l-1.158-1.352c0.467-0.444,0.621-1.003,0.47-1.675l-0.313-2.228
	c-0.66,0.725-1.414,1.43-2.256,2.116c-0.075-0.115-0.225-0.347-0.449-0.694c-0.232-0.408-0.426-0.729-0.574-0.96
	c1.856-1.397,3.359-3.028,4.507-4.894L393.036,96.091z M398.541,132.166l-2.492-17.732l5.785-0.813l2.257,16.061l-3.972,0.558
	l0.234,1.671L398.541,132.166z M398.123,116.036l1.735,12.348l2.244-0.316l-1.734-12.347L398.123,116.036z M404.25,101.331
	c-0.513-0.307-1.252-0.771-2.221-1.392c-1.414-0.874-2.501-1.509-3.263-1.909l0.939-1.457l1.639,1
	c0.709-0.793,1.328-1.607,1.857-2.438l1.465,1.025c-0.645,0.848-1.271,1.599-1.884,2.253l2.406,1.46L404.25,101.331z
	 M404.283,119.146c-0.351-0.392-0.826-0.862-1.432-1.409c1.606-1.93,2.799-4.306,3.576-7.129l1.938,0.011
	c-0.072,0.327-0.213,0.788-0.422,1.385c-0.081,0.264-0.142,0.462-0.182,0.593l5.698-0.801l0.248,1.764l-1.555,3.343l3.279-0.461
	l0.953,6.777l1.381-0.194l0.262,1.857l-5.611,0.789c1.242,2.161,3.321,3.384,6.238,3.667c-0.17,0.465-0.396,1.159-0.676,2.083
	c-3.15-0.693-5.385-2.179-6.701-4.455c-0.378,2.325-2.333,4.494-5.865,6.505c-0.433-0.571-0.898-1.168-1.396-1.792
	c3.644-1.648,5.579-3.529,5.811-5.645l-5.525,0.776l-0.261-1.856l1.381-0.194l-0.835-5.941L404.283,119.146z M407.584,161.393
	c-1.869,0.073-3.057-0.865-3.564-2.813c-0.122-2.127,0.753-3.419,2.625-3.872c1.982-0.089,3.21,0.907,3.679,2.986
	C410.428,159.699,409.515,160.932,407.584,161.393L407.584,161.393z M411.639,113.852l-4.662,0.655
	c-0.258,0.668-0.717,1.584-1.373,2.75c-0.139,0.272-0.257,0.478-0.354,0.618l4.748-0.667L411.639,113.852z M406.841,156.101
	c-1.077,0.278-1.586,1.043-1.525,2.297c0.263,1.037,0.948,1.538,2.061,1.509c1.134-0.286,1.684-0.961,1.652-2.031
	C408.737,156.655,408.009,156.064,406.841,156.101L406.841,156.101z M406.446,119.505l0.705,5.013l2.763-0.388
	c-0.03-0.626-0.146-1.651-0.345-3.076l-0.273-1.949L406.446,119.505z M409.978,86.325c-0.945-0.876-2.071-1.792-3.379-2.744
	l1.14-1.296c0.711,0.468,1.62,1.098,2.729,1.889c0.331,0.27,0.597,0.484,0.795,0.646L409.978,86.325z M413.958,118.449l-2.85,0.4
	l0.262,1.857c0.052,0.371,0.104,0.964,0.161,1.776c0.087,0.619,0.151,1.083,0.194,1.393l2.937-0.413L413.958,118.449z
	 M418.002,102.235l-2.557-18.196l2.331-0.327c0.021-0.255,0.061-0.608,0.114-1.058c0.135-0.713,0.21-1.639,0.227-2.777l2.211,0.068
	c-0.132,1.155-0.291,2.313-0.479,3.476l3.886-0.546l2.53,18.01l-1.898,0.267l-0.248-1.764l-4.403,0.619l0.274,1.95L418.002,102.235z
	 M417.718,85.803l0.718,5.106l4.403-0.619l-0.718-5.106L417.718,85.803z M418.735,111.812l-0.234-1.67l9.411-1.323l0.234,1.671
	l-2.505,0.352l0.404,2.878l2.159-0.303l2.283,16.247l-1.469,0.206l-0.183-1.3l-5.612,0.789l0.184,1.3l-1.555,0.219l-2.282-16.247
	l2.244-0.315l-0.404-2.878L418.735,111.812z M418.723,92.951l0.743,5.292l4.403-0.619l-0.743-5.292L418.723,92.951z
	 M421.175,116.013l0.796,5.663c0.716-1.173,0.874-2.963,0.479-5.369l-0.065-0.464L421.175,116.013z M427.078,121.053
	c-1.036,0.146-1.646-0.431-1.828-1.731l-0.535-3.807l-1.122,0.158l0.065,0.464c0.506,2.769,0.308,4.912-0.594,6.426
	c-0.151-0.23-0.444-0.442-0.883-0.633l0.262,1.857l5.611-0.789l-0.287-2.042L427.078,121.053z M422.666,125.366l0.352,2.506
	l5.612-0.789l-0.353-2.507L422.666,125.366z M422.967,111.217l0.404,2.878l1.122-0.158l-0.404-2.878L422.967,111.217z
	 M433.258,99.902c-1.15,0.162-2.359,0.332-3.626,0.509c-0.153-0.673-0.401-1.396-0.745-2.167c0.756-0.044,1.883-0.17,3.381-0.38
	c1.629-0.103,2.326-0.99,2.092-2.661c-0.076-1.377-0.398-4.299-0.968-8.763c-0.126-1.308-0.228-2.24-0.306-2.797l-5.18,0.729
	c-0.153,0.589-0.413,1.447-0.783,2.571c-0.161,0.528-0.282,0.924-0.362,1.187c-0.568-0.299-1.197-0.589-1.883-0.872
	c1.008-2.854,1.688-5.729,2.046-8.619l2.052,0.185c-0.063,0.388-0.162,0.938-0.297,1.651c-0.126,0.775-0.221,1.356-0.282,1.744
	l6.39-0.898c0.557,3.961,1.093,8.62,1.611,13.974C436.771,97.956,435.724,99.492,433.258,99.902L433.258,99.902z M427.133,115.176
	l-1.295,0.182l0.469,3.342c0.047,0.751,0.383,1.051,1.009,0.9l0.432-0.061L427.133,115.176z M430.718,93.727
	c-0.35-0.392-0.873-0.981-1.568-1.768c-0.989-1.187-1.762-2.087-2.317-2.704l1.396-1.333c0.489,0.563,1.217,1.344,2.18,2.345
	c0.82,0.831,1.442,1.501,1.867,2.01L430.718,93.727z M430.229,116.54l-1.147-8.169l9.152-1.287l1.147,8.17L430.229,116.54z
	 M431.551,124.685l-0.209-1.485l3.799-0.534l-0.339-2.414l-2.85,0.4c-0.176,0.846-0.465,1.707-0.869,2.583
	c-0.397-0.323-0.854-0.637-1.366-0.944c0.673-1.482,1.061-3.115,1.161-4.897l1.594,0.06c-0.031,0.194-0.051,0.48-0.056,0.86
	c-0.072,0.327-0.099,0.551-0.081,0.674l2.244-0.315l-0.326-2.321l1.729-0.243l0.325,2.321l3.712-0.521l0.223,1.578l-3.712,0.522
	l0.339,2.414l3.54-0.498l0.209,1.486l-3.54,0.497l0.326,2.321l4.402-0.619l0.248,1.764l-10.879,1.529l-0.248-1.764l4.749-0.667
	l-0.326-2.321L431.551,124.685z M431.043,109.798l0.235,1.671l5.783-0.812l-0.233-1.671L431.043,109.798z M431.486,112.955
	l0.234,1.671l5.784-0.813l-0.234-1.671L431.486,112.955z M437.894,80.978l-0.247-1.764l9.497-1.335l-0.792-1.877l2.22-0.501
	l0.816,2.063l9.065-1.274l0.248,1.764L437.894,80.978z M441.573,99.016L440.1,88.525l18.648-2.621l1.083,7.706
	c0.301,1.724-0.407,2.739-2.125,3.044c-0.979,0.138-1.986,0.279-3.022,0.425c-0.084-0.177-0.218-0.506-0.401-0.985
	c-0.11-0.363-0.207-0.634-0.29-0.811c0.863-0.122,1.669-0.235,2.418-0.34c1.101-0.093,1.562-0.567,1.384-1.425l-0.796-5.663
	l-14.764,2.075l1.238,8.82L441.573,99.016z M442.135,86.725l-0.665-4.735L455.629,80l0.666,4.735L442.135,86.725z M458.833,125.392
	c-0.682,0.158-1.916,0.364-3.699,0.615c-0.009-0.063-0.018-0.125-0.025-0.186c-0.137-0.549-0.339-1.152-0.606-1.808
	c0.411,0.004,1.16-0.101,2.245-0.315c0.519-0.073,0.892-0.125,1.122-0.158c1.332-0.125,1.863-0.735,1.592-1.833l-0.404-2.877
	c-3.327,3.056-7.846,5.993-13.553,8.815c-0.385-0.641-0.796-1.277-1.236-1.909c4.497-1.83,8.382-4.049,11.654-6.655l-12.26,1.723
	l-0.261-1.857l2.676-0.376l-1.553-11.048l4.922-0.691c0.143-0.65,0.265-1.458,0.363-2.418l2.284-0.037
	c-0.144,0.652-0.307,1.369-0.489,2.151l7.598-1.068l1.305,9.284c0.613-0.654,1.273-1.377,1.984-2.172l1.356,1.513
	c-0.359,0.367-0.923,0.951-1.69,1.752c-0.62,0.593-1.059,1.033-1.312,1.32l0.665,4.735
	C461.863,123.987,460.971,125.154,458.833,125.392L458.833,125.392z M443.578,83.208l0.248,1.764l10.273-1.444l-0.248-1.764
	L443.578,83.208z M445.797,95.866l-0.665-4.735l9.497-1.334l0.666,4.734L445.797,95.866z M446.685,109.112l0.287,2.042l10.792-1.517
	l-0.287-2.042L446.685,109.112z M447.141,92.269l0.287,2.042l5.784-0.813l-0.286-2.042L447.141,92.269z M447.18,112.64l0.287,2.042
	l10.793-1.517l-0.287-2.042L447.18,112.64z M458.423,116.834c0.155-0.147,0.257-0.256,0.308-0.327l-0.248-1.764l-10.792,1.517
	l0.285,2.042L458.423,116.834z M480.071,80.547c-0.505-0.244-1.205-0.43-2.104-0.556l1.33-3.69l-12.69,1.784
	c-0.874,2.143-1.844,4.015-2.908,5.616c-0.134-0.107-0.328-0.238-0.584-0.392c-0.189-0.099-0.612-0.387-1.267-0.863
	c2.035-3.063,3.361-6.153,3.979-9.269l2.298,0.056c-0.215,0.977-0.473,1.865-0.771,2.665l13.9-1.954l0.301,2.135L480.071,80.547z
	 M469.229,83.586c-1.468,4.183-2.796,7.462-3.987,9.838c-0.628-0.291-1.289-0.607-1.982-0.952c1.672-3.137,2.929-6.312,3.77-9.523
	L469.229,83.586L469.229,83.586z M470.196,124.267l-1.723-12.254c-0.533,1.211-1.072,2.392-1.615,3.541
	c-0.168-0.355-0.397-0.953-0.692-1.796c-0.11-0.363-0.207-0.634-0.29-0.812c1.433-3.167,2.438-6.875,3.016-11.122l2.063,0.278
	c-0.297,2.063-0.674,3.977-1.129,5.745l2.27,16.153L470.196,124.267z M472.435,94.496c-0.337,0.109-1.254,0.271-2.75,0.481
	c-0.22-0.727-0.472-1.481-0.758-2.26c0.756-0.044,1.567-0.125,2.432-0.247c1.218-0.109,1.693-0.679,1.432-1.716l-1.67-11.883
	l2.158-0.303l1.749,12.44C475.445,93.157,474.581,94.32,472.435,94.496L472.435,94.496z M471.604,107.975l-0.261-1.856l5.698-0.801
	l-0.626-4.457l1.899-0.267l0.626,4.456l6.303-0.886l0.262,1.857l-5.354,0.752c2.004,3.822,4.522,6.718,7.561,8.688
	c-0.081,0.265-0.226,0.695-0.435,1.292c-0.112,0.458-0.213,0.788-0.303,0.989c-3.277-2.442-5.795-5.529-7.552-9.258l1.135,8.077
	l3.281-0.461l0.261,1.856l-3.28,0.461l0.601,4.271l-1.898,0.267l-0.602-4.271l-3.28,0.461l-0.262-1.857l3.281-0.461l-1.122-7.984
	c-0.751,4.271-2.277,8.021-4.582,11.247c-0.16-0.293-0.488-0.751-0.986-1.376c-0.216-0.285-0.361-0.484-0.437-0.601
	c2.444-3.057,4.052-6.66,4.819-10.807L471.604,107.975z M482.21,90.755c-2.17-2.914-4.249-5.587-6.234-8.023l1.598-1.171
	c2.516,2.866,4.639,5.44,6.368,7.72L482.21,90.755z M486.164,76.376l-0.287-2.042l7.771-1.092c-0.209-1.485-0.388-2.753-0.535-3.807
	l2.245-0.315l0.534,3.807l7.771-1.092l0.287,2.042l-7.857,1.104c0.078,0.557,0.162,1.367,0.253,2.426
	c0.104,0.743,0.18,1.269,0.223,1.578l9.151-1.286l0.3,2.135l-8.807,1.238c1.649,3.808,5.028,5.92,10.136,6.338
	c-0.138,0.271-0.36,0.775-0.668,1.514c-0.179,0.404-0.288,0.671-0.327,0.804c-5.168-0.852-8.593-3.084-10.273-6.698
	c-0.328,3.518-2.876,6.684-7.646,9.5l-1.741-1.743c5.132-2.74,7.688-5.845,7.672-9.315l-8.634,1.214l-0.302-2.135l8.895-1.25
	c-0.077-1.377-0.206-2.716-0.39-4.016L486.164,76.376z M491.435,115.788l-0.262-1.856l8.116-1.141l-0.354-2.507l-7.598,1.068
	l-1.592-11.326l17.182-2.415l1.592,11.326l-7.598,1.068l0.354,2.506l8.201-1.153l0.262,1.857l-8.202,1.153l0.365,2.6l9.411-1.323
	l0.233,1.671l-20.808,2.924l-0.234-1.671l9.41-1.323l-0.365-2.6L491.435,115.788z M492.08,101.591l0.418,2.971l5.525-0.777
	l-0.417-2.971L492.08,101.591z M492.732,106.233l0.431,3.063l5.526-0.777l-0.432-3.063L492.732,106.233z M505.204,99.747
	l-5.612,0.789l0.418,2.971l5.611-0.789L505.204,99.747z M500.244,105.178l0.431,3.063l5.612-0.789l-0.431-3.063L500.244,105.178z
	 M508.326,72.596l-0.496-3.528l8.894-1.25l-0.667-1.61l2.22-0.501c0.251,0.533,0.452,1.136,0.605,1.808l8.548-1.201l0.496,3.528
	l-1.899,0.267l-0.301-2.135l-15.714,2.208l0.3,2.135L508.326,72.596z M510.469,73.431l-0.184-1.3l3.541-0.497l-0.17-1.207
	l1.898-0.267l0.17,1.207l4.748-0.667l-0.169-1.207l1.899-0.267l0.169,1.207l3.54-0.498l0.183,1.3l-3.539,0.498l0.223,1.579
	l4.058-0.571l0.183,1.3l-4.058,0.57l0.195,1.393l5.697-0.801l0.196,1.393l-5.095,0.716c1.729,1.021,3.69,1.627,5.892,1.823
	c-0.138,0.272-0.308,0.739-0.508,1.397c-0.032,0.194-0.073,0.327-0.121,0.396c-1.336-0.316-2.495-0.627-3.477-0.931l0.521,3.713
	l-1.812,0.255l-0.482-3.435l-8.807,1.238l0.509,3.621l-1.812,0.255l-0.549-3.899c-0.427,0.313-1.15,0.793-2.175,1.442
	c-0.436,0.25-0.759,0.454-0.971,0.61c-0.318-0.585-0.688-1.134-1.111-1.643c2.157-0.934,3.901-2.094,5.233-3.481l-5.182,0.729
	l-0.194-1.393l5.698-0.801l-0.195-1.393l-3.972,0.559l-0.184-1.3l3.972-0.558l-0.222-1.579L510.469,73.431z M529.264,86.883
	c-3.092-0.701-6.13-1.221-9.11-1.56l-0.246,0.129c-0.862,1.383-3.576,2.742-8.145,4.079c-0.232-0.409-0.612-1.019-1.138-1.828
	c4.274-0.917,6.806-1.903,7.597-2.961c0.556-0.646,0.782-1.53,0.685-2.652l1.812-0.255c0.097,0.682,0.097,1.312,0.002,1.894
	c0.898,0.126,2.278,0.342,4.142,0.648c2.505,0.278,4.177,0.485,5.018,0.62L529.264,86.883z M514.847,117.713l-2.558-18.196
	l2.332-0.328c0.021-0.254,0.06-0.607,0.115-1.058c0.134-0.712,0.21-1.639,0.226-2.777l2.211,0.068
	c-0.132,1.154-0.291,2.313-0.479,3.475l3.886-0.546l2.531,18.011l-1.899,0.267l-0.248-1.764l-4.403,0.619l0.274,1.95
	L514.847,117.713z M514.562,101.28l0.719,5.106l4.402-0.619l-0.718-5.106L514.562,101.28z M516.617,78.342
	c-0.547,0.708-1.125,1.389-1.737,2.043l8.979-1.262c-0.135-0.107-0.36-0.264-0.684-0.472c-0.638-0.351-1.126-0.694-1.465-1.025
	L516.617,78.342z M515.567,108.428l0.742,5.292l4.403-0.619l-0.743-5.292L515.567,108.428z M515.908,72.667l0.222,1.578l4.749-0.667
	L520.656,72L515.908,72.667z M516.312,75.544l0.195,1.393l4.749-0.667l-0.194-1.393L516.312,75.544z M530.104,115.379
	c-1.152,0.162-2.36,0.332-3.627,0.51c-0.153-0.674-0.401-1.396-0.744-2.167c0.756-0.044,1.883-0.17,3.381-0.381
	c1.628-0.103,2.326-0.989,2.091-2.661c-0.076-1.377-0.399-4.298-0.968-8.763c-0.126-1.308-0.228-2.24-0.306-2.797l-5.181,0.728
	c-0.152,0.589-0.412,1.447-0.783,2.571c-0.16,0.529-0.281,0.924-0.361,1.187c-0.569-0.298-1.197-0.589-1.883-0.871
	c1.008-2.855,1.688-5.729,2.046-8.619l2.052,0.186c-0.063,0.388-0.162,0.938-0.296,1.651c-0.126,0.775-0.222,1.356-0.283,1.744
	l6.39-0.898c0.557,3.962,1.093,8.62,1.611,13.974C533.615,113.433,532.568,114.969,530.104,115.379L530.104,115.379z
	 M527.562,109.204c-0.35-0.392-0.872-0.981-1.568-1.768c-0.989-1.187-1.762-2.087-2.317-2.704l1.397-1.332
	c0.488,0.563,1.216,1.344,2.179,2.344c0.821,0.832,1.443,1.501,1.867,2.01L527.562,109.204z M539.684,95.38
	c-1.014,1.974-2.101,3.641-3.259,5.002c-0.424-0.508-0.854-1.078-1.297-1.711c1.753-2.14,3.017-4.431,3.788-6.875l2.284-0.037
	c-0.032,0.194-0.143,0.462-0.327,0.804c-0.121,0.396-0.226,0.694-0.314,0.896l14.246-2.002l0.248,1.764L539.684,95.38L539.684,95.38
	z M538.865,81.367c0.305,2.166-0.219,3.879-1.566,5.143l-0.895-0.727c0.923-0.951,1.3-2.234,1.132-3.851l-1.468,0.206l-0.432-3.063
	l2.851-0.4C538.557,79.171,538.683,80.067,538.865,81.367L538.865,81.367z M536.021,105.646l-0.248-1.764l2.936-0.413l0.067-5.785
	l14.419-2.026l0.623,5.688l2.849-0.4l0.248,1.764l-2.937,0.413c0.062,0.434,0.123,1.088,0.188,1.962
	c0.122,0.868,0.184,1.521,0.188,1.962l2.33-0.328l0.248,1.764l-2.504,0.352c0.255,2.236-0.77,3.516-3.069,3.839
	c-1.152,0.162-2.331,0.328-3.54,0.498c-0.438-1.013-0.672-1.642-0.706-1.889c0.354,0.012,1.48-0.113,3.381-0.38
	c1.332-0.125,1.98-0.721,1.949-1.789l-13.814,1.941l0.068-5.784L536.021,105.646z M552.282,107.336l-0.376-3.923l-11.139,1.565
	l-0.056,3.984l6.82-0.958c-0.588-0.422-1.494-1.021-2.718-1.795c-0.189-0.099-0.348-0.172-0.472-0.218l1.013-1.563
	c1.149,0.659,2.236,1.295,3.263,1.908l-1,1.655L552.282,107.336z M540.836,99.194l-0.056,3.984l10.965-1.541
	c-0.068-1.316-0.192-2.624-0.375-3.924L540.836,99.194z M547.156,102.188c-1.034-0.674-2.121-1.312-3.263-1.909l0.928-1.55
	c0.38,0.2,0.95,0.498,1.71,0.896c0.703,0.407,1.245,0.71,1.625,0.908L547.156,102.188z M557.804,65.931
	c-1.224-1.594-2.314-2.893-3.276-3.894l1.583-1.264c0.416,0.448,0.971,1.063,1.669,1.849c0.763,0.839,1.322,1.487,1.682,1.941
	L557.804,65.931z M559.41,79.244c-0.733,1.05-1.42,2.219-2.062,3.508l-1.274-2.188c0.35-0.428,0.843-1.096,1.479-2.006
	c0.293-0.42,0.514-0.735,0.66-0.945l-0.992-7.056l-2.331,0.328l-0.3-2.135l4.316-0.607l1.292,9.191
	c1.146,1.481,2.757,2.074,4.829,1.783c5.235-0.736,9.232-1.329,11.987-1.779c-0.136,0.713-0.241,1.421-0.316,2.127
	c-3.397,0.478-5.901,0.829-7.513,1.056c-1.843,0.259-3.285,0.429-4.33,0.514C562.363,81.257,560.548,80.661,559.41,79.244
	L559.41,79.244z M579.605,95.732c-0.275,0.544-0.639,1.32-1.082,2.33c-4.368-1.848-7.754-4.212-10.153-7.094
	c-1.66,3.642-4.359,6.988-8.099,10.037c-0.647-0.855-1.176-1.475-1.581-1.86c4.385-3.457,7.236-7.171,8.559-11.143l2.443-0.154
	c-0.12,0.396-0.274,0.765-0.461,1.106C571.756,91.881,575.213,94.141,579.605,95.732L579.605,95.732z M560.318,63.779l-0.287-2.042
	l13.899-1.954l0.287,2.042l-5.611,0.789c-0.376,1.505-0.803,2.858-1.278,4.062l1.123-0.158l1.514,10.77l-2.072,0.291l-1.305-9.284
	c-1.077,2.361-2.633,4.663-4.665,6.904c-0.133-0.107-0.373-0.357-0.722-0.75c-0.406-0.384-0.709-0.658-0.907-0.819
	c3.079-3.146,5.131-6.716,6.154-10.711L560.318,63.779z M569.763,110.274l-1.931-13.74l2.331-0.328l1.931,13.74L569.763,110.274z
	 M574.709,72.833c-1.294-1.269-3.076-2.881-5.346-4.834l1.285-1.506c2.317,1.884,4.115,3.398,5.394,4.544L574.709,72.833z"/>
</svg>
