<svg xmlns="http://www.w3.org/2000/svg" width="640" height="620" viewBox="0 0 640 620"><path fill="#0A6EB6" stroke="#9ED9FF" stroke-miterlimit="10" d="M-1 109l641.001-90-.001 148-641 91.001z"/><g fill="#0B76BC"><path d="M545.057 33.651l-59.427 153.849 154.37-21.75v-145.5zM245.75 75.5l-139.568 165.78-106.182 15.47-1-146.75z"/></g><path fill="#fff" d="M45.125 135.892l-.287-2.042 17.268-2.427.287 2.042-7.771 1.092c.137 1.812.224 3.471.26 4.981l9.756-1.371.287 2.042-10.188 1.432c-.167 5.074-2.584 9.39-7.249 12.947l-1.716-1.558c4.345-3.323 6.614-7.02 6.807-11.086l-8.03 1.129-.287-2.042 8.461-1.189c-.036-1.509-.124-3.168-.26-4.981l-7.338 1.031zm3.816 38.397l-.248-1.764 20.462-2.876.248 1.764-8.979 1.262.313 2.228 7.425-1.043.248 1.764-7.425 1.044.326 2.321 9.152-1.286c-.077.705-.158 1.378-.244 2.022-3.972.558-6.883.935-8.733 1.132-3.454.485-5.933-.24-7.437-2.173-.385 1.441-1.37 3-2.953 4.675l-1.431-1.409c2.143-1.878 3.116-4.35 2.92-7.416l1.938.012c-.023.256-.029.636-.016 1.138-.055.45-.068.767-.042.953 1.19 1.79 2.81 2.667 4.86 2.631l-.887-6.313-9.497 1.334zm2.181-3.904l-1.227-8.727 15.023-2.111 1.227 8.727-15.023 2.111zm8.46 33.293c-2.95.731-4.864 1.315-5.741 1.753l-.878-1.864c.483-.319.829-.779 1.039-1.377.552-1.086 1.138-2.337 1.762-3.75-1.152.162-2.208.374-3.168.635l-.766-1.691.146-.21c.293-.42.475-.792.547-1.118.703-1.676 1.43-4.019 2.182-7.028l2.077.371-.362 1.187c-1.016 2.794-1.808 4.893-2.373 6.298.288-.041.715-.131 1.282-.275l1.209-.17c.33-.993.644-1.889.942-2.688l1.857.686c-1.163 3.004-2.381 5.826-3.653 8.466l3.794-1.196c.018.125.005.252-.034.383.04.687.086 1.217.138 1.588zm-7.453-40.535l.261 1.857 10.965-1.541-.261-1.857-10.965 1.541zm.47 3.342l.274 1.95 10.965-1.541-.274-1.95-10.965 1.541zm7.881 41.705c-2.145.617-4.304 1.33-6.479 2.141l-.62-1.901c.846-.245 2.226-.659 4.14-1.245 1.239-.363 2.167-.651 2.784-.864-.005.38.053 1.004.175 1.869zm-.836-56.067c-2.18.369-3.396-.564-3.651-2.8l-1.044-7.427 2.072-.291.979 6.962c.058 1.255.745 1.756 2.061 1.509l2.072-.291c1.209-.17 1.763-.816 1.665-1.938.004-.379-.024-1.006-.088-1.881-.004-.44-.018-.755-.044-.94l.816.169c.305.084.758.177 1.36.282.036 1.51.044 2.613.025 3.31-.054 1.711-1.063 2.673-3.028 2.887l-3.195.449zm2.138 58.44l-2.857-20.331 12.087-1.699 2.857 20.332-1.899.267-.248-1.764-8.289 1.165.248 1.764-1.899.266zm-.683-18.648l.913 6.499 3.194-.449-.913-6.499-3.194.449zm1.173 8.356l.914 6.499 3.194-.449-.913-6.499-3.195.449zm7.115-9.521l-3.281.461.914 6.499 3.281-.461-.914-6.499zm3.17-40.623c-.254.287-.429.501-.526.642l-1.543-1.582c.457-.507.6-1.157.43-1.954l-1.188-8.448-2.331.328-.274-1.95 4.317-.606 1.461 10.397c.311-.295.772-.771 1.384-1.425.458-.505.788-.868.992-1.086.118.426.316.997.593 1.715.083.178.13.298.138.359-.155.149-.413.406-.772.771-.99.896-1.708 1.628-2.156 2.197-.098.14-.273.353-.525.642zm-1.786-15.843c-1.387-1.509-2.552-2.702-3.497-3.58l1.471-1.438c.67.601 1.621 1.509 2.848 2.724.348.393.622.67.821.832l-1.643 1.462zm-3.491 65.282l.914 6.499 3.281-.461-.914-6.499-3.281.461zm23.989-22.141c-.199-.161-.468-.407-.808-.738-.341-.331-.609-.577-.808-.738-2.64.433-6.417 1.122-11.332 2.066-1.027.206-1.903.457-2.624.747l-1.323-1.896c.687-.538 1.324-1.228 1.911-2.067 1.172-1.68 2.266-3.505 3.28-5.479l-7.684 1.08-.287-2.042 9.238-1.298-.639-4.549-7.684 1.08-.287-2.042 7.684-1.08-.548-3.899 2.158-.304.548 3.899 7.771-1.092.287 2.042-7.771 1.092.639 4.549 9.325-1.311.287 2.042-10.188 1.432c-1.082 1.919-2.59 4.34-4.526 7.263l9.963-1.779c-1.02-.993-2.098-1.977-3.233-2.954l1.398-1.333c.86.7 2.091 1.727 3.69 3.079l3.181 2.583-1.618 1.647zm-3.216-43.582c-.241.791-.491 1.521-.749 2.188-2.892-1.36-5.354-3.224-7.389-5.588-1.255 2.765-3.159 5.305-5.709 7.619-.441-.632-.907-1.229-1.396-1.792 2.994-2.503 5.021-5.407 6.083-8.712l2.271-.13c-.09.202-.194.5-.314.896-.107.079-.155.149-.146.21 1.976 2.372 4.426 4.143 7.349 5.309zm-9.109 66.734c.325 2.732.135 5.345-.571 7.843-.777-.522-1.333-.918-1.663-1.187.758-2.125.802-5.351.137-9.676l-1.435-10.212 5.785-.813 2.583 18.382c.2 1.423-.382 2.293-1.746 2.612l-.777.109c-.395.118-.708.194-.937.227-.009-.063-.06-.213-.151-.452-.154-.674-.31-1.156-.468-1.449l1.468-.206c.699-.036.971-.39.819-1.062l-.626-4.456-2.418.34zm1.841-51.417c-2.18.369-3.396-.564-3.651-2.8l-1.292-9.191 2.072-.291.587 4.177c2.425-1.539 4.425-3.178 6.001-4.914l1.443 1.501c-2.117 2.065-4.499 3.915-7.145 5.548l.353 2.507c.058 1.255.74 1.726 2.048 1.417l3.108-.437c1.217-.109 1.805-.727 1.764-1.857.004-.379 0-1.042-.015-1.986-.013-.503-.011-.913.003-1.231.238.03.568.079.989.145.486.121.821.202 1.002.238.019 1.386.016 2.617-.009 3.693-.12 1.657-1.158 2.624-3.115 2.899l-4.143.582zm-3.399 39.707l.574 4.084 2.331-.328-.574-4.085-2.331.329zm1.292 9.191l.104.743 2.331-.328-.574-4.084-2.332.328.471 3.341zm10.224 8.219c-1.949.336-3.038-.52-3.267-2.57l-1.487-10.583-.547 1.118c-.143-.169-.382-.419-.722-.75l-.795-.646c1.422-2.409 2.34-5.063 2.755-7.961l1.952.104c-.126.775-.309 1.558-.55 2.349l7.857-1.104c.505 3.59.947 7.157 1.328 10.701.348 2.476-.544 3.863-2.673 4.163l-2.504.352-.416-1.078c-.11-.363-.211-.664-.303-.904.929-.067 1.768-.154 2.517-.259 1.274-.116 1.778-.913 1.513-2.39-.216-2.368-.553-5.191-1.015-8.473l-6.821.958c-.331.994-.697 1.93-1.102 2.806l6.303-.886.992 7.056-5.094.716.561 3.992c.107 1.184.704 1.667 1.789 1.453l4.317-.607c1.274-.117 1.934-.65 1.976-1.603-.008-.061-.002-.22.021-.477.022-.254.017-.917-.015-1.986.676.222 1.315.383 1.917.488.015.945-.041 1.805-.166 2.58-.128 1.595-1.146 2.495-3.054 2.701l-5.267.74zm-2.811-12.48l.482 3.435 3.367-.473-.482-3.435-3.367.473zm5.253-54.55l-.248-1.764 20.462-2.876.248 1.764-8.979 1.262.313 2.228 7.425-1.043.248 1.764-7.425 1.044.326 2.321c2.992-.421 6.044-.85 9.152-1.286-.077.705-.158 1.378-.244 2.022-3.971.558-6.883.935-8.733 1.132-3.454.486-5.933-.24-7.438-2.173-.385 1.441-1.37 3-2.953 4.675l-1.431-1.408c2.142-1.878 3.115-4.351 2.92-7.416l1.938.012c-.023.256-.029.636-.016 1.138-.055.45-.068.767-.042.953 1.189 1.79 2.81 2.667 4.86 2.631l-.887-6.313-9.496 1.333zm2.18-3.904l-1.226-8.727 15.023-2.111 1.227 8.727-15.024 2.111zm4.186 23.482c-.323-.206-.812-.549-1.465-1.025-.919-.69-1.635-1.19-2.147-1.497l1-1.655c1.083.605 2.34 1.408 3.772 2.405l-1.16 1.772zm.257 6.212c-1.175-.843-2.376-1.654-3.599-2.429l.987-1.748c1.339.758 2.592 1.529 3.759 2.312l-1.147 1.865zm-3.435-36.936l.261 1.857 10.965-1.541-.261-1.857-10.965 1.541zm.469 3.342l.274 1.95 10.965-1.542-.274-1.949-10.965 1.541zm4.532 36.593c-.38 3.146-.663 5.93-.851 8.356l-2.077-.371c.311-2.378.619-5.199.924-8.46.296.022.754.147 1.374.375.295.021.505.055.63.1zm1.693-8.001c-.187.343-.525.864-1.013 1.563l-.199-.162c-.491-.561-.929-.973-1.318-1.235 1.589-2.053 2.699-4.386 3.331-7l2.111-.013c-.193.723-.422 1.385-.689 1.99l10.533-1.48.248 1.764-11.483 1.614c-.299.799-.664 1.546-1.095 2.237l11.483-1.614c.003.442.105 1.374.305 2.797.107 1.184.21 2.117.305 2.797l1.986-.279.248 1.764-1.986.279c.07.496.14 1.211.214 2.147l.248 1.764 1.554-.218.248 1.764-1.641.231c.197 2.244-.801 3.488-2.997 3.734l-3.108.437-.376-.799c-.177-.417-.307-.714-.39-.892l3.022-.424c1.39-.133 2.04-.729 1.95-1.789l-10.792 1.517-.191-5.748-1.899.267-.248-1.764 2.072-.292-.226-5.364c-.05.069-.119.205-.207.407zm4.698 40.344c.304 2.166-.218 3.88-1.566 5.143l-.895-.727c.923-.95 1.3-2.234 1.131-3.851l-1.468.207-.43-3.064 2.849-.4.379 2.692zm-2.483-39.614l.116 3.96 8.375-1.177-.548-3.899-7.943 1.116zm9.115 8.47c-.047-.75-.201-2.055-.461-3.912l-8.547 1.202.203 3.948 8.805-1.238zm-4.116-5.481c-.397-.323-1.01-.71-1.836-1.162-.389-.26-.712-.468-.968-.622l.879-1.259c.57.298 1.396.75 2.479 1.355-.133-.107-.004-.03.385.23l-.939 1.458zm.636 5.781c-.323-.206-.777-.521-1.365-.944-.637-.352-1.116-.631-1.438-.839l.793-1.247c.76.398 1.719.958 2.877 1.678l-.867 1.352zm4.924-41.899l-.274-1.95 5.871-.825c.321-1.054.551-2.127.692-3.221l2.198-.025c-.112.458-.255 1.11-.43 1.954-.111.458-.184.784-.215.977l11.829-1.662.274 1.949-12.692 1.784c-.425 1.574-1.11 3.375-2.058 5.401l1.709 12.162-1.985.279-1.357-9.655c-.636.91-1.349 1.894-2.139 2.951-.384-.64-.8-1.308-1.25-2.002 2.243-2.838 3.854-5.779 4.835-8.821l-5.008.704zm5.617 31.231l-.966-6.87 16.75-2.354.965 6.87-7.511 1.056c.242.472.459.977.653 1.518l9.065-1.274.222 1.579-20.722 2.912-.222-1.578 9.497-1.335c-.242-.47-.489-.973-.74-1.505l.345-.049-7.336 1.03zm7.005 10.376c-1.933 1.28-3.982 2.579-6.145 3.893-.151-.232-.399-.544-.748-.937-.16-.294-.309-.524-.45-.694 1.936-.84 3.968-2.04 6.097-3.603l1.246 1.341zm-5.789-16.132l.196 1.392 12.778-1.795-.196-1.393-12.778 1.796zm8.02 18.848l-2.331.328-.706-1.889c.641-.028 1.308-.089 1.999-.187.864-.121 1.248-.523 1.152-1.203l-.287-2.042-7.166 1.007-.652-4.642 15.627-2.196.652 4.642-6.476.91.326 2.321c.292 1.663-.42 2.646-2.138 2.951zm-7.454-37.411l-.274-1.95 5.267-.74-.613-4.363 1.986-.279.613 4.364 5.267-.74.274 1.95-5.267.74.861 6.127 6.389-.898.261 1.857-14.678 2.063-.261-1.856 6.303-.886-.861-6.127-5.267.738zm-.201 21.162l.209 1.485 12.778-1.796-.209-1.485-12.778 1.796zm2.243 40.976l-1.892-13.462 3.022-.424-.483-3.435 1.813-.255.483 3.435 3.022-.425 1.761 12.533c1.296-1.633 2.047-3.602 2.252-5.902l-1.986.279-.3-2.135 6.176-6.17-6.648.935-.274-1.95 9.325-1.311.313 2.228-6.176 6.17 8.029-1.128c.194 1.804.443 4.198.746 7.185.064.875.123 1.498.175 1.869.391 2.785-.458 4.261-2.547 4.429-.798.174-1.599.319-2.404.433-.093-.24-.199-.573-.316-.997l-.416-1.078c.288-.04.666-.063 1.136-.065l1.122-.158c1.283-.054 1.813-.885 1.586-2.495-.033-1.067-.199-2.874-.498-5.421-.048-.75-.092-1.28-.136-1.59l-1.813.255c.155 5.28-1.229 9.418-4.154 12.417-.274-.278-.775-.712-1.504-1.303 2.761-2.912 4.1-6.541 4.017-10.884l-1.899.267c-.074 3.229-1.193 6.132-3.354 8.708-.142-.169-.377-.388-.708-.658-.332-.269-.568-.488-.709-.658.098-.139.249-.319.453-.537.194-.279.345-.458.453-.537l-2.936.413.835 5.941-1.813.255-.835-5.942-1.468.207.104.743-1.554.218zm-.399-32.241l.261 1.857 11.656-1.639-.261-1.856-11.656 1.638zm.31 20.325l.521 3.713 1.641-.231-.522-3.713-1.64.231zm.756 5.384l.535 3.806 1.641-.23-.535-3.806-1.641.23zm4.079-6.064l-1.727.243.522 3.713 1.727-.243-.522-3.713zm-.436 9.433l1.727-.243-.535-3.806-1.727.242.535 3.807zm11.596-23.323c-1.907-.616-4.154-1.153-6.742-1.608l.741-1.619c.601.105 1.479.298 2.634.577 1.756.385 3.112.635 4.068.753l-.701 1.897zm8.744-29.749l-1.004-7.148-5.612.789.183 1.3-2.072.291-2.127-15.132 17.527-2.463 2.127 15.132-1.986.279-.183-1.3-5.699.801 1.005 7.148-2.159.303zm-8.273-18.151l.548 3.899 5.612-.789-.548-3.899-5.612.789zm.822 5.849l.548 3.899 5.612-.789-.548-3.899-5.612.789zm4.113 41.764l-1.709-12.162c-.255 1.11-.634 2.172-1.136 3.189-.145-.61-.463-1.417-.957-2.422 1.225-3.391 1.947-7.026 2.165-10.907l1.853.023c-.015.319-.068.767-.163 1.349-.209 1.86-.424 3.247-.648 4.162l2.322 16.525-1.727.243zm-.341 10.767l-.248-1.764 9.411-1.323c-.084-.177-.214-.474-.39-.892-.251-.533-.452-.915-.601-1.146l2.206-.594 1.03 2.317 8.893-1.25.248 1.764-20.549 2.888zm18.79-15.443c-.144.65-.223 1.135-.236 1.453-2.763.388-4.753.636-5.971.745-3.126.312-5.447-.119-6.961-1.294-.445 1.009-1.107 2.144-1.987 3.403-.49-.563-.914-1.071-1.271-1.525.097-.141.19-.311.28-.513.839-1.127 1.358-2.021 1.56-2.681-.782-.962-1.612-2.486-2.492-4.573l1.277-.937c.537 1.313 1.108 2.464 1.717 3.451.263-1.046.317-2.758.159-5.135l-3.108.437-.261-1.857 2.417-5.357-2.763.389-.261-1.857 4.576-.643.274 1.949-2.331 5.345 2.85-.4.13.928c.289 3.306.213 5.903-.225 7.795 1.284 1.208 3.395 1.605 6.331 1.193 2.089-.167 4.218-.467 6.389-.897-.04.131-.072.325-.093.581zm-17.032 29.207l-.248-1.764 9.756-1.371-.104-.743 4.44-2.233-12.605 1.771-.235-1.671 16.318-2.293.248 1.764-5.903 3.102 8.893-1.25.248 1.764-8.979 1.262.208 1.485c.3 1.724-.465 2.748-2.298 3.068l-3.454.486-.039-.279c-.11-.363-.299-.874-.567-1.53.345-.048.838-.087 1.481-.113l1.468-.207c1.044-.084 1.477-.555 1.298-1.413l-.169-1.207-9.757 1.372zm1.819-7.735l-.691-4.92 14.937-2.099.692 4.92-14.938 2.099zm5.298-66.302l-5.698.801.548 3.899 5.698-.801-.548-3.899zm-4.877 6.65l.548 3.899 5.699-.801-.548-3.899-5.699.801zm1.095 56.031l.261 1.857 11.051-1.553-.261-1.857-11.051 1.553zm1.164-29.344l-.222-1.578 3.885-.546-.248-1.764-2.936.413-.222-1.578 2.936-.413-.3-2.135 1.727-.243.3 2.135 3.885-.546.47 3.342 1.295-.182.222 1.578-1.295.182.47 3.342-3.885.546.248 1.764 4.23-.595.222 1.578-4.231.595.248 1.764 4.49-.631.208 1.485-4.49.631.339 2.414-1.727.243-.339-2.414-3.799.534-.209-1.485 3.799-.534-.248-1.764-3.281.461-.222-1.578 3.281-.461-.248-1.764-3.108.437-.209-1.485 3.108-.437-.261-1.857-3.883.546zm7.473-4.458l-2.331.328.248 1.764 2.331-.328-.248-1.764zm-1.6 5.527l2.332-.328-.261-1.856-2.331.328.26 1.856zm3.293-32.194l-.274-1.95 2.763-.388-.613-4.363 1.813-.255.613 4.363 2.59-.364.274 1.95-2.59.364.339 2.414.086-.012c.19.1.484.311.881.633 1.149.66 1.988 1.205 2.519 1.634l-.887 1.829c-.739-.653-1.495-1.241-2.273-1.763l1.565 11.141-1.813.255-1.631-11.605c-.24 2.054-.772 4.117-1.596 6.188l-.455-1.356c-.211-.664-.363-1.116-.455-1.356.881-2.079 1.487-4.658 1.818-7.734l-2.674.375zm20.502 41.911c-.682.158-1.916.364-3.7.615l-.026-.186c-.137-.549-.338-1.152-.606-1.809.411.005 1.159-.101 2.245-.315l1.123-.158c1.332-.125 1.862-.735 1.591-1.833l-.404-2.878c-3.328 3.056-7.845 5.993-13.553 8.816-.384-.642-.796-1.277-1.237-1.909 4.497-1.83 8.381-4.049 11.655-6.656l-12.26 1.723-.261-1.857 2.677-.376-1.553-11.048 4.921-.691c.143-.65.264-1.457.365-2.418l2.284-.037c-.144.652-.307 1.369-.49 2.152l7.598-1.068 1.305 9.284c.612-.654 1.273-1.377 1.984-2.172l1.357 1.513c-.36.367-.923.951-1.691 1.753-.621.593-1.059 1.033-1.311 1.32l.666 4.735c.351 2.095-.542 3.262-2.679 3.5zm-3.71-32.058c-1.297 1.634-2.846 3.146-4.645 4.535-.508-.686-.964-1.223-1.371-1.606 1.924-1.343 3.428-2.753 4.512-4.231-1.668-1.848-2.996-4.185-3.979-7.015l.884-.597-1.813.254.196 1.393c.86 4.866.368 8.88-1.478 12.042-.323-.207-.881-.633-1.676-1.279 1.569-2.619 1.987-6.117 1.254-10.496l-1.201-8.541c4.339-.861 8.202-1.783 11.586-2.764l.978 1.945c-3.114.816-6.582 1.62-10.403 2.409l.47 3.342 9.583-1.347.274 1.95c-.149 3.114-.874 5.898-2.172 8.352 1.448 1.122 3.098 1.995 4.946 2.619l-.948 2.026c-1.948-.927-3.614-1.924-4.997-2.991zm-5.915 44.984c-1.069-.922-2.091-1.725-3.068-2.409l1.1-1.575c1.033.676 2.081 1.444 3.141 2.304l-1.173 1.68zm.43 6.188c-.125-.044-.29-.18-.497-.403-1.233-.836-2.177-1.493-2.83-1.969l1-1.655c1.281.767 2.419 1.553 3.414 2.36l-1.087 1.667zm-2.954-35.394l.287 2.042 10.792-1.517-.287-2.042-10.792 1.517zm.496 3.528l.287 2.042 10.792-1.517-.287-2.042-10.792 1.517zm11.243 4.195c.155-.148.257-.257.306-.327l-.248-1.764-10.792 1.517.287 2.043 10.447-1.469zm-7.06 30.552c-.313 3.201-.56 6.043-.738 8.529l-1.904-.395c.362-3.27.579-6.108.652-8.517.247.092.791.205 1.632.338-.66-.096-.54-.08.358.045zm-.677-7.952l-.274-1.95 3.367-.473c-.402-.763-.883-1.895-1.446-3.394l1.86-.546c.109.364.332.9.667 1.61.352.835.624 1.522.818 2.063l-.086.012 2.159-.303.274 1.95-4.058.57.383 3.354 3.885-.546c.122.868.275 2.171.462 3.911.316 2.67.528 4.598.636 5.78.252 1.794-.428 2.806-2.039 3.032-.51.134-1.053.243-1.627.323l-.62-1.901 1.295-.182c.986-.077 1.386-.573 1.199-1.494-.052-.372-.106-.963-.162-1.776-.25-2.615-.454-4.48-.61-5.594l-2.245.315.065.464c.519 4.535.156 8.215-1.089 11.041l-1.664-1.186c1.16-2.183 1.498-5.417 1.013-9.705-.111-1.625-.314-3.49-.61-5.594l-1.553.219zm4.007-49.165c.965-1.902 1.533-4.128 1.703-6.677l-5.094.715c.866 2.405 1.996 4.392 3.391 5.962zm5.003 56.893l-.261-1.857 3.54-.498-.183-1.299 1.966-2.927-4.835.68-.196-1.393-.474 1.013c-.464-.375-1.019-.771-1.664-1.186 1.095-2.237 1.853-4.772 2.276-7.61h2.025c-.206 1.039-.417 2.046-.631 3.023l5.439-.764.261 1.856-6.216.874c-.241.792-.54 1.591-.896 2.398l6.734-.947.274 1.95-2.173 3.335.104.743 3.281-.461.261 1.857-3.281.461.64 4.549c.292 1.663-.396 2.612-2.065 2.846-.798.174-1.541.312-2.231.408-.026-.186-.119-.425-.277-.718-.136-.549-.251-.944-.342-1.183l1.986-.279c.872-.061 1.222-.488 1.052-1.284l-.574-4.085-3.54.498zm3.973-52.382l-.287-2.043 8.116-1.14-2.609-18.567 2.245-.316.939 6.685 8.548-1.201.313 2.228-8.548 1.201 1.357 9.655 10.188-1.432.287 2.042-20.549 2.888zm6.699 24.444c-.071 1.588-.478 3.286-1.221 5.095l-1.81-.977c.664-1.544 1.038-3.048 1.126-4.513.087-1.463-.064-3.588-.455-6.374l-1.122-7.984 8.029-1.128c-.277-.719-.607-1.397-.991-2.038l2.206-.594 1.203 2.292 7.08-.995.822 5.849-15.627 2.196.287 2.042c.443 3.157.601 5.534.473 7.129zm-1.322-13.163l.313 2.228 13.728-1.929-.313-2.229-13.728 1.93zm.322 29.893l-.261-1.857 2.504-.352c.131-1.155.242-2.243.333-3.266l1.925-.082c-.006.379-.063 1.019-.17 1.917-.103.521-.167.908-.189 1.163l4.403-.619.261 1.857-4.921.692c-.406 2.961-.732 5.026-.978 6.196l2.504-.352-.639-4.549 1.64-.23.64 4.549 2.331-.328.261 1.857-2.332.328.417 2.971 2.538-.735c.046.751.109 1.405.188 1.961l-2.465.631.639 4.549-1.899.267-.613-4.364c-1.528.404-2.941.792-4.239 1.164l-.459-2.018c.402-.057 1.056-.21 1.959-.465 1.084-.214 1.911-.395 2.478-.538l-.444-3.157-3.972.559-.261-1.857.142-.872c.251-1.55.472-3.316.664-5.3l-1.985.28zm1.072-21.853l-.248-1.764 7.338-1.031c-.084-.178-.214-.475-.389-.892l-.376-.799 2.12-.582c.083.178.217.506.402.985.176.417.31.746.402.984l7.08-.995.248 1.764-10.793 1.517c.113.805.184 1.521.214 2.147l8.807-1.237c.096.682.19 1.772.284 3.273-.006.379.005.662.031.848.237 2.111-.708 3.318-2.837 3.618l-1.554.218c-.798.174-1.368.287-1.714.335-.303-.904-.571-1.562-.805-1.969l1.468-.207c.699-.036 1.25-.081 1.653-.138 1.332-.125 1.945-.778 1.837-1.962l-.131-.928c-.013-.503-.031-.848-.057-1.033l-6.994.982c.024 2.269-1.213 4.525-3.715 6.771l-.497-.403c-.54-.492-.938-.815-1.193-.969 1.627-1.364 2.651-2.645 3.07-3.839.427-1.132.477-2.875.146-5.228l-3.797.534zm20.235 21.225c-.178.404-.428 1.134-.749 2.188-2.613-1.463-4.726-3.343-6.339-5.642-1.051 2.547-2.646 4.979-4.785 7.299-.151-.23-.475-.658-.973-1.283-.199-.161-.336-.299-.411-.416 2.582-2.508 4.265-5.364 5.047-8.567l2.111-.013-.301.989c1.764 2.532 3.897 4.346 6.4 5.445zm-5.688 15.284c-2.016.284-3.17-.628-3.466-2.731l-1.331-9.47 1.899-.267.574 4.084c1.694-1.31 3.271-2.826 4.732-4.546l1.444 1.501c-1.896 1.971-3.85 3.729-5.862 5.273l.378 2.692c.099 1.123.749 1.566 1.948 1.336l1.986-.279c1.151-.162 1.71-.776 1.678-1.845.034-1.014 0-2.083-.098-3.205.726.151 1.389.278 1.991.383.045 1.572.012 2.808-.096 3.706.004 1.704-.972 2.693-2.928 2.968l-2.849.4zm1.564-75.236c-.002 2.083-.026 4.202-.076 6.354-.116.016-.263.006-.445-.032-.47.004-.766-.018-.889-.064.08-2.346.11-4.433.088-6.261l1.322.003zm2.992 16.904l-3.092-22.002 1.727-.243.691 4.92.547-1.118c.91.629 1.763 1.267 2.558 1.912l-.715 1.805c-.739-.654-1.5-1.271-2.286-1.856l2.296 16.339-1.726.243zm8.844 12.222c-1.914-1.497-3.486-2.665-4.718-3.502-.642 1.29-1.405 2.533-2.293 3.73l5.785-.813.235 1.671-2.332.327.339 2.414 3.799-.534.235 1.671-3.799.534.339 2.414 3.108-.437 1.096 7.798-1.727.243-.157-1.114-4.749.667.156 1.114-1.727.243-1.096-7.798 3.281-.461-.339-2.414-4.058.57-.235-1.671 4.058-.57-.339-2.414-2.331.328-.144-1.021c-.146.21-.4.499-.759.864-.31.296-.515.514-.612.654-.326-.648-.672-1.231-1.038-1.748 2.019-1.924 3.487-4.213 4.406-6.867l1.938.011c-.121.396-.25.73-.388 1.001.834.514 1.936 1.243 3.301 2.187.711.468 1.262.833 1.65 1.093l-.885 1.83zm-6.058-27.477l-.926-6.591 11.656-1.638.926 6.591-11.656 1.638zm-.175 6.273l-.666-4.735 13.728-1.929.666 4.734-13.728 1.93zm15.259 4.577c-.299.799-.5 1.458-.603 1.978-2.767-.053-5.065-.33-6.896-.83-1.672 1.055-3.849 2.056-6.534 3.001-.009-.063-.052-.151-.125-.266-.225-.347-.583-.803-1.072-1.364 2.365-.711 4.265-1.389 5.702-2.032-1.123-.473-2.303-1.348-3.539-2.627l-1.208.17-.196-1.393 12.001-1.686.222 1.578c-.938 1.268-2.04 2.402-3.308 3.399 1.357.062 3.209.085 5.556.072zm-14.568 26.684l.482 3.435 4.749-.667-.483-3.435-4.748.667zm.553-34.939l.3 2.135 2.418-.34-.3-2.135-2.418.34zm.014-8.049l.196 1.392 8.03-1.128-.196-1.393-8.03 1.129zm.365 2.6l.183 1.3 8.029-1.128-.183-1.3-8.029 1.128zm1.122 74.384l-.287-2.042 8.116-1.141-2.609-18.567 2.245-.315.939 6.685 8.548-1.202.313 2.228-8.548 1.202 1.357 9.655 10.188-1.432.287 2.042-20.549 2.887zm4.867-61.214c1.13-.727 2.144-1.658 3.041-2.794l-6.389.898c1.002.868 2.118 1.501 3.348 1.896zm-2.482-8.267l.3 2.135 2.503-.352-.3-2.135-2.503.352zm7.214 40.096l-2.331.328c-.145-.611-.355-1.275-.632-1.994.526-.012 1.192-.073 1.999-.186 1.045-.085 1.477-.555 1.298-1.413l-1.07-7.613-3.799.534-.274-1.949 4.49-.631c-1.277-1.146-2.573-2.226-3.889-3.24l1.113-1.481 2.385 1.937 2.466-3.754-7.167 1.007-.261-1.856 9.152-1.287.313 2.228-3.186 4.897.484.311-.806 1.155 5.18-.728.222 1.578-.263 4.392-1.667.045.169-3.811-2.849.4 1.148 8.169c.3 1.722-.441 2.711-2.225 2.962zm-.739-41.006l-2.504.352.3 2.135 2.504-.352-.3-2.135zm13.091-3.168c-.358-.454-.739-.874-1.146-1.259l.144 1.021-1.899.267.509 3.621 2.245-.315.261 1.857-2.245.315.613 4.363 2.266-.792.261 1.857-3.768 1.381c-1.684.552-2.973.986-3.867 1.301l-.632-1.994 1.023-.238-1.188-8.448 1.554-.218 1.148 8.169c.501-.196 1.006-.362 1.515-.497l-1.422-10.119-2.936.413-1.043-7.427 6.562-.922.835 5.941c1.177-2.059 2.003-4.542 2.475-7.448l1.952.104c-.126.775-.313 1.528-.563 2.257l7.338-1.032c.496 3.528.942 7.126 1.341 10.793.348 2.476-.514 3.859-2.586 4.15l-2.504.352c-.269-.656-.508-1.316-.719-1.982.872-.059 1.682-.142 2.431-.247 1.283-.053 1.817-.854 1.599-2.402-.104-.743-.28-2.2-.527-4.375l-.587-4.178-6.389.898c-.331.993-.693 1.959-1.089 2.898l5.698-.801.992 7.056-4.576.643.561 3.992c.107 1.185.732 1.663 1.875 1.44l3.972-.558c1.274-.117 1.934-.65 1.976-1.604.022-.254.043-.73.063-1.429-.004-.44.006-.789.029-1.046.065.055.19.101.372.137.61.167 1.125.285 1.546.351.014.944-.041 1.805-.166 2.58-.128 1.595-1.176 2.499-3.141 2.713l-5.007.704c-1.891.328-2.952-.532-3.181-2.583l-1.474-10.491-.501.831zm-6.619-5.129l.535 3.806 3.195-.449-.535-3.806-3.195.449zm24.359 42.989c-.357.808-.616 1.474-.775 2.002-5.222-.402-8.775-2.301-10.662-5.697l-2.072.291.692 4.92 3.655-1.555c.012.504.094 1.091.248 1.764-.78.299-1.769.784-2.964 1.458-.222.093-.386.18-.492.258-.328.172-.733.418-1.217.739-.164.085-.299.168-.405.246l-1.258-1.432c.457-.507.595-1.189.417-2.047l-.574-4.085-2.331.328c.228 2.872-.202 5.456-1.287 7.754l-1.69-1.372c.614-1.474.965-2.943 1.053-4.408.047-1.332-.146-3.545-.581-6.64l-1.24-8.82 17.527-2.463.783 5.57-15.541 2.184.457 3.249c.061.434.114 1.025.162 1.776l.209 1.485 4.144-.583-.339-2.414-3.885.546-.235-1.671 3.885-.546-.287-2.042 1.899-.267.287 2.042 4.058-.571-.287-2.042 1.9-.267.287 2.042 3.713-.522.235 1.671-3.713.521.339 2.414 4.576-.644.235 1.671-8.548 1.201c.009.063.046.121.113.173.971 1.063 1.774 1.771 2.411 2.123 1.645-1.24 2.856-2.231 3.632-2.972l1.258 1.433-1.117.82c-.958.703-1.678 1.215-2.162 1.534 1.178.473 3.009.752 5.487.845zm-19.25-14.808l.3 2.135 13.642-1.917-.3-2.135-13.642 1.917zm3.51 48.189l-2.557-18.196 2.331-.328c.022-.254.061-.607.116-1.058.134-.712.21-1.639.226-2.777l2.21.068c-.132 1.155-.291 2.313-.48 3.476l3.885-.546 2.531 18.011-1.899.267-.248-1.764-4.403.619.274 1.95-1.986.278zm-.285-16.433l.717 5.106 4.403-.619-.717-5.106-4.403.619zm.63-55.043l.47 3.342 2.849-.4-.47-3.342-2.849.4zm.375 62.191l.744 5.292 4.403-.619-.744-5.292-4.403.619zm2.837-31.851l.339 2.414 4.058-.57-.339-2.414-4.058.57zm11.698 38.803l-3.626.51c-.154-.674-.403-1.396-.745-2.167.756-.044 1.883-.17 3.38-.381 1.628-.103 2.326-.989 2.091-2.661-.076-1.376-.399-4.298-.967-8.763-.126-1.308-.227-2.241-.305-2.797l-5.18.728c-.152.589-.413 1.447-.783 2.571l-.361 1.187c-.57-.298-1.199-.589-1.884-.871 1.008-2.855 1.689-5.729 2.046-8.619l2.051.186c-.064.388-.163.938-.296 1.651l-.283 1.744 6.389-.898c.557 3.962 1.093 8.62 1.612 13.974.374 2.659-.673 4.195-3.139 4.606zm-2.54-6.176c-.35-.392-.873-.981-1.569-1.768-.99-1.187-1.761-2.087-2.317-2.704l1.398-1.332c.489.563 1.215 1.344 2.178 2.344.821.832 1.443 1.501 1.867 2.01l-1.557 1.45zm7.3-56.351c.304 2.166-.218 3.88-1.566 5.143l-.895-.727c.923-.95 1.3-2.234 1.131-3.851l-1.468.207-.43-3.063 2.849-.401.379 2.692zm12.8 30.97c-.682.158-1.916.364-3.699.615l-.026-.186c-.136-.549-.338-1.152-.606-1.809.411.004 1.16-.101 2.245-.315l1.122-.158c1.332-.125 1.863-.735 1.592-1.833l-.405-2.878c-3.328 3.056-7.845 5.993-13.552 8.816-.385-.642-.796-1.277-1.237-1.909 4.497-1.83 8.381-4.049 11.655-6.656l-12.26 1.723-.261-1.857 2.676-.376-1.552-11.048 4.921-.691c.143-.65.265-1.457.365-2.418l2.284-.037c-.144.652-.307 1.369-.49 2.152l7.598-1.068 1.305 9.284c.613-.654 1.273-1.377 1.984-2.172l1.357 1.513c-.36.367-.923.951-1.69 1.752-.621.593-1.059 1.034-1.312 1.32l.666 4.735c.35 2.096-.542 3.263-2.68 3.501zm-7.968 11.557c-1.014 1.974-2.101 3.641-3.259 5.002-.424-.508-.856-1.078-1.297-1.711 1.753-2.14 3.016-4.431 3.788-6.875l2.284-.037c-.032.194-.142.462-.327.803-.121.396-.226.695-.314.896l14.246-2.002.248 1.764-15.369 2.16zm-4.181-27.837l.287 2.042 10.792-1.517-.287-2.042-10.792 1.517zm.517 38.103l-.248-1.764 2.936-.413.067-5.785 14.419-2.026.623 5.688 2.849-.4.248 1.764-2.936.413c.061.434.123 1.087.188 1.961.122.868.184 1.521.188 1.962l2.332-.328.248 1.764-2.504.352c.255 2.236-.769 3.516-3.07 3.839l-3.54.498c-.437-1.012-.671-1.642-.706-1.889.354.012 1.48-.113 3.38-.38 1.332-.125 1.981-.721 1.95-1.789l-13.814 1.941.067-5.784-2.677.376zm-.021-34.576l.287 2.042 10.792-1.517-.287-2.042-10.792 1.517zm11.243 4.195c.155-.147.257-.256.306-.327l-.248-1.764-10.792 1.517.287 2.042 10.447-1.468zm5.04 32.072l-.375-3.923-11.138 1.565-.057 3.984 6.821-.958c-.587-.422-1.494-1.021-2.717-1.795-.19-.099-.348-.172-.471-.218l1.013-1.562c1.149.659 2.236 1.295 3.262 1.908l-1 1.655 4.662-.656zm-11.446-8.143l-.056 3.984 10.965-1.542c-.068-1.315-.192-2.624-.375-3.923l-10.534 1.481zm6.32 2.993c-1.035-.674-2.122-1.311-3.262-1.908l.927-1.55 1.71.896c.703.407 1.245.71 1.625.908l-1 1.654zm4.297-65.113l-.274-1.95 8.029-1.128-.417-2.971 2.072-.291.417 2.971 8.029-1.128.274 1.949-8.03 1.129.822 5.849 9.152-1.286.274 1.949-8.289 1.165c2.485 2.239 5.609 3.789 9.37 4.647-.081.265-.239.602-.474 1.013-.17.465-.323.834-.461 1.106-4.034-1.137-7.06-2.826-9.076-5.068l1.109 7.892-2.072.291-1.122-7.984c-1.583 2.937-4.066 5.527-7.449 7.769-.3-.464-.787-.995-1.457-1.594 3.284-2.102 5.867-4.611 7.747-7.526l-8.202 1.153-.274-1.95 9.152-1.286-.82-5.85-8.03 1.129zm4.974 4.697c-.481-.5-1.227-1.215-2.239-2.147-.473-.438-.812-.769-1.02-.993l1.384-1.425c.662.539 1.608 1.416 2.835 2.631-.813-.769-.676-.629.411.416l-1.371 1.518zm1.823 22.952c-1.175-.843-1.337-.948-.484-.311-.853-.637-1.92-1.339-3.202-2.106l1.113-1.482c1.586.851 2.834 1.59 3.746 2.219l-1.173 1.68zm2.438 2.308c-1.225 1.308-2.646 2.897-4.261 4.764l-1.53-1.489c1.397-1.333 2.851-2.894 4.36-4.684.083.177.361.486.834.924l.597.485zm12.169-2.373c-.125-.044-.306-.083-.544-.113-.438-.19-.863-.289-1.274-.294l.723-2.374-3.54.498-.068.767c1.246 2.603 3.705 4.023 7.379 4.265-.072.327-.213.788-.422 1.385l-.181.593c-3.602-.566-5.986-1.872-7.154-3.917-.554 1.909-2.081 3.575-4.58 4.999l2.137.173c-.099.141-.241.381-.427.723-.196.28-.338.521-.427.723l11.138-1.565.248 1.764-3.54.498c-.58 1.723-1.482 3.237-2.707 4.546l6.477.983-.602 1.978c-2.606-.581-5.174-1.104-7.704-1.568-2.187 1.569-5.571 2.96-10.155 4.172-.168-.355-.514-.938-1.038-1.748 3.516-.873 6.32-1.802 8.412-2.792l-5.787-1.08c.293-.42.699-1.076 1.22-1.97.235-.412.426-.723.573-.933l-5.267.74-.248-1.764 6.648-.934c.146-.21.333-.551.56-1.025.235-.412.397-.719.487-.92l-1.476.775c-.093-.239-.354-.644-.787-1.215-.207-.223-.349-.392-.423-.509 3.388-1.359 5.241-3.009 5.556-4.946.201-.658.286-1.302.257-1.93l-2.59.364c-.437 1.072-1.07 2.202-1.9 3.391-.199-.161-.527-.399-.981-.714-.315-.146-.537-.271-.669-.379 1.287-1.696 2.157-3.648 2.61-5.858l1.938.012-.142.872c-.121.396-.197.69-.228.884l9.152-1.286.235 1.671-.889 3.058zm-13.877 36.622l-.339-2.414 20.98-2.949.339 2.414-20.98 2.949zm3.172-25.082c1.615.215 3.267.488 4.958.818 1.316-1.068 2.278-2.371 2.884-3.909l-6.648.935c-.431.693-.83 1.411-1.194 2.156zm6.079-39.399c-1.009 1.594-1.855 2.88-2.539 3.859l-1.577-1.198c.994-1.276 1.837-2.592 2.526-3.953l1.737 1.082-.147.21zm5.743.232l-.3-2.135 2.417-.34-.809-5.756 1.899-.267.809 5.756 2.245-.315.3 2.135-2.245.316 1.031 7.334c.647-.406 1.299-.782 1.955-1.127.096.682.239 1.292.434 1.833 1.288-1.696 2.05-3.791 2.287-6.286l-2.59.364-.287-2.042 7.631-6.469-7.771 1.092-.261-1.856 10.965-1.541.3 2.135-7.558 6.364 9.497-1.334.934 9.146c.374 2.66-.509 4.11-2.647 4.348l-2.577.457c-.093-.24-.244-.692-.455-1.356-.11-.363-.173-.607-.19-.731.526-.012 1.308-.089 2.344-.234 1.283-.055 1.846-.858 1.686-2.415-.048-.75-.199-2.244-.454-4.48-.108-1.183-.201-2.054-.279-2.611l-2.245.315c.058 5.421-1.348 9.624-4.214 12.615-.473-.439-1.037-.896-1.69-1.372 2.679-2.649 4.044-6.311 4.091-10.989l-2.417.339c-.16 3.873-1.523 7.125-4.087 9.758-.125-.045-.356-.234-.696-.565l-.895-.727c.466-.444.894-.945 1.285-1.506-.927.509-2.312 1.304-4.155 2.383-.697.477-1.208.801-1.536.973l-.818-2.063 2.62-1.409-1.135-8.077-2.419.34zm15.858 48.93c-1.45 4.307-3.662 7.993-6.634 11.062-.216-.285-.611-.797-1.185-1.538-.084-.178-.159-.293-.225-.347 2.754-2.532 4.73-5.808 5.927-9.827l2.117.65zm-4.561-11.112c.304 2.166-.218 3.88-1.566 5.143l-.895-.726c.923-.951 1.3-2.234 1.132-3.852l-1.468.207-.431-3.064 2.849-.4.379 2.692zm11.058 31.027c-.912.19-2.031.38-3.354.566l-.026-.186c-.247-.912-.453-1.546-.619-1.901l3.453-.485c1.514-.087 2.153-.965 1.919-2.636-.03-.626-.124-1.718-.284-3.274-.091-1.06-.17-1.837-.238-2.333l-6.39.898c.073.936.075 1.788.007 2.555.216 3.631-1.588 6.661-5.414 9.092-.3-.464-.791-1.025-1.47-1.687 3.311-1.917 4.931-4.385 4.858-7.404-.026-.186-.032-.437-.018-.755-.03-.626-.042-1.13-.036-1.51l-3.54.498-.274-1.95 14.159-1.99c.071.937.224 2.43.454 4.48.117 1.688.228 2.872.322 3.552.316 2.668-.854 4.159-3.509 4.47zm6.113-12.883c-.268.606-.466 1.076-.595 1.409-4.05-2.082-7.15-5.149-9.305-9.201l1.795-1.01c2.071 3.875 4.876 6.51 8.417 7.905-.039.134-.144.432-.312.897zm-4.186-58.43l-1.096-7.798 9.758-1.372 1.096 7.799-9.758 1.371zm5.688 12.265c-.093-.24-.208-.634-.343-1.183-.177-.417-.276-.718-.304-.904.287-.041.694-.066 1.223-.077l1.122-.158c1.282-.055 1.829-.762 1.639-2.124-.062-.433-.133-1.148-.214-2.147-.139-.989-.211-1.706-.214-2.147l-3.626.51c.38 3.544-.625 6.62-3.018 9.229-.729-.593-1.287-1.019-1.677-1.279 2.14-2.32 3.069-4.881 2.794-7.683l-3.193.449-.262-1.857 3.28-.461-.2-2.055 1.899-.267.2 2.055 5.525-.776c.047.751.176 2.09.389 4.016.115 1.247.213 2.147.291 2.705.371 2.22-.514 3.448-2.65 3.686l-2.661.468zm-4.607-18.381l.561 3.992 5.871-.825-.561-3.992-5.871.825zm6.657 40.458c.25 2.616-.192 5.107-1.325 7.476-.638-.353-1.299-.669-1.982-.952.701-1.677 1.104-3.215 1.199-4.618.097-1.401-.061-3.556-.469-6.466l-1.278-9.098 17.526-2.463 2.492 17.732c.393 1.964-.418 3.088-2.433 3.372l-2.763.388c-.146-.611-.359-1.308-.646-2.087l1.123-.158c.525-.012.934-.036 1.222-.077 1.103-.092 1.56-.598 1.371-1.518l-.481-3.435-5.785.813.927 6.592-2.071.291-.928-6.591-5.699.799zm-1.497-11.907l.562 3.992 5.526-.776-.562-3.992-5.526.776zm1.492 34.452c-.433-.569-.919-1.102-1.457-1.594.987-2.158 1.664-4.651 2.03-7.48l2.051.185c-.157.969-.343 1.942-.558 2.919l3.799-.534.248 1.764-4.576.643c-.111.458-.318 1.086-.615 1.885-.13.335-.215.567-.255.698l5.181-.728.262 1.857-2.331.328.418 2.971 2.849-.4.262 1.857-2.85.4.665 4.735c.785-.679 1.619-1.426 2.502-2.245.161.734.377 1.431.646 2.086-1.023.648-2.084 1.46-3.18 2.435-.164.085-.367.303-.611.654-.155.147-.258.257-.307.327l-1.443-1.501c.398-.499.552-1.086.455-1.768l-.625-4.456-2.678.376-.261-1.857 2.677-.376-.418-2.971-1.468.207-.13-.928-.282.511zm-.486-27.303l.392 2.785 5.524-.777-.562-3.992-5.524.777.17 1.207zm5.925-23.578l-1.983-14.111 1.899-.267 1.982 14.111-1.898.267zm4.271 4.702l-3.28.461c-.162-.734-.381-1.461-.658-2.18.871-.06 1.826-.162 2.861-.308 1.219-.109 1.723-.683 1.519-1.728l-2.53-18.011 1.984-.279 2.609 18.568c.392 1.964-.442 3.123-2.505 3.477zm2.18 9.846l-5.785.813.562 3.992 5.784-.813-.561-3.992zm-4.951 6.755l.562 3.992 5.784-.813-.562-3.992-5.784.813zm7.371 41.199l-1.057-7.52-3.021.424.156 1.114-1.812.255-1.592-11.326 4.835-.68-.601-4.271 1.898-.267.602 4.271 4.748-.667 1.592 11.326-1.812.255-.156-1.114-2.936.413 1.057 7.52-1.901.267zm-5.239-15.357l.888 6.313 3.021-.425-.887-6.313-3.022.425zm7.859-1.104l-2.937.413.887 6.313 2.937-.413-.887-6.313zm-.461-53.935l-1.148-8.17 2.072-.291.86 6.127 5.267-.74-1.162-8.262 2.157-.303 1.162 8.262 5.267-.74-.861-6.127 2.072-.291 1.147 8.17-7.338 1.031 1.227 8.727 5.957-.837-.86-6.127 1.985-.279 1.253 8.913-1.986.279-.13-.929-16.146 2.27-1.121-7.984 2.072-.291.859 6.127 5.958-.837-1.228-8.726-7.335 1.028zm6.802 36.555c-.879 1.26-1.611 2.53-2.192 3.811l-1.437-2.07c.789-1.058 1.576-2.146 2.357-3.266l-.99-7.056-2.504.352-.301-2.136 4.489-.631 1.253 8.913c1.411 1.695 3.327 2.373 5.744 2.033l10.965-1.541c-.17.465-.309 1.147-.416 2.046-5.008.704-8.582 1.174-10.721 1.412-2.53.356-4.612-.267-6.247-1.867zm-1.666-13.115c-.657-.916-1.787-2.272-3.391-4.068l1.584-1.264c.557.617 1.428 1.598 2.615 2.946.415.448.691.755.834.924l-1.642 1.462zm1.791 30.256c-.344-.771-.846-1.836-1.506-3.196-.187-.479-.356-.864-.516-1.159l1.156-.541.352.613c.885 1.707 1.467 2.918 1.742 3.637l-1.228.646zm6.771 8.705c-.424-.508-1.085-1.235-1.979-2.183-.198-.162-.336-.299-.41-.416l1.199 8.541-1.727.243-1.199-8.541c-.396 2.202-1.002 4.15-1.82 5.842-.11-.363-.334-.9-.668-1.61-.102-.301-.188-.509-.264-.626 1.039-1.787 1.762-4.16 2.17-7.121l-2.851.4-.248-1.764 2.937-.413-1.148-8.169 1.729-.243 1.146 8.17 2.591-.364.248 1.764-2.591.364.365 2.6.76-.864c1.367 1.386 2.359 2.382 2.973 2.99l-1.213 1.4zm-5.65-35.772l-.273-1.95 14.246-2.002.273 1.95-7.166 1.007c-.979 2.221-2.01 4.291-3.09 6.209.402-.056 1.002-.172 1.801-.348 2.343-.455 4.031-.756 5.067-.902-.854-1.078-1.666-2.038-2.43-2.877l1.511-1.159c.979 1.125 2.479 2.808 4.495 5.048l.636.763-1.57 1.357-1.172-1.445c-3.494.618-6.182 1.122-8.062 1.512-.922.129-1.628.323-2.119.582l-1.15-1.921c.483-.319.94-.826 1.371-1.518.698-1.296 1.463-2.951 2.297-4.961l-4.665.655zm.561-6.043l-.273-1.95 11.655-1.638.273 1.95-11.655 1.638zm4.327 27.627c-.253 1.55-.558 3.141-.915 4.768l-1.359-.282c.414-1.635.721-3.226.914-4.768l1.36.282zm.575.96l-.209-1.485 4.834-.679-.272-1.95 1.899-.267.272 1.95 5.354-.752.207 1.485-5.353.752.21 1.485 4.834-.68.195 1.393-4.835.679.222 1.578 5.698-.801.209 1.485-12.778 1.796-.207-1.485 5.18-.728-.223-1.578-4.402.619-.195-1.393 4.402-.619-.209-1.485-4.833.68zm3.054 18.6l-1.578-11.233 10.792-1.517 1.176 8.355c.299 1.724-.408 2.739-2.127 3.044l-1.121.158c-.684.158-1.227.267-1.629.323-.193-.541-.424-1.14-.691-1.796.582-.02 1.423-.105 2.517-.259.987-.077 1.392-.543 1.212-1.401l-.104-.743-7.166 1.007.535 3.807-1.816.255zm.431-10.095l.234 1.671 7.166-1.007-.234-1.671-7.166 1.007zm.429 3.063l.223 1.578 7.166-1.007-.223-1.579-7.166 1.008zm6.633-58.53c-.016.318-.038.573-.068.767-.678-.22-1.402-.371-2.177-.451.426-2.394.813-5.479 1.165-9.252l2.076.371c-.15 1.851-.482 4.706-.996 8.565zm1.106 22.863l-.273-1.95 10.016-1.408.273 1.95-4.489.631c-.653 2.87-1.285 5.482-1.892 7.84.401-.057 1.026-.207 1.873-.453 1.314-.247 2.283-.447 2.908-.599-.242-.47-.597-1.114-1.062-1.933-.477-.879-.831-1.523-1.064-1.933l1.551-.88c.84 1.396 2.041 3.469 3.603 6.215 1.25-2.384 1.542-6.148.878-11.294-.025-.186-.027-.406-.005-.662l-.093-.65-2.676.376-.273-1.95 2.677-.376c-.151-1.493-.34-3.044-.565-4.654l1.984-.279c.143 1.433.332 2.983.566 4.654l5.525-.777c.885 7.134 1.404 11.669 1.56 13.603.256 2.236-.562 3.518-2.452 3.848l-2.936.413c-.229-.789-.474-1.481-.732-2.075l1.296-.182 1.295-.182c1.218-.109 1.709-.775 1.479-2.006-.318-3.932-.726-7.661-1.222-11.189l-3.626.509.196 1.393c.869 6.189.067 11.13-2.407 14.823-.248-.092-.624-.26-1.128-.504l-.854-.448c.293-.42.654-.977 1.086-1.667.139-.271.23-.442.281-.513l-1.59.602c-.084-.178-.195-.352-.337-.521-.567.144-1.308.311-2.219.501-1.422.327-2.503.574-3.242.74-.683.159-1.272.337-1.772.533l-1.025-1.655c.352-.428.65-1.006.9-1.736.586-2.102 1.037-4.312 1.357-6.628l-3.37.473zm.162-6.366l-.273-1.95 8.201-1.153.274 1.95-8.202 1.153zm6.336-11.886c-2.295.385-3.587-.665-3.876-3.147l-1.84-13.09 2.072-.291 1.774 12.625c.142 1.433.869 2.024 2.187 1.776l3.106-.438c1.383-.194 2.043-.917 1.984-2.172l.012-1.8c-.031-.626-.037-1.098-.022-1.417.726.151 1.483.328 2.274.532.004.442-.005 1.011-.023 1.708.007.884-.018 1.55-.071 1.998-.149 1.851-1.296 2.896-3.435 3.134l-4.142.582zm1.429-14.875c-1.312-1.393-3.071-3.071-5.284-5.032l1.259-1.691c1.921 1.561 3.703 3.171 5.346 4.834l-1.321 1.889zm5.086 53.094c-3.756.844-6.834 1.497-9.233 1.96-.084-.178-.183-.448-.29-.812-.186-.479-.32-.807-.402-.985 3.848-.603 7.5-1.338 10.961-2.203l.592 1.715c-.344.051-.889.159-1.628.325zm-7.056 7.43c-.644-1.235-1.345-2.462-2.102-3.681l1.562-.788c.149.232.416.668.801 1.308.684 1.104 1.142 1.86 1.375 2.268l-1.636.893zm-.985 3.641l-.262-1.856 4.575-.643-.233-1.671 1.812-.255.234 1.671 4.318-.607.26 1.857-4.316.606.365 2.6.646-1.038c1.578.789 3.074 1.62 4.489 2.493l-.975 1.841c-.646-.414-1.547-.981-2.705-1.703-.578-.36-1.029-.644-1.353-.852l.874 6.22-1.812.255-.967-6.87c-.719 1.994-1.912 3.93-3.586 5.806-.16-.294-.445-.664-.859-1.11l-.338-.521c1.797-1.83 3.179-4.106 4.146-6.831l-4.313.608zm4.381-5.16c-.378-1.02-.906-2.271-1.584-3.754l1.589-.602c.575 1.182 1.134 2.429 1.67 3.741l-1.675.615zm6.372-51.769c-.776-1.342-2.093-3.398-3.948-6.167-.367-.516-.625-.89-.773-1.122l1.756-1.289c.365.517.887 1.296 1.562 2.337 1.548 2.244 2.625 3.86 3.233 4.847l-1.83 1.394zm-.809 47.484c-.266 1.047-.719 2.626-1.359 4.735l-1.659-.524c.659-1.986 1.094-3.498 1.3-4.537l1.718.326zm7.847-3.659c-1.555 2.301-3.592 4.514-6.11 6.634l-1.37-1.606c2.291-1.647 4.26-3.723 5.904-6.227l1.576 1.199zm2.739 12.586c-1.771 3.278-4.449 6.147-8.035 8.608-.422-.508-.914-1.071-1.47-1.687 3.359-1.987 5.997-4.724 7.915-8.212l1.59 1.291zm-1.418-6.333c-1.742 2.644-3.799 4.921-6.172 6.832-.396-.323-.879-.823-1.443-1.501 2.373-1.91 4.386-4.086 6.039-6.529l1.576 1.198zm-4.584-61.971l-.248-1.764 4.06-.57-.313-2.229 1.899-.267.312 2.228 3.973-.558.248 1.764-3.973.558.313 2.228 5.354-.752c-.488-2.644-.842-4.741-1.06-6.289l1.985-.279c.19 1.362.544 3.459 1.061 6.289l6.476-.91.247 1.764-6.389.898c.599 3.009 1.128 5.112 1.591 6.309.812-1.754 1.482-3.647 2.021-5.68l1.856.686c-.796 2.7-1.752 5.074-2.873 7.125l.112.174c.952 1.76 1.773 2.591 2.464 2.494.346-.048.574-.301.687-.759.005-.379-.01-1.102-.041-2.172-.014-.502-.008-.882.017-1.138.181.038.485.121.915.25.363.076.64.163.829.262.032 1.069-.008 2.242-.121 3.52-.041.131-.057.228-.048.291-.132 1.155-.74 1.839-1.824 2.055-1.381.194-2.751-.782-4.108-2.925-1.005 1.213-2.108 2.536-3.315 3.969-.415-.448-.946-.877-1.59-1.292 1.708-1.627 2.983-3.196 3.829-4.704-.956-2.2-1.749-4.928-2.384-8.186l-12.521 1.76-.247-1.764 5.18-.728-.312-2.228-4.062.57zm.397 8.465l-.235-1.671 5.354-.752c-.458-.755-.899-1.388-1.323-1.896l1.834-.731c.723.973 1.244 1.751 1.562 2.337l3.972-.558.234 1.671-4.836.68c-.617 1.034-1.215 2.002-1.793 2.903l.613 4.363c.155-.147.503-.386 1.044-.715.909-.632 1.552-1.07 1.93-1.313.097.682.23 1.231.407 1.647-.976.578-2.16 1.345-3.552 2.298-.099.14-.282.291-.552.456l-.479.352-1.158-1.352c.467-.444.621-1.003.47-1.675l-.313-2.228c-.66.725-1.414 1.43-2.256 2.116l-.449-.694c-.232-.408-.426-.729-.574-.96 1.856-1.397 3.359-3.028 4.507-4.894l-4.407.616zm5.505 36.075l-2.492-17.732 5.785-.813 2.257 16.061-3.972.558.234 1.671-1.812.255zm-.418-16.13l1.735 12.348 2.244-.316-1.734-12.347-2.245.315zm6.127-14.705c-.513-.307-1.252-.771-2.221-1.392-1.414-.874-2.501-1.509-3.263-1.909l.939-1.457 1.639 1c.709-.793 1.328-1.607 1.857-2.438l1.465 1.025c-.645.848-1.271 1.599-1.884 2.253l2.406 1.46-.938 1.458zm.033 17.815c-.351-.392-.826-.862-1.432-1.409 1.606-1.93 2.799-4.306 3.576-7.129l1.938.011c-.072.327-.213.788-.422 1.385l-.182.593 5.698-.801.248 1.764-1.555 3.343 3.279-.461.953 6.777 1.381-.194.262 1.857-5.611.789c1.242 2.161 3.321 3.384 6.238 3.667-.17.465-.396 1.159-.676 2.083-3.15-.693-5.385-2.179-6.701-4.455-.378 2.325-2.333 4.494-5.865 6.505-.433-.571-.898-1.168-1.396-1.792 3.644-1.648 5.579-3.529 5.811-5.645l-5.525.776-.261-1.856 1.381-.194-.835-5.941-.304.327zm3.301 42.247c-1.869.073-3.057-.865-3.564-2.813-.122-2.127.753-3.419 2.625-3.872 1.982-.089 3.21.907 3.679 2.986.104 2.005-.809 3.238-2.74 3.699zm4.055-47.541l-4.662.655c-.258.668-.717 1.584-1.373 2.75-.139.272-.257.478-.354.618l4.748-.667 1.641-3.356zm-4.798 42.249c-1.077.278-1.586 1.043-1.525 2.297.263 1.037.948 1.538 2.061 1.509 1.134-.286 1.684-.961 1.652-2.031-.292-1.221-1.02-1.812-2.188-1.775zm-.395-36.596l.705 5.013 2.763-.388c-.03-.626-.146-1.651-.345-3.076l-.273-1.949-2.85.4zm3.532-33.18c-.945-.876-2.071-1.792-3.379-2.744l1.14-1.296c.711.468 1.62 1.098 2.729 1.889l.795.646-1.285 1.505zm3.98 32.124l-2.85.4.262 1.857c.052.371.104.964.161 1.776l.194 1.393 2.937-.413-.704-5.013zm4.044-16.214l-2.557-18.196 2.331-.327c.021-.255.061-.608.114-1.058.135-.713.21-1.639.227-2.777l2.211.068c-.132 1.155-.291 2.313-.479 3.476l3.886-.546 2.53 18.01-1.898.267-.248-1.764-4.403.619.274 1.95-1.988.278zm-.284-16.432l.718 5.106 4.403-.619-.718-5.106-4.403.619zm1.017 26.009l-.234-1.67 9.411-1.323.234 1.671-2.505.352.404 2.878 2.159-.303 2.283 16.247-1.469.206-.183-1.3-5.612.789.184 1.3-1.555.219-2.282-16.247 2.244-.315-.404-2.878-2.675.374zm-.012-18.861l.743 5.292 4.403-.619-.743-5.292-4.403.619zm2.452 23.062l.796 5.663c.716-1.173.874-2.963.479-5.369l-.065-.464-1.21.17zm5.903 5.04c-1.036.146-1.646-.431-1.828-1.731l-.535-3.807-1.122.158.065.464c.506 2.769.308 4.912-.594 6.426-.151-.23-.444-.442-.883-.633l.262 1.857 5.611-.789-.287-2.042-.689.097zm-4.412 4.313l.352 2.506 5.612-.789-.353-2.507-5.611.79zm.301-14.149l.404 2.878 1.122-.158-.404-2.878-1.122.158zm10.291-11.315l-3.626.509c-.153-.673-.401-1.396-.745-2.167.756-.044 1.883-.17 3.381-.38 1.629-.103 2.326-.99 2.092-2.661-.076-1.377-.398-4.299-.968-8.763-.126-1.308-.228-2.24-.306-2.797l-5.18.729c-.153.589-.413 1.447-.783 2.571l-.362 1.187c-.568-.299-1.197-.589-1.883-.872 1.008-2.854 1.688-5.729 2.046-8.619l2.052.185c-.063.388-.162.938-.297 1.651l-.282 1.744 6.39-.898c.557 3.961 1.093 8.62 1.611 13.974.373 2.661-.674 4.197-3.14 4.607zm-6.125 15.274l-1.295.182.469 3.342c.047.751.383 1.051 1.009.9l.432-.061-.615-4.363zm3.585-21.449c-.35-.392-.873-.981-1.568-1.768-.989-1.187-1.762-2.087-2.317-2.704l1.396-1.333c.489.563 1.217 1.344 2.18 2.345.82.831 1.442 1.501 1.867 2.01l-1.558 1.45zm-.489 22.813l-1.147-8.169 9.152-1.287 1.147 8.17-9.152 1.286zm1.322 8.145l-.209-1.485 3.799-.534-.339-2.414-2.85.4c-.176.846-.465 1.707-.869 2.583-.397-.323-.854-.637-1.366-.944.673-1.482 1.061-3.115 1.161-4.897l1.594.06c-.031.194-.051.48-.056.86-.072.327-.099.551-.081.674l2.244-.315-.326-2.321 1.729-.243.325 2.321 3.712-.521.223 1.578-3.712.522.339 2.414 3.54-.498.209 1.486-3.54.497.326 2.321 4.402-.619.248 1.764-10.879 1.529-.248-1.764 4.749-.667-.326-2.321-3.799.534zm-.508-14.887l.235 1.671 5.783-.812-.233-1.671-5.785.812zm.443 3.157l.234 1.671 5.784-.813-.234-1.671-5.784.813zm6.408-31.977l-.247-1.764 9.497-1.335-.792-1.877 2.22-.501.816 2.063 9.065-1.274.248 1.764-20.807 2.924zm3.679 18.038l-1.473-10.491 18.648-2.621 1.083 7.706c.301 1.724-.407 2.739-2.125 3.044l-3.022.425c-.084-.177-.218-.506-.401-.985-.11-.363-.207-.634-.29-.811l2.418-.34c1.101-.093 1.562-.567 1.384-1.425l-.796-5.663-14.764 2.075 1.238 8.82-1.9.266zm.562-12.291l-.665-4.735 14.159-1.99.666 4.735-14.16 1.99zm16.698 38.667c-.682.158-1.916.364-3.699.615l-.025-.186c-.137-.549-.339-1.152-.606-1.808.411.004 1.16-.101 2.245-.315l1.122-.158c1.332-.125 1.863-.735 1.592-1.833l-.404-2.877c-3.327 3.056-7.846 5.993-13.553 8.815-.385-.641-.796-1.277-1.236-1.909 4.497-1.83 8.382-4.049 11.654-6.655l-12.26 1.723-.261-1.857 2.676-.376-1.553-11.048 4.922-.691c.143-.65.265-1.458.363-2.418l2.284-.037c-.144.652-.307 1.369-.489 2.151l7.598-1.068 1.305 9.284c.613-.654 1.273-1.377 1.984-2.172l1.356 1.513c-.359.367-.923.951-1.69 1.752-.62.593-1.059 1.033-1.312 1.32l.665 4.735c.352 2.095-.54 3.262-2.678 3.5zm-15.255-42.184l.248 1.764 10.273-1.444-.248-1.764-10.273 1.444zm2.219 12.658l-.665-4.735 9.497-1.334.666 4.734-9.498 1.335zm.888 13.246l.287 2.042 10.792-1.517-.287-2.042-10.792 1.517zm.456-16.843l.287 2.042 5.784-.813-.286-2.042-5.785.813zm.039 20.371l.287 2.042 10.793-1.517-.287-2.042-10.793 1.517zm11.243 4.194c.155-.147.257-.256.308-.327l-.248-1.764-10.792 1.517.285 2.042 10.447-1.468zm21.648-36.287c-.505-.244-1.205-.43-2.104-.556l1.33-3.69-12.69 1.784c-.874 2.143-1.844 4.015-2.908 5.616-.134-.107-.328-.238-.584-.392-.189-.099-.612-.387-1.267-.863 2.035-3.063 3.361-6.153 3.979-9.269l2.298.056c-.215.977-.473 1.865-.771 2.665l13.9-1.954.301 2.135-1.484 4.468zm-10.842 3.039c-1.468 4.183-2.796 7.462-3.987 9.838-.628-.291-1.289-.607-1.982-.952 1.672-3.137 2.929-6.312 3.77-9.523l2.199.637zm.967 40.681l-1.723-12.254c-.533 1.211-1.072 2.392-1.615 3.541-.168-.355-.397-.953-.692-1.796-.11-.363-.207-.634-.29-.812 1.433-3.167 2.438-6.875 3.016-11.122l2.063.278c-.297 2.063-.674 3.977-1.129 5.745l2.27 16.153-1.9.267zm2.239-29.771c-.337.109-1.254.271-2.75.481-.22-.727-.472-1.481-.758-2.26.756-.044 1.567-.125 2.432-.247 1.218-.109 1.693-.679 1.432-1.716l-1.67-11.883 2.158-.303 1.749 12.44c.417 2.149-.447 3.312-2.593 3.488zm-.831 13.479l-.261-1.856 5.698-.801-.626-4.457 1.899-.267.626 4.456 6.303-.886.262 1.857-5.354.752c2.004 3.822 4.522 6.718 7.561 8.688-.081.265-.226.695-.435 1.292-.112.458-.213.788-.303.989-3.277-2.442-5.795-5.529-7.552-9.258l1.135 8.077 3.281-.461.261 1.856-3.28.461.601 4.271-1.898.267-.602-4.271-3.28.461-.262-1.857 3.281-.461-1.122-7.984c-.751 4.271-2.277 8.021-4.582 11.247-.16-.293-.488-.751-.986-1.376-.216-.285-.361-.484-.437-.601 2.444-3.057 4.052-6.66 4.819-10.807l-4.747.669zm10.606-17.22c-2.17-2.914-4.249-5.587-6.234-8.023l1.598-1.171c2.516 2.866 4.639 5.44 6.368 7.72l-1.732 1.474zm3.954-14.379l-.287-2.042 7.771-1.092-.535-3.807 2.245-.315.534 3.807 7.771-1.092.287 2.042-7.857 1.104c.078.557.162 1.367.253 2.426l.223 1.578 9.151-1.286.3 2.135-8.807 1.238c1.649 3.808 5.028 5.92 10.136 6.338-.138.271-.36.775-.668 1.514-.179.404-.288.671-.327.804-5.168-.852-8.593-3.084-10.273-6.698-.328 3.518-2.876 6.684-7.646 9.5l-1.741-1.743c5.132-2.74 7.688-5.845 7.672-9.315l-8.634 1.214-.302-2.135 8.895-1.25c-.077-1.377-.206-2.716-.39-4.016l-7.771 1.091zm5.271 39.412l-.262-1.856 8.116-1.141-.354-2.507-7.598 1.068-1.592-11.326 17.182-2.415 1.592 11.326-7.598 1.068.354 2.506 8.201-1.153.262 1.857-8.202 1.153.365 2.6 9.411-1.323.233 1.671-20.808 2.924-.234-1.671 9.41-1.323-.365-2.6-8.113 1.142zm.645-14.197l.418 2.971 5.525-.777-.417-2.971-5.526.777zm.652 4.642l.431 3.063 5.526-.777-.432-3.063-5.525.777zm12.472-6.486l-5.612.789.418 2.971 5.611-.789-.417-2.971zm-4.96 5.431l.431 3.063 5.612-.789-.431-3.063-5.612.789zm8.082-32.582l-.496-3.528 8.894-1.25-.667-1.61 2.22-.501c.251.533.452 1.136.605 1.808l8.548-1.201.496 3.528-1.899.267-.301-2.135-15.714 2.208.3 2.135-1.986.279zm2.143.835l-.184-1.3 3.541-.497-.17-1.207 1.898-.267.17 1.207 4.748-.667-.169-1.207 1.899-.267.169 1.207 3.54-.498.183 1.3-3.539.498.223 1.579 4.058-.571.183 1.3-4.058.57.195 1.393 5.697-.801.196 1.393-5.095.716c1.729 1.021 3.69 1.627 5.892 1.823-.138.272-.308.739-.508 1.397-.032.194-.073.327-.121.396-1.336-.316-2.495-.627-3.477-.931l.521 3.713-1.812.255-.482-3.435-8.807 1.238.509 3.621-1.812.255-.549-3.899c-.427.313-1.15.793-2.175 1.442-.436.25-.759.454-.971.61-.318-.585-.688-1.134-1.111-1.643 2.157-.934 3.901-2.094 5.233-3.481l-5.182.729-.194-1.393 5.698-.801-.195-1.393-3.972.559-.184-1.3 3.972-.558-.222-1.579-3.536.494zm18.795 13.452c-3.092-.701-6.13-1.221-9.11-1.56l-.246.129c-.862 1.383-3.576 2.742-8.145 4.079-.232-.409-.612-1.019-1.138-1.828 4.274-.917 6.806-1.903 7.597-2.961.556-.646.782-1.53.685-2.652l1.812-.255c.097.682.097 1.312.002 1.894.898.126 2.278.342 4.142.648 2.505.278 4.177.485 5.018.62l-.617 1.886zm-14.417 30.83l-2.558-18.196 2.332-.328c.021-.254.06-.607.115-1.058.134-.712.21-1.639.226-2.777l2.211.068c-.132 1.154-.291 2.313-.479 3.475l3.886-.546 2.531 18.011-1.899.267-.248-1.764-4.403.619.274 1.95-1.988.279zm-.285-16.433l.719 5.106 4.402-.619-.718-5.106-4.403.619zm2.055-22.938c-.547.708-1.125 1.389-1.737 2.043l8.979-1.262c-.135-.107-.36-.264-.684-.472-.638-.351-1.126-.694-1.465-1.025l-5.093.716zm-1.05 30.086l.742 5.292 4.403-.619-.743-5.292-4.402.619zm.341-35.761l.222 1.578 4.749-.667-.223-1.578-4.748.667zm.404 2.877l.195 1.393 4.749-.667-.194-1.393-4.75.667zm13.792 39.835l-3.627.51c-.153-.674-.401-1.396-.744-2.167.756-.044 1.883-.17 3.381-.381 1.628-.103 2.326-.989 2.091-2.661-.076-1.377-.399-4.298-.968-8.763-.126-1.308-.228-2.24-.306-2.797l-5.181.728c-.152.589-.412 1.447-.783 2.571l-.361 1.187c-.569-.298-1.197-.589-1.883-.871 1.008-2.855 1.688-5.729 2.046-8.619l2.052.186c-.063.388-.162.938-.296 1.651l-.283 1.744 6.39-.898c.557 3.962 1.093 8.62 1.611 13.974.372 2.66-.675 4.196-3.139 4.606zm-2.542-6.175c-.35-.392-.872-.981-1.568-1.768-.989-1.187-1.762-2.087-2.317-2.704l1.397-1.332c.488.563 1.216 1.344 2.179 2.344.821.832 1.443 1.501 1.867 2.01l-1.558 1.45zm12.122-13.824c-1.014 1.974-2.101 3.641-3.259 5.002-.424-.508-.854-1.078-1.297-1.711 1.753-2.14 3.017-4.431 3.788-6.875l2.284-.037c-.032.194-.143.462-.327.804-.121.396-.226.694-.314.896l14.246-2.002.248 1.764-15.369 2.159zm-.819-14.013c.305 2.166-.219 3.879-1.566 5.143l-.895-.727c.923-.951 1.3-2.234 1.132-3.851l-1.468.206-.432-3.063 2.851-.4.378 2.692zm-2.844 24.279l-.248-1.764 2.936-.413.067-5.785 14.419-2.026.623 5.688 2.849-.4.248 1.764-2.937.413c.062.434.123 1.088.188 1.962.122.868.184 1.521.188 1.962l2.33-.328.248 1.764-2.504.352c.255 2.236-.77 3.516-3.069 3.839l-3.54.498c-.438-1.013-.672-1.642-.706-1.889.354.012 1.48-.113 3.381-.38 1.332-.125 1.98-.721 1.949-1.789l-13.814 1.941.068-5.784-2.676.375zm16.261 1.69l-.376-3.923-11.139 1.565-.056 3.984 6.82-.958c-.588-.422-1.494-1.021-2.718-1.795-.189-.099-.348-.172-.472-.218l1.013-1.563c1.149.659 2.236 1.295 3.263 1.908l-1 1.655 4.665-.655zm-11.446-8.142l-.056 3.984 10.965-1.541c-.068-1.316-.192-2.624-.375-3.924l-10.534 1.481zm6.32 2.994c-1.034-.674-2.121-1.312-3.263-1.909l.928-1.55 1.71.896c.703.407 1.245.71 1.625.908l-1 1.655zm10.648-36.257c-1.224-1.594-2.314-2.893-3.276-3.894l1.583-1.264c.416.448.971 1.063 1.669 1.849.763.839 1.322 1.487 1.682 1.941l-1.658 1.368zm1.606 13.313c-.733 1.05-1.42 2.219-2.062 3.508l-1.274-2.188c.35-.428.843-1.096 1.479-2.006l.66-.945-.992-7.056-2.331.328-.3-2.135 4.316-.607 1.292 9.191c1.146 1.481 2.757 2.074 4.829 1.783 5.235-.736 9.232-1.329 11.987-1.779-.136.713-.241 1.421-.316 2.127l-7.513 1.056c-1.843.259-3.285.429-4.33.514-2.492.222-4.307-.374-5.445-1.791zm20.195 16.488c-.275.544-.639 1.32-1.082 2.33-4.368-1.848-7.754-4.212-10.153-7.094-1.66 3.642-4.359 6.988-8.099 10.037-.647-.855-1.176-1.475-1.581-1.86 4.385-3.457 7.236-7.171 8.559-11.143l2.443-.154c-.12.396-.274.765-.461 1.106 2.525 2.927 5.982 5.187 10.374 6.778zm-19.287-31.953l-.287-2.042 13.899-1.954.287 2.042-5.611.789c-.376 1.505-.803 2.858-1.278 4.062l1.123-.158 1.514 10.77-2.072.291-1.305-9.284c-1.077 2.361-2.633 4.663-4.665 6.904-.133-.107-.373-.357-.722-.75-.406-.384-.709-.658-.907-.819 3.079-3.146 5.131-6.716 6.154-10.711l-6.13.86zm9.445 46.495l-1.931-13.74 2.331-.328 1.931 13.74-2.331.328zm4.946-37.441c-1.294-1.269-3.076-2.881-5.346-4.834l1.285-1.506c2.317 1.884 4.115 3.398 5.394 4.544l-1.333 1.796z"/></svg>