<?xml version="1.0" encoding="utf-8"?>
<!-- Generator: Adobe Illustrator 16.0.0, SVG Export Plug-In . SVG Version: 6.00 Build 0)  -->
<!DOCTYPE svg PUBLIC "-//W3C//DTD SVG 1.1//EN" "http://www.w3.org/Graphics/SVG/1.1/DTD/svg11.dtd">
<svg version="1.1" id="图层_1" xmlns="http://www.w3.org/2000/svg" xmlns:xlink="http://www.w3.org/1999/xlink" x="0px" y="0px"
	 width="640px" height="640px" viewBox="0 0 640 640" enable-background="new 0 0 640 640" xml:space="preserve">
<path fill="#F7D5E6" stroke="#F6C0F1" stroke-miterlimit="10" d="M0,49.74C3.399,49.268,340.186,2.788,344.075,2.248
	c0.509,3.618,8.532,60.731,9.044,64.365C349.213,67.146,4.462,114.094,0,114.707C0,110.533,0,52.935,0,49.74"/>
<path fill="#A1669C" d="M36.657,100.46l-3.126-22.243l18.347-2.578l3.126,22.242l-6.116,0.859l-0.354-2.514l-6.116,0.859
	l0.354,2.514L36.657,100.46z M36.999,74.181L34.443,56l32.377-4.551l2.555,18.181L36.999,74.181z M40.489,83.354l1.142,8.123
	l6.116-0.859l-1.142-8.124L40.489,83.354z M42.148,61.229l0.815,5.802l18.707-2.629L60.855,58.6L42.148,61.229z M58.421,97.401
	l-3.126-22.242l18.527-2.604l3.099,22.049l-6.116,0.859l-0.326-2.321l-6.475,0.91l0.353,2.515L58.421,97.401z M62.074,80.321
	l1.142,8.123l6.476-0.91L68.55,79.41L62.074,80.321z M109.942,75.565c-1.699,4.448-4.25,8.486-7.651,12.12l-3.007-3.127
	l-7.375,1.037l0.49,3.481l-5.576,0.784l-5.545-39.456l13.67-1.921l4.54,32.3c3.604-3.924,6.146-8.029,7.624-12.313l-7.915,1.112
	L98.3,63.199l9.713-1.365l-0.707-5.028l-8.634,1.213l-0.897-6.383l8.634-1.213l-0.924-6.576l6.295-0.885l0.924,6.576l8.813-1.239
	l0.897,6.383l-8.813,1.239l0.707,5.028l10.073-1.416l0.897,6.383l-8.454,1.188c2.911,4.195,6.754,7.6,11.524,10.214l-2.755,6.501
	c-4.033-2.589-7.151-5.633-9.355-9.139l2.011,14.313l-6.295,0.885L109.942,75.565L109.942,75.565z M87.722,55.81l3.289,23.402
	l2.878-0.404L90.6,55.405L87.722,55.81z M144.23,64.238c-4.659,0.787-7.3-1.47-7.923-6.776l-2.283-16.247l34.356-4.829l1.658,11.798
	c1.908,0.521,3.735,0.923,5.488,1.201c-0.042,1.455-0.226,3.188-0.552,5.206c-0.084,0.277-0.169,0.551-0.251,0.824
	c-0.148,3.309-2.697,5.18-7.649,5.611L144.23,64.238z M163.66,82.414l-1.413-10.057l-10.792,1.517
	c0.429,4.806-1.933,8.882-7.084,12.238c-0.278-0.226-0.683-0.496-1.215-0.815c-1.898-1.311-3.509-2.335-4.833-3.068
	c4.441-2.332,6.599-4.804,6.478-7.419l-9.893,1.39l-0.843-5.996l10.433-1.466c-0.181-1.288-0.326-2.321-0.435-3.095l6.655-0.935
	c0.019,0.13,0.064,0.453,0.136,0.967c0.006,0.921,0.047,1.639,0.119,2.153l10.433-1.466l-0.435-3.094l6.655-0.936l0.435,3.095
	l9.173-1.29l0.843,5.996l-9.173,1.289l1.413,10.058L163.66,82.414z M141.495,46.083l0.517,3.674l21.045-2.958l-0.516-3.675
	L141.495,46.083z M168.756,52.113c-0.036-0.257,0.005-0.395,0.125-0.412L142.8,55.366l0.082,0.58
	c0.151,1.951,1.119,2.736,2.899,2.354l19.066-2.68C167.761,55.476,169.064,54.307,168.756,52.113L168.756,52.113z M188.637,79.296
	l-6.279-44.678l40.292-5.663l6.279,44.678l-6.835,0.96l-0.326-2.321l-26.801,3.767l0.326,2.321L188.637,79.296z M189.883,39.872
	l4.295,30.559l26.801-3.767l-4.295-30.559L189.883,39.872z M192.463,47.793l-0.815-5.802l23.744-3.337l0.815,5.802l-9.174,1.29
	l0.435,3.094l8.454-1.188l0.815,5.802l-3.058,0.43c1.243,1.009,2.544,2.009,3.907,3.001l-1.734,2.019l2.698-0.379l0.843,5.996
	l-24.283,3.413l-0.843-5.996l8.454-1.188l-0.734-5.222l-7.375,1.036l-0.815-5.802l7.375-1.037l-0.435-3.094L192.463,47.793z
	 M212.975,59.309c-0.414-0.336-1.044-0.904-1.891-1.707c-0.553-0.446-0.967-0.782-1.242-1.009l1.859-2.431l-3.417,0.48l0.734,5.222
	L212.975,59.309z M239.583,49.455c-0.928,2.103-1.925,4.15-2.989,6.14c-0.266-1.013-0.722-2.527-1.372-4.541
	c-0.632-1.884-1.141-3.322-1.525-4.322c2.985-6.599,5.083-13.861,6.292-21.791l6.9,0.806c-0.711,3.65-1.549,7.253-2.517,10.807
	l4.811,34.234l-6.475,0.91L239.583,49.455L239.583,49.455z M248.717,36.14l-0.87-6.189l9.174-1.29l-0.761-5.416l6.835-0.96
	l0.761,5.416l9.354-1.314l0.87,6.189l-9.354,1.314l0.625,4.449l10.792-1.517l0.87,6.189l-28.42,3.994l-0.87-6.189l10.792-1.517
	l-0.625-4.448L248.717,36.14z M251.609,58.021l-0.897-6.383l9.354-1.314l-0.517-3.675l6.835-0.96l0.517,3.675l9.533-1.34
	l0.897,6.382l-9.533,1.34l0.652,4.642l11.512-1.618l0.843,5.996l-29.679,4.171l-0.843-5.996l11.332-1.593l-0.652-4.642
	L251.609,58.021z M285.475,38.468l-0.761-5.416l12.951-1.82c0.575-1.132,1.019-2.313,1.337-3.541
	c-3.093,1.489-6.445,2.878-10.052,4.174c-0.314-0.479-0.851-1.261-1.612-2.337c-0.747-0.946-1.333-1.652-1.766-2.119
	c2.002-0.543,4.789-1.591,8.362-3.147c0.82-0.245,1.462-0.467,1.924-0.665c-3.347-0.318-6.522-0.726-9.527-1.225l2.487-4.491
	l16.04,1.888c4.478-2.075,8.775-4.124,12.893-6.151l4.114,3.169c-2.597,1.548-5.268,2.978-8.019,4.283l9.527,1.225l-1.866,4.996
	l-16.094-2.274l-5.719,2.382l6.557-0.33c-0.354,0.971-0.816,2.022-1.391,3.154l21.945-3.084l0.762,5.415l-25.542,3.59
	c-0.251,0.824-0.632,1.602-1.14,2.33l22.484-3.16l2.419,17.214c0.734,4.365-1.055,6.854-5.371,7.46
	c-1.663,0.363-4.47,0.826-8.427,1.381c-0.175-0.37-0.437-0.924-0.784-1.665c-0.441-1.386-0.834-2.447-1.182-3.187
	c2.554-0.097,4.831-0.417,6.835-0.96c1.799-0.253,2.685-0.901,2.661-1.952l-18.887,2.654l0.952,6.77l-6.476,0.91l-2.039-14.506
	c-1.342,1.767-2.882,3.432-4.618,4.988c-0.632-1.883-1.591-3.918-2.876-6.104c3.493-2.987,6.578-6.709,9.253-11.162L285.475,38.468z
	 M298.837,43.494l0.326,2.321l18.887-2.654l-0.326-2.321L298.837,43.494z M299.734,49.876l0.326,2.321l18.887-2.654l-0.326-2.321
	L299.734,49.876z"/>
</svg>
