<?xml version="1.0" encoding="utf-8"?>
<!-- Generator: Adobe Illustrator 16.0.0, SVG Export Plug-In . SVG Version: 6.00 Build 0)  -->
<!DOCTYPE svg PUBLIC "-//W3C//DTD SVG 1.1//EN" "http://www.w3.org/Graphics/SVG/1.1/DTD/svg11.dtd">
<svg version="1.1" id="图层_1" xmlns="http://www.w3.org/2000/svg" xmlns:xlink="http://www.w3.org/1999/xlink" x="0px" y="0px"
	 width="640px" height="485.993px" viewBox="0 -278.342 640 485.993" enable-background="new 0 -278.342 640 485.993"
	 xml:space="preserve">
<path fill="#FFFFFF" d="M115.747,36.035l-2.048-3.47c-1.188,2.313-2.554,4.282-4.097,5.906c-0.06-0.062-0.148-0.188-0.267-0.375
	c-0.356-0.75-0.654-1.249-0.891-1.5c1.661-1.812,2.997-3.844,4.007-6.094l-3.562-5.906l1.514-1.031l2.938,4.595
	c0.652-1.875,1.068-4.031,1.247-6.469h-5.61V19.63h7.658v2.062c-0.476,3.625-1.129,6.5-1.959,8.624l2.761,4.5L115.747,36.035z
	 M123.049,30.879c-0.653,3.375-2.85,6.312-6.589,8.812c-0.477-0.562-0.979-1.188-1.515-1.875c4.037-2.25,6.263-5.374,6.679-9.375
	c0.179-1.312,0.268-2.779,0.268-4.405h2.048c0,0.312-0.03,0.781-0.089,1.405c0,0.626,0,1.063,0,1.312
	c0.771,4.875,2.908,8.407,6.412,10.594c-0.12,0.249-0.356,0.593-0.713,1.031c-0.297,0.437-0.534,0.75-0.712,0.938
	C125.81,37.128,123.88,34.317,123.049,30.879L123.049,30.879z M128.036,26.941c-0.355-0.124-0.891-0.312-1.603-0.562
	c-0.179-0.062-0.298-0.094-0.356-0.094l1.604-3.749h-7.303c-0.238,0.749-0.654,1.812-1.247,3.187
	c-0.298,0.688-0.505,1.219-0.623,1.595c-0.713-0.5-1.336-0.875-1.87-1.126c1.305-2.687,2.374-5.654,3.206-8.904l2.048,0.375
	c-0.238,1-0.534,1.969-0.891,2.905h8.728v2.062L128.036,26.941z M136.608,36.504c-0.832,0.624-1.723,1.624-2.672,3.001l-0.891-2.251
	c0.831-0.812,1.662-1.655,2.494-2.53v-7.312h-2.227v-2.157h4.186v9.47c0.83,1.625,2.373,2.438,4.63,2.438
	c2.611,0.062,6.797,0.029,12.556-0.094c-0.06,0.123-0.119,0.343-0.178,0.655c-0.238,0.562-0.387,1.031-0.445,1.406
	c-3.444,0-5.908,0-7.392,0c-1.841,0-3.503-0.032-4.986-0.094C139.368,38.972,137.677,38.128,136.608,36.504L136.608,36.504z
	 M136.52,22.91c-0.12-0.249-0.327-0.594-0.624-1.03c-0.534-0.938-1.246-2.062-2.137-3.375l1.691-1.031
	c1.009,1.375,1.988,2.781,2.939,4.219L136.52,22.91z M140.971,34.16c-0.119,0.062-0.208,0.126-0.267,0.188l-1.069-1.5
	c0.415-0.437,0.624-0.968,0.624-1.594V19.067c0.059,0,0.147-0.03,0.267-0.094c1.781-0.5,3.265-1,4.453-1.5l1.157,1.688
	c-1.603,0.625-2.938,1.062-4.007,1.312V31.16c0.414-0.188,1.038-0.499,1.87-0.938c0.534-0.249,0.919-0.437,1.157-0.562
	c0,0.25,0.029,0.654,0.089,1.218c0,0.375,0,0.656,0,0.844c-1.128,0.501-2.286,1.125-3.473,1.875
	C141.534,33.724,141.268,33.911,140.971,34.16L140.971,34.16z M146.314,36.316V19.161h7.391v11.812
	c0.059,1.626-0.684,2.47-2.227,2.531c-0.712,0.062-1.425,0.094-2.137,0.094l-0.445-1.969c0.356,0.062,0.891,0.094,1.603,0.094
	c0.891,0,1.306-0.375,1.247-1.125v-9.562h-3.562v15.279H146.314z M162.802,24.223c-0.06,7.312-1.396,12.469-4.008,15.469
	c-0.298-0.375-0.801-0.938-1.514-1.688c2.316-2.812,3.474-7.438,3.474-13.875c0-0.249,0.029-0.499,0.089-0.75h-2.85v-1.968h2.85
	c0.059-1.312,0.089-2.688,0.089-4.125h1.96v4.125h4.986c0,2.875-0.089,7.124-0.268,12.749c0,0.75,0,1.281,0,1.594
	c-0.06,2.25-1.01,3.343-2.85,3.281c-0.832,0.062-1.691,0.094-2.582,0.094c0-0.188-0.06-0.562-0.178-1.125
	c-0.061-0.501-0.12-0.844-0.179-1.031c0.713,0,1.395,0,2.049,0c1.127,0.062,1.691-0.53,1.691-1.781
	c0.179-2.749,0.268-6.687,0.268-11.812h-3.028C162.802,23.63,162.802,23.911,162.802,24.223L162.802,24.223z M170.016,39.129V19.911
	h8.281v19.218h-2.048v-2.156h-4.274v2.156H170.016z M171.975,21.974v13.03h4.274v-13.03H171.975z M203.698,36.973
	c-0.654,0.688-1.247,1.406-1.781,2.156c-3.681-2.749-6.589-6.999-8.726-12.75l-0.356-0.656c-1.545,5.501-4.631,10.031-9.262,13.594
	l-1.514-2.155c4.809-3.312,7.955-8.062,9.439-14.25c-1.188-1.874-2.346-3.28-3.473-4.219l1.691-1.219
	c1.96,1.625,3.799,4.406,5.521,8.343C197.377,31.13,200.194,34.849,203.698,36.973L203.698,36.973z M182.06,69.294v-2.438h21.639
	v2.438H182.06z M205.091,145.063c-0.416,6.313-3.354,11.22-8.816,14.72c-0.06-0.127-0.178-0.281-0.355-0.47
	c-0.534-0.688-0.95-1.188-1.247-1.5c5.104-3.188,7.836-7.438,8.192-12.75h-7.747v-2.062h8.015c0.118-1.812,0.207-3.75,0.267-5.812
	h2.227c0,0.938-0.06,2.345-0.178,4.22c-0.061,0.688-0.09,1.219-0.09,1.594h9.351c-0.06,1.062-0.148,2.875-0.268,5.438
	c-0.119,3-0.208,5.062-0.267,6.188c-0.06,3.061-1.484,4.561-4.274,4.5c-1.307,0.061-2.731,0.094-4.274,0.094
	c-0.06-0.938-0.238-1.688-0.534-2.25c1.246,0,2.611,0,4.096,0c1.899,0.125,2.85-0.844,2.85-2.906
	c0.118-1.312,0.237-3.969,0.356-7.969c0-0.437,0-0.781,0-1.031h-7.304V145.063z M199.658,142.345c-0.89-1.187-1.9-2.344-3.027-3.469
	l1.514-1.312c0.356,0.314,0.891,0.845,1.604,1.595c0.712,0.688,1.246,1.219,1.603,1.594L199.658,142.345z M208.652,153.22
	c-1.068-1.374-2.197-2.656-3.384-3.844l1.514-1.312c0.891,0.75,2.078,1.938,3.562,3.562L208.652,153.22z M210.925,34.441
	c-0.416,1.688-1.218,3.405-2.404,5.156c-0.654-0.562-1.307-1.095-1.959-1.594c2.077-2.374,3.027-6,2.849-10.875V20.66h8.46
	c-0.178-0.5-0.476-1.25-0.891-2.25c-0.178-0.312-0.298-0.562-0.355-0.75l2.493-0.47c0.593,1.188,1.038,2.25,1.336,3.188
	l-1.069,0.281h8.549v2.154h-16.385v4.407C211.548,30.41,211.339,32.817,210.925,34.441L210.925,34.441z M216.446,79.7v-4.781h-4.453
	v3.562h-1.87v-3.844c-0.771,0.438-1.662,0.844-2.671,1.219c-0.061-0.188-0.209-0.499-0.445-0.938
	c-0.179-0.375-0.327-0.656-0.445-0.844c2.374-0.75,4.274-1.654,5.699-2.72h-5.165v-1.688h6.856c0.356-0.375,0.682-0.812,0.979-1.312
	h-5.609v-6.562h16.117v6.562h-8.459c-0.179,0.502-0.445,0.938-0.802,1.312h11.576v1.688h-5.788c1.604,1.313,3.681,2.156,6.233,2.531
	c-0.237,0.626-0.505,1.219-0.801,1.781c-0.951-0.312-1.841-0.593-2.672-0.844v1.5c0.118,1.375-0.623,2.062-2.227,2.062
	c-0.712,0.062-1.514,0.094-2.404,0.094l-0.267-1.5c0.236,0,0.891,0,1.959,0c0.771,0,1.127-0.28,1.068-0.844v-1.219h-4.452V79.7
	H216.446z M207.096,60.294V58.7h5.877v-1.499h2.049V58.7h4.809v-1.499h1.959V58.7h5.966v1.594h-5.966v1.031h-1.959v-1.031h-4.809
	v1.031h-2.049v-1.031H207.096z M211.37,63.2v1.312h12.021V63.2H211.37z M211.37,65.638v1.312h12.021v-1.312H211.37z M218.405,71.919
	v1.5h3.74c-0.891-0.562-1.663-1.249-2.315-2.062h-4.898c-0.771,0.75-1.662,1.439-2.671,2.062h4.186v-1.5H218.405z M221.578,143.938
	c-0.594,0.75-1.218,1.47-1.87,2.156c-0.12-0.312-0.327-0.75-0.623-1.312c-0.179-0.312-0.298-0.562-0.356-0.75
	c2.077-2.124,3.681-4.438,4.809-6.938l1.959,0.75c-0.594,1.188-1.246,2.312-1.959,3.375v9.75h-1.959L221.578,143.938
	L221.578,143.938z M223.003,152.657c-0.713,1.938-1.455,3.719-2.227,5.344l-1.87-0.844c0.891-1.625,1.604-3.344,2.138-5.156
	L223.003,152.657L223.003,152.657z M227.01,159.032c-1.9,0-2.85-0.938-2.85-2.812v-3.938h2.049v3.375
	c0,0.938,0.503,1.405,1.514,1.405h3.74c1.305,0.125,2.018-0.343,2.137-1.405c0.179-0.623,0.297-1.312,0.356-2.062
	c0.236,0.126,0.623,0.281,1.157,0.469c0.356,0.126,0.624,0.221,0.802,0.281c-0.06,0.501-0.209,1.219-0.445,2.156
	c-0.06,0.126-0.089,0.22-0.089,0.281c-0.356,1.561-1.484,2.311-3.384,2.25H227.01z M230.216,145.251
	c-1.366,1.75-2.702,3.312-4.007,4.688c-0.477-0.5-0.979-0.938-1.515-1.312c1.188-1.125,2.463-2.625,3.83-4.5L230.216,145.251
	L230.216,145.251z M228.791,141.407c-0.594,1.062-1.336,2.155-2.227,3.28c-0.119-0.125-0.326-0.28-0.623-0.469
	c-0.416-0.375-0.743-0.656-0.979-0.844c1.543-1.812,2.819-3.875,3.829-6.188l2.048,0.375c-0.119,0.251-0.298,0.626-0.534,1.125
	c-0.237,0.375-0.387,0.656-0.445,0.845h9.707v1.969l-1.247,2.906c-0.298-0.188-0.832-0.375-1.603-0.562
	c-0.12-0.062-0.209-0.094-0.268-0.094l1.068-2.344L228.791,141.407L228.791,141.407z M230.483,155.376
	c-0.772-1.125-1.663-2.218-2.672-3.281l1.514-1.125c0.949,0.938,1.899,1.969,2.85,3.094L230.483,155.376z M231.195,150.876
	c-0.594,0-1.277,0-2.048,0c-0.12-0.562-0.268-1.188-0.445-1.875c0.415,0.062,1.009,0.094,1.781,0.094
	c0.948,0,1.394-0.406,1.335-1.219v-5.156h1.96v5.438C233.836,149.907,232.977,150.814,231.195,150.876L231.195,150.876z
	 M234.635,35.848c-0.891,0.876-1.812,1.905-2.761,3.094l-0.891-2.25c0.534-0.624,1.336-1.5,2.404-2.625
	c0.653-0.624,1.217-0.938,1.692-0.938c0.118,0,0.236,0.032,0.356,0.094c0.118,0,0.207,0,0.267,0
	c4.511-2.812,8.549-6.03,12.111-9.656h-15.139v-2.062h8.727c-0.237-0.625-0.623-1.562-1.157-2.812
	c-0.179-0.438-0.327-0.75-0.445-0.938l2.315-0.469c0.475,1.062,1.038,2.405,1.691,4.03l-0.623,0.188h7.48v2.249
	c-3.86,4.188-8.282,7.845-13.269,10.97c1.068,1.312,2.729,2,4.986,2.062c2.138,0.062,5.58,0.031,10.33-0.095
	c-0.298,0.688-0.505,1.406-0.623,2.156c-2.791,0-4.809,0-6.056,0c-1.545-0.062-2.909-0.126-4.097-0.188
	c-2.791,0-4.928-0.938-6.411-2.812C235.228,35.599,234.931,35.599,234.635,35.848L234.635,35.848z M240.958,79.7v-4.781h-4.453
	v3.562h-1.87v-3.844c-0.771,0.438-1.662,0.844-2.671,1.219c-0.061-0.188-0.209-0.499-0.445-0.938
	c-0.179-0.375-0.327-0.656-0.445-0.844c2.374-0.75,4.274-1.654,5.699-2.72h-5.165v-1.688h6.856c0.356-0.375,0.682-0.812,0.979-1.312
	h-5.609v-6.562h16.117v6.562h-8.459c-0.179,0.502-0.445,0.938-0.802,1.312h11.576v1.688h-5.788c1.604,1.313,3.681,2.156,6.233,2.531
	c-0.237,0.626-0.505,1.219-0.801,1.781c-0.951-0.312-1.841-0.593-2.672-0.844v1.5c0.118,1.375-0.623,2.062-2.227,2.062
	c-0.712,0.062-1.514,0.094-2.404,0.094l-0.267-1.5c0.236,0,0.891,0,1.959,0c0.771,0,1.127-0.28,1.068-0.844v-1.219h-4.452V79.7
	H240.958z M231.607,60.294V58.7h5.877v-1.499h2.049V58.7h4.809v-1.499h1.959V58.7h5.966v1.594h-5.966v1.031h-1.959v-1.031h-4.809
	v1.031h-2.049v-1.031H231.607z M238.676,149.938c-0.356-0.375-0.861-0.938-1.514-1.688c-0.95-1.125-1.723-2-2.315-2.625l1.425-1.219
	c1.305,1.375,2.641,2.78,4.007,4.219L238.676,149.938z M238.765,157.251c-0.891-1.438-1.989-3.031-3.295-4.781l1.604-1.125
	c1.305,1.688,2.462,3.313,3.473,4.875L238.765,157.251z M235.882,63.2v1.312h12.021V63.2H235.882z M235.882,65.638v1.312h12.021
	v-1.312H235.882z M242.917,71.919v1.5h3.74c-0.891-0.562-1.663-1.249-2.315-2.062h-4.898c-0.771,0.75-1.662,1.439-2.671,2.062h4.186
	v-1.5H242.917z M243.418,141.782v-1.781h4.186v-2.625h1.959v2.625h3.651v-2.719h1.87v2.719h3.74v-2.625h1.959v2.625h4.097v1.781
	h-4.097v2.438h-1.959v-2.438h-3.74v2.438h-1.87v-2.438h-3.651v2.438h-1.959v-2.438H243.418z M244.131,149.47v-4.219h20.125v4.219
	h-2.048v-2.344h-16.029v2.344H244.131z M246.268,157.907v-7.875h6.857v-2.062h2.137v2.062h6.946v5.155
	c0.059,1.688-0.772,2.531-2.493,2.531c-0.477,0.062-1.336,0.094-2.583,0.094c-0.06-0.312-0.148-0.655-0.267-1.03
	c-0.061-0.312-0.12-0.562-0.179-0.75c0.535,0.062,1.276,0.094,2.227,0.094c0.891,0.062,1.305-0.343,1.247-1.219v-3.095h-4.898v7.875
	h-2.137v-7.875h-4.809v6.095H246.268z M256.644,61.981V60.2h3.474v-2.905h1.87V60.2h2.938v1.78h-2.938v2.531h1.246
	c1.365-1.499,2.552-3.188,3.562-5.062l1.603,0.938c-0.95,1.562-1.9,2.938-2.85,4.123h2.493v1.781h-4.096
	c-0.713,0.812-1.514,1.595-2.404,2.344h5.254v10.781h-1.87v-1.312h-5.254v1.312h-1.87v-8.062l-1.692,1.125
	c-0.06-0.188-0.148-0.469-0.267-0.844c-0.179-0.499-0.327-0.844-0.445-1.031c2.256-1.249,4.274-2.686,6.056-4.312h-5.699v-1.781
	h4.363v-2.531L256.644,61.981L256.644,61.981z M256.021,22.723v-1.968h3.829c-0.298-1.062-0.623-2.094-0.979-3.094l2.048-0.47
	c0.179,0.688,0.535,1.875,1.069,3.562h2.493v1.968h-4.809l-0.089,3.188h4.274c0,3.375-0.09,6.75-0.268,10.125
	c0,1.999-0.861,3-2.582,3c-0.713,0-1.366,0-1.959,0l-0.445-1.969c0.534,0,1.127,0,1.78,0c1.009,0.062,1.483-0.438,1.425-1.501
	c0.118-3.249,0.179-5.812,0.179-7.688h-2.493c0,5.312-0.832,9.218-2.494,11.719l-1.514-1.406c1.483-1.999,2.227-5.654,2.227-10.968
	l0.089-4.501L256.021,22.723L256.021,22.723z M259.672,70.326v2.344h5.254v-2.344H259.672z M259.672,74.263v2.344h5.254v-2.344
	H259.672z M267.953,21.505c-0.771,1.375-1.691,2.718-2.76,4.03c-0.654-0.688-1.129-1.155-1.426-1.406
	c1.781-2.062,3.087-4.374,3.919-6.938l2.048,0.188c-0.12,0.312-0.298,0.781-0.534,1.406c-0.178,0.438-0.298,0.75-0.356,0.938h8.015
	v1.781H267.953L267.953,21.505z M276.502,38.004c-0.356,0.375-0.623,0.656-0.801,0.844c-3.326-2.749-5.225-6.874-5.699-12.375
	c-0.713,0.063-1.425,0.157-2.138,0.281v9.844c1.247-0.624,2.404-1.125,3.473-1.5c0,0.188,0,0.501,0,0.938
	c0.059,0.438,0.09,0.75,0.09,0.938c-1.247,0.438-2.494,0.999-3.74,1.688c-0.12,0.062-0.268,0.124-0.445,0.188
	c-0.476,0.249-0.772,0.438-0.891,0.562l-1.157-1.688c0.534-0.438,0.771-1.031,0.712-1.781V24.974
	c3.206-0.25,6.412-0.751,9.617-1.501l0.713,1.969c-1.367,0.313-2.85,0.562-4.453,0.75c0.179,1.5,0.415,2.812,0.713,3.938
	c1.187-0.624,2.345-1.312,3.473-2.062l0.979,1.688c-1.246,0.749-2.523,1.469-3.829,2.155c0.771,2.062,2.167,3.781,4.186,5.156
	C277.184,37.254,276.917,37.565,276.502,38.004L276.502,38.004z M269.345,142.251v-1.969h8.282v-3h2.137v3h8.282v1.969h-8.282v5.906
	h9.439v1.969h-8.549c2.195,2.562,5.135,4.532,8.816,5.906c-0.12,0.25-0.327,0.562-0.624,0.938c-0.237,0.438-0.445,0.781-0.623,1.031
	c-3.918-1.688-6.738-3.781-8.46-6.281v7.969h-2.137v-8.062c-2.019,2.688-4.897,4.907-8.638,6.656
	c-0.238-0.502-0.654-1.095-1.247-1.781c3.62-1.625,6.59-3.75,8.905-6.375h-8.46v-1.969h9.439v-5.906L269.345,142.251
	L269.345,142.251z M274.955,113.882c-0.355-0.562-0.921-1.374-1.691-2.438c-0.179-0.188-0.298-0.343-0.356-0.469v8.625h-1.781
	v-8.625c-0.712,2.125-1.603,3.97-2.671,5.531c-0.061-0.375-0.209-0.938-0.445-1.688c-0.061-0.312-0.12-0.529-0.179-0.655
	c1.306-1.625,2.374-3.875,3.206-6.75H268.1v-1.781h3.027v-8.25h1.781v8.25h2.672v1.781h-2.672v2.625l0.891-0.75
	c1.187,1.562,2.048,2.688,2.582,3.375L274.955,113.882z M269.345,104.319c-0.237-0.811-0.594-1.936-1.068-3.375
	c-0.119-0.499-0.237-0.903-0.356-1.219l1.247-0.375c0.059,0.127,0.147,0.345,0.268,0.656c0.652,1.813,1.068,3.094,1.246,3.844
	L269.345,104.319z M269.022,79.7V58.513h7.658v2.063l-2.227,6.562c1.84,1.688,2.729,3.596,2.672,5.719
	c0.058,2.564-0.98,3.907-3.117,4.031c-0.713,0-1.396,0-2.048,0c-0.061-0.248-0.12-0.623-0.179-1.125
	c-0.119-0.499-0.208-0.844-0.267-1.031c0.534,0,1.157,0,1.87,0c1.246,0.063,1.839-0.623,1.78-2.062c0-1.501-0.921-3.282-2.76-5.345
	l2.226-6.844h-3.65V79.7H269.022z M273.709,147.595c-0.416-0.562-1.069-1.374-1.959-2.438c-0.417-0.5-0.713-0.875-0.891-1.125
	l1.603-1.22c0.593,0.625,1.425,1.626,2.493,3c-0.712-0.875-0.594-0.718,0.356,0.47L273.709,147.595z M276.202,99.726
	c-0.476,1.5-1.011,3.033-1.603,4.594l-1.336-0.469c0.652-1.561,1.187-3.094,1.603-4.594L276.202,99.726L276.202,99.726z
	 M276.647,100.757v-1.5h4.986v-1.969h1.959v1.969h5.521v1.5h-5.521v1.5h4.986v1.406h-4.986v1.594h5.877v1.5H276.29v-1.5h5.343
	v-1.594h-4.541v-1.406h4.541v-1.5H276.647z M277.093,119.601v-11.344h11.131v8.438c0.059,1.749-0.802,2.656-2.583,2.72
	c-0.237,0-0.623,0-1.157,0c-0.713,0.062-1.277,0.094-1.692,0.094c-0.119-0.562-0.267-1.188-0.445-1.875
	c0.593,0.062,1.454,0.094,2.583,0.094c1.009,0.062,1.483-0.344,1.425-1.219v-0.75h-7.391v3.844L277.093,119.601L277.093,119.601z
	 M278.963,109.663v1.688h7.391v-1.688H278.963z M278.963,112.757v1.594h7.391v-1.594H278.963z M280.71,75.106l-0.713-2.437
	c1.188-0.999,2.612-2.312,4.274-3.938V57.389h2.049V79.7h-2.049v-8.156L280.71,75.106z M282.401,67.231
	c-0.297-0.938-0.861-2.403-1.691-4.405c-0.298-0.688-0.505-1.187-0.623-1.5l1.603-0.655c0.059,0.187,0.178,0.468,0.356,0.843
	c0.948,2.25,1.632,3.938,2.048,5.062L282.401,67.231z M281.154,31.535v-1.688h19.502v1.688h-8.727v2.062h7.658v1.594h-7.658v1.97
	h9.617v1.78h-21.283v-1.78h9.618v-1.97h-7.658v-1.594h7.658v-2.062H281.154z M286.354,144.313c-1.247,1.438-2.286,2.595-3.117,3.47
	l-1.425-1.406c1.188-1.125,2.227-2.312,3.117-3.562l1.603,1.312C286.472,144.188,286.412,144.252,286.354,144.313L286.354,144.313z
	 M282.758,28.066v-8.812h4.897c0.178-0.375,0.386-0.906,0.623-1.594c0.059-0.25,0.089-0.406,0.089-0.47l2.315,0.188
	c-0.06,0.126-0.119,0.312-0.178,0.562c-0.238,0.562-0.445,1-0.623,1.312h9.261v8.812L282.758,28.066L282.758,28.066z
	 M284.806,20.942v1.969h12.289v-1.969H284.806z M284.806,24.316v2.062h12.289v-2.062H284.806z M289.704,63.107
	c-0.477,0.438-0.979,0.844-1.514,1.219c-0.12-0.123-0.268-0.343-0.445-0.656c-0.356-0.437-0.624-0.78-0.802-1.031
	c2.434-1.561,4.333-3.375,5.699-5.437l2.048,0.469c-0.119,0.126-0.267,0.345-0.445,0.655c-0.178,0.313-0.534,0.782-1.068,1.405
	h7.837v2.062c-2.554,3.562-6.799,6.001-12.734,7.312c-0.238-0.562-0.595-1.186-1.068-1.875c2.137-0.436,3.918-0.938,5.343-1.5
	C291.543,64.733,290.595,63.856,289.704,63.107L289.704,63.107z M287.121,71.731v-1.875h9.885v-2.812h1.959v2.812h2.761v1.875
	h-2.761v4.595c0.059,2-0.891,3-2.85,3c-0.298,0-0.772,0-1.425,0c-0.712,0.062-1.246,0.094-1.603,0.094
	c0-0.438-0.089-1.094-0.268-1.969c0.179,0.625,0.147,0.562-0.089-0.188c1.009,0,1.899,0,2.672,0
	c1.127,0.062,1.661-0.406,1.603-1.406v-4.125H287.121z M292.02,76.7c-0.179-0.188-0.445-0.499-0.802-0.938
	c-0.95-1.125-1.692-1.969-2.227-2.531l1.425-1.219c0.415,0.438,1.127,1.158,2.138,2.156c0.414,0.502,0.741,0.877,0.979,1.125
	L292.02,76.7z M292.82,65.638c2.196-0.874,4.126-2.217,5.788-4.031h-7.213l-0.712,0.656l0.356-0.281
	c0.948,0.689,1.959,1.563,3.027,2.625L292.82,65.638L292.82,65.638z M293.055,109.944v-1.875h4.72v-1.688h1.87v1.688h4.453v1.875
	h-4.453v2.625l0.802-0.938c1.483,1,2.879,2.031,4.186,3.094l-1.247,1.688c-0.594-0.5-1.425-1.187-2.493-2.062
	c-0.534-0.437-0.95-0.781-1.247-1.031v6.281h-1.87v-6.938c-1.01,1.875-2.493,3.625-4.452,5.25c-0.12-0.312-0.356-0.72-0.713-1.22
	c-0.119-0.249-0.208-0.437-0.267-0.562c2.077-1.562,3.799-3.624,5.165-6.188H293.055z M293.056,141.22v-2.156h20.481v2.156h-7.926
	c-0.891,1.562-1.841,3.032-2.85,4.406h1.514v14.062h-2.315v-13.03c-2.137,2.625-4.868,5.125-8.192,7.5
	c-0.06-0.062-0.148-0.188-0.267-0.375c-0.535-0.812-0.922-1.345-1.158-1.595c4.987-3.312,8.519-6.969,10.597-10.969L293.056,141.22
	L293.056,141.22z M302.762,100.101c-3.919,0.314-7.124,0.532-9.617,0.656c-0.061-0.188-0.12-0.469-0.179-0.844
	c-0.119-0.499-0.209-0.845-0.267-1.031c3.977-0.062,7.776-0.281,11.398-0.656l0.355,1.781
	C304.098,100.007,303.532,100.04,302.762,100.101L302.762,100.101z M294.569,106.476c-0.477-1.312-1.011-2.625-1.604-3.938
	l1.692-0.562c0.118,0.251,0.325,0.72,0.623,1.406c0.534,1.188,0.891,2.002,1.068,2.438L294.569,106.476z M298.22,105.444
	c-0.237-1.062-0.594-2.374-1.068-3.938l1.691-0.375c0.415,1.252,0.802,2.563,1.158,3.938L298.22,105.444z M304.453,101.976
	c-0.416,1.001-1.099,2.501-2.048,4.5l-1.603-0.75c0.948-1.875,1.603-3.312,1.959-4.312L304.453,101.976L304.453,101.976z
	 M313.893,112.288c-2.257,3-5.373,5.469-9.351,7.405c-0.355-0.562-0.771-1.188-1.246-1.875c3.68-1.5,6.737-3.844,9.172-7.03
	L313.893,112.288L313.893,112.288z M304.944,70.606v-1.78h21.105v1.78h-9.262v2.25h7.659v1.781h-7.659v2.344
	c3.087,0,6.234,0,9.439,0c-0.179,0.688-0.355,1.345-0.534,1.97c-4.097,0-7.096-0.031-8.994-0.095c-3.562,0-5.967-1.062-7.213-3.188
	c-0.596,1.375-1.812,2.781-3.651,4.219l-1.246-1.594c2.435-1.562,3.77-3.874,4.007-6.938l1.959,0.281
	c-0.06,0.251-0.119,0.626-0.178,1.126c-0.12,0.438-0.179,0.749-0.179,0.938c0.949,1.938,2.463,3.032,4.542,3.28v-6.375
	L304.944,70.606L304.944,70.606z M312.913,99.444c-1.9,2.062-4.274,3.972-7.124,5.72l-1.157-1.781
	c2.552-1.312,4.838-3.094,6.856-5.344L312.913,99.444L312.913,99.444z M308.328,25.441v-1.688h14.249v1.688h-5.7
	c-0.178,0.126-0.416,0.281-0.713,0.47c-0.594,0.438-1.068,0.75-1.425,0.938c0.831,0.938,1.454,1.875,1.87,2.813
	c2.314-1,4.482-2.125,6.502-3.376l1.067,1.688c-1.246,0.626-2.522,1.282-3.829,1.969c1.01,3.063,2.908,5.221,5.699,6.47
	c-0.416,0.501-0.861,1.062-1.336,1.688c-2.969-1.562-4.986-4.031-6.056-7.406c-0.12,0.063-0.327,0.188-0.624,0.375
	c-0.298,0.126-0.534,0.251-0.712,0.375c0.355,1.125,0.534,2.345,0.534,3.656c0.059,2.812-1.068,4.249-3.385,4.312
	c-0.891,0-1.87,0-2.938,0c-0.062-0.251-0.149-0.626-0.269-1.125c-0.06-0.375-0.118-0.656-0.178-0.845c0.356,0,0.83,0.03,1.425,0.095
	c0.476,0,0.859,0,1.157,0c1.483,0.124,2.196-0.688,2.138-2.438c0-0.562-0.03-1.093-0.089-1.594
	c-2.554,2.312-5.908,4.155-10.063,5.531c-0.237-0.626-0.534-1.282-0.891-1.969c4.097-1,7.599-2.812,10.509-5.438
	c-0.18-0.375-0.356-0.812-0.535-1.312c-2.493,2.001-5.462,3.532-8.904,4.595c-0.061-0.188-0.209-0.499-0.445-0.938
	c-0.179-0.375-0.327-0.656-0.445-0.844c3.384-0.874,6.352-2.28,8.905-4.219c-0.061-0.188-0.209-0.438-0.444-0.75
	c-0.12-0.124-0.209-0.219-0.269-0.281c-2.137,1.188-4.571,2.188-7.302,3c-0.061-0.249-0.209-0.562-0.445-0.938
	c-0.179-0.437-0.327-0.75-0.445-0.938c3.799-0.75,6.826-1.938,9.083-3.562H308.328z M313.358,105.819
	c-2.138,2.377-4.542,4.347-7.214,5.906c-0.355-0.375-0.771-0.938-1.247-1.688c2.672-1.562,5.017-3.437,7.035-5.625L313.358,105.819
	L313.358,105.819z M312.29,153.595c-2.85-2.438-5.195-4.312-7.035-5.625l1.425-1.594c0.534,0.375,1.336,0.97,2.404,1.781
	c2.196,1.626,3.799,2.812,4.809,3.562L312.29,153.595z M305.301,24.129v-4.312h9.528l-0.979-2.438l2.314-0.375
	c0.355,0.75,0.683,1.656,0.979,2.719l-0.178,0.094h8.461v4.312h-2.048v-2.53h-15.941v2.53H305.301z M309.309,190.136v-3.094h-2.938
	v3.094H309.309z M307.705,67.044v-8.812H323.2v8.812H307.705z M309.753,60.013v1.875h11.312v-1.875H309.753z M309.753,63.388v1.97
	h11.312v-1.97H309.753z M316.878,190.136v-3.094h-2.938v3.094H316.878z M317.557,113.694v-1.78h8.905
	c0.06-0.188,0.089-0.438,0.089-0.75c0.06-0.312,0.09-0.562,0.09-0.75h2.138c0,0.501-0.061,1.001-0.179,1.5h9.172v1.78h-8.638
	c1.009,2.188,4.065,3.438,9.172,3.75c-0.178,0.312-0.387,0.75-0.623,1.312c-0.179,0.312-0.298,0.562-0.355,0.75
	c-5.106-0.75-8.312-2.25-9.617-4.5c-1.068,2.188-4.334,3.812-9.796,4.875c-0.061-0.188-0.209-0.531-0.445-1.031
	c-0.236-0.501-0.416-0.876-0.534-1.125c5.344-0.562,8.371-1.906,9.083-4.031H317.557z M317.824,101.976v-1.688h5.699
	c-0.179-0.312-0.534-0.78-1.068-1.406c-0.477-0.562-0.802-0.968-0.979-1.219l2.049-0.562c0.059,0.127,0.207,0.281,0.444,0.469
	c0.892,1.064,1.483,1.814,1.781,2.25l-1.336,0.47h5.076c1.127-1.438,1.897-2.498,2.313-3.188l2.139,0.656
	c-0.179,0.251-0.505,0.688-0.979,1.312c-0.476,0.562-0.802,0.972-0.979,1.22h5.521v1.688h-8.814v2.062h7.747v1.78h-7.747v2.062
	h9.351v1.688h-20.838v-1.688h9.35v-2.062h-7.568v-1.78h7.568v-2.062H317.824z M318.181,159.407v-21h18.969v17.625
	c0.117,2.123-0.892,3.188-3.028,3.188c-0.95,0.062-2.078,0.094-3.384,0.094c0-0.625-0.148-1.346-0.445-2.155
	c1.069,0,2.078,0,3.028,0c1.305,0.125,1.898-0.375,1.779-1.5V140.47h-14.781v18.938L318.181,159.407L318.181,159.407z
	 M324.536,190.136v-3.094h-2.938v3.094H324.536z M321.653,144.876v-1.969h12.11v1.969H321.653z M322.989,154.907v-7.595h9.351v7.595
	H322.989z M324.948,149.188v3.845h5.432v-3.845H324.948z M334.354,24.223c-0.06,7.312-1.396,12.469-4.007,15.469
	c-0.298-0.375-0.802-0.938-1.514-1.688c2.314-2.812,3.473-7.438,3.473-13.875c0-0.249,0.029-0.499,0.089-0.75h-2.85v-1.968h2.85
	c0.06-1.312,0.09-2.688,0.09-4.125h1.959v4.125h4.986c0,2.875-0.089,7.124-0.268,12.749c0,0.75,0,1.281,0,1.594
	c-0.061,2.25-1.01,3.343-2.851,3.281c-0.831,0.062-1.69,0.094-2.581,0.094c0-0.188-0.062-0.562-0.18-1.125
	c-0.06-0.501-0.119-0.844-0.178-1.031c0.713,0,1.395,0,2.048,0c1.127,0.062,1.692-0.53,1.692-1.781
	c0.178-2.749,0.267-6.687,0.267-11.812h-3.027C334.354,23.63,334.354,23.911,334.354,24.223L334.354,24.223z M336.492,76.419
	c-0.356-0.562-1.069-1.562-2.139-3c-0.298-0.312-0.505-0.562-0.622-0.749c-0.416,2.188-1.456,4.468-3.117,6.843
	c-0.179-0.25-0.534-0.656-1.068-1.219c-0.238-0.188-0.387-0.312-0.445-0.375c2.257-2.749,3.413-6.717,3.474-11.906
	c0-0.811,0-2.217,0-4.219c0.059-1.998,0.089-3.437,0.089-4.312h1.96c0,2.249-0.062,5.001-0.179,8.249
	c0.713-1.062,1.454-2.438,2.227-4.125l1.336,1.407c-0.832,1.376-1.781,2.812-2.85,4.312l-0.713-0.845
	c-0.061,1.439-0.179,2.72-0.355,3.846c1.543,1.75,2.789,3.25,3.739,4.499L336.492,76.419z M330.348,67.889
	c-0.355-1.749-0.771-3.624-1.247-5.626l1.515-0.469c0.059,0.251,0.146,0.626,0.268,1.126c0.296,1.188,0.623,2.718,0.979,4.593
	L330.348,67.889z M333.82,190.136v-3.094h-2.938v3.094H333.82z M337.827,62.544v-1.968h5.609l-1.245-2.906l2.137-0.469
	c0.178,0.375,0.445,1.001,0.802,1.874c0.236,0.627,0.414,1.063,0.534,1.313l-0.713,0.188h5.521v1.968h-6.232
	c-1.425,2.002-2.791,3.938-4.098,5.812c0.771-0.061,2.196-0.094,4.274-0.094c0.831-1.186,1.633-2.438,2.404-3.75l2.049,1.031
	c-2.613,3.75-5.403,7.406-8.371,10.969c2.018-0.124,4.186-0.218,6.501-0.281c-0.654-1.373-1.247-2.625-1.781-3.75l1.691-0.844
	c0.535,1.001,1.336,2.625,2.403,4.875c0.535,1.062,0.949,1.875,1.247,2.438l-1.869,0.75l-0.802-1.688
	c-3.027,0.062-5.463,0.156-7.303,0.281c-0.771,0.062-1.603,0.156-2.493,0.281l-0.802-1.875c0.652-0.312,1.217-0.78,1.692-1.406
	c1.305-1.5,2.699-3.218,4.186-5.156c-0.356,0-0.861,0.033-1.515,0.095c-1.842,0-2.998,0.062-3.474,0.188l-0.712-1.875
	c0.296-0.188,0.683-0.593,1.157-1.219c-0.06,0.062,0,0,0.178-0.188c0.892-1.186,1.87-2.719,2.939-4.594L337.827,62.544
	L337.827,62.544z M341.39,190.136v-3.094h-2.938v3.094H341.39z M349.005,116.976c-0.298-0.188-0.801-0.593-1.514-1.219
	c-0.298-0.312-0.534-0.562-0.713-0.75c-0.712,1.312-2.048,2.78-4.007,4.406c-0.119-0.126-0.356-0.407-0.714-0.845
	c-0.297-0.375-0.533-0.655-0.712-0.844c1.781-1.249,3.117-2.592,4.007-4.031l-3.204-3c0.533-2.123,0.979-4.405,1.336-6.844h-1.87
	v-2.062h2.226c0.179-1.5,0.356-3,0.534-4.5l2.049,0.188l-0.624,4.312h4.098v1.875c-0.416,4.5-1.129,7.688-2.138,9.562l2.582,2.25
	L349.005,116.976z M341.436,152.657v-1.875h15.229v-1.781h2.138v1.781h4.187v1.875h-4.187v3.375
	c0.118,2.311-0.891,3.436-3.027,3.375c-1.426,0-2.582,0-3.474,0c-0.06-0.188-0.147-0.531-0.268-1.031
	c-0.119-0.502-0.208-0.876-0.268-1.125c0.356,0,0.859,0.031,1.515,0.094c0.713,0,1.216,0,1.514,0c1.365,0.125,1.988-0.5,1.87-1.875
	v-2.812L341.436,152.657L341.436,152.657z M341.567,39.129V19.911h8.281v19.218H347.8v-2.156h-4.273v2.156H341.567z
	 M344.107,144.126v-1.781h14.515v-2.156h-15.229v-1.875h17.276v9.845h-17.454v-1.781h15.405v-2.25L344.107,144.126L344.107,144.126z
	 M343.526,21.974v13.03h4.273v-13.03H343.526z M346.244,111.913c0.949-2.25,1.515-4.937,1.691-8.062h-2.492
	c-0.416,2.377-0.861,4.47-1.336,6.281L346.244,111.913L346.244,111.913z M348.827,157.72c-0.238-0.25-0.654-0.625-1.247-1.125
	c-1.068-1.125-1.841-1.875-2.315-2.25l1.515-1.312c0.355,0.312,1.068,0.97,2.138,1.969c0.771,0.625,1.305,1.094,1.603,1.406
	L348.827,157.72z M349.048,190.136v-3.094h-2.938v3.094H349.048z M361.65,109.757c-2.375,4.626-6.205,8-11.487,10.125
	c-0.12-0.126-0.269-0.375-0.445-0.75c-0.477-0.688-0.771-1.094-0.891-1.219c5.283-1.812,8.994-4.906,11.131-9.281L361.65,109.757
	L361.65,109.757z M354.17,102.351c-1.188,3.562-2.107,6.157-2.761,7.781l-1.87-0.75c1.306-3.062,2.285-5.719,2.938-7.969
	l1.781,0.562C354.259,102.039,354.229,102.163,354.17,102.351L354.17,102.351z M353.78,21.224v-1.688h2.227v-2.25h1.781v2.25h3.74
	v-2.25h1.779v2.25h2.405v1.688h-2.405v3.374h-2.76v1.781h4.186v5.812h-4.186v1.969h4.72v1.688h-4.72v3.75h-1.781v-3.75h-5.075V34.16
	h5.075v-1.969h-4.186v-5.812h4.186v-1.781h-2.761v-3.374H353.78z M353.78,60.576v-2.063h21.282v2.063H353.78z M355.027,79.7V62.825
	h8.191v13.78c0.06,1.875-0.801,2.781-2.582,2.72c-0.713,0.062-1.455,0.094-2.227,0.094c0-0.188-0.061-0.531-0.178-1.031
	c-0.062-0.438-0.12-0.781-0.18-1.031c0.118,0,0.387,0,0.803,0c0.593,0.062,1.009,0.095,1.246,0.095c0.892,0,1.306-0.375,1.246-1.125
	V64.794h-4.451V79.7H355.027z M355.327,111.538v-14.25h1.96v14.25H355.327z M356.274,27.973v2.625h2.492v-2.625H356.274z
	 M359.479,73.231c-0.771-1.875-1.572-3.623-2.403-5.25l1.425-0.655c0.059,0.062,0.118,0.156,0.179,0.28
	c1.009,1.938,1.811,3.562,2.404,4.875L359.479,73.231z M357.788,21.224v1.874h3.74v-1.874H357.788z M361.472,108.351
	c-0.534-1.062-1.335-2.562-2.403-4.5c-0.534-0.874-0.921-1.53-1.157-1.969l1.603-0.938c1.426,2.377,2.643,4.5,3.651,6.375
	L361.472,108.351z M363.042,27.973h-2.493v2.625h2.493V27.973z M369.364,26.004c0.059,6.251-1.336,10.812-4.187,13.688l-0.089-0.094
	c-0.355-0.312-0.86-0.688-1.514-1.125c2.61-2.687,3.918-6.75,3.918-12.188v-2.25h-2.315v-1.969h2.404l0.09-4.688h1.87l-0.09,4.688
	h4.809c0,2.624-0.06,6.438-0.178,11.438c-0.06,1.001-0.089,1.72-0.089,2.156c-0.061,2.312-1.039,3.469-2.938,3.469
	c-0.237,0-0.713,0.03-1.425,0.094c-0.534,0-0.891,0-1.068,0c-0.061-0.75-0.179-1.5-0.355-2.25c0.771,0.062,1.514,0.095,2.226,0.095
	c1.01,0.062,1.573-0.562,1.692-1.876c0.059-1.187,0.118-3.437,0.178-6.75c0.06-1.999,0.09-3.468,0.09-4.405h-2.938L369.364,26.004
	L369.364,26.004z M365.446,79.7V62.825h8.46v13.969c0.059,1.75-0.772,2.594-2.494,2.531c-0.477,0.062-1.277,0.094-2.404,0.094
	c0-0.188-0.06-0.469-0.178-0.844c-0.061-0.5-0.119-0.875-0.178-1.125c0.475,0.062,1.187,0.094,2.137,0.094
	c0.891,0,1.306-0.344,1.247-1.031V64.794h-4.72V79.7H365.446z M366.66,145.251v-4.312h4.541c-0.061-0.062-0.208-0.188-0.445-0.375
	c-0.95-0.938-1.69-1.624-2.226-2.062l1.959-0.75c0.296,0.251,0.801,0.72,1.514,1.406c0.713,0.625,1.216,1.094,1.514,1.405
	l-0.801,0.375h2.938v-3.655h2.137v3.655h2.761l-0.713-0.375c0.949-0.811,1.96-1.718,3.028-2.719l1.959,0.656
	c-0.534,0.562-1.277,1.252-2.228,2.062c-0.178,0.188-0.326,0.313-0.444,0.375h4.631v4.312h-2.137v-2.531h-15.94v2.531
	L366.66,145.251L366.66,145.251z M370.166,73.138c-0.654-1.623-1.484-3.436-2.493-5.438l1.514-0.656
	c0.83,1.627,1.661,3.375,2.493,5.25L370.166,73.138z M383.045,158.188c-0.832,0-1.691,0-2.582,0c-0.12-0.625-0.268-1.219-0.445-1.78
	c0.414,0.062,1.157,0.094,2.228,0.094c0.948,0.062,1.394-0.343,1.335-1.219v-1.781h-5.788v6.188h-2.227v-6.188h-5.699v4.594h-2.048
	v-6.375h7.747v-1.875h-5.878v-5.344h14.07v5.344h-5.967v1.875h7.837v3.844C385.686,157.251,384.826,158.126,383.045,158.188
	L383.045,158.188z M372.271,115.569c0,2.188-0.772,3.812-2.315,4.875l-0.802-0.844c1.067-0.812,1.632-2.031,1.691-3.656h-1.515
	v-3.094h2.938C372.271,113.352,372.271,114.257,372.271,115.569L372.271,115.569z M371.735,146.095v2.156h9.974v-2.156H371.735z
	 M380.875,38.941c-0.238,0.124-0.416,0.219-0.534,0.281l-1.425-1.875c0.593-0.499,0.859-1.187,0.801-2.062v-17.53h2.139v6.843h5.609
	v2.156h-5.609v9.375c1.543-0.75,3.384-1.594,5.521-2.531c0,0.876,0.028,1.688,0.089,2.438c-2.375,0.812-4.156,1.529-5.344,2.155
	C381.824,38.315,381.409,38.566,380.875,38.941L380.875,38.941z M379.005,79.419V61.044h2.404c0.059-0.248,0.146-0.592,0.267-1.031
	c0.237-0.686,0.445-1.594,0.624-2.718l2.228,0.375c-0.299,1.124-0.624,2.249-0.98,3.374h4.008v18.188h-1.959V77.45h-4.542v1.969
	H379.005z M381.053,63.107v5.155h4.542v-5.155H381.053z M381.053,70.326v5.343h4.542v-5.343H381.053z M394.767,79.231
	c-1.188,0-2.435,0-3.739,0c-0.061-0.688-0.209-1.438-0.445-2.25c0.771,0.062,1.929,0.095,3.474,0.095
	c1.661,0.125,2.493-0.656,2.493-2.345c0.118-1.373,0.207-4.312,0.268-8.812c0.059-1.312,0.09-2.25,0.09-2.812h-5.344
	c-0.237,0.562-0.623,1.375-1.157,2.438c-0.238,0.502-0.416,0.877-0.534,1.125c-0.534-0.375-1.129-0.75-1.781-1.125
	c1.425-2.687,2.522-5.438,3.295-8.249l2.048,0.469c-0.118,0.375-0.298,0.907-0.533,1.593c-0.238,0.75-0.416,1.313-0.534,1.688h6.59
	c0,4.001-0.12,8.688-0.356,14.062C398.596,77.794,397.318,79.169,394.767,79.231L394.767,79.231z M392.273,39.129
	c-2.139,0.062-3.178-1.001-3.117-3.188V17.286h2.138v9.279c2.374-1.812,4.511-3.844,6.411-6.093l1.689,1.594
	c-2.552,2.688-5.252,5.062-8.102,7.124v6.188c-0.06,1.125,0.504,1.655,1.691,1.594h2.314c1.127,0.062,1.751-0.469,1.87-1.594
	c0.06-0.438,0.147-1.155,0.269-2.156c0.058-0.562,0.117-0.999,0.178-1.312c0.771,0.312,1.454,0.531,2.047,0.655
	c-0.061,0.75-0.178,1.751-0.356,3c-0.06,0.438-0.118,0.782-0.178,1.031c-0.297,1.688-1.424,2.531-3.383,2.531H392.273
	L392.273,39.129z M393.074,72.764c-0.297-0.437-0.742-1.093-1.335-1.97c-0.832-1.312-1.485-2.312-1.959-2.999l1.603-1.126
	c0.415,0.626,1.038,1.5,1.87,2.625c0.712,0.938,1.247,1.688,1.604,2.25L393.074,72.764z M391.251,159.407v-18.375h2.404
	c0.059-0.249,0.146-0.595,0.267-1.031c0.237-0.688,0.445-1.594,0.624-2.719l2.228,0.375c-0.299,1.125-0.624,2.25-0.98,3.375h4.008
	v18.188h-1.959v-1.781H393.3v1.97L391.251,159.407L391.251,159.407z M393.299,143.095v5.156h4.542v-5.156H393.299z M393.299,150.313
	v5.345h4.542v-5.345H393.299z M407.013,159.22c-1.188,0-2.435,0-3.739,0c-0.061-0.688-0.209-1.438-0.445-2.25
	c0.771,0.062,1.929,0.094,3.473,0.094c1.662,0.125,2.494-0.655,2.494-2.344c0.118-1.374,0.207-4.312,0.267-8.812
	c0.06-1.312,0.09-2.25,0.09-2.812h-5.344c-0.236,0.562-0.623,1.375-1.156,2.438c-0.238,0.501-0.416,0.876-0.534,1.125
	c-0.534-0.375-1.129-0.75-1.781-1.125c1.425-2.687,2.522-5.438,3.295-8.25l2.048,0.469c-0.119,0.375-0.298,0.907-0.534,1.594
	c-0.237,0.75-0.416,1.312-0.533,1.688h6.59c0,4-0.12,8.688-0.356,14.062C410.842,157.781,409.564,159.157,407.013,159.22
	L407.013,159.22z M405.32,152.751c-0.298-0.438-0.742-1.093-1.335-1.969c-0.832-1.312-1.485-2.312-1.96-3l1.604-1.125
	c0.414,0.625,1.038,1.5,1.87,2.625c0.712,0.938,1.246,1.688,1.603,2.25L405.32,152.751z M402.615,29.191v-1.968h21.639v1.968
	h-15.139l-0.712,2.25h13.09c-0.061,1.5-0.208,3-0.445,4.5c-0.119,2.188-1.603,3.312-4.452,3.375c-1.483,0-3.206,0-5.165,0
	c-0.06-0.312-0.178-0.876-0.355-1.688c-0.061-0.251-0.089-0.438-0.089-0.562c1.127,0.062,2.79,0.094,4.986,0.094
	c1.959,0.124,2.938-0.438,2.938-1.688c0.118-0.749,0.178-1.468,0.178-2.156h-13.356l1.157-4.125L402.615,29.191L402.615,29.191z
	 M403.773,79.606V58.513h19.322v21.094h-2.048v-1.5H405.82v1.5L403.773,79.606L403.773,79.606z M405.731,25.16v-6.938h15.405v6.938
	H405.731z M405.821,60.482v15.844h15.228V60.482H405.821z M407.869,20.099v3.093H419v-3.093H407.869z M408.849,72.764v-8.907h9.174
	v8.907H408.849z M410.809,65.731v5.156h5.344v-5.156H410.809z M417.544,159.688v-12.375c-0.713,1.125-1.425,2.22-2.138,3.281
	c-0.119-0.375-0.268-0.999-0.445-1.875c-0.06-0.375-0.119-0.656-0.178-0.844c1.898-2.938,3.441-6.469,4.631-10.594l2.048,0.562
	c-0.595,2.002-1.247,3.844-1.959,5.531v16.312h-1.959V159.688z M421.283,143.751v-1.875h5.878v-4.5h1.959v4.5h6.501v1.875H430.1
	c1.483,4.063,3.62,7.281,6.411,9.656c-0.119,0.25-0.326,0.655-0.623,1.219c-0.178,0.438-0.327,0.75-0.444,0.938
	c-2.97-2.874-5.075-6.28-6.322-10.219v8.156h3.384v1.875h-3.384v4.312h-1.959v-4.312h-3.384v-1.875h3.384v-8.062
	c-1.366,4.125-3.444,7.626-6.233,10.5c-0.12-0.312-0.387-0.812-0.802-1.5c-0.178-0.312-0.298-0.529-0.355-0.655
	c2.907-2.688,5.046-6.031,6.411-10.031L421.283,143.751L421.283,143.751z M430.065,28.066c-0.12-0.062-0.269-0.218-0.445-0.469
	c-1.129-0.999-1.989-1.781-2.582-2.344l1.246-1.5c1.188,0.938,2.227,1.875,3.117,2.812L430.065,28.066z M429.265,66.106
	c-0.237,1.252-0.416,2.189-0.533,2.812c-0.534-0.124-1.069-0.218-1.604-0.281c0.475-1.811,0.831-3.874,1.069-6.188l1.603,0.28
	C429.679,63.421,429.501,64.546,429.265,66.106L429.265,66.106z M431.401,31.16c-0.772,3.126-1.426,5.906-1.959,8.345l-1.87-0.657
	c0.83-3.188,1.454-5.968,1.87-8.344c0.235,0.126,0.771,0.312,1.603,0.562C430.391,30.879,430.511,30.911,431.401,31.16
	L431.401,31.16z M430.511,21.88c-0.95-1.062-1.87-2-2.761-2.812l1.336-1.405c0.949,0.812,1.899,1.719,2.85,2.719L430.511,21.88z
	 M434.696,66.106c-0.534-0.811-1.277-1.875-2.227-3.187v16.687h-2.049V57.389h2.049v5.343l1.335-1.03
	c0.892,0.938,1.723,1.969,2.494,3.094L434.696,66.106z M431.847,23.191v-1.968h3.474c-0.299-0.812-0.623-2-0.979-3.562l1.959-0.281
	c0.06,0.375,0.207,0.938,0.445,1.688c0.236,0.876,0.415,1.595,0.534,2.156h-0.089h2.227v1.968h-4.186l-0.09,3.375h4.008
	c0,0.876-0.03,2.188-0.09,3.938c-0.06,2.688-0.119,4.626-0.179,5.812c0,1.812-0.832,2.72-2.493,2.72
	c-0.534,0.062-1.099,0.094-1.69,0.094l-0.356-1.969c0.593,0,1.038,0,1.336,0c1.009,0.062,1.483-0.375,1.425-1.312
	c0-0.375,0.029-0.968,0.09-1.781c0.117-2.625,0.178-4.5,0.178-5.625h-2.315c0,0.188,0,0.346,0,0.47
	c-0.119,4.562-1.01,8.156-2.671,10.78l-1.514-1.405c1.481-1.999,2.284-5.156,2.404-9.47c0.117-1.624,0.178-3.499,0.178-5.625h-1.604
	V23.191z M438.882,78.856c-2.73-0.062-4.127-1.155-4.186-3.28c-0.061-1.438,0.534-2.968,1.78-4.595
	c2.315-3.187,4.928-6.469,7.836-9.844h-8.727v-2.062h11.398v2.25c-3.622,4.188-6.562,7.813-8.815,10.875
	c-0.832,1.252-1.247,2.25-1.247,3c0,1.125,0.859,1.688,2.582,1.688h4.008c1.839,0.062,2.79-0.687,2.851-2.25
	c0.118-0.623,0.235-1.748,0.355-3.375c0-0.061,0-0.124,0-0.188c0.534,0.251,1.216,0.438,2.048,0.562
	c-0.119,1.627-0.268,3-0.444,4.125c-0.416,2.062-1.781,3.094-4.098,3.094H438.882z M439.861,32.098v-1.875h3.649V28.91l2.404-2.625
	h-4.986V24.88l-0.624,0.937c-0.416-0.437-0.921-0.904-1.514-1.405c1.425-2.062,2.552-4.468,3.384-7.219l2.049,0.281
	c-0.355,1-0.713,1.969-1.068,2.906h5.609v1.875h-6.411c-0.355,0.749-0.771,1.499-1.246,2.249h6.945v1.969l-2.672,3v0.75h3.384v1.875
	h-3.384v4.594c0.06,1.688-0.771,2.531-2.493,2.531c-0.832,0.062-1.603,0.094-2.314,0.094c0-0.188-0.061-0.438-0.179-0.75
	c-0.061-0.562-0.119-0.97-0.179-1.219c0.713,0,1.396,0,2.049,0c0.891,0.062,1.306-0.312,1.246-1.125v-4.125H439.861z M444.36,153.97
	c-1.604,0.188-3.236,0.469-4.897,0.844l-0.089-2.062c0.415-0.062,1.068-0.155,1.959-0.281c1.365-0.188,2.374-0.312,3.027-0.375
	C444.36,152.72,444.36,153.346,444.36,153.97L444.36,153.97z M443.648,159.22c-0.772,0-1.573,0-2.404,0
	c-0.061-0.625-0.178-1.281-0.356-1.969c0.297,0,0.713,0,1.247,0c0.534,0.062,0.979,0.094,1.336,0.094
	c1.127,0.062,1.722-0.437,1.78-1.5c0.118-1.937,0.179-3.938,0.179-6h-5.344l0.624-8.344h1.781l-0.445,6.375h2.227l0.533-7.594
	h-5.074v-1.875h7.034l-0.624,9.469h1.158c0,1.375-0.09,3.812-0.268,7.312c0,0.501,0,0.845,0,1.031
	C447.032,158.282,445.904,159.281,443.648,159.22L443.648,159.22z M461.103,144.407c-0.355,0.75-0.653,1.438-0.891,2.062
	c-2.613-1.625-4.631-3.717-6.056-6.281c-1.247,2.001-2.731,3.72-4.452,5.156h8.638v1.875h-8.727v-1.781
	c-0.535,0.375-1.069,0.812-1.604,1.312c-0.355-0.688-0.712-1.344-1.067-1.969c3.086-2,5.254-4.531,6.501-7.595l2.048,0.188
	l-0.445,1.031C456.649,141.032,458.667,143.034,461.103,144.407L461.103,144.407z M447.745,158.563v-1.688h7.747
	c0.83-2.499,1.603-5.218,2.314-8.156l1.78,0.562c-0.237,0.812-0.623,2.062-1.157,3.75c-0.476,1.688-0.86,2.969-1.156,3.844h3.204
	v1.688H447.745z M450.06,155.657c-0.533-2.062-1.099-4.094-1.69-6.095l1.69-0.469c0.18,0.688,0.237,0.938,0.18,0.75
	c0.712,2.312,1.216,4.094,1.514,5.344L450.06,155.657z M451.807,22.349v-1.875h2.583c0.296-1.125,0.563-2.188,0.802-3.188
	l1.959,0.188c-0.061,0.375-0.208,1-0.445,1.875c-0.178,0.5-0.297,0.875-0.355,1.125h4.541v1.875h-5.074
	c-0.832,2.875-1.456,4.875-1.87,5.999h2.582v-4.594h1.691v4.594h2.404v1.875h-2.404v3l2.671-0.375
	c-0.06,0.75-0.089,1.406-0.089,1.969l-2.582,0.281v4.594h-1.959v-4.405c-1.604,0.188-3.088,0.375-4.453,0.562l-0.178-2.062
	c0.414,0,1.098-0.062,2.048-0.188c1.127-0.062,1.988-0.124,2.583-0.188v-3.188h-4.097v-1.875c0.059-0.188,0.146-0.469,0.267-0.843
	c0.476-1.501,0.949-3.219,1.425-5.156L451.807,22.349L451.807,22.349z M453.8,154.626c-0.354-1.938-0.743-3.844-1.157-5.719
	l1.604-0.375c0.475,1.875,0.891,3.781,1.247,5.719L453.8,154.626z M458.041,75.575c0,2.188-0.772,3.812-2.315,4.875l-0.802-0.845
	c1.069-0.812,1.633-2.03,1.692-3.655h-1.515v-3.095h2.938C458.041,73.358,458.041,74.263,458.041,75.575L458.041,75.575z
	 M473.446,24.691c-0.238,0.376-0.596,1.063-1.069,2.062c-2.435-1.812-4.305-3.968-5.609-6.468c-1.425,2.375-3.385,4.562-5.878,6.562
	c-0.118-0.249-0.387-0.718-0.801-1.406c-0.179-0.188-0.298-0.343-0.355-0.468c2.968-2.125,5.074-4.719,6.321-7.781l2.139,0.281
	l-0.445,0.938C469.172,21.161,471.071,23.255,473.446,24.691L473.446,24.691z M465.521,39.035c-2.079,0-3.117-1.063-3.117-3.188
	v-9.562h1.96v4.125c1.897-1.062,3.709-2.345,5.432-3.845l1.247,1.688c-2.197,1.688-4.424,3.157-6.679,4.406v2.719
	c-0.062,1.125,0.534,1.655,1.779,1.594h2.05c1.187,0,1.839-0.53,1.959-1.594c0.178-0.999,0.296-2.062,0.355-3.188
	c0.712,0.25,1.364,0.469,1.959,0.655c-0.179,1.563-0.387,2.782-0.624,3.656c-0.236,1.688-1.366,2.531-3.384,2.531L465.521,39.035
	L465.521,39.035z M476.586,22.723v-1.968h3.829c-0.298-1.062-0.624-2.094-0.979-3.094l2.049-0.47
	c0.178,0.688,0.533,1.875,1.067,3.562h2.494v1.968h-4.81l-0.089,3.188h4.273c0,3.375-0.089,6.75-0.267,10.125
	c0,1.999-0.861,3-2.583,3c-0.712,0-1.366,0-1.959,0l-0.445-1.969c0.534,0,1.127,0,1.781,0c1.009,0.062,1.482-0.438,1.425-1.501
	c0.118-3.249,0.178-5.812,0.178-7.688h-2.493c0,5.312-0.832,9.218-2.493,11.719l-1.514-1.406c1.482-1.999,2.227-5.654,2.227-10.968
	l0.09-4.501L476.586,22.723L476.586,22.723z M488.519,21.505c-0.771,1.375-1.691,2.718-2.761,4.03
	c-0.653-0.688-1.128-1.155-1.425-1.406c1.781-2.062,3.086-4.374,3.918-6.938l2.049,0.188c-0.12,0.312-0.298,0.781-0.535,1.406
	c-0.178,0.438-0.297,0.75-0.354,0.938h8.015v1.781H488.519L488.519,21.505z M497.067,38.004c-0.356,0.375-0.624,0.656-0.803,0.844
	c-3.324-2.749-5.225-6.874-5.698-12.375c-0.713,0.063-1.426,0.157-2.138,0.281v9.844c1.246-0.624,2.404-1.125,3.474-1.5
	c0,0.188,0,0.501,0,0.938c0.059,0.438,0.089,0.75,0.089,0.938c-1.246,0.438-2.493,0.999-3.74,1.688
	c-0.119,0.062-0.267,0.124-0.445,0.188c-0.476,0.249-0.771,0.438-0.891,0.562l-1.157-1.688c0.534-0.438,0.771-1.031,0.713-1.781
	V24.974c3.205-0.25,6.411-0.751,9.617-1.501l0.712,1.969c-1.366,0.313-2.85,0.562-4.452,0.75c0.179,1.5,0.414,2.812,0.712,3.938
	c1.188-0.624,2.346-1.312,3.475-2.062l0.979,1.688c-1.247,0.749-2.523,1.469-3.829,2.155c0.771,2.062,2.166,3.781,4.187,5.156
	C497.749,37.254,497.481,37.565,497.067,38.004L497.067,38.004z M500.909,26.004v-1.969h3.028v-3.469c-0.299,0-0.743,0-1.337,0
	c-0.594,0.062-1.038,0.095-1.336,0.095c-0.06-0.75-0.147-1.375-0.267-1.875c2.493-0.062,4.956-0.25,7.391-0.562l0.269,1.875
	c-0.95,0.188-1.901,0.281-2.851,0.281v3.655h2.762v1.969h-2.762v2.531l0.268-0.375c1.127,0.938,2.138,1.845,3.027,2.719
	l-1.068,1.594c-0.712-0.75-1.455-1.5-2.227-2.25v9.469h-1.869v-9.375c-0.654,1.938-1.515,3.656-2.584,5.156
	c-0.236-0.812-0.533-1.53-0.89-2.156c1.482-2.062,2.611-4.5,3.384-7.312L500.909,26.004L500.909,26.004z M509.104,29.285v-1.78
	h12.557v1.78h-5.343v3.001h4.809v1.687h-4.809v3h5.967v1.688h-14.25v-1.688h6.234v-3h-4.811v-1.687h4.811v-3.001H509.104z
	 M509.903,25.348v-6.843h10.954v6.843H509.903z M511.863,20.286v3.279h7.035v-3.279H511.863z M531.557,35.566
	c0,2.188-0.771,3.812-2.313,4.874l-0.802-0.843c1.067-0.812,1.632-2.032,1.69-3.656h-1.514v-3.094h2.938
	C531.557,33.349,531.557,34.254,531.557,35.566L531.557,35.566z"/>
</svg>
