<svg xmlns="http://www.w3.org/2000/svg" width="640" height="485" viewBox="0 0 640 485"><path fill="#EA5B1C" stroke="#FEBD91" stroke-miterlimit="10" d="M640.75 55.97l-641.581 94.238v153.354l640.954-94.582z"/><path fill="#F26818" d="M640 56.72l-77.491 11.613-92.174 165.001 169.792-25.333zM239.001 115.665l-239.832 34.543v152.624l108.927-16.07z"/><path fill="#fff" d="M59.236 184.765c-.901 2.777-2.999 5.186-6.292 7.227-.301-.464-.729-1.002-1.284-1.618 2.632-1.317 4.434-3.116 5.404-5.398l-5.094.716-.248-1.764 7.252-1.019.262 1.856zm-6.147-3.018l-1.266-9.005 5.439-.765c.063-.387.133-.933.21-1.639.013-.317.041-.542.082-.674l2.357-.142c-.032.194-.099.551-.202 1.069-.112.458-.18.815-.202 1.07l8.289-1.165 1.266 9.005-6.735.947.052.371c.882 1.265 1.82 2.3 2.814 3.107.261-.226.682-.569 1.264-1.03 1.366-1.139 2.36-2.003 2.98-2.596l1.457 1.594c-1.424 1.146-2.804 2.192-4.138 3.137 1.547.982 3.495 1.687 5.844 2.114-.09.202-.272.573-.547 1.118-.179.404-.288.67-.327.803-4-.891-6.976-2.648-8.93-5.277l.601 4.271c.393 1.964-.39 3.084-2.346 3.359-.682.158-1.484.303-2.404.433-.22-.727-.459-1.388-.719-1.982l2.159-.303c1.11-.03 1.53-.594 1.259-1.692l-1.005-7.148-7.252 1.02zm.955-7.613l.287 2.042 11.915-1.675-.287-2.042-11.915 1.675zm2.833 47.046l-2.557-18.196 2.331-.328c.022-.254.061-.607.115-1.058.134-.712.21-1.639.226-2.777l2.211.068c-.132 1.154-.292 2.313-.48 3.476l3.885-.546 2.531 18.01-1.899.267-.248-1.764-4.403.619.274 1.95-1.986.279zm-2.324-43.426l.287 2.042 11.915-1.675-.287-2.042-11.915 1.675zm2.039 26.993l.718 5.106 4.403-.619-.718-5.106-4.403.619zm1.005 7.149l.744 5.292 4.403-.619-.744-5.292-4.403.619zm.274 20.146l-.261-1.857 5.267-.74-.326-2.321 1.813-.255.326 2.321 5.267-.74.261 1.857-5.267.74.339 2.414 4.576-.643.718 5.106c.257 1.417-.248 2.212-1.513 2.39l-1.554.218-.68-1.703c.173-.024.407-.024.704-.004l.518-.073c.575-.081.824-.399.746-.957l-.404-2.878-2.849.4.979 6.963.66-.945c1.719.958 3.294 1.937 4.727 2.933l-1.013 1.563c-.646-.413-1.708-1.085-3.188-2.013-.456-.314-.812-.549-1.067-.702l.835 5.94-1.813.256-1.031-7.334c-.896 2.397-2.209 4.54-3.939 6.422-.16-.293-.417-.668-.774-1.121-.216-.284-.363-.484-.437-.602 2.107-2.126 3.676-4.745 4.707-7.857l-.457-3.249-2.677.376.757 5.385-1.813.254-1.018-7.241 4.49-.631-.339-2.414-5.27.742zm14.262-13.195l-3.626.509c-.154-.674-.402-1.396-.745-2.167.756-.044 1.883-.17 3.38-.38 1.628-.103 2.326-.989 2.091-2.661-.077-1.377-.399-4.298-.968-8.763-.126-1.307-.227-2.24-.305-2.797l-5.181.729c-.152.589-.413 1.447-.783 2.571l-.361 1.187c-.57-.298-1.198-.589-1.883-.872 1.007-2.854 1.689-5.729 2.046-8.618l2.051.185c-.063.387-.162.938-.296 1.651l-.283 1.744 6.389-.898c.557 3.961 1.093 8.62 1.612 13.974.374 2.659-.673 4.195-3.138 4.606zm-2.541-6.176c-.35-.392-.873-.981-1.569-1.768-.989-1.187-1.761-2.087-2.317-2.704l1.397-1.333c.489.563 1.215 1.344 2.179 2.345.821.832 1.443 1.501 1.867 2.01l-1.557 1.45zm3.695 30.08l-1.996-14.204 1.813-.255 1.996 14.204-1.813.255zm4.071 4.54c-.567.143-1.513.307-2.836.493-.221-.728-.463-1.419-.732-2.074.699-.036 1.509-.118 2.431-.247 1.159-.102 1.645-.609 1.458-1.529l-2.609-18.568 1.813-.254 2.662 18.938c.334 1.971-.395 3.052-2.187 3.241zm.108-43.579l-.287-2.042 2.504-.352-.613-4.363 2.072-.291.613 4.363 3.885-.546-.757-5.384 1.986-.279.757 5.384 5.18-.728-.757-5.384 1.986-.279.757 5.384 2.849-.4.287 2.042-2.849.4 1.122 7.984-9.152 1.287-1.122-7.984-3.885.546 1.644 11.698 15.541-2.184.274 1.949-17.613 2.476-1.918-13.649-2.504.352zm7.353-24.911l-.431-3.063-2.849.4.43 3.064 2.85-.401zm12.89 65.534c-.682.158-1.916.364-3.699.614l-.026-.186c-.136-.55-.338-1.152-.606-1.809.41.004 1.159-.101 2.245-.315l1.123-.158c1.332-.125 1.862-.735 1.591-1.833l-.405-2.878c-3.327 3.056-7.845 5.993-13.552 8.815-.385-.641-.796-1.277-1.237-1.909 4.497-1.83 8.381-4.049 11.655-6.655l-12.26 1.723-.261-1.857 2.677-.376-1.554-11.046 4.921-.691c.142-.65.264-1.458.364-2.418l2.284-.037c-.144.652-.307 1.369-.49 2.151l7.598-1.068 1.305 9.284c.612-.654 1.273-1.377 1.984-2.172l1.357 1.514c-.359.367-.923.95-1.69 1.752-.621.593-1.059 1.033-1.312 1.32l.666 4.735c.352 2.095-.54 3.263-2.678 3.5zm-12.149-16.28l.287 2.042 10.792-1.517-.287-2.042-10.792 1.517zm.496 3.528l.287 2.042 10.792-1.517-.287-2.042-10.792 1.517zm11.243 4.194c.155-.147.257-.256.306-.327l-.248-1.764-10.792 1.517.287 2.042 10.447-1.468zm-9.385-33.534l.835 5.942 5.18-.728-.835-5.941-5.18.727zm10.984-15.955l-2.896-20.61 15.627-2.196 2.896 20.61-2.072.291-.222-1.578-11.397 1.602.222 1.579-2.158.302zm-.451-18.871l.9 6.406 11.397-1.602-.9-6.406-11.397 1.602zm1.188 8.448l.926 6.591 11.397-1.602-.927-6.591-11.396 1.602zm16.104 37.141l-1.004-7.149 1.727-.243c-1.734-.639-3.367-1.609-4.899-2.909l.246-.129-.259.037c-1.075 1.54-2.406 2.927-3.994 4.159l1.64-.23c.078.557.129 1.34.154 2.345l.026.186c.048 2.014-1.037 3.9-3.254 5.664-.579-.361-1.192-.748-1.836-1.162 2.145-1.438 3.152-2.841 3.018-4.21.013-.317.002-.82-.036-1.51.013-.317.008-.569-.018-.755-1.317 1.069-2.849 2.073-4.595 3.012l-.337-.521c-.142-.169-.404-.573-.787-1.215 3.181-1.583 5.657-3.382 7.429-5.399l-5.958.837-1.435-10.212 16.922-2.378 1.436 10.212-6.044.85c2.01 1.359 4.864 2.251 8.564 2.678-.281.924-.473 1.645-.576 2.164-1.93-.359-3.636-.814-5.122-1.363l.979 6.963-1.987.278zm-11.939-17.919l.352 2.506 5.526-.776-.353-2.507-5.525.777zm3.935 29.288c-.348.87-1.039 2.008-2.073 3.416-.531-.43-1.084-.825-1.664-1.187 1.518-1.728 2.589-3.708 3.215-5.942l2.012-.094c-.193.723-.421 1.385-.688 1.991l5.785-.813.235 1.671-4.576.643c.795.646 1.552 1.234 2.273 1.763l-1.212 1.401c-.481-.5-1.219-1.154-2.212-1.961l1.065-1.191-2.16.303zm-3.348-25.11l.353 2.506 5.525-.777-.352-2.506-5.526.777zm1.933 30.705l-.222-1.579 7.684-1.08-.195-1.393 1.985-.279.196 1.392 7.857-1.104.222 1.578-7.856 1.104.3 2.136 9.498-1.335.248 1.764-20.721 2.912-.248-1.764 9.238-1.298-.3-2.135-7.686 1.081zm.306 7.815l-.248-1.764 13.037-1.833-.248-1.764 1.986-.279.248 1.764 4.231-.595.248 1.764-4.23.594.326 2.321c.344 2.034-.491 3.193-2.505 3.476l-3.195.449c-.102-.302-.249-.722-.441-1.263-.102-.302-.19-.51-.264-.625 1.045-.085 1.999-.187 2.862-.308 1.217-.109 1.718-.715 1.505-1.821l-.274-1.95-8.634 1.213c.38.2.959.561 1.737 1.082.834.514 1.417.905 1.75 1.174l-1.199 1.494c-.977-.684-2.143-1.465-3.5-2.349l1.039-1.376-4.231.596zm10.124-44.518l-5.526.776.353 2.507 5.526-.777-.353-2.506zm-4.938 4.954l.352 2.507 5.526-.777-.352-2.507-5.526.777zm5.334 24.831c-.299.799-.737 1.651-1.314 2.551-.199-.161-.579-.359-1.141-.597-.257-.153-.447-.252-.57-.298 1.165-1.741 1.94-3.522 2.331-5.345l2.012-.093c-.129.334-.271.795-.421 1.384l-.181.594 6.475-.91.235 1.671-5.007.704c.19.101.45.285.782.553.313.145.869.541 1.664 1.186l-1.039 1.377c-.853-.638-1.677-1.279-2.472-1.925l.979-1.179-2.333.327zm-.818-54.932l-.287-2.042 11.483-1.614c-.275-1.538-.517-3.051-.726-4.537l2.072-.291c.038.69.182 1.711.431 3.064l.209 1.485 7.166-1.007.287 2.042-7.08.995c.245.913.449 1.736.611 2.47.911 3.976 1.937 6.892 3.079 8.75.608.989 1.282 1.397 2.021 1.231.469-.004.767-.392.893-1.167.068-.767.113-1.91.135-3.427.627.291 1.247.52 1.857.686-.004 1.643-.103 2.824-.294 3.544-.168 1.728-.947 2.657-2.337 2.79-1.489.271-2.891-.73-4.208-3.006-1.142-1.858-2.181-4.868-3.118-9.029-.043-.309-.134-.738-.269-1.288-.145-.609-.264-1.035-.355-1.275l-11.57 1.626zm1.448 5.288l-.274-1.95 9.756-1.371.274 1.95-3.885.546.822 5.849c.624-.149 1.556-.408 2.797-.771.846-.245 1.466-.427 1.86-.545l.287 2.042c-2.844.652-6.438 1.598-10.782 2.84l-.693-1.796c.846-.245 2.345-.645 4.498-1.2l-.861-6.127-3.799.533zm5.36 19.716l-.274-1.95 7.338-1.032.274 1.95-2.332.328 2.153 15.318c.292 1.663-.396 2.612-2.065 2.846-.625.15-1.282.275-1.973.372-.119-.426-.325-1.06-.62-1.901l1.641-.231c.805-.113 1.123-.567.953-1.364l-2.075-14.761-3.02.425zm6.306 32.933c-.033 1.015-.102 1.782-.205 2.301-.19-.099-.5-.213-.929-.343-.239-.028-.421-.066-.544-.113.363-2.006.438-4.606.225-7.795l1.494-.021c-.014.319-.007.791.023 1.417-.02.698-.037 1.205-.05 1.521l1.641-.23-.718-5.106 1.899-.267.718 5.106 1.986-.279.274 1.95-1.986.279.64 4.549 1.894-.929c.122.867.279 1.57.473 2.111l-2.067.953 1.174 8.355-1.899.267-1.096-7.798-3.37 1.705-.572-2.192 3.643-1.648-.718-5.106-1.813.255c-.024.256-.063.609-.117 1.058zm4.26-62.745c-.946-.876-1.968-1.679-3.068-2.41l1.225-1.308c1.357.883 2.403 1.65 3.141 2.304l-1.298 1.414zm-2.702 28.139l-.261-1.857 12.691-1.784.261 1.857-5.785.813-.2 2.963 5.526-.777 1.553 11.048-1.899.267-1.292-9.191-7.684 1.08 1.318 9.376-1.899.267-1.579-11.233 3.885-.546.2-2.963-4.835.68zm14.245 17.405c-.787-.584-2.177-1.493-4.169-2.727-.902-.567-1.576-.977-2.021-1.231-.555 1.909-2.507 3.886-5.857 5.936-.076-.117-.292-.401-.648-.856-.358-.456-.607-.766-.748-.936 2.624-1.377 4.259-2.681 4.91-3.909.772-1.181.977-3.072.611-5.671l-.266-2.519 1.899-.267.253 2.426c.2 1.424.262 2.708.189 3.855 1.662.966 3.993 2.312 6.994 4.035l-1.147 1.864zm-9.033 12.747l-.261-1.857 4.49-.631-.404-2.878 1.986-.279.404 2.878 4.576-.643.261 1.857-4.576.643.431 3.063 5.439-.764.261 1.856-12.778 1.796-.261-1.856 5.353-.752-.43-3.063-4.491.63zm.653 9.659l-.261-1.857 7.943-1.116-.274-1.95 1.899-.267.274 1.95 2.763-.389.261 1.857-2.763.388.679 4.828c.317 1.849-.444 2.902-2.285 3.161-.913.19-1.858.356-2.836.493l-.455-1.356c-.102-.302-.194-.541-.277-.718.583-.02 1.423-.105 2.517-.259 1.036-.146 1.493-.652 1.372-1.518l-.613-4.363-7.944 1.116zm3.972 4.459c-.066-.053-.138-.138-.212-.254-1.162-1.162-2.102-2.008-2.822-2.538l1.125-1.389c1.117.854 2.182 1.745 3.193 2.675l-1.284 1.506zm-.767-70.363c-.25-.533-.619-1.27-1.103-2.211l-1.09-2.119 1.316-.658c.233.41.554 1.027.965 1.853.559 1.057.969 1.884 1.229 2.478l-1.317.657zm-1.011 3.455l-.261-1.857 3.454-.485-1.2-8.542 1.899-.267 1.2 8.541 3.281-.461.261 1.856-3.281.461.339 2.414.586-.84c1.457 1.184 2.555 2.103 3.293 2.756l-1.086 1.667c-.68-.662-1.56-1.485-2.636-2.47l1.161 8.263-1.899.267-1.187-8.448c-.546 1.97-1.296 3.938-2.252 5.902-.075-.115-.164-.323-.264-.625-.225-.347-.476-.88-.753-1.598 1.177-2.059 2.053-4.391 2.626-6.996l-3.281.462zm7.823-8.862c-.43 1.954-.825 3.524-1.187 4.711l-1.374-.375c.407-1.698.77-3.294 1.087-4.792l1.474.456zm6.286 40.217c-2.219.501-3.632.889-4.239 1.164l-.965-1.853c.376-.242.816-.872 1.319-1.89.528-.832 1.007-1.813 1.435-2.947-1.2.232-2.223.471-3.069.715l-.878-1.864c.293-.42.613-1.064.961-1.934.663-1.544 1.283-3.399 1.859-5.563l2.077.371c-.041.133-.129.334-.267.605-1.024 2.732-1.825 4.77-2.398 6.112l1.036-.146c.739-.166 1.252-.271 1.541-.311.405-.876.743-1.809 1.016-2.794l1.943.674c-.712 1.615-1.863 4.081-3.451 7.396-.228.474-.385.812-.474 1.013l3.833-.917c-.02.698.01 1.324.088 1.881-.344.049-.801.146-1.367.288zm-.989-36.985c-.257-.154-.613-.387-1.067-.702-1.118-.852-2.028-1.481-2.73-1.889l1.013-1.563c.132.109.354.234.669.379 1.357.883 2.394 1.59 3.115 2.118l-1 1.657zm2.811 41.178c-1.972.594-3.958 1.281-5.96 2.069l-.619-1.901c.557-.205 1.457-.489 2.697-.853 1.567-.536 2.771-.958 3.608-1.265l.274 1.95zm-2.633-35.523c-.456-.314-1.101-.729-1.936-1.243-.844-.575-1.49-.989-1.936-1.243l.927-1.55c.19.101.479.28.869.541 1.396.75 2.421 1.364 3.076 1.84l-1 1.655zm-3.039 4.687l-.546-2.006 6.458-1.665-1.918-13.647 2.072-.292 1.892 13.461 2.797-.772.374 2.031-2.883.784.939 6.684-2.072.292-.9-6.406-6.213 1.536zm3.134 49.768c-.406-.383-.938-.815-1.59-1.291 2.458-2.554 4.306-5.275 5.544-8.164l2.284-.037c-.09.202-.248.541-.474 1.014-.178.403-.336.742-.474 1.013l8.288-1.165.248 1.764-2.026 3.125 5.094-.716 1.109 7.891-14.419 2.026.444 3.157c.116 1.247.894 1.768 2.333 1.565l9.843-1.383c1.504-.149 2.232-.818 2.183-2.011-.018-.124 0-.41.055-.86.01-.759.014-1.358.011-1.8.791.205 1.455.333 1.991.383.026.186.031.438.018.755.032 1.069-.007 1.833-.119 2.289-.102 1.781-1.28 2.798-3.533 3.053l-10.792 1.517c-2.353.393-3.66-.559-3.923-2.856l-1.409-10.027-.686.758zm11.34-20.832c-1.231 1.688-2.717 3.222-4.46 4.603-.707-.847-1.225-1.406-1.556-1.675 1.769-1.195 3.244-2.601 4.425-4.219-1.568-1.546-2.887-3.412-3.956-5.598.427 4.295-.346 8.19-2.32 11.687-.208-.224-.605-.546-1.192-.969l-.497-.403c1.168-2.12 1.874-4.207 2.113-6.261.24-2.053.09-4.998-.449-8.836l-.279-2.611-1.813.254-.274-1.95 10.706-1.504.3 2.135-1.386 4.55 3.54-.498.274 1.95c-.349 2.952-1.078 5.485-2.19 7.597 1.383 1.069 2.969 1.918 4.761 2.55-.317.675-.595 1.409-.835 2.2-1.968-1.048-3.605-2.049-4.912-3.002zm-.091 14.423l-7.08.995c-.676 1.042-1.384 2.057-2.125 3.044l7.252-1.02 1.953-3.019zm-8.5 5.929l.574 4.085 5.267-.74-.574-4.085-5.267.74zm2.541-33.323l.117.835c-.005.379.005.662.031.848 1.5 3.576 3.267 6.326 5.297 8.25.836-1.569 1.43-3.609 1.781-6.12l-3.54.498-.274-1.95 1.373-4.642-5.007.704.222 1.577zm2.464-30.562l-.274-1.95 6.734-.946.274 1.95-2.417.34.822 5.849 2.331-.328.261 1.857-2.331.328.848 6.035c.779-.299 1.588-.602 2.425-.909-.014.319.051.783.196 1.393l.091.65c-.164.087-.414.186-.751.295-2.423.719-4.353 1.4-5.788 2.044l-.619-1.901c.278-.101.726-.259 1.342-.473l1.256-.46-.9-6.406-2.331.328-.261-1.856 2.332-.328-.822-5.849-2.418.337zm7.428 62.137l-5.181.728.574 4.084 5.18-.728-.573-4.084zm1.923-50.102l-.248-1.764 5.18-.728-.365-2.6-4.921.692-1.592-11.327 11.829-1.662 1.591 11.326-5.007.704.365 2.599 5.267-.74.248 1.764-5.267.74.391 2.785 6.13-.862.261 1.857-14.418 2.026-.261-1.857 6.389-.898-.391-2.785-5.181.73zm.413 15.488l-.235-1.671 8.979-1.262-.753-1.598 2.305-.514c.25.533.51 1.128.779 1.784l8.807-1.238.235 1.671-20.117 2.828zm-.199-29.624l.417 2.971 3.022-.425-.417-2.971-3.022.425zm.653 4.641l.431 3.064 3.022-.425-.431-3.064-3.022.425zm10.409 37.751c-.798.176-1.973.372-3.527.59-.043-.309-.199-.792-.468-1.449.233.41.191.321-.125-.266.699-.035 1.71-.146 3.035-.332 1.036-.146 1.468-.616 1.298-1.413l-.157-1.114 4.467-2.048-13.21 1.856-.235-1.671 16.922-2.378.261 1.856-6.102 2.94.104.743c.276 1.541-.479 2.436-2.263 2.686zm-6.139 4.555c-.21.598-.355 1.027-.435 1.292-.125-.046-.306-.084-.544-.113-.611-.167-1.064-.262-1.36-.282.711-1.615 1.24-3.077 1.584-4.388l1.964.197c-.24.791-.644 1.89-1.209 3.294zm-1.51-12l-.6-4.271 15.196-2.136.6 4.271-15.196 2.136zm4.617-36.076l-3.108.437.417 2.971 3.108-.437-.417-2.971zm-3.036 32.919l.208 1.485 11.311-1.589-.209-1.485-11.31 1.589zm.58-27.84l.431 3.063 3.108-.437-.431-3.063-3.108.437zm3.407 72.452l-2.896-20.61 15.627-2.196 2.896 20.609-2.072.292-.222-1.578-11.397 1.602.222 1.578-2.158.303zm.562-29.157c-.437-1.013-.971-2.104-1.605-3.277l1.761-.626c.167.355.405.795.714 1.32.467.817.792 1.465.978 1.945l-1.848.638zm-1.013 10.286l.9 6.406 11.396-1.602-.9-6.406-11.396 1.602zm1.187 8.448l.926 6.591 11.397-1.602-.927-6.591-11.396 1.602zm8.027-68.76c-1.67.235-2.931.445-3.786.627l-.494-1.635c6.331-.89 12.127-1.83 17.388-2.822l.481 1.542c-1.604.289-4.18.746-7.731 1.371l.248 1.764 9.411-1.322.222 1.578-9.411 1.323.222 1.578 7.166-1.007.47 3.342 2.245-.315.222 1.578-2.245.316.483 3.435-6.13.862c2.2 1.458 5.195 2.299 8.983 2.524-.308.737-.566 1.405-.775 2.002-4.146-.68-7.184-1.83-9.113-3.453l.77 5.478-1.986.279-.77-5.478c-1.639 2.124-4.201 4.155-7.684 6.097-.084-.177-.333-.49-.748-.936-.225-.347-.409-.605-.549-.775 3.332-1.352 5.936-3.074 7.814-5.169l-6.821.958-.209-1.485 7.857-1.104-.274-1.95-9.238 1.299-.222-1.578 9.238-1.299-.261-1.856-7.684 1.08-.209-1.485 7.685-1.08-.222-1.578-9.238 1.298-.222-1.579 9.238-1.298-.248-1.764c-.864.12-2.155.334-3.873.637zm-2.688 49.156c-.793-1.467-1.448-2.573-1.963-3.321l1.675-.614c.648.855 1.355 1.923 2.123 3.204l-1.835.731zm5.97-.744c-.882-1.265-1.851-2.516-2.905-3.757l1.735-.812c1.055 1.241 2.047 2.458 2.979 3.652l-1.809.917zm9.226-14.458c-.544-.113-1.142-.186-1.792-.222l.739-3.512-3.108.437c-.368 1.566-.869 3.215-1.506 4.945-.393-.702-.813-1.401-1.263-2.095.797-2.257 1.357-4.956 1.68-8.094l2.038.092c-.023.256-.085.644-.189 1.163-.006.379-.115 1.057-.33 2.034l4.144-.582.248 1.764-.661 4.07zm-.569-29.194l-5.18.728.261 1.857 5.18-.728-.261-1.857zm-4.698 4.163l.274 1.95 5.18-.728-.274-1.95-5.18.728zm4.506 37.162c-.254.287-.53.61-.832.969l-1.417-1.315c.399-.498.551-1.086.456-1.768l-1.448-10.305 1.813-.254 1.409 10.026.699-.667c.368-.303.932-.888 1.691-1.752.228.789.418 1.52.572 2.191-.254.289-.666.694-1.238 1.215-.679.6-1.199 1.083-1.557 1.45l-.148.21zm-1.977 14.783l-.287-2.042 11.483-1.614c-.275-1.539-.517-3.052-.726-4.537l2.072-.291c.038.69.182 1.711.431 3.063l.209 1.485 7.166-1.007.287 2.042-7.08.995c.245.913.449 1.736.611 2.47.911 3.976 1.937 6.892 3.079 8.75.608.988 1.282 1.396 2.021 1.23.469-.004.767-.392.893-1.167.068-.768.113-1.91.135-3.427.627.291 1.247.52 1.857.686-.004 1.643-.103 2.823-.294 3.544-.168 1.728-.947 2.656-2.337 2.79-1.489.271-2.891-.729-4.208-3.006-1.142-1.859-2.181-4.868-3.118-9.029-.043-.309-.134-.739-.269-1.288-.145-.609-.264-1.035-.355-1.275l-11.57 1.628zm1.448 5.287l-.274-1.949 9.756-1.371.274 1.949-3.885.546.822 5.849c.624-.15 1.556-.408 2.797-.772.846-.245 1.466-.426 1.86-.545l.287 2.042c-2.844.653-6.438 1.599-10.782 2.841l-.693-1.796c.846-.245 2.345-.645 4.498-1.2l-.861-6.127-3.799.533zm2.744-37.517c-.162-.734-.373-1.399-.632-1.994 3.091-.56 6.933-1.416 11.525-2.566l.632 1.994c-1.586.412-3.233.802-4.942 1.168l.887 6.313 5.526-.777.3 2.135-5.525.777.979 6.963 5.094-.716.261 1.857-12.087 1.699-.261-1.856 5.008-.704-.979-6.963-5.612.789-.3-2.135 5.612-.789-.861-6.127-4.625.932zm9.354-25.667c.152 4.839-.893 8.898-3.131 12.179l-1.543-1.582c2.003-2.869 2.956-6.316 2.861-10.342l-3.454.485-.261-1.857 5.267-.74.261 1.857zm1.214.492l-.235-1.671 2.504-.352-.314-2.228 4.422-2.988-11.828 1.662-.274-1.949 15.109-2.124.3 2.135-5.514 3.994.169 1.207 2.332-.328.235 1.671-2.332.328.287 2.042 2.59-.364.248 1.764-2.59.364.3 2.135 3.54-.498.235 1.671-3.54.497.274 1.95c.393 1.964-.417 3.088-2.432 3.372l-3.281.461c-.22-.727-.459-1.388-.719-1.982l2.849-.4c1.217-.109 1.699-.649 1.445-1.623l-.208-1.485-3.713.522-.235-1.671 3.713-.521-.3-2.136-2.849.401-.248-1.764 2.849-.4-.287-2.042-2.502.35zm2.614 52.596c-.946-.876-1.968-1.679-3.068-2.409l1.225-1.309c1.357.883 2.403 1.65 3.141 2.304l-1.298 1.414zm4.771-26.065c-1.044-1.999-2.1-3.871-3.167-5.614l1.636-.893c1.172 1.667 2.277 3.467 3.313 5.404l-1.782 1.103zm2.547 3.713c-.622 3.938-1.05 7.153-1.286 9.647l-2.189-.544c.516-2.596.953-5.75 1.312-9.462l.816.169c.544.113.993.177 1.347.19zm3.928-21.21c-3.472-2.982-5.67-7.345-6.593-13.085l1.614-.416c.254.975.471 1.891.65 2.749 1.029-1.028 1.915-2.036 2.657-3.024l1.43 1.408c-.4.498-1.037 1.187-1.91 2.067-.613.654-1.1 1.165-1.458 1.53.901 2.651 2.548 4.976 4.942 6.974l-1.332 1.797zm-3.775 45.445c-.25-.533-.618-1.27-1.103-2.212l-1.09-2.119 1.316-.658c.233.409.554 1.027.965 1.853.559 1.058.969 1.884 1.229 2.478l-1.317.658zm-1.01 3.456l-.261-1.856 3.454-.486-1.2-8.541 1.899-.267 1.2 8.541 3.281-.461.261 1.856-3.281.461.339 2.414.586-.84c1.457 1.185 2.555 2.103 3.293 2.756l-1.086 1.667c-.68-.662-1.56-1.485-2.636-2.469l1.161 8.262-1.899.267-1.187-8.448c-.546 1.97-1.296 3.938-2.252 5.902-.075-.115-.164-.323-.264-.626-.225-.347-.476-.88-.753-1.598 1.177-2.059 2.053-4.391 2.626-6.996l-3.281.462zm4.377-17.677l-1.931-13.74c-.463.886-.95 1.807-1.461 2.762-.177-.417-.493-1.003-.952-1.76-.133-.107-.203-.192-.212-.254 1.707-2.891 2.872-6.084 3.496-9.58l2.15.266c-.305 1.179-.682 2.463-1.131 3.851l4.921-.691c-.551-.995-1.23-2.067-2.037-3.216l1.834-.731c.789 1.025 1.501 2.125 2.136 3.297l-1.33.565 5.699-.801.248 1.764-5.094.716.443 3.157 4.835-.68.248 1.764-4.835.679.443 3.157 4.835-.68.261 1.857-4.835.679.443 3.157 5.267-.74.235 1.671-11.915 1.675.222 1.578-1.983.278zm-.31-16.619l.444 3.157 4.662-.655-.443-3.157-4.663.655zm.691 4.92l.443 3.156 4.663-.655-.444-3.156-4.662.655zm3.064 20.514c-.43 1.954-.825 3.524-1.187 4.711l-1.374-.375c.407-1.698.77-3.294 1.087-4.792l1.474.456zm-2.359-15.5l.443 3.157 4.662-.656-.443-3.156-4.662.655zm7.656 18.731c-.257-.153-.613-.387-1.067-.702-1.118-.852-2.028-1.481-2.73-1.888l1.013-1.563c.132.108.354.234.669.379 1.357.883 2.394 1.59 3.115 2.119l-1 1.655zm.178 5.655c-.456-.314-1.101-.728-1.936-1.243-.844-.575-1.49-.989-1.936-1.243l.927-1.55c.19.101.479.28.869.541 1.396.75 2.421 1.363 3.076 1.84l-1 1.655zm-3.039 4.688l-.546-2.006 6.458-1.665-1.918-13.647 2.072-.291 1.892 13.461 2.797-.771.374 2.03-2.883.784.939 6.685-2.072.291-.9-6.406-6.213 1.535zm7.648-71.735c-.305-2.166.188-3.875 1.48-5.131l.881.633c-.923.951-1.301 2.235-1.131 3.851l1.468-.206.417 2.971-2.763.388-.352-2.506zm2.986 40.403l-2.048-14.575 9.756-1.371 2.048 14.575-1.813.255-1.774-12.626-6.13.861 1.774 12.626-1.813.255zm5.044.806c-.505 1.839-1.848 3.763-4.031 5.773l-.397-.323c-.491-.563-.873-.982-1.146-1.259 1.946-1.599 3.149-3.061 3.609-4.389.476-1.203.547-3.201.214-5.994l-.848-6.035 1.899-.267c.383 2.724.636 4.739.762 6.046.3 1.726.362 3.2.182 4.424.711.468 2.005 1.328 3.884 2.579 1.158.722 1.931 1.21 2.32 1.473l-1.146 1.865c-.531-.431-1.544-1.172-3.042-2.224-1.052-.797-1.806-1.354-2.26-1.669zm-4.058-41.768c-.305-2.166.16-3.871 1.394-5.118l.968.621c-.923.951-1.301 2.234-1.132 3.851l1.382-.194.417 2.971-2.677.376-.352-2.507zm.372 57.541l-.274-1.95 6.734-.947.274 1.95-2.417.34.822 5.849 2.331-.328.261 1.857-2.331.328.848 6.035c.779-.299 1.588-.602 2.425-.909-.014.319.051.783.196 1.393l.091.65c-.164.087-.414.186-.751.295-2.423.719-4.353 1.4-5.788 2.044l-.619-1.901c.278-.101.726-.259 1.342-.473l1.256-.46-.9-6.406-2.331.328-.261-1.857 2.332-.328-.822-5.849-2.418.339zm7.158-54.057c-.406-.384-.938-.815-1.59-1.291 2.458-2.554 4.306-5.275 5.544-8.164l2.284-.037c-.09.202-.248.541-.474 1.013-.178.404-.336.743-.474 1.013l8.288-1.165.248 1.764-2.026 3.125 5.094-.716 1.109 7.891-14.419 2.026.444 3.156c.116 1.247.894 1.768 2.333 1.566l9.843-1.383c1.504-.149 2.232-.818 2.183-2.011-.018-.124 0-.41.055-.86.01-.759.014-1.358.011-1.8.791.205 1.455.332 1.991.382.026.186.031.438.018.755.032 1.07-.007 1.833-.119 2.289-.102 1.781-1.28 2.798-3.533 3.053l-10.792 1.517c-2.353.393-3.66-.56-3.923-2.856l-1.409-10.026-.686.759zm2.193 66.092l-.248-1.764 5.18-.728-.365-2.6-4.921.692-1.592-11.327 11.829-1.662 1.591 11.326-5.007.704.365 2.6 5.267-.74.248 1.764-5.267.74.391 2.785 6.13-.861.261 1.857-14.418 2.026-.261-1.857 6.389-.898-.391-2.785-5.181.728zm1.63-29.78l-1.931-13.74 1.899-.267 1.931 13.74-1.899.267zm7.426-42.721l-7.08.995c-.676 1.042-1.384 2.057-2.125 3.044l7.252-1.02 1.953-3.019zm-8.841 58.364l.417 2.971 3.022-.425-.417-2.971-3.022.425zm.341-52.436l.574 4.084 5.267-.74-.574-4.085-5.267.741zm.311 57.078l.431 3.064 3.022-.425-.431-3.064-3.022.425zm5.085-15.212l-3.108.437c-.026-.186-.127-.488-.303-.904-.137-.549-.255-.975-.355-1.275.526-.012 1.451-.109 2.776-.295 1.168-.039 1.616-.606 1.345-1.704l-2.531-18.011 1.899-.267 2.609 18.567c.402 2.027-.376 3.178-2.332 3.452zm2.292 9.442l-3.108.437.417 2.971 3.108-.437-.417-2.971zm-2.456 5.078l.431 3.064 3.108-.437-.431-3.063-3.108.436zm7.201-58.133l-5.18.728.574 4.085 5.18-.728-.574-4.085zm4.852 38.153c.305 2.166-.218 3.88-1.566 5.143l-.894-.727c.923-.951 1.299-2.234 1.131-3.851l-1.468.206-.431-3.063 2.849-.4.379 2.692zm4.014 28.521c.305 2.166-.218 3.879-1.566 5.143l-.894-.727c.923-.951 1.299-2.234 1.131-3.851l-1.468.206-.431-3.063 2.849-.4.379 2.692zm.656-54.097l-2.714-19.311 5.699-.801c.013-.317.068-.767.163-1.348.068-.767.109-1.308.124-1.627l2.357-.142c-.006.38-.072.958-.197 1.732-.111.458-.18.815-.202 1.07l8.807-1.237 2.714 19.31-2.159.303-.208-1.485-12.519 1.759.208 1.485-2.073.292zm-.367-17.652l.496 3.528 12.519-1.76-.496-3.527-12.519 1.759zm.743 5.292l.496 3.528 12.519-1.76-.496-3.527-12.519 1.759zm.745 5.292l.496 3.527 12.519-1.759-.496-3.528-12.519 1.76zm20.191 18.388c.475 6.309-1.691 11.567-6.499 15.777-.076-.117-.212-.254-.411-.416-.614-.609-1.087-1.047-1.417-1.315 4.506-3.852 6.563-8.433 6.168-13.742l-7.511 1.056-.287-2.042 7.771-1.092c-.138-1.811-.321-3.742-.55-5.792l2.158-.303c.13.928.268 2.329.415 4.202.038.69.083 1.219.135 1.59l9.066-1.274c.09 1.061.256 2.868.498 5.421.302 2.987.502 5.042.602 6.164.368 3.04-.805 4.72-3.518 5.039-1.258.239-2.635.465-4.131.675-.188-.92-.466-1.638-.832-2.155l3.972-.558c1.859-.135 2.646-1.224 2.358-3.266-.068-1.316-.323-3.962-.764-7.94l-.144-1.021-7.079.992zm-5.645-1.952c-1.029-1.054-2.169-2.062-3.418-3.022l1.285-1.506c.389.262.981.714 1.776 1.359.787.585 1.378 1.037 1.776 1.36l-1.419 1.809zm5.461 43.274c-.4.497-.733 1.05-1 1.656l-1.703-1.465c.44-.63.59-1.439.451-2.43l-1.043-7.427-2.59.364-.287-2.042 4.576-.643 1.292 9.191c.203-.218.505-.576.906-1.074.807-.933 1.411-1.649 1.811-2.148.009.063.055.182.139.359.184.48.448 1.106.792 1.877-1.071 1.16-2.185 2.422-3.344 3.782zm-1.266-14.022c-1.303-1.332-2.612-2.504-3.928-3.519l1.372-1.518c1.325 1.077 2.654 2.183 3.988 3.321l-1.432 1.716zm2.323-59.917c-.701 2.119-1.706 4.153-3.016 6.104-.242-.47-.623-1.08-1.138-1.828 1.692-2.572 2.84-5.479 3.441-8.72l1.938.012c-.175.846-.382 1.663-.624 2.454l5.008-.704.287 2.042c-.452 5.555-2.813 10.052-7.084 13.492-.423-.509-.958-.969-1.603-1.384 1.76-1.256 3.095-2.612 4.007-4.066-1.158-.72-2.117-1.279-2.877-1.678l.84-1.539c1.273.706 2.286 1.227 3.037 1.562.244-.349.496-.858.754-1.526-1.017-.551-2.063-1.098-3.136-1.642l.78-1.34c.99.367 1.957.766 2.898 1.202.224-.915.404-1.917.545-3.011l-4.057.57zm1.151 15.081c-.46 1.326-.79 2.319-.99 2.979l-2.004-.476c.565-1.405 1.072-3.022 1.52-4.852l1.991.383c-.121.395-.293 1.051-.517 1.966zm2.565 25.127c-1.227-1.215-2.5-2.331-3.815-3.345l1.285-1.506c.968.622 2.284 1.637 3.949 3.042l-1.419 1.809zm-2.186 34.599l-.274-1.949 5.094-.716-2.636-18.753 2.072-.291.913 6.499 5.871-.825.3 2.135-5.871.825 1.422 10.119 6.735-.946.274 1.949-13.9 1.953zm3.845-57.859l-.376-.799c-.586-1.243-1.116-2.304-1.592-3.184l1.847-.639c.167.355.414.858.74 1.505.541.933.976 1.724 1.302 2.374l-1.921.743zm1.026-14.629l-.261-1.856 2.677-.376c-.083-.997-.318-2.89-.709-5.675l1.899-.267c.339 2.414.575 4.307.709 5.675l5.267-.74.261 1.856-5.008.704c1.059 2.944 3.185 4.917 6.379 5.919-.09.202-.252.509-.487.92-.228.475-.385.812-.474 1.014-3.114-1.267-5.206-3.212-6.279-5.839-.185 2.866-1.585 5.43-4.202 7.691-.207-.222-.548-.553-1.02-.993-.266-.214-.436-.379-.51-.497 2.847-2.293 4.239-4.918 4.176-7.876l-2.418.34zm4.288 13.598c-.344-.772-.965-1.853-1.864-3.241l-.337-.521 1.834-.731c.158.294.42.698.787 1.215.608.988 1.103 1.8 1.488 2.442l-1.908.836zm3.091-17.475l-.497-.404c-1.02-.993-1.791-1.673-2.312-2.042l1.251-1.123c.454.315 1.117.854 1.987 1.615l.895.726-1.324 1.228zm.623 30.889c-.472.824-.976 1.621-1.513 2.39-.16-.293-.422-.699-.787-1.215-.216-.285-.367-.517-.45-.694 1.718-2.386 2.951-4.895 3.697-7.525l2.004.476c-.411 1.257-.887 2.46-1.43 3.609l1.357 9.655-1.899.267-.979-6.963zm2.097-14.041c-.385-.641-1.008-1.531-1.873-2.671-.441-.632-.774-1.122-.999-1.469l1.623-.985c.573.74 1.334 1.77 2.283 3.087.357.454.61.797.761 1.029l-1.795 1.009zm.498 22.481c-.421 2.017-.893 3.881-1.415 5.595l-1.931-.581c.637-1.73 1.089-3.529 1.354-5.397l1.992.383zm1.419 20.082c-.472.823-.976 1.621-1.513 2.39-.16-.293-.422-.699-.787-1.215-.216-.285-.367-.517-.45-.694 1.718-2.386 2.951-4.895 3.697-7.525l2.004.476c-.411 1.257-.887 2.46-1.43 3.609l1.357 9.655-1.899.267-.979-6.963zm2.627-32.011c-.428 1.134-.995 2.317-1.702 3.552-.133-.107-.356-.234-.669-.379-.456-.314-.812-.548-1.067-.702 1.244-2.005 2.194-4.221 2.852-6.649l2.038.092-.362 1.187c-.178.404-.284.703-.314.896l9.412-1.323.273 1.95-.805 3.047c-.314-.145-.858-.258-1.633-.338-.125-.045-.215-.064-.271-.056l.71-2.467-8.462 1.19zm-.032 40.45c-.421 2.017-.893 3.881-1.415 5.595l-1.931-.581c.637-1.73 1.089-3.529 1.354-5.397l1.992.383zm.759-22.754c-1.843.259-2.893-.54-3.154-2.397l-.548-3.899 1.986-.279.47 3.342c.13.928.684 1.324 1.664 1.186l3.626-.509c1.283-.055 1.908-.614 1.877-1.684.086-.642.104-1.34.058-2.091.247.092.644.194 1.188.307l.814.169c.012.504-.031 1.235-.131 2.195-.041.133-.057.23-.048.291-.128 1.595-1.117 2.491-2.968 2.689l-4.834.68zm1.19-14.084c-1.081 1.92-2.159 3.649-3.233 5.188-.531-.43-1.08-.795-1.65-1.093.994-1.276 2.022-2.935 3.086-4.978l1.797.883zm1.668 9.99c-.905-1.009-1.921-1.97-3.047-2.886l1.312-1.32c1.05.799 2.115 1.69 3.193 2.675l-1.458 1.531zm.431 14.919c-.43 1.134-.996 2.317-1.703 3.553-.133-.107-.355-.234-.669-.379-.455-.314-.812-.548-1.067-.702 1.244-2.005 2.193-4.221 2.852-6.649l2.037.092-.361 1.187c-.178.404-.282.703-.313.896l9.411-1.323.273 1.949-.805 3.048c-.314-.145-.857-.258-1.632-.338-.125-.044-.216-.064-.272-.056l.711-2.467-8.462 1.189zm-3.375-45.382l1.139-1.296 5.233 4.661-1.199 1.494-5.173-4.859zm3.007 25.91l-1.984.279c-.194-.541-.424-1.138-.693-1.796.411.006.991-.044 1.74-.15.92-.129 1.295-.592 1.125-1.389l-.717-5.106 1.898-.267.758 5.384c.3 1.726-.407 2.741-2.127 3.045zm1.092 37.169c-1.844.259-2.894-.541-3.154-2.397l-.548-3.899 1.985-.279.471 3.342c.13.928.684 1.324 1.663 1.186l3.626-.509c1.283-.055 1.908-.614 1.877-1.684.086-.642.104-1.34.059-2.091.246.092.644.194 1.188.307l.814.169c.012.504-.031 1.235-.131 2.196-.041.133-.057.23-.048.291-.128 1.595-1.117 2.491-2.968 2.689l-4.834.679zm1.192-14.084c-1.082 1.92-2.158 3.649-3.232 5.188-.531-.43-1.081-.795-1.651-1.093.995-1.276 2.023-2.935 3.087-4.978l1.796.883zm1.668 9.99c-.906-1.009-1.922-1.97-3.047-2.886l1.312-1.32c1.051.799 2.114 1.69 3.192 2.675l-1.457 1.531zm.063-4.553l-1.985.279c-.193-.541-.425-1.139-.693-1.796.412.006.992-.044 1.74-.15.92-.129 1.295-.592 1.125-1.389l-.717-5.106 1.899-.267.757 5.384c.3 1.726-.407 2.741-2.126 3.045zm3.108-30.47c-.397-.323-.967-.811-1.703-1.465-1.077-.984-1.948-1.745-2.609-2.284l1.212-1.401c1.457 1.185 2.947 2.395 4.472 3.631l-1.372 1.519zm1.105 7.229c-1.063-1.302-2.353-2.73-3.86-4.286l1.397-1.333c1.5 1.493 2.849 2.946 4.046 4.354l-1.583 1.265zm2.909 21.293c-.396-.323-.967-.811-1.702-1.465-1.078-.984-1.948-1.745-2.61-2.284l1.213-1.401c1.457 1.185 2.946 2.395 4.472 3.631l-1.373 1.519zm1.106 7.229c-1.063-1.302-2.353-2.73-3.86-4.286l1.397-1.333c1.5 1.493 2.848 2.946 4.045 4.354l-1.582 1.265zm-1.736-42.279l-.274-1.95 2.418-.34-.64-4.549 1.899-.267.64 4.549 2.071-.292.273 1.95-2.072.291.535 3.807c.213-.156.565-.363 1.057-.622l.738-.388.235 1.671 14.332-2.014.248 1.764-6.044.85.326 2.321 5.267-.74.233 1.671-5.267.74.366 2.599c1.857-.135 3.959-.431 6.303-.886-.076.705-.135 1.344-.171 1.917-2.937.413-5.099.684-6.489.817-2.416.34-4.273-.346-5.57-2.057-.313 1.117-.926 2.402-1.836 3.855l-1.711-.896c1.559-1.859 2.23-4.384 2.019-7.573l1.839-.069c-.023.256-.029.636-.017 1.139-.037.573-.067.988-.089 1.243 1.133 1.797 2.397 2.661 3.798 2.59l-.9-6.406-6.39.898-.184-1.3c-.162.087-.463.254-.896.505-.387.182-.686.349-.896.505l.938 6.684c.292 1.663-.302 2.661-1.78 2.996-.625.15-1.195.263-1.714.335-.171-.797-.386-1.493-.646-2.086l1.382-.194c.698-.036.968-.42.807-1.155l-.782-5.57-2.349 1.466-.485-2.204c.328-.171.815-.46 1.463-.868.502-.196.856-.372 1.07-.529l-.64-4.549-2.415.341zm7.411-17.063l-2.439-17.361 5.871-.825 2.191 15.597-4.059.57.248 1.764-1.812.255zm-.451 60.972l-1.449-10.305 8.203-1.153 1.447 10.305-1.898.267-.195-1.393-4.404.619.197 1.393-1.901.267zm.272-13.103l-1.162-8.263 14.852-2.087 1.161 8.263-14.851 2.087zm.957-28.927l-1.201-8.542 11.139-1.565 1.199 8.541-11.137 1.566zm-1.13-34.607l1.632 11.604 2.33-.328-1.631-11.605-2.331.329zm.613 67.921l.757 5.384 4.403-.618-.757-5.385-4.403.619zm.744-10.991l.612 4.363 10.707-1.504-.613-4.363-10.706 1.504zm.693-29.553l.274 1.95 7.425-1.044-.273-1.949-7.426 1.043zm.482 3.435l.273 1.95 7.426-1.044-.273-1.949-7.426 1.043zm3.229-29.918l-.273-1.95 4.402-.619-.521-3.713 1.985-.279.521 3.713 4.663-.655.273 1.949-4.662.656.482 3.435 5.611-.789.262 1.857-4.922.691c1.617 2.74 3.86 4.917 6.729 6.534l-1.047 1.946c-2.713-1.764-4.752-3.939-6.111-6.525l1.316 9.376-1.984.279-1.318-9.377c-.765 3.327-2.246 6.154-4.441 8.482-.549-.555-1.115-1.042-1.703-1.465 2.551-2.314 4.281-5.241 5.193-8.777l-4.488.631-.262-1.857 5.18-.728-.481-3.435-4.404.62zm4.845 74.238l-1.448-10.305 8.202-1.153 1.449 10.305-1.813.254-.196-1.392-4.488.631.195 1.392-1.901.268zm.713-8.715l.757 5.384 4.489-.631-.758-5.385-4.488.632zm7.66-34.321c-.525 1.273-1.086 2.519-1.676 3.738-.103-.3-.258-.783-.469-1.449l-.455-1.356c1.482-3.237 2.48-6.786 2.994-10.645l2.139.173c-.334 1.814-.73 3.574-1.195 5.28l2.336 16.618-1.898.267-1.776-12.626zm1.596-31.014c-.316-.585-.695-1.195-1.139-1.828 1.205-1.873 2.078-4.015 2.619-6.427l1.938.011c-.129.335-.271.795-.422 1.385l-.181.593 3.886-.546.247 1.764-1.042 2.608 2.331-.327 1.5 10.676-8.201 1.153-1.331-9.469-.205.407zm.492 59.616l-.652-4.642 8.635-1.213-.666-4.734 2.158-.304.665 4.734 8.634-1.213.652 4.642-1.984.279-.379-2.692-15.369 2.16.379 2.692-2.073.291zm.33 6.108l-.274-1.95 20.55-2.888.273 1.95-6.821.958c.397.323 1.122.884 2.175 1.683 1.846 1.445 3.157 2.427 3.937 2.95l-1.445 1.623-.596-.484c-.406-.385-.709-.658-.908-.819-4.127.706-7.789 1.379-10.985 2.017-.519.073-1.226.267-2.119.582l-.174.024-1.31-1.804c.713-.352 1.29-.844 1.729-1.474.864-.941 1.68-2.035 2.444-3.278l-6.476.91zm4.229-70.505l-2.849.4c-.396.94-.831 1.821-1.302 2.644l3.107-.437 1.044-2.607zm3.165 16.88c-3.017.676-5.288 1.217-6.815 1.621l-.459-2.018 1.898-.267c3.428-.671 6.049-1.229 7.865-1.673l.117.835c-.006.379.005.662.031.848l-2.637.654zm-3.654 42.022c-.465-.375-1.227-.995-2.285-1.856l-.994-.807 1.212-1.401c1.167.783 2.313 1.632 3.438 2.546l-1.371 1.518zm-2.75-26.427l-.287-2.042 2.59-.364-.652-4.642 1.986-.279.652 4.642 4.402-.619-.652-4.642 1.985-.279.652 4.642 2.677-.376.287 2.042-2.678.376.861 6.127 3.453-.485.273 1.95-15.194 2.135-.274-1.949 3.367-.474-.861-6.127-2.587.364zm.1-27.868l.404 2.878 1.813-.254-.403-2.878-1.814.254zm.627 4.456l.404 2.878 1.812-.254-.404-2.878-1.812.254zm.52 56.677l-.262-1.856 14.852-2.087.261 1.857-14.851 2.086zm5.798-23.841c-1.457 2.162-2.854 4.125-4.189 5.891-.332-.27-.952-.718-1.861-1.348 1.584-1.674 2.965-3.541 4.144-5.6l1.906 1.057zm-1.937-37.996l-1.812.255.404 2.878 1.812-.255-.404-2.878zm-1.188 4.711l.404 2.878 1.813-.255-.404-2.878-1.813.255zm.657 23.218l.859 6.127 4.402-.619-.859-6.127-4.402.619zm3.5 37.398c-1.019 1.532-2.074 3.006-3.166 4.421 2.072-.291 5.114-.781 9.127-1.472-.273-.276-.709-.658-1.306-1.142-.597-.484-1.032-.864-1.305-1.142l1.138-1.296-4.488.631zm-.7-67.35l-.274-1.95 5.526-.776c.662-1.544 1.24-3.077 1.729-4.599l1.918.488c-.13.335-.353.839-.668 1.514-.437 1.071-.797 1.848-1.081 2.329l3.021-.424.273 1.949-4.316.607.47 3.342 3.885-.546.263 1.856-3.887.546.483 3.435 4.661-.656.273 1.95-4.662.655.744 5.292-1.898.267-.744-5.292-4.317.607-.272-1.95 4.315-.606-.481-3.436-3.713.522-.262-1.857 3.713-.521-.47-3.342-4.229.596zm2.45-2.617c-.957-1.38-1.714-2.377-2.27-2.994l1.449-.961c.416.447.984 1.156 1.707 2.126l.637.763-1.523 1.066zm5.103 46.735c-1.012-.932-2.834-2.409-5.467-4.438l1.285-1.506c.853.638 2.104 1.598 3.75 2.881.844.575 1.465 1.024 1.862 1.347l-1.43 1.716zm.254 8.033c-.782 1.121-1.646 2.283-2.592 3.488l-1.649-1.093c.505-.576 1.345-1.704 2.519-3.383l1.722.988zm2.012-26.908l-.248-1.764 8.116-1.141c.021-.254.026-.634.017-1.138-.004-.44-.022-.786-.058-1.033l1.985-.279c.035.248.054.593.058 1.033.013.504.006.884-.017 1.138l9.237-1.298.248 1.764-9.497 1.334c-.029.636-.08 1.306-.158 2.01l8.722-1.225.248 1.764-9.152 1.286c-.077.706-.212 1.419-.403 2.14l11.655-1.638.248 1.764-12.347 1.735c-.223.916-.542 1.78-.955 2.596l8.029-1.129-.301-2.135 1.985-.279.3 2.135 3.627-.51.247 1.764-3.626.51.482 3.435c.327 1.91-.463 2.967-2.371 3.173-.567.142-1.657.328-3.268.554-.203-.603-.441-1.263-.72-1.981.347-.048.925-.099 1.739-.15l1.296-.182c1.044-.084 1.472-.585 1.285-1.506l-.431-3.063-9.152 1.286c-1.072 1.982-2.457 3.817-4.156 5.507-.48-.5-.986-.965-1.518-1.396 2.563-2.632 4.348-5.407 5.346-8.325l-6.044.849-.247-1.764 6.82-.959c.08-.263.146-.62.201-1.07.104-.519.17-.875.201-1.069l-5.611.789-.248-1.764 6.131-.861c.021-.254.031-.604.029-1.045.054-.449.067-.767.041-.953l-7.765 1.091zm2.806-28.724l-.233-1.671 5.524-.777c-.215-.285-.627-.7-1.23-1.247-.54-.492-.912-.85-1.119-1.074l1.907-.836c.073.117.239.251.497.404 1.011.932 1.689 1.594 2.04 1.985l-1.229.646 4.922-.692c.893-1.577 1.492-2.733 1.801-3.472l2.164.358c-.14.272-.396.75-.769 1.433-.383.622-.642 1.069-.78 1.341l5.354-.752.234 1.671-8.548 1.201.287 2.042 7.512-1.056.248 1.764-7.513 1.055.287 2.042 9.065-1.274.234 1.671-20.203 2.84-.234-1.671 9.064-1.274-.287-2.042-7.338 1.031-.248-1.764 7.34-1.031-.287-2.042-8.462 1.191zm1.374 11.641l-.248-1.764 8.635-1.213c.031-.194.025-.445-.018-.755.012-.317.008-.569-.02-.755l2.072-.292c.07.496.082.999.035 1.51l8.895-1.25.247 1.763-8.374 1.177c1.281 2.03 4.42 2.849 9.414 2.464-.129.333-.271.795-.421 1.385-.13.333-.211.598-.241.791-5.056-.047-8.373-1.095-9.951-3.146-.73 2.312-3.672 4.365-8.818 6.162-.084-.177-.275-.498-.574-.96l-.676-1.042c5.103-1.285 7.852-3.027 8.246-5.229l-8.203 1.154zm.012 52.583l-.222-1.578 20.894-2.937.222 1.579-10.878 1.529 1.097 7.798c.164-.085.418-.153.764-.202.337-.109.592-.178.765-.202l.208 1.485-1.541.311.313 2.228-1.813.255-.287-2.042c-3.063.746-5.641 1.423-7.726 2.033l-.481-1.542 1.875-.453-1.201-8.541-1.989.279zm2.432-3.371l-.966-6.87 15.196-2.136.965 6.87-15.195 2.136zm4.352-17.294c-.322-.208-.799-.456-1.426-.746-.959-.559-1.689-.961-2.193-1.207l1.013-1.563c.256.154.636.353 1.142.597l2.565 1.344-1.101 1.575zm-3.136 11.537l.209 1.485 11.225-1.578-.208-1.485-11.226 1.578zm.151 8.594l.261 1.857 4.403-.619-.261-1.856-4.403.618zm.228-5.901l.195 1.393 11.226-1.578-.196-1.393-11.225 1.578zm.214 9.058l.248 1.764 4.403-.619-.248-1.764-4.403.619zm.747 5.291c.51-.134 1.244-.332 2.205-.594.969-.199 1.681-.362 2.133-.489l-.234-1.671-4.402.619.298 2.135zm16.776-.275c-.072.326-.128.554-.167.687-1.881-.431-3.462-1.028-4.743-1.795-1.013 1.151-2.268 2.243-3.766 3.275-.066-.054-.142-.169-.226-.348-.424-.508-.744-.905-.959-1.19 1.467-.838 2.642-1.664 3.524-2.484-1.26-1.021-2.364-2.413-3.315-4.173l.404-.246-1.035.146-.223-1.578 8.462-1.189.234 1.67c-.521 2.156-1.198 3.799-2.037 4.926 1.188.528 2.592.897 4.207 1.113l-.36 1.186zm-5.296-3.231c.724-1.111 1.277-2.388 1.662-3.831l-4.403.619c.824 1.272 1.738 2.343 2.741 3.212zm2.547-39.386l-.261-1.857 15.627-2.196.261 1.856-15.627 2.197zm18.5 11.98l-3.972.558c-.221-.727-.468-1.449-.745-2.167.929-.069 2.086-.199 3.467-.393 1.274-.117 1.801-.758 1.578-1.926l-2.113-15.04-16.317 2.293-.273-1.949 18.39-2.584 2.467 17.546c.349 2.095-.476 3.316-2.482 3.662zm-14.931-.364l-1.317-9.376 11.482-1.614 1.108 7.891-9.497 1.334.209 1.485-1.985.28zm18.605 21.454c-.559.206-1.183.355-1.873.453-.109-.363-.267-.846-.469-1.449-.092-.239-.176-.416-.25-.533.237.03.731-.008 1.48-.113.756-.042 1.053-.652.888-1.829-.03-.626-.116-1.655-.258-3.088-.048-.75-.092-1.28-.136-1.59l-3.139 1.482 1.384 9.841-1.899.267-1.291-9.191-2.879 1.446 1.188 8.448c.075 1.378.854 1.899 2.333 1.565l4.49-.631c1.446-.141 2.184-.748 2.208-1.825.051-.89.063-1.838.041-2.846.676.222 1.314.383 1.917.488.002 1.263-.049 2.374-.147 3.334-.07 1.587-1.117 2.491-3.141 2.713l-5.871.825c-2.18.369-3.392-.534-3.638-2.708l-1.188-8.448-1.476.775-.633-1.994.246-.129-1.899.267 1.161 8.262c.337-.109.833-.337 1.489-.683.384-.18.688-.317.91-.412.087.619.211 1.295.373 2.03-.724.291-2.13.931-4.222 1.918l-2.253.885-.619-1.901 2.499-1.014-1.238-8.82-2.072.292-.274-1.95 2.072-.291-.874-6.22 1.899-.267.874 6.22 1.985-.279.273 1.949 1.488-.683-.743-5.292 1.898-.267.652 4.642 2.879-1.446-.861-6.127 1.899-.267.77 5.477 4.946-2.398c.423 3.854.693 6.403.812 7.648.241 2.117-.33 3.27-1.711 3.464zm-17.088-25.075l7.511-1.056-.572-4.085-7.513 1.056.574 4.085zm-.031-29.072l1.14-1.296 5.232 4.661-1.198 1.494-5.174-4.859zm18.313-15.641l-.274-1.949 11.483-1.614.274 1.949-2.245.316.899 6.405 2.85-.4.273 1.949-2.85.401 1.448 10.305-1.985.279-1.448-10.305-3.281.461c.75 4.502.178 8.148-1.72 10.94l-1.861-1.348c1.735-2.263 2.296-5.372 1.683-9.325l-2.59.364-.274-1.95 2.591-.364-.899-6.406-2.074.292zm6.51 59.614c-.356-.454-.89-1.105-1.595-1.953-.715-.908-1.247-1.56-1.596-1.953l1.41-1.24 1.569 1.768c.829.894 1.422 1.568 1.78 2.022l-1.568 1.356zm-3.134-17.939l1.139-1.296 5.233 4.661-1.199 1.494-5.173-4.859zm5.1 31.295c-.652.786-1.318 1.89-2 3.311l-1.25-2.001.293-.42c.772-1.181 1.358-2.021 1.76-2.52l-1.019-7.241-2.245.315-.286-2.042 4.145-.583 1.318 9.377c1.146 1.48 2.925 2.018 5.334 1.617 3.239-.33 7.125-.876 11.654-1.639-.022.255-.062.608-.114 1.058-.112.456-.182.813-.202 1.07-3.117.374-6.92.877-11.41 1.508-2.592.365-4.585-.239-5.978-1.81zm-4.504-73.528l.9 6.406 3.28-.461-.899-6.406-3.281.461zm5.119 58.484l-.234-1.671 3.972-.558c-.622-.67-1.274-1.336-1.954-1.998l1.735-.812c.396.323.943.878 1.643 1.663.331.27.566.489.708.658l-.578.271 2.937-.412 1.249-3.016 1.978.291-1.154 2.434 4.146-.583.233 1.671-6.819.959-.244 2.022 6.044-.85 1.631 11.605-12.433 1.747-1.631-11.604 4.402-.619.157-2.01-5.788.812zm10.2-62.247c-1.653 2.442-3.719 4.657-6.198 6.646-.432-.569-.918-1.102-1.456-1.594 2.391-1.787 4.383-3.896 5.979-6.331l1.675 1.279zm-6.855 65.374l.262 1.856 8.634-1.213-.261-1.857-8.635 1.214zm8.127-58.831c-1.48 2.418-3.615 4.769-6.404 7.054-.434-.569-.918-1.102-1.457-1.594 2.643-2.076 4.737-4.294 6.284-6.658l1.577 1.198zm1.358 6.531c-2.099 3.452-4.666 6.272-7.703 8.467l-1.37-1.606c3.016-1.938 5.479-4.651 7.396-8.14l1.677 1.279zm-9.029 55.55l.274 1.95 8.634-1.214-.273-1.949-8.635 1.213zm.469 3.342l.262 1.857 8.634-1.213-.262-1.857-8.634 1.213zm13.761-69.471c-.958.703-1.94 1.441-2.946 2.213-.376-.577-.832-1.114-1.37-1.606 3.302-1.979 5.891-4.236 7.766-6.772l2.297.056c-.587.84-1.187 1.587-1.798 2.241l9.237-1.298.273 1.95c-3.613 4.358-9.22 8.112-16.818 11.263-.269-.656-.618-1.27-1.051-1.84 3.177-1.204 5.846-2.462 8.01-3.777-.257-.153-.616-.417-1.081-.795-1.043-.737-1.883-1.282-2.519-1.635zm-2.287 39.725l-2.021-14.39 8.287-1.165 2.011 14.297-1.642.23-1.734-12.347-5.095.716 1.748 12.44-1.554.219zm6.389-31.213c-1.85 1.459-3.618 2.655-5.307 3.585-.216-.285-.503-.654-.86-1.109-.216-.285-.361-.485-.437-.602 4.1-2.153 7.348-4.725 9.745-7.712l2.236.253c-.099.141-.272.355-.525.642-.506.577-.857 1.005-1.052 1.284l7.511-1.056.262 1.856c-3.418 5.341-9.229 9.312-17.432 11.917-.259-.595-.614-1.239-1.063-1.933 3.844-1.046 6.896-2.295 9.158-3.749-.663-.538-1.668-1.217-3.016-2.038.188.1.057-.008-.398-.323l1.178-1.015zm2.017 35.901c-.87-.762-2.092-1.725-3.664-2.893.074.117-.021.066-.285-.149-.434 1.513-1.573 3.218-3.419 5.119l-1.443-1.501c2.953-2.37 3.999-5.579 3.139-9.624l-.928-6.591 1.729-.243.938 6.685c.175 1.239.253 2.647.241 4.226l.073-.105c.322.208.778.522 1.365.944 1.315 1.015 2.421 1.775 3.313 2.28l-1.059 1.852zm-3.652 30.357l-2.558-18.196 2.331-.328c.021-.255.061-.607.115-1.058.135-.713.21-1.639.227-2.777l2.211.068c-.133 1.155-.291 2.313-.48 3.476l3.887-.546 2.53 18.01-1.898.267-.248-1.764-4.403.619.273 1.95-1.987.279zm1.538-72.588c2.49-1.486 4.684-3.214 6.579-5.185l-8.634 1.213-.626.562c1.271.706 2.554 1.473 3.846 2.3l-1.165 1.11zm-1.822 56.155l.719 5.106 4.401-.619-.717-5.106-4.403.619zm1.004 7.149l.744 5.292 4.403-.619-.744-5.292-4.403.619zm3.962-54.089c2.146-1.437 4.092-3.256 5.837-5.458l-7.166 1.007c-.467.444-.961.893-1.483 1.345.512.307 1.223.774 2.134 1.404.646.416 1.158.722 1.538.92l-.86.782zm1.272 33.735l-1.565-11.141 3.194-.449-1.564-11.14 1.898-.267.626 4.456 5.095-.716.273 1.949-5.094.716.665 4.735 4.145-.583 1.565 11.141-1.899.267-.209-1.485-5.438.764.208 1.485-1.9.268zm.608-9.458l.835 5.941 5.438-.764-.835-5.942-5.438.765zm8.694 36.763l-3.626.509c-.153-.674-.402-1.396-.745-2.167.757-.044 1.884-.17 3.381-.38 1.629-.103 2.325-.99 2.092-2.661-.076-1.377-.399-4.299-.969-8.763-.126-1.308-.227-2.24-.305-2.797l-5.181.729c-.152.589-.413 1.447-.783 2.571l-.361 1.187c-.569-.299-1.197-.589-1.884-.872 1.008-2.854 1.689-5.728 2.047-8.619l2.052.185c-.063.388-.162.938-.297 1.651l-.282 1.744 6.389-.898c.558 3.961 1.094 8.62 1.612 13.974.372 2.66-.674 4.197-3.14 4.607zm-2.541-6.175c-.35-.392-.872-.981-1.567-1.768-.99-1.186-1.763-2.086-2.317-2.704l1.397-1.333c.488.563 1.215 1.344 2.179 2.345.821.832 1.443 1.501 1.867 2.01l-1.559 1.45zm2.004-67.447l-.273-1.95 2.677-.376-.64-4.549 1.898-.267.641 4.549 2.244-.315.273 1.949-2.245.315.457 3.25.513-.735c1.052.799 2.074 1.602 3.068 2.409l-1 1.656c-.35-.392-.888-.884-1.616-1.477-.341-.331-.608-.577-.809-.739l1.592 11.327-1.898.267-1.593-11.326c-.297 2.063-.866 4.067-1.708 6.015-.303-.904-.664-1.8-1.082-2.688 1.144-2.305 1.841-4.864 2.092-7.678l-2.591.363zm4.128 41.663l-2.452-17.453 5.611-.789 2.361 16.804-1.64.23-.224-1.578-2.158.303.313 2.228-1.811.255zm-.379-15.851l1.605 11.419 2.158-.303-1.604-11.419-2.159.303zm2.743 28.32l-.287-2.042 18.045-2.536.287 2.042-7.942 1.116c.183 1.3.373 3.072.57 5.316l9.324-1.311.301 2.135-8.894 1.25c1.604 4.319 5.035 6.804 10.292 7.453-.04.131-.129.333-.267.605l-.63 1.792c-5.376-1.076-8.872-3.613-10.489-7.614-.324 3.96-2.859 7.438-7.603 10.441-.143-.169-.419-.478-.834-.924-.35-.393-.627-.702-.835-.924 5.059-2.856 7.563-6.332 7.517-10.429l-8.722 1.226-.3-2.135 8.979-1.262c-.022-.565-.118-1.465-.292-2.704-.102-1.122-.192-1.992-.279-2.612l-7.941 1.117zm1.338-55.422l-.272-1.95 6.476-.91c.564-1.405 1.167-2.971 1.804-4.703l1.991.383c-.615 1.476-1.219 2.822-1.81 4.041l3.54-.497.273 1.949-5.181.728.456 3.25 4.576-.643.273 1.95-4.576.643.482 3.435 5.871-.825.274 1.949-5.871.826.729 5.198-1.984.279-.731-5.199-5.871.825-.272-1.95 5.87-.825-.481-3.435-4.317.607-.273-1.95 4.316-.606-.457-3.25-4.835.68zm2.882-2.678c-.863-1.141-1.716-2.188-2.555-3.144l1.536-.974c.479.5 1.178 1.287 2.092 2.357.216.286.395.513.536.682l-1.609 1.079zm4.15 46.206c-2.016.283-3.133-.57-3.354-2.558l-2.439-17.361 11.224-1.578 1.554 11.048-9.324 1.311.835 5.942c.081.999.692 1.385 1.836 1.162l4.835-.679c1.218-.109 1.813-.665 1.79-1.672.034-1.014.021-2.148-.038-3.403.791.206 1.456.332 1.991.383.045 1.572.017 2.838-.083 3.799-.128 1.595-1.171 2.531-3.127 2.806l-5.7.8zm-3.633-18.33l1.018 7.241 2.851-.4-1.019-7.241-2.85.4zm7.426-1.043l-2.85.4 1.018 7.241 2.851-.4-1.019-7.241zm7.132-16.639l1.14-1.296 5.232 4.661-1.199 1.494-5.173-4.859zm2.9 28.67l1.139-1.296 5.233 4.661-1.199 1.494-5.173-4.859zm4.429 16.44c-.7 2.119-1.705 4.153-3.016 6.104-.242-.471-.622-1.08-1.139-1.829 1.692-2.572 2.841-5.479 3.441-8.72l1.938.012c-.177.846-.384 1.663-.624 2.455l5.008-.704.287 2.042c-.452 5.554-2.813 10.052-7.084 13.492-.425-.508-.959-.969-1.604-1.384 1.761-1.256 3.096-2.612 4.007-4.066-1.157-.72-2.117-1.279-2.877-1.678l.84-1.538c1.272.706 2.285 1.226 3.037 1.561.244-.349.496-.858.754-1.526-1.017-.551-2.062-1.098-3.136-1.642l.779-1.34c.99.367 1.957.767 2.897 1.202.225-.915.405-1.918.546-3.011l-4.054.57zm1.151 15.08c-.46 1.326-.79 2.319-.99 2.979l-2.004-.476c.563-1.405 1.072-3.022 1.52-4.852l1.99.383c-.12.395-.292 1.051-.516 1.966zm4.225 1.867l-.377-.799c-.586-1.243-1.116-2.304-1.592-3.184l1.848-.638c.166.355.413.857.739 1.505.541.933.976 1.724 1.302 2.373l-1.92.743zm1.025-14.628l-.261-1.856 2.677-.376c-.083-.997-.318-2.89-.71-5.675l1.898-.267c.339 2.414.575 4.307.709 5.675l5.269-.74.261 1.856-5.008.704c1.059 2.944 3.186 4.917 6.379 5.919-.09.202-.252.509-.487.921-.228.474-.385.812-.474 1.013-3.114-1.267-5.206-3.212-6.279-5.839-.185 2.866-1.585 5.43-4.202 7.691-.207-.222-.548-.553-1.02-.993-.266-.214-.437-.379-.51-.496 2.847-2.294 4.238-4.918 4.175-7.877l-2.417.34zm4.288 13.598c-.345-.772-.966-1.853-1.864-3.241l-.337-.521 1.834-.731c.158.294.42.698.787 1.215.607.988 1.104 1.8 1.486 2.441l-1.906.837zm3.091-17.475l-.497-.404c-1.021-.993-1.791-1.672-2.312-2.042l1.251-1.123c.454.315 1.117.853 1.987 1.614l.896.727-1.325 1.228zm-1.324-55.612l-.835-5.942 7.598-1.068.835 5.942-7.598 1.068zm-.442 3.754l-.234-1.671 8.548-1.201c.054-.448.038-.983-.05-1.602l1.986-.279c.034.248.049.561.044.94l.092.65 3.539-.498c-.084-.178-.229-.377-.438-.602-.159-.292-.305-.492-.437-.602l1.761-.626.45.694.562.868 3.713-.521.235 1.671-8.289 1.165c1.263 1.464 4.286 1.892 9.072 1.281l-.143.872c-.103.521-.171.876-.2 1.07-5.587.344-9.051-.495-10.392-2.516-.314 1.938-3.381 3.727-9.195 5.363l-.938-1.667c5.102-1.285 7.854-2.585 8.255-3.906l-7.941 1.117zm4.486 68.705c-.384-.641-1.007-1.531-1.872-2.671-.439-.632-.772-1.122-.999-1.469l1.623-.985c.573.741 1.334 1.77 2.282 3.087.357.454.61.797.762 1.029l-1.796 1.009zm-2.844-77.078l.391 2.786 4.06-.571-.393-2.785-4.058.57zm1.013 19.739l-.979-6.963 7.598-1.068.966 6.87-1.727.243-.131-.928-4.059.57.145 1.021-1.813.255zm.58 10.354l-.248-1.764 8.116-1.141c.021-.254.027-.634.016-1.138-.004-.44-.021-.786-.057-1.033l1.985-.279c.034.248.054.593.058 1.033.012.504.006.884-.017 1.138l9.237-1.298.248 1.764-9.497 1.334c-.028.636-.081 1.306-.158 2.01l8.722-1.225.248 1.764-9.152 1.287c-.077.706-.212 1.418-.403 2.139l11.655-1.638.248 1.764-12.347 1.735c-.224.916-.542 1.78-.955 2.596l8.029-1.129-.302-2.135 1.986-.279.3 2.135 3.627-.51.247 1.764-3.626.51.482 3.435c.327 1.91-.463 2.967-2.371 3.173-.567.142-1.657.328-3.269.554-.202-.603-.44-1.263-.719-1.981.346-.048.924-.099 1.739-.15l1.296-.182c1.044-.085 1.472-.586 1.285-1.506l-.432-3.063-9.151 1.286c-1.072 1.982-2.457 3.817-4.156 5.507-.48-.5-.987-.965-1.518-1.396 2.563-2.632 4.348-5.407 5.346-8.325l-6.044.849-.247-1.764 6.82-.958c.08-.263.146-.62.201-1.07.104-.519.171-.875.201-1.069l-5.61.789-.248-1.764 6.13-.861c.021-.254.032-.604.029-1.045.054-.449.067-.767.041-.953l-7.765 1.09zm.476-15.993l.378 2.692 4.059-.57-.379-2.692-4.058.57zm3.718 45.238l-.234-1.671 5.525-.776c-.216-.285-.627-.701-1.231-1.247-.54-.492-.912-.85-1.119-1.073l1.907-.836c.074.117.24.25.497.404 1.011.932 1.69 1.594 2.04 1.985l-1.229.646 4.922-.691c.893-1.577 1.492-2.733 1.801-3.472l2.163.359c-.138.272-.395.75-.768 1.433-.383.622-.642 1.069-.779 1.34l5.354-.752.234 1.671-8.548 1.201.287 2.042 7.512-1.056.248 1.764-7.513 1.056.287 2.042 9.065-1.274.234 1.671-20.202 2.839-.235-1.671 9.065-1.274-.287-2.042-7.339 1.031-.247-1.764 7.339-1.031-.287-2.042-8.462 1.188zm1.372 11.64l-.248-1.764 8.634-1.213c.031-.194.026-.444-.018-.755.013-.317.008-.569-.02-.755l2.072-.291c.07.496.082.999.036 1.51l8.894-1.25.247 1.764-8.374 1.177c1.282 2.03 4.42 2.849 9.414 2.463-.129.333-.271.795-.421 1.385-.13.333-.211.598-.241.792-5.056-.047-8.373-1.096-9.951-3.146-.73 2.312-3.672 4.365-8.817 6.163-.085-.178-.276-.498-.575-.961l-.675-1.041c5.102-1.285 7.851-3.028 8.245-5.229l-8.202 1.151zm1.57-67.755l-.835-5.942 7.686-1.08.835 5.942-7.686 1.08zm3.841 41.705c-.323-.208-.8-.456-1.427-.746-.959-.559-1.689-.96-2.193-1.207l1.013-1.563c.256.154.636.353 1.141.597l2.566 1.344-1.1 1.575zm4.157-27.398l-.144-1.021-4.058.57.13.928-1.813.254-.966-6.87 7.598-1.068.979 6.963-1.726.244zm-6.798-18.925l.393 2.785 4.058-.57-.392-2.786-4.059.571zm1.983 14.111l.378 2.692 4.059-.57-.379-2.692-4.058.57zm8.812-11.274c-.344-.771-.846-1.836-1.506-3.197-.186-.478-.355-.864-.516-1.158l1.157-.541.351.613c.885 1.707 1.466 2.918 1.743 3.637l-1.229.646zm6.769 8.705c-.423-.508-1.084-1.235-1.979-2.184-.198-.161-.336-.298-.41-.416l1.2 8.542-1.727.242-1.2-8.541c-.396 2.202-1.002 4.149-1.82 5.841-.109-.363-.333-.9-.667-1.61-.102-.301-.188-.509-.264-.625 1.039-1.787 1.762-4.16 2.168-7.121l-2.849.4-.248-1.764 2.936-.413-1.147-8.169 1.728-.243 1.147 8.169 2.591-.364.247 1.764-2.59.364.364 2.6.759-.865c1.369 1.386 2.36 2.383 2.975 2.991l-1.214 1.402zm-3.048 16.068l-.209-1.485 8.894-1.25-.248-1.764 1.985-.279.248 1.764 8.979-1.262.209 1.486-8.979 1.262.209 1.485 7.598-1.067.195 1.392-17.182 2.415-.195-1.393 7.598-1.068-.208-1.486-8.894 1.25zm2.288-30.256c-.254 1.55-.559 3.14-.915 4.767l-1.36-.282c.415-1.636.72-3.226.915-4.768l1.36.283zm-.984 42.665l-.209-1.485 6.303-.886c-.49-.561-1.095-1.108-1.813-1.638l1.328-.566-3.626.51-.612-4.363 15.627-2.196.612 4.363-3.625.51 1.52.165c-.146.21-.411.626-.793 1.248-.188.343-.325.613-.414.815l6.217-.874.209 1.485-20.724 2.912zm1.559-41.705l-.209-1.486 4.835-.679-.273-1.95 1.899-.267.273 1.95 5.354-.752.209 1.486-5.354.752.209 1.485 4.835-.679.195 1.393-4.835.679.222 1.578 5.698-.8.209 1.485-12.778 1.796-.209-1.485 5.181-.728-.222-1.578-4.403.619-.194-1.392 4.402-.619-.209-1.485-4.835.677zm1.526 47.993l-.73-5.199 16.317-2.293.731 5.199-1.986.279-.117-.835-12.347 1.735.117.835-1.985.279zm20.479 26.018c-2.821-.867-6.784-1.917-11.89-3.157l.568-1.595c.781.143 1.995.415 3.636.814l1.374.375c.425-.311 1.035-.775 1.829-1.393.794-.616 1.374-1.076 1.743-1.381l-11.829 1.662.601 4.271c1.971-.592 3.626-1.14 4.963-1.644.021.565.075 1.157.162 1.776-.501.196-1.281.495-2.339.897-1.224.487-2.032.79-2.426.909-.107.077-.242.16-.405.247-.607.275-1.019.489-1.229.646l-1.271-1.525c.457-.506.638-1.1.542-1.78l-1.604-11.419c-.697.477-1.445.993-2.248 1.547-.094-.239-.347-.582-.762-1.029l-.449-.694c4.564-2.597 7.603-5.423 9.109-8.475l2.443-.154c-.196.281-.357.587-.487.92 2.526 2.106 5.833 3.504 9.922 4.191-.11.458-.309 1.148-.589 2.071-.248-.091-.611-.166-1.089-.226-.248-.091-.796-.234-1.646-.432l1.097 7.798.086-.012 1.504 1.304c-.377.242-.938.638-1.683 1.183-.804.555-1.39.985-1.756 1.288.791.206 1.998.445 3.622.722.544.113.939.214 1.188.306l-.687 1.989zm-18.952-55.412l-1.578-11.233 10.792-1.517 1.174 8.355c.301 1.724-.407 2.739-2.125 3.044l-1.122.158c-.683.158-1.226.267-1.628.323-.194-.541-.424-1.14-.692-1.796.583-.02 1.423-.105 2.518-.259.986-.076 1.391-.543 1.212-1.401l-.104-.743-7.166 1.007.535 3.807-1.816.255zm-1.148 15.802l.222 1.579 11.829-1.663-.222-1.578-11.829 1.662zm1.072 9.506l.222 1.578 12.347-1.735-.222-1.578-12.347 1.735zm.507-35.403l.234 1.671 7.166-1.007-.234-1.671-7.166 1.007zm.431 3.064l.223 1.578 7.166-1.007-.223-1.578-7.166 1.007zm1.521 26.03c.596.484 1.002.869 1.219 1.154l-.652.375 4.403-.619c.139-.271.35-.648.634-1.13.324-.614.557-1.056.694-1.329l-6.907.971c.132.109.335.301.609.578zm6.942 20.536c.251.533.45.916.602 1.146l-1.415.578 6.044-.849c-2.394-.736-4.563-1.977-6.511-3.724-1.418 2.031-3.19 3.826-5.318 5.386l5.354-.752c-.261-.594-.661-1.358-1.203-2.292l1.761-.626c.156.293.385.67.686 1.133zm-5.933 4.147l.273 1.95 10.446-1.468-.272-1.95-10.447 1.468zm.482 3.435l.286 2.042 10.447-1.468-.287-2.042-10.446 1.468zm29.1-52.416c-.032.194-.072.325-.12.396-6.516-.41-10.986-2.778-13.414-7.108l-3.28.461.913 6.499c1.368-.697 3.1-1.54 5.191-2.529.104.743.224 1.389.36 1.938-1.666.675-3.427 1.523-5.277 2.541-.492.259-1.006.582-1.536.974l-1.457-1.594c.522-.452.69-1.139.503-2.059l-2.244-15.968 7.426-1.043c-.159-.292-.431-.759-.812-1.4-.225-.347-.38-.61-.463-.788l2.191-.687c.4.765.872 1.614 1.415 2.547l6.39-.898 1.475 10.491-.087.012 1.418 1.316c-2.161 1.756-3.883 3.071-5.169 3.945 1.569.727 4 1.111 7.294 1.152l-.717 1.802zm-18.028-14.885l.354 2.507 12.088-1.699-.354-2.507-12.088 1.699zm.953 6.777l12.087-1.699-.353-2.507-12.087 1.699.353 2.507zm2.708 25.769c.009.062-.037.163-.134.303-.441-.632-.874-1.203-1.297-1.711.897-1.956 1.507-4.313 1.823-7.072l1.864.116c-.092 1.023-.248 1.992-.472 2.906l3.626-.509.248 1.764-4.403.619c-.231.854-.542 1.781-.93 2.782l4.921-.691.248 1.764-2.158.304.404 2.878 2.417-.34.262 1.856-2.418.34.679 4.828 2.083-2.091c.093.24.197.573.316.997.117.426.195.762.229 1.009-.435.25-1.068.749-1.901 1.498-.359.366-.646.626-.858.783-.245.35-.521.672-.832.969l-1.258-1.433c.332-.552.456-1.136.369-1.755l-.64-4.549-2.417.339-.262-1.856 2.417-.34-.403-2.877-1.381.194-.142-1.025zm2.905-24.665c1.015 1.372 2.039 2.396 3.073 3.071 1.547-1.101 3.344-2.521 5.389-4.26l-8.462 1.189zm4.852 23.48l-1.005-7.148 10.104-1.42 1.004 7.148-4.059.571.254 2.425 5.267-.74 1.174 8.355c.395 1.963-.417 3.088-2.432 3.371-.798.174-1.627.323-2.49.445-.146-.611-.352-1.245-.619-1.901.526-.012 1.308-.089 2.344-.235 1.159-.101 1.604-.699 1.332-1.796l-.859-6.127-3.627.51c.053.371.047.75-.017 1.138.711.468 1.688 1.152 2.931 2.05.577.361 1 .649 1.266.863l-1.013 1.563c-1.592-1.291-2.81-2.224-3.651-2.8-.345 1.312-1.26 2.733-2.746 4.268-.134-.107-.307-.303-.522-.589l-.597-.484.613 4.363-1.729.243-1.616-11.512 5.267-.74-.34-2.414-4.234.593zm2.589 42.259c-1.868.073-3.057-.865-3.563-2.813-.123-2.127.752-3.419 2.625-3.872 1.981-.089 3.209.907 3.678 2.986.103 2.005-.811 3.238-2.74 3.699zm-.744-5.292c-1.077.279-1.587 1.044-1.526 2.297.263 1.037.949 1.538 2.061 1.509 1.135-.287 1.685-.961 1.652-2.031-.29-1.221-1.019-1.812-2.187-1.775zm-.875-42.594l.509 3.621 6.562-.922-.509-3.621-6.562.922zm.321 9.801l.691 4.92c1.832-1.583 2.724-3.38 2.676-5.394l-3.367.474zm9.237-40.981c.287 2.042-.178 3.75-1.394 5.119l-.969-.621c.923-.95 1.295-2.265 1.118-3.944l-1.381.194-.404-2.878 2.677-.376.353 2.506zm3.972-.559c.287 2.042-.207 3.754-1.479 5.131l-.881-.634c.923-.949 1.295-2.265 1.117-3.944l-1.468.206-.403-2.878 2.763-.388.351 2.507zm3.522 42.972l1.139-1.296 5.233 4.661-1.199 1.494-5.173-4.859z"/></svg>