<svg xmlns="http://www.w3.org/2000/svg" width="640" height="215" viewBox="0 0 640 215"><g enable-background="new"><path fill="#F2E54B" d="M320 151c-32.584 0-59-26.416-59-59s26.416-59 59-59 59 26.416 59 59-26.416 59-59 59zm0-2c31.43 0 57-25.57 57-57s-25.57-57-57-57-57 25.57-57 57 25.57 57 57 57"/><path fill="#FCED43" d="M320 151c-32.584 0-59-26.416-59-59s26.416-59 59-59 59 26.416 59 59-26.416 59-59 59zm0-2c31.43 0 57-25.57 57-57s-25.57-57-57-57-57 25.57-57 57 25.57 57 57 57"/></g><path fill="#FCED43" d="M306.565 71.74h9.922v2.969h-9.922v-2.969zm13.922-32.91c-29.634 0-53.657 24.022-53.657 53.658 0 29.634 24.023 53.658 53.657 53.658 29.634 0 53.657-24.022 53.657-53.658.002-29.636-24.023-53.658-53.657-53.658zm1.547 32.91h8.203v-2.812h-7.031v-2.188h7.031v-2.812h2.5v2.812h6.953v2.188h-6.953v2.812h8.125v2.188h-8.125v5.625h4.297v-4.141h2.344v7.109h-2.344v-.938h-13.517v-6.093h2.345v4.062h4.375v-5.625h-8.203v-2.187zm18.047 21.031v9.219h-2.188v-7.188h-6.25v7.344h-2.188v-9.375h3.438l.392-2.031h-4.062v-2.031h11.562v2.031h-5.078l-.391 2.031h4.765zm-18.047-3.75h6.641v2.188h-1.875v12.5c.051 1.457-.678 2.238-2.188 2.344h-2.031c-.053-.262-.131-.703-.234-1.328-.104-.365-.155-.625-.155-.781.312.053.807.078 1.483.078.625 0 .91-.312.859-.938v-11.875h-2.5v-2.188zm-5.469 15.157c.885.053 1.301-.391 1.25-1.328v-14.844h2.266v15.547c.104 1.771-.756 2.682-2.578 2.734h-1.484c-.678.051-1.198.078-1.562.078-.105-.834-.234-1.59-.391-2.267.572.054 1.406.08 2.499.08zm-2.89-2.422v-11.641h2.109v11.641h-2.109zm4.922-19.469c-.155-.312-.391-.834-.703-1.562-.521-1.094-.911-1.953-1.172-2.578l2.188-.625c.156.365.44.938.858 1.719.521 1.094.886 1.848 1.095 2.266l-2.266.78zm-14.453-12.657h5.781v-5.781h2.344v1.797h8.281v2.109h-8.281v1.875h6.642v7.188h-14.766v-7.188zm6.484 12.344l-2.344.312c-.105-.521-.263-1.277-.469-2.266-.156-.781-.287-1.379-.392-1.797l2.188-.233c.051.261.155.678.312 1.25.365 1.197.598 2.109.705 2.734zm-8.281-.781c.781-1.458 1.328-2.629 1.641-3.517l2.188.547c-.469 1.199-1.094 2.629-1.875 4.297l-2.266-.703c.05-.155.155-.364.312-.624zm-2.266 25.328h-2.422v-1.171h-12.422v1.172h-2.422v-17.579h17.266v17.578zm12.656-1.562l-10.469 1.016-.234-2.188 1.039-.036c.951-.059 2.031-.149 3.258-.276v-2.735h-3.828v-2.031h3.828v-1.797h2.188v1.797h3.828v2.031h-3.828v2.578c.47-.051 1.173-.104 2.109-.156.988-.104 1.719-.182 2.188-.234-.053.468-.079 1.146-.079 2.031zm-1.484-7.734l-.234-.469c-.155-.312-.286-.52-.391-.625-2.656.105-4.662.184-6.016.234-.625.053-1.172.156-1.641.312l-.781-1.953c.363-.207.65-.416.859-.625.729-.885 1.457-1.953 2.188-3.203h-2.969v-2.109h10.469v2.109h-4.922c-.105.156-.234.339-.392.547-.574.887-1.277 1.875-2.109 2.969l4.219-.156-1.094-1.719 1.641-.938c.832 1.25 1.822 2.763 2.969 4.531l-1.796 1.095zm.703-19.079l2.266-.312c.47 1.25.91 2.5 1.328 3.75l-2.344.547c-.262-1.147-.678-2.474-1.25-3.985zm17.544 52.854l-8.125-4.924-8.125 4.924v-3.5l8-4.85v-.15l.125.076.125-.076v.15l8 4.85v3.5zm0-8l-8.125-4.924-8.125 4.924v-3.5l8-4.85v-.15l.125.076.125-.076v.15l8 4.85v3.5zm10.034-16.557c-.469-.365-1.277-.965-2.422-1.797-1.095-.781-1.902-1.379-2.422-1.797-.781 1.355-2.71 2.629-5.781 3.828-.105-.209-.312-.6-.625-1.172-.263-.418-.443-.73-.547-.938 2.344-.729 3.905-1.51 4.688-2.344.781-.781 1.172-2.057 1.172-3.828l.078-2.656h2.188l-.078 2.656c0 .887-.105 1.719-.312 2.5.47.312 1.197.834 2.188 1.562 1.612 1.146 2.733 1.9 3.358 2.266l-1.485 1.72zm12.266-.156h-2.188v-1.094h-4.453v1.172h-2.109v-7.656h8.75v7.578zm.937-9.219h-10.703v-1.953h2.656c-.105-.156-.234-.363-.392-.625-.209-.312-.574-.832-1.094-1.562l1.797-.938h-2.422v-1.875h3.828c-.209-.676-.443-1.328-.703-1.953l2.344-.312c.312.73.572 1.484.781 2.266h3.438v1.875h-2.812l2.031.703-1.406 2.422h2.656v1.952zm5.391 7.266h-1.797l-.234-1.094c-.104-.521-.184-.885-.233-1.094h1.562c.938 0 1.379-.52 1.328-1.562 0-1.25-.703-2.656-2.109-4.219l1.642-5.312h-2.734v15.547h-2.108v-17.657h7.108v2.108l-1.797 5.078c1.51 1.459 2.238 3.021 2.188 4.688.047 2.242-.89 3.413-2.816 3.517zm-12.969-3.75h4.453v2.891h-4.453v-2.891zm.078-5.469h2.5c.625-1.094 1.196-2.135 1.719-3.125h-4.453c.625.781 1.197 1.562 1.719 2.344l-1.485.781zm-47.578-4.14h-12.422v12.422h12.422v-12.422zm-2.109 10h-8.203v-7.656h8.203v7.656zm-6.094-5.625h3.984v3.594h-3.984v-3.594z"/></svg>