<svg xmlns="http://www.w3.org/2000/svg" width="640" height="208.497" viewBox="0 0 640 208.497"><path fill="#fff" d="M115.747 36.035l-2.048-3.47c-1.188 2.313-2.554 4.282-4.097 5.906-.06-.062-.148-.188-.267-.375-.356-.75-.654-1.249-.891-1.5 1.661-1.812 2.997-3.844 4.007-6.094l-3.562-5.906 1.514-1.031 2.938 4.595c.652-1.875 1.068-4.031 1.247-6.469h-5.61v-2.061h7.658v2.062c-.476 3.625-1.129 6.5-1.959 8.624l2.761 4.5-1.691 1.219zm7.302-5.156c-.653 3.375-2.85 6.312-6.589 8.812-.477-.562-.979-1.188-1.515-1.875 4.037-2.25 6.263-5.374 6.679-9.375.179-1.312.268-2.779.268-4.405h2.048c0 .312-.03.781-.089 1.405v1.312c.771 4.875 2.908 8.407 6.412 10.594-.12.249-.356.593-.713 1.031-.297.437-.534.75-.712.938-3.028-2.188-4.958-4.999-5.789-8.437zm4.987-3.938l-1.603-.562c-.179-.062-.298-.094-.356-.094l1.604-3.749h-7.303c-.238.749-.654 1.812-1.247 3.187-.298.688-.505 1.219-.623 1.595-.713-.5-1.336-.875-1.87-1.126 1.305-2.687 2.374-5.654 3.206-8.904l2.048.375c-.238 1-.534 1.969-.891 2.905h8.728v2.062l-1.693 4.311zm8.572 9.563c-.832.624-1.723 1.624-2.672 3.001l-.891-2.251c.831-.812 1.662-1.655 2.494-2.53v-7.312h-2.227v-2.157h4.186v9.47c.83 1.625 2.373 2.438 4.63 2.438 2.611.062 6.797.029 12.556-.094-.06.123-.119.343-.178.655-.238.562-.387 1.031-.445 1.406h-7.392c-1.841 0-3.503-.032-4.986-.094-2.315-.064-4.006-.908-5.075-2.532zm-.088-13.594c-.12-.249-.327-.594-.624-1.03-.534-.938-1.246-2.062-2.137-3.375l1.691-1.031c1.009 1.375 1.988 2.781 2.939 4.219l-1.869 1.217zm4.451 11.25c-.119.062-.208.126-.267.188l-1.069-1.5c.415-.437.624-.968.624-1.594v-12.187c.059 0 .147-.03.267-.094 1.781-.5 3.265-1 4.453-1.5l1.157 1.688c-1.603.625-2.938 1.062-4.007 1.312v10.687c.414-.188 1.038-.499 1.87-.938.534-.249.919-.437 1.157-.562 0 .25.029.654.089 1.218v.844c-1.128.501-2.286 1.125-3.473 1.875-.238.127-.504.314-.801.563zm5.343 2.156v-17.155h7.391v11.812c.059 1.626-.684 2.47-2.227 2.531-.712.062-1.425.094-2.137.094l-.445-1.969c.356.062.891.094 1.603.094.891 0 1.306-.375 1.247-1.125v-9.562h-3.562v15.279l-1.87.001zm16.488-12.093c-.06 7.312-1.396 12.469-4.008 15.469-.298-.375-.801-.938-1.514-1.688 2.316-2.812 3.474-7.438 3.474-13.875 0-.249.029-.499.089-.75h-2.85v-1.968h2.85c.059-1.312.089-2.688.089-4.125h1.96v4.125h4.986c0 2.875-.089 7.124-.268 12.749v1.594c-.06 2.25-1.01 3.343-2.85 3.281-.832.062-1.691.094-2.582.094 0-.188-.06-.562-.178-1.125-.061-.501-.12-.844-.179-1.031h2.049c1.127.062 1.691-.53 1.691-1.781.179-2.749.268-6.687.268-11.812h-3.028l.001.843zm7.214 14.906v-19.218h8.281v19.218h-2.048v-2.156h-4.274v2.156h-1.959zm1.959-17.155v13.03h4.274v-13.03h-4.274zm31.723 14.999c-.654.688-1.247 1.406-1.781 2.156-3.681-2.749-6.589-6.999-8.726-12.75l-.356-.656c-1.545 5.501-4.631 10.031-9.262 13.594l-1.514-2.155c4.809-3.312 7.955-8.062 9.439-14.25-1.188-1.874-2.346-3.28-3.473-4.219l1.691-1.219c1.96 1.625 3.799 4.406 5.521 8.343 2.14 5.313 4.957 9.032 8.461 11.156zm-21.638 32.321v-2.438h21.639v2.438h-21.639zm23.031 75.769c-.416 6.313-3.354 11.22-8.816 14.72-.06-.127-.178-.281-.355-.47-.534-.688-.95-1.188-1.247-1.5 5.104-3.188 7.836-7.438 8.192-12.75h-7.747v-2.062h8.015c.118-1.812.207-3.75.267-5.812h2.227c0 .938-.06 2.345-.178 4.22-.061.688-.09 1.219-.09 1.594h9.351c-.06 1.062-.148 2.875-.268 5.438-.119 3-.208 5.062-.267 6.188-.06 3.061-1.484 4.561-4.274 4.5-1.307.061-2.731.094-4.274.094-.06-.938-.238-1.688-.534-2.25h4.096c1.899.125 2.85-.844 2.85-2.906.118-1.312.237-3.969.356-7.969v-1.031h-7.304v-.004zm-5.433-2.718c-.89-1.187-1.9-2.344-3.027-3.469l1.514-1.312c.356.314.891.845 1.604 1.595.712.688 1.246 1.219 1.603 1.594l-1.694 1.592zm8.994 10.875c-1.068-1.374-2.197-2.656-3.384-3.844l1.514-1.312c.891.75 2.078 1.938 3.562 3.562l-1.692 1.594zm2.273-118.779c-.416 1.688-1.218 3.405-2.404 5.156-.654-.562-1.307-1.095-1.959-1.594 2.077-2.374 3.027-6 2.849-10.875v-6.468h8.46c-.178-.5-.476-1.25-.891-2.25-.178-.312-.298-.562-.355-.75l2.493-.47c.593 1.188 1.038 2.25 1.336 3.188l-1.069.281h8.549v2.154h-16.385v4.407c-.001 3.19-.21 5.597-.624 7.221zm5.521 45.259v-4.781h-4.453v3.562h-1.87v-3.844c-.771.438-1.662.844-2.671 1.219-.061-.188-.209-.499-.445-.938-.179-.375-.327-.656-.445-.844 2.374-.75 4.274-1.654 5.699-2.72h-5.165v-1.688h6.856c.356-.375.682-.812.979-1.312h-5.609v-6.562h16.117v6.562h-8.459c-.179.502-.445.938-.802 1.312h11.576v1.688h-5.788c1.604 1.313 3.681 2.156 6.233 2.531-.237.626-.505 1.219-.801 1.781-.951-.312-1.841-.593-2.672-.844v1.5c.118 1.375-.623 2.062-2.227 2.062-.712.062-1.514.094-2.404.094l-.267-1.5h1.959c.771 0 1.127-.28 1.068-.844v-1.219h-4.452v4.785h-1.957zm-9.35-19.406v-1.594h5.877v-1.499h2.049v1.499h4.809v-1.499h1.959v1.499h5.966v1.594h-5.966v1.031h-1.959v-1.031h-4.809v1.031h-2.049v-1.031h-5.877zm4.274 2.906v1.312h12.021v-1.312h-12.021zm0 2.438v1.312h12.021v-1.312h-12.021zm7.035 6.281v1.5h3.74c-.891-.562-1.663-1.249-2.315-2.062h-4.898c-.771.75-1.662 1.439-2.671 2.062h4.187v-1.5h1.957zm3.173 72.019c-.594.75-1.218 1.47-1.87 2.156-.12-.312-.327-.75-.623-1.312-.179-.312-.298-.562-.356-.75 2.077-2.124 3.681-4.438 4.809-6.938l1.959.75c-.594 1.188-1.246 2.312-1.959 3.375v9.75h-1.959l-.001-7.031zm1.425 8.719c-.713 1.938-1.455 3.719-2.227 5.344l-1.87-.844c.891-1.625 1.604-3.344 2.138-5.156l1.959.656zm4.007 6.375c-1.9 0-2.85-.938-2.85-2.812v-3.938h2.049v3.375c0 .938.503 1.405 1.514 1.405h3.74c1.305.125 2.018-.343 2.137-1.405.179-.623.297-1.312.356-2.062.236.126.623.281 1.157.469l.802.281c-.06.501-.209 1.219-.445 2.156-.06.126-.089.22-.089.281-.356 1.561-1.484 2.311-3.384 2.25h-4.987zm3.206-13.781c-1.366 1.75-2.702 3.312-4.007 4.688-.477-.5-.979-.938-1.515-1.312 1.188-1.125 2.463-2.625 3.83-4.5l1.692 1.124zm-1.425-3.844c-.594 1.062-1.336 2.155-2.227 3.28-.119-.125-.326-.28-.623-.469-.416-.375-.743-.656-.979-.844 1.543-1.812 2.819-3.875 3.829-6.188l2.048.375-.534 1.125c-.237.375-.387.656-.445.845h9.707v1.969l-1.247 2.906c-.298-.188-.832-.375-1.603-.562-.12-.062-.209-.094-.268-.094l1.068-2.344-8.726.001zm1.692 13.969c-.772-1.125-1.663-2.218-2.672-3.281l1.514-1.125c.949.938 1.899 1.969 2.85 3.094l-1.692 1.312zm.712-4.5h-2.048c-.12-.562-.268-1.188-.445-1.875.415.062 1.009.094 1.781.094.948 0 1.394-.406 1.335-1.219v-5.156h1.96v5.438c.058 1.749-.801 2.656-2.583 2.718zm3.44-115.028c-.891.876-1.812 1.905-2.761 3.094l-.891-2.25c.534-.624 1.336-1.5 2.404-2.625.653-.624 1.217-.938 1.692-.938.118 0 .236.032.356.094h.267c4.511-2.812 8.549-6.03 12.111-9.656h-15.139v-2.062h8.727c-.237-.625-.623-1.562-1.157-2.812-.179-.438-.327-.75-.445-.938l2.315-.469c.475 1.062 1.038 2.405 1.691 4.03l-.623.188h7.48v2.249c-3.86 4.188-8.282 7.845-13.269 10.97 1.068 1.312 2.729 2 4.986 2.062 2.138.062 5.58.031 10.33-.095-.298.688-.505 1.406-.623 2.156h-6.056c-1.545-.062-2.909-.126-4.097-.188-2.791 0-4.928-.938-6.411-2.812-.294-.247-.591-.247-.887.002zm6.323 43.852v-4.781h-4.453v3.562h-1.87v-3.844c-.771.438-1.662.844-2.671 1.219-.061-.188-.209-.499-.445-.938-.179-.375-.327-.656-.445-.844 2.374-.75 4.274-1.654 5.699-2.72h-5.165v-1.688h6.856c.356-.375.682-.812.979-1.312h-5.609v-6.562h16.117v6.562h-8.459c-.179.502-.445.938-.802 1.312h11.576v1.688h-5.788c1.604 1.313 3.681 2.156 6.233 2.531-.237.626-.505 1.219-.801 1.781-.951-.312-1.841-.593-2.672-.844v1.5c.118 1.375-.623 2.062-2.228 2.062-.712.062-1.514.094-2.404.094l-.267-1.5h1.959c.771 0 1.127-.28 1.068-.844v-1.219h-4.452v4.785h-1.956zm-9.351-19.406v-1.594h5.877v-1.499h2.049v1.499h4.809v-1.499h1.959v1.499h5.966v1.594h-5.966v1.031h-1.959v-1.031h-4.809v1.031h-2.049v-1.031h-5.877zm7.069 89.644c-.356-.375-.861-.938-1.514-1.688-.95-1.125-1.723-2-2.315-2.625l1.425-1.219 4.007 4.219-1.603 1.313zm.089 7.313c-.891-1.438-1.989-3.031-3.295-4.781l1.604-1.125c1.305 1.688 2.462 3.313 3.473 4.875l-1.782 1.031zm-2.883-94.051v1.312h12.021v-1.312h-12.021zm0 2.438v1.312h12.021v-1.312h-12.021zm7.035 6.281v1.5h3.74c-.891-.562-1.663-1.249-2.315-2.062h-4.898c-.771.75-1.662 1.439-2.671 2.062h4.186v-1.5h1.958zm.501 69.863v-1.781h4.186v-2.625h1.959v2.625h3.651v-2.719h1.87v2.719h3.74v-2.625h1.959v2.625h4.097v1.781h-4.097v2.438h-1.959v-2.438h-3.74v2.438h-1.87v-2.438h-3.651v2.438h-1.959v-2.438h-4.186zm.713 7.688v-4.219h20.125v4.219h-2.048v-2.344h-16.029v2.344h-2.048zm2.137 8.437v-7.875h6.857v-2.062h2.137v2.062h6.946v5.155c.059 1.688-.772 2.531-2.493 2.531-.477.062-1.336.094-2.583.094-.06-.312-.148-.655-.267-1.03-.062-.312-.12-.562-.179-.75.535.062 1.276.094 2.227.094.891.062 1.305-.343 1.247-1.219v-3.095h-4.898v7.875h-2.137v-7.875h-4.809v6.095h-2.048zm10.376-95.926v-1.781h3.474v-2.905h1.87v2.905h2.938v1.78h-2.938v2.531h1.246c1.365-1.499 2.552-3.188 3.562-5.062l1.603.938c-.95 1.562-1.9 2.938-2.85 4.123h2.493v1.781h-4.096c-.713.812-1.514 1.595-2.404 2.344h5.254v10.781h-1.87v-1.312h-5.254v1.312h-1.87v-8.062l-1.692 1.125-.267-.844c-.179-.499-.327-.844-.445-1.031 2.256-1.249 4.274-2.686 6.056-4.312h-5.699v-1.781h4.363v-2.531l-3.474.001zm-.623-39.258v-1.968h3.829c-.298-1.062-.623-2.094-.979-3.094l2.048-.47c.179.688.535 1.875 1.069 3.562h2.493v1.968h-4.809l-.089 3.188h4.274c0 3.375-.09 6.75-.268 10.125 0 1.999-.861 3-2.582 3h-1.959l-.445-1.969h1.78c1.009.062 1.483-.438 1.425-1.501.118-3.249.179-5.812.179-7.688h-2.493c0 5.312-.832 9.218-2.494 11.719l-1.514-1.406c1.483-1.999 2.227-5.654 2.227-10.968l.089-4.501-1.781.003zm3.651 47.603v2.344h5.254v-2.344h-5.254zm0 3.937v2.344h5.254v-2.344h-5.254zm8.281-52.758c-.771 1.375-1.691 2.718-2.76 4.03-.654-.688-1.129-1.155-1.426-1.406 1.781-2.062 3.087-4.374 3.919-6.938l2.048.188-.534 1.406c-.178.438-.298.75-.356.938h8.015v1.781l-8.906.001zm8.549 16.499l-.801.844c-3.326-2.749-5.225-6.874-5.699-12.375-.713.063-1.425.157-2.138.281v9.844c1.247-.624 2.404-1.125 3.473-1.5v.938c.059.438.09.75.09.938-1.247.438-2.494.999-3.74 1.688-.12.062-.268.124-.445.188-.476.249-.772.438-.891.562l-1.157-1.688c.534-.438.771-1.031.712-1.781v-10.969c3.206-.25 6.412-.751 9.617-1.501l.713 1.969c-1.367.313-2.85.562-4.453.75.179 1.5.415 2.812.713 3.938 1.187-.624 2.345-1.312 3.473-2.062l.979 1.688c-1.246.749-2.523 1.469-3.829 2.155.771 2.062 2.167 3.781 4.186 5.156-.121.187-.388.498-.803.937zm-7.157 104.247v-1.969h8.282v-3h2.137v3h8.282v1.969h-8.282v5.906h9.439v1.969h-8.549c2.195 2.562 5.135 4.532 8.816 5.906-.12.25-.327.562-.624.938-.237.438-.445.781-.623 1.031-3.918-1.688-6.738-3.781-8.46-6.281v7.969h-2.137v-8.062c-2.019 2.688-4.897 4.907-8.638 6.656-.238-.502-.654-1.095-1.247-1.781 3.62-1.625 6.59-3.75 8.905-6.375h-8.46v-1.969h9.439v-5.906l-8.28-.001zm5.61-28.369c-.355-.562-.921-1.374-1.691-2.438-.179-.188-.298-.343-.356-.469v8.625h-1.781v-8.625c-.712 2.125-1.603 3.97-2.671 5.531-.061-.375-.209-.938-.445-1.688-.061-.312-.12-.529-.179-.655 1.306-1.625 2.374-3.875 3.206-6.75h-2.938v-1.781h3.027v-8.25h1.781v8.25h2.672v1.781h-2.672v2.625l.891-.75c1.187 1.562 2.048 2.688 2.582 3.375l-1.426 1.219zm-5.61-9.563c-.237-.811-.594-1.936-1.068-3.375-.119-.499-.237-.903-.356-1.219l1.247-.375c.059.127.147.345.268.656.652 1.813 1.068 3.094 1.246 3.844l-1.337.469zm-.323-24.619v-21.187h7.658v2.063l-2.227 6.562c1.84 1.688 2.729 3.596 2.672 5.719.058 2.564-.98 3.907-3.117 4.031h-2.048c-.061-.248-.12-.623-.179-1.125-.119-.499-.208-.844-.267-1.031h1.87c1.246.063 1.839-.623 1.78-2.062 0-1.501-.921-3.282-2.76-5.345l2.226-6.844h-3.65v19.219h-1.958zm4.687 67.895c-.416-.562-1.069-1.374-1.959-2.438-.417-.5-.713-.875-.891-1.125l1.603-1.22c.593.625 1.425 1.626 2.493 3-.712-.875-.594-.718.356.47l-1.602 1.313zm2.493-47.869c-.476 1.5-1.011 3.033-1.603 4.594l-1.336-.469c.652-1.561 1.187-3.094 1.603-4.594l1.336.469zm.445 1.031v-1.5h4.986v-1.969h1.959v1.969h5.521v1.5h-5.521v1.5h4.986v1.406h-4.986v1.594h5.877v1.5h-13.179v-1.5h5.343v-1.594h-4.541v-1.406h4.541v-1.5h-4.986zm.446 18.844v-11.344h11.131v8.438c.059 1.749-.802 2.656-2.583 2.72h-1.157c-.713.062-1.277.094-1.692.094-.119-.562-.267-1.188-.445-1.875.593.062 1.454.094 2.583.094 1.009.062 1.483-.344 1.425-1.219v-.75h-7.391v3.844l-1.871-.002zm1.87-9.938v1.688h7.391v-1.688h-7.391zm0 3.094v1.594h7.391v-1.594h-7.391zm1.747-37.651l-.713-2.437c1.188-.999 2.612-2.312 4.274-3.938v-11.342h2.049v22.311h-2.049v-8.156l-3.561 3.562zm1.691-7.875c-.297-.938-.861-2.403-1.691-4.405-.298-.688-.505-1.187-.623-1.5l1.603-.655c.059.187.178.468.356.843.948 2.25 1.632 3.938 2.048 5.062l-1.693.655zm-1.247-35.696v-1.688h19.502v1.688h-8.727v2.062h7.658v1.594h-7.658v1.97h9.617v1.78h-21.283v-1.78h9.618v-1.97h-7.658v-1.594h7.658v-2.062h-8.727zm5.2 112.778c-1.247 1.438-2.286 2.595-3.117 3.47l-1.425-1.406c1.188-1.125 2.227-2.312 3.117-3.562l1.603 1.312-.178.186zm-3.596-116.247v-8.812h4.897c.178-.375.386-.906.623-1.594.059-.25.089-.406.089-.47l2.315.188c-.06.126-.119.312-.178.562-.238.562-.445 1-.623 1.312h9.261v8.812l-16.384.002zm2.048-7.124v1.969h12.289v-1.969h-12.289zm0 3.374v2.062h12.289v-2.062h-12.289zm4.898 38.791c-.477.438-.979.844-1.514 1.219-.12-.123-.268-.343-.445-.656-.356-.437-.624-.78-.802-1.031 2.434-1.561 4.333-3.375 5.699-5.437l2.048.469c-.119.126-.267.345-.445.655-.178.313-.534.782-1.068 1.405h7.837v2.062c-2.554 3.562-6.799 6.001-12.734 7.312-.238-.562-.595-1.186-1.068-1.875 2.137-.436 3.918-.938 5.343-1.5-1.012-.997-1.96-1.874-2.851-2.623zm-2.583 8.624v-1.875h9.885v-2.812h1.959v2.812h2.761v1.875h-2.761v4.595c.059 2-.891 3-2.85 3h-1.425c-.712.062-1.246.094-1.603.094 0-.438-.089-1.094-.268-1.969.179.625.147.562-.089-.188h2.672c1.127.062 1.661-.406 1.603-1.406v-4.125l-9.884-.001zm4.899 4.969c-.179-.188-.445-.499-.802-.938-.95-1.125-1.692-1.969-2.227-2.531l1.425-1.219c.415.438 1.127 1.158 2.138 2.156.414.502.741.877.979 1.125l-1.513 1.407zm.8-11.062c2.196-.874 4.126-2.217 5.788-4.031h-7.213l-.712.656.356-.281c.948.689 1.959 1.563 3.027 2.625l-1.246 1.031zm.235 44.306v-1.875h4.72v-1.688h1.87v1.688h4.453v1.875h-4.453v2.625l.802-.938c1.483 1 2.879 2.031 4.186 3.094l-1.247 1.688c-.594-.5-1.425-1.187-2.493-2.062-.534-.437-.95-.781-1.247-1.031v6.281h-1.87v-6.938c-1.01 1.875-2.493 3.625-4.452 5.25-.12-.312-.356-.72-.713-1.22l-.267-.562c2.077-1.562 3.799-3.624 5.165-6.188l-4.454.001zm.001 31.276v-2.156h20.481v2.156h-7.926c-.891 1.562-1.841 3.032-2.85 4.406h1.514v14.062h-2.315v-13.03c-2.137 2.625-4.868 5.125-8.192 7.5-.06-.062-.148-.188-.267-.375-.535-.812-.922-1.345-1.158-1.595 4.987-3.312 8.52-6.969 10.597-10.969l-9.884.001zm9.706-41.119c-3.919.314-7.124.532-9.617.656-.061-.188-.12-.469-.179-.844-.119-.499-.209-.845-.267-1.031 3.977-.062 7.776-.281 11.398-.656l.355 1.781c-.354 0-.92.033-1.69.094zm-8.193 6.375c-.477-1.312-1.011-2.625-1.604-3.938l1.692-.562c.118.251.325.72.623 1.406.534 1.188.891 2.002 1.068 2.438l-1.779.656zm3.651-1.032c-.237-1.062-.594-2.374-1.068-3.938l1.691-.375c.415 1.252.802 2.563 1.158 3.938l-1.781.375zm6.233-3.468c-.416 1.001-1.099 2.501-2.048 4.5l-1.604-.75c.948-1.875 1.604-3.312 1.959-4.312l1.693.562zm9.44 10.312c-2.257 3-5.373 5.469-9.351 7.405-.355-.562-.771-1.188-1.246-1.875 3.68-1.5 6.737-3.844 9.172-7.03l1.425 1.5zm-8.949-41.682v-1.78h21.105v1.78h-9.262v2.25h7.659v1.781h-7.659v2.344h9.439c-.18.688-.355 1.345-.535 1.97-4.096 0-7.095-.031-8.993-.095-3.562 0-5.967-1.062-7.213-3.188-.596 1.375-1.812 2.781-3.651 4.219l-1.246-1.594c2.435-1.562 3.77-3.874 4.007-6.938l1.959.281c-.06.251-.119.626-.178 1.126-.12.438-.179.749-.179.938.949 1.938 2.463 3.032 4.542 3.28v-6.375l-9.795.001zm7.969 28.838c-1.9 2.062-4.274 3.972-7.124 5.72l-1.157-1.781c2.552-1.312 4.838-3.094 6.856-5.344l1.425 1.405zm-4.585-74.003v-1.688h14.249v1.688h-5.7c-.178.126-.416.281-.713.47-.594.438-1.068.75-1.425.938.831.938 1.454 1.875 1.87 2.813 2.314-1 4.482-2.125 6.502-3.376l1.066 1.688c-1.246.626-2.521 1.282-3.829 1.969 1.01 3.063 2.908 5.221 5.699 6.47-.416.501-.86 1.062-1.336 1.688-2.969-1.562-4.986-4.031-6.056-7.406-.12.063-.327.188-.624.375-.298.126-.534.251-.712.375.355 1.125.534 2.345.534 3.656.059 2.812-1.068 4.249-3.385 4.312h-2.938l-.27-1.125c-.06-.375-.118-.656-.178-.845.356 0 .83.03 1.425.095h1.157c1.483.124 2.196-.688 2.138-2.438 0-.562-.03-1.093-.089-1.594-2.554 2.312-5.908 4.155-10.063 5.531-.237-.626-.534-1.282-.891-1.969 4.097-1 7.599-2.812 10.509-5.438-.18-.375-.356-.812-.535-1.312-2.493 2.001-5.462 3.532-8.904 4.595-.061-.188-.209-.499-.445-.938-.179-.375-.327-.656-.445-.844 3.384-.874 6.352-2.28 8.905-4.219-.061-.188-.209-.438-.444-.75l-.269-.281c-2.137 1.188-4.571 2.188-7.302 3-.061-.249-.209-.562-.445-.938-.179-.437-.327-.75-.445-.938 3.799-.75 6.826-1.938 9.083-3.562h-5.696v-.002zm5.03 80.378c-2.138 2.377-4.542 4.347-7.214 5.906-.355-.375-.771-.938-1.247-1.688 2.672-1.562 5.017-3.437 7.035-5.625l1.426 1.407zm-1.068 47.776c-2.85-2.438-5.195-4.312-7.035-5.625l1.425-1.594c.534.375 1.336.97 2.404 1.781 2.196 1.626 3.799 2.812 4.809 3.562l-1.603 1.876zm-6.989-129.466v-4.312h9.528l-.979-2.438 2.314-.375c.355.75.683 1.656.979 2.719l-.178.094h8.461v4.312h-2.048v-2.53h-15.941v2.53h-2.136zm4.008 166.007v-3.094h-2.938v3.094h2.938zm-1.604-123.092v-8.812h15.495v8.812h-15.495zm2.048-7.031v1.875h11.312v-1.875h-11.312zm0 3.375v1.97h11.312v-1.97h-11.312zm7.125 126.748v-3.094h-2.938v3.094h2.938zm.679-76.442v-1.78h8.905c.06-.188.089-.438.089-.75.061-.312.09-.562.09-.75h2.139c0 .501-.062 1.001-.18 1.5h9.172v1.78h-8.638c1.009 2.188 4.065 3.438 9.173 3.75-.179.312-.388.75-.623 1.312-.18.312-.299.562-.355.75-5.105-.75-8.312-2.25-9.617-4.5-1.068 2.188-4.334 3.812-9.796 4.875-.061-.188-.209-.531-.445-1.031l-.534-1.125c5.344-.562 8.371-1.906 9.083-4.031h-8.463zm.267-11.718v-1.688h5.699c-.18-.312-.534-.78-1.068-1.406-.477-.562-.803-.968-.979-1.219l2.049-.562c.059.127.207.281.443.469.893 1.064 1.483 1.814 1.781 2.25l-1.336.47h5.076c1.127-1.438 1.896-2.498 2.312-3.188l2.139.656c-.178.251-.504.688-.979 1.312-.477.562-.802.972-.979 1.22h5.521v1.688h-8.813v2.062h7.746v1.78h-7.746v2.062h9.351v1.688h-20.838v-1.688h9.351v-2.062h-7.569v-1.78h7.569v-2.062h-8.73v-.002zm.357 57.431v-21h18.969v17.625c.117 2.123-.893 3.188-3.028 3.188-.95.062-2.078.094-3.384.094 0-.625-.148-1.346-.445-2.155h3.027c1.306.125 1.898-.375 1.779-1.5v-15.189h-14.781v18.938l-2.137-.001zm6.355 30.729v-3.094h-2.938v3.094h2.938zm-2.884-45.26v-1.969h12.111v1.969h-12.111zm1.337 10.031v-7.595h9.351v7.595h-9.351zm1.959-5.719v3.845h5.432v-3.845h-5.432zm9.406-124.965c-.06 7.312-1.396 12.469-4.006 15.469-.299-.375-.803-.938-1.515-1.688 2.313-2.812 3.474-7.438 3.474-13.875 0-.249.028-.499.088-.75h-2.85v-1.968h2.85c.061-1.312.09-2.688.09-4.125h1.959v4.125h4.986c0 2.875-.089 7.124-.268 12.749v1.594c-.061 2.25-1.01 3.343-2.852 3.281-.83.062-1.689.094-2.58.094 0-.188-.062-.562-.181-1.125-.06-.501-.118-.844-.178-1.031h2.048c1.127.062 1.691-.53 1.691-1.781.179-2.749.268-6.687.268-11.812h-3.027l.003.843zm2.138 52.196c-.356-.562-1.069-1.562-2.139-3-.299-.312-.506-.562-.623-.749-.416 2.188-1.455 4.468-3.116 6.843-.179-.25-.534-.656-1.068-1.219-.237-.188-.387-.312-.444-.375 2.256-2.749 3.412-6.717 3.474-11.906v-4.219c.059-1.998.089-3.437.089-4.312h1.96c0 2.249-.062 5.001-.179 8.249.713-1.062 1.453-2.438 2.227-4.125l1.336 1.407c-.832 1.376-1.781 2.812-2.85 4.312l-.713-.845c-.062 1.439-.18 2.72-.355 3.846 1.543 1.75 2.789 3.25 3.739 4.499l-1.338 1.594zm-6.144-8.53c-.354-1.749-.771-3.624-1.246-5.626l1.515-.469.268 1.126c.296 1.188.623 2.718.979 4.593l-1.516.376zm3.472 122.247v-3.094h-2.938v3.094h2.938zm4.007-127.592v-1.968h5.608l-1.244-2.906 2.137-.469c.178.375.445 1.001.802 1.874.236.627.414 1.063.534 1.313l-.713.188h5.521v1.968h-6.232c-1.426 2.002-2.791 3.938-4.098 5.812.771-.061 2.195-.094 4.273-.094.831-1.186 1.633-2.438 2.404-3.75l2.049 1.031c-2.613 3.75-5.403 7.406-8.371 10.969 2.018-.124 4.186-.218 6.501-.281-.654-1.373-1.247-2.625-1.781-3.75l1.691-.844c.534 1.001 1.336 2.625 2.403 4.875.535 1.062.948 1.875 1.246 2.438l-1.869.75-.801-1.688c-3.027.062-5.464.156-7.304.281-.771.062-1.603.156-2.493.281l-.802-1.875c.651-.312 1.217-.78 1.692-1.406 1.305-1.5 2.699-3.218 4.186-5.156-.355 0-.861.033-1.516.095-1.842 0-2.997.062-3.474.188l-.712-1.875c.296-.188.684-.593 1.157-1.219l.178-.188c.892-1.186 1.87-2.719 2.939-4.594h-3.911zm3.564 127.592v-3.094h-2.938v3.094h2.938zm7.614-73.16c-.298-.188-.801-.593-1.514-1.219l-.714-.75c-.711 1.312-2.047 2.78-4.006 4.406-.119-.126-.356-.407-.715-.845-.297-.375-.533-.655-.712-.844 1.781-1.249 3.117-2.592 4.007-4.031l-3.203-3c.533-2.123.979-4.405 1.336-6.844h-1.87v-2.062h2.226l.534-4.5 2.049.188-.624 4.312h4.098v1.875c-.416 4.5-1.129 7.688-2.138 9.562l2.582 2.25-1.336 1.502zm-7.569 35.681v-1.875h15.229v-1.781h2.138v1.781h4.188v1.875h-4.188v3.375c.118 2.311-.891 3.436-3.027 3.375h-3.474c-.06-.188-.146-.531-.268-1.031l-.269-1.125c.356 0 .859.031 1.516.094h1.514c1.365.125 1.988-.5 1.87-1.875v-2.812l-15.229-.001zm.13-113.528v-19.218h8.281v19.218h-2.047v-2.156h-4.272v2.156h-1.962zm2.541 104.997v-1.781h14.515v-2.156h-15.229v-1.875h17.276v9.845h-17.454v-1.781h15.405v-2.25l-14.513-.002zm-.582-122.152v13.03h4.273v-13.03h-4.273zm2.719 89.939c.949-2.25 1.515-4.937 1.691-8.062h-2.492c-.416 2.377-.861 4.47-1.336 6.281l2.137 1.781zm2.583 45.807c-.238-.25-.654-.625-1.247-1.125-1.068-1.125-1.841-1.875-2.314-2.25l1.515-1.312c.354.312 1.067.97 2.138 1.969.771.625 1.305 1.094 1.604 1.406l-1.696 1.312zm.221 32.416v-3.094h-2.938v3.094h2.938zm12.602-80.379c-2.375 4.626-6.205 8-11.487 10.125-.12-.126-.269-.375-.445-.75-.477-.688-.771-1.094-.891-1.219 5.282-1.812 8.993-4.906 11.131-9.281l1.692 1.125zm-7.48-7.406c-1.188 3.562-2.107 6.157-2.761 7.781l-1.87-.75c1.307-3.062 2.285-5.719 2.938-7.969l1.781.562c.001.064-.029.188-.088.376zm-.39-81.127v-1.688h2.227v-2.25h1.781v2.25h3.739v-2.25h1.779v2.25h2.405v1.688h-2.405v3.374h-2.76v1.781h4.186v5.812h-4.186v1.969h4.721v1.688h-4.721v3.75h-1.781v-3.75h-5.074v-1.688h5.074v-1.969h-4.186v-5.812h4.186v-1.781h-2.761v-3.374h-2.224zm0 39.352v-2.063h21.282v2.063h-21.282zm1.247 19.124v-16.875h8.19v13.78c.06 1.875-.801 2.781-2.582 2.72-.713.062-1.454.094-2.227.094 0-.188-.062-.531-.179-1.031-.062-.438-.119-.781-.18-1.031h.803c.594.062 1.01.095 1.246.095.893 0 1.307-.375 1.246-1.125v-11.533h-4.451v14.906h-1.866zm.3 31.838v-14.25h1.96v14.25h-1.96zm.946-83.565v2.625h2.492v-2.625h-2.492zm3.206 45.258c-.771-1.875-1.571-3.623-2.402-5.25l1.425-.655c.06.062.118.156.179.28 1.01 1.938 1.812 3.562 2.404 4.875l-1.606.75zm-1.691-52.007v1.874h3.739v-1.874h-3.739zm3.685 87.127c-.535-1.062-1.336-2.562-2.404-4.5-.533-.874-.92-1.53-1.156-1.969l1.604-.938c1.426 2.377 2.643 4.5 3.65 6.375l-1.694 1.032zm1.569-80.378h-2.493v2.625h2.493v-2.625zm6.322-1.969c.059 6.251-1.337 10.812-4.188 13.688l-.089-.094c-.355-.312-.859-.688-1.514-1.125 2.609-2.687 3.918-6.75 3.918-12.188v-2.25h-2.315v-1.969h2.404l.09-4.688h1.87l-.09 4.688h4.809c0 2.624-.06 6.438-.178 11.438-.061 1.001-.089 1.72-.089 2.156-.062 2.312-1.039 3.469-2.938 3.469-.236 0-.713.03-1.425.094h-1.067c-.062-.75-.18-1.5-.355-2.25.771.062 1.514.095 2.227.095 1.01.062 1.572-.562 1.691-1.876.059-1.187.118-3.437.178-6.75.061-1.999.09-3.468.09-4.405h-2.938l-.091 1.967zm-3.918 53.696v-16.875h8.46v13.969c.059 1.75-.772 2.594-2.494 2.531-.477.062-1.277.094-2.404.094 0-.188-.06-.469-.178-.844-.061-.5-.119-.875-.178-1.125.475.062 1.187.094 2.137.094.891 0 1.306-.344 1.247-1.031v-11.719h-4.72v14.906h-1.87zm1.214 65.551v-4.312h4.541c-.061-.062-.208-.188-.445-.375-.949-.938-1.689-1.624-2.227-2.062l1.96-.75c.296.251.801.72 1.514 1.406.713.625 1.216 1.094 1.515 1.405l-.802.375h2.938v-3.655h2.137v3.655h2.761l-.713-.375c.949-.811 1.96-1.718 3.028-2.719l1.959.656c-.534.562-1.277 1.252-2.229 2.062-.178.188-.326.313-.443.375h4.631v4.312h-2.137v-2.531h-15.94v2.531l-2.048.002zm3.506-72.113c-.654-1.623-1.484-3.436-2.493-5.438l1.515-.656c.83 1.627 1.66 3.375 2.492 5.25l-1.514.844zm12.879 85.05h-2.582c-.12-.625-.268-1.219-.445-1.78.414.062 1.157.094 2.229.094.947.062 1.395-.343 1.335-1.219v-1.781h-5.788v6.188h-2.227v-6.188h-5.699v4.594h-2.049v-6.375h7.748v-1.875h-5.879v-5.344h14.07v5.344h-5.967v1.875h7.837v3.844c.058 1.686-.802 2.561-2.583 2.623zm-10.774-42.619c0 2.188-.772 3.812-2.315 4.875l-.802-.844c1.066-.812 1.632-2.031 1.69-3.656h-1.515v-3.094h2.938c.004.502.004 1.407.004 2.719zm-.537 30.526v2.156h9.975v-2.156h-9.975zm9.141-107.154l-.534.281-1.425-1.875c.593-.499.859-1.187.801-2.062v-17.53h2.139v6.843h5.609v2.156h-5.609v9.375c1.543-.75 3.385-1.594 5.521-2.531 0 .876.028 1.688.089 2.438-2.375.812-4.155 1.529-5.344 2.155-.298.124-.713.375-1.247.75zm-1.87 40.478v-18.375h2.404c.059-.248.146-.592.267-1.031.237-.686.445-1.594.624-2.718l2.228.375c-.299 1.124-.623 2.249-.979 3.374h4.009v18.188h-1.96v-1.782h-4.542v1.969h-2.051zm2.048-16.312v5.155h4.542v-5.155h-4.542zm0 7.219v5.343h4.542v-5.343h-4.542zm13.715 8.905h-3.74c-.061-.688-.209-1.438-.444-2.25.771.062 1.929.095 3.474.095 1.661.125 2.493-.656 2.493-2.345.118-1.373.207-4.312.269-8.812.059-1.312.09-2.25.09-2.812h-5.344c-.237.562-.623 1.375-1.157 2.438l-.534 1.125c-.534-.375-1.129-.75-1.781-1.125 1.426-2.687 2.522-5.438 3.295-8.249l2.049.469c-.119.375-.299.907-.533 1.593l-.534 1.688h6.59c0 4.001-.12 8.688-.356 14.062-.009 2.686-1.287 4.061-3.837 4.123zm-2.495-40.102c-2.14.062-3.179-1.001-3.117-3.188v-18.655h2.138v9.279c2.374-1.812 4.511-3.844 6.411-6.093l1.689 1.594c-2.553 2.688-5.252 5.062-8.103 7.124v6.188c-.06 1.125.504 1.655 1.69 1.594h2.314c1.127.062 1.751-.469 1.87-1.594.06-.438.147-1.155.269-2.156.059-.562.117-.999.179-1.312.771.312 1.454.531 2.047.655-.062.75-.178 1.751-.356 3-.06.438-.117.782-.178 1.031-.297 1.688-1.424 2.531-3.383 2.531h-3.471v.002zm.801 33.635l-1.335-1.97c-.832-1.312-1.485-2.312-1.959-2.999l1.603-1.126c.415.626 1.038 1.5 1.87 2.625.712.938 1.247 1.688 1.604 2.25l-1.783 1.22zm-1.823 86.643v-18.375h2.404c.059-.249.146-.595.267-1.031.237-.688.445-1.594.624-2.719l2.229.375c-.3 1.125-.624 2.25-.98 3.375h4.008v18.188h-1.959v-1.781h-4.544v1.97l-2.049-.002zm2.048-16.312v5.156h4.542v-5.156h-4.542zm0 7.218v5.345h4.542v-5.345h-4.542zm13.714 8.907h-3.738c-.062-.688-.21-1.438-.445-2.25.771.062 1.929.094 3.473.094 1.662.125 2.494-.655 2.494-2.344.118-1.374.207-4.312.267-8.812.061-1.312.091-2.25.091-2.812h-5.345c-.235.562-.623 1.375-1.155 2.438l-.534 1.125c-.534-.375-1.129-.75-1.781-1.125 1.425-2.687 2.522-5.438 3.295-8.25l2.048.469c-.118.375-.298.907-.534 1.594l-.532 1.688h6.59c0 4-.12 8.688-.356 14.062-.009 2.684-1.287 4.06-3.838 4.123zm-1.693-6.469l-1.335-1.969c-.832-1.312-1.485-2.312-1.96-3l1.604-1.125c.414.625 1.038 1.5 1.87 2.625.712.938 1.246 1.688 1.603 2.25l-1.782 1.219zm-2.705-123.56v-1.968h21.639v1.968h-15.139l-.712 2.25h13.09c-.062 1.5-.208 3-.445 4.5-.119 2.188-1.603 3.312-4.452 3.375h-5.165c-.06-.312-.178-.876-.354-1.688-.062-.251-.089-.438-.089-.562 1.127.062 2.79.094 4.985.094 1.959.124 2.938-.438 2.938-1.688.118-.749.178-1.468.178-2.156h-13.355l1.156-4.125h-4.275zm1.158 50.415v-21.093h19.321v21.094h-2.048v-1.5h-15.226v1.5l-2.047-.001zm1.957-54.446v-6.938h15.405v6.938h-15.405zm.091 35.322v15.844h15.228v-15.844h-15.228zm2.048-40.383v3.093h11.131v-3.093h-11.131zm.98 52.665v-8.907h9.175v8.907h-9.175zm1.96-7.033v5.156h5.345v-5.156h-5.345zm6.735 93.957v-12.375c-.713 1.125-1.425 2.22-2.138 3.281-.119-.375-.269-.999-.445-1.875-.06-.375-.119-.656-.178-.844 1.897-2.938 3.44-6.469 4.631-10.594l2.048.562c-.595 2.002-1.247 3.844-1.959 5.531v16.312h-1.959v.002zm3.739-15.937v-1.875h5.878v-4.5h1.959v4.5h6.501v1.875h-5.521c1.483 4.063 3.62 7.281 6.411 9.656-.119.25-.325.655-.623 1.219-.178.438-.327.75-.443.938-2.971-2.874-5.075-6.28-6.322-10.219v8.156h3.384v1.875h-3.384v4.312h-1.959v-4.312h-3.384v-1.875h3.384v-8.062c-1.366 4.125-3.444 7.626-6.233 10.5-.119-.312-.387-.812-.802-1.5-.178-.312-.298-.529-.354-.655 2.906-2.688 5.046-6.031 6.41-10.031l-4.902-.002zm8.782-115.685c-.12-.062-.27-.218-.445-.469-1.129-.999-1.989-1.781-2.582-2.344l1.246-1.5c1.188.938 2.227 1.875 3.117 2.812l-1.336 1.501zm-.8 38.04l-.532 2.812c-.534-.124-1.069-.218-1.604-.281.476-1.811.831-3.874 1.069-6.188l1.603.28c-.122.692-.3 1.817-.536 3.377zm2.136-34.946c-.772 3.126-1.427 5.906-1.959 8.345l-1.87-.657c.83-3.188 1.454-5.968 1.87-8.344.234.126.771.312 1.603.562-.654-.187-.534-.155.356.094zm-.89-9.28c-.95-1.062-1.87-2-2.761-2.812l1.336-1.405c.949.812 1.899 1.719 2.85 2.719l-1.425 1.498zm4.185 44.226c-.534-.811-1.277-1.875-2.228-3.187v16.687h-2.049v-22.217h2.049v5.343l1.335-1.03c.893.938 1.724 1.969 2.494 3.094l-1.601 1.31zm-2.849-42.915v-1.968h3.475c-.3-.812-.623-2-.979-3.562l1.959-.281c.061.375.207.938.445 1.688.236.876.415 1.595.534 2.156h-.089 2.227v1.968h-4.186l-.091 3.375h4.009c0 .876-.03 2.188-.091 3.938-.06 2.688-.118 4.626-.179 5.812 0 1.812-.832 2.72-2.493 2.72-.534.062-1.099.094-1.689.094l-.356-1.969h1.336c1.01.062 1.483-.375 1.426-1.312 0-.375.028-.968.09-1.781.116-2.625.178-4.5.178-5.625h-2.315v.47c-.118 4.562-1.01 8.156-2.671 10.78l-1.514-1.405c1.48-1.999 2.284-5.156 2.404-9.47.116-1.624.178-3.499.178-5.625h-1.604v-.003h-.004zm7.035 55.665c-2.729-.062-4.127-1.155-4.186-3.28-.062-1.438.534-2.968 1.779-4.595 2.315-3.187 4.929-6.469 7.837-9.844h-8.728v-2.062h11.398v2.25c-3.622 4.188-6.562 7.813-8.815 10.875-.832 1.252-1.247 2.25-1.247 3 0 1.125.859 1.688 2.582 1.688h4.008c1.839.062 2.79-.687 2.852-2.25.118-.623.234-1.748.354-3.375v-.188c.534.251 1.216.438 2.048.562-.118 1.627-.268 3-.443 4.125-.416 2.062-1.781 3.094-4.099 3.094h-5.34zm.979-46.758v-1.875h3.648v-1.313l2.404-2.625h-4.986v-1.405l-.624.937c-.416-.437-.921-.904-1.514-1.405 1.425-2.062 2.552-4.468 3.384-7.219l2.049.281c-.354 1-.713 1.969-1.067 2.906h5.608v1.875h-6.41c-.355.749-.771 1.499-1.246 2.249h6.944v1.969l-2.672 3v.75h3.384v1.875h-3.384v4.594c.061 1.688-.771 2.531-2.493 2.531-.832.062-1.603.094-2.313.094 0-.188-.062-.438-.179-.75-.062-.562-.119-.97-.18-1.219h2.049c.892.062 1.307-.312 1.246-1.125v-4.125h-3.648zm4.499 121.872c-1.604.188-3.236.469-4.897.844l-.089-2.062c.415-.062 1.068-.155 1.959-.281 1.365-.188 2.374-.312 3.027-.375v1.874zm-.712 5.25h-2.404c-.062-.625-.178-1.281-.356-1.969h1.247c.534.062.979.094 1.336.094 1.127.062 1.723-.437 1.78-1.5.118-1.937.179-3.938.179-6h-5.344l.624-8.344h1.781l-.445 6.375h2.228l.532-7.594h-5.073v-1.875h7.033l-.624 9.469h1.158c0 1.375-.09 3.812-.268 7.312v1.031c0 2.063-1.128 3.062-3.384 3.001zm17.456-14.813c-.355.75-.653 1.438-.892 2.062-2.613-1.625-4.631-3.717-6.056-6.281-1.247 2.001-2.731 3.72-4.452 5.156h8.638v1.875h-8.727v-1.781c-.535.375-1.069.812-1.604 1.312-.354-.688-.712-1.344-1.066-1.969 3.086-2 5.254-4.531 6.501-7.595l2.048.188-.445 1.031c1.6 2.627 3.618 4.629 6.055 6.002zm-13.359 14.156v-1.688h7.747c.83-2.499 1.603-5.218 2.313-8.156l1.78.562c-.237.812-.623 2.062-1.157 3.75-.476 1.688-.859 2.969-1.155 3.844h3.203v1.688h-12.731zm2.315-2.906c-.532-2.062-1.099-4.094-1.689-6.095l1.689-.469c.181.688.237.938.181.75.712 2.312 1.216 4.094 1.514 5.344l-1.695.47zm1.747-133.308v-1.875h2.583c.296-1.125.563-2.188.803-3.188l1.959.188c-.062.375-.208 1-.445 1.875-.178.5-.297.875-.355 1.125h4.541v1.875h-5.073c-.832 2.875-1.456 4.875-1.87 5.999h2.582v-4.594h1.69v4.594h2.404v1.875h-2.404v3l2.671-.375c-.06.75-.089 1.406-.089 1.969l-2.582.281v4.594h-1.959v-4.405c-1.604.188-3.088.375-4.453.562l-.178-2.062c.414 0 1.098-.062 2.048-.188 1.127-.062 1.988-.124 2.583-.188v-3.188h-4.097v-1.875l.267-.843c.477-1.501.949-3.219 1.426-5.156h-2.052zm1.993 132.277c-.354-1.938-.743-3.844-1.157-5.719l1.604-.375c.475 1.875.891 3.781 1.247 5.719l-1.694.375zm4.241-79.051c0 2.188-.772 3.812-2.315 4.875l-.802-.845c1.069-.812 1.633-2.03 1.692-3.655h-1.516v-3.095h2.938c.003.503.003 1.408.003 2.72zm15.405-50.884c-.238.376-.597 1.063-1.069 2.062-2.435-1.812-4.305-3.968-5.609-6.468-1.425 2.375-3.385 4.562-5.878 6.562-.118-.249-.387-.718-.801-1.406-.179-.188-.298-.343-.354-.468 2.968-2.125 5.073-4.719 6.32-7.781l2.14.281-.445.938c1.422 2.75 3.321 4.844 5.696 6.28zm-7.925 14.344c-2.079 0-3.117-1.063-3.117-3.188v-9.562h1.96v4.125c1.896-1.062 3.709-2.345 5.432-3.845l1.247 1.688c-2.197 1.688-4.424 3.157-6.679 4.406v2.719c-.062 1.125.534 1.655 1.778 1.594h2.051c1.187 0 1.839-.53 1.959-1.594.178-.999.296-2.062.354-3.188.712.25 1.364.469 1.959.655-.179 1.563-.387 2.782-.624 3.656-.235 1.688-1.365 2.531-3.384 2.531l-2.936.003zm11.065-16.312v-1.968h3.829c-.298-1.062-.624-2.094-.979-3.094l2.05-.47c.178.688.532 1.875 1.066 3.562h2.494v1.968h-4.81l-.09 3.188h4.273c0 3.375-.089 6.75-.267 10.125 0 1.999-.861 3-2.583 3h-1.959l-.445-1.969h1.781c1.009.062 1.481-.438 1.425-1.501.118-3.249.178-5.812.178-7.688h-2.493c0 5.312-.832 9.218-2.492 11.719l-1.515-1.406c1.482-1.999 2.228-5.654 2.228-10.968l.09-4.501-1.781.003zm11.934-1.218c-.771 1.375-1.691 2.718-2.762 4.03-.652-.688-1.128-1.155-1.425-1.406 1.781-2.062 3.086-4.374 3.918-6.938l2.049.188-.535 1.406c-.178.438-.297.75-.354.938h8.015v1.781l-8.906.001zm8.547 16.499l-.804.844c-3.324-2.749-5.225-6.874-5.697-12.375-.714.063-1.427.157-2.139.281v9.844c1.246-.624 2.404-1.125 3.475-1.5v.938c.059.438.089.75.089.938-1.246.438-2.493.999-3.74 1.688-.119.062-.267.124-.445.188-.476.249-.771.438-.891.562l-1.157-1.688c.534-.438.771-1.031.713-1.781v-10.969c3.205-.25 6.411-.751 9.617-1.501l.712 1.969c-1.366.313-2.85.562-4.452.75.18 1.5.414 2.812.712 3.938 1.188-.624 2.347-1.312 3.476-2.062l.979 1.688c-1.247.749-2.522 1.469-3.829 2.155.771 2.062 2.166 3.781 4.188 5.156-.125.187-.394.498-.807.937zm3.842-12v-1.969h3.028v-3.469h-1.338c-.594.062-1.037.095-1.336.095-.06-.75-.146-1.375-.267-1.875 2.493-.062 4.956-.25 7.391-.562l.27 1.875c-.95.188-1.901.281-2.852.281v3.655h2.763v1.969h-2.763v2.531l.269-.375c1.127.938 2.138 1.845 3.026 2.719l-1.067 1.594c-.712-.75-1.455-1.5-2.228-2.25v9.469h-1.868v-9.375c-.654 1.938-1.516 3.656-2.584 5.156-.236-.812-.533-1.53-.891-2.156 1.482-2.062 2.611-4.5 3.384-7.312l-2.937-.001zm8.195 3.281v-1.78h12.558v1.78h-5.343v3.001h4.809v1.687h-4.809v3h5.967v1.688h-14.25v-1.688h6.233v-3h-4.811v-1.687h4.811v-3.001h-5.165zm.799-3.937v-6.843h10.954v6.843h-10.954zm1.96-5.062v3.279h7.035v-3.279h-7.035zm19.694 15.28c0 2.188-.771 3.812-2.312 4.874l-.802-.843c1.066-.812 1.632-2.032 1.689-3.656h-1.514v-3.094h2.938l.001 2.719z"/></svg>