<?xml version="1.0" encoding="utf-8"?>
<!-- Generator: Adobe Illustrator 16.0.0, SVG Export Plug-In . SVG Version: 6.00 Build 0)  -->
<!DOCTYPE svg PUBLIC "-//W3C//DTD SVG 1.1//EN" "http://www.w3.org/Graphics/SVG/1.1/DTD/svg11.dtd">
<svg version="1.1" id="图层_1" xmlns="http://www.w3.org/2000/svg" xmlns:xlink="http://www.w3.org/1999/xlink" x="0px" y="0px"
	 width="640px" height="65.158px" viewBox="0 0 640 65.158" enable-background="new 0 0 640 65.158" xml:space="preserve">
<g>
	<path id="Fill-29_1_" fill="#FFFFFF" d="M322.525,8.778h134.321v34.296H322.525V8.778z"/>
	<path id="Fill-30_1_" fill="#006AB6" d="M323.377,9.634H456.01v32.607H323.377V9.634z"/>
	<path id="Fill-31_1_" fill="#000D57" d="M323.375,9.634h32.677v32.607h-32.677V9.634z"/>
	<path id="Fill-32_1_" fill="#FBC200" d="M356.05,32.209h99.959v10.032H356.05V32.209z"/>
	<path id="Fill-33_1_" fill="#000D57" d="M361.023,35.104h0.658v4.565h-0.658V35.104z"/>
	<path id="Fill-34_1_" fill="#000D57" d="M366.381,35.104h0.889l2.024,3.676h0.017v-3.676h0.647v4.565h-0.836l-2.067-3.753h-0.02
		v3.753h-0.654V35.104"/>
	<path id="Fill-35_1_" fill="#000D57" d="M375.571,35.683h-1.425v-0.578h3.504v0.578h-1.426v3.988h-0.653V35.683"/>
	<path id="Fill-36_1_" fill="#000D57" d="M381.878,35.104h2.562v0.576h-1.904v1.332h1.73v0.577h-1.73v1.505h1.904v0.576h-2.562
		V35.104"/>
	<path id="Fill-37_1_" fill="#000D57" d="M388.992,35.104h1.119c0.902,0,1.771,0.144,1.771,1.235c0,0.558-0.408,0.947-0.938,1.041
		v0.009c0.197,0.08,0.306,0.18,0.443,0.463l0.863,1.817h-0.746l-0.699-1.583c-0.207-0.447-0.424-0.447-0.768-0.447h-0.398v2.03
		h-0.647L388.992,35.104L388.992,35.104z M389.643,37.065h0.559c0.626,0,0.994-0.276,0.994-0.711c0-0.412-0.317-0.672-0.916-0.672
		h-0.637V37.065L389.643,37.065z"/>
	<path id="Fill-38_1_" fill="#000D57" d="M396.566,35.104h0.889l2.021,3.676h0.019v-3.676h0.655v4.565h-0.841l-2.068-3.753h-0.019
		v3.753h-0.653L396.566,35.104"/>
	<path id="Fill-39_1_" fill="#000D57" d="M406.293,35.104h0.689l1.934,4.565h-0.719l-0.461-1.151h-2.242l-0.464,1.151h-0.688
		L406.293,35.104L406.293,35.104z M406.615,35.72l-0.911,2.264h1.823L406.615,35.72L406.615,35.72z"/>
	<path id="Fill-40_1_" fill="#000D57" d="M413.548,35.683h-1.428v-0.578h3.505v0.578h-1.42v3.988h-0.657V35.683"/>
	<path id="Fill-41_1_" fill="#000D57" d="M419.816,35.104h0.652v4.565h-0.652V35.104z"/>
	<path id="Fill-42_1_" fill="#000D57" d="M427.142,35.024c1.39,0,2.204,1.011,2.204,2.363c0,1.385-0.803,2.36-2.204,2.36
		c-1.392,0-2.194-0.976-2.194-2.36C424.945,36.036,425.757,35.024,427.142,35.024 M427.142,39.175c1.06,0,1.516-0.879,1.516-1.787
		c0-0.929-0.501-1.791-1.516-1.789c-1.008-0.002-1.507,0.86-1.507,1.789C425.635,38.296,426.091,39.175,427.142,39.175"/>
	<path id="Fill-43_1_" fill="#000D57" d="M433.811,35.104h0.895l2.019,3.676h0.014v-3.676h0.655v4.565h-0.841l-2.068-3.753h-0.014
		v3.753h-0.655v-4.565"/>
	<path id="Fill-44_1_" fill="#000D57" d="M443.541,35.104h0.686l1.935,4.565h-0.716l-0.465-1.151h-2.24l-0.467,1.151h-0.688
		L443.541,35.104L443.541,35.104z M443.859,35.72l-0.907,2.264h1.822L443.859,35.72L443.859,35.72z"/>
	<path id="Fill-45_1_" fill="#000D57" d="M450.354,35.104h0.657v3.99h1.916v0.576h-2.573V35.104"/>
	<path id="Fill-46_1_" fill="#FFFFFF" d="M339.75,14.129c1.171,1.129,2.479,2.328,3.609,3.496l-1.325,1.703v0.084l3.514,1.565
		l2.374-1.627l-1.438-1.589v-0.114c1.473-1.04,2.729-2.038,4.156-2.991l-0.688,7.115h-20.481l-0.691-7.115
		c1.425,0.953,2.687,1.951,4.154,2.991v0.114l-1.432,1.589l2.371,1.627l3.509-1.565v-0.084l-1.321-1.703
		c1.135-1.167,2.439-2.366,3.607-3.496H339.75"/>
	<path id="Fill-47_1_" fill="#FFFFFF" d="M349.793,23.053l-0.205,2.373l-7.579-0.002v8.188l3.694-0.021
		c0.818-0.003,1.689-0.865,1.509-1.434c-0.188-0.827-0.937-1.376-1.626-1.787c0.139,0,2.67-1.863,3.855-2.666
		c-0.053,0.515-0.903,7.206-0.912,7.314l-8.744,3.322h-0.146l-8.748-3.322c-0.01-0.108-0.854-6.8-0.91-7.314
		c1.188,0.802,3.719,2.666,3.853,2.666c-0.688,0.411-1.427,0.96-1.626,1.787c-0.175,0.569,0.693,1.431,1.514,1.434l3.694,0.021
		l0.003-8.188l-7.588,0.002l-0.203-2.373H349.793"/>
	<path id="Fill-48_1_" fill="#FFFFFF" d="M361.254,18.922c0-2.332-0.079-2.685-1.789-2.835v-0.215l3.723-0.12
		c3.854-0.124,4.156,1.753,4.156,2.483c0,1.285-0.794,2.018-1.894,2.505l0.075,0.104c1.181,2.063,2.643,4.68,5.164,5.199
		l-0.045,0.232c-1.623-0.079-2.815-0.032-3.699-0.948c-1.004-1.048-1.801-2.392-2.123-3.047c-0.608-1.267-1.161-0.905-2.233-1.085
		v2.455c0,1.677,0.036,1.981,2.13,2.272v0.229h-5.363v-0.229c1.834-0.242,1.849-0.701,1.898-2.272V18.922L361.254,18.922z
		 M362.589,20.936c1.47-0.013,3.183-0.682,3.183-2.378c0-1.786-1.569-2.497-3.183-2.485V20.936L362.589,20.936z"/>
	<path id="Fill-49_1_" fill="#FFFFFF" d="M372.908,26.294c-2.1,0-3.762-1.324-3.762-3.491c0-2.104,1.729-3.558,3.773-3.558
		c2.077,0,3.742,1.343,3.742,3.497C376.664,24.818,374.924,26.294,372.908,26.294 M372.893,19.583c-1.649,0-2.326,1.709-2.326,3.112
		c0,1.419,0.8,3.265,2.445,3.265c1.543,0,2.23-1.753,2.23-3.069C375.242,21.495,374.555,19.583,372.893,19.583"/>
	<path id="Fill-50_1_" fill="#FFFFFF" d="M377.146,20.773c-0.271-0.686-0.332-0.839-1.099-0.961v-0.229h3.167v0.229
		c-1.165,0.062-0.855,0.761-0.551,1.539l1.497,3.875l0.944-2.74c0.688-1.986,0.812-2.521-0.317-2.673v-0.229h2.674v0.229
		c-0.67,0.08-0.889,0.351-1.179,0.933l-0.645,1.478l-2.351,5.903c-0.567,1.412-0.96,1.89-1.572,1.89
		c-0.415,0-0.752-0.338-0.752-0.765c0-0.319,0.181-0.609,0.487-0.713c0.154,0.091,0.629,0.425,0.814,0.425
		c0.334,0,0.604-0.827,0.719-1.052l0.504-1.174L377.146,20.773"/>
	<path id="Fill-51_1_" fill="#FFFFFF" d="M386.538,22.373c0.125-1.665-0.308-2.353-1.513-2.353c-1.049,0-0.946,0.505-0.946,1.343
		l-0.763,0.047c-0.123,0-0.354,0.013-0.354-0.152c0-0.413,1.681-2,2.922-2c1.403,0,1.827,1.07,1.827,2.286v2.17
		c0,1.34-0.122,2.181,1.338,1.951v0.341c-0.587,0.173-1.088,0.222-1.547,0.222c-0.643,0-0.889-0.364-0.966-0.962
		c-0.487,0.551-1.156,1.04-1.94,1.04c-0.975,0-1.521-0.828-1.521-1.739c0-0.231,0.033-0.446,0.09-0.671L386.538,22.373
		L386.538,22.373z M384.479,23.73c-0.062,0.198-0.107,0.391-0.107,0.606c0,0.644,0.369,1.208,1.064,1.208
		c0.42,0,0.83-0.277,1.104-0.563v-2.304L384.479,23.73L384.479,23.73z"/>
	<path id="Fill-52_1_" fill="#FFFFFF" d="M388.342,26.151v-0.372c1.062-0.125,1.191-0.368,1.191-1.398v-6.479
		c0-0.641,0.019-0.839-0.746-1.389V16.36l1.757-0.67l0.169,0.062v8.628c0,1.25,0.061,1.373,1.192,1.542v0.229H388.342"/>
	<path id="Fill-53_1_" fill="#FFFFFF" d="M406.345,22.373c0.125-1.665-0.307-2.353-1.512-2.353c-1.053,0-0.947,0.505-0.947,1.343
		l-0.768,0.047c-0.123,0-0.351,0.013-0.351-0.152c0-0.413,1.684-2,2.922-2c1.404,0,1.835,1.07,1.835,2.286v2.17
		c0,1.34-0.156,2.271,1.323,1.951v0.341c-0.581,0.173-1.083,0.222-1.547,0.222c-0.638,0-0.879-0.364-0.958-0.962
		c-0.485,0.551-1.159,1.04-1.938,1.04c-0.98,0-1.534-0.828-1.534-1.739c0-0.231,0.035-0.446,0.097-0.671L406.345,22.373
		L406.345,22.373z M404.281,23.73c-0.062,0.198-0.104,0.391-0.104,0.606c0,0.644,0.362,1.208,1.064,1.208
		c0.412,0,0.826-0.277,1.103-0.563v-2.304L404.281,23.73L404.281,23.73z"/>
	<path id="Fill-54_1_" fill="#FFFFFF" d="M401.885,18.916h-0.229c-0.284-1.72-1.303-2.957-3.131-2.957
		c-2.799,0-4.377,2.291-4.377,4.913c0,3.003,2.312,5.092,4.525,5.092c2.002,0,2.793-1.465,3.487-3.108l0.212,0.092
		c-0.184,0.928-0.474,1.841-0.841,2.726c-0.981,0.474-2.032,0.654-3.115,0.654c-3.2,0-6.03-1.829-6.03-5.277
		c0-2.712,2.113-5.458,6.152-5.458c1.162,0,2.336,0.23,3.345,0.825L401.885,18.916"/>
	<path id="Fill-55_1_" fill="#FFFFFF" d="M442.655,22.363c0.127-1.658-0.311-2.348-1.516-2.348c-1.051,0-0.945,0.504-0.945,1.34
		l-0.762,0.047c-0.125,0-0.354,0.019-0.354-0.153c0-0.41,1.679-1.998,2.918-1.998c1.403,0,1.832,1.068,1.832,2.288v2.166
		c0,1.344-0.213,2.196,1.184,2.121v0.267c-0.582,0.169-0.938,0.127-1.396,0.127c-0.642,0-0.887-0.365-0.963-0.958
		c-0.482,0.551-1.161,1.036-1.94,1.036c-0.975,0-1.528-0.823-1.528-1.743c0-0.229,0.028-0.437,0.094-0.667L442.655,22.363
		L442.655,22.363z M440.595,23.722c-0.062,0.197-0.108,0.396-0.108,0.604c0,0.647,0.363,1.208,1.071,1.208
		c0.41,0,0.825-0.272,1.1-0.561v-2.306L440.595,23.722L440.595,23.722z"/>
	<path id="Fill-56_1_" fill="#FFFFFF" d="M410.513,24.379c0,1.25,0.062,1.372,1.528,1.538v0.231h-3.819v-0.365
		c1.026-0.087,1.099-0.338,1.113-1.527v-2.788c0-0.646,0.015-0.843-0.744-1.39v-0.155l1.813-0.67l0.17,0.062l-0.062,1.801h0.03
		c0.337-0.81,1.194-1.863,2.152-1.863c0.431,0,0.784,0.275,0.784,0.703c0,0.41-0.448,0.792-0.798,0.96
		c-0.264-0.199-0.643-0.532-0.979-0.504c-1.3,0.121-1.191,2.2-1.191,2.427L410.513,24.379"/>
	<path id="Fill-57_1_" fill="#FFFFFF" d="M413.952,26.148v-0.231c1.126-0.166,1.176-0.348,1.188-1.538v-2.913
		c0-0.641,0.019-0.841-0.93-1.388v-0.155l1.939-0.67l0.17,0.062v5.064c0,1.25,0.059,1.372,1.192,1.538v0.231H413.952L413.952,26.148
		z M416.444,16.712c0,0.427-0.355,0.78-0.782,0.78c-0.426,0-0.777-0.354-0.777-0.78c0-0.425,0.354-0.78,0.777-0.78
		C416.089,15.932,416.444,16.287,416.444,16.712L416.444,16.712z"/>
	<path id="Fill-58_1_" fill="#FFFFFF" d="M418.066,17.897c0-0.644,0.012-0.841-0.744-1.39v-0.152l1.755-0.672l0.169,0.061v4.362
		c0.749-0.408,1.684-0.853,2.55-0.853c1.698,0,2.873,1.572,2.873,3.17c0,2.703-2.491,3.88-4.172,3.88
		c-0.911,0-1.603-0.25-2.431-0.614V17.897L418.066,17.897z M419.246,23.05c0,1.42,0.154,2.776,1.924,2.776
		c0.841,0,2.197-0.673,2.197-2.789c0-1.832-1.223-3.021-2.696-3.021c-0.524,0-0.951,0.137-1.425,0.336V23.05L419.246,23.05z"/>
	<path id="Fill-59_1_" fill="#FFFFFF" d="M425.378,17.897c0-0.644,0.01-0.841-0.748-1.39v-0.152l1.756-0.672l0.168,0.061v4.362
		c0.748-0.408,1.683-0.853,2.55-0.853c1.7,0,2.875,1.572,2.875,3.17c0,2.703-2.489,3.88-4.173,3.88c-0.913,0-1.604-0.25-2.428-0.614
		V17.897L425.378,17.897z M426.554,23.05c0,1.42,0.155,2.776,1.925,2.776c0.841,0,2.203-0.673,2.203-2.789
		c0-1.832-1.225-3.021-2.706-3.021c-0.521,0-0.947,0.137-1.422,0.336V23.05L426.554,23.05z"/>
	<path id="Fill-60_1_" fill="#FFFFFF" d="M433.976,22.258c-0.118,1.588,0.968,3.067,2.689,3.067c0.801,0,1.345-0.352,1.803-0.967
		l0.229,0.172c-0.58,0.992-1.618,1.771-2.809,1.771c-1.896,0-3.21-1.56-3.21-3.385c0-1.973,1.373-3.664,3.44-3.664
		c1.375,0,2.286,0.869,2.347,2.243h-4.426L433.976,22.258L433.976,22.258z M437.018,21.085c-0.136-0.702-0.562-1.498-1.377-1.498
		c-0.867,0-1.388,0.856-1.555,1.619L437.018,21.085L437.018,21.085z"/>
	<path id="Fill-61_1_" fill="#FFFFFF" d="M445.684,21.468c0-0.646,0.017-0.843-0.751-1.39v-0.155l1.822-0.67l0.17,0.06l-0.127,1.118
		c0.878-0.644,1.712-1.178,2.688-1.178c1.84,0,1.934,1.51,1.934,2.41v2.716c0,1.25,0.055,1.372,1.189,1.538v0.231h-3.565v-0.231
		c1.133-0.166,1.183-0.348,1.196-1.538v-1.754c0-1.069,0.04-2.577-1.82-2.577c-0.626,0-1.055,0.195-1.562,0.658v3.673
		c0,1.25,0.067,1.372,1.195,1.538v0.231h-3.559l-0.004-0.28c1.095-0.089,1.177-0.299,1.191-1.489L445.684,21.468"/>
	<path id="Fill-62_1_" fill="#FFFFFF" d="M461.746,12.42c0.569,0,0.97-0.292,0.97-0.78v-0.006c0-0.46-0.354-0.74-0.965-0.74h-1.158
		v1.526H461.746L461.746,12.42z M460.164,10.499h1.622c0.464,0,0.836,0.136,1.071,0.378c0.188,0.182,0.292,0.445,0.292,0.74v0.012
		c0,0.62-0.436,0.989-1.024,1.092l1.158,1.543h-0.524l-1.093-1.463h-1.073v1.463h-0.429V10.499L460.164,10.499z"/>
	<path id="Fill-63_1_" fill="#FFFFFF" d="M458.968,12.422c0-1.39,1.133-2.519,2.523-2.519c1.395,0,2.521,1.129,2.521,2.519
		c0,1.388-1.128,2.519-2.521,2.519C460.101,14.94,458.968,13.81,458.968,12.422 M458.631,12.422c0,1.573,1.285,2.86,2.86,2.86
		c1.578,0,2.859-1.287,2.859-2.86c0-1.576-1.281-2.856-2.859-2.856C459.916,9.566,458.631,10.846,458.631,12.422"/>
	<path id="Fill-64_1_" fill="#FFFFFF" d="M325.548,49.728h4.479v-0.763h-4.479V49.728z M325.548,48.453h4.479v-0.745h-4.479V48.453z
		 M330.884,50.31h0.017c-0.168-0.05-1.215-0.076-3.133-0.076c-1.92,0-2.947,0.026-3.093,0.076c0.058-0.24,0.085-0.779,0.085-1.611
		c0-0.842-0.027-1.36-0.085-1.575c0.204,0.038,0.73,0.058,1.582,0.058c0.146-0.425,0.259-0.791,0.353-1.107l0.971,0.287
		c-0.198,0.302-0.35,0.58-0.452,0.828c0.12,0.01,0.327,0.01,0.629,0.01c1.832,0,2.873-0.024,3.129-0.074
		c-0.047,0.158-0.071,0.682-0.071,1.575c0,0.516,0.015,0.93,0.041,1.231l0.03,0.371L330.884,50.31L330.884,50.31z M331.836,53.582
		v0.758c-0.314-0.056-1.697-0.089-4.154-0.089c-2.537,0-3.926,0.025-4.154,0.082v-0.75c0.214,0.049,1.479,0.077,3.777,0.077v-0.845
		c-1.648,0-2.584,0.022-2.8,0.072v-0.76c0.097,0.038,1.03,0.064,2.8,0.077l-0.014-0.626c-2.059,0-3.186,0.025-3.368,0.081v-0.754
		c0.199,0.05,1.429,0.075,3.687,0.075c2.252,0,3.505-0.025,3.748-0.075v0.754c-0.12-0.046-1.209-0.076-3.264-0.081v0.626
		c1.799-0.011,2.758-0.039,2.875-0.077v0.764c-0.209-0.053-1.164-0.078-2.875-0.078v0.846
		C330.378,53.658,331.626,53.631,331.836,53.582L331.836,53.582z"/>
	<path id="Fill-65_1_" fill="#FFFFFF" d="M347.205,48.567h-0.879v-0.863h-6.087v0.863h-0.886c0.053-0.221,0.082-0.485,0.082-0.789
		c0-0.299-0.029-0.555-0.082-0.77c0.188,0.047,1.379,0.079,3.584,0.084c-0.027-0.3-0.121-0.583-0.276-0.836l0.972-0.186
		c0.115,0.412,0.2,0.748,0.258,1.017c2.069-0.012,3.178-0.037,3.314-0.071c-0.047,0.168-0.07,0.416-0.07,0.75
		C347.135,48.12,347.158,48.388,347.205,48.567 M347.307,53.205h0.014c-0.319,0.194-0.572,0.446-0.77,0.767
		c-0.474-0.352-0.834-0.713-1.097-1.086c-0.263-0.373-0.53-0.957-0.804-1.753c-0.221,0.127-0.45,0.248-0.699,0.378
		c0.087,0.344,0.135,0.682,0.135,1.014c0,0.354-0.048,0.718-0.135,1.094c-0.088,0.375-0.312,0.645-0.671,0.811
		c-0.363,0.162-0.728,0.271-1.099,0.336c-0.064-0.384-0.229-0.705-0.5-0.977c0.271,0.045,0.515,0.074,0.715,0.074
		c0.358,0,0.601-0.096,0.713-0.282c0.123-0.19,0.183-0.509,0.183-0.955c0-0.135-0.017-0.306-0.044-0.521
		c-0.91,0.807-2.135,1.524-3.678,2.149c-0.131-0.233-0.324-0.45-0.573-0.653c1.62-0.654,2.978-1.41,4.073-2.25
		c-0.065-0.156-0.153-0.322-0.249-0.488c-0.732,0.625-1.812,1.246-3.251,1.869c-0.129-0.242-0.295-0.473-0.493-0.682
		c1.299-0.469,2.437-1.021,3.43-1.665c-0.089-0.102-0.204-0.218-0.331-0.334c-0.611,0.351-1.48,0.728-2.604,1.125
		c-0.133-0.254-0.329-0.485-0.573-0.692c1.377-0.371,2.538-0.85,3.494-1.442c-1.121,0.011-1.743,0.039-1.854,0.078v-0.76
		c0.156,0.053,1.016,0.074,2.594,0.074c1.564,0,2.438-0.021,2.619-0.074v0.759c-0.218-0.046-0.951-0.078-2.205-0.078
		c-0.379,0.274-0.674,0.479-0.881,0.622c0.502,0.509,0.84,0.949,1.021,1.322c0.81-0.531,1.438-1.01,1.883-1.44l0.775,0.578
		l-0.473,0.185l-0.714,0.463c0.302,0.902,0.69,1.533,1.179,1.896C346.921,53.024,347.21,53.205,347.307,53.205"/>
	<path id="Fill-66_1_" fill="#FFFFFF" d="M360.376,52.521h1.578v-4.344h-1.578V52.521z M362.79,53.983h-0.836v-0.868h-1.578v1.079
		h-0.771c0.043-0.172,0.064-1.305,0.064-3.375c0-2.059-0.021-3.149-0.064-3.287c0.201,0.058,0.726,0.078,1.562,0.078
		c0.816,0,1.359-0.021,1.643-0.069c-0.066,0.261-0.094,1.328-0.094,3.2C362.719,52.681,362.74,53.758,362.79,53.983L362.79,53.983z
		 M358.938,48.106l-0.006-0.008c-0.119,3.35-0.232,5.215-0.357,5.6c-0.12,0.379-0.641,0.642-1.562,0.792
		c0-0.396-0.132-0.726-0.4-0.985c0.229,0.038,0.436,0.057,0.601,0.057c0.294,0,0.476-0.054,0.552-0.148
		c0.072-0.098,0.145-0.527,0.211-1.295c0.068-0.766,0.135-1.86,0.211-3.283h-1.11c-0.062,1.354-0.191,2.393-0.403,3.124
		c-0.207,0.735-0.707,1.673-1.5,2.819c-0.188-0.26-0.404-0.486-0.643-0.682c0.551-0.77,0.978-1.492,1.255-2.175
		c0.278-0.679,0.444-1.711,0.499-3.086h-1.408l0.01-0.735c0.18,0.043,0.647,0.068,1.42,0.078c0.021-0.55,0.023-1.154,0.023-1.808
		l0.979,0.175l-0.17,0.406l-0.021,1.227C358.105,48.176,358.721,48.156,358.938,48.106L358.938,48.106z"/>
	<path id="Fill-67_1_" fill="#FFFFFF" d="M378.191,48.282c-0.129,3.17-0.231,4.973-0.332,5.4c-0.092,0.43-0.653,0.693-1.694,0.801
		c0-0.35-0.122-0.681-0.36-1c0.235,0.025,0.438,0.043,0.6,0.043c0.354,0,0.559-0.055,0.627-0.157
		c0.064-0.106,0.13-0.522,0.195-1.257c0.068-0.733,0.137-1.783,0.205-3.15h-1.093c-0.085,1.492-0.239,2.578-0.476,3.264
		c-0.235,0.686-0.719,1.488-1.443,2.416c-0.265-0.187-0.531-0.351-0.809-0.492c0.606-0.592,1.094-1.233,1.44-1.933
		c0.354-0.688,0.558-1.772,0.604-3.254h-1.238v-0.681c0.135,0.033,0.553,0.056,1.26,0.07c0.004-0.375,0.008-1.137,0.008-2.283
		l0.865,0.066l-0.156,0.445c-0.008,0.646-0.024,1.238-0.058,1.777C377.425,48.353,378.039,48.327,378.191,48.282L378.191,48.282z
		 M372.713,51.292h0.934v-1.09h-0.934V51.292z M371.736,48.563h1.402v-0.74h-1.402V48.563z M371.159,51.292h0.881v-1.09h-0.881
		V51.292z M374.698,47.89c-0.097-0.027-0.408-0.048-0.944-0.066v1.289l-0.611-0.07h-0.43v0.646c0.829,0,1.363-0.022,1.605-0.062
		c-0.039,0.17-0.062,0.539-0.062,1.09c0,0.57,0.021,0.952,0.062,1.157c-0.235-0.042-0.776-0.072-1.619-0.072v0.614
		c0.99-0.012,1.559-0.035,1.697-0.075v0.75c-0.209-0.046-0.77-0.071-1.686-0.071c0.01,0.963,0.025,1.502,0.049,1.625l-0.777,0.016
		c0.024-0.139,0.048-0.688,0.057-1.646c-1.168,0.006-1.825,0.037-1.964,0.078v-0.75c0.203,0.049,0.86,0.075,1.969,0.075l0.009-0.614
		c-0.793,0-1.32,0.024-1.589,0.064c0.056-0.219,0.087-0.605,0.087-1.149c0-0.571-0.029-0.94-0.08-1.104
		c0.193,0.054,0.709,0.078,1.568,0.078v-0.646h-0.307l-0.559,0.07v-1.289c-0.535,0.009-0.886,0.029-1.048,0.066v-0.758
		c0.131,0.028,0.479,0.045,1.031,0.045c-0.005-0.628-0.026-0.994-0.056-1.1l0.818,0.068c-0.125,0.08-0.188,0.25-0.188,0.513V47.2
		c0.521,0.013,0.992,0.008,1.404-0.01c-0.009-0.604-0.02-0.974-0.041-1.109l0.829,0.068c-0.106,0.067-0.17,0.24-0.177,0.513
		l-0.003,0.528c0.517-0.01,0.83-0.029,0.946-0.056v0.757L374.698,47.89L374.698,47.89z"/>
	<path id="Fill-68_1_" fill="#FFFFFF" d="M393.616,52.933h0.005c-0.197,0.56-0.391,0.959-0.579,1.197
		c-0.194,0.24-0.335,0.36-0.412,0.36h-1.851c-0.749,0-1.119-0.36-1.119-1.083v-6.956l0.861,0.095c0.015,0.023,0,0.085-0.041,0.188
		l-0.062,0.146l-0.01,2.81c0.744-0.429,1.422-0.892,2.044-1.391l0.764,0.751l-0.515,0.11c-0.442,0.311-1.198,0.749-2.283,1.301
		v2.872c0,0.285,0.182,0.431,0.546,0.433l1.42,0.008c0.146-0.07,0.28-0.547,0.429-1.429c0.148,0.154,0.317,0.29,0.5,0.411
		C393.499,52.874,393.598,52.933,393.616,52.933 M388.869,52.92c-0.967,0.58-1.829,1.157-2.609,1.733l-0.584-0.762
		c0.26-0.227,0.391-0.389,0.391-0.5v-6.68l0.963,0.098c0,0.101-0.065,0.221-0.194,0.348v2.098c1.11,0,1.763-0.027,1.968-0.08
		l-0.012,0.807c-0.227-0.041-0.876-0.062-1.956-0.062l0.011,3.402c0.682-0.41,1.295-0.799,1.84-1.165L388.869,52.92"/>
	<path id="Fill-69_1_" fill="#FFFFFF" d="M407.076,51.362l-0.701,0.412c-0.115-0.322-0.312-0.611-0.581-0.871l0.693-0.293
		C406.745,50.959,406.938,51.21,407.076,51.362L407.076,51.362z M407.555,52.604h-0.011c-0.201-0.047-1.014-0.071-2.438-0.071
		c-1.464,0-2.26,0.024-2.39,0.071l0.007-0.75c0.205,0.041,0.871,0.062,1.999,0.062v-1.505c-0.955,0.014-1.504,0.043-1.641,0.084
		v-0.749c0.137,0.04,0.686,0.068,1.641,0.075v-1.125c-1.022,0-1.627,0.028-1.813,0.079v-0.772c0.153,0.058,0.884,0.083,2.212,0.083
		c1.325,0,2.072-0.025,2.237-0.083v0.772c-0.217-0.051-0.854-0.079-1.915-0.079l-0.014,1.125c0.993-0.011,1.563-0.035,1.719-0.071
		v0.74c-0.139-0.047-0.707-0.073-1.705-0.08l-0.014,1.505c1.146,0,1.851-0.021,2.124-0.063L407.555,52.604L407.555,52.604z
		 M402.204,53.507h5.808v-6.371h-5.808V53.507z M408.89,54.66h-0.878v-0.479h-5.802v0.479h-0.879
		c0.054-0.251,0.084-1.628,0.084-4.13c0-2.498-0.03-3.867-0.084-4.096c0.242,0.051,1.502,0.076,3.779,0.076
		c2.359,0,3.618-0.021,3.777-0.068c-0.054,0.219-0.085,1.582-0.085,4.088C408.805,53.032,408.836,54.408,408.89,54.66L408.89,54.66z
		"/>
	<path id="Fill-70_1_" fill="#FFFFFF" d="M424.662,53.032c-0.386,0.119-0.673,0.271-0.864,0.471
		c-0.219-0.505-0.668-1.369-1.351-2.604l0.688-0.364C423.706,51.415,424.21,52.248,424.662,53.032L424.662,53.032z M423.798,47.603
		c-0.181-0.052-0.821-0.08-1.914-0.08c-1.088,0-1.714,0.028-1.867,0.08v-0.767c0.153,0.05,0.781,0.073,1.878,0.073
		c1.091,0,1.725-0.023,1.903-0.073V47.603L423.798,47.603z M424.27,49.627c-0.227-0.053-0.933-0.073-2.108-0.073l0.005,4.233
		c-0.092,0.489-0.619,0.785-1.577,0.882c-0.121-0.33-0.25-0.627-0.385-0.882c0.17,0.015,0.32,0.022,0.457,0.022
		c0.471,0,0.704-0.067,0.704-0.192v-4.063c-1.124,0-1.808,0.021-2.038,0.073l0.008-0.758c0.215,0.051,1.039,0.073,2.468,0.073
		c1.43,0,2.249-0.022,2.471-0.073v0.758H424.27z M420.888,50.78l-0.289,0.408c-0.321,0.852-0.707,1.66-1.161,2.43
		c-0.274-0.146-0.562-0.245-0.87-0.292c0.686-1.073,1.171-2.017,1.449-2.83L420.888,50.78L420.888,50.78z M419.553,46.551
		l-1.093,2.901c0.282,0.408,0.482,0.729,0.596,0.967c0.11,0.246,0.167,0.475,0.167,0.696c0,0.475-0.089,0.809-0.273,1.014
		c-0.186,0.203-0.544,0.38-1.076,0.522c-0.12-0.324-0.275-0.625-0.467-0.893c0.255,0,0.46-0.01,0.62-0.04
		c0.161-0.028,0.269-0.069,0.325-0.112c0.061-0.055,0.086-0.146,0.086-0.276c0-0.531-0.213-1.122-0.637-1.772l0.767-2.318h-1.236
		v7.25h-0.812c0.059-0.154,0.079-1.485,0.079-3.993c0-2.466-0.021-3.779-0.063-3.946c0.215,0.053,0.711,0.081,1.479,0.081
		C418.792,46.632,419.303,46.604,419.553,46.551L419.553,46.551z"/>
	<path id="Fill-71_1_" fill="#FFFFFF" d="M440.391,51.84h0.006c-0.202-0.056-0.729-0.083-1.562-0.083v2.137
		c-0.093,0.487-0.507,0.785-1.225,0.881c-0.08-0.355-0.185-0.623-0.306-0.803c0.121,0.014,0.23,0.019,0.327,0.019
		c0.369,0,0.553-0.065,0.553-0.201v-2.031c-0.798,0-1.283,0.028-1.46,0.083l0.014-0.758c0.189,0.041,0.677,0.066,1.446,0.066v-0.731
		l0.86-0.808h-1.55v-0.639c0.207,0.049,0.605,0.075,1.189,0.075c0.582,0,0.999-0.024,1.239-0.075l0.067,0.646
		c-0.204,0.114-0.595,0.413-1.16,0.879v0.653c0.8,0,1.312-0.026,1.557-0.067v0.758L440.391,51.84L440.391,51.84z M440.289,48.192
		c-0.188-0.047-1.001-0.072-2.439-0.084c-0.283,0.668-0.57,1.209-0.86,1.629c-0.186-0.202-0.374-0.356-0.582-0.465
		c0.639-0.782,1.099-1.85,1.383-3.185l0.866,0.185l-0.553,1.274c1.34-0.007,2.065-0.032,2.188-0.075L440.289,48.192L440.289,48.192z
		 M435.866,47.417l-0.713,0.182c-0.113-0.426-0.264-0.838-0.455-1.236l0.66-0.211C435.537,46.513,435.709,46.938,435.866,47.417
		L435.866,47.417z M436.724,47.718v0.771c-0.229-0.059-0.758-0.086-1.573-0.086h-0.092c-0.007,0.314-0.021,0.695-0.047,1.142h1.42
		c-0.068,2.552-0.134,3.974-0.167,4.271c-0.04,0.291-0.403,0.518-1.091,0.676c-0.049-0.309-0.181-0.6-0.396-0.881
		c0.222,0.035,0.398,0.061,0.539,0.061c0.145,0,0.229-0.023,0.259-0.066c0.031-0.043,0.062-0.304,0.097-0.771
		c0.038-0.471,0.063-1.374,0.082-2.701l-0.76,0.012c-0.075,0.98-0.188,1.727-0.325,2.241c-0.14,0.515-0.457,1.214-0.949,2.099
		c-0.181-0.142-0.408-0.27-0.685-0.398c0.6-1.035,0.97-1.886,1.11-2.557c0.14-0.67,0.213-1.711,0.222-3.123
		c-0.379,0.021-0.624,0.039-0.756,0.062v-0.76c0.257,0.062,0.771,0.088,1.538,0.088C435.966,47.794,436.493,47.767,436.724,47.718
		L436.724,47.718z M433.724,47.458l-0.464,0.545c-0.367-0.343-0.791-0.669-1.269-0.98l0.588-0.592
		C433.026,46.767,433.411,47.104,433.724,47.458L433.724,47.458z M433.615,49.634l-0.579,0.635c-0.318-0.34-0.73-0.675-1.229-0.998
		l0.465-0.574C432.791,49.017,433.236,49.327,433.615,49.634L433.615,49.634z M433.43,51.302l-0.872,3.264l-0.761-0.479
		c0.398-1.103,0.712-2.164,0.947-3.183L433.43,51.302L433.43,51.302z"/>
	<path id="Fill-72_1_" fill="#FFFFFF" d="M454.677,52.627c-0.047,0.806-0.167,1.229-0.358,1.28h-1.208
		c-0.255,0-0.388-0.131-0.388-0.397l-0.01-1.399c0.749-0.355,1.571-0.7,2.471-1.033l-0.69-0.768
		c-0.394,0.357-0.987,0.737-1.778,1.143v-1.719l0.115-0.27c0-0.042-0.28-0.082-0.854-0.128v4.093c0,0.747,0.407,1.123,1.218,1.123
		l1.483,0.01c0.102,0,0.233-0.1,0.407-0.308c0.172-0.198,0.33-0.55,0.472-1.048v0.012C455.11,53.013,454.818,52.815,454.677,52.627
		 M453.389,46.688l0.325-0.248l-1.095-0.295c-0.205,1.211-1.006,2.351-2.402,3.408c0.325,0.12,0.584,0.273,0.771,0.465
		c0.896-0.72,1.588-1.619,2.071-2.703c0.562,1.121,1.304,2.025,2.192,2.703c0.127-0.146,0.388-0.375,0.783-0.688
		C454.942,48.747,454.062,47.866,453.389,46.688 M449.816,51.964l0.012-1.07c0.363-0.014,0.749-0.014,1.158,0v-0.586h-1.158V49.26
		l0.109-0.284c0-0.035-0.302-0.078-0.903-0.125c0.031,0.108,0.05,0.597,0.071,1.467h-0.831c0.264-0.715,0.556-1.457,0.883-2.226
		h0.066c1.125,0,1.812,0.028,2.062,0.078v-0.774c-0.231,0.055-0.849,0.084-1.863,0.084c0.205-0.457,0.396-0.828,0.582-1.125
		l-0.938-0.399l-0.52,1.508c-0.699,0-1.145-0.017-1.333-0.067v0.764c0.118-0.03,0.48-0.051,1.095-0.066
		c-0.549,1.479-0.909,2.215-1.095,2.215l0.186,0.771c0.437-0.085,1.003-0.148,1.705-0.174v1.179c-0.668,0.108-1.326,0.2-1.985,0.257
		l0.28,0.866c0.389-0.092,0.959-0.22,1.717-0.374c-0.023,1.102-0.05,1.707-0.083,1.814h0.794V52.69l1.458-0.256v-0.787
		C450.612,51.808,450.127,51.911,449.816,51.964"/>
</g>
<g>
	<rect x="180" y="8.778" fill="#FFFFFF" width="123.97" height="45.999"/>
	<g>
		<polygon fill="#231815" points="222.214,42.423 296.758,42.423 296.758,43.209 290.928,43.204 290.928,44.026 228.04,44.026 
			228.04,43.125 222.214,43.125 		"/>
		<path fill="#F9BE00" d="M204.914,19.16c-0.713-0.045-1.596-0.253-2.869,0.051c-1.16,0.28-0.898,0.8-0.995,1.272
			c-0.099,0.46-0.32,2.505-0.19,2.835c0.117,0.316,1.555,1.107,2.477,1.442c0.896,0.336,1.6,0.571,2.517,0.474
			c0.841-0.085,1.816-0.833,2.019-0.926c0.19-0.102,0.736-0.335,0.736-0.335c-0.158-0.855-0.079-2.946-0.079-2.946
			c-0.51-1.311-1.726-1.875-1.903-1.873C206.459,19.156,205.63,19.204,204.914,19.16L204.914,19.16z M203.578,19.501
			c0.486,0.035,0.576,0.097,0.973,0.261c0.396,0.148,1.065,0.626,0.715,1.459c-0.349,0.845-1.299,1.479-1.657,1.546
			c-0.368,0.068-0.989,0.354-1.604,0.244c-0.318-0.046-0.488-0.351-0.447-1.322c0.031-0.97,0.139-1.748,0.494-1.968
			C202.404,19.489,203.066,19.469,203.578,19.501z"/>
		<path fill="#009844" d="M196.171,48.235c0,0,0.27,0.113,0.462,0.021c0.201-0.091,0.724-0.21,0.965-0.365
			c0.24-0.144,1.105-0.445,1.398-0.551c0.292-0.117,1.335-0.343,1.486-0.408c0.154-0.064,0.281-0.156,0.381-0.158
			c0.104,0,0.484-0.043,0.396-0.184c-0.104-0.125-0.64,0.033-0.854,0.024c-0.217-0.011-1.619,0.243-2.356,0.569
			c-0.737,0.324-1.229,0.649-1.471,0.767C196.322,48.067,196.171,48.235,196.171,48.235L196.171,48.235z M217.298,44.36
			c0,0,0.04,0.18-0.139,0.22c-0.317,0.08-0.45-0.147-0.677-0.172c-0.244-0.023-0.484,0.016-0.652-0.071
			c-0.166-0.102-0.217-0.125-0.6-0.121c-0.385-0.009-1.785-0.009-1.699-0.252c0.072-0.242,0.15-0.283,0.276-0.296
			c0.382-0.056,1.431,0.011,1.214-0.037c0.357,0.073,0.319,0.099,0.678,0.185c0.354,0.086,0.624,0.135,0.775,0.185
			c0.168,0.062,0.426,0.226,0.554,0.313C217.146,44.388,217.298,44.36,217.298,44.36L217.298,44.36z M215.415,39.672
			c0,0-0.06,0.308-0.251,0.22c-0.181-0.076-1.012-0.334-2.199-0.49c-1.188-0.155-2.219,0.098-2.706-0.062
			c-0.487-0.163-0.551-0.341-0.144-0.433c0.571-0.121,2.307-0.125,2.779-0.026C213.355,38.978,215.415,39.672,215.415,39.672
			L215.415,39.672z M190.939,42.634c0.57-0.324,0.914-0.441,1.205-0.611c0.293-0.182,0.468-0.5,0.619-0.541
			c0.14-0.026,0.525,0.123,0.78,0.031c0.267-0.106,0.597-0.402,0.774-0.441c0.179-0.027,0.992-0.277,1.311-0.307
			c0.815-0.084,0.813-0.277,1.106-0.291c0.536-0.043,0.444-0.158,1.044-0.38c1.537-0.616,11.207-3.257,18.396-0.812
			c0.295,0.099,0.666,0.096,0.998,0.193c0.348,0.1,0.399,0.148,0.413,0.315c0.013,0.166-0.097,0.601-0.036,0.638
			c0.078,0.051,0.092,0.254,0.324,0.252c0,0-0.048,0.191-0.062,0.295c0.002,0.088-0.072,0.242-0.069,0.512l0.165,0.037
			c0,0,0.244,0.187,0.436,0.236c0,0-0.269,0.002-0.12,0.715c0.079,0.42-0.096,0.729-0.233,0.91c-0.126,0.18,0.015,0.278,0.246,0.303
			c0.381,0.047,0.217,0.111,0.343,0.211c0,0-0.713,0.008-1.03-0.002c-0.204-0.01-0.174,0.461-0.084,0.705
			c0.118,0.278,0.809,0.426,1.541,0.764c0.844,0.387,1.037,0.601,1.883,1.015c0,0-9.068-2.771-17.723-0.407
			c0,0-1.466,0.18-1.525,0.704c0,0,0.869-0.071,1.148,0.078c0,0-2.099,0.479-3.752,1.209c-1.638,0.729-2.46,1.272-4.275,2.362
			c-1.94,1.167-2.396,1.236-2.693,1.212c-0.291-0.036-0.255-0.188-0.361-0.457c-0.092-0.252-0.449-0.529-0.682-0.616
			c-0.217-0.074-0.611-0.085-0.766-0.146c-0.166-0.062-0.588-0.008-0.781-0.211c-0.193-0.188-0.201-1.119-0.14-1.26
			c0.063-0.152,0.118-1.061-0.073-1.236c-0.195-0.176-0.561,0.093-0.883-0.057c-0.32-0.16-0.412-0.531-0.506-1.039
			c-0.107-0.523-0.635-0.865-0.662-1.207c-0.031-0.574,0.26-0.756,0.551-0.963C188.07,44.128,190.369,42.97,190.939,42.634z"/>
		<path fill="#E50012" d="M195.523,24.273c-1.426,0.27-3.002,0.795-3.814,1.261c-0.826,0.467-2.399,1.235-2.743,1.48
			c-0.341,0.246-0.222,0.627-0.374,0.82c-0.15,0.205-0.302,0.361-0.301,0.502c0,0.151,1.079,2.183,1.079,2.183
			c0.063,0.1,0.066,0.177-0.021,0.306c-0.089,0.117-0.089,0.192-0.151,0.397c-0.074,0.205-0.209,0.588-0.131,0.728
			c0.09,0.153,0.203,0.125,0.166,0.292c-0.023,0.165,0.016,0.294,0.016,0.294s1.942-1.052,2.477-1.352
			c0.546-0.31,1.928-1.012,2.225-0.849c0.268,0.15-0.057,0.92-0.057,0.92c0.762-0.351,1.002-0.445,2.522-0.344
			c1.532,0.113,2.173,0.172,2.284,0.093c0.114-0.077,0.266-0.346,0.393-0.348c0.115-0.001,0.256,0.124,0.348,0.124
			c0.089-0.001,1.668-1.636,2.175-3.196c0.533-1.625,0.501-2.315-0.036-2.59c-0.477-0.25-1.217-0.385-1.578-0.623
			C199.488,24.044,196.951,23.993,195.523,24.273L195.523,24.273z M209.121,25.701c0,0-0.053,0.905-0.024,1.275
			c0.028,0.371-0.021,1.825-0.04,2.501c-0.031,0.664-0.324,2.146-0.578,2.353c-0.24,0.18-0.869,0.925-0.959,1.169
			c-0.084,0.256-0.174,0.359-0.34,0.438c-0.151,0.063-0.633,0.401-1.219,0.61c-0.598,0.198-0.76,0.53-1.652,0.679
			c-0.877,0.149-1.967-0.351-2.365-0.5c-0.396-0.162-0.764-0.082-0.764-0.082s1.188-1.109,0.992-1.54
			c-0.209-0.433,0.072-0.702,0.17-1.062c0.098-0.357-0.187-0.828-0.433-1.182c-0.235-0.355-0.363-0.543-0.149-0.801
			c0.215-0.256,0.604-0.962,0.604-1.129c-0.001-0.177,0.453-0.667,0.679-0.963c0.239-0.295,0.568-0.478,0.876-0.531
			c0.316-0.067,1.146-0.15,1.908-0.463C206.499,26.21,207.145,25.733,209.121,25.701L209.121,25.701z M209.602,19.65
			c0,0,1.947-0.363,2.291-0.481c0.33-0.119,1.426-0.23,2.322,0.08c0.691,0.236,0.866,1.05,0.868,1.292
			c0.001,0.242,0.034,1.123,0.074,1.339c0.04,0.23,0.049,0.956,0.081,1.53c0.017,0.575-0.097,1.926-0.008,2.296
			c0.109,0.355,0.57,0.875,0.626,1.079c0.053,0.217,0.003,0.42-0.341,0.399c-0.344-0.009-0.949-0.349-1.268-0.269
			c-0.329,0.066-0.732,0.707-1.023,0.953c-0.291,0.258-0.988,0.737-1.328,0.997c-0.267,0.193-0.533,0.4-0.736,0.452
			c-0.203,0.052-0.474,0.069-0.693-0.389c-0.224-0.469-0.251-0.979-0.229-1.235c0.012-0.254-0.07-0.74-0.07-0.74
			s0.244,0.037,0.332,0.023c0.078-0.026,0.138-0.307-0.007-0.815c-0.157-0.521-0.44-0.952-0.405-2.433
			c0.039-1.479,0.268-2.644,0.086-3.049c-0.17-0.407-0.478-0.531-0.543-0.721c-0.078-0.204-0.039-0.115-0.078-0.204
			C209.512,19.663,209.602,19.65,209.602,19.65L209.602,19.65z M206.809,11.806c-1.006,0.048-2.617,0.956-3.725,2.663
			c-0.994,1.49-0.584,1.739-0.312,2.055c0.27,0.318,1.425,1.06,1.681,1.25c0.26,0.188,1.102,0.257,1.102,0.257
			c-0.029-0.345-0.386-0.392-0.285-0.622c0.084-0.245,1.309-0.421,1.703-0.284c0.834,0.26,1.724,1.311,1.893,1.462
			c0.18,0.163,0.551,0.441,0.973,0.462c0.434,0.033,0.918-0.048,1.307-0.753c0.262-0.474,0.754-1.181,0.877-1.616
			c0.123-0.448,0.22-1.138,0.213-1.735c-0.008-0.601,0.021-1.851-0.031-2.042c-0.055-0.191-0.665-0.248-1.112-0.307
			c-0.448-0.061-1.675-0.354-2.251-0.464C208.266,12.021,207.817,11.746,206.809,11.806L206.809,11.806z M196.906,12.69
			c0.188-0.04,0.103,0.011,0.295-0.015c0.265-0.042,0.414-0.31,0.53-0.528c0.111-0.204,0.378-0.463,0.825-0.352
			c0.447,0.096,0.512,0.136,1.061,0.22c0.537,0.096,1.234-0.32,1.772-0.184c1.29,0.333,1.235,1.149,1.239,1.686
			c0.005,0.548-0.586,1.166-1.723,2.798c-1.749,2.528-1.879,4.583-1.559,5.09c0.326,0.521,0.419,0.978,0.293,1.095
			c-0.127,0.102-0.242,0.103-0.343,0.218c-0.089,0.119-0.242,0.092-0.394,0.158c-0.332,0.158-0.839,0.353-1.693,0.247
			c-0.884-0.107-1.497-0.356-1.704-0.572c-0.926-0.96-1.308-2.309-1.509-3.29c-0.215-0.979,0.029-2.309,0.212-3.179
			c0.194-0.855,0.365-2.822,1.274-4.03c0.189-0.27,0.584-0.285,0.674-0.184c0,0-0.046,0.435,0.045,0.674
			c0.079,0.243,0.219,0.166,0.221,0.279c0.002,0.103,0.103,0.127,0.242,0.061C196.744,12.844,196.703,12.729,196.906,12.69z"/>
		<path fill="#231815" d="M236.217,15.402c0,0,2.586-0.774,6.307,0.51c0,0,1.242,0.554,2.03,1.474c0,0,0.337,1.271,0.071,1.533
			c0,0,0.162,0.789-2.669,0.744c0,0-1.84,0.337-2.101,0.599c-0.519,0.21-0.801,0.342-1.141,0.454c0,0,0.262,0.261,2.814-0.263
			c0,0,2.791-0.613,4.895-0.482c0,0,2.189,0.03,2.843,0.817c0.251,0.721,0.9,2.144,1.009,2.232c0.016-0.043-2.908,0.236-4.116-0.349
			c0,0,0.014-0.41,0.279-0.627c0,0,0.245-0.468-1.854-0.219c0,0-4.993,0.466-7.622,1.254c0.225,0-2.883,0.79-3.021,1.184
			c0,0,2.512,0.028,4.219,1.343c0,0,1.286,0.438,0.116,3.912c-0.001-0.005-0.45,1.521-1.634,3.416c0,0-1.387,1.971-1.518,2.365
			c0,0-1.957-0.481-4.85,2.409c-0.744-0.373-1.16-0.076-1.691,0.376c0.855-0.972,2.276-2.597,2.276-3.063
			c0-0.377-0.886,0.861-1.444,1.211c0.141-0.054,1.367-1.67,1.637-2.379c0,0,1.752-2.89,1.487-7.225c0,0,0.218-0.395-0.7-1.446
			c-0.104-0.068,0.072-0.219,0.467-0.394c0,0-0.088-0.308-1.516,0.132c0,0-0.701,0.51-2.148-0.147c0,0,0.103-0.277,0.51-0.51
			c-0.074,0.052,2.14-1.118,3.957-1.752c1.734-0.604,1.998-0.789,3.898-1.225c0.117,0.118,0.662-1.96-1.355-0.877
			c-0.249,0.135-0.527,0.375-0.922,0.541c0.023,0.017,0.535-0.334,0.951-0.813c0.444-0.514,0.999-0.874,1.298-1.056
			c0,0,0.013-2.834-1.753-3.591L236.217,15.402L236.217,15.402z M273.636,37.122c-0.433-0.404-0.901-1.159-1.011-1.727
			c-0.16-0.84-0.072-1.092,0.302-1.092c0.515,0,0.976,1.109,0.976,1.109s0.927,0.492,0.883,0.743
			C274.691,36.699,273.749,37.128,273.636,37.122L273.636,37.122z M281.659,25.528c0,0-1.021-0.204-1.652-0.413
			c-0.626-0.21-3.878,0.246-6.104,2.896c-1.6,1.908-0.558,3.558,0.486,4.254c1.047,0.696,3.115,1.278,3.881,0.995
			c0.763-0.276,2.344-2.645,2.718-4.108C281.352,27.689,281.659,25.528,281.659,25.528L281.659,25.528z M273.527,13.695
			c-0.758,5.105-3.046,7.833-3.046,7.833s1.046-1.206,1.274-1.344c0.174-0.107,0.344,0.138,0.305,0.341
			c-0.029,0.199-0.119,0.409-0.119,0.409s0.821-0.936,1.117-0.942c0.495-0.011,0.406,0.402,0.939,0.418
			c0.906,0.037,1.602-1.414,1.602-1.414l1.014,0.126c1.146-2.393,3.574-2.7,3.574-2.7c-0.478,3.559-5.699,5.28-5.699,5.28
			s-0.736-0.422-0.969-0.338c-0.241,0.079-0.396,0.415-0.443,0.604c-0.051,0.188-0.674,1.513-0.877,1.95
			c-0.211,0.436-0.814,2.379-0.936,2.878c-0.118,0.492-0.738,4.527-0.834,5.866c-0.102,1.337-0.07,5.985,1.459,7.455
			c1.529,1.471,3.207,0.901,4.407-0.091c1.199-0.988,2.1-2.039,2.1-2.039s1.591,0.51,3.507,0.029c1.924-0.479,3.75-1.408,4.68-1.74
			c0.932-0.329,2.285-0.27,2.999-1.049c0.558-0.61,0.343-1.367,0.121-1.779c-0.757-1.412,0.274-1.386,0.274-1.386
			c-1.799,0.096-1.763-0.168-1.323-0.378c0.376-0.179,1.054-0.305,1.054-0.305s0.563-0.115,0.457-0.436
			c-0.09-0.266-0.398-0.488-0.056-0.765c0.241-0.197,1.087-0.532,1.087-0.532c-2.641,0.017-4.205,0.551-5.523,1.042
			c-1.321,0.498-2.507,1.356-3.238,1.758c-0.899,0.492-1.67,0.312-1.67,0.312c0.62-1.24,0.931-3.401,0.931-3.401
			s-0.481-1.498,0.052-2.789c0.516-1.288,0.786-3.046,0.477-3.436c-0.32-0.392-0.528-0.553-2.898-0.15
			c-2.369,0.407-3.807,1.716-4.617,2.345c-1.499,1.158-2.562,4.021-2.562,4.021c0.24-5.01,2.292-6.798,2.292-6.798
			s3.262-0.754,3.797-0.945c3.111-1.141,4.258-2.414,4.258-2.414l-0.021-1.499c-1.106-0.466-1.301-1.828-1.301-1.828
			s0.413-0.175,0.637-0.277c0.222-0.107,0.493-0.244,0.582-0.094c0.09,0.143,0,0.22,0.15,0.28c0.154,0.054,0.834-0.089,1.104-0.203
			c0.27-0.108,0.856-0.216,0.856-0.216c-0.562-0.6-0.815-1.078-0.815-1.078c-0.947,0.347-1.739,0.388-2.26,0.49
			c-0.518,0.108-1.484,0.498-2.119,0.857c-0.643,0.361-1.822,1.211-2.215,1.158c-0.269-0.042-0.197-0.268,0.085-0.492
			c0.278-0.214,0.428-0.305,0.578-0.688c0.15-0.378,1.558-1.608,1.732-2.016c0.167-0.415,0.181-0.94,0.181-0.94
			c-1.121-0.871-2.892-0.854-3.895-0.901c-0.996-0.048-2.512,0.025-2.512,0.025S273.791,11.908,273.527,13.695L273.527,13.695z
			 M266.533,21.336c2.271,1.391,1.438,4.87,0.981,6.052c-0.45,1.181-1.114,2.297-1.634,2.47c-0.514,0.167-1.478-0.132-1.478-0.132
			s0.364,0.282-0.193,1.698c-0.966,2.452-0.149,3.282-0.149,3.282s1.029-0.217,1.307-0.283c0.283-0.066,1.633-1.582,2.063-2.141
			c0.429-0.559,0.708-1.524,0.966-2.68c0.337-1.501,0.771-4.115,0.492-6.377c-0.108-0.864-0.318-1.396-0.318-1.396
			s-0.143,0.101-0.51-0.097C267.509,21.438,266.533,21.336,266.533,21.336L266.533,21.336z M263.232,13.701
			c0,0,0.312-0.013,1.091-0.247c0.822-0.239,1.952-0.27,2.413,0.03c0.455,0.3,1.361,1.974,1.572,2.838
			c0.298,1.217-0.078,1.614-0.078,1.614s1.617-0.319,1.952-0.319c0.343,0,1.221,0.36,1.221,0.515c0,0.163,0,0.504-0.481,0.683
			c-0.479,0.182-1.337-0.059-1.755-0.082c-0.417-0.019-0.718,0-0.858,0.239c-0.139,0.241-0.078,0.762-0.139,0.943
			c-0.123,0.376-0.381,0.395-0.381,0.395s-0.076-0.678-0.196-0.977c-0.12-0.3-0.479-0.157-0.658,0
			c-0.181,0.161-0.538,0.917-0.84,1.235c-0.524,0.558-1.682,1.829-2.729,5.229c-1.68,5.383-1.404,12.015-1.404,12.015
			s-0.768-0.678-0.768-0.959c0-0.726,0.096-5.958,0.947-10.34c0.642-3.311,2.562-5.938,2.562-5.938s-2.028,1.014-2.455,1.368
			c-0.426,0.36-0.993,0.919-1.256,1.049c-0.26,0.126-0.458-0.083-0.705-0.017c-0.244,0.066-0.959,0.097-0.959,0.097
			s0.57-0.439,1.223-0.96c1.297-1.039,6.388-3.744,6.388-3.744s-0.047-0.078-0.587-0.977c-0.539-0.9-1.912-3.017-2.649-3.497
			C263.604,13.827,263.232,13.701,263.232,13.701L263.232,13.701z M251.408,25.091c0,0-0.688,0.389-0.916,0.479
			c-0.22,0.091-0.586,0.557-0.526,0.829c0.06,0.275,0.394,0.406,0.845,0.725c0.45,0.314,1.356,0.869,1.356,0.869
			s0.293,0.349,1.206-1.288c0.84-1.523,1.199-1.656,1.35-1.565c0.15,0.09,0.227,0.21,0.227,0.21c-0.78,0.57-1.066,1.788-1.245,2.435
			c-0.181,0.647-0.835,2.74-0.468,3.749c0.254,0.688,0.795,0.829,1.126,1.085c0.329,0.252,1.294,0.84,1.477,1.464
			c0.18,0.635-0.472,0.738-0.472,0.738s0.597-0.133,0.851,0.106c0.243,0.235,0.363,0.361,0.513,0.421
			c0.149,0.061,0.357,0.271,0.9,0.307c0.537,0.035,0.384-0.453,0.384-0.608c0-0.149-0.355-1.323-1.536-2.176
			c-1.078-0.78-1.961-0.852-2.256-1.08c-0.424-0.335-0.689-1.356-0.549-2.37c0.133-1.008,0.495-2.495,0.887-2.886
			c0.395-0.394,1.018-1.324,1.396-1.683c0.457-0.44,0.653-0.35,0.653-0.35s-0.091-0.107-0.118-0.28
			c-0.031-0.146-0.064-0.168-0.091-0.27c-0.023-0.097,0.013-0.205,0.013-0.205s-1.261,0.03-1.447,0.083
			c-0.193,0.056-0.178,0.115-0.402,0.168c-0.227,0.055-0.533,0.246-0.801,0.504c-0.273,0.252-0.521,0.815-1.531,1.146
			C250.505,26.212,251.408,25.091,251.408,25.091L251.408,25.091z M253.373,19.189c0,0,1.547,0.685,1.408,2.441
			c-0.04,0.642-0.67,0.814-1.098,1.067c-0.421,0.258-0.809,0.3-1.385,1.746c0,0-0.043-0.302-0.193-0.65
			c-0.148-0.346-0.197-1.635-0.018-2.343c0.188-0.709,0.606-1.834,0.05-2.322L253.373,19.189z"/>
		<path fill="#231815" d="M294.65,11.729c1.16,0,2.107,0.946,2.107,2.107c0,1.16-0.947,2.108-2.107,2.108
			c-1.162,0-2.107-0.948-2.107-2.108C292.543,12.675,293.488,11.729,294.65,11.729L294.65,11.729z M294.65,12.089
			c-0.963,0-1.75,0.784-1.75,1.748c0,0.962,0.787,1.746,1.75,1.746c0.961,0,1.748-0.784,1.748-1.746
			C296.398,12.874,295.611,12.089,294.65,12.089L294.65,12.089z M293.774,14.984h0.47v-0.897h0.496c0.168,0,0.273,0.032,0.322,0.098
			c0.033,0.048,0.052,0.161,0.052,0.334c0,0.119,0.003,0.211,0.011,0.275c0.01,0.065,0.021,0.128,0.041,0.19h0.529v-0.061
			c-0.049-0.019-0.08-0.053-0.087-0.105c-0.012-0.054-0.015-0.171-0.015-0.353c0-0.199-0.025-0.34-0.073-0.42
			c-0.038-0.059-0.111-0.111-0.22-0.16c0.11-0.039,0.2-0.107,0.262-0.208c0.062-0.098,0.093-0.212,0.093-0.34
			c0-0.208-0.073-0.375-0.227-0.498c-0.12-0.101-0.284-0.149-0.495-0.149h-1.159V14.984L293.774,14.984z M294.244,13.699h0.561
			c0.129,0,0.224-0.023,0.282-0.072c0.06-0.047,0.09-0.127,0.09-0.241c0-0.079-0.021-0.144-0.06-0.194
			c-0.058-0.07-0.148-0.106-0.276-0.106h-0.597V13.699L294.244,13.699z"/>
		<path fill="#E50012" d="M232.241,48.438c-0.18-0.168-0.362-0.295-0.548-0.377c-0.184-0.086-0.382-0.125-0.586-0.125
			c-0.322,0-0.58,0.096-0.775,0.289c-0.193,0.196-0.293,0.457-0.293,0.78c0,0.316,0.092,0.569,0.279,0.757s0.437,0.282,0.75,0.282
			c0.188,0,0.379-0.041,0.574-0.119c0.197-0.079,0.409-0.204,0.639-0.38l-0.062,2.023c-0.215,0.088-0.428,0.152-0.641,0.193
			c-0.211,0.045-0.428,0.065-0.641,0.065c-0.266,0-0.521-0.03-0.766-0.088c-0.248-0.06-0.468-0.142-0.667-0.253
			c-0.479-0.272-0.845-0.618-1.091-1.038c-0.25-0.421-0.374-0.9-0.374-1.443c0-0.401,0.072-0.774,0.214-1.118
			c0.139-0.343,0.343-0.646,0.61-0.906c0.271-0.266,0.583-0.465,0.938-0.603c0.357-0.137,0.745-0.205,1.158-0.205
			c0.221,0,0.438,0.023,0.653,0.068c0.214,0.046,0.422,0.112,0.627,0.205v1.991h0.002V48.438z M249.883,48.494h1.46h0.671h0.873
			c0.006,0.108,0.009,0.192,0.012,0.245c0.003,0.055,0.003,0.102,0.003,0.144c0,0.308-0.032,0.589-0.091,0.845
			c-0.059,0.254-0.146,0.481-0.26,0.678c-0.275,0.461-0.637,0.812-1.075,1.057c-0.442,0.244-0.939,0.365-1.497,0.365
			c-0.412,0-0.795-0.069-1.148-0.205c-0.353-0.135-0.669-0.336-0.94-0.602c-0.271-0.264-0.476-0.565-0.614-0.906
			c-0.141-0.342-0.208-0.711-0.208-1.109c0-0.402,0.067-0.775,0.212-1.117c0.139-0.341,0.344-0.64,0.611-0.9
			c0.27-0.262,0.584-0.463,0.939-0.6c0.354-0.137,0.736-0.205,1.148-0.205c0.56,0,1.055,0.119,1.488,0.363
			c0.436,0.238,0.789,0.594,1.063,1.059l-1.397,0.494c-0.247-0.445-0.623-0.591-1.107-0.591c-0.762,0-1.232,0.585-1.232,1.486
			c0,0.899,0.471,1.459,1.232,1.459c0.622,0,1.048-0.312,1.223-0.979h-1.365L249.883,48.494L249.883,48.494z M268.373,51.683
			c-0.65-0.037-0.92-0.276-0.816-0.756l1.944-3.021h-1.906v-1.604h3.664c0.562,0.021,0.938,0.194,0.919,0.704l-1.93,3.02h2.104
			v1.658h-3.979V51.683z M287.058,50.763v-4.46h1.964v3.634h1.906v1.746h-2.74C287.498,51.688,287.123,51.382,287.058,50.763z"/>
	</g>
</g>
<rect fill="none" width="640" height="65.158"/>
</svg>
