<?xml version="1.0" encoding="utf-8"?>
<!-- Generator: Adobe Illustrator 16.0.0, SVG Export Plug-In . SVG Version: 6.00 Build 0)  -->
<!DOCTYPE svg PUBLIC "-//W3C//DTD SVG 1.1//EN" "http://www.w3.org/Graphics/SVG/1.1/DTD/svg11.dtd">
<svg version="1.1" id="图层_1" xmlns="http://www.w3.org/2000/svg" xmlns:xlink="http://www.w3.org/1999/xlink" x="0px" y="0px"
	 width="640px" height="65.158px" viewBox="0 0 640 65.158" enable-background="new 0 0 640 65.158" xml:space="preserve">
<g>
	<path fill="#FFFFFF" d="M322.525,8.778h134.319v34.296H322.525V8.778z"/>
	<path fill="#006AB6" d="M323.377,9.634H456.01v32.607H323.377V9.634z"/>
	<path fill="#000D57" d="M323.375,9.634h32.677v32.607h-32.677V9.634z"/>
	<path fill="#FBC200" d="M356.05,32.209h99.959v10.032H356.05V32.209z"/>
	<path fill="#000D57" d="M361.023,35.104h0.656v4.563h-0.656V35.104z"/>
	<path fill="#000D57" d="M366.381,35.104h0.889l2.024,3.676h0.017v-3.676h0.647v4.563h-0.836l-2.067-3.753h-0.02v3.753h-0.654
		V35.104"/>
	<path fill="#000D57" d="M375.571,35.683h-1.425v-0.578h3.504v0.578h-1.428v3.988h-0.651V35.683"/>
	<path fill="#000D57" d="M381.878,35.104h2.562v0.574h-1.904v1.332h1.729v0.577h-1.729v1.505h1.904v0.576h-2.562V35.104"/>
	<path fill="#000D57" d="M388.992,35.104h1.119c0.9,0,1.771,0.144,1.771,1.233c0,0.56-0.408,0.947-0.938,1.041v0.009
		c0.195,0.08,0.306,0.182,0.441,0.465l0.863,1.815h-0.746l-0.699-1.583c-0.207-0.447-0.424-0.447-0.768-0.447h-0.398v2.03h-0.646
		V35.104L388.992,35.104z M389.643,37.065h0.561c0.626,0,0.994-0.276,0.994-0.711c0-0.412-0.317-0.674-0.916-0.674h-0.639V37.065z"
		/>
	<path fill="#000D57" d="M396.566,35.104h0.889l2.021,3.676h0.021v-3.676h0.655v4.563h-0.843l-2.066-3.753h-0.021v3.753h-0.651
		L396.566,35.104"/>
	<path fill="#000D57" d="M406.293,35.104h0.689l1.934,4.563h-0.719l-0.461-1.149h-2.242l-0.464,1.149h-0.688L406.293,35.104z
		 M406.615,35.72l-0.911,2.264h1.823L406.615,35.72z"/>
	<path fill="#000D57" d="M413.548,35.683h-1.428v-0.578h3.505v0.578h-1.42v3.988h-0.657V35.683"/>
	<path fill="#000D57" d="M419.816,35.104h0.65v4.563h-0.65V35.104z"/>
	<path fill="#000D57" d="M427.142,35.024c1.392,0,2.204,1.011,2.204,2.361c0,1.387-0.803,2.36-2.204,2.36
		c-1.392,0-2.192-0.978-2.192-2.36C424.945,36.036,425.757,35.024,427.142,35.024 M427.142,39.175c1.062,0,1.518-0.879,1.518-1.787
		c0-0.929-0.501-1.791-1.518-1.789c-1.008-0.002-1.507,0.86-1.507,1.789C425.635,38.296,426.091,39.175,427.142,39.175"/>
	<path fill="#000D57" d="M433.811,35.104h0.896l2.019,3.676h0.016v-3.676h0.655v4.563h-0.843l-2.066-3.753h-0.016v3.753h-0.653
		v-4.563"/>
	<path fill="#000D57" d="M443.541,35.104h0.686l1.937,4.563h-0.716l-0.467-1.149h-2.238l-0.467,1.149h-0.688L443.541,35.104z
		 M443.859,35.72l-0.907,2.264h1.821L443.859,35.72L443.859,35.72z"/>
	<path fill="#000D57" d="M450.354,35.104h0.657v3.988h1.916v0.576h-2.573V35.104"/>
	<path fill="#FFFFFF" d="M339.75,14.129c1.171,1.129,2.479,2.328,3.609,3.496l-1.325,1.703v0.084l3.514,1.565l2.374-1.627
		l-1.438-1.589v-0.114c1.473-1.04,2.729-2.038,4.154-2.991l-0.688,7.115H329.47l-0.689-7.115c1.425,0.953,2.687,1.951,4.152,2.991
		v0.114l-1.432,1.589l2.371,1.627l3.509-1.565v-0.084l-1.32-1.703c1.136-1.167,2.438-2.366,3.606-3.496H339.75"/>
	<path fill="#FFFFFF" d="M349.793,23.053l-0.205,2.373l-7.579-0.002v8.188l3.694-0.021c0.818-0.003,1.688-0.865,1.509-1.434
		c-0.188-0.827-0.937-1.376-1.626-1.787c0.139,0,2.67-1.863,3.855-2.666c-0.055,0.515-0.903,7.206-0.912,7.314l-8.744,3.32h-0.146
		l-8.748-3.32c-0.01-0.108-0.854-6.802-0.908-7.314c1.188,0.802,3.719,2.666,3.853,2.666c-0.688,0.411-1.427,0.96-1.626,1.787
		c-0.175,0.569,0.693,1.431,1.514,1.434l3.694,0.021l0.003-8.188l-7.588,0.002l-0.203-2.373H349.793"/>
	<path fill="#FFFFFF" d="M361.254,18.922c0-2.332-0.079-2.685-1.789-2.835v-0.215l3.723-0.12c3.854-0.124,4.156,1.753,4.156,2.483
		c0,1.285-0.794,2.018-1.894,2.505l0.075,0.104c1.181,2.063,2.643,4.68,5.164,5.199l-0.047,0.232
		c-1.621-0.079-2.813-0.032-3.697-0.948c-1.004-1.048-1.803-2.392-2.123-3.047c-0.608-1.269-1.161-0.905-2.233-1.085v2.455
		c0,1.677,0.036,1.981,2.13,2.272v0.229h-5.362v-0.229c1.835-0.242,1.85-0.701,1.897-2.272V18.922z M362.589,20.936
		c1.47-0.013,3.183-0.682,3.183-2.378c0-1.786-1.567-2.497-3.183-2.485V20.936z"/>
	<path fill="#FFFFFF" d="M372.908,26.294c-2.102,0-3.762-1.324-3.762-3.491c0-2.104,1.729-3.558,3.771-3.558
		c2.077,0,3.742,1.343,3.742,3.497C376.664,24.818,374.924,26.294,372.908,26.294 M372.893,19.583c-1.647,0-2.324,1.709-2.324,3.112
		c0,1.419,0.8,3.265,2.443,3.265c1.543,0,2.23-1.753,2.23-3.069C375.242,21.495,374.555,19.583,372.893,19.583"/>
	<path fill="#FFFFFF" d="M377.146,20.773c-0.271-0.686-0.332-0.839-1.101-0.961v-0.229h3.167v0.229
		c-1.165,0.062-0.854,0.761-0.551,1.539l1.497,3.875l0.942-2.74c0.688-1.986,0.812-2.521-0.315-2.673v-0.229h2.674v0.229
		c-0.67,0.08-0.889,0.351-1.179,0.933l-0.646,1.478l-2.351,5.903c-0.567,1.412-0.96,1.89-1.572,1.89
		c-0.415,0-0.752-0.338-0.752-0.765c0-0.319,0.181-0.609,0.487-0.713c0.153,0.091,0.629,0.425,0.812,0.425
		c0.334,0,0.604-0.827,0.721-1.052l0.504-1.174L377.146,20.773"/>
	<path fill="#FFFFFF" d="M386.538,22.373c0.125-1.665-0.308-2.353-1.513-2.353c-1.051,0-0.946,0.505-0.946,1.343l-0.763,0.047
		c-0.123,0-0.354,0.013-0.354-0.152c0-0.413,1.681-2,2.922-2c1.403,0,1.827,1.07,1.827,2.286v2.17c0,1.34-0.122,2.181,1.338,1.951
		v0.341c-0.587,0.173-1.088,0.222-1.547,0.222c-0.643,0-0.889-0.364-0.966-0.962c-0.487,0.551-1.156,1.04-1.94,1.04
		c-0.975,0-1.521-0.828-1.521-1.739c0-0.231,0.033-0.446,0.09-0.671L386.538,22.373z M384.479,23.73
		c-0.062,0.198-0.105,0.391-0.105,0.606c0,0.644,0.369,1.208,1.062,1.208c0.422,0,0.83-0.277,1.104-0.563v-2.304L384.479,23.73z"/>
	<path fill="#FFFFFF" d="M388.342,26.151v-0.372c1.062-0.125,1.191-0.368,1.191-1.398v-6.479c0-0.643,0.019-0.839-0.746-1.391V16.36
		l1.757-0.67l0.169,0.062v8.628c0,1.25,0.062,1.373,1.192,1.542v0.229H388.342"/>
	<path fill="#FFFFFF" d="M406.345,22.373c0.125-1.665-0.307-2.353-1.512-2.353c-1.053,0-0.947,0.505-0.947,1.343l-0.768,0.047
		c-0.123,0-0.353,0.013-0.353-0.152c0-0.413,1.686-2,2.924-2c1.402,0,1.835,1.07,1.835,2.286v2.17c0,1.34-0.156,2.271,1.321,1.951
		v0.341c-0.581,0.173-1.083,0.222-1.547,0.222c-0.638,0-0.879-0.364-0.958-0.962c-0.483,0.551-1.159,1.04-1.938,1.04
		c-0.98,0-1.534-0.828-1.534-1.739c0-0.231,0.035-0.446,0.097-0.671L406.345,22.373z M404.281,23.73
		c-0.062,0.198-0.104,0.391-0.104,0.606c0,0.644,0.362,1.208,1.064,1.208c0.412,0,0.826-0.277,1.103-0.563v-2.304L404.281,23.73z"/>
	<path fill="#FFFFFF" d="M401.885,18.916h-0.229c-0.284-1.72-1.303-2.957-3.131-2.957c-2.801,0-4.377,2.291-4.377,4.913
		c0,3.003,2.312,5.092,4.523,5.092c2.002,0,2.793-1.465,3.487-3.108l0.212,0.092c-0.186,0.928-0.475,1.841-0.841,2.726
		c-0.981,0.474-2.032,0.654-3.115,0.654c-3.2,0-6.03-1.829-6.03-5.277c0-2.712,2.113-5.458,6.152-5.458
		c1.162,0,2.336,0.23,3.345,0.825L401.885,18.916"/>
	<path fill="#FFFFFF" d="M442.655,22.363c0.127-1.658-0.312-2.35-1.518-2.35c-1.051,0-0.943,0.504-0.943,1.34l-0.764,0.047
		c-0.125,0-0.354,0.019-0.354-0.153c0-0.41,1.679-1.998,2.918-1.998c1.403,0,1.832,1.068,1.832,2.288v2.166
		c0,1.344-0.213,2.196,1.184,2.121v0.267c-0.582,0.169-0.938,0.127-1.396,0.127c-0.644,0-0.889-0.365-0.963-0.958
		c-0.482,0.551-1.161,1.036-1.94,1.036c-0.975,0-1.528-0.823-1.528-1.743c0-0.229,0.028-0.437,0.096-0.667L442.655,22.363
		L442.655,22.363z M440.595,23.722c-0.062,0.197-0.106,0.396-0.106,0.604c0,0.646,0.361,1.208,1.069,1.208
		c0.41,0,0.825-0.272,1.102-0.562v-2.306L440.595,23.722L440.595,23.722z"/>
	<path fill="#FFFFFF" d="M410.513,24.379c0,1.25,0.062,1.372,1.528,1.538v0.231h-3.819v-0.365c1.026-0.087,1.101-0.338,1.113-1.527
		v-2.788c0-0.646,0.015-0.843-0.744-1.39v-0.155l1.813-0.67l0.17,0.062l-0.062,1.801h0.03c0.337-0.812,1.194-1.863,2.152-1.863
		c0.431,0,0.784,0.275,0.784,0.703c0,0.41-0.448,0.792-0.8,0.96c-0.264-0.199-0.643-0.532-0.979-0.504
		c-1.3,0.121-1.191,2.2-1.191,2.427L410.513,24.379"/>
	<path fill="#FFFFFF" d="M413.952,26.148v-0.231c1.126-0.166,1.176-0.348,1.188-1.538v-2.913c0-0.641,0.021-0.841-0.93-1.388v-0.155
		l1.939-0.67l0.17,0.062v5.064c0,1.25,0.059,1.372,1.19,1.538v0.231H413.952z M416.444,16.712c0,0.427-0.355,0.78-0.782,0.78
		c-0.426,0-0.777-0.354-0.777-0.78c0-0.425,0.354-0.78,0.777-0.78C416.089,15.932,416.444,16.287,416.444,16.712z"/>
	<path fill="#FFFFFF" d="M418.066,17.897c0-0.644,0.012-0.841-0.744-1.39v-0.152l1.755-0.672l0.169,0.061v4.362
		c0.749-0.408,1.684-0.853,2.55-0.853c1.698,0,2.873,1.572,2.873,3.17c0,2.703-2.491,3.88-4.172,3.88
		c-0.911,0-1.603-0.25-2.431-0.614V17.897z M419.246,23.05c0,1.42,0.154,2.776,1.924,2.776c0.841,0,2.197-0.673,2.197-2.789
		c0-1.832-1.223-3.021-2.696-3.021c-0.524,0-0.951,0.137-1.425,0.336V23.05z"/>
	<path fill="#FFFFFF" d="M425.378,17.897c0-0.644,0.01-0.841-0.748-1.39v-0.152l1.756-0.672l0.168,0.061v4.362
		c0.748-0.408,1.685-0.853,2.55-0.853c1.7,0,2.875,1.572,2.875,3.17c0,2.703-2.487,3.88-4.173,3.88c-0.913,0-1.604-0.25-2.428-0.614
		V17.897z M426.554,23.05c0,1.42,0.155,2.776,1.925,2.776c0.843,0,2.203-0.673,2.203-2.789c0-1.832-1.225-3.021-2.706-3.021
		c-0.521,0-0.945,0.137-1.422,0.336V23.05z"/>
	<path fill="#FFFFFF" d="M433.976,22.258c-0.116,1.588,0.97,3.067,2.689,3.067c0.801,0,1.345-0.354,1.803-0.967l0.229,0.172
		c-0.58,0.992-1.618,1.771-2.811,1.771c-1.896,0-3.21-1.56-3.21-3.385c0-1.973,1.373-3.664,3.44-3.664
		c1.375,0,2.286,0.869,2.347,2.243h-4.426L433.976,22.258L433.976,22.258z M437.018,21.085c-0.136-0.702-0.562-1.498-1.377-1.498
		c-0.865,0-1.388,0.856-1.555,1.619L437.018,21.085z"/>
	<path fill="#FFFFFF" d="M445.684,21.468c0-0.646,0.019-0.843-0.751-1.39v-0.155l1.822-0.67l0.17,0.06l-0.127,1.118
		c0.878-0.644,1.712-1.178,2.688-1.178c1.84,0,1.934,1.51,1.934,2.41v2.716c0,1.25,0.055,1.372,1.189,1.538v0.231h-3.565v-0.231
		c1.133-0.166,1.183-0.348,1.196-1.538v-1.754c0-1.069,0.04-2.577-1.82-2.577c-0.626,0-1.055,0.195-1.562,0.658v3.673
		c0,1.25,0.067,1.372,1.195,1.538v0.231h-3.559l-0.004-0.28c1.095-0.089,1.177-0.299,1.189-1.489L445.684,21.468"/>
	<path fill="#FFFFFF" d="M461.746,12.42c0.569,0,0.97-0.292,0.97-0.78v-0.006c0-0.46-0.354-0.74-0.965-0.74h-1.158v1.526H461.746
		L461.746,12.42z M460.164,10.499h1.622c0.464,0,0.836,0.136,1.071,0.378c0.188,0.182,0.292,0.445,0.292,0.74v0.012
		c0,0.62-0.438,0.989-1.024,1.092l1.158,1.543h-0.524l-1.093-1.463h-1.073v1.463h-0.429V10.499L460.164,10.499z"/>
	<path fill="#FFFFFF" d="M458.968,12.422c0-1.39,1.133-2.519,2.523-2.519c1.395,0,2.521,1.129,2.521,2.519
		c0,1.388-1.128,2.519-2.521,2.519C460.101,14.94,458.968,13.81,458.968,12.422 M458.631,12.422c0,1.573,1.285,2.86,2.86,2.86
		c1.578,0,2.857-1.287,2.857-2.86c0-1.576-1.279-2.856-2.857-2.856C459.916,9.566,458.631,10.846,458.631,12.422"/>
	<path fill="#FFFFFF" d="M325.548,49.728h4.479v-0.763h-4.479V49.728z M325.548,48.453h4.479v-0.745h-4.479V48.453z M330.884,50.31
		h0.019c-0.168-0.05-1.217-0.076-3.135-0.076c-1.92,0-2.945,0.026-3.093,0.076c0.06-0.238,0.085-0.777,0.085-1.609
		c0-0.844-0.025-1.36-0.085-1.575c0.204,0.038,0.73,0.058,1.582,0.058c0.146-0.425,0.259-0.789,0.354-1.105l0.971,0.287
		c-0.198,0.302-0.35,0.58-0.452,0.828c0.12,0.01,0.327,0.01,0.629,0.01c1.832,0,2.873-0.024,3.129-0.074
		c-0.047,0.158-0.069,0.682-0.069,1.575c0,0.516,0.015,0.93,0.041,1.229l0.028,0.371L330.884,50.31z M331.836,53.582v0.758
		c-0.314-0.056-1.697-0.089-4.154-0.089c-2.537,0-3.926,0.025-4.152,0.082v-0.75c0.214,0.049,1.479,0.077,3.775,0.077v-0.845
		c-1.646,0-2.584,0.021-2.8,0.07v-0.76c0.097,0.038,1.03,0.062,2.8,0.077l-0.014-0.626c-2.059,0-3.186,0.023-3.368,0.081v-0.754
		c0.199,0.05,1.429,0.073,3.688,0.073c2.252,0,3.505-0.023,3.748-0.073v0.754c-0.12-0.046-1.209-0.076-3.266-0.081v0.626
		c1.799-0.013,2.758-0.039,2.875-0.077v0.766c-0.209-0.055-1.164-0.078-2.875-0.078v0.846
		C330.378,53.658,331.626,53.631,331.836,53.582z"/>
	<path fill="#FFFFFF" d="M347.205,48.567h-0.879v-0.863h-6.087v0.863h-0.886c0.053-0.223,0.08-0.485,0.08-0.789
		c0-0.299-0.027-0.557-0.08-0.771c0.188,0.047,1.379,0.079,3.584,0.084c-0.027-0.3-0.121-0.583-0.276-0.836l0.972-0.186
		c0.115,0.41,0.2,0.748,0.258,1.017c2.069-0.012,3.18-0.037,3.314-0.069c-0.047,0.168-0.07,0.414-0.07,0.75
		C347.135,48.12,347.158,48.388,347.205,48.567 M347.307,53.205h0.016c-0.319,0.194-0.572,0.446-0.771,0.767
		c-0.474-0.352-0.834-0.713-1.097-1.086s-0.53-0.957-0.804-1.753c-0.223,0.127-0.45,0.248-0.699,0.378
		c0.087,0.344,0.135,0.684,0.135,1.014c0,0.354-0.048,0.72-0.135,1.096c-0.088,0.375-0.312,0.645-0.671,0.811
		c-0.363,0.162-0.729,0.271-1.101,0.338c-0.062-0.386-0.229-0.705-0.5-0.979c0.271,0.045,0.517,0.074,0.717,0.074
		c0.356,0,0.601-0.098,0.713-0.282c0.123-0.188,0.183-0.509,0.183-0.955c0-0.135-0.017-0.306-0.044-0.521
		c-0.91,0.808-2.135,1.523-3.678,2.148c-0.131-0.232-0.324-0.45-0.573-0.652c1.62-0.653,2.978-1.41,4.073-2.25
		c-0.065-0.155-0.153-0.321-0.249-0.487c-0.732,0.625-1.812,1.245-3.251,1.868c-0.129-0.241-0.295-0.474-0.493-0.683
		c1.299-0.469,2.437-1.021,3.43-1.665c-0.089-0.102-0.204-0.218-0.331-0.334c-0.609,0.353-1.479,0.729-2.604,1.125
		c-0.133-0.254-0.329-0.484-0.573-0.691c1.377-0.37,2.538-0.851,3.494-1.441c-1.121,0.011-1.743,0.039-1.854,0.078v-0.76
		c0.156,0.053,1.018,0.074,2.596,0.074c1.562,0,2.438-0.021,2.617-0.074v0.759c-0.218-0.046-0.949-0.078-2.204-0.078
		c-0.38,0.274-0.675,0.479-0.882,0.622c0.502,0.509,0.841,0.949,1.021,1.322c0.81-0.531,1.438-1.01,1.883-1.44l0.775,0.578
		l-0.475,0.185l-0.714,0.463c0.302,0.902,0.69,1.533,1.181,1.896C346.921,53.024,347.21,53.205,347.307,53.205"/>
	<path fill="#FFFFFF" d="M360.376,52.521h1.578v-4.344h-1.578V52.521z M362.79,53.983h-0.836v-0.868h-1.578v1.079h-0.771
		c0.043-0.172,0.062-1.307,0.062-3.375c0-2.061-0.021-3.149-0.062-3.287c0.199,0.058,0.726,0.078,1.562,0.078
		c0.816,0,1.359-0.021,1.644-0.069c-0.065,0.261-0.095,1.328-0.095,3.2C362.719,52.681,362.74,53.758,362.79,53.983z
		 M358.938,48.106l-0.006-0.01c-0.119,3.352-0.23,5.217-0.355,5.602c-0.12,0.379-0.643,0.642-1.562,0.792
		c0-0.396-0.132-0.728-0.398-0.985c0.229,0.038,0.436,0.057,0.601,0.057c0.294,0,0.478-0.054,0.552-0.146
		c0.072-0.1,0.146-0.527,0.211-1.295c0.068-0.768,0.137-1.86,0.212-3.283h-1.109c-0.062,1.354-0.191,2.395-0.403,3.124
		c-0.207,0.735-0.707,1.673-1.5,2.819c-0.188-0.262-0.402-0.486-0.643-0.684c0.551-0.77,0.978-1.492,1.255-2.175
		c0.278-0.679,0.444-1.711,0.499-3.086h-1.408l0.01-0.735c0.182,0.043,0.647,0.068,1.42,0.078c0.021-0.55,0.023-1.154,0.023-1.808
		l0.979,0.175l-0.171,0.406l-0.021,1.227C358.105,48.176,358.721,48.156,358.938,48.106L358.938,48.106z"/>
	<path fill="#FFFFFF" d="M378.191,48.282c-0.129,3.17-0.231,4.973-0.332,5.398c-0.094,0.432-0.653,0.693-1.694,0.803
		c0-0.352-0.122-0.683-0.36-1c0.235,0.023,0.438,0.043,0.602,0.043c0.354,0,0.559-0.057,0.627-0.157
		c0.062-0.106,0.13-0.522,0.193-1.257c0.068-0.733,0.139-1.783,0.205-3.15h-1.093c-0.085,1.492-0.239,2.578-0.476,3.264
		c-0.235,0.688-0.719,1.488-1.443,2.416c-0.265-0.187-0.531-0.351-0.809-0.492c0.604-0.592,1.094-1.231,1.438-1.933
		c0.354-0.688,0.56-1.771,0.604-3.254h-1.238v-0.681c0.135,0.033,0.553,0.056,1.26,0.07c0.004-0.375,0.01-1.139,0.01-2.283
		l0.863,0.064l-0.154,0.445c-0.01,0.646-0.024,1.238-0.06,1.775C377.425,48.353,378.039,48.327,378.191,48.282z M372.713,51.292
		h0.934v-1.09h-0.934V51.292z M371.736,48.563h1.4v-0.74h-1.4V48.563z M371.159,51.292h0.881v-1.09h-0.881V51.292z M374.698,47.89
		c-0.098-0.025-0.408-0.048-0.944-0.064v1.289l-0.611-0.07h-0.43v0.646c0.829,0,1.363-0.021,1.605-0.062
		c-0.039,0.17-0.062,0.539-0.062,1.09c0,0.57,0.021,0.952,0.062,1.157c-0.235-0.042-0.776-0.072-1.619-0.072v0.614
		c0.99-0.012,1.559-0.035,1.697-0.075v0.75c-0.209-0.046-0.771-0.069-1.688-0.069c0.01,0.963,0.025,1.502,0.049,1.625l-0.775,0.016
		c0.022-0.139,0.048-0.688,0.057-1.646c-1.168,0.006-1.825,0.037-1.964,0.078v-0.75c0.203,0.049,0.86,0.075,1.969,0.075l0.009-0.614
		c-0.793,0-1.318,0.024-1.589,0.064c0.058-0.219,0.087-0.605,0.087-1.149c0-0.571-0.027-0.938-0.08-1.104
		c0.193,0.054,0.709,0.078,1.568,0.078v-0.646h-0.307l-0.561,0.07V47.83c-0.535,0.009-0.886,0.028-1.048,0.065v-0.759
		c0.131,0.028,0.479,0.045,1.031,0.045c-0.005-0.628-0.026-0.993-0.058-1.1l0.818,0.067c-0.125,0.08-0.188,0.25-0.188,0.514V47.2
		c0.521,0.013,0.99,0.008,1.402-0.01c-0.009-0.604-0.02-0.976-0.041-1.109l0.829,0.068c-0.104,0.065-0.17,0.238-0.177,0.513
		l-0.003,0.528c0.517-0.012,0.83-0.029,0.946-0.058v0.759L374.698,47.89L374.698,47.89z"/>
	<path fill="#FFFFFF" d="M393.616,52.933h0.005c-0.197,0.562-0.391,0.959-0.579,1.197c-0.194,0.24-0.335,0.36-0.412,0.36h-1.851
		c-0.749,0-1.119-0.36-1.119-1.083v-6.956l0.861,0.095l-0.041,0.188l-0.062,0.146l-0.01,2.811c0.744-0.43,1.422-0.893,2.044-1.392
		l0.764,0.751l-0.515,0.11c-0.442,0.311-1.198,0.749-2.283,1.301v2.872c0,0.285,0.182,0.431,0.546,0.434l1.42,0.008
		c0.146-0.069,0.28-0.547,0.429-1.43c0.148,0.154,0.317,0.29,0.5,0.411L393.616,52.933 M388.869,52.92
		c-0.967,0.58-1.829,1.157-2.609,1.733l-0.584-0.762c0.26-0.229,0.393-0.391,0.393-0.5V46.71l0.963,0.1
		c0,0.101-0.065,0.221-0.194,0.348v2.098c1.11,0,1.763-0.027,1.968-0.08l-0.012,0.807c-0.229-0.041-0.876-0.062-1.956-0.062
		l0.011,3.402c0.684-0.41,1.295-0.8,1.84-1.165L388.869,52.92"/>
	<path fill="#FFFFFF" d="M407.076,51.362l-0.701,0.412c-0.115-0.322-0.312-0.611-0.581-0.871l0.693-0.293
		C406.745,50.959,406.938,51.21,407.076,51.362z M407.555,52.604h-0.011c-0.201-0.049-1.014-0.071-2.438-0.071
		c-1.466,0-2.262,0.022-2.392,0.071l0.007-0.75c0.205,0.041,0.871,0.062,1.999,0.062v-1.505c-0.955,0.014-1.504,0.043-1.641,0.084
		v-0.749c0.137,0.04,0.686,0.067,1.641,0.075v-1.125c-1.021,0-1.627,0.026-1.812,0.078v-0.771c0.153,0.059,0.884,0.083,2.212,0.083
		c1.325,0,2.072-0.024,2.237-0.083v0.771c-0.219-0.052-0.854-0.078-1.915-0.078l-0.016,1.125c0.993-0.012,1.563-0.035,1.721-0.071
		v0.74c-0.141-0.047-0.707-0.073-1.705-0.08l-0.016,1.505c1.146,0,1.853-0.021,2.124-0.062L407.555,52.604z M402.204,53.507h5.808
		v-6.371h-5.808V53.507z M408.89,54.66h-0.878v-0.479h-5.802v0.479h-0.879c0.054-0.251,0.084-1.628,0.084-4.13
		c0-2.498-0.03-3.867-0.084-4.096c0.242,0.051,1.502,0.074,3.779,0.074c2.357,0,3.618-0.021,3.775-0.066
		c-0.054,0.219-0.085,1.582-0.085,4.088C408.805,53.032,408.836,54.408,408.89,54.66z"/>
	<path fill="#FFFFFF" d="M424.662,53.032c-0.386,0.119-0.673,0.271-0.864,0.471c-0.219-0.505-0.668-1.369-1.351-2.604l0.688-0.364
		C423.706,51.415,424.21,52.248,424.662,53.032z M423.798,47.603c-0.181-0.052-0.821-0.08-1.914-0.08
		c-1.088,0-1.714,0.028-1.867,0.08v-0.767c0.153,0.05,0.781,0.073,1.878,0.073c1.093,0,1.727-0.023,1.903-0.073V47.603z
		 M424.27,49.627c-0.227-0.053-0.933-0.073-2.106-0.073l0.005,4.233c-0.092,0.489-0.619,0.785-1.577,0.882
		c-0.121-0.33-0.25-0.627-0.385-0.882l0.457,0.022c0.471,0,0.704-0.067,0.704-0.192v-4.063c-1.124,0-1.81,0.021-2.038,0.073
		l0.008-0.758c0.215,0.051,1.039,0.073,2.468,0.073c1.432,0,2.249-0.022,2.473-0.073v0.758H424.27z M420.888,50.78l-0.289,0.408
		c-0.319,0.852-0.707,1.658-1.161,2.43c-0.272-0.146-0.562-0.245-0.868-0.292c0.686-1.073,1.171-2.017,1.447-2.83L420.888,50.78z
		 M419.553,46.551l-1.093,2.901c0.282,0.408,0.482,0.729,0.596,0.967c0.11,0.246,0.167,0.475,0.167,0.696
		c0,0.475-0.089,0.809-0.271,1.014c-0.188,0.203-0.544,0.38-1.076,0.522c-0.12-0.324-0.275-0.625-0.467-0.895
		c0.255,0,0.46-0.01,0.62-0.04c0.159-0.026,0.269-0.067,0.323-0.11c0.062-0.057,0.086-0.146,0.086-0.276
		c0-0.531-0.213-1.122-0.637-1.772l0.769-2.316h-1.236v7.25h-0.812c0.06-0.154,0.078-1.485,0.078-3.993
		c0-2.466-0.021-3.779-0.062-3.946c0.215,0.055,0.711,0.081,1.479,0.081C418.792,46.632,419.303,46.604,419.553,46.551z"/>
	<path fill="#FFFFFF" d="M440.391,51.84h0.006c-0.2-0.056-0.729-0.083-1.562-0.083v2.137c-0.093,0.487-0.507,0.785-1.225,0.881
		c-0.08-0.354-0.187-0.621-0.308-0.803l0.327,0.021c0.369,0,0.553-0.065,0.553-0.201V51.76c-0.798,0-1.281,0.028-1.46,0.083
		l0.016-0.758c0.188,0.041,0.677,0.064,1.444,0.064V50.42l0.86-0.808h-1.55v-0.641c0.207,0.049,0.604,0.075,1.188,0.075
		c0.582,0,0.999-0.024,1.239-0.075l0.067,0.646c-0.204,0.113-0.596,0.413-1.16,0.879v0.652c0.8,0,1.312-0.025,1.557-0.066v0.758
		L440.391,51.84z M440.289,48.192c-0.188-0.047-1.001-0.072-2.439-0.084c-0.281,0.668-0.568,1.209-0.858,1.629
		c-0.188-0.202-0.374-0.356-0.582-0.465c0.639-0.782,1.099-1.852,1.383-3.187l0.866,0.187l-0.555,1.272
		c1.342-0.007,2.065-0.032,2.188-0.075L440.289,48.192z M435.866,47.417l-0.713,0.182c-0.113-0.426-0.266-0.838-0.455-1.234
		l0.66-0.211C435.537,46.513,435.709,46.938,435.866,47.417z M436.724,47.718v0.771c-0.229-0.061-0.758-0.086-1.571-0.086h-0.094
		c-0.007,0.312-0.021,0.693-0.047,1.142h1.42c-0.066,2.552-0.134,3.974-0.167,4.271c-0.04,0.291-0.401,0.52-1.091,0.678
		c-0.049-0.311-0.181-0.602-0.396-0.881c0.222,0.033,0.396,0.061,0.539,0.061c0.145,0,0.229-0.021,0.259-0.064
		c0.031-0.043,0.062-0.306,0.097-0.771c0.038-0.471,0.063-1.374,0.082-2.701l-0.76,0.012c-0.075,0.98-0.188,1.729-0.325,2.241
		c-0.14,0.517-0.457,1.214-0.949,2.101c-0.181-0.144-0.408-0.271-0.685-0.398c0.6-1.035,0.97-1.886,1.11-2.557
		c0.14-0.67,0.213-1.711,0.222-3.123c-0.379,0.021-0.624,0.039-0.756,0.062v-0.76c0.257,0.062,0.771,0.088,1.538,0.088
		C435.966,47.794,436.493,47.767,436.724,47.718L436.724,47.718z M433.724,47.458l-0.464,0.545c-0.367-0.343-0.791-0.669-1.269-0.98
		l0.588-0.592C433.026,46.767,433.411,47.104,433.724,47.458z M433.615,49.634l-0.579,0.635c-0.318-0.34-0.73-0.675-1.229-0.998
		l0.465-0.572C432.791,49.017,433.236,49.327,433.615,49.634z M433.43,51.302l-0.872,3.264l-0.761-0.479
		c0.398-1.104,0.712-2.164,0.947-3.183L433.43,51.302z"/>
	<path fill="#FFFFFF" d="M454.677,52.627c-0.047,0.806-0.167,1.229-0.356,1.28h-1.208c-0.257,0-0.39-0.131-0.39-0.397l-0.01-1.397
		c0.749-0.355,1.571-0.7,2.471-1.033l-0.688-0.77c-0.396,0.357-0.987,0.737-1.778,1.145v-1.721l0.115-0.27
		c0-0.042-0.28-0.082-0.854-0.128v4.093c0,0.747,0.407,1.123,1.22,1.123l1.481,0.01c0.104,0,0.233-0.1,0.407-0.308
		c0.172-0.198,0.33-0.55,0.472-1.048v0.012C455.11,53.013,454.818,52.815,454.677,52.627 M453.389,46.688l0.325-0.248l-1.095-0.295
		c-0.205,1.211-1.006,2.351-2.402,3.406c0.325,0.12,0.584,0.273,0.771,0.467c0.896-0.722,1.588-1.619,2.069-2.703
		c0.562,1.121,1.306,2.023,2.192,2.703c0.127-0.146,0.388-0.375,0.783-0.688C454.941,48.747,454.062,47.866,453.389,46.688
		 M449.816,51.964l0.012-1.07c0.363-0.014,0.749-0.014,1.158,0v-0.586h-1.158V49.26l0.107-0.284c0-0.035-0.302-0.078-0.901-0.125
		c0.03,0.108,0.05,0.599,0.071,1.469h-0.832c0.265-0.717,0.557-1.457,0.884-2.228h0.064c1.125,0,1.812,0.028,2.062,0.078v-0.774
		c-0.231,0.057-0.851,0.084-1.863,0.084c0.205-0.457,0.396-0.826,0.582-1.125l-0.938-0.397l-0.521,1.508
		c-0.699,0-1.145-0.017-1.333-0.065v0.764c0.118-0.03,0.48-0.051,1.095-0.066c-0.549,1.479-0.907,2.215-1.095,2.215l0.188,0.771
		c0.437-0.085,1.003-0.148,1.703-0.174v1.179c-0.668,0.108-1.324,0.2-1.983,0.257l0.28,0.866c0.389-0.092,0.959-0.22,1.717-0.374
		c-0.023,1.102-0.05,1.707-0.083,1.814h0.794V52.69l1.458-0.256v-0.787C450.612,51.808,450.127,51.911,449.816,51.964"/>
	<path fill="none" d="M0,0h640v65.158H0V0z"/>
</g>
<g>
	<path fill="#231815" stroke="#FFFFFF" stroke-width="0.5" stroke-miterlimit="10" d="M222.214,42.856h74.544v0.786l-5.829-0.006
		v0.823h-62.888v-0.901h-5.827V42.856z"/>
	<path fill="#F9BE00" stroke="#FFFFFF" stroke-width="0.5" stroke-miterlimit="10" d="M204.914,19.592
		c-0.713-0.045-1.595-0.252-2.869,0.05c-1.159,0.28-0.897,0.802-0.995,1.273c-0.098,0.46-0.32,2.505-0.19,2.835
		c0.117,0.317,1.553,1.107,2.476,1.442c0.897,0.337,1.601,0.571,2.517,0.474c0.841-0.085,1.817-0.833,2.018-0.926
		c0.191-0.102,0.736-0.336,0.736-0.336c-0.158-0.855-0.078-2.946-0.078-2.946c-0.51-1.309-1.726-1.874-1.903-1.872
		C206.46,19.589,205.63,19.636,204.914,19.592L204.914,19.592z M203.58,19.935c0.485,0.034,0.575,0.098,0.972,0.26
		c0.395,0.149,1.065,0.628,0.714,1.46c-0.349,0.845-1.299,1.479-1.657,1.547c-0.369,0.067-0.99,0.354-1.605,0.243
		c-0.319-0.046-0.488-0.351-0.447-1.321c0.031-0.971,0.139-1.749,0.494-1.968C202.405,19.922,203.067,19.901,203.58,19.935
		L203.58,19.935z"/>
	<path fill="#009844" stroke="#FFFFFF" stroke-width="0.5" stroke-miterlimit="10" d="M196.171,48.668c0,0,0.27,0.113,0.461,0.021
		c0.201-0.091,0.724-0.21,0.966-0.366c0.239-0.141,1.105-0.444,1.399-0.549c0.292-0.117,1.334-0.343,1.485-0.409
		c0.155-0.064,0.281-0.155,0.381-0.158c0.103,0,0.484-0.042,0.395-0.183c-0.104-0.125-0.64,0.032-0.854,0.023
		c-0.217-0.012-1.62,0.244-2.356,0.569s-1.229,0.651-1.471,0.767C196.324,48.501,196.171,48.668,196.171,48.668z M217.298,44.794
		c0,0,0.04,0.179-0.138,0.219c-0.317,0.08-0.45-0.148-0.677-0.173c-0.244-0.021-0.485,0.016-0.652-0.07
		c-0.167-0.101-0.218-0.125-0.6-0.121c-0.384-0.009-1.786-0.009-1.699-0.253c0.073-0.242,0.15-0.282,0.277-0.296
		c0.381-0.055,1.431,0.013,1.214-0.036c0.356,0.073,0.319,0.099,0.677,0.184c0.356,0.087,0.625,0.136,0.776,0.186
		c0.168,0.062,0.425,0.225,0.554,0.312C217.146,44.821,217.298,44.794,217.298,44.794z M215.416,40.105c0,0-0.06,0.307-0.251,0.219
		c-0.181-0.074-1.011-0.335-2.199-0.487c-1.187-0.157-2.219,0.097-2.706-0.064c-0.487-0.162-0.551-0.341-0.145-0.433
		c0.571-0.12,2.307-0.124,2.78-0.026C213.356,39.411,215.416,40.105,215.416,40.105L215.416,40.105z M190.94,43.067
		c0.57-0.324,0.915-0.441,1.206-0.611c0.293-0.183,0.468-0.501,0.619-0.542c0.14-0.024,0.525,0.124,0.78,0.032
		c0.267-0.105,0.597-0.4,0.774-0.441c0.179-0.026,0.994-0.278,1.311-0.307c0.815-0.084,0.814-0.276,1.106-0.29
		c0.537-0.043,0.444-0.159,1.044-0.38c1.537-0.616,11.207-3.257,18.397-0.812c0.295,0.1,0.667,0.097,0.998,0.194
		c0.348,0.1,0.399,0.148,0.413,0.315c0.013,0.165-0.097,0.6-0.036,0.637c0.079,0.052,0.093,0.255,0.324,0.253l-0.062,0.294
		c0.001,0.09-0.071,0.243-0.069,0.513l0.165,0.036c0,0,0.244,0.187,0.435,0.237c0,0-0.269,0.002-0.12,0.715
		c0.079,0.42-0.096,0.729-0.234,0.91c-0.125,0.179,0.015,0.277,0.247,0.303c0.381,0.048,0.216,0.112,0.343,0.212
		c0,0-0.713,0.007-1.03-0.002c-0.204-0.011-0.175,0.461-0.083,0.704c0.117,0.278,0.808,0.426,1.539,0.763
		c0.844,0.387,1.037,0.601,1.883,1.015c0,0-9.068-2.771-17.723-0.406c0,0-1.465,0.18-1.525,0.704c0,0,0.869-0.071,1.149,0.078
		c0,0-2.099,0.479-3.751,1.209c-1.638,0.729-2.46,1.273-4.275,2.361c-1.941,1.167-2.397,1.236-2.693,1.212
		c-0.292-0.036-0.256-0.188-0.362-0.455c-0.092-0.253-0.45-0.53-0.681-0.617c-0.218-0.075-0.613-0.085-0.766-0.146
		c-0.166-0.063-0.588-0.008-0.782-0.211c-0.193-0.189-0.202-1.12-0.14-1.262c0.064-0.152,0.118-1.06-0.074-1.236
		c-0.195-0.176-0.561,0.094-0.882-0.057c-0.321-0.161-0.412-0.531-0.506-1.039c-0.107-0.523-0.635-0.864-0.663-1.207
		c-0.031-0.574,0.261-0.756,0.552-0.963C188.071,44.561,190.371,43.402,190.94,43.067L190.94,43.067z"/>
	<path fill="#E50012" stroke="#FFFFFF" stroke-width="0.5" stroke-miterlimit="10" d="M195.525,24.706
		c-1.427,0.269-3.003,0.794-3.815,1.261c-0.826,0.468-2.399,1.235-2.743,1.48c-0.341,0.246-0.221,0.627-0.375,0.82
		c-0.15,0.204-0.302,0.359-0.3,0.501c0,0.151,1.079,2.183,1.079,2.183c0.063,0.1,0.067,0.177-0.022,0.306
		c-0.087,0.117-0.087,0.192-0.151,0.398c-0.074,0.204-0.21,0.587-0.132,0.727c0.09,0.153,0.205,0.126,0.167,0.292
		c-0.024,0.164,0.016,0.295,0.016,0.295s1.942-1.052,2.475-1.353c0.546-0.311,1.928-1.013,2.225-0.85
		c0.267,0.151-0.057,0.921-0.057,0.921c0.762-0.351,1.002-0.445,2.523-0.345c1.531,0.113,2.173,0.172,2.283,0.094
		c0.115-0.077,0.266-0.346,0.394-0.348c0.115-0.001,0.256,0.125,0.347,0.125c0.089-0.002,1.668-1.637,2.175-3.197
		c0.533-1.624,0.501-2.314-0.037-2.59c-0.476-0.25-1.217-0.384-1.577-0.622C199.488,24.478,196.951,24.426,195.525,24.706
		L195.525,24.706z M209.122,26.134c0,0-0.054,0.905-0.025,1.275c0.03,0.369-0.021,1.824-0.04,2.501
		c-0.031,0.663-0.324,2.147-0.577,2.354c-0.241,0.18-0.87,0.925-0.959,1.17c-0.085,0.256-0.174,0.358-0.34,0.438
		c-0.15,0.063-0.632,0.4-1.217,0.609c-0.599,0.197-0.761,0.53-1.653,0.68c-0.877,0.149-1.966-0.352-2.365-0.502
		c-0.395-0.161-0.764-0.08-0.764-0.08s1.188-1.11,0.992-1.541c-0.208-0.433,0.074-0.701,0.171-1.062
		c0.098-0.358-0.187-0.827-0.433-1.183c-0.235-0.354-0.364-0.542-0.149-0.801c0.214-0.257,0.604-0.962,0.603-1.129
		c0-0.179,0.453-0.667,0.678-0.963c0.24-0.295,0.569-0.479,0.876-0.532c0.317-0.066,1.146-0.15,1.908-0.464
		C206.5,26.643,207.145,26.166,209.122,26.134L209.122,26.134z M209.602,20.083c0,0,1.947-0.363,2.291-0.48
		c0.331-0.119,1.427-0.23,2.323,0.079c0.691,0.236,0.866,1.049,0.868,1.292c0.001,0.243,0.035,1.123,0.075,1.339
		c0.041,0.23,0.048,0.956,0.08,1.531c0.018,0.573-0.096,1.926-0.007,2.296c0.108,0.354,0.57,0.874,0.625,1.078
		c0.053,0.219,0.002,0.421-0.34,0.399c-0.345-0.011-0.951-0.349-1.269-0.269c-0.329,0.066-0.732,0.707-1.024,0.951
		c-0.29,0.259-0.988,0.737-1.329,0.997c-0.265,0.193-0.533,0.4-0.735,0.452c-0.205,0.053-0.474,0.069-0.694-0.39
		c-0.224-0.469-0.251-0.979-0.23-1.234c0.011-0.255-0.07-0.74-0.07-0.74s0.244,0.036,0.333,0.022
		c0.078-0.026,0.137-0.308-0.008-0.815c-0.157-0.521-0.44-0.951-0.405-2.433c0.039-1.479,0.268-2.644,0.085-3.049
		c-0.169-0.409-0.477-0.532-0.542-0.722l-0.078-0.204C209.512,20.095,209.602,20.083,209.602,20.083z M206.81,12.239
		c-1.006,0.048-2.619,0.955-3.726,2.663c-0.994,1.488-0.582,1.739-0.31,2.055c0.269,0.318,1.424,1.06,1.681,1.249
		c0.259,0.189,1.1,0.257,1.1,0.257c-0.029-0.345-0.385-0.393-0.286-0.622c0.085-0.244,1.308-0.422,1.703-0.283
		c0.834,0.259,1.724,1.31,1.893,1.461c0.179,0.163,0.551,0.44,0.973,0.463c0.434,0.033,0.918-0.048,1.307-0.753
		c0.263-0.475,0.754-1.182,0.877-1.615c0.124-0.448,0.22-1.139,0.213-1.737c-0.007-0.6,0.021-1.851-0.032-2.041
		c-0.054-0.191-0.664-0.249-1.111-0.308c-0.447-0.061-1.675-0.354-2.251-0.463C208.267,12.453,207.818,12.178,206.81,12.239z
		 M196.907,13.122l0.295-0.014c0.265-0.042,0.415-0.31,0.531-0.528c0.112-0.204,0.378-0.464,0.825-0.353
		c0.447,0.096,0.512,0.135,1.061,0.22c0.537,0.097,1.233-0.319,1.771-0.184c1.29,0.332,1.235,1.148,1.24,1.685
		c0.005,0.549-0.586,1.166-1.723,2.798c-1.749,2.529-1.879,4.583-1.558,5.09c0.326,0.521,0.419,0.979,0.293,1.096
		c-0.127,0.103-0.243,0.103-0.343,0.218c-0.088,0.119-0.242,0.093-0.394,0.159c-0.331,0.158-0.838,0.354-1.693,0.247
		c-0.883-0.107-1.497-0.356-1.704-0.572c-0.925-0.959-1.308-2.31-1.509-3.289c-0.215-0.98,0.029-2.31,0.213-3.179
		c0.195-0.855,0.365-2.822,1.275-4.029c0.189-0.271,0.583-0.285,0.673-0.185c0,0-0.046,0.435,0.045,0.675
		c0.079,0.243,0.219,0.165,0.22,0.279c0.001,0.103,0.103,0.127,0.242,0.061C196.744,13.276,196.705,13.161,196.907,13.122
		L196.907,13.122z"/>
	<path fill="#231815" stroke="#FFFFFF" stroke-width="0.5" stroke-miterlimit="10" d="M236.218,15.835c0,0,2.585-0.774,6.306,0.511
		c0,0,1.242,0.554,2.031,1.474c0,0,0.336,1.271,0.071,1.534c0,0,0.161,0.788-2.669,0.743c0,0-1.841,0.337-2.102,0.6
		c-0.519,0.211-0.799,0.342-1.14,0.453c0,0,0.262,0.262,2.814-0.263c0,0,2.791-0.613,4.894-0.483c0,0,2.188,0.03,2.843,0.817
		c0.25,0.721,0.9,2.145,1.009,2.231c0.016-0.043-2.908,0.237-4.116-0.348c0,0,0.015-0.409,0.279-0.628c0,0,0.247-0.467-1.853-0.219
		c0,0-4.993,0.466-7.622,1.254c0.224,0-2.883,0.79-3.022,1.184c0,0,2.512,0.028,4.22,1.343c0,0,1.286,0.438,0.116,3.913
		c-0.001-0.006-0.45,1.52-1.634,3.414c0,0-1.386,1.973-1.518,2.365c0,0-1.957-0.482-4.848,2.41c-0.746-0.373-1.16-0.077-1.692,0.375
		c0.856-0.971,2.277-2.596,2.277-3.062c0-0.378-0.885,0.861-1.444,1.21c0.139-0.052,1.366-1.669,1.635-2.378
		c0,0,1.752-2.89,1.488-7.224c0,0,0.219-0.396-0.701-1.447c-0.103-0.068,0.073-0.219,0.467-0.395c0,0-0.088-0.308-1.515,0.133
		c0,0-0.701,0.51-2.149-0.147c0,0,0.103-0.277,0.511-0.511c-0.074,0.053,2.139-1.117,3.957-1.752
		c1.734-0.604,1.998-0.788,3.898-1.226c0.117,0.118,0.663-1.96-1.356-0.876c-0.249,0.134-0.527,0.374-0.921,0.541
		c0.024,0.017,0.535-0.335,0.951-0.813c0.444-0.513,0.999-0.874,1.298-1.056c0,0,0.012-2.833-1.752-3.591L236.218,15.835z
		 M273.637,37.555c-0.433-0.404-0.902-1.159-1.011-1.727c-0.161-0.84-0.073-1.092,0.302-1.092c0.514,0,0.976,1.109,0.976,1.109
		s0.927,0.492,0.883,0.743C274.693,37.132,273.75,37.561,273.637,37.555z M281.66,25.961c0,0-1.02-0.203-1.652-0.413
		c-0.627-0.21-3.878,0.246-6.104,2.896c-1.601,1.908-0.558,3.559,0.485,4.255c1.047,0.695,3.116,1.277,3.881,0.994
		c0.763-0.276,2.345-2.645,2.718-4.108C281.354,28.122,281.66,25.961,281.66,25.961z M273.527,14.128
		c-0.757,5.104-3.044,7.832-3.044,7.832s1.045-1.205,1.272-1.343c0.174-0.107,0.344,0.138,0.307,0.34
		c-0.03,0.199-0.12,0.409-0.12,0.409s0.822-0.935,1.118-0.941c0.495-0.011,0.406,0.402,0.939,0.419
		c0.907,0.036,1.603-1.414,1.603-1.414l1.014,0.126c1.146-2.393,3.574-2.7,3.574-2.7c-0.479,3.559-5.7,5.28-5.7,5.28
		s-0.735-0.422-0.968-0.337c-0.243,0.078-0.396,0.415-0.444,0.606c-0.049,0.186-0.673,1.513-0.875,1.95
		c-0.212,0.435-0.815,2.379-0.936,2.878c-0.118,0.491-0.738,4.526-0.835,5.866c-0.101,1.337-0.07,5.985,1.459,7.454
		c1.529,1.472,3.208,0.902,4.407-0.09c1.199-0.988,2.099-2.04,2.099-2.04s1.591,0.511,3.508,0.029
		c1.923-0.478,3.749-1.407,4.679-1.738c0.931-0.33,2.286-0.27,3-1.05c0.557-0.61,0.343-1.367,0.122-1.78
		c-0.757-1.411,0.274-1.386,0.274-1.386c-1.799,0.096-1.762-0.168-1.323-0.378c0.375-0.18,1.054-0.307,1.054-0.307
		s0.564-0.115,0.457-0.436c-0.091-0.265-0.398-0.487-0.056-0.765c0.241-0.197,1.087-0.532,1.087-0.532
		c-2.641,0.017-4.205,0.551-5.524,1.043c-1.321,0.497-2.506,1.354-3.238,1.758c-0.898,0.491-1.669,0.311-1.669,0.311
		c0.621-1.241,0.931-3.401,0.931-3.401s-0.481-1.497,0.051-2.788c0.516-1.289,0.787-3.047,0.477-3.438
		c-0.319-0.391-0.528-0.553-2.897-0.15c-2.372,0.408-3.808,1.716-4.618,2.347c-1.5,1.156-2.561,4.02-2.561,4.02
		c0.24-5.01,2.292-6.799,2.292-6.799s3.263-0.754,3.797-0.945c3.111-1.141,4.257-2.413,4.257-2.413l-0.019-1.499
		c-1.108-0.467-1.302-1.829-1.302-1.829s0.413-0.175,0.638-0.278c0.221-0.106,0.492-0.244,0.581-0.094
		c0.09,0.143,0,0.221,0.151,0.279c0.154,0.055,0.834-0.089,1.105-0.202c0.269-0.107,0.855-0.218,0.855-0.218
		c-0.563-0.599-0.816-1.077-0.816-1.077c-0.946,0.347-1.739,0.389-2.26,0.49c-0.518,0.107-1.484,0.498-2.119,0.857
		c-0.643,0.36-1.823,1.211-2.215,1.157c-0.269-0.042-0.197-0.268,0.085-0.492c0.278-0.215,0.426-0.305,0.577-0.688
		c0.151-0.378,1.56-1.608,1.733-2.017c0.166-0.414,0.181-0.939,0.181-0.939c-1.123-0.871-2.893-0.854-3.894-0.901
		c-0.998-0.048-2.513,0.025-2.513,0.025S273.792,12.341,273.527,14.128L273.527,14.128z M266.533,21.77
		c2.272,1.39,1.438,4.87,0.982,6.052c-0.451,1.181-1.114,2.296-1.633,2.471c-0.515,0.167-1.479-0.132-1.479-0.132
		s0.365,0.281-0.192,1.698c-0.967,2.451-0.151,3.281-0.151,3.281s1.03-0.219,1.307-0.283c0.283-0.067,1.632-1.582,2.063-2.142
		c0.428-0.558,0.708-1.523,0.966-2.679c0.336-1.502,0.77-4.115,0.493-6.378c-0.11-0.863-0.319-1.396-0.319-1.396
		s-0.143,0.102-0.51-0.096C267.51,21.871,266.533,21.77,266.533,21.77z M263.233,14.134c0,0,0.313-0.015,1.092-0.247
		c0.822-0.24,1.952-0.271,2.413,0.03c0.455,0.301,1.361,1.974,1.572,2.839c0.298,1.216-0.077,1.613-0.077,1.613
		s1.616-0.319,1.952-0.319c0.342,0,1.22,0.361,1.22,0.516c0,0.162,0,0.505-0.482,0.683c-0.479,0.183-1.337-0.059-1.755-0.082
		c-0.417-0.019-0.717,0-0.858,0.239c-0.138,0.241-0.077,0.763-0.138,0.943c-0.123,0.376-0.38,0.395-0.38,0.395
		s-0.076-0.678-0.197-0.978c-0.12-0.299-0.48-0.156-0.658,0c-0.182,0.161-0.539,0.918-0.84,1.236
		c-0.524,0.558-1.682,1.828-2.729,5.229c-1.681,5.383-1.405,12.013-1.405,12.013s-0.767-0.678-0.767-0.958
		c0-0.726,0.095-5.957,0.947-10.341c0.641-3.311,2.562-5.938,2.562-5.938s-2.029,1.015-2.456,1.368
		c-0.425,0.359-0.992,0.919-1.255,1.049c-0.259,0.126-0.458-0.084-0.705-0.018c-0.246,0.066-0.959,0.097-0.959,0.097
		s0.57-0.438,1.223-0.96c1.297-1.038,6.388-3.742,6.388-3.742l-0.587-0.979c-0.541-0.899-1.913-3.017-2.649-3.496
		C263.604,14.261,263.233,14.134,263.233,14.134L263.233,14.134z M251.41,25.523c0,0-0.687,0.391-0.917,0.48
		c-0.22,0.09-0.586,0.558-0.526,0.829c0.06,0.274,0.394,0.405,0.846,0.725c0.449,0.312,1.355,0.868,1.355,0.868
		s0.293,0.349,1.207-1.288c0.839-1.523,1.198-1.655,1.349-1.565c0.15,0.09,0.227,0.21,0.227,0.21
		c-0.78,0.57-1.067,1.788-1.245,2.435c-0.181,0.647-0.835,2.739-0.467,3.749c0.253,0.688,0.795,0.829,1.126,1.085
		c0.329,0.252,1.292,0.84,1.476,1.465c0.181,0.634-0.472,0.737-0.472,0.737s0.597-0.133,0.852,0.107
		c0.242,0.234,0.363,0.36,0.512,0.421c0.149,0.061,0.357,0.271,0.9,0.307c0.537,0.037,0.383-0.452,0.383-0.607
		c0-0.15-0.354-1.324-1.536-2.177c-1.078-0.78-1.962-0.852-2.255-1.08c-0.424-0.335-0.688-1.355-0.549-2.369
		c0.132-1.009,0.495-2.494,0.887-2.886c0.395-0.394,1.018-1.323,1.397-1.684c0.457-0.439,0.653-0.349,0.653-0.349
		s-0.09-0.105-0.119-0.279l-0.09-0.271c-0.023-0.097,0.013-0.204,0.013-0.204s-1.261,0.03-1.448,0.082
		c-0.193,0.056-0.178,0.114-0.403,0.168c-0.226,0.055-0.532,0.246-0.801,0.504c-0.273,0.252-0.521,0.815-1.531,1.146
		C250.506,26.645,251.41,25.523,251.41,25.523z M253.375,19.622c0,0,1.547,0.685,1.407,2.441c-0.04,0.642-0.67,0.814-1.097,1.068
		c-0.421,0.256-0.809,0.3-1.385,1.745c0,0-0.042-0.303-0.192-0.65c-0.148-0.346-0.197-1.636-0.018-2.343
		c0.188-0.709,0.606-1.835,0.05-2.322L253.375,19.622L253.375,19.622z M294.651,12.162c1.16,0,2.107,0.946,2.107,2.107
		c0,1.16-0.947,2.108-2.107,2.108c-1.162,0-2.107-0.948-2.107-2.108C292.544,13.108,293.489,12.162,294.651,12.162z M294.651,12.521
		c-0.962,0-1.75,0.785-1.75,1.748c0,0.962,0.788,1.747,1.75,1.747c0.962,0,1.748-0.785,1.748-1.747
		C296.399,13.307,295.613,12.521,294.651,12.521z M293.775,15.417h0.47V14.52h0.495c0.169,0,0.274,0.032,0.323,0.1
		c0.033,0.047,0.052,0.16,0.052,0.334l0.012,0.274l0.041,0.19h0.529v-0.061c-0.049-0.019-0.08-0.054-0.088-0.105
		c-0.012-0.053-0.015-0.171-0.015-0.353c0-0.198-0.024-0.339-0.072-0.421c-0.039-0.058-0.111-0.11-0.22-0.16
		c0.109-0.038,0.199-0.106,0.261-0.207c0.062-0.099,0.093-0.213,0.093-0.34c0-0.209-0.073-0.375-0.226-0.498
		c-0.121-0.101-0.285-0.149-0.495-0.149h-1.16L293.775,15.417L293.775,15.417z M294.245,14.132h0.561
		c0.13,0,0.224-0.023,0.282-0.072c0.06-0.047,0.09-0.127,0.09-0.242c0-0.078-0.022-0.144-0.06-0.193
		c-0.058-0.07-0.149-0.106-0.278-0.106h-0.597L294.245,14.132L294.245,14.132z"/>
	<path fill="#E50012" stroke="#FFFFFF" stroke-width="0.5" stroke-miterlimit="10" d="M232.242,48.871
		c-0.179-0.169-0.362-0.297-0.548-0.377c-0.183-0.087-0.381-0.127-0.585-0.127c-0.323,0-0.58,0.098-0.775,0.29
		c-0.193,0.196-0.293,0.455-0.293,0.78c0,0.315,0.091,0.568,0.278,0.754c0.186,0.19,0.436,0.284,0.75,0.284
		c0.188,0,0.379-0.04,0.575-0.119c0.196-0.08,0.409-0.204,0.639-0.38l-0.063,2.024c-0.214,0.087-0.428,0.15-0.64,0.193
		c-0.212,0.043-0.428,0.064-0.641,0.064c-0.266,0-0.522-0.03-0.767-0.089c-0.248-0.059-0.468-0.142-0.666-0.252
		c-0.48-0.271-0.846-0.618-1.091-1.038c-0.25-0.419-0.374-0.9-0.374-1.442c0-0.402,0.072-0.775,0.214-1.119
		c0.139-0.342,0.342-0.646,0.61-0.907c0.271-0.263,0.584-0.463,0.938-0.601c0.357-0.137,0.745-0.205,1.158-0.205
		c0.222,0,0.438,0.023,0.654,0.068c0.214,0.046,0.422,0.113,0.627,0.205L232.242,48.871L232.242,48.871z M249.883,48.927h3.004
		l0.011,0.246l0.003,0.144c0,0.309-0.031,0.59-0.09,0.843c-0.059,0.255-0.146,0.483-0.26,0.679
		c-0.276,0.461-0.638,0.812-1.076,1.058c-0.442,0.243-0.939,0.364-1.497,0.364c-0.413,0-0.795-0.068-1.15-0.205
		c-0.352-0.135-0.668-0.337-0.939-0.6c-0.272-0.265-0.477-0.566-0.615-0.907c-0.14-0.342-0.208-0.712-0.208-1.109
		c0-0.401,0.068-0.775,0.211-1.117c0.14-0.341,0.344-0.641,0.612-0.9c0.27-0.262,0.584-0.463,0.939-0.6s0.737-0.207,1.15-0.207
		c0.559,0,1.055,0.121,1.488,0.365c0.435,0.238,0.789,0.594,1.063,1.059l-1.397,0.494c-0.248-0.446-0.624-0.591-1.107-0.591
		c-0.762,0-1.232,0.584-1.232,1.485c0,0.9,0.471,1.46,1.232,1.46c0.622,0,1.047-0.312,1.223-0.979h-1.366L249.883,48.927
		L249.883,48.927z M268.374,52.116c-0.651-0.038-0.919-0.277-0.817-0.756l1.945-3.023h-1.906v-1.602h3.665
		c0.561,0.021,0.939,0.194,0.92,0.704l-1.931,3.02h2.104v1.657H268.374z M287.059,51.195v-4.461h1.965v3.636h1.906v1.746h-2.74
		C287.498,52.123,287.125,51.814,287.059,51.195z"/>
</g>
</svg>
