<?xml version="1.0" encoding="utf-8"?>
<!-- Generator: Adobe Illustrator 16.0.0, SVG Export Plug-In . SVG Version: 6.00 Build 0)  -->
<!DOCTYPE svg PUBLIC "-//W3C//DTD SVG 1.1//EN" "http://www.w3.org/Graphics/SVG/1.1/DTD/svg11.dtd">
<svg version="1.1" id="图层_1" xmlns="http://www.w3.org/2000/svg" xmlns:xlink="http://www.w3.org/1999/xlink" x="0px" y="0px"
	 width="640px" height="485px" viewBox="0 0 640 485" enable-background="new 0 0 640 485" xml:space="preserve">
<polygon fill="#EA5B1C" stroke="#FEBD91" stroke-miterlimit="10" points="640.75,55.97 -0.831,150.208 -0.831,303.562 
	640.123,208.98 "/>
<polygon fill="#F26818" points="640,56.72 562.509,68.333 470.335,233.334 640.127,208.001 "/>
<polygon fill="#F26818" points="239.001,115.665 -0.831,150.208 -0.831,302.832 108.096,286.762 "/>
<path fill="#FFFFFF" d="M59.236,184.765c-0.901,2.777-2.999,5.186-6.292,7.227c-0.301-0.464-0.729-1.002-1.284-1.618
	c2.632-1.317,4.434-3.116,5.404-5.398l-5.094,0.716l-0.248-1.764l7.252-1.019L59.236,184.765L59.236,184.765z M53.089,181.747
	l-1.266-9.005l5.439-0.765c0.063-0.387,0.133-0.933,0.21-1.639c0.013-0.317,0.041-0.542,0.082-0.674l2.357-0.142
	c-0.032,0.194-0.099,0.551-0.202,1.069c-0.112,0.458-0.18,0.815-0.202,1.07l8.289-1.165l1.266,9.005l-6.735,0.947l0.052,0.371
	c0.882,1.265,1.82,2.3,2.814,3.107c0.261-0.226,0.682-0.569,1.264-1.03c1.366-1.139,2.36-2.003,2.98-2.596l1.457,1.594
	c-1.424,1.146-2.804,2.192-4.138,3.137c1.547,0.982,3.495,1.687,5.844,2.114c-0.09,0.202-0.272,0.573-0.547,1.118
	c-0.179,0.404-0.288,0.67-0.327,0.803c-4-0.891-6.976-2.648-8.93-5.277l0.601,4.271c0.393,1.964-0.39,3.084-2.346,3.359
	c-0.682,0.158-1.484,0.303-2.404,0.433c-0.22-0.727-0.459-1.388-0.719-1.982c0.805-0.113,1.524-0.214,2.159-0.303
	c1.11-0.03,1.53-0.594,1.259-1.692l-1.005-7.148L53.089,181.747z M54.044,174.134l0.287,2.042l11.915-1.675l-0.287-2.042
	L54.044,174.134z M56.877,221.18l-2.557-18.196l2.331-0.328c0.022-0.254,0.061-0.607,0.115-1.058
	c0.134-0.712,0.21-1.639,0.226-2.777l2.211,0.068c-0.132,1.154-0.292,2.313-0.48,3.476l3.885-0.546l2.531,18.01l-1.899,0.267
	l-0.248-1.764l-4.403,0.619l0.274,1.95L56.877,221.18z M54.553,177.754l0.287,2.042l11.915-1.675l-0.287-2.042L54.553,177.754z
	 M56.592,204.747l0.718,5.106l4.403-0.619l-0.718-5.106L56.592,204.747z M57.597,211.896l0.744,5.292l4.403-0.619L62,211.277
	L57.597,211.896z M57.871,232.042l-0.261-1.857l5.267-0.74l-0.326-2.321l1.813-0.255l0.326,2.321l5.267-0.74l0.261,1.857
	l-5.267,0.74l0.339,2.414l4.576-0.643l0.718,5.106c0.257,1.417-0.248,2.212-1.513,2.39c-0.461,0.065-0.979,0.138-1.554,0.218
	l-0.68-1.703c0.173-0.024,0.407-0.024,0.704-0.004c0.229-0.032,0.402-0.057,0.518-0.073c0.575-0.081,0.824-0.399,0.746-0.957
	l-0.404-2.878l-2.849,0.4l0.979,6.963l0.66-0.945c1.719,0.958,3.294,1.937,4.727,2.933l-1.013,1.563
	c-0.646-0.413-1.708-1.085-3.188-2.013c-0.456-0.314-0.812-0.549-1.067-0.702l0.835,5.94l-1.813,0.256l-1.031-7.334
	c-0.896,2.397-2.209,4.54-3.939,6.422c-0.16-0.293-0.417-0.668-0.774-1.121c-0.216-0.284-0.363-0.484-0.437-0.602
	c2.107-2.126,3.676-4.745,4.707-7.857l-0.457-3.249l-2.677,0.376l0.757,5.385l-1.813,0.254l-1.018-7.241l4.49-0.631l-0.339-2.414
	L57.871,232.042z M72.133,218.847c-1.152,0.162-2.361,0.332-3.626,0.509c-0.154-0.674-0.402-1.396-0.745-2.167
	c0.756-0.044,1.883-0.17,3.38-0.38c1.628-0.103,2.326-0.989,2.091-2.661c-0.077-1.377-0.399-4.298-0.968-8.763
	c-0.126-1.307-0.227-2.24-0.305-2.797l-5.181,0.729c-0.152,0.589-0.413,1.447-0.783,2.571c-0.161,0.529-0.281,0.924-0.361,1.187
	c-0.57-0.298-1.198-0.589-1.883-0.872c1.007-2.854,1.689-5.729,2.046-8.618l2.051,0.185c-0.063,0.387-0.162,0.938-0.296,1.651
	c-0.126,0.775-0.221,1.356-0.283,1.744l6.389-0.898c0.557,3.961,1.093,8.62,1.612,13.974
	C75.645,216.9,74.598,218.436,72.133,218.847L72.133,218.847z M69.592,212.671c-0.35-0.392-0.873-0.981-1.569-1.768
	c-0.989-1.187-1.761-2.087-2.317-2.704l1.397-1.333c0.489,0.563,1.215,1.344,2.179,2.345c0.821,0.832,1.443,1.501,1.867,2.01
	L69.592,212.671z M73.287,242.751l-1.996-14.204l1.813-0.255l1.996,14.204L73.287,242.751z M77.358,247.291
	c-0.567,0.143-1.513,0.307-2.836,0.493c-0.221-0.728-0.463-1.419-0.732-2.074c0.699-0.036,1.509-0.118,2.431-0.247
	c1.159-0.102,1.645-0.609,1.458-1.529l-2.609-18.568l1.813-0.254l2.662,18.938C79.879,246.021,79.15,247.102,77.358,247.291
	L77.358,247.291z M77.466,203.712l-0.287-2.042l2.504-0.352l-0.613-4.363l2.072-0.291l0.613,4.363l3.885-0.546l-0.757-5.384
	l1.986-0.279l0.757,5.384l5.18-0.728l-0.757-5.384l1.986-0.279l0.757,5.384l2.849-0.4l0.287,2.042l-2.849,0.4l1.122,7.984
	l-9.152,1.287l-1.122-7.984l-3.885,0.546l1.644,11.698l15.541-2.184l0.274,1.949l-17.613,2.476L79.97,203.36L77.466,203.712z
	 M84.819,178.801l-0.431-3.063l-2.849,0.4l0.43,3.064L84.819,178.801z M97.709,244.335c-0.682,0.158-1.916,0.364-3.699,0.614
	c-0.009-0.062-0.018-0.125-0.026-0.186c-0.136-0.55-0.338-1.152-0.606-1.809c0.41,0.004,1.159-0.101,2.245-0.315
	c0.518-0.073,0.892-0.125,1.123-0.158c1.332-0.125,1.862-0.735,1.591-1.833l-0.405-2.878c-3.327,3.056-7.845,5.993-13.552,8.815
	c-0.385-0.641-0.796-1.277-1.237-1.909c4.497-1.83,8.381-4.049,11.655-6.655l-12.26,1.723l-0.261-1.857l2.677-0.376L83.4,226.465
	l4.921-0.691c0.142-0.65,0.264-1.458,0.364-2.418l2.284-0.037c-0.144,0.652-0.307,1.369-0.49,2.151l7.598-1.068l1.305,9.284
	c0.612-0.654,1.273-1.377,1.984-2.172l1.357,1.514c-0.359,0.367-0.923,0.95-1.69,1.752c-0.621,0.593-1.059,1.033-1.312,1.32
	l0.666,4.735C100.739,242.93,99.847,244.098,97.709,244.335L97.709,244.335z M85.56,228.055l0.287,2.042l10.792-1.517l-0.287-2.042
	L85.56,228.055z M86.056,231.583l0.287,2.042l10.792-1.517l-0.287-2.042L86.056,231.583z M97.299,235.777
	c0.155-0.147,0.257-0.256,0.306-0.327l-0.248-1.764l-10.792,1.517l0.287,2.042L97.299,235.777z M87.914,202.243l0.835,5.942
	l5.18-0.728l-0.835-5.941L87.914,202.243z M98.898,186.288l-2.896-20.61l15.627-2.196l2.896,20.61l-2.072,0.291l-0.222-1.578
	l-11.397,1.602l0.222,1.579L98.898,186.288z M98.447,167.417l0.9,6.406l11.397-1.602l-0.9-6.406L98.447,167.417z M99.635,175.865
	l0.926,6.591l11.397-1.602l-0.927-6.591L99.635,175.865z M115.739,213.006l-1.004-7.149l1.727-0.243
	c-1.734-0.639-3.367-1.609-4.899-2.909l0.246-0.129l-0.259,0.037c-1.075,1.54-2.406,2.927-3.994,4.159l1.64-0.23
	c0.078,0.557,0.129,1.34,0.154,2.345c-0.009-0.061,0,0,0.026,0.186c0.048,2.014-1.037,3.9-3.254,5.664
	c-0.579-0.361-1.192-0.748-1.836-1.162c2.145-1.438,3.152-2.841,3.018-4.21c0.013-0.317,0.002-0.82-0.036-1.51
	c0.013-0.317,0.008-0.569-0.018-0.755c-1.317,1.069-2.849,2.073-4.595,3.012c-0.076-0.115-0.188-0.289-0.337-0.521
	c-0.142-0.169-0.404-0.573-0.787-1.215c3.181-1.583,5.657-3.382,7.429-5.399l-5.958,0.837l-1.435-10.212l16.922-2.378l1.436,10.212
	l-6.044,0.85c2.01,1.359,4.864,2.251,8.564,2.678c-0.281,0.924-0.473,1.645-0.576,2.164c-1.93-0.359-3.636-0.814-5.122-1.363
	l0.979,6.963L115.739,213.006z M103.8,195.087l0.352,2.506l5.526-0.776l-0.353-2.507L103.8,195.087z M107.735,224.375
	c-0.348,0.87-1.039,2.008-2.073,3.416c-0.531-0.43-1.084-0.825-1.664-1.187c1.518-1.728,2.589-3.708,3.215-5.942l2.012-0.094
	c-0.193,0.723-0.421,1.385-0.688,1.991l5.785-0.813l0.235,1.671l-4.576,0.643c0.795,0.646,1.552,1.234,2.273,1.763l-1.212,1.401
	c-0.481-0.5-1.219-1.154-2.212-1.961l1.065-1.191L107.735,224.375L107.735,224.375z M104.387,199.265l0.353,2.506l5.525-0.777
	l-0.352-2.506L104.387,199.265z M106.32,229.97l-0.222-1.579l7.684-1.08l-0.195-1.393l1.985-0.279l0.196,1.392l7.857-1.104
	l0.222,1.578l-7.856,1.104l0.3,2.136l9.498-1.335l0.248,1.764l-20.721,2.912l-0.248-1.764l9.238-1.298l-0.3-2.135L106.32,229.97z
	 M106.626,237.785l-0.248-1.764l13.037-1.833l-0.248-1.764l1.986-0.279l0.248,1.764l4.231-0.595l0.248,1.764l-4.23,0.594
	l0.326,2.321c0.344,2.034-0.491,3.193-2.505,3.476c-1.325,0.186-2.389,0.336-3.195,0.449c-0.102-0.302-0.249-0.722-0.441-1.263
	c-0.102-0.302-0.19-0.51-0.264-0.625c1.045-0.085,1.999-0.187,2.862-0.308c1.217-0.109,1.718-0.715,1.505-1.821l-0.274-1.95
	l-8.634,1.213c0.38,0.2,0.959,0.561,1.737,1.082c0.834,0.514,1.417,0.905,1.75,1.174l-1.199,1.494
	c-0.977-0.684-2.143-1.465-3.5-2.349l1.039-1.376L106.626,237.785z M116.75,193.267l-5.526,0.776l0.353,2.507l5.526-0.777
	L116.75,193.267z M111.812,198.221l0.352,2.507l5.526-0.777l-0.352-2.507L111.812,198.221z M117.146,223.052
	c-0.299,0.799-0.737,1.651-1.314,2.551c-0.199-0.161-0.579-0.359-1.141-0.597c-0.257-0.153-0.447-0.252-0.57-0.298
	c1.165-1.741,1.94-3.522,2.331-5.345l2.012-0.093c-0.129,0.334-0.271,0.795-0.421,1.384c-0.081,0.265-0.142,0.462-0.181,0.594
	l6.475-0.91l0.235,1.671l-5.007,0.704c0.19,0.101,0.45,0.285,0.782,0.553c0.313,0.145,0.869,0.541,1.664,1.186l-1.039,1.377
	c-0.853-0.638-1.677-1.279-2.472-1.925l0.979-1.179L117.146,223.052L117.146,223.052z M116.328,168.12l-0.287-2.042l11.483-1.614
	c-0.275-1.538-0.517-3.051-0.726-4.537l2.072-0.291c0.038,0.69,0.182,1.711,0.431,3.064c0.096,0.682,0.166,1.176,0.209,1.485
	l7.166-1.007l0.287,2.042l-7.08,0.995c0.245,0.913,0.449,1.736,0.611,2.47c0.911,3.976,1.937,6.892,3.079,8.75
	c0.608,0.989,1.282,1.397,2.021,1.231c0.469-0.004,0.767-0.392,0.893-1.167c0.068-0.767,0.113-1.91,0.135-3.427
	c0.627,0.291,1.247,0.52,1.857,0.686c-0.004,1.643-0.103,2.824-0.294,3.544c-0.168,1.728-0.947,2.657-2.337,2.79
	c-1.489,0.271-2.891-0.73-4.208-3.006c-1.142-1.858-2.181-4.868-3.118-9.029c-0.043-0.309-0.134-0.738-0.269-1.288
	c-0.145-0.609-0.264-1.035-0.355-1.275L116.328,168.12z M117.776,173.408l-0.274-1.95l9.756-1.371l0.274,1.95l-3.885,0.546
	l0.822,5.849c0.624-0.149,1.556-0.408,2.797-0.771c0.846-0.245,1.466-0.427,1.86-0.545c0.079,0.557,0.174,1.239,0.287,2.042
	c-2.844,0.652-6.438,1.598-10.782,2.84l-0.693-1.796c0.846-0.245,2.345-0.645,4.498-1.2l-0.861-6.127L117.776,173.408z
	 M123.136,193.124l-0.274-1.95l7.338-1.032l0.274,1.95l-2.332,0.328l2.153,15.318c0.292,1.663-0.396,2.612-2.065,2.846
	c-0.625,0.15-1.282,0.275-1.973,0.372c-0.119-0.426-0.325-1.06-0.62-1.901c0.633-0.089,1.179-0.166,1.641-0.231
	c0.805-0.113,1.123-0.567,0.953-1.364l-2.075-14.761L123.136,193.124z M129.442,226.057c-0.033,1.015-0.102,1.782-0.205,2.301
	c-0.19-0.099-0.5-0.213-0.929-0.343c-0.239-0.028-0.421-0.066-0.544-0.113c0.363-2.006,0.438-4.606,0.225-7.795l1.494-0.021
	c-0.014,0.319-0.007,0.791,0.023,1.417c-0.02,0.698-0.037,1.205-0.05,1.521l1.641-0.23l-0.718-5.106l1.899-0.267l0.718,5.106
	l1.986-0.279l0.274,1.95l-1.986,0.279l0.64,4.549l1.894-0.929c0.122,0.867,0.279,1.57,0.473,2.111l-2.067,0.953l1.174,8.355
	l-1.899,0.267l-1.096-7.798l-3.37,1.705l-0.572-2.192l3.643-1.648l-0.718-5.106l-1.813,0.255
	C129.535,225.255,129.496,225.608,129.442,226.057L129.442,226.057z M133.702,163.312c-0.946-0.876-1.968-1.679-3.068-2.41
	l1.225-1.308c1.357,0.883,2.403,1.65,3.141,2.304L133.702,163.312z M131,191.451l-0.261-1.857l12.691-1.784l0.261,1.857
	l-5.785,0.813l-0.2,2.963l5.526-0.777l1.553,11.048l-1.899,0.267l-1.292-9.191l-7.684,1.08l1.318,9.376l-1.899,0.267l-1.579-11.233
	l3.885-0.546l0.2-2.963L131,191.451z M145.245,208.856c-0.787-0.584-2.177-1.493-4.169-2.727c-0.902-0.567-1.576-0.977-2.021-1.231
	c-0.555,1.909-2.507,3.886-5.857,5.936c-0.076-0.117-0.292-0.401-0.648-0.856c-0.358-0.456-0.607-0.766-0.748-0.936
	c2.624-1.377,4.259-2.681,4.91-3.909c0.772-1.181,0.977-3.072,0.611-5.671l-0.266-2.519l1.899-0.267l0.253,2.426
	c0.2,1.424,0.262,2.708,0.189,3.855c1.662,0.966,3.993,2.312,6.994,4.035L145.245,208.856z M136.212,221.603l-0.261-1.857
	l4.49-0.631l-0.404-2.878l1.986-0.279l0.404,2.878l4.576-0.643l0.261,1.857l-4.576,0.643l0.431,3.063l5.439-0.764l0.261,1.856
	l-12.778,1.796l-0.261-1.856l5.353-0.752l-0.43-3.063L136.212,221.603z M136.865,231.262l-0.261-1.857l7.943-1.116l-0.274-1.95
	l1.899-0.267l0.274,1.95l2.763-0.389l0.261,1.857l-2.763,0.388l0.679,4.828c0.317,1.849-0.444,2.902-2.285,3.161
	c-0.913,0.19-1.858,0.356-2.836,0.493c-0.102-0.302-0.253-0.754-0.455-1.356c-0.102-0.302-0.194-0.541-0.277-0.718
	c0.583-0.02,1.423-0.105,2.517-0.259c1.036-0.146,1.493-0.652,1.372-1.518l-0.613-4.363L136.865,231.262z M140.837,235.721
	c-0.066-0.053-0.138-0.138-0.212-0.254c-1.162-1.162-2.102-2.008-2.822-2.538l1.125-1.389c1.117,0.854,2.182,1.745,3.193,2.675
	L140.837,235.721z M140.07,165.358c-0.25-0.533-0.619-1.27-1.103-2.211c-0.484-0.941-0.848-1.647-1.09-2.119l1.316-0.658
	c0.233,0.41,0.554,1.027,0.965,1.853c0.559,1.057,0.969,1.884,1.229,2.478L140.07,165.358z M139.059,168.813l-0.261-1.857
	l3.454-0.485l-1.2-8.542l1.899-0.267l1.2,8.541l3.281-0.461l0.261,1.856l-3.281,0.461l0.339,2.414l0.586-0.84
	c1.457,1.184,2.555,2.103,3.293,2.756l-1.086,1.667c-0.68-0.662-1.56-1.485-2.636-2.47l1.161,8.263l-1.899,0.267l-1.187-8.448
	c-0.546,1.97-1.296,3.938-2.252,5.902c-0.075-0.115-0.164-0.323-0.264-0.625c-0.225-0.347-0.476-0.88-0.753-1.598
	c1.177-2.059,2.053-4.391,2.626-6.996L139.059,168.813z M146.882,159.951c-0.43,1.954-0.825,3.524-1.187,4.711l-1.374-0.375
	c0.407-1.698,0.77-3.294,1.087-4.792L146.882,159.951L146.882,159.951z M153.168,200.168c-2.219,0.501-3.632,0.889-4.239,1.164
	l-0.965-1.853c0.376-0.242,0.816-0.872,1.319-1.89c0.528-0.832,1.007-1.813,1.435-2.947c-1.2,0.232-2.223,0.471-3.069,0.715
	l-0.878-1.864c0.293-0.42,0.613-1.064,0.961-1.934c0.663-1.544,1.283-3.399,1.859-5.563l2.077,0.371
	c-0.041,0.133-0.129,0.334-0.267,0.605c-1.024,2.732-1.825,4.77-2.398,6.112c0.172-0.024,0.518-0.073,1.036-0.146
	c0.739-0.166,1.252-0.271,1.541-0.311c0.405-0.876,0.743-1.809,1.016-2.794l1.943,0.674c-0.712,1.615-1.863,4.081-3.451,7.396
	c-0.228,0.474-0.385,0.812-0.474,1.013l3.833-0.917c-0.02,0.698,0.01,1.324,0.088,1.881
	C154.191,199.929,153.734,200.026,153.168,200.168L153.168,200.168z M152.179,163.183c-0.257-0.154-0.613-0.387-1.067-0.702
	c-1.118-0.852-2.028-1.481-2.73-1.889l1.013-1.563c0.132,0.109,0.354,0.234,0.669,0.379c1.357,0.883,2.394,1.59,3.115,2.118
	L152.179,163.183z M154.99,204.361c-1.972,0.594-3.958,1.281-5.96,2.069l-0.619-1.901c0.557-0.205,1.457-0.489,2.697-0.853
	c1.567-0.536,2.771-0.958,3.608-1.265C154.812,203.093,154.903,203.743,154.99,204.361L154.99,204.361z M152.357,168.838
	c-0.456-0.314-1.101-0.729-1.936-1.243c-0.844-0.575-1.49-0.989-1.936-1.243l0.927-1.55c0.19,0.101,0.479,0.28,0.869,0.541
	c1.396,0.75,2.421,1.364,3.076,1.84L152.357,168.838z M149.318,173.525l-0.546-2.006l6.458-1.665l-1.918-13.647l2.072-0.292
	l1.892,13.461l2.797-0.772l0.374,2.031l-2.883,0.784l0.939,6.684l-2.072,0.292l-0.9-6.406L149.318,173.525z M152.452,223.293
	c-0.406-0.383-0.938-0.815-1.59-1.291c2.458-2.554,4.306-5.275,5.544-8.164l2.284-0.037c-0.09,0.202-0.248,0.541-0.474,1.014
	c-0.178,0.403-0.336,0.742-0.474,1.013l8.288-1.165l0.248,1.764l-2.026,3.125l5.094-0.716l1.109,7.891l-14.419,2.026l0.444,3.157
	c0.116,1.247,0.894,1.768,2.333,1.565l9.843-1.383c1.504-0.149,2.232-0.818,2.183-2.011c-0.018-0.124,0-0.41,0.055-0.86
	c0.01-0.759,0.014-1.358,0.011-1.8c0.791,0.205,1.455,0.333,1.991,0.383c0.026,0.186,0.031,0.438,0.018,0.755
	c0.032,1.069-0.007,1.833-0.119,2.289c-0.102,1.781-1.28,2.798-3.533,3.053l-10.792,1.517c-2.353,0.393-3.66-0.559-3.923-2.856
	l-1.409-10.027L152.452,223.293z M163.792,202.461c-1.231,1.688-2.717,3.222-4.46,4.603c-0.707-0.847-1.225-1.406-1.556-1.675
	c1.769-1.195,3.244-2.601,4.425-4.219c-1.568-1.546-2.887-3.412-3.956-5.598c0.427,4.295-0.346,8.19-2.32,11.687
	c-0.208-0.224-0.605-0.546-1.192-0.969c-0.199-0.161-0.365-0.296-0.497-0.403c1.168-2.12,1.874-4.207,2.113-6.261
	c0.24-2.053,0.09-4.998-0.449-8.836l-0.279-2.611l-1.813,0.254l-0.274-1.95l10.706-1.504l0.3,2.135l-1.386,4.55l3.54-0.498
	l0.274,1.95c-0.349,2.952-1.078,5.485-2.19,7.597c1.383,1.069,2.969,1.918,4.761,2.55c-0.317,0.675-0.595,1.409-0.835,2.2
	C166.736,204.415,165.099,203.414,163.792,202.461L163.792,202.461z M163.701,216.884l-7.08,0.995
	c-0.676,1.042-1.384,2.057-2.125,3.044l7.252-1.02L163.701,216.884z M155.201,222.813l0.574,4.085l5.267-0.74l-0.574-4.085
	L155.201,222.813z M157.742,189.49c0.026,0.186,0.065,0.464,0.117,0.835c-0.005,0.379,0.005,0.662,0.031,0.848
	c1.5,3.576,3.267,6.326,5.297,8.25c0.836-1.569,1.43-3.609,1.781-6.12l-3.54,0.498l-0.274-1.95l1.373-4.642l-5.007,0.704
	L157.742,189.49z M160.206,158.928l-0.274-1.95l6.734-0.946l0.274,1.95l-2.417,0.34l0.822,5.849l2.331-0.328l0.261,1.857
	l-2.331,0.328l0.848,6.035c0.779-0.299,1.588-0.602,2.425-0.909c-0.014,0.319,0.051,0.783,0.196,1.393
	c0.044,0.311,0.074,0.527,0.091,0.65c-0.164,0.087-0.414,0.186-0.751,0.295c-2.423,0.719-4.353,1.4-5.788,2.044l-0.619-1.901
	c0.278-0.101,0.726-0.259,1.342-0.473c0.557-0.204,0.976-0.357,1.256-0.46l-0.9-6.406l-2.331,0.328l-0.261-1.856l2.332-0.328
	l-0.822-5.849L160.206,158.928z M167.634,221.065l-5.181,0.728l0.574,4.084l5.18-0.728L167.634,221.065z M169.557,170.963
	l-0.248-1.764l5.18-0.728l-0.365-2.6l-4.921,0.692l-1.592-11.327l11.829-1.662l1.591,11.326l-5.007,0.704l0.365,2.599l5.267-0.74
	l0.248,1.764l-5.267,0.74l0.391,2.785l6.13-0.862l0.261,1.857l-14.418,2.026l-0.261-1.857l6.389-0.898l-0.391-2.785L169.557,170.963
	z M169.97,186.451l-0.235-1.671l8.979-1.262c-0.251-0.533-0.502-1.065-0.753-1.598l2.305-0.514c0.25,0.533,0.51,1.128,0.779,1.784
	l8.807-1.238l0.235,1.671L169.97,186.451z M169.771,156.827l0.417,2.971l3.022-0.425l-0.417-2.971L169.771,156.827z
	 M170.424,161.468l0.431,3.064l3.022-0.425l-0.431-3.064L170.424,161.468z M180.833,199.219c-0.798,0.176-1.973,0.372-3.527,0.59
	c-0.043-0.309-0.199-0.792-0.468-1.449c0.233,0.41,0.191,0.321-0.125-0.266c0.699-0.035,1.71-0.146,3.035-0.332
	c1.036-0.146,1.468-0.616,1.298-1.413l-0.157-1.114l4.467-2.048l-13.21,1.856l-0.235-1.671l16.922-2.378l0.261,1.856l-6.102,2.94
	l0.104,0.743C183.372,198.074,182.617,198.969,180.833,199.219L180.833,199.219z M174.694,203.774
	c-0.21,0.598-0.355,1.027-0.435,1.292c-0.125-0.046-0.306-0.084-0.544-0.113c-0.611-0.167-1.064-0.262-1.36-0.282
	c0.711-1.615,1.24-3.077,1.584-4.388l1.964,0.197C175.663,201.271,175.259,202.37,174.694,203.774L174.694,203.774z
	 M173.184,191.774l-0.6-4.271l15.196-2.136l0.6,4.271L173.184,191.774z M177.801,155.698l-3.108,0.437l0.417,2.971l3.108-0.437
	L177.801,155.698z M174.765,188.617l0.208,1.485l11.311-1.589l-0.209-1.485L174.765,188.617z M175.345,160.777l0.431,3.063
	l3.108-0.437l-0.431-3.063L175.345,160.777z M178.752,233.229l-2.896-20.61l15.627-2.196l2.896,20.609l-2.072,0.292l-0.222-1.578
	l-11.397,1.602l0.222,1.578L178.752,233.229z M179.314,204.072c-0.437-1.013-0.971-2.104-1.605-3.277l1.761-0.626
	c0.167,0.355,0.405,0.795,0.714,1.32c0.467,0.817,0.792,1.465,0.978,1.945L179.314,204.072z M178.301,214.358l0.9,6.406
	l11.396-1.602l-0.9-6.406L178.301,214.358z M179.488,222.806l0.926,6.591l11.397-1.602l-0.927-6.591L179.488,222.806z
	 M187.515,154.046c-1.67,0.235-2.931,0.445-3.786,0.627l-0.494-1.635c6.331-0.89,12.127-1.83,17.388-2.822l0.481,1.542
	c-1.604,0.289-4.18,0.746-7.731,1.371l0.248,1.764l9.411-1.322l0.222,1.578l-9.411,1.323l0.222,1.578l7.166-1.007l0.47,3.342
	l2.245-0.315l0.222,1.578l-2.245,0.316l0.483,3.435l-6.13,0.862c2.2,1.458,5.195,2.299,8.983,2.524
	c-0.308,0.737-0.566,1.405-0.775,2.002c-4.146-0.68-7.184-1.83-9.113-3.453l0.77,5.478l-1.986,0.279l-0.77-5.478
	c-1.639,2.124-4.201,4.155-7.684,6.097c-0.084-0.177-0.333-0.49-0.748-0.936c-0.225-0.347-0.409-0.605-0.549-0.775
	c3.332-1.352,5.936-3.074,7.814-5.169l-6.821,0.958l-0.209-1.485l7.857-1.104l-0.274-1.95l-9.238,1.299l-0.222-1.578l9.238-1.299
	l-0.261-1.856l-7.684,1.08l-0.209-1.485l7.685-1.08l-0.222-1.578l-9.238,1.298l-0.222-1.579l9.238-1.298l-0.248-1.764
	C190.524,153.529,189.233,153.743,187.515,154.046L187.515,154.046z M184.827,203.202c-0.793-1.467-1.448-2.573-1.963-3.321
	l1.675-0.614c0.648,0.855,1.355,1.923,2.123,3.204L184.827,203.202z M190.797,202.458c-0.882-1.265-1.851-2.516-2.905-3.757
	l1.735-0.812c1.055,1.241,2.047,2.458,2.979,3.652L190.797,202.458z M200.023,188c-0.544-0.113-1.142-0.186-1.792-0.222l0.739-3.512
	l-3.108,0.437c-0.368,1.566-0.869,3.215-1.506,4.945c-0.393-0.702-0.813-1.401-1.263-2.095c0.797-2.257,1.357-4.956,1.68-8.094
	l2.038,0.092c-0.023,0.256-0.085,0.644-0.189,1.163c-0.006,0.379-0.115,1.057-0.33,2.034l4.144-0.582l0.248,1.764L200.023,188z
	 M199.454,158.806l-5.18,0.728l0.261,1.857l5.18-0.728L199.454,158.806z M194.756,162.969l0.274,1.95l5.18-0.728l-0.274-1.95
	L194.756,162.969z M199.262,200.131c-0.254,0.287-0.53,0.61-0.832,0.969l-1.417-1.315c0.399-0.498,0.551-1.086,0.456-1.768
	l-1.448-10.305l1.813-0.254l1.409,10.026c0.156-0.147,0.388-0.37,0.699-0.667c0.368-0.303,0.932-0.888,1.691-1.752
	c0.228,0.789,0.418,1.52,0.572,2.191c-0.254,0.289-0.666,0.694-1.238,1.215c-0.679,0.6-1.199,1.083-1.557,1.45
	C199.359,199.99,199.31,200.061,199.262,200.131L199.262,200.131z M197.285,214.914l-0.287-2.042l11.483-1.614
	c-0.275-1.539-0.517-3.052-0.726-4.537l2.072-0.291c0.038,0.69,0.182,1.711,0.431,3.063c0.096,0.682,0.166,1.176,0.209,1.485
	l7.166-1.007l0.287,2.042l-7.08,0.995c0.245,0.913,0.449,1.736,0.611,2.47c0.911,3.976,1.937,6.892,3.079,8.75
	c0.608,0.988,1.282,1.396,2.021,1.23c0.469-0.004,0.767-0.392,0.893-1.167c0.068-0.768,0.113-1.91,0.135-3.427
	c0.627,0.291,1.247,0.52,1.857,0.686c-0.004,1.643-0.103,2.823-0.294,3.544c-0.168,1.728-0.947,2.656-2.337,2.79
	c-1.489,0.271-2.891-0.729-4.208-3.006c-1.142-1.859-2.181-4.868-3.118-9.029c-0.043-0.309-0.134-0.739-0.269-1.288
	c-0.145-0.609-0.264-1.035-0.355-1.275L197.285,214.914z M198.733,220.201l-0.274-1.949l9.756-1.371l0.274,1.949l-3.885,0.546
	l0.822,5.849c0.624-0.15,1.556-0.408,2.797-0.772c0.846-0.245,1.466-0.426,1.86-0.545c0.079,0.557,0.174,1.239,0.287,2.042
	c-2.844,0.653-6.438,1.599-10.782,2.841l-0.693-1.796c0.846-0.245,2.345-0.645,4.498-1.2l-0.861-6.127L198.733,220.201z
	 M201.477,182.684c-0.162-0.734-0.373-1.399-0.632-1.994c3.091-0.56,6.933-1.416,11.525-2.566l0.632,1.994
	c-1.586,0.412-3.233,0.802-4.942,1.168l0.887,6.313l5.526-0.777l0.3,2.135l-5.525,0.777l0.979,6.963l5.094-0.716l0.261,1.857
	l-12.087,1.699l-0.261-1.856l5.008-0.704l-0.979-6.963l-5.612,0.789l-0.3-2.135l5.612-0.789l-0.861-6.127L201.477,182.684z
	 M210.831,157.017c0.152,4.839-0.893,8.898-3.131,12.179l-1.543-1.582c2.003-2.869,2.956-6.316,2.861-10.342l-3.454,0.485
	l-0.261-1.857l5.267-0.74L210.831,157.017L210.831,157.017z M212.045,157.509l-0.235-1.671l2.504-0.352L214,153.258l4.422-2.988
	l-11.828,1.662l-0.274-1.949l15.109-2.124l0.3,2.135l-5.514,3.994l0.169,1.207l2.332-0.328l0.235,1.671l-2.332,0.328l0.287,2.042
	l2.59-0.364l0.248,1.764l-2.59,0.364l0.3,2.135l3.54-0.498l0.235,1.671l-3.54,0.497l0.274,1.95c0.393,1.964-0.417,3.088-2.432,3.372
	c-1.094,0.153-2.188,0.307-3.281,0.461c-0.22-0.727-0.459-1.388-0.719-1.982c0.978-0.137,1.928-0.271,2.849-0.4
	c1.217-0.109,1.699-0.649,1.445-1.623l-0.208-1.485l-3.713,0.522l-0.235-1.671l3.713-0.521l-0.3-2.136l-2.849,0.401l-0.248-1.764
	l2.849-0.4l-0.287-2.042L212.045,157.509z M214.659,210.105c-0.946-0.876-1.968-1.679-3.068-2.409l1.225-1.309
	c1.357,0.883,2.403,1.65,3.141,2.304L214.659,210.105z M219.43,184.04c-1.044-1.999-2.1-3.871-3.167-5.614l1.636-0.893
	c1.172,1.667,2.277,3.467,3.313,5.404L219.43,184.04z M221.977,187.753c-0.622,3.938-1.05,7.153-1.286,9.647l-2.189-0.544
	c0.516-2.596,0.953-5.75,1.312-9.462c0.182,0.038,0.454,0.094,0.816,0.169C221.174,187.676,221.623,187.74,221.977,187.753
	L221.977,187.753z M225.905,166.543c-3.472-2.982-5.67-7.345-6.593-13.085l1.614-0.416c0.254,0.975,0.471,1.891,0.65,2.749
	c1.029-1.028,1.915-2.036,2.657-3.024l1.43,1.408c-0.4,0.498-1.037,1.187-1.91,2.067c-0.613,0.654-1.1,1.165-1.458,1.53
	c0.901,2.651,2.548,4.976,4.942,6.974L225.905,166.543z M222.13,211.988c-0.25-0.533-0.618-1.27-1.103-2.212
	c-0.484-0.94-0.848-1.646-1.09-2.119l1.316-0.658c0.233,0.409,0.554,1.027,0.965,1.853c0.559,1.058,0.969,1.884,1.229,2.478
	L222.13,211.988z M221.12,215.444l-0.261-1.856l3.454-0.486l-1.2-8.541l1.899-0.267l1.2,8.541l3.281-0.461l0.261,1.856l-3.281,0.461
	l0.339,2.414l0.586-0.84c1.457,1.185,2.555,2.103,3.293,2.756l-1.086,1.667c-0.68-0.662-1.56-1.485-2.636-2.469l1.161,8.262
	l-1.899,0.267l-1.187-8.448c-0.546,1.97-1.296,3.938-2.252,5.902c-0.075-0.115-0.164-0.323-0.264-0.626
	c-0.225-0.347-0.476-0.88-0.753-1.598c1.177-2.059,2.053-4.391,2.626-6.996L221.12,215.444z M225.497,197.767l-1.931-13.74
	c-0.463,0.886-0.95,1.807-1.461,2.762c-0.177-0.417-0.493-1.003-0.952-1.76c-0.133-0.107-0.203-0.192-0.212-0.254
	c1.707-2.891,2.872-6.084,3.496-9.58l2.15,0.266c-0.305,1.179-0.682,2.463-1.131,3.851l4.921-0.691
	c-0.551-0.995-1.23-2.067-2.037-3.216l1.834-0.731c0.789,1.025,1.501,2.125,2.136,3.297l-1.33,0.565l5.699-0.801l0.248,1.764
	l-5.094,0.716l0.443,3.157l4.835-0.68l0.248,1.764l-4.835,0.679l0.443,3.157l4.835-0.68l0.261,1.857l-4.835,0.679l0.443,3.157
	l5.267-0.74l0.235,1.671l-11.915,1.675l0.222,1.578L225.497,197.767z M225.187,181.148l0.444,3.157l4.662-0.655l-0.443-3.157
	L225.187,181.148z M225.878,186.068l0.443,3.156l4.663-0.655l-0.444-3.156L225.878,186.068z M228.942,206.582
	c-0.43,1.954-0.825,3.524-1.187,4.711l-1.374-0.375c0.407-1.698,0.77-3.294,1.087-4.792L228.942,206.582L228.942,206.582z
	 M226.583,191.082l0.443,3.157l4.662-0.656l-0.443-3.156L226.583,191.082z M234.239,209.813c-0.257-0.153-0.613-0.387-1.067-0.702
	c-1.118-0.852-2.028-1.481-2.73-1.888l1.013-1.563c0.132,0.108,0.354,0.234,0.669,0.379c1.357,0.883,2.394,1.59,3.115,2.119
	L234.239,209.813z M234.417,215.468c-0.456-0.314-1.101-0.728-1.936-1.243c-0.844-0.575-1.49-0.989-1.936-1.243l0.927-1.55
	c0.19,0.101,0.479,0.28,0.869,0.541c1.396,0.75,2.421,1.363,3.076,1.84L234.417,215.468z M231.378,220.156l-0.546-2.006l6.458-1.665
	l-1.918-13.647l2.072-0.291l1.892,13.461l2.797-0.771l0.374,2.03l-2.883,0.784l0.939,6.685l-2.072,0.291l-0.9-6.406L231.378,220.156
	z M239.026,148.421c-0.305-2.166,0.188-3.875,1.48-5.131l0.881,0.633c-0.923,0.951-1.301,2.235-1.131,3.851l1.468-0.206l0.417,2.971
	l-2.763,0.388C239.309,150.433,239.191,149.597,239.026,148.421L239.026,148.421z M242.012,188.824l-2.048-14.575l9.756-1.371
	l2.048,14.575l-1.813,0.255l-1.774-12.626l-6.13,0.861l1.774,12.626L242.012,188.824z M247.056,189.63
	c-0.505,1.839-1.848,3.763-4.031,5.773c-0.067-0.054-0.199-0.161-0.397-0.323c-0.491-0.563-0.873-0.982-1.146-1.259
	c1.946-1.599,3.149-3.061,3.609-4.389c0.476-1.203,0.547-3.201,0.214-5.994c-0.27-1.917-0.552-3.93-0.848-6.035l1.899-0.267
	c0.383,2.724,0.636,4.739,0.762,6.046c0.3,1.726,0.362,3.2,0.182,4.424c0.711,0.468,2.005,1.328,3.884,2.579
	c1.158,0.722,1.931,1.21,2.32,1.473l-1.146,1.865c-0.531-0.431-1.544-1.172-3.042-2.224
	C248.264,190.502,247.51,189.945,247.056,189.63L247.056,189.63z M242.998,147.862c-0.305-2.166,0.16-3.871,1.394-5.118l0.968,0.621
	c-0.923,0.951-1.301,2.234-1.132,3.851l1.382-0.194l0.417,2.971l-2.677,0.376C243.28,149.875,243.163,149.039,242.998,147.862
	L242.998,147.862z M243.37,205.403l-0.274-1.95l6.734-0.947l0.274,1.95l-2.417,0.34l0.822,5.849l2.331-0.328l0.261,1.857
	l-2.331,0.328l0.848,6.035c0.779-0.299,1.588-0.602,2.425-0.909c-0.014,0.319,0.051,0.783,0.196,1.393
	c0.044,0.311,0.074,0.527,0.091,0.65c-0.164,0.087-0.414,0.186-0.751,0.295c-2.423,0.719-4.353,1.4-5.788,2.044l-0.619-1.901
	c0.278-0.101,0.726-0.259,1.342-0.473c0.557-0.204,0.976-0.357,1.256-0.46l-0.9-6.406l-2.331,0.328l-0.261-1.857l2.332-0.328
	l-0.822-5.849L243.37,205.403z M250.528,151.346c-0.406-0.384-0.938-0.815-1.59-1.291c2.458-2.554,4.306-5.275,5.544-8.164
	l2.284-0.037c-0.09,0.202-0.248,0.541-0.474,1.013c-0.178,0.404-0.336,0.743-0.474,1.013l8.288-1.165l0.248,1.764l-2.026,3.125
	l5.094-0.716l1.109,7.891l-14.419,2.026l0.444,3.156c0.116,1.247,0.894,1.768,2.333,1.566l9.843-1.383
	c1.504-0.149,2.232-0.818,2.183-2.011c-0.018-0.124,0-0.41,0.055-0.86c0.01-0.759,0.014-1.358,0.011-1.8
	c0.791,0.205,1.455,0.332,1.991,0.382c0.026,0.186,0.031,0.438,0.018,0.755c0.032,1.07-0.007,1.833-0.119,2.289
	c-0.102,1.781-1.28,2.798-3.533,3.053l-10.792,1.517c-2.353,0.393-3.66-0.56-3.923-2.856l-1.409-10.026L250.528,151.346z
	 M252.721,217.438l-0.248-1.764l5.18-0.728l-0.365-2.6l-4.921,0.692l-1.592-11.327l11.829-1.662l1.591,11.326l-5.007,0.704
	l0.365,2.6l5.267-0.74l0.248,1.764l-5.267,0.74l0.391,2.785l6.13-0.861l0.261,1.857l-14.418,2.026l-0.261-1.857l6.389-0.898
	l-0.391-2.785L252.721,217.438z M254.351,187.658l-1.931-13.74l1.899-0.267l1.931,13.74L254.351,187.658z M261.777,144.937
	l-7.08,0.995c-0.676,1.042-1.384,2.057-2.125,3.044l7.252-1.02L261.777,144.937z M252.936,203.301l0.417,2.971l3.022-0.425
	l-0.417-2.971L252.936,203.301z M253.277,150.865l0.574,4.084l5.267-0.74l-0.574-4.085L253.277,150.865z M253.588,207.943
	l0.431,3.064l3.022-0.425l-0.431-3.064L253.588,207.943z M258.673,192.731c-0.979,0.137-2.016,0.283-3.108,0.437
	c-0.026-0.186-0.127-0.488-0.303-0.904c-0.137-0.549-0.255-0.975-0.355-1.275c0.526-0.012,1.451-0.109,2.776-0.295
	c1.168-0.039,1.616-0.606,1.345-1.704l-2.531-18.011l1.899-0.267l2.609,18.567C261.407,191.306,260.629,192.457,258.673,192.731
	L258.673,192.731z M260.965,202.173l-3.108,0.437l0.417,2.971l3.108-0.437L260.965,202.173z M258.509,207.251l0.431,3.064
	l3.108-0.437l-0.431-3.063L258.509,207.251z M265.71,149.118l-5.18,0.728l0.574,4.085l5.18-0.728L265.71,149.118z M270.562,187.271
	c0.305,2.166-0.218,3.88-1.566,5.143l-0.894-0.727c0.923-0.951,1.299-2.234,1.131-3.851l-1.468,0.206l-0.431-3.063l2.849-0.4
	C270.253,185.075,270.379,185.971,270.562,187.271L270.562,187.271z M274.576,215.792c0.305,2.166-0.218,3.879-1.566,5.143
	l-0.894-0.727c0.923-0.951,1.299-2.234,1.131-3.851l-1.468,0.206l-0.431-3.063l2.849-0.4
	C274.267,213.596,274.393,214.493,274.576,215.792L274.576,215.792z M275.232,161.695l-2.714-19.311l5.699-0.801
	c0.013-0.317,0.068-0.767,0.163-1.348c0.068-0.767,0.109-1.308,0.124-1.627l2.357-0.142c-0.006,0.38-0.072,0.958-0.197,1.732
	c-0.111,0.458-0.18,0.815-0.202,1.07l8.807-1.237l2.714,19.31l-2.159,0.303l-0.208-1.485l-12.519,1.759l0.208,1.485L275.232,161.695
	z M274.865,144.043l0.496,3.528l12.519-1.76l-0.496-3.527L274.865,144.043z M275.608,149.335l0.496,3.528l12.519-1.76l-0.496-3.527
	L275.608,149.335z M276.353,154.627l0.496,3.527l12.519-1.759l-0.496-3.528L276.353,154.627z M296.544,173.015
	c0.475,6.309-1.691,11.567-6.499,15.777c-0.076-0.117-0.212-0.254-0.411-0.416c-0.614-0.609-1.087-1.047-1.417-1.315
	c4.506-3.852,6.563-8.433,6.168-13.742l-7.511,1.056l-0.287-2.042l7.771-1.092c-0.138-1.811-0.321-3.742-0.55-5.792l2.158-0.303
	c0.13,0.928,0.268,2.329,0.415,4.202c0.038,0.69,0.083,1.219,0.135,1.59l9.066-1.274c0.09,1.061,0.256,2.868,0.498,5.421
	c0.302,2.987,0.502,5.042,0.602,6.164c0.368,3.04-0.805,4.72-3.518,5.039c-1.258,0.239-2.635,0.465-4.131,0.675
	c-0.188-0.92-0.466-1.638-0.832-2.155c1.209-0.169,2.532-0.356,3.972-0.558c1.859-0.135,2.646-1.224,2.358-3.266
	c-0.068-1.316-0.323-3.962-0.764-7.94c-0.061-0.432-0.108-0.773-0.144-1.021L296.544,173.015L296.544,173.015z M290.899,171.063
	c-1.029-1.054-2.169-2.062-3.418-3.022l1.285-1.506c0.389,0.262,0.981,0.714,1.776,1.359c0.787,0.585,1.378,1.037,1.776,1.36
	L290.899,171.063z M296.36,214.337c-0.4,0.497-0.733,1.05-1,1.656l-1.703-1.465c0.44-0.63,0.59-1.439,0.451-2.43l-1.043-7.427
	l-2.59,0.364l-0.287-2.042l4.576-0.643l1.292,9.191c0.203-0.218,0.505-0.576,0.906-1.074c0.807-0.933,1.411-1.649,1.811-2.148
	c0.009,0.063,0.055,0.182,0.139,0.359c0.184,0.48,0.448,1.106,0.792,1.877C298.633,211.715,297.519,212.977,296.36,214.337
	L296.36,214.337z M295.094,200.315c-1.303-1.332-2.612-2.504-3.928-3.519l1.372-1.518c1.325,1.077,2.654,2.183,3.988,3.321
	L295.094,200.315z M297.417,140.398c-0.701,2.119-1.706,4.153-3.016,6.104c-0.242-0.47-0.623-1.08-1.138-1.828
	c1.692-2.572,2.84-5.479,3.441-8.72l1.938,0.012c-0.175,0.846-0.382,1.663-0.624,2.454l5.008-0.704l0.287,2.042
	c-0.452,5.555-2.813,10.052-7.084,13.492c-0.423-0.509-0.958-0.969-1.603-1.384c1.76-1.256,3.095-2.612,4.007-4.066
	c-1.158-0.72-2.117-1.279-2.877-1.678l0.84-1.539c1.273,0.706,2.286,1.227,3.037,1.562c0.244-0.349,0.496-0.858,0.754-1.526
	c-1.017-0.551-2.063-1.098-3.136-1.642l0.78-1.34c0.99,0.367,1.957,0.766,2.898,1.202c0.224-0.915,0.404-1.917,0.545-3.011
	L297.417,140.398L297.417,140.398z M298.568,155.479c-0.46,1.326-0.79,2.319-0.99,2.979l-2.004-0.476
	c0.565-1.405,1.072-3.022,1.52-4.852l1.991,0.383C298.964,153.908,298.792,154.564,298.568,155.479L298.568,155.479z
	 M301.133,180.606c-1.227-1.215-2.5-2.331-3.815-3.345l1.285-1.506c0.968,0.622,2.284,1.637,3.949,3.042L301.133,180.606z
	 M298.947,215.205l-0.274-1.949l5.094-0.716l-2.636-18.753l2.072-0.291l0.913,6.499l5.871-0.825l0.3,2.135l-5.871,0.825
	l1.422,10.119l6.735-0.946l0.274,1.949L298.947,215.205z M302.792,157.346c-0.084-0.177-0.209-0.444-0.376-0.799
	c-0.586-1.243-1.116-2.304-1.592-3.184l1.847-0.639c0.167,0.355,0.414,0.858,0.74,1.505c0.541,0.933,0.976,1.724,1.302,2.374
	L302.792,157.346z M303.818,142.717l-0.261-1.856l2.677-0.376c-0.083-0.997-0.318-2.89-0.709-5.675l1.899-0.267
	c0.339,2.414,0.575,4.307,0.709,5.675l5.267-0.74l0.261,1.856l-5.008,0.704c1.059,2.944,3.185,4.917,6.379,5.919
	c-0.09,0.202-0.252,0.509-0.487,0.92c-0.228,0.475-0.385,0.812-0.474,1.014c-3.114-1.267-5.206-3.212-6.279-5.839
	c-0.185,2.866-1.585,5.43-4.202,7.691c-0.207-0.222-0.548-0.553-1.02-0.993c-0.266-0.214-0.436-0.379-0.51-0.497
	c2.847-2.293,4.239-4.918,4.176-7.876L303.818,142.717z M308.106,156.315c-0.344-0.772-0.965-1.853-1.864-3.241
	c-0.15-0.23-0.263-0.404-0.337-0.521l1.834-0.731c0.158,0.294,0.42,0.698,0.787,1.215c0.608,0.988,1.103,1.8,1.488,2.442
	L308.106,156.315z M311.197,138.84c-0.133-0.107-0.298-0.242-0.497-0.404c-1.02-0.993-1.791-1.673-2.312-2.042l1.251-1.123
	c0.454,0.315,1.117,0.854,1.987,1.615c0.398,0.323,0.696,0.564,0.895,0.726L311.197,138.84z M311.82,169.729
	c-0.472,0.824-0.976,1.621-1.513,2.39c-0.16-0.293-0.422-0.699-0.787-1.215c-0.216-0.285-0.367-0.517-0.45-0.694
	c1.718-2.386,2.951-4.895,3.697-7.525l2.004,0.476c-0.411,1.257-0.887,2.46-1.43,3.609l1.357,9.655l-1.899,0.267L311.82,169.729
	L311.82,169.729z M313.917,155.688c-0.385-0.641-1.008-1.531-1.873-2.671c-0.441-0.632-0.774-1.122-0.999-1.469l1.623-0.985
	c0.573,0.74,1.334,1.77,2.283,3.087c0.357,0.454,0.61,0.797,0.761,1.029L313.917,155.688z M314.415,178.169
	c-0.421,2.017-0.893,3.881-1.415,5.595l-1.931-0.581c0.637-1.73,1.089-3.529,1.354-5.397L314.415,178.169L314.415,178.169z
	 M315.834,198.251c-0.472,0.823-0.976,1.621-1.513,2.39c-0.16-0.293-0.422-0.699-0.787-1.215c-0.216-0.285-0.367-0.517-0.45-0.694
	c1.718-2.386,2.951-4.895,3.697-7.525l2.004,0.476c-0.411,1.257-0.887,2.46-1.43,3.609l1.357,9.655l-1.899,0.267L315.834,198.251
	L315.834,198.251z M318.461,166.24c-0.428,1.134-0.995,2.317-1.702,3.552c-0.133-0.107-0.356-0.234-0.669-0.379
	c-0.456-0.314-0.812-0.548-1.067-0.702c1.244-2.005,2.194-4.221,2.852-6.649l2.038,0.092c-0.082,0.264-0.202,0.66-0.362,1.187
	c-0.178,0.404-0.284,0.703-0.314,0.896l9.412-1.323l0.273,1.95l-0.805,3.047c-0.314-0.145-0.858-0.258-1.633-0.338
	c-0.125-0.045-0.215-0.064-0.271-0.056l0.71-2.467L318.461,166.24L318.461,166.24z M318.429,206.69
	c-0.421,2.017-0.893,3.881-1.415,5.595l-1.931-0.581c0.637-1.73,1.089-3.529,1.354-5.397L318.429,206.69L318.429,206.69z
	 M319.188,183.936c-1.843,0.259-2.893-0.54-3.154-2.397l-0.548-3.899l1.986-0.279l0.47,3.342c0.13,0.928,0.684,1.324,1.664,1.186
	l3.626-0.509c1.283-0.055,1.908-0.614,1.877-1.684c0.086-0.642,0.104-1.34,0.058-2.091c0.247,0.092,0.644,0.194,1.188,0.307
	c0.361,0.076,0.635,0.132,0.814,0.169c0.012,0.504-0.031,1.235-0.131,2.195c-0.041,0.133-0.057,0.23-0.048,0.291
	c-0.128,1.595-1.117,2.491-2.968,2.689L319.188,183.936z M320.378,169.852c-1.081,1.92-2.159,3.649-3.233,5.188
	c-0.531-0.43-1.08-0.795-1.65-1.093c0.994-1.276,2.022-2.935,3.086-4.978L320.378,169.852L320.378,169.852z M322.046,179.842
	c-0.905-1.009-1.921-1.97-3.047-2.886l1.312-1.32c1.05,0.799,2.115,1.69,3.193,2.675L322.046,179.842z M322.477,194.761
	c-0.43,1.134-0.996,2.317-1.703,3.553c-0.133-0.107-0.355-0.234-0.669-0.379c-0.455-0.314-0.812-0.548-1.067-0.702
	c1.244-2.005,2.193-4.221,2.852-6.649l2.037,0.092c-0.08,0.264-0.201,0.66-0.361,1.187c-0.178,0.404-0.282,0.703-0.313,0.896
	l9.411-1.323l0.273,1.949l-0.805,3.048c-0.314-0.145-0.857-0.258-1.632-0.338c-0.125-0.044-0.216-0.064-0.272-0.056l0.711-2.467
	L322.477,194.761L322.477,194.761z M319.102,149.379l1.139-1.296l5.233,4.661l-1.199,1.494L319.102,149.379z M322.109,175.289
	c-0.575,0.081-1.237,0.174-1.984,0.279c-0.194-0.541-0.424-1.138-0.693-1.796c0.411,0.006,0.991-0.044,1.74-0.15
	c0.92-0.129,1.295-0.592,1.125-1.389l-0.717-5.106l1.898-0.267l0.758,5.384C324.536,173.97,323.829,174.985,322.109,175.289
	L322.109,175.289z M323.201,212.458c-1.844,0.259-2.894-0.541-3.154-2.397l-0.548-3.899l1.985-0.279l0.471,3.342
	c0.13,0.928,0.684,1.324,1.663,1.186l3.626-0.509c1.283-0.055,1.908-0.614,1.877-1.684c0.086-0.642,0.104-1.34,0.059-2.091
	c0.246,0.092,0.644,0.194,1.188,0.307c0.361,0.076,0.635,0.132,0.814,0.169c0.012,0.504-0.031,1.235-0.131,2.196
	c-0.041,0.133-0.057,0.23-0.048,0.291c-0.128,1.595-1.117,2.491-2.968,2.689L323.201,212.458z M324.393,198.374
	c-1.082,1.92-2.158,3.649-3.232,5.188c-0.531-0.43-1.081-0.795-1.651-1.093c0.995-1.276,2.023-2.935,3.087-4.978L324.393,198.374
	L324.393,198.374z M326.061,208.364c-0.906-1.009-1.922-1.97-3.047-2.886l1.312-1.32c1.051,0.799,2.114,1.69,3.192,2.675
	L326.061,208.364z M326.124,203.811c-0.576,0.081-1.238,0.174-1.985,0.279c-0.193-0.541-0.425-1.139-0.693-1.796
	c0.412,0.006,0.992-0.044,1.74-0.15c0.92-0.129,1.295-0.592,1.125-1.389l-0.717-5.106l1.899-0.267l0.757,5.384
	C328.55,202.492,327.843,203.507,326.124,203.811L326.124,203.811z M329.232,173.341c-0.397-0.323-0.967-0.811-1.703-1.465
	c-1.077-0.984-1.948-1.745-2.609-2.284l1.212-1.401c1.457,1.185,2.947,2.395,4.472,3.631L329.232,173.341z M330.337,180.57
	c-1.063-1.302-2.353-2.73-3.86-4.286l1.397-1.333c1.5,1.493,2.849,2.946,4.046,4.354L330.337,180.57z M333.246,201.863
	c-0.396-0.323-0.967-0.811-1.702-1.465c-1.078-0.984-1.948-1.745-2.61-2.284l1.213-1.401c1.457,1.185,2.946,2.395,4.472,3.631
	L333.246,201.863z M334.352,209.092c-1.063-1.302-2.353-2.73-3.86-4.286l1.397-1.333c1.5,1.493,2.848,2.946,4.045,4.354
	L334.352,209.092z M332.616,166.813l-0.274-1.95l2.418-0.34l-0.64-4.549l1.899-0.267l0.64,4.549l2.071-0.292l0.273,1.95
	l-2.072,0.291l0.535,3.807c0.213-0.156,0.565-0.363,1.057-0.622c0.328-0.172,0.574-0.301,0.738-0.388
	c0.078,0.557,0.156,1.114,0.235,1.671l14.332-2.014l0.248,1.764l-6.044,0.85l0.326,2.321l5.267-0.74l0.233,1.671l-5.267,0.74
	l0.366,2.599c1.857-0.135,3.959-0.431,6.303-0.886c-0.076,0.705-0.135,1.344-0.171,1.917c-2.937,0.413-5.099,0.684-6.489,0.817
	c-2.416,0.34-4.273-0.346-5.57-2.057c-0.313,1.117-0.926,2.402-1.836,3.855l-1.711-0.896c1.559-1.859,2.23-4.384,2.019-7.573
	l1.839-0.069c-0.023,0.256-0.029,0.636-0.017,1.139c-0.037,0.573-0.067,0.988-0.089,1.243c1.133,1.797,2.397,2.661,3.798,2.59
	l-0.9-6.406l-6.39,0.898l-0.184-1.3c-0.162,0.087-0.463,0.254-0.896,0.505c-0.387,0.182-0.686,0.349-0.896,0.505l0.938,6.684
	c0.292,1.663-0.302,2.661-1.78,2.996c-0.625,0.15-1.195,0.263-1.714,0.335c-0.171-0.797-0.386-1.493-0.646-2.086
	c0.401-0.057,0.863-0.122,1.382-0.194c0.698-0.036,0.968-0.42,0.807-1.155l-0.782-5.57l-2.349,1.466l-0.485-2.204
	c0.328-0.171,0.815-0.46,1.463-0.868c0.502-0.196,0.856-0.372,1.07-0.529l-0.64-4.549L332.616,166.813z M340.027,149.75
	l-2.439-17.361l5.871-0.825l2.191,15.597l-4.059,0.57l0.248,1.764L340.027,149.75z M339.576,210.722l-1.449-10.305l8.203-1.153
	l1.447,10.305l-1.898,0.267l-0.195-1.393l-4.404,0.619l0.197,1.393L339.576,210.722z M339.848,197.619l-1.162-8.263l14.852-2.087
	l1.161,8.263L339.848,197.619z M340.805,168.692l-1.201-8.542l11.139-1.565l1.199,8.541L340.805,168.692z M339.675,134.085
	l1.632,11.604l2.33-0.328l-1.631-11.605L339.675,134.085z M340.288,202.006l0.757,5.384l4.403-0.618l-0.757-5.385L340.288,202.006z
	 M341.032,191.015l0.612,4.363l10.707-1.504l-0.613-4.363L341.032,191.015z M341.725,161.462l0.274,1.95l7.425-1.044l-0.273-1.949
	L341.725,161.462z M342.207,164.897l0.273,1.95l7.426-1.044l-0.273-1.949L342.207,164.897z M345.436,134.979l-0.273-1.95
	l4.402-0.619l-0.521-3.713l1.985-0.279l0.521,3.713l4.663-0.655l0.273,1.949l-4.662,0.656l0.482,3.435l5.611-0.789l0.262,1.857
	l-4.922,0.691c1.617,2.74,3.86,4.917,6.729,6.534l-1.047,1.946c-2.713-1.764-4.752-3.939-6.111-6.525l1.316,9.376l-1.984,0.279
	l-1.318-9.377c-0.765,3.327-2.246,6.154-4.441,8.482c-0.549-0.555-1.115-1.042-1.703-1.465c2.551-2.314,4.281-5.241,5.193-8.777
	l-4.488,0.631l-0.262-1.857l5.18-0.728l-0.481-3.435L345.436,134.979z M350.281,209.217l-1.448-10.305l8.202-1.153l1.449,10.305
	l-1.813,0.254l-0.196-1.392l-4.488,0.631l0.195,1.392L350.281,209.217z M350.994,200.502l0.757,5.384l4.489-0.631l-0.758-5.385
	L350.994,200.502z M358.654,166.181c-0.525,1.273-1.086,2.519-1.676,3.738c-0.103-0.3-0.258-0.783-0.469-1.449
	c-0.203-0.602-0.354-1.054-0.455-1.356c1.482-3.237,2.48-6.786,2.994-10.645l2.139,0.173c-0.334,1.814-0.73,3.574-1.195,5.28
	l2.336,16.618l-1.898,0.267L358.654,166.181L358.654,166.181z M360.25,135.167c-0.316-0.585-0.695-1.195-1.139-1.828
	c1.205-1.873,2.078-4.015,2.619-6.427l1.938,0.011c-0.129,0.335-0.271,0.795-0.422,1.385c-0.081,0.264-0.142,0.462-0.181,0.593
	l3.886-0.546l0.247,1.764l-1.042,2.608l2.331-0.327l1.5,10.676l-8.201,1.153l-1.331-9.469L360.25,135.167z M360.742,194.783
	l-0.652-4.642l8.635-1.213l-0.666-4.734l2.158-0.304l0.665,4.734l8.634-1.213l0.652,4.642l-1.984,0.279l-0.379-2.692l-15.369,2.16
	l0.379,2.692L360.742,194.783z M361.072,200.891l-0.274-1.95l20.55-2.888l0.273,1.95l-6.821,0.958
	c0.397,0.323,1.122,0.884,2.175,1.683c1.846,1.445,3.157,2.427,3.937,2.95l-1.445,1.623c-0.134-0.108-0.332-0.27-0.596-0.484
	c-0.406-0.385-0.709-0.658-0.908-0.819c-4.127,0.706-7.789,1.379-10.985,2.017c-0.519,0.073-1.226,0.267-2.119,0.582l-0.174,0.024
	l-1.31-1.804c0.713-0.352,1.29-0.844,1.729-1.474c0.864-0.941,1.68-2.035,2.444-3.278L361.072,200.891z M365.301,130.386l-2.849,0.4
	c-0.396,0.94-0.831,1.821-1.302,2.644l3.107-0.437L365.301,130.386z M368.466,147.266c-3.017,0.676-5.288,1.217-6.815,1.621
	l-0.459-2.018c0.401-0.057,1.035-0.146,1.898-0.267c3.428-0.671,6.049-1.229,7.865-1.673c0.025,0.186,0.064,0.464,0.117,0.835
	c-0.006,0.379,0.005,0.662,0.031,0.848C370.536,146.753,369.657,146.972,368.466,147.266L368.466,147.266z M364.812,189.288
	c-0.465-0.375-1.227-0.995-2.285-1.856c-0.465-0.375-0.795-0.646-0.994-0.807l1.212-1.401c1.167,0.783,2.313,1.632,3.438,2.546
	L364.812,189.288z M362.062,162.861l-0.287-2.042l2.59-0.364l-0.652-4.642l1.986-0.279l0.652,4.642l4.402-0.619l-0.652-4.642
	l1.985-0.279l0.652,4.642l2.677-0.376l0.287,2.042l-2.678,0.376l0.861,6.127l3.453-0.485l0.273,1.95l-15.194,2.135l-0.274-1.949
	l3.367-0.474l-0.861-6.127L362.062,162.861z M362.162,134.993l0.404,2.878l1.813-0.254l-0.403-2.878L362.162,134.993z
	 M362.789,139.449l0.404,2.878l1.812-0.254l-0.404-2.878L362.789,139.449z M363.309,196.126l-0.262-1.856l14.852-2.087l0.261,1.857
	L363.309,196.126z M369.107,172.285c-1.457,2.162-2.854,4.125-4.189,5.891c-0.332-0.27-0.952-0.718-1.861-1.348
	c1.584-1.674,2.965-3.541,4.144-5.6L369.107,172.285L369.107,172.285z M367.17,134.289l-1.812,0.255l0.404,2.878l1.812-0.255
	L367.17,134.289z M365.982,139l0.404,2.878l1.813-0.255l-0.404-2.878L365.982,139z M366.639,162.218l0.859,6.127l4.402-0.619
	l-0.859-6.127L366.639,162.218z M370.139,199.616c-1.019,1.532-2.074,3.006-3.166,4.421c2.072-0.291,5.114-0.781,9.127-1.472
	c-0.273-0.276-0.709-0.658-1.306-1.142c-0.597-0.484-1.032-0.864-1.305-1.142l1.138-1.296L370.139,199.616L370.139,199.616z
	 M369.439,132.266l-0.274-1.95l5.526-0.776c0.662-1.544,1.24-3.077,1.729-4.599l1.918,0.488c-0.13,0.335-0.353,0.839-0.668,1.514
	c-0.437,1.071-0.797,1.848-1.081,2.329l3.021-0.424l0.273,1.949l-4.316,0.607l0.47,3.342l3.885-0.546l0.263,1.856l-3.887,0.546
	l0.483,3.435l4.661-0.656l0.273,1.95l-4.662,0.655l0.744,5.292l-1.898,0.267l-0.744-5.292l-4.317,0.607l-0.272-1.95l4.315-0.606
	l-0.481-3.436l-3.713,0.522l-0.262-1.857l3.713-0.521l-0.47-3.342L369.439,132.266z M371.889,129.649
	c-0.957-1.38-1.714-2.377-2.27-2.994l1.449-0.961c0.416,0.447,0.984,1.156,1.707,2.126c0.281,0.339,0.494,0.594,0.637,0.763
	L371.889,129.649z M376.992,176.384c-1.012-0.932-2.834-2.409-5.467-4.438l1.285-1.506c0.853,0.638,2.104,1.598,3.75,2.881
	c0.844,0.575,1.465,1.024,1.862,1.347L376.992,176.384z M377.246,184.417c-0.782,1.121-1.646,2.283-2.592,3.488l-1.649-1.093
	c0.505-0.576,1.345-1.704,2.519-3.383L377.246,184.417L377.246,184.417z M379.258,157.509l-0.248-1.764l8.116-1.141
	c0.021-0.254,0.026-0.634,0.017-1.138c-0.004-0.44-0.022-0.786-0.058-1.033l1.985-0.279c0.035,0.248,0.054,0.593,0.058,1.033
	c0.013,0.504,0.006,0.884-0.017,1.138l9.237-1.298l0.248,1.764l-9.497,1.334c-0.029,0.636-0.08,1.306-0.158,2.01l8.722-1.225
	l0.248,1.764l-9.152,1.286c-0.077,0.706-0.212,1.419-0.403,2.14l11.655-1.638l0.248,1.764l-12.347,1.735
	c-0.223,0.916-0.542,1.78-0.955,2.596l8.029-1.129l-0.301-2.135l1.985-0.279l0.3,2.135l3.627-0.51l0.247,1.764l-3.626,0.51
	l0.482,3.435c0.327,1.91-0.463,2.967-2.371,3.173c-0.567,0.142-1.657,0.328-3.268,0.554c-0.203-0.603-0.441-1.263-0.72-1.981
	c0.347-0.048,0.925-0.099,1.739-0.15c0.633-0.089,1.064-0.149,1.296-0.182c1.044-0.084,1.472-0.585,1.285-1.506l-0.431-3.063
	l-9.152,1.286c-1.072,1.982-2.457,3.817-4.156,5.507c-0.48-0.5-0.986-0.965-1.518-1.396c2.563-2.632,4.348-5.407,5.346-8.325
	l-6.044,0.849l-0.247-1.764l6.82-0.959c0.08-0.263,0.146-0.62,0.201-1.07c0.104-0.519,0.17-0.875,0.201-1.069l-5.611,0.789
	l-0.248-1.764l6.131-0.861c0.021-0.254,0.031-0.604,0.029-1.045c0.054-0.449,0.067-0.767,0.041-0.953L379.258,157.509z
	 M382.064,128.785l-0.233-1.671l5.524-0.777c-0.215-0.285-0.627-0.7-1.23-1.247c-0.54-0.492-0.912-0.85-1.119-1.074l1.907-0.836
	c0.073,0.117,0.239,0.251,0.497,0.404c1.011,0.932,1.689,1.594,2.04,1.985l-1.229,0.646l4.922-0.692
	c0.893-1.577,1.492-2.733,1.801-3.472l2.164,0.358c-0.14,0.272-0.396,0.75-0.769,1.433c-0.383,0.622-0.642,1.069-0.78,1.341
	l5.354-0.752l0.234,1.671l-8.548,1.201l0.287,2.042l7.512-1.056l0.248,1.764l-7.513,1.055l0.287,2.042l9.065-1.274l0.234,1.671
	l-20.203,2.84l-0.234-1.671l9.064-1.274l-0.287-2.042l-7.338,1.031l-0.248-1.764l7.34-1.031l-0.287-2.042L382.064,128.785z
	 M383.438,140.426l-0.248-1.764l8.635-1.213c0.031-0.194,0.025-0.445-0.018-0.755c0.012-0.317,0.008-0.569-0.02-0.755l2.072-0.292
	c0.07,0.496,0.082,0.999,0.035,1.51l8.895-1.25l0.247,1.763l-8.374,1.177c1.281,2.03,4.42,2.849,9.414,2.464
	c-0.129,0.333-0.271,0.795-0.421,1.385c-0.13,0.333-0.211,0.598-0.241,0.791c-5.056-0.047-8.373-1.095-9.951-3.146
	c-0.73,2.312-3.672,4.365-8.818,6.162c-0.084-0.177-0.275-0.498-0.574-0.96c-0.301-0.463-0.525-0.811-0.676-1.042
	c5.103-1.285,7.852-3.027,8.246-5.229L383.438,140.426z M383.45,193.009l-0.222-1.578l20.894-2.937l0.222,1.579l-10.878,1.529
	l1.097,7.798c0.164-0.085,0.418-0.153,0.764-0.202c0.337-0.109,0.592-0.178,0.765-0.202c0.069,0.496,0.14,0.99,0.208,1.485
	l-1.541,0.311l0.313,2.228l-1.813,0.255l-0.287-2.042c-3.063,0.746-5.641,1.423-7.726,2.033l-0.481-1.542l1.875-0.453l-1.201-8.541
	L383.45,193.009z M385.882,189.638l-0.966-6.87l15.196-2.136l0.965,6.87L385.882,189.638z M390.234,172.344
	c-0.322-0.208-0.799-0.456-1.426-0.746c-0.959-0.559-1.689-0.961-2.193-1.207l1.013-1.563c0.256,0.154,0.636,0.353,1.142,0.597
	c1.141,0.597,1.996,1.045,2.565,1.344L390.234,172.344z M387.098,183.881l0.209,1.485l11.225-1.578l-0.208-1.485L387.098,183.881z
	 M387.249,192.475l0.261,1.857l4.403-0.619l-0.261-1.856L387.249,192.475z M387.477,186.574l0.195,1.393l11.226-1.578l-0.196-1.393
	L387.477,186.574z M387.691,195.632l0.248,1.764l4.403-0.619l-0.248-1.764L387.691,195.632z M388.438,200.923
	c0.51-0.134,1.244-0.332,2.205-0.594c0.969-0.199,1.681-0.362,2.133-0.489l-0.234-1.671l-4.402,0.619L388.438,200.923z
	 M405.214,200.648c-0.072,0.326-0.128,0.554-0.167,0.687c-1.881-0.431-3.462-1.028-4.743-1.795
	c-1.013,1.151-2.268,2.243-3.766,3.275c-0.066-0.054-0.142-0.169-0.226-0.348c-0.424-0.508-0.744-0.905-0.959-1.19
	c1.467-0.838,2.642-1.664,3.524-2.484c-1.26-1.021-2.364-2.413-3.315-4.173l0.404-0.246l-1.035,0.146l-0.223-1.578l8.462-1.189
	l0.234,1.67c-0.521,2.156-1.198,3.799-2.037,4.926c1.188,0.528,2.592,0.897,4.207,1.113
	C405.494,199.724,405.374,200.12,405.214,200.648L405.214,200.648z M399.918,197.417c0.724-1.111,1.277-2.388,1.662-3.831
	l-4.403,0.619C398.001,195.477,398.915,196.548,399.918,197.417L399.918,197.417z M402.465,158.031l-0.261-1.857l15.627-2.196
	l0.261,1.856L402.465,158.031z M420.965,170.011c-1.209,0.17-2.533,0.355-3.972,0.558c-0.221-0.727-0.468-1.449-0.745-2.167
	c0.929-0.069,2.086-0.199,3.467-0.393c1.274-0.117,1.801-0.758,1.578-1.926l-2.113-15.04l-16.317,2.293l-0.273-1.949l18.39-2.584
	l2.467,17.546C423.796,168.444,422.971,169.665,420.965,170.011L420.965,170.011z M406.034,169.647l-1.317-9.376l11.482-1.614
	l1.108,7.891l-9.497,1.334l0.209,1.485L406.034,169.647z M424.639,191.101c-0.559,0.206-1.183,0.355-1.873,0.453
	c-0.109-0.363-0.267-0.846-0.469-1.449c-0.092-0.239-0.176-0.416-0.25-0.533c0.237,0.03,0.731-0.008,1.48-0.113
	c0.756-0.042,1.053-0.652,0.888-1.829c-0.03-0.626-0.116-1.655-0.258-3.088c-0.048-0.75-0.092-1.28-0.136-1.59l-3.139,1.482
	l1.384,9.841l-1.899,0.267l-1.291-9.191l-2.879,1.446l1.188,8.448c0.075,1.378,0.854,1.899,2.333,1.565l4.49-0.631
	c1.446-0.141,2.184-0.748,2.208-1.825c0.051-0.89,0.063-1.838,0.041-2.846c0.676,0.222,1.314,0.383,1.917,0.488
	c0.002,1.263-0.049,2.374-0.147,3.334c-0.07,1.587-1.117,2.491-3.141,2.713l-5.871,0.825c-2.18,0.369-3.392-0.534-3.638-2.708
	l-1.188-8.448l-1.476,0.775l-0.633-1.994l0.246-0.129l-1.899,0.267l1.161,8.262c0.337-0.109,0.833-0.337,1.489-0.683
	c0.384-0.18,0.688-0.317,0.91-0.412c0.087,0.619,0.211,1.295,0.373,2.03c-0.724,0.291-2.13,0.931-4.222,1.918
	c-1.001,0.394-1.752,0.687-2.253,0.885l-0.619-1.901l2.499-1.014l-1.238-8.82l-2.072,0.292l-0.274-1.95l2.072-0.291l-0.874-6.22
	l1.899-0.267l0.874,6.22l1.985-0.279l0.273,1.949l1.488-0.683l-0.743-5.292l1.898-0.267l0.652,4.642l2.879-1.446l-0.861-6.127
	l1.899-0.267l0.77,5.477l4.946-2.398c0.423,3.854,0.693,6.403,0.812,7.648C426.591,189.754,426.02,190.907,424.639,191.101
	L424.639,191.101z M407.551,166.026l7.511-1.056l-0.572-4.085l-7.513,1.056L407.551,166.026z M407.52,136.954l1.14-1.296
	l5.232,4.661l-1.198,1.494L407.52,136.954z M425.833,121.313l-0.274-1.949l11.483-1.614l0.274,1.949l-2.245,0.316l0.899,6.405
	l2.85-0.4l0.273,1.949l-2.85,0.401l1.448,10.305l-1.985,0.279l-1.448-10.305l-3.281,0.461c0.75,4.502,0.178,8.148-1.72,10.94
	l-1.861-1.348c1.735-2.263,2.296-5.372,1.683-9.325l-2.59,0.364l-0.274-1.95l2.591-0.364l-0.899-6.406L425.833,121.313z
	 M432.343,180.927c-0.356-0.454-0.89-1.105-1.595-1.953c-0.715-0.908-1.247-1.56-1.596-1.953l1.41-1.24
	c0.35,0.393,0.871,0.982,1.569,1.768c0.829,0.894,1.422,1.568,1.78,2.022L432.343,180.927z M429.209,162.988l1.139-1.296
	l5.233,4.661l-1.199,1.494L429.209,162.988z M434.309,194.283c-0.652,0.786-1.318,1.89-2,3.311l-1.25-2.001
	c0.049-0.071,0.146-0.21,0.293-0.42c0.772-1.181,1.358-2.021,1.76-2.52l-1.019-7.241l-2.245,0.315l-0.286-2.042l4.145-0.583
	l1.318,9.377c1.146,1.48,2.925,2.018,5.334,1.617c3.239-0.33,7.125-0.876,11.654-1.639c-0.022,0.255-0.062,0.608-0.114,1.058
	c-0.112,0.456-0.182,0.813-0.202,1.07c-3.117,0.374-6.92,0.877-11.41,1.508C437.695,196.458,435.702,195.854,434.309,194.283
	L434.309,194.283z M429.805,120.755l0.9,6.406l3.28-0.461l-0.899-6.406L429.805,120.755z M434.924,179.239l-0.234-1.671l3.972-0.558
	c-0.622-0.67-1.274-1.336-1.954-1.998l1.735-0.812c0.396,0.323,0.943,0.878,1.643,1.663c0.331,0.27,0.566,0.489,0.708,0.658
	l-0.578,0.271l2.937-0.412l1.249-3.016l1.978,0.291l-1.154,2.434l4.146-0.583l0.233,1.671l-6.819,0.959l-0.244,2.022l6.044-0.85
	l1.631,11.605l-12.433,1.747l-1.631-11.604l4.402-0.619l0.157-2.01L434.924,179.239z M445.124,116.992
	c-1.653,2.442-3.719,4.657-6.198,6.646c-0.432-0.569-0.918-1.102-1.456-1.594c2.391-1.787,4.383-3.896,5.979-6.331L445.124,116.992
	L445.124,116.992z M438.269,182.366l0.262,1.856l8.634-1.213l-0.261-1.857L438.269,182.366z M446.396,123.535
	c-1.48,2.418-3.615,4.769-6.404,7.054c-0.434-0.569-0.918-1.102-1.457-1.594c2.643-2.076,4.737-4.294,6.284-6.658L446.396,123.535
	L446.396,123.535z M447.754,130.066c-2.099,3.452-4.666,6.272-7.703,8.467l-1.37-1.606c3.016-1.938,5.479-4.651,7.396-8.14
	L447.754,130.066L447.754,130.066z M438.725,185.616l0.274,1.95l8.634-1.214l-0.273-1.949L438.725,185.616z M439.194,188.958
	l0.262,1.857l8.634-1.213l-0.262-1.857L439.194,188.958z M452.955,119.487c-0.958,0.703-1.94,1.441-2.946,2.213
	c-0.376-0.577-0.832-1.114-1.37-1.606c3.302-1.979,5.891-4.236,7.766-6.772l2.297,0.056c-0.587,0.84-1.187,1.587-1.798,2.241
	l9.237-1.298l0.273,1.95c-3.613,4.358-9.22,8.112-16.818,11.263c-0.269-0.656-0.618-1.27-1.051-1.84
	c3.177-1.204,5.846-2.462,8.01-3.777c-0.257-0.153-0.616-0.417-1.081-0.795C454.431,120.385,453.591,119.84,452.955,119.487
	L452.955,119.487z M450.668,159.212l-2.021-14.39l8.287-1.165l2.011,14.297l-1.642,0.23l-1.734-12.347l-5.095,0.716l1.748,12.44
	L450.668,159.212z M457.057,127.999c-1.85,1.459-3.618,2.655-5.307,3.585c-0.216-0.285-0.503-0.654-0.86-1.109
	c-0.216-0.285-0.361-0.485-0.437-0.602c4.1-2.153,7.348-4.725,9.745-7.712l2.236,0.253c-0.099,0.141-0.272,0.355-0.525,0.642
	c-0.506,0.577-0.857,1.005-1.052,1.284l7.511-1.056l0.262,1.856c-3.418,5.341-9.229,9.312-17.432,11.917
	c-0.259-0.595-0.614-1.239-1.063-1.933c3.844-1.046,6.896-2.295,9.158-3.749c-0.663-0.538-1.668-1.217-3.016-2.038
	c0.188,0.1,0.057-0.008-0.398-0.323L457.057,127.999L457.057,127.999z M459.074,163.9c-0.87-0.762-2.092-1.725-3.664-2.893
	c0.074,0.117-0.021,0.066-0.285-0.149c-0.434,1.513-1.573,3.218-3.419,5.119l-1.443-1.501c2.953-2.37,3.999-5.579,3.139-9.624
	l-0.928-6.591l1.729-0.243l0.938,6.685c0.175,1.239,0.253,2.647,0.241,4.226l0.073-0.105c0.322,0.208,0.778,0.522,1.365,0.944
	c1.315,1.015,2.421,1.775,3.313,2.28L459.074,163.9z M455.422,194.257l-2.558-18.196l2.331-0.328
	c0.021-0.255,0.061-0.607,0.115-1.058c0.135-0.713,0.21-1.639,0.227-2.777l2.211,0.068c-0.133,1.155-0.291,2.313-0.48,3.476
	l3.887-0.546l2.53,18.01l-1.898,0.267l-0.248-1.764l-4.403,0.619l0.273,1.95L455.422,194.257z M456.96,121.669
	c2.49-1.486,4.684-3.214,6.579-5.185l-8.634,1.213l-0.626,0.562c1.271,0.706,2.554,1.473,3.846,2.3L456.96,121.669L456.96,121.669z
	 M455.138,177.824l0.719,5.106l4.401-0.619l-0.717-5.106L455.138,177.824z M456.142,184.973l0.744,5.292l4.403-0.619l-0.744-5.292
	L456.142,184.973z M460.104,130.884c2.146-1.437,4.092-3.256,5.837-5.458l-7.166,1.007c-0.467,0.444-0.961,0.893-1.483,1.345
	c0.512,0.307,1.223,0.774,2.134,1.404c0.646,0.416,1.158,0.722,1.538,0.92L460.104,130.884L460.104,130.884z M461.376,164.619
	l-1.565-11.141l3.194-0.449l-1.564-11.14l1.898-0.267l0.626,4.456l5.095-0.716l0.273,1.949l-5.094,0.716l0.665,4.735l4.145-0.583
	l1.565,11.141l-1.899,0.267l-0.209-1.485l-5.438,0.764l0.208,1.485L461.376,164.619z M461.984,155.161l0.835,5.941l5.438-0.764
	l-0.835-5.942L461.984,155.161z M470.678,191.924c-1.151,0.162-2.359,0.332-3.626,0.509c-0.153-0.674-0.402-1.396-0.745-2.167
	c0.757-0.044,1.884-0.17,3.381-0.38c1.629-0.103,2.325-0.99,2.092-2.661c-0.076-1.377-0.399-4.299-0.969-8.763
	c-0.126-1.308-0.227-2.24-0.305-2.797l-5.181,0.729c-0.152,0.589-0.413,1.447-0.783,2.571c-0.161,0.529-0.281,0.924-0.361,1.187
	c-0.569-0.299-1.197-0.589-1.884-0.872c1.008-2.854,1.689-5.728,2.047-8.619l2.052,0.185c-0.063,0.388-0.162,0.938-0.297,1.651
	c-0.126,0.775-0.221,1.357-0.282,1.744l6.389-0.898c0.558,3.961,1.094,8.62,1.612,13.974
	C474.19,189.977,473.144,191.514,470.678,191.924L470.678,191.924z M468.137,185.749c-0.35-0.392-0.872-0.981-1.567-1.768
	c-0.99-1.186-1.763-2.086-2.317-2.704l1.397-1.333c0.488,0.563,1.215,1.344,2.179,2.345c0.821,0.832,1.443,1.501,1.867,2.01
	L468.137,185.749z M470.141,118.302l-0.273-1.95l2.677-0.376l-0.64-4.549l1.898-0.267l0.641,4.549l2.244-0.315l0.273,1.949
	l-2.245,0.315l0.457,3.25l0.513-0.735c1.052,0.799,2.074,1.602,3.068,2.409l-1,1.656c-0.35-0.392-0.888-0.884-1.616-1.477
	c-0.341-0.331-0.608-0.577-0.809-0.739l1.592,11.327l-1.898,0.267l-1.593-11.326c-0.297,2.063-0.866,4.067-1.708,6.015
	c-0.303-0.904-0.664-1.8-1.082-2.688c1.144-2.305,1.841-4.864,2.092-7.678L470.141,118.302z M474.269,159.965l-2.452-17.453
	l5.611-0.789l2.361,16.804l-1.64,0.23l-0.224-1.578l-2.158,0.303l0.313,2.228L474.269,159.965z M473.89,144.114l1.605,11.419
	l2.158-0.303l-1.604-11.419L473.89,144.114z M476.633,172.434l-0.287-2.042l18.045-2.536l0.287,2.042l-7.942,1.116
	c0.183,1.3,0.373,3.072,0.57,5.316l9.324-1.311l0.301,2.135l-8.894,1.25c1.604,4.319,5.035,6.804,10.292,7.453
	c-0.04,0.131-0.129,0.333-0.267,0.605c-0.212,0.598-0.421,1.195-0.63,1.792c-5.376-1.076-8.872-3.613-10.489-7.614
	c-0.324,3.96-2.859,7.438-7.603,10.441c-0.143-0.169-0.419-0.478-0.834-0.924c-0.35-0.393-0.627-0.702-0.835-0.924
	c5.059-2.856,7.563-6.332,7.517-10.429l-8.722,1.226l-0.3-2.135l8.979-1.262c-0.022-0.565-0.118-1.465-0.292-2.704
	c-0.102-1.122-0.192-1.992-0.279-2.612L476.633,172.434z M477.971,117.012l-0.272-1.95l6.476-0.91
	c0.564-1.405,1.167-2.971,1.804-4.703l1.991,0.383c-0.615,1.476-1.219,2.822-1.81,4.041l3.54-0.497l0.273,1.949l-5.181,0.728
	l0.456,3.25l4.576-0.643l0.273,1.95l-4.576,0.643l0.482,3.435l5.871-0.825l0.274,1.949l-5.871,0.826l0.729,5.198l-1.984,0.279
	l-0.731-5.199l-5.871,0.825l-0.272-1.95l5.87-0.825l-0.481-3.435l-4.317,0.607l-0.273-1.95l4.316-0.606l-0.457-3.25L477.971,117.012
	z M480.853,114.334c-0.863-1.141-1.716-2.188-2.555-3.144l1.536-0.974c0.479,0.5,1.178,1.287,2.092,2.357
	c0.216,0.286,0.395,0.513,0.536,0.682L480.853,114.334z M485.003,160.54c-2.016,0.283-3.133-0.57-3.354-2.558l-2.439-17.361
	l11.224-1.578l1.554,11.048l-9.324,1.311l0.835,5.942c0.081,0.999,0.692,1.385,1.836,1.162l4.835-0.679
	c1.218-0.109,1.813-0.665,1.79-1.672c0.034-1.014,0.021-2.148-0.038-3.403c0.791,0.206,1.456,0.332,1.991,0.383
	c0.045,1.572,0.017,2.838-0.083,3.799c-0.128,1.595-1.171,2.531-3.127,2.806L485.003,160.54z M481.37,142.21l1.018,7.241l2.851-0.4
	l-1.019-7.241L481.37,142.21z M488.796,141.167l-2.85,0.4l1.018,7.241l2.851-0.4L488.796,141.167z M495.928,124.528l1.14-1.296
	l5.232,4.661l-1.199,1.494L495.928,124.528z M498.828,153.198l1.139-1.296l5.233,4.661l-1.199,1.494L498.828,153.198z
	 M503.257,169.638c-0.7,2.119-1.705,4.153-3.016,6.104c-0.242-0.471-0.622-1.08-1.139-1.829c1.692-2.572,2.841-5.479,3.441-8.72
	l1.938,0.012c-0.177,0.846-0.384,1.663-0.624,2.455l5.008-0.704l0.287,2.042c-0.452,5.554-2.813,10.052-7.084,13.492
	c-0.425-0.508-0.959-0.969-1.604-1.384c1.761-1.256,3.096-2.612,4.007-4.066c-1.157-0.72-2.117-1.279-2.877-1.678l0.84-1.538
	c1.272,0.706,2.285,1.226,3.037,1.561c0.244-0.349,0.496-0.858,0.754-1.526c-1.017-0.551-2.062-1.098-3.136-1.642l0.779-1.34
	c0.99,0.367,1.957,0.767,2.897,1.202c0.225-0.915,0.405-1.918,0.546-3.011L503.257,169.638L503.257,169.638z M504.408,184.718
	c-0.46,1.326-0.79,2.319-0.99,2.979l-2.004-0.476c0.563-1.405,1.072-3.022,1.52-4.852l1.99,0.383
	C504.804,183.147,504.632,183.803,504.408,184.718L504.408,184.718z M508.633,186.585c-0.084-0.177-0.21-0.444-0.377-0.799
	c-0.586-1.243-1.116-2.304-1.592-3.184l1.848-0.638c0.166,0.355,0.413,0.857,0.739,1.505c0.541,0.933,0.976,1.724,1.302,2.373
	L508.633,186.585z M509.658,171.957l-0.261-1.856l2.677-0.376c-0.083-0.997-0.318-2.89-0.71-5.675l1.898-0.267
	c0.339,2.414,0.575,4.307,0.709,5.675l5.269-0.74l0.261,1.856l-5.008,0.704c1.059,2.944,3.186,4.917,6.379,5.919
	c-0.09,0.202-0.252,0.509-0.487,0.921c-0.228,0.474-0.385,0.812-0.474,1.013c-3.114-1.267-5.206-3.212-6.279-5.839
	c-0.185,2.866-1.585,5.43-4.202,7.691c-0.207-0.222-0.548-0.553-1.02-0.993c-0.266-0.214-0.437-0.379-0.51-0.496
	c2.847-2.294,4.238-4.918,4.175-7.877L509.658,171.957z M513.946,185.555c-0.345-0.772-0.966-1.853-1.864-3.241
	c-0.15-0.23-0.263-0.404-0.337-0.521l1.834-0.731c0.158,0.294,0.42,0.698,0.787,1.215c0.607,0.988,1.104,1.8,1.486,2.441
	L513.946,185.555z M517.037,168.08c-0.133-0.107-0.298-0.242-0.497-0.404c-1.021-0.993-1.791-1.672-2.312-2.042l1.251-1.123
	c0.454,0.315,1.117,0.853,1.987,1.614c0.397,0.323,0.696,0.565,0.896,0.727L517.037,168.08z M515.713,112.468l-0.835-5.942
	l7.598-1.068l0.835,5.942L515.713,112.468z M515.271,116.222l-0.234-1.671l8.548-1.201c0.054-0.448,0.038-0.983-0.05-1.602
	l1.986-0.279c0.034,0.248,0.049,0.561,0.044,0.94c0.044,0.311,0.073,0.526,0.092,0.65l3.539-0.498
	c-0.084-0.178-0.229-0.377-0.438-0.602c-0.159-0.292-0.305-0.492-0.437-0.602l1.761-0.626c0.074,0.117,0.226,0.347,0.45,0.694
	c0.224,0.347,0.411,0.637,0.562,0.868l3.713-0.521l0.235,1.671l-8.289,1.165c1.263,1.464,4.286,1.892,9.072,1.281
	c-0.031,0.193-0.079,0.484-0.143,0.872c-0.103,0.521-0.171,0.876-0.2,1.07c-5.587,0.344-9.051-0.495-10.392-2.516
	c-0.314,1.938-3.381,3.727-9.195,5.363l-0.938-1.667c5.102-1.285,7.854-2.585,8.255-3.906L515.271,116.222z M519.757,184.927
	c-0.384-0.641-1.007-1.531-1.872-2.671c-0.439-0.632-0.772-1.122-0.999-1.469l1.623-0.985c0.573,0.741,1.334,1.77,2.282,3.087
	c0.357,0.454,0.61,0.797,0.762,1.029L519.757,184.927z M516.913,107.849l0.391,2.786l4.06-0.571l-0.393-2.785L516.913,107.849z
	 M517.926,127.588l-0.979-6.963l7.598-1.068l0.966,6.87l-1.727,0.243l-0.131-0.928l-4.059,0.57l0.145,1.021L517.926,127.588z
	 M518.506,137.942l-0.248-1.764l8.116-1.141c0.021-0.254,0.027-0.634,0.016-1.138c-0.004-0.44-0.021-0.786-0.057-1.033l1.985-0.279
	c0.034,0.248,0.054,0.593,0.058,1.033c0.012,0.504,0.006,0.884-0.017,1.138l9.237-1.298l0.248,1.764l-9.497,1.334
	c-0.028,0.636-0.081,1.306-0.158,2.01l8.722-1.225l0.248,1.764l-9.152,1.287c-0.077,0.706-0.212,1.418-0.403,2.139l11.655-1.638
	l0.248,1.764l-12.347,1.735c-0.224,0.916-0.542,1.78-0.955,2.596l8.029-1.129l-0.302-2.135l1.986-0.279l0.3,2.135l3.627-0.51
	l0.247,1.764l-3.626,0.51l0.482,3.435c0.327,1.91-0.463,2.967-2.371,3.173c-0.567,0.142-1.657,0.328-3.269,0.554
	c-0.202-0.603-0.44-1.263-0.719-1.981c0.346-0.048,0.924-0.099,1.739-0.15c0.633-0.089,1.063-0.149,1.296-0.182
	c1.044-0.085,1.472-0.586,1.285-1.506l-0.432-3.063l-9.151,1.286c-1.072,1.982-2.457,3.817-4.156,5.507
	c-0.48-0.5-0.987-0.965-1.518-1.396c2.563-2.632,4.348-5.407,5.346-8.325l-6.044,0.849l-0.247-1.764l6.82-0.958
	c0.08-0.263,0.146-0.62,0.201-1.07c0.104-0.519,0.171-0.875,0.201-1.069l-5.61,0.789l-0.248-1.764l6.13-0.861
	c0.021-0.254,0.032-0.604,0.029-1.045c0.054-0.449,0.067-0.767,0.041-0.953L518.506,137.942z M518.982,121.949l0.378,2.692
	l4.059-0.57l-0.379-2.692L518.982,121.949z M522.7,167.187l-0.234-1.671l5.525-0.776c-0.216-0.285-0.627-0.701-1.231-1.247
	c-0.54-0.492-0.912-0.85-1.119-1.073l1.907-0.836c0.074,0.117,0.24,0.25,0.497,0.404c1.011,0.932,1.69,1.594,2.04,1.985
	l-1.229,0.646l4.922-0.691c0.893-1.577,1.492-2.733,1.801-3.472l2.163,0.359c-0.138,0.272-0.395,0.75-0.768,1.433
	c-0.383,0.622-0.642,1.069-0.779,1.34l5.354-0.752l0.234,1.671l-8.548,1.201l0.287,2.042l7.512-1.056l0.248,1.764l-7.513,1.056
	l0.287,2.042l9.065-1.274l0.234,1.671l-20.202,2.839l-0.235-1.671l9.065-1.274l-0.287-2.042l-7.339,1.031l-0.247-1.764l7.339-1.031
	l-0.287-2.042L522.7,167.187z M524.072,178.827l-0.248-1.764l8.634-1.213c0.031-0.194,0.026-0.444-0.018-0.755
	c0.013-0.317,0.008-0.569-0.02-0.755l2.072-0.291c0.07,0.496,0.082,0.999,0.036,1.51l8.894-1.25l0.247,1.764l-8.374,1.177
	c1.282,2.03,4.42,2.849,9.414,2.463c-0.129,0.333-0.271,0.795-0.421,1.385c-0.13,0.333-0.211,0.598-0.241,0.792
	c-5.056-0.047-8.373-1.096-9.951-3.146c-0.73,2.312-3.672,4.365-8.817,6.163c-0.085-0.178-0.276-0.498-0.575-0.961
	c-0.301-0.463-0.525-0.811-0.675-1.041c5.102-1.285,7.851-3.028,8.245-5.229L524.072,178.827z M525.642,111.072l-0.835-5.942
	l7.686-1.08l0.835,5.942L525.642,111.072z M529.483,152.777c-0.323-0.208-0.8-0.456-1.427-0.746
	c-0.959-0.559-1.689-0.96-2.193-1.207l1.013-1.563c0.256,0.154,0.636,0.353,1.141,0.597c1.142,0.597,1.996,1.045,2.566,1.344
	L529.483,152.777z M533.64,125.379l-0.144-1.021l-4.058,0.57l0.13,0.928l-1.813,0.254l-0.966-6.87l7.598-1.068l0.979,6.963
	L533.64,125.379z M526.842,106.454l0.393,2.785l4.058-0.57l-0.392-2.786L526.842,106.454z M528.825,120.565l0.378,2.692l4.059-0.57
	l-0.379-2.692L528.825,120.565z M537.637,109.291c-0.344-0.771-0.846-1.836-1.506-3.197c-0.186-0.478-0.355-0.864-0.516-1.158
	l1.157-0.541c0.073,0.117,0.189,0.321,0.351,0.613c0.885,1.707,1.466,2.918,1.743,3.637L537.637,109.291z M544.406,117.996
	c-0.423-0.508-1.084-1.235-1.979-2.184c-0.198-0.161-0.336-0.298-0.41-0.416l1.2,8.542l-1.727,0.242l-1.2-8.541
	c-0.396,2.202-1.002,4.149-1.82,5.841c-0.109-0.363-0.333-0.9-0.667-1.61c-0.102-0.301-0.188-0.509-0.264-0.625
	c1.039-1.787,1.762-4.16,2.168-7.121l-2.849,0.4l-0.248-1.764l2.936-0.413l-1.147-8.169l1.728-0.243l1.147,8.169l2.591-0.364
	l0.247,1.764l-2.59,0.364l0.364,2.6l0.759-0.865c1.369,1.386,2.36,2.383,2.975,2.991L544.406,117.996z M541.358,134.064
	l-0.209-1.485l8.894-1.25l-0.248-1.764l1.985-0.279l0.248,1.764l8.979-1.262l0.209,1.486l-8.979,1.262l0.209,1.485l7.598-1.067
	l0.195,1.392l-17.182,2.415l-0.195-1.393l7.598-1.068l-0.208-1.486L541.358,134.064z M543.646,103.808
	c-0.254,1.55-0.559,3.14-0.915,4.767l-1.36-0.282c0.415-1.636,0.72-3.226,0.915-4.768L543.646,103.808L543.646,103.808z
	 M542.662,146.473l-0.209-1.485l6.303-0.886c-0.49-0.561-1.095-1.108-1.813-1.638l1.328-0.566l-3.626,0.51l-0.612-4.363
	l15.627-2.196l0.612,4.363l-3.625,0.51l1.52,0.165c-0.146,0.21-0.411,0.626-0.793,1.248c-0.188,0.343-0.325,0.613-0.414,0.815
	l6.217-0.874l0.209,1.485L542.662,146.473z M544.221,104.768l-0.209-1.486l4.835-0.679l-0.273-1.95l1.899-0.267l0.273,1.95
	l5.354-0.752l0.209,1.486l-5.354,0.752l0.209,1.485l4.835-0.679l0.195,1.393l-4.835,0.679l0.222,1.578l5.698-0.8l0.209,1.485
	l-12.778,1.796l-0.209-1.485l5.181-0.728l-0.222-1.578l-4.403,0.619l-0.194-1.392l4.402-0.619l-0.209-1.485L544.221,104.768z
	 M545.747,152.761l-0.73-5.199l16.317-2.293l0.731,5.199l-1.986,0.279l-0.117-0.835l-12.347,1.735l0.117,0.835L545.747,152.761z
	 M566.226,178.779L566.226,178.779c-2.821-0.867-6.784-1.917-11.89-3.157l0.568-1.595c0.781,0.143,1.995,0.415,3.636,0.814
	c0.61,0.167,1.067,0.292,1.374,0.375c0.425-0.311,1.035-0.775,1.829-1.393c0.794-0.616,1.374-1.076,1.743-1.381l-11.829,1.662
	l0.601,4.271c1.971-0.592,3.626-1.14,4.963-1.644c0.021,0.565,0.075,1.157,0.162,1.776c-0.501,0.196-1.281,0.495-2.339,0.897
	c-1.224,0.487-2.032,0.79-2.426,0.909c-0.107,0.077-0.242,0.16-0.405,0.247c-0.607,0.275-1.019,0.489-1.229,0.646l-1.271-1.525
	c0.457-0.506,0.638-1.1,0.542-1.78l-1.604-11.419c-0.697,0.477-1.445,0.993-2.248,1.547c-0.094-0.239-0.347-0.582-0.762-1.029
	c-0.226-0.347-0.376-0.578-0.449-0.694c4.564-2.597,7.603-5.423,9.109-8.475l2.443-0.154c-0.196,0.281-0.357,0.587-0.487,0.92
	c2.526,2.106,5.833,3.504,9.922,4.191c-0.11,0.458-0.309,1.148-0.589,2.071c-0.248-0.091-0.611-0.166-1.089-0.226
	c-0.248-0.091-0.796-0.234-1.646-0.432l1.097,7.798l0.086-0.012l1.504,1.304c-0.377,0.242-0.938,0.638-1.683,1.183
	c-0.804,0.555-1.39,0.985-1.756,1.288c0.791,0.206,1.998,0.445,3.622,0.722c0.544,0.113,0.939,0.214,1.188,0.306L566.226,178.779z
	 M547.274,123.367l-1.578-11.233l10.792-1.517l1.174,8.355c0.301,1.724-0.407,2.739-2.125,3.044
	c-0.23,0.032-0.604,0.085-1.122,0.158c-0.683,0.158-1.226,0.267-1.628,0.323c-0.194-0.541-0.424-1.14-0.692-1.796
	c0.583-0.02,1.423-0.105,2.518-0.259c0.986-0.076,1.391-0.543,1.212-1.401l-0.104-0.743l-7.166,1.007l0.535,3.807L547.274,123.367z
	 M546.126,139.169l0.222,1.579l11.829-1.663l-0.222-1.578L546.126,139.169z M547.198,148.675l0.222,1.578l12.347-1.735l-0.222-1.578
	L547.198,148.675z M547.705,113.272l0.234,1.671l7.166-1.007l-0.234-1.671L547.705,113.272z M548.136,116.336l0.223,1.578
	l7.166-1.007l-0.223-1.578L548.136,116.336z M549.657,142.366c0.596,0.484,1.002,0.869,1.219,1.154l-0.652,0.375l4.403-0.619
	c0.139-0.271,0.35-0.648,0.634-1.13c0.324-0.614,0.557-1.056,0.694-1.329l-6.907,0.971
	C549.18,141.897,549.383,142.089,549.657,142.366L549.657,142.366z M556.599,162.902c0.251,0.533,0.45,0.916,0.602,1.146
	l-1.415,0.578l6.044-0.849c-2.394-0.736-4.563-1.977-6.511-3.724c-1.418,2.031-3.19,3.826-5.318,5.386l5.354-0.752
	c-0.261-0.594-0.661-1.358-1.203-2.292l1.761-0.626C556.069,162.062,556.298,162.439,556.599,162.902L556.599,162.902z
	 M550.666,167.049l0.273,1.95l10.446-1.468l-0.272-1.95L550.666,167.049z M551.148,170.484l0.286,2.042l10.447-1.468l-0.287-2.042
	L551.148,170.484z M580.248,118.068c-0.032,0.194-0.072,0.325-0.12,0.396c-6.516-0.41-10.986-2.778-13.414-7.108l-3.28,0.461
	l0.913,6.499c1.368-0.697,3.1-1.54,5.191-2.529c0.104,0.743,0.224,1.389,0.36,1.938c-1.666,0.675-3.427,1.523-5.277,2.541
	c-0.492,0.259-1.006,0.582-1.536,0.974l-1.457-1.594c0.522-0.452,0.69-1.139,0.503-2.059l-2.244-15.968l7.426-1.043
	c-0.159-0.292-0.431-0.759-0.812-1.4c-0.225-0.347-0.38-0.61-0.463-0.788l2.191-0.687c0.4,0.765,0.872,1.614,1.415,2.547l6.39-0.898
	l1.475,10.491l-0.087,0.012l1.418,1.316c-2.161,1.756-3.883,3.071-5.169,3.945c1.569,0.727,4,1.111,7.294,1.152
	C580.834,116.597,580.595,117.199,580.248,118.068L580.248,118.068z M562.22,103.183l0.354,2.507l12.088-1.699l-0.354-2.507
	L562.22,103.183z M563.173,109.96l12.087-1.699l-0.353-2.507l-12.087,1.699L563.173,109.96z M565.881,135.729
	c0.009,0.062-0.037,0.163-0.134,0.303c-0.441-0.632-0.874-1.203-1.297-1.711c0.897-1.956,1.507-4.313,1.823-7.072l1.864,0.116
	c-0.092,1.023-0.248,1.992-0.472,2.906l3.626-0.509l0.248,1.764l-4.403,0.619c-0.231,0.854-0.542,1.781-0.93,2.782l4.921-0.691
	l0.248,1.764l-2.158,0.304l0.404,2.878l2.417-0.34l0.262,1.856l-2.418,0.34l0.679,4.828l2.083-2.091
	c0.093,0.24,0.197,0.573,0.316,0.997c0.117,0.426,0.195,0.762,0.229,1.009c-0.435,0.25-1.068,0.749-1.901,1.498
	c-0.359,0.366-0.646,0.626-0.858,0.783c-0.245,0.35-0.521,0.672-0.832,0.969l-1.258-1.433c0.332-0.552,0.456-1.136,0.369-1.755
	l-0.64-4.549l-2.417,0.339l-0.262-1.856l2.417-0.34l-0.403-2.877l-1.381,0.194L565.881,135.729L565.881,135.729z M568.786,111.064
	c1.015,1.372,2.039,2.396,3.073,3.071c1.547-1.101,3.344-2.521,5.389-4.26L568.786,111.064L568.786,111.064z M573.638,134.544
	l-1.005-7.148l10.104-1.42l1.004,7.148l-4.059,0.571l0.254,2.425l5.267-0.74l1.174,8.355c0.395,1.963-0.417,3.088-2.432,3.371
	c-0.798,0.174-1.627,0.323-2.49,0.445c-0.146-0.611-0.352-1.245-0.619-1.901c0.526-0.012,1.308-0.089,2.344-0.235
	c1.159-0.101,1.604-0.699,1.332-1.796l-0.859-6.127l-3.627,0.51c0.053,0.371,0.047,0.75-0.017,1.138
	c0.711,0.468,1.688,1.152,2.931,2.05c0.577,0.361,1,0.649,1.266,0.863l-1.013,1.563c-1.592-1.291-2.81-2.224-3.651-2.8
	c-0.345,1.312-1.26,2.733-2.746,4.268c-0.134-0.107-0.307-0.303-0.522-0.589c-0.266-0.214-0.465-0.375-0.597-0.484l0.613,4.363
	l-1.729,0.243l-1.616-11.512l5.267-0.74c-0.104-0.743-0.218-1.546-0.34-2.414L573.638,134.544z M576.227,176.803
	c-1.868,0.073-3.057-0.865-3.563-2.813c-0.123-2.127,0.752-3.419,2.625-3.872c1.981-0.089,3.209,0.907,3.678,2.986
	C579.07,175.109,578.156,176.342,576.227,176.803L576.227,176.803z M575.483,171.511c-1.077,0.279-1.587,1.044-1.526,2.297
	c0.263,1.037,0.949,1.538,2.061,1.509c1.135-0.287,1.685-0.961,1.652-2.031C577.38,172.065,576.651,171.474,575.483,171.511
	L575.483,171.511z M574.608,128.917l0.509,3.621l6.562-0.922l-0.509-3.621L574.608,128.917z M574.929,138.718l0.691,4.92
	c1.832-1.583,2.724-3.38,2.676-5.394L574.929,138.718z M584.166,97.737c0.287,2.042-0.178,3.75-1.394,5.119l-0.969-0.621
	c0.923-0.95,1.295-2.265,1.118-3.944l-1.381,0.194l-0.404-2.878l2.677-0.376C583.875,95.664,583.992,96.499,584.166,97.737
	L584.166,97.737z M588.138,97.178c0.287,2.042-0.207,3.754-1.479,5.131l-0.881-0.634c0.923-0.949,1.295-2.265,1.117-3.944
	l-1.468,0.206l-0.403-2.878l2.763-0.388C587.847,95.105,587.964,95.941,588.138,97.178L588.138,97.178z M591.66,140.15l1.139-1.296
	l5.233,4.661l-1.199,1.494L591.66,140.15z"/>
</svg>
