<svg xmlns="http://www.w3.org/2000/svg" xmlns:xlink="http://www.w3.org/1999/xlink" width="640" height="485" viewBox="0 0 640 485"><g enable-background="new"><path fill="none" d="M0 84.675l375.967-52.676 9.601 68.33-385.568 54.021zM0 84.675l375.967-52.676 9.601 68.33-385.568 54.021z"/><path fill="#fff" d="M0 84.675l375.967-52.676 9.601 68.33-385.568 54.021z"/><defs><path id="a" d="M0 84.675l375.967-52.676 9.601 68.33-385.568 54.021z"/></defs><clipPath id="b"><use xlink:href="#a" overflow="visible"/></clipPath><path clip-path="url(#b)" fill="#9C9C9C" d="M355.666 82.997l30.335 20.771-8.167-74.001-26.834 14.281z"/><path fill="#fff" d="M346.861 17.003l116.106-17.003 9.602 68.328-116.104 17.005z"/><path fill="#EA5413" d="M50.511 123.199c-4.623 1.044-8.569 2.126-11.834 3.241l-2.435-5.575c.989-.795 1.852-2.035 2.596-3.718.759-1.552 1.5-3.234 2.226-5.046-.359.051-.89.193-1.591.421-1.681.236-2.86.534-3.543.893l-2.434-5.575c.935-1.183 1.559-2.389 1.876-3.617 1.243-3.331 2.421-7.57 3.531-12.725l6.595 1.243c-1.748 4.979-3.497 9.5-5.249 13.558l3.21-.648 1.534-4.752 4.076 1.597-1.305-9.284 26.082-3.666 6.116 43.518-6.115.86-.381-2.708-13.85 1.946.38 2.708-6.116.859-4.322-30.752c-1.681 4.575-3.467 8.839-5.357 12.784 1.899-.396 3.782-.926 5.647-1.583.115 1.695.337 3.7.663 6.021zm1.692 9.427c-4.245 1.121-8.762 2.479-13.551 4.074l-1.796-6.256c3.561-.763 8.445-2.105 14.657-4.033.115 1.695.346 3.767.69 6.215zm2.574-33.891l1.577 11.218 3.957-.557-1.577-11.218-3.957.557zm2.419 17.214l1.577 11.218 3.958-.556-1.577-11.218-3.958.556zm11.431-19.16l-4.137.581 1.577 11.218 4.137-.582-1.577-11.217zm-1.718 17.794l1.577 11.218 4.137-.582-1.576-11.218-4.138.582zm23.595 16.999l-3.126-22.242 18.347-2.579 3.126 22.242-6.116.86-.354-2.515-6.116.859.354 2.515-6.115.86zm.342-26.28l-2.555-18.181 32.377-4.55 2.555 18.181-32.377 4.55zm3.491 9.174l1.142 8.123 6.116-.859-1.142-8.123-6.116.859zm1.659-22.126l.815 5.802 18.707-2.629-.815-5.802-18.707 2.629zm16.273 36.173l-3.126-22.243 18.527-2.604 3.099 22.049-6.116.859-.326-2.321-6.475.91.353 2.514-5.936.836zm3.652-17.081l1.142 8.123 6.476-.91-1.142-8.124-6.476.911zm23.842 3.157l-2.718-19.341c-.314-.48-.653-1.157-1.019-2.027-.801-1.333-1.374-2.371-1.721-3.111 1.76-3.138 3.254-7.292 4.485-12.464l6.197-.28c-.084.277-.151.681-.197 1.211l-.753 2.473 7.914-1.112.734 5.222-1.282 3.928 3.238-.455 3.289 23.403-18.167 2.553zm7.671 7.6c-3.202.712-5.693 1.259-7.473 1.642l-1.382-5.92c2.619-.498 6.719-1.339 12.302-2.518 3.8-.796 6.592-1.385 8.373-1.768.109.773.183 1.749.228 2.926l.408 2.901c-2.622.498-6.773 1.411-12.456 2.737zm-.63-35.808l-4.677.657c-.169.551-.538 1.392-1.113 2.523-.187.421-.322.77-.404 1.043l4.857-.683 1.337-3.54zm-4.92 9.37l.571 4.062 2.518-.354-.571-4.062-2.518.354zm1.25 8.897l.571 4.062 2.519-.354-.571-4.062-2.519.354zm7.744-10.161l-2.519.354.571 4.062 2.519-.354-.571-4.062zm-1.268 9.251l.571 4.062 2.518-.354-.571-4.062-2.518.354zm6.796-12.986l-.87-6.189 4.677-.657c-.333-.61-.964-1.64-1.901-3.086-1.094-1.686-1.874-2.892-2.342-3.615l4.972-2.474 2.342 3.615c1.055 1.43 1.749 2.451 2.081 3.061l-3.893 2.322 5.037-.708c1.041-3.037 2-6.198 2.887-9.479l6.028 1.125c-.269.697-.632 1.602-1.086 2.716-.789 2.216-1.421 3.818-1.893 4.803l4.677-.657.87 6.189-7.735 1.087.625 4.449 6.655-.936.87 6.189-6.655.936.625 4.448 8.454-1.188.87 6.189-8.454 1.188 1.359 9.67-6.295.885-1.359-9.67-7.735 1.087-.87-6.189 7.734-1.087-.625-4.448-6.655.935-.87-6.189 6.655-.935-.626-4.449-7.554 1.062zm30.216-8.981l-.788-5.609 9.533-1.34-3.296-3.876 7.059-1.979c.451.596 1.333 1.656 2.648 3.178.586.707 1.028 1.236 1.324 1.589l6.296-.885c.269-.694.682-1.673 1.238-2.935.556-1.262.917-2.166 1.085-2.717l7.151-.019-2.1 4.634 9.713-1.365.788 5.609-17.088 2.402.326 2.321 14.75-2.073.761 5.416-14.75 2.073.354 2.514 17.987-2.528.761 5.416-42.63 5.991-.761-5.416 17.807-2.503-.354-2.514-14.21 1.997-.761-5.416 14.21-1.997-.326-2.321-16.727 2.353zm3.038 24.227l-.761-5.416 16.908-2.376-.136-.967c.046-.53.053-.926.017-1.186l7.015-.986c-.084.277-.098.605-.044.992-.048.534-.053.929-.017 1.186l17.447-2.452.761 5.416-16.548 2.326c2.576 2.664 8.738 3.441 18.487 2.333-.475.988-.968 2.7-1.479 5.139-.27.694-.438 1.245-.502 1.648-9.103.49-15.715-.882-19.838-4.115-2.887 3.824-8.951 7.24-18.186 10.248-.019-.13-.107-.315-.262-.555-1.342-2.572-2.451-4.389-3.333-5.448 9.623-2.009 14.936-4.663 15.94-7.96l-15.469 2.173zm55.495 3.837l-6.116-43.518 35.075-4.93 6.116 43.518-7.195 1.011-.435-3.095-20.865 2.933.435 3.095-7.015.986zm1.851-37.734l1.414 10.058 20.865-2.933-1.414-10.057-20.865 2.932zm2.392 17.02l1.441 10.25 20.865-2.932-1.441-10.251-20.865 2.933zm40.651-16.955c-.964-2.494-2.402-5.777-4.318-9.847l3.794-1.716c.974 1.706 2.191 4.296 3.66 7.769.366.87.646 1.555.839 2.052l-3.975 1.742zm16.072-10.937c-.496 2.569-1.288 5.639-2.374 9.209l-3.635-1.067.408 2.901 6.295-.885.87 6.189-6.296.885.598 4.255 1.347-2.162c.946.656 2.171 1.538 3.672 2.64.811.545 1.422.983 1.836 1.32l12.041-3.073-2.501-17.794-2.972 4.954c-1.381-1.119-3.563-2.72-6.544-4.8-.553-.446-1.026-.774-1.422-.983l3.152-4.979c2.548 1.614 5.108 3.294 7.677 5.035l-1.412-10.057 6.654-.936 3.941 28.045 4.773-1.263 1.133 6.744-4.955 1.288 1.604 11.412-6.654.935-1.522-10.831-11.708 2.829-1.192-4.566-2.334 4.272c-1.26-1.136-2.583-2.266-3.961-3.388l1.984 14.119-5.936.834-1.903-13.539c-1.125 3.314-2.664 6.292-4.614 8.933-.477-1.641-1.42-4.007-2.832-7.097 2.138-3.062 3.875-6.788 5.215-11.186l-5.936.834-.87-6.189 6.835-.96-2.337-16.633 5.936-.834 1.767 12.572c.986-3.424 1.708-6.551 2.167-9.377l4.354.966c-.084.275-.201.751-.349 1.428zm9.509 19.372c-2.605-2-5.311-3.854-8.119-5.564l3.125-5.173c.275.226.749.554 1.422.983 1.859 1.055 4.074 2.454 6.643 4.194l-3.071 5.56z"/><path fill="#FC6E1D" d="M375.533 36.207l-.521-3.714 6.475-.91c-.168-.501-.518-1.241-1.045-2.22-.154-.397-.295-.693-.418-.888l4.396-1.091c.696 1.48 1.206 2.671 1.528 3.572l5.757-.809.521 3.713-4.749.667 3.793.887-1.881 4.367 4.317-.607.521 3.713-6.763.951.456 3.25 6.188-.87.521 3.713-6.188.87 1.195 8.51c.5 2.873-.632 4.559-3.398 5.053-.657.196-1.801.411-3.432.64-.439-1.728-.916-3.027-1.43-3.902l1.439-.202 1.15-.162c1.26-.074 1.756-.72 1.487-1.945l-1.044-7.427-6.619.93-.521-3.714 6.619-.93-.457-3.249-7.481 1.051-.522-3.713 4.604-.647c-.957-1.231-1.952-2.408-2.989-3.524l2.518-1.932-4.027.569zm7.79 17.839c-.666 2.934-1.412 5.617-2.244 8.047l-3.34-.793c.817-2.534 1.563-5.215 2.243-8.047l3.341.793zm-1.255-16.233c.58.655 1.045 1.169 1.391 1.54l-1.984 1.542 4.029-.566c.363-.892.818-2.167 1.37-3.822l.603-1.978-7.338 1.031c.468.565 1.113 1.317 1.929 2.253zm11.147 20.839l-3.826-5.3 2.806-1.972c1.313 1.708 2.575 3.373 3.781 4.991.554-3.021.462-7.165-.277-12.426l-2.088-14.854c4.849-.997 9.236-2.139 13.165-3.428l1.859 3.841c-3.56 1.131-7.043 2.094-10.453 2.889l.937 6.653 11.224-1.577.588 4.177-3.598.506 2.675 19.032-3.886.546-2.675-19.032-3.741.526.064.464c1.322 8.019.911 14.494-1.231 19.423-.413-.154-1.047-.484-1.9-.995-.937-.396-1.618-.719-2.045-.975.147-.336.315-.887.502-1.648.432-1.11.739-2.049.927-2.812l-2.808 1.971zm23.249-21.1l-.631-4.487 2.878-.404-1.349-9.593 3.886-.546 1.348 9.593 2.446-.344.631 4.487-2.446.344 1.74 12.378 3.179-1.394c.121 1.561.339 3.108.652 4.642-.819.431-2.105 1.033-3.854 1.804-2.408.969-4.255 1.754-5.538 2.356l-1.352-4.386c1.013-.458 2.072-.922 3.181-1.394l-1.893-13.461-2.878.405zm10.659 2.762l-2-14.235 5.18-.728c-.235-.282-.532-.66-.893-1.137-.832-1.04-1.427-1.796-1.787-2.273l4.229-1.226 3.057 3.989 3.741-.526c.495-1.332 1.055-2.934 1.672-4.811l4.591.302c-.297.673-.789 1.689-1.479 3.048-.149.337-.258.616-.322.834l5.323-.749 2 14.235-23.312 3.277zm4.049 18.366l-2.305-16.401 20.289-2.852 2.306 16.401-4.029.566-.238-1.702-12.088 1.699.238 1.702-4.173.587zm-1.995-29.857l1.065 7.582 6.332-.89-1.065-7.582-6.332.89zm4.1 6.208c-.875-1.349-1.895-2.677-3.056-3.989l1.963-1.696c.565.552 1.397 1.594 2.493 3.121.347.373.58.655.706.848l-2.106 1.716zm.22 9.91l.391 2.785 12.088-1.699-.392-2.785-12.087 1.699zm.804 5.725l.393 2.785 12.088-1.699-.393-2.785-12.088 1.699zm10.993-24.108l-6.332.89 1.065 7.582 6.332-.89-1.065-7.582zm-1.585 5.429c-.475.804-.779 1.426-.912 1.864l-2.354-1.089c.146-.336.331-.781.546-1.339.755-1.578 1.274-2.756 1.558-3.533l2.498 1.069-1.336 3.028z"/></g></svg>