<?xml version="1.0" encoding="utf-8"?>
<!-- Generator: Adobe Illustrator 16.0.0, SVG Export Plug-In . SVG Version: 6.00 Build 0)  -->
<!DOCTYPE svg PUBLIC "-//W3C//DTD SVG 1.1//EN" "http://www.w3.org/Graphics/SVG/1.1/DTD/svg11.dtd">
<svg version="1.1" id="图层_1" xmlns="http://www.w3.org/2000/svg" xmlns:xlink="http://www.w3.org/1999/xlink" x="0px" y="0px"
	 width="640px" height="215px" viewBox="0 0 640 215" enable-background="new 0 0 640 215" xml:space="preserve">
<g enable-background="new    ">
	<path fill="#F2E54B" d="M319,124c-32.584,0-59-26.416-59-59s26.416-59,59-59s59,26.416,59,59S351.584,124,319,124z M319,122
		c31.43,0,57-25.57,57-57S350.43,8,319,8c-31.43,0-57,25.57-57,57S287.57,122,319,122"/>
	<path fill="#FCED43" d="M319,124c-32.584,0-59-26.416-59-59s26.416-59,59-59s59,26.416,59,59S351.584,124,319,124z M319,122
		c31.43,0,57-25.57,57-57S350.43,8,319,8c-31.43,0-57,25.57-57,57S287.57,122,319,122"/>
</g>
<g>
	<polygon fill="#FCED43" points="335.239,66.88 335.238,66.88 331.088,66.88 331.012,68.417 335.239,68.417 	"/>
	<path fill="#FCED43" d="M335.238,70.108h-4.228v0.001c0,0.206-0.026,0.487-0.077,0.845c0,0.308,0,0.539,0,0.692h4.305V70.108z"/>
	<path fill="#FCED43" d="M327.32,75.338c0.511-0.41,0.871-1.024,1.076-1.846h-3.613C325.552,74.262,326.396,74.876,327.32,75.338z"
		/>
	<path fill="#FCED43" d="M292.03,74.183c1.231-0.818,2.281-1.946,3.153-3.382h-6.074C289.878,72.134,290.851,73.261,292.03,74.183z"
		/>
	<rect x="305.409" y="45.107" fill="#FCED43" width="9.764" height="2.922"/>
	<rect x="324.553" y="70.109" fill="#FCED43" width="4.151" height="1.538"/>
	<path fill="#FCED43" d="M319.487,11.83c-29.634,0-53.657,24.022-53.657,53.658c0,29.634,24.023,53.659,53.657,53.659
		c29.634,0,53.658-24.023,53.658-53.659C373.146,35.852,349.121,11.83,319.487,11.83z M310.099,63.881v9.38h-2.23V61.729h10.457
		v11.378h-2.23v-9.226H310.099z M307.1,55.486c-0.104-0.512-0.257-1.257-0.462-2.229c-0.153-0.769-0.281-1.357-0.384-1.769
		l2.153-0.23c0.05,0.257,0.154,0.666,0.308,1.23c0.358,1.179,0.589,2.075,0.692,2.69L307.1,55.486z M310.713,51.412l2.229-0.308
		c0.461,1.23,0.896,2.46,1.307,3.69l-2.306,0.539C311.686,54.205,311.277,52.899,310.713,51.412z M317.248,55.486
		c-0.153-0.308-0.384-0.82-0.692-1.538c-0.512-1.076-0.896-1.922-1.153-2.537l2.153-0.615c0.153,0.359,0.435,0.922,0.845,1.692
		c0.512,1.076,0.871,1.818,1.077,2.229L317.248,55.486z M303.025,50.104v-7.073h5.689v-5.689h2.307v1.769h8.149v2.076h-8.149v1.845
		h6.536v7.073L303.025,50.104L303.025,50.104z M301.257,54.41c0.769-1.435,1.307-2.588,1.615-3.46l2.152,0.538
		c-0.461,1.18-1.076,2.588-1.845,4.229l-2.23-0.692C301,54.871,301.103,54.667,301.257,54.41z M299.795,66.958h-10.533
		c-0.205,0.615-0.436,1.23-0.692,1.845h9.379v1.922c-1.127,1.999-2.41,3.563-3.844,4.689c1.333,0.615,3.229,1.153,5.689,1.614
		c-0.205,0.256-0.564,0.896-1.076,1.922c-0.051,0.154-0.104,0.255-0.154,0.308c-2.819-0.769-4.997-1.59-6.535-2.46
		c-1.435,0.769-3.69,1.665-6.766,2.69c-0.205-0.513-0.513-1.153-0.922-1.922c-0.104-0.154-0.181-0.257-0.231-0.308
		c2.511-0.512,4.485-1.153,5.92-1.922c-1.128-0.973-2.051-2.153-2.768-3.537c-1.333,2.512-3.102,4.716-5.305,6.612
		c-0.257-0.922-0.512-1.742-0.769-2.46c2.717-2.562,4.586-5.56,5.613-8.995h-4.919v-2.152c0.564-1.126,0.973-2.177,1.23-3.152
		l2.307,0.308c-0.154,0.36-0.205,0.488-0.154,0.385c-0.461,1.282-0.795,2.102-0.999,2.46h3.151c0.205-0.769,0.436-1.845,0.692-3.229
		c0.05-0.255,0.103-0.461,0.154-0.615l2.46,0.231c-0.104,0.308-0.206,0.769-0.308,1.384c-0.257,0.975-0.461,1.718-0.615,2.229h5.997
		c-0.206-0.153-0.488-0.435-0.846-0.845c-0.77-0.717-1.358-1.23-1.769-1.538l1.461-1.307c0.461,0.359,1.153,0.922,2.076,1.691
		c0.41,0.308,0.692,0.539,0.846,0.692l-1.307,1.307h3.537V66.958z M307.637,79.412c-0.205-0.206-0.589-0.642-1.153-1.307
		c0.153,0.154,0.025,0-0.384-0.461c0.533-0.308,1.019-0.611,1.467-0.911c-0.634,0.105-1.837,0.28-3.619,0.527
		c-1.333,0.154-2.256,0.281-2.768,0.384l-0.308-2.152l2.229-0.231v-4.613h-1.768v-2.075h1.768v-4.229h-1.998v-0.001v-2.076h6.228
		v2.076h-2.076v4.229h1.845v2.075h-1.845v4.306c0.256-0.05,0.615-0.102,1.076-0.154c0.563-0.102,0.973-0.178,1.23-0.23
		c0,1.05,0.025,1.755,0.074,2.12c1.456-0.981,2.457-1.918,3.001-2.812c0.769-1.178,1.204-2.946,1.307-5.305
		c0.05-0.923,0.077-2.076,0.077-3.46h2.229c0,0.257,0,0.769,0,1.538c-0.051,0.769-0.077,1.307-0.077,1.615
		c-0.051,1.333-0.205,2.537-0.462,3.613h1.23v4.306c-0.051,0.667,0.23,1,0.846,1h0.461c0.615,0,0.949-0.333,1-1
		c0.103-0.358,0.18-0.923,0.231-1.692c0.05-0.255,0.077-0.435,0.077-0.538c0.256,0.153,0.922,0.384,1.998,0.692
		c-0.052,0.769-0.18,1.589-0.385,2.46c-0.204,1.28-1.051,1.896-2.537,1.845h-1.459c-1.589,0.051-2.357-0.718-2.306-2.307v-2.306
		C312.046,75.927,310.303,77.617,307.637,79.412z M328.5,104l-8.125-4.924L312.25,104v-3.5l8-4.85V95.5l0.125,0.076L320.5,95.5v0.15
		l8,4.85V104z M328.5,96l-8.125-4.924L312.25,96v-3.5l8-4.85V87.5l0.125,0.076L320.5,87.5v0.15l8,4.85V96z M338.391,78.72
		c-0.104,0.153-0.154,0.255-0.154,0.308c-5.073-0.206-8.584-0.719-10.531-1.538c-1.129,0.665-3.025,1.332-5.689,1.999
		c-0.154-0.308-0.488-0.897-1-1.768c-0.104-0.104-0.181-0.206-0.229-0.308c2.049-0.255,3.563-0.563,4.536-0.922
		c-0.82-0.512-1.59-1.204-2.307-2.076l1.307-0.923h-2v-8.457h6.459v-1.384h-7.766v-1.845h17.76v1.845h-7.688
		c0,0.461,0,0.922,0,1.384h6.381v9.303h-2.23v-0.846h-4.535c-0.205,0.975-0.59,1.872-1.154,2.691
		c2.153,0.564,5.355,0.845,9.61,0.845C339.006,77.336,338.749,77.899,338.391,78.72z M339.159,47.26h-7.995v5.535h4.229v-4.074
		h2.307v6.997h-2.307v-0.923h-13.302v-5.997h2.308v3.998h4.306V47.26h-8.073v-2.153h8.073v-2.768h-6.92v-2.153h6.92v-2.768h2.46
		v2.768h6.843v2.153h-6.843v2.768h7.995V47.26z M341.311,79.488c-0.052-0.153-0.127-0.384-0.229-0.692
		c-0.205-0.615-0.384-1.076-0.538-1.384c3.023-0.307,5.585-0.846,7.688-1.614c-0.614-0.615-1.258-1.255-1.922-1.922l1.922-0.922
		c0.049,0.052,0.127,0.103,0.23,0.153c0.615,0.565,1.255,1.18,1.922,1.845c1.537-0.665,3.076-1.639,4.613-2.921h-5.768
		c-1.739,1.18-3.969,2.257-6.686,3.229c-0.104-0.154-0.205-0.358-0.309-0.615c-0.258-0.358-0.564-0.82-0.922-1.384
		c3.689-1.024,6.688-2.537,8.996-4.537c-2.259,0.975-5.281,1.897-9.072,2.768c-0.053-0.154-0.154-0.384-0.31-0.692
		c-0.204-0.563-0.384-1-0.538-1.307c2.614-0.512,4.895-1.077,6.844-1.691c-0.719-0.769-1.461-1.435-2.229-1.999l1.69-1.076
		c0.924,0.667,1.818,1.41,2.69,2.229c1.642-0.717,3.179-1.538,4.613-2.46h-7.228c-1.435,0.873-2.949,1.692-4.535,2.46
		c-0.153-0.256-0.412-0.666-0.77-1.23c-0.154-0.255-0.281-0.461-0.385-0.615c2.972-1.126,5.382-2.537,7.229-4.229l2.689,0.231
		c-0.564,0.564-1.128,1.076-1.691,1.537h7.92v2c-2.154,1.641-4.332,2.948-6.535,3.921l2.459,0.307
		c-0.152,0.154-0.383,0.384-0.69,0.692c-0.358,0.257-0.615,0.462-0.769,0.615h6.381v1.922
		C354.432,75.951,348.845,78.412,341.311,79.488z"/>
	<path fill="#FCED43" d="M324.553,68.417h4.229c0-0.511,0-1.024,0-1.537h-4.229V68.417z"/>
</g>
</svg>
