<?xml version="1.0" encoding="utf-8"?>
<!-- Generator: Adobe Illustrator 16.0.0, SVG Export Plug-In . SVG Version: 6.00 Build 0)  -->
<!DOCTYPE svg PUBLIC "-//W3C//DTD SVG 1.1//EN" "http://www.w3.org/Graphics/SVG/1.1/DTD/svg11.dtd">
<svg version="1.1" id="图层_1" xmlns="http://www.w3.org/2000/svg" xmlns:xlink="http://www.w3.org/1999/xlink" x="0px" y="0px"
	 width="640px" height="485px" viewBox="0 0 640 485" enable-background="new 0 0 640 485" xml:space="preserve">
<g enable-background="new    ">
	<polygon fill="none" points="0,84.675 375.967,31.999 385.568,100.329 0,154.35 	"/>
	<polygon fill="none" points="0,84.675 375.967,31.999 385.568,100.329 0,154.35 	"/>
	<g>
		<polygon id="SVGID_1_" fill="#FFFFFF" points="0,84.675 375.967,31.999 385.568,100.329 0,154.35 		"/>
	</g>
	<g>
		<g>
			<defs>
				<polygon id="SVGID_2_" points="0,84.675 375.967,31.999 385.568,100.329 0,154.35 				"/>
			</defs>
			<clipPath id="SVGID_3_">
				<use xlink:href="#SVGID_2_"  overflow="visible"/>
			</clipPath>
			<polygon clip-path="url(#SVGID_3_)" fill="#9C9C9C" points="355.666,82.997 386.001,103.768 377.834,29.767 351,44.048 			"/>
		</g>
	</g>
	<polygon fill="#FFFFFF" points="346.861,17.003 462.967,0 472.569,68.328 356.465,85.333 	"/>
	<path fill="#EA5413" d="M50.511,123.199c-4.623,1.044-8.569,2.126-11.834,3.241l-2.435-5.575c0.989-0.795,1.852-2.035,2.596-3.718
		c0.759-1.552,1.5-3.234,2.226-5.046c-0.359,0.051-0.89,0.193-1.591,0.421c-1.681,0.236-2.86,0.534-3.543,0.893l-2.434-5.575
		c0.935-1.183,1.559-2.389,1.876-3.617c1.243-3.331,2.421-7.57,3.531-12.725l6.595,1.243c-1.748,4.979-3.497,9.5-5.249,13.558
		l3.21-0.648l1.534-4.752l4.076,1.597l-1.305-9.284l26.082-3.666l6.116,43.518l-6.115,0.86l-0.381-2.708l-13.85,1.946l0.38,2.708
		l-6.116,0.859l-4.322-30.752c-1.681,4.575-3.467,8.839-5.357,12.784c1.899-0.396,3.782-0.926,5.647-1.583
		C49.963,118.873,50.185,120.878,50.511,123.199L50.511,123.199z M52.203,132.626c-4.245,1.121-8.762,2.479-13.551,4.074
		l-1.796-6.256c3.561-0.763,8.445-2.105,14.657-4.033C51.628,128.106,51.859,130.178,52.203,132.626L52.203,132.626z M54.777,98.735
		l1.577,11.218l3.957-0.557l-1.577-11.218L54.777,98.735z M57.196,115.949l1.577,11.218l3.958-0.556l-1.577-11.218L57.196,115.949z
		 M68.627,96.789L64.49,97.37l1.577,11.218l4.137-0.582L68.627,96.789z M66.909,114.583l1.577,11.218l4.137-0.582l-1.576-11.218
		L66.909,114.583z M90.504,131.582l-3.126-22.242l18.347-2.579l3.126,22.242l-6.116,0.86l-0.354-2.515l-6.116,0.859l0.354,2.515
		L90.504,131.582z M90.846,105.302l-2.555-18.181l32.377-4.55l2.555,18.181L90.846,105.302z M94.337,114.476l1.142,8.123
		l6.116-0.859l-1.142-8.123L94.337,114.476z M95.996,92.35l0.815,5.802l18.707-2.629l-0.815-5.802L95.996,92.35z M112.269,128.523
		l-3.126-22.243l18.527-2.604l3.099,22.049l-6.116,0.859l-0.326-2.321l-6.475,0.91l0.353,2.514L112.269,128.523z M115.921,111.442
		l1.142,8.123l6.476-0.91l-1.142-8.124L115.921,111.442z M139.763,114.599l-2.718-19.341c-0.314-0.48-0.653-1.157-1.019-2.027
		c-0.801-1.333-1.374-2.371-1.721-3.111c1.76-3.138,3.254-7.292,4.485-12.464l6.197-0.28c-0.084,0.277-0.151,0.681-0.197,1.211
		c-0.169,0.551-0.42,1.375-0.753,2.473l7.914-1.112l0.734,5.222l-1.282,3.928l3.238-0.455l3.289,23.403L139.763,114.599z
		 M147.434,122.199c-3.202,0.712-5.693,1.259-7.473,1.642l-1.382-5.92c2.619-0.498,6.719-1.339,12.302-2.518
		c3.8-0.796,6.592-1.385,8.373-1.768c0.109,0.773,0.183,1.749,0.228,2.926c0.181,1.288,0.317,2.254,0.408,2.901
		C157.268,119.96,153.117,120.873,147.434,122.199L147.434,122.199z M146.804,86.391l-4.677,0.657
		c-0.169,0.551-0.538,1.392-1.113,2.523c-0.187,0.421-0.322,0.77-0.404,1.043l4.857-0.683L146.804,86.391z M141.884,95.761
		l0.571,4.062l2.518-0.354l-0.571-4.062L141.884,95.761z M143.134,104.658l0.571,4.062l2.519-0.354l-0.571-4.062L143.134,104.658z
		 M150.878,94.497l-2.519,0.354l0.571,4.062l2.519-0.354L150.878,94.497z M149.61,103.748l0.571,4.062l2.518-0.354l-0.571-4.062
		L149.61,103.748z M156.406,90.762l-0.87-6.189l4.677-0.657c-0.333-0.61-0.964-1.64-1.901-3.086
		c-1.094-1.686-1.874-2.892-2.342-3.615l4.972-2.474c0.468,0.723,1.249,1.929,2.342,3.615c1.055,1.43,1.749,2.451,2.081,3.061
		l-3.893,2.322l5.037-0.708c1.041-3.037,2-6.198,2.887-9.479l6.028,1.125c-0.269,0.697-0.632,1.602-1.086,2.716
		c-0.789,2.216-1.421,3.818-1.893,4.803l4.677-0.657l0.87,6.189l-7.735,1.087l0.625,4.449l6.655-0.936l0.87,6.189l-6.655,0.936
		l0.625,4.448l8.454-1.188l0.87,6.189l-8.454,1.188l1.359,9.67l-6.295,0.885l-1.359-9.67l-7.735,1.087l-0.87-6.189l7.734-1.087
		l-0.625-4.448l-6.655,0.935l-0.87-6.189l6.655-0.935L163.96,89.7L156.406,90.762z M186.622,81.781l-0.788-5.609l9.533-1.34
		l-3.296-3.876l7.059-1.979c0.451,0.596,1.333,1.656,2.648,3.178c0.586,0.707,1.028,1.236,1.324,1.589l6.296-0.885
		c0.269-0.694,0.682-1.673,1.238-2.935c0.556-1.262,0.917-2.166,1.085-2.717l7.151-0.019l-2.1,4.634l9.713-1.365l0.788,5.609
		l-17.088,2.402l0.326,2.321l14.75-2.073l0.761,5.416l-14.75,2.073l0.354,2.514l17.987-2.528l0.761,5.416l-42.63,5.991l-0.761-5.416
		l17.807-2.503l-0.354-2.514l-14.21,1.997l-0.761-5.416l14.21-1.997l-0.326-2.321L186.622,81.781z M189.66,106.008l-0.761-5.416
		l16.908-2.376c-0.018-0.127-0.063-0.45-0.136-0.967c0.046-0.53,0.053-0.926,0.017-1.186l7.015-0.986
		c-0.084,0.277-0.098,0.605-0.044,0.992c-0.048,0.534-0.053,0.929-0.017,1.186l17.447-2.452l0.761,5.416l-16.548,2.326
		c2.576,2.664,8.738,3.441,18.487,2.333c-0.475,0.988-0.968,2.7-1.479,5.139c-0.27,0.694-0.438,1.245-0.502,1.648
		c-9.103,0.49-15.715-0.882-19.838-4.115c-2.887,3.824-8.951,7.24-18.186,10.248c-0.019-0.13-0.107-0.315-0.262-0.555
		c-1.342-2.572-2.451-4.389-3.333-5.448c9.623-2.009,14.936-4.663,15.94-7.96L189.66,106.008z M245.155,109.845l-6.116-43.518
		l35.075-4.93l6.116,43.518l-7.195,1.011l-0.435-3.095l-20.865,2.933l0.435,3.095L245.155,109.845z M247.006,72.111l1.414,10.058
		l20.865-2.933l-1.414-10.057L247.006,72.111z M249.398,89.131l1.441,10.25l20.865-2.932l-1.441-10.251L249.398,89.131z
		 M290.049,72.176c-0.964-2.494-2.402-5.777-4.318-9.847l3.794-1.716c0.974,1.706,2.191,4.296,3.66,7.769
		c0.366,0.87,0.646,1.555,0.839,2.052L290.049,72.176z M306.121,61.239c-0.496,2.569-1.288,5.639-2.374,9.209l-3.635-1.067
		l0.408,2.901l6.295-0.885l0.87,6.189l-6.296,0.885l0.598,4.255l1.347-2.162c0.946,0.656,2.171,1.538,3.672,2.64
		c0.811,0.545,1.422,0.983,1.836,1.32l12.041-3.073l-2.501-17.794l-2.972,4.954c-1.381-1.119-3.563-2.72-6.544-4.8
		c-0.553-0.446-1.026-0.774-1.422-0.983l3.152-4.979c2.548,1.614,5.108,3.294,7.677,5.035l-1.412-10.057l6.654-0.936l3.941,28.045
		l4.773-1.263l1.133,6.744l-4.955,1.288l1.604,11.412l-6.654,0.935l-1.522-10.831l-11.708,2.829l-1.192-4.566l-2.334,4.272
		c-1.26-1.136-2.583-2.266-3.961-3.388l1.984,14.119l-5.936,0.834l-1.903-13.539c-1.125,3.314-2.664,6.292-4.614,8.933
		c-0.477-1.641-1.42-4.007-2.832-7.097c2.138-3.062,3.875-6.788,5.215-11.186l-5.936,0.834l-0.87-6.189l6.835-0.96l-2.337-16.633
		l5.936-0.834l1.767,12.572c0.986-3.424,1.708-6.551,2.167-9.377l4.354,0.966C306.386,60.086,306.269,60.562,306.121,61.239
		L306.121,61.239z M315.63,80.611c-2.605-2-5.311-3.854-8.119-5.564l3.125-5.173c0.275,0.226,0.749,0.554,1.422,0.983
		c1.859,1.055,4.074,2.454,6.643,4.194L315.63,80.611z"/>
	<path fill="#FC6E1D" d="M375.533,36.207l-0.521-3.714l6.475-0.91c-0.168-0.501-0.518-1.241-1.045-2.22
		c-0.154-0.397-0.295-0.693-0.418-0.888l4.396-1.091c0.696,1.48,1.206,2.671,1.528,3.572l5.757-0.809l0.521,3.713l-4.749,0.667
		l3.793,0.887l-1.881,4.367l4.317-0.607l0.521,3.713l-6.763,0.951l0.456,3.25l6.188-0.87l0.521,3.713l-6.188,0.87l1.195,8.51
		c0.5,2.873-0.632,4.559-3.398,5.053c-0.657,0.196-1.801,0.411-3.432,0.64c-0.439-1.728-0.916-3.027-1.43-3.902
		c0.288-0.041,0.768-0.107,1.439-0.202c0.574-0.081,0.957-0.134,1.15-0.162c1.26-0.074,1.756-0.72,1.487-1.945l-1.044-7.427
		l-6.619,0.93l-0.521-3.714l6.619-0.93l-0.457-3.249l-7.481,1.051l-0.522-3.713l4.604-0.647c-0.957-1.231-1.952-2.408-2.989-3.524
		l2.518-1.932L375.533,36.207z M383.323,54.046c-0.666,2.934-1.412,5.617-2.244,8.047l-3.34-0.793
		c0.817-2.534,1.563-5.215,2.243-8.047L383.323,54.046L383.323,54.046z M382.068,37.813c0.58,0.655,1.045,1.169,1.391,1.54
		l-1.984,1.542l4.029-0.566c0.363-0.892,0.818-2.167,1.37-3.822c0.267-0.878,0.468-1.538,0.603-1.978l-7.338,1.031
		C380.607,36.125,381.252,36.877,382.068,37.813L382.068,37.813z M393.215,58.652l-3.826-5.3l2.806-1.972
		c1.313,1.708,2.575,3.373,3.781,4.991c0.554-3.021,0.462-7.165-0.277-12.426l-2.088-14.854c4.849-0.997,9.236-2.139,13.165-3.428
		l1.859,3.841c-3.56,1.131-7.043,2.094-10.453,2.889l0.937,6.653l11.224-1.577l0.588,4.177l-3.598,0.506l2.675,19.032l-3.886,0.546
		l-2.675-19.032l-3.741,0.526l0.064,0.464c1.322,8.019,0.911,14.494-1.231,19.423c-0.413-0.154-1.047-0.484-1.9-0.995
		c-0.937-0.396-1.618-0.719-2.045-0.975c0.147-0.336,0.315-0.887,0.502-1.648c0.432-1.11,0.739-2.049,0.927-2.812L393.215,58.652z
		 M416.464,37.552l-0.631-4.487l2.878-0.404l-1.349-9.593l3.886-0.546l1.348,9.593l2.446-0.344l0.631,4.487l-2.446,0.344
		l1.74,12.378l3.179-1.394c0.121,1.561,0.339,3.108,0.652,4.642c-0.819,0.431-2.105,1.033-3.854,1.804
		c-2.408,0.969-4.255,1.754-5.538,2.356l-1.352-4.386c1.013-0.458,2.072-0.922,3.181-1.394l-1.893-13.461L416.464,37.552z
		 M427.123,40.314l-2-14.235l5.18-0.728c-0.235-0.282-0.532-0.66-0.893-1.137c-0.832-1.04-1.427-1.796-1.787-2.273l4.229-1.226
		l3.057,3.989l3.741-0.526c0.495-1.332,1.055-2.934,1.672-4.811l4.591,0.302c-0.297,0.673-0.789,1.689-1.479,3.048
		c-0.149,0.337-0.258,0.616-0.322,0.834l5.323-0.749l2,14.235L427.123,40.314z M431.172,58.68l-2.305-16.401l20.289-2.852
		l2.306,16.401l-4.029,0.566l-0.238-1.702l-12.088,1.699l0.238,1.702L431.172,58.68z M429.177,28.823l1.065,7.582l6.332-0.89
		l-1.065-7.582L429.177,28.823z M433.277,35.031c-0.875-1.349-1.895-2.677-3.056-3.989l1.963-1.696
		c0.565,0.552,1.397,1.594,2.493,3.121c0.347,0.373,0.58,0.655,0.706,0.848L433.277,35.031z M433.497,44.941l0.391,2.785
		l12.088-1.699l-0.392-2.785L433.497,44.941z M434.301,50.666l0.393,2.785l12.088-1.699l-0.393-2.785L434.301,50.666z
		 M445.294,26.558l-6.332,0.89l1.065,7.582l6.332-0.89L445.294,26.558z M443.709,31.987c-0.475,0.804-0.779,1.426-0.912,1.864
		l-2.354-1.089c0.146-0.336,0.331-0.781,0.546-1.339c0.755-1.578,1.274-2.756,1.558-3.533l2.498,1.069
		C444.747,29.633,444.302,30.642,443.709,31.987L443.709,31.987z"/>
</g>
</svg>
