<svg xmlns="http://www.w3.org/2000/svg" width="640" height="215" viewBox="0 0 640 215"><g enable-background="new"><path fill="#F2E54B" d="M319 124c-32.584 0-59-26.416-59-59s26.416-59 59-59 59 26.416 59 59-26.416 59-59 59zm0-2c31.43 0 57-25.57 57-57s-25.57-57-57-57-57 25.57-57 57 25.57 57 57 57"/><path fill="#FCED43" d="M319 124c-32.584 0-59-26.416-59-59s26.416-59 59-59 59 26.416 59 59-26.416 59-59 59zm0-2c31.43 0 57-25.57 57-57s-25.57-57-57-57-57 25.57-57 57 25.57 57 57 57"/></g><g fill="#FCED43"><path d="M335.239 66.88h-4.151000000000001l-.076 1.537h4.227zM335.238 70.108h-4.228v.001c0 .206-.026.487-.077.845v.692h4.305v-1.538zM327.32 75.338c.511-.41.871-1.024 1.076-1.846h-3.613c.769.77 1.613 1.384 2.537 1.846zM292.03 74.183c1.231-.818 2.281-1.946 3.153-3.382h-6.074c.769 1.333 1.742 2.46 2.921 3.382zM305.409 45.107h9.764v2.922h-9.764zM324.553 70.109h4.151v1.538h-4.151zM319.487 11.83c-29.634 0-53.657 24.022-53.657 53.658 0 29.634 24.023 53.659 53.657 53.659 29.634 0 53.658-24.023 53.658-53.659.001-29.636-24.024-53.658-53.658-53.658zm-9.388 52.051v9.38h-2.23v-11.532h10.457v11.378h-2.23v-9.226h-5.997zm-2.999-8.395c-.104-.512-.257-1.257-.462-2.229-.153-.769-.281-1.357-.384-1.769l2.153-.23c.05.257.154.666.308 1.23.358 1.179.589 2.075.692 2.69l-2.307.308zm3.613-4.074l2.229-.308c.461 1.23.896 2.46 1.307 3.69l-2.306.539c-.257-1.128-.666-2.434-1.23-3.921zm6.535 4.074c-.153-.308-.384-.82-.692-1.538-.512-1.076-.896-1.922-1.153-2.537l2.153-.615c.153.359.435.922.845 1.692.512 1.076.871 1.818 1.077 2.229l-2.23.769zm-14.223-5.382v-7.073h5.689v-5.689h2.307v1.769h8.149v2.076h-8.149v1.845h6.536v7.073l-14.532-.001zm-1.768 4.306c.769-1.435 1.307-2.588 1.615-3.46l2.152.538c-.461 1.18-1.076 2.588-1.845 4.229l-2.23-.692c.051-.154.154-.358.308-.615zm-1.462 12.548h-10.533c-.205.615-.436 1.23-.692 1.845h9.379v1.922c-1.127 1.999-2.41 3.563-3.844 4.689 1.333.615 3.229 1.153 5.689 1.614-.205.256-.564.896-1.076 1.922-.051.154-.104.255-.154.308-2.819-.769-4.997-1.59-6.535-2.46-1.435.769-3.69 1.665-6.766 2.69-.205-.513-.513-1.153-.922-1.922l-.231-.308c2.511-.512 4.485-1.153 5.92-1.922-1.128-.973-2.051-2.153-2.768-3.537-1.333 2.512-3.102 4.716-5.305 6.612-.257-.922-.512-1.742-.769-2.46 2.717-2.562 4.586-5.56 5.613-8.995h-4.919v-2.152c.564-1.126.973-2.177 1.23-3.152l2.307.308c-.154.36-.205.488-.154.385-.461 1.282-.795 2.102-.999 2.46h3.151c.205-.769.436-1.845.692-3.229.05-.255.103-.461.154-.615l2.46.231c-.104.308-.206.769-.308 1.384-.257.975-.461 1.718-.615 2.229h5.997c-.206-.153-.488-.435-.846-.845-.77-.717-1.358-1.23-1.769-1.538l1.461-1.307c.461.359 1.153.922 2.076 1.691.41.308.692.539.846.692l-1.307 1.307h3.537v2.153zm7.842 12.454c-.205-.206-.589-.642-1.153-1.307.153.154.025 0-.384-.461.533-.308 1.019-.611 1.467-.911-.634.105-1.837.28-3.619.527-1.333.154-2.256.281-2.768.384l-.308-2.152 2.229-.231v-4.613h-1.768v-2.075h1.768v-4.229h-1.998v-2.077h6.228v2.076h-2.076v4.229h1.845v2.075h-1.845v4.306c.256-.05.615-.102 1.076-.154.563-.102.973-.178 1.23-.23 0 1.05.025 1.755.074 2.12 1.456-.981 2.457-1.918 3.001-2.812.769-1.178 1.204-2.946 1.307-5.305.05-.923.077-2.076.077-3.46h2.229v1.538c-.051.769-.077 1.307-.077 1.615-.051 1.333-.205 2.537-.462 3.613h1.23v4.306c-.051.667.23 1 .846 1h.461c.615 0 .949-.333 1-1 .103-.358.18-.923.231-1.692.05-.255.077-.435.077-.538.256.153.922.384 1.998.692-.052.769-.18 1.589-.385 2.46-.204 1.28-1.051 1.896-2.537 1.845h-1.459c-1.589.051-2.357-.718-2.306-2.307v-2.306c-.82 1.589-2.563 3.279-5.229 5.074zm20.863 24.588l-8.125-4.924-8.125 4.924v-3.5l8-4.85v-.15l.125.076.125-.076v.15l8 4.85v3.5zm0-8l-8.125-4.924-8.125 4.924v-3.5l8-4.85v-.15l.125.076.125-.076v.15l8 4.85v3.5zm9.891-17.28c-.104.153-.154.255-.154.308-5.073-.206-8.584-.719-10.531-1.538-1.129.665-3.025 1.332-5.689 1.999-.154-.308-.488-.897-1-1.768-.104-.104-.181-.206-.229-.308 2.049-.255 3.563-.563 4.536-.922-.82-.512-1.59-1.204-2.307-2.076l1.307-.923h-2v-8.457h6.459v-1.384h-7.766v-1.845h17.76v1.845h-7.688v1.384h6.381v9.303h-2.23v-.846h-4.535c-.205.975-.59 1.872-1.154 2.691 2.153.564 5.355.845 9.61.845-.155.308-.412.871-.77 1.692zm.768-31.46h-7.995v5.535h4.229v-4.074h2.307v6.997h-2.307v-.923h-13.302v-5.997h2.308v3.998h4.306v-5.536h-8.073v-2.153h8.073v-2.768h-6.92v-2.153h6.92v-2.768h2.46v2.768h6.843v2.153h-6.843v2.768h7.995v2.153zm2.152 32.228l-.229-.692c-.205-.615-.384-1.076-.538-1.384 3.023-.307 5.585-.846 7.688-1.614l-1.922-1.922 1.922-.922c.049.052.127.103.23.153.615.565 1.255 1.18 1.922 1.845 1.537-.665 3.076-1.639 4.613-2.921h-5.768c-1.739 1.18-3.969 2.257-6.686 3.229-.104-.154-.205-.358-.309-.615-.258-.358-.564-.82-.922-1.384 3.689-1.024 6.688-2.537 8.996-4.537-2.259.975-5.281 1.897-9.072 2.768-.053-.154-.154-.384-.31-.692-.204-.563-.384-1-.538-1.307 2.614-.512 4.895-1.077 6.844-1.691-.719-.769-1.461-1.435-2.229-1.999l1.69-1.076c.924.667 1.818 1.41 2.69 2.229 1.642-.717 3.179-1.538 4.613-2.46h-7.228c-1.435.873-2.949 1.692-4.535 2.46-.153-.256-.412-.666-.77-1.23-.154-.255-.281-.461-.385-.615 2.972-1.126 5.382-2.537 7.229-4.229l2.689.231c-.564.564-1.128 1.076-1.691 1.537h7.92v2c-2.154 1.641-4.332 2.948-6.535 3.921l2.459.307-.69.692c-.358.257-.615.462-.769.615h6.381v1.922c-3.639 3.844-9.226 6.305-16.76 7.381zM324.553 68.417h4.229v-1.537h-4.229v1.537z"/></g></svg>