<?xml version="1.0" encoding="utf-8"?>
<!-- Generator: Adobe Illustrator 16.0.0, SVG Export Plug-In . SVG Version: 6.00 Build 0)  -->
<!DOCTYPE svg PUBLIC "-//W3C//DTD SVG 1.1//EN" "http://www.w3.org/Graphics/SVG/1.1/DTD/svg11.dtd">
<svg version="1.1" id="图层_1" xmlns="http://www.w3.org/2000/svg" xmlns:xlink="http://www.w3.org/1999/xlink" x="0px" y="0px"
	 width="640px" height="194.5px" viewBox="0 -96.5 640 194.5" enable-background="new 0 -96.5 640 194.5" xml:space="preserve">
<path fill="#FFFFFF" d="M184.155,69.312c-1.266-1.375-3.164-3.188-5.691-5.438c0.229,0.252-0.06,0-0.863-0.75l3.277-3.75
	c1.035,0.876,2.529,2.127,4.485,3.75c1.035,0.876,1.782,1.5,2.243,1.875L184.155,69.312z M186.054,78.688
	c-1.496,5.877-2.475,9.998-2.933,12.375l-5.003-1.5c0.92-3.375,2.242-8.875,3.968-16.5c0.574,0.125,1.38,0.375,2.415,0.75
	c1.148,0.375,1.954,0.688,2.415,0.938C186.685,75.625,186.398,76.938,186.054,78.688L186.054,78.688z M185.19,56.75
	c-0.689-0.75-1.783-1.811-3.277-3.188c-1.38-1.375-2.475-2.373-3.277-3l3.105-3.75c0.689,0.627,1.953,1.688,3.795,3.188
	c1.38,1.125,2.414,2.001,3.104,2.625L185.19,56.75z M190.366,62.75c-0.346-0.498-0.863-1.188-1.553-2.062
	c-0.689-0.873-1.268-1.5-1.725-1.875c3.679-3.623,6.438-7.875,8.279-12.75l5.348,0.562c-0.232,0.375-0.518,0.938-0.862,1.688
	c-0.344,0.75-0.634,1.312-0.862,1.688h19.664v4.5h-22.08c-0.689,1.125-1.438,2.25-2.242,3.375h21.908
	c-0.116,0.627-0.173,2.437-0.173,5.437c-0.116,2.377-0.173,4.252-0.173,5.625h3.623v4.5h-3.623c-0.115,2.377-0.172,4.625-0.172,6.75
	h2.932V84.5h-3.104c-0.231,4.374-2.53,6.498-6.899,6.375h-6.9c-0.116-0.627-0.461-1.564-1.035-2.812
	c-0.115-0.627-0.232-1.063-0.345-1.312c2.183,0,4.425,0,6.728,0c2.184,0.123,3.391-0.627,3.622-2.25h-21.045l1.035-11.062h-3.45
	v-4.5h3.968l0.69-8.062L190.366,62.75z M210.894,80.188c0.113-1.375,0.172-3.625,0.172-6.75h-15.524l-0.69,6.75h9.143
	c-1.267-1.248-2.76-2.5-4.484-3.75l2.414-3c1.955,1.377,3.736,2.688,5.348,3.937l-2.414,2.812h6.035V80.188z M196.575,62.375
	l-0.689,6.562h8.625c-0.689-0.625-1.725-1.5-3.105-2.625c-0.689-0.625-1.207-1.062-1.552-1.312l2.587-2.625H196.575z
	 M211.238,68.938c0-3.123,0-5.312,0-6.562h-8.452c0.803,0.501,1.896,1.312,3.277,2.438c0.689,0.627,1.207,1.063,1.553,1.313
	l-2.416,2.812H211.238L211.238,68.938z M233.593,69.688c-2.303-2.125-4.773-4.312-7.418-6.562l3.277-3.938
	c2.989,2.25,5.521,4.25,7.59,6L233.593,69.688z M236.698,74.375c-1.151,4.125-2.704,9.626-4.658,16.5L226.865,89
	c1.493-4.248,3.104-9.75,4.829-16.5c0.23,0.126,0.631,0.312,1.208,0.562C234.396,73.562,235.663,74,236.698,74.375L236.698,74.375z
	 M234.8,57.312c-2.07-1.875-4.484-3.938-7.244-6.188L230.833,47c2.527,1.875,5.059,3.814,7.59,5.812L234.8,57.312z M239.112,59.75
	v-4.875h7.245c-0.345-0.498-0.806-1.248-1.38-2.25c-1.15-1.875-2.07-3.375-2.76-4.5l4.484-1.875c1.381,2,2.816,4.189,4.312,6.562
	l-3.967,2.062h6.9c1.725-3,3.277-5.874,4.656-8.625l5.003,1.687c-0.577,1.002-1.495,2.501-2.76,4.5
	c-0.69,1.125-1.208,1.939-1.553,2.438h7.417v4.875H255.5v5.625h9.833v5.062H255.5v5.812h12.247v5.062H255.5v9.75h-5.348v-9.75
	h-12.075v-5.062h12.075v-5.812h-9.659v-5.062h9.659V59.75H239.112z M274.932,71.375v-4.688h2.243v-15.75h4.312
	c0.113-0.498,0.286-1.312,0.518-2.438c0.113-0.999,0.229-1.749,0.345-2.25l4.83,0.375c0,0.252-0.059,0.562-0.172,0.938
	c-0.232,0.75-0.577,1.875-1.035,3.375h5.865v34.687c0,0.498-0.06,0.999-0.173,1.5c3.334-3.249,4.83-8.687,4.485-16.312v-7.5h13.973
	v20.25c0,1.25,0.4,1.812,1.207,1.688h0.345c0.804,0.126,1.266-0.498,1.38-1.875c0.229-2.749,0.347-5.5,0.347-8.25
	c1.379,0.501,2.526,0.938,3.448,1.312c-0.23,3.75-0.461,6.688-0.688,8.812c-0.346,3.123-1.785,4.688-4.312,4.688h-2.069
	c-2.876,0.123-4.256-1.5-4.14-4.875V68.375h-4.83v2.438c0.345,9.125-1.553,15.938-5.692,20.438
	c-0.577-0.627-1.785-1.812-3.623-3.562c-0.345,1.875-1.668,2.875-3.967,3c-1.151,0-2.531,0-4.141,0
	c-0.115-0.627-0.288-1.563-0.518-2.812c-0.115-0.75-0.231-1.377-0.345-1.875c0.919,0,1.954,0,3.104,0
	c1.494,0.123,2.184-0.498,2.07-1.875v-12.75h-6.21c0,8.375-1.034,15.062-3.104,20.062c-1.612-1.5-2.819-2.688-3.623-3.562
	c1.725-3.999,2.528-9.498,2.416-16.5L274.932,71.375L274.932,71.375z M281.486,55.438v11.25h6.21v-11.25H281.486z M284.074,65
	c-0.345-0.999-0.862-2.312-1.553-3.938c-0.345-1-0.634-1.75-0.862-2.25l2.932-1.688c0.23,0.501,0.574,1.251,1.035,2.25
	c0.804,1.626,1.381,2.877,1.726,3.75L284.074,65z M284.247,81.688l-2.588-6.562l3.105-1.688c0.344,0.875,0.918,2.313,1.725,4.312
	c0.458,1.002,0.803,1.752,1.035,2.25L284.247,81.688z M293.562,58.25v-5.062h8.107c-0.232-0.75-0.576-1.875-1.035-3.375
	c-0.345-1.125-0.633-1.998-0.862-2.625l5.348-0.75c0.345,1.125,0.804,2.625,1.38,4.5c0.346,1.002,0.574,1.752,0.689,2.25h7.936
	v5.062H293.562z M327.129,76.249c-0.922,1.002-1.613,1.752-2.07,2.25c-0.231-0.874-0.633-2.187-1.207-3.938
	c-0.231-0.75-0.403-1.312-0.518-1.688c4.139-3.873,7.934-8.499,11.385-13.875l4.14,3.188c-1.494,2.127-2.933,4.125-4.312,6v23.062
	h-5.174V74.188C328.91,74.688,328.164,75.376,327.129,76.249L327.129,76.249z M338.514,49.625
	c-3.795,5.001-7.936,9.375-12.42,13.125c-0.578-1.875-1.324-3.686-2.242-5.438c3.796-2.873,7.244-6.562,10.351-11.062
	L338.514,49.625L338.514,49.625z M339.721,68.562v-5.438h25.357v5.438h-6.728v14.625c0.113,4.748-2.014,7.125-6.383,7.125
	c-2.992,0.123-5.465,0.188-7.418,0.188c-0.346-1.875-0.75-3.627-1.207-5.25c0.574,0,1.609,0,3.105,0
	c1.492,0.126,2.586,0.188,3.276,0.188c2.3,0.127,3.392-0.998,3.277-3.375v-13.5H339.721L339.721,68.562z M341.619,54.688V49.25
	h21.733v5.438H341.619z M376.047,55.625v-4.5h10.695v-4.688h5.176v4.688h9.66v4.5h-9.66v4.5h5.002
	c4.141-3.249,7.875-6.999,11.213-11.25l4.142,3c-2.648,3-5.349,5.751-8.109,8.25h9.488v4.688h-15.181
	c-0.346,0.252-0.862,0.627-1.553,1.125c-0.922,0.627-2.414,1.627-4.484,3h16.041V91.25h-5.002V89h-19.491v2.25h-5.177v-15
	c-0.461,0.126-1.094,0.439-1.896,0.938c-1.611,0.627-2.82,1.125-3.623,1.5l-1.553-5.437c7.475-2.499,13.629-5.312,18.459-8.438
	h-17.941v-4.688h14.49v-4.5H376.047z M403.475,73.25h-18.629l-0.862,0.375v3.562h19.491V73.25z M383.982,81.124v3.938h19.491v-3.938
	H383.982z M420.482,70.812v-4.875h41.916v4.875h-29.152l-0.861,3.562h25.185c-0.115,1.125-0.287,2.812-0.519,5.062
	c-0.229,2.002-0.344,3.375-0.344,4.125c-0.346,4.75-3.277,7.062-8.797,6.938c-2.877,0.123-6.443,0.188-10.695,0.188
	c-0.117-1.627-0.461-3.439-1.035-5.438c4.369,0.252,7.703,0.375,10.004,0.375c3.334,0.126,5.062-0.938,5.177-3.188
	c0.112-0.375,0.172-0.938,0.172-1.688c0.112-0.75,0.174-1.248,0.174-1.5h-25.531l1.726-8.438h-7.418V70.812z M425.83,62.562V47.938
	h31.221v14.625H425.83L425.83,62.562z M431.35,52.812v4.875h20.355v-4.875H431.35z"/>
<g>
	<path fill="#FFFFFF" d="M415.494,24.466c3.637-0.48,11.213-0.72,11.213-5.76c0-2.64-2.501-3.636-4.766-3.636
		c-5.554,0-11.829,4.663-11.829,10.527c0,3.703,2.948,5.625,6.343,5.625c1.92,0,3.91-0.687,5.454-1.821
		c0.548-0.413,2.638-2.262,2.638-2.946c0-0.205-0.206-0.416-0.413-0.416c-0.614,0-2.503,3.021-5.587,3.021
		c-2.057,0-3.12-1.51-3.12-3.464L415.494,24.466z M415.667,23.298c0.344-2.193,2.537-7.198,5.211-7.198
		c0.788,0,1.131,0.754,1.131,1.472c0,1.409-0.891,3.191-1.919,4.117C418.956,22.718,417.211,23.23,415.667,23.298 M444.535,15.07
		c-0.929,0-1.647-0.239-2.126,0.652c-0.07,0.104-0.136,0.24-0.274,0.24c-0.104,0-0.24-0.068-0.306-0.101
		c-0.653-0.379-1.409-0.513-2.128-0.513c-2.848,0-5.936,1.816-7.955,3.737c-2.193,2.123-3.806,4.865-3.806,7.986
		c0,1.99,0.756,4.151,3.052,4.151c3.771,0,6.995-4.395,8.949-7.237c-0.31,1.711-1.095,3.944-1.095,5.588
		c0,1.098,0.581,1.649,1.607,1.649c1.991,0,3.977-1.513,5.35-2.849c0.479-0.479,1.783-1.918,1.783-2.676
		c0-0.204-0.104-0.443-0.343-0.443c-0.549,0-1.854,2.708-2.917,2.708c-0.342,0-0.445-0.411-0.445-0.651
		c0-0.652,0.378-1.885,0.549-2.467l0.722-2.677c0.31-1.163,1.988-6.102,1.988-6.717c0-0.551-0.994-0.38-1.302-0.38H444.535z
		 M434.182,28.169c-0.791,0-1.026-0.722-1.026-1.441c0-1.922,0.955-4.01,1.919-5.659c1.025-1.714,2.914-4.626,5.14-4.626
		c0.756,0,1.408,0.649,1.408,1.403C441.621,20.213,436.648,28.169,434.182,28.169 M455.403,24.604
		c1.062,0.924,2.604,2.055,2.604,3.597c0,0.996-0.721,2.026-1.748,2.026c-2.128,0-4.251-4.734-5.965-4.734
		c-0.962,0-1.094,1.474-1.094,2.193c0,1.375,0.338,2.062,1.642,2.642c1.371,0.616,3.395,0.894,4.868,0.894
		c2.983,0,7.063-1.718,7.063-5.211c0-3.808-6.138-5.454-6.138-8.4c0-0.723,0.41-1.475,1.198-1.475c2.128,0,3.805,3.701,5.28,3.701
		c0.789,0,0.892-0.822,1.026-1.438c0.068-0.312,0.207-0.928,0.207-1.271c0-1.85-4.523-2.058-5.655-2.058
		c-1.646,0-3.258,0.239-4.732,1.066c-1.23,0.684-2.229,1.815-2.229,3.29C451.734,21.517,453.929,23.369,455.403,24.604"/>
	<path fill="#FFFFFF" d="M409.804,12.397c0.068-0.239,0.242-0.825,0.242-1.134c0-0.616-1.134-0.959-1.579-1.131
		c-1.609-0.616-3.427-0.991-5.142-0.991c-1.889,0-3.908,0.476-5.416,1.61c-1.339,1.061-2.367,2.742-2.367,4.457
		c0,2.913,2.4,5.004,4.317,6.893c1.234,1.199,2.573,2.331,2.573,4.148c0,1.131-0.755,2.194-1.646,2.811
		c-0.819,0.547-1.953,0.787-2.947,0.787c-1.096,0-2.366-0.308-3.156-1.096c-0.753-0.788-0.822-1.578-0.958-2.569
		c-0.066-0.655-0.066-1.511-0.924-1.511c-0.548,0-0.756,0.512-0.859,0.959c-0.205,0.824-0.31,2.333-0.31,3.189
		c0,1.063,0.243,1.238,1.271,1.578c1.646,0.581,3.669,0.824,5.382,0.824c2.262,0,4.527-0.483,6.379-1.783
		c1.852-1.337,3.018-3.256,3.018-5.519c0-2.606-2.608-4.903-4.32-6.618c-0.959-0.961-2.64-2.401-2.64-3.839
		c0-1.786,1.814-2.949,3.497-2.949c4.457,0,2.504,4.528,4.353,4.528c0.754,0,0.859-1.066,0.964-1.579L409.804,12.397z"/>
	<path fill="#FFFFFF" d="M328.569,22.998c0-3.323-2.71-5.238-4.987-5.238c-4.121,0-8.119,3.51-8.119,7.568
		c0,2.936,2.082,5.318,4.826,5.318C323.635,30.646,328.569,27.715,328.569,22.998 M325.995,21.378c0,2.001-0.987,5.157-2.829,7.325
		c-0.327,0.356-1.176,1.343-2.824,1.343c-1.919,0-2.302-1.811-2.302-2.96c0-3.159,1.999-8.727,5.567-8.727
		C325.527,18.359,325.995,20.06,325.995,21.378 M338.769,18.99c0.307,0,0.442-0.521,0.442-0.656c0-0.107-0.027-0.245-0.188-0.245
		h-2.606c0.383-1.456,1.262-4.696,2.493-4.696c0.302,0,0.467,0.278,0.658,0.608c0.578,0.956,1.398,1.041,1.591,1.041
		c0.603,0,1.263-0.466,1.263-1.207c0-0.879-0.931-1.396-2.028-1.396c-1.729,0-3.429,1.014-4.475,2
		c-1.229,1.125-1.701,2.469-2.108,3.65h-2.002c-0.328,0-0.468,0.654-0.468,0.654c0,0.112,0.028,0.247,0.195,0.247h1.998
		c-1.646,5.461-2.056,6.996-3.647,12.92c-0.354,1.344-1.013,3.813-2.105,3.813c-0.469,0-0.661-0.547-0.743-0.82
		c-0.191-0.548-0.409-1.181-1.288-1.181c-0.713,0-1.182,0.523-1.182,1.152c0,0.876,0.988,1.669,2.334,1.669
		c1.26,0,2.357-0.546,3.26-1.257c1.758-1.397,2.088-2.305,4.994-12.755l0.983-3.542L338.769,18.99L338.769,18.99z M355.037,18.99
		c0.272,0,0.74-0.107,0.74-0.629c0-0.055,0-0.272-0.22-0.272h-2.854c0.057-0.108,0.111-0.33,0.138-0.415l0.356-0.986
		c0.106-0.299,0.493-1.422,0.493-1.644c0-0.333-0.247-0.333-0.602-0.333c-0.387,0-1.481,0.03-1.785,0.14
		c-0.329,0.139-1.016,2.742-1.232,3.238h-1.317c-0.737,0-1.257,0-1.257,0.685c0,0.216,0.298,0.216,0.575,0.216h1.724
		c-0.904,2.634-2.028,5.951-2.492,7.845c-0.137,0.521-0.358,1.397-0.358,2.221c0,1.15,0.553,1.589,1.128,1.589
		c2.247,0,5.231-3.454,5.231-4.277c0-0.138-0.133-0.3-0.301-0.3c-0.136,0-0.272,0.138-0.354,0.303
		c-0.824,1.287-2.223,2.413-2.661,2.413c-0.165,0-0.33-0.138-0.33-0.491c0-0.411,0.387-1.704,0.551-2.198
		c1.26-4.114,1.285-4.223,2.22-7.104L355.037,18.99L355.037,18.99z M361.073,18.116c0.409-1.284,1.728-5.309,1.728-5.42
		c0-0.115-0.026-0.257-0.272-0.257c-0.14,0-0.41,0.142-0.687,0.284c-0.411,0.239-1.812,0.594-2.823,0.564l-0.634-0.024
		c-0.244,0-0.822,0-0.822,0.49c0,0.164,0.084,0.301,0.467,0.301c0.852,0,1.208,0,1.208,0.63c0,1.495-4.606,14.54-4.606,15.17
		c0,0.465,0.3,0.465,1.18,0.465c1.18,0,1.231-0.054,1.562-0.959c1.562-4.31,5.98-10.041,7.9-10.041c0.406,0,1.126,0.054,1.126,1.425
		c0,2.254-2.114,9.084-3.624,9.084c-0.963,0-0.71-1.455-2.001-1.455c-0.521,0-1.263,0.523-1.263,1.153
		c0,0.684,0.686,1.12,1.562,1.12c4.333,0,8.146-4.604,8.198-9.328c0.025-2.984-1.672-3.532-2.576-3.532
		c-2.412,0-4.905,2.741-7.491,6.446l-0.05-0.088L361.073,18.116z M377.088,24.671c1.126-0.19,5.266-1.099,5.266-4.061
		c0-1.924-1.887-2.878-3.422-2.878c-2.938,0-8.147,3.013-8.147,8.389c0,3.02,2.082,4.525,4.137,4.525
		c2.994,0,5.708-3.26,5.708-3.726c0-0.139-0.053-0.278-0.217-0.278c-0.137,0-0.195,0.057-0.794,0.663
		c-1.73,1.675-3.076,1.755-3.569,1.755c-0.521,0-2.305-0.249-2.305-2.938c0-0.164,0-0.356,0.054-0.851L377.088,24.671z
		 M373.908,24.535c0.658-3.129,2.553-6.176,4.584-6.176c1.312,0,1.312,1.289,1.312,1.537
		C379.806,23.572,375.798,24.316,373.908,24.535"/>
	<path fill="#FFFFFF" d="M184.597,24.808l-0.996-10.834v-0.892c0-1.51,0.414-1.75,1.889-2.021c0.547-0.138,1.131-0.275,1.131-0.928
		c0-0.444-0.344-0.718-0.722-0.718c-1.542,0.035-3.119,0.171-4.694,0.171c-1.578,0-3.154-0.137-4.664-0.171
		c-0.479,0-0.892,0.171-0.892,0.718c0,0.616,0.685,0.653,1.163,0.791c0.791,0.169,1.064,0.38,1.238,1.197l1.471,17.799
		c0.105,0.855,0.174,1.302,1.203,1.302c1.507,0,2.021-1.235,2.776-2.265l8.741-12.137l2.023-2.674
		c0.443-0.581,1.439-1.956,2.021-2.398c0.619-0.483,1.34-0.583,2.094-0.788c0.412-0.104,0.752-0.312,0.752-0.759
		c0-0.512-0.34-0.786-0.819-0.786c-1.065,0.035-2.161,0.171-3.257,0.171c-1.098,0-2.197-0.137-3.293-0.171
		c-0.482,0-0.993,0.307-0.993,0.858c0,0.65,0.89,0.65,1.368,0.687c0.652,0.029,1.234,0.305,1.234,1.027
		c0,0.994-2.4,4.148-3.05,5.072L184.597,24.808z M202.055,31.221c5.175,0,11.312-3.432,11.312-9.19c0-4.459-3.942-6.961-8.022-6.961
		c-5.312,0-11.004,3.947-11.004,9.602c0,2.022,0.924,3.736,2.534,4.969C198.419,30.806,200.167,31.221,202.055,31.221
		 M201.95,30.226c-1.816,0-2.262-1.954-2.262-3.429c0-2.126,0.652-4.285,1.541-6.207c0.825-1.815,2.471-4.423,4.732-4.423
		c1.885,0,2.229,1.508,2.229,3.088C208.19,22.338,205.792,30.226,201.95,30.226 M227.734,26.249
		c1.575-2.263,4.182-5.966,4.182-8.812c0-1.167-0.685-2.369-1.988-2.369c-1.27,0-2.058,1.066-2.058,2.262
		c0,0.757,0.24,1.306,0.479,2.025c0.24,0.687,0.344,0.994,0.344,1.714c0,2.538-2.778,5.863-4.285,7.749v-2.981
		c0-2.13-0.068-4.561-0.447-6.653c-0.34-1.815-0.854-4.116-3.15-4.116c-1.854,0-3.533,0.998-4.701,2.369
		c-0.41,0.479-1.475,1.987-1.475,2.638c0,0.241,0.174,0.48,0.412,0.48c0.822,0,1.236-2.674,2.676-2.674
		c1.064,0,1.371,2.916,1.475,3.565l0.652,7.543c0,1.854-0.139,3.633-0.996,5.279c-0.548,1.028-1.783,2.502-3.088,2.502
		c-1.471,0-1.817-1.986-3.838-1.986c-0.992,0-1.953,0.788-1.953,1.851c0,1.543,1.748,2.159,3.053,2.159
		c3.734,0,6.135-2.5,8.502-5.04L227.734,26.249z M250.019,15.069c-0.926,0-1.646-0.237-2.125,0.654
		c-0.068,0.103-0.138,0.24-0.276,0.24c-0.101,0-0.239-0.071-0.31-0.104c-0.648-0.377-1.404-0.513-2.123-0.513
		c-2.848,0-5.934,1.815-7.955,3.737c-2.193,2.123-3.805,4.866-3.805,7.989c0,1.987,0.751,4.147,3.051,4.147
		c3.771,0,6.994-4.392,8.949-7.234c-0.31,1.711-1.098,3.942-1.098,5.588c0,1.096,0.583,1.646,1.61,1.646
		c1.989,0,3.978-1.513,5.351-2.85c0.477-0.479,1.78-1.917,1.78-2.673c0-0.204-0.102-0.444-0.341-0.444
		c-0.551,0-1.852,2.709-2.917,2.709c-0.341,0-0.444-0.412-0.444-0.651c0-0.655,0.378-1.889,0.549-2.47l0.721-2.674
		c0.309-1.166,1.985-6.102,1.985-6.72c0-0.548-0.989-0.379-1.304-0.379L250.019,15.069L250.019,15.069z M239.664,28.168
		c-0.788,0-1.026-0.723-1.026-1.44c0-1.92,0.957-4.011,1.918-5.658c1.027-1.714,2.914-4.628,5.143-4.628
		c0.754,0,1.405,0.652,1.405,1.407C247.104,20.212,242.132,28.168,239.664,28.168 M261.743,27.963
		c-0.754-0.206-2.398-0.519-2.398-1.51c0-0.379,0.309-0.684,0.649-0.855l0.343,0.1c1.132,0.244,1.611,0.343,2.776,0.343
		c1.888,0,3.602-0.271,5.212-1.267c1.61-0.995,2.778-2.541,2.778-4.492c0-1.134-0.343-1.818-0.995-2.712h1.99
		c0.788,0,0.618,0.104,0.89-0.788c0-0.1,0.104-0.409,0.104-0.513c0-0.172-0.548-0.104-0.583-0.104h-2.467
		c-1.03,0-1.373-0.032-2.366-0.341c-1.509-0.479-2.71-0.757-4.323-0.757c-3.428,0-7.506,1.786-7.506,5.729
		c0,1.919,1.268,3.391,2.912,4.216c-1.163,0.788-2.707,1.815-2.707,3.394c0,0.824,0.344,1.579,0.857,2.159
		c-1.919,0.172-5.656,1.098-5.656,3.532c0,2.229,2.467,3.394,4.32,3.942c1.781,0.55,3.873,0.755,5.76,0.755
		c1.988,0,4.012-0.136,5.863-0.892c1.85-0.788,3.359-2.193,3.359-4.319c0-1.714-1.135-2.95-2.572-3.737
		c-1.234-0.651-3.223-1.096-4.631-1.476L261.743,27.963z M262.464,24.875c-1.373,0-2.022-1.232-2.022-2.467
		c0-2.092,1.335-6.31,3.977-6.31c1.336,0,1.815,1.511,1.815,2.606C266.233,20.831,265.14,24.875,262.464,24.875 M257.87,31.422
		c1.336,0.894,3.016,1.374,4.594,1.717c1.166,0.241,3.498,0.515,3.498,2.159c0,1.919-2.572,2.333-4.047,2.333
		c-2.229,0-6.307-0.926-6.307-3.772C255.608,32.452,256.534,31.562,257.87,31.422 M279.265,24.467
		c3.631-0.48,11.211-0.723,11.211-5.762c0-2.638-2.505-3.636-4.768-3.636c-5.555,0-11.828,4.663-11.828,10.529
		c0,3.701,2.949,5.623,6.343,5.623c1.919,0,3.907-0.687,5.451-1.821c0.548-0.409,2.64-2.262,2.64-2.946
		c0-0.205-0.207-0.413-0.41-0.413c-0.617,0-2.504,3.019-5.588,3.019c-2.059,0-3.123-1.508-3.123-3.461L279.265,24.467z
		 M279.435,23.3c0.344-2.197,2.537-7.201,5.212-7.201c0.788,0,1.131,0.756,1.131,1.472c0,1.409-0.892,3.191-1.919,4.116
		C282.726,22.717,280.976,23.232,279.435,23.3 M300.656,22.27c0.482-0.856,2.329-4.149,3.463-4.149c0.413,0,0.479,0.344,0.479,0.654
		c0.101,1.165,0.516,1.849,1.783,1.849c1.646,0,2.709-1.644,2.709-3.155c0-1.302-0.998-2.4-2.331-2.4
		c-3.702,0-5.795,4.595-7.475,7.305l0.378-1.542c0.307-1.235,0.65-2.674,0.65-3.944c0-1.235-0.719-1.818-1.885-1.818
		c-1.922,0-3.771,1.341-5.041,2.676c-0.41,0.412-1.68,1.68-1.68,2.33c0,0.241,0.205,0.416,0.412,0.416
		c0.754,0,1.954-2.609,3.152-2.609c0.309,0,0.412,0.308,0.412,0.547c0,0.687-0.514,2.369-0.722,3.019l-2.398,8.092
		c-0.034,0.169-0.17,0.687-0.17,0.822c0,0.514,0.822,0.413,1.131,0.413h0.927c0.549,0,1.953,0.101,2.397-0.273
		c0.274-0.208,0.448-0.754,0.583-1.063L300.656,22.27z"/>
</g>
</svg>
