<svg xmlns="http://www.w3.org/2000/svg" width="640" height="750" viewBox="0 0 640 750"><style>.animated { -webkit-animation-duration: 1s; animation-duration: 1s; -webkit-animation-fill-mode: both; animation-fill-mode: both; } .animated.infinite { -webkit-animation-iteration-count: infinite; animation-iteration-count: infinite; } @-webkit-keyframes bounce { 0%, 20%, 53%, 80%, 100% { -webkit-animation-timing-function: cubic-bezier(0.215, 0.610, 0.355, 1.000); animation-timing-function: cubic-bezier(0.215, 0.610, 0.355, 1.000); -webkit-transform: translate3d(0,0,0); transform: translate3d(0,0,0); } 40%, 43% { -webkit-animation-timing-function: cubic-bezier(0.755, 0.050, 0.855, 0.060); animation-timing-function: cubic-bezier(0.755, 0.050, 0.855, 0.060); -webkit-transform: translate3d(0, -30px, 0); transform: translate3d(0, -30px, 0); } 70% { -webkit-animation-timing-function: cubic-bezier(0.755, 0.050, 0.855, 0.060); animation-timing-function: cubic-bezier(0.755, 0.050, 0.855, 0.060); -webkit-transform: translate3d(0, -15px, 0); transform: translate3d(0, -15px, 0); } 90% { -webkit-transform: translate3d(0,-4px,0); transform: translate3d(0,-4px,0); } } @keyframes bounce { 0%, 20%, 53%, 80%, 100% { -webkit-animation-timing-function: cubic-bezier(0.215, 0.610, 0.355, 1.000); animation-timing-function: cubic-bezier(0.215, 0.610, 0.355, 1.000); -webkit-transform: translate3d(0,0,0); transform: translate3d(0,0,0); } 40%, 43% { -webkit-animation-timing-function: cubic-bezier(0.755, 0.050, 0.855, 0.060); animation-timing-function: cubic-bezier(0.755, 0.050, 0.855, 0.060); -webkit-transform: translate3d(0, -30px, 0); transform: translate3d(0, -30px, 0); } 70% { -webkit-animation-timing-function: cubic-bezier(0.755, 0.050, 0.855, 0.060); animation-timing-function: cubic-bezier(0.755, 0.050, 0.855, 0.060); -webkit-transform: translate3d(0, -15px, 0); transform: translate3d(0, -15px, 0); } 90% { -webkit-transform: translate3d(0,-4px,0); transform: translate3d(0,-4px,0); } } .bounce { -webkit-animation-name: bounce; animation-name: bounce; -webkit-transform-origin: center bottom; transform-origin: center bottom; }</style><g class="animated infinite bounce"><path fill="#52B1DF" d="M579 53l10 1.467-10 9.533v-11z"/><path fill="#7CD2FC" d="M489 26h100v29h-100v-29z"/><path fill="#FEFEFE" d="M507.312 46.578c2.297-.094 3.75-1.359 4.356-3.797l1.828.422c-.891 3.047-2.93 4.593-6.117 4.641-4.032-.235-6.164-2.555-6.396-6.961.187-4.781 2.362-7.289 6.539-7.523 2.672.094 4.566 1.453 5.691 4.078l-1.758.422c-.844-2.015-2.204-3.047-4.078-3.094-2.855.281-4.43 2.274-4.711 5.977.192 3.609 1.739 5.554 4.646 5.835zm18.129 1.055v-1.266h-7.242v-12.797h-1.617v14.063h8.859zm3.428 0h1.547v-14.063h-1.547v14.063zm11.52-1.055c2.297-.094 3.75-1.359 4.359-3.797l1.828.422c-.895 3.047-2.93 4.593-6.117 4.641-4.032-.235-6.164-2.555-6.398-6.961.188-4.781 2.366-7.289 6.539-7.523 2.673.094 4.57 1.453 5.695 4.078l-1.758.422c-.844-2.015-2.204-3.047-4.078-3.094-2.859.281-4.43 2.274-4.711 5.977.188 3.609 1.733 5.554 4.641 5.835zm18.761 1.055l-5.063-7.242-2.812 2.813v4.43h-1.617v-14.064h1.617v7.664l7.521-7.664h2.25l-5.977 5.836 6.258 8.227h-2.177zm7.084-.07v-2.039h-2.184v2.039h2.184zm6.524 0v-2.039h-2.18v2.039h2.18zm6.523 0v-2.039h-2.181v2.039h2.181z"/></g><path fill="#269CD7" d="M328 68h259c2.761 0 5 2.24 5 5v93c0 2.76-2.239 5-5 5h-259c-2.761 0-5-2.24-5-5v-93c0-2.76 2.239-5 5-5z"/><path fill="#0B4B7F" d="M328 170c-2.206 0-4-1.794-4-4v-93c0-2.206 1.794-4 4-4h259c2.206 0 4 1.794 4 4v93c0 2.206-1.794 4-4 4h-259"/><path fill="#164F93" d="M583.817 170l-258.001-1v-75.596l257.85 70.801.151 5.795z"/><path fill="#184E84" d="M324 161v-88c0-2.206 1.794-4 4-4h117l-121 92z"/><path fill="#184587" d="M325.816 159.618l63.981-48.646-63.981-17.568v66.214z"/><path fill="#61BAF3" d="M486.602 147.912h-2.438c1.016-6.16 3.555-12.221 7.617-18.18h-10.461v-2.031h13.203v1.422c-4.402 6.094-7.043 12.357-7.921 18.789zm13.794.102v-1.523h4.977v-18.688h-6.805v20.211h1.828zm3.352-18.485v6.602h-3.352v-6.602h3.352zm-3.352 8.43h3.352v6.703h-3.352v-6.703zm11.985 3.047c-.812 2.844-3.285 5.281-7.414 7.313.271.338.711.914 1.32 1.727 4.469-2.438 7.109-5.449 7.922-9.039h6.703v-7.82h-4.773l2.539-3.352v-1.727h-6.297c.338-.744.711-1.455 1.117-2.133l-2.031-.305c-1.016 2.438-2.676 4.74-4.977 6.906.338.271.643.576.914.914v7.516h4.977zm4.164-11.172l-2.539 3.352h-5.383c.947-1.016 1.828-2.133 2.641-3.352h5.281zm-3.758 9.445h-3.555v-4.469h4.062c0 1.625-.137 2.98-.406 4.063l-.101.406zm6.297 10.157c1.625.067 2.572-.711 2.844-2.336.135-.406.271-1.184.406-2.336v-.203c-.609-.203-1.152-.406-1.625-.609 0 .203-.035.543-.102 1.016-.068.746-.141 1.254-.203 1.523-.141.879-.682 1.286-1.625 1.219h-1.625c-.949 0-1.393-.373-1.32-1.117v-4.773h-1.828v5.078c-.068 1.76.846 2.606 2.742 2.539l2.336-.001zm-3.961-14.625h3.961v4.469h-4.469c0-.066.033-.135.102-.203.135-1.016.269-2.438.406-4.266zm10.232 7.82c.135 3.59 2.438 5.45 6.902 5.586 4.4-.136 6.703-1.93 6.906-5.383-.137-2.707-1.457-4.535-3.961-5.484 1.895-.879 2.91-2.402 3.047-4.57-.34-3.385-2.336-5.213-5.992-5.484-3.793.203-5.822 2.031-6.094 5.484.135 2.1 1.219 3.623 3.25 4.57-2.501.88-3.854 2.64-4.058 5.281zm11.477.203c-.271 2.303-1.795 3.555-4.57 3.758-2.773-.203-4.301-1.523-4.566-3.961.27-2.844 1.76-4.332 4.469-4.469 2.905.137 4.464 1.693 4.667 4.672zm-1.016-10.055c-.141 2.438-1.32 3.691-3.559 3.758-2.371-.135-3.59-1.455-3.655-3.961.202-2.166 1.425-3.316 3.655-3.453 2.171.203 3.356 1.422 3.559 3.656zm17.551-3.554c0 1.693-.068 3.725-.203 6.094h-10.766v2.031h10.562c-.678 4.537-4.231 8.092-10.664 10.664.406.406.879 1.016 1.422 1.828 6.229-2.574 9.783-6.127 10.664-10.664 1.219 4.875 4.875 8.328 10.969 10.359.066-.136.203-.373.406-.711.338-.542.646-.982.914-1.32-6.094-1.557-9.717-4.941-10.867-10.156h10.664v-2.031h-11.068c.062-1.354.102-3.385.102-6.094h9.648v-2.031h-21.33v2.031h9.547z"/><path fill="#fff" d="M347.575 114.276v-12.422c-.364.079-.909.275-1.636.586l-.979.352c-.146-.39-.399-.976-.763-1.758-.221-.545-.4-.976-.545-1.289 4.213-1.014 7.52-2.42 9.916-4.219h-9.045v-2.695h10.896v-2.344h-5.122c-1.309 0-2.507.041-3.597.117-.073-1.014-.218-1.914-.438-2.695 7.338 0 14.277-.234 20.816-.703l.436 2.813c-2.834.079-5.85.196-9.046.352v2.461h10.898v2.695h-9.154c2.397 1.798 5.667 3.125 9.812 3.984-.072.234-.221.547-.438.938-.146.392-.396 1.055-.763 1.992-.438-.077-.979-.234-1.636-.469-.363-.156-.652-.273-.873-.352v12.656h-3.158v-1.172h-12.533v1.172h-3.048zm20.273 35.066c-6.104-2.344-10.137-6.445-12.099-12.305h-4.358v8.555c.58-.234 1.562-.663 2.941-1.289 1.453-.624 2.578-1.093 3.379-1.406 0 .469.036 1.172.109 2.109v1.641c-2.184.625-4.252 1.445-6.213 2.461-.512.156-1.198.507-2.07 1.055-.219.077-.4.156-.545.234l-1.963-3.047c.652-.469.979-1.366.979-2.695v-7.617h-3.924v-3.281h3.924v-11.25h3.378v11.25h18.2v3.281h-10.57c1.672 4.298 5.305 7.306 10.897 9.023l-2.065 3.281zm-12.426-49.011v-3.281c-1.672 1.564-3.812 2.97-6.43 4.219h16.238c-2.766-1.093-5.017-2.538-6.76-4.336v3.398h-3.048zm-4.795 3.516v2.344h12.533v-2.344h-12.533zm0 4.57v2.344h12.533v-2.344h-12.533zm16.893 17.839c-4.066 2.188-8.354 4.298-12.856 6.328-.364-.858-.909-1.834-1.636-2.93 3.634-1.483 7.811-3.554 12.531-6.211l1.961 2.813zm7.302-25.339c-1.236-1.952-2.326-3.592-3.271-4.922l2.615-1.523c1.161 1.406 2.324 2.97 3.486 4.688l-2.83 1.757zm3.815 5.156c-.219.234-.396.392-.545.469-.365-.859-.617-1.562-.764-2.109-.364 1.564-.909 4.063-1.635 7.5-.221 1.015-.364 1.796-.438 2.344l-3.271-.938c.873-3.047 1.672-6.522 2.396-10.43.8.392 1.671.703 2.616.938l-.109-.469c2.473-1.483 4.396-3.32 5.776-5.508h-4.904v-2.813h4.47v-2.93h-3.379v-2.813h3.379v-2.93h2.941v2.93h4.688v-2.93h2.94v2.93h3.814v2.813h-3.812v2.93h4.795v2.813h-5.122c1.312 2.109 3.16 3.711 5.562 4.805l-1.312 3.047c-1.599-.938-2.938-1.952-4.029-3.047v5.625h-9.373v1.055c0 1.095.546 1.641 1.636 1.641h6.758c1.161 0 1.854-.469 2.07-1.406 0-.156.034-.39.106-.703 0-.234.107-.938.325-2.109.872.392 1.78.703 2.729.938-.222 1.485-.438 2.578-.653 3.281-.438 1.796-1.781 2.695-4.032 2.695h-8.393c-2.183 0-3.31-1.133-3.38-3.398v-5.744c-.434.392-1.051.899-1.85 1.523zm-3.16-13.008c-.361-.625-.908-1.523-1.636-2.695-.653-.938-1.163-1.679-1.522-2.227l2.726-1.523 3.378 4.688-2.946 1.757zm-2.944 53.933v-19.922h1.854v16.875h1.309v-21.328h2.289v21.094h1.31v-16.641h1.854v21.094h-1.854v-1.406l-6.762.234zm10.136-19.336v-2.695h5.886c.07-.78.108-1.641.108-2.578h2.942c0 .313-.037.782-.109 1.406v1.172h5.668v2.695h-6.104c0 .234-.035.469-.107.703 1.09.392 2.648 1.095 4.688 2.109.58.313 1.056.548 1.416.703l-1.09 2.461h1.962v2.695h-1.853v9.844c.067 2.421-1.057 3.71-3.379 3.867h-3.487c-.146-1.016-.327-2.032-.545-3.047h2.942c1.23.077 1.812-.428 1.742-1.523v-9.141h-11.555v-2.695h1.744c-.365-.858-.766-1.679-1.199-2.461 3.271-.78 5.193-1.952 5.775-3.516l-5.445.001zm.218 18.867v-8.438h8.283v8.438h-8.283zm.435-43.268v2.578h6.539v-2.578h-6.539zm2.507-5.391c-.582 1.016-1.198 1.954-1.854 2.813h7.084c-.65-.859-1.232-1.796-1.742-2.813h-3.488zm9.918 35.769c-1.09-.624-2.763-1.483-5.015-2.578-.51-.234-.871-.428-1.092-.586-.943 1.172-2.763 2.227-5.447 3.164h11.554zm-10.571-41.511v2.93h4.688v-2.93h-4.688zm.219 48.659v3.047h3.16v-3.047h-3.16zm14.929-41.745h15.912v2.93h-15.912v-2.93zm0 36.003h15.912v2.93h-15.912v-2.93zm23.432-36.003c.146 6.72-.871 11.876-3.051 15.469-.292-.392-.837-1.016-1.635-1.875-.365-.312-.583-.509-.654-.586.943-1.562 1.562-3.241 1.854-5.039.289-1.717.438-4.453.438-8.203v-11.25h23.977v2.461h-20.926l-.003 9.023zm-1.308 51.237v-12.422c-.364.079-.909.275-1.637.586l-.979.352c-.146-.39-.4-.976-.763-1.758-.223-.545-.4-.976-.545-1.289 4.213-1.014 7.52-2.42 9.917-4.219h-9.05v-2.695h10.898v-2.344h-5.122c-1.308 0-2.507.041-3.597.117-.073-1.014-.219-1.913-.438-2.695 7.338 0 14.277-.234 20.816-.703l.436 2.813c-2.834.079-5.85.196-9.046.352v2.461h10.898v2.695h-9.154c2.397 1.798 5.667 3.126 9.812 3.984-.073.234-.222.548-.438.938-.146.392-.397 1.055-.763 1.992-.438-.077-.98-.234-1.638-.469-.361-.155-.65-.272-.869-.352v12.656h-3.16v-1.172h-12.526v1.172h-3.052zm2.289-56.862v-2.109h19.29v2.109h-9.595l-.323 1.406h8.827v9.727h-10.788l-.654.703c-.218.313-.364.509-.438.586h11.444v2.344c-1.09.938-2.472 1.875-4.142 2.813.358 0 .939.039 1.739.117.654.156 2.289.352 4.904.586-.436.938-.763 1.758-.979 2.461-3.928-.469-7.017-1.095-9.268-1.875-2.544.938-5.994 1.679-10.354 2.227-.291-1.016-.618-1.836-.98-2.461 2.397-.157 5.049-.509 7.955-1.055-1.163-.625-2.288-1.366-3.378-2.227-.872.703-1.926 1.406-3.161 2.109-.436-.703-.941-1.406-1.521-2.109 2.541-1.406 4.396-2.813 5.559-4.219h-3.161v-9.727h5.449l.327-1.406h-6.752zm5.558 42.917v-3.281c-1.672 1.564-3.812 2.97-6.43 4.219h16.237c-2.765-1.093-5.016-2.538-6.76-4.336v3.398h-3.047zm-4.795 3.516v2.344h12.533v-2.344h-12.533zm0 4.57v2.344h12.533v-2.344h-12.533zm3.052-47.839v1.172h11.552v-1.172h-11.552zm0 2.461v1.172h11.552v-1.172h-11.552zm0 2.578v1.172h11.552v-1.172h-11.552zm6.212 8.438c1.379-.625 2.765-1.328 4.146-2.109h-8.065c1.302.937 2.611 1.64 3.919 2.109zm14.931 26.862c-1.236-1.952-2.326-3.592-3.271-4.922l2.615-1.523c1.161 1.406 2.324 2.97 3.487 4.688l-2.831 1.757zm3.815 5.156c-.219.234-.396.392-.545.469-.365-.858-.618-1.562-.764-2.109-.364 1.564-.909 4.063-1.635 7.5-.222 1.015-.364 1.796-.438 2.344l-3.27-.938c.871-3.047 1.671-6.522 2.396-10.43.799.392 1.671.703 2.616.938l-.109-.469c2.472-1.483 4.396-3.319 5.776-5.508h-4.904v-2.813h4.468v-2.93h-3.378v-2.813h3.378v-2.93h2.943v2.93h4.688v-2.93h2.94v2.93h3.814v2.813h-3.814v2.93h4.795v2.813h-5.122c1.312 2.109 3.16 3.712 5.562 4.805l-1.312 3.047c-1.599-.938-2.938-1.952-4.028-3.047v5.625h-9.373v1.055c0 1.095.545 1.641 1.635 1.641h6.758c1.161 0 1.854-.469 2.07-1.406 0-.155.036-.39.105-.703 0-.234.108-.938.326-2.109.872.392 1.78.703 2.729.938-.222 1.485-.438 2.578-.653 3.281-.438 1.796-1.781 2.695-4.032 2.695h-8.393c-2.184 0-3.311-1.133-3.378-3.398v-5.742c-.435.39-1.053.897-1.851 1.521zm-3.161-13.008c-.36-.624-.905-1.523-1.635-2.695-.653-.938-1.163-1.679-1.521-2.227l2.725-1.523 3.378 4.688-2.947 1.757zm-2.398-14.792v-20.859h3.483v20.859h-3.483zm3.815-21.679c-.872-1.406-1.962-2.968-3.27-4.688l2.94-1.641c1.382 1.564 2.509 3.008 3.381 4.336l-3.051 1.993zm10.244 21.445c-.07-.626-.255-1.641-.545-3.047-.073-.156-.104-.311-.104-.469 1.157.079 2.647.117 4.468.117 1.598.079 2.325-.663 2.18-2.227v-16.757h-11.661v-3.516h15.149v21.328c.145 2.968-1.236 4.453-4.146 4.453l-5.341.118zm-3.815 25.222v2.578h6.539v-2.578h-6.539zm2.507-5.391c-.582 1.017-1.198 1.954-1.854 2.813h7.084c-.65-.858-1.232-1.796-1.74-2.813h-3.49zm-.653-5.742v2.93h4.688v-2.93h-4.688zm15.148-29.089h15.912v2.93h-15.912v-2.93zm22.669 1.758c-.653-.625-1.525-1.406-2.615-2.344-.872-.703-1.49-1.249-1.854-1.641l2.181-2.461c.725.547 1.812 1.447 3.27 2.695l1.312 1.055-2.294 2.696zm.872 7.617c-.654 2.422-1.199 4.336-1.639 5.742l-3.156-1.172c.87-2.734 1.853-6.17 2.938-10.313.943.313 1.997.703 3.16 1.172-.286 1.017-.722 2.54-1.303 4.571zm0-15.234c-1.962-1.952-3.416-3.32-4.359-4.102l2.18-2.461c.729.547 1.744 1.406 3.056 2.578.649.547 1.157.978 1.521 1.289l-2.398 2.696zm7.739 16.875c-.65 1.406-2.067 2.93-4.251 4.57-.8-.703-1.708-1.485-2.725-2.344 2.033-1.25 3.306-2.42 3.812-3.516.582-1.093.871-2.93.871-5.508h3.271c.002 3.048-.325 5.315-.978 6.798zm-5.232-17.461v-3.047h7.411c-.292-.938-.583-1.952-.872-3.047l3.597-.234c.071.392.253 1.016.545 1.875.146.703.253 1.172.326 1.406h7.303v3.047h-2.289c-1.163 2.422-2.649 4.453-4.469 6.094 1.815.782 4.178 1.406 7.084 1.875-.291.469-.688 1.33-1.198 2.578-.069.234-.146.43-.218.586-3.706-.78-6.577-1.796-8.609-3.047-2.323 1.33-5.229 2.422-8.72 3.281-.649-1.406-1.127-2.461-1.417-3.164 2.762-.545 5.158-1.249 7.193-2.109-1.454-1.249-2.907-3.085-4.359-5.508l.98-.586h-2.288zm4.577 0c1.379 2.033 2.725 3.477 4.03 4.336 1.524-1.172 2.798-2.617 3.812-4.336h-7.842zm6.649 21.328v-10.664h3.271v10.664h-3.271zm13.296-19.336c-.36 2.188-1.019 4.962-1.962 8.32-.218-.077-.545-.156-.979-.234-.654-.234-1.163-.39-1.525-.469.653-2.186 1.312-4.922 1.961-8.203l2.505.586zm3.814 4.453c.218 6.641-1.308 11.759-4.577 15.352-.291-.234-.728-.547-1.308-.938-.729-.547-1.236-.938-1.526-1.172 3.052-3.047 4.469-7.694 4.251-13.945v-11.485h3.16v12.188zm2.289 3.633c-.51-2.578-1.199-5.039-2.071-7.383l2.398-.82c.649 1.954 1.379 4.376 2.18 7.266l-2.507.937zm2.833 10.664v-26.016h3.052v26.016h-3.052zm5.559-10.664c-.65-2.578-1.346-5.039-2.066-7.383l2.396-.82c.438 1.406 1.09 3.633 1.962 6.68-.07-.156 0 .079.221.703l-2.513.82zm2.724 11.25v-27.188h3.052v27.188h-3.052zm7.084-14.883h15.912v2.93h-15.912v-2.93z"/></svg>