<?xml version="1.0" encoding="utf-8"?>
<!-- Generator: Adobe Illustrator 16.0.0, SVG Export Plug-In . SVG Version: 6.00 Build 0)  -->
<!DOCTYPE svg PUBLIC "-//W3C//DTD SVG 1.1//EN" "http://www.w3.org/Graphics/SVG/1.1/DTD/svg11.dtd">
<svg version="1.1" id="图层_1" xmlns="http://www.w3.org/2000/svg" xmlns:xlink="http://www.w3.org/1999/xlink" x="0px" y="0px"
	 width="640px" height="320px" viewBox="0 0 640 320" enable-background="new 0 0 640 320" xml:space="preserve">
<path fill="#FFFFFF" d="M255.364,117.002v-1.641h1.94v-3.516h1.582v3.516h1.653v1.641h-1.653v3.594l1.725-0.703
	c0,0.521,0.024,1.068,0.072,1.641l-1.797,0.781v5.938c0.047,1.354-0.528,2.057-1.725,2.109c-0.192,0-0.479,0.026-0.863,0.078
	c-0.287,0-0.503,0-0.646,0c-0.097-0.677-0.216-1.302-0.359-1.875c0.287,0,0.694,0,1.222,0c0.575,0,0.838-0.234,0.791-0.703v-4.922
	l-2.012,0.859l-0.216-1.875c0.288-0.104,0.719-0.26,1.294-0.469c0.431-0.156,0.742-0.26,0.934-0.313v-4.141H255.364z
	 M259.777,87.502c-0.46-0.5-1.189-1.207-2.185-2.125c-0.92-0.916-1.649-1.582-2.185-2l2.415-2.75c0.306,0.25,0.805,0.668,1.495,1.25
	c1.38,1.084,2.375,1.918,2.99,2.5L259.777,87.502z M260.927,95.002c-0.845,3.25-1.38,5.5-1.61,6.75l-3.68-1.125
	c0.69-2.416,1.57-6.082,2.645-11c0.383,0.084,0.996,0.293,1.84,0.625c0.766,0.25,1.341,0.459,1.725,0.625
	C261.617,91.795,261.31,93.17,260.927,95.002L260.927,95.002z M260.352,79.127c-1.304-1.416-2.76-2.791-4.37-4.125l2.3-2.75
	c0.92,0.668,2.453,1.918,4.6,3.75L260.352,79.127z M262.839,128.955c-0.336,0.26-0.695,0.547-1.078,0.859l-1.006-1.484
	c0.431-0.416,0.647-1.041,0.647-1.875v-13.047c3.689-0.156,7.115-0.442,10.278-0.859l0.431,1.641c-0.192,0-0.456,0.027-0.791,0.078
	c-0.959,0.105-2.084,0.209-3.378,0.313c0,1.459,0.047,3.021,0.144,4.688h4.384v1.641h-4.313c0.144,2.761,0.647,4.949,1.51,6.563
	c0.334,0.521,0.646,0.781,0.934,0.781c0.239,0,0.407-0.208,0.503-0.625c0-0.156,0.023-0.442,0.072-0.859
	c0.095-0.729,0.167-1.301,0.215-1.719c0.144,0.053,0.383,0.131,0.719,0.234c0.288,0.156,0.503,0.261,0.647,0.313
	c0,0.209-0.025,0.521-0.072,0.938c-0.048,0.678-0.144,1.328-0.288,1.953c-0.288,1.094-0.862,1.641-1.725,1.641
	c-0.959,0-1.773-0.625-2.443-1.875c-0.959-1.666-1.51-4.114-1.653-7.344h-3.522v6.172l2.947-1.719c0,0.053,0,0.105,0,0.156
	c0.047,0.469,0.144,0.99,0.288,1.563c-0.192,0.105-0.479,0.261-0.862,0.469C264.228,128.123,263.365,128.59,262.839,128.955
	L262.839,128.955z M264.147,83.127c-0.538-0.75-1.342-1.707-2.415-2.875c2.53-2.666,4.37-5.5,5.52-8.5l3.91,0.375
	c-0.307,0.75-0.652,1.5-1.035,2.25h12.535v3.25h-14.26c-0.155,0.168-0.345,0.459-0.575,0.875c-0.307,0.418-0.537,0.75-0.69,1h14.145
	c0,0.168,0,0.625,0,1.375c-0.077,2.418-0.115,4.418-0.115,6h2.185v3.25h-2.3l-0.115,4.125h1.955v3.25h-2.07
	c-0.077,2.75-1.61,4.125-4.6,4.125l-4.83,0.125c-0.154-0.418-0.345-1-0.575-1.75c-0.155-0.584-0.27-1.043-0.345-1.375
	c1.533,0.082,3.028,0.125,4.485,0.125c1.38,0.082,2.146-0.334,2.3-1.25h-13.915l0.69-7.375h-2.07v-3.25h2.415l0.46-4.5
	L264.147,83.127z M266.433,119.268c-0.048-1.406-0.072-2.916-0.072-4.531c-1.15,0.053-2.252,0.131-3.306,0.234v4.297H266.433z
	 M265.929,130.518c-0.479-0.781-1.006-1.537-1.581-2.266l1.222-0.703c0.575,0.469,1.174,1.198,1.797,2.188L265.929,130.518z
	 M272.542,94.252c-0.92-0.916-1.802-1.625-2.645-2.125l1.725-2h-4.025l-0.46,4.125H272.542z M268.287,82.877l-0.345,4h4.945
	c-0.23-0.166-0.537-0.416-0.92-0.75c-0.767-0.666-1.38-1.166-1.84-1.5l1.725-1.75H268.287z M277.487,94.252v-4.125h-5.29
	c0.46,0.334,1.073,0.793,1.84,1.375c0.536,0.418,0.958,0.75,1.265,1l-1.495,1.75H277.487z M277.602,86.877c0-2.082,0-3.416,0-4
	h-4.945c0.843,0.5,1.8,1.209,2.875,2.125l-1.61,1.875H277.602L277.602,86.877z M276.637,127.705c-0.959,0.938-1.725,1.77-2.3,2.5
	l-0.791-1.797c0.239-0.208,0.67-0.598,1.294-1.172c0.479-0.469,0.814-0.807,1.006-1.016v-5.938h-2.156v-1.797h3.809v7.656
	c0.91,1.459,2.228,2.161,3.953,2.109c3.066,0.104,6.229,0.104,9.488,0c-0.048,0.208-0.121,0.52-0.216,0.938
	c-0.144,0.364-0.24,0.651-0.288,0.859c-1.055,0-2.659-0.027-4.815-0.078c-2.3,0-3.858-0.027-4.672-0.078
	C279.176,129.84,277.739,129.111,276.637,127.705L276.637,127.705z M276.997,116.533c-0.431-0.781-1.198-2.004-2.3-3.672
	l1.366-0.781c0.239,0.313,0.67,0.886,1.294,1.719c0.575,0.781,0.981,1.355,1.222,1.719L276.997,116.533z M278.937,117.939v-1.719
	h4.457c0.047-0.989,0.072-2.422,0.072-4.297h1.725c0,1.563-0.025,2.996-0.072,4.297h5.175v1.719h-5.247
	c-0.097,1.146-0.288,2.188-0.575,3.125l0.791-0.703c0.479,0.469,1.341,1.355,2.587,2.656c1.197,1.25,2.036,2.136,2.516,2.656
	l-1.366,1.25c-0.862-1.041-2.444-2.786-4.744-5.234c-0.719,1.928-2.253,3.725-4.6,5.391c-0.336-0.52-0.719-1.041-1.15-1.563
	c3.114-2.031,4.719-4.557,4.815-7.578H278.937z M289.795,87.752c-1.534-1.416-3.182-2.875-4.945-4.375l2.415-3
	c1.993,1.5,3.718,2.875,5.175,4.125L289.795,87.752z M290.83,95.502c-0.845,2.75-1.419,4.791-1.725,6.125l-3.795-1.375
	c0.996-3.082,2.031-6.75,3.105-11c0.306,0.168,1.035,0.459,2.185,0.875c0.613,0.168,1.11,0.334,1.495,0.5
	C291.865,91.545,291.443,93.17,290.83,95.502L290.83,95.502z M290.6,79.502c-1.61-1.332-3.259-2.707-4.945-4.125l2.415-3.125
	c0.843,0.668,2.07,1.625,3.68,2.875c0.613,0.5,1.073,0.875,1.38,1.125L290.6,79.502z M293.475,81.252v-3.625h4.485
	c-0.307-0.582-0.805-1.416-1.495-2.5c-0.46-0.832-0.805-1.457-1.035-1.875l3.335-1.375c0.92,1.334,1.878,2.793,2.875,4.375
	l-2.645,1.375h4.255c1.15-2,2.146-3.916,2.99-5.75l3.795,1.25c-0.69,1.25-1.649,2.75-2.875,4.5h4.83v3.625h-7.36v3.375h6.325v3.625
	h-6.325v3.5h8.05v3.75h-8.05v6.25h-4.025v-6.25h-7.82v-3.75h7.82v-3.5h-6.21v-3.625h6.21v-3.375H293.475z M297.345,122.236v2.734
	h-2.444v-2.734H297.345z M297.345,128.018v2.578h-2.444v-2.578H297.345z M320.271,121.221c-0.048,5.209-1.605,7.864-4.671,7.969
	c-3.211-0.052-4.816-2.708-4.816-7.969c0.047-5.26,1.628-7.969,4.744-8.125C318.642,113.201,320.224,115.908,320.271,121.221
	L320.271,121.221z M318.619,121.221c0-4.531-1.055-6.77-3.163-6.719c-1.965,0.156-2.972,2.396-3.019,6.719
	c0,4.48,1.03,6.693,3.091,6.641C317.588,127.914,318.619,125.701,318.619,121.221L318.619,121.221z M314.399,88.877v-3.375h1.495
	V74.877h2.76c0.075-0.332,0.19-0.832,0.345-1.5c0.076-0.666,0.153-1.166,0.23-1.5l3.565,0.25l-0.806,2.75h3.796v23.125
	c0,0.168,0,0.375,0,0.625c1.915-2,2.797-5.416,2.645-10.25v-5.125h9.66v13.25c0,0.668,0.19,1,0.575,1h0.229
	c0.46,0.084,0.728-0.291,0.805-1.125c0.153-1.832,0.23-3.666,0.23-5.5c0.383,0.168,0.881,0.334,1.495,0.5
	c0.46,0.084,0.766,0.168,0.92,0.25c-0.154,2.668-0.308,4.75-0.46,6.25c-0.23,2.082-1.228,3.125-2.99,3.125h-1.495
	c-1.84,0-2.76-1.125-2.76-3.375V87.002h-2.76v1.375c0.152,5.918-1.074,10.416-3.681,13.5c-0.229-0.25-0.651-0.668-1.265-1.25
	c-0.537-0.584-0.959-1-1.265-1.25c-0.308,1.332-1.228,2.041-2.761,2.125c-0.229,0-0.614,0-1.149,0
	c-0.69,0.082-1.228,0.125-1.61,0.125c-0.077-1-0.307-2.125-0.69-3.375c0.613,0,1.303,0,2.07,0c0.996,0,1.456-0.457,1.38-1.375v-2.5
	l-2.414,1.375c-0.155-0.5-0.423-1.207-0.806-2.125c-0.384-0.916-0.69-1.625-0.92-2.125c0,4-0.614,7.541-1.84,10.625
	c-0.69-0.75-1.572-1.625-2.645-2.625c0.996-2.75,1.533-6.291,1.61-10.625H314.399z M318.884,88.877l-0.115,2.5l2.3-1.25
	c0.153,0.418,0.46,1.125,0.92,2.125c0.383,0.918,0.69,1.625,0.92,2.125v-5.5H318.884z M318.884,78.252v2.125l2.07-1.125
	c0.229,0.418,0.574,1.043,1.034,1.875c0.383,0.834,0.69,1.5,0.92,2v-4.875H318.884z M320.494,84.502
	c-0.461-1.332-0.998-2.625-1.61-3.875v4.875h4.024v-2.375L320.494,84.502z M325.805,128.955c0.622-4.947,2.491-9.766,5.606-14.453
	v-1.094h-9.344v1.563h7.403c-2.875,4.584-4.672,9.246-5.391,13.984H325.805L325.805,128.955z M326.818,80.127v-3.75h5.061
	c-0.077-0.5-0.27-1.25-0.575-2.25c-0.23-0.75-0.385-1.291-0.46-1.625l4.025-0.5c0.152,0.668,0.382,1.584,0.689,2.75
	c0.23,0.75,0.383,1.293,0.46,1.625h5.29v3.75H326.818z M336.223,120.049v-2.422h-2.229v2.422H336.223z M336.223,128.721v-2.266
	h-2.229v2.266H336.223z M348.152,121.221c-0.048,5.209-1.605,7.864-4.672,7.969c-3.211-0.052-4.815-2.708-4.815-7.969
	c0.047-5.26,1.629-7.969,4.744-8.125C346.523,113.201,348.104,115.908,348.152,121.221L348.152,121.221z M346.5,121.221
	c0-4.531-1.055-6.77-3.163-6.719c-1.965,0.156-2.972,2.396-3.019,6.719c0,4.48,1.03,6.693,3.091,6.641
	C345.469,127.914,346.5,125.701,346.5,121.221L346.5,121.221z M345.107,93.252c0.075,0,0,0.084-0.23,0.25
	c-0.154-0.582-0.385-1.416-0.689-2.5c-0.23-0.666-0.385-1.166-0.461-1.5c2.453-2.332,4.945-5.375,7.476-9.125l3.104,2.5
	c-0.154,0.168-0.345,0.418-0.574,0.75c-0.615,0.834-1.381,1.834-2.301,3v15.25h-3.795v-11
	C347.177,91.461,346.332,92.252,345.107,93.252L345.107,93.252z M354.077,74.377c-2.76,3.418-5.56,6.334-8.396,8.75
	c-0.767-2.082-1.304-3.457-1.609-4.125c2.53-2,4.79-4.375,6.785-7.125L354.077,74.377L354.077,74.377z M359.373,121.221
	c-0.048,5.209-1.605,7.864-4.672,7.969c-3.211-0.052-4.815-2.708-4.815-7.969c0.047-5.26,1.629-7.969,4.744-8.125
	C357.744,113.201,359.325,115.908,359.373,121.221L359.373,121.221z M357.721,121.221c0-4.531-1.055-6.77-3.163-6.719
	c-1.965,0.156-2.972,2.396-3.019,6.719c0,4.48,1.029,6.693,3.091,6.641C356.689,127.914,357.721,125.701,357.721,121.221
	L357.721,121.221z M354.767,87.127v-4.125h16.79v4.125h-4.255v9.125c0.153,3.332-1.305,5-4.37,5
	c-2.069,0.082-3.834,0.125-5.29,0.125c-0.077-0.668-0.229-1.625-0.46-2.875c-0.077-0.416-0.154-0.75-0.229-1
	c0.383,0,1.035,0,1.955,0c1.072,0.084,1.84,0.125,2.3,0.125c1.533,0.084,2.261-0.666,2.186-2.25v-8.25H354.767z M355.917,77.752v-4
	h14.49v4H355.917z M375.815,78.252v-3.375h6.9v-2.875h3.909v2.875h6.211v3.375h-6.211v2.625h3.221
	c2.76-2.082,5.25-4.541,7.475-7.375l2.99,2.25c-1.688,1.918-3.412,3.625-5.175,5.125H401v3.5h-10.005
	c-1.149,0.834-2.339,1.625-3.564,2.375h10.465v15.125h-3.795v-1.375h-12.766v1.375h-3.795v-9.75l-3.449,1.625
	c-0.23-1.25-0.575-2.625-1.035-4.125c4.83-1.666,8.739-3.416,11.729-5.25H373.4v-3.5h9.315v-2.625H375.815z M394.101,90.002h-12.306
	l-0.46,0.25v2.125h12.766V90.002z M381.335,95.252v2.25h12.766v-2.25H381.335z M402.604,88.502v-3.625h27.945v3.625h-19.205
	l-0.46,2.125h16.561c-0.155,1.918-0.346,3.959-0.575,6.125c-0.154,3.166-2.109,4.707-5.865,4.625
	c-1.84,0.082-4.294,0.125-7.36,0.125c-0.077-0.918-0.345-2.209-0.805-3.875c3.22,0.168,5.521,0.25,6.9,0.25
	c2.069,0.084,3.143-0.582,3.22-2c0-0.166,0-0.416,0-0.75c0.075-0.416,0.115-0.75,0.115-1h-16.79l1.035-5.625H402.604z
	 M406.054,82.877v-9.875h21.16v9.875H406.054z M410.079,76.502v2.875h13.11v-2.875H410.079z M432.968,85.502h16.79v3.125h-16.79
	V85.502z M456.084,101.752V88.627c-0.307,0.168-0.844,0.375-1.609,0.625c-0.308,0.168-0.575,0.293-0.806,0.375
	c-0.077-0.25-0.229-0.666-0.46-1.25c-0.154-0.332-0.499-1.125-1.035-2.375c4.141-0.832,7.514-2.207,10.12-4.125h-9.199v-3.125h11.27
	v-2.25c-1.15,0.084-2.415,0.125-3.795,0.125c-1.228,0-2.952,0-5.175,0c-0.077-0.416-0.154-0.957-0.23-1.625
	c-0.154-0.666-0.27-1.166-0.345-1.5c6.9,0,14.298-0.207,22.195-0.625l0.574,3.25c-3.145,0.168-6.324,0.25-9.545,0.25v2.375h11.271
	v3.125h-9.2c2.146,1.75,5.48,3.043,10.005,3.875c-0.154,0.418-0.385,1-0.689,1.75c-0.385,0.75-0.652,1.334-0.806,1.75
	c-0.767-0.25-1.572-0.5-2.415-0.75v13.25h-3.68v-1.125h-12.765v1.125H456.084z M464.364,87.002v-3.125
	c-1.534,1.5-3.565,2.793-6.095,3.875h16.215c-2.837-1.082-4.984-2.416-6.44-4v3.25H464.364z M459.765,90.877v2.125h12.765v-2.125
	H459.765z M459.765,95.627v2.125h12.765v-2.125H459.765z M484.953,87.877c-0.308-0.582-0.845-1.457-1.61-2.625
	c-0.69-1.25-1.265-2.207-1.725-2.875l3.22-1.75c1.149,1.5,2.3,3.209,3.45,5.125L484.953,87.877z M490.817,91.877
	c-0.689,0.668-1.457,1.25-2.3,1.75l-0.689-1.875c-0.69,3.25-1.381,6.582-2.07,10l-3.68-1.125c0.92-3.5,1.725-7.125,2.414-10.875
	c0.921,0.334,1.916,0.668,2.99,1c-0.154-0.25-0.229-0.541-0.229-0.875c2.452-1.332,4.407-3.166,5.864-5.5h-4.944v-3.25h4.6v-2.875
	h-3.564v-3.25h3.564v-3h3.45v3h4.6v-3h3.565v3h3.68v3.25h-3.68v2.875h4.83v3.25h-5.29c1.226,2.084,3.143,3.668,5.75,4.75
	c-0.614,1.25-1.15,2.459-1.61,3.625c-1.534-0.916-2.875-1.916-4.024-3v5.75h-9.891v0.875c0,1.25,0.575,1.875,1.726,1.875h6.899
	c1.303,0,1.993-0.541,2.07-1.625c0.23-0.75,0.383-1.75,0.46-3c0.995,0.334,2.07,0.709,3.22,1.125c-0.229,1.584-0.46,2.75-0.689,3.5
	c-0.46,2-1.918,3-4.37,3h-8.97c-2.455,0-3.681-1.25-3.681-3.75V91.877L490.817,91.877z M485.527,79.252
	c-0.307-0.5-0.729-1.207-1.265-2.125c-0.845-1.332-1.495-2.416-1.955-3.25l3.335-1.75c1.38,2.084,2.49,3.793,3.335,5.125
	L485.527,79.252z M494.152,90.127v2.5h6.556v-2.5H494.152z M496.913,84.377c-0.538,1-1.15,1.918-1.841,2.75h6.785
	c-0.537-0.75-1.112-1.666-1.725-2.75H496.913z M496.223,78.252v2.875h4.6v-2.875H496.223z"/>
<path fill="#FFFFFF" d="M275.547,297.593c-0.289,0.501-0.489,0.876-0.604,1.125c-4.025-2.187-7.131-4.843-9.315-7.969
	c-2.128,2.876-5.377,5.625-9.746,8.25l-1.035-2.156c4.83-2.562,8.164-5.499,10.005-8.813l2.415,0.281
	c-0.058,0.063-0.145,0.22-0.259,0.469c-0.116,0.188-0.202,0.345-0.259,0.469c2.357,3.126,5.462,5.563,9.315,7.313
	C275.949,296.749,275.776,297.094,275.547,297.593L275.547,297.593z M258.125,163.279c-0.92-1.062-1.984-2.093-3.191-3.094l1.38-1.5
	c0.057,0.063,0.143,0.157,0.259,0.281c1.035,0.813,2.041,1.72,3.019,2.719L258.125,163.279z M257.866,265
	c-0.116-0.062-0.259-0.219-0.431-0.469c-1.093-0.999-1.927-1.781-2.501-2.344l1.208-1.5c1.149,0.938,2.156,1.875,3.019,2.813
	L257.866,265z M258.297,231.188c-1.035-0.999-2.1-1.969-3.191-2.906l1.208-1.594c1.208,0.938,2.329,1.875,3.364,2.813
	L258.297,231.188z M255.278,207.314v-2.063h8.107v-18.75h2.242v6.75h8.539v2.25h-8.539v9.75h10.178v2.063H255.278z M258.556,170.217
	c-0.575,2-0.949,3.406-1.121,4.219l-1.984-0.75c0.574-1.688,1.322-4.437,2.243-8.25c0.401,0.188,1.035,0.438,1.897,0.75
	C259.36,167.062,259.015,168.405,258.556,170.217L258.556,170.217z M259.418,234.376c-0.806,3.063-1.466,5.78-1.983,8.156
	l-1.984-0.656c0.632-2.312,1.322-5.063,2.07-8.25c0.287,0.063,0.718,0.251,1.294,0.563
	C259.102,234.252,259.302,234.314,259.418,234.376L259.418,234.376z M259.159,268.094c-0.748,3.126-1.38,5.906-1.897,8.344
	l-1.811-0.656c0.805-3.188,1.408-5.968,1.811-8.344c0.229,0.126,0.747,0.313,1.553,0.563
	C258.181,267.813,258.297,267.845,259.159,268.094L259.159,268.094z M258.297,258.813c-0.92-1.062-1.811-1.999-2.674-2.813
	l1.294-1.406c0.919,0.813,1.839,1.72,2.76,2.719L258.297,258.813z M258.901,225.001c-0.289-0.249-0.72-0.656-1.294-1.219
	c-0.806-0.812-1.438-1.406-1.897-1.781l1.208-1.5c0.977,0.75,2.098,1.72,3.364,2.906L258.901,225.001z M258.901,157.186
	c-0.69-0.75-1.725-1.812-3.105-3.188l1.38-1.406c1.091,0.938,2.156,1.969,3.191,3.094L258.901,157.186z M268.475,310.812
	c-1.668-1.188-4.112-2.781-7.332-4.781c-0.748-0.499-1.323-0.874-1.725-1.125l1.208-1.594c1.954,1.251,3.593,2.282,4.917,3.094
	l4.916-4.781h-13.11v-2.063h15.87v2.25l-5.779,5.719c0.805,0.437,1.609,0.938,2.415,1.5L268.475,310.812z M259.591,260.125v-1.969
	h3.364c-0.289-0.812-0.604-1.999-0.949-3.563l1.897-0.281c0.057,0.375,0.201,0.938,0.431,1.688c0.229,0.876,0.401,1.594,0.518,2.156
	h-0.086h2.156v1.969h-4.054l-0.086,3.375h3.881c0,0.876-0.029,2.188-0.086,3.938c-0.058,2.688-0.116,4.626-0.173,5.813
	c0,1.813-0.806,2.719-2.415,2.719c-0.518,0.062-1.064,0.094-1.639,0.094l-0.345-1.969c0.574,0,1.005,0,1.293,0
	c0.977,0.062,1.437-0.375,1.38-1.313c0-0.375,0.028-0.968,0.086-1.781c0.115-2.625,0.172-4.5,0.172-5.625h-2.242
	c0,0.188,0,0.344,0,0.469c-0.116,4.563-0.979,8.156-2.587,10.781l-1.466-1.406c1.437-1.999,2.213-5.156,2.329-9.469
	c0.114-1.624,0.172-3.499,0.172-5.625H259.591z M262.178,226.688c-0.23,0.313-0.633,0.782-1.208,1.406
	c-0.058-0.062-0.116-0.124-0.172-0.188c-0.403-0.624-0.776-1.093-1.122-1.406c1.84-1.812,3.248-3.968,4.227-6.469l2.07,0.281
	c-0.289,0.688-0.604,1.313-0.949,1.875h10.522v1.781h-11.471c-0.403,0.75-0.862,1.438-1.38,2.063h11.471
	c-0.058,0.438-0.086,1.376-0.086,2.813c-0.058,1.188-0.086,2.126-0.086,2.813h1.983v1.781h-1.983c0,0.501-0.03,1.219-0.086,2.156
	c0,0.813,0,1.406,0,1.781h1.552v1.781h-1.639c-0.116,2.25-1.265,3.343-3.45,3.281c-0.92,0-1.956,0-3.105,0
	c-0.058-0.188-0.145-0.469-0.259-0.844c-0.116-0.438-0.202-0.75-0.259-0.938c1.035,0,2.04,0,3.019,0
	c1.38,0.062,2.098-0.438,2.156-1.5h-10.781l0.604-5.719h-1.897v-1.781h2.07l0.518-5.344
	C262.379,226.377,262.293,226.501,262.178,226.688L262.178,226.688z M260.971,155.498v-1.5h6.038v-1.781h1.984v1.781h6.555v1.5
	h-6.555v1.594h5.951v1.406h-5.951v1.594h6.986v1.5h-15.525v-1.5h6.555v-1.594h-5.52v-1.406h5.52v-1.594H260.971z M261.747,174.529
	v-11.438h12.679v8.531c0.057,1.813-0.834,2.719-2.674,2.719c-0.289,0-0.776,0-1.466,0c-0.806,0.062-1.38,0.094-1.725,0.094
	c-0.058-0.563-0.23-1.188-0.518-1.875c0.69,0.062,1.667,0.094,2.933,0.094c1.092,0.062,1.609-0.344,1.553-1.219v-0.75h-8.884v3.844
	H261.747z M265.973,299.093c-0.172-0.188-0.403-0.499-0.69-0.938c-0.92-1.187-1.639-2.063-2.156-2.625l1.552-1.125
	c0.574,0.563,1.38,1.47,2.415,2.719c0.229,0.313,0.402,0.532,0.518,0.656L265.973,299.093z M272.011,237.376
	c0.057-0.75,0.086-2.063,0.086-3.938h-8.539l-0.345,3.938H272.011z M263.645,164.592v1.688h8.884v-1.688H263.645z M263.645,167.592
	v1.688h8.884v-1.688H263.645z M264.248,227.72l-0.431,3.938h8.366c0-1.562,0-2.874,0-3.938H264.248z M268.561,237.188
	c-0.288-0.249-0.69-0.624-1.208-1.125c-0.575-0.437-1.006-0.78-1.293-1.031l0.949-1.125c0.69,0.501,1.552,1.188,2.587,2.063
	L268.561,237.188z M268.733,231.376c-0.345-0.375-0.893-0.844-1.639-1.406c-0.345-0.312-0.633-0.563-0.862-0.75l1.035-1.125
	c0.517,0.375,1.264,0.938,2.242,1.688c-0.116-0.124,0-0.03,0.345,0.281L268.733,231.376z M267.353,269.031v-1.875h3.537v-1.313
	l2.329-2.625h-4.83v-1.406l-0.604,0.938c-0.403-0.437-0.892-0.905-1.466-1.406c1.38-2.063,2.471-4.468,3.277-7.219l1.984,0.281
	c-0.345,1-0.69,1.969-1.035,2.906h5.434v1.875h-6.21c-0.345,0.75-0.748,1.5-1.208,2.25h6.728v1.969l-2.587,3v0.75h3.277v1.875
	h-3.277v4.594c0.057,1.688-0.748,2.531-2.415,2.531c-0.806,0.062-1.552,0.094-2.243,0.094c0-0.188-0.058-0.438-0.172-0.75
	c-0.058-0.563-0.116-0.97-0.172-1.219c0.69,0,1.35,0,1.984,0c0.862,0.062,1.264-0.313,1.208-1.125v-4.125H267.353z M297.799,308.187
	c-0.69,0.938-1.151,1.594-1.38,1.969c-5.061-2.874-7.993-7.155-8.797-12.844c-0.806,5.563-3.795,9.938-8.97,13.125
	c-0.116-0.188-0.316-0.469-0.604-0.844c-0.403-0.563-0.662-0.97-0.776-1.219c5.52-3.188,8.509-7.937,8.97-14.25
	c0.114-1.437,0.172-3.312,0.172-5.625h2.243l-0.086,3.281c0.574,8.25,3.708,13.657,9.401,16.219
	C297.914,308.061,297.856,308.124,297.799,308.187L297.799,308.187z M285.663,174.061c-0.748,0.188-1.293,0.375-1.639,0.563
	l-0.862-1.5c0.518-0.438,0.747-1,0.69-1.688v-2.625h-2.243c-0.172,2.063-0.862,4.031-2.07,5.906
	c-0.172-0.126-0.431-0.344-0.776-0.656c-0.403-0.313-0.69-0.563-0.862-0.75c1.437-1.562,2.098-4.313,1.983-8.25v-3.563h18.199v1.5
	h-16.301v2.156c0,0.313-0.03,0.72-0.086,1.219c0,0.501,0,0.844,0,1.031h16.56v1.406h-2.933l1.035,1.125
	c-0.461,0.313-1.093,0.688-1.897,1.125c-0.403,0.25-0.72,0.438-0.949,0.563c1.552,0.375,3.306,0.718,5.261,1.031
	c-0.403,0.624-0.69,1.187-0.863,1.688c-5.233-0.813-8.597-2.655-10.091-5.531h-2.156v3.469c0.805-0.188,2.156-0.437,4.054-0.75
	c-0.058,0.437-0.086,0.999-0.086,1.688C288.595,173.404,287.272,173.686,285.663,174.061L285.663,174.061z M278.073,259.281v-1.875
	h2.501c0.287-1.125,0.545-2.187,0.776-3.188l1.897,0.188c-0.058,0.375-0.202,1-0.431,1.875c-0.172,0.501-0.288,0.876-0.345,1.125
	h4.398v1.875h-4.916c-0.806,2.876-1.41,4.875-1.812,6h2.501v-4.594h1.639v4.594h2.329v1.875h-2.329v3l2.587-0.375
	c-0.058,0.75-0.086,1.406-0.086,1.969l-2.501,0.281v4.594h-1.897v-4.406c-1.552,0.188-2.99,0.375-4.313,0.563l-0.172-2.063
	c0.401,0,1.063-0.062,1.983-0.188c1.092-0.062,1.926-0.124,2.501-0.188v-3.188h-3.967v-1.875c0.057-0.188,0.143-0.469,0.259-0.844
	c0.459-1.5,0.919-3.218,1.38-5.156H278.073z M277.986,204.221v-1.781h9.747v-0.75l4.657-1.594h-12.592v-1.688h16.301v1.781
	l-6.21,2.25h8.884v1.781h-8.97v1.5c0.057,1.749-0.834,2.656-2.674,2.719c-0.978,0-2.128,0-3.45,0c0-0.063,0-0.156,0-0.281
	c-0.058-0.375-0.173-0.906-0.345-1.594c0.345,0,0.833,0.031,1.466,0.094c0.69,0,1.178,0,1.466,0
	c1.035,0.062,1.523-0.344,1.466-1.219v-1.219H277.986z M278.159,190.346v-1.781h9.401c-0.058-0.188-0.144-0.499-0.258-0.938
	c-0.173-0.563-0.317-0.968-0.432-1.219l2.243-0.281l0.69,2.438h8.884v1.781H278.159z M278.935,240.47v-17.906h1.639v17.906H278.935z
	 M280.747,160.092v-6.938h15.697v6.938H280.747z M280.833,196.814v-4.969h14.921v4.969H280.833z M282.644,154.561v1.5h11.902v-1.5
	H282.644z M282.644,157.279v1.406h11.902v-1.406H282.644z M282.644,242.626v-22.313h1.897v22.313H282.644z M282.816,165.811v-1.313
	h13.8v1.313H282.816z M282.816,193.439v1.875h11.04v-1.875H282.816z M289.372,225.47c-0.748,1.313-1.639,2.625-2.674,3.938
	c-0.23-0.249-0.662-0.624-1.293-1.125c-0.116-0.124-0.203-0.218-0.259-0.281c2.012-2.187,3.45-4.812,4.313-7.875l2.07,0.469
	c-0.116,0.251-0.259,0.626-0.431,1.125c-0.116,0.251-0.375,0.844-0.776,1.781h8.453v1.969H289.372L289.372,225.47z M299.032,261.625
	c-0.23,0.375-0.576,1.063-1.035,2.063c-2.358-1.812-4.169-3.969-5.434-6.469c-1.38,2.376-3.278,4.563-5.693,6.563
	c-0.116-0.249-0.375-0.718-0.776-1.406c-0.173-0.188-0.289-0.343-0.345-0.469c2.875-2.124,4.916-4.718,6.124-7.781l2.07,0.281
	l-0.431,0.938C294.892,258.095,296.731,260.188,299.032,261.625L299.032,261.625z M286.698,242.532v-11.906h11.212v11.906h-1.725
	v-1.594h-7.676v1.594H286.698z M291.355,275.969c-2.014,0-3.019-1.063-3.019-3.188v-9.563h1.897v4.125
	c1.84-1.062,3.593-2.344,5.261-3.844l1.208,1.688c-2.128,1.688-4.284,3.157-6.469,4.406v2.719c-0.058,1.125,0.518,1.655,1.725,1.594
	h1.984c1.149,0,1.782-0.53,1.897-1.594c0.172-0.999,0.287-2.063,0.345-3.188c0.69,0.25,1.322,0.469,1.897,0.656
	c-0.173,1.563-0.375,2.782-0.604,3.656c-0.23,1.688-1.323,2.531-3.277,2.531H291.355z M288.509,232.501v6.75h2.932v-6.75H288.509z
	 M289.716,168.811c0.69,0.813,1.437,1.5,2.243,2.063c1.264-0.624,2.357-1.313,3.277-2.063H289.716L289.716,168.811z
	 M293.512,230.157c-0.23-0.249-0.576-0.593-1.035-1.031c-0.862-0.874-1.553-1.562-2.07-2.063l1.293-1.313
	c0.345,0.313,0.891,0.813,1.639,1.5c0.69,0.688,1.208,1.188,1.553,1.5L293.512,230.157z M296.186,232.501h-3.019v6.75h3.019V232.501
	z M300.301,310.53v-21.094h18.716v21.094h-1.984v-1.5h-14.749v1.5H300.301z M304.241,237.376c-0.345,1.688-1.006,3.437-1.983,5.25
	c-0.23-0.251-0.547-0.656-0.949-1.219c-0.23-0.313-0.403-0.531-0.518-0.656c0.862-1.5,1.408-2.906,1.639-4.219
	c0.229-1.313,0.345-3.437,0.345-6.375v-8.625h15.698v10.313c0,4.313,0.143,6.844,0.431,7.594c0.115,0.375,0.287,0.563,0.518,0.563
	c0.229-0.063,0.402-0.281,0.518-0.656c0.173-1.624,0.287-2.874,0.345-3.75c0.173,0.063,0.518,0.188,1.035,0.375
	c0.229,0.063,0.401,0.126,0.518,0.188c-0.058,0.313-0.116,0.813-0.173,1.5c-0.172,1.188-0.288,1.938-0.345,2.25
	c-0.23,1.562-0.921,2.344-2.07,2.344c-1.035,0-1.755-0.719-2.156-2.156c-0.461-1.249-0.69-4.031-0.69-8.344v-8.25h-11.644v6.563
	C304.758,233.251,304.586,235.688,304.241,237.376L304.241,237.376z M320.801,208.158c-0.058,0.125-0.086,0.219-0.086,0.281
	c-4.256-0.625-7.39-1.469-9.401-2.531c-2.358,1.125-5.492,2.063-9.401,2.813c-0.116-0.313-0.316-0.75-0.604-1.313
	c-0.173-0.313-0.289-0.563-0.345-0.75c3.795-0.563,6.583-1.219,8.366-1.969c-1.61-1.187-3.019-2.843-4.226-4.969h-1.294v-1.781
	h14.231v1.875c-1.266,2.001-2.79,3.656-4.571,4.969c1.552,0.688,4.283,1.187,8.193,1.5
	C321.491,206.596,321.202,207.221,320.801,208.158L320.801,208.158z M300.963,260.594v-1.5h2.933
	c-0.172-0.124-0.489-0.375-0.949-0.75c-0.23-0.188-0.403-0.312-0.518-0.375c1.264-1.063,2.243-2.25,2.933-3.563l1.811,0.469
	c-0.058,0.126-0.172,0.313-0.345,0.563c-0.116,0.251-0.23,0.438-0.345,0.563h4.14v-1.781h1.897V256h7.331v1.406h-7.331v1.688h9.056
	v1.5H300.963z M301.481,269.125v-1.406h6.469V266.5h1.897v10.125h-1.897v-1.875h-6.986v-1.313h6.986v-1.5h-6.124v-1.313h6.124v-1.5
	H301.481z M301.481,198.127v-4.5h3.708c-0.058-0.188-0.172-0.437-0.345-0.75c-0.345-0.624-0.806-1.406-1.38-2.344l1.983-0.469
	c0.057,0.126,0.201,0.375,0.432,0.75c0.574,1.063,0.977,1.813,1.207,2.25l-1.639,0.563h9.229c0.862-1.374,1.609-2.719,2.242-4.031
	l1.984,0.656c-0.116,0.251-0.345,0.626-0.69,1.125c-0.172,0.251-0.604,1.001-1.294,2.25h4.14v4.5h-1.983v-2.625h-15.525v2.625
	H301.481z M320.197,188.752c-5.061,0.313-10.983,0.532-17.768,0.656c0-0.062-0.03-0.188-0.086-0.375
	c-0.058-0.687-0.144-1.187-0.259-1.5c6.094,0,11.989-0.219,17.682-0.656L320.197,188.752L320.197,188.752z M302.285,291.405v15.844
	h14.749v-15.844H302.285z M303.551,266.313v-4.406h15.353v4.406H303.551z M305.448,257.406c-0.403,0.563-0.92,1.125-1.552,1.688
	h6.728v-1.688H305.448z M307.001,170.498c0,2.188-0.748,3.812-2.243,4.875l-0.776-0.844c1.035-0.813,1.581-2.031,1.639-3.656h-1.466
	v-3.094h2.846C307.001,168.28,307.001,169.186,307.001,170.498L307.001,170.498z M314.591,240.001
	c-1.151-1.624-2.387-3.469-3.708-5.531c-1.438,2.063-3.048,4.001-4.83,5.813c-0.461-0.499-0.949-0.999-1.466-1.5
	c2.243-2.438,3.938-4.5,5.089-6.188c-0.461-0.687-1.179-1.718-2.156-3.094c-0.92-1.374-1.639-2.405-2.156-3.094l1.552-1.219
	c0.518,0.688,1.236,1.72,2.156,3.094c0.805,1.125,1.408,1.969,1.812,2.531c1.035-1.749,2.07-3.75,3.105-6l1.725,1.031
	c-0.978,2.25-2.186,4.5-3.622,6.75c1.954,2.876,3.334,4.938,4.14,6.188L314.591,240.001z M305.217,303.687v-8.906h8.883v8.906
	H305.217z M305.448,263.219v1.688h11.558v-1.688H305.448z M307.115,296.655v5.156h5.175v-5.156H307.115z M311.313,203.658
	c1.725-1.062,3.162-2.374,4.313-3.938h-8.194C308.582,201.534,309.875,202.847,311.313,203.658L311.313,203.658z M310.882,193.439
	c-0.403-1.125-0.834-2.187-1.294-3.188l1.984-0.469c0.459,0.938,0.862,2.001,1.208,3.188L310.882,193.439z M312.693,276.625V266.5
	h1.897v1.219h6.555v1.406h-6.555v1.5h6.124v1.313h-6.124v1.5h7.072v1.313h-7.072v1.875H312.693z M322.295,307.812V290.28h5.864
	v15.75h-4.054v1.781H322.295z M327.821,266.781c0.173,4.376-0.689,7.655-2.587,9.844c-0.403-0.438-0.949-0.906-1.639-1.406
	c1.667-1.749,2.414-4.562,2.242-8.438v-5.156h18.457v1.781h-16.474V266.781L327.821,266.781z M327.132,171.436
	c-0.807,0.624-1.669,1.625-2.588,3l-0.862-2.25c0.805-0.812,1.609-1.655,2.415-2.531v-7.313h-2.156v-2.156h4.054v9.469
	c0.805,1.626,2.299,2.438,4.484,2.438c2.53,0.062,6.584,0.031,12.162-0.094c-0.059,0.125-0.116,0.343-0.173,0.656
	c-0.23,0.563-0.375,1.031-0.432,1.406c-3.335,0-5.722,0-7.158,0c-1.783,0-3.394-0.032-4.83-0.094
	C329.806,173.904,328.167,173.061,327.132,171.436L327.132,171.436z M323.682,198.221v-2.438h20.959v2.438H323.682z
	 M324.105,292.249v11.719h2.329v-11.719H324.105z M327.045,157.842c-0.115-0.249-0.316-0.593-0.604-1.031
	c-0.518-0.938-1.207-2.063-2.07-3.375l1.639-1.031c0.978,1.375,1.926,2.782,2.847,4.219L327.045,157.842z M326.097,259.563v-4.594
	h1.983v2.813h5.521v-3.656h1.983v3.656h5.434v-2.813h1.984v4.594H326.097z M329.892,238.501c0,2.188-0.748,3.812-2.242,4.875
	l-0.776-0.844c1.035-0.813,1.58-2.032,1.639-3.656h-1.467v-3.094h2.847C329.892,236.283,329.892,237.188,329.892,238.501
	L329.892,238.501z M329.626,293.937v-1.969h4.398v-3.75h1.984v3.75h4.657v1.969h-4.657v3.469h5.605v1.875h-4.916
	c1.208,2.938,3.105,5.407,5.692,7.406l-1.293,1.781c-2.415-2.124-4.112-4.562-5.089-7.313v9.469h-1.984v-9.469
	c-1.207,3.188-3.048,5.781-5.52,7.781c-0.461-0.625-0.949-1.187-1.467-1.688c2.817-1.937,4.917-4.594,6.297-7.969h-4.485v-1.875
	h5.175v-3.469H329.626z M329.46,267.438v-1.781h13.369v1.781h-5.692v2.906h7.245v1.781h-7.245v4.5h-2.07v-4.5h-7.158v-1.781h7.158
	v-2.906H329.46z M331.357,169.092c-0.115,0.063-0.202,0.126-0.259,0.188l-1.034-1.5c0.401-0.437,0.604-0.968,0.604-1.594v-12.188
	c0.057,0,0.143-0.031,0.259-0.094c1.725-0.5,3.161-0.999,4.313-1.5l1.121,1.688c-1.553,0.625-2.847,1.063-3.882,1.313v10.688
	c0.402-0.188,1.006-0.499,1.812-0.938c0.518-0.249,0.891-0.437,1.121-0.563c0,0.251,0.028,0.656,0.087,1.219
	c0,0.375,0,0.656,0,0.844c-1.093,0.501-2.215,1.125-3.364,1.875C331.903,168.655,331.645,168.843,331.357,169.092L331.357,169.092z
	 M336.533,171.248v-17.156h7.158v11.813c0.057,1.626-0.661,2.47-2.156,2.531c-0.689,0.063-1.38,0.094-2.07,0.094l-0.431-1.969
	c0.345,0.063,0.862,0.094,1.553,0.094c0.862,0,1.264-0.375,1.207-1.125v-9.563h-3.45v15.281H336.533z M344.202,310.343v-18.375
	h2.329c0.057-0.249,0.143-0.593,0.259-1.031c0.229-0.687,0.431-1.594,0.604-2.719l2.156,0.375c-0.288,1.125-0.604,2.25-0.949,3.375
	h3.882v18.188h-1.897v-1.781h-4.399v1.969H344.202z M346.186,294.03v5.156h4.399v-5.156H346.186z M346.186,301.249v5.344h4.399
	v-5.344H346.186z M347.511,156.061v-1.5h5.693c-0.346-0.5-0.893-1.156-1.64-1.969l1.984-0.469c0.689,0.625,1.38,1.406,2.07,2.344
	l-0.087,0.094h3.536c0.229-0.312,0.546-0.718,0.949-1.219c0.459-0.563,0.776-0.968,0.948-1.219l2.07,0.469l-1.553,1.969h5.434v1.5
	h-9.659c-0.173,0.563-0.346,1.063-0.518,1.5h8.711v1.5h-9.229c-0.059,0.25-0.173,0.563-0.346,0.938
	c-0.115,0.251-0.202,0.438-0.258,0.563h11.557v1.594h-12.42c-0.288,0.563-0.604,1.063-0.948,1.5h11.299v10.969h-1.897v-1.125
	h-10.437v1.125h-1.897v-7.5c-0.979,0.938-2.07,1.875-3.277,2.813c-0.116-0.188-0.289-0.5-0.518-0.938
	c-0.23-0.375-0.403-0.656-0.518-0.844c2.702-1.937,4.686-3.938,5.951-6h-5.521v-1.594h6.469c0.115-0.188,0.259-0.5,0.432-0.938
	c0.114-0.249,0.201-0.437,0.259-0.563h-5.52v-1.5h6.037c0.173-0.437,0.345-0.938,0.518-1.5H347.511z M348.374,226.313v-1.594h6.641
	c0.057-0.188,0.173-0.563,0.345-1.125c0.057-0.249,0.115-0.437,0.173-0.563c-0.806,0.063-2.042,0.094-3.709,0.094
	c-1.61,0.063-2.846,0.094-3.708,0.094l-0.173-1.688c6.9-0.124,12.852-0.312,17.854-0.563l0.259,1.688
	c-2.703,0.063-5.491,0.157-8.366,0.281l-0.604,1.781h8.798v1.594h-9.401c-0.059,0.126-0.173,0.345-0.346,0.656
	c-0.23,0.501-0.402,0.876-0.517,1.125h11.815v1.594H354.67c-0.345,0.563-0.72,1.125-1.121,1.688h11.558v11.25h-1.984v-0.938h-10.35
	v0.938h-1.897v-8.156c-1.035,1.001-2.186,2.032-3.45,3.094c-0.403-0.874-0.69-1.53-0.862-1.969c2.529-1.875,4.485-3.844,5.865-5.906
	h-5.521v-1.594h6.555c0.057-0.124,0.144-0.312,0.259-0.563c0.173-0.249,0.402-0.656,0.69-1.219H348.374z M350.443,270.813
	c-0.345,1.813-1.093,3.718-2.242,5.719l-1.639-1.5c0.977-1.624,1.609-3.249,1.897-4.875c0.345-1.562,0.518-3.812,0.518-6.75V256
	c6.094-0.188,11.644-0.563,16.646-1.125l0.776,2.156c-4.83,0.438-9.949,0.782-15.353,1.031v3h16.301v1.969h-16.301v0.375
	C351.048,266.594,350.846,269.063,350.443,270.813L350.443,270.813z M346.734,190.533v-1.781h3.796v-2.438h1.811v2.438h3.709v1.781
	h-3.709v8.344h1.726v-6.281h1.466v8.156h-3.191v4.594c0.346-0.188,0.919-0.469,1.726-0.844c0.805-0.437,1.38-0.75,1.725-0.938
	c0,0.251,0.028,0.626,0.086,1.125c0,0.501,0,0.844,0,1.031c-1.38,0.5-2.703,1.125-3.967,1.875c-0.059,0.062-0.173,0.125-0.346,0.188
	c-0.23,0.188-0.431,0.343-0.604,0.469l-1.035-1.688c0.46-0.375,0.661-0.905,0.604-1.594v-4.219h-3.278v-8.156h1.553v6.281h1.726
	v-8.344H346.734z M352.772,165.061v1.5h10.437v-1.5H352.772z M352.772,167.873v1.5h10.437v-1.5H352.772z M352.772,170.686v1.313
	h10.437v-1.313H352.772z M352.772,232.782v1.688h10.35v-1.688H352.772z M352.772,235.782v1.688h10.35v-1.688H352.772z
	 M352.772,238.782v1.5h10.35v-1.5H352.772z M352.772,276.438v-10.031h12.852v10.031h-1.984v-1.406h-8.884v1.406H352.772z
	 M359.469,310.155c-1.151,0-2.358,0-3.623,0c-0.058-0.688-0.202-1.438-0.431-2.25c0.746,0.062,1.867,0.094,3.363,0.094
	c1.609,0.125,2.415-0.656,2.415-2.344c0.114-1.374,0.201-4.313,0.259-8.813c0.057-1.313,0.086-2.25,0.086-2.813h-5.175
	c-0.23,0.563-0.604,1.376-1.121,2.438c-0.23,0.501-0.403,0.876-0.518,1.125c-0.518-0.375-1.093-0.75-1.725-1.125
	c1.38-2.687,2.443-5.438,3.191-8.25l1.983,0.469c-0.116,0.375-0.288,0.907-0.518,1.594c-0.23,0.75-0.403,1.313-0.518,1.688h6.383
	c0,4.001-0.116,8.688-0.345,14.063C363.178,308.717,361.94,310.093,359.469,310.155L359.469,310.155z M357.83,303.687
	c-0.289-0.437-0.72-1.093-1.294-1.969c-0.806-1.313-1.438-2.312-1.897-3l1.553-1.125c0.401,0.626,1.005,1.5,1.811,2.625
	c0.69,0.938,1.208,1.688,1.553,2.25L357.83,303.687z M354.756,268.375v4.875h8.884v-4.875H354.756z M366.055,208.439
	c-0.575-0.625-1.409-1.469-2.501-2.531c-0.748-0.812-1.294-1.406-1.639-1.781c-0.806,1.563-2.329,3.094-4.571,4.594
	c-0.23-0.25-0.604-0.719-1.121-1.406c0.345,0.5,0.259,0.406-0.259-0.281c3.622-1.688,5.317-4.374,5.089-8.063v-3.938h1.811v3.844
	c0,1.313-0.115,2.47-0.345,3.469c0.518,0.501,1.294,1.219,2.329,2.156c1.149,1.001,2.012,1.781,2.587,2.344L366.055,208.439z
	 M356.74,189.127v-1.875h10.522v1.875h-4.399l-0.518,2.906h4.227v10.969h-1.725v-9.188h-5.779v9.281h-1.639v-11.063h3.019
	l0.518-2.906H356.74z M368.266,298.999c-0.115-0.062-0.259-0.218-0.431-0.469c-1.093-0.999-1.928-1.781-2.501-2.344l1.207-1.5
	c1.149,0.938,2.156,1.875,3.019,2.813L368.266,298.999z M369.56,302.093c-0.748,3.126-1.38,5.906-1.897,8.344l-1.812-0.656
	c0.805-3.188,1.409-5.968,1.812-8.344c0.229,0.126,0.747,0.313,1.553,0.563C368.581,301.812,368.697,301.844,369.56,302.093
	L369.56,302.093z M368.697,292.812c-0.92-1.062-1.812-1.999-2.674-2.813l1.294-1.406c0.919,0.813,1.84,1.72,2.76,2.719
	L368.697,292.812z M369.991,294.124v-1.969h3.363c-0.288-0.812-0.604-1.999-0.948-3.563l1.897-0.281
	c0.057,0.375,0.2,0.938,0.431,1.688c0.229,0.876,0.402,1.594,0.518,2.156h-0.086h2.156v1.969h-4.054l-0.086,3.375h3.881
	c0,0.876-0.029,2.188-0.086,3.938c-0.059,2.688-0.116,4.626-0.173,5.813c0,1.813-0.806,2.719-2.415,2.719
	c-0.518,0.062-1.064,0.094-1.639,0.094l-0.345-1.969c0.574,0,1.005,0,1.294,0c0.977,0.062,1.437-0.375,1.38-1.313
	c0-0.375,0.028-0.968,0.086-1.781c0.114-2.625,0.173-4.5,0.173-5.625h-2.243c0,0.188,0,0.345,0,0.469
	c-0.115,4.563-0.979,8.156-2.587,10.781l-1.467-1.406c1.437-1.999,2.213-5.156,2.329-9.469c0.114-1.624,0.173-3.499,0.173-5.625
	H369.991z M371.781,165.342c-0.575,0.813-1.179,1.563-1.811,2.25c-0.116-0.437-0.316-1.125-0.604-2.063
	c1.667-1.937,3.019-4.28,4.054-7.031l1.466,1.031c-0.461,1.063-0.948,2.063-1.466,3v12.094h-1.64V165.342L371.781,165.342z
	 M370.401,224.063v-1.5h5.693c-0.346-0.499-0.893-1.155-1.64-1.969l1.984-0.469c0.689,0.626,1.38,1.406,2.07,2.344l-0.087,0.094
	h3.536c0.229-0.312,0.546-0.718,0.949-1.219c0.459-0.563,0.776-0.968,0.948-1.219l2.07,0.469l-1.553,1.969h5.434v1.5h-9.659
	c-0.173,0.563-0.346,1.063-0.518,1.5h8.711v1.5h-9.229c-0.059,0.251-0.173,0.563-0.346,0.938c-0.115,0.251-0.202,0.438-0.258,0.563
	h11.557v1.594h-12.42c-0.288,0.563-0.604,1.063-0.948,1.5h11.299v10.969H386.1v-1.125h-10.437v1.125h-1.897v-7.5
	c-0.979,0.938-2.07,1.875-3.277,2.813c-0.116-0.188-0.289-0.499-0.518-0.938c-0.23-0.375-0.403-0.656-0.518-0.844
	c2.702-1.937,4.686-3.938,5.951-6h-5.521v-1.594h6.469c0.115-0.188,0.259-0.499,0.432-0.938c0.114-0.249,0.201-0.437,0.259-0.563
	h-5.52v-1.5h6.037c0.173-0.437,0.345-0.938,0.518-1.5H370.401z M374.887,153.342c-1.323,2.688-2.818,4.875-4.485,6.563
	c-0.115-0.5-0.402-1.156-0.862-1.969c1.553-1.562,2.816-3.469,3.795-5.719L374.887,153.342L374.887,153.342z M372.903,275.406
	c-0.346,0.313-0.548,0.563-0.604,0.75l-1.207-1.688c0.46-0.438,0.66-0.938,0.604-1.5v-9h-2.156V262h4.054v10.5
	c0.69-0.563,1.351-1.125,1.984-1.688c0.057,0.188,0.114,0.563,0.172,1.125c0.114,0.563,0.173,0.97,0.173,1.219
	c-0.979,0.626-1.869,1.25-2.674,1.875C373.19,275.093,373.075,275.219,372.903,275.406L372.903,275.406z M370.488,191.752v-2.156
	h8.366v-3.375h2.156v3.375h8.452v2.156h-8.452v3.656h7.158v2.063h-7.158v3.656h9.143v2.156h-9.143v5.344h-2.156v-5.344h-9.143
	v-2.156h9.143v-3.656h-7.159v-2.063h7.159v-3.656H370.488z M373.334,259.656c-0.92-1.313-1.869-2.593-2.846-3.844l1.466-1.031
	c1.208,1.313,2.213,2.501,3.019,3.563L373.334,259.656z M377.388,168.248c0.057,2.438-0.72,4.438-2.328,6
	c-0.461-0.625-0.863-1.125-1.208-1.5c1.38-0.999,2.012-2.813,1.897-5.438v-1.688h5.951v4.313c0.229-0.188,0.661-0.563,1.294-1.125
	c-0.173,0.126-0.029-0.03,0.432-0.469c0,0.126,0.028,0.345,0.086,0.656c0.057,0.626,0.114,1.095,0.173,1.406
	c-0.173,0.126-0.432,0.345-0.776,0.656c-1.323,1.063-2.128,1.749-2.415,2.063l-0.949-1.406c0.346-0.437,0.518-1.031,0.518-1.781
	v-2.531h-2.674V168.248L377.388,168.248z M375.146,159.998v-5.719h1.38v3.938h1.639v-5.719h1.553v5.719h1.639v-4.031h1.38v5.813
	H375.146z M375.749,257.5V256h6.038v-1.781h1.897V256h6.382v1.5h-6.382v1.594h5.692v1.406h-5.692v1.594h6.728v1.5h-15.181v-1.5
	h6.556V260.5h-5.606v-1.406h5.606V257.5H375.749z M375.318,163.654v-1.781h7.158v1.781H375.318z M375.663,233.063v1.5H386.1v-1.5
	H375.663z M375.663,235.876v1.5H386.1v-1.5H375.663z M375.663,238.688v1.313H386.1v-1.313H375.663z M376.611,276.531v-11.438h12.248
	v8.531c0.057,1.813-0.806,2.719-2.588,2.719c-0.288,0-0.748,0-1.38,0c-0.806,0.062-1.38,0.094-1.725,0.094
	c-0.173-0.563-0.346-1.188-0.518-1.875c0.689,0.062,1.667,0.094,2.933,0.094c0.977,0.062,1.437-0.344,1.38-1.219v-0.75h-8.366v3.844
	H376.611z M377.754,303.03v-1.875h3.536v-1.313l2.328-2.625h-4.83v-1.406l-0.604,0.938c-0.402-0.437-0.892-0.905-1.466-1.406
	c1.38-2.063,2.472-4.468,3.277-7.219l1.983,0.281c-0.345,1.001-0.689,1.969-1.035,2.906h5.435v1.875h-6.21
	c-0.346,0.75-0.748,1.5-1.208,2.25h6.728v1.969l-2.588,3v0.75h3.278v1.875h-3.278v4.594c0.057,1.688-0.747,2.531-2.415,2.531
	c-0.806,0.062-1.552,0.094-2.242,0.094c0-0.188-0.058-0.438-0.172-0.75c-0.059-0.563-0.116-0.97-0.173-1.219
	c0.689,0,1.351,0,1.983,0c0.862,0.062,1.265-0.313,1.208-1.125v-4.125H377.754z M378.596,266.594v1.688h8.366v-1.688H378.596z
	 M378.596,269.594v1.688h8.366v-1.688H378.596z M384.029,161.592c-0.23,0.563-0.489,1.063-0.776,1.5
	c-0.058-0.188-0.202-0.499-0.432-0.938c-0.229-0.437-0.402-0.718-0.517-0.844c1.38-2.499,2.385-5.531,3.019-9.094l1.811,0.281
	c-0.345,1.375-0.689,2.688-1.034,3.938h4.398v1.781h-1.035c-0.23,4.376-0.92,7.813-2.07,10.313c0.633,1.375,1.695,2.719,3.191,4.031
	l-1.035,1.875c-1.552-1.688-2.587-3.062-3.104-4.125c-0.634,1.125-1.755,2.531-3.364,4.219c-0.23-0.438-0.604-1-1.121-1.688
	c1.553-1.374,2.76-2.843,3.623-4.406C384.834,166.561,384.316,164.279,384.029,161.592L384.029,161.592z M385.15,159.061
	c0.345,3.438,0.805,5.876,1.38,7.313c0.747-2.063,1.208-4.781,1.38-8.156h-2.415L385.15,159.061L385.15,159.061z M387.672,293.28
	v-1.875h2.502c0.287-1.125,0.546-2.187,0.776-3.188l1.897,0.188c-0.059,0.375-0.202,1.001-0.432,1.875
	c-0.173,0.501-0.288,0.876-0.345,1.125h4.398v1.875h-4.916c-0.806,2.876-1.41,4.875-1.812,6h2.501v-4.594h1.64v4.594h2.328v1.875
	h-2.328v3l2.587-0.375c-0.058,0.75-0.086,1.406-0.086,1.969l-2.501,0.281v4.594h-1.897v-4.406c-1.553,0.188-2.991,0.375-4.313,0.563
	l-0.172-2.063c0.401,0,1.063-0.062,1.983-0.188c1.092-0.062,1.926-0.124,2.502-0.188v-3.188h-3.968v-1.875
	c0.057-0.188,0.143-0.469,0.259-0.844c0.459-1.5,0.919-3.218,1.38-5.156H387.672z M394.672,165.342
	c-0.575,0.813-1.179,1.563-1.811,2.25c-0.116-0.437-0.316-1.125-0.604-2.063c1.667-1.937,3.019-4.28,4.054-7.031l1.466,1.031
	c-0.461,1.063-0.948,2.063-1.466,3v12.094h-1.64V165.342L394.672,165.342z M395.189,231.001c-0.115-0.062-0.259-0.218-0.431-0.469
	c-1.093-0.999-1.928-1.781-2.501-2.344l1.207-1.5c1.149,0.938,2.156,1.875,3.019,2.813L395.189,231.001z M392.688,260.594v-1.969
	h2.329v-4.313h1.897v4.313h1.983v1.969h-1.983V265l1.983-0.656c0,0.688,0.028,1.375,0.087,2.063l-2.07,0.75v6.75
	c0.057,1.562-0.634,2.375-2.07,2.438c-0.633,0-1.266,0-1.897,0c-0.058-0.25-0.116-0.688-0.173-1.313
	c-0.115-0.375-0.172-0.625-0.172-0.75c0.459,0,0.948,0,1.466,0c0.69,0.062,1.006-0.22,0.949-0.844v-5.719
	c-0.748,0.25-1.553,0.532-2.415,0.844l-0.259-2.25c0.919-0.312,1.812-0.563,2.674-0.75v-4.969H392.688z M397.777,153.342
	c-1.323,2.688-2.818,4.875-4.485,6.563c-0.115-0.5-0.402-1.156-0.862-1.969c1.553-1.562,2.816-3.469,3.795-5.719L397.777,153.342
	L397.777,153.342z M396.483,234.095c-0.748,3.126-1.38,5.906-1.897,8.344l-1.812-0.656c0.805-3.188,1.409-5.968,1.812-8.344
	c0.229,0.126,0.747,0.313,1.553,0.563C395.505,233.813,395.621,233.846,396.483,234.095L396.483,234.095z M395.621,224.813
	c-0.92-1.062-1.812-1.999-2.674-2.813l1.294-1.406c0.919,0.813,1.84,1.72,2.76,2.719L395.621,224.813z M393.12,192.971v-4.688h8.711
	c0-0.249-0.058-0.593-0.173-1.031c-0.058-0.499-0.115-0.844-0.172-1.031l2.328-0.188l0.346,2.25h8.366v4.688h-1.984v-3h-15.438v3
	H393.12z M394.241,208.627v-9h17.164v9h-1.984v-1.125h-13.196v1.125H394.241z M408.631,295.624c-0.23,0.375-0.575,1.063-1.035,2.063
	c-2.357-1.812-4.169-3.968-5.434-6.469c-1.38,2.376-3.277,4.563-5.692,6.563c-0.116-0.249-0.374-0.718-0.776-1.406
	c-0.172-0.188-0.288-0.343-0.345-0.469c2.875-2.124,4.916-4.718,6.124-7.781l2.069,0.281l-0.431,0.938
	C404.491,292.094,406.331,294.188,408.631,295.624L408.631,295.624z M396.915,226.126v-1.969h3.363
	c-0.288-0.812-0.604-1.999-0.948-3.563l1.897-0.281c0.057,0.375,0.2,0.938,0.431,1.688c0.229,0.876,0.402,1.594,0.518,2.156h-0.086
	h2.156v1.969h-4.054l-0.086,3.375h3.881c0,0.876-0.029,2.188-0.086,3.938c-0.059,2.688-0.116,4.626-0.173,5.813
	c0,1.813-0.806,2.719-2.415,2.719c-0.518,0.062-1.064,0.094-1.639,0.094l-0.345-1.969c0.574,0,1.005,0,1.294,0
	c0.977,0.062,1.437-0.375,1.38-1.313c0-0.375,0.028-0.968,0.086-1.781c0.114-2.625,0.173-4.5,0.173-5.625h-2.243
	c0,0.188,0,0.345,0,0.469c-0.115,4.563-0.979,8.156-2.587,10.781l-1.467-1.406c1.437-1.999,2.213-5.156,2.329-9.469
	c0.114-1.624,0.173-3.499,0.173-5.625H396.915z M396.053,198.314v-4.313h13.627v4.313H396.053z M396.225,192.596v-1.219h13.196
	v1.219H396.225z M396.225,201.127v1.875h5.606v-1.875H396.225z M396.225,204.314v1.688h5.606v-1.688H396.225z M400.278,168.248
	c0.057,2.438-0.72,4.438-2.328,6c-0.461-0.625-0.863-1.125-1.208-1.5c1.38-0.999,2.012-2.813,1.897-5.438v-1.688h5.951v4.313
	c0.229-0.188,0.661-0.563,1.294-1.125c-0.173,0.126-0.029-0.03,0.432-0.469c0,0.126,0.028,0.345,0.086,0.656
	c0.057,0.626,0.114,1.095,0.173,1.406c-0.173,0.126-0.432,0.345-0.776,0.656c-1.323,1.063-2.128,1.749-2.415,2.063l-0.949-1.406
	c0.346-0.437,0.518-1.031,0.518-1.781v-2.531h-2.674V168.248L400.278,168.248z M400.955,309.968c-2.014,0-3.019-1.063-3.019-3.188
	v-9.563h1.897v4.125c1.839-1.062,3.593-2.344,5.261-3.844l1.208,1.688c-2.128,1.688-4.284,3.157-6.469,4.406v2.719
	c-0.059,1.125,0.518,1.655,1.725,1.594h1.983c1.15,0,1.782-0.53,1.897-1.594c0.173-0.999,0.287-2.063,0.346-3.188
	c0.689,0.251,1.322,0.469,1.897,0.656c-0.173,1.563-0.375,2.782-0.604,3.656c-0.229,1.688-1.323,2.531-3.277,2.531H400.955z
	 M398.036,159.998v-5.719h1.38v3.938h1.639v-5.719h1.553v5.719h1.639v-4.031h1.38v5.813H398.036z M398.036,195.314v1.688h9.574
	v-1.688H398.036z M399.589,265.844v-1.969h3.363c0.173-0.437,0.432-1.125,0.776-2.063c0.173-0.624,0.315-1.093,0.432-1.406
	l2.069,0.469c-0.461,1.063-0.862,2.063-1.207,3h8.193v1.969h-2.328c-0.69,2.501-1.639,4.469-2.847,5.906
	c0.345,0.188,0.862,0.501,1.553,0.938c0.632,0.313,1.812,0.938,3.536,1.875l-1.208,1.875c-1.84-1.251-3.622-2.313-5.347-3.188
	c-1.841,1.25-4.313,2.375-7.418,3.375l-1.035-1.969c3.22-0.874,5.404-1.749,6.556-2.625c-1.438-0.874-2.904-1.719-4.399-2.531
	c0.633-1.063,1.236-2.28,1.812-3.656H399.589z M398.209,163.654v-1.781h7.158v1.781H398.209z M399.934,261.625v-4.406h5.606
	c-0.058-0.188-0.173-0.469-0.345-0.844c-0.289-0.812-0.518-1.374-0.69-1.688l2.07-0.469c0.229,0.501,0.518,1.219,0.862,2.156
	c0.114,0.375,0.2,0.656,0.259,0.844h5.089v4.406h-1.897v-2.438h-9.143v2.438H399.934z M402.78,268.75l3.449,1.969
	c1.265-1.25,2.127-2.874,2.588-4.875h-4.657L402.78,268.75z M404.678,235.032v-1.875h3.536v-1.313l2.328-2.625h-4.83v-1.406
	l-0.604,0.938c-0.402-0.437-0.892-0.905-1.466-1.406c1.38-2.063,2.472-4.468,3.277-7.219l1.983,0.281
	c-0.345,1.001-0.689,1.969-1.035,2.906h5.435v1.875h-6.21c-0.346,0.75-0.748,1.5-1.208,2.25h6.728v1.969l-2.587,3v0.75h3.277v1.875
	h-3.277v4.594c0.057,1.688-0.748,2.531-2.415,2.531c-0.807,0.062-1.553,0.094-2.243,0.094c0-0.188-0.058-0.438-0.172-0.75
	c-0.059-0.563-0.116-0.97-0.173-1.219c0.689,0,1.351,0,1.983,0c0.862,0.062,1.265-0.313,1.208-1.125v-4.125H404.678z
	 M409.421,201.127h-5.606v1.875h5.606V201.127z M403.814,204.314v1.688h5.606v-1.688H403.814z M406.92,161.592
	c-0.23,0.563-0.489,1.063-0.776,1.5c-0.058-0.188-0.202-0.499-0.432-0.938c-0.229-0.437-0.402-0.718-0.517-0.844
	c1.38-2.499,2.385-5.531,3.019-9.094l1.812,0.281c-0.346,1.375-0.69,2.688-1.035,3.938h4.398v1.781h-1.035
	c-0.23,4.376-0.92,7.813-2.07,10.313c0.633,1.375,1.695,2.719,3.191,4.031l-1.035,1.875c-1.552-1.688-2.587-3.062-3.104-4.125
	c-0.634,1.125-1.755,2.531-3.364,4.219c-0.23-0.438-0.604-1-1.121-1.688c1.553-1.374,2.761-2.843,3.623-4.406
	C407.725,166.561,407.207,164.279,406.92,161.592L406.92,161.592z M408.041,159.061c0.345,3.438,0.805,5.876,1.38,7.313
	c0.747-2.063,1.208-4.781,1.38-8.156h-2.415L408.041,159.061L408.041,159.061z M413.03,306.78c-0.863,0.876-1.755,1.905-2.674,3.094
	l-0.862-2.25c0.517-0.624,1.293-1.5,2.328-2.625c0.633-0.624,1.178-0.938,1.639-0.938c0.115,0,0.229,0.032,0.346,0.094
	c0.114,0,0.2,0,0.259,0c4.368-2.813,8.279-6.03,11.729-9.656h-14.662v-2.063h8.452c-0.23-0.624-0.604-1.562-1.121-2.813
	c-0.173-0.437-0.316-0.75-0.432-0.938l2.243-0.469c0.459,1.063,1.005,2.407,1.639,4.031l-0.604,0.188h7.245v2.25
	c-3.738,4.188-8.021,7.845-12.851,10.969c1.034,1.313,2.644,2.001,4.829,2.063c2.07,0.063,5.404,0.032,10.006-0.094
	c-0.289,0.688-0.489,1.406-0.604,2.156c-2.703,0-4.657,0-5.864,0c-1.496-0.063-2.818-0.126-3.968-0.188
	c-2.703,0-4.773-0.938-6.21-2.813C413.604,306.531,413.317,306.531,413.03,306.78L413.03,306.78z M415.396,225.282v-1.875h2.502
	c0.287-1.125,0.546-2.187,0.776-3.188l1.897,0.188c-0.059,0.375-0.202,1.001-0.432,1.875c-0.173,0.501-0.288,0.876-0.345,1.125
	h4.398v1.875h-4.916c-0.806,2.876-1.41,4.875-1.812,6h2.501v-4.594h1.64v4.594h2.328v1.875h-2.328v3l2.587-0.375
	c-0.058,0.75-0.086,1.406-0.086,1.969l-2.501,0.281v4.594h-1.897v-4.406c-1.553,0.188-2.991,0.375-4.313,0.563l-0.172-2.063
	c0.401,0,1.063-0.062,1.983-0.188c1.092-0.062,1.926-0.124,2.502-0.188v-3.188h-3.968v-1.875c0.057-0.188,0.143-0.469,0.259-0.844
	c0.459-1.5,0.919-3.218,1.38-5.156H415.396z M415.569,260.406v-1.969h2.415v-4.125h1.897v4.125h2.329v1.969h-2.329v4.688
	l2.415-0.656c0,0.813,0,1.532,0,2.156l-2.415,0.656v6.469c0.057,1.749-0.689,2.625-2.242,2.625
	c-0.461,0.062-1.064,0.094-1.812,0.094c-0.058-0.75-0.173-1.469-0.345-2.156c0.114,0,0.259,0,0.431,0
	c0.346,0.062,0.661,0.062,0.949,0c0.805,0.062,1.178-0.281,1.121-1.031v-5.438c-0.288,0.126-0.748,0.25-1.38,0.375
	c-0.518,0.188-0.92,0.313-1.208,0.375l-0.172-2.344c0.114,0,0.259-0.031,0.431-0.094c0.574-0.124,1.351-0.312,2.329-0.563v-5.156
	H415.569z M418.502,163.186c-1.035-0.999-2.1-1.969-3.191-2.906l1.208-1.594c1.207,0.938,2.328,1.875,3.363,2.813L418.502,163.186z
	 M419.623,166.373c-0.806,3.063-1.466,5.78-1.983,8.156l-1.984-0.656c0.633-2.312,1.322-5.063,2.07-8.25
	c0.287,0.063,0.719,0.251,1.294,0.563C419.307,166.249,419.508,166.312,419.623,166.373L419.623,166.373z M419.105,156.998
	c-0.288-0.249-0.72-0.656-1.294-1.219c-0.806-0.812-1.438-1.406-1.897-1.781l1.208-1.5c0.978,0.75,2.099,1.72,3.363,2.906
	L419.105,156.998z M416.087,208.346v-18.375h2.329c0.057-0.249,0.143-0.593,0.259-1.031c0.229-0.688,0.431-1.594,0.604-2.719
	l2.156,0.375c-0.288,1.125-0.604,2.25-0.949,3.375h3.882v18.188h-1.897v-1.781h-4.399v1.969H416.087z M418.07,192.033v5.156h4.399
	v-5.156H418.07z M418.07,199.252v5.344h4.399v-5.344H418.07z M422.383,158.686c-0.23,0.313-0.633,0.782-1.207,1.406
	c-0.058-0.062-0.116-0.125-0.173-0.188c-0.402-0.624-0.776-1.093-1.121-1.406c1.84-1.812,3.248-3.968,4.227-6.469l2.069,0.281
	c-0.288,0.688-0.604,1.313-0.948,1.875h10.522v1.781h-11.471c-0.403,0.75-0.863,1.438-1.381,2.063h11.472
	c-0.058,0.438-0.086,1.375-0.086,2.813c-0.059,1.188-0.087,2.126-0.087,2.813h1.984v1.781h-1.984c0,0.501-0.029,1.219-0.086,2.156
	c0,0.813,0,1.406,0,1.781h1.553v1.781h-1.639c-0.116,2.25-1.266,3.343-3.45,3.281c-0.921,0-1.956,0-3.105,0
	c-0.058-0.188-0.144-0.469-0.259-0.844c-0.115-0.438-0.202-0.75-0.259-0.938c1.035,0,2.041,0,3.02,0
	c1.38,0.062,2.098-0.438,2.156-1.5h-10.781l0.604-5.719h-1.897v-1.781h2.07l0.517-5.344
	C422.584,158.374,422.498,158.498,422.383,158.686L422.383,158.686z M436.355,227.626c-0.23,0.375-0.575,1.063-1.035,2.063
	c-2.357-1.812-4.169-3.968-5.434-6.469c-1.38,2.376-3.277,4.563-5.692,6.563c-0.116-0.249-0.374-0.718-0.776-1.406
	c-0.172-0.188-0.288-0.343-0.345-0.469c2.875-2.124,4.916-4.718,6.124-7.781l2.069,0.281l-0.431,0.938
	C432.216,224.096,434.056,226.189,436.355,227.626L436.355,227.626z M426.178,263.125c-1.955,0.063-2.903-0.905-2.846-2.906v-6
	h1.897v3.281c3.507-0.563,6.728-1.313,9.66-2.25l0.689,1.875c-2.703,0.688-6.153,1.406-10.35,2.156v0.281
	c-0.116,1.313,0.488,1.907,1.812,1.781h4.916c1.149,0.063,1.812-0.405,1.983-1.406c0.115-0.312,0.229-0.874,0.346-1.688
	c0-0.062,0-0.124,0-0.188c0.229,0.063,0.632,0.188,1.207,0.375c0.287,0.063,0.488,0.126,0.604,0.188
	c-0.058,0.251-0.115,0.563-0.172,0.938c-0.116,0.688-0.202,1.219-0.259,1.594c-0.346,1.376-1.38,2.032-3.105,1.969H426.178z
	 M432.216,169.373c0.057-0.75,0.086-2.063,0.086-3.938h-8.538l-0.346,3.938H432.216z M423.505,276.625v-11.531h11.298v11.531h-1.896
	v-1.313h-7.504v1.313H423.505z M424.453,159.717l-0.432,3.938h8.367c0-1.562,0-2.874,0-3.938H424.453z M431.354,208.158
	c-1.151,0-2.358,0-3.623,0c-0.058-0.688-0.202-1.438-0.431-2.25c0.746,0.062,1.867,0.094,3.363,0.094
	c1.609,0.125,2.415-0.656,2.415-2.344c0.114-1.374,0.201-4.313,0.259-8.813c0.057-1.313,0.086-2.25,0.086-2.813h-5.175
	c-0.23,0.563-0.604,1.376-1.121,2.438c-0.23,0.501-0.403,0.876-0.518,1.125c-0.518-0.375-1.093-0.75-1.725-1.125
	c1.38-2.687,2.443-5.438,3.191-8.25l1.983,0.469c-0.116,0.375-0.288,0.907-0.518,1.594c-0.23,0.75-0.403,1.313-0.518,1.688h6.383
	c0,4.001-0.116,8.688-0.345,14.063C435.063,206.72,433.825,208.096,431.354,208.158L431.354,208.158z M425.402,266.875v2.531h7.504
	v-2.531H425.402z M425.402,271.094v2.531h7.504v-2.531H425.402z M428.68,241.97c-2.014,0-3.019-1.063-3.019-3.188v-9.563h1.897
	v4.125c1.839-1.062,3.593-2.344,5.261-3.844l1.208,1.688c-2.128,1.688-4.284,3.157-6.469,4.406v2.719
	c-0.059,1.125,0.518,1.655,1.725,1.594h1.983c1.15,0,1.782-0.53,1.897-1.594c0.173-0.999,0.287-2.063,0.346-3.188
	c0.689,0.251,1.322,0.469,1.897,0.656c-0.173,1.563-0.375,2.782-0.604,3.656c-0.229,1.688-1.323,2.531-3.277,2.531H428.68z
	 M428.766,169.186c-0.288-0.249-0.689-0.624-1.207-1.125c-0.576-0.437-1.007-0.78-1.294-1.031l0.948-1.125
	c0.69,0.501,1.553,1.188,2.588,2.063L428.766,169.186z M428.938,163.373c-0.346-0.375-0.893-0.844-1.639-1.406
	c-0.346-0.312-0.634-0.563-0.863-0.75l1.035-1.125c0.518,0.375,1.265,0.938,2.243,1.688c-0.116-0.124,0-0.03,0.345,0.281
	L428.938,163.373z M429.715,201.689c-0.289-0.437-0.72-1.093-1.294-1.969c-0.806-1.313-1.438-2.312-1.897-3l1.553-1.125
	c0.401,0.626,1.005,1.5,1.811,2.625c0.69,0.938,1.208,1.688,1.553,2.25L429.715,201.689z M432.091,293.655v-1.969h3.709
	c-0.288-1.062-0.604-2.093-0.948-3.094l1.983-0.469c0.173,0.688,0.518,1.875,1.035,3.563h2.415v1.969h-4.657l-0.087,3.188h4.141
	c0,3.375-0.087,6.75-0.259,10.125c0,2-0.835,3-2.502,3c-0.689,0-1.323,0-1.897,0l-0.431-1.969c0.518,0,1.092,0,1.725,0
	c0.978,0.062,1.437-0.437,1.38-1.5c0.115-3.249,0.173-5.813,0.173-7.688h-2.415c0,5.313-0.806,9.219-2.415,11.719l-1.466-1.406
	c1.437-1.999,2.156-5.655,2.156-10.969l0.086-4.5H432.091z M440.53,235.595c-0.575,0.063-1.064,0.157-1.467,0.281l-0.604-1.781
	c0.401-0.249,0.833-0.75,1.294-1.5c0.345-0.437,0.833-1.249,1.466-2.438c0.229-0.437,0.402-0.75,0.518-0.938
	c-1.207,0.063-2.271,0.157-3.191,0.281l-0.517-1.969c0.401-0.249,0.775-0.75,1.121-1.5c0.919-1.562,1.84-3.53,2.76-5.906
	l1.812,0.656c-1.323,2.751-2.474,4.969-3.45,6.656l2.501-0.094c0.057-0.124,0.173-0.343,0.345-0.656
	c0.229-0.375,0.518-0.968,0.863-1.781l1.639,0.844c-1.38,2.625-2.904,5.282-4.571,7.969c0.746-0.062,1.839-0.188,3.277-0.375
	c0.114,0,0.201,0,0.259,0c0,0.188,0,0.501,0,0.938c-0.058,0.438-0.086,0.75-0.086,0.938c-0.518,0.063-1.266,0.126-2.243,0.188
	C441.507,235.533,440.932,235.595,440.53,235.595L440.53,235.595z M441.565,169.373c-0.346,1.688-1.007,3.437-1.984,5.25
	c-0.23-0.25-0.547-0.656-0.948-1.219c-0.23-0.313-0.403-0.531-0.518-0.656c0.862-1.5,1.408-2.906,1.639-4.219
	c0.229-1.313,0.345-3.437,0.345-6.375v-8.625h15.697v10.313c0,4.313,0.144,6.844,0.432,7.594c0.114,0.375,0.287,0.563,0.518,0.563
	c0.229-0.063,0.401-0.281,0.518-0.656c0.173-1.624,0.287-2.874,0.345-3.75c0.173,0.063,0.518,0.188,1.035,0.375
	c0.229,0.063,0.401,0.126,0.518,0.188c-0.058,0.313-0.116,0.813-0.173,1.5c-0.172,1.188-0.288,1.938-0.345,2.25
	c-0.23,1.562-0.92,2.344-2.07,2.344c-1.035,0-1.754-0.719-2.156-2.156c-0.461-1.25-0.689-4.031-0.689-8.344v-8.25h-11.644v6.563
	C442.083,165.248,441.91,167.686,441.565,169.373L441.565,169.373z M445.619,228.47v-1.688h1.897
	c-0.173-0.375-0.432-0.938-0.776-1.688c-0.173-0.312-0.288-0.563-0.345-0.75l1.552-0.563c0.229,0.438,0.546,1.125,0.949,2.063
	c0.172,0.251,0.287,0.469,0.345,0.656l-0.776,0.281h5.951c0.173-0.437,0.46-1.031,0.863-1.781c0.345-0.75,0.573-1.28,0.689-1.594
	l1.639,0.656c-0.172,0.313-0.402,0.75-0.689,1.313c-0.346,0.626-0.604,1.095-0.776,1.406h2.415v1.688h-8.28l-0.173,1.688h8.712
	v1.688h-9.057c-0.116,0.563-0.259,1.095-0.432,1.594h7.936v1.875c-0.862,1.5-1.928,2.813-3.191,3.938
	c1.092,0.501,2.788,0.938,5.089,1.313c-0.345,0.688-0.604,1.313-0.776,1.875c-2.358-0.501-4.342-1.251-5.951-2.25
	c-1.323,0.875-3.394,1.718-6.21,2.531c-0.058-0.188-0.202-0.469-0.432-0.844c-0.172-0.438-0.316-0.75-0.431-0.938
	c2.126-0.501,3.967-1.093,5.52-1.781c-0.979-0.874-1.812-1.905-2.501-3.094c-0.748,1.626-1.869,3.251-3.363,4.875
	c-0.346-0.501-0.72-0.907-1.122-1.219c-1.897,0.312-3.708,0.656-5.434,1.031l-0.345-1.969c2.127-0.312,4.313-0.718,6.555-1.219
	v0.938c1.667-2.124,2.76-4.343,3.277-6.656h-2.76v-1.688h3.105c0-0.563,0.057-1.125,0.172-1.688H445.619z M438.201,264.25v-2.156
	h20.873v2.156h-9.057v8.719c0.114,2.124-0.834,3.219-2.846,3.281c-0.979,0-2.042,0-3.191,0c-0.116-0.75-0.259-1.532-0.432-2.344
	c0.747,0.062,1.639,0.094,2.674,0.094c1.149,0.062,1.695-0.437,1.639-1.5v-8.25H438.201z M444.584,267.344
	c-1.841,3.063-3.422,5.47-4.744,7.219c-0.115-0.063-0.259-0.156-0.431-0.281c-0.289-0.25-0.69-0.563-1.208-0.938
	c1.84-2.563,3.364-4.969,4.571-7.219L444.584,267.344L444.584,267.344z M440.616,199.252v-11.906h16.043v11.906h-6.986v2.813h9.314
	v1.969h-9.314v4.594h-2.156v-4.594h-9.229v-1.969h9.229v-2.813H440.616z M443.648,292.437c-0.747,1.376-1.639,2.719-2.674,4.031
	c-0.633-0.687-1.093-1.155-1.38-1.406c1.726-2.063,2.989-4.374,3.795-6.938l1.984,0.188c-0.116,0.313-0.289,0.782-0.518,1.406
	c-0.173,0.438-0.288,0.75-0.345,0.938h7.762v1.781H443.648L443.648,292.437z M440.444,257.688v-2.156h16.56v2.156H440.444z
	 M451.929,308.937c-0.345,0.375-0.604,0.656-0.776,0.844c-3.221-2.749-5.061-6.874-5.52-12.375c-0.69,0.063-1.38,0.157-2.07,0.281
	v9.844c1.208-0.624,2.329-1.125,3.364-1.5c0,0.188,0,0.501,0,0.938c0.057,0.438,0.086,0.75,0.086,0.938
	c-1.208,0.437-2.415,0.999-3.623,1.688c-0.115,0.062-0.259,0.125-0.431,0.188c-0.461,0.249-0.748,0.437-0.862,0.563l-1.122-1.688
	c0.518-0.438,0.747-1.031,0.69-1.781v-10.969c3.105-0.249,6.21-0.75,9.315-1.5l0.689,1.969c-1.323,0.313-2.76,0.563-4.313,0.75
	c0.173,1.5,0.401,2.813,0.69,3.938c1.149-0.624,2.271-1.313,3.363-2.063l0.949,1.688c-1.208,0.75-2.445,1.47-3.709,2.156
	c0.746,2.063,2.099,3.782,4.054,5.156C452.589,308.187,452.33,308.499,451.929,308.937L451.929,308.937z M451.915,171.998
	c-1.151-1.625-2.387-3.469-3.709-5.531c-1.438,2.063-3.048,4.001-4.83,5.813c-0.461-0.5-0.948-0.999-1.466-1.5
	c2.242-2.438,3.938-4.5,5.089-6.188c-0.461-0.687-1.18-1.719-2.156-3.094c-0.921-1.374-1.639-2.405-2.156-3.094l1.553-1.219
	c0.518,0.688,1.235,1.72,2.156,3.094c0.804,1.125,1.408,1.969,1.811,2.531c1.035-1.749,2.07-3.75,3.105-6l1.725,1.031
	c-0.979,2.25-2.186,4.5-3.622,6.75c1.954,2.876,3.334,4.938,4.14,6.188L451.915,171.998z M442.687,189.314v3.094h11.902v-3.094
	H442.687z M442.687,194.189v3.188h11.902v-3.188H442.687z M458.47,222.751c-2.99,0.251-7.244,0.469-12.765,0.656
	c0-0.249-0.058-0.656-0.173-1.219c-0.058-0.249-0.086-0.437-0.086-0.563c4.772-0.124,8.998-0.343,12.679-0.656L458.47,222.751
	L458.47,222.751z M452.433,238.22c1.264-1.062,2.213-2.093,2.847-3.094h-5.521C450.506,236.314,451.397,237.346,452.433,238.22
	L452.433,238.22z M451.742,226.782c-0.172-0.563-0.489-1.437-0.948-2.625c-0.058-0.062-0.086-0.124-0.086-0.188l1.639-0.375
	c0.345,0.876,0.689,1.781,1.034,2.719L451.742,226.782z M457.349,274.188c-0.058-0.063-0.144-0.156-0.259-0.281
	c-2.014-2.874-3.565-5.03-4.657-6.469l1.639-1.219c0.229,0.313,0.632,0.813,1.208,1.5c1.781,2.376,3.047,4.095,3.795,5.156
	L457.349,274.188z M453.999,291.405v-1.875h20.441v1.875H453.999z M454.947,309.405v-15.469h1.897v13.781h14.749v-13.781h1.897
	v16.688h-1.897v-1.219H454.947z M458.915,305.374v-11.906h10.522v11.906H458.915z M460.727,295.155v3.469h2.674v-3.469H460.727z
	 M460.727,300.218v3.469h2.674v-3.469H460.727z M463.852,191.377c-0.575,0.75-1.265,1.47-2.069,2.156
	c-0.173-0.437-0.461-0.844-0.862-1.219c1.321-1.125,2.328-2.438,3.019-3.938l1.466,0.375c-0.058,0.126-0.145,0.313-0.259,0.563
	c-0.172,0.313-0.288,0.532-0.345,0.656h1.639v-3.75h1.639v1.125h3.45v1.313h-3.45v1.313h2.847v1.594
	c-2.014,2.313-4.975,4.188-8.884,5.625c-0.059-0.188-0.202-0.469-0.432-0.844c-0.173-0.375-0.316-0.624-0.432-0.75
	c1.381-0.375,2.588-0.812,3.623-1.313l-1.38-1.5l1.035-0.844c0.287,0.188,0.66,0.501,1.121,0.938
	c0.287,0.25,0.518,0.438,0.689,0.563c0.919-0.563,1.812-1.25,2.674-2.063H463.852L463.852,191.377z M480.498,195.596
	c-1.323-0.874-2.587-1.688-3.795-2.438c-0.92,0.438-1.983,0.906-3.191,1.406c2.243,1.875,5.089,3.25,8.539,4.125
	c-0.058,0.126-0.173,0.345-0.345,0.656c-0.23,0.501-0.403,0.876-0.518,1.125c-0.461-0.188-1.151-0.469-2.07-0.844
	c-0.461-0.188-0.806-0.312-1.035-0.375v4.688c0.345-0.188,0.632-0.375,0.862-0.563l1.035,1.219c-1.207,0.75-2.242,1.251-3.104,1.5
	l3.881,1.125l-0.862,1.406c-0.345-0.126-0.834-0.281-1.467-0.469c-3.221-1-5.664-1.75-7.331-2.25
	c-0.058,0.375-0.086,0.844-0.086,1.406c-1.438,0.249-3.135,0.594-5.089,1.031c-0.116,0.062-0.316,0.125-0.604,0.188
	c-0.289,0.124-0.489,0.188-0.604,0.188l-0.776-1.406c0.401-0.375,0.604-0.844,0.604-1.406v-6.281
	c-0.862,0.501-1.755,0.938-2.674,1.313c-0.058-0.062-0.116-0.188-0.173-0.375c-0.345-0.563-0.604-0.999-0.775-1.313
	c4.254-1.562,7.618-3.593,10.091-6.094l1.466,0.188l-0.086-0.188c0.114-0.062,0.315-0.124,0.604-0.188
	c0.633-0.249,1.322-0.53,2.07-0.844c-0.288-0.188-0.72-0.469-1.294-0.844c-0.575-0.312-1.007-0.563-1.294-0.75l1.035-1.219
	l3.105,1.875c0.746-0.499,1.522-1.249,2.328-2.25h-6.21v-1.594h8.107v1.688c-1.034,1.438-1.927,2.438-2.673,3l3.363,2.063
	L480.498,195.596z M463.421,235.595c-0.575,0.063-1.064,0.157-1.467,0.281l-0.604-1.781c0.401-0.249,0.833-0.75,1.294-1.5
	c0.345-0.437,0.833-1.249,1.466-2.438c0.229-0.437,0.402-0.75,0.518-0.938c-1.207,0.063-2.271,0.157-3.191,0.281l-0.517-1.969
	c0.401-0.249,0.775-0.75,1.121-1.5c0.919-1.562,1.839-3.53,2.76-5.906l1.812,0.656c-1.324,2.751-2.474,4.969-3.45,6.656l2.501-0.094
	c0.057-0.124,0.173-0.343,0.345-0.656c0.229-0.375,0.518-0.968,0.863-1.781l1.639,0.844c-1.38,2.625-2.904,5.282-4.571,7.969
	c0.746-0.062,1.839-0.188,3.277-0.375c0.114,0,0.201,0,0.259,0c0,0.188,0,0.501,0,0.938c-0.058,0.438-0.086,0.75-0.086,0.938
	c-0.518,0.063-1.266,0.126-2.243,0.188C464.397,235.533,463.822,235.595,463.421,235.595L463.421,235.595z M468.51,228.47v-1.688
	h1.897c-0.173-0.375-0.432-0.938-0.776-1.688c-0.173-0.312-0.288-0.563-0.345-0.75l1.552-0.563c0.229,0.438,0.546,1.125,0.949,2.063
	c0.172,0.251,0.287,0.469,0.345,0.656l-0.776,0.281h5.951c0.173-0.437,0.46-1.031,0.863-1.781c0.345-0.75,0.573-1.28,0.689-1.594
	l1.639,0.656c-0.172,0.313-0.402,0.75-0.689,1.313c-0.346,0.626-0.604,1.095-0.776,1.406h2.415v1.688h-8.28l-0.173,1.688h8.712
	v1.688h-9.057c-0.116,0.563-0.259,1.095-0.432,1.594h7.936v1.875c-0.862,1.5-1.928,2.813-3.191,3.938
	c1.092,0.501,2.788,0.938,5.089,1.313c-0.345,0.688-0.604,1.313-0.776,1.875c-2.358-0.501-4.342-1.251-5.951-2.25
	c-1.323,0.875-3.394,1.718-6.21,2.531c-0.058-0.188-0.202-0.469-0.432-0.844c-0.172-0.438-0.316-0.75-0.431-0.938
	c2.126-0.501,3.967-1.093,5.52-1.781c-0.979-0.874-1.812-1.905-2.501-3.094c-0.748,1.626-1.869,3.251-3.364,4.875
	c-0.345-0.501-0.72-0.907-1.121-1.219c-1.897,0.312-3.708,0.656-5.434,1.031l-0.345-1.969c2.127-0.312,4.313-0.718,6.555-1.219
	v0.938c1.667-2.124,2.76-4.343,3.277-6.656h-2.76v-1.688h3.105c0-0.563,0.057-1.125,0.172-1.688H468.51z M461.265,258.063v-2.25
	h20.527v2.25h-10.091v5.906l1.293-1.781c2.645,1.626,5.204,3.281,7.677,4.969l-1.38,2.063c-2.243-1.625-4.773-3.375-7.59-5.25
	v12.469h-2.243v-18.375H461.265z M461.868,171.811v-17.344h6.296v14.906h-4.484v2.438H461.868z M463.68,156.342v11.063h2.76v-11.063
	H463.68z M467.713,295.155h-2.674v3.469h2.674V295.155z M465.039,300.218v3.469h2.674v-3.469H465.039z M476.358,199.252h-10.005
	v1.313h10.005V199.252z M466.354,202.908h10.005v-1.313h-10.005V202.908z M474.892,205.721c0.229-0.124,0.574-0.312,1.035-0.563
	c0.345-0.249,0.919-0.563,1.726-0.938h-11.299v2.344c1.437-0.313,2.788-0.531,4.054-0.656l-1.121-0.375l0.689-1.219L474.892,205.721
	z M481.878,172.748c-0.518,0.75-0.862,1.313-1.035,1.688c-3.104-2.188-5.06-4.937-5.864-8.25c-0.634,3.25-2.818,6.094-6.556,8.531
	c-0.345-0.625-0.806-1.281-1.38-1.969c4.082-2.187,6.325-5.218,6.728-9.094c0.173-0.999,0.259-2.374,0.259-4.125h1.897
	c0,1-0.029,1.907-0.086,2.719c0.632,4.751,2.73,8.125,6.296,10.125C482.079,172.435,481.993,172.561,481.878,172.748
	L481.878,172.748z M472.132,196.439c0.057,0.126,0.114,0.375,0.173,0.75c0.114,0.375,0.172,0.656,0.172,0.844h3.278
	c-1.496-0.874-2.904-1.937-4.227-3.188c-1.151,1.188-2.501,2.25-4.054,3.188h3.363c0-0.062-0.029-0.155-0.086-0.281
	c0-0.188-0.086-0.563-0.259-1.125L472.132,196.439z M481.36,222.751c-2.99,0.251-7.244,0.469-12.765,0.656
	c0-0.249-0.058-0.656-0.173-1.219c-0.058-0.249-0.086-0.437-0.086-0.563c4.772-0.124,8.998-0.343,12.679-0.656L481.36,222.751
	L481.36,222.751z M479.895,162.623c-0.288-0.062-0.69-0.188-1.208-0.375c-0.288-0.062-0.488-0.124-0.604-0.188l1.639-4.313h-7.331
	c-0.575,1.688-1.294,3.313-2.156,4.875c-0.575-0.375-1.179-0.75-1.812-1.125c1.726-2.874,2.961-5.968,3.709-9.281l1.984,0.375
	c-0.289,1.125-0.604,2.188-0.949,3.188h8.539v1.969L479.895,162.623z M472.563,193.814c0.172,0.126,0.345,0.281,0.518,0.469
	c-0.059-0.062-0.116-0.188-0.173-0.375c-0.116-0.124-0.202-0.218-0.259-0.281L472.563,193.814L472.563,193.814z M475.323,238.22
	c1.264-1.062,2.213-2.093,2.847-3.094h-5.521C473.396,236.314,474.288,237.346,475.323,238.22L475.323,238.22z M474.633,226.782
	c-0.172-0.563-0.489-1.437-0.948-2.625c-0.058-0.062-0.086-0.124-0.086-0.188l1.639-0.375c0.345,0.876,0.689,1.781,1.034,2.719
	L474.633,226.782z M476.079,309.312v-2.063h8.107v-18.75h2.242v6.75h8.539v2.25h-8.539v9.75h10.178v2.063H476.079z M483.887,266.313
	v-1.781h1.38v-7.969h2.329c0.057-0.312,0.143-0.718,0.259-1.219c0.056-0.563,0.114-0.968,0.172-1.219l1.897,0.094
	c-0.058,0.25-0.144,0.626-0.259,1.125c-0.172,0.563-0.288,0.97-0.345,1.219h3.363v17.25c0.057,1.562-0.661,2.375-2.156,2.438
	c-0.575,0-1.293,0-2.156,0c0-0.188-0.058-0.469-0.172-0.844c-0.058-0.501-0.116-0.876-0.173-1.125c0.057,0,0.229,0,0.518,0
	c0.518,0.062,0.919,0.094,1.208,0.094c0.862,0,1.264-0.344,1.207-1.031v-7.031h-3.881c0.114,4.563-0.432,8-1.639,10.313
	c-0.289-0.188-0.748-0.563-1.38-1.125c-0.116-0.063-0.202-0.126-0.259-0.188c1.034-1.999,1.522-5,1.466-9H483.887z M484.146,158.404
	v-1.969h2.242v-4.125h1.812v4.125h1.897v1.969h-1.897v4.594c0.229-0.062,0.574-0.155,1.035-0.281
	c0.401-0.124,0.718-0.218,0.948-0.281c0,0.75,0.028,1.438,0.087,2.063l-2.07,0.656v6.75c0.057,1.625-0.634,2.438-2.07,2.438
	c-0.575,0.062-1.207,0.094-1.897,0.094c0-0.063,0-0.126,0-0.188c-0.115-0.938-0.23-1.563-0.345-1.875c0.345,0,0.833,0,1.466,0
	c0.747,0,1.092-0.281,1.035-0.844v-5.813c-0.288,0.063-0.748,0.188-1.38,0.375c-0.403,0.126-0.69,0.22-0.862,0.281l-0.259-2.25
	c0.114,0,0.259-0.03,0.431-0.094c0.518-0.124,1.208-0.312,2.07-0.563v-5.063H484.146z M489.147,236.907
	c-1.034,0.063-2.731,0.313-5.088,0.75l-0.173-2.063c0.229,0,0.604-0.03,1.121-0.094c1.897-0.249,3.277-0.437,4.14-0.563
	C489.147,235.501,489.147,236.157,489.147,236.907L489.147,236.907z M488.285,242.251c-0.92,0-1.725,0-2.415,0
	c0-0.126-0.029-0.281-0.086-0.469c-0.058-0.75-0.145-1.282-0.259-1.594c0.287,0,0.69,0,1.207,0c0.633,0.062,1.122,0.094,1.467,0.094
	c1.207,0.062,1.812-0.53,1.812-1.781c0.057-0.75,0.114-1.969,0.172-3.656c0.057-0.812,0.087-1.437,0.087-1.875h-5.521l0.604-8.156
	h1.726l-0.432,6.188h2.329l0.518-7.688h-5.176v-1.875h7.159l-0.69,9.563h1.294c0,1.001-0.058,2.751-0.172,5.25
	c-0.059,1.125-0.087,1.969-0.087,2.531C491.764,241.157,490.584,242.313,488.285,242.251L488.285,242.251z M489.579,207.877
	c-1.841-0.188-2.876-1.281-3.104-3.281c0.172-2.124,1.207-3.281,3.104-3.469c1.954,0.188,3.019,1.345,3.191,3.469
	C492.598,206.596,491.533,207.689,489.579,207.877L489.579,207.877z M487.078,258.344v6.188h3.881v-6.188H487.078z M488.717,263.313
	c-0.059-0.062-0.116-0.188-0.173-0.375c-0.173-0.812-0.518-1.749-1.035-2.813l1.38-0.656c0.229,0.438,0.488,1.095,0.776,1.969
	c0.229,0.563,0.402,0.97,0.518,1.219L488.717,263.313z M488.889,271.656c-0.115-0.312-0.258-0.75-0.431-1.313
	c-0.345-0.938-0.634-1.655-0.862-2.156l1.466-0.656c0.114,0.313,0.287,0.782,0.518,1.406c0.345,0.876,0.604,1.563,0.776,2.063
	L488.889,271.656z M489.579,202.533c-1.093,0.126-1.696,0.813-1.812,2.063c0.115,1.063,0.719,1.655,1.812,1.781
	c1.149-0.126,1.781-0.718,1.897-1.781C491.36,203.347,490.729,202.659,489.579,202.533L489.579,202.533z M500.016,162.061v3.281
	h4.398c0,0.501-0.029,1.251-0.086,2.25c0,1.063-0.03,1.813-0.087,2.25c-0.058,1.5-0.776,2.218-2.156,2.156
	c-0.461,0.062-0.92,0.094-1.38,0.094c0-0.063,0-0.126,0-0.188c-0.058-0.437-0.172-0.938-0.345-1.5
	c0.46,0.063,0.862,0.094,1.207,0.094c0.633,0.063,0.978-0.312,1.035-1.125c0.057-0.437,0.087-1.155,0.087-2.156h-2.674v7.125h-1.897
	v-7.125h-2.415c-0.23,3-1.697,5.469-4.399,7.406c-0.115-0.126-0.288-0.281-0.518-0.469c-0.172-0.188-0.547-0.531-1.121-1.031
	c2.472-1.5,3.852-3.469,4.141-5.906h-3.536l0.689-6.938h3.277v-3.281h-3.363v-1.875h3.277v-2.813h1.812v2.813h2.156v-2.813h1.897
	v2.813h3.622v6.938H500.016z M497.256,239.907c-0.748,0.875-2.215,1.781-4.399,2.719c-0.461-0.75-0.806-1.345-1.035-1.781
	c2.185-0.876,3.507-1.594,3.968-2.156c-0.979-0.999-1.897-2.374-2.76-4.125l1.466-0.938c0.805,1.626,1.609,2.782,2.415,3.469
	c0.401-0.874,0.632-2.374,0.69-4.5h-4.313v-9h4.313l0.086-3.281h1.812l-0.086,3.281h4.484v10.219h-1.725v-1.219h-2.76
	c-0.059,2.688-0.403,4.594-1.035,5.719c1.264,0.813,3.392,1.438,6.382,1.875c-0.345,0.75-0.633,1.438-0.862,2.063
	C500.676,241.501,498.463,240.719,497.256,239.907L497.256,239.907z M492.339,162.061l-0.345,3.281h2.156
	c0.057-0.938,0.086-2.03,0.086-3.281H492.339z M497.256,258.344c0.172,2.876-0.721,5.126-2.674,6.75
	c-0.173-0.188-0.432-0.437-0.776-0.75c-0.346-0.375-0.604-0.624-0.776-0.75c1.725-1.249,2.501-3.062,2.328-5.438v-2.719h7.159v5.25
	c-0.058,1.001,0.373,1.47,1.294,1.406h1.121c0,0.188-0.058,0.501-0.173,0.938c-0.058,0.438-0.115,0.782-0.172,1.031h-1.726
	c-1.61,0.063-2.387-0.844-2.328-2.719v-4.031h-3.277V258.344L497.256,258.344z M494.495,276.531v-10.406h8.97v10.406h-1.897v-1.781
	h-5.175v1.781H494.495z M494.927,225.47v5.25h2.674v-5.25H494.927z M495.962,163.186c0,0.75-0.03,1.47-0.087,2.156h2.243v-3.281
	h-2.156V163.186z M495.962,156.998v3.281h2.156v-3.281H495.962z M496.393,268v5.156h5.175V268H496.393z M503.075,293.28
	c-0.862,1.626-2.156,3.407-3.881,5.344l-1.208-1.875c2.299-2.312,4.054-5.187,5.262-8.625l2.069,0.469
	c-0.115,0.375-0.345,0.907-0.689,1.594c-0.173,0.438-0.316,0.782-0.432,1.031h13.282c-0.058,2.501-0.144,6.126-0.258,10.875
	c-0.059,1.688-0.087,2.876-0.087,3.563c0,2.938-1.466,4.406-4.398,4.406c-1.266,0.062-2.79,0.094-4.571,0.094
	c-0.116-0.813-0.259-1.563-0.432-2.25c1.265,0,2.702,0,4.313,0c2.07,0.188,3.076-0.75,3.02-2.813
	c0.057-0.999,0.114-3.281,0.172-6.844c0.057-2.374,0.086-4.031,0.086-4.969H503.075L503.075,293.28z M502.172,225.47h-2.76v5.25
	h2.76V225.47z M501.999,156.998h-2.242v3.281h2.242V156.998z M501.264,306.687v-10.313h9.833v8.719h-7.849v1.594H501.264z
	 M503.248,298.343v4.781h5.864v-4.781H503.248z M509.451,192.877c-0.575,0.75-1.18,1.47-1.812,2.156
	c-0.116-0.312-0.316-0.75-0.604-1.313c-0.173-0.312-0.288-0.563-0.345-0.75c2.012-2.124,3.564-4.437,4.657-6.938l1.897,0.75
	c-0.575,1.188-1.208,2.313-1.897,3.375v9.75h-1.897V192.877L509.451,192.877z M527.736,239.907
	c-0.634,0.688-1.208,1.406-1.726,2.156c-3.565-2.749-6.382-6.999-8.452-12.75l-0.345-0.656c-1.496,5.501-4.485,10.031-8.971,13.594
	l-1.466-2.156c4.657-3.312,7.704-8.063,9.143-14.25c-1.151-1.875-2.272-3.281-3.364-4.219l1.639-1.219
	c1.897,1.626,3.68,4.406,5.348,8.344C521.612,234.064,524.343,237.783,527.736,239.907L527.736,239.907z M510.831,201.596
	c-0.69,1.938-1.41,3.72-2.156,5.344l-1.812-0.844c0.862-1.624,1.553-3.343,2.07-5.156L510.831,201.596L510.831,201.596z
	 M512.987,170.498c0,2.188-0.748,3.812-2.242,4.875l-0.776-0.844c1.035-0.813,1.58-2.031,1.639-3.656h-1.467v-3.094h2.847
	C512.987,168.28,512.987,169.186,512.987,170.498L512.987,170.498z M512.987,272.5c0,2.188-0.748,3.812-2.242,4.875l-0.776-0.844
	c1.035-0.813,1.58-2.031,1.639-3.656h-1.467v-3.094h2.847C512.987,270.282,512.987,271.188,512.987,272.5L512.987,272.5z
	 M514.712,207.971c-1.841,0-2.76-0.938-2.76-2.813v-3.938h1.983v3.375c0,0.938,0.488,1.406,1.467,1.406h3.622
	c1.265,0.125,1.954-0.343,2.07-1.406c0.173-0.624,0.287-1.313,0.345-2.063c0.229,0.126,0.604,0.281,1.121,0.469
	c0.346,0.126,0.604,0.22,0.776,0.281c-0.058,0.501-0.202,1.219-0.431,2.156c-0.059,0.126-0.087,0.22-0.087,0.281
	c-0.345,1.562-1.438,2.312-3.277,2.25H514.712z M517.817,194.189c-1.323,1.75-2.617,3.313-3.882,4.688
	c-0.461-0.499-0.948-0.938-1.466-1.313c1.149-1.125,2.386-2.625,3.709-4.5L517.817,194.189L517.817,194.189z M516.438,190.346
	c-0.576,1.063-1.294,2.156-2.156,3.281c-0.116-0.124-0.317-0.281-0.604-0.469c-0.403-0.375-0.721-0.656-0.949-0.844
	c1.494-1.812,2.73-3.874,3.709-6.188l1.983,0.375c-0.116,0.251-0.288,0.626-0.518,1.125c-0.23,0.375-0.374,0.656-0.431,0.844h9.4
	v1.969l-1.207,2.906c-0.288-0.188-0.806-0.375-1.553-0.563c-0.115-0.062-0.202-0.094-0.259-0.094l1.035-2.344H516.438
	L516.438,190.346z M518.076,204.314c-0.748-1.125-1.61-2.218-2.588-3.281l1.467-1.125c0.919,0.938,1.839,1.969,2.76,3.094
	L518.076,204.314z M518.766,199.814c-0.575,0-1.236,0-1.983,0c-0.116-0.563-0.259-1.187-0.432-1.875
	c0.402,0.063,0.978,0.094,1.726,0.094c0.919,0,1.35-0.405,1.294-1.219v-5.156h1.897v5.438
	C521.324,198.847,520.491,199.753,518.766,199.814L518.766,199.814z M519.98,300.124v-1.969h20.959v1.969h-14.663l-0.689,2.25
	h12.679c-0.059,1.5-0.202,3-0.432,4.5c-0.116,2.188-1.553,3.313-4.313,3.375c-1.438,0-3.104,0-5.002,0
	c-0.059-0.313-0.173-0.876-0.346-1.688c-0.058-0.25-0.086-0.438-0.086-0.563c1.092,0.062,2.702,0.094,4.83,0.094
	c1.897,0.124,2.846-0.437,2.846-1.688c0.115-0.75,0.173-1.468,0.173-2.156h-12.938l1.121-4.125H519.98z M526.011,198.877
	c-0.345-0.375-0.834-0.938-1.466-1.688c-0.921-1.125-1.669-1.999-2.243-2.625l1.381-1.219c1.264,1.376,2.558,2.782,3.881,4.219
	L526.011,198.877z M526.098,206.189c-0.863-1.437-1.928-3.03-3.191-4.781l1.553-1.125c1.264,1.688,2.385,3.313,3.363,4.875
	L526.098,206.189z M522.999,296.093v-6.938h14.921v6.938H522.999z M525.069,291.03v3.094h10.781v-3.094H525.069z M530.616,157.186
	v-1.969h5.865c0.46-0.999,0.833-2.03,1.121-3.094l2.156,0.281c-0.172,0.438-0.402,1.063-0.689,1.875
	c-0.173,0.438-0.289,0.75-0.346,0.938h11.816v1.969h-12.679c-0.633,1.5-1.553,3.188-2.76,5.063v12.281h-1.983v-9.75
	c-0.748,0.813-1.582,1.688-2.502,2.625c-0.288-0.687-0.604-1.406-0.948-2.156c2.587-2.499,4.571-5.188,5.951-8.063H530.616z
	 M529.754,189.877v-2.063h20.873v2.063h-3.105v15c0.057,2.188-0.979,3.281-3.104,3.281c-1.208,0.062-2.445,0.094-3.709,0.094
	c-0.058-0.563-0.202-1.313-0.432-2.25c1.208,0.062,2.3,0.094,3.277,0.094c1.38,0.125,2.013-0.499,1.897-1.875v-14.344H529.754z
	 M532.945,242.532V232.22c-0.173,0.063-0.432,0.157-0.776,0.281c-0.689,0.251-1.207,0.469-1.553,0.656
	c-0.172-0.624-0.461-1.249-0.862-1.875c3.393-0.938,6.124-2.28,8.194-4.031h-7.591v-1.688h8.884v-2.344
	c-0.92,0.063-1.927,0.094-3.019,0.094c-0.979,0-2.328,0-4.054,0c-0.058-0.687-0.144-1.249-0.259-1.688
	c4.197,0,9.603-0.188,16.215-0.563l0.259,1.688c-1.438,0.126-3.853,0.251-7.245,0.375v2.438h8.884v1.688h-7.59
	c1.782,1.626,4.485,2.876,8.107,3.75c-0.345,0.688-0.633,1.313-0.862,1.875c-3.968-1.249-6.813-2.843-8.539-4.781v3.281h-1.897
	v-3.281c-1.61,1.688-3.651,3.032-6.123,4.031h14.231v10.406h-1.898v-0.938h-10.608v0.938H532.945z M540.104,262
	c-0.403,6.313-3.25,11.22-8.539,14.719c-0.058-0.126-0.173-0.281-0.345-0.469c-0.518-0.688-0.921-1.188-1.208-1.5
	c4.944-3.188,7.59-7.437,7.936-12.75h-7.504v-2.063h7.763c0.114-1.812,0.2-3.75,0.258-5.813h2.156c0,0.938-0.058,2.344-0.172,4.219
	c-0.059,0.688-0.086,1.219-0.086,1.594h9.056c-0.058,1.063-0.145,2.876-0.259,5.438c-0.115,3-0.202,5.063-0.259,6.188
	c-0.058,3.062-1.438,4.562-4.14,4.5c-1.266,0.062-2.646,0.094-4.141,0.094c-0.058-0.938-0.23-1.688-0.517-2.25
	c1.207,0,2.529,0,3.967,0c1.84,0.125,2.761-0.844,2.761-2.906c0.114-1.313,0.229-3.969,0.345-7.969c0-0.437,0-0.78,0-1.031H540.104
	L540.104,262z M534.843,259.281c-0.862-1.187-1.841-2.344-2.933-3.469l1.467-1.313c0.345,0.313,0.862,0.844,1.552,1.594
	c0.69,0.688,1.208,1.219,1.553,1.594L534.843,259.281z M532.083,204.408v-11.25h9.487v9.563h-7.504v1.688H532.083z M534.066,195.127
	v5.719h5.521v-5.719H534.066z M534.843,233.813v2.344h10.608v-2.344H534.843z M534.843,237.657v2.25h10.608v-2.25H534.843z
	 M536.913,165.061v-1.969h5.261v-4.406h1.984v4.406h5.261v1.969h-5.261v6.188h6.382v1.875h-14.662v-1.875h6.296v-6.188H536.913z
	 M543.554,270.156c-1.034-1.374-2.128-2.656-3.277-3.844l1.467-1.313c0.862,0.75,2.012,1.938,3.449,3.563L543.554,270.156z
	 M547.753,309.874c-1.841-0.188-2.876-1.281-3.105-3.281c0.173-2.124,1.208-3.281,3.105-3.469c1.954,0.188,3.019,1.345,3.191,3.469
	C550.771,308.593,549.707,309.687,547.753,309.874L547.753,309.874z M547.753,304.53c-1.093,0.126-1.696,0.813-1.812,2.063
	c0.115,1.063,0.719,1.655,1.812,1.781c1.149-0.126,1.781-0.718,1.897-1.781C549.534,305.344,548.902,304.656,547.753,304.53
	L547.753,304.53z M555.481,231.376c-0.289-0.312-0.69-0.812-1.208-1.5c-0.748-0.874-1.323-1.562-1.725-2.063l1.553-1.125
	c1.034,1.063,2.069,2.22,3.104,3.469L555.481,231.376z M556.171,273.25c-1.035,0.999-1.927,2.03-2.674,3.094l-0.948-2.25
	c0.919-0.874,1.812-1.749,2.674-2.625v-7.219h-2.502v-2.063h4.485v9.188c0.978,1.688,2.588,2.531,4.83,2.531
	c3.623,0.125,7.446,0.125,11.472,0c0,0.062-0.03,0.155-0.087,0.281c-0.23,0.563-0.402,1.187-0.518,1.875
	c-1.265,0-3.19-0.032-5.778-0.094c-2.818,0-4.716-0.032-5.692-0.094C559.132,275.875,557.379,274.999,556.171,273.25L556.171,273.25
	z M556.085,237.188c-0.461,2.438-0.806,4.219-1.035,5.344l-2.07-0.656c0.69-2.562,1.322-5.438,1.898-8.625
	c0.286,0.126,0.718,0.281,1.293,0.469c0.287,0.063,0.488,0.126,0.604,0.188C556.659,234.533,556.43,235.627,556.085,237.188
	L556.085,237.188z M555.136,206.752c-0.172,0.188-0.316,0.343-0.431,0.469l-1.467-1.781c0.633-0.624,0.92-1.437,0.863-2.438v-15.844
	h2.156v16.031c1.781-1.249,3.593-2.625,5.434-4.125c0,0.126,0.028,0.313,0.086,0.563c0.173,1.001,0.315,1.688,0.432,2.063
	c-1.841,1.313-3.854,2.719-6.038,4.219C555.94,206.096,555.596,206.377,555.136,206.752L555.136,206.752z M556.085,225.282
	c-0.921-1.249-1.869-2.438-2.847-3.563l1.64-1.125c0.229,0.251,0.545,0.626,0.948,1.125c0.862,0.938,1.522,1.72,1.983,2.344
	L556.085,225.282z M556.171,259.844c-0.862-1.5-1.754-2.938-2.674-4.313l1.726-1.031c0.287,0.438,0.746,1.125,1.38,2.063
	c0.632,1.001,1.092,1.72,1.38,2.156L556.171,259.844z M561.95,174.623v-7.219h-5.606v1.313h-2.07v-15.281h17.509v15.281h-1.983
	v-1.313h-5.692v7.219H561.95z M556.344,155.498v3.938h5.606v-3.938H556.344z M556.344,161.404v3.938h5.606v-3.938H556.344z
	 M558.5,224.532v-1.781h2.76v-2.531h1.812v2.531h4.14v-2.531h1.897v2.531h3.277v1.781h-3.277v2.813h4.054v1.781h-4.398
	c1.149,1.938,2.73,3.438,4.744,4.5c-0.059,0.126-0.145,0.313-0.259,0.563c-0.173,0.251-0.403,0.688-0.69,1.313
	c-1.38-0.938-2.501-1.905-3.363-2.906v4.969h-7.504v1.219c-0.059,1.001,0.401,1.468,1.38,1.406h5.52
	c0.978,0,1.581-0.375,1.812-1.125c0.173-0.499,0.287-1.249,0.345-2.25c0.173,0.063,0.402,0.157,0.69,0.281
	c0.459,0.126,0.805,0.22,1.035,0.281c-0.116,0.938-0.289,1.781-0.518,2.531c-0.288,1.438-1.294,2.124-3.019,2.063h-6.556
	c-1.668,0-2.501-0.876-2.501-2.625v-5.25c-0.69,0.688-1.438,1.313-2.242,1.875c-0.23-0.624-0.518-1.249-0.862-1.875
	c2.069-1.313,3.679-2.968,4.829-4.969h-4.054v-1.781h3.709v-2.813H558.5z M558.932,259.938v-1.969h6.382
	c-0.23-0.563-0.575-1.374-1.035-2.438c-0.172-0.375-0.316-0.656-0.431-0.844l2.069-0.563c0.115,0.251,0.287,0.626,0.518,1.125
	c0.46,1.001,0.776,1.781,0.949,2.344l-1.208,0.375h6.814v1.969h-2.07c-0.748,2.625-1.841,4.875-3.277,6.75
	c1.553,1.375,3.075,2.813,4.571,4.313l-1.467,1.688c-0.461-0.5-1.15-1.187-2.069-2.063c-1.093-1.062-1.897-1.843-2.415-2.344
	c-1.438,1.563-3.566,3.063-6.383,4.5c-0.575-0.938-1.007-1.594-1.294-1.969c2.415-1.062,4.485-2.375,6.21-3.938
	c-1.897-1.875-3.479-3.343-4.743-4.406l1.38-1.406l4.743,4.219c1.208-1.5,2.099-3.281,2.674-5.344H558.932z M562.381,193.252
	c-0.979-2.063-1.983-4.031-3.019-5.906l1.726-1.031c1.207,1.938,2.299,3.876,3.277,5.813L562.381,193.252z M571.869,208.064
	c-0.807-1.188-1.956-2.749-3.45-4.688c-0.23-0.188-0.375-0.343-0.432-0.469c-1.093,1.938-3.363,3.875-6.813,5.813
	c-0.173-0.188-0.432-0.563-0.776-1.125c-0.23-0.438-0.432-0.75-0.604-0.938c5.807-2.499,8.625-6.999,8.452-13.5
	c0.114-2.374,0.173-4.5,0.173-6.375h2.069c0,2.688-0.058,4.813-0.172,6.375c-0.173,3.25-0.604,5.782-1.294,7.594
	c0.632,0.75,1.553,1.907,2.76,3.469c0.862,1.001,1.467,1.688,1.812,2.063L571.869,208.064z M561.691,233.438v2.531h5.692v-2.531
	H561.691z M563.589,229.126c-0.518,0.938-1.093,1.813-1.726,2.625h6.642c-0.575-0.812-1.121-1.688-1.639-2.625H563.589z
	 M563.071,224.532v2.813h4.14v-2.813H563.071z M569.799,155.498h-5.692v3.938h5.692V155.498z M564.106,161.404v3.938h5.692v-3.938
	H564.106z M575.612,158.592v-1.969h2.76v-4.406h1.812v4.406h2.587v1.969h-2.587v2.438h0.086c0.172,0.126,0.431,0.375,0.776,0.75
	c1.034,0.813,1.781,1.47,2.242,1.969l-1.121,1.688c-0.634-0.75-1.294-1.437-1.983-2.063v11.25h-1.812v-11.719
	c-0.518,2.001-1.323,3.97-2.415,5.906c-0.059-0.313-0.145-0.781-0.259-1.406c-0.116-0.687-0.202-1.155-0.259-1.406
	c1.149-1.937,2.098-4.406,2.846-7.406H575.612z M578.285,199.158v-6.469c-0.689,0.813-1.409,1.657-2.156,2.531
	c-0.23-0.874-0.461-1.594-0.689-2.156c1.954-2.063,3.536-4.374,4.744-6.938l1.811,1.125c-0.575,0.938-1.179,1.907-1.811,2.906v9
	H578.285z M596.398,263.594c-0.346,0.501-0.807,1.219-1.381,2.156c-4.025-2.438-7.016-5.25-8.97-8.438
	c-2.128,3.375-5.232,6.313-9.314,8.813c-0.518-0.938-0.949-1.624-1.294-2.063c4.771-2.813,8.078-6.094,9.919-9.844l2.415,0.188
	c-0.173,0.375-0.375,0.72-0.604,1.031C589.239,258.688,592.314,261.407,596.398,263.594L596.398,263.594z M582.598,202.814
	c0.229,2.876-1.754,4.843-5.951,5.906c-0.23-0.501-0.575-1.157-1.034-1.969c3.736-0.563,5.434-2.124,5.088-4.688v-1.594h9.66v4.5
	c-0.058,0.813,0.315,1.187,1.121,1.125h1.208c0.805,0,1.264-0.343,1.38-1.031c0.114-0.75,0.229-1.688,0.345-2.813
	c0.173,0.063,0.46,0.157,0.862,0.281c0.518,0.126,0.863,0.22,1.035,0.281c-0.058,1.063-0.23,2.095-0.518,3.094
	c-0.23,1.374-1.15,2.063-2.76,2.063h-2.156c-1.783,0.062-2.646-0.813-2.587-2.625v-3h-5.693V202.814L582.598,202.814z
	 M581.132,241.876c-1.841-0.188-2.876-1.281-3.105-3.281c0.173-2.124,1.208-3.281,3.105-3.469c1.954,0.188,3.019,1.345,3.191,3.469
	C584.15,240.595,583.086,241.688,581.132,241.876L581.132,241.876z M581.132,236.532c-1.093,0.126-1.696,0.813-1.812,2.063
	c0.115,1.063,0.719,1.655,1.812,1.781c1.149-0.126,1.781-0.718,1.897-1.781C582.913,237.346,582.281,236.658,581.132,236.532
	L581.132,236.532z M590.705,170.686c-1.495,1.438-3.221,2.719-5.175,3.844c-0.402-0.75-0.776-1.345-1.121-1.781
	c2.07-1.062,3.737-2.25,5.003-3.563c-1.38-2.063-2.358-4.562-2.933-7.5l0.948-0.469h-1.811v1.406
	c0.172,4.938-0.863,8.845-3.105,11.719c-0.288-0.25-0.776-0.75-1.466-1.5c1.897-2.374,2.788-5.78,2.674-10.219v-8.625
	c4.368-0.249,8.279-0.624,11.729-1.125l0.69,2.063c-3.163,0.375-6.671,0.688-10.522,0.938v3.375h9.573v1.969
	c-0.575,3.063-1.668,5.719-3.277,7.969c1.264,1.313,2.76,2.407,4.485,3.281l-1.208,1.875
	C593.407,173.154,591.913,171.936,590.705,170.686L590.705,170.686z M587.601,189.408c-1.553,0.126-3.135,0.188-4.744,0.188
	c0-0.188-0.029-0.499-0.086-0.938c-0.058-0.375-0.116-0.656-0.173-0.844c4.658-0.124,8.51-0.343,11.558-0.656l0.346,1.781
	c-1.553,0.188-3.191,0.313-4.917,0.375v2.813h6.556v1.781h-6.556v2.813h5.521v1.781h-12.766v-1.781h5.262v-2.813h-6.124v-1.781
	h6.124V189.408L587.601,189.408z M584.754,276.625V262.75h2.329v13.875H584.754z M590.705,167.592
	c1.208-1.749,2.07-3.874,2.588-6.375h-5.089C588.722,163.718,589.555,165.843,590.705,167.592L590.705,167.592z"/>
<path fill="#FFFFFF" d="M37.013,16.57c-0.945,1.406-2.035,2.695-3.27,3.867c-0.218-0.234-0.545-0.546-0.98-0.938
	c-0.365-0.39-0.618-0.663-0.763-0.82c2.106-1.796,3.741-4.023,4.904-6.68l2.507,0.234c-0.292,0.782-0.654,1.523-1.09,2.227h7.193
	v2.109h-5.013c0.654,0.782,1.308,1.603,1.961,2.461l-2.18,0.82c-0.291-0.469-0.8-1.172-1.525-2.109
	c-0.365-0.469-0.618-0.82-0.763-1.055l0.109-0.117H37.013L37.013,16.57z M46.495,27.352v2.578h10.79
	c0,1.875-0.073,3.438-0.218,4.688c-0.073,2.344-1.381,3.516-3.923,3.516c-1.308,0-2.544,0-3.706,0c0-0.079,0-0.196,0-0.352
	c-0.073-0.469-0.218-1.093-0.436-1.875c1.09,0.079,2.325,0.117,3.706,0.117c1.162,0.079,1.815-0.469,1.962-1.641
	c0-0.155,0-0.469,0-0.938c0.071-0.624,0.109-1.055,0.109-1.289h-8.283v8.203h-2.507v-7.266c-2.397,2.892-5.958,5.116-10.68,6.68
	c-0.146-0.234-0.4-0.665-0.763-1.289c-0.218-0.469-0.4-0.82-0.545-1.055c4.504-1.172,7.81-2.93,9.917-5.273h-8.064l1.09-7.031h9.045
	V22.43h-9.373v-2.227h21.361v7.148H46.495z M37.123,27.352l-0.436,2.578h7.302v-2.578H37.123z M48.893,16.57
	c-0.727,1.017-1.526,2.071-2.397,3.164c-0.509-0.546-1.127-1.055-1.853-1.523c1.671-1.875,2.943-3.944,3.814-6.211l2.616,0.234
	c-0.291,0.782-0.618,1.523-0.981,2.227h8.065v2.109h-5.667l2.071,2.461l-2.071,0.82c-0.073-0.077-0.218-0.234-0.436-0.469
	c-0.945-1.172-1.635-2.069-2.071-2.695l0.218-0.117H48.893L48.893,16.57z M53.579,22.43h-7.084v2.695h7.084V22.43z M63.041,40.242
	V14.109h23.432v26.133h-2.615v-1.875H65.656v1.875H63.041z M79.715,30.75c-2.253,0.079-3.343-1.055-3.27-3.398V16.688H72.74v5.391
	c0.218,4.376-1.417,7.931-4.904,10.664c-0.583-0.624-1.199-1.249-1.853-1.875c3.123-2.344,4.577-5.351,4.359-9.023
	c0-1.562,0-3.281,0-5.156h-4.687v19.453h18.201V16.688h-4.904v9.727c-0.073,1.251,0.507,1.837,1.744,1.758h2.833
	c0,0.313-0.073,0.743-0.218,1.289c-0.073,0.548-0.146,0.978-0.218,1.289H79.715z M92.437,16.57v-2.578h22.777v2.578h-10.026
	c0,1.641-0.073,3.867-0.218,6.68h11.771v2.695h-11.226c1.234,5.625,5.049,9.298,11.443,11.016c-0.073,0.155-0.218,0.39-0.437,0.703
	c-0.364,0.703-0.727,1.406-1.09,2.109c-6.467-2.267-10.354-6.015-11.661-11.25c-1.09,4.845-4.833,8.71-11.225,11.602
	c-0.146-0.234-0.436-0.665-0.872-1.289c-0.364-0.548-0.654-0.978-0.872-1.289c6.757-2.655,10.462-6.522,11.116-11.602H90.911V23.25
	h11.334c0.071-0.703,0.109-1.835,0.109-3.398c0.071-1.406,0.109-2.499,0.109-3.281H92.437z"/>
<path fill="#FFFFFF" d="M138.141,33.484c0.146-2.031,1.114-3.385,2.906-4.063c-1.453-0.729-2.229-1.9-2.324-3.516
	c0.192-2.656,1.646-4.063,4.359-4.219c2.615,0.209,4.043,1.615,4.286,4.219c-0.098,1.667-0.824,2.839-2.18,3.516
	c1.792,0.729,2.736,2.136,2.834,4.219c-0.146,2.656-1.793,4.036-4.94,4.141C139.885,37.677,138.238,36.245,138.141,33.484
	L138.141,33.484z M146.352,33.641c-0.146-2.291-1.261-3.489-3.343-3.594c-1.938,0.104-3.004,1.25-3.196,3.438
	c0.192,1.875,1.282,2.891,3.27,3.047C145.068,36.375,146.158,35.412,146.352,33.641L146.352,33.641z M145.625,25.906
	c-0.146-1.719-0.994-2.656-2.543-2.813c-1.599,0.104-2.471,0.99-2.616,2.656c0.048,1.928,0.92,2.943,2.616,3.047
	C144.68,28.745,145.528,27.781,145.625,25.906L145.625,25.906z M153.689,33.016c-0.243,2.136-1.09,4.192-2.543,6.172
	c-0.339-0.365-0.848-0.859-1.525-1.484c1.064-1.146,1.768-2.369,2.106-3.672c0.339-1.302,0.509-3.307,0.509-6.016v-6.719h12.279
	V35.75c0.048,1.979-0.872,2.969-2.761,2.969c-0.631,0.052-1.575,0.078-2.834,0.078c-0.146-0.573-0.291-1.225-0.436-1.953
	c0.678,0.052,1.598,0.078,2.761,0.078c1.064,0.052,1.573-0.442,1.525-1.484v-2.422H153.689L153.689,33.016z M153.98,28.172
	c0,1.198-0.049,2.266-0.146,3.203h8.937v-3.359h-8.791V28.172z M153.98,23.016v3.281h8.791v-3.281H153.98z M177.524,37.391v-1.328
	h-7.629c0.629-1.354,1.937-2.813,3.924-4.375c2.566-1.875,3.777-3.828,3.633-5.859c-0.194-2.656-1.647-4.036-4.359-4.141
	c-2.374-0.052-3.973,1.198-4.796,3.75l1.453,0.781c0.532-1.927,1.55-2.942,3.052-3.047c1.937,0.053,2.93,1.016,2.979,2.891
	c0.048,1.406-1.017,2.969-3.196,4.688c-2.132,1.667-3.658,3.542-4.577,5.625v1.016H177.524z M181.085,38.953V21.609h13.15v17.344
	h-1.743v-1.328h-9.591v1.328H181.085z M182.902,23.328v5.391h9.591v-5.391H182.902z M182.902,30.438v5.547h9.591v-5.547H182.902z"/>
</svg>
