<?xml version="1.0" encoding="utf-8"?>
<!-- Generator: Adobe Illustrator 16.0.0, SVG Export Plug-In . SVG Version: 6.00 Build 0)  -->
<!DOCTYPE svg PUBLIC "-//W3C//DTD SVG 1.1//EN" "http://www.w3.org/Graphics/SVG/1.1/DTD/svg11.dtd">
<svg version="1.1" id="图层_1" xmlns="http://www.w3.org/2000/svg" xmlns:xlink="http://www.w3.org/1999/xlink" x="0px" y="0px"
	 width="640px" height="750px" viewBox="0 0 640 750" enable-background="new 0 0 640 750" xml:space="preserve">
<path fill="#FFFFFF" d="M82.019,538.487l1.694-1.061c0.74,1.182,1.502,2.371,2.288,3.573l-1.675,1.094
	C83.533,540.881,82.765,539.679,82.019,538.487 M75.892,528.029l1.758-0.954c1.235,2.272,2.559,4.587,3.971,6.941l-1.715,1.029
	C78.498,532.698,77.148,530.338,75.892,528.029 M70.477,517.158l1.823-0.823c1.061,2.354,2.219,4.755,3.479,7.202L74,524.454
	C72.744,522.009,71.558,519.554,70.477,517.158 M65.965,505.846l1.892-0.652c0.839,2.436,1.787,4.928,2.852,7.476l-1.846,0.771
	C67.8,510.892,66.825,508.338,65.965,505.846 M62.615,494.096l1.952-0.436c0.561,2.513,1.242,5.09,2.052,7.733l-1.913,0.588
	C63.894,499.331,63.192,496.679,62.615,494.096 M60.756,481.971l1.994-0.162c0.206,2.563,0.546,5.206,1.031,7.931l-1.969,0.351
	C61.325,487.356,60.971,484.623,60.756,481.971 M60.763,469.654l1.992,0.171c-0.219,2.566-0.3,5.231-0.221,7.991l-2,0.057
	C60.456,475.098,60.533,472.333,60.763,469.654 M62.948,457.492l1.925,0.539c-0.698,2.494-1.256,5.1-1.656,7.821l-1.979-0.292
	C61.64,462.827,62.214,460.112,62.948,457.492 M67.417,445.961l1.786,0.899c-1.171,2.327-2.223,4.777-3.129,7.356l-1.887-0.66
	C65.092,450.973,66.179,448.419,67.417,445.961 M73.975,435.496l1.591,1.21c-1.581,2.079-3.077,4.29-4.452,6.642l-1.727-1.01
	C70.754,440.002,72.298,437.7,73.975,435.496 M82.214,426.348l1.375,1.454c-1.885,1.786-3.737,3.713-5.512,5.792l-1.521-1.3
	C78.3,430.252,80.204,428.252,82.214,426.348 M91.712,418.575l1.156,1.631c-2.079,1.478-4.2,3.112-6.306,4.919l-1.302-1.519
	C87.294,421.862,89.464,420.171,91.712,418.575 M102.133,412.142l0.942,1.765c-2.127,1.136-4.457,2.483-6.894,4.057l-1.085-1.68
	C97.365,414.816,99.733,413.423,102.133,412.142 M113.388,407.096l0.623,1.902c-0.01,0.002-2.925,0.963-7.367,3.098l-0.867-1.802
	c4.506-2.167,7.473-3.152,7.6-3.194L113.388,407.096"/>
</svg>
