<svg xmlns="http://www.w3.org/2000/svg" width="640" height="320" viewBox="0 0 640 320"><path fill="#fff" d="M255.364 117.002v-1.641h1.94v-3.516h1.582v3.516h1.653v1.641h-1.653v3.594l1.725-.703c0 .521.024 1.068.072 1.641l-1.797.781v5.938c.047 1.354-.528 2.057-1.725 2.109-.192 0-.479.026-.863.078h-.646c-.097-.677-.216-1.302-.359-1.875h1.222c.575 0 .838-.234.791-.703v-4.922l-2.012.859-.216-1.875 1.294-.469c.431-.156.742-.26.934-.313v-4.141h-1.942zm4.413-29.5c-.46-.5-1.189-1.207-2.185-2.125-.92-.916-1.649-1.582-2.185-2l2.415-2.75c.306.25.805.668 1.495 1.25 1.38 1.084 2.375 1.918 2.99 2.5l-2.53 3.125zm1.15 7.5c-.845 3.25-1.38 5.5-1.61 6.75l-3.68-1.125c.69-2.416 1.57-6.082 2.645-11 .383.084.996.293 1.84.625.766.25 1.341.459 1.725.625-.23.918-.537 2.293-.92 4.125zm-.575-15.875c-1.304-1.416-2.76-2.791-4.37-4.125l2.3-2.75c.92.668 2.453 1.918 4.6 3.75l-2.53 3.125zm2.487 49.828c-.336.26-.695.547-1.078.859l-1.006-1.484c.431-.416.647-1.041.647-1.875v-13.047c3.689-.156 7.115-.442 10.278-.859l.431 1.641c-.192 0-.456.027-.791.078-.959.105-2.084.209-3.378.313 0 1.459.047 3.021.144 4.688h4.384v1.641h-4.313c.144 2.761.647 4.949 1.51 6.563.334.521.646.781.934.781.239 0 .407-.208.503-.625 0-.156.023-.442.072-.859.095-.729.167-1.301.215-1.719.144.053.383.131.719.234.288.156.503.261.647.313 0 .209-.025.521-.072.938-.048.678-.144 1.328-.288 1.953-.288 1.094-.862 1.641-1.725 1.641-.959 0-1.773-.625-2.443-1.875-.959-1.666-1.51-4.114-1.653-7.344h-3.522v6.172l2.947-1.719v.156c.047.469.144.99.288 1.563l-.862.469c-1.199.571-2.062 1.038-2.588 1.403zm1.308-45.828c-.538-.75-1.342-1.707-2.415-2.875 2.53-2.666 4.37-5.5 5.52-8.5l3.91.375c-.307.75-.652 1.5-1.035 2.25h12.535v3.25h-14.26c-.155.168-.345.459-.575.875-.307.418-.537.75-.69 1h14.145v1.375c-.077 2.418-.115 4.418-.115 6h2.185v3.25h-2.3l-.115 4.125h1.955v3.25h-2.07c-.077 2.75-1.61 4.125-4.6 4.125l-4.83.125c-.154-.418-.345-1-.575-1.75-.155-.584-.27-1.043-.345-1.375 1.533.082 3.028.125 4.485.125 1.38.082 2.146-.334 2.3-1.25h-13.915l.69-7.375h-2.07v-3.25h2.415l.46-4.5-.69.75zm2.286 36.141c-.048-1.406-.072-2.916-.072-4.531-1.15.053-2.252.131-3.306.234v4.297h3.378zm-.504 11.25c-.479-.781-1.006-1.537-1.581-2.266l1.222-.703c.575.469 1.174 1.198 1.797 2.188l-1.438.781zm6.613-36.266c-.92-.916-1.802-1.625-2.645-2.125l1.725-2h-4.025l-.46 4.125h5.405zm-4.255-11.375l-.345 4h4.945c-.23-.166-.537-.416-.92-.75-.767-.666-1.38-1.166-1.84-1.5l1.725-1.75h-3.565zm9.2 11.375v-4.125h-5.29c.46.334 1.073.793 1.84 1.375.536.418.958.75 1.265 1l-1.495 1.75h3.68zm.115-7.375v-4h-4.945c.843.5 1.8 1.209 2.875 2.125l-1.61 1.875h3.68zm-.965 40.828c-.959.938-1.725 1.77-2.3 2.5l-.791-1.797c.239-.208.67-.598 1.294-1.172.479-.469.814-.807 1.006-1.016v-5.938h-2.156v-1.797h3.809v7.656c.91 1.459 2.228 2.161 3.953 2.109 3.066.104 6.229.104 9.488 0l-.216.938c-.144.364-.24.651-.288.859-1.055 0-2.659-.027-4.815-.078-2.3 0-3.858-.027-4.672-.078-1.773-.051-3.21-.78-4.312-2.186zm.36-11.172c-.431-.781-1.198-2.004-2.3-3.672l1.366-.781c.239.313.67.886 1.294 1.719.575.781.981 1.355 1.222 1.719l-1.582 1.015zm1.94 1.406v-1.719h4.457c.047-.989.072-2.422.072-4.297h1.725c0 1.563-.025 2.996-.072 4.297h5.175v1.719h-5.247c-.097 1.146-.288 2.188-.575 3.125l.791-.703c.479.469 1.341 1.355 2.587 2.656 1.197 1.25 2.036 2.136 2.516 2.656l-1.366 1.25c-.862-1.041-2.444-2.786-4.744-5.234-.719 1.928-2.253 3.725-4.6 5.391-.336-.52-.719-1.041-1.15-1.563 3.114-2.031 4.719-4.557 4.815-7.578h-4.384zm10.858-30.187c-1.534-1.416-3.182-2.875-4.945-4.375l2.415-3c1.993 1.5 3.718 2.875 5.175 4.125l-2.645 3.25zm1.035 7.75c-.845 2.75-1.419 4.791-1.725 6.125l-3.795-1.375c.996-3.082 2.031-6.75 3.105-11 .306.168 1.035.459 2.185.875.613.168 1.11.334 1.495.5-.23.918-.652 2.543-1.265 4.875zm-.23-16c-1.61-1.332-3.259-2.707-4.945-4.125l2.415-3.125c.843.668 2.07 1.625 3.68 2.875l1.38 1.125-2.53 3.25zm2.875 1.75v-3.625h4.485c-.307-.582-.805-1.416-1.495-2.5l-1.035-1.875 3.335-1.375c.92 1.334 1.878 2.793 2.875 4.375l-2.645 1.375h4.255c1.15-2 2.146-3.916 2.99-5.75l3.795 1.25c-.69 1.25-1.649 2.75-2.875 4.5h4.83v3.625h-7.36v3.375h6.325v3.625h-6.325v3.5h8.05v3.75h-8.05v6.25h-4.025v-6.25h-7.82v-3.75h7.82v-3.5h-6.21v-3.625h6.21v-3.375h-7.13zm3.87 40.984v2.734h-2.444v-2.734h2.444zm0 5.782v2.578h-2.444v-2.578h2.444zm22.926-6.797c-.048 5.209-1.605 7.864-4.671 7.969-3.211-.052-4.816-2.708-4.816-7.969.047-5.26 1.628-7.969 4.744-8.125 3.114.105 4.696 2.812 4.743 8.125zm-1.652 0c0-4.531-1.055-6.77-3.163-6.719-1.965.156-2.972 2.396-3.019 6.719 0 4.48 1.03 6.693 3.091 6.641 2.06.052 3.091-2.161 3.091-6.641zm-4.22-32.344v-3.375h1.495v-10.625h2.76l.345-1.5c.076-.666.153-1.166.23-1.5l3.565.25-.806 2.75h3.796v23.75c1.915-2 2.797-5.416 2.645-10.25v-5.125h9.66v13.25c0 .668.19 1 .575 1h.229c.46.084.728-.291.805-1.125.153-1.832.23-3.666.23-5.5.383.168.881.334 1.495.5.46.084.766.168.92.25-.154 2.668-.308 4.75-.46 6.25-.23 2.082-1.228 3.125-2.99 3.125h-1.495c-1.84 0-2.76-1.125-2.76-3.375v-10.625h-2.76v1.375c.152 5.918-1.074 10.416-3.681 13.5-.229-.25-.651-.668-1.265-1.25-.537-.584-.959-1-1.265-1.25-.308 1.332-1.228 2.041-2.761 2.125h-1.149c-.69.082-1.228.125-1.61.125-.077-1-.307-2.125-.69-3.375h2.07c.996 0 1.456-.457 1.38-1.375v-2.5l-2.414 1.375c-.155-.5-.423-1.207-.806-2.125-.384-.916-.69-1.625-.92-2.125 0 4-.614 7.541-1.84 10.625-.69-.75-1.572-1.625-2.645-2.625.996-2.75 1.533-6.291 1.61-10.625h-1.493zm4.485 0l-.115 2.5 2.3-1.25c.153.418.46 1.125.92 2.125.383.918.69 1.625.92 2.125v-5.5h-4.025zm0-10.625v2.125l2.07-1.125 1.034 1.875.92 2v-4.875h-4.024zm1.61 6.25c-.461-1.332-.998-2.625-1.61-3.875v4.875h4.024v-2.375l-2.414 1.375zm5.311 44.453c.622-4.947 2.491-9.766 5.606-14.453v-1.094h-9.344v1.563h7.403c-2.875 4.584-4.672 9.246-5.391 13.984h1.726zm1.013-48.828v-3.75h5.061c-.077-.5-.27-1.25-.575-2.25-.23-.75-.385-1.291-.46-1.625l4.025-.5c.152.668.382 1.584.689 2.75.23.75.383 1.293.46 1.625h5.29v3.75h-14.49zm9.405 39.922v-2.422h-2.229v2.422h2.229zm0 8.672v-2.266h-2.229v2.266h2.229zm11.929-7.5c-.048 5.209-1.605 7.864-4.672 7.969-3.211-.052-4.815-2.708-4.815-7.969.047-5.26 1.629-7.969 4.744-8.125 3.114.105 4.695 2.812 4.743 8.125zm-1.652 0c0-4.531-1.055-6.77-3.163-6.719-1.965.156-2.972 2.396-3.019 6.719 0 4.48 1.03 6.693 3.091 6.641 2.06.052 3.091-2.161 3.091-6.641zm-1.393-27.969c.075 0 0 .084-.23.25-.154-.582-.385-1.416-.689-2.5-.23-.666-.385-1.166-.461-1.5 2.453-2.332 4.945-5.375 7.476-9.125l3.104 2.5c-.154.168-.345.418-.574.75-.615.834-1.381 1.834-2.301 3v15.25h-3.795v-11c-.46.584-1.305 1.375-2.53 2.375zm8.97-18.875c-2.76 3.418-5.56 6.334-8.396 8.75-.767-2.082-1.304-3.457-1.609-4.125 2.53-2 4.79-4.375 6.785-7.125l3.22 2.5zm5.296 46.844c-.048 5.209-1.605 7.864-4.672 7.969-3.211-.052-4.815-2.708-4.815-7.969.047-5.26 1.629-7.969 4.744-8.125 3.114.105 4.695 2.812 4.743 8.125zm-1.652 0c0-4.531-1.055-6.77-3.163-6.719-1.965.156-2.972 2.396-3.019 6.719 0 4.48 1.029 6.693 3.091 6.641 2.059.052 3.091-2.161 3.091-6.641zm-2.954-34.094v-4.125h16.79v4.125h-4.255v9.125c.153 3.332-1.305 5-4.37 5-2.069.082-3.834.125-5.29.125-.077-.668-.229-1.625-.46-2.875-.077-.416-.154-.75-.229-1h1.955c1.072.084 1.84.125 2.3.125 1.533.084 2.261-.666 2.186-2.25v-8.25h-8.627zm1.15-9.375v-4h14.49v4h-14.49zm19.898.5v-3.375h6.9v-2.875h3.909v2.875h6.211v3.375h-6.211v2.625h3.221c2.76-2.082 5.25-4.541 7.475-7.375l2.99 2.25c-1.688 1.918-3.412 3.625-5.175 5.125h5.865v3.5h-10.005c-1.149.834-2.339 1.625-3.564 2.375h10.465v15.125h-3.795v-1.375h-12.766v1.375h-3.795v-9.75l-3.449 1.625c-.23-1.25-.575-2.625-1.035-4.125 4.83-1.666 8.739-3.416 11.729-5.25h-11.385v-3.5h9.315v-2.625h-6.9zm18.286 11.75h-12.306l-.46.25v2.125h12.766v-2.375zm-12.766 5.25v2.25h12.766v-2.25h-12.766zm21.269-6.75v-3.625h27.945v3.625h-19.205l-.46 2.125h16.561c-.155 1.918-.346 3.959-.575 6.125-.154 3.166-2.109 4.707-5.865 4.625-1.84.082-4.294.125-7.36.125-.077-.918-.345-2.209-.805-3.875 3.22.168 5.521.25 6.9.25 2.069.084 3.143-.582 3.22-2v-.75c.075-.416.115-.75.115-1h-16.79l1.035-5.625h-4.716zm3.45-5.625v-9.875h21.16v9.875h-21.16zm4.025-6.375v2.875h13.11v-2.875h-13.11zm22.889 9h16.79v3.125h-16.79v-3.125zm23.116 16.25v-13.125c-.307.168-.844.375-1.609.625-.308.168-.575.293-.806.375-.077-.25-.229-.666-.46-1.25-.154-.332-.499-1.125-1.035-2.375 4.141-.832 7.514-2.207 10.12-4.125h-9.199v-3.125h11.27v-2.25c-1.15.084-2.415.125-3.795.125h-5.175c-.077-.416-.154-.957-.23-1.625l-.345-1.5c6.9 0 14.298-.207 22.195-.625l.574 3.25c-3.145.168-6.324.25-9.545.25v2.375h11.271v3.125h-9.2c2.146 1.75 5.48 3.043 10.005 3.875-.154.418-.385 1-.689 1.75-.385.75-.652 1.334-.806 1.75-.767-.25-1.572-.5-2.415-.75v13.25h-3.68v-1.125h-12.765v1.125h-3.681zm8.28-14.75v-3.125c-1.534 1.5-3.565 2.793-6.095 3.875h16.215c-2.837-1.082-4.984-2.416-6.44-4v3.25h-3.68zm-4.599 3.875v2.125h12.765v-2.125h-12.765zm0 4.75v2.125h12.765v-2.125h-12.765zm25.188-7.75c-.308-.582-.845-1.457-1.61-2.625-.69-1.25-1.265-2.207-1.725-2.875l3.22-1.75c1.149 1.5 2.3 3.209 3.45 5.125l-3.335 2.125zm5.864 4c-.689.668-1.457 1.25-2.3 1.75l-.689-1.875c-.69 3.25-1.381 6.582-2.07 10l-3.68-1.125c.92-3.5 1.725-7.125 2.414-10.875.921.334 1.916.668 2.99 1-.154-.25-.229-.541-.229-.875 2.452-1.332 4.407-3.166 5.864-5.5h-4.944v-3.25h4.6v-2.875h-3.564v-3.25h3.564v-3h3.45v3h4.6v-3h3.565v3h3.68v3.25h-3.68v2.875h4.83v3.25h-5.29c1.226 2.084 3.143 3.668 5.75 4.75-.614 1.25-1.15 2.459-1.61 3.625-1.534-.916-2.875-1.916-4.024-3v5.75h-9.891v.875c0 1.25.575 1.875 1.726 1.875h6.899c1.303 0 1.993-.541 2.07-1.625.23-.75.383-1.75.46-3 .995.334 2.07.709 3.22 1.125-.229 1.584-.46 2.75-.689 3.5-.46 2-1.918 3-4.37 3h-8.97c-2.455 0-3.681-1.25-3.681-3.75v-5.625h-.001zm-5.29-12.625c-.307-.5-.729-1.207-1.265-2.125-.845-1.332-1.495-2.416-1.955-3.25l3.335-1.75c1.38 2.084 2.49 3.793 3.335 5.125l-3.45 2zm8.625 10.875v2.5h6.556v-2.5h-6.556zm2.761-5.75c-.538 1-1.15 1.918-1.841 2.75h6.785c-.537-.75-1.112-1.666-1.725-2.75h-3.219zm-.69-6.125v2.875h4.6v-2.875h-4.6zM275.547 297.593c-.289.501-.489.876-.604 1.125-4.025-2.187-7.131-4.843-9.315-7.969-2.128 2.876-5.377 5.625-9.746 8.25l-1.035-2.156c4.83-2.562 8.164-5.499 10.005-8.813l2.415.281c-.058.063-.145.22-.259.469-.116.188-.202.345-.259.469 2.357 3.126 5.462 5.563 9.315 7.313-.115.187-.288.532-.517 1.031zm-17.422-134.314c-.92-1.062-1.984-2.093-3.191-3.094l1.38-1.5.259.281c1.035.813 2.041 1.72 3.019 2.719l-1.467 1.594zm-.259 101.721c-.116-.062-.259-.219-.431-.469-1.093-.999-1.927-1.781-2.501-2.344l1.208-1.5c1.149.938 2.156 1.875 3.019 2.813l-1.295 1.5zm.431-33.812c-1.035-.999-2.1-1.969-3.191-2.906l1.208-1.594c1.208.938 2.329 1.875 3.364 2.813l-1.381 1.687zm-3.019-23.874v-2.063h8.107v-18.75h2.242v6.75h8.539v2.25h-8.539v9.75h10.178v2.063h-20.527zm3.278-37.097c-.575 2-.949 3.406-1.121 4.219l-1.984-.75c.574-1.688 1.322-4.437 2.243-8.25.401.188 1.035.438 1.897.75-.231.876-.576 2.219-1.035 4.031zm.862 64.159c-.806 3.063-1.466 5.78-1.983 8.156l-1.984-.656c.632-2.312 1.322-5.063 2.07-8.25.287.063.718.251 1.294.563.287.063.487.125.603.187zm-.259 33.718c-.748 3.126-1.38 5.906-1.897 8.344l-1.811-.656c.805-3.188 1.408-5.968 1.811-8.344.229.126.747.313 1.553.563-.634-.188-.518-.156.344.093zm-.862-9.281c-.92-1.062-1.811-1.999-2.674-2.813l1.294-1.406c.919.813 1.839 1.72 2.76 2.719l-1.38 1.5zm.604-33.812c-.289-.249-.72-.656-1.294-1.219-.806-.812-1.438-1.406-1.897-1.781l1.208-1.5c.977.75 2.098 1.72 3.364 2.906l-1.381 1.594zm0-67.815c-.69-.75-1.725-1.812-3.105-3.188l1.38-1.406c1.091.938 2.156 1.969 3.191 3.094l-1.466 1.5zm9.574 153.626c-1.668-1.188-4.112-2.781-7.332-4.781-.748-.499-1.323-.874-1.725-1.125l1.208-1.594c1.954 1.251 3.593 2.282 4.917 3.094l4.916-4.781h-13.11v-2.063h15.87v2.25l-5.779 5.719c.805.437 1.609.938 2.415 1.5l-1.38 1.781zm-8.884-50.687v-1.969h3.364c-.289-.812-.604-1.999-.949-3.563l1.897-.281c.057.375.201.938.431 1.688.229.876.401 1.594.518 2.156h-.086 2.156v1.969h-4.054l-.086 3.375h3.881c0 .876-.029 2.188-.086 3.938-.058 2.688-.116 4.626-.173 5.813 0 1.813-.806 2.719-2.415 2.719-.518.062-1.064.094-1.639.094l-.345-1.969h1.293c.977.062 1.437-.375 1.38-1.313 0-.375.028-.968.086-1.781.115-2.625.172-4.5.172-5.625h-2.242v.469c-.116 4.563-.979 8.156-2.587 10.781l-1.466-1.406c1.437-1.999 2.213-5.156 2.329-9.469.114-1.624.172-3.499.172-5.625h-1.551zm2.587-33.437c-.23.313-.633.782-1.208 1.406l-.172-.188c-.403-.624-.776-1.093-1.122-1.406 1.84-1.812 3.248-3.968 4.227-6.469l2.07.281c-.289.688-.604 1.313-.949 1.875h10.522v1.781h-11.471c-.403.75-.862 1.438-1.38 2.063h11.471c-.058.438-.086 1.376-.086 2.813-.058 1.188-.086 2.126-.086 2.813h1.983v1.781h-1.983c0 .501-.03 1.219-.086 2.156v1.781h1.552v1.781h-1.639c-.116 2.25-1.265 3.343-3.45 3.281h-3.105l-.259-.844c-.116-.438-.202-.75-.259-.938h3.019c1.38.062 2.098-.438 2.156-1.5h-10.781l.604-5.719h-1.897v-1.781h2.07l.518-5.344c-.058.066-.144.19-.259.377zm-1.207-71.19v-1.5h6.038v-1.781h1.984v1.781h6.555v1.5h-6.555v1.594h5.951v1.406h-5.951v1.594h6.986v1.5h-15.525v-1.5h6.555v-1.594h-5.52v-1.406h5.52v-1.594h-6.038zm.776 19.031v-11.438h12.679v8.531c.057 1.813-.834 2.719-2.674 2.719h-1.466c-.806.062-1.38.094-1.725.094-.058-.563-.23-1.188-.518-1.875.69.062 1.667.094 2.933.094 1.092.062 1.609-.344 1.553-1.219v-.75h-8.884v3.844h-1.898zm4.226 124.564c-.172-.188-.403-.499-.69-.938-.92-1.187-1.639-2.063-2.156-2.625l1.552-1.125c.574.563 1.38 1.47 2.415 2.719.229.313.402.532.518.656l-1.639 1.313zm6.038-61.717c.057-.75.086-2.063.086-3.938h-8.539l-.345 3.938h8.798zm-8.366-72.784v1.688h8.884v-1.688h-8.884zm0 3v1.688h8.884v-1.688h-8.884zm.603 60.128l-.431 3.938h8.366v-3.938h-7.935zm4.313 9.468c-.288-.249-.69-.624-1.208-1.125-.575-.437-1.006-.78-1.293-1.031l.949-1.125c.69.501 1.552 1.188 2.587 2.063l-1.035 1.218zm.172-5.812c-.345-.375-.893-.844-1.639-1.406-.345-.312-.633-.563-.862-.75l1.035-1.125c.517.375 1.264.938 2.242 1.688-.116-.124 0-.03.345.281l-1.121 1.312zm-1.38 37.655v-1.875h3.537v-1.313l2.329-2.625h-4.83v-1.406l-.604.938c-.403-.437-.892-.905-1.466-1.406 1.38-2.063 2.471-4.468 3.277-7.219l1.984.281c-.345 1-.69 1.969-1.035 2.906h5.434v1.875h-6.21c-.345.75-.748 1.5-1.208 2.25h6.728v1.969l-2.587 3v.75h3.277v1.875h-3.277v4.594c.057 1.688-.748 2.531-2.415 2.531-.806.062-1.552.094-2.243.094 0-.188-.058-.438-.172-.75-.058-.563-.116-.97-.172-1.219h1.984c.862.062 1.264-.313 1.208-1.125v-4.125h-3.539zm30.446 39.156c-.69.938-1.151 1.594-1.38 1.969-5.061-2.874-7.993-7.155-8.797-12.844-.806 5.563-3.795 9.938-8.97 13.125-.116-.188-.316-.469-.604-.844-.403-.563-.662-.97-.776-1.219 5.52-3.188 8.509-7.937 8.97-14.25.114-1.437.172-3.312.172-5.625h2.243l-.086 3.281c.574 8.25 3.708 13.657 9.401 16.219l-.173.188zm-12.136-134.126c-.748.188-1.293.375-1.639.563l-.862-1.5c.518-.438.747-1 .69-1.688v-2.625h-2.243c-.172 2.063-.862 4.031-2.07 5.906-.172-.126-.431-.344-.776-.656-.403-.313-.69-.563-.862-.75 1.437-1.562 2.098-4.313 1.983-8.25v-3.563h18.199v1.5h-16.301v2.156c0 .313-.03.72-.086 1.219v1.031h16.56v1.406h-2.933l1.035 1.125c-.461.313-1.093.688-1.897 1.125-.403.25-.72.438-.949.563 1.552.375 3.306.718 5.261 1.031-.403.624-.69 1.187-.863 1.688-5.233-.813-8.597-2.655-10.091-5.531h-2.156v3.469c.805-.188 2.156-.437 4.054-.75-.058.437-.086.999-.086 1.688-1.036.186-2.359.468-3.968.843zm-7.59 85.22v-1.875h2.501c.287-1.125.545-2.187.776-3.188l1.897.188c-.058.375-.202 1-.431 1.875-.172.501-.288.876-.345 1.125h4.398v1.875h-4.916c-.806 2.876-1.41 4.875-1.812 6h2.501v-4.594h1.639v4.594h2.329v1.875h-2.329v3l2.587-.375c-.058.75-.086 1.406-.086 1.969l-2.501.281v4.594h-1.897v-4.406c-1.552.188-2.99.375-4.313.563l-.172-2.063c.401 0 1.063-.062 1.983-.188 1.092-.062 1.926-.124 2.501-.188v-3.188h-3.967v-1.875l.259-.844c.459-1.5.919-3.218 1.38-5.156h-1.982zm-.087-55.06v-1.781h9.747v-.75l4.657-1.594h-12.592v-1.688h16.301v1.781l-6.21 2.25h8.884v1.781h-8.97v1.5c.057 1.749-.834 2.656-2.674 2.719h-3.45v-.281c-.058-.375-.173-.906-.345-1.594.345 0 .833.031 1.466.094h1.466c1.035.062 1.523-.344 1.466-1.219v-1.219h-9.746zm.173-13.875v-1.781h9.401c-.058-.188-.144-.499-.258-.938-.173-.563-.317-.968-.432-1.219l2.243-.281.69 2.438h8.884v1.781h-20.528zm.776 50.124v-17.906h1.639v17.906h-1.639zm1.812-80.378v-6.938h15.697v6.938h-15.697zm.086 36.722v-4.969h14.921v4.969h-14.921zm1.811-42.253v1.5h11.902v-1.5h-11.902zm0 2.718v1.406h11.902v-1.406h-11.902zm0 85.347v-22.313h1.897v22.313h-1.897zm.172-76.815v-1.313h13.8v1.313h-13.8zm0 27.628v1.875h11.04v-1.875h-11.04zm6.556 32.031c-.748 1.313-1.639 2.625-2.674 3.938-.23-.249-.662-.624-1.293-1.125l-.259-.281c2.012-2.187 3.45-4.812 4.313-7.875l2.07.469c-.116.251-.259.626-.431 1.125-.116.251-.375.844-.776 1.781h8.453v1.969h-9.403v-.001zm9.66 36.155c-.23.375-.576 1.063-1.035 2.063-2.358-1.812-4.169-3.969-5.434-6.469-1.38 2.376-3.278 4.563-5.693 6.563-.116-.249-.375-.718-.776-1.406-.173-.188-.289-.343-.345-.469 2.875-2.124 4.916-4.718 6.124-7.781l2.07.281-.431.938c1.38 2.75 3.219 4.843 5.52 6.28zm-12.334-19.093v-11.906h11.212v11.906h-1.725v-1.594h-7.676v1.594h-1.811zm4.657 33.437c-2.014 0-3.019-1.063-3.019-3.188v-9.563h1.897v4.125c1.84-1.062 3.593-2.344 5.261-3.844l1.208 1.688c-2.128 1.688-4.284 3.157-6.469 4.406v2.719c-.058 1.125.518 1.655 1.725 1.594h1.984c1.149 0 1.782-.53 1.897-1.594.172-.999.287-2.063.345-3.188.69.25 1.322.469 1.897.656-.173 1.563-.375 2.782-.604 3.656-.23 1.688-1.323 2.531-3.277 2.531h-2.845zm-2.846-43.468v6.75h2.932v-6.75h-2.932zm1.207-63.69c.69.813 1.437 1.5 2.243 2.063 1.264-.624 2.357-1.313 3.277-2.063h-5.52zm3.796 61.346c-.23-.249-.576-.593-1.035-1.031-.862-.874-1.553-1.562-2.07-2.063l1.293-1.313c.345.313.891.813 1.639 1.5.69.688 1.208 1.188 1.553 1.5l-1.38 1.407zm2.674 2.344h-3.019v6.75h3.019v-6.75zm4.115 78.029v-21.094h18.716v21.094h-1.984v-1.5h-14.749v1.5h-1.983zm3.94-73.154c-.345 1.688-1.006 3.437-1.983 5.25-.23-.251-.547-.656-.949-1.219-.23-.313-.403-.531-.518-.656.862-1.5 1.408-2.906 1.639-4.219.229-1.313.345-3.437.345-6.375v-8.625h15.698v10.313c0 4.313.143 6.844.431 7.594.115.375.287.563.518.563.229-.063.402-.281.518-.656.173-1.624.287-2.874.345-3.75l1.035.375c.229.063.401.126.518.188-.058.313-.116.813-.173 1.5-.172 1.188-.288 1.938-.345 2.25-.23 1.562-.921 2.344-2.07 2.344-1.035 0-1.755-.719-2.156-2.156-.461-1.249-.69-4.031-.69-8.344v-8.25h-11.644v6.563c-.002 3.185-.174 5.622-.519 7.31zm16.56-29.218c-.058.125-.086.219-.086.281-4.256-.625-7.39-1.469-9.401-2.531-2.358 1.125-5.492 2.063-9.401 2.813-.116-.313-.316-.75-.604-1.313-.173-.313-.289-.563-.345-.75 3.795-.563 6.583-1.219 8.366-1.969-1.61-1.187-3.019-2.843-4.226-4.969h-1.294v-1.781h14.231v1.875c-1.266 2.001-2.79 3.656-4.571 4.969 1.552.688 4.283 1.187 8.193 1.5-.172.313-.461.938-.862 1.875zm-19.838 52.436v-1.5h2.933c-.172-.124-.489-.375-.949-.75-.23-.188-.403-.312-.518-.375 1.264-1.063 2.243-2.25 2.933-3.563l1.811.469c-.058.126-.172.313-.345.563-.116.251-.23.438-.345.563h4.14v-1.781h1.897v1.78h7.331v1.406h-7.331v1.688h9.056v1.5h-20.613zm.518 8.531v-1.406h6.469v-1.219h1.897v10.125h-1.897v-1.875h-6.986v-1.313h6.986v-1.5h-6.124v-1.313h6.124v-1.5h-6.469zm0-70.998v-4.5h3.708c-.058-.188-.172-.437-.345-.75-.345-.624-.806-1.406-1.38-2.344l1.983-.469c.057.126.201.375.432.75.574 1.063.977 1.813 1.207 2.25l-1.639.563h9.229c.862-1.374 1.609-2.719 2.242-4.031l1.984.656c-.116.251-.345.626-.69 1.125-.172.251-.604 1.001-1.294 2.25h4.14v4.5h-1.983v-2.625h-15.525v2.625h-2.069zm18.716-9.375c-5.061.313-10.983.532-17.768.656 0-.062-.03-.188-.086-.375-.058-.687-.144-1.187-.259-1.5 6.094 0 11.989-.219 17.682-.656l.431 1.875zm-17.912 102.653v15.844h14.749v-15.844h-14.749zm1.266-25.092v-4.406h15.353v4.406h-15.353zm1.897-8.907c-.403.563-.92 1.125-1.552 1.688h6.728v-1.688h-5.176zm1.553-86.908c0 2.188-.748 3.812-2.243 4.875l-.776-.844c1.035-.813 1.581-2.031 1.639-3.656h-1.466v-3.094h2.846v2.719zm7.59 69.503c-1.151-1.624-2.387-3.469-3.708-5.531-1.438 2.063-3.048 4.001-4.83 5.813-.461-.499-.949-.999-1.466-1.5 2.243-2.438 3.938-4.5 5.089-6.188-.461-.687-1.179-1.718-2.156-3.094-.92-1.374-1.639-2.405-2.156-3.094l1.552-1.219c.518.688 1.236 1.72 2.156 3.094l1.812 2.531c1.035-1.749 2.07-3.75 3.105-6l1.725 1.031c-.978 2.25-2.186 4.5-3.622 6.75 1.954 2.876 3.334 4.938 4.14 6.188l-1.641 1.219zm-9.374 63.686v-8.906h8.883v8.906h-8.883zm.231-40.468v1.688h11.558v-1.688h-11.558zm1.667 33.436v5.156h5.175v-5.156h-5.175zm4.198-92.997c1.725-1.062 3.162-2.374 4.313-3.938h-8.194c1.15 1.814 2.443 3.127 3.881 3.938zm-.431-10.219c-.403-1.125-.834-2.187-1.294-3.188l1.984-.469c.459.938.862 2.001 1.208 3.188l-1.898.469zm1.811 83.186v-10.125h1.897v1.219h6.555v1.406h-6.555v1.5h6.124v1.313h-6.124v1.5h7.072v1.313h-7.072v1.875h-1.897zm9.602 31.187v-17.532h5.864v15.75h-4.054v1.781h-1.81zm5.526-41.031c.173 4.376-.689 7.655-2.587 9.844-.403-.438-.949-.906-1.639-1.406 1.667-1.749 2.414-4.562 2.242-8.438v-5.156h18.457v1.781h-16.474v3.375h.001zm-.689-95.345c-.807.624-1.669 1.625-2.588 3l-.862-2.25c.805-.812 1.609-1.655 2.415-2.531v-7.313h-2.156v-2.156h4.054v9.469c.805 1.626 2.299 2.438 4.484 2.438 2.53.062 6.584.031 12.162-.094-.059.125-.116.343-.173.656-.23.563-.375 1.031-.432 1.406h-7.158c-1.783 0-3.394-.032-4.83-.094-2.242-.063-3.881-.906-4.916-2.531zm-3.45 26.785v-2.438h20.959v2.438h-20.959zm.423 94.028v11.719h2.329v-11.719h-2.329zm2.94-134.407c-.115-.249-.316-.593-.604-1.031-.518-.938-1.207-2.063-2.07-3.375l1.639-1.031c.978 1.375 1.926 2.782 2.847 4.219l-1.812 1.218zm-.948 101.721v-4.594h1.983v2.813h5.521v-3.656h1.983v3.656h5.434v-2.813h1.984v4.594h-16.905zm3.795-21.062c0 2.188-.748 3.812-2.242 4.875l-.776-.844c1.035-.813 1.58-2.032 1.639-3.656h-1.467v-3.094h2.847l-.001 2.719zm-.266 55.436v-1.969h4.398v-3.75h1.984v3.75h4.657v1.969h-4.657v3.469h5.605v1.875h-4.916c1.208 2.938 3.105 5.407 5.692 7.406l-1.293 1.781c-2.415-2.124-4.112-4.562-5.089-7.313v9.469h-1.984v-9.469c-1.207 3.188-3.048 5.781-5.52 7.781-.461-.625-.949-1.187-1.467-1.688 2.817-1.937 4.917-4.594 6.297-7.969h-4.485v-1.875h5.175v-3.469h-4.397zm-.166-26.499v-1.781h13.369v1.781h-5.692v2.906h7.245v1.781h-7.245v4.5h-2.07v-4.5h-7.158v-1.781h7.158v-2.906h-5.607zm1.897-98.346c-.115.063-.202.126-.259.188l-1.034-1.5c.401-.437.604-.968.604-1.594v-12.188c.057 0 .143-.031.259-.094 1.725-.5 3.161-.999 4.313-1.5l1.121 1.688c-1.553.625-2.847 1.063-3.882 1.313v10.688c.402-.188 1.006-.499 1.812-.938.518-.249.891-.437 1.121-.563 0 .251.028.656.087 1.219v.844c-1.093.501-2.215 1.125-3.364 1.875-.232.125-.49.313-.778.562zm5.176 2.156v-17.156h7.158v11.813c.057 1.626-.661 2.47-2.156 2.531-.689.063-1.38.094-2.07.094l-.431-1.969c.345.063.862.094 1.553.094.862 0 1.264-.375 1.207-1.125v-9.563h-3.45v15.281h-1.811zm7.669 139.095v-18.375h2.329c.057-.249.143-.593.259-1.031.229-.687.431-1.594.604-2.719l2.156.375c-.288 1.125-.604 2.25-.949 3.375h3.882v18.188h-1.897v-1.781h-4.399v1.969h-1.985zm1.984-16.313v5.156h4.399v-5.156h-4.399zm0 7.219v5.344h4.399v-5.344h-4.399zm1.325-145.188v-1.5h5.693c-.346-.5-.893-1.156-1.64-1.969l1.984-.469c.689.625 1.38 1.406 2.07 2.344l-.087.094h3.536c.229-.312.546-.718.949-1.219.459-.563.776-.968.948-1.219l2.07.469-1.553 1.969h5.434v1.5h-9.659c-.173.563-.346 1.063-.518 1.5h8.711v1.5h-9.229c-.059.25-.173.563-.346.938l-.258.563h11.557v1.594h-12.42c-.288.563-.604 1.063-.948 1.5h11.299v10.969h-1.897v-1.125h-10.437v1.125h-1.897v-7.5c-.979.938-2.07 1.875-3.277 2.813-.116-.188-.289-.5-.518-.938l-.518-.844c2.702-1.937 4.686-3.938 5.951-6h-5.521v-1.594h6.469c.115-.188.259-.5.432-.938l.259-.563h-5.52v-1.5h6.037c.173-.437.345-.938.518-1.5h-7.674zm.863 70.252v-1.594h6.641l.345-1.125c.057-.249.115-.437.173-.563-.806.063-2.042.094-3.709.094-1.61.063-2.846.094-3.708.094l-.173-1.688c6.9-.124 12.852-.312 17.854-.563l.259 1.688c-2.703.063-5.491.157-8.366.281l-.604 1.781h8.798v1.594h-9.401c-.059.126-.173.345-.346.656l-.517 1.125h11.815v1.594h-12.765c-.345.563-.72 1.125-1.121 1.688h11.558v11.25h-1.984v-.938h-10.35v.938h-1.897v-8.156c-1.035 1.001-2.186 2.032-3.45 3.094-.403-.874-.69-1.53-.862-1.969 2.529-1.875 4.485-3.844 5.865-5.906h-5.521v-1.594h6.555l.259-.563c.173-.249.402-.656.69-1.219h-6.038zm2.069 44.5c-.345 1.813-1.093 3.718-2.242 5.719l-1.639-1.5c.977-1.624 1.609-3.249 1.897-4.875.345-1.562.518-3.812.518-6.75v-7.407c6.094-.188 11.644-.563 16.646-1.125l.776 2.156c-4.83.438-9.949.782-15.353 1.031v3h16.301v1.969h-16.301v.375c.002 3.188-.2 5.657-.603 7.407zm-3.709-80.28v-1.781h3.796v-2.438h1.811v2.438h3.709v1.781h-3.709v8.344h1.726v-6.281h1.466v8.156h-3.191v4.594c.346-.188.919-.469 1.726-.844l1.725-.938c0 .251.028.626.086 1.125v1.031c-1.38.5-2.703 1.125-3.967 1.875-.059.062-.173.125-.346.188-.23.188-.431.343-.604.469l-1.035-1.688c.46-.375.661-.905.604-1.594v-4.219h-3.278v-8.156h1.553v6.281h1.726v-8.344h-3.798zm6.038-25.472v1.5h10.437v-1.5h-10.437zm0 2.812v1.5h10.437v-1.5h-10.437zm0 2.813v1.313h10.437v-1.313h-10.437zm0 62.096v1.688h10.35v-1.688h-10.35zm0 3v1.688h10.35v-1.688h-10.35zm0 3v1.5h10.35v-1.5h-10.35zm0 37.656v-10.031h12.852v10.031h-1.984v-1.406h-8.884v1.406h-1.984zm6.697 33.717h-3.623c-.058-.688-.202-1.438-.431-2.25.746.062 1.867.094 3.363.094 1.609.125 2.415-.656 2.415-2.344.114-1.374.201-4.313.259-8.813.057-1.313.086-2.25.086-2.813h-5.175c-.23.563-.604 1.376-1.121 2.438l-.518 1.125c-.518-.375-1.093-.75-1.725-1.125 1.38-2.687 2.443-5.438 3.191-8.25l1.983.469c-.116.375-.288.907-.518 1.594l-.518 1.688h6.383c0 4.001-.116 8.688-.345 14.063.003 2.686-1.235 4.062-3.706 4.124zm-1.639-6.468l-1.294-1.969c-.806-1.313-1.438-2.312-1.897-3l1.553-1.125c.401.626 1.005 1.5 1.811 2.625.69.938 1.208 1.688 1.553 2.25l-1.726 1.219zm-3.074-35.312v4.875h8.884v-4.875h-8.884zm11.299-59.936c-.575-.625-1.409-1.469-2.501-2.531l-1.639-1.781c-.806 1.563-2.329 3.094-4.571 4.594-.23-.25-.604-.719-1.121-1.406.345.5.259.406-.259-.281 3.622-1.688 5.317-4.374 5.089-8.063v-3.938h1.811v3.844c0 1.313-.115 2.47-.345 3.469.518.501 1.294 1.219 2.329 2.156 1.149 1.001 2.012 1.781 2.587 2.344l-1.38 1.593zm-9.315-19.312v-1.875h10.522v1.875h-4.399l-.518 2.906h4.227v10.969h-1.725v-9.188h-5.779v9.281h-1.639v-11.063h3.019l.518-2.906h-4.226zm11.526 109.872c-.115-.062-.259-.218-.431-.469-1.093-.999-1.928-1.781-2.501-2.344l1.207-1.5c1.149.938 2.156 1.875 3.019 2.813l-1.294 1.5zm1.294 3.094c-.748 3.126-1.38 5.906-1.897 8.344l-1.812-.656c.805-3.188 1.409-5.968 1.812-8.344.229.126.747.313 1.553.563-.635-.188-.519-.156.344.093zm-.863-9.281c-.92-1.062-1.812-1.999-2.674-2.813l1.294-1.406c.919.813 1.84 1.72 2.76 2.719l-1.38 1.5zm1.294 1.312v-1.969h3.363c-.288-.812-.604-1.999-.948-3.563l1.897-.281c.057.375.2.938.431 1.688.229.876.402 1.594.518 2.156h-.086 2.156v1.969h-4.054l-.086 3.375h3.881c0 .876-.029 2.188-.086 3.938-.059 2.688-.116 4.626-.173 5.813 0 1.813-.806 2.719-2.415 2.719-.518.062-1.064.094-1.639.094l-.345-1.969h1.294c.977.062 1.437-.375 1.38-1.313 0-.375.028-.968.086-1.781.114-2.625.173-4.5.173-5.625h-2.243v.469c-.115 4.563-.979 8.156-2.587 10.781l-1.467-1.406c1.437-1.999 2.213-5.156 2.329-9.469.114-1.624.173-3.499.173-5.625h-1.552zm1.79-128.782c-.575.813-1.179 1.563-1.811 2.25-.116-.437-.316-1.125-.604-2.063 1.667-1.937 3.019-4.28 4.054-7.031l1.466 1.031c-.461 1.063-.948 2.063-1.466 3v12.094h-1.64v-9.281h.001zm-1.38 58.721v-1.5h5.693c-.346-.499-.893-1.155-1.64-1.969l1.984-.469c.689.626 1.38 1.406 2.07 2.344l-.087.094h3.536c.229-.312.546-.718.949-1.219.459-.563.776-.968.948-1.219l2.07.469-1.553 1.969h5.434v1.5h-9.659c-.173.563-.346 1.063-.518 1.5h8.711v1.5h-9.229c-.059.251-.173.563-.346.938l-.258.563h11.557v1.594h-12.42c-.288.563-.604 1.063-.948 1.5h11.299v10.969h-1.894v-1.125h-10.437v1.125h-1.897v-7.5c-.979.938-2.07 1.875-3.277 2.813-.116-.188-.289-.499-.518-.938l-.518-.844c2.702-1.937 4.686-3.938 5.951-6h-5.521v-1.594h6.469c.115-.188.259-.499.432-.938l.259-.563h-5.52v-1.5h6.037c.173-.437.345-.938.518-1.5h-7.677zm4.486-70.721c-1.323 2.688-2.818 4.875-4.485 6.563-.115-.5-.402-1.156-.862-1.969 1.553-1.562 2.816-3.469 3.795-5.719l1.552 1.125zm-1.984 122.064c-.346.313-.548.563-.604.75l-1.207-1.688c.46-.438.66-.938.604-1.5v-9h-2.156v-1.968h4.054v10.5c.69-.563 1.351-1.125 1.984-1.688.057.188.114.563.172 1.125.114.563.173.97.173 1.219-.979.626-1.869 1.25-2.674 1.875l-.346.375zm-2.415-83.654v-2.156h8.366v-3.375h2.156v3.375h8.452v2.156h-8.452v3.656h7.158v2.063h-7.158v3.656h9.143v2.156h-9.143v5.344h-2.156v-5.344h-9.143v-2.156h9.143v-3.656h-7.159v-2.063h7.159v-3.656h-8.366zm2.846 67.904c-.92-1.313-1.869-2.593-2.846-3.844l1.466-1.031c1.208 1.313 2.213 2.501 3.019 3.563l-1.639 1.312zm4.054-91.408c.057 2.438-.72 4.438-2.328 6-.461-.625-.863-1.125-1.208-1.5 1.38-.999 2.012-2.813 1.897-5.438v-1.688h5.951v4.313c.229-.188.661-.563 1.294-1.125-.173.126-.029-.03.432-.469 0 .126.028.345.086.656.057.626.114 1.095.173 1.406-.173.126-.432.345-.776.656-1.323 1.063-2.128 1.749-2.415 2.063l-.949-1.406c.346-.437.518-1.031.518-1.781v-2.531h-2.674v.844h-.001zm-2.242-8.25v-5.719h1.38v3.938h1.639v-5.719h1.553v5.719h1.639v-4.031h1.38v5.813h-7.591zm.603 97.502v-1.5h6.038v-1.781h1.897v1.781h6.382v1.5h-6.382v1.594h5.692v1.406h-5.692v1.594h6.728v1.5h-15.181v-1.5h6.556v-1.594h-5.606v-1.406h5.606v-1.594h-6.038zm-.431-93.846v-1.781h7.158v1.781h-7.158zm.345 69.409v1.5h10.437v-1.5h-10.437zm0 2.813v1.5h10.437v-1.5h-10.437zm0 2.812v1.313h10.437v-1.313h-10.437zm.948 37.843v-11.438h12.248v8.531c.057 1.813-.806 2.719-2.588 2.719h-1.38c-.806.062-1.38.094-1.725.094-.173-.563-.346-1.188-.518-1.875.689.062 1.667.094 2.933.094.977.062 1.437-.344 1.38-1.219v-.75h-8.366v3.844h-1.984zm1.143 26.499v-1.875h3.536v-1.313l2.328-2.625h-4.83v-1.406l-.604.938c-.402-.437-.892-.905-1.466-1.406 1.38-2.063 2.472-4.468 3.277-7.219l1.983.281c-.345 1.001-.689 1.969-1.035 2.906h5.435v1.875h-6.21c-.346.75-.748 1.5-1.208 2.25h6.728v1.969l-2.588 3v.75h3.278v1.875h-3.278v4.594c.057 1.688-.747 2.531-2.415 2.531-.806.062-1.552.094-2.242.094 0-.188-.058-.438-.172-.75-.059-.563-.116-.97-.173-1.219h1.983c.862.062 1.265-.313 1.208-1.125v-4.125h-3.535zm.842-36.436v1.688h8.366v-1.688h-8.366zm0 3v1.688h8.366v-1.688h-8.366zm5.433-108.002c-.23.563-.489 1.063-.776 1.5-.058-.188-.202-.499-.432-.938-.229-.437-.402-.718-.517-.844 1.38-2.499 2.385-5.531 3.019-9.094l1.811.281c-.345 1.375-.689 2.688-1.034 3.938h4.398v1.781h-1.035c-.23 4.376-.92 7.813-2.07 10.313.633 1.375 1.695 2.719 3.191 4.031l-1.035 1.875c-1.552-1.688-2.587-3.062-3.104-4.125-.634 1.125-1.755 2.531-3.364 4.219-.23-.438-.604-1-1.121-1.688 1.553-1.374 2.76-2.843 3.623-4.406-.749-1.874-1.267-4.156-1.554-6.843zm1.121-2.531c.345 3.438.805 5.876 1.38 7.313.747-2.063 1.208-4.781 1.38-8.156h-2.415l-.345.843zm2.522 134.219v-1.875h2.502c.287-1.125.546-2.187.776-3.188l1.897.188c-.059.375-.202 1.001-.432 1.875-.173.501-.288.876-.345 1.125h4.398v1.875h-4.916c-.806 2.876-1.41 4.875-1.812 6h2.501v-4.594h1.64v4.594h2.328v1.875h-2.328v3l2.587-.375c-.058.75-.086 1.406-.086 1.969l-2.501.281v4.594h-1.897v-4.406c-1.553.188-2.991.375-4.313.563l-.172-2.063c.401 0 1.063-.062 1.983-.188 1.092-.062 1.926-.124 2.502-.188v-3.188h-3.968v-1.875l.259-.844c.459-1.5.919-3.218 1.38-5.156h-1.983zm7-127.938c-.575.813-1.179 1.563-1.811 2.25-.116-.437-.316-1.125-.604-2.063 1.667-1.937 3.019-4.28 4.054-7.031l1.466 1.031c-.461 1.063-.948 2.063-1.466 3v12.094h-1.64v-9.281h.001zm.517 65.659c-.115-.062-.259-.218-.431-.469-1.093-.999-1.928-1.781-2.501-2.344l1.207-1.5c1.149.938 2.156 1.875 3.019 2.813l-1.294 1.5zm-2.501 29.593v-1.969h2.329v-4.313h1.897v4.313h1.983v1.969h-1.983v4.406l1.983-.656c0 .688.028 1.375.087 2.063l-2.07.75v6.75c.057 1.562-.634 2.375-2.07 2.438h-1.897c-.058-.25-.116-.688-.173-1.313-.115-.375-.172-.625-.172-.75h1.466c.69.062 1.006-.22.949-.844v-5.719c-.748.25-1.553.532-2.415.844l-.259-2.25c.919-.312 1.812-.563 2.674-.75v-4.969h-2.329zm5.089-107.252c-1.323 2.688-2.818 4.875-4.485 6.563-.115-.5-.402-1.156-.862-1.969 1.553-1.562 2.816-3.469 3.795-5.719l1.552 1.125zm-1.294 80.753c-.748 3.126-1.38 5.906-1.897 8.344l-1.812-.656c.805-3.188 1.409-5.968 1.812-8.344.229.126.747.313 1.553.563-.634-.189-.518-.156.344.093zm-.862-9.282c-.92-1.062-1.812-1.999-2.674-2.813l1.294-1.406c.919.813 1.84 1.72 2.76 2.719l-1.38 1.5zm-2.501-31.842v-4.688h8.711c0-.249-.058-.593-.173-1.031-.058-.499-.115-.844-.172-1.031l2.328-.188.346 2.25h8.366v4.688h-1.984v-3h-15.438v3h-1.984zm1.121 15.656v-9h17.164v9h-1.984v-1.125h-13.196v1.125h-1.984zm14.39 86.997c-.23.375-.575 1.063-1.035 2.063-2.357-1.812-4.169-3.968-5.434-6.469-1.38 2.376-3.277 4.563-5.692 6.563-.116-.249-.374-.718-.776-1.406-.172-.188-.288-.343-.345-.469 2.875-2.124 4.916-4.718 6.124-7.781l2.069.281-.431.938c1.38 2.75 3.22 4.844 5.52 6.28zm-11.716-69.498v-1.969h3.363c-.288-.812-.604-1.999-.948-3.563l1.897-.281c.057.375.2.938.431 1.688.229.876.402 1.594.518 2.156h-.086 2.156v1.969h-4.054l-.086 3.375h3.881c0 .876-.029 2.188-.086 3.938-.059 2.688-.116 4.626-.173 5.813 0 1.813-.806 2.719-2.415 2.719-.518.062-1.064.094-1.639.094l-.345-1.969h1.294c.977.062 1.437-.375 1.38-1.313 0-.375.028-.968.086-1.781.114-2.625.173-4.5.173-5.625h-2.243v.469c-.115 4.563-.979 8.156-2.587 10.781l-1.467-1.406c1.437-1.999 2.213-5.156 2.329-9.469.114-1.624.173-3.499.173-5.625h-1.552zm-.862-27.812v-4.313h13.627v4.313h-13.627zm.172-5.718v-1.219h13.196v1.219h-13.196zm0 8.531v1.875h5.606v-1.875h-5.606zm0 3.187v1.688h5.606v-1.688h-5.606zm4.053-36.066c.057 2.438-.72 4.438-2.328 6-.461-.625-.863-1.125-1.208-1.5 1.38-.999 2.012-2.813 1.897-5.438v-1.688h5.951v4.313c.229-.188.661-.563 1.294-1.125-.173.126-.029-.03.432-.469 0 .126.028.345.086.656.057.626.114 1.095.173 1.406-.173.126-.432.345-.776.656-1.323 1.063-2.128 1.749-2.415 2.063l-.949-1.406c.346-.437.518-1.031.518-1.781v-2.531h-2.674v.844h-.001zm.677 141.72c-2.014 0-3.019-1.063-3.019-3.188v-9.563h1.897v4.125c1.839-1.062 3.593-2.344 5.261-3.844l1.208 1.688c-2.128 1.688-4.284 3.157-6.469 4.406v2.719c-.059 1.125.518 1.655 1.725 1.594h1.983c1.15 0 1.782-.53 1.897-1.594.173-.999.287-2.063.346-3.188.689.251 1.322.469 1.897.656-.173 1.563-.375 2.782-.604 3.656-.229 1.688-1.323 2.531-3.277 2.531h-2.845zm-2.919-149.97v-5.719h1.38v3.938h1.639v-5.719h1.553v5.719h1.639v-4.031h1.38v5.813h-7.591zm0 35.316v1.688h9.574v-1.688h-9.574zm1.553 70.53v-1.969h3.363c.173-.437.432-1.125.776-2.063.173-.624.315-1.093.432-1.406l2.069.469c-.461 1.063-.862 2.063-1.207 3h8.193v1.969h-2.328c-.69 2.501-1.639 4.469-2.847 5.906.345.188.862.501 1.553.938.632.313 1.812.938 3.536 1.875l-1.208 1.875c-1.84-1.251-3.622-2.313-5.347-3.188-1.841 1.25-4.313 2.375-7.418 3.375l-1.035-1.969c3.22-.874 5.404-1.749 6.556-2.625-1.438-.874-2.904-1.719-4.399-2.531.633-1.063 1.236-2.28 1.812-3.656h-2.501zm-1.38-102.19v-1.781h7.158v1.781h-7.158zm1.725 97.971v-4.406h5.606c-.058-.188-.173-.469-.345-.844-.289-.812-.518-1.374-.69-1.688l2.07-.469c.229.501.518 1.219.862 2.156l.259.844h5.089v4.406h-1.897v-2.438h-9.143v2.438h-1.811zm2.846 7.125l3.449 1.969c1.265-1.25 2.127-2.874 2.588-4.875h-4.657l-1.38 2.906zm1.898-33.718v-1.875h3.536v-1.313l2.328-2.625h-4.83v-1.406l-.604.938c-.402-.437-.892-.905-1.466-1.406 1.38-2.063 2.472-4.468 3.277-7.219l1.983.281c-.345 1.001-.689 1.969-1.035 2.906h5.435v1.875h-6.21c-.346.75-.748 1.5-1.208 2.25h6.728v1.969l-2.587 3v.75h3.277v1.875h-3.277v4.594c.057 1.688-.748 2.531-2.415 2.531-.807.062-1.553.094-2.243.094 0-.188-.058-.438-.172-.75-.059-.563-.116-.97-.173-1.219h1.983c.862.062 1.265-.313 1.208-1.125v-4.125h-3.535zm4.743-33.905h-5.606v1.875h5.606v-1.875zm-5.607 3.187v1.688h5.606v-1.688h-5.606zm3.106-42.722c-.23.563-.489 1.063-.776 1.5-.058-.188-.202-.499-.432-.938-.229-.437-.402-.718-.517-.844 1.38-2.499 2.385-5.531 3.019-9.094l1.812.281c-.346 1.375-.69 2.688-1.035 3.938h4.398v1.781h-1.035c-.23 4.376-.92 7.813-2.07 10.313.633 1.375 1.695 2.719 3.191 4.031l-1.035 1.875c-1.552-1.688-2.587-3.062-3.104-4.125-.634 1.125-1.755 2.531-3.364 4.219-.23-.438-.604-1-1.121-1.688 1.553-1.374 2.761-2.843 3.623-4.406-.749-1.874-1.267-4.156-1.554-6.843zm1.121-2.531c.345 3.438.805 5.876 1.38 7.313.747-2.063 1.208-4.781 1.38-8.156h-2.415l-.345.843zm4.989 147.719c-.863.876-1.755 1.905-2.674 3.094l-.862-2.25c.517-.624 1.293-1.5 2.328-2.625.633-.624 1.178-.938 1.639-.938.115 0 .229.032.346.094h.259c4.368-2.813 8.279-6.03 11.729-9.656h-14.662v-2.063h8.452c-.23-.624-.604-1.562-1.121-2.813-.173-.437-.316-.75-.432-.938l2.243-.469c.459 1.063 1.005 2.407 1.639 4.031l-.604.188h7.245v2.25c-3.738 4.188-8.021 7.845-12.851 10.969 1.034 1.313 2.644 2.001 4.829 2.063 2.07.063 5.404.032 10.006-.094-.289.688-.489 1.406-.604 2.156h-5.864c-1.496-.063-2.818-.126-3.968-.188-2.703 0-4.773-.938-6.21-2.813-.289-.247-.576-.247-.863.002zm2.366-81.498v-1.875h2.502c.287-1.125.546-2.187.776-3.188l1.897.188c-.059.375-.202 1.001-.432 1.875-.173.501-.288.876-.345 1.125h4.398v1.875h-4.916c-.806 2.876-1.41 4.875-1.812 6h2.501v-4.594h1.64v4.594h2.328v1.875h-2.328v3l2.587-.375c-.058.75-.086 1.406-.086 1.969l-2.501.281v4.594h-1.897v-4.406c-1.553.188-2.991.375-4.313.563l-.172-2.063c.401 0 1.063-.062 1.983-.188 1.092-.062 1.926-.124 2.502-.188v-3.188h-3.968v-1.875l.259-.844c.459-1.5.919-3.218 1.38-5.156h-1.983zm.173 35.124v-1.969h2.415v-4.125h1.897v4.125h2.329v1.969h-2.329v4.688l2.415-.656v2.156l-2.415.656v6.469c.057 1.749-.689 2.625-2.242 2.625-.461.062-1.064.094-1.812.094-.058-.75-.173-1.469-.345-2.156h.431c.346.062.661.062.949 0 .805.062 1.178-.281 1.121-1.031v-5.438c-.288.126-.748.25-1.38.375-.518.188-.92.313-1.208.375l-.172-2.344c.114 0 .259-.031.431-.094.574-.124 1.351-.312 2.329-.563v-5.156h-2.414zm2.933-97.22c-1.035-.999-2.1-1.969-3.191-2.906l1.208-1.594c1.207.938 2.328 1.875 3.363 2.813l-1.38 1.687zm1.121 3.187c-.806 3.063-1.466 5.78-1.983 8.156l-1.984-.656c.633-2.312 1.322-5.063 2.07-8.25.287.063.719.251 1.294.563.287.063.488.126.603.187zm-.518-9.375c-.288-.249-.72-.656-1.294-1.219-.806-.812-1.438-1.406-1.897-1.781l1.208-1.5c.978.75 2.099 1.72 3.363 2.906l-1.38 1.594zm-3.018 51.348v-18.375h2.329c.057-.249.143-.593.259-1.031.229-.688.431-1.594.604-2.719l2.156.375c-.288 1.125-.604 2.25-.949 3.375h3.882v18.188h-1.897v-1.781h-4.399v1.969h-1.985zm1.983-16.313v5.156h4.399v-5.156h-4.399zm0 7.219v5.344h4.399v-5.344h-4.399zm4.313-40.566c-.23.313-.633.782-1.207 1.406l-.173-.188c-.402-.624-.776-1.093-1.121-1.406 1.84-1.812 3.248-3.968 4.227-6.469l2.069.281c-.288.688-.604 1.313-.948 1.875h10.522v1.781h-11.471c-.403.75-.863 1.438-1.381 2.063h11.472c-.058.438-.086 1.375-.086 2.813-.059 1.188-.087 2.126-.087 2.813h1.984v1.781h-1.984c0 .501-.029 1.219-.086 2.156v1.781h1.553v1.781h-1.639c-.116 2.25-1.266 3.343-3.45 3.281h-3.105l-.259-.844c-.115-.438-.202-.75-.259-.938h3.02c1.38.062 2.098-.438 2.156-1.5h-10.781l.604-5.719h-1.897v-1.781h2.07l.517-5.344c-.059.065-.145.189-.26.377zm13.972 68.94c-.23.375-.575 1.063-1.035 2.063-2.357-1.812-4.169-3.968-5.434-6.469-1.38 2.376-3.277 4.563-5.692 6.563-.116-.249-.374-.718-.776-1.406-.172-.188-.288-.343-.345-.469 2.875-2.124 4.916-4.718 6.124-7.781l2.069.281-.431.938c1.381 2.75 3.221 4.843 5.52 6.28zm-10.177 35.499c-1.955.063-2.903-.905-2.846-2.906v-6h1.897v3.281c3.507-.563 6.728-1.313 9.66-2.25l.689 1.875c-2.703.688-6.153 1.406-10.35 2.156v.281c-.116 1.313.488 1.907 1.812 1.781h4.916c1.149.063 1.812-.405 1.983-1.406.115-.312.229-.874.346-1.688v-.188c.229.063.632.188 1.207.375.287.063.488.126.604.188-.058.251-.115.563-.172.938-.116.688-.202 1.219-.259 1.594-.346 1.376-1.38 2.032-3.105 1.969h-6.382zm6.038-93.752c.057-.75.086-2.063.086-3.938h-8.538l-.346 3.938h8.798zm-8.711 107.252v-11.531h11.298v11.531h-1.896v-1.313h-7.504v1.313h-1.898zm.948-116.908l-.432 3.938h8.367v-3.938h-7.935zm6.901 48.441h-3.623c-.058-.688-.202-1.438-.431-2.25.746.062 1.867.094 3.363.094 1.609.125 2.415-.656 2.415-2.344.114-1.374.201-4.313.259-8.813.057-1.313.086-2.25.086-2.813h-5.175c-.23.563-.604 1.376-1.121 2.438l-.518 1.125c-.518-.375-1.093-.75-1.725-1.125 1.38-2.687 2.443-5.438 3.191-8.25l1.983.469c-.116.375-.288.907-.518 1.594l-.518 1.688h6.383c0 4.001-.116 8.688-.345 14.063.003 2.686-1.235 4.062-3.706 4.124zm-5.952 58.717v2.531h7.504v-2.531h-7.504zm0 4.219v2.531h7.504v-2.531h-7.504zm3.278-29.124c-2.014 0-3.019-1.063-3.019-3.188v-9.563h1.897v4.125c1.839-1.062 3.593-2.344 5.261-3.844l1.208 1.688c-2.128 1.688-4.284 3.157-6.469 4.406v2.719c-.059 1.125.518 1.655 1.725 1.594h1.983c1.15 0 1.782-.53 1.897-1.594.173-.999.287-2.063.346-3.188.689.251 1.322.469 1.897.656-.173 1.563-.375 2.782-.604 3.656-.229 1.688-1.323 2.531-3.277 2.531h-2.845zm.086-72.784c-.288-.249-.689-.624-1.207-1.125-.576-.437-1.007-.78-1.294-1.031l.948-1.125c.69.501 1.553 1.188 2.588 2.063l-1.035 1.218zm.172-5.813c-.346-.375-.893-.844-1.639-1.406-.346-.312-.634-.563-.863-.75l1.035-1.125c.518.375 1.265.938 2.243 1.688-.116-.124 0-.03.345.281l-1.121 1.312zm.777 38.316l-1.294-1.969c-.806-1.313-1.438-2.312-1.897-3l1.553-1.125c.401.626 1.005 1.5 1.811 2.625.69.938 1.208 1.688 1.553 2.25l-1.726 1.219zm2.376 91.966v-1.969h3.709c-.288-1.062-.604-2.093-.948-3.094l1.983-.469c.173.688.518 1.875 1.035 3.563h2.415v1.969h-4.657l-.087 3.188h4.141c0 3.375-.087 6.75-.259 10.125 0 2-.835 3-2.502 3h-1.897l-.431-1.969h1.725c.978.062 1.437-.437 1.38-1.5.115-3.249.173-5.813.173-7.688h-2.415c0 5.313-.806 9.219-2.415 11.719l-1.466-1.406c1.437-1.999 2.156-5.655 2.156-10.969l.086-4.5h-1.726zm8.439-58.06c-.575.063-1.064.157-1.467.281l-.604-1.781c.401-.249.833-.75 1.294-1.5.345-.437.833-1.249 1.466-2.438.229-.437.402-.75.518-.938-1.207.063-2.271.157-3.191.281l-.517-1.969c.401-.249.775-.75 1.121-1.5.919-1.562 1.84-3.53 2.76-5.906l1.812.656c-1.323 2.751-2.474 4.969-3.45 6.656l2.501-.094c.057-.124.173-.343.345-.656.229-.375.518-.968.863-1.781l1.639.844c-1.38 2.625-2.904 5.282-4.571 7.969.746-.062 1.839-.188 3.277-.375h.259v.938c-.058.438-.086.75-.086.938-.518.063-1.266.126-2.243.188-.749.125-1.324.187-1.726.187zm1.035-66.222c-.346 1.688-1.007 3.437-1.984 5.25-.23-.25-.547-.656-.948-1.219-.23-.313-.403-.531-.518-.656.862-1.5 1.408-2.906 1.639-4.219.229-1.313.345-3.437.345-6.375v-8.625h15.697v10.313c0 4.313.144 6.844.432 7.594.114.375.287.563.518.563.229-.063.401-.281.518-.656.173-1.624.287-2.874.345-3.75l1.035.375c.229.063.401.126.518.188-.058.313-.116.813-.173 1.5-.172 1.188-.288 1.938-.345 2.25-.23 1.562-.92 2.344-2.07 2.344-1.035 0-1.754-.719-2.156-2.156-.461-1.25-.689-4.031-.689-8.344v-8.25h-11.644v6.563c-.002 3.185-.175 5.623-.52 7.31zm4.054 59.097v-1.688h1.897l-.776-1.688c-.173-.312-.288-.563-.345-.75l1.552-.563c.229.438.546 1.125.949 2.063.172.251.287.469.345.656l-.776.281h5.951c.173-.437.46-1.031.863-1.781.345-.75.573-1.28.689-1.594l1.639.656c-.172.313-.402.75-.689 1.313l-.776 1.406h2.415v1.688h-8.28l-.173 1.688h8.712v1.688h-9.057c-.116.563-.259 1.095-.432 1.594h7.936v1.875c-.862 1.5-1.928 2.813-3.191 3.938 1.092.501 2.788.938 5.089 1.313-.345.688-.604 1.313-.776 1.875-2.358-.501-4.342-1.251-5.951-2.25-1.323.875-3.394 1.718-6.21 2.531-.058-.188-.202-.469-.432-.844-.172-.438-.316-.75-.431-.938 2.126-.501 3.967-1.093 5.52-1.781-.979-.874-1.812-1.905-2.501-3.094-.748 1.626-1.869 3.251-3.363 4.875-.346-.501-.72-.907-1.122-1.219-1.897.312-3.708.656-5.434 1.031l-.345-1.969c2.127-.312 4.313-.718 6.555-1.219v.938c1.667-2.124 2.76-4.343 3.277-6.656h-2.76v-1.688h3.105c0-.563.057-1.125.172-1.688h-2.846zm-7.418 35.78v-2.156h20.873v2.156h-9.057v8.719c.114 2.124-.834 3.219-2.846 3.281h-3.191c-.116-.75-.259-1.532-.432-2.344.747.062 1.639.094 2.674.094 1.149.062 1.695-.437 1.639-1.5v-8.25h-9.66zm6.383 3.094c-1.841 3.063-3.422 5.47-4.744 7.219-.115-.063-.259-.156-.431-.281-.289-.25-.69-.563-1.208-.938 1.84-2.563 3.364-4.969 4.571-7.219l1.812 1.219zm-3.968-68.092v-11.906h16.043v11.906h-6.986v2.813h9.314v1.969h-9.314v4.594h-2.156v-4.594h-9.229v-1.969h9.229v-2.813h-6.901zm3.032 93.185c-.747 1.376-1.639 2.719-2.674 4.031-.633-.687-1.093-1.155-1.38-1.406 1.726-2.063 2.989-4.374 3.795-6.938l1.984.188-.518 1.406c-.173.438-.288.75-.345.938h7.762v1.781h-8.624zm-3.204-34.749v-2.156h16.56v2.156h-16.56zm11.485 51.249l-.776.844c-3.221-2.749-5.061-6.874-5.52-12.375-.69.063-1.38.157-2.07.281v9.844c1.208-.624 2.329-1.125 3.364-1.5v.938c.057.438.086.75.086.938-1.208.437-2.415.999-3.623 1.688-.115.062-.259.125-.431.188-.461.249-.748.437-.862.563l-1.122-1.688c.518-.438.747-1.031.69-1.781v-10.969c3.105-.249 6.21-.75 9.315-1.5l.689 1.969c-1.323.313-2.76.563-4.313.75.173 1.5.401 2.813.69 3.938 1.149-.624 2.271-1.313 3.363-2.063l.949 1.688c-1.208.75-2.445 1.47-3.709 2.156.746 2.063 2.099 3.782 4.054 5.156-.114.185-.373.497-.774.935zm-.014-136.939c-1.151-1.625-2.387-3.469-3.709-5.531-1.438 2.063-3.048 4.001-4.83 5.813-.461-.5-.948-.999-1.466-1.5 2.242-2.438 3.938-4.5 5.089-6.188-.461-.687-1.18-1.719-2.156-3.094-.921-1.374-1.639-2.405-2.156-3.094l1.553-1.219c.518.688 1.235 1.72 2.156 3.094l1.811 2.531c1.035-1.749 2.07-3.75 3.105-6l1.725 1.031c-.979 2.25-2.186 4.5-3.622 6.75 1.954 2.876 3.334 4.938 4.14 6.188l-1.64 1.219zm-9.228 17.316v3.094h11.902v-3.094h-11.902zm0 4.875v3.188h11.902v-3.188h-11.902zm15.783 28.562c-2.99.251-7.244.469-12.765.656 0-.249-.058-.656-.173-1.219-.058-.249-.086-.437-.086-.563 4.772-.124 8.998-.343 12.679-.656l.345 1.782zm-6.037 15.469c1.264-1.062 2.213-2.093 2.847-3.094h-5.521c.747 1.188 1.638 2.22 2.674 3.094zm-.691-11.438c-.172-.563-.489-1.437-.948-2.625-.058-.062-.086-.124-.086-.188l1.639-.375c.345.876.689 1.781 1.034 2.719l-1.639.469zm5.607 47.406l-.259-.281c-2.014-2.874-3.565-5.03-4.657-6.469l1.639-1.219c.229.313.632.813 1.208 1.5 1.781 2.376 3.047 4.095 3.795 5.156l-1.726 1.313zm-3.35 17.217v-1.875h20.441v1.875h-20.441zm.948 18v-15.469h1.897v13.781h14.749v-13.781h1.897v16.688h-1.897v-1.219h-16.646zm3.968-4.031v-11.906h10.522v11.906h-10.522zm1.812-10.219v3.469h2.674v-3.469h-2.674zm0 5.063v3.469h2.674v-3.469h-2.674zm3.125-108.841c-.575.75-1.265 1.47-2.069 2.156-.173-.437-.461-.844-.862-1.219 1.321-1.125 2.328-2.438 3.019-3.938l1.466.375-.259.563c-.172.313-.288.532-.345.656h1.639v-3.75h1.639v1.125h3.45v1.313h-3.45v1.313h2.847v1.594c-2.014 2.313-4.975 4.188-8.884 5.625-.059-.188-.202-.469-.432-.844-.173-.375-.316-.624-.432-.75 1.381-.375 2.588-.812 3.623-1.313l-1.38-1.5 1.035-.844c.287.188.66.501 1.121.938.287.25.518.438.689.563.919-.563 1.812-1.25 2.674-2.063h-5.089zm16.646 4.219c-1.323-.874-2.587-1.688-3.795-2.438-.92.438-1.983.906-3.191 1.406 2.243 1.875 5.089 3.25 8.539 4.125-.058.126-.173.345-.345.656l-.518 1.125-2.07-.844c-.461-.188-.806-.312-1.035-.375v4.688c.345-.188.632-.375.862-.563l1.035 1.219c-1.207.75-2.242 1.251-3.104 1.5l3.881 1.125-.862 1.406c-.345-.126-.834-.281-1.467-.469-3.221-1-5.664-1.75-7.331-2.25-.058.375-.086.844-.086 1.406-1.438.249-3.135.594-5.089 1.031-.116.062-.316.125-.604.188-.289.124-.489.188-.604.188l-.776-1.406c.401-.375.604-.844.604-1.406v-6.281c-.862.501-1.755.938-2.674 1.313-.058-.062-.116-.188-.173-.375-.345-.563-.604-.999-.775-1.313 4.254-1.562 7.618-3.593 10.091-6.094l1.466.188-.086-.188c.114-.062.315-.124.604-.188.633-.249 1.322-.53 2.07-.844l-1.294-.844c-.575-.312-1.007-.563-1.294-.75l1.035-1.219 3.105 1.875c.746-.499 1.522-1.249 2.328-2.25h-6.21v-1.594h8.107v1.688c-1.034 1.438-1.927 2.438-2.673 3l3.363 2.063-1.034 1.501zm-17.077 39.999c-.575.063-1.064.157-1.467.281l-.604-1.781c.401-.249.833-.75 1.294-1.5.345-.437.833-1.249 1.466-2.438.229-.437.402-.75.518-.938-1.207.063-2.271.157-3.191.281l-.517-1.969c.401-.249.775-.75 1.121-1.5.919-1.562 1.839-3.53 2.76-5.906l1.812.656c-1.324 2.751-2.474 4.969-3.45 6.656l2.501-.094c.057-.124.173-.343.345-.656.229-.375.518-.968.863-1.781l1.639.844c-1.38 2.625-2.904 5.282-4.571 7.969.746-.062 1.839-.188 3.277-.375h.259v.938c-.058.438-.086.75-.086.938-.518.063-1.266.126-2.243.188-.75.125-1.325.187-1.726.187zm5.089-7.125v-1.688h1.897l-.776-1.688c-.173-.312-.288-.563-.345-.75l1.552-.563c.229.438.546 1.125.949 2.063.172.251.287.469.345.656l-.776.281h5.951c.173-.437.46-1.031.863-1.781.345-.75.573-1.28.689-1.594l1.639.656c-.172.313-.402.75-.689 1.313l-.776 1.406h2.415v1.688h-8.28l-.173 1.688h8.712v1.688h-9.057c-.116.563-.259 1.095-.432 1.594h7.936v1.875c-.862 1.5-1.928 2.813-3.191 3.938 1.092.501 2.788.938 5.089 1.313-.345.688-.604 1.313-.776 1.875-2.358-.501-4.342-1.251-5.951-2.25-1.323.875-3.394 1.718-6.21 2.531-.058-.188-.202-.469-.432-.844-.172-.438-.316-.75-.431-.938 2.126-.501 3.967-1.093 5.52-1.781-.979-.874-1.812-1.905-2.501-3.094-.748 1.626-1.869 3.251-3.364 4.875-.345-.501-.72-.907-1.121-1.219-1.897.312-3.708.656-5.434 1.031l-.345-1.969c2.127-.312 4.313-.718 6.555-1.219v.938c1.667-2.124 2.76-4.343 3.277-6.656h-2.76v-1.688h3.105c0-.563.057-1.125.172-1.688h-2.846zm-7.245 29.593v-2.25h20.527v2.25h-10.091v5.906l1.293-1.781c2.645 1.626 5.204 3.281 7.677 4.969l-1.38 2.063c-2.243-1.625-4.773-3.375-7.59-5.25v12.469h-2.243v-18.375h-8.193zm.603-86.252v-17.344h6.296v14.906h-4.484v2.438h-1.812zm1.812-15.469v11.063h2.76v-11.063h-2.76zm4.033 138.813h-2.674v3.469h2.674v-3.469zm-2.674 5.063v3.469h2.674v-3.469h-2.674zm11.319-100.966h-10.005v1.313h10.005v-1.313zm-10.004 3.656h10.005v-1.313h-10.005v1.313zm8.538 2.813l1.035-.563c.345-.249.919-.563 1.726-.938h-11.299v2.344c1.437-.313 2.788-.531 4.054-.656l-1.121-.375.689-1.219 4.916 1.407zm6.986-32.973c-.518.75-.862 1.313-1.035 1.688-3.104-2.188-5.06-4.937-5.864-8.25-.634 3.25-2.818 6.094-6.556 8.531-.345-.625-.806-1.281-1.38-1.969 4.082-2.187 6.325-5.218 6.728-9.094.173-.999.259-2.374.259-4.125h1.897c0 1-.029 1.907-.086 2.719.632 4.751 2.73 8.125 6.296 10.125-.058.062-.144.188-.259.375zm-9.746 23.691c.057.126.114.375.173.75.114.375.172.656.172.844h3.278c-1.496-.874-2.904-1.937-4.227-3.188-1.151 1.188-2.501 2.25-4.054 3.188h3.363c0-.062-.029-.155-.086-.281 0-.188-.086-.563-.259-1.125l1.64-.188zm9.228 26.312c-2.99.251-7.244.469-12.765.656 0-.249-.058-.656-.173-1.219-.058-.249-.086-.437-.086-.563 4.772-.124 8.998-.343 12.679-.656l.345 1.782zm-1.465-60.128c-.288-.062-.69-.188-1.208-.375-.288-.062-.488-.124-.604-.188l1.639-4.313h-7.331c-.575 1.688-1.294 3.313-2.156 4.875-.575-.375-1.179-.75-1.812-1.125 1.726-2.874 2.961-5.968 3.709-9.281l1.984.375c-.289 1.125-.604 2.188-.949 3.188h8.539v1.969l-1.811 4.875zm-7.332 31.191c.172.126.345.281.518.469-.059-.062-.116-.188-.173-.375l-.259-.281-.086.187zm2.76 44.406c1.264-1.062 2.213-2.093 2.847-3.094h-5.521c.747 1.188 1.639 2.22 2.674 3.094zm-.69-11.438c-.172-.563-.489-1.437-.948-2.625-.058-.062-.086-.124-.086-.188l1.639-.375c.345.876.689 1.781 1.034 2.719l-1.639.469zm1.446 82.53v-2.063h8.107v-18.75h2.242v6.75h8.539v2.25h-8.539v9.75h10.178v2.063h-20.527zm7.808-42.999v-1.781h1.38v-7.969h2.329c.057-.312.143-.718.259-1.219.056-.563.114-.968.172-1.219l1.897.094-.259 1.125c-.172.563-.288.97-.345 1.219h3.363v17.25c.057 1.562-.661 2.375-2.156 2.438h-2.156c0-.188-.058-.469-.172-.844-.058-.501-.116-.876-.173-1.125h.518c.518.062.919.094 1.208.094.862 0 1.264-.344 1.207-1.031v-7.031h-3.881c.114 4.563-.432 8-1.639 10.313-.289-.188-.748-.563-1.38-1.125-.116-.063-.202-.126-.259-.188 1.034-1.999 1.522-5 1.466-9h-1.379zm.259-107.909v-1.969h2.242v-4.125h1.812v4.125h1.897v1.969h-1.897v4.594l1.035-.281c.401-.124.718-.218.948-.281 0 .75.028 1.438.087 2.063l-2.07.656v6.75c.057 1.625-.634 2.438-2.07 2.438-.575.062-1.207.094-1.897.094v-.188c-.115-.938-.23-1.563-.345-1.875h1.466c.747 0 1.092-.281 1.035-.844v-5.813c-.288.063-.748.188-1.38.375-.403.126-.69.22-.862.281l-.259-2.25c.114 0 .259-.03.431-.094.518-.124 1.208-.312 2.07-.563v-5.063h-2.243zm5.001 78.503c-1.034.063-2.731.313-5.088.75l-.173-2.063c.229 0 .604-.03 1.121-.094 1.897-.249 3.277-.437 4.14-.563v1.97zm-.862 5.344h-2.415c0-.126-.029-.281-.086-.469-.058-.75-.145-1.282-.259-1.594h1.207c.633.062 1.122.094 1.467.094 1.207.062 1.812-.53 1.812-1.781.057-.75.114-1.969.172-3.656.057-.812.087-1.437.087-1.875h-5.521l.604-8.156h1.726l-.432 6.188h2.329l.518-7.688h-5.176v-1.875h7.159l-.69 9.563h1.294c0 1.001-.058 2.751-.172 5.25-.059 1.125-.087 1.969-.087 2.531-.058 2.374-1.238 3.53-3.537 3.468zm1.294-34.374c-1.841-.188-2.876-1.281-3.104-3.281.172-2.124 1.207-3.281 3.104-3.469 1.954.188 3.019 1.345 3.191 3.469-.172 2-1.237 3.093-3.191 3.281zm-2.501 50.467v6.188h3.881v-6.188h-3.881zm1.639 4.969c-.059-.062-.116-.188-.173-.375-.173-.812-.518-1.749-1.035-2.813l1.38-.656c.229.438.488 1.095.776 1.969.229.563.402.97.518 1.219l-1.466.656zm.172 8.343c-.115-.312-.258-.75-.431-1.313-.345-.938-.634-1.655-.862-2.156l1.466-.656.518 1.406c.345.876.604 1.563.776 2.063l-1.467.656zm.69-69.123c-1.093.126-1.696.813-1.812 2.063.115 1.063.719 1.655 1.812 1.781 1.149-.126 1.781-.718 1.897-1.781-.116-1.249-.747-1.937-1.897-2.063zm10.437-40.472v3.281h4.398c0 .501-.029 1.251-.086 2.25 0 1.063-.03 1.813-.087 2.25-.058 1.5-.776 2.218-2.156 2.156-.461.062-.92.094-1.38.094v-.188c-.058-.437-.172-.938-.345-1.5.46.063.862.094 1.207.094.633.063.978-.312 1.035-1.125.057-.437.087-1.155.087-2.156h-2.674v7.125h-1.897v-7.125h-2.415c-.23 3-1.697 5.469-4.399 7.406-.115-.126-.288-.281-.518-.469-.172-.188-.547-.531-1.121-1.031 2.472-1.5 3.852-3.469 4.141-5.906h-3.536l.689-6.938h3.277v-3.281h-3.363v-1.875h3.277v-2.813h1.812v2.813h2.156v-2.813h1.897v2.813h3.622v6.938h-3.621zm-2.76 77.846c-.748.875-2.215 1.781-4.399 2.719-.461-.75-.806-1.345-1.035-1.781 2.185-.876 3.507-1.594 3.968-2.156-.979-.999-1.897-2.374-2.76-4.125l1.466-.938c.805 1.626 1.609 2.782 2.415 3.469.401-.874.632-2.374.69-4.5h-4.313v-9h4.313l.086-3.281h1.812l-.086 3.281h4.484v10.219h-1.725v-1.219h-2.76c-.059 2.688-.403 4.594-1.035 5.719 1.264.813 3.392 1.438 6.382 1.875-.345.75-.633 1.438-.862 2.063-3.221-.751-5.434-1.533-6.641-2.345zm-4.917-77.846l-.345 3.281h2.156c.057-.938.086-2.03.086-3.281h-1.897zm4.917 96.283c.172 2.876-.721 5.126-2.674 6.75-.173-.188-.432-.437-.776-.75-.346-.375-.604-.624-.776-.75 1.725-1.249 2.501-3.062 2.328-5.438v-2.719h7.159v5.25c-.058 1.001.373 1.47 1.294 1.406h1.121c0 .188-.058.501-.173.938-.058.438-.115.782-.172 1.031h-1.726c-1.61.063-2.387-.844-2.328-2.719v-4.031h-3.277v1.032zm-2.761 18.187v-10.406h8.97v10.406h-1.897v-1.781h-5.175v1.781h-1.898zm.432-51.061v5.25h2.674v-5.25h-2.674zm1.035-62.284c0 .75-.03 1.47-.087 2.156h2.243v-3.281h-2.156v1.125zm0-6.188v3.281h2.156v-3.281h-2.156zm.431 111.002v5.156h5.175v-5.156h-5.175zm6.682 25.28c-.862 1.626-2.156 3.407-3.881 5.344l-1.208-1.875c2.299-2.312 4.054-5.187 5.262-8.625l2.069.469c-.115.375-.345.907-.689 1.594-.173.438-.316.782-.432 1.031h13.282c-.058 2.501-.144 6.126-.258 10.875-.059 1.688-.087 2.876-.087 3.563 0 2.938-1.466 4.406-4.398 4.406-1.266.062-2.79.094-4.571.094-.116-.813-.259-1.563-.432-2.25h4.313c2.07.188 3.076-.75 3.02-2.813.057-.999.114-3.281.172-6.844.057-2.374.086-4.031.086-4.969h-12.248zm-.903-67.81h-2.76v5.25h2.76v-5.25zm-.173-68.472h-2.242v3.281h2.242v-3.281zm-.735 149.689v-10.313h9.833v8.719h-7.849v1.594h-1.984zm1.984-8.344v4.781h5.864v-4.781h-5.864zm6.203-105.466c-.575.75-1.18 1.47-1.812 2.156-.116-.312-.316-.75-.604-1.313-.173-.312-.288-.563-.345-.75 2.012-2.124 3.564-4.437 4.657-6.938l1.897.75c-.575 1.188-1.208 2.313-1.897 3.375v9.75h-1.897v-7.03h.001zm18.285 47.03c-.634.688-1.208 1.406-1.726 2.156-3.565-2.749-6.382-6.999-8.452-12.75l-.345-.656c-1.496 5.501-4.485 10.031-8.971 13.594l-1.466-2.156c4.657-3.312 7.704-8.063 9.143-14.25-1.151-1.875-2.272-3.281-3.364-4.219l1.639-1.219c1.897 1.626 3.68 4.406 5.348 8.344 2.07 5.313 4.801 9.032 8.194 11.156zm-16.905-38.311c-.69 1.938-1.41 3.72-2.156 5.344l-1.812-.844c.862-1.624 1.553-3.343 2.07-5.156l1.898.656zm2.156-31.098c0 2.188-.748 3.812-2.242 4.875l-.776-.844c1.035-.813 1.58-2.031 1.639-3.656h-1.467v-3.094h2.847l-.001 2.719zm0 102.002c0 2.188-.748 3.812-2.242 4.875l-.776-.844c1.035-.813 1.58-2.031 1.639-3.656h-1.467v-3.094h2.847l-.001 2.719zm1.725-64.529c-1.841 0-2.76-.938-2.76-2.813v-3.938h1.983v3.375c0 .938.488 1.406 1.467 1.406h3.622c1.265.125 1.954-.343 2.07-1.406.173-.624.287-1.313.345-2.063.229.126.604.281 1.121.469l.776.281c-.058.501-.202 1.219-.431 2.156-.059.126-.087.22-.087.281-.345 1.562-1.438 2.312-3.277 2.25h-4.829zm3.105-13.782c-1.323 1.75-2.617 3.313-3.882 4.688-.461-.499-.948-.938-1.466-1.313 1.149-1.125 2.386-2.625 3.709-4.5l1.639 1.125zm-1.379-3.843c-.576 1.063-1.294 2.156-2.156 3.281-.116-.124-.317-.281-.604-.469-.403-.375-.721-.656-.949-.844 1.494-1.812 2.73-3.874 3.709-6.188l1.983.375-.518 1.125c-.23.375-.374.656-.431.844h9.4v1.969l-1.207 2.906c-.288-.188-.806-.375-1.553-.563-.115-.062-.202-.094-.259-.094l1.035-2.344h-8.45v.002zm1.638 13.968c-.748-1.125-1.61-2.218-2.588-3.281l1.467-1.125c.919.938 1.839 1.969 2.76 3.094l-1.639 1.312zm.69-4.5h-1.983c-.116-.563-.259-1.187-.432-1.875.402.063.978.094 1.726.094.919 0 1.35-.405 1.294-1.219v-5.156h1.897v5.438c.056 1.751-.777 2.657-2.502 2.718zm1.214 100.31v-1.969h20.959v1.969h-14.663l-.689 2.25h12.679c-.059 1.5-.202 3-.432 4.5-.116 2.188-1.553 3.313-4.313 3.375h-5.002c-.059-.313-.173-.876-.346-1.688-.058-.25-.086-.438-.086-.563 1.092.062 2.702.094 4.83.094 1.897.124 2.846-.437 2.846-1.688.115-.75.173-1.468.173-2.156h-12.938l1.121-4.125h-4.139zm6.031-101.247c-.345-.375-.834-.938-1.466-1.688-.921-1.125-1.669-1.999-2.243-2.625l1.381-1.219c1.264 1.376 2.558 2.782 3.881 4.219l-1.553 1.313zm.087 7.312c-.863-1.437-1.928-3.03-3.191-4.781l1.553-1.125c1.264 1.688 2.385 3.313 3.363 4.875l-1.725 1.031zm-3.099 89.904v-6.938h14.921v6.938h-14.921zm2.07-5.063v3.094h10.781v-3.094h-10.781zm5.547-133.844v-1.969h5.865c.46-.999.833-2.03 1.121-3.094l2.156.281c-.172.438-.402 1.063-.689 1.875-.173.438-.289.75-.346.938h11.816v1.969h-12.679c-.633 1.5-1.553 3.188-2.76 5.063v12.281h-1.983v-9.75c-.748.813-1.582 1.688-2.502 2.625-.288-.687-.604-1.406-.948-2.156 2.587-2.499 4.571-5.188 5.951-8.063h-5.002zm-.862 32.691v-2.063h20.873v2.063h-3.105v15c.057 2.188-.979 3.281-3.104 3.281-1.208.062-2.445.094-3.709.094-.058-.563-.202-1.313-.432-2.25 1.208.062 2.3.094 3.277.094 1.38.125 2.013-.499 1.897-1.875v-14.344h-15.697zm3.191 52.655v-10.312l-.776.281c-.689.251-1.207.469-1.553.656-.172-.624-.461-1.249-.862-1.875 3.393-.938 6.124-2.28 8.194-4.031h-7.591v-1.688h8.884v-2.344c-.92.063-1.927.094-3.019.094h-4.054c-.058-.687-.144-1.249-.259-1.688 4.197 0 9.603-.188 16.215-.563l.259 1.688c-1.438.126-3.853.251-7.245.375v2.438h8.884v1.688h-7.59c1.782 1.626 4.485 2.876 8.107 3.75-.345.688-.633 1.313-.862 1.875-3.968-1.249-6.813-2.843-8.539-4.781v3.281h-1.897v-3.281c-1.61 1.688-3.651 3.032-6.123 4.031h14.231v10.406h-1.898v-.938h-10.608v.938h-1.898zm7.159 19.468c-.403 6.313-3.25 11.22-8.539 14.719-.058-.126-.173-.281-.345-.469-.518-.688-.921-1.188-1.208-1.5 4.944-3.188 7.59-7.437 7.936-12.75h-7.504v-2.063h7.763c.114-1.812.2-3.75.258-5.813h2.156c0 .938-.058 2.344-.172 4.219-.059.688-.086 1.219-.086 1.594h9.056c-.058 1.063-.145 2.876-.259 5.438-.115 3-.202 5.063-.259 6.188-.058 3.062-1.438 4.562-4.14 4.5-1.266.062-2.646.094-4.141.094-.058-.938-.23-1.688-.517-2.25h3.967c1.84.125 2.761-.844 2.761-2.906.114-1.313.229-3.969.345-7.969v-1.031h-7.072v-.001zm-5.261-2.719c-.862-1.187-1.841-2.344-2.933-3.469l1.467-1.313c.345.313.862.844 1.552 1.594.69.688 1.208 1.219 1.553 1.594l-1.639 1.594zm-2.76-54.873v-11.25h9.487v9.563h-7.504v1.688h-1.983zm1.983-9.281v5.719h5.521v-5.719h-5.521zm.777 38.686v2.344h10.608v-2.344h-10.608zm0 3.844v2.25h10.608v-2.25h-10.608zm2.07-72.596v-1.969h5.261v-4.406h1.984v4.406h5.261v1.969h-5.261v6.188h6.382v1.875h-14.662v-1.875h6.296v-6.188h-5.261zm6.641 105.095c-1.034-1.374-2.128-2.656-3.277-3.844l1.467-1.313c.862.75 2.012 1.938 3.449 3.563l-1.639 1.594zm4.199 39.718c-1.841-.188-2.876-1.281-3.105-3.281.173-2.124 1.208-3.281 3.105-3.469 1.954.188 3.019 1.345 3.191 3.469-.173 2-1.237 3.094-3.191 3.281zm0-5.344c-1.093.126-1.696.813-1.812 2.063.115 1.063.719 1.655 1.812 1.781 1.149-.126 1.781-.718 1.897-1.781-.116-1.249-.748-1.937-1.897-2.063zm7.728-73.154c-.289-.312-.69-.812-1.208-1.5-.748-.874-1.323-1.562-1.725-2.063l1.553-1.125c1.034 1.063 2.069 2.22 3.104 3.469l-1.724 1.219zm.69 41.874c-1.035.999-1.927 2.03-2.674 3.094l-.948-2.25c.919-.874 1.812-1.749 2.674-2.625v-7.219h-2.502v-2.063h4.485v9.188c.978 1.688 2.588 2.531 4.83 2.531 3.623.125 7.446.125 11.472 0 0 .062-.03.155-.087.281-.23.563-.402 1.187-.518 1.875-1.265 0-3.19-.032-5.778-.094-2.818 0-4.716-.032-5.692-.094-2.301.001-4.054-.875-5.262-2.624zm-.086-36.062c-.461 2.438-.806 4.219-1.035 5.344l-2.07-.656c.69-2.562 1.322-5.438 1.898-8.625.286.126.718.281 1.293.469.287.063.488.126.604.188-.116.625-.345 1.719-.69 3.28zm-.949-30.436l-.431.469-1.467-1.781c.633-.624.92-1.437.863-2.438v-15.844h2.156v16.031c1.781-1.249 3.593-2.625 5.434-4.125 0 .126.028.313.086.563.173 1.001.315 1.688.432 2.063-1.841 1.313-3.854 2.719-6.038 4.219l-1.035.843zm.949 18.53c-.921-1.249-1.869-2.438-2.847-3.563l1.64-1.125c.229.251.545.626.948 1.125.862.938 1.522 1.72 1.983 2.344l-1.724 1.219zm.086 34.562c-.862-1.5-1.754-2.938-2.674-4.313l1.726-1.031c.287.438.746 1.125 1.38 2.063.632 1.001 1.092 1.72 1.38 2.156l-1.812 1.125zm5.779-85.221v-7.219h-5.606v1.313h-2.07v-15.281h17.509v15.281h-1.983v-1.313h-5.692v7.219h-2.158zm-5.606-19.125v3.938h5.606v-3.938h-5.606zm0 5.906v3.938h5.606v-3.938h-5.606zm2.156 63.128v-1.781h2.76v-2.531h1.812v2.531h4.14v-2.531h1.897v2.531h3.277v1.781h-3.277v2.813h4.054v1.781h-4.398c1.149 1.938 2.73 3.438 4.744 4.5l-.259.563c-.173.251-.403.688-.69 1.313-1.38-.938-2.501-1.905-3.363-2.906v4.969h-7.504v1.219c-.059 1.001.401 1.468 1.38 1.406h5.52c.978 0 1.581-.375 1.812-1.125.173-.499.287-1.249.345-2.25.173.063.402.157.69.281l1.035.281c-.116.938-.289 1.781-.518 2.531-.288 1.438-1.294 2.124-3.019 2.063h-6.556c-1.668 0-2.501-.876-2.501-2.625v-5.25c-.69.688-1.438 1.313-2.242 1.875-.23-.624-.518-1.249-.862-1.875 2.069-1.313 3.679-2.968 4.829-4.969h-4.054v-1.781h3.709v-2.813h-2.761zm.432 35.406v-1.969h6.382c-.23-.563-.575-1.374-1.035-2.438-.172-.375-.316-.656-.431-.844l2.069-.563.518 1.125c.46 1.001.776 1.781.949 2.344l-1.208.375h6.814v1.969h-2.07c-.748 2.625-1.841 4.875-3.277 6.75 1.553 1.375 3.075 2.813 4.571 4.313l-1.467 1.688c-.461-.5-1.15-1.187-2.069-2.063l-2.415-2.344c-1.438 1.563-3.566 3.063-6.383 4.5-.575-.938-1.007-1.594-1.294-1.969 2.415-1.062 4.485-2.375 6.21-3.938-1.897-1.875-3.479-3.343-4.743-4.406l1.38-1.406 4.743 4.219c1.208-1.5 2.099-3.281 2.674-5.344h-9.918zm3.449-66.686c-.979-2.063-1.983-4.031-3.019-5.906l1.726-1.031c1.207 1.938 2.299 3.876 3.277 5.813l-1.984 1.124zm9.488 14.812c-.807-1.188-1.956-2.749-3.45-4.688-.23-.188-.375-.343-.432-.469-1.093 1.938-3.363 3.875-6.813 5.813-.173-.188-.432-.563-.776-1.125-.23-.438-.432-.75-.604-.938 5.807-2.499 8.625-6.999 8.452-13.5.114-2.374.173-4.5.173-6.375h2.069c0 2.688-.058 4.813-.172 6.375-.173 3.25-.604 5.782-1.294 7.594.632.75 1.553 1.907 2.76 3.469.862 1.001 1.467 1.688 1.812 2.063l-1.725 1.781zm-10.178 25.374v2.531h5.692v-2.531h-5.692zm1.898-4.312c-.518.938-1.093 1.813-1.726 2.625h6.642c-.575-.812-1.121-1.688-1.639-2.625h-3.277zm-.518-4.594v2.813h4.14v-2.813h-4.14zm6.728-69.034h-5.692v3.938h5.692v-3.938zm-5.693 5.906v3.938h5.692v-3.938h-5.692zm11.506-2.812v-1.969h2.76v-4.406h1.812v4.406h2.587v1.969h-2.587v2.438h.086c.172.126.431.375.776.75 1.034.813 1.781 1.47 2.242 1.969l-1.121 1.688c-.634-.75-1.294-1.437-1.983-2.063v11.25h-1.812v-11.719c-.518 2.001-1.323 3.97-2.415 5.906l-.259-1.406c-.116-.687-.202-1.155-.259-1.406 1.149-1.937 2.098-4.406 2.846-7.406h-2.673zm2.673 40.566v-6.469c-.689.813-1.409 1.657-2.156 2.531-.23-.874-.461-1.594-.689-2.156 1.954-2.063 3.536-4.374 4.744-6.938l1.811 1.125c-.575.938-1.179 1.907-1.811 2.906v9h-1.899zm18.113 64.436c-.346.501-.807 1.219-1.381 2.156-4.025-2.438-7.016-5.25-8.97-8.438-2.128 3.375-5.232 6.313-9.314 8.813-.518-.938-.949-1.624-1.294-2.063 4.771-2.813 8.078-6.094 9.919-9.844l2.415.188c-.173.375-.375.72-.604 1.031 2.07 3.251 5.145 5.97 9.229 8.157zm-13.8-60.78c.229 2.876-1.754 4.843-5.951 5.906-.23-.501-.575-1.157-1.034-1.969 3.736-.563 5.434-2.124 5.088-4.688v-1.594h9.66v4.5c-.058.813.315 1.187 1.121 1.125h1.208c.805 0 1.264-.343 1.38-1.031.114-.75.229-1.688.345-2.813.173.063.46.157.862.281.518.126.863.22 1.035.281-.058 1.063-.23 2.095-.518 3.094-.23 1.374-1.15 2.063-2.76 2.063h-2.156c-1.783.062-2.646-.813-2.587-2.625v-3h-5.693v.47zm-1.466 39.062c-1.841-.188-2.876-1.281-3.105-3.281.173-2.124 1.208-3.281 3.105-3.469 1.954.188 3.019 1.345 3.191 3.469-.173 2-1.237 3.093-3.191 3.281zm0-5.344c-1.093.126-1.696.813-1.812 2.063.115 1.063.719 1.655 1.812 1.781 1.149-.126 1.781-.718 1.897-1.781-.116-1.249-.748-1.937-1.897-2.063zm9.573-65.846c-1.495 1.438-3.221 2.719-5.175 3.844-.402-.75-.776-1.345-1.121-1.781 2.07-1.062 3.737-2.25 5.003-3.563-1.38-2.063-2.358-4.562-2.933-7.5l.948-.469h-1.811v1.406c.172 4.938-.863 8.845-3.105 11.719-.288-.25-.776-.75-1.466-1.5 1.897-2.374 2.788-5.78 2.674-10.219v-8.625c4.368-.249 8.279-.624 11.729-1.125l.69 2.063c-3.163.375-6.671.688-10.522.938v3.375h9.573v1.969c-.575 3.063-1.668 5.719-3.277 7.969 1.264 1.313 2.76 2.407 4.485 3.281l-1.208 1.875c-1.782-1.189-3.276-2.407-4.484-3.657zm-3.104 18.722c-1.553.126-3.135.188-4.744.188 0-.188-.029-.499-.086-.938-.058-.375-.116-.656-.173-.844 4.658-.124 8.51-.343 11.558-.656l.346 1.781c-1.553.188-3.191.313-4.917.375v2.813h6.556v1.781h-6.556v2.813h5.521v1.781h-12.766v-1.781h5.262v-2.813h-6.124v-1.781h6.124v-2.719h-.001zm-2.847 87.217v-13.875h2.329v13.875h-2.329zm5.951-109.033c1.208-1.749 2.07-3.874 2.588-6.375h-5.089c.518 2.501 1.351 4.626 2.501 6.375zM37.013 16.57c-.945 1.406-2.035 2.695-3.27 3.867-.218-.234-.545-.546-.98-.938l-.763-.82c2.106-1.796 3.741-4.023 4.904-6.68l2.507.234c-.292.782-.654 1.523-1.09 2.227h7.193v2.109h-5.013c.654.782 1.308 1.603 1.961 2.461l-2.18.82c-.291-.469-.8-1.172-1.525-2.109-.365-.469-.618-.82-.763-1.055l.109-.117h-1.09v.001zm9.482 10.782v2.578h10.79c0 1.875-.073 3.438-.218 4.688-.073 2.344-1.381 3.516-3.923 3.516h-3.706v-.352c-.073-.469-.218-1.093-.436-1.875 1.09.079 2.325.117 3.706.117 1.162.079 1.815-.469 1.962-1.641v-.938c.071-.624.109-1.055.109-1.289h-8.283v8.203h-2.507v-7.266c-2.397 2.892-5.958 5.116-10.68 6.68-.146-.234-.4-.665-.763-1.289-.218-.469-.4-.82-.545-1.055 4.504-1.172 7.81-2.93 9.917-5.273h-8.064l1.09-7.031h9.045v-2.695h-9.373v-2.227h21.361v7.148h-9.482zm-9.372 0l-.436 2.578h7.302v-2.578h-6.866zm11.77-10.782c-.727 1.017-1.526 2.071-2.397 3.164-.509-.546-1.127-1.055-1.853-1.523 1.671-1.875 2.943-3.944 3.814-6.211l2.616.234c-.291.782-.618 1.523-.981 2.227h8.065v2.109h-5.667l2.071 2.461-2.071.82-.436-.469c-.945-1.172-1.635-2.069-2.071-2.695l.218-.117h-1.308zm4.686 5.86h-7.084v2.695h7.084v-2.695zm9.462 17.812v-26.133h23.432v26.133h-2.615v-1.875h-18.202v1.875h-2.615zm16.674-9.492c-2.253.079-3.343-1.055-3.27-3.398v-10.664h-3.705v5.391c.218 4.376-1.417 7.931-4.904 10.664-.583-.624-1.199-1.249-1.853-1.875 3.123-2.344 4.577-5.351 4.359-9.023v-5.156h-4.687v19.453h18.201v-19.454h-4.904v9.727c-.073 1.251.507 1.837 1.744 1.758h2.833c0 .313-.073.743-.218 1.289-.073.548-.146.978-.218 1.289h-3.378zm12.722-14.18v-2.578h22.777v2.578h-10.026c0 1.641-.073 3.867-.218 6.68h11.771v2.695h-11.226c1.234 5.625 5.049 9.298 11.443 11.016-.073.155-.218.39-.437.703l-1.09 2.109c-6.467-2.267-10.354-6.015-11.661-11.25-1.09 4.845-4.833 8.71-11.225 11.602-.146-.234-.436-.665-.872-1.289-.364-.548-.654-.978-.872-1.289 6.757-2.655 10.462-6.522 11.116-11.602h-11.006v-2.695h11.334c.071-.703.109-1.835.109-3.398.071-1.406.109-2.499.109-3.281h-10.026zM138.141 33.484c.146-2.031 1.114-3.385 2.906-4.063-1.453-.729-2.229-1.9-2.324-3.516.192-2.656 1.646-4.063 4.359-4.219 2.615.209 4.043 1.615 4.286 4.219-.098 1.667-.824 2.839-2.18 3.516 1.792.729 2.736 2.136 2.834 4.219-.146 2.656-1.793 4.036-4.94 4.141-3.197-.104-4.844-1.536-4.941-4.297zm8.211.157c-.146-2.291-1.261-3.489-3.343-3.594-1.938.104-3.004 1.25-3.196 3.438.192 1.875 1.282 2.891 3.27 3.047 1.985-.157 3.075-1.12 3.269-2.891zm-.727-7.735c-.146-1.719-.994-2.656-2.543-2.813-1.599.104-2.471.99-2.616 2.656.048 1.928.92 2.943 2.616 3.047 1.598-.051 2.446-1.015 2.543-2.89zm8.064 7.11c-.243 2.136-1.09 4.192-2.543 6.172-.339-.365-.848-.859-1.525-1.484 1.064-1.146 1.768-2.369 2.106-3.672.339-1.302.509-3.307.509-6.016v-6.719h12.279v14.453c.048 1.979-.872 2.969-2.761 2.969-.631.052-1.575.078-2.834.078-.146-.573-.291-1.225-.436-1.953.678.052 1.598.078 2.761.078 1.064.052 1.573-.442 1.525-1.484v-2.422h-9.081zm.291-4.844c0 1.198-.049 2.266-.146 3.203h8.937v-3.359h-8.791v.156zm0-5.156v3.281h8.791v-3.281h-8.791zm23.544 14.375v-1.328h-7.629c.629-1.354 1.937-2.813 3.924-4.375 2.566-1.875 3.777-3.828 3.633-5.859-.194-2.656-1.647-4.036-4.359-4.141-2.374-.052-3.973 1.198-4.796 3.75l1.453.781c.532-1.927 1.55-2.942 3.052-3.047 1.937.053 2.93 1.016 2.979 2.891.048 1.406-1.017 2.969-3.196 4.688-2.132 1.667-3.658 3.542-4.577 5.625v1.016h9.516zm3.561 1.562v-17.344h13.15v17.344h-1.743v-1.328h-9.591v1.328h-1.816zm1.817-15.625v5.391h9.591v-5.391h-9.591zm0 7.11v5.547h9.591v-5.547h-9.591z"/></svg>