<svg xmlns="http://www.w3.org/2000/svg" width="640" height="80" viewBox="0 0 640 80"><path fill="#E4E193" d="M54.119 71.501v-13.751l-1.046.376c-.93.334-1.627.625-2.093.874-.232-.831-.621-1.665-1.162-2.5 4.572-1.25 8.253-3.04 11.043-5.374h-10.23v-2.25h11.974v-3.125c-1.24.083-2.597.125-4.068.125h-5.464c-.078-.916-.194-1.666-.349-2.251 5.656 0 12.942-.249 21.855-.749l.349 2.25c-1.938.168-5.193.334-9.765.5v3.25h11.974v2.25h-10.23c2.401 2.168 6.045 3.834 10.928 5-.465.918-.854 1.75-1.163 2.5-5.348-1.667-9.184-3.791-11.509-6.376v4.376h-2.558v-4.376c-2.17 2.251-4.922 4.044-8.253 5.376h19.181v13.875h-2.558v-1.25h-14.299v1.25h-2.557zm2.557-11.625v3.125h14.299v-3.125h-14.299zm0 5.125v3h14.299v-3h-14.299zm28.218-8.375c-.389-.416-.93-1.083-1.627-2.001-1.008-1.165-1.784-2.082-2.325-2.749l2.093-1.5c1.395 1.418 2.79 2.958 4.185 4.625l-2.326 1.625zm.814 7.75c-.622 3.25-1.086 5.625-1.395 7.125l-2.79-.875c.93-3.416 1.782-7.25 2.558-11.5.387.167.968.375 1.744.625.387.084.657.167.813.25-.157.834-.465 2.292-.93 4.375zm0-15.875c-1.241-1.666-2.52-3.25-3.836-4.75l2.209-1.5c.309.334.735.834 1.279 1.5 1.162 1.25 2.052 2.293 2.673 3.125l-2.325 1.625zm3.255-1v-2.375h3.72v-3.376h2.441v3.376h5.58v-3.376h2.558v3.376h4.417v2.375h-4.417v3.75h5.464v2.375h-5.929c1.549 2.584 3.68 4.583 6.394 5.999l-.349.751c-.232.334-.543.918-.93 1.75-1.86-1.25-3.371-2.541-4.534-3.875v6.624h-10.114v1.626c-.078 1.334.541 1.957 1.86 1.875h7.44c1.317 0 2.131-.501 2.441-1.5.232-.667.387-1.666.465-3.001.232.085.542.209.93.375l1.395.376c-.156 1.25-.389 2.374-.698 3.375-.389 1.915-1.744 2.831-4.068 2.75h-8.835c-2.249 0-3.372-1.168-3.372-3.501v-6.999c-.93.918-1.938 1.749-3.022 2.5-.311-.832-.697-1.666-1.163-2.5 2.79-1.75 4.959-3.957 6.51-6.625h-5.464v-2.375h4.999v-3.75h-3.719zm4.301 11.875v3.375h7.672v-3.375h-7.672zm2.558-5.75c-.698 1.25-1.473 2.418-2.325 3.499h8.951c-.775-1.081-1.511-2.249-2.208-3.499h-4.418zm-.698-6.125v3.75h5.58v-3.75h-5.58zm34.272 10.5v-2.5h-16.159v2.5h16.159zm3.82-11.125v-2.375h12.787l-.697-2.625 3.022-.25.697 2.875h12.207v2.375h-28.016zm1.512 24.5v-14.125h25.11v10.375c.076 2.332-1.046 3.541-3.371 3.625h-4.069c-.078-.25-.194-.709-.349-1.375-.078-.5-.156-.875-.232-1.125h3.255c1.471.081 2.168-.459 2.092-1.625v-7.625h-19.879v11.875h-2.557zm3.022-16.126v-6.374h19.065v6.374h-19.065zm2.557-4.374v2.375h13.834v-2.375h-13.834zm.582 17.125v-6.375h12.788v6.375h-12.788zm2.441-4.5v2.75h7.789v-2.75h-7.789zm21.475-14.251v-2.499h3.72c0-.082.038-.25.116-.5.233-1.833.387-3.291.465-4.375l2.557.25c-.232 1.584-.465 3.125-.697 4.625h4.65v2.499h-5.231c-.854 4.25-2.52 8.626-4.999 13.125-.232-.749-.581-1.79-1.046-3.124 1.628-3 2.828-6.332 3.604-10.001h-3.139zm3.72 19.376c-.775.166-1.511.291-2.208.375l-.93-1.875c.698-.582 1.239-1.375 1.627-2.375 1.471-3.167 2.866-7.001 4.185-11.5l2.325.749c-1.784 5.169-3.372 9.335-4.767 12.501.62-.082 1.628-.166 3.023-.25.697-.082 1.2-.125 1.511-.125-.465-1.583-.97-3.25-1.511-5.001l1.976-.625c.387 1.169.89 2.71 1.511 4.626.541 1.834 1.006 3.25 1.395 4.25l-2.093.75-.581-2.125c-.621.082-1.511.206-2.674.375-1.162.082-2.091.166-2.789.25zm8.719 3v-18.751c-.621 1.084-1.279 2.126-1.976 3.126-.232-.917-.621-1.876-1.163-2.875 2.401-3.082 4.185-6.875 5.348-11.376l2.558.501c-.543 1.75-1.125 3.375-1.744 4.875h5.231c-.621-1.582-1.279-3.082-1.976-4.5l2.325-.625c.309.667.698 1.543 1.163 2.625.387.749.658 1.334.814 1.75l-2.209.75h6.51v2.375h-5.348v4.25h4.882v2.375h-4.882v4.374h4.882v2.251h-4.882v4.499h5.58v2.126h-12.671v2.25h-2.442zm2.441-22.125v4.25h4.766v-4.25h-4.766zm0 6.625v4.374h4.766v-4.374h-4.766zm0 6.625v4.499h4.766v-4.499h-4.766zm33.11-4.75v-2.5h-16.159v2.5h16.159zm8.111 13.5v-13.751l-1.046.376c-.93.334-1.627.625-2.093.874-.232-.831-.621-1.665-1.163-2.5 4.572-1.25 8.254-3.04 11.044-5.374h-10.23v-2.25h11.974v-3.125c-1.24.083-2.597.125-4.069.125h-5.463c-.078-.916-.194-1.666-.349-2.251 5.657 0 12.942-.249 21.855-.749l.349 2.25c-1.938.168-5.193.334-9.765.5v3.25h11.974v2.25h-10.23c2.401 2.168 6.045 3.834 10.928 5-.465.918-.854 1.75-1.163 2.5-5.348-1.667-9.184-3.791-11.509-6.376v4.376h-2.558v-4.376c-2.17 2.251-4.922 4.044-8.253 5.376h19.181v13.875h-2.558v-1.25h-14.299v1.25h-2.557zm2.557-11.625v3.125h14.299v-3.125h-14.299zm0 5.125v3h14.299v-3h-14.299zm28.228-8.375c-.389-.416-.93-1.082-1.627-2-1.008-1.166-1.784-2.082-2.325-2.75l2.093-1.5c1.395 1.418 2.79 2.959 4.185 4.625l-2.326 1.625zm.814 7.75c-.622 3.25-1.086 5.625-1.395 7.125l-2.79-.875c.93-3.416 1.782-7.25 2.558-11.5.387.168.968.375 1.744.625.387.084.657.168.813.25-.157.834-.465 2.293-.93 4.375zm0-15.875c-1.241-1.666-2.52-3.25-3.836-4.75l2.209-1.5c.309.334.735.834 1.278 1.5 1.163 1.25 2.053 2.293 2.674 3.125l-2.325 1.625zm3.255-1v-2.375h3.72v-3.375h2.441v3.375h5.58v-3.375h2.558v3.375h4.417v2.375h-4.417v3.75h5.464v2.375h-5.929c1.55 2.584 3.68 4.584 6.394 6l-.349.75c-.233.334-.543.918-.93 1.75-1.86-1.25-3.371-2.541-4.534-3.875v6.625h-10.114v1.625c-.078 1.334.541 1.957 1.86 1.875h7.44c1.317 0 2.131-.5 2.441-1.5.232-.666.387-1.666.465-3 .232.084.542.209.93.375l1.395.375c-.156 1.25-.389 2.375-.698 3.375-.389 1.916-1.744 2.832-4.068 2.75h-8.835c-2.249 0-3.372-1.168-3.372-3.5v-7c-.93.918-1.938 1.75-3.022 2.5-.311-.832-.697-1.666-1.163-2.5 2.79-1.75 4.959-3.957 6.51-6.625h-5.464v-2.375h4.999v-3.75h-3.719zm4.301 11.875v3.375h7.672v-3.375h-7.672zm2.558-5.75c-.698 1.25-1.473 2.418-2.325 3.5h8.951c-.775-1.082-1.511-2.25-2.208-3.5h-4.418zm-.698-6.125v3.75h5.58v-3.75h-5.58z"/><path fill="#F0ED97" d="M51.398 17.906c-.117-.062-.262-.218-.436-.469-1.105-.999-1.948-1.781-2.528-2.344l1.133-1.313c.988.876 1.976 1.781 2.964 2.719l-1.133 1.407zm-.087 8.437c-.292 1.437-.523 2.499-.697 3.188l-1.657-.563c.698-2.438 1.336-5.25 1.918-8.438.175.063.465.188.872.375.29.126.552.22.785.281-.233 1.002-.64 2.72-1.221 5.157zm.61-14.625c-.466-.5-1.133-1.156-2.005-1.969-.349-.312-.61-.563-.785-.75l1.134-1.219c.523.438 1.278 1.125 2.267 2.063l.523.563-1.134 1.312zm1.221 1.313v-1.594h3.487c-.117-.563-.378-1.5-.785-2.813-.117-.437-.204-.75-.261-.938l1.656-.281c.349 1 .698 2.25 1.046 3.75l-.959.281h3.226v1.594h-4.272c0 1.313-.03 2.531-.087 3.656h4.01v1.031c-.117 3.938-.233 6.813-.349 8.625 0 1.812-.814 2.719-2.441 2.719h-1.569l-.261-1.688c.29.062.61.062.959 0h.349c1.046.062 1.54-.375 1.482-1.313 0-.437.028-1.125.087-2.063.116-2.687.174-4.594.174-5.719h-2.528v.656c-.117 4.75-1.018 8.344-2.703 10.781-.292-.313-.728-.719-1.308-1.219 1.569-2.187 2.412-5.405 2.529-9.656.057-1.625.087-3.563.087-5.813h-1.569zm9.852-.281c-.697 1.375-1.279 2.407-1.744 3.094-.292-.312-.728-.718-1.308-1.219 1.452-2.063 2.616-4.531 3.487-7.406l1.658.281c-.349 1.063-.698 2.063-1.046 3h5.667v1.594h-6.364c-.059.125-.176.344-.35.656zm-2.005 9.187v-1.594h3.662v-1.406l2.616-2.813h-5.231v-1.594h6.975v1.781l-2.703 3.094v.938h3.4v1.594h-3.4v4.781c.057 1.688-.756 2.531-2.441 2.531-.466.062-1.221.094-2.267.094 0-.188-.059-.532-.174-1.031-.059-.313-.087-.563-.087-.75.406.062 1.104.094 2.092.094.872.062 1.278-.375 1.221-1.313v-4.406h-3.663zm11.231-9.656v-1.688h2.528c.057-.249.174-.656.349-1.219.231-.938.377-1.625.436-2.063l1.744.189-.872 3.094h4.534v1.688h-4.97c-.93 3-1.569 5.095-1.918 6.281h2.703v-4.781h1.482v4.781h2.441v1.594h-2.441v3.188h.261c.755-.062 1.569-.188 2.441-.375 0 .625-.03 1.188-.087 1.688l-2.615.375v4.688h-1.656v-4.5c-1.569.188-3.052.375-4.447.563l-.175-1.784 4.621-.469v-3.375h-4.098v-1.688c.174-.624.464-1.562.872-2.813.465-1.5.785-2.625.959-3.375h-2.092zm21.1 2.625c-.292.438-.61 1-.959 1.688-2.5-1.812-4.359-3.999-5.58-6.563-1.338 2.438-3.285 4.688-5.842 6.75-.407-.75-.728-1.28-.959-1.594 2.847-2.187 4.939-4.843 6.277-7.969l1.744.282c-.117.313-.261.625-.436.938 1.511 2.875 3.429 5.031 5.755 6.468zm-7.76 14.156c-2.036.062-3.023-.97-2.964-3.094v-9.656h1.656v4.5c2.093-1.187 3.981-2.531 5.667-4.031l1.046 1.313c-1.744 1.563-3.982 3.126-6.713 4.688v2.813c-.117 1.251.493 1.812 1.831 1.688h2.18c1.221.062 1.888-.469 2.005-1.594.174-1.062.29-2.156.349-3.281.581.25 1.133.438 1.657.563-.174 1.375-.349 2.594-.523 3.656-.349 1.625-1.425 2.438-3.226 2.438h-2.965zm10.795-6.375c.754-.812.667-.75-.262.188-.174-.563-.407-1.187-.698-1.875 2.034-1.812 3.981-4.343 5.842-7.594l1.569 1.031c-.466.75-1.105 1.75-1.918 3-.175.188-.292.344-.349.469v11.813h-1.744v-9.563c-.522.562-1.337 1.406-2.44 2.531zm6.365-14.25c-1.802 2.438-3.808 4.657-6.016 6.656-.407-.875-.698-1.468-.872-1.781 2.15-1.875 3.923-3.875 5.318-6l1.57 1.125zm.697 9.375v-1.875h13.165v1.875h-3.923v8.25c.116 2.124-.902 3.188-3.051 3.188-.931.062-2.005.094-3.226.094-.059-.188-.117-.469-.174-.844l-.262-1.125h3.052c1.336.062 1.947-.469 1.831-1.594v-7.969h-7.412zm1.221-7.031v-1.875h10.898v1.875h-10.898zm14.457 5.062v-1.688h3.052v-3.75l-2.703.094c-.059-.624-.146-1.156-.261-1.594 2.267-.062 4.678-.249 7.236-.563l.262 1.594c-.815.126-1.774.25-2.877.375v3.844h2.79v1.688h-2.79v2.813l.436-.469.174.188c1.221 1.188 2.121 2.032 2.703 2.531l-1.046 1.406c-.233-.249-.582-.656-1.046-1.219l-1.221-1.313v9.938h-1.656v-10.125c-.698 2.188-1.6 4.125-2.703 5.813 0-.062-.03-.155-.087-.281-.233-.75-.466-1.28-.698-1.594 1.511-2.063 2.673-4.625 3.488-7.688h-3.053zm8.022 3.375v-1.594h12.293v1.594h-5.319v3.188h4.795v1.5h-4.795v3.188h6.016v1.5h-14.037v-1.5h6.277v-3.188h-4.795v-1.5h4.795v-3.188h-5.23zm.871-3.937v-6.656h10.55v6.656h-10.55zm1.657-5.063v3.469h7.236v-3.469h-7.236z"/><path fill-rule="evenodd" clip-rule="evenodd" fill="#FFFB97" d="M32 7h10v66h-10z"/></svg>