<?xml version="1.0" encoding="utf-8"?>
<!-- Generator: Adobe Illustrator 16.0.0, SVG Export Plug-In . SVG Version: 6.00 Build 0)  -->
<!DOCTYPE svg PUBLIC "-//W3C//DTD SVG 1.1//EN" "http://www.w3.org/Graphics/SVG/1.1/DTD/svg11.dtd">
<svg version="1.1" id="图层_1" xmlns="http://www.w3.org/2000/svg" xmlns:xlink="http://www.w3.org/1999/xlink" x="0px" y="0px"
	 width="640px" height="750px" viewBox="0 0 640 750" enable-background="new 0 0 640 750" xml:space="preserve">
<g display="none">
	<g display="inline">
		<g>
			<g>
				<defs>
					<rect id="SVGID_1_" width="640" height="750"/>
				</defs>
				<clipPath id="SVGID_2_">
					<use xlink:href="#SVGID_1_"  overflow="visible"/>
				</clipPath>
			</g>
		</g>
	</g>
</g>
<path fill="#12B4B1" d="M89,717"/>
<g>
	<path fill="#9DDFFE" d="M89,501h316c2.761,0,5,2.237,5,5v91c0,2.761-2.239,5-5,5H89c-2.76,0-5-2.239-5-5v-91
		C84,503.237,86.24,501,89,501z"/>
	<path fill="#12B4B1" d="M89,601c-2.206,0-4-1.794-4-4v-91c0-2.206,1.794-4,4-4h316c2.206,0,4,1.794,4,4v91c0,2.206-1.794,4-4,4H89"
		/>
	<path fill="#41C4BA" d="M89,502c-1.854,0-3.403,1.273-3.854,2.988L85,505v1v91v1l0.146,0.012c0.452,1.715,2,2.988,3.854,2.988
		h32.654L219,502H89z"/>
	<path fill="#36C6C2" d="M141,502h263c2.206,0,4,1.794,4,4v53L141,502z"/>
	<path fill="#9EFFFD" d="M321.627,572.938h-2.844v4.979h-2.031v-4.979h-9.344v-1.219l9.75-14.422h1.625v13.813h2.844V572.938z
		 M316.346,561.562c-1.084,1.423-3.25,4.604-6.5,9.548h6.906v-10.461c0,0.065-0.068,0.2-0.203,0.403
		C316.48,561.258,316.412,561.428,316.346,561.562L316.346,561.562z M325.766,578.016v-20.211h6.808v18.688h-4.979v1.521
		L325.766,578.016L325.766,578.016z M327.594,559.531v6.602h3.354v-6.602H327.594z M327.594,574.664h3.354v-6.703h-3.354V574.664z
		 M334.602,571.008v-7.516c-0.271-0.338-0.574-0.646-0.914-0.914c2.304-2.166,3.963-4.469,4.979-6.906l2.031,0.305
		c-0.406,0.681-0.779,1.392-1.117,2.136h6.297v1.727l-2.539,3.354h4.772v7.817h-6.702c-0.813,3.589-3.453,6.604-7.923,9.039
		c-0.608-0.812-1.053-1.389-1.319-1.727c4.129-2.031,6.603-4.472,7.414-7.313L334.602,571.008L334.602,571.008z M338.461,559.836
		c-0.812,1.219-1.693,2.336-2.641,3.352h5.383l2.539-3.352H338.461z M340.086,568.875c0.271-1.083,0.406-2.438,0.406-4.062h-4.062
		v4.471h3.557L340.086,568.875z M343.945,579.438c-1.896,0.066-2.812-0.776-2.742-2.536v-5.078h1.828v4.771
		c-0.068,0.744,0.371,1.117,1.318,1.117h1.625c0.946,0.066,1.487-0.34,1.625-1.219c0.065-0.271,0.137-0.778,0.202-1.523
		c0.066-0.474,0.104-0.812,0.104-1.016c0.473,0.203,1.016,0.406,1.625,0.607c0,0.067,0,0.138,0,0.202
		c-0.139,1.151-0.271,1.933-0.406,2.336c-0.271,1.625-1.219,2.402-2.844,2.337L343.945,579.438L343.945,579.438z M342.32,564.812
		c-0.139,1.826-0.271,3.25-0.406,4.267c-0.068,0.067-0.102,0.136-0.102,0.203h4.469v-4.47H342.32L342.32,564.812z M359.773,564.406
		c-1.49,0-2.847,0.508-4.063,1.521l0.608-6.192h8.732v-2.031H354.59l-1.219,10.664l1.523,0.305c0.879-1.422,2.367-2.166,4.469-2.234
		c2.844,0.139,4.332,1.764,4.469,4.875c-0.137,3.318-1.66,5.048-4.57,5.183c-2.572-0.067-4.062-1.523-4.469-4.367l-2.234,0.609
		c0.744,3.653,3.049,5.481,6.906,5.481c4.268-0.137,6.465-2.505,6.604-7.106C365.799,566.844,363.699,564.609,359.773,564.406
		L359.773,564.406z M370.725,559.227v-2.028h21.328v2.028h-9.646c0,2.709-0.035,4.74-0.104,6.097h11.07v2.028h-10.664
		c1.15,5.217,4.773,8.603,10.867,10.156c-0.271,0.338-0.576,0.777-0.914,1.32c-0.203,0.338-0.34,0.574-0.406,0.711
		c-6.094-2.031-9.75-5.484-10.969-10.359c-0.881,4.537-4.438,8.09-10.664,10.664c-0.543-0.812-1.016-1.422-1.422-1.828
		c6.432-2.569,9.986-6.127,10.664-10.664h-10.563v-2.028h10.769c0.135-2.369,0.203-4.4,0.203-6.097H370.725z"/>
	<path fill="#FFFFFF" d="M109.064,545.776V533.4c-0.392,0.078-0.978,0.271-1.758,0.584c-0.469,0.154-0.821,0.271-1.055,0.351
		c-0.158-0.389-0.431-0.973-0.821-1.752c-0.234-0.543-0.431-0.972-0.586-1.284c4.532-1.011,8.089-2.411,10.668-4.203h-9.73v-2.685
		h11.724v-2.335c-2.424,0-4.261,0-5.51,0c-1.407,0-2.696,0.04-3.869,0.116c-0.079-1.014-0.234-1.906-0.469-2.688
		c7.893,0,15.357-0.23,22.392-0.7l0.469,2.805c-3.048,0.077-6.292,0.192-9.73,0.351v2.452h11.724v2.685h-9.848
		c2.579,1.792,6.096,3.114,10.551,3.973c-0.079,0.23-0.234,0.546-0.469,0.935c-0.158,0.39-0.431,1.051-0.821,1.984
		c-0.469-0.076-1.055-0.233-1.758-0.47c-0.392-0.152-0.704-0.271-0.938-0.351v12.609h-3.4v-1.168h-13.481v1.168H109.064
		L109.064,545.776z M109.885,568.449c0,5.604,1.953,10.741,5.861,15.411h-3.751c-3.83-4.518-5.785-9.69-5.861-15.528
		c0.234-6.07,2.187-11.324,5.861-15.761h3.751C111.995,557.396,110.041,562.69,109.885,568.449L109.885,568.449z M117.505,531.883
		v-3.269c-1.799,1.558-4.104,2.958-6.917,4.202h17.468c-2.971-1.092-5.393-2.528-7.269-4.319v3.386H117.505L117.505,531.883z
		 M112.347,535.386v2.335h13.481v-2.335H112.347z M112.347,539.938v2.338h13.481v-2.338H112.347z M118.331,558.175v-2.565h11.606
		v-1.751h3.634v1.751h11.724v2.565h-11.724v1.635h8.792v14.479h3.634v2.451h-17.585l1.407,2.219
		c-3.206,1.089-6.526,2.062-9.965,2.918c-0.469-1.167-0.938-2.101-1.407-2.802c0.546-0.156,1.328-0.312,2.345-0.467
		c3.359-0.7,5.9-1.322,7.62-1.868h-10.785v-2.451h3.517V559.81h8.792v-1.635H118.331z M124.661,562.027v1.635h14.303v-1.635H124.661
		z M124.661,565.53v1.635h14.303v-1.635H124.661z M124.661,569.149v1.518h14.303v-1.518H124.661z M124.661,572.652v1.635h14.303
		v-1.635H124.661z M144.005,581.875c-2.893-0.934-6.331-1.946-10.317-3.035l1.172-2.102c1.172,0.23,2.891,0.624,5.158,1.168
		c2.266,0.467,3.946,0.814,5.042,1.051L144.005,581.875z M138.371,532.467c-1.33-1.945-2.502-3.579-3.517-4.9l2.813-1.521
		c1.249,1.401,2.5,2.959,3.751,4.67L138.371,532.467z M142.474,537.604c-0.235,0.233-0.431,0.394-0.586,0.47
		c-0.392-0.855-0.665-1.559-0.82-2.104c-0.392,1.562-0.979,4.049-1.759,7.476c-0.234,1.011-0.392,1.789-0.469,2.335l-3.517-0.938
		c0.938-3.035,1.797-6.497,2.579-10.391c0.859,0.391,1.797,0.701,2.813,0.935l-0.117-0.468c2.656-1.479,4.728-3.307,6.213-5.487
		h-5.275v-2.802h4.807v-2.919h-3.634v-2.802h3.634v-2.919h3.165v2.919h5.041v-2.919h3.166v2.919h4.103v2.802h-4.103v2.919h5.158
		v2.802h-5.51c1.407,2.104,3.4,3.698,5.979,4.787l-1.407,3.035c-1.72-0.934-3.165-1.944-4.337-3.035v5.604h-10.082v1.051
		c0,1.091,0.586,1.634,1.758,1.634h7.269c1.249,0,1.993-0.467,2.228-1.397c0-0.155,0.038-0.392,0.117-0.701
		c0-0.233,0.117-0.937,0.352-2.104c0.938,0.394,1.914,0.701,2.931,0.938c-0.234,1.479-0.469,2.565-0.703,3.269
		c-0.469,1.79-1.916,2.688-4.338,2.688h-9.027c-2.345,0-3.557-1.13-3.634-3.389v-5.721
		C143.998,536.477,143.333,536.981,142.474,537.604L142.474,537.604z M139.074,524.645c-0.392-0.619-0.978-1.518-1.758-2.686
		c-0.704-0.934-1.251-1.673-1.642-2.219l2.931-1.521l3.634,4.67L139.074,524.645z M147.515,534.802v2.568h7.034v-2.568H147.515z
		 M148.458,574.521v-2.688h11.254c0-0.077,0-0.155,0-0.233c0.156-0.389,0.234-0.854,0.234-1.398h3.634c0,0.157,0,0.391,0,0.701
		c-0.079,0.39-0.117,0.697-0.117,0.934h11.724v2.688h-11.254c1.483,2.258,5.47,3.542,11.958,3.853
		c-0.234,0.389-0.586,1.051-1.055,1.984c-0.234,0.544-0.43,0.935-0.586,1.168c-6.254-0.624-10.396-2.22-12.427-4.787
		c-1.72,2.335-5.979,4.087-12.778,5.254c-0.392-1.091-0.899-2.218-1.524-3.386c6.721-0.392,10.551-1.751,11.489-4.086
		L148.458,574.521L148.458,574.521z M148.692,559.927v-2.803h6.799l-2.11-2.802l3.634-0.7c0.859,1.012,1.718,2.142,2.579,3.386
		l-0.469,0.116h4.924c0.077-0.155,0.234-0.389,0.469-0.7c1.094-1.398,1.759-2.335,1.993-2.802l3.751,0.7
		c-0.235,0.391-0.704,1.013-1.407,1.868c-0.313,0.391-0.548,0.697-0.704,0.934h6.682v2.803h-11.372v1.984h9.965v2.686h-9.965v2.104
		h12.075v2.685h-27.55V566.7h11.958v-2.104h-9.73v-2.686h9.73v-1.984L148.692,559.927L148.692,559.927z M150.211,529.431
		c-0.626,1.016-1.29,1.947-1.993,2.806h7.62c-0.703-0.855-1.33-1.79-1.875-2.806H150.211z M149.508,523.71v2.919h5.041v-2.919
		H149.508z M165.801,530.599h17.116v2.919h-17.116V530.599z M181.046,568.332c-1.33-1.944-2.502-3.579-3.517-4.903l2.813-1.518
		c1.249,1.398,2.5,2.959,3.751,4.67L181.046,568.332z M185.15,573.47c-0.235,0.233-0.431,0.393-0.586,0.467
		c-0.392-0.854-0.665-1.557-0.82-2.102c-0.392,1.558-0.979,4.048-1.759,7.472c-0.234,1.014-0.392,1.79-0.469,2.335l-3.517-0.934
		c0.938-3.035,1.797-6.498,2.579-10.391c0.859,0.39,1.797,0.697,2.813,0.934l-0.117-0.467c2.656-1.479,4.728-3.311,6.213-5.487
		h-5.275v-2.802h4.807v-2.919h-3.634v-2.802h3.634v-2.919h3.165v2.919h5.041v-2.919h3.166v2.919h4.103v2.802h-4.103v2.919h5.158
		v2.802h-5.51c1.407,2.104,3.4,3.697,5.979,4.787l-1.407,3.035c-1.72-0.937-3.165-1.944-4.337-3.035v5.604h-10.082v1.054
		c0,1.091,0.586,1.635,1.758,1.635h7.269c1.249,0,1.993-0.467,2.229-1.401c0-0.152,0.038-0.389,0.117-0.697
		c0-0.233,0.117-0.937,0.352-2.104c0.938,0.394,1.914,0.7,2.931,0.937c-0.234,1.479-0.469,2.566-0.703,3.27
		c-0.469,1.789-1.916,2.686-4.338,2.686h-9.027c-2.345,0-3.557-1.13-3.634-3.386v-5.722
		C186.674,572.342,186.009,572.848,185.15,573.47L185.15,573.47z M181.75,560.51c-0.392-0.622-0.978-1.518-1.758-2.685
		c-0.704-0.938-1.251-1.673-1.642-2.219l2.931-1.521l3.634,4.67L181.75,560.51z M185.733,543.908v-3.503h27.901v3.503H185.733z
		 M187.491,523.943v-3.619h24.268v3.619H187.491z M188.898,533.634v-3.502h21.571v3.502H188.898z M190.191,570.667v2.569h7.034
		v-2.569H190.191z M192.887,565.297c-0.626,1.013-1.29,1.946-1.993,2.802h7.62c-0.703-0.854-1.33-1.789-1.875-2.802H192.887z
		 M192.184,559.576v2.919h5.041v-2.919H192.184z M217.622,568.332c-0.079,5.838-2.072,10.975-5.979,15.411h-3.751
		c3.986-4.518,5.979-9.649,5.979-15.411c-0.158-5.759-2.11-11.051-5.862-15.878h3.634
		C215.394,556.969,217.387,562.262,217.622,568.332L217.622,568.332z M216.329,522.893v-3.386h26.612v3.386h-7.738v18.447h8.441
		v3.152h-27.901v-3.152h8.324v-18.447H216.329z M220.549,538.304c-1.564-4.276-3.01-8.132-4.338-11.558l2.931-1.051
		c1.953,4.515,3.477,8.289,4.572,11.321L220.549,538.304z M221.143,566.465h17.116v2.918h-17.116V566.465z M227.583,522.893v18.447
		h4.104v-18.447H227.583z M242.354,529.197c-1.875,4.357-3.244,7.396-4.103,9.104l-2.931-1.397c1.483-3.19,3.086-6.966,4.806-11.325
		l3.166,1.284C243.058,527.408,242.745,528.188,242.354,529.197L242.354,529.197z M244.934,581.642v-12.375
		c-0.392,0.078-0.978,0.273-1.758,0.584c-0.469,0.156-0.821,0.273-1.055,0.353c-0.158-0.389-0.431-0.975-0.821-1.751
		c-0.234-0.544-0.431-0.976-0.586-1.284c4.532-1.011,8.089-2.412,10.668-4.203h-9.73v-2.686h11.724v-2.335c-2.423,0-4.261,0-5.51,0
		c-1.407,0-2.696,0.04-3.869,0.114c-0.079-1.011-0.234-1.903-0.469-2.686c7.893,0,15.357-0.232,22.392-0.7l0.469,2.802
		c-3.048,0.078-6.292,0.195-9.73,0.354v2.451h11.724v2.686h-9.848c2.579,1.791,6.096,3.114,10.551,3.97
		c-0.079,0.233-0.234,0.546-0.469,0.937c-0.158,0.391-0.431,1.051-0.821,1.984c-0.469-0.076-1.055-0.233-1.758-0.47
		c-0.392-0.151-0.704-0.271-0.938-0.35v12.605h-3.4v-1.167h-13.481v1.167H244.934L244.934,581.642z M246.348,530.599h17.116v2.919
		h-17.116V530.599z M253.375,567.749v-3.271c-1.799,1.559-4.104,2.959-6.917,4.201h17.468c-2.971-1.089-5.393-2.525-7.269-4.316
		v3.386H253.375z M248.216,571.251v2.335h13.481v-2.335H248.216z M248.216,575.805v2.335h13.481v-2.335H248.216z M269.67,539.705
		c-0.235,2.102-0.821,4.163-1.759,6.188c-0.469-0.545-1.251-1.359-2.345-2.448c0.78-1.479,1.29-3.152,1.524-5.021
		c0.234-1.79,0.352-4.862,0.352-9.224v-10.741h2.696v11.092C270.139,534.296,269.981,537.682,269.67,539.705L269.67,539.705z
		 M274.25,568.332c-1.33-1.944-2.502-3.579-3.517-4.903l2.813-1.518c1.249,1.398,2.5,2.959,3.751,4.67L274.25,568.332z
		 M278.353,573.47c-0.235,0.233-0.431,0.393-0.586,0.467c-0.392-0.854-0.665-1.557-0.82-2.102c-0.392,1.558-0.979,4.048-1.759,7.472
		c-0.234,1.014-0.392,1.79-0.469,2.335l-3.517-0.934c0.938-3.035,1.797-6.498,2.579-10.391c0.859,0.39,1.797,0.697,2.812,0.934
		l-0.117-0.467c2.656-1.479,4.728-3.311,6.213-5.487h-5.275v-2.802h4.807v-2.919h-3.634v-2.802h3.634v-2.919h3.165v2.919h5.041
		v-2.919h3.166v2.919h4.104v2.802h-4.104v2.919h5.158v2.802h-5.51c1.407,2.104,3.4,3.697,5.979,4.787l-1.407,3.035
		c-1.72-0.937-3.165-1.944-4.337-3.035v5.604h-10.082v1.054c0,1.091,0.586,1.635,1.758,1.635h7.269c1.249,0,1.993-0.467,2.228-1.401
		c0-0.152,0.038-0.389,0.117-0.697c0-0.233,0.117-0.937,0.352-2.104c0.938,0.394,1.914,0.7,2.931,0.937
		c-0.234,1.479-0.469,2.566-0.703,3.27c-0.469,1.789-1.916,2.686-4.338,2.686h-9.027c-2.345,0-3.557-1.13-3.634-3.386v-5.722
		C279.877,572.342,279.212,572.848,278.353,573.47L278.353,573.47z M274.953,560.51c-0.392-0.622-0.978-1.518-1.758-2.685
		c-0.704-0.938-1.251-1.673-1.642-2.219l2.931-1.521l3.634,4.67L274.953,560.51z M271.78,543.441v-23.817h2.579v23.817H271.78z
		 M276.118,545.076v-26.62h2.696v26.62H276.118z M292.647,545.776c-1.641-1.638-3.479-3.23-5.51-4.787
		c-1.172,1.868-3.323,3.541-6.448,5.021c-0.392-0.776-0.978-1.713-1.758-2.802c4.689-1.323,6.876-4.203,6.565-8.64
		c0-1.945,0-3.696,0-5.254h2.931c0,1.865,0,3.616,0,5.254c-0.079,1.397-0.196,2.605-0.352,3.619
		c1.876,1.398,4.063,3.072,6.565,5.021L292.647,545.776z M279.986,522.192v-2.919h14.302v2.919h-6.213l-0.586,2.686h5.861v14.127
		h-2.813v-11.208h-7.269v11.324h-2.696v-14.243h3.869l0.469-2.686H279.986z M283.394,570.667v2.569h7.034v-2.569H283.394z
		 M286.09,565.297c-0.626,1.013-1.29,1.946-1.993,2.802h7.62c-0.703-0.854-1.33-1.789-1.875-2.802H286.09z M285.387,559.576v2.919
		h5.041v-2.919H285.387z M299.924,531.532c-0.861,1.398-1.837,2.764-2.931,4.087c-0.157-0.622-0.392-1.56-0.703-2.803
		c-0.234-0.776-0.392-1.36-0.469-1.751c2.891-3.579,5.276-7.938,7.151-13.076l3.634,1.284c-0.938,2.335-1.995,4.554-3.167,6.652
		v19.851h-3.517L299.924,531.532L299.924,531.532z M310.123,535.854c-1.251,0.856-2.658,1.637-4.221,2.337
		c-0.626-1.092-1.289-2.143-1.993-3.152c2.345-1.168,4.415-2.373,6.213-3.619V518.34h3.751v10.508
		c2.656-2.102,5.08-4.437,7.268-7.006l2.813,2.569c-2.972,3.269-6.33,6.266-10.082,8.989v6.538
		c-0.079,1.398,0.586,2.062,1.993,1.982h1.993c1.405,0.078,2.188-0.584,2.345-1.982c0.234-1.092,0.429-2.646,0.586-4.673
		c0.779,0.312,1.993,0.74,3.635,1.284c-0.232,2.183-0.51,3.973-0.82,5.371c-0.312,2.178-2.069,3.229-5.273,3.152h-3.399
		c-3.359,0.151-4.964-1.363-4.807-4.556L310.123,535.854L310.123,535.854z"/>
</g>
<g>
	<polygon fill="#52B1DF" points="401,485 411,486.467 401,496 	"/>
	<rect x="311" y="458" fill="#7CD2FC" width="100" height="29"/>
	<path fill="#FFFFFF" d="M329.314,478.582c2.295-0.094,3.75-1.359,4.356-3.797l1.828,0.422c-0.892,3.048-2.931,4.594-6.117,4.641
		c-4.032-0.232-6.164-2.555-6.396-6.961c0.187-4.778,2.363-7.288,6.539-7.521c2.672,0.095,4.567,1.453,5.692,4.078l-1.758,0.422
		c-0.844-2.018-2.204-3.047-4.078-3.097c-2.856,0.281-4.43,2.274-4.711,5.979C324.859,476.356,326.407,478.301,329.314,478.582
		L329.314,478.582z M347.443,479.637v-1.266h-7.242v-12.797h-1.617v14.062L347.443,479.637L347.443,479.637z M350.871,479.637h1.547
		v-14.062h-1.547V479.637z M362.391,478.582c2.297-0.094,3.75-1.359,4.359-3.797l1.828,0.422c-0.891,3.048-2.93,4.594-6.117,4.641
		c-4.032-0.232-6.164-2.555-6.398-6.961c0.188-4.778,2.366-7.288,6.539-7.521c2.674,0.095,4.57,1.453,5.695,4.078l-1.758,0.422
		c-0.844-2.018-2.204-3.047-4.078-3.097c-2.859,0.281-4.43,2.274-4.711,5.979C357.938,476.356,359.482,478.301,362.391,478.582
		L362.391,478.582z M381.143,479.637l-5.062-7.242l-2.813,2.813v4.43h-1.615v-14.062h1.615v7.664l7.523-7.664h2.25l-5.977,5.836
		l6.258,8.227L381.143,479.637L381.143,479.637z M388.236,479.566v-2.039h-2.183v2.039H388.236z M394.76,479.566v-2.039h-2.18v2.039
		H394.76z M401.283,479.566v-2.039h-2.183v2.039H401.283z"/>
</g>
</svg>
