<?xml version="1.0" encoding="utf-8"?>
<!-- Generator: Adobe Illustrator 16.0.0, SVG Export Plug-In . SVG Version: 6.00 Build 0)  -->
<!DOCTYPE svg PUBLIC "-//W3C//DTD SVG 1.1//EN" "http://www.w3.org/Graphics/SVG/1.1/DTD/svg11.dtd">
<svg version="1.1" id="图层_1" xmlns="http://www.w3.org/2000/svg" xmlns:xlink="http://www.w3.org/1999/xlink" x="0px" y="0px"
	 width="640px" height="302.25px" viewBox="0 0 640 302.25" enable-background="new 0 0 640 302.25" xml:space="preserve">
<path fill="#FFFFFF" d="M33.573,62.193v-1.437h3.306v-2.965h1.57v2.965h2.728v1.437h-2.728v2.606h1.157
	c1.323-1.438,2.452-3.024,3.389-4.762l1.322,0.809c-0.882,1.498-1.791,2.816-2.728,3.953h2.479v1.527h-3.802
	c-0.442,0.539-1.213,1.289-2.314,2.246c0.054,0,0,0.06-0.166,0.18h5.042v10.242H41.34v-1.258h-5.125v1.258H34.73v-7.906
	c-0.552,0.359-1.13,0.75-1.736,1.168c-0.056-0.18-0.166-0.449-0.331-0.809c-0.111-0.359-0.221-0.629-0.331-0.809
	c1.873-0.958,3.829-2.395,5.868-4.313h-5.538v-1.527h4.215v-2.606L33.573,62.193L33.573,62.193z M32.581,36.373v-1.617h2.893
	l0.909-5.48h13.556l-0.165,5.48h2.811v1.617h-2.893l-0.248,3.953h2.397v1.527h-2.48c-0.111,2.157-1.24,3.235-3.389,3.235
	c-1.103,0-2.149,0-3.141,0c-0.111-0.301-0.221-0.779-0.331-1.438c-0.056-0.121-0.083-0.21-0.083-0.269
	c0.44,0.059,1.459,0.09,3.058,0.09c1.433,0.059,2.176-0.48,2.232-1.618H34.399l0.826-5.48H32.581z M32.746,164.375v-1.527h2.314
	c0.165-0.539,0.385-1.377,0.661-2.516c0.054-0.299,0.11-0.508,0.165-0.629l1.653,0.27c-0.056,0.121-0.111,0.33-0.166,0.629
	c-0.111,0.48-0.331,1.229-0.661,2.246h3.968v1.527h-4.464c-0.496,1.797-1.103,3.684-1.818,5.66h2.397v-4.043H38.2v4.043h2.066v1.527
	H38.2v3.145c0.881-0.119,1.736-0.209,2.563-0.27c-0.056,0.239-0.083,0.778-0.083,1.617l-2.48,0.27v4.941h-1.57v-4.763
	c-1.323,0.181-2.645,0.358-3.968,0.539l-0.083-1.797c1.267-0.06,1.405-0.06,0.414,0c0.992-0.06,2.203-0.181,3.637-0.359v-3.323
	h-3.72v-1.707c0.55-1.558,1.129-3.383,1.736-5.48H32.746z M32.581,206.372v-1.617h2.893l0.909-5.479h13.556l-0.166,5.479h2.811
	v1.617H49.69l-0.248,3.953h2.397v1.526H49.36c-0.111,2.156-1.24,3.234-3.389,3.234c-1.103,0-2.149,0-3.141,0
	c-0.111-0.3-0.221-0.779-0.331-1.438c-0.056-0.121-0.083-0.211-0.083-0.271c0.44,0.06,1.459,0.09,3.059,0.09
	c1.432,0.06,2.176-0.479,2.231-1.616H34.399l0.827-5.48L32.581,206.372L32.581,206.372z M32.746,233.635v-1.617h2.231v-4.133h1.57
	v4.133h1.901v1.617h-1.901v4.492l1.984-0.629c0,0.779,0.027,1.379,0.083,1.797l-2.066,0.629v6.738
	c0.055,1.557-0.661,2.336-2.149,2.336c-0.551,0-1.047,0-1.488,0c0-0.539-0.056-1.107-0.165-1.707c0.331,0,0.688,0,1.074,0
	c0.827,0.061,1.211-0.24,1.157-0.898v-6.02c-0.717,0.24-1.46,0.51-2.231,0.809l-0.166-1.887c0.771-0.238,1.57-0.479,2.397-0.719
	v-4.941H32.746z M37.209,197.027c-0.992,1.438-2.205,2.875-3.637,4.313c-0.111-0.18-0.276-0.479-0.496-0.897
	c-0.166-0.299-0.304-0.539-0.414-0.719c2.038-1.798,3.554-3.832,4.546-6.109l1.818,0.27c-0.276,0.539-0.579,1.078-0.909,1.617
	h13.969v1.527H37.209V197.027z M37.209,27.029c-0.992,1.437-2.205,2.875-3.637,4.313c-0.111-0.18-0.276-0.479-0.496-0.898
	c-0.165-0.299-0.303-0.539-0.413-0.719c2.038-1.797,3.554-3.832,4.546-6.109l1.818,0.27c-0.276,0.539-0.579,1.078-0.909,1.617
	h13.969v1.527H37.209V27.029z M45.971,113.264v-5.301h-6.778c-0.221,2.396-1.682,4.192-4.381,5.391
	c-0.056-0.06-0.166-0.18-0.331-0.359c-0.386-0.48-0.717-0.809-0.992-0.988c2.645-1.078,3.968-2.426,3.968-4.043h-4.794v-1.617h4.959
	c0.054-0.719,0.083-1.496,0.083-2.336h1.653c0,0.84-0.028,1.617-0.083,2.336h6.695v-2.336h1.653v2.336h4.794v1.617h-4.794v5.301
	L45.971,113.264L45.971,113.264z M33.573,146.277v-16.711h3.967v-3.684h1.488v3.684h3.968v16.711h-1.488v-1.617h-6.447v1.617H33.573
	z M37.54,103.022c-1.874,0.061-2.783-0.957-2.728-3.055V92.78h14.795v6.02H36.465v0.988c-0.055,1.258,0.496,1.828,1.653,1.707H48.45
	c1.211,0.061,1.873-0.389,1.984-1.348c0.166-0.719,0.275-1.406,0.331-2.066c0.22,0.061,0.496,0.15,0.827,0.27
	c0.385,0.18,0.661,0.301,0.827,0.359c-0.166,0.719-0.359,1.527-0.579,2.426c-0.331,1.318-1.351,1.947-3.059,1.887L37.54,103.022
	L37.54,103.022z M35.061,131.093v5.301h2.479v-5.301H35.061z M35.061,137.921v5.391h2.479v-5.391H35.061z M36.218,70.189v2.426
	h5.125v-2.426H36.218z M36.218,73.963v2.426h5.125v-2.426H36.218z M47.79,40.326l0.248-3.953H36.961L36.3,40.326H47.79z
	 M47.79,210.325l0.248-3.953H36.961l-0.661,3.953H47.79z M36.465,94.217v3.145h11.489v-3.145H36.465z M37.788,30.803l-0.579,3.953
	h10.828c0.11-1.377,0.165-2.696,0.165-3.953H37.788z M37.788,200.802l-0.579,3.953h10.828c0.11-1.377,0.166-2.694,0.166-3.953
	H37.788z M43.409,243.068c0.054,2.875-1.599,4.94-4.959,6.2c-0.056-0.062-0.166-0.211-0.331-0.449
	c-0.331-0.359-0.552-0.659-0.661-0.898c2.976-0.898,4.435-2.516,4.38-4.852h-2.81v-1.349h10.25l-0.662,2.427h3.472l-0.331,2.516
	c-0.111,1.497-0.938,2.246-2.479,2.246c-0.442,0.06-1.434,0.09-2.976,0.09c-0.111-0.479-0.248-0.988-0.414-1.527
	c1.046,0.062,2.011,0.09,2.893,0.09c0.881,0.062,1.376-0.24,1.488-0.896l0.083-1.168h-3.637l0.661-2.427L43.409,243.068
	L43.409,243.068z M40.103,240.912v-6.738c-0.111,0.121-0.277,0.33-0.496,0.629c-0.111,0.24-0.414,0.629-0.909,1.168l-0.909-1.438
	c1.653-1.797,2.976-4.043,3.967-6.738l1.488,0.359c-0.331,0.897-0.689,1.707-1.074,2.426h4.05c-0.331-0.719-0.744-1.496-1.24-2.336
	l1.405-0.539c0.331,0.6,0.44,0.779,0.331,0.539c0.55,0.959,0.909,1.588,1.075,1.887l-1.075,0.449h5.29v1.258h-4.794v1.527h4.38
	v1.258h-4.38v1.527h4.38v1.168h-4.38v1.617h4.959v1.258H41.59v0.719H40.103L40.103,240.912z M41.508,131.093h-2.48v5.301h2.48
	V131.093z M39.028,137.921v5.391h2.48v-5.391H39.028z M41.507,173.449v-1.617h10.001v1.617h-4.133v5.211h5.208v1.617H40.268v-1.617
	h5.456v-5.211H41.507z M43.161,40.146c-0.826-0.838-1.708-1.647-2.645-2.426l0.91-1.078c0.992,0.779,1.928,1.527,2.81,2.246
	L43.161,40.146z M43.161,210.146c-0.827-0.838-1.708-1.646-2.645-2.427l0.909-1.077c0.992,0.778,1.928,1.526,2.811,2.246
	L43.161,210.146z M51.674,170.844c-0.607-0.418-1.46-1.047-2.563-1.887c-0.882-0.598-1.57-1.078-2.066-1.438
	c-1.322,1.198-3.196,2.366-5.621,3.504c-0.221-0.539-0.496-1.047-0.827-1.527c3.691-1.438,6.419-3.652,8.183-6.648h-7.19v-1.617
	h9.01v1.707c-0.772,1.379-1.599,2.576-2.479,3.595c0.385,0.239,0.963,0.6,1.736,1.077c0.385,0.302,1.322,0.898,2.81,1.798
	L51.674,170.844z M43.492,34.486c-1.048-0.958-1.957-1.707-2.728-2.246l0.909-1.168c0.992,0.718,1.928,1.438,2.811,2.156
	L43.492,34.486z M43.491,204.484c-1.047-0.957-1.957-1.707-2.728-2.245l0.909-1.169c0.992,0.72,1.928,1.438,2.81,2.156
	L43.491,204.484z M41.59,231.838v1.527h4.05v-1.527H41.59z M41.59,234.623v1.527h4.05v-1.527H41.59z M41.59,237.318v1.617h4.05
	v-1.617H41.59z M45.145,79.264V59.049h6.943v1.707l-2.232,6.378c1.818,1.738,2.699,3.594,2.645,5.571
	c0.054,2.457-0.909,3.714-2.893,3.773c-0.661,0.06-1.322,0.09-1.984,0.09c-0.055-0.659-0.165-1.288-0.331-1.887
	c0.55,0.06,1.157,0.09,1.819,0.09c1.211,0.06,1.79-0.659,1.736-2.156c0.054-1.617-0.827-3.383-2.646-5.301l2.232-6.648h-3.72v18.598
	H45.145z M45.145,147.265V127.41h6.86v1.797l-2.066,6.02c1.653,1.738,2.451,3.535,2.397,5.391c0,2.516-0.938,3.804-2.81,3.863
	c-0.552,0-1.186,0-1.901,0c0-0.239-0.056-0.629-0.165-1.168c-0.056-0.299-0.083-0.508-0.083-0.629c0.44,0.061,0.964,0.09,1.571,0.09
	c1.267,0.121,1.873-0.658,1.818-2.336c0.054-1.557-0.772-3.204-2.48-4.941l2.232-6.469h-3.802v18.238L45.145,147.265L45.145,147.265
	z M56.502,72.705c-0.772,0.839-1.351,1.468-1.736,1.887l-0.661-1.977c1.542-1.438,2.893-2.785,4.05-4.043V57.881h1.57v21.472h-1.57
	v-8.355C57.825,71.357,57.273,71.927,56.502,72.705L56.502,72.705z M54.353,99.518v-1.707h2.231v-6.02h1.488v6.02h2.066v1.707
	h-2.066v8.176c0.662-0.18,1.323-0.389,1.984-0.629c0,0.18,0.027,0.48,0.083,0.898c0,0.359,0.027,0.629,0.083,0.809
	c-1.378,0.359-3.307,0.988-5.786,1.887l-0.331-1.797c0.275-0.119,0.688-0.239,1.24-0.359c0.55-0.18,0.963-0.299,1.24-0.359v-8.625
	L54.353,99.518L54.353,99.518z M54.518,165.812v-1.617h2.811v-4.312h1.57v4.312h2.563v1.617h-2.563v3.414l0.496-0.539
	c0.385,0.42,0.992,1.078,1.818,1.978c0.385,0.42,0.688,0.75,0.909,0.987l-1.075,1.169c-0.772-0.839-1.488-1.677-2.149-2.517v10.961
	h-1.57v-11.858c-0.717,2.336-1.599,4.373-2.645,6.108c0-0.059-0.028-0.18-0.083-0.358c-0.111-0.539-0.276-1.168-0.496-1.888
	c1.267-1.916,2.314-4.401,3.141-7.457H54.518z M54.188,35.025v-1.977h20.086v1.977H54.188z M56.502,67.224
	c-0.331-0.898-0.938-2.335-1.818-4.312c-0.221-0.539-0.386-0.928-0.496-1.168l1.323-0.54c0.11,0.301,0.331,0.779,0.661,1.438
	c0.771,1.738,1.323,3.055,1.653,3.953L56.502,67.224z M54.436,130.554v-1.617h2.397c0.054-0.239,0.166-0.629,0.331-1.168
	c0.22-0.898,0.358-1.557,0.414-1.977l1.653,0.18l-0.827,2.965h4.298v1.617H57.99c-0.882,2.875-1.488,4.882-1.818,6.02h2.562v-4.582
	h1.405v4.582h2.314v1.527h-2.314v3.055c0.054,0,0.137,0,0.248,0c0.715-0.059,1.488-0.18,2.314-0.359c0,0.6-0.028,1.139-0.083,1.617
	l-2.48,0.359v4.492h-1.57v-4.313c-1.488,0.18-2.893,0.359-4.215,0.539l-0.166-1.707l4.381-0.449v-3.234h-3.885v-1.617
	c0.165-0.598,0.44-1.497,0.827-2.695c0.44-1.438,0.744-2.516,0.909-3.234L54.436,130.554L54.436,130.554z M54.188,205.023v-1.977
	h20.085v1.977H54.188z M63.527,230.939c-2.645,0.121-5.235,0.18-7.77,0.18c0-0.598-0.083-1.168-0.248-1.707
	c5.951-0.119,11.489-0.359,16.614-0.719l0.331,1.797c-2.314,0.061-4.711,0.18-7.191,0.359v4.043h7.274v1.616h-7.274v4.134h9.01
	v1.707h-9.01v3.594c0.054,1.977-0.882,2.965-2.81,2.965c-1.213,0-2.343,0-3.389,0c-0.055-0.479-0.165-1.108-0.331-1.887
	c0.606,0.06,1.625,0.09,3.059,0.09c1.211,0.06,1.79-0.479,1.735-1.617v-3.145h-9.175v-1.707h9.175v-4.134H55.84v-1.616h7.687
	V230.939L63.527,230.939z M66.751,109.76c-2.866,0.539-5.153,0.928-6.86,1.168l-0.331-1.617c1.046-0.119,2.865-0.418,5.456-0.898
	c0.827-0.119,1.405-0.209,1.736-0.27C66.751,108.623,66.751,109.163,66.751,109.76L66.751,109.76z M60.469,97.272v-1.527h7.109
	c0-0.418,0-1.047,0-1.887c-0.056-0.898-0.083-1.586-0.083-2.066h1.571c0,1.199,0.027,2.516,0.083,3.953h4.877v1.527h-4.877
	l0.083,2.246c0.11,2.457,0.275,4.492,0.496,6.109c0.827-1.496,1.653-3.533,2.479-6.109l1.323,0.629
	c-0.938,2.996-2.066,5.57-3.389,7.727c0.275,1.078,0.606,1.977,0.992,2.695c0.331,0.418,0.605,0.629,0.827,0.629
	c0.331,0.059,0.55-0.24,0.661-0.898c0.165-0.719,0.275-1.766,0.331-3.145c0.496,0.18,0.936,0.359,1.322,0.539
	c-0.055,1.199-0.193,2.336-0.413,3.414c-0.276,1.377-0.882,2.036-1.818,1.977c-0.882,0.059-1.599-0.539-2.149-1.797
	c-0.331-0.48-0.607-1.078-0.827-1.797c-0.938,1.258-2.066,2.516-3.389,3.773c-0.111-0.121-0.276-0.33-0.496-0.629
	c-0.276-0.3-0.496-0.539-0.662-0.719c1.598-1.258,2.92-2.695,3.968-4.313c-0.386-1.736-0.661-4.371-0.827-7.906
	c0-0.838-0.028-1.646-0.083-2.426L60.469,97.272L60.469,97.272z M63.032,63.182c-0.441,0.48-0.964,0.898-1.57,1.258
	c-0.056-0.12-0.194-0.329-0.413-0.629c-0.276-0.359-0.442-0.598-0.496-0.719c2.424-1.797,4.243-3.594,5.456-5.391l1.653,0.449
	c-0.551,0.779-1.103,1.468-1.653,2.066h7.521v1.708c-2.425,3.414-6.42,5.781-11.985,7.098c-0.111-0.359-0.359-0.868-0.744-1.528
	c4.959-1.137,8.568-3.023,10.828-5.66H64.52l-0.414,0.449c0.881,0.66,1.846,1.469,2.893,2.426l-1.24,1.078
	C64.712,64.709,63.803,63.841,63.032,63.182L63.032,63.182z M60.635,71.447V69.83h9.34v-2.696h1.653v2.696h2.728v1.617h-2.728v4.762
	c0.054,1.797-0.827,2.695-2.645,2.695c-0.276,0-0.717,0.029-1.323,0.09c-0.551,0-0.992,0-1.322,0
	c-0.111-0.719-0.221-1.348-0.331-1.887c0.771,0.059,1.597,0.09,2.479,0.09c1.046,0.059,1.542-0.42,1.488-1.438v-4.313h-9.339V71.447
	z M60.965,106.346v-6.648h5.042v6.648H60.965z M66.586,160.871c-0.882,3.475-2.205,6.648-3.967,9.523
	c-0.386-0.479-0.827-0.898-1.323-1.259c1.763-2.694,3.003-5.6,3.72-8.715L66.586,160.871L66.586,160.871z M72.289,181.176
	c-0.221-0.539-0.469-1.078-0.744-1.617c-2.921,0.12-5.318,0.239-7.191,0.359c-0.717,0.12-1.405,0.21-2.067,0.27l-0.661-1.526
	c0.496-0.3,0.909-0.777,1.24-1.438c1.267-2.395,2.507-5.358,3.72-8.895l1.818,0.629c-1.434,3.414-2.893,6.559-4.381,9.434
	c0.937,0,2.397-0.059,4.381-0.18c1.046-0.059,1.846-0.09,2.397-0.09l-2.066-4.312l1.405-0.72c0.937,1.797,2.149,4.193,3.637,7.188
	L72.289,181.176z M74.438,133.07c-0.276,0.42-0.579,0.959-0.909,1.617c-2.37-1.736-4.133-3.833-5.29-6.289
	c-1.269,2.336-3.114,4.492-5.538,6.469c-0.386-0.719-0.69-1.227-0.909-1.527c2.699-2.096,4.683-4.641,5.951-7.637l1.653,0.27
	c-0.111,0.3-0.248,0.6-0.414,0.898C70.416,129.626,72.234,131.693,74.438,133.07L74.438,133.07z M62.288,101.135v3.773h2.397v-3.773
	H62.288z M65.346,76.209c-0.331-0.418-0.882-1.078-1.653-1.977c-0.552-0.598-0.938-1.047-1.157-1.348l1.157-0.988
	c0.385,0.419,1.074,1.138,2.066,2.156c0.385,0.48,0.688,0.839,0.909,1.078L65.346,76.209z M67.082,146.636
	c-1.93,0.059-2.866-0.929-2.811-2.965v-9.254h1.571v4.313c1.983-1.137,3.773-2.426,5.373-3.863l0.992,1.258
	c-1.653,1.498-3.775,2.996-6.364,4.492v2.695c-0.111,1.199,0.467,1.736,1.736,1.617h2.066c1.157,0.059,1.79-0.449,1.901-1.527
	c0.166-1.018,0.275-2.066,0.331-3.145c0.55,0.24,1.075,0.42,1.57,0.539c-0.165,1.318-0.331,2.486-0.496,3.504
	c-0.331,1.557-1.351,2.336-3.059,2.336H67.082z M73.942,169.406c-0.331,0.42-0.579,0.75-0.744,0.988
	c-2.26-2.814-3.885-6.109-4.876-9.884l1.57-0.448c0.992,3.594,2.48,6.528,4.463,8.805C74.3,168.988,74.162,169.168,73.942,169.406
	L73.942,169.406z M72.042,95.026c-0.772-0.957-1.378-1.676-1.818-2.156l1.074-0.809c0.275,0.301,0.716,0.779,1.323,1.438
	c0.275,0.301,0.467,0.51,0.579,0.629L72.042,95.026z M77.778,164.734c-0.166,1.856-0.442,3.863-0.827,6.02
	c-0.111-0.059-0.304-0.119-0.579-0.18c-0.276-0.059-0.469-0.09-0.579-0.09c0.44-2.215,0.715-4.191,0.827-5.93L77.778,164.734
	L77.778,164.734z M76.208,138.46v-1.527h19.59v1.527h-8.679v2.426h7.191v1.438h-7.191v2.516h0.083c2.864,0,5.786,0,8.761,0
	c-0.165,0.539-0.303,1.078-0.413,1.617c-3.858,0-6.668-0.031-8.431-0.09c-3.252,0-5.511-1.078-6.778-3.234
	c-0.607,1.438-1.736,2.844-3.389,4.223c-0.496-0.539-0.855-0.958-1.075-1.258c2.259-1.557,3.554-3.863,3.885-6.918l1.571,0.27
	c-0.056,0.24-0.111,0.539-0.166,0.898c-0.111,0.48-0.194,0.839-0.248,1.078c0.992,2.037,2.507,3.115,4.546,3.234v-6.199
	L76.208,138.46L76.208,138.46z M95.384,203.768c-0.276,0.42-0.469,0.719-0.579,0.897c-3.858-2.274-6.75-5-8.679-8.176
	c-2.149,3.295-5.18,6.141-9.092,8.534c-0.166-0.237-0.442-0.598-0.827-1.078c-0.166-0.299-0.276-0.479-0.331-0.538
	c4.683-2.814,7.935-6.021,9.753-9.613l1.901,0.271l-0.496,0.897c2.038,3.295,5.014,5.931,8.927,7.906
	C95.852,203.048,95.659,203.35,95.384,203.768L95.384,203.768z M79.762,244.146c-0.386,1.678-1.13,3.354-2.232,5.03
	c-0.551-0.479-1.103-0.929-1.653-1.348c1.102-1.438,1.818-2.875,2.149-4.313c0.385-1.377,0.579-3.504,0.579-6.379v-6.02h8.1
	c-0.276-0.658-0.717-1.646-1.322-2.965l1.901-0.449c0.496,1.02,0.964,2.037,1.405,3.055l-1.074,0.359h8.1v1.797H80.34v4.312
	C80.34,240.283,80.146,242.59,79.762,244.146L79.762,244.146z M80.589,36.462c-1.378,3.055-2.397,5.301-3.059,6.739l-1.57-0.898
	c1.432-2.754,2.728-5.66,3.885-8.715c0.496,0.359,1.019,0.66,1.571,0.898C81.25,34.906,80.974,35.564,80.589,36.462L80.589,36.462z
	 M76.208,97.182v-1.707h9.588c-0.496-1.197-0.965-2.275-1.405-3.234l1.818-0.449c0.11,0.24,0.302,0.66,0.579,1.258
	c0.385,0.959,0.688,1.678,0.91,2.156l-0.992,0.27h8.927v1.707h-3.554c-0.772,4.193-2.37,7.547-4.794,10.063
	c1.984,1.678,4.821,2.936,8.514,3.773c-0.386,0.659-0.744,1.288-1.075,1.887c-3.802-1.258-6.75-2.725-8.844-4.402
	c-1.708,1.498-4.602,3.024-8.679,4.582c-0.276-0.419-0.634-1.019-1.075-1.797c3.526-1.018,6.336-2.365,8.431-4.043
	c-2.425-2.695-3.996-6.049-4.711-10.063L76.208,97.182L76.208,97.182z M85.796,65.158c-0.441,6.169-3.169,10.902-8.183,14.195
	c-0.441-0.599-0.882-1.138-1.322-1.617c4.904-3.055,7.493-7.247,7.77-12.578h-7.356v-1.707h7.522
	c0.166-1.797,0.248-3.713,0.248-5.75h1.818c0,1.977-0.083,3.894-0.248,5.75h8.679c-0.111,4.193-0.248,7.847-0.414,10.961
	c-0.056,2.934-1.351,4.371-3.885,4.313c-1.322,0.059-2.618,0.09-3.885,0.09c-0.056-0.18-0.111-0.449-0.166-0.809
	c0-0.24-0.083-0.66-0.248-1.258c0.275,0,0.798,0,1.571,0c0.992,0.059,1.707,0.09,2.149,0.09c1.818,0.18,2.728-0.749,2.728-2.785
	c0.22-3.055,0.331-6.02,0.331-8.895H85.796L85.796,65.158z M79.68,31.342c-0.717-1.377-1.792-3.174-3.224-5.391l1.405-0.898
	c1.211,1.738,2.342,3.504,3.389,5.301L79.68,31.342z M81.002,62.553c-0.938-1.258-1.901-2.366-2.893-3.324l1.24-1.078
	c1.102,0.958,2.094,1.976,2.976,3.054L81.002,62.553z M78.522,181.266v-21.383h1.488v4.762l0.331-0.539
	c0.44,0.42,1.129,1.14,2.066,2.156v-5.479h13.225v1.438H83.895v16.801h12.068v1.526H82.407v-14.284l-0.992,1.258
	c-0.221-0.359-0.69-0.929-1.405-1.707v15.453h-1.488V181.266z M78.853,134.957v-8.176h14.134v8.176H78.853z M95.963,43.291
	c-0.496,0.598-0.909,1.167-1.24,1.707c-3.583-2.395-5.732-5.45-6.447-9.164c-0.661,3.714-3.004,6.887-7.026,9.523
	c-0.166-0.24-0.442-0.6-0.827-1.078c-0.165-0.24-0.303-0.42-0.413-0.539c4.463-2.575,6.86-6.049,7.191-10.422
	c0.054-0.778,0.083-1.707,0.083-2.786h1.735c0,1.02-0.028,1.738-0.083,2.157C89.652,37.601,91.995,41.135,95.963,43.291
	L95.963,43.291z M80.506,128.218v1.977h10.828v-1.977H80.506z M80.506,131.542v2.066h10.828v-2.066H80.506z M81.498,97.182
	c0.715,3.594,2.203,6.559,4.463,8.895c2.203-2.215,3.608-5.18,4.215-8.895H81.498L81.498,97.182z M93.318,33.857
	c-0.221-0.119-0.607-0.269-1.157-0.449c-0.166,0-0.304-0.03-0.413-0.09l1.653-4.133h-7.935c-0.607,1.498-1.322,2.996-2.149,4.492
	c-0.496-0.359-1.021-0.688-1.57-0.988c1.653-2.575,2.893-5.51,3.719-8.805l1.736,0.359c-0.165,0.48-0.413,1.199-0.744,2.156
	c-0.166,0.48-0.276,0.84-0.331,1.079h9.009v1.707L93.318,33.857z M85.135,166.441v-1.438h4.298v-2.336h1.488v2.336h4.215v1.438
	H90.92c0,0.24-0.028,0.569-0.083,0.988c0,0.358,0,0.629,0,0.809c0,1.559-0.028,2.637-0.083,3.234h5.042v1.348h-5.373v0.09
	c1.377,1.199,2.893,2.547,4.546,4.043l-1.075,1.168c-1.268-1.377-2.562-2.635-3.885-3.773c-0.551,1.498-1.93,2.846-4.133,4.043
	c-0.276-0.418-0.607-0.867-0.992-1.348c2.479-1.137,3.856-2.545,4.133-4.223h-4.381v-1.348h4.629
	c0.109-1.197,0.165-2.275,0.165-3.234c0-0.539,0-1.137,0-1.797H85.135z M84.969,215.268V201.97h1.901v13.298H84.969z
	 M87.284,170.574c-0.827-1.258-1.405-2.096-1.736-2.516l1.075-0.81c0.109,0.18,0.302,0.42,0.579,0.719
	c0.55,0.72,0.963,1.318,1.24,1.798L87.284,170.574z M89.433,73.064c-0.717-1.018-1.792-2.276-3.224-3.774l1.24-1.078
	c0.827,0.719,1.955,1.887,3.389,3.504L89.433,73.064z M94.888,168.059c-0.827,1.078-1.517,1.918-2.066,2.517l-1.075-0.898
	c0.44-0.418,1.019-1.077,1.736-1.977c0.165-0.181,0.275-0.328,0.331-0.449L94.888,168.059L94.888,168.059z M117.569,246.932
	c-0.221,0.658-0.359,1.14-0.414,1.438l0,0c-2.535,0-4.381,0-5.538,0c-1.378,0-2.618-0.03-3.719-0.09
	c-2.756-0.062-4.85-0.988-6.282-2.785c-0.276-0.238-0.551-0.238-0.826,0c-1.103,1.078-1.93,2.036-2.48,2.875l-0.827-1.797
	c0.166-0.181,0.414-0.449,0.744-0.81c0.661-0.72,1.129-1.228,1.405-1.528c0.661-0.657,1.184-0.987,1.57-0.987
	c0.054,0,0.166,0,0.331,0c0.11,0.062,0.192,0.09,0.248,0.09c4.353-2.875,8.237-6.108,11.655-9.703H99.054v-1.706h8.431
	c-0.331-1.019-0.882-2.216-1.653-3.595l1.736-0.539c0.826,1.617,1.405,2.875,1.736,3.772l-1.157,0.359h7.604v1.887
	c-3.748,4.193-7.963,7.759-12.646,10.691c1.102,1.379,2.782,2.099,5.042,2.156c1.211,0,3.278,0,6.199,0c1.488,0,2.589,0,3.306,0
	L117.569,246.932L117.569,246.932z M100.708,101.045c-0.772,1.258-1.57,2.486-2.397,3.684c-0.111-0.299-0.248-0.719-0.413-1.258
	c-0.166-0.418-0.276-0.719-0.331-0.898c2.259-2.934,4.078-6.469,5.456-10.602l1.736,0.629c-0.827,2.037-1.626,3.834-2.397,5.391
	v15.184h-1.653L100.708,101.045L100.708,101.045z M100.542,204.307c-0.882-1.078-1.874-2.187-2.976-3.324l1.24-0.988
	c1.046,1.02,2.066,2.066,3.059,3.145L100.542,204.307z M98.972,65.338c-0.276,0.3-0.469,0.539-0.578,0.718
	c-0.056-0.179-0.194-0.449-0.414-0.808c-0.165-0.359-0.303-0.629-0.413-0.809c1.873-1.977,3.389-4.223,4.546-6.738l1.571,0.539
	c-0.607,1.258-1.24,2.367-1.901,3.324v9.344h-1.57V63.81C99.936,64.17,99.522,64.679,98.972,65.338L98.972,65.338z M101.204,176.594
	c-0.772,1.438-1.488,2.695-2.149,3.773c-0.111-0.061-0.303-0.18-0.579-0.359c-0.386-0.18-0.661-0.328-0.827-0.449
	c0.881-1.197,1.598-2.395,2.149-3.594L101.204,176.594L101.204,176.594z M98.311,37.99v-1.167h6.282v-1.168h1.57v9.614h-1.57v-1.887
	h-6.861v-1.168h6.861v-1.527h-5.952v-1.168h5.952V37.99H98.311z M101.287,72.525c-0.772,2.277-1.461,3.953-2.067,5.031l-1.488-0.628
	c0.827-1.617,1.515-3.234,2.066-4.852L101.287,72.525L101.287,72.525z M100.873,133.519v-1.438h13.556v1.438h-5.704
	c-0.661,0.539-1.295,1.019-1.901,1.438c0.054,0.121,0.165,0.27,0.331,0.449c0.715,1.019,1.184,1.828,1.405,2.426
	c1.983-0.898,4.05-2.006,6.199-3.324l0.909,1.438c-0.827,0.42-2.066,1.078-3.72,1.977c0.992,3.115,2.837,5.211,5.538,6.289
	c-0.056,0.061-0.111,0.15-0.166,0.27c-0.221,0.239-0.524,0.629-0.909,1.168c-2.976-1.438-4.905-3.803-5.786-7.098l-1.488,0.719
	c0.385,1.139,0.579,2.336,0.579,3.594c0.054,2.754-0.992,4.133-3.141,4.133c-0.772,0-1.653,0-2.645,0
	c-0.056-0.3-0.166-0.719-0.331-1.258c-0.056-0.18-0.083-0.33-0.083-0.449c0.771,0.059,1.625,0.09,2.562,0.09
	c1.433,0.119,2.094-0.719,1.984-2.516c0.054-0.539,0-1.137-0.166-1.797c-2.314,2.396-5.428,4.252-9.34,5.57
	c-0.221-0.539-0.496-1.078-0.827-1.617c3.912-1.018,7.163-2.844,9.753-5.48c-0.166-0.479-0.359-0.928-0.579-1.348
	c-2.314,1.917-5.042,3.445-8.183,4.582c-0.221-0.658-0.469-1.197-0.744-1.617c3.141-0.838,5.896-2.246,8.266-4.223
	c-0.221-0.359-0.469-0.719-0.744-1.078c-2.039,1.258-4.326,2.277-6.86,3.055c-0.221-0.539-0.469-1.078-0.744-1.617
	c3.472-0.719,6.309-1.977,8.514-3.773h-5.535V133.519z M99.054,163.027v-1.258h7.935c-0.056-0.181-0.138-0.449-0.248-0.81
	c-0.165-0.479-0.303-0.81-0.413-0.987l1.818-0.271c0.054,0.121,0.11,0.271,0.166,0.448c0.165,0.359,0.331,0.898,0.496,1.617h7.439
	v1.258h-4.133l0.909,0.359c-0.386,0.48-0.8,1.078-1.24,1.797h5.704v1.348H97.732v-1.348h5.703l-1.24-1.707l0.992-0.449h-4.133
	V163.027z M101.948,26.85c-0.386,0.539-0.882,1.078-1.488,1.617c-0.276-0.299-0.662-0.628-1.157-0.988
	c1.157-1.079,2.094-2.215,2.811-3.415l1.488,0.45c-0.166,0.359-0.386,0.719-0.662,1.078h4.216v-1.797h1.57v1.797h7.026v1.258h-7.026
	v1.707h8.762v1.258H97.815v-1.258h9.34V26.85H101.948L101.948,26.85z M100.873,209.518c-0.496,2.637-0.855,4.521-1.075,5.659
	l-1.735-0.538c0.715-2.695,1.322-5.511,1.818-8.445c0.385,0.24,0.909,0.42,1.57,0.539C101.34,207.271,101.148,208.2,100.873,209.518
	L100.873,209.518z M101.121,198.557c-0.221-0.238-0.524-0.599-0.909-1.078c-0.827-1.019-1.461-1.767-1.901-2.246l1.24-0.988
	c0.936,0.959,1.928,2.037,2.976,3.234L101.121,198.557z M98.311,132.261v-3.863h9.009c-0.331-0.838-0.661-1.646-0.992-2.426
	l1.818-0.359c0.331,0.719,0.662,1.588,0.992,2.605l-0.579,0.18h8.348v3.863h-1.653v-2.336H99.963v2.336H98.311z M100.211,174.887
	v-6.828h14.713v6.828H100.211z M100.377,35.295v-4.133h14.465v4.133H100.377z M103.353,197.837v-1.526h2.645v-2.427h1.57v2.427
	h4.133v-2.427h1.57v2.427h3.306v1.526h-3.306v2.875h4.05v1.527h-4.298c1.102,1.977,2.645,3.504,4.629,4.581l-0.909,1.527
	c-1.488-1.078-2.591-2.065-3.306-2.965v4.941h-7.191v1.438c-0.055,0.958,0.414,1.407,1.405,1.348h5.373
	c0.992,0.061,1.598-0.329,1.819-1.168c0-0.118,0.027-0.299,0.083-0.539c0.054-0.18,0.137-0.719,0.248-1.616
	c0.496,0.18,0.992,0.358,1.488,0.539c-0.056,0.301-0.138,0.688-0.248,1.168c-0.166,0.539-0.276,0.93-0.331,1.168
	c-0.331,1.378-1.269,2.036-2.811,1.978h-6.199c-1.543-0.061-2.343-0.898-2.397-2.517v-5.392c-0.661,0.72-1.405,1.379-2.231,1.978
	c-0.056-0.06-0.111-0.181-0.166-0.358c-0.111-0.238-0.331-0.599-0.661-1.078c1.983-1.258,3.554-2.935,4.711-5.031h-3.968v-1.527
	h3.637v-2.875L103.353,197.837L103.353,197.837z M101.782,169.316v1.526h11.572v-1.526H101.782z M101.782,172.012v1.617h11.572
	v-1.617H101.782z M101.948,32.33v1.797h11.241V32.33H101.948z M105.171,180.727c-1.764,0.061-2.618-0.777-2.563-2.516v-2.246h1.571
	v1.887c-0.111,1.02,0.44,1.498,1.653,1.438h3.637c1.046,0.06,1.653-0.3,1.818-1.078c0.054-0.18,0.137-0.539,0.248-1.078
	c0.054-0.299,0.109-0.539,0.165-0.719c0.496,0.24,0.992,0.449,1.488,0.629c-0.056,0.779-0.221,1.379-0.496,1.797
	c-0.276,1.317-1.213,1.946-2.811,1.888h-4.71V180.727z M105.089,78.635c-1.653,0-2.48-0.869-2.48-2.604v-3.684h1.57v3.234
	c0.055,0.958,0.579,1.438,1.571,1.438h3.637c1.211,0.059,1.901-0.418,2.066-1.438c0.166-0.659,0.275-1.348,0.331-2.066
	c0.11,0.06,0.302,0.121,0.579,0.18c0.44,0.24,0.798,0.39,1.075,0.449c-0.166,0.839-0.331,1.617-0.496,2.336
	c-0.386,1.496-1.434,2.215-3.141,2.156L105.089,78.635L105.089,78.635z M108.064,65.338c-1.047,1.378-2.314,2.875-3.802,4.492
	c-0.111-0.18-0.359-0.418-0.744-0.719c-0.165-0.18-0.303-0.329-0.413-0.449c1.102-1.078,2.314-2.485,3.637-4.223L108.064,65.338
	L108.064,65.338z M106.742,61.564c-0.386,0.839-1.103,1.917-2.149,3.234c-0.056-0.059-0.111-0.12-0.166-0.18
	c-0.496-0.359-0.882-0.629-1.157-0.809c1.598-1.917,2.811-3.922,3.637-6.02l1.653,0.27c-0.055,0.18-0.165,0.419-0.331,0.719
	c-0.056,0.24-0.248,0.66-0.579,1.258h9.175v1.617l-1.24,2.875c-0.056,0-0.165-0.059-0.331-0.18c-0.496-0.18-0.882-0.329-1.157-0.449
	l1.075-2.336L106.742,61.564L106.742,61.564z M108.064,104.639c-1.212,0.84-2.479,1.617-3.802,2.336
	c-0.055-0.18-0.221-0.479-0.496-0.898c-0.221-0.418-0.386-0.688-0.496-0.809c1.708-0.898,3.306-1.855,4.794-2.875V92.151h1.736
	v8.805c2.038-1.736,3.939-3.773,5.703-6.109l1.405,1.168c-2.095,2.756-4.463,5.182-7.108,7.277v5.75
	c-0.056,1.199,0.523,1.766,1.736,1.707h1.984c1.211,0.059,1.873-0.389,1.983-1.348c0.11-0.598,0.275-1.855,0.496-3.773
	c0.166,0.061,0.44,0.15,0.827,0.27c0.385,0.18,0.661,0.301,0.827,0.359c-0.166,1.438-0.331,2.756-0.496,3.953
	c-0.276,1.617-1.434,2.395-3.472,2.336h-2.562c-2.149,0.12-3.169-0.958-3.059-3.234V104.639L108.064,104.639z M104.51,164.016
	c0.385,0.539,0.633,0.898,0.744,1.078l-0.248,0.09h4.876c0.22-0.299,0.55-0.776,0.992-1.438c0.166-0.359,0.302-0.598,0.414-0.719
	h-7.439C104.014,163.207,104.233,163.537,104.51,164.016L104.51,164.016z M108.56,75.131c-0.827-1.078-1.681-2.096-2.562-3.055
	l1.157-0.988c0.605,0.599,1.515,1.558,2.728,2.875L108.56,75.131z M108.312,178.391c-0.607-0.776-1.323-1.617-2.149-2.516
	l1.157-0.898c0.496,0.48,1.24,1.258,2.232,2.336L108.312,178.391z M107.981,202.239c-0.496,0.959-1.074,1.855-1.736,2.694h6.861
	c-0.662-0.838-1.213-1.735-1.653-2.694H107.981z M106.245,206.372v2.604h5.704v-2.604H106.245z M109.056,70.729
	c-0.607,0-1.24,0-1.901,0c0-0.059-0.029-0.149-0.083-0.27c0-0.299-0.083-0.749-0.248-1.348c0.385,0.06,0.937,0.09,1.653,0.09
	c0.937,0.06,1.377-0.359,1.322-1.258v-5.031h1.571v5.301C111.425,69.83,110.654,70.669,109.056,70.729L109.056,70.729z
	 M107.568,197.837v2.875h4.133v-2.875H107.568z M109.139,45.268v-9.614h1.571v1.168h6.364v1.167h-6.364v1.528h5.951v1.168h-5.951
	v1.527h6.86v1.168h-6.86v1.887L109.139,45.268L109.139,45.268z M116.165,69.83c-1.434-1.737-2.645-3.084-3.637-4.043l1.157-1.078
	c0.936,0.839,2.203,2.156,3.802,3.953L116.165,69.83z M116.33,76.838c-0.331-0.479-0.827-1.227-1.488-2.246
	c-0.662-0.958-1.186-1.707-1.571-2.246l1.24-0.898c1.323,1.738,2.397,3.234,3.224,4.492L116.33,76.838z M116.247,179.918
	c-0.552-0.898-1.269-2.035-2.149-3.414l1.405-0.719c0.11,0.18,0.275,0.42,0.496,0.719c0.827,1.318,1.405,2.188,1.736,2.605
	L116.247,179.918z M119.669,232.736v-1.617h3.802c-0.166-0.418-0.386-1.078-0.661-1.977c-0.166-0.418-0.276-0.748-0.331-0.988
	l1.57-0.449c0.11,0.301,0.302,0.84,0.579,1.617c0.22,0.719,0.385,1.258,0.496,1.617l-0.579,0.18h2.976v1.617h-4.546l-0.083,3.324
	h3.967c-0.055,1.379-0.111,3.772-0.165,7.188c-0.056,1.139-0.083,1.977-0.083,2.516c0,1.916-0.827,2.875-2.48,2.875
	c-0.551,0-1.157,0-1.818,0c0-0.061-0.028-0.18-0.083-0.357c0-0.24-0.083-0.689-0.248-1.35c0.385,0.062,0.963,0.09,1.736,0.09
	c0.992,0.062,1.459-0.479,1.405-1.617c0.054-1.076,0.109-2.783,0.165-5.119c0.054-1.197,0.083-2.066,0.083-2.605h-2.562
	c-0.056,5.152-0.855,8.984-2.397,11.5l-1.24-1.168c1.488-2.033,2.204-5.688,2.149-10.961c0.054-1.377,0.083-2.813,0.083-4.313
	h-1.735V232.736z M123.059,35.834c0.166,4.074-0.661,7.217-2.479,9.434c-0.111-0.061-0.248-0.211-0.414-0.449
	c-0.441-0.36-0.744-0.6-0.909-0.719c1.598-1.737,2.314-4.492,2.149-8.266v-4.852h17.606v1.438h-15.953V35.834L123.059,35.834z
	 M131.407,109.491c-1.764,1.377-4.023,2.665-6.778,3.863c-0.056-0.06-0.111-0.15-0.166-0.27c-0.386-0.719-0.661-1.199-0.826-1.438
	c2.754-1.078,4.876-2.215,6.364-3.414c-1.818-1.855-3.306-4.521-4.463-7.996c-0.386,5.152-2.066,9.404-5.042,12.758
	c-0.386-0.48-0.799-0.929-1.24-1.348c2.976-3.174,4.546-7.576,4.711-13.207c0-0.658,0.054-1.826,0.165-3.504h-3.719v-1.707h14.878
	v1.797l-2.231,4.313h4.133v1.707c-1.157,2.936-2.645,5.361-4.463,7.277c1.707,1.318,3.885,2.277,6.53,2.875
	c-0.166,0.299-0.386,0.719-0.662,1.258c-0.165,0.299-0.276,0.508-0.331,0.629C135.511,112.065,133.225,110.868,131.407,109.491
	L131.407,109.491z M119.339,62.014v-1.527h4.05v-2.605h1.57v2.605h3.555v-2.695h1.57v2.695h3.637v-2.605h1.571v2.605h3.967v1.527
	h-3.967v2.426h-1.571v-2.426h-3.637v2.426h-1.57v-2.426h-3.555v2.426h-1.57v-2.426H119.339z M120,69.381v-3.863h18.598v3.863h-1.571
	v-2.336h-15.374v2.336H120z M120.083,180.996v-17.52h2.232c0.165-0.599,0.385-1.468,0.661-2.605c0.11-0.479,0.192-0.809,0.248-0.988
	l1.736,0.27c-0.331,1.318-0.634,2.427-0.909,3.324h3.885v17.34h-1.653v-1.707h-4.546v1.888L120.083,180.996L120.083,180.996z
	 M121.157,214.458v-18.599h16.366v18.599h-1.736v-1.887h-12.812v1.887H121.157z M121.736,165.094v5.391h4.546v-5.391H121.736z
	 M121.736,172.102v5.48h4.546v-5.48H121.736z M121.736,28.826v-4.313h1.653v2.875h5.456v-3.594h1.653v3.594h5.538v-2.875h1.653
	v4.313H121.736z M122.149,77.556V69.92h6.365v-1.977h1.653v1.977h6.447v5.031c0.11,1.558-0.634,2.335-2.231,2.335
	c-0.386,0.059-1.157,0.09-2.314,0.09c-0.056-0.48-0.166-0.958-0.331-1.438c0.275,0,0.688,0.031,1.24,0.09c0.385,0,0.661,0,0.827,0
	c0.88,0.06,1.294-0.359,1.24-1.258v-3.324h-4.877v7.816h-1.653v-7.816h-4.794v6.109L122.149,77.556L122.149,77.556z
	 M125.208,143.312c0,2.096-0.717,3.653-2.149,4.672l-0.744-0.809c0.992-0.779,1.515-1.947,1.57-3.504h-1.405v-2.965h2.728
	C125.208,141.187,125.208,142.054,125.208,143.312L125.208,143.312z M122.976,197.657v13.116h12.812v-13.116H122.976z
	 M124.794,36.283v-1.527h12.729v1.527h-5.621v3.055h7.191v1.438h-7.191v4.492h-1.57v-4.492h-6.943v-1.438h6.943v-3.055H124.794z
	 M125.786,94.936c0,0.301,0,0.719,0,1.258c-0.056,0.6-0.083,1.049-0.083,1.348l0.331-0.449c1.376,4.492,3.141,7.816,5.29,9.973
	c1.653-1.617,2.976-3.652,3.967-6.109h-4.215V99.34l2.314-4.402h-7.604V94.936z M130.58,231.658
	c-0.661,1.379-1.488,2.695-2.479,3.953c-0.331-0.418-0.717-0.81-1.157-1.168c1.653-1.978,2.864-4.224,3.637-6.738l1.653,0.27
	c-0.111,0.359-0.331,0.959-0.662,1.797c-0.055,0.181-0.111,0.302-0.165,0.359h7.521v1.527H130.58L130.58,231.658z M138.845,247.65
	c-0.331,0.357-0.551,0.599-0.661,0.719c-3.306-2.574-5.125-6.559-5.456-11.949c-0.717,0.061-1.46,0.15-2.231,0.27v9.884
	c0.165-0.061,0.44-0.182,0.827-0.359c0.44-0.236,1.294-0.629,2.562-1.168c0,0.121,0,0.358,0,0.721
	c0.054,0.42,0.083,0.719,0.083,0.896c-1.269,0.479-2.453,1.02-3.554,1.616c-0.496,0.239-0.882,0.448-1.157,0.63l-0.909-1.35
	c0.44-0.479,0.633-1.018,0.579-1.617v-10.689c2.864-0.299,5.813-0.81,8.844-1.526l0.579,1.616c-1.212,0.359-2.618,0.63-4.215,0.81
	c0.275,1.617,0.523,2.996,0.744,4.133c0.55-0.299,1.35-0.809,2.397-1.527c0.44-0.238,0.744-0.418,0.909-0.539l0.909,1.438
	c-0.276,0.18-0.69,0.42-1.24,0.719c-1.047,0.601-1.874,1.078-2.48,1.438c0.771,2.037,2.121,3.715,4.05,5.03
	C139.313,247.021,139.12,247.291,138.845,247.65L138.845,247.65z M134.713,180.816c-1.157,0-2.314,0-3.472,0
	c-0.056-0.239-0.111-0.6-0.166-1.078c-0.111-0.301-0.165-0.539-0.165-0.719c1.046,0,2.149,0,3.306,0
	c1.598,0.119,2.397-0.658,2.397-2.336c0.166-5.33,0.248-9.193,0.248-11.591h-5.29c-0.551,1.318-1.103,2.517-1.653,3.595
	c-0.442-0.359-0.91-0.688-1.405-0.988c1.157-2.035,2.176-4.672,3.058-7.906l1.653,0.449c-0.111,0.48-0.304,1.139-0.579,1.977
	c-0.221,0.539-0.359,0.93-0.414,1.168h6.365c0,0.301,0,0.779,0,1.438c-0.111,5.569-0.221,9.612-0.331,12.129
	C138.211,179.469,137.027,180.757,134.713,180.816L134.713,180.816z M133.308,174.527c-0.992-1.617-2.039-3.203-3.141-4.762
	l1.24-0.988c0.165,0.24,0.44,0.6,0.826,1.078c1.046,1.498,1.873,2.694,2.48,3.594L133.308,174.527z M142.02,198.195v-1.438h3.306
	v-2.965h1.57v2.965h2.728v1.438h-2.728v2.605h1.157c1.323-1.438,2.451-3.023,3.389-4.762l1.322,0.809
	c-0.882,1.498-1.792,2.816-2.728,3.953h2.479v1.527h-3.802c-0.441,0.539-1.212,1.289-2.314,2.246c0.054,0,0,0.061-0.166,0.18h5.042
	v10.242h-1.488v-1.258h-5.125v1.258h-1.488v-7.906c-0.552,0.359-1.13,0.75-1.736,1.168c-0.056-0.18-0.166-0.449-0.331-0.809
	c-0.111-0.359-0.221-0.629-0.331-0.809c1.873-0.957,3.829-2.396,5.868-4.313h-5.538V200.8h4.215v-2.604L142.02,198.195
	L142.02,198.195z M143.673,169.945c-0.111-0.06-0.248-0.209-0.414-0.449c-1.047-0.957-1.847-1.707-2.397-2.246l1.075-1.258
	c0.936,0.84,1.873,1.707,2.81,2.605L143.673,169.945z M142.434,62.373v-1.617h7.77v-2.965h1.653v2.965h7.853v1.617h-7.853v5.93
	h8.927v1.617h-8.183c2.093,2.576,4.904,4.582,8.431,6.02c-0.111,0.18-0.276,0.449-0.496,0.809c-0.221,0.359-0.386,0.629-0.496,0.808
	c-3.748-1.676-6.476-3.803-8.183-6.378v8.086h-1.653v-8.086c-1.93,2.636-4.685,4.882-8.266,6.738
	c-0.221-0.48-0.552-0.988-0.992-1.527c3.306-1.617,6.117-3.773,8.431-6.469h-8.101v-1.617h8.927v-5.93L142.434,62.373
	L142.434,62.373z M144.004,108.413c-0.276,1.559-0.882,3.174-1.818,4.852c-0.386-0.48-0.799-0.988-1.24-1.527
	c0.827-1.438,1.35-2.814,1.57-4.133c0.22-1.258,0.331-3.354,0.331-6.289V93.05h14.961v10.063c0,4.133,0.192,6.619,0.579,7.457
	c0.11,0.359,0.302,0.508,0.579,0.449c0.22,0,0.358-0.21,0.413-0.629c0.166-1.557,0.275-2.785,0.331-3.684
	c0.441,0.18,0.91,0.359,1.405,0.539c-0.111,1.617-0.276,2.816-0.496,3.594c-0.221,1.438-0.855,2.156-1.901,2.156
	c-0.882-0.06-1.516-0.689-1.901-1.887c-0.442-1.078-0.662-3.742-0.662-7.996v-8.355H144.5v6.379
	C144.5,104.43,144.334,106.856,144.004,108.413L144.004,108.413z M143.59,178.031c-0.276,1.378-0.496,2.396-0.661,3.055l-1.57-0.539
	c0.661-2.336,1.267-5.031,1.818-8.086c0.166,0.061,0.44,0.18,0.827,0.359c0.275,0.121,0.523,0.211,0.744,0.27
	C144.527,174.049,144.141,175.695,143.59,178.031L143.59,178.031z M144.169,164.016c-0.441-0.479-1.074-1.106-1.901-1.887
	c-0.331-0.299-0.579-0.539-0.744-0.719l1.075-1.168c0.496,0.42,1.211,1.078,2.149,1.977c0.22,0.24,0.385,0.42,0.496,0.539
	L144.169,164.016z M146.484,67.584c-0.827-1.258-1.682-2.395-2.563-3.414l1.24-0.988c0.936,0.958,1.845,2.037,2.728,3.234
	L146.484,67.584z M146.896,245.314c0,2.096-0.717,3.651-2.149,4.672l-0.744-0.811c0.992-0.777,1.515-1.945,1.57-3.504h-1.405v-2.965
	h2.728C146.896,243.189,146.896,244.057,146.896,245.314L146.896,245.314z M146.897,41.314c0,2.096-0.717,3.652-2.149,4.671
	l-0.744-0.808c0.992-0.779,1.515-1.947,1.57-3.504h-1.405v-2.965h2.728C146.897,39.189,146.897,40.056,146.897,41.314
	L146.897,41.314z M145.326,165.273v-1.527h3.306c-0.111-0.539-0.359-1.438-0.744-2.695c-0.111-0.418-0.194-0.719-0.248-0.898
	l1.57-0.27c0.331,0.959,0.662,2.156,0.992,3.594l-0.909,0.271h3.058v1.526h-4.05c0,1.259-0.028,2.427-0.083,3.504h3.802
	c0,0.24,0,0.57,0,0.988c-0.111,3.773-0.221,6.529-0.331,8.267c0,1.737-0.772,2.604-2.314,2.604c-0.442,0-0.938,0-1.488,0
	l-0.248-1.617c0.275,0.061,0.579,0.061,0.909,0c0.166,0,0.275,0,0.331,0c0.992,0.061,1.459-0.358,1.405-1.258
	c0-0.418,0.027-1.078,0.083-1.977c0.11-2.574,0.166-4.402,0.166-5.48h-2.397c0,0.24,0,0.449,0,0.629
	c-0.111,4.553-0.965,7.996-2.562,10.332c-0.276-0.3-0.689-0.688-1.24-1.168c1.488-2.096,2.286-5.18,2.397-9.254
	c0.054-1.557,0.083-3.414,0.083-5.57L145.326,165.273L145.326,165.273z M154.418,110.749c-0.386-0.479-0.964-1.287-1.735-2.426
	c-0.882-1.438-1.571-2.484-2.066-3.146c-1.378,2.037-2.976,3.984-4.794,5.84c-0.111-0.121-0.303-0.3-0.579-0.539
	c-0.331-0.299-0.551-0.508-0.661-0.629c2.094-2.275,3.774-4.342,5.042-6.199l-4.298-6.199l1.322-0.988l3.968,5.66
	c1.046-1.617,2.121-3.623,3.223-6.02l1.405,0.809c-1.157,2.516-2.37,4.762-3.637,6.738c0.992,1.318,2.314,3.266,3.967,5.84
	c-0.111-0.119-0.028,0,0.248,0.359L154.418,110.749z M144.665,206.191v2.427h5.125v-2.427H144.665z M144.665,209.966v2.427h5.125
	v-2.427H144.665z M154.667,165.004c-0.661,1.318-1.213,2.307-1.653,2.965c-0.276-0.299-0.689-0.688-1.24-1.168
	c1.377-1.977,2.479-4.342,3.306-7.098l1.571,0.27c-0.331,1.021-0.662,1.978-0.992,2.875h5.373v1.527h-6.034
	C154.941,164.496,154.832,164.705,154.667,165.004L154.667,165.004z M152.765,173.809v-1.526h3.472v-1.349l2.48-2.694h-4.959v-1.527
	h6.612v1.707l-2.563,2.965v0.898h3.224v1.526h-3.224v4.582c0.055,1.617-0.716,2.426-2.314,2.426
	c-0.442,0.061-1.157,0.091-2.149,0.091c0-0.181-0.055-0.509-0.165-0.988c-0.056-0.3-0.083-0.539-0.083-0.719
	c0.385,0.06,1.046,0.09,1.983,0.09c0.827,0.06,1.211-0.358,1.157-1.258v-4.224H152.765L152.765,173.809z M153.592,215.268v-20.216
	h6.943v1.707l-2.232,6.38c1.818,1.737,2.699,3.594,2.646,5.569c0.054,2.457-0.909,3.715-2.893,3.772
	c-0.661,0.062-1.322,0.09-1.984,0.09c-0.055-0.657-0.165-1.286-0.331-1.887c0.55,0.062,1.157,0.09,1.818,0.09
	c1.211,0.062,1.79-0.657,1.736-2.155c0.054-1.617-0.827-3.384-2.645-5.302l2.232-6.647h-3.72v18.599H153.592z M157.312,65.248
	c-0.882,1.078-1.599,1.917-2.149,2.516l-1.157-1.168c1.046-1.137,2.011-2.276,2.893-3.414l1.24,1.078
	C157.973,64.5,157.697,64.83,157.312,65.248L157.312,65.248z M165.941,204.307c-1.157-1.138-2.26-2.156-3.306-3.056l1.075-1.349
	c1.157,0.959,2.314,1.947,3.472,2.966L165.941,204.307z M164.702,96.913c-0.221,1.857-0.496,3.805-0.827,5.84
	c-0.165-0.059-0.441-0.119-0.827-0.18c-0.165-0.059-0.303-0.09-0.413-0.09c0.385-2.096,0.661-4.043,0.827-5.84L164.702,96.913
	L164.702,96.913z M163.297,61.385v-1.797h19.011v1.797h-7.439c-0.827,1.558-1.736,2.965-2.728,4.223h1.405v13.656h-1.819V66.236
	c-2.095,2.636-4.74,5.121-7.935,7.457c-0.056-0.059-0.138-0.18-0.248-0.359c-0.442-0.598-0.744-0.988-0.909-1.168
	c4.683-3.234,8.072-6.828,10.167-10.781H163.297z M175.281,180.637L175.281,180.637c-1.708,0.062-2.535-0.748-2.479-2.426v-2.965
	v0.09c-0.607,2.816-3.666,4.792-9.175,5.93c-0.056-0.06-0.111-0.18-0.166-0.358c-0.221-0.599-0.413-1.019-0.579-1.259
	c5.014-0.957,7.741-2.455,8.183-4.491c0.331-0.898,0.523-2.007,0.579-3.324h1.653c-0.056,0.959-0.166,1.828-0.331,2.604h1.405v3.234
	c-0.056,1.02,0.468,1.497,1.571,1.438h3.141c0.992,0,1.542-0.39,1.653-1.168c0.165-0.598,0.275-1.496,0.331-2.694
	c0.275,0.121,0.688,0.301,1.24,0.539c0.166,0.062,0.275,0.09,0.331,0.09c0,0.062,0,0.149,0,0.271
	c-0.111,1.258-0.248,2.098-0.413,2.516c-0.221,1.316-1.13,1.977-2.728,1.977h-4.216V180.637z M165.941,211.493
	c-0.441,1.557-0.799,2.755-1.074,3.594l-1.736-0.629c1.046-2.994,1.873-5.688,2.479-8.086c0.22,0.062,0.496,0.149,0.827,0.271
	c0.385,0.18,0.661,0.301,0.827,0.358C166.987,207.96,166.547,209.458,165.941,211.493L165.941,211.493z M166.52,198.466
	c-1.268-1.315-2.343-2.336-3.224-3.055l1.157-1.259c0.275,0.24,0.716,0.63,1.323,1.169c0.881,0.778,1.542,1.379,1.983,1.797
	L166.52,198.466z M164.04,167.699v-7.277h1.571v7.277H164.04z M165.28,176.504v-7.367h14.382v7.098h-1.736v-5.479h-10.993v5.75
	L165.28,176.504L165.28,176.504z M168.586,99.159c-0.165-0.18-0.413-0.449-0.744-0.809c-0.386-0.299-0.661-0.539-0.827-0.719v15.633
	h-1.57V91.792h1.57v4.402l0.248-0.359c0.771,0.6,1.488,1.229,2.149,1.887L168.586,99.159z M174.537,196.85
	c-1.708,0.061-3.471,0.149-5.29,0.27c-0.055-0.238-0.111-0.568-0.165-0.988c-0.111-0.299-0.166-0.508-0.166-0.629
	c0.22,0,0.523,0,0.909,0c5.125-0.238,9.037-0.479,11.737-0.719l0.248,1.617c-1.818,0.18-3.692,0.301-5.621,0.358v3.773h6.447v1.707
	h-6.447v3.771h5.125v9.254h-1.736v-1.348h-8.431v1.348h-1.653v-9.254h5.042v-3.771h-6.282v-1.707h6.282L174.537,196.85
	L174.537,196.85z M168.669,167.789v-7.996h1.57v7.996H168.669z M169.248,94.936v-1.348h5.538v-1.797h1.653v1.797h5.951v1.348h-5.951
	v1.617h5.373v1.168h-5.373v1.707h6.282v1.348h-13.969v-1.348h6.034v-1.707h-4.959v-1.168h4.959v-1.617H169.248z M169.992,113.174
	v-10.871h11.324v8.176c0.054,1.676-0.772,2.516-2.479,2.516c-0.221,0-0.607,0-1.157,0c-0.772,0.059-1.322,0.09-1.653,0.09
	c-0.055-0.539-0.165-1.078-0.331-1.617c0.606,0.059,1.488,0.09,2.645,0.09c0.992,0.059,1.459-0.33,1.405-1.168v-0.988h-8.183v3.773
	L169.992,113.174L169.992,113.174z M174.538,163.746c-0.661,1.318-1.434,2.576-2.314,3.773c-0.442-0.479-0.882-0.838-1.323-1.078
	c1.488-1.797,2.645-4.043,3.472-6.738l1.653,0.18c-0.221,0.779-0.496,1.527-0.827,2.246h7.191v1.617H174.538L174.538,163.746z
	 M171.148,207.54v4.94h8.431v-4.94H171.148z M171.562,103.561v1.707h8.183v-1.707H171.562z M171.562,106.526v1.707h8.183v-1.707
	H171.562z M181.398,73.154c-3.086-2.456-5.318-4.192-6.695-5.211l1.075-1.348c1.157,0.779,2.893,2.037,5.208,3.773
	c0.771,0.599,1.322,1.019,1.653,1.257L181.398,73.154z M179.249,168.508c-1.599-1.258-3.004-2.305-4.216-3.145l1.075-1.078
	c1.102,0.719,2.534,1.738,4.298,3.055L179.249,168.508z M186.629,201.251c-0.331,0.24-0.661,0.51-0.992,0.81
	c-0.331-0.359-0.744-0.777-1.24-1.259c2.699-2.034,4.849-4.401,6.447-7.098l1.736,0.271c-0.331,0.6-0.717,1.229-1.157,1.887h8.018
	v1.527l-2.397,2.875h5.125v7.456h-13.886v3.324c-0.111,1.317,0.55,1.916,1.983,1.797h9.588c1.488,0.06,2.314-0.479,2.479-1.616
	c0-0.119,0.054-0.39,0.166-0.81c0.11-0.72,0.192-1.287,0.248-1.707c0.275,0.181,0.661,0.358,1.157,0.539
	c0.165,0,0.302,0.03,0.413,0.09c0,0.181-0.028,0.42-0.083,0.72c-0.166,0.959-0.304,1.616-0.414,1.977
	c-0.331,1.677-1.543,2.516-3.637,2.516h-10.498c-2.095,0.061-3.114-1.019-3.058-3.234v-10.063h0.002V201.251z M184.976,107.424
	v-1.438h8.431c0.054-0.18,0.083-0.449,0.083-0.809c0.054-0.359,0.083-0.629,0.083-0.809h1.736c-0.055,0.539-0.138,1.078-0.248,1.617
	h8.679v1.438h-8.101c1.046,2.156,3.912,3.473,8.597,3.953c-0.331,0.539-0.607,1.108-0.827,1.707
	c-4.794-0.779-7.798-2.336-9.01-4.672c-0.992,2.336-4.05,4.012-9.175,5.031c-0.386-0.839-0.661-1.408-0.827-1.707
	c5.125-0.779,7.989-2.215,8.596-4.313h-8.017V107.424L184.976,107.424z M184.646,165.184v-1.707h9.505
	c-0.221-0.897-0.607-2.006-1.157-3.324l1.818-0.358c0.22,0.539,0.55,1.349,0.992,2.426c0.166,0.48,0.275,0.81,0.331,0.988
	l-0.827,0.271h8.762v1.707h-12.233c0,1.258-0.056,2.547-0.166,3.862h9.836c-0.111,3.476-0.248,6.021-0.413,7.638
	c-0.056,2.694-1.461,4.013-4.216,3.953c-1.268,0-2.397,0-3.389,0c0-0.061,0-0.121,0-0.181c-0.111-0.778-0.221-1.349-0.331-1.707
	c0.331,0,0.827,0,1.488,0c0.827,0.06,1.459,0.09,1.901,0.09c1.873,0.181,2.81-0.688,2.81-2.604c0.11-0.898,0.22-2.484,0.331-4.762
	c0-0.3,0-0.539,0-0.72h-8.183c-0.166,4.492-2.095,8.026-5.786,10.603c-0.056-0.061-0.194-0.211-0.413-0.449
	c-0.496-0.479-0.799-0.809-0.909-0.988c3.581-2.336,5.399-5.75,5.455-10.242c0.166-1.438,0.248-2.934,0.248-4.492h-5.454V165.184z
	 M185.307,96.284v-1.527h5.456c-0.276-0.359-0.827-1.018-1.653-1.977c0.166,0.18,0.027,0-0.413-0.539l1.57-0.629
	c0.937,1.02,1.653,1.887,2.149,2.605l-1.24,0.539h4.877c0.827-0.898,1.625-1.916,2.397-3.055l1.736,0.539
	c-0.607,0.779-1.295,1.617-2.066,2.516h5.373v1.527h-8.266v2.156h7.274v1.438h-7.274v2.156h8.762v1.527H184.73v-1.527h8.762v-2.156
	h-7.191V98.44h7.191v-2.156H185.307z M185.638,78.994V58.959h17.441v16.98c0.11,1.916-0.772,2.875-2.645,2.875
	c-0.882,0.059-1.901,0.09-3.059,0.09c0-0.061,0-0.15,0-0.27c-0.056-0.359-0.166-0.898-0.331-1.617c0.55,0.059,1.459,0.09,2.728,0.09
	c1.212,0.059,1.763-0.42,1.653-1.438V60.576h-14.134v18.418H185.638z M197.374,197.479h-7.191c-0.772,0.959-1.626,1.887-2.563,2.785
	h7.356L197.374,197.479z M188.282,201.88v4.224h5.29v-4.224H188.282z M188.696,64.889v-1.617h11.407v1.617H188.696z M190.101,74.592
	v-7.098h8.514v7.098H190.101z M191.672,69.111v3.953h5.373v-3.953H191.672z M200.515,201.88h-5.373v4.224h5.373V201.88z
	 M225.677,98.889c-0.165,0.42-0.304,0.719-0.413,0.898c-0.331-0.18-0.827-0.418-1.488-0.719c-0.496-0.18-0.855-0.328-1.075-0.449
	v7.996h-11.82v4.492c1.763-0.3,3.389-0.629,4.876-0.988c0,0.48,0,0.988,0,1.527c-0.331,0.059-0.909,0.18-1.735,0.359
	c-1.599,0.418-2.591,0.659-2.976,0.719c-0.166,0.059-0.469,0.18-0.91,0.359c-0.331,0.059-0.551,0.12-0.661,0.18l-0.909-1.438
	c0.496-0.359,0.744-0.869,0.744-1.527v-11.41c-0.717,0.48-1.543,0.898-2.48,1.258c-0.056-0.18-0.248-0.508-0.579-0.988
	c-0.165-0.238-0.276-0.418-0.331-0.539c4.629-1.977,7.907-4.313,9.836-7.008l1.984,0.18c-0.221,0.24-0.413,0.51-0.579,0.809
	c2.149,2.396,5.125,4.223,8.927,5.48C226.035,98.26,225.896,98.53,225.677,98.889L225.677,98.889z M206.831,171.203v-1.617h9.34
	v1.617h-3.885v6.02c1.708-0.299,3.306-0.539,4.794-0.719c-0.056,0.48-0.083,1.049-0.083,1.707
	c-4.463,0.539-7.963,0.988-10.498,1.348l-0.413-1.526c0.331-0.06,0.854-0.119,1.57-0.181c1.267-0.18,2.259-0.328,2.976-0.449v-6.198
	L206.831,171.203L206.831,171.203z M206.087,72.436v-1.617h14.3v-1.797h1.736v1.797h3.967v1.617h-3.967v3.414
	c0.11,2.156-0.827,3.203-2.811,3.145c-1.268,0-2.287,0-3.058,0c-0.111-0.6-0.248-1.199-0.414-1.797c0.827,0,1.763,0,2.811,0
	c1.267,0.119,1.846-0.449,1.736-1.708v-3.054H206.087z M206.169,165.992v-1.707h11.159c-0.111-1.438-0.166-2.934-0.166-4.492h1.736
	c0,1.559,0.027,3.055,0.083,4.492h6.943v1.707h-6.86c0,0.6,0.054,1.469,0.165,2.605c0.055,0.358,0.083,0.629,0.083,0.809
	c0.331,3.594,0.909,6.26,1.736,7.996c0.496,1.139,1.128,1.707,1.901,1.707c0.496,0.06,0.881-0.301,1.157-1.078
	c0.22-1.137,0.385-2.156,0.496-3.055c0.165,0.061,0.385,0.149,0.661,0.27c0.385,0.18,0.661,0.301,0.827,0.359
	c-0.166,1.379-0.386,2.457-0.662,3.233c-0.441,1.558-1.295,2.306-2.562,2.246c-1.434,0-2.591-1.078-3.472-3.233
	c-0.827-1.978-1.405-4.763-1.736-8.355c-0.165-1.197-0.276-2.365-0.331-3.504H206.169z M210.054,200.173
	c-0.661,1.438-1.461,2.816-2.397,4.134c-0.166-0.181-0.579-0.509-1.24-0.988c-0.111-0.06-0.194-0.119-0.248-0.18
	c1.707-2.216,3.112-4.972,4.215-8.267l1.736,0.358c-0.386,1.14-0.799,2.218-1.24,3.234h4.794v-4.762h1.736v4.762h7.604v1.707h-7.604
	v5.031h6.943V207h-6.943v5.57h8.679v1.527h-19.837v-1.527h9.423V207h-7.274v-1.797h7.274v-5.031L210.054,200.173L210.054,200.173z
	 M207.823,68.123v-1.527h14.382V64.17h-13.638v-1.438h13.638v-2.336h-14.217v-1.527h15.87v9.254H207.823z M213.113,77.287
	c-0.331-0.3-0.882-0.838-1.653-1.617c-0.772-0.778-1.323-1.317-1.653-1.617l1.157-1.078c0.331,0.3,0.992,0.929,1.984,1.887
	c0.715,0.599,1.211,1.048,1.488,1.348L213.113,77.287z M222.123,98.35c-2.314-1.197-4.271-2.754-5.869-4.672
	c-1.599,1.797-3.554,3.355-5.869,4.672H222.123L222.123,98.35z M210.881,99.698v2.066h10.167v-2.066H210.881z M210.881,103.112
	v2.156h10.167v-2.156H210.881z M224.023,112.995c-2.039-0.958-5.318-2.365-9.836-4.223c-0.386-0.18-0.661-0.299-0.827-0.359
	l0.662-1.258c0.55,0.18,1.405,0.539,2.562,1.078c0.827,0.301,1.433,0.539,1.818,0.719c1.653-0.838,3.141-1.646,4.464-2.426
	l1.074,1.258c-1.599,0.898-2.838,1.527-3.719,1.887l4.546,1.887L224.023,112.995z M215.841,98.26
	c-0.221-0.777-0.524-1.557-0.909-2.336l1.488-0.449c0.385,0.84,0.688,1.617,0.909,2.336L215.841,98.26z M223.197,163.926
	c-1.047-1.197-1.93-2.096-2.646-2.695l1.157-1.078c0.165,0.181,0.496,0.48,0.992,0.898c0.881,0.84,1.459,1.408,1.736,1.707
	L223.197,163.926z M236.951,204.484v-3.504c-1.653,2.037-4.436,3.744-8.348,5.121c-0.165-0.479-0.441-1.018-0.827-1.617
	c3.472-0.897,6.144-2.245,8.018-4.043h-7.439v-1.438h8.596v-2.426c-0.772,0-1.957,0.031-3.554,0.09c-1.488,0-2.562,0-3.224,0
	c-0.055-0.598-0.138-1.078-0.248-1.438c4.738,0,9.863-0.209,15.374-0.629l0.248,1.526c-0.552,0-1.461,0.062-2.728,0.181
	c-1.874,0.061-3.306,0.12-4.298,0.18v2.516h8.679v1.438h-7.439c1.818,1.738,4.463,3.025,7.935,3.863
	c-0.331,0.539-0.607,1.049-0.827,1.527c-3.802-1.137-6.585-2.754-8.348-4.852v3.504L236.951,204.484L236.951,204.484z
	 M228.521,65.338v-3.863h4.463c-0.221-0.18-0.607-0.539-1.157-1.078c-0.661-0.659-1.157-1.137-1.488-1.438l1.405-0.719
	c0.275,0.24,0.688,0.629,1.24,1.168c0.771,0.66,1.322,1.138,1.653,1.438l-0.992,0.629h3.307v-3.684h1.653v3.684h3.141l-0.909-0.629
	c1.102-0.898,2.066-1.737,2.893-2.516l1.488,0.719c-0.441,0.48-1.13,1.078-2.066,1.797c-0.331,0.3-0.579,0.509-0.744,0.629h4.629
	v3.863h-1.653v-2.426h-15.209v2.426H228.521z M231.331,69.74v-5.031h12.895v5.031h-5.621v1.977h7.439V75.4
	c0.054,1.496-0.744,2.275-2.397,2.336c-0.441,0.059-1.213,0.09-2.314,0.09c-0.111-0.6-0.248-1.109-0.413-1.527
	c0.661,0,1.35,0,2.066,0c0.992,0.06,1.432-0.329,1.322-1.168v-1.887h-5.703v6.02h-1.736v-6.02h-5.621v4.492h-1.653v-6.02h7.273
	V69.74H231.331z M233.645,177.312c0,2.098-0.717,3.653-2.149,4.672l-0.744-0.809c0.992-0.777,1.515-1.945,1.57-3.504h-1.405v-2.965
	h2.728C233.645,175.188,233.645,176.055,233.645,177.312L233.645,177.312z M233.646,109.311c0,2.096-0.717,3.653-2.149,4.672
	l-0.744-0.809c0.992-0.779,1.515-1.947,1.57-3.504h-1.405v-2.965h2.728C233.646,107.186,233.646,108.053,233.646,109.311
	L233.646,109.311z M230.917,215.177v-9.883h13.638v9.883h-1.653v-0.896H232.57v0.896H230.917z M232.57,206.643v2.516h10.332v-2.516
	H232.57z M232.57,210.415v2.426h10.332v-2.426H232.57z M232.984,66.056v2.336h9.588v-2.336H232.984z M250.21,78.994v-17.52h2.231
	c0.166-0.598,0.385-1.467,0.662-2.605c0.109-0.479,0.192-0.809,0.248-0.988l1.735,0.27c-0.331,1.318-0.634,2.426-0.909,3.324h3.885
	v17.34h-1.653v-1.707h-4.546v1.887L250.21,78.994L250.21,78.994z M251.863,63.092v5.391h4.546v-5.391H251.863z M251.863,70.1v5.48
	h4.546V70.1H251.863z M255.334,211.312c0,2.097-0.717,3.653-2.149,4.672l-0.744-0.809c0.992-0.777,1.515-1.945,1.571-3.504h-1.405
	v-2.965h2.728C255.334,209.188,255.334,210.057,255.334,211.312L255.334,211.312z M264.841,78.814c-1.157,0-2.314,0-3.472,0
	c-0.056-0.24-0.111-0.6-0.165-1.078c-0.111-0.301-0.166-0.539-0.166-0.719c1.046,0,2.149,0,3.306,0
	c1.598,0.119,2.397-0.659,2.397-2.336c0.166-5.331,0.248-9.194,0.248-11.59h-5.29c-0.551,1.318-1.103,2.516-1.653,3.594
	c-0.442-0.359-0.909-0.688-1.405-0.988c1.157-2.036,2.176-4.672,3.058-7.906l1.653,0.449c-0.111,0.479-0.304,1.138-0.579,1.976
	c-0.221,0.54-0.359,0.93-0.413,1.168h6.364c0,0.3,0,0.779,0,1.438c-0.111,5.57-0.221,9.613-0.331,12.129
	C268.339,77.467,267.155,78.754,264.841,78.814L264.841,78.814z M263.436,72.525c-0.992-1.617-2.039-3.204-3.141-4.762l1.24-0.988
	c0.165,0.24,0.44,0.599,0.827,1.078c1.046,1.498,1.873,2.695,2.479,3.594L263.436,72.525z M273.636,79.264V66.955
	c-0.661,1.199-1.351,2.306-2.066,3.324c-0.111-0.299-0.221-0.719-0.331-1.258c-0.111-0.418-0.194-0.719-0.248-0.898
	c1.928-2.995,3.416-6.409,4.463-10.242l1.653,0.359c-0.607,1.917-1.24,3.684-1.901,5.301v15.723H273.636z M276.942,63.9v-1.618
	h5.621V57.88h1.653v4.402h6.117V63.9h-5.208c1.323,3.953,3.36,7.158,6.117,9.613c-0.386,0.48-0.717,1.048-0.992,1.707
	c-2.866-2.875-4.876-6.318-6.034-10.332v8.535h3.224v1.618h-3.224v4.223h-1.653v-4.223h-3.224v-1.618h3.224v-8.535
	c-1.268,4.373-3.252,7.937-5.951,10.691c-0.221-0.418-0.579-0.958-1.074-1.617c2.864-2.754,4.904-6.109,6.116-10.063L276.942,63.9
	L276.942,63.9z M296.152,73.783c-1.434,0.3-2.535,0.539-3.306,0.719l-0.083-1.707c1.433-0.18,2.976-0.418,4.629-0.719
	c0,0.48,0,0.988,0,1.527C297.115,73.664,296.702,73.724,296.152,73.783L296.152,73.783z M296.73,78.814c-0.717,0-1.461,0-2.232,0
	c0-0.539-0.083-1.109-0.248-1.707c0.496,0.059,1.267,0.09,2.314,0.09c1.157,0.059,1.708-0.42,1.653-1.438
	c0.165-1.377,0.248-3.383,0.248-6.02h-4.959l0.496-7.996h1.488l-0.414,6.379h2.232l0.579-7.637h-4.711v-1.527h6.282l-0.661,9.164
	h1.24c-0.056,1.138-0.138,3.055-0.248,5.75c-0.055,1.019-0.083,1.738-0.083,2.156C299.706,77.885,298.714,78.814,296.73,78.814
	L296.73,78.814z M312.931,64.889c-0.331,0.539-0.606,1.078-0.827,1.617c-2.369-1.617-4.271-3.684-5.702-6.199
	c-1.378,2.396-3.308,4.552-5.786,6.469c-0.056-0.18-0.194-0.449-0.413-0.809c-0.166-0.359-0.304-0.629-0.414-0.809
	c2.865-1.977,4.931-4.461,6.199-7.457l1.653,0.18c-0.166,0.359-0.331,0.689-0.496,0.988
	C308.688,61.505,310.617,63.511,312.931,64.889L312.931,64.889z M300.45,78.186v-1.527h7.273c0.992-3.114,1.736-5.719,2.232-7.816
	l1.488,0.449c-0.718,2.516-1.488,4.973-2.314,7.368h3.224v1.527L300.45,78.186L300.45,78.186z M302.682,75.49
	c-0.331-1.676-0.855-3.652-1.57-5.93l1.405-0.359c0.166,0.66,0.22,0.898,0.166,0.719c0.661,2.216,1.129,3.923,1.405,5.121
	L302.682,75.49z M302.186,67.224v-1.527h8.183v1.527H302.186z M306.236,74.412c-0.276-1.856-0.661-3.684-1.157-5.48l1.405-0.27
	c0.439,1.797,0.826,3.594,1.156,5.391L306.236,74.412z M319.908,78.545c-1.765-0.18-2.756-1.229-2.977-3.145
	c0.165-2.036,1.157-3.145,2.977-3.324c1.873,0.18,2.893,1.289,3.058,3.324C322.801,77.316,321.78,78.365,319.908,78.545
	L319.908,78.545z M319.908,73.423c-1.047,0.121-1.626,0.779-1.736,1.977c0.11,1.019,0.688,1.586,1.736,1.707
	c1.102-0.121,1.708-0.688,1.818-1.707C321.615,74.203,321.01,73.544,319.908,73.423L319.908,73.423z"/>
<path fill="#FFFFFF" d="M39.358,279.76l-2.066-3.594c-0.827,1.857-2.095,3.834-3.802,5.93c-0.386-0.6-0.744-1.106-1.075-1.527
	c1.708-1.977,3.003-4.012,3.885-6.107l-3.389-5.75l1.24-0.811c0.992,1.498,1.956,3.025,2.893,4.582
	c0.661-1.977,1.102-4.189,1.323-6.646h-5.373v-1.617h6.943v1.707c-0.331,3.115-0.938,5.9-1.818,8.355l2.645,4.4L39.358,279.76z
	 M32.746,233.635v-1.617h2.231v-4.133h1.57v4.133h1.901v1.617h-1.901v4.492l1.984-0.629c0,0.779,0.027,1.379,0.083,1.797
	l-2.066,0.629v6.738c0.055,1.557-0.661,2.336-2.149,2.336c-0.551,0-1.047,0-1.488,0c0-0.539-0.056-1.107-0.165-1.707
	c0.331,0,0.688,0,1.074,0c0.827,0.061,1.211-0.24,1.157-0.898v-6.02c-0.717,0.24-1.46,0.51-2.231,0.809l-0.166-1.887
	c0.771-0.238,1.57-0.479,2.397-0.719v-4.941H32.746z M43.409,243.068c0.054,2.875-1.599,4.94-4.959,6.2
	c-0.056-0.062-0.166-0.211-0.331-0.449c-0.331-0.359-0.552-0.659-0.661-0.898c2.976-0.898,4.435-2.516,4.38-4.852h-2.81v-1.349
	h10.25l-0.662,2.427h3.472l-0.331,2.516c-0.111,1.497-0.938,2.246-2.479,2.246c-0.442,0.06-1.434,0.09-2.976,0.09
	c-0.111-0.479-0.248-0.988-0.414-1.527c1.046,0.062,2.011,0.09,2.893,0.09c0.881,0.062,1.377-0.24,1.488-0.896l0.083-1.168h-3.637
	l0.661-2.427L43.409,243.068L43.409,243.068z M40.103,240.912v-6.738c-0.111,0.121-0.276,0.33-0.496,0.629
	c-0.111,0.24-0.414,0.629-0.909,1.168l-0.909-1.438c1.653-1.797,2.976-4.043,3.967-6.738l1.488,0.359
	c-0.331,0.897-0.689,1.707-1.074,2.426h4.05c-0.331-0.719-0.744-1.496-1.24-2.336l1.405-0.539c0.331,0.6,0.44,0.779,0.331,0.539
	c0.55,0.959,0.909,1.588,1.075,1.887l-1.075,0.449h5.29v1.258h-4.794v1.527h4.381v1.258h-4.381v1.527h4.381v1.168h-4.381v1.617
	h4.959v1.258H41.59v0.719H40.103L40.103,240.912z M45.971,274.459c-0.661,3.475-2.756,6.408-6.282,8.805
	c-0.111-0.18-0.303-0.42-0.579-0.719c-0.331-0.359-0.551-0.629-0.661-0.809c3.802-2.275,5.923-5.359,6.364-9.254
	c0.166-1.316,0.248-2.785,0.248-4.402h1.653c0,0.359-0.028,0.869-0.083,1.527c0,0.6,0,1.02,0,1.258
	c0.771,4.912,2.782,8.387,6.034,10.422c-0.442,0.539-0.827,1.078-1.157,1.617C48.533,280.688,46.687,277.873,45.971,274.459
	L45.971,274.459z M50.435,270.865c-0.386-0.238-0.882-0.418-1.488-0.539l1.571-3.684H43.41c-0.552,1.615-1.157,3.145-1.818,4.582
	c-0.221-0.119-0.524-0.301-0.91-0.539c-0.276-0.182-0.469-0.301-0.578-0.359c1.211-2.574,2.203-5.42,2.976-8.535l1.653,0.359
	c-0.111,0.42-0.276,1.02-0.496,1.797c-0.166,0.479-0.277,0.84-0.331,1.078h8.266v1.707L50.435,270.865z M41.59,231.838v1.527h4.05
	v-1.527H41.59z M41.59,234.623v1.527h4.05v-1.527H41.59z M41.59,237.318v1.617h4.05v-1.617H41.59z M60.552,275.717
	c-1.599,2.457-3.224,4.553-4.876,6.289c-0.111-0.061-0.331-0.24-0.661-0.539c-0.331-0.3-0.579-0.51-0.744-0.629
	c1.653-1.617,3.25-3.652,4.794-6.109L60.552,275.717L60.552,275.717z M63.527,230.939c-2.645,0.121-5.235,0.18-7.77,0.18
	c0-0.598-0.083-1.168-0.248-1.707c5.951-0.119,11.489-0.359,16.614-0.719l0.331,1.797c-2.314,0.061-4.711,0.18-7.191,0.359v4.043
	h7.274v1.616h-7.274v4.134h9.01v1.707h-9.01v3.594c0.054,1.977-0.882,2.965-2.81,2.965c-1.213,0-2.343,0-3.389,0
	c-0.055-0.479-0.165-1.108-0.331-1.887c0.606,0.06,1.625,0.09,3.059,0.09c1.211,0.06,1.79-0.479,1.735-1.617v-3.145h-9.175v-1.707
	h9.175v-4.134H55.84v-1.616h7.687V230.939L63.527,230.939z M55.758,273.291l1.075-9.613c4.904-0.059,9.946-0.359,15.126-0.898
	l0.496,1.707c-4.244,0.422-8.927,0.689-14.052,0.811l-0.744,6.379h6.034v-4.762h1.736v4.762h7.77v1.617h-7.77v6.646
	c0.11,1.979-0.772,2.965-2.645,2.965c-0.221,0-0.634,0-1.24,0c-0.662,0.062-1.13,0.092-1.405,0.092c0-0.12-0.056-0.33-0.166-0.629
	c-0.111-0.659-0.193-1.108-0.248-1.35c0.715,0.062,1.542,0.09,2.479,0.09c1.046,0.062,1.542-0.447,1.488-1.525v-6.289
	L55.758,273.291L55.758,273.291z M72.785,282.006c-1.764-2.336-3.389-4.432-4.877-6.289l1.323-0.988
	c2.093,2.639,3.773,4.672,5.042,6.109L72.785,282.006z M84.886,275.807c-1.157-1.676-2.343-3.203-3.554-4.582
	c-0.276,4.373-1.626,8.268-4.05,11.682c-0.166-0.182-0.496-0.479-0.992-0.898c-0.221-0.18-0.386-0.33-0.496-0.447
	c2.59-3.234,3.968-7.816,4.133-13.746c0-0.119,0-0.238,0-0.359c0.11-2.215,0.166-4.012,0.166-5.391h1.736
	c0,1.977-0.083,4.164-0.248,6.559l-0.083,0.898l0.331-0.359c1.598,1.857,3.03,3.594,4.298,5.211L84.886,275.807z M79.762,244.146
	c-0.386,1.678-1.13,3.354-2.232,5.03c-0.551-0.479-1.103-0.929-1.653-1.348c1.102-1.438,1.818-2.875,2.149-4.313
	c0.385-1.377,0.579-3.504,0.579-6.379v-6.02h8.101c-0.276-0.658-0.717-1.646-1.323-2.965l1.901-0.449
	c0.496,1.02,0.963,2.037,1.405,3.055l-1.074,0.359h8.1v1.797H80.34v4.312C80.34,240.283,80.146,242.59,79.762,244.146
	L79.762,244.146z M89.102,271.494c-0.386,4.373-2.343,8.266-5.869,11.68c-0.442-0.539-0.909-1.02-1.405-1.438
	c4.077-3.533,6.144-8.176,6.199-13.926c0.11-2.518,0.165-4.461,0.165-5.842h1.736c0,0.422,0,1.109,0,2.066
	c-0.055,0.959-0.083,1.678-0.083,2.154c0.385,7.311,2.451,12.342,6.199,15.096c-0.276,0.299-0.607,0.719-0.992,1.258
	c-0.111,0.182-0.194,0.299-0.248,0.357C91.609,280.15,89.708,276.346,89.102,271.494L89.102,271.494z M117.569,246.932
	c-0.221,0.658-0.359,1.14-0.414,1.438l0,0c-2.535,0-4.381,0-5.538,0c-1.378,0-2.618-0.03-3.72-0.09
	c-2.756-0.062-4.85-0.988-6.282-2.785c-0.276-0.238-0.552-0.238-0.827,0c-1.103,1.078-1.93,2.036-2.48,2.875l-0.826-1.797
	c0.165-0.181,0.413-0.449,0.744-0.81c0.661-0.72,1.129-1.228,1.405-1.528c0.661-0.657,1.184-0.987,1.57-0.987
	c0.054,0,0.166,0,0.331,0c0.11,0.062,0.192,0.09,0.248,0.09c4.353-2.875,8.237-6.108,11.655-9.703H99.054v-1.706h8.431
	c-0.331-1.019-0.882-2.216-1.653-3.595l1.736-0.539c0.827,1.617,1.405,2.875,1.736,3.772l-1.157,0.359h7.604v1.887
	c-3.748,4.193-7.964,7.759-12.646,10.691c1.102,1.379,2.782,2.099,5.042,2.156c1.211,0,3.278,0,6.199,0c1.488,0,2.589,0,3.306,0
	L117.569,246.932L117.569,246.932z M99.054,267.092v-1.617h7.77v-3.684h1.653v3.684h7.77v1.617h-7.77v3.953h8.927v1.707h-7.935
	c1.928,3.055,4.629,5.451,8.101,7.188l-1.075,1.527c-3.692-2.035-6.365-4.641-8.018-7.816v9.613h-1.653v-9.613
	c-1.984,3.477-4.684,6.199-8.1,8.178c-0.442-0.779-0.8-1.26-1.075-1.438c3.582-2.035,6.309-4.582,8.183-7.638h-8.018v-1.707h9.009
	v-3.953L99.054,267.092L99.054,267.092z M119.669,232.736v-1.617h3.802c-0.165-0.418-0.386-1.078-0.661-1.977
	c-0.166-0.418-0.276-0.748-0.331-0.988l1.57-0.449c0.11,0.301,0.302,0.84,0.579,1.617c0.22,0.719,0.385,1.258,0.496,1.617
	l-0.579,0.18h2.976v1.617h-4.546l-0.083,3.324h3.968c-0.056,1.379-0.111,3.772-0.166,7.188c-0.056,1.139-0.083,1.977-0.083,2.516
	c0,1.916-0.827,2.875-2.48,2.875c-0.551,0-1.157,0-1.818,0c0-0.061-0.028-0.18-0.083-0.357c0-0.24-0.083-0.689-0.248-1.35
	c0.385,0.062,0.963,0.09,1.736,0.09c0.992,0.062,1.459-0.479,1.405-1.617c0.054-1.076,0.11-2.783,0.165-5.119
	c0.054-1.197,0.083-2.066,0.083-2.605h-2.563c-0.056,5.152-0.855,8.984-2.397,11.5l-1.24-1.168
	c1.488-2.033,2.203-5.688,2.149-10.961c0.054-1.377,0.083-2.813,0.083-4.313h-1.734V232.736z M121.653,283.264v-12.578
	c-0.607,1.258-1.24,2.486-1.901,3.686c-0.165-0.777-0.331-1.527-0.496-2.246c1.653-2.994,2.92-6.438,3.802-10.332l1.57,0.449
	c-0.442,1.615-0.909,3.176-1.405,4.672v16.354h-1.57V283.264z M124.546,276.166v-3.324h14.547v3.324h-1.488v-1.887h-11.572v1.887
	H124.546z M125.042,265.475v-1.438h6.282c-0.056-0.299-0.166-0.777-0.331-1.438c-0.056-0.238-0.111-0.418-0.166-0.539l1.653-0.182
	c0.054,0.182,0.109,0.42,0.165,0.721c0.166,0.6,0.275,1.076,0.331,1.438h5.951v1.438H125.042z M126.447,277.604v-1.438h10.746v1.438
	h-3.968v3.057c0.054,1.557-0.634,2.306-2.066,2.246c-0.441,0.06-1.351,0.09-2.728,0.09c0-0.062-0.028-0.182-0.083-0.359
	c-0.056-0.537-0.138-0.959-0.248-1.258c0.496,0.061,1.267,0.09,2.314,0.09c0.826,0,1.24-0.328,1.24-0.986v-2.875h-5.207
	L126.447,277.604L126.447,277.604z M126.612,271.314v-4.313h10.415v4.313H126.612z M130.58,231.658
	c-0.661,1.379-1.488,2.695-2.479,3.953c-0.331-0.418-0.717-0.81-1.157-1.168c1.653-1.978,2.865-4.224,3.637-6.738l1.653,0.27
	c-0.111,0.359-0.331,0.959-0.661,1.797c-0.056,0.181-0.111,0.302-0.166,0.359h7.522v1.527H130.58L130.58,231.658z M128.1,268.26
	v1.707h7.439v-1.707H128.1z M138.845,247.65c-0.331,0.357-0.551,0.599-0.661,0.719c-3.306-2.574-5.125-6.559-5.455-11.949
	c-0.717,0.061-1.461,0.15-2.232,0.27v9.884c0.166-0.061,0.44-0.182,0.827-0.359c0.44-0.236,1.294-0.629,2.563-1.168
	c0,0.121,0,0.358,0,0.721c0.054,0.42,0.083,0.719,0.083,0.896c-1.269,0.479-2.453,1.02-3.554,1.616
	c-0.496,0.239-0.882,0.448-1.157,0.63l-0.909-1.35c0.44-0.479,0.633-1.018,0.579-1.617v-10.689c2.864-0.299,5.813-0.81,8.844-1.526
	l0.579,1.616c-1.213,0.359-2.618,0.63-4.216,0.81c0.275,1.617,0.523,2.996,0.744,4.133c0.55-0.299,1.35-0.809,2.397-1.527
	c0.44-0.238,0.744-0.418,0.909-0.539l0.909,1.438c-0.276,0.18-0.688,0.42-1.24,0.719c-1.047,0.601-1.874,1.078-2.479,1.438
	c0.771,2.037,2.121,3.715,4.05,5.03C139.313,247.021,139.121,247.291,138.845,247.65L138.845,247.65z M142.351,270.506v-7.727h8.761
	v7.727h-7.191l1.488,0.27c-0.221,0.48-0.496,0.988-0.827,1.527h7.274c0,1.021-0.056,2.756-0.166,5.211
	c-0.056,0.719-0.083,1.258-0.083,1.617c-0.056,2.336-1.047,3.504-2.976,3.504c-0.276,0-0.69,0.029-1.24,0.09
	c-0.386,0-0.662,0-0.827,0c0-0.061-0.028-0.18-0.083-0.357c-0.056-0.539-0.139-0.959-0.248-1.26
	c0.331,0.062,0.992,0.092,1.983,0.092c1.267,0.117,1.928-0.658,1.984-2.338c0.11-1.914,0.166-3.65,0.166-5.211h-3.885l1.24,0.271
	c-0.056,0.121-0.111,0.303-0.166,0.539c-0.111,0.301-0.194,0.51-0.248,0.629c0.275,0.24,0.716,0.629,1.323,1.168
	c0.55,0.539,0.963,0.932,1.24,1.168l-0.992,1.078c-0.662-0.775-1.378-1.525-2.149-2.246c-0.441,0.898-1.074,1.648-1.901,2.246
	c-0.442-0.479-0.772-0.811-0.992-0.986c1.376-0.957,2.231-2.246,2.562-3.863h-2.645c-0.331,0.42-0.689,0.869-1.074,1.348h0.909
	v4.223h4.959v1.349h-6.365v-5.03l-0.496,0.448c-0.055-0.06-0.138-0.209-0.248-0.448c-0.221-0.359-0.413-0.629-0.579-0.811
	c1.377-1.258,2.397-2.664,3.059-4.223h-1.567V270.506z M143.755,264.127v1.887h5.869v-1.887H143.755z M143.755,267.271v1.887h5.869
	v-1.887H143.755z M146.896,245.314c0,2.096-0.717,3.651-2.149,4.672l-0.744-0.811c0.992-0.777,1.515-1.945,1.571-3.504h-1.405
	v-2.965h2.728C146.896,243.189,146.896,244.057,146.896,245.314L146.896,245.314z M156.154,274.818
	c-0.386,3.354-1.708,6.139-3.967,8.354c-0.331-0.42-0.717-0.868-1.157-1.348c2.534-2.035,3.912-5.15,4.133-9.346
	c0.165-1.258,0.22-2.693,0.165-4.312h1.571c0,1.258-0.056,2.396-0.166,3.414c0.606,4.373,2.066,7.668,4.381,9.883
	c-0.056,0.062-0.111,0.149-0.165,0.271c-0.221,0.3-0.524,0.72-0.91,1.259C158,280.838,156.704,278.113,156.154,274.818
	L156.154,274.818z M159.543,270.506c-0.496-0.119-0.965-0.27-1.405-0.449l1.157-3.594h-4.546c-0.496,1.617-1.103,3.145-1.819,4.582
	c-0.386-0.359-0.826-0.688-1.322-0.988c1.267-2.336,2.231-5.09,2.893-8.266l1.488,0.27c-0.221,1.021-0.469,1.979-0.744,2.875h5.538
	v1.617L159.543,270.506z M168.09,282.545c-1.764-0.18-2.756-1.229-2.976-3.145c0.166-2.035,1.157-3.146,2.976-3.324
	c1.873,0.18,2.893,1.289,3.059,3.324C170.983,281.316,169.962,282.365,168.09,282.545L168.09,282.545z M168.09,277.424
	c-1.047,0.121-1.626,0.779-1.736,1.977c0.11,1.021,0.688,1.589,1.736,1.707c1.102-0.118,1.708-0.688,1.818-1.707
	C169.797,278.203,169.191,277.545,168.09,277.424L168.09,277.424z"/>
</svg>
