<?xml version="1.0" encoding="utf-8"?>
<!-- Generator: Adobe Illustrator 16.0.0, SVG Export Plug-In . SVG Version: 6.00 Build 0)  -->
<!DOCTYPE svg PUBLIC "-//W3C//DTD SVG 1.1//EN" "http://www.w3.org/Graphics/SVG/1.1/DTD/svg11.dtd">
<svg version="1.1" id="图层_1" xmlns="http://www.w3.org/2000/svg" xmlns:xlink="http://www.w3.org/1999/xlink" x="0px" y="0px"
	 width="640px" height="750px" viewBox="0 0 640 750" enable-background="new 0 0 640 750" xml:space="preserve">
<path fill="#9DDFFE" d="M336,299h248c2.761,0,5,2.24,5,5v80c0,2.761-2.239,5-5,5H336c-2.761,0-5-2.239-5-5v-80
	C331,301.24,333.239,299,336,299z"/>
<g display="none">
	<g display="inline">
		<g>
			<defs>
				<rect id="SVGID_1_" width="640" height="750"/>
			</defs>
			<clipPath id="SVGID_2_">
				<use xlink:href="#SVGID_1_"  overflow="visible"/>
			</clipPath>
		</g>
	</g>
</g>
<path fill="#F48510" d="M336,388c-2.206,0-4-1.794-4-4v-80c0-2.206,1.794-4,4-4h248c2.206,0,4,1.794,4,4v80c0,2.206-1.794,4-4,4H336
	"/>
<polygon fill="#52B1DF" points="576,284 586,285.467 576,295 "/>
<rect x="486" y="257" fill="#7CD2FC" width="100" height="29"/>
<path fill="#FFFFFF" d="M504.314,277.578c2.296-0.094,3.75-1.359,4.357-3.797l1.828,0.422c-0.891,3.047-2.93,4.593-6.117,4.641
	c-4.032-0.235-6.164-2.555-6.396-6.961c0.187-4.781,2.364-7.289,6.539-7.523c2.672,0.094,4.568,1.453,5.693,4.078l-1.758,0.422
	c-0.844-2.015-2.204-3.047-4.078-3.094c-2.857,0.281-4.43,2.274-4.711,5.977C499.86,275.352,501.407,277.297,504.314,277.578
	L504.314,277.578z M522.443,278.633v-1.266h-7.242V264.57h-1.617v14.063H522.443z M525.871,278.633h1.547V264.57h-1.547V278.633z
	 M537.391,277.578c2.297-0.094,3.75-1.359,4.359-3.797l1.828,0.422c-0.891,3.047-2.93,4.593-6.117,4.641
	c-4.032-0.235-6.164-2.555-6.398-6.961c0.188-4.781,2.366-7.289,6.539-7.523c2.674,0.094,4.57,1.453,5.695,4.078l-1.758,0.422
	c-0.844-2.015-2.204-3.047-4.078-3.094c-2.859,0.281-4.43,2.274-4.711,5.977C532.938,275.352,534.483,277.297,537.391,277.578
	L537.391,277.578z M556.143,278.633l-5.062-7.242l-2.813,2.813v4.43h-1.615V264.57h1.615v7.664l7.523-7.664h2.25l-5.977,5.836
	l6.258,8.227H556.143z M563.236,278.563v-2.039h-2.182v2.039H563.236z M569.76,278.563v-2.039h-2.18v2.039H569.76z M576.283,278.563
	v-2.039h-2.18v2.039H576.283z"/>
<g>
	<polygon fill="#F78B3C" points="584,388 553.75,388 454.75,300 584,300 	"/>
	<path fill="#F78B3C" d="M455,300h129c2.206,0,4,1.794,4,4v80c0,2.206-1.794,4-4,4"/>
</g>
<path fill="#FFD598" d="M364.523,365.327c-0.203,3.725-2.438,5.688-6.703,5.891c-3.793,0-6.096-1.793-6.906-5.383l2.336-0.609
	c0.406,2.777,1.861,4.164,4.367,4.164c3.047,0,4.57-1.422,4.57-4.266c-0.203-2.438-1.764-3.723-4.674-3.859
	c-0.947,0-1.559,0-1.826,0v-1.828c0.27,0,0.607,0,1.016,0c2.91-0.067,4.434-1.354,4.57-3.859c-0.139-2.166-1.287-3.283-3.453-3.352
	c-2.305,0.068-3.691,1.355-4.164,3.859l-2.234-0.711c0.813-3.317,2.91-5.01,6.297-5.078c3.859,0.136,5.855,1.896,5.992,5.281
	c-0.068,2.234-1.219,3.758-3.453,4.57C362.965,360.96,364.387,362.687,364.523,365.327L364.523,365.327z M370.396,371.015v-1.523
	h4.977v-18.688h-6.805v20.211H370.396z M373.748,352.53v6.602h-3.352v-6.602H373.748z M370.396,360.96h3.352v6.703h-3.352V360.96z
	 M382.381,364.007c-0.812,2.844-3.285,5.281-7.414,7.313c0.271,0.338,0.711,0.914,1.32,1.727c4.469-2.438,7.109-5.45,7.922-9.039
	h6.703v-7.82h-4.773l2.539-3.352v-1.727h-6.297c0.338-0.744,0.711-1.455,1.117-2.133l-2.031-0.305
	c-1.016,2.438-2.676,4.74-4.977,6.906c0.338,0.271,0.643,0.576,0.914,0.914v7.516H382.381z M386.545,352.835l-2.539,3.352h-5.383
	c0.947-1.016,1.828-2.133,2.641-3.352H386.545z M382.787,362.28h-3.555v-4.469h4.062c0,1.625-0.137,2.98-0.406,4.063L382.787,362.28
	z M389.084,372.437c1.625,0.066,2.572-0.711,2.844-2.336c0.137-0.406,0.271-1.184,0.406-2.336c0-0.067,0-0.135,0-0.203
	c-0.609-0.203-1.152-0.406-1.625-0.609c0,0.203-0.035,0.542-0.102,1.016c-0.068,0.746-0.139,1.253-0.203,1.523
	c-0.139,0.879-0.68,1.285-1.625,1.219h-1.625c-0.949,0-1.391-0.373-1.32-1.117v-4.773h-1.828v5.078
	c-0.066,1.76,0.846,2.605,2.742,2.539L389.084,372.437L389.084,372.437z M385.123,357.812h3.961v4.469h-4.469
	c0-0.067,0.033-0.135,0.102-0.203C384.852,361.062,384.986,359.64,385.123,357.812L385.123,357.812z M408.863,364.108h-2.846
	v-13.813h-1.625l-9.75,14.422v1.219h9.346v4.977h2.029v-4.977h2.846V364.108z M403.582,354.562c0.066-0.135,0.135-0.305,0.203-0.508
	c0.135-0.203,0.203-0.338,0.203-0.406v10.461h-6.906C400.332,359.167,402.498,355.983,403.582,354.562L403.582,354.562z
	 M423.27,352.226c0,1.693-0.066,3.725-0.201,6.094h-10.768v2.031h10.563c-0.68,4.537-4.232,8.092-10.664,10.664
	c0.406,0.406,0.879,1.016,1.422,1.828c6.229-2.574,9.783-6.127,10.664-10.664c1.219,4.875,4.875,8.328,10.969,10.359
	c0.066-0.137,0.203-0.373,0.406-0.711c0.338-0.543,0.643-0.982,0.914-1.32c-6.094-1.557-9.717-4.942-10.867-10.156h10.664v-2.031
	h-11.07c0.066-1.354,0.104-3.385,0.104-6.094h9.646v-2.031h-21.328v2.031H423.27z"/>
<path fill="#FFFFFF" d="M352.92,340.287v-12.422c-0.392,0.079-0.978,0.274-1.758,0.586c-0.469,0.157-0.82,0.274-1.055,0.352
	c-0.157-0.39-0.433-0.976-0.82-1.758c-0.234-0.546-0.431-0.976-0.586-1.289c4.53-1.015,8.086-2.421,10.664-4.219h-9.729v-2.695
	h11.721v-2.344c-2.425,0-4.261,0-5.51,0c-1.404,0-2.693,0.04-3.865,0.117c-0.079-1.014-0.234-1.913-0.471-2.695
	c7.892,0,15.354-0.235,22.385-0.703l0.469,2.813c-3.047,0.079-6.29,0.196-9.729,0.352v2.461h11.721v2.695h-9.846
	c2.578,1.798,6.096,3.125,10.547,3.984c-0.077,0.234-0.232,0.547-0.469,0.937c-0.157,0.392-0.431,1.055-0.818,1.993
	c-0.471-0.077-1.057-0.234-1.76-0.469c-0.392-0.156-0.703-0.273-0.938-0.352v12.656h-3.398v-1.172H356.2v1.172H352.92z
	 M361.357,326.342v-3.281c-1.8,1.563-4.104,2.97-6.914,4.218h17.461c-2.972-1.093-5.393-2.538-7.268-4.335v3.398H361.357z
	 M356.201,329.857v2.344h13.477v-2.344H356.201z M356.201,334.428v2.344h13.477v-2.344H356.201z M382.217,326.928
	c-1.329-1.952-2.501-3.593-3.516-4.922l2.812-1.523c1.249,1.406,2.499,2.97,3.75,4.688L382.217,326.928z M386.318,332.084
	c-0.234,0.234-0.433,0.392-0.586,0.469c-0.394-0.859-0.665-1.562-0.82-2.11c-0.394,1.564-0.979,4.063-1.758,7.5
	c-0.234,1.014-0.394,1.796-0.471,2.344l-3.516-0.938c0.938-3.047,1.796-6.522,2.578-10.43c0.857,0.392,1.796,0.703,2.812,0.938
	l-0.115-0.469c2.653-1.483,4.726-3.319,6.211-5.507h-5.273v-2.813h4.805v-2.93h-3.633v-2.813h3.633v-2.93h3.164v2.93h5.039v-2.93
	h3.164v2.93h4.104v2.813h-4.104v2.93h5.156v2.813H401.2c1.406,2.109,3.396,3.711,5.977,4.805l-1.405,3.047
	c-1.721-0.938-3.163-1.952-4.337-3.047v5.625h-10.076v1.055c0,1.095,0.586,1.641,1.758,1.641h7.266c1.249,0,1.992-0.469,2.229-1.406
	c0-0.156,0.036-0.39,0.115-0.703c0-0.234,0.117-0.938,0.354-2.109c0.938,0.392,1.913,0.703,2.93,0.938
	c-0.233,1.485-0.469,2.578-0.703,3.281c-0.469,1.796-1.915,2.695-4.336,2.695h-9.021c-2.346,0-3.558-1.134-3.634-3.399v-5.742
	C387.842,330.952,387.177,331.459,386.318,332.084L386.318,332.084z M382.92,319.076c-0.392-0.625-0.978-1.523-1.758-2.695
	c-0.703-0.938-1.251-1.679-1.641-2.227l2.93-1.524l3.633,4.688L382.92,319.076z M391.357,329.271v2.578h7.029v-2.578H391.357z
	 M394.053,323.881c-0.626,1.016-1.289,1.954-1.992,2.813h7.617c-0.703-0.859-1.329-1.796-1.875-2.813H394.053z M393.35,318.139v2.93
	h5.039v-2.93H393.35z M409.639,325.053h17.109v2.93h-17.109V325.053z M429.326,317.436v-2.696h12.305
	c-0.234-0.858-0.469-1.6-0.703-2.226l4.104-0.352c0.077,0.313,0.192,0.782,0.352,1.406c0.077,0.469,0.155,0.86,0.234,1.171h11.953
	v2.696L429.326,317.436L429.326,317.436z M436.943,337.24v-6.211h13.125v6.211h0.818c1.406,0.077,2.069-0.469,1.992-1.641v-6.211
	h-18.75v10.782h-3.396v-13.477h25.547v9.844c0.077,2.265-1.097,3.437-3.518,3.515c-1.095,0.077-2.578,0.118-4.453,0.118
	c-0.077-0.158-0.115-0.431-0.115-0.82c-0.234-0.861-0.433-1.564-0.586-2.109L436.943,337.24L436.943,337.24z M433.545,325.17v-6.211
	h19.805v6.211H433.545z M436.943,321.186v1.875h13.008v-1.875H436.943z M440.225,333.138v2.109h6.445v-2.109H440.225z
	 M459.678,319.779v-3.047h3.518c0.077-0.546,0.192-1.366,0.352-2.461c0.077-0.78,0.155-1.407,0.234-1.875l3.164,0.352l-0.586,3.984
	h4.451v3.047h-5.154c-0.86,3.984-2.695,8.126-5.508,12.422c-0.234-1.406-0.55-2.851-0.938-4.336
	c1.483-2.421,2.616-5.116,3.398-8.086H459.678z M463.428,337.826c-0.78,0.077-1.521,0.234-2.227,0.469l-1.172-2.227
	c0.077-0.077,0.192-0.194,0.352-0.351c0.78-0.703,1.289-1.366,1.523-1.992c1.796-3.827,3.164-7.383,4.102-10.664l2.93,0.82
	c-1.72,4.532-3.319,8.32-4.805,11.367l3.984-0.351l-1.523-4.688l2.461-0.585c0.392,1.25,0.938,2.93,1.643,5.039
	c0.469,1.563,0.856,2.813,1.172,3.75l-2.461,0.703l-0.586-1.875c-0.548,0.077-1.368,0.155-2.461,0.234
	C465.028,337.63,464.052,337.747,463.428,337.826L463.428,337.826z M472.1,340.404v-16.289c-0.155,0.234-0.431,0.626-0.818,1.172
	c-0.394,0.469-0.703,0.86-0.938,1.171c-0.157-0.858-0.548-2.03-1.172-3.515c2.344-2.968,4.062-6.484,5.156-10.547l3.281,0.468
	c-0.079,0.158-0.157,0.352-0.234,0.586c-0.548,1.719-1.055,3.008-1.523,3.867h4.337c-0.156-0.704-0.549-1.796-1.173-3.281
	c-0.155-0.312-0.272-0.546-0.352-0.703l3.047-0.586c0.703,1.485,1.249,2.97,1.641,4.453l-0.469,0.117h4.453v2.813h-4.922v3.281
	h4.453v2.813h-4.453v3.516h4.453v2.695h-4.453v3.516h5.039v2.578h-12.305v1.875H472.1L472.1,340.404z M475.146,320.131v3.281h4.219
	v-3.281H475.146z M475.146,326.225v3.516h4.219v-3.516H475.146z M475.146,332.436v3.516h4.219v-3.516H475.146z M490.146,325.053
	h17.107v2.93h-17.107V325.053z M513.936,340.287v-12.422c-0.392,0.079-0.978,0.274-1.758,0.586
	c-0.469,0.157-0.818,0.274-1.055,0.352c-0.157-0.39-0.431-0.976-0.82-1.758c-0.232-0.546-0.431-0.976-0.586-1.289
	c4.53-1.015,8.086-2.421,10.664-4.219h-9.727v-2.695h11.719v-2.344c-2.423,0-4.259,0-5.508,0c-1.406,0-2.695,0.04-3.867,0.117
	c-0.079-1.014-0.234-1.913-0.469-2.695c7.89,0,15.352-0.235,22.383-0.703l0.469,2.813c-3.047,0.079-6.29,0.196-9.727,0.352v2.461
	h11.719v2.695h-9.844c2.578,1.798,6.094,3.125,10.547,3.984c-0.079,0.234-0.234,0.547-0.469,0.937
	c-0.157,0.392-0.433,1.055-0.82,1.993c-0.469-0.077-1.055-0.234-1.758-0.469c-0.394-0.156-0.703-0.273-0.938-0.352v12.656h-3.396
	v-1.172h-13.479v1.172H513.936z M522.373,326.342v-3.281c-1.798,1.563-4.102,2.97-6.914,4.218h17.461
	c-2.97-1.093-5.391-2.538-7.266-4.335v3.398H522.373z M517.217,329.857v2.344h13.479v-2.344H517.217z M517.217,334.428v2.344h13.479
	v-2.344H517.217z M543.232,326.928c-1.329-1.952-2.501-3.593-3.518-4.922l2.813-1.523c1.249,1.406,2.499,2.97,3.75,4.688
	L543.232,326.928z M547.334,332.084c-0.234,0.234-0.431,0.392-0.586,0.469c-0.393-0.859-0.665-1.562-0.82-2.11
	c-0.392,1.564-0.978,4.063-1.758,7.5c-0.234,1.014-0.392,1.796-0.469,2.344l-3.518-0.938c0.938-3.047,1.797-6.522,2.578-10.43
	c0.858,0.392,1.796,0.703,2.813,0.938l-0.117-0.469c2.655-1.483,4.726-3.319,6.211-5.507h-5.273v-2.813h4.807v-2.93h-3.633v-2.813
	h3.633v-2.93h3.164v2.93h5.039v-2.93h3.164v2.93h4.102v2.813h-4.102v2.93h5.154v2.813h-5.508c1.406,2.109,3.398,3.711,5.979,4.805
	l-1.406,3.047c-1.72-0.938-3.164-1.952-4.336-3.047v5.625h-10.078v1.055c0,1.095,0.586,1.641,1.758,1.641h7.268
	c1.248,0,1.99-0.469,2.227-1.406c0-0.156,0.038-0.39,0.117-0.703c0-0.234,0.117-0.938,0.352-2.109
	c0.938,0.392,1.913,0.703,2.931,0.938c-0.233,1.485-0.47,2.578-0.702,3.281c-0.47,1.796-1.915,2.695-4.336,2.695h-9.023
	c-2.344,0-3.556-1.134-3.633-3.399v-5.742C548.857,330.952,548.192,331.459,547.334,332.084L547.334,332.084z M543.936,319.076
	c-0.392-0.625-0.978-1.523-1.758-2.695c-0.703-0.938-1.251-1.679-1.641-2.227l2.93-1.524l3.633,4.688L543.936,319.076z
	 M552.373,329.271v2.578h7.031v-2.578H552.373z M555.068,323.881c-0.626,1.016-1.289,1.954-1.992,2.813h7.617
	c-0.703-0.859-1.329-1.796-1.875-2.813H555.068z M554.365,318.139v2.93h5.039v-2.93H554.365z"/>
<path fill="#F48C45" d="M588,344v40c0,2.206-1.794,4-4,4H336"/>
<path fill="#FC9127" d="M553.75,388H584c2.206,0,4-1.794,4-4v-40l-70,12.223L553.75,388z"/>
</svg>
