<svg xmlns="http://www.w3.org/2000/svg" width="640" height="107.5" viewBox="0 0 640 107.5"><path fill="#FFFB9A" d="M53.568 72.675v-4.297h2.056v-14.438h3.953c.104-.457.262-1.203.474-2.234.104-.916.21-1.604.316-2.063l4.428.344c0 .231-.055.516-.158.859-.212.688-.529 1.719-.949 3.094h5.376v31.796c0 .457-.054.916-.158 1.375 3.057-2.979 4.428-7.963 4.111-14.952v-6.875h12.808v18.563c0 1.146.368 1.661 1.107 1.547h.316c.736.114 1.159-.457 1.265-1.72.21-2.52.316-5.041.316-7.563 1.265.459 2.317.859 3.163 1.203-.212 3.438-.422 6.131-.632 8.078-.316 2.862-1.636 4.297-3.953 4.297h-1.897c-2.636.112-3.901-1.375-3.795-4.469v-15.295h-4.427v2.234c.316 8.364-1.423 14.608-5.218 18.733-.529-.574-1.636-1.662-3.32-3.266-.316 1.719-1.53 2.635-3.637 2.75h-3.795l-.474-2.578c-.106-.688-.213-1.263-.316-1.719h2.846c1.369.111 2.001-.457 1.897-1.719v-11.685h-5.692c0 7.679-.949 13.808-2.846 18.392-1.48-1.377-2.587-2.467-3.323-3.267 1.581-3.666 2.317-8.707 2.214-15.125h-2.056zm6.009-14.611v10.313h5.692v-10.313h-5.692zm2.371 8.767c-.316-.916-.791-2.119-1.423-3.608-.316-.916-.581-1.604-.791-2.063l2.688-1.548.949 2.063c.736 1.49 1.265 2.638 1.581 3.438l-3.004 1.718zm.158 15.297l-2.372-6.017 2.846-1.547c.316.804.842 2.121 1.581 3.953.42.918.736 1.605.949 2.063l-3.004 1.548zm8.54-21.483v-4.642h7.432c-.212-.688-.529-1.719-.949-3.094-.316-1.031-.581-1.832-.791-2.406l4.902-.688c.316 1.031.736 2.406 1.265 4.125.316.918.526 1.605.632 2.063h7.274v4.642h-19.765zm49.773 24.061c-2.636 1.487-5.641 2.979-9.013 4.469l-1.739-3.266c-2.11.456-5.534 1.144-10.278 2.063-1.162.229-2.056.399-2.688.516l-.791-4.641c.526-.113 1.527-.285 3.004-.517 5.06-.801 8.697-1.433 10.911-1.892 0 .459-.054 1.031-.158 1.72v1.547c3.479-1.488 6.483-2.979 9.013-4.47-.845-3.094-1.371-5.672-1.581-7.733l-6.167.858-.633-4.469 6.167-.858c-.106-1.604-.264-3.15-.474-4.642l-4.902.517-.316-2.75c-3.795 6.418-6.483 10.827-8.064 13.233 2.107-.344 4.479-.629 7.116-.858 0 .459-.054 1.146-.158 2.063 0 .918-.054 1.604-.158 2.062-5.376.688-9.226 1.262-11.543 1.719l-1.423-3.953c1.159-.916 2.108-1.947 2.847-3.094.104-.113.262-.4.474-.859.736-1.031 1.581-2.463 2.53-4.297-2.003 0-3.795.172-5.376.516l-1.265-4.297c.736-.688 1.423-1.547 2.056-2.578 1.685-3.094 3.424-6.815 5.218-11.171l4.585 1.547c-1.161 2.178-2.794 5.156-4.902 8.938-.845 1.375-1.423 2.351-1.739 2.922l3.953-.172 2.214-4.297 3.479 1.719v-.688l5.218-.688c-.212-2.979-.316-5.957-.316-8.938h4.586c0 3.094.104 5.902.316 8.422l6.799-.859c-.845-.801-2.162-1.947-3.953-3.438-.528-.344-.896-.628-1.107-.859l2.847-3.094c.526.344 1.265.918 2.213 1.719 1.369.918 2.372 1.662 3.004 2.234l-2.846 3.438 5.218-.688.474 4.297-12.492 1.547c0 .574.052 1.318.158 2.234 0 1.146.052 1.949.158 2.406l12.808-2.063.474 4.469-12.65 2.063c.316 2.062.736 3.896 1.265 5.5 2.214-1.719 4.531-3.838 6.958-6.359l3.004 2.922c-2.953 3.094-5.747 5.73-8.381 7.906.843 2.521 2.001 3.781 3.479 3.781.736 0 1.317-.629 1.739-1.892.316-1.375.685-3.094 1.107-5.155.21.114.578.287 1.107.516 1.265.803 2.159 1.318 2.688 1.547-.316 2.062-.739 3.896-1.265 5.5-.845 2.979-2.636 4.469-5.376 4.469-3.06.112-5.536-1.834-7.433-5.844zm30.65-4.125l-3.163-4.47v14.609h-3.953v-14.092c-.949 2.979-2.372 5.959-4.269 8.938-.316-1.832-.791-3.724-1.423-5.672 2.107-2.636 3.899-6.302 5.376-11h-4.744v-4.297h5.06v-14.61h3.953v14.609h4.428v4.297h-4.428v4.642l1.74-1.548c1.159 1.49 2.634 3.438 4.427 5.845l-3.004 2.749zm-10.436-17.875c-.529-2.636-1.265-5.558-2.214-8.766l2.688-.859c.21.688.526 1.778.949 3.267.633 2.405 1.107 4.184 1.423 5.327l-2.846 1.031zm11.701-4.47c-.632 2.063-1.107 3.554-1.423 4.47l-2.688-1.031c1.053-2.979 1.897-5.844 2.53-8.594l2.846.859c-.212.919-.632 2.35-1.265 4.296zm1.582-1.888v-3.267h8.539v-3.266h4.427v3.266h9.33v3.267h-9.33v2.405h8.381v2.922h-8.381v2.406h9.962v3.267h-23.402v-3.267h9.013v-2.406h-7.748v-2.922h7.748v-2.405h-8.539zm.791 34.375v-21.142h20.082v15.297c.104 3.666-1.478 5.5-4.744 5.5h-2.056c-1.265.112-2.32.172-3.163.172-.212-1.489-.528-2.864-.949-4.125 1.053.112 2.582.173 4.586.173 1.475.111 2.159-.576 2.056-2.063v-.688h-11.702v6.875l-4.11.001zm4.11-17.875v2.577h11.702v-2.577h-11.702zm0 5.5v2.577h11.702v-2.577h-11.702zm22.419-8.939v-4.47h5.534v-14.952h4.111v14.953h4.902v4.47h-4.902v2.063-.173c1.475 1.146 3.424 2.81 5.851 4.984l-.158.172h8.854v-3.095h4.428v3.095h9.487v4.469h-9.487v9.798h-4.428v-9.798h-8.854v-4.297l-2.214 3.608c-1.161-1.26-2.32-2.52-3.479-3.78v14.267h-4.111v-13.75c-1.161 3.094-2.688 5.901-4.585 8.422-.212-.916-.633-2.578-1.265-4.984-.106-.229-.158-.4-.158-.516 2.317-2.863 4.163-6.359 5.535-10.484l-5.061-.002zm2.371-6.186c-.316-1.261-.896-3.15-1.739-5.673l-.949-3.094 2.846-.859c1.053 3.209 1.897 6.131 2.53 8.766l-2.688.86zm13.283-8.595c-.739 2.521-1.794 5.442-3.163 8.767l-2.688-1.031c.316-.916.842-2.406 1.581-4.469.633-1.947 1.107-3.378 1.423-4.297l2.847 1.03zm8.539 18.22c-.529-.572-1.265-1.488-2.214-2.75-.528-.572-.896-1.031-1.106-1.375-.949 1.719-2.11 3.553-3.479 5.5-.949-1.146-1.952-2.234-3.004-3.267 2.74-3.207 4.531-6.761 5.376-10.656l3.953.517c-.316 1.375-.687 2.692-1.107 3.953 1.265 1.375 2.476 2.809 3.637 4.297 2.001-2.635 3.373-5.558 4.111-8.767l4.111.517c-.422 1.375-.791 2.637-1.107 3.781.632.688 1.527 1.719 2.688 3.094.843 1.031 1.475 1.776 1.897 2.233l-2.53 3.609c-1.055-1.604-2.32-3.267-3.795-4.984-.739 1.49-1.688 2.98-2.846 4.47-.739-1.031-1.582-2.063-2.53-3.095l-2.055 2.923zm-7.907-13.75v-4.47h8.223c-.106-.688-.371-1.775-.791-3.266-.106-.457-.212-.8-.316-1.031l4.902-.688c.104.688.316 1.662.632 2.922l.475 2.063h7.748v4.47h-20.873zM56.746 35.875c-.403 1.688-1.179 3.406-2.329 5.156-.633-.563-1.266-1.094-1.897-1.594 2.012-2.375 2.933-6 2.76-10.875v-6.469h8.194c-.172-.5-.461-1.25-.862-2.25-.173-.312-.289-.563-.345-.75l2.415-.469c.574 1.188 1.005 2.25 1.294 3.188l-1.035.281h8.28v2.156h-15.871v4.406c0 3.189-.203 5.596-.604 7.22zm22.407 1.407c-.862.876-1.754 1.906-2.673 3.094l-.863-2.25c.518-.624 1.294-1.5 2.329-2.625.632-.624 1.178-.938 1.639-.938.114 0 .229.032.345.094h.259c4.369-2.813 8.28-6.031 11.73-9.656h-14.664v-2.063h8.453c-.23-.624-.604-1.562-1.121-2.813-.173-.437-.317-.75-.431-.938l2.242-.469c.459 1.063 1.005 2.407 1.639 4.031l-.604.188h7.245v2.25c-3.739 4.188-8.021 7.844-12.852 10.969 1.035 1.312 2.644 2.001 4.83 2.062 2.07.063 5.404.032 10.005-.094-.288.687-.489 1.406-.604 2.156h-5.865c-1.496-.063-2.818-.126-3.967-.188-2.704 0-4.773-.938-6.21-2.812-.288-.247-.575-.247-.862.002zm20.165-13.125v-1.969h3.709c-.289-1.062-.604-2.093-.949-3.094l1.983-.469c.173.688.518 1.875 1.035 3.563h2.415v1.969h-4.658l-.086 3.188h4.14c0 3.375-.086 6.75-.259 10.125 0 2-.834 3-2.501 3h-1.897l-.431-1.969h1.725c.977.062 1.437-.437 1.38-1.5.114-3.249.172-5.813.172-7.688h-2.415c0 5.313-.806 9.218-2.415 11.719l-1.466-1.407c1.437-2 2.156-5.656 2.156-10.969l.086-4.5-1.724.001zm11.557-1.219c-.748 1.375-1.639 2.719-2.674 4.031-.633-.687-1.093-1.156-1.38-1.406 1.725-2.063 2.989-4.374 3.795-6.938l1.984.188-.518 1.406c-.173.438-.289.75-.345.938h7.763v1.781h-8.625zm8.28 16.5l-.776.844c-3.221-2.75-5.06-6.875-5.52-12.375-.69.062-1.38.157-2.07.281v9.844c1.208-.624 2.329-1.125 3.364-1.5v.938c.057.438.086.75.086.938-1.208.437-2.415.999-3.623 1.688-.116.062-.259.125-.431.188-.461.249-.748.437-.863.563l-1.121-1.688c.518-.438.747-1.031.69-1.781v-10.971c3.105-.249 6.21-.75 9.315-1.5l.69 1.969c-1.323.313-2.76.563-4.313.75.173 1.5.402 2.813.69 3.938 1.15-.624 2.271-1.313 3.364-2.063l.949 1.688c-1.208.75-2.444 1.469-3.708 2.156.747 2.063 2.098 3.782 4.054 5.156-.116.187-.375.499-.777.937zm3.174-14.25v-1.969h2.415v-4.406h1.897v4.406h1.983v1.969h-1.983v4.594l1.983-.656v2.063l-1.983.656v6.563c.057 1.562-.633 2.375-2.07 2.438l-1.983.094v-.281c-.058-.438-.173-1.094-.345-1.969.345.062.863.094 1.553.094s1.005-.281.949-.844v-5.44l-2.415.75-.26-2.25 2.674-.656v-5.156h-2.415zm7.676 15.937v-13.687c-.116.188-.317.501-.604.938-.288.375-.518.688-.69.938-.058-.249-.202-.624-.431-1.125-.172-.5-.317-.844-.431-1.031 1.667-2.124 3.075-4.937 4.226-8.438l1.984.375c0 .063-.03.157-.086.281-.575 1.626-1.064 2.782-1.466 3.469h4.485c-.634-1.562-1.151-2.687-1.553-3.375l1.897-.562c.747 1.626 1.264 2.812 1.553 3.562l-1.38.375h5.261v1.781h-4.657v3.188h4.399v1.875h-4.399v3.188h4.399v1.781h-4.399v3.281h4.83v1.594h-11.04v1.594h-1.898v-.002zm1.898-16.5v3.188h4.313v-3.188h-4.313zm0 5.063v3.188h4.313v-3.188h-4.313zm0 4.969v3.281h4.313v-3.281h-4.313zm13.868-12.188v-1.875h5.347v-1.875h1.984v1.875h5.692v-1.875h1.984v1.875h5.261v1.875h-5.261v1.594h-1.984v-1.594h-5.692v1.406l1.294.188c-.058.063-.116.188-.173.375l-.345.75h11.902v1.875h-12.85c-.518.938-1.237 2.063-2.156 3.375v10.594h-1.897v-8.156c-.863 1-1.812 1.969-2.846 2.906-.116-.375-.317-.938-.604-1.688-.058-.188-.116-.343-.172-.469 2.07-1.749 3.881-3.938 5.434-6.563h-4.744v-1.875h5.692l.604-1.219h-1.122v-1.5l-5.348.001zm6.296 13.125v-1.781h6.642v-.75l3.105-2.25h-8.366v-1.781h11.212v1.781l-3.968 2.719v.281h5.348v1.781h-5.348v2.719c.057 1.625-.776 2.468-2.501 2.531h-1.208c-.92.062-1.639.094-2.156.094-.116-.688-.259-1.375-.431-2.063.401 0 .919.031 1.552.094h1.38c.977.062 1.437-.344 1.38-1.219v-2.156h-6.641zm18.096-8.625c-.173 1-.345 1.75-.518 2.25-.172-.125-.461-.281-.863-.469-.23-.062-.403-.125-.517-.188.632-1.937 1.063-4.5 1.293-7.688l1.466.188c-.058.313-.116.782-.172 1.406-.116.688-.202 1.188-.259 1.5h1.639v-5.156h1.897v5.156h1.984v1.969h-1.984v4.594l1.984-.656c0 .876.057 1.594.172 2.156l-2.156.656v8.438h-1.897v-7.875l-3.536 1.219-.259-2.25 3.795-1.125v-5.156h-1.811c-.058.25-.144.595-.258 1.031zm7.244-3.469v-1.875h4.485v-2.906h1.983v2.906h4.571v1.875h-4.571v3.094h5.434v1.875h-12.765v-1.875h5.348v-3.094h-4.485zm-.69 9.657v-1.875h7.935v-1.969h1.897v1.969h2.76v1.875h-2.76v4.875c.057 1.875-.834 2.812-2.674 2.812-.92.062-1.869.094-2.846.094l-.259-1.406c-.058-.313-.116-.563-.172-.75.574.062 1.408.094 2.501.094 1.035 0 1.552-.438 1.552-1.313v-4.406h-7.934zm3.278 4.968c-.058-.062-.116-.155-.173-.281-.978-1.312-1.783-2.281-2.415-2.906l1.294-1.219c.977 1 1.897 2.032 2.76 3.094l-1.466 1.312zm13.092-10.687c-.345-.437-.806-.938-1.38-1.5 2.76-2.187 4.944-4.625 6.555-7.313l2.243.281c-.116.188-.317.501-.604.938-.23.375-.431.688-.604.938h8.28v1.781l-2.415 2.813h5.089v7.969h-14.404v3.188c-.058 1.251.632 1.875 2.07 1.875h9.833c1.494.062 2.299-.5 2.415-1.688 0-.125.057-.406.173-.844.114-.75.201-1.343.259-1.781.747.313 1.38.532 1.897.656 0 .188-.03.438-.086.75-.116 1.063-.259 1.813-.431 2.25-.345 1.749-1.639 2.593-3.881 2.531h-10.781c-2.358.062-3.508-1.063-3.45-3.375v-10.125l-.778.656zm11.903-4.781h-7.072c-.806.938-1.639 1.844-2.501 2.719h7.245l2.328-2.719zm-9.143 4.687v4.125h5.261v-4.125h-5.261zm12.42 0h-5.175v4.125h5.175v-4.125zm7.745 0v-7.5h6.9v7.5h-1.984v3.563h2.156v1.781h-2.156v4.406c.863-.062 1.695-.188 2.501-.375v1.875c-1.035.188-2.531.469-4.485.844-1.668.312-2.933.53-3.795.656l-.345-2.062 1.121-.094v-8.438h1.553v8.156l1.725-.188v-10.124h-3.191zm1.725-5.719v3.938h3.364v-3.938h-3.364zm17.854 8.719c-.23.563-.403 1-.518 1.313-2.242-.75-4.054-1.594-5.434-2.531-1.553 1.063-3.45 2.001-5.692 2.813-.058-.249-.202-.624-.432-1.125-.172-.312-.288-.563-.345-.75 1.839-.563 3.506-1.313 5.002-2.25-.806-.75-1.582-1.812-2.329-3.188-.403.625-.92 1.313-1.553 2.063-.345-.563-.69-1.093-1.035-1.594 1.552-2 2.788-4.156 3.708-6.469l1.987.374c-.345.75-.69 1.438-1.035 2.063h6.641v1.969c-1.035 2.001-2.186 3.595-3.45 4.781 1.322.813 2.875 1.438 4.657 1.875-.057.126-.116.344-.172.656zm-10.868 10.781v-8.906h9.488v8.906h-1.897v-1.406h-5.692v1.406h-1.899zm1.898-7.031v3.938h5.692v-3.938h-5.692zm3.019-7.406c1.149-1.062 2.098-2.344 2.846-3.844h-5.52l-.086.094c.746 1.563 1.667 2.812 2.76 3.75zm15.421 7.031c-2.473.25-4.515.532-6.124.844l-.604-1.781c.518-.437.977-.968 1.38-1.594l1.208-1.969c.401-.562.69-.999.862-1.312-1.323 0-2.415.062-3.277.188l-.604-1.781c.345-.375.69-.812 1.035-1.313.805-1.313 1.839-3.406 3.105-6.281l1.984.656-1.553 2.813c-1.035 1.938-1.783 3.25-2.243 3.938l2.588-.094c.459-.875.891-1.688 1.293-2.438l1.812.844c-1.783 3.063-3.394 5.688-4.83 7.875.459-.062 1.149-.125 2.07-.188.977-.125 1.667-.188 2.07-.188 0 .25-.03.532-.086.844 0 .438-.03.75-.086.937zm-3.795 5.25l-2.846.563-.345-1.969c.345-.062 1.005-.188 1.984-.375 2.472-.437 4.254-.75 5.348-.938 0 .313-.03.719-.086 1.219v.844c-.75.063-2.101.281-4.055.656zm4.83-12.656l-.172-1.969 3.105-.375c-.116-1.688-.173-3.406-.173-5.156h1.984c0 1.813.057 3.469.172 4.969l7.073-.938.172 1.875-7.159.938c0 .75.057 1.469.172 2.156l.086.938 7.331-1.125.173 1.875-7.245 1.125c.229 1.375.518 2.625.862 3.75 1.092-.812 2.415-2.063 3.968-3.75l1.38 1.219c-1.668 1.813-3.221 3.281-4.658 4.406.69 1.626 1.523 2.438 2.501 2.438.518 0 .862-.343 1.035-1.031 0-.125.028-.312.086-.563.287-1.062.459-1.875.518-2.438.172.126.574.344 1.208.656l.518.281c-.172 1.125-.403 2.125-.69 3-.403 1.562-1.294 2.344-2.674 2.344-1.61 0-2.99-1.125-4.14-3.375-.116.063-.316.157-.604.281-1.956 1.125-3.594 1.969-4.917 2.531-.172-.25-.403-.688-.69-1.313-.172-.313-.288-.532-.345-.656 2.126-.688 4.082-1.625 5.865-2.813-.461-1.374-.834-2.937-1.121-4.688l-3.795.656-.259-1.969 3.795-.563-.086-.938c-.116-.687-.172-1.406-.172-2.156l-3.104.378zm9.142-3.469l-.259-.281c-.69-.563-1.582-1.28-2.674-2.156l1.208-1.407c.518.375 1.322 1 2.415 1.875.287.188.488.344.604.469l-1.294 1.5z"/><path fill="#FCF657" d="M32 20h10v70h-10z"/></svg>