<svg xmlns="http://www.w3.org/2000/svg" width="640" height="80" viewBox="0 0 640 80"><path fill="#F0ED97" d="M54.119 71.501v-13.751l-1.046.376c-.93.334-1.627.625-2.093.874-.232-.831-.621-1.665-1.162-2.5 4.572-1.25 8.253-3.04 11.043-5.374h-10.23v-2.25h11.974v-3.125c-1.24.083-2.597.125-4.068.125h-5.464c-.078-.916-.194-1.666-.349-2.251 5.656 0 12.942-.249 21.855-.749l.349 2.25c-1.938.168-5.193.334-9.765.5v3.25h11.974v2.25h-10.23c2.401 2.168 6.045 3.834 10.928 5-.465.918-.854 1.75-1.163 2.5-5.348-1.667-9.184-3.791-11.509-6.376v4.376h-2.558v-4.376c-2.17 2.251-4.922 4.044-8.253 5.376h19.181v13.875h-2.558v-1.25h-14.299v1.25h-2.557zm2.557-11.625v3.125h14.299v-3.125h-14.299zm0 5.125v3h14.299v-3h-14.299zm28.218-8.375c-.389-.416-.93-1.083-1.627-2.001-1.008-1.165-1.784-2.082-2.325-2.749l2.093-1.5c1.395 1.418 2.79 2.958 4.185 4.625l-2.326 1.625zm.814 7.75c-.622 3.25-1.086 5.625-1.395 7.125l-2.79-.875c.93-3.416 1.782-7.25 2.558-11.5.387.167.968.375 1.744.625.387.084.657.167.813.25-.157.834-.465 2.292-.93 4.375zm0-15.875c-1.241-1.666-2.52-3.25-3.836-4.75l2.209-1.5c.309.334.735.834 1.279 1.5 1.162 1.25 2.052 2.293 2.673 3.125l-2.325 1.625zm3.255-1v-2.375h3.72v-3.376h2.441v3.376h5.58v-3.376h2.558v3.376h4.417v2.375h-4.417v3.75h5.464v2.375h-5.929c1.549 2.584 3.68 4.583 6.394 5.999l-.349.751c-.232.334-.543.918-.93 1.75-1.86-1.25-3.371-2.541-4.534-3.875v6.624h-10.114v1.626c-.078 1.334.541 1.957 1.86 1.875h7.44c1.317 0 2.131-.501 2.441-1.5.232-.667.387-1.666.465-3.001.232.085.542.209.93.375l1.395.376c-.156 1.25-.389 2.374-.698 3.375-.389 1.915-1.744 2.831-4.068 2.75h-8.835c-2.249 0-3.372-1.168-3.372-3.501v-6.999c-.93.918-1.938 1.749-3.022 2.5-.311-.832-.697-1.666-1.163-2.5 2.79-1.75 4.959-3.957 6.51-6.625h-5.464v-2.375h4.999v-3.75h-3.719zm4.301 11.875v3.375h7.672v-3.375h-7.672zm2.558-5.75c-.698 1.25-1.473 2.418-2.325 3.499h8.951c-.775-1.081-1.511-2.249-2.208-3.499h-4.418zm-.698-6.125v3.75h5.58v-3.75h-5.58zm34.272 10.5v-2.5h-16.159v2.5h16.159zm8.819-3.251c.154 7.669-.93 13.291-3.255 16.876l-1.977-2c1.163-1.832 1.898-3.791 2.209-5.875.387-2.001.581-5.041.581-9.126v-11.374h25.227v2h-22.785v9.499zm1.395-5.874v-1.875h20.692v1.875h-10.462l-.465 1.625h9.532v10.5h-11.509c-.465.583-.97 1.168-1.511 1.75h12.555v2c-1.551 1.418-3.255 2.499-5.115 3.25 2.169.499 4.805.916 7.905 1.25-.232.416-.505 1-.814 1.75-.078.166-.116.291-.116.375-4.496-.668-7.789-1.418-9.881-2.251-2.557 1.001-6.277 1.876-11.16 2.626-.311-.919-.622-1.625-.93-2.125 3.564-.418 6.626-.96 9.184-1.625-1.162-.416-2.597-1.333-4.301-2.75-1.086.918-2.325 1.749-3.72 2.5-.311-.501-.776-1.083-1.395-1.751 2.79-1.331 4.959-2.999 6.51-4.999h-3.72v-10.5h6.045l.349-1.625h-7.673zm3.72 3.249v1.501h13.253v-1.501h-13.253zm0 2.876v1.499h13.253v-1.499h-13.253zm0 2.875v1.5h13.253v-1.5h-13.253zm6.975 9.25c1.86-.751 3.564-1.625 5.115-2.625h-9.881c1.395 1.084 2.982 1.958 4.766 2.625zm16.011 4.375v-22.751h2.79v22.751h-2.79zm4.418-23.626c-.698-1.165-1.9-2.749-3.604-4.749l2.325-1.5c.309.334.736.834 1.279 1.5 1.239 1.417 2.092 2.418 2.558 3l-2.558 1.749zm15.81 23.25h-4.883c-.078-.333-.156-.833-.232-1.499l-.349-1.5h1.627c1.317.081 2.247.081 2.79 0 1.782.166 2.596-.583 2.441-2.25v-19.125h-12.904v-3h15.81v22.874c.156 3.001-1.278 4.5-4.3 4.5zm26.251-13.124v-2.5h-16.159v2.5h16.159zm8.46-1.375c-1.008-1-2.441-2.291-4.301-3.876.154.085 0-.041-.465-.374l1.86-2c.541.418 1.355 1.043 2.441 1.874 1.084.918 1.898 1.584 2.441 2.001l-1.976 2.375zm1.86 3.5c-1.163 4.334-2.208 8.081-3.139 11.25l-2.79-1c1.239-3.416 2.363-7.166 3.371-11.25.309.167.814.375 1.511.625l1.047.375zm-.814-11.75c-1.473-1.582-2.984-3.001-4.534-4.251l1.86-1.999c.852.668 2.052 1.709 3.604 3.125.465.417.814.749 1.046 1l-1.976 2.125zm7.44 18.75c-.698 1.5-2.287 3.081-4.767 4.75-.93-1-1.667-1.709-2.208-2.126 2.401-1.25 3.913-2.5 4.534-3.75.619-1.165.93-3.249.93-6.249h2.673c0 3.418-.388 5.875-1.162 7.375zm-4.999-18.875v-2.625h8.603l-1.163-3.625 2.906-.375c.309 1.084.736 2.418 1.279 4h8.021v2.625h-2.674c-1.473 2.918-3.217 5.168-5.231 6.75 1.782.834 4.494 1.584 8.138 2.25-.078.25-.272.709-.582 1.375-.232.584-.427 1.043-.581 1.375-4.109-1.001-7.248-2.125-9.417-3.375-2.325 1.417-5.503 2.625-9.532 3.625-.078-.25-.272-.707-.581-1.375-.233-.582-.427-1-.582-1.25 3.332-.75 6.083-1.625 8.254-2.625-1.784-1.501-3.527-3.75-5.231-6.75h.232-1.859zm4.65 0c1.471 2.418 3.022 4.167 4.65 5.249 1.86-1.416 3.41-3.165 4.65-5.249h-9.3zm7.789 23v-11.5h2.79v11.5h-2.79zm14.975-20.5c-.854 3.584-1.551 6.459-2.092 8.625-.854-.416-1.589-.666-2.208-.75.852-2.917 1.549-5.751 2.092-8.5l2.208.625zm2.79 13.625c-.621 2.418-1.938 4.791-3.952 7.125-.776-.669-1.589-1.25-2.441-1.751 1.936-2.081 3.215-4.249 3.836-6.5.619-2.165.93-5.456.93-9.875v-11.124h2.674v11.625c-.001 4.584-.349 8.084-1.047 10.5zm4.185-5.625c-.621-2.666-1.395-5.166-2.325-7.5l2.092-.75c.309.834.736 2.083 1.279 3.75.465 1.5.852 2.708 1.163 3.625l-2.209.875zm3.139 11.749v-27.749h2.674v27.749h-2.674zm5.928-11.624c0-.082-.04-.25-.116-.501-.93-3.165-1.667-5.54-2.208-7.124l2.092-.75c.154.584.425 1.418.814 2.5.697 2.083 1.239 3.75 1.627 5l-2.209.875zm3.023 12.375v-29.125h2.673v29.125h-2.673zm24.972-13.25v-2.5h-16.159v2.5h16.159zm29.966 12.375c-6.742-2.667-11.16-7.126-13.252-13.375h-5.231v10.5c2.634-1.25 4.958-2.291 6.975-3.125v3.125c-1.938.582-4.109 1.5-6.51 2.75-.93.332-1.784.75-2.558 1.25l-1.627-2.5c.698-.668 1.006-1.5.93-2.5v-9.5h-4.65v-2.75h4.65v-12.375h2.79v12.375h19.995v2.75h-11.974c2.015 5.168 6.083 8.75 12.207 10.75l-1.745 2.625zm-.93-25.001c-4.186 2.5-8.875 4.835-14.066 7.001-.311-.666-.775-1.5-1.395-2.501 4.959-1.915 9.571-4.207 13.833-6.875l1.628 2.375zm6.955 22.376v-20.75h1.743v18.125l1.744-.125v-22.75h1.976v22.624l1.744-.124v-17.75h1.744v21.625h-1.744v-1.376l-7.207.501zm9.88-11.375v-2.376h17.321v2.376h-2.325v11.125c.076 2.415-1.046 3.666-3.371 3.75h-1.628c-.93.082-1.627.125-2.092.125v-.251c-.078-.749-.232-1.583-.465-2.499.387 0 1.006.04 1.859.125h1.396c1.395.081 2.052-.5 1.976-1.751v-10.624h-12.671zm.93-9.25v-2.376h6.627c.076-.749.116-1.75.116-3h2.44c0 1.419-.039 2.419-.116 3h6.395v2.376h-6.743c0 .168-.04.417-.116.749l-.116.25c1.937.835 4.146 1.919 6.626 3.251l-1.162 2.124c-2.017-1.165-4.185-2.331-6.51-3.499-1.241 1.418-3.333 2.668-6.277 3.75-.389-.75-.814-1.501-1.279-2.25 3.72-1.082 5.851-2.541 6.394-4.375h-6.279zm.465 19.874v-8.499h8.37v8.499h-8.37zm2.209-6.249v4h3.953v-4h-3.953zm33.924-2.75v-2.5h-16.158v2.5h16.158zm8.111 13.5v-13.751l-1.047.376c-.93.334-1.627.625-2.092.874-.232-.831-.621-1.665-1.163-2.5 4.572-1.25 8.254-3.04 11.044-5.374h-10.23v-2.25h11.975v-3.125c-1.241.083-2.598.125-4.069.125h-5.464c-.078-.916-.194-1.666-.349-2.251 5.656 0 12.942-.249 21.855-.749l.349 2.25c-1.938.168-5.193.334-9.766.5v3.25h11.975v2.25h-10.23c2.401 2.168 6.045 3.834 10.928 5-.465.918-.854 1.75-1.163 2.5-5.347-1.667-9.184-3.791-11.509-6.376v4.376h-2.557v-4.376c-2.171 2.251-4.923 4.044-8.254 5.376h19.181v13.875h-2.558v-1.25h-14.298v1.25h-2.558zm2.558-11.625v3.125h14.298v-3.125h-14.298zm0 5.125v3h14.298v-3h-14.298zm28.227-8.375c-.389-.416-.931-1.082-1.628-2-1.008-1.166-1.784-2.082-2.325-2.75l2.093-1.5c1.395 1.418 2.79 2.959 4.185 4.625l-2.325 1.625zm.814 7.75c-.621 3.25-1.086 5.625-1.396 7.125l-2.79-.875c.931-3.416 1.782-7.25 2.558-11.5.387.168.969.375 1.744.625.387.084.657.168.813.25-.156.834-.464 2.293-.929 4.375zm0-15.875c-1.241-1.666-2.52-3.25-3.837-4.75l2.209-1.5c.309.334.736.834 1.279 1.5 1.162 1.25 2.053 2.293 2.674 3.125l-2.325 1.625zm3.255-1v-2.375h3.72v-3.375h2.441v3.375h5.58v-3.375h2.558v3.375h4.417v2.375h-4.417v3.75h5.464v2.375h-5.929c1.549 2.584 3.68 4.584 6.394 6l-.349.75c-.232.334-.543.918-.931 1.75-1.859-1.25-3.371-2.541-4.533-3.875v6.625h-10.114v1.625c-.078 1.334.542 1.957 1.86 1.875h7.44c1.316 0 2.13-.5 2.44-1.5.233-.666.388-1.666.466-3 .232.084.541.209.93.375l1.395.375c-.156 1.25-.389 2.375-.697 3.375-.389 1.916-1.743 2.832-4.068 2.75h-8.835c-2.249 0-3.371-1.168-3.371-3.5v-7c-.931.918-1.938 1.75-3.022 2.5-.312-.832-.698-1.666-1.163-2.5 2.79-1.75 4.959-3.957 6.51-6.625h-5.464v-2.375h4.999v-3.75h-3.721zm4.3 11.875v3.375h7.673v-3.375h-7.673zm2.558-5.75c-.697 1.25-1.473 2.418-2.325 3.5h8.952c-.776-1.082-1.512-2.25-2.209-3.5h-4.418zm-.697-6.125v3.75h5.58v-3.75h-5.58z"/><path fill="#F7F398" d="M51.398 17.906c-.117-.062-.262-.218-.436-.469-1.105-.999-1.948-1.781-2.528-2.344l1.133-1.313c.988.876 1.976 1.781 2.964 2.719l-1.133 1.407zm-.087 8.437c-.292 1.437-.523 2.499-.697 3.188l-1.657-.563c.698-2.438 1.336-5.25 1.918-8.438.175.063.465.188.872.375.29.126.552.22.785.281-.233 1.002-.64 2.72-1.221 5.157zm.61-14.625c-.466-.5-1.133-1.156-2.005-1.969-.349-.312-.61-.563-.785-.75l1.134-1.219c.523.438 1.278 1.125 2.267 2.063l.523.563-1.134 1.312zm1.221 1.313v-1.594h3.487c-.117-.563-.378-1.5-.785-2.813-.117-.437-.204-.75-.261-.938l1.656-.281c.349 1 .698 2.25 1.046 3.75l-.959.281h3.226v1.594h-4.272c0 1.313-.03 2.531-.087 3.656h4.01v1.031c-.117 3.938-.233 6.813-.349 8.625 0 1.812-.814 2.719-2.441 2.719h-1.569l-.261-1.688c.29.062.61.062.959 0h.349c1.046.062 1.54-.375 1.482-1.313 0-.437.028-1.125.087-2.063.116-2.687.174-4.594.174-5.719h-2.528v.656c-.117 4.75-1.018 8.344-2.703 10.781-.292-.313-.728-.719-1.308-1.219 1.569-2.187 2.412-5.405 2.529-9.656.057-1.625.087-3.563.087-5.813h-1.569zm9.852-.281c-.697 1.375-1.279 2.407-1.744 3.094-.292-.312-.728-.718-1.308-1.219 1.452-2.063 2.616-4.531 3.487-7.406l1.658.281c-.349 1.063-.698 2.063-1.046 3h5.667v1.594h-6.364c-.059.125-.176.344-.35.656zm-2.005 9.187v-1.594h3.662v-1.406l2.616-2.813h-5.231v-1.594h6.975v1.781l-2.703 3.094v.938h3.4v1.594h-3.4v4.781c.057 1.688-.756 2.531-2.441 2.531-.466.062-1.221.094-2.267.094 0-.188-.059-.532-.174-1.031-.059-.313-.087-.563-.087-.75.406.062 1.104.094 2.092.094.872.062 1.278-.375 1.221-1.313v-4.406h-3.663zm11.231-9.656v-1.688h2.528c.057-.249.174-.656.349-1.219.231-.938.377-1.625.436-2.063l1.744.189-.872 3.094h4.534v1.688h-4.97c-.93 3-1.569 5.095-1.918 6.281h2.703v-4.781h1.482v4.781h2.441v1.594h-2.441v3.188h.261c.755-.062 1.569-.188 2.441-.375 0 .625-.03 1.188-.087 1.688l-2.615.375v4.688h-1.656v-4.5c-1.569.188-3.052.375-4.447.563l-.175-1.784 4.621-.469v-3.375h-4.098v-1.688c.174-.624.464-1.562.872-2.813.465-1.5.785-2.625.959-3.375h-2.092zm21.1 2.625c-.292.438-.61 1-.959 1.688-2.5-1.812-4.359-3.999-5.58-6.563-1.338 2.438-3.285 4.688-5.842 6.75-.407-.75-.728-1.28-.959-1.594 2.847-2.187 4.939-4.843 6.277-7.969l1.744.282c-.117.313-.261.625-.436.938 1.511 2.875 3.429 5.031 5.755 6.468zm-7.76 14.156c-2.036.062-3.023-.97-2.964-3.094v-9.656h1.656v4.5c2.093-1.187 3.981-2.531 5.667-4.031l1.046 1.313c-1.744 1.563-3.982 3.126-6.713 4.688v2.813c-.117 1.251.493 1.812 1.831 1.688h2.18c1.221.062 1.888-.469 2.005-1.594.174-1.062.29-2.156.349-3.281.581.25 1.133.438 1.657.563-.174 1.375-.349 2.594-.523 3.656-.349 1.625-1.425 2.438-3.226 2.438h-2.965zm10.795-6.375c.754-.812.667-.75-.262.188-.174-.563-.407-1.187-.698-1.875 2.034-1.812 3.981-4.343 5.842-7.594l1.569 1.031c-.466.75-1.105 1.75-1.918 3-.175.188-.292.344-.349.469v11.813h-1.744v-9.563c-.522.562-1.337 1.406-2.44 2.531zm6.365-14.25c-1.802 2.438-3.808 4.657-6.016 6.656-.407-.875-.698-1.468-.872-1.781 2.15-1.875 3.923-3.875 5.318-6l1.57 1.125zm.697 9.375v-1.875h13.165v1.875h-3.923v8.25c.116 2.124-.902 3.188-3.051 3.188-.931.062-2.005.094-3.226.094-.059-.188-.117-.469-.174-.844l-.262-1.125h3.052c1.336.062 1.947-.469 1.831-1.594v-7.969h-7.412zm1.221-7.031v-1.875h10.898v1.875h-10.898zm14.457 5.062v-1.688h3.052v-3.75l-2.703.094c-.059-.624-.146-1.156-.261-1.594 2.267-.062 4.678-.249 7.236-.563l.262 1.594c-.815.126-1.774.25-2.877.375v3.844h2.79v1.688h-2.79v2.813l.436-.469.174.188c1.221 1.188 2.121 2.032 2.703 2.531l-1.046 1.406c-.233-.249-.582-.656-1.046-1.219l-1.221-1.313v9.938h-1.656v-10.125c-.698 2.188-1.6 4.125-2.703 5.813 0-.062-.03-.155-.087-.281-.233-.75-.466-1.28-.698-1.594 1.511-2.063 2.673-4.625 3.488-7.688h-3.053zm8.022 3.375v-1.594h12.293v1.594h-5.319v3.188h4.795v1.5h-4.795v3.188h6.016v1.5h-14.037v-1.5h6.277v-3.188h-4.795v-1.5h4.795v-3.188h-5.23zm.871-3.937v-6.656h10.55v6.656h-10.55zm1.657-5.063v3.469h7.236v-3.469h-7.236z"/><path fill-rule="evenodd" clip-rule="evenodd" fill="#FFFB97" d="M32 7h10v66h-10z"/></svg>