<svg xmlns="http://www.w3.org/2000/svg" width="640" height="350" viewBox="0 0 640 350"><path fill="#fff" d="M273.938 161.904c-4.025-2.25-7.131-4.937-9.315-8.063-2.128 2.875-5.377 5.657-9.747 8.344-.116-.312-.375-.844-.776-1.594-.116-.188-.203-.343-.259-.469 4.599-2.562 7.935-5.593 10.005-9.094l2.415.281-.518.844c2.357 3.188 5.462 5.719 9.315 7.594l-1.12 2.157zm-17.078 34.097c-.116-.062-.259-.218-.431-.469-1.093-.999-1.927-1.781-2.501-2.344l1.208-1.5c1.149.938 2.156 1.875 3.019 2.813l-1.295 1.5zm-2.674 130.279v-1.875h2.501c.287-1.125.546-2.188.776-3.188l1.898.188c-.058.375-.202 1-.432 1.875-.172.501-.288.876-.345 1.125h4.398v1.875h-4.916c-.806 2.875-1.41 4.875-1.812 6h2.501v-4.594h1.639v4.594h2.329v1.875h-2.329v3l2.587-.375c-.058.75-.086 1.406-.086 1.969l-2.501.281v4.594h-1.897v-4.406c-1.552.188-2.99.375-4.313.563l-.172-2.063c.401 0 1.063-.062 1.984-.188 1.091-.062 1.926-.125 2.501-.188v-3.188h-3.967v-1.875l.259-.844c.459-1.5.919-3.219 1.38-5.156h-1.983zm20.7-64.527c-.345.75-.633 1.438-.863 2.063-3.911-1.25-6.757-2.968-8.539-5.156v4.219h-1.984v-4.219c-1.783 2.188-4.629 4-8.539 5.438l-.862-1.969c3.334-1.063 6.065-2.531 8.193-4.406h-7.59v-1.875h8.797v-2.625h1.984v2.625h8.797v1.875h-7.59c1.956 1.812 4.688 3.155 8.196 4.03zm-20.614 8.531v-1.875h9.574v-.844l3.881-2.063h-10.005v-1.781h13.196v1.875l-5.002 2.625v.188h8.797v1.875h-8.797v2.156c.057 1.937-.892 2.906-2.846 2.906-.289 0-.862.03-1.725.094h-1.725v-.188c-.058-.563-.172-1.188-.345-1.875h1.38c.805.062 1.38.094 1.725.094 1.035.062 1.523-.407 1.466-1.406v-1.781h-9.574zm0 20.686v-1.781h9.487c-.058-.188-.144-.437-.259-.75-.116-.437-.202-.781-.259-1.031l2.243-.281c.172.625.345 1.313.518 2.063h8.711v1.781h-20.441zm3.882-91.875c-.748 3.126-1.38 5.906-1.898 8.344l-1.811-.656c.805-3.188 1.408-5.968 1.811-8.344.229.126.747.313 1.553.563-.634-.189-.518-.156.345.093zm-.863-9.282c-.92-1.062-1.811-1.999-2.674-2.813l1.294-1.406c.919.813 1.839 1.72 2.76 2.719l-1.38 1.5zm-2.242 50.874v-17.625h4.14v-3.844h1.725v3.844h4.054v17.531h-1.725v-1.594h-6.469v1.688h-1.725zm1.207 58.064v-6.75h1.898v5.063h12.679v-5.063h1.897v6.75h-7.245c-.289.688-.604 1.313-.949 1.875h9.056v6.281c.057 1.749-.69 2.593-2.243 2.531-.517.062-1.466.094-2.846.094-.116-.563-.259-1.157-.431-1.781.287 0 .718.03 1.294.094h1.035c.863.062 1.264-.345 1.208-1.219v-4.219h-4.657c1.264 1.375 2.357 2.688 3.277 3.938l-1.466.938-.776-.938c-.403 0-1.035.032-1.898.094-2.07.063-3.566.126-4.485.188-.172 0-.461.032-.862.094-.345.063-.633.126-.863.188l-.69-1.781c.632-.375 1.122-.844 1.466-1.406.287-.375.546-.812.776-1.313h-4.054v7.219h-1.984v-9h6.986c.345-.563.66-1.187.949-1.875h-7.072zm9.66-125.035c-.633-.438-1.237-.844-1.811-1.219l5.175-6.656h-12.851v-2.063h15.525v2.063l-6.038 7.875zm-9.143 51.127v5.344h2.415v-5.344h-2.415zm0 7.125v5.344h2.415v-5.344h-2.415zm1.812-40.842v-1.969h3.364c-.289-.812-.604-1.999-.949-3.563l1.897-.281c.057.375.201.938.431 1.688.229.876.401 1.594.518 2.156h-.086 2.156v1.969h-4.054l-.086 3.375h3.881c0 .876-.029 2.188-.086 3.938-.058 2.688-.116 4.626-.173 5.813 0 1.812-.806 2.719-2.415 2.719-.517.062-1.064.094-1.639.094l-.344-1.97h1.293c.977.062 1.437-.375 1.38-1.313 0-.375.028-.968.086-1.781.115-2.625.172-4.5.172-5.625h-2.242v.469c-.116 4.563-.979 8.156-2.587 10.781l-1.466-1.406c1.437-1.999 2.213-5.156 2.329-9.469.115-1.624.172-3.499.172-5.625h-1.552zm10.264 105.469l-4.14-1.781c-1.496.625-3.105 1.219-4.83 1.781-.058-.125-.172-.281-.345-.469l-.518-.844c1.322-.375 2.587-.812 3.795-1.313-1.208-.5-2.358-.969-3.45-1.406l.862-1.125c.172.063.488.188.949.375.862.313 2.041.782 3.536 1.406.229-.125.546-.281.949-.469.747-.313 1.695-.781 2.846-1.406l.949 1.125c-.92.563-1.897 1.063-2.932 1.5l3.191 1.313-.862 1.313zm-5.607-71.752h-2.329v5.344h2.329v-5.344zm-2.328 7.125v5.344h2.329v-5.344h-2.329zm5.347 72.877c-1.496.126-1.294.126.604 0-.172-.188-.403-.5-.69-.938l-.776-.844.863-.656h-2.674c-.116.126-.259.344-.431.656-.289.501-.72 1.157-1.294 1.969.804 0 2.27-.061 4.398-.187zm8.884 23.779c-.23.375-.576 1.063-1.035 2.063-2.358-1.813-4.169-3.969-5.434-6.469-1.38 2.376-3.278 4.563-5.693 6.563-.116-.249-.375-.718-.776-1.406-.173-.188-.289-.343-.345-.469 2.875-2.124 4.917-4.719 6.124-7.781l2.07.281-.431.938c1.38 2.75 3.219 4.843 5.52 6.28zm-10.35-165.783c-.461-.812-1.237-1.969-2.329-3.469-.116-.188-.202-.312-.259-.375l1.639-1.219c.862 1.188 1.782 2.438 2.76 3.75l-1.811 1.313zm2.674 180.127c-2.014 0-3.019-1.063-3.019-3.188v-9.563h1.897v4.125c1.84-1.063 3.593-2.344 5.261-3.844l1.208 1.688c-2.128 1.688-4.284 3.156-6.469 4.406v2.719c-.058 1.125.518 1.655 1.725 1.594h1.984c1.149 0 1.782-.53 1.897-1.594.172-.999.287-2.063.345-3.188.69.25 1.322.469 1.897.656-.173 1.563-.375 2.781-.604 3.656-.23 1.688-1.323 2.531-3.277 2.531h-2.845zm-1.122-142.936v-1.875h3.537v-1.313l2.329-2.625h-4.83v-1.406l-.604.938c-.403-.437-.893-.905-1.466-1.406 1.38-2.063 2.472-4.468 3.277-7.219l1.984.281c-.345 1.001-.69 1.969-1.035 2.906h5.434v1.875h-6.21c-.345.75-.748 1.5-1.208 2.25h6.728v1.969l-2.587 3v.75h3.277v1.875h-3.277v4.594c.057 1.688-.748 2.531-2.415 2.531-.806.062-1.552.094-2.243.094 0-.188-.058-.438-.172-.75-.058-.563-.116-.97-.172-1.219h1.984c.862.062 1.264-.313 1.208-1.125v-4.125h-3.539zm.777 41.592v-20.813h7.332v2.063l-2.07 6.281c1.609 1.688 2.385 3.532 2.329 5.531.057 2.625-.92 4.001-2.932 4.125h-1.897c-.058-.437-.173-1.031-.345-1.781-.058-.188-.086-.312-.086-.375h.776c.402.063.718.094.949.094 1.208.063 1.782-.687 1.725-2.25 0-1.624-.834-3.312-2.501-5.063l2.156-6.656h-3.622v18.844h-1.814zm12.419 98.156c-.862.876-1.754 1.905-2.673 3.094l-.863-2.25c.518-.624 1.294-1.5 2.329-2.625.632-.624 1.178-.938 1.639-.938.114 0 .229.032.345.094h.259c4.369-2.813 8.28-6.031 11.73-9.656h-14.663v-2.063h8.453c-.23-.624-.604-1.562-1.121-2.813-.173-.437-.317-.75-.431-.938l2.242-.469c.459 1.063 1.005 2.406 1.639 4.031l-.604.188h7.245v2.25c-3.739 4.188-8.021 7.844-12.852 10.969 1.035 1.313 2.644 2.001 4.83 2.063 2.07.063 5.404.032 10.005-.094-.288.687-.489 1.406-.604 2.156h-5.865c-1.496-.063-2.818-.126-3.967-.188-2.704 0-4.773-.938-6.21-2.813-.288-.247-.575-.247-.863.002zm-2.639-40.467v-1.781h1.38v-7.969h2.329c.057-.313.143-.718.259-1.219.057-.563.115-.969.173-1.219l1.897.094-.259 1.125c-.173.563-.289.97-.345 1.219h3.364v17.25c.057 1.562-.662 2.374-2.156 2.438h-2.156c0-.188-.058-.469-.172-.844-.058-.501-.116-.876-.172-1.125h.517c.518.062.919.094 1.208.094.863 0 1.264-.345 1.208-1.031v-7.031h-3.881c.114 4.563-.432 7.999-1.639 10.313-.288-.188-.748-.563-1.38-1.125-.116-.063-.202-.126-.259-.188 1.035-2 1.523-5 1.466-9h-1.382zm.173-75.033v-1.875h2.501c.287-1.125.546-2.187.776-3.188l1.898.188c-.058.375-.202 1.001-.432 1.875-.172.501-.288.876-.345 1.125h4.398v1.875h-4.916c-.806 2.876-1.41 4.875-1.812 6h2.501v-4.594h1.639v4.594h2.329v1.875h-2.329v3l2.587-.375c-.058.75-.086 1.406-.086 1.969l-2.501.281v4.594h-1.897v-4.406c-1.552.188-2.99.375-4.313.563l-.172-2.063c.401 0 1.063-.062 1.984-.188 1.091-.062 1.926-.124 2.501-.188v-3.188h-3.967v-1.875l.259-.844c.459-1.5.919-3.218 1.38-5.156h-1.983zm1.294-69.595v-2.063h18.026v2.063h-7.935c0 1.313-.058 3.094-.173 5.344h9.315v2.156h-8.883c.977 4.5 3.996 7.438 9.056 8.813-.058.125-.173.312-.345.563l-.862 1.688c-5.119-1.813-8.194-4.812-9.229-9-.862 3.876-3.825 6.968-8.884 9.281-.116-.188-.345-.532-.69-1.031-.288-.438-.518-.782-.69-1.031 5.348-2.124 8.28-5.218 8.797-9.281h-8.711v-2.156h8.97c.057-.563.086-1.468.086-2.719.057-1.125.086-2 .086-2.625h-7.934zm-1.031 35.597v-1.875h2.501c.287-1.125.546-2.187.776-3.188l1.898.188c-.058.375-.202 1.001-.432 1.875-.172.501-.288.876-.345 1.125h4.398v1.875h-4.916c-.806 2.876-1.41 4.875-1.812 6h2.501v-4.594h1.639v4.594h2.329v1.875h-2.329v3l2.587-.375c-.058.75-.086 1.406-.086 1.969l-2.501.281v4.594h-1.897v-4.406c-1.552.188-2.99.375-4.313.563l-.172-2.063c.401 0 1.063-.062 1.984-.188 1.091-.062 1.926-.124 2.501-.188v-3.188h-3.967v-1.875l.259-.844c.459-1.5.919-3.218 1.38-5.156h-1.983zm5.774 81.221c0 2.187-.748 3.812-2.243 4.875l-.776-.844c1.035-.813 1.581-2.032 1.639-3.656h-1.466v-3.094h2.846v2.719zm-3.018 19.842v6.188h3.881v-6.188h-3.881zm1.638 4.968c-.058-.062-.116-.188-.173-.375-.172-.812-.517-1.749-1.035-2.813l1.38-.656c.229.438.488 1.094.776 1.969.229.563.401.97.518 1.219l-1.466.656zm.173 8.344c-.116-.313-.259-.75-.431-1.313-.345-.938-.633-1.655-.863-2.156l1.466-.656.518 1.406c.345.876.604 1.563.776 2.063l-1.466.656zm16.129-78.033c-.23.375-.576 1.063-1.035 2.063-2.358-1.812-4.169-3.968-5.434-6.469-1.38 2.376-3.278 4.563-5.693 6.563-.116-.249-.375-.718-.776-1.406-.173-.188-.289-.343-.345-.469 2.875-2.124 4.917-4.718 6.124-7.781l2.07.281-.431.938c1.38 2.75 3.219 4.844 5.52 6.28zm.263-33.998c-.23.375-.576 1.063-1.035 2.063-2.358-1.812-4.169-3.968-5.434-6.469-1.38 2.376-3.278 4.563-5.693 6.563-.116-.249-.375-.718-.776-1.406-.173-.188-.289-.343-.345-.469 2.875-2.124 4.917-4.718 6.124-7.781l2.07.281-.431.938c1.38 2.75 3.22 4.843 5.52 6.28zm-8.026 98.719c.172 2.875-.72 5.125-2.674 6.75-.172-.188-.431-.437-.776-.75-.345-.375-.604-.624-.776-.75 1.725-1.25 2.501-3.062 2.329-5.438v-2.719h7.159v5.25c-.058 1 .374 1.469 1.294 1.406h1.121c0 .188-.058.501-.172.938-.058.438-.116.782-.173 1.031h-1.725c-1.611.063-2.387-.844-2.329-2.719v-4.031h-3.277v1.032h-.001zm.086-50.377c-2.014 0-3.019-1.063-3.019-3.188v-9.563h1.897v4.125c1.84-1.062 3.593-2.344 5.261-3.844l1.208 1.688c-2.128 1.688-4.284 3.157-6.469 4.406v2.719c-.058 1.125.518 1.655 1.725 1.594h1.984c1.149 0 1.782-.53 1.897-1.594.172-.999.287-2.063.345-3.188.69.251 1.322.469 1.897.656-.173 1.563-.375 2.782-.604 3.656-.23 1.688-1.323 2.531-3.277 2.531h-2.845zm-2.846 68.564v-10.406h8.97v10.406h-1.897v-1.781h-5.175v1.781h-1.898zm3.11-102.562c-2.014 0-3.019-1.063-3.019-3.188v-9.563h1.897v4.125c1.84-1.062 3.593-2.344 5.261-3.844l1.208 1.688c-2.128 1.688-4.284 3.157-6.469 4.406v2.719c-.058 1.125.518 1.655 1.725 1.594h1.984c1.149 0 1.782-.53 1.897-1.594.172-.999.287-2.063.345-3.188.69.251 1.322.469 1.897.656-.173 1.563-.375 2.782-.604 3.656-.23 1.688-1.323 2.531-3.277 2.531h-2.845zm-1.212 94.031v5.156h5.175v-5.156h-5.175zm9.194 25.654v-1.969h3.709c-.289-1.063-.604-2.094-.949-3.094l1.983-.469c.173.688.518 1.875 1.035 3.563h2.415v1.969h-4.658l-.086 3.188h4.14c0 3.375-.086 6.75-.259 10.125 0 1.999-.834 3-2.501 3h-1.897l-.431-1.969h1.725c.977.062 1.437-.437 1.38-1.5.114-3.249.172-5.813.172-7.688h-2.415c0 5.313-.806 9.218-2.415 11.719l-1.466-1.406c1.437-2 2.156-5.656 2.156-10.969l.086-4.5h-1.724zm1.535-162.126v-1.781h20.441v1.781h-8.97v2.25h7.417v1.781h-7.417v2.344h9.143c-.173.687-.346 1.343-.518 1.969-3.968 0-6.872-.032-8.711-.094-3.45 0-5.779-1.063-6.986-3.188-.576 1.374-1.754 2.78-3.536 4.219l-1.208-1.594c2.357-1.562 3.651-3.875 3.881-6.938l1.897.281c-.058.25-.116.625-.173 1.125-.116.438-.172.75-.172.938.919 1.938 2.385 3.032 4.399 3.281v-6.375h-9.487zm.258 58.345v-1.781h7.849v1.781h-3.019c-.403 1.813-.949 3.501-1.639 5.063h4.054v12.563h-1.639v-1.5h-2.501v1.875h-1.811v-9.375c-.345.626-.776 1.282-1.294 1.969-.172-.75-.375-1.562-.604-2.438 1.667-2.499 2.816-5.218 3.45-8.156h-2.846zm.346 35.316v-1.969h5.865c.46-.999.833-2.03 1.122-3.094l2.156.281c-.173.438-.403 1.063-.69 1.875-.173.438-.289.75-.345.938h11.816v1.969h-12.678c-.634 1.5-1.553 3.188-2.76 5.063v12.281h-1.984v-9.75c-.748.813-1.582 1.688-2.501 2.625-.289-.688-.604-1.406-.949-2.156 2.587-2.499 4.571-5.188 5.951-8.063h-5.003zm8.711 32.498c-2.76.063-5.406.156-7.935.281-.058-.812-.173-1.531-.345-2.156 6.21-.062 12.017-.281 17.422-.656l.345 2.063c-.69 0-1.783.063-3.277.188-1.841.063-3.221.126-4.14.188v3.938h7.417v1.969h-7.417v3.938h9.229v2.063h-9.229v3.563c.057 2.124-.949 3.188-3.019 3.188h-3.622c-.058-.313-.145-.75-.259-1.313-.058-.375-.116-.688-.173-.938.632.062 1.667.094 3.105.094 1.322.062 1.954-.5 1.898-1.688v-2.906h-9.488v-2.063h9.488v-3.938h-7.935v-1.969h7.935v-3.846zm-6.459-83.343h-2.07c0-.126-.029-.281-.086-.469-.058-.75-.145-1.282-.259-1.594.574.062 1.121.094 1.639.094.862 0 1.264-.345 1.208-1.031v-8.625h-3.105v-1.875h3.881l-.259-.281c-.863-1.062-1.725-2.063-2.587-3l1.293-1.125 1.639 1.781 2.243-3.094h-5.779v-1.781h7.676v2.156l-2.933 4.125.431.375-.69.844h3.709v1.875l-.776 3.938c-.289-.062-.633-.124-1.035-.188-.23-.062-.403-.094-.517-.094l.776-3.656h-2.07v9c.056 1.687-.72 2.561-2.329 2.625zm-.183-46.379v-8.813h15.008v8.813h-15.008zm.69 68.752v7.688h2.501v-7.688h-2.501zm1.294-75.783v1.875h10.954v-1.875h-10.954zm0 3.375v1.969h10.954v-1.969h-10.954zm2.243 108.755v-1.969h5.261v-4.406h1.983v4.406h5.261v1.969h-5.261v6.188h6.382v1.875h-14.662v-1.875h6.296v-6.188h-5.26zm3.123 59.372c-.748 1.375-1.639 2.719-2.674 4.031-.633-.688-1.093-1.156-1.38-1.406 1.725-2.063 2.989-4.374 3.795-6.938l1.984.188-.518 1.406c-.173.438-.289.75-.345.938h7.763v1.781h-8.625zm8.279 16.5l-.776.844c-3.221-2.75-5.06-6.875-5.52-12.375-.69.063-1.38.156-2.07.281v9.844c1.208-.624 2.329-1.125 3.364-1.5v.938c.057.438.086.75.086.938-1.208.437-2.415.999-3.623 1.688-.116.062-.259.124-.431.188-.461.249-.748.437-.863.563l-1.121-1.688c.518-.438.747-1.031.69-1.781v-10.969c3.105-.249 6.21-.75 9.315-1.5l.69 1.969c-1.323.313-2.76.563-4.313.75.173 1.5.402 2.813.69 3.938 1.15-.624 2.271-1.313 3.364-2.063l.949 1.688c-1.208.75-2.444 1.469-3.708 2.156.747 2.063 2.098 3.782 4.054 5.156-.116.185-.375.496-.777.935zm1.631-134.592c-1.265-1.251-2.962-2.749-5.088-4.5-.748 1.5-2.704 3.124-5.865 4.875-.345-.563-.748-1.157-1.208-1.781 2.587-1.125 4.283-2.28 5.089-3.469.862-1.062 1.294-2.78 1.294-5.156v-3.188h1.811v3.281c.057 1.376-.086 2.595-.431 3.656 1.954 1.563 3.823 3.094 5.606 4.594l-1.208 1.688zm-11.481 29.029v-1.969h8.107v1.969h-8.107zm7.677 4.875h-2.933l-.259-1.406c-.058-.313-.116-.563-.172-.75.69.062 1.725.094 3.105.094 1.149.062 1.753-.469 1.812-1.594.114-1.875.201-3.905.259-6.094h-8.625l.69-7.969h1.897l-.518 6h4.399l.69-7.125h-7.417v-1.969h9.574l-.863 9.094h2.156c-.058 1.125-.116 2.782-.172 4.969-.116 1.563-.172 2.688-.172 3.375-.001 2.25-1.152 3.375-3.451 3.375zm-6.718-53.123v-1.875h11.644v1.875h-5.175l-.518 3h4.83v10.969h-1.811v-9.281h-6.641v9.375h-1.812v-11.063h3.536l.432-3h-4.485zm15.97 75.877c-.115-.062-.258-.219-.431-.469-1.093-.999-1.927-1.781-2.501-2.344l1.207-1.5c1.149.938 2.156 1.875 3.019 2.813l-1.294 1.5zm.777 32.217c-1.093.063-2.128.156-3.104.281l-.518-1.969c.287-.249.632-.75 1.035-1.5.919-1.438 1.867-3.406 2.846-5.906l1.897.563c-1.207 2.625-2.387 4.875-3.536 6.75l2.329-.094c.459-.875.891-1.719 1.294-2.531l1.639.75c-1.61 3.063-3.105 5.751-4.485 8.063.518-.062 1.38-.125 2.588-.188-.289 0 .028-.031.948-.094v.844c-.058.438-.086.75-.086.938-.862.126-1.928.22-3.191.281-.345.063-.604.094-.776.094-.575.063-1.093.156-1.553.281l-.604-1.781c.518-.375.978-.905 1.38-1.594l1.035-1.688c.344-.688.631-1.187.862-1.5zm3.019 10.687c-2.07.188-4.17.499-6.297.938l-.345-1.969c1.667-.188 3.881-.5 6.642-.938v1.969zm-3.371 35.967c-1.841-.188-2.876-1.282-3.104-3.281.172-2.124 1.207-3.281 3.104-3.469 1.954.188 3.019 1.345 3.191 3.469-.172 1.999-1.237 3.094-3.191 3.281zm1.301-186.408c-.403.938-.949 1.875-1.639 2.813-.23-.125-.634-.312-1.208-.563-.288-.125-.489-.218-.604-.281 1.437-2.063 2.472-4.25 3.105-6.563l1.983.281c-.23.813-.489 1.594-.776 2.344h4.571v-3.375h1.983v3.375h7.418v1.969h-7.418v3.469h8.884v1.969h-20.613v-1.969h9.746v-3.469h-5.432zm-4.312 77.002v-2.063h10.781v-.094c.345-2.438.546-6.437.604-12h2.07c-.059 6.126-.23 10.125-.518 12v.094h7.59v2.063h-8.021c-.058.375-.172.75-.345 1.125 1.092.626 2.788 1.657 5.089 3.094 1.264.75 2.213 1.28 2.846 1.594l-1.293 1.969c-1.208-.813-2.876-1.907-5.003-3.281-1.093-.75-1.927-1.313-2.501-1.688-1.323 2.063-4.657 3.844-10.005 5.344-.116-.25-.403-.782-.862-1.594-.173-.25-.289-.438-.346-.563 6.21-1.374 9.631-3.375 10.264-6h-10.35zm3.88 33.629c-.748 3.126-1.38 5.906-1.897 8.344l-1.811-.656c.804-3.188 1.408-5.968 1.811-8.344.229.126.747.313 1.553.563-.634-.189-.518-.156.344.093zm-.862-9.282c-.92-1.063-1.812-2-2.674-2.813l1.294-1.406c.919.813 1.84 1.72 2.76 2.719l-1.38 1.5zm1.233-50.845l-.346.375-1.38-1.781c.518-.501.776-1.187.776-2.063v-8.531h-2.674v-2.063h4.658v10.406c.172-.124.459-.343.862-.656 1.207-.874 2.069-1.53 2.587-1.969.115.876.315 1.688.604 2.438-.059.063-.145.126-.259.188-1.897 1.188-3.278 2.156-4.141 2.906l-.687.75zm2.044 23.217c-1.841-1.5-3.565-2.749-5.175-3.75l1.121-1.688c.173.126.432.281.776.469 1.437.938 2.933 1.969 4.485 3.094l-1.207 1.875zm-3.284 107.343c-1.093.126-1.696.813-1.812 2.063.115 1.063.719 1.655 1.812 1.781 1.149-.126 1.781-.718 1.897-1.781-.115-1.25-.747-1.937-1.897-2.063zm2.619-146.873c-.23-.312-.604-.75-1.121-1.313-.979-1.187-1.726-2.063-2.243-2.625l1.553-1.313c1.208 1.251 2.386 2.531 3.536 3.844l-1.725 1.407zm-3.044-17.034v-9.281h15.525v9.281h-2.07v-1.406h-11.385v1.406h-2.07zm1.726 85.505v-1.969h3.363c-.288-.812-.604-2-.948-3.563l1.897-.281c.057.375.2.938.431 1.688.229.876.402 1.594.518 2.156h-.086 2.156v1.969h-4.054l-.086 3.375h3.881c0 .876-.029 2.188-.086 3.938-.059 2.688-.116 4.626-.173 5.813 0 1.812-.806 2.719-2.415 2.719-.518.062-1.064.094-1.639.094l-.345-1.969h1.294c.977.062 1.437-.375 1.38-1.313 0-.375.028-.969.086-1.781.114-2.625.173-4.5.173-5.625h-2.243v.469c-.115 4.563-.979 8.156-2.587 10.781l-1.467-1.406c1.437-2 2.213-5.156 2.329-9.469.114-1.625.173-3.5.173-5.625h-1.552zm4.485-33.723c-1.496-1.187-3.191-2.405-5.089-3.656l1.121-1.594c1.035.626 2.443 1.532 4.226 2.719.402.313.719.532.949.656l-1.207 1.875zm-4.14-59.095v4.219h11.385v-4.219h-11.385zm2.329 137.597v-1.781h6.296c.229-.999.345-2.968.345-5.906h1.984c-.116 2.875-.23 4.844-.345 5.906h5.261v1.781h-5.606l-.259.563c.633.313 1.523.813 2.674 1.5 1.322.75 2.357 1.313 3.105 1.688l-1.121 1.781c-2.128-1.438-3.998-2.531-5.606-3.281-1.035 1.187-3.249 2.374-6.642 3.563-.23-.563-.575-1.219-1.035-1.969 3.91-.938 6.181-2.218 6.814-3.844h-5.865zm3.622-2.437l-.862-.469c-.575-.375-1.466-.844-2.674-1.406l.69-1.219c.574.25 1.38.656 2.415 1.219.459.25.833.438 1.121.563l-.69 1.312zm-2.674-10.125v-1.781h4.83v-2.344h1.984v2.344h4.916v1.781h-4.916v2.156h5.605v1.781l-.604 3.188c-.575-.188-1.179-.281-1.812-.281l.604-2.906h-11.386v-1.781h5.606v-2.156h-4.827zm-.406-96.282v-2.156h5.951v-7.688h2.07v7.688h5.951v2.156h-5.951v12.563h-2.07v-12.563h-5.951zm4.46 103.782c-1.265-.75-2.415-1.344-3.449-1.781l.604-1.219c1.149.501 2.299 1.063 3.45 1.688l-.605 1.312zm.087-30.811v-1.875h3.536v-1.313l2.328-2.625h-4.829v-1.406l-.604.938c-.402-.437-.892-.905-1.466-1.406 1.38-2.063 2.472-4.468 3.277-7.219l1.983.281c-.345 1-.689 1.969-1.034 2.906h5.434v1.875h-6.21c-.346.75-.748 1.5-1.208 2.25h6.728v1.969l-2.587 3v.75h3.277v1.875h-3.277v4.594c.056 1.688-.748 2.531-2.415 2.531-.807.062-1.553.094-2.243.094 0-.188-.058-.438-.172-.75-.059-.563-.116-.97-.173-1.219h1.983c.863.062 1.265-.313 1.208-1.125v-4.125h-3.536zm15.731-94.88c-.058-.25-.116-.656-.173-1.219-.115-.438-.172-.75-.172-.938.287 0 .689.031 1.207.094h1.121c1.265.125 1.898-.5 1.898-1.875 0-.437.027-1.156.086-2.156 0-.999.028-1.718.086-2.156h-3.622c-.116 3.563-1.524 6.469-4.227 8.719-.634-.688-1.121-1.188-1.466-1.5 2.415-2 3.679-4.406 3.795-7.219h-3.191v-1.875h3.277l.086-2.063h1.897l-.086 2.063h5.521c-.059.75-.116 2.095-.173 4.031-.058 1.251-.086 2.156-.086 2.719.057 2.25-.979 3.343-3.105 3.281l-2.673.094zm-5.002 85.13v-1.875h2.501c.287-1.125.546-2.188.776-3.188l1.897.188c-.059.375-.202 1-.432 1.875-.172.501-.288.876-.345 1.125h4.398v1.875h-4.916c-.806 2.875-1.41 4.875-1.812 6h2.502v-4.594h1.639v4.594h2.328v1.875h-2.328v3l2.587-.375c-.058.75-.086 1.406-.086 1.969l-2.501.281v4.594h-1.897v-4.406c-1.553.188-2.991.375-4.313.563l-.173-2.063c.401 0 1.063-.062 1.983-.188 1.092-.062 1.926-.125 2.502-.188v-3.188h-3.968v-1.875l.259-.844c.459-1.5.919-3.219 1.38-5.156h-1.981zm1.121-98.068v-7.875h9.746v7.875h-9.746zm.03 46.097v-2.063h8.107v-18.75h2.242v6.75h8.539v2.25h-8.539v9.75h10.178v2.063h-20.527zm1.868-52.003v4.031h5.865v-4.031h-5.865zm3.018 83.189c0 2.188-.748 3.812-2.242 4.875l-.776-.844c1.035-.813 1.581-2.031 1.639-3.656h-1.467v-3.094h2.847l-.001 2.719zm0 68.002c0 2.187-.748 3.812-2.242 4.875l-.776-.844c1.035-.813 1.581-2.032 1.639-3.656h-1.467v-3.094h2.847l-.001 2.719zm14.921-44.873c-.23.375-.575 1.063-1.035 2.063-2.358-1.813-4.169-3.969-5.434-6.469-1.38 2.376-3.277 4.563-5.692 6.563-.115-.249-.374-.718-.776-1.406-.172-.188-.288-.343-.345-.469 2.875-2.124 4.916-4.719 6.124-7.781l2.069.281-.431.938c1.381 2.75 3.22 4.842 5.52 6.28zm-7.676 14.344c-2.014 0-3.019-1.063-3.019-3.188v-9.563h1.897v4.125c1.839-1.063 3.593-2.344 5.261-3.844l1.208 1.688c-2.128 1.688-4.284 3.156-6.469 4.406v2.719c-.059 1.125.518 1.655 1.725 1.594h1.983c1.15 0 1.782-.53 1.897-1.594.173-.999.287-2.063.346-3.188.689.25 1.322.469 1.897.656-.173 1.563-.375 2.781-.604 3.656-.23 1.688-1.324 2.531-3.278 2.531h-2.844zm3.451-101.724h-3.278c-.058-.75-.172-1.5-.345-2.25.862.062 1.812.094 2.847.094 1.207.062 1.781-.437 1.725-1.5v-18.188h1.984v18.75c.114 1.999-.864 3.031-2.933 3.094zm-3.536-5.25v-14.25h1.897v14.25h-1.897zm16.679 134.222c-2.932.313-5.002.625-6.21.938l-.689-1.781c.518-.375.948-.812 1.294-1.313.114-.188.345-.53.689-1.031.69-.999 1.208-1.813 1.553-2.438-1.207 0-2.301.063-3.277.188l-.518-1.781c.401-.437.718-.844.948-1.219 1.322-2.499 2.386-4.719 3.191-6.656l1.897.656c-1.15 2.313-2.387 4.656-3.708 7.031.345 0 .775-.031 1.293-.094h1.208c.518-.875.948-1.688 1.294-2.438l1.725.844c-1.093 2.001-2.703 4.626-4.83 7.875l4.227-.656c-.058.688-.087 1.312-.087 1.875zm.173 4.687c-1.725.188-4.054.593-6.986 1.219l-.345-1.969c.574-.125 1.522-.281 2.846-.469 2.07-.375 3.594-.656 4.571-.844-.058.438-.086 1.126-.086 2.063zm-6.469-149.784v-2.063h8.625v-3.844h1.984v3.844h8.624v2.063h-7.503c1.839 4.251 4.628 7.626 8.366 10.125-.059.063-.116.188-.173.375-.518.876-.834 1.469-.948 1.781-3.911-2.874-6.699-6.469-8.366-10.781v8.813h4.57v2.063h-4.57v4.031h-1.984v-4.031h-4.657v-2.063h4.657v-8.719c-1.668 4.313-4.429 8.001-8.28 11.063l-.517-1.125c-.289-.5-.489-.844-.604-1.031 3.68-2.625 6.439-6.125 8.28-10.5h-7.504zm2.588 83.282c-.346.313-.548.563-.604.75l-1.207-1.688c.46-.438.66-.938.604-1.5v-9h-2.156v-1.969h4.054v10.5c.69-.563 1.351-1.125 1.984-1.688.057.188.114.563.172 1.125.115.563.173.97.173 1.219-.979.626-1.869 1.25-2.674 1.875l-.346.376zm-1.984 16.942v-2.156h18.026v2.156h-7.849v14.625h9.057v2.063h-20.355v-2.063h8.97v-14.625h-7.849zm2.415-32.692c-.92-1.313-1.869-2.593-2.846-3.844l1.466-1.031c1.208 1.313 2.213 2.501 3.019 3.563l-1.639 1.312zm2.967-34.279c-.806 1.626-1.696 3.094-2.674 4.406-.517-.563-1.093-1.031-1.725-1.406 2.012-2.499 3.42-5.25 4.227-8.25l2.242.281c-.345 1.001-.689 1.938-1.035 2.813h12.766v2.156h-7.159v6.281h8.798v2.156h-8.798v8.719h-2.156v-8.719h-9.919v-2.156h9.919v-6.281h-4.486zm-.552 32.123v-1.5h6.038v-1.781h1.897v1.781h6.382v1.5h-6.382v1.594h5.692v1.406h-5.692v1.594h6.728v1.5h-15.181v-1.5h6.556v-1.594h-5.606v-1.406h5.606v-1.594h-6.038zm.862 19.031v-11.438h12.248v8.531c.057 1.813-.806 2.719-2.588 2.719h-1.38c-.806.062-1.38.094-1.725.094-.173-.563-.345-1.188-.518-1.875.689.062 1.667.094 2.933.094.977.062 1.437-.344 1.38-1.219v-.75h-8.365v3.844h-1.985zm.605 50.846v-1.969h5.434v-3.188h1.983v3.188h5.606v1.969h-5.606v3.375h4.916v1.875h-11.729v-1.875h4.83v-3.375h-5.434zm.948 17.25v-9.281h11.04v9.281h-1.983v-1.406h-7.159v1.406h-1.898zm.432-78.033v1.688h8.366v-1.688h-8.366zm0 3v1.688h8.366v-1.688h-8.366zm1.465 67.627v4.219h7.159v-4.219h-7.159zm14.17-130.566l-1.897-1.031c1.035-2 2.357-5.03 3.968-9.094.573.375 1.207.719 1.897 1.031l-3.968 9.094zm-1.552 53.939v-1.969h2.329v-4.313h1.897v4.313h1.983v1.969h-1.983v4.406l1.983-.656c0 .688.028 1.376.087 2.063l-2.07.75v6.75c.057 1.562-.634 2.375-2.07 2.438h-1.897c-.058-.25-.115-.688-.172-1.313-.116-.375-.173-.625-.173-.75h1.466c.69.062 1.006-.22.949-.844v-5.719c-.748.251-1.553.532-2.415.844l-.259-2.25c.919-.312 1.812-.563 2.674-.75v-4.969h-2.329zm2.501 37.379c-.689 1.313-1.409 2.563-2.155 3.75-.116-.5-.289-1.219-.518-2.156l-.173-.375c2.012-3.375 3.536-7.063 4.571-11.063l2.07.563c-.518 1.75-1.122 3.438-1.812 5.063v16.781h-1.984v-12.563h.001zm-2.587 28.466v-1.969h9.229v-2.344h1.984v2.344h9.229v1.969h-9.229v2.531h7.417v7.313h-6.642c2.127 2.313 5.003 4.125 8.625 5.438-.461.75-.806 1.374-1.034 1.875-3.854-1.563-6.642-3.5-8.366-5.813v6.844h-1.984v-6.75c-1.897 2.5-4.688 4.562-8.366 6.188l-1.121-2.063c3.45-1.187 6.383-3.094 8.798-5.719h-6.642v-7.313h7.331v-2.531h-9.229zm3.536-132.159l-1.553-2.813c-.748-1.374-1.294-2.375-1.639-3l1.726-1.031c1.149 1.938 2.271 3.844 3.363 5.719l-1.897 1.125zm9.699 37.191c-.058 6.251-1.927 9.437-5.606 9.563-3.853-.063-5.778-3.249-5.778-9.563.057-6.312 1.954-9.563 5.692-9.75 3.737.126 5.634 3.375 5.692 9.75zm-1.983 0c0-5.438-1.266-8.124-3.795-8.063-2.358.188-3.566 2.876-3.623 8.063 0 5.376 1.236 8.032 3.709 7.969 2.471.063 3.709-2.593 3.709-7.969zm-7.371 99.375v3.469h5.348v-3.469h-5.348zm16.819-124.472c-.518.687-1.007 1.343-1.467 1.969-3.565-2.376-5.75-5.375-6.555-9-.69 3.563-3.077 6.687-7.159 9.375-.23-.313-.661-.907-1.293-1.781l-.173-.188c4.542-2.499 6.986-5.968 7.331-10.406.114-.875.173-1.906.173-3.094h2.069c0 .25-.029.625-.086 1.125v1.031c.691 5.001 3.076 8.657 7.16 10.969zm-13.714 59.47v-1.969h3.363c.173-.437.432-1.125.776-2.063.173-.624.315-1.093.432-1.406l2.069.469c-.461 1.063-.862 2.063-1.207 3h8.193v1.969h-2.328c-.69 2.501-1.639 4.47-2.847 5.906.345.188.862.501 1.553.938.632.313 1.812.938 3.536 1.875l-1.207 1.875c-1.842-1.251-3.623-2.313-5.348-3.188-1.841 1.25-4.313 2.375-7.418 3.375l-1.035-1.969c3.22-.874 5.404-1.749 6.556-2.625-1.438-.874-2.904-1.718-4.399-2.531.633-1.062 1.236-2.28 1.812-3.656h-2.501zm3.019 27.91c-.806 1.813-1.783 3.595-2.933 5.344-.173-.249-.489-.594-.948-1.031l-.518-.563c1.839-2.563 3.277-5.687 4.313-9.375l2.069.469c-.345 1.125-.72 2.188-1.121 3.188h9.833v1.969h-7.332v3.844h6.124v1.969h-6.124v3.844h6.728v2.063h-6.728v5.063h-1.983v-16.781h-1.38v-.003zm8.107-97.037c-.288-.125-.689-.249-1.207-.375-.289-.062-.518-.125-.69-.188l1.553-4.219h-7.936c-.633 1.563-1.38 3.126-2.242 4.688-.116-.062-.316-.188-.604-.375-.575-.375-.979-.624-1.208-.75 1.84-3 3.105-6.094 3.795-9.281l2.07.469c-.345 1.125-.689 2.188-1.035 3.188h9.315v2.063l-1.811 4.78zm-10.781 64.908v-4.406h5.606c-.058-.188-.173-.469-.345-.844-.289-.812-.518-1.374-.69-1.688l2.07-.469c.229.501.518 1.219.862 2.156l.259.844h5.089v4.406h-1.897v-2.438h-9.143v2.438h-1.811zm2.846 7.125l3.449 1.969c1.265-1.249 2.127-2.874 2.588-4.875h-4.657l-1.38 2.906zm6.469 62.096h-5.434v3.469h5.434v-3.469zm4.307-90.094c.746-5.937 2.989-11.719 6.728-17.344v-1.313h-11.213v1.875h8.884c-3.45 5.501-5.606 11.095-6.469 16.781h2.07v.001zm4.524-43.753c-.115-.062-.258-.218-.431-.469-1.093-.999-1.927-1.781-2.501-2.344l1.207-1.5c1.149.938 2.156 1.875 3.019 2.813l-1.294 1.5zm-2.845 69.314v-1.781h1.38v-7.969h2.329c.057-.312.143-.718.259-1.219.057-.563.114-.968.172-1.219l1.897.094-.259 1.125c-.172.563-.288.97-.345 1.219h3.364v17.25c.057 1.562-.662 2.375-2.156 2.438h-2.156c0-.188-.059-.469-.173-.844-.058-.501-.116-.876-.173-1.125h.518c.518.062.919.094 1.208.094.862 0 1.264-.344 1.207-1.031v-7.031h-3.881c.114 4.563-.432 8-1.639 10.313-.289-.188-.748-.563-1.38-1.125-.116-.063-.202-.126-.259-.188 1.034-1.999 1.522-4.999 1.466-9h-1.379zm.862 61.814v-2.063h8.625v-3.844h1.984v3.844h8.624v2.063h-7.503c1.839 4.251 4.628 7.626 8.366 10.125-.059.063-.116.188-.173.375-.518.876-.834 1.469-.948 1.781-3.911-2.874-6.699-6.469-8.366-10.781v8.813h4.57v2.063h-4.57v4.031h-1.984v-4.031h-4.657v-2.063h4.657v-8.719c-1.668 4.313-4.429 8.001-8.28 11.063l-.517-1.125c-.289-.5-.489-.844-.604-1.031 3.68-2.625 6.439-6.125 8.28-10.5h-7.504zm19.838-19.936c-.69.938-1.151 1.594-1.38 1.969-5.061-2.874-7.993-7.156-8.798-12.844-.806 5.563-3.795 9.938-8.97 13.125-.116-.188-.317-.469-.604-.844-.402-.563-.661-.97-.775-1.219 5.52-3.188 8.509-7.937 8.97-14.25.114-1.438.172-3.313.172-5.625h2.243l-.086 3.281c.573 8.25 3.708 13.656 9.4 16.219l-.172.188zm-16.561-108.099c-.748 3.126-1.38 5.906-1.897 8.344l-1.811-.656c.804-3.188 1.408-5.968 1.811-8.344.229.126.747.313 1.553.563-.634-.188-.518-.156.344.093zm-.862-9.281c-.92-1.062-1.812-2-2.674-2.813l1.294-1.406c.919.813 1.84 1.72 2.76 2.719l-1.38 1.5zm-.086 67.533v6.188h3.881v-6.188h-3.881zm1.38-66.22v-1.969h3.363c-.288-.812-.604-2-.948-3.563l1.897-.281c.057.375.2.938.431 1.688.229.876.402 1.594.518 2.156h-.086 2.156v1.969h-4.054l-.086 3.375h3.881c0 .876-.029 2.188-.086 3.938-.059 2.688-.116 4.626-.173 5.813 0 1.812-.806 2.719-2.415 2.719-.518.062-1.064.094-1.639.094l-.345-1.969h1.294c.977.062 1.437-.375 1.38-1.313 0-.375.028-.968.086-1.781.114-2.625.173-4.5.173-5.625h-2.243v.469c-.115 4.563-.979 8.156-2.587 10.781l-1.467-1.406c1.437-2 2.213-5.156 2.329-9.469.114-1.625.173-3.5.173-5.625h-1.552zm.259 71.189c-.058-.062-.116-.188-.173-.375-.172-.812-.518-1.749-1.035-2.813l1.38-.656c.229.438.488 1.095.776 1.969.229.563.402.97.518 1.219l-1.466.656zm.171 8.343c-.115-.312-.258-.75-.431-1.313-.345-.938-.634-1.655-.862-2.156l1.466-.656.518 1.406c.345.876.604 1.563.776 2.063l-1.467.656zm8.368-13.312c.172 2.876-.72 5.126-2.674 6.75-.173-.188-.432-.437-.776-.75-.346-.375-.604-.624-.776-.75 1.725-1.249 2.501-3.062 2.329-5.438v-2.719h7.158v5.25c-.058 1.001.373 1.47 1.294 1.406h1.121c0 .188-.058.501-.173.938-.058.438-.115.782-.172 1.031h-1.726c-1.61.063-2.387-.844-2.328-2.719v-4.031h-3.277v1.032zm-1.469-28.28v-2.906h-2.674v2.906h2.674zm0 10.407v-2.719h-2.674v2.719h2.674zm-1.292 36.06v-10.406h8.971v10.406h-1.897v-1.781h-5.176v1.781h-1.898zm1.726-75.501v-1.875h3.536v-1.313l2.328-2.625h-4.829v-1.406l-.604.938c-.402-.437-.892-.905-1.466-1.406 1.38-2.063 2.472-4.468 3.277-7.219l1.983.281c-.345 1-.689 1.969-1.034 2.906h5.434v1.875h-6.21c-.346.75-.748 1.5-1.208 2.25h6.728v1.969l-2.587 3v.75h3.277v1.875h-3.277v4.594c.056 1.688-.748 2.531-2.415 2.531-.807.062-1.553.094-2.243.094 0-.188-.058-.438-.172-.75-.059-.563-.116-.97-.173-1.219h1.983c.863.062 1.265-.313 1.208-1.125v-4.125h-3.536zm.171 66.97v5.156h5.176v-5.156h-5.176zm14.787-36.529c-.058 6.251-1.927 9.437-5.606 9.563-3.853-.063-5.778-3.249-5.778-9.563.057-6.312 1.954-9.563 5.692-9.75 3.737.126 5.635 3.375 5.692 9.75zm-1.983 0c0-5.438-1.266-8.124-3.795-8.063-2.358.188-3.566 2.876-3.623 8.063 0 5.376 1.236 8.032 3.709 7.969 2.472.063 3.709-2.593 3.709-7.969zm-2.246-40.191v-1.875h2.501c.287-1.125.546-2.187.776-3.188l1.897.188c-.059.375-.202 1-.432 1.875-.172.501-.288.876-.345 1.125h4.398v1.875h-4.916c-.806 2.875-1.41 4.875-1.812 6h2.502v-4.594h1.639v4.594h2.328v1.875h-2.328v3l2.587-.375c-.058.75-.086 1.406-.086 1.969l-2.501.281v4.594h-1.897v-4.406c-1.553.188-2.991.375-4.313.563l-.173-2.063c.401 0 1.063-.062 1.983-.188 1.092-.062 1.926-.125 2.502-.188v-3.188h-3.968v-1.875l.259-.844c.459-1.5.919-3.218 1.38-5.156h-1.981zm.172 68.658v-2.063h9.66c-.116-.499-.375-1.28-.776-2.344-.172-.499-.288-.844-.345-1.031l2.329-.281c.172.501.459 1.313.862 2.438.172.563.315.97.431 1.219h8.107v2.063h-12.592c0 .813-.059 2.001-.173 3.563.114-1.125.114-1.031 0 .281h10.178c-.059 1.438-.173 3.563-.345 6.375-.059.813-.087 1.376-.087 1.688-.058 2.813-1.524 4.187-4.398 4.125h-3.623c-.115-.688-.259-1.375-.431-2.063h3.536c1.781.062 2.73-.844 2.847-2.719 0-.249.028-.656.086-1.219.114-1.812.172-3.188.172-4.125h-8.107c-.23 4.5-2.242 8.124-6.037 10.875-.806-.876-1.352-1.438-1.639-1.688 3.737-2.499 5.635-6 5.692-10.5.114-1.875.173-3.405.173-4.594h-5.52zm1.553 82.72l-1.897-1.031c1.035-2 2.357-5.03 3.968-9.094.573.375 1.207.719 1.897 1.031l-3.968 9.094zm17.94-32.217c-2.876-1.313-6.01-2.656-9.401-4.031-.979 1.749-4.141 3.218-9.488 4.406-.115-.563-.374-1.313-.775-2.25 5.979-.75 9.026-2.469 9.142-5.156.229-.875.346-1.749.346-2.625h2.069c-.058 1.313-.172 2.313-.345 3l-.172.844c3.219 1.251 6.41 2.5 9.573 3.75l-.949 2.062zm-16.043 19.842l-1.553-2.813c-.748-1.374-1.294-2.375-1.639-3l1.726-1.031c1.149 1.938 2.271 3.844 3.363 5.719l-1.897 1.125zm-1.811-24.342v-8.156h17.078v7.875h-2.07v-6h-12.938v6.281h-2.07zm1.121-10.218v-6.469h14.835v6.469h-14.835zm17.854 46.654c-.518.687-1.007 1.343-1.467 1.969-3.565-2.376-5.75-5.375-6.555-9-.69 3.563-3.077 6.687-7.159 9.375-.23-.313-.661-.907-1.293-1.781l-.173-.188c4.542-2.499 6.986-5.968 7.331-10.406.114-.875.173-1.906.173-3.094h2.069c0 .25-.029.625-.086 1.125v1.031c.691 5.001 3.076 8.657 7.16 10.969zm-15.784-51.248v2.719h10.695v-2.719h-10.695zm13.196 41.592c-.288-.125-.689-.249-1.207-.375-.289-.062-.518-.125-.69-.188l1.553-4.219h-7.936c-.633 1.563-1.38 3.126-2.242 4.688-.116-.062-.316-.188-.604-.375-.575-.375-.979-.624-1.208-.75 1.84-3 3.105-6.094 3.795-9.281l2.07.469c-.345 1.125-.689 2.188-1.035 3.188h9.315v2.063l-1.811 4.78zm.563-101.25c-.058 6.251-1.927 9.437-5.606 9.563-3.853-.063-5.778-3.249-5.778-9.563.057-6.312 1.954-9.563 5.692-9.75 3.737.126 5.634 3.375 5.692 9.75zm2.197-37.847c-.23.375-.575 1.063-1.035 2.063-2.358-1.812-4.169-3.968-5.434-6.469-1.38 2.376-3.277 4.563-5.692 6.563-.115-.249-.374-.718-.776-1.406-.172-.188-.288-.343-.345-.469 2.875-2.124 4.916-4.718 6.124-7.781l2.069.281-.431.938c1.38 2.749 3.22 4.843 5.52 6.28zm-4.181 37.847c0-5.438-1.266-8.124-3.795-8.063-2.358.188-3.566 2.876-3.623 8.063 0 5.376 1.236 8.032 3.709 7.969 2.472.063 3.709-2.593 3.709-7.969zm-3.495-23.504c-2.014 0-3.019-1.063-3.019-3.188v-9.563h1.897v4.125c1.839-1.062 3.593-2.344 5.261-3.844l1.208 1.688c-2.128 1.688-4.284 3.157-6.469 4.406v2.719c-.059 1.125.518 1.655 1.725 1.594h1.983c1.15 0 1.782-.53 1.897-1.594.173-.999.287-2.063.346-3.188.689.25 1.322.469 1.897.656-.173 1.563-.375 2.782-.604 3.656-.23 1.688-1.324 2.531-3.278 2.531h-2.844zm10.513 34.66v-12.563c-.634 1.251-1.294 2.438-1.983 3.563-.059-.312-.116-.75-.173-1.313-.116-.687-.202-1.187-.259-1.5 1.781-3.375 3.047-6.905 3.795-10.594l1.897.563c-.403 1.563-.893 3.157-1.466 4.781v17.063h-1.811zm19.44 88.969c-.288.501-.489.876-.604 1.125-4.025-2.188-7.131-4.843-9.315-7.969-2.128 2.875-5.377 5.625-9.746 8.25l-1.035-2.156c4.83-2.563 8.164-5.499 10.005-8.813l2.415.281c-.058.063-.144.22-.259.469-.115.188-.202.344-.259.469 2.357 3.126 5.463 5.563 9.315 7.313-.115.187-.287.531-.517 1.031zm-20.095-139.941v-1.969h3.708c-.288-1.062-.604-2.093-.948-3.094l1.983-.469c.173.688.518 1.875 1.035 3.563h2.415v1.969h-4.657l-.087 3.188h4.141c0 3.375-.087 6.75-.259 10.125 0 2-.835 3-2.502 3h-1.897l-.431-1.969h1.725c.978.062 1.437-.437 1.38-1.5.115-3.249.173-5.813.173-7.688h-2.415c0 5.313-.806 9.218-2.415 11.719l-1.466-1.406c1.437-2 2.156-5.656 2.156-10.969l.086-4.5h-1.725zm.43 84.689v-18.375h2.329c.057-.249.143-.593.259-1.031.229-.687.431-1.594.604-2.719l2.156.375c-.288 1.125-.604 2.25-.949 3.375h3.882v18.188h-1.897v-1.781h-4.399v1.969h-1.985zm0 34.004v-18.375h2.329c.057-.249.143-.594.259-1.031.229-.688.431-1.594.604-2.719l2.156.375c-.288 1.125-.604 2.25-.949 3.375h3.882v18.188h-1.897v-1.781h-4.399v1.969h-1.985zm12.593 34.466c-1.669-1.188-4.112-2.782-7.331-4.781-.748-.5-1.324-.875-1.726-1.125l1.208-1.594c1.954 1.251 3.593 2.282 4.916 3.094l4.916-4.781h-13.109v-2.063h15.869v2.25l-5.778 5.719c.805.437 1.609.938 2.415 1.5l-1.38 1.781zm-10.609-84.783v5.156h4.399v-5.156h-4.399zm0 7.219v5.344h4.399v-5.344h-4.399zm0 26.785v5.156h4.399v-5.156h-4.399zm0 7.219v5.344h4.399v-5.344h-4.399zm1.345-65.94v-3.656h15.181v3.656h-1.812v-1.875h-11.558v1.875h-1.811zm.518-11.156v-1.688h6.383c-.058-.249-.116-.593-.173-1.031-.115-.437-.202-.75-.259-.938l1.984-.281.518 2.25h6.123v1.688h-14.576zm1.38 12.75v-1.688h11.472v1.688h-4.227v3c0 1.562-.72 2.344-2.156 2.344-.518.062-1.523.094-3.019.094v-.281c-.058-.375-.173-.907-.345-1.594.518.062 1.322.094 2.415.094.862 0 1.264-.313 1.207-.938v-2.719h-5.347zm.173-6.656v-4.688h11.126v4.688h-11.126zm5.726-39.816c-.748 1.375-1.639 2.719-2.674 4.031-.633-.687-1.093-1.156-1.38-1.406 1.726-2.063 2.989-4.374 3.795-6.938l1.984.188-.518 1.406c-.173.438-.288.75-.345.938h7.762v1.781h-8.624zm-3.915 36.628v1.688h7.504v-1.688h-7.504zm2.881 106.032c-.173-.188-.403-.5-.69-.938-.921-1.187-1.639-2.063-2.156-2.625l1.553-1.125c.574.563 1.38 1.469 2.415 2.719.229.313.401.531.518.656l-1.64 1.313zm9.315-126.16l-.776.844c-3.221-2.75-5.061-6.875-5.52-12.375-.69.063-1.38.157-2.07.281v9.844c1.208-.624 2.329-1.125 3.364-1.5v.938c.056.438.086.75.086.938-1.208.437-2.415.999-3.623 1.688-.115.062-.258.125-.431.188-.461.249-.748.437-.862.563l-1.122-1.688c.518-.438.747-1.031.69-1.781v-10.969c3.105-.249 6.21-.75 9.315-1.5l.689 1.969c-1.323.313-2.76.563-4.313.75.173 1.5.401 2.813.69 3.938 1.149-.624 2.271-1.313 3.363-2.063l.949 1.688c-1.208.75-2.445 1.469-3.709 2.156.746 2.063 2.099 3.782 4.054 5.156-.114.185-.373.497-.774.935zm-4.14 69.22h-3.623c-.058-.688-.202-1.438-.431-2.25.746.062 1.867.094 3.363.094 1.609.125 2.415-.656 2.415-2.344.114-1.374.201-4.313.259-8.813.057-1.313.086-2.25.086-2.813h-5.175c-.23.563-.604 1.376-1.121 2.438l-.518 1.125c-.518-.375-1.093-.75-1.725-1.125 1.38-2.687 2.443-5.438 3.191-8.25l1.983.469c-.116.375-.288.907-.518 1.594l-.518 1.688h6.383c0 4.001-.116 8.688-.345 14.063.003 2.686-1.234 4.062-3.706 4.124zm0 34.004h-3.623c-.058-.688-.202-1.438-.431-2.25.746.062 1.867.094 3.363.094 1.609.124 2.415-.656 2.415-2.344.114-1.374.201-4.313.259-8.813.057-1.313.086-2.25.086-2.813h-5.175c-.23.563-.604 1.375-1.121 2.438l-.518 1.125c-.518-.375-1.093-.75-1.725-1.125 1.38-2.687 2.443-5.438 3.191-8.25l1.983.469c-.116.375-.288.906-.518 1.594l-.518 1.688h6.383c0 4-.116 8.688-.345 14.063.003 2.686-1.234 4.061-3.706 4.124zm-1.639-40.472l-1.294-1.969c-.806-1.313-1.438-2.312-1.897-3l1.553-1.125c.401.626 1.005 1.5 1.811 2.625.69.938 1.208 1.688 1.553 2.25l-1.726 1.219zm0 34.003l-1.294-1.969c-.806-1.313-1.438-2.312-1.897-3l1.553-1.125c.401.625 1.005 1.5 1.811 2.625.69.938 1.208 1.688 1.553 2.25l-1.726 1.219zm7.509-77.095v-1.5h2.932c-.172-.124-.489-.375-.948-.75-.23-.188-.403-.312-.518-.375 1.264-1.062 2.242-2.25 2.933-3.563l1.812.469c-.059.126-.173.313-.346.563-.115.251-.23.438-.345.563h4.14v-1.781h1.897v1.781h7.332v1.406h-7.332v1.688h9.057v1.5h-20.614zm.518 8.531v-1.406h6.468v-1.219h1.898v10.125h-1.898v-1.875h-6.985v-1.313h6.985v-1.5h-6.123v-1.313h6.123v-1.5h-6.468zm.632-40.191v-1.969h2.933v-3.469h-1.294c-.575.063-1.007.094-1.294.094-.058-.75-.145-1.374-.259-1.875 2.415-.062 4.801-.249 7.159-.563l.259 1.875c-.921.188-1.841.281-2.761.281v3.656h2.674v1.969h-2.674v2.531l.259-.375c1.092.938 2.07 1.844 2.933 2.719l-1.035 1.594c-.689-.75-1.409-1.5-2.156-2.25v9.469h-1.811v-9.375c-.634 1.938-1.467 3.656-2.501 5.156-.231-.812-.518-1.531-.863-2.156 1.437-2.063 2.53-4.5 3.277-7.313h-2.846zm.863 81.033l-.173.188-.948-2.156c1.035-.938 1.868-1.749 2.501-2.438v-7.313h-2.328v-2.063h4.226v9.281c.978 1.626 2.616 2.438 4.916 2.438 3.737.125 7.619.125 11.645 0-.059.125-.116.343-.173.656-.23.563-.375 1.031-.432 1.406-5.923 0-9.775-.063-11.557-.188-2.301 0-4.054-.844-5.262-2.531-.575.502-1.38 1.407-2.415 2.72zm-.777 18.441v-1.969h2.415v-4.125h1.897v4.125h2.329v1.969h-2.329v4.688l2.415-.656v2.156l-2.415.656v6.469c.057 1.749-.689 2.625-2.242 2.625-.461.062-1.064.094-1.812.094-.058-.75-.172-1.47-.345-2.156h.432c.345.062.66.062.948 0 .805.062 1.178-.281 1.121-1.031v-5.438c-.288.126-.748.25-1.38.375-.518.188-.921.313-1.207.375l-.173-2.344c.114 0 .259-.031.432-.094.573-.125 1.35-.313 2.328-.563v-5.156h-2.414zm20.356 47.779c-.69.938-1.151 1.594-1.38 1.969-5.061-2.874-7.993-7.156-8.798-12.844-.806 5.563-3.795 9.938-8.97 13.125-.116-.188-.317-.469-.604-.844-.402-.563-.661-.97-.775-1.219 5.52-3.188 8.509-7.937 8.97-14.25.114-1.438.172-3.313.172-5.625h2.243l-.086 3.281c.573 8.25 3.708 13.656 9.4 16.219l-.172.188zm-16.733-82.251c-.289-.437-.835-1.219-1.639-2.344-.576-.874-1.007-1.5-1.294-1.875l1.553-1.031c1.437 1.751 2.501 3.094 3.19 4.031l-1.81 1.219zm-2.272-27.624v-4.406h15.353v4.406h-15.353zm1.897-8.906c-.402.563-.92 1.125-1.553 1.688h6.728v-1.688h-5.175zm0 5.813v1.688h11.558v-1.688h-11.558zm13.744 43.654c-.518.063-1.207.094-2.069.094v-.188c-.116-.687-.23-1.187-.346-1.5h.862c.346.063.604.094.776.094.919.063 1.351-.469 1.294-1.594v-.563h-3.709v3.375h-1.897v-3.375h-3.708v3.656h-1.812v-12.563h5.002c-.345-.249-.92-.624-1.725-1.125-.862-.499-1.466-.844-1.812-1.031l1.208-1.125c.401.251.546.345.431.281 1.381.813 2.443 1.438 3.191 1.875l3.709-2.25h-10.264v-1.594h13.023v1.781l-5.002 3.094c.114 0 .172.032.172.094h5.003v9.75c.058 1.877-.718 2.814-2.327 2.814zm-9.143-74.658v-1.781h12.161v1.781h-5.175v3h4.658v1.688h-4.658v3h5.779v1.688h-13.801v-1.688h6.038v-3h-4.657v-1.688h4.657v-3h-5.002zm2.761 98.912c-1.956.063-2.904-.905-2.847-2.906v-6h1.897v3.281c3.507-.563 6.728-1.313 9.66-2.25l.689 1.875c-2.703.688-6.153 1.406-10.35 2.156v.281c-.116 1.313.488 1.907 1.812 1.781h4.916c1.149.063 1.812-.406 1.983-1.406.115-.313.229-.875.346-1.688v-.188c.229.063.632.188 1.207.375.287.063.488.126.604.188-.058.25-.115.563-.172.938-.116.688-.202 1.219-.259 1.594-.346 1.375-1.38 2.031-3.105 1.969h-6.381zm-2.674 13.5v-11.531h11.299v11.531h-1.897v-1.313h-7.504v1.313h-1.898zm.259-48.723v2.156h3.708v-2.156h-3.708zm0 3.657v2.156h3.708v-2.156h-3.708zm.43-71.283v-6.844h10.609v6.844h-10.609zm1.208 106.599v2.531h7.504v-2.531h-7.504zm0 4.219v2.531h7.504v-2.531h-7.504zm.661-62.471v-10.125h1.897v1.219h6.555v1.406h-6.555v1.5h6.124v1.313h-6.124v1.5h7.072v1.313h-7.072v1.875h-1.897zm.029-53.41v3.281h6.814v-3.281h-6.814zm6.986 72.689h-3.709v2.156h3.709v-2.156zm-3.709 3.657v2.156h3.709v-2.156h-3.709zm11.223-23.03v-10.312l-.776.281c-.689.251-1.207.469-1.553.656-.172-.624-.46-1.249-.862-1.875 3.393-.938 6.124-2.28 8.194-4.031h-7.59v-1.688h8.883v-2.344c-.92.063-1.927.094-3.019.094h-4.054c-.058-.687-.144-1.249-.259-1.688 4.197 0 9.603-.188 16.215-.563l.259 1.688c-1.438.126-3.853.251-7.245.375v2.438h8.884v1.688h-7.59c1.782 1.626 4.485 2.876 8.107 3.75-.345.688-.633 1.313-.862 1.875-3.968-1.249-6.813-2.843-8.539-4.781v3.281h-1.897v-3.281c-1.61 1.688-3.651 3.032-6.123 4.031h14.231v10.406h-1.898v-.938h-10.608v.938h-1.898zm.446 16.655c-.403 1.125-.862 2.25-1.38 3.375-.116-.062-.289-.188-.518-.375-.461-.375-.806-.624-1.035-.75 1.207-2.438 2.04-4.875 2.501-7.313l1.897.375c-.115.501-.316 1.188-.604 2.063-.058.313-.116.532-.173.656h6.038v1.969h-3.019c0 2.376-.03 4.063-.087 5.063h3.536v1.969h-3.708c0 .626-.059 1.219-.173 1.781.401.438.948 1.095 1.639 1.969 1.149 1.313 2.012 2.344 2.588 3.094l-1.467 1.406c-.23-.313-.575-.75-1.035-1.313-.461-.624-1.207-1.594-2.242-2.906-.634 2.126-2.1 4.219-4.398 6.281-.576-.75-1.035-1.313-1.38-1.688 2.816-2.438 4.341-5.312 4.571-8.625h-4.313v-1.969h4.398c.057-1.062.086-2.749.086-5.063h-1.722v.001zm-2.07-50.846v-18.375h2.329c.057-.249.143-.593.259-1.031.229-.687.431-1.594.604-2.719l2.156.375c-.288 1.125-.604 2.25-.949 3.375h3.882v18.188h-1.897v-1.781h-4.399v1.969h-1.985zm6.823 101.818c-1.323.062-2.674.094-4.054.094-.058-.626-.23-1.376-.518-2.25.978.062 2.271.094 3.882.094 1.667.124 2.529-.624 2.587-2.25 0-.125.028-.343.087-.656.114-1.25.172-2.218.172-2.906h-8.711l.949-7.406h7.676v-3.656h-8.625v-1.969h10.781v7.594h-8.021l-.518 3.469h8.712c-.059.625-.116 1.563-.173 2.813-.116 1.5-.202 2.563-.259 3.188.001 2.622-1.322 3.903-3.967 3.841zm-6.555 34.373v-21.094h18.717v21.094h-1.984v-1.5h-14.749v1.5h-1.984zm1.715-152.503v5.156h4.399v-5.156h-4.399zm0 7.219v5.344h4.399v-5.344h-4.399zm.269 126.159v15.844h14.749v-15.844h-14.749zm1.269-91.594v2.344h10.608v-2.344h-10.608zm0 3.844v2.25h10.608v-2.25h-10.608zm1.663 100.031v-8.906h8.884v8.906h-8.884zm1.898-7.031v5.156h5.176v-5.156h-5.176zm8.184-122.503h-3.623c-.058-.688-.202-1.438-.431-2.25.746.062 1.867.094 3.363.094 1.609.125 2.415-.656 2.415-2.344.114-1.374.201-4.313.259-8.813.057-1.313.086-2.25.086-2.813h-5.175c-.23.563-.604 1.375-1.121 2.438l-.518 1.125c-.518-.375-1.093-.75-1.725-1.125 1.38-2.687 2.443-5.438 3.191-8.25l1.983.469c-.116.375-.288.907-.518 1.594l-.518 1.688h6.383c0 4-.116 8.688-.345 14.063.003 2.685-1.234 4.061-3.706 4.124zm-5.003 67.533v-19.313h8.97v19.219h-2.069v-2.063h-4.916v2.156h-1.985zm3.365-74.002l-1.294-1.969c-.806-1.313-1.438-2.312-1.897-3l1.553-1.125c.401.625 1.005 1.5 1.811 2.625.69.938 1.208 1.688 1.553 2.25l-1.726 1.219zm-1.38 56.752v13.031h4.916v-13.031h-4.916zm3.805 52.191v-22.313h2.069v22.313h-2.069zm8.38-79.252c-.289-.312-.69-.812-1.208-1.5-.748-.874-1.323-1.562-1.725-2.063l1.553-1.125c1.035 1.063 2.069 2.22 3.104 3.469l-1.724 1.219zm.604 5.812c-.461 2.438-.806 4.219-1.035 5.344l-2.069-.656c.689-2.562 1.321-5.438 1.897-8.625.286.126.718.281 1.293.469.287.063.488.126.604.188-.116.625-.345 1.719-.69 3.28zm0-11.906c-.921-1.249-1.869-2.438-2.847-3.563l1.64-1.125c.229.251.546.626.948 1.125.862.938 1.523 1.72 1.983 2.344l-1.724 1.219zm-2.75 66.783v-2.25h20.527v2.25h-10.091v5.906l1.293-1.781c2.645 1.626 5.204 3.281 7.677 4.969l-1.38 2.063c-2.243-1.625-4.773-3.375-7.59-5.25v12.469h-2.243v-18.375h-8.193zm2.329-20.41c-.461.313-.835.626-1.122.938l-1.121-2.063c.46-.499.69-1.155.69-1.969v-11.344h1.897v11.906l2.415-1.5v-13.313h1.983v22.219h-1.983v-6.563c-.518.251-1.266.688-2.243 1.313-.229.189-.402.315-.516.376zm-1.553 70.158v-17.531h5.865v15.75h-4.055v1.781h-1.81zm1.639-133.378v-20.813h15.611v20.813h-2.07v-1.594h-11.385v1.594h-2.156zm.172 117.816v11.719h2.329v-11.719h-2.329zm2.578-101.719v-1.781h2.76v-2.531h1.812v2.531h4.14v-2.531h1.897v2.531h3.278v1.781h-3.278v2.813h4.054v1.781h-4.398c1.149 1.938 2.73 3.438 4.744 4.5l-.259.563c-.173.251-.403.688-.69 1.313-1.38-.938-2.501-1.905-3.363-2.906v4.969h-7.504v1.219c-.059 1.001.401 1.468 1.38 1.406h5.52c.978 0 1.581-.375 1.812-1.125.173-.499.287-1.249.345-2.25.173.063.402.157.69.281l1.035.281c-.116.938-.289 1.781-.518 2.531-.288 1.437-1.294 2.124-3.019 2.063h-6.556c-1.668 0-2.501-.876-2.501-2.625v-5.25c-.689.688-1.438 1.313-2.242 1.875-.23-.624-.518-1.249-.862-1.875 2.069-1.313 3.679-2.968 4.83-4.969h-4.055v-1.781h3.709v-2.813h-2.761zm-.594-34.847v6.469h11.385v-6.469h-11.385zm0 8.531v6.656h11.385v-6.656h-11.385zm3.536 129.722v-1.969h4.398v-3.75h1.984v3.75h4.657v1.969h-4.657v3.469h5.605v1.875h-4.916c1.208 2.938 3.105 5.406 5.692 7.406l-1.293 1.781c-2.415-2.124-4.112-4.562-5.089-7.313v9.469h-1.984v-9.469c-1.207 3.188-3.048 5.781-5.52 7.781-.461-.626-.949-1.187-1.467-1.688 2.817-1.937 4.917-4.594 6.297-7.969h-4.485v-1.875h5.175v-3.469h-4.397zm1.812-64.72c-.461.876-.949 1.688-1.467 2.438-.058-.124-.202-.343-.431-.656-.403-.499-.69-.874-.863-1.125 2.013-2.874 3.537-6.094 4.571-9.656l1.984.281c-.403 1.313-.862 2.595-1.38 3.844h8.107v2.063h-2.07c-.461 4.5-1.524 7.938-3.191 10.313 1.38 1.563 3.22 2.782 5.521 3.656-.518.75-.949 1.438-1.294 2.063-2.301-1.251-4.14-2.593-5.521-4.031-.979 1.125-2.703 2.531-5.175 4.219-.402-.688-.834-1.313-1.294-1.875 2.185-1.187 3.91-2.531 5.176-4.031-1.151-1.752-2.041-4.252-2.673-7.503zm-1.563-29.78v2.531h5.692v-2.531h-5.692zm1.898-4.312c-.518.938-1.093 1.813-1.726 2.625h6.642c-.575-.812-1.121-1.688-1.639-2.625h-3.277zm-.518-4.594v2.813h4.14v-2.813h-4.14zm1.649 36.061c.401 3.626 1.236 6.407 2.501 8.344 1.322-1.937 2.185-4.781 2.588-8.531h-5.089v.187zm15.21-30.623c.114 5.438-.807 9.656-2.761 12.656-.288-.375-.806-.97-1.552-1.781.919-1.437 1.522-2.937 1.811-4.5.287-1.437.432-3.656.432-6.656v-7.031h8.021l-.69-2.25 2.329-.281c0 .063.028.188.086.375.229.938.432 1.657.604 2.156h7.245v7.313h-15.525v-.001zm-3.619 30.529v-1.969h2.329v-4.219h1.897v4.219h2.242v1.969h-2.242v4.688l2.156-.656v2.156l-2.156.656v6.563c.057 1.625-.634 2.438-2.07 2.438-.633.062-1.294.094-1.983.094 0-.313-.059-.782-.173-1.406-.058-.313-.086-.563-.086-.75h.518c.345.062.66.094.948.094.69.062 1.006-.25.949-.938v-5.531l-2.501.844-.173-2.344c.862-.188 1.753-.405 2.674-.656v-5.25h-2.329zm4.4 36.91c-1.094 2.563-2.101 4.75-3.02 6.563-.23-.188-.661-.469-1.293-.844-.173-.125-.317-.219-.432-.281 1.035-1.875 1.983-3.938 2.846-6.188l1.899.75zm-4.658-98.724v-2.156h9.574v-2.531l6.21-4.406h-13.8v-2.156h16.904v2.625l-7.158 5.063v1.406h9.143v2.156h-9.143v6.281c.057 2.063-.921 3.155-2.933 3.281h-1.639c-.806.062-1.438.094-1.897.094-.116-.876-.259-1.688-.432-2.438h1.208c.746.062 1.35.094 1.811.094 1.208.062 1.782-.53 1.726-1.781v-5.531h-9.574zm19.32 104.912c-.345-.812-.893-1.969-1.639-3.469-.461-.938-.776-1.625-.949-2.063-.058 1.251-.058 1.688 0 1.313-.115 2.751-.202 4.75-.259 6 0 3.062-1.38 4.562-4.14 4.5-1.035.062-2.214.094-3.536.094-.058-.438-.173-1.031-.345-1.781-.059-.188-.116-.343-.173-.469 1.494.126 2.674.188 3.536.188 1.781.124 2.645-.875 2.588-3 .114-2.124.229-5.625.345-10.5h-5.521c.057 7.938-2.501 13.313-7.676 16.125 0-.063-.058-.126-.173-.188-.518-.813-.948-1.376-1.293-1.688 2.76-1.749 4.571-3.563 5.434-5.438.919-1.688 1.437-4.594 1.552-8.719v-.094h-6.21v-2.063h6.297c0-.5.028-1.187.086-2.063 0-.999.028-1.688.086-2.063h2.07l-.086 4.125h7.59l-.173 5.25 1.467-.75c.172.375.431.876.776 1.5.919 1.813 1.639 3.22 2.156 4.219l-1.81 1.034zm-18.544 40.748v-18.375h2.329c.057-.249.143-.594.259-1.031.229-.688.431-1.594.604-2.719l2.156.375c-.288 1.125-.604 2.25-.949 3.375h3.882v18.188h-1.897v-1.781h-4.399v1.969h-1.985zm1.983-16.313v5.156h4.399v-5.156h-4.399zm0 7.219v5.344h4.399v-5.344h-4.399zm1.118-110.625v3.375h13.455v-3.375h-13.455zm1.38 18v-9.563h13.886v9.563h-1.983v-1.5h-9.919v1.5h-1.984zm15.702 18.904c-.461.876-.806 1.563-1.035 2.063-2.703-1.875-4.802-4.125-6.296-6.75-1.151 1.938-2.646 3.75-4.485 5.438h8.884v1.875h-8.97v-1.781c-.173.126-.461.345-.862.656-.346.313-.634.563-.863.75-.058-.124-.172-.343-.345-.656-.288-.687-.518-1.125-.689-1.313 2.874-1.937 5.088-4.53 6.641-7.781l2.156.188-.518.938c1.781 2.874 3.909 4.999 6.382 6.373zm-13.719-26.592v4.5h9.919v-4.5h-9.919zm.695 41.686v-9.75h11.126v9.75h-1.983v-1.406h-7.159v1.406h-1.984zm8.108 67.533h-3.623c-.058-.688-.202-1.438-.431-2.25.746.062 1.867.094 3.363.094 1.609.124 2.415-.656 2.415-2.344.114-1.374.201-4.313.259-8.813.057-1.313.086-2.25.086-2.813h-5.175c-.23.563-.604 1.375-1.121 2.438l-.518 1.125c-.518-.375-1.093-.75-1.725-1.125 1.38-2.687 2.443-5.438 3.191-8.25l1.983.469c-.116.375-.288.906-.518 1.594l-.518 1.688h6.383c0 4-.116 8.688-.345 14.063.003 2.686-1.235 4.061-3.706 4.124zm-6.124-75.408v4.688h7.159v-4.688h-7.159zm4.485 68.939l-1.294-1.969c-.806-1.313-1.438-2.312-1.897-3l1.553-1.125c.401.625 1.005 1.5 1.811 2.625.69.938 1.208 1.688 1.553 2.25l-1.726 1.219zm11.236-4.687c-.115-.062-.258-.219-.431-.469-1.093-.999-1.927-1.781-2.501-2.344l1.207-1.5c1.149.938 2.156 1.875 3.019 2.813l-1.294 1.5zm-.172-90.375v-9.375c-.116.126-.289.345-.518.656-.634.813-1.151 1.406-1.553 1.781-.058-.375-.202-.938-.431-1.688-.059-.249-.116-.437-.173-.563 1.897-1.937 3.479-4.219 4.744-6.844l1.552 1.031c-.058.126-.172.313-.345.563-.575 1.188-1.064 2.063-1.466 2.625v11.813h-1.81zm.604 24.717c-.806.938-1.639 1.813-2.501 2.625-.23-.75-.489-1.5-.776-2.25 2.127-1.937 4.054-4.374 5.778-7.313l1.639 1.219c-.747 1.188-1.466 2.282-2.156 3.281v11.719h-1.983v-9.281h-.001zm-3.019 24.535v-1.969h6.728v1.969h-2.415v5.906h2.329v1.875h-2.329v6.094c.805-.188 1.639-.375 2.501-.563-.058.313-.058.782 0 1.406v.656c-.172.063-.431.126-.776.188-2.473.375-4.456.78-5.951 1.219l-.345-1.969c.287-.062.746-.155 1.38-.281l1.294-.281v-6.469h-2.329v-1.875h2.329v-5.906h-2.416zm7.073-36.441c-2.07 2.813-4.083 5.032-6.037 6.656-.403-.938-.72-1.624-.949-2.063 2.127-1.812 3.882-3.75 5.262-5.813l1.724 1.22zm-1.036-33.905c-1.323 2.25-2.99 4.345-5.002 6.281-.173-.687-.461-1.374-.862-2.063 1.608-1.374 3.047-3.188 4.313-5.438l1.551 1.22zm-2.156 114.563c-.748 3.126-1.38 5.906-1.897 8.344l-1.811-.656c.804-3.188 1.408-5.968 1.811-8.344.229.126.747.313 1.553.563-.634-.189-.518-.156.344.093zm-.862-9.282c-.92-1.063-1.812-2-2.674-2.813l1.294-1.406c.919.813 1.84 1.72 2.76 2.719l-1.38 1.5zm2.933-122.315c0 2.187-.748 3.812-2.242 4.875l-.776-.844c1.035-.813 1.58-2.032 1.639-3.656h-1.467v-3.094h2.847l-.001 2.719zm-1.639 123.628v-1.969h3.363c-.288-.812-.604-2-.948-3.563l1.897-.281c.057.375.2.938.431 1.688.229.876.402 1.594.518 2.156h-.086 2.156v1.969h-4.054l-.086 3.375h3.881c0 .876-.029 2.188-.086 3.938-.058 2.688-.116 4.626-.173 5.813 0 1.812-.806 2.719-2.415 2.719-.518.062-1.064.094-1.639.094l-.345-1.969h1.294c.977.062 1.437-.375 1.38-1.313 0-.375.028-.969.086-1.781.114-2.625.173-4.5.173-5.625h-2.243v.469c-.115 4.563-.979 8.156-2.587 10.781l-1.467-1.406c1.437-2 2.213-5.156 2.329-9.469.114-1.625.173-3.5.173-5.625h-1.552zm3.881-91.313c-.461 1.5-1.035 2.906-1.725 4.219-.288-.126-.69-.281-1.208-.469-.172-.126-.288-.188-.345-.188.69-1.437 1.265-2.78 1.726-4.031l1.552.469zm-2.415-1.968v-1.688h14.749v1.688h-7.504c.173.313.432.75.776 1.313.46.688.776 1.188.949 1.5l-1.553.844c-.173-.437-.547-1.125-1.121-2.063-.23-.437-.432-.78-.604-1.031l1.294-.563h-6.986zm.431-10.875v-1.688h5.951v-2.063h1.812v2.063h6.296v1.688h-6.296v1.781h5.52v5.813h-12.938v-5.813h5.606v-1.781h-5.951zm1.294 81.127v-1.781h5.175v-2.625h-4.916v-11.438h11.816v11.438h-5.003v2.625h5.261v1.781h-5.261v2.813h6.124v1.875h-14.404v-1.875h6.383v-2.813h-5.175zm.259-40.192v-2.156h12.938v2.156h-3.709v7.875c.057 2.25-.979 3.375-3.105 3.375-.979.062-2.1.094-3.363.094-.173-.75-.316-1.5-.432-2.25h1.294c.747.062 1.322.094 1.726.094 1.264.062 1.867-.499 1.811-1.688v-7.5h-7.16zm.431-37.654v2.813h2.243v-2.813h-2.243zm.69 30.623v-2.156h10.781v2.156h-10.781zm2.587-15.811c-1.725.062-2.559-.72-2.501-2.344v-3.469h1.726v2.813c-.116.938.401 1.374 1.552 1.313h1.726c.919 0 1.437-.281 1.552-.844.115-.375.201-.905.259-1.594.057-.188.087-.312.087-.375.632.313 1.178.532 1.639.656-.173.938-.345 1.626-.518 2.063-.288 1.249-1.18 1.843-2.674 1.781h-2.848zm-1.81 49.065v3h3.019v-3h-3.019zm0 4.687v3.094h3.019v-3.094h-3.019zm2.415 41.217v-1.875h3.536v-1.313l2.328-2.625h-4.829v-1.406l-.604.938c-.402-.437-.892-.905-1.466-1.406 1.38-2.063 2.472-4.468 3.277-7.219l1.983.281c-.345 1-.689 1.969-1.034 2.906h5.434v1.875h-6.21c-.346.75-.748 1.5-1.208 2.25h6.728v1.969l-2.587 3v.75h3.277v1.875h-3.277v4.594c.057 1.688-.748 2.531-2.415 2.531-.807.062-1.553.094-2.243.094 0-.188-.058-.438-.172-.75-.059-.563-.116-.97-.173-1.219h1.983c.863.062 1.265-.313 1.208-1.125v-4.125h-3.536zm-.173-109.781v2.813h2.242v-2.813h-2.242zm5.778 63.877h-3.104v3h3.104v-3zm-3.104 4.687v3.094h3.104v-3.094h-3.104zm3.277-68.564h-2.242v2.813h2.242v-2.813zm1.38 13.219c-.23-.375-.604-1.062-1.121-2.063-.403-.75-.72-1.343-.948-1.781l1.552-.656c.92 1.626 1.609 2.938 2.07 3.938l-1.553.562zM254.368 118.002v-1.641h1.94v-3.516h1.582v3.516h1.653v1.641h-1.653v3.594l1.725-.703c0 .521.024 1.068.072 1.641l-1.797.781v5.938c.047 1.354-.528 2.057-1.725 2.109-.192 0-.479.026-.863.078h-.646c-.097-.677-.216-1.302-.359-1.875h1.222c.575 0 .838-.234.791-.703v-4.922l-2.012.859-.216-1.875 1.294-.469c.431-.156.742-.26.934-.313v-4.141h-1.942zm3.953-15.253v-13.125c-.307.168-.845.375-1.61.625-.308.168-.575.293-.805.375-.077-.25-.23-.666-.46-1.25-.155-.332-.5-1.125-1.035-2.375 4.14-.832 7.513-2.207 10.12-4.125h-9.2v-3.125h11.27v-2.25c-1.15.084-2.415.125-3.795.125h-5.175c-.078-.416-.155-.957-.23-1.625l-.345-1.5c6.9 0 14.298-.207 22.195-.625l.575 3.25c-3.145.168-6.325.25-9.545.25v2.375h11.27v3.125h-9.2c2.146 1.75 5.48 3.043 10.005 3.875-.154.418-.384 1-.69 1.75-.384.75-.652 1.334-.805 1.75-.768-.25-1.572-.5-2.415-.75v13.25h-3.68v-1.125h-12.766v1.125h-3.679zm3.522 27.207c-.336.26-.695.547-1.078.859l-1.006-1.484c.431-.416.647-1.041.647-1.875v-13.047c3.689-.156 7.115-.442 10.278-.859l.431 1.641c-.192 0-.456.027-.791.078-.959.105-2.084.209-3.378.313 0 1.459.047 3.021.144 4.688h4.384v1.641h-4.313c.144 2.761.647 4.949 1.51 6.563.334.521.646.781.934.781.239 0 .407-.208.503-.625 0-.156.023-.442.072-.859.095-.729.167-1.301.215-1.719.144.053.383.131.719.234.288.156.503.261.647.313 0 .209-.024.521-.072.938-.048.678-.144 1.328-.288 1.953-.288 1.094-.862 1.641-1.725 1.641-.959 0-1.773-.625-2.443-1.875-.959-1.666-1.51-4.114-1.653-7.344h-3.522v6.172l2.947-1.719v.156c.047.469.144.99.288 1.563l-.862.469c-1.199.57-2.062 1.038-2.588 1.403zm4.758-41.957v-3.125c-1.534 1.5-3.565 2.793-6.095 3.875h16.215c-2.837-1.082-4.984-2.416-6.44-4v3.25h-3.68zm-4.601 3.875v2.125h12.765v-2.125h-12.765zm0 4.75v2.125h12.765v-2.125h-12.765zm3.437 23.644c-.048-1.406-.072-2.916-.072-4.531-1.15.053-2.252.131-3.306.234v4.297h3.378zm-.504 11.25c-.479-.781-1.006-1.537-1.581-2.266l1.222-.703c.575.469 1.174 1.198 1.797 2.188l-1.438.781zm10.708-2.812c-.959.938-1.725 1.77-2.3 2.5l-.791-1.797c.239-.208.67-.598 1.294-1.172.479-.469.814-.807 1.006-1.016v-5.938h-2.156v-1.797h3.809v7.656c.91 1.459 2.228 2.161 3.953 2.109 3.066.104 6.229.104 9.488 0l-.216.938c-.144.364-.24.651-.288.859-1.054 0-2.659-.027-4.815-.078-2.3 0-3.858-.027-4.672-.078-1.773-.051-3.21-.78-4.312-2.186zm.359-11.172c-.431-.781-1.198-2.004-2.3-3.672l1.366-.781c.239.313.67.886 1.294 1.719.575.781.981 1.355 1.222 1.719l-1.582 1.015zm1.941 1.406v-1.719h4.457c.047-.989.072-2.422.072-4.297h1.725c0 1.563-.025 2.996-.072 4.297h5.175v1.719h-5.247c-.097 1.146-.288 2.188-.575 3.125l.791-.703c.479.469 1.341 1.355 2.587 2.656 1.197 1.25 2.036 2.136 2.516 2.656l-1.366 1.25c-.862-1.041-2.444-2.786-4.744-5.234-.719 1.928-2.253 3.725-4.6 5.391-.335-.52-.719-1.041-1.15-1.563 3.114-2.031 4.719-4.557 4.815-7.578h-4.384zm9.238-30.066c-.307-.582-.844-1.457-1.61-2.625-.69-1.25-1.265-2.207-1.725-2.875l3.22-1.75c1.15 1.5 2.3 3.209 3.45 5.125l-3.335 2.125zm5.865 4c-.69.668-1.458 1.25-2.3 1.75l-.69-1.875c-.69 3.25-1.38 6.582-2.07 10l-3.68-1.125c.92-3.5 1.725-7.125 2.415-10.875.92.334 1.916.668 2.99 1-.155-.25-.23-.541-.23-.875 2.453-1.332 4.408-3.166 5.865-5.5h-4.945v-3.25h4.6v-2.875h-3.565v-3.25h3.566v-3h3.45v3h4.6v-3h3.565v3h3.68v3.25h-3.68v2.875h4.83v3.25h-5.29c1.226 2.084 3.143 3.668 5.75 4.75-.615 1.25-1.15 2.459-1.61 3.625-1.535-.916-2.875-1.916-4.025-3v5.75h-9.89v.875c0 1.25.575 1.875 1.725 1.875h6.9c1.303 0 1.993-.541 2.07-1.625.23-.75.383-1.75.46-3 .996.334 2.07.709 3.22 1.125-.23 1.584-.46 2.75-.69 3.5-.46 2-1.917 3-4.37 3h-8.97c-2.455 0-3.68-1.25-3.68-3.75v-5.625h-.001zm-5.29-12.625c-.307-.5-.729-1.207-1.265-2.125-.845-1.332-1.495-2.416-1.955-3.25l3.335-1.75c1.38 2.084 2.491 3.793 3.335 5.125l-3.45 2zm8.585 42.988v2.734h-2.444v-2.734h2.444zm0 5.781v2.578h-2.444v-2.578h2.444zm.04-37.894v2.5h6.555v-2.5h-6.555zm2.76-5.75c-.537 1-1.15 1.918-1.84 2.75h6.785c-.538-.75-1.112-1.666-1.725-2.75h-3.22zm-.69-6.125v2.875h4.6v-2.875h-4.6zm20.817 42.972c-.048 5.209-1.606 7.864-4.672 7.969-3.211-.052-4.816-2.708-4.816-7.969.047-5.26 1.628-7.969 4.744-8.125 3.115.105 4.696 2.813 4.744 8.125zm-1.653 0c0-4.531-1.054-6.77-3.163-6.719-1.965.156-2.971 2.396-3.019 6.719 0 4.48 1.03 6.693 3.091 6.641 2.06.053 3.091-2.161 3.091-6.641zm7.186 7.735c.622-4.947 2.491-9.766 5.606-14.453v-1.094h-9.344v1.563h7.403c-2.875 4.584-4.672 9.246-5.391 13.984h1.726zm10.428-8.907v-2.422h-2.229v2.422h2.229zm0 8.672v-2.266h-2.229v2.266h2.229zm11.929-7.5c-.048 5.209-1.605 7.864-4.672 7.969-3.21-.052-4.815-2.708-4.815-7.969.048-5.26 1.629-7.969 4.744-8.125 3.114.105 4.695 2.813 4.743 8.125zm-1.652 0c0-4.531-1.055-6.77-3.163-6.719-1.965.156-2.972 2.396-3.019 6.719 0 4.48 1.03 6.693 3.091 6.641 2.06.053 3.091-2.161 3.091-6.641zm12.863 0c-.048 5.209-1.605 7.864-4.672 7.969-3.21-.052-4.815-2.708-4.815-7.969.048-5.26 1.629-7.969 4.744-8.125 3.114.105 4.695 2.813 4.743 8.125zm-1.652 0c0-4.531-1.055-6.77-3.163-6.719-1.965.156-2.972 2.396-3.019 6.719 0 4.48 1.03 6.693 3.091 6.641 2.06.053 3.091-2.161 3.091-6.641zM35.663 14.728c-.945 1.406-2.035 2.695-3.27 3.867-.218-.234-.545-.546-.98-.938l-.763-.82c2.106-1.796 3.741-4.023 4.904-6.68l2.507.234c-.292.782-.654 1.523-1.09 2.227h7.193v2.109h-5.013c.654.782 1.308 1.602 1.961 2.461l-2.18.82c-.291-.469-.8-1.172-1.525-2.109-.365-.469-.618-.82-.763-1.055l.109-.117h-1.09v.001zm9.482 10.781v2.578h10.79c0 1.875-.073 3.438-.218 4.688-.073 2.344-1.381 3.516-3.923 3.516h-3.706v-.352c-.073-.469-.218-1.093-.436-1.875 1.09.079 2.325.117 3.706.117 1.162.079 1.815-.469 1.962-1.641v-.938c.071-.625.109-1.055.109-1.289h-8.283v8.203h-2.507v-7.266c-2.397 2.891-5.958 5.116-10.68 6.68-.146-.234-.4-.665-.763-1.289-.218-.469-.4-.82-.545-1.055 4.504-1.172 7.81-2.93 9.917-5.273h-8.064l1.09-7.031h9.045v-2.695h-9.373v-2.227h21.361v7.148h-9.482zm-9.373 0l-.436 2.578h7.302v-2.578h-6.866zm11.77-10.781c-.727 1.016-1.526 2.071-2.397 3.164-.509-.546-1.127-1.055-1.853-1.523 1.671-1.875 2.943-3.944 3.814-6.211l2.616.234c-.291.782-.618 1.523-.981 2.227h8.065v2.109h-5.667l2.071 2.461-2.071.82-.436-.469c-.945-1.172-1.635-2.069-2.071-2.695l.218-.117h-1.308zm4.687 5.859h-7.084v2.695h7.084v-2.695zm8.808-5.977v-2.578h24.195v2.578h-13.297l-1.09 7.031h11.335v12.891h4.25v2.344h-26.374v-2.344h5.885l1.635-10.195h-5.886v-2.695h6.321l1.199-7.031h-8.173zm18.418 9.727h-9.046l-1.635 10.195h10.681v-10.195zm11.642-9.609v-2.578h22.777v2.578h-10.026c0 1.641-.073 3.867-.218 6.68h11.77v2.695h-11.225c1.234 5.625 5.049 9.298 11.443 11.016-.073.155-.218.39-.436.703l-1.09 2.109c-6.468-2.267-10.354-6.015-11.662-11.25-1.09 4.845-4.833 8.71-11.225 11.602-.146-.234-.436-.665-.872-1.289-.364-.548-.654-.978-.872-1.289 6.757-2.655 10.462-6.522 11.116-11.602h-11.006v-2.695h11.334c.071-.703.109-1.835.109-3.398.071-1.406.109-2.5.109-3.281h-10.026zM136.801 31.642c.145-2.031 1.114-3.385 2.906-4.063-1.453-.729-2.229-1.901-2.325-3.516.193-2.656 1.646-4.063 4.359-4.219 2.616.208 4.044 1.615 4.287 4.219-.098 1.667-.824 2.839-2.18 3.516 1.792.73 2.736 2.136 2.834 4.219-.146 2.656-1.793 4.036-4.941 4.141-3.196-.106-4.844-1.536-4.94-4.297zm8.21.156c-.145-2.292-1.26-3.489-3.342-3.594-1.938.105-3.004 1.25-3.197 3.438.193 1.875 1.283 2.891 3.27 3.047 1.986-.157 3.075-1.12 3.269-2.891zm-.726-7.735c-.145-1.719-.993-2.656-2.543-2.813-1.598.105-2.47.99-2.616 2.656.048 1.927.92 2.943 2.616 3.047 1.598-.05 2.445-1.015 2.543-2.89zm8.064 7.11c-.243 2.136-1.09 4.192-2.543 6.172-.339-.365-.848-.859-1.525-1.484 1.064-1.145 1.768-2.37 2.107-3.672.338-1.301.508-3.307.508-6.016v-6.719h12.279v14.453c.047 1.979-.872 2.969-2.761 2.969-.63.051-1.575.078-2.833.078-.146-.574-.291-1.225-.436-1.953.678.051 1.599.078 2.761.078 1.064.051 1.573-.442 1.525-1.484v-2.422h-9.082zm.291-4.844c0 1.199-.049 2.266-.146 3.203h8.937v-3.359h-8.791v.156zm0-5.156v3.281h8.791v-3.281h-8.791zm19.475 14.531h1.526v-15.859h-1.09c-.63 1.667-2.06 3.047-4.287 4.141v1.641c1.5-.625 2.785-1.458 3.851-2.5v12.577zm11.328 0h1.526v-15.859h-1.09c-.63 1.667-2.06 3.047-4.287 4.141v1.641c1.5-.625 2.785-1.458 3.851-2.5v12.577zm7.923 1.406v-17.343h13.15v17.343h-1.744v-1.328h-9.59v1.328h-1.816zm1.817-15.625v5.391h9.59v-5.391h-9.59zm0 7.11v5.547h9.59v-5.547h-9.59z"/></svg>