<?xml version="1.0" encoding="utf-8"?>
<!-- Generator: Adobe Illustrator 16.0.0, SVG Export Plug-In . SVG Version: 6.00 Build 0)  -->
<!DOCTYPE svg PUBLIC "-//W3C//DTD SVG 1.1//EN" "http://www.w3.org/Graphics/SVG/1.1/DTD/svg11.dtd">
<svg version="1.1" id="图层_1" xmlns="http://www.w3.org/2000/svg" xmlns:xlink="http://www.w3.org/1999/xlink" x="0px" y="0px"
	 width="640px" height="350px" viewBox="0 0 640 350" enable-background="new 0 0 640 350" xml:space="preserve">
<path fill="#FFFFFF" d="M255.364,116.999v-1.641h1.94v-3.516h1.582v3.516h1.653v1.641h-1.653v3.594l1.725-0.703
	c0,0.521,0.024,1.068,0.072,1.641l-1.797,0.781v5.938c0.047,1.354-0.528,2.057-1.725,2.109c-0.192,0-0.479,0.026-0.863,0.078
	c-0.287,0-0.503,0-0.646,0c-0.097-0.677-0.216-1.302-0.359-1.875c0.287,0,0.694,0,1.222,0c0.575,0,0.838-0.234,0.791-0.703v-4.922
	l-2.012,0.859l-0.216-1.875c0.288-0.104,0.719-0.26,1.294-0.469c0.431-0.156,0.742-0.26,0.934-0.313v-4.141H255.364z M255.522,77.5
	v-3.125h11.845L266.677,72l4.485-0.25l0.575,2.625h11.5V77.5H255.522z M262.997,98.625v-6.75h12.88v6.375h0.46
	c1.533,0.082,2.223-0.5,2.07-1.75v-6.125h-17.94v11.25h-3.68V87.25h25.3v10.5c0,2.416-1.189,3.666-3.565,3.75
	c-1.15,0.082-2.685,0.125-4.6,0.125c-0.155-1-0.345-2-0.575-3H262.997z M259.547,85.75V79h19.78v6.75H259.547z M262.839,128.952
	c-0.336,0.26-0.695,0.547-1.078,0.859l-1.006-1.484c0.431-0.416,0.647-1.041,0.647-1.875v-13.047
	c3.689-0.156,7.115-0.442,10.278-0.859l0.431,1.641c-0.192,0-0.456,0.027-0.791,0.078c-0.959,0.105-2.084,0.209-3.378,0.313
	c0,1.459,0.047,3.021,0.144,4.688h4.384v1.641h-4.313c0.144,2.761,0.647,4.949,1.51,6.563c0.334,0.521,0.646,0.781,0.934,0.781
	c0.239,0,0.407-0.208,0.503-0.625c0-0.156,0.023-0.442,0.072-0.859c0.095-0.729,0.167-1.301,0.215-1.719
	c0.144,0.053,0.383,0.131,0.719,0.234c0.288,0.156,0.503,0.261,0.647,0.313c0,0.209-0.024,0.521-0.072,0.938
	c-0.048,0.678-0.144,1.328-0.288,1.953c-0.288,1.094-0.862,1.641-1.725,1.641c-0.959,0-1.773-0.625-2.443-1.875
	c-0.959-1.666-1.51-4.114-1.653-7.344h-3.522v6.172l2.947-1.719c0,0.053,0,0.105,0,0.156c0.047,0.469,0.144,0.99,0.288,1.563
	c-0.192,0.105-0.479,0.261-0.862,0.469C264.228,128.119,263.365,128.587,262.839,128.952L262.839,128.952z M266.433,119.264
	c-0.048-1.406-0.072-2.916-0.072-4.531c-1.15,0.053-2.252,0.131-3.306,0.234v4.297H266.433z M263.227,81.625v1.625h12.42v-1.625
	H263.227z M265.929,130.514c-0.479-0.781-1.006-1.537-1.581-2.266l1.222-0.703c0.575,0.469,1.174,1.198,1.797,2.188L265.929,130.514
	z M266.562,94.375v1.875h5.75v-1.875H266.562z M276.637,127.702c-0.959,0.938-1.725,1.77-2.3,2.5l-0.791-1.797
	c0.239-0.208,0.67-0.598,1.294-1.172c0.479-0.469,0.814-0.807,1.006-1.016v-5.938h-2.156v-1.797h3.809v7.656
	c0.91,1.459,2.228,2.161,3.953,2.109c3.066,0.104,6.229,0.104,9.488,0c-0.048,0.208-0.12,0.52-0.216,0.938
	c-0.144,0.364-0.24,0.651-0.288,0.859c-1.054,0-2.659-0.027-4.815-0.078c-2.3,0-3.858-0.027-4.672-0.078
	C279.176,129.837,277.739,129.108,276.637,127.702L276.637,127.702z M276.997,116.53c-0.431-0.781-1.198-2.004-2.3-3.672
	l1.366-0.781c0.239,0.313,0.67,0.886,1.294,1.719c0.575,0.781,0.981,1.355,1.222,1.719L276.997,116.53z M278.937,117.936v-1.719
	h4.457c0.047-0.989,0.072-2.422,0.072-4.297h1.725c0,1.563-0.025,2.996-0.072,4.297h5.175v1.719h-5.247
	c-0.097,1.146-0.288,2.188-0.575,3.125l0.791-0.703c0.479,0.469,1.341,1.355,2.587,2.656c1.197,1.25,2.036,2.136,2.516,2.656
	L289,126.92c-0.862-1.041-2.444-2.786-4.744-5.234c-0.719,1.928-2.253,3.725-4.6,5.391c-0.335-0.52-0.719-1.041-1.15-1.563
	c3.114-2.031,4.719-4.557,4.815-7.578H278.937z M285.31,80.125V76.5h3.335c0.153-1.082,0.306-2.582,0.46-4.5l3.45,0.5
	c-0.155,1.418-0.345,2.75-0.575,4h4.37v3.625h-4.945c-0.998,4.334-2.875,8.709-5.635,13.125c-0.154-1-0.46-2.75-0.92-5.25
	c1.456-2.5,2.491-5.125,3.105-7.875H285.31z M287.84,99.625c-0.46,0.082-0.845,0.166-1.15,0.25l-1.15-2.75
	c0.766-0.582,1.38-1.416,1.84-2.5c1.533-3.25,2.875-7,4.025-11.25l3.22,0.875c-0.23,0.668-0.575,1.668-1.035,3
	c-0.615,1.584-1.075,2.75-1.38,3.5l2.415-0.625c0.46,1.418,1.035,3.418,1.725,6c0.46,1.5,0.805,2.707,1.035,3.625l-2.645,0.875
	c-0.077-0.584-0.23-1.209-0.46-1.875c-2.147,0.082-3.91,0.25-5.29,0.5C288.76,99.333,288.375,99.458,287.84,99.625L287.84,99.625z
	 M293.475,95.875L292.095,91c-0.46,1.418-1.15,3.168-2.07,5.25L293.475,95.875z M297.385,101.875V85.25
	c-0.46,0.668-0.959,1.418-1.495,2.25c-0.384-1.416-0.805-2.875-1.265-4.375C297,79.959,298.65,76.25,299.57,72l3.68,0.625
	c-0.154,0.418-0.345,1.043-0.575,1.875c-0.46,1.25-0.805,2.168-1.035,2.75h3.68c-0.155-0.666-0.46-1.707-0.92-3.125
	c-0.155-0.5-0.27-0.875-0.345-1.125l3.335-0.5c0.306,0.75,0.65,1.875,1.035,3.375c0.153,0.584,0.268,1.043,0.345,1.375h3.68v3.25
	h-4.6v3.25h4.14V87h-4.14v3.375h4.14v3.25h-4.14v3.25h4.715V100H300.72v1.875H297.385z M297.345,122.233v2.734h-2.444v-2.734
	H297.345z M297.345,128.014v2.578h-2.444v-2.578H297.345z M300.72,80.5v3.25h3.795V80.5H300.72z M300.72,87v3.375h3.795V87H300.72z
	 M300.72,93.625v3.25h3.795v-3.25H300.72z M315.959,128.952h1.509v-15.859h-1.078c-0.623,1.667-2.037,3.047-4.241,4.141v1.641
	c1.485-0.625,2.755-1.458,3.81-2.5V128.952z M331.411,124.655c-0.097-2.031-1.103-3.359-3.019-3.984
	c1.581-0.625,2.396-1.797,2.443-3.516c-0.097-2.604-1.51-3.958-4.24-4.063c-2.396,0.053-3.882,1.355-4.457,3.906l1.582,0.547
	c0.334-1.926,1.317-2.916,2.946-2.969c1.533,0.053,2.348,0.912,2.444,2.578c-0.097,1.928-1.175,2.917-3.234,2.969
	c-0.288,0-0.528,0-0.719,0v1.406c0.19,0,0.622,0,1.293,0c2.061,0.105,3.163,1.094,3.307,2.969c0,2.188-1.078,3.281-3.234,3.281
	c-1.773,0-2.803-1.067-3.091-3.203l-1.653,0.469c0.575,2.761,2.204,4.141,4.888,4.141
	C329.686,129.03,331.268,127.52,331.411,124.655L331.411,124.655z M336.223,120.045v-2.422h-2.229v2.422H336.223z M336.223,128.717
	v-2.266h-2.229v2.266H336.223z M348.152,121.217c-0.048,5.209-1.605,7.864-4.672,7.969c-3.21-0.052-4.815-2.708-4.815-7.969
	c0.048-5.26,1.629-7.969,4.744-8.125C346.523,113.197,348.104,115.905,348.152,121.217L348.152,121.217z M346.5,121.217
	c0-4.531-1.055-6.77-3.163-6.719c-1.965,0.156-2.972,2.396-3.019,6.719c0,4.48,1.03,6.693,3.091,6.641
	C345.469,127.911,346.5,125.697,346.5,121.217L346.5,121.217z M359.373,121.217c-0.048,5.209-1.605,7.864-4.672,7.969
	c-3.21-0.052-4.815-2.708-4.815-7.969c0.048-5.26,1.629-7.969,4.744-8.125C357.744,113.197,359.325,115.905,359.373,121.217
	L359.373,121.217z M357.721,121.217c0-4.531-1.055-6.77-3.163-6.719c-1.965,0.156-2.972,2.396-3.019,6.719
	c0,4.48,1.03,6.693,3.091,6.641C356.689,127.911,357.721,125.697,357.721,121.217L357.721,121.217z M379.49,119.967
	c0.096,4.531-0.672,8.047-2.3,10.547c-0.24-0.313-0.672-0.808-1.294-1.484c0.766-1.197,1.27-2.447,1.51-3.75
	c0.239-1.197,0.359-3.047,0.359-5.547v-5.859h6.684l-0.574-1.875l1.94-0.234c0,0.053,0.023,0.156,0.071,0.313
	c0.191,0.781,0.359,1.381,0.504,1.797h6.037v6.094H379.49L379.49,119.967z M379.49,115.514v2.813h11.213v-2.813H379.49z
	 M380.641,130.514v-7.969h11.571v7.969h-1.653v-1.25h-8.266v1.25H380.641z M382.293,124.108v3.75h8.266v-3.75H382.293z
	 M394.438,121.92v-1.484h1.078v-6.641h1.797c0.048-0.26,0.119-0.598,0.216-1.016c0.047-0.469,0.096-0.807,0.144-1.016l1.581,0.078
	l-0.503,1.953h2.516v14.453c0.048,1.301-0.527,1.953-1.725,1.953c-0.288,0.051-0.839,0.078-1.653,0.078
	c0-0.105-0.048-0.287-0.144-0.547c-0.049-0.469-0.097-0.833-0.144-1.094c0.095,0,0.215,0,0.359,0c0.431,0.051,0.766,0.051,1.006,0
	c0.671,0.051,0.981-0.208,0.935-0.781v-5.938h-3.019c0.095,3.75-0.336,6.614-1.294,8.594c-0.097-0.105-0.264-0.234-0.503-0.391
	c-0.336-0.313-0.575-0.547-0.719-0.703c0.813-1.666,1.197-4.166,1.149-7.5H394.438z M396.883,115.28v5.156h3.019v-5.156H396.883z
	 M398.248,119.42c-0.24-0.729-0.552-1.614-0.935-2.656l1.078-0.547c0.096,0.261,0.216,0.6,0.359,1.016
	c0.288,0.73,0.503,1.277,0.647,1.641L398.248,119.42z M398.392,126.452c-0.336-0.989-0.695-1.953-1.078-2.891l1.078-0.547
	c0.096,0.261,0.239,0.652,0.432,1.172c0.335,0.678,0.575,1.25,0.719,1.719L398.392,126.452z M404.933,121.92
	c0.144,3.906-0.647,6.77-2.372,8.594c-0.144-0.156-0.359-0.365-0.646-0.625c-0.288-0.261-0.504-0.469-0.647-0.625
	c0.862-0.938,1.438-1.875,1.726-2.813c0.239-0.938,0.359-2.447,0.359-4.531v-2.969h5.605v8.75c0,0.417,0.216,0.625,0.647,0.625
	h0.216c0.383,0.051,0.599-0.208,0.646-0.781c0.144-0.885,0.216-1.979,0.216-3.281c0.19,0.105,0.455,0.209,0.79,0.313
	c0.191,0.053,0.335,0.105,0.432,0.156c-0.048,1.459-0.144,2.605-0.287,3.438c-0.145,1.198-0.744,1.797-1.797,1.797h-0.719
	c-1.15,0.051-1.702-0.574-1.653-1.875v-7.5h-2.516V121.92L404.933,121.92z M402.129,116.452v-1.641h3.738
	c-0.145-0.416-0.385-1.067-0.719-1.953c-0.097-0.313-0.169-0.52-0.216-0.625l1.725-0.391l1.007,2.969h3.521v1.641H402.129z
	 M418.166,122.233v2.734h-2.444v-2.734H418.166z M418.166,128.014v2.578h-2.444v-2.578H418.166z M440.805,128.795v-1.328h-7.547
	c0.622-1.354,1.916-2.813,3.881-4.375c2.54-1.875,3.738-3.828,3.594-5.859c-0.191-2.656-1.629-4.036-4.313-4.141
	c-2.348-0.051-3.929,1.199-4.743,3.75l1.438,0.781c0.526-1.926,1.533-2.942,3.019-3.047c1.916,0.053,2.898,1.016,2.947,2.891
	c0.047,1.406-1.007,2.969-3.163,4.688c-2.108,1.667-3.618,3.542-4.528,5.625v1.016H440.805z M447.707,128.952h1.51v-15.859h-1.078
	c-0.623,1.667-2.037,3.047-4.24,4.141v1.641c1.484-0.625,2.755-1.458,3.809-2.5V128.952z M456.906,120.045v-2.422h-2.229v2.422
	H456.906z M456.906,128.717v-2.266h-2.229v2.266H456.906z M468.836,121.217c-0.048,5.209-1.605,7.864-4.672,7.969
	c-3.21-0.052-4.815-2.708-4.815-7.969c0.048-5.26,1.629-7.969,4.744-8.125C467.207,113.197,468.788,115.905,468.836,121.217
	L468.836,121.217z M467.184,121.217c0-4.531-1.055-6.77-3.163-6.719c-1.965,0.156-2.972,2.396-3.019,6.719
	c0,4.48,1.03,6.693,3.091,6.641C466.152,127.911,467.184,125.697,467.184,121.217L467.184,121.217z M480.047,121.217
	c-0.048,5.209-1.605,7.864-4.672,7.969c-3.21-0.052-4.815-2.708-4.815-7.969c0.048-5.26,1.629-7.969,4.744-8.125
	C478.418,113.197,479.999,115.905,480.047,121.217L480.047,121.217z M478.395,121.217c0-4.531-1.055-6.77-3.163-6.719
	c-1.965,0.156-2.972,2.396-3.019,6.719c0,4.48,1.03,6.693,3.091,6.641C477.363,127.911,478.395,125.697,478.395,121.217
	L478.395,121.217z"/>
<path fill="#FFFFFF" d="M257.866,163.001c-0.116-0.062-0.259-0.218-0.431-0.469c-1.093-0.999-1.927-1.781-2.501-2.344l1.208-1.5
	c1.149,0.938,2.156,1.875,3.019,2.813L257.866,163.001z M255.02,232.217v-2.438h20.958v2.438H255.02z M255.278,261.72v-1.969h2.07
	v-5.531h1.725v5.531h1.984v1.969h-1.984v8.156c0.69-0.249,1.35-0.469,1.984-0.656c0,0.938,0.028,1.594,0.086,1.969
	c-2.128,0.688-4.054,1.376-5.779,2.063l-0.345-2.156c0.172-0.062,0.431-0.124,0.776-0.188c0.69-0.249,1.208-0.405,1.552-0.469
	v-8.719H255.278z M255.106,306.218v-1.781h9.746v-0.75l4.657-1.594h-12.592v-1.688h16.301v1.781l-6.21,2.25h8.884v1.781h-8.97v1.5
	c0.057,1.749-0.834,2.656-2.674,2.719c-0.978,0-2.128,0-3.45,0c0-0.063,0-0.156,0-0.281c-0.058-0.375-0.173-0.906-0.345-1.594
	c0.345,0,0.833,0.031,1.466,0.094c0.69,0,1.178,0,1.466,0c1.035,0.062,1.523-0.344,1.466-1.219v-1.219H255.106z M255.106,325.872
	v-2.063h20.872v2.063h-3.105v15c0.057,2.188-0.978,3.281-3.105,3.281c-1.208,0.062-2.444,0.094-3.708,0.094
	c-0.058-0.563-0.202-1.313-0.431-2.25c1.208,0.062,2.299,0.094,3.277,0.094c1.38,0.125,2.012-0.499,1.897-1.875v-14.344H255.106z
	 M255.278,292.343v-1.781h9.401c-0.058-0.188-0.145-0.499-0.259-0.938c-0.173-0.563-0.317-0.968-0.432-1.219l2.243-0.281l0.69,2.438
	h8.884v1.781H255.278z M259.16,166.095c-0.748,3.126-1.38,5.906-1.898,8.344l-1.811-0.656c0.805-3.188,1.408-5.968,1.811-8.344
	c0.229,0.126,0.747,0.313,1.553,0.563C258.181,165.814,258.297,165.846,259.16,166.095L259.16,166.095z M258.297,156.814
	c-0.92-1.062-1.811-2-2.674-2.813l1.294-1.406c0.919,0.813,1.839,1.72,2.76,2.719L258.297,156.814z M256.055,206.469v-17.906h1.639
	v17.906H256.055z M257.435,340.403v-11.25h9.487v9.563h-7.504v1.688H257.435z M257.952,298.812v-4.969h14.921v4.969H257.952z
	 M259.591,158.126v-1.969h3.364c-0.289-0.812-0.604-2-0.949-3.563l1.897-0.281c0.057,0.375,0.201,0.938,0.431,1.688
	c0.229,0.876,0.401,1.594,0.518,2.156h-0.086h2.156v1.969h-4.054l-0.086,3.375h3.881c0,0.876-0.029,2.188-0.086,3.938
	c-0.058,2.688-0.116,4.626-0.173,5.813c0,1.812-0.806,2.719-2.415,2.719c-0.517,0.062-1.064,0.094-1.639,0.094l-0.345-1.969
	c0.574,0,1.005,0,1.293,0c0.977,0.062,1.437-0.375,1.38-1.313c0-0.375,0.028-0.968,0.086-1.781c0.115-2.625,0.172-4.5,0.172-5.625
	h-2.242c0,0.188,0,0.344,0,0.469c-0.116,4.563-0.979,8.156-2.587,10.781l-1.466-1.406c1.437-2,2.213-5.156,2.329-9.469
	c0.115-1.625,0.172-3.5,0.172-5.625H259.591z M259.418,331.122v5.719h5.52v-5.719H259.418z M275.633,274.282
	c-0.289,1.374-0.92,2.063-1.897,2.063c-1.38,0.062-2.445-1.094-3.191-3.469c-0.92,1.187-2.042,2.375-3.364,3.563
	c-0.403-0.438-0.862-0.938-1.38-1.5c1.725-1.249,3.133-2.687,4.226-4.313c-0.518-2.562-0.892-5.968-1.121-10.219h-5.175v3.094h4.054
	c0,0.876-0.03,2.001-0.086,3.375c0,1.626-0.03,2.782-0.086,3.469c0,1.813-0.806,2.751-2.415,2.813c-0.116,0-0.316,0-0.604,0
	c-0.289,0.063-0.518,0.094-0.69,0.094c-0.058-0.249-0.116-0.687-0.173-1.313c-0.116-0.375-0.172-0.624-0.172-0.75
	c0.229,0,0.632,0,1.208,0c0.863,0,1.264-0.437,1.208-1.313c0.057-0.812,0.086-2.344,0.086-4.594h-2.329
	c0.173,4.938-0.69,8.719-2.587,11.344c-0.058-0.063-0.172-0.156-0.345-0.281c-0.576-0.375-1.007-0.625-1.294-0.75
	c1.035-1.5,1.695-2.937,1.984-4.313c0.287-1.313,0.431-3.469,0.431-6.469v-6.281h6.986c-0.058-1.313-0.086-2.749-0.086-4.313h1.812
	c0,0.501,0.028,1.251,0.086,2.25c0,0.938,0,1.626,0,2.063h5.175v1.875h-5.089c0.057,3,0.287,5.625,0.69,7.875
	c0.862-1.688,1.609-3.563,2.243-5.625l1.639,0.75c-1.035,3.063-2.156,5.531-3.364,7.406l0.086,0.281
	c0.345,1.938,0.862,2.906,1.552,2.906c0.287,0,0.459-0.188,0.518-0.563c0.057-0.375,0.143-1.093,0.259-2.156
	c0.057-0.499,0.114-0.874,0.172-1.125c0.518,0.251,1.035,0.469,1.553,0.656C275.978,272.313,275.806,273.471,275.633,274.282
	L275.633,274.282z M259.763,208.625v-22.313h1.897v22.313H259.763z M259.936,295.437v1.875h11.04v-1.875H259.936z M266.491,191.469
	c-0.748,1.313-1.639,2.625-2.674,3.938c-0.23-0.249-0.662-0.624-1.293-1.125c-0.116-0.125-0.202-0.219-0.259-0.281
	c2.012-2.188,3.45-4.813,4.313-7.875l2.07,0.469c-0.116,0.25-0.259,0.625-0.431,1.125c-0.116,0.25-0.375,0.844-0.776,1.781h8.453
	v1.969H266.491L266.491,191.469z M263.817,208.531v-11.906h11.212v11.906h-1.725v-1.594h-7.676v1.594H263.817z M265.628,198.5v6.75
	h2.932v-6.75H265.628z M267.353,167.033v-1.875h3.537v-1.313l2.329-2.625h-4.83v-1.406l-0.604,0.938
	c-0.403-0.437-0.893-0.905-1.466-1.406c1.38-2.063,2.472-4.468,3.277-7.219l1.984,0.281c-0.345,1-0.69,1.969-1.035,2.906h5.434
	v1.875h-6.21c-0.345,0.75-0.748,1.5-1.208,2.25h6.728v1.969l-2.587,3v0.75h3.277v1.875h-3.277v4.594
	c0.057,1.688-0.748,2.531-2.415,2.531c-0.806,0.062-1.552,0.094-2.243,0.094c0-0.188-0.058-0.438-0.172-0.75
	c-0.058-0.563-0.116-0.97-0.172-1.219c0.69,0,1.35,0,1.984,0c0.862,0.062,1.264-0.313,1.208-1.125v-4.125H267.353z M270.631,196.156
	c-0.23-0.249-0.576-0.594-1.035-1.031c-0.862-0.875-1.553-1.562-2.07-2.063l1.293-1.313c0.345,0.313,0.891,0.813,1.639,1.5
	c0.69,0.688,1.208,1.188,1.553,1.5L270.631,196.156z M273.305,198.5h-3.019v6.75h3.019V198.5z M273.908,258.251
	c-0.633-0.75-1.438-1.562-2.415-2.438l1.208-1.031c0.518,0.438,1.264,1.157,2.243,2.156c0.114,0.063,0.201,0.126,0.259,0.188
	L273.908,258.251z M277.358,343.31v-2.063h8.107v-18.75h2.243v6.75h8.539v2.25h-8.539v9.75h10.177v2.063H277.358z M278.073,157.283
	v-1.875h2.501c0.287-1.125,0.546-2.187,0.776-3.188l1.898,0.188c-0.058,0.375-0.202,1-0.432,1.875
	c-0.172,0.501-0.288,0.876-0.345,1.125h4.398v1.875h-4.916c-0.806,2.875-1.41,4.875-1.812,6h2.501v-4.594h1.639v4.594h2.329v1.875
	h-2.329v3l2.587-0.375c-0.058,0.75-0.086,1.406-0.086,1.969l-2.501,0.281v4.594h-1.897v-4.406c-1.552,0.188-2.99,0.375-4.313,0.563
	l-0.172-2.063c0.401,0,1.063-0.062,1.984-0.188c1.091-0.062,1.926-0.125,2.501-0.188v-3.188h-3.967v-1.875
	c0.057-0.188,0.143-0.469,0.259-0.844c0.459-1.5,0.919-3.218,1.38-5.156H278.073z M281.264,231.279
	c-0.748-0.75-1.841-1.781-3.278-3.094l1.294-1.5c1.149,0.938,2.271,1.938,3.364,3L281.264,231.279z M297.91,310.155
	c-0.058,0.125-0.086,0.219-0.086,0.281c-4.256-0.625-7.389-1.469-9.401-2.531c-2.358,1.125-5.492,2.063-9.401,2.813
	c-0.116-0.313-0.316-0.75-0.604-1.313c-0.173-0.313-0.289-0.563-0.345-0.75c3.795-0.563,6.583-1.219,8.366-1.969
	c-1.61-1.187-3.019-2.843-4.226-4.969h-1.294v-1.781h14.231v1.875c-1.266,2.001-2.79,3.656-4.571,4.969
	c1.552,0.688,4.283,1.187,8.194,1.5C298.6,308.593,298.312,309.218,297.91,310.155L297.91,310.155z M281.954,235.779
	c-0.748,2.751-1.323,4.937-1.725,6.563l-1.984-0.563c0.919-2.813,1.667-5.625,2.243-8.438c0.69,0.25,1.322,0.469,1.897,0.656
	C282.327,234.312,282.183,234.904,281.954,235.779L281.954,235.779z M278.245,259.47v-2.063h9.488
	c-0.116-0.249-0.289-0.656-0.518-1.219c-0.289-0.75-0.518-1.28-0.69-1.594l2.242-0.469c0.46,1.001,0.891,2.063,1.294,3.188
	l-0.259,0.094h8.797v2.063h-9.142v3.281h7.676v8.156c0.056,2.063-0.893,3.062-2.847,3c-0.23,0-0.633,0-1.208,0
	c-0.69,0.062-1.207,0.094-1.552,0.094c-0.116-0.624-0.259-1.313-0.431-2.063c0.862,0.063,1.695,0.094,2.501,0.094
	c1.035,0.063,1.523-0.499,1.466-1.688v-5.531h-5.606v11.813h-2.07v-11.813h-5.52v9.469h-2.07v-11.531h7.59v-3.281H278.245z
	 M297.134,197.094l-1.553-1.781c-3.911,0.063-8.396,0.22-13.455,0.469c-1.151,0.063-2.042,0.188-2.674,0.375L278.418,194
	c0.919-0.437,1.639-0.938,2.156-1.5c2.529-2.25,4.542-4.406,6.037-6.469l2.243,1.125c-2.415,2.5-4.629,4.688-6.641,6.563
	c0.518,0,1.322-0.031,2.415-0.094c3.967-0.062,7.043-0.155,9.229-0.281l-2.76-3.094l1.552-1.125c2.933,3.063,5.002,5.282,6.21,6.656
	L297.134,197.094z M278.59,300.124v-4.5h3.708c-0.058-0.188-0.172-0.437-0.345-0.75c-0.345-0.624-0.806-1.406-1.38-2.344
	l1.983-0.469c0.057,0.126,0.201,0.375,0.432,0.75c0.574,1.063,0.977,1.813,1.208,2.25l-1.639,0.563h9.229
	c0.862-1.374,1.609-2.719,2.243-4.031l1.983,0.656c-0.116,0.251-0.345,0.626-0.69,1.125c-0.172,0.251-0.604,1.001-1.293,2.25h4.14
	v4.5h-1.983v-2.625H280.66v2.625H278.59z M281.954,225.186c-0.116-0.125-0.317-0.313-0.604-0.563
	c-1.151-1.187-2.042-2.063-2.673-2.625l1.293-1.406c1.322,1.125,2.472,2.156,3.45,3.094L281.954,225.186z M297.307,290.749
	c-5.061,0.313-10.983,0.532-17.768,0.656c0-0.062-0.03-0.188-0.086-0.375c-0.058-0.687-0.144-1.187-0.259-1.5
	c6.094,0,11.989-0.218,17.682-0.656L297.307,290.749L297.307,290.749z M280.574,208.625v-10.313h15.611v10.313h-2.07v-1.5h-11.558
	v1.5H280.574z M285.749,237.842c-0.345,1.5-1.064,3.124-2.156,4.875l-1.639-1.313c1.035-1.5,1.695-2.938,1.984-4.313
	c0.287-1.313,0.431-3.406,0.431-6.281v-8.531c4.369-0.188,8.768-0.624,13.196-1.313l0.604,1.969
	c-3.566,0.501-7.533,0.906-11.902,1.219v6.469C286.267,233.873,286.094,236.28,285.749,237.842L285.749,237.842z M282.558,200.281
	v5.063h11.558v-5.063H282.558z M288.423,305.655c1.725-1.062,3.162-2.374,4.313-3.938h-8.194
	C285.691,303.531,286.985,304.844,288.423,305.655L288.423,305.655z M299.032,159.626c-0.23,0.375-0.576,1.063-1.035,2.063
	c-2.358-1.812-4.169-3.968-5.434-6.469c-1.38,2.376-3.278,4.563-5.693,6.563c-0.116-0.249-0.375-0.718-0.776-1.406
	c-0.173-0.188-0.289-0.343-0.345-0.469c2.875-2.124,4.917-4.718,6.124-7.781l2.07,0.281l-0.431,0.938
	C294.892,156.096,296.731,158.189,299.032,159.626L299.032,159.626z M287.992,295.437c-0.403-1.125-0.834-2.187-1.294-3.188
	l1.984-0.469c0.459,0.938,0.862,2.001,1.208,3.188L287.992,295.437z M298.169,240.842c-0.345,0.437-0.575,0.718-0.69,0.844
	c-3.394-3.062-5.205-7.5-5.434-13.313c-0.633,0-1.266,0.063-1.897,0.188v11.063l3.019-1.594c0,0.188,0,0.501,0,0.938
	c0.057,0.438,0.086,0.75,0.086,0.938c-1.266,0.624-2.501,1.313-3.709,2.063c-0.058,0.062-0.172,0.124-0.345,0.188
	c-0.289,0.188-0.461,0.312-0.518,0.375l-1.035-1.688c0.459-0.563,0.69-1.25,0.69-2.063v-12c2.415-0.125,5.404-0.53,8.97-1.219
	l0.69,1.875c-0.403,0.063-1.035,0.156-1.897,0.281c-1.035,0.188-1.812,0.313-2.329,0.375c0.114,1.626,0.287,3,0.517,4.125
	c1.15-0.688,2.271-1.406,3.364-2.156l1.035,1.781c-0.403,0.188-0.979,0.501-1.725,0.938c-0.978,0.563-1.697,0.97-2.156,1.219
	c0.69,2.188,2.07,4.188,4.14,6C298.83,240.186,298.571,240.467,298.169,240.842L298.169,240.842z M291.355,173.97
	c-2.014,0-3.019-1.063-3.019-3.188v-9.563h1.897v4.125c1.84-1.062,3.593-2.344,5.261-3.844l1.208,1.688
	c-2.128,1.688-4.284,3.157-6.469,4.406v2.719c-0.058,1.125,0.518,1.655,1.725,1.594h1.984c1.149,0,1.782-0.53,1.897-1.594
	c0.172-0.999,0.287-2.063,0.345-3.188c0.69,0.25,1.322,0.469,1.897,0.656c-0.173,1.563-0.375,2.782-0.604,3.656
	c-0.23,1.688-1.323,2.531-3.277,2.531H291.355z M303.32,334.778c0.172,4.376-0.69,7.655-2.588,9.844
	c-0.403-0.438-0.949-0.906-1.639-1.406c1.667-1.749,2.415-4.562,2.243-8.438v-5.156h18.458v1.781H303.32V334.778L303.32,334.778z
	 M303.551,197.375c-0.862-1.125-1.783-2.25-2.76-3.375l1.552-1.125c0.747,0.75,1.725,1.844,2.933,3.281L303.551,197.375z
	 M305.017,305.374c-0.403,1.688-1.179,3.406-2.329,5.156c-0.633-0.563-1.266-1.094-1.897-1.594c2.012-2.374,2.933-6,2.76-10.875
	v-6.469h8.194c-0.172-0.499-0.461-1.249-0.862-2.25c-0.173-0.312-0.289-0.563-0.345-0.75l2.415-0.469
	c0.574,1.188,1.005,2.25,1.294,3.188l-1.035,0.281h8.28v2.156h-15.87v4.406C305.621,301.343,305.419,303.75,305.017,305.374
	L305.017,305.374z M301.395,225.279v-1.875h2.846v-3.188h1.898v3.188h2.242v1.875h-2.242v2.906c0.804-0.188,1.552-0.375,2.242-0.563
	c0,0.688,0,1.345,0,1.969l-2.242,0.563v3.188c0.056,1.813-0.69,2.751-2.243,2.813c-0.69,0-1.41,0-2.156,0c0-0.062,0-0.155,0-0.281
	c-0.058-0.375-0.172-0.938-0.345-1.688c0.402,0.063,0.977,0.094,1.725,0.094c0.747,0,1.121-0.406,1.121-1.219v-2.438
	c-0.978,0.188-1.983,0.438-3.019,0.75l-0.345-2.063c0.402-0.062,0.977-0.188,1.725-0.375c0.747-0.125,1.294-0.219,1.639-0.281
	v-3.375H301.395z M301.05,156.064v-2.25h20.527v2.25h-10.091v5.906l1.294-1.781c2.644,1.626,5.203,3.281,7.676,4.969l-1.38,2.063
	c-2.243-1.625-4.773-3.375-7.59-5.25v12.469h-2.242v-18.375H301.05z M304.672,203.281c-0.69,2.376-1.179,4.093-1.466,5.156
	l-1.984-0.75c0.977-2.75,1.811-5.531,2.501-8.344c0.574,0.25,1.208,0.531,1.897,0.844
	C305.448,200.813,305.132,201.844,304.672,203.281L304.672,203.281z M305.104,237.842c-0.461,1.375-1.093,2.968-1.897,4.781
	l-1.984-0.656c0.69-1.376,1.351-2.906,1.984-4.594L305.104,237.842L305.104,237.842z M304.241,191.094
	c-0.862-1.125-1.783-2.25-2.76-3.375l1.639-1.125c0.345,0.375,0.805,0.906,1.38,1.594c0.632,0.688,1.092,1.219,1.38,1.594
	L304.241,191.094z M301.595,327.56v-4.594h1.983v2.813h5.52v-3.656h1.984v3.656h5.434v-2.813h1.984v4.594H301.595z M306.483,275.876
	c-1.841-0.188-2.876-1.281-3.105-3.281c0.172-2.124,1.208-3.281,3.105-3.469c1.954,0.188,3.019,1.345,3.191,3.469
	C309.502,274.595,308.438,275.688,306.483,275.876L306.483,275.876z M304.958,335.435v-1.781h13.369v1.781h-5.692v2.906h7.245v1.781
	h-7.245v4.5h-2.07v-4.5h-7.159v-1.781h7.159v-2.906H304.958z M306.483,270.532c-1.093,0.126-1.697,0.813-1.811,2.063
	c0.114,1.063,0.718,1.655,1.811,1.781c1.149-0.126,1.782-0.718,1.897-1.781C308.265,271.346,307.633,270.658,306.483,270.532
	L306.483,270.532z M310.02,192.125c-1.323,1.251-2.531,2.313-3.623,3.188c-0.172-0.249-0.431-0.594-0.776-1.031
	c-0.173-0.188-0.289-0.343-0.345-0.469c1.322-0.938,2.501-1.937,3.536-3L310.02,192.125L310.02,192.125z M306.57,190.063v-1.781
	h6.296c-0.172-0.688-0.345-1.344-0.517-1.969l2.156-0.281c0.172,0.75,0.345,1.5,0.517,2.25h6.296v1.781h-4.83v4.5h-1.811v-4.5
	h-2.156v4.5h-1.725v-4.5H306.57z M316.747,208.25c-1.035,0.062-2.501,0.094-4.398,0.094c-0.116-0.563-0.259-1.188-0.432-1.875
	c0.287,0,0.776,0,1.466,0c1.322,0.062,2.271,0.062,2.846,0c1.15,0.062,1.782-0.313,1.897-1.125c0.057-0.188,0.086-0.469,0.086-0.844
	c0.057-0.375,0.086-0.656,0.086-0.844h-11.385l0.949-4.875h9.747v-1.688h-10.35v-1.688h12.248v4.969h-10.091l-0.345,1.688h11.212
	c-0.058,1.626-0.144,2.813-0.259,3.563C319.909,207.437,318.817,208.312,316.747,208.25L316.747,208.25z M308.295,242.154
	c-0.403-1.251-0.834-2.625-1.294-4.125l1.811-0.469c0.173,0.438,0.374,1.063,0.604,1.875c0.401,0.938,0.69,1.718,0.862,2.344
	L308.295,242.154z M315.022,233.529l-2.329-1.781c-0.862,1.813-2.156,3.469-3.881,4.969c-0.461-0.5-0.949-1.031-1.466-1.594
	c1.782-1.374,3.047-2.874,3.795-4.5c-0.289-0.249-0.748-0.563-1.38-0.938c-0.403-0.313-0.69-0.53-0.862-0.656l0.949-1.594
	l1.897,1.219c0.229-0.75,0.374-1.875,0.431-3.375h-2.587v-1.969h2.587c0.057-0.688,0.086-1.719,0.086-3.094h1.897
	c0,1.125-0.03,2.156-0.086,3.094h4.658c-0.058,4.251,0,7.375,0.172,9.375c0.173,0.876,0.431,1.345,0.776,1.406
	c0.287,0,0.488-0.343,0.604-1.031c0-0.062,0-0.188,0-0.375c0.057-0.563,0.173-1.438,0.346-2.625
	c0.172,0.063,0.401,0.156,0.689,0.281c0.345,0.126,0.574,0.22,0.69,0.281c-0.059,0.313-0.116,0.782-0.173,1.406
	c0,0.375-0.086,1.031-0.259,1.969c-0.288,1.438-0.979,2.188-2.07,2.25c-1.38-0.125-2.186-1.219-2.415-3.281
	c-0.172-1.688-0.259-4.25-0.259-7.688h-2.846c0,1.688-0.202,3.188-0.604,4.5l2.674,1.875L315.022,233.529z M313.729,241.967
	c-0.461-1.376-0.979-2.75-1.553-4.125l1.897-0.469c0.115,0.313,0.287,0.75,0.518,1.313c0.518,1.063,0.891,1.969,1.122,2.719
	L313.729,241.967z M320.715,195.219c-1.093-0.999-2.272-2-3.537-3l1.035-1.313c0.115,0.126,0.287,0.25,0.518,0.375
	c1.38,1,2.415,1.813,3.105,2.438L320.715,195.219z M319.593,242.061c-0.517-1.251-1.237-2.75-2.156-4.5l1.812-0.563
	c0.919,1.5,1.695,2.937,2.329,4.313L319.593,242.061z M324.105,332.997c-0.115-0.062-0.258-0.218-0.431-0.469
	c-1.093-0.999-1.927-1.781-2.501-2.344l1.207-1.5c1.149,0.938,2.156,1.875,3.019,2.813L324.105,332.997z M325.399,336.091
	c-0.748,3.126-1.38,5.906-1.897,8.344l-1.811-0.656c0.804-3.188,1.408-5.968,1.811-8.344c0.229,0.126,0.747,0.313,1.553,0.563
	C324.421,335.81,324.537,335.842,325.399,336.091L325.399,336.091z M324.537,326.81c-0.92-1.062-1.812-1.999-2.674-2.813
	l1.294-1.406c0.919,0.813,1.84,1.72,2.76,2.719L324.537,326.81z M326.355,260.876c-0.575,0.75-1.18,1.47-1.812,2.156
	c-0.116-0.312-0.316-0.75-0.604-1.313c-0.173-0.312-0.288-0.563-0.345-0.75c2.012-2.124,3.564-4.437,4.657-6.938l1.897,0.75
	c-0.575,1.188-1.208,2.313-1.897,3.375v9.75h-1.897V260.876L326.355,260.876z M327.132,306.78c-0.862,0.876-1.755,1.906-2.674,3.094
	l-0.862-2.25c0.518-0.624,1.293-1.5,2.328-2.625c0.632-0.624,1.178-0.938,1.639-0.938c0.115,0,0.229,0.032,0.346,0.094
	c0.114,0,0.2,0,0.259,0c4.369-2.813,8.279-6.03,11.729-9.656h-14.662v-2.063h8.452c-0.23-0.624-0.604-1.562-1.121-2.813
	c-0.173-0.437-0.316-0.75-0.432-0.938l2.243-0.469c0.459,1.063,1.005,2.407,1.639,4.031l-0.604,0.188h7.245v2.25
	c-3.738,4.188-8.021,7.845-12.851,10.969c1.034,1.313,2.644,2.001,4.83,2.063c2.069,0.063,5.403,0.032,10.005-0.094
	c-0.289,0.688-0.489,1.406-0.604,2.156c-2.703,0-4.657,0-5.864,0c-1.496-0.063-2.818-0.126-3.968-0.188
	c-2.703,0-4.773-0.938-6.21-2.813C327.706,306.531,327.419,306.531,327.132,306.78L327.132,306.78z M329.201,157.376
	c-0.806,1.626-1.696,3.094-2.674,4.406c-0.517-0.563-1.093-1.031-1.725-1.406c2.012-2.499,3.42-5.25,4.227-8.25l2.242,0.281
	c-0.345,1-0.689,1.938-1.035,2.813h12.766v2.156h-7.159v6.281h8.798v2.156h-8.798v8.719h-2.156v-8.719h-9.919v-2.156h9.919v-6.281
	H329.201L329.201,157.376z M326.959,197.188c-1.035-0.999-2.1-1.969-3.191-2.906l1.208-1.594c1.207,0.938,2.328,1.875,3.363,2.813
	L326.959,197.188z M323.768,224.717v-1.781h4.054v-2.625h1.897v2.625h3.536v-2.719h1.812v2.719h3.623v-2.625h1.897v2.625h3.967
	v1.781h-3.967v2.438h-1.897v-2.438h-3.623v2.438h-1.812v-2.438h-3.536v2.438h-1.897v-2.438H323.768z M327.735,269.595
	c-0.69,1.938-1.41,3.72-2.156,5.344l-1.812-0.844c0.862-1.624,1.553-3.343,2.07-5.156L327.735,269.595L327.735,269.595z
	 M328.08,200.375c-0.806,3.063-1.466,5.78-1.983,8.156l-1.983-0.656c0.632-2.312,1.321-5.063,2.069-8.25
	c0.287,0.063,0.719,0.25,1.294,0.563C327.764,200.25,327.965,200.313,328.08,200.375L328.08,200.375z M327.563,191
	c-0.288-0.249-0.72-0.656-1.293-1.219c-0.807-0.812-1.438-1.406-1.897-1.781l1.207-1.5c0.977,0.75,2.099,1.72,3.363,2.906
	L327.563,191z M324.458,232.404v-4.219h19.492v4.219h-1.983v-2.344h-15.525v2.344H324.458z M325.831,328.122v-1.969h3.363
	c-0.288-0.812-0.604-1.999-0.948-3.563l1.897-0.281c0.057,0.375,0.2,0.938,0.431,1.688c0.229,0.876,0.402,1.594,0.518,2.156h-0.086
	h2.156v1.969h-4.054l-0.086,3.375h3.881c0,0.876-0.029,2.188-0.086,3.938c-0.059,2.688-0.116,4.626-0.173,5.813
	c0,1.813-0.806,2.719-2.415,2.719c-0.518,0.062-1.064,0.094-1.639,0.094l-0.345-1.969c0.574,0,1.005,0,1.294,0
	c0.977,0.062,1.437-0.375,1.38-1.313c0-0.375,0.028-0.968,0.086-1.781c0.114-2.625,0.173-4.5,0.173-5.625h-2.243
	c0,0.188,0,0.345,0,0.469c-0.115,4.563-0.979,8.156-2.587,10.781l-1.467-1.406c1.437-1.999,2.213-5.156,2.329-9.469
	c0.114-1.624,0.173-3.499,0.173-5.625H325.831z M326.527,240.842v-7.875h6.642v-2.063h2.07v2.063h6.728v5.156
	c0.057,1.688-0.748,2.531-2.415,2.531c-0.461,0.062-1.294,0.094-2.501,0.094c-0.059-0.313-0.145-0.656-0.259-1.031
	c-0.059-0.313-0.116-0.563-0.173-0.75c0.518,0.063,1.235,0.094,2.156,0.094c0.862,0.063,1.264-0.343,1.207-1.219v-3.094h-4.743
	v7.875h-2.07v-7.875h-4.657v6.094H326.527z M330.84,192.688c-0.23,0.313-0.633,0.782-1.207,1.406
	c-0.058-0.062-0.116-0.125-0.173-0.188c-0.402-0.624-0.776-1.093-1.121-1.406c1.84-1.813,3.248-3.969,4.227-6.469l2.07,0.281
	c-0.289,0.688-0.604,1.313-0.949,1.875h10.522v1.781h-11.471c-0.403,0.75-0.863,1.438-1.381,2.063h11.472
	c-0.058,0.438-0.086,1.375-0.086,2.813c-0.059,1.188-0.087,2.125-0.087,2.813h1.984v1.781h-1.984c0,0.501-0.029,1.219-0.086,2.156
	c0,0.813,0,1.406,0,1.781h1.553v1.781h-1.639c-0.116,2.25-1.266,3.343-3.45,3.281c-0.921,0-1.956,0-3.105,0
	c-0.058-0.188-0.144-0.469-0.259-0.844c-0.115-0.438-0.202-0.75-0.259-0.938c1.035,0,2.041,0,3.02,0
	c1.38,0.062,2.098-0.438,2.156-1.5h-10.781l0.604-5.719h-1.897v-1.781h2.07l0.517-5.344
	C331.041,192.375,330.955,192.5,330.84,192.688L330.84,192.688z M331.616,275.97c-1.841,0-2.76-0.938-2.76-2.813v-3.938h1.983v3.375
	c0,0.938,0.488,1.406,1.467,1.406h3.622c1.265,0.125,1.954-0.343,2.07-1.406c0.173-0.624,0.287-1.313,0.345-2.063
	c0.229,0.126,0.604,0.281,1.121,0.469c0.346,0.126,0.604,0.22,0.776,0.281c-0.058,0.501-0.202,1.219-0.431,2.156
	c-0.059,0.126-0.087,0.22-0.087,0.281c-0.345,1.562-1.438,2.312-3.277,2.25H331.616z M334.722,262.188
	c-1.323,1.751-2.617,3.313-3.882,4.688c-0.461-0.499-0.948-0.938-1.466-1.313c1.149-1.125,2.386-2.625,3.709-4.5L334.722,262.188
	L334.722,262.188z M333.342,258.345c-0.576,1.063-1.294,2.156-2.156,3.281c-0.116-0.124-0.317-0.281-0.604-0.469
	c-0.403-0.375-0.72-0.656-0.949-0.844c1.494-1.812,2.73-3.874,3.709-6.188l1.983,0.375c-0.116,0.251-0.288,0.626-0.518,1.125
	c-0.23,0.375-0.374,0.656-0.431,0.844h9.4v1.969l-1.207,2.906c-0.288-0.188-0.806-0.375-1.553-0.563
	c-0.115-0.062-0.202-0.094-0.259-0.094l1.035-2.344H333.342L333.342,258.345z M340.673,203.375c0.057-0.75,0.086-2.063,0.086-3.938
	h-8.538l-0.346,3.938H340.673z M334.98,272.313c-0.748-1.125-1.61-2.218-2.588-3.281l1.467-1.125
	c0.919,0.938,1.839,1.969,2.76,3.094L334.98,272.313z M332.91,193.719l-0.431,3.938h8.366c0-1.562,0-2.874,0-3.938H332.91z
	 M333.594,337.028v-1.875h3.536v-1.313l2.328-2.625h-4.829v-1.406l-0.604,0.938c-0.402-0.437-0.892-0.905-1.466-1.406
	c1.38-2.063,2.472-4.468,3.277-7.219l1.983,0.281c-0.345,1.001-0.689,1.969-1.034,2.906h5.434v1.875h-6.21
	c-0.346,0.75-0.748,1.5-1.208,2.25h6.728v1.969l-2.587,3v0.75h3.277v1.875h-3.277v4.594c0.056,1.688-0.748,2.531-2.415,2.531
	c-0.807,0.062-1.553,0.094-2.243,0.094c0-0.188-0.058-0.438-0.172-0.75c-0.059-0.563-0.116-0.97-0.173-1.219c0.69,0,1.351,0,1.983,0
	c0.863,0.062,1.265-0.313,1.208-1.125v-4.125H333.594z M335.67,267.813c-0.575,0-1.236,0-1.983,0
	c-0.116-0.563-0.259-1.187-0.432-1.875c0.402,0.063,0.978,0.094,1.726,0.094c0.919,0,1.351-0.405,1.294-1.219v-5.156h1.897v5.438
	C338.229,266.846,337.396,267.752,335.67,267.813L335.67,267.813z M337.223,203.188c-0.288-0.249-0.689-0.624-1.207-1.125
	c-0.576-0.437-1.007-0.781-1.294-1.031l0.948-1.125c0.69,0.501,1.553,1.188,2.588,2.063L337.223,203.188z M337.396,197.375
	c-0.345-0.375-0.893-0.844-1.639-1.406c-0.346-0.313-0.634-0.563-0.862-0.75l1.034-1.125c0.518,0.375,1.265,0.938,2.243,1.688
	c-0.116-0.125,0-0.031,0.345,0.281L337.396,197.375z M342.915,266.876c-0.345-0.375-0.834-0.938-1.466-1.688
	c-0.921-1.125-1.669-1.999-2.242-2.625l1.38-1.219c1.264,1.376,2.558,2.782,3.881,4.219L342.915,266.876z M343.002,274.188
	c-0.863-1.437-1.928-3.03-3.191-4.781l1.553-1.125c1.264,1.688,2.385,3.313,3.363,4.875L343.002,274.188z M343.599,325.966v-1.969
	h6.986v1.969h-2.501v5.438h2.242v1.875h-2.242v5.719c0.286-0.062,0.718-0.188,1.293-0.375c0.574-0.124,1.006-0.218,1.294-0.281
	c0,0.626,0.028,1.313,0.086,2.063c-0.747,0.188-1.927,0.501-3.536,0.938c-1.552,0.375-2.731,0.656-3.536,0.844l-0.345-2.063
	l2.76-0.656v-6.188h-2.415v-1.875h2.415v-5.438H343.599z M346.821,158.408v-1.969h2.329v-4.219h1.897v4.219h1.983v1.969h-1.983
	v4.313l2.069-0.844c0,0.625,0.028,1.282,0.087,1.969l-2.156,0.938v7.125c0.056,1.625-0.634,2.468-2.07,2.531
	c-0.23,0-0.575,0.031-1.035,0.094c-0.345,0-0.604,0-0.776,0c-0.115-0.813-0.259-1.563-0.431-2.25c0.345,0,0.832,0,1.466,0
	c0.69,0,1.005-0.281,0.949-0.844v-5.906l-2.415,1.031l-0.259-2.25c0.345-0.125,0.862-0.312,1.552-0.563
	c0.518-0.188,0.892-0.312,1.122-0.375v-4.969H346.821z M346.994,293.655v-1.969h3.708c-0.288-1.062-0.604-2.093-0.948-3.094
	l1.983-0.469c0.173,0.688,0.518,1.875,1.035,3.563h2.415v1.969h-4.657l-0.087,3.188h4.141c0,3.375-0.087,6.75-0.259,10.125
	c0,2-0.835,3-2.502,3c-0.689,0-1.323,0-1.897,0l-0.431-1.969c0.518,0,1.092,0,1.725,0c0.978,0.062,1.437-0.437,1.38-1.5
	c0.115-3.249,0.173-5.813,0.173-7.688h-2.415c0,5.313-0.806,9.219-2.415,11.719l-1.466-1.406c1.437-1.999,2.156-5.655,2.156-10.969
	l0.086-4.5H346.994z M350.013,237.373c-0.346,1.688-1.007,3.437-1.984,5.25c-0.23-0.251-0.547-0.656-0.948-1.219
	c-0.23-0.313-0.403-0.532-0.518-0.656c0.862-1.5,1.408-2.906,1.639-4.219c0.229-1.313,0.345-3.437,0.345-6.375v-8.625h15.698v10.313
	c0,4.313,0.143,6.844,0.431,7.594c0.114,0.375,0.287,0.563,0.518,0.563c0.229-0.063,0.401-0.281,0.518-0.656
	c0.173-1.625,0.287-2.874,0.345-3.75c0.173,0.063,0.518,0.188,1.035,0.375c0.229,0.063,0.401,0.126,0.518,0.188
	c-0.058,0.313-0.116,0.813-0.173,1.5c-0.172,1.188-0.288,1.938-0.345,2.25c-0.23,1.562-0.92,2.344-2.07,2.344
	c-1.034,0-1.754-0.72-2.156-2.156c-0.461-1.25-0.689-4.031-0.689-8.344v-8.25H350.53v6.563
	C350.53,233.248,350.357,235.686,350.013,237.373L350.013,237.373z M346.648,257.876v-2.063h20.873v2.063h-3.105v15
	c0.057,2.188-0.979,3.281-3.104,3.281c-1.208,0.062-2.445,0.094-3.709,0.094c-0.058-0.563-0.202-1.313-0.432-2.25
	c1.208,0.062,2.3,0.094,3.277,0.094c1.381,0.125,2.013-0.499,1.897-1.875v-14.344H346.648z M347.339,205.438v-15.094h1.294v13.125
	l1.466-0.094v-17.156h1.553v17.063l1.38-0.094v-12.844h1.294v15.844h-1.294v-1.125L347.339,205.438z M348.978,272.407v-11.25h9.487
	v9.563h-7.504v1.688H348.978z M351.188,332.435v-1.969h12.852v1.969h-4.054v8.531c-0.059,0.626,0.229,0.938,0.862,0.938h0.689
	c0.633,0,0.978-0.312,1.035-0.938c0.057-0.499,0.144-1.5,0.259-3c0.287,0.126,0.719,0.313,1.294,0.563
	c0.173,0.063,0.287,0.094,0.345,0.094c-0.058,0.438-0.144,1.157-0.259,2.156c-0.058,0.438-0.086,0.75-0.086,0.938
	c-0.23,1.438-1.064,2.156-2.501,2.156h-1.294c-1.61,0.062-2.387-0.75-2.329-2.438v-9h-2.501c0,0.438-0.029,1.031-0.086,1.781
	c0,0.876-0.03,1.47-0.087,1.781c-0.058,3.563-1.582,6.469-4.571,8.719c-0.172-0.25-0.517-0.625-1.034-1.125
	c-0.23-0.25-0.403-0.438-0.518-0.563c2.76-1.749,4.14-4.093,4.14-7.031c0.114-0.938,0.173-2.124,0.173-3.563H351.188z
	 M360.362,239.998c-1.15-1.625-2.387-3.469-3.709-5.531c-1.438,2.063-3.048,4-4.83,5.813c-0.461-0.5-0.948-0.999-1.466-1.5
	c2.242-2.438,3.938-4.5,5.089-6.188c-0.461-0.688-1.18-1.719-2.156-3.094c-0.921-1.374-1.639-2.405-2.156-3.094l1.553-1.219
	c0.518,0.688,1.235,1.72,2.156,3.094c0.804,1.125,1.408,1.969,1.811,2.531c1.035-1.749,2.07-3.75,3.105-6l1.725,1.031
	c-0.979,2.25-2.186,4.5-3.622,6.75c1.954,2.875,3.334,4.938,4.14,6.188L360.362,239.998z M350.961,263.126v5.719h5.521v-5.719
	H350.961z M352.31,325.966v-1.969h10.522v1.969H352.31z M355.791,172.751c-0.402,0.312-0.834,0.656-1.294,1.031l-1.207-1.781
	c0.518-0.5,0.776-1.25,0.776-2.25v-15.656c4.427-0.188,8.538-0.53,12.334-1.031l0.517,1.969c-0.23,0-0.547,0.032-0.948,0.094
	c-1.151,0.126-2.501,0.25-4.054,0.375c0,1.75,0.057,3.625,0.173,5.625h5.261v1.969h-5.175c0.172,3.313,0.776,5.938,1.812,7.875
	c0.401,0.625,0.775,0.938,1.121,0.938c0.287,0,0.487-0.249,0.604-0.75c0-0.188,0.028-0.53,0.086-1.031
	c0.115-0.875,0.201-1.562,0.259-2.063c0.173,0.063,0.46,0.157,0.862,0.281c0.346,0.188,0.604,0.313,0.776,0.375
	c0,0.25-0.029,0.625-0.086,1.125c-0.058,0.813-0.173,1.594-0.345,2.344c-0.346,1.313-1.035,1.969-2.07,1.969
	c-1.151,0-2.128-0.75-2.933-2.25c-1.15-2-1.812-4.937-1.983-8.813h-4.227v7.406l3.536-2.063c0,0.063,0,0.126,0,0.188
	c0.057,0.563,0.173,1.188,0.346,1.875c-0.23,0.126-0.576,0.313-1.035,0.563C357.458,171.752,356.423,172.313,355.791,172.751
	L355.791,172.751z M355.791,191.375V189.5h4.485v-3.188h1.812c0,1.125,0,2.188,0,3.188h4.57v1.875h-4.57
	c0,0.625-0.03,1.469-0.087,2.531c0,0.938,0,1.626,0,2.063c0,0.563-0.058,1.281-0.172,2.156h5.52V200h-5.261
	c0.977,3.063,2.816,5.156,5.52,6.281c-0.403,0.687-0.776,1.343-1.121,1.969c-2.876-1.688-4.716-3.875-5.521-6.563
	c-0.748,2.5-2.646,4.812-5.692,6.938c-0.345-0.563-0.776-1.188-1.294-1.875c3.105-1.625,5.003-3.875,5.693-6.75h-4.399v-1.875h4.744
	c0.057-0.563,0.086-1.156,0.086-1.781c0.114-1.313,0.173-2.968,0.173-4.969H355.791z M358.551,292.437
	c-0.748,1.376-1.639,2.719-2.674,4.031c-0.633-0.687-1.093-1.155-1.38-1.406c1.726-2.063,2.989-4.374,3.795-6.938l1.984,0.188
	c-0.116,0.313-0.289,0.782-0.518,1.406c-0.173,0.438-0.288,0.75-0.345,0.938h7.762v1.781H358.551L358.551,292.437z M357.517,196.906
	c-0.576-1.125-1.208-2.25-1.897-3.375l1.293-0.938c0.229,0.313,0.518,0.782,0.863,1.406c0.517,0.813,0.919,1.438,1.207,1.875
	L357.517,196.906z M366.831,308.937c-0.345,0.375-0.604,0.656-0.776,0.844c-3.221-2.749-5.061-6.874-5.52-12.375
	c-0.69,0.063-1.38,0.157-2.07,0.281v9.844c1.208-0.624,2.329-1.125,3.364-1.5c0,0.188,0,0.501,0,0.938
	c0.056,0.438,0.086,0.75,0.086,0.938c-1.208,0.437-2.415,0.999-3.623,1.688c-0.115,0.062-0.258,0.125-0.431,0.188
	c-0.461,0.249-0.748,0.437-0.862,0.563l-1.122-1.688c0.518-0.438,0.747-1.031,0.69-1.781v-10.969c3.105-0.249,6.21-0.75,9.315-1.5
	l0.689,1.969c-1.323,0.313-2.76,0.563-4.313,0.75c0.173,1.5,0.401,2.813,0.69,3.938c1.149-0.624,2.271-1.313,3.363-2.063
	l0.949,1.688c-1.208,0.75-2.445,1.47-3.709,2.156c0.746,2.063,2.099,3.782,4.054,5.156
	C367.491,308.187,367.232,308.499,366.831,308.937L366.831,308.937z M360.104,161.126c-0.058-1.688-0.086-3.5-0.086-5.438
	c-1.38,0.063-2.703,0.157-3.968,0.281v5.156H360.104z M359.5,174.626c-0.575-0.938-1.208-1.844-1.897-2.719l1.466-0.844
	c0.69,0.563,1.408,1.437,2.156,2.625L359.5,174.626z M365.02,196.25c-0.23,0.313-0.402,0.563-0.518,0.75l-1.38-0.938
	c0.057-0.062,0.115-0.155,0.173-0.281c0.977-1.438,1.639-2.499,1.983-3.188l1.38,0.844C366.313,194.063,365.767,195,365.02,196.25
	L365.02,196.25z M371.112,343.872c-1.841-0.188-2.876-1.281-3.104-3.281c0.172-2.124,1.207-3.281,3.104-3.469
	c1.954,0.188,3.019,1.345,3.191,3.469C374.131,342.591,373.066,343.685,371.112,343.872L371.112,343.872z M371.112,338.528
	c-1.093,0.126-1.696,0.813-1.812,2.063c0.115,1.063,0.719,1.655,1.812,1.781c1.149-0.126,1.781-0.718,1.897-1.781
	C372.894,339.342,372.262,338.654,371.112,338.528L371.112,338.528z M373.162,171.251c-1.151,1.125-2.07,2.124-2.761,3l-0.948-2.156
	c0.287-0.249,0.805-0.718,1.553-1.406c0.574-0.563,0.977-0.968,1.207-1.219v-7.125h-2.587v-2.156h4.571v9.188
	c1.091,1.75,2.673,2.593,4.743,2.531c3.679,0.125,7.475,0.125,11.385,0c-0.058,0.249-0.144,0.624-0.259,1.125
	c-0.172,0.437-0.288,0.781-0.345,1.031c-1.266,0-3.191-0.032-5.778-0.094c-2.761,0-4.63-0.032-5.606-0.094
	C376.209,173.813,374.483,172.939,373.162,171.251L373.162,171.251z M369.712,231.748v-2.063h9.229v-9.469h2.07v9.469h9.314v2.063
	h-6.813v6.938c0,0.876,0.488,1.313,1.467,1.313h1.725c0.919,0.062,1.408-0.343,1.466-1.219c0.173-0.812,0.287-1.875,0.346-3.188
	l1.983,0.75c-0.173,1.5-0.345,2.657-0.518,3.469c-0.288,1.562-1.323,2.312-3.104,2.25h-2.502c-1.897,0-2.846-0.97-2.846-2.906
	v-7.406h-3.968l-0.086,1.219c0,4.438-2.243,7.655-6.728,9.656c-0.173-0.251-0.461-0.688-0.862-1.313
	c-0.173-0.313-0.317-0.532-0.432-0.656c3.909-1.374,5.894-3.999,5.951-7.875l0.086-1.031H369.712z M369.539,292.718v-1.781h4.054
	v-2.625h1.897v2.625h3.536v-2.719h1.812v2.719h3.623v-2.625h1.897v2.625h3.967v1.781h-3.967v2.438h-1.897v-2.438h-3.623v2.438
	h-1.812v-2.438h-3.536v2.438h-1.897v-2.438H369.539z M369.712,190.531v-1.875h9.143v-2.438h2.07v2.438h9.229v1.875h-9.229v2.25
	h8.193v12.844c0,1.812-0.834,2.719-2.501,2.719c-0.576,0.062-1.697,0.094-3.364,0.094c-0.116-0.688-0.259-1.376-0.431-2.063
	c0.862,0,1.811,0,2.846,0c1.092,0.062,1.609-0.375,1.553-1.313v-10.406h-14.404v13.875h-1.983v-15.75h8.021v-2.25H369.712z
	 M372.041,274.751c-0.173,0.188-0.317,0.343-0.432,0.469l-1.466-1.781c0.632-0.624,0.919-1.437,0.862-2.438v-15.844h2.156v16.031
	c1.781-1.249,3.593-2.625,5.434-4.125c0,0.126,0.028,0.313,0.086,0.563c0.173,1.001,0.315,1.688,0.432,2.063
	c-1.841,1.313-3.854,2.719-6.038,4.219C372.845,274.095,372.5,274.376,372.041,274.751L372.041,274.751z M370.229,300.405v-4.219
	h19.492v4.219h-1.983v-2.344h-15.525v2.344H370.229z M373.593,157.845c-0.518-0.938-1.438-2.405-2.76-4.406l1.639-0.938
	c0.287,0.375,0.805,1.063,1.553,2.063c0.689,0.938,1.178,1.626,1.466,2.063L373.593,157.845z M374.887,227.998
	c-0.461-0.563-1.179-1.468-2.156-2.719c-0.806-0.999-1.38-1.719-1.725-2.156l1.466-1.313c1.495,1.626,2.847,3.22,4.054,4.781
	L374.887,227.998z M372.299,308.843v-7.875h6.642v-2.063h2.07v2.063h6.728v5.156c0.057,1.688-0.748,2.531-2.415,2.531
	c-0.461,0.062-1.294,0.094-2.501,0.094c-0.059-0.313-0.145-0.656-0.259-1.031c-0.059-0.312-0.116-0.563-0.173-0.75
	c0.518,0.063,1.235,0.094,2.156,0.094c0.862,0.063,1.264-0.343,1.207-1.219v-3.094h-4.743v7.875h-2.07v-7.875h-4.657v6.094H372.299z
	 M374.369,199.906v-1.688h2.847c-0.116-0.188-0.317-0.53-0.604-1.031c-0.517-0.75-0.834-1.219-0.948-1.406l1.725-0.563
	c0.173,0.188,0.46,0.595,0.863,1.219c0.459,0.688,0.746,1.125,0.862,1.313l-1.38,0.469h2.933c0.229-0.313,0.573-0.875,1.034-1.688
	c0.402-0.688,0.661-1.125,0.776-1.313l1.812,0.469c-0.173,0.313-0.518,0.876-1.035,1.688c-0.23,0.375-0.403,0.656-0.518,0.844h2.847
	v1.688h-4.657v2.25h5.261v1.688h-5.261v4.125h-1.898v-4.125h-5.175v-1.688h5.175v-2.25H374.369z M375.922,159.533v-2.063h5.348
	c0.057-1.187,0.086-2.906,0.086-5.156h2.07c0,1.875-0.03,3.595-0.087,5.156h6.21v2.063h-6.296c-0.116,1.375-0.345,2.625-0.689,3.75
	l0.948-0.844c0.574,0.563,1.609,1.626,3.105,3.188c1.437,1.5,2.443,2.563,3.019,3.188l-1.639,1.5
	c-1.035-1.25-2.933-3.343-5.692-6.281c-0.863,2.313-2.704,4.469-5.521,6.469c-0.403-0.624-0.862-1.25-1.38-1.875
	c3.737-2.438,5.663-5.468,5.778-9.094H375.922z M379.285,261.251c-0.978-2.063-1.983-4.031-3.019-5.906l1.726-1.031
	c1.207,1.938,2.299,3.876,3.277,5.813L379.285,261.251z M388.773,276.063c-0.807-1.188-1.956-2.749-3.45-4.688
	c-0.23-0.188-0.375-0.343-0.432-0.469c-1.093,1.938-3.363,3.875-6.813,5.813c-0.173-0.188-0.432-0.563-0.776-1.125
	c-0.23-0.438-0.432-0.75-0.604-0.938c5.807-2.499,8.625-6.999,8.452-13.5c0.114-2.374,0.173-4.5,0.173-6.375h2.069
	c0,2.688-0.058,4.813-0.172,6.375c-0.173,3.251-0.604,5.782-1.294,7.594c0.632,0.75,1.553,1.907,2.76,3.469
	c0.862,1.001,1.467,1.688,1.812,2.063L388.773,276.063z M388.859,223.123c-1.266,1.688-2.646,3.375-4.14,5.063l-1.553-1.5
	c1.553-1.625,2.902-3.249,4.054-4.875L388.859,223.123L388.859,223.123z M395.966,273.345c-1.034,0.875-1.927,1.843-2.674,2.906
	l-0.948-2.25c0.173-0.124,0.459-0.375,0.862-0.75c0.805-0.812,1.38-1.374,1.726-1.688v-7.313h-2.329v-2.063h4.313v9.188
	c0.977,1.688,2.587,2.531,4.83,2.531c1.264,0.062,3.995,0.062,8.193,0c1.609,0,2.73,0,3.364,0c-0.23,0.75-0.432,1.438-0.604,2.063
	c-5.864,0-9.718-0.032-11.557-0.094C398.841,275.876,397.116,275.032,395.966,273.345L395.966,273.345z M394.932,303.687
	c-0.576,0.063-1.122,0.157-1.64,0.281l-0.517-1.875c0.459-0.312,1.005-0.938,1.639-1.875c0.632-0.75,1.264-1.688,1.897-2.813
	c-1.324,0.063-2.474,0.157-3.45,0.281l-0.518-1.875c0.459-0.375,0.891-0.938,1.294-1.688c1.264-2.187,2.242-4.155,2.933-5.906
	l2.069,0.656c-1.61,2.938-2.962,5.22-4.054,6.844l2.76-0.094c0.173-0.249,0.374-0.624,0.604-1.125
	c0.287-0.499,0.487-0.874,0.604-1.125l1.812,0.75c-1.669,2.813-3.308,5.376-4.917,7.688l4.054-0.375c0,0.063,0,0.126,0,0.188
	c-0.115,0.501-0.172,1.063-0.172,1.688c-0.748,0.063-1.726,0.157-2.933,0.281C395.707,303.656,395.218,303.687,394.932,303.687
	L394.932,303.687z M398.381,307.999c-2.415,0.437-4.313,0.812-5.692,1.125l-0.345-1.969c0.401-0.062,1.063-0.155,1.983-0.281
	c2.357-0.375,4.169-0.687,5.434-0.938c-0.058,0.626-0.086,1.282-0.086,1.969C399.387,307.905,398.955,307.937,398.381,307.999
	L398.381,307.999z M392.43,156.064v-1.781h9.487l-0.517-1.969l2.242-0.188l0.518,2.156h9.056v1.781H392.43z M396.225,259.657
	c-1.15-1.688-2.1-3-2.846-3.938l1.639-1.125c0.172,0.251,0.459,0.595,0.862,1.031c0.978,1.313,1.667,2.25,2.07,2.813
	L396.225,259.657z M393.551,174.439v-10.594h18.631v7.781c0.057,1.749-0.776,2.656-2.502,2.719c-0.979,0-1.983,0-3.019,0
	c-0.058-0.188-0.145-0.532-0.259-1.031c-0.058-0.375-0.116-0.656-0.173-0.844c0.863,0,1.668,0,2.415,0
	c1.092,0.062,1.609-0.344,1.553-1.219v-5.719h-14.749v8.906H393.551z M394.241,207.875v-19.594h17.25v19.594h-2.156v-1.969h-12.938
	v1.969H394.241z M398.554,238.498c0,2.187-0.748,3.812-2.242,4.875l-0.776-0.844c1.035-0.813,1.581-2.032,1.639-3.656h-1.467v-3.094
	h2.847C398.554,236.28,398.554,237.186,398.554,238.498L398.554,238.498z M395.794,162.345v-4.781h14.145v4.781H395.794z
	 M396.397,190.438v13.313h12.938v-13.313H396.397z M397.691,159.064v1.781h10.264v-1.781H397.691z M398.122,171.908v-4.781h9.488
	v4.781H398.122z M401.4,259.751c-0.346,0.938-0.69,1.813-1.035,2.625c-0.173-0.062-0.461-0.188-0.863-0.375
	c-0.461-0.188-0.775-0.312-0.948-0.375c1.092-2.187,1.897-4.374,2.415-6.563l1.812,0.375c-0.059,0.251-0.173,0.656-0.346,1.219
	c-0.115,0.563-0.23,1.001-0.345,1.313h2.76v-3.75h1.984v3.75h5.175v1.781h-5.175v3.656h6.037v1.781H408.3v4.219
	c-0.058,0.938,0.287,1.376,1.035,1.313h0.518c0.689,0.063,1.092-0.343,1.207-1.219c0.115-0.687,0.201-1.437,0.259-2.25
	c0.574,0.251,1.121,0.469,1.639,0.656c-0.058,0.813-0.144,1.594-0.259,2.344c-0.23,1.5-1.034,2.25-2.415,2.25h-1.639
	c-1.61,0.063-2.387-0.874-2.328-2.813v-4.5h-2.588c0.057,3.563-1.237,6.157-3.881,7.781c-0.461-0.499-0.949-1.031-1.467-1.594
	c2.415-1.313,3.564-3.375,3.45-6.188h-3.622v-1.781h6.641v-3.656H401.4L401.4,259.751z M413.389,295.624
	c-0.345,0.563-0.69,1.219-1.035,1.969c-2.646-1.875-4.629-4.125-5.951-6.75c-1.15,2.188-2.617,4.031-4.398,5.531h8.625v1.875h-8.798
	v-1.781c-0.461,0.438-0.948,0.844-1.466,1.219c-0.403-0.874-0.72-1.53-0.949-1.969c2.816-1.875,4.916-4.437,6.297-7.688l1.983,0.281
	l-0.345,0.75C408.846,291.874,410.857,294.063,413.389,295.624L413.389,295.624z M399.934,168.533v2.063h5.779v-2.063H399.934z
	 M400.969,310.624v-9.656h10.608v9.656h-1.897v-1.313h-6.813v1.313H400.969z M402.866,302.843v4.688h6.813v-4.688H402.866z
	 M417.898,294.874c-0.575,0.75-1.18,1.47-1.812,2.156c-0.116-0.312-0.316-0.75-0.604-1.313c-0.173-0.312-0.288-0.563-0.345-0.75
	c2.012-2.124,3.564-4.437,4.657-6.938l1.897,0.75c-0.575,1.188-1.208,2.313-1.897,3.375v9.75h-1.897V294.874L417.898,294.874z
	 M415.569,157.845v-1.875h2.76c0-0.062,0.028-0.188,0.087-0.375c0.172-1.374,0.287-2.468,0.345-3.281l1.897,0.188
	c-0.173,1.188-0.345,2.344-0.518,3.469h3.45v1.875h-3.881c-0.634,3.188-1.87,6.469-3.709,9.844
	c-0.173-0.563-0.432-1.343-0.776-2.344c1.207-2.25,2.099-4.749,2.674-7.5H415.569z M415.569,233.529v-1.781h20.441v1.781h-8.97v2.25
	h7.417v1.781h-7.417v2.344c2.989,0,6.037,0,9.143,0c-0.173,0.687-0.346,1.343-0.518,1.969c-3.968,0-6.872-0.032-8.712-0.094
	c-3.449,0-5.778-1.063-6.985-3.188c-0.576,1.374-1.755,2.78-3.537,4.219l-1.207-1.594c2.357-1.562,3.65-3.875,3.881-6.938
	l1.897,0.281c-0.058,0.25-0.115,0.625-0.172,1.125c-0.116,0.438-0.173,0.75-0.173,0.938c0.919,1.938,2.386,3.032,4.398,3.281v-6.375
	H415.569z M415.483,260.501v-2.063h2.501v-4.125h1.897v4.125h2.329v2.063h-2.329v4.594c0.345-0.124,0.833-0.281,1.467-0.469
	c0.287-0.062,0.487-0.124,0.604-0.188c0,0.251,0.028,0.595,0.086,1.031c0,0.501,0,0.876,0,1.125
	c-0.116,0.063-0.345,0.126-0.689,0.188c-0.634,0.188-1.122,0.345-1.467,0.469v6.656c0,1.562-0.72,2.375-2.156,2.438
	c-0.748,0.062-1.438,0.094-2.069,0.094c-0.059-0.313-0.116-0.75-0.173-1.313c-0.116-0.438-0.173-0.719-0.173-0.844
	c0.574,0,1.121,0,1.639,0c0.747,0.062,1.092-0.25,1.035-0.938v-5.531l-2.587,0.844l-0.087-2.344c0.173-0.062,0.46-0.124,0.862-0.188
	c0.229-0.124,0.833-0.281,1.812-0.469v-5.156H415.483z M419.278,303.593c-0.69,1.938-1.41,3.72-2.156,5.344l-1.812-0.844
	c0.862-1.624,1.553-3.343,2.07-5.156L419.278,303.593L419.278,303.593z M418.329,172.376c-0.575,0.125-1.121,0.218-1.639,0.281
	l-0.689-1.406c0.518-0.437,0.919-1.031,1.207-1.781c1.092-2.375,2.127-5.25,3.105-8.625l1.725,0.563
	c-1.323,3.876-2.501,7-3.536,9.375c0.46-0.062,1.208-0.125,2.242-0.188c0.518-0.062,0.892-0.094,1.122-0.094
	c-0.346-1.187-0.72-2.438-1.122-3.75l1.467-0.469c0.287,0.876,0.66,2.032,1.121,3.469c0.401,1.375,0.747,2.438,1.035,3.188
	l-1.553,0.563l-0.432-1.594c-0.461,0.062-1.121,0.155-1.983,0.281C419.537,172.25,418.847,172.313,418.329,172.376L418.329,172.376z
	 M418.243,229.967v-8.813h15.008v8.813H418.243z M421.435,204.5c0,2.187-0.748,3.812-2.242,4.875l-0.776-0.844
	c1.035-0.813,1.581-2.032,1.639-3.656h-1.467v-3.094h2.847C421.435,202.282,421.435,203.188,421.435,204.5L421.435,204.5z
	 M420.227,222.936v1.875h10.954v-1.875H420.227z M420.227,226.311v1.969h10.954v-1.969H420.227z M423.159,309.968
	c-1.841,0-2.76-0.938-2.76-2.813v-3.938h1.983v3.375c0,0.938,0.488,1.406,1.467,1.406h3.622c1.265,0.125,1.954-0.343,2.07-1.406
	c0.173-0.624,0.287-1.313,0.345-2.063c0.229,0.126,0.604,0.281,1.121,0.469c0.346,0.126,0.604,0.22,0.776,0.281
	c-0.058,0.501-0.202,1.219-0.431,2.156c-0.059,0.126-0.087,0.22-0.087,0.281c-0.345,1.562-1.438,2.312-3.277,2.25H423.159z
	 M426.265,296.187c-1.323,1.751-2.617,3.313-3.882,4.688c-0.461-0.499-0.948-0.938-1.466-1.313c1.149-1.125,2.386-2.625,3.709-4.5
	L426.265,296.187L426.265,296.187z M424.885,292.343c-0.576,1.063-1.294,2.156-2.156,3.281c-0.116-0.124-0.317-0.281-0.604-0.469
	c-0.403-0.375-0.72-0.656-0.949-0.844c1.494-1.812,2.73-3.874,3.709-6.188l1.983,0.375c-0.116,0.251-0.288,0.626-0.518,1.125
	c-0.23,0.375-0.374,0.656-0.431,0.844h9.4v1.969l-1.207,2.906c-0.288-0.188-0.806-0.375-1.553-0.563
	c-0.115-0.062-0.202-0.094-0.259-0.094l1.035-2.344H424.885L424.885,292.343z M422.814,268.47v-1.875h5.262v-2.156h1.983v2.156
	h5.175v1.875h-5.175v2.625h6.124v1.875h-6.124v3.563h-1.983v-3.563h-6.469v-1.875h6.469v-2.625H422.814z M435.838,263.595
	c-0.23,0.501-0.374,0.907-0.431,1.219c-2.588-0.563-4.688-1.249-6.297-2.063c-1.725,0.876-3.824,1.626-6.296,2.25
	c-0.058-0.249-0.202-0.624-0.432-1.125c-0.115-0.375-0.202-0.656-0.258-0.844c2.069-0.437,3.765-0.938,5.088-1.5
	c-1.265-0.999-2.473-2.438-3.622-4.313h-0.949v-1.875h12.248v1.875c-1.151,1.751-2.444,3.188-3.882,4.313
	c1.438,0.501,3.134,0.938,5.089,1.313C436.039,263.032,435.953,263.283,435.838,263.595L435.838,263.595z M424.798,174.626v-14.063
	c-0.46,0.813-0.948,1.594-1.466,2.344c-0.173-0.687-0.461-1.406-0.862-2.156c1.781-2.312,3.104-5.156,3.968-8.531l1.897,0.375
	c-0.403,1.313-0.835,2.531-1.294,3.656h3.881c-0.461-1.187-0.948-2.312-1.466-3.375l1.725-0.469
	c0.229,0.501,0.518,1.157,0.862,1.969c0.287,0.563,0.488,1,0.604,1.313l-1.64,0.563h4.83v1.781h-3.967v3.188h3.622v1.781h-3.622
	v3.281h3.622v1.688h-3.622v3.375h4.14v1.594h-9.401v1.688H424.798z M426.523,306.312c-0.748-1.125-1.61-2.218-2.588-3.281
	l1.467-1.125c0.919,0.938,1.839,1.969,2.76,3.094L426.523,306.312z M427.213,301.812c-0.575,0-1.236,0-1.983,0
	c-0.116-0.563-0.259-1.187-0.432-1.875c0.402,0.063,0.978,0.094,1.726,0.094c0.919,0,1.351-0.405,1.294-1.219v-5.156h1.897v5.438
	C429.771,300.844,428.938,301.75,427.213,301.812L427.213,301.812z M429.11,260.501c1.035-0.624,2.213-1.718,3.537-3.281h-6.9
	C426.724,258.596,427.846,259.689,429.11,260.501L429.11,260.501z M426.609,158.033v3.188h3.536v-3.188H426.609z M426.609,163.001
	v3.281h3.536v-3.281H426.609z M426.609,167.97v3.375h3.536v-3.375H426.609z M434.458,300.874c-0.345-0.375-0.834-0.938-1.466-1.688
	c-0.921-1.125-1.669-1.999-2.242-2.625l1.38-1.219c1.264,1.376,2.558,2.782,3.881,4.219L434.458,300.874z M434.545,308.187
	c-0.863-1.437-1.928-3.03-3.191-4.781l1.553-1.125c1.264,1.688,2.385,3.313,3.363,4.875L434.545,308.187z M457.953,196.25
	c-4.371-2.375-7.447-4.969-9.229-7.781c-2.358,3.063-5.52,5.719-9.487,7.969c-0.461-0.812-0.862-1.468-1.207-1.969
	c4.484-2.375,7.762-5.188,9.832-8.438l2.329,0.281l-0.346,0.656c2.185,3,5.262,5.406,9.229,7.219L457.953,196.25z M438.719,155.876
	v-1.781h7.849v1.781h-3.019c-0.403,1.813-0.948,3.501-1.639,5.063h4.054v12.563h-1.639v-1.5h-2.501v1.875h-1.812v-9.375
	c-0.345,0.625-0.776,1.282-1.294,1.969c-0.172-0.75-0.374-1.562-0.604-2.438c1.667-2.499,2.816-5.218,3.45-8.156H438.719z
	 M438.115,232.217v-2.438h20.959v2.438H438.115z M442.255,196.625v-2.063h12.766v2.063h-5.348v3.281h6.641v2.063h-6.641v3.656h8.538
	v1.875h-19.233v-1.875h8.539v-3.656h-6.642v-2.063h6.642v-3.281H442.255z M454.675,264.063c-0.806,0-1.552,0-2.242,0l0,0
	c0-0.499-0.116-1.125-0.345-1.875c0.459,0.063,1.178,0.094,2.156,0.094c1.092,0.063,1.639-0.563,1.639-1.875
	c0.057-0.249,0.086-0.78,0.086-1.594c0.057-0.687,0.086-1.219,0.086-1.594h-3.708c0.057,3.251-1.151,5.813-3.623,7.688
	c-0.115-0.124-0.259-0.281-0.431-0.469c-0.461-0.499-0.776-0.844-0.949-1.031l0.086-0.094c0.057,0,0.087-0.03,0.087-0.094
	l-0.432,0.281c-0.172-0.188-0.374-0.499-0.604-0.938c-0.173-0.312-0.288-0.53-0.345-0.656c-0.69,0.251-1.669,0.656-2.933,1.219
	c-0.748,0.313-1.323,0.532-1.726,0.656c-0.461,0.188-0.92,0.438-1.38,0.75l-1.121-1.5c0.46-0.499,0.69-1.187,0.69-2.063v-5.344
	c2.874-0.188,5.348-0.53,7.417-1.031l0.604,1.875c-2.358,0.501-4.398,0.813-6.123,0.938v4.313c0.459-0.124,1.437-0.499,2.933-1.125
	c0.345-0.124,0.604-0.218,0.775-0.281c-0.115-0.249-0.316-0.656-0.604-1.219c-0.115-0.188-0.202-0.312-0.259-0.375l1.467-0.75
	c1.207,1.813,2.098,3.281,2.674,4.406c1.321-0.999,1.983-2.719,1.983-5.156h-2.07v-1.688h9.488c0,0.626-0.059,1.751-0.173,3.375
	c-0.058,0.75-0.086,1.282-0.086,1.594C457.694,262.938,456.688,264.127,454.675,264.063L454.675,264.063z M438.978,310.343v-18.375
	h2.329c0.057-0.249,0.143-0.593,0.259-1.031c0.229-0.687,0.431-1.594,0.604-2.719l2.156,0.375c-0.288,1.125-0.604,2.25-0.949,3.375
	h3.882v18.188h-1.897v-1.781h-4.399v1.969H438.978z M440.357,276.626v-11.25h16.474v11.156h-1.983v-1.031h-12.506v1.125H440.357z
	 M440.961,294.03v5.156h4.399v-5.156H440.961z M440.961,301.249v5.344h4.399v-5.344H440.961z M441.824,162.72v7.688h2.501v-7.688
	H441.824z M442.342,267.157v2.625h5.261v-2.625H442.342z M442.342,271.376v2.531h5.261v-2.531H442.342z M446.913,169.376v-1.969
	h8.107v1.969H446.913z M454.589,174.251c-0.979,0-1.955,0-2.933,0c-0.058-0.313-0.145-0.782-0.259-1.406
	c-0.058-0.313-0.116-0.563-0.172-0.75c0.689,0.062,1.725,0.094,3.104,0.094c1.149,0.062,1.753-0.469,1.812-1.594
	c0.114-1.875,0.2-3.905,0.259-6.094h-8.625l0.689-7.969h1.897l-0.518,6h4.399l0.689-7.125h-7.417v-1.969h9.573l-0.862,9.094h2.156
	c-0.058,1.125-0.116,2.782-0.173,4.969c-0.115,1.563-0.172,2.688-0.172,3.375C458.039,173.126,456.888,174.251,454.589,174.251
	L454.589,174.251z M454.244,310.155c-1.151,0-2.358,0-3.623,0c-0.058-0.688-0.202-1.438-0.431-2.25
	c0.746,0.062,1.867,0.094,3.363,0.094c1.609,0.125,2.415-0.656,2.415-2.344c0.114-1.374,0.201-4.313,0.259-8.813
	c0.057-1.313,0.086-2.25,0.086-2.813h-5.175c-0.23,0.563-0.604,1.376-1.121,2.438c-0.23,0.501-0.403,0.876-0.518,1.125
	c-0.518-0.375-1.093-0.75-1.725-1.125c1.38-2.687,2.443-5.438,3.191-8.25l1.983,0.469c-0.116,0.375-0.288,0.907-0.518,1.594
	c-0.23,0.75-0.403,1.313-0.518,1.688h6.383c0,4.001-0.116,8.688-0.345,14.063C457.953,308.717,456.716,310.093,454.244,310.155
	L454.244,310.155z M452.605,303.687c-0.289-0.437-0.72-1.093-1.294-1.969c-0.806-1.313-1.438-2.312-1.897-3l1.553-1.125
	c0.401,0.626,1.005,1.5,1.811,2.625c0.69,0.938,1.208,1.688,1.553,2.25L452.605,303.687z M454.848,267.157h-5.261v2.625h5.261
	V267.157z M449.587,271.376v2.531h5.261v-2.531H449.587z M464.369,237.373c-0.23,1.626-0.806,3.343-1.725,5.156
	c-0.518-0.563-1.064-1.063-1.639-1.5c0.805-1.5,1.322-2.968,1.553-4.406c0.229-1.374,0.345-3.563,0.345-6.563v-7.219h8.97
	c-0.058-0.249-0.202-0.656-0.431-1.219c-0.173-0.563-0.317-0.969-0.432-1.219l2.329-0.281c0.057,0.126,0.114,0.281,0.172,0.469
	c0.287,1.063,0.488,1.813,0.604,2.25h7.676v1.875h-16.991v5.25C464.801,233.28,464.656,235.748,464.369,237.373L464.369,237.373z
	 M461.954,259.188v-1.969h5.865c0.46-0.999,0.833-2.03,1.121-3.094l2.156,0.281c-0.172,0.438-0.402,1.063-0.689,1.875
	c-0.173,0.438-0.288,0.75-0.345,0.938h11.815v1.969h-12.679c-0.633,1.5-1.552,3.188-2.76,5.063v12.281h-1.983v-9.75
	c-0.748,0.813-1.582,1.688-2.502,2.625c-0.288-0.687-0.604-1.406-0.948-2.156c2.588-2.499,4.571-5.187,5.951-8.063H461.954z
	 M471.701,298.437c-2.415,1.188-5.751,2.22-10.005,3.094c-0.059-0.312-0.231-0.78-0.518-1.406c-0.059-0.312-0.116-0.53-0.173-0.656
	c3.622-0.563,6.497-1.313,8.625-2.25c-1.38-0.938-2.617-2.156-3.709-3.656c-0.92,1.125-1.983,2.188-3.191,3.188
	c-0.402-0.624-0.776-1.187-1.121-1.688c2.415-1.937,4.398-4.249,5.951-6.938l2.156,0.375c-0.402,0.688-0.834,1.313-1.294,1.875
	h10.695v2.156c-1.668,2.001-3.422,3.563-5.261,4.688c1.781,0.813,4.455,1.406,8.021,1.781c-0.115,0.313-0.288,0.75-0.518,1.313
	c-0.115,0.375-0.202,0.656-0.259,0.844C477.135,300.531,474,299.625,471.701,298.437L471.701,298.437z M466.354,190.719
	c-0.979,1.688-2.243,3.375-3.795,5.063c-0.461-0.688-0.862-1.313-1.208-1.875c2.127-2.25,3.766-4.843,4.916-7.781l2.156,0.375
	c-0.345,0.75-0.689,1.5-1.034,2.25h13.713v1.969h-7.158v3.938h6.642v1.969h-6.642v4.594h8.021v2.063h-8.021v5.438h-2.07v-5.438
	h-10.694v-2.063h3.277v-6.563h7.417v-3.938H466.354L466.354,190.719z M461.265,166.47v-2.063h10.781v-0.094
	c0.345-2.438,0.546-6.437,0.604-12h2.07c-0.059,6.126-0.23,10.125-0.518,12v0.094h7.59v2.063h-8.021
	c-0.058,0.375-0.172,0.75-0.345,1.125c1.092,0.625,2.788,1.657,5.089,3.094c1.264,0.75,2.213,1.28,2.846,1.594l-1.293,1.969
	c-1.208-0.813-2.876-1.907-5.003-3.281c-1.093-0.75-1.927-1.313-2.501-1.688c-1.323,2.063-4.657,3.844-10.005,5.344
	c-0.116-0.25-0.403-0.782-0.862-1.594c-0.173-0.25-0.289-0.438-0.346-0.563c6.21-1.374,9.631-3.375,10.264-6H461.265z
	 M467.561,163.189c-1.841-1.5-3.565-2.75-5.175-3.75l1.121-1.688c0.173,0.126,0.432,0.281,0.776,0.469
	c1.437,0.938,2.933,1.969,4.485,3.094L467.561,163.189z M464.11,310.624v-9.094h14.749v9.094h-1.983v-1.313h-10.781v1.313H464.11z
	 M466.095,236.717v-1.875h6.21v-9.188h1.897v9.188h6.21v1.875h-6.21v3.188h7.59v1.688h-16.991v-1.688h7.504v-3.188H466.095z
	 M470.063,158.408c-1.496-1.187-3.191-2.405-5.089-3.656l1.121-1.594c1.035,0.625,2.443,1.532,4.226,2.719
	c0.402,0.313,0.719,0.532,0.949,0.656L470.063,158.408z M470.579,233.061c-0.115-0.125-0.259-0.343-0.431-0.656
	c-0.69-0.938-1.237-1.655-1.639-2.156c-0.518,1.125-1.18,2.188-1.984,3.188c-0.115-0.125-0.374-0.375-0.775-0.75
	c-0.289-0.188-0.489-0.343-0.604-0.469c1.495-1.688,2.502-3.656,3.019-5.906l1.726,0.281c-0.058,0.188-0.145,0.407-0.259,0.656
	c-0.058,0.313-0.202,0.75-0.432,1.313c0.518,0.625,1.208,1.438,2.07,2.438c-0.23-0.249-0.029,0,0.604,0.75L470.579,233.061z
	 M466.095,303.405v4.219h10.781v-4.219H466.095z M466.439,196.625v4.594h5.434v-4.594H466.439z M468.251,267.063v-1.969h5.261
	v-4.406h1.984v4.406h5.261v1.969h-5.261v6.188h6.382v1.875h-14.662v-1.875h6.296v-6.188H468.251z M471.701,296.187
	c1.667-0.874,3.306-2.156,4.916-3.844h-9.315C468.797,294.094,470.263,295.375,471.701,296.187L471.701,296.187z M480.153,233.248
	c-0.748-1.063-1.524-2.094-2.329-3.094c-0.518,1.063-1.179,2.063-1.983,3c-0.461-0.5-0.921-0.938-1.38-1.313
	c1.437-1.5,2.443-3.343,3.019-5.531l1.725,0.281c-0.058,0.25-0.172,0.625-0.345,1.125c-0.116,0.375-0.202,0.656-0.259,0.844
	c1.38,1.5,2.329,2.594,2.847,3.281L480.153,233.248z M484.231,297.124v-2.063h2.847v-3.469l-2.501,0.094
	c-0.059-0.75-0.145-1.406-0.259-1.969c2.471-0.062,4.857-0.188,7.158-0.375l0.259,1.875l-2.76,0.281v3.563h2.76v2.063h-2.76v2.813
	l0.689-0.75c0.287,0.313,0.747,0.813,1.38,1.5c0.574,0.626,1.006,1.125,1.294,1.5l-1.38,1.406c-0.288-0.375-0.689-0.905-1.207-1.594
	c-0.346-0.437-0.604-0.78-0.776-1.031v9.656h-1.897v-9.656c-0.576,1.875-1.41,3.72-2.501,5.531c-0.116-0.312-0.289-0.78-0.518-1.406
	c-0.173-0.375-0.289-0.656-0.346-0.844c1.322-1.937,2.415-4.313,3.277-7.125H484.231z M486.732,265.001
	c-0.115-0.062-0.258-0.218-0.431-0.469c-1.093-0.999-1.927-1.781-2.501-2.344l1.207-1.5c1.149,0.938,2.156,1.875,3.019,2.813
	L486.732,265.001z M484.577,236.623v-1.781h8.624c0.057-0.188,0.087-0.437,0.087-0.75c0.057-0.313,0.086-0.563,0.086-0.75h2.07
	c0,0.501-0.059,1-0.173,1.5h8.884v1.781h-8.366c0.978,2.188,3.938,3.437,8.884,3.75c-0.173,0.312-0.375,0.75-0.604,1.313
	c-0.173,0.312-0.288,0.563-0.345,0.75c-4.946-0.75-8.052-2.25-9.315-4.5c-1.035,2.187-4.198,3.812-9.487,4.875
	c-0.059-0.188-0.202-0.532-0.432-1.031c-0.23-0.501-0.402-0.876-0.518-1.125c5.175-0.563,8.107-1.906,8.798-4.031H484.577z
	 M503.379,207.688c-5.002-2-8.279-5.344-9.832-10.031h-3.882v7.875c1.954-0.938,3.68-1.719,5.176-2.344c0,0.813,0,1.594,0,2.344
	c-1.438,0.437-3.049,1.125-4.83,2.063c-0.69,0.249-1.324,0.563-1.897,0.938l-1.208-1.875c0.518-0.501,0.747-1.125,0.69-1.875v-7.125
	h-3.45v-2.063h3.45v-9.281h2.069v9.281H504.5v2.063h-8.884c1.495,3.876,4.514,6.563,9.057,8.063L503.379,207.688z M484.835,224.904
	v-1.688h5.521c-0.173-0.313-0.518-0.781-1.035-1.406c-0.461-0.563-0.776-0.969-0.948-1.219l1.983-0.563
	c0.057,0.126,0.201,0.281,0.432,0.469c0.862,1.063,1.437,1.813,1.725,2.25l-1.294,0.469h4.916c1.092-1.438,1.84-2.499,2.243-3.188
	l2.069,0.656c-0.172,0.25-0.489,0.688-0.948,1.313c-0.461,0.563-0.776,0.97-0.949,1.219h5.348v1.688h-8.538v2.063h7.503v1.781
	h-7.503v2.063h9.056v1.688h-20.183v-1.688h9.057v-2.063h-7.331v-1.781h7.331v-2.063H484.835z M488.026,268.095
	c-0.748,3.126-1.38,5.906-1.897,8.344l-1.811-0.656c0.804-3.188,1.408-5.968,1.811-8.344c0.229,0.126,0.747,0.313,1.553,0.563
	C487.048,267.813,487.164,267.846,488.026,268.095L488.026,268.095z M487.164,258.813c-0.92-1.062-1.812-1.999-2.674-2.813
	l1.294-1.406c0.919,0.813,1.84,1.72,2.76,2.719L487.164,258.813z M489.579,173.876c-1.841-0.188-2.876-1.282-3.104-3.281
	c0.172-2.124,1.207-3.281,3.104-3.469c1.954,0.188,3.019,1.345,3.191,3.469C492.598,172.595,491.533,173.689,489.579,173.876
	L489.579,173.876z M488.458,260.126v-1.969h3.363c-0.288-0.812-0.604-1.999-0.948-3.563l1.897-0.281
	c0.057,0.375,0.2,0.938,0.431,1.688c0.229,0.876,0.402,1.594,0.518,2.156h-0.086h2.156v1.969h-4.054l-0.086,3.375h3.881
	c0,0.876-0.029,2.188-0.086,3.938c-0.059,2.688-0.116,4.626-0.173,5.813c0,1.813-0.806,2.719-2.415,2.719
	c-0.518,0.062-1.064,0.094-1.639,0.094l-0.345-1.969c0.574,0,1.005,0,1.294,0c0.977,0.062,1.437-0.375,1.38-1.313
	c0-0.375,0.028-0.968,0.086-1.781c0.114-2.625,0.173-4.5,0.173-5.625h-2.243c0,0.188,0,0.345,0,0.469
	c-0.115,4.563-0.979,8.156-2.587,10.781l-1.467-1.406c1.437-1.999,2.213-5.156,2.329-9.469c0.114-1.624,0.173-3.499,0.173-5.625
	H488.458z M489.579,168.533c-1.093,0.126-1.696,0.813-1.812,2.063c0.115,1.063,0.719,1.655,1.812,1.781
	c1.149-0.126,1.781-0.718,1.897-1.781C491.36,169.346,490.729,168.659,489.579,168.533L489.579,168.533z M502.689,188.938
	c-3.105,1.875-6.585,3.625-10.437,5.25c-0.23-0.5-0.575-1.125-1.035-1.875c3.68-1.438,7.101-3.155,10.264-5.156L502.689,188.938
	L502.689,188.938z M497.514,310.53v-7.5h-2.932v1.125h-1.812v-11.438h4.743v-4.5h1.812v4.5h4.744v11.438h-1.897v-1.125h-2.847v7.5
	H497.514z M494.582,294.687v6.375h2.932v-6.375H494.582z M496.221,269.032v-1.875h3.536v-1.313l2.328-2.625h-4.829v-1.406
	l-0.604,0.938c-0.402-0.437-0.892-0.905-1.466-1.406c1.38-2.063,2.472-4.468,3.277-7.219l1.983,0.281
	c-0.345,1.001-0.689,1.969-1.034,2.906h5.434v1.875h-6.21c-0.346,0.75-0.748,1.5-1.208,2.25h6.728v1.969l-2.587,3v0.75h3.277v1.875
	h-3.277v4.594c0.056,1.688-0.748,2.531-2.415,2.531c-0.807,0.062-1.553,0.094-2.243,0.094c0-0.188-0.058-0.438-0.172-0.75
	c-0.059-0.563-0.116-0.97-0.173-1.219c0.69,0,1.351,0,1.983,0c0.863,0.062,1.265-0.313,1.208-1.125v-4.125H496.221z
	 M502.172,294.687h-2.847v6.375h2.847V294.687z M513.764,306.968l-1.984-3.469c-1.15,2.313-2.473,4.282-3.967,5.906
	c-0.059-0.063-0.145-0.188-0.259-0.375c-0.345-0.75-0.634-1.249-0.862-1.5c1.608-1.812,2.902-3.844,3.881-6.094l-3.45-5.906
	l1.467-1.031l2.846,4.594c0.632-1.875,1.035-4.031,1.208-6.469h-5.434v-2.063h7.417v2.063c-0.461,3.626-1.093,6.501-1.897,8.625
	l2.674,4.5L513.764,306.968z M506.95,259.282v-1.875h2.501c0.287-1.125,0.546-2.187,0.776-3.188l1.897,0.188
	c-0.059,0.375-0.202,1.001-0.432,1.875c-0.172,0.501-0.288,0.876-0.345,1.125h4.398v1.875h-4.916c-0.806,2.876-1.41,4.875-1.812,6
	h2.502v-4.594h1.639v4.594h2.328v1.875h-2.328v3l2.587-0.375c-0.058,0.75-0.086,1.406-0.086,1.969l-2.501,0.281v4.594h-1.897v-4.406
	c-1.553,0.188-2.991,0.375-4.313,0.563l-0.173-2.063c0.401,0,1.063-0.062,1.983-0.188c1.092-0.062,1.926-0.124,2.502-0.188v-3.188
	h-3.968v-1.875c0.057-0.188,0.143-0.469,0.259-0.844c0.459-1.5,0.919-3.218,1.38-5.156H506.95z M506.863,156.064v-1.781h9.487
	l-0.517-1.969l2.242-0.188l0.518,2.156h9.056v1.781H506.863z M506.95,223.498v-2.063h20.613v2.063H506.95z M507.295,188.844v-1.688
	h20.183v1.688h-9.833l-0.604,1.5h8.366v9.469h-10.178c-0.402,0.438-0.834,0.906-1.294,1.406h11.299V203
	c-1.38,1.125-2.875,2.063-4.484,2.813c1.897,0.312,4.168,0.563,6.813,0.75c-0.288,0.687-0.518,1.313-0.69,1.875
	c-4.025-0.501-6.957-1.095-8.797-1.781c-2.358,0.874-5.578,1.594-9.66,2.156c-0.116-0.313-0.316-0.75-0.604-1.313
	c-0.059-0.251-0.116-0.407-0.173-0.469c2.588-0.313,5.231-0.72,7.936-1.219c-1.035-0.5-2.329-1.313-3.882-2.438
	c-1.035,0.813-2.214,1.594-3.536,2.344c-0.173-0.188-0.432-0.53-0.776-1.031c-0.172-0.249-0.288-0.406-0.345-0.469
	c2.242-1.063,4.227-2.531,5.951-4.406h-3.45v-9.469h5.434l0.432-1.5H507.295z M507.984,174.439v-10.594h18.631v7.781
	c0.057,1.749-0.776,2.656-2.502,2.719c-0.979,0-1.983,0-3.019,0c-0.058-0.188-0.145-0.532-0.259-1.031
	c-0.058-0.375-0.116-0.656-0.173-0.844c0.863,0,1.667,0,2.415,0c1.092,0.062,1.609-0.344,1.553-1.219v-5.719h-14.749v8.906H507.984z
	 M508.157,242.623v-16.875h7.935v13.781c0.057,1.875-0.775,2.78-2.501,2.719c-0.689,0.062-1.409,0.094-2.156,0.094
	c0-0.188-0.058-0.532-0.172-1.031c-0.059-0.438-0.116-0.782-0.173-1.031c0.114,0,0.373,0,0.776,0
	c0.574,0.062,0.977,0.094,1.207,0.094c0.862,0,1.265-0.375,1.208-1.125v-11.531h-4.313v14.906H508.157z M512.47,236.154
	c-0.748-1.875-1.524-3.624-2.329-5.25l1.381-0.656c0.056,0.063,0.114,0.156,0.172,0.281c0.978,1.938,1.754,3.563,2.329,4.875
	L512.47,236.154z M510.228,162.345v-4.781h14.145v4.781H510.228z M511.521,191.75v1.406h11.902v-1.406H511.521z M511.521,194.375
	v1.406h11.902v-1.406H511.521z M511.521,196.906v1.5h11.902v-1.5H511.521z M512.125,159.064v1.781h10.264v-1.781H512.125z
	 M512.556,171.908v-4.781h9.488v4.781H512.556z M520.836,301.812c-0.634,3.375-2.76,6.313-6.383,8.813
	c-0.461-0.563-0.948-1.188-1.466-1.875c3.909-2.25,6.065-5.374,6.469-9.375c0.173-1.313,0.259-2.78,0.259-4.406h1.983
	c0,0.313-0.029,0.782-0.086,1.406c0,0.626,0,1.063,0,1.313c0.747,4.875,2.816,8.407,6.21,10.594
	c-0.116,0.249-0.345,0.594-0.69,1.031c-0.288,0.437-0.517,0.75-0.689,0.938C523.51,308.061,521.641,305.25,520.836,301.812
	L520.836,301.812z M518.076,205.063c1.609-0.688,3.104-1.438,4.484-2.25h-8.797C515.027,203.75,516.466,204.5,518.076,205.063
	L518.076,205.063z M514.367,168.533v2.063h5.779v-2.063H514.367z M527.908,261.626c-0.23,0.375-0.575,1.063-1.035,2.063
	c-2.357-1.812-4.169-3.968-5.434-6.469c-1.38,2.376-3.277,4.563-5.692,6.563c-0.116-0.249-0.374-0.718-0.776-1.406
	c-0.172-0.188-0.288-0.343-0.345-0.469c2.875-2.124,4.916-4.718,6.124-7.781l2.069,0.281l-0.431,0.938
	C523.769,258.096,525.608,260.189,527.908,261.626L527.908,261.626z M525.666,297.874c-0.345-0.124-0.862-0.312-1.553-0.563
	c-0.172-0.062-0.288-0.094-0.345-0.094l1.553-3.75h-7.073c-0.23,0.75-0.633,1.813-1.207,3.188c-0.288,0.688-0.489,1.219-0.604,1.594
	c-0.69-0.499-1.294-0.874-1.812-1.125c1.265-2.687,2.299-5.655,3.105-8.906l1.983,0.375c-0.23,1.001-0.518,1.969-0.862,2.906h8.452
	v2.063L525.666,297.874z M520.232,275.97c-2.014,0-3.019-1.063-3.019-3.188v-9.563h1.897v4.125c1.839-1.062,3.593-2.344,5.261-3.844
	l1.208,1.688c-2.128,1.688-4.284,3.157-6.469,4.406v2.719c-0.059,1.125,0.518,1.655,1.725,1.594h1.983
	c1.15,0,1.782-0.53,1.897-1.594c0.173-0.999,0.287-2.063,0.346-3.188c0.689,0.251,1.322,0.469,1.897,0.656
	c-0.173,1.563-0.375,2.782-0.604,3.656c-0.23,1.688-1.324,2.531-3.278,2.531H520.232z M518.248,242.623v-16.875h8.194v13.969
	c0.057,1.749-0.748,2.593-2.415,2.531c-0.461,0.062-1.237,0.094-2.329,0.094c0-0.188-0.058-0.469-0.172-0.844
	c-0.059-0.501-0.116-0.876-0.173-1.125c0.46,0.062,1.149,0.094,2.07,0.094c0.862,0,1.264-0.345,1.207-1.031v-11.719h-4.571v14.906
	H518.248z M522.819,236.061c-0.633-1.625-1.438-3.437-2.415-5.438l1.467-0.656c0.805,1.626,1.609,3.375,2.415,5.25L522.819,236.061z
	 M530.013,157.845v-1.875h2.76c0-0.062,0.028-0.188,0.087-0.375c0.172-1.374,0.287-2.468,0.345-3.281l1.897,0.188
	c-0.173,1.188-0.345,2.344-0.518,3.469h3.45v1.875h-3.881c-0.634,3.188-1.87,6.469-3.709,9.844
	c-0.173-0.563-0.432-1.343-0.776-2.344c1.207-2.25,2.099-4.749,2.674-7.5H530.013z M536.396,302.749
	c-1.726,2.625-3.394,4.845-5.003,6.656c-0.23-0.25-0.72-0.688-1.466-1.313c-0.058-0.063-0.116-0.126-0.173-0.188
	c1.495-1.5,3.134-3.593,4.916-6.281L536.396,302.749L536.396,302.749z M531.565,189.781v-2.063h17.25v2.063h-7.763
	c-0.115,1.813-0.259,3.469-0.431,4.969h9.746v2.063H540.19c-0.862,5.001-3.825,8.938-8.884,11.813l-1.466-1.781
	c4.714-2.687,7.445-6.031,8.193-10.031h-8.021v-2.063h8.453c0.172-1.5,0.315-3.155,0.431-4.969H531.565z M529.927,275.313v-2.063
	h8.107v-18.75h2.242v6.75h8.539v2.25h-8.539v9.75h10.178v2.063H529.927z M532.772,172.376c-0.575,0.125-1.121,0.218-1.639,0.281
	l-0.689-1.406c0.518-0.437,0.919-1.031,1.207-1.781c1.092-2.375,2.127-5.25,3.105-8.625l1.725,0.563
	c-1.323,3.876-2.501,7-3.536,9.375c0.46-0.062,1.208-0.125,2.242-0.188c0.518-0.062,0.892-0.094,1.122-0.094
	c-0.346-1.187-0.72-2.438-1.122-3.75l1.467-0.469c0.287,0.876,0.66,2.032,1.121,3.469c0.401,1.375,0.746,2.438,1.035,3.188
	l-1.553,0.563l-0.432-1.594c-0.461,0.062-1.121,0.155-1.983,0.281C533.98,172.25,533.29,172.313,532.772,172.376L532.772,172.376z
	 M530.53,242.342v-18.375h2.329c0.057-0.249,0.143-0.594,0.259-1.031c0.229-0.688,0.431-1.594,0.604-2.719l2.156,0.375
	c-0.288,1.125-0.604,2.25-0.949,3.375h3.882v18.188h-1.897v-1.781h-4.399v1.969H530.53z M531.221,300.312l1.121-10.313
	c4.714,0,9.976-0.281,15.783-0.844l0.604,2.063c-5.809,0.501-10.639,0.782-14.49,0.844l-0.776,6.281h5.951v-4.781h2.156v4.781h7.936
	v1.969h-7.936v6.75c0.114,2.124-0.834,3.188-2.846,3.188c-0.576,0.062-1.553,0.094-2.933,0.094c-0.173-0.938-0.317-1.72-0.432-2.344
	c0.747,0.062,1.639,0.094,2.674,0.094c0.977,0.062,1.437-0.437,1.38-1.5v-6.281H531.221z M532.514,226.029v5.156h4.399v-5.156
	H532.514z M532.514,233.248v5.344h4.399v-5.344H532.514z M539.241,174.626v-14.063c-0.46,0.813-0.948,1.594-1.466,2.344
	c-0.173-0.687-0.461-1.406-0.862-2.156c1.781-2.312,3.104-5.156,3.968-8.531l1.897,0.375c-0.403,1.313-0.835,2.531-1.294,3.656
	h3.881c-0.461-1.187-0.948-2.312-1.466-3.375l1.725-0.469c0.229,0.501,0.518,1.157,0.862,1.969c0.287,0.563,0.488,1,0.604,1.313
	l-1.64,0.563h4.83v1.781h-3.967v3.188h3.622v1.781h-3.622v3.281h3.622v1.688h-3.622v3.375h4.14v1.594h-9.401v1.688H539.241z
	 M545.797,242.154c-1.151,0-2.358,0-3.623,0c-0.058-0.688-0.202-1.438-0.431-2.25c0.746,0.062,1.867,0.094,3.363,0.094
	c1.609,0.124,2.415-0.656,2.415-2.344c0.114-1.374,0.201-4.313,0.259-8.813c0.057-1.313,0.086-2.25,0.086-2.813h-5.175
	c-0.23,0.563-0.604,1.375-1.121,2.438c-0.23,0.501-0.402,0.876-0.518,1.125c-0.518-0.375-1.093-0.75-1.725-1.125
	c1.38-2.687,2.443-5.438,3.191-8.25l1.983,0.469c-0.116,0.375-0.288,0.906-0.518,1.594c-0.23,0.75-0.403,1.313-0.518,1.688h6.383
	c0,4-0.116,8.688-0.345,14.063C549.506,240.716,548.269,242.091,545.797,242.154L545.797,242.154z M543.554,207.875
	c-2.186,0.062-3.249-1.031-3.19-3.281v-7.5h2.069v7.031c-0.115,1.251,0.488,1.843,1.812,1.781h2.07c1.207,0,1.839-0.563,1.897-1.688
	c0.057-0.375,0.114-0.999,0.172-1.875c0.057-0.437,0.087-0.75,0.087-0.938c0.172,0.063,0.431,0.156,0.776,0.281
	c0.286,0.126,0.718,0.281,1.293,0.469c-0.172,1.5-0.316,2.594-0.431,3.281c-0.289,1.688-1.41,2.499-3.364,2.438H543.554z
	 M544.158,235.686c-0.289-0.437-0.72-1.093-1.294-1.969c-0.806-1.313-1.438-2.312-1.897-3l1.553-1.125
	c0.401,0.625,1.005,1.5,1.811,2.625c0.69,0.938,1.208,1.688,1.553,2.25L544.158,235.686z M541.053,158.033v3.188h3.536v-3.188
	H541.053z M541.053,163.001v3.281h3.536v-3.281H541.053z M541.053,167.97v3.375h3.536v-3.375H541.053z M548.815,309.312
	c-1.897-2.499-3.565-4.655-5.003-6.469l1.639-1.219c0.402,0.501,0.978,1.251,1.726,2.25c1.609,1.938,2.76,3.313,3.45,4.125
	L548.815,309.312z M573.249,198.406c-0.116,0.25-0.259,0.719-0.432,1.406c-4.083-0.75-7.245-1.781-9.487-3.094
	c-2.301,1.375-5.636,2.594-10.005,3.656c-0.058-0.313-0.23-0.812-0.518-1.5c-0.116-0.313-0.202-0.563-0.259-0.75
	c3.45-0.624,6.411-1.5,8.884-2.625c-1.38-1.063-2.617-2.344-3.709-3.844c-0.979,1.125-2.07,2.188-3.277,3.188
	c-0.173-0.188-0.403-0.5-0.69-0.938c-0.172-0.375-0.316-0.624-0.431-0.75c2.644-2.063,4.657-4.406,6.037-7.031l2.156,0.469
	c-0.402,0.563-0.776,1.125-1.121,1.688h10.264v1.969c-1.553,2.125-3.307,3.876-5.261,5.25c2.126,1.063,4.83,1.75,8.107,2.063
	C573.449,197.75,573.363,198.031,573.249,198.406L573.249,198.406z M554.188,269.595c-0.345,0-0.604,0.032-0.776,0.094l-0.518-1.781
	c0.345-0.312,0.776-0.844,1.294-1.594c0.345-0.437,0.862-1.28,1.553-2.531c0.172-0.312,0.287-0.53,0.345-0.656
	c-1.093,0-2.128,0.063-3.104,0.188l-0.432-1.875c0.345-0.375,0.66-0.874,0.948-1.5c0.863-1.624,1.726-3.499,2.588-5.625l1.897,0.75
	c-1.093,2.25-2.186,4.345-3.277,6.281l2.415-0.094l1.207-2.438l1.726,0.844c-1.61,3-3.135,5.657-4.571,7.969
	c1.38-0.124,2.587-0.249,3.622-0.375c0,0.251-0.029,0.595-0.086,1.031c0,0.375,0,0.656,0,0.844c-1.955,0.126-3.336,0.251-4.14,0.375
	C554.705,269.501,554.475,269.533,554.188,269.595L554.188,269.595z M559.19,273.813c-2.301,0.188-4.429,0.5-6.383,0.938
	l-0.259-1.875l6.728-1.031C559.219,272.346,559.19,273.002,559.19,273.813L559.19,273.813z M555.826,231.186
	c-1.035-0.999-2.1-1.969-3.191-2.906l1.208-1.594c1.207,0.938,2.328,1.875,3.363,2.813L555.826,231.186z M552.894,157.47v-2.063
	h9.487c-0.115-0.249-0.288-0.656-0.518-1.219c-0.288-0.75-0.517-1.28-0.689-1.594l2.242-0.469c0.46,1,0.891,2.063,1.294,3.188
	l-0.259,0.094h8.798v2.063h-9.143v3.281h7.676v8.156c0.057,2.063-0.892,3.062-2.846,3c-0.23,0-0.634,0-1.208,0
	c-0.689,0.062-1.207,0.094-1.553,0.094c-0.115-0.624-0.258-1.313-0.431-2.063c0.862,0.063,1.695,0.094,2.501,0.094
	c1.035,0.063,1.523-0.5,1.467-1.688v-5.531h-5.606v11.813h-2.07v-11.813h-5.52v9.469h-2.07v-11.531h7.59v-3.281H552.894z
	 M556.947,234.373c-0.806,3.063-1.466,5.78-1.983,8.156l-1.983-0.656c0.632-2.312,1.321-5.063,2.069-8.25
	c0.287,0.063,0.719,0.25,1.294,0.563C556.631,234.248,556.832,234.312,556.947,234.373L556.947,234.373z M556.43,224.998
	c-0.288-0.249-0.72-0.656-1.293-1.219c-0.807-0.812-1.438-1.406-1.898-1.781l1.208-1.5c0.978,0.75,2.099,1.72,3.363,2.906
	L556.43,224.998z M568.937,208.625c-4.429-1.001-9.028-1.907-13.8-2.719l0.775-2.063c0.287,0.063,0.747,0.156,1.381,0.281
	c5.347,1.063,9.457,1.812,12.333,2.25L568.937,208.625z M558.759,306.499c0,2.188-0.748,3.812-2.242,4.875l-0.776-0.844
	c1.035-0.813,1.58-2.031,1.639-3.656h-1.467v-3.094h2.847C558.759,304.281,558.759,305.187,558.759,306.499L558.759,306.499z
	 M559.707,226.686c-0.23,0.313-0.633,0.782-1.207,1.406c-0.058-0.062-0.116-0.125-0.173-0.188c-0.402-0.624-0.776-1.093-1.121-1.406
	c1.84-1.813,3.248-3.969,4.227-6.469l2.07,0.281c-0.289,0.688-0.604,1.313-0.949,1.875h10.522v1.781h-11.471
	c-0.403,0.75-0.863,1.438-1.381,2.063h11.472c-0.058,0.438-0.086,1.375-0.086,2.813c-0.059,1.188-0.087,2.125-0.087,2.813h1.984
	v1.781h-1.984c0,0.501-0.029,1.219-0.086,2.156c0,0.813,0,1.406,0,1.781h1.553v1.781h-1.639c-0.116,2.25-1.266,3.343-3.45,3.281
	c-0.921,0-1.956,0-3.105,0c-0.058-0.188-0.144-0.469-0.259-0.844c-0.115-0.438-0.202-0.75-0.259-0.938c1.035,0,2.041,0,3.02,0
	c1.38,0.062,2.098-0.438,2.156-1.5h-10.781l0.604-5.719h-1.897v-1.781h2.07l0.517-5.344
	C559.908,226.373,559.822,226.498,559.707,226.686L559.707,226.686z M567.557,203.281c-2.761-0.75-5.981-1.438-9.66-2.063
	l0.689-1.969c2.816,0.501,6.038,1.157,9.66,1.969L567.557,203.281z M563.416,194.375c1.782-1.125,3.306-2.499,4.571-4.125h-8.884
	C560.368,191.938,561.806,193.313,563.416,194.375L563.416,194.375z M560.225,275.782v-20.625h1.812v18.75h11.299v1.875H560.225z
	 M569.54,237.373c0.057-0.75,0.086-2.063,0.086-3.938h-8.538l-0.346,3.938H569.54z M561.777,227.717l-0.431,3.938h8.366
	c0-1.562,0-2.874,0-3.938H561.777z M562.898,264.063v-1.875h3.968v-7.875h1.812v7.875h4.226v1.875h-4.226v2.063l0.689-0.656
	c0.574,0.563,1.351,1.406,2.329,2.531c0.518,0.563,0.919,1.001,1.207,1.313l-1.293,1.313c-0.576-0.687-1.323-1.562-2.243-2.625
	c0.229,0.251,0-0.03-0.689-0.844v6.094h-1.812v-6.656c-0.806,1.751-1.927,3.407-3.363,4.969c-0.116-0.375-0.346-0.905-0.69-1.594
	c-0.116-0.249-0.202-0.437-0.259-0.563c1.553-1.374,2.903-3.155,4.054-5.344H562.898z M564.537,260.97
	c-0.345-1.125-0.862-2.531-1.552-4.219l1.466-0.563c0.401,0.876,0.949,2.282,1.639,4.219L564.537,260.97z M566.09,237.186
	c-0.288-0.249-0.689-0.624-1.207-1.125c-0.576-0.437-1.007-0.781-1.294-1.031l0.948-1.125c0.69,0.501,1.553,1.188,2.588,2.063
	L566.09,237.186z M566.263,231.373c-0.345-0.375-0.893-0.844-1.639-1.406c-0.346-0.313-0.634-0.563-0.862-0.75l1.034-1.125
	c0.518,0.375,1.265,0.938,2.243,1.688c-0.116-0.125,0-0.031,0.345,0.281L566.263,231.373z M572.731,256.657
	c-0.518,1.313-1.151,2.751-1.897,4.313l-1.467-0.656c0.115-0.188,0.259-0.53,0.432-1.031c0.689-1.437,1.178-2.499,1.466-3.188
	L572.731,256.657L572.731,256.657z M578.372,231.373c-0.289-0.313-0.69-0.812-1.208-1.5c-0.748-0.875-1.323-1.562-1.725-2.063
	l1.553-1.125c1.035,1.063,2.069,2.219,3.104,3.469L578.372,231.373z M579.062,263.22c-1.093,0.063-2.128,0.157-3.104,0.281
	l-0.518-1.969c0.287-0.249,0.632-0.75,1.035-1.5c0.919-1.437,1.867-3.405,2.846-5.906l1.897,0.563
	c-1.207,2.625-2.387,4.875-3.536,6.75l2.329-0.094c0.459-0.874,0.891-1.718,1.294-2.531l1.639,0.75
	c-1.61,3.063-3.105,5.751-4.485,8.063c0.518-0.062,1.38-0.124,2.588-0.188c-0.289,0,0.028-0.03,0.948-0.094c0,0.188,0,0.469,0,0.844
	c-0.058,0.438-0.086,0.75-0.086,0.938c-0.862,0.126-1.928,0.22-3.191,0.281c-0.345,0.063-0.604,0.094-0.776,0.094
	c-0.575,0.063-1.093,0.157-1.553,0.281l-0.604-1.781c0.518-0.375,0.978-0.905,1.38-1.594c0.229-0.375,0.574-0.938,1.035-1.688
	C578.544,264.033,578.831,263.533,579.062,263.22L579.062,263.22z M582.081,273.907c-2.07,0.188-4.17,0.5-6.297,0.938l-0.345-1.969
	c1.667-0.188,3.881-0.499,6.642-0.938C582.081,272.564,582.081,273.221,582.081,273.907L582.081,273.907z M584.927,305.655v-9.188
	l-4.657,1.219v7.875c-0.059,1.626,0.689,2.405,2.242,2.344h9.057c1.494,0,2.299-0.563,2.415-1.688
	c0.172-0.999,0.315-2.063,0.431-3.188c0.346,0.126,0.833,0.281,1.467,0.469c0.287,0.063,0.487,0.126,0.604,0.188
	c-0.173,1.313-0.375,2.531-0.604,3.656c-0.23,1.688-1.524,2.499-3.882,2.438h-10.177c-2.415,0.062-3.595-1.125-3.537-3.563v-7.969
	l-2.587,0.656l-0.259-2.063l2.846-0.75v-5.25h1.984v4.781l4.657-1.219v-6.188h2.07v5.625l7.417-1.875
	c-0.058,1.251-0.144,3.032-0.259,5.344c-0.058,1.125-0.086,1.938-0.086,2.438c-0.058,2.501-1.093,3.72-3.104,3.656
	c-0.518,0.063-1.324,0.094-2.415,0.094c-0.059-0.437-0.173-1.031-0.346-1.781c-0.058-0.188-0.086-0.312-0.086-0.375
	c0.574,0,1.322,0,2.242,0c1.208,0.126,1.782-0.499,1.726-1.875c0.057-0.563,0.114-1.53,0.172-2.906
	c0.057-0.938,0.087-1.624,0.087-2.063l-5.348,1.406v9.75H584.927z M575.698,155.314v-1.875h20.441v1.875h-9.487l-0.949,2.906h9.315
	v16.406h-1.897v-1.5h-14.404v1.406h-1.983V158.22h6.813l0.776-2.906H575.698z M578.976,237.186
	c-0.461,2.438-0.806,4.219-1.035,5.344l-2.069-0.656c0.689-2.563,1.321-5.438,1.897-8.625c0.286,0.126,0.718,0.281,1.293,0.469
	c0.287,0.063,0.488,0.126,0.604,0.188C579.55,234.529,579.32,235.624,578.976,237.186L578.976,237.186z M578.976,225.279
	c-0.921-1.25-1.869-2.438-2.847-3.563l1.64-1.125c0.229,0.25,0.546,0.625,0.948,1.125c0.862,0.938,1.523,1.72,1.983,2.344
	L578.976,225.279z M581.649,204.5c0,2.187-0.748,3.812-2.242,4.875l-0.776-0.844c1.035-0.813,1.58-2.032,1.639-3.656h-1.467v-3.094
	h2.847C581.649,202.282,581.649,203.188,581.649,204.5L581.649,204.5z M578.717,160.095v11.344h3.105v-11.344H578.717z
	 M581.391,224.529v-1.781h2.76v-2.531h1.812v2.531h4.14v-2.531h1.897v2.531h3.278v1.781h-3.278v2.813h4.054v1.781h-4.398
	c1.149,1.938,2.73,3.438,4.744,4.5c-0.059,0.126-0.145,0.313-0.259,0.563c-0.173,0.25-0.403,0.688-0.69,1.313
	c-1.38-0.938-2.501-1.906-3.363-2.906v4.969h-7.504v1.219c-0.059,1,0.401,1.468,1.38,1.406h5.52c0.978,0,1.581-0.375,1.812-1.125
	c0.173-0.5,0.287-1.25,0.345-2.25c0.173,0.063,0.402,0.156,0.69,0.281c0.46,0.126,0.805,0.22,1.035,0.281
	c-0.116,0.938-0.289,1.781-0.518,2.531c-0.288,1.437-1.294,2.124-3.019,2.063h-6.556c-1.668,0-2.501-0.876-2.501-2.625v-5.25
	c-0.689,0.688-1.438,1.313-2.242,1.875c-0.23-0.624-0.518-1.25-0.862-1.875c2.069-1.313,3.679-2.968,4.83-4.969h-4.055v-1.781h3.709
	v-2.813H581.391z M582.685,270.907v-1.781h6.296c0.229-0.999,0.345-2.968,0.345-5.906h1.984c-0.116,2.876-0.23,4.845-0.345,5.906
	h5.261v1.781h-5.606l-0.259,0.563c0.632,0.313,1.523,0.813,2.674,1.5c1.322,0.75,2.357,1.313,3.105,1.688l-1.121,1.781
	c-2.128-1.438-3.997-2.531-5.606-3.281c-1.035,1.187-3.249,2.375-6.642,3.563c-0.23-0.563-0.575-1.219-1.035-1.969
	c3.91-0.938,6.181-2.218,6.814-3.844H582.685z M586.307,268.47c-0.23-0.124-0.518-0.281-0.862-0.469
	c-0.575-0.375-1.466-0.844-2.674-1.406l0.69-1.219c0.574,0.251,1.38,0.656,2.415,1.219c0.459,0.251,0.833,0.438,1.121,0.563
	L586.307,268.47z M583.633,258.345v-1.781h4.83v-2.344h1.984v2.344h4.916v1.781h-4.916v2.156h5.605v1.781l-0.604,3.188
	c-0.575-0.188-1.179-0.281-1.812-0.281l0.604-2.906h-11.386v-1.781h5.606v-2.156H583.633z M583.72,160.095v2.719h4.398v-2.719
	H583.72z M583.72,164.408v2.719h4.398v-2.719H583.72z M583.72,168.814v2.625h4.398v-2.625H583.72z M587.687,265.845
	c-1.265-0.75-2.415-1.343-3.449-1.781l0.604-1.219c1.149,0.501,2.299,1.063,3.45,1.688L587.687,265.845z M584.582,233.436v2.531
	h5.692v-2.531H584.582z M586.479,229.123c-0.518,0.938-1.093,1.813-1.726,2.625h6.642c-0.575-0.812-1.121-1.688-1.639-2.625H586.479
	z M585.962,224.529v2.813h4.14v-2.813H585.962z M593.121,160.095h-3.191v11.344h3.191V160.095z"/>
<path fill="#FFFFFF" d="M37.013,15.57c-0.945,1.406-2.035,2.695-3.27,3.867c-0.218-0.234-0.545-0.546-0.98-0.938
	c-0.365-0.39-0.618-0.663-0.763-0.82c2.106-1.796,3.741-4.022,4.904-6.68l2.507,0.234c-0.292,0.782-0.654,1.523-1.09,2.227h7.193
	v2.109h-5.013c0.654,0.782,1.308,1.603,1.961,2.461l-2.18,0.82c-0.291-0.469-0.8-1.172-1.525-2.109
	c-0.365-0.469-0.618-0.82-0.763-1.055l0.109-0.117H37.013L37.013,15.57z M46.495,26.352v2.578h10.79
	c0,1.875-0.073,3.438-0.218,4.688c-0.073,2.344-1.381,3.516-3.923,3.516c-1.308,0-2.544,0-3.706,0c0-0.079,0-0.196,0-0.352
	c-0.073-0.469-0.218-1.093-0.436-1.875c1.09,0.079,2.325,0.117,3.706,0.117c1.162,0.079,1.815-0.469,1.962-1.641
	c0-0.155,0-0.469,0-0.938c0.071-0.624,0.109-1.055,0.109-1.289h-8.283v8.203h-2.507v-7.266c-2.397,2.892-5.958,5.116-10.68,6.68
	c-0.146-0.234-0.4-0.665-0.763-1.289c-0.218-0.469-0.4-0.82-0.545-1.055c4.504-1.172,7.81-2.93,9.917-5.273h-8.064l1.09-7.031h9.045
	V21.43h-9.373v-2.227h21.361v7.148H46.495z M37.123,26.352l-0.436,2.578h7.302v-2.578H37.123z M48.893,15.57
	c-0.727,1.017-1.526,2.071-2.397,3.164c-0.509-0.546-1.127-1.055-1.853-1.523c1.671-1.875,2.943-3.944,3.814-6.211l2.616,0.234
	c-0.291,0.782-0.618,1.523-0.981,2.227h8.065v2.109h-5.667l2.071,2.461l-2.071,0.82c-0.073-0.077-0.218-0.234-0.436-0.469
	c-0.945-1.172-1.635-2.069-2.071-2.695l0.218-0.117H48.893L48.893,15.57z M53.579,21.43h-7.084v2.695h7.084V21.43z M61.842,36.078
	v-2.695h25.394v2.695H61.842z M63.804,17.797v-2.93h21.47v2.93H63.804z M92.437,15.57v-2.578h22.777v2.578h-10.026
	c0,1.641-0.073,3.867-0.218,6.68h11.771v2.695h-11.226c1.234,5.625,5.049,9.298,11.443,11.016c-0.073,0.155-0.218,0.39-0.437,0.703
	c-0.364,0.703-0.727,1.406-1.09,2.109c-6.467-2.267-10.354-6.015-11.661-11.25c-1.09,4.845-4.833,8.71-11.225,11.602
	c-0.146-0.234-0.436-0.665-0.872-1.289c-0.364-0.548-0.654-0.978-0.872-1.289c6.757-2.655,10.462-6.522,11.116-11.602H90.911V22.25
	h11.334c0.071-0.703,0.108-1.835,0.108-3.398c0.072-1.406,0.109-2.499,0.109-3.281H92.437z"/>
<path fill="#FFFFFF" d="M142.065,36.547h-1.744c0.727-4.739,2.543-9.401,5.449-13.984h-7.483V21h9.445v1.094
	C144.583,26.781,142.694,31.599,142.065,36.547L142.065,36.547z M153.474,32.016h9.082v2.422c0.048,1.042-0.461,1.536-1.525,1.484
	c-1.163,0-2.083-0.026-2.761-0.078c0.145,0.729,0.29,1.38,0.436,1.953c1.259,0,2.203-0.026,2.834-0.078
	c1.889,0,2.809-0.99,2.761-2.969V20.297h-12.279v6.719c0,2.708-0.17,4.714-0.509,6.016s-1.042,2.526-2.106,3.672
	c0.678,0.625,1.187,1.119,1.525,1.484C152.384,36.208,153.231,34.151,153.474,32.016L153.474,32.016z M153.765,27.016h8.791v3.359
	h-8.937c0.097-0.938,0.146-2.005,0.146-3.203V27.016z M162.556,22.016v3.281h-8.791v-3.281H162.556z M177.527,32.25
	c-0.146,2.864-1.743,4.375-4.795,4.531c-2.714,0-4.359-1.38-4.94-4.141l1.671-0.469c0.29,2.136,1.331,3.203,3.124,3.203
	c2.18,0,3.27-1.094,3.27-3.281c-0.146-1.875-1.26-2.864-3.342-2.969c-0.68,0-1.115,0-1.309,0v-1.406c0.193,0,0.437,0,0.727,0
	c2.082-0.052,3.172-1.042,3.27-2.969c-0.098-1.667-0.92-2.526-2.47-2.578c-1.647,0.052-2.641,1.042-2.979,2.969l-1.598-0.547
	c0.581-2.552,2.082-3.854,4.504-3.906c2.762,0.104,4.189,1.458,4.287,4.063c-0.049,1.719-0.872,2.891-2.471,3.516
	C176.413,28.891,177.429,30.219,177.527,32.25L177.527,32.25z M184.422,23.969c-1.066,1.042-2.351,1.875-3.852,2.5v-1.641
	c2.228-1.094,3.657-2.474,4.287-4.141h1.09v15.859h-1.525V23.969z M194.162,37.953v-1.328h9.591v1.328h1.743V20.609h-13.15v17.344
	H194.162z M203.752,22.328v5.391h-9.591v-5.391H203.752z M203.752,29.438v5.547h-9.591v-5.547H203.752z"/>
</svg>
