<svg xmlns="http://www.w3.org/2000/svg" width="640" height="750" viewBox="0 0 640 750"><path fill="#fff" d="M82.019 538.487l1.694-1.061c.74 1.182 1.502 2.371 2.288 3.573l-1.675 1.094c-.793-1.212-1.561-2.414-2.307-3.606m-6.127-10.458l1.758-.954c1.235 2.272 2.559 4.587 3.971 6.941l-1.715 1.029c-1.408-2.347-2.758-4.707-4.014-7.016m-5.415-10.871l1.823-.823c1.061 2.354 2.219 4.755 3.479 7.202l-1.779.917c-1.256-2.445-2.442-4.9-3.523-7.296m-4.512-11.312l1.892-.652c.839 2.436 1.787 4.928 2.852 7.476l-1.846.771c-1.063-2.549-2.038-5.103-2.898-7.595m-3.35-11.75l1.952-.436c.561 2.513 1.242 5.09 2.052 7.733l-1.913.588c-.812-2.65-1.514-5.302-2.091-7.885m-1.859-12.125l1.994-.162c.206 2.563.546 5.206 1.031 7.931l-1.969.351c-.487-2.735-.841-5.468-1.056-8.12m.007-12.317l1.992.171c-.219 2.566-.3 5.231-.221 7.991l-2 .057c-.078-2.775-.001-5.54.229-8.219m2.185-12.162l1.925.539c-.698 2.494-1.256 5.1-1.656 7.821l-1.979-.292c.402-2.733.976-5.448 1.71-8.068m4.469-11.531l1.786.899c-1.171 2.327-2.223 4.777-3.129 7.356l-1.887-.66c.905-2.583 1.992-5.137 3.23-7.595m6.558-10.465l1.591 1.21c-1.581 2.079-3.077 4.29-4.452 6.642l-1.727-1.01c1.367-2.336 2.911-4.638 4.588-6.842m8.239-9.148l1.375 1.454c-1.885 1.786-3.737 3.713-5.512 5.792l-1.521-1.3c1.744-2.042 3.648-4.042 5.658-5.946m9.498-7.773l1.156 1.631c-2.079 1.478-4.2 3.112-6.306 4.919l-1.302-1.519c2.034-1.744 4.204-3.435 6.452-5.031m10.421-6.433l.942 1.765c-2.127 1.136-4.457 2.483-6.894 4.057l-1.085-1.68c2.269-1.468 4.637-2.861 7.037-4.142m11.255-5.046l.623 1.902c-.01.002-2.925.963-7.367 3.098l-.867-1.802c4.506-2.167 7.473-3.152 7.6-3.194l.011-.004"/></svg>