<?xml version="1.0" encoding="utf-8"?>
<!-- Generator: Adobe Illustrator 16.0.0, SVG Export Plug-In . SVG Version: 6.00 Build 0)  -->
<!DOCTYPE svg PUBLIC "-//W3C//DTD SVG 1.1//EN" "http://www.w3.org/Graphics/SVG/1.1/DTD/svg11.dtd">
<svg version="1.1" id="图层_1" xmlns="http://www.w3.org/2000/svg" xmlns:xlink="http://www.w3.org/1999/xlink" x="0px" y="0px"
	 width="640px" height="80px" viewBox="0 0 640 80" enable-background="new 0 0 640 80" xml:space="preserve">
<path fill="#F0ED97" d="M54.119,71.501V57.75c-0.233,0.085-0.582,0.21-1.046,0.376c-0.93,0.334-1.627,0.625-2.093,0.874
	c-0.232-0.831-0.621-1.665-1.162-2.5c4.572-1.25,8.253-3.04,11.043-5.374h-10.23v-2.25h11.974v-3.125
	c-1.24,0.083-2.597,0.125-4.068,0.125c-1.319,0-3.139,0-5.464,0c-0.078-0.916-0.194-1.666-0.349-2.251
	c5.656,0,12.942-0.249,21.855-0.749l0.349,2.25c-1.938,0.168-5.193,0.334-9.765,0.5v3.25h11.974v2.25h-10.23
	c2.401,2.168,6.045,3.834,10.928,5c-0.465,0.918-0.854,1.75-1.163,2.5c-5.348-1.667-9.184-3.791-11.509-6.376v4.376h-2.558V52.25
	c-2.17,2.251-4.922,4.044-8.253,5.376h19.181v13.875h-2.558v-1.25H56.676v1.25H54.119z M56.676,59.876v3.125h14.299v-3.125H56.676z
	 M56.676,65.001v3h14.299v-3H56.676z M84.894,56.626c-0.389-0.416-0.93-1.083-1.627-2.001c-1.008-1.165-1.784-2.082-2.325-2.749
	l2.093-1.5c1.395,1.418,2.79,2.958,4.185,4.625L84.894,56.626z M85.708,64.376c-0.622,3.25-1.086,5.625-1.395,7.125l-2.79-0.875
	c0.93-3.416,1.782-7.25,2.558-11.5c0.387,0.167,0.968,0.375,1.744,0.625c0.387,0.084,0.657,0.167,0.813,0.25
	C86.481,60.835,86.173,62.293,85.708,64.376L85.708,64.376z M85.708,48.501c-1.241-1.666-2.52-3.25-3.836-4.75l2.209-1.5
	c0.309,0.334,0.735,0.834,1.279,1.5c1.162,1.25,2.052,2.293,2.673,3.125L85.708,48.501z M88.963,47.501v-2.375h3.72V41.75h2.441
	v3.376h5.58V41.75h2.558v3.376h4.417v2.375h-4.417v3.75h5.464v2.375h-5.929c1.549,2.584,3.68,4.583,6.394,5.999
	c-0.078,0.169-0.194,0.419-0.349,0.751c-0.232,0.334-0.543,0.918-0.93,1.75c-1.86-1.25-3.371-2.541-4.534-3.875v6.624H93.264v1.626
	c-0.078,1.334,0.541,1.957,1.86,1.875h7.44c1.317,0,2.131-0.501,2.441-1.5c0.232-0.667,0.387-1.666,0.465-3.001
	c0.232,0.085,0.542,0.209,0.93,0.375c0.62,0.169,1.084,0.293,1.395,0.376c-0.156,1.25-0.389,2.374-0.698,3.375
	c-0.389,1.915-1.744,2.831-4.068,2.75h-8.835c-2.249,0-3.372-1.168-3.372-3.501v-6.999c-0.93,0.918-1.938,1.749-3.022,2.5
	c-0.311-0.832-0.697-1.666-1.163-2.5c2.79-1.75,4.959-3.957,6.51-6.625h-5.464v-2.375h4.999v-3.75H88.963z M93.264,59.376v3.375
	h7.672v-3.375H93.264z M95.822,53.626c-0.698,1.25-1.473,2.418-2.325,3.499h8.951c-0.775-1.081-1.511-2.249-2.208-3.499H95.822z
	 M95.124,47.501v3.75h5.58v-3.75H95.124z M129.396,58.001v-2.5h-16.159v2.5H129.396z M133.449,69.376v-2.875H161v2.875H133.449z
	 M135.309,47.501v-3h23.831v3H135.309z M136.587,58.126v-3h21.273v3H136.587z M165.386,46.501v-2.876h26.156v2.876h-8.021V67.25
	h8.835v2.626h-27.784V67.25h8.719V46.501H165.386z M169.688,63.126c-1.241-4-2.674-8.082-4.301-12.25l2.441-0.875
	c0.852,2.083,2.092,5.5,3.72,10.25c0.309,0.834,0.542,1.459,0.698,1.875L169.688,63.126z M176.081,46.501V67.25h4.767V46.501
	H176.081z M191.659,50.876c-1.163,3.168-2.79,7.293-4.882,12.374L184.451,62c1.549-3.499,3.139-7.541,4.767-12.125L191.659,50.876
	L191.659,50.876z M212.795,58.001v-2.5h-16.159v2.5H212.795z M219.86,64.875c-0.232,2.335-0.814,4.542-1.744,6.626l-1.86-1.875
	c0.852-1.751,1.355-3.626,1.511-5.625c0.233-1.916,0.349-5.582,0.349-11V42.375h2.208v10.751
	C220.325,58.71,220.168,62.625,219.86,64.875L219.86,64.875z M222.417,69.001v-25.5h2.092v25.5H222.417z M226.602,70.626V42.375
	h2.209v28.251H226.602z M243.342,71.376c-1.163-1.25-3.139-3.169-5.929-5.75c-1.008,2.249-3.217,4.332-6.626,6.25
	c-0.543-0.918-1.046-1.709-1.511-2.375c4.805-1.666,7.091-5.125,6.859-10.375c0-0.666,0.038-1.625,0.116-2.875c0-1.167,0-2,0-2.5
	h2.209c0,2,0,3.793,0,5.375c-0.078,1.418-0.233,2.75-0.465,4c0.93,0.834,2.363,2.125,4.301,3.874
	c1.239,1.001,2.131,1.751,2.674,2.251L243.342,71.376z M230.322,45.751v-2.5h14.299v2.5h-6.626l-0.697,3.624h6.277v15.001h-2.208
	V51.751h-8.138v12.75h-2.209V49.375h3.836l0.698-3.624H230.322z M252.04,55.126c-0.775,1.334-1.86,2.959-3.255,4.875
	c-0.156-0.5-0.389-1.25-0.697-2.251c-0.232-0.581-0.389-1.04-0.465-1.374c3.022-3.75,5.54-8.582,7.557-14.5l2.79,1
	c-0.621,1.918-1.706,4.418-3.255,7.5v21.125h-2.674V55.126L252.04,55.126z M262.27,60.001c-2.016,1.334-3.682,2.334-4.999,3
	c-0.156-0.332-0.543-0.958-1.163-1.876c-0.232-0.332-0.389-0.581-0.465-0.749c2.479-1.332,4.688-2.666,6.626-4V42.251h2.906v11.874
	c2.634-2.165,5.191-4.916,7.673-8.249l2.208,1.999c-2.868,3.751-6.161,7.085-9.881,10.001v7.75
	c-0.078,1.667,0.698,2.457,2.325,2.375h2.441c1.627,0,2.518-0.666,2.674-2.001c0.076-0.415,0.154-1.291,0.232-2.624
	c0.154-1.167,0.271-2.041,0.349-2.625c0.619,0.25,1.549,0.584,2.79,0.999c-0.232,2.085-0.505,3.96-0.814,5.626
	c-0.311,2.25-1.976,3.332-4.999,3.25h-3.487c-3.101,0.166-4.574-1.375-4.418-4.626V60.001L262.27,60.001z M296.193,58.001v-2.5
	h-16.159v2.5H296.193z M304.304,71.501V57.75c-0.232,0.085-0.581,0.21-1.046,0.376c-0.93,0.334-1.627,0.625-2.093,0.874
	c-0.232-0.831-0.621-1.665-1.162-2.5c4.572-1.25,8.253-3.04,11.043-5.374h-10.23v-2.25h11.974v-3.125
	c-1.24,0.083-2.597,0.125-4.069,0.125c-1.318,0-3.139,0-5.463,0c-0.078-0.916-0.194-1.666-0.349-2.251
	c5.657,0,12.942-0.249,21.855-0.749l0.349,2.25c-1.938,0.168-5.193,0.334-9.765,0.5v3.25h11.974v2.25h-10.23
	c2.401,2.168,6.045,3.834,10.928,5c-0.465,0.918-0.854,1.75-1.163,2.5c-5.347-1.667-9.183-3.791-11.508-6.376v4.376h-2.558V52.25
	c-2.17,2.251-4.922,4.044-8.253,5.376h19.181v13.875h-2.558v-1.25h-14.298v1.25H304.304z M306.862,59.876v3.125h14.298v-3.125
	H306.862z M306.862,65.001v3h14.298v-3H306.862z M335.09,56.626c-0.389-0.416-0.931-1.082-1.628-2
	c-1.008-1.166-1.784-2.082-2.325-2.75l2.093-1.5c1.395,1.418,2.79,2.959,4.185,4.625L335.09,56.626z M335.903,64.376
	c-0.621,3.25-1.086,5.625-1.396,7.125l-2.79-0.875c0.931-3.416,1.782-7.25,2.558-11.5c0.387,0.168,0.969,0.375,1.744,0.625
	c0.387,0.084,0.657,0.168,0.813,0.25C336.677,60.835,336.368,62.294,335.903,64.376L335.903,64.376z M335.903,48.501
	c-1.241-1.666-2.52-3.25-3.837-4.75l2.209-1.5c0.309,0.334,0.736,0.834,1.279,1.5c1.162,1.25,2.053,2.293,2.674,3.125
	L335.903,48.501z M339.158,47.501v-2.375h3.72v-3.375h2.441v3.375h5.58v-3.375h2.558v3.375h4.417v2.375h-4.417v3.75h5.464v2.375
	h-5.929c1.549,2.584,3.68,4.584,6.394,6c-0.078,0.168-0.194,0.418-0.349,0.75c-0.232,0.334-0.543,0.918-0.931,1.75
	c-1.859-1.25-3.371-2.541-4.533-3.875v6.625h-10.114v1.625c-0.078,1.334,0.542,1.957,1.86,1.875h7.44c1.316,0,2.13-0.5,2.44-1.5
	c0.233-0.666,0.388-1.666,0.466-3c0.232,0.084,0.541,0.209,0.93,0.375c0.619,0.168,1.084,0.293,1.395,0.375
	c-0.156,1.25-0.389,2.375-0.697,3.375c-0.389,1.916-1.743,2.832-4.068,2.75h-8.835c-2.249,0-3.371-1.168-3.371-3.5v-7
	c-0.931,0.918-1.938,1.75-3.022,2.5c-0.312-0.832-0.698-1.666-1.163-2.5c2.79-1.75,4.959-3.957,6.51-6.625h-5.464v-2.375h4.999
	v-3.75H339.158z M343.459,59.376v3.375h7.673v-3.375H343.459z M346.017,53.626c-0.697,1.25-1.473,2.418-2.325,3.5h8.952
	c-0.776-1.082-1.512-2.25-2.209-3.5H346.017z M345.319,47.501v3.75h5.58v-3.75H345.319z"/>
<path fill="#F7F398" d="M51.398,17.906c-0.117-0.062-0.262-0.218-0.436-0.469c-1.105-0.999-1.948-1.781-2.528-2.344l1.133-1.313
	c0.988,0.876,1.976,1.781,2.964,2.719L51.398,17.906z M51.311,26.343c-0.292,1.437-0.523,2.499-0.697,3.188l-1.657-0.563
	c0.698-2.438,1.336-5.25,1.918-8.438c0.175,0.063,0.465,0.188,0.872,0.375c0.29,0.126,0.552,0.22,0.785,0.281
	C52.299,22.188,51.892,23.906,51.311,26.343L51.311,26.343z M51.921,11.718c-0.466-0.5-1.133-1.156-2.005-1.969
	c-0.349-0.312-0.61-0.563-0.785-0.75l1.134-1.219c0.523,0.438,1.278,1.125,2.267,2.063c0.231,0.25,0.406,0.438,0.523,0.563
	L51.921,11.718z M53.142,13.031v-1.594h3.487c-0.117-0.563-0.378-1.5-0.785-2.813c-0.117-0.437-0.204-0.75-0.261-0.938l1.656-0.281
	c0.349,1,0.698,2.25,1.046,3.75l-0.959,0.281h3.226v1.594h-4.272c0,1.313-0.03,2.531-0.087,3.656h4.01c0,0.25,0,0.595,0,1.031
	c-0.117,3.938-0.233,6.813-0.349,8.625c0,1.812-0.814,2.719-2.441,2.719c-0.466,0-0.989,0-1.569,0l-0.261-1.688
	c0.29,0.062,0.61,0.062,0.959,0c0.174,0,0.29,0,0.349,0c1.046,0.062,1.54-0.375,1.482-1.313c0-0.437,0.028-1.125,0.087-2.063
	c0.116-2.687,0.174-4.594,0.174-5.719h-2.528c0,0.25,0,0.469,0,0.656c-0.117,4.75-1.018,8.344-2.703,10.781
	c-0.292-0.313-0.728-0.719-1.308-1.219c1.569-2.187,2.412-5.405,2.529-9.656c0.057-1.625,0.087-3.563,0.087-5.813H53.142z
	 M62.994,12.75c-0.697,1.375-1.279,2.407-1.744,3.094c-0.292-0.312-0.728-0.718-1.308-1.219c1.452-2.063,2.616-4.531,3.487-7.406
	L65.087,7.5c-0.349,1.063-0.698,2.063-1.046,3h5.667v1.594h-6.364C63.285,12.219,63.168,12.438,62.994,12.75L62.994,12.75z
	 M60.989,21.937v-1.594h3.662v-1.406l2.616-2.813h-5.231v-1.594h6.975v1.781l-2.703,3.094v0.938h3.4v1.594h-3.4v4.781
	c0.057,1.688-0.756,2.531-2.441,2.531c-0.466,0.062-1.221,0.094-2.267,0.094c0-0.188-0.059-0.532-0.174-1.031
	c-0.059-0.313-0.087-0.563-0.087-0.75c0.406,0.062,1.104,0.094,2.092,0.094c0.872,0.062,1.278-0.375,1.221-1.313v-4.406H60.989z
	 M72.22,12.281v-1.688h2.528c0.057-0.249,0.174-0.656,0.349-1.219c0.231-0.938,0.377-1.625,0.436-2.063L77.277,7.5l-0.872,3.094
	h4.534v1.688h-4.97c-0.93,3-1.569,5.095-1.918,6.281h2.703v-4.781h1.482v4.781h2.441v1.594h-2.441v3.188c0.057,0,0.144,0,0.261,0
	c0.755-0.062,1.569-0.188,2.441-0.375c0,0.625-0.03,1.188-0.087,1.688l-2.615,0.375v4.688H76.58v-4.5
	c-1.569,0.188-3.052,0.375-4.447,0.563L71.958,24l4.621-0.469v-3.375h-4.098v-1.688c0.174-0.624,0.464-1.562,0.872-2.813
	c0.465-1.5,0.785-2.625,0.959-3.375H72.22z M93.32,14.906c-0.292,0.438-0.61,1-0.959,1.688c-2.5-1.812-4.359-3.999-5.58-6.563
	c-1.338,2.438-3.285,4.688-5.842,6.75c-0.407-0.75-0.728-1.28-0.959-1.594c2.847-2.187,4.939-4.843,6.277-7.969L88.001,7.5
	c-0.117,0.313-0.261,0.625-0.436,0.938C89.076,11.313,90.994,13.469,93.32,14.906L93.32,14.906z M85.56,29.062
	c-2.036,0.062-3.023-0.97-2.964-3.094v-9.656h1.656v4.5c2.093-1.187,3.981-2.531,5.667-4.031l1.046,1.313
	c-1.744,1.563-3.982,3.126-6.713,4.688v2.813c-0.117,1.251,0.493,1.812,1.831,1.688h2.18c1.221,0.062,1.888-0.469,2.005-1.594
	c0.174-1.062,0.29-2.156,0.349-3.281c0.581,0.25,1.133,0.438,1.657,0.563c-0.174,1.375-0.349,2.594-0.523,3.656
	c-0.349,1.625-1.425,2.438-3.226,2.438H85.56z M96.355,22.687c0.754-0.812,0.667-0.75-0.262,0.188
	c-0.174-0.563-0.407-1.187-0.698-1.875c2.034-1.812,3.981-4.343,5.842-7.594l1.569,1.031c-0.466,0.75-1.105,1.75-1.918,3
	c-0.175,0.188-0.292,0.344-0.349,0.469v11.813h-1.744v-9.563C98.273,20.718,97.458,21.562,96.355,22.687L96.355,22.687z
	 M102.72,8.437c-1.802,2.438-3.808,4.657-6.016,6.656c-0.407-0.875-0.698-1.468-0.872-1.781c2.15-1.875,3.923-3.875,5.318-6
	L102.72,8.437L102.72,8.437z M103.417,17.812v-1.875h13.165v1.875h-3.923v8.25c0.116,2.124-0.902,3.188-3.051,3.188
	c-0.931,0.062-2.005,0.094-3.226,0.094c-0.059-0.188-0.117-0.469-0.174-0.844c-0.117-0.501-0.205-0.876-0.262-1.125
	c0.929,0,1.947,0,3.052,0c1.336,0.062,1.947-0.469,1.831-1.594v-7.969H103.417z M104.638,10.781V8.906h10.898v1.875H104.638z
	 M119.095,15.843v-1.688h3.052v-3.75l-2.703,0.094c-0.059-0.624-0.146-1.156-0.261-1.594c2.267-0.062,4.678-0.249,7.236-0.563
	l0.262,1.594c-0.815,0.126-1.774,0.25-2.877,0.375v3.844h2.79v1.688h-2.79v2.813l0.436-0.469c0.057,0.063,0.116,0.126,0.174,0.188
	c1.221,1.188,2.121,2.032,2.703,2.531l-1.046,1.406c-0.233-0.249-0.582-0.656-1.046-1.219c-0.523-0.563-0.93-0.999-1.221-1.313
	v9.938h-1.656V19.593c-0.698,2.188-1.6,4.125-2.703,5.813c0-0.062-0.03-0.155-0.087-0.281c-0.233-0.75-0.466-1.28-0.698-1.594
	c1.511-2.063,2.673-4.625,3.488-7.688H119.095z M127.117,19.218v-1.594h12.293v1.594h-5.319v3.188h4.795v1.5h-4.795v3.188h6.016v1.5
	H126.07v-1.5h6.277v-3.188h-4.795v-1.5h4.795v-3.188H127.117z M127.988,15.281V8.625h10.55v6.656H127.988z M129.645,10.218v3.469
	h7.236v-3.469H129.645z"/>
<rect x="32" y="7" fill-rule="evenodd" clip-rule="evenodd" fill="#FFFB97" width="10" height="66"/>
</svg>
