<?xml version="1.0" encoding="utf-8"?>
<!-- Generator: Adobe Illustrator 16.0.0, SVG Export Plug-In . SVG Version: 6.00 Build 0)  -->
<!DOCTYPE svg PUBLIC "-//W3C//DTD SVG 1.1//EN" "http://www.w3.org/Graphics/SVG/1.1/DTD/svg11.dtd">
<svg version="1.1" id="图层_1" xmlns="http://www.w3.org/2000/svg" xmlns:xlink="http://www.w3.org/1999/xlink" x="0px" y="0px"
	 width="640px" height="486px" viewBox="0 -74.5 640 486" enable-background="new 0 -74.5 640 486" xml:space="preserve">
<path fill="#FFFB9A" d="M53.568,72.675v-4.297h2.056V53.94h3.953c0.104-0.457,0.262-1.203,0.474-2.234
	c0.104-0.916,0.21-1.604,0.316-2.063l4.428,0.344c0,0.231-0.055,0.516-0.158,0.859c-0.212,0.688-0.529,1.719-0.949,3.094h5.376
	v31.796c0,0.457-0.054,0.916-0.158,1.375c3.057-2.979,4.428-7.963,4.111-14.952v-6.875h12.808v18.563
	c0,1.146,0.368,1.661,1.107,1.547h0.316c0.736,0.114,1.159-0.457,1.265-1.72c0.21-2.52,0.316-5.041,0.316-7.563
	c1.265,0.459,2.317,0.859,3.163,1.203c-0.212,3.438-0.422,6.131-0.632,8.078c-0.316,2.862-1.636,4.297-3.953,4.297H85.51
	c-2.636,0.112-3.901-1.375-3.795-4.469V69.925h-4.427v2.234c0.316,8.364-1.423,14.608-5.218,18.733
	c-0.529-0.574-1.636-1.662-3.32-3.266c-0.316,1.719-1.53,2.635-3.637,2.75c-1.055,0-2.32,0-3.795,0
	c-0.106-0.575-0.264-1.436-0.474-2.578c-0.106-0.688-0.213-1.263-0.316-1.719c0.842,0,1.791,0,2.846,0
	c1.369,0.111,2.001-0.457,1.897-1.719V72.675h-5.692c0,7.679-0.949,13.808-2.846,18.392c-1.48-1.377-2.587-2.467-3.323-3.267
	c1.581-3.666,2.317-8.707,2.214-15.125H53.568z M59.577,58.064v10.313h5.692V58.064H59.577z M61.948,66.831
	c-0.316-0.916-0.791-2.119-1.423-3.608c-0.316-0.916-0.581-1.604-0.791-2.063l2.688-1.548c0.21,0.459,0.526,1.146,0.949,2.063
	c0.736,1.49,1.265,2.638,1.581,3.438L61.948,66.831z M62.106,82.128l-2.372-6.017l2.846-1.547c0.316,0.804,0.842,2.121,1.581,3.953
	c0.42,0.918,0.736,1.605,0.949,2.063L62.106,82.128z M70.646,60.645v-4.642h7.432c-0.212-0.688-0.529-1.719-0.949-3.094
	c-0.316-1.031-0.581-1.832-0.791-2.406l4.902-0.688c0.316,1.031,0.736,2.406,1.265,4.125c0.316,0.918,0.526,1.605,0.632,2.063h7.274
	v4.642H70.646z M120.419,84.706c-2.636,1.487-5.641,2.979-9.013,4.469l-1.739-3.266c-2.11,0.456-5.534,1.144-10.278,2.063
	c-1.162,0.229-2.056,0.399-2.688,0.516l-0.791-4.641c0.526-0.113,1.527-0.285,3.004-0.517c5.06-0.801,8.697-1.433,10.911-1.892
	c0,0.459-0.054,1.031-0.158,1.72c0,0.688,0,1.202,0,1.547c3.479-1.488,6.483-2.979,9.013-4.47c-0.845-3.094-1.371-5.672-1.581-7.733
	l-6.167,0.858l-0.633-4.469l6.167-0.858c-0.106-1.604-0.264-3.15-0.474-4.642l-4.902,0.517l-0.316-2.75
	c-3.795,6.418-6.483,10.827-8.064,13.233c2.107-0.344,4.479-0.629,7.116-0.858c0,0.459-0.054,1.146-0.158,2.063
	c0,0.918-0.054,1.604-0.158,2.062c-5.376,0.688-9.226,1.262-11.543,1.719l-1.423-3.953c1.159-0.916,2.108-1.947,2.847-3.094
	c0.104-0.113,0.262-0.4,0.474-0.859c0.736-1.031,1.581-2.463,2.53-4.297c-2.003,0-3.795,0.172-5.376,0.516l-1.265-4.297
	c0.736-0.688,1.423-1.547,2.056-2.578c1.685-3.094,3.424-6.815,5.218-11.171l4.585,1.547c-1.161,2.178-2.794,5.156-4.902,8.938
	c-0.845,1.375-1.423,2.351-1.739,2.922l3.953-0.172l2.214-4.297l3.479,1.719v-0.688l5.218-0.688
	c-0.212-2.979-0.316-5.957-0.316-8.938h4.586c0,3.094,0.104,5.902,0.316,8.422l6.799-0.859c-0.845-0.801-2.162-1.947-3.953-3.438
	c-0.528-0.344-0.896-0.628-1.107-0.859l2.847-3.094c0.526,0.344,1.265,0.918,2.213,1.719c1.369,0.918,2.372,1.662,3.004,2.234
	l-2.846,3.438l5.218-0.688l0.474,4.297l-12.492,1.547c0,0.574,0.052,1.318,0.158,2.234c0,1.146,0.052,1.949,0.158,2.406
	l12.808-2.063l0.474,4.469l-12.65,2.063c0.316,2.062,0.736,3.896,1.265,5.5c2.214-1.719,4.531-3.838,6.958-6.359l3.004,2.922
	c-2.953,3.094-5.747,5.73-8.381,7.906c0.843,2.521,2.001,3.781,3.479,3.781c0.736,0,1.317-0.629,1.739-1.892
	c0.316-1.375,0.685-3.094,1.107-5.155c0.21,0.114,0.578,0.287,1.107,0.516c1.265,0.803,2.159,1.318,2.688,1.547
	c-0.316,2.062-0.739,3.896-1.265,5.5c-0.845,2.979-2.636,4.469-5.376,4.469C124.792,90.662,122.316,88.716,120.419,84.706
	L120.419,84.706z M151.069,80.581l-3.163-4.47v14.609h-3.953V76.628c-0.949,2.979-2.372,5.959-4.269,8.938
	c-0.316-1.832-0.791-3.724-1.423-5.672c2.107-2.636,3.899-6.302,5.376-11h-4.744v-4.297h5.06V49.987h3.953v14.609h4.428v4.297
	h-4.428v4.642l1.74-1.548c1.159,1.49,2.634,3.438,4.427,5.845L151.069,80.581z M140.633,62.706
	c-0.529-2.636-1.265-5.558-2.214-8.766l2.688-0.859c0.21,0.688,0.526,1.778,0.949,3.267c0.633,2.405,1.107,4.184,1.423,5.327
	L140.633,62.706z M152.334,58.236c-0.632,2.063-1.107,3.554-1.423,4.47l-2.688-1.031c1.053-2.979,1.897-5.844,2.53-8.594
	l2.846,0.859C153.387,54.859,152.967,56.29,152.334,58.236L152.334,58.236z M153.916,56.348v-3.267h8.539v-3.266h4.427v3.266h9.33
	v3.267h-9.33v2.405h8.381v2.922h-8.381v2.406h9.962v3.267h-23.402v-3.267h9.013v-2.406h-7.748v-2.922h7.748v-2.405H153.916z
	 M154.707,90.723V69.581h20.082v15.297c0.104,3.666-1.478,5.5-4.744,5.5c-0.422,0-1.107,0-2.056,0
	c-1.265,0.112-2.32,0.172-3.163,0.172c-0.212-1.489-0.528-2.864-0.949-4.125c1.053,0.112,2.582,0.173,4.586,0.173
	c1.475,0.111,2.159-0.576,2.056-2.063v-0.688h-11.702v6.875h-4.11V90.723z M158.817,72.848v2.577h11.702v-2.577H158.817z
	 M158.817,78.348v2.577h11.702v-2.577H158.817z M181.236,69.409v-4.47h5.534V49.987h4.111v14.953h4.902v4.47h-4.902v2.063V71.3
	c1.475,1.146,3.424,2.81,5.851,4.984l-0.158,0.172h8.855v-3.095h4.428v3.095h9.487v4.469h-9.487v9.798h-4.428v-9.798h-8.855v-4.297
	l-2.214,3.608c-1.161-1.26-2.32-2.52-3.479-3.78v14.267h-4.111v-13.75c-1.161,3.094-2.688,5.901-4.585,8.422
	c-0.212-0.916-0.633-2.578-1.265-4.984c-0.106-0.229-0.158-0.4-0.158-0.516c2.317-2.863,4.163-6.359,5.535-10.484L181.236,69.409
	L181.236,69.409z M183.607,63.223c-0.316-1.261-0.896-3.15-1.739-5.673c-0.422-1.375-0.739-2.406-0.949-3.094l2.846-0.859
	c1.053,3.209,1.897,6.131,2.53,8.766L183.607,63.223z M196.89,54.628c-0.739,2.521-1.794,5.442-3.163,8.767l-2.688-1.031
	c0.316-0.916,0.842-2.406,1.581-4.469c0.633-1.947,1.107-3.378,1.423-4.297L196.89,54.628L196.89,54.628z M205.429,72.848
	c-0.529-0.572-1.265-1.488-2.214-2.75c-0.528-0.572-0.896-1.031-1.106-1.375c-0.949,1.719-2.11,3.553-3.479,5.5
	c-0.949-1.146-1.952-2.234-3.004-3.267c2.74-3.207,4.531-6.761,5.376-10.656l3.953,0.517c-0.316,1.375-0.687,2.692-1.107,3.953
	c1.265,1.375,2.476,2.809,3.637,4.297c2.001-2.635,3.373-5.558,4.111-8.767l4.111,0.517c-0.422,1.375-0.791,2.637-1.107,3.781
	c0.632,0.688,1.527,1.719,2.688,3.094c0.843,1.031,1.475,1.776,1.897,2.233l-2.53,3.609c-1.055-1.604-2.32-3.267-3.795-4.984
	c-0.739,1.49-1.688,2.98-2.846,4.47c-0.739-1.031-1.582-2.063-2.53-3.095L205.429,72.848z M197.522,59.098v-4.47h8.223
	c-0.106-0.688-0.371-1.775-0.791-3.266c-0.106-0.457-0.212-0.8-0.316-1.031l4.902-0.688c0.104,0.688,0.316,1.662,0.632,2.922
	c0.21,0.918,0.368,1.606,0.475,2.063h7.748v4.47H197.522z"/>
<path fill="#FFFB9A" d="M56.746,35.875c-0.403,1.688-1.179,3.406-2.329,5.156c-0.633-0.563-1.266-1.094-1.897-1.594
	c2.012-2.375,2.933-6,2.76-10.875v-6.469h8.194c-0.172-0.5-0.461-1.25-0.862-2.25c-0.173-0.312-0.289-0.563-0.345-0.75l2.415-0.469
	c0.574,1.188,1.005,2.25,1.294,3.188l-1.035,0.281h8.28v2.156H57.35v4.406C57.35,31.844,57.147,34.251,56.746,35.875L56.746,35.875z
	 M79.153,37.282c-0.862,0.876-1.754,1.906-2.673,3.094l-0.863-2.25c0.518-0.624,1.294-1.5,2.329-2.625
	c0.632-0.624,1.178-0.938,1.639-0.938c0.114,0,0.229,0.032,0.345,0.094c0.115,0,0.201,0,0.259,0c4.369-2.813,8.28-6.031,11.73-9.656
	H77.255v-2.063h8.453c-0.23-0.624-0.604-1.562-1.121-2.813c-0.173-0.437-0.317-0.75-0.431-0.938l2.242-0.469
	c0.459,1.063,1.005,2.407,1.639,4.031l-0.604,0.188h7.245v2.25c-3.739,4.188-8.021,7.844-12.852,10.969
	c1.035,1.312,2.644,2.001,4.83,2.062c2.07,0.063,5.404,0.032,10.005-0.094c-0.288,0.687-0.489,1.406-0.604,2.156
	c-2.704,0-4.658,0-5.865,0c-1.496-0.063-2.818-0.126-3.967-0.188c-2.704,0-4.773-0.938-6.21-2.812
	C79.727,37.033,79.44,37.033,79.153,37.282L79.153,37.282z M99.318,24.157v-1.969h3.709c-0.289-1.062-0.604-2.093-0.949-3.094
	l1.983-0.469c0.173,0.688,0.518,1.875,1.035,3.563h2.415v1.969h-4.658l-0.086,3.188h4.14c0,3.375-0.086,6.75-0.259,10.125
	c0,2-0.834,3-2.501,3c-0.69,0-1.323,0-1.897,0l-0.431-1.969c0.517,0,1.091,0,1.725,0c0.977,0.062,1.437-0.437,1.38-1.5
	c0.114-3.249,0.172-5.813,0.172-7.688h-2.415c0,5.313-0.806,9.218-2.415,11.719L98.8,39.625c1.437-2,2.156-5.656,2.156-10.969
	l0.086-4.5L99.318,24.157L99.318,24.157z M110.875,22.938c-0.748,1.375-1.639,2.719-2.674,4.031
	c-0.633-0.687-1.093-1.156-1.38-1.406c1.725-2.063,2.989-4.374,3.795-6.938l1.984,0.188c-0.116,0.313-0.289,0.782-0.518,1.406
	c-0.173,0.438-0.289,0.75-0.345,0.938h7.763v1.781H110.875L110.875,22.938z M119.155,39.438c-0.345,0.375-0.604,0.656-0.776,0.844
	c-3.221-2.75-5.06-6.875-5.52-12.375c-0.69,0.062-1.38,0.157-2.07,0.281v9.844c1.208-0.624,2.329-1.125,3.364-1.5
	c0,0.188,0,0.501,0,0.938c0.057,0.438,0.086,0.75,0.086,0.938c-1.208,0.437-2.415,0.999-3.623,1.688
	c-0.116,0.062-0.259,0.125-0.431,0.188c-0.461,0.249-0.748,0.437-0.863,0.563l-1.121-1.688c0.518-0.438,0.747-1.031,0.69-1.781
	V26.407c3.105-0.249,6.21-0.75,9.315-1.5l0.69,1.969c-1.323,0.313-2.76,0.563-4.313,0.75c0.173,1.5,0.402,2.813,0.69,3.938
	c1.15-0.624,2.271-1.313,3.364-2.063l0.949,1.688c-1.208,0.75-2.444,1.469-3.708,2.156c0.747,2.063,2.098,3.782,4.054,5.156
	C119.816,38.688,119.557,39,119.155,39.438L119.155,39.438z M122.329,25.188v-1.969h2.415v-4.406h1.897v4.406h1.983v1.969h-1.983
	v4.594l1.983-0.656c0,0.75,0,1.438,0,2.063l-1.983,0.656v6.563c0.057,1.562-0.633,2.375-2.07,2.438l-1.983,0.094
	c0-0.063,0-0.157,0-0.281c-0.058-0.438-0.173-1.094-0.345-1.969c0.345,0.062,0.863,0.094,1.553,0.094s1.005-0.281,0.949-0.844V32.5
	l-2.415,0.75L122.07,31l2.674-0.656v-5.156H122.329z M130.005,41.125V27.438c-0.116,0.188-0.317,0.501-0.604,0.938
	c-0.288,0.375-0.518,0.688-0.69,0.938c-0.058-0.249-0.202-0.624-0.431-1.125c-0.172-0.5-0.317-0.844-0.431-1.031
	c1.667-2.124,3.075-4.937,4.226-8.438l1.984,0.375c0,0.063-0.03,0.157-0.086,0.281c-0.575,1.626-1.064,2.782-1.466,3.469h4.485
	c-0.634-1.562-1.151-2.687-1.553-3.375l1.897-0.562c0.747,1.626,1.264,2.812,1.553,3.562l-1.38,0.375h5.261v1.781h-4.657v3.188
	h4.399v1.875h-4.399v3.188h4.399v1.781h-4.399v3.281h4.83v1.594h-11.04v1.594h-1.898V41.125z M131.903,24.625v3.188h4.313v-3.188
	H131.903z M131.903,29.688v3.188h4.313v-3.188H131.903z M131.903,34.657v3.281h4.313v-3.281H131.903z M145.771,22.469v-1.875h5.347
	v-1.875h1.984v1.875h5.692v-1.875h1.984v1.875h5.261v1.875h-5.261v1.594h-1.984v-1.594h-5.692v1.406l1.294,0.188
	c-0.058,0.063-0.116,0.188-0.173,0.375c-0.172,0.375-0.288,0.625-0.345,0.75h11.902v1.875h-12.85
	c-0.518,0.938-1.237,2.063-2.156,3.375v10.594h-1.897v-8.156c-0.863,1-1.812,1.969-2.846,2.906
	c-0.116-0.375-0.317-0.938-0.604-1.688c-0.058-0.188-0.116-0.343-0.172-0.469c2.07-1.749,3.881-3.938,5.434-6.563h-4.744v-1.875
	h5.692l0.604-1.219h-1.122v-1.5L145.771,22.469L145.771,22.469z M152.067,35.594v-1.781h6.642v-0.75l3.105-2.25h-8.366v-1.781
	h11.212v1.781l-3.968,2.719v0.281h5.348v1.781h-5.348v2.719c0.057,1.625-0.776,2.468-2.501,2.531c-0.23,0-0.633,0-1.208,0
	c-0.92,0.062-1.639,0.094-2.156,0.094c-0.116-0.688-0.259-1.375-0.431-2.063c0.401,0,0.919,0.031,1.552,0.094
	c0.574,0,1.035,0,1.38,0c0.977,0.062,1.437-0.344,1.38-1.219v-2.156H152.067z M170.163,26.969c-0.173,1-0.345,1.75-0.518,2.25
	c-0.172-0.125-0.461-0.281-0.863-0.469c-0.23-0.062-0.403-0.125-0.517-0.188c0.632-1.937,1.063-4.5,1.293-7.688l1.466,0.188
	c-0.058,0.313-0.116,0.782-0.172,1.406c-0.116,0.688-0.202,1.188-0.259,1.5h1.639v-5.156h1.897v5.156h1.984v1.969h-1.984v4.594
	l1.984-0.656c0,0.876,0.057,1.594,0.172,2.156l-2.156,0.656v8.438h-1.897V33.25l-3.536,1.219l-0.259-2.25l3.795-1.125v-5.156h-1.811
	C170.363,26.188,170.277,26.533,170.163,26.969L170.163,26.969z M177.407,23.5v-1.875h4.485v-2.906h1.983v2.906h4.571V23.5h-4.571
	v3.094h5.434v1.875h-12.765v-1.875h5.348V23.5H177.407z M176.717,33.157v-1.875h7.935v-1.969h1.897v1.969h2.76v1.875h-2.76v4.875
	c0.057,1.875-0.834,2.812-2.674,2.812c-0.92,0.062-1.869,0.094-2.846,0.094c-0.058-0.313-0.144-0.782-0.259-1.406
	c-0.058-0.313-0.116-0.563-0.172-0.75c0.574,0.062,1.408,0.094,2.501,0.094c1.035,0,1.552-0.438,1.552-1.313v-4.406L176.717,33.157
	L176.717,33.157z M179.995,38.125c-0.058-0.062-0.116-0.155-0.173-0.281c-0.978-1.312-1.783-2.281-2.415-2.906l1.294-1.219
	c0.977,1,1.897,2.032,2.76,3.094L179.995,38.125z M193.087,27.438c-0.345-0.437-0.806-0.938-1.38-1.5
	c2.76-2.187,4.944-4.625,6.555-7.313l2.243,0.281c-0.116,0.188-0.317,0.501-0.604,0.938c-0.23,0.375-0.431,0.688-0.604,0.938h8.28
	v1.781l-2.415,2.813h5.089v7.969h-14.404v3.188c-0.058,1.251,0.632,1.875,2.07,1.875h9.833c1.494,0.062,2.299-0.5,2.415-1.688
	c0-0.125,0.057-0.406,0.173-0.844c0.114-0.75,0.201-1.343,0.259-1.781c0.747,0.313,1.38,0.532,1.897,0.656
	c0,0.188-0.03,0.438-0.086,0.75c-0.116,1.063-0.259,1.813-0.431,2.25c-0.345,1.749-1.639,2.593-3.881,2.531h-10.781
	c-2.358,0.062-3.508-1.063-3.45-3.375V26.782L193.087,27.438z M204.99,22.657h-7.072c-0.806,0.938-1.639,1.844-2.501,2.719h7.245
	L204.99,22.657z M195.847,27.344v4.125h5.261v-4.125H195.847z M208.267,27.344h-5.175v4.125h5.175V27.344z M216.012,27.344v-7.5h6.9
	v7.5h-1.984v3.563h2.156v1.781h-2.156v4.406c0.863-0.062,1.695-0.188,2.501-0.375c0,0.75,0,1.375,0,1.875
	c-1.035,0.188-2.531,0.469-4.485,0.844c-1.668,0.312-2.933,0.53-3.795,0.656l-0.345-2.062l1.121-0.094V29.5h1.553v8.156l1.725-0.188
	V27.344H216.012z M217.737,21.625v3.938h3.364v-3.938H217.737z M235.591,30.344c-0.23,0.563-0.403,1-0.518,1.313
	c-2.242-0.75-4.054-1.594-5.434-2.531c-1.553,1.063-3.45,2.001-5.692,2.813c-0.058-0.249-0.202-0.624-0.432-1.125
	c-0.172-0.312-0.288-0.563-0.345-0.75c1.839-0.563,3.506-1.313,5.002-2.25c-0.806-0.75-1.582-1.812-2.329-3.188
	c-0.403,0.625-0.92,1.313-1.553,2.063c-0.345-0.563-0.69-1.093-1.035-1.594c1.552-2,2.788-4.156,3.708-6.469L228.95,19
	c-0.345,0.75-0.69,1.438-1.035,2.063h6.641v1.969c-1.035,2.001-2.186,3.595-3.45,4.781c1.322,0.813,2.875,1.438,4.657,1.875
	C235.706,29.814,235.647,30.032,235.591,30.344L235.591,30.344z M224.723,41.125v-8.906h9.488v8.906h-1.897v-1.406h-5.692v1.406
	H224.723z M226.621,34.094v3.938h5.692v-3.938H226.621z M229.64,26.688c1.149-1.062,2.098-2.344,2.846-3.844h-5.52l-0.086,0.094
	C227.626,24.501,228.547,25.75,229.64,26.688L229.64,26.688z M245.061,33.719c-2.473,0.25-4.515,0.532-6.124,0.844l-0.604-1.781
	c0.518-0.437,0.977-0.968,1.38-1.594c0.229-0.375,0.632-1.031,1.208-1.969c0.401-0.562,0.69-0.999,0.862-1.312
	c-1.323,0-2.415,0.062-3.277,0.188l-0.604-1.781c0.345-0.375,0.69-0.812,1.035-1.313c0.805-1.313,1.839-3.406,3.105-6.281
	l1.984,0.656c-0.345,0.625-0.863,1.563-1.553,2.813c-1.035,1.938-1.783,3.25-2.243,3.938l2.588-0.094
	c0.459-0.875,0.891-1.688,1.293-2.438l1.812,0.844c-1.783,3.063-3.394,5.688-4.83,7.875c0.459-0.062,1.149-0.125,2.07-0.188
	c0.977-0.125,1.667-0.188,2.07-0.188c0,0.25-0.03,0.532-0.086,0.844C245.147,33.22,245.117,33.532,245.061,33.719L245.061,33.719z
	 M241.266,38.969c-1.266,0.249-2.214,0.438-2.846,0.563l-0.345-1.969c0.345-0.062,1.005-0.188,1.984-0.375
	c2.472-0.437,4.254-0.75,5.348-0.938c0,0.313-0.03,0.719-0.086,1.219c0,0.375,0,0.656,0,0.844
	C244.571,38.376,243.22,38.594,241.266,38.969L241.266,38.969z M246.096,26.313l-0.172-1.969l3.105-0.375
	c-0.116-1.688-0.173-3.406-0.173-5.156h1.984c0,1.813,0.057,3.469,0.172,4.969l7.073-0.938l0.172,1.875l-7.159,0.938
	c0,0.75,0.057,1.469,0.172,2.156l0.086,0.938l7.331-1.125l0.173,1.875l-7.245,1.125c0.229,1.375,0.518,2.625,0.862,3.75
	c1.092-0.812,2.415-2.063,3.968-3.75l1.38,1.219c-1.668,1.813-3.221,3.281-4.658,4.406c0.69,1.626,1.523,2.438,2.501,2.438
	c0.518,0,0.862-0.343,1.035-1.031c0-0.125,0.028-0.312,0.086-0.563c0.287-1.062,0.459-1.875,0.518-2.438
	c0.172,0.126,0.574,0.344,1.208,0.656c0.229,0.126,0.402,0.22,0.518,0.281c-0.172,1.125-0.403,2.125-0.69,3
	c-0.403,1.562-1.294,2.344-2.674,2.344c-1.61,0-2.99-1.125-4.14-3.375c-0.116,0.063-0.316,0.157-0.604,0.281
	c-1.956,1.125-3.594,1.969-4.917,2.531c-0.172-0.25-0.403-0.688-0.69-1.313c-0.172-0.313-0.288-0.532-0.345-0.656
	c2.126-0.688,4.082-1.625,5.865-2.813c-0.461-1.374-0.834-2.937-1.121-4.688l-3.795,0.656l-0.259-1.969l3.795-0.563l-0.086-0.938
	c-0.116-0.687-0.172-1.406-0.172-2.156L246.096,26.313z M255.238,22.844c-0.058-0.062-0.145-0.155-0.259-0.281
	c-0.69-0.563-1.582-1.28-2.674-2.156L253.513,19c0.518,0.375,1.322,1,2.415,1.875c0.287,0.188,0.488,0.344,0.604,0.469
	L255.238,22.844z"/>
<rect x="32" y="20" fill="#FCF657" width="10" height="70"/>
</svg>
