<svg xmlns="http://www.w3.org/2000/svg" width="640" height="350" viewBox="0 0 640 350"><path fill="#fff" d="M255.364 116.999v-1.641h1.94v-3.516h1.582v3.516h1.653v1.641h-1.653v3.594l1.725-.703c0 .521.024 1.068.072 1.641l-1.797.781v5.938c.047 1.354-.528 2.057-1.725 2.109-.192 0-.479.026-.863.078h-.646c-.097-.677-.216-1.302-.359-1.875h1.222c.575 0 .838-.234.791-.703v-4.922l-2.012.859-.216-1.875 1.294-.469c.431-.156.742-.26.934-.313v-4.141h-1.942zm.388-17.124v-4.125h27.37v4.125h-27.37zm1.725-21.125v-4.375h23.92v4.375h-23.92zm1.38 10.375v-4.375h21.275v4.375h-21.275zm3.982 39.827c-.336.26-.695.547-1.078.859l-1.006-1.484c.431-.416.647-1.041.647-1.875v-13.047c3.689-.156 7.115-.442 10.278-.859l.431 1.641c-.192 0-.456.027-.791.078-.959.105-2.084.209-3.378.313 0 1.459.047 3.021.144 4.688h4.384v1.641h-4.313c.144 2.761.647 4.949 1.51 6.563.334.521.646.781.934.781.239 0 .407-.208.503-.625 0-.156.023-.442.072-.859.095-.729.167-1.301.215-1.719.144.053.383.131.719.234.288.156.503.261.647.313 0 .209-.024.521-.072.938-.048.678-.144 1.328-.288 1.953-.288 1.094-.862 1.641-1.725 1.641-.959 0-1.773-.625-2.443-1.875-.959-1.666-1.51-4.114-1.653-7.344h-3.522v6.172l2.947-1.719v.156c.047.469.144.99.288 1.563l-.862.469c-1.199.57-2.062 1.038-2.588 1.403zm3.594-9.688c-.048-1.406-.072-2.916-.072-4.531-1.15.053-2.252.131-3.306.234v4.297h3.378zm-.504 11.25c-.479-.781-1.006-1.537-1.581-2.266l1.222-.703c.575.469 1.174 1.198 1.797 2.188l-1.438.781zm10.708-2.812c-.959.938-1.725 1.77-2.3 2.5l-.791-1.797c.239-.208.67-.598 1.294-1.172.479-.469.814-.807 1.006-1.016v-5.938h-2.156v-1.797h3.809v7.656c.91 1.459 2.228 2.161 3.953 2.109 3.066.104 6.229.104 9.488 0l-.216.938c-.144.364-.24.651-.288.859-1.054 0-2.659-.027-4.815-.078-2.3 0-3.858-.027-4.672-.078-1.773-.051-3.21-.78-4.312-2.186zm.36-11.172c-.431-.781-1.198-2.004-2.3-3.672l1.366-.781c.239.313.67.886 1.294 1.719.575.781.981 1.355 1.222 1.719l-1.582 1.015zm1.94 1.406v-1.719h4.457c.047-.989.072-2.422.072-4.297h1.725c0 1.563-.025 2.996-.072 4.297h5.175v1.719h-5.247c-.097 1.146-.288 2.188-.575 3.125l.791-.703c.479.469 1.341 1.355 2.587 2.656 1.197 1.25 2.036 2.136 2.516 2.656l-1.366 1.25c-.862-1.041-2.444-2.786-4.744-5.234-.719 1.928-2.253 3.725-4.6 5.391-.335-.52-.719-1.041-1.15-1.563 3.114-2.031 4.719-4.557 4.815-7.578h-4.384zm32.478-33.811c-1.84 4.668-3.182 7.918-4.025 9.75l-2.875-1.5v4.375h7.935v3.75h-27.255v-3.75h8.05v-4.375l-3.45 1.5c-.69-2.25-1.84-5.582-3.45-10-.385-1.082-.652-1.875-.805-2.375l3.22-1.25c.383.918.958 2.418 1.725 4.5 1.303 3.334 2.223 5.834 2.76 7.5v-14.75h-7.475v-4h26.105v4h-7.36v14.125c.306-.75.766-1.916 1.38-3.5 1.38-3.5 2.415-6.166 3.105-8l3.335 1.5c-.23.584-.537 1.418-.92 2.5zm-14.07 38.108v2.734h-2.444v-2.734h2.444zm0 5.781v2.578h-2.444v-2.578h2.444zm-.305-50.514v19.25h3.565v-19.25h-3.565zm18.919 51.452h1.509v-15.859h-1.078c-.623 1.667-2.037 3.047-4.241 4.141v1.641c1.485-.625 2.755-1.458 3.81-2.5v12.577zm15.523-3.828h-2.012v3.828h-1.438v-3.828h-6.613v-.938l6.9-11.094h1.15v10.625h2.012v1.407zm-3.737-8.75c-.767 1.094-2.3 3.542-4.6 7.344h4.888v-8.047c0 .053-.049.156-.145.313-.047.155-.095.286-.143.39zm8.624 3.671v-2.422h-2.229v2.422h2.229zm0 8.672v-2.266h-2.229v2.266h2.229zm11.93-7.5c-.048 5.209-1.605 7.864-4.672 7.969-3.21-.052-4.815-2.708-4.815-7.969.048-5.26 1.629-7.969 4.744-8.125 3.114.105 4.695 2.813 4.743 8.125zm-1.653 0c0-4.531-1.055-6.77-3.163-6.719-1.965.156-2.972 2.396-3.019 6.719 0 4.48 1.03 6.693 3.091 6.641 2.06.053 3.091-2.161 3.091-6.641zm12.864 0c-.048 5.209-1.605 7.864-4.672 7.969-3.21-.052-4.815-2.708-4.815-7.969.048-5.26 1.629-7.969 4.744-8.125 3.114.105 4.695 2.813 4.743 8.125zm-1.653 0c0-4.531-1.055-6.77-3.163-6.719-1.965.156-2.972 2.396-3.019 6.719 0 4.48 1.03 6.693 3.091 6.641 2.06.053 3.091-2.161 3.091-6.641zm21.78-1.25c.096 4.531-.672 8.047-2.3 10.547-.24-.313-.672-.808-1.294-1.484.766-1.197 1.27-2.447 1.51-3.75.239-1.197.359-3.047.359-5.547v-5.859h6.684l-.574-1.875 1.94-.234c0 .053.023.156.071.313.191.781.359 1.381.504 1.797h6.037v6.094h-12.937v-.002zm0-4.453v2.813h11.213v-2.813h-11.213zm1.15 15v-7.969h11.571v7.969h-1.653v-1.25h-8.266v1.25h-1.652zm1.652-6.406v3.75h8.266v-3.75h-8.266zm12.146-2.188v-1.484h1.078v-6.641h1.797c.048-.26.119-.598.216-1.016.047-.469.096-.807.144-1.016l1.581.078-.503 1.953h2.516v14.453c.048 1.301-.527 1.953-1.725 1.953-.288.051-.839.078-1.653.078 0-.105-.048-.287-.144-.547-.049-.469-.097-.833-.144-1.094h.359c.431.051.766.051 1.006 0 .671.051.981-.208.935-.781v-5.938h-3.019c.095 3.75-.336 6.614-1.294 8.594-.097-.105-.264-.234-.503-.391-.336-.313-.575-.547-.719-.703.813-1.666 1.197-4.166 1.149-7.5h-1.077zm2.444-6.64v5.156h3.019v-5.156h-3.019zm1.366 4.14c-.24-.729-.552-1.614-.935-2.656l1.078-.547c.096.261.216.6.359 1.016l.647 1.641-1.149.546zm.143 7.032c-.336-.989-.695-1.953-1.078-2.891l1.078-.547.432 1.172c.335.678.575 1.25.719 1.719l-1.151.547zm6.541-4.532c.144 3.906-.647 6.77-2.372 8.594-.144-.156-.359-.365-.646-.625-.288-.261-.504-.469-.647-.625.862-.938 1.438-1.875 1.726-2.813.239-.938.359-2.447.359-4.531v-2.969h5.605v8.75c0 .417.216.625.647.625h.216c.383.051.599-.208.646-.781.144-.885.216-1.979.216-3.281.19.105.455.209.79.313.191.053.335.105.432.156-.048 1.459-.144 2.605-.287 3.438-.145 1.198-.744 1.797-1.797 1.797h-.719c-1.15.051-1.702-.574-1.653-1.875v-7.5h-2.516v1.327zm-2.804-5.468v-1.641h3.738c-.145-.416-.385-1.067-.719-1.953-.097-.313-.169-.52-.216-.625l1.725-.391 1.007 2.969h3.521v1.641h-9.056zm16.028 5.781v2.734h-2.444v-2.734h2.444zm0 5.781v2.578h-2.444v-2.578h2.444zm22.648.781v-1.328h-7.547c.622-1.354 1.916-2.813 3.881-4.375 2.54-1.875 3.738-3.828 3.594-5.859-.191-2.656-1.629-4.036-4.313-4.141-2.348-.051-3.929 1.199-4.743 3.75l1.438.781c.526-1.926 1.533-2.942 3.019-3.047 1.916.053 2.898 1.016 2.947 2.891.047 1.406-1.007 2.969-3.163 4.688-2.108 1.667-3.618 3.542-4.528 5.625v1.016h9.415zm10.918 0v-1.328h-7.547c.622-1.354 1.916-2.813 3.881-4.375 2.54-1.875 3.738-3.828 3.594-5.859-.191-2.656-1.629-4.036-4.313-4.141-2.348-.051-3.929 1.199-4.743 3.75l1.438.781c.526-1.926 1.533-2.942 3.019-3.047 1.916.053 2.898 1.016 2.947 2.891.047 1.406-1.007 2.969-3.163 4.688-2.108 1.667-3.618 3.542-4.528 5.625v1.016h9.415zm4.891-8.75v-2.422h-2.229v2.422h2.229zm0 8.672v-2.266h-2.229v2.266h2.229zm11.929-7.5c-.048 5.209-1.605 7.864-4.672 7.969-3.21-.052-4.815-2.708-4.815-7.969.048-5.26 1.629-7.969 4.744-8.125 3.115.105 4.696 2.813 4.743 8.125zm-1.652 0c0-4.531-1.055-6.77-3.163-6.719-1.965.156-2.972 2.396-3.019 6.719 0 4.48 1.03 6.693 3.091 6.641 2.06.053 3.091-2.161 3.091-6.641zm12.863 0c-.048 5.209-1.605 7.864-4.672 7.969-3.21-.052-4.815-2.708-4.815-7.969.048-5.26 1.629-7.969 4.744-8.125 3.114.105 4.696 2.813 4.743 8.125zm-1.652 0c0-4.531-1.055-6.77-3.163-6.719-1.965.156-2.972 2.396-3.019 6.719 0 4.48 1.03 6.693 3.091 6.641 2.06.053 3.091-2.161 3.091-6.641zM257.866 163.001c-.116-.062-.259-.218-.431-.469-1.093-.999-1.927-1.781-2.501-2.344l1.208-1.5c1.149.938 2.156 1.875 3.019 2.813l-1.295 1.5zm0 67.997c-.116-.062-.259-.219-.431-.469-1.093-.999-1.927-1.781-2.501-2.344l1.208-1.5c1.149.938 2.156 1.875 3.019 2.813l-1.295 1.5zm17.163-22.842c-.058.124-.086.218-.086.281-4.256-.626-7.389-1.47-9.401-2.531-2.358 1.125-5.492 2.063-9.401 2.813-.116-.313-.316-.75-.604-1.313-.173-.313-.289-.563-.345-.75 3.795-.563 6.583-1.219 8.366-1.969-1.61-1.187-3.019-2.844-4.226-4.969h-1.294v-1.781h14.231v1.875c-1.266 2.001-2.79 3.656-4.571 4.969 1.552.688 4.283 1.187 8.194 1.5-.173.312-.461.938-.863 1.875zm-19.751 100.781v-2.156h20.441v2.156h-20.441zm1.035 16.841v-2.063h18.803v2.063h-3.967v6.469h4.916v2.156h-4.916v10.031h-2.07v-10.031h-6.469c.172 4.626-1.639 8.063-5.434 10.313-.172-.188-.431-.501-.776-.938-.345-.438-.604-.75-.776-.938 3.392-1.812 5.031-4.624 4.917-8.438h-5.261v-2.156h5.261v-6.469h-4.228zm2.847-159.683c-.748 3.126-1.38 5.906-1.898 8.344l-1.811-.656c.805-3.188 1.408-5.968 1.811-8.344.229.126.747.313 1.553.563-.634-.188-.518-.156.345.093zm0 67.997c-.748 3.126-1.38 5.906-1.898 8.344l-1.811-.656c.805-3.188 1.408-5.968 1.811-8.344.229.126.747.313 1.553.563-.634-.188-.518-.156.345.093zm-.863-77.278c-.92-1.062-1.811-2-2.674-2.813l1.294-1.406c.919.813 1.839 1.72 2.76 2.719l-1.38 1.5zm0 67.997c-.92-1.063-1.811-2-2.674-2.813l1.294-1.406c.919.813 1.839 1.72 2.76 2.719l-1.38 1.5zm-2.588-26.686v-4.5h3.708c-.058-.188-.172-.437-.345-.75-.345-.624-.806-1.406-1.38-2.344l1.983-.469c.057.126.201.375.432.75.574 1.063.977 1.813 1.208 2.25l-1.639.563h9.229c.862-1.374 1.609-2.719 2.243-4.031l1.983.656c-.116.25-.345.625-.69 1.125-.172.25-.604 1-1.293 2.25h4.14v4.5h-1.983v-2.625h-15.525v2.625h-2.071zm.346 78.501v-21.281h7.159v2.063l-1.897 5.813c1.322 1.688 1.983 3.469 1.983 5.344.057 1.938-.776 3.063-2.501 3.375-.576.126-1.208.188-1.897.188 0-.124-.03-.281-.086-.469-.172-.938-.317-1.53-.431-1.781.69.063 1.264.063 1.725 0 .919-.062 1.35-.593 1.293-1.594.057-1.437-.604-3.062-1.984-4.875l1.812-6.094h-3.277v19.313h-1.899zm18.371-87.876c-5.061.313-10.983.531-17.768.656 0-.062-.03-.188-.086-.375-.058-.688-.144-1.187-.259-1.5 6.094 0 11.989-.219 17.682-.656l.431 1.875zm-17.768 103.78v-2.25h17.681v2.25h-17.681zm.949 7.969v-2.25h15.784v2.25h-15.784zm1.984-142.373v-1.969h3.364c-.289-.812-.604-2-.949-3.563l1.897-.281c.057.375.201.938.431 1.688.229.876.401 1.594.518 2.156h-.086 2.156v1.969h-4.054l-.086 3.375h3.881c0 .876-.029 2.188-.086 3.938-.058 2.688-.116 4.626-.173 5.813 0 1.812-.806 2.719-2.415 2.719-.517.062-1.064.094-1.639.094l-.345-1.969h1.293c.977.062 1.437-.375 1.38-1.313 0-.375.028-.968.086-1.781.115-2.625.172-4.5.172-5.625h-2.242v.469c-.116 4.563-.979 8.156-2.587 10.781l-1.466-1.406c1.437-2 2.213-5.156 2.329-9.469.115-1.625.172-3.5.172-5.625h-1.551zm0 67.997v-1.969h3.364c-.289-.812-.604-2-.949-3.563l1.897-.281c.057.375.201.938.431 1.688.229.876.401 1.594.518 2.156h-.086 2.156v1.969h-4.054l-.086 3.375h3.881c0 .876-.029 2.188-.086 3.938-.058 2.688-.116 4.626-.173 5.813 0 1.812-.806 2.719-2.415 2.719-.517.062-1.064.094-1.639.094l-.345-1.969h1.293c.977.062 1.437-.375 1.38-1.313 0-.375.028-.969.086-1.781.115-2.625.172-4.5.172-5.625h-2.242v.469c-.116 4.563-.979 8.156-2.587 10.781l-1.466-1.406c1.437-2 2.213-5.156 2.329-9.469.115-1.625.172-3.5.172-5.625h-1.551zm8.97 38.503c-.518 4.813-2.559 8.813-6.124 12-.345-.563-.834-1.219-1.466-1.969 4.024-3.062 6.124-7.969 6.296-14.719 0-.624.028-1.655.086-3.094v-2.344h2.07c0 1.875-.03 3.407-.086 4.594.518 7.313 2.76 12.345 6.728 15.094l-1.466 2.063c-3.394-2.813-5.406-6.687-6.038-11.625zm-3.019-60.97c1.725-1.063 3.162-2.375 4.313-3.938h-8.194c1.149 1.814 2.443 3.127 3.881 3.938zm-2.933 122.122v6.469h6.469v-6.469h-6.469zm2.502-132.34c-.403-1.125-.834-2.188-1.294-3.188l1.984-.469c.459.938.862 2.001 1.208 3.188l-1.898.469zm2.242-26.405v-1.875h3.537v-1.313l2.329-2.625h-4.83v-1.406l-.604.938c-.403-.437-.893-.905-1.466-1.406 1.38-2.063 2.472-4.468 3.277-7.219l1.984.281c-.345 1-.69 1.969-1.035 2.906h5.434v1.875h-6.21c-.345.75-.748 1.5-1.208 2.25h6.728v1.969l-2.587 3v.75h3.277v1.875h-3.277v4.594c.057 1.688-.748 2.531-2.415 2.531-.806.062-1.552.094-2.243.094 0-.188-.058-.438-.172-.75-.058-.563-.116-.97-.172-1.219h1.984c.862.062 1.264-.313 1.208-1.125v-4.125h-3.539zm0 67.996v-1.875h3.537v-1.313l2.329-2.625h-4.83v-1.406l-.604.938c-.403-.437-.893-.905-1.466-1.406 1.38-2.063 2.472-4.468 3.277-7.219l1.984.281c-.345 1-.69 1.969-1.035 2.906h5.434v1.875h-6.21c-.345.75-.748 1.5-1.208 2.25h6.728v1.969l-2.587 3v.75h3.277v1.875h-3.277v4.594c.057 1.688-.748 2.531-2.415 2.531-.806.062-1.552.094-2.243.094 0-.188-.058-.438-.172-.75-.058-.563-.116-.97-.172-1.219h1.984c.862.062 1.264-.313 1.208-1.125v-4.125h-3.539zm10.72-77.746v-1.875h2.501c.287-1.125.546-2.187.776-3.188l1.898.188c-.058.375-.202 1-.432 1.875-.172.501-.288.876-.345 1.125h4.398v1.875h-4.916c-.806 2.875-1.41 4.875-1.812 6h2.501v-4.594h1.639v4.594h2.329v1.875h-2.329v3l2.587-.375c-.058.75-.086 1.406-.086 1.969l-2.501.281v4.594h-1.897v-4.406c-1.552.188-2.99.375-4.313.563l-.172-2.063c.401 0 1.063-.062 1.984-.188 1.091-.062 1.926-.125 2.501-.188v-3.188h-3.967v-1.875l.259-.844c.459-1.5.919-3.218 1.38-5.156h-1.983zm10.522 39.155c-2.415 1.188-5.75 2.219-10.005 3.094-.058-.313-.23-.781-.518-1.406-.058-.313-.116-.53-.172-.656 3.623-.563 6.497-1.313 8.625-2.25-1.38-.938-2.617-2.156-3.709-3.656-.92 1.125-1.983 2.188-3.191 3.188-.403-.624-.776-1.187-1.122-1.688 2.415-1.937 4.399-4.25 5.951-6.938l2.156.375c-.403.688-.834 1.313-1.293 1.875h10.695v2.156c-1.668 2.001-3.421 3.563-5.261 4.688 1.782.813 4.456 1.406 8.021 1.781-.116.313-.289.75-.518 1.313l-.259.844c-3.966-.626-7.1-1.533-9.4-2.72zm-10.436 27.529v-1.969h6.986v1.969h-2.501v5.438h2.243v1.875h-2.243v5.719c.287-.062.718-.188 1.294-.375l1.293-.281c0 .625.028 1.313.086 2.063-.748.188-1.927.501-3.536.938-1.553.375-2.732.656-3.537.844l-.345-2.063 2.76-.656v-6.188h-2.415v-1.875h2.415v-5.438h-2.5zm0 51.346v-2.063h8.107v-18.75h2.243v6.75h8.539v2.25h-8.539v9.75h10.177v2.063h-20.527zm22.209 25.092c-.116.251-.258.72-.431 1.406-4.083-.75-7.245-1.781-9.487-3.094-2.301 1.376-5.636 2.595-10.005 3.656-.058-.312-.23-.812-.518-1.5-.116-.312-.202-.563-.259-.75 3.45-.624 6.411-1.5 8.884-2.625-1.38-1.062-2.617-2.344-3.709-3.844-.979 1.125-2.07 2.188-3.277 3.188-.172-.188-.403-.499-.69-.938-.172-.375-.317-.624-.431-.75 2.644-2.063 4.657-4.406 6.037-7.031l2.156.469c-.403.563-.776 1.125-1.121 1.688h10.264v1.969c-1.552 2.126-3.307 3.876-5.261 5.25 2.126 1.063 4.83 1.751 8.107 2.063l-.259.843zm-17.058 40.092c0 2.188-.748 3.812-2.243 4.875l-.776-.844c1.035-.813 1.581-2.031 1.639-3.656h-1.466v-3.094h2.846v2.719zm-2.305-131.872v-9.094h14.749v9.094h-1.983v-1.313h-10.781v1.313h-1.985zm15.05 101.999c-4.428-1-9.028-1.907-13.8-2.719l.776-2.063c.287.063.747.157 1.38.281 5.348 1.063 9.458 1.813 12.334 2.25l-.69 2.251zm-13.066-109.218v4.219h10.781v-4.219h-10.781zm2.76 29.03v-1.969h12.851v1.969h-4.054v8.531c-.058.625.229.938.863.938h.69c.632 0 .977-.313 1.035-.938.056-.5.143-1.5.258-3l1.294.563c.172.063.287.094.345.094-.058.438-.145 1.157-.259 2.156-.058.438-.086.75-.086.938-.23 1.437-1.064 2.156-2.501 2.156h-1.294c-1.61.062-2.387-.75-2.329-2.438v-9h-2.501c0 .438-.03 1.031-.086 1.781 0 .876-.029 1.469-.086 1.781-.058 3.563-1.582 6.469-4.571 8.719-.172-.251-.518-.626-1.035-1.125l-.518-.563c2.76-1.749 4.14-4.093 4.14-7.031.115-.938.172-2.124.172-3.563h-2.328zm2.846-36.248c1.667-.875 3.306-2.156 4.917-3.844h-9.315c1.494 1.75 2.96 3.032 4.398 3.844zm6.08 111.092c-2.76-.75-5.981-1.437-9.66-2.063l.69-1.969c2.816.501 6.037 1.157 9.66 1.969l-.69 2.063zm4.357-145.654c-.23.375-.576 1.063-1.035 2.063-2.358-1.812-4.169-3.968-5.434-6.469-1.38 2.376-3.278 4.563-5.693 6.563-.116-.249-.375-.718-.776-1.406-.173-.188-.289-.343-.345-.469 2.875-2.124 4.917-4.718 6.124-7.781l2.07.281-.431.938c1.38 2.75 3.219 4.843 5.52 6.28zm-8.497 136.748c1.782-1.125 3.306-2.499 4.571-4.125h-8.884c1.265 1.688 2.703 3.064 4.313 4.125zm-3.665-72.407v-1.969h10.522v1.969h-10.522zm4.485-49.997c-2.014 0-3.019-1.063-3.019-3.188v-9.563h1.897v4.125c1.84-1.062 3.593-2.344 5.261-3.844l1.208 1.688c-2.128 1.688-4.284 3.157-6.469 4.406v2.719c-.058 1.125.518 1.655 1.725 1.594h1.984c1.149 0 1.782-.53 1.897-1.594.172-.999.287-2.063.345-3.188.69.25 1.322.469 1.897.656-.173 1.563-.375 2.782-.604 3.656-.23 1.688-1.323 2.531-3.277 2.531h-2.845zm14.983 167.183c-1.725.75-3.825 1.625-6.296 2.625-.058-.126-.172-.344-.345-.656-.23-.438-.403-.782-.518-1.031 2.529-.812 4.571-1.624 6.124-2.438l1.035 1.5zm-6.123-15.468v-1.594h8.452v-1.969h2.07v1.969h8.366v1.594h-8.366v1.5h7.245v1.5h-7.245v1.5h9.142v1.688h-9.574.173c-1.151.501-2.962 1.157-5.434 1.969 2.127 0 4.14-.062 6.038-.188 1.208-.499 2.385-1.031 3.536-1.594l1.639 1.219c-3.221 1.376-6.9 2.782-11.04 4.219.517 0 1.322-.03 2.415-.094 3.219-.062 5.548-.124 6.986-.188l-1.639-1.313 1.208-1.031c1.897 1.376 3.536 2.625 4.917 3.75l-1.294 1.219-1.38-1.125-5.434.094v2.813c.056 1.749-.806 2.625-2.588 2.625-.518.062-1.38.094-2.587.094 0-.188-.058-.438-.172-.75-.058-.501-.116-.876-.172-1.125h2.156c.977.062 1.437-.344 1.38-1.219v-2.344l-5.434.188c-.288 0-.662.032-1.121.094-.461 0-.834.032-1.121.094l-.69-1.688c.518-.124 1.236-.312 2.156-.563-.116 0-.03-.03.259-.094 1.552-.563 3.162-1.187 4.83-1.875-3.163.126-5.146.22-5.951.281l-.604-1.594c.69-.124 1.38-.312 2.07-.563.115-.062.315-.155.604-.281.804-.249 1.667-.593 2.587-1.031h-7.159v-1.688h9.229v-1.5h-7.331v-1.5h7.331v-1.5h-8.453zm.921-130.56v-2.063h2.847v-3.469l-2.501.094c-.058-.75-.144-1.406-.259-1.969 2.472-.062 4.858-.188 7.159-.375l.259 1.875-2.76.281v3.563h2.76v2.063h-2.76v2.813l.69-.75 1.38 1.5c.574.625 1.005 1.125 1.294 1.5l-1.38 1.406c-.288-.375-.69-.905-1.208-1.594-.345-.437-.604-.781-.776-1.031v9.656h-1.897v-9.656c-.576 1.875-1.41 3.719-2.501 5.531l-.518-1.406c-.172-.375-.289-.656-.345-.844 1.322-1.937 2.415-4.313 3.277-7.125h-2.761zm-.086-36.717v-1.969h2.329v-4.219h1.897v4.219h1.984v1.969h-1.984v4.313l2.07-.844c0 .625.028 1.282.086 1.969l-2.156.938v7.125c.057 1.625-.633 2.468-2.07 2.531-.23 0-.576.031-1.035.094h-.776c-.116-.813-.259-1.563-.431-2.25h1.466c.69 0 1.005-.281.949-.844v-5.906l-2.415 1.031-.259-2.25 1.553-.563c.518-.188.891-.312 1.121-.375v-4.969h-2.329zm3.881 108.374c.172 4.376-.69 7.655-2.588 9.844-.403-.438-.949-.906-1.639-1.406 1.667-1.749 2.415-4.562 2.243-8.438v-5.156h18.457v1.781h-16.473v3.375zm-1.725-7.219v-4.594h1.983v2.813h5.52v-3.656h1.984v3.656h5.434v-2.813h1.984v4.594h-16.905zm3.795-21.065c0 2.187-.748 3.812-2.243 4.875l-.776-.844c1.035-.813 1.581-2.032 1.639-3.656h-1.466v-3.094h2.846v2.719zm-1.995 53.657v-2.156h19.837v2.156h-7.676c-.862 1.563-1.783 3.032-2.76 4.406h1.466v14.063h-2.243v-13.031c-2.07 2.625-4.715 5.126-7.935 7.5-.058-.062-.144-.188-.259-.375-.518-.812-.892-1.343-1.121-1.594 4.83-3.312 8.25-6.968 10.264-10.969h-9.573zm1.564-24.717v-1.781h13.369v1.781h-5.692v2.906h7.245v1.781h-7.245v4.5h-2.07v-4.5h-7.159v-1.781h7.159v-2.906h-5.607zm3.45-94.687c-.403.312-.834.656-1.293 1.031l-1.208-1.781c.518-.5.776-1.25.776-2.25v-15.656c4.427-.188 8.539-.53 12.334-1.031l.517 1.969c-.23 0-.547.032-.948.094-1.151.126-2.501.25-4.054.375 0 1.75.057 3.625.172 5.625h5.261v1.969h-5.175c.172 3.313.776 5.938 1.811 7.875.402.625.776.938 1.121.938.287 0 .488-.249.604-.75 0-.188.028-.53.086-1.031.115-.875.201-1.562.259-2.063.173.063.46.157.862.281.346.188.604.313.776.375 0 .25-.029.625-.086 1.125-.058.813-.173 1.594-.345 2.344-.346 1.313-1.035 1.969-2.07 1.969-1.151 0-2.128-.75-2.933-2.25-1.151-2-1.811-4.937-1.983-8.813h-4.227v7.406l3.536-2.063v.188c.057.563.173 1.188.345 1.875l-1.035.563c-1.436.687-2.471 1.248-3.103 1.686zm4.398 35.78v-7.5h-2.933v1.125h-1.811v-11.438h4.744v-4.5h1.811v4.5h4.744v11.438h-1.897v-1.125h-2.847v7.5h-1.811zm-.086-47.405c-.058-1.688-.086-3.5-.086-5.438-1.38.063-2.704.157-3.968.281v5.156h4.054zm-2.846 31.562v6.375h2.933v-6.375h-2.933zm2.243-18.062c-.576-.938-1.208-1.844-1.897-2.719l1.466-.844c.69.563 1.408 1.437 2.156 2.625l-1.725.938zm5.288 169.152c-.058 0-.144-.032-.259-.094-2.531-1.188-4.485-2.063-5.865-2.625l.949-1.5c.69.313 1.839.844 3.45 1.594 1.322.501 2.213.844 2.674 1.031l-.949 1.594zm.059-151.09h-2.847v6.375h2.847v-6.375zm4.561 111.842c-2.761-2.438-5.033-4.313-6.814-5.625l1.38-1.594c.518.375 1.293.97 2.329 1.781 2.127 1.626 3.68 2.813 4.657 3.563l-1.552 1.875zm-1.774 22.467v-2.063h6.555c.057-.124.144-.375.259-.75.229-.375.518-1.062.863-2.063l2.242.281c-.345.938-.69 1.781-1.035 2.531h11.213v2.063h-12.248c-.058.126-.172.345-.345.656-.173.313-.518.876-1.035 1.688h11.385v12.094c.115 1.875-.834 2.813-2.846 2.813h-3.364c-.115-.625-.259-1.281-.431-1.969h3.019c1.149.125 1.667-.344 1.553-1.406v-1.219h-10.264v4.969h-2.07v-11.062c-.921 1.125-1.955 2.188-3.105 3.188-.402-.687-.719-1.374-.948-2.063 2.588-2.374 4.628-4.937 6.124-7.688h-5.522zm4.664-61.996c-.115-.062-.258-.218-.431-.469-1.093-.999-1.927-1.781-2.501-2.344l1.207-1.5c1.149.938 2.156 1.875 3.019 2.813l-1.294 1.5zm.864-93.75c-1.151 1.125-2.07 2.124-2.761 3l-.948-2.156c.287-.249.805-.718 1.553-1.406.574-.563.977-.968 1.207-1.219v-7.125h-2.587v-2.156h4.571v9.188c1.091 1.75 2.673 2.593 4.743 2.531 3.679.125 7.475.125 11.385 0l-.259 1.125c-.172.437-.288.781-.345 1.031-1.266 0-3.191-.032-5.778-.094-2.761 0-4.63-.032-5.606-.094-2.128-.063-3.854-.937-5.175-2.625zm.43 34.655c-.402.312-.748.718-1.035 1.219l-1.293-1.406c.345-.563.518-1.187.518-1.875v-8.063h-2.243v-1.969h4.227v9.188c.518-.563 1.235-1.406 2.156-2.531.114.313.259.719.432 1.219l.258.844c-.575.563-1.495 1.594-2.76 3.094.918-1.126.832-1.032-.26.28zm-3.795 20.123v-1.969h11.213c0-.563-.03-1.313-.086-2.25v-1.594h2.069c0 1.063.028 2.344.086 3.844h7.159v1.969h-7.072v.75c.172 3.188.518 5.813 1.035 7.875 1.149-1.875 2.156-3.999 3.019-6.375l1.897.844c-1.438 3.313-2.847 5.969-4.227 7.969.345.813.776 1.563 1.294 2.25.46.501.891.75 1.294.75.401.062.689-.249.862-.938.173-.938.315-2.03.432-3.281.518.313 1.121.563 1.811.75-.23 1.875-.489 3.188-.776 3.938-.345 1.313-1.093 1.969-2.242 1.969-1.266.062-2.358-.782-3.277-2.531-.23-.313-.489-.688-.776-1.125-1.093 1.249-2.387 2.499-3.881 3.75-.576-.75-1.035-1.313-1.38-1.688l.172-.188c.574-.438.978-.72 1.208-.844-1.61.124-3.997.437-7.159.938-1.207.188-2.07.312-2.587.375l-.346-1.969c1.437-.188 4.399-.594 8.884-1.219.632-.062 1.092-.125 1.38-.188-.058.313-.058.782 0 1.406v.563c1.322-1.313 2.271-2.344 2.847-3.094-.748-2.563-1.237-5.844-1.467-9.844v-.469c-.058-.188-.086-.313-.086-.375h-11.3zm3.795 42.066c-.748 3.126-1.38 5.906-1.897 8.344l-1.811-.656c.804-3.188 1.408-5.968 1.811-8.344.229.126.747.313 1.553.563-.634-.189-.518-.156.344.093zm-.862-9.282c-.92-1.062-1.812-1.999-2.674-2.813l1.294-1.406c.919.813 1.84 1.72 2.76 2.719l-1.38 1.5zm.862-100.968c-.518-.938-1.438-2.405-2.76-4.406l1.639-.938c.287.375.805 1.063 1.553 2.063.689.938 1.178 1.626 1.466 2.063l-1.898 1.218zm.259 33.905c-.288-.437-.776-1.125-1.466-2.063l-1.553-1.969 1.639-1.125c.345.375.891 1 1.639 1.875l1.553 1.969-1.812 1.313zm-2.76 44.404v-7.781h7.935v7.781h-7.935zm1.898-6v4.125h4.14v-4.125h-4.14zm1.035 29.972v-1.969h3.363c-.288-.812-.604-1.999-.948-3.563l1.897-.281c.057.375.2.938.431 1.688.229.876.402 1.594.518 2.156h-.086 2.156v1.969h-4.054l-.086 3.375h3.881c0 .876-.029 2.188-.086 3.938-.059 2.688-.116 4.626-.173 5.813 0 1.813-.806 2.719-2.415 2.719-.518.062-1.064.094-1.639.094l-.345-1.969h1.294c.977.062 1.437-.375 1.38-1.313 0-.375.028-.968.086-1.781.114-2.625.173-4.5.173-5.625h-2.243v.469c-.115 4.563-.979 8.156-2.587 10.781l-1.467-1.406c1.437-1.999 2.213-5.156 2.329-9.469.114-1.624.173-3.499.173-5.625h-1.552zm-.869 71.09v2.438h10.264v-2.438h-10.264zm0 4.219v2.438h10.264v-2.438h-10.264zm9.494-129.904c-1.897 1.187-4.256 2.218-7.072 3.094-.173-.375-.548-1.031-1.122-1.969 2.989-.812 5.176-1.655 6.556-2.531-1.38-1.313-2.646-3.249-3.795-5.813l.345-.188h-1.121v-1.969h12.161v2.156c-1.438 2.688-2.876 4.626-4.313 5.813 1.609 1 3.622 1.75 6.037 2.25-.461.687-.806 1.343-1.034 1.969-2.819-.813-5.033-1.75-6.642-2.812zm5.887 104.249c-2.07.062-3.076-.97-3.019-3.094v-5.25c-.748 3.813-3.854 6.875-9.315 9.188-.345-.438-.775-1.094-1.293-1.969 3.622-1.5 6.037-3.094 7.244-4.781 1.265-1.624 1.926-4.155 1.984-7.594l.086-3.188h2.07l-.173 3.469c0 1.438-.115 2.719-.345 3.844h1.812v5.813c-.059 1.125.431 1.688 1.466 1.688h2.329c1.207 0 1.839-.563 1.897-1.688.114-.375.229-1.249.345-2.625v-.281l1.035.281c.459.188.776.313.948.375-.115 1.125-.259 2.156-.431 3.094-.289 1.875-1.438 2.78-3.45 2.719h-3.19zm-12.615-150.247v-2.063h5.348c.057-1.187.086-2.906.086-5.156h2.07c0 1.875-.03 3.595-.087 5.156h6.21v2.063h-6.296c-.116 1.375-.345 2.625-.689 3.75l.948-.844c.574.563 1.609 1.626 3.105 3.188 1.437 1.5 2.443 2.563 3.019 3.188l-1.639 1.5c-1.035-1.25-2.933-3.343-5.692-6.281-.863 2.313-2.704 4.469-5.521 6.469-.403-.624-.862-1.25-1.38-1.875 3.737-2.438 5.663-5.468 5.778-9.094h-5.26zm4.313 30.342c.173 2.376-.949 4.219-3.364 5.531-.115-.125-.316-.375-.604-.75l-.776-.844c2.07-.938 3.02-2.405 2.847-4.406v-2.156h9.056v4.031c-.058.813.315 1.188 1.122 1.125h1.897l-.259 2.063h-2.415c-1.553 0-2.329-.781-2.329-2.344v-2.906h-5.175v.656zm-2.738 113.343v-13.875h15.438v13.406h-1.983v-11.344h-11.471v11.813h-1.984zm1.703-105.093c1.035 2.063 2.185 3.656 3.45 4.781 1.437-1.187 2.674-2.78 3.709-4.781h-7.159zm2.588 70.907v-1.875h3.536v-1.313l2.328-2.625h-4.829v-1.406l-.604.938c-.402-.437-.892-.905-1.466-1.406 1.38-2.063 2.472-4.468 3.277-7.219l1.983.281c-.345 1.001-.689 1.969-1.034 2.906h5.434v1.875h-6.21c-.346.75-.748 1.5-1.208 2.25h6.728v1.969l-2.587 3v.75h3.277v1.875h-3.277v4.594c.056 1.688-.748 2.531-2.415 2.531-.807.062-1.553.094-2.243.094 0-.188-.058-.438-.172-.75-.059-.563-.116-.97-.173-1.219h1.983c.863.062 1.265-.313 1.208-1.125v-4.125h-3.536zm5.26-45.253c-.689-.75-1.496-1.562-2.415-2.438l1.38-1.031c.287.25.69.625 1.208 1.125.632.563 1.092.97 1.38 1.219l-1.553 1.125zm4.996 100.124h-2.329l.432 6.656h1.466l.431-6.656zm.635-132.153v-1.781h3.623c-.116-.563-.317-1.406-.604-2.531-.115-.437-.202-.75-.259-.938l1.897-.375c.115.375.259.97.432 1.781.229.876.373 1.5.432 1.875l-.604.188h2.847v1.781h-4.313v3.375h3.795c0 1.063-.029 2.625-.086 4.688 0 2.25-.03 3.813-.087 4.688 0 2.25-.862 3.375-2.587 3.375-.518.062-1.093.094-1.726.094 0-.188-.058-.532-.172-1.031-.059-.438-.116-.782-.173-1.031h1.553c.919.124 1.38-.375 1.38-1.5.114-2.563.173-5.03.173-7.406h-2.156v.469c0 4.813-.835 8.468-2.502 10.969l-1.38-1.406c1.38-2.188 2.07-5.344 2.07-9.469l.173-5.813h-1.726zm.173 38.029v-1.688h7.072c.114-.125.259-.343.432-.656.345-.437.574-.781.689-1.031l2.07.375c-.345.438-.634.876-.862 1.313h10.522v1.688h-5.606c1.38 1.626 3.392 2.906 6.037 3.844-.345.563-.661 1.188-.948 1.875-3.163-1.374-5.578-3.281-7.245-5.719h-4.054c-1.61 2.001-4.17 3.844-7.677 5.531-.288-.624-.604-1.219-.948-1.781 2.588-1.063 4.6-2.312 6.037-3.75h-5.519zm-.259 28.191v-1.969h6.986v1.969h-2.501v5.438h2.242v1.875h-2.242v5.719c.286-.062.718-.188 1.293-.375l1.294-.281c0 .626.028 1.313.086 2.063-.747.188-1.927.501-3.536.938-1.552.375-2.731.656-3.536.844l-.345-2.063 2.76-.656v-6.188h-2.415v-1.875h2.415v-5.438h-2.501zm0-85.031v-2.156h20.441v2.156h-20.441zm3.419 150.964h-2.415l.517 6.656h1.467l.431-6.656zm-2.039-167.37v-2.25h17.682v2.25h-17.682zm16.905 81.121c-4.83 2.562-10.207 4.28-16.129 5.156-.058-.188-.173-.501-.345-.938-.23-.438-.375-.75-.432-.938 5.576-.688 10.838-2.281 15.784-4.781l1.122 1.501zm-.776-10.5c-.173-.188-.461-.437-.862-.75-.173-.188-.317-.313-.432-.375-1.266 0-3.221.032-5.865.094-2.876 0-4.802.032-5.778.094-.634 0-1.294.063-1.984.188l-.862-1.781c.805-.313 1.495-.656 2.07-1.031 1.264-.75 2.788-1.937 4.571-3.563l2.329.656c-1.669 1.251-3.45 2.531-5.348 3.844h4.054c2.299-.062 3.909-.094 4.83-.094-.403-.313-.979-.781-1.726-1.406-.288-.249-.518-.437-.689-.563l1.294-1.125c1.149.813 2.846 2.063 5.088 3.75.287.25.518.438.69.563l-1.38 1.499zm-15.18-62.653v-2.25h15.783v2.25h-15.783zm13.11 70.435c-4.025 2.001-8.107 3.438-12.247 4.313-.346-.75-.604-1.28-.776-1.594 4.369-.938 8.366-2.312 11.988-4.125l1.035 1.406zm-2.415-2.625c-2.76 1.313-5.722 2.438-8.884 3.375-.115-.313-.316-.75-.604-1.313-.116-.125-.173-.219-.173-.281 2.989-.75 5.865-1.781 8.625-3.094l1.036 1.313zm-1.504 105.561c-1.726 2.063-3.45 3.938-5.176 5.625-.345-.375-.862-.876-1.552-1.5 1.897-1.749 3.593-3.563 5.088-5.438l1.64 1.313zm-6.297-10.406v-2.063h5.521c.518-1.062 1.005-2.124 1.466-3.188l2.329.281c-.403.938-.862 1.907-1.38 2.906h12.42v2.063h-13.455c-.979 2.001-1.984 3.844-3.019 5.531h5.951v-4.219h2.156v4.219h7.417v2.063h-7.417v5.813c.114 2.312-.921 3.437-3.105 3.375-.461.062-1.466.094-3.019.094-.116-.813-.259-1.563-.432-2.25.633.062 1.523.094 2.674.094 1.208.062 1.782-.53 1.726-1.781v-5.344h-8.28v-2.344c1.035-1.624 2.012-3.375 2.933-5.25h-4.486zm2.367-63.028v-1.969h12.852v1.969h-4.054v8.531c-.059.626.229.938.862.938h.689c.633 0 .978-.312 1.035-.938.057-.499.144-1.5.259-3l1.294.563c.173.063.287.094.345.094-.058.438-.144 1.157-.259 2.156-.058.438-.086.75-.086.938-.23 1.438-1.064 2.156-2.501 2.156h-1.294c-1.61.062-2.387-.75-2.329-2.438v-9h-2.501c0 .438-.029 1.031-.086 1.781 0 .876-.03 1.47-.087 1.781-.058 3.563-1.582 6.469-4.571 8.719-.172-.25-.517-.625-1.034-1.125l-.518-.563c2.76-1.749 4.14-4.093 4.14-7.031.114-.938.173-2.124.173-3.563h-2.329zm-.194 37.655v-1.688h3.019v-1.875h1.726v1.875h2.674v1.688h-2.674v2.063l.431-.656c.805.626 1.667 1.345 2.588 2.156l-1.035 1.406c-.23-.249-.547-.563-.948-.938-.461-.437-.807-.75-1.035-.938v5.438h-1.726v-5.906c-.862 1.563-1.897 2.938-3.104 4.125-.059-.188-.145-.501-.259-.938-.173-.437-.288-.75-.345-.938 1.494-1.374 2.674-3 3.536-4.875h-2.848zm3.471-111.28c-.402.876-1.15 2.001-2.242 3.375l-1.38-1.5c1.667-1.875 2.902-4.031 3.709-6.469l1.983.188c-.345.938-.69 1.813-1.035 2.625h8.625v1.781h-9.66zm5.499 107.342v-4.875h-6.985v2.906h-1.812v-4.406h8.797v-1.313h-7.849v-1.5h17.768v1.5h-8.021v1.313h8.883v4.406h-1.897v-2.906h-6.985v4.875h-1.899zm-2.911-93.749v-7.031l-2.501.563v6.469c-.116 1.313.487 1.905 1.811 1.781h3.968c1.207.062 1.897-.375 2.07-1.313 0-.125.028-.281.086-.469 0-.249.086-.812.259-1.688.518.25 1.035.469 1.553.656 0 .813-.145 1.656-.432 2.531-.23 1.374-1.266 2.03-3.104 1.969h-5.089c-1.956.062-2.904-.907-2.847-2.906v-6.656l-1.207.281-.173-1.875 1.38-.281v-2.719h1.726v2.344l2.501-.563v-3.844h1.725v3.469l4.399-.938c0 1.938-.059 3.876-.173 5.813 0 1.688-.662 2.563-1.983 2.625-.518.063-1.065.094-1.64.094-.058-.249-.115-.594-.172-1.031-.116-.313-.173-.563-.173-.75h1.294c.69 0 1.035-.375 1.035-1.125.114-1.25.172-2.375.172-3.375l-2.76.563v7.406h-1.725zm-4.744 53.564v-1.969h10.522v1.969h-10.522zm1.876 37.56v-1.125h4.571v1.125h-4.571zm0 2.157v-1.031h4.571v1.031h-4.571zm5.175 12.937v-11.438h10.522v11.438h-1.811v-1.125h-6.986v1.125h-1.725zm1.726-9.937v1.688h6.986v-1.688h-6.986zm0 2.906v1.688h6.986v-1.688h-6.986zm0 3v1.5h6.986v-1.5h-6.986zm6.882 36.529c-.172-.188-.489-.501-.948-.938-1.897-1.812-3.364-3.155-4.399-4.031l1.381-1.5c1.494 1.251 3.334 2.906 5.52 4.969l-1.554 1.5zm-4.899-47.592v-1.125h4.571v1.125h-4.571zm0 2.157v-1.031h4.571v1.031h-4.571zm8.25-70.533c-.059 7.313-1.352 12.469-3.882 15.469-.288-.375-.775-.938-1.466-1.688 2.242-2.813 3.363-7.438 3.363-13.875 0-.249.028-.5.087-.75h-2.76v-1.969h2.76c.057-1.313.086-2.687.086-4.125h1.897v4.125h4.83c0 2.875-.086 7.125-.259 12.75v1.594c-.058 2.25-.979 3.343-2.76 3.281-.806.062-1.639.094-2.501.094 0-.188-.059-.563-.173-1.125-.058-.501-.116-.844-.173-1.031h1.984c1.091.062 1.639-.53 1.639-1.781.172-2.75.259-6.688.259-11.813h-2.933l.002.844zm7.59-22.279c-1.841 1.374-4.14 2.655-6.9 3.844-.345-.626-.748-1.313-1.207-2.063 2.587-.875 4.743-1.969 6.469-3.281-1.897-2.063-3.394-4.719-4.485-7.969-.288 5.063-1.983 9.407-5.089 13.031l-.775-.844c-.346-.438-.604-.75-.776-.938 3.047-3.188 4.627-7.749 4.743-13.688l.173-3.375h-3.623v-1.969h15.698v2.156l-2.331 4.221h4.313v2.063c-1.323 3.126-2.847 5.563-4.571 7.313 1.781 1.313 3.968 2.25 6.555 2.813-.115.188-.288.53-.518 1.031-.288.563-.517.968-.689 1.219-2.704-.939-5.033-2.127-6.987-3.564zm-11.903-49.092v-2.156h19.406v2.156h-5.951v15.563h6.555v1.969h-20.613v-1.969h6.469v-15.563h-5.866zm3.192 12.468c-.921-3-1.984-6.062-3.191-9.188l1.812-.656c.632 1.563 1.552 4.125 2.76 7.688l.518 1.406-1.899.75zm1.725 107.625c-1.841-.188-2.876-1.281-3.104-3.281.172-2.124 1.207-3.281 3.104-3.469 1.954.188 3.019 1.345 3.191 3.469-.173 2-1.237 3.093-3.191 3.281zm0-5.344c-1.093.126-1.696.813-1.812 2.063.115 1.063.719 1.655 1.812 1.781 1.149-.126 1.781-.718 1.897-1.781-.116-1.249-.748-1.937-1.897-2.063zm-1.022 57.403v-2.063h9.66c-.116-.499-.375-1.28-.776-2.344-.172-.499-.288-.844-.345-1.031l2.329-.281c.172.501.459 1.313.862 2.438.172.563.315.97.431 1.219h8.107v2.063h-12.592c0 .813-.059 2.001-.173 3.563.114-1.125.114-1.031 0 .281h10.178c-.059 1.438-.173 3.563-.345 6.375-.059.813-.087 1.376-.087 1.688-.058 2.813-1.524 4.187-4.398 4.125h-3.623c-.115-.688-.259-1.375-.431-2.063h3.536c1.781.062 2.73-.844 2.847-2.719 0-.249.028-.656.086-1.219.114-1.812.172-3.188.172-4.125h-8.107c-.23 4.5-2.242 8.124-6.037 10.875-.806-.876-1.352-1.438-1.639-1.688 3.737-2.499 5.635-6 5.692-10.5.114-1.875.173-3.405.173-4.594h-5.52zm2.23-138.341c0 .625-.059 1.532-.173 2.719.114-.812.114-.718 0 .281l.518-.563c1.494 4.5 3.306 7.813 5.434 9.938 1.609-1.562 2.902-3.53 3.881-5.906h-4.484v-2.063l2.501-4.406h-7.677zm1.81-33.811v15.563h3.536v-15.563h-3.536zm.433 141.247v-1.969h3.709v-3.375c-.345 0-.893.032-1.639.094-.69 0-1.237.032-1.639.094 0-.249-.059-.593-.173-1.031-.058-.437-.115-.75-.172-.938 3.852-.249 6.669-.469 8.452-.656l.431 1.969c-1.093.063-2.214.157-3.363.281v3.563h3.622v1.969h-3.622v3.094l.69-.844c.229.251.573.595 1.034 1.031.978.938 1.695 1.657 2.156 2.156l-1.293 1.594-.863-.938c-.748-.874-1.323-1.5-1.725-1.875v9.281h-1.897v-10.031c-.806 2.188-1.927 4.219-3.363 6.094-.231-.812-.489-1.594-.776-2.344 1.608-1.937 2.902-4.343 3.881-7.219h-3.45zm2.931-54.969v-19.219h8.021v19.219h-1.983v-2.156h-4.14v2.156h-1.898zm1.898-17.157v13.031h4.14v-13.031h-4.14zm6.296-65.84c-.862 2.376-2.07 5.47-3.622 9.281l-1.726-.938c1.149-2.625 2.329-5.656 3.536-9.094l1.812.751zm-.603 150.81v-19.219h9.143v19.125h-1.983v-1.969h-5.262v2.063h-1.898zm1.898-17.25v13.125h5.262v-13.125h-5.262zm4.777-95.249c-1.208-1.25-2.387-2.344-3.536-3.281l1.38-1.5c.518.438 1.321 1.125 2.415 2.063.518.438.919.782 1.207 1.031l-1.466 1.687zm-.605 33.623c-.115-.062-.258-.219-.431-.469-1.093-.999-1.927-1.781-2.501-2.344l1.207-1.5c1.149.938 2.156 1.875 3.019 2.813l-1.294 1.5zm1.036-62.184c-.345 1.813-1.093 3.718-2.242 5.719l-1.639-1.5c.977-1.625 1.609-3.249 1.897-4.875.345-1.562.518-3.812.518-6.75v-7.406c6.094-.188 11.644-.563 16.646-1.125l.776 2.156c-4.83.438-9.949.782-15.353 1.031v3h16.301v1.969h-16.301v.375c.001 3.187-.201 5.657-.603 7.406zm-3.622 106.124v-2.156h20.441v2.156h-20.441zm3.88-40.846c-.748 3.126-1.38 5.906-1.897 8.344l-1.811-.656c.804-3.188 1.408-5.968 1.811-8.344.229.126.747.313 1.553.563-.634-.188-.518-.156.344.093zm.863-33.998c-.747 2.438-1.552 5.219-2.414 8.344l-2.07-.75c.977-2.687 1.812-5.499 2.501-8.438.631.25 1.293.531 1.983.844zm-1.034-8.813c-.634-.688-1.61-1.655-2.933-2.906-.173-.188-.317-.313-.432-.375l1.38-1.5c.401.375 1.006.906 1.812 1.594l1.725 1.594-1.552 1.593zm-.691 33.53c-.92-1.063-1.812-2-2.674-2.813l1.294-1.406c.919.813 1.84 1.72 2.76 2.719l-1.38 1.5zm-1.639 33.721v-2.25h17.682v2.25h-17.682zm.95 7.969v-2.25h15.783v2.25h-15.783zm1.983-40.378v-1.969h3.363c-.288-.812-.604-2-.948-3.563l1.897-.281c.057.375.2.938.431 1.688.229.876.402 1.594.518 2.156h-.086 2.156v1.969h-4.054l-.086 3.375h3.881c0 .876-.029 2.188-.086 3.938-.059 2.688-.116 4.626-.173 5.813 0 1.812-.806 2.719-2.415 2.719-.518.062-1.064.094-1.639.094l-.345-1.969h1.294c.977.062 1.437-.375 1.38-1.313 0-.375.028-.969.086-1.781.114-2.625.173-4.5.173-5.625h-2.243v.469c-.115 4.563-.979 8.156-2.587 10.781l-1.467-1.406c1.437-2 2.213-5.156 2.329-9.469.114-1.625.173-3.5.173-5.625h-1.552zm-.538 98.718v-1.688h20.183v1.688h-9.833l-.604 1.5h8.366v9.469h-10.178l-1.294 1.406h11.299v1.781c-1.38 1.125-2.876 2.063-4.484 2.813 1.897.313 4.168.563 6.813.75-.288.688-.518 1.313-.69 1.875-4.025-.501-6.957-1.094-8.797-1.781-2.358.875-5.578 1.594-9.66 2.156-.116-.313-.316-.75-.604-1.313-.059-.25-.116-.407-.173-.469 2.588-.313 5.231-.719 7.936-1.219-1.035-.499-2.329-1.313-3.882-2.438-1.035.813-2.214 1.594-3.536 2.344-.173-.188-.432-.53-.776-1.031-.172-.249-.288-.405-.345-.469 2.242-1.062 4.227-2.531 5.951-4.406h-3.45v-9.469h5.434l.432-1.5h-8.108zm2.78-135.06c-.058-.688-.144-1.344-.259-1.969 4.944-.125 9.344-.343 13.196-.656l.259 1.969c-1.897.063-3.795.156-5.692.281v3.75h6.555v1.969h-6.555v3.656h5.175v9.75h-1.983v-1.313h-8.453v1.313h-1.984v-9.75h5.175v-3.656h-6.382v-1.969h6.382v-3.563l-5.434.188zm-.603-15.342v-10.031h12.852v10.031h-1.984v-1.406h-8.884v1.406h-1.984zm1.983-8.063v4.875h8.884v-4.875h-8.884zm.067 161.371v1.406h11.902v-1.406h-11.902zm0 2.625v1.406h11.902v-1.406h-11.902zm0 2.531v1.5h11.902v-1.5h-11.902zm.796-132.247v4.781h8.452v-4.781h-8.452zm5.758 140.404c1.609-.687 3.104-1.437 4.484-2.25h-8.797c1.264.937 2.703 1.687 4.313 2.25zm-2.48-106.031v-1.875h3.536v-1.313l2.328-2.625h-4.829v-1.406l-.604.938c-.402-.437-.892-.905-1.466-1.406 1.38-2.063 2.472-4.468 3.277-7.219l1.983.281c-.345 1-.689 1.969-1.034 2.906h5.434v1.875h-6.21c-.346.75-.748 1.5-1.208 2.25h6.728v1.969l-2.587 3v.75h3.277v1.875h-3.277v4.594c.056 1.688-.748 2.531-2.415 2.531-.807.062-1.553.094-2.243.094 0-.188-.058-.438-.172-.75-.059-.563-.116-.97-.173-1.219h1.983c.863.062 1.265-.313 1.208-1.125v-4.125h-3.536zm7.71 65.095v-6.188h-6.813v3.188h-1.897v-4.781h8.711v-1.688h-7.504v-1.594h16.905v1.594h-7.417v1.688h8.797v4.781h-1.983v-3.188h-6.813v6.188h-1.986zm-7.935 9.563v-1.688h15.266v-1.781h-14.403v-1.5h14.403v-1.969h-14.921v-1.594h16.905v9.375h-1.984v-.844h-15.266zm2.415-12.938v-1.313h4.398v1.313h-4.398zm0 2.719v-1.219h4.398v1.219h-4.398zm11.202-137.217c-.689 1.251-1.438 2.438-2.242 3.563-.115-.437-.23-.968-.345-1.594l-.259-1.125c1.954-3.062 3.536-6.687 4.744-10.875l2.069.563c-.633 1.938-1.294 3.719-1.983 5.344v16.5h-1.984v-12.376zm-2.673 63.028v-1.875h2.501c.287-1.125.546-2.188.776-3.188l1.897.188c-.059.375-.202 1-.432 1.875-.172.501-.288.876-.345 1.125h4.398v1.875h-4.916c-.806 2.875-1.41 4.875-1.812 6h2.502v-4.594h1.639v4.594h2.328v1.875h-2.328v3l2.587-.375c-.058.75-.086 1.406-.086 1.969l-2.501.281v4.594h-1.897v-4.406c-1.553.188-2.991.375-4.313.563l-.173-2.063c.401 0 1.063-.062 1.983-.188 1.092-.062 1.926-.125 2.502-.188v-3.188h-3.968v-1.875l.259-.844c.459-1.5.919-3.219 1.38-5.156h-1.981zm-.086-29.029v-1.969h10.005v1.969h-4.484c-1.035 2.751-2.014 5.25-2.933 7.5.401 0 1.035-.062 1.897-.188 1.322-.062 2.299-.125 2.933-.188-.173-.5-.432-1.187-.776-2.063-.345-.938-.604-1.625-.776-2.063l1.639-.656c.632 1.5 1.523 3.719 2.674 6.656 1.553-2.188 2.357-5.874 2.415-11.063 0-.188.028-.406.086-.656v-.656h-2.674v-1.969h2.674c.057-1.5.087-3.062.087-4.688h1.983c-.058 1.438-.086 3-.086 4.688h5.52c-.116 7.188-.23 11.751-.345 13.688-.059 2.25-1.035 3.405-2.933 3.469h-2.933c-.116-.813-.259-1.532-.432-2.156h2.588c1.208.062 1.781-.53 1.725-1.781.229-3.938.346-7.688.346-11.25h-3.623v1.406c0 6.25-1.466 11.031-4.398 14.344-.23-.126-.575-.345-1.035-.656l-.776-.563c.346-.375.776-.876 1.294-1.5.173-.249.287-.406.345-.469l-1.639.375c-.058-.188-.144-.375-.259-.563-.575.063-1.323.126-2.242.188-1.438.126-2.531.22-3.277.281-.69.063-1.294.156-1.812.281l-.776-1.781c.402-.375.776-.905 1.121-1.594.863-2 1.609-4.125 2.243-6.375h-3.366zm.69 61.532v-2.156h19.406v2.156h-5.951v15.563h6.555v1.969h-20.613v-1.969h6.469v-15.563h-5.866zm-.422 38.967v-1.313h4.398v1.313h-4.398zm0 2.719v-1.219h4.398v1.219h-4.398zm3.613-29.217c-.921-3-1.984-6.062-3.191-9.188l1.812-.656c.632 1.563 1.552 4.125 2.76 7.688l.518 1.406-1.899.75zm-2.846-80.282v-1.969h8.193v1.969h-8.193zm21.948 152.403c-.288 1.374-.978 2.063-2.069 2.063-1.38.062-2.474-1.063-3.277-3.375-1.151 1.374-2.156 2.469-3.02 3.281-.345-.438-.806-.906-1.38-1.406 1.437-1.249 2.674-2.655 3.709-4.219-.575-2.312-.979-6.03-1.207-11.156h-9.401v4.781c.114 5.751-.634 9.812-2.243 12.188-.461-.375-.978-.782-1.552-1.219.804-1.375 1.321-2.813 1.552-4.313.287-1.374.432-3.53.432-6.469v-6.75h11.126c0-.437-.029-1.062-.086-1.875v-1.781h1.897c0 .438.028 1.063.086 1.875v1.781h3.019c-.747-.874-1.438-1.594-2.069-2.156l1.38-.656c.805.75 1.522 1.5 2.156 2.25l-1.035.563h2.415v1.781h-5.778c.057 3.438.287 6.345.689 8.719 1.035-2.063 1.868-4.343 2.501-6.844l1.812.656c-1.035 3.626-2.242 6.563-3.622 8.813l.086.281c.46 2.001 1.035 3 1.725 3 .287 0 .518-.22.69-.656.057-.624.086-.812.086-.563.115-1.374.229-2.405.346-3.094.574.313 1.121.563 1.639.75-.175 1.313-.378 2.564-.607 3.75zm-3.836-180.777c-.633-.188-1.294-.343-1.983-.469l1.294-3.469h-8.366c-.69 1.438-1.467 2.906-2.329 4.406-.575-.563-1.121-1.031-1.639-1.406 1.609-2.438 2.903-5.218 3.881-8.344l2.07.469-1.035 2.813h9.487v1.969l-1.38 4.031zm-8.107 1.594c-1.093 3.063-2.1 5.719-3.019 7.969-.634-.375-1.266-.687-1.897-.938 1.264-2.625 2.271-5.218 3.019-7.781l1.897.75zm2.801 178.902l-1.898-1.125c-1.093.999-2.617 1.969-4.57 2.906-.346-.563-.72-1.125-1.122-1.688 1.553-.499 2.933-1.249 4.141-2.25l-1.812-1.125c-.518-.312-.893-.53-1.121-.656.459-.938.891-1.969 1.294-3.094h-2.07v-1.594h2.588l.604-2.063 1.725.375-.518 1.688h3.882v1.594c-.461 1.875-1.094 3.375-1.897 4.5.632.313 1.235.656 1.811 1.031l-1.037 1.501zm-6.641-11.063v-1.594h7.59v1.594h-7.59zm13.844-103.405c-.23.375-.575 1.063-1.035 2.063-2.358-1.813-4.169-3.969-5.434-6.469-1.38 2.376-3.277 4.563-5.692 6.563-.115-.249-.374-.718-.776-1.406-.172-.188-.288-.343-.345-.469 2.875-2.124 4.916-4.719 6.124-7.781l2.069.281-.431.938c1.381 2.75 3.221 4.843 5.52 6.28zm-12.419 30.159v15.563h3.536v-15.563h-3.536zm3.277-83.531c-.517.062-1.38.094-2.587.094-.116-.813-.259-1.563-.432-2.25.518.062 1.265.094 2.243.094 1.034.062 1.522-.375 1.466-1.313v-11.438h2.07v11.813c.057 1.937-.863 2.937-2.76 3zm-.304 164.371c.747-.938 1.294-2.124 1.639-3.563h-2.76c-.173.501-.432 1.157-.776 1.969.173-.375.114-.218-.172.469l2.069 1.125zm1.771-96.655c-2.014 0-3.019-1.063-3.019-3.188v-9.563h1.897v4.125c1.839-1.063 3.593-2.344 5.261-3.844l1.208 1.688c-2.128 1.688-4.284 3.156-6.469 4.406v2.719c-.059 1.125.518 1.655 1.725 1.594h1.983c1.15 0 1.782-.53 1.897-1.594.173-.999.287-2.063.346-3.188.689.25 1.322.469 1.897.656-.173 1.563-.375 2.781-.604 3.656-.23 1.688-1.324 2.531-3.278 2.531h-2.844zm6.813 19.096c-.862 2.376-2.07 5.47-3.622 9.281l-1.726-.938c1.149-2.625 2.329-5.655 3.536-9.094l1.812.751zm-1.734 45.436c0 2.188-.748 3.812-2.242 4.875l-.776-.844c1.035-.813 1.581-2.031 1.639-3.656h-1.467v-3.094h2.847l-.001 2.719zm.527-135.435c-.69-2.063-1.669-4.688-2.933-7.875l1.811-.656c.69 1.688 1.64 4.063 2.847 7.125-.058-.125 0 .063.173.563l-1.898.843zm12.799 50.84c-1.897 4.125-4.429 7.626-7.59 10.5l-1.38-1.969c3.047-2.438 5.376-5.563 6.986-9.375l1.984.844zm-8.884-66.028v-2.063h20.873v2.063h-3.105v15c.057 2.187-.979 3.281-3.104 3.281-1.208.062-2.445.094-3.709.094-.058-.563-.202-1.313-.432-2.25 1.208.062 2.3.094 3.277.094 1.381.125 2.013-.5 1.897-1.875v-14.344h-15.697zm1.294 120.75v-20.906h18.544v20.906h-2.07v-1.5h-14.403v1.5h-2.071zm16.56-34.003l-1.38-2.063c-4.428.188-8.251.405-11.471.656-.403 0-.949.062-1.639.188-.346.062-.604.094-.776.094l-.949-1.969c.69-.375 1.294-.905 1.812-1.594 1.954-2.438 3.852-5.405 5.692-8.906l2.07 1.125c-1.841 3-3.882 6.032-6.124 9.094l7.331-.281c1.149-.062 2.041-.125 2.674-.188-.518-.624-1.266-1.625-2.242-3-.403-.563-.72-.999-.949-1.313l1.553-1.219c1.035 1.313 2.616 3.407 4.744 6.281.689.75 1.178 1.343 1.466 1.781l-1.812 1.314zm-4.737 90.843c0 .75-.059 1.406-.173 1.969h9.057c0 1.063-.059 2.063-.173 3-.058 1.376-.834 2.063-2.328 2.063h-2.674c0-.062-.03-.218-.087-.469-.115-.437-.202-.75-.259-.938.69.063 1.437.094 2.243.094.689 0 1.063-.281 1.121-.844 0-.124.028-.312.086-.563 0-.249.028-.437.086-.563h-6.641c1.035 3.126 4.11 4.906 9.229 5.344-.058.249-.202.594-.432 1.031-.172.5-.316.844-.431 1.031-5.291-.876-8.539-2.937-9.746-6.188-.748 2.563-3.767 4.655-9.057 6.281-.288-.563-.604-1.251-.948-2.063 5.059-1.249 7.877-3.062 8.452-5.438h-7.418l.949-5.438h7.245v-2.0629999999999997h-7.849v-1.688h7.849v-1.875h-9.057v-1.875h9.057v-2.063h1.983v2.063h9.229v1.875h-9.229v1.875h7.59v5.438h-7.674zm-10.788-163.058v-11.25h9.487v9.563h-7.504v1.688h-1.983zm3.795 34.092c0 2.187-.748 3.812-2.242 4.875l-.776-.844c1.035-.813 1.581-2.032 1.639-3.656h-1.467v-3.094h2.847l-.001 2.719zm8.366 64.532c-1.783.063-2.646-.844-2.588-2.719v-8.531h-2.932v4.313c.172 3.501-1.122 6.345-3.882 8.531-.461-.499-.948-.999-1.466-1.5 2.472-1.875 3.622-4.28 3.449-7.219v-4.125h-3.708v15.563h14.403v-15.563h-3.881v7.781c-.059 1.001.401 1.47 1.38 1.406h2.242c0 .251-.058.595-.172 1.031-.059.438-.116.782-.173 1.031h-2.672zm-10.177-107.906v5.719h5.521v-5.719h-5.521zm1.386 172.34l-.431 1.969h5.606c.172-.563.258-1.219.258-1.969h-5.433zm14.139-101.999c-.116.188-.202.344-.259.469-3.566-2.625-6.096-6.125-7.59-10.5l1.897-.75c1.437 4 3.795 7.031 7.072 9.094-.229.374-.602.937-1.12 1.687zm-1.028 98.249h-5.606v2.063h5.606v-2.063zm-3.434-19.092v-20.906h18.544v20.906h-2.07v-1.5h-14.403v1.5h-2.071zm13.196-7.594c-1.783.063-2.646-.844-2.588-2.719v-8.531h-2.932v4.313c.172 3.501-1.122 6.345-3.882 8.531-.461-.499-.948-.999-1.466-1.5 2.472-1.875 3.622-4.28 3.449-7.219v-4.125h-3.708v15.563h14.403v-15.563h-3.881v7.781c-.059 1.001.401 1.47 1.38 1.406h2.242c0 .251-.058.595-.172 1.031-.059.438-.116.782-.173 1.031h-2.672zm3.72-99.374v-9.188l-4.657 1.219v7.875c-.058 1.626.689 2.405 2.242 2.344h9.057c1.494 0 2.299-.563 2.415-1.688.172-.999.315-2.063.431-3.188.346.126.833.281 1.467.469.287.063.487.126.604.188-.173 1.313-.375 2.531-.604 3.656-.23 1.688-1.524 2.499-3.882 2.438h-10.177c-2.415.062-3.595-1.125-3.537-3.563v-7.969l-2.587.656-.259-2.063 2.846-.75v-5.25h1.984v4.781l4.657-1.219v-6.188h2.07v5.625l7.417-1.875c-.058 1.251-.144 3.032-.259 5.344-.058 1.125-.086 1.938-.086 2.438-.058 2.5-1.093 3.719-3.104 3.656-.518.063-1.324.094-2.415.094-.059-.437-.173-1.031-.346-1.781-.058-.188-.086-.313-.086-.375h2.242c1.208.126 1.782-.5 1.726-1.875.057-.563.114-1.531.172-2.906.057-.938.087-1.625.087-2.063l-5.348 1.406v9.75h-2.07zm-3.622 53.47c-1.669 0-2.904.032-3.709.094-.058-.624-.145-1.219-.259-1.781 6.037-.124 11.614-.312 16.732-.563l.345 1.781c-1.093.063-2.76.126-5.002.188-1.093.063-1.928.094-2.501.094v2.344h8.97v1.781h-7.59c1.954 1.5 4.657 2.625 8.107 3.375-.346.688-.662 1.313-.949 1.875-3.853-1.187-6.699-2.749-8.538-4.688v3.094h-1.984v-3c-1.841 1.938-4.688 3.563-8.539 4.875-.288-.563-.604-1.187-.948-1.875 3.45-.938 6.152-2.156 8.107-3.656h-7.676v-1.781h9.056v-2.25c-.805-.001-2.014.031-3.622.093zm-5.779 14.625v-1.781h9.746v-.844l3.45-1.781h-9.056v-1.688h12.074v1.781l-4.398 2.438v.094h8.97v1.781h-8.97v1.875c.057 1.749-.834 2.687-2.674 2.813h-3.622v-.281c-.059-.375-.173-.938-.346-1.688.69.062 1.726.094 3.105.094 1.035.062 1.522-.375 1.466-1.313v-1.5h-9.745zm.259-43.847v-1.875h15.611v1.875h-15.611zm16.214-65.84h-2.242c0-.5-.116-1.125-.345-1.875.459.063 1.178.094 2.156.094 1.092.063 1.639-.563 1.639-1.875.057-.249.086-.781.086-1.594.057-.687.086-1.219.086-1.594h-3.708c.057 3.25-1.151 5.813-3.623 7.688l-.431-.469-.949-1.031.086-.094c.057 0 .087-.031.087-.094l-.432.281c-.172-.188-.374-.5-.604-.938-.173-.312-.288-.53-.345-.656-.69.25-1.669.656-2.933 1.219-.748.313-1.323.532-1.726.656-.461.188-.92.438-1.38.75l-1.121-1.5c.46-.5.69-1.187.69-2.063v-5.344c2.874-.188 5.348-.53 7.417-1.031l.604 1.875c-2.358.501-4.398.813-6.123.938v4.313c.459-.125 1.437-.5 2.933-1.125l.775-.281c-.115-.249-.316-.656-.604-1.219-.115-.188-.202-.312-.259-.375l1.467-.75c1.207 1.813 2.098 3.281 2.674 4.406 1.321-.999 1.983-2.719 1.983-5.156h-2.07v-1.688h9.488c0 .625-.059 1.75-.173 3.375-.058.75-.086 1.282-.086 1.594.003 2.438-1.004 3.626-3.017 3.563zm.259 80.278h-3.967c-.116-.75-.259-1.5-.432-2.25.919.062 2.07.094 3.45.094 1.264.062 1.867-.5 1.812-1.688v-15.188h-16.302v-1.969h18.371v17.719c.057 2.125-.919 3.218-2.932 3.282zm-12.792 81.561h-2.329l.432 6.656h1.466l.431-6.656zm-1.784-149.277v-11.25h16.474v11.156h-1.983v-1.031h-12.506v1.125h-1.985zm0 65.278v-9.469h11.472v7.969h-9.487v1.5h-1.985zm1.984-74.746v2.625h5.261v-2.625h-5.261zm0 4.218v2.531h5.261v-2.531h-5.261zm0 67.153h7.503v-4.125h-7.503v4.125zm3.768 87.374h-2.415l.517 6.656h1.467l.431-6.656zm4.919 16.875c-.862.876-1.755 1.906-2.674 3.094l-.862-2.25c.518-.624 1.293-1.5 2.328-2.625.632-.624 1.178-.938 1.639-.938.115 0 .229.032.346.094h.259c4.369-2.813 8.279-6.03 11.729-9.656h-14.662v-2.063h8.452c-.23-.624-.604-1.562-1.121-2.813-.173-.437-.316-.75-.432-.938l2.243-.469c.459 1.063 1.005 2.407 1.639 4.031l-.604.188h7.245v2.25c-3.738 4.188-8.021 7.845-12.851 10.969 1.034 1.313 2.644 2.001 4.83 2.063 2.069.063 5.403.032 10.005-.094-.289.688-.489 1.406-.604 2.156h-5.864c-1.496-.063-2.818-.126-3.968-.188-2.703 0-4.773-.938-6.21-2.813-.289-.247-.576-.247-.863.002zm3.819-175.62h-5.261v2.625h5.261v-2.625zm-5.26 4.218v2.531h5.261v-2.531h-5.261zm10.233 121.748c-1.669 0-2.904.032-3.709.094-.058-.624-.145-1.219-.259-1.781 6.037-.124 11.614-.312 16.732-.563l.345 1.781c-1.093.063-2.76.126-5.002.188-1.093.063-1.928.094-2.501.094v2.344h8.97v1.781h-7.59c1.954 1.5 4.657 2.625 8.107 3.375-.346.688-.662 1.313-.949 1.875-3.853-1.187-6.699-2.749-8.538-4.688v3.094h-1.984v-3c-1.841 1.938-4.688 3.563-8.539 4.875-.288-.563-.604-1.187-.948-1.875 3.45-.938 6.152-2.156 8.107-3.656h-7.676v-1.781h9.056v-2.25c-.806-.001-2.014.032-3.622.093zm-5.779 14.625v-1.781h9.746v-.844l3.45-1.781h-9.056v-1.688h12.074v1.781l-4.398 2.438v.094h8.97v1.781h-8.97v1.875c.057 1.749-.834 2.687-2.674 2.813h-3.622v-.281c-.059-.375-.173-.938-.346-1.688.69.062 1.726.094 3.105.094 1.035.062 1.522-.375 1.466-1.313v-1.5h-9.745zm7.903-148.56v-1.969h5.865c.46-.999.833-2.03 1.121-3.094l2.156.281c-.172.438-.402 1.063-.689 1.875-.173.438-.288.75-.345.938h11.815v1.969h-12.678c-.633 1.5-1.552 3.188-2.76 5.063v12.281h-1.983v-9.75c-.748.813-1.582 1.688-2.502 2.625-.288-.687-.604-1.406-.948-2.156 2.588-2.499 4.571-5.187 5.951-8.063h-5.003zm6.21 77.934c-2.645.25-4.773.531-6.382.844l-.604-1.969c.518-.375 1.005-.875 1.466-1.5.69-.938 1.437-2.03 2.242-3.281-1.266.063-2.387.156-3.363.281l-.518-1.875c.229-.188.518-.563.862-1.125.114-.188.201-.313.259-.375 1.208-2 2.242-3.999 3.105-6l2.069.75c-1.266 2.25-2.617 4.438-4.054 6.563 1.265 0 2.185-.031 2.76-.094.46-.75.892-1.5 1.294-2.25l1.812.844c-1.955 3.126-3.681 5.719-5.175 7.781.459-.062 1.207-.155 2.242-.281.919-.062 1.609-.125 2.07-.188-.057.563-.085 1.188-.085 1.875zm-.431 4.781c-1.955.124-4.084.437-6.383.938l-.345-1.969c.69-.125 1.753-.281 3.191-.469 1.839-.249 3.248-.469 4.226-.656-.058.501-.086 1.188-.086 2.063h-.173 1.726v-18.375h10.35v18.375h1.726v1.781h-14.231v-1.688h-.001zm2.242 35.034c-.345-.375-.92-.906-1.725-1.594-.518-.499-.893-.874-1.121-1.125-.979 1.251-2.531 2.719-4.658 4.406-.461-.563-.948-1.157-1.466-1.781 2.07-1.249 3.593-2.593 4.571-4.031-1.208-1.249-2.387-2.344-3.536-3.281.574-2.187 1.063-4.437 1.466-6.75h-2.328v-2.063h2.673c.229-1.5.432-3 .604-4.5l2.156.188c-.173 1.438-.403 2.876-.69 4.313h4.744v1.969c-.403 4.438-1.208 7.688-2.415 9.75 1.092.938 2.185 1.907 3.277 2.906l-1.552 1.593zm-8.883-85.063v-2.063h20.873v2.063h-3.105v15c.057 2.187-.979 3.281-3.104 3.281-1.208.062-2.445.094-3.709.094-.058-.563-.202-1.313-.432-2.25 1.208.062 2.3.094 3.277.094 1.381.124 2.013-.5 1.897-1.875v-14.344h-15.697zm2.329 14.531v-11.25h9.487v9.563h-7.504v1.688h-1.983zm3.277 64.626c.919-1.875 1.553-4.624 1.897-8.25h-3.019c-.23 1.313-.634 3.126-1.208 5.438-.058.313-.115.532-.172.656l2.502 2.156zm-1.294-73.907v5.719h5.521v-5.719h-5.521zm2.847-30.061v-1.969h5.261v-4.406h1.984v4.406h5.261v1.969h-5.261v6.188h6.382v1.875h-14.662v-1.875h6.296v-6.188h-5.261zm1.59 165.871v-1.969h3.19v-3.281c-.288 0-.748.032-1.38.094-.575 0-1.035.032-1.38.094 0-.188-.058-.437-.172-.75-.059-.499-.116-.874-.173-1.125 2.242-.188 4.714-.437 7.417-.75l.346 1.969c-.921.063-1.869.157-2.847.281v3.469h2.415v.844c1.38-2.124 2.529-4.655 3.45-7.594l1.983.375-1.035 2.813h8.453v1.969l-1.294 3.75c-.345-.124-.806-.281-1.38-.469-.23 0-.403-.03-.518-.094l1.207-3.281h-7.331c-.575 1.313-1.266 2.657-2.069 4.031-.289-.312-.72-.718-1.294-1.219l-.173-.188v1.031h-2.415v1.594c.978.75 1.954 1.563 2.933 2.438l-.949 1.5c-.689-.687-1.352-1.313-1.983-1.875v10.031h-1.812v-9.563c-.748 1.938-1.639 3.72-2.673 5.344-.059-.249-.173-.624-.346-1.125-.115-.437-.23-.78-.345-1.031 1.38-2.25 2.472-4.688 3.277-7.313h-3.102zm2.032-107.624v4.313h6.383v-4.313h-6.383zm0 6.093v4.313h6.383v-4.313h-6.383zm0 6.188v4.219h6.383v-4.219h-6.383zm.604 40.19v-19.125h8.452v18.844h-1.984v-1.688h-4.484v1.969h-1.984zm1.984-17.062v13.031h4.484v-13.031h-4.484zm6.85 74.183c-.633 2.063-1.524 4.781-2.674 8.156l-1.812-.844c.978-2.374 1.868-4.999 2.674-7.875l1.812.563zm-1.921-36.716c-.23-.624-.518-1.28-.862-1.969 1.437-1.688 2.587-3.687 3.449-6l1.897.281c-.172.313-.374.75-.604 1.313l-.259.563h3.882v1.781l-1.38 2.438h2.328v10.781h-8.193v-9.563l-.258.375zm6.381 13.125c-3.048.249-5.347.469-6.899.656l-.173-2.063h1.897c3.45-.188 6.095-.375 7.936-.563v.844c-.059.375-.087.656-.087.844l-2.674.282zm-3.51 34.935h-2.415v-.188c-.059-.563-.173-1.188-.346-1.875h2.07c.862.062 1.264-.312 1.208-1.125v-12.188h1.897v12.563c.057 1.876-.747 2.813-2.414 2.813zm2.735-52.092h-2.847c-.518.876-1.064 1.688-1.639 2.438h3.104l1.382-2.438zm-3.709 4.125v2.906h1.812v-2.906h-1.812zm0 4.5v2.906h1.812v-2.906h-1.812zm5.455-137.779c-.115-.062-.258-.218-.431-.469-1.093-.999-1.927-1.781-2.501-2.344l1.207-1.5c1.149.938 2.156 1.875 3.019 2.813l-1.294 1.5zm4.227 72.403c-2.646.188-4.657.407-6.037.656l-.604-1.969.086-.094c.459-.375.833-.781 1.121-1.219.69-.875 1.466-2.03 2.329-3.469-1.61.063-2.761.188-3.45.375l-.518-1.969c.345-.249.746-.781 1.207-1.594 1.092-1.749 2.07-3.75 2.933-6l2.07.75c-1.035 2.063-2.329 4.313-3.881 6.75.459-.062 1.38-.094 2.76-.094.114-.313.345-.812.689-1.5.173-.375.315-.656.432-.844l1.897.938c-1.61 2.625-3.277 5.188-5.003 7.688l4.054-.375c-.057.627-.085 1.283-.085 1.97zm.172 4.5c-2.704.375-4.946.78-6.728 1.219l-.432-1.969c.518-.125 1.38-.281 2.588-.469 2.012-.313 3.536-.563 4.571-.75l.001 1.969zm-6.727 16.941v-1.688h20.183v1.688h-9.833l-.604 1.5h8.366v9.469h-10.178l-1.294 1.406h11.299v1.781c-1.38 1.125-2.875 2.063-4.484 2.813 1.897.313 4.168.563 6.813.75-.288.688-.518 1.313-.69 1.875-4.025-.501-6.957-1.094-8.797-1.781-2.358.875-5.578 1.594-9.66 2.156-.116-.313-.316-.75-.604-1.313-.059-.25-.116-.407-.173-.469 2.588-.313 5.231-.719 7.936-1.219-1.035-.499-2.329-1.313-3.882-2.438-1.035.813-2.214 1.594-3.536 2.344-.173-.188-.432-.53-.776-1.031-.172-.249-.288-.405-.345-.469 2.242-1.062 4.227-2.531 5.951-4.406h-3.45v-9.469h5.434l.432-1.5h-8.108zm3.622-90.75c-.748 3.126-1.38 5.906-1.897 8.344l-1.811-.656c.804-3.188 1.408-5.968 1.811-8.344.229.126.747.313 1.553.563-.635-.188-.518-.156.344.093zm-1.747 130.185h-1.811v2.906h1.811v-2.906zm-1.811 4.5v2.906h1.811v-2.906h-1.811zm2.696-143.966c-.92-1.062-1.812-2-2.674-2.813l1.294-1.406c.919.813 1.84 1.72 2.76 2.719l-1.38 1.5zm1.641 184.152c-.921-2.813-1.869-5.499-2.847-8.063l1.812-.563.518 1.406c1.092 2.938 1.897 5.095 2.415 6.469l-1.898.751zm-2.762-132.341v-19.5h5.692c.057-.313.173-.75.345-1.313.173-.75.287-1.28.346-1.594l2.328.188c-.058.375-.202.938-.431 1.688-.173.438-.289.782-.346 1.031h8.798v19.5h-2.156v-1.5h-12.506v1.5h-2.07zm2.415-50.499v-1.969h3.363c-.288-.812-.604-2-.948-3.563l1.897-.281c.057.375.2.938.431 1.688.229.876.402 1.594.518 2.156h-.086 2.156v1.969h-4.054l-.086 3.375h3.881c0 .876-.029 2.188-.086 3.938-.058 2.688-.116 4.626-.173 5.813 0 1.812-.806 2.719-2.415 2.719-.518.062-1.064.094-1.639.094l-.345-1.969h1.294c.977.062 1.437-.375 1.38-1.313 0-.375.028-.968.086-1.781.114-2.625.173-4.5.173-5.625h-2.243v.469c-.115 4.563-.979 8.156-2.587 10.781l-1.467-1.406c1.437-2 2.213-5.156 2.329-9.469.114-1.625.173-3.5.173-5.625h-1.552zm-.345 32.968v3.563h12.506v-3.563h-12.506zm0 5.344v3.562h12.506v-3.563h-12.506zm0 5.343v3.563h12.506v-3.563h-12.506zm.517 57.97v1.406h11.902v-1.406h-11.902zm0 2.625v1.406h11.902v-1.406h-11.902zm0 2.531v1.5h11.902v-1.5h-11.902zm.151 29.686v-1.969h5.52c.862-1.437 1.639-2.874 2.329-4.313l1.812.75c-.173.313-.461.782-.863 1.406-.575 1.001-1.035 1.72-1.38 2.156h3.019v1.969h-4.313v3.375h3.882v1.875h-3.882v3.469h4.658v1.969h-4.658v5.344h-1.897v-5.344h-4.313v-1.969h4.313v-3.469h-3.708v-1.875h3.708v-3.375h-4.227zm2.76-2.25c-.748-1.5-1.352-2.593-1.812-3.281l1.553-.75c.345.501.805 1.282 1.38 2.344l.518.844-1.639.843zm5.283-56.282c-1.208 2.001-2.76 4.155-4.657 6.469l-1.726-1.406c1.495-1.5 3.019-3.53 4.571-6.094l1.812 1.031zm-1.639 37.002c1.609-.687 3.104-1.437 4.484-2.25h-8.797c1.264.938 2.703 1.688 4.313 2.25zm-2.588-39.534v-11.813h10.868v11.813h-10.868zm4.833 110.343c-1.841-.188-2.876-1.281-3.104-3.281.172-2.124 1.207-3.281 3.104-3.469 1.954.188 3.019 1.345 3.191 3.469-.172 2-1.237 3.094-3.191 3.281zm-2.848-120.186v7.875h6.813v-7.875h-6.813zm1.638-56.653v-1.875h3.536v-1.313l2.328-2.625h-4.829v-1.406l-.604.938c-.402-.437-.892-.905-1.466-1.406 1.38-2.063 2.472-4.468 3.277-7.219l1.983.281c-.345 1-.689 1.969-1.034 2.906h5.434v1.875h-6.21c-.346.75-.748 1.5-1.208 2.25h6.728v1.969l-2.587 3v.75h3.277v1.875h-3.277v4.594c.057 1.688-.748 2.531-2.415 2.531-.807.062-1.553.094-2.243.094 0-.188-.058-.438-.172-.75-.059-.563-.116-.97-.173-1.219h1.983c.863.062 1.265-.313 1.208-1.125v-4.125h-3.536zm1.21 171.495c-1.093.126-1.696.813-1.812 2.063.115 1.063.719 1.655 1.812 1.781 1.149-.126 1.781-.718 1.897-1.781-.115-1.249-.747-1.937-1.897-2.063zm5.69-96.28c-1.207-1.875-2.587-3.938-4.14-6.188l1.639-1.031c1.38 1.875 2.788 3.844 4.227 5.906l-1.726 1.313zm3.841 59.657c-.863.938-1.783 1.875-2.761 2.813-.058-.124-.172-.405-.345-.844-.288-.624-.489-1.093-.604-1.406 2.242-1.749 4.168-4.187 5.778-7.313l1.897.75c-.633 1.188-1.293 2.313-1.983 3.375v11.344h-1.983v-8.719h.001zm-3.451-9.187v-1.969h5.348v-2.625h2.069v2.625h5.779v-2.625h2.07v2.625h5.347v1.969h-5.347v1.969h-2.07v-1.969h-5.779v1.688h-2.069v-1.688h-5.348zm9.65-53.376l-1.726-3.75c-.979 2.063-2.186 3.97-3.622 5.719-.116-.251-.346-.688-.69-1.313-.23-.249-.374-.437-.431-.563 1.552-1.937 2.76-4.031 3.622-6.281-.345-.688-.862-1.749-1.553-3.188l-1.552-3.094 1.552-.844 2.329 4.594c.518-1.875.862-3.999 1.035-6.375h-4.915v-2.063h6.899v2.063c-.345 3.563-.92 6.563-1.725 9 .977 1.875 1.063 2.063.259.563.805 1.5 1.552 3 2.242 4.5l-1.724 1.032zm-6.21-82.059v-1.875h2.501c.287-1.125.546-2.187.776-3.188l1.897.188c-.059.375-.202 1-.432 1.875-.172.501-.288.876-.345 1.125h4.398v1.875h-4.916c-.806 2.875-1.41 4.875-1.812 6h2.502v-4.594h1.639v4.594h2.328v1.875h-2.328v3l2.587-.375c-.058.75-.086 1.406-.086 1.969l-2.501.281v4.594h-1.897v-4.406c-1.553.188-2.991.375-4.313.563l-.173-2.063c.401 0 1.063-.062 1.983-.188 1.092-.062 1.926-.125 2.502-.188v-3.188h-3.968v-1.875l.259-.844c.459-1.5.919-3.218 1.38-5.156h-1.981zm3.104 42.061c-.806.938-1.639 1.813-2.501 2.625-.23-.75-.489-1.5-.776-2.25 2.127-1.937 4.054-4.374 5.778-7.313l1.639 1.219c-.747 1.188-1.466 2.282-2.156 3.281v11.719h-1.983v-9.281h-.001zm4.054-11.906c-2.07 2.813-4.083 5.031-6.037 6.656-.403-.938-.72-1.625-.949-2.063 2.127-1.813 3.882-3.75 5.262-5.813l1.724 1.22zm-2.059 118.124c-.518.313-.921.532-1.208.656l-1.121-2.063c1.725-.75 3.248-1.5 4.571-2.25v-6.281h2.07v4.969c1.897-1.187 3.736-2.625 5.52-4.313l1.38 1.406c-2.242 2.063-4.543 3.876-6.899 5.438v3.375c-.059 1.063.487 1.562 1.639 1.5h1.983c1.149.062 1.781-.375 1.897-1.313.173-1.062.315-2.25.432-3.563.057 0 .2.063.431.188.747.251 1.236.407 1.467.469-.116 1.688-.289 3-.518 3.938-.23 1.562-1.352 2.312-3.364 2.25h-2.933c-2.186.062-3.221-.97-3.104-3.094v-2.531c-.518.313-1.266.72-2.243 1.219zm.938-33.061c0 2.188-.748 3.812-2.242 4.875l-.776-.844c1.035-.813 1.58-2.031 1.639-3.656h-1.467v-3.094h2.847l-.001 2.719zm10.264-30.534c-1.668 0-2.501-.907-2.501-2.719v-3.75c-.807 2.563-2.963 4.937-6.469 7.125-.461-.626-.921-1.188-1.38-1.688 4.83-2.438 7.129-6.313 6.899-11.625.057-1.562.087-3 .087-4.313h1.983v1.969c-.058.938-.086 1.594-.086 1.969-.059 1.75-.23 3.281-.518 4.594h1.293v5.438c-.058.813.315 1.187 1.122 1.125h.689c.747.062 1.208-.313 1.38-1.125.057-.313.115-.812.173-1.5.057-.563.086-.969.086-1.219.862.313 1.437.531 1.726.656 0 .563-.087 1.345-.259 2.344-.059.188-.087.344-.087.469-.172 1.562-1.093 2.312-2.76 2.25h-1.378zm4.657-82.341c-.23.375-.575 1.063-1.035 2.063-2.357-1.812-4.169-3.968-5.434-6.469-1.38 2.376-3.277 4.563-5.692 6.563-.116-.249-.374-.718-.776-1.406-.172-.188-.288-.343-.345-.469 2.875-2.124 4.916-4.718 6.124-7.781l2.069.281-.431.938c1.38 2.75 3.22 4.843 5.52 6.28zm-13.11 37.28v-2.156h12.938v2.156h-3.709v7.875c.057 2.25-.979 3.375-3.105 3.375-.979.062-2.1.094-3.363.094-.173-.75-.316-1.5-.432-2.25h1.294c.747.062 1.322.094 1.726.094 1.264.062 1.867-.5 1.811-1.688v-7.5h-7.16zm.777 38.217v-13.875h10.694v13.594h-1.897v-11.625h-6.899v11.906h-1.898zm.345-45.248v-2.156h10.781v2.156h-10.781zm4.312-15.905c-2.014 0-3.019-1.063-3.019-3.188v-9.563h1.897v4.125c1.839-1.062 3.593-2.344 5.261-3.844l1.208 1.688c-2.128 1.688-4.284 3.157-6.469 4.406v2.719c-.059 1.125.518 1.655 1.725 1.594h1.983c1.15 0 1.782-.53 1.897-1.594.173-.999.287-2.063.346-3.188.689.25 1.322.469 1.897.656-.173 1.563-.375 2.782-.604 3.656-.23 1.688-1.324 2.531-3.278 2.531h-2.844zm8.444 122.217v-4.313h4.398c-.058-.062-.202-.188-.431-.375-.921-.938-1.64-1.624-2.156-2.063l1.897-.75c.286.251.775.72 1.466 1.406.69.626 1.178 1.095 1.466 1.406l-.775.375h2.846v-3.656h2.07v3.656h2.674l-.69-.375c.919-.812 1.897-1.718 2.933-2.719l1.897.656c-.518.563-1.237 1.251-2.156 2.063-.173.188-.316.313-.432.375h4.485v4.313h-2.07v-2.531h-15.438v2.531h-1.984zm1.241-64.439v-2.063h9.229v-9.469h2.07v9.469h9.314v2.063h-6.813v6.938c0 .876.488 1.313 1.467 1.313h1.725c.919.062 1.408-.343 1.466-1.219.173-.812.287-1.875.346-3.188l1.983.75c-.173 1.5-.345 2.657-.518 3.469-.288 1.562-1.323 2.312-3.104 2.25h-2.502c-1.897 0-2.846-.97-2.846-2.906v-7.406h-3.968l-.086 1.219c0 4.438-2.243 7.655-6.728 9.656-.173-.251-.461-.688-.862-1.313-.173-.313-.317-.532-.432-.656 3.909-1.374 5.894-3.999 5.951-7.875l.086-1.031h-5.778zm-.173 26.128v-2.063h20.873v2.063h-3.105v15c.057 2.188-.979 3.281-3.104 3.281-1.208.062-2.445.094-3.709.094-.058-.563-.202-1.313-.432-2.25 1.208.062 2.3.094 3.277.094 1.381.125 2.013-.499 1.897-1.875v-14.344h-15.697zm14.803 51.248h-2.502c-.115-.625-.259-1.219-.431-1.781.401.063 1.121.094 2.156.094.919.063 1.351-.343 1.294-1.219v-1.781h-5.606v6.188h-2.156v-6.188h-5.521v4.594h-1.983v-6.375h7.504v-1.875h-5.693v-5.344h13.627v5.344h-5.778v1.875h7.59v3.844c.056 1.687-.777 2.562-2.501 2.624zm-14.63-135.81v-2.063h8.107v-18.75h2.242v6.75h8.539v2.25h-8.539v9.75h10.178v2.063h-20.527zm0 33.999v-2.063h8.107v-18.75h2.242v6.75h8.539v2.25h-8.539v9.75h10.178v2.063h-20.527zm5.174 20.685c-.461-.563-1.179-1.468-2.156-2.719-.806-.999-1.38-1.719-1.725-2.156l1.466-1.313c1.495 1.626 2.847 3.22 4.054 4.781l-1.639 1.407zm-3.018 44.409v-11.25h9.487v9.563h-7.504v1.688h-1.983zm1.519 24.623v2.156h9.66v-2.156h-9.66zm.464-33.904v5.719h5.521v-5.719h-5.521zm15.008-40.003c-1.266 1.688-2.646 3.375-4.14 5.063l-1.553-1.5c1.553-1.625 2.902-3.249 4.054-4.875l1.639 1.312zm7.624-24.342c.173 4.375-.689 7.655-2.587 9.844-.403-.438-.949-.907-1.639-1.406 1.667-1.749 2.415-4.562 2.242-8.438v-5.156h18.457v1.781h-16.474v3.375h.001zm-4.054-28.561v-1.781h9.746v-.75l4.658-1.594h-12.593v-1.688h16.301v1.781l-6.21 2.25h8.884v1.781h-8.97v1.5c.057 1.749-.834 2.656-2.674 2.719h-3.45v-.281c-.058-.375-.172-.907-.345-1.594.345 0 .833.031 1.467.094h1.466c1.035.062 1.522-.344 1.466-1.219v-1.219h-9.746zm3.709 104.625c-.403.437-.748.875-1.035 1.313l-1.207-1.781c.401-.313.574-.812.518-1.5v-8.906h-1.984v-2.063h3.882v10.406c.229-.249.604-.593 1.121-1.031l1.035-1.125.259 1.688c.057.251.086.438.086.563-.863.812-1.756 1.623-2.675 2.436zm-3.622 34.748v-1.688h2.242v-5.438h16.301v5.438h2.243v1.688h-20.786zm.086-153.248v-1.781h9.401c-.059-.188-.145-.5-.259-.938-.173-.563-.317-.968-.432-1.219l2.243-.281.689 2.438h8.884v1.781h-20.526zm13.714 142.935c-.862.626-2.128 1.376-3.795 2.25-.173-.375-.489-.905-.949-1.594 1.495-.687 2.76-1.406 3.795-2.156-.748-1.437-1.294-3.155-1.639-5.156h-7.158v2.062h5.778c0 1.001-.058 2.126-.173 3.375-.058 1.688-.92 2.501-2.587 2.438-.461.063-1.237.094-2.329.094 0-.188-.029-.469-.086-.844-.059-.375-.116-.624-.173-.75h1.984c.919.063 1.408-.343 1.466-1.219 0-.188.028-.437.086-.75 0-.375.028-.624.087-.75h-4.141c-.115 2.188-.862 4.125-2.242 5.813-.23-.188-.634-.499-1.208-.938-.23-.124-.374-.218-.431-.281 1.494-1.624 2.185-3.844 2.07-6.656v-3.281h8.884c-.059-.812-.145-1.718-.259-2.719h1.897c.114 1.063.2 1.969.259 2.719h3.363c-.806-.999-1.38-1.624-1.725-1.875l1.552-.656c.805.813 1.381 1.47 1.726 1.969l-1.208.563h3.45v1.688h-6.986c.345 1.626.776 2.906 1.294 3.844.919-.75 1.954-1.969 3.105-3.656l1.38 1.031c-1.151 1.626-2.329 3-3.536 4.125.632 1.063 1.321 1.563 2.069 1.5.46.063.805-.249 1.035-.938 0-.124.057-.375.173-.75.229-.812.373-1.437.431-1.875.518.251 1.035.469 1.553.656-.058.188-.116.469-.173.844-.115.688-.288 1.406-.518 2.156-.402 1.251-1.207 1.875-2.414 1.875-1.436.062-2.672-.658-3.707-2.158zm-10.35-39.529c-1.207-1.749-2.156-3.094-2.846-4.031l1.553-1.125c1.091 1.376 2.069 2.688 2.932 3.938l-1.639 1.218zm-2.416-17.128v-21.375h18.631v21.375h-2.07v-1.125h-14.576v1.125h-1.985zm1.208-51.06v-4.594h1.983v2.813h5.521v-3.656h1.983v3.656h5.434v-2.813h1.984v4.594h-16.905zm.518-28.749v-4.969h14.921v4.969h-14.921zm.259 60.403v16.594h14.576v-16.594h-14.576zm1.207 5.531v-1.875h7.677v-2.719h1.897v2.719h2.933v1.875h-2.933v6.75c.114 2.001-.776 3-2.674 3h-1.208c-.575.063-1.007.094-1.293.094 0-.249-.059-.594-.173-1.031-.058-.437-.116-.75-.173-.938h2.156c1.035.063 1.523-.406 1.467-1.406v-5.625c-1.438 2.813-3.795 5.313-7.073 7.5-.23-.313-.604-.844-1.121-1.594l-.172-.188c2.988-1.688 5.317-3.875 6.986-6.563h-6.296zm1.38-29.31v-1.781h13.369v1.781h-5.692v2.906h7.245v1.781h-7.245v4.5h-2.07v-4.5h-7.158v-1.781h7.158v-2.906h-5.607zm-1.38 104.717v3.75h2.933v-3.75h-2.933zm.517-144.716v1.875h11.04v-1.875h-11.04zm1.467 103.781v-7.969h13.627v7.969h-13.627zm.776 13.312v-11.812h12.162v8.531c.114 2-.776 3-2.674 3h-2.761c-.115-.625-.259-1.219-.431-1.781.862.062 1.695.094 2.501.094 1.035.062 1.522-.469 1.467-1.594v-.281h-8.366v3.844h-1.898zm1.122-19.781v1.781h3.967v-1.781h-3.967zm0 3.187v1.781h3.967v-1.781h-3.967zm.776 6.375v1.781h8.366v-1.781h-8.366zm0 3.094v1.875h8.366v-1.875h-8.366zm0 34.748v3.75h3.019v-3.75h-3.019zm7.676 0h-2.933v3.75h2.933v-3.75zm1.466-47.404h-4.054v1.781h4.054v-1.781zm-4.054 3.187v1.781h4.054v-1.781h-4.054zM37.013 16.57c-.945 1.406-2.035 2.695-3.27 3.867-.219-.234-.545-.546-.98-.938l-.763-.82c2.105-1.796 3.741-4.023 4.903-6.68l2.508.234c-.292.782-.654 1.523-1.091 2.227h7.193v2.109h-5.013c.653.782 1.308 1.602 1.961 2.461l-2.18.82c-.291-.469-.801-1.172-1.525-2.109-.365-.469-.618-.82-.763-1.055l.108-.117-1.088.001zm9.482 10.782v2.578h10.79c0 1.875-.073 3.438-.219 4.688-.072 2.344-1.381 3.516-3.923 3.516h-3.706v-.352c-.072-.47-.218-1.093-.436-1.875 1.09.079 2.325.116 3.706.116 1.162.08 1.814-.469 1.962-1.641v-.938c.071-.625.108-1.055.108-1.289h-8.282v8.203h-2.508v-7.267c-2.396 2.892-5.958 5.116-10.68 6.681-.146-.234-.399-.666-.763-1.289-.218-.469-.4-.82-.545-1.055 4.504-1.173 7.81-2.931 9.917-5.273h-8.064l1.09-7.031h9.045v-2.694h-9.372v-2.227h21.36v7.148h-9.48v.001zm-9.372 0l-.437 2.578h7.302v-2.578h-6.865zm11.77-10.782c-.727 1.016-1.525 2.071-2.396 3.164-.51-.546-1.127-1.055-1.854-1.523 1.671-1.875 2.943-3.944 3.814-6.211l2.616.234c-.291.782-.618 1.523-.981 2.227h8.065v2.109h-5.667l2.07 2.461-2.07.82-.437-.469c-.945-1.172-1.635-2.069-2.071-2.695l.219-.117h-1.308zm4.686 5.86h-7.084v2.695h7.084v-2.695zm8.263 14.648v-2.695h25.394v2.695h-25.394zm1.962-18.281v-2.93h21.47v2.93h-21.47zm28.633-2.227v-2.578h22.777v2.578h-10.026c0 1.641-.072 3.867-.218 6.68h11.77v2.695h-11.225c1.234 5.625 5.049 9.298 11.443 11.016-.073.155-.219.391-.437.703l-1.09 2.109c-6.468-2.268-10.354-6.016-11.662-11.25-1.09 4.845-4.833 8.709-11.225 11.602-.146-.234-.437-.665-.872-1.289-.364-.548-.654-.979-.872-1.289 6.757-2.654 10.462-6.521 11.116-11.602h-11.005v-2.695h11.334c.07-.703.108-1.835.108-3.398.071-1.406.109-2.5.109-3.281l-10.025-.001zM138.142 33.484c.146-2.031 1.114-3.385 2.906-4.063-1.453-.729-2.229-1.901-2.325-3.516.193-2.656 1.646-4.063 4.359-4.219 2.615.208 4.044 1.615 4.287 4.219-.099 1.667-.824 2.839-2.181 3.516 1.792.729 2.736 2.136 2.834 4.22-.146 2.655-1.793 4.035-4.94 4.141-3.197-.106-4.845-1.536-4.94-4.298zm8.21.157c-.145-2.291-1.26-3.488-3.342-3.594-1.938.105-3.004 1.25-3.197 3.438.193 1.875 1.283 2.892 3.271 3.048 1.983-.158 3.074-1.121 3.268-2.892zm-.727-7.735c-.146-1.719-.993-2.656-2.543-2.813-1.599.105-2.471.99-2.616 2.656.048 1.927.92 2.942 2.616 3.047 1.599-.05 2.444-1.015 2.543-2.89zm8.063 7.11c-.243 2.137-1.09 4.192-2.543 6.172-.339-.364-.848-.858-1.524-1.483 1.063-1.146 1.768-2.37 2.106-3.672.338-1.302.508-3.308.508-6.017v-6.719h12.279v14.453c.047 1.979-.872 2.969-2.761 2.969-.63.051-1.575.078-2.833.078-.146-.574-.291-1.225-.437-1.953.679.051 1.6.078 2.762.078 1.063.051 1.572-.441 1.524-1.484v-2.422h-9.081zm.291-4.844c0 1.199-.049 2.266-.146 3.203h8.937v-3.359h-8.791v.156zm0-5.156v3.281h8.791v-3.281h-8.791zm14.171 10.468c.146-2.031 1.114-3.385 2.906-4.063-1.453-.729-2.229-1.901-2.325-3.516.193-2.656 1.646-4.063 4.359-4.219 2.616.208 4.044 1.615 4.287 4.219-.099 1.667-.824 2.839-2.18 3.516 1.792.729 2.735 2.136 2.834 4.22-.146 2.655-1.794 4.035-4.941 4.141-3.195-.106-4.842-1.536-4.94-4.298zm8.21.157c-.145-2.291-1.26-3.488-3.342-3.594-1.938.105-3.004 1.25-3.197 3.438.193 1.875 1.283 2.892 3.271 3.048 1.986-.158 3.075-1.121 3.268-2.892zm-.725-7.735c-.146-1.719-.993-2.656-2.543-2.813-1.598.105-2.47.99-2.616 2.656.048 1.927.92 2.942 2.616 3.047 1.597-.05 2.445-1.015 2.543-2.89zm5.811 13.047v-17.344h13.15v17.344h-1.744v-1.328h-9.59v1.328h-1.816zm1.817-15.625v5.391h9.59v-5.391h-9.59zm0 7.11v5.547h9.59v-5.547h-9.59z"/></svg>