<?xml version="1.0" encoding="utf-8"?>
<!-- Generator: Adobe Illustrator 16.0.0, SVG Export Plug-In . SVG Version: 6.00 Build 0)  -->
<!DOCTYPE svg PUBLIC "-//W3C//DTD SVG 1.1//EN" "http://www.w3.org/Graphics/SVG/1.1/DTD/svg11.dtd">
<svg version="1.1" id="图层_1" xmlns="http://www.w3.org/2000/svg" xmlns:xlink="http://www.w3.org/1999/xlink" x="0px" y="0px"
	 width="640px" height="750px" viewBox="0 0 640 750" enable-background="new 0 0 640 750" xml:space="preserve">
	 <style>
	 .animated {
       -webkit-animation-duration: 1s;
       animation-duration: 1s;
       -webkit-animation-fill-mode: both;
       animation-fill-mode: both;
     }

     .animated.infinite {
       -webkit-animation-iteration-count: infinite;
       animation-iteration-count: infinite;
     }
     @-webkit-keyframes bounce {
       0%, 20%, 53%, 80%, 100% {
         -webkit-animation-timing-function: cubic-bezier(0.215, 0.610, 0.355, 1.000);
         animation-timing-function: cubic-bezier(0.215, 0.610, 0.355, 1.000);
         -webkit-transform: translate3d(0,0,0);
         transform: translate3d(0,0,0);
       }

       40%, 43% {
         -webkit-animation-timing-function: cubic-bezier(0.755, 0.050, 0.855, 0.060);
         animation-timing-function: cubic-bezier(0.755, 0.050, 0.855, 0.060);
         -webkit-transform: translate3d(0, -30px, 0);
         transform: translate3d(0, -30px, 0);
       }

       70% {
         -webkit-animation-timing-function: cubic-bezier(0.755, 0.050, 0.855, 0.060);
         animation-timing-function: cubic-bezier(0.755, 0.050, 0.855, 0.060);
         -webkit-transform: translate3d(0, -15px, 0);
         transform: translate3d(0, -15px, 0);
       }

       90% {
         -webkit-transform: translate3d(0,-4px,0);
         transform: translate3d(0,-4px,0);
       }
     }

     @keyframes bounce {
       0%, 20%, 53%, 80%, 100% {
         -webkit-animation-timing-function: cubic-bezier(0.215, 0.610, 0.355, 1.000);
         animation-timing-function: cubic-bezier(0.215, 0.610, 0.355, 1.000);
         -webkit-transform: translate3d(0,0,0);
         transform: translate3d(0,0,0);
       }

       40%, 43% {
         -webkit-animation-timing-function: cubic-bezier(0.755, 0.050, 0.855, 0.060);
         animation-timing-function: cubic-bezier(0.755, 0.050, 0.855, 0.060);
         -webkit-transform: translate3d(0, -30px, 0);
         transform: translate3d(0, -30px, 0);
       }

       70% {
         -webkit-animation-timing-function: cubic-bezier(0.755, 0.050, 0.855, 0.060);
         animation-timing-function: cubic-bezier(0.755, 0.050, 0.855, 0.060);
         -webkit-transform: translate3d(0, -15px, 0);
         transform: translate3d(0, -15px, 0);
       }

       90% {
         -webkit-transform: translate3d(0,-4px,0);
         transform: translate3d(0,-4px,0);
       }
     }

     .bounce {
       -webkit-animation-name: bounce;
       animation-name: bounce;
       -webkit-transform-origin: center bottom;
       transform-origin: center bottom;
     }

	 </style>
<g class="animated bounce infinite">
	<polygon fill="#52B1DF" points="579,48 589,49.467 579,59 	"/>
	<rect x="489" y="21" fill="#7CD2FC" width="100" height="29"/>
	<path fill="#FEFEFE" d="M507.312,41.578c2.297-0.094,3.75-1.359,4.357-3.797l1.828,0.422c-0.891,3.047-2.93,4.593-6.117,4.641
		c-4.032-0.235-6.164-2.555-6.396-6.961c0.187-4.781,2.363-7.289,6.539-7.523c2.672,0.094,4.567,1.453,5.692,4.078l-1.758,0.422
		c-0.844-2.015-2.204-3.047-4.078-3.094c-2.856,0.281-4.43,2.274-4.711,5.977C502.858,39.352,504.405,41.297,507.312,41.578
		L507.312,41.578z M525.441,42.633v-1.266h-7.242V28.57h-1.617v14.063H525.441z M528.869,42.633h1.547V28.57h-1.547V42.633z
		 M540.389,41.578c2.296-0.094,3.75-1.359,4.359-3.797l1.828,0.422c-0.894,3.047-2.93,4.593-6.117,4.641
		c-4.032-0.235-6.164-2.555-6.398-6.961c0.188-4.781,2.366-7.289,6.539-7.523c2.672,0.094,4.57,1.453,5.695,4.078l-1.758,0.422
		c-0.844-2.015-2.204-3.047-4.078-3.094c-2.859,0.281-4.43,2.274-4.711,5.977C535.935,39.352,537.481,41.297,540.389,41.578
		L540.389,41.578z M559.15,42.633l-5.063-7.242l-2.812,2.813v4.43h-1.617V28.57h1.617v7.664l7.521-7.664h2.25l-5.977,5.836
		l6.258,8.227H559.15z M566.234,42.563v-2.039h-2.183v2.039H566.234z M572.758,42.563v-2.039h-2.18v2.039H572.758z M579.281,42.563
		v-2.039H577.1v2.039H579.281z"/>
</g>
<g>
	<path fill="#269CD7" d="M328,63h259c2.761,0,5,2.24,5,5v93c0,2.76-2.239,5-5,5H328c-2.761,0-5-2.24-5-5V68
		C323,65.24,325.239,63,328,63z"/>
	<path fill="#0B4B7F" d="M328,165c-2.206,0-4-1.794-4-4V68c0-2.206,1.794-4,4-4h259c2.206,0,4,1.794,4,4v93c0,2.206-1.794,4-4,4H328
		"/>
	<polygon fill="#164F93" points="583.817,165 325.816,164 325.816,88.404 583.666,159.205 	"/>
	<path fill="#184E84" d="M324,156V68c0-2.206,1.794-4,4-4h117L324,156z"/>
	<polygon fill="#184587" points="325.816,154.618 389.798,105.972 325.816,88.404 	"/>
	<path fill="#61BAF3" d="M486.602,142.912h-2.438c1.016-6.16,3.555-12.221,7.617-18.18H481.32v-2.031h13.203v1.422
		C490.121,130.217,487.48,136.48,486.602,142.912L486.602,142.912z M500.396,143.014v-1.523h4.977v-18.688h-6.805v20.211H500.396z
		 M503.748,124.529v6.602h-3.352v-6.602H503.748z M500.396,132.959h3.352v6.703h-3.352V132.959z M512.381,136.006
		c-0.812,2.844-3.285,5.281-7.414,7.313c0.271,0.338,0.711,0.914,1.32,1.727c4.469-2.438,7.109-5.449,7.922-9.039h6.703v-7.82
		h-4.773l2.539-3.352v-1.727h-6.297c0.338-0.744,0.711-1.455,1.117-2.133l-2.031-0.305c-1.016,2.438-2.676,4.74-4.977,6.906
		c0.338,0.271,0.643,0.576,0.914,0.914v7.516H512.381z M516.545,124.834l-2.539,3.352h-5.383c0.947-1.016,1.828-2.133,2.641-3.352
		H516.545z M512.787,134.279h-3.555v-4.469h4.062c0,1.625-0.137,2.98-0.406,4.063L512.787,134.279z M519.084,144.436
		c1.625,0.067,2.572-0.711,2.844-2.336c0.135-0.406,0.271-1.184,0.406-2.336c0-0.066,0-0.135,0-0.203
		c-0.609-0.203-1.152-0.406-1.625-0.609c0,0.203-0.035,0.543-0.102,1.016c-0.068,0.746-0.14,1.254-0.203,1.523
		c-0.14,0.879-0.681,1.286-1.625,1.219h-1.625c-0.949,0-1.392-0.373-1.32-1.117v-4.773h-1.828v5.078
		c-0.068,1.76,0.846,2.606,2.742,2.539L519.084,144.436L519.084,144.436z M515.123,129.811h3.961v4.469h-4.469
		c0-0.066,0.033-0.135,0.102-0.203C514.852,133.061,514.986,131.639,515.123,129.811L515.123,129.811z M525.355,137.631
		c0.135,3.59,2.438,5.45,6.903,5.586c4.4-0.136,6.703-1.93,6.906-5.383c-0.137-2.707-1.457-4.535-3.961-5.484
		c1.895-0.879,2.91-2.402,3.047-4.57c-0.34-3.385-2.336-5.213-5.992-5.484c-3.793,0.203-5.822,2.031-6.094,5.484
		c0.135,2.1,1.219,3.623,3.25,4.57C526.912,133.23,525.559,134.99,525.355,137.631L525.355,137.631z M536.832,137.834
		c-0.271,2.303-1.795,3.555-4.57,3.758c-2.774-0.203-4.301-1.523-4.567-3.961c0.27-2.844,1.76-4.332,4.469-4.469
		C535.07,133.299,536.629,134.855,536.832,137.834L536.832,137.834z M535.816,127.779c-0.14,2.438-1.32,3.691-3.558,3.758
		c-2.371-0.135-3.59-1.455-3.655-3.961c0.202-2.166,1.424-3.316,3.655-3.453C534.428,124.326,535.613,125.545,535.816,127.779
		L535.816,127.779z M553.367,124.225c0,1.693-0.068,3.725-0.203,6.094h-10.766v2.031h10.562c-0.678,4.537-4.231,8.092-10.664,10.664
		c0.406,0.406,0.879,1.016,1.422,1.828c6.229-2.574,9.783-6.127,10.664-10.664c1.219,4.875,4.875,8.328,10.969,10.359
		c0.066-0.136,0.203-0.373,0.406-0.711c0.338-0.542,0.646-0.982,0.914-1.32c-6.094-1.557-9.717-4.941-10.867-10.156h10.664v-2.031
		H555.4c0.063-1.354,0.102-3.385,0.102-6.094h9.648v-2.031h-21.33v2.031H553.367z"/>
	<path fill="#FFFFFF" d="M347.575,109.276V96.854c-0.364,0.079-0.909,0.275-1.636,0.586c-0.438,0.158-0.765,0.275-0.979,0.352
		c-0.146-0.39-0.399-0.976-0.763-1.758c-0.221-0.545-0.4-0.976-0.545-1.289c4.213-1.014,7.52-2.42,9.916-4.219h-9.045v-2.695h10.896
		v-2.344c-2.253,0-3.961,0-5.122,0c-1.309,0-2.507,0.041-3.597,0.117c-0.073-1.014-0.218-1.914-0.438-2.695
		c7.338,0,14.277-0.234,20.816-0.703l0.436,2.813c-2.834,0.079-5.85,0.196-9.046,0.352v2.461h10.898v2.695h-9.154
		c2.397,1.798,5.667,3.125,9.812,3.984c-0.073,0.234-0.221,0.547-0.438,0.938c-0.146,0.392-0.397,1.055-0.763,1.992
		c-0.438-0.077-0.98-0.234-1.635-0.469c-0.364-0.156-0.653-0.273-0.873-0.352v12.656h-3.159v-1.172h-12.533v1.172H347.575z
		 M367.848,144.342c-6.104-2.344-10.137-6.445-12.099-12.305h-4.358v8.555c0.58-0.234,1.562-0.663,2.941-1.289
		c1.453-0.624,2.578-1.093,3.379-1.406c0,0.469,0.036,1.172,0.109,2.109c0,0.782,0,1.33,0,1.641
		c-2.183,0.625-4.252,1.445-6.213,2.461c-0.512,0.156-1.198,0.507-2.07,1.055c-0.219,0.077-0.4,0.156-0.545,0.234l-1.963-3.047
		c0.652-0.469,0.979-1.366,0.979-2.695v-7.617h-3.924v-3.281h3.924v-11.25h3.378v11.25h18.2v3.281h-10.571
		c1.672,4.298,5.305,7.306,10.898,9.023L367.848,144.342z M355.422,95.331V92.05c-1.672,1.564-3.812,2.97-6.43,4.219h16.238
		c-2.765-1.093-5.016-2.538-6.76-4.336v3.398H355.422z M350.627,98.847v2.344h12.533v-2.344H350.627z M350.627,103.417v2.344h12.533
		v-2.344H350.627z M367.52,121.256c-4.067,2.188-8.354,4.298-12.857,6.328c-0.364-0.858-0.909-1.834-1.635-2.93
		c3.633-1.483,7.81-3.554,12.531-6.211L367.52,121.256L367.52,121.256z M374.822,95.917c-1.236-1.952-2.326-3.592-3.271-4.922
		l2.615-1.523c1.161,1.406,2.324,2.97,3.486,4.688L374.822,95.917z M378.637,101.073c-0.219,0.234-0.397,0.392-0.545,0.469
		c-0.365-0.859-0.617-1.562-0.764-2.109c-0.364,1.564-0.909,4.063-1.635,7.5c-0.221,1.015-0.364,1.796-0.438,2.344l-3.271-0.938
		c0.873-3.047,1.672-6.522,2.396-10.43c0.799,0.392,1.671,0.703,2.616,0.938l-0.109-0.469c2.472-1.483,4.396-3.32,5.776-5.508
		h-4.904v-2.813h4.469v-2.93h-3.379v-2.813h3.379v-2.93h2.942v2.93h4.688v-2.93h2.94v2.93h3.814v2.813H392.8v2.93h4.795v2.813
		h-5.122c1.311,2.109,3.16,3.711,5.561,4.805l-1.311,3.047c-1.599-0.938-2.939-1.952-4.029-3.047v5.625h-9.373v1.055
		c0,1.095,0.545,1.641,1.635,1.641h6.758c1.161,0,1.854-0.469,2.07-1.406c0-0.156,0.035-0.39,0.107-0.703
		c0-0.234,0.107-0.938,0.325-2.109c0.872,0.392,1.78,0.703,2.728,0.938c-0.221,1.485-0.438,2.578-0.653,3.281
		c-0.438,1.796-1.781,2.695-4.032,2.695h-8.393c-2.182,0-3.31-1.133-3.379-3.398V99.55
		C380.053,99.942,379.436,100.449,378.637,101.073L378.637,101.073z M375.477,88.065c-0.362-0.625-0.908-1.523-1.636-2.695
		c-0.653-0.938-1.163-1.679-1.522-2.227l2.725-1.523l3.378,4.688L375.477,88.065z M372.533,141.998v-19.922h1.853v16.875h1.31
		v-21.328h2.289v21.094h1.309v-16.641h1.854v21.094h-1.854v-1.406L372.533,141.998z M382.669,122.662v-2.695h5.886
		c0.07-0.78,0.108-1.641,0.108-2.578h2.942c0,0.313-0.037,0.782-0.109,1.406c0,0.548,0,0.938,0,1.172h5.668v2.695h-6.104
		c0,0.234-0.035,0.469-0.107,0.703c1.09,0.392,2.648,1.095,4.688,2.109c0.58,0.313,1.055,0.548,1.416,0.703l-1.09,2.461h1.962v2.695
		h-1.853v9.844c0.068,2.421-1.057,3.71-3.379,3.867c-0.803,0-1.963,0-3.487,0c-0.146-1.016-0.327-2.032-0.545-3.047
		c0.726,0,1.706,0,2.942,0c1.231,0.077,1.812-0.428,1.742-1.523v-9.141h-11.554v-2.695h1.744c-0.365-0.858-0.765-1.679-1.199-2.461
		c3.271-0.78,5.193-1.952,5.776-3.516L382.669,122.662L382.669,122.662z M382.887,141.529v-8.438h8.283v8.438H382.887z
		 M383.322,98.261v2.578h6.539v-2.578H383.322z M385.829,92.87c-0.582,1.016-1.198,1.954-1.854,2.813h7.084
		c-0.651-0.859-1.233-1.796-1.742-2.813H385.829z M395.747,128.639c-1.09-0.624-2.763-1.483-5.015-2.578
		c-0.51-0.234-0.871-0.428-1.092-0.586c-0.942,1.172-2.762,2.227-5.447,3.164H395.747z M385.176,87.128v2.93h4.688v-2.93H385.176z
		 M385.395,135.787v3.047h3.16v-3.047H385.395z M400.324,94.042h15.912v2.93h-15.912V94.042z M400.324,130.045h15.912v2.93h-15.912
		V130.045z M423.756,94.042c0.146,6.72-0.871,11.876-3.051,15.469c-0.292-0.392-0.837-1.016-1.635-1.875
		c-0.365-0.312-0.583-0.509-0.654-0.586c0.943-1.562,1.562-3.241,1.854-5.039c0.289-1.717,0.438-4.453,0.438-8.203v-11.25h23.977
		v2.461h-20.926L423.756,94.042L423.756,94.042z M422.448,145.279v-12.422c-0.364,0.079-0.909,0.275-1.636,0.586
		c-0.438,0.158-0.765,0.275-0.979,0.352c-0.146-0.39-0.4-0.976-0.763-1.758c-0.222-0.545-0.4-0.976-0.545-1.289
		c4.213-1.014,7.52-2.42,9.917-4.219h-9.049v-2.695h10.898v-2.344c-2.253,0-3.961,0-5.122,0c-1.308,0-2.507,0.041-3.597,0.117
		c-0.073-1.014-0.218-1.913-0.438-2.695c7.338,0,14.277-0.234,20.816-0.703l0.436,2.813c-2.834,0.079-5.85,0.196-9.046,0.352v2.461
		h10.898v2.695h-9.154c2.397,1.798,5.667,3.126,9.812,3.984c-0.073,0.234-0.221,0.548-0.438,0.938
		c-0.146,0.392-0.397,1.055-0.763,1.992c-0.438-0.077-0.98-0.234-1.637-0.469c-0.362-0.155-0.651-0.272-0.87-0.352v12.656h-3.16
		v-1.172H425.5v1.172L422.448,145.279L422.448,145.279z M424.737,88.417v-2.109h19.29v2.109h-9.594l-0.324,1.406h8.828v9.727
		h-10.789c-0.146,0.158-0.365,0.392-0.654,0.703c-0.218,0.313-0.364,0.509-0.438,0.586H442.5v2.344
		c-1.09,0.938-2.472,1.875-4.142,2.813c0.359,0,0.94,0.039,1.74,0.117c0.654,0.156,2.289,0.352,4.904,0.586
		c-0.436,0.938-0.763,1.758-0.979,2.461c-3.927-0.469-7.016-1.095-9.267-1.875c-2.544,0.938-5.994,1.679-10.354,2.227
		c-0.291-1.016-0.618-1.836-0.98-2.461c2.397-0.157,5.049-0.509,7.955-1.055c-1.163-0.625-2.288-1.366-3.378-2.227
		c-0.872,0.703-1.926,1.406-3.161,2.109c-0.436-0.703-0.941-1.406-1.522-2.109c2.542-1.406,4.396-2.813,5.559-4.219h-3.161v-9.727
		h5.449l0.327-1.406H424.737z M430.295,131.334v-3.281c-1.672,1.564-3.812,2.97-6.43,4.219h16.238
		c-2.765-1.093-5.016-2.538-6.76-4.336v3.398H430.295z M425.5,134.85v2.344h12.533v-2.344H425.5z M425.5,139.42v2.344h12.533v-2.344
		H425.5z M428.552,91.581v1.172h11.552v-1.172H428.552z M428.552,94.042v1.172h11.552v-1.172H428.552z M428.552,96.62v1.172h11.552
		V96.62H428.552z M434.764,105.058c1.379-0.625,2.764-1.328,4.145-2.109h-8.065C432.148,103.886,433.456,104.589,434.764,105.058
		L434.764,105.058z M449.695,131.92c-1.236-1.952-2.326-3.592-3.271-4.922l2.615-1.523c1.161,1.406,2.324,2.97,3.487,4.688
		L449.695,131.92z M453.51,137.076c-0.219,0.234-0.397,0.392-0.545,0.469c-0.365-0.858-0.618-1.562-0.764-2.109
		c-0.364,1.564-0.909,4.063-1.635,7.5c-0.221,1.015-0.364,1.796-0.438,2.344l-3.27-0.938c0.872-3.047,1.671-6.522,2.396-10.43
		c0.799,0.392,1.671,0.703,2.616,0.938l-0.109-0.469c2.472-1.483,4.396-3.319,5.776-5.508h-4.904v-2.813h4.468v-2.93h-3.378v-2.813
		h3.378v-2.93h2.943v2.93h4.688v-2.93h2.94v2.93h3.814v2.813h-3.814v2.93h4.795v2.813h-5.122c1.311,2.109,3.16,3.712,5.561,4.805
		l-1.311,3.047c-1.599-0.938-2.939-1.952-4.029-3.047v5.625h-9.373v1.055c0,1.095,0.545,1.641,1.635,1.641h6.758
		c1.161,0,1.854-0.469,2.07-1.406c0-0.155,0.036-0.39,0.106-0.703c0-0.234,0.108-0.938,0.326-2.109
		c0.872,0.392,1.78,0.703,2.728,0.938c-0.221,1.485-0.438,2.578-0.653,3.281c-0.438,1.796-1.781,2.695-4.032,2.695h-8.393
		c-2.183,0-3.31-1.133-3.378-3.398v-5.742C454.926,135.945,454.308,136.452,453.51,137.076L453.51,137.076z M450.349,124.068
		c-0.361-0.624-0.906-1.523-1.635-2.695c-0.653-0.938-1.163-1.679-1.522-2.227l2.725-1.523l3.378,4.688L450.349,124.068z
		 M447.951,109.276V88.417h3.484v20.859H447.951z M451.766,87.597c-0.872-1.406-1.962-2.968-3.27-4.688l2.941-1.641
		c1.381,1.564,2.508,3.008,3.38,4.336L451.766,87.597z M462.01,109.042c-0.07-0.626-0.255-1.641-0.545-3.047
		c-0.073-0.156-0.105-0.311-0.105-0.469c1.158,0.079,2.648,0.117,4.468,0.117c1.598,0.079,2.325-0.663,2.18-2.227V86.659h-11.661
		v-3.516h15.149v21.328c0.145,2.968-1.236,4.453-4.145,4.453L462.01,109.042z M458.195,134.264v2.578h6.539v-2.578H458.195z
		 M460.702,128.873c-0.582,1.017-1.198,1.954-1.854,2.813h7.084c-0.651-0.858-1.233-1.796-1.741-2.813H460.702z M460.049,123.131
		v2.93h4.688v-2.93H460.049z M475.197,94.042h15.912v2.93h-15.912V94.042z M497.866,95.8c-0.653-0.625-1.525-1.406-2.615-2.344
		c-0.872-0.703-1.49-1.249-1.853-1.641l2.18-2.461c0.725,0.547,1.812,1.447,3.27,2.695c0.58,0.469,1.02,0.82,1.311,1.055
		L497.866,95.8z M498.738,103.417c-0.654,2.422-1.199,4.336-1.638,5.742l-3.157-1.172c0.871-2.734,1.853-6.17,2.939-10.313
		c0.943,0.313,1.997,0.703,3.16,1.172C499.755,99.863,499.319,101.386,498.738,103.417L498.738,103.417z M498.738,88.183
		c-1.962-1.952-3.416-3.32-4.359-4.102l2.18-2.461c0.729,0.547,1.744,1.406,3.055,2.578c0.65,0.547,1.158,0.978,1.522,1.289
		L498.738,88.183z M506.477,105.058c-0.651,1.406-2.068,2.93-4.251,4.57c-0.8-0.703-1.708-1.485-2.725-2.344
		c2.033-1.25,3.306-2.42,3.813-3.516c0.582-1.093,0.871-2.93,0.871-5.508h3.271C507.457,101.308,507.13,103.575,506.477,105.058
		L506.477,105.058z M501.245,87.597V84.55h7.411c-0.292-0.938-0.583-1.952-0.872-3.047l3.597-0.234
		c0.071,0.392,0.253,1.016,0.545,1.875c0.146,0.703,0.253,1.172,0.326,1.406h7.303v3.047h-2.289
		c-1.163,2.422-2.65,4.453-4.469,6.094c1.815,0.782,4.178,1.406,7.084,1.875c-0.291,0.469-0.688,1.33-1.198,2.578
		c-0.07,0.234-0.146,0.43-0.218,0.586c-3.706-0.78-6.577-1.796-8.609-3.047c-2.324,1.33-5.229,2.422-8.72,3.281
		c-0.65-1.406-1.127-2.461-1.417-3.164c2.762-0.545,5.158-1.249,7.193-2.109c-1.454-1.249-2.907-3.085-4.359-5.508l0.98-0.586
		H501.245z M505.822,87.597c1.379,2.033,2.725,3.477,4.031,4.336c1.524-1.172,2.797-2.617,3.812-4.336H505.822L505.822,87.597z
		 M512.471,108.925V98.261h3.271v10.664H512.471z M525.767,89.589c-0.361,2.188-1.019,4.962-1.962,8.32
		c-0.218-0.077-0.545-0.156-0.979-0.234c-0.654-0.234-1.163-0.39-1.525-0.469c0.653-2.186,1.311-4.922,1.961-8.203L525.767,89.589
		L525.767,89.589z M529.581,94.042c0.218,6.641-1.308,11.759-4.577,15.352c-0.291-0.234-0.728-0.547-1.308-0.938
		c-0.729-0.547-1.236-0.938-1.526-1.172c3.052-3.047,4.469-7.694,4.251-13.945V81.854h3.16V94.042L529.581,94.042z M531.87,97.675
		c-0.51-2.578-1.199-5.039-2.071-7.383l2.398-0.82c0.65,1.954,1.379,4.376,2.18,7.266L531.87,97.675z M534.703,108.339V82.323h3.052
		v26.016H534.703z M540.262,97.675c-0.651-2.578-1.346-5.039-2.067-7.383l2.396-0.82c0.438,1.406,1.09,3.633,1.962,6.68
		c-0.071-0.156,0,0.079,0.22,0.703L540.262,97.675z M542.986,108.925V81.737h3.052v27.188H542.986z M550.07,94.042h15.912v2.93
		H550.07V94.042z"/>
</g>
</svg>
