<?xml version="1.0" encoding="utf-8"?>
<!-- Generator: Adobe Illustrator 16.0.0, SVG Export Plug-In . SVG Version: 6.00 Build 0)  -->
<!DOCTYPE svg PUBLIC "-//W3C//DTD SVG 1.1//EN" "http://www.w3.org/Graphics/SVG/1.1/DTD/svg11.dtd">
<svg version="1.1" id="图层_1" xmlns="http://www.w3.org/2000/svg" xmlns:xlink="http://www.w3.org/1999/xlink" x="0px" y="0px"
	 width="640px" height="350px" viewBox="0 0 640 350" enable-background="new 0 0 640 350" xml:space="preserve">
<path fill="#FFFFFF" d="M255.364,116.999v-1.641h1.94v-3.516h1.582v3.516h1.653v1.641h-1.653v3.594l1.725-0.703
	c0,0.521,0.024,1.068,0.072,1.641l-1.797,0.781v5.938c0.047,1.354-0.528,2.057-1.725,2.109c-0.192,0-0.479,0.026-0.863,0.078
	c-0.287,0-0.503,0-0.646,0c-0.097-0.677-0.216-1.302-0.359-1.875c0.287,0,0.694,0,1.222,0c0.575,0,0.838-0.234,0.791-0.703v-4.922
	l-2.012,0.859l-0.216-1.875c0.288-0.104,0.719-0.26,1.294-0.469c0.431-0.156,0.742-0.26,0.934-0.313v-4.141H255.364z
	 M255.752,99.875V95.75h27.37v4.125H255.752z M257.477,78.75v-4.375h23.92v4.375H257.477z M258.857,89.125V84.75h21.275v4.375
	H258.857z M262.839,128.952c-0.336,0.26-0.695,0.547-1.078,0.859l-1.006-1.484c0.431-0.416,0.647-1.041,0.647-1.875v-13.047
	c3.689-0.156,7.115-0.442,10.278-0.859l0.431,1.641c-0.192,0-0.456,0.027-0.791,0.078c-0.959,0.105-2.084,0.209-3.378,0.313
	c0,1.459,0.047,3.021,0.144,4.688h4.384v1.641h-4.313c0.144,2.761,0.647,4.949,1.51,6.563c0.334,0.521,0.646,0.781,0.934,0.781
	c0.239,0,0.407-0.208,0.503-0.625c0-0.156,0.023-0.442,0.072-0.859c0.095-0.729,0.167-1.301,0.215-1.719
	c0.144,0.053,0.383,0.131,0.719,0.234c0.288,0.156,0.503,0.261,0.647,0.313c0,0.209-0.024,0.521-0.072,0.938
	c-0.048,0.678-0.144,1.328-0.288,1.953c-0.288,1.094-0.862,1.641-1.725,1.641c-0.959,0-1.773-0.625-2.443-1.875
	c-0.959-1.666-1.51-4.114-1.653-7.344h-3.522v6.172l2.947-1.719c0,0.053,0,0.105,0,0.156c0.047,0.469,0.144,0.99,0.288,1.563
	c-0.192,0.105-0.479,0.261-0.862,0.469C264.228,128.119,263.365,128.587,262.839,128.952L262.839,128.952z M266.433,119.264
	c-0.048-1.406-0.072-2.916-0.072-4.531c-1.15,0.053-2.252,0.131-3.306,0.234v4.297H266.433z M265.929,130.514
	c-0.479-0.781-1.006-1.537-1.581-2.266l1.222-0.703c0.575,0.469,1.174,1.198,1.797,2.188L265.929,130.514z M276.637,127.702
	c-0.959,0.938-1.725,1.77-2.3,2.5l-0.791-1.797c0.239-0.208,0.67-0.598,1.294-1.172c0.479-0.469,0.814-0.807,1.006-1.016v-5.938
	h-2.156v-1.797h3.809v7.656c0.91,1.459,2.228,2.161,3.953,2.109c3.066,0.104,6.229,0.104,9.488,0
	c-0.048,0.208-0.12,0.52-0.216,0.938c-0.144,0.364-0.24,0.651-0.288,0.859c-1.054,0-2.659-0.027-4.815-0.078
	c-2.3,0-3.858-0.027-4.672-0.078C279.176,129.837,277.739,129.108,276.637,127.702L276.637,127.702z M276.997,116.53
	c-0.431-0.781-1.198-2.004-2.3-3.672l1.366-0.781c0.239,0.313,0.67,0.886,1.294,1.719c0.575,0.781,0.981,1.355,1.222,1.719
	L276.997,116.53z M278.937,117.936v-1.719h4.457c0.047-0.989,0.072-2.422,0.072-4.297h1.725c0,1.563-0.025,2.996-0.072,4.297h5.175
	v1.719h-5.247c-0.097,1.146-0.288,2.188-0.575,3.125l0.791-0.703c0.479,0.469,1.341,1.355,2.587,2.656
	c1.197,1.25,2.036,2.136,2.516,2.656L289,126.92c-0.862-1.041-2.444-2.786-4.744-5.234c-0.719,1.928-2.253,3.725-4.6,5.391
	c-0.335-0.52-0.719-1.041-1.15-1.563c3.114-2.031,4.719-4.557,4.815-7.578H278.937z M311.415,84.125
	c-1.84,4.668-3.182,7.918-4.025,9.75l-2.875-1.5v4.375h7.935v3.75h-27.255v-3.75h8.05v-4.375l-3.45,1.5
	c-0.69-2.25-1.84-5.582-3.45-10c-0.385-1.082-0.652-1.875-0.805-2.375l3.22-1.25c0.383,0.918,0.958,2.418,1.725,4.5
	c1.303,3.334,2.223,5.834,2.76,7.5V77.5h-7.475v-4h26.105v4h-7.36v14.125c0.306-0.75,0.766-1.916,1.38-3.5
	c1.38-3.5,2.415-6.166,3.105-8l3.335,1.5C312.105,82.209,311.798,83.043,311.415,84.125L311.415,84.125z M297.345,122.233v2.734
	h-2.444v-2.734H297.345z M297.345,128.014v2.578h-2.444v-2.578H297.345z M297.04,77.5v19.25h3.565V77.5H297.04z M315.959,128.952
	h1.509v-15.859h-1.078c-0.623,1.667-2.037,3.047-4.241,4.141v1.641c1.485-0.625,2.755-1.458,3.81-2.5V128.952z M331.482,125.124
	h-2.012v3.828h-1.438v-3.828h-6.613v-0.938l6.9-11.094h1.15v10.625h2.012V125.124z M327.745,116.374
	c-0.767,1.094-2.3,3.542-4.6,7.344h4.888v-8.047c0,0.053-0.049,0.156-0.145,0.313C327.841,116.139,327.793,116.27,327.745,116.374
	L327.745,116.374z M336.369,120.045v-2.422h-2.229v2.422H336.369z M336.369,128.717v-2.266h-2.229v2.266H336.369z M348.299,121.217
	c-0.048,5.209-1.605,7.864-4.672,7.969c-3.21-0.052-4.815-2.708-4.815-7.969c0.048-5.26,1.629-7.969,4.744-8.125
	C346.67,113.197,348.251,115.905,348.299,121.217L348.299,121.217z M346.646,121.217c0-4.531-1.055-6.77-3.163-6.719
	c-1.965,0.156-2.972,2.396-3.019,6.719c0,4.48,1.03,6.693,3.091,6.641C345.615,127.911,346.646,125.697,346.646,121.217
	L346.646,121.217z M359.51,121.217c-0.048,5.209-1.605,7.864-4.672,7.969c-3.21-0.052-4.815-2.708-4.815-7.969
	c0.048-5.26,1.629-7.969,4.744-8.125C357.881,113.197,359.462,115.905,359.51,121.217L359.51,121.217z M357.857,121.217
	c0-4.531-1.055-6.77-3.163-6.719c-1.965,0.156-2.972,2.396-3.019,6.719c0,4.48,1.03,6.693,3.091,6.641
	C356.826,127.911,357.857,125.697,357.857,121.217L357.857,121.217z M379.637,119.967c0.096,4.531-0.672,8.047-2.3,10.547
	c-0.24-0.313-0.672-0.808-1.294-1.484c0.766-1.197,1.27-2.447,1.51-3.75c0.239-1.197,0.359-3.047,0.359-5.547v-5.859h6.684
	l-0.574-1.875l1.94-0.234c0,0.053,0.023,0.156,0.071,0.313c0.191,0.781,0.359,1.381,0.504,1.797h6.037v6.094H379.637
	L379.637,119.967z M379.637,115.514v2.813h11.213v-2.813H379.637z M380.787,130.514v-7.969h11.571v7.969h-1.653v-1.25h-8.266v1.25
	H380.787z M382.439,124.108v3.75h8.266v-3.75H382.439z M394.585,121.92v-1.484h1.078v-6.641h1.797
	c0.048-0.26,0.119-0.598,0.216-1.016c0.047-0.469,0.096-0.807,0.144-1.016l1.581,0.078l-0.503,1.953h2.516v14.453
	c0.048,1.301-0.527,1.953-1.725,1.953c-0.288,0.051-0.839,0.078-1.653,0.078c0-0.105-0.048-0.287-0.144-0.547
	c-0.049-0.469-0.097-0.833-0.144-1.094c0.095,0,0.215,0,0.359,0c0.431,0.051,0.766,0.051,1.006,0
	c0.671,0.051,0.981-0.208,0.935-0.781v-5.938h-3.019c0.095,3.75-0.336,6.614-1.294,8.594c-0.097-0.105-0.264-0.234-0.503-0.391
	c-0.336-0.313-0.575-0.547-0.719-0.703c0.813-1.666,1.197-4.166,1.149-7.5H394.585z M397.029,115.28v5.156h3.019v-5.156H397.029z
	 M398.395,119.42c-0.24-0.729-0.552-1.614-0.935-2.656l1.078-0.547c0.096,0.261,0.216,0.6,0.359,1.016
	c0.288,0.73,0.503,1.277,0.647,1.641L398.395,119.42z M398.538,126.452c-0.336-0.989-0.695-1.953-1.078-2.891l1.078-0.547
	c0.096,0.261,0.239,0.652,0.432,1.172c0.335,0.678,0.575,1.25,0.719,1.719L398.538,126.452z M405.079,121.92
	c0.144,3.906-0.647,6.77-2.372,8.594c-0.144-0.156-0.359-0.365-0.646-0.625c-0.288-0.261-0.504-0.469-0.647-0.625
	c0.862-0.938,1.438-1.875,1.726-2.813c0.239-0.938,0.359-2.447,0.359-4.531v-2.969h5.605v8.75c0,0.417,0.216,0.625,0.647,0.625
	h0.216c0.383,0.051,0.599-0.208,0.646-0.781c0.144-0.885,0.216-1.979,0.216-3.281c0.19,0.105,0.455,0.209,0.79,0.313
	c0.191,0.053,0.335,0.105,0.432,0.156c-0.048,1.459-0.144,2.605-0.287,3.438c-0.145,1.198-0.744,1.797-1.797,1.797h-0.719
	c-1.15,0.051-1.702-0.574-1.653-1.875v-7.5h-2.516V121.92L405.079,121.92z M402.275,116.452v-1.641h3.738
	c-0.145-0.416-0.385-1.067-0.719-1.953c-0.097-0.313-0.169-0.52-0.216-0.625l1.725-0.391l1.007,2.969h3.521v1.641H402.275z
	 M418.303,122.233v2.734h-2.444v-2.734H418.303z M418.303,128.014v2.578h-2.444v-2.578H418.303z M440.951,128.795v-1.328h-7.547
	c0.622-1.354,1.916-2.813,3.881-4.375c2.54-1.875,3.738-3.828,3.594-5.859c-0.191-2.656-1.629-4.036-4.313-4.141
	c-2.348-0.051-3.929,1.199-4.743,3.75l1.438,0.781c0.526-1.926,1.533-2.942,3.019-3.047c1.916,0.053,2.898,1.016,2.947,2.891
	c0.047,1.406-1.007,2.969-3.163,4.688c-2.108,1.667-3.618,3.542-4.528,5.625v1.016H440.951z M451.869,128.795v-1.328h-7.547
	c0.622-1.354,1.916-2.813,3.881-4.375c2.54-1.875,3.738-3.828,3.594-5.859c-0.191-2.656-1.629-4.036-4.313-4.141
	c-2.348-0.051-3.929,1.199-4.743,3.75l1.438,0.781c0.526-1.926,1.533-2.942,3.019-3.047c1.916,0.053,2.898,1.016,2.947,2.891
	c0.047,1.406-1.007,2.969-3.163,4.688c-2.108,1.667-3.618,3.542-4.528,5.625v1.016H451.869z M456.76,120.045v-2.422h-2.229v2.422
	H456.76z M456.76,128.717v-2.266h-2.229v2.266H456.76z M468.689,121.217c-0.048,5.209-1.605,7.864-4.672,7.969
	c-3.21-0.052-4.815-2.708-4.815-7.969c0.048-5.26,1.629-7.969,4.744-8.125C467.061,113.197,468.642,115.905,468.689,121.217
	L468.689,121.217z M467.037,121.217c0-4.531-1.055-6.77-3.163-6.719c-1.965,0.156-2.972,2.396-3.019,6.719
	c0,4.48,1.03,6.693,3.091,6.641C466.006,127.911,467.037,125.697,467.037,121.217L467.037,121.217z M479.9,121.217
	c-0.048,5.209-1.605,7.864-4.672,7.969c-3.21-0.052-4.815-2.708-4.815-7.969c0.048-5.26,1.629-7.969,4.744-8.125
	C478.271,113.197,479.853,115.905,479.9,121.217L479.9,121.217z M478.248,121.217c0-4.531-1.055-6.77-3.163-6.719
	c-1.965,0.156-2.972,2.396-3.019,6.719c0,4.48,1.03,6.693,3.091,6.641C477.217,127.911,478.248,125.697,478.248,121.217
	L478.248,121.217z"/>
<path fill="#FFFFFF" d="M257.866,163.001c-0.116-0.062-0.259-0.218-0.431-0.469c-1.093-0.999-1.927-1.781-2.501-2.344l1.208-1.5
	c1.149,0.938,2.156,1.875,3.019,2.813L257.866,163.001z M257.866,230.998c-0.116-0.062-0.259-0.219-0.431-0.469
	c-1.093-0.999-1.927-1.781-2.501-2.344l1.208-1.5c1.149,0.938,2.156,1.875,3.019,2.813L257.866,230.998z M275.029,208.156
	c-0.058,0.124-0.086,0.218-0.086,0.281c-4.256-0.626-7.389-1.47-9.401-2.531c-2.358,1.125-5.492,2.063-9.401,2.813
	c-0.116-0.313-0.316-0.75-0.604-1.313c-0.173-0.313-0.289-0.563-0.345-0.75c3.795-0.563,6.583-1.219,8.366-1.969
	c-1.61-1.187-3.019-2.844-4.226-4.969h-1.294v-1.781h14.231v1.875c-1.266,2.001-2.79,3.656-4.571,4.969
	c1.552,0.688,4.283,1.187,8.194,1.5C275.719,206.593,275.431,207.219,275.029,208.156L275.029,208.156z M255.278,308.937v-2.156
	h20.441v2.156H255.278z M256.313,325.778v-2.063h18.803v2.063h-3.967v6.469h4.916v2.156h-4.916v10.031h-2.07v-10.031h-6.469
	c0.172,4.626-1.639,8.063-5.434,10.313c-0.172-0.188-0.431-0.501-0.776-0.938c-0.345-0.438-0.604-0.75-0.776-0.938
	c3.392-1.812,5.031-4.624,4.917-8.438h-5.261v-2.156h5.261v-6.469H256.313z M259.16,166.095c-0.748,3.126-1.38,5.906-1.898,8.344
	l-1.811-0.656c0.805-3.188,1.408-5.968,1.811-8.344c0.229,0.126,0.747,0.313,1.553,0.563
	C258.181,165.814,258.297,165.846,259.16,166.095L259.16,166.095z M259.16,234.092c-0.748,3.126-1.38,5.906-1.898,8.344
	l-1.811-0.656c0.805-3.188,1.408-5.968,1.811-8.344c0.229,0.126,0.747,0.313,1.553,0.563
	C258.181,233.811,258.297,233.843,259.16,234.092L259.16,234.092z M258.297,156.814c-0.92-1.062-1.811-2-2.674-2.813l1.294-1.406
	c0.919,0.813,1.839,1.72,2.76,2.719L258.297,156.814z M258.297,224.811c-0.92-1.063-1.811-2-2.674-2.813l1.294-1.406
	c0.919,0.813,1.839,1.72,2.76,2.719L258.297,224.811z M255.709,198.125v-4.5h3.708c-0.058-0.188-0.172-0.437-0.345-0.75
	c-0.345-0.624-0.806-1.406-1.38-2.344l1.983-0.469c0.057,0.126,0.201,0.375,0.432,0.75c0.574,1.063,0.977,1.813,1.208,2.25
	l-1.639,0.563h9.229c0.862-1.374,1.609-2.719,2.243-4.031l1.983,0.656c-0.116,0.25-0.345,0.625-0.69,1.125
	c-0.172,0.25-0.604,1-1.293,2.25h4.14v4.5h-1.983V195.5h-15.525v2.625H255.709z M256.055,276.626v-21.281h7.159v2.063l-1.897,5.813
	c1.322,1.688,1.983,3.469,1.983,5.344c0.057,1.938-0.776,3.063-2.501,3.375c-0.576,0.126-1.208,0.188-1.897,0.188
	c0-0.124-0.03-0.281-0.086-0.469c-0.172-0.938-0.317-1.53-0.431-1.781c0.69,0.063,1.264,0.063,1.725,0
	c0.919-0.062,1.35-0.593,1.293-1.594c0.057-1.437-0.604-3.062-1.984-4.875l1.812-6.094h-3.277v19.313H256.055z M274.426,188.75
	c-5.061,0.313-10.983,0.531-17.768,0.656c0-0.062-0.03-0.188-0.086-0.375c-0.058-0.688-0.144-1.187-0.259-1.5
	c6.094,0,11.989-0.219,17.682-0.656L274.426,188.75L274.426,188.75z M256.658,292.53v-2.25h17.681v2.25H256.658z M257.607,300.499
	v-2.25h15.784v2.25H257.607z M259.591,158.126v-1.969h3.364c-0.289-0.812-0.604-2-0.949-3.563l1.897-0.281
	c0.057,0.375,0.201,0.938,0.431,1.688c0.229,0.876,0.401,1.594,0.518,2.156h-0.086h2.156v1.969h-4.054l-0.086,3.375h3.881
	c0,0.876-0.029,2.188-0.086,3.938c-0.058,2.688-0.116,4.626-0.173,5.813c0,1.812-0.806,2.719-2.415,2.719
	c-0.517,0.062-1.064,0.094-1.639,0.094l-0.345-1.969c0.574,0,1.005,0,1.293,0c0.977,0.062,1.437-0.375,1.38-1.313
	c0-0.375,0.028-0.968,0.086-1.781c0.115-2.625,0.172-4.5,0.172-5.625h-2.242c0,0.188,0,0.344,0,0.469
	c-0.116,4.563-0.979,8.156-2.587,10.781l-1.466-1.406c1.437-2,2.213-5.156,2.329-9.469c0.115-1.625,0.172-3.5,0.172-5.625H259.591z
	 M259.591,226.123v-1.969h3.364c-0.289-0.812-0.604-2-0.949-3.563l1.897-0.281c0.057,0.375,0.201,0.938,0.431,1.688
	c0.229,0.876,0.401,1.594,0.518,2.156h-0.086h2.156v1.969h-4.054l-0.086,3.375h3.881c0,0.876-0.029,2.188-0.086,3.938
	c-0.058,2.688-0.116,4.626-0.173,5.813c0,1.812-0.806,2.719-2.415,2.719c-0.517,0.062-1.064,0.094-1.639,0.094l-0.345-1.969
	c0.574,0,1.005,0,1.293,0c0.977,0.062,1.437-0.375,1.38-1.313c0-0.375,0.028-0.969,0.086-1.781c0.115-2.625,0.172-4.5,0.172-5.625
	h-2.242c0,0.188,0,0.344,0,0.469c-0.116,4.563-0.979,8.156-2.587,10.781l-1.466-1.406c1.437-2,2.213-5.156,2.329-9.469
	c0.115-1.625,0.172-3.5,0.172-5.625H259.591z M268.561,264.626c-0.518,4.813-2.559,8.813-6.124,12
	c-0.345-0.563-0.834-1.219-1.466-1.969c4.024-3.062,6.124-7.969,6.296-14.719c0-0.624,0.028-1.655,0.086-3.094
	c0-1.187,0-1.969,0-2.344h2.07c0,1.875-0.03,3.407-0.086,4.594c0.518,7.313,2.76,12.345,6.728,15.094l-1.466,2.063
	C271.205,273.438,269.193,269.564,268.561,264.626L268.561,264.626z M265.542,203.656c1.725-1.063,3.162-2.375,4.313-3.938h-8.194
	C262.81,201.532,264.104,202.845,265.542,203.656L265.542,203.656z M262.609,325.778v6.469h6.469v-6.469H262.609z M265.111,193.438
	c-0.403-1.125-0.834-2.188-1.294-3.188l1.984-0.469c0.459,0.938,0.862,2.001,1.208,3.188L265.111,193.438z M267.353,167.033v-1.875
	h3.537v-1.313l2.329-2.625h-4.83v-1.406l-0.604,0.938c-0.403-0.437-0.893-0.905-1.466-1.406c1.38-2.063,2.472-4.468,3.277-7.219
	l1.984,0.281c-0.345,1-0.69,1.969-1.035,2.906h5.434v1.875h-6.21c-0.345,0.75-0.748,1.5-1.208,2.25h6.728v1.969l-2.587,3v0.75h3.277
	v1.875h-3.277v4.594c0.057,1.688-0.748,2.531-2.415,2.531c-0.806,0.062-1.552,0.094-2.243,0.094c0-0.188-0.058-0.438-0.172-0.75
	c-0.058-0.563-0.116-0.97-0.172-1.219c0.69,0,1.35,0,1.984,0c0.862,0.062,1.264-0.313,1.208-1.125v-4.125H267.353z M267.353,235.029
	v-1.875h3.537v-1.313l2.329-2.625h-4.83v-1.406l-0.604,0.938c-0.403-0.437-0.893-0.905-1.466-1.406
	c1.38-2.063,2.472-4.468,3.277-7.219l1.984,0.281c-0.345,1-0.69,1.969-1.035,2.906h5.434v1.875h-6.21
	c-0.345,0.75-0.748,1.5-1.208,2.25h6.728v1.969l-2.587,3v0.75h3.277v1.875h-3.277v4.594c0.057,1.688-0.748,2.531-2.415,2.531
	c-0.806,0.062-1.552,0.094-2.243,0.094c0-0.188-0.058-0.438-0.172-0.75c-0.058-0.563-0.116-0.97-0.172-1.219c0.69,0,1.35,0,1.984,0
	c0.862,0.062,1.264-0.313,1.208-1.125v-4.125H267.353z M278.073,157.283v-1.875h2.501c0.287-1.125,0.546-2.187,0.776-3.188
	l1.898,0.188c-0.058,0.375-0.202,1-0.432,1.875c-0.172,0.501-0.288,0.876-0.345,1.125h4.398v1.875h-4.916
	c-0.806,2.875-1.41,4.875-1.812,6h2.501v-4.594h1.639v4.594h2.329v1.875h-2.329v3l2.587-0.375c-0.058,0.75-0.086,1.406-0.086,1.969
	l-2.501,0.281v4.594h-1.897v-4.406c-1.552,0.188-2.99,0.375-4.313,0.563l-0.172-2.063c0.401,0,1.063-0.062,1.984-0.188
	c1.091-0.062,1.926-0.125,2.501-0.188v-3.188h-3.967v-1.875c0.057-0.188,0.143-0.469,0.259-0.844c0.459-1.5,0.919-3.218,1.38-5.156
	H278.073z M288.595,196.438c-2.415,1.188-5.75,2.219-10.005,3.094c-0.058-0.313-0.23-0.781-0.518-1.406
	c-0.058-0.313-0.116-0.53-0.172-0.656c3.623-0.563,6.497-1.313,8.625-2.25c-1.38-0.938-2.617-2.156-3.709-3.656
	c-0.92,1.125-1.983,2.188-3.191,3.188c-0.403-0.624-0.776-1.187-1.122-1.688c2.415-1.937,4.399-4.25,5.951-6.938l2.156,0.375
	c-0.403,0.688-0.834,1.313-1.293,1.875h10.695v2.156c-1.668,2.001-3.421,3.563-5.261,4.688c1.782,0.813,4.456,1.406,8.021,1.781
	c-0.116,0.313-0.289,0.75-0.518,1.313c-0.116,0.375-0.202,0.656-0.259,0.844C294.029,198.532,290.895,197.625,288.595,196.438
	L288.595,196.438z M278.159,223.967v-1.969h6.986v1.969h-2.501v5.438h2.243v1.875h-2.243v5.719c0.287-0.062,0.718-0.188,1.294-0.375
	c0.574-0.125,1.005-0.219,1.293-0.281c0,0.625,0.028,1.313,0.086,2.063c-0.748,0.188-1.927,0.501-3.536,0.938
	c-1.553,0.375-2.732,0.656-3.537,0.844l-0.345-2.063l2.76-0.656v-6.188h-2.415v-1.875h2.415v-5.438H278.159z M278.159,275.313
	v-2.063h8.107v-18.75h2.243v6.75h8.539v2.25h-8.539v9.75h10.177v2.063H278.159z M300.368,300.405
	c-0.116,0.251-0.258,0.72-0.431,1.406c-4.083-0.75-7.245-1.781-9.487-3.094c-2.301,1.376-5.636,2.595-10.005,3.656
	c-0.058-0.312-0.23-0.812-0.518-1.5c-0.116-0.312-0.202-0.563-0.259-0.75c3.45-0.624,6.411-1.5,8.884-2.625
	c-1.38-1.062-2.617-2.344-3.709-3.844c-0.979,1.125-2.07,2.188-3.277,3.188c-0.172-0.188-0.403-0.499-0.69-0.938
	c-0.172-0.375-0.317-0.624-0.431-0.75c2.644-2.063,4.657-4.406,6.037-7.031l2.156,0.469c-0.403,0.563-0.776,1.125-1.121,1.688
	h10.264v1.969c-1.552,2.126-3.307,3.876-5.261,5.25c2.126,1.063,4.83,1.751,8.107,2.063
	C300.569,299.749,300.482,300.03,300.368,300.405L300.368,300.405z M283.31,340.497c0,2.188-0.748,3.812-2.243,4.875l-0.776-0.844
	c1.035-0.813,1.581-2.031,1.639-3.656h-1.466v-3.094h2.846C283.31,338.279,283.31,339.185,283.31,340.497L283.31,340.497z
	 M281.005,208.625v-9.094h14.749v9.094h-1.983v-1.313h-10.781v1.313H281.005z M296.055,310.624c-4.428-1-9.028-1.907-13.8-2.719
	l0.776-2.063c0.287,0.063,0.747,0.157,1.38,0.281c5.348,1.063,9.458,1.813,12.334,2.25L296.055,310.624z M282.989,201.406v4.219
	h10.781v-4.219H282.989z M285.749,230.436v-1.969H298.6v1.969h-4.054v8.531c-0.058,0.625,0.229,0.938,0.863,0.938h0.69
	c0.632,0,0.977-0.313,1.035-0.938c0.056-0.5,0.143-1.5,0.258-3c0.287,0.126,0.719,0.313,1.294,0.563
	c0.172,0.063,0.287,0.094,0.345,0.094c-0.058,0.438-0.145,1.157-0.259,2.156c-0.058,0.438-0.086,0.75-0.086,0.938
	c-0.23,1.437-1.064,2.156-2.501,2.156h-1.294c-1.61,0.062-2.387-0.75-2.329-2.438v-9h-2.501c0,0.438-0.03,1.031-0.086,1.781
	c0,0.876-0.029,1.469-0.086,1.781c-0.058,3.563-1.582,6.469-4.571,8.719c-0.172-0.251-0.518-0.626-1.035-1.125
	c-0.23-0.251-0.403-0.438-0.518-0.563c2.76-1.749,4.14-4.093,4.14-7.031c0.115-0.938,0.172-2.124,0.172-3.563H285.749z
	 M288.595,194.188c1.667-0.875,3.306-2.156,4.917-3.844h-9.315C285.691,192.094,287.157,193.376,288.595,194.188L288.595,194.188z
	 M294.675,305.28c-2.76-0.75-5.981-1.437-9.66-2.063l0.69-1.969c2.816,0.501,6.037,1.157,9.66,1.969L294.675,305.28z
	 M299.032,159.626c-0.23,0.375-0.576,1.063-1.035,2.063c-2.358-1.812-4.169-3.968-5.434-6.469c-1.38,2.376-3.278,4.563-5.693,6.563
	c-0.116-0.249-0.375-0.718-0.776-1.406c-0.173-0.188-0.289-0.343-0.345-0.469c2.875-2.124,4.917-4.718,6.124-7.781l2.07,0.281
	l-0.431,0.938C294.892,156.096,296.731,158.189,299.032,159.626L299.032,159.626z M290.535,296.374
	c1.782-1.125,3.306-2.499,4.571-4.125h-8.884C287.487,293.937,288.925,295.313,290.535,296.374L290.535,296.374z M286.87,223.967
	v-1.969h10.522v1.969H286.87z M291.355,173.97c-2.014,0-3.019-1.063-3.019-3.188v-9.563h1.897v4.125
	c1.84-1.062,3.593-2.344,5.261-3.844l1.208,1.688c-2.128,1.688-4.284,3.157-6.469,4.406v2.719c-0.058,1.125,0.518,1.655,1.725,1.594
	h1.984c1.149,0,1.782-0.53,1.897-1.594c0.172-0.999,0.287-2.063,0.345-3.188c0.69,0.25,1.322,0.469,1.897,0.656
	c-0.173,1.563-0.375,2.782-0.604,3.656c-0.23,1.688-1.323,2.531-3.277,2.531H291.355z M306.338,341.153
	c-1.725,0.75-3.825,1.625-6.296,2.625c-0.058-0.126-0.172-0.344-0.345-0.656c-0.23-0.438-0.403-0.782-0.518-1.031
	c2.529-0.812,4.571-1.624,6.124-2.438L306.338,341.153L306.338,341.153z M300.215,325.685v-1.594h8.452v-1.969h2.07v1.969h8.366
	v1.594h-8.366v1.5h7.245v1.5h-7.245v1.5h9.142v1.688h-9.574h0.173c-1.151,0.501-2.962,1.157-5.434,1.969
	c2.127,0,4.14-0.062,6.038-0.188c1.208-0.499,2.385-1.031,3.536-1.594l1.639,1.219c-3.221,1.376-6.9,2.782-11.04,4.219
	c0.517,0,1.322-0.03,2.415-0.094c3.219-0.062,5.548-0.124,6.986-0.188l-1.639-1.313l1.208-1.031c1.897,1.376,3.536,2.625,4.917,3.75
	l-1.294,1.219l-1.38-1.125l-5.434,0.094v2.813c0.056,1.749-0.806,2.625-2.588,2.625c-0.518,0.062-1.38,0.094-2.587,0.094
	c0-0.188-0.058-0.438-0.172-0.75c-0.058-0.501-0.116-0.876-0.172-1.125c0.747,0,1.466,0,2.156,0c0.977,0.062,1.437-0.344,1.38-1.219
	v-2.344l-5.434,0.188c-0.288,0-0.662,0.032-1.121,0.094c-0.461,0-0.834,0.032-1.121,0.094l-0.69-1.688
	c0.518-0.124,1.236-0.312,2.156-0.563c-0.116,0-0.03-0.03,0.259-0.094c1.552-0.563,3.162-1.187,4.83-1.875
	c-3.163,0.126-5.146,0.22-5.951,0.281l-0.604-1.594c0.69-0.124,1.38-0.312,2.07-0.563c0.115-0.062,0.315-0.155,0.604-0.281
	c0.804-0.249,1.667-0.593,2.587-1.031h-7.159v-1.688h9.229v-1.5h-7.331v-1.5h7.331v-1.5H300.215z M301.136,195.125v-2.063h2.847
	v-3.469l-2.501,0.094c-0.058-0.75-0.144-1.406-0.259-1.969c2.472-0.062,4.858-0.188,7.159-0.375l0.259,1.875l-2.76,0.281v3.563h2.76
	v2.063h-2.76v2.813l0.69-0.75c0.287,0.313,0.747,0.813,1.38,1.5c0.574,0.625,1.005,1.125,1.294,1.5l-1.38,1.406
	c-0.288-0.375-0.69-0.905-1.208-1.594c-0.345-0.437-0.604-0.781-0.776-1.031v9.656h-1.897v-9.656
	c-0.576,1.875-1.41,3.719-2.501,5.531c-0.116-0.313-0.289-0.781-0.518-1.406c-0.172-0.375-0.289-0.656-0.345-0.844
	c1.322-1.937,2.415-4.313,3.277-7.125H301.136z M301.05,158.408v-1.969h2.329v-4.219h1.897v4.219h1.984v1.969h-1.984v4.313
	l2.07-0.844c0,0.625,0.028,1.282,0.086,1.969l-2.156,0.938v7.125c0.057,1.625-0.633,2.468-2.07,2.531
	c-0.23,0-0.576,0.031-1.035,0.094c-0.345,0-0.604,0-0.776,0c-0.116-0.813-0.259-1.563-0.431-2.25c0.345,0,0.833,0,1.466,0
	c0.69,0,1.005-0.281,0.949-0.844v-5.906l-2.415,1.031l-0.259-2.25c0.345-0.125,0.863-0.312,1.553-0.563
	c0.518-0.188,0.891-0.312,1.121-0.375v-4.969H301.05z M304.931,266.782c0.172,4.376-0.69,7.655-2.588,9.844
	c-0.403-0.438-0.949-0.906-1.639-1.406c1.667-1.749,2.415-4.562,2.243-8.438v-5.156h18.457v1.781h-16.473V266.782L304.931,266.782z
	 M303.206,259.563v-4.594h1.983v2.813h5.52v-3.656h1.984v3.656h5.434v-2.813h1.984v4.594H303.206z M307.001,238.498
	c0,2.187-0.748,3.812-2.243,4.875l-0.776-0.844c1.035-0.813,1.581-2.032,1.639-3.656h-1.466v-3.094h2.846
	C307.001,236.28,307.001,237.186,307.001,238.498L307.001,238.498z M305.006,292.155v-2.156h19.837v2.156h-7.676
	c-0.862,1.563-1.783,3.032-2.76,4.406h1.466v14.063h-2.243v-13.031c-2.07,2.625-4.715,5.126-7.935,7.5
	c-0.058-0.062-0.144-0.188-0.259-0.375c-0.518-0.812-0.892-1.343-1.121-1.594c4.83-3.312,8.25-6.968,10.264-10.969H305.006z
	 M306.57,267.438v-1.781h13.369v1.781h-5.692v2.906h7.245v1.781h-7.245v4.5h-2.07v-4.5h-7.159v-1.781h7.159v-2.906H306.57z
	 M310.02,172.751c-0.403,0.312-0.834,0.656-1.293,1.031l-1.208-1.781c0.518-0.5,0.776-1.25,0.776-2.25v-15.656
	c4.427-0.188,8.539-0.53,12.334-1.031l0.517,1.969c-0.23,0-0.547,0.032-0.948,0.094c-1.151,0.126-2.501,0.25-4.054,0.375
	c0,1.75,0.057,3.625,0.172,5.625h5.261v1.969h-5.175c0.172,3.313,0.776,5.938,1.811,7.875c0.402,0.625,0.776,0.938,1.121,0.938
	c0.287,0,0.488-0.249,0.604-0.75c0-0.188,0.028-0.53,0.086-1.031c0.115-0.875,0.201-1.562,0.259-2.063
	c0.173,0.063,0.46,0.157,0.862,0.281c0.346,0.188,0.604,0.313,0.776,0.375c0,0.25-0.029,0.625-0.086,1.125
	c-0.058,0.813-0.173,1.594-0.345,2.344c-0.346,1.313-1.035,1.969-2.07,1.969c-1.151,0-2.128-0.75-2.933-2.25
	c-1.151-2-1.811-4.937-1.983-8.813h-4.227v7.406l3.536-2.063c0,0.063,0,0.126,0,0.188c0.057,0.563,0.173,1.188,0.345,1.875
	c-0.23,0.126-0.576,0.313-1.035,0.563C311.687,171.752,310.652,172.313,310.02,172.751L310.02,172.751z M314.418,208.531v-7.5
	h-2.933v1.125h-1.811v-11.438h4.744v-4.5h1.811v4.5h4.744v11.438h-1.897v-1.125h-2.847v7.5H314.418z M314.332,161.126
	c-0.058-1.688-0.086-3.5-0.086-5.438c-1.38,0.063-2.704,0.157-3.968,0.281v5.156H314.332z M311.486,192.688v6.375h2.933v-6.375
	H311.486z M313.729,174.626c-0.576-0.938-1.208-1.844-1.897-2.719l1.466-0.844c0.69,0.563,1.408,1.437,2.156,2.625L313.729,174.626z
	 M319.017,343.778c-0.058,0-0.144-0.032-0.259-0.094c-2.531-1.188-4.485-2.063-5.865-2.625l0.949-1.5
	c0.69,0.313,1.839,0.844,3.45,1.594c1.322,0.501,2.213,0.844,2.674,1.031L319.017,343.778z M319.076,192.688h-2.847v6.375h2.847
	V192.688z M323.637,304.53c-2.761-2.438-5.033-4.313-6.814-5.625l1.38-1.594c0.518,0.375,1.293,0.97,2.329,1.781
	c2.127,1.626,3.68,2.813,4.657,3.563L323.637,304.53z M321.863,326.997v-2.063h6.555c0.057-0.124,0.144-0.375,0.259-0.75
	c0.229-0.375,0.518-1.062,0.863-2.063l2.242,0.281c-0.345,0.938-0.69,1.781-1.035,2.531h11.213v2.063h-12.248
	c-0.058,0.126-0.172,0.345-0.345,0.656c-0.173,0.313-0.518,0.876-1.035,1.688h11.385v12.094c0.115,1.875-0.834,2.813-2.846,2.813
	c-1.266,0-2.387,0-3.364,0c-0.115-0.625-0.259-1.281-0.431-1.969c0.862,0,1.867,0,3.019,0c1.149,0.125,1.667-0.344,1.553-1.406
	v-1.219h-10.264v4.969h-2.07V333.56c-0.921,1.125-1.955,2.188-3.105,3.188c-0.402-0.687-0.719-1.374-0.948-2.063
	c2.588-2.374,4.628-4.937,6.124-7.688H321.863z M326.527,265.001c-0.115-0.062-0.258-0.218-0.431-0.469
	c-1.093-0.999-1.927-1.781-2.501-2.344l1.207-1.5c1.149,0.938,2.156,1.875,3.019,2.813L326.527,265.001z M327.391,171.251
	c-1.151,1.125-2.07,2.124-2.761,3l-0.948-2.156c0.287-0.249,0.805-0.718,1.553-1.406c0.574-0.563,0.977-0.968,1.207-1.219v-7.125
	h-2.587v-2.156h4.571v9.188c1.091,1.75,2.673,2.593,4.743,2.531c3.679,0.125,7.475,0.125,11.385,0
	c-0.058,0.249-0.144,0.624-0.259,1.125c-0.172,0.437-0.288,0.781-0.345,1.031c-1.266,0-3.191-0.032-5.778-0.094
	c-2.761,0-4.63-0.032-5.606-0.094C330.438,173.813,328.712,172.939,327.391,171.251L327.391,171.251z M327.821,205.906
	c-0.402,0.312-0.748,0.718-1.035,1.219l-1.293-1.406c0.345-0.563,0.518-1.187,0.518-1.875v-8.063h-2.243v-1.969h4.227V203
	c0.518-0.563,1.235-1.406,2.156-2.531c0.114,0.313,0.259,0.719,0.432,1.219c0.114,0.375,0.2,0.656,0.258,0.844
	c-0.575,0.563-1.495,1.594-2.76,3.094C328.999,204.5,328.913,204.594,327.821,205.906L327.821,205.906z M324.026,226.029v-1.969
	h11.213c0-0.563-0.03-1.313-0.086-2.25c0-0.75,0-1.28,0-1.594h2.069c0,1.063,0.028,2.344,0.086,3.844h7.159v1.969h-7.072
	c0,0.313,0,0.563,0,0.75c0.172,3.188,0.518,5.813,1.035,7.875c1.149-1.875,2.156-3.999,3.019-6.375l1.897,0.844
	c-1.438,3.313-2.847,5.969-4.227,7.969c0.345,0.813,0.776,1.563,1.294,2.25c0.46,0.501,0.891,0.75,1.294,0.75
	c0.401,0.062,0.689-0.249,0.862-0.938c0.173-0.938,0.315-2.03,0.432-3.281c0.518,0.313,1.121,0.563,1.811,0.75
	c-0.23,1.875-0.489,3.188-0.776,3.938c-0.345,1.313-1.093,1.969-2.242,1.969c-1.266,0.062-2.358-0.782-3.277-2.531
	c-0.23-0.313-0.489-0.688-0.776-1.125c-1.093,1.249-2.387,2.499-3.881,3.75c-0.576-0.75-1.035-1.313-1.38-1.688
	c0.057-0.063,0.114-0.126,0.172-0.188c0.574-0.438,0.978-0.72,1.208-0.844c-1.61,0.124-3.997,0.437-7.159,0.938
	c-1.207,0.188-2.07,0.312-2.587,0.375l-0.346-1.969c1.437-0.188,4.399-0.594,8.884-1.219c0.632-0.062,1.092-0.125,1.38-0.188
	c-0.058,0.313-0.058,0.782,0,1.406c0,0.25,0,0.438,0,0.563c1.322-1.313,2.271-2.344,2.847-3.094
	c-0.748-2.563-1.237-5.844-1.467-9.844c0-0.125,0-0.281,0-0.469c-0.058-0.188-0.086-0.313-0.086-0.375H324.026z M327.821,268.095
	c-0.748,3.126-1.38,5.906-1.897,8.344l-1.811-0.656c0.804-3.188,1.408-5.968,1.811-8.344c0.229,0.126,0.747,0.313,1.553,0.563
	C326.843,267.813,326.959,267.846,327.821,268.095L327.821,268.095z M326.959,258.813c-0.92-1.062-1.812-1.999-2.674-2.813
	l1.294-1.406c0.919,0.813,1.84,1.72,2.76,2.719L326.959,258.813z M327.821,157.845c-0.518-0.938-1.438-2.405-2.76-4.406l1.639-0.938
	c0.287,0.375,0.805,1.063,1.553,2.063c0.689,0.938,1.178,1.626,1.466,2.063L327.821,157.845z M328.08,191.75
	c-0.288-0.437-0.776-1.125-1.466-2.063c-0.69-0.875-1.208-1.531-1.553-1.969l1.639-1.125c0.345,0.375,0.891,1,1.639,1.875
	c0.69,0.876,1.208,1.532,1.553,1.969L328.08,191.75z M325.32,236.154v-7.781h7.935v7.781H325.32z M327.218,230.154v4.125h4.14
	v-4.125H327.218z M328.253,260.126v-1.969h3.363c-0.288-0.812-0.604-1.999-0.948-3.563l1.897-0.281
	c0.057,0.375,0.2,0.938,0.431,1.688c0.229,0.876,0.402,1.594,0.518,2.156h-0.086h2.156v1.969h-4.054l-0.086,3.375h3.881
	c0,0.876-0.029,2.188-0.086,3.938c-0.059,2.688-0.116,4.626-0.173,5.813c0,1.813-0.806,2.719-2.415,2.719
	c-0.518,0.062-1.064,0.094-1.639,0.094l-0.345-1.969c0.574,0,1.005,0,1.294,0c0.977,0.062,1.437-0.375,1.38-1.313
	c0-0.375,0.028-0.968,0.086-1.781c0.114-2.625,0.173-4.5,0.173-5.625h-2.243c0,0.188,0,0.345,0,0.469
	c-0.115,4.563-0.979,8.156-2.587,10.781l-1.467-1.406c1.437-1.999,2.213-5.156,2.329-9.469c0.114-1.624,0.173-3.499,0.173-5.625
	H328.253z M327.384,331.216v2.438h10.264v-2.438H327.384z M327.384,335.435v2.438h10.264v-2.438H327.384z M336.878,205.531
	c-1.897,1.187-4.256,2.218-7.072,3.094c-0.173-0.375-0.548-1.031-1.122-1.969c2.989-0.812,5.176-1.655,6.556-2.531
	c-1.38-1.313-2.646-3.249-3.795-5.813l0.345-0.188h-1.121v-1.969h12.161v2.156c-1.438,2.688-2.876,4.626-4.313,5.813
	c1.609,1,3.622,1.75,6.037,2.25c-0.461,0.687-0.806,1.343-1.034,1.969C340.701,207.53,338.487,206.593,336.878,205.531
	L336.878,205.531z M342.765,309.78c-2.07,0.062-3.076-0.97-3.019-3.094v-5.25c-0.748,3.813-3.854,6.875-9.315,9.188
	c-0.345-0.438-0.775-1.094-1.293-1.969c3.622-1.5,6.037-3.094,7.244-4.781c1.265-1.624,1.926-4.155,1.984-7.594l0.086-3.188h2.07
	l-0.173,3.469c0,1.438-0.115,2.719-0.345,3.844h1.812v5.813c-0.059,1.125,0.431,1.688,1.466,1.688h2.329
	c1.207,0,1.839-0.563,1.897-1.688c0.114-0.375,0.229-1.249,0.345-2.625c0-0.124,0-0.218,0-0.281
	c0.229,0.063,0.574,0.157,1.035,0.281c0.459,0.188,0.776,0.313,0.948,0.375c-0.115,1.125-0.259,2.156-0.431,3.094
	c-0.289,1.875-1.438,2.78-3.45,2.719H342.765z M330.15,159.533v-2.063h5.348c0.057-1.187,0.086-2.906,0.086-5.156h2.07
	c0,1.875-0.03,3.595-0.087,5.156h6.21v2.063h-6.296c-0.116,1.375-0.345,2.625-0.689,3.75l0.948-0.844
	c0.574,0.563,1.609,1.626,3.105,3.188c1.437,1.5,2.443,2.563,3.019,3.188l-1.639,1.5c-1.035-1.25-2.933-3.343-5.692-6.281
	c-0.863,2.313-2.704,4.469-5.521,6.469c-0.403-0.624-0.862-1.25-1.38-1.875c3.737-2.438,5.663-5.468,5.778-9.094H330.15z
	 M334.463,189.875c0.173,2.376-0.949,4.219-3.364,5.531c-0.115-0.125-0.316-0.375-0.604-0.75c-0.345-0.375-0.604-0.656-0.776-0.844
	c2.07-0.938,3.02-2.405,2.847-4.406v-2.156h9.056v4.031c-0.058,0.813,0.315,1.188,1.122,1.125h1.897l-0.259,2.063h-2.415
	c-1.553,0-2.329-0.781-2.329-2.344v-2.906h-5.175V189.875L334.463,189.875z M331.725,303.218v-13.875h15.438v13.406h-1.983v-11.344
	h-11.471v11.813H331.725z M333.428,198.125c1.035,2.063,2.185,3.656,3.45,4.781c1.437-1.187,2.674-2.78,3.709-4.781H333.428z
	 M336.016,269.032v-1.875h3.536v-1.313l2.328-2.625h-4.829v-1.406l-0.604,0.938c-0.402-0.437-0.892-0.905-1.466-1.406
	c1.38-2.063,2.472-4.468,3.277-7.219l1.983,0.281c-0.345,1.001-0.689,1.969-1.034,2.906h5.434v1.875h-6.21
	c-0.346,0.75-0.748,1.5-1.208,2.25h6.728v1.969l-2.587,3v0.75h3.277v1.875h-3.277v4.594c0.056,1.688-0.748,2.531-2.415,2.531
	c-0.807,0.062-1.553,0.094-2.243,0.094c0-0.188-0.058-0.438-0.172-0.75c-0.059-0.563-0.116-0.97-0.173-1.219c0.69,0,1.351,0,1.983,0
	c0.863,0.062,1.265-0.313,1.208-1.125v-4.125H336.016z M341.276,223.779c-0.689-0.75-1.496-1.562-2.415-2.438l1.38-1.031
	c0.287,0.25,0.69,0.625,1.208,1.125c0.632,0.563,1.092,0.97,1.38,1.219L341.276,223.779z M346.272,323.903h-2.329l0.432,6.656h1.466
	L346.272,323.903z M346.907,191.75v-1.781h3.623c-0.116-0.563-0.317-1.406-0.604-2.531c-0.115-0.437-0.202-0.75-0.259-0.938
	l1.897-0.375c0.115,0.375,0.259,0.97,0.432,1.781c0.229,0.876,0.373,1.5,0.432,1.875l-0.604,0.188h2.847v1.781h-4.313v3.375h3.795
	c0,1.063-0.029,2.625-0.086,4.688c0,2.25-0.03,3.813-0.087,4.688c0,2.25-0.862,3.375-2.587,3.375
	c-0.518,0.062-1.093,0.094-1.726,0.094c0-0.188-0.058-0.532-0.172-1.031c-0.059-0.438-0.116-0.782-0.173-1.031
	c0.46,0,0.978,0,1.553,0c0.919,0.124,1.38-0.375,1.38-1.5c0.114-2.563,0.173-5.03,0.173-7.406h-2.156c0,0.188,0,0.344,0,0.469
	c0,4.813-0.835,8.468-2.502,10.969l-1.38-1.406c1.38-2.188,2.07-5.344,2.07-9.469l0.173-5.813H346.907z M347.08,229.779v-1.688
	h7.072c0.114-0.125,0.259-0.343,0.432-0.656c0.345-0.437,0.574-0.781,0.689-1.031l2.07,0.375c-0.345,0.438-0.634,0.876-0.862,1.313
	h10.522v1.688h-5.606c1.38,1.626,3.392,2.906,6.037,3.844c-0.345,0.563-0.661,1.188-0.948,1.875
	c-3.163-1.374-5.578-3.281-7.245-5.719h-4.054c-1.61,2.001-4.17,3.844-7.677,5.531c-0.288-0.624-0.604-1.219-0.948-1.781
	c2.588-1.063,4.6-2.312,6.037-3.75H347.08z M346.821,257.97v-1.969h6.986v1.969h-2.501v5.438h2.242v1.875h-2.242v5.719
	c0.286-0.062,0.718-0.188,1.293-0.375c0.574-0.124,1.006-0.218,1.294-0.281c0,0.626,0.028,1.313,0.086,2.063
	c-0.747,0.188-1.927,0.501-3.536,0.938c-1.552,0.375-2.731,0.656-3.536,0.844l-0.345-2.063l2.76-0.656v-6.188h-2.415v-1.875h2.415
	v-5.438H346.821z M346.821,172.939v-2.156h20.441v2.156H346.821z M350.24,323.903h-2.415l0.517,6.656h1.467L350.24,323.903z
	 M348.201,156.533v-2.25h17.682v2.25H348.201z M365.106,237.654c-4.83,2.562-10.207,4.28-16.129,5.156
	c-0.058-0.188-0.173-0.501-0.345-0.938c-0.23-0.438-0.375-0.75-0.432-0.938c5.576-0.688,10.838-2.281,15.784-4.781L365.106,237.654
	L365.106,237.654z M364.33,227.154c-0.173-0.188-0.461-0.437-0.862-0.75c-0.173-0.188-0.317-0.313-0.432-0.375
	c-1.266,0-3.221,0.032-5.865,0.094c-2.876,0-4.802,0.032-5.778,0.094c-0.634,0-1.294,0.063-1.984,0.188l-0.862-1.781
	c0.805-0.313,1.495-0.656,2.07-1.031c1.264-0.75,2.788-1.937,4.571-3.563l2.329,0.656c-1.669,1.251-3.45,2.531-5.348,3.844
	c0.689,0,2.04,0,4.054,0c2.299-0.062,3.909-0.094,4.83-0.094c-0.403-0.313-0.979-0.781-1.726-1.406
	c-0.288-0.249-0.518-0.437-0.689-0.563l1.294-1.125c1.149,0.813,2.846,2.063,5.088,3.75c0.287,0.25,0.518,0.438,0.69,0.563
	L364.33,227.154z M349.15,164.501v-2.25h15.783v2.25H349.15z M362.26,234.936c-4.025,2.001-8.107,3.438-12.247,4.313
	c-0.346-0.75-0.604-1.28-0.776-1.594c4.369-0.938,8.366-2.312,11.988-4.125L362.26,234.936L362.26,234.936z M359.845,232.311
	c-2.76,1.313-5.722,2.438-8.884,3.375c-0.115-0.313-0.316-0.75-0.604-1.313c-0.116-0.125-0.173-0.219-0.173-0.281
	c2.989-0.75,5.865-1.781,8.625-3.094L359.845,232.311L359.845,232.311z M358.341,337.872c-1.726,2.063-3.45,3.938-5.176,5.625
	c-0.345-0.375-0.862-0.876-1.552-1.5c1.897-1.749,3.593-3.563,5.088-5.438L358.341,337.872L358.341,337.872z M352.044,327.466
	v-2.063h5.521c0.518-1.062,1.005-2.124,1.466-3.188l2.329,0.281c-0.403,0.938-0.862,1.907-1.38,2.906h12.42v2.063h-13.455
	c-0.979,2.001-1.984,3.844-3.019,5.531h5.951v-4.219h2.156v4.219h7.417v2.063h-7.417v5.813c0.114,2.312-0.921,3.437-3.105,3.375
	c-0.461,0.062-1.466,0.094-3.019,0.094c-0.116-0.813-0.259-1.563-0.432-2.25c0.633,0.062,1.523,0.094,2.674,0.094
	c1.208,0.062,1.782-0.53,1.726-1.781v-5.344h-8.28v-2.344c1.035-1.624,2.012-3.375,2.933-5.25H352.044z M354.411,264.438v-1.969
	h12.852v1.969h-4.054v8.531c-0.059,0.626,0.229,0.938,0.862,0.938h0.689c0.633,0,0.978-0.312,1.035-0.938
	c0.057-0.499,0.144-1.5,0.259-3c0.287,0.126,0.719,0.313,1.294,0.563c0.173,0.063,0.287,0.094,0.345,0.094
	c-0.058,0.438-0.144,1.157-0.259,2.156c-0.058,0.438-0.086,0.75-0.086,0.938c-0.23,1.438-1.064,2.156-2.501,2.156h-1.294
	c-1.61,0.062-2.387-0.75-2.329-2.438v-9h-2.501c0,0.438-0.029,1.031-0.086,1.781c0,0.876-0.03,1.47-0.087,1.781
	c-0.058,3.563-1.582,6.469-4.571,8.719c-0.172-0.25-0.517-0.625-1.034-1.125c-0.23-0.25-0.403-0.438-0.518-0.563
	c2.76-1.749,4.14-4.093,4.14-7.031c0.114-0.938,0.173-2.124,0.173-3.563H354.411z M354.217,302.093v-1.688h3.019v-1.875h1.726v1.875
	h2.674v1.688h-2.674v2.063l0.431-0.656c0.805,0.626,1.667,1.345,2.588,2.156l-1.035,1.406c-0.23-0.249-0.547-0.563-0.948-0.938
	c-0.461-0.437-0.807-0.75-1.035-0.938v5.438h-1.726v-5.906c-0.862,1.563-1.897,2.938-3.104,4.125
	c-0.059-0.188-0.145-0.501-0.259-0.938c-0.173-0.437-0.288-0.75-0.345-0.938c1.494-1.374,2.674-3,3.536-4.875H354.217z
	 M357.688,190.813c-0.402,0.876-1.15,2.001-2.242,3.375c-0.461-0.5-0.921-0.999-1.38-1.5c1.667-1.875,2.902-4.031,3.709-6.469
	l1.983,0.188c-0.345,0.938-0.69,1.813-1.035,2.625h8.625v1.781H357.688L357.688,190.813z M363.187,298.155v-4.875h-6.985v2.906
	h-1.812v-4.406h8.797v-1.313h-7.849v-1.5h17.768v1.5h-8.021v1.313h8.883v4.406h-1.897v-2.906h-6.985v4.875H363.187z
	 M360.276,204.406v-7.031l-2.501,0.563v6.469c-0.116,1.313,0.487,1.905,1.811,1.781h3.968c1.207,0.062,1.897-0.375,2.07-1.313
	c0-0.125,0.028-0.281,0.086-0.469c0-0.249,0.086-0.812,0.259-1.688c0.518,0.25,1.035,0.469,1.553,0.656
	c0,0.813-0.145,1.656-0.432,2.531c-0.23,1.374-1.266,2.03-3.104,1.969h-5.089c-1.956,0.062-2.904-0.907-2.847-2.906v-6.656
	l-1.207,0.281l-0.173-1.875l1.38-0.281v-2.719h1.726v2.344l2.501-0.563v-3.844h1.725v3.469l4.399-0.938
	c0,1.938-0.059,3.876-0.173,5.813c0,1.688-0.662,2.563-1.983,2.625c-0.518,0.063-1.065,0.094-1.64,0.094
	c-0.058-0.249-0.115-0.594-0.172-1.031c-0.116-0.313-0.173-0.563-0.173-0.75c0.518,0,0.949,0,1.294,0
	c0.69,0,1.035-0.375,1.035-1.125c0.114-1.25,0.172-2.375,0.172-3.375l-2.76,0.563v7.406H360.276z M355.532,257.97v-1.969h10.522
	v1.969H355.532z M357.408,295.53v-1.125h4.571v1.125H357.408z M357.408,297.687v-1.031h4.571v1.031H357.408z M362.583,310.624
	v-11.438h10.522v11.438h-1.811v-1.125h-6.986v1.125H362.583z M364.309,300.687v1.688h6.986v-1.688H364.309z M364.309,303.593v1.688
	h6.986v-1.688H364.309z M364.309,306.593v1.5h6.986v-1.5H364.309z M371.191,343.122c-0.172-0.188-0.489-0.501-0.948-0.938
	c-1.897-1.812-3.364-3.155-4.399-4.031l1.381-1.5c1.494,1.251,3.334,2.906,5.52,4.969L371.191,343.122z M366.292,295.53v-1.125
	h4.571v1.125H366.292z M366.292,297.687v-1.031h4.571v1.031H366.292z M374.542,227.154c-0.059,7.313-1.352,12.469-3.882,15.469
	c-0.288-0.375-0.775-0.938-1.466-1.688c2.242-2.813,3.363-7.438,3.363-13.875c0-0.249,0.028-0.5,0.087-0.75h-2.76v-1.969h2.76
	c0.057-1.313,0.086-2.687,0.086-4.125h1.897v4.125h4.83c0,2.875-0.086,7.125-0.259,12.75c0,0.75,0,1.281,0,1.594
	c-0.058,2.25-0.979,3.343-2.76,3.281c-0.806,0.062-1.639,0.094-2.501,0.094c0-0.188-0.059-0.563-0.173-1.125
	c-0.058-0.501-0.116-0.844-0.173-1.031c0.69,0,1.351,0,1.984,0c1.091,0.062,1.639-0.53,1.639-1.781
	c0.172-2.75,0.259-6.688,0.259-11.813h-2.933C374.542,226.561,374.542,226.842,374.542,227.154L374.542,227.154z M382.132,204.875
	c-1.841,1.374-4.14,2.655-6.9,3.844c-0.345-0.626-0.748-1.313-1.207-2.063c2.587-0.875,4.743-1.969,6.469-3.281
	c-1.897-2.063-3.394-4.719-4.485-7.969c-0.288,5.063-1.983,9.407-5.089,13.031c-0.172-0.188-0.431-0.469-0.775-0.844
	c-0.346-0.438-0.604-0.75-0.776-0.938c3.047-3.188,4.627-7.749,4.743-13.688l0.173-3.375h-3.623v-1.969h15.698v2.156L384.029,194
	h4.313v2.063c-1.323,3.126-2.847,5.563-4.571,7.313c1.781,1.313,3.968,2.25,6.555,2.813c-0.115,0.188-0.288,0.53-0.518,1.031
	c-0.288,0.563-0.517,0.968-0.689,1.219C386.415,207.5,384.086,206.312,382.132,204.875L382.132,204.875z M370.229,155.783v-2.156
	h19.406v2.156h-5.951v15.563h6.555v1.969h-20.613v-1.969h6.469v-15.563H370.229z M373.421,168.251c-0.921-3-1.984-6.062-3.191-9.188
	l1.812-0.656c0.632,1.563,1.552,4.125,2.76,7.688c0.229,0.625,0.401,1.094,0.518,1.406L373.421,168.251z M375.146,275.876
	c-1.841-0.188-2.876-1.281-3.104-3.281c0.172-2.124,1.207-3.281,3.104-3.469c1.954,0.188,3.019,1.345,3.191,3.469
	C378.164,274.595,377.1,275.688,375.146,275.876L375.146,275.876z M375.146,270.532c-1.093,0.126-1.696,0.813-1.812,2.063
	c0.115,1.063,0.719,1.655,1.812,1.781c1.149-0.126,1.781-0.718,1.897-1.781C376.927,271.346,376.295,270.658,375.146,270.532
	L375.146,270.532z M374.124,327.935v-2.063h9.66c-0.116-0.499-0.375-1.28-0.776-2.344c-0.172-0.499-0.288-0.844-0.345-1.031
	l2.329-0.281c0.172,0.501,0.459,1.313,0.862,2.438c0.172,0.563,0.315,0.97,0.431,1.219h8.107v2.063h-12.592
	c0,0.813-0.059,2.001-0.173,3.563c0.114-1.125,0.114-1.031,0,0.281h10.178c-0.059,1.438-0.173,3.563-0.345,6.375
	c-0.059,0.813-0.087,1.376-0.087,1.688c-0.058,2.813-1.524,4.187-4.398,4.125c-1.266,0-2.473,0-3.623,0
	c-0.115-0.688-0.259-1.375-0.431-2.063c1.092,0,2.271,0,3.536,0c1.781,0.062,2.73-0.844,2.847-2.719
	c0-0.249,0.028-0.656,0.086-1.219c0.114-1.812,0.172-3.188,0.172-4.125h-8.107c-0.23,4.5-2.242,8.124-6.037,10.875
	c-0.806-0.876-1.352-1.438-1.639-1.688c3.737-2.499,5.635-6,5.692-10.5c0.114-1.875,0.173-3.405,0.173-4.594H374.124z
	 M376.354,189.594c0,0.625-0.059,1.532-0.173,2.719c0.114-0.812,0.114-0.718,0,0.281l0.518-0.563c1.494,4.5,3.306,7.813,5.434,9.938
	c1.609-1.562,2.902-3.53,3.881-5.906h-4.484V194l2.501-4.406H376.354z M378.164,155.783v15.563h3.536v-15.563H378.164z
	 M378.597,297.03v-1.969h3.709v-3.375c-0.345,0-0.893,0.032-1.639,0.094c-0.69,0-1.237,0.032-1.639,0.094
	c0-0.249-0.059-0.593-0.173-1.031c-0.058-0.437-0.115-0.75-0.172-0.938c3.852-0.249,6.669-0.469,8.452-0.656l0.431,1.969
	c-1.093,0.063-2.214,0.157-3.363,0.281v3.563h3.622v1.969h-3.622v3.094l0.69-0.844c0.229,0.251,0.573,0.595,1.034,1.031
	c0.978,0.938,1.695,1.657,2.156,2.156l-1.293,1.594c-0.173-0.188-0.461-0.499-0.863-0.938c-0.748-0.874-1.323-1.5-1.725-1.875v9.281
	h-1.897v-10.031c-0.806,2.188-1.927,4.219-3.363,6.094c-0.231-0.812-0.489-1.594-0.776-2.344c1.608-1.937,2.902-4.343,3.881-7.219
	H378.597z M381.528,242.061v-19.219h8.021v19.219h-1.983v-2.156h-4.14v2.156H381.528z M383.426,224.904v13.031h4.14v-13.031H383.426
	z M389.722,159.064c-0.862,2.376-2.07,5.47-3.622,9.281l-1.726-0.938c1.149-2.625,2.329-5.656,3.536-9.094L389.722,159.064
	L389.722,159.064z M389.119,309.874v-19.219h9.143v19.125h-1.983v-1.969h-5.262v2.063H389.119z M391.017,292.624v13.125h5.262
	v-13.125H391.017z M395.794,197.375c-1.208-1.25-2.387-2.344-3.536-3.281l1.38-1.5c0.518,0.438,1.321,1.125,2.415,2.063
	c0.518,0.438,0.919,0.782,1.207,1.031L395.794,197.375z M395.189,230.998c-0.115-0.062-0.258-0.219-0.431-0.469
	c-1.093-0.999-1.927-1.781-2.501-2.344l1.207-1.5c1.149,0.938,2.156,1.875,3.019,2.813L395.189,230.998z M396.225,168.814
	c-0.345,1.813-1.093,3.718-2.242,5.719l-1.639-1.5c0.977-1.625,1.609-3.249,1.897-4.875c0.345-1.562,0.518-3.812,0.518-6.75v-7.406
	c6.094-0.188,11.644-0.563,16.646-1.125l0.776,2.156c-4.83,0.438-9.949,0.782-15.353,1.031v3h16.301v1.969h-16.301v0.375
	C396.829,164.595,396.627,167.065,396.225,168.814L396.225,168.814z M392.603,274.938v-2.156h20.441v2.156H392.603z
	 M396.483,234.092c-0.748,3.126-1.38,5.906-1.897,8.344l-1.811-0.656c0.804-3.188,1.408-5.968,1.811-8.344
	c0.229,0.126,0.747,0.313,1.553,0.563C395.505,233.811,395.621,233.843,396.483,234.092L396.483,234.092z M397.346,200.094
	c-0.747,2.438-1.552,5.219-2.414,8.344l-2.07-0.75c0.977-2.687,1.812-5.499,2.501-8.438
	C395.994,199.5,396.656,199.781,397.346,200.094L397.346,200.094z M396.312,191.281c-0.634-0.688-1.61-1.655-2.933-2.906
	c-0.173-0.188-0.317-0.313-0.432-0.375l1.38-1.5c0.401,0.375,1.006,0.906,1.812,1.594c0.746,0.688,1.322,1.219,1.725,1.594
	L396.312,191.281z M395.621,224.811c-0.92-1.063-1.812-2-2.674-2.813l1.294-1.406c0.919,0.813,1.84,1.72,2.76,2.719L395.621,224.811
	z M393.982,258.532v-2.25h17.682v2.25H393.982z M394.932,266.501v-2.25h15.783v2.25H394.932z M396.915,226.123v-1.969h3.363
	c-0.288-0.812-0.604-2-0.948-3.563l1.897-0.281c0.057,0.375,0.2,0.938,0.431,1.688c0.229,0.876,0.402,1.594,0.518,2.156h-0.086
	h2.156v1.969h-4.054l-0.086,3.375h3.881c0,0.876-0.029,2.188-0.086,3.938c-0.059,2.688-0.116,4.626-0.173,5.813
	c0,1.812-0.806,2.719-2.415,2.719c-0.518,0.062-1.064,0.094-1.639,0.094l-0.345-1.969c0.574,0,1.005,0,1.294,0
	c0.977,0.062,1.437-0.375,1.38-1.313c0-0.375,0.028-0.969,0.086-1.781c0.114-2.625,0.173-4.5,0.173-5.625h-2.243
	c0,0.188,0,0.344,0,0.469c-0.115,4.563-0.979,8.156-2.587,10.781l-1.467-1.406c1.437-2,2.213-5.156,2.329-9.469
	c0.114-1.625,0.173-3.5,0.173-5.625H396.915z M396.377,324.841v-1.688h20.183v1.688h-9.833l-0.604,1.5h8.366v9.469h-10.178
	c-0.402,0.438-0.834,0.907-1.294,1.406h11.299v1.781c-1.38,1.125-2.876,2.063-4.484,2.813c1.897,0.313,4.168,0.563,6.813,0.75
	c-0.288,0.688-0.518,1.313-0.69,1.875c-4.025-0.501-6.957-1.094-8.797-1.781c-2.358,0.875-5.578,1.594-9.66,2.156
	c-0.116-0.313-0.316-0.75-0.604-1.313c-0.059-0.25-0.116-0.407-0.173-0.469c2.588-0.313,5.231-0.719,7.936-1.219
	c-1.035-0.499-2.329-1.313-3.882-2.438c-1.035,0.813-2.214,1.594-3.536,2.344c-0.173-0.188-0.432-0.53-0.776-1.031
	c-0.172-0.249-0.288-0.405-0.345-0.469c2.242-1.062,4.227-2.531,5.951-4.406h-3.45v-9.469h5.434l0.432-1.5H396.377z
	 M399.157,189.781c-0.058-0.688-0.144-1.344-0.259-1.969c4.944-0.125,9.344-0.343,13.196-0.656l0.259,1.969
	c-1.897,0.063-3.795,0.156-5.692,0.281v3.75h6.555v1.969h-6.555v3.656h5.175v9.75h-1.983v-1.313H401.4v1.313h-1.984v-9.75h5.175
	v-3.656h-6.382v-1.969h6.382v-3.563L399.157,189.781z M398.554,174.439v-10.031h12.852v10.031h-1.984v-1.406h-8.884v1.406H398.554z
	 M400.537,166.376v4.875h8.884v-4.875H400.537z M400.604,327.747v1.406h11.902v-1.406H400.604z M400.604,330.372v1.406h11.902
	v-1.406H400.604z M400.604,332.903v1.5h11.902v-1.5H400.604z M401.4,200.656v4.781h8.452v-4.781H401.4z M407.158,341.06
	c1.609-0.687,3.104-1.437,4.484-2.25h-8.797C404.109,339.747,405.548,340.497,407.158,341.06L407.158,341.06z M404.678,235.029
	v-1.875h3.536v-1.313l2.328-2.625h-4.829v-1.406l-0.604,0.938c-0.402-0.437-0.892-0.905-1.466-1.406
	c1.38-2.063,2.472-4.468,3.277-7.219l1.983,0.281c-0.345,1-0.689,1.969-1.034,2.906h5.434v1.875h-6.21
	c-0.346,0.75-0.748,1.5-1.208,2.25h6.728v1.969l-2.587,3v0.75h3.277v1.875h-3.277v4.594c0.056,1.688-0.748,2.531-2.415,2.531
	c-0.807,0.062-1.553,0.094-2.243,0.094c0-0.188-0.058-0.438-0.172-0.75c-0.059-0.563-0.116-0.97-0.173-1.219c0.69,0,1.351,0,1.983,0
	c0.863,0.062,1.265-0.313,1.208-1.125v-4.125H404.678z M412.388,300.124v-6.188h-6.813v3.188h-1.897v-4.781h8.711v-1.688h-7.504
	v-1.594h16.905v1.594h-7.417v1.688h8.797v4.781h-1.983v-3.188h-6.813v6.188H412.388z M404.453,309.687v-1.688h15.266v-1.781h-14.403
	v-1.5h14.403v-1.969h-14.921v-1.594h16.905v9.375h-1.984v-0.844H404.453z M406.868,296.749v-1.313h4.398v1.313H406.868z
	 M406.868,299.468v-1.219h4.398v1.219H406.868z M418.07,162.251c-0.689,1.251-1.438,2.438-2.242,3.563
	c-0.115-0.437-0.23-0.968-0.345-1.594c-0.116-0.5-0.202-0.875-0.259-1.125c1.954-3.062,3.536-6.687,4.744-10.875l2.069,0.563
	c-0.633,1.938-1.294,3.719-1.983,5.344v16.5h-1.984V162.251L418.07,162.251z M415.397,225.279v-1.875h2.501
	c0.287-1.125,0.546-2.188,0.776-3.188l1.897,0.188c-0.059,0.375-0.202,1-0.432,1.875c-0.172,0.501-0.288,0.876-0.345,1.125h4.398
	v1.875h-4.916c-0.806,2.875-1.41,4.875-1.812,6h2.502v-4.594h1.639v4.594h2.328v1.875h-2.328v3l2.587-0.375
	c-0.058,0.75-0.086,1.406-0.086,1.969l-2.501,0.281v4.594h-1.897v-4.406c-1.553,0.188-2.991,0.375-4.313,0.563l-0.173-2.063
	c0.401,0,1.063-0.062,1.983-0.188c1.092-0.062,1.926-0.125,2.502-0.188v-3.188h-3.968v-1.875c0.057-0.188,0.143-0.469,0.259-0.844
	c0.459-1.5,0.919-3.219,1.38-5.156H415.397z M415.311,196.25v-1.969h10.005v1.969h-4.484c-1.035,2.751-2.014,5.25-2.933,7.5
	c0.401,0,1.035-0.062,1.897-0.188c1.322-0.062,2.299-0.125,2.933-0.188c-0.173-0.5-0.432-1.187-0.776-2.063
	c-0.345-0.938-0.604-1.625-0.776-2.063l1.639-0.656c0.632,1.5,1.523,3.719,2.674,6.656c1.553-2.188,2.357-5.874,2.415-11.063
	c0-0.188,0.028-0.406,0.086-0.656c0-0.313,0-0.53,0-0.656h-2.674v-1.969h2.674c0.057-1.5,0.087-3.062,0.087-4.688h1.983
	c-0.058,1.438-0.086,3-0.086,4.688h5.52c-0.116,7.188-0.23,11.751-0.345,13.688c-0.059,2.25-1.035,3.405-2.933,3.469
	c-0.862,0-1.841,0-2.933,0c-0.116-0.813-0.259-1.532-0.432-2.156c0.287,0,0.719,0,1.294,0c0.574,0,1.006,0,1.294,0
	c1.208,0.062,1.781-0.53,1.725-1.781c0.229-3.938,0.346-7.688,0.346-11.25h-3.623c0,0.438,0,0.906,0,1.406
	c0,6.25-1.466,11.031-4.398,14.344c-0.23-0.126-0.575-0.345-1.035-0.656c-0.345-0.251-0.604-0.438-0.776-0.563
	c0.346-0.375,0.776-0.876,1.294-1.5c0.173-0.249,0.287-0.406,0.345-0.469l-1.639,0.375c-0.058-0.188-0.144-0.375-0.259-0.563
	c-0.575,0.063-1.323,0.126-2.242,0.188c-1.438,0.126-2.531,0.22-3.277,0.281c-0.69,0.063-1.294,0.156-1.812,0.281l-0.776-1.781
	c0.402-0.375,0.776-0.905,1.121-1.594c0.863-2,1.609-4.125,2.243-6.375H415.311z M416.001,257.782v-2.156h19.406v2.156h-5.951
	v15.563h6.555v1.969h-20.613v-1.969h6.469v-15.563H416.001z M415.579,296.749v-1.313h4.398v1.313H415.579z M415.579,299.468v-1.219
	h4.398v1.219H415.579z M419.192,270.251c-0.921-3-1.984-6.062-3.191-9.188l1.812-0.656c0.632,1.563,1.552,4.125,2.76,7.688
	c0.229,0.626,0.401,1.095,0.518,1.406L419.192,270.251z M416.346,189.969V188h8.193v1.969H416.346z M438.294,342.372
	c-0.288,1.374-0.978,2.063-2.069,2.063c-1.38,0.062-2.474-1.063-3.277-3.375c-1.151,1.374-2.156,2.469-3.02,3.281
	c-0.345-0.438-0.806-0.906-1.38-1.406c1.437-1.249,2.674-2.655,3.709-4.219c-0.575-2.312-0.979-6.03-1.207-11.156h-9.401v4.781
	c0.114,5.751-0.634,9.812-2.243,12.188c-0.461-0.375-0.978-0.782-1.552-1.219c0.804-1.375,1.321-2.813,1.552-4.313
	c0.287-1.374,0.432-3.53,0.432-6.469v-6.75h11.126c0-0.437-0.029-1.062-0.086-1.875c0-0.812,0-1.406,0-1.781h1.897
	c0,0.438,0.028,1.063,0.086,1.875c0,0.813,0,1.406,0,1.781h3.019c-0.747-0.874-1.438-1.594-2.069-2.156l1.38-0.656
	c0.805,0.75,1.522,1.5,2.156,2.25l-1.035,0.563h2.415v1.781h-5.778c0.057,3.438,0.287,6.345,0.689,8.719
	c1.035-2.063,1.868-4.343,2.501-6.844l1.812,0.656c-1.035,3.626-2.242,6.563-3.622,8.813l0.086,0.281c0.46,2.001,1.035,3,1.725,3
	c0.287,0,0.518-0.22,0.69-0.656c0.057-0.624,0.086-0.812,0.086-0.563c0.115-1.374,0.229-2.405,0.346-3.094
	c0.574,0.313,1.121,0.563,1.639,0.75C438.726,339.935,438.523,341.186,438.294,342.372L438.294,342.372z M434.458,161.595
	c-0.633-0.188-1.294-0.343-1.983-0.469l1.294-3.469h-8.366c-0.69,1.438-1.467,2.906-2.329,4.406
	c-0.575-0.563-1.121-1.031-1.639-1.406c1.609-2.438,2.903-5.218,3.881-8.344l2.07,0.469c-0.345,0.938-0.689,1.875-1.035,2.813h9.487
	v1.969L434.458,161.595z M426.351,163.189c-1.093,3.063-2.1,5.719-3.019,7.969c-0.634-0.375-1.266-0.687-1.897-0.938
	c1.264-2.625,2.271-5.218,3.019-7.781L426.351,163.189L426.351,163.189z M429.152,342.091l-1.898-1.125
	c-1.093,0.999-2.617,1.969-4.57,2.906c-0.346-0.563-0.72-1.125-1.122-1.688c1.553-0.499,2.933-1.249,4.141-2.25
	c-0.403-0.249-1.007-0.624-1.812-1.125c-0.518-0.312-0.893-0.53-1.121-0.656c0.459-0.938,0.891-1.969,1.294-3.094h-2.07v-1.594
	h2.588l0.604-2.063l1.725,0.375c-0.172,0.563-0.345,1.125-0.518,1.688h3.882v1.594c-0.461,1.875-1.094,3.375-1.897,4.5
	c0.632,0.313,1.235,0.656,1.811,1.031L429.152,342.091z M422.511,331.028v-1.594h7.59v1.594H422.511z M436.355,227.623
	c-0.23,0.375-0.575,1.063-1.035,2.063c-2.358-1.813-4.169-3.969-5.434-6.469c-1.38,2.376-3.277,4.563-5.692,6.563
	c-0.115-0.249-0.374-0.718-0.776-1.406c-0.172-0.188-0.288-0.343-0.345-0.469c2.875-2.124,4.916-4.719,6.124-7.781l2.069,0.281
	l-0.431,0.938C432.216,224.093,434.056,226.186,436.355,227.623L436.355,227.623z M423.936,257.782v15.563h3.536v-15.563H423.936z
	 M427.213,174.251c-0.517,0.062-1.38,0.094-2.587,0.094c-0.116-0.813-0.259-1.563-0.432-2.25c0.518,0.062,1.265,0.094,2.243,0.094
	c1.034,0.062,1.522-0.375,1.466-1.313v-11.438h2.07v11.813C430.03,173.188,429.11,174.188,427.213,174.251L427.213,174.251z
	 M426.909,338.622c0.747-0.938,1.294-2.124,1.639-3.563h-2.76c-0.173,0.501-0.432,1.157-0.776,1.969
	c0.173-0.375,0.114-0.218-0.172,0.469L426.909,338.622L426.909,338.622z M428.68,241.967c-2.014,0-3.019-1.063-3.019-3.188v-9.563
	h1.897v4.125c1.839-1.063,3.593-2.344,5.261-3.844l1.208,1.688c-2.128,1.688-4.284,3.156-6.469,4.406v2.719
	c-0.059,1.125,0.518,1.655,1.725,1.594h1.983c1.15,0,1.782-0.53,1.897-1.594c0.173-0.999,0.287-2.063,0.346-3.188
	c0.689,0.25,1.322,0.469,1.897,0.656c-0.173,1.563-0.375,2.781-0.604,3.656c-0.23,1.688-1.324,2.531-3.278,2.531H428.68z
	 M435.493,261.063c-0.862,2.376-2.07,5.47-3.622,9.281l-1.726-0.938c1.149-2.625,2.329-5.655,3.536-9.094L435.493,261.063
	L435.493,261.063z M433.759,306.499c0,2.188-0.748,3.812-2.242,4.875l-0.776-0.844c1.035-0.813,1.581-2.031,1.639-3.656h-1.467
	v-3.094h2.847C433.759,304.281,433.759,305.187,433.759,306.499L433.759,306.499z M434.286,171.064
	c-0.69-2.063-1.669-4.688-2.933-7.875l1.811-0.656c0.69,1.688,1.64,4.063,2.847,7.125c-0.058-0.125,0,0.063,0.173,0.563
	L434.286,171.064z M447.085,221.904c-1.897,4.125-4.429,7.626-7.59,10.5l-1.38-1.969c3.047-2.438,5.376-5.563,6.986-9.375
	L447.085,221.904L447.085,221.904z M438.201,155.876v-2.063h20.873v2.063h-3.105v15c0.057,2.187-0.979,3.281-3.104,3.281
	c-1.208,0.062-2.445,0.094-3.709,0.094c-0.058-0.563-0.202-1.313-0.432-2.25c1.208,0.062,2.3,0.094,3.277,0.094
	c1.381,0.125,2.013-0.5,1.897-1.875v-14.344H438.201z M439.495,276.626V255.72h18.544v20.906h-2.07v-1.5h-14.403v1.5H439.495z
	 M456.055,242.623l-1.38-2.063c-4.428,0.188-8.251,0.405-11.471,0.656c-0.403,0-0.949,0.062-1.639,0.188
	c-0.346,0.062-0.604,0.094-0.776,0.094l-0.949-1.969c0.69-0.375,1.294-0.905,1.812-1.594c1.954-2.438,3.852-5.405,5.692-8.906
	l2.07,1.125c-1.841,3-3.882,6.032-6.124,9.094c1.609-0.062,4.054-0.155,7.331-0.281c1.149-0.062,2.041-0.125,2.674-0.188
	c-0.518-0.624-1.266-1.625-2.242-3c-0.403-0.563-0.72-0.999-0.949-1.313l1.553-1.219c1.035,1.313,2.616,3.407,4.744,6.281
	c0.689,0.75,1.178,1.343,1.466,1.781L456.055,242.623z M451.318,333.466c0,0.75-0.059,1.406-0.173,1.969h9.057
	c0,1.063-0.059,2.063-0.173,3c-0.058,1.376-0.834,2.063-2.328,2.063c-0.748,0-1.64,0-2.674,0c0-0.062-0.03-0.218-0.087-0.469
	c-0.115-0.437-0.202-0.75-0.259-0.938c0.69,0.063,1.437,0.094,2.243,0.094c0.689,0,1.063-0.281,1.121-0.844
	c0-0.124,0.028-0.312,0.086-0.563c0-0.249,0.028-0.437,0.086-0.563h-6.641c1.035,3.126,4.11,4.906,9.229,5.344
	c-0.058,0.249-0.202,0.594-0.432,1.031c-0.172,0.5-0.316,0.844-0.431,1.031c-5.291-0.876-8.539-2.937-9.746-6.188
	c-0.748,2.563-3.767,4.655-9.057,6.281c-0.288-0.563-0.604-1.251-0.948-2.063c5.059-1.249,7.877-3.062,8.452-5.438h-7.418
	l0.949-5.438h7.245c0-0.375,0-0.75,0-1.125v-0.938h-7.849v-1.688h7.849v-1.875h-9.057v-1.875h9.057v-2.063h1.983v2.063h9.229v1.875
	h-9.229v1.875h7.59v5.438H451.318z M440.53,170.408v-11.25h9.487v9.563h-7.504v1.688H440.53z M444.325,204.5
	c0,2.187-0.748,3.812-2.242,4.875l-0.776-0.844c1.035-0.813,1.581-2.032,1.639-3.656h-1.467v-3.094h2.847
	C444.325,202.282,444.325,203.188,444.325,204.5L444.325,204.5z M452.691,269.032c-1.783,0.063-2.646-0.844-2.588-2.719v-8.531
	h-2.932v4.313c0.172,3.501-1.122,6.345-3.882,8.531c-0.461-0.499-0.948-0.999-1.466-1.5c2.472-1.875,3.622-4.28,3.449-7.219
	c0-1.249,0-2.625,0-4.125h-3.708v15.563h14.403v-15.563h-3.881v7.781c-0.059,1.001,0.401,1.47,1.38,1.406h2.242
	c0,0.251-0.058,0.595-0.172,1.031c-0.059,0.438-0.116,0.782-0.173,1.031H452.691z M442.514,161.126v5.719h5.521v-5.719H442.514z
	 M443.9,333.466l-0.431,1.969h5.606c0.172-0.563,0.258-1.219,0.258-1.969H443.9z M458.039,231.467
	c-0.116,0.188-0.202,0.344-0.259,0.469c-3.566-2.625-6.096-6.125-7.59-10.5l1.897-0.75c1.437,4,3.795,7.031,7.072,9.094
	C458.93,230.154,458.557,230.717,458.039,231.467L458.039,231.467z M457.011,329.716h-5.606v0.844c0,0.438,0,0.844,0,1.219h5.606
	V329.716z M453.577,310.624v-20.906h18.544v20.906h-2.07v-1.5h-14.403v1.5H453.577z M466.773,303.03
	c-1.783,0.063-2.646-0.844-2.588-2.719v-8.531h-2.932v4.313c0.172,3.501-1.122,6.345-3.882,8.531
	c-0.461-0.499-0.948-0.999-1.466-1.5c2.472-1.875,3.622-4.28,3.449-7.219c0-1.249,0-2.625,0-4.125h-3.708v15.563h14.403V291.78
	h-3.881v7.781c-0.059,1.001,0.401,1.47,1.38,1.406h2.242c0,0.251-0.058,0.595-0.172,1.031c-0.059,0.438-0.116,0.782-0.173,1.031
	H466.773z M470.493,203.656v-9.188l-4.657,1.219v7.875c-0.058,1.626,0.689,2.405,2.242,2.344h9.057c1.494,0,2.299-0.563,2.415-1.688
	c0.172-0.999,0.315-2.063,0.431-3.188c0.346,0.126,0.833,0.281,1.467,0.469c0.287,0.063,0.487,0.126,0.604,0.188
	c-0.173,1.313-0.375,2.531-0.604,3.656c-0.23,1.688-1.524,2.499-3.882,2.438h-10.177c-2.415,0.062-3.595-1.125-3.537-3.563v-7.969
	l-2.587,0.656l-0.259-2.063l2.846-0.75v-5.25h1.984v4.781l4.657-1.219v-6.188h2.07v5.625l7.417-1.875
	c-0.058,1.251-0.144,3.032-0.259,5.344c-0.058,1.125-0.086,1.938-0.086,2.438c-0.058,2.5-1.093,3.719-3.104,3.656
	c-0.518,0.063-1.324,0.094-2.415,0.094c-0.059-0.437-0.173-1.031-0.346-1.781c-0.058-0.188-0.086-0.313-0.086-0.375
	c0.574,0,1.322,0,2.242,0c1.208,0.126,1.782-0.5,1.726-1.875c0.057-0.563,0.114-1.531,0.172-2.906
	c0.057-0.938,0.087-1.625,0.087-2.063l-5.348,1.406v9.75H470.493z M466.871,257.126c-1.669,0-2.904,0.032-3.709,0.094
	c-0.058-0.624-0.145-1.219-0.259-1.781c6.037-0.124,11.614-0.312,16.732-0.563l0.345,1.781c-1.093,0.063-2.76,0.126-5.002,0.188
	c-1.093,0.063-1.928,0.094-2.501,0.094v2.344h8.97v1.781h-7.59c1.954,1.5,4.657,2.625,8.107,3.375
	c-0.346,0.688-0.662,1.313-0.949,1.875c-3.853-1.187-6.699-2.749-8.538-4.688v3.094h-1.984v-3c-1.841,1.938-4.688,3.563-8.539,4.875
	c-0.288-0.563-0.604-1.187-0.948-1.875c3.45-0.938,6.152-2.156,8.107-3.656h-7.676v-1.781h9.056v-2.25
	C469.688,257.032,468.479,257.064,466.871,257.126L466.871,257.126z M461.092,271.751v-1.781h9.746v-0.844l3.45-1.781h-9.056v-1.688
	h12.074v1.781l-4.398,2.438v0.094h8.97v1.781h-8.97v1.875c0.057,1.749-0.834,2.687-2.674,2.813c-1.266,0-2.473,0-3.622,0
	c0-0.063,0-0.156,0-0.281c-0.059-0.375-0.173-0.938-0.346-1.688c0.69,0.062,1.726,0.094,3.105,0.094
	c1.035,0.062,1.522-0.375,1.466-1.313v-1.5H461.092z M461.351,227.904v-1.875h15.611v1.875H461.351z M477.565,162.064
	c-0.806,0-1.552,0-2.242,0l0,0c0-0.5-0.116-1.125-0.345-1.875c0.459,0.063,1.178,0.094,2.156,0.094
	c1.092,0.063,1.639-0.563,1.639-1.875c0.057-0.249,0.086-0.781,0.086-1.594c0.057-0.687,0.086-1.219,0.086-1.594h-3.708
	c0.057,3.25-1.151,5.813-3.623,7.688c-0.115-0.125-0.259-0.281-0.431-0.469c-0.461-0.5-0.776-0.844-0.949-1.031l0.086-0.094
	c0.057,0,0.087-0.031,0.087-0.094l-0.432,0.281c-0.172-0.188-0.374-0.5-0.604-0.938c-0.173-0.312-0.288-0.53-0.345-0.656
	c-0.69,0.25-1.669,0.656-2.933,1.219c-0.748,0.313-1.323,0.532-1.726,0.656c-0.461,0.188-0.92,0.438-1.38,0.75l-1.121-1.5
	c0.46-0.5,0.69-1.187,0.69-2.063v-5.344c2.874-0.188,5.348-0.53,7.417-1.031l0.604,1.875c-2.358,0.501-4.398,0.813-6.123,0.938
	v4.313c0.459-0.125,1.437-0.5,2.933-1.125c0.345-0.125,0.604-0.218,0.775-0.281c-0.115-0.249-0.316-0.656-0.604-1.219
	c-0.115-0.188-0.202-0.312-0.259-0.375l1.467-0.75c1.207,1.813,2.098,3.281,2.674,4.406c1.321-0.999,1.983-2.719,1.983-5.156h-2.07
	v-1.688h9.488c0,0.625-0.059,1.75-0.173,3.375c-0.058,0.75-0.086,1.282-0.086,1.594
	C480.585,160.939,479.578,162.127,477.565,162.064L477.565,162.064z M477.824,242.342c-1.207,0-2.53,0-3.967,0
	c-0.116-0.75-0.259-1.5-0.432-2.25c0.919,0.062,2.07,0.094,3.45,0.094c1.264,0.062,1.867-0.5,1.812-1.688v-15.188h-16.302v-1.969
	h18.371v17.719C480.813,241.185,479.837,242.278,477.824,242.342L477.824,242.342z M465.032,323.903h-2.329l0.432,6.656h1.466
	L465.032,323.903z M463.248,174.626v-11.25h16.474v11.156h-1.983v-1.031h-12.506v1.125H463.248z M463.248,239.904v-9.469h11.472
	v7.969h-9.487v1.5H463.248z M465.232,165.158v2.625h5.261v-2.625H465.232z M465.232,169.376v2.531h5.261v-2.531H465.232z
	 M465.232,236.529h7.503v-4.125h-7.503V236.529z M469,323.903h-2.415l0.517,6.656h1.467L469,323.903z M473.919,340.778
	c-0.862,0.876-1.755,1.906-2.674,3.094l-0.862-2.25c0.518-0.624,1.293-1.5,2.328-2.625c0.632-0.624,1.178-0.938,1.639-0.938
	c0.115,0,0.229,0.032,0.346,0.094c0.114,0,0.2,0,0.259,0c4.369-2.813,8.279-6.03,11.729-9.656h-14.662v-2.063h8.452
	c-0.23-0.624-0.604-1.562-1.121-2.813c-0.173-0.437-0.316-0.75-0.432-0.938l2.243-0.469c0.459,1.063,1.005,2.407,1.639,4.031
	l-0.604,0.188h7.245v2.25c-3.738,4.188-8.021,7.845-12.851,10.969c1.034,1.313,2.644,2.001,4.83,2.063
	c2.069,0.063,5.403,0.032,10.005-0.094c-0.289,0.688-0.489,1.406-0.604,2.156c-2.703,0-4.657,0-5.864,0
	c-1.496-0.063-2.818-0.126-3.968-0.188c-2.703,0-4.773-0.938-6.21-2.813C474.493,340.529,474.206,340.529,473.919,340.778
	L473.919,340.778z M477.738,165.158h-5.261v2.625h5.261V165.158z M472.478,169.376v2.531h5.261v-2.531H472.478z M482.711,291.124
	c-1.669,0-2.904,0.032-3.709,0.094c-0.058-0.624-0.145-1.219-0.259-1.781c6.037-0.124,11.614-0.312,16.732-0.563l0.345,1.781
	c-1.093,0.063-2.76,0.126-5.002,0.188c-1.093,0.063-1.928,0.094-2.501,0.094v2.344h8.97v1.781h-7.59
	c1.954,1.5,4.657,2.625,8.107,3.375c-0.346,0.688-0.662,1.313-0.949,1.875c-3.853-1.187-6.699-2.749-8.538-4.688v3.094h-1.984v-3
	c-1.841,1.938-4.688,3.563-8.539,4.875c-0.288-0.563-0.604-1.187-0.948-1.875c3.45-0.938,6.152-2.156,8.107-3.656h-7.676v-1.781
	h9.056v-2.25C485.527,291.03,484.319,291.063,482.711,291.124L482.711,291.124z M476.932,305.749v-1.781h9.746v-0.844l3.45-1.781
	h-9.056v-1.688h12.074v1.781l-4.398,2.438v0.094h8.97v1.781h-8.97v1.875c0.057,1.749-0.834,2.687-2.674,2.813
	c-1.266,0-2.473,0-3.622,0c0-0.063,0-0.156,0-0.281c-0.059-0.375-0.173-0.938-0.346-1.688c0.69,0.062,1.726,0.094,3.105,0.094
	c1.035,0.062,1.522-0.375,1.466-1.313v-1.5H476.932z M484.835,157.189v-1.969h5.865c0.46-0.999,0.833-2.03,1.121-3.094l2.156,0.281
	c-0.172,0.438-0.402,1.063-0.689,1.875c-0.173,0.438-0.288,0.75-0.345,0.938h11.815v1.969H492.08c-0.633,1.5-1.552,3.188-2.76,5.063
	v12.281h-1.983v-9.75c-0.748,0.813-1.582,1.688-2.502,2.625c-0.288-0.687-0.604-1.406-0.948-2.156
	c2.588-2.499,4.571-5.187,5.951-8.063H484.835z M491.045,235.123c-2.645,0.25-4.773,0.531-6.382,0.844l-0.604-1.969
	c0.518-0.375,1.005-0.875,1.466-1.5c0.69-0.938,1.437-2.03,2.242-3.281c-1.266,0.063-2.387,0.156-3.363,0.281l-0.518-1.875
	c0.229-0.188,0.518-0.563,0.862-1.125c0.114-0.188,0.201-0.313,0.259-0.375c1.208-2,2.242-3.999,3.105-6l2.069,0.75
	c-1.266,2.25-2.617,4.438-4.054,6.563c1.265,0,2.185-0.031,2.76-0.094c0.46-0.75,0.892-1.5,1.294-2.25l1.812,0.844
	c-1.955,3.126-3.681,5.719-5.175,7.781c0.459-0.062,1.207-0.155,2.242-0.281c0.919-0.062,1.609-0.125,2.07-0.188
	C491.073,233.811,491.045,234.436,491.045,235.123L491.045,235.123z M490.614,239.904c-1.955,0.124-4.084,0.437-6.383,0.938
	l-0.345-1.969c0.69-0.125,1.753-0.281,3.191-0.469c1.839-0.249,3.248-0.469,4.226-0.656c-0.058,0.501-0.086,1.188-0.086,2.063
	c-0.058,0-0.116,0-0.173,0h1.726v-18.375h10.35v18.375h1.726v1.781h-14.231V239.904L490.614,239.904z M492.856,274.938
	c-0.345-0.375-0.92-0.906-1.725-1.594c-0.518-0.499-0.893-0.874-1.121-1.125c-0.979,1.251-2.531,2.719-4.658,4.406
	c-0.461-0.563-0.948-1.157-1.466-1.781c2.07-1.249,3.593-2.593,4.571-4.031c-1.208-1.249-2.387-2.344-3.536-3.281
	c0.574-2.187,1.063-4.437,1.466-6.75h-2.328v-2.063h2.673c0.229-1.5,0.432-3,0.604-4.5l2.156,0.188
	c-0.173,1.438-0.403,2.876-0.69,4.313h4.744v1.969c-0.403,4.438-1.208,7.688-2.415,9.75c1.092,0.938,2.185,1.907,3.277,2.906
	L492.856,274.938z M483.973,189.875v-2.063h20.873v2.063h-3.105v15c0.057,2.187-0.979,3.281-3.104,3.281
	c-1.208,0.062-2.445,0.094-3.709,0.094c-0.058-0.563-0.202-1.313-0.432-2.25c1.208,0.062,2.3,0.094,3.277,0.094
	c1.381,0.124,2.013-0.5,1.897-1.875v-14.344H483.973z M486.302,204.406v-11.25h9.487v9.563h-7.504v1.688H486.302z M489.579,269.032
	c0.919-1.875,1.553-4.624,1.897-8.25h-3.019c-0.23,1.313-0.634,3.126-1.208,5.438c-0.058,0.313-0.115,0.532-0.172,0.656
	L489.579,269.032L489.579,269.032z M488.285,195.125v5.719h5.521v-5.719H488.285z M491.132,165.064v-1.969h5.261v-4.406h1.984v4.406
	h5.261v1.969h-5.261v6.188h6.382v1.875h-14.662v-1.875h6.296v-6.188H491.132z M492.722,330.935v-1.969h3.19v-3.281
	c-0.288,0-0.748,0.032-1.38,0.094c-0.575,0-1.035,0.032-1.38,0.094c0-0.188-0.058-0.437-0.172-0.75
	c-0.059-0.499-0.116-0.874-0.173-1.125c2.242-0.188,4.714-0.437,7.417-0.75l0.346,1.969c-0.921,0.063-1.869,0.157-2.847,0.281v3.469
	h2.415v0.844c1.38-2.124,2.529-4.655,3.45-7.594l1.983,0.375c-0.345,0.938-0.689,1.875-1.035,2.813h8.453v1.969l-1.294,3.75
	c-0.345-0.124-0.806-0.281-1.38-0.469c-0.23,0-0.403-0.03-0.518-0.094l1.207-3.281h-7.331c-0.575,1.313-1.266,2.657-2.069,4.031
	c-0.289-0.312-0.72-0.718-1.294-1.219c0.057,0.063,0,0-0.173-0.188v1.031h-2.415v1.594c0.978,0.75,1.954,1.563,2.933,2.438
	l-0.949,1.5c-0.689-0.687-1.352-1.313-1.983-1.875v10.031h-1.812v-9.563c-0.748,1.938-1.639,3.72-2.673,5.344
	c-0.059-0.249-0.173-0.624-0.346-1.125c-0.115-0.437-0.23-0.78-0.345-1.031c1.38-2.25,2.472-4.688,3.277-7.313H492.722z
	 M494.754,223.311v4.313h6.383v-4.313H494.754z M494.754,229.404v4.313h6.383v-4.313H494.754z M494.754,235.592v4.219h6.383v-4.219
	H494.754z M495.358,275.782v-19.125h8.452v18.844h-1.984v-1.688h-4.484v1.969H495.358z M497.342,258.72v13.031h4.484V258.72H497.342
	z M504.192,332.903c-0.633,2.063-1.524,4.781-2.674,8.156l-1.812-0.844c0.978-2.374,1.868-4.999,2.674-7.875L504.192,332.903
	L504.192,332.903z M502.271,296.187c-0.23-0.624-0.518-1.28-0.862-1.969c1.437-1.688,2.587-3.687,3.449-6l1.897,0.281
	c-0.172,0.313-0.374,0.75-0.604,1.313c-0.116,0.251-0.202,0.438-0.259,0.563h3.882v1.781l-1.38,2.438h2.328v10.781h-8.193v-9.563
	L502.271,296.187z M508.652,309.312c-3.048,0.249-5.347,0.469-6.899,0.656l-0.173-2.063c0.402,0,1.035,0,1.897,0
	c3.45-0.188,6.095-0.375,7.936-0.563c0,0.188,0,0.469,0,0.844c-0.059,0.375-0.087,0.656-0.087,0.844
	C510.751,309.092,509.86,309.186,508.652,309.312L508.652,309.312z M505.142,344.247c-0.863,0-1.669,0-2.415,0
	c0-0.063,0-0.126,0-0.188c-0.059-0.563-0.173-1.188-0.346-1.875c0.633,0,1.322,0,2.07,0c0.862,0.062,1.264-0.312,1.208-1.125
	v-12.188h1.897v12.563C507.613,343.31,506.809,344.247,505.142,344.247L505.142,344.247z M507.877,292.155h-2.847
	c-0.518,0.876-1.064,1.688-1.639,2.438h3.104L507.877,292.155z M504.168,296.28v2.906h1.812v-2.906H504.168z M504.168,300.78v2.906
	h1.812v-2.906H504.168z M509.623,163.001c-0.115-0.062-0.258-0.218-0.431-0.469c-1.093-0.999-1.927-1.781-2.501-2.344l1.207-1.5
	c1.149,0.938,2.156,1.875,3.019,2.813L509.623,163.001z M513.85,235.404c-2.646,0.188-4.657,0.407-6.037,0.656l-0.604-1.969
	l0.086-0.094c0.459-0.375,0.833-0.781,1.121-1.219c0.69-0.875,1.466-2.03,2.329-3.469c-1.61,0.063-2.761,0.188-3.45,0.375
	l-0.518-1.969c0.345-0.249,0.746-0.781,1.207-1.594c1.092-1.749,2.07-3.75,2.933-6l2.07,0.75c-1.035,2.063-2.329,4.313-3.881,6.75
	c0.459-0.062,1.38-0.094,2.76-0.094c0.114-0.313,0.345-0.812,0.689-1.5c0.173-0.375,0.315-0.656,0.432-0.844l1.897,0.938
	c-1.61,2.625-3.277,5.188-5.003,7.688l4.054-0.375C513.878,234.061,513.85,234.717,513.85,235.404L513.85,235.404z M514.022,239.904
	c-2.704,0.375-4.946,0.78-6.728,1.219l-0.432-1.969c0.518-0.125,1.38-0.281,2.588-0.469c2.012-0.313,3.536-0.563,4.571-0.75
	C514.022,238.561,514.022,239.217,514.022,239.904L514.022,239.904z M507.295,256.845v-1.688h20.183v1.688h-9.833l-0.604,1.5h8.366
	v9.469h-10.178c-0.402,0.438-0.834,0.907-1.294,1.406h11.299v1.781c-1.38,1.125-2.875,2.063-4.484,2.813
	c1.897,0.313,4.168,0.563,6.813,0.75c-0.288,0.688-0.518,1.313-0.69,1.875c-4.025-0.501-6.957-1.094-8.797-1.781
	c-2.358,0.875-5.578,1.594-9.66,2.156c-0.116-0.313-0.316-0.75-0.604-1.313c-0.059-0.25-0.116-0.407-0.173-0.469
	c2.588-0.313,5.231-0.719,7.936-1.219c-1.035-0.499-2.329-1.313-3.882-2.438c-1.035,0.813-2.214,1.594-3.536,2.344
	c-0.173-0.188-0.432-0.53-0.776-1.031c-0.172-0.249-0.288-0.405-0.345-0.469c2.242-1.062,4.227-2.531,5.951-4.406h-3.45v-9.469
	h5.434l0.432-1.5H507.295z M510.917,166.095c-0.748,3.126-1.38,5.906-1.897,8.344l-1.811-0.656c0.804-3.188,1.408-5.968,1.811-8.344
	c0.229,0.126,0.747,0.313,1.553,0.563C509.938,165.814,510.055,165.846,510.917,166.095L510.917,166.095z M509.17,296.28h-1.811
	v2.906h1.811V296.28z M507.359,300.78v2.906h1.811v-2.906H507.359z M510.055,156.814c-0.92-1.062-1.812-2-2.674-2.813l1.294-1.406
	c0.919,0.813,1.84,1.72,2.76,2.719L510.055,156.814z M511.696,340.966c-0.921-2.813-1.869-5.499-2.847-8.063l1.812-0.563
	c0.114,0.313,0.287,0.782,0.518,1.406c1.092,2.938,1.897,5.095,2.415,6.469L511.696,340.966z M508.934,208.625v-19.5h5.692
	c0.057-0.313,0.173-0.75,0.345-1.313c0.173-0.75,0.287-1.28,0.346-1.594l2.328,0.188c-0.058,0.375-0.202,0.938-0.431,1.688
	c-0.173,0.438-0.289,0.782-0.346,1.031h8.798v19.5h-2.156v-1.5h-12.506v1.5H508.934z M511.349,158.126v-1.969h3.363
	c-0.288-0.812-0.604-2-0.948-3.563l1.897-0.281c0.057,0.375,0.2,0.938,0.431,1.688c0.229,0.876,0.402,1.594,0.518,2.156h-0.086
	h2.156v1.969h-4.054l-0.086,3.375h3.881c0,0.876-0.029,2.188-0.086,3.938c-0.058,2.688-0.116,4.626-0.173,5.813
	c0,1.812-0.806,2.719-2.415,2.719c-0.518,0.062-1.064,0.094-1.639,0.094l-0.345-1.969c0.574,0,1.005,0,1.294,0
	c0.977,0.062,1.437-0.375,1.38-1.313c0-0.375,0.028-0.968,0.086-1.781c0.114-2.625,0.173-4.5,0.173-5.625h-2.243
	c0,0.188,0,0.344,0,0.469c-0.115,4.563-0.979,8.156-2.587,10.781l-1.467-1.406c1.437-2,2.213-5.156,2.329-9.469
	c0.114-1.625,0.173-3.5,0.173-5.625H511.349z M511.004,191.094v3.563h12.506v-3.563H511.004z M511.004,196.438V200h12.506v-3.563
	H511.004z M511.004,201.781v3.563h12.506v-3.563H511.004z M511.521,259.751v1.406h11.902v-1.406H511.521z M511.521,262.376v1.406
	h11.902v-1.406H511.521z M511.521,264.907v1.5h11.902v-1.5H511.521z M511.672,294.593v-1.969h5.52
	c0.862-1.437,1.639-2.874,2.329-4.313l1.812,0.75c-0.173,0.313-0.461,0.782-0.863,1.406c-0.575,1.001-1.035,1.72-1.38,2.156h3.019
	v1.969h-4.313v3.375h3.882v1.875h-3.882v3.469h4.658v1.969h-4.658v5.344h-1.897v-5.344h-4.313v-1.969h4.313v-3.469h-3.708v-1.875
	h3.708v-3.375H511.672z M514.432,292.343c-0.748-1.5-1.352-2.593-1.812-3.281l1.553-0.75c0.345,0.501,0.805,1.282,1.38,2.344
	c0.229,0.375,0.401,0.656,0.518,0.844L514.432,292.343z M519.715,236.061c-1.208,2.001-2.76,4.155-4.657,6.469l-1.726-1.406
	c1.495-1.5,3.019-3.53,4.571-6.094L519.715,236.061L519.715,236.061z M518.076,273.063c1.609-0.687,3.104-1.437,4.484-2.25h-8.797
	C515.027,271.751,516.466,272.501,518.076,273.063L518.076,273.063z M515.488,233.529v-11.813h10.868v11.813H515.488z
	 M520.321,343.872c-1.841-0.188-2.876-1.281-3.104-3.281c0.172-2.124,1.207-3.281,3.104-3.469c1.954,0.188,3.019,1.345,3.191,3.469
	C523.34,342.591,522.275,343.685,520.321,343.872L520.321,343.872z M517.473,223.686v7.875h6.813v-7.875H517.473z M519.111,167.033
	v-1.875h3.536v-1.313l2.328-2.625h-4.829v-1.406l-0.604,0.938c-0.402-0.437-0.892-0.905-1.466-1.406
	c1.38-2.063,2.472-4.468,3.277-7.219l1.983,0.281c-0.345,1-0.689,1.969-1.034,2.906h5.434v1.875h-6.21
	c-0.346,0.75-0.748,1.5-1.208,2.25h6.728v1.969l-2.587,3v0.75h3.277v1.875h-3.277v4.594c0.057,1.688-0.748,2.531-2.415,2.531
	c-0.807,0.062-1.553,0.094-2.243,0.094c0-0.188-0.058-0.438-0.172-0.75c-0.059-0.563-0.116-0.97-0.173-1.219c0.69,0,1.351,0,1.983,0
	c0.863,0.062,1.265-0.313,1.208-1.125v-4.125H519.111z M520.321,338.528c-1.093,0.126-1.696,0.813-1.812,2.063
	c0.115,1.063,0.719,1.655,1.812,1.781c1.149-0.126,1.781-0.718,1.897-1.781C522.103,339.342,521.471,338.654,520.321,338.528
	L520.321,338.528z M526.011,242.248c-1.207-1.875-2.587-3.938-4.14-6.188l1.639-1.031c1.38,1.875,2.788,3.844,4.227,5.906
	L526.011,242.248z M529.852,301.905c-0.863,0.938-1.783,1.875-2.761,2.813c-0.058-0.124-0.172-0.405-0.345-0.844
	c-0.288-0.624-0.489-1.093-0.604-1.406c2.242-1.749,4.168-4.187,5.778-7.313l1.897,0.75c-0.633,1.188-1.293,2.313-1.983,3.375
	v11.344h-1.983V301.905L529.852,301.905z M526.401,292.718v-1.969h5.348v-2.625h2.069v2.625h5.779v-2.625h2.07v2.625h5.347v1.969
	h-5.347v1.969h-2.07v-1.969h-5.779v1.688h-2.069v-1.688H526.401z M536.051,239.342l-1.726-3.75c-0.979,2.063-2.186,3.97-3.622,5.719
	c-0.116-0.251-0.346-0.688-0.69-1.313c-0.23-0.249-0.374-0.437-0.431-0.563c1.552-1.937,2.76-4.031,3.622-6.281
	c-0.345-0.688-0.862-1.749-1.553-3.188c-0.689-1.374-1.207-2.405-1.552-3.094l1.552-0.844l2.329,4.594
	c0.518-1.875,0.862-3.999,1.035-6.375H530.1v-2.063h6.899v2.063c-0.345,3.563-0.92,6.563-1.725,9
	c0.977,1.875,1.063,2.063,0.259,0.563c0.805,1.5,1.552,3,2.242,4.5L536.051,239.342z M529.841,157.283v-1.875h2.501
	c0.287-1.125,0.546-2.187,0.776-3.188l1.897,0.188c-0.059,0.375-0.202,1-0.432,1.875c-0.172,0.501-0.288,0.876-0.345,1.125h4.398
	v1.875h-4.916c-0.806,2.875-1.41,4.875-1.812,6h2.502v-4.594h1.639v4.594h2.328v1.875h-2.328v3l2.587-0.375
	c-0.058,0.75-0.086,1.406-0.086,1.969l-2.501,0.281v4.594h-1.897v-4.406c-1.553,0.188-2.991,0.375-4.313,0.563l-0.173-2.063
	c0.401,0,1.063-0.062,1.983-0.188c1.092-0.062,1.926-0.125,2.502-0.188v-3.188h-3.968v-1.875c0.057-0.188,0.143-0.469,0.259-0.844
	c0.459-1.5,0.919-3.218,1.38-5.156H529.841z M532.945,199.344c-0.806,0.938-1.639,1.813-2.501,2.625
	c-0.23-0.75-0.489-1.5-0.776-2.25c2.127-1.937,4.054-4.374,5.778-7.313l1.639,1.219c-0.747,1.188-1.466,2.282-2.156,3.281v11.719
	h-1.983V199.344L532.945,199.344z M536.999,187.438c-2.07,2.813-4.083,5.031-6.037,6.656c-0.403-0.938-0.72-1.625-0.949-2.063
	c2.127-1.813,3.882-3.75,5.262-5.813L536.999,187.438L536.999,187.438z M534.94,305.562c-0.518,0.313-0.921,0.532-1.208,0.656
	l-1.121-2.063c1.725-0.75,3.248-1.5,4.571-2.25v-6.281h2.07v4.969c1.897-1.187,3.736-2.625,5.52-4.313l1.38,1.406
	c-2.242,2.063-4.543,3.876-6.899,5.438v3.375c-0.059,1.063,0.487,1.562,1.639,1.5h1.983c1.149,0.062,1.781-0.375,1.897-1.313
	c0.173-1.062,0.315-2.25,0.432-3.563c0.057,0,0.2,0.063,0.431,0.188c0.747,0.251,1.236,0.407,1.467,0.469
	c-0.116,1.688-0.289,3-0.518,3.938c-0.23,1.562-1.352,2.312-3.364,2.25h-2.933c-2.186,0.062-3.221-0.97-3.104-3.094v-2.531
	C536.665,304.656,535.917,305.063,534.94,305.562L534.94,305.562z M535.878,272.501c0,2.188-0.748,3.812-2.242,4.875l-0.776-0.844
	c1.035-0.813,1.58-2.031,1.639-3.656h-1.467v-3.094h2.847C535.878,270.283,535.878,271.188,535.878,272.501L535.878,272.501z
	 M546.142,241.967c-1.668,0-2.501-0.907-2.501-2.719v-3.75c-0.807,2.563-2.963,4.937-6.469,7.125
	c-0.461-0.626-0.921-1.188-1.38-1.688c4.83-2.438,7.129-6.313,6.899-11.625c0.057-1.562,0.087-3,0.087-4.313h1.983
	c0,0.375,0,1.031,0,1.969c-0.058,0.938-0.086,1.594-0.086,1.969c-0.059,1.75-0.23,3.281-0.518,4.594h1.293v5.438
	c-0.058,0.813,0.315,1.187,1.122,1.125h0.689c0.747,0.062,1.208-0.313,1.38-1.125c0.057-0.313,0.115-0.812,0.173-1.5
	c0.057-0.563,0.086-0.969,0.086-1.219c0.862,0.313,1.437,0.531,1.726,0.656c0,0.563-0.087,1.345-0.259,2.344
	c-0.059,0.188-0.087,0.344-0.087,0.469c-0.172,1.562-1.093,2.312-2.76,2.25H546.142z M550.799,159.626
	c-0.23,0.375-0.575,1.063-1.035,2.063c-2.357-1.812-4.169-3.968-5.434-6.469c-1.38,2.376-3.277,4.563-5.692,6.563
	c-0.116-0.249-0.374-0.718-0.776-1.406c-0.172-0.188-0.288-0.343-0.345-0.469c2.875-2.124,4.916-4.718,6.124-7.781l2.069,0.281
	l-0.431,0.938C546.659,156.096,548.499,158.189,550.799,159.626L550.799,159.626z M537.689,196.906v-2.156h12.938v2.156h-3.709
	v7.875c0.057,2.25-0.979,3.375-3.105,3.375c-0.979,0.062-2.1,0.094-3.363,0.094c-0.173-0.75-0.316-1.5-0.432-2.25
	c0.287,0,0.719,0,1.294,0c0.747,0.062,1.322,0.094,1.726,0.094c1.264,0.062,1.867-0.5,1.811-1.688v-7.5H537.689z M538.466,235.123
	v-13.875h10.694v13.594h-1.897v-11.625h-6.899v11.906H538.466z M538.811,189.875v-2.156h10.781v2.156H538.811z M543.123,173.97
	c-2.014,0-3.019-1.063-3.019-3.188v-9.563h1.897v4.125c1.839-1.062,3.593-2.344,5.261-3.844l1.208,1.688
	c-2.128,1.688-4.284,3.157-6.469,4.406v2.719c-0.059,1.125,0.518,1.655,1.725,1.594h1.983c1.15,0,1.782-0.53,1.897-1.594
	c0.173-0.999,0.287-2.063,0.346-3.188c0.689,0.25,1.322,0.469,1.897,0.656c-0.173,1.563-0.375,2.782-0.604,3.656
	c-0.23,1.688-1.324,2.531-3.278,2.531H543.123z M551.567,296.187v-4.313h4.398c-0.058-0.062-0.202-0.188-0.431-0.375
	c-0.921-0.938-1.64-1.624-2.156-2.063l1.897-0.75c0.286,0.251,0.775,0.72,1.466,1.406c0.69,0.626,1.178,1.095,1.466,1.406
	l-0.775,0.375h2.846v-3.656h2.07v3.656h2.674l-0.69-0.375c0.919-0.812,1.897-1.718,2.933-2.719l1.897,0.656
	c-0.518,0.563-1.237,1.251-2.156,2.063c-0.173,0.188-0.316,0.313-0.432,0.375h4.485v4.313h-2.07v-2.531h-15.438v2.531H551.567z
	 M552.808,231.748v-2.063h9.229v-9.469h2.07v9.469h9.314v2.063h-6.813v6.938c0,0.876,0.488,1.313,1.467,1.313h1.725
	c0.919,0.062,1.408-0.343,1.466-1.219c0.173-0.812,0.287-1.875,0.346-3.188l1.983,0.75c-0.173,1.5-0.345,2.657-0.518,3.469
	c-0.288,1.562-1.323,2.312-3.104,2.25h-2.502c-1.897,0-2.846-0.97-2.846-2.906v-7.406h-3.968l-0.086,1.219
	c0,4.438-2.243,7.655-6.728,9.656c-0.173-0.251-0.461-0.688-0.862-1.313c-0.173-0.313-0.317-0.532-0.432-0.656
	c3.909-1.374,5.894-3.999,5.951-7.875l0.086-1.031H552.808z M552.635,257.876v-2.063h20.873v2.063h-3.105v15
	c0.057,2.188-0.979,3.281-3.104,3.281c-1.208,0.062-2.445,0.094-3.709,0.094c-0.058-0.563-0.202-1.313-0.432-2.25
	c1.208,0.062,2.3,0.094,3.277,0.094c1.381,0.125,2.013-0.499,1.897-1.875v-14.344H552.635z M567.438,309.124
	c-0.807,0-1.639,0-2.502,0c-0.115-0.625-0.259-1.219-0.431-1.781c0.401,0.063,1.121,0.094,2.156,0.094
	c0.919,0.063,1.351-0.343,1.294-1.219v-1.781h-5.606v6.188h-2.156v-6.188h-5.521v4.594h-1.983v-6.375h7.504v-1.875H554.5v-5.344
	h13.627v5.344h-5.778v1.875h7.59v3.844C569.995,308.187,569.162,309.062,567.438,309.124L567.438,309.124z M552.808,173.314v-2.063
	h8.107v-18.75h2.242v6.75h8.539v2.25h-8.539v9.75h10.178v2.063H552.808z M552.808,207.313v-2.063h8.107V186.5h2.242v6.75h8.539v2.25
	h-8.539v9.75h10.178v2.063H552.808z M557.982,227.998c-0.461-0.563-1.179-1.468-2.156-2.719c-0.806-0.999-1.38-1.719-1.725-2.156
	l1.466-1.313c1.495,1.626,2.847,3.22,4.054,4.781L557.982,227.998z M554.964,272.407v-11.25h9.487v9.563h-7.504v1.688H554.964z
	 M556.483,297.03v2.156h9.66v-2.156H556.483z M556.947,263.126v5.719h5.521v-5.719H556.947z M571.955,223.123
	c-1.266,1.688-2.646,3.375-4.14,5.063l-1.553-1.5c1.553-1.625,2.902-3.249,4.054-4.875L571.955,223.123L571.955,223.123z
	 M579.579,198.781c0.173,4.375-0.689,7.655-2.587,9.844c-0.403-0.438-0.949-0.907-1.639-1.406c1.667-1.749,2.415-4.562,2.242-8.438
	v-5.156h18.457v1.781h-16.474V198.781L579.579,198.781z M575.525,170.22v-1.781h9.746v-0.75l4.658-1.594h-12.593v-1.688h16.301
	v1.781l-6.21,2.25h8.884v1.781h-8.97v1.5c0.057,1.749-0.834,2.656-2.674,2.719c-0.979,0-2.128,0-3.45,0c0-0.063,0-0.157,0-0.281
	c-0.058-0.375-0.172-0.907-0.345-1.594c0.345,0,0.833,0.031,1.467,0.094c0.689,0,1.178,0,1.466,0
	c1.035,0.062,1.522-0.344,1.466-1.219v-1.219H575.525z M579.234,274.845c-0.403,0.437-0.748,0.875-1.035,1.313l-1.207-1.781
	c0.401-0.313,0.574-0.812,0.518-1.5v-8.906h-1.984v-2.063h3.882v10.406c0.229-0.249,0.604-0.593,1.121-1.031
	c0.459-0.499,0.805-0.874,1.035-1.125c0.057,0.375,0.143,0.938,0.259,1.688c0.057,0.251,0.086,0.438,0.086,0.563
	C581.046,273.221,580.153,274.032,579.234,274.845L579.234,274.845z M575.612,309.593v-1.688h2.242v-5.438h16.301v5.438h2.243v1.688
	H575.612z M575.698,156.345v-1.781h9.401c-0.059-0.188-0.145-0.5-0.259-0.938c-0.173-0.563-0.317-0.968-0.432-1.219l2.243-0.281
	l0.689,2.438h8.884v1.781H575.698z M589.412,299.28c-0.862,0.626-2.128,1.376-3.795,2.25c-0.173-0.375-0.489-0.905-0.949-1.594
	c1.495-0.687,2.76-1.406,3.795-2.156c-0.748-1.437-1.294-3.155-1.639-5.156h-7.158v1.781v0.281h5.778
	c0,1.001-0.058,2.126-0.173,3.375c-0.058,1.688-0.92,2.501-2.587,2.438c-0.461,0.063-1.237,0.094-2.329,0.094
	c0-0.188-0.029-0.469-0.086-0.844c-0.059-0.375-0.116-0.624-0.173-0.75c0.518,0,1.178,0,1.984,0
	c0.919,0.063,1.408-0.343,1.466-1.219c0-0.188,0.028-0.437,0.086-0.75c0-0.375,0.028-0.624,0.087-0.75h-4.141
	c-0.115,2.188-0.862,4.125-2.242,5.813c-0.23-0.188-0.634-0.499-1.208-0.938c-0.23-0.124-0.374-0.218-0.431-0.281
	c1.494-1.624,2.185-3.844,2.07-6.656v-3.281h8.884c-0.059-0.812-0.145-1.718-0.259-2.719h1.897c0.114,1.063,0.2,1.969,0.259,2.719
	h3.363c-0.806-0.999-1.38-1.624-1.725-1.875l1.552-0.656c0.805,0.813,1.381,1.47,1.726,1.969l-1.208,0.563h3.45v1.688h-6.986
	c0.345,1.626,0.776,2.906,1.294,3.844c0.919-0.75,1.954-1.969,3.105-3.656l1.38,1.031c-1.151,1.626-2.329,3-3.536,4.125
	c0.632,1.063,1.321,1.563,2.069,1.5c0.46,0.063,0.805-0.249,1.035-0.938c0-0.124,0.057-0.375,0.173-0.75
	c0.229-0.812,0.373-1.437,0.431-1.875c0.518,0.251,1.035,0.469,1.553,0.656c-0.058,0.188-0.116,0.469-0.173,0.844
	c-0.115,0.688-0.288,1.406-0.518,2.156c-0.402,1.251-1.207,1.875-2.414,1.875C591.683,301.5,590.447,300.78,589.412,299.28
	L589.412,299.28z M579.062,259.751c-1.207-1.749-2.156-3.094-2.846-4.031l1.553-1.125c1.091,1.376,2.069,2.688,2.932,3.938
	L579.062,259.751z M576.646,242.623v-21.375h18.631v21.375h-2.07v-1.125h-14.576v1.125H576.646z M577.854,191.563v-4.594h1.983
	v2.813h5.521v-3.656h1.983v3.656h5.434v-2.813h1.984v4.594H577.854z M578.372,162.814v-4.969h14.921v4.969H578.372z
	 M578.631,223.217v16.594h14.576v-16.594H578.631z M579.838,228.748v-1.875h7.677v-2.719h1.897v2.719h2.933v1.875h-2.933v6.75
	c0.114,2.001-0.776,3-2.674,3c-0.23,0-0.634,0-1.208,0c-0.575,0.063-1.007,0.094-1.293,0.094c0-0.249-0.059-0.594-0.173-1.031
	c-0.058-0.437-0.116-0.75-0.173-0.938c0.747,0,1.467,0,2.156,0c1.035,0.063,1.523-0.406,1.467-1.406v-5.625
	c-1.438,2.813-3.795,5.313-7.073,7.5c-0.23-0.313-0.604-0.844-1.121-1.594c-0.058-0.062-0.115-0.125-0.172-0.188
	c2.988-1.688,5.317-3.875,6.986-6.563H579.838z M581.218,199.438v-1.781h13.369v1.781h-5.692v2.906h7.245v1.781h-7.245v4.5h-2.07
	v-4.5h-7.158v-1.781h7.158v-2.906H581.218z M579.838,304.155v3.75h2.933v-3.75H579.838z M580.355,159.439v1.875h11.04v-1.875
	H580.355z M581.822,263.22v-7.969h13.627v7.969H581.822z M582.598,276.532V264.72h12.162v8.531c0.114,2-0.776,3-2.674,3
	c-0.634,0-1.553,0-2.761,0c-0.115-0.625-0.259-1.219-0.431-1.781c0.862,0.062,1.695,0.094,2.501,0.094
	c1.035,0.062,1.522-0.469,1.467-1.594v-0.281h-8.366v3.844H582.598z M583.72,256.751v1.781h3.967v-1.781H583.72z M583.72,259.938
	v1.781h3.967v-1.781H583.72z M584.496,266.313v1.781h8.366v-1.781H584.496z M584.496,269.407v1.875h8.366v-1.875H584.496z
	 M584.496,304.155v3.75h3.019v-3.75H584.496z M592.172,304.155h-2.933v3.75h2.933V304.155z M593.638,256.751h-4.054v1.781h4.054
	V256.751z M589.584,259.938v1.781h4.054v-1.781H589.584z"/>
<path fill="#FFFFFF" d="M37.013,16.57c-0.945,1.406-2.035,2.695-3.27,3.867c-0.219-0.234-0.545-0.546-0.98-0.938
	c-0.365-0.39-0.618-0.663-0.763-0.82c2.105-1.796,3.741-4.023,4.903-6.68l2.508,0.234c-0.292,0.782-0.654,1.523-1.091,2.227h7.193
	v2.109h-5.013c0.653,0.782,1.308,1.602,1.961,2.461l-2.18,0.82c-0.291-0.469-0.801-1.172-1.525-2.109
	c-0.365-0.469-0.618-0.82-0.763-1.055l0.108-0.117L37.013,16.57L37.013,16.57z M46.495,27.352v2.578h10.79
	c0,1.875-0.073,3.438-0.219,4.688c-0.072,2.344-1.381,3.516-3.923,3.516c-1.308,0-2.544,0-3.706,0c0-0.079,0-0.196,0-0.352
	c-0.072-0.47-0.218-1.093-0.436-1.875c1.09,0.079,2.325,0.116,3.706,0.116c1.162,0.08,1.814-0.469,1.962-1.641
	c0-0.156,0-0.469,0-0.938c0.071-0.625,0.108-1.055,0.108-1.289h-8.282v8.203h-2.508v-7.267c-2.396,2.892-5.958,5.116-10.68,6.681
	c-0.146-0.234-0.399-0.666-0.763-1.289c-0.218-0.469-0.4-0.82-0.545-1.055c4.504-1.173,7.81-2.931,9.917-5.273h-8.064l1.09-7.031
	h9.045V22.43h-9.372v-2.227h21.36v7.148H46.495L46.495,27.352z M37.123,27.352l-0.437,2.578h7.302v-2.578H37.123z M48.893,16.57
	c-0.727,1.016-1.525,2.071-2.396,3.164c-0.51-0.546-1.127-1.055-1.854-1.523c1.671-1.875,2.943-3.944,3.814-6.211l2.616,0.234
	c-0.291,0.782-0.618,1.523-0.981,2.227h8.065v2.109H52.49l2.07,2.461l-2.07,0.82c-0.073-0.077-0.219-0.234-0.437-0.469
	c-0.945-1.172-1.635-2.069-2.071-2.695l0.219-0.117H48.893L48.893,16.57z M53.579,22.43h-7.084v2.695h7.084V22.43z M61.842,37.078
	v-2.695h25.394v2.695H61.842z M63.804,18.797v-2.93h21.47v2.93H63.804z M92.437,16.57v-2.578h22.777v2.578h-10.026
	c0,1.641-0.072,3.867-0.218,6.68h11.77v2.695h-11.225c1.234,5.625,5.049,9.298,11.443,11.016c-0.073,0.155-0.219,0.391-0.437,0.703
	c-0.364,0.703-0.727,1.406-1.09,2.109c-6.468-2.268-10.354-6.016-11.662-11.25c-1.09,4.845-4.833,8.709-11.225,11.602
	c-0.146-0.234-0.437-0.665-0.872-1.289c-0.364-0.548-0.654-0.979-0.872-1.289c6.757-2.654,10.462-6.521,11.116-11.602H90.911V23.25
	h11.334c0.07-0.703,0.108-1.835,0.108-3.398c0.071-1.406,0.109-2.5,0.109-3.281L92.437,16.57L92.437,16.57z"/>
<path fill="#FFFFFF" d="M138.142,33.484c0.146-2.031,1.114-3.385,2.906-4.063c-1.453-0.729-2.229-1.901-2.325-3.516
	c0.193-2.656,1.646-4.063,4.359-4.219c2.615,0.208,4.044,1.615,4.287,4.219c-0.099,1.667-0.824,2.839-2.181,3.516
	c1.792,0.729,2.736,2.136,2.834,4.22c-0.146,2.655-1.793,4.035-4.94,4.141C139.885,37.676,138.237,36.246,138.142,33.484
	L138.142,33.484z M146.352,33.641c-0.145-2.291-1.26-3.488-3.342-3.594c-1.938,0.105-3.004,1.25-3.197,3.438
	c0.193,1.875,1.283,2.892,3.271,3.048C145.067,36.375,146.158,35.412,146.352,33.641L146.352,33.641z M145.625,25.906
	c-0.146-1.719-0.993-2.656-2.543-2.813c-1.599,0.105-2.471,0.99-2.616,2.656c0.048,1.927,0.92,2.942,2.616,3.047
	C144.681,28.746,145.526,27.781,145.625,25.906L145.625,25.906z M153.688,33.016c-0.243,2.137-1.09,4.192-2.543,6.172
	c-0.339-0.364-0.848-0.858-1.524-1.483c1.063-1.146,1.768-2.37,2.106-3.672c0.338-1.302,0.508-3.308,0.508-6.017v-6.719h12.279
	V35.75c0.047,1.979-0.872,2.969-2.761,2.969c-0.63,0.051-1.575,0.078-2.833,0.078c-0.146-0.574-0.291-1.225-0.437-1.953
	c0.679,0.051,1.6,0.078,2.762,0.078c1.063,0.051,1.572-0.441,1.524-1.484v-2.422H153.688L153.688,33.016z M153.979,28.172
	c0,1.199-0.049,2.266-0.146,3.203h8.937v-3.359h-8.791V28.172z M153.979,23.016v3.281h8.791v-3.281H153.979z M168.15,33.484
	c0.146-2.031,1.114-3.385,2.906-4.063c-1.453-0.729-2.229-1.901-2.325-3.516c0.193-2.656,1.646-4.063,4.359-4.219
	c2.616,0.208,4.044,1.615,4.287,4.219c-0.099,1.667-0.824,2.839-2.18,3.516c1.792,0.729,2.735,2.136,2.834,4.22
	c-0.146,2.655-1.794,4.035-4.941,4.141C169.895,37.676,168.248,36.246,168.15,33.484L168.15,33.484z M176.36,33.641
	c-0.145-2.291-1.26-3.488-3.342-3.594c-1.938,0.105-3.004,1.25-3.197,3.438c0.193,1.875,1.283,2.892,3.271,3.048
	C175.078,36.375,176.167,35.412,176.36,33.641L176.36,33.641z M175.635,25.906c-0.146-1.719-0.993-2.656-2.543-2.813
	c-1.598,0.105-2.47,0.99-2.616,2.656c0.048,1.927,0.92,2.942,2.616,3.047C174.689,28.746,175.537,27.781,175.635,25.906
	L175.635,25.906z M181.446,38.953V21.609h13.15v17.344h-1.744v-1.328h-9.59v1.328H181.446z M183.263,23.328v5.391h9.59v-5.391
	H183.263z M183.263,30.438v5.547h9.59v-5.547H183.263z"/>
</svg>
