<svg xmlns="http://www.w3.org/2000/svg" width="640" height="350" viewBox="0 0 640 350"><path fill="#fff" d="M255.364 116.999v-1.641h1.94v-3.516h1.582v3.516h1.653v1.641h-1.653v3.594l1.725-.703c0 .521.024 1.068.072 1.641l-1.797.781v5.938c.047 1.354-.528 2.057-1.725 2.109-.192 0-.479.026-.863.078h-.646c-.097-.677-.216-1.302-.359-1.875h1.222c.575 0 .838-.234.791-.703v-4.922l-2.012.859-.216-1.875 1.294-.469c.431-.156.742-.26.934-.313v-4.141h-1.942zm.158-39.499v-3.125h11.845l-.69-2.375 4.485-.25.575 2.625h11.5v3.125h-27.715zm7.475 21.125v-6.75h12.88v6.375h.46c1.533.082 2.223-.5 2.07-1.75v-6.125h-17.94v11.25h-3.68v-14.375h25.3v10.5c0 2.416-1.189 3.666-3.565 3.75-1.15.082-2.685.125-4.6.125-.155-1-.345-2-.575-3h-10.35zm-3.45-12.875v-6.75h19.78v6.75h-19.78zm3.292 43.202c-.336.26-.695.547-1.078.859l-1.006-1.484c.431-.416.647-1.041.647-1.875v-13.047c3.689-.156 7.115-.442 10.278-.859l.431 1.641c-.192 0-.456.027-.791.078-.959.105-2.084.209-3.378.313 0 1.459.047 3.021.144 4.688h4.384v1.641h-4.313c.144 2.761.647 4.949 1.51 6.563.334.521.646.781.934.781.239 0 .407-.208.503-.625 0-.156.023-.442.072-.859.095-.729.167-1.301.215-1.719.144.053.383.131.719.234.288.156.503.261.647.313 0 .209-.024.521-.072.938-.048.678-.144 1.328-.288 1.953-.288 1.094-.862 1.641-1.725 1.641-.959 0-1.773-.625-2.443-1.875-.959-1.666-1.51-4.114-1.653-7.344h-3.522v6.172l2.947-1.719v.156c.047.469.144.99.288 1.563l-.862.469c-1.199.57-2.062 1.038-2.588 1.403zm3.594-9.688c-.048-1.406-.072-2.916-.072-4.531-1.15.053-2.252.131-3.306.234v4.297h3.378zm-3.206-37.639v1.625h12.42v-1.625h-12.42zm2.702 48.889c-.479-.781-1.006-1.537-1.581-2.266l1.222-.703c.575.469 1.174 1.198 1.797 2.188l-1.438.781zm.633-36.139v1.875h5.75v-1.875h-5.75zm10.075 33.327c-.959.938-1.725 1.77-2.3 2.5l-.791-1.797c.239-.208.67-.598 1.294-1.172.479-.469.814-.807 1.006-1.016v-5.938h-2.156v-1.797h3.809v7.656c.91 1.459 2.228 2.161 3.953 2.109 3.066.104 6.229.104 9.488 0l-.216.938c-.144.364-.24.651-.288.859-1.054 0-2.659-.027-4.815-.078-2.3 0-3.858-.027-4.672-.078-1.773-.051-3.21-.78-4.312-2.186zm.36-11.172c-.431-.781-1.198-2.004-2.3-3.672l1.366-.781c.239.313.67.886 1.294 1.719.575.781.981 1.355 1.222 1.719l-1.582 1.015zm1.94 1.406v-1.719h4.457c.047-.989.072-2.422.072-4.297h1.725c0 1.563-.025 2.996-.072 4.297h5.175v1.719h-5.247c-.097 1.146-.288 2.188-.575 3.125l.791-.703c.479.469 1.341 1.355 2.587 2.656 1.197 1.25 2.036 2.136 2.516 2.656l-1.366 1.25c-.862-1.041-2.444-2.786-4.744-5.234-.719 1.928-2.253 3.725-4.6 5.391-.335-.52-.719-1.041-1.15-1.563 3.114-2.031 4.719-4.557 4.815-7.578h-4.384zm6.373-37.811v-3.625h3.335c.153-1.082.306-2.582.46-4.5l3.45.5c-.155 1.418-.345 2.75-.575 4h4.37v3.625h-4.945c-.998 4.334-2.875 8.709-5.635 13.125-.154-1-.46-2.75-.92-5.25 1.456-2.5 2.491-5.125 3.105-7.875h-2.645zm2.53 19.5c-.46.082-.845.166-1.15.25l-1.15-2.75c.766-.582 1.38-1.416 1.84-2.5 1.533-3.25 2.875-7 4.025-11.25l3.22.875-1.035 3c-.615 1.584-1.075 2.75-1.38 3.5l2.415-.625c.46 1.418 1.035 3.418 1.725 6 .46 1.5.805 2.707 1.035 3.625l-2.645.875c-.077-.584-.23-1.209-.46-1.875-2.147.082-3.91.25-5.29.5-.23.083-.615.208-1.15.375zm5.635-3.75l-1.38-4.875c-.46 1.418-1.15 3.168-2.07 5.25l3.45-.375zm3.91 6v-16.625c-.46.668-.959 1.418-1.495 2.25-.384-1.416-.805-2.875-1.265-4.375 2.375-3.166 4.025-6.875 4.945-11.125l3.68.625c-.154.418-.345 1.043-.575 1.875-.46 1.25-.805 2.168-1.035 2.75h3.68c-.155-.666-.46-1.707-.92-3.125l-.345-1.125 3.335-.5c.306.75.65 1.875 1.035 3.375.153.584.268 1.043.345 1.375h3.68v3.25h-4.6v3.25h4.14v3.25h-4.14v3.375h4.14v3.25h-4.14v3.25h4.715v3.125h-11.845v1.875h-3.335zm-.04 20.358v2.734h-2.444v-2.734h2.444zm0 5.781v2.578h-2.444v-2.578h2.444zm3.375-47.514v3.25h3.795v-3.25h-3.795zm0 6.5v3.375h3.795v-3.375h-3.795zm0 6.625v3.25h3.795v-3.25h-3.795zm15.239 35.327h1.509v-15.859h-1.078c-.623 1.667-2.037 3.047-4.241 4.141v1.641c1.485-.625 2.755-1.458 3.81-2.5v12.577zm15.452-4.297c-.097-2.031-1.103-3.359-3.019-3.984 1.581-.625 2.396-1.797 2.443-3.516-.097-2.604-1.51-3.958-4.24-4.063-2.396.053-3.882 1.355-4.457 3.906l1.582.547c.334-1.926 1.317-2.916 2.946-2.969 1.533.053 2.348.912 2.444 2.578-.097 1.928-1.175 2.917-3.234 2.969h-.719v1.406h1.293c2.061.105 3.163 1.094 3.307 2.969 0 2.188-1.078 3.281-3.234 3.281-1.773 0-2.803-1.067-3.091-3.203l-1.653.469c.575 2.761 2.204 4.141 4.888 4.141 3.019-.156 4.601-1.666 4.744-4.531zm4.812-4.61v-2.422h-2.229v2.422h2.229zm0 8.672v-2.266h-2.229v2.266h2.229zm11.929-7.5c-.048 5.209-1.605 7.864-4.672 7.969-3.21-.052-4.815-2.708-4.815-7.969.048-5.26 1.629-7.969 4.744-8.125 3.114.105 4.695 2.813 4.743 8.125zm-1.652 0c0-4.531-1.055-6.77-3.163-6.719-1.965.156-2.972 2.396-3.019 6.719 0 4.48 1.03 6.693 3.091 6.641 2.06.053 3.091-2.161 3.091-6.641zm12.873 0c-.048 5.209-1.605 7.864-4.672 7.969-3.21-.052-4.815-2.708-4.815-7.969.048-5.26 1.629-7.969 4.744-8.125 3.114.105 4.695 2.813 4.743 8.125zm-1.652 0c0-4.531-1.055-6.77-3.163-6.719-1.965.156-2.972 2.396-3.019 6.719 0 4.48 1.03 6.693 3.091 6.641 2.059.053 3.091-2.161 3.091-6.641zm21.769-1.25c.096 4.531-.672 8.047-2.3 10.547-.24-.313-.672-.808-1.294-1.484.766-1.197 1.27-2.447 1.51-3.75.239-1.197.359-3.047.359-5.547v-5.859h6.684l-.574-1.875 1.94-.234c0 .053.023.156.071.313.191.781.359 1.381.504 1.797h6.037v6.094h-12.937v-.002zm0-4.453v2.813h11.213v-2.813h-11.213zm1.151 15v-7.969h11.571v7.969h-1.653v-1.25h-8.266v1.25h-1.652zm1.652-6.406v3.75h8.266v-3.75h-8.266zm12.145-2.188v-1.484h1.078v-6.641h1.797c.048-.26.119-.598.216-1.016.047-.469.096-.807.144-1.016l1.581.078-.503 1.953h2.516v14.453c.048 1.301-.527 1.953-1.725 1.953-.288.051-.839.078-1.653.078 0-.105-.048-.287-.144-.547-.049-.469-.097-.833-.144-1.094h.359c.431.051.766.051 1.006 0 .671.051.981-.208.935-.781v-5.938h-3.019c.095 3.75-.336 6.614-1.294 8.594-.097-.105-.264-.234-.503-.391-.336-.313-.575-.547-.719-.703.813-1.666 1.197-4.166 1.149-7.5h-1.077zm2.445-6.64v5.156h3.019v-5.156h-3.019zm1.365 4.14c-.24-.729-.552-1.614-.935-2.656l1.078-.547c.096.261.216.6.359 1.016l.647 1.641-1.149.546zm.144 7.032c-.336-.989-.695-1.953-1.078-2.891l1.078-.547.432 1.172c.335.678.575 1.25.719 1.719l-1.151.547zm6.541-4.532c.144 3.906-.647 6.77-2.372 8.594-.144-.156-.359-.365-.646-.625-.288-.261-.504-.469-.647-.625.862-.938 1.438-1.875 1.726-2.813.239-.938.359-2.447.359-4.531v-2.969h5.605v8.75c0 .417.216.625.647.625h.216c.383.051.599-.208.646-.781.144-.885.216-1.979.216-3.281.19.105.455.209.79.313.191.053.335.105.432.156-.048 1.459-.144 2.605-.287 3.438-.145 1.198-.744 1.797-1.797 1.797h-.719c-1.15.051-1.702-.574-1.653-1.875v-7.5h-2.516v1.327zm-2.804-5.468v-1.641h3.738c-.145-.416-.385-1.067-.719-1.953-.097-.313-.169-.52-.216-.625l1.725-.391 1.007 2.969h3.521v1.641h-9.056zm16.037 5.781v2.734h-2.444v-2.734h2.444zm0 5.781v2.578h-2.444v-2.578h2.444zm22.639.781v-1.328h-7.547c.622-1.354 1.916-2.813 3.881-4.375 2.54-1.875 3.738-3.828 3.594-5.859-.191-2.656-1.629-4.036-4.313-4.141-2.348-.051-3.929 1.199-4.743 3.75l1.438.781c.526-1.926 1.533-2.942 3.019-3.047 1.916.053 2.898 1.016 2.947 2.891.047 1.406-1.007 2.969-3.163 4.688-2.108 1.667-3.618 3.542-4.528 5.625v1.016h9.415zm6.902.157h1.51v-15.859h-1.078c-.623 1.667-2.037 3.047-4.24 4.141v1.641c1.484-.625 2.755-1.458 3.809-2.5v12.577zm9.199-8.907v-2.422h-2.229v2.422h2.229zm0 8.672v-2.266h-2.229v2.266h2.229zm11.93-7.5c-.048 5.209-1.605 7.864-4.672 7.969-3.21-.052-4.815-2.708-4.815-7.969.048-5.26 1.629-7.969 4.744-8.125 3.114.105 4.695 2.813 4.743 8.125zm-1.652 0c0-4.531-1.055-6.77-3.163-6.719-1.965.156-2.972 2.396-3.019 6.719 0 4.48 1.03 6.693 3.091 6.641 2.059.053 3.091-2.161 3.091-6.641zm12.863 0c-.048 5.209-1.605 7.864-4.672 7.969-3.21-.052-4.815-2.708-4.815-7.969.048-5.26 1.629-7.969 4.744-8.125 3.114.105 4.695 2.813 4.743 8.125zm-1.652 0c0-4.531-1.055-6.77-3.163-6.719-1.965.156-2.972 2.396-3.019 6.719 0 4.48 1.03 6.693 3.091 6.641 2.059.053 3.091-2.161 3.091-6.641zM257.866 163.001c-.116-.062-.259-.218-.431-.469-1.093-.999-1.927-1.781-2.501-2.344l1.208-1.5c1.149.938 2.156 1.875 3.019 2.813l-1.295 1.5zm-2.846 69.216v-2.438h20.958v2.438h-20.958zm.258 29.503v-1.969h2.07v-5.531h1.725v5.531h1.984v1.969h-1.984v8.156c.69-.249 1.35-.469 1.984-.656 0 .938.028 1.594.086 1.969-2.128.688-4.054 1.376-5.779 2.063l-.345-2.156c.172-.062.431-.124.776-.188.69-.249 1.208-.405 1.552-.469v-8.719h-2.069zm-.172 44.498v-1.781h9.746v-.75l4.657-1.594h-12.592v-1.688h16.301v1.781l-6.21 2.25h8.884v1.781h-8.97v1.5c.057 1.749-.834 2.656-2.674 2.719h-3.45v-.281c-.058-.375-.173-.906-.345-1.594.345 0 .833.031 1.466.094h1.466c1.035.062 1.523-.344 1.466-1.219v-1.219h-9.745zm0 19.654v-2.063h20.872v2.063h-3.105v15c.057 2.188-.978 3.281-3.105 3.281-1.208.062-2.444.094-3.708.094-.058-.563-.202-1.313-.431-2.25 1.208.062 2.299.094 3.277.094 1.38.125 2.012-.499 1.897-1.875v-14.344h-15.697zm.172-33.529v-1.781h9.401c-.058-.188-.145-.499-.259-.938-.173-.563-.317-.968-.432-1.219l2.243-.281.69 2.438h8.884v1.781h-20.527zm3.882-126.248c-.748 3.126-1.38 5.906-1.898 8.344l-1.811-.656c.805-3.188 1.408-5.968 1.811-8.344.229.126.747.313 1.553.563-.634-.188-.518-.156.345.093zm-.863-9.281c-.92-1.062-1.811-2-2.674-2.813l1.294-1.406c.919.813 1.839 1.72 2.76 2.719l-1.38 1.5zm-2.242 49.655v-17.906h1.639v17.906h-1.639zm1.38 133.934v-11.25h9.487v9.563h-7.504v1.688h-1.983zm.517-41.591v-4.969h14.921v4.969h-14.921zm1.639-140.686v-1.969h3.364c-.289-.812-.604-2-.949-3.563l1.897-.281c.057.375.201.938.431 1.688.229.876.401 1.594.518 2.156h-.086 2.156v1.969h-4.054l-.086 3.375h3.881c0 .876-.029 2.188-.086 3.938-.058 2.688-.116 4.626-.173 5.813 0 1.812-.806 2.719-2.415 2.719-.517.062-1.064.094-1.639.094l-.345-1.969h1.293c.977.062 1.437-.375 1.38-1.313 0-.375.028-.968.086-1.781.115-2.625.172-4.5.172-5.625h-2.242v.469c-.116 4.563-.979 8.156-2.587 10.781l-1.466-1.406c1.437-2 2.213-5.156 2.329-9.469.115-1.625.172-3.5.172-5.625h-1.551zm-.173 172.996v5.719h5.52v-5.719h-5.52zm16.215-56.84c-.289 1.374-.92 2.063-1.897 2.063-1.38.062-2.445-1.094-3.191-3.469-.92 1.187-2.042 2.375-3.364 3.563l-1.38-1.5c1.725-1.249 3.133-2.687 4.226-4.313-.518-2.562-.892-5.968-1.121-10.219h-5.175v3.094h4.054c0 .876-.03 2.001-.086 3.375 0 1.626-.03 2.782-.086 3.469 0 1.813-.806 2.751-2.415 2.813h-.604c-.289.063-.518.094-.69.094-.058-.249-.116-.687-.173-1.313-.116-.375-.172-.624-.172-.75h1.208c.863 0 1.264-.437 1.208-1.313.057-.812.086-2.344.086-4.594h-2.329c.173 4.938-.69 8.719-2.587 11.344-.058-.063-.172-.156-.345-.281-.576-.375-1.007-.625-1.294-.75 1.035-1.5 1.695-2.937 1.984-4.313.287-1.313.431-3.469.431-6.469v-6.281h6.986c-.058-1.313-.086-2.749-.086-4.313h1.812c0 .501.028 1.251.086 2.25v2.063h5.175v1.875h-5.089c.057 3 .287 5.625.69 7.875.862-1.688 1.609-3.563 2.243-5.625l1.639.75c-1.035 3.063-2.156 5.531-3.364 7.406l.086.281c.345 1.938.862 2.906 1.552 2.906.287 0 .459-.188.518-.563.057-.375.143-1.093.259-2.156.057-.499.114-.874.172-1.125.518.251 1.035.469 1.553.656-.175 1.501-.347 2.659-.52 3.47zm-15.87-65.657v-22.313h1.897v22.313h-1.897zm.173 86.812v1.875h11.04v-1.875h-11.04zm6.555-103.968c-.748 1.313-1.639 2.625-2.674 3.938-.23-.249-.662-.624-1.293-1.125l-.259-.281c2.012-2.188 3.45-4.813 4.313-7.875l2.07.469c-.116.25-.259.625-.431 1.125-.116.25-.375.844-.776 1.781h8.453v1.969h-9.403v-.001zm-2.674 17.062v-11.906h11.212v11.906h-1.725v-1.594h-7.676v1.594h-1.811zm1.811-10.031v6.75h2.932v-6.75h-2.932zm1.725-31.467v-1.875h3.537v-1.313l2.329-2.625h-4.83v-1.406l-.604.938c-.403-.437-.893-.905-1.466-1.406 1.38-2.063 2.472-4.468 3.277-7.219l1.984.281c-.345 1-.69 1.969-1.035 2.906h5.434v1.875h-6.21c-.345.75-.748 1.5-1.208 2.25h6.728v1.969l-2.587 3v.75h3.277v1.875h-3.277v4.594c.057 1.688-.748 2.531-2.415 2.531-.806.062-1.552.094-2.243.094 0-.188-.058-.438-.172-.75-.058-.563-.116-.97-.172-1.219h1.984c.862.062 1.264-.313 1.208-1.125v-4.125h-3.539zm3.278 29.123c-.23-.249-.576-.594-1.035-1.031-.862-.875-1.553-1.562-2.07-2.063l1.293-1.313c.345.313.891.813 1.639 1.5.69.688 1.208 1.188 1.553 1.5l-1.38 1.407zm2.674 2.344h-3.019v6.75h3.019v-6.75zm.603 59.751c-.633-.75-1.438-1.562-2.415-2.438l1.208-1.031c.518.438 1.264 1.157 2.243 2.156.114.063.201.126.259.188l-1.295 1.125zm3.45 85.059v-2.063h8.107v-18.75h2.243v6.75h8.539v2.25h-8.539v9.75h10.177v2.063h-20.527zm.715-186.027v-1.875h2.501c.287-1.125.546-2.187.776-3.188l1.898.188c-.058.375-.202 1-.432 1.875-.172.501-.288.876-.345 1.125h4.398v1.875h-4.916c-.806 2.875-1.41 4.875-1.812 6h2.501v-4.594h1.639v4.594h2.329v1.875h-2.329v3l2.587-.375c-.058.75-.086 1.406-.086 1.969l-2.501.281v4.594h-1.897v-4.406c-1.552.188-2.99.375-4.313.563l-.172-2.063c.401 0 1.063-.062 1.984-.188 1.091-.062 1.926-.125 2.501-.188v-3.188h-3.967v-1.875l.259-.844c.459-1.5.919-3.218 1.38-5.156h-1.983zm3.191 73.996c-.748-.75-1.841-1.781-3.278-3.094l1.294-1.5c1.149.938 2.271 1.938 3.364 3l-1.38 1.594zm16.646 78.876c-.058.125-.086.219-.086.281-4.256-.625-7.389-1.469-9.401-2.531-2.358 1.125-5.492 2.063-9.401 2.813-.116-.313-.316-.75-.604-1.313-.173-.313-.289-.563-.345-.75 3.795-.563 6.583-1.219 8.366-1.969-1.61-1.187-3.019-2.843-4.226-4.969h-1.294v-1.781h14.231v1.875c-1.266 2.001-2.79 3.656-4.571 4.969 1.552.688 4.283 1.187 8.194 1.5-.173.313-.461.938-.863 1.875zm-15.956-74.376c-.748 2.751-1.323 4.937-1.725 6.563l-1.984-.563c.919-2.813 1.667-5.625 2.243-8.438.69.25 1.322.469 1.897.656-.058.315-.202.907-.431 1.782zm-3.709 23.691v-2.063h9.488c-.116-.249-.289-.656-.518-1.219-.289-.75-.518-1.28-.69-1.594l2.242-.469c.46 1.001.891 2.063 1.294 3.188l-.259.094h8.797v2.063h-9.142v3.281h7.676v8.156c.056 2.063-.893 3.062-2.847 3h-1.208c-.69.062-1.207.094-1.552.094-.116-.624-.259-1.313-.431-2.063.862.063 1.695.094 2.501.094 1.035.063 1.523-.499 1.466-1.688v-5.531h-5.606v11.813h-2.07v-11.813h-5.52v9.469h-2.07v-11.531h7.59v-3.281h-9.141zm18.889-62.376l-1.553-1.781c-3.911.063-8.396.22-13.455.469-1.151.063-2.042.188-2.674.375l-1.034-2.157c.919-.437 1.639-.938 2.156-1.5 2.529-2.25 4.542-4.406 6.037-6.469l2.243 1.125c-2.415 2.5-4.629 4.688-6.641 6.563.518 0 1.322-.031 2.415-.094 3.967-.062 7.043-.155 9.229-.281l-2.76-3.094 1.552-1.125c2.933 3.063 5.002 5.282 6.21 6.656l-1.725 1.313zm-18.544 103.03v-4.5h3.708c-.058-.188-.172-.437-.345-.75-.345-.624-.806-1.406-1.38-2.344l1.983-.469c.057.126.201.375.432.75.574 1.063.977 1.813 1.208 2.25l-1.639.563h9.229c.862-1.374 1.609-2.719 2.243-4.031l1.983.656c-.116.251-.345.626-.69 1.125-.172.251-.604 1.001-1.293 2.25h4.14v4.5h-1.983v-2.625h-15.526v2.625h-2.07zm3.364-74.938c-.116-.125-.317-.313-.604-.563-1.151-1.187-2.042-2.063-2.673-2.625l1.293-1.406c1.322 1.125 2.472 2.156 3.45 3.094l-1.466 1.5zm15.353 65.563c-5.061.313-10.983.532-17.768.656 0-.062-.03-.188-.086-.375-.058-.687-.144-1.187-.259-1.5 6.094 0 11.989-.218 17.682-.656l.431 1.875zm-16.733-82.124v-10.313h15.611v10.313h-2.07v-1.5h-11.558v1.5h-1.983zm5.175 29.217c-.345 1.5-1.064 3.124-2.156 4.875l-1.639-1.313c1.035-1.5 1.695-2.938 1.984-4.313.287-1.313.431-3.406.431-6.281v-8.531c4.369-.188 8.768-.624 13.196-1.313l.604 1.969c-3.566.501-7.533.906-11.902 1.219v6.469c0 3.25-.173 5.657-.518 7.219zm-3.191-37.561v5.063h11.558v-5.063h-11.558zm5.865 105.374c1.725-1.062 3.162-2.374 4.313-3.938h-8.194c1.149 1.814 2.443 3.127 3.881 3.938zm10.609-146.029c-.23.375-.576 1.063-1.035 2.063-2.358-1.812-4.169-3.968-5.434-6.469-1.38 2.376-3.278 4.563-5.693 6.563-.116-.249-.375-.718-.776-1.406-.173-.188-.289-.343-.345-.469 2.875-2.124 4.917-4.718 6.124-7.781l2.07.281-.431.938c1.38 2.75 3.219 4.843 5.52 6.28zm-11.04 135.811c-.403-1.125-.834-2.187-1.294-3.188l1.984-.469c.459.938.862 2.001 1.208 3.188l-1.898.469zm10.177-54.595c-.345.437-.575.718-.69.844-3.394-3.062-5.205-7.5-5.434-13.313-.633 0-1.266.063-1.897.188v11.063l3.019-1.594v.938c.057.438.086.75.086.938-1.266.624-2.501 1.313-3.709 2.063-.058.062-.172.124-.345.188-.289.188-.461.312-.518.375l-1.035-1.688c.459-.563.69-1.25.69-2.063v-12c2.415-.125 5.404-.53 8.97-1.219l.69 1.875c-.403.063-1.035.156-1.897.281-1.035.188-1.812.313-2.329.375.114 1.626.287 3 .517 4.125 1.15-.688 2.271-1.406 3.364-2.156l1.035 1.781c-.403.188-.979.501-1.725.938-.978.563-1.697.97-2.156 1.219.69 2.188 2.07 4.188 4.14 6-.115.186-.374.467-.776.842zm-6.814-66.872c-2.014 0-3.019-1.063-3.019-3.188v-9.563h1.897v4.125c1.84-1.062 3.593-2.344 5.261-3.844l1.208 1.688c-2.128 1.688-4.284 3.157-6.469 4.406v2.719c-.058 1.125.518 1.655 1.725 1.594h1.984c1.149 0 1.782-.53 1.897-1.594.172-.999.287-2.063.345-3.188.69.25 1.322.469 1.897.656-.173 1.563-.375 2.782-.604 3.656-.23 1.688-1.323 2.531-3.277 2.531h-2.845zm11.965 160.808c.172 4.376-.69 7.655-2.588 9.844-.403-.438-.949-.906-1.639-1.406 1.667-1.749 2.415-4.562 2.243-8.438v-5.156h18.458v1.781h-16.474v3.375zm.231-137.403c-.862-1.125-1.783-2.25-2.76-3.375l1.552-1.125c.747.75 1.725 1.844 2.933 3.281l-1.725 1.219zm1.466 107.999c-.403 1.688-1.179 3.406-2.329 5.156-.633-.563-1.266-1.094-1.897-1.594 2.012-2.374 2.933-6 2.76-10.875v-6.469h8.194c-.172-.499-.461-1.249-.862-2.25-.173-.312-.289-.563-.345-.75l2.415-.469c.574 1.188 1.005 2.25 1.294 3.188l-1.035.281h8.28v2.156h-15.87v4.406c-.001 3.189-.203 5.596-.605 7.22zm-3.622-80.095v-1.875h2.846v-3.188h1.898v3.188h2.242v1.875h-2.242v2.906c.804-.188 1.552-.375 2.242-.563v1.969l-2.242.563v3.188c.056 1.813-.69 2.751-2.243 2.813h-2.156v-.281c-.058-.375-.172-.938-.345-1.688.402.063.977.094 1.725.094.747 0 1.121-.406 1.121-1.219v-2.438c-.978.188-1.983.438-3.019.75l-.345-2.063c.402-.062.977-.188 1.725-.375.747-.125 1.294-.219 1.639-.281v-3.375h-2.846zm-.345-69.215v-2.25h20.527v2.25h-10.091v5.906l1.294-1.781c2.644 1.626 5.203 3.281 7.676 4.969l-1.38 2.063c-2.243-1.625-4.773-3.375-7.59-5.25v12.469h-2.242v-18.375h-8.194zm3.622 47.217c-.69 2.376-1.179 4.093-1.466 5.156l-1.984-.75c.977-2.75 1.811-5.531 2.501-8.344.574.25 1.208.531 1.897.844-.172.626-.488 1.657-.948 3.094zm.432 34.561c-.461 1.375-1.093 2.968-1.897 4.781l-1.984-.656c.69-1.376 1.351-2.906 1.984-4.594l1.897.469zm-.863-46.748c-.862-1.125-1.783-2.25-2.76-3.375l1.639-1.125c.345.375.805.906 1.38 1.594.632.688 1.092 1.219 1.38 1.594l-1.639 1.312zm-2.646 136.466v-4.594h1.983v2.813h5.52v-3.656h1.984v3.656h5.434v-2.813h1.984v4.594h-16.905zm4.888-51.684c-1.841-.188-2.876-1.281-3.105-3.281.172-2.124 1.208-3.281 3.105-3.469 1.954.188 3.019 1.345 3.191 3.469-.172 2-1.236 3.093-3.191 3.281zm-1.525 59.559v-1.781h13.369v1.781h-5.692v2.906h7.245v1.781h-7.245v4.5h-2.07v-4.5h-7.159v-1.781h7.159v-2.906h-5.607zm1.525-64.903c-1.093.126-1.697.813-1.811 2.063.114 1.063.718 1.655 1.811 1.781 1.149-.126 1.782-.718 1.897-1.781-.115-1.249-.747-1.937-1.897-2.063zm3.537-78.407c-1.323 1.251-2.531 2.313-3.623 3.188-.172-.249-.431-.594-.776-1.031-.173-.188-.289-.343-.345-.469 1.322-.938 2.501-1.937 3.536-3l1.208 1.312zm-3.45-2.062v-1.781h6.296c-.172-.688-.345-1.344-.517-1.969l2.156-.281.517 2.25h6.296v1.781h-4.83v4.5h-1.811v-4.5h-2.156v4.5h-1.725v-4.5h-4.226zm10.177 18.187c-1.035.062-2.501.094-4.398.094-.116-.563-.259-1.188-.432-1.875h1.466c1.322.062 2.271.062 2.846 0 1.15.062 1.782-.313 1.897-1.125.057-.188.086-.469.086-.844.057-.375.086-.656.086-.844h-11.385l.949-4.875h9.747v-1.688h-10.35v-1.688h12.248v4.969h-10.091l-.345 1.688h11.212c-.058 1.626-.144 2.813-.259 3.563-.115 1.812-1.207 2.687-3.277 2.625zm-8.452 33.904c-.403-1.251-.834-2.625-1.294-4.125l1.811-.469c.173.438.374 1.063.604 1.875.401.938.69 1.718.862 2.344l-1.983.375zm6.727-8.625l-2.329-1.781c-.862 1.813-2.156 3.469-3.881 4.969l-1.466-1.594c1.782-1.374 3.047-2.874 3.795-4.5-.289-.249-.748-.563-1.38-.938-.403-.313-.69-.53-.862-.656l.949-1.594 1.897 1.219c.229-.75.374-1.875.431-3.375h-2.587v-1.969h2.587c.057-.688.086-1.719.086-3.094h1.897c0 1.125-.03 2.156-.086 3.094h4.658c-.058 4.251 0 7.375.172 9.375.173.876.431 1.345.776 1.406.287 0 .488-.343.604-1.031v-.375c.057-.563.173-1.438.346-2.625.172.063.401.156.689.281.345.126.574.22.69.281-.059.313-.116.782-.173 1.406 0 .375-.086 1.031-.259 1.969-.288 1.438-.979 2.188-2.07 2.25-1.38-.125-2.186-1.219-2.415-3.281-.172-1.688-.259-4.25-.259-7.688h-2.846c0 1.688-.202 3.188-.604 4.5l2.674 1.875-1.034 1.876zm-1.293 8.438c-.461-1.376-.979-2.75-1.553-4.125l1.897-.469c.115.313.287.75.518 1.313.518 1.063.891 1.969 1.122 2.719l-1.984.562zm6.986-46.748c-1.093-.999-2.272-2-3.537-3l1.035-1.313c.115.126.287.25.518.375 1.38 1 2.415 1.813 3.105 2.438l-1.121 1.5zm-1.122 46.842c-.517-1.251-1.237-2.75-2.156-4.5l1.812-.563c.919 1.5 1.695 2.937 2.329 4.313l-1.985.75zm4.512 90.936c-.115-.062-.258-.218-.431-.469-1.093-.999-1.927-1.781-2.501-2.344l1.207-1.5c1.149.938 2.156 1.875 3.019 2.813l-1.294 1.5zm1.294 3.094c-.748 3.126-1.38 5.906-1.897 8.344l-1.811-.656c.804-3.188 1.408-5.968 1.811-8.344.229.126.747.313 1.553.563-.634-.188-.518-.156.344.093zm-.862-9.281c-.92-1.062-1.812-1.999-2.674-2.813l1.294-1.406c.919.813 1.84 1.72 2.76 2.719l-1.38 1.5zm1.818-65.934c-.575.75-1.18 1.47-1.812 2.156-.116-.312-.316-.75-.604-1.313-.173-.312-.288-.563-.345-.75 2.012-2.124 3.564-4.437 4.657-6.938l1.897.75c-.575 1.188-1.208 2.313-1.897 3.375v9.75h-1.897v-7.03h.001zm.777 45.904c-.862.876-1.755 1.906-2.674 3.094l-.862-2.25c.518-.624 1.293-1.5 2.328-2.625.632-.624 1.178-.938 1.639-.938.115 0 .229.032.346.094h.259c4.369-2.813 8.279-6.03 11.729-9.656h-14.662v-2.063h8.452c-.23-.624-.604-1.562-1.121-2.813-.173-.437-.316-.75-.432-.938l2.243-.469c.459 1.063 1.005 2.407 1.639 4.031l-.604.188h7.245v2.25c-3.738 4.188-8.021 7.845-12.851 10.969 1.034 1.313 2.644 2.001 4.83 2.063 2.069.063 5.403.032 10.005-.094-.289.688-.489 1.406-.604 2.156h-5.864c-1.496-.063-2.818-.126-3.968-.188-2.703 0-4.773-.938-6.21-2.813-.289-.247-.576-.247-.863.002zm2.069-149.404c-.806 1.626-1.696 3.094-2.674 4.406-.517-.563-1.093-1.031-1.725-1.406 2.012-2.499 3.42-5.25 4.227-8.25l2.242.281c-.345 1-.689 1.938-1.035 2.813h12.766v2.156h-7.159v6.281h8.798v2.156h-8.798v8.719h-2.156v-8.719h-9.919v-2.156h9.919v-6.281h-4.486zm-2.242 39.812c-1.035-.999-2.1-1.969-3.191-2.906l1.208-1.594c1.207.938 2.328 1.875 3.363 2.813l-1.38 1.687zm-3.191 27.529v-1.781h4.054v-2.625h1.897v2.625h3.536v-2.719h1.812v2.719h3.623v-2.625h1.897v2.625h3.967v1.781h-3.967v2.438h-1.897v-2.438h-3.623v2.438h-1.812v-2.438h-3.536v2.438h-1.897v-2.438h-4.054zm3.967 44.878c-.69 1.938-1.41 3.72-2.156 5.344l-1.812-.844c.862-1.624 1.553-3.343 2.07-5.156l1.898.656zm.345-69.22c-.806 3.063-1.466 5.78-1.983 8.156l-1.983-.656c.632-2.312 1.321-5.063 2.069-8.25.287.063.719.25 1.294.563.287.062.488.125.603.187zm-.517-9.375c-.288-.249-.72-.656-1.293-1.219-.807-.812-1.438-1.406-1.897-1.781l1.207-1.5c.977.75 2.099 1.72 3.363 2.906l-1.38 1.594zm-3.105 41.404v-4.219h19.492v4.219h-1.983v-2.344h-15.525v2.344h-1.984zm1.373 95.718v-1.969h3.363c-.288-.812-.604-1.999-.948-3.563l1.897-.281c.057.375.2.938.431 1.688.229.876.402 1.594.518 2.156h-.086 2.156v1.969h-4.054l-.086 3.375h3.881c0 .876-.029 2.188-.086 3.938-.059 2.688-.116 4.626-.173 5.813 0 1.813-.806 2.719-2.415 2.719-.518.062-1.064.094-1.639.094l-.345-1.969h1.294c.977.062 1.437-.375 1.38-1.313 0-.375.028-.968.086-1.781.114-2.625.173-4.5.173-5.625h-2.243v.469c-.115 4.563-.979 8.156-2.587 10.781l-1.467-1.406c1.437-1.999 2.213-5.156 2.329-9.469.114-1.624.173-3.499.173-5.625h-1.552zm.696-87.28v-7.875h6.642v-2.063h2.07v2.063h6.728v5.156c.057 1.688-.748 2.531-2.415 2.531-.461.062-1.294.094-2.501.094-.059-.313-.145-.656-.259-1.031-.059-.313-.116-.563-.173-.75.518.063 1.235.094 2.156.094.862.063 1.264-.343 1.207-1.219v-3.094h-4.743v7.875h-2.07v-7.875h-4.657v6.094h-1.985zm4.313-48.154c-.23.313-.633.782-1.207 1.406l-.173-.188c-.402-.624-.776-1.093-1.121-1.406 1.84-1.813 3.248-3.969 4.227-6.469l2.07.281c-.289.688-.604 1.313-.949 1.875h10.522v1.781h-11.471c-.403.75-.863 1.438-1.381 2.063h11.472c-.058.438-.086 1.375-.086 2.813-.059 1.188-.087 2.125-.087 2.813h1.984v1.781h-1.984c0 .501-.029 1.219-.086 2.156v1.781h1.553v1.781h-1.639c-.116 2.25-1.266 3.343-3.45 3.281h-3.105l-.259-.844c-.115-.438-.202-.75-.259-.938h3.02c1.38.062 2.098-.438 2.156-1.5h-10.781l.604-5.719h-1.897v-1.781h2.07l.517-5.344c-.059.064-.145.189-.26.377zm.776 83.282c-1.841 0-2.76-.938-2.76-2.813v-3.938h1.983v3.375c0 .938.488 1.406 1.467 1.406h3.622c1.265.125 1.954-.343 2.07-1.406.173-.624.287-1.313.345-2.063.229.126.604.281 1.121.469l.776.281c-.058.501-.202 1.219-.431 2.156-.059.126-.087.22-.087.281-.345 1.562-1.438 2.312-3.277 2.25h-4.829zm3.106-13.782c-1.323 1.751-2.617 3.313-3.882 4.688-.461-.499-.948-.938-1.466-1.313 1.149-1.125 2.386-2.625 3.709-4.5l1.639 1.125zm-1.38-3.843c-.576 1.063-1.294 2.156-2.156 3.281-.116-.124-.317-.281-.604-.469-.403-.375-.72-.656-.949-.844 1.494-1.812 2.73-3.874 3.709-6.188l1.983.375-.518 1.125c-.23.375-.374.656-.431.844h9.4v1.969l-1.207 2.906c-.288-.188-.806-.375-1.553-.563-.115-.062-.202-.094-.259-.094l1.035-2.344h-8.45v.002zm7.331-54.97c.057-.75.086-2.063.086-3.938h-8.538l-.346 3.938h8.798zm-5.693 68.938c-.748-1.125-1.61-2.218-2.588-3.281l1.467-1.125c.919.938 1.839 1.969 2.76 3.094l-1.639 1.312zm-2.07-78.594l-.431 3.938h8.366v-3.938h-7.935zm.684 143.309v-1.875h3.536v-1.313l2.328-2.625h-4.829v-1.406l-.604.938c-.402-.437-.892-.905-1.466-1.406 1.38-2.063 2.472-4.468 3.277-7.219l1.983.281c-.345 1.001-.689 1.969-1.034 2.906h5.434v1.875h-6.21c-.346.75-.748 1.5-1.208 2.25h6.728v1.969l-2.587 3v.75h3.277v1.875h-3.277v4.594c.056 1.688-.748 2.531-2.415 2.531-.807.062-1.553.094-2.243.094 0-.188-.058-.438-.172-.75-.059-.563-.116-.97-.173-1.219h1.983c.863.062 1.265-.313 1.208-1.125v-4.125h-3.536zm2.076-69.215h-1.983c-.116-.563-.259-1.187-.432-1.875.402.063.978.094 1.726.094.919 0 1.351-.405 1.294-1.219v-5.156h1.897v5.438c.057 1.751-.776 2.657-2.502 2.718zm1.553-64.625c-.288-.249-.689-.624-1.207-1.125-.576-.437-1.007-.781-1.294-1.031l.948-1.125c.69.501 1.553 1.188 2.588 2.063l-1.035 1.218zm.173-5.813c-.345-.375-.893-.844-1.639-1.406-.346-.313-.634-.563-.862-.75l1.034-1.125c.518.375 1.265.938 2.243 1.688-.116-.125 0-.031.345.281l-1.121 1.312zm5.519 69.501c-.345-.375-.834-.938-1.466-1.688-.921-1.125-1.669-1.999-2.242-2.625l1.38-1.219c1.264 1.376 2.558 2.782 3.881 4.219l-1.553 1.313zm.087 7.312c-.863-1.437-1.928-3.03-3.191-4.781l1.553-1.125c1.264 1.688 2.385 3.313 3.363 4.875l-1.725 1.031zm.597 51.778v-1.969h6.986v1.969h-2.501v5.438h2.242v1.875h-2.242v5.719c.286-.062.718-.188 1.293-.375l1.294-.281c0 .626.028 1.313.086 2.063-.747.188-1.927.501-3.536.938-1.552.375-2.731.656-3.536.844l-.345-2.063 2.76-.656v-6.188h-2.415v-1.875h2.415v-5.438h-2.501zm3.222-167.558v-1.969h2.329v-4.219h1.897v4.219h1.983v1.969h-1.983v4.313l2.069-.844c0 .625.028 1.282.087 1.969l-2.156.938v7.125c.056 1.625-.634 2.468-2.07 2.531-.23 0-.575.031-1.035.094h-.776c-.115-.813-.259-1.563-.431-2.25h1.466c.69 0 1.005-.281.949-.844v-5.906l-2.415 1.031-.259-2.25 1.552-.563c.518-.188.892-.312 1.122-.375v-4.969h-2.329zm.173 135.247v-1.969h3.708c-.288-1.062-.604-2.093-.948-3.094l1.983-.469c.173.688.518 1.875 1.035 3.563h2.415v1.969h-4.657l-.087 3.188h4.141c0 3.375-.087 6.75-.259 10.125 0 2-.835 3-2.502 3h-1.897l-.431-1.969h1.725c.978.062 1.437-.437 1.38-1.5.115-3.249.173-5.813.173-7.688h-2.415c0 5.313-.806 9.219-2.415 11.719l-1.466-1.406c1.437-1.999 2.156-5.655 2.156-10.969l.086-4.5h-1.725zm3.019-56.282c-.346 1.688-1.007 3.437-1.984 5.25-.23-.251-.547-.656-.948-1.219-.23-.313-.403-.532-.518-.656.862-1.5 1.408-2.906 1.639-4.219.229-1.313.345-3.437.345-6.375v-8.625h15.698v10.313c0 4.313.143 6.844.431 7.594.114.375.287.563.518.563.229-.063.401-.281.518-.656.173-1.625.287-2.874.345-3.75l1.035.375c.229.063.401.126.518.188-.058.313-.116.813-.173 1.5-.172 1.188-.288 1.938-.345 2.25-.23 1.562-.92 2.344-2.07 2.344-1.034 0-1.754-.72-2.156-2.156-.461-1.25-.689-4.031-.689-8.344v-8.25h-11.647v6.563c0 3.185-.173 5.623-.517 7.31zm-3.365 20.503v-2.063h20.873v2.063h-3.105v15c.057 2.188-.979 3.281-3.104 3.281-1.208.062-2.445.094-3.709.094-.058-.563-.202-1.313-.432-2.25 1.208.062 2.3.094 3.277.094 1.381.125 2.013-.499 1.897-1.875v-14.344h-15.697zm.691-52.438v-15.094h1.294v13.125l1.466-.094v-17.156h1.553v17.063l1.38-.094v-12.844h1.294v15.844h-1.294v-1.125l-5.693.375zm1.639 66.969v-11.25h9.487v9.563h-7.504v1.688h-1.983zm2.21 60.028v-1.969h12.852v1.969h-4.054v8.531c-.059.626.229.938.862.938h.689c.633 0 .978-.312 1.035-.938.057-.499.144-1.5.259-3l1.294.563c.173.063.287.094.345.094-.058.438-.144 1.157-.259 2.156-.058.438-.086.75-.086.938-.23 1.438-1.064 2.156-2.501 2.156h-1.294c-1.61.062-2.387-.75-2.329-2.438v-9h-2.501c0 .438-.029 1.031-.086 1.781 0 .876-.03 1.47-.087 1.781-.058 3.563-1.582 6.469-4.571 8.719-.172-.25-.517-.625-1.034-1.125l-.518-.563c2.76-1.749 4.14-4.093 4.14-7.031.114-.938.173-2.124.173-3.563h-2.329zm9.174-92.437c-1.15-1.625-2.387-3.469-3.709-5.531-1.438 2.063-3.048 4-4.83 5.813-.461-.5-.948-.999-1.466-1.5 2.242-2.438 3.938-4.5 5.089-6.188-.461-.688-1.18-1.719-2.156-3.094-.921-1.374-1.639-2.405-2.156-3.094l1.553-1.219c.518.688 1.235 1.72 2.156 3.094l1.811 2.531c1.035-1.749 2.07-3.75 3.105-6l1.725 1.031c-.979 2.25-2.186 4.5-3.622 6.75 1.954 2.875 3.334 4.938 4.14 6.188l-1.64 1.219zm-9.401 23.128v5.719h5.521v-5.719h-5.521zm1.349 62.84v-1.969h10.522v1.969h-10.522zm3.481-153.215c-.402.312-.834.656-1.294 1.031l-1.207-1.781c.518-.5.776-1.25.776-2.25v-15.656c4.427-.188 8.538-.53 12.334-1.031l.517 1.969c-.23 0-.547.032-.948.094-1.151.126-2.501.25-4.054.375 0 1.75.057 3.625.173 5.625h5.261v1.969h-5.175c.172 3.313.776 5.938 1.812 7.875.401.625.775.938 1.121.938.287 0 .487-.249.604-.75 0-.188.028-.53.086-1.031.115-.875.201-1.562.259-2.063.173.063.46.157.862.281.346.188.604.313.776.375 0 .25-.029.625-.086 1.125-.058.813-.173 1.594-.345 2.344-.346 1.313-1.035 1.969-2.07 1.969-1.151 0-2.128-.75-2.933-2.25-1.15-2-1.812-4.937-1.983-8.813h-4.227v7.406l3.536-2.063v.188c.057.563.173 1.188.346 1.875l-1.035.563c-1.439.687-2.474 1.248-3.106 1.686zm0 18.624v-1.875h4.485v-3.188h1.812v3.188h4.57v1.875h-4.57c0 .625-.03 1.469-.087 2.531v2.063c0 .563-.058 1.281-.172 2.156h5.52v1.875h-5.261c.977 3.063 2.816 5.156 5.52 6.281-.403.687-.776 1.343-1.121 1.969-2.876-1.688-4.716-3.875-5.521-6.563-.748 2.5-2.646 4.812-5.692 6.938-.345-.563-.776-1.188-1.294-1.875 3.105-1.625 5.003-3.875 5.693-6.75h-4.399v-1.875h4.744c.057-.563.086-1.156.086-1.781.114-1.313.173-2.968.173-4.969h-4.486zm2.76 101.062c-.748 1.376-1.639 2.719-2.674 4.031-.633-.687-1.093-1.155-1.38-1.406 1.726-2.063 2.989-4.374 3.795-6.938l1.984.188-.518 1.406c-.173.438-.288.75-.345.938h7.762v1.781h-8.624zm-1.034-95.531c-.576-1.125-1.208-2.25-1.897-3.375l1.293-.938c.229.313.518.782.863 1.406.517.813.919 1.438 1.207 1.875l-1.466 1.032zm9.314 112.031l-.776.844c-3.221-2.749-5.061-6.874-5.52-12.375-.69.063-1.38.157-2.07.281v9.844c1.208-.624 2.329-1.125 3.364-1.5v.938c.056.438.086.75.086.938-1.208.437-2.415.999-3.623 1.688-.115.062-.258.125-.431.188-.461.249-.748.437-.862.563l-1.122-1.688c.518-.438.747-1.031.69-1.781v-10.969c3.105-.249 6.21-.75 9.315-1.5l.689 1.969c-1.323.313-2.76.563-4.313.75.173 1.5.401 2.813.69 3.938 1.149-.624 2.271-1.313 3.363-2.063l.949 1.688c-1.208.75-2.445 1.47-3.709 2.156.746 2.063 2.099 3.782 4.054 5.156-.114.185-.373.497-.774.935zm-6.727-147.811c-.058-1.688-.086-3.5-.086-5.438-1.38.063-2.703.157-3.968.281v5.156h4.054zm-.604 13.5c-.575-.938-1.208-1.844-1.897-2.719l1.466-.844c.69.563 1.408 1.437 2.156 2.625l-1.725.938zm5.52 21.624c-.23.313-.402.563-.518.75l-1.38-.938c.057-.062.115-.155.173-.281.977-1.438 1.639-2.499 1.983-3.188l1.38.844c-.345.626-.891 1.563-1.638 2.813zm6.092 147.622c-1.841-.188-2.876-1.281-3.104-3.281.172-2.124 1.207-3.281 3.104-3.469 1.954.188 3.019 1.345 3.191 3.469-.172 2-1.237 3.094-3.191 3.281zm0-5.344c-1.093.126-1.696.813-1.812 2.063.115 1.063.719 1.655 1.812 1.781 1.149-.126 1.781-.718 1.897-1.781-.115-1.249-.747-1.937-1.897-2.063zm2.05-167.277c-1.151 1.125-2.07 2.124-2.761 3l-.948-2.156c.287-.249.805-.718 1.553-1.406.574-.563.977-.968 1.207-1.219v-7.125h-2.587v-2.156h4.571v9.188c1.091 1.75 2.673 2.593 4.743 2.531 3.679.125 7.475.125 11.385 0l-.259 1.125c-.172.437-.288.781-.345 1.031-1.266 0-3.191-.032-5.778-.094-2.761 0-4.63-.032-5.606-.094-2.128-.063-3.854-.937-5.175-2.625zm-3.45 60.497v-2.063h9.229v-9.469h2.07v9.469h9.314v2.063h-6.813v6.938c0 .876.488 1.313 1.467 1.313h1.725c.919.062 1.408-.343 1.466-1.219.173-.812.287-1.875.346-3.188l1.983.75c-.173 1.5-.345 2.657-.518 3.469-.288 1.562-1.323 2.312-3.104 2.25h-2.502c-1.897 0-2.846-.97-2.846-2.906v-7.406h-3.968l-.086 1.219c0 4.438-2.243 7.655-6.728 9.656-.173-.251-.461-.688-.862-1.313-.173-.313-.317-.532-.432-.656 3.909-1.374 5.894-3.999 5.951-7.875l.086-1.031h-5.778zm-.173 60.97v-1.781h4.054v-2.625h1.897v2.625h3.536v-2.719h1.812v2.719h3.623v-2.625h1.897v2.625h3.967v1.781h-3.967v2.438h-1.897v-2.438h-3.623v2.438h-1.812v-2.438h-3.536v2.438h-1.897v-2.438h-4.054zm.173-102.187v-1.875h9.143v-2.438h2.07v2.438h9.229v1.875h-9.229v2.25h8.193v12.844c0 1.812-.834 2.719-2.501 2.719-.576.062-1.697.094-3.364.094-.116-.688-.259-1.376-.431-2.063h2.846c1.092.062 1.609-.375 1.553-1.313v-10.406h-14.404v13.875h-1.983v-15.75h8.021v-2.25h-9.143zm2.329 84.22l-.432.469-1.466-1.781c.632-.624.919-1.437.862-2.438v-15.844h2.156v16.031c1.781-1.249 3.593-2.625 5.434-4.125 0 .126.028.313.086.563.173 1.001.315 1.688.432 2.063-1.841 1.313-3.854 2.719-6.038 4.219l-1.034.843zm-1.812 25.654v-4.219h19.492v4.219h-1.983v-2.344h-15.525v2.344h-1.984zm3.364-142.56c-.518-.938-1.438-2.405-2.76-4.406l1.639-.938c.287.375.805 1.063 1.553 2.063.689.938 1.178 1.626 1.466 2.063l-1.898 1.218zm1.294 70.153c-.461-.563-1.179-1.468-2.156-2.719-.806-.999-1.38-1.719-1.725-2.156l1.466-1.313c1.495 1.626 2.847 3.22 4.054 4.781l-1.639 1.407zm-2.588 80.845v-7.875h6.642v-2.063h2.07v2.063h6.728v5.156c.057 1.688-.748 2.531-2.415 2.531-.461.062-1.294.094-2.501.094-.059-.313-.145-.656-.259-1.031-.059-.312-.116-.563-.173-.75.518.063 1.235.094 2.156.094.862.063 1.264-.343 1.207-1.219v-3.094h-4.743v7.875h-2.07v-7.875h-4.657v6.094h-1.985zm2.07-108.937v-1.688h2.847c-.116-.188-.317-.53-.604-1.031-.517-.75-.834-1.219-.948-1.406l1.725-.563c.173.188.46.595.863 1.219.459.688.746 1.125.862 1.313l-1.38.469h2.933c.229-.313.573-.875 1.034-1.688.402-.688.661-1.125.776-1.313l1.812.469c-.173.313-.518.876-1.035 1.688l-.518.844h2.847v1.688h-4.657v2.25h5.261v1.688h-5.261v4.125h-1.898v-4.125h-5.175v-1.688h5.175v-2.25h-4.659zm1.553-40.373v-2.063h5.348c.057-1.187.086-2.906.086-5.156h2.07c0 1.875-.03 3.595-.087 5.156h6.21v2.063h-6.296c-.116 1.375-.345 2.625-.689 3.75l.948-.844c.574.563 1.609 1.626 3.105 3.188 1.437 1.5 2.443 2.563 3.019 3.188l-1.639 1.5c-1.035-1.25-2.933-3.343-5.692-6.281-.863 2.313-2.704 4.469-5.521 6.469-.403-.624-.862-1.25-1.38-1.875 3.737-2.438 5.663-5.468 5.778-9.094h-5.26zm3.363 101.718c-.978-2.063-1.983-4.031-3.019-5.906l1.726-1.031c1.207 1.938 2.299 3.876 3.277 5.813l-1.984 1.124zm9.488 14.812c-.807-1.188-1.956-2.749-3.45-4.688-.23-.188-.375-.343-.432-.469-1.093 1.938-3.363 3.875-6.813 5.813-.173-.188-.432-.563-.776-1.125-.23-.438-.432-.75-.604-.938 5.807-2.499 8.625-6.999 8.452-13.5.114-2.374.173-4.5.173-6.375h2.069c0 2.688-.058 4.813-.172 6.375-.173 3.251-.604 5.782-1.294 7.594.632.75 1.553 1.907 2.76 3.469.862 1.001 1.467 1.688 1.812 2.063l-1.725 1.781zm.086-52.94c-1.266 1.688-2.646 3.375-4.14 5.063l-1.553-1.5c1.553-1.625 2.902-3.249 4.054-4.875l1.639 1.312zm7.107 50.222c-1.034.875-1.927 1.843-2.674 2.906l-.948-2.25c.173-.124.459-.375.862-.75.805-.812 1.38-1.374 1.726-1.688v-7.313h-2.329v-2.063h4.313v9.188c.977 1.688 2.587 2.531 4.83 2.531 1.264.062 3.995.062 8.193 0h3.364c-.23.75-.432 1.438-.604 2.063-5.864 0-9.718-.032-11.557-.094-2.301.001-4.026-.843-5.176-2.53zm-1.034 30.342c-.576.063-1.122.157-1.64.281l-.517-1.875c.459-.312 1.005-.938 1.639-1.875.632-.75 1.264-1.688 1.897-2.813-1.324.063-2.474.157-3.45.281l-.518-1.875c.459-.375.891-.938 1.294-1.688 1.264-2.187 2.242-4.155 2.933-5.906l2.069.656c-1.61 2.938-2.962 5.22-4.054 6.844l2.76-.094c.173-.249.374-.624.604-1.125.287-.499.487-.874.604-1.125l1.812.75c-1.669 2.813-3.308 5.376-4.917 7.688l4.054-.375v.188c-.115.501-.172 1.063-.172 1.688-.748.063-1.726.157-2.933.281-.69.063-1.179.094-1.465.094zm3.449 4.312c-2.415.437-4.313.812-5.692 1.125l-.345-1.969c.401-.062 1.063-.155 1.983-.281 2.357-.375 4.169-.687 5.434-.938-.058.626-.086 1.282-.086 1.969-.288 0-.72.032-1.294.094zm-5.951-151.935v-1.781h9.487l-.517-1.969 2.242-.188.518 2.156h9.056v1.781h-20.786zm3.795 103.593c-1.15-1.688-2.1-3-2.846-3.938l1.639-1.125c.172.251.459.595.862 1.031.978 1.313 1.667 2.25 2.07 2.813l-1.725 1.219zm-2.674-85.218v-10.594h18.631v7.781c.057 1.749-.776 2.656-2.502 2.719h-3.019c-.058-.188-.145-.532-.259-1.031-.058-.375-.116-.656-.173-.844h2.415c1.092.062 1.609-.344 1.553-1.219v-5.719h-14.749v8.906h-1.897zm.69 33.436v-19.594h17.25v19.594h-2.156v-1.969h-12.938v1.969h-2.156zm4.313 30.623c0 2.187-.748 3.812-2.242 4.875l-.776-.844c1.035-.813 1.581-2.032 1.639-3.656h-1.467v-3.094h2.847l-.001 2.719zm-2.76-76.153v-4.781h14.145v4.781h-14.145zm.603 28.093v13.313h12.938v-13.313h-12.938zm1.294-31.374v1.781h10.264v-1.781h-10.264zm.431 12.844v-4.781h9.488v4.781h-9.488zm3.278 87.843c-.346.938-.69 1.813-1.035 2.625-.173-.062-.461-.188-.863-.375-.461-.188-.775-.312-.948-.375 1.092-2.187 1.897-4.374 2.415-6.563l1.812.375c-.059.251-.173.656-.346 1.219-.115.563-.23 1.001-.345 1.313h2.76v-3.75h1.984v3.75h5.175v1.781h-5.175v3.656h6.037v1.781h-4.571v4.219c-.058.938.287 1.376 1.035 1.313h.518c.689.063 1.092-.343 1.207-1.219.115-.687.201-1.437.259-2.25.574.251 1.121.469 1.639.656-.058.813-.144 1.594-.259 2.344-.23 1.5-1.034 2.25-2.415 2.25h-1.639c-1.61.063-2.387-.874-2.328-2.813v-4.5h-2.588c.057 3.563-1.237 6.157-3.881 7.781l-1.467-1.594c2.415-1.313 3.564-3.375 3.45-6.188h-3.622v-1.781h6.641v-3.656h-3.45v.001zm11.989 35.873c-.345.563-.69 1.219-1.035 1.969-2.646-1.875-4.629-4.125-5.951-6.75-1.15 2.188-2.617 4.031-4.398 5.531h8.625v1.875h-8.798v-1.781c-.461.438-.948.844-1.466 1.219-.403-.874-.72-1.53-.949-1.969 2.816-1.875 4.916-4.437 6.297-7.688l1.983.281-.345.75c1.494 2.813 3.505 5.002 6.037 6.563zm-13.455-127.091v2.063h5.779v-2.063h-5.779zm1.035 142.091v-9.656h10.608v9.656h-1.897v-1.313h-6.813v1.313h-1.898zm1.897-7.781v4.688h6.813v-4.688h-6.813zm15.032-7.969c-.575.75-1.18 1.47-1.812 2.156-.116-.312-.316-.75-.604-1.313-.173-.312-.288-.563-.345-.75 2.012-2.124 3.564-4.437 4.657-6.938l1.897.75c-.575 1.188-1.208 2.313-1.897 3.375v9.75h-1.897v-7.03h.001zm-2.329-137.029v-1.875h2.76c0-.062.028-.188.087-.375.172-1.374.287-2.468.345-3.281l1.897.188c-.173 1.188-.345 2.344-.518 3.469h3.45v1.875h-3.881c-.634 3.188-1.87 6.469-3.709 9.844-.173-.563-.432-1.343-.776-2.344 1.207-2.25 2.099-4.749 2.674-7.5h-2.329zm0 75.684v-1.781h20.441v1.781h-8.97v2.25h7.417v1.781h-7.417v2.344h9.143c-.173.687-.346 1.343-.518 1.969-3.968 0-6.872-.032-8.712-.094-3.449 0-5.778-1.063-6.985-3.188-.576 1.374-1.755 2.78-3.537 4.219l-1.207-1.594c2.357-1.562 3.65-3.875 3.881-6.938l1.897.281c-.058.25-.115.625-.172 1.125-.116.438-.173.75-.173.938.919 1.938 2.386 3.032 4.398 3.281v-6.375h-9.486zm-.086 26.972v-2.063h2.501v-4.125h1.897v4.125h2.329v2.063h-2.329v4.594c.345-.124.833-.281 1.467-.469.287-.062.487-.124.604-.188 0 .251.028.595.086 1.031v1.125c-.116.063-.345.126-.689.188-.634.188-1.122.345-1.467.469v6.656c0 1.562-.72 2.375-2.156 2.438-.748.062-1.438.094-2.069.094-.059-.313-.116-.75-.173-1.313-.116-.438-.173-.719-.173-.844h1.639c.747.062 1.092-.25 1.035-.938v-5.531l-2.587.844-.087-2.344c.173-.062.46-.124.862-.188.229-.124.833-.281 1.812-.469v-5.156h-2.502zm3.795 43.092c-.69 1.938-1.41 3.72-2.156 5.344l-1.812-.844c.862-1.624 1.553-3.343 2.07-5.156l1.898.656zm-.949-131.217c-.575.125-1.121.218-1.639.281l-.689-1.406c.518-.437.919-1.031 1.207-1.781 1.092-2.375 2.127-5.25 3.105-8.625l1.725.563c-1.323 3.876-2.501 7-3.536 9.375.46-.062 1.208-.125 2.242-.188.518-.062.892-.094 1.122-.094-.346-1.187-.72-2.438-1.122-3.75l1.467-.469c.287.876.66 2.032 1.121 3.469.401 1.375.747 2.438 1.035 3.188l-1.553.563-.432-1.594c-.461.062-1.121.155-1.983.281-.862.061-1.552.124-2.07.187zm-.086 57.591v-8.813h15.008v8.813h-15.008zm3.192-25.467c0 2.187-.748 3.812-2.242 4.875l-.776-.844c1.035-.813 1.581-2.032 1.639-3.656h-1.467v-3.094h2.847l-.001 2.719zm-1.208 18.436v1.875h10.954v-1.875h-10.954zm0 3.375v1.969h10.954v-1.969h-10.954zm2.932 83.657c-1.841 0-2.76-.938-2.76-2.813v-3.938h1.983v3.375c0 .938.488 1.406 1.467 1.406h3.622c1.265.125 1.954-.343 2.07-1.406.173-.624.287-1.313.345-2.063.229.126.604.281 1.121.469l.776.281c-.058.501-.202 1.219-.431 2.156-.059.126-.087.22-.087.281-.345 1.562-1.438 2.312-3.277 2.25h-4.829zm3.106-13.781c-1.323 1.751-2.617 3.313-3.882 4.688-.461-.499-.948-.938-1.466-1.313 1.149-1.125 2.386-2.625 3.709-4.5l1.639 1.125zm-1.38-3.844c-.576 1.063-1.294 2.156-2.156 3.281-.116-.124-.317-.281-.604-.469-.403-.375-.72-.656-.949-.844 1.494-1.812 2.73-3.874 3.709-6.188l1.983.375-.518 1.125c-.23.375-.374.656-.431.844h9.4v1.969l-1.207 2.906c-.288-.188-.806-.375-1.553-.563-.115-.062-.202-.094-.259-.094l1.035-2.344h-8.45v.002zm-2.071-23.873v-1.875h5.262v-2.156h1.983v2.156h5.175v1.875h-5.175v2.625h6.124v1.875h-6.124v3.563h-1.983v-3.563h-6.469v-1.875h6.469v-2.625h-5.262zm13.024-4.875c-.23.501-.374.907-.431 1.219-2.588-.563-4.688-1.249-6.297-2.063-1.725.876-3.824 1.626-6.296 2.25-.058-.249-.202-.624-.432-1.125l-.258-.844c2.069-.437 3.765-.938 5.088-1.5-1.265-.999-2.473-2.438-3.622-4.313h-.949v-1.875h12.248v1.875c-1.151 1.751-2.444 3.188-3.882 4.313 1.438.501 3.134.938 5.089 1.313-.057.187-.143.438-.258.75zm-11.04-88.969v-14.063c-.46.813-.948 1.594-1.466 2.344-.173-.687-.461-1.406-.862-2.156 1.781-2.312 3.104-5.156 3.968-8.531l1.897.375c-.403 1.313-.835 2.531-1.294 3.656h3.881c-.461-1.187-.948-2.312-1.466-3.375l1.725-.469c.229.501.518 1.157.862 1.969.287.563.488 1 .604 1.313l-1.64.563h4.83v1.781h-3.967v3.188h3.622v1.781h-3.622v3.281h3.622v1.688h-3.622v3.375h4.14v1.594h-9.401v1.688h-1.811zm1.725 131.686c-.748-1.125-1.61-2.218-2.588-3.281l1.467-1.125c.919.938 1.839 1.969 2.76 3.094l-1.639 1.312zm.69-4.5h-1.983c-.116-.563-.259-1.187-.432-1.875.402.063.978.094 1.726.094.919 0 1.351-.405 1.294-1.219v-5.156h1.897v5.438c.056 1.75-.777 2.656-2.502 2.718zm1.897-41.311c1.035-.624 2.213-1.718 3.537-3.281h-6.9c.977 1.376 2.099 2.469 3.363 3.281zm-2.501-102.468v3.188h3.536v-3.188h-3.536zm0 4.968v3.281h3.536v-3.281h-3.536zm0 4.969v3.375h3.536v-3.375h-3.536zm7.849 132.904c-.345-.375-.834-.938-1.466-1.688-.921-1.125-1.669-1.999-2.242-2.625l1.38-1.219c1.264 1.376 2.558 2.782 3.881 4.219l-1.553 1.313zm.087 7.313c-.863-1.437-1.928-3.03-3.191-4.781l1.553-1.125c1.264 1.688 2.385 3.313 3.363 4.875l-1.725 1.031zm23.408-111.937c-4.371-2.375-7.447-4.969-9.229-7.781-2.358 3.063-5.52 5.719-9.487 7.969-.461-.812-.862-1.468-1.207-1.969 4.484-2.375 7.762-5.188 9.832-8.438l2.329.281-.346.656c2.185 3 5.262 5.406 9.229 7.219l-1.121 2.063zm-19.234-40.374v-1.781h7.849v1.781h-3.019c-.403 1.813-.948 3.501-1.639 5.063h4.054v12.563h-1.639v-1.5h-2.501v1.875h-1.812v-9.375c-.345.625-.776 1.282-1.294 1.969-.172-.75-.374-1.562-.604-2.438 1.667-2.499 2.816-5.218 3.45-8.156h-2.845zm-.604 76.341v-2.438h20.959v2.438h-20.959zm4.14-35.592v-2.063h12.766v2.063h-5.348v3.281h6.641v2.063h-6.641v3.656h8.538v1.875h-19.233v-1.875h8.539v-3.656h-6.642v-2.063h6.642v-3.281h-5.262zm12.42 67.438h-2.242c0-.499-.116-1.125-.345-1.875.459.063 1.178.094 2.156.094 1.092.063 1.639-.563 1.639-1.875.057-.249.086-.78.086-1.594.057-.687.086-1.219.086-1.594h-3.708c.057 3.251-1.151 5.813-3.623 7.688l-.431-.469-.949-1.031.086-.094c.057 0 .087-.03.087-.094l-.432.281c-.172-.188-.374-.499-.604-.938-.173-.312-.288-.53-.345-.656-.69.251-1.669.656-2.933 1.219-.748.313-1.323.532-1.726.656-.461.188-.92.438-1.38.75l-1.121-1.5c.46-.499.69-1.187.69-2.063v-5.344c2.874-.188 5.348-.53 7.417-1.031l.604 1.875c-2.358.501-4.398.813-6.123.938v4.313c.459-.124 1.437-.499 2.933-1.125l.775-.281c-.115-.249-.316-.656-.604-1.219-.115-.188-.202-.312-.259-.375l1.467-.75c1.207 1.813 2.098 3.281 2.674 4.406 1.321-.999 1.983-2.719 1.983-5.156h-2.07v-1.688h9.488c0 .626-.059 1.751-.173 3.375-.058.75-.086 1.282-.086 1.594.002 2.438-1.004 3.627-3.017 3.563zm-15.697 46.28v-18.375h2.329c.057-.249.143-.593.259-1.031.229-.687.431-1.594.604-2.719l2.156.375c-.288 1.125-.604 2.25-.949 3.375h3.882v18.188h-1.897v-1.781h-4.399v1.969h-1.985zm1.379-33.717v-11.25h16.474v11.156h-1.983v-1.031h-12.506v1.125h-1.985zm.604 17.404v5.156h4.399v-5.156h-4.399zm0 7.219v5.344h4.399v-5.344h-4.399zm.863-138.529v7.688h2.501v-7.688h-2.501zm.518 104.437v2.625h5.261v-2.625h-5.261zm0 4.219v2.531h5.261v-2.531h-5.261zm4.571-102v-1.969h8.107v1.969h-8.107zm7.676 4.875h-2.933l-.259-1.406c-.058-.313-.116-.563-.172-.75.689.062 1.725.094 3.104.094 1.149.062 1.753-.469 1.812-1.594.114-1.875.2-3.905.259-6.094h-8.625l.689-7.969h1.897l-.518 6h4.399l.689-7.125h-7.417v-1.969h9.573l-.862 9.094h2.156c-.058 1.125-.116 2.782-.173 4.969-.115 1.563-.172 2.688-.172 3.375.003 2.25-1.148 3.375-3.447 3.375zm-.345 135.904h-3.623c-.058-.688-.202-1.438-.431-2.25.746.062 1.867.094 3.363.094 1.609.125 2.415-.656 2.415-2.344.114-1.374.201-4.313.259-8.813.057-1.313.086-2.25.086-2.813h-5.175c-.23.563-.604 1.376-1.121 2.438l-.518 1.125c-.518-.375-1.093-.75-1.725-1.125 1.38-2.687 2.443-5.438 3.191-8.25l1.983.469c-.116.375-.288.907-.518 1.594l-.518 1.688h6.383c0 4.001-.116 8.688-.345 14.063.003 2.686-1.234 4.062-3.706 4.124zm-1.639-6.468l-1.294-1.969c-.806-1.313-1.438-2.312-1.897-3l1.553-1.125c.401.626 1.005 1.5 1.811 2.625.69.938 1.208 1.688 1.553 2.25l-1.726 1.219zm2.243-36.53h-5.261v2.625h5.261v-2.625zm-5.261 4.219v2.531h5.261v-2.531h-5.261zm14.782-34.003c-.23 1.626-.806 3.343-1.725 5.156-.518-.563-1.064-1.063-1.639-1.5.805-1.5 1.322-2.968 1.553-4.406.229-1.374.345-3.563.345-6.563v-7.219h8.97c-.058-.249-.202-.656-.431-1.219-.173-.563-.317-.969-.432-1.219l2.329-.281c.057.126.114.281.172.469l.604 2.25h7.676v1.875h-16.991v5.25c.001 3.314-.144 5.782-.431 7.407zm-2.415 21.815v-1.969h5.865c.46-.999.833-2.03 1.121-3.094l2.156.281c-.172.438-.402 1.063-.689 1.875-.173.438-.288.75-.345.938h11.815v1.969h-12.679c-.633 1.5-1.552 3.188-2.76 5.063v12.281h-1.983v-9.75c-.748.813-1.582 1.688-2.502 2.625-.288-.687-.604-1.406-.948-2.156 2.588-2.499 4.571-5.187 5.951-8.063h-5.002zm9.747 39.249c-2.415 1.188-5.751 2.22-10.005 3.094-.059-.312-.231-.78-.518-1.406-.059-.312-.116-.53-.173-.656 3.622-.563 6.497-1.313 8.625-2.25-1.38-.938-2.617-2.156-3.709-3.656-.92 1.125-1.983 2.188-3.191 3.188-.402-.624-.776-1.187-1.121-1.688 2.415-1.937 4.398-4.249 5.951-6.938l2.156.375c-.402.688-.834 1.313-1.294 1.875h10.695v2.156c-1.668 2.001-3.422 3.563-5.261 4.688 1.781.813 4.455 1.406 8.021 1.781-.115.313-.288.75-.518 1.313l-.259.844c-3.965-.626-7.1-1.532-9.399-2.72zm-5.347-107.718c-.979 1.688-2.243 3.375-3.795 5.063-.461-.688-.862-1.313-1.208-1.875 2.127-2.25 3.766-4.843 4.916-7.781l2.156.375-1.034 2.25h13.713v1.969h-7.158v3.938h6.642v1.969h-6.642v4.594h8.021v2.063h-8.021v5.438h-2.07v-5.438h-10.694v-2.063h3.277v-6.563h7.417v-3.938h-5.52v-.001zm-5.089-24.249v-2.063h10.781v-.094c.345-2.438.546-6.437.604-12h2.07c-.059 6.126-.23 10.125-.518 12v.094h7.59v2.063h-8.021c-.058.375-.172.75-.345 1.125 1.092.625 2.788 1.657 5.089 3.094 1.264.75 2.213 1.28 2.846 1.594l-1.293 1.969c-1.208-.813-2.876-1.907-5.003-3.281-1.093-.75-1.927-1.313-2.501-1.688-1.323 2.063-4.657 3.844-10.005 5.344-.116-.25-.403-.782-.862-1.594-.173-.25-.289-.438-.346-.563 6.21-1.374 9.631-3.375 10.264-6h-10.35zm6.296-3.281c-1.841-1.5-3.565-2.75-5.175-3.75l1.121-1.688c.173.126.432.281.776.469 1.437.938 2.933 1.969 4.485 3.094l-1.207 1.875zm-3.451 147.435v-9.094h14.749v9.094h-1.983v-1.313h-10.781v1.313h-1.985zm1.985-73.907v-1.875h6.21v-9.188h1.897v9.188h6.21v1.875h-6.21v3.188h7.59v1.688h-16.991v-1.688h7.504v-3.188h-6.21zm3.968-78.309c-1.496-1.187-3.191-2.405-5.089-3.656l1.121-1.594c1.035.625 2.443 1.532 4.226 2.719.402.313.719.532.949.656l-1.207 1.875zm.516 74.653c-.115-.125-.259-.343-.431-.656-.69-.938-1.237-1.655-1.639-2.156-.518 1.125-1.18 2.188-1.984 3.188-.115-.125-.374-.375-.775-.75-.289-.188-.489-.343-.604-.469 1.495-1.688 2.502-3.656 3.019-5.906l1.726.281c-.058.188-.145.407-.259.656-.058.313-.202.75-.432 1.313.518.625 1.208 1.438 2.07 2.438-.23-.249-.029 0 .604.75l-1.295 1.311zm-4.484 70.344v4.219h10.781v-4.219h-10.781zm.344-106.78v4.594h5.434v-4.594h-5.434zm1.812 70.438v-1.969h5.261v-4.406h1.984v4.406h5.261v1.969h-5.261v6.188h6.382v1.875h-14.662v-1.875h6.296v-6.188h-5.261zm3.45 29.124c1.667-.874 3.306-2.156 4.916-3.844h-9.315c1.495 1.751 2.961 3.032 4.399 3.844zm8.452-62.939c-.748-1.063-1.524-2.094-2.329-3.094-.518 1.063-1.179 2.063-1.983 3-.461-.5-.921-.938-1.38-1.313 1.437-1.5 2.443-3.343 3.019-5.531l1.725.281c-.058.25-.172.625-.345 1.125l-.259.844c1.38 1.5 2.329 2.594 2.847 3.281l-1.295 1.407zm4.078 63.876v-2.063h2.847v-3.469l-2.501.094c-.059-.75-.145-1.406-.259-1.969 2.471-.062 4.857-.188 7.158-.375l.259 1.875-2.76.281v3.563h2.76v2.063h-2.76v2.813l.689-.75 1.38 1.5c.574.626 1.006 1.125 1.294 1.5l-1.38 1.406c-.288-.375-.689-.905-1.207-1.594-.346-.437-.604-.78-.776-1.031v9.656h-1.897v-9.656c-.576 1.875-1.41 3.72-2.501 5.531l-.518-1.406c-.173-.375-.289-.656-.346-.844 1.322-1.937 2.415-4.313 3.277-7.125h-2.759zm2.501-32.123c-.115-.062-.258-.218-.431-.469-1.093-.999-1.927-1.781-2.501-2.344l1.207-1.5c1.149.938 2.156 1.875 3.019 2.813l-1.294 1.5zm-2.155-28.378v-1.781h8.624c.057-.188.087-.437.087-.75.057-.313.086-.563.086-.75h2.07c0 .501-.059 1-.173 1.5h8.884v1.781h-8.366c.978 2.188 3.938 3.437 8.884 3.75-.173.312-.375.75-.604 1.313-.173.312-.288.563-.345.75-4.946-.75-8.052-2.25-9.315-4.5-1.035 2.187-4.198 3.812-9.487 4.875-.059-.188-.202-.532-.432-1.031l-.518-1.125c5.175-.563 8.107-1.906 8.798-4.031h-8.193zm18.802-28.935c-5.002-2-8.279-5.344-9.832-10.031h-3.882v7.875c1.954-.938 3.68-1.719 5.176-2.344v2.344c-1.438.437-3.049 1.125-4.83 2.063-.69.249-1.324.563-1.897.938l-1.208-1.875c.518-.501.747-1.125.69-1.875v-7.125h-3.45v-2.063h3.45v-9.281h2.069v9.281h14.835v2.063h-8.884c1.495 3.876 4.514 6.563 9.057 8.063l-1.294 1.967zm-18.544 17.216v-1.688h5.521c-.173-.313-.518-.781-1.035-1.406-.461-.563-.776-.969-.948-1.219l1.983-.563c.057.126.201.281.432.469.862 1.063 1.437 1.813 1.725 2.25l-1.294.469h4.916c1.092-1.438 1.84-2.499 2.243-3.188l2.069.656c-.172.25-.489.688-.948 1.313-.461.563-.776.97-.949 1.219h5.348v1.688h-8.538v2.063h7.503v1.781h-7.503v2.063h9.056v1.688h-20.183v-1.688h9.057v-2.063h-7.331v-1.781h7.331v-2.063h-8.455zm3.191 43.191c-.748 3.126-1.38 5.906-1.897 8.344l-1.811-.656c.804-3.188 1.408-5.968 1.811-8.344.229.126.747.313 1.553.563-.634-.189-.518-.156.344.093zm-.862-9.282c-.92-1.062-1.812-1.999-2.674-2.813l1.294-1.406c.919.813 1.84 1.72 2.76 2.719l-1.38 1.5zm2.415-84.937c-1.841-.188-2.876-1.282-3.104-3.281.172-2.124 1.207-3.281 3.104-3.469 1.954.188 3.019 1.345 3.191 3.469-.172 2-1.237 3.094-3.191 3.281zm-1.121 86.25v-1.969h3.363c-.288-.812-.604-1.999-.948-3.563l1.897-.281c.057.375.2.938.431 1.688.229.876.402 1.594.518 2.156h-.086 2.156v1.969h-4.054l-.086 3.375h3.881c0 .876-.029 2.188-.086 3.938-.059 2.688-.116 4.626-.173 5.813 0 1.813-.806 2.719-2.415 2.719-.518.062-1.064.094-1.639.094l-.345-1.969h1.294c.977.062 1.437-.375 1.38-1.313 0-.375.028-.968.086-1.781.114-2.625.173-4.5.173-5.625h-2.243v.469c-.115 4.563-.979 8.156-2.587 10.781l-1.467-1.406c1.437-1.999 2.213-5.156 2.329-9.469.114-1.624.173-3.499.173-5.625h-1.552zm1.121-91.593c-1.093.126-1.696.813-1.812 2.063.115 1.063.719 1.655 1.812 1.781 1.149-.126 1.781-.718 1.897-1.781-.116-1.25-.747-1.937-1.897-2.063zm13.11 20.405c-3.105 1.875-6.585 3.625-10.437 5.25-.23-.5-.575-1.125-1.035-1.875 3.68-1.438 7.101-3.155 10.264-5.156l1.208 1.781zm-5.175 121.592v-7.5h-2.932v1.125h-1.812v-11.438h4.743v-4.5h1.812v4.5h4.744v11.438h-1.897v-1.125h-2.847v7.5h-1.811zm-2.932-15.843v6.375h2.932v-6.375h-2.932zm1.639-25.655v-1.875h3.536v-1.313l2.328-2.625h-4.829v-1.406l-.604.938c-.402-.437-.892-.905-1.466-1.406 1.38-2.063 2.472-4.468 3.277-7.219l1.983.281c-.345 1.001-.689 1.969-1.034 2.906h5.434v1.875h-6.21c-.346.75-.748 1.5-1.208 2.25h6.728v1.969l-2.587 3v.75h3.277v1.875h-3.277v4.594c.056 1.688-.748 2.531-2.415 2.531-.807.062-1.553.094-2.243.094 0-.188-.058-.438-.172-.75-.059-.563-.116-.97-.173-1.219h1.983c.863.062 1.265-.313 1.208-1.125v-4.125h-3.536zm5.951 25.655h-2.847v6.375h2.847v-6.375zm11.592 12.281l-1.984-3.469c-1.15 2.313-2.473 4.282-3.967 5.906-.059-.063-.145-.188-.259-.375-.345-.75-.634-1.249-.862-1.5 1.608-1.812 2.902-3.844 3.881-6.094l-3.45-5.906 1.467-1.031 2.846 4.594c.632-1.875 1.035-4.031 1.208-6.469h-5.434v-2.063h7.417v2.063c-.461 3.626-1.093 6.501-1.897 8.625l2.674 4.5-1.64 1.219zm-6.814-47.686v-1.875h2.501c.287-1.125.546-2.187.776-3.188l1.897.188c-.059.375-.202 1.001-.432 1.875-.172.501-.288.876-.345 1.125h4.398v1.875h-4.916c-.806 2.876-1.41 4.875-1.812 6h2.502v-4.594h1.639v4.594h2.328v1.875h-2.328v3l2.587-.375c-.058.75-.086 1.406-.086 1.969l-2.501.281v4.594h-1.897v-4.406c-1.553.188-2.991.375-4.313.563l-.173-2.063c.401 0 1.063-.062 1.983-.188 1.092-.062 1.926-.124 2.502-.188v-3.188h-3.968v-1.875l.259-.844c.459-1.5.919-3.218 1.38-5.156h-1.981zm-.087-103.218v-1.781h9.487l-.517-1.969 2.242-.188.518 2.156h9.056v1.781h-20.786zm.087 67.434v-2.063h20.613v2.063h-20.613zm.345-34.654v-1.688h20.183v1.688h-9.833l-.604 1.5h8.366v9.469h-10.178l-1.294 1.406h11.299v1.781c-1.38 1.125-2.875 2.063-4.484 2.813 1.897.312 4.168.563 6.813.75-.288.687-.518 1.313-.69 1.875-4.025-.501-6.957-1.095-8.797-1.781-2.358.874-5.578 1.594-9.66 2.156-.116-.313-.316-.75-.604-1.313-.059-.251-.116-.407-.173-.469 2.588-.313 5.231-.72 7.936-1.219-1.035-.5-2.329-1.313-3.882-2.438-1.035.813-2.214 1.594-3.536 2.344-.173-.188-.432-.53-.776-1.031-.172-.249-.288-.406-.345-.469 2.242-1.063 4.227-2.531 5.951-4.406h-3.45v-9.469h5.434l.432-1.5h-8.108zm.689-14.405v-10.594h18.631v7.781c.057 1.749-.776 2.656-2.502 2.719h-3.019c-.058-.188-.145-.532-.259-1.031-.058-.375-.116-.656-.173-.844h2.415c1.092.062 1.609-.344 1.553-1.219v-5.719h-14.749v8.906h-1.897zm.173 68.184v-16.875h7.935v13.781c.057 1.875-.775 2.78-2.501 2.719-.689.062-1.409.094-2.156.094 0-.188-.058-.532-.172-1.031-.059-.438-.116-.782-.173-1.031h.776c.574.062.977.094 1.207.094.862 0 1.265-.375 1.208-1.125v-11.531h-4.313v14.906h-1.811zm4.313-6.469c-.748-1.875-1.524-3.624-2.329-5.25l1.381-.656c.056.063.114.156.172.281.978 1.938 1.754 3.563 2.329 4.875l-1.553.75zm-2.242-73.809v-4.781h14.145v4.781h-14.145zm1.293 29.405v1.406h11.902v-1.406h-11.902zm0 2.625v1.406h11.902v-1.406h-11.902zm0 2.531v1.5h11.902v-1.5h-11.902zm.604-37.842v1.781h10.264v-1.781h-10.264zm.431 12.844v-4.781h9.488v4.781h-9.488zm8.28 129.904c-.634 3.375-2.76 6.313-6.383 8.813-.461-.563-.948-1.188-1.466-1.875 3.909-2.25 6.065-5.374 6.469-9.375.173-1.313.259-2.78.259-4.406h1.983c0 .313-.029.782-.086 1.406v1.313c.747 4.875 2.816 8.407 6.21 10.594-.116.249-.345.594-.69 1.031-.288.437-.517.75-.689.938-2.933-2.19-4.802-5.001-5.607-8.439zm-2.76-96.749c1.609-.688 3.104-1.438 4.484-2.25h-8.797c1.264.937 2.703 1.687 4.313 2.25zm-3.709-36.53v2.063h5.779v-2.063h-5.779zm13.541 93.093c-.23.375-.575 1.063-1.035 2.063-2.357-1.812-4.169-3.968-5.434-6.469-1.38 2.376-3.277 4.563-5.692 6.563-.116-.249-.374-.718-.776-1.406-.172-.188-.288-.343-.345-.469 2.875-2.124 4.916-4.718 6.124-7.781l2.069.281-.431.938c1.381 2.75 3.22 4.843 5.52 6.28zm-2.242 36.248l-1.553-.563c-.172-.062-.288-.094-.345-.094l1.553-3.75h-7.073c-.23.75-.633 1.813-1.207 3.188-.288.688-.489 1.219-.604 1.594-.69-.499-1.294-.874-1.812-1.125 1.265-2.687 2.299-5.655 3.105-8.906l1.983.375c-.23 1.001-.518 1.969-.862 2.906h8.452v2.063l-1.637 4.312zm-5.434-21.904c-2.014 0-3.019-1.063-3.019-3.188v-9.563h1.897v4.125c1.839-1.062 3.593-2.344 5.261-3.844l1.208 1.688c-2.128 1.688-4.284 3.157-6.469 4.406v2.719c-.059 1.125.518 1.655 1.725 1.594h1.983c1.15 0 1.782-.53 1.897-1.594.173-.999.287-2.063.346-3.188.689.251 1.322.469 1.897.656-.173 1.563-.375 2.782-.604 3.656-.23 1.688-1.324 2.531-3.278 2.531h-2.844zm-1.984-33.347v-16.875h8.194v13.969c.057 1.749-.748 2.593-2.415 2.531-.461.062-1.237.094-2.329.094 0-.188-.058-.469-.172-.844-.059-.501-.116-.876-.173-1.125.46.062 1.149.094 2.07.094.862 0 1.264-.345 1.207-1.031v-11.719h-4.571v14.906h-1.811zm4.571-6.562c-.633-1.625-1.438-3.437-2.415-5.438l1.467-.656c.805 1.626 1.609 3.375 2.415 5.25l-1.467.844zm7.194-78.216v-1.875h2.76c0-.062.028-.188.087-.375.172-1.374.287-2.468.345-3.281l1.897.188c-.173 1.188-.345 2.344-.518 3.469h3.45v1.875h-3.881c-.634 3.188-1.87 6.469-3.709 9.844-.173-.563-.432-1.343-.776-2.344 1.207-2.25 2.099-4.749 2.674-7.5h-2.329zm6.383 144.904c-1.726 2.625-3.394 4.845-5.003 6.656-.23-.25-.72-.688-1.466-1.313l-.173-.188c1.495-1.5 3.134-3.593 4.916-6.281l1.726 1.126zm-4.831-112.968v-2.063h17.25v2.063h-7.763c-.115 1.813-.259 3.469-.431 4.969h9.746v2.063h-10.177c-.862 5.001-3.825 8.938-8.884 11.813l-1.466-1.781c4.714-2.687 7.445-6.031 8.193-10.031h-8.021v-2.063h8.453c.172-1.5.315-3.155.431-4.969h-7.331zm-1.638 85.532v-2.063h8.107v-18.75h2.242v6.75h8.539v2.25h-8.539v9.75h10.178v2.063h-20.527zm2.845-102.937c-.575.125-1.121.218-1.639.281l-.689-1.406c.518-.437.919-1.031 1.207-1.781 1.092-2.375 2.127-5.25 3.105-8.625l1.725.563c-1.323 3.876-2.501 7-3.536 9.375.46-.062 1.208-.125 2.242-.188.518-.062.892-.094 1.122-.094-.346-1.187-.72-2.438-1.122-3.75l1.467-.469c.287.876.66 2.032 1.121 3.469.401 1.375.746 2.438 1.035 3.188l-1.553.563-.432-1.594c-.461.062-1.121.155-1.983.281-.862.061-1.552.124-2.07.187zm-2.242 69.966v-18.375h2.329c.057-.249.143-.594.259-1.031.229-.688.431-1.594.604-2.719l2.156.375c-.288 1.125-.604 2.25-.949 3.375h3.882v18.188h-1.897v-1.781h-4.399v1.969h-1.985zm.691 57.97l1.121-10.313c4.714 0 9.976-.281 15.783-.844l.604 2.063c-5.809.501-10.639.782-14.49.844l-.776 6.281h5.951v-4.781h2.156v4.781h7.936v1.969h-7.936v6.75c.114 2.124-.834 3.188-2.846 3.188-.576.062-1.553.094-2.933.094l-.432-2.344c.747.062 1.639.094 2.674.094.977.062 1.437-.437 1.38-1.5v-6.281h-8.192zm1.293-74.283v5.156h4.399v-5.156h-4.399zm0 7.219v5.344h4.399v-5.344h-4.399zm6.727-58.622v-14.063c-.46.813-.948 1.594-1.466 2.344-.173-.687-.461-1.406-.862-2.156 1.781-2.312 3.104-5.156 3.968-8.531l1.897.375c-.403 1.313-.835 2.531-1.294 3.656h3.881c-.461-1.187-.948-2.312-1.466-3.375l1.725-.469c.229.501.518 1.157.862 1.969.287.563.488 1 .604 1.313l-1.64.563h4.83v1.781h-3.967v3.188h3.622v1.781h-3.622v3.281h3.622v1.688h-3.622v3.375h4.14v1.594h-9.401v1.688h-1.811zm6.556 67.528h-3.623c-.058-.688-.202-1.438-.431-2.25.746.062 1.867.094 3.363.094 1.609.124 2.415-.656 2.415-2.344.114-1.374.201-4.313.259-8.813.057-1.313.086-2.25.086-2.813h-5.175c-.23.563-.604 1.375-1.121 2.438l-.518 1.125c-.518-.375-1.093-.75-1.725-1.125 1.38-2.687 2.443-5.438 3.191-8.25l1.983.469c-.116.375-.288.906-.518 1.594l-.518 1.688h6.383c0 4-.116 8.688-.345 14.063.003 2.686-1.234 4.061-3.706 4.124zm-2.243-34.279c-2.186.062-3.249-1.031-3.19-3.281v-7.5h2.069v7.031c-.115 1.251.488 1.843 1.812 1.781h2.07c1.207 0 1.839-.563 1.897-1.688.057-.375.114-.999.172-1.875.057-.437.087-.75.087-.938l.776.281c.286.126.718.281 1.293.469-.172 1.5-.316 2.594-.431 3.281-.289 1.688-1.41 2.499-3.364 2.438h-3.191zm.604 27.811l-1.294-1.969c-.806-1.313-1.438-2.312-1.897-3l1.553-1.125c.401.625 1.005 1.5 1.811 2.625.69.938 1.208 1.688 1.553 2.25l-1.726 1.219zm-3.105-77.653v3.188h3.536v-3.188h-3.536zm0 4.968v3.281h3.536v-3.281h-3.536zm0 4.969v3.375h3.536v-3.375h-3.536zm7.762 141.342c-1.897-2.499-3.565-4.655-5.003-6.469l1.639-1.219c.402.501.978 1.251 1.726 2.25 1.609 1.938 2.76 3.313 3.45 4.125l-1.812 1.313zm24.434-110.906c-.116.25-.259.719-.432 1.406-4.083-.75-7.245-1.781-9.487-3.094-2.301 1.375-5.636 2.594-10.005 3.656-.058-.313-.23-.812-.518-1.5-.116-.313-.202-.563-.259-.75 3.45-.624 6.411-1.5 8.884-2.625-1.38-1.063-2.617-2.344-3.709-3.844-.979 1.125-2.07 2.188-3.277 3.188-.173-.188-.403-.5-.69-.938-.172-.375-.316-.624-.431-.75 2.644-2.063 4.657-4.406 6.037-7.031l2.156.469c-.402.563-.776 1.125-1.121 1.688h10.264v1.969c-1.553 2.125-3.307 3.876-5.261 5.25 2.126 1.063 4.83 1.75 8.107 2.063l-.258.843zm-19.061 71.189c-.345 0-.604.032-.776.094l-.518-1.781c.345-.312.776-.844 1.294-1.594.345-.437.862-1.28 1.553-2.531.172-.312.287-.53.345-.656-1.093 0-2.128.063-3.104.188l-.432-1.875c.345-.375.66-.874.948-1.5.863-1.624 1.726-3.499 2.588-5.625l1.897.75c-1.093 2.25-2.186 4.345-3.277 6.281l2.415-.094 1.207-2.438 1.726.844c-1.61 3-3.135 5.657-4.571 7.969 1.38-.124 2.587-.249 3.622-.375 0 .251-.029.595-.086 1.031v.844c-1.955.126-3.336.251-4.14.375-.174-.001-.404.031-.691.093zm5.002 4.218c-2.301.188-4.429.5-6.383.938l-.259-1.875 6.728-1.031c-.057.501-.086 1.157-.086 1.968zm-3.364-42.627c-1.035-.999-2.1-1.969-3.191-2.906l1.208-1.594c1.207.938 2.328 1.875 3.363 2.813l-1.38 1.687zm-2.932-73.716v-2.063h9.487c-.115-.249-.288-.656-.518-1.219-.288-.75-.517-1.28-.689-1.594l2.242-.469c.46 1 .891 2.063 1.294 3.188l-.259.094h8.798v2.063h-9.143v3.281h7.676v8.156c.057 2.063-.892 3.062-2.846 3h-1.208c-.689.062-1.207.094-1.553.094-.115-.624-.258-1.313-.431-2.063.862.063 1.695.094 2.501.094 1.035.063 1.523-.5 1.467-1.688v-5.531h-5.606v11.813h-2.07v-11.813h-5.52v9.469h-2.07v-11.531h7.59v-3.281h-9.142zm4.053 76.903c-.806 3.063-1.466 5.78-1.983 8.156l-1.983-.656c.632-2.312 1.321-5.063 2.069-8.25.287.063.719.25 1.294.563.287.062.488.126.603.187zm-.517-9.375c-.288-.249-.72-.656-1.293-1.219-.807-.812-1.438-1.406-1.898-1.781l1.208-1.5c.978.75 2.099 1.72 3.363 2.906l-1.38 1.594zm12.507-16.373c-4.429-1.001-9.028-1.907-13.8-2.719l.775-2.063c.287.063.747.156 1.381.281 5.347 1.063 9.457 1.812 12.333 2.25l-.689 2.251zm-10.178 97.874c0 2.188-.748 3.812-2.242 4.875l-.776-.844c1.035-.813 1.58-2.031 1.639-3.656h-1.467v-3.094h2.847l-.001 2.719zm.948-79.813c-.23.313-.633.782-1.207 1.406l-.173-.188c-.402-.624-.776-1.093-1.121-1.406 1.84-1.813 3.248-3.969 4.227-6.469l2.07.281c-.289.688-.604 1.313-.949 1.875h10.522v1.781h-11.471c-.403.75-.863 1.438-1.381 2.063h11.472c-.058.438-.086 1.375-.086 2.813-.059 1.188-.087 2.125-.087 2.813h1.984v1.781h-1.984c0 .501-.029 1.219-.086 2.156v1.781h1.553v1.781h-1.639c-.116 2.25-1.266 3.343-3.45 3.281h-3.105l-.259-.844c-.115-.438-.202-.75-.259-.938h3.02c1.38.062 2.098-.438 2.156-1.5h-10.781l.604-5.719h-1.897v-1.781h2.07l.517-5.344c-.059.064-.145.189-.26.377zm7.85-23.405c-2.761-.75-5.981-1.438-9.66-2.063l.689-1.969c2.816.501 6.038 1.157 9.66 1.969l-.689 2.063zm-4.141-8.906c1.782-1.125 3.306-2.499 4.571-4.125h-8.884c1.265 1.688 2.703 3.063 4.313 4.125zm-3.191 81.407v-20.625h1.812v18.75h11.299v1.875h-13.111zm9.315-38.409c.057-.75.086-2.063.086-3.938h-8.538l-.346 3.938h8.798zm-7.763-9.656l-.431 3.938h8.366v-3.938h-7.935zm1.121 36.346v-1.875h3.968v-7.875h1.812v7.875h4.226v1.875h-4.226v2.063l.689-.656c.574.563 1.351 1.406 2.329 2.531l1.207 1.313-1.293 1.313c-.576-.687-1.323-1.562-2.243-2.625.229.251 0-.03-.689-.844v6.094h-1.812v-6.656c-.806 1.751-1.927 3.407-3.363 4.969-.116-.375-.346-.905-.69-1.594l-.259-.563c1.553-1.374 2.903-3.155 4.054-5.344h-3.71zm1.639-3.093c-.345-1.125-.862-2.531-1.552-4.219l1.466-.563c.401.876.949 2.282 1.639 4.219l-1.553.563zm1.553-23.784c-.288-.249-.689-.624-1.207-1.125-.576-.437-1.007-.781-1.294-1.031l.948-1.125c.69.501 1.553 1.188 2.588 2.063l-1.035 1.218zm.173-5.813c-.345-.375-.893-.844-1.639-1.406-.346-.313-.634-.563-.862-.75l1.034-1.125c.518.375 1.265.938 2.243 1.688-.116-.125 0-.031.345.281l-1.121 1.312zm6.468 25.284c-.518 1.313-1.151 2.751-1.897 4.313l-1.467-.656c.115-.188.259-.53.432-1.031.689-1.437 1.178-2.499 1.466-3.188l1.466.562zm5.641-25.284c-.289-.313-.69-.812-1.208-1.5-.748-.875-1.323-1.562-1.725-2.063l1.553-1.125c1.035 1.063 2.069 2.219 3.104 3.469l-1.724 1.219zm.69 31.847c-1.093.063-2.128.157-3.104.281l-.518-1.969c.287-.249.632-.75 1.035-1.5.919-1.437 1.867-3.405 2.846-5.906l1.897.563c-1.207 2.625-2.387 4.875-3.536 6.75l2.329-.094c.459-.874.891-1.718 1.294-2.531l1.639.75c-1.61 3.063-3.105 5.751-4.485 8.063.518-.062 1.38-.124 2.588-.188-.289 0 .028-.03.948-.094v.844c-.058.438-.086.75-.086.938-.862.126-1.928.22-3.191.281-.345.063-.604.094-.776.094-.575.063-1.093.157-1.553.281l-.604-1.781c.518-.375.978-.905 1.38-1.594l1.035-1.688c.344-.687.631-1.187.862-1.5zm3.019 10.687c-2.07.188-4.17.5-6.297.938l-.345-1.969c1.667-.188 3.881-.499 6.642-.938v1.969zm2.846 31.748v-9.188l-4.657 1.219v7.875c-.059 1.626.689 2.405 2.242 2.344h9.057c1.494 0 2.299-.563 2.415-1.688.172-.999.315-2.063.431-3.188.346.126.833.281 1.467.469.287.063.487.126.604.188-.173 1.313-.375 2.531-.604 3.656-.23 1.688-1.524 2.499-3.882 2.438h-10.177c-2.415.062-3.595-1.125-3.537-3.563v-7.969l-2.587.656-.259-2.063 2.846-.75v-5.25h1.984v4.781l4.657-1.219v-6.188h2.07v5.625l7.417-1.875c-.058 1.251-.144 3.032-.259 5.344-.058 1.125-.086 1.938-.086 2.438-.058 2.501-1.093 3.72-3.104 3.656-.518.063-1.324.094-2.415.094-.059-.437-.173-1.031-.346-1.781-.058-.188-.086-.312-.086-.375h2.242c1.208.126 1.782-.499 1.726-1.875.057-.563.114-1.53.172-2.906.057-.938.087-1.624.087-2.063l-5.348 1.406v9.75h-2.07zm-9.229-150.341v-1.875h20.441v1.875h-9.487l-.949 2.906h9.315v16.406h-1.897v-1.5h-14.404v1.406h-1.983v-16.312h6.813l.776-2.906h-8.625zm3.278 81.872c-.461 2.438-.806 4.219-1.035 5.344l-2.069-.656c.689-2.563 1.321-5.438 1.897-8.625.286.126.718.281 1.293.469.287.063.488.126.604.188-.116.623-.346 1.718-.69 3.28zm0-11.907c-.921-1.25-1.869-2.438-2.847-3.563l1.64-1.125c.229.25.546.625.948 1.125.862.938 1.523 1.72 1.983 2.344l-1.724 1.219zm2.673-20.779c0 2.187-.748 3.812-2.242 4.875l-.776-.844c1.035-.813 1.58-2.032 1.639-3.656h-1.467v-3.094h2.847l-.001 2.719zm-2.932-44.405v11.344h3.105v-11.344h-3.105zm2.674 64.434v-1.781h2.76v-2.531h1.812v2.531h4.14v-2.531h1.897v2.531h3.278v1.781h-3.278v2.813h4.054v1.781h-4.398c1.149 1.938 2.73 3.438 4.744 4.5l-.259.563c-.173.25-.403.688-.69 1.313-1.38-.938-2.501-1.906-3.363-2.906v4.969h-7.504v1.219c-.059 1 .401 1.468 1.38 1.406h5.52c.978 0 1.581-.375 1.812-1.125.173-.5.287-1.25.345-2.25.173.063.402.156.69.281l1.035.281c-.116.938-.289 1.781-.518 2.531-.288 1.437-1.294 2.124-3.019 2.063h-6.556c-1.668 0-2.501-.876-2.501-2.625v-5.25c-.689.688-1.438 1.313-2.242 1.875-.23-.624-.518-1.25-.862-1.875 2.069-1.313 3.679-2.968 4.83-4.969h-4.055v-1.781h3.709v-2.813h-2.761zm1.294 46.378v-1.781h6.296c.229-.999.345-2.968.345-5.906h1.984c-.116 2.876-.23 4.845-.345 5.906h5.261v1.781h-5.606l-.259.563c.632.313 1.523.813 2.674 1.5 1.322.75 2.357 1.313 3.105 1.688l-1.121 1.781c-2.128-1.438-3.997-2.531-5.606-3.281-1.035 1.187-3.249 2.375-6.642 3.563-.23-.563-.575-1.219-1.035-1.969 3.91-.938 6.181-2.218 6.814-3.844h-5.865zm3.622-2.437l-.862-.469c-.575-.375-1.466-.844-2.674-1.406l.69-1.219c.574.251 1.38.656 2.415 1.219.459.251.833.438 1.121.563l-.69 1.312zm-2.674-10.125v-1.781h4.83v-2.344h1.984v2.344h4.916v1.781h-4.916v2.156h5.605v1.781l-.604 3.188c-.575-.188-1.179-.281-1.812-.281l.604-2.906h-11.386v-1.781h5.606v-2.156h-4.827zm.087-98.25v2.719h4.398v-2.719h-4.398zm0 4.313v2.719h4.398v-2.719h-4.398zm0 4.406v2.625h4.398v-2.625h-4.398zm3.967 97.031c-1.265-.75-2.415-1.343-3.449-1.781l.604-1.219c1.149.501 2.299 1.063 3.45 1.688l-.605 1.312zm-3.105-32.409v2.531h5.692v-2.531h-5.692zm1.897-4.313c-.518.938-1.093 1.813-1.726 2.625h6.642c-.575-.812-1.121-1.688-1.639-2.625h-3.277zm-.517-4.594v2.813h4.14v-2.813h-4.14zm7.159-64.434h-3.191v11.344h3.191v-11.344zM37.013 15.57c-.945 1.406-2.035 2.695-3.27 3.867-.218-.234-.545-.546-.98-.938l-.763-.82c2.106-1.796 3.741-4.022 4.904-6.68l2.507.234c-.292.782-.654 1.523-1.09 2.227h7.193v2.109h-5.013c.654.782 1.308 1.603 1.961 2.461l-2.18.82c-.291-.469-.8-1.172-1.525-2.109-.365-.469-.618-.82-.763-1.055l.109-.117h-1.09v.001zm9.482 10.782v2.578h10.79c0 1.875-.073 3.438-.218 4.688-.073 2.344-1.381 3.516-3.923 3.516h-3.706v-.352c-.073-.469-.218-1.093-.436-1.875 1.09.079 2.325.117 3.706.117 1.162.079 1.815-.469 1.962-1.641v-.938c.071-.624.109-1.055.109-1.289h-8.283v8.203h-2.507v-7.266c-2.397 2.892-5.958 5.116-10.68 6.68-.146-.234-.4-.665-.763-1.289-.218-.469-.4-.82-.545-1.055 4.504-1.172 7.81-2.93 9.917-5.273h-8.064l1.09-7.031h9.045v-2.695h-9.373v-2.227h21.361v7.148h-9.482zm-9.372 0l-.436 2.578h7.302v-2.578h-6.866zm11.77-10.782c-.727 1.017-1.526 2.071-2.397 3.164-.509-.546-1.127-1.055-1.853-1.523 1.671-1.875 2.943-3.944 3.814-6.211l2.616.234c-.291.782-.618 1.523-.981 2.227h8.065v2.109h-5.667l2.071 2.461-2.071.82-.436-.469c-.945-1.172-1.635-2.069-2.071-2.695l.218-.117h-1.308zm4.686 5.86h-7.084v2.695h7.084v-2.695zm8.263 14.648v-2.695h25.394v2.695h-25.394zm1.962-18.281v-2.93h21.47v2.93h-21.47zm28.633-2.227v-2.578h22.777v2.578h-10.026c0 1.641-.073 3.867-.218 6.68h11.771v2.695h-11.226c1.234 5.625 5.049 9.298 11.443 11.016-.073.155-.218.39-.437.703l-1.09 2.109c-6.467-2.267-10.354-6.015-11.661-11.25-1.09 4.845-4.833 8.71-11.225 11.602-.146-.234-.436-.665-.872-1.289-.364-.548-.654-.978-.872-1.289 6.757-2.655 10.462-6.522 11.116-11.602h-11.006v-2.695h11.334c.071-.703.108-1.835.108-3.398.072-1.406.109-2.499.109-3.281h-10.025zM142.065 36.547h-1.744c.727-4.739 2.543-9.401 5.449-13.984h-7.483v-1.563h9.445v1.094c-3.149 4.687-5.038 9.505-5.667 14.453zm11.409-4.531h9.082v2.422c.048 1.042-.461 1.536-1.525 1.484-1.163 0-2.083-.026-2.761-.078.145.729.29 1.38.436 1.953 1.259 0 2.203-.026 2.834-.078 1.889 0 2.809-.99 2.761-2.969v-14.453h-12.279v6.719c0 2.708-.17 4.714-.509 6.016s-1.042 2.526-2.106 3.672c.678.625 1.187 1.119 1.525 1.484 1.452-1.98 2.299-4.037 2.542-6.172zm.291-5h8.791v3.359h-8.937c.097-.938.146-2.005.146-3.203v-.156zm8.791-5v3.281h-8.791v-3.281h8.791zm14.971 10.234c-.146 2.864-1.743 4.375-4.795 4.531-2.714 0-4.359-1.38-4.94-4.141l1.671-.469c.29 2.136 1.331 3.203 3.124 3.203 2.18 0 3.27-1.094 3.27-3.281-.146-1.875-1.26-2.864-3.342-2.969h-1.309v-1.406h.727c2.082-.052 3.172-1.042 3.27-2.969-.098-1.667-.92-2.526-2.47-2.578-1.647.052-2.641 1.042-2.979 2.969l-1.598-.547c.581-2.552 2.082-3.854 4.504-3.906 2.762.104 4.189 1.458 4.287 4.063-.049 1.719-.872 2.891-2.471 3.516 1.937.625 2.953 1.953 3.051 3.984zm6.895-8.281c-1.066 1.042-2.351 1.875-3.852 2.5v-1.641c2.228-1.094 3.657-2.474 4.287-4.141h1.09v15.859h-1.525v-12.577zm9.74 13.984v-1.328h9.591v1.328h1.743v-17.344h-13.15v17.344h1.816zm9.59-15.625v5.391h-9.591v-5.391h9.591zm0 7.11v5.547h-9.591v-5.547h9.591z"/></svg>