<svg xmlns="http://www.w3.org/2000/svg" width="640" height="750" viewBox="0 0 640 750"><path fill="#12B4B1" d="M89 717"/><path fill="#9DDFFE" d="M89 501h316c2.761 0 5 2.237 5 5v91c0 2.761-2.239 5-5 5h-316c-2.76 0-5-2.239-5-5v-91c0-2.763 2.24-5 5-5z"/><path fill="#12B4B1" d="M89 601c-2.206 0-4-1.794-4-4v-91c0-2.206 1.794-4 4-4h316c2.206 0 4 1.794 4 4v91c0 2.206-1.794 4-4 4h-316"/><path fill="#41C4BA" d="M89 502c-1.854 0-3.403 1.273-3.854 2.988l-.146.012v93l.146.012c.452 1.715 2 2.988 3.854 2.988h32.654l97.346-99h-130z"/><path fill="#36C6C2" d="M141 502h263c2.206 0 4 1.794 4 4v53l-267-57z"/><path fill="#9EFFFD" d="M321.627 572.938h-2.844v4.979h-2.031v-4.979h-9.344v-1.219l9.75-14.422h1.625v13.813h2.844v1.828zm-5.281-11.376c-1.084 1.423-3.25 4.604-6.5 9.548h6.906v-10.461c0 .065-.068.2-.203.403-.069.206-.137.376-.203.51zm9.42 16.454v-20.211h6.808v18.688h-4.979v1.521l-1.829.002zm1.828-18.485v6.602h3.354v-6.602h-3.354zm0 15.133h3.354v-6.703h-3.354v6.703zm7.008-3.656v-7.516c-.271-.338-.574-.646-.914-.914 2.304-2.166 3.963-4.469 4.979-6.906l2.031.305c-.406.681-.779 1.392-1.117 2.136h6.297v1.727l-2.539 3.354h4.772v7.817h-6.702c-.813 3.589-3.453 6.604-7.923 9.039-.608-.812-1.053-1.389-1.319-1.727 4.129-2.031 6.603-4.472 7.414-7.313l-4.979-.002zm3.859-11.172c-.812 1.219-1.693 2.336-2.641 3.352h5.383l2.539-3.352h-5.281zm1.625 9.039c.271-1.083.406-2.438.406-4.062h-4.062v4.471h3.557l.099-.409zm3.859 10.563c-1.896.066-2.812-.776-2.742-2.536v-5.078h1.828v4.771c-.068.744.371 1.117 1.318 1.117h1.625c.946.066 1.487-.34 1.625-1.219.065-.271.137-.778.202-1.523.066-.474.104-.812.104-1.016.473.203 1.016.406 1.625.607v.202c-.139 1.151-.271 1.933-.406 2.336-.271 1.625-1.219 2.402-2.844 2.337l-2.335.002zm-1.625-14.626c-.139 1.826-.271 3.25-.406 4.267-.068.067-.102.136-.102.203h4.469v-4.47h-3.961zm17.453-.406c-1.49 0-2.847.508-4.063 1.521l.608-6.192h8.732v-2.031h-10.46l-1.219 10.664 1.523.305c.879-1.422 2.367-2.166 4.469-2.234 2.844.139 4.332 1.764 4.469 4.875-.137 3.318-1.66 5.048-4.57 5.183-2.572-.067-4.062-1.523-4.469-4.367l-2.234.609c.744 3.653 3.049 5.481 6.906 5.481 4.268-.137 6.465-2.505 6.604-7.106-.27-4.27-2.37-6.505-6.296-6.708zm10.952-5.179v-2.028h21.328v2.028h-9.646c0 2.709-.035 4.74-.104 6.097h11.07v2.028h-10.664c1.15 5.217 4.773 8.603 10.867 10.156-.271.338-.576.777-.914 1.32-.203.338-.34.574-.406.711-6.094-2.031-9.75-5.484-10.969-10.359-.881 4.537-4.438 8.09-10.664 10.664-.543-.812-1.016-1.422-1.422-1.828 6.432-2.569 9.986-6.127 10.664-10.664h-10.563v-2.028h10.769c.135-2.369.203-4.4.203-6.097h-9.549z"/><path fill="#fff" d="M109.064 545.776v-12.376c-.392.078-.978.271-1.758.584l-1.055.351c-.158-.389-.431-.973-.821-1.752-.234-.543-.431-.972-.586-1.284 4.532-1.011 8.089-2.411 10.668-4.203h-9.73v-2.685h11.724v-2.335h-5.51c-1.407 0-2.696.04-3.869.116-.079-1.014-.234-1.906-.469-2.688 7.893 0 15.357-.23 22.392-.7l.469 2.805c-3.048.077-6.292.192-9.73.351v2.452h11.724v2.685h-9.848c2.579 1.792 6.096 3.114 10.551 3.973-.079.23-.234.546-.469.935-.158.39-.431 1.051-.821 1.984-.469-.076-1.055-.233-1.758-.47-.392-.152-.704-.271-.938-.351v12.609h-3.4v-1.168h-13.481v1.168h-3.285v-.001zm.821 22.673c0 5.604 1.953 10.741 5.861 15.411h-3.751c-3.83-4.518-5.785-9.69-5.861-15.528.234-6.07 2.187-11.324 5.861-15.761h3.751c-3.751 4.825-5.705 10.119-5.861 15.878zm7.62-36.566v-3.269c-1.799 1.558-4.104 2.958-6.917 4.202h17.468c-2.971-1.092-5.393-2.528-7.269-4.319v3.386h-3.282zm-5.158 3.503v2.335h13.481v-2.335h-13.481zm0 4.552v2.338h13.481v-2.338h-13.481zm5.984 18.237v-2.565h11.606v-1.751h3.634v1.751h11.724v2.565h-11.724v1.635h8.792v14.479h3.634v2.451h-17.585l1.407 2.219c-3.206 1.089-6.526 2.062-9.965 2.918-.469-1.167-.938-2.101-1.407-2.802.546-.156 1.328-.312 2.345-.467 3.359-.7 5.9-1.322 7.62-1.868h-10.785v-2.451h3.517v-14.479h8.792v-1.635h-11.605zm6.33 3.852v1.635h14.303v-1.635h-14.303zm0 3.503v1.635h14.303v-1.635h-14.303zm0 3.619v1.518h14.303v-1.518h-14.303zm0 3.503v1.635h14.303v-1.635h-14.303zm19.344 9.223c-2.893-.934-6.331-1.946-10.317-3.035l1.172-2.102c1.172.23 2.891.624 5.158 1.168 2.266.467 3.946.814 5.042 1.051l-1.055 2.918zm-5.634-49.408c-1.33-1.945-2.502-3.579-3.517-4.9l2.813-1.521c1.249 1.401 2.5 2.959 3.751 4.67l-3.047 1.751zm4.103 5.137c-.235.233-.431.394-.586.47-.392-.855-.665-1.559-.82-2.104-.392 1.562-.979 4.049-1.759 7.476-.234 1.011-.392 1.789-.469 2.335l-3.517-.938c.938-3.035 1.797-6.497 2.579-10.391.859.391 1.797.701 2.813.935l-.117-.468c2.656-1.479 4.728-3.307 6.213-5.487h-5.275v-2.802h4.807v-2.919h-3.634v-2.802h3.634v-2.919h3.165v2.919h5.041v-2.919h3.166v2.919h4.103v2.802h-4.103v2.919h5.158v2.802h-5.51c1.407 2.104 3.4 3.698 5.979 4.787l-1.407 3.035c-1.72-.934-3.165-1.944-4.337-3.035v5.604h-10.082v1.051c0 1.091.586 1.634 1.758 1.634h7.269c1.249 0 1.993-.467 2.228-1.397 0-.155.038-.392.117-.701 0-.233.117-.937.352-2.104.938.394 1.914.701 2.931.938-.234 1.479-.469 2.565-.703 3.269-.469 1.79-1.916 2.688-4.338 2.688h-9.027c-2.345 0-3.557-1.13-3.634-3.389v-5.721c-.471.386-1.136.89-1.995 1.513zm-3.4-12.959c-.392-.619-.978-1.518-1.758-2.686-.704-.934-1.251-1.673-1.642-2.219l2.931-1.521 3.634 4.67-3.165 1.756zm8.441 10.157v2.568h7.034v-2.568h-7.034zm.943 39.719v-2.688h11.254v-.233c.156-.389.234-.854.234-1.398h3.634v.701c-.079.39-.117.697-.117.934h11.724v2.688h-11.254c1.483 2.258 5.47 3.542 11.958 3.853-.234.389-.586 1.051-1.055 1.984-.234.544-.43.935-.586 1.168-6.254-.624-10.396-2.22-12.427-4.787-1.72 2.335-5.979 4.087-12.778 5.254-.392-1.091-.899-2.218-1.524-3.386 6.721-.392 10.551-1.751 11.489-4.086l-10.552-.004zm.234-14.594v-2.803h6.799l-2.11-2.802 3.634-.7c.859 1.012 1.718 2.142 2.579 3.386l-.469.116h4.924c.077-.155.234-.389.469-.7 1.094-1.398 1.759-2.335 1.993-2.802l3.751.7c-.235.391-.704 1.013-1.407 1.868-.313.391-.548.697-.704.934h6.682v2.803h-11.372v1.984h9.965v2.686h-9.965v2.104h12.075v2.685h-27.55v-2.686h11.958v-2.104h-9.73v-2.686h9.73v-1.984l-11.252.001zm1.519-30.496c-.626 1.016-1.29 1.947-1.993 2.806h7.62c-.703-.855-1.33-1.79-1.875-2.806h-3.752zm-.703-5.721v2.919h5.041v-2.919h-5.041zm16.293 6.889h17.116v2.919h-17.116v-2.919zm15.245 37.733c-1.33-1.944-2.502-3.579-3.517-4.903l2.813-1.518c1.249 1.398 2.5 2.959 3.751 4.67l-3.047 1.751zm4.104 5.138c-.235.233-.431.393-.586.467-.392-.854-.665-1.557-.82-2.102-.392 1.558-.979 4.048-1.759 7.472-.234 1.014-.392 1.79-.469 2.335l-3.517-.934c.938-3.035 1.797-6.498 2.579-10.391.859.39 1.797.697 2.813.934l-.117-.467c2.656-1.479 4.728-3.311 6.213-5.487h-5.275v-2.802h4.807v-2.919h-3.634v-2.802h3.634v-2.919h3.165v2.919h5.041v-2.919h3.166v2.919h4.103v2.802h-4.103v2.919h5.158v2.802h-5.51c1.407 2.104 3.4 3.697 5.979 4.787l-1.407 3.035c-1.72-.937-3.165-1.944-4.337-3.035v5.604h-10.082v1.054c0 1.091.586 1.635 1.758 1.635h7.269c1.249 0 1.993-.467 2.229-1.401 0-.152.038-.389.117-.697 0-.233.117-.937.352-2.104.938.394 1.914.7 2.931.937-.234 1.479-.469 2.566-.703 3.27-.469 1.789-1.916 2.686-4.338 2.686h-9.027c-2.345 0-3.557-1.13-3.634-3.386v-5.722c-.472.382-1.137.888-1.996 1.51zm-3.4-12.96c-.392-.622-.978-1.518-1.758-2.685-.704-.938-1.251-1.673-1.642-2.219l2.931-1.521 3.634 4.67-3.165 1.755zm3.983-16.602v-3.503h27.901v3.503h-27.901zm1.758-19.965v-3.619h24.268v3.619h-24.268zm1.407 9.691v-3.502h21.571v3.502h-21.571zm1.293 37.033v2.569h7.034v-2.569h-7.034zm2.696-5.37c-.626 1.013-1.29 1.946-1.993 2.802h7.62c-.703-.854-1.33-1.789-1.875-2.802h-3.752zm-.703-5.721v2.919h5.041v-2.919h-5.041zm25.438 8.756c-.079 5.838-2.072 10.975-5.979 15.411h-3.751c3.986-4.518 5.979-9.649 5.979-15.411-.158-5.759-2.11-11.051-5.862-15.878h3.634c3.751 4.515 5.744 9.808 5.979 15.878zm-1.293-45.439v-3.386h26.612v3.386h-7.738v18.447h8.441v3.152h-27.901v-3.152h8.324v-18.447h-7.738zm4.22 15.411c-1.564-4.276-3.01-8.132-4.338-11.558l2.931-1.051c1.953 4.515 3.477 8.289 4.572 11.321l-3.165 1.288zm.594 28.161h17.116v2.918h-17.116v-2.918zm6.44-43.572v18.447h4.104v-18.447h-4.104zm14.771 6.304c-1.875 4.357-3.244 7.396-4.103 9.104l-2.931-1.397c1.483-3.19 3.086-6.966 4.806-11.325l3.166 1.284c-.234.545-.547 1.325-.938 2.334zm2.58 52.445v-12.375c-.392.078-.978.273-1.758.584l-1.055.353c-.158-.389-.431-.975-.821-1.751-.234-.544-.431-.976-.586-1.284 4.532-1.011 8.089-2.412 10.668-4.203h-9.73v-2.686h11.724v-2.335h-5.51c-1.407 0-2.696.04-3.869.114-.079-1.011-.234-1.903-.469-2.686 7.893 0 15.357-.232 22.392-.7l.469 2.802c-3.048.078-6.292.195-9.73.354v2.451h11.724v2.686h-9.848c2.579 1.791 6.096 3.114 10.551 3.97-.079.233-.234.546-.469.937-.158.391-.431 1.051-.821 1.984-.469-.076-1.055-.233-1.758-.47-.392-.151-.704-.271-.938-.35v12.605h-3.4v-1.167h-13.481v1.167h-3.285zm1.414-51.043h17.116v2.919h-17.116v-2.919zm7.027 37.15v-3.271c-1.799 1.559-4.104 2.959-6.917 4.201h17.468c-2.971-1.089-5.393-2.525-7.269-4.316v3.386h-3.282zm-5.159 3.502v2.335h13.481v-2.335h-13.481zm0 4.554v2.335h13.481v-2.335h-13.481zm21.454-36.1c-.235 2.102-.821 4.163-1.759 6.188-.469-.545-1.251-1.359-2.345-2.448.78-1.479 1.29-3.152 1.524-5.021.234-1.79.352-4.862.352-9.224v-10.741h2.696v11.092c.001 4.745-.157 8.131-.468 10.154zm4.58 28.627c-1.33-1.944-2.502-3.579-3.517-4.903l2.813-1.518c1.249 1.398 2.5 2.959 3.751 4.67l-3.047 1.751zm4.103 5.138c-.235.233-.431.393-.586.467-.392-.854-.665-1.557-.82-2.102-.392 1.558-.979 4.048-1.759 7.472-.234 1.014-.392 1.79-.469 2.335l-3.517-.934c.938-3.035 1.797-6.498 2.579-10.391.859.39 1.797.697 2.812.934l-.117-.467c2.656-1.479 4.728-3.311 6.213-5.487h-5.275v-2.802h4.807v-2.919h-3.634v-2.802h3.634v-2.919h3.165v2.919h5.041v-2.919h3.166v2.919h4.104v2.802h-4.104v2.919h5.158v2.802h-5.51c1.407 2.104 3.4 3.697 5.979 4.787l-1.407 3.035c-1.72-.937-3.165-1.944-4.337-3.035v5.604h-10.082v1.054c0 1.091.586 1.635 1.758 1.635h7.269c1.249 0 1.993-.467 2.228-1.401 0-.152.038-.389.117-.697 0-.233.117-.937.352-2.104.938.394 1.914.7 2.931.937-.234 1.479-.469 2.566-.703 3.27-.469 1.789-1.916 2.686-4.338 2.686h-9.027c-2.345 0-3.557-1.13-3.634-3.386v-5.722c-.47.382-1.135.888-1.994 1.51zm-3.4-12.96c-.392-.622-.978-1.518-1.758-2.685-.704-.938-1.251-1.673-1.642-2.219l2.931-1.521 3.634 4.67-3.165 1.755zm-3.173-17.069v-23.817h2.579v23.817h-2.579zm4.338 1.635v-26.62h2.696v26.62h-2.696zm16.529.7c-1.641-1.638-3.479-3.23-5.51-4.787-1.172 1.868-3.323 3.541-6.448 5.021-.392-.776-.978-1.713-1.758-2.802 4.689-1.323 6.876-4.203 6.565-8.64v-5.254h2.931v5.254c-.079 1.397-.196 2.605-.352 3.619 1.876 1.398 4.063 3.072 6.565 5.021l-1.993 2.568zm-12.661-23.584v-2.919h14.302v2.919h-6.213l-.586 2.686h5.861v14.127h-2.813v-11.208h-7.269v11.324h-2.696v-14.243h3.869l.469-2.686h-4.924zm3.408 48.475v2.569h7.034v-2.569h-7.034zm2.696-5.37c-.626 1.013-1.29 1.946-1.993 2.802h7.62c-.703-.854-1.33-1.789-1.875-2.802h-3.752zm-.703-5.721v2.919h5.041v-2.919h-5.041zm14.537-28.044c-.861 1.398-1.837 2.764-2.931 4.087l-.703-2.803c-.234-.776-.392-1.36-.469-1.751 2.891-3.579 5.276-7.938 7.151-13.076l3.634 1.284c-.938 2.335-1.995 4.554-3.167 6.652v19.851h-3.517l.002-14.244zm10.199 4.322c-1.251.856-2.658 1.637-4.221 2.337-.626-1.092-1.289-2.143-1.993-3.152 2.345-1.168 4.415-2.373 6.213-3.619v-13.08h3.751v10.508c2.656-2.102 5.08-4.437 7.268-7.006l2.813 2.569c-2.972 3.269-6.33 6.266-10.082 8.989v6.538c-.079 1.398.586 2.062 1.993 1.982h1.993c1.405.078 2.188-.584 2.345-1.982.234-1.092.429-2.646.586-4.673.779.312 1.993.74 3.635 1.284-.232 2.183-.51 3.973-.82 5.371-.312 2.178-2.069 3.229-5.273 3.152h-3.399c-3.359.151-4.964-1.363-4.807-4.556l-.002-4.662z"/><path fill="#52B1DF" d="M401 485l10 1.467-10 9.533z"/><path fill="#7CD2FC" d="M311 458h100v29h-100z"/><path fill="#fff" d="M329.314 478.582c2.295-.094 3.75-1.359 4.356-3.797l1.828.422c-.892 3.048-2.931 4.594-6.117 4.641-4.032-.232-6.164-2.555-6.396-6.961.187-4.778 2.363-7.288 6.539-7.521 2.672.095 4.567 1.453 5.692 4.078l-1.758.422c-.844-2.018-2.204-3.047-4.078-3.097-2.856.281-4.43 2.274-4.711 5.979.19 3.608 1.738 5.553 4.645 5.834zm18.129 1.055v-1.266h-7.242v-12.797h-1.617v14.062l8.859.001zm3.428 0h1.547v-14.062h-1.547v14.062zm11.52-1.055c2.297-.094 3.75-1.359 4.359-3.797l1.828.422c-.891 3.048-2.93 4.594-6.117 4.641-4.032-.232-6.164-2.555-6.398-6.961.188-4.778 2.366-7.288 6.539-7.521 2.674.095 4.57 1.453 5.695 4.078l-1.758.422c-.844-2.018-2.204-3.047-4.078-3.097-2.859.281-4.43 2.274-4.711 5.979.188 3.608 1.732 5.553 4.641 5.834zm18.752 1.055l-5.062-7.242-2.813 2.813v4.43h-1.615v-14.062h1.615v7.664l7.523-7.664h2.25l-5.977 5.836 6.258 8.227-2.179-.002zm7.093-.071v-2.039h-2.183v2.039h2.183zm6.524 0v-2.039h-2.18v2.039h2.18zm6.523 0v-2.039h-2.183v2.039h2.183z"/></svg>