<svg xmlns="http://www.w3.org/2000/svg" width="640" height="80" viewBox="0 0 640 80"><path fill="#F0ED97" d="M54.119 71.501v-13.751l-1.046.376c-.93.334-1.627.625-2.093.874-.232-.831-.621-1.665-1.162-2.5 4.572-1.25 8.253-3.04 11.043-5.374h-10.23v-2.25h11.974v-3.125c-1.24.083-2.597.125-4.068.125h-5.464c-.078-.916-.194-1.666-.349-2.251 5.656 0 12.942-.249 21.855-.749l.349 2.25c-1.938.168-5.193.334-9.765.5v3.25h11.974v2.25h-10.23c2.401 2.168 6.045 3.834 10.928 5-.465.918-.854 1.75-1.163 2.5-5.348-1.667-9.184-3.791-11.509-6.376v4.376h-2.558v-4.376c-2.17 2.251-4.922 4.044-8.253 5.376h19.181v13.875h-2.558v-1.25h-14.299v1.25h-2.557zm2.557-11.625v3.125h14.299v-3.125h-14.299zm0 5.125v3h14.299v-3h-14.299zm28.218-8.375c-.389-.416-.93-1.083-1.627-2.001-1.008-1.165-1.784-2.082-2.325-2.749l2.093-1.5c1.395 1.418 2.79 2.958 4.185 4.625l-2.326 1.625zm.814 7.75c-.622 3.25-1.086 5.625-1.395 7.125l-2.79-.875c.93-3.416 1.782-7.25 2.558-11.5.387.167.968.375 1.744.625.387.084.657.167.813.25-.157.834-.465 2.292-.93 4.375zm0-15.875c-1.241-1.666-2.52-3.25-3.836-4.75l2.209-1.5c.309.334.735.834 1.279 1.5 1.162 1.25 2.052 2.293 2.673 3.125l-2.325 1.625zm3.255-1v-2.375h3.72v-3.376h2.441v3.376h5.58v-3.376h2.558v3.376h4.417v2.375h-4.417v3.75h5.464v2.375h-5.929c1.549 2.584 3.68 4.583 6.394 5.999l-.349.751c-.232.334-.543.918-.93 1.75-1.86-1.25-3.371-2.541-4.534-3.875v6.624h-10.114v1.626c-.078 1.334.541 1.957 1.86 1.875h7.44c1.317 0 2.131-.501 2.441-1.5.232-.667.387-1.666.465-3.001.232.085.542.209.93.375l1.395.376c-.156 1.25-.389 2.374-.698 3.375-.389 1.915-1.744 2.831-4.068 2.75h-8.835c-2.249 0-3.372-1.168-3.372-3.501v-6.999c-.93.918-1.938 1.749-3.022 2.5-.311-.832-.697-1.666-1.163-2.5 2.79-1.75 4.959-3.957 6.51-6.625h-5.464v-2.375h4.999v-3.75h-3.719zm4.301 11.875v3.375h7.672v-3.375h-7.672zm2.558-5.75c-.698 1.25-1.473 2.418-2.325 3.499h8.951c-.775-1.081-1.511-2.249-2.208-3.499h-4.418zm-.698-6.125v3.75h5.58v-3.75h-5.58zm34.272 10.5v-2.5h-16.159v2.5h16.159zm4.053 11.375v-2.875h27.551v2.875h-27.551zm1.86-21.875v-3h23.831v3h-23.831zm1.278 10.625v-3h21.273v3h-21.273zm28.799-11.625v-2.876h26.156v2.876h-8.021v20.749h8.835v2.626h-27.784v-2.626h8.719v-20.749h-7.905zm4.302 16.625c-1.241-4-2.674-8.082-4.301-12.25l2.441-.875c.852 2.083 2.092 5.5 3.72 10.25l.698 1.875-2.558 1zm6.393-16.625v20.749h4.767v-20.749h-4.767zm15.578 4.375c-1.163 3.168-2.79 7.293-4.882 12.374l-2.326-1.25c1.549-3.499 3.139-7.541 4.767-12.125l2.441 1.001zm21.136 7.125v-2.5h-16.159v2.5h16.159zm7.065 6.874c-.232 2.335-.814 4.542-1.744 6.626l-1.86-1.875c.852-1.751 1.355-3.626 1.511-5.625.233-1.916.349-5.582.349-11v-10.626h2.208v10.751c.001 5.584-.156 9.499-.464 11.749zm2.557 4.126v-25.5h2.092v25.5h-2.092zm4.185 1.625v-28.251h2.209v28.251h-2.209zm16.74.75c-1.163-1.25-3.139-3.169-5.929-5.75-1.008 2.249-3.217 4.332-6.626 6.25-.543-.918-1.046-1.709-1.511-2.375 4.805-1.666 7.091-5.125 6.859-10.375 0-.666.038-1.625.116-2.875v-2.5h2.209v5.375c-.078 1.418-.233 2.75-.465 4 .93.834 2.363 2.125 4.301 3.874 1.239 1.001 2.131 1.751 2.674 2.251l-1.628 2.125zm-13.02-25.625v-2.5h14.299v2.5h-6.626l-.697 3.624h6.277v15.001h-2.208v-12.625h-8.138v12.75h-2.209v-15.126h3.836l.698-3.624h-5.232zm21.718 9.375c-.775 1.334-1.86 2.959-3.255 4.875l-.697-2.251c-.232-.581-.389-1.04-.465-1.374 3.022-3.75 5.54-8.582 7.557-14.5l2.79 1c-.621 1.918-1.706 4.418-3.255 7.5v21.125h-2.674v-16.375h-.001zm10.23 4.875c-2.016 1.334-3.682 2.334-4.999 3-.156-.332-.543-.958-1.163-1.876-.232-.332-.389-.581-.465-.749 2.479-1.332 4.688-2.666 6.626-4v-14.125h2.906v11.874c2.634-2.165 5.191-4.916 7.673-8.249l2.208 1.999c-2.868 3.751-6.161 7.085-9.881 10.001v7.75c-.078 1.667.698 2.457 2.325 2.375h2.441c1.627 0 2.518-.666 2.674-2.001.076-.415.154-1.291.232-2.624l.349-2.625c.619.25 1.549.584 2.79.999-.232 2.085-.505 3.96-.814 5.626-.311 2.25-1.976 3.332-4.999 3.25h-3.487c-3.101.166-4.574-1.375-4.418-4.626v-5.999h.002zm33.923-2v-2.5h-16.159v2.5h16.159zm8.111 13.5v-13.751l-1.046.376c-.93.334-1.627.625-2.093.874-.232-.831-.621-1.665-1.162-2.5 4.572-1.25 8.253-3.04 11.043-5.374h-10.23v-2.25h11.974v-3.125c-1.24.083-2.597.125-4.069.125h-5.463c-.078-.916-.194-1.666-.349-2.251 5.657 0 12.942-.249 21.855-.749l.349 2.25c-1.938.168-5.193.334-9.765.5v3.25h11.974v2.25h-10.23c2.401 2.168 6.045 3.834 10.928 5-.465.918-.854 1.75-1.163 2.5-5.347-1.667-9.183-3.791-11.508-6.376v4.376h-2.558v-4.376c-2.17 2.251-4.922 4.044-8.253 5.376h19.181v13.875h-2.558v-1.25h-14.298v1.25h-2.559zm2.558-11.625v3.125h14.298v-3.125h-14.298zm0 5.125v3h14.298v-3h-14.298zm28.228-8.375c-.389-.416-.931-1.082-1.628-2-1.008-1.166-1.784-2.082-2.325-2.75l2.093-1.5c1.395 1.418 2.79 2.959 4.185 4.625l-2.325 1.625zm.813 7.75c-.621 3.25-1.086 5.625-1.396 7.125l-2.79-.875c.931-3.416 1.782-7.25 2.558-11.5.387.168.969.375 1.744.625.387.084.657.168.813.25-.155.834-.464 2.293-.929 4.375zm0-15.875c-1.241-1.666-2.52-3.25-3.837-4.75l2.209-1.5c.309.334.736.834 1.279 1.5 1.162 1.25 2.053 2.293 2.674 3.125l-2.325 1.625zm3.255-1v-2.375h3.72v-3.375h2.441v3.375h5.58v-3.375h2.558v3.375h4.417v2.375h-4.417v3.75h5.464v2.375h-5.929c1.549 2.584 3.68 4.584 6.394 6l-.349.75c-.232.334-.543.918-.931 1.75-1.859-1.25-3.371-2.541-4.533-3.875v6.625h-10.114v1.625c-.078 1.334.542 1.957 1.86 1.875h7.44c1.316 0 2.13-.5 2.44-1.5.233-.666.388-1.666.466-3 .232.084.541.209.93.375l1.395.375c-.156 1.25-.389 2.375-.697 3.375-.389 1.916-1.743 2.832-4.068 2.75h-8.835c-2.249 0-3.371-1.168-3.371-3.5v-7c-.931.918-1.938 1.75-3.022 2.5-.312-.832-.698-1.666-1.163-2.5 2.79-1.75 4.959-3.957 6.51-6.625h-5.464v-2.375h4.999v-3.75h-3.721zm4.301 11.875v3.375h7.673v-3.375h-7.673zm2.558-5.75c-.697 1.25-1.473 2.418-2.325 3.5h8.952c-.776-1.082-1.512-2.25-2.209-3.5h-4.418zm-.698-6.125v3.75h5.58v-3.75h-5.58z"/><path fill="#F7F398" d="M51.398 17.906c-.117-.062-.262-.218-.436-.469-1.105-.999-1.948-1.781-2.528-2.344l1.133-1.313c.988.876 1.976 1.781 2.964 2.719l-1.133 1.407zm-.087 8.437c-.292 1.437-.523 2.499-.697 3.188l-1.657-.563c.698-2.438 1.336-5.25 1.918-8.438.175.063.465.188.872.375.29.126.552.22.785.281-.233 1.002-.64 2.72-1.221 5.157zm.61-14.625c-.466-.5-1.133-1.156-2.005-1.969-.349-.312-.61-.563-.785-.75l1.134-1.219c.523.438 1.278 1.125 2.267 2.063l.523.563-1.134 1.312zm1.221 1.313v-1.594h3.487c-.117-.563-.378-1.5-.785-2.813-.117-.437-.204-.75-.261-.938l1.656-.281c.349 1 .698 2.25 1.046 3.75l-.959.281h3.226v1.594h-4.272c0 1.313-.03 2.531-.087 3.656h4.01v1.031c-.117 3.938-.233 6.813-.349 8.625 0 1.812-.814 2.719-2.441 2.719h-1.569l-.261-1.688c.29.062.61.062.959 0h.349c1.046.062 1.54-.375 1.482-1.313 0-.437.028-1.125.087-2.063.116-2.687.174-4.594.174-5.719h-2.528v.656c-.117 4.75-1.018 8.344-2.703 10.781-.292-.313-.728-.719-1.308-1.219 1.569-2.187 2.412-5.405 2.529-9.656.057-1.625.087-3.563.087-5.813h-1.569zm9.852-.281c-.697 1.375-1.279 2.407-1.744 3.094-.292-.312-.728-.718-1.308-1.219 1.452-2.063 2.616-4.531 3.487-7.406l1.658.281c-.349 1.063-.698 2.063-1.046 3h5.667v1.594h-6.364c-.059.125-.176.344-.35.656zm-2.005 9.187v-1.594h3.662v-1.406l2.616-2.813h-5.231v-1.594h6.975v1.781l-2.703 3.094v.938h3.4v1.594h-3.4v4.781c.057 1.688-.756 2.531-2.441 2.531-.466.062-1.221.094-2.267.094 0-.188-.059-.532-.174-1.031-.059-.313-.087-.563-.087-.75.406.062 1.104.094 2.092.094.872.062 1.278-.375 1.221-1.313v-4.406h-3.663zm11.231-9.656v-1.688h2.528c.057-.249.174-.656.349-1.219.231-.938.377-1.625.436-2.063l1.744.189-.872 3.094h4.534v1.688h-4.97c-.93 3-1.569 5.095-1.918 6.281h2.703v-4.781h1.482v4.781h2.441v1.594h-2.441v3.188h.261c.755-.062 1.569-.188 2.441-.375 0 .625-.03 1.188-.087 1.688l-2.615.375v4.688h-1.656v-4.5c-1.569.188-3.052.375-4.447.563l-.175-1.784 4.621-.469v-3.375h-4.098v-1.688c.174-.624.464-1.562.872-2.813.465-1.5.785-2.625.959-3.375h-2.092zm21.1 2.625c-.292.438-.61 1-.959 1.688-2.5-1.812-4.359-3.999-5.58-6.563-1.338 2.438-3.285 4.688-5.842 6.75-.407-.75-.728-1.28-.959-1.594 2.847-2.187 4.939-4.843 6.277-7.969l1.744.282c-.117.313-.261.625-.436.938 1.511 2.875 3.429 5.031 5.755 6.468zm-7.76 14.156c-2.036.062-3.023-.97-2.964-3.094v-9.656h1.656v4.5c2.093-1.187 3.981-2.531 5.667-4.031l1.046 1.313c-1.744 1.563-3.982 3.126-6.713 4.688v2.813c-.117 1.251.493 1.812 1.831 1.688h2.18c1.221.062 1.888-.469 2.005-1.594.174-1.062.29-2.156.349-3.281.581.25 1.133.438 1.657.563-.174 1.375-.349 2.594-.523 3.656-.349 1.625-1.425 2.438-3.226 2.438h-2.965zm10.795-6.375c.754-.812.667-.75-.262.188-.174-.563-.407-1.187-.698-1.875 2.034-1.812 3.981-4.343 5.842-7.594l1.569 1.031c-.466.75-1.105 1.75-1.918 3-.175.188-.292.344-.349.469v11.813h-1.744v-9.563c-.522.562-1.337 1.406-2.44 2.531zm6.365-14.25c-1.802 2.438-3.808 4.657-6.016 6.656-.407-.875-.698-1.468-.872-1.781 2.15-1.875 3.923-3.875 5.318-6l1.57 1.125zm.697 9.375v-1.875h13.165v1.875h-3.923v8.25c.116 2.124-.902 3.188-3.051 3.188-.931.062-2.005.094-3.226.094-.059-.188-.117-.469-.174-.844l-.262-1.125h3.052c1.336.062 1.947-.469 1.831-1.594v-7.969h-7.412zm1.221-7.031v-1.875h10.898v1.875h-10.898zm14.457 5.062v-1.688h3.052v-3.75l-2.703.094c-.059-.624-.146-1.156-.261-1.594 2.267-.062 4.678-.249 7.236-.563l.262 1.594c-.815.126-1.774.25-2.877.375v3.844h2.79v1.688h-2.79v2.813l.436-.469.174.188c1.221 1.188 2.121 2.032 2.703 2.531l-1.046 1.406c-.233-.249-.582-.656-1.046-1.219l-1.221-1.313v9.938h-1.656v-10.125c-.698 2.188-1.6 4.125-2.703 5.813 0-.062-.03-.155-.087-.281-.233-.75-.466-1.28-.698-1.594 1.511-2.063 2.673-4.625 3.488-7.688h-3.053zm8.022 3.375v-1.594h12.293v1.594h-5.319v3.188h4.795v1.5h-4.795v3.188h6.016v1.5h-14.037v-1.5h6.277v-3.188h-4.795v-1.5h4.795v-3.188h-5.23zm.871-3.937v-6.656h10.55v6.656h-10.55zm1.657-5.063v3.469h7.236v-3.469h-7.236z"/><path fill-rule="evenodd" clip-rule="evenodd" fill="#FFFB97" d="M32 7h10v66h-10z"/></svg>