<svg xmlns="http://www.w3.org/2000/svg" width="640" height="302.25" viewBox="0 0 640 302.25"><path fill="#fff" d="M33.573 62.193v-1.437h3.306v-2.965h1.57v2.965h2.728v1.437h-2.728v2.606h1.157c1.323-1.438 2.452-3.024 3.389-4.762l1.322.809c-.882 1.498-1.791 2.816-2.728 3.953h2.479v1.527h-3.802c-.442.539-1.213 1.289-2.314 2.246.054 0 0 .06-.166.18h5.042v10.242h-1.488v-1.258h-5.125v1.258h-1.485v-7.906c-.552.359-1.13.75-1.736 1.168-.056-.18-.166-.449-.331-.809-.111-.359-.221-.629-.331-.809 1.873-.958 3.829-2.395 5.868-4.313h-5.538v-1.527h4.215v-2.606l-3.304.001zm-.992-25.82v-1.617h2.893l.909-5.48h13.556l-.165 5.48h2.811v1.617h-2.893l-.248 3.953h2.397v1.527h-2.48c-.111 2.157-1.24 3.235-3.389 3.235h-3.141c-.111-.301-.221-.779-.331-1.438-.056-.121-.083-.21-.083-.269.44.059 1.459.09 3.058.09 1.433.059 2.176-.48 2.232-1.618h-13.308l.826-5.48h-2.644zm.165 128.002v-1.527h2.314c.165-.539.385-1.377.661-2.516.054-.299.11-.508.165-.629l1.653.27c-.056.121-.111.33-.166.629-.111.48-.331 1.229-.661 2.246h3.968v1.527h-4.464c-.496 1.797-1.103 3.684-1.818 5.66h2.397v-4.043h1.405v4.043h2.066v1.527h-2.066v3.145c.881-.119 1.736-.209 2.563-.27-.056.239-.083.778-.083 1.617l-2.48.27v4.941h-1.57v-4.763l-3.968.539-.083-1.797c1.267-.06 1.405-.06.414 0 .992-.06 2.203-.181 3.637-.359v-3.323h-3.72v-1.707c.55-1.558 1.129-3.383 1.736-5.48h-1.9zm-.165 41.997v-1.617h2.893l.909-5.479h13.556l-.166 5.479h2.811v1.617h-2.894l-.248 3.953h2.397v1.526h-2.479c-.111 2.156-1.24 3.234-3.389 3.234h-3.141c-.111-.3-.221-.779-.331-1.438-.056-.121-.083-.211-.083-.271.44.06 1.459.09 3.059.09 1.432.06 2.176-.479 2.231-1.616h-13.307l.827-5.48-2.645.002zm.165 27.263v-1.617h2.231v-4.133h1.57v4.133h1.901v1.617h-1.901v4.492l1.984-.629c0 .779.027 1.379.083 1.797l-2.066.629v6.738c.055 1.557-.661 2.336-2.149 2.336h-1.488c0-.539-.056-1.107-.165-1.707h1.074c.827.061 1.211-.24 1.157-.898v-6.02c-.717.24-1.46.51-2.231.809l-.166-1.887c.771-.238 1.57-.479 2.397-.719v-4.941h-2.231zm4.463-36.608c-.992 1.438-2.205 2.875-3.637 4.313-.111-.18-.276-.479-.496-.897-.166-.299-.304-.539-.414-.719 2.038-1.798 3.554-3.832 4.546-6.109l1.818.27c-.276.539-.579 1.078-.909 1.617h13.969v1.527h-14.877v-.002zm0-169.998c-.992 1.437-2.205 2.875-3.637 4.313-.111-.18-.276-.479-.496-.898-.165-.299-.303-.539-.413-.719 2.038-1.797 3.554-3.832 4.546-6.109l1.818.27c-.276.539-.579 1.078-.909 1.617h13.969v1.527h-14.878v-.001zm8.762 86.235v-5.301h-6.778c-.221 2.396-1.682 4.192-4.381 5.391l-.331-.359c-.386-.48-.717-.809-.992-.988 2.645-1.078 3.968-2.426 3.968-4.043h-4.794v-1.617h4.959c.054-.719.083-1.496.083-2.336h1.653c0 .84-.028 1.617-.083 2.336h6.695v-2.336h1.653v2.336h4.794v1.617h-4.794v5.301l-1.652-.001zm-12.398 33.013v-16.711h3.967v-3.684h1.488v3.684h3.968v16.711h-1.488v-1.617h-6.447v1.617h-1.488zm3.967-43.255c-1.874.061-2.783-.957-2.728-3.055v-7.187h14.795v6.02h-13.142v.988c-.055 1.258.496 1.828 1.653 1.707h10.332c1.211.061 1.873-.389 1.984-1.348.166-.719.275-1.406.331-2.066.22.061.496.15.827.27.385.18.661.301.827.359-.166.719-.359 1.527-.579 2.426-.331 1.318-1.351 1.947-3.059 1.887l-11.241-.001zm-2.479 28.071v5.301h2.479v-5.301h-2.479zm0 6.828v5.391h2.479v-5.391h-2.479zm1.157-67.732v2.426h5.125v-2.426h-5.125zm0 3.774v2.426h5.125v-2.426h-5.125zm11.572-33.637l.248-3.953h-11.077l-.661 3.953h11.49zm0 169.999l.248-3.953h-11.077l-.661 3.953h11.49zm-11.325-116.108v3.145h11.489v-3.145h-11.489zm1.323-63.414l-.579 3.953h10.828c.11-1.377.165-2.696.165-3.953h-10.414zm0 169.999l-.579 3.953h10.828c.11-1.377.166-2.694.166-3.953h-10.415zm5.621 42.266c.054 2.875-1.599 4.94-4.959 6.2-.056-.062-.166-.211-.331-.449-.331-.359-.552-.659-.661-.898 2.976-.898 4.435-2.516 4.38-4.852h-2.81v-1.349h10.25l-.662 2.427h3.472l-.331 2.516c-.111 1.497-.938 2.246-2.479 2.246-.442.06-1.434.09-2.976.09-.111-.479-.248-.988-.414-1.527 1.046.062 2.011.09 2.893.09.881.062 1.376-.24 1.488-.896l.083-1.168h-3.637l.661-2.427-3.967-.003zm-3.306-2.156v-6.738c-.111.121-.277.33-.496.629-.111.24-.414.629-.909 1.168l-.909-1.438c1.653-1.797 2.976-4.043 3.967-6.738l1.488.359c-.331.897-.689 1.707-1.074 2.426h4.05c-.331-.719-.744-1.496-1.24-2.336l1.405-.539c.331.6.44.779.331.539.55.959.909 1.588 1.075 1.887l-1.075.449h5.29v1.258h-4.794v1.527h4.38v1.258h-4.38v1.527h4.38v1.168h-4.38v1.617h4.959v1.258h-10.581v.719h-1.487zm1.405-109.819h-2.48v5.301h2.48v-5.301zm-2.48 6.828v5.391h2.48v-5.391h-2.48zm2.479 35.528v-1.617h10.001v1.617h-4.133v5.211h5.208v1.617h-12.315v-1.617h5.456v-5.211h-4.217zm1.654-133.303c-.826-.838-1.708-1.647-2.645-2.426l.91-1.078c.992.779 1.928 1.527 2.81 2.246l-1.075 1.258zm0 170c-.827-.838-1.708-1.646-2.645-2.427l.909-1.077c.992.778 1.928 1.526 2.811 2.246l-1.075 1.258zm8.513-39.302c-.607-.418-1.46-1.047-2.563-1.887-.882-.598-1.57-1.078-2.066-1.438-1.322 1.198-3.196 2.366-5.621 3.504-.221-.539-.496-1.047-.827-1.527 3.691-1.438 6.419-3.652 8.183-6.648h-7.19v-1.617h9.01v1.707c-.772 1.379-1.599 2.576-2.479 3.595l1.736 1.077c.385.302 1.322.898 2.81 1.798l-.993 1.436zm-8.182-136.358c-1.048-.958-1.957-1.707-2.728-2.246l.909-1.168c.992.718 1.928 1.438 2.811 2.156l-.992 1.258zm-.001 169.998c-1.047-.957-1.957-1.707-2.728-2.245l.909-1.169c.992.72 1.928 1.438 2.81 2.156l-.991 1.258zm-1.901 27.354v1.527h4.05v-1.527h-4.05zm0 2.785v1.527h4.05v-1.527h-4.05zm0 2.695v1.617h4.05v-1.617h-4.05zm3.555-158.054v-20.215h6.943v1.707l-2.232 6.378c1.818 1.738 2.699 3.594 2.645 5.571.054 2.457-.909 3.714-2.893 3.773-.661.06-1.322.09-1.984.09-.055-.659-.165-1.288-.331-1.887.55.06 1.157.09 1.819.09 1.211.06 1.79-.659 1.736-2.156.054-1.617-.827-3.383-2.646-5.301l2.232-6.648h-3.72v18.598h-1.569zm0 68.001v-19.855h6.86v1.797l-2.066 6.02c1.653 1.738 2.451 3.535 2.397 5.391 0 2.516-.938 3.804-2.81 3.863h-1.901c0-.239-.056-.629-.165-1.168-.056-.299-.083-.508-.083-.629.44.061.964.09 1.571.09 1.267.121 1.873-.658 1.818-2.336.054-1.557-.772-3.204-2.48-4.941l2.232-6.469h-3.802v18.238l-1.571-.001zm11.357-74.56l-1.736 1.887-.661-1.977c1.542-1.438 2.893-2.785 4.05-4.043v-10.691h1.57v21.472h-1.57v-8.355c-.33.359-.882.929-1.653 1.707zm-2.149 26.813v-1.707h2.231v-6.02h1.488v6.02h2.066v1.707h-2.066v8.176c.662-.18 1.323-.389 1.984-.629 0 .18.027.48.083.898 0 .359.027.629.083.809-1.378.359-3.307.988-5.786 1.887l-.331-1.797c.275-.119.688-.239 1.24-.359.55-.18.963-.299 1.24-.359v-8.625l-2.232-.001zm.165 66.294v-1.617h2.811v-4.312h1.57v4.312h2.563v1.617h-2.563v3.414l.496-.539 1.818 1.978.909.987-1.075 1.169c-.772-.839-1.488-1.677-2.149-2.517v10.961h-1.57v-11.858c-.717 2.336-1.599 4.373-2.645 6.108 0-.059-.028-.18-.083-.358-.111-.539-.276-1.168-.496-1.888 1.267-1.916 2.314-4.401 3.141-7.457h-2.727zm-.33-130.787v-1.977h20.086v1.977h-20.086zm2.314 32.199c-.331-.898-.938-2.335-1.818-4.312-.221-.539-.386-.928-.496-1.168l1.323-.54c.11.301.331.779.661 1.438.771 1.738 1.323 3.055 1.653 3.953l-1.323.629zm-2.066 63.33v-1.617h2.397c.054-.239.166-.629.331-1.168.22-.898.358-1.557.414-1.977l1.653.18-.827 2.965h4.298v1.617h-4.712c-.882 2.875-1.488 4.882-1.818 6.02h2.562v-4.582h1.405v4.582h2.314v1.527h-2.314v3.055h.248c.715-.059 1.488-.18 2.314-.359 0 .6-.028 1.139-.083 1.617l-2.48.359v4.492h-1.57v-4.313c-1.488.18-2.893.359-4.215.539l-.166-1.707 4.381-.449v-3.234h-3.885v-1.617c.165-.598.44-1.497.827-2.695.44-1.438.744-2.516.909-3.234l-1.983-.001zm-.248 74.469v-1.977h20.085v1.977h-20.085zm9.339 25.916c-2.645.121-5.235.18-7.77.18 0-.598-.083-1.168-.248-1.707 5.951-.119 11.489-.359 16.614-.719l.331 1.797c-2.314.061-4.711.18-7.191.359v4.043h7.274v1.616h-7.274v4.134h9.01v1.707h-9.01v3.594c.054 1.977-.882 2.965-2.81 2.965h-3.389c-.055-.479-.165-1.108-.331-1.887.606.06 1.625.09 3.059.09 1.211.06 1.79-.479 1.735-1.617v-3.145h-9.175v-1.707h9.175v-4.134h-7.687v-1.616h7.687v-3.953zm3.224-121.179c-2.866.539-5.153.928-6.86 1.168l-.331-1.617c1.046-.119 2.865-.418 5.456-.898.827-.119 1.405-.209 1.736-.27l-.001 1.617zm-6.282-12.488v-1.527h7.109v-1.887c-.056-.898-.083-1.586-.083-2.066h1.571c0 1.199.027 2.516.083 3.953h4.877v1.527h-4.877l.083 2.246c.11 2.457.275 4.492.496 6.109.827-1.496 1.653-3.533 2.479-6.109l1.323.629c-.938 2.996-2.066 5.57-3.389 7.727.275 1.078.606 1.977.992 2.695.331.418.605.629.827.629.331.059.55-.24.661-.898.165-.719.275-1.766.331-3.145.496.18.936.359 1.322.539-.055 1.199-.193 2.336-.413 3.414-.276 1.377-.882 2.036-1.818 1.977-.882.059-1.599-.539-2.149-1.797-.331-.48-.607-1.078-.827-1.797-.938 1.258-2.066 2.516-3.389 3.773-.111-.121-.276-.33-.496-.629l-.662-.719c1.598-1.258 2.92-2.695 3.968-4.313-.386-1.736-.661-4.371-.827-7.906 0-.838-.028-1.646-.083-2.426l-7.109.001zm2.563-34.09c-.441.48-.964.898-1.57 1.258-.056-.12-.194-.329-.413-.629-.276-.359-.442-.598-.496-.719 2.424-1.797 4.243-3.594 5.456-5.391l1.653.449c-.551.779-1.103 1.468-1.653 2.066h7.521v1.708c-2.425 3.414-6.42 5.781-11.985 7.098-.111-.359-.359-.868-.744-1.528 4.959-1.137 8.568-3.023 10.828-5.66h-7.109l-.414.449c.881.66 1.846 1.469 2.893 2.426l-1.24 1.078c-1.047-1.078-1.956-1.946-2.727-2.605zm-2.397 8.265v-1.617h9.34v-2.696h1.653v2.696h2.728v1.617h-2.728v4.762c.054 1.797-.827 2.695-2.645 2.695-.276 0-.717.029-1.323.09h-1.322c-.111-.719-.221-1.348-.331-1.887.771.059 1.597.09 2.479.09 1.046.059 1.542-.42 1.488-1.438v-4.313h-9.339v.001zm.33 34.899v-6.648h5.042v6.648h-5.042zm5.621 54.525c-.882 3.475-2.205 6.648-3.967 9.523-.386-.479-.827-.898-1.323-1.259 1.763-2.694 3.003-5.6 3.72-8.715l1.57.451zm5.703 20.305c-.221-.539-.469-1.078-.744-1.617-2.921.12-5.318.239-7.191.359-.717.12-1.405.21-2.067.27l-.661-1.526c.496-.3.909-.777 1.24-1.438 1.267-2.395 2.507-5.358 3.72-8.895l1.818.629c-1.434 3.414-2.893 6.559-4.381 9.434.937 0 2.397-.059 4.381-.18 1.046-.059 1.846-.09 2.397-.09l-2.066-4.312 1.405-.72c.937 1.797 2.149 4.193 3.637 7.188l-1.488.898zm2.149-48.106c-.276.42-.579.959-.909 1.617-2.37-1.736-4.133-3.833-5.29-6.289-1.269 2.336-3.114 4.492-5.538 6.469-.386-.719-.69-1.227-.909-1.527 2.699-2.096 4.683-4.641 5.951-7.637l1.653.27c-.111.3-.248.6-.414.898 1.434 2.755 3.252 4.822 5.456 6.199zm-12.15-31.935v3.773h2.397v-3.773h-2.397zm3.058-24.926c-.331-.418-.882-1.078-1.653-1.977-.552-.598-.938-1.047-1.157-1.348l1.157-.988c.385.419 1.074 1.138 2.066 2.156.385.48.688.839.909 1.078l-1.322 1.079zm1.736 70.427c-1.93.059-2.866-.929-2.811-2.965v-9.254h1.571v4.313c1.983-1.137 3.773-2.426 5.373-3.863l.992 1.258c-1.653 1.498-3.775 2.996-6.364 4.492v2.695c-.111 1.199.467 1.736 1.736 1.617h2.066c1.157.059 1.79-.449 1.901-1.527.166-1.018.275-2.066.331-3.145.55.24 1.075.42 1.57.539-.165 1.318-.331 2.486-.496 3.504-.331 1.557-1.351 2.336-3.059 2.336h-2.81zm6.86 22.77c-.331.42-.579.75-.744.988-2.26-2.814-3.885-6.109-4.876-9.884l1.57-.448c.992 3.594 2.48 6.528 4.463 8.805-.055.121-.193.301-.413.539zm-1.9-74.38c-.772-.957-1.378-1.676-1.818-2.156l1.074-.809 1.323 1.438.579.629-1.158.898zm5.736 69.708c-.166 1.856-.442 3.863-.827 6.02-.111-.059-.304-.119-.579-.18-.276-.059-.469-.09-.579-.09.44-2.215.715-4.191.827-5.93l1.158.18zm-1.57-26.274v-1.527h19.59v1.527h-8.679v2.426h7.191v1.438h-7.191v2.516h8.844c-.165.539-.303 1.078-.413 1.617-3.858 0-6.668-.031-8.431-.09-3.252 0-5.511-1.078-6.778-3.234-.607 1.438-1.736 2.844-3.389 4.223-.496-.539-.855-.958-1.075-1.258 2.259-1.557 3.554-3.863 3.885-6.918l1.571.27c-.056.24-.111.539-.166.898l-.248 1.078c.992 2.037 2.507 3.115 4.546 3.234v-6.199l-9.257-.001zm19.176 65.308c-.276.42-.469.719-.579.897-3.858-2.274-6.75-5-8.679-8.176-2.149 3.295-5.18 6.141-9.092 8.534-.166-.237-.442-.598-.827-1.078-.166-.299-.276-.479-.331-.538 4.683-2.814 7.935-6.021 9.753-9.613l1.901.271-.496.897c2.038 3.295 5.014 5.931 8.927 7.906-.109.18-.302.482-.577.9zm-15.622 40.378c-.386 1.678-1.13 3.354-2.232 5.03-.551-.479-1.103-.929-1.653-1.348 1.102-1.438 1.818-2.875 2.149-4.313.385-1.377.579-3.504.579-6.379v-6.02h8.1c-.276-.658-.717-1.646-1.322-2.965l1.901-.449c.496 1.02.964 2.037 1.405 3.055l-1.074.359h8.1v1.797h-15.375v4.312c0 3.058-.194 5.365-.578 6.921zm.827-207.684c-1.378 3.055-2.397 5.301-3.059 6.739l-1.57-.898c1.432-2.754 2.728-5.66 3.885-8.715.496.359 1.019.66 1.571.898-.166.42-.442 1.078-.827 1.976zm-4.381 60.72v-1.707h9.588c-.496-1.197-.965-2.275-1.405-3.234l1.818-.449.579 1.258c.385.959.688 1.678.91 2.156l-.992.27h8.927v1.707h-3.554c-.772 4.193-2.37 7.547-4.794 10.063 1.984 1.678 4.821 2.936 8.514 3.773-.386.659-.744 1.288-1.075 1.887-3.802-1.258-6.75-2.725-8.844-4.402-1.708 1.498-4.602 3.024-8.679 4.582-.276-.419-.634-1.019-1.075-1.797 3.526-1.018 6.336-2.365 8.431-4.043-2.425-2.695-3.996-6.049-4.711-10.063l-3.638-.001zm9.588-32.024c-.441 6.169-3.169 10.902-8.183 14.195-.441-.599-.882-1.138-1.322-1.617 4.904-3.055 7.493-7.247 7.77-12.578h-7.356v-1.707h7.522c.166-1.797.248-3.713.248-5.75h1.818c0 1.977-.083 3.894-.248 5.75h8.679c-.111 4.193-.248 7.847-.414 10.961-.056 2.934-1.351 4.371-3.885 4.313-1.322.059-2.618.09-3.885.09-.056-.18-.111-.449-.166-.809 0-.24-.083-.66-.248-1.258h1.571c.992.059 1.707.09 2.149.09 1.818.18 2.728-.749 2.728-2.785.22-3.055.331-6.02.331-8.895h-7.109zm-6.116-33.816c-.717-1.377-1.792-3.174-3.224-5.391l1.405-.898c1.211 1.738 2.342 3.504 3.389 5.301l-1.57.988zm1.322 31.211c-.938-1.258-1.901-2.366-2.893-3.324l1.24-1.078c1.102.958 2.094 1.976 2.976 3.054l-1.323 1.348zm-2.48 118.713v-21.383h1.488v4.762l.331-.539c.44.42 1.129 1.14 2.066 2.156v-5.479h13.225v1.438h-11.737v16.801h12.068v1.526h-13.556v-14.284l-.992 1.258c-.221-.359-.69-.929-1.405-1.707v15.453h-1.488v-.002zm.331-46.309v-8.176h14.134v8.176h-14.134zm17.11-91.666c-.496.598-.909 1.167-1.24 1.707-3.583-2.395-5.732-5.45-6.447-9.164-.661 3.714-3.004 6.887-7.026 9.523-.166-.24-.442-.6-.827-1.078-.165-.24-.303-.42-.413-.539 4.463-2.575 6.86-6.049 7.191-10.422.054-.778.083-1.707.083-2.786h1.735c0 1.02-.028 1.738-.083 2.157.716 4.912 3.059 8.446 7.027 10.602zm-15.457 84.927v1.977h10.828v-1.977h-10.828zm0 3.324v2.066h10.828v-2.066h-10.828zm.992-34.36c.715 3.594 2.203 6.559 4.463 8.895 2.203-2.215 3.608-5.18 4.215-8.895h-8.678zm11.82-63.325c-.221-.119-.607-.269-1.157-.449-.166 0-.304-.03-.413-.09l1.653-4.133h-7.935c-.607 1.498-1.322 2.996-2.149 4.492-.496-.359-1.021-.688-1.57-.988 1.653-2.575 2.893-5.51 3.719-8.805l1.736.359-.744 2.156c-.166.48-.276.84-.331 1.079h9.009v1.707l-1.818 4.672zm-8.183 132.584v-1.438h4.298v-2.336h1.488v2.336h4.215v1.438h-4.216c0 .24-.028.569-.083.988v.809c0 1.559-.028 2.637-.083 3.234h5.042v1.348h-5.373v.09c1.377 1.199 2.893 2.547 4.546 4.043l-1.075 1.168c-1.268-1.377-2.562-2.635-3.885-3.773-.551 1.498-1.93 2.846-4.133 4.043-.276-.418-.607-.867-.992-1.348 2.479-1.137 3.856-2.545 4.133-4.223h-4.381v-1.348h4.629c.109-1.197.165-2.275.165-3.234v-1.797h-4.295zm-.166 48.827v-13.298h1.901v13.298h-1.901zm2.315-44.694c-.827-1.258-1.405-2.096-1.736-2.516l1.075-.81c.109.18.302.42.579.719.55.72.963 1.318 1.24 1.798l-1.158.809zm2.149-97.51c-.717-1.018-1.792-2.276-3.224-3.774l1.24-1.078c.827.719 1.955 1.887 3.389 3.504l-1.405 1.348zm5.455 94.995c-.827 1.078-1.517 1.918-2.066 2.517l-1.075-.898c.44-.418 1.019-1.077 1.736-1.977.165-.181.275-.328.331-.449l1.074.807zm22.681 78.873c-.221.658-.359 1.14-.414 1.438h-5.538c-1.378 0-2.618-.03-3.719-.09-2.756-.062-4.85-.988-6.282-2.785-.276-.238-.551-.238-.826 0-1.103 1.078-1.93 2.036-2.48 2.875l-.827-1.797.744-.81 1.405-1.528c.661-.657 1.184-.987 1.57-.987h.331c.11.062.192.09.248.09 4.353-2.875 8.237-6.108 11.655-9.703h-14.382v-1.706h8.431c-.331-1.019-.882-2.216-1.653-3.595l1.736-.539c.826 1.617 1.405 2.875 1.736 3.772l-1.157.359h7.604v1.887c-3.748 4.193-7.963 7.759-12.646 10.691 1.102 1.379 2.782 2.099 5.042 2.156h9.504999999999999l-.083.272zm-16.861-145.887c-.772 1.258-1.57 2.486-2.397 3.684-.111-.299-.248-.719-.413-1.258-.166-.418-.276-.719-.331-.898 2.259-2.934 4.078-6.469 5.456-10.602l1.736.629c-.827 2.037-1.626 3.834-2.397 5.391v15.184h-1.653l-.001-12.13zm-.166 103.262c-.882-1.078-1.874-2.187-2.976-3.324l1.24-.988c1.046 1.02 2.066 2.066 3.059 3.145l-1.323 1.167zm-1.57-138.969c-.276.3-.469.539-.578.718-.056-.179-.194-.449-.414-.808-.165-.359-.303-.629-.413-.809 1.873-1.977 3.389-4.223 4.546-6.738l1.571.539c-.607 1.258-1.24 2.367-1.901 3.324v9.344h-1.57v-7.098c-.277.36-.691.869-1.241 1.528zm2.232 111.256c-.772 1.438-1.488 2.695-2.149 3.773-.111-.061-.303-.18-.579-.359-.386-.18-.661-.328-.827-.449.881-1.197 1.598-2.395 2.149-3.594l1.406.629zm-2.893-138.604v-1.167h6.282v-1.168h1.57v9.614h-1.57v-1.887h-6.861v-1.168h6.861v-1.527h-5.952v-1.168h5.952v-1.529h-6.282zm2.976 34.535c-.772 2.277-1.461 3.953-2.067 5.031l-1.488-.628c.827-1.617 1.515-3.234 2.066-4.852l1.489.449zm-.414 60.994v-1.438h13.556v1.438h-5.704c-.661.539-1.295 1.019-1.901 1.438.054.121.165.27.331.449.715 1.019 1.184 1.828 1.405 2.426 1.983-.898 4.05-2.006 6.199-3.324l.909 1.438c-.827.42-2.066 1.078-3.72 1.977.992 3.115 2.837 5.211 5.538 6.289-.056.061-.111.15-.166.27-.221.239-.524.629-.909 1.168-2.976-1.438-4.905-3.803-5.786-7.098l-1.488.719c.385 1.139.579 2.336.579 3.594.054 2.754-.992 4.133-3.141 4.133h-2.645c-.056-.3-.166-.719-.331-1.258-.056-.18-.083-.33-.083-.449.771.059 1.625.09 2.562.09 1.433.119 2.094-.719 1.984-2.516.054-.539 0-1.137-.166-1.797-2.314 2.396-5.428 4.252-9.34 5.57-.221-.539-.496-1.078-.827-1.617 3.912-1.018 7.163-2.844 9.753-5.48-.166-.479-.359-.928-.579-1.348-2.314 1.917-5.042 3.445-8.183 4.582-.221-.658-.469-1.197-.744-1.617 3.141-.838 5.896-2.246 8.266-4.223-.221-.359-.469-.719-.744-1.078-2.039 1.258-4.326 2.277-6.86 3.055-.221-.539-.469-1.078-.744-1.617 3.472-.719 6.309-1.977 8.514-3.773h-5.535v-.003zm-1.819 29.508v-1.258h7.935l-.248-.81c-.165-.479-.303-.81-.413-.987l1.818-.271c.054.121.11.271.166.448.165.359.331.898.496 1.617h7.439v1.258h-4.133l.909.359c-.386.48-.8 1.078-1.24 1.797h5.704v1.348h-19.755v-1.348h5.703l-1.24-1.707.992-.449h-4.133v.003zm2.894-136.177c-.386.539-.882 1.078-1.488 1.617-.276-.299-.662-.628-1.157-.988 1.157-1.079 2.094-2.215 2.811-3.415l1.488.45c-.166.359-.386.719-.662 1.078h4.216v-1.797h1.57v1.797h7.026v1.258h-7.026v1.707h8.762v1.258h-19.673v-1.258h9.34v-1.707h-5.207zm-1.075 182.668c-.496 2.637-.855 4.521-1.075 5.659l-1.735-.538c.715-2.695 1.322-5.511 1.818-8.445.385.24.909.42 1.57.539l-.578 2.785zm.248-10.961c-.221-.238-.524-.599-.909-1.078-.827-1.019-1.461-1.767-1.901-2.246l1.24-.988c.936.959 1.928 2.037 2.976 3.234l-1.406 1.078zm-2.81-66.296v-3.863h9.009c-.331-.838-.661-1.646-.992-2.426l1.818-.359c.331.719.662 1.588.992 2.605l-.579.18h8.348v3.863h-1.653v-2.336h-15.291v2.336h-1.652zm1.9 42.626v-6.828h14.713v6.828h-14.713zm.166-139.592v-4.133h14.465v4.133h-14.465zm2.976 162.542v-1.526h2.645v-2.427h1.57v2.427h4.133v-2.427h1.57v2.427h3.306v1.526h-3.306v2.875h4.05v1.527h-4.298c1.102 1.977 2.645 3.504 4.629 4.581l-.909 1.527c-1.488-1.078-2.591-2.065-3.306-2.965v4.941h-7.191v1.438c-.055.958.414 1.407 1.405 1.348h5.373c.992.061 1.598-.329 1.819-1.168 0-.118.027-.299.083-.539.054-.18.137-.719.248-1.616l1.488.539c-.056.301-.138.688-.248 1.168-.166.539-.276.93-.331 1.168-.331 1.378-1.269 2.036-2.811 1.978h-6.199c-1.543-.061-2.343-.898-2.397-2.517v-5.392c-.661.72-1.405 1.379-2.231 1.978-.056-.06-.111-.181-.166-.358-.111-.238-.331-.599-.661-1.078 1.983-1.258 3.554-2.935 4.711-5.031h-3.968v-1.527h3.637v-2.875l-2.645-.002zm-1.571-28.521v1.526h11.572v-1.526h-11.572zm0 2.696v1.617h11.572v-1.617h-11.572zm.166-139.682v1.797h11.241v-1.797h-11.241zm3.223 148.397c-1.764.061-2.618-.777-2.563-2.516v-2.246h1.571v1.887c-.111 1.02.44 1.498 1.653 1.438h3.637c1.046.06 1.653-.3 1.818-1.078.054-.18.137-.539.248-1.078.054-.299.109-.539.165-.719.496.24.992.449 1.488.629-.056.779-.221 1.379-.496 1.797-.276 1.317-1.213 1.946-2.811 1.888h-4.71v-.002zm-.082-102.092c-1.653 0-2.48-.869-2.48-2.604v-3.684h1.57v3.234c.055.958.579 1.438 1.571 1.438h3.637c1.211.059 1.901-.418 2.066-1.438.166-.659.275-1.348.331-2.066.11.06.302.121.579.18.44.24.798.39 1.075.449-.166.839-.331 1.617-.496 2.336-.386 1.496-1.434 2.215-3.141 2.156l-4.712-.001zm2.975-13.297c-1.047 1.378-2.314 2.875-3.802 4.492-.111-.18-.359-.418-.744-.719l-.413-.449c1.102-1.078 2.314-2.485 3.637-4.223l1.322.899zm-1.322-3.774c-.386.839-1.103 1.917-2.149 3.234l-.166-.18c-.496-.359-.882-.629-1.157-.809 1.598-1.917 2.811-3.922 3.637-6.02l1.653.27c-.055.18-.165.419-.331.719-.056.24-.248.66-.579 1.258h9.175v1.617l-1.24 2.875c-.056 0-.165-.059-.331-.18-.496-.18-.882-.329-1.157-.449l1.075-2.336-8.43.001zm1.322 43.075c-1.212.84-2.479 1.617-3.802 2.336-.055-.18-.221-.479-.496-.898-.221-.418-.386-.688-.496-.809 1.708-.898 3.306-1.855 4.794-2.875v-10.242h1.736v8.805c2.038-1.736 3.939-3.773 5.703-6.109l1.405 1.168c-2.095 2.756-4.463 5.182-7.108 7.277v5.75c-.056 1.199.523 1.766 1.736 1.707h1.984c1.211.059 1.873-.389 1.983-1.348.11-.598.275-1.855.496-3.773.166.061.44.15.827.27.385.18.661.301.827.359-.166 1.438-.331 2.756-.496 3.953-.276 1.617-1.434 2.395-3.472 2.336h-2.562c-2.149.12-3.169-.958-3.059-3.234v-4.673zm-3.554 59.377c.385.539.633.898.744 1.078l-.248.09h4.876c.22-.299.55-.776.992-1.438.166-.359.302-.598.414-.719h-7.439c.165.18.384.51.661.989zm4.05-88.885c-.827-1.078-1.681-2.096-2.562-3.055l1.157-.988c.605.599 1.515 1.558 2.728 2.875l-1.323 1.168zm-.248 103.26c-.607-.776-1.323-1.617-2.149-2.516l1.157-.898c.496.48 1.24 1.258 2.232 2.336l-1.24 1.078zm-.331 23.848c-.496.959-1.074 1.855-1.736 2.694h6.861c-.662-.838-1.213-1.735-1.653-2.694h-3.472zm-1.736 4.133v2.604h5.704v-2.604h-5.704zm2.811-135.643h-1.901c0-.059-.029-.149-.083-.27 0-.299-.083-.749-.248-1.348.385.06.937.09 1.653.09.937.06 1.377-.359 1.322-1.258v-5.031h1.571v5.301c.055 1.617-.716 2.456-2.314 2.516zm-1.488 127.108v2.875h4.133v-2.875h-4.133zm1.571-152.569v-9.614h1.571v1.168h6.364v1.167h-6.364v1.528h5.951v1.168h-5.951v1.527h6.86v1.168h-6.86v1.887l-1.571.001zm7.026 24.562c-1.434-1.737-2.645-3.084-3.637-4.043l1.157-1.078c.936.839 2.203 2.156 3.802 3.953l-1.322 1.168zm.165 7.008c-.331-.479-.827-1.227-1.488-2.246-.662-.958-1.186-1.707-1.571-2.246l1.24-.898c1.323 1.738 2.397 3.234 3.224 4.492l-1.405.898zm-.083 103.08c-.552-.898-1.269-2.035-2.149-3.414l1.405-.719c.11.18.275.42.496.719.827 1.318 1.405 2.188 1.736 2.605l-1.488.809zm3.422 52.818v-1.617h3.802c-.166-.418-.386-1.078-.661-1.977-.166-.418-.276-.748-.331-.988l1.57-.449.579 1.617.496 1.617-.579.18h2.976v1.617h-4.546l-.083 3.324h3.967c-.055 1.379-.111 3.772-.165 7.188-.056 1.139-.083 1.977-.083 2.516 0 1.916-.827 2.875-2.48 2.875h-1.818c0-.061-.028-.18-.083-.357 0-.24-.083-.689-.248-1.35.385.062.963.09 1.736.09.992.062 1.459-.479 1.405-1.617.054-1.076.109-2.783.165-5.119.054-1.197.083-2.066.083-2.605h-2.562c-.056 5.152-.855 8.984-2.397 11.5l-1.24-1.168c1.488-2.033 2.204-5.688 2.149-10.961.054-1.377.083-2.813.083-4.313h-1.735v-.003zm3.39-196.902c.166 4.074-.661 7.217-2.479 9.434-.111-.061-.248-.211-.414-.449-.441-.36-.744-.6-.909-.719 1.598-1.737 2.314-4.492 2.149-8.266v-4.852h17.606v1.438h-15.953v3.414zm8.348 73.657c-1.764 1.377-4.023 2.665-6.778 3.863-.056-.06-.111-.15-.166-.27-.386-.719-.661-1.199-.826-1.438 2.754-1.078 4.876-2.215 6.364-3.414-1.818-1.855-3.306-4.521-4.463-7.996-.386 5.152-2.066 9.404-5.042 12.758-.386-.48-.799-.929-1.24-1.348 2.976-3.174 4.546-7.576 4.711-13.207 0-.658.054-1.826.165-3.504h-3.719v-1.707h14.878v1.797l-2.231 4.313h4.133v1.707c-1.157 2.936-2.645 5.361-4.463 7.277 1.707 1.318 3.885 2.277 6.53 2.875-.166.299-.386.719-.662 1.258-.165.299-.276.508-.331.629-2.756-1.019-5.042-2.216-6.86-3.593zm-12.068-47.477v-1.527h4.05v-2.605h1.57v2.605h3.555v-2.695h1.57v2.695h3.637v-2.605h1.571v2.605h3.967v1.527h-3.967v2.426h-1.571v-2.426h-3.637v2.426h-1.57v-2.426h-3.555v2.426h-1.57v-2.426h-4.05zm.661 7.367v-3.863h18.598v3.863h-1.571v-2.336h-15.374v2.336h-1.653zm.083 111.615v-17.52h2.232c.165-.599.385-1.468.661-2.605.11-.479.192-.809.248-.988l1.736.27c-.331 1.318-.634 2.427-.909 3.324h3.885v17.34h-1.653v-1.707h-4.546v1.888l-1.654-.002zm1.074 33.462v-18.599h16.366v18.599h-1.736v-1.887h-12.812v1.887h-1.818zm.579-49.364v5.391h4.546v-5.391h-4.546zm0 7.008v5.48h4.546v-5.48h-4.546zm0-143.276v-4.313h1.653v2.875h5.456v-3.594h1.653v3.594h5.538v-2.875h1.653v4.313h-15.953zm.413 48.73v-7.636h6.365v-1.977h1.653v1.977h6.447v5.031c.11 1.558-.634 2.335-2.231 2.335-.386.059-1.157.09-2.314.09-.056-.48-.166-.958-.331-1.438.275 0 .688.031 1.24.09h.827c.88.06 1.294-.359 1.24-1.258v-3.324h-4.877v7.816h-1.653v-7.816h-4.794v6.109l-1.572.001zm3.059 65.756c0 2.096-.717 3.653-2.149 4.672l-.744-.809c.992-.779 1.515-1.947 1.57-3.504h-1.405v-2.965h2.728v2.606zm-2.232 54.345v13.116h12.812v-13.116h-12.812zm1.818-161.374v-1.527h12.729v1.527h-5.621v3.055h7.191v1.438h-7.191v4.492h-1.57v-4.492h-6.943v-1.438h6.943v-3.055h-5.538zm.992 58.653v1.258c-.056.6-.083 1.049-.083 1.348l.331-.449c1.376 4.492 3.141 7.816 5.29 9.973 1.653-1.617 2.976-3.652 3.967-6.109h-4.215v-1.617l2.314-4.402h-7.604v-.002zm4.794 136.722c-.661 1.379-1.488 2.695-2.479 3.953-.331-.418-.717-.81-1.157-1.168 1.653-1.978 2.864-4.224 3.637-6.738l1.653.27c-.111.359-.331.959-.662 1.797-.055.181-.111.302-.165.359h7.521v1.527h-8.348zm8.265 15.992l-.661.719c-3.306-2.574-5.125-6.559-5.456-11.949-.717.061-1.46.15-2.231.27v9.884c.165-.061.44-.182.827-.359.44-.236 1.294-.629 2.562-1.168v.721c.054.42.083.719.083.896-1.269.479-2.453 1.02-3.554 1.616-.496.239-.882.448-1.157.63l-.909-1.35c.44-.479.633-1.018.579-1.617v-10.689c2.864-.299 5.813-.81 8.844-1.526l.579 1.616c-1.212.359-2.618.63-4.215.81.275 1.617.523 2.996.744 4.133.55-.299 1.35-.809 2.397-1.527.44-.238.744-.418.909-.539l.909 1.438c-.276.18-.69.42-1.24.719-1.047.601-1.874 1.078-2.48 1.438.771 2.037 2.121 3.715 4.05 5.03-.112.175-.305.445-.58.804zm-4.132-66.834h-3.472c-.056-.239-.111-.6-.166-1.078-.111-.301-.165-.539-.165-.719h3.306c1.598.119 2.397-.658 2.397-2.336.166-5.33.248-9.193.248-11.591h-5.29c-.551 1.318-1.103 2.517-1.653 3.595-.442-.359-.91-.688-1.405-.988 1.157-2.035 2.176-4.672 3.058-7.906l1.653.449c-.111.48-.304 1.139-.579 1.977-.221.539-.359.93-.414 1.168h6.365v1.438c-.111 5.569-.221 9.612-.331 12.129-.054 2.515-1.238 3.803-3.552 3.862zm-1.405-6.289c-.992-1.617-2.039-3.203-3.141-4.762l1.24-.988c.165.24.44.6.826 1.078 1.046 1.498 1.873 2.694 2.48 3.594l-1.405 1.078zm8.712 23.668v-1.438h3.306v-2.965h1.57v2.965h2.728v1.438h-2.728v2.605h1.157c1.323-1.438 2.451-3.023 3.389-4.762l1.322.809c-.882 1.498-1.792 2.816-2.728 3.953h2.479v1.527h-3.802c-.441.539-1.212 1.289-2.314 2.246.054 0 0 .061-.166.18h5.042v10.242h-1.488v-1.258h-5.125v1.258h-1.488v-7.906c-.552.359-1.13.75-1.736 1.168-.056-.18-.166-.449-.331-.809-.111-.359-.221-.629-.331-.809 1.873-.957 3.829-2.396 5.868-4.313h-5.538v-1.526h4.215v-2.604l-3.301-.001zm1.653-28.25c-.111-.06-.248-.209-.414-.449-1.047-.957-1.847-1.707-2.397-2.246l1.075-1.258c.936.84 1.873 1.707 2.81 2.605l-1.074 1.348zm-1.239-107.572v-1.617h7.77v-2.965h1.653v2.965h7.853v1.617h-7.853v5.93h8.927v1.617h-8.183c2.093 2.576 4.904 4.582 8.431 6.02l-.496.809-.496.808c-3.748-1.676-6.476-3.803-8.183-6.378v8.086h-1.653v-8.086c-1.93 2.636-4.685 4.882-8.266 6.738-.221-.48-.552-.988-.992-1.527 3.306-1.617 6.117-3.773 8.431-6.469h-8.101v-1.617h8.927v-5.93l-7.769-.001zm1.57 46.04c-.276 1.559-.882 3.174-1.818 4.852-.386-.48-.799-.988-1.24-1.527.827-1.438 1.35-2.814 1.57-4.133.22-1.258.331-3.354.331-6.289v-8.266h14.961v10.063c0 4.133.192 6.619.579 7.457.11.359.302.508.579.449.22 0 .358-.21.413-.629.166-1.557.275-2.785.331-3.684.441.18.91.359 1.405.539-.111 1.617-.276 2.816-.496 3.594-.221 1.438-.855 2.156-1.901 2.156-.882-.06-1.516-.689-1.901-1.887-.442-1.078-.662-3.742-.662-7.996v-8.355h-11.655v6.379c0 3.294-.166 5.72-.496 7.277zm-.414 69.618c-.276 1.378-.496 2.396-.661 3.055l-1.57-.539c.661-2.336 1.267-5.031 1.818-8.086.166.061.44.18.827.359.275.121.523.211.744.27-.221.959-.607 2.605-1.158 4.941zm.579-14.015c-.441-.479-1.074-1.106-1.901-1.887-.331-.299-.579-.539-.744-.719l1.075-1.168c.496.42 1.211 1.078 2.149 1.977l.496.539-1.075 1.258zm2.315-96.432c-.827-1.258-1.682-2.395-2.563-3.414l1.24-.988c.936.958 1.845 2.037 2.728 3.234l-1.405 1.168zm.412 177.73c0 2.096-.717 3.651-2.149 4.672l-.744-.811c.992-.777 1.515-1.945 1.57-3.504h-1.405v-2.965h2.728v2.608zm.001-204c0 2.096-.717 3.652-2.149 4.671l-.744-.808c.992-.779 1.515-1.947 1.57-3.504h-1.405v-2.965h2.728v2.606zm-1.571 123.959v-1.527h3.306c-.111-.539-.359-1.438-.744-2.695-.111-.418-.194-.719-.248-.898l1.57-.27c.331.959.662 2.156.992 3.594l-.909.271h3.058v1.526h-4.05c0 1.259-.028 2.427-.083 3.504h3.802v.988c-.111 3.773-.221 6.529-.331 8.267 0 1.737-.772 2.604-2.314 2.604h-1.488l-.248-1.617c.275.061.579.061.909 0h.331c.992.061 1.459-.358 1.405-1.258 0-.418.027-1.078.083-1.977.11-2.574.166-4.402.166-5.48h-2.397v.629c-.111 4.553-.965 7.996-2.562 10.332-.276-.3-.689-.688-1.24-1.168 1.488-2.096 2.286-5.18 2.397-9.254.054-1.557.083-3.414.083-5.57l-1.488-.001zm9.092-54.524c-.386-.479-.964-1.287-1.735-2.426-.882-1.438-1.571-2.484-2.066-3.146-1.378 2.037-2.976 3.984-4.794 5.84-.111-.121-.303-.3-.579-.539-.331-.299-.551-.508-.661-.629 2.094-2.275 3.774-4.342 5.042-6.199l-4.298-6.199 1.322-.988 3.968 5.66c1.046-1.617 2.121-3.623 3.223-6.02l1.405.809c-1.157 2.516-2.37 4.762-3.637 6.738.992 1.318 2.314 3.266 3.967 5.84-.111-.119-.028 0 .248.359l-1.405.9zm-9.753 95.442v2.427h5.125v-2.427h-5.125zm0 3.775v2.427h5.125v-2.427h-5.125zm10.002-44.962c-.661 1.318-1.213 2.307-1.653 2.965-.276-.299-.689-.688-1.24-1.168 1.377-1.977 2.479-4.342 3.306-7.098l1.571.27c-.331 1.021-.662 1.978-.992 2.875h5.373v1.527h-6.034c-.057.121-.166.33-.331.629zm-1.902 8.805v-1.526h3.472v-1.349l2.48-2.694h-4.959v-1.527h6.612v1.707l-2.563 2.965v.898h3.224v1.526h-3.224v4.582c.055 1.617-.716 2.426-2.314 2.426-.442.061-1.157.091-2.149.091 0-.181-.055-.509-.165-.988-.056-.3-.083-.539-.083-.719.385.06 1.046.09 1.983.09.827.06 1.211-.358 1.157-1.258v-4.224h-3.471zm.827 41.459v-20.216h6.943v1.707l-2.232 6.38c1.818 1.737 2.699 3.594 2.646 5.569.054 2.457-.909 3.715-2.893 3.772-.661.062-1.322.09-1.984.09-.055-.657-.165-1.286-.331-1.887.55.062 1.157.09 1.818.09 1.211.062 1.79-.657 1.736-2.155.054-1.617-.827-3.384-2.645-5.302l2.232-6.647h-3.72v18.599h-1.57zm3.72-150.02c-.882 1.078-1.599 1.917-2.149 2.516l-1.157-1.168c1.046-1.137 2.011-2.276 2.893-3.414l1.24 1.078c-.166.24-.442.57-.827.988zm8.629 139.059c-1.157-1.138-2.26-2.156-3.306-3.056l1.075-1.349c1.157.959 2.314 1.947 3.472 2.966l-1.241 1.439zm-1.239-107.394c-.221 1.857-.496 3.805-.827 5.84-.165-.059-.441-.119-.827-.18-.165-.059-.303-.09-.413-.09.385-2.096.661-4.043.827-5.84l1.24.27zm-1.405-35.528v-1.797h19.011v1.797h-7.439c-.827 1.558-1.736 2.965-2.728 4.223h1.405v13.656h-1.819v-13.028c-2.095 2.636-4.74 5.121-7.935 7.457-.056-.059-.138-.18-.248-.359-.442-.598-.744-.988-.909-1.168 4.683-3.234 8.072-6.828 10.167-10.781h-9.505zm11.984 119.252c-1.708.062-2.535-.748-2.479-2.426v-2.965.09c-.607 2.816-3.666 4.792-9.175 5.93-.056-.06-.111-.18-.166-.358-.221-.599-.413-1.019-.579-1.259 5.014-.957 7.741-2.455 8.183-4.491.331-.898.523-2.007.579-3.324h1.653c-.056.959-.166 1.828-.331 2.604h1.405v3.234c-.056 1.02.468 1.497 1.571 1.438h3.141c.992 0 1.542-.39 1.653-1.168.165-.598.275-1.496.331-2.694l1.24.539c.166.062.275.09.331.09v.271c-.111 1.258-.248 2.098-.413 2.516-.221 1.316-1.13 1.977-2.728 1.977h-4.216v-.004zm-9.34 30.856c-.441 1.557-.799 2.755-1.074 3.594l-1.736-.629c1.046-2.994 1.873-5.688 2.479-8.086.22.062.496.149.827.271.385.18.661.301.827.358-.277.959-.717 2.457-1.323 4.492zm.579-13.027c-1.268-1.315-2.343-2.336-3.224-3.055l1.157-1.259 1.323 1.169c.881.778 1.542 1.379 1.983 1.797l-1.239 1.348zm-2.48-30.767v-7.277h1.571v7.277h-1.571zm1.24 8.805v-7.367h14.382v7.098h-1.736v-5.479h-10.993v5.75l-1.653-.002zm3.306-77.345l-.744-.809c-.386-.299-.661-.539-.827-.719v15.633h-1.57v-21.472h1.57v4.402l.248-.359c.771.6 1.488 1.229 2.149 1.887l-.826 1.437zm5.951 97.691c-1.708.061-3.471.149-5.29.27-.055-.238-.111-.568-.165-.988-.111-.299-.166-.508-.166-.629h.909c5.125-.238 9.037-.479 11.737-.719l.248 1.617c-1.818.18-3.692.301-5.621.358v3.773h6.447v1.707h-6.447v3.771h5.125v9.254h-1.736v-1.348h-8.431v1.348h-1.653v-9.254h5.042v-3.771h-6.282v-1.707h6.282l.001-3.682zm-5.868-29.061v-7.996h1.57v7.996h-1.57zm.579-72.853v-1.348h5.538v-1.797h1.653v1.797h5.951v1.348h-5.951v1.617h5.373v1.168h-5.373v1.707h6.282v1.348h-13.969v-1.348h6.034v-1.707h-4.959v-1.168h4.959v-1.617h-5.538zm.744 18.238v-10.871h11.324v8.176c.054 1.676-.772 2.516-2.479 2.516h-1.157c-.772.059-1.322.09-1.653.09-.055-.539-.165-1.078-.331-1.617.606.059 1.488.09 2.645.09.992.059 1.459-.33 1.405-1.168v-.988h-8.183v3.773l-1.571-.001zm4.546 50.572c-.661 1.318-1.434 2.576-2.314 3.773-.442-.479-.882-.838-1.323-1.078 1.488-1.797 2.645-4.043 3.472-6.738l1.653.18c-.221.779-.496 1.527-.827 2.246h7.191v1.617h-7.852zm-3.39 43.794v4.94h8.431v-4.94h-8.431zm.414-103.979v1.707h8.183v-1.707h-8.183zm0 2.965v1.707h8.183v-1.707h-8.183zm9.836-33.372c-3.086-2.456-5.318-4.192-6.695-5.211l1.075-1.348c1.157.779 2.893 2.037 5.208 3.773.771.599 1.322 1.019 1.653 1.257l-1.241 1.529zm-2.149 95.354c-1.599-1.258-3.004-2.305-4.216-3.145l1.075-1.078c1.102.719 2.534 1.738 4.298 3.055l-1.157 1.168zm7.38 32.743c-.331.24-.661.51-.992.81-.331-.359-.744-.777-1.24-1.259 2.699-2.034 4.849-4.401 6.447-7.098l1.736.271c-.331.6-.717 1.229-1.157 1.887h8.018v1.527l-2.397 2.875h5.125v7.456h-13.886v3.324c-.111 1.317.55 1.916 1.983 1.797h9.588c1.488.06 2.314-.479 2.479-1.616 0-.119.054-.39.166-.81.11-.72.192-1.287.248-1.707.275.181.661.358 1.157.539.165 0 .302.03.413.09 0 .181-.028.42-.083.72-.166.959-.304 1.616-.414 1.977-.331 1.677-1.543 2.516-3.637 2.516h-10.498c-2.095.061-3.114-1.019-3.058-3.234v-10.063h.002v-.002zm-1.653-93.827v-1.438h8.431c.054-.18.083-.449.083-.809.054-.359.083-.629.083-.809h1.736c-.055.539-.138 1.078-.248 1.617h8.679v1.438h-8.101c1.046 2.156 3.912 3.473 8.597 3.953-.331.539-.607 1.108-.827 1.707-4.794-.779-7.798-2.336-9.01-4.672-.992 2.336-4.05 4.012-9.175 5.031-.386-.839-.661-1.408-.827-1.707 5.125-.779 7.989-2.215 8.596-4.313h-8.017v.002zm-.33 57.76v-1.707h9.505c-.221-.897-.607-2.006-1.157-3.324l1.818-.358.992 2.426c.166.48.275.81.331.988l-.827.271h8.762v1.707h-12.233c0 1.258-.056 2.547-.166 3.862h9.836c-.111 3.476-.248 6.021-.413 7.638-.056 2.694-1.461 4.013-4.216 3.953h-3.389v-.181c-.111-.778-.221-1.349-.331-1.707h1.488c.827.06 1.459.09 1.901.09 1.873.181 2.81-.688 2.81-2.604.11-.898.22-2.484.331-4.762v-.72h-8.183c-.166 4.492-2.095 8.026-5.786 10.603l-.413-.449c-.496-.479-.799-.809-.909-.988 3.581-2.336 5.399-5.75 5.455-10.242.166-1.438.248-2.934.248-4.492h-5.454v-.004zm.661-68.9v-1.527h5.456c-.276-.359-.827-1.018-1.653-1.977.166.18.027 0-.413-.539l1.57-.629c.937 1.02 1.653 1.887 2.149 2.605l-1.24.539h4.877c.827-.898 1.625-1.916 2.397-3.055l1.736.539c-.607.779-1.295 1.617-2.066 2.516h5.373v1.527h-8.266v2.156h7.274v1.438h-7.274v2.156h8.762v1.527h-19.259v-1.527h8.762v-2.156h-7.191v-1.437h7.191v-2.156h-8.185zm.331-17.29v-20.035h17.441v16.98c.11 1.916-.772 2.875-2.645 2.875-.882.059-1.901.09-3.059.09v-.27c-.056-.359-.166-.898-.331-1.617.55.059 1.459.09 2.728.09 1.212.059 1.763-.42 1.653-1.438v-15.093h-14.134v18.418h-1.653zm11.736 118.485h-7.191c-.772.959-1.626 1.887-2.563 2.785h7.356l2.398-2.785zm-9.092 4.401v4.224h5.29v-4.224h-5.29zm.414-136.991v-1.617h11.407v1.617h-11.407zm1.405 9.703v-7.098h8.514v7.098h-8.514zm1.571-5.481v3.953h5.373v-3.953h-5.373zm8.843 132.769h-5.373v4.224h5.373v-4.224zm25.162-102.991c-.165.42-.304.719-.413.898-.331-.18-.827-.418-1.488-.719-.496-.18-.855-.328-1.075-.449v7.996h-11.82v4.492c1.763-.3 3.389-.629 4.876-.988v1.527c-.331.059-.909.18-1.735.359-1.599.418-2.591.659-2.976.719-.166.059-.469.18-.91.359-.331.059-.551.12-.661.18l-.909-1.438c.496-.359.744-.869.744-1.527v-11.41c-.717.48-1.543.898-2.48 1.258-.056-.18-.248-.508-.579-.988-.165-.238-.276-.418-.331-.539 4.629-1.977 7.907-4.313 9.836-7.008l1.984.18c-.221.24-.413.51-.579.809 2.149 2.396 5.125 4.223 8.927 5.48-.053.18-.192.45-.411.809zm-18.846 72.314v-1.617h9.34v1.617h-3.885v6.02c1.708-.299 3.306-.539 4.794-.719-.056.48-.083 1.049-.083 1.707-4.463.539-7.963.988-10.498 1.348l-.413-1.526c.331-.06.854-.119 1.57-.181 1.267-.18 2.259-.328 2.976-.449v-6.198l-3.801-.002zm-.744-98.767v-1.617h14.3v-1.797h1.736v1.797h3.967v1.617h-3.967v3.414c.11 2.156-.827 3.203-2.811 3.145h-3.058c-.111-.6-.248-1.199-.414-1.797h2.811c1.267.119 1.846-.449 1.736-1.708v-3.054h-14.3zm.082 93.556v-1.707h11.159c-.111-1.438-.166-2.934-.166-4.492h1.736c0 1.559.027 3.055.083 4.492h6.943v1.707h-6.86c0 .6.054 1.469.165 2.605.055.358.083.629.083.809.331 3.594.909 6.26 1.736 7.996.496 1.139 1.128 1.707 1.901 1.707.496.06.881-.301 1.157-1.078.22-1.137.385-2.156.496-3.055.165.061.385.149.661.27.385.18.661.301.827.359-.166 1.379-.386 2.457-.662 3.233-.441 1.558-1.295 2.306-2.562 2.246-1.434 0-2.591-1.078-3.472-3.233-.827-1.978-1.405-4.763-1.736-8.355-.165-1.197-.276-2.365-.331-3.504h-11.158zm3.885 34.181c-.661 1.438-1.461 2.816-2.397 4.134-.166-.181-.579-.509-1.24-.988-.111-.06-.194-.119-.248-.18 1.707-2.216 3.112-4.972 4.215-8.267l1.736.358c-.386 1.14-.799 2.218-1.24 3.234h4.794v-4.762h1.736v4.762h7.604v1.707h-7.604v5.031h6.943v1.798h-6.943v5.57h8.679v1.527h-19.837v-1.527h9.423v-5.57h-7.274v-1.797h7.274v-5.031l-5.621.001zm-2.231-132.05v-1.527h14.382v-2.426h-13.638v-1.438h13.638v-2.336h-14.217v-1.527h15.87v9.254h-16.035zm5.29 9.164c-.331-.3-.882-.838-1.653-1.617-.772-.778-1.323-1.317-1.653-1.617l1.157-1.078c.331.3.992.929 1.984 1.887.715.599 1.211 1.048 1.488 1.348l-1.323 1.077zm9.01 21.063c-2.314-1.197-4.271-2.754-5.869-4.672-1.599 1.797-3.554 3.355-5.869 4.672h11.738zm-11.242 1.348v2.066h10.167v-2.066h-10.167zm0 3.414v2.156h10.167v-2.156h-10.167zm13.142 9.883c-2.039-.958-5.318-2.365-9.836-4.223-.386-.18-.661-.299-.827-.359l.662-1.258c.55.18 1.405.539 2.562 1.078.827.301 1.433.539 1.818.719 1.653-.838 3.141-1.646 4.464-2.426l1.074 1.258c-1.599.898-2.838 1.527-3.719 1.887l4.546 1.887-.744 1.437zm-8.182-14.735c-.221-.777-.524-1.557-.909-2.336l1.488-.449c.385.84.688 1.617.909 2.336l-1.488.449zm7.356 65.666c-1.047-1.197-1.93-2.096-2.646-2.695l1.157-1.078c.165.181.496.48.992.898.881.84 1.459 1.408 1.736 1.707l-1.239 1.168zm13.754 40.558v-3.504c-1.653 2.037-4.436 3.744-8.348 5.121-.165-.479-.441-1.018-.827-1.617 3.472-.897 6.144-2.245 8.018-4.043h-7.439v-1.438h8.596v-2.426c-.772 0-1.957.031-3.554.09h-3.224c-.055-.598-.138-1.078-.248-1.438 4.738 0 9.863-.209 15.374-.629l.248 1.526c-.552 0-1.461.062-2.728.181-1.874.061-3.306.12-4.298.18v2.516h8.679v1.438h-7.439c1.818 1.738 4.463 3.025 7.935 3.863-.331.539-.607 1.049-.827 1.527-3.802-1.137-6.585-2.754-8.348-4.852v3.504l-1.57.001zm-8.43-139.146v-3.863h4.463c-.221-.18-.607-.539-1.157-1.078-.661-.659-1.157-1.137-1.488-1.438l1.405-.719c.275.24.688.629 1.24 1.168.771.66 1.322 1.138 1.653 1.438l-.992.629h3.307v-3.684h1.653v3.684h3.141l-.909-.629c1.102-.898 2.066-1.737 2.893-2.516l1.488.719c-.441.48-1.13 1.078-2.066 1.797-.331.3-.579.509-.744.629h4.629v3.863h-1.653v-2.426h-15.209v2.426h-1.654zm2.81 4.402v-5.031h12.895v5.031h-5.621v1.977h7.439v3.683c.054 1.496-.744 2.275-2.397 2.336-.441.059-1.213.09-2.314.09-.111-.6-.248-1.109-.413-1.527h2.066c.992.06 1.432-.329 1.322-1.168v-1.887h-5.703v6.02h-1.736v-6.02h-5.621v4.492h-1.653v-6.02h7.273v-1.976h-5.537zm2.314 107.572c0 2.098-.717 3.653-2.149 4.672l-.744-.809c.992-.777 1.515-1.945 1.57-3.504h-1.405v-2.965h2.728v2.606zm.001-68.001c0 2.096-.717 3.653-2.149 4.672l-.744-.809c.992-.779 1.515-1.947 1.57-3.504h-1.405v-2.965h2.728v2.606zm-2.729 105.866v-9.883h13.638v9.883h-1.653v-.896h-10.332v.896h-1.653zm1.653-8.534v2.516h10.332v-2.516h-10.332zm0 3.772v2.426h10.332v-2.426h-10.332zm.414-144.359v2.336h9.588v-2.336h-9.588zm17.226 12.938v-17.52h2.231c.166-.598.385-1.467.662-2.605.109-.479.192-.809.248-.988l1.735.27c-.331 1.318-.634 2.426-.909 3.324h3.885v17.34h-1.653v-1.707h-4.546v1.887l-1.653-.001zm1.653-15.902v5.391h4.546v-5.391h-4.546zm0 7.008v5.48h4.546v-5.48h-4.546zm3.471 141.212c0 2.097-.717 3.653-2.149 4.672l-.744-.809c.992-.777 1.515-1.945 1.571-3.504h-1.405v-2.965h2.728l-.001 2.606zm9.507-132.498h-3.472c-.056-.24-.111-.6-.165-1.078-.111-.301-.166-.539-.166-.719h3.306c1.598.119 2.397-.659 2.397-2.336.166-5.331.248-9.194.248-11.59h-5.29c-.551 1.318-1.103 2.516-1.653 3.594-.442-.359-.909-.688-1.405-.988 1.157-2.036 2.176-4.672 3.058-7.906l1.653.449c-.111.479-.304 1.138-.579 1.976-.221.54-.359.93-.413 1.168h6.364v1.438c-.111 5.57-.221 9.613-.331 12.129-.054 2.516-1.238 3.803-3.552 3.863zm-1.405-6.289c-.992-1.617-2.039-3.204-3.141-4.762l1.24-.988c.165.24.44.599.827 1.078 1.046 1.498 1.873 2.695 2.479 3.594l-1.405 1.078zm10.2 6.739v-12.309c-.661 1.199-1.351 2.306-2.066 3.324-.111-.299-.221-.719-.331-1.258-.111-.418-.194-.719-.248-.898 1.928-2.995 3.416-6.409 4.463-10.242l1.653.359c-.607 1.917-1.24 3.684-1.901 5.301v15.723h-1.57zm3.306-15.364v-1.618h5.621v-4.402h1.653v4.402h6.117v1.618h-5.208c1.323 3.953 3.36 7.158 6.117 9.613-.386.48-.717 1.048-.992 1.707-2.866-2.875-4.876-6.318-6.034-10.332v8.535h3.224v1.618h-3.224v4.223h-1.653v-4.223h-3.224v-1.618h3.224v-8.535c-1.268 4.373-3.252 7.937-5.951 10.691-.221-.418-.579-.958-1.074-1.617 2.864-2.754 4.904-6.109 6.116-10.063l-4.712.001zm19.21 9.883c-1.434.3-2.535.539-3.306.719l-.083-1.707c1.433-.18 2.976-.418 4.629-.719v1.527c-.277.061-.69.121-1.24.18zm.578 5.031h-2.232c0-.539-.083-1.109-.248-1.707.496.059 1.267.09 2.314.09 1.157.059 1.708-.42 1.653-1.438.165-1.377.248-3.383.248-6.02h-4.959l.496-7.996h1.488l-.414 6.379h2.232l.579-7.637h-4.711v-1.527h6.282l-.661 9.164h1.24c-.056 1.138-.138 3.055-.248 5.75-.055 1.019-.083 1.738-.083 2.156 0 1.857-.992 2.786-2.976 2.786zm16.201-13.925c-.331.539-.606 1.078-.827 1.617-2.369-1.617-4.271-3.684-5.702-6.199-1.378 2.396-3.308 4.552-5.786 6.469-.056-.18-.194-.449-.413-.809-.166-.359-.304-.629-.414-.809 2.865-1.977 4.931-4.461 6.199-7.457l1.653.18c-.166.359-.331.689-.496.988 1.543 2.636 3.472 4.642 5.786 6.02zm-12.481 13.297v-1.527h7.273c.992-3.114 1.736-5.719 2.232-7.816l1.488.449c-.718 2.516-1.488 4.973-2.314 7.368h3.224v1.527l-11.903-.001zm2.232-2.696c-.331-1.676-.855-3.652-1.57-5.93l1.405-.359c.166.66.22.898.166.719.661 2.216 1.129 3.923 1.405 5.121l-1.406.449zm-.496-8.266v-1.527h8.183v1.527h-8.183zm4.05 7.188c-.276-1.856-.661-3.684-1.157-5.48l1.405-.27c.439 1.797.826 3.594 1.156 5.391l-1.404.359zm13.672 4.133c-1.765-.18-2.756-1.229-2.977-3.145.165-2.036 1.157-3.145 2.977-3.324 1.873.18 2.893 1.289 3.058 3.324-.165 1.916-1.186 2.965-3.058 3.145zm0-5.122c-1.047.121-1.626.779-1.736 1.977.11 1.019.688 1.586 1.736 1.707 1.102-.121 1.708-.688 1.818-1.707-.111-1.197-.716-1.856-1.818-1.977zM39.358 279.76l-2.066-3.594c-.827 1.857-2.095 3.834-3.802 5.93-.386-.6-.744-1.106-1.075-1.527 1.708-1.977 3.003-4.012 3.885-6.107l-3.389-5.75 1.24-.811c.992 1.498 1.956 3.025 2.893 4.582.661-1.977 1.102-4.189 1.323-6.646h-5.373v-1.617h6.943v1.707c-.331 3.115-.938 5.9-1.818 8.355l2.645 4.4-1.406 1.078zm-6.612-46.125v-1.617h2.231v-4.133h1.57v4.133h1.901v1.617h-1.901v4.492l1.984-.629c0 .779.027 1.379.083 1.797l-2.066.629v6.738c.055 1.557-.661 2.336-2.149 2.336h-1.488c0-.539-.056-1.107-.165-1.707h1.074c.827.061 1.211-.24 1.157-.898v-6.02c-.717.24-1.46.51-2.231.809l-.166-1.887c.771-.238 1.57-.479 2.397-.719v-4.941h-2.231zm10.663 9.433c.054 2.875-1.599 4.94-4.959 6.2-.056-.062-.166-.211-.331-.449-.331-.359-.552-.659-.661-.898 2.976-.898 4.435-2.516 4.38-4.852h-2.81v-1.349h10.25l-.662 2.427h3.472l-.331 2.516c-.111 1.497-.938 2.246-2.479 2.246-.442.06-1.434.09-2.976.09-.111-.479-.248-.988-.414-1.527 1.046.062 2.011.09 2.893.09.881.062 1.377-.24 1.488-.896l.083-1.168h-3.637l.661-2.427-3.967-.003zm-3.306-2.156v-6.738c-.111.121-.276.33-.496.629-.111.24-.414.629-.909 1.168l-.909-1.438c1.653-1.797 2.976-4.043 3.967-6.738l1.488.359c-.331.897-.689 1.707-1.074 2.426h4.05c-.331-.719-.744-1.496-1.24-2.336l1.405-.539c.331.6.44.779.331.539.55.959.909 1.588 1.075 1.887l-1.075.449h5.29v1.258h-4.794v1.527h4.381v1.258h-4.381v1.527h4.381v1.168h-4.381v1.617h4.959v1.258h-10.581v.719h-1.487zm5.868 33.547c-.661 3.475-2.756 6.408-6.282 8.805-.111-.18-.303-.42-.579-.719-.331-.359-.551-.629-.661-.809 3.802-2.275 5.923-5.359 6.364-9.254.166-1.316.248-2.785.248-4.402h1.653c0 .359-.028.869-.083 1.527v1.258c.771 4.912 2.782 8.387 6.034 10.422-.442.539-.827 1.078-1.157 1.617-2.975-2.216-4.821-5.031-5.537-8.445zm4.464-3.594c-.386-.238-.882-.418-1.488-.539l1.571-3.684h-7.108c-.552 1.615-1.157 3.145-1.818 4.582-.221-.119-.524-.301-.91-.539-.276-.182-.469-.301-.578-.359 1.211-2.574 2.203-5.42 2.976-8.535l1.653.359c-.111.42-.276 1.02-.496 1.797-.166.479-.277.84-.331 1.078h8.266v1.707l-1.737 4.133zm-8.845-39.027v1.527h4.05v-1.527h-4.05zm0 2.785v1.527h4.05v-1.527h-4.05zm0 2.695v1.617h4.05v-1.617h-4.05zm18.962 38.399c-1.599 2.457-3.224 4.553-4.876 6.289-.111-.061-.331-.24-.661-.539-.331-.3-.579-.51-.744-.629 1.653-1.617 3.25-3.652 4.794-6.109l1.487.988zm2.975-44.778c-2.645.121-5.235.18-7.77.18 0-.598-.083-1.168-.248-1.707 5.951-.119 11.489-.359 16.614-.719l.331 1.797c-2.314.061-4.711.18-7.191.359v4.043h7.274v1.616h-7.274v4.134h9.01v1.707h-9.01v3.594c.054 1.977-.882 2.965-2.81 2.965h-3.389c-.055-.479-.165-1.108-.331-1.887.606.06 1.625.09 3.059.09 1.211.06 1.79-.479 1.735-1.617v-3.145h-9.175v-1.707h9.175v-4.134h-7.687v-1.616h7.687v-3.953zm-7.769 42.352l1.075-9.613c4.904-.059 9.946-.359 15.126-.898l.496 1.707c-4.244.422-8.927.689-14.052.811l-.744 6.379h6.034v-4.762h1.736v4.762h7.77v1.617h-7.77v6.646c.11 1.979-.772 2.965-2.645 2.965h-1.24c-.662.062-1.13.092-1.405.092 0-.12-.056-.33-.166-.629-.111-.659-.193-1.108-.248-1.35.715.062 1.542.09 2.479.09 1.046.062 1.542-.447 1.488-1.525v-6.289l-7.934-.003zm17.027 8.715c-1.764-2.336-3.389-4.432-4.877-6.289l1.323-.988c2.093 2.639 3.773 4.672 5.042 6.109l-1.488 1.168zm12.101-6.199c-1.157-1.676-2.343-3.203-3.554-4.582-.276 4.373-1.626 8.268-4.05 11.682-.166-.182-.496-.479-.992-.898-.221-.18-.386-.33-.496-.447 2.59-3.234 3.968-7.816 4.133-13.746v-.359c.11-2.215.166-4.012.166-5.391h1.736c0 1.977-.083 4.164-.248 6.559l-.083.898.331-.359c1.598 1.857 3.03 3.594 4.298 5.211l-1.241 1.432zm-5.124-31.661c-.386 1.678-1.13 3.354-2.232 5.03-.551-.479-1.103-.929-1.653-1.348 1.102-1.438 1.818-2.875 2.149-4.313.385-1.377.579-3.504.579-6.379v-6.02h8.101c-.276-.658-.717-1.646-1.323-2.965l1.901-.449c.496 1.02.963 2.037 1.405 3.055l-1.074.359h8.1v1.797h-15.375v4.312c0 3.058-.194 5.365-.578 6.921zm9.34 27.348c-.386 4.373-2.343 8.266-5.869 11.68-.442-.539-.909-1.02-1.405-1.438 4.077-3.533 6.144-8.176 6.199-13.926.11-2.518.165-4.461.165-5.842h1.736v2.066c-.055.959-.083 1.678-.083 2.154.385 7.311 2.451 12.342 6.199 15.096-.276.299-.607.719-.992 1.258-.111.182-.194.299-.248.357-3.195-2.749-5.096-6.553-5.702-11.405zm28.467-24.562c-.221.658-.359 1.14-.414 1.438h-5.538c-1.378 0-2.618-.03-3.72-.09-2.756-.062-4.85-.988-6.282-2.785-.276-.238-.552-.238-.827 0-1.103 1.078-1.93 2.036-2.48 2.875l-.826-1.797.744-.81 1.405-1.528c.661-.657 1.184-.987 1.57-.987h.331c.11.062.192.09.248.09 4.353-2.875 8.237-6.108 11.655-9.703h-14.381v-1.706h8.431c-.331-1.019-.882-2.216-1.653-3.595l1.736-.539c.827 1.617 1.405 2.875 1.736 3.772l-1.157.359h7.604v1.887c-3.748 4.193-7.964 7.759-12.646 10.691 1.102 1.379 2.782 2.099 5.042 2.156h9.504999999999999l-.083.272zm-18.515 20.16v-1.617h7.77v-3.684h1.653v3.684h7.77v1.617h-7.77v3.953h8.927v1.707h-7.935c1.928 3.055 4.629 5.451 8.101 7.188l-1.075 1.527c-3.692-2.035-6.365-4.641-8.018-7.816v9.613h-1.653v-9.613c-1.984 3.477-4.684 6.199-8.1 8.178-.442-.779-.8-1.26-1.075-1.438 3.582-2.035 6.309-4.582 8.183-7.638h-8.018v-1.707h9.009v-3.953l-7.769-.001zm20.615-34.356v-1.617h3.802c-.165-.418-.386-1.078-.661-1.977-.166-.418-.276-.748-.331-.988l1.57-.449.579 1.617.496 1.617-.579.18h2.976v1.617h-4.546l-.083 3.324h3.968c-.056 1.379-.111 3.772-.166 7.188-.056 1.139-.083 1.977-.083 2.516 0 1.916-.827 2.875-2.48 2.875h-1.818c0-.061-.028-.18-.083-.357 0-.24-.083-.689-.248-1.35.385.062.963.09 1.736.09.992.062 1.459-.479 1.405-1.617.054-1.076.11-2.783.165-5.119.054-1.197.083-2.066.083-2.605h-2.563c-.056 5.152-.855 8.984-2.397 11.5l-1.24-1.168c1.488-2.033 2.203-5.688 2.149-10.961.054-1.377.083-2.813.083-4.313h-1.734v-.003zm1.984 50.528v-12.578c-.607 1.258-1.24 2.486-1.901 3.686-.165-.777-.331-1.527-.496-2.246 1.653-2.994 2.92-6.438 3.802-10.332l1.57.449c-.442 1.615-.909 3.176-1.405 4.672v16.354h-1.57v-.005zm2.893-7.098v-3.324h14.547v3.324h-1.488v-1.887h-11.572v1.887h-1.487zm.496-10.691v-1.438h6.282c-.056-.299-.166-.777-.331-1.438-.056-.238-.111-.418-.166-.539l1.653-.182c.054.182.109.42.165.721.166.6.275 1.076.331 1.438h5.951v1.438h-13.885zm1.405 12.129v-1.438h10.746v1.438h-3.968v3.057c.054 1.557-.634 2.306-2.066 2.246-.441.06-1.351.09-2.728.09 0-.062-.028-.182-.083-.359-.056-.537-.138-.959-.248-1.258.496.061 1.267.09 2.314.09.826 0 1.24-.328 1.24-.986v-2.875h-5.207v-.005zm.165-6.29v-4.313h10.415v4.313h-10.415zm3.968-39.656c-.661 1.379-1.488 2.695-2.479 3.953-.331-.418-.717-.81-1.157-1.168 1.653-1.978 2.865-4.224 3.637-6.738l1.653.27c-.111.359-.331.959-.661 1.797-.056.181-.111.302-.166.359h7.522v1.527h-8.349zm-2.48 36.602v1.707h7.439v-1.707h-7.439zm10.745-20.61l-.661.719c-3.306-2.574-5.125-6.559-5.455-11.949-.717.061-1.461.15-2.232.27v9.884c.166-.061.44-.182.827-.359.44-.236 1.294-.629 2.563-1.168v.721c.054.42.083.719.083.896-1.269.479-2.453 1.02-3.554 1.616-.496.239-.882.448-1.157.63l-.909-1.35c.44-.479.633-1.018.579-1.617v-10.689c2.864-.299 5.813-.81 8.844-1.526l.579 1.616c-1.213.359-2.618.63-4.216.81.275 1.617.523 2.996.744 4.133.55-.299 1.35-.809 2.397-1.527.44-.238.744-.418.909-.539l.909 1.438c-.276.18-.688.42-1.24.719-1.047.601-1.874 1.078-2.479 1.438.771 2.037 2.121 3.715 4.05 5.03-.113.175-.305.445-.581.804zm3.506 22.856v-7.727h8.761v7.727h-7.191l1.488.27c-.221.48-.496.988-.827 1.527h7.274c0 1.021-.056 2.756-.166 5.211-.056.719-.083 1.258-.083 1.617-.056 2.336-1.047 3.504-2.976 3.504-.276 0-.69.029-1.24.09h-.827c0-.061-.028-.18-.083-.357-.056-.539-.139-.959-.248-1.26.331.062.992.092 1.983.092 1.267.117 1.928-.658 1.984-2.338.11-1.914.166-3.65.166-5.211h-3.885l1.24.271c-.056.121-.111.303-.166.539-.111.301-.194.51-.248.629.275.24.716.629 1.323 1.168.55.539.963.932 1.24 1.168l-.992 1.078c-.662-.775-1.378-1.525-2.149-2.246-.441.898-1.074 1.648-1.901 2.246-.442-.479-.772-.811-.992-.986 1.376-.957 2.231-2.246 2.562-3.863h-2.645c-.331.42-.689.869-1.074 1.348h.909v4.223h4.959v1.349h-6.365v-5.03l-.496.448c-.055-.06-.138-.209-.248-.448-.221-.359-.413-.629-.579-.811 1.377-1.258 2.397-2.664 3.059-4.223h-1.567v-.005zm1.404-6.379v1.887h5.869v-1.887h-5.869zm0 3.144v1.887h5.869v-1.887h-5.869zm3.141-21.957c0 2.096-.717 3.651-2.149 4.672l-.744-.811c.992-.777 1.515-1.945 1.571-3.504h-1.405v-2.965h2.728l-.001 2.608zm9.258 29.504c-.386 3.354-1.708 6.139-3.967 8.354-.331-.42-.717-.868-1.157-1.348 2.534-2.035 3.912-5.15 4.133-9.346.165-1.258.22-2.693.165-4.312h1.571c0 1.258-.056 2.396-.166 3.414.606 4.373 2.066 7.668 4.381 9.883-.056.062-.111.149-.165.271-.221.3-.524.72-.91 1.259-2.039-2.155-3.335-4.88-3.885-8.175zm3.389-4.312c-.496-.119-.965-.27-1.405-.449l1.157-3.594h-4.546c-.496 1.617-1.103 3.145-1.819 4.582-.386-.359-.826-.688-1.322-.988 1.267-2.336 2.231-5.09 2.893-8.266l1.488.27c-.221 1.021-.469 1.979-.744 2.875h5.538v1.617l-1.24 3.953zm8.547 12.039c-1.764-.18-2.756-1.229-2.976-3.145.166-2.035 1.157-3.146 2.976-3.324 1.873.18 2.893 1.289 3.059 3.324-.166 1.916-1.187 2.965-3.059 3.145zm0-5.121c-1.047.121-1.626.779-1.736 1.977.11 1.021.688 1.589 1.736 1.707 1.102-.118 1.708-.688 1.818-1.707-.111-1.198-.717-1.856-1.818-1.977z"/></svg>