<?xml version="1.0" encoding="utf-8"?>
<!-- Generator: Adobe Illustrator 16.0.0, SVG Export Plug-In . SVG Version: 6.00 Build 0)  -->
<!DOCTYPE svg PUBLIC "-//W3C//DTD SVG 1.1//EN" "http://www.w3.org/Graphics/SVG/1.1/DTD/svg11.dtd">
<svg version="1.1" id="图层_1" xmlns="http://www.w3.org/2000/svg" xmlns:xlink="http://www.w3.org/1999/xlink" x="0px" y="0px"
	 width="640px" height="120px" viewBox="0 0 640 120" enable-background="new 0 0 640 120" xml:space="preserve">
<g enable-background="new    ">
	<rect fill="none" width="640" height="120"/>
	<path fill="#E9DD50" d="M319,119c-32.584,0-59-26.416-59-59c0-32.586,26.416-59,59-59s59,26.414,59,59
		C378,92.584,351.584,119,319,119z M319,117c31.43,0,57-25.57,57-57c0-31.43-25.57-57-57-57c-31.431,0-57,25.57-57,57
		C262,91.43,287.57,117,319,117"/>
	<path fill="#F2E54B" d="M319,119c-32.584,0-59-26.416-59-59c0-32.586,26.416-59,59-59s59,26.414,59,59
		C378,92.584,351.584,119,319,119z M319,117c31.43,0,57-25.57,57-57c0-31.43-25.57-57-57-57c-31.431,0-57,25.57-57,57
		C262,91.43,287.57,117,319,117"/>
</g>
<rect x="286.191" y="57.552" fill="#FCED43" width="8.114" height="1.622"/>
<rect x="286.191" y="64.273" fill="#FCED43" width="8.114" height="1.623"/>
<rect x="286.191" y="60.951" fill="#FCED43" width="8.114" height="1.546"/>
<path fill="#FCED43" d="M323.438,61.956h2.782v-4.637h-2.782V61.956z M324.829,58.015c0.104,0.207,0.259,0.516,0.464,0.928
	c0.36,0.669,0.618,1.186,0.772,1.545l-1.469,0.773c-0.154-0.411-0.387-0.953-0.695-1.623c-0.154-0.413-0.283-0.721-0.387-0.928
	L324.829,58.015z"/>
<path fill="#FCED43" d="M319.488,6.83c-29.634,0-53.657,24.022-53.657,53.658c0,29.634,24.023,53.659,53.657,53.659
	c29.634,0,53.658-24.023,53.658-53.659C373.146,30.852,349.121,6.83,319.488,6.83z M331.09,29.792l2.316,0.231
	c-0.051,0.155-0.128,0.413-0.23,0.773c-0.153,0.309-0.258,0.567-0.311,0.772h6.104v2.009h-5.102c0.723,0.464,1.701,1.21,2.938,2.241
	c0.053,0.052,0.104,0.104,0.154,0.154l-1.699,1.313c-0.824-0.823-1.805-1.7-2.938-2.627l1.546-1.082h-1.933
	c-0.565,1.082-1.236,2.086-2.01,3.014l-1.775-1.313C329.44,33.838,330.419,32.008,331.09,29.792z M324.906,39.606v4.405h-2.316
	V37.52h14.063v6.259h-2.317v-4.173H324.906z M325.681,29.87h2.241v6.878h-2.241V29.87z M321.43,30.333h2.241v6.337h-2.241V30.333z
	 M327.922,43.084c0.358-0.722,0.539-1.649,0.539-2.782h2.396c-0.053,0.618-0.182,1.314-0.388,2.086h1.47v2.55
	c-0.053,0.773,0.31,1.133,1.082,1.082h2.316c0.876,0,1.341-0.334,1.393-1.004c0.154-0.412,0.258-1.185,0.309-2.318
	c0.772,0.206,1.495,0.438,2.164,0.695c-0.052,0.927-0.206,1.829-0.463,2.705c-0.258,1.185-1.16,1.751-2.705,1.7h-4.019
	c-1.599,0-2.396-0.695-2.396-2.086v-1.236c-1.082,1.803-3.786,3.091-8.113,3.863c-0.206-0.618-0.516-1.34-0.929-2.164
	C324.957,45.608,327.405,44.579,327.922,43.084z M332.018,55.001c-0.154-0.464-0.283-0.824-0.388-1.082l2.396-0.31
	c0.154,0.464,0.36,1.083,0.618,1.855c0.153,0.413,0.258,0.722,0.31,0.927h3.556v2.087h-9.66v-2.087h3.634
	C332.377,56.083,332.223,55.619,332.018,55.001z M316.561,44.862V29.947h2.088v15.532c0.104,1.649-0.671,2.473-2.318,2.473
	c-0.412,0.051-1.288,0.078-2.628,0.078c-0.052-0.619-0.206-1.288-0.464-2.01c0.979,0,1.701,0,2.165,0
	C316.225,46.072,316.612,45.686,316.561,44.862z M313.006,31.956h1.933V43.78h-1.933V31.956z M305.356,35.125v-2.164h2.705
	c-0.051-0.103-0.104-0.257-0.154-0.464c-0.31-1.03-0.541-1.777-0.694-2.241l2.24-0.309c0.104,0.36,0.257,0.876,0.464,1.545
	c0.205,0.67,0.36,1.159,0.464,1.468h1.932v2.164h-0.852c-0.309,2.886-0.799,5.127-1.468,6.723c0.772,1.288,1.57,2.705,2.396,4.25
	l-1.7,1.236l-1.776-3.168c-0.619,1.237-1.674,2.601-3.168,4.096c-0.104-0.104-0.283-0.36-0.541-0.771
	c-0.359-0.464-0.645-0.824-0.85-1.083c1.495-1.391,2.626-2.884,3.4-4.482c-0.259-0.514-0.67-1.236-1.236-2.164
	c-0.618-1.132-1.057-1.932-1.312-2.396l1.623-1.082l1.854,3.168c0.359-1.287,0.618-2.73,0.772-4.328h-4.097L305.356,35.125
	L305.356,35.125z M303.192,48.107l-2.164-0.618c0.36-0.979,0.823-2.833,1.392-5.564c0.154-0.566,0.258-1.004,0.31-1.313
	c0.257,0.104,0.721,0.258,1.391,0.464c0.31,0.104,0.541,0.181,0.695,0.232C304.3,43.522,303.759,45.789,303.192,48.107z
	 M303.037,30.102c0.772,1.082,1.441,2.087,2.01,3.014l-1.933,1.004c-0.206-0.309-0.541-0.823-1.004-1.545
	c-0.464-0.722-0.8-1.236-1.005-1.546L303.037,30.102z M302.496,35.279c0.155,0.206,0.387,0.515,0.696,0.927
	c0.721,0.979,1.209,1.7,1.468,2.164l-1.932,1.005c-0.568-0.927-1.263-1.982-2.087-3.168L302.496,35.279z M281.94,72.156
	c-0.309-0.772-0.618-1.416-0.927-1.932c1.649-0.36,3.864-1.082,6.646-2.164l1.158,1.776C286.294,70.768,284,71.539,281.94,72.156z
	 M298.556,72.08c-2.782-0.979-5.05-1.727-6.801-2.241l0.85-1.778c0.669,0.207,1.727,0.543,3.168,1.006
	c1.751,0.517,2.987,0.852,3.709,1.004L298.556,72.08z M299.637,67.829h-18.701v-1.933h2.937V57.55h-2.627v-1.933h2.627v-2.01h2.317
	v2.01h8.114v-2.01h2.396v2.01h2.55v1.933h-2.55v8.347h2.937V67.829L299.637,67.829z M304.892,72.08h-2.164v-9.583
	c-0.515,0.927-1.082,1.829-1.7,2.705c-0.052-0.206-0.104-0.541-0.154-1.005c-0.154-0.928-0.259-1.598-0.31-2.01
	c1.596-2.781,2.756-5.643,3.478-8.58l2.318,0.619c-0.464,1.288-0.956,2.601-1.469,3.941L304.892,72.08L304.892,72.08z
	 M307.056,68.834v-6.878l-1.236,0.31l-0.386-2.164l1.623-0.387v-4.25h2.164v3.709l2.396-0.618V53.61h2.164v4.329l4.714-1.16
	c-0.052,2.937-0.129,5.178-0.231,6.724c0,1.7-0.592,2.55-1.776,2.55c-0.464,0.104-1.107,0.154-1.933,0.154
	c-0.052-0.154-0.104-0.387-0.154-0.695c-0.104-0.566-0.207-1.029-0.31-1.391c0.31,0,0.694,0,1.158,0
	c0.67,0.052,0.979-0.311,0.928-1.082c0.104-1.441,0.154-2.628,0.154-3.555l-2.551,0.695v7.959h-2.164V60.72l-2.396,0.695v6.646
	c-0.052,1.135,0.489,1.676,1.623,1.625h4.327c1.133,0,1.751-0.414,1.854-1.236c0.204-0.723,0.334-1.417,0.386-2.088
	c0.359,0.104,0.875,0.283,1.546,0.541c0.258,0.104,0.438,0.182,0.541,0.231c-0.154,1.134-0.36,2.034-0.618,2.705
	c-0.31,1.185-1.341,1.752-3.092,1.7h-5.873C307.956,71.591,307.004,70.688,307.056,68.834z M328.5,99l-8.125-4.924L312.25,99v-3.5
	l8-4.85V90.5l0.125,0.076L320.5,90.5v0.15l8,4.85V99z M328.5,91l-8.125-4.924L312.25,91v-3.5l8-4.85V82.5l0.125,0.076L320.5,82.5
	v0.15l8,4.85V91z M338.972,69.605c-0.153,1.289-0.799,1.934-1.934,1.934h-0.926c-1.289,0.052-1.906-0.619-1.854-2.01V62.65h-2.164
	v1.006c0.154,3.761-0.694,6.568-2.55,8.424c-0.258-0.258-0.799-0.747-1.622-1.469c-0.155,0.771-0.748,1.185-1.778,1.236
	c-0.515,0-1.134,0-1.854,0c-0.052-0.259-0.129-0.646-0.23-1.16c-0.052-0.311-0.104-0.565-0.154-0.771c0.413,0,0.876,0,1.392,0
	c0.671,0.052,0.979-0.207,0.928-0.771v-5.256h-2.781c0,3.451-0.464,6.207-1.392,8.27c-0.723-0.617-1.264-1.106-1.622-1.469
	c0.771-1.647,1.132-3.916,1.081-6.801h-1.004v-1.933h1.004v-6.492h1.933c0.052-0.205,0.129-0.541,0.231-1.004
	c0.052-0.413,0.104-0.721,0.154-0.927l2.163,0.155c0,0.103-0.024,0.231-0.077,0.386c-0.104,0.31-0.258,0.773-0.464,1.391h2.627
	v14.296c0,0.207-0.024,0.413-0.077,0.618c1.494-1.339,2.164-3.58,2.011-6.723v-3.092h6.259v8.347c0,0.515,0.182,0.747,0.541,0.694
	h0.154c0.36,0.053,0.565-0.205,0.617-0.771c0.104-1.134,0.155-2.268,0.155-3.4c0.617,0.207,1.134,0.387,1.545,0.541
	C339.178,67.52,339.074,68.73,338.972,69.605z M323.517,65.434l1.391-0.693c0.155,0.359,0.413,0.951,0.773,1.775
	c0.205,0.412,0.358,0.721,0.463,0.928l-1.469,0.695L323.517,65.434z M355.818,71.925c-1.494,0.052-2.705-0.823-3.633-2.627
	c-1.287,0.67-2.757,1.339-4.404,2.009l-0.851-1.468c-1.029,0.205-2.705,0.515-5.022,0.929c-0.566,0.103-1.005,0.181-1.313,0.23
	l-0.386-2.087c0.257-0.052,0.745-0.129,1.467-0.231c2.475-0.359,4.251-0.644,5.333-0.851c0,0.207-0.024,0.464-0.077,0.772
	c0,0.31,0,0.541,0,0.694c1.7-0.671,3.168-1.34,4.404-2.01c-0.412-1.394-0.67-2.552-0.771-3.479l-3.015,0.387l-0.311-2.01
	l3.015-0.387c-0.053-0.721-0.129-1.417-0.23-2.086l-2.396,0.231l-0.154-1.236c-1.854,2.885-3.168,4.869-3.94,5.951
	c1.031-0.155,2.188-0.283,3.479-0.388c0,0.207-0.024,0.516-0.077,0.929c0,0.411-0.025,0.721-0.077,0.928
	c-2.627,0.308-4.508,0.565-5.642,0.772l-0.695-1.778c0.566-0.411,1.03-0.876,1.392-1.392c0.053-0.052,0.129-0.182,0.231-0.386
	c0.359-0.466,0.771-1.108,1.235-1.934c-0.979,0-1.854,0.077-2.627,0.231l-0.618-1.934c0.36-0.309,0.694-0.696,1.004-1.159
	c0.825-1.39,1.675-3.065,2.551-5.023l2.241,0.696c-0.565,0.979-1.364,2.318-2.396,4.018c-0.411,0.619-0.693,1.057-0.85,1.312
	l1.932-0.077l1.083-1.932l1.699,0.772v-0.31l2.551-0.309c-0.104-1.339-0.153-2.679-0.153-4.018h2.239
	c0,1.391,0.053,2.653,0.155,3.786l3.322-0.386c-0.413-0.36-1.058-0.875-1.934-1.545c-0.257-0.155-0.438-0.283-0.541-0.387
	l1.393-1.392c0.259,0.155,0.617,0.413,1.082,0.773c0.669,0.413,1.158,0.747,1.469,1.005l-1.393,1.545l2.551-0.31l0.23,1.933
	l-6.104,0.696c0,0.257,0.024,0.592,0.077,1.004c0,0.516,0.024,0.875,0.077,1.083l6.26-0.928l0.23,2.01l-6.183,0.929
	c0.154,0.928,0.359,1.752,0.618,2.473c1.082-0.771,2.216-1.727,3.398-2.858l1.47,1.313c-1.441,1.392-2.809,2.575-4.097,3.556
	c0.412,1.133,0.979,1.7,1.7,1.7c0.359,0,0.645-0.282,0.85-0.852c0.155-0.618,0.336-1.392,0.541-2.318
	c0.104,0.054,0.283,0.129,0.541,0.231c0.618,0.359,1.058,0.593,1.314,0.695c-0.155,0.928-0.361,1.75-0.619,2.474
	C358.032,71.255,357.157,71.925,355.818,71.925z"/>
</svg>
