<svg xmlns="http://www.w3.org/2000/svg" width="640" height="750" viewBox="0 0 640 750"><path fill="#52B1DF" d="M576 284l10 1.467-10 9.533z"/><path fill="#7CD2FC" d="M486 257h100v29h-100z"/><path fill="#fff" d="M504.314 277.578c2.296-.094 3.75-1.359 4.356-3.797l1.828.422c-.891 3.047-2.93 4.593-6.117 4.641-4.032-.235-6.164-2.555-6.396-6.961.187-4.781 2.363-7.289 6.539-7.523 2.672.094 4.567 1.453 5.692 4.078l-1.758.422c-.844-2.015-2.204-3.047-4.078-3.094-2.856.281-4.43 2.274-4.711 5.977.191 3.609 1.738 5.554 4.645 5.835zm18.129 1.055v-1.266h-7.242v-12.797h-1.617v14.063h8.859zm3.428 0h1.547v-14.063h-1.547v14.063zm11.52-1.055c2.297-.094 3.75-1.359 4.359-3.797l1.828.422c-.891 3.047-2.93 4.593-6.117 4.641-4.032-.235-6.164-2.555-6.398-6.961.188-4.781 2.366-7.289 6.539-7.523 2.675.094 4.57 1.453 5.695 4.078l-1.758.422c-.844-2.015-2.204-3.047-4.078-3.094-2.859.281-4.43 2.274-4.711 5.977.188 3.609 1.733 5.554 4.641 5.835zm18.752 1.055l-5.062-7.242-2.813 2.813v4.43h-1.614v-14.064h1.614v7.664l7.523-7.664h2.25l-5.977 5.836 6.258 8.227h-2.179zm7.093-.07v-2.039h-2.183v2.039h2.183zm6.524 0v-2.039h-2.18v2.039h2.18zm6.523 0v-2.039h-2.18v2.039h2.18z"/><path fill="#9DDFFE" d="M336 299h248c2.761 0 5 2.24 5 5v80c0 2.761-2.239 5-5 5h-248c-2.761 0-5-2.239-5-5v-80c0-2.76 2.239-5 5-5z"/><path fill="#F48510" d="M336 388c-2.206 0-4-1.794-4-4v-80c0-2.206 1.794-4 4-4h248c2.206 0 4 1.794 4 4v80c0 2.206-1.794 4-4 4h-248"/><g fill="#F78B3C"><path d="M584 388h-30.25l-99-88h129.25zM455 300h129c2.206 0 4 1.794 4 4v80c0 2.206-1.794 4-4 4"/></g><path fill="#FFD598" d="M364.523 365.327c-.203 3.725-2.438 5.688-6.703 5.891-3.793 0-6.096-1.793-6.906-5.383l2.336-.609c.406 2.777 1.861 4.164 4.367 4.164 3.047 0 4.57-1.422 4.57-4.266-.203-2.438-1.765-3.723-4.674-3.859h-1.826v-1.828h1.016c2.91-.066 4.434-1.354 4.57-3.858-.14-2.166-1.287-3.283-3.453-3.353-2.305.068-3.691 1.355-4.164 3.859l-2.234-.711c.812-3.317 2.91-5.01 6.297-5.078 3.859.136 5.855 1.896 5.992 5.281-.068 2.233-1.219 3.758-3.453 4.57 2.707.813 4.129 2.541 4.265 5.18zm5.873 5.688v-1.522h4.977v-18.688h-6.805v20.211h1.828zm3.352-18.485v6.602h-3.352v-6.602h3.352zm-3.352 8.43h3.352v6.703h-3.352v-6.703zm11.985 3.047c-.812 2.844-3.285 5.281-7.414 7.313.271.338.711.914 1.32 1.727 4.469-2.438 7.109-5.45 7.922-9.039h6.703v-7.82h-4.773l2.539-3.352v-1.727h-6.297c.338-.744.711-1.455 1.117-2.134l-2.031-.305c-1.016 2.438-2.676 4.74-4.977 6.906.338.271.643.576.914.914v7.516h4.977zm4.164-11.172l-2.539 3.352h-5.383c.947-1.016 1.828-2.133 2.641-3.352h5.281zm-3.758 9.445h-3.555v-4.47h4.062c0 1.625-.137 2.98-.405 4.063l-.102.407zm6.297 10.158c1.625.065 2.572-.712 2.844-2.337.137-.405.271-1.184.406-2.336v-.202c-.609-.203-1.152-.406-1.625-.609 0 .203-.035.542-.102 1.016-.068.746-.14 1.253-.203 1.523-.139.879-.68 1.285-1.625 1.219h-1.625c-.949 0-1.391-.373-1.32-1.117v-4.772h-1.828v5.078c-.066 1.76.846 2.604 2.742 2.538h2.336v-.001zm-3.961-14.626h3.961v4.469h-4.469c0-.067.033-.135.102-.203.135-1.016.269-2.438.406-4.266zm23.74 6.296h-2.847v-13.813h-1.625l-9.749 14.422v1.219h9.346v4.978h2.028v-4.978h2.847v-1.828zm-5.281-9.546c.066-.136.135-.306.203-.509.135-.203.203-.338.203-.405v10.461h-6.906c3.25-4.942 5.416-8.126 6.5-9.547zm19.688-2.336c0 1.693-.065 3.726-.2 6.095h-10.769v2.03h10.563c-.681 4.537-4.232 8.093-10.664 10.664.405.406.879 1.017 1.422 1.828 6.229-2.574 9.783-6.127 10.664-10.664 1.219 4.875 4.875 8.328 10.969 10.359.066-.137.203-.373.406-.711.338-.543.643-.982.914-1.32-6.095-1.557-9.717-4.941-10.867-10.156h10.664v-2.03h-11.07c.066-1.354.104-3.386.104-6.095h9.646v-2.03h-21.328v2.03h9.546z"/><path fill="#fff" d="M352.92 340.287v-12.422c-.393.079-.979.273-1.758.586l-1.055.352c-.157-.39-.434-.976-.82-1.758-.234-.546-.432-.976-.586-1.289 4.529-1.015 8.086-2.421 10.664-4.219h-9.729v-2.695h11.722v-2.344h-5.51c-1.404 0-2.693.04-3.865.117-.08-1.015-.234-1.913-.472-2.695 7.892 0 15.354-.235 22.386-.703l.469 2.813c-3.047.079-6.29.195-9.729.352v2.461h11.722v2.695h-9.847c2.578 1.798 6.097 3.125 10.548 3.983-.078.234-.232.548-.47.938-.157.392-.431 1.055-.817 1.993-.472-.077-1.058-.234-1.761-.469-.392-.156-.702-.273-.938-.353v12.656h-3.398v-1.172h-13.476v1.172h-3.28v.001zm8.437-13.945v-3.281c-1.801 1.563-4.104 2.971-6.914 4.219h17.461c-2.973-1.094-5.394-2.538-7.269-4.335v3.397h-3.278zm-5.156 3.515v2.344h13.477v-2.344h-13.477zm0 4.571v2.345h13.477v-2.345h-13.477zm26.016-7.5c-1.328-1.952-2.501-3.593-3.516-4.922l2.812-1.522c1.248 1.405 2.498 2.97 3.75 4.688l-3.046 1.756zm4.101 5.156c-.234.234-.434.392-.586.469-.395-.858-.666-1.562-.82-2.109-.395 1.563-.979 4.062-1.758 7.5-.234 1.014-.395 1.796-.471 2.344l-3.517-.938c.938-3.047 1.796-6.521 2.578-10.43.856.392 1.796.703 2.812.938l-.115-.47c2.654-1.482 4.727-3.318 6.211-5.507h-5.272v-2.812h4.806v-2.931h-3.634v-2.812h3.634v-2.93h3.164v2.93h5.038v-2.93h3.164v2.93h4.104v2.812h-4.104v2.931h5.156v2.812h-5.508c1.406 2.109 3.396 3.711 5.977 4.805l-1.405 3.048c-1.721-.938-3.162-1.952-4.337-3.048v5.625h-10.075v1.056c0 1.095.586 1.641 1.758 1.641h7.266c1.249 0 1.992-.469 2.229-1.406 0-.155.036-.39.114-.702 0-.234.117-.938.354-2.109.938.392 1.913.703 2.93.938-.232 1.485-.469 2.578-.703 3.281-.469 1.796-1.915 2.695-4.336 2.695h-9.021c-2.346 0-3.559-1.134-3.635-3.399v-5.741c-.474.387-1.139.894-1.998 1.519zm-3.398-13.008c-.393-.625-.979-1.523-1.758-2.695-.703-.938-1.251-1.679-1.641-2.227l2.93-1.524 3.633 4.688-3.164 1.758zm8.437 10.195v2.577h7.028v-2.577h-7.028zm2.696-5.39c-.626 1.017-1.289 1.954-1.992 2.813h7.617c-.703-.859-1.329-1.796-1.875-2.813h-3.75zm-.703-5.742v2.931h5.039v-2.931h-5.039zm16.289 6.914h17.109v2.931h-17.109v-2.931zm19.687-7.617v-2.695h12.305c-.234-.858-.469-1.601-.703-2.227l4.104-.352c.077.312.191.782.352 1.406.077.469.155.859.234 1.171h11.953v2.695l-28.245.002zm7.617 19.804v-6.211h13.125v6.211h.817c1.406.077 2.069-.469 1.992-1.642v-6.211h-18.75v10.782h-3.396v-13.477h25.547v9.844c.076 2.265-1.098 3.437-3.519 3.515-1.095.077-2.578.118-4.453.118-.077-.158-.114-.431-.114-.82-.234-.86-.434-1.563-.586-2.108l-10.663-.001zm-3.398-12.07v-6.211h19.805v6.211h-19.805zm3.398-3.984v1.875h13.008v-1.875h-13.008zm3.282 11.952v2.109h6.445v-2.109h-6.445zm19.453-13.359v-3.047h3.519c.077-.547.191-1.366.352-2.461.077-.78.155-1.407.234-1.875l3.164.352-.586 3.984h4.45v3.047h-5.153c-.86 3.983-2.695 8.126-5.508 12.422-.234-1.406-.551-2.852-.938-4.336 1.483-2.421 2.616-5.116 3.398-8.086h-2.932zm3.75 18.047c-.779.077-1.521.233-2.227.469l-1.172-2.227.352-.352c.78-.703 1.289-1.366 1.523-1.992 1.796-3.826 3.164-7.383 4.102-10.664l2.93.82c-1.72 4.532-3.318 8.32-4.805 11.367l3.984-.352-1.523-4.688 2.461-.585c.393 1.25.938 2.93 1.644 5.039.469 1.562.855 2.812 1.172 3.75l-2.461.703-.586-1.875c-.548.077-1.368.155-2.461.233-1.333.158-2.309.275-2.933.354zm8.672 2.578v-16.289c-.154.233-.431.626-.817 1.172-.395.469-.703.859-.938 1.171-.156-.858-.548-2.03-1.172-3.515 2.344-2.969 4.062-6.484 5.156-10.548l3.281.469c-.079.157-.157.352-.234.586-.548 1.719-1.055 3.008-1.523 3.867h4.338c-.156-.704-.55-1.797-1.174-3.281l-.352-.703 3.047-.586c.703 1.485 1.249 2.97 1.641 4.453l-.469.117h4.453v2.812h-4.922v3.281h4.453v2.812h-4.453v3.517h4.453v2.694h-4.453v3.517h5.039v2.578h-12.305v1.875h-3.049v.001zm3.046-20.273v3.281h4.219v-3.281h-4.219zm0 6.094v3.517h4.219v-3.517h-4.219zm0 6.211v3.517h4.219v-3.517h-4.219zm15-7.383h17.106v2.931h-17.106v-2.931zm23.79 15.234v-12.422c-.392.079-.978.273-1.758.586l-1.055.352c-.157-.39-.431-.976-.82-1.758-.231-.546-.431-.976-.586-1.289 4.53-1.015 8.086-2.421 10.664-4.219h-9.727v-2.695h11.719v-2.344h-5.508c-1.406 0-2.695.04-3.867.117-.079-1.015-.234-1.913-.469-2.695 7.89 0 15.352-.235 22.383-.703l.469 2.813c-3.047.079-6.29.195-9.727.352v2.461h11.719v2.695h-9.844c2.578 1.798 6.094 3.125 10.547 3.983-.079.234-.234.548-.469.938l-.82 1.993c-.469-.077-1.055-.234-1.758-.469-.395-.156-.703-.273-.938-.353v12.656h-3.396v-1.172h-13.479v1.172h-3.28v.001zm8.437-13.945v-3.281c-1.798 1.563-4.102 2.971-6.914 4.219h17.461c-2.97-1.094-5.391-2.538-7.266-4.335v3.397h-3.281zm-5.156 3.515v2.344h13.479v-2.344h-13.479zm0 4.571v2.345h13.479v-2.345h-13.479zm26.015-7.5c-1.329-1.952-2.501-3.593-3.519-4.922l2.813-1.522c1.249 1.405 2.499 2.97 3.75 4.688l-3.044 1.756zm4.102 5.156c-.234.234-.431.392-.586.469-.393-.858-.665-1.562-.82-2.109-.392 1.563-.978 4.062-1.758 7.5-.234 1.014-.392 1.796-.469 2.344l-3.519-.938c.938-3.047 1.798-6.521 2.578-10.43.858.392 1.796.703 2.813.938l-.117-.47c2.655-1.482 4.726-3.318 6.211-5.507h-5.273v-2.812h4.808v-2.931h-3.633v-2.812h3.633v-2.93h3.164v2.93h5.039v-2.93h3.164v2.93h4.102v2.812h-4.102v2.931h5.153v2.812h-5.508c1.406 2.109 3.398 3.711 5.979 4.805l-1.406 3.048c-1.72-.938-3.164-1.952-4.336-3.048v5.625h-10.078v1.056c0 1.095.586 1.641 1.758 1.641h7.269c1.248 0 1.989-.469 2.227-1.406 0-.155.038-.39.117-.702 0-.234.117-.938.352-2.109.938.392 1.913.703 2.932.938-.233 1.485-.471 2.578-.702 3.281-.47 1.796-1.915 2.695-4.336 2.695h-9.023c-2.344 0-3.556-1.134-3.633-3.399v-5.741c-.477.387-1.142.894-2 1.519zm-3.398-13.008c-.392-.625-.978-1.523-1.758-2.695-.703-.938-1.251-1.679-1.641-2.227l2.93-1.524 3.633 4.688-3.164 1.758zm8.437 10.195v2.577h7.031v-2.577h-7.031zm2.695-5.39c-.626 1.017-1.289 1.954-1.992 2.813h7.617c-.703-.859-1.329-1.796-1.875-2.813h-3.75zm-.703-5.742v2.931h5.039v-2.931h-5.039z"/><path fill="#F48C45" d="M588 344v40c0 2.206-1.794 4-4 4h-248"/><path fill="#FC9127" d="M553.75 388h30.25c2.206 0 4-1.794 4-4v-40l-70 12.223 35.75 31.777z"/></svg>