<svg xmlns="http://www.w3.org/2000/svg" width="640" height="120" viewBox="0 0 640 120"><g enable-background="new"><path fill="none" d="M0 0h640v120h-640z"/><path fill="#E9DD50" d="M319 119c-32.584 0-59-26.416-59-59 0-32.586 26.416-59 59-59s59 26.414 59 59c0 32.584-26.416 59-59 59zm0-2c31.43 0 57-25.57 57-57s-25.57-57-57-57c-31.431 0-57 25.57-57 57s25.57 57 57 57"/><path fill="#F2E54B" d="M319 119c-32.584 0-59-26.416-59-59 0-32.586 26.416-59 59-59s59 26.414 59 59c0 32.584-26.416 59-59 59zm0-2c31.43 0 57-25.57 57-57s-25.57-57-57-57c-31.431 0-57 25.57-57 57s25.57 57 57 57"/></g><path fill="#FCED43" d="M286.191 57.552h8.114v1.622h-8.114zM286.191 64.273h8.114v1.623h-8.114zM286.191 60.951h8.114v1.546h-8.114zM323.438 61.956h2.782v-4.637h-2.782v4.637zm1.391-3.941l.464.928c.36.669.618 1.186.772 1.545l-1.469.773c-.154-.411-.387-.953-.695-1.623-.154-.413-.283-.721-.387-.928l1.315-.695zM319.488 6.83c-29.634 0-53.657 24.022-53.657 53.658 0 29.634 24.023 53.659 53.657 53.659 29.634 0 53.658-24.023 53.658-53.659s-24.025-53.658-53.658-53.658zm11.602 22.962l2.316.231c-.051.155-.128.413-.23.773-.153.309-.258.567-.311.772h6.104v2.009h-5.102c.723.464 1.701 1.21 2.938 2.241l.154.154-1.699 1.313c-.824-.823-1.805-1.7-2.938-2.627l1.546-1.082h-1.933c-.565 1.082-1.236 2.086-2.01 3.014l-1.775-1.313c1.29-1.439 2.269-3.269 2.94-5.485zm-6.184 9.814v4.405h-2.316v-6.491h14.063v6.259h-2.317v-4.173h-9.43zm.775-9.736h2.241v6.878h-2.241v-6.878zm-4.251.463h2.241v6.337h-2.241v-6.337zm6.492 12.751c.358-.722.539-1.649.539-2.782h2.396c-.053.618-.182 1.314-.388 2.086h1.47v2.55c-.053.773.31 1.133 1.082 1.082h2.316c.876 0 1.341-.334 1.393-1.004.154-.412.258-1.185.309-2.318.772.206 1.495.438 2.164.695-.052.927-.206 1.829-.463 2.705-.258 1.185-1.16 1.751-2.705 1.7h-4.019c-1.599 0-2.396-.695-2.396-2.086v-1.236c-1.082 1.803-3.786 3.091-8.113 3.863-.206-.618-.516-1.34-.929-2.164 4.379-.567 6.827-1.596 7.344-3.091zm4.096 11.917c-.154-.464-.283-.824-.388-1.082l2.396-.31.618 1.855c.153.413.258.722.31.927h3.556v2.087h-9.66v-2.087h3.634c-.107-.308-.261-.772-.466-1.39zm-15.457-10.139v-14.915h2.088v15.532c.104 1.649-.671 2.473-2.318 2.473-.412.051-1.288.078-2.628.078-.052-.619-.206-1.288-.464-2.01h2.165c.821.052 1.208-.334 1.157-1.158zm-3.555-12.906h1.933v11.824h-1.933v-11.824zm-7.65 3.169v-2.164h2.705c-.051-.103-.104-.257-.154-.464-.31-1.03-.541-1.777-.694-2.241l2.24-.309c.104.36.257.876.464 1.545.205.67.36 1.159.464 1.468h1.932v2.164h-.852c-.309 2.886-.799 5.127-1.468 6.723.772 1.288 1.57 2.705 2.396 4.25l-1.7 1.236-1.776-3.168c-.619 1.237-1.674 2.601-3.168 4.096-.104-.104-.283-.36-.541-.771-.359-.464-.645-.824-.85-1.083 1.495-1.391 2.626-2.884 3.4-4.482-.259-.514-.67-1.236-1.236-2.164l-1.312-2.396 1.623-1.082 1.854 3.168c.359-1.287.618-2.73.772-4.328h-4.097l-.002.002zm-2.164 12.982l-2.164-.618c.36-.979.823-2.833 1.392-5.564.154-.566.258-1.004.31-1.313.257.104.721.258 1.391.464l.695.232c-.516 2.214-1.057 4.481-1.624 6.799zm-.155-18.005c.772 1.082 1.441 2.087 2.01 3.014l-1.933 1.004c-.206-.309-.541-.823-1.004-1.545-.464-.722-.8-1.236-1.005-1.546l1.932-.927zm-.541 5.177l.696.927c.721.979 1.209 1.7 1.468 2.164l-1.932 1.005c-.568-.927-1.263-1.982-2.087-3.168l1.855-.928zm-20.556 36.877c-.309-.772-.618-1.416-.927-1.932 1.649-.36 3.864-1.082 6.646-2.164l1.158 1.776c-2.523.932-4.817 1.703-6.877 2.32zm16.616-.076c-2.782-.979-5.05-1.727-6.801-2.241l.85-1.778c.669.207 1.727.543 3.168 1.006 1.751.517 2.987.852 3.709 1.004l-.926 2.009zm1.081-4.251h-18.701v-1.933h2.937v-8.346h-2.627v-1.933h2.627v-2.01h2.317v2.01h8.114v-2.01h2.396v2.01h2.55v1.933h-2.55v8.347h2.937v1.932zm5.255 4.251h-2.164v-9.583c-.515.927-1.082 1.829-1.7 2.705-.052-.206-.104-.541-.154-1.005-.154-.928-.259-1.598-.31-2.01 1.596-2.781 2.756-5.643 3.478-8.58l2.318.619c-.464 1.288-.956 2.601-1.469 3.941l.001 13.913zm2.164-3.246v-6.878l-1.236.31-.386-2.164 1.623-.387v-4.25h2.164v3.709l2.396-.618v-4.946h2.164v4.329l4.714-1.16c-.052 2.937-.129 5.178-.231 6.724 0 1.7-.592 2.55-1.776 2.55-.464.104-1.107.154-1.933.154-.052-.154-.104-.387-.154-.695-.104-.566-.207-1.029-.31-1.391h1.158c.67.052.979-.311.928-1.082.104-1.441.154-2.628.154-3.555l-2.551.695v7.959h-2.164v-7.418l-2.396.695v6.646c-.052 1.135.489 1.676 1.623 1.625h4.327c1.133 0 1.751-.414 1.854-1.236.204-.723.334-1.417.386-2.088.359.104.875.283 1.546.541l.541.231c-.154 1.134-.36 2.034-.618 2.705-.31 1.185-1.341 1.752-3.092 1.7h-5.873c-1.958.052-2.91-.851-2.858-2.705zm21.444 30.166l-8.125-4.924-8.125 4.924v-3.5l8-4.85v-.15l.125.076.125-.076v.15l8 4.85v3.5zm0-8l-8.125-4.924-8.125 4.924v-3.5l8-4.85v-.15l.125.076.125-.076v.15l8 4.85v3.5zm10.472-21.395c-.153 1.289-.799 1.934-1.934 1.934h-.926c-1.289.052-1.906-.619-1.854-2.01v-6.879h-2.164v1.006c.154 3.761-.694 6.568-2.55 8.424-.258-.258-.799-.747-1.622-1.469-.155.771-.748 1.185-1.778 1.236h-1.854l-.23-1.16c-.052-.311-.104-.565-.154-.771h1.392c.671.052.979-.207.928-.771v-5.256h-2.781c0 3.451-.464 6.207-1.392 8.27-.723-.617-1.264-1.106-1.622-1.469.771-1.647 1.132-3.916 1.081-6.801h-1.004v-1.933h1.004v-6.492h1.933c.052-.205.129-.541.231-1.004.052-.413.104-.721.154-.927l2.163.155c0 .103-.024.231-.077.386l-.464 1.391h2.627v14.296c0 .207-.024.413-.077.618 1.494-1.339 2.164-3.58 2.011-6.723v-3.092h6.259v8.347c0 .515.182.747.541.694h.154c.36.053.565-.205.617-.771.104-1.134.155-2.268.155-3.4.617.207 1.134.387 1.545.541-.106 1.545-.21 2.755-.312 3.63zm-15.455-4.171l1.391-.693.773 1.775.463.928-1.469.695-1.158-2.705zm32.301 6.491c-1.494.052-2.705-.823-3.633-2.627-1.287.67-2.757 1.339-4.404 2.009l-.851-1.468c-1.029.205-2.705.515-5.022.929-.566.103-1.005.181-1.313.23l-.386-2.087c.257-.052.745-.129 1.467-.231 2.475-.359 4.251-.644 5.333-.851 0 .207-.024.464-.077.772v.694c1.7-.671 3.168-1.34 4.404-2.01-.412-1.394-.67-2.552-.771-3.479l-3.015.387-.311-2.01 3.015-.387c-.053-.721-.129-1.417-.23-2.086l-2.396.231-.154-1.236c-1.854 2.885-3.168 4.869-3.94 5.951 1.031-.155 2.188-.283 3.479-.388 0 .207-.024.516-.077.929 0 .411-.025.721-.077.928-2.627.308-4.508.565-5.642.772l-.695-1.778c.566-.411 1.03-.876 1.392-1.392.053-.052.129-.182.231-.386.359-.466.771-1.108 1.235-1.934-.979 0-1.854.077-2.627.231l-.618-1.934c.36-.309.694-.696 1.004-1.159.825-1.39 1.675-3.065 2.551-5.023l2.241.696c-.565.979-1.364 2.318-2.396 4.018-.411.619-.693 1.057-.85 1.312l1.932-.077 1.083-1.932 1.699.772v-.31l2.551-.309c-.104-1.339-.153-2.679-.153-4.018h2.239c0 1.391.053 2.653.155 3.786l3.322-.386c-.413-.36-1.058-.875-1.934-1.545-.257-.155-.438-.283-.541-.387l1.393-1.392c.259.155.617.413 1.082.773.669.413 1.158.747 1.469 1.005l-1.393 1.545 2.551-.31.23 1.933-6.104.696c0 .257.024.592.077 1.004 0 .516.024.875.077 1.083l6.26-.928.23 2.01-6.183.929c.154.928.359 1.752.618 2.473 1.082-.771 2.216-1.727 3.398-2.858l1.47 1.313c-1.441 1.392-2.809 2.575-4.097 3.556.412 1.133.979 1.7 1.7 1.7.359 0 .645-.282.85-.852.155-.618.336-1.392.541-2.318.104.054.283.129.541.231.618.359 1.058.593 1.314.695-.155.928-.361 1.75-.619 2.474-.411 1.351-1.286 2.021-2.625 2.021z"/></svg>