<?xml version="1.0" encoding="utf-8"?>
<!-- Generator: Adobe Illustrator 16.0.0, SVG Export Plug-In . SVG Version: 6.00 Build 0)  -->
<!DOCTYPE svg PUBLIC "-//W3C//DTD SVG 1.1//EN" "http://www.w3.org/Graphics/SVG/1.1/DTD/svg11.dtd">
<svg version="1.1" id="图层_1" xmlns="http://www.w3.org/2000/svg" xmlns:xlink="http://www.w3.org/1999/xlink" x="0px" y="0px"
	 width="640px" height="350px" viewBox="0 0 640 350" enable-background="new 0 0 640 350" xml:space="preserve">
<path fill="#FFFFFF" d="M273.938,161.904c-4.025-2.25-7.131-4.937-9.315-8.063c-2.128,2.875-5.377,5.657-9.747,8.344
	c-0.116-0.312-0.375-0.844-0.776-1.594c-0.116-0.188-0.203-0.343-0.259-0.469c4.599-2.562,7.935-5.593,10.005-9.094l2.415,0.281
	l-0.518,0.844c2.357,3.188,5.462,5.719,9.315,7.594L273.938,161.904z M256.86,196.001c-0.116-0.062-0.259-0.218-0.431-0.469
	c-1.093-0.999-1.927-1.781-2.501-2.344l1.208-1.5c1.149,0.938,2.156,1.875,3.019,2.813L256.86,196.001z M254.186,326.28v-1.875
	h2.501c0.287-1.125,0.546-2.188,0.776-3.188l1.898,0.188c-0.058,0.375-0.202,1-0.432,1.875c-0.172,0.501-0.288,0.876-0.345,1.125
	h4.398v1.875h-4.916c-0.806,2.875-1.41,4.875-1.812,6h2.501v-4.594h1.639v4.594h2.329v1.875h-2.329v3l2.587-0.375
	c-0.058,0.75-0.086,1.406-0.086,1.969l-2.501,0.281v4.594h-1.897v-4.406c-1.552,0.188-2.99,0.375-4.313,0.563l-0.172-2.063
	c0.401,0,1.063-0.062,1.984-0.188c1.091-0.062,1.926-0.125,2.501-0.188v-3.188h-3.967v-1.875c0.057-0.188,0.143-0.469,0.259-0.844
	c0.459-1.5,0.919-3.219,1.38-5.156H254.186z M274.886,261.753c-0.345,0.75-0.633,1.438-0.863,2.063
	c-3.911-1.25-6.757-2.968-8.539-5.156v4.219h-1.984v-4.219c-1.783,2.188-4.629,4-8.539,5.438l-0.862-1.969
	c3.334-1.063,6.065-2.531,8.193-4.406h-7.59v-1.875h8.797v-2.625h1.984v2.625h8.797v1.875h-7.59
	C268.646,259.535,271.378,260.878,274.886,261.753L274.886,261.753z M254.272,270.284v-1.875h9.574v-0.844l3.881-2.063h-10.005
	v-1.781h13.196v1.875l-5.002,2.625v0.188h8.797v1.875h-8.797v2.156c0.057,1.937-0.892,2.906-2.846,2.906
	c-0.289,0-0.862,0.03-1.725,0.094c-0.806,0-1.38,0-1.725,0c0-0.063,0-0.126,0-0.188c-0.058-0.563-0.172-1.188-0.345-1.875
	c0.229,0,0.69,0,1.38,0c0.805,0.062,1.38,0.094,1.725,0.094c1.035,0.062,1.523-0.407,1.466-1.406v-1.781H254.272z M254.272,290.97
	v-1.781h9.487c-0.058-0.188-0.144-0.437-0.259-0.75c-0.116-0.437-0.202-0.781-0.259-1.031l2.243-0.281
	c0.172,0.625,0.345,1.313,0.518,2.063h8.711v1.781H254.272z M258.154,199.095c-0.748,3.126-1.38,5.906-1.898,8.344l-1.811-0.656
	c0.805-3.188,1.408-5.968,1.811-8.344c0.229,0.126,0.747,0.313,1.553,0.563C257.175,198.813,257.291,198.846,258.154,199.095
	L258.154,199.095z M257.291,189.813c-0.92-1.062-1.811-1.999-2.674-2.813l1.294-1.406c0.919,0.813,1.839,1.72,2.76,2.719
	L257.291,189.813z M255.049,240.687v-17.625h4.14v-3.844h1.725v3.844h4.054v17.531h-1.725v-1.594h-6.469v1.688H255.049z
	 M256.256,298.751v-6.75h1.898v5.063h12.679v-5.063h1.897v6.75h-7.245c-0.289,0.688-0.604,1.313-0.949,1.875h9.056v6.281
	c0.057,1.749-0.69,2.593-2.243,2.531c-0.517,0.062-1.466,0.094-2.846,0.094c-0.116-0.563-0.259-1.157-0.431-1.781
	c0.287,0,0.718,0.03,1.294,0.094c0.459,0,0.805,0,1.035,0c0.863,0.062,1.264-0.345,1.208-1.219v-4.219h-4.657
	c1.264,1.375,2.357,2.688,3.277,3.938l-1.466,0.938l-0.776-0.938c-0.403,0-1.035,0.032-1.898,0.094
	c-2.07,0.063-3.566,0.126-4.485,0.188c-0.172,0-0.461,0.032-0.862,0.094c-0.345,0.063-0.633,0.126-0.863,0.188l-0.69-1.781
	c0.632-0.375,1.122-0.844,1.466-1.406c0.287-0.375,0.546-0.812,0.776-1.313h-4.054v7.219h-1.984v-9h6.986
	c0.345-0.563,0.66-1.187,0.949-1.875H256.256z M265.916,173.716c-0.633-0.438-1.237-0.844-1.811-1.219l5.175-6.656h-12.851v-2.063
	h15.525v2.063L265.916,173.716z M256.773,224.843v5.344h2.415v-5.344H256.773z M256.773,231.968v5.344h2.415v-5.344H256.773z
	 M258.585,191.126v-1.969h3.364c-0.289-0.812-0.604-1.999-0.949-3.563l1.897-0.281c0.057,0.375,0.201,0.938,0.431,1.688
	c0.229,0.876,0.401,1.594,0.518,2.156h-0.086h2.156v1.969h-4.054l-0.086,3.375h3.881c0,0.876-0.029,2.188-0.086,3.938
	c-0.058,2.688-0.116,4.626-0.173,5.813c0,1.812-0.806,2.719-2.415,2.719c-0.517,0.062-1.064,0.094-1.639,0.094L261,205.095
	c0.574,0,1.005,0,1.293,0c0.977,0.062,1.437-0.375,1.38-1.313c0-0.375,0.028-0.968,0.086-1.781c0.115-2.625,0.172-4.5,0.172-5.625
	h-2.242c0,0.188,0,0.345,0,0.469c-0.116,4.563-0.979,8.156-2.587,10.781l-1.466-1.406c1.437-1.999,2.213-5.156,2.329-9.469
	c0.115-1.624,0.172-3.499,0.172-5.625H258.585z M268.849,296.595l-4.14-1.781c-1.496,0.625-3.105,1.219-4.83,1.781
	c-0.058-0.125-0.172-0.281-0.345-0.469c-0.23-0.375-0.403-0.656-0.518-0.844c1.322-0.375,2.587-0.812,3.795-1.313
	c-1.208-0.5-2.358-0.969-3.45-1.406l0.862-1.125c0.172,0.063,0.488,0.188,0.949,0.375c0.862,0.313,2.041,0.782,3.536,1.406
	c0.229-0.125,0.546-0.281,0.949-0.469c0.747-0.313,1.695-0.781,2.846-1.406l0.949,1.125c-0.92,0.563-1.897,1.063-2.932,1.5
	l3.191,1.313L268.849,296.595z M263.242,224.843h-2.329v5.344h2.329V224.843z M260.914,231.968v5.344h2.329v-5.344H260.914z
	 M266.261,304.845c-1.496,0.126-1.294,0.126,0.604,0c-0.172-0.188-0.403-0.5-0.69-0.938c-0.345-0.375-0.604-0.656-0.776-0.844
	l0.863-0.656h-2.674c-0.116,0.126-0.259,0.344-0.431,0.656c-0.289,0.501-0.72,1.157-1.294,1.969
	C262.667,305.032,264.133,304.971,266.261,304.845L266.261,304.845z M275.145,328.624c-0.23,0.375-0.576,1.063-1.035,2.063
	c-2.358-1.813-4.169-3.969-5.434-6.469c-1.38,2.376-3.278,4.563-5.693,6.563c-0.116-0.249-0.375-0.718-0.776-1.406
	c-0.173-0.188-0.289-0.343-0.345-0.469c2.875-2.124,4.917-4.719,6.124-7.781l2.07,0.281l-0.431,0.938
	C271.005,325.094,272.844,327.187,275.145,328.624L275.145,328.624z M264.795,162.841c-0.461-0.812-1.237-1.969-2.329-3.469
	c-0.116-0.188-0.202-0.312-0.259-0.375l1.639-1.219c0.862,1.188,1.782,2.438,2.76,3.75L264.795,162.841z M267.469,342.968
	c-2.014,0-3.019-1.063-3.019-3.188v-9.563h1.897v4.125c1.84-1.063,3.593-2.344,5.261-3.844l1.208,1.688
	c-2.128,1.688-4.284,3.156-6.469,4.406v2.719c-0.058,1.125,0.518,1.655,1.725,1.594h1.984c1.149,0,1.782-0.53,1.897-1.594
	c0.172-0.999,0.287-2.063,0.345-3.188c0.69,0.25,1.322,0.469,1.897,0.656c-0.173,1.563-0.375,2.781-0.604,3.656
	c-0.23,1.688-1.323,2.531-3.277,2.531H267.469z M266.347,200.032v-1.875h3.537v-1.313l2.329-2.625h-4.83v-1.406l-0.604,0.938
	c-0.403-0.437-0.893-0.905-1.466-1.406c1.38-2.063,2.472-4.468,3.277-7.219l1.984,0.281c-0.345,1.001-0.69,1.969-1.035,2.906h5.434
	v1.875h-6.21c-0.345,0.75-0.748,1.5-1.208,2.25h6.728v1.969l-2.587,3v0.75h3.277v1.875h-3.277v4.594
	c0.057,1.688-0.748,2.531-2.415,2.531c-0.806,0.062-1.552,0.094-2.243,0.094c0-0.188-0.058-0.438-0.172-0.75
	c-0.058-0.563-0.116-0.97-0.172-1.219c0.69,0,1.35,0,1.984,0c0.862,0.062,1.264-0.313,1.208-1.125v-4.125H266.347z M267.124,241.624
	v-20.813h7.332v2.063l-2.07,6.281c1.609,1.688,2.385,3.532,2.329,5.531c0.057,2.625-0.92,4.001-2.932,4.125
	c-0.576,0-1.208,0-1.897,0c-0.058-0.437-0.173-1.031-0.345-1.781c-0.058-0.188-0.086-0.312-0.086-0.375c0.173,0,0.432,0,0.776,0
	c0.402,0.063,0.718,0.094,0.949,0.094c1.208,0.063,1.782-0.687,1.725-2.25c0-1.624-0.834-3.312-2.501-5.063l2.156-6.656h-3.622
	v18.844H267.124z M279.543,339.78c-0.862,0.876-1.754,1.905-2.673,3.094l-0.863-2.25c0.518-0.624,1.294-1.5,2.329-2.625
	c0.632-0.624,1.178-0.938,1.639-0.938c0.114,0,0.229,0.032,0.345,0.094c0.115,0,0.201,0,0.259,0c4.369-2.813,8.28-6.031,11.73-9.656
	h-14.663v-2.063h8.453c-0.23-0.624-0.604-1.562-1.121-2.813c-0.173-0.437-0.317-0.75-0.431-0.938l2.242-0.469
	c0.459,1.063,1.005,2.406,1.639,4.031l-0.604,0.188h7.245v2.25c-3.739,4.188-8.021,7.844-12.852,10.969
	c1.035,1.313,2.644,2.001,4.83,2.063c2.07,0.063,5.404,0.032,10.005-0.094c-0.288,0.687-0.489,1.406-0.604,2.156
	c-2.704,0-4.658,0-5.865,0c-1.496-0.063-2.818-0.126-3.967-0.188c-2.704,0-4.773-0.938-6.21-2.813
	C280.118,339.531,279.831,339.531,279.543,339.78L279.543,339.78z M276.904,299.313v-1.781h1.38v-7.969h2.329
	c0.057-0.313,0.143-0.718,0.259-1.219c0.057-0.563,0.115-0.969,0.173-1.219l1.897,0.094c-0.058,0.25-0.145,0.625-0.259,1.125
	c-0.173,0.563-0.289,0.97-0.345,1.219h3.364v17.25c0.057,1.562-0.662,2.374-2.156,2.438c-0.575,0-1.293,0-2.156,0
	c0-0.188-0.058-0.469-0.172-0.844c-0.058-0.501-0.116-0.876-0.172-1.125c0.056,0,0.229,0,0.517,0
	c0.518,0.062,0.919,0.094,1.208,0.094c0.863,0,1.264-0.345,1.208-1.031v-7.031h-3.881c0.114,4.563-0.432,7.999-1.639,10.313
	c-0.288-0.188-0.748-0.563-1.38-1.125c-0.116-0.063-0.202-0.126-0.259-0.188c1.035-2,1.523-5,1.466-9H276.904z M277.077,224.28
	v-1.875h2.501c0.287-1.125,0.546-2.187,0.776-3.188l1.898,0.188c-0.058,0.375-0.202,1.001-0.432,1.875
	c-0.172,0.501-0.288,0.876-0.345,1.125h4.398v1.875h-4.916c-0.806,2.876-1.41,4.875-1.812,6h2.501v-4.594h1.639v4.594h2.329v1.875
	h-2.329v3l2.587-0.375c-0.058,0.75-0.086,1.406-0.086,1.969l-2.501,0.281v4.594h-1.897v-4.406c-1.552,0.188-2.99,0.375-4.313,0.563
	l-0.172-2.063c0.401,0,1.063-0.062,1.984-0.188c1.091-0.062,1.926-0.124,2.501-0.188v-3.188h-3.967v-1.875
	c0.057-0.188,0.143-0.469,0.259-0.844c0.459-1.5,0.919-3.218,1.38-5.156H277.077z M278.371,154.685v-2.063h18.026v2.063h-7.935
	c0,1.313-0.058,3.094-0.173,5.344h9.315v2.156h-8.883c0.977,4.5,3.996,7.438,9.056,8.813c-0.058,0.125-0.173,0.312-0.345,0.563
	c-0.288,0.563-0.575,1.125-0.862,1.688c-5.119-1.813-8.194-4.812-9.229-9c-0.862,3.876-3.825,6.968-8.884,9.281
	c-0.116-0.188-0.345-0.532-0.69-1.031c-0.288-0.438-0.518-0.782-0.69-1.031c5.348-2.124,8.28-5.218,8.797-9.281h-8.711v-2.156h8.97
	c0.057-0.563,0.086-1.468,0.086-2.719c0.057-1.125,0.086-2,0.086-2.625H278.371z M277.34,190.282v-1.875h2.501
	c0.287-1.125,0.546-2.187,0.776-3.188l1.898,0.188c-0.058,0.375-0.202,1.001-0.432,1.875c-0.172,0.501-0.288,0.876-0.345,1.125
	h4.398v1.875h-4.916c-0.806,2.876-1.41,4.875-1.812,6h2.501v-4.594h1.639v4.594h2.329v1.875h-2.329v3l2.587-0.375
	c-0.058,0.75-0.086,1.406-0.086,1.969l-2.501,0.281v4.594h-1.897v-4.406c-1.552,0.188-2.99,0.375-4.313,0.563l-0.172-2.063
	c0.401,0,1.063-0.062,1.984-0.188c1.091-0.062,1.926-0.124,2.501-0.188v-3.188h-3.967v-1.875c0.057-0.188,0.143-0.469,0.259-0.844
	c0.459-1.5,0.919-3.218,1.38-5.156H277.34z M283.114,271.503c0,2.187-0.748,3.812-2.243,4.875l-0.776-0.844
	c1.035-0.813,1.581-2.032,1.639-3.656h-1.466v-3.094h2.846C283.114,269.285,283.114,270.19,283.114,271.503L283.114,271.503z
	 M280.096,291.345v6.188h3.881v-6.188H280.096z M281.734,296.313c-0.058-0.062-0.116-0.188-0.173-0.375
	c-0.172-0.812-0.517-1.749-1.035-2.813l1.38-0.656c0.229,0.438,0.488,1.094,0.776,1.969c0.229,0.563,0.401,0.97,0.518,1.219
	L281.734,296.313z M281.907,304.657c-0.116-0.313-0.259-0.75-0.431-1.313c-0.345-0.938-0.633-1.655-0.863-2.156l1.466-0.656
	c0.115,0.313,0.287,0.782,0.518,1.406c0.345,0.876,0.604,1.563,0.776,2.063L281.907,304.657z M298.036,226.624
	c-0.23,0.375-0.576,1.063-1.035,2.063c-2.358-1.812-4.169-3.968-5.434-6.469c-1.38,2.376-3.278,4.563-5.693,6.563
	c-0.116-0.249-0.375-0.718-0.776-1.406c-0.173-0.188-0.289-0.343-0.345-0.469c2.875-2.124,4.917-4.718,6.124-7.781l2.07,0.281
	l-0.431,0.938C293.896,223.094,295.735,225.188,298.036,226.624L298.036,226.624z M298.299,192.626
	c-0.23,0.375-0.576,1.063-1.035,2.063c-2.358-1.812-4.169-3.968-5.434-6.469c-1.38,2.376-3.278,4.563-5.693,6.563
	c-0.116-0.249-0.375-0.718-0.776-1.406c-0.173-0.188-0.289-0.343-0.345-0.469c2.875-2.124,4.917-4.718,6.124-7.781l2.07,0.281
	l-0.431,0.938C294.159,189.096,295.999,191.189,298.299,192.626L298.299,192.626z M290.273,291.345
	c0.172,2.875-0.72,5.125-2.674,6.75c-0.172-0.188-0.431-0.437-0.776-0.75c-0.345-0.375-0.604-0.624-0.776-0.75
	c1.725-1.25,2.501-3.062,2.329-5.438v-2.719h7.159v5.25c-0.058,1,0.374,1.469,1.294,1.406h1.121c0,0.188-0.058,0.501-0.172,0.938
	c-0.058,0.438-0.116,0.782-0.173,1.031h-1.725c-1.611,0.063-2.387-0.844-2.329-2.719v-4.031h-3.277V291.345L290.273,291.345z
	 M290.359,240.968c-2.014,0-3.019-1.063-3.019-3.188v-9.563h1.897v4.125c1.84-1.062,3.593-2.344,5.261-3.844l1.208,1.688
	c-2.128,1.688-4.284,3.157-6.469,4.406v2.719c-0.058,1.125,0.518,1.655,1.725,1.594h1.984c1.149,0,1.782-0.53,1.897-1.594
	c0.172-0.999,0.287-2.063,0.345-3.188c0.69,0.251,1.322,0.469,1.897,0.656c-0.173,1.563-0.375,2.782-0.604,3.656
	c-0.23,1.688-1.323,2.531-3.277,2.531H290.359z M287.513,309.532v-10.406h8.97v10.406h-1.897v-1.781h-5.175v1.781H287.513z
	 M290.623,206.97c-2.014,0-3.019-1.063-3.019-3.188v-9.563h1.897v4.125c1.84-1.062,3.593-2.344,5.261-3.844l1.208,1.688
	c-2.128,1.688-4.284,3.157-6.469,4.406v2.719c-0.058,1.125,0.518,1.655,1.725,1.594h1.984c1.149,0,1.782-0.53,1.897-1.594
	c0.172-0.999,0.287-2.063,0.345-3.188c0.69,0.251,1.322,0.469,1.897,0.656c-0.173,1.563-0.375,2.782-0.604,3.656
	c-0.23,1.688-1.323,2.531-3.277,2.531H290.623z M289.411,301.001v5.156h5.175v-5.156H289.411z M298.605,326.655v-1.969h3.709
	c-0.289-1.063-0.604-2.094-0.949-3.094l1.983-0.469c0.173,0.688,0.518,1.875,1.035,3.563h2.415v1.969h-4.658l-0.086,3.188h4.14
	c0,3.375-0.086,6.75-0.259,10.125c0,1.999-0.834,3-2.501,3c-0.69,0-1.323,0-1.897,0l-0.431-1.969c0.517,0,1.091,0,1.725,0
	c0.977,0.062,1.437-0.437,1.38-1.5c0.114-3.249,0.172-5.813,0.172-7.688h-2.415c0,5.313-0.806,9.218-2.415,11.719l-1.466-1.406
	c1.437-2,2.156-5.656,2.156-10.969l0.086-4.5H298.605z M300.14,164.529v-1.781h20.441v1.781h-8.97v2.25h7.417v1.781h-7.417v2.344
	c2.989,0,6.037,0,9.143,0c-0.173,0.687-0.346,1.343-0.518,1.969c-3.968,0-6.872-0.032-8.711-0.094c-3.45,0-5.779-1.063-6.986-3.188
	c-0.576,1.374-1.754,2.78-3.536,4.219l-1.208-1.594c2.357-1.562,3.651-3.875,3.881-6.938l1.897,0.281
	c-0.058,0.25-0.116,0.625-0.173,1.125c-0.116,0.438-0.172,0.75-0.172,0.938c0.919,1.938,2.385,3.032,4.399,3.281v-6.375H300.14z
	 M300.398,222.874v-1.781h7.849v1.781h-3.019c-0.403,1.813-0.949,3.501-1.639,5.063h4.054v12.563h-1.639v-1.5h-2.501v1.875h-1.811
	v-9.375c-0.345,0.626-0.776,1.282-1.294,1.969c-0.172-0.75-0.375-1.562-0.604-2.438c1.667-2.499,2.816-5.218,3.45-8.156H300.398z
	 M300.744,258.19v-1.969h5.865c0.46-0.999,0.833-2.03,1.122-3.094l2.156,0.281c-0.173,0.438-0.403,1.063-0.69,1.875
	c-0.173,0.438-0.289,0.75-0.345,0.938h11.816v1.969h-12.678c-0.634,1.5-1.553,3.188-2.76,5.063v12.281h-1.984v-9.75
	c-0.748,0.813-1.582,1.688-2.501,2.625c-0.289-0.688-0.604-1.406-0.949-2.156c2.587-2.499,4.571-5.188,5.951-8.063H300.744z
	 M309.455,290.688c-2.76,0.063-5.406,0.156-7.935,0.281c-0.058-0.812-0.173-1.531-0.345-2.156c6.21-0.062,12.017-0.281,17.422-0.656
	l0.345,2.063c-0.69,0-1.783,0.063-3.277,0.188c-1.841,0.063-3.221,0.126-4.14,0.188v3.938h7.417v1.969h-7.417v3.938h9.229v2.063
	h-9.229v3.563c0.057,2.124-0.949,3.188-3.019,3.188c-1.265,0-2.473,0-3.622,0c-0.058-0.313-0.145-0.75-0.259-1.313
	c-0.058-0.375-0.116-0.688-0.173-0.938c0.632,0.062,1.667,0.094,3.105,0.094c1.322,0.062,1.954-0.5,1.898-1.688v-2.906h-9.488
	v-2.063h9.488v-3.938h-7.935v-1.969h7.935V290.688L309.455,290.688z M302.996,207.345c-0.634,0-1.324,0-2.07,0
	c0-0.126-0.029-0.281-0.086-0.469c-0.058-0.75-0.145-1.282-0.259-1.594c0.574,0.062,1.121,0.094,1.639,0.094
	c0.862,0,1.264-0.345,1.208-1.031v-8.625h-3.105v-1.875h3.881c-0.058-0.062-0.145-0.155-0.259-0.281
	c-0.863-1.062-1.725-2.063-2.587-3l1.293-1.125l1.639,1.781l2.243-3.094h-5.779v-1.781h7.676v2.156l-2.933,4.125l0.431,0.375
	l-0.69,0.844h3.709v1.875l-0.776,3.938c-0.289-0.062-0.633-0.124-1.035-0.188c-0.23-0.062-0.403-0.094-0.517-0.094l0.776-3.656
	h-2.07v9C305.381,206.407,304.605,207.281,302.996,207.345L302.996,207.345z M302.813,160.966v-8.813h15.008v8.813H302.813z
	 M303.503,229.718v7.688h2.501v-7.688H303.503z M304.797,153.935v1.875h10.954v-1.875H304.797z M304.797,157.31v1.969h10.954v-1.969
	H304.797z M307.04,266.065v-1.969h5.261v-4.406h1.983v4.406h5.261v1.969h-5.261v6.188h6.382v1.875h-14.662v-1.875h6.296v-6.188
	H307.04z M310.163,325.437c-0.748,1.375-1.639,2.719-2.674,4.031c-0.633-0.688-1.093-1.156-1.38-1.406
	c1.725-2.063,2.989-4.374,3.795-6.938l1.984,0.188c-0.116,0.313-0.289,0.782-0.518,1.406c-0.173,0.438-0.289,0.75-0.345,0.938h7.763
	v1.781H310.163L310.163,325.437z M318.442,341.937c-0.345,0.375-0.604,0.656-0.776,0.844c-3.221-2.75-5.06-6.875-5.52-12.375
	c-0.69,0.063-1.38,0.156-2.07,0.281v9.844c1.208-0.624,2.329-1.125,3.364-1.5c0,0.188,0,0.501,0,0.938
	c0.057,0.438,0.086,0.75,0.086,0.938c-1.208,0.437-2.415,0.999-3.623,1.688c-0.116,0.062-0.259,0.124-0.431,0.188
	c-0.461,0.249-0.748,0.437-0.863,0.563l-1.121-1.688c0.518-0.438,0.747-1.031,0.69-1.781v-10.969c3.105-0.249,6.21-0.75,9.315-1.5
	l0.69,1.969c-1.323,0.313-2.76,0.563-4.313,0.75c0.173,1.5,0.402,2.813,0.69,3.938c1.15-0.624,2.271-1.313,3.364-2.063l0.949,1.688
	c-1.208,0.75-2.444,1.469-3.708,2.156c0.747,2.063,2.098,3.782,4.054,5.156C319.103,341.187,318.844,341.498,318.442,341.937
	L318.442,341.937z M320.073,207.345c-1.265-1.251-2.962-2.749-5.088-4.5c-0.748,1.5-2.704,3.124-5.865,4.875
	c-0.345-0.563-0.748-1.157-1.208-1.781c2.587-1.125,4.283-2.28,5.089-3.469c0.862-1.062,1.294-2.78,1.294-5.156v-3.188h1.811v3.281
	c0.057,1.376-0.086,2.595-0.431,3.656c1.954,1.563,3.823,3.094,5.606,4.594L320.073,207.345z M308.592,236.374v-1.969h8.107v1.969
	H308.592z M316.269,241.249c-0.979,0-1.956,0-2.933,0c-0.058-0.313-0.144-0.782-0.259-1.406c-0.058-0.313-0.116-0.563-0.172-0.75
	c0.69,0.062,1.725,0.094,3.105,0.094c1.149,0.062,1.753-0.469,1.812-1.594c0.114-1.875,0.201-3.905,0.259-6.094h-8.625l0.69-7.969
	h1.897l-0.518,6h4.399l0.69-7.125h-7.417v-1.969h9.574l-0.863,9.094h2.156c-0.058,1.125-0.116,2.782-0.172,4.969
	c-0.116,1.563-0.172,2.688-0.172,3.375C319.719,240.124,318.568,241.249,316.269,241.249L316.269,241.249z M309.551,188.126v-1.875
	h11.644v1.875h-5.175l-0.518,3h4.83v10.969h-1.811v-9.281h-6.641v9.375h-1.812v-11.063h3.536l0.432-3H309.551z M325.521,264.003
	c-0.115-0.062-0.258-0.219-0.431-0.469c-1.093-0.999-1.927-1.781-2.501-2.344l1.207-1.5c1.149,0.938,2.156,1.875,3.019,2.813
	L325.521,264.003z M326.298,296.22c-1.093,0.063-2.128,0.156-3.104,0.281l-0.518-1.969c0.287-0.249,0.632-0.75,1.035-1.5
	c0.919-1.438,1.867-3.406,2.846-5.906l1.897,0.563c-1.207,2.625-2.387,4.875-3.536,6.75l2.329-0.094
	c0.459-0.875,0.891-1.719,1.294-2.531l1.639,0.75c-1.61,3.063-3.105,5.751-4.485,8.063c0.518-0.062,1.38-0.125,2.588-0.188
	c-0.289,0,0.028-0.031,0.948-0.094c0,0.188,0,0.469,0,0.844c-0.058,0.438-0.086,0.75-0.086,0.938
	c-0.862,0.126-1.928,0.22-3.191,0.281c-0.345,0.063-0.604,0.094-0.776,0.094c-0.575,0.063-1.093,0.156-1.553,0.281l-0.604-1.781
	c0.518-0.375,0.978-0.905,1.38-1.594c0.229-0.375,0.574-0.938,1.035-1.688C325.78,297.032,326.067,296.533,326.298,296.22
	L326.298,296.22z M329.317,306.907c-2.07,0.188-4.17,0.499-6.297,0.938l-0.345-1.969c1.667-0.188,3.881-0.5,6.642-0.938
	C329.317,305.563,329.317,306.22,329.317,306.907L329.317,306.907z M325.946,342.874c-1.841-0.188-2.876-1.282-3.104-3.281
	c0.172-2.124,1.207-3.281,3.104-3.469c1.954,0.188,3.019,1.345,3.191,3.469C328.965,341.592,327.9,342.687,325.946,342.874
	L325.946,342.874z M327.247,156.466c-0.403,0.938-0.949,1.875-1.639,2.813c-0.23-0.125-0.634-0.312-1.208-0.563
	c-0.288-0.125-0.489-0.218-0.604-0.281c1.437-2.063,2.472-4.25,3.105-6.563l1.983,0.281c-0.23,0.813-0.489,1.594-0.776,2.344h4.571
	v-3.375h1.983v3.375h7.418v1.969h-7.418v3.469h8.884v1.969h-20.613v-1.969h9.746v-3.469H327.247L327.247,156.466z M322.935,233.468
	v-2.063h10.781v-0.094c0.345-2.438,0.546-6.437,0.604-12h2.07c-0.059,6.126-0.23,10.125-0.518,12v0.094h7.59v2.063h-8.021
	c-0.058,0.375-0.172,0.75-0.345,1.125c1.092,0.626,2.788,1.657,5.089,3.094c1.264,0.75,2.213,1.28,2.846,1.594l-1.293,1.969
	c-1.208-0.813-2.876-1.907-5.003-3.281c-1.093-0.75-1.927-1.313-2.501-1.688c-1.323,2.063-4.657,3.844-10.005,5.344
	c-0.116-0.25-0.403-0.782-0.862-1.594c-0.173-0.25-0.289-0.438-0.346-0.563c6.21-1.374,9.631-3.375,10.264-6H322.935z
	 M326.815,267.097c-0.748,3.126-1.38,5.906-1.897,8.344l-1.811-0.656c0.804-3.188,1.408-5.968,1.811-8.344
	c0.229,0.126,0.747,0.313,1.553,0.563C325.837,266.815,325.953,266.848,326.815,267.097L326.815,267.097z M325.953,257.815
	c-0.92-1.063-1.812-2-2.674-2.813l1.294-1.406c0.919,0.813,1.84,1.72,2.76,2.719L325.953,257.815z M327.186,206.97
	c-0.173,0.188-0.289,0.312-0.346,0.375l-1.38-1.781c0.518-0.501,0.776-1.187,0.776-2.063v-8.531h-2.674v-2.063h4.658v10.406
	c0.172-0.124,0.459-0.343,0.862-0.656c1.207-0.874,2.069-1.53,2.587-1.969c0.115,0.876,0.315,1.688,0.604,2.438
	c-0.059,0.063-0.145,0.126-0.259,0.188c-1.897,1.188-3.278,2.156-4.141,2.906C327.703,206.407,327.473,206.656,327.186,206.97
	L327.186,206.97z M329.23,230.187c-1.841-1.5-3.565-2.749-5.175-3.75l1.121-1.688c0.173,0.126,0.432,0.281,0.776,0.469
	c1.437,0.938,2.933,1.969,4.485,3.094L329.23,230.187z M325.946,337.53c-1.093,0.126-1.696,0.813-1.812,2.063
	c0.115,1.063,0.719,1.655,1.812,1.781c1.149-0.126,1.781-0.718,1.897-1.781C327.728,338.343,327.096,337.656,325.946,337.53
	L325.946,337.53z M328.565,190.657c-0.23-0.312-0.604-0.75-1.121-1.313c-0.979-1.187-1.726-2.063-2.243-2.625l1.553-1.313
	c1.208,1.251,2.386,2.531,3.536,3.844L328.565,190.657z M325.521,173.623v-9.281h15.525v9.281h-2.07v-1.406h-11.385v1.406H325.521z
	 M327.247,259.128v-1.969h3.363c-0.288-0.812-0.604-2-0.948-3.563l1.897-0.281c0.057,0.375,0.2,0.938,0.431,1.688
	c0.229,0.876,0.402,1.594,0.518,2.156h-0.086h2.156v1.969h-4.054l-0.086,3.375h3.881c0,0.876-0.029,2.188-0.086,3.938
	c-0.059,2.688-0.116,4.626-0.173,5.813c0,1.812-0.806,2.719-2.415,2.719c-0.518,0.062-1.064,0.094-1.639,0.094l-0.345-1.969
	c0.574,0,1.005,0,1.294,0c0.977,0.062,1.437-0.375,1.38-1.313c0-0.375,0.028-0.969,0.086-1.781c0.114-2.625,0.173-4.5,0.173-5.625
	h-2.243c0,0.188,0,0.344,0,0.469c-0.115,4.563-0.979,8.156-2.587,10.781l-1.467-1.406c1.437-2,2.213-5.156,2.329-9.469
	c0.114-1.625,0.173-3.5,0.173-5.625H327.247z M331.732,225.405c-1.496-1.187-3.191-2.405-5.089-3.656l1.121-1.594
	c1.035,0.626,2.443,1.532,4.226,2.719c0.402,0.313,0.719,0.532,0.949,0.656L331.732,225.405z M327.592,166.31v4.219h11.385v-4.219
	H327.592z M329.921,303.907v-1.781h6.296c0.229-0.999,0.345-2.968,0.345-5.906h1.984c-0.116,2.875-0.23,4.844-0.345,5.906h5.261
	v1.781h-5.606l-0.259,0.563c0.633,0.313,1.523,0.813,2.674,1.5c1.322,0.75,2.357,1.313,3.105,1.688l-1.121,1.781
	c-2.128-1.438-3.998-2.531-5.606-3.281c-1.035,1.187-3.249,2.374-6.642,3.563c-0.23-0.563-0.575-1.219-1.035-1.969
	c3.91-0.938,6.181-2.218,6.814-3.844H329.921z M333.543,301.47c-0.23-0.125-0.518-0.281-0.862-0.469
	c-0.575-0.375-1.466-0.844-2.674-1.406l0.69-1.219c0.574,0.25,1.38,0.656,2.415,1.219c0.459,0.25,0.833,0.438,1.121,0.563
	L333.543,301.47z M330.869,291.345v-1.781h4.83v-2.344h1.984v2.344h4.916v1.781h-4.916v2.156h5.605v1.781l-0.604,3.188
	c-0.575-0.188-1.179-0.281-1.812-0.281l0.604-2.906h-11.386v-1.781h5.606v-2.156H330.869z M330.463,195.063v-2.156h5.951v-7.688
	h2.07v7.688h5.951v2.156h-5.951v12.563h-2.07v-12.563H330.463z M334.923,298.845c-1.265-0.75-2.415-1.344-3.449-1.781l0.604-1.219
	c1.149,0.501,2.299,1.063,3.45,1.688L334.923,298.845z M335.01,268.034v-1.875h3.536v-1.313l2.328-2.625h-4.829v-1.406l-0.604,0.938
	c-0.402-0.437-0.892-0.905-1.466-1.406c1.38-2.063,2.472-4.468,3.277-7.219l1.983,0.281c-0.345,1-0.689,1.969-1.034,2.906h5.434
	v1.875h-6.21c-0.346,0.75-0.748,1.5-1.208,2.25h6.728v1.969l-2.587,3v0.75h3.277v1.875h-3.277v4.594
	c0.056,1.688-0.748,2.531-2.415,2.531c-0.807,0.062-1.553,0.094-2.243,0.094c0-0.188-0.058-0.438-0.172-0.75
	c-0.059-0.563-0.116-0.97-0.173-1.219c0.69,0,1.351,0,1.983,0c0.863,0.062,1.265-0.313,1.208-1.125v-4.125H335.01z M350.741,173.154
	c-0.058-0.25-0.116-0.656-0.173-1.219c-0.115-0.438-0.172-0.75-0.172-0.938c0.287,0,0.689,0.031,1.207,0.094
	c0.518,0,0.891,0,1.121,0c1.265,0.125,1.898-0.5,1.898-1.875c0-0.437,0.027-1.156,0.086-2.156c0-0.999,0.028-1.718,0.086-2.156
	h-3.622c-0.116,3.563-1.524,6.469-4.227,8.719c-0.634-0.688-1.121-1.188-1.466-1.5c2.415-2,3.679-4.406,3.795-7.219h-3.191v-1.875
	h3.277l0.086-2.063h1.897l-0.086,2.063h5.521c-0.059,0.75-0.116,2.095-0.173,4.031c-0.058,1.251-0.086,2.156-0.086,2.719
	c0.057,2.25-0.979,3.343-3.105,3.281L350.741,173.154z M345.739,258.284v-1.875h2.501c0.287-1.125,0.546-2.188,0.776-3.188
	l1.897,0.188c-0.059,0.375-0.202,1-0.432,1.875c-0.172,0.501-0.288,0.876-0.345,1.125h4.398v1.875h-4.916
	c-0.806,2.875-1.41,4.875-1.812,6h2.502v-4.594h1.639v4.594h2.328v1.875h-2.328v3l2.587-0.375c-0.058,0.75-0.086,1.406-0.086,1.969
	l-2.501,0.281v4.594h-1.897v-4.406c-1.553,0.188-2.991,0.375-4.313,0.563l-0.173-2.063c0.401,0,1.063-0.062,1.983-0.188
	c1.092-0.062,1.926-0.125,2.502-0.188v-3.188h-3.968v-1.875c0.057-0.188,0.143-0.469,0.259-0.844c0.459-1.5,0.919-3.219,1.38-5.156
	H345.739z M346.86,160.216v-7.875h9.746v7.875H346.86z M346.89,206.313v-2.063h8.107v-18.75h2.242v6.75h8.539v2.25h-8.539v9.75
	h10.178v2.063H346.89z M348.758,154.31v4.031h5.865v-4.031H348.758z M351.776,237.499c0,2.188-0.748,3.812-2.242,4.875l-0.776-0.844
	c1.035-0.813,1.581-2.031,1.639-3.656h-1.467v-3.094h2.847C351.776,235.281,351.776,236.187,351.776,237.499L351.776,237.499z
	 M351.776,305.501c0,2.187-0.748,3.812-2.242,4.875l-0.776-0.844c1.035-0.813,1.581-2.032,1.639-3.656h-1.467v-3.094h2.847
	C351.776,303.283,351.776,304.188,351.776,305.501L351.776,305.501z M366.697,260.628c-0.23,0.375-0.575,1.063-1.035,2.063
	c-2.358-1.813-4.169-3.969-5.434-6.469c-1.38,2.376-3.277,4.563-5.692,6.563c-0.115-0.249-0.374-0.718-0.776-1.406
	c-0.172-0.188-0.288-0.343-0.345-0.469c2.875-2.124,4.916-4.719,6.124-7.781l2.069,0.281l-0.431,0.938
	C362.558,257.098,364.397,259.19,366.697,260.628L366.697,260.628z M359.021,274.972c-2.014,0-3.019-1.063-3.019-3.188v-9.563h1.897
	v4.125c1.839-1.063,3.593-2.344,5.261-3.844l1.208,1.688c-2.128,1.688-4.284,3.156-6.469,4.406v2.719
	c-0.059,1.125,0.518,1.655,1.725,1.594h1.983c1.15,0,1.782-0.53,1.897-1.594c0.173-0.999,0.287-2.063,0.346-3.188
	c0.689,0.25,1.322,0.469,1.897,0.656c-0.173,1.563-0.375,2.781-0.604,3.656c-0.23,1.688-1.324,2.531-3.278,2.531H359.021z
	 M362.472,173.248c-1.035,0-2.128,0-3.278,0c-0.058-0.75-0.172-1.5-0.345-2.25c0.862,0.062,1.812,0.094,2.847,0.094
	c1.207,0.062,1.781-0.437,1.725-1.5v-18.188h1.984v18.75C365.519,172.153,364.541,173.185,362.472,173.248L362.472,173.248z
	 M358.936,167.998v-14.25h1.897v14.25H358.936z M375.615,302.22c-2.932,0.313-5.002,0.625-6.21,0.938l-0.689-1.781
	c0.518-0.375,0.948-0.812,1.294-1.313c0.114-0.188,0.345-0.53,0.689-1.031c0.69-0.999,1.208-1.813,1.553-2.438
	c-1.207,0-2.301,0.063-3.277,0.188l-0.518-1.781c0.401-0.437,0.718-0.844,0.948-1.219c1.322-2.499,2.386-4.719,3.191-6.656
	l1.897,0.656c-1.15,2.313-2.387,4.656-3.708,7.031c0.345,0,0.775-0.031,1.293-0.094c0.518,0,0.919,0,1.208,0
	c0.518-0.875,0.948-1.688,1.294-2.438l1.725,0.844c-1.093,2.001-2.703,4.626-4.83,7.875l4.227-0.656
	C375.644,301.033,375.615,301.657,375.615,302.22L375.615,302.22z M375.788,306.907c-1.725,0.188-4.054,0.593-6.986,1.219
	l-0.345-1.969c0.574-0.125,1.522-0.281,2.846-0.469c2.07-0.375,3.594-0.656,4.571-0.844
	C375.816,305.282,375.788,305.97,375.788,306.907L375.788,306.907z M369.319,157.123v-2.063h8.625v-3.844h1.984v3.844h8.624v2.063
	h-7.503c1.839,4.251,4.628,7.626,8.366,10.125c-0.059,0.063-0.116,0.188-0.173,0.375c-0.518,0.876-0.834,1.469-0.948,1.781
	c-3.911-2.874-6.699-6.469-8.366-10.781v8.813h4.57v2.063h-4.57v4.031h-1.984v-4.031h-4.657v-2.063h4.657v-8.719
	c-1.668,4.313-4.429,8.001-8.28,11.063c-0.115-0.249-0.288-0.624-0.517-1.125c-0.289-0.5-0.489-0.844-0.604-1.031
	c3.68-2.625,6.439-6.125,8.28-10.5H369.319z M371.907,240.405c-0.346,0.313-0.548,0.563-0.604,0.75l-1.207-1.688
	c0.46-0.438,0.66-0.938,0.604-1.5v-9h-2.156v-1.969h4.054v10.5c0.69-0.563,1.351-1.125,1.984-1.688
	c0.057,0.188,0.114,0.563,0.172,1.125c0.115,0.563,0.173,0.97,0.173,1.219c-0.979,0.626-1.869,1.25-2.674,1.875
	C372.194,240.092,372.079,240.218,371.907,240.405L371.907,240.405z M369.923,257.347v-2.156h18.026v2.156h-7.849v14.625h9.057
	v2.063h-20.355v-2.063h8.97v-14.625H369.923z M372.338,224.655c-0.92-1.313-1.869-2.593-2.846-3.844l1.466-1.031
	c1.208,1.313,2.213,2.501,3.019,3.563L372.338,224.655z M375.305,190.376c-0.806,1.626-1.696,3.094-2.674,4.406
	c-0.517-0.563-1.093-1.031-1.725-1.406c2.012-2.499,3.42-5.25,4.227-8.25l2.242,0.281c-0.345,1.001-0.689,1.938-1.035,2.813h12.766
	v2.156h-7.159v6.281h8.798v2.156h-8.798v8.719h-2.156v-8.719h-9.919v-2.156h9.919v-6.281H375.305L375.305,190.376z M374.753,222.499
	v-1.5h6.038v-1.781h1.897v1.781h6.382v1.5h-6.382v1.594h5.692v1.406h-5.692v1.594h6.728v1.5h-15.181v-1.5h6.556v-1.594h-5.606
	v-1.406h5.606v-1.594H374.753z M375.615,241.53v-11.438h12.248v8.531c0.057,1.813-0.806,2.719-2.588,2.719c-0.288,0-0.748,0-1.38,0
	c-0.806,0.062-1.38,0.094-1.725,0.094c-0.173-0.563-0.345-1.188-0.518-1.875c0.689,0.062,1.667,0.094,2.933,0.094
	c0.977,0.062,1.437-0.344,1.38-1.219v-0.75H377.6v3.844H375.615z M376.22,292.376v-1.969h5.434v-3.188h1.983v3.188h5.606v1.969
	h-5.606v3.375h4.916v1.875h-11.729v-1.875h4.83v-3.375H376.22z M377.168,309.626v-9.281h11.04v9.281h-1.983v-1.406h-7.159v1.406
	H377.168z M377.6,231.593v1.688h8.366v-1.688H377.6z M377.6,234.593v1.688h8.366v-1.688H377.6z M379.065,302.22v4.219h7.159v-4.219
	H379.065z M393.235,171.654l-1.897-1.031c1.035-2,2.357-5.03,3.968-9.094c0.573,0.375,1.207,0.719,1.897,1.031L393.235,171.654z
	 M391.683,225.593v-1.969h2.329v-4.313h1.897v4.313h1.983v1.969h-1.983v4.406l1.983-0.656c0,0.688,0.028,1.376,0.087,2.063
	l-2.07,0.75v6.75c0.057,1.562-0.634,2.375-2.07,2.438c-0.633,0-1.266,0-1.897,0c-0.058-0.25-0.115-0.688-0.172-1.313
	c-0.116-0.375-0.173-0.625-0.173-0.75c0.459,0,0.948,0,1.466,0c0.69,0.062,1.006-0.22,0.949-0.844v-5.719
	c-0.748,0.251-1.553,0.532-2.415,0.844l-0.259-2.25c0.919-0.312,1.812-0.563,2.674-0.75v-4.969H391.683z M394.184,262.972
	c-0.689,1.313-1.409,2.563-2.155,3.75c-0.116-0.5-0.289-1.219-0.518-2.156c-0.059-0.125-0.116-0.249-0.173-0.375
	c2.012-3.375,3.536-7.063,4.571-11.063l2.07,0.563c-0.518,1.75-1.122,3.438-1.812,5.063v16.781h-1.984V262.972L394.184,262.972z
	 M391.597,291.438v-1.969h9.229v-2.344h1.984v2.344h9.229v1.969h-9.229v2.531h7.417v7.313h-6.642
	c2.127,2.313,5.003,4.125,8.625,5.438c-0.461,0.75-0.806,1.374-1.034,1.875c-3.854-1.563-6.642-3.5-8.366-5.813v6.844h-1.984v-6.75
	c-1.897,2.5-4.688,4.562-8.366,6.188l-1.121-2.063c3.45-1.187,6.383-3.094,8.798-5.719h-6.642v-7.313h7.331v-2.531H391.597z
	 M395.133,159.279c-0.345-0.624-0.862-1.562-1.553-2.813c-0.748-1.374-1.294-2.375-1.639-3l1.726-1.031
	c1.149,1.938,2.271,3.844,3.363,5.719L395.133,159.279z M404.832,196.47c-0.058,6.251-1.927,9.437-5.606,9.563
	c-3.853-0.063-5.778-3.249-5.778-9.563c0.057-6.312,1.954-9.563,5.692-9.75C402.877,186.846,404.774,190.095,404.832,196.47
	L404.832,196.47z M402.849,196.47c0-5.438-1.266-8.124-3.795-8.063c-2.358,0.188-3.566,2.876-3.623,8.063
	c0,5.376,1.236,8.032,3.709,7.969C401.611,204.502,402.849,201.846,402.849,196.47L402.849,196.47z M395.478,295.845v3.469h5.348
	v-3.469H395.478z M412.297,171.373c-0.518,0.687-1.007,1.343-1.467,1.969c-3.565-2.376-5.75-5.375-6.555-9
	c-0.69,3.563-3.077,6.687-7.159,9.375c-0.23-0.313-0.661-0.907-1.293-1.781c-0.059-0.063-0.116-0.126-0.173-0.188
	c4.542-2.499,6.986-5.968,7.331-10.406c0.114-0.875,0.173-1.906,0.173-3.094h2.069c0,0.25-0.029,0.625-0.086,1.125
	c0,0.501,0,0.844,0,1.031C405.828,165.405,408.213,169.061,412.297,171.373L412.297,171.373z M398.583,230.843v-1.969h3.363
	c0.173-0.437,0.432-1.125,0.776-2.063c0.173-0.624,0.315-1.093,0.432-1.406l2.069,0.469c-0.461,1.063-0.862,2.063-1.207,3h8.193
	v1.969h-2.328c-0.69,2.501-1.639,4.47-2.847,5.906c0.345,0.188,0.862,0.501,1.553,0.938c0.632,0.313,1.812,0.938,3.536,1.875
	l-1.207,1.875c-1.842-1.251-3.623-2.313-5.348-3.188c-1.841,1.25-4.313,2.375-7.418,3.375l-1.035-1.969
	c3.22-0.874,5.404-1.749,6.556-2.625c-1.438-0.874-2.904-1.718-4.399-2.531c0.633-1.062,1.236-2.28,1.812-3.656H398.583z
	 M401.602,258.753c-0.806,1.813-1.783,3.595-2.933,5.344c-0.173-0.249-0.489-0.594-0.948-1.031c-0.23-0.249-0.403-0.437-0.518-0.563
	c1.839-2.563,3.277-5.687,4.313-9.375l2.069,0.469c-0.345,1.125-0.72,2.188-1.121,3.188h9.833v1.969h-7.332v3.844h6.124v1.969
	h-6.124v3.844h6.728v2.063h-6.728v5.063h-1.983v-16.781H401.602L401.602,258.753z M409.709,161.716
	c-0.288-0.125-0.689-0.249-1.207-0.375c-0.289-0.062-0.518-0.125-0.69-0.188l1.553-4.219h-7.936
	c-0.633,1.563-1.38,3.126-2.242,4.688c-0.116-0.062-0.316-0.188-0.604-0.375c-0.575-0.375-0.979-0.624-1.208-0.75
	c1.84-3,3.105-6.094,3.795-9.281l2.07,0.469c-0.345,1.125-0.689,2.188-1.035,3.188h9.315v2.063L409.709,161.716z M398.928,226.624
	v-4.406h5.606c-0.058-0.188-0.173-0.469-0.345-0.844c-0.289-0.812-0.518-1.374-0.69-1.688l2.07-0.469
	c0.229,0.501,0.518,1.219,0.862,2.156c0.114,0.375,0.201,0.656,0.259,0.844h5.089v4.406h-1.897v-2.438h-9.143v2.438H398.928z
	 M401.774,233.749l3.449,1.969c1.265-1.249,2.127-2.874,2.588-4.875h-4.657L401.774,233.749z M408.243,295.845h-5.434v3.469h5.434
	V295.845z M412.55,205.751c0.746-5.937,2.989-11.719,6.728-17.344v-1.313h-11.213v1.875h8.884
	c-3.45,5.501-5.606,11.095-6.469,16.781H412.55L412.55,205.751z M417.074,161.998c-0.115-0.062-0.258-0.218-0.431-0.469
	c-1.093-0.999-1.927-1.781-2.501-2.344l1.207-1.5c1.149,0.938,2.156,1.875,3.019,2.813L417.074,161.998z M414.229,231.312v-1.781
	h1.38v-7.969h2.329c0.057-0.312,0.143-0.718,0.259-1.219c0.057-0.563,0.114-0.968,0.172-1.219l1.897,0.094
	c-0.058,0.251-0.144,0.626-0.259,1.125c-0.172,0.563-0.288,0.97-0.345,1.219h3.364v17.25c0.057,1.562-0.662,2.375-2.156,2.438
	c-0.576,0-1.294,0-2.156,0c0-0.188-0.059-0.469-0.173-0.844c-0.058-0.501-0.116-0.876-0.173-1.125c0.057,0,0.229,0,0.518,0
	c0.518,0.062,0.919,0.094,1.208,0.094c0.862,0,1.264-0.344,1.207-1.031v-7.031h-3.881c0.114,4.563-0.432,8-1.639,10.313
	c-0.289-0.188-0.748-0.563-1.38-1.125c-0.116-0.063-0.202-0.126-0.259-0.188c1.034-1.999,1.522-4.999,1.466-9H414.229z
	 M415.091,293.126v-2.063h8.625v-3.844h1.984v3.844h8.624v2.063h-7.503c1.839,4.251,4.628,7.626,8.366,10.125
	c-0.059,0.063-0.116,0.188-0.173,0.375c-0.518,0.876-0.834,1.469-0.948,1.781c-3.911-2.874-6.699-6.469-8.366-10.781v8.813h4.57
	v2.063h-4.57v4.031h-1.984v-4.031h-4.657v-2.063h4.657v-8.719c-1.668,4.313-4.429,8.001-8.28,11.063
	c-0.115-0.249-0.288-0.624-0.517-1.125c-0.289-0.5-0.489-0.844-0.604-1.031c3.68-2.625,6.439-6.125,8.28-10.5H415.091z
	 M434.929,273.19c-0.69,0.938-1.151,1.594-1.38,1.969c-5.061-2.874-7.993-7.156-8.798-12.844c-0.806,5.563-3.795,9.938-8.97,13.125
	c-0.116-0.188-0.317-0.469-0.604-0.844c-0.402-0.563-0.661-0.97-0.775-1.219c5.52-3.188,8.509-7.937,8.97-14.25
	c0.114-1.438,0.172-3.313,0.172-5.625h2.243l-0.086,3.281c0.573,8.25,3.708,13.656,9.4,16.219
	C435.043,273.064,434.985,273.127,434.929,273.19L434.929,273.19z M418.368,165.091c-0.748,3.126-1.38,5.906-1.897,8.344
	l-1.811-0.656c0.804-3.188,1.408-5.968,1.811-8.344c0.229,0.126,0.747,0.313,1.553,0.563
	C417.39,164.81,417.506,164.842,418.368,165.091L418.368,165.091z M417.506,155.81c-0.92-1.062-1.812-2-2.674-2.813l1.294-1.406
	c0.919,0.813,1.84,1.72,2.76,2.719L417.506,155.81z M417.42,223.343v6.188h3.881v-6.188H417.42z M418.8,157.123v-1.969h3.363
	c-0.288-0.812-0.604-2-0.948-3.563l1.897-0.281c0.057,0.375,0.2,0.938,0.431,1.688c0.229,0.876,0.402,1.594,0.518,2.156h-0.086
	h2.156v1.969h-4.054l-0.086,3.375h3.881c0,0.876-0.029,2.188-0.086,3.938c-0.059,2.688-0.116,4.626-0.173,5.813
	c0,1.812-0.806,2.719-2.415,2.719c-0.518,0.062-1.064,0.094-1.639,0.094l-0.345-1.969c0.574,0,1.005,0,1.294,0
	c0.977,0.062,1.437-0.375,1.38-1.313c0-0.375,0.028-0.968,0.086-1.781c0.114-2.625,0.173-4.5,0.173-5.625h-2.243
	c0,0.188,0,0.344,0,0.469c-0.115,4.563-0.979,8.156-2.587,10.781l-1.467-1.406c1.437-2,2.213-5.156,2.329-9.469
	c0.114-1.625,0.173-3.5,0.173-5.625H418.8z M419.059,228.312c-0.058-0.062-0.116-0.188-0.173-0.375
	c-0.172-0.812-0.518-1.749-1.035-2.813l1.38-0.656c0.229,0.438,0.488,1.095,0.776,1.969c0.229,0.563,0.402,0.97,0.518,1.219
	L419.059,228.312z M419.23,236.655c-0.115-0.312-0.258-0.75-0.431-1.313c-0.345-0.938-0.634-1.655-0.862-2.156l1.466-0.656
	c0.114,0.313,0.287,0.782,0.518,1.406c0.345,0.876,0.604,1.563,0.776,2.063L419.23,236.655z M427.598,223.343
	c0.172,2.876-0.72,5.126-2.674,6.75c-0.173-0.188-0.432-0.437-0.776-0.75c-0.346-0.375-0.604-0.624-0.776-0.75
	c1.725-1.249,2.501-3.062,2.329-5.438v-2.719h7.158v5.25c-0.058,1.001,0.373,1.47,1.294,1.406h1.121
	c0,0.188-0.058,0.501-0.173,0.938c-0.058,0.438-0.115,0.782-0.172,1.031h-1.726c-1.61,0.063-2.387-0.844-2.328-2.719v-4.031h-3.277
	V223.343L427.598,223.343z M426.129,195.063v-2.906h-2.674v2.906H426.129z M426.129,205.47v-2.719h-2.674v2.719H426.129z
	 M424.837,241.53v-10.406h8.971v10.406h-1.897v-1.781h-5.176v1.781H424.837z M426.563,166.029v-1.875h3.536v-1.313l2.328-2.625
	h-4.829v-1.406l-0.604,0.938c-0.402-0.437-0.892-0.905-1.466-1.406c1.38-2.063,2.472-4.468,3.277-7.219l1.983,0.281
	c-0.345,1-0.689,1.969-1.034,2.906h5.434v1.875h-6.21c-0.346,0.75-0.748,1.5-1.208,2.25h6.728v1.969l-2.587,3v0.75h3.277v1.875
	h-3.277v4.594c0.056,1.688-0.748,2.531-2.415,2.531c-0.807,0.062-1.553,0.094-2.243,0.094c0-0.188-0.058-0.438-0.172-0.75
	c-0.059-0.563-0.116-0.97-0.173-1.219c0.69,0,1.351,0,1.983,0c0.863,0.062,1.265-0.313,1.208-1.125v-4.125H426.563z
	 M426.734,232.999v5.156h5.176v-5.156H426.734z M441.521,196.47c-0.058,6.251-1.927,9.437-5.606,9.563
	c-3.853-0.063-5.778-3.249-5.778-9.563c0.057-6.312,1.954-9.563,5.692-9.75C439.566,186.846,441.464,190.095,441.521,196.47
	L441.521,196.47z M439.538,196.47c0-5.438-1.266-8.124-3.795-8.063c-2.358,0.188-3.566,2.876-3.623,8.063
	c0,5.376,1.236,8.032,3.709,7.969C438.301,204.502,439.538,201.846,439.538,196.47L439.538,196.47z M437.292,156.279v-1.875h2.501
	c0.287-1.125,0.546-2.187,0.776-3.188l1.897,0.188c-0.059,0.375-0.202,1-0.432,1.875c-0.172,0.501-0.288,0.876-0.345,1.125h4.398
	v1.875h-4.916c-0.806,2.875-1.41,4.875-1.812,6h2.502v-4.594h1.639v4.594h2.328v1.875h-2.328v3l2.587-0.375
	c-0.058,0.75-0.086,1.406-0.086,1.969l-2.501,0.281v4.594h-1.897v-4.406c-1.553,0.188-2.991,0.375-4.313,0.563l-0.173-2.063
	c0.401,0,1.063-0.062,1.983-0.188c1.092-0.062,1.926-0.125,2.502-0.188v-3.188h-3.968v-1.875c0.057-0.188,0.143-0.469,0.259-0.844
	c0.459-1.5,0.919-3.218,1.38-5.156H437.292z M437.464,224.937v-2.063h9.66c-0.116-0.499-0.375-1.28-0.776-2.344
	c-0.172-0.499-0.288-0.844-0.345-1.031l2.329-0.281c0.172,0.501,0.459,1.313,0.862,2.438c0.172,0.563,0.315,0.97,0.431,1.219h8.107
	v2.063h-12.592c0,0.813-0.059,2.001-0.173,3.563c0.114-1.125,0.114-1.031,0,0.281h10.178c-0.059,1.438-0.173,3.563-0.345,6.375
	c-0.059,0.813-0.087,1.376-0.087,1.688c-0.058,2.813-1.524,4.187-4.398,4.125c-1.266,0-2.473,0-3.623,0
	c-0.115-0.688-0.259-1.375-0.431-2.063c1.092,0,2.271,0,3.536,0c1.781,0.062,2.73-0.844,2.847-2.719
	c0-0.249,0.028-0.656,0.086-1.219c0.114-1.812,0.172-3.188,0.172-4.125h-8.107c-0.23,4.5-2.242,8.124-6.037,10.875
	c-0.806-0.876-1.352-1.438-1.639-1.688c3.737-2.499,5.635-6,5.692-10.5c0.114-1.875,0.173-3.405,0.173-4.594H437.464z
	 M439.017,307.657l-1.897-1.031c1.035-2,2.357-5.03,3.968-9.094c0.573,0.375,1.207,0.719,1.897,1.031L439.017,307.657z
	 M456.957,275.44c-2.876-1.313-6.01-2.656-9.401-4.031c-0.979,1.749-4.141,3.218-9.488,4.406c-0.115-0.563-0.374-1.313-0.775-2.25
	c5.979-0.75,9.026-2.469,9.142-5.156c0.229-0.875,0.346-1.749,0.346-2.625h2.069c-0.058,1.313-0.172,2.313-0.345,3l-0.172,0.844
	c3.219,1.251,6.41,2.5,9.573,3.75L456.957,275.44z M440.914,295.282c-0.345-0.624-0.862-1.562-1.553-2.813
	c-0.748-1.374-1.294-2.375-1.639-3l1.726-1.031c1.149,1.938,2.271,3.844,3.363,5.719L440.914,295.282z M439.103,270.94v-8.156
	h17.078v7.875h-2.07v-6h-12.938v6.281H439.103z M440.224,260.722v-6.469h14.835v6.469H440.224z M458.078,307.376
	c-0.518,0.687-1.007,1.343-1.467,1.969c-3.565-2.376-5.75-5.375-6.555-9c-0.69,3.563-3.077,6.687-7.159,9.375
	c-0.23-0.313-0.661-0.907-1.293-1.781c-0.059-0.063-0.116-0.126-0.173-0.188c4.542-2.499,6.986-5.968,7.331-10.406
	c0.114-0.875,0.173-1.906,0.173-3.094h2.069c0,0.25-0.029,0.625-0.086,1.125c0,0.501,0,0.844,0,1.031
	C451.609,301.408,453.994,305.064,458.078,307.376L458.078,307.376z M442.294,256.128v2.719h10.695v-2.719H442.294z M455.49,297.72
	c-0.288-0.125-0.689-0.249-1.207-0.375c-0.289-0.062-0.518-0.125-0.69-0.188l1.553-4.219h-7.936
	c-0.633,1.563-1.38,3.126-2.242,4.688c-0.116-0.062-0.316-0.188-0.604-0.375c-0.575-0.375-0.979-0.624-1.208-0.75
	c1.84-3,3.105-6.094,3.795-9.281l2.07,0.469c-0.345,1.125-0.689,2.188-1.035,3.188h9.315v2.063L455.49,297.72z M456.053,196.47
	c-0.058,6.251-1.927,9.437-5.606,9.563c-3.853-0.063-5.778-3.249-5.778-9.563c0.057-6.312,1.954-9.563,5.692-9.75
	C454.098,186.846,455.995,190.095,456.053,196.47L456.053,196.47z M458.25,158.623c-0.23,0.375-0.575,1.063-1.035,2.063
	c-2.358-1.812-4.169-3.968-5.434-6.469c-1.38,2.376-3.277,4.563-5.692,6.563c-0.115-0.249-0.374-0.718-0.776-1.406
	c-0.172-0.188-0.288-0.343-0.345-0.469c2.875-2.124,4.916-4.718,6.124-7.781l2.069,0.281l-0.431,0.938
	C454.11,155.092,455.95,157.186,458.25,158.623L458.25,158.623z M454.069,196.47c0-5.438-1.266-8.124-3.795-8.063
	c-2.358,0.188-3.566,2.876-3.623,8.063c0,5.376,1.236,8.032,3.709,7.969C452.832,204.502,454.069,201.846,454.069,196.47
	L454.069,196.47z M450.574,172.966c-2.014,0-3.019-1.063-3.019-3.188v-9.563h1.897v4.125c1.839-1.062,3.593-2.344,5.261-3.844
	l1.208,1.688c-2.128,1.688-4.284,3.157-6.469,4.406v2.719c-0.059,1.125,0.518,1.655,1.725,1.594h1.983
	c1.15,0,1.782-0.53,1.897-1.594c0.173-0.999,0.287-2.063,0.346-3.188c0.689,0.25,1.322,0.469,1.897,0.656
	c-0.173,1.563-0.375,2.782-0.604,3.656c-0.23,1.688-1.324,2.531-3.278,2.531H450.574z M461.087,207.626v-12.563
	c-0.634,1.251-1.294,2.438-1.983,3.563c-0.059-0.312-0.116-0.75-0.173-1.313c-0.116-0.687-0.202-1.187-0.259-1.5
	c1.781-3.375,3.047-6.905,3.795-10.594l1.897,0.563c-0.403,1.563-0.893,3.157-1.466,4.781v17.063H461.087z M480.527,296.595
	c-0.288,0.501-0.489,0.876-0.604,1.125c-4.025-2.188-7.131-4.843-9.315-7.969c-2.128,2.875-5.377,5.625-9.746,8.25l-1.035-2.156
	c4.83-2.563,8.164-5.499,10.005-8.813l2.415,0.281c-0.058,0.063-0.144,0.22-0.259,0.469c-0.115,0.188-0.202,0.344-0.259,0.469
	c2.357,3.126,5.463,5.563,9.315,7.313C480.929,295.751,480.757,296.095,480.527,296.595L480.527,296.595z M460.432,156.654v-1.969
	h3.708c-0.288-1.062-0.604-2.093-0.948-3.094l1.983-0.469c0.173,0.688,0.518,1.875,1.035,3.563h2.415v1.969h-4.657l-0.087,3.188
	h4.141c0,3.375-0.087,6.75-0.259,10.125c0,2-0.835,3-2.502,3c-0.689,0-1.323,0-1.897,0l-0.431-1.969c0.518,0,1.092,0,1.725,0
	c0.978,0.062,1.437-0.437,1.38-1.5c0.115-3.249,0.173-5.813,0.173-7.688h-2.415c0,5.313-0.806,9.218-2.415,11.719l-1.466-1.406
	c1.437-2,2.156-5.656,2.156-10.969l0.086-4.5H460.432z M460.862,241.343v-18.375h2.329c0.057-0.249,0.143-0.593,0.259-1.031
	c0.229-0.687,0.431-1.594,0.604-2.719l2.156,0.375c-0.288,1.125-0.604,2.25-0.949,3.375h3.882v18.188h-1.897v-1.781h-4.399v1.969
	H460.862z M460.862,275.347v-18.375h2.329c0.057-0.249,0.143-0.594,0.259-1.031c0.229-0.688,0.431-1.594,0.604-2.719l2.156,0.375
	c-0.288,1.125-0.604,2.25-0.949,3.375h3.882v18.188h-1.897v-1.781h-4.399v1.969H460.862z M473.455,309.813
	c-1.669-1.188-4.112-2.782-7.331-4.781c-0.748-0.5-1.324-0.875-1.726-1.125l1.208-1.594c1.954,1.251,3.593,2.282,4.916,3.094
	l4.916-4.781h-13.109v-2.063h15.869v2.25l-5.778,5.719c0.805,0.437,1.609,0.938,2.415,1.5L473.455,309.813z M462.846,225.03v5.156
	h4.399v-5.156H462.846z M462.846,232.249v5.344h4.399v-5.344H462.846z M462.846,259.034v5.156h4.399v-5.156H462.846z
	 M462.846,266.253v5.344h4.399v-5.344H462.846z M464.191,200.313v-3.656h15.181v3.656h-1.812v-1.875h-11.558v1.875H464.191z
	 M464.709,189.157v-1.688h6.383c-0.058-0.249-0.116-0.593-0.173-1.031c-0.115-0.437-0.202-0.75-0.259-0.938l1.984-0.281
	c0.172,0.75,0.345,1.5,0.518,2.25h6.123v1.688H464.709z M466.089,201.907v-1.688h11.472v1.688h-4.227v3
	c0,1.562-0.72,2.344-2.156,2.344c-0.518,0.062-1.523,0.094-3.019,0.094c0-0.063,0-0.157,0-0.281
	c-0.058-0.375-0.173-0.907-0.345-1.594c0.518,0.062,1.322,0.094,2.415,0.094c0.862,0,1.264-0.313,1.207-0.938v-2.719H466.089z
	 M466.262,195.251v-4.688h11.126v4.688H466.262z M471.988,155.435c-0.748,1.375-1.639,2.719-2.674,4.031
	c-0.633-0.687-1.093-1.156-1.38-1.406c1.726-2.063,2.989-4.374,3.795-6.938l1.984,0.188c-0.116,0.313-0.289,0.782-0.518,1.406
	c-0.173,0.438-0.288,0.75-0.345,0.938h7.762v1.781H471.988L471.988,155.435z M468.073,192.063v1.688h7.504v-1.688H468.073z
	 M470.954,298.095c-0.173-0.188-0.403-0.5-0.69-0.938c-0.921-1.187-1.639-2.063-2.156-2.625l1.553-1.125
	c0.574,0.563,1.38,1.469,2.415,2.719c0.229,0.313,0.401,0.531,0.518,0.656L470.954,298.095z M480.269,171.935
	c-0.345,0.375-0.604,0.656-0.776,0.844c-3.221-2.75-5.061-6.875-5.52-12.375c-0.69,0.063-1.38,0.157-2.07,0.281v9.844
	c1.208-0.624,2.329-1.125,3.364-1.5c0,0.188,0,0.501,0,0.938c0.056,0.438,0.086,0.75,0.086,0.938
	c-1.208,0.437-2.415,0.999-3.623,1.688c-0.115,0.062-0.258,0.125-0.431,0.188c-0.461,0.249-0.748,0.437-0.862,0.563l-1.122-1.688
	c0.518-0.438,0.747-1.031,0.69-1.781v-10.969c3.105-0.249,6.21-0.75,9.315-1.5l0.689,1.969c-1.323,0.313-2.76,0.563-4.313,0.75
	c0.173,1.5,0.401,2.813,0.69,3.938c1.149-0.624,2.271-1.313,3.363-2.063l0.949,1.688c-1.208,0.75-2.445,1.469-3.709,2.156
	c0.746,2.063,2.099,3.782,4.054,5.156C480.929,171.185,480.67,171.497,480.269,171.935L480.269,171.935z M476.129,241.155
	c-1.151,0-2.358,0-3.623,0c-0.058-0.688-0.202-1.438-0.431-2.25c0.746,0.062,1.867,0.094,3.363,0.094
	c1.609,0.125,2.415-0.656,2.415-2.344c0.114-1.374,0.201-4.313,0.259-8.813c0.057-1.313,0.086-2.25,0.086-2.813h-5.175
	c-0.23,0.563-0.604,1.376-1.121,2.438c-0.23,0.501-0.403,0.876-0.518,1.125c-0.518-0.375-1.093-0.75-1.725-1.125
	c1.38-2.687,2.443-5.438,3.191-8.25l1.983,0.469c-0.116,0.375-0.288,0.907-0.518,1.594c-0.23,0.75-0.403,1.313-0.518,1.688h6.383
	c0,4.001-0.116,8.688-0.345,14.063C479.838,239.717,478.601,241.093,476.129,241.155L476.129,241.155z M476.129,275.159
	c-1.151,0-2.358,0-3.623,0c-0.058-0.688-0.202-1.438-0.431-2.25c0.746,0.062,1.867,0.094,3.363,0.094
	c1.609,0.124,2.415-0.656,2.415-2.344c0.114-1.374,0.201-4.313,0.259-8.813c0.057-1.313,0.086-2.25,0.086-2.813h-5.175
	c-0.23,0.563-0.604,1.375-1.121,2.438c-0.23,0.501-0.403,0.876-0.518,1.125c-0.518-0.375-1.093-0.75-1.725-1.125
	c1.38-2.687,2.443-5.438,3.191-8.25l1.983,0.469c-0.116,0.375-0.288,0.906-0.518,1.594c-0.23,0.75-0.403,1.313-0.518,1.688h6.383
	c0,4-0.116,8.688-0.345,14.063C479.838,273.721,478.601,275.096,476.129,275.159L476.129,275.159z M474.49,234.687
	c-0.289-0.437-0.72-1.093-1.294-1.969c-0.806-1.313-1.438-2.312-1.897-3l1.553-1.125c0.401,0.626,1.005,1.5,1.811,2.625
	c0.69,0.938,1.208,1.688,1.553,2.25L474.49,234.687z M474.49,268.69c-0.289-0.437-0.72-1.093-1.294-1.969
	c-0.806-1.313-1.438-2.312-1.897-3l1.553-1.125c0.401,0.625,1.005,1.5,1.811,2.625c0.69,0.938,1.208,1.688,1.553,2.25L474.49,268.69
	z M481.999,191.595v-1.5h2.932c-0.172-0.124-0.489-0.375-0.948-0.75c-0.23-0.188-0.403-0.312-0.518-0.375
	c1.264-1.062,2.242-2.25,2.933-3.563l1.812,0.469c-0.059,0.126-0.173,0.313-0.346,0.563c-0.115,0.251-0.23,0.438-0.345,0.563h4.14
	v-1.781h1.897v1.781h7.332v1.406h-7.332v1.688h9.057v1.5H481.999z M482.517,200.126v-1.406h6.468v-1.219h1.898v10.125h-1.898v-1.875
	h-6.985v-1.313h6.985v-1.5h-6.123v-1.313h6.123v-1.5H482.517z M483.149,159.935v-1.969h2.933v-3.469c-0.289,0-0.72,0-1.294,0
	c-0.575,0.063-1.007,0.094-1.294,0.094c-0.058-0.75-0.145-1.374-0.259-1.875c2.415-0.062,4.801-0.249,7.159-0.563l0.259,1.875
	c-0.921,0.188-1.841,0.281-2.761,0.281v3.656h2.674v1.969h-2.674v2.531l0.259-0.375c1.092,0.938,2.07,1.844,2.933,2.719
	l-1.035,1.594c-0.689-0.75-1.409-1.5-2.156-2.25v9.469h-1.811v-9.375c-0.634,1.938-1.467,3.656-2.501,5.156
	c-0.231-0.812-0.518-1.531-0.863-2.156c1.437-2.063,2.53-4.5,3.277-7.313H483.149z M484.012,240.968
	c-0.058,0.062-0.116,0.125-0.173,0.188l-0.948-2.156c1.035-0.938,1.868-1.749,2.501-2.438v-7.313h-2.328v-2.063h4.226v9.281
	c0.978,1.626,2.616,2.438,4.916,2.438c3.737,0.125,7.619,0.125,11.645,0c-0.059,0.125-0.116,0.343-0.173,0.656
	c-0.23,0.563-0.375,1.031-0.432,1.406c-5.923,0-9.775-0.063-11.557-0.188c-2.301,0-4.054-0.844-5.262-2.531
	C485.852,238.75,485.047,239.655,484.012,240.968L484.012,240.968z M483.235,259.409v-1.969h2.415v-4.125h1.897v4.125h2.329v1.969
	h-2.329v4.688l2.415-0.656c0,0.813,0,1.532,0,2.156l-2.415,0.656v6.469c0.057,1.749-0.689,2.625-2.242,2.625
	c-0.461,0.062-1.064,0.094-1.812,0.094c-0.058-0.75-0.172-1.47-0.345-2.156c0.114,0,0.259,0,0.432,0c0.345,0.062,0.66,0.062,0.948,0
	c0.805,0.062,1.178-0.281,1.121-1.031v-5.438c-0.288,0.126-0.748,0.25-1.38,0.375c-0.518,0.188-0.921,0.313-1.207,0.375
	l-0.173-2.344c0.114,0,0.259-0.031,0.432-0.094c0.573-0.125,1.35-0.313,2.328-0.563v-5.156H483.235z M503.591,307.188
	c-0.69,0.938-1.151,1.594-1.38,1.969c-5.061-2.874-7.993-7.156-8.798-12.844c-0.806,5.563-3.795,9.938-8.97,13.125
	c-0.116-0.188-0.317-0.469-0.604-0.844c-0.402-0.563-0.661-0.97-0.775-1.219c5.52-3.188,8.509-7.937,8.97-14.25
	c0.114-1.438,0.172-3.313,0.172-5.625h2.243l-0.086,3.281c0.573,8.25,3.708,13.656,9.4,16.219
	C503.705,307.063,503.647,307.125,503.591,307.188L503.591,307.188z M486.858,224.937c-0.289-0.437-0.835-1.219-1.639-2.344
	c-0.576-0.874-1.007-1.5-1.294-1.875l1.553-1.031c1.437,1.751,2.501,3.094,3.19,4.031L486.858,224.937z M484.586,197.313v-4.406
	h15.353v4.406H484.586z M486.483,188.407c-0.402,0.563-0.92,1.125-1.553,1.688h6.728v-1.688H486.483z M486.483,194.22v1.688h11.558
	v-1.688H486.483z M500.227,237.874c-0.518,0.063-1.207,0.094-2.069,0.094c0-0.062,0-0.124,0-0.188
	c-0.116-0.687-0.23-1.187-0.346-1.5c0.173,0,0.46,0,0.862,0c0.346,0.063,0.604,0.094,0.776,0.094
	c0.919,0.063,1.351-0.469,1.294-1.594v-0.563h-3.709v3.375h-1.897v-3.375h-3.708v3.656h-1.812v-12.563h5.002
	c-0.345-0.249-0.92-0.624-1.725-1.125c-0.862-0.499-1.466-0.844-1.812-1.031l1.208-1.125c0.401,0.251,0.546,0.345,0.431,0.281
	c1.381,0.813,2.443,1.438,3.191,1.875l3.709-2.25h-10.264v-1.594h13.023v1.781l-5.002,3.094c0.114,0,0.172,0.032,0.172,0.094h5.003
	v9.75C502.612,236.937,501.836,237.874,500.227,237.874L500.227,237.874z M491.084,163.216v-1.781h12.161v1.781h-5.175v3h4.658
	v1.688h-4.658v3h5.779v1.688h-13.801v-1.688h6.038v-3h-4.657v-1.688h4.657v-3H491.084z M493.845,262.128
	c-1.956,0.063-2.904-0.905-2.847-2.906v-6h1.897v3.281c3.507-0.563,6.728-1.313,9.66-2.25l0.689,1.875
	c-2.703,0.688-6.153,1.406-10.35,2.156v0.281c-0.116,1.313,0.488,1.907,1.812,1.781h4.916c1.149,0.063,1.812-0.406,1.983-1.406
	c0.115-0.313,0.229-0.875,0.346-1.688c0-0.062,0-0.125,0-0.188c0.229,0.063,0.632,0.188,1.207,0.375
	c0.287,0.063,0.488,0.126,0.604,0.188c-0.058,0.25-0.115,0.563-0.172,0.938c-0.116,0.688-0.202,1.219-0.259,1.594
	c-0.346,1.375-1.38,2.031-3.105,1.969H493.845z M491.171,275.628v-11.531h11.299v11.531h-1.897v-1.313h-7.504v1.313H491.171z
	 M491.43,226.905v2.156h3.708v-2.156H491.43z M491.43,230.562v2.156h3.708v-2.156H491.43z M491.86,159.279v-6.844h10.609v6.844
	H491.86z M493.068,265.878v2.531h7.504v-2.531H493.068z M493.068,270.097v2.531h7.504v-2.531H493.068z M493.729,207.626v-10.125
	h1.897v1.219h6.555v1.406h-6.555v1.5h6.124v1.313h-6.124v1.5h7.072v1.313h-7.072v1.875H493.729z M493.758,154.216v3.281h6.814
	v-3.281H493.758z M500.744,226.905h-3.709v2.156h3.709V226.905z M497.035,230.562v2.156h3.709v-2.156H497.035z M508.258,207.532
	V197.22c-0.173,0.063-0.432,0.157-0.776,0.281c-0.689,0.251-1.207,0.469-1.553,0.656c-0.172-0.624-0.46-1.249-0.862-1.875
	c3.393-0.938,6.124-2.28,8.194-4.031h-7.59v-1.688h8.883v-2.344c-0.92,0.063-1.927,0.094-3.019,0.094c-0.979,0-2.328,0-4.054,0
	c-0.058-0.687-0.144-1.249-0.259-1.688c4.197,0,9.603-0.188,16.215-0.563l0.259,1.688c-1.438,0.126-3.853,0.251-7.245,0.375v2.438
	h8.884v1.688h-7.59c1.782,1.626,4.485,2.876,8.107,3.75c-0.345,0.688-0.633,1.313-0.862,1.875c-3.968-1.249-6.813-2.843-8.539-4.781
	v3.281h-1.897v-3.281c-1.61,1.688-3.651,3.032-6.123,4.031h14.231v10.406h-1.898v-0.938h-10.608v0.938H508.258z M508.704,224.187
	c-0.403,1.125-0.862,2.25-1.38,3.375c-0.116-0.062-0.289-0.188-0.518-0.375c-0.461-0.375-0.806-0.624-1.035-0.75
	c1.207-2.438,2.04-4.875,2.501-7.313l1.897,0.375c-0.115,0.501-0.316,1.188-0.604,2.063c-0.058,0.313-0.116,0.532-0.173,0.656h6.038
	v1.969h-3.019c0,2.376-0.03,4.063-0.087,5.063h3.536v1.969h-3.708c0,0.626-0.059,1.219-0.173,1.781
	c0.401,0.438,0.948,1.095,1.639,1.969c1.149,1.313,2.012,2.344,2.588,3.094l-1.467,1.406c-0.23-0.313-0.575-0.75-1.035-1.313
	c-0.461-0.624-1.207-1.594-2.242-2.906c-0.634,2.126-2.1,4.219-4.398,6.281c-0.576-0.75-1.035-1.313-1.38-1.688
	c2.816-2.438,4.341-5.312,4.571-8.625h-4.313v-1.969h4.398c0.057-1.062,0.086-2.749,0.086-5.063H508.704L508.704,224.187z
	 M506.634,173.341v-18.375h2.329c0.057-0.249,0.143-0.593,0.259-1.031c0.229-0.687,0.431-1.594,0.604-2.719l2.156,0.375
	c-0.288,1.125-0.604,2.25-0.949,3.375h3.882v18.188h-1.897v-1.781h-4.399v1.969H506.634z M513.457,275.159
	c-1.323,0.062-2.674,0.094-4.054,0.094c-0.058-0.626-0.23-1.376-0.518-2.25c0.978,0.062,2.271,0.094,3.882,0.094
	c1.667,0.124,2.529-0.624,2.587-2.25c0-0.125,0.028-0.343,0.087-0.656c0.114-1.25,0.172-2.218,0.172-2.906h-8.711l0.949-7.406h7.676
	v-3.656h-8.625v-1.969h10.781v7.594h-8.021l-0.518,3.469h8.712c-0.059,0.625-0.116,1.563-0.173,2.813
	c-0.116,1.5-0.202,2.563-0.259,3.188C517.425,273.94,516.102,275.221,513.457,275.159L513.457,275.159z M506.902,309.532v-21.094
	h18.717v21.094h-1.984v-1.5h-14.749v1.5H506.902z M508.617,157.029v5.156h4.399v-5.156H508.617z M508.617,164.248v5.344h4.399
	v-5.344H508.617z M508.886,290.407v15.844h14.749v-15.844H508.886z M510.155,198.813v2.344h10.608v-2.344H510.155z M510.155,202.657
	v2.25h10.608v-2.25H510.155z M511.818,302.688v-8.906h8.884v8.906H511.818z M513.716,295.657v5.156h5.176v-5.156H513.716z
	 M521.9,173.154c-1.151,0-2.358,0-3.623,0c-0.058-0.688-0.202-1.438-0.431-2.25c0.746,0.062,1.867,0.094,3.363,0.094
	c1.609,0.125,2.415-0.656,2.415-2.344c0.114-1.374,0.201-4.313,0.259-8.813c0.057-1.313,0.086-2.25,0.086-2.813h-5.175
	c-0.23,0.563-0.604,1.375-1.121,2.438c-0.23,0.501-0.402,0.876-0.518,1.125c-0.518-0.375-1.093-0.75-1.725-1.125
	c1.38-2.687,2.443-5.438,3.191-8.25l1.983,0.469c-0.116,0.375-0.288,0.907-0.518,1.594c-0.23,0.75-0.403,1.313-0.518,1.688h6.383
	c0,4-0.116,8.688-0.345,14.063C525.609,171.715,524.372,173.091,521.9,173.154L521.9,173.154z M516.897,240.687v-19.313h8.97v19.219
	h-2.069v-2.063h-4.916v2.156H516.897z M520.262,166.685c-0.289-0.437-0.72-1.093-1.294-1.969c-0.806-1.313-1.438-2.312-1.897-3
	l1.553-1.125c0.401,0.625,1.005,1.5,1.811,2.625c0.69,0.938,1.208,1.688,1.553,2.25L520.262,166.685z M518.882,223.437v13.031h4.916
	v-13.031H518.882z M522.687,275.628v-22.313h2.069v22.313H522.687z M531.067,196.376c-0.289-0.312-0.69-0.812-1.208-1.5
	c-0.748-0.874-1.323-1.562-1.725-2.063l1.553-1.125c1.035,1.063,2.069,2.22,3.104,3.469L531.067,196.376z M531.671,202.188
	c-0.461,2.438-0.806,4.219-1.035,5.344l-2.069-0.656c0.689-2.562,1.321-5.438,1.897-8.625c0.286,0.126,0.718,0.281,1.293,0.469
	c0.287,0.063,0.488,0.126,0.604,0.188C532.245,199.533,532.016,200.627,531.671,202.188L531.671,202.188z M531.671,190.282
	c-0.921-1.249-1.869-2.438-2.847-3.563l1.64-1.125c0.229,0.251,0.546,0.626,0.948,1.125c0.862,0.938,1.523,1.72,1.983,2.344
	L531.671,190.282z M528.921,257.065v-2.25h20.527v2.25h-10.091v5.906l1.293-1.781c2.645,1.626,5.204,3.281,7.677,4.969l-1.38,2.063
	c-2.243-1.625-4.773-3.375-7.59-5.25v12.469h-2.243v-18.375H528.921z M531.25,236.655c-0.461,0.313-0.835,0.626-1.122,0.938
	l-1.121-2.063c0.46-0.499,0.69-1.155,0.69-1.969v-11.344h1.897v11.906l2.415-1.5v-13.313h1.983v22.219h-1.983v-6.563
	c-0.518,0.251-1.266,0.688-2.243,1.313C531.537,236.468,531.364,236.594,531.25,236.655L531.25,236.655z M529.697,306.813v-17.531
	h5.865v15.75h-4.055v1.781H529.697z M531.336,173.435v-20.813h15.611v20.813h-2.07v-1.594h-11.385v1.594H531.336z M531.508,291.251
	v11.719h2.329v-11.719H531.508z M534.086,189.532v-1.781h2.76v-2.531h1.812v2.531h4.14v-2.531h1.897v2.531h3.278v1.781h-3.278v2.813
	h4.054v1.781h-4.398c1.149,1.938,2.73,3.438,4.744,4.5c-0.059,0.126-0.145,0.313-0.259,0.563c-0.173,0.251-0.403,0.688-0.69,1.313
	c-1.38-0.938-2.501-1.905-3.363-2.906v4.969h-7.504v1.219c-0.059,1.001,0.401,1.468,1.38,1.406h5.52
	c0.978,0,1.581-0.375,1.812-1.125c0.173-0.499,0.287-1.249,0.345-2.25c0.173,0.063,0.402,0.157,0.69,0.281
	c0.46,0.126,0.805,0.22,1.035,0.281c-0.116,0.938-0.289,1.781-0.518,2.531c-0.288,1.437-1.294,2.124-3.019,2.063h-6.556
	c-1.668,0-2.501-0.876-2.501-2.625v-5.25c-0.689,0.688-1.438,1.313-2.242,1.875c-0.23-0.624-0.518-1.249-0.862-1.875
	c2.069-1.313,3.679-2.968,4.83-4.969h-4.055v-1.781h3.709v-2.813H534.086z M533.492,154.685v6.469h11.385v-6.469H533.492z
	 M533.492,163.216v6.656h11.385v-6.656H533.492z M537.028,292.938v-1.969h4.398v-3.75h1.984v3.75h4.657v1.969h-4.657v3.469h5.605
	v1.875h-4.916c1.208,2.938,3.105,5.406,5.692,7.406l-1.293,1.781c-2.415-2.124-4.112-4.562-5.089-7.313v9.469h-1.984v-9.469
	c-1.207,3.188-3.048,5.781-5.52,7.781c-0.461-0.626-0.949-1.187-1.467-1.688c2.817-1.937,4.917-4.594,6.297-7.969h-4.485v-1.875
	h5.175v-3.469H537.028z M538.84,228.218c-0.461,0.876-0.949,1.688-1.467,2.438c-0.058-0.124-0.202-0.343-0.431-0.656
	c-0.403-0.499-0.69-0.874-0.863-1.125c2.013-2.874,3.537-6.094,4.571-9.656l1.984,0.281c-0.403,1.313-0.862,2.595-1.38,3.844h8.107
	v2.063h-2.07c-0.461,4.5-1.524,7.938-3.191,10.313c1.38,1.563,3.22,2.782,5.521,3.656c-0.518,0.75-0.949,1.438-1.294,2.063
	c-2.301-1.251-4.14-2.593-5.521-4.031c-0.979,1.125-2.703,2.531-5.175,4.219c-0.402-0.688-0.834-1.313-1.294-1.875
	c2.185-1.187,3.91-2.531,5.176-4.031C540.362,233.969,539.472,231.469,538.84,228.218L538.84,228.218z M537.277,198.438v2.531h5.692
	v-2.531H537.277z M539.175,194.126c-0.518,0.938-1.093,1.813-1.726,2.625h6.642c-0.575-0.812-1.121-1.688-1.639-2.625H539.175z
	 M538.657,189.532v2.813h4.14v-2.813H538.657z M540.306,225.593c0.401,3.626,1.236,6.407,2.501,8.344
	c1.322-1.937,2.185-4.781,2.588-8.531h-5.089V225.593L540.306,225.593z M555.516,194.97c0.114,5.438-0.807,9.656-2.761,12.656
	c-0.288-0.375-0.806-0.97-1.552-1.781c0.919-1.437,1.522-2.937,1.811-4.5c0.287-1.437,0.432-3.656,0.432-6.656v-7.031h8.021
	l-0.69-2.25l2.329-0.281c0,0.063,0.028,0.188,0.086,0.375c0.229,0.938,0.432,1.657,0.604,2.156h7.245v7.313H555.516L555.516,194.97z
	 M551.897,225.499v-1.969h2.329v-4.219h1.897v4.219h2.242v1.969h-2.242v4.688l2.156-0.656c0,0.75,0,1.47,0,2.156l-2.156,0.656v6.563
	c0.057,1.625-0.634,2.438-2.07,2.438c-0.633,0.062-1.294,0.094-1.983,0.094c0-0.313-0.059-0.782-0.173-1.406
	c-0.058-0.313-0.086-0.563-0.086-0.75c0.114,0,0.287,0,0.518,0c0.345,0.062,0.66,0.094,0.948,0.094
	c0.69,0.062,1.006-0.25,0.949-0.938v-5.531l-2.501,0.844l-0.173-2.344c0.862-0.188,1.753-0.405,2.674-0.656v-5.25H551.897z
	 M556.297,262.409c-1.094,2.563-2.101,4.75-3.02,6.563c-0.23-0.188-0.661-0.469-1.293-0.844c-0.173-0.125-0.317-0.219-0.432-0.281
	c1.035-1.875,1.983-3.938,2.846-6.188L556.297,262.409L556.297,262.409z M551.639,163.685v-2.156h9.574v-2.531l6.21-4.406h-13.8
	v-2.156h16.904v2.625l-7.158,5.063v1.406h9.143v2.156h-9.143v6.281c0.057,2.063-0.921,3.155-2.933,3.281c-0.345,0-0.893,0-1.639,0
	c-0.806,0.062-1.438,0.094-1.897,0.094c-0.116-0.876-0.259-1.688-0.432-2.438c0.229,0,0.632,0,1.208,0
	c0.746,0.062,1.35,0.094,1.811,0.094c1.208,0.062,1.782-0.53,1.726-1.781v-5.531H551.639z M570.959,268.597
	c-0.345-0.812-0.893-1.969-1.639-3.469c-0.461-0.938-0.776-1.625-0.949-2.063c-0.058,1.251-0.058,1.688,0,1.313
	c-0.115,2.751-0.202,4.75-0.259,6c0,3.062-1.38,4.562-4.14,4.5c-1.035,0.062-2.214,0.094-3.536,0.094
	c-0.058-0.438-0.173-1.031-0.345-1.781c-0.059-0.188-0.116-0.343-0.173-0.469c1.494,0.126,2.674,0.188,3.536,0.188
	c1.781,0.124,2.645-0.875,2.588-3c0.114-2.124,0.229-5.625,0.345-10.5h-5.521c0.057,7.938-2.501,13.313-7.676,16.125
	c0-0.063-0.058-0.126-0.173-0.188c-0.518-0.813-0.948-1.376-1.293-1.688c2.76-1.749,4.571-3.563,5.434-5.438
	c0.919-1.688,1.437-4.594,1.552-8.719v-0.094h-6.21v-2.063h6.297c0-0.5,0.028-1.187,0.086-2.063c0-0.999,0.028-1.688,0.086-2.063
	h2.07l-0.086,4.125h7.59l-0.173,5.25l1.467-0.75c0.172,0.375,0.431,0.876,0.776,1.5c0.919,1.813,1.639,3.22,2.156,4.219
	L570.959,268.597z M552.415,309.345V290.97h2.329c0.057-0.249,0.143-0.594,0.259-1.031c0.229-0.688,0.431-1.594,0.604-2.719
	l2.156,0.375c-0.288,1.125-0.604,2.25-0.949,3.375h3.882v18.188h-1.897v-1.781h-4.399v1.969H552.415z M554.398,293.032v5.156h4.399
	v-5.156H554.398z M554.398,300.251v5.344h4.399v-5.344H554.398z M555.516,189.626v3.375h13.455v-3.375H555.516z M556.896,207.626
	v-9.563h13.886v9.563h-1.983v-1.5h-9.919v1.5H556.896z M572.598,226.53c-0.461,0.876-0.806,1.563-1.035,2.063
	c-2.703-1.875-4.802-4.125-6.296-6.75c-1.151,1.938-2.646,3.75-4.485,5.438h8.884v1.875h-8.97v-1.781
	c-0.173,0.126-0.461,0.345-0.862,0.656c-0.346,0.313-0.634,0.563-0.863,0.75c-0.058-0.124-0.172-0.343-0.345-0.656
	c-0.288-0.687-0.518-1.125-0.689-1.313c2.874-1.937,5.088-4.53,6.641-7.781l2.156,0.188l-0.518,0.938
	C567.997,223.031,570.125,225.156,572.598,226.53L572.598,226.53z M558.879,199.938v4.5h9.919v-4.5H558.879z M559.574,241.624v-9.75
	H570.7v9.75h-1.983v-1.406h-7.159v1.406H559.574z M567.682,309.157c-1.151,0-2.358,0-3.623,0c-0.058-0.688-0.202-1.438-0.431-2.25
	c0.746,0.062,1.867,0.094,3.363,0.094c1.609,0.124,2.415-0.656,2.415-2.344c0.114-1.374,0.201-4.313,0.259-8.813
	c0.057-1.313,0.086-2.25,0.086-2.813h-5.175c-0.23,0.563-0.604,1.375-1.121,2.438c-0.23,0.501-0.402,0.876-0.518,1.125
	c-0.518-0.375-1.093-0.75-1.725-1.125c1.38-2.687,2.443-5.438,3.191-8.25l1.983,0.469c-0.116,0.375-0.288,0.906-0.518,1.594
	c-0.23,0.75-0.403,1.313-0.518,1.688h6.383c0,4-0.116,8.688-0.345,14.063C571.391,307.719,570.153,309.094,567.682,309.157
	L567.682,309.157z M561.558,233.749v4.688h7.159v-4.688H561.558z M566.043,302.688c-0.289-0.437-0.72-1.093-1.294-1.969
	c-0.806-1.313-1.438-2.312-1.897-3l1.553-1.125c0.401,0.625,1.005,1.5,1.811,2.625c0.69,0.938,1.208,1.688,1.553,2.25
	L566.043,302.688z M577.279,298.001c-0.115-0.062-0.258-0.219-0.431-0.469c-1.093-0.999-1.927-1.781-2.501-2.344l1.207-1.5
	c1.149,0.938,2.156,1.875,3.019,2.813L577.279,298.001z M577.107,207.626v-9.375c-0.116,0.126-0.289,0.345-0.518,0.656
	c-0.634,0.813-1.151,1.406-1.553,1.781c-0.058-0.375-0.202-0.938-0.431-1.688c-0.059-0.249-0.116-0.437-0.173-0.563
	c1.897-1.937,3.479-4.219,4.744-6.844l1.552,1.031c-0.058,0.126-0.172,0.313-0.345,0.563c-0.575,1.188-1.064,2.063-1.466,2.625
	v11.813H577.107z M577.711,232.343c-0.806,0.938-1.639,1.813-2.501,2.625c-0.23-0.75-0.489-1.5-0.776-2.25
	c2.127-1.937,4.054-4.374,5.778-7.313l1.639,1.219c-0.747,1.188-1.466,2.282-2.156,3.281v11.719h-1.983V232.343L577.711,232.343z
	 M574.692,256.878v-1.969h6.728v1.969h-2.415v5.906h2.329v1.875h-2.329v6.094c0.805-0.188,1.639-0.375,2.501-0.563
	c-0.058,0.313-0.058,0.782,0,1.406c0,0.313,0,0.531,0,0.656c-0.172,0.063-0.431,0.126-0.776,0.188
	c-2.473,0.375-4.456,0.78-5.951,1.219l-0.345-1.969c0.287-0.062,0.746-0.155,1.38-0.281c0.574-0.125,1.005-0.219,1.294-0.281v-6.469
	h-2.329v-1.875h2.329v-5.906H574.692z M581.765,220.437c-2.07,2.813-4.083,5.032-6.037,6.656c-0.403-0.938-0.72-1.624-0.949-2.063
	c2.127-1.812,3.882-3.75,5.262-5.813L581.765,220.437L581.765,220.437z M580.729,186.532c-1.323,2.25-2.99,4.345-5.002,6.281
	c-0.173-0.687-0.461-1.374-0.862-2.063c1.608-1.374,3.047-3.188,4.313-5.438L580.729,186.532L580.729,186.532z M578.573,301.095
	c-0.748,3.126-1.38,5.906-1.897,8.344l-1.811-0.656c0.804-3.188,1.408-5.968,1.811-8.344c0.229,0.126,0.747,0.313,1.553,0.563
	C577.595,300.813,577.711,300.846,578.573,301.095L578.573,301.095z M577.711,291.813c-0.92-1.063-1.812-2-2.674-2.813l1.294-1.406
	c0.919,0.813,1.84,1.72,2.76,2.719L577.711,291.813z M580.644,169.498c0,2.187-0.748,3.812-2.242,4.875l-0.776-0.844
	c1.035-0.813,1.58-2.032,1.639-3.656h-1.467v-3.094h2.847C580.644,167.28,580.644,168.185,580.644,169.498L580.644,169.498z
	 M579.005,293.126v-1.969h3.363c-0.288-0.812-0.604-2-0.948-3.563l1.897-0.281c0.057,0.375,0.2,0.938,0.431,1.688
	c0.229,0.876,0.402,1.594,0.518,2.156h-0.086h2.156v1.969h-4.054l-0.086,3.375h3.881c0,0.876-0.029,2.188-0.086,3.938
	c-0.058,2.688-0.116,4.626-0.173,5.813c0,1.812-0.806,2.719-2.415,2.719c-0.518,0.062-1.064,0.094-1.639,0.094l-0.345-1.969
	c0.574,0,1.005,0,1.294,0c0.977,0.062,1.437-0.375,1.38-1.313c0-0.375,0.028-0.969,0.086-1.781c0.114-2.625,0.173-4.5,0.173-5.625
	h-2.243c0,0.188,0,0.344,0,0.469c-0.115,4.563-0.979,8.156-2.587,10.781l-1.467-1.406c1.437-2,2.213-5.156,2.329-9.469
	c0.114-1.625,0.173-3.5,0.173-5.625H579.005z M582.886,201.813c-0.461,1.5-1.035,2.906-1.725,4.219
	c-0.288-0.126-0.69-0.281-1.208-0.469c-0.172-0.126-0.288-0.188-0.345-0.188c0.69-1.437,1.265-2.78,1.726-4.031L582.886,201.813
	L582.886,201.813z M580.471,199.845v-1.688h14.749v1.688h-7.504c0.173,0.313,0.432,0.75,0.776,1.313
	c0.46,0.688,0.776,1.188,0.949,1.5l-1.553,0.844c-0.173-0.437-0.547-1.125-1.121-2.063c-0.23-0.437-0.432-0.78-0.604-1.031
	l1.294-0.563H580.471z M580.902,188.97v-1.688h5.951v-2.063h1.812v2.063h6.296v1.688h-6.296v1.781h5.52v5.813h-12.938v-5.813h5.606
	v-1.781H580.902z M582.196,270.097v-1.781h5.175v-2.625h-4.916v-11.438h11.816v11.438h-5.003v2.625h5.261v1.781h-5.261v2.813h6.124
	v1.875h-14.404v-1.875h6.383v-2.813H582.196z M582.455,229.905v-2.156h12.938v2.156h-3.709v7.875
	c0.057,2.25-0.979,3.375-3.105,3.375c-0.979,0.062-2.1,0.094-3.363,0.094c-0.173-0.75-0.316-1.5-0.432-2.25c0.287,0,0.719,0,1.294,0
	c0.747,0.062,1.322,0.094,1.726,0.094c1.264,0.062,1.867-0.499,1.811-1.688v-7.5H582.455z M582.886,192.251v2.813h2.243v-2.813
	H582.886z M583.576,222.874v-2.156h10.781v2.156H583.576z M586.163,207.063c-1.725,0.062-2.559-0.72-2.501-2.344v-3.469h1.726v2.813
	c-0.116,0.938,0.401,1.374,1.552,1.313h1.726c0.919,0,1.437-0.281,1.552-0.844c0.115-0.375,0.201-0.905,0.259-1.594
	c0.057-0.188,0.087-0.312,0.087-0.375c0.632,0.313,1.178,0.532,1.639,0.656c-0.173,0.938-0.345,1.626-0.518,2.063
	c-0.288,1.249-1.18,1.843-2.674,1.781H586.163z M584.353,256.128v3h3.019v-3H584.353z M584.353,260.815v3.094h3.019v-3.094H584.353z
	 M586.768,302.032v-1.875h3.536v-1.313l2.328-2.625h-4.829v-1.406l-0.604,0.938c-0.402-0.437-0.892-0.905-1.466-1.406
	c1.38-2.063,2.472-4.468,3.277-7.219l1.983,0.281c-0.345,1-0.689,1.969-1.034,2.906h5.434v1.875h-6.21
	c-0.346,0.75-0.748,1.5-1.208,2.25h6.728v1.969l-2.587,3v0.75h3.277v1.875h-3.277v4.594c0.057,1.688-0.748,2.531-2.415,2.531
	c-0.807,0.062-1.553,0.094-2.243,0.094c0-0.188-0.058-0.438-0.172-0.75c-0.059-0.563-0.116-0.97-0.173-1.219c0.69,0,1.351,0,1.983,0
	c0.863,0.062,1.265-0.313,1.208-1.125v-4.125H586.768z M586.595,192.251v2.813h2.242v-2.813H586.595z M592.373,256.128h-3.104v3
	h3.104V256.128z M589.269,260.815v3.094h3.104v-3.094H589.269z M592.546,192.251h-2.242v2.813h2.242V192.251z M593.926,205.47
	c-0.23-0.375-0.604-1.062-1.121-2.063c-0.403-0.75-0.72-1.343-0.948-1.781l1.552-0.656c0.92,1.626,1.609,2.938,2.07,3.938
	L593.926,205.47z"/>
<path fill="#FFFFFF" d="M254.368,118.002v-1.641h1.94v-3.516h1.582v3.516h1.653v1.641h-1.653v3.594l1.725-0.703
	c0,0.521,0.024,1.068,0.072,1.641l-1.797,0.781v5.938c0.047,1.354-0.528,2.057-1.725,2.109c-0.192,0-0.479,0.026-0.863,0.078
	c-0.287,0-0.503,0-0.646,0c-0.097-0.677-0.216-1.302-0.359-1.875c0.287,0,0.694,0,1.222,0c0.575,0,0.838-0.234,0.791-0.703v-4.922
	l-2.012,0.859l-0.216-1.875c0.288-0.104,0.719-0.26,1.294-0.469c0.431-0.156,0.742-0.26,0.934-0.313v-4.141H254.368z
	 M258.321,102.749V89.624c-0.307,0.168-0.845,0.375-1.61,0.625c-0.308,0.168-0.575,0.293-0.805,0.375
	c-0.077-0.25-0.23-0.666-0.46-1.25c-0.155-0.332-0.5-1.125-1.035-2.375c4.14-0.832,7.513-2.207,10.12-4.125h-9.2v-3.125h11.27v-2.25
	c-1.15,0.084-2.415,0.125-3.795,0.125c-1.227,0-2.952,0-5.175,0c-0.078-0.416-0.155-0.957-0.23-1.625
	c-0.155-0.666-0.27-1.166-0.345-1.5c6.9,0,14.298-0.207,22.195-0.625l0.575,3.25c-3.145,0.168-6.325,0.25-9.545,0.25v2.375h11.27
	v3.125h-9.2c2.146,1.75,5.48,3.043,10.005,3.875c-0.154,0.418-0.384,1-0.69,1.75c-0.384,0.75-0.652,1.334-0.805,1.75
	c-0.768-0.25-1.572-0.5-2.415-0.75v13.25h-3.68v-1.125H262v1.125H258.321z M261.843,129.956c-0.336,0.26-0.695,0.547-1.078,0.859
	l-1.006-1.484c0.431-0.416,0.647-1.041,0.647-1.875v-13.047c3.689-0.156,7.115-0.442,10.278-0.859l0.431,1.641
	c-0.192,0-0.456,0.027-0.791,0.078c-0.959,0.105-2.084,0.209-3.378,0.313c0,1.459,0.047,3.021,0.144,4.688h4.384v1.641h-4.313
	c0.144,2.761,0.647,4.949,1.51,6.563c0.334,0.521,0.646,0.781,0.934,0.781c0.239,0,0.407-0.208,0.503-0.625
	c0-0.156,0.023-0.442,0.072-0.859c0.095-0.729,0.167-1.301,0.215-1.719c0.144,0.053,0.383,0.131,0.719,0.234
	c0.288,0.156,0.503,0.261,0.647,0.313c0,0.209-0.024,0.521-0.072,0.938c-0.048,0.678-0.144,1.328-0.288,1.953
	c-0.288,1.094-0.862,1.641-1.725,1.641c-0.959,0-1.773-0.625-2.443-1.875c-0.959-1.666-1.51-4.114-1.653-7.344h-3.522v6.172
	l2.947-1.719c0,0.053,0,0.105,0,0.156c0.047,0.469,0.144,0.99,0.288,1.563c-0.192,0.105-0.479,0.261-0.862,0.469
	C263.232,129.123,262.369,129.591,261.843,129.956L261.843,129.956z M266.601,87.999v-3.125c-1.534,1.5-3.565,2.793-6.095,3.875
	h16.215c-2.837-1.082-4.984-2.416-6.44-4v3.25H266.601z M262,91.874v2.125h12.765v-2.125H262z M262,96.624v2.125h12.765v-2.125H262z
	 M265.437,120.268c-0.048-1.406-0.072-2.916-0.072-4.531c-1.15,0.053-2.252,0.131-3.306,0.234v4.297H265.437z M264.933,131.518
	c-0.479-0.781-1.006-1.537-1.581-2.266l1.222-0.703c0.575,0.469,1.174,1.198,1.797,2.188L264.933,131.518z M275.641,128.706
	c-0.959,0.938-1.725,1.77-2.3,2.5l-0.791-1.797c0.239-0.208,0.67-0.598,1.294-1.172c0.479-0.469,0.814-0.807,1.006-1.016v-5.938
	h-2.156v-1.797h3.809v7.656c0.91,1.459,2.228,2.161,3.953,2.109c3.066,0.104,6.229,0.104,9.488,0
	c-0.048,0.208-0.12,0.52-0.216,0.938c-0.144,0.364-0.24,0.651-0.288,0.859c-1.054,0-2.659-0.027-4.815-0.078
	c-2.3,0-3.858-0.027-4.672-0.078C278.18,130.841,276.743,130.112,275.641,128.706L275.641,128.706z M276,117.534
	c-0.431-0.781-1.198-2.004-2.3-3.672l1.366-0.781c0.239,0.313,0.67,0.886,1.294,1.719c0.575,0.781,0.981,1.355,1.222,1.719
	L276,117.534z M277.941,118.94v-1.719h4.457c0.047-0.989,0.072-2.422,0.072-4.297h1.725c0,1.563-0.025,2.996-0.072,4.297h5.175
	v1.719h-5.247c-0.097,1.146-0.288,2.188-0.575,3.125l0.791-0.703c0.479,0.469,1.341,1.355,2.587,2.656
	c1.197,1.25,2.036,2.136,2.516,2.656l-1.366,1.25c-0.862-1.041-2.444-2.786-4.744-5.234c-0.719,1.928-2.253,3.725-4.6,5.391
	c-0.335-0.52-0.719-1.041-1.15-1.563c3.114-2.031,4.719-4.557,4.815-7.578H277.941z M287.179,88.874
	c-0.307-0.582-0.844-1.457-1.61-2.625c-0.69-1.25-1.265-2.207-1.725-2.875l3.22-1.75c1.15,1.5,2.3,3.209,3.45,5.125L287.179,88.874z
	 M293.044,92.874c-0.69,0.668-1.458,1.25-2.3,1.75l-0.69-1.875c-0.69,3.25-1.38,6.582-2.07,10l-3.68-1.125
	c0.92-3.5,1.725-7.125,2.415-10.875c0.92,0.334,1.916,0.668,2.99,1c-0.155-0.25-0.23-0.541-0.23-0.875
	c2.453-1.332,4.408-3.166,5.865-5.5h-4.945v-3.25h4.6v-2.875h-3.565v-3.25H295v-3h3.45v3h4.6v-3h3.565v3h3.68v3.25h-3.68v2.875h4.83
	v3.25h-5.29c1.226,2.084,3.143,3.668,5.75,4.75c-0.615,1.25-1.15,2.459-1.61,3.625c-1.535-0.916-2.875-1.916-4.025-3v5.75h-9.89
	v0.875c0,1.25,0.575,1.875,1.725,1.875h6.9c1.303,0,1.993-0.541,2.07-1.625c0.23-0.75,0.383-1.75,0.46-3
	c0.996,0.334,2.07,0.709,3.22,1.125c-0.23,1.584-0.46,2.75-0.69,3.5c-0.46,2-1.917,3-4.37,3h-8.97c-2.455,0-3.68-1.25-3.68-3.75
	V92.874L293.044,92.874z M287.754,80.249c-0.307-0.5-0.729-1.207-1.265-2.125c-0.845-1.332-1.495-2.416-1.955-3.25l3.335-1.75
	c1.38,2.084,2.491,3.793,3.335,5.125L287.754,80.249z M296.339,123.237v2.734h-2.444v-2.734H296.339z M296.339,129.018v2.578h-2.444
	v-2.578H296.339z M296.379,91.124v2.5h6.555v-2.5H296.379z M299.139,85.374c-0.537,1-1.15,1.918-1.84,2.75h6.785
	c-0.538-0.75-1.112-1.666-1.725-2.75H299.139z M298.449,79.249v2.875h4.6v-2.875H298.449z M319.266,122.221
	c-0.048,5.209-1.606,7.864-4.672,7.969c-3.211-0.052-4.816-2.708-4.816-7.969c0.047-5.26,1.628-7.969,4.744-8.125
	C317.637,114.201,319.218,116.909,319.266,122.221L319.266,122.221z M317.613,122.221c0-4.531-1.054-6.77-3.163-6.719
	c-1.965,0.156-2.971,2.396-3.019,6.719c0,4.48,1.03,6.693,3.091,6.641C316.582,128.915,317.613,126.701,317.613,122.221
	L317.613,122.221z M324.799,129.956c0.622-4.947,2.491-9.766,5.606-14.453v-1.094h-9.344v1.563h7.403
	c-2.875,4.584-4.672,9.246-5.391,13.984H324.799L324.799,129.956z M335.227,121.049v-2.422h-2.229v2.422H335.227z M335.227,129.721
	v-2.266h-2.229v2.266H335.227z M347.156,122.221c-0.048,5.209-1.605,7.864-4.672,7.969c-3.21-0.052-4.815-2.708-4.815-7.969
	c0.048-5.26,1.629-7.969,4.744-8.125C345.527,114.201,347.108,116.909,347.156,122.221L347.156,122.221z M345.504,122.221
	c0-4.531-1.055-6.77-3.163-6.719c-1.965,0.156-2.972,2.396-3.019,6.719c0,4.48,1.03,6.693,3.091,6.641
	C344.473,128.915,345.504,126.701,345.504,122.221L345.504,122.221z M358.367,122.221c-0.048,5.209-1.605,7.864-4.672,7.969
	c-3.21-0.052-4.815-2.708-4.815-7.969c0.048-5.26,1.629-7.969,4.744-8.125C356.738,114.201,358.319,116.909,358.367,122.221
	L358.367,122.221z M356.715,122.221c0-4.531-1.055-6.77-3.163-6.719c-1.965,0.156-2.972,2.396-3.019,6.719
	c0,4.48,1.03,6.693,3.091,6.641C355.684,128.915,356.715,126.701,356.715,122.221L356.715,122.221z"/>
<path fill="#FFFFFF" d="M35.663,14.728c-0.945,1.406-2.035,2.695-3.27,3.867c-0.218-0.234-0.545-0.546-0.98-0.938
	c-0.365-0.39-0.618-0.663-0.763-0.82c2.106-1.796,3.741-4.023,4.904-6.68l2.507,0.234c-0.292,0.782-0.654,1.523-1.09,2.227h7.193
	v2.109h-5.013c0.654,0.782,1.308,1.602,1.961,2.461l-2.18,0.82c-0.291-0.469-0.8-1.172-1.525-2.109
	c-0.365-0.469-0.618-0.82-0.763-1.055l0.109-0.117H35.663L35.663,14.728z M45.145,25.509v2.578h10.79
	c0,1.875-0.073,3.438-0.218,4.688c-0.073,2.344-1.381,3.516-3.923,3.516c-1.308,0-2.544,0-3.706,0c0-0.079,0-0.196,0-0.352
	c-0.073-0.469-0.218-1.093-0.436-1.875c1.09,0.079,2.325,0.117,3.706,0.117c1.162,0.079,1.815-0.469,1.962-1.641
	c0-0.156,0-0.469,0-0.938c0.071-0.625,0.109-1.055,0.109-1.289h-8.283v8.203h-2.507v-7.266c-2.397,2.891-5.958,5.116-10.68,6.68
	c-0.146-0.234-0.4-0.665-0.763-1.289c-0.218-0.469-0.4-0.82-0.545-1.055c4.504-1.172,7.81-2.93,9.917-5.273h-8.064l1.09-7.031h9.045
	v-2.695h-9.373V18.36h21.361v7.148H45.145z M35.772,25.509l-0.436,2.578h7.302v-2.578H35.772z M47.542,14.728
	c-0.727,1.016-1.526,2.071-2.397,3.164c-0.509-0.546-1.127-1.055-1.853-1.523c1.671-1.875,2.943-3.944,3.814-6.211l2.616,0.234
	c-0.291,0.782-0.618,1.523-0.981,2.227h8.065v2.109h-5.667l2.071,2.461l-2.071,0.82c-0.073-0.077-0.218-0.234-0.436-0.469
	c-0.945-1.172-1.635-2.069-2.071-2.695l0.218-0.117H47.542L47.542,14.728z M52.229,20.587h-7.084v2.695h7.084V20.587z M61.037,14.61
	v-2.578h24.195v2.578H71.935l-1.09,7.031H82.18v12.891h4.25v2.344H60.056v-2.344h5.885l1.635-10.195H61.69v-2.695h6.321l1.199-7.031
	H61.037z M79.455,24.337h-9.046l-1.635,10.195h10.681V24.337z M91.097,14.728v-2.578h22.777v2.578h-10.026
	c0,1.641-0.073,3.867-0.218,6.68h11.77v2.695h-11.225c1.234,5.625,5.049,9.298,11.443,11.016c-0.073,0.155-0.218,0.39-0.436,0.703
	c-0.365,0.703-0.727,1.406-1.09,2.109c-6.468-2.267-10.354-6.015-11.662-11.25c-1.09,4.845-4.833,8.71-11.225,11.602
	c-0.146-0.234-0.436-0.665-0.872-1.289c-0.364-0.548-0.654-0.978-0.872-1.289c6.757-2.655,10.462-6.522,11.116-11.602H89.571v-2.695
	h11.334c0.071-0.703,0.109-1.835,0.109-3.398c0.071-1.406,0.109-2.5,0.109-3.281H91.097z"/>
<path fill="#FFFFFF" d="M136.801,31.642c0.145-2.031,1.114-3.385,2.906-4.063c-1.453-0.729-2.229-1.901-2.325-3.516
	c0.193-2.656,1.646-4.063,4.359-4.219c2.616,0.208,4.044,1.615,4.287,4.219c-0.098,1.667-0.824,2.839-2.18,3.516
	c1.792,0.73,2.736,2.136,2.834,4.219c-0.146,2.656-1.793,4.036-4.941,4.141C138.545,35.833,136.897,34.403,136.801,31.642
	L136.801,31.642z M145.011,31.798c-0.145-2.292-1.26-3.489-3.342-3.594c-1.938,0.105-3.004,1.25-3.197,3.438
	c0.193,1.875,1.283,2.891,3.27,3.047C143.728,34.532,144.817,33.569,145.011,31.798L145.011,31.798z M144.285,24.063
	c-0.145-1.719-0.993-2.656-2.543-2.813c-1.598,0.105-2.47,0.99-2.616,2.656c0.048,1.927,0.92,2.943,2.616,3.047
	C143.34,26.903,144.187,25.938,144.285,24.063L144.285,24.063z M152.349,31.173c-0.243,2.136-1.09,4.192-2.543,6.172
	c-0.339-0.365-0.848-0.859-1.525-1.484c1.064-1.145,1.768-2.37,2.107-3.672c0.338-1.301,0.508-3.307,0.508-6.016v-6.719h12.279
	v14.453c0.047,1.979-0.872,2.969-2.761,2.969c-0.63,0.051-1.575,0.078-2.833,0.078c-0.146-0.574-0.291-1.225-0.436-1.953
	c0.678,0.051,1.599,0.078,2.761,0.078c1.064,0.051,1.573-0.442,1.525-1.484v-2.422H152.349L152.349,31.173z M152.64,26.329
	c0,1.199-0.049,2.266-0.146,3.203h8.937v-3.359h-8.791V26.329z M152.64,21.173v3.281h8.791v-3.281H152.64z M172.115,35.704h1.526
	V19.845h-1.09c-0.63,1.667-2.06,3.047-4.287,4.141v1.641c1.5-0.625,2.785-1.458,3.851-2.5V35.704z M183.443,35.704h1.526V19.845
	h-1.09c-0.63,1.667-2.06,3.047-4.287,4.141v1.641c1.5-0.625,2.785-1.458,3.851-2.5V35.704z M191.366,37.11V19.767h13.15V37.11
	h-1.744v-1.328h-9.59v1.328H191.366z M193.183,21.485v5.391h9.59v-5.391H193.183z M193.183,28.595v5.547h9.59v-5.547H193.183z"/>
</svg>
