<?xml version="1.0" encoding="utf-8"?>
<!-- Generator: Adobe Illustrator 16.0.0, SVG Export Plug-In . SVG Version: 6.00 Build 0)  -->
<!DOCTYPE svg PUBLIC "-//W3C//DTD SVG 1.1//EN" "http://www.w3.org/Graphics/SVG/1.1/DTD/svg11.dtd">
<svg version="1.1" id="图层_1" xmlns="http://www.w3.org/2000/svg" xmlns:xlink="http://www.w3.org/1999/xlink" x="0px" y="0px"
	 width="640px" height="320px" viewBox="0 0 640 320" enable-background="new 0 0 640 320" xml:space="preserve">
<path fill="#FFFFFF" d="M274.943,161.908c-4.025-2.25-7.131-4.937-9.315-8.063c-2.128,2.875-5.377,5.657-9.746,8.344
	c-0.116-0.313-0.375-0.844-0.776-1.594c-0.116-0.188-0.202-0.343-0.258-0.469c4.599-2.562,7.935-5.593,10.005-9.094l2.415,0.281
	l-0.518,0.844c2.357,3.188,5.462,5.719,9.315,7.594L274.943,161.908z M257.866,196.001c-0.116-0.062-0.259-0.218-0.431-0.469
	c-1.093-0.999-1.927-1.781-2.501-2.344l1.208-1.5c1.149,0.938,2.156,1.875,3.019,2.813L257.866,196.001z M255.02,299.311v-1.781
	h1.38v-7.969h2.329c0.057-0.313,0.143-0.718,0.259-1.219c0.057-0.563,0.115-0.968,0.172-1.219l1.898,0.094
	c-0.058,0.251-0.145,0.626-0.259,1.125c-0.173,0.563-0.289,0.97-0.345,1.219h3.364v17.25c0.057,1.562-0.662,2.375-2.156,2.438
	c-0.576,0-1.294,0-2.156,0c0-0.188-0.058-0.469-0.172-0.844c-0.058-0.501-0.116-0.876-0.173-1.125c0.057,0,0.229,0,0.518,0
	c0.518,0.062,0.919,0.094,1.208,0.094c0.863,0,1.264-0.344,1.208-1.031v-7.031h-3.881c0.114,4.563-0.432,8-1.639,10.313
	c-0.288-0.188-0.748-0.563-1.38-1.125c-0.116-0.063-0.202-0.126-0.259-0.188c1.035-1.999,1.523-4.999,1.466-9H255.02z
	 M275.892,261.749c-0.345,0.75-0.634,1.438-0.863,2.063c-3.911-1.249-6.757-2.968-8.539-5.156v4.219h-1.984v-4.219
	c-1.783,2.188-4.629,4.001-8.539,5.438l-0.863-1.969c3.334-1.062,6.066-2.531,8.194-4.406h-7.59v-1.875h8.797v-2.625h1.984v2.625
	h8.797v1.875h-7.59C269.652,259.531,272.384,260.875,275.892,261.749L275.892,261.749z M255.278,270.28v-1.875h9.574v-0.844
	l3.881-2.063h-10.005v-1.781h13.196v1.875l-5.002,2.625v0.188h8.797v1.875h-8.797v2.156c0.057,1.937-0.892,2.906-2.846,2.906
	c-0.289,0-0.862,0.031-1.725,0.094c-0.806,0-1.38,0-1.725,0c0-0.063,0-0.126,0-0.188c-0.058-0.563-0.172-1.188-0.345-1.875
	c0.229,0,0.69,0,1.38,0c0.805,0.062,1.38,0.094,1.725,0.094c1.035,0.062,1.523-0.407,1.466-1.406v-1.781H255.278z M259.159,199.095
	c-0.748,3.126-1.38,5.906-1.897,8.344l-1.811-0.656c0.805-3.188,1.408-5.968,1.811-8.344c0.229,0.126,0.747,0.313,1.553,0.563
	C258.181,198.813,258.297,198.846,259.159,199.095L259.159,199.095z M258.297,189.813c-0.92-1.062-1.811-1.999-2.674-2.813
	l1.294-1.406c0.919,0.813,1.839,1.72,2.76,2.719L258.297,189.813z M256.054,240.688v-17.625h4.14v-3.844h1.725v3.844h4.054v17.531
	h-1.725V239h-6.469v1.688H256.054z M266.922,173.721c-0.633-0.438-1.237-0.844-1.811-1.219l5.175-6.656h-12.851v-2.063h15.525v2.063
	L266.922,173.721z M257.779,224.844v5.344h2.415v-5.344H257.779z M257.779,231.969v5.344h2.415v-5.344H257.779z M258.211,291.342
	v6.188h3.881v-6.188H258.211z M259.591,191.126v-1.969h3.364c-0.289-0.812-0.604-1.999-0.949-3.563l1.897-0.281
	c0.057,0.375,0.201,0.938,0.431,1.688c0.229,0.876,0.401,1.594,0.518,2.156h-0.086h2.156v1.969h-4.054l-0.086,3.375h3.881
	c0,0.876-0.029,2.188-0.086,3.938c-0.058,2.688-0.116,4.626-0.173,5.813c0,1.813-0.806,2.719-2.415,2.719
	c-0.518,0.062-1.064,0.094-1.639,0.094l-0.345-1.969c0.574,0,1.005,0,1.293,0c0.977,0.062,1.437-0.375,1.38-1.313
	c0-0.375,0.028-0.968,0.086-1.781c0.115-2.625,0.172-4.5,0.172-5.625h-2.242c0,0.188,0,0.345,0,0.469
	c-0.116,4.563-0.979,8.156-2.587,10.781l-1.466-1.406c1.437-1.999,2.213-5.156,2.329-9.469c0.114-1.624,0.172-3.499,0.172-5.625
	H259.591z M259.85,296.311c-0.058-0.062-0.116-0.188-0.173-0.375c-0.172-0.812-0.518-1.749-1.035-2.813l1.38-0.656
	c0.229,0.438,0.488,1.094,0.776,1.969c0.229,0.563,0.401,0.97,0.518,1.219L259.85,296.311z M260.022,304.654
	c-0.116-0.312-0.259-0.75-0.431-1.313c-0.345-0.938-0.633-1.655-0.863-2.156l1.466-0.656c0.115,0.313,0.287,0.782,0.518,1.406
	c0.345,0.876,0.604,1.563,0.776,2.063L260.022,304.654z M264.248,224.844h-2.329v5.344h2.329V224.844z M261.919,231.969v5.344h2.329
	v-5.344H261.919z M265.801,162.846c-0.461-0.812-1.237-1.969-2.329-3.469c-0.116-0.188-0.202-0.312-0.258-0.375l1.639-1.219
	c0.862,1.188,1.782,2.438,2.76,3.75L265.801,162.846z M268.388,291.342c0.172,2.876-0.72,5.126-2.674,6.75
	c-0.172-0.188-0.431-0.437-0.776-0.75c-0.345-0.375-0.604-0.624-0.776-0.75c1.725-1.249,2.501-3.062,2.329-5.438v-2.719h7.159v5.25
	c-0.058,1.001,0.373,1.47,1.294,1.406h1.121c0,0.188-0.058,0.501-0.172,0.938c-0.058,0.438-0.116,0.782-0.173,1.031h-1.725
	c-1.611,0.063-2.387-0.844-2.329-2.719v-4.031h-3.277V291.342L268.388,291.342z M265.628,309.529v-10.406h8.97v10.406h-1.897v-1.781
	h-5.175v1.781H265.628z M267.353,200.032v-1.875h3.537v-1.313l2.329-2.625h-4.83v-1.406l-0.604,0.938
	c-0.403-0.437-0.892-0.905-1.466-1.406c1.38-2.063,2.471-4.468,3.277-7.219l1.984,0.281c-0.345,1.001-0.69,1.969-1.035,2.906h5.434
	v1.875h-6.21c-0.345,0.75-0.748,1.5-1.208,2.25h6.728v1.969l-2.587,3v0.75h3.277v1.875h-3.277v4.594
	c0.057,1.688-0.748,2.531-2.415,2.531c-0.806,0.062-1.552,0.094-2.243,0.094c0-0.188-0.058-0.438-0.172-0.75
	c-0.058-0.563-0.116-0.97-0.172-1.219c0.69,0,1.35,0,1.984,0c0.862,0.062,1.264-0.313,1.208-1.125v-4.125H267.353z M267.526,300.998
	v5.156h5.175v-5.156H267.526z M268.129,241.625v-20.813h7.331v2.063l-2.07,6.281c1.609,1.688,2.385,3.532,2.329,5.531
	c0.057,2.625-0.92,4.001-2.932,4.125c-0.576,0-1.208,0-1.897,0c-0.058-0.437-0.173-1.031-0.345-1.781
	c-0.058-0.188-0.086-0.312-0.086-0.375c0.173,0,0.432,0,0.776,0c0.402,0.063,0.718,0.094,0.949,0.094
	c1.208,0.063,1.782-0.688,1.725-2.25c0-1.624-0.834-3.312-2.501-5.063l2.156-6.656h-3.623v18.844H268.129z M285.656,290.686
	c-2.76,0.063-5.405,0.157-7.935,0.281c-0.058-0.812-0.173-1.531-0.345-2.156c6.21-0.062,12.017-0.281,17.422-0.656l0.345,2.063
	c-0.69,0-1.783,0.063-3.277,0.188c-1.841,0.063-3.221,0.126-4.14,0.188v3.938h7.417v1.969h-7.417v3.938h9.229v2.063h-9.229v3.563
	c0.057,2.124-0.949,3.188-3.019,3.188c-1.265,0-2.473,0-3.622,0c-0.058-0.313-0.145-0.75-0.259-1.313
	c-0.058-0.375-0.116-0.688-0.173-0.938c0.632,0.062,1.667,0.094,3.105,0.094c1.322,0.062,1.954-0.499,1.897-1.688v-2.906h-9.487
	v-2.063h9.487v-3.938h-7.935v-1.969h7.935V290.686L285.656,290.686z M279.367,154.689v-2.063h18.026v2.063h-7.935
	c0,1.313-0.058,3.094-0.173,5.344h9.315v2.156h-8.884c0.977,4.5,3.996,7.438,9.057,8.813c-0.058,0.125-0.173,0.313-0.345,0.563
	c-0.289,0.563-0.575,1.125-0.862,1.688c-5.119-1.813-8.194-4.813-9.229-9c-0.862,3.876-3.825,6.969-8.884,9.281
	c-0.116-0.188-0.345-0.531-0.69-1.031c-0.288-0.438-0.518-0.782-0.69-1.031c5.348-2.124,8.28-5.218,8.797-9.281h-8.711v-2.156h8.97
	c0.057-0.563,0.086-1.468,0.086-2.719c0.057-1.125,0.086-2,0.086-2.625H279.367z M278.346,190.282v-1.875h2.501
	c0.287-1.125,0.545-2.187,0.776-3.188l1.897,0.188c-0.058,0.375-0.202,1.001-0.431,1.875c-0.172,0.501-0.288,0.876-0.345,1.125
	h4.398v1.875h-4.916c-0.806,2.876-1.41,4.875-1.812,6h2.501v-4.594h1.639v4.594h2.329v1.875h-2.329v3l2.587-0.375
	c-0.058,0.75-0.086,1.406-0.086,1.969l-2.501,0.281v4.594h-1.897v-4.406c-1.552,0.188-2.99,0.375-4.313,0.563l-0.172-2.063
	c0.401,0,1.063-0.062,1.983-0.188c1.092-0.062,1.926-0.124,2.501-0.188v-3.188h-3.967v-1.875c0.057-0.188,0.143-0.469,0.259-0.844
	c0.459-1.5,0.919-3.218,1.38-5.156H278.346z M278.786,224.281v-1.875h2.501c0.287-1.125,0.545-2.187,0.776-3.188l1.897,0.188
	c-0.058,0.375-0.202,1.001-0.431,1.875c-0.172,0.501-0.288,0.876-0.345,1.125h4.398v1.875h-4.916c-0.806,2.875-1.41,4.875-1.812,6
	h2.501v-4.594h1.639v4.594h2.329v1.875h-2.329v3l2.587-0.375c-0.058,0.75-0.086,1.406-0.086,1.969l-2.501,0.281v4.594h-1.897v-4.406
	c-1.552,0.188-2.99,0.375-4.313,0.563l-0.172-2.063c0.401,0,1.063-0.062,1.983-0.188c1.092-0.062,1.926-0.124,2.501-0.188v-3.188
	h-3.967v-1.875c0.057-0.188,0.143-0.469,0.259-0.844c0.459-1.5,0.919-3.219,1.38-5.156H278.786z M282.587,271.499
	c0,2.188-0.748,3.812-2.243,4.875l-0.776-0.844c1.035-0.813,1.581-2.031,1.639-3.656h-1.466v-3.094h2.846
	C282.587,269.281,282.587,270.187,282.587,271.499L282.587,271.499z M299.305,192.626c-0.23,0.375-0.576,1.063-1.035,2.063
	c-2.358-1.812-4.169-3.968-5.434-6.469c-1.38,2.376-3.278,4.563-5.693,6.563c-0.116-0.249-0.375-0.718-0.776-1.406
	c-0.173-0.188-0.289-0.343-0.345-0.469c2.875-2.124,4.916-4.718,6.124-7.781l2.07,0.281l-0.431,0.938
	C295.165,189.096,297.004,191.189,299.305,192.626L299.305,192.626z M299.745,226.625c-0.23,0.375-0.576,1.063-1.035,2.063
	c-2.358-1.812-4.169-3.968-5.434-6.469c-1.38,2.376-3.278,4.563-5.693,6.563c-0.116-0.249-0.375-0.718-0.776-1.406
	c-0.173-0.188-0.289-0.343-0.345-0.469c2.875-2.124,4.916-4.718,6.124-7.781l2.07,0.281l-0.431,0.938
	C295.604,223.095,297.444,225.188,299.745,226.625L299.745,226.625z M291.629,206.97c-2.014,0-3.019-1.063-3.019-3.188v-9.563h1.897
	v4.125c1.84-1.062,3.593-2.344,5.261-3.844l1.208,1.688c-2.128,1.688-4.284,3.157-6.469,4.406v2.719
	c-0.058,1.125,0.518,1.655,1.725,1.594h1.984c1.149,0,1.782-0.53,1.897-1.594c0.172-0.999,0.287-2.063,0.345-3.188
	c0.69,0.251,1.322,0.469,1.897,0.656c-0.173,1.563-0.375,2.782-0.604,3.656c-0.23,1.688-1.323,2.531-3.277,2.531H291.629z
	 M292.068,240.969c-2.014,0-3.019-1.063-3.019-3.188v-9.563h1.897v4.125c1.84-1.062,3.593-2.344,5.261-3.844l1.208,1.688
	c-2.128,1.688-4.284,3.157-6.469,4.406v2.719c-0.058,1.125,0.518,1.655,1.725,1.594h1.984c1.149,0,1.782-0.53,1.897-1.594
	c0.172-0.999,0.287-2.063,0.345-3.188c0.69,0.251,1.322,0.469,1.897,0.656c-0.173,1.563-0.375,2.782-0.604,3.656
	c-0.23,1.688-1.323,2.531-3.277,2.531H292.068z M300.595,296.217c-1.093,0.063-2.128,0.156-3.105,0.281l-0.518-1.969
	c0.287-0.249,0.632-0.75,1.035-1.5c0.919-1.437,1.868-3.405,2.847-5.906l1.897,0.563c-1.208,2.625-2.387,4.875-3.537,6.75
	l2.329-0.094c0.459-0.874,0.891-1.719,1.293-2.531l1.639,0.75c-1.611,3.063-3.105,5.751-4.485,8.063
	c0.518-0.062,1.38-0.124,2.587-0.188c-0.288,0,0.028-0.03,0.949-0.094c0,0.188,0,0.469,0,0.844c-0.058,0.438-0.086,0.75-0.086,0.938
	c-0.863,0.126-1.927,0.22-3.191,0.281c-0.345,0.063-0.604,0.094-0.776,0.094c-0.575,0.063-1.093,0.156-1.552,0.281l-0.604-1.781
	c0.518-0.375,0.977-0.905,1.38-1.594c0.229-0.375,0.574-0.938,1.035-1.688C300.078,297.03,300.365,296.53,300.595,296.217
	L300.595,296.217z M303.614,306.904c-2.07,0.188-4.169,0.5-6.296,0.938l-0.345-1.969c1.667-0.188,3.881-0.499,6.641-0.938
	C303.614,305.562,303.614,306.218,303.614,306.904L303.614,306.904z M298.693,258.187v-1.969h5.865
	c0.46-0.999,0.833-2.03,1.122-3.094l2.156,0.281c-0.173,0.438-0.403,1.063-0.69,1.875c-0.173,0.438-0.289,0.75-0.345,0.938h11.816
	v1.969h-12.679c-0.634,1.5-1.553,3.188-2.76,5.063v12.281h-1.984v-9.75c-0.748,0.813-1.582,1.688-2.501,2.625
	c-0.289-0.687-0.604-1.406-0.949-2.156c2.587-2.499,4.571-5.187,5.951-8.063H298.693z M301.136,164.533v-1.781h20.441v1.781h-8.97
	v2.25h7.417v1.781h-7.417v2.344c2.989,0,6.038,0,9.143,0c-0.173,0.688-0.346,1.344-0.518,1.969c-3.968,0-6.872-0.032-8.711-0.094
	c-3.45,0-5.779-1.063-6.986-3.188c-0.576,1.374-1.755,2.78-3.536,4.219l-1.208-1.594c2.357-1.562,3.651-3.874,3.881-6.938
	l1.897,0.281c-0.058,0.251-0.116,0.626-0.173,1.125c-0.116,0.438-0.172,0.75-0.172,0.938c0.919,1.938,2.385,3.032,4.399,3.281
	v-6.375H301.136z M303.992,207.345c-0.634,0-1.324,0-2.07,0c0-0.126-0.029-0.281-0.086-0.469c-0.058-0.75-0.145-1.281-0.259-1.594
	c0.574,0.062,1.121,0.094,1.639,0.094c0.862,0,1.264-0.344,1.208-1.031v-8.625h-3.105v-1.875h3.881
	c-0.058-0.062-0.145-0.155-0.259-0.281c-0.863-1.062-1.725-2.063-2.588-3l1.294-1.125l1.639,1.781l2.243-3.094h-5.779v-1.781h7.676
	v2.156l-2.933,4.125l0.431,0.375l-0.69,0.844h3.709v1.875l-0.776,3.938c-0.289-0.062-0.633-0.124-1.035-0.188
	c-0.23-0.062-0.403-0.094-0.518-0.094l0.776-3.656h-2.07v9C306.377,206.407,305.601,207.282,303.992,207.345L303.992,207.345z
	 M302.811,222.875v-1.781h7.849v1.781h-3.019c-0.403,1.813-0.949,3.501-1.639,5.063h4.054V240.5h-1.639V239h-2.501v1.875h-1.811
	V231.5c-0.345,0.626-0.776,1.281-1.294,1.969c-0.172-0.75-0.375-1.562-0.604-2.438c1.667-2.499,2.816-5.218,3.45-8.156H302.811z
	 M304.218,303.904v-1.781h6.296c0.229-0.999,0.345-2.968,0.345-5.906h1.984c-0.116,2.876-0.23,4.845-0.345,5.906h5.261v1.781h-5.606
	l-0.259,0.563c0.632,0.313,1.523,0.813,2.674,1.5c1.322,0.75,2.357,1.313,3.105,1.688l-1.121,1.781
	c-2.128-1.438-3.997-2.531-5.606-3.281c-1.035,1.187-3.249,2.375-6.641,3.563c-0.23-0.563-0.575-1.219-1.035-1.969
	c3.91-0.938,6.181-2.218,6.814-3.844H304.218z M303.81,160.971v-8.813h15.008v8.813H303.81z M304.989,266.062v-1.969h5.261v-4.406
	h1.983v4.406h5.261v1.969h-5.261v6.188h6.383v1.875h-14.663v-1.875h6.296v-6.188H304.989z M307.84,301.467
	c-0.23-0.124-0.517-0.281-0.862-0.469c-0.575-0.375-1.466-0.844-2.674-1.406l0.69-1.219c0.574,0.251,1.38,0.656,2.415,1.219
	c0.459,0.251,0.833,0.438,1.122,0.563L307.84,301.467z M305.167,291.342v-1.781h4.83v-2.344h1.984v2.344h4.917v1.781h-4.917v2.156
	h5.606v1.781l-0.604,3.188c-0.575-0.188-1.179-0.281-1.811-0.281l0.604-2.906H304.39v-1.781h5.606v-2.156H305.167z M309.22,298.842
	c-1.266-0.75-2.415-1.343-3.45-1.781l0.604-1.219c1.149,0.501,2.299,1.063,3.45,1.688L309.22,298.842z M305.793,153.939v1.875
	h10.954v-1.875H305.793z M305.793,157.314v1.969h10.954v-1.969H305.793z M305.916,229.719v7.688h2.501v-7.688H305.916z
	 M321.069,207.345c-1.265-1.251-2.962-2.749-5.088-4.5c-0.748,1.5-2.704,3.125-5.865,4.875c-0.345-0.563-0.748-1.157-1.208-1.781
	c2.587-1.125,4.283-2.28,5.089-3.469c0.862-1.062,1.293-2.78,1.293-5.156v-3.188h1.812v3.281c0.057,1.376-0.086,2.595-0.431,3.656
	c1.954,1.563,3.823,3.094,5.606,4.594L321.069,207.345z M310.547,188.126v-1.875h11.644v1.875h-5.175l-0.518,3h4.83v10.969h-1.811
	v-9.281h-6.641v9.375h-1.812v-11.063h3.536l0.432-3H310.547z M311.004,236.375v-1.969h8.107v1.969H311.004z M318.681,241.25
	c-0.979,0-1.956,0-2.933,0c-0.058-0.313-0.144-0.782-0.259-1.406c-0.058-0.313-0.116-0.563-0.172-0.75
	c0.69,0.062,1.725,0.094,3.105,0.094c1.149,0.062,1.753-0.469,1.812-1.594c0.114-1.875,0.2-3.905,0.259-6.094h-8.625l0.69-7.969
	h1.897l-0.518,6h4.398l0.69-7.125h-7.417v-1.969h9.573l-0.862,9.094h2.156c-0.058,1.125-0.116,2.781-0.173,4.969
	c-0.115,1.563-0.172,2.688-0.172,3.375C322.131,240.125,320.979,241.25,318.681,241.25L318.681,241.25z M321.947,263.999
	c-0.115-0.062-0.259-0.218-0.431-0.469c-1.093-0.999-1.927-1.781-2.501-2.344l1.208-1.5c1.149,0.938,2.156,1.875,3.019,2.813
	L321.947,263.999z M323.241,267.093c-0.748,3.126-1.38,5.906-1.897,8.344l-1.811-0.656c0.804-3.188,1.409-5.968,1.811-8.344
	c0.229,0.126,0.747,0.313,1.553,0.563C322.263,266.812,322.379,266.844,323.241,267.093L323.241,267.093z M322.379,257.812
	c-0.92-1.062-1.812-1.999-2.674-2.813l1.294-1.406c0.919,0.813,1.84,1.72,2.76,2.719L322.379,257.812z M324.159,305.498
	c0,2.188-0.748,3.812-2.242,4.875l-0.776-0.844c1.035-0.813,1.58-2.031,1.639-3.656h-1.467v-3.094h2.847
	C324.159,303.28,324.159,304.186,324.159,305.498L324.159,305.498z M323.673,259.124v-1.969h3.363
	c-0.288-0.812-0.604-1.999-0.948-3.563l1.897-0.281c0.057,0.375,0.2,0.938,0.431,1.688c0.229,0.876,0.402,1.594,0.518,2.156h-0.086
	h2.156v1.969h-4.054l-0.086,3.375h3.881c0,0.876-0.029,2.188-0.086,3.938c-0.059,2.688-0.116,4.626-0.173,5.813
	c0,1.813-0.806,2.719-2.415,2.719c-0.518,0.062-1.064,0.094-1.639,0.094l-0.345-1.969c0.574,0,1.005,0,1.294,0
	c0.977,0.062,1.437-0.375,1.38-1.313c0-0.375,0.028-0.968,0.086-1.781c0.114-2.625,0.173-4.5,0.173-5.625h-2.243
	c0,0.188,0,0.344,0,0.469c-0.115,4.563-0.979,8.156-2.587,10.781l-1.467-1.406c1.437-1.999,2.213-5.156,2.329-9.469
	c0.114-1.624,0.173-3.499,0.173-5.625H323.673z M328.253,156.471c-0.403,0.938-0.949,1.875-1.639,2.813
	c-0.23-0.125-0.634-0.312-1.208-0.563c-0.288-0.125-0.489-0.218-0.604-0.281c1.437-2.063,2.472-4.25,3.105-6.563l1.983,0.281
	c-0.23,0.813-0.489,1.594-0.776,2.344h4.571v-3.375h1.983v3.375h7.418v1.969h-7.418v3.469h8.884v1.969H323.94v-1.969h9.746v-3.469
	H328.253L328.253,156.471z M328.182,206.97c-0.173,0.188-0.289,0.313-0.346,0.375l-1.38-1.781c0.518-0.501,0.776-1.187,0.776-2.063
	v-8.531h-2.674v-2.063h4.657v10.406c0.173-0.124,0.46-0.343,0.863-0.656c1.207-0.874,2.069-1.53,2.587-1.969
	c0.115,0.876,0.315,1.688,0.604,2.438c-0.058,0.063-0.144,0.126-0.258,0.188c-1.897,1.188-3.278,2.156-4.141,2.906
	C328.699,206.407,328.469,206.656,328.182,206.97L328.182,206.97z M326.069,233.469v-2.063h10.781v-0.094
	c0.345-2.438,0.546-6.437,0.604-12h2.07c-0.059,6.126-0.23,10.125-0.518,12v0.094h7.59v2.063h-8.021
	c-0.058,0.375-0.172,0.75-0.345,1.125c1.092,0.626,2.788,1.657,5.089,3.094c1.264,0.75,2.213,1.28,2.846,1.594l-1.293,1.969
	c-1.208-0.813-2.876-1.907-5.003-3.281c-1.093-0.75-1.927-1.313-2.501-1.688c-1.323,2.063-4.658,3.844-10.005,5.344
	c-0.116-0.25-0.403-0.782-0.863-1.594c-0.172-0.25-0.288-0.438-0.345-0.563c6.21-1.374,9.631-3.375,10.264-6H326.069z
	 M329.562,190.657c-0.23-0.312-0.604-0.75-1.121-1.313c-0.979-1.187-1.726-2.063-2.243-2.625l1.553-1.313
	c1.208,1.251,2.386,2.531,3.536,3.844L329.562,190.657z M326.527,173.627v-9.281h15.525v9.281h-2.07v-1.406h-11.385v1.406H326.527z
	 M332.365,230.188c-1.841-1.5-3.565-2.749-5.175-3.75l1.121-1.688c0.173,0.126,0.432,0.281,0.776,0.469
	c1.437,0.938,2.933,1.969,4.485,3.094L332.365,230.188z M328.598,166.314v4.219h11.385v-4.219H328.598z M334.867,225.406
	c-1.496-1.187-3.191-2.405-5.089-3.656l1.121-1.594c1.035,0.626,2.443,1.532,4.226,2.719c0.402,0.313,0.719,0.531,0.949,0.656
	L334.867,225.406z M331.436,268.03v-1.875h3.536v-1.313l2.328-2.625h-4.83v-1.406l-0.604,0.938
	c-0.402-0.437-0.892-0.905-1.466-1.406c1.38-2.063,2.472-4.468,3.277-7.219l1.983,0.281c-0.345,1.001-0.689,1.969-1.035,2.906h5.435
	v1.875h-6.21c-0.346,0.75-0.748,1.5-1.208,2.25h6.728v1.969l-2.588,3v0.75h3.278v1.875h-3.278v4.594
	c0.057,1.688-0.747,2.531-2.415,2.531c-0.806,0.062-1.552,0.094-2.242,0.094c0-0.188-0.058-0.438-0.172-0.75
	c-0.059-0.563-0.116-0.97-0.173-1.219c0.689,0,1.351,0,1.983,0c0.862,0.062,1.265-0.313,1.208-1.125v-4.125H331.436z
	 M331.459,195.063v-2.156h5.951v-7.688h2.07v7.688h5.951v2.156h-5.951v12.563h-2.07v-12.563H331.459z M346.084,302.217
	c-2.932,0.313-5.002,0.626-6.21,0.938l-0.689-1.781c0.518-0.375,0.948-0.812,1.294-1.313c0.114-0.188,0.345-0.53,0.689-1.031
	c0.69-0.999,1.208-1.812,1.553-2.438c-1.208,0-2.301,0.063-3.277,0.188l-0.518-1.781c0.401-0.437,0.718-0.844,0.948-1.219
	c1.322-2.499,2.386-4.718,3.191-6.656l1.897,0.656c-1.15,2.313-2.387,4.656-3.709,7.031c0.346,0,0.776-0.031,1.294-0.094
	c0.518,0,0.919,0,1.208,0c0.518-0.875,0.948-1.688,1.294-2.438l1.725,0.844c-1.093,2.001-2.703,4.626-4.83,7.875l4.227-0.656
	C346.112,301.03,346.084,301.654,346.084,302.217L346.084,302.217z M346.257,306.904c-1.725,0.188-4.054,0.594-6.986,1.219
	l-0.345-1.969c0.574-0.125,1.522-0.281,2.846-0.469c2.07-0.375,3.594-0.656,4.571-0.844
	C346.285,305.28,346.257,305.967,346.257,306.904L346.257,306.904z M340.631,258.28v-1.875h2.502
	c0.287-1.125,0.546-2.187,0.776-3.188l1.897,0.188c-0.059,0.375-0.202,1.001-0.432,1.875c-0.173,0.501-0.288,0.876-0.345,1.125
	h4.398v1.875h-4.916c-0.806,2.876-1.41,4.875-1.812,6h2.501v-4.594h1.64v4.594h2.328v1.875h-2.328v3l2.587-0.375
	c-0.058,0.75-0.086,1.406-0.086,1.969l-2.501,0.281v4.594h-1.897v-4.406c-1.553,0.188-2.991,0.375-4.313,0.563l-0.172-2.063
	c0.401,0,1.063-0.062,1.983-0.188c1.092-0.062,1.926-0.125,2.502-0.188v-3.188h-3.968v-1.875c0.057-0.188,0.143-0.469,0.259-0.844
	c0.459-1.5,0.919-3.218,1.38-5.156H340.631z M351.737,173.158c-0.058-0.25-0.116-0.656-0.173-1.219
	c-0.115-0.438-0.172-0.75-0.172-0.938c0.287,0,0.689,0.031,1.207,0.094c0.518,0,0.891,0,1.121,0
	c1.265,0.125,1.898-0.499,1.898-1.875c0-0.437,0.027-1.155,0.086-2.156c0-0.999,0.028-1.718,0.086-2.156h-3.622
	c-0.116,3.563-1.524,6.469-4.227,8.719c-0.634-0.688-1.121-1.188-1.466-1.5c2.414-1.999,3.679-4.406,3.795-7.219h-3.191v-1.875
	h3.277l0.086-2.063h1.897l-0.086,2.063h5.52c-0.058,0.75-0.115,2.095-0.172,4.031c-0.058,1.251-0.087,2.156-0.087,2.719
	c0.057,2.25-0.978,3.343-3.104,3.281L351.737,173.158z M346.688,292.373v-1.969h5.434v-3.188h1.983v3.188h5.606v1.969h-5.606v3.375
	h4.916v1.875h-11.729v-1.875h4.83v-3.375H346.688z M347.637,309.623v-9.281h11.04v9.281h-1.983v-1.406h-7.159v1.406H347.637z
	 M347.856,160.221v-7.875h9.746v7.875H347.856z M347.886,206.313v-2.063h8.107v-18.75h2.242v6.75h8.539v2.25h-8.539v9.75h10.178
	v2.063H347.886z M361.59,260.624c-0.23,0.375-0.575,1.063-1.035,2.063c-2.358-1.812-4.169-3.968-5.434-6.469
	c-1.38,2.376-3.277,4.563-5.692,6.563c-0.116-0.249-0.374-0.718-0.776-1.406c-0.172-0.188-0.288-0.343-0.345-0.469
	c2.875-2.124,4.916-4.718,6.124-7.781l2.069,0.281l-0.431,0.938C357.45,257.094,359.29,259.188,361.59,260.624L361.59,260.624z
	 M349.534,302.217v4.219h7.159v-4.219H349.534z M349.754,154.314v4.031h5.865v-4.031H349.754z M353.914,274.968
	c-2.014,0-3.019-1.063-3.019-3.188v-9.563h1.897v4.125c1.839-1.062,3.593-2.344,5.261-3.844l1.208,1.688
	c-2.128,1.688-4.284,3.157-6.469,4.406v2.719c-0.059,1.125,0.518,1.655,1.725,1.594h1.983c1.149,0,1.782-0.53,1.897-1.594
	c0.173-0.999,0.287-2.063,0.346-3.188c0.689,0.251,1.321,0.469,1.897,0.656c-0.173,1.563-0.375,2.782-0.604,3.656
	c-0.229,1.688-1.323,2.531-3.277,2.531H353.914z M355.614,237.5c0,2.188-0.748,3.812-2.242,4.875l-0.776-0.844
	c1.035-0.813,1.58-2.031,1.639-3.656h-1.467v-3.094h2.847C355.614,235.282,355.614,236.188,355.614,237.5L355.614,237.5z
	 M363.468,173.252c-1.035,0-2.128,0-3.278,0c-0.058-0.75-0.172-1.5-0.345-2.25c0.862,0.062,1.812,0.094,2.847,0.094
	c1.207,0.062,1.781-0.437,1.725-1.5v-18.188h1.984v18.75C366.515,172.158,365.537,173.189,363.468,173.252L363.468,173.252z
	 M360.161,291.436v-1.969h9.229v-2.344h1.983v2.344h9.229v1.969h-9.229v2.531h7.418v7.313h-6.642
	c2.127,2.313,5.003,4.125,8.625,5.438c-0.461,0.75-0.806,1.374-1.034,1.875c-3.854-1.563-6.642-3.499-8.367-5.813v6.844h-1.983
	v-6.75c-1.897,2.501-4.688,4.562-8.366,6.188l-1.121-2.063c3.45-1.187,6.383-3.094,8.797-5.719h-6.641v-7.313h7.331v-2.531H360.161z
	 M359.931,168.002v-14.25h1.897v14.25H359.931z M363.292,257.343v-2.156h18.026v2.156h-7.849v14.625h9.057v2.063h-20.355v-2.063
	h8.97v-14.625H363.292z M364.042,295.842v3.469h5.348v-3.469H364.042z M370.315,157.127v-2.063h8.625v-3.844h1.983v3.844h8.625
	v2.063h-7.503c1.839,4.251,4.628,7.626,8.366,10.125c-0.059,0.063-0.116,0.188-0.173,0.375c-0.518,0.876-0.834,1.47-0.948,1.781
	c-3.911-2.874-6.699-6.469-8.367-10.781v8.813h4.571v2.063h-4.571v4.031h-1.983v-4.031h-4.657v-2.063h4.657v-8.719
	c-1.668,4.313-4.429,8.001-8.28,11.063c-0.115-0.249-0.288-0.624-0.518-1.125c-0.288-0.499-0.488-0.844-0.604-1.031
	c3.68-2.625,6.439-6.124,8.28-10.5H370.315z M376.301,190.376c-0.806,1.626-1.696,3.094-2.674,4.406
	c-0.518-0.563-1.093-1.031-1.725-1.406c2.012-2.499,3.42-5.25,4.227-8.25l2.242,0.281c-0.345,1.001-0.69,1.938-1.035,2.813h12.766
	v2.156h-7.159v6.281h8.798v2.156h-8.798v8.719h-2.156v-8.719h-9.919v-2.156h9.919v-6.281H376.301L376.301,190.376z M376.808,295.842
	h-5.435v3.469h5.435V295.842z M376.448,240.406c-0.346,0.313-0.548,0.563-0.604,0.75l-1.207-1.688c0.46-0.438,0.66-0.938,0.604-1.5
	v-9h-2.156V227h4.054v10.5c0.69-0.563,1.351-1.125,1.984-1.688c0.057,0.188,0.114,0.563,0.172,1.125
	c0.114,0.563,0.173,0.97,0.173,1.219c-0.979,0.626-1.869,1.25-2.674,1.875C376.735,240.093,376.62,240.219,376.448,240.406
	L376.448,240.406z M376.879,224.656c-0.92-1.313-1.869-2.593-2.846-3.844l1.466-1.031c1.208,1.313,2.213,2.501,3.019,3.563
	L376.879,224.656z M379.294,222.5V221h6.038v-1.781h1.897V221h6.382v1.5h-6.382v1.594h5.692v1.406h-5.692v1.594h6.728v1.5h-15.181
	v-1.5h6.556V225.5h-5.606v-1.406h5.606V222.5H379.294z M380.156,241.531v-11.438h12.248v8.531c0.057,1.813-0.806,2.719-2.588,2.719
	c-0.288,0-0.748,0-1.38,0c-0.806,0.062-1.38,0.094-1.725,0.094c-0.173-0.563-0.346-1.188-0.518-1.875
	c0.689,0.062,1.667,0.094,2.933,0.094c0.977,0.062,1.437-0.344,1.38-1.219v-0.75h-8.366v3.844H380.156z M401.396,296.592
	c-0.288,0.501-0.489,0.876-0.604,1.125c-4.025-2.187-7.131-4.843-9.315-7.969c-2.128,2.875-5.377,5.625-9.746,8.25l-1.035-2.156
	c4.83-2.562,8.164-5.499,10.005-8.813l2.415,0.281c-0.058,0.063-0.144,0.22-0.259,0.469c-0.115,0.188-0.202,0.345-0.259,0.469
	c2.357,3.126,5.462,5.563,9.315,7.313C401.798,295.748,401.626,296.093,401.396,296.592L401.396,296.592z M382.141,231.594v1.688
	h8.366v-1.688H382.141z M382.141,234.594v1.688h8.366v-1.688H382.141z M386.029,262.968c-0.689,1.313-1.409,2.563-2.156,3.75
	c-0.115-0.499-0.288-1.219-0.518-2.156c-0.058-0.124-0.115-0.249-0.172-0.375c2.012-3.375,3.536-7.062,4.571-11.063l2.07,0.563
	c-0.518,1.751-1.122,3.438-1.812,5.063v16.781h-1.984V262.968L386.029,262.968z M394.324,309.811
	c-1.669-1.188-4.112-2.781-7.331-4.781c-0.748-0.499-1.324-0.874-1.726-1.125l1.208-1.594c1.954,1.251,3.593,2.282,4.916,3.094
	l4.916-4.781h-13.11v-2.063h15.87v2.25l-5.778,5.719c0.805,0.437,1.609,0.938,2.415,1.5L394.324,309.811z M391.822,298.092
	c-0.172-0.188-0.402-0.499-0.689-0.938c-0.921-1.187-1.639-2.063-2.156-2.625l1.553-1.125c0.574,0.563,1.38,1.47,2.415,2.719
	c0.229,0.313,0.401,0.532,0.518,0.656L391.822,298.092z M393.447,258.749c-0.806,1.813-1.783,3.595-2.933,5.344
	c-0.173-0.249-0.489-0.593-0.948-1.031c-0.23-0.249-0.403-0.437-0.518-0.563c1.839-2.562,3.277-5.687,4.313-9.375l2.069,0.469
	c-0.345,1.125-0.72,2.188-1.121,3.188h9.833v1.969h-7.332v3.844h6.124v1.969h-6.124v3.844h6.728v2.063h-6.728v5.063h-1.983v-16.781
	H393.447L393.447,258.749z M394.241,171.658l-1.897-1.031c1.035-1.999,2.357-5.03,3.968-9.094c0.573,0.375,1.207,0.72,1.897,1.031
	L394.241,171.658z M396.139,159.283c-0.345-0.624-0.862-1.562-1.553-2.813c-0.748-1.374-1.294-2.375-1.639-3l1.725-1.031
	c1.15,1.938,2.271,3.844,3.364,5.719L396.139,159.283z M405.838,196.47c-0.058,6.251-1.927,9.437-5.606,9.563
	c-3.853-0.063-5.778-3.249-5.778-9.563c0.057-6.312,1.954-9.563,5.692-9.75C403.883,186.846,405.78,190.095,405.838,196.47
	L405.838,196.47z M395.843,225.594v-1.969h2.329v-4.313h1.897v4.313h1.983v1.969h-1.983V230l1.983-0.656
	c0,0.688,0.028,1.376,0.087,2.063l-2.07,0.75v6.75c0.057,1.562-0.634,2.375-2.07,2.438c-0.633,0-1.266,0-1.897,0
	c-0.058-0.25-0.116-0.688-0.173-1.313c-0.115-0.375-0.172-0.625-0.172-0.75c0.459,0,0.948,0,1.466,0
	c0.69,0.062,1.006-0.22,0.949-0.844v-5.719c-0.748,0.251-1.553,0.531-2.415,0.844l-0.259-2.25c0.919-0.312,1.812-0.563,2.674-0.75
	v-4.969H395.843z M403.854,196.47c0-5.438-1.266-8.124-3.795-8.063c-2.358,0.188-3.566,2.876-3.623,8.063
	c0,5.376,1.236,8.032,3.709,7.969C402.617,204.502,403.854,201.846,403.854,196.47L403.854,196.47z M413.303,171.377
	c-0.518,0.688-1.007,1.344-1.467,1.969c-3.565-2.376-5.75-5.375-6.555-9c-0.69,3.563-3.077,6.688-7.159,9.375
	c-0.23-0.313-0.661-0.906-1.293-1.781c-0.059-0.063-0.116-0.126-0.173-0.188c4.541-2.499,6.986-5.968,7.331-10.406
	c0.114-0.875,0.173-1.906,0.173-3.094h2.069c0,0.25-0.029,0.625-0.086,1.125c0,0.501,0,0.844,0,1.031
	C406.834,165.409,409.219,169.065,413.303,171.377L413.303,171.377z M410.715,161.721c-0.288-0.124-0.689-0.249-1.207-0.375
	c-0.289-0.062-0.518-0.124-0.69-0.188l1.553-4.219h-7.936c-0.633,1.563-1.38,3.126-2.242,4.688
	c-0.116-0.062-0.316-0.188-0.604-0.375c-0.576-0.375-0.979-0.624-1.208-0.75c1.84-3,3.105-6.094,3.795-9.281l2.07,0.469
	c-0.345,1.125-0.69,2.188-1.035,3.188h9.315v2.063L410.715,161.721z M402.743,230.844v-1.969h3.363
	c0.173-0.437,0.432-1.125,0.776-2.063c0.173-0.624,0.315-1.093,0.432-1.406l2.069,0.469c-0.461,1.063-0.862,2.063-1.207,3h8.193
	v1.969h-2.328c-0.69,2.501-1.639,4.47-2.847,5.906c0.345,0.188,0.862,0.501,1.553,0.938c0.632,0.313,1.812,0.938,3.536,1.875
	l-1.208,1.875c-1.84-1.251-3.622-2.313-5.347-3.188c-1.841,1.25-4.313,2.375-7.418,3.375l-1.035-1.969
	c3.22-0.874,5.404-1.749,6.556-2.625c-1.438-0.874-2.904-1.718-4.399-2.531c0.633-1.062,1.236-2.28,1.812-3.656H402.743z
	 M422.546,307.186c-0.69,0.938-1.151,1.594-1.38,1.969c-5.061-2.874-7.993-7.155-8.798-12.844c-0.806,5.563-3.795,9.938-8.97,13.125
	c-0.116-0.188-0.317-0.469-0.604-0.844c-0.402-0.563-0.661-0.97-0.776-1.219c5.521-3.188,8.51-7.937,8.971-14.25
	c0.114-1.437,0.172-3.312,0.172-5.625h2.243l-0.087,3.281c0.574,8.25,3.709,13.656,9.401,16.219
	C422.66,307.06,422.603,307.122,422.546,307.186L422.546,307.186z M403.088,226.625v-4.406h5.606
	c-0.058-0.188-0.173-0.469-0.345-0.844c-0.289-0.812-0.518-1.374-0.69-1.688l2.07-0.469c0.229,0.501,0.518,1.219,0.862,2.156
	c0.114,0.375,0.2,0.656,0.259,0.844h5.089v4.406h-1.897v-2.438h-9.143v2.438H403.088z M425.251,273.187
	c-0.69,0.938-1.151,1.594-1.38,1.969c-5.061-2.874-7.993-7.156-8.798-12.844c-0.806,5.563-3.795,9.938-8.97,13.125
	c-0.116-0.188-0.317-0.469-0.604-0.844c-0.402-0.563-0.661-0.97-0.776-1.219c5.521-3.188,8.51-7.937,8.971-14.25
	c0.114-1.437,0.172-3.312,0.172-5.625h2.243l-0.087,3.281c0.574,8.25,3.709,13.657,9.401,16.219
	C425.365,273.061,425.308,273.124,425.251,273.187L425.251,273.187z M405.935,233.75l3.449,1.969
	c1.265-1.249,2.127-2.874,2.588-4.875h-4.657L405.935,233.75z M413.556,205.751c0.746-5.937,2.989-11.719,6.728-17.344v-1.313
	H409.07v1.875h8.884c-3.45,5.501-5.606,11.095-6.469,16.781H413.556L413.556,205.751z M418.07,162.002
	c-0.115-0.062-0.259-0.218-0.431-0.469c-1.093-0.999-1.928-1.781-2.501-2.344l1.207-1.5c1.149,0.938,2.156,1.875,3.019,2.813
	L418.07,162.002z M419.364,165.096c-0.748,3.126-1.38,5.906-1.897,8.344l-1.812-0.656c0.805-3.188,1.409-5.968,1.812-8.344
	c0.229,0.126,0.747,0.313,1.553,0.563C418.386,164.814,418.502,164.847,419.364,165.096L419.364,165.096z M418.502,155.814
	c-0.92-1.062-1.812-2-2.674-2.813l1.294-1.406c0.919,0.813,1.84,1.72,2.76,2.719L418.502,155.814z M417.988,231.313v-1.781h1.38
	v-7.969h2.329c0.057-0.312,0.143-0.718,0.259-1.219c0.057-0.563,0.114-0.969,0.172-1.219l1.897,0.094
	c-0.058,0.251-0.144,0.625-0.259,1.125c-0.172,0.563-0.288,0.97-0.345,1.219h3.363v17.25c0.057,1.562-0.661,2.375-2.155,2.438
	c-0.576,0-1.294,0-2.156,0c0-0.188-0.059-0.469-0.173-0.844c-0.059-0.501-0.116-0.876-0.173-1.125c0.057,0,0.229,0,0.518,0
	c0.518,0.062,0.919,0.094,1.208,0.094c0.862,0,1.264-0.344,1.207-1.031v-7.031h-3.881c0.114,4.563-0.432,8-1.639,10.313
	c-0.289-0.188-0.748-0.563-1.381-1.125c-0.115-0.063-0.201-0.126-0.258-0.188c1.034-1.999,1.522-4.999,1.466-9H417.988z
	 M419.796,157.127v-1.969h3.363c-0.288-0.812-0.604-2-0.948-3.563l1.897-0.281c0.057,0.375,0.2,0.938,0.431,1.688
	c0.229,0.876,0.402,1.594,0.518,2.156h-0.086h2.156v1.969h-4.054l-0.086,3.375h3.881c0,0.876-0.029,2.188-0.086,3.938
	c-0.059,2.688-0.116,4.626-0.173,5.813c0,1.813-0.806,2.719-2.415,2.719c-0.518,0.062-1.064,0.094-1.639,0.094l-0.345-1.969
	c0.574,0,1.005,0,1.294,0c0.977,0.062,1.437-0.375,1.38-1.313c0-0.375,0.028-0.968,0.086-1.781c0.114-2.625,0.173-4.5,0.173-5.625
	H422.9c0,0.188,0,0.345,0,0.469c-0.115,4.563-0.979,8.156-2.587,10.781l-1.467-1.406c1.437-1.999,2.213-5.156,2.329-9.469
	c0.114-1.624,0.173-3.5,0.173-5.625H419.796z M421.18,223.344v6.188h3.881v-6.188H421.18z M422.818,228.313
	c-0.059-0.062-0.116-0.188-0.173-0.375c-0.172-0.812-0.518-1.749-1.035-2.813l1.38-0.656c0.229,0.438,0.488,1.095,0.776,1.969
	c0.229,0.563,0.402,0.97,0.518,1.219L422.818,228.313z M422.99,236.656c-0.115-0.312-0.259-0.75-0.431-1.313
	c-0.345-0.938-0.634-1.655-0.862-2.156l1.466-0.656c0.114,0.313,0.287,0.782,0.518,1.406c0.345,0.876,0.604,1.563,0.776,2.063
	L422.99,236.656z M423.943,309.529v-21.094h18.717v21.094h-1.984v-1.5h-14.749v1.5H423.943z M427.135,195.063v-2.906h-2.674v2.906
	H427.135z M427.135,205.47v-2.719h-2.674v2.719H427.135z M425.927,290.404v15.844h14.749v-15.844H425.927z M445.746,275.437
	c-2.876-1.313-6.01-2.655-9.401-4.031c-0.979,1.749-4.141,3.219-9.488,4.406c-0.115-0.563-0.374-1.313-0.776-2.25
	c5.98-0.75,9.027-2.468,9.143-5.156c0.229-0.875,0.346-1.749,0.346-2.625h2.069c-0.058,1.313-0.172,2.313-0.345,3l-0.173,0.844
	c3.22,1.251,6.411,2.501,9.574,3.75L445.746,275.437z M427.559,166.033v-1.875h3.536v-1.313l2.328-2.625h-4.83v-1.406l-0.604,0.938
	c-0.402-0.437-0.892-0.905-1.466-1.406c1.38-2.063,2.472-4.468,3.277-7.219l1.983,0.281c-0.345,1-0.689,1.969-1.035,2.906h5.435
	v1.875h-6.21c-0.346,0.75-0.748,1.5-1.208,2.25h6.728v1.969l-2.587,3v0.75h3.277v1.875h-3.277v4.594
	c0.057,1.688-0.748,2.531-2.415,2.531c-0.807,0.062-1.553,0.094-2.243,0.094c0-0.188-0.058-0.438-0.172-0.75
	c-0.059-0.563-0.116-0.97-0.173-1.219c0.689,0,1.351,0,1.983,0c0.862,0.062,1.265-0.313,1.208-1.125v-4.125H427.559z
	 M431.356,223.344c0.173,2.875-0.719,5.126-2.673,6.75c-0.173-0.188-0.432-0.437-0.776-0.75c-0.346-0.375-0.604-0.624-0.776-0.75
	c1.725-1.249,2.501-3.062,2.328-5.438v-2.719h7.159v5.25c-0.058,1,0.373,1.469,1.294,1.406h1.121c0,0.188-0.058,0.501-0.173,0.938
	c-0.058,0.438-0.115,0.782-0.172,1.031h-1.726c-1.61,0.063-2.387-0.844-2.328-2.719v-4.031h-3.278V223.344L431.356,223.344z
	 M427.892,270.937v-8.156h17.078v7.875h-2.07v-6h-12.938v6.281H427.892z M428.597,241.531v-10.406h8.97v10.406h-1.896v-1.781h-5.176
	v1.781H428.597z M428.859,302.686v-8.906h8.884v8.906H428.859z M429.013,260.718v-6.469h14.835v6.469H429.013z M430.494,233v5.156
	h5.176V233H430.494z M430.757,295.654v5.156h5.176v-5.156H430.757z M431.083,256.124v2.719h10.695v-2.719H431.083z M442.518,196.47
	c-0.058,6.251-1.927,9.437-5.606,9.563c-3.853-0.063-5.778-3.249-5.778-9.563c0.057-6.312,1.954-9.563,5.692-9.75
	C440.563,186.846,442.46,190.095,442.518,196.47L442.518,196.47z M440.534,196.47c0-5.438-1.266-8.124-3.795-8.063
	c-2.358,0.188-3.566,2.876-3.623,8.063c0,5.376,1.236,8.032,3.709,7.969C439.297,204.502,440.534,201.846,440.534,196.47
	L440.534,196.47z M438.287,156.283v-1.875h2.502c0.287-1.125,0.546-2.187,0.776-3.188l1.897,0.188c-0.059,0.375-0.202,1-0.432,1.875
	c-0.173,0.501-0.288,0.876-0.345,1.125h4.398v1.875h-4.916c-0.806,2.875-1.41,4.875-1.812,6h2.501v-4.594h1.64v4.594h2.328v1.875
	h-2.328v3l2.587-0.375c-0.058,0.75-0.086,1.406-0.086,1.969l-2.501,0.281v4.594h-1.897v-4.406c-1.553,0.188-2.991,0.375-4.313,0.563
	l-0.172-2.063c0.401,0,1.063-0.062,1.983-0.188c1.092-0.062,1.926-0.124,2.502-0.188v-3.188h-3.968v-1.875
	c0.057-0.188,0.143-0.469,0.259-0.844c0.459-1.5,0.919-3.218,1.38-5.156H438.287z M440.823,224.938v-2.063h9.66
	c-0.116-0.499-0.375-1.28-0.776-2.344c-0.173-0.499-0.288-0.844-0.345-1.031l2.328-0.281c0.173,0.501,0.46,1.313,0.863,2.438
	c0.172,0.563,0.315,0.97,0.431,1.219h8.107v2.063H448.5c0,0.813-0.059,2.001-0.173,3.563c0.114-1.125,0.114-1.031,0,0.281h10.178
	c-0.059,1.438-0.173,3.563-0.346,6.375c-0.058,0.813-0.086,1.375-0.086,1.688c-0.058,2.813-1.524,4.187-4.398,4.125
	c-1.266,0-2.474,0-3.623,0c-0.115-0.688-0.259-1.375-0.431-2.063c1.092,0,2.271,0,3.536,0c1.781,0.062,2.73-0.844,2.846-2.719
	c0-0.249,0.028-0.656,0.087-1.219c0.114-1.812,0.172-3.188,0.172-4.125h-8.107c-0.23,4.5-2.242,8.124-6.037,10.875
	c-0.806-0.876-1.352-1.438-1.639-1.688c3.737-2.499,5.635-6,5.692-10.5c0.114-1.875,0.173-3.405,0.173-4.594H440.823z
	 M444.834,306.811v-17.531h5.864v15.75h-4.054v1.781H444.834z M457.049,196.47c-0.058,6.251-1.927,9.437-5.606,9.563
	c-3.853-0.063-5.778-3.249-5.778-9.563c0.057-6.312,1.954-9.563,5.692-9.75C455.094,186.846,456.991,190.095,457.049,196.47
	L457.049,196.47z M459.246,158.627c-0.23,0.375-0.575,1.063-1.035,2.063c-2.358-1.812-4.169-3.968-5.434-6.469
	c-1.38,2.376-3.277,4.563-5.692,6.563c-0.116-0.249-0.374-0.718-0.776-1.406c-0.172-0.188-0.288-0.343-0.345-0.469
	c2.874-2.124,4.916-4.718,6.124-7.781l2.069,0.281l-0.431,0.938C455.106,155.097,456.946,157.19,459.246,158.627L459.246,158.627z
	 M446.645,291.248v11.719h2.329v-11.719H446.645z M455.065,196.47c0-5.438-1.266-8.124-3.795-8.063
	c-2.358,0.188-3.566,2.876-3.623,8.063c0,5.376,1.236,8.032,3.709,7.969C453.828,204.502,455.065,201.846,455.065,196.47
	L455.065,196.47z M448.128,275.343v-18.375h2.329c0.057-0.249,0.143-0.593,0.259-1.031c0.229-0.687,0.431-1.594,0.604-2.719
	l2.156,0.375c-0.288,1.125-0.604,2.25-0.949,3.375h3.882v18.188h-1.897v-1.781h-4.399v1.969H448.128z M451.57,172.971
	c-2.014,0-3.019-1.063-3.019-3.188v-9.563h1.897v4.125c1.839-1.063,3.593-2.344,5.261-3.844l1.208,1.688
	c-2.128,1.688-4.284,3.157-6.469,4.406v2.719c-0.059,1.125,0.518,1.655,1.725,1.594h1.983c1.15,0,1.782-0.53,1.897-1.594
	c0.173-0.999,0.287-2.063,0.346-3.188c0.689,0.251,1.322,0.469,1.897,0.656c-0.173,1.563-0.375,2.782-0.604,3.656
	c-0.23,1.688-1.323,2.531-3.277,2.531H451.57z M452.165,292.936v-1.969h4.398v-3.75h1.984v3.75h4.657v1.969h-4.657v3.469h5.605
	v1.875h-4.916c1.208,2.938,3.105,5.407,5.692,7.406l-1.294,1.781c-2.415-2.124-4.111-4.562-5.088-7.313v9.469h-1.984v-9.469
	c-1.207,3.188-3.048,5.782-5.52,7.781c-0.461-0.625-0.949-1.187-1.467-1.688c2.816-1.937,4.917-4.594,6.297-7.969h-4.485v-1.875
	h5.175v-3.469H452.165z M450.111,259.03v5.156h4.399v-5.156H450.111z M450.111,266.249v5.344h4.399v-5.344H450.111z
	 M463.395,275.155c-1.151,0-2.358,0-3.623,0c-0.058-0.688-0.202-1.438-0.431-2.25c0.746,0.062,1.867,0.094,3.363,0.094
	c1.609,0.125,2.415-0.656,2.415-2.344c0.114-1.374,0.201-4.313,0.259-8.813c0.057-1.313,0.086-2.25,0.086-2.813h-5.175
	c-0.23,0.563-0.604,1.376-1.121,2.438c-0.23,0.501-0.403,0.876-0.518,1.125c-0.518-0.375-1.093-0.75-1.725-1.125
	c1.38-2.687,2.443-5.438,3.191-8.25l1.983,0.469c-0.116,0.375-0.288,0.907-0.518,1.594c-0.23,0.75-0.403,1.313-0.518,1.688h6.383
	c0,4.001-0.116,8.688-0.346,14.063C467.103,273.717,465.866,275.093,463.395,275.155L463.395,275.155z M461.756,268.687
	c-0.289-0.437-0.72-1.093-1.294-1.969c-0.806-1.313-1.438-2.312-1.897-3l1.553-1.125c0.401,0.626,1.005,1.5,1.811,2.625
	c0.69,0.938,1.208,1.688,1.553,2.25L461.756,268.687z M462.093,207.626v-12.563c-0.634,1.251-1.294,2.438-1.984,3.563
	c-0.058-0.312-0.115-0.75-0.172-1.313c-0.116-0.687-0.202-1.187-0.259-1.5c1.781-3.375,3.047-6.905,3.795-10.594l1.897,0.563
	c-0.403,1.563-0.893,3.157-1.466,4.781v17.063H462.093z M461.437,156.658v-1.969h3.709c-0.288-1.062-0.604-2.093-0.948-3.094
	l1.983-0.469c0.173,0.688,0.518,1.875,1.035,3.563h2.415v1.969h-4.657l-0.087,3.188h4.141c0,3.375-0.087,6.75-0.259,10.125
	c0,2-0.835,3-2.502,3c-0.689,0-1.323,0-1.897,0l-0.431-1.969c0.518,0,1.091,0,1.725,0c0.978,0.062,1.437-0.437,1.38-1.5
	c0.115-3.249,0.173-5.813,0.173-7.688h-2.415c0,5.313-0.806,9.219-2.415,11.719l-1.466-1.406c1.437-1.999,2.156-5.655,2.156-10.969
	l0.086-4.5H461.437z M463.831,241.344v-18.375h2.329c0.057-0.249,0.143-0.593,0.259-1.031c0.229-0.687,0.431-1.594,0.604-2.719
	l2.156,0.375c-0.288,1.125-0.604,2.25-0.949,3.375h3.882v18.188h-1.897v-1.781h-4.399v1.969H463.831z M465.197,200.313v-3.656
	h15.181v3.656h-1.812v-1.875h-11.558v1.875H465.197z M465.638,309.342v-18.375h2.329c0.057-0.249,0.143-0.593,0.259-1.031
	c0.229-0.688,0.431-1.594,0.604-2.719l2.156,0.375c-0.288,1.125-0.604,2.25-0.949,3.375h3.882v18.188h-1.897v-1.781h-4.399v1.969
	H465.638z M465.715,189.157v-1.688h6.383c-0.058-0.249-0.116-0.593-0.173-1.031c-0.115-0.437-0.202-0.75-0.259-0.938l1.984-0.281
	c0.172,0.75,0.345,1.5,0.518,2.25h6.123v1.688H465.715z M465.814,225.031v5.156h4.399v-5.156H465.814z M465.814,232.25v5.344h4.399
	v-5.344H465.814z M467.095,201.907v-1.688h11.472v1.688h-4.227v3c0,1.562-0.72,2.344-2.156,2.344
	c-0.518,0.062-1.524,0.094-3.019,0.094c0-0.063,0-0.156,0-0.281c-0.058-0.375-0.173-0.906-0.345-1.594
	c0.518,0.062,1.322,0.094,2.415,0.094c0.862,0,1.264-0.313,1.207-0.938v-2.719H467.095z M467.268,195.251v-4.688h11.126v4.688
	H467.268z M467.621,293.029v5.156h4.399v-5.156H467.621z M467.621,300.248v5.344h4.399v-5.344H467.621z M468.978,259.405v-1.969
	h2.415v-4.125h1.897v4.125h2.329v1.969h-2.329v4.688l2.415-0.656c0,0.813,0,1.532,0,2.156l-2.415,0.656v6.469
	c0.057,1.749-0.689,2.625-2.242,2.625c-0.461,0.062-1.064,0.094-1.812,0.094c-0.058-0.75-0.173-1.469-0.345-2.156
	c0.114,0,0.259,0,0.431,0c0.346,0.062,0.661,0.062,0.949,0c0.805,0.062,1.178-0.281,1.121-1.031v-5.438
	c-0.288,0.126-0.748,0.25-1.38,0.375c-0.518,0.188-0.921,0.313-1.208,0.375l-0.172-2.344c0.114,0,0.259-0.031,0.431-0.094
	c0.574-0.124,1.351-0.312,2.329-0.563v-5.156H468.978z M472.994,155.439c-0.748,1.375-1.639,2.719-2.674,4.031
	c-0.633-0.687-1.093-1.156-1.38-1.406c1.726-2.063,2.989-4.374,3.795-6.938l1.984,0.188c-0.116,0.313-0.289,0.782-0.518,1.406
	c-0.173,0.438-0.288,0.75-0.345,0.938h7.762v1.781H472.994L472.994,155.439z M469.079,192.063v1.688h7.504v-1.688H469.079z
	 M481.274,171.939c-0.345,0.375-0.604,0.656-0.776,0.844c-3.221-2.749-5.061-6.874-5.52-12.375c-0.69,0.063-1.38,0.157-2.07,0.281
	v9.844c1.208-0.624,2.329-1.125,3.363-1.5c0,0.188,0,0.501,0,0.938c0.057,0.438,0.087,0.75,0.087,0.938
	c-1.208,0.437-2.415,0.999-3.623,1.688c-0.115,0.062-0.259,0.125-0.431,0.188c-0.461,0.249-0.748,0.437-0.862,0.563l-1.122-1.688
	c0.518-0.438,0.747-1.031,0.69-1.781v-10.969c3.105-0.249,6.21-0.75,9.315-1.5l0.689,1.969c-1.323,0.313-2.76,0.563-4.313,0.75
	c0.173,1.5,0.401,2.813,0.69,3.938c1.149-0.624,2.271-1.313,3.363-2.063l0.949,1.688c-1.208,0.75-2.445,1.469-3.709,2.156
	c0.746,2.063,2.099,3.782,4.054,5.156C481.935,171.189,481.676,171.502,481.274,171.939L481.274,171.939z M479.098,241.156
	c-1.151,0-2.358,0-3.623,0c-0.058-0.688-0.202-1.438-0.431-2.25c0.746,0.062,1.867,0.094,3.363,0.094
	c1.609,0.125,2.415-0.656,2.415-2.344c0.114-1.374,0.201-4.313,0.259-8.813c0.057-1.313,0.086-2.25,0.086-2.813h-5.175
	c-0.23,0.563-0.604,1.376-1.121,2.438c-0.23,0.501-0.403,0.876-0.518,1.125c-0.518-0.375-1.093-0.75-1.725-1.125
	c1.38-2.687,2.443-5.438,3.191-8.25l1.983,0.469c-0.116,0.375-0.288,0.906-0.518,1.594c-0.23,0.75-0.403,1.313-0.518,1.688h6.383
	c0,4.001-0.116,8.688-0.346,14.063C482.806,239.718,481.569,241.094,479.098,241.156L479.098,241.156z M477.459,234.688
	c-0.289-0.437-0.72-1.093-1.294-1.969c-0.806-1.313-1.438-2.312-1.897-3l1.553-1.125c0.401,0.626,1.005,1.5,1.811,2.625
	c0.69,0.938,1.208,1.688,1.553,2.25L477.459,234.688z M480.904,309.154c-1.151,0-2.358,0-3.623,0
	c-0.058-0.688-0.202-1.438-0.431-2.25c0.746,0.062,1.867,0.094,3.363,0.094c1.609,0.124,2.415-0.656,2.415-2.344
	c0.114-1.374,0.201-4.313,0.259-8.813c0.057-1.313,0.086-2.25,0.086-2.813h-5.175c-0.23,0.563-0.604,1.376-1.121,2.438
	c-0.23,0.501-0.403,0.876-0.518,1.125c-0.518-0.375-1.093-0.75-1.725-1.125c1.38-2.687,2.443-5.438,3.191-8.25l1.983,0.469
	c-0.116,0.375-0.288,0.907-0.518,1.594c-0.23,0.75-0.403,1.313-0.518,1.688h6.383c0,4-0.116,8.688-0.346,14.063
	C484.612,307.716,483.376,309.092,480.904,309.154L480.904,309.154z M479.266,302.686c-0.289-0.437-0.72-1.093-1.294-1.969
	c-0.806-1.313-1.438-2.312-1.897-3l1.553-1.125c0.401,0.626,1.005,1.5,1.811,2.625c0.69,0.938,1.208,1.688,1.553,2.25
	L479.266,302.686z M479.586,262.124c-1.955,0.063-2.903-0.905-2.846-2.906v-6h1.897v3.281c3.507-0.563,6.728-1.313,9.66-2.25
	l0.689,1.875c-2.703,0.688-6.153,1.406-10.35,2.156v0.281c-0.116,1.313,0.488,1.907,1.812,1.781h4.916
	c1.149,0.063,1.812-0.405,1.983-1.406c0.115-0.312,0.229-0.874,0.346-1.688c0-0.062,0-0.124,0-0.188
	c0.229,0.063,0.632,0.188,1.207,0.375c0.287,0.063,0.488,0.126,0.604,0.188c-0.058,0.251-0.115,0.563-0.172,0.938
	c-0.116,0.688-0.202,1.219-0.259,1.594c-0.346,1.376-1.38,2.032-3.105,1.969H479.586z M476.913,275.624v-11.531h11.298v11.531
	h-1.897v-1.313h-7.503v1.313H476.913z M478.811,265.874v2.531h7.503v-2.531H478.811z M478.811,270.093v2.531h7.503v-2.531H478.811z
	 M482.995,191.595v-1.5h2.932c-0.172-0.124-0.489-0.375-0.948-0.75c-0.23-0.188-0.403-0.312-0.518-0.375
	c1.264-1.062,2.242-2.25,2.933-3.563l1.812,0.469c-0.059,0.126-0.173,0.313-0.346,0.563c-0.115,0.251-0.23,0.438-0.345,0.563h4.14
	v-1.781h1.897v1.781h7.332v1.406h-7.332v1.688h9.057v1.5H482.995z M483.512,200.126v-1.406h6.469v-1.219h1.897v10.125h-1.897v-1.875
	h-6.985v-1.313h6.985v-1.5h-6.123v-1.313h6.123v-1.5H483.512z M484.146,159.939v-1.969h2.933v-3.469c-0.289,0-0.72,0-1.294,0
	c-0.575,0.063-1.007,0.094-1.294,0.094c-0.058-0.75-0.145-1.374-0.259-1.875c2.415-0.062,4.801-0.249,7.159-0.563l0.259,1.875
	c-0.921,0.188-1.841,0.281-2.761,0.281v3.656h2.674v1.969h-2.674v2.531l0.259-0.375c1.092,0.938,2.07,1.845,2.933,2.719
	l-1.035,1.594c-0.689-0.75-1.409-1.5-2.156-2.25v9.469h-1.811v-9.375c-0.634,1.938-1.467,3.656-2.502,5.156
	c-0.23-0.812-0.517-1.53-0.862-2.156c1.437-2.063,2.529-4.5,3.277-7.313H484.146z M486.59,240.969
	c-0.058,0.062-0.116,0.125-0.173,0.188L485.469,239c1.035-0.938,1.868-1.749,2.501-2.438v-7.313h-2.328v-2.063h4.226v9.281
	c0.978,1.626,2.616,2.438,4.916,2.438c3.737,0.125,7.619,0.125,11.645,0c-0.059,0.125-0.116,0.343-0.173,0.656
	c-0.23,0.563-0.375,1.031-0.432,1.406c-5.923,0-9.775-0.063-11.558-0.188c-2.3,0-4.053-0.844-5.261-2.531
	C488.43,238.751,487.625,239.656,486.59,240.969L486.59,240.969z M485.582,197.313v-4.406h15.353v4.406H485.582z M488.598,297.998
	c-0.115-0.062-0.258-0.219-0.431-0.469c-1.093-0.999-1.928-1.781-2.501-2.344l1.207-1.5c1.149,0.938,2.156,1.875,3.019,2.813
	L488.598,297.998z M487.479,188.407c-0.402,0.563-0.92,1.125-1.553,1.688h6.728v-1.688H487.479z M489.892,301.092
	c-0.748,3.126-1.38,5.906-1.897,8.344l-1.812-0.656c0.805-3.188,1.409-5.968,1.812-8.344c0.229,0.126,0.747,0.313,1.553,0.563
	C488.913,300.811,489.029,300.843,489.892,301.092L489.892,301.092z M489.029,291.811c-0.921-1.062-1.812-1.999-2.674-2.813
	l1.294-1.406c0.919,0.813,1.84,1.72,2.76,2.719L489.029,291.811z M489.437,224.938c-0.289-0.437-0.835-1.219-1.639-2.344
	c-0.576-0.874-1.007-1.5-1.294-1.875l1.553-1.031c1.436,1.751,2.501,3.094,3.19,4.031L489.437,224.938z M487.479,194.22v1.688
	h11.558v-1.688H487.479z M490.323,293.123v-1.969h3.363c-0.288-0.812-0.604-1.999-0.948-3.563l1.897-0.281
	c0.057,0.375,0.2,0.938,0.431,1.688c0.229,0.876,0.402,1.594,0.518,2.156h-0.086h2.156v1.969h-4.054l-0.086,3.375h3.881
	c0,0.876-0.029,2.188-0.086,3.938c-0.059,2.688-0.116,4.626-0.173,5.813c0,1.813-0.806,2.719-2.415,2.719
	c-0.518,0.062-1.064,0.094-1.639,0.094l-0.345-1.969c0.574,0,1.005,0,1.294,0c0.977,0.062,1.437-0.375,1.38-1.313
	c0-0.375,0.028-0.968,0.086-1.781c0.114-2.625,0.173-4.5,0.173-5.625h-2.243c0,0.188,0,0.344,0,0.469
	c-0.115,4.563-0.979,8.156-2.587,10.781l-1.467-1.406c1.437-1.999,2.213-5.156,2.329-9.469c0.114-1.624,0.173-3.499,0.173-5.625
	H490.323z M492.08,163.221v-1.781h12.161v1.781h-5.175v3h4.657v1.688h-4.657v3h5.779v1.688h-13.801v-1.688h6.038v-3h-4.657v-1.688
	h4.657v-3H492.08z M497.666,275.155c-1.323,0.062-2.674,0.094-4.054,0.094c-0.058-0.625-0.23-1.375-0.518-2.25
	c0.978,0.062,2.271,0.094,3.882,0.094c1.667,0.125,2.529-0.624,2.587-2.25c0-0.124,0.028-0.343,0.087-0.656
	c0.114-1.25,0.172-2.218,0.172-2.906h-8.711l0.949-7.406h7.676v-3.656h-8.625v-1.969h10.781v7.594h-8.021l-0.518,3.469h8.712
	c-0.059,0.626-0.116,1.563-0.173,2.813c-0.116,1.5-0.202,2.563-0.259,3.188C501.634,273.937,500.311,275.217,497.666,275.155
	L497.666,275.155z M502.805,237.875c-0.518,0.063-1.207,0.094-2.07,0.094c0-0.062,0-0.124,0-0.188
	c-0.115-0.687-0.229-1.187-0.345-1.5c0.173,0,0.46,0,0.862,0c0.346,0.063,0.604,0.094,0.776,0.094
	c0.919,0.063,1.351-0.469,1.294-1.594v-0.563h-3.709v3.375h-1.897v-3.375h-3.708v3.656h-1.812v-12.563h5.002
	c-0.345-0.249-0.92-0.624-1.725-1.125c-0.862-0.499-1.466-0.844-1.812-1.031l1.208-1.125c0.401,0.251,0.546,0.345,0.431,0.281
	c1.38,0.813,2.443,1.438,3.191,1.875l3.709-2.25h-10.264v-1.594h13.023v1.781l-5.002,3.094c0.114,0,0.172,0.032,0.172,0.094h5.003
	v9.75C505.19,236.938,504.414,237.875,502.805,237.875L502.805,237.875z M492.856,159.283v-6.844h10.608v6.844H492.856z
	 M494.008,226.906v2.156h3.708v-2.156H494.008z M494.008,230.563v2.156h3.708v-2.156H494.008z M494.725,207.626v-10.125h1.897v1.219
	h6.555v1.406h-6.555v1.5h6.124v1.313h-6.124v1.5h7.072v1.313h-7.072v1.875H494.725z M494.754,154.221v3.281h6.813v-3.281H494.754z
	 M498.086,302.029v-1.875h3.536v-1.313l2.328-2.625h-4.829v-1.406l-0.604,0.938c-0.402-0.437-0.892-0.905-1.466-1.406
	c1.38-2.063,2.472-4.468,3.277-7.219l1.983,0.281c-0.345,1.001-0.689,1.969-1.034,2.906h5.434v1.875h-6.21
	c-0.346,0.75-0.748,1.5-1.208,2.25h6.728v1.969l-2.588,3v0.75h3.278v1.875h-3.278v4.594c0.057,1.688-0.747,2.531-2.415,2.531
	c-0.806,0.062-1.552,0.094-2.242,0.094c0-0.188-0.058-0.438-0.172-0.75c-0.059-0.563-0.116-0.97-0.173-1.219c0.69,0,1.351,0,1.983,0
	c0.863,0.062,1.265-0.313,1.208-1.125v-4.125H498.086z M503.322,226.906h-3.709v2.156h3.709V226.906z M499.613,230.563v2.156h3.709
	v-2.156H499.613z M509.254,207.532V197.22c-0.173,0.063-0.432,0.157-0.776,0.281c-0.689,0.251-1.207,0.469-1.553,0.656
	c-0.172-0.624-0.461-1.249-0.862-1.875c3.393-0.938,6.124-2.28,8.194-4.031h-7.591v-1.688h8.884v-2.344
	c-0.92,0.063-1.927,0.094-3.019,0.094c-0.979,0-2.328,0-4.054,0c-0.058-0.687-0.145-1.249-0.259-1.688
	c4.197,0,9.603-0.188,16.215-0.563l0.259,1.688c-1.438,0.126-3.853,0.251-7.245,0.375v2.438h8.884v1.688h-7.59
	c1.782,1.626,4.485,2.876,8.107,3.75c-0.345,0.688-0.633,1.313-0.862,1.875c-3.968-1.249-6.813-2.843-8.539-4.781v3.281h-1.897
	v-3.281c-1.61,1.688-3.651,3.032-6.123,4.031h14.231v10.406h-1.898v-0.938h-10.608v0.938H509.254z M506.901,292.279v-1.875h2.501
	c0.287-1.125,0.546-2.187,0.776-3.188l1.897,0.188c-0.059,0.375-0.202,1.001-0.432,1.875c-0.172,0.501-0.288,0.876-0.345,1.125
	h4.398v1.875h-4.916c-0.806,2.876-1.41,4.875-1.812,6h2.502v-4.594h1.639v4.594h2.328v1.875h-2.328v3l2.587-0.375
	c-0.058,0.75-0.086,1.406-0.086,1.969l-2.501,0.281v4.594h-1.898v-4.406c-1.552,0.188-2.99,0.375-4.312,0.563l-0.173-2.063
	c0.401,0,1.063-0.062,1.983-0.188c1.092-0.062,1.926-0.124,2.501-0.188v-3.188h-3.967v-1.875c0.057-0.188,0.143-0.469,0.259-0.844
	c0.459-1.5,0.919-3.218,1.38-5.156H506.901z M506.896,275.624v-22.313h2.069v22.313H506.896z M507.64,173.346v-18.375h2.329
	c0.057-0.249,0.143-0.593,0.259-1.031c0.229-0.687,0.431-1.594,0.604-2.719l2.156,0.375c-0.288,1.125-0.604,2.25-0.949,3.375h3.882
	v18.188h-1.897v-1.781h-4.399v1.969H507.64z M510.892,224.188c-0.403,1.125-0.862,2.25-1.38,3.375
	c-0.116-0.062-0.289-0.188-0.518-0.375c-0.461-0.375-0.806-0.624-1.035-0.75c1.207-2.438,2.04-4.875,2.501-7.313l1.897,0.375
	c-0.115,0.501-0.316,1.188-0.604,2.063c-0.058,0.313-0.116,0.532-0.173,0.656h6.038v1.969h-3.02c0,2.376-0.029,4.063-0.086,5.063
	h3.536v1.969h-3.708c0,0.625-0.059,1.219-0.173,1.781c0.401,0.438,0.948,1.095,1.639,1.969c1.149,1.313,2.012,2.344,2.588,3.094
	l-1.467,1.406c-0.23-0.313-0.575-0.75-1.035-1.313c-0.461-0.624-1.207-1.594-2.242-2.906c-0.634,2.126-2.1,4.219-4.398,6.281
	c-0.576-0.75-1.035-1.313-1.38-1.688c2.816-2.438,4.34-5.312,4.57-8.625h-4.312v-1.969h4.398c0.057-1.062,0.086-2.749,0.086-5.063
	H510.892L510.892,224.188z M509.623,157.033v5.156h4.399v-5.156H509.623z M509.623,164.252v5.344h4.399v-5.344H509.623z
	 M511.151,198.813v2.344h10.608v-2.344H511.151z M511.151,202.657v2.25h10.608v-2.25H511.151z M511.616,257.062v-2.25h20.527v2.25
	h-10.091v5.906l1.293-1.781c2.645,1.626,5.204,3.281,7.677,4.969l-1.38,2.063c-2.243-1.625-4.773-3.375-7.59-5.25v12.469h-2.243
	v-18.375H511.616z M527.859,294.623c-0.23,0.375-0.575,1.063-1.035,2.063c-2.358-1.812-4.169-3.968-5.434-6.469
	c-1.38,2.376-3.277,4.563-5.692,6.563c-0.116-0.249-0.374-0.718-0.776-1.406c-0.172-0.188-0.288-0.343-0.345-0.469
	c2.874-2.124,4.916-4.718,6.124-7.781l2.069,0.281l-0.431,0.938C523.72,291.093,525.56,293.187,527.859,294.623L527.859,294.623z
	 M522.906,173.158c-1.151,0-2.358,0-3.623,0c-0.058-0.688-0.202-1.438-0.431-2.25c0.746,0.062,1.867,0.094,3.363,0.094
	c1.609,0.125,2.415-0.656,2.415-2.344c0.114-1.374,0.201-4.313,0.259-8.813c0.057-1.313,0.086-2.25,0.086-2.813h-5.175
	c-0.23,0.563-0.604,1.375-1.121,2.438c-0.23,0.501-0.403,0.876-0.518,1.125c-0.518-0.375-1.093-0.75-1.725-1.125
	c1.38-2.687,2.443-5.438,3.191-8.25l1.983,0.469c-0.116,0.375-0.288,0.907-0.518,1.594c-0.23,0.75-0.403,1.313-0.518,1.688h6.383
	c0,4-0.116,8.688-0.346,14.063C526.614,171.72,525.378,173.096,522.906,173.158L522.906,173.158z M520.184,308.967
	c-2.014,0-3.019-1.063-3.019-3.188v-9.563h1.897v4.125c1.839-1.062,3.593-2.344,5.261-3.844l1.208,1.688
	c-2.128,1.688-4.284,3.157-6.469,4.406v2.719c-0.059,1.125,0.518,1.655,1.725,1.594h1.983c1.15,0,1.782-0.53,1.897-1.594
	c0.173-0.999,0.287-2.063,0.346-3.188c0.689,0.251,1.321,0.469,1.897,0.656c-0.173,1.563-0.375,2.782-0.604,3.656
	c-0.23,1.688-1.323,2.531-3.277,2.531H520.184z M521.268,166.689c-0.289-0.437-0.72-1.093-1.294-1.969
	c-0.806-1.313-1.438-2.312-1.897-3l1.553-1.125c0.401,0.626,1.005,1.5,1.811,2.625c0.69,0.938,1.208,1.688,1.553,2.25
	L521.268,166.689z M519.085,240.688v-19.313h8.97v19.219h-2.069v-2.063h-4.916v2.156H519.085z M521.069,223.438v13.031h4.916
	v-13.031H521.069z M531.155,305.779c-0.863,0.876-1.755,1.906-2.674,3.094l-0.862-2.25c0.517-0.624,1.293-1.5,2.328-2.625
	c0.632-0.624,1.178-0.938,1.639-0.938c0.115,0,0.229,0.032,0.346,0.094c0.114,0,0.2,0,0.258,0c4.369-2.813,8.28-6.03,11.73-9.656
	h-14.662v-2.063h8.452c-0.23-0.624-0.604-1.562-1.121-2.813c-0.173-0.437-0.317-0.75-0.432-0.938l2.243-0.469
	c0.459,1.063,1.005,2.407,1.639,4.031l-0.604,0.188h7.245v2.25c-3.738,4.188-8.021,7.845-12.851,10.969
	c1.034,1.313,2.644,2.001,4.829,2.063c2.07,0.063,5.404,0.032,10.006-0.094c-0.289,0.688-0.489,1.406-0.604,2.156
	c-2.703,0-4.657,0-5.864,0c-1.496-0.063-2.818-0.126-3.968-0.188c-2.703,0-4.773-0.938-6.21-2.813
	C531.729,305.53,531.442,305.53,531.155,305.779L531.155,305.779z M532.063,196.376c-0.289-0.312-0.69-0.812-1.208-1.5
	c-0.748-0.874-1.323-1.562-1.725-2.063l1.553-1.125c1.034,1.063,2.069,2.22,3.104,3.469L532.063,196.376z M532.667,202.188
	c-0.461,2.438-0.806,4.219-1.035,5.344l-2.07-0.656c0.69-2.562,1.322-5.438,1.898-8.625c0.286,0.126,0.718,0.281,1.293,0.469
	c0.287,0.063,0.488,0.126,0.604,0.188C533.241,199.533,533.012,200.627,532.667,202.188L532.667,202.188z M532.667,190.282
	c-0.921-1.249-1.869-2.438-2.847-3.563l1.64-1.125c0.229,0.251,0.545,0.626,0.948,1.125c0.862,0.938,1.522,1.72,1.983,2.344
	L532.667,190.282z M533.036,236.656c-0.46,0.313-0.834,0.626-1.121,0.938l-1.121-2.063c0.46-0.499,0.69-1.155,0.69-1.969v-11.344
	h1.897v11.906l2.415-1.5v-13.313h1.983v22.219h-1.983v-6.563c-0.518,0.251-1.266,0.688-2.243,1.313
	C533.323,236.469,533.151,236.595,533.036,236.656L533.036,236.656z M532.342,173.439v-20.813h15.611v20.813h-2.07v-1.594h-11.385
	v1.594H532.342z M537.458,262.405c-1.093,2.563-2.1,4.751-3.019,6.563c-0.23-0.188-0.661-0.469-1.294-0.844
	c-0.172-0.125-0.316-0.218-0.431-0.281c1.035-1.875,1.983-3.938,2.846-6.188L537.458,262.405L537.458,262.405z M552.121,268.593
	c-0.345-0.812-0.893-1.969-1.639-3.469c-0.461-0.938-0.776-1.624-0.949-2.063c-0.058,1.251-0.058,1.688,0,1.313
	c-0.115,2.751-0.202,4.751-0.259,6c0,3.062-1.38,4.562-4.14,4.5c-1.035,0.062-2.214,0.094-3.536,0.094
	c-0.059-0.438-0.173-1.031-0.345-1.781c-0.059-0.188-0.116-0.343-0.173-0.469c1.494,0.126,2.674,0.188,3.536,0.188
	c1.781,0.125,2.645-0.874,2.588-3c0.114-2.124,0.229-5.625,0.345-10.5h-5.521c0.057,7.938-2.501,13.313-7.676,16.125
	c0-0.063-0.058-0.126-0.173-0.188c-0.518-0.813-0.948-1.375-1.294-1.688c2.761-1.749,4.571-3.563,5.435-5.438
	c0.919-1.688,1.437-4.594,1.552-8.719v-0.094h-6.21v-2.063h6.297c0-0.499,0.028-1.187,0.086-2.063c0-0.999,0.028-1.688,0.086-2.063
	h2.07l-0.086,4.125h7.59l-0.173,5.25l1.467-0.75c0.172,0.375,0.431,0.876,0.776,1.5c0.919,1.813,1.639,3.22,2.156,4.219
	L552.121,268.593z M535.082,189.532v-1.781h2.76v-2.531h1.812v2.531h4.14v-2.531h1.897v2.531h3.277v1.781h-3.277v2.813h4.054v1.781
	h-4.398c1.149,1.938,2.73,3.438,4.744,4.5c-0.059,0.126-0.145,0.313-0.259,0.563c-0.173,0.251-0.403,0.688-0.69,1.313
	c-1.38-0.938-2.501-1.905-3.363-2.906v4.969h-7.504v1.219c-0.059,1.001,0.401,1.468,1.38,1.406h5.52
	c0.978,0,1.581-0.375,1.812-1.125c0.173-0.499,0.287-1.249,0.345-2.25c0.173,0.063,0.402,0.157,0.69,0.281
	c0.459,0.126,0.805,0.22,1.035,0.281c-0.116,0.938-0.289,1.781-0.518,2.531c-0.289,1.438-1.294,2.124-3.019,2.063h-6.556
	c-1.668,0-2.501-0.876-2.501-2.625v-5.25c-0.69,0.688-1.438,1.313-2.242,1.875c-0.23-0.624-0.518-1.249-0.862-1.875
	c2.069-1.313,3.679-2.968,4.829-4.969h-4.054v-1.781h3.709v-2.813H535.082z M534.498,154.689v6.469h11.385v-6.469H534.498z
	 M534.498,163.221v6.656h11.385v-6.656H534.498z M540.627,228.219c-0.461,0.876-0.949,1.688-1.467,2.438
	c-0.058-0.124-0.202-0.343-0.431-0.656c-0.403-0.5-0.69-0.874-0.863-1.125c2.013-2.874,3.536-6.094,4.571-9.656l1.984,0.281
	c-0.403,1.313-0.862,2.595-1.38,3.844h8.107v2.063h-2.07c-0.461,4.5-1.524,7.938-3.191,10.313c1.38,1.563,3.22,2.782,5.521,3.656
	c-0.518,0.75-0.949,1.438-1.294,2.063c-2.301-1.251-4.141-2.593-5.521-4.031c-0.979,1.125-2.703,2.531-5.175,4.219
	c-0.403-0.688-0.834-1.313-1.294-1.875c2.185-1.187,3.91-2.531,5.176-4.031C542.149,233.97,541.259,231.47,540.627,228.219
	L540.627,228.219z M538.273,198.438v2.531h5.692v-2.531H538.273z M540.171,194.126c-0.518,0.938-1.093,1.813-1.726,2.625h6.642
	c-0.575-0.812-1.121-1.688-1.639-2.625H540.171z M539.653,189.532v2.813h4.14v-2.813H539.653z M542.093,225.594
	c0.401,3.626,1.235,6.407,2.501,8.344c1.322-1.937,2.185-4.781,2.588-8.531h-5.089V225.594L542.093,225.594z M549.112,292.654
	v-1.969h3.709c-0.288-1.062-0.604-2.093-0.948-3.094l1.983-0.469c0.173,0.688,0.518,1.875,1.035,3.563h2.415v1.969h-4.657
	l-0.087,3.188h4.141c0,3.375-0.087,6.75-0.259,10.125c0,2-0.835,3-2.502,3c-0.689,0-1.323,0-1.897,0l-0.431-1.969
	c0.518,0,1.091,0,1.725,0c0.978,0.062,1.437-0.437,1.38-1.5c0.115-3.249,0.173-5.813,0.173-7.688h-2.415
	c0,5.313-0.806,9.219-2.415,11.719l-1.466-1.406c1.437-1.999,2.156-5.655,2.156-10.969l0.086-4.5H549.112z M556.512,194.97
	c0.114,5.438-0.807,9.656-2.761,12.656c-0.288-0.375-0.806-0.97-1.552-1.781c0.919-1.437,1.522-2.937,1.811-4.5
	c0.287-1.437,0.432-3.656,0.432-6.656v-7.031h8.021l-0.69-2.25l2.329-0.281c0,0.063,0.028,0.188,0.086,0.375
	c0.229,0.938,0.432,1.657,0.604,2.156h7.245v7.313H556.512L556.512,194.97z M552.635,163.689v-2.156h9.574v-2.531l6.21-4.406h-13.8
	v-2.156h16.904v2.625l-7.158,5.063v1.406h9.143v2.156h-9.143v6.281c0.057,2.063-0.921,3.155-2.933,3.281c-0.345,0-0.893,0-1.639,0
	c-0.806,0.062-1.438,0.094-1.897,0.094c-0.116-0.876-0.259-1.688-0.432-2.438c0.229,0,0.632,0,1.208,0
	c0.746,0.062,1.35,0.094,1.811,0.094c1.208,0.062,1.782-0.53,1.726-1.781v-5.531H552.635z M553.294,225.5v-1.969h2.329v-4.219h1.897
	v4.219h2.242v1.969h-2.242v4.688l2.156-0.656c0,0.75,0,1.47,0,2.156l-2.156,0.656v6.563c0.057,1.625-0.634,2.438-2.07,2.438
	c-0.633,0.062-1.294,0.094-1.983,0.094c0-0.313-0.059-0.782-0.173-1.406c-0.058-0.313-0.086-0.563-0.086-0.75
	c0.114,0,0.287,0,0.518,0c0.345,0.062,0.66,0.094,0.948,0.094c0.69,0.062,1.006-0.25,0.949-0.938v-5.531l-2.502,0.844l-0.172-2.344
	c0.862-0.188,1.753-0.405,2.674-0.656v-5.25H553.294z M554.331,256.874v-1.969h6.728v1.969h-2.415v5.906h2.329v1.875h-2.329v6.094
	c0.805-0.188,1.639-0.375,2.501-0.563c-0.058,0.313-0.058,0.782,0,1.406c0,0.313,0,0.532,0,0.656
	c-0.172,0.063-0.432,0.126-0.776,0.188c-2.473,0.375-4.456,0.781-5.951,1.219l-0.345-1.969c0.287-0.062,0.746-0.155,1.38-0.281
	c0.574-0.124,1.005-0.218,1.294-0.281v-6.469h-2.329v-1.875h2.329v-5.906H554.331z M556.512,189.626v3.375h13.455v-3.375H556.512z
	 M560.67,291.436c-0.748,1.376-1.639,2.719-2.674,4.031c-0.633-0.688-1.093-1.156-1.38-1.406c1.726-2.063,2.989-4.374,3.795-6.938
	l1.984,0.188c-0.116,0.313-0.289,0.782-0.518,1.406c-0.173,0.438-0.288,0.75-0.345,0.938h7.762v1.781H560.67L560.67,291.436z
	 M557.892,207.626v-9.563h13.886v9.563h-1.983v-1.5h-9.919v1.5H557.892z M568.95,307.936c-0.345,0.375-0.604,0.656-0.776,0.844
	c-3.221-2.75-5.061-6.874-5.52-12.375c-0.69,0.063-1.38,0.157-2.07,0.281v9.844c1.208-0.624,2.329-1.125,3.363-1.5
	c0,0.188,0,0.501,0,0.938c0.057,0.438,0.087,0.75,0.087,0.938c-1.208,0.437-2.415,0.999-3.623,1.688
	c-0.115,0.062-0.259,0.125-0.431,0.188c-0.461,0.249-0.748,0.437-0.862,0.563l-1.122-1.688c0.518-0.438,0.747-1.031,0.69-1.781
	v-10.969c3.105-0.249,6.21-0.75,9.315-1.5l0.689,1.969c-1.323,0.313-2.76,0.563-4.313,0.75c0.173,1.5,0.401,2.813,0.69,3.938
	c1.149-0.624,2.271-1.313,3.363-2.063l0.949,1.688c-1.208,0.75-2.445,1.469-3.709,2.156c0.746,2.063,2.099,3.782,4.054,5.156
	C569.61,307.186,569.352,307.498,568.95,307.936L568.95,307.936z M573.994,226.531c-0.461,0.876-0.806,1.563-1.035,2.063
	c-2.703-1.875-4.802-4.125-6.296-6.75c-1.151,1.938-2.646,3.75-4.485,5.438h8.884v1.875h-8.97v-1.781
	c-0.173,0.126-0.461,0.345-0.862,0.656c-0.346,0.313-0.634,0.563-0.863,0.75c-0.058-0.124-0.172-0.343-0.345-0.656
	c-0.288-0.687-0.518-1.125-0.689-1.313c2.874-1.937,5.088-4.53,6.641-7.781l2.156,0.188l-0.518,0.938
	C569.394,223.032,571.521,225.157,573.994,226.531L573.994,226.531z M559.875,199.938v4.5h9.919v-4.5H559.875z M561.835,270.093
	v-1.781h5.175v-2.625h-4.916v-11.438h11.815v11.438h-5.002v2.625h5.261v1.781h-5.261v2.813h6.124v1.875h-14.404v-1.875h6.383v-2.813
	H561.835z M560.971,241.625v-9.75h11.126v9.75h-1.983v-1.406h-7.159v1.406H560.971z M562.954,233.75v4.688h7.159v-4.688H562.954z
	 M563.991,256.124v3h3.019v-3H563.991z M563.991,260.812v3.094h3.019v-3.094H563.991z M572.012,256.124h-3.104v3h3.104V256.124z
	 M568.907,260.812v3.094h3.104v-3.094H568.907z M575.351,308.873c-1.841-0.188-2.876-1.281-3.105-3.281
	c0.173-2.124,1.208-3.281,3.105-3.469c1.954,0.188,3.019,1.345,3.191,3.469C578.369,307.592,577.305,308.686,575.351,308.873
	L575.351,308.873z M575.351,303.529c-1.093,0.126-1.696,0.813-1.812,2.063c0.115,1.063,0.719,1.655,1.812,1.781
	c1.149-0.126,1.781-0.718,1.897-1.781C577.132,304.343,576.5,303.655,575.351,303.529L575.351,303.529z M578.113,207.626v-9.375
	c-0.116,0.126-0.289,0.345-0.518,0.656c-0.634,0.813-1.151,1.406-1.553,1.781c-0.058-0.375-0.202-0.938-0.431-1.688
	c-0.059-0.249-0.116-0.437-0.173-0.563c1.897-1.937,3.479-4.219,4.744-6.844l1.552,1.031c-0.058,0.126-0.172,0.313-0.345,0.563
	c-0.575,1.188-1.064,2.063-1.467,2.625v11.813H578.113z M578.717,232.344c-0.806,0.938-1.639,1.813-2.501,2.625
	c-0.23-0.75-0.489-1.5-0.776-2.25c2.127-1.937,4.054-4.374,5.778-7.313l1.639,1.219c-0.748,1.188-1.466,2.282-2.156,3.281v11.719
	h-1.983V232.344L578.717,232.344z M575.698,256.968v-1.781h9.487c-0.058-0.188-0.145-0.437-0.259-0.75
	c-0.116-0.437-0.202-0.78-0.259-1.031l2.242-0.281c0.173,0.626,0.346,1.313,0.518,2.063h8.712v1.781H575.698z M582.771,220.438
	c-2.07,2.813-4.083,5.032-6.037,6.656c-0.403-0.938-0.72-1.624-0.949-2.063c2.127-1.812,3.882-3.75,5.262-5.813L582.771,220.438
	L582.771,220.438z M581.735,186.532c-1.323,2.25-2.99,4.345-5.002,6.281c-0.173-0.687-0.461-1.374-0.863-2.063
	c1.609-1.374,3.048-3.188,4.313-5.438L581.735,186.532L581.735,186.532z M577.682,264.749v-6.75h1.897v5.063h12.679v-5.063h1.897
	v6.75h-7.245c-0.288,0.688-0.604,1.313-0.948,1.875h9.056v6.281c0.057,1.749-0.689,2.593-2.242,2.531
	c-0.518,0.062-1.466,0.094-2.846,0.094c-0.116-0.563-0.259-1.157-0.432-1.781c0.287,0,0.719,0.03,1.294,0.094
	c0.459,0,0.805,0,1.035,0c0.862,0.062,1.264-0.344,1.207-1.219v-4.219h-4.657c1.264,1.376,2.356,2.688,3.277,3.938l-1.466,0.938
	l-0.776-0.938c-0.403,0-1.035,0.032-1.897,0.094c-2.07,0.063-3.566,0.126-4.485,0.188c-0.173,0-0.461,0.032-0.862,0.094
	c-0.345,0.063-0.634,0.126-0.862,0.188l-0.69-1.781c0.632-0.375,1.121-0.844,1.466-1.406c0.287-0.375,0.546-0.812,0.776-1.313
	h-4.054v7.219h-1.983v-9h6.986c0.345-0.563,0.66-1.187,0.948-1.875H577.682z M581.649,169.502c0,2.188-0.748,3.812-2.242,4.875
	l-0.776-0.844c1.035-0.813,1.58-2.031,1.639-3.656h-1.467v-3.094h2.847C581.649,167.284,581.649,168.189,581.649,169.502
	L581.649,169.502z M590.274,262.593l-4.14-1.781c-1.496,0.626-3.105,1.219-4.83,1.781c-0.059-0.124-0.173-0.281-0.346-0.469
	c-0.23-0.375-0.402-0.656-0.518-0.844c1.322-0.375,2.588-0.812,3.795-1.313c-1.207-0.499-2.357-0.968-3.449-1.406l0.862-1.125
	c0.173,0.063,0.487,0.188,0.948,0.375c0.863,0.313,2.041,0.782,3.537,1.406c0.229-0.124,0.545-0.281,0.948-0.469
	c0.747-0.312,1.695-0.78,2.847-1.406l0.948,1.125c-0.92,0.563-1.897,1.063-2.933,1.5l3.191,1.313L590.274,262.593z M583.892,201.813
	c-0.461,1.5-1.035,2.906-1.725,4.219c-0.288-0.126-0.69-0.281-1.208-0.469c-0.172-0.126-0.288-0.188-0.345-0.188
	c0.69-1.437,1.265-2.78,1.725-4.031L583.892,201.813L583.892,201.813z M581.477,199.845v-1.688h14.749v1.688h-7.504
	c0.173,0.313,0.432,0.75,0.776,1.313c0.46,0.688,0.776,1.188,0.949,1.5l-1.553,0.844c-0.173-0.437-0.547-1.125-1.121-2.063
	c-0.23-0.437-0.432-0.78-0.604-1.031l1.294-0.563H581.477z M581.908,188.97v-1.688h5.951v-2.063h1.812v2.063h6.296v1.688h-6.296
	v1.781h5.52v5.813h-12.938v-5.813h5.606v-1.781H581.908z M587.687,270.843c-1.495,0.126-1.293,0.126,0.604,0
	c-0.173-0.188-0.403-0.499-0.69-0.938c-0.345-0.375-0.604-0.656-0.776-0.844l0.862-0.656h-2.674
	c-0.115,0.126-0.259,0.345-0.431,0.656c-0.289,0.501-0.72,1.157-1.294,1.969C584.093,271.03,585.559,270.969,587.687,270.843
	L587.687,270.843z M583.461,229.906v-2.156h12.938v2.156h-3.709v7.875c0.057,2.25-0.979,3.375-3.105,3.375
	c-0.979,0.062-2.1,0.094-3.363,0.094c-0.173-0.75-0.316-1.5-0.432-2.25c0.287,0,0.719,0,1.294,0
	c0.747,0.062,1.322,0.094,1.725,0.094c1.265,0.062,1.868-0.499,1.812-1.688v-7.5H583.461z M583.892,192.251v2.813h2.243v-2.813
	H583.892z M584.582,222.875v-2.156h10.781v2.156H584.582z M587.169,207.063c-1.725,0.062-2.559-0.719-2.501-2.344v-3.469h1.726
	v2.813c-0.116,0.938,0.401,1.374,1.552,1.313h1.726c0.919,0,1.437-0.281,1.552-0.844c0.115-0.375,0.201-0.905,0.259-1.594
	c0.057-0.188,0.087-0.312,0.087-0.375c0.632,0.313,1.178,0.532,1.639,0.656c-0.173,0.938-0.346,1.626-0.518,2.063
	c-0.289,1.25-1.18,1.843-2.674,1.781H587.169z M587.601,192.251v2.813h2.242v-2.813H587.601z M593.552,192.251h-2.242v2.813h2.242
	V192.251z M594.932,205.47c-0.23-0.375-0.604-1.062-1.121-2.063c-0.403-0.75-0.72-1.343-0.949-1.781l1.553-0.656
	c0.919,1.626,1.609,2.938,2.07,3.938L594.932,205.47z"/>
<path fill="#FFFFFF" d="M37.669,15.728c-0.945,1.406-2.035,2.695-3.27,3.867c-0.218-0.234-0.545-0.546-0.98-0.938
	c-0.365-0.39-0.618-0.663-0.763-0.82c2.106-1.796,3.741-4.023,4.904-6.68l2.507,0.234c-0.292,0.782-0.654,1.523-1.09,2.227h7.193
	v2.109h-5.013c0.654,0.782,1.308,1.602,1.961,2.461l-2.18,0.82c-0.291-0.469-0.8-1.172-1.525-2.109
	c-0.365-0.469-0.618-0.82-0.763-1.055l0.109-0.117H37.669L37.669,15.728z M47.151,26.509v2.578h10.79
	c0,1.875-0.073,3.438-0.218,4.688c-0.073,2.344-1.381,3.516-3.923,3.516c-1.308,0-2.544,0-3.706,0c0-0.079,0-0.196,0-0.352
	c-0.073-0.469-0.218-1.093-0.436-1.875c1.09,0.079,2.325,0.117,3.706,0.117c1.162,0.079,1.815-0.469,1.962-1.641
	c0-0.156,0-0.469,0-0.938c0.071-0.625,0.109-1.055,0.109-1.289h-8.283v8.203h-2.507v-7.266c-2.397,2.891-5.958,5.116-10.68,6.68
	c-0.146-0.234-0.4-0.665-0.763-1.289c-0.218-0.469-0.4-0.82-0.545-1.055c4.504-1.172,7.81-2.93,9.917-5.273h-8.064l1.09-7.031h9.045
	v-2.695h-9.373V19.36h21.361v7.148H47.151z M37.778,26.509l-0.436,2.578h7.302v-2.578H37.778z M49.548,15.728
	c-0.727,1.016-1.526,2.071-2.397,3.164c-0.509-0.546-1.127-1.055-1.853-1.523c1.671-1.875,2.943-3.944,3.814-6.211l2.616,0.234
	c-0.291,0.782-0.618,1.523-0.981,2.227h8.065v2.109h-5.667l2.071,2.461l-2.071,0.82c-0.073-0.077-0.218-0.234-0.436-0.469
	c-0.945-1.172-1.635-2.069-2.071-2.695l0.218-0.117H49.548L49.548,15.728z M54.235,21.587h-7.084v2.695h7.084V21.587z
	 M71.979,19.712c-0.509,7.734-3.161,14.141-7.956,19.219c-0.727-0.782-1.417-1.563-2.071-2.344c4.286-4.14,6.72-9.727,7.302-16.758
	c0.218-1.875,0.398-4.179,0.545-6.914l2.615,0.117C72.269,16.313,72.124,18.54,71.979,19.712L71.979,19.712z M86.365,38.813
	c-5.013-4.843-7.811-11.327-8.392-19.453c-0.292-2.578-0.474-4.843-0.545-6.797l2.615-0.117c0.072,2.344,0.254,4.728,0.545,7.148
	c0.654,7.344,3.27,12.891,7.847,16.641L86.365,38.813z M93.093,15.728v-2.578h22.777v2.578h-10.026c0,1.641-0.073,3.867-0.218,6.68
	h11.77v2.695h-11.225c1.234,5.625,5.049,9.298,11.443,11.016c-0.073,0.156-0.218,0.39-0.436,0.703
	c-0.365,0.703-0.727,1.406-1.09,2.109c-6.468-2.267-10.354-6.015-11.662-11.25c-1.09,4.845-4.833,8.71-11.225,11.602
	c-0.146-0.234-0.436-0.665-0.872-1.289c-0.364-0.547-0.654-0.978-0.872-1.289c6.757-2.655,10.462-6.522,11.116-11.602H91.567v-2.695
	h11.334c0.071-0.703,0.109-1.834,0.109-3.398c0.071-1.406,0.109-2.5,0.109-3.281H93.093z"/>
<path fill="#FFFFFF" d="M138.797,32.642c0.145-2.031,1.114-3.385,2.906-4.063c-1.453-0.729-2.229-1.9-2.325-3.516
	c0.193-2.656,1.646-4.063,4.359-4.219c2.616,0.209,4.044,1.615,4.287,4.219c-0.098,1.667-0.824,2.839-2.18,3.516
	c1.792,0.73,2.736,2.136,2.834,4.219c-0.146,2.656-1.793,4.036-4.941,4.141C140.541,36.833,138.894,35.403,138.797,32.642
	L138.797,32.642z M147.007,32.798c-0.145-2.291-1.26-3.489-3.342-3.594c-1.938,0.105-3.004,1.25-3.197,3.438
	c0.193,1.875,1.283,2.891,3.27,3.047C145.724,35.532,146.813,34.569,147.007,32.798L147.007,32.798z M146.281,25.063
	c-0.145-1.719-0.993-2.656-2.543-2.813c-1.598,0.105-2.47,0.99-2.616,2.656c0.048,1.928,0.92,2.943,2.616,3.047
	C145.336,27.903,146.183,26.938,146.281,25.063L146.281,25.063z M154.345,32.173c-0.243,2.136-1.09,4.192-2.543,6.172
	c-0.339-0.365-0.848-0.859-1.525-1.484c1.064-1.145,1.768-2.369,2.107-3.672c0.338-1.301,0.508-3.307,0.508-6.016v-6.719h12.279
	v14.453c0.047,1.979-0.872,2.969-2.761,2.969c-0.63,0.051-1.575,0.078-2.833,0.078c-0.146-0.574-0.291-1.225-0.436-1.953
	c0.678,0.051,1.599,0.078,2.761,0.078c1.064,0.051,1.573-0.442,1.525-1.484v-2.422H154.345L154.345,32.173z M154.636,27.329
	c0,1.199-0.049,2.266-0.146,3.203h8.937v-3.359h-8.791V27.329z M154.636,22.173v3.281h8.791v-3.281H154.636z M178.18,36.548V35.22
	h-7.629c0.629-1.354,1.937-2.813,3.923-4.375c2.567-1.875,3.778-3.828,3.633-5.859c-0.194-2.656-1.647-4.036-4.359-4.141
	c-2.374-0.051-3.972,1.199-4.795,3.75l1.453,0.781c0.533-1.926,1.55-2.942,3.052-3.047c1.937,0.053,2.93,1.016,2.979,2.891
	c0.047,1.406-1.017,2.969-3.197,4.688c-2.132,1.667-3.658,3.542-4.578,5.625v1.016H178.18z M185.083,20.845
	c2.131,0.105,3.512,1.277,4.142,3.516l-1.453,0.547c-0.388-1.822-1.308-2.708-2.761-2.656c-2.423,0.053-3.633,2.214-3.633,6.484
	c0.774-1.406,2.034-2.135,3.778-2.188c2.712,0.156,4.166,1.85,4.359,5.078c-0.194,3.281-1.72,5.051-4.577,5.313
	c-3.44,0-5.159-2.525-5.159-7.578C179.827,23.684,181.596,20.845,185.083,20.845L185.083,20.845z M184.938,27.954
	c-1.889,0.105-3.052,1.042-3.488,2.813c0.048,3.178,1.21,4.818,3.488,4.922c1.84-0.104,2.809-1.406,2.906-3.906
	C187.795,29.282,186.827,28.007,184.938,27.954L184.938,27.954z M193.069,38.11V20.767h13.15V38.11h-1.744v-1.328h-9.59v1.328
	H193.069z M194.886,22.485v5.391h9.59v-5.391H194.886z M194.886,29.595v5.547h9.59v-5.547H194.886z"/>
<path fill="#FFFFFF" d="M255.364,117.998v-1.641h1.94v-3.516h1.582v3.516h1.653v1.641h-1.653v3.594l1.725-0.703
	c0,0.521,0.024,1.068,0.072,1.641l-1.797,0.781v5.938c0.047,1.354-0.528,2.057-1.725,2.109c-0.192,0-0.479,0.026-0.863,0.078
	c-0.287,0-0.503,0-0.646,0c-0.097-0.677-0.216-1.302-0.359-1.875c0.287,0,0.694,0,1.222,0c0.575,0,0.838-0.234,0.791-0.703v-4.922
	l-2.012,0.859l-0.216-1.875c0.288-0.104,0.719-0.26,1.294-0.469c0.431-0.156,0.742-0.26,0.934-0.313v-4.141H255.364z
	 M259.317,102.748V89.623c-0.308,0.168-0.845,0.375-1.61,0.625c-0.307,0.168-0.575,0.293-0.805,0.375
	c-0.077-0.25-0.23-0.666-0.46-1.25c-0.155-0.332-0.5-1.125-1.035-2.375c4.14-0.832,7.513-2.207,10.12-4.125h-9.2v-3.125h11.27v-2.25
	c-1.15,0.084-2.415,0.125-3.795,0.125c-1.227,0-2.952,0-5.175,0c-0.078-0.416-0.155-0.957-0.23-1.625
	c-0.155-0.666-0.27-1.166-0.345-1.5c6.9,0,14.298-0.207,22.195-0.625l0.575,3.25c-3.145,0.168-6.325,0.25-9.545,0.25v2.375h11.27
	v3.125h-9.2c2.146,1.75,5.48,3.043,10.005,3.875c-0.154,0.418-0.384,1-0.69,1.75c-0.384,0.75-0.652,1.334-0.805,1.75
	c-0.768-0.25-1.572-0.5-2.415-0.75v13.25h-3.68v-1.125h-12.765v1.125H259.317z M262.839,129.951
	c-0.336,0.26-0.695,0.547-1.078,0.859l-1.006-1.484c0.431-0.416,0.647-1.041,0.647-1.875v-13.047
	c3.689-0.156,7.115-0.442,10.278-0.859l0.431,1.641c-0.192,0-0.456,0.027-0.791,0.078c-0.959,0.105-2.084,0.209-3.378,0.313
	c0,1.459,0.047,3.021,0.144,4.688h4.384v1.641h-4.313c0.144,2.761,0.647,4.949,1.51,6.563c0.334,0.521,0.646,0.781,0.934,0.781
	c0.239,0,0.407-0.208,0.503-0.625c0-0.156,0.023-0.442,0.072-0.859c0.095-0.729,0.167-1.301,0.215-1.719
	c0.144,0.053,0.383,0.131,0.719,0.234c0.288,0.156,0.503,0.261,0.647,0.313c0,0.209-0.025,0.521-0.072,0.938
	c-0.048,0.678-0.144,1.328-0.288,1.953c-0.288,1.094-0.862,1.641-1.725,1.641c-0.959,0-1.773-0.625-2.443-1.875
	c-0.959-1.666-1.51-4.114-1.653-7.344h-3.522v6.172l2.947-1.719c0,0.053,0,0.105,0,0.156c0.047,0.469,0.144,0.99,0.288,1.563
	c-0.192,0.105-0.479,0.261-0.862,0.469C264.228,129.119,263.365,129.586,262.839,129.951L262.839,129.951z M267.597,87.998v-3.125
	c-1.534,1.5-3.565,2.793-6.095,3.875h16.215c-2.837-1.082-4.984-2.416-6.44-4v3.25H267.597z M262.997,91.873v2.125h12.765v-2.125
	H262.997z M262.997,96.623v2.125h12.765v-2.125H262.997z M266.433,120.264c-0.048-1.406-0.072-2.916-0.072-4.531
	c-1.15,0.053-2.252,0.131-3.306,0.234v4.297H266.433z M265.929,131.514c-0.479-0.781-1.006-1.537-1.581-2.266l1.222-0.703
	c0.575,0.469,1.174,1.198,1.797,2.188L265.929,131.514z M276.637,128.701c-0.959,0.938-1.725,1.77-2.3,2.5l-0.791-1.797
	c0.239-0.208,0.67-0.598,1.294-1.172c0.479-0.469,0.814-0.807,1.006-1.016v-5.938h-2.156v-1.797h3.809v7.656
	c0.91,1.459,2.228,2.161,3.953,2.109c3.066,0.104,6.229,0.104,9.488,0c-0.048,0.208-0.121,0.52-0.216,0.938
	c-0.144,0.364-0.24,0.651-0.288,0.859c-1.055,0-2.659-0.027-4.815-0.078c-2.3,0-3.858-0.027-4.672-0.078
	C279.176,130.836,277.739,130.107,276.637,128.701L276.637,128.701z M276.997,117.529c-0.431-0.781-1.198-2.004-2.3-3.672
	l1.366-0.781c0.239,0.313,0.67,0.886,1.294,1.719c0.575,0.781,0.981,1.355,1.222,1.719L276.997,117.529z M278.937,118.936v-1.719
	h4.457c0.047-0.989,0.072-2.422,0.072-4.297h1.725c0,1.563-0.025,2.996-0.072,4.297h5.175v1.719h-5.247
	c-0.097,1.146-0.288,2.188-0.575,3.125l0.791-0.703c0.479,0.469,1.341,1.355,2.587,2.656c1.197,1.25,2.036,2.136,2.516,2.656
	L289,127.92c-0.862-1.041-2.444-2.786-4.744-5.234c-0.719,1.928-2.253,3.725-4.6,5.391c-0.336-0.52-0.719-1.041-1.15-1.563
	c3.114-2.031,4.719-4.557,4.815-7.578H278.937z M288.185,88.873c-0.307-0.582-0.844-1.457-1.61-2.625
	c-0.69-1.25-1.265-2.207-1.725-2.875l3.22-1.75c1.15,1.5,2.3,3.209,3.45,5.125L288.185,88.873z M294.05,92.873
	c-0.69,0.668-1.458,1.25-2.3,1.75l-0.69-1.875c-0.69,3.25-1.38,6.582-2.07,10l-3.68-1.125c0.92-3.5,1.725-7.125,2.415-10.875
	c0.92,0.334,1.916,0.668,2.99,1c-0.155-0.25-0.23-0.541-0.23-0.875c2.453-1.332,4.408-3.166,5.865-5.5h-4.945v-3.25h4.6v-2.875
	h-3.565v-3.25h3.565v-3h3.45v3h4.6v-3h3.565v3h3.68v3.25h-3.68v2.875h4.83v3.25h-5.29c1.226,2.084,3.143,3.668,5.75,4.75
	c-0.615,1.25-1.15,2.459-1.61,3.625c-1.535-0.916-2.875-1.916-4.025-3v5.75h-9.89v0.875c0,1.25,0.575,1.875,1.725,1.875h6.9
	c1.303,0,1.993-0.541,2.07-1.625c0.23-0.75,0.383-1.75,0.46-3c0.996,0.334,2.07,0.709,3.22,1.125c-0.23,1.584-0.46,2.75-0.69,3.5
	c-0.46,2-1.917,3-4.37,3h-8.97c-2.455,0-3.68-1.25-3.68-3.75V92.873L294.05,92.873z M288.76,80.248
	c-0.308-0.5-0.729-1.207-1.265-2.125c-0.845-1.332-1.495-2.416-1.955-3.25l3.335-1.75c1.38,2.084,2.491,3.793,3.335,5.125
	L288.76,80.248z M297.345,123.232v2.734h-2.444v-2.734H297.345z M297.345,129.014v2.578h-2.444v-2.578H297.345z M297.385,91.123v2.5
	h6.555v-2.5H297.385z M300.145,85.373c-0.537,1-1.15,1.918-1.84,2.75h6.785c-0.538-0.75-1.112-1.666-1.725-2.75H300.145z
	 M299.455,79.248v2.875h4.6v-2.875H299.455z M320.271,122.217c-0.048,5.209-1.605,7.864-4.671,7.969
	c-3.211-0.052-4.816-2.708-4.816-7.969c0.047-5.26,1.628-7.969,4.744-8.125C318.642,114.197,320.224,116.904,320.271,122.217
	L320.271,122.217z M318.619,122.217c0-4.531-1.055-6.77-3.163-6.719c-1.965,0.156-2.972,2.396-3.019,6.719
	c0,4.48,1.03,6.693,3.091,6.641C317.588,128.91,318.619,126.697,318.619,122.217L318.619,122.217z M325.805,129.951
	c0.622-4.947,2.491-9.766,5.606-14.453v-1.094h-9.344v1.563h7.403c-2.875,4.584-4.672,9.246-5.391,13.984H325.805L325.805,129.951z
	 M336.223,121.045v-2.422h-2.229v2.422H336.223z M336.223,129.717v-2.266h-2.229v2.266H336.223z M348.152,122.217
	c-0.048,5.209-1.605,7.864-4.672,7.969c-3.211-0.052-4.815-2.708-4.815-7.969c0.047-5.26,1.629-7.969,4.744-8.125
	C346.523,114.197,348.104,116.904,348.152,122.217L348.152,122.217z M346.5,122.217c0-4.531-1.055-6.77-3.163-6.719
	c-1.965,0.156-2.972,2.396-3.019,6.719c0,4.48,1.03,6.693,3.091,6.641C345.469,128.91,346.5,126.697,346.5,122.217L346.5,122.217z
	 M359.373,122.217c-0.048,5.209-1.605,7.864-4.672,7.969c-3.211-0.052-4.815-2.708-4.815-7.969c0.047-5.26,1.629-7.969,4.744-8.125
	C357.744,114.197,359.325,116.904,359.373,122.217L359.373,122.217z M357.721,122.217c0-4.531-1.055-6.77-3.163-6.719
	c-1.965,0.156-2.972,2.396-3.019,6.719c0,4.48,1.03,6.693,3.091,6.641C356.689,128.91,357.721,126.697,357.721,122.217
	L357.721,122.217z"/>
</svg>
