<?xml version="1.0" encoding="utf-8"?>
<!-- Generator: Adobe Illustrator 16.0.0, SVG Export Plug-In . SVG Version: 6.00 Build 0)  -->
<!DOCTYPE svg PUBLIC "-//W3C//DTD SVG 1.1//EN" "http://www.w3.org/Graphics/SVG/1.1/DTD/svg11.dtd">
<svg version="1.1" id="图层_1" xmlns="http://www.w3.org/2000/svg" xmlns:xlink="http://www.w3.org/1999/xlink" x="0px" y="0px"
	 width="640px" height="364.5px" viewBox="0 0 640 364.5" enable-background="new 0 0 640 364.5" xml:space="preserve">
<path fill="#FFFFFF" d="M44.375,61.003c-1.267-1.375-3.165-3.189-5.692-5.44c0.229,0.252-0.06,0-0.862-0.75l3.278-3.752
	c1.034,0.876,2.527,2.128,4.484,3.752c1.035,0.876,1.782,1.5,2.243,1.876L44.375,61.003z M46.273,70.383
	c-1.496,5.88-2.476,10.004-2.934,12.383l-5.002-1.502c0.919-3.376,2.243-8.879,3.969-16.509c0.573,0.126,1.38,0.375,2.415,0.75
	c1.147,0.375,1.953,0.688,2.414,0.938C46.903,67.32,46.618,68.633,46.273,70.383L46.273,70.383z M45.41,48.435
	c-0.69-0.75-1.784-1.812-3.278-3.189c-1.38-1.375-2.474-2.374-3.276-3.001l3.104-3.751c0.69,0.627,1.954,1.688,3.795,3.189
	c1.38,1.125,2.415,2.002,3.105,2.626L45.41,48.435z M50.585,54.438c-0.345-0.498-0.861-1.187-1.553-2.063
	c-0.69-0.874-1.267-1.501-1.725-1.876c3.68-3.626,6.438-7.879,8.28-12.756l5.349,0.563c-0.232,0.375-0.519,0.938-0.862,1.688
	c-0.345,0.75-0.634,1.313-0.863,1.688h19.666v4.502H56.796c-0.689,1.125-1.438,2.251-2.243,3.377h21.909
	c-0.115,0.627-0.172,2.438-0.172,5.44c-0.116,2.377-0.172,4.253-0.172,5.628h3.623v4.502h-3.623
	c-0.116,2.377-0.173,4.628-0.173,6.753h2.933v4.314h-3.104c-0.232,4.376-2.531,6.501-6.9,6.378h-6.899
	c-0.116-0.627-0.462-1.565-1.035-2.814c-0.116-0.627-0.232-1.062-0.346-1.312c2.185,0,4.427,0,6.729,0
	c2.184,0.124,3.391-0.628,3.623-2.251h-21.05l1.035-11.068h-3.45v-4.502h3.968l0.69-8.066L50.585,54.438z M71.114,71.884
	c0.113-1.375,0.172-3.626,0.172-6.753H55.761l-0.689,6.753h9.143c-1.267-1.249-2.76-2.5-4.484-3.752l2.415-3.001
	c1.954,1.378,3.735,2.691,5.348,3.939l-2.416,2.814H71.114z M56.796,54.063l-0.689,6.566h8.625c-0.69-0.625-1.726-1.501-3.105-2.626
	c-0.689-0.624-1.208-1.061-1.552-1.313l2.587-2.626L56.796,54.063L56.796,54.063z M71.459,60.628c0-3.125,0-5.314,0-6.566h-8.453
	c0.804,0.501,1.897,1.313,3.277,2.439c0.69,0.627,1.208,1.064,1.553,1.313l-2.415,2.814H71.459L71.459,60.628z M93.813,61.379
	c-2.303-2.125-4.774-4.315-7.418-6.566l3.276-3.939c2.99,2.251,5.521,4.253,7.592,6.003L93.813,61.379z M96.917,66.068
	c-1.15,4.127-2.704,9.632-4.658,16.508L87.084,80.7c1.493-4.25,3.105-9.755,4.83-16.508c0.229,0.126,0.631,0.313,1.208,0.563
	C94.615,65.256,95.882,65.693,96.917,66.068L96.917,66.068z M95.021,48.998c-2.07-1.876-4.485-3.939-7.246-6.19l3.277-4.127
	c2.528,1.876,5.061,3.816,7.591,5.815L95.021,48.998z M99.332,51.437V46.56h7.246c-0.345-0.499-0.806-1.249-1.38-2.251
	c-1.151-1.875-2.07-3.376-2.76-4.502l4.484-1.876c1.38,2.002,2.816,4.191,4.313,6.566l-3.968,2.063h6.899
	c1.726-3.001,3.278-5.877,4.658-8.629l5.003,1.688c-0.577,1.002-1.496,2.503-2.76,4.502c-0.69,1.125-1.208,1.94-1.552,2.439h7.417
	v4.877h-11.213v5.627h9.833v5.065h-9.833v5.815h12.247v5.065h-12.247v9.757h-5.349v-9.757H98.294v-5.065h12.076v-5.815h-9.661
	v-5.065h9.661v-5.627H99.332z M135.15,63.067v-4.69h2.243V42.62h4.313c0.113-0.499,0.286-1.313,0.518-2.439
	c0.112-1,0.229-1.75,0.345-2.251l4.83,0.375c0,0.252-0.06,0.563-0.172,0.938c-0.232,0.75-0.577,1.875-1.035,3.376h5.866v34.704
	c0,0.498-0.061,1-0.174,1.501c3.334-3.25,4.831-8.691,4.485-16.32V55h13.973v20.26c0,1.251,0.402,1.814,1.208,1.688h0.346
	c0.803,0.126,1.264-0.499,1.38-1.876c0.229-2.75,0.345-5.501,0.345-8.254c1.38,0.501,2.528,0.938,3.45,1.313
	c-0.232,3.752-0.461,6.692-0.69,8.817c-0.345,3.125-1.785,4.688-4.313,4.688h-2.07c-2.876,0.123-4.256-1.501-4.14-4.877V60.065
	h-4.831v2.439c0.345,9.13-1.553,15.945-5.693,20.447c-0.577-0.627-1.784-1.814-3.623-3.564c-0.345,1.877-1.668,2.875-3.968,3.002
	c-1.151,0-2.531,0-4.14,0c-0.116-0.628-0.289-1.564-0.519-2.813c-0.116-0.75-0.231-1.379-0.345-1.876c0.919,0,1.955,0,3.104,0
	c1.493,0.122,2.184-0.499,2.07-1.876V63.067h-6.21c0,8.38-1.035,15.069-3.104,20.074c-1.612-1.5-2.819-2.691-3.623-3.564
	c1.725-4.001,2.527-9.503,2.415-16.508L135.15,63.067L135.15,63.067z M141.706,47.122v11.255h6.21V47.122H141.706z M144.293,56.689
	c-0.345-1-0.861-2.313-1.553-3.939c-0.345-1-0.633-1.75-0.862-2.251l2.934-1.688c0.229,0.501,0.573,1.251,1.035,2.251
	c0.803,1.627,1.38,2.878,1.725,3.752L144.293,56.689z M144.466,73.384l-2.587-6.565l3.105-1.688
	c0.345,0.876,0.919,2.316,1.725,4.315c0.458,1.002,0.803,1.752,1.035,2.251L144.466,73.384z M153.782,49.936v-5.065h8.108
	c-0.232-0.75-0.577-1.876-1.035-3.376c-0.346-1.125-0.633-1.999-0.863-2.626l5.348-0.75c0.346,1.126,0.804,2.626,1.38,4.502
	c0.346,1.002,0.574,1.753,0.69,2.251h7.937v5.065L153.782,49.936L153.782,49.936z M187.348,67.944
	c-0.923,1.002-1.612,1.753-2.07,2.251c-0.232-0.874-0.633-2.187-1.208-3.939c-0.232-0.75-0.404-1.313-0.519-1.688
	c4.141-3.875,7.938-8.503,11.387-13.882l4.14,3.189c-1.496,2.128-2.933,4.127-4.313,6.003v23.074h-5.176V65.881
	C189.129,66.382,188.382,67.071,187.348,67.944L187.348,67.944z M198.733,41.307c-3.795,5.003-7.937,9.379-12.42,13.131
	c-0.577-1.875-1.324-3.687-2.243-5.44c3.795-2.875,7.245-6.565,10.351-11.068L198.733,41.307L198.733,41.307z M199.94,60.253v-5.44
	h25.358v5.44h-6.728v14.632c0.113,4.751-2.014,7.129-6.383,7.129c-2.992,0.122-5.464,0.188-7.418,0.188
	c-0.346-1.876-0.75-3.628-1.208-5.252c0.573,0,1.608,0,3.104,0c1.493,0.126,2.588,0.188,3.278,0.188
	c2.299,0.126,3.391-1,3.278-3.376V60.253H199.94z M201.838,46.372v-5.44h21.736v5.44H201.838z M236.276,47.309v-4.502h10.696v-4.69
	h5.175v4.69h9.661v4.502h-9.661v4.502h5.002c4.141-3.25,7.876-7.002,11.213-11.255l4.14,3.001c-2.646,3.001-5.348,5.754-8.107,8.254
	h9.487v4.69h-15.181c-0.345,0.252-0.862,0.627-1.553,1.125c-0.922,0.627-2.415,1.626-4.485,3.001h16.043V82.95h-5.003v-2.251
	h-19.494v2.251h-5.175V67.944c-0.461,0.126-1.095,0.439-1.897,0.938c-1.612,0.627-2.819,1.125-3.623,1.5l-1.554-5.44
	c7.476-2.5,13.628-5.314,18.459-8.441h-17.94v-4.69h14.491v-4.502H236.276z M263.706,64.943h-18.632l-0.862,0.375v3.564h19.494
	V64.943z M244.212,72.822v3.938h19.494v-3.938H244.212z M280.71,62.504v-4.877h41.92v4.877h-29.153l-0.862,3.564H317.8
	c-0.116,1.125-0.288,2.814-0.517,5.065c-0.232,2.002-0.346,3.376-0.346,4.127c-0.348,4.751-3.277,7.064-8.801,6.941
	c-2.876,0.123-6.438,0.188-10.695,0.188c-0.116-1.627-0.461-3.44-1.035-5.439c4.37,0.252,7.704,0.375,10.006,0.375
	c3.334,0.126,5.061-0.938,5.175-3.189c0.113-0.375,0.172-0.938,0.172-1.688c0.113-0.75,0.173-1.249,0.173-1.5h-25.531l1.725-8.441
	h-7.418L280.71,62.504L280.71,62.504z M286.059,54.25V39.618h31.225V54.25H286.059z M291.579,44.496v4.877h20.354v-4.877H291.579z"
	/>
<g>
	<path fill="#FFFFFF" d="M274.008,111.458c3.557-0.472,10.971-0.705,10.971-5.635c0-2.583-2.448-3.558-4.664-3.558
		c-5.433,0-11.572,4.562-11.572,10.297c0,3.623,2.885,5.504,6.206,5.504c1.876,0,3.825-0.672,5.334-1.78
		c0.537-0.403,2.58-2.213,2.58-2.884c0-0.199-0.2-0.404-0.403-0.404c-0.601,0-2.447,2.955-5.466,2.955
		c-2.012,0-3.051-1.479-3.051-3.391L274.008,111.458z M274.176,110.314c0.338-2.146,2.482-7.041,5.1-7.041
		c0.771,0,1.105,0.735,1.105,1.439c0,1.378-0.871,3.122-1.877,4.027C277.396,109.749,275.688,110.25,274.176,110.314
		 M302.418,102.268c-0.908,0-1.61-0.234-2.08,0.637c-0.066,0.102-0.133,0.234-0.269,0.234c-0.103,0-0.234-0.066-0.3-0.1
		c-0.638-0.371-1.376-0.501-2.08-0.501c-2.786,0-5.808,1.774-7.783,3.655c-2.145,2.076-3.723,4.761-3.723,7.813
		c0,1.946,0.738,4.062,2.985,4.062c3.69,0,6.845-4.299,8.755-7.08c-0.302,1.675-1.069,3.857-1.069,5.466
		c0,1.075,0.566,1.614,1.571,1.614c1.948,0,3.892-1.479,5.234-2.787c0.469-0.469,1.745-1.877,1.745-2.619
		c0-0.199-0.104-0.434-0.336-0.434c-0.536,0-1.814,2.647-2.854,2.647c-0.333,0-0.435-0.401-0.435-0.636
		c0-0.639,0.369-1.846,0.537-2.414l0.705-2.618c0.303-1.14,1.945-5.972,1.945-6.572c0-0.538-0.974-0.37-1.272-0.37h-1.278v0.002
		L302.418,102.268L302.418,102.268z M292.29,115.081c-0.773,0-1.005-0.707-1.005-1.41c0-1.88,0.935-3.922,1.876-5.536
		c1.005-1.677,2.853-4.525,5.028-4.525c0.738,0,1.378,0.637,1.378,1.375C299.567,107.298,294.704,115.081,292.29,115.081
		 M313.049,111.593c1.039,0.903,2.551,2.011,2.551,3.521c0,0.974-0.707,1.979-1.71,1.979c-2.08,0-4.158-4.631-5.834-4.631
		c-0.939,0-1.07,1.44-1.07,2.146c0,1.346,0.33,2.018,1.605,2.584c1.342,0.604,3.32,0.875,4.764,0.875c2.917,0,6.91-1.683,6.91-5.099
		c0-3.725-6.005-5.335-6.005-8.218c0-0.707,0.4-1.441,1.171-1.441c2.084,0,3.729,3.621,5.168,3.621c0.772,0,0.873-0.805,1.004-1.408
		c0.067-0.305,0.203-0.906,0.203-1.244c0-1.81-4.427-2.012-5.533-2.012c-1.609,0-3.188,0.233-4.628,1.043
		c-1.207,0.668-2.181,1.774-2.181,3.217C309.461,108.573,311.607,110.385,313.049,111.593"/>
	<path fill="#FFFFFF" d="M268.44,99.65c0.067-0.233,0.236-0.808,0.236-1.108c0-0.604-1.108-0.938-1.544-1.104
		c-1.574-0.604-3.353-0.972-5.029-0.972c-1.848,0-3.823,0.468-5.3,1.576c-1.31,1.038-2.312,2.683-2.312,4.358
		c0,2.852,2.349,4.896,4.224,6.744c1.208,1.172,2.519,2.278,2.519,4.059c0,1.105-0.737,2.146-1.612,2.75
		c-0.802,0.533-1.911,0.77-2.882,0.77c-1.073,0-2.315-0.3-3.088-1.07c-0.737-0.771-0.806-1.545-0.938-2.517
		c-0.064-0.64-0.064-1.478-0.902-1.478c-0.537,0-0.739,0.501-0.842,0.938c-0.2,0.807-0.302,2.283-0.302,3.12
		c0,1.039,0.237,1.21,1.242,1.544c1.609,0.567,3.588,0.809,5.265,0.809c2.213,0,4.43-0.476,6.239-1.744
		c1.813-1.311,2.953-3.188,2.953-5.4c0-2.55-2.551-4.796-4.226-6.475c-0.94-0.94-2.583-2.35-2.583-3.756
		c0-1.748,1.775-2.887,3.421-2.887c4.361,0,2.45,4.43,4.258,4.43c0.737,0,0.841-1.043,0.942-1.543L268.44,99.65z"/>
	<path fill="#FFFFFF" d="M188.97,110.021c0-3.252-2.649-5.125-4.879-5.125c-4.03,0-7.941,3.436-7.941,7.403
		c0,2.872,2.036,5.204,4.721,5.204C184.144,117.505,188.97,114.637,188.97,110.021 M186.453,108.438
		c0,1.959-0.966,5.045-2.768,7.168c-0.32,0.349-1.15,1.312-2.764,1.312c-1.877,0-2.252-1.771-2.252-2.896
		c0-3.092,1.956-8.539,5.448-8.539C185.994,105.482,186.453,107.146,186.453,108.438 M198.949,106.104
		c0.299,0,0.432-0.512,0.432-0.644c0-0.104-0.025-0.24-0.185-0.24h-2.549c0.375-1.424,1.233-4.595,2.439-4.595
		c0.294,0,0.456,0.271,0.644,0.595c0.563,0.938,1.369,1.021,1.557,1.021c0.589,0,1.235-0.455,1.235-1.18
		c0-0.861-0.912-1.367-1.985-1.367c-1.691,0-3.354,0.992-4.377,1.957c-1.203,1.103-1.664,2.418-2.062,3.57h-1.958
		c-0.323,0-0.458,0.641-0.458,0.641c0,0.108,0.028,0.242,0.189,0.242h1.955c-1.609,5.342-2.01,6.844-3.567,12.639
		c-0.346,1.316-0.991,3.729-2.062,3.729c-0.458,0-0.646-0.532-0.726-0.802c-0.188-0.537-0.401-1.152-1.261-1.152
		c-0.697,0-1.155,0.51-1.155,1.125c0,0.857,0.969,1.635,2.283,1.635c1.231,0,2.308-0.537,3.19-1.231
		c1.718-1.367,2.042-2.255,4.885-12.478l0.963-3.465L198.949,106.104L198.949,106.104L198.949,106.104z M214.863,106.104
		c0.269,0,0.724-0.106,0.724-0.617c0-0.053,0-0.267-0.214-0.267h-2.791c0.055-0.104,0.109-0.321,0.135-0.405l0.35-0.963
		c0.104-0.293,0.481-1.394,0.481-1.608c0-0.326-0.241-0.326-0.588-0.326c-0.377,0-1.45,0.03-1.744,0.138
		c-0.322,0.135-0.995,2.682-1.208,3.166h-1.289c-0.721,0-1.229,0-1.229,0.67c0,0.213,0.292,0.213,0.562,0.213h1.688
		c-0.885,2.576-1.984,5.819-2.44,7.674c-0.132,0.511-0.351,1.367-0.351,2.173c0,1.125,0.542,1.557,1.104,1.557
		c2.198,0,5.119-3.38,5.119-4.187c0-0.135-0.129-0.293-0.294-0.293c-0.133,0-0.268,0.136-0.346,0.296
		c-0.807,1.26-2.174,2.36-2.604,2.36c-0.161,0-0.322-0.136-0.322-0.479c0-0.402,0.377-1.667,0.539-2.149
		c1.231-4.025,1.257-4.132,2.172-6.949h2.545v-0.004H214.863z M220.77,105.246c0.4-1.256,1.689-5.193,1.689-5.305
		c0-0.11-0.025-0.25-0.269-0.25c-0.135,0-0.401,0.14-0.669,0.276c-0.404,0.234-1.773,0.581-2.764,0.552l-0.619-0.021
		c-0.239,0-0.806,0-0.806,0.479c0,0.159,0.081,0.293,0.456,0.293c0.833,0,1.183,0,1.183,0.616c0,1.464-4.508,14.226-4.508,14.843
		c0,0.453,0.294,0.453,1.153,0.453c1.153,0,1.206-0.053,1.528-0.938c1.527-4.217,5.851-9.823,7.728-9.823
		c0.399,0,1.103,0.054,1.103,1.396c0,2.205-2.067,8.888-3.543,8.888c-0.943,0-0.696-1.421-1.958-1.421
		c-0.511,0-1.234,0.51-1.234,1.125c0,0.671,0.668,1.099,1.528,1.099c4.238,0,7.968-4.505,8.02-9.126
		c0.025-2.919-1.635-3.455-2.521-3.455c-2.359,0-4.799,2.682-7.327,6.307l-0.049-0.084L220.77,105.246z M236.438,111.658
		c1.102-0.188,5.149-1.074,5.149-3.973c0-1.884-1.846-2.815-3.348-2.815c-2.875,0-7.97,2.948-7.97,8.207
		c0,2.953,2.036,4.428,4.046,4.428c2.929,0,5.585-3.19,5.585-3.646c0-0.135-0.052-0.271-0.213-0.271
		c-0.133,0-0.19,0.057-0.776,0.648c-1.692,1.641-3.01,1.718-3.492,1.718c-0.51,0-2.254-0.244-2.254-2.876c0-0.16,0-0.35,0.052-0.832
		L236.438,111.658z M233.325,111.523c0.643-3.061,2.497-6.041,4.483-6.041c1.285,0,1.285,1.263,1.285,1.504
		C239.095,110.585,235.174,111.312,233.325,111.523"/>
	<path fill="#FFFFFF" d="M48.125,111.792l-0.974-10.601v-0.873c0-1.476,0.403-1.711,1.846-1.977c0.536-0.134,1.107-0.27,1.107-0.908
		c0-0.435-0.336-0.703-0.706-0.703c-1.507,0.035-3.051,0.168-4.593,0.168c-1.545,0-3.086-0.133-4.563-0.168
		c-0.469,0-0.873,0.168-0.873,0.703c0,0.604,0.669,0.64,1.138,0.773c0.773,0.166,1.041,0.371,1.21,1.17l1.44,17.412
		c0.102,0.838,0.169,1.275,1.177,1.275c1.474,0,1.977-1.209,2.715-2.219l8.552-11.871l1.979-2.617
		c0.436-0.567,1.409-1.912,1.979-2.347c0.604-0.473,1.31-0.569,2.046-0.771c0.403-0.104,0.736-0.307,0.736-0.742
		c0-0.501-0.333-0.771-0.802-0.771c-1.042,0.035-2.114,0.168-3.187,0.168c-1.073,0-2.148-0.133-3.222-0.168
		c-0.471,0-0.971,0.303-0.971,0.84c0,0.638,0.87,0.638,1.338,0.673c0.638,0.026,1.208,0.298,1.208,1.005
		c0,0.972-2.349,4.058-2.983,4.962L48.125,111.792z M65.204,118.066c5.063,0,11.066-3.357,11.066-8.991
		c0-4.363-3.856-6.812-7.849-6.812c-5.196,0-10.765,3.861-10.765,9.395c0,1.979,0.904,3.654,2.479,4.861
		C61.647,117.662,63.357,118.066,65.204,118.066 M65.103,117.094c-1.778,0-2.213-1.91-2.213-3.354c0-2.081,0.638-4.192,1.508-6.072
		c0.807-1.775,2.416-4.328,4.629-4.328c1.844,0,2.18,1.475,2.18,3.021C71.206,109.376,68.859,117.094,65.103,117.094
		 M90.326,113.203c1.542-2.213,4.09-5.837,4.09-8.62c0-1.144-0.669-2.317-1.944-2.317c-1.242,0-2.014,1.043-2.014,2.213
		c0,0.74,0.234,1.276,0.469,1.981c0.234,0.671,0.336,0.974,0.336,1.677c0,2.483-2.719,5.734-4.192,7.58V112.8
		c0-2.083-0.067-4.461-0.438-6.508c-0.333-1.774-0.835-4.026-3.083-4.026c-1.813,0-3.455,0.978-4.598,2.317
		c-0.401,0.469-1.443,1.942-1.443,2.58c0,0.235,0.169,0.47,0.404,0.47c0.805,0,1.208-2.615,2.617-2.615
		c1.041,0,1.341,2.854,1.442,3.487l0.638,7.38c0,1.812-0.135,3.553-0.975,5.164c-0.536,1.006-1.744,2.447-3.021,2.447
		c-1.44,0-1.778-1.945-3.755-1.945c-0.971,0-1.911,0.771-1.911,1.813c0,1.51,1.71,2.11,2.987,2.11c3.652,0,6.002-2.444,8.315-4.93
		L90.326,113.203z M112.125,102.266c-0.906,0-1.608-0.23-2.078,0.641c-0.067,0.101-0.135,0.234-0.271,0.234
		c-0.1,0-0.234-0.068-0.302-0.103c-0.636-0.369-1.375-0.501-2.078-0.501c-2.786,0-5.805,1.775-7.783,3.654
		c-2.146,2.078-3.721,4.762-3.721,7.815c0,1.945,0.733,4.06,2.983,4.06c3.689,0,6.843-4.297,8.754-7.077
		c-0.302,1.674-1.071,3.854-1.071,5.467c0,1.069,0.569,1.61,1.574,1.61c1.945,0,3.891-1.48,5.233-2.789
		c0.466-0.469,1.742-1.877,1.742-2.614c0-0.199-0.1-0.437-0.333-0.437c-0.539,0-1.813,2.651-2.854,2.651
		c-0.333,0-0.435-0.401-0.435-0.637c0-0.64,0.37-1.849,0.536-2.417l0.706-2.616c0.302-1.14,1.942-5.969,1.942-6.575
		c0-0.535-0.969-0.371-1.275-0.371h-1.271v0.004L112.125,102.266L112.125,102.266z M101.996,115.08
		c-0.771,0-1.005-0.707-1.005-1.409c0-1.879,0.937-3.924,1.877-5.534c1.005-1.677,2.852-4.527,5.031-4.527
		c0.735,0,1.375,0.639,1.375,1.377C109.274,107.297,104.41,115.08,101.996,115.08 M123.595,114.879
		c-0.736-0.202-2.346-0.506-2.346-1.479c0-0.37,0.302-0.668,0.635-0.836l0.336,0.099c1.107,0.237,1.575,0.336,2.717,0.336
		c1.846,0,3.522-0.267,5.098-1.24c1.575-0.973,2.718-2.483,2.718-4.394c0-1.109-0.335-1.778-0.974-2.653h1.948
		c0.771,0,0.604,0.103,0.868-0.771c0-0.099,0.103-0.399,0.103-0.5c0-0.168-0.536-0.104-0.57-0.104h-2.413
		c-1.008,0-1.344-0.029-2.314-0.333c-1.478-0.468-2.651-0.739-4.229-0.739c-3.354,0-7.343,1.746-7.343,5.604
		c0,1.877,1.239,3.316,2.849,4.125c-1.138,0.771-2.646,1.775-2.646,3.318c0,0.808,0.336,1.547,0.839,2.113
		c-1.877,0.167-5.533,1.073-5.533,3.453c0,2.182,2.414,3.323,4.227,3.859c1.741,0.535,3.789,0.736,5.635,0.736
		c1.945,0,3.924-0.133,5.736-0.871c1.81-0.771,3.285-2.146,3.285-4.228c0-1.677-1.108-2.885-2.515-3.655
		c-1.208-0.639-3.153-1.07-4.531-1.443L123.595,114.879z M124.301,111.857c-1.344,0-1.979-1.205-1.979-2.414
		c0-2.045,1.307-6.172,3.89-6.172c1.308,0,1.776,1.479,1.776,2.549C127.988,107.9,126.918,111.857,124.301,111.857 M119.808,118.264
		c1.307,0.875,2.949,1.344,4.494,1.68c1.141,0.232,3.422,0.504,3.422,2.111c0,1.877-2.516,2.283-3.958,2.283
		c-2.183,0-6.171-0.904-6.171-3.691C117.594,119.271,118.5,118.4,119.808,118.264 M140.736,111.459
		c3.552-0.47,10.968-0.707,10.968-5.639c0-2.579-2.451-3.557-4.664-3.557c-5.434,0-11.571,4.563-11.571,10.301
		c0,3.623,2.886,5.502,6.206,5.502c1.877,0,3.822-0.67,5.333-1.779c0.536-0.401,2.583-2.214,2.583-2.885
		c0-0.199-0.202-0.402-0.4-0.402c-0.604,0-2.45,2.954-5.468,2.954c-2.014,0-3.055-1.478-3.055-3.39L140.736,111.459z
		 M140.903,110.316c0.336-2.148,2.481-7.045,5.099-7.045c0.771,0,1.106,0.74,1.106,1.44c0,1.379-0.873,3.122-1.878,4.027
		C144.122,109.747,142.411,110.251,140.903,110.316 M161.664,109.311c0.472-0.836,2.279-4.059,3.388-4.059
		c0.404,0,0.47,0.336,0.47,0.641c0.099,1.139,0.505,1.808,1.745,1.808c1.608,0,2.649-1.607,2.649-3.085
		c0-1.274-0.976-2.35-2.281-2.35c-3.621,0-5.668,4.495-7.312,7.146l0.37-1.511c0.3-1.207,0.635-2.614,0.635-3.857
		c0-1.208-0.703-1.777-1.843-1.777c-1.88,0-3.69,1.312-4.933,2.616c-0.4,0.404-1.643,1.646-1.643,2.28
		c0,0.234,0.201,0.406,0.403,0.406c0.736,0,1.912-2.553,3.083-2.553c0.302,0,0.403,0.301,0.403,0.535
		c0,0.672-0.503,2.317-0.706,2.953l-2.346,7.917c-0.034,0.164-0.167,0.671-0.167,0.802c0,0.506,0.804,0.406,1.106,0.406h0.905
		c0.536,0,1.911,0.1,2.347-0.27c0.269-0.202,0.438-0.735,0.569-1.039L161.664,109.311z"/>
</g>
</svg>
