<svg xmlns="http://www.w3.org/2000/svg" width="640" height="53.312" viewBox="0 510.312 640 53.312" enable-background="new 0 510.312 640 53.312"><path fill="#FEF699" d="M51.149 538.023h1.423v-7.306h1.977c.052-.344.131-.803.237-1.375.052-.459.105-.803.158-1.03l1.028.086c-.053.399-.211 1.175-.475 2.319h2.925v15.728c.052 1.432-.581 2.147-1.897 2.147h-.791c-.422.057-.711.086-.87.086 0-.116-.027-.315-.079-.604-.053-.288-.106-.485-.158-.603h1.581c.843.057 1.238-.288 1.186-1.03v-7.479h-3.874v.345c0 2.521-.106 4.409-.316 5.672-.211 1.262-.632 2.549-1.265 3.867-.053-.062-.132-.115-.237-.175-.37-.286-.581-.459-.632-.516 1.106-1.775 1.607-4.697 1.502-8.767v-.43h-1.423v-.935zm2.372-6.359v6.359h3.874v-6.359h-3.874zm1.819 4.898c-.211-1.089-.527-2.148-.949-3.181l.949-.258.633 2.062c.158.459.263.804.316 1.03l-.949.347zm.237 7.735c-.316-1.203-.66-2.35-1.028-3.438l.87-.345c.052.229.158.545.316.944.316.976.579 1.806.791 2.491l-.949.348zm11.306-7.992v10.056c-.053.688.289 1.001 1.027.944h.158c.58.057.922-.289 1.028-1.03.105-.631.21-1.661.316-3.095v-.344c.158.112.342.198.553.258.158.059.289.115.396.172-.053 1.375-.158 2.437-.316 3.181-.106 1.315-.711 1.944-1.818 1.891h-.632c-1.213.06-1.792-.573-1.739-1.891v-9.023h-3.637v1.979c0 2.578-.185 4.498-.553 5.758-.316 1.203-1.028 2.463-2.135 3.781-.158-.174-.396-.402-.711-.688.052.057 0 .026-.158-.086 1.054-1.146 1.739-2.234 2.056-3.267.316-1.089.474-2.895.474-5.414v-3.181l5.691-.001zm-7.274-4.297h9.883v1.029h-9.883v-1.029zm4.744 0c-.422-1.031-.897-2.092-1.423-3.182l1.027-.43c.21.399.526 1.089.949 2.062l.474 1.03-1.027.52zm7.436 10.14c-.106-.229-.264-.517-.474-.859 1.949-1.774 3.768-4.238 5.455-7.391l1.028.602c-.791 1.375-1.502 2.521-2.135 3.438v11h-1.107v-9.452c-1.107 1.316-2.003 2.292-2.688 2.922 0-.058-.027-.144-.079-.26zm5.93-13.062c-1.423 2.178-3.189 4.239-5.297 6.188-.158-.4-.369-.773-.632-1.117 1.844-1.547 3.479-3.466 4.902-5.758l1.027.687zm.79 7.476h12.097v1.116h-3.953v8.164c.105 1.772-.765 2.664-2.609 2.664-.739.058-1.608.086-2.609.086-.053-.229-.106-.518-.158-.857-.053-.172-.079-.315-.079-.432h2.609c1.265.058 1.844-.461 1.739-1.547v-8.078h-7.037v-1.116zm1.186-6.532h9.804v1.117h-9.804v-1.117zm23.318 5.329c1.897-1.547 3.638-3.322 5.218-5.328l.87.688c-1.265 1.604-2.715 3.152-4.349 4.644h5.93v1.029h-7.195c-1.318 1.032-2.741 1.979-4.269 2.837h8.222v9.712h-1.027v-1.289h-9.646v1.289h-1.107v-7.906c-1.107.518-2.292 1.031-3.558 1.547-.053-.113-.132-.312-.237-.603-.158-.229-.264-.399-.316-.518 3.847-1.375 7.22-3.062 10.12-5.069h-9.804v-1.03h7.59v-3.095h-5.614v-1.03h5.614v-2.75h1.106v2.75h4.823v1.03h-4.823v3.095l2.452-.003zm-5.692 4.899c-.053 0-.132.029-.237.086-.158.06-.264.115-.316.172v2.492h9.646v-2.75h-9.093zm-.554 3.781v2.578h9.646v-2.578h-9.646zm18.108-1.375l1.266-3.781h-4.27v-1.202h19.133v1.202h-13.678l-.871 2.664h11.781c-.054.805-.133 1.807-.238 3.009-.053.459-.078.805-.078 1.03-.158 1.945-1.502 2.922-4.032 2.922-1.265.059-2.608.086-4.032.086-.053-.399-.132-.856-.236-1.375.842.059 2.238.087 4.189.087 1.896.112 2.898-.546 3.004-1.978.053-.285.105-.744.158-1.375.052-.631.079-1.062.079-1.289h-12.175zm.08-13.234h12.966v5.845h-12.966v-5.845zm1.107 1.117v3.607h10.752v-3.607h-10.752zm16.202 5.758h3.004v-7.733h.949v7.733h2.688v1.031h-2.688v2.664l.712-.604.158.173c1.106 1.489 1.845 2.521 2.214 3.095l-.87.688c-.315-.458-.765-1.146-1.344-2.062-.423-.572-.711-.976-.87-1.203v8.767h-.949v-9.194c-.686 2.351-1.581 4.354-2.688 6.017-.053-.172-.158-.397-.316-.688-.105-.229-.186-.372-.236-.433 1.422-2.004 2.477-4.409 3.162-7.217h-2.926v-1.034zm1.266-1.891c-.526-1.432-.976-2.606-1.344-3.522l.87-.345c.58 1.435 1.08 2.779 1.502 4.039l-.87.345c-.053-.116-.108-.287-.158-.517zm5.771-3.523c-.475 1.262-1.002 2.607-1.581 4.039l-.87-.344c.579-1.375 1.107-2.722 1.581-4.039l.87.344zm1.107 2.32h4.189v-1.806h-4.744v-.944h4.744v-2.062h1.027v2.062h5.377v.944h-5.377v1.806h4.824v.944h-4.824v1.892h5.613v.945h-11.701v-.945h5.061v-1.892h-4.189v-.944zm.95 15.727h-1.029v-10.312h9.566v7.82c.053 1.547-.632 2.29-2.055 2.233h-1.186c-.582.057-1.002.086-1.266.086 0-.461-.079-.858-.236-1.203.58.057 1.396.087 2.45.087.949.057 1.396-.345 1.345-1.203v-1.289h-7.59l.001 3.781zm0-9.368v1.891h7.59v-1.891h-7.59zm0 2.75v1.891h7.59v-1.891h-7.59zm15.972-1.203c-1 2.292-2.424 4.24-4.269 5.844-.053-.114-.187-.287-.396-.516-.158-.113-.264-.229-.316-.345 2.003-1.66 3.637-3.866 4.902-6.616h-4.27v-1.031h4.348v-1.719h1.029v1.719h4.11v1.031h-4.11v2.664l.475-.603c1.158.857 2.451 1.86 3.873 3.008l-.711.945c-1.317-1.203-2.529-2.234-3.637-3.097v6.53h-1.027l-.001-7.814zm-.394-10.312c-1.738.115-3.058.201-3.953.258-.053-.344-.132-.688-.236-1.03 3.953-.172 7.246-.4 9.883-.688l.236 1.031c-1.265.114-3.243.257-5.93.429zm-2.293 5.843c-.527-1.261-1.107-2.464-1.738-3.609l.948-.431c.896 1.72 1.476 2.894 1.739 3.521l-.949.519zm3.242-1.032c-.316-1.259-.711-2.462-1.186-3.608l.948-.344c.316.916.712 2.119 1.187 3.608l-.949.344zm3.795-.772c-.369.744-.686 1.348-.949 1.806l-.949-.603c1-1.547 1.739-2.894 2.215-4.039l.949.517c-.266.514-.686 1.287-1.266 2.319zm9.725 6.789c-2.213 3.15-5.271 5.586-9.17 7.307-.054-.116-.186-.315-.396-.604l-.237-.518c3.848-1.488 6.825-3.781 8.934-6.875l.869.69zm-7.511-6.103c-.157-.345-.396-.688-.711-1.03 2.478-1.317 4.558-3.037 6.246-5.156l.791.772c-1.636 2.007-3.745 3.812-6.326 5.414zm-.079 5.415c-.158-.229-.291-.372-.396-.431 2.793-1.547 4.954-3.354 6.483-5.415l.869.771c-1.846 2.235-4.031 4.098-6.562 5.588-.052-.112-.183-.284-.394-.513zm9.086-6.961v-1.117h5.692v1.203c-.687 1.434-1.371 2.637-2.056 3.608v11.259h-1.106v-9.798c-.687.918-1.502 1.835-2.451 2.75-.053-.112-.157-.398-.315-.857-.053-.172-.106-.313-.158-.431 1.896-1.604 3.558-3.81 4.98-6.617h-4.586zm3.4-1.546c-.844-1.832-1.396-2.949-1.661-3.352l.949-.518c.157.288.446.831.87 1.633.421.858.711 1.434.869 1.721l-1.027.516zm2.768 9.109c-.423-.571-1.107-1.461-2.057-2.664l.711-.688c.368.398.87.976 1.502 1.72.368.459.605.744.711.858l-.867.774zm5.612-3.695c.104-1.774.158-3.553.158-5.328h1.028c0 2.464-.054 4.24-.158 5.328-.053 5.101-2.372 8.793-6.959 11.086l-.869-.944c4.587-2.236 6.852-5.615 6.8-10.142zm-4.032-8.422h9.488v12.375h-1.027v-11.258h-7.354v11.603h-1.107v-12.72zm4.981 11.258h1.028v5.07c-.054 1.029.42 1.518 1.422 1.461h.871c.842 0 1.344-.401 1.502-1.203.158-.977.236-1.86.236-2.664.211.115.555.259 1.028.431 0 .745-.079 1.547-.237 2.405-.158 1.432-1.002 2.117-2.529 2.062h-1.107c-1.477.058-2.214-.746-2.214-2.406v-5.156zm12.023-12.204h1.027v3.438h2.688v.945h-2.688v3.438h3.083v.946h-8.935v-.946h1.582v-5.845h.949v5.845h2.293l.001-7.821zm-2.057 11.344c-.423 1.435-1.027 2.922-1.818 4.469l-.871-.516c.633-1.203 1.213-2.635 1.74-4.297l.949.344zm5.613.774c-1.475 3.896-3.979 6.703-7.51 8.423-.211-.345-.449-.66-.713-.945 3.584-1.604 6.035-4.238 7.354-7.906l.869.428zm-4.19-2.407h1.028v5.328h-1.028v-5.328zm9.33-1.461h1.028v1.547c0 2.922-.316 5.042-.949 6.358l.632-.772c1.897 1.49 3.558 2.807 4.981 3.953l-.711.858c-.528-.461-1.529-1.262-3.004-2.405l-1.897-1.548c-.687 1.604-2.479 3.035-5.376 4.298-.158-.345-.395-.688-.711-1.031 2.635-1.031 4.27-2.148 4.902-3.353.791-1.088 1.158-3.209 1.106-6.358l-.001-1.547zm-3.716-2.836h2.925l.632-3.267h-4.428v-1.031h10.199v1.031h-4.744l-.632 3.267h4.506v10.655h-1.028v-9.711h-6.404v9.711h-1.026v-10.655z"/><path fill="#FFF799" d="M44.596 538.689l-2.096-2.148 2.096 2.148zm-2.096 2.147l2.096-2.146-2.096 2.146zm0-4.295l2.096 2.148-10 9.756-2.096-2.148 10-9.756m-9.472-4.947l2.094-2.147 9.474 9.244-2.096 2.146-9.472-9.243"/></svg>