<?xml version="1.0" encoding="utf-8"?>
<!-- Generator: Adobe Illustrator 16.0.0, SVG Export Plug-In . SVG Version: 6.00 Build 0)  -->
<!DOCTYPE svg PUBLIC "-//W3C//DTD SVG 1.1//EN" "http://www.w3.org/Graphics/SVG/1.1/DTD/svg11.dtd">
<svg version="1.1" id="图层_1" xmlns="http://www.w3.org/2000/svg" xmlns:xlink="http://www.w3.org/1999/xlink" x="0px" y="0px"
	 width="640px" height="311.333px" viewBox="0 -83.167 640 311.333" enable-background="new 0 -83.167 640 311.333"
	 xml:space="preserve">
<path fill="#4CC2F8" d="M375.69,25.211l3.129-0.379c0.099,0.798,0.366,1.407,0.805,1.829c0.438,0.421,0.966,0.632,1.587,0.632
	c0.668,0,1.229-0.253,1.687-0.759c0.455-0.506,0.685-1.188,0.685-2.047c0-0.813-0.219-1.457-0.656-1.932
	c-0.437-0.476-0.97-0.713-1.599-0.713c-0.414,0-0.908,0.081-1.483,0.242l0.356-2.634c0.874,0.023,1.541-0.167,2.001-0.569
	c0.46-0.403,0.689-0.938,0.689-1.605c0-0.567-0.169-1.02-0.506-1.357c-0.338-0.337-0.786-0.506-1.346-0.506
	c-0.553,0-1.024,0.192-1.415,0.575c-0.391,0.383-0.629,0.943-0.713,1.679l-2.979-0.506c0.207-1.02,0.521-1.834,0.938-2.444
	c0.418-0.609,1.001-1.089,1.748-1.438c0.748-0.349,1.586-0.523,2.514-0.523c1.587,0,2.86,0.506,3.818,1.518
	c0.79,0.828,1.185,1.764,1.185,2.807c0,1.48-0.809,2.661-2.427,3.542c0.967,0.207,1.739,0.671,2.318,1.392
	c0.577,0.721,0.867,1.591,0.867,2.611c0,1.48-0.541,2.742-1.622,3.784c-1.08,1.043-2.427,1.564-4.036,1.564
	c-1.526,0-2.791-0.439-3.797-1.317C376.434,27.779,375.852,26.63,375.69,25.211z"/>
<path fill="#FFFFFF" d="M59.296,111.031c-0.806,1.5-1.466,2.625-1.984,3.375c-0.058-0.375-0.202-0.905-0.431-1.594
	c-0.058-0.312-0.116-0.53-0.172-0.656c1.954-3.188,3.478-6.812,4.571-10.875l1.725,0.562c-0.517,1.688-1.093,3.281-1.725,4.781
	v17.156h-1.639v-13.313C59.583,110.594,59.469,110.782,59.296,111.031L59.296,111.031z M61.194,153.251
	c-0.403,0.375-0.776,0.812-1.121,1.313l-1.38-1.594c0.574-0.438,0.862-1.125,0.862-2.063v-7.875h-2.76v-1.875h4.485v9.75
	c0.401-0.375,1.005-0.938,1.811-1.688c0.69-0.562,1.178-0.969,1.466-1.219c0.115,0.812,0.287,1.469,0.518,1.969
	C63.868,150.97,62.574,152.064,61.194,153.251L61.194,153.251z M56.795,176.811v-1.78h6.469c0.46-0.75,1.035-1.875,1.725-3.375
	c0.115-0.312,0.201-0.529,0.259-0.656l1.897,0.563c-0.575,1.188-1.179,2.344-1.811,3.469h12.333v1.781h-4.226
	c-0.92,2.625-2.186,4.594-3.795,5.905c0.747,0.375,1.839,0.876,3.277,1.5c1.609,0.688,2.76,1.188,3.45,1.5l-0.949,1.781
	c-1.841-0.938-4.284-2.095-7.332-3.469c-2.415,1.562-5.664,2.78-9.746,3.655c-0.23-0.625-0.518-1.28-0.862-1.969
	c3.737-0.501,6.611-1.374,8.625-2.625c-0.748-0.375-1.927-0.938-3.537-1.688c-1.035-0.499-1.811-0.874-2.329-1.125
	c0.69-1.062,1.38-2.219,2.07-3.469H56.795L56.795,176.811z M57.399,211.438v-1.688H77.15v1.688h-6.727v4.313
	c-0.116,1.188,0.431,1.718,1.639,1.594h1.725c1.091,0.062,1.695-0.345,1.811-1.219c0.115-0.688,0.229-1.531,0.345-2.531
	c0.229,0.126,0.574,0.25,1.035,0.375c0.287,0.126,0.488,0.22,0.604,0.281c-0.116,1-0.259,1.907-0.432,2.719
	c-0.23,1.438-1.237,2.124-3.019,2.063h-2.674c-1.956,0.062-2.904-0.876-2.846-2.813v-4.78h-3.708
	c0.229,4.062-2.042,6.812-6.814,8.25c-0.23-0.438-0.604-1.002-1.121-1.688c4.369-1.063,6.411-3.249,6.124-6.563H57.399z
	 M57.83,204.312V200h8.884c-0.116-0.375-0.345-0.999-0.69-1.875c-0.116-0.249-0.202-0.438-0.259-0.562l1.897-0.375
	c0.345,0.875,0.69,1.78,1.035,2.719L68.353,200h8.28v4.312h-1.812v-2.625H59.555v2.625H57.83z M57.917,172.686v-4.218h9.143
	c-0.173-0.437-0.518-1.155-1.035-2.155c-0.172-0.313-0.289-0.53-0.345-0.656l1.812-0.469c0.345,0.562,0.833,1.531,1.466,2.905
	l-0.863,0.375h8.453v4.312h-1.725v-2.625h-15.18v2.53H57.917z M62.056,138.907c-0.862-1.188-1.983-2.47-3.363-3.845l1.38-1.219
	c1.149,1.252,2.299,2.5,3.45,3.75L62.056,138.907z M59.9,206.562v-1.688h14.749v1.688H59.9z M62.66,122.562v-1.594h7.59
	c1.725-5.124,2.989-9.188,3.795-12.188l1.812,0.562c-1.438,4.563-2.704,8.438-3.795,11.625h5.692v1.594H62.66z M63.178,178.779
	c-0.23,0.375-0.403,0.656-0.518,0.844c1.035,0.438,2.76,1.219,5.175,2.344c1.725-1.437,2.961-3.154,3.709-5.156h-7.159
	C64.097,177.249,63.695,177.905,63.178,178.779L63.178,178.779z M63.264,107.281V105.5h6.642c-0.576-1.625-1.007-2.906-1.294-3.844
	l1.812-0.375c0.172,0.562,0.459,1.438,0.862,2.625c0.172,0.562,0.315,1,0.431,1.312l-1.293,0.281h6.727v1.781H63.264z
	 M63.695,154.376v-1.688h5.261v-19.125h1.811v6.656h5.865v1.875h-5.865v10.594h6.814v1.688H63.695z M67.059,119
	c-0.806-3.375-1.697-6.593-2.674-9.656l1.725-0.562c0.287,1,0.747,2.594,1.38,4.781c0.632,2.25,1.091,3.876,1.38,4.875L67.059,119z
	 M80.812,141.157c-0.289,0.312-0.489,0.562-0.604,0.75c-0.058-0.188-0.202-0.47-0.431-0.845c-0.172-0.375-0.317-0.655-0.431-0.844
	c1.954-2.062,3.536-4.406,4.744-7.031l1.639,0.563c-0.633,1.313-1.293,2.47-1.984,3.469v9.75h-1.639v-7.405
	C81.817,139.938,81.386,140.47,80.812,141.157L80.812,141.157z M99.614,174.561c-0.172,0.252-0.288,0.438-0.345,0.563
	c-4.256-2.25-7.361-4.842-9.315-7.78c-2.531,3.25-5.722,5.938-9.574,8.062c-0.058-0.124-0.172-0.312-0.345-0.563
	c-0.345-0.562-0.576-0.938-0.69-1.125c4.6-2.562,7.905-5.437,9.918-8.624l2.07,0.281l-0.431,0.656
	c2.299,3.126,5.434,5.594,9.401,7.406C100.188,173.623,99.959,173.998,99.614,174.561L99.614,174.561z M80.036,213.594v-1.5h8.797
	c0.057-0.188,0.086-0.469,0.086-0.844c0.057-0.375,0.086-0.656,0.086-0.844h1.812c-0.058,0.562-0.144,1.125-0.259,1.688h9.056v1.5
	h-8.453c1.092,2.25,4.082,3.624,8.97,4.125c-0.345,0.563-0.633,1.155-0.862,1.781c-5.002-0.812-8.137-2.438-9.401-4.875
	c-1.035,2.438-4.227,4.188-9.574,5.25c-0.403-0.876-0.69-1.47-0.863-1.781c5.348-0.812,8.337-2.312,8.97-4.5H80.036z
	 M83.227,148.657c-0.806,2.376-1.524,4.125-2.156,5.25l-1.553-0.656c0.862-1.688,1.581-3.375,2.156-5.063L83.227,148.657
	L83.227,148.657z M80.38,201.969v-1.594h5.693c-0.289-0.375-0.863-1.062-1.725-2.062c0.172,0.188,0.028,0-0.431-0.563l1.639-0.656
	c0.977,1.063,1.725,1.97,2.242,2.72l-1.293,0.562h5.089c0.862-0.938,1.695-2,2.501-3.188l1.812,0.562
	c-0.634,0.812-1.352,1.688-2.156,2.625h5.606v1.594H90.73v2.25h7.59v1.5h-7.59v2.25h9.143v1.594H79.777v-1.594h9.143v-2.25h-7.504
	v-1.5h7.504v-2.25H80.38z M81.79,104.75v-1.875h17.336v1.875h-7.503v6h9.143v1.875h-9.143v7.313c0.114,2.25-0.892,3.375-3.019,3.375
	c-1.093,0-2.242,0-3.45,0c-0.058-0.75-0.172-1.438-0.345-2.063c0.574,0.062,1.609,0.094,3.105,0.094
	c1.322,0.125,1.926-0.5,1.812-1.875v-6.844h-9.66v-1.875h9.66v-6H81.79z M83.313,175.592v-1.781h13.11v1.781H90.73v3.656h6.814
	v1.688H90.73v4.031h8.711v1.594H80.208v-1.594h8.711v-4.031h-6.728v-1.688h6.728v-3.656H83.313z M87.194,155.032
	c-1.725,0-2.587-0.907-2.587-2.72v-3.844h1.639v3.375c0.057,1,0.604,1.5,1.639,1.5h3.795c1.264,0.062,1.984-0.437,2.156-1.5
	c0.173-0.688,0.287-1.406,0.345-2.156c0.114,0.063,0.315,0.127,0.604,0.188c0.459,0.25,0.833,0.407,1.122,0.469
	c-0.173,0.876-0.345,1.688-0.518,2.438c-0.403,1.562-1.496,2.312-3.277,2.25L87.194,155.032L87.194,155.032z M90.299,141.157
	c-1.093,1.438-2.415,3-3.967,4.688c-0.116-0.188-0.375-0.437-0.776-0.75c-0.172-0.188-0.317-0.343-0.431-0.469
	c1.149-1.125,2.415-2.593,3.795-4.406L90.299,141.157L90.299,141.157z M88.919,137.22c-0.403,0.876-1.151,2.001-2.243,3.375
	c-0.058-0.062-0.116-0.125-0.172-0.188c-0.518-0.375-0.92-0.656-1.208-0.845c1.667-2,2.933-4.093,3.795-6.28l1.725,0.28
	c-0.058,0.188-0.172,0.438-0.345,0.75c-0.058,0.252-0.259,0.688-0.604,1.313h9.574v1.688l-1.294,3c-0.058,0-0.172-0.062-0.345-0.188
	c-0.518-0.188-0.92-0.343-1.208-0.469l1.121-2.438L88.919,137.22L88.919,137.22z M90.817,151.376
	c-0.863-1.125-1.755-2.188-2.674-3.188l1.208-1.03c0.632,0.625,1.581,1.626,2.846,3L90.817,151.376z M91.334,146.782
	c-0.633,0-1.294,0-1.984,0c0-0.062-0.03-0.155-0.086-0.281c0-0.313-0.086-0.781-0.259-1.406c0.402,0.063,0.977,0.095,1.725,0.095
	c0.977,0.062,1.437-0.375,1.38-1.313v-5.25h1.639v5.531C93.806,145.845,93.001,146.721,91.334,146.782L91.334,146.782z
	 M98.752,145.845c-1.496-1.812-2.76-3.219-3.795-4.219l1.208-1.125c0.977,0.876,2.299,2.25,3.967,4.125L98.752,145.845z
	 M98.924,153.157c-0.345-0.5-0.862-1.28-1.552-2.345c-0.69-0.998-1.237-1.78-1.639-2.344l1.294-0.938
	c1.38,1.812,2.501,3.375,3.364,4.688L98.924,153.157z M112.064,141.251l-0.949-1.313c-2.415,0.063-4.688,0.188-6.814,0.375
	c-0.345,0-0.862,0.063-1.552,0.188c0.459-0.125,0.401-0.125-0.173,0l-0.604-1.594c0.518-0.375,0.977-0.781,1.38-1.22
	c1.208-1.438,2.329-2.967,3.364-4.594l1.639,0.656c-1.266,1.75-2.587,3.407-3.967,4.969c0.804-0.062,2.126-0.125,3.967-0.188
	c0.747-0.062,1.294-0.094,1.639-0.094c-0.518-0.75-1.064-1.469-1.639-2.156l1.208-0.844c0.69,0.812,1.725,2.062,3.105,3.75
	c0.345,0.438,0.604,0.75,0.776,0.938L112.064,141.251z M106.199,211.438c-1.035,3.502-1.783,5.938-2.242,7.313l-1.812-0.844
	c0.977-2.499,2.012-5.687,3.105-9.563c0.115,0.063,0.345,0.156,0.69,0.281c0.402,0.188,0.718,0.312,0.949,0.375
	C106.716,209.501,106.486,210.312,106.199,211.438L106.199,211.438z M105.25,204.594c-0.23-0.5-0.575-1.187-1.035-2.062
	c-0.806-1.5-1.41-2.625-1.811-3.375l1.553-0.75c0.574,0.938,1.35,2.312,2.329,4.125c0.287,0.501,0.488,0.876,0.604,1.125
	L105.25,204.594z M102.835,187.404v-18.281h2.329c0.173-0.623,0.402-1.53,0.69-2.718c0.114-0.5,0.201-0.845,0.259-1.031l1.811,0.281
	c-0.345,1.375-0.662,2.53-0.949,3.468h4.054v18.094h-1.725v-1.781h-4.744v1.969H102.835L102.835,187.404z M103.086,113.187v-1.594
	h1.466v-7.875h2.329c0.057-0.312,0.143-0.75,0.259-1.313c0.057-0.5,0.114-0.905,0.172-1.219l1.639,0.094
	c-0.058,0.188-0.144,0.501-0.259,0.938c-0.172,0.688-0.288,1.188-0.345,1.5h3.364v17.25c0.057,1.5-0.633,2.281-2.07,2.344
	c-0.575,0-1.265,0-2.07,0c0-0.126-0.058-0.344-0.172-0.656c-0.058-0.438-0.116-0.782-0.172-1.031c0.401,0,0.977,0,1.725,0
	c0.863,0,1.294-0.344,1.294-1.031v-7.406h-4.14c0.115,4.688-0.431,8.187-1.639,10.5L103,122.562c1.149-2,1.667-5.124,1.553-9.375
	H103.086z M103.18,155.501v-13.313h8.539v10.781c0.057,1.5-0.633,2.28-2.07,2.344c-0.633,0-1.38,0-2.243,0
	c-0.058-0.562-0.144-1.095-0.259-1.594c0.632,0,1.264,0,1.897,0c0.805,0,1.178-0.281,1.122-0.844v-1.969h-5.434v4.594
	L103.18,155.501L103.18,155.501z M104.56,170.811v5.625h4.744v-5.625H104.56z M104.56,178.123v5.719h4.744v-5.719H104.56z
	 M104.732,143.688v2.156h5.434v-2.156H104.732z M104.732,147.251v2.25h5.434v-2.25H104.732z M106.104,105.218v6.375h4.14v-6.375
	H106.104z M107.916,110.375c-0.345-1.125-0.72-2.25-1.122-3.375l1.208-0.469c0.057,0.25,0.173,0.595,0.345,1.031
	c0.229,0.438,0.518,1.157,0.862,2.156L107.916,110.375z M108.088,118.625c-0.345-1.125-0.748-2.312-1.208-3.563l1.294-0.469
	c0.287,0.813,0.718,2.001,1.293,3.563L108.088,118.625z M114.393,219.688v-7.594h-3.968v1.125h-1.639v-11.438h5.606v-4.5h1.725v4.5
	h5.692v11.438h-1.725v-1.125h-3.967v7.594H114.393z M110.425,203.562v6.845h3.968v-6.845H110.425z M118.101,187.217
	c-1.208,0-2.415,0-3.622,0c-0.058-0.25-0.116-0.625-0.173-1.125c-0.116-0.312-0.172-0.562-0.172-0.75c1.092,0,2.243,0,3.45,0
	c1.667,0.125,2.501-0.687,2.501-2.438c0.172-5.562,0.259-9.594,0.259-12.094h-5.52c-0.575,1.375-1.151,2.625-1.725,3.75
	c-0.461-0.375-0.949-0.718-1.466-1.031c1.208-2.123,2.271-4.874,3.191-8.249l1.725,0.469c-0.116,0.501-0.317,1.188-0.604,2.063
	c-0.23,0.562-0.375,0.97-0.431,1.219h6.642c0,0.312,0,0.812,0,1.5c-0.116,5.812-0.231,10.029-0.345,12.654
	C121.752,185.811,120.516,187.154,118.101,187.217L118.101,187.217z M116.282,105.406c0.172,2.938-0.748,5.219-2.76,6.844
	c-0.116-0.125-0.259-0.281-0.431-0.469c-0.403-0.438-0.69-0.75-0.862-0.938c1.781-1.25,2.587-3.125,2.415-5.625V102.5h6.9v5.438
	c-0.058,1.063,0.431,1.563,1.466,1.5h1.121c0,0.126-0.03,0.313-0.086,0.563c-0.116,0.501-0.172,0.876-0.172,1.125h-1.639
	c-1.61,0.063-2.387-0.812-2.329-2.625v-4.313h-3.622L116.282,105.406L116.282,105.406z M116.635,180.654
	c-1.035-1.688-2.127-3.344-3.277-4.969l1.294-1.031c0.172,0.251,0.459,0.626,0.862,1.125c1.092,1.562,1.954,2.812,2.587,3.75
	L116.635,180.654z M113.694,123.687v-10.313h8.884v10.313h-1.639v-1.875h-5.606v1.875H113.694z M116.635,155.126L116.635,155.126
	c-1.783,0.062-2.645-0.844-2.587-2.719v-7.595h1.639v3.563c2.242-0.938,4.226-1.937,5.951-3l0.949,1.406
	c-2.646,1.5-4.946,2.625-6.9,3.375v1.969c0,0.938,0.488,1.406,1.466,1.406h2.156c1.035,0,1.581-0.375,1.639-1.125
	c0.114-0.75,0.201-1.595,0.258-2.531c0.632,0.313,1.15,0.501,1.553,0.563c-0.058,0.625-0.144,1.375-0.259,2.25l-0.086,0.281
	c-0.288,1.5-1.237,2.217-2.846,2.155H116.635L116.635,155.126z M116.721,143.501c-1.841,0.063-2.731-0.875-2.674-2.813v-7.312h1.639
	v3.938c2.07-0.812,3.938-1.78,5.606-2.905l0.949,1.5c-2.415,1.312-4.601,2.376-6.555,3.188v1.313
	c-0.058,1.062,0.431,1.562,1.466,1.5h2.156c0.919,0,1.466-0.438,1.639-1.313c0.114-0.812,0.201-1.625,0.258-2.438
	c0.287,0.062,0.632,0.188,1.035,0.375c0.229,0.062,0.402,0.126,0.518,0.188c-0.116,1-0.259,1.845-0.431,2.531
	c-0.23,1.5-1.151,2.25-2.76,2.25H116.721z M115.333,114.968v5.438h5.606v-5.438H115.333z M120.085,203.562h-3.967v6.845h3.967
	V203.562z M128.059,208.156c-1.265-1.188-2.387-2.188-3.364-3l1.035-1.313c1.208,0.938,2.385,1.907,3.536,2.906L128.059,208.156z
	 M128.835,179.436c-1.035,3.502-1.783,5.938-2.243,7.313l-1.811-0.844c0.977-2.499,2.012-5.687,3.105-9.563
	c0.115,0.063,0.345,0.157,0.69,0.282c0.402,0.187,0.718,0.313,0.949,0.374C129.353,177.499,129.123,178.311,128.835,179.436
	L128.835,179.436z M124.868,136.282v-1.781h20.441v1.781h-9.66l-1.035,3.094h9.487v16.313h-1.639v-1.406h-14.835v1.406h-1.639
	v-16.313h6.814l0.862-3.094H124.868z M127.887,172.592c-0.23-0.499-0.575-1.186-1.035-2.062c-0.806-1.5-1.41-2.625-1.811-3.375
	l1.552-0.75c0.574,0.938,1.351,2.312,2.329,4.125c0.287,0.501,0.488,0.876,0.604,1.124L127.887,172.592z M129.353,211.062
	c-1.035,3.375-1.841,6.188-2.415,8.438l-1.725-0.656c0.977-2.874,1.812-5.719,2.501-8.53c0.172,0.062,0.401,0.155,0.69,0.28
	C128.519,210.656,128.835,210.812,129.353,211.062L129.353,211.062z M128.922,202.062c-1.151-1.187-2.243-2.25-3.278-3.188
	l1.035-1.312c1.437,1.188,2.587,2.219,3.45,3.094L128.922,202.062z M129.633,118.531c-0.345,1.626-0.979,3.343-1.897,5.156
	c-0.058-0.063-0.145-0.126-0.259-0.188c-0.289-0.25-0.69-0.595-1.208-1.031c0.862-1.5,1.408-3,1.639-4.5
	c0.287-1.374,0.431-3.687,0.431-6.938v-8.625h17.25v5.719h-15.525v3.188C130.064,114.5,129.92,116.906,129.633,118.531
	L129.633,118.531z M127.628,140.97v11.813h3.45V140.97H127.628z M130.064,104v2.625h13.8V104H130.064z M131.79,111.875
	c-0.116,0-0.202,0-0.259,0c-0.058-0.437-0.172-0.938-0.345-1.5c4.83-0.312,9.257-0.656,13.283-1.031l0.345,1.406
	c-1.323,0.188-3.421,0.407-6.296,0.656c-0.173,0-0.317,0-0.432,0v2.25l7.245-0.563l0.172,1.406l-7.417,0.563v2.344l8.711-0.75
	l0.172,1.594l-8.884,0.656v0.75c-0.116,1.312,0.518,1.906,1.898,1.781h2.932c1.15,0.062,1.753-0.313,1.812-1.125
	c0.057-0.188,0.143-0.656,0.259-1.406c0.574,0.188,1.121,0.375,1.639,0.562c-0.058,0.563-0.173,1.094-0.345,1.594
	c-0.23,1.374-1.237,2.03-3.019,1.969h-3.709c-2.186,0.062-3.249-0.97-3.191-3.094v-0.844l-6.124,0.469l-0.172-1.5l6.296-0.563v-2.25
	l-5.002,0.375l-0.173-1.5l5.175-0.375v-2.25C135.326,111.625,133.801,111.75,131.79,111.875L131.79,111.875z M145.482,217.531
	c-0.345,0.562-0.634,1.154-0.863,1.781c-4.888-1.627-7.935-4.688-9.143-9.188h-2.587v6.938c1.553-0.375,2.989-0.905,4.313-1.595
	c0,0.688,0.028,1.281,0.086,1.781c-1.035,0.312-2.531,0.938-4.485,1.875c-0.23,0.062-0.634,0.249-1.208,0.563l-0.949-1.595
	c0.401-0.438,0.604-0.938,0.604-1.5v-16.78h5.348c-0.058-0.313-0.173-0.781-0.345-1.406c-0.116-0.438-0.202-0.75-0.259-0.938
	l1.812-0.28c0.114,0.312,0.259,0.812,0.431,1.5c0.115,0.5,0.201,0.875,0.259,1.125h5.175v10.312h-6.469
	c0.518,1.375,1.15,2.594,1.897,3.656c1.609-0.999,3.133-2.063,4.571-3.188l1.121,1.406c-1.265,0.876-2.818,1.844-4.657,2.906
	C141.398,216.094,143.181,216.969,145.482,217.531L145.482,217.531z M137.029,187.686v-7.594h-3.968v1.125h-1.639v-11.438h5.606
	v-4.499h1.725v4.499h5.692v11.438h-1.725v-1.125h-3.967v7.594H137.029z M132.717,140.97v3h4.657v-3H132.717z M132.717,145.376v3
	h4.657v-3H132.717z M132.717,149.876v2.906h4.657v-2.906H132.717z M132.889,201.406v2.719h9.143v-2.719H132.889z M132.889,208.531
	h9.143v-2.906h-9.143V208.531z M133.062,171.561v6.845h3.968v-6.845H133.062z M142.722,171.561h-3.967v6.845h3.967V171.561z
	 M142.463,140.97h-3.45v11.813h3.45V140.97z M149.92,219.688v-12.844c-0.69,1.252-1.41,2.406-2.156,3.469
	c-0.116-0.312-0.23-0.75-0.345-1.312c-0.116-0.438-0.202-0.75-0.259-0.938c2.012-3.125,3.564-6.688,4.658-10.688l1.725,0.375
	c-0.633,2.001-1.293,3.844-1.983,5.531v16.405h-1.64V219.688z M150.696,176.154c-1.265-1.188-2.387-2.188-3.364-3l1.035-1.313
	c1.208,0.938,2.385,1.907,3.536,2.906L150.696,176.154z M147.591,136.938v-1.594h4.313v-2.156h1.639v2.156h4.227v1.594h-4.227v2.25
	h3.623v8.906h-3.623v2.344h4.227v1.595h-4.227v3.655h-1.639v-3.655h-4.485v-1.595h4.485v-2.344h-3.623v-8.906h3.623v-2.25H147.591z
	 M151.99,179.061c-1.035,3.375-1.841,6.188-2.415,8.438l-1.725-0.656c0.977-2.874,1.812-5.719,2.501-8.53
	c0.172,0.062,0.401,0.156,0.69,0.28C151.156,178.655,151.472,178.812,151.99,179.061L151.99,179.061z M151.559,170.061
	c-1.151-1.186-2.243-2.248-3.278-3.187l1.035-1.313c1.437,1.188,2.587,2.22,3.45,3.095L151.559,170.061z M149.833,140.688v2.25
	h5.779v-2.25H149.833z M149.833,144.251v2.344h5.779v-2.344H149.833z M150.315,123.406v-18.281h2.329
	c0.173-0.624,0.402-1.531,0.69-2.719c0.114-0.5,0.201-0.844,0.258-1.031l1.812,0.281c-0.345,1.375-0.662,2.531-0.949,3.469h4.054
	v18.094h-1.725v-1.781h-4.744v1.969L150.315,123.406L150.315,123.406z M153.37,203.656v-1.688h5.865v-4.594h1.725v4.594h6.382v1.688
	h-5.434c1.38,4.125,3.507,7.469,6.383,10.031c-0.403,0.5-0.748,1.094-1.035,1.78c-2.99-3-5.089-6.594-6.296-10.78v8.905h3.363v1.688
	h-3.363v4.406h-1.725v-4.406h-3.364v-1.688h3.364v-8.905c-1.324,4.562-3.394,8.281-6.21,11.155c-0.23-0.437-0.604-0.999-1.122-1.688
	c2.989-2.874,5.117-6.375,6.383-10.5L153.37,203.656L153.37,203.656z M152.041,106.812v5.625h4.744v-5.625H152.041z
	 M152.041,114.125v5.719h4.744v-5.719H152.041z M168.119,185.529c-0.345,0.562-0.634,1.156-0.863,1.781
	c-4.888-1.627-7.935-4.688-9.143-9.188h-2.587v6.938c1.553-0.375,2.989-0.905,4.313-1.595c0,0.688,0.028,1.282,0.086,1.781
	c-1.035,0.313-2.531,0.938-4.485,1.875c-0.23,0.062-0.634,0.249-1.208,0.563l-0.949-1.595c0.401-0.438,0.604-0.938,0.604-1.5v-16.78
	h5.348c-0.058-0.312-0.173-0.78-0.345-1.405c-0.116-0.438-0.202-0.75-0.259-0.938l1.812-0.281c0.114,0.313,0.259,0.813,0.431,1.5
	c0.114,0.502,0.201,0.877,0.259,1.125h5.175v10.312h-6.469c0.518,1.376,1.149,2.595,1.897,3.656
	c1.609-0.999,3.133-2.063,4.571-3.188l1.121,1.406c-1.265,0.876-2.818,1.845-4.657,2.905
	C164.035,184.093,165.818,184.967,168.119,185.529L168.119,185.529z M155.526,169.405v2.718h9.143v-2.718H155.526z M155.526,176.529
	h9.143v-2.906h-9.143V176.529z M160.787,148.188c-0.116,2.875-1.093,5.375-2.933,7.5c-0.116-0.125-0.375-0.312-0.776-0.562
	c-0.289-0.188-0.518-0.345-0.69-0.469c1.264-1.376,2.07-2.75,2.415-4.125c0.345-1.313,0.517-3.5,0.517-6.563v-9.562h7.763v18.28
	c0.057,1.625-0.662,2.5-2.156,2.625c-0.862,0-1.697,0-2.501,0l-0.345-1.78c0.574,0,1.208,0,1.897,0
	c1.091,0.124,1.581-0.313,1.466-1.313v-4.031h-4.657V148.188z M165.582,123.218c-1.208,0-2.415,0-3.622,0
	c-0.058-0.25-0.116-0.625-0.173-1.125c-0.116-0.312-0.172-0.562-0.172-0.75c1.092,0,2.243,0,3.45,0
	c1.667,0.125,2.501-0.687,2.501-2.438c0.172-5.562,0.259-9.593,0.259-12.094h-5.52c-0.576,1.375-1.151,2.625-1.725,3.75
	c-0.461-0.375-0.949-0.718-1.466-1.031c1.208-2.124,2.271-4.875,3.191-8.25l1.725,0.469c-0.116,0.501-0.317,1.188-0.604,2.063
	c-0.23,0.563-0.375,0.97-0.431,1.219h6.641c0,0.312,0,0.812,0,1.5c-0.116,5.812-0.23,10.031-0.345,12.656
	C169.232,121.812,167.997,123.155,165.582,123.218L165.582,123.218z M164.115,116.656c-1.035-1.688-2.128-3.343-3.277-4.969
	l1.294-1.031c0.172,0.25,0.459,0.625,0.862,1.125c1.092,1.562,1.954,2.812,2.587,3.75L164.115,116.656z M160.96,144.062
	c0,0.313-0.03,0.75-0.086,1.313c0,0.501,0,0.876,0,1.125h4.571v-4.313h-4.485V144.062z M160.96,136.188v4.313h4.485v-4.313H160.96z
	 M170.218,171.468v-1.595h2.501v-4.499h1.552v4.499h2.156v1.595h-2.156v2.999l0.173-0.188c0.401,0.375,1.005,0.97,1.811,1.781
	c0.402,0.375,0.69,0.655,0.862,0.844l-0.949,1.5c-0.403-0.563-1.035-1.313-1.897-2.25v11.531h-1.552v-12.188
	c-0.69,2.376-1.496,4.438-2.415,6.188l-0.518-2.345c1.092-1.999,2.07-4.594,2.933-7.78v-0.094L170.218,171.468L170.218,171.468z
	 M173.409,213.969c-1.496,0.313-2.646,0.563-3.45,0.75l-0.086-1.781c1.495-0.188,3.105-0.437,4.83-0.75c0,0.502,0,1.031,0,1.595
	C174.415,213.844,173.983,213.907,173.409,213.969L173.409,213.969z M173.15,144.062c-1.266-1.25-2.329-2.218-3.191-2.905
	l1.122-1.313c1.208,0.876,2.299,1.781,3.277,2.719L173.15,144.062z M174.013,219.219c-0.748,0-1.524,0-2.329,0
	c0-0.562-0.086-1.156-0.259-1.781c0.518,0.062,1.322,0.095,2.415,0.095c1.208,0.062,1.782-0.438,1.725-1.5
	c0.172-1.438,0.259-3.53,0.259-6.281h-5.175l0.517-8.344h1.553l-0.431,6.655h2.329l0.604-7.969h-4.916V198.5h6.555l-0.69,9.562
	h1.294c-0.058,1.188-0.144,3.188-0.259,6c-0.058,1.063-0.086,1.813-0.086,2.25C177.118,218.249,176.083,219.219,174.013,219.219
	L174.013,219.219z M174.099,147.438c-0.69,2.752-1.323,5.471-1.897,8.156l-1.811-0.562c0.632-2.312,1.322-5.063,2.07-8.25
	c0.172,0.062,0.459,0.156,0.862,0.281C173.668,147.251,173.927,147.377,174.099,147.438L174.099,147.438z M173.84,137.876
	c-1.323-1.313-2.387-2.312-3.191-3l1.121-1.313c0.229,0.188,0.574,0.502,1.035,0.938c0.977,0.813,1.725,1.469,2.242,1.969
	L173.84,137.876z M172.896,108.875v-1.781h2.674V102.5h1.725v4.594h4.14v-5.625h1.725v5.625h5.52v-5.625h1.725v5.625h2.932v1.781
	h-2.932v8.156h-8.97v-8.156h-4.14v12.094h15.611v1.781H175.57v-13.875H172.896z M178.67,136.938
	c-0.806,1.375-1.811,2.752-3.019,4.125c-0.345-0.5-0.72-0.969-1.122-1.405c1.782-1.688,3.22-3.875,4.313-6.563l1.725,0.281
	c-0.345,0.625-0.662,1.281-0.949,1.969H190.4v1.594H178.67L178.67,136.938z M174.703,146.407v-1.595h2.156l0.604-5.719h11.471
	l-0.086,5.719h2.07v1.595h-2.156c0,1.5-0.058,2.905-0.173,4.219h1.725v1.594h-1.725c-0.116,2.25-1.265,3.343-3.45,3.281
	c-0.862,0-1.841,0-2.933,0c-0.058-0.188-0.116-0.469-0.172-0.844c-0.116-0.375-0.202-0.656-0.259-0.845
	c0.919,0.062,1.897,0.095,2.933,0.095c1.38,0.062,2.126-0.501,2.242-1.688h-10.954l0.604-5.812L174.703,146.407L174.703,146.407z
	 M177.635,179.248v-7.874h11.558v7.874h-5.002c0,0.75-0.058,1.438-0.172,2.062h6.469v1.5h-6.038c0.919,1.627,3.019,2.625,6.296,3
	c-0.23,0.5-0.461,1.063-0.69,1.688c-3.45-0.688-5.722-2.001-6.813-3.938c-0.92,1.875-3.191,3.313-6.814,4.313
	c-0.23-0.563-0.517-1.125-0.862-1.688c3.564-0.75,5.692-1.875,6.382-3.375h-5.865v-1.5h6.296c0.056-0.248,0.086-0.593,0.086-1.03
	c0.057-0.438,0.086-0.78,0.086-1.031L177.635,179.248L177.635,179.248z M185.226,170.53v-1.688h-3.709v1.688h-1.639v-1.688h-3.45
	v-1.406h3.45v-2.156h1.639v2.156h3.709v-2.156h1.552v2.156h3.623v1.406h-3.623v1.688H185.226z M190.918,204.688
	c-0.345,0.563-0.633,1.125-0.863,1.688c-2.473-1.688-4.457-3.844-5.951-6.469c-1.438,2.5-3.45,4.75-6.038,6.75
	c-0.058-0.188-0.202-0.47-0.431-0.845c-0.172-0.375-0.316-0.655-0.431-0.844c2.989-2.062,5.146-4.654,6.469-7.781l1.725,0.188
	c-0.172,0.375-0.345,0.72-0.518,1.031C186.489,201.157,188.503,203.25,190.918,204.688L190.918,204.688z M187.037,150.626
	c0.057-0.437,0.086-1.125,0.086-2.063c0.057-0.998,0.086-1.719,0.086-2.155h-8.884l-0.518,4.219H187.037z M177.894,218.562v-1.594
	h7.59c1.035-3.248,1.811-5.968,2.329-8.156l1.552,0.47c-0.748,2.625-1.552,5.188-2.415,7.688h3.364v1.595h-12.42V218.562z
	 M178.929,140.688l-0.431,4.125h8.711v-4.125H178.929z M180.223,215.75c-0.345-1.749-0.892-3.812-1.639-6.188l1.466-0.375
	c0.172,0.688,0.229,0.938,0.172,0.75c0.69,2.312,1.178,4.094,1.466,5.344L180.223,215.75z M179.188,172.779v1.875h8.366v-1.875
	H179.188z M179.188,175.967v1.875h8.366v-1.875H179.188z M179.706,207.125v-1.594h8.539v1.594H179.706z M183.414,150.251
	c-0.172-0.125-0.431-0.343-0.776-0.656c-0.69-0.624-1.265-1.125-1.725-1.5l0.862-1.03c0.69,0.5,1.553,1.188,2.587,2.062
	L183.414,150.251z M183.673,144.345c-0.806-0.812-1.639-1.53-2.501-2.155l0.862-1.031c0.69,0.501,1.553,1.188,2.587,2.062
	L183.673,144.345z M183.932,214.625c-0.289-1.938-0.69-3.844-1.208-5.719l1.466-0.281c0.459,1.875,0.862,3.75,1.208,5.625
	L183.932,214.625z M183.159,108.875v6.375h5.52v-6.375H183.159z M192.769,171.468v-1.688h2.587v-4.405h1.639v4.405h2.243v1.688
	h-2.243v4.78l2.415-0.75c0,0.626,0,1.219,0,1.781c-0.403,0.126-1.007,0.312-1.812,0.562c-0.288,0.063-0.489,0.126-0.604,0.188v6.655
	c0.057,1.813-0.69,2.72-2.243,2.72c-0.575,0-1.151,0-1.725,0c-0.058-0.313-0.116-0.688-0.173-1.125
	c-0.058-0.313-0.086-0.563-0.086-0.75c0.459,0,0.949,0,1.466,0c0.804,0.062,1.178-0.313,1.121-1.125v-5.906
	c-0.345,0.126-0.863,0.313-1.553,0.563c-0.517,0.188-0.892,0.312-1.121,0.375l-0.172-1.97c0.345-0.124,0.919-0.28,1.725-0.469
	c0.459-0.124,0.833-0.218,1.121-0.281v-5.249L192.769,171.468L192.769,171.468z M193.544,155.595v-17.344h1.639v17.344H193.544z
	 M197.081,137.501c-0.289-0.313-0.72-0.812-1.294-1.5c-0.633-0.688-1.121-1.219-1.466-1.594l1.294-1.031c1.035,1,1.954,2.001,2.76,3
	L197.081,137.501z M198.202,218.938c-1.841-0.188-2.876-1.281-3.105-3.28c0.172-2.124,1.208-3.281,3.105-3.47
	c1.954,0.188,3.019,1.346,3.191,3.47C201.221,217.655,200.156,218.75,198.202,218.938L198.202,218.938z M198.375,145.47
	c-0.92-0.875-1.783-1.625-2.587-2.25l0.949-1.125c0.345,0.25,0.805,0.595,1.38,1.031c0.574,0.501,1.005,0.876,1.294,1.125
	L198.375,145.47z M209.275,123.593v-7.406H211c-1.496-0.812-2.99-2.03-4.485-3.656h-0.345c-1.265,1.312-2.731,2.531-4.398,3.656
	h1.639c0.057,0.938,0,1.781-0.172,2.531c-0.23,2.001-1.583,3.688-4.054,5.063c-0.116-0.063-0.259-0.188-0.431-0.375
	c-0.116-0.126-0.432-0.407-0.949-0.844c2.243-1.125,3.479-2.405,3.709-3.844c0.172-0.687,0.229-1.531,0.172-2.531
	c-1.438,0.938-3.105,1.781-5.002,2.531c-0.058-0.188-0.202-0.469-0.431-0.844c-0.172-0.375-0.317-0.624-0.431-0.75
	c3.392-1.25,6.094-2.78,8.107-4.594h-5.951v-10.219h16.732v10.219h-6.038c1.782,1.75,4.485,3.126,8.107,4.125
	c-0.058,0.126-0.144,0.312-0.259,0.562c-0.288,0.501-0.461,0.876-0.518,1.125c-1.955-0.624-3.622-1.343-5.002-2.156v7.406H209.275z
	 M198.461,150.345c-0.403,1.375-0.72,2.313-0.949,2.813l-1.553-0.469c0.632-1.438,1.322-3.438,2.07-6
	c0.518,0.25,1.005,0.469,1.466,0.656C199.266,147.97,198.92,148.971,198.461,150.345L198.461,150.345z M198.202,213.594
	c-1.093,0.126-1.697,0.813-1.811,2.063c0.114,1.062,0.718,1.655,1.811,1.78c1.149-0.125,1.782-0.718,1.897-1.78
	C199.984,214.406,199.352,213.72,198.202,213.594L198.202,213.594z M199.151,141.345c-0.92-0.875-1.697-1.594-2.329-2.155
	l0.949-1.031c0.862,0.626,1.667,1.312,2.415,2.062L199.151,141.345z M199.615,103.906v2.812h5.865v-2.812H199.615z M199.615,108.125
	v2.813h5.865v-2.813H199.615z M201.479,184.311c-0.23,0.313-0.403,0.532-0.518,0.656l-1.121-1.406
	c0.518-0.562,0.747-1.312,0.69-2.25v-14.343h1.639v14.343c0.69-0.562,1.667-1.468,2.933-2.719c0.115-0.124,0.201-0.218,0.259-0.281
	c0.115,0.627,0.259,1.282,0.431,1.97c-1.151,1.001-2.415,2.155-3.795,3.469C201.881,183.874,201.709,184.062,201.479,184.311
	L201.479,184.311z M202.342,139.938c-0.69,0.063-1.237,0.095-1.639,0.095l-0.259-1.5c2.875-0.062,5.693-0.188,8.453-0.375l0.259,1.5
	c-0.403,0-1.006,0.032-1.811,0.094c-0.806,0-1.41,0.032-1.812,0.094v2.72h4.227v1.5h-4.227v2.625h3.364v6.28h-8.194v-6.28h3.278
	v-2.625h-3.968v-1.5h3.968v-2.625C203.636,139.938,203.089,139.938,202.342,139.938L202.342,139.938z M209.932,155.407
	c-0.461,0.062-1.266,0.094-2.415,0.094c0-0.626-0.116-1.219-0.345-1.781c0.747,0,1.495,0,2.243,0
	c1.035,0.062,1.523-0.407,1.466-1.405v-16.125H200.1v-1.595h12.42v17.906C212.576,154.438,211.714,155.407,209.932,155.407
	L209.932,155.407z M202.169,148.188v3.375h5.175v-3.375H202.169z M212.347,187.029c-0.345-0.502-0.834-1.188-1.466-2.063
	c-0.748-1.125-1.323-1.969-1.725-2.53c-0.92,1.75-2.559,3.529-4.916,5.344c-0.345-0.563-0.748-1.063-1.208-1.5
	c4.14-2.499,6.21-6.405,6.21-11.719c0.114-2.938,0.172-5.905,0.172-8.905h1.639c0,2.438,0,4.218,0,5.343
	c-0.058,1.312-0.116,2.531-0.172,3.656c-0.058,2.438-0.403,4.438-1.035,6c0.518,0.688,1.264,1.656,2.243,2.906
	c0.747,1,1.294,1.719,1.639,2.155L212.347,187.029z M205.965,171.842c-0.058-0.124-0.116-0.281-0.173-0.468
	c-0.862-2.124-1.61-3.844-2.242-5.156l1.38-0.655c0.459,0.875,1.091,2.188,1.897,3.938c0.287,0.688,0.518,1.218,0.69,1.593
	L205.965,171.842z M212.984,103.906h-5.865v2.812h5.865V103.906z M207.119,108.125v2.813h5.865v-2.813H207.119z M215.827,175.967
	v-1.5h8.625c0.057-0.249,0.114-0.623,0.172-1.125c0.057-0.248,0.086-0.436,0.086-0.562h1.725c-0.058,0.626-0.145,1.188-0.259,1.688
	h3.795c-0.058-0.124-0.145-0.312-0.259-0.562c-0.172-0.375-0.317-0.656-0.431-0.844l1.552-0.375c0.229,0.5,0.518,1.095,0.862,1.78
	h3.881v1.5h-8.366c1.208,1.751,4.14,2.657,8.797,2.72c-0.058,0.125-0.144,0.312-0.258,0.562c-0.173,0.501-0.289,0.844-0.345,1.031
	c-5.405-0.312-8.683-1.688-9.833-4.125c-0.576,2.062-3.825,3.501-9.746,4.312c-0.116-0.248-0.259-0.656-0.431-1.219
	c-0.058-0.188-0.116-0.312-0.173-0.375c5.175-0.562,8.078-1.53,8.711-2.906H215.827L215.827,175.967z M216.603,136.562v-1.875
	h18.112v1.875h-8.194c0,2.5-0.03,4.375-0.086,5.625h9.401v1.875h-9.056c0.977,4.813,4.054,7.938,9.229,9.375
	c-0.23,0.312-0.489,0.719-0.776,1.22c-0.172,0.312-0.289,0.53-0.345,0.655c-5.175-1.875-8.28-5.062-9.315-9.562
	c-0.748,4.188-3.767,7.468-9.056,9.844c-0.461-0.75-0.862-1.312-1.208-1.688c5.462-2.375,8.481-5.656,9.056-9.844h-8.97v-1.875
	h9.142c0.115-2.188,0.173-4.063,0.173-5.625H216.603L216.603,136.562z M216.862,172.405v-5.906h7.417v5.906H216.862z
	 M216.948,187.686v-7.03h7.417v6.938h-1.552v-1.03H218.5v1.125h-1.552V187.686z M218.414,167.905v3.093h4.313v-3.093H218.414z
	 M218.5,182.154v3h4.313v-3H218.5z M220.297,116.281c-0.172,0-0.288,0-0.345,0l-0.604-1.688c0.402-0.188,0.919-0.75,1.553-1.688
	c0.632-0.812,1.264-1.781,1.897-2.906c-1.151,0.063-2.243,0.157-3.277,0.281l-0.518-1.688c0.345-0.375,0.747-0.968,1.208-1.781
	c0.804-1.313,1.695-3.094,2.673-5.344l1.725,0.656c-0.058,0.126-0.144,0.281-0.259,0.469c-1.438,2.625-2.559,4.594-3.364,5.906
	c0.229,0,0.632,0,1.208,0c0.747-0.062,1.294-0.094,1.639-0.094c0.172-0.312,0.431-0.781,0.776-1.406
	c0.287-0.563,0.518-0.999,0.69-1.313l1.553,0.75c-1.093,1.875-2.79,4.532-5.089,7.969c0.402,0,1.035-0.062,1.897-0.188
	c0.977-0.062,1.695-0.125,2.156-0.188c-0.116,0.75-0.172,1.282-0.172,1.594C223.804,115.812,222.022,116.032,220.297,116.281
	L220.297,116.281z M225.559,120.218c-2.013,0.313-4.054,0.719-6.124,1.219l-0.345-1.688c0.69-0.125,1.868-0.375,3.537-0.75
	c1.264-0.249,2.242-0.437,2.932-0.563C225.559,119,225.559,119.594,225.559,120.218L225.559,120.218z M234.356,119.656
	c-1.38,1.437-3.048,2.78-5.002,4.031c-0.23-0.313-0.604-0.844-1.121-1.594c2.243-1.25,3.881-2.531,4.917-3.844
	c-1.438-1.937-2.531-4.219-3.278-6.844c-0.172,4.688-1.496,8.657-3.967,11.906c-0.116-0.126-0.345-0.344-0.69-0.656
	c-0.289-0.313-0.518-0.532-0.69-0.656c1.495-1.937,2.501-3.938,3.019-6c0.574-2.063,0.862-5.156,0.862-9.281v-2.438h-1.811v-1.688
	h10.609v1.781l-2.07,4.688h3.623v1.688c-0.806,2.938-1.897,5.438-3.277,7.5c1.208,1.313,2.702,2.438,4.485,3.375
	c-0.345,0.563-0.69,1.156-1.035,1.781C237.086,122.155,235.563,120.907,234.356,119.656L234.356,119.656z M226.78,172.405v-5.906
	h7.504v5.906H226.78z M232.731,187.686v-1.125h-4.399v1.031h-1.552v-6.938h7.504v7.031H232.731L232.731,187.686z M228.333,167.905
	v3.093h4.399v-3.093H228.333z M228.333,182.154v3h4.399v-3H228.333z M230.044,106.062c0,0.501,0,1.031,0,1.594
	c1.091,3.938,2.501,7,4.226,9.188c1.091-1.688,2.012-3.718,2.76-6.094h-3.622v-1.781l2.07-4.688h-5.434V106.062z M246.657,140.782
	c-2.301,1.75-4.888,3.469-7.763,5.155c-0.058-0.125-0.145-0.312-0.259-0.562c-0.23-0.438-0.431-0.781-0.604-1.031
	c2.644-1.438,5.117-3.125,7.417-5.062L246.657,140.782L246.657,140.782z M238.032,186.373v-1.781h8.28v-19.029h1.897v6.937h8.711
	v1.875h-8.711v10.219h10.35v1.781L238.032,186.373L238.032,186.373z M240.792,147.157v-1.781h14.921v1.781h-6.555v5.812h8.798v1.595
	H238.55v-1.595h8.883v-5.812H240.792z M238.636,140.688v-4.594h9.143c-0.23-0.875-0.518-1.719-0.862-2.531l1.897-0.375
	c0.114,0.313,0.287,0.813,0.518,1.5c0.172,0.563,0.315,0.971,0.431,1.22l-0.69,0.188h8.884v4.595h-1.812v-2.813h-15.784v2.813
	h-1.725V140.688z M245.465,112.062c-1.266-1.25-2.329-2.218-3.191-2.906l1.122-1.313c1.207,0.876,2.299,1.781,3.277,2.719
	L245.465,112.062z M246.414,115.437c-0.69,2.751-1.324,5.47-1.897,8.156l-1.811-0.563c0.632-2.312,1.322-5.063,2.07-8.25
	c0.172,0.063,0.459,0.157,0.862,0.281C245.982,115.25,246.241,115.375,246.414,115.437L246.414,115.437z M246.155,105.875
	c-1.323-1.313-2.387-2.312-3.191-3l1.121-1.313c0.229,0.188,0.574,0.501,1.035,0.938c0.977,0.813,1.725,1.469,2.243,1.969
	L246.155,105.875z M250.985,104.937c-0.806,1.375-1.812,2.751-3.019,4.125c-0.345-0.5-0.719-0.968-1.121-1.406
	c1.782-1.688,3.22-3.875,4.313-6.563l1.725,0.281c-0.345,0.625-0.662,1.282-0.949,1.969h10.781v1.594H250.985L250.985,104.937z
	 M247.017,114.406v-1.594h2.156l0.604-5.719h11.471l-0.086,5.719h2.07v1.594h-2.156c0,1.5-0.058,2.906-0.172,4.219h1.725v1.594
	h-1.725c-0.116,2.25-1.266,3.343-3.45,3.281c-0.862,0-1.841,0-2.933,0c-0.058-0.188-0.116-0.469-0.172-0.844
	c-0.116-0.375-0.202-0.656-0.259-0.844c0.919,0.062,1.897,0.094,2.933,0.094c1.38,0.062,2.126-0.501,2.242-1.688h-10.954
	l0.604-5.813h-1.898V114.406z M257.611,145.938c-2.646-1.875-5.175-3.594-7.59-5.155l0.948-1.406c2.76,1.688,5.29,3.313,7.59,4.875
	L257.611,145.938z M259.351,118.625c0.057-0.437,0.086-1.125,0.086-2.063c0.057-0.999,0.086-1.718,0.086-2.156h-8.884l-0.518,4.219
	H259.351z M251.244,108.687l-0.431,4.125h8.711v-4.125H251.244z M255.729,118.25c-0.172-0.125-0.431-0.343-0.776-0.656
	c-0.69-0.624-1.265-1.125-1.725-1.5l0.862-1.031c0.69,0.501,1.552,1.188,2.587,2.063L255.729,118.25z M255.987,112.343
	c-0.806-0.812-1.639-1.531-2.501-2.156l0.862-1.031c0.69,0.501,1.552,1.188,2.587,2.062L255.987,112.343z M261.263,155.407v-18.281
	h2.329c0.173-0.624,0.402-1.53,0.69-2.719c0.115-0.5,0.201-0.845,0.259-1.031l1.812,0.281c-0.345,1.375-0.662,2.53-0.949,3.469
	h4.054v18.094h-1.725v-1.78h-4.744v1.969L261.263,155.407L261.263,155.407z M262.988,138.812v5.625h4.744v-5.625H262.988z
	 M262.988,146.126v5.719h4.744v-5.719H262.988z M266.61,183.561c0,2.188-0.748,3.812-2.243,4.875l-0.776-0.844
	c1.035-0.812,1.581-2.031,1.639-3.656h-1.466v-3.094h2.846C266.61,181.343,266.61,182.248,266.61,183.561L266.61,183.561z
	 M268.821,112.156c-1.265-1.188-2.387-2.188-3.364-3l1.035-1.313c1.208,0.938,2.385,1.907,3.536,2.906L268.821,112.156z
	 M270.115,115.062c-1.035,3.375-1.841,6.188-2.415,8.438l-1.725-0.656c0.977-2.874,1.812-5.719,2.501-8.531
	c0.172,0.063,0.401,0.157,0.69,0.281C269.28,114.656,269.597,114.813,270.115,115.062L270.115,115.062z M269.684,106.062
	c-1.151-1.187-2.243-2.25-3.278-3.188l1.035-1.313c1.437,1.188,2.587,2.219,3.45,3.094L269.684,106.062z M276.529,155.22
	c-1.208,0-2.415,0-3.623,0c-0.058-0.251-0.116-0.626-0.172-1.125c-0.116-0.312-0.172-0.562-0.172-0.75c1.092,0,2.243,0,3.45,0
	c1.667,0.124,2.501-0.688,2.501-2.438c0.172-5.563,0.259-9.595,0.259-12.095h-5.52c-0.575,1.375-1.151,2.625-1.725,3.75
	c-0.461-0.375-0.949-0.718-1.466-1.03c1.208-2.124,2.271-4.875,3.191-8.25l1.725,0.469c-0.116,0.501-0.317,1.188-0.604,2.063
	c-0.23,0.562-0.375,0.97-0.431,1.219h6.642c0,0.312,0,0.812,0,1.5c-0.116,5.812-0.23,10.031-0.345,12.656
	C280.18,153.812,278.944,155.156,276.529,155.22L276.529,155.22z M286.244,121.531c-0.345,0.562-0.634,1.156-0.863,1.781
	c-4.888-1.626-7.935-4.688-9.143-9.188h-2.587v6.938c1.553-0.375,2.989-0.905,4.313-1.594c0,0.688,0.028,1.282,0.086,1.781
	c-1.035,0.312-2.531,0.938-4.485,1.875c-0.23,0.062-0.633,0.249-1.208,0.563l-0.949-1.594c0.402-0.438,0.604-0.938,0.604-1.5
	v-16.781h5.348c-0.058-0.312-0.173-0.781-0.345-1.406c-0.116-0.438-0.202-0.75-0.259-0.938l1.812-0.281
	c0.114,0.313,0.259,0.813,0.431,1.5c0.114,0.501,0.201,0.876,0.259,1.125h5.175v10.313h-6.469c0.518,1.375,1.149,2.594,1.897,3.656
	c1.609-0.999,3.133-2.063,4.571-3.188l1.122,1.406c-1.266,0.876-2.818,1.844-4.658,2.906
	C282.16,120.094,283.943,120.968,286.244,121.531L286.244,121.531z M275.063,148.657c-1.035-1.688-2.128-3.343-3.277-4.97
	l1.294-1.03c0.172,0.25,0.459,0.625,0.862,1.125c1.092,1.562,1.954,2.812,2.587,3.75L275.063,148.657z M273.651,105.406v2.719h9.143
	v-2.719H273.651z M273.651,112.531h9.143v-2.906h-9.143V112.531z M285.366,146.688c-0.23,0.313-0.806,0.938-1.725,1.875
	c-0.288-0.938-0.489-1.625-0.604-2.062c2.012-1.688,3.708-3.938,5.089-6.75h-4.658v-1.688h6.382v1.78
	c-0.69,1.438-1.41,2.72-2.156,3.845v12h-1.552v-9.845C285.969,146.032,285.711,146.312,285.366,146.688L285.366,146.688z
	 M283.986,187.779v-21.094h5.606v1.781l-1.639,6.094c1.149,1.5,1.695,3.312,1.639,5.438c0.057,1.938-0.604,3.032-1.983,3.281
	c-0.403,0.062-0.834,0.094-1.294,0.094c-0.116-0.624-0.259-1.219-0.431-1.781c0.459,0,0.833,0,1.121,0
	c0.863,0,1.264-0.593,1.208-1.781c0.057-1.562-0.489-3.248-1.639-5.062l1.639-6.468h-2.76v19.499H283.986z M287.091,137.782
	c-0.69-1.5-1.323-2.72-1.897-3.656l1.466-0.75c0.287,0.438,0.747,1.281,1.38,2.531c0.287,0.501,0.488,0.876,0.604,1.125
	L287.091,137.782z M290.196,148.001c-0.116-0.188-0.345-0.5-0.69-0.938c-0.69-0.938-1.208-1.594-1.553-1.969l1.035-1.031
	c0.401,0.375,0.977,1.031,1.725,1.97c0.345,0.438,0.574,0.719,0.69,0.844L290.196,148.001z M291.748,184.686
	c-0.748,0.688-1.582,1.625-2.501,2.813l-1.121-1.406c0.459-0.562,1.149-1.28,2.07-2.155c0.401-0.438,0.69-0.75,0.862-0.938v-8.063
	h-1.552v-1.688h3.019v9.844c0.977,1.626,2.674,2.405,5.089,2.344c2.702,0,4.858-0.031,6.469-0.094
	c-0.172,0.624-0.317,1.219-0.431,1.781c-2.876,0-4.975-0.032-6.296-0.094C294.767,187.091,292.898,186.311,291.748,184.686
	L291.748,184.686z M289.503,108.031v-1.875c0.459-0.812,0.977-2.156,1.552-4.031l1.725,0.375c-0.345,1.063-0.834,2.344-1.466,3.844
	h4.571c0.345-1.562,0.66-3.281,0.949-5.156l1.812,0.281c-0.289,1.626-0.604,3.25-0.949,4.875h11.644v1.688h-12.075
	c-0.116,0.438-0.288,1.031-0.518,1.781c-0.172,0.563-0.288,1-0.345,1.313h10.609v1.5c-1.035,2.688-2.531,4.875-4.485,6.563
	c1.437,1,3.679,1.781,6.728,2.344c-0.229,0.375-0.517,1.031-0.862,1.969c-2.933-0.813-5.406-1.875-7.417-3.188
	c-1.783,1.125-4.399,2.281-7.849,3.469c-0.289-0.75-0.604-1.375-0.949-1.875c3.392-0.876,5.835-1.781,7.332-2.719
	c-1.783-1.749-3.077-3.75-3.881-6c-1.552,3.625-3.623,6.75-6.21,9.375c-0.345-0.876-0.662-1.438-0.949-1.688
	c3.334-3.5,5.663-7.781,6.986-12.844L289.503,108.031L289.503,108.031z M299.597,155.032c-1.725,0.062-2.56-0.845-2.501-2.72v-4.875
	c-0.575,3.063-2.876,5.813-6.9,8.25c-0.173-0.312-0.576-0.812-1.208-1.5c4.887-2.438,7.245-6.062,7.072-10.875
	c0.115-1.937,0.173-3.718,0.173-5.344h1.639c0,1.438-0.058,3.221-0.173,5.344c-0.058,1.188-0.202,2.313-0.431,3.375h1.466v5.438
	c-0.058,0.874,0.374,1.28,1.294,1.219h0.69c0.862,0.062,1.35-0.312,1.466-1.125c0.057-0.5,0.143-1.438,0.259-2.812l1.552,0.562
	c0,0.188-0.03,0.501-0.086,0.938c-0.058,0.75-0.116,1.375-0.173,1.875c-0.289,1.562-1.237,2.312-2.846,2.25L299.597,155.032
	L299.597,155.032z M291.662,170.904c-0.289-1.249-0.748-2.873-1.38-4.874l1.38-0.375c0.287,0.75,0.718,2.095,1.293,4.03
	c0.115,0.375,0.201,0.625,0.259,0.75L291.662,170.904z M291.748,148.282v-13.97h10.695v13.595h-1.639v-11.813h-7.417v12.188H291.748
	z M295.198,184.123v-9.562c-0.461,0.75-1.007,1.47-1.639,2.155c-0.058-0.062-0.145-0.249-0.259-0.563
	c-0.172-0.498-0.317-0.844-0.431-1.03c1.494-1.687,2.702-3.623,3.623-5.812h-2.501v-1.5h3.019c0.173-0.438,0.431-1.125,0.776-2.063
	c0.057-0.249,0.086-0.406,0.086-0.47l1.552,0.281c-0.058,0.188-0.144,0.438-0.259,0.75c-0.23,0.688-0.403,1.188-0.517,1.5h5.002v1.5
	h-5.52c-0.345,0.75-0.69,1.469-1.035,2.156h5.348v10.124c0.114,1.688-0.604,2.531-2.156,2.531c-0.69,0-1.237,0-1.639,0
	c-0.058-0.563-0.173-1.093-0.345-1.595c0.632,0.063,1.178,0.095,1.639,0.095c0.805,0.063,1.178-0.375,1.121-1.313V179.9h-4.398v4.22
	h-1.467V184.123z M296.665,172.873v2.156h4.398v-2.156H296.665z M296.665,176.436v2.156h4.398v-2.156H296.665z M301.061,118.062
	c1.725-1.374,3.047-3.155,3.968-5.344h-7.849C298.099,114.968,299.393,116.75,301.061,118.062L301.061,118.062z M305.546,105.687
	c-1.208-1.125-2.358-2.124-3.45-3l1.121-1.125c1.15,0.876,2.329,1.813,3.537,2.813L305.546,105.687z M306.526,144.72v-10.312h9.4
	v10.312h-3.881v2.72h4.227v1.5h-4.227v3.28c1.667-0.188,1.897-0.219,0.69-0.094c1.208-0.125,2.472-0.249,3.795-0.375
	c0,0.188-0.029,0.469-0.086,0.844c0,0.313,0,0.53,0,0.656c-3.854,0.312-7.361,0.687-10.522,1.125l-0.173-1.688l4.658-0.375v-3.375
	h-4.141v-1.5h4.141v-2.719L306.526,144.72L306.526,144.72z M306.526,186.373v-19.124h7.245v18.843h-1.64v-1.688h-3.968v1.969
	H306.526z M307.993,135.907v2.905h2.501v-2.905H307.993z M307.993,140.312v2.906h2.501v-2.906H307.993z M308.165,168.938v6.093
	h3.968v-6.093H308.165z M308.165,176.624v6.093h3.968v-6.093H308.165z M315.964,107.937c-0.689,1.5-1.523,2.938-2.501,4.313
	c-0.172-0.188-0.604-0.53-1.293-1.031c-0.116-0.062-0.202-0.125-0.259-0.188c1.782-2.312,3.248-5.188,4.398-8.625l1.812,0.375
	c-0.403,1.188-0.834,2.312-1.293,3.375h5.002v-4.969h1.812v4.969h7.936v1.781h-7.936v5.25h7.245v1.875h-7.245v5.813h9.058v1.594
	h-20.7v-1.594h9.832v-5.813h-7.59v-1.875h7.59v-5.25H315.964L315.964,107.937z M314.461,135.907h-2.501v2.905h2.501V135.907z
	 M311.96,140.312v2.906h2.501v-2.906H311.96z M314.893,171.936v-1.78h7.331v-4.874h1.727v4.874h2.674v1.78h-2.674v12.188
	c0.057,2.063-0.949,3.125-3.021,3.188c-0.978,0-2.068,0-3.276,0c-0.059-0.25-0.145-0.625-0.259-1.125
	c-0.058-0.375-0.115-0.656-0.173-0.845c0.574,0.062,1.609,0.095,3.105,0.095c1.322,0.062,1.954-0.563,1.896-1.875v-11.625h-7.331
	V171.936z M318.084,180.467c-0.461-1.062-1.151-2.468-2.07-4.219c-0.229-0.438-0.402-0.78-0.517-1.031l1.38-0.844
	c0.345,0.562,0.805,1.406,1.38,2.531c0.632,1.125,1.092,1.969,1.38,2.531L318.084,180.467z M325.329,147.907
	c-0.116-0.062-0.346-0.125-0.69-0.188c-0.288-0.125-0.518-0.188-0.688-0.188l1.121-3.469h-2.761v8.812
	c0,1.624-0.807,2.468-2.416,2.531c-0.806,0-1.552,0-2.242,0c0-0.126-0.029-0.346-0.086-0.656c-0.116-0.501-0.202-0.876-0.26-1.125
	c0.287,0,0.719,0.03,1.294,0.094c0.401,0,0.69,0,0.862,0c0.862,0,1.264-0.375,1.207-1.125v-8.531h-3.794v-1.594h4.658
	c-0.576-0.562-1.38-1.374-2.415-2.438c-0.519-0.563-0.921-0.969-1.208-1.219l1.122-1.031l2.329,2.25l3.019-3.844h-6.986v-1.595
	h8.625v1.97l-3.535,4.594L323,141.72l-0.604,0.75h4.227v1.595L325.329,147.907z M328.387,183.186v-1.5h9.833v-1.03l4.83-1.688
	h-12.766v-1.406h16.129v1.5l-6.383,2.438v0.188h9.143v1.5h-9.143v1.688c0,1.749-0.862,2.625-2.587,2.625c-0.347,0-0.863,0-1.554,0
	c-0.748,0.062-1.322,0.094-1.725,0.094c-0.059-0.562-0.173-1.156-0.346-1.781c0.978,0.062,1.954,0.095,2.933,0.095
	c1.035,0.062,1.523-0.345,1.467-1.22v-1.5h-9.832V183.186z M328.56,169.312v-1.595h9.573l-0.688-2.25l1.811-0.28
	c0.346,0.812,0.604,1.655,0.776,2.53h8.971v1.595H328.56z M331.319,175.779v-4.781h14.749v4.781H331.319z M334.511,151.562
	c0,2.188-0.748,3.812-2.242,4.875l-0.775-0.844c1.035-0.812,1.58-2.031,1.639-3.656h-1.467v-3.094h2.847
	C334.511,149.346,334.511,150.251,334.511,151.562L334.511,151.562z M333.044,172.405v1.968h11.386v-1.968H333.044z
	 M335.611,111.968v-1.5h8.625c0.057-0.249,0.114-0.624,0.173-1.125c0.057-0.249,0.086-0.437,0.086-0.562h1.726
	c-0.059,0.625-0.145,1.188-0.259,1.688h3.795c-0.059-0.125-0.145-0.312-0.259-0.562c-0.173-0.375-0.316-0.656-0.432-0.844
	l1.553-0.375c0.229,0.501,0.518,1.094,0.862,1.781h3.882v1.5h-8.366c1.207,1.75,4.14,2.657,8.797,2.719
	c-0.058,0.126-0.144,0.313-0.259,0.563c-0.172,0.501-0.288,0.844-0.345,1.031c-5.405-0.312-8.684-1.688-9.833-4.125
	c-0.575,2.062-3.824,3.501-9.746,4.312c-0.115-0.249-0.26-0.656-0.432-1.219c-0.059-0.188-0.115-0.312-0.173-0.375
	c5.175-0.563,8.078-1.531,8.711-2.906H335.611z M336.646,108.406V102.5h7.418v5.906H336.646z M336.733,123.687v-7.031h7.417v6.938
	h-1.554v-1.031h-4.312v1.125L336.733,123.687L336.733,123.687z M338.199,103.906V107h4.312v-3.094H338.199z M338.285,118.156v3
	h4.312v-3H338.285z M346.565,108.406V102.5h7.504v5.906H346.565z M352.517,123.687v-1.125h-4.397v1.031h-1.553v-6.938h7.504v7.031
	L352.517,123.687L352.517,123.687z M348.118,103.906V107h4.397v-3.094H348.118z M348.118,118.156v3h4.397v-3H348.118z
	 M351.876,138.157v-1.781h6.038c0.345-0.999,0.718-2.063,1.121-3.188l1.812,0.281c-0.346,1-0.689,1.969-1.034,2.906H371.8v1.781
	h-12.765c-0.748,1.875-1.697,3.595-2.848,5.156v12.28h-1.725v-10.03c-0.748,0.875-1.61,1.78-2.588,2.719
	c-0.115-0.249-0.316-0.594-0.604-1.031c-0.115-0.312-0.229-0.562-0.345-0.75c2.76-2.625,4.83-5.405,6.21-8.344L351.876,138.157
	L351.876,138.157z M371.196,186.936c-0.116,0.25-0.202,0.438-0.259,0.563c-4.084-0.625-7.245-1.5-9.487-2.625
	c-2.415,1.187-5.55,2.156-9.401,2.906c-0.116-0.25-0.315-0.595-0.604-1.031c-0.116-0.313-0.23-0.563-0.347-0.75
	c3.796-0.563,6.67-1.28,8.625-2.156c-1.495-1.125-2.932-2.843-4.312-5.155h-1.293v-1.595h13.886v1.688
	c-1.266,2.062-2.846,3.75-4.743,5.062c2.013,0.813,4.857,1.406,8.538,1.781C371.628,185.811,371.426,186.247,371.196,186.936
	L371.196,186.936z M351.704,177.279v-4.5h13.109c0.573-0.874,1.351-2.217,2.328-4.03c0.058-0.062,0.087-0.125,0.087-0.188
	l1.726,0.656c-0.116,0.188-0.289,0.469-0.519,0.844c-0.288,0.562-0.861,1.47-1.726,2.719h4.485v4.5h-1.812v-2.813h-15.956v2.813
	H351.704z M370.247,167.624c-4.715,0.313-10.58,0.531-17.595,0.656c-0.059-0.563-0.172-1.125-0.346-1.688
	c6.152,0,12.018-0.219,17.596-0.656L370.247,167.624L370.247,167.624z M355.499,172.686c-0.806-1.5-1.41-2.53-1.812-3.094
	l1.64-0.562c0.632,0.937,1.207,1.938,1.725,2.999L355.499,172.686z M358.086,145.845v-1.688h5.436v-4.5h1.725v4.5h5.348v1.688
	h-5.348v6.656h6.555v1.594h-14.749v-1.594h6.471v-6.656H358.086z M361.45,182.904c1.725-0.999,3.22-2.405,4.483-4.219h-8.537
	C358.604,180.438,359.954,181.843,361.45,182.904L361.45,182.904z M361.191,172.498c-0.403-1.186-0.862-2.28-1.381-3.28l1.726-0.562
	c0.46,1.062,0.891,2.155,1.294,3.28L361.191,172.498z M364.315,119.562c0,2.187-0.748,3.812-2.242,4.875l-0.776-0.844
	c1.035-0.813,1.58-2.032,1.639-3.656h-1.467v-3.094h2.848C364.315,117.344,364.315,118.25,364.315,119.562L364.315,119.562z"/>
<path fill="#FFFFFF" d="M73.667,81.589V68.651h-9.859v2.336h-5.014V40.8H93.72v30.188h-5.014v-2.336h-9.859V81.59L73.667,81.589
	L73.667,81.589z M63.808,45.831V52.3h9.859v-6.469H63.808z M63.808,56.972v6.648h9.859v-6.648H63.808z M88.707,45.831h-9.859V52.3
	h9.859V45.831z M78.848,56.972v6.648h9.859v-6.648H78.848z M102.284,51.581v-4.672h5.013v-8.266h4.512v8.266h4.345v4.672h-4.345
	v4.313c0.668,0.48,1.613,1.258,2.841,2.336c1.337,1.078,2.282,1.858,2.841,2.336l-2.674,4.492c-1.003-1.196-2.005-2.336-3.008-3.414
	v19.945h-4.512V61.823c-1.115,3.354-2.564,6.589-4.345,9.703c-0.112-0.478-0.225-1.196-0.334-2.156
	c-0.334-2.395-0.613-4.133-0.835-5.211c2.228-3.473,3.953-7.665,5.181-12.578H102.284z M131.361,74.761
	c-2.452,2.274-5.572,4.551-9.358,6.828c-0.668-1.32-1.562-2.816-2.674-4.492c3.677-1.797,6.685-3.833,9.024-6.109
	c-2.339-3.354-4.068-7.485-5.18-12.398l3.509-1.977h-4.512v1.797c0,5.511-0.392,9.765-1.169,12.758
	c-0.893,3.234-2.507,6.528-4.846,9.883c-1.115-1.199-2.285-2.457-3.509-3.773c3.564-4.431,5.235-10.781,5.013-19.047V41.698
	c7.241-0.239,14.815-1.017,22.727-2.336l1.671,5.211c-5.238,0.719-11.865,1.319-19.886,1.797v5.211h18.215v5.031
	c-1.115,5.511-3.065,10.304-5.849,14.375c2.115,2.277,4.846,4.074,8.188,5.391l-3.008,4.672
	C136.375,78.894,133.588,76.796,131.361,74.761L131.361,74.761z M131.361,67.214c2.005-2.993,3.452-6.528,4.345-10.602h-8.522
	C128.186,60.686,129.578,64.221,131.361,67.214L131.361,67.214z M158.297,61.284c-2.229,7.429-4.011,13.597-5.347,18.508
	l-5.014-2.156c1.893-5.629,3.731-11.618,5.515-17.969C154.897,60.147,156.514,60.686,158.297,61.284L158.297,61.284z
	 M153.451,54.276c-0.559-1.317-1.394-3.353-2.506-6.109c-1.115-2.634-1.951-4.61-2.507-5.93l4.345-1.977
	c1.893,3.953,3.731,7.906,5.515,11.859L153.451,54.276z M170.997,81.409V67.753h-5.849v2.156h-4.846v-23h10.695v-8.266h5.014v8.266
	h10.695v23h-4.846v-2.156h-5.849v13.656H170.997z M165.148,51.94v10.781h5.849V51.94H165.148z M181.859,51.94h-5.849v10.781h5.849
	V51.94z M200.44,60.565c-2.118-2.036-4.29-4.012-6.518-5.93l3.008-3.594c1.225,0.96,3.118,2.457,5.682,4.492
	c0.556,0.48,0.945,0.839,1.17,1.078L200.44,60.565z M203.949,65.417c-1.671,5.632-3.175,10.902-4.512,15.813l-4.846-1.617
	c1.893-5.989,3.452-11.32,4.679-15.992c0.444,0.121,1.058,0.359,1.838,0.719C202.333,64.819,203.281,65.178,203.949,65.417
	L203.949,65.417z M201.609,48.706c-2.117-2.156-4.29-4.192-6.517-6.109l3.175-3.594c2.115,1.679,4.345,3.535,6.684,5.57
	L201.609,48.706z M234.53,76.378c-0.781,1.196-1.562,2.754-2.34,4.672c-9.249-3.234-14.985-8.923-17.212-17.07h-3.844v10.96
	c1.447-0.478,4.011-1.376,7.687-2.695c-0.112,1.917-0.112,3.655,0,5.211c-2.898,0.719-5.627,1.676-8.188,2.875
	c-0.668,0.239-1.561,0.598-2.673,1.078c-0.225,0.118-0.392,0.18-0.501,0.18l-2.674-4.133c1.112-0.719,1.614-1.856,1.504-3.414
	V42.956h9.859c-0.334-1.438-0.668-2.813-1.002-4.133l5.515-0.539c0.334,1.438,0.668,2.996,1.002,4.672h9.692v21.023h-0.835
	l3.008,3.594c-1.449,1.078-3.956,2.695-7.52,4.852C228.123,73.983,230.963,75.3,234.53,76.378L234.53,76.378z M211.135,47.448v3.953
	h15.374v-3.953H211.135z M211.135,59.487h15.374v-3.953h-15.374V59.487z M219.992,63.979c0.89,2.156,1.893,4.015,3.008,5.57
	c0.778-0.598,2.06-1.556,3.844-2.875c1.671-1.196,2.896-2.095,3.676-2.695H219.992L219.992,63.979z"/>
<path fill="#F9FF63" d="M251.297,71.339c-0.8,2.109-1.635,4.024-2.507,5.742l-2.397-0.938c0.872-1.796,1.706-3.71,2.506-5.742
	L251.297,71.339L251.297,71.339z M247.374,57.276v-2.813h4.904c-0.073-0.39-0.255-0.976-0.544-1.758
	c-0.073-0.312-0.146-0.546-0.218-0.703l3.378-0.352c0.363,1.172,0.617,2.109,0.763,2.813h4.359v2.813h-3.597l2.725,1.055
	l-1.853,3.047h3.27v2.813h-5.123v2.461h4.687v2.813h-4.687v6.445c0.072,2.186-0.945,3.32-3.051,3.398
	c-0.509,0.077-1.381,0.117-2.616,0.117c-0.146-1.33-0.364-2.344-0.654-3.047c0.218,0,0.581,0,1.09,0c0.436,0,0.725,0,0.872,0
	c0.943,0.077,1.379-0.352,1.308-1.289v-5.625h-5.014v-2.813h5.014V64.19h-5.667v-2.813h3.488c-0.583-1.015-1.199-1.992-1.853-2.93
	l2.071-1.172L247.374,57.276L247.374,57.276z M252.06,59.151c0.363,0.547,0.654,0.978,0.872,1.289l-1.635,0.938h3.051
	c0.363-0.625,0.834-1.523,1.417-2.695c0.29-0.625,0.507-1.093,0.654-1.406h-5.558C251.151,57.745,251.551,58.371,252.06,59.151
	L252.06,59.151z M258.163,75.792l-2.289-4.336l2.289-1.172c0.799,1.406,1.562,2.774,2.289,4.102c0.726-2.187,1.09-5.273,1.09-9.258
	v-11.25c3.706-0.234,7.084-0.625,10.136-1.172l0.981,3.047c-2.762,0.469-5.449,0.82-8.065,1.055v5.039h8.501v3.164h-2.725v14.414
	h-2.943V65.011h-2.833v0.352c0.145,6.094-0.836,10.86-2.942,14.297c-0.292-0.158-0.727-0.469-1.308-0.938
	c-0.654-0.392-1.127-0.703-1.417-0.938c0.145-0.234,0.327-0.626,0.545-1.172c0.436-0.78,0.763-1.445,0.98-1.992L258.163,75.792z
	 M276.235,62.55v-3.398h2.18v-7.266h2.942v7.266h1.853v3.398h-1.853v9.375l2.507-0.703c-0.073,1.172-0.073,2.344,0,3.516
	c-0.654,0.234-1.672,0.547-3.052,0.938c-1.89,0.469-3.343,0.859-4.359,1.172l-0.545-3.398c0.799-0.234,1.635-0.469,2.507-0.703
	V62.55H276.235z M283.864,65.714V54.933h3.923c-0.146-0.234-0.327-0.546-0.545-0.938c-0.509-0.859-0.872-1.483-1.09-1.875
	l3.27-0.469l1.853,3.281h2.834c0.507-0.938,1.089-2.069,1.744-3.398l3.378,0.703c-0.291,0.469-0.763,1.172-1.417,2.109
	c-0.146,0.234-0.255,0.43-0.327,0.586h4.032v10.781L283.864,65.714L283.864,65.714z M284.954,79.776V67.354h15.367v12.422h-3.052
	v-1.289h-9.155v1.289H284.954z M286.588,57.394v5.742h4.795v-5.742H286.588z M288.986,62.433c-0.509-1.093-1.127-2.187-1.853-3.281
	l1.635-1.055c0.363,0.469,0.872,1.329,1.526,2.578c0.218,0.313,0.362,0.547,0.436,0.703L288.986,62.433z M288.114,69.815v2.109
	h9.155v-2.109H288.114z M288.114,74.151v2.109h9.155v-2.109H288.114z M298.794,57.394h-4.795v5.742h4.795V57.394z M297.051,61.261
	c-0.436,0.547-0.727,0.979-0.872,1.289l-1.635-1.055c0.145-0.234,0.327-0.546,0.545-0.938c0.726-1.093,1.235-1.914,1.526-2.461
	l1.744,1.055C298.067,59.62,297.631,60.323,297.051,61.261L297.051,61.261z"/>
<path fill="#95FFFB" d="M271.017,30.662c-0.174-0.188-0.523-0.53-1.046-1.031c-0.291-0.312-0.494-0.53-0.61-0.656
	c-0.698,1-1.831,2.281-3.4,3.844c-0.117-0.126-0.32-0.375-0.61-0.75c-0.407-0.625-0.728-1.063-0.959-1.313
	c1.452-1.187,2.557-2.375,3.313-3.563c-0.989-1.062-1.918-2-2.79-2.813c0.464-2.187,0.872-4.531,1.221-7.031h-1.482v-2.25h1.744
	c0.174-1.437,0.349-2.937,0.523-4.5l2.354,0.281l-0.61,4.219h3.662v2.156c-0.233,4.188-0.815,7.345-1.744,9.469l2.005,1.969
	L271.017,30.662z M268.837,25.037c0.698-1.688,1.133-4.25,1.308-7.688h-1.831c-0.117,1.125-0.379,2.719-0.785,4.781
	c-0.117,0.688-0.205,1.188-0.262,1.5L268.837,25.037L268.837,25.037z M272.936,22.693v-2.25h12.032v2.25h-4.882l-0.087,1.969h5.58
	V27.1h-4.883c0.929,1.688,2.645,2.813,5.144,3.375c-0.582,1.062-1.018,1.906-1.308,2.531c-2.849-1.188-4.738-2.75-5.667-4.688
	c-0.756,1.938-2.849,3.563-6.278,4.875c-0.466-0.876-0.93-1.688-1.395-2.438c3.139-0.875,5.057-2.093,5.754-3.656h-4.708v-2.438
	h5.231c0.116-0.563,0.174-1.219,0.174-1.969L272.936,22.693L272.936,22.693z M273.458,18.755V11.63h10.986v7.125H273.458z
	 M275.813,13.974v2.531h6.19v-2.531H275.813z M296.091,25.318c-1.687,2.625-3.343,4.844-4.97,6.656
	c-0.756-0.75-1.454-1.313-2.093-1.688c1.569-1.688,3.167-3.812,4.795-6.375L296.091,25.318L296.091,25.318z M290.424,23.068
	l1.133-10.781c4.999,0,10.346-0.281,16.042-0.844l0.785,2.625c-4.302,0.438-9.098,0.719-14.386,0.844l-0.61,5.531h5.231v-4.406h2.79
	v4.406h7.759v2.625h-7.759v6.188c0.116,2.375-0.902,3.53-3.052,3.469c-1.164,0.125-2.238,0.188-3.226,0.188
	c-0.059-0.375-0.174-1.063-0.349-2.063c-0.059-0.313-0.117-0.563-0.174-0.75c0.755,0.063,1.657,0.094,2.703,0.094
	c0.929,0.063,1.365-0.469,1.308-1.594v-5.531L290.424,23.068L290.424,23.068z M307.861,31.88c-1.338-1.812-2.907-3.938-4.708-6.375
	l2.005-1.5c1.277,1.5,2.964,3.595,5.057,6.281L307.861,31.88z M317.939,30.38c-0.467,0.563-0.872,1.093-1.222,1.594l-1.656-1.969
	c0.523-0.624,0.755-1.343,0.697-2.156v-7.125h-2.18v-2.625h4.708v8.625l1.918-2.156c0.115,0.501,0.349,1.188,0.697,2.063
	c0.058,0.25,0.115,0.438,0.175,0.563C320.38,27.881,319.334,28.943,317.939,30.38L317.939,30.38z M317.678,16.505
	c-0.931-1.374-1.918-2.813-2.965-4.313l2.268-1.406c0.23,0.313,0.552,0.75,0.959,1.313c0.405,0.501,1.104,1.438,2.092,2.813
	L317.678,16.505z M326.919,30.287c-1.802,1.062-4.04,2-6.713,2.813c-0.117-0.25-0.349-0.656-0.698-1.219
	c-0.292-0.563-0.522-0.97-0.697-1.219c2.441-0.624,4.417-1.343,5.929-2.156c-1.222-1.313-2.354-2.968-3.4-4.969l1.134-0.75h-1.831
	v-2.438h12.557v2.625c-1.105,2.188-2.473,4.031-4.1,5.531c1.687,0.938,3.546,1.563,5.58,1.875c-0.406,0.812-0.843,1.655-1.308,2.531
	C330.756,32.099,328.604,31.224,326.919,30.287L326.919,30.287z M324.914,14.537c0.174,2.188-0.989,3.938-3.487,5.25
	c-0.522-0.563-1.134-1.219-1.831-1.969c2.094-0.938,3.053-2.312,2.877-4.125v-2.156h9.416v3.75
	c-0.059,0.813,0.319,1.188,1.135,1.125h1.831l-0.438,2.531h-2.528c-1.687,0-2.527-0.812-2.527-2.438v-2.438h-4.446L324.914,14.537
	L324.914,14.537z M323.693,22.787c0.872,1.688,1.946,3.094,3.226,4.219c1.162-0.938,2.324-2.344,3.488-4.219H323.693z
	 M351.819,28.88v-6.656l-2.007,0.469v6c-0.059,1.125,0.466,1.688,1.569,1.688h3.836c1.047,0,1.657-0.406,1.831-1.219
	c0-0.125,0.029-0.312,0.088-0.563c0.115-0.624,0.202-1.093,0.262-1.406c0.64,0.313,1.309,0.563,2.006,0.75
	c-0.06,0.563-0.204,1.251-0.437,2.063c-0.059,0.25-0.088,0.406-0.088,0.469c-0.231,1.374-1.279,2.03-3.139,1.969h-5.318
	c-1.918,0.062-2.849-0.938-2.79-3v-6.281l-1.046,0.188l-0.175-2.25l1.221-0.281v-2.25l-0.262,0.281
	c-0.522-0.687-1.104-1.313-1.743-1.875l0.262-0.281h-3.662c0,1,0,1.969,0,2.906h3.837c0,0.625-0.03,1.594-0.088,2.906
	c-0.059,3.126-0.116,5.282-0.175,6.469c0.059,2.25-0.784,3.406-2.527,3.469c-0.582,0-1.192,0.031-1.831,0.094
	c-0.06-0.188-0.117-0.438-0.175-0.75c-0.175-0.688-0.292-1.157-0.349-1.406c-0.292,0.687-0.698,1.562-1.221,2.625
	c-0.582-0.625-1.164-1.251-1.744-1.875c1.278-2.124,1.946-5.25,2.005-9.375c0-0.5,0-1.28,0-2.344
	c0.058-1.187,0.088-2.093,0.088-2.719h-1.569v-2.438h3.313c-0.059-0.375-0.174-0.938-0.349-1.688
	c-0.175-0.687-0.32-1.219-0.437-1.594l2.528-0.281c0.23,1,0.465,2.188,0.697,3.563h2.18v1.875c1.221-1.625,2.18-3.437,2.877-5.438
	l2.616,0.094c-0.292,0.876-0.61,1.688-0.959,2.438h8.194v2.344h-9.503c-0.467,0.938-1.047,1.813-1.744,2.625h1.919v2.063
	l2.006-0.375v-3.656h2.18v3.094l4.359-0.938c0,2.25-0.06,4.282-0.176,6.094c-0.059,1.626-0.641,2.5-1.743,2.625
	c-0.407,0.063-1.047,0.094-1.918,0.094c-0.175-0.687-0.32-1.406-0.437-2.156c0.406,0,0.784,0,1.133,0
	c0.581,0,0.901-0.312,0.96-0.938c0.058-0.5,0.087-1.468,0.087-2.906l-2.267,0.563v7.125h-2.178V28.88z M343.798,25.318
	c0.058-1.625,0.087-2.78,0.087-3.469h-1.744c-0.059,3.688-0.436,6.469-1.133,8.344c0.465,0,0.959,0,1.482,0
	c0.812,0.063,1.221-0.437,1.221-1.5C343.768,28.13,343.798,27.005,343.798,25.318L343.798,25.318z"/>
</svg>
