<svg xmlns="http://www.w3.org/2000/svg" width="640" height="328" viewBox="0 -127.5 640 328" enable-background="new 0 -127.5 640 328"><path fill="#4CC2F8" d="M385.071 34.684h-3.232v-12.181c-1.181 1.104-2.572 1.921-4.175 2.45v-2.933c.844-.276 1.76-.799 2.749-1.57s1.668-1.669 2.036-2.697h2.622v16.931z"/><path fill="#fff" d="M60.302 116.032c-.806 1.5-1.466 2.625-1.984 3.375-.058-.375-.202-.905-.431-1.594-.058-.312-.116-.53-.173-.656 1.954-3.188 3.479-6.812 4.571-10.875l1.726.562c-.518 1.688-1.093 3.281-1.726 4.781v17.157h-1.639v-13.312c-.057.125-.171.313-.344.562zm8.108 32.374c-2.186 1.125-5.52 2.188-10.005 3.188l-.518-1.406c-.058-.188-.116-.343-.172-.469 3.622-.562 6.611-1.373 8.97-2.438-1.323-.874-2.646-2.188-3.967-3.938-1.035 1.188-2.156 2.345-3.364 3.47-.345-.563-.69-1.062-1.035-1.5 2.53-2.125 4.513-4.5 5.951-7.125l1.812.375c-.403.625-.834 1.281-1.294 1.969h10.868v1.875c-1.611 2.062-3.394 3.688-5.348 4.875 2.012.938 4.772 1.594 8.28 1.969-.172.375-.375.907-.604 1.594-.058.126-.086.221-.086.281-4.026-.625-7.19-1.532-9.488-2.72zm-10.436 25.438v-1.594h6.296v1.594h-2.415v5.906h2.07v1.594h-2.07v6.469c.287-.062.69-.154 1.208-.28.574-.062.977-.125 1.208-.188v1.688c-.517.126-1.237.28-2.156.469-1.783.313-3.163.563-4.14.75l-.259-1.594 1.293-.281c.574-.062 1.005-.125 1.294-.188v-6.844h-2.07v-1.594h2.07v-5.906h-2.329zm2.932-13.156v-9h14.576v9h-1.725v-1.312h-11.126v1.312h-1.725zm1.725-7.407v4.594h11.126v-4.594h-11.126zm1.035-25.719v-1.594h7.59c1.725-5.124 2.989-9.188 3.795-12.188l1.811.562c-1.438 4.563-2.703 8.438-3.795 11.625h5.692v1.594h-15.093zm14.749 49.657c-.172.375-.316.656-.431.844-1.208-.623-2.243-1.25-3.105-1.875v1.313h-7.159v-1.219c-.92.75-1.927 1.438-3.019 2.062-.058-.125-.202-.312-.432-.562-.23-.438-.403-.75-.517-.938 3.506-2 5.865-4.25 7.072-6.75l1.811.281c-.058.062-.116.156-.172.281-.116.188-.202.312-.259.375 1.782 2.625 3.996 4.438 6.641 5.438-.057.187-.201.437-.43.75zm-9.919-30.875c1.897-1.062 3.593-2.438 5.088-4.125h-9.746c1.437 1.75 2.99 3.126 4.658 4.125zm-4.226-34.062v-1.782h6.641c-.575-1.625-1.006-2.906-1.293-3.844l1.811-.375c.172.562.459 1.438.862 2.625.173.562.315 1 .432 1.312l-1.294.281h6.728v1.781l-13.887.002zm.862 80.312v-13.219h5.865v10.875c.057 1.438-.604 2.156-1.983 2.156h-1.466c0-.188-.058-.596-.172-1.219-.058-.188-.086-.313-.086-.375.401.062.805.094 1.208.094.69 0 1.035-.346 1.035-1.031v-2.156h-2.932v4.875h-1.469zm2.933-68.593c-.806-3.375-1.697-6.594-2.674-9.657l1.725-.562c.287 1 .747 2.594 1.38 4.781.632 2.25 1.091 3.875 1.38 4.875l-1.811.563zm-1.466 56.78v2.062h2.932v-2.062h-2.932zm0 3.469v2.156h2.932v-2.156h-2.932zm8.107-8.25c-1.208-.875-2.329-2.094-3.364-3.656-.806 1.188-1.927 2.406-3.364 3.656h6.728zm.259 16.406h-1.897c0-.375-.116-.938-.345-1.688.69.062 1.322.095 1.897.095.919.062 1.351-.407 1.294-1.406v-10.407h1.466v10.875c.057 1.687-.748 2.531-2.415 2.531zm-2.243-3.844v-8.344h1.38v8.344h-1.38zm11.052 4.126v-12.938c-.289.562-.69 1.375-1.208 2.438-.288.563-.489.971-.604 1.22-.058-.375-.173-.845-.345-1.406-.116-.313-.202-.563-.259-.75 1.609-3.125 2.875-6.781 3.795-10.969l1.553.28c-.403 1.75-.863 3.438-1.38 5.063v17.063h-1.552v-.001zm-1.725-38.75v-1.594h8.97c.114-.562.172-1.187.172-1.875h1.812c0 .188-.03.502-.086.938-.058.375-.116.688-.172.938h9.142v1.594h-8.711c1.552 2.5 4.628 4.062 9.229 4.688-.345.688-.604 1.28-.776 1.781-4.888-.876-8.107-2.719-9.66-5.531-.92 2.688-4.14 4.625-9.66 5.812-.116-.312-.316-.75-.604-1.312-.058-.25-.116-.406-.173-.469 5.175-.75 8.194-2.405 9.057-4.969h-8.54v-.001zm1.294-44.188v-1.875h17.336v1.875h-7.503v6h9.142v1.875h-9.142v7.312c.114 2.25-.892 3.375-3.019 3.375h-3.45c-.058-.75-.172-1.438-.345-2.062.574.062 1.609.094 3.105.094 1.322.124 1.926-.5 1.812-1.875v-6.844h-9.66v-1.875h9.66v-6h-7.936zm17.94 41.188c-2.933-1.312-5.75-2.468-8.453-3.469v2.063h-1.725v-3.656c-2.013 2.25-4.773 4.001-8.28 5.25-.116-.188-.317-.499-.604-.938-.116-.312-.23-.529-.345-.655 3.334-1.062 5.951-2.438 7.849-4.125h-7.417v-1.595h8.797v-5.53h1.725v5.53h8.797v1.595h-8.797v1.78l.604-1.125c2.989 1.063 5.865 2.188 8.625 3.375l-.776 1.5zm-13.542-7.782c-.288-.249-.69-.594-1.207-1.031-1.093-.999-1.897-1.688-2.415-2.062l1.035-1.22c.173.126.459.345.863.656 1.322 1.001 2.299 1.781 2.932 2.344l-1.208 1.313zm2.502 36.594c-.058 5.938-1.093 10.219-3.105 12.844l-1.208-1.312c1.782-2.312 2.702-6.155 2.76-11.531l.086-3.562h-1.811v-1.689h1.811c0-.5.028-1.219.086-2.156v-1.875h1.552l-.086 4.031h3.708c-.058 5.875-.144 10.844-.259 14.906 0 1.812-.806 2.719-2.415 2.719-.403.061-.978.094-1.725.094v-.281c-.058-.375-.173-.906-.345-1.594.345.062.862.094 1.553.094.977.062 1.466-.438 1.466-1.5.057-.812.086-2.905.086-6.28.057-2.75.086-4.906.086-6.47h-2.156l-.084 3.562zm9.66-39.688c-1.208 1.002-2.531 2.063-3.968 3.188l-1.035-1.313c1.322-1.062 2.616-2.093 3.881-3.094l1.122 1.219zm-4.14 51.782v-18.656h5.692v18.563h-1.552v-1.781h-2.674v1.875l-1.466-.001zm1.466-16.969v13.5h2.674v-13.5h-2.674zm10.112-14.281v-12.844c-.46 1.125-1.006 2.25-1.639 3.375-.116-.688-.316-1.374-.604-2.062 1.667-3.125 2.903-6.719 3.708-10.781l1.639.281c-.345 1.375-.862 3.156-1.552 5.344v16.688h-1.552zm1.725-50.937c-.748 1.125-1.639 2.156-2.674 3.094-.575-.624-.979-1.031-1.208-1.219 1.84-1.625 3.162-3.438 3.968-5.438l1.811.188-.259.562c-.289.625-.547 1.063-.776 1.313h5.952v1.5h-4.313c.287.313.661.782 1.122 1.406.229.313.401.532.518.656l-1.38.656-1.811-2.438.518-.281h-1.468v.001zm5.779 12.938c-2.014 2.5-4.946 4.406-8.797 5.72-.173-.563-.461-1.125-.863-1.688 3.737-.999 6.469-2.531 8.194-4.594h-6.641l.862-5.344h7.245v-2.438h-7.504v-1.5h16.732v5.438h-7.59v2.344h8.625c0 1.062-.058 2.312-.172 3.75-.058 1.812-1.093 2.719-3.105 2.719h-2.76c-.058-.563-.172-1.093-.345-1.594.862.062 1.811.094 2.846.094 1.035.063 1.609-.406 1.725-1.406v-.844c.056-.563.086-.969.086-1.219h-6.9v6.75h-1.639l.001-6.188zm-5.865 51.155c-.69 1.125-1.553 2.188-2.587 3.188l-.604-.655c-.288-.249-.489-.438-.604-.563 1.725-1.562 3.075-3.437 4.054-5.625l1.725.188c-.345.75-.69 1.405-1.035 1.969h5.951v1.5l-6.9-.002zm-2.07 5.344v-1.406h7.763v-1.405h1.725v1.405h8.107v1.406h-8.107v2.344h9.66v1.595h-20.7v-1.595h9.315v-2.344h-7.763zm-.862 7.687v-1.5h13.196v-1.781h1.725v1.781h4.398v1.5h-4.398v2.719c.057 1.938-.892 2.906-2.846 2.906h-3.019c-.058-.251-.144-.563-.259-.938-.058-.312-.116-.562-.172-.75h2.933c1.149.062 1.695-.469 1.639-1.594v-2.344l-13.197.001zm3.018-68.593l-.431 2.344h6.21v-2.344h-5.779zm3.364 72.718c-.806-.813-1.841-1.781-3.105-2.906l1.122-1.125c.114.126.287.281.518.469 1.264 1.063 2.156 1.875 2.673 2.438l-1.208 1.124zm13.714-32.75c-.289.75-.461 1.344-.518 1.781-1.496 0-3.45-.063-5.865-.188-3.221-.126-5.52-.876-6.9-2.25-.575.875-1.38 1.937-2.415 3.188-.058-.063-.116-.156-.172-.281-.172-.188-.431-.563-.776-1.125 1.208-1.313 1.984-2.374 2.329-3.188-.633-1.062-1.237-2.687-1.812-4.875l1.208-.655c.345 1.5.805 2.78 1.38 3.844.402-1.438.69-3.249.863-5.438h-3.105v-1.594l3.191-5.344h-2.933v-1.5h4.571v1.688l-3.191 5.25h2.933v.938c-.173 3.312-.604 5.812-1.294 7.5 1.035 1.376 3.133 2.124 6.296 2.25 2.012.124 4.082.124 6.21-.001zm-14.231 18.875c-.289-.375-.69-.875-1.208-1.5-.289-.313-.489-.563-.604-.75l1.121-.938c.69.688 1.322 1.406 1.898 2.156l-1.207 1.032zm6.468-67.374c-.518.938-1.151 1.812-1.897 2.625-.461-.438-.892-.812-1.294-1.125 1.553-1.688 2.616-3.375 3.191-5.063l1.725.188c-.23.688-.518 1.312-.863 1.875h6.642v1.5h-4.83l1.811 2.062-1.38.656c-.172-.249-.489-.656-.949-1.219l-1.035-1.125.604-.375h-1.725v.001zm-3.191 35.749v-1.406h4.054v-2.062h-3.019v-1.313h3.019v-2.344h1.552v2.344h3.881v3.375h1.38v1.406h-1.38v3.375h-3.881v1.875h4.227v1.406h-4.227v1.969h4.571v1.406h-4.571v2.344h-1.552v-2.344h-3.881v-1.406h3.881v-1.969h-3.364v-1.406h3.364v-1.875h-3.191v-1.406h3.191v-1.969h-4.054zm3.192 28.344c-.518.75-1.065 1.531-1.639 2.344-.46-.375-.949-.719-1.466-1.031 1.322-1.312 2.357-2.969 3.105-4.969l1.725.188-.259.562c-.116.375-.345.845-.69 1.406h6.728v1.5h-7.504zm3.967-59.5h-5.865v2.438h5.865v-2.438zm-.603 62.781l-2.07-2.25 1.035-.938c.747.688 1.466 1.406 2.156 2.156l-1.121 1.032zm1.552-35.093h-2.501v2.062h2.501v-2.062zm-2.502 5.437h2.501v-1.969h-2.501v1.969zm18.825 33.031c-2.186 1.125-5.52 2.188-10.005 3.188l-.518-1.406c-.058-.188-.116-.343-.172-.469 3.623-.562 6.611-1.373 8.97-2.438-1.323-.875-2.646-2.188-3.967-3.938-1.035 1.188-2.156 2.345-3.364 3.47-.345-.563-.69-1.063-1.035-1.5 2.53-2.125 4.514-4.5 5.951-7.125l1.812.375c-.403.625-.834 1.28-1.294 1.969h10.868v1.875c-1.61 2.062-3.394 3.688-5.348 4.875 2.012.938 4.772 1.594 8.28 1.969-.172.375-.375.906-.604 1.594-.058.126-.086.221-.086.281-4.026-.625-7.189-1.532-9.488-2.72zm3.795-20.187c-.806.062-2.07.094-3.795.094 0-.25-.058-.719-.172-1.405-.058-.188-.086-.345-.086-.47.574.062 1.695.095 3.364.095 1.38.062 2.04-.531 1.983-1.781v-3.281c-3.853 2.751-8.74 5.124-14.662 7.125-.058-.062-.116-.22-.172-.469-.116-.25-.345-.688-.69-1.313 5.117-1.437 9.343-3.248 12.678-5.438h-12.678v-1.594h2.76v-11.156h5.002c.173-.438.374-1.155.604-2.156.057-.125.086-.218.086-.281l1.898.281c-.231.688-.489 1.406-.776 2.156h7.676v9.469c.747-.624 1.553-1.312 2.415-2.062l1.035 1.406c-.461.375-1.122.906-1.984 1.594-.633.562-1.121.97-1.466 1.219v4.875c.055 2.122-.951 3.153-3.02 3.092zm-7.763-32.365h1.811v-19.981h-1.294c-.748 2.101-2.444 3.839-5.088 5.217v2.067c1.781-.787 3.306-1.836 4.571-3.15v15.847zm-3.536 64.834v-9h14.576v9h-1.725v-1.312h-11.126v1.312h-1.725zm1.552-50.469v2.25h11.04v-2.25h-11.04zm0 3.656v2.25h11.04v-2.25h-11.04zm10.609 5.906l.431-.375v-1.875h-11.04v2.25h10.609zm-10.436 33.5v4.594h11.126v-4.594h-11.126zm5.865-6.937c1.897-1.062 3.593-2.438 5.088-4.125h-9.746c1.437 1.75 2.99 3.126 4.658 4.125zm11.053-50.49h1.811v-19.981h-1.293c-.748 2.101-2.445 3.839-5.089 5.217v2.067c1.782-.787 3.306-1.836 4.571-3.15v15.847zm5.949 30.115c-.345.249-.662.624-.949 1.125l-1.208-1.125c.345-.437.518-1.031.518-1.781v-8.53h-2.329v-1.688h4.054v9.469c.172-.188.431-.498.776-.938.69-.75 1.178-1.343 1.466-1.781.114.313.259.721.431 1.219l.259.563c-.861.936-1.868 2.093-3.018 3.467zm-3.449 27.969v-1.594h8.97c.114-.562.172-1.187.172-1.875h1.811c0 .188-.029.502-.086.938-.058.375-.116.688-.172.938h9.142v1.594h-8.711c1.552 2.5 4.628 4.062 9.229 4.688-.345.688-.604 1.28-.776 1.781-4.888-.876-8.108-2.719-9.66-5.531-.92 2.688-4.14 4.624-9.66 5.812-.116-.312-.317-.75-.604-1.312-.058-.251-.116-.406-.173-.469 5.175-.75 8.194-2.405 9.057-4.969h-8.539v-.001zm19.234-3c-2.933-1.312-5.75-2.469-8.453-3.469v2.063h-1.725v-3.656c-2.013 2.25-4.773 4-8.28 5.25-.116-.188-.317-.5-.604-.938-.116-.312-.23-.529-.345-.655 3.334-1.063 5.951-2.438 7.849-4.125h-7.417v-1.595h8.797v-5.53h1.725v5.53h8.798v1.595h-8.798v1.78l.604-1.125c2.989 1.063 5.865 2.188 8.625 3.375l-.776 1.5zm-15.267-39.219c-.862-1.187-1.897-2.499-3.105-3.938l1.38-1.031 1.122 1.219c.977 1.125 1.667 1.969 2.07 2.531l-1.467 1.219zm1.725 31.437c-.288-.25-.69-.594-1.208-1.031-1.093-.999-1.897-1.688-2.415-2.062l1.035-1.22.863.656c1.322 1 2.299 1.781 2.932 2.344l-1.207 1.313zm6.901-17.656c-2.07 1.25-4.485 2.312-7.246 3.188-.403-.75-.748-1.312-1.035-1.688 3.334-.938 5.606-1.843 6.814-2.719-1.496-1.5-2.79-3.563-3.881-6.188h-.776v-1.688h11.903v1.875c-1.38 2.625-2.818 4.626-4.313 6 1.322.938 3.392 1.719 6.21 2.344-.116.188-.259.437-.432.75-.288.563-.461.905-.517 1.031-2.876-.936-5.119-1.906-6.727-2.905zm-2.588-15.656c.173 2.563-.949 4.469-3.364 5.719-.116-.188-.317-.437-.604-.75-.289-.375-.489-.623-.604-.75 2.127-.938 3.105-2.468 2.933-4.594v-2.156h8.884v4.22c-.058.876.345 1.282 1.208 1.219h1.897l-.172 1.781h-2.329c-1.553 0-2.329-.75-2.329-2.25v-3.188h-5.521l.001.749zm-.588-19.062c-.403 1.938-1.179 3.905-2.329 5.905-.461-.562-.863-1.095-1.208-1.594.978-1.812 1.609-3.529 1.898-5.156.287-1.562.431-4.187.431-7.875v-6.656h17.509v6.375h-15.784v.469c0 3.813-.172 6.657-.517 8.532zm-.361 27.312c1.035 2.25 2.213 3.938 3.537 5.063 1.38-1.062 2.702-2.75 3.967-5.063h-7.504zm.878-41.187v3.375h14.145v-3.375h-14.145zm.087 13.125v-1.594h16.818v1.594h-9.056c-1.956 2.125-3.307 3.469-4.054 4.03 3.737-.062 6.555-.094 8.453-.094l-2.243-2.25 1.294-1.125c.518.563 1.293 1.346 2.329 2.344 1.208 1.125 2.098 2 2.674 2.625l-1.38 1.22-1.208-1.406h-.949c-4.658.124-7.706.249-9.143.375-.69 0-1.352.062-1.984.188l-.776-1.688c.574-.188 1.122-.5 1.639-.938 1.035-.938 2.07-2.029 3.105-3.28h-5.519zm1.897-4.313v-1.5h13.023v1.5h-13.023zm5.936 54.343c-1.208 1-2.531 2.063-3.968 3.188l-1.035-1.313c1.322-1.062 2.616-2.094 3.881-3.094l1.122 1.219zm7.439 20.532v-12.844c-.461 1.125-1.007 2.25-1.639 3.375-.116-.688-.317-1.374-.604-2.062 1.667-3.125 2.903-6.72 3.709-10.781l1.639.281c-.345 1.375-.863 3.155-1.553 5.344v16.688h-1.552zm8.625-45.406c-2.301 1.063-5.692 2.032-10.178 2.906-.058-.188-.144-.5-.259-.938-.172-.375-.288-.656-.345-.844 3.506-.563 6.469-1.28 8.884-2.156-1.38-.75-2.674-1.875-3.881-3.375-1.151 1.251-2.272 2.312-3.364 3.188-.116-.125-.289-.343-.518-.656l-.604-.655c2.587-2.063 4.571-4.249 5.951-6.563l1.725.563c-.173.188-.403.501-.69.938-.172.313-.316.532-.431.656h11.126v1.594c-1.61 1.813-3.422 3.281-5.434 4.406 2.243.75 4.973 1.251 8.194 1.5-.288.563-.518 1.188-.69 1.875-4.024-.565-7.187-1.376-9.486-2.439zm-8.022 13.5v-10.594h15.439v10.594h-1.639v-1.03h-12.162v1.03h-1.638zm18.199 29.468c-.288.75-.461 1.343-.518 1.781-1.496 0-3.45-.063-5.865-.188-3.221-.126-5.52-.876-6.9-2.25-.576.874-1.38 1.937-2.415 3.188-.058-.063-.116-.157-.172-.281-.173-.188-.432-.563-.776-1.125 1.208-1.313 1.983-2.375 2.329-3.188-.633-1.062-1.237-2.687-1.811-4.875l1.208-.655c.345 1.5.804 2.78 1.38 3.844.401-1.438.69-3.249.862-5.438h-3.105v-1.594l3.191-5.344h-2.933v-1.5h4.571v1.688l-3.191 5.25h2.933v.938c-.172 3.312-.604 5.812-1.294 7.5 1.035 1.375 3.133 2.124 6.296 2.25 2.012.123 4.082.123 6.21-.001zm-16.56-38.656v2.812h5.261v-2.812h-5.261zm0 4.125v2.625h5.261v-2.625h-5.261zm6.383-10.219c1.839-.874 3.564-2.094 5.175-3.656h-9.746c1.207 1.5 2.73 2.719 4.571 3.656zm1.913-20.844c0 2.188-.748 3.812-2.243 4.875l-.776-.844c1.035-.812 1.581-2.031 1.639-3.656h-1.466v-3.094h2.846v2.719zm-2.69 52.844v-1.406h4.054v-2.062h-3.019v-1.313h3.019v-2.344h1.553v2.344h3.881v3.375h1.38v1.406h-1.38v3.375h-3.881v1.875h4.226v1.406h-4.226v1.969h4.571v1.406h-4.571v2.344h-1.553v-2.344h-3.881v-1.406h3.881v-1.969h-3.364v-1.406h3.364v-1.875h-3.191v-1.406h3.191v-1.969h-4.054zm6.556-25.906h-5.261v2.812h5.261v-2.812zm-5.262 4.125v2.625h5.261v-2.625h-5.261zm6.814 18.313h-2.501v2.062h2.501v-2.062zm-2.501 5.437h2.501v-1.969h-2.501v1.969zm22.609 12.844c-.806.062-2.07.094-3.795.094 0-.25-.058-.72-.172-1.405-.058-.188-.086-.345-.086-.47.574.062 1.695.095 3.364.095 1.38.062 2.041-.532 1.984-1.781v-3.281c-3.853 2.751-8.741 5.124-14.663 7.125-.058-.062-.116-.22-.172-.469-.116-.251-.345-.688-.69-1.313 5.117-1.438 9.343-3.248 12.679-5.438h-12.679v-1.594h2.76v-11.156h5.002c.172-.438.374-1.156.604-2.156.057-.125.086-.219.086-.281l1.897.281c-.23.688-.489 1.406-.776 2.156h7.676v9.469c.747-.624 1.552-1.312 2.415-2.062l1.035 1.406c-.461.375-1.121.905-1.984 1.594-.633.562-1.121.97-1.466 1.219v4.875c.056 2.121-.949 3.153-3.019 3.092zm-8.281-35.657c0 2.188-.748 3.812-2.242 4.875l-.776-.844c1.035-.812 1.581-2.031 1.639-3.656h-1.466v-3.094h2.846l-.001 2.719zm-1.465 17.657v2.25h11.04v-2.25h-11.04zm0 3.656v2.25h11.04v-2.25h-11.04zm10.608 5.906l.431-.375v-1.875h-11.04v2.25h10.609zm-8.609-71.218v-1.688h2.329v-4.406h1.639v4.406h2.07v1.688h-2.07v4.594c.115 0 .259-.031.431-.094l1.553-.563v1.875c-.633.188-1.294.407-1.984.656v6.938c.057 1.562-.662 2.374-2.156 2.438h-1.725c0-.188-.03-.47-.086-.845-.058-.438-.116-.75-.173-.938h1.553c.69.062 1.005-.281.949-1.031v-6.093c-.748.25-1.553.532-2.415.844l-.172-1.969c.287-.062.718-.188 1.293-.375l1.294-.281v-5.156h-2.33zm12.42 15.094v-6.281h-3.881c-.172 2.875-.892 5.312-2.156 7.313-.461-.375-.949-.75-1.466-1.125.919-1.377 1.495-2.75 1.725-4.125.287-1.438.431-3.625.431-6.563v-9.469h12.506v18.469c.057 1.688-.72 2.531-2.329 2.531h-1.984c0-.251-.058-.595-.172-1.031-.058-.313-.086-.563-.086-.75.574.062 1.121.094 1.639.094.919.062 1.351-.312 1.294-1.125v-4.219h-3.968v6.281h-1.553zm-3.795-18.563v4.5h3.795v-4.5h-3.795zm0 7.875v2.813h3.795v-4.5h-3.795v1.687zm9.315-7.875h-3.968v4.5h3.968v-4.5zm-3.968 6.188v4.5h3.968v-4.5h-3.968zm6.388 41.937c-.806.938-1.639 2-2.501 3.188l-.863-1.875 2.587-2.813v-7.5h-2.415v-1.781h4.14v9.281c.805 1.563 2.299 2.344 4.485 2.344 2.243.062 6.296.031 12.162-.094l-.604 1.969c-6.268 0-10.235-.062-11.902-.188-2.473 0-4.17-.844-5.089-2.531zm.26 33.125c-.345.375-.662.75-.949 1.125l-1.122-1.219c.459-.438.69-1.062.69-1.875v-8.719h-2.156v-1.781h3.795v10.219l1.122-1.219c.518-.5.862-.844 1.035-1.031.114.688.258 1.313.431 1.875-1.093 1.125-2.042 2.001-2.846 2.625zm.258-14.906c-.345-.437-.806-1.062-1.38-1.875-.633-.812-1.121-1.438-1.466-1.875l1.38-.938c.747.875 1.725 2.095 2.932 3.656l-1.466 1.032zm-.086-31.626c-.92-1.623-1.783-3.062-2.587-4.312l1.38-.844c.747 1.001 1.667 2.376 2.76 4.125l-1.553 1.031zm2.673-1.968v-1.688h13.973v1.688h-5.779c-.575 1.563-1.208 2.938-1.897 4.125h1.121v11.063h-1.725v-10.032c-1.38 2.25-3.335 4.469-5.865 6.656-.345-.499-.748-.999-1.208-1.5 3.737-3 6.296-6.438 7.676-10.313l-6.296.001zm.519 39.218v-9.75h12.42v9.75h-5.434v2.345h6.555v1.593h-5.865c1.437 1.938 3.565 3.595 6.383 4.969-.345.375-.662.844-.949 1.406-2.76-1.376-4.802-3.125-6.124-5.25v6.562h-1.639v-6.562c-1.323 2.125-3.364 3.968-6.124 5.531l-.518-.844c-.23-.313-.403-.563-.518-.75 2.702-1.188 4.858-2.875 6.469-5.063h-5.606v-1.594h6.296v-2.345h-5.346v.002zm.187-70.187v-1.688h6.641c.459-.938.863-1.937 1.208-3l1.897.281c-.172.438-.431 1.031-.776 1.781-.172.438-.288.75-.345.938h11.385v1.688h-12.248c-.172.313-.431.75-.776 1.313l-.776 1.406h11.471v11.907c.057 1.875-.862 2.813-2.76 2.813h-3.278c0-.188-.058-.47-.172-.845-.058-.438-.116-.75-.172-.938h1.208c.747.062 1.322.094 1.725.094 1.208.062 1.753-.438 1.639-1.5v-1.5h-10.609v5.063h-1.725v-11.532c-1.035 1.188-2.156 2.344-3.364 3.469l-.862-1.782c2.816-2.499 4.944-5.156 6.382-7.969h-5.693zm1.365 61.937v2.625h3.795v-2.625h-3.795zm0 4.032v2.625h3.795v-2.625h-3.795zm3.896-61.656v2.625h10.609v-2.625h-10.609zm0 4.219v2.625h10.609v-2.625h-10.609zm5.333 53.405h-3.795v2.625h3.795v-2.625zm-3.796 4.032v2.625h3.795v-2.625h-3.795zm5.52-23.844c-1.61-2.188-3.163-4.031-4.658-5.531l1.294-1.125c1.897 1.938 3.478 3.719 4.744 5.344l-1.38 1.312zm4.497 25.812v-1.688h3.019v-3.75l-2.674.094c-.058-.624-.144-1.156-.259-1.594 2.243-.062 4.628-.25 7.159-.562l.259 1.594c-.806.125-1.754.25-2.846.375v3.844h2.76v1.688h-2.76v2.813l.431-.469.173.188c1.208 1.188 2.098 2.031 2.674 2.531l-1.035 1.406c-.23-.249-.576-.656-1.035-1.22l-1.208-1.312v9.938h-1.639v-10.125c-.69 2.188-1.582 4.125-2.674 5.813 0-.062-.029-.155-.086-.28-.23-.75-.461-1.281-.69-1.595 1.495-2.063 2.645-4.625 3.45-7.688h-3.019zm.431-35.937v-1.688h6.642c.459-.938.862-1.938 1.208-3l1.897.28c-.172.438-.431 1.031-.776 1.781-.172.438-.288.75-.345.938h11.385v1.688h-12.248c-.172.312-.431.75-.776 1.312l-.776 1.406h11.472v11.908c.057 1.875-.863 2.812-2.76 2.812h-3.278c0-.188-.058-.469-.172-.844-.058-.438-.116-.75-.172-.938h1.208c.747.062 1.322.094 1.725.094 1.208.062 1.753-.438 1.639-1.5v-1.5h-10.609v5.062h-1.725v-11.53c-1.035 1.188-2.156 2.344-3.364 3.469l-.863-1.781c2.817-2.499 4.945-5.155 6.383-7.969h-5.695zm5.261 4.313v2.625h10.609v-2.625h-10.609zm0 4.218v2.625h10.609v-2.625h-10.609zm.802-37.531v-1.781h2.674v-4.594h1.725v4.594h4.14v-5.625h1.725v5.625h5.52v-5.625h1.725v5.625h2.933v1.781h-2.933v8.157h-8.97v-8.157h-4.14v12.094h15.611v1.781h-17.336v-13.875h-2.674zm1.442 68.313v-1.594h12.161v1.594h-5.261v3.188h4.744v1.5h-4.744v3.188h5.951v1.5h-13.886v-1.5h6.21v-3.188h-4.744v-1.5h4.744v-3.188h-5.175zm.862-3.938v-6.656h10.436v6.656h-10.436zm1.638-5.062v3.47h7.159v-3.47h-7.159zm6.322-59.313v6.375h5.52v-6.375h-5.52zm7.586 28.437v-1.5h5.865l-1.553-2.062 1.553-.656c.919 1.001 1.581 1.813 1.983 2.438l-.604.28h4.398c.229-.375.604-.904 1.121-1.594.345-.498.574-.844.69-1.031l1.725.563c-.172.188-.431.531-.776 1.031-.345.438-.604.782-.776 1.03h5.606v1.5h-6.296v4.875h6.986v1.5h-20.612v-1.5h7.072v-4.875h-6.382zm3.536 4.313c-.288-.438-1.064-1.343-2.329-2.719l1.208-.938c.977 1 1.753 1.845 2.329 2.531l-1.208 1.126zm1.294 45.313c-1.841-.188-2.876-1.281-3.105-3.28.172-2.124 1.208-3.281 3.105-3.47 1.954.188 3.019 1.346 3.191 3.47-.172 1.997-1.237 3.092-3.191 3.28zm-2.759-31.25v-9.938h15.093v9.938h-1.725v-1.03h-11.644v1.03h-1.724zm2.759 25.906c-1.093.126-1.697.813-1.811 2.063.114 1.062.718 1.653 1.811 1.78 1.149-.127 1.782-.718 1.897-1.78-.115-1.251-.747-1.937-1.897-2.063zm-1.035-34.344v2.344h11.644v-2.344h-11.644zm0 3.75v2.25h11.644v-2.25h-11.644zm15.281-27.405v-7.405h1.725c-1.496-.812-2.991-2.031-4.485-3.657h-.345c-1.266 1.313-2.732 2.532-4.399 3.657h1.639c.057.938 0 1.78-.172 2.53-.23 2.001-1.582 3.688-4.054 5.063-.116-.063-.259-.188-.431-.375-.116-.126-.431-.407-.948-.844 2.242-1.125 3.478-2.405 3.708-3.845.173-.688.229-1.53.173-2.53-1.438.938-3.105 1.78-5.002 2.53-.058-.188-.202-.469-.431-.844-.172-.375-.317-.624-.431-.75 3.391-1.25 6.093-2.781 8.106-4.594h-5.95v-10.219h16.731v10.219h-6.037c1.781 1.75 4.485 3.126 8.107 4.125l-.259.562c-.289.501-.461.876-.518 1.125-1.956-.624-3.623-1.344-5.002-2.155v7.405h-1.725zm-11.055 13.717v4.875h3.191v-4.875h-3.191zm1.395-33.405v2.812h5.865v-2.812h-5.865zm0 4.218v2.813h5.865v-2.813h-5.865zm8.697 30.781l-2.501 2.719-1.121-1.031 1.121-1.219c.574-.688.977-1.155 1.208-1.406l1.293.937zm4.672-34.999h-5.865v2.812h5.865v-2.812zm-5.865 4.218v2.813h5.865v-2.813h-5.865zm6.216 31.719v-1.688h2.76v-4.875h1.639v4.875h2.501v1.688h-2.501v4.594l2.76-.655c0 .688.028 1.312.086 1.875-.92.188-1.869.407-2.846.655v6.656c0 1.625-.69 2.438-2.07 2.438-.461.062-1.093.094-1.897.094-.058-.25-.116-.656-.172-1.219-.116-.313-.172-.563-.172-.75h.69c.345.062.632.094.862.094.805 0 1.178-.344 1.121-1.031v-5.905c-.978.312-1.897.562-2.76.75l-.259-1.97 3.019-.655v-4.97l-2.761-.001zm6.312-35.094v-1.781h7.331v1.781h-2.501v15.562c.114 1.625-.689 2.469-2.415 2.531h-1.812c0-.501-.116-1.125-.345-1.875.69.062 1.264.094 1.725.094.862.062 1.264-.343 1.207-1.219v-15.093h-3.19zm.33 49.812v-1.594h7.245c1.554-5.687 2.559-9.687 3.02-12l1.812.469c-1.38 5.188-2.415 9.032-3.104 11.531h5.089v1.594h-14.062zm1.207-15.468v-1.781h5.692l-.776-2.53c-.173-.5-.289-.874-.345-1.125l1.726-.375c.172.562.459 1.376.861 2.438.115.563.229.97.345 1.22l-1.639.375h6.296v1.78l-12.16-.002zm2.933 12c-.69-3.874-1.352-7.062-1.984-9.562l1.639-.469.518 2.25c.69 3 1.208 5.406 1.553 7.219l-1.726.562zm15.194-27.687c-1.034-.938-2.817-2.499-5.348-4.688.115.126 0 .032-.345-.281-.748 2.063-2.962 3.845-6.642 5.345-.345-.626-.689-1.188-1.034-1.688 2.875-1.062 4.714-2.188 5.52-3.375.919-1.187 1.38-3.219 1.38-6.094l.086-2.156h1.64l-.086 2.156c0 1.563-.116 2.969-.346 4.219.69.563 1.753 1.438 3.191 2.625 1.495 1.188 2.559 2.03 3.192 2.531l-1.208 1.406zm-11.643-19.313v-1.688h12.594v1.688h-5.865l-.69 3.094h5.607v11.344h-1.64v-9.75h-7.935v9.844h-1.726v-11.438h3.968l.689-3.094h-5.002zm9.398 35.656v-1.688h2.587v-4.688h1.639v4.688h2.156v1.688h-2.156v4.125c.633-.375 1.294-.688 1.984-.938 0 .875.027 1.5.086 1.875h14.23v1.5h-6.21v2.625h5.435v1.5h-5.435v2.905h6.469c-.173.563-.315 1.093-.432 1.595h-6.469c-2.53-.063-4.284-1.095-5.261-3.095-.461 1.313-1.294 2.593-2.501 3.845-.116-.127-.317-.281-.604-.47-.288-.25-.518-.438-.688-.562 1.896-1.812 2.933-4.28 3.104-7.406l1.553.281c-.058.812-.173 1.562-.345 2.25.919 2.126 2.098 3.249 3.536 3.375v-6.845h-6.469v-1.5c-.69.25-1.353.563-1.984.938v7.031c.057 1.688-.661 2.562-2.156 2.625-.575.062-1.121.094-1.639.094-.058-.75-.172-1.375-.345-1.875h1.467c.688.062 1.034-.313 1.034-1.125v-6.094l-2.675 1.219-.172-1.969c.287-.125.776-.312 1.467-.563.573-.249 1.034-.437 1.38-.562v-4.781h-2.586v.002zm7.52-23.468h-.346l-.604-1.688c.401-.188.919-.75 1.554-1.688.632-.812 1.264-1.781 1.896-2.906-1.151.063-2.242.157-3.277.281l-.518-1.688c.345-.375.746-.968 1.207-1.781.805-1.313 1.695-3.094 2.674-5.344l1.727.656c-.06.126-.146.281-.26.469-1.438 2.625-2.56 4.594-3.363 5.906h1.208c.746-.062 1.293-.094 1.639-.094l.776-1.406c.286-.563.518-.999.688-1.313l1.553.75c-1.093 1.875-2.79 4.532-5.089 7.969.401 0 1.035-.062 1.897-.188.978-.062 1.695-.125 2.156-.188-.116.75-.174 1.282-.174 1.594-1.838.189-3.619.41-5.344.659zm5.261 3.938c-2.014.313-4.054.72-6.123 1.22l-.346-1.688c.69-.125 1.868-.375 3.536-.75 1.265-.249 2.243-.437 2.933-.563v1.781zm-4.932 22.624v-8.438h10.954v8.438h-10.954zm1.639-7.032v2.063h7.677v-2.063h-7.677zm0 3.469v2.062h7.677v-2.062h-7.677zm12.091-19.624c-1.381 1.437-3.05 2.78-5.004 4.03-.229-.312-.604-.844-1.12-1.594 2.241-1.25 3.881-2.531 4.915-3.844-1.438-1.938-2.529-4.219-3.276-6.844-.172 4.688-1.496 8.658-3.968 11.906-.115-.125-.346-.345-.689-.655-.288-.313-.518-.532-.689-.656 1.494-1.937 2.502-3.938 3.02-6 .573-2.063.862-5.157.862-9.282v-2.438h-1.812v-1.688h10.608v1.781l-2.069 4.688h3.622v1.688c-.806 2.938-1.896 5.438-3.277 7.5 1.207 1.312 2.702 2.438 4.485 3.375-.346.562-.69 1.155-1.035 1.781-1.843-1.249-3.366-2.497-4.573-3.748zm-4.313-13.594v1.594c1.092 3.938 2.501 7 4.226 9.188 1.093-1.688 2.014-3.718 2.762-6.094h-3.623v-1.781l2.069-4.688h-5.434v1.781zm8.89 43.531l1.294-1.125 4.484 5.344-1.38 1.313-4.398-5.532zm4.673-26.187v-18.282h2.328c.173-.624.401-1.531.689-2.719.115-.5.201-.844.259-1.031l1.812.281c-.346 1.375-.662 2.531-.949 3.469h4.054v18.094h-1.725v-1.781h-4.744v1.97h-1.724zm1.724-16.594v5.625h4.744v-5.625h-4.744zm0 7.312v5.719h4.744v-5.719h-4.744zm13.542 9.095h-3.623c-.058-.251-.115-.626-.172-1.125-.116-.312-.173-.562-.173-.75h3.449c1.667.124 2.501-.688 2.501-2.438.174-5.563.26-9.594.26-12.094h-5.521c-.575 1.375-1.149 2.625-1.725 3.75-.461-.375-.948-.718-1.466-1.031 1.207-2.124 2.271-4.875 3.189-8.25l1.727.469c-.116.501-.316 1.188-.604 2.063-.229.563-.375.97-.432 1.219h6.642v1.5c-.116 5.813-.229 10.031-.346 12.656-.056 2.623-1.291 3.967-3.706 4.031zm-1.467-6.563c-1.035-1.688-2.128-3.343-3.277-4.969l1.294-1.031c.172.25.46.625.862 1.125 1.092 1.562 1.954 2.812 2.588 3.75l-1.467 1.125zM60.636 86.411v-21.563c-.781 1.558-1.616 3.175-2.507 4.852-.334-2.274-.781-4.492-1.337-6.648 2.784-5.391 4.901-11.859 6.35-19.406l4.512.719c-.893 3.354-1.838 6.589-2.841 9.703v32.344l-4.177-.001zm16.043-28.93v-3.773h7.019v-2.695h-5.348v-3.773h5.348v-3.594h4.178v3.594h7.353v6.469h2.171v3.773h-2.172v6.469h-7.353v2.695h7.854v3.773h-7.854v2.695h8.355v3.594h-8.355v4.313h9.692c0 .121-.112.359-.334.719-.446 1.676-.781 2.875-1.002 3.594-5.794 0-9.75-.062-11.865-.18-5.906-.242-9.972-1.558-12.199-3.953-1.115 1.676-2.619 3.532-4.512 5.57-.112-.359-.392-.898-.835-1.617-.668-1.078-1.17-1.977-1.504-2.695 1.671-1.555 3.008-3.172 4.011-4.852-1.449-2.274-2.564-5.211-3.342-8.805l3.008-2.156c.556 2.398 1.279 4.492 2.172 6.289.668-2.274 1.112-5.031 1.337-8.266h-5.682v-4.492l5.347-8.625h-4.679v-4.312h9.191v4.492l-5.181 8.445h5.013v1.797c-.334 7.07-1.169 12.16-2.506 15.273 2.005 2.277 5.235 3.476 9.692 3.594v-4.133h-6.852v-3.594h6.852v-2.695h-6.016v-3.773h6.016v-2.696h-5.515v-3.594h5.515v-2.875h-7.018zm14.705-6.469h-3.509v2.695h3.509v-2.695zm-3.509 9.344h3.509v-2.875h-3.509v2.875zm44.554 25.516h-7.186c-.225-1.438-.501-2.937-.835-4.492h6.183c2.227 0 3.285-.958 3.175-2.875v-4.133c-6.909 4.313-16.042 8.266-27.406 11.859-.225-.719-.726-1.917-1.504-3.594-.334-.48-.559-.898-.668-1.258 8.577-1.915 15.93-4.551 22.058-7.906h-21.724v-4.492h4.846v-21.203h9.358c.11-.477.334-1.196.668-2.156l.501-2.156 5.682.539-1.504 3.773h14.372v17.609c.222-.118.556-.359 1.002-.719.556-.359 1.447-1.078 2.674-2.156l2.507 4.133c-2.005 1.558-4.068 3.055-6.183 4.492v8.445c.222 4.192-1.784 6.29-6.016 6.29zm-18.215-33.782v3.234h19.552v-3.234h-19.552zm0 6.828v3.234h19.552v-3.234h-19.552zm0 6.829v3.234h19.552000000000003v-3.234h-19.552zm39.029 8.984v-23h15.375v-8.266h5.347v8.266h15.542v22.82h-5.348v-2.336h-10.194v14.555h-5.347v-14.555h-10.027v2.516h-5.348zm5.348-17.789v10.063h10.027v-10.063h-10.027zm25.568 0h-10.194v10.063h10.194v-10.063zm22.328 5.031c-1.449 6.351-2.673 11.082-3.676 14.195-1.002-.477-2.674-1.137-5.013-1.977 1.446-4.192 3.008-9.883 4.679-17.07l4.846 1.617c-.225.72-.502 1.798-.836 3.235zm9.358 23.18c-4.792.118-7.131-2.336-7.019-7.367v-24.438h5.347v23.18c-.112 2.516 1.003 3.714 3.342 3.594h4.512c2.115.121 3.397-1.016 3.843-3.414.334-1.797.556-3.773.668-5.93 1.893.719 3.676 1.378 5.348 1.977-.225 2.757-.668 5.211-1.337 7.367-.668 3.353-3.175 5.031-7.52 5.031h-7.184zm6.35-27.852c-4.011-4.071-7.353-7.367-10.026-9.883l3.509-3.953c3.564 3.117 6.961 6.23 10.193 9.344l-3.676 4.492zm11.865 15.992c-1.562-3.711-3.956-8.563-7.186-14.555l4.679-2.516c.444.839.611 1.14.501.898 3.452 6.351 5.737 10.781 6.852 13.297l-4.846 2.876z"/><path fill="#79D4FB" d="M272.013 35.661c-.174-.188-.523-.53-1.046-1.031l-.61-.656c-.698 1-1.831 2.281-3.4 3.844-.117-.126-.32-.375-.61-.75-.408-.625-.728-1.063-.959-1.313 1.452-1.187 2.557-2.375 3.313-3.563-.989-1.062-1.918-2-2.79-2.813.464-2.187.872-4.531 1.221-7.031h-1.482v-2.25h1.744c.174-1.437.349-2.937.523-4.5l2.354.281-.61 4.219h3.662v2.156c-.233 4.188-.815 7.345-1.744 9.469l2.005 1.969-1.571 1.969zm-2.18-5.625c.698-1.688 1.134-4.25 1.308-7.688h-1.831c-.117 1.125-.379 2.719-.785 4.781-.117.688-.205 1.188-.262 1.5l1.57 1.407zm4.099-2.344v-2.25h12.032v2.25h-4.883l-.087 1.969h5.58v2.438h-4.883c.929 1.688 2.645 2.813 5.144 3.375-.582 1.062-1.018 1.906-1.308 2.531-2.849-1.188-4.738-2.75-5.667-4.688-.756 1.938-2.849 3.563-6.278 4.875-.466-.876-.93-1.688-1.395-2.438 3.139-.875 5.057-2.093 5.754-3.656h-4.708v-2.438h5.231c.116-.563.174-1.219.174-1.969l-4.706.001zm.523-3.937v-7.125h10.985v7.125h-10.985zm2.354-4.781v2.531h6.19v-2.531h-6.19zm20.288 11.343c-1.687 2.625-3.343 4.844-4.97 6.656-.756-.75-1.454-1.313-2.093-1.688 1.569-1.688 3.167-3.812 4.795-6.375l2.268 1.407zm-5.667-2.25l1.133-10.781c4.999 0 10.346-.281 16.042-.844l.784 2.625c-4.302.438-9.098.719-14.386.844l-.61 5.531h5.231v-4.406h2.79v4.406h7.759v2.625h-7.759v6.188c.116 2.375-.902 3.53-3.052 3.469-1.164.125-2.238.188-3.226.188-.059-.375-.174-1.063-.349-2.063-.059-.313-.117-.563-.174-.75.755.063 1.657.094 2.703.094.929.063 1.365-.469 1.308-1.594v-5.531l-8.194-.001zm17.437 8.813c-1.338-1.812-2.907-3.938-4.708-6.375l2.005-1.5c1.278 1.5 2.964 3.595 5.057 6.281l-2.354 1.594zm10.078-1.5c-.467.563-.872 1.093-1.222 1.594l-1.655-1.969c.522-.624.754-1.343.696-2.156v-7.125h-2.18v-2.625h4.708v8.625l1.918-2.156c.115.501.349 1.188.697 2.063.058.25.116.438.175.563-.696.687-1.742 1.749-3.137 3.186zm-.261-13.875c-.931-1.374-1.918-2.813-2.964-4.313l2.268-1.406c.23.313.552.75.959 1.313.405.501 1.104 1.438 2.092 2.813l-2.355 1.593zm9.241 13.781c-1.802 1.062-4.04 1.999-6.713 2.813-.117-.25-.349-.656-.697-1.219-.292-.563-.522-.97-.697-1.219 2.44-.624 4.417-1.343 5.928-2.156-1.22-1.313-2.354-2.968-3.399-4.969l1.133-.75h-1.83v-2.438h12.556v2.625c-1.105 2.188-2.472 4.031-4.099 5.531 1.686.938 3.545 1.563 5.579 1.875-.406.812-.843 1.655-1.308 2.531-2.616-.812-4.768-1.686-6.453-2.624zm-2.005-15.75c.175 2.188-.989 3.938-3.487 5.25l-1.831-1.969c2.094-.938 3.053-2.312 2.878-4.125v-2.156h9.415v3.75c-.059.813.319 1.188 1.135 1.125h1.831l-.437 2.531h-2.529c-1.687 0-2.527-.812-2.527-2.438v-2.438h-4.446l-.002.47zm-1.221 8.25c.872 1.688 1.947 3.094 3.226 4.219 1.162-.938 2.324-2.344 3.488-4.219h-6.714zm28.126 6.094v-6.656l-2.006.469v6c-.06 1.125.465 1.688 1.568 1.688h3.837c1.047 0 1.656-.406 1.83-1.219 0-.125.029-.312.088-.563l.263-1.406c.639.313 1.308.563 2.005.75-.06.563-.204 1.251-.437 2.063-.059.25-.088.405-.088.469-.231 1.374-1.278 2.03-3.139 1.969h-5.318c-1.918.062-2.849-.938-2.79-3v-6.281l-1.046.188-.175-2.25 1.221-.281v-2.25l-.262.281c-.521-.687-1.104-1.313-1.743-1.875l.263-.281h-3.662v2.906h3.836c0 .625-.03 1.594-.087 2.906-.06 3.126-.117 5.282-.176 6.469.059 2.25-.783 3.406-2.527 3.469-.581 0-1.191.031-1.831.094-.06-.188-.117-.438-.174-.75-.176-.688-.292-1.157-.35-1.406-.292.687-.698 1.562-1.221 2.625l-1.744-1.875c1.278-2.124 1.947-5.25 2.005-9.375v-2.344c.059-1.187.088-2.093.088-2.719h-1.568v-2.438h3.312c-.059-.375-.174-.938-.349-1.688-.174-.687-.32-1.219-.437-1.594l2.528-.281c.231 1 .465 2.188.697 3.563h2.18v1.875c1.221-1.625 2.18-3.437 2.877-5.438l2.616.094c-.292.876-.61 1.688-.959 2.438h8.195v2.344h-9.504c-.466.938-1.047 1.813-1.743 2.625h1.918v2.063l2.006-.375v-3.656h2.18v3.094l4.359-.938c0 2.25-.06 4.282-.175 6.094-.06 1.626-.642 2.5-1.744 2.625-.407.063-1.046.094-1.918.094-.175-.688-.32-1.406-.437-2.156h1.134c.58 0 .9-.312.959-.938.058-.5.088-1.468.088-2.906l-2.268.562v7.125h-2.178v-.003zm-8.021-3.563c.058-1.625.087-2.78.087-3.469h-1.742c-.06 3.688-.438 6.469-1.135 8.344h1.482c.812.063 1.221-.437 1.221-1.5.056-.562.087-1.687.087-3.375z"/></svg>