<?xml version="1.0" encoding="utf-8"?>
<!-- Generator: Adobe Illustrator 16.0.0, SVG Export Plug-In . SVG Version: 6.00 Build 0)  -->
<!DOCTYPE svg PUBLIC "-//W3C//DTD SVG 1.1//EN" "http://www.w3.org/Graphics/SVG/1.1/DTD/svg11.dtd">
<svg version="1.1" id="图层_1" xmlns="http://www.w3.org/2000/svg" xmlns:xlink="http://www.w3.org/1999/xlink" x="0px" y="0px"
	 width="640px" height="320px" viewBox="0 -17.01 640 320" enable-background="new 0 -17.01 640 320" xml:space="preserve">
<g>
	<path fill="#4CC2F8" d="M381.145,134.891v-3.394h-6.897v-2.83l7.312-10.708h2.717v10.698h2.095v2.841h-2.095v3.394L381.145,134.891
		L381.145,134.891z M381.145,128.657v-5.763l-3.875,5.763H381.145z"/>
	<path fill="#FFFFFF" d="M60.3,216.239c-0.806,1.5-1.466,2.625-1.984,3.375c-0.058-0.375-0.202-0.905-0.431-1.594
		c-0.058-0.312-0.116-0.53-0.173-0.656c1.954-3.188,3.479-6.812,4.571-10.875l1.725,0.562c-0.518,1.688-1.093,3.281-1.725,4.781
		v17.157h-1.639v-13.312C60.587,215.801,60.473,215.99,60.3,216.239L60.3,216.239z M60.904,255.832
		c-0.288,1.626-0.92,3.312-1.897,5.062c-0.403-0.5-0.834-1.029-1.293-1.594c0.862-1.5,1.408-2.938,1.639-4.312
		c0.229-1.312,0.345-3.499,0.345-6.562V239.8h15.611v10.5c0,4.312,0.201,6.906,0.604,7.78c0.115,0.375,0.315,0.53,0.604,0.47
		c0.229,0,0.373-0.221,0.431-0.656c0.172-1.625,0.287-2.904,0.345-3.844c0.459,0.188,0.949,0.375,1.466,0.562
		c-0.116,1.688-0.289,2.938-0.518,3.75c-0.23,1.5-0.892,2.25-1.984,2.25c-0.92-0.062-1.582-0.719-1.984-1.969
		c-0.461-1.125-0.69-3.905-0.69-8.346v-8.72H61.421v6.656C61.421,251.677,61.249,254.208,60.904,255.832L60.904,255.832z
		 M58.575,292.613v-18.281h2.329c0.173-0.625,0.402-1.53,0.69-2.719c0.114-0.5,0.201-0.845,0.258-1.031l1.812,0.281
		c-0.345,1.375-0.662,2.53-0.949,3.469h4.054v18.095h-1.725v-1.781H60.3v1.971L58.575,292.613L58.575,292.613z M60.3,276.019v5.625
		h4.744v-5.625H60.3z M60.3,283.332v5.72h4.744v-5.72H60.3z M71.771,258.269c-0.403-0.5-1.007-1.344-1.811-2.529
		c-0.92-1.5-1.639-2.593-2.156-3.281c-1.438,2.127-3.105,4.157-5.003,6.094c-0.116-0.125-0.316-0.312-0.604-0.562
		c-0.345-0.312-0.576-0.53-0.69-0.656c2.185-2.375,3.938-4.528,5.261-6.469l-4.485-6.472l1.38-1.028l4.14,5.903
		c1.091-1.688,2.213-3.777,3.364-6.278l1.466,0.844c-1.207,2.625-2.473,4.97-3.795,7.031c1.035,1.376,2.415,3.406,4.14,6.094
		c-0.116-0.125-0.03,0,0.259,0.375L71.771,258.269z M63.664,227.769v-1.594h7.59c1.725-5.125,2.989-9.188,3.795-12.188l1.811,0.562
		c-1.438,4.562-2.703,8.438-3.795,11.624h5.692v1.594H63.664V227.769z M64.268,212.489v-1.782h6.642
		c-0.576-1.625-1.007-2.906-1.294-3.844l1.812-0.375c0.172,0.562,0.459,1.438,0.862,2.625c0.173,0.562,0.315,1,0.432,1.312
		l-1.293,0.28h6.727v1.781L64.268,212.489L64.268,212.489z M68.063,224.208c-0.806-3.375-1.697-6.594-2.674-9.657l1.726-0.562
		c0.287,1,0.747,2.594,1.38,4.781c0.632,2.25,1.091,3.875,1.38,4.873L68.063,224.208z M73.841,292.427c-1.208,0-2.415,0-3.622,0
		c-0.058-0.252-0.116-0.627-0.173-1.125c-0.116-0.312-0.172-0.562-0.172-0.75c1.092,0,2.243,0,3.45,0
		c1.667,0.123,2.501-0.688,2.501-2.438c0.172-5.563,0.259-9.595,0.259-12.095h-5.52c-0.575,1.375-1.151,2.625-1.725,3.75
		c-0.461-0.375-0.949-0.719-1.466-1.03c1.207-2.124,2.271-4.875,3.191-8.25l1.725,0.469c-0.116,0.501-0.317,1.188-0.604,2.062
		c-0.23,0.562-0.375,0.972-0.431,1.221h6.641c0,0.312,0,0.812,0,1.5c-0.116,5.812-0.23,10.029-0.345,12.654
		C77.492,291.019,76.256,292.361,73.841,292.427L73.841,292.427z M72.375,285.863c-1.035-1.688-2.127-3.345-3.277-4.97l1.294-1.03
		c0.172,0.25,0.459,0.625,0.862,1.125c1.092,1.562,1.954,2.812,2.587,3.75L72.375,285.863z M80.982,274.238v-1.595h9.66
		c-0.172-0.688-0.345-1.346-0.518-1.971l1.897-0.279l0.518,2.25h9.229v1.595H80.982z M83.351,209.957v-1.875h17.336v1.875h-7.504v6
		h9.142v1.875h-9.142v7.312c0.114,2.25-0.892,3.375-3.019,3.375c-1.093,0-2.242,0-3.45,0c-0.058-0.75-0.172-1.438-0.345-2.062
		c0.574,0.062,1.609,0.095,3.105,0.095c1.322,0.123,1.926-0.5,1.812-1.875v-6.845h-9.661v-1.875h9.661v-6H83.351z M82.104,292.802
		v-10.595h18.543v7.781c0.057,1.748-0.748,2.625-2.415,2.625c-0.862,0-1.841,0-2.932,0c-0.116-0.563-0.23-1.125-0.345-1.688
		c0.518,0.062,1.322,0.096,2.415,0.096c1.149,0.062,1.695-0.375,1.639-1.312v-6h-15.18v9.094H82.104L82.104,292.802z
		 M87.106,256.769c0,2.188-0.748,3.812-2.243,4.875l-0.776-0.844c1.035-0.812,1.581-2.031,1.639-3.656H84.26v-3.094h2.846
		C87.106,254.552,87.106,255.457,87.106,256.769L87.106,256.769z M84.433,280.519v-4.688h13.973v4.688H84.433z M86.071,277.238
		v1.969H96.68v-1.969H86.071z M86.675,290.177v-4.781h9.401v4.781H86.675z M88.314,286.707v2.25h6.21v-2.25H88.314z
		 M103.856,241.863v-1.781h17.164v1.781h-7.935c-0.058,1.938-0.202,3.719-0.432,5.344h9.919v1.875h-8.107v7.5
		c-0.116,1.312,0.518,1.906,1.897,1.781h2.415c1.208,0.125,1.868-0.438,1.984-1.688c0.114-0.998,0.172-1.937,0.172-2.812
		c0.287,0.126,0.718,0.278,1.293,0.469c0.229,0.062,0.402,0.126,0.518,0.188c-0.058,0.312-0.086,0.688-0.086,1.125
		c-0.116,0.875-0.23,1.562-0.345,2.062c-0.23,1.688-1.323,2.499-3.277,2.438h-3.278c-2.07,0.062-3.077-1-3.019-3.188v-7.875h-0.518
		c-0.862,5.001-3.825,8.972-8.884,11.906l-1.293-1.595c4.772-2.625,7.56-6.062,8.366-10.312h-8.194v-1.874h8.539
		c0.287-1.625,0.459-3.403,0.518-5.344H103.856L103.856,241.863z M122.365,279.677c-0.23-0.188-0.806-0.47-1.725-0.845l1.898-3.469
		h-13.11c-0.978,1.75-2.242,3.5-3.795,5.25c-0.172-0.125-0.403-0.344-0.69-0.656c-0.289-0.312-0.518-0.528-0.69-0.655
		c2.415-2.625,4.254-5.562,5.52-8.812l1.897,0.375c-0.116,0.188-0.259,0.5-0.431,0.938c-0.116,0.312-0.375,0.875-0.776,1.688h14.059
		v1.97L122.365,279.677z M111.239,281.177c-1.668,3.438-3.45,6.53-5.348,9.28c-0.461-0.375-1.007-0.718-1.639-1.03
		c2.299-3.125,4.024-6.125,5.175-9L111.239,281.177L111.239,281.177z M109.064,209.864c-0.748,1.125-1.639,2.156-2.674,3.094
		c-0.575-0.624-0.979-1.03-1.208-1.219c1.839-1.625,3.162-3.438,3.968-5.438l1.811,0.188c-0.058,0.126-0.144,0.312-0.259,0.562
		c-0.289,0.625-0.547,1.063-0.776,1.313h5.951v1.5h-4.313c0.287,0.312,0.661,0.781,1.122,1.406c0.229,0.312,0.401,0.53,0.518,0.655
		l-1.38,0.655l-1.811-2.438l0.518-0.279L109.064,209.864L109.064,209.864z M114.843,222.802c-2.014,2.5-4.946,4.405-8.798,5.72
		c-0.172-0.562-0.46-1.125-0.862-1.688c3.737-0.998,6.469-2.531,8.194-4.594h-6.641l0.862-5.345h7.245v-2.438h-7.504v-1.5h16.732
		v5.438h-7.59v2.345h8.625c0,1.062-0.058,2.312-0.172,3.75c-0.058,1.812-1.093,2.719-3.105,2.719c-0.92,0-1.841,0-2.76,0
		c-0.058-0.562-0.172-1.093-0.345-1.594c0.862,0.062,1.811,0.094,2.846,0.094c1.035,0.062,1.609-0.406,1.725-1.406
		c0-0.125,0-0.403,0-0.844c0.057-0.562,0.086-0.969,0.086-1.219h-6.9v6.75h-1.639L114.843,222.802L114.843,222.802z
		 M109.064,218.396l-0.431,2.344h6.21v-2.344H109.064z M112.877,292.613c-0.633,0-1.496,0-2.587,0
		c-0.116-0.688-0.259-1.377-0.431-2.063c0.459,0.062,1.264,0.096,2.415,0.096c1.264,0.062,1.84-0.438,1.725-1.5v-12.377h1.812v12.75
		C115.982,291.644,115.004,292.675,112.877,292.613L112.877,292.613z M118.379,209.864c-0.518,0.938-1.151,1.812-1.897,2.625
		c-0.461-0.438-0.892-0.812-1.294-1.125c1.553-1.688,2.616-3.375,3.191-5.063l1.725,0.188c-0.23,0.688-0.518,1.312-0.863,1.875
		h6.642v1.5h-4.83l1.811,2.062l-1.38,0.656c-0.172-0.249-0.489-0.656-0.949-1.219c-0.461-0.5-0.806-0.875-1.035-1.125l0.604-0.375
		L118.379,209.864L118.379,209.864z M122.347,214.457h-5.865v2.438h5.865V214.457z M123.228,290.177
		c-1.266-2.375-2.962-5.312-5.089-8.812l1.552-0.938c1.322,2.062,3.076,4.938,5.261,8.625L123.228,290.177z M128.506,260.144
		c-0.172,0.188-0.289,0.313-0.345,0.375l-1.208-1.594c0.46-0.5,0.69-1.062,0.69-1.688v-9.094h-2.501v-1.688h4.226v10.875
		c1.208-0.938,2.127-1.718,2.76-2.344c0.057,0.438,0.172,1.001,0.345,1.688c0.057,0.125,0.086,0.22,0.086,0.28
		c-0.46,0.313-1.208,0.845-2.242,1.595c-0.518,0.375-0.893,0.655-1.122,0.845C129.024,259.519,128.793,259.769,128.506,260.144
		L128.506,260.144z M129.283,243.927c-0.748-1.125-1.755-2.469-3.019-4.031l1.38-1.029c1.322,1.5,2.385,2.812,3.191,3.938
		L129.283,243.927z M128.902,276.302v-1.781h7.935c0.057-1.062,0.086-2.375,0.086-3.938h1.812v3.938h7.935v1.781h-8.021
		c0,0.688-0.03,1.594-0.086,2.719c0,0.812,0,1.375,0,1.688h9.314v1.781h-8.97c1.149,4.251,4.226,6.971,9.229,8.154
		c-0.23,0.312-0.547,0.846-0.949,1.596c-0.116,0.124-0.172,0.218-0.172,0.279c-5.118-1.562-8.193-4.404-9.229-8.529
		c-0.92,3.876-3.939,6.812-9.056,8.812c-0.116-0.127-0.259-0.346-0.432-0.654c-0.345-0.438-0.604-0.782-0.776-1.031
		c5.52-2.124,8.48-5,8.884-8.625h-8.798v-1.783h9.057c0.114-1.5,0.172-2.968,0.172-4.406H128.902L128.902,276.302z M146.101,246.177
		c-0.345,0.562-0.662,1.125-0.949,1.688l0,0c-2.76-1.875-4.945-4.093-6.555-6.656c-1.61,2.563-3.825,4.844-6.641,6.844
		c-0.172-0.312-0.489-0.812-0.949-1.5l-0.086-0.094c3.334-2.187,5.749-4.843,7.245-7.969l1.897,0.279l-0.518,0.938
		C141.271,242.458,143.456,244.614,146.101,246.177L146.101,246.177z M135.651,227.019h1.811v-19.03h-1.294
		c-0.748,2.001-2.444,3.654-5.088,4.969v1.969c1.781-0.75,3.306-1.748,4.571-3V227.019z M136.959,260.144
		c-2.186,0.125-3.221-0.938-3.105-3.188v-9.375h1.639v4.5c2.53-1.062,4.83-2.468,6.9-4.219l1.121,1.5
		c-2.531,1.875-5.204,3.406-8.021,4.594v2.719c-0.116,1.188,0.546,1.75,1.984,1.688h3.364c1.207,0.062,1.868-0.47,1.983-1.595
		c0.229-1.062,0.373-2.123,0.431-3.188l1.725,0.562c-0.116,1.002-0.289,2.222-0.518,3.656c-0.345,1.562-1.466,2.344-3.363,2.344
		h-4.14V260.144z M155.847,221.864c-0.116-2.438-1.323-4.032-3.622-4.782c1.897-0.75,2.875-2.156,2.932-4.219
		c-0.116-3.125-1.811-4.749-5.088-4.875c-2.876,0.062-4.658,1.626-5.348,4.688l1.897,0.656c0.401-2.312,1.581-3.5,3.536-3.562
		c1.84,0.062,2.817,1.095,2.933,3.095c-0.116,2.312-1.41,3.501-3.881,3.562c-0.345,0-0.633,0-0.862,0v1.688c0.229,0,0.747,0,1.552,0
		c2.472,0.126,3.795,1.312,3.968,3.562c0,2.625-1.294,3.938-3.881,3.938c-2.128,0-3.364-1.279-3.709-3.844l-1.983,0.562
		c0.69,3.312,2.644,4.97,5.865,4.97C153.777,227.114,155.674,225.302,155.847,221.864L155.847,221.864z M148.671,246.644v-1.875
		h9.057c0.114-1.437,0.172-3.497,0.172-6.188h1.897c0,1.5-0.058,3.562-0.172,6.188h9.143v1.875h-9.057
		c0.805,5.753,3.938,9.722,9.402,11.906c-0.576,0.812-1.007,1.438-1.294,1.875c-5.002-2.373-8.021-6-9.057-10.875
		c-0.806,4.752-3.795,8.502-8.97,11.25l-1.294-1.688c5.692-2.874,8.711-7.031,9.056-12.469H148.671L148.671,246.644z
		 M150.62,274.519v-1.688h6.9v1.688h-2.587v5.812h2.242v1.688h-2.242v6.375c0.919-0.188,1.811-0.375,2.674-0.562
		c0,0.562,0,1.188,0,1.875c-0.23,0.062-0.547,0.126-0.949,0.188c-2.76,0.312-4.716,0.623-5.865,0.938l-0.259-1.779
		c0.115,0,0.287-0.031,0.518-0.096c0.977-0.062,1.725-0.152,2.243-0.279v-6.656h-2.415v-1.688h2.415v-5.812h-2.675V274.519
		L150.62,274.519z M170.975,289.519c-0.23,0.312-0.403,0.531-0.518,0.656c-2.646-2.438-4.457-5.25-5.434-8.438v7.875
		c0.114,1.875-0.806,2.812-2.76,2.812c-0.23,0-0.604,0.03-1.121,0.094c-0.518,0-0.892,0-1.121,0
		c-0.058-0.688-0.145-1.312-0.259-1.875c0.172,0,0.518,0.031,1.035,0.097c0.518,0,0.863,0,1.035,0
		c1.092,0.062,1.609-0.472,1.553-1.597v-4.028c-1.725,1.251-3.364,2.438-4.917,3.562l-0.862-1.688
		c2.242-1.373,4.168-2.655,5.779-3.844v-6.656h-5.348V274.8h5.348v-4.125h1.639v4.125h6.124v1.688h-6.124v0.75
		c0.401,1.812,0.891,3.375,1.466,4.688c0.919-0.938,1.954-2.154,3.105-3.654l1.293,1.125c-1.208,1.438-2.444,2.75-3.708,3.938
		c0.919,1.812,2.357,3.625,4.313,5.438C171.376,288.894,171.204,289.144,170.975,289.519L170.975,289.519z M160.538,283.144
		c-0.403-0.688-0.978-1.719-1.725-3.094c-0.289-0.437-0.489-0.781-0.604-1.031l1.294-0.75c0.862,1.188,1.695,2.531,2.501,4.031
		L160.538,283.144z M162.509,222.989c-0.403,1.938-1.18,3.904-2.329,5.904c-0.461-0.562-0.863-1.096-1.208-1.594
		c0.977-1.812,1.609-3.528,1.897-5.156c0.287-1.562,0.431-4.188,0.431-7.876v-6.654h17.509v6.375h-15.784v0.469
		C163.026,218.271,162.854,221.114,162.509,222.989L162.509,222.989z M163.026,209.114v3.375h14.145v-3.375H163.026z
		 M163.113,222.239v-1.594h16.818v1.594h-9.056c-1.956,2.125-3.307,3.469-4.054,4.029c3.737-0.062,6.555-0.094,8.453-0.094
		l-2.243-2.25l1.294-1.125c0.518,0.562,1.293,1.347,2.329,2.344c1.208,1.125,2.098,2,2.674,2.625l-1.38,1.221l-1.208-1.406
		c-0.23,0-0.547,0-0.949,0c-4.658,0.124-7.706,0.249-9.143,0.375c-0.69,0-1.352,0.062-1.984,0.188l-0.776-1.688
		c0.574-0.188,1.122-0.5,1.639-0.938c1.035-0.938,2.07-2.028,3.105-3.279L163.113,222.239L163.113,222.239z M165.01,217.926v-1.5
		h13.023v1.5H165.01z M168.646,274.519c-0.979-0.875-1.841-1.625-2.587-2.25l1.035-1.029c0.402,0.312,1.035,0.844,1.897,1.594
		c0.345,0.313,0.604,0.531,0.776,0.656L168.646,274.519z M192.296,258.552c-0.461,0.5-0.92,1.125-1.38,1.875
		c-5.233-2.938-8.193-7.438-8.884-13.5c-0.806,5.877-3.853,10.471-9.142,13.78c-0.173-0.25-0.461-0.625-0.863-1.125
		c-0.23-0.312-0.375-0.53-0.431-0.655c5.462-3.123,8.509-7.938,9.143-14.438c0.172-1.938,0.259-3.845,0.259-5.72h1.811
		c0,0.938-0.029,2.096-0.086,3.47C183.413,250.614,186.604,256.052,192.296,258.552L192.296,258.552z M173.976,278.269v-1.779h2.501
		v-5.812h1.725v5.812h2.329v1.779h-2.329v7.596l2.156-0.938c0,0.625,0.057,1.219,0.172,1.78c-1.093,0.438-2.846,1.251-5.261,2.438
		c-0.461,0.188-0.806,0.346-1.035,0.471l-0.518-1.875l2.76-1.125v-8.346h-2.5V278.269z M185.447,280.988
		c-0.748,4-2.617,7.094-5.606,9.28c-0.403-0.312-0.834-0.721-1.294-1.221c2.817-2.062,4.6-4.748,5.348-8.062h-2.846v-1.875
		l8.797-5.625h-8.194v-1.688h10.954v1.969l-8.711,5.531h9.919l-0.345,9.188c0,2.625-1.065,3.903-3.191,3.844l-2.501,0.095
		c-0.116-0.688-0.23-1.312-0.345-1.875c0.632,0,1.408,0,2.329,0c1.38,0.123,2.07-0.595,2.07-2.156c0-0.188,0.028-0.528,0.086-1.029
		c0.115-2.812,0.173-4.938,0.173-6.375h-2.415c-0.748,5.5-2.732,9.497-5.951,12c-0.403-0.438-0.834-0.907-1.294-1.406
		c3.047-2.188,4.945-5.719,5.692-10.594L185.447,280.988L185.447,280.988z M182.703,218.396v-1.595h1.466v-7.875h2.329
		c0.057-0.312,0.143-0.75,0.259-1.312c0.057-0.5,0.114-0.905,0.172-1.219l1.639,0.094c-0.058,0.188-0.144,0.501-0.259,0.938
		c-0.172,0.688-0.288,1.188-0.345,1.5h3.364v17.251c0.057,1.5-0.634,2.279-2.07,2.345c-0.575,0-1.265,0-2.07,0
		c0-0.125-0.058-0.347-0.172-0.655c-0.058-0.438-0.116-0.781-0.172-1.031c0.401,0,0.977,0,1.725,0c0.863,0,1.294-0.345,1.294-1.029
		v-7.407h-4.14c0.115,4.688-0.431,8.187-1.639,10.499l-1.466-1.125c1.149-2,1.667-5.122,1.553-9.374h-1.468V218.396L182.703,218.396
		z M185.722,210.426v6.375h4.14v-6.375H185.722z M187.533,215.582c-0.345-1.125-0.72-2.25-1.122-3.375l1.208-0.469
		c0.057,0.25,0.173,0.595,0.345,1.029c0.229,0.438,0.518,1.158,0.862,2.156L187.533,215.582z M187.706,223.833
		c-0.345-1.125-0.748-2.312-1.208-3.562l1.294-0.471c0.287,0.813,0.718,2.001,1.293,3.563L187.706,223.833z M195.899,210.614
		c0.172,2.938-0.748,5.219-2.76,6.844c-0.116-0.125-0.259-0.28-0.431-0.469c-0.403-0.438-0.69-0.75-0.862-0.938
		c1.781-1.25,2.587-3.125,2.415-5.625v-2.719h6.9v5.438c-0.058,1.062,0.431,1.562,1.465,1.5h1.122c0,0.125-0.03,0.312-0.086,0.562
		c-0.116,0.501-0.172,0.876-0.172,1.125h-1.638c-1.61,0.062-2.387-0.812-2.329-2.625v-4.312H195.9L195.899,210.614L195.899,210.614z
		 M193.312,228.894v-10.312h8.883v10.312h-1.638v-1.875h-5.606v1.875H193.312z M200.903,244.302
		c-1.496,4.752-2.962,8.625-4.398,11.625c-0.576-0.375-1.179-0.656-1.812-0.845c1.84-3.688,3.306-7.468,4.399-11.344
		L200.903,244.302L200.903,244.302z M194.951,220.176v5.438h5.606v-5.438H194.951z M197.073,274.052v-1.688h6.9v1.688h-2.587v5.625
		h2.329v1.688h-2.329v6c0.919-0.312,1.811-0.562,2.673-0.75c0,0.562,0.028,1.157,0.086,1.779c-0.69,0.188-1.811,0.503-3.364,0.938
		c-1.552,0.375-2.76,0.656-3.623,0.845l-0.345-1.688c0.804-0.188,1.753-0.438,2.846-0.75v-6.375h-2.501v-1.688h2.501v-5.625
		L197.073,274.052L197.073,274.052z M203.318,260.519c-0.92,0-1.955,0-3.105,0c-0.058-0.75-0.172-1.438-0.345-2.062
		c0.345,0,0.776,0,1.293,0c0.574,0.062,1.063,0.095,1.466,0.095c1.322,0.125,1.926-0.47,1.811-1.781v-18h1.897v18.562
		C206.452,259.456,205.445,260.519,203.318,260.519L203.318,260.519z M204.577,280.613v-1.781h12.938v1.781h-4.226v8.719
		c-0.058,0.75,0.259,1.093,0.949,1.031h0.776c0.69,0.062,1.091-0.281,1.208-1.031c0.114-0.812,0.201-1.78,0.258-2.905
		c0.057,0,0.143,0.031,0.259,0.094c0.574,0.25,0.949,0.406,1.122,0.471c-0.058,0.501-0.058,0.654,0,0.469
		c-0.116,1.312-0.202,2.156-0.259,2.531c-0.23,1.438-1.065,2.124-2.501,2.062h-1.293c-1.553,0.062-2.301-0.721-2.243-2.345v-9.094
		h-2.76c0,0.438-0.03,1.062-0.086,1.875c0,0.876-0.03,1.5-0.086,1.875c-0.172,3.562-1.754,6.437-4.744,8.625
		c-0.345-0.501-0.806-1.001-1.38-1.5c2.875-1.749,4.341-4.125,4.398-7.125c0.115-1.063,0.173-2.312,0.173-3.75L204.577,280.613
		L204.577,280.613z M205.784,274.144v-1.778h10.522v1.778H205.784z M206.529,209.957v-1.781h7.332v1.781h-2.501v15.562
		c0.115,1.625-0.69,2.47-2.415,2.531c-0.461,0-1.064,0-1.811,0c0-0.502-0.116-1.125-0.345-1.875c0.69,0.062,1.264,0.094,1.725,0.094
		c0.862,0.062,1.264-0.344,1.208-1.219v-15.094L206.529,209.957L206.529,209.957z M213.754,255.644
		c-1.956-4.997-3.508-8.719-4.657-11.153l1.725-0.656c0.459,1.062,1.264,2.876,2.415,5.438c1.092,2.625,1.868,4.471,2.329,5.531
		L213.754,255.644z M226.194,228.614c-1.035-0.938-2.818-2.499-5.348-4.688c0.115,0.127,0,0.031-0.345-0.281
		c-0.748,2.062-2.962,3.846-6.641,5.346c-0.345-0.626-0.69-1.188-1.035-1.688c2.875-1.062,4.714-2.188,5.52-3.375
		c0.919-1.188,1.38-3.22,1.38-6.095l0.086-2.156h1.639l-0.086,2.156c0,1.562-0.116,2.97-0.345,4.22
		c0.69,0.562,1.753,1.438,3.191,2.625c1.495,1.188,2.558,2.029,3.191,2.53L226.194,228.614z M214.55,209.301v-1.688h12.592v1.688
		h-5.865l-0.69,3.096h5.606v11.344h-1.639v-9.75h-7.935v9.844h-1.725v-11.438h3.968l0.69-3.096H214.55L214.55,209.301z
		 M218.049,252.738l-0.259-1.97l3.105-1.03v-3.845l2.76-4.03h-5.52v-1.781h7.331v1.97l-2.933,4.405v2.72l2.501-0.845
		c0,0.312,0,0.938,0,1.875l-2.501,0.845v6.844c0.115,1.75-0.69,2.625-2.415,2.625c-0.748,0-1.41,0-1.983,0
		c-0.058-0.562-0.145-1.188-0.259-1.875c0.345,0.062,0.919,0.096,1.725,0.096c0.919,0.062,1.351-0.312,1.294-1.125v-5.908
		L218.049,252.738z M222.24,292.894V273.49h5.692c0.345-1.125,0.604-2.125,0.776-3l1.984,0.188c-0.23,0.812-0.489,1.75-0.776,2.812
		h8.884v19.405h-1.811v-1.5h-13.024v1.5h-1.725V292.894L222.24,292.894z M223.965,275.177v3.844h13.024v-3.844H223.965z
		 M223.965,280.613v3.844h13.024v-3.844H223.965z M223.965,286.052v3.844h13.024v-3.844H223.965z M226.243,243.269v-1.688h5.692
		c-0.058-0.124-0.116-0.281-0.172-0.47c-0.403-1.062-0.72-1.812-0.949-2.25l1.725-0.47c0.173,0.312,0.374,0.781,0.604,1.406
		c0.287,0.688,0.488,1.188,0.604,1.5l-0.776,0.28h5.606v1.688h-6.641c-1.61,2.375-2.76,4.029-3.45,4.969
		c0.287,0,0.747-0.03,1.38-0.094c1.264-0.125,2.299-0.221,3.105-0.281c0.518-0.812,1.005-1.688,1.466-2.625l1.552,0.844
		c-2.415,4.688-5.865,8.25-10.35,10.688c-0.345-0.562-0.72-1.092-1.121-1.594c3.047-1.437,5.462-3.312,7.245-5.625
		c-1.208,0-2.358,0.094-3.45,0.281c-0.403,0-0.892,0.062-1.466,0.188c0.057,0,0,0-0.172,0l-0.69-1.5
		c0.401-0.247,0.776-0.594,1.121-1.028c0.747-0.874,1.695-2.28,2.846-4.222h-3.709V243.269z M237.369,260.519
		c-0.748-0.812-1.869-1.844-3.364-3.094c-0.345-0.312-0.604-0.562-0.776-0.75c-1.783,1.625-3.968,3.03-6.555,4.219
		c-0.345-0.5-0.69-1.029-1.035-1.594c4.83-1.938,8.539-5.25,11.126-9.938l1.466,0.938c-1.151,1.938-2.415,3.655-3.795,5.155
		c0.517,0.501,1.293,1.188,2.329,2.062c0.862,0.625,1.495,1.125,1.897,1.5L237.369,260.519z M236.393,224.769
		c0,2.188-0.748,3.812-2.243,4.875l-0.776-0.844c1.035-0.812,1.581-2.031,1.639-3.656h-1.466v-3.094h2.846
		C236.393,222.554,236.393,223.458,236.393,224.769L236.393,224.769z M242.095,243.082v-1.5h3.45v-3.094h1.639v3.094h2.846v1.5
		h-2.846v2.72h1.208c1.38-1.5,2.558-3.154,3.536-4.97l1.38,0.845c-0.92,1.562-1.87,2.938-2.847,4.125h2.588v1.594h-3.968
		c-0.461,0.562-1.265,1.347-2.415,2.346c0.057,0,0,0.062-0.172,0.188h5.261v10.688h-1.552v-1.313h-5.348v1.313h-1.553v-8.25
		c-0.575,0.375-1.179,0.78-1.811,1.22c-0.058-0.188-0.172-0.47-0.345-0.845c-0.116-0.375-0.23-0.655-0.345-0.845
		c1.954-1,3.996-2.5,6.124-4.5h-5.779v-1.594h4.399v-2.721L242.095,243.082L242.095,243.082z M244.13,275.363v-1.781h6.038
		c0.345-0.999,0.718-2.062,1.121-3.188l1.811,0.279c-0.345,1-0.69,1.971-1.035,2.906h11.988v1.781h-12.765
		c-0.748,1.875-1.697,3.595-2.846,5.154v12.281h-1.725v-10.031c-0.748,0.877-1.61,1.781-2.587,2.721
		c-0.116-0.249-0.317-0.596-0.604-1.031c-0.116-0.312-0.23-0.562-0.345-0.75c2.76-2.625,4.83-5.404,6.21-8.344L244.13,275.363
		L244.13,275.363z M244.855,251.427v2.53h5.348v-2.53H244.855z M244.855,255.363v2.53h5.348v-2.53H244.855z M250.34,283.052v-1.688
		h5.434v-4.5h1.725v4.5h5.348v1.688h-5.348v6.655h6.555v1.595h-14.749v-1.595h6.469v-6.655H250.34z M256.846,215.864
		c-0.748,1.438-1.524,2.719-2.329,3.844c-0.058-0.312-0.172-0.812-0.345-1.5c-0.116-0.438-0.202-0.75-0.258-0.938
		c1.954-2.75,3.564-6.345,4.831-10.781l1.725,0.562c-0.517,1.813-1.179,3.563-1.983,5.25v16.597h-1.64L256.846,215.864
		L256.846,215.864z M254.17,260.894V239.8h7.245v1.781l-2.329,6.656c1.897,1.812,2.816,3.75,2.76,5.812
		c0.057,2.562-0.949,3.877-3.019,3.938c-0.69,0.062-1.38,0.094-2.07,0.094c-0.058-0.688-0.172-1.343-0.345-1.969
		c0.574,0.062,1.208,0.094,1.897,0.094c1.264,0.062,1.868-0.688,1.812-2.25c0.057-1.688-0.863-3.529-2.76-5.529l2.329-6.938h-3.882
		v19.404H254.17L254.17,260.894z M260.814,216.989v-1.688h5.692v-8.719h1.812v8.719h5.692v1.688h-5.692v3.844h6.555v1.781h-6.555
		v6.279h-1.812v-6.279h-6.555v-1.781h6.555v-3.844H260.814z M263.401,213.896c-1.151-1.938-2.042-3.375-2.674-4.313l1.466-0.844
		c0.862,1.312,1.753,2.719,2.674,4.219L263.401,213.896z M264.331,241.957v-1.78h20.786v1.78h-3.277v15.375
		c0.057,2.062-0.949,3.095-3.019,3.095c-0.748,0.062-1.955,0.094-3.622,0.094c0-0.25-0.058-0.625-0.173-1.125
		c-0.058-0.375-0.086-0.654-0.086-0.844c1.149,0.062,2.213,0.094,3.191,0.094c1.38,0.125,2.012-0.5,1.898-1.875v-14.812
		L264.331,241.957L264.331,241.957z M266.573,256.677v-11.158h9.401v9.375h-7.676v1.781h-1.725V256.677z M268.298,247.113v6.188
		h5.865v-6.188H268.298z M269.039,286.802l1.293-1.125l4.485,5.344l-1.38,1.312L269.039,286.802z M274.096,209.582
		c-0.862,1.438-1.811,2.906-2.846,4.406l-1.466-0.938c0.804-1.062,1.753-2.5,2.846-4.312L274.096,209.582L274.096,209.582z
		 M278.603,210.332v-1.406h5.95c-0.403-0.5-0.979-1.154-1.725-1.969l1.639-0.562c0.69,0.625,1.409,1.375,2.156,2.25l-0.604,0.281
		h4.14c0.401-0.438,0.919-1.062,1.552-1.875c0.229-0.312,0.402-0.529,0.518-0.656l1.725,0.562c-0.576,0.625-1.121,1.282-1.639,1.969
		h5.692v1.406h-9.833c-0.058,0.188-0.144,0.438-0.259,0.75c-0.116,0.375-0.202,0.656-0.259,0.844h8.797v1.313h-9.229
		c-0.23,0.562-0.489,1.125-0.776,1.688h11.816v1.405h-12.506c-0.345,0.562-0.72,1.125-1.121,1.688h11.471v10.876h-1.639v-1.219
		h-10.695v1.219h-1.725v-7.781c-0.689,0.75-1.84,1.781-3.449,3.094c-0.289-0.5-0.604-0.998-0.949-1.5
		c2.702-2.062,4.743-4.187,6.123-6.374h-5.691v-1.406h6.554c0.287-0.562,0.518-1.125,0.69-1.688h-5.519v-1.312h6.037
		c0.057-0.188,0.143-0.469,0.259-0.844c0.114-0.312,0.201-0.562,0.259-0.75L278.603,210.332L278.603,210.332z M283.777,219.239
		v1.688h10.695v-1.688H283.777z M283.777,222.052v1.688h10.695v-1.688H283.777z M283.777,224.958v1.406h10.695v-1.406H283.777z
		 M290.791,258.177c-0.403,0.312-0.862,0.688-1.38,1.125l-1.208-1.5c0.574-0.623,0.833-1.406,0.776-2.345v-16.03h1.811v16.405
		c1.897-1.312,3.795-2.688,5.693-4.125c0.114,0.812,0.259,1.532,0.431,2.156c-0.345,0.251-0.892,0.625-1.639,1.125
		C293.379,256.363,291.883,257.427,290.791,258.177L290.791,258.177z M291.532,275.644c-0.172,1.938-0.461,4.031-0.862,6.281
		c-0.116-0.062-0.317-0.125-0.604-0.188c-0.289-0.062-0.489-0.094-0.604-0.094c0.459-2.313,0.747-4.375,0.862-6.188L291.532,275.644
		L291.532,275.644z M292.309,292.894v-22.312h1.553v4.97l0.345-0.562c0.459,0.438,1.178,1.188,2.156,2.25v-5.719h13.8v1.5h-12.248
		v17.528h12.592v1.597h-14.145V277.24l-1.035,1.312c-0.23-0.375-0.72-0.97-1.466-1.78v16.125h-1.552V292.894L292.309,292.894z
		 M297.26,245.332c-0.92-2.062-1.897-4.03-2.932-5.905l1.466-0.845c0.114,0.188,0.287,0.501,0.517,0.938
		c1.208,2.062,2.099,3.656,2.674,4.781L297.26,245.332z M306.92,260.238c-0.403-0.563-1.007-1.313-1.811-2.25
		c-1.093-1.374-1.87-2.405-2.329-3.095c-1.265,2.188-3.594,4.22-6.986,6.095c-0.345-0.563-0.748-1.157-1.208-1.781
		c5.922-2.562,8.798-7.188,8.625-13.875c0.114-2.499,0.172-4.594,0.172-6.28h1.811c0,1.188-0.029,2.877-0.086,5.062
		c-0.058,0.562-0.086,0.97-0.086,1.219c-0.172,3.438-0.633,6.032-1.38,7.781c0.804,0.938,1.983,2.344,3.536,4.219
		c0.518,0.626,0.918,1.094,1.208,1.406L306.92,260.238z M299.208,277.427v-1.5h4.485v-2.438h1.552v2.438h4.398v1.5h-4.398
		c0,0.25-0.03,0.596-0.086,1.03c0,0.375,0,0.656,0,0.845c0,1.627-0.03,2.752-0.086,3.375h5.261v1.405h-5.606v0.095
		c1.437,1.252,3.019,2.656,4.744,4.219l-1.122,1.221c-1.323-1.438-2.674-2.75-4.054-3.938c-0.575,1.562-2.013,2.97-4.313,4.22
		c-0.289-0.438-0.633-0.904-1.035-1.405c2.588-1.188,4.024-2.656,4.312-4.406h-4.571v-1.404h4.83
		c0.115-1.25,0.173-2.375,0.173-3.375c0-0.562,0-1.188,0-1.875L299.208,277.427L299.208,277.427z M301.451,281.738
		c-0.862-1.313-1.466-2.188-1.811-2.625l1.121-0.845c0.115,0.188,0.315,0.438,0.604,0.75c0.574,0.75,1.005,1.375,1.294,1.875
		L301.451,281.738z M302.419,228.894v-21.279h6.641v1.688l-1.896,6.375c1.38,1.75,2.041,3.625,1.984,5.624
		c0,2.379-0.894,3.656-2.674,3.846c-0.345,0.062-0.892,0.095-1.639,0.095c-0.058-0.624-0.202-1.25-0.432-1.875
		c0.632,0,1.178,0,1.639,0c0.978,0,1.466-0.719,1.466-2.155c0-1.812-0.69-3.562-2.07-5.251l1.897-6.656h-3.277V228.9h-1.638
		L302.419,228.894L302.419,228.894z M309.386,279.113c-0.862,1.125-1.582,2.001-2.156,2.625l-1.121-0.938
		c0.459-0.437,1.063-1.125,1.811-2.062c0.172-0.188,0.287-0.347,0.345-0.472L309.386,279.113L309.386,279.113z M311.474,243.363
		v-1.781h6.038c0.346-0.999,0.719-2.062,1.121-3.188l1.812,0.279c-0.346,1.002-0.69,1.971-1.035,2.906h11.988v1.781h-12.767
		c-0.748,1.875-1.697,3.595-2.846,5.154v12.281h-1.726v-10.031c-0.747,0.877-1.609,1.781-2.587,2.721
		c-0.115-0.249-0.316-0.594-0.604-1.031c-0.116-0.312-0.23-0.562-0.345-0.75c2.76-2.625,4.829-5.404,6.21-8.344L311.474,243.363
		L311.474,243.363z M310.612,228.894v-20.998h10.695v20.906h-1.726v-1.688h-7.245v1.779H310.612L310.612,228.894z M312.337,209.582
		v7.031h7.245v-7.031H312.337z M312.337,218.396v7.219h7.245v-7.219H312.337z M316.527,288.019c-0.807,1.5-1.554,2.812-2.243,3.938
		c-0.116-0.062-0.316-0.188-0.604-0.375c-0.402-0.188-0.689-0.346-0.862-0.469c0.919-1.25,1.667-2.5,2.242-3.75L316.527,288.019
		L316.527,288.019z M314.285,273.863v-1.313h8.279c-0.06-0.188-0.146-0.469-0.26-0.844c-0.173-0.5-0.314-0.844-0.432-1.031
		l1.896-0.279c0.058,0.125,0.112,0.279,0.172,0.47c0.174,0.375,0.347,0.938,0.519,1.688h7.765v1.312h-4.312l0.949,0.375
		c-0.403,0.501-0.834,1.125-1.295,1.875h5.951v1.403h-20.615v-1.403h5.951l-1.294-1.781l1.035-0.469L314.285,273.863
		L314.285,273.863z M315.492,286.238v-7.125h15.354v7.125H315.492z M317.684,251.052v-1.688h5.436v-4.5h1.726v4.5h5.348v1.688
		h-5.348v6.655h6.555v1.595h-14.75v-1.595h6.47v-6.655H317.684z M317.131,280.427v1.594h12.075v-1.594H317.131z M317.131,283.238
		v1.688h12.075v-1.688H317.131z M320.667,292.332c-1.841,0.062-2.732-0.812-2.674-2.625v-2.344h1.639v1.969
		c-0.116,1.062,0.459,1.562,1.726,1.5h3.795c1.094,0.062,1.727-0.313,1.896-1.125c0.059-0.188,0.145-0.562,0.26-1.125
		c0.059-0.312,0.113-0.562,0.174-0.75c0.518,0.25,1.033,0.47,1.553,0.656c-0.061,0.812-0.229,1.438-0.52,1.875
		c-0.289,1.373-1.266,2.028-2.933,1.969H320.667z M319.977,274.894c0.402,0.563,0.662,0.938,0.776,1.125l-0.259,0.097h5.089
		c0.229-0.312,0.573-0.812,1.034-1.5c0.173-0.375,0.314-0.624,0.432-0.75h-7.763C319.46,274.052,319.689,274.394,319.977,274.894
		L319.977,274.894z M323.945,289.894c-0.635-0.812-1.381-1.688-2.243-2.625l1.208-0.938c0.518,0.501,1.293,1.312,2.328,2.438
		L323.945,289.894z M325.384,217.832v-1.781h9.401v-9.562h1.725v9.562h9.487v1.781h-6.899v7.312c0,0.938,0.521,1.406,1.553,1.406
		h1.896c0.92,0.062,1.467-0.346,1.641-1.22c0.113-0.812,0.199-1.875,0.261-3.188c0.229,0.062,0.604,0.188,1.12,0.375
		c0.287,0.125,0.486,0.221,0.604,0.279c0,0.188-0.028,0.471-0.086,0.846c-0.114,1.062-0.229,1.875-0.346,2.438
		c-0.288,1.562-1.293,2.312-3.021,2.25h-2.589c-1.841,0-2.76-0.938-2.76-2.812v-7.688h-4.226c0,0.188-0.03,0.47-0.088,0.845
		c0,0.312,0,0.531,0,0.655c-0.115,4.5-2.389,7.688-6.812,9.562c-0.116-0.188-0.316-0.471-0.604-0.846
		c-0.229-0.375-0.402-0.654-0.52-0.844c4.023-1.438,6.064-4.094,6.124-7.97c0.058-0.312,0.086-0.78,0.086-1.405L325.384,217.832
		L325.384,217.832z M330.645,214.271c-1.32-1.812-2.615-3.47-3.881-4.97l1.381-1.03c0.4,0.438,0.979,1.125,1.727,2.062
		c0.979,1.125,1.727,2.001,2.243,2.625L330.645,214.271z M332.225,291.488c-0.574-0.938-1.322-2.124-2.24-3.563l1.467-0.75
		c0.113,0.188,0.285,0.438,0.518,0.75c0.862,1.375,1.469,2.28,1.812,2.721L332.225,291.488z M339.4,259.302
		c-2.53-0.127-4.142-1.469-4.83-4.031l1.812-0.654c0.401,2.188,1.468,3.251,3.191,3.188c2.7-0.123,4.082-2.719,4.14-7.778
		c-0.861,1.812-2.301,2.719-4.312,2.719c-3.223-0.312-4.977-2.374-5.262-6.188c0.229-4.062,2.1-6.25,5.604-6.562
		c4.024-0.062,6.008,3.031,5.95,9.279C345.697,255.894,343.598,259.238,339.4,259.302L339.4,259.302z M339.574,250.957
		c2.242,0,3.621-1.125,4.14-3.375c0-3.938-1.38-5.874-4.14-5.812c-2.188,0.188-3.364,1.721-3.537,4.595
		C336.152,249.239,337.331,250.769,339.574,250.957L339.574,250.957z M341.618,292.144c-1.841-0.188-2.876-1.279-3.104-3.278
		c0.172-2.124,1.207-3.28,3.104-3.472c1.954,0.188,3.019,1.348,3.19,3.472C344.637,290.861,343.572,291.957,341.618,292.144
		L341.618,292.144z M344.445,209.396c-1.269,1.562-2.646,3.25-4.144,5.062l-1.38-1.312c0.862-0.875,1.982-2.188,3.364-3.938
		c0.345-0.437,0.604-0.75,0.774-0.938L344.445,209.396L344.445,209.396z M341.618,286.802c-1.093,0.127-1.696,0.812-1.812,2.062
		c0.113,1.062,0.719,1.652,1.812,1.779c1.147-0.127,1.78-0.719,1.896-1.779C343.398,287.613,342.768,286.927,341.618,286.802
		L341.618,286.802z M351.547,249.363c-1.093-1.125-2.186-2.156-3.277-3.095l1.121-1.312c1.149,0.876,2.271,1.846,3.363,2.906
		L351.547,249.363z M352.582,251.988c-0.689,2.688-1.38,5.562-2.07,8.625l-1.725-0.47c0.632-2.25,1.322-5.155,2.068-8.721
		c0.058,0,0.201,0.063,0.433,0.188C351.807,251.802,352.236,251.927,352.582,251.988L352.582,251.988z M352.133,217.271
		c-1.266-1.25-2.328-2.22-3.189-2.906l1.119-1.313c1.209,0.877,2.301,1.781,3.277,2.721L352.133,217.271z M352.15,243.363
		c-1.035-1.125-2.103-2.22-3.191-3.281l1.208-1.219c0.919,0.75,2.04,1.751,3.362,3L352.15,243.363z M353.082,220.646
		c-0.689,2.751-1.324,5.47-1.898,8.154l-1.811-0.562c0.632-2.312,1.322-5.063,2.068-8.25c0.174,0.062,0.461,0.156,0.863,0.281
		C352.65,220.458,352.909,220.585,353.082,220.646L353.082,220.646z M352.823,211.082c-1.324-1.312-2.388-2.312-3.191-3l1.121-1.312
		c0.229,0.188,0.574,0.502,1.035,0.938c0.978,0.813,1.726,1.469,2.241,1.969L352.823,211.082z M357.652,210.146
		c-0.807,1.375-1.812,2.75-3.021,4.125c-0.345-0.5-0.72-0.97-1.119-1.406c1.78-1.688,3.221-3.875,4.312-6.563l1.726,0.281
		c-0.346,0.625-0.66,1.282-0.947,1.969h10.779v1.596L357.652,210.146L357.652,210.146z M353.686,219.614v-1.594h2.156l0.604-5.72
		h11.474l-0.087,5.72h2.068v1.594h-2.154c0,1.5-0.059,2.906-0.173,4.219h1.726v1.596h-1.726c-0.115,2.25-1.269,3.342-3.45,3.279
		c-0.862,0-1.841,0-2.934,0c-0.06-0.188-0.114-0.469-0.174-0.844c-0.115-0.375-0.201-0.656-0.259-0.846
		c0.919,0.062,1.897,0.096,2.935,0.096c1.379,0.062,2.127-0.501,2.24-1.688H354.98l0.604-5.812H353.686L353.686,219.614z
		 M354.135,260.894v-21.278h14.403v18.278c0.058,1.813-0.862,2.75-2.761,2.813c-0.979,0-1.983,0-3.021,0
		c0-0.063-0.028-0.22-0.087-0.469c-0.059-0.625-0.145-1.063-0.259-1.313c0.86,0,1.78,0,2.761,0c1.148,0,1.695-0.438,1.641-1.312
		V241.3h-10.953v19.597h-1.726L354.135,260.894L354.135,260.894z M366.02,223.833c0.06-0.437,0.088-1.125,0.088-2.062
		c0.058-0.998,0.086-1.721,0.086-2.156h-8.885l-0.519,4.219L366.02,223.833L366.02,223.833z M357.066,245.613v-1.688h8.451v1.688
		H357.066z M357.911,213.896l-0.431,4.125h8.711v-4.125H357.911z M357.843,256.113v-7.781h6.9v7.781H357.843z M359.311,249.927
		v4.594h3.881v-4.594H359.311z M362.396,223.458c-0.174-0.125-0.435-0.343-0.776-0.654c-0.688-0.625-1.267-1.127-1.726-1.502
		l0.86-1.03c0.688,0.5,1.554,1.188,2.588,2.062L362.396,223.458z M362.654,217.551c-0.807-0.812-1.639-1.529-2.5-2.154l0.861-1.031
		c0.688,0.501,1.553,1.188,2.588,2.062L362.654,217.551z"/>
	<path fill="#FFFFFF" d="M63.308,167.773c-1.227-1.317-3.065-3.055-5.514-5.211c0.222,0.242-0.058,0-0.836-0.719l3.175-3.594
		c1.002,0.839,2.449,2.039,4.345,3.594c1.003,0.839,1.726,1.438,2.172,1.797L63.308,167.773z M65.146,176.758
		c-1.449,5.633-2.397,9.584-2.841,11.859l-4.846-1.438c0.891-3.234,2.172-8.504,3.844-15.812c0.556,0.121,1.337,0.359,2.339,0.719
		c1.112,0.359,1.893,0.66,2.339,0.898C65.757,173.824,65.48,175.082,65.146,176.758L65.146,176.758z M64.311,155.734
		c-0.668-0.719-1.729-1.735-3.175-3.055c-1.337-1.317-2.397-2.274-3.175-2.875l3.008-3.594c0.668,0.601,1.893,1.617,3.676,3.055
		c1.337,1.078,2.34,1.917,3.008,2.516L64.311,155.734z M69.324,161.484c-0.334-0.477-0.835-1.137-1.504-1.977
		c-0.668-0.836-1.227-1.438-1.671-1.797c3.564-3.473,6.238-7.547,8.021-12.219l5.181,0.539c-0.225,0.359-0.501,0.898-0.836,1.617
		c-0.334,0.719-0.613,1.258-0.835,1.617h19.05v4.313H75.34c-0.668,1.078-1.395,2.156-2.172,3.234H94.39
		c-0.112,0.601-0.167,2.336-0.167,5.211c-0.112,2.277-0.167,4.074-0.167,5.391h3.509v4.313h-3.509
		c-0.112,2.277-0.167,4.433-0.167,6.469h2.841v4.133h-3.008c-0.225,4.192-2.452,6.229-6.684,6.108h-6.685
		c-0.112-0.601-0.446-1.498-1.002-2.694c-0.112-0.602-0.225-1.02-0.334-1.258c2.115,0,4.288,0,6.517,0
		c2.115,0.117,3.285-0.602,3.509-2.156H68.655l1.003-10.602h-3.342v-4.313h3.843l0.668-7.727L69.324,161.484z M89.21,178.195
		c0.109-1.316,0.167-3.473,0.167-6.469h-15.04l-0.668,6.469h8.857c-1.227-1.196-2.674-2.395-4.345-3.594l2.339-2.875
		c1.893,1.32,3.619,2.577,5.181,3.773l-2.34,2.695L89.21,178.195L89.21,178.195z M75.34,161.125l-0.668,6.289h8.355
		c-0.668-0.598-1.671-1.438-3.008-2.516c-0.668-0.598-1.169-1.017-1.504-1.258l2.507-2.516L75.34,161.125L75.34,161.125z
		 M89.544,167.414c0-2.993,0-5.09,0-6.289h-8.188c0.778,0.48,1.838,1.258,3.175,2.336c0.668,0.601,1.17,1.019,1.504,1.258
		l-2.339,2.695H89.544L89.544,167.414z M102.381,186.461v-5.211h15.04v-35.039h5.682v12.578h16.042v5.391h-16.042v17.07h19.05v5.211
		H102.381z M146.959,153.578v-4.133h17.546c-0.334-1.317-0.668-2.454-1.003-3.414l5.849-0.539c0.109,0.48,0.277,1.199,0.501,2.156
		c0.11,0.719,0.222,1.32,0.334,1.797h17.045v4.133H146.959z M157.821,183.945v-9.523h18.716v9.523h1.17
		c2.005,0.118,2.95-0.719,2.841-2.516v-9.523H153.81v16.529h-4.846v-20.663h36.43v15.094c0.109,3.474-1.562,5.271-5.013,5.392
		c-1.562,0.117-3.677,0.181-6.35,0.181c-0.112-0.241-0.167-0.66-0.167-1.259c-0.334-1.319-0.613-2.396-0.835-3.233L157.821,183.945
		L157.821,183.945L157.821,183.945z M152.975,165.438v-9.523h28.242v9.523H152.975z M157.821,159.328v2.875h18.549v-2.875H157.821z
		 M162.5,177.656v3.234h9.191v-3.234H162.5z M206.085,166.695c-4.123,8.266-7.41,14.078-9.859,17.43
		c-0.112,0-0.225-0.062-0.334-0.18c-1.783-1.316-3.175-2.273-4.178-2.875c3.677-5.031,6.794-10.602,9.358-16.711L206.085,166.695
		L206.085,166.695z M227.308,164.359c-0.559-0.359-1.896-0.958-4.01-1.797c-0.334-0.118-0.614-0.239-0.835-0.359l3.008-6.109H202.41
		c-1.671,2.875-3.789,5.992-6.35,9.344c-0.781-0.719-1.896-1.676-3.342-2.875c-0.334-0.359-0.614-0.598-0.835-0.719
		c4.01-4.672,7.073-10.062,9.191-16.172l5.515,0.719c-0.559,1.679-1.17,3.234-1.838,4.672h26.403v5.031L227.308,164.359z
		 M209.26,188.078c-1.115,0.118-3.065,0.18-5.849,0.18c-0.112-0.601-0.279-1.498-0.501-2.694c-0.334-1.319-0.559-2.216-0.668-2.695
		c0.891,0.121,2.449,0.181,4.679,0.181c2.34,0.121,3.397-0.898,3.175-3.056V158.25h5.347v23.539
		C215.777,186.102,213.714,188.196,209.26,188.078L209.26,188.078z M227.475,183.586c-0.447-0.836-1.06-2.035-1.838-3.594
		c-3.12-5.868-5.572-10.242-7.353-13.117l4.345-2.336c3.342,5.511,6.627,10.961,9.859,16.352L227.475,183.586z M239.644,158.07
		v-5.211h14.539c0.109-1.797,0.167-4.133,0.167-7.008h5.515l-0.167,7.008h14.706v5.211h-14.706
		c-0.112,2.516-0.167,4.672-0.167,6.469h17.045v5.211h-16.377c2.115,6.711,7.742,11.203,16.878,13.477
		c-1.115,1.557-2.117,3.234-3.008,5.031c-9.024-2.996-14.763-7.664-17.212-14.016c-1.671,5.75-7.186,10.602-16.543,14.555
		c-0.334-0.601-0.948-1.558-1.838-2.875c-0.668-0.959-1.17-1.679-1.504-2.156c10.026-3.594,15.484-8.265,16.376-14.015h-16.042
		v-5.211h16.711c0.11-1.196,0.167-3.352,0.167-6.469H239.644z"/>
	<path fill="#9AF2FF" d="M272.021,135.868c-0.174-0.188-0.523-0.53-1.046-1.031c-0.292-0.312-0.495-0.53-0.61-0.656
		c-0.698,1-1.831,2.281-3.4,3.844c-0.117-0.126-0.32-0.375-0.61-0.75c-0.408-0.625-0.728-1.063-0.959-1.313
		c1.452-1.187,2.557-2.375,3.313-3.563c-0.989-1.062-1.918-2-2.79-2.813c0.464-2.187,0.872-4.531,1.221-7.031h-1.482v-2.25h1.744
		c0.174-1.437,0.349-2.937,0.523-4.5l2.354,0.281l-0.61,4.219h3.662v2.156c-0.233,4.188-0.815,7.345-1.744,9.469l2.005,1.969
		L272.021,135.868z M269.841,130.243c0.698-1.688,1.134-4.25,1.308-7.688h-1.831c-0.117,1.125-0.379,2.719-0.785,4.781
		c-0.117,0.688-0.205,1.188-0.262,1.5L269.841,130.243L269.841,130.243z M273.939,127.899v-2.25h12.032v2.25h-4.883l-0.087,1.969
		h5.58v2.438h-4.883c0.929,1.688,2.645,2.813,5.144,3.375c-0.582,1.062-1.018,1.906-1.308,2.531
		c-2.849-1.188-4.738-2.75-5.667-4.688c-0.756,1.938-2.849,3.563-6.278,4.875c-0.466-0.876-0.93-1.688-1.395-2.438
		c3.139-0.875,5.057-2.093,5.754-3.656h-4.708v-2.438h5.231c0.116-0.563,0.174-1.219,0.174-1.969L273.939,127.899L273.939,127.899z
		 M274.462,123.962v-7.125h10.985v7.125H274.462z M276.816,119.181v2.531h6.19v-2.531H276.816z M297.095,130.524
		c-1.687,2.625-3.343,4.844-4.97,6.656c-0.756-0.75-1.454-1.313-2.093-1.688c1.569-1.688,3.167-3.812,4.795-6.375L297.095,130.524
		L297.095,130.524z M291.428,128.274l1.133-10.781c4.999,0,10.346-0.281,16.042-0.844l0.785,2.625
		c-4.302,0.438-9.098,0.719-14.386,0.844l-0.61,5.531h5.231v-4.406h2.79v4.406h7.759v2.625h-7.759v6.188
		c0.116,2.375-0.902,3.53-3.052,3.469c-1.164,0.125-2.238,0.188-3.226,0.188c-0.059-0.375-0.174-1.063-0.349-2.063
		c-0.059-0.313-0.117-0.563-0.174-0.75c0.755,0.063,1.657,0.094,2.703,0.094c0.929,0.063,1.365-0.469,1.308-1.594v-5.531
		L291.428,128.274L291.428,128.274z M308.865,137.087c-1.338-1.812-2.907-3.938-4.708-6.375l2.005-1.5
		c1.278,1.5,2.964,3.595,5.057,6.281L308.865,137.087z M318.943,135.587c-0.467,0.563-0.872,1.093-1.222,1.594l-1.655-1.969
		c0.522-0.624,0.754-1.343,0.696-2.156v-7.125h-2.18v-2.625h4.708v8.625l1.918-2.156c0.116,0.501,0.349,1.188,0.697,2.063
		c0.057,0.25,0.114,0.438,0.175,0.563C321.384,133.088,320.338,134.15,318.943,135.587L318.943,135.587z M318.682,121.712
		c-0.931-1.374-1.918-2.813-2.964-4.313l2.268-1.406c0.23,0.313,0.552,0.75,0.959,1.313c0.405,0.501,1.104,1.438,2.093,2.813
		L318.682,121.712z M327.923,135.493c-1.802,1.062-4.04,1.999-6.713,2.813c-0.117-0.25-0.349-0.656-0.698-1.219
		c-0.292-0.563-0.521-0.97-0.696-1.219c2.44-0.624,4.417-1.343,5.928-2.156c-1.221-1.313-2.354-2.968-3.398-4.969l1.133-0.75h-1.83
		v-2.438h12.556v2.625c-1.104,2.188-2.474,4.031-4.101,5.531c1.688,0.938,3.545,1.563,5.58,1.875
		c-0.406,0.812-0.844,1.655-1.309,2.531C331.76,137.305,329.607,136.431,327.923,135.493L327.923,135.493z M325.918,119.743
		c0.175,2.188-0.988,3.938-3.486,5.25c-0.521-0.563-1.135-1.219-1.832-1.969c2.094-0.938,3.053-2.312,2.877-4.125v-2.156h9.416v3.75
		c-0.059,0.813,0.319,1.188,1.135,1.125h1.832l-0.438,2.531h-2.529c-1.687,0-2.525-0.812-2.525-2.438v-2.438h-4.446L325.918,119.743
		L325.918,119.743z M324.697,127.993c0.871,1.688,1.945,3.094,3.226,4.219c1.162-0.938,2.324-2.344,3.488-4.219H324.697z
		 M352.823,134.087v-6.656l-2.007,0.469v6c-0.061,1.125,0.466,1.688,1.567,1.688h3.839c1.045,0,1.654-0.406,1.828-1.219
		c0-0.125,0.029-0.312,0.09-0.563c0.113-0.624,0.201-1.093,0.262-1.406c0.64,0.313,1.309,0.563,2.006,0.75
		c-0.061,0.563-0.204,1.251-0.438,2.063c-0.06,0.25-0.089,0.405-0.089,0.469c-0.229,1.374-1.276,2.03-3.139,1.969h-5.318
		c-1.918,0.062-2.849-0.938-2.79-3v-6.281l-1.046,0.188l-0.175-2.25l1.221-0.281v-2.25l-0.262,0.281
		c-0.521-0.687-1.104-1.313-1.743-1.875l0.263-0.281h-3.66c0,1,0,1.969,0,2.906h3.836c0,0.625-0.03,1.594-0.088,2.906
		c-0.061,3.126-0.117,5.282-0.176,6.469c0.059,2.25-0.783,3.406-2.527,3.469c-0.58,0-1.19,0.031-1.83,0.094
		c-0.061-0.188-0.117-0.438-0.174-0.75c-0.176-0.688-0.293-1.157-0.352-1.406c-0.292,0.687-0.697,1.562-1.221,2.625
		c-0.582-0.625-1.164-1.251-1.744-1.875c1.277-2.124,1.945-5.25,2.005-9.375c0-0.5,0-1.28,0-2.344
		c0.06-1.187,0.088-2.093,0.088-2.719h-1.567v-2.438h3.312c-0.06-0.375-0.174-0.938-0.351-1.688
		c-0.174-0.687-0.318-1.219-0.437-1.594l2.528-0.281c0.23,1,0.465,2.188,0.697,3.563h2.18v1.875c1.221-1.625,2.18-3.437,2.877-5.438
		l2.616,0.094c-0.292,0.876-0.61,1.688-0.96,2.438h8.195v2.344h-9.504c-0.467,0.938-1.048,1.813-1.742,2.625h1.918v2.063
		l2.006-0.375v-3.656H355v3.094l4.359-0.938c0,2.25-0.062,4.282-0.176,6.094c-0.061,1.626-0.643,2.5-1.744,2.625
		c-0.406,0.063-1.045,0.094-1.918,0.094c-0.174-0.688-0.319-1.406-0.438-2.156c0.406,0,0.784,0,1.134,0c0.58,0,0.9-0.312,0.96-0.938
		c0.059-0.5,0.088-1.468,0.088-2.906l-2.269,0.562v7.125h-2.179v-0.003H352.823L352.823,134.087z M344.802,130.524
		c0.058-1.625,0.087-2.78,0.087-3.469h-1.742c-0.06,3.688-0.438,6.469-1.135,8.344c0.465,0,0.959,0,1.482,0
		c0.812,0.063,1.221-0.437,1.221-1.5C344.771,133.337,344.802,132.212,344.802,130.524L344.802,130.524z"/>
</g>
</svg>
