<svg xmlns="http://www.w3.org/2000/svg" width="640" height="311.333" viewBox="0 -83.167 640 311.333" enable-background="new 0 -83.167 640 311.333"><path fill="#4CC2F8" d="M375.69 25.211l3.129-.379c.099.798.366 1.407.805 1.829.438.421.966.632 1.587.632.668 0 1.229-.253 1.687-.759.455-.506.685-1.188.685-2.047 0-.813-.219-1.457-.656-1.932-.437-.476-.97-.713-1.599-.713-.414 0-.908.081-1.483.242l.356-2.634c.874.023 1.541-.167 2.001-.569.46-.403.689-.938.689-1.605 0-.567-.169-1.02-.506-1.357-.338-.337-.786-.506-1.346-.506-.553 0-1.024.192-1.415.575-.391.383-.629.943-.713 1.679l-2.979-.506c.207-1.02.521-1.834.938-2.444.418-.609 1.001-1.089 1.748-1.438.748-.349 1.586-.523 2.514-.523 1.587 0 2.86.506 3.818 1.518.79.828 1.185 1.764 1.185 2.807 0 1.48-.809 2.661-2.427 3.542.967.207 1.739.671 2.318 1.392.577.721.867 1.591.867 2.611 0 1.48-.541 2.742-1.622 3.784-1.08 1.043-2.427 1.564-4.036 1.564-1.526 0-2.791-.439-3.797-1.317-1.004-.878-1.586-2.027-1.748-3.446z"/><path fill="#fff" d="M59.296 111.031c-.806 1.5-1.466 2.625-1.984 3.375-.058-.375-.202-.905-.431-1.594-.058-.312-.116-.53-.172-.656 1.954-3.188 3.478-6.812 4.571-10.875l1.725.562c-.517 1.688-1.093 3.281-1.725 4.781v17.156h-1.639v-13.313c-.058.127-.172.315-.345.564zm1.898 42.22c-.403.375-.776.812-1.121 1.313l-1.38-1.594c.574-.438.862-1.125.862-2.063v-7.875h-2.76v-1.875h4.485v9.75l1.811-1.688c.69-.562 1.178-.969 1.466-1.219.115.812.287 1.469.518 1.969-1.207 1.001-2.501 2.095-3.881 3.282zm-4.399 23.56v-1.78h6.469c.46-.75 1.035-1.875 1.725-3.375.115-.312.201-.529.259-.656l1.897.563c-.575 1.188-1.179 2.344-1.811 3.469h12.333v1.781h-4.226c-.92 2.625-2.186 4.594-3.795 5.905.747.375 1.839.876 3.277 1.5 1.609.688 2.76 1.188 3.45 1.5l-.949 1.781c-1.841-.938-4.284-2.095-7.332-3.469-2.415 1.562-5.664 2.78-9.746 3.655-.23-.625-.518-1.28-.862-1.969 3.737-.501 6.611-1.374 8.625-2.625-.748-.375-1.927-.938-3.537-1.688l-2.329-1.125c.69-1.062 1.38-2.219 2.07-3.469h-5.518v.002zm.604 34.627v-1.688h19.751v1.688h-6.727v4.313c-.116 1.188.431 1.718 1.639 1.594h1.725c1.091.062 1.695-.345 1.811-1.219.115-.688.229-1.531.345-2.531.229.126.574.25 1.035.375.287.126.488.22.604.281-.116 1-.259 1.907-.432 2.719-.23 1.438-1.237 2.124-3.019 2.063h-2.674c-1.956.062-2.904-.876-2.846-2.813v-4.78h-3.708c.229 4.062-2.042 6.812-6.814 8.25-.23-.438-.604-1.002-1.121-1.688 4.369-1.063 6.411-3.249 6.124-6.563h-5.693zm.431-7.126v-4.312h8.884c-.116-.375-.345-.999-.69-1.875l-.259-.562 1.897-.375c.345.875.69 1.78 1.035 2.719l-.344.093h8.28v4.312h-1.812v-2.625h-15.266v2.625h-1.725zm.087-31.626v-4.218h9.143c-.173-.437-.518-1.155-1.035-2.155-.172-.313-.289-.53-.345-.656l1.812-.469c.345.562.833 1.531 1.466 2.905l-.863.375h8.453v4.312h-1.725v-2.625h-15.18v2.53h-1.726zm4.139-33.779c-.862-1.188-1.983-2.47-3.363-3.845l1.38-1.219c1.149 1.252 2.299 2.5 3.45 3.75l-1.467 1.314zm-2.156 67.655v-1.688h14.749v1.688h-14.749zm2.76-84v-1.594h7.59c1.725-5.124 2.989-9.188 3.795-12.188l1.812.562c-1.438 4.563-2.704 8.438-3.795 11.625h5.692v1.594h-15.094zm.518 56.217l-.518.844c1.035.438 2.76 1.219 5.175 2.344 1.725-1.437 2.961-3.154 3.709-5.156h-7.159c-.288.438-.69 1.094-1.207 1.968zm.086-71.498v-1.781h6.642c-.576-1.625-1.007-2.906-1.294-3.844l1.812-.375c.172.562.459 1.438.862 2.625.172.562.315 1 .431 1.312l-1.293.281h6.727v1.781h-13.887zm.431 47.095v-1.688h5.261v-19.125h1.811v6.656h5.865v1.875h-5.865v10.594h6.814v1.688h-13.886zm3.364-35.376c-.806-3.375-1.697-6.593-2.674-9.656l1.725-.562c.287 1 .747 2.594 1.38 4.781.632 2.25 1.091 3.876 1.38 4.875l-1.811.562zm13.753 22.157c-.289.312-.489.562-.604.75-.058-.188-.202-.47-.431-.845-.172-.375-.317-.655-.431-.844 1.954-2.062 3.536-4.406 4.744-7.031l1.639.563c-.633 1.313-1.293 2.47-1.984 3.469v9.75h-1.639v-7.405c-.289.374-.72.906-1.294 1.593zm18.802 33.404c-.172.252-.288.438-.345.563-4.256-2.25-7.361-4.842-9.315-7.78-2.531 3.25-5.722 5.938-9.574 8.062-.058-.124-.172-.312-.345-.563l-.69-1.125c4.6-2.562 7.905-5.437 9.918-8.624l2.07.281-.431.656c2.299 3.126 5.434 5.594 9.401 7.406l-.689 1.124zm-19.578 39.033v-1.5h8.797c.057-.188.086-.469.086-.844.057-.375.086-.656.086-.844h1.812c-.058.562-.144 1.125-.259 1.688h9.056v1.5h-8.453c1.092 2.25 4.082 3.624 8.97 4.125-.345.563-.633 1.155-.862 1.781-5.002-.812-8.137-2.438-9.401-4.875-1.035 2.438-4.227 4.188-9.574 5.25-.403-.876-.69-1.47-.863-1.781 5.348-.812 8.337-2.312 8.97-4.5h-8.365zm3.191-64.937c-.806 2.376-1.524 4.125-2.156 5.25l-1.553-.656c.862-1.688 1.581-3.375 2.156-5.063l1.553.469zm-2.847 53.312v-1.594h5.693c-.289-.375-.863-1.062-1.725-2.062.172.188.028 0-.431-.563l1.639-.656c.977 1.063 1.725 1.97 2.242 2.72l-1.293.562h5.089c.862-.938 1.695-2 2.501-3.188l1.812.562c-.634.812-1.352 1.688-2.156 2.625h5.606v1.594h-8.627v2.25h7.59v1.5h-7.59v2.25h9.143v1.594h-20.096v-1.594h9.143v-2.25h-7.504v-1.5h7.504v-2.25h-8.54zm1.41-97.219v-1.875h17.336v1.875h-7.503v6h9.143v1.875h-9.143v7.313c.114 2.25-.892 3.375-3.019 3.375h-3.45c-.058-.75-.172-1.438-.345-2.063.574.062 1.609.094 3.105.094 1.322.125 1.926-.5 1.812-1.875v-6.844h-9.66v-1.875h9.66v-6h-7.936zm1.523 70.842v-1.781h13.11v1.781h-5.693v3.656h6.814v1.688h-6.814v4.031h8.711v1.594h-19.233v-1.594h8.711v-4.031h-6.728v-1.688h6.728v-3.656h-5.606zm3.881-20.56c-1.725 0-2.587-.907-2.587-2.72v-3.844h1.639v3.375c.057 1 .604 1.5 1.639 1.5h3.795c1.264.062 1.984-.437 2.156-1.5.173-.688.287-1.406.345-2.156.114.063.315.127.604.188.459.25.833.407 1.122.469-.173.876-.345 1.688-.518 2.438-.403 1.562-1.496 2.312-3.277 2.25h-4.918zm3.105-13.875c-1.093 1.438-2.415 3-3.967 4.688-.116-.188-.375-.437-.776-.75l-.431-.469c1.149-1.125 2.415-2.593 3.795-4.406l1.379.937zm-1.38-3.937c-.403.876-1.151 2.001-2.243 3.375l-.172-.188c-.518-.375-.92-.656-1.208-.845 1.667-2 2.933-4.093 3.795-6.28l1.725.28c-.058.188-.172.438-.345.75-.058.252-.259.688-.604 1.313h9.574v1.688l-1.294 3c-.058 0-.172-.062-.345-.188-.518-.188-.92-.343-1.208-.469l1.121-2.438-8.796.002zm1.898 14.156c-.863-1.125-1.755-2.188-2.674-3.188l1.208-1.03c.632.625 1.581 1.626 2.846 3l-1.38 1.218zm.517-4.594h-1.984c0-.062-.03-.155-.086-.281 0-.313-.086-.781-.259-1.406.402.063.977.095 1.725.095.977.062 1.437-.375 1.38-1.313v-5.25h1.639v5.531c.057 1.687-.748 2.563-2.415 2.624zm7.418-.937c-1.496-1.812-2.76-3.219-3.795-4.219l1.208-1.125c.977.876 2.299 2.25 3.967 4.125l-1.38 1.219zm.172 7.312c-.345-.5-.862-1.28-1.552-2.345-.69-.998-1.237-1.78-1.639-2.344l1.294-.938c1.38 1.812 2.501 3.375 3.364 4.688l-1.467.939zm13.14-11.906l-.949-1.313c-2.415.063-4.688.188-6.814.375-.345 0-.862.063-1.552.188.459-.125.401-.125-.173 0l-.604-1.594c.518-.375.977-.781 1.38-1.22 1.208-1.438 2.329-2.967 3.364-4.594l1.639.656c-1.266 1.75-2.587 3.407-3.967 4.969.804-.062 2.126-.125 3.967-.188.747-.062 1.294-.094 1.639-.094-.518-.75-1.064-1.469-1.639-2.156l1.208-.844c.69.812 1.725 2.062 3.105 3.75.345.438.604.75.776.938l-1.38 1.127zm-5.865 70.187c-1.035 3.502-1.783 5.938-2.242 7.313l-1.812-.844c.977-2.499 2.012-5.687 3.105-9.563.115.063.345.156.69.281.402.188.718.312.949.375-.173.501-.403 1.312-.69 2.438zm-.949-6.844c-.23-.5-.575-1.187-1.035-2.062-.806-1.5-1.41-2.625-1.811-3.375l1.553-.75c.574.938 1.35 2.312 2.329 4.125.287.501.488.876.604 1.125l-1.64.937zm-2.415-17.19v-18.281h2.329c.173-.623.402-1.53.69-2.718.114-.5.201-.845.259-1.031l1.811.281c-.345 1.375-.662 2.53-.949 3.468h4.054v18.094h-1.725v-1.781h-4.744v1.969h-1.725v-.001zm.251-74.217v-1.594h1.466v-7.875h2.329c.057-.312.143-.75.259-1.313.057-.5.114-.905.172-1.219l1.639.094c-.058.188-.144.501-.259.938-.172.688-.288 1.188-.345 1.5h3.364v17.25c.057 1.5-.633 2.281-2.07 2.344h-2.07c0-.126-.058-.344-.172-.656-.058-.438-.116-.782-.172-1.031h1.725c.863 0 1.294-.344 1.294-1.031v-7.406h-4.14c.115 4.688-.431 8.187-1.639 10.5l-1.467-1.126c1.149-2 1.667-5.124 1.553-9.375h-1.467zm.094 42.314v-13.313h8.539v10.781c.057 1.5-.633 2.28-2.07 2.344h-2.243c-.058-.562-.144-1.095-.259-1.594h1.897c.805 0 1.178-.281 1.122-.844v-1.969h-5.434v4.594l-1.552.001zm1.38 15.31v5.625h4.744v-5.625h-4.744zm0 7.312v5.719h4.744v-5.719h-4.744zm.172-34.435v2.156h5.434v-2.156h-5.434zm0 3.563v2.25h5.434v-2.25h-5.434zm1.372-42.033v6.375h4.14v-6.375h-4.14zm1.812 5.157c-.345-1.125-.72-2.25-1.122-3.375l1.208-.469c.057.25.173.595.345 1.031.229.438.518 1.157.862 2.156l-1.293.657zm.172 8.25c-.345-1.125-.748-2.312-1.208-3.563l1.294-.469c.287.813.718 2.001 1.293 3.563l-1.379.469zm6.305 101.063v-7.594h-3.968v1.125h-1.639v-11.438h5.606v-4.5h1.725v4.5h5.692v11.438h-1.725v-1.125h-3.967v7.594h-1.724zm-3.968-16.126v6.845h3.968v-6.845h-3.968zm7.676-16.345h-3.622c-.058-.25-.116-.625-.173-1.125-.116-.312-.172-.562-.172-.75h3.45c1.667.125 2.501-.687 2.501-2.438.172-5.562.259-9.594.259-12.094h-5.52c-.575 1.375-1.151 2.625-1.725 3.75-.461-.375-.949-.718-1.466-1.031 1.208-2.123 2.271-4.874 3.191-8.249l1.725.469c-.116.501-.317 1.188-.604 2.063-.23.562-.375.97-.431 1.219h6.642v1.5c-.116 5.812-.231 10.029-.345 12.654-.059 2.626-1.295 3.969-3.71 4.032zm-1.819-81.811c.172 2.938-.748 5.219-2.76 6.844l-.431-.469-.862-.938c1.781-1.25 2.587-3.125 2.415-5.625v-2.718h6.9v5.438c-.058 1.063.431 1.563 1.466 1.5h1.121c0 .126-.03.313-.086.563-.116.501-.172.876-.172 1.125h-1.639c-1.61.063-2.387-.812-2.329-2.625v-4.313h-3.622l-.001 1.218zm.353 75.248c-1.035-1.688-2.127-3.344-3.277-4.969l1.294-1.031c.172.251.459.626.862 1.125 1.092 1.562 1.954 2.812 2.587 3.75l-1.466 1.125zm-2.941-56.967v-10.313h8.884v10.313h-1.639v-1.875h-5.606v1.875h-1.639zm2.941 31.439c-1.783.062-2.645-.844-2.587-2.719v-7.595h1.639v3.563c2.242-.938 4.226-1.937 5.951-3l.949 1.406c-2.646 1.5-4.946 2.625-6.9 3.375v1.969c0 .938.488 1.406 1.466 1.406h2.156c1.035 0 1.581-.375 1.639-1.125.114-.75.201-1.595.258-2.531.632.313 1.15.501 1.553.563-.058.625-.144 1.375-.259 2.25l-.086.281c-.288 1.5-1.237 2.217-2.846 2.155h-2.933v.002zm.086-11.625c-1.841.063-2.731-.875-2.674-2.813v-7.312h1.639v3.938c2.07-.812 3.938-1.78 5.606-2.905l.949 1.5c-2.415 1.312-4.601 2.376-6.555 3.188v1.313c-.058 1.062.431 1.562 1.466 1.5h2.156c.919 0 1.466-.438 1.639-1.313.114-.812.201-1.625.258-2.438.287.062.632.188 1.035.375.229.062.402.126.518.188-.116 1-.259 1.845-.431 2.531-.23 1.5-1.151 2.25-2.76 2.25h-2.846zm-1.388-28.533v5.438h5.606v-5.438h-5.606zm4.752 88.594h-3.967v6.845h3.967v-6.845zm7.974 4.594c-1.265-1.188-2.387-2.188-3.364-3l1.035-1.313c1.208.938 2.385 1.907 3.536 2.906l-1.207 1.407zm.776-28.72c-1.035 3.502-1.783 5.938-2.243 7.313l-1.811-.844c.977-2.499 2.012-5.687 3.105-9.563.115.063.345.157.69.282.402.187.718.313.949.374-.172.501-.402 1.313-.69 2.438zm-3.967-43.154v-1.781h20.441v1.781h-9.66l-1.035 3.094h9.487v16.313h-1.639v-1.406h-14.835v1.406h-1.639v-16.313h6.814l.862-3.094h-8.796zm3.019 36.31c-.23-.499-.575-1.186-1.035-2.062-.806-1.5-1.41-2.625-1.811-3.375l1.552-.75c.574.938 1.351 2.312 2.329 4.125.287.501.488.876.604 1.124l-1.639.938zm1.466 38.47c-1.035 3.375-1.841 6.188-2.415 8.438l-1.725-.656c.977-2.874 1.812-5.719 2.501-8.53.172.062.401.155.69.28.115.062.431.218.949.468zm-.431-9c-1.151-1.187-2.243-2.25-3.278-3.188l1.035-1.312c1.437 1.188 2.587 2.219 3.45 3.094l-1.207 1.406zm.711-83.531c-.345 1.626-.979 3.343-1.897 5.156-.058-.063-.145-.126-.259-.188-.289-.25-.69-.595-1.208-1.031.862-1.5 1.408-3 1.639-4.5.287-1.374.431-3.687.431-6.938v-8.625h17.25v5.719h-15.525v3.188c0 3.188-.144 5.594-.431 7.219zm-2.005 22.439v11.813h3.45v-11.813h-3.45zm2.436-36.97v2.625h13.8v-2.625h-13.8zm1.726 7.875h-.259c-.058-.437-.172-.938-.345-1.5 4.83-.312 9.257-.656 13.283-1.031l.345 1.406c-1.323.188-3.421.407-6.296.656h-.432v2.25l7.245-.563.172 1.406-7.417.563v2.344l8.711-.75.172 1.594-8.884.656v.75c-.116 1.312.518 1.906 1.898 1.781h2.932c1.15.062 1.753-.313 1.812-1.125.057-.188.143-.656.259-1.406.574.188 1.121.375 1.639.562-.058.563-.173 1.094-.345 1.594-.23 1.374-1.237 2.03-3.019 1.969h-3.709c-2.186.062-3.249-.97-3.191-3.094v-.844l-6.124.469-.172-1.5 6.296-.563v-2.25l-5.002.375-.173-1.5 5.175-.375v-2.25c-1.035.126-2.56.251-4.571.376zm13.692 105.656c-.345.562-.634 1.154-.863 1.781-4.888-1.627-7.935-4.688-9.143-9.188h-2.587v6.938c1.553-.375 2.989-.905 4.313-1.595 0 .688.028 1.281.086 1.781-1.035.312-2.531.938-4.485 1.875-.23.062-.634.249-1.208.563l-.949-1.595c.401-.438.604-.938.604-1.5v-16.78h5.348c-.058-.313-.173-.781-.345-1.406-.116-.438-.202-.75-.259-.938l1.812-.28c.114.312.259.812.431 1.5l.259 1.125h5.175v10.312h-6.469c.518 1.375 1.15 2.594 1.897 3.656 1.609-.999 3.133-2.063 4.571-3.188l1.121 1.406c-1.265.876-2.818 1.844-4.657 2.906 1.264 1.19 3.047 2.065 5.348 2.627zm-8.453-29.845v-7.594h-3.968v1.125h-1.639v-11.438h5.606v-4.499h1.725v4.499h5.692v11.438h-1.725v-1.125h-3.967v7.594h-1.724zm-4.312-46.716v3h4.657v-3h-4.657zm0 4.406v3h4.657v-3h-4.657zm0 4.5v2.906h4.657v-2.906h-4.657zm.172 51.53v2.719h9.143v-2.719h-9.143zm0 7.125h9.143v-2.906h-9.143v2.906zm.173-36.97v6.845h3.968v-6.845h-3.968zm9.66 0h-3.967v6.845h3.967v-6.845zm-.259-30.591h-3.45v11.813h3.45v-11.813zm7.457 78.718v-12.844c-.69 1.252-1.41 2.406-2.156 3.469-.116-.312-.23-.75-.345-1.312-.116-.438-.202-.75-.259-.938 2.012-3.125 3.564-6.688 4.658-10.688l1.725.375c-.633 2.001-1.293 3.844-1.983 5.531v16.405h-1.64v.002zm.776-43.534c-1.265-1.188-2.387-2.188-3.364-3l1.035-1.313c1.208.938 2.385 1.907 3.536 2.906l-1.207 1.407zm-3.105-39.216v-1.594h4.313v-2.156h1.639v2.156h4.227v1.594h-4.227v2.25h3.623v8.906h-3.623v2.344h4.227v1.595h-4.227v3.655h-1.639v-3.655h-4.485v-1.595h4.485v-2.344h-3.623v-8.906h3.623v-2.25h-4.313zm4.399 42.123c-1.035 3.375-1.841 6.188-2.415 8.438l-1.725-.656c.977-2.874 1.812-5.719 2.501-8.53.172.062.401.156.69.28.115.062.431.219.949.468zm-.431-9c-1.151-1.186-2.243-2.248-3.278-3.187l1.035-1.313c1.437 1.188 2.587 2.22 3.45 3.095l-1.207 1.405zm-1.726-29.373v2.25h5.779v-2.25h-5.779zm0 3.563v2.344h5.779v-2.344h-5.779zm.482-20.845v-18.281h2.329c.173-.624.402-1.531.69-2.719.114-.5.201-.844.258-1.031l1.812.281c-.345 1.375-.662 2.531-.949 3.469h4.054v18.094h-1.725v-1.781h-4.744v1.969l-1.725-.001zm3.055 80.25v-1.688h5.865v-4.594h1.725v4.594h6.382v1.688h-5.434c1.38 4.125 3.507 7.469 6.383 10.031-.403.5-.748 1.094-1.035 1.78-2.99-3-5.089-6.594-6.296-10.78v8.905h3.363v1.688h-3.363v4.406h-1.725v-4.406h-3.364v-1.688h3.364v-8.905c-1.324 4.562-3.394 8.281-6.21 11.155-.23-.437-.604-.999-1.122-1.688 2.989-2.874 5.117-6.375 6.383-10.5l-4.916.002zm-1.329-96.844v5.625h4.744v-5.625h-4.744zm0 7.313v5.719h4.744v-5.719h-4.744zm16.078 71.404c-.345.562-.634 1.156-.863 1.781-4.888-1.627-7.935-4.688-9.143-9.188h-2.587v6.938c1.553-.375 2.989-.905 4.313-1.595 0 .688.028 1.282.086 1.781-1.035.313-2.531.938-4.485 1.875-.23.062-.634.249-1.208.563l-.949-1.595c.401-.438.604-.938.604-1.5v-16.78h5.348c-.058-.312-.173-.78-.345-1.405-.116-.438-.202-.75-.259-.938l1.812-.281c.114.313.259.813.431 1.5l.259 1.125h5.175v10.312h-6.469c.518 1.376 1.149 2.595 1.897 3.656 1.609-.999 3.133-2.063 4.571-3.188l1.121 1.406c-1.265.876-2.818 1.845-4.657 2.905 1.264 1.192 3.047 2.066 5.348 2.628zm-12.593-16.124v2.718h9.143v-2.718h-9.143zm0 7.124h9.143v-2.906h-9.143v2.906zm5.261-28.341c-.116 2.875-1.093 5.375-2.933 7.5-.116-.125-.375-.312-.776-.562-.289-.188-.518-.345-.69-.469 1.264-1.376 2.07-2.75 2.415-4.125.345-1.313.517-3.5.517-6.563v-9.562h7.763v18.28c.057 1.625-.662 2.5-2.156 2.625h-2.501l-.345-1.78h1.897c1.091.124 1.581-.313 1.466-1.313v-4.031h-4.657zm4.795-24.97h-3.622c-.058-.25-.116-.625-.173-1.125-.116-.312-.172-.562-.172-.75h3.45c1.667.125 2.501-.687 2.501-2.438.172-5.562.259-9.593.259-12.094h-5.52c-.576 1.375-1.151 2.625-1.725 3.75-.461-.375-.949-.718-1.466-1.031 1.208-2.124 2.271-4.875 3.191-8.25l1.725.469c-.116.501-.317 1.188-.604 2.063-.23.563-.375.97-.431 1.219h6.641v1.5c-.116 5.812-.23 10.031-.345 12.656-.059 2.625-1.294 3.968-3.709 4.031zm-1.467-6.562c-1.035-1.688-2.128-3.343-3.277-4.969l1.294-1.031c.172.25.459.625.862 1.125 1.092 1.562 1.954 2.812 2.587 3.75l-1.466 1.125zm-3.155 27.406c0 .313-.03.75-.086 1.313v1.125h4.571v-4.313h-4.485v1.875zm0-7.874v4.313h4.485v-4.313h-4.485zm9.258 35.28v-1.595h2.501v-4.499h1.552v4.499h2.156v1.595h-2.156v2.999l.173-.188c.401.375 1.005.97 1.811 1.781.402.375.69.655.862.844l-.949 1.5c-.403-.563-1.035-1.313-1.897-2.25v11.531h-1.552v-12.188c-.69 2.376-1.496 4.438-2.415 6.188l-.518-2.345c1.092-1.999 2.07-4.594 2.933-7.78v-.094l-2.501.002zm3.191 42.501c-1.496.313-2.646.563-3.45.75l-.086-1.781c1.495-.188 3.105-.437 4.83-.75v1.595c-.288.061-.72.124-1.294.186zm-.259-69.907c-1.266-1.25-2.329-2.218-3.191-2.905l1.122-1.313c1.208.876 2.299 1.781 3.277 2.719l-1.208 1.499zm.863 75.157h-2.329c0-.562-.086-1.156-.259-1.781.518.062 1.322.095 2.415.095 1.208.062 1.782-.438 1.725-1.5.172-1.438.259-3.53.259-6.281h-5.175l.517-8.344h1.553l-.431 6.655h2.329l.604-7.969h-4.916v-1.594h6.555l-.69 9.562h1.294c-.058 1.188-.144 3.188-.259 6-.058 1.063-.086 1.813-.086 2.25-.001 1.937-1.036 2.907-3.106 2.907zm.086-71.781c-.69 2.752-1.323 5.471-1.897 8.156l-1.811-.562c.632-2.312 1.322-5.063 2.07-8.25.172.062.459.156.862.281.345.188.604.314.776.375zm-.259-9.562c-1.323-1.313-2.387-2.312-3.191-3l1.121-1.313c.229.188.574.502 1.035.938.977.813 1.725 1.469 2.242 1.969l-1.207 1.406zm-.944-29.001v-1.781h2.674v-4.594h1.725v4.594h4.14v-5.625h1.725v5.625h5.52v-5.625h1.725v5.625h2.932v1.781h-2.932v8.156h-8.97v-8.156h-4.14v12.094h15.611v1.781h-17.336v-13.875h-2.674zm5.774 28.063c-.806 1.375-1.811 2.752-3.019 4.125-.345-.5-.72-.969-1.122-1.405 1.782-1.688 3.22-3.875 4.313-6.563l1.725.281c-.345.625-.662 1.281-.949 1.969h10.782v1.594h-11.73v-.001zm-3.967 9.469v-1.595h2.156l.604-5.719h11.471l-.086 5.719h2.07v1.595h-2.156c0 1.5-.058 2.905-.173 4.219h1.725v1.594h-1.725c-.116 2.25-1.265 3.343-3.45 3.281h-2.933c-.058-.188-.116-.469-.172-.844l-.259-.845c.919.062 1.897.095 2.933.095 1.38.062 2.126-.501 2.242-1.688h-10.954l.604-5.812h-1.897zm2.932 32.841v-7.874h11.558v7.874h-5.002c0 .75-.058 1.438-.172 2.062h6.469v1.5h-6.038c.919 1.627 3.019 2.625 6.296 3-.23.5-.461 1.063-.69 1.688-3.45-.688-5.722-2.001-6.813-3.938-.92 1.875-3.191 3.313-6.814 4.313-.23-.563-.517-1.125-.862-1.688 3.564-.75 5.692-1.875 6.382-3.375h-5.865v-1.5h6.296c.056-.248.086-.593.086-1.03.057-.438.086-.78.086-1.031l-4.917-.001zm7.591-8.718v-1.688h-3.709v1.688h-1.639v-1.688h-3.45v-1.406h3.45v-2.156h1.639v2.156h3.709v-2.156h1.552v2.156h3.623v1.406h-3.623v1.688h-1.552zm5.692 34.158c-.345.563-.633 1.125-.863 1.688-2.473-1.688-4.457-3.844-5.951-6.469-1.438 2.5-3.45 4.75-6.038 6.75-.058-.188-.202-.47-.431-.845-.172-.375-.316-.655-.431-.844 2.989-2.062 5.146-4.654 6.469-7.781l1.725.188c-.172.375-.345.72-.518 1.031 1.609 2.751 3.623 4.844 6.038 6.282zm-3.881-54.062c.057-.437.086-1.125.086-2.063.057-.998.086-1.719.086-2.155h-8.884l-.518 4.219h9.23zm-9.143 67.936v-1.594h7.59c1.035-3.248 1.811-5.968 2.329-8.156l1.552.47c-.748 2.625-1.552 5.188-2.415 7.688h3.364v1.595h-12.42v-.003zm1.035-77.874l-.431 4.125h8.711v-4.125h-8.28zm1.294 75.062c-.345-1.749-.892-3.812-1.639-6.188l1.466-.375c.172.688.229.938.172.75.69 2.312 1.178 4.094 1.466 5.344l-1.465.469zm-1.035-42.971v1.875h8.366v-1.875h-8.366zm0 3.188v1.875h8.366v-1.875h-8.366zm.518 31.158v-1.594h8.539v1.594h-8.539zm3.708-56.874c-.172-.125-.431-.343-.776-.656-.69-.624-1.265-1.125-1.725-1.5l.862-1.03c.69.5 1.553 1.188 2.587 2.062l-.948 1.124zm.259-5.906c-.806-.812-1.639-1.53-2.501-2.155l.862-1.031c.69.501 1.553 1.188 2.587 2.062l-.948 1.124zm.259 70.28c-.289-1.938-.69-3.844-1.208-5.719l1.466-.281c.459 1.875.862 3.75 1.208 5.625l-1.466.375zm-.773-105.75v6.375h5.52v-6.375h-5.52zm9.61 62.593v-1.688h2.587v-4.405h1.639v4.405h2.243v1.688h-2.243v4.78l2.415-.75v1.781l-1.812.562c-.288.063-.489.126-.604.188v6.655c.057 1.813-.69 2.72-2.243 2.72h-1.725c-.058-.313-.116-.688-.173-1.125-.058-.313-.086-.563-.086-.75h1.466c.804.062 1.178-.313 1.121-1.125v-5.906l-1.553.563c-.517.188-.892.312-1.121.375l-.172-1.97c.345-.124.919-.28 1.725-.469.459-.124.833-.218 1.121-.281v-5.249l-2.585.001zm.775-15.873v-17.344h1.639v17.344h-1.639zm3.537-18.094c-.289-.313-.72-.812-1.294-1.5l-1.466-1.594 1.294-1.031c1.035 1 1.954 2.001 2.76 3l-1.294 1.125zm1.121 81.437c-1.841-.188-2.876-1.281-3.105-3.28.172-2.124 1.208-3.281 3.105-3.47 1.954.188 3.019 1.346 3.191 3.47-.172 1.997-1.237 3.092-3.191 3.28zm.173-73.468c-.92-.875-1.783-1.625-2.587-2.25l.949-1.125c.345.25.805.595 1.38 1.031l1.294 1.125-1.036 1.219zm10.9-21.877v-7.406h1.725c-1.496-.812-2.99-2.03-4.485-3.656h-.345c-1.265 1.312-2.731 2.531-4.398 3.656h1.639c.057.938 0 1.781-.172 2.531-.23 2.001-1.583 3.688-4.054 5.063-.116-.063-.259-.188-.431-.375-.116-.126-.432-.407-.949-.844 2.243-1.125 3.479-2.405 3.709-3.844.172-.687.229-1.531.172-2.531-1.438.938-3.105 1.781-5.002 2.531-.058-.188-.202-.469-.431-.844-.172-.375-.317-.624-.431-.75 3.392-1.25 6.094-2.78 8.107-4.594h-5.951v-10.219h16.732v10.219h-6.038c1.782 1.75 4.485 3.126 8.107 4.125l-.259.562c-.288.501-.461.876-.518 1.125-1.955-.624-3.622-1.343-5.002-2.156v7.406h-1.725zm-10.814 26.752c-.403 1.375-.72 2.313-.949 2.813l-1.553-.469c.632-1.438 1.322-3.438 2.07-6 .518.25 1.005.469 1.466.656-.229.625-.575 1.626-1.034 3zm-.259 63.249c-1.093.126-1.697.813-1.811 2.063.114 1.062.718 1.655 1.811 1.78 1.149-.125 1.782-.718 1.897-1.78-.115-1.251-.747-1.937-1.897-2.063zm.949-72.249c-.92-.875-1.697-1.594-2.329-2.155l.949-1.031c.862.626 1.667 1.312 2.415 2.062l-1.035 1.124zm.464-37.439v2.812h5.865v-2.812h-5.865zm0 4.219v2.813h5.865v-2.813h-5.865zm1.864 76.186c-.23.313-.403.532-.518.656l-1.121-1.406c.518-.562.747-1.312.69-2.25v-14.343h1.639v14.343c.69-.562 1.667-1.468 2.933-2.719l.259-.281c.115.627.259 1.282.431 1.97-1.151 1.001-2.415 2.155-3.795 3.469l-.518.561zm.863-44.373c-.69.063-1.237.095-1.639.095l-.259-1.5c2.875-.062 5.693-.188 8.453-.375l.259 1.5c-.403 0-1.006.032-1.811.094-.806 0-1.41.032-1.812.094v2.72h4.227v1.5h-4.227v2.625h3.364v6.28h-8.194v-6.28h3.278v-2.625h-3.968v-1.5h3.968v-2.625l-1.639-.003zm7.59 15.469c-.461.062-1.266.094-2.415.094 0-.626-.116-1.219-.345-1.781h2.243c1.035.062 1.523-.407 1.466-1.405v-16.125h-10.781v-1.595h12.42v17.906c.056 1.937-.806 2.906-2.588 2.906zm-7.763-7.219v3.375h5.175v-3.375h-5.175zm10.178 38.841c-.345-.502-.834-1.188-1.466-2.063-.748-1.125-1.323-1.969-1.725-2.53-.92 1.75-2.559 3.529-4.916 5.344-.345-.563-.748-1.063-1.208-1.5 4.14-2.499 6.21-6.405 6.21-11.719.114-2.938.172-5.905.172-8.905h1.639v5.343c-.058 1.312-.116 2.531-.172 3.656-.058 2.438-.403 4.438-1.035 6 .518.688 1.264 1.656 2.243 2.906.747 1 1.294 1.719 1.639 2.155l-1.381 1.313zm-6.382-15.187c-.058-.124-.116-.281-.173-.468-.862-2.124-1.61-3.844-2.242-5.156l1.38-.655c.459.875 1.091 2.188 1.897 3.938.287.688.518 1.218.69 1.593l-1.552.748zm7.019-67.936h-5.865v2.812h5.865v-2.812zm-5.865 4.219v2.813h5.865v-2.813h-5.865zm8.708 67.842v-1.5h8.625c.057-.249.114-.623.172-1.125.057-.248.086-.436.086-.562h1.725c-.058.626-.145 1.188-.259 1.688h3.795l-.259-.562c-.172-.375-.317-.656-.431-.844l1.552-.375c.229.5.518 1.095.862 1.78h3.881v1.5h-8.366c1.208 1.751 4.14 2.657 8.797 2.72l-.258.562c-.173.501-.289.844-.345 1.031-5.405-.312-8.683-1.688-9.833-4.125-.576 2.062-3.825 3.501-9.746 4.312-.116-.248-.259-.656-.431-1.219-.058-.188-.116-.312-.173-.375 5.175-.562 8.078-1.53 8.711-2.906h-8.105zm.776-39.405v-1.875h18.112v1.875h-8.194c0 2.5-.03 4.375-.086 5.625h9.401v1.875h-9.056c.977 4.813 4.054 7.938 9.229 9.375-.23.312-.489.719-.776 1.22-.172.312-.289.53-.345.655-5.175-1.875-8.28-5.062-9.315-9.562-.748 4.188-3.767 7.468-9.056 9.844-.461-.75-.862-1.312-1.208-1.688 5.462-2.375 8.481-5.656 9.056-9.844h-8.97v-1.875h9.142c.115-2.188.173-4.063.173-5.625h-8.107zm.259 35.843v-5.906h7.417v5.906h-7.417zm.086 15.281v-7.03h7.417v6.938h-1.552v-1.03h-4.313v1.125h-1.552v-.003zm1.466-19.781v3.093h4.313v-3.093h-4.313zm.086 14.249v3h4.313v-3h-4.313zm1.797-65.873h-.345l-.604-1.688c.402-.188.919-.75 1.553-1.688.632-.812 1.264-1.781 1.897-2.906-1.151.063-2.243.157-3.277.281l-.518-1.688c.345-.375.747-.968 1.208-1.781.804-1.313 1.695-3.094 2.673-5.344l1.725.656c-.058.126-.144.281-.259.469-1.438 2.625-2.559 4.594-3.364 5.906h1.208c.747-.062 1.294-.094 1.639-.094l.776-1.406c.287-.563.518-.999.69-1.313l1.553.75c-1.093 1.875-2.79 4.532-5.089 7.969.402 0 1.035-.062 1.897-.188.977-.062 1.695-.125 2.156-.188-.116.75-.172 1.282-.172 1.594-1.84.19-3.622.41-5.347.659zm5.262 3.937c-2.013.313-4.054.719-6.124 1.219l-.345-1.688c.69-.125 1.868-.375 3.537-.75 1.264-.249 2.242-.437 2.932-.563v1.782zm8.797-.562c-1.38 1.437-3.048 2.78-5.002 4.031-.23-.313-.604-.844-1.121-1.594 2.243-1.25 3.881-2.531 4.917-3.844-1.438-1.937-2.531-4.219-3.278-6.844-.172 4.688-1.496 8.657-3.967 11.906-.116-.126-.345-.344-.69-.656-.289-.313-.518-.532-.69-.656 1.495-1.937 2.501-3.938 3.019-6 .574-2.063.862-5.156.862-9.281v-2.438h-1.811v-1.688h10.609v1.781l-2.07 4.688h3.623v1.688c-.806 2.938-1.897 5.438-3.277 7.5 1.208 1.313 2.702 2.438 4.485 3.375-.345.563-.69 1.156-1.035 1.781-1.844-1.25-3.367-2.498-4.574-3.749zm-7.576 52.749v-5.906h7.504v5.906h-7.504zm5.951 15.281v-1.125h-4.399v1.031h-1.552v-6.938h7.504v7.031h-1.553v.001zm-4.398-19.781v3.093h4.399v-3.093h-4.399zm0 14.249v3h4.399v-3h-4.399zm1.711-76.092v1.594c1.091 3.938 2.501 7 4.226 9.188 1.091-1.688 2.012-3.718 2.76-6.094h-3.622v-1.781l2.07-4.688h-5.434v1.781zm16.613 34.72c-2.301 1.75-4.888 3.469-7.763 5.155l-.259-.562c-.23-.438-.431-.781-.604-1.031 2.644-1.438 5.117-3.125 7.417-5.062l1.209 1.5zm-8.625 45.591v-1.781h8.28v-19.029h1.897v6.937h8.711v1.875h-8.711v10.219h10.35v1.781l-20.527-.002zm2.76-39.216v-1.781h14.921v1.781h-6.555v5.812h8.798v1.595h-19.406v-1.595h8.883v-5.812h-6.641zm-2.156-6.469v-4.594h9.143c-.23-.875-.518-1.719-.862-2.531l1.897-.375c.114.313.287.813.518 1.5.172.563.315.971.431 1.22l-.69.188h8.884v4.595h-1.812v-2.813h-15.784v2.813h-1.725v-.003zm6.829-28.626c-1.266-1.25-2.329-2.218-3.191-2.906l1.122-1.313c1.207.876 2.299 1.781 3.277 2.719l-1.208 1.5zm.949 3.375c-.69 2.751-1.324 5.47-1.897 8.156l-1.811-.563c.632-2.312 1.322-5.063 2.07-8.25.172.063.459.157.862.281.344.189.603.314.776.376zm-.259-9.562c-1.323-1.313-2.387-2.312-3.191-3l1.121-1.313c.229.188.574.501 1.035.938.977.813 1.725 1.469 2.243 1.969l-1.208 1.406zm4.83-.938c-.806 1.375-1.812 2.751-3.019 4.125-.345-.5-.719-.968-1.121-1.406 1.782-1.688 3.22-3.875 4.313-6.563l1.725.281c-.345.625-.662 1.282-.949 1.969h10.781v1.594h-11.73zm-3.968 9.469v-1.594h2.156l.604-5.719h11.471l-.086 5.719h2.07v1.594h-2.156c0 1.5-.058 2.906-.172 4.219h1.725v1.594h-1.725c-.116 2.25-1.266 3.343-3.45 3.281h-2.933c-.058-.188-.116-.469-.172-.844l-.259-.844c.919.062 1.897.094 2.933.094 1.38.062 2.126-.501 2.242-1.688h-10.954l.604-5.813h-1.898v.001zm10.594 31.532c-2.646-1.875-5.175-3.594-7.59-5.155l.948-1.406c2.76 1.688 5.29 3.313 7.59 4.875l-.948 1.686zm1.74-27.313c.057-.437.086-1.125.086-2.063.057-.999.086-1.718.086-2.156h-8.884l-.518 4.219h9.23zm-8.107-9.938l-.431 4.125h8.711v-4.125h-8.28zm4.485 9.563c-.172-.125-.431-.343-.776-.656-.69-.624-1.265-1.125-1.725-1.5l.862-1.031c.69.501 1.552 1.188 2.587 2.063l-.948 1.124zm.258-5.907c-.806-.812-1.639-1.531-2.501-2.156l.862-1.031c.69.501 1.552 1.188 2.587 2.062l-.948 1.125zm5.276 43.064v-18.281h2.329c.173-.624.402-1.53.69-2.719.115-.5.201-.845.259-1.031l1.812.281c-.345 1.375-.662 2.53-.949 3.469h4.054v18.094h-1.725v-1.78h-4.744v1.969l-1.726-.002zm1.725-16.595v5.625h4.744v-5.625h-4.744zm0 7.314v5.719h4.744v-5.719h-4.744zm3.622 37.435c0 2.188-.748 3.812-2.243 4.875l-.776-.844c1.035-.812 1.581-2.031 1.639-3.656h-1.466v-3.094h2.846v2.719zm2.211-71.405c-1.265-1.188-2.387-2.188-3.364-3l1.035-1.313c1.208.938 2.385 1.907 3.536 2.906l-1.207 1.407zm1.294 2.906c-1.035 3.375-1.841 6.188-2.415 8.438l-1.725-.656c.977-2.874 1.812-5.719 2.501-8.531.172.063.401.157.69.281.114.062.431.219.949.468zm-.431-9c-1.151-1.187-2.243-2.25-3.278-3.188l1.035-1.313c1.437 1.188 2.587 2.219 3.45 3.094l-1.207 1.407zm6.845 49.158h-3.623c-.058-.251-.116-.626-.172-1.125-.116-.312-.172-.562-.172-.75h3.45c1.667.124 2.501-.688 2.501-2.438.172-5.563.259-9.595.259-12.095h-5.52c-.575 1.375-1.151 2.625-1.725 3.75-.461-.375-.949-.718-1.466-1.03 1.208-2.124 2.271-4.875 3.191-8.25l1.725.469c-.116.501-.317 1.188-.604 2.063-.23.562-.375.97-.431 1.219h6.642v1.5c-.116 5.812-.23 10.031-.345 12.656-.059 2.623-1.295 3.967-3.71 4.031zm9.715-33.689c-.345.562-.634 1.156-.863 1.781-4.888-1.626-7.935-4.688-9.143-9.188h-2.587v6.938c1.553-.375 2.989-.905 4.313-1.594 0 .688.028 1.282.086 1.781-1.035.312-2.531.938-4.485 1.875-.23.062-.633.249-1.208.563l-.949-1.594c.402-.438.604-.938.604-1.5v-16.781h5.348c-.058-.312-.173-.781-.345-1.406-.116-.438-.202-.75-.259-.938l1.812-.281c.114.313.259.813.431 1.5l.259 1.125h5.175v10.313h-6.469c.518 1.375 1.149 2.594 1.897 3.656 1.609-.999 3.133-2.063 4.571-3.188l1.122 1.406c-1.266.876-2.818 1.844-4.658 2.906 1.264 1.189 3.047 2.063 5.348 2.626zm-11.181 27.126c-1.035-1.688-2.128-3.343-3.277-4.97l1.294-1.03c.172.25.459.625.862 1.125 1.092 1.562 1.954 2.812 2.587 3.75l-1.466 1.125zm-1.412-43.251v2.719h9.143v-2.719h-9.143zm0 7.125h9.143v-2.906h-9.143v2.906zm11.715 34.157c-.23.313-.806.938-1.725 1.875-.288-.938-.489-1.625-.604-2.062 2.012-1.688 3.708-3.938 5.089-6.75h-4.658v-1.688h6.382v1.78c-.69 1.438-1.41 2.72-2.156 3.845v12h-1.552v-9.845l-.776.845zm-1.38 41.091v-21.094h5.606v1.781l-1.639 6.094c1.149 1.5 1.695 3.312 1.639 5.438.057 1.938-.604 3.032-1.983 3.281-.403.062-.834.094-1.294.094-.116-.624-.259-1.219-.431-1.781h1.121c.863 0 1.264-.593 1.208-1.781.057-1.562-.489-3.248-1.639-5.062l1.639-6.468h-2.76v19.499h-1.467zm3.105-49.997c-.69-1.5-1.323-2.72-1.897-3.656l1.466-.75c.287.438.747 1.281 1.38 2.531.287.501.488.876.604 1.125l-1.553.75zm3.105 10.219c-.116-.188-.345-.5-.69-.938-.69-.938-1.208-1.594-1.553-1.969l1.035-1.031c.401.375.977 1.031 1.725 1.97.345.438.574.719.69.844l-1.207 1.124zm1.552 36.685c-.748.688-1.582 1.625-2.501 2.813l-1.121-1.406c.459-.562 1.149-1.28 2.07-2.155l.862-.938v-8.063h-1.552v-1.688h3.019v9.844c.977 1.626 2.674 2.405 5.089 2.344 2.702 0 4.858-.031 6.469-.094-.172.624-.317 1.219-.431 1.781-2.876 0-4.975-.032-6.296-.094-2.589.061-4.458-.719-5.608-2.344zm-2.245-76.655v-1.875c.459-.812.977-2.156 1.552-4.031l1.725.375c-.345 1.063-.834 2.344-1.466 3.844h4.571c.345-1.562.66-3.281.949-5.156l1.812.281c-.289 1.626-.604 3.25-.949 4.875h11.644v1.688h-12.075c-.116.438-.288 1.031-.518 1.781-.172.563-.288 1-.345 1.313h10.609v1.5c-1.035 2.688-2.531 4.875-4.485 6.563 1.437 1 3.679 1.781 6.728 2.344-.229.375-.517 1.031-.862 1.969-2.933-.813-5.406-1.875-7.417-3.188-1.783 1.125-4.399 2.281-7.849 3.469-.289-.75-.604-1.375-.949-1.875 3.392-.876 5.835-1.781 7.332-2.719-1.783-1.749-3.077-3.75-3.881-6-1.552 3.625-3.623 6.75-6.21 9.375-.345-.876-.662-1.438-.949-1.688 3.334-3.5 5.663-7.781 6.986-12.844l-5.953-.001zm10.094 47.001c-1.725.062-2.56-.845-2.501-2.72v-4.875c-.575 3.063-2.876 5.813-6.9 8.25-.173-.312-.576-.812-1.208-1.5 4.887-2.438 7.245-6.062 7.072-10.875.115-1.937.173-3.718.173-5.344h1.639c0 1.438-.058 3.221-.173 5.344-.058 1.188-.202 2.313-.431 3.375h1.466v5.438c-.058.874.374 1.28 1.294 1.219h.69c.862.062 1.35-.312 1.466-1.125.057-.5.143-1.438.259-2.812l1.552.562c0 .188-.03.501-.086.938-.058.75-.116 1.375-.173 1.875-.289 1.562-1.237 2.312-2.846 2.25h-1.293zm-7.935 15.872c-.289-1.249-.748-2.873-1.38-4.874l1.38-.375c.287.75.718 2.095 1.293 4.03.115.375.201.625.259.75l-1.552.469zm.086-22.622v-13.97h10.695v13.595h-1.639v-11.813h-7.417v12.188h-1.639zm3.45 35.841v-9.562c-.461.75-1.007 1.47-1.639 2.155-.058-.062-.145-.249-.259-.563-.172-.498-.317-.844-.431-1.03 1.494-1.687 2.702-3.623 3.623-5.812h-2.501v-1.5h3.019c.173-.438.431-1.125.776-2.063.057-.249.086-.406.086-.47l1.552.281c-.058.188-.144.438-.259.75-.23.688-.403 1.188-.517 1.5h5.002v1.5h-5.52c-.345.75-.69 1.469-1.035 2.156h5.348v10.124c.114 1.688-.604 2.531-2.156 2.531h-1.639c-.058-.563-.173-1.093-.345-1.595.632.063 1.178.095 1.639.095.805.063 1.178-.375 1.121-1.313v-1.407h-4.398v4.22h-1.467v.003zm1.467-11.25v2.156h4.398v-2.156h-4.398zm0 3.563v2.156h4.398v-2.156h-4.398zm4.396-58.374c1.725-1.374 3.047-3.155 3.968-5.344h-7.849c.919 2.25 2.213 4.032 3.881 5.344zm4.485-12.375c-1.208-1.125-2.358-2.124-3.45-3l1.121-1.125c1.15.876 2.329 1.813 3.537 2.813l-1.208 1.312zm.98 39.033v-10.312h9.4v10.312h-3.881v2.72h4.227v1.5h-4.227v3.28c1.667-.188 1.897-.219.69-.094 1.208-.125 2.472-.249 3.795-.375 0 .188-.029.469-.086.844v.656c-3.854.312-7.361.687-10.522 1.125l-.173-1.688 4.658-.375v-3.375h-4.141v-1.5h4.141v-2.719l-3.881.001zm0 41.653v-19.124h7.245v18.843h-1.64v-1.688h-3.968v1.969h-1.637zm1.467-50.466v2.905h2.501v-2.905h-2.501zm0 4.405v2.906h2.501v-2.906h-2.501zm.172 28.626v6.093h3.968v-6.093h-3.968zm0 7.686v6.093h3.968v-6.093h-3.968zm7.799-68.687c-.689 1.5-1.523 2.938-2.501 4.313-.172-.188-.604-.53-1.293-1.031-.116-.062-.202-.125-.259-.188 1.782-2.312 3.248-5.188 4.398-8.625l1.812.375c-.403 1.188-.834 2.312-1.293 3.375h5.002v-4.969h1.812v4.969h7.936v1.781h-7.936v5.25h7.245v1.875h-7.245v5.813h9.058v1.594h-20.7v-1.594h9.832v-5.813h-7.59v-1.875h7.59v-5.25h-5.868zm-1.503 27.97h-2.501v2.905h2.501v-2.905zm-2.501 4.405v2.906h2.501v-2.906h-2.501zm2.933 31.624v-1.78h7.331v-4.874h1.727v4.874h2.674v1.78h-2.674v12.188c.057 2.063-.949 3.125-3.021 3.188h-3.276l-.259-1.125c-.058-.375-.115-.656-.173-.845.574.062 1.609.095 3.105.095 1.322.062 1.954-.563 1.896-1.875v-11.625h-7.331v-.001zm3.191 8.531c-.461-1.062-1.151-2.468-2.07-4.219-.229-.438-.402-.78-.517-1.031l1.38-.844c.345.562.805 1.406 1.38 2.531.632 1.125 1.092 1.969 1.38 2.531l-1.553 1.032zm7.245-32.56c-.116-.062-.346-.125-.69-.188-.288-.125-.518-.188-.688-.188l1.121-3.469h-2.761v8.812c0 1.624-.807 2.468-2.416 2.531h-2.242c0-.126-.029-.346-.086-.656l-.26-1.125c.287 0 .719.03 1.294.094h.862c.862 0 1.264-.375 1.207-1.125v-8.531h-3.794v-1.594h4.658c-.576-.562-1.38-1.374-2.415-2.438-.519-.563-.921-.969-1.208-1.219l1.122-1.031 2.329 2.25 3.019-3.844h-6.986v-1.595h8.625v1.97l-3.535 4.594.515.565-.604.75h4.227v1.595l-1.294 3.842zm3.058 35.279v-1.5h9.833v-1.03l4.83-1.688h-12.766v-1.406h16.129v1.5l-6.383 2.438v.188h9.143v1.5h-9.143v1.688c0 1.749-.862 2.625-2.587 2.625h-1.554c-.748.062-1.322.094-1.725.094-.059-.562-.173-1.156-.346-1.781.978.062 1.954.095 2.933.095 1.035.062 1.523-.345 1.467-1.22v-1.5h-9.832v-.003zm.173-13.874v-1.595h9.573l-.688-2.25 1.811-.28c.346.812.604 1.655.776 2.53h8.971v1.595h-20.443zm2.759 6.467v-4.781h14.749v4.781h-14.749zm3.192-24.217c0 2.188-.748 3.812-2.242 4.875l-.775-.844c1.035-.812 1.58-2.031 1.639-3.656h-1.467v-3.094h2.847l-.002 2.719zm-1.467 20.843v1.968h11.386v-1.968h-11.386zm2.567-60.437v-1.5h8.625c.057-.249.114-.624.173-1.125.057-.249.086-.437.086-.562h1.726c-.059.625-.145 1.188-.259 1.688h3.795l-.259-.562c-.173-.375-.316-.656-.432-.844l1.553-.375c.229.501.518 1.094.862 1.781h3.882v1.5h-8.366c1.207 1.75 4.14 2.657 8.797 2.719l-.259.563c-.172.501-.288.844-.345 1.031-5.405-.312-8.684-1.688-9.833-4.125-.575 2.062-3.824 3.501-9.746 4.312-.115-.249-.26-.656-.432-1.219-.059-.188-.115-.312-.173-.375 5.175-.563 8.078-1.531 8.711-2.906h-8.106zm1.035-3.562v-5.906h7.418v5.906h-7.418zm.087 15.281v-7.031h7.417v6.938h-1.554v-1.031h-4.312v1.125l-1.551-.001zm1.466-19.781v3.094h4.312v-3.094h-4.312zm.086 14.25v3h4.312v-3h-4.312zm8.28-9.75v-5.906h7.504v5.906h-7.504zm5.952 15.281v-1.125h-4.397v1.031h-1.553v-6.938h7.504v7.031l-1.554.001zm-4.399-19.781v3.094h4.397v-3.094h-4.397zm0 14.25v3h4.397v-3h-4.397zm3.758 20.001v-1.781h6.038c.345-.999.718-2.063 1.121-3.188l1.812.281c-.346 1-.689 1.969-1.034 2.906h11.987v1.781h-12.765c-.748 1.875-1.697 3.595-2.848 5.156v12.28h-1.725v-10.03c-.748.875-1.61 1.78-2.588 2.719-.115-.249-.316-.594-.604-1.031-.115-.312-.229-.562-.345-.75 2.76-2.625 4.83-5.405 6.21-8.344l-5.259.001zm19.32 48.779l-.259.563c-4.084-.625-7.245-1.5-9.487-2.625-2.415 1.187-5.55 2.156-9.401 2.906-.116-.25-.315-.595-.604-1.031-.116-.313-.23-.563-.347-.75 3.796-.563 6.67-1.28 8.625-2.156-1.495-1.125-2.932-2.843-4.312-5.155h-1.293v-1.595h13.886v1.688c-1.266 2.062-2.846 3.75-4.743 5.062 2.013.813 4.857 1.406 8.538 1.781-.171.187-.373.623-.603 1.312zm-19.492-9.657v-4.5h13.109c.573-.874 1.351-2.217 2.328-4.03.058-.062.087-.125.087-.188l1.726.656-.519.844c-.288.562-.861 1.47-1.726 2.719h4.485v4.5h-1.812v-2.813h-15.956v2.813h-1.722zm18.543-9.655c-4.715.313-10.58.531-17.595.656-.059-.563-.172-1.125-.346-1.688 6.152 0 12.018-.219 17.596-.656l.345 1.688zm-14.748 5.062c-.806-1.5-1.41-2.53-1.812-3.094l1.64-.562c.632.937 1.207 1.938 1.725 2.999l-1.553.657zm2.587-26.841v-1.688h5.436v-4.5h1.725v4.5h5.348v1.688h-5.348v6.656h6.555v1.594h-14.749v-1.594h6.471v-6.656h-5.438zm3.364 37.059c1.725-.999 3.22-2.405 4.483-4.219h-8.537c1.208 1.753 2.558 3.158 4.054 4.219zm-.259-10.406c-.403-1.186-.862-2.28-1.381-3.28l1.726-.562c.46 1.062.891 2.155 1.294 3.28l-1.639.562zm3.124-52.936c0 2.187-.748 3.812-2.242 4.875l-.776-.844c1.035-.813 1.58-2.032 1.639-3.656h-1.467v-3.094h2.848l-.002 2.719zM73.667 81.589v-12.938h-9.859v2.336h-5.014v-30.187h34.926v30.188h-5.014v-2.336h-9.859v12.938l-5.18-.001zm-9.859-35.758v6.469h9.859v-6.469h-9.859zm0 11.141v6.648h9.859v-6.648h-9.859zm24.899-11.141h-9.859v6.469h9.859v-6.469zm-9.859 11.141v6.648h9.859v-6.648h-9.859zm23.436-5.391v-4.672h5.013v-8.266h4.512v8.266h4.345v4.672h-4.345v4.313c.668.48 1.613 1.258 2.841 2.336 1.337 1.078 2.282 1.858 2.841 2.336l-2.674 4.492c-1.003-1.196-2.005-2.336-3.008-3.414v19.945h-4.512v-19.766c-1.115 3.354-2.564 6.589-4.345 9.703-.112-.478-.225-1.196-.334-2.156-.334-2.395-.613-4.133-.835-5.211 2.228-3.473 3.953-7.665 5.181-12.578h-4.68zm29.077 23.18c-2.452 2.274-5.572 4.551-9.358 6.828-.668-1.32-1.562-2.816-2.674-4.492 3.677-1.797 6.685-3.833 9.024-6.109-2.339-3.354-4.068-7.485-5.18-12.398l3.509-1.977h-4.512v1.797c0 5.511-.392 9.765-1.169 12.758-.893 3.234-2.507 6.528-4.846 9.883l-3.509-3.773c3.564-4.431 5.235-10.781 5.013-19.047v-16.533c7.241-.239 14.815-1.017 22.727-2.336l1.671 5.211c-5.238.719-11.865 1.319-19.886 1.797v5.211h18.215v5.031c-1.115 5.511-3.065 10.304-5.849 14.375 2.115 2.277 4.846 4.074 8.188 5.391l-3.008 4.672c-3.342-2.156-6.129-4.254-8.356-6.289zm0-7.547c2.005-2.993 3.452-6.528 4.345-10.602h-8.522c1.002 4.074 2.394 7.609 4.177 10.602zm26.936-5.93c-2.229 7.429-4.011 13.597-5.347 18.508l-5.014-2.156c1.893-5.629 3.731-11.618 5.515-17.969 1.446.48 3.063 1.019 4.846 1.617zm-4.846-7.008c-.559-1.317-1.394-3.353-2.506-6.109-1.115-2.634-1.951-4.61-2.507-5.93l4.345-1.977c1.893 3.953 3.731 7.906 5.515 11.859l-4.847 2.157zm17.546 27.133v-13.656h-5.849v2.156h-4.846v-23h10.695v-8.266h5.014v8.266h10.695v23h-4.846v-2.156h-5.849v13.656h-5.014zm-5.849-29.469v10.781h5.849v-10.781h-5.849zm16.711 0h-5.849v10.781h5.849v-10.781zm18.581 8.625c-2.118-2.036-4.29-4.012-6.518-5.93l3.008-3.594c1.225.96 3.118 2.457 5.682 4.492.556.48.945.839 1.17 1.078l-3.342 3.954zm3.509 4.852c-1.671 5.632-3.175 10.902-4.512 15.813l-4.846-1.617c1.893-5.989 3.452-11.32 4.679-15.992.444.121 1.058.359 1.838.719 1.225.479 2.173.838 2.841 1.077zm-2.34-16.711c-2.117-2.156-4.29-4.192-6.517-6.109l3.175-3.594c2.115 1.679 4.345 3.535 6.684 5.57l-3.342 4.133zm32.921 27.672c-.781 1.196-1.562 2.754-2.34 4.672-9.249-3.234-14.985-8.923-17.212-17.07h-3.844v10.96c1.447-.478 4.011-1.376 7.687-2.695-.112 1.917-.112 3.655 0 5.211-2.898.719-5.627 1.676-8.188 2.875-.668.239-1.561.598-2.673 1.078-.225.118-.392.18-.501.18l-2.674-4.133c1.112-.719 1.614-1.856 1.504-3.414v-31.086h9.859c-.334-1.438-.668-2.813-1.002-4.133l5.515-.539c.334 1.438.668 2.996 1.002 4.672h9.692v21.023h-.835l3.008 3.594c-1.449 1.078-3.956 2.695-7.52 4.852 2.115 1.558 4.955 2.875 8.522 3.953zm-23.395-28.93v3.953h15.374v-3.953h-15.374zm0 12.039h15.374v-3.953h-15.374v3.953zm8.857 4.492c.89 2.156 1.893 4.015 3.008 5.57.778-.598 2.06-1.556 3.844-2.875 1.671-1.196 2.896-2.095 3.676-2.695h-10.528z"/><path fill="#F9FF63" d="M251.297 71.339c-.8 2.109-1.635 4.024-2.507 5.742l-2.397-.938c.872-1.796 1.706-3.71 2.506-5.742l2.398.938zm-3.923-14.063v-2.813h4.904c-.073-.39-.255-.976-.544-1.758-.073-.312-.146-.546-.218-.703l3.378-.352c.363 1.172.617 2.109.763 2.813h4.359v2.813h-3.597l2.725 1.055-1.853 3.047h3.27v2.813h-5.123v2.461h4.687v2.813h-4.687v6.445c.072 2.186-.945 3.32-3.051 3.398-.509.077-1.381.117-2.616.117-.146-1.33-.364-2.344-.654-3.047h1.9620000000000002c.943.077 1.379-.352 1.308-1.289v-5.625h-5.014v-2.813h5.014v-2.461h-5.667v-2.813h3.488c-.583-1.015-1.199-1.992-1.853-2.93l2.071-1.172-3.052.001zm4.686 1.875c.363.547.654.978.872 1.289l-1.635.938h3.051c.363-.625.834-1.523 1.417-2.695l.654-1.406h-5.558c.29.468.69 1.094 1.199 1.874zm6.103 16.641l-2.289-4.336 2.289-1.172c.799 1.406 1.562 2.774 2.289 4.102.726-2.187 1.09-5.273 1.09-9.258v-11.25c3.706-.234 7.084-.625 10.136-1.172l.981 3.047c-2.762.469-5.449.82-8.065 1.055v5.039h8.501v3.164h-2.725v14.414h-2.943v-14.414h-2.833v.352c.145 6.094-.836 10.86-2.942 14.297-.292-.158-.727-.469-1.308-.938-.654-.392-1.127-.703-1.417-.938.145-.234.327-.626.545-1.172.436-.78.763-1.445.98-1.992l-2.289 1.172zm18.072-13.242v-3.398h2.18v-7.266h2.942v7.266h1.853v3.398h-1.853v9.375l2.507-.703c-.073 1.172-.073 2.344 0 3.516-.654.234-1.672.547-3.052.938-1.89.469-3.343.859-4.359 1.172l-.545-3.398c.799-.234 1.635-.469 2.507-.703v-10.197h-2.18zm7.629 3.164v-10.781h3.923c-.146-.234-.327-.546-.545-.938-.509-.859-.872-1.483-1.09-1.875l3.27-.469 1.853 3.281h2.834c.507-.938 1.089-2.069 1.744-3.398l3.378.703c-.291.469-.763 1.172-1.417 2.109-.146.234-.255.43-.327.586h4.032v10.781l-17.655.001zm1.09 14.062v-12.422h15.367v12.422h-3.052v-1.289h-9.155v1.289h-3.16zm1.634-22.382v5.742h4.795v-5.742h-4.795zm2.398 5.039c-.509-1.093-1.127-2.187-1.853-3.281l1.635-1.055c.363.469.872 1.329 1.526 2.578.218.313.362.547.436.703l-1.744 1.055zm-.872 7.382v2.109h9.155v-2.109h-9.155zm0 4.336v2.109h9.155v-2.109h-9.155zm10.68-16.757h-4.795v5.742h4.795v-5.742zm-1.743 3.867c-.436.547-.727.979-.872 1.289l-1.635-1.055c.145-.234.327-.546.545-.938.726-1.093 1.235-1.914 1.526-2.461l1.744 1.055-1.308 2.11z"/><path fill="#95FFFB" d="M271.017 30.662c-.174-.188-.523-.53-1.046-1.031l-.61-.656c-.698 1-1.831 2.281-3.4 3.844-.117-.126-.32-.375-.61-.75-.407-.625-.728-1.063-.959-1.313 1.452-1.187 2.557-2.375 3.313-3.563-.989-1.062-1.918-2-2.79-2.813.464-2.187.872-4.531 1.221-7.031h-1.482v-2.25h1.744c.174-1.437.349-2.937.523-4.5l2.354.281-.61 4.219h3.662v2.156c-.233 4.188-.815 7.345-1.744 9.469l2.005 1.969-1.571 1.969zm-2.18-5.625c.698-1.688 1.133-4.25 1.308-7.688h-1.831c-.117 1.125-.379 2.719-.785 4.781-.117.688-.205 1.188-.262 1.5l1.57 1.407zm4.099-2.344v-2.25h12.032v2.25h-4.882l-.087 1.969h5.58v2.438h-4.883c.929 1.688 2.645 2.813 5.144 3.375-.582 1.062-1.018 1.906-1.308 2.531-2.849-1.188-4.738-2.75-5.667-4.688-.756 1.938-2.849 3.563-6.278 4.875-.466-.876-.93-1.688-1.395-2.438 3.139-.875 5.057-2.093 5.754-3.656h-4.708v-2.438h5.231c.116-.563.174-1.219.174-1.969l-4.707.001zm.522-3.938v-7.125h10.986v7.125h-10.986zm2.355-4.781v2.531h6.19v-2.531h-6.19zm20.278 11.344c-1.687 2.625-3.343 4.844-4.97 6.656-.756-.75-1.454-1.313-2.093-1.688 1.569-1.688 3.167-3.812 4.795-6.375l2.268 1.407zm-5.667-2.25l1.133-10.781c4.999 0 10.346-.281 16.042-.844l.785 2.625c-4.302.438-9.098.719-14.386.844l-.61 5.531h5.231v-4.406h2.79v4.406h7.759v2.625h-7.759v6.188c.116 2.375-.902 3.53-3.052 3.469-1.164.125-2.238.188-3.226.188-.059-.375-.174-1.063-.349-2.063-.059-.313-.117-.563-.174-.75.755.063 1.657.094 2.703.094.929.063 1.365-.469 1.308-1.594v-5.531l-8.195-.001zm17.437 8.812c-1.338-1.812-2.907-3.938-4.708-6.375l2.005-1.5c1.277 1.5 2.964 3.595 5.057 6.281l-2.354 1.594zm10.078-1.5c-.467.563-.872 1.093-1.222 1.594l-1.656-1.969c.523-.624.755-1.343.697-2.156v-7.125h-2.18v-2.625h4.708v8.625l1.918-2.156c.115.501.349 1.188.697 2.063.058.25.115.438.175.563-.696.687-1.742 1.749-3.137 3.186zm-.261-13.875c-.931-1.374-1.918-2.813-2.965-4.313l2.268-1.406c.23.313.552.75.959 1.313.405.501 1.104 1.438 2.092 2.813l-2.354 1.593zm9.241 13.782c-1.802 1.062-4.04 2-6.713 2.813-.117-.25-.349-.656-.698-1.219-.292-.563-.522-.97-.697-1.219 2.441-.624 4.417-1.343 5.929-2.156-1.222-1.313-2.354-2.968-3.4-4.969l1.134-.75h-1.831v-2.438h12.557v2.625c-1.105 2.188-2.473 4.031-4.1 5.531 1.687.938 3.546 1.563 5.58 1.875-.406.812-.843 1.655-1.308 2.531-2.616-.812-4.768-1.687-6.453-2.624zm-2.005-15.75c.174 2.188-.989 3.938-3.487 5.25l-1.831-1.969c2.094-.938 3.053-2.312 2.877-4.125v-2.156h9.416v3.75c-.059.813.319 1.188 1.135 1.125h1.831l-.438 2.531h-2.528c-1.687 0-2.527-.812-2.527-2.438v-2.438h-4.446l-.002.47zm-1.221 8.25c.872 1.688 1.946 3.094 3.226 4.219 1.162-.938 2.324-2.344 3.488-4.219h-6.714zm28.126 6.093v-6.656l-2.007.469v6c-.059 1.125.466 1.688 1.569 1.688h3.836c1.047 0 1.657-.406 1.831-1.219 0-.125.029-.312.088-.563l.262-1.406c.64.313 1.309.563 2.006.75-.06.563-.204 1.251-.437 2.063-.059.25-.088.406-.088.469-.231 1.374-1.279 2.03-3.139 1.969h-5.318c-1.918.062-2.849-.938-2.79-3v-6.281l-1.046.188-.175-2.25 1.221-.281v-2.25l-.262.281c-.522-.687-1.104-1.313-1.743-1.875l.262-.281h-3.662v2.906h3.837c0 .625-.03 1.594-.088 2.906-.059 3.126-.116 5.282-.175 6.469.059 2.25-.784 3.406-2.527 3.469-.582 0-1.192.031-1.831.094-.06-.188-.117-.438-.175-.75-.175-.688-.292-1.157-.349-1.406-.292.687-.698 1.562-1.221 2.625l-1.744-1.875c1.278-2.124 1.946-5.25 2.005-9.375v-2.344c.058-1.187.088-2.093.088-2.719h-1.569v-2.438h3.313c-.059-.375-.174-.938-.349-1.688-.175-.687-.32-1.219-.437-1.594l2.528-.281c.23 1 .465 2.188.697 3.563h2.18v1.875c1.221-1.625 2.18-3.437 2.877-5.438l2.616.094c-.292.876-.61 1.688-.959 2.438h8.194v2.344h-9.503c-.467.938-1.047 1.813-1.744 2.625h1.919v2.063l2.006-.375v-3.656h2.18v3.094l4.359-.938c0 2.25-.06 4.282-.176 6.094-.059 1.626-.641 2.5-1.743 2.625-.407.063-1.047.094-1.918.094-.175-.687-.32-1.406-.437-2.156h1.133c.581 0 .901-.312.96-.938.058-.5.087-1.468.087-2.906l-2.267.563v7.125h-2.178v-.004zm-8.021-3.562c.058-1.625.087-2.78.087-3.469h-1.744c-.059 3.688-.436 6.469-1.133 8.344h1.482c.812.063 1.221-.437 1.221-1.5.057-.563.087-1.688.087-3.375z"/></svg>