<?xml version="1.0" encoding="utf-8"?>
<!-- Generator: Adobe Illustrator 16.0.0, SVG Export Plug-In . SVG Version: 6.00 Build 0)  -->
<!DOCTYPE svg PUBLIC "-//W3C//DTD SVG 1.1//EN" "http://www.w3.org/Graphics/SVG/1.1/DTD/svg11.dtd">
<svg version="1.1" id="图层_1" xmlns="http://www.w3.org/2000/svg" xmlns:xlink="http://www.w3.org/1999/xlink" x="0px" y="0px"
	 width="640px" height="266px" viewBox="0 -62.5 640 266" enable-background="new 0 -62.5 640 266" xml:space="preserve">
<path fill="#4CC2F8" d="M379.145,34.684V31.29h-6.899v-2.83l7.313-10.708h2.716V28.45h2.094v2.841h-2.094v3.394L379.145,34.684
	L379.145,34.684z M379.145,28.45v-5.763l-3.876,5.763H379.145z"/>
<path fill="#FFFFFF" d="M58.3,116.032c-0.806,1.5-1.466,2.625-1.984,3.375c-0.058-0.375-0.202-0.905-0.431-1.594
	c-0.058-0.312-0.116-0.53-0.173-0.656c1.954-3.188,3.479-6.812,4.571-10.875l1.725,0.562c-0.518,1.688-1.093,3.281-1.725,4.781
	v17.157h-1.639V115.47C58.587,115.595,58.473,115.783,58.3,116.032L58.3,116.032z M58.904,155.625
	c-0.288,1.626-0.92,3.312-1.897,5.062c-0.403-0.5-0.834-1.03-1.293-1.594c0.862-1.5,1.408-2.938,1.639-4.312
	c0.229-1.313,0.345-3.499,0.345-6.563v-8.625h15.611v10.5c0,4.313,0.201,6.907,0.604,7.781c0.115,0.375,0.315,0.53,0.604,0.469
	c0.229,0,0.373-0.22,0.431-0.655c0.172-1.625,0.287-2.906,0.345-3.845c0.459,0.188,0.949,0.375,1.466,0.563
	c-0.116,1.688-0.289,2.938-0.518,3.75c-0.23,1.5-0.892,2.25-1.984,2.25c-0.92-0.063-1.582-0.719-1.984-1.969
	c-0.461-1.125-0.69-3.905-0.69-8.345v-8.719H59.421v6.656C59.421,151.469,59.249,154.001,58.904,155.625L58.904,155.625z
	 M56.575,192.406v-18.281h2.329c0.173-0.625,0.402-1.531,0.69-2.719c0.114-0.5,0.201-0.844,0.258-1.031l1.812,0.281
	c-0.345,1.375-0.662,2.531-0.949,3.469h4.054v18.094h-1.725v-1.781H58.3v1.97L56.575,192.406L56.575,192.406z M58.3,175.812v5.625
	h4.744v-5.625H58.3z M58.3,183.125v5.719h4.744v-5.719H58.3z M69.771,158.062c-0.403-0.5-1.007-1.343-1.811-2.53
	c-0.92-1.5-1.639-2.593-2.156-3.281c-1.438,2.126-3.105,4.157-5.003,6.094c-0.116-0.126-0.316-0.312-0.604-0.562
	c-0.345-0.312-0.576-0.53-0.69-0.656c2.185-2.375,3.938-4.53,5.261-6.469l-4.485-6.47l1.38-1.03l4.14,5.905
	c1.091-1.688,2.213-3.779,3.364-6.28l1.466,0.844c-1.207,2.625-2.473,4.969-3.795,7.031c1.035,1.376,2.415,3.407,4.14,6.094
	c-0.116-0.125-0.03,0,0.259,0.375L69.771,158.062z M61.664,127.562v-1.594h7.59c1.725-5.124,2.989-9.188,3.795-12.188l1.811,0.562
	c-1.438,4.563-2.703,8.438-3.795,11.625h5.692v1.594H61.664z M62.268,112.282V110.5h6.642c-0.576-1.625-1.007-2.906-1.294-3.844
	l1.812-0.375c0.172,0.562,0.459,1.438,0.862,2.625c0.173,0.562,0.315,1,0.432,1.312l-1.293,0.281h6.727v1.781L62.268,112.282
	L62.268,112.282z M66.063,124.001c-0.806-3.375-1.697-6.594-2.674-9.657l1.726-0.562c0.287,1,0.747,2.594,1.38,4.781
	c0.632,2.25,1.091,3.875,1.38,4.875L66.063,124.001z M71.841,192.219c-1.208,0-2.415,0-3.622,0
	c-0.058-0.251-0.116-0.626-0.173-1.125c-0.116-0.313-0.172-0.562-0.172-0.75c1.092,0,2.243,0,3.45,0
	c1.667,0.124,2.501-0.688,2.501-2.438c0.172-5.563,0.259-9.594,0.259-12.094h-5.52c-0.575,1.375-1.151,2.625-1.725,3.75
	c-0.461-0.375-0.949-0.719-1.466-1.031c1.207-2.124,2.271-4.875,3.191-8.25l1.725,0.469c-0.116,0.501-0.317,1.188-0.604,2.062
	c-0.23,0.563-0.375,0.971-0.431,1.22h6.641c0,0.312,0,0.812,0,1.5c-0.116,5.812-0.23,10.03-0.345,12.655
	C75.492,190.812,74.256,192.155,71.841,192.219L71.841,192.219z M70.375,185.656c-1.035-1.688-2.127-3.344-3.277-4.969l1.294-1.031
	c0.172,0.25,0.459,0.625,0.862,1.125c1.092,1.562,1.954,2.812,2.587,3.75L70.375,185.656z M78.982,174.031v-1.594h9.66
	c-0.172-0.688-0.345-1.345-0.518-1.97l1.897-0.28l0.518,2.25h9.229v1.594H78.982z M81.351,109.75v-1.875h17.336v1.875h-7.504v6
	h9.142v1.875h-9.142v7.312c0.114,2.25-0.892,3.375-3.019,3.375c-1.093,0-2.242,0-3.45,0c-0.058-0.75-0.172-1.438-0.345-2.062
	c0.574,0.062,1.609,0.094,3.105,0.094c1.322,0.124,1.926-0.5,1.812-1.875v-6.844h-9.661v-1.875h9.661v-6H81.351z M80.104,192.594
	V182h18.543v7.781c0.057,1.749-0.748,2.625-2.415,2.625c-0.862,0-1.841,0-2.932,0c-0.116-0.563-0.23-1.125-0.345-1.688
	c0.518,0.062,1.322,0.095,2.415,0.095c1.149,0.062,1.695-0.375,1.639-1.313v-6h-15.18v9.094L80.104,192.594L80.104,192.594z
	 M85.106,156.562c0,2.188-0.748,3.812-2.243,4.875l-0.776-0.844c1.035-0.812,1.581-2.031,1.639-3.656H82.26v-3.094h2.846
	C85.106,154.345,85.106,155.25,85.106,156.562L85.106,156.562z M82.433,180.312v-4.688h13.973v4.688H82.433z M84.071,177.031V179
	H94.68v-1.969H84.071z M84.675,189.969v-4.781h9.401v4.781H84.675z M86.314,186.5v2.25h6.21v-2.25H86.314z M101.856,141.656v-1.781
	h17.164v1.781h-7.935c-0.058,1.938-0.202,3.719-0.432,5.344h9.919v1.875h-8.107v7.5c-0.116,1.312,0.518,1.906,1.897,1.781h2.415
	c1.208,0.125,1.868-0.438,1.984-1.688c0.114-0.999,0.172-1.937,0.172-2.812c0.287,0.126,0.718,0.28,1.293,0.469
	c0.229,0.063,0.402,0.126,0.518,0.188c-0.058,0.312-0.086,0.688-0.086,1.125c-0.116,0.875-0.23,1.562-0.345,2.062
	c-0.23,1.688-1.323,2.499-3.277,2.438h-3.278c-2.07,0.062-3.077-1-3.019-3.188v-7.875h-0.518c-0.862,5.001-3.825,8.97-8.884,11.906
	l-1.293-1.594c4.772-2.625,7.56-6.062,8.366-10.313h-8.194V147h8.539c0.287-1.625,0.459-3.405,0.518-5.344H101.856z
	 M120.365,179.469c-0.23-0.188-0.806-0.469-1.725-0.844l1.898-3.469h-13.11c-0.978,1.75-2.242,3.5-3.795,5.25
	c-0.172-0.125-0.403-0.344-0.69-0.656c-0.289-0.312-0.518-0.53-0.69-0.656c2.415-2.625,4.254-5.562,5.52-8.812l1.897,0.375
	c-0.116,0.188-0.259,0.5-0.431,0.938c-0.116,0.313-0.375,0.875-0.776,1.688h14.059v1.969L120.365,179.469z M109.239,180.969
	c-1.668,3.438-3.45,6.531-5.348,9.281c-0.461-0.375-1.007-0.718-1.639-1.031c2.299-3.125,4.024-6.125,5.175-9L109.239,180.969
	L109.239,180.969z M107.064,109.657c-0.748,1.125-1.639,2.156-2.674,3.094c-0.575-0.624-0.979-1.031-1.208-1.219
	c1.839-1.625,3.162-3.438,3.968-5.438l1.811,0.188c-0.058,0.126-0.144,0.312-0.259,0.562c-0.289,0.625-0.547,1.063-0.776,1.313
	h5.951v1.5h-4.313c0.287,0.313,0.661,0.782,1.122,1.406c0.229,0.313,0.401,0.532,0.518,0.656l-1.38,0.656l-1.811-2.438l0.518-0.281
	H107.064L107.064,109.657z M112.843,122.595c-2.014,2.5-4.946,4.406-8.798,5.72c-0.172-0.563-0.46-1.125-0.862-1.688
	c3.737-0.999,6.469-2.531,8.194-4.594h-6.641l0.862-5.344h7.245v-2.438h-7.504v-1.5h16.732v5.438h-7.59v2.344h8.625
	c0,1.062-0.058,2.312-0.172,3.75c-0.058,1.812-1.093,2.719-3.105,2.719c-0.92,0-1.841,0-2.76,0
	c-0.058-0.563-0.172-1.093-0.345-1.594c0.862,0.062,1.811,0.094,2.846,0.094c1.035,0.063,1.609-0.406,1.725-1.406
	c0-0.125,0-0.405,0-0.844c0.057-0.563,0.086-0.969,0.086-1.219h-6.9v6.75h-1.639L112.843,122.595L112.843,122.595z M107.064,118.188
	l-0.431,2.344h6.21v-2.344H107.064z M110.877,192.406c-0.633,0-1.496,0-2.587,0c-0.116-0.689-0.259-1.376-0.431-2.063
	c0.459,0.062,1.264,0.095,2.415,0.095c1.264,0.062,1.84-0.438,1.725-1.5v-12.375h1.812v12.75
	C113.982,191.438,113.004,192.468,110.877,192.406L110.877,192.406z M116.379,109.657c-0.518,0.938-1.151,1.812-1.897,2.625
	c-0.461-0.438-0.892-0.812-1.294-1.125c1.553-1.688,2.616-3.375,3.191-5.063l1.725,0.188c-0.23,0.688-0.518,1.312-0.863,1.875h6.642
	v1.5h-4.83l1.811,2.062l-1.38,0.656c-0.172-0.249-0.489-0.656-0.949-1.219c-0.461-0.5-0.806-0.875-1.035-1.125l0.604-0.375H116.379
	L116.379,109.657z M120.347,114.25h-5.865v2.438h5.865V114.25z M121.228,189.969c-1.266-2.375-2.962-5.312-5.089-8.812l1.552-0.938
	c1.322,2.063,3.076,4.938,5.261,8.625L121.228,189.969z M126.506,159.938c-0.172,0.188-0.289,0.313-0.345,0.375l-1.208-1.594
	c0.46-0.501,0.69-1.062,0.69-1.688v-9.094h-2.501v-1.688h4.226v10.875c1.208-0.938,2.127-1.718,2.76-2.344
	c0.057,0.438,0.172,1.001,0.345,1.688c0.057,0.126,0.086,0.22,0.086,0.281c-0.46,0.313-1.208,0.844-2.242,1.594
	c-0.518,0.375-0.893,0.656-1.122,0.845C127.024,159.312,126.793,159.562,126.506,159.938L126.506,159.938z M127.283,143.719
	c-0.748-1.125-1.755-2.468-3.019-4.031l1.38-1.03c1.322,1.5,2.385,2.812,3.191,3.938L127.283,143.719z M126.902,176.094v-1.781
	h7.935c0.057-1.062,0.086-2.375,0.086-3.938h1.812v3.938h7.935v1.781h-8.021c0,0.688-0.03,1.594-0.086,2.719
	c0,0.813,0,1.375,0,1.688h9.314v1.781h-8.97c1.149,4.251,4.226,6.97,9.229,8.155c-0.23,0.312-0.547,0.845-0.949,1.595
	c-0.116,0.124-0.172,0.218-0.172,0.28c-5.118-1.562-8.193-4.405-9.229-8.53c-0.92,3.876-3.939,6.812-9.056,8.812
	c-0.116-0.126-0.259-0.345-0.432-0.655c-0.345-0.438-0.604-0.782-0.776-1.031c5.52-2.124,8.48-5,8.884-8.625h-8.798V180.5h9.057
	c0.114-1.5,0.172-2.968,0.172-4.406H126.902z M144.101,145.969c-0.345,0.563-0.662,1.125-0.949,1.688l0,0
	c-2.76-1.875-4.945-4.093-6.555-6.656c-1.61,2.563-3.825,4.844-6.641,6.844c-0.172-0.312-0.489-0.812-0.949-1.5l-0.086-0.094
	c3.334-2.187,5.749-4.843,7.245-7.969l1.897,0.28l-0.518,0.938C139.271,142.251,141.456,144.407,144.101,145.969L144.101,145.969z
	 M133.651,126.812h1.811v-19.031h-1.294c-0.748,2.001-2.444,3.656-5.088,4.969v1.969c1.781-0.75,3.306-1.749,4.571-3V126.812z
	 M134.959,159.938c-2.186,0.125-3.221-0.938-3.105-3.188v-9.375h1.639v4.5c2.53-1.062,4.83-2.468,6.9-4.219l1.121,1.5
	c-2.531,1.875-5.204,3.406-8.021,4.594v2.719c-0.116,1.188,0.546,1.749,1.984,1.688h3.364c1.207,0.062,1.868-0.47,1.983-1.595
	c0.229-1.062,0.373-2.123,0.431-3.188l1.725,0.562c-0.116,1.002-0.289,2.22-0.518,3.656c-0.345,1.562-1.466,2.344-3.363,2.344
	H134.959z M153.847,121.657c-0.116-2.438-1.323-4.032-3.622-4.782c1.897-0.75,2.875-2.156,2.932-4.219
	c-0.116-3.125-1.811-4.749-5.088-4.875c-2.876,0.062-4.658,1.626-5.348,4.688l1.897,0.656c0.401-2.312,1.581-3.5,3.536-3.563
	c1.84,0.063,2.817,1.094,2.933,3.094c-0.116,2.312-1.41,3.501-3.881,3.562c-0.345,0-0.633,0-0.862,0v1.688c0.229,0,0.747,0,1.552,0
	c2.472,0.126,3.795,1.313,3.968,3.563c0,2.625-1.294,3.938-3.881,3.938c-2.128,0-3.364-1.28-3.709-3.844l-1.983,0.562
	c0.69,3.312,2.644,4.969,5.865,4.969C151.777,126.907,153.674,125.095,153.847,121.657L153.847,121.657z M146.671,146.438v-1.875
	h9.057c0.114-1.437,0.172-3.498,0.172-6.188h1.897c0,1.5-0.058,3.562-0.172,6.188h9.143v1.875h-9.057
	c0.805,5.752,3.938,9.72,9.402,11.906c-0.576,0.812-1.007,1.438-1.294,1.875c-5.002-2.373-8.021-6-9.057-10.875
	c-0.806,4.752-3.795,8.502-8.97,11.25l-1.294-1.688c5.692-2.874,8.711-7.031,9.056-12.469H146.671L146.671,146.438z M148.62,174.312
	v-1.688h6.9v1.688h-2.587v5.813h2.242v1.688h-2.242v6.375c0.919-0.188,1.811-0.375,2.674-0.563c0,0.563,0,1.188,0,1.875
	c-0.23,0.063-0.547,0.126-0.949,0.188c-2.76,0.312-4.716,0.623-5.865,0.938l-0.259-1.781c0.115,0,0.287-0.031,0.518-0.094
	c0.977-0.062,1.725-0.154,2.243-0.281v-6.656h-2.415v-1.688h2.415v-5.812h-2.675V174.312z M168.975,189.312
	c-0.23,0.313-0.403,0.531-0.518,0.656c-2.646-2.438-4.457-5.25-5.434-8.438v7.875c0.114,1.875-0.806,2.812-2.76,2.812
	c-0.23,0-0.604,0.03-1.121,0.094c-0.518,0-0.892,0-1.121,0c-0.058-0.688-0.145-1.312-0.259-1.875c0.172,0,0.518,0.03,1.035,0.095
	c0.518,0,0.863,0,1.035,0c1.092,0.062,1.609-0.47,1.553-1.595v-4.03c-1.725,1.251-3.364,2.438-4.917,3.562l-0.862-1.688
	c2.242-1.374,4.168-2.656,5.779-3.845v-6.655h-5.348v-1.688h5.348v-4.125h1.639v4.125h6.124v1.688h-6.124v0.75
	c0.401,1.812,0.891,3.375,1.466,4.688c0.919-0.938,1.954-2.155,3.105-3.655l1.293,1.125c-1.208,1.438-2.444,2.75-3.708,3.938
	c0.919,1.812,2.357,3.625,4.313,5.438C169.376,188.688,169.204,188.938,168.975,189.312L168.975,189.312z M158.538,182.938
	c-0.403-0.688-0.978-1.719-1.725-3.094c-0.289-0.437-0.489-0.781-0.604-1.031l1.294-0.75c0.862,1.188,1.695,2.531,2.501,4.031
	L158.538,182.938z M160.509,122.782c-0.403,1.938-1.18,3.905-2.329,5.905c-0.461-0.562-0.863-1.095-1.208-1.594
	c0.977-1.812,1.609-3.529,1.897-5.156c0.287-1.562,0.431-4.187,0.431-7.875v-6.656h17.509v6.375h-15.784v0.469
	C161.026,118.063,160.854,120.907,160.509,122.782L160.509,122.782z M161.026,108.907v3.375h14.145v-3.375H161.026z
	 M161.113,122.032v-1.594h16.818v1.594h-9.056c-1.956,2.125-3.307,3.469-4.054,4.03c3.737-0.062,6.555-0.094,8.453-0.094
	l-2.243-2.25l1.294-1.125c0.518,0.563,1.293,1.346,2.329,2.344c1.208,1.125,2.098,2,2.674,2.625l-1.38,1.22l-1.208-1.406
	c-0.23,0-0.547,0-0.949,0c-4.658,0.124-7.706,0.249-9.143,0.375c-0.69,0-1.352,0.062-1.984,0.188l-0.776-1.688
	c0.574-0.188,1.122-0.5,1.639-0.938c1.035-0.938,2.07-2.029,3.105-3.28H161.113z M163.01,117.719v-1.5h13.023v1.5H163.01z
	 M166.646,174.312c-0.979-0.875-1.841-1.625-2.587-2.25l1.035-1.03c0.402,0.312,1.035,0.844,1.897,1.594
	c0.345,0.313,0.604,0.531,0.776,0.656L166.646,174.312z M190.296,158.344c-0.461,0.5-0.92,1.125-1.38,1.875
	c-5.233-2.937-8.193-7.437-8.884-13.5c-0.806,5.876-3.853,10.471-9.142,13.781c-0.173-0.25-0.461-0.625-0.863-1.125
	c-0.23-0.312-0.375-0.531-0.431-0.656c5.462-3.124,8.509-7.937,9.143-14.438c0.172-1.938,0.259-3.844,0.259-5.719h1.811
	c0,0.938-0.029,2.095-0.086,3.469C181.413,150.407,184.604,155.845,190.296,158.344L190.296,158.344z M171.976,178.062v-1.78h2.501
	v-5.813h1.725v5.813h2.329v1.78h-2.329v7.595l2.156-0.938c0,0.625,0.057,1.219,0.172,1.781c-1.093,0.438-2.846,1.251-5.261,2.438
	c-0.461,0.188-0.806,0.345-1.035,0.47l-0.518-1.875l2.76-1.125v-8.345H171.976z M183.447,180.781c-0.748,4-2.617,7.094-5.606,9.281
	c-0.403-0.313-0.834-0.72-1.294-1.22c2.817-2.062,4.6-4.749,5.348-8.062h-2.846v-1.875l8.797-5.625h-8.194v-1.688h10.954v1.969
	l-8.711,5.531h9.919l-0.345,9.188c0,2.625-1.065,3.903-3.191,3.844l-2.501,0.094c-0.116-0.688-0.23-1.312-0.345-1.875
	c0.632,0,1.408,0,2.329,0c1.38,0.124,2.07-0.594,2.07-2.155c0-0.188,0.028-0.53,0.086-1.031c0.115-2.813,0.173-4.938,0.173-6.375
	h-2.415c-0.748,5.5-2.732,9.498-5.951,12c-0.403-0.438-0.834-0.907-1.294-1.406c3.047-2.188,4.945-5.719,5.692-10.594H183.447
	L183.447,180.781z M180.703,118.188v-1.594h1.466v-7.875h2.329c0.057-0.312,0.143-0.75,0.259-1.312
	c0.057-0.5,0.114-0.905,0.172-1.219l1.639,0.094c-0.058,0.188-0.144,0.501-0.259,0.938c-0.172,0.688-0.288,1.188-0.345,1.5h3.364
	v17.25c0.057,1.5-0.634,2.28-2.07,2.344c-0.575,0-1.265,0-2.07,0c0-0.125-0.058-0.345-0.172-0.655
	c-0.058-0.438-0.116-0.782-0.172-1.031c0.401,0,0.977,0,1.725,0c0.863,0,1.294-0.345,1.294-1.03v-7.408h-4.14
	c0.115,4.688-0.431,8.187-1.639,10.5l-1.466-1.125c1.149-2,1.667-5.123,1.553-9.375H180.703z M183.722,110.219v6.375h4.14v-6.375
	H183.722z M185.533,115.375c-0.345-1.125-0.72-2.25-1.122-3.375l1.208-0.469c0.057,0.25,0.173,0.595,0.345,1.031
	c0.229,0.438,0.518,1.157,0.862,2.156L185.533,115.375z M185.706,123.626c-0.345-1.125-0.748-2.312-1.208-3.563l1.294-0.469
	c0.287,0.813,0.718,2.001,1.293,3.563L185.706,123.626z M193.899,110.407c0.172,2.938-0.748,5.219-2.76,6.844
	c-0.116-0.125-0.259-0.281-0.431-0.469c-0.403-0.438-0.69-0.75-0.862-0.938c1.781-1.25,2.587-3.125,2.415-5.625V107.5h6.9v5.438
	c-0.058,1.063,0.431,1.563,1.465,1.5h1.122c0,0.126-0.03,0.313-0.086,0.563c-0.116,0.501-0.172,0.876-0.172,1.125h-1.638
	c-1.61,0.063-2.387-0.812-2.329-2.625v-4.313H193.9L193.899,110.407L193.899,110.407z M191.312,128.688v-10.312h8.883v10.312h-1.638
	v-1.875h-5.606v1.875H191.312z M198.903,144.094c-1.496,4.751-2.962,8.625-4.398,11.625c-0.576-0.375-1.179-0.656-1.812-0.844
	c1.84-3.688,3.306-7.468,4.399-11.344L198.903,144.094L198.903,144.094z M192.951,119.969v5.438h5.606v-5.438H192.951z
	 M195.073,173.844v-1.688h6.9v1.688h-2.587v5.625h2.329v1.688h-2.329v6c0.919-0.313,1.811-0.563,2.673-0.75
	c0,0.562,0.028,1.157,0.086,1.78c-0.69,0.188-1.811,0.502-3.364,0.938c-1.552,0.375-2.76,0.656-3.623,0.844l-0.345-1.688
	c0.804-0.188,1.753-0.438,2.846-0.75v-6.375h-2.501v-1.688h2.501v-5.625H195.073z M201.318,160.312c-0.92,0-1.955,0-3.105,0
	c-0.058-0.75-0.172-1.438-0.345-2.062c0.345,0,0.776,0,1.293,0c0.574,0.062,1.063,0.094,1.466,0.094
	c1.322,0.125,1.926-0.469,1.811-1.781v-18h1.897v18.563C204.452,159.249,203.445,160.312,201.318,160.312L201.318,160.312z
	 M202.577,180.406v-1.781h12.938v1.781h-4.226v8.719c-0.058,0.75,0.259,1.093,0.949,1.031h0.776c0.69,0.062,1.091-0.281,1.208-1.031
	c0.114-0.812,0.201-1.781,0.258-2.906c0.057,0,0.143,0.032,0.259,0.094c0.574,0.25,0.949,0.407,1.122,0.47
	c-0.058,0.501-0.058,0.655,0,0.469c-0.116,1.313-0.202,2.156-0.259,2.531c-0.23,1.437-1.065,2.124-2.501,2.062h-1.293
	c-1.553,0.062-2.301-0.72-2.243-2.344v-9.094h-2.76c0,0.438-0.03,1.062-0.086,1.875c0,0.876-0.03,1.5-0.086,1.875
	c-0.172,3.562-1.754,6.437-4.744,8.625c-0.345-0.501-0.806-1.001-1.38-1.5c2.875-1.749,4.341-4.125,4.398-7.125
	c0.115-1.063,0.173-2.312,0.173-3.75L202.577,180.406L202.577,180.406z M203.784,173.938v-1.78h10.522v1.78H203.784z
	 M204.529,109.75v-1.781h7.332v1.781h-2.501v15.562c0.115,1.625-0.69,2.469-2.415,2.531c-0.461,0-1.064,0-1.811,0
	c0-0.501-0.116-1.125-0.345-1.875c0.69,0.062,1.264,0.094,1.725,0.094c0.862,0.062,1.264-0.343,1.208-1.219V109.75H204.529z
	 M211.754,155.438c-1.956-4.998-3.508-8.719-4.657-11.155l1.725-0.656c0.459,1.063,1.264,2.876,2.415,5.438
	c1.092,2.625,1.868,4.47,2.329,5.53L211.754,155.438z M224.194,128.407c-1.035-0.938-2.818-2.499-5.348-4.688
	c0.115,0.126,0,0.032-0.345-0.281c-0.748,2.063-2.962,3.845-6.641,5.345c-0.345-0.626-0.69-1.188-1.035-1.688
	c2.875-1.062,4.714-2.188,5.52-3.375c0.919-1.187,1.38-3.219,1.38-6.094l0.086-2.156h1.639l-0.086,2.156
	c0,1.563-0.116,2.969-0.345,4.219c0.69,0.563,1.753,1.438,3.191,2.625c1.495,1.188,2.558,2.03,3.191,2.531L224.194,128.407z
	 M212.55,109.094v-1.688h12.592v1.688h-5.865l-0.69,3.094h5.606v11.344h-1.639v-9.75h-7.935v9.844h-1.725v-11.438h3.968l0.69-3.094
	H212.55z M216.049,152.531l-0.259-1.969l3.105-1.031v-3.844l2.76-4.031h-5.52v-1.781h7.331v1.969l-2.933,4.406v2.719l2.501-0.844
	c0,0.312,0,0.938,0,1.875l-2.501,0.844v6.844c0.115,1.75-0.69,2.625-2.415,2.625c-0.748,0-1.41,0-1.983,0
	c-0.058-0.562-0.145-1.188-0.259-1.875c0.345,0.062,0.919,0.095,1.725,0.095c0.919,0.062,1.351-0.313,1.294-1.125V151.5
	L216.049,152.531z M220.24,192.688v-19.405h5.692c0.345-1.125,0.604-2.125,0.776-3l1.984,0.188c-0.23,0.813-0.489,1.75-0.776,2.813
	h8.884v19.406h-1.811v-1.5h-13.024v1.5h-1.725V192.688z M221.965,174.969v3.844h13.024v-3.844H221.965z M221.965,180.406v3.844
	h13.024v-3.844H221.965z M221.965,185.844v3.844h13.024v-3.844H221.965z M224.243,143.062v-1.688h5.692
	c-0.058-0.124-0.116-0.281-0.172-0.469c-0.403-1.062-0.72-1.812-0.949-2.25l1.725-0.469c0.173,0.312,0.374,0.781,0.604,1.405
	c0.287,0.688,0.488,1.188,0.604,1.5l-0.776,0.281h5.606v1.688h-6.641c-1.61,2.375-2.76,4.03-3.45,4.969
	c0.287,0,0.747-0.03,1.38-0.094c1.264-0.125,2.299-0.22,3.105-0.281c0.518-0.812,1.005-1.688,1.466-2.625l1.552,0.844
	c-2.415,4.688-5.865,8.25-10.35,10.688c-0.345-0.562-0.72-1.092-1.121-1.594c3.047-1.437,5.462-3.312,7.245-5.625
	c-1.208,0-2.358,0.094-3.45,0.281c-0.403,0-0.892,0.062-1.466,0.188c0.057,0,0,0-0.172,0l-0.69-1.5
	c0.401-0.248,0.776-0.594,1.121-1.03c0.747-0.874,1.695-2.28,2.846-4.22H224.243L224.243,143.062z M235.369,160.312
	c-0.748-0.812-1.869-1.844-3.364-3.094c-0.345-0.312-0.604-0.562-0.776-0.75c-1.783,1.625-3.968,3.031-6.555,4.219
	c-0.345-0.5-0.69-1.03-1.035-1.594c4.83-1.937,8.539-5.25,11.126-9.938l1.466,0.938c-1.151,1.938-2.415,3.656-3.795,5.156
	c0.517,0.501,1.293,1.188,2.329,2.062c0.862,0.625,1.495,1.125,1.897,1.5L235.369,160.312z M234.393,124.562
	c0,2.188-0.748,3.812-2.243,4.875l-0.776-0.844c1.035-0.812,1.581-2.031,1.639-3.656h-1.466v-3.094h2.846
	C234.393,122.346,234.393,123.251,234.393,124.562L234.393,124.562z M240.095,142.875v-1.5h3.45v-3.094h1.639v3.094h2.846v1.5
	h-2.846v2.719h1.208c1.38-1.5,2.558-3.154,3.536-4.969l1.38,0.844c-0.92,1.563-1.87,2.938-2.847,4.125h2.588v1.594h-3.968
	c-0.461,0.563-1.265,1.346-2.415,2.345c0.057,0,0,0.062-0.172,0.188h5.261v10.688h-1.552v-1.313h-5.348v1.313h-1.553v-8.25
	c-0.575,0.375-1.179,0.781-1.811,1.219c-0.058-0.188-0.172-0.469-0.345-0.844c-0.116-0.375-0.23-0.656-0.345-0.844
	c1.954-1,3.996-2.5,6.124-4.5h-5.779v-1.595h4.399v-2.719L240.095,142.875L240.095,142.875z M242.13,175.156v-1.781h6.038
	c0.345-0.999,0.718-2.062,1.121-3.188l1.811,0.28c-0.345,1-0.69,1.97-1.035,2.906h11.988v1.781h-12.765
	c-0.748,1.875-1.697,3.595-2.846,5.155v12.281h-1.725v-10.031c-0.748,0.877-1.61,1.781-2.587,2.72
	c-0.116-0.249-0.317-0.595-0.604-1.031c-0.116-0.313-0.23-0.563-0.345-0.75c2.76-2.625,4.83-5.405,6.21-8.344L242.13,175.156
	L242.13,175.156z M242.855,151.219v2.531h5.348v-2.531H242.855z M242.855,155.156v2.531h5.348v-2.531H242.855z M248.34,182.844
	v-1.688h5.434v-4.5h1.725v4.5h5.348v1.688h-5.348v6.656h6.555v1.594h-14.749V189.5h6.469v-6.656H248.34z M254.846,115.657
	c-0.748,1.438-1.524,2.719-2.329,3.844c-0.058-0.312-0.172-0.812-0.345-1.5c-0.116-0.437-0.202-0.75-0.258-0.938
	c1.954-2.75,3.564-6.343,4.831-10.781l1.725,0.562c-0.517,1.813-1.179,3.563-1.983,5.25v16.595h-1.64L254.846,115.657
	L254.846,115.657z M252.17,160.688v-21.094h7.245v1.781l-2.329,6.656c1.897,1.812,2.816,3.75,2.76,5.812
	c0.057,2.563-0.949,3.877-3.019,3.938c-0.69,0.063-1.38,0.094-2.07,0.094c-0.058-0.687-0.172-1.343-0.345-1.969
	c0.574,0.063,1.208,0.094,1.897,0.094c1.264,0.063,1.868-0.687,1.812-2.25c0.057-1.688-0.863-3.53-2.76-5.53l2.329-6.938h-3.882
	v19.405H252.17z M258.814,116.782v-1.688h5.692v-8.719h1.812v8.719h5.692v1.688h-5.692v3.844h6.555v1.781h-6.555v6.28h-1.812v-6.28
	h-6.555v-1.781h6.555v-3.844H258.814z M261.401,113.688c-1.151-1.937-2.042-3.375-2.674-4.313l1.466-0.844
	c0.862,1.312,1.753,2.719,2.674,4.219L261.401,113.688z M262.331,141.75v-1.781h20.786v1.781h-3.277v15.375
	c0.057,2.062-0.949,3.094-3.019,3.094c-0.748,0.062-1.955,0.094-3.622,0.094c0-0.25-0.058-0.625-0.173-1.125
	c-0.058-0.375-0.086-0.655-0.086-0.844c1.149,0.062,2.213,0.094,3.191,0.094c1.38,0.125,2.012-0.5,1.898-1.875V141.75H262.331z
	 M264.573,156.469v-11.156h9.401v9.375h-7.676v1.781H264.573z M266.298,146.906v6.188h5.865v-6.188H266.298z M267.039,186.594
	l1.293-1.125l4.485,5.344l-1.38,1.313L267.039,186.594z M272.096,109.375c-0.862,1.438-1.811,2.906-2.846,4.406l-1.466-0.938
	c0.804-1.062,1.753-2.499,2.846-4.313L272.096,109.375L272.096,109.375z M276.603,110.125v-1.406h5.95
	c-0.403-0.5-0.979-1.156-1.725-1.969l1.639-0.563c0.69,0.625,1.409,1.375,2.156,2.25l-0.604,0.281h4.14
	c0.401-0.437,0.919-1.062,1.552-1.875c0.229-0.312,0.402-0.53,0.518-0.656l1.725,0.563c-0.576,0.625-1.121,1.282-1.639,1.969h5.692
	v1.406h-9.833c-0.058,0.188-0.144,0.438-0.259,0.75c-0.116,0.375-0.202,0.656-0.259,0.844h8.797v1.313h-9.229
	c-0.23,0.563-0.489,1.125-0.776,1.688h11.816v1.406h-12.506c-0.345,0.563-0.72,1.125-1.121,1.688h11.471v10.875h-1.639v-1.219
	h-10.695v1.219h-1.725v-7.781c-0.689,0.75-1.84,1.781-3.449,3.094c-0.289-0.5-0.604-0.999-0.949-1.5
	c2.702-2.063,4.743-4.187,6.123-6.375h-5.691v-1.406h6.554c0.287-0.563,0.518-1.125,0.69-1.688h-5.519v-1.313h6.037
	c0.057-0.188,0.143-0.469,0.259-0.844c0.114-0.312,0.201-0.563,0.259-0.75L276.603,110.125L276.603,110.125z M281.777,119.032v1.688
	h10.695v-1.688H281.777z M281.777,121.845v1.688h10.695v-1.688H281.777z M281.777,124.751v1.406h10.695v-1.406H281.777z
	 M288.791,157.969c-0.403,0.313-0.862,0.688-1.38,1.125l-1.208-1.5c0.574-0.624,0.833-1.406,0.776-2.344v-16.031h1.811v16.406
	c1.897-1.312,3.795-2.688,5.693-4.125c0.114,0.812,0.259,1.532,0.431,2.156c-0.345,0.251-0.892,0.625-1.639,1.125
	C291.379,156.156,289.883,157.219,288.791,157.969L288.791,157.969z M289.532,175.438c-0.172,1.938-0.461,4.031-0.862,6.281
	c-0.116-0.062-0.317-0.125-0.604-0.188c-0.289-0.062-0.489-0.094-0.604-0.094c0.459-2.313,0.747-4.375,0.862-6.188L289.532,175.438
	L289.532,175.438z M290.309,192.688v-22.312h1.553v4.969l0.345-0.562c0.459,0.438,1.178,1.188,2.156,2.25v-5.719h13.8v1.5h-12.248
	v17.53h12.592v1.595h-14.145v-14.906l-1.035,1.312c-0.23-0.375-0.72-0.969-1.466-1.781v16.125H290.309z M295.26,145.125
	c-0.92-2.062-1.897-4.031-2.932-5.906l1.466-0.844c0.114,0.188,0.287,0.501,0.517,0.938c1.208,2.063,2.099,3.656,2.674,4.781
	L295.26,145.125z M304.92,160.031c-0.403-0.563-1.007-1.313-1.811-2.25c-1.093-1.374-1.87-2.405-2.329-3.094
	c-1.265,2.188-3.594,4.219-6.986,6.094c-0.345-0.563-0.748-1.157-1.208-1.781c5.922-2.562,8.798-7.188,8.625-13.875
	c0.114-2.499,0.172-4.594,0.172-6.281h1.811c0,1.188-0.029,2.876-0.086,5.063c-0.058,0.562-0.086,0.97-0.086,1.219
	c-0.172,3.438-0.633,6.032-1.38,7.781c0.804,0.938,1.983,2.344,3.536,4.219c0.518,0.626,0.918,1.093,1.208,1.406L304.92,160.031z
	 M297.208,177.219v-1.5h4.485v-2.438h1.552v2.438h4.398v1.5h-4.398c0,0.25-0.03,0.596-0.086,1.031c0,0.375,0,0.656,0,0.844
	c0,1.626-0.03,2.751-0.086,3.375h5.261v1.406h-5.606v0.094c1.437,1.251,3.019,2.657,4.744,4.219l-1.122,1.22
	c-1.323-1.438-2.674-2.75-4.054-3.938c-0.575,1.563-2.013,2.969-4.313,4.219c-0.289-0.437-0.633-0.904-1.035-1.405
	c2.588-1.188,4.024-2.656,4.312-4.406h-4.571v-1.406h4.83c0.115-1.25,0.173-2.375,0.173-3.375c0-0.562,0-1.187,0-1.875
	L297.208,177.219L297.208,177.219z M299.451,181.531c-0.862-1.313-1.466-2.188-1.811-2.625l1.121-0.844
	c0.115,0.188,0.315,0.438,0.604,0.75c0.574,0.75,1.005,1.375,1.294,1.875L299.451,181.531z M300.419,128.688v-21.281h6.641v1.688
	l-1.896,6.375c1.38,1.75,2.041,3.625,1.984,5.625c0,2.377-0.894,3.656-2.674,3.844c-0.345,0.063-0.892,0.095-1.639,0.095
	c-0.058-0.624-0.202-1.25-0.432-1.875c0.632,0,1.178,0,1.639,0c0.978,0,1.466-0.718,1.466-2.156c0-1.813-0.69-3.563-2.07-5.25
	l1.897-6.656h-3.277v19.594h-1.638V128.688z M307.386,178.906c-0.862,1.125-1.582,2.001-2.156,2.625l-1.121-0.938
	c0.459-0.437,1.063-1.125,1.811-2.062c0.172-0.188,0.287-0.345,0.345-0.47L307.386,178.906L307.386,178.906z M309.474,143.156
	v-1.781h6.038c0.346-0.999,0.719-2.062,1.121-3.188l1.812,0.28c-0.346,1.001-0.69,1.97-1.035,2.906h11.989v1.781h-12.766
	c-0.748,1.875-1.697,3.595-2.846,5.155v12.281h-1.726v-10.031c-0.747,0.877-1.609,1.781-2.587,2.72
	c-0.115-0.249-0.316-0.593-0.604-1.031c-0.116-0.313-0.23-0.563-0.345-0.75c2.76-2.625,4.829-5.405,6.21-8.344L309.474,143.156
	L309.474,143.156z M308.612,128.688v-21h10.694v20.907h-1.725v-1.688h-7.245v1.78H308.612z M310.337,109.375v7.031h7.245v-7.031
	H310.337z M310.337,118.188v7.219h7.245v-7.219H310.337z M314.527,187.812c-0.807,1.5-1.554,2.813-2.243,3.938
	c-0.116-0.063-0.316-0.188-0.604-0.375c-0.402-0.188-0.689-0.345-0.862-0.469c0.919-1.25,1.667-2.5,2.242-3.75L314.527,187.812
	L314.527,187.812z M312.285,173.656v-1.313h8.28c-0.059-0.188-0.145-0.469-0.26-0.844c-0.172-0.5-0.315-0.844-0.431-1.031
	l1.897-0.28c0.057,0.125,0.113,0.28,0.173,0.469c0.172,0.375,0.345,0.938,0.517,1.688h7.763v1.313h-4.312l0.949,0.375
	c-0.403,0.501-0.834,1.125-1.294,1.875h5.95v1.405h-20.613v-1.405h5.951l-1.294-1.781l1.035-0.469L312.285,173.656L312.285,173.656z
	 M313.492,186.031v-7.125h15.353v7.125H313.492z M315.684,150.844v-1.688h5.436v-4.5h1.725v4.5h5.349v1.688h-5.349v6.656h6.556
	v1.594H314.65V157.5h6.47v-6.656H315.684z M315.131,180.219v1.594h12.075v-1.594H315.131z M315.131,183.031v1.688h12.075v-1.688
	H315.131z M318.667,192.125c-1.841,0.061-2.732-0.812-2.674-2.625v-2.344h1.639v1.969c-0.116,1.062,0.459,1.562,1.726,1.5h3.795
	c1.092,0.062,1.725-0.314,1.896-1.125c0.058-0.188,0.144-0.562,0.259-1.125c0.058-0.312,0.114-0.562,0.174-0.75
	c0.517,0.25,1.033,0.469,1.552,0.656c-0.059,0.812-0.23,1.438-0.519,1.875c-0.288,1.374-1.265,2.029-2.932,1.969H318.667z
	 M317.977,174.688c0.402,0.563,0.661,0.938,0.776,1.125l-0.259,0.095h5.089c0.229-0.313,0.573-0.812,1.034-1.5
	c0.173-0.375,0.314-0.624,0.432-0.75h-7.763C317.46,173.844,317.689,174.188,317.977,174.688L317.977,174.688z M321.945,189.688
	c-0.635-0.812-1.381-1.688-2.243-2.625l1.208-0.938c0.518,0.501,1.293,1.312,2.328,2.438L321.945,189.688z M323.384,117.625v-1.781
	h9.401v-9.562h1.725v9.562h9.487v1.781h-6.899v7.312c0,0.938,0.519,1.406,1.553,1.406h1.896c0.92,0.062,1.467-0.345,1.641-1.219
	c0.113-0.812,0.199-1.875,0.259-3.188c0.229,0.062,0.604,0.188,1.121,0.375c0.287,0.125,0.486,0.22,0.604,0.28
	c0,0.188-0.029,0.47-0.086,0.845c-0.116,1.062-0.229,1.875-0.346,2.438c-0.288,1.562-1.293,2.312-3.02,2.25h-2.588
	c-1.841,0-2.76-0.938-2.76-2.812v-7.688h-4.226c0,0.188-0.03,0.469-0.088,0.844c0,0.313,0,0.532,0,0.656
	c-0.114,4.5-2.387,7.688-6.812,9.563c-0.116-0.188-0.316-0.47-0.604-0.845c-0.229-0.375-0.402-0.655-0.518-0.844
	c4.024-1.438,6.065-4.093,6.124-7.969c0.057-0.312,0.086-0.781,0.086-1.406L323.384,117.625L323.384,117.625z M328.645,114.063
	c-1.322-1.812-2.616-3.469-3.881-4.969l1.38-1.031c0.401,0.438,0.979,1.125,1.726,2.063c0.978,1.125,1.726,2.001,2.243,2.625
	L328.645,114.063z M330.225,191.281c-0.574-0.938-1.322-2.124-2.241-3.563l1.466-0.75c0.115,0.188,0.287,0.438,0.518,0.75
	c0.862,1.375,1.467,2.28,1.812,2.72L330.225,191.281z M337.401,159.094c-2.531-0.126-4.141-1.468-4.83-4.031l1.812-0.655
	c0.401,2.188,1.466,3.251,3.191,3.188c2.701-0.124,4.082-2.719,4.14-7.78c-0.862,1.812-2.301,2.719-4.312,2.719
	c-3.222-0.312-4.976-2.374-5.262-6.188c0.229-4.062,2.099-6.249,5.605-6.562c4.024-0.062,6.008,3.032,5.951,9.28
	C343.697,155.688,341.598,159.031,337.401,159.094L337.401,159.094z M337.574,150.75c2.242,0,3.622-1.125,4.14-3.375
	c0-3.938-1.38-5.874-4.14-5.812c-2.188,0.188-3.364,1.72-3.537,4.594C334.152,149.032,335.331,150.562,337.574,150.75
	L337.574,150.75z M339.618,191.938c-1.841-0.188-2.876-1.281-3.104-3.28c0.172-2.124,1.207-3.281,3.104-3.47
	c1.954,0.188,3.019,1.346,3.19,3.47C342.637,190.655,341.572,191.75,339.618,191.938L339.618,191.938z M342.445,109.188
	c-1.267,1.563-2.646,3.25-4.142,5.063l-1.38-1.313c0.862-0.875,1.983-2.187,3.364-3.938c0.345-0.437,0.604-0.75,0.775-0.938
	L342.445,109.188L342.445,109.188z M339.618,186.594c-1.093,0.126-1.696,0.813-1.812,2.063c0.115,1.062,0.72,1.653,1.812,1.78
	c1.148-0.127,1.781-0.718,1.896-1.78C341.399,187.406,340.768,186.72,339.618,186.594L339.618,186.594z M349.547,149.156
	c-1.093-1.125-2.186-2.156-3.277-3.094l1.121-1.313c1.149,0.876,2.271,1.845,3.363,2.906L349.547,149.156z M350.582,151.781
	c-0.69,2.688-1.38,5.562-2.07,8.625l-1.725-0.469c0.632-2.25,1.322-5.156,2.069-8.72c0.057,0,0.2,0.063,0.432,0.188
	C349.806,151.594,350.237,151.72,350.582,151.781L350.582,151.781z M350.133,117.063c-1.266-1.25-2.329-2.218-3.19-2.906l1.12-1.313
	c1.209,0.876,2.301,1.781,3.277,2.719L350.133,117.063z M350.15,143.156c-1.035-1.125-2.101-2.219-3.191-3.281l1.208-1.219
	c0.919,0.75,2.04,1.751,3.363,3L350.15,143.156z M351.082,120.438c-0.69,2.751-1.324,5.47-1.898,8.156l-1.811-0.562
	c0.632-2.312,1.322-5.063,2.069-8.25c0.173,0.062,0.46,0.157,0.862,0.282C350.65,120.251,350.909,120.377,351.082,120.438
	L351.082,120.438z M350.823,110.875c-1.324-1.313-2.388-2.312-3.191-3l1.121-1.313c0.229,0.188,0.574,0.501,1.035,0.938
	c0.977,0.813,1.725,1.469,2.242,1.969L350.823,110.875z M355.653,109.938c-0.808,1.375-1.812,2.751-3.021,4.125
	c-0.345-0.5-0.72-0.968-1.121-1.406c1.782-1.688,3.221-3.875,4.313-6.563l1.726,0.281c-0.346,0.625-0.662,1.282-0.949,1.969h10.781
	v1.594H355.653L355.653,109.938z M351.686,119.407v-1.594h2.156l0.604-5.719h11.472l-0.087,5.719h2.07v1.594h-2.156
	c0,1.5-0.058,2.907-0.173,4.219h1.726v1.594h-1.726c-0.115,2.25-1.267,3.343-3.45,3.281c-0.862,0-1.841,0-2.932,0
	c-0.06-0.188-0.116-0.469-0.174-0.844c-0.115-0.375-0.201-0.656-0.259-0.845c0.919,0.062,1.897,0.095,2.934,0.095
	c1.38,0.062,2.127-0.501,2.241-1.688H352.98l0.604-5.812L351.686,119.407L351.686,119.407z M352.135,160.688v-21.28h14.403v18.28
	c0.057,1.813-0.862,2.75-2.76,2.813c-0.979,0-1.984,0-3.02,0c0-0.063-0.03-0.22-0.087-0.469c-0.058-0.625-0.144-1.063-0.259-1.313
	c0.862,0,1.782,0,2.761,0c1.149,0,1.695-0.438,1.639-1.312v-16.313h-10.953v19.595H352.135L352.135,160.688z M364.02,123.626
	c0.058-0.437,0.087-1.125,0.087-2.063c0.057-0.998,0.086-1.719,0.086-2.156h-8.885l-0.518,4.219L364.02,123.626L364.02,123.626z
	 M355.067,145.406v-1.688h8.451v1.688H355.067z M355.911,113.688l-0.431,4.125h8.711v-4.125H355.911z M355.843,155.906v-7.781h6.9
	v7.781H355.843z M357.31,149.719v4.594h3.882v-4.594H357.31z M360.396,123.251c-0.174-0.125-0.433-0.343-0.776-0.656
	c-0.689-0.624-1.267-1.125-1.726-1.5l0.862-1.031c0.69,0.5,1.553,1.188,2.588,2.063L360.396,123.251z M360.655,117.344
	c-0.807-0.812-1.64-1.531-2.501-2.156l0.861-1.031c0.689,0.501,1.554,1.188,2.588,2.063L360.655,117.344z"/>
<path fill="#FFFFFF" d="M61.308,67.566c-1.227-1.317-3.065-3.055-5.514-5.211c0.222,0.242-0.058,0-0.836-0.719l3.175-3.594
	c1.002,0.839,2.449,2.039,4.345,3.594c1.003,0.839,1.726,1.438,2.172,1.797L61.308,67.566z M63.146,76.551
	c-1.449,5.632-2.397,9.583-2.841,11.859l-4.846-1.438c0.891-3.234,2.172-8.504,3.844-15.813c0.556,0.121,1.337,0.359,2.339,0.719
	c1.112,0.359,1.893,0.66,2.339,0.898C63.757,73.617,63.48,74.875,63.146,76.551L63.146,76.551z M62.311,55.527
	c-0.668-0.719-1.729-1.735-3.175-3.055c-1.337-1.317-2.397-2.274-3.175-2.875l3.008-3.594c0.668,0.601,1.893,1.617,3.676,3.055
	c1.337,1.078,2.34,1.917,3.008,2.516L62.311,55.527z M67.324,61.277C66.99,60.8,66.489,60.14,65.82,59.3
	c-0.668-0.836-1.227-1.438-1.671-1.797c3.564-3.473,6.238-7.547,8.021-12.219l5.181,0.539c-0.225,0.359-0.501,0.898-0.836,1.617
	c-0.334,0.719-0.613,1.258-0.835,1.617h19.05v4.313H73.34c-0.668,1.078-1.395,2.156-2.172,3.234H92.39
	c-0.112,0.601-0.167,2.336-0.167,5.211c-0.112,2.277-0.167,4.074-0.167,5.391h3.509v4.313h-3.509
	c-0.112,2.277-0.167,4.433-0.167,6.469h2.841v4.133h-3.008c-0.225,4.192-2.452,6.228-6.684,6.109h-6.685
	c-0.112-0.601-0.446-1.499-1.002-2.695c-0.112-0.601-0.225-1.019-0.334-1.258c2.115,0,4.288,0,6.517,0
	c2.115,0.118,3.285-0.601,3.509-2.156H66.655l1.003-10.602h-3.342v-4.313h3.843l0.668-7.727L67.324,61.277z M87.21,77.988
	c0.109-1.317,0.167-3.473,0.167-6.469h-15.04l-0.668,6.469h8.857c-1.227-1.196-2.674-2.395-4.345-3.594l2.339-2.875
	c1.893,1.32,3.619,2.577,5.181,3.773l-2.34,2.695L87.21,77.988L87.21,77.988z M73.34,60.918l-0.668,6.289h8.355
	c-0.668-0.598-1.671-1.438-3.008-2.516c-0.668-0.598-1.169-1.017-1.504-1.258l2.507-2.516L73.34,60.918L73.34,60.918z
	 M87.544,67.207c0-2.993,0-5.09,0-6.289h-8.188c0.778,0.48,1.838,1.258,3.175,2.336c0.668,0.601,1.17,1.019,1.504,1.258
	l-2.339,2.695H87.544L87.544,67.207z M100.381,86.254v-5.211h15.04V46.004h5.682v12.578h16.042v5.391h-16.042v17.07h19.05v5.211
	H100.381z M144.959,53.371v-4.133h17.546c-0.334-1.317-0.668-2.454-1.003-3.414l5.849-0.539c0.109,0.48,0.277,1.199,0.501,2.156
	c0.11,0.719,0.222,1.32,0.334,1.797h17.045v4.133H144.959z M155.821,83.738v-9.523h18.716v9.523h1.17
	c2.005,0.118,2.95-0.719,2.841-2.516v-9.523H151.81V88.23h-4.846V67.566h36.43V82.66c0.109,3.473-1.562,5.27-5.013,5.391
	c-1.562,0.118-3.677,0.18-6.35,0.18c-0.112-0.241-0.167-0.66-0.167-1.258c-0.334-1.319-0.613-2.397-0.835-3.234h-15.208V83.738z
	 M150.975,65.23v-9.523h28.242v9.523H150.975z M155.821,59.121v2.875h18.549v-2.875H155.821z M160.5,77.449v3.234h9.191v-3.234
	H160.5z M204.085,66.488c-4.123,8.266-7.41,14.078-9.859,17.43c-0.112,0-0.225-0.062-0.334-0.18
	c-1.783-1.317-3.175-2.274-4.178-2.875c3.677-5.031,6.794-10.602,9.358-16.711L204.085,66.488L204.085,66.488z M225.308,64.152
	c-0.559-0.359-1.896-0.958-4.01-1.797c-0.334-0.118-0.614-0.239-0.835-0.359l3.008-6.109H200.41
	c-1.671,2.875-3.789,5.992-6.35,9.344c-0.781-0.719-1.896-1.676-3.342-2.875c-0.334-0.359-0.614-0.598-0.835-0.719
	c4.01-4.672,7.073-10.062,9.191-16.172l5.515,0.719c-0.559,1.679-1.17,3.234-1.838,4.672h26.403v5.031L225.308,64.152z
	 M207.26,87.871c-1.115,0.118-3.065,0.18-5.849,0.18c-0.112-0.601-0.279-1.499-0.501-2.695c-0.334-1.319-0.559-2.215-0.668-2.695
	c0.891,0.121,2.449,0.18,4.679,0.18c2.34,0.121,3.397-0.898,3.175-3.055V58.043h5.347v23.539
	C213.777,85.895,211.714,87.989,207.26,87.871L207.26,87.871z M225.475,83.379c-0.447-0.836-1.06-2.036-1.838-3.594
	c-3.12-5.868-5.572-10.242-7.353-13.117l4.345-2.336c3.342,5.511,6.627,10.961,9.859,16.352L225.475,83.379z M237.644,57.863v-5.211
	h14.539c0.109-1.797,0.167-4.133,0.167-7.008h5.515l-0.167,7.008h14.706v5.211h-14.706c-0.112,2.516-0.167,4.672-0.167,6.469h17.045
	v5.211h-16.377c2.115,6.71,7.742,11.203,16.878,13.477c-1.115,1.556-2.117,3.234-3.008,5.031
	c-9.024-2.996-14.763-7.665-17.212-14.016c-1.671,5.75-7.186,10.602-16.543,14.555c-0.334-0.601-0.948-1.558-1.838-2.875
	c-0.668-0.96-1.17-1.679-1.504-2.156c10.026-3.594,15.484-8.266,16.376-14.016h-16.042v-5.211h16.711
	c0.11-1.196,0.167-3.352,0.167-6.469H237.644z"/>
<path fill="#9AF2FF" d="M270.021,35.661c-0.174-0.188-0.523-0.53-1.046-1.031c-0.292-0.312-0.495-0.53-0.61-0.656
	c-0.698,1-1.831,2.281-3.4,3.844c-0.117-0.126-0.32-0.375-0.61-0.75c-0.408-0.625-0.728-1.063-0.959-1.313
	c1.452-1.187,2.557-2.375,3.313-3.563c-0.989-1.062-1.918-2-2.79-2.813c0.464-2.187,0.872-4.531,1.221-7.031h-1.482v-2.25h1.744
	c0.174-1.437,0.349-2.937,0.523-4.5l2.354,0.281l-0.61,4.219h3.662v2.156c-0.233,4.188-0.815,7.345-1.744,9.469l2.005,1.969
	L270.021,35.661z M267.841,30.036c0.698-1.688,1.134-4.25,1.308-7.688h-1.831c-0.117,1.125-0.379,2.719-0.785,4.781
	c-0.117,0.688-0.205,1.188-0.262,1.5L267.841,30.036L267.841,30.036z M271.939,27.692v-2.25h12.032v2.25h-4.883l-0.087,1.969h5.58
	v2.438h-4.883c0.929,1.688,2.645,2.813,5.144,3.375c-0.582,1.062-1.018,1.906-1.308,2.531c-2.849-1.188-4.738-2.75-5.667-4.688
	c-0.756,1.938-2.849,3.563-6.278,4.875c-0.466-0.876-0.93-1.688-1.395-2.438c3.139-0.875,5.057-2.093,5.754-3.656h-4.708V29.66
	h5.231c0.116-0.563,0.174-1.219,0.174-1.969L271.939,27.692L271.939,27.692z M272.462,23.755V16.63h10.985v7.125H272.462z
	 M274.816,18.974v2.531h6.19v-2.531H274.816z M295.095,30.317c-1.687,2.625-3.343,4.844-4.97,6.656
	c-0.756-0.75-1.454-1.313-2.093-1.688c1.569-1.688,3.167-3.812,4.795-6.375L295.095,30.317L295.095,30.317z M289.428,28.067
	l1.133-10.781c4.999,0,10.346-0.281,16.042-0.844l0.785,2.625c-4.302,0.438-9.098,0.719-14.386,0.844l-0.61,5.531h5.231v-4.406h2.79
	v4.406h7.759v2.625h-7.759v6.188c0.116,2.375-0.902,3.53-3.052,3.469c-1.164,0.125-2.238,0.188-3.226,0.188
	c-0.059-0.375-0.174-1.063-0.349-2.063c-0.059-0.313-0.117-0.563-0.174-0.75c0.755,0.063,1.657,0.094,2.703,0.094
	c0.929,0.063,1.365-0.469,1.308-1.594v-5.531L289.428,28.067L289.428,28.067z M306.865,36.88c-1.338-1.812-2.907-3.938-4.708-6.375
	l2.005-1.5c1.278,1.5,2.964,3.595,5.057,6.281L306.865,36.88z M316.943,35.38c-0.467,0.563-0.872,1.093-1.222,1.594l-1.655-1.969
	c0.522-0.624,0.754-1.343,0.696-2.156v-7.125h-2.18v-2.625h4.708v8.625l1.918-2.156c0.116,0.501,0.349,1.188,0.697,2.063
	c0.057,0.25,0.115,0.438,0.175,0.563C319.384,32.881,318.338,33.943,316.943,35.38L316.943,35.38z M316.682,21.505
	c-0.931-1.374-1.918-2.813-2.964-4.313l2.268-1.406c0.23,0.313,0.552,0.75,0.959,1.313c0.405,0.501,1.104,1.438,2.093,2.813
	L316.682,21.505z M325.923,35.286c-1.802,1.062-4.04,1.999-6.713,2.813c-0.117-0.25-0.349-0.656-0.698-1.219
	c-0.292-0.563-0.522-0.97-0.696-1.219c2.44-0.624,4.417-1.343,5.928-2.156c-1.22-1.313-2.354-2.968-3.399-4.969l1.133-0.75h-1.83
	v-2.438h12.555v2.625c-1.105,2.188-2.472,4.031-4.1,5.531c1.687,0.938,3.546,1.563,5.58,1.875c-0.406,0.812-0.843,1.655-1.308,2.531
	C329.76,37.098,327.608,36.224,325.923,35.286L325.923,35.286z M323.918,19.536c0.175,2.188-0.989,3.938-3.487,5.25
	c-0.522-0.563-1.134-1.219-1.831-1.969c2.094-0.938,3.053-2.312,2.877-4.125v-2.156h9.416v3.75
	c-0.059,0.813,0.319,1.188,1.135,1.125h1.831l-0.437,2.531h-2.529c-1.687,0-2.527-0.812-2.527-2.438v-2.438h-4.446L323.918,19.536
	L323.918,19.536z M322.697,27.786c0.872,1.688,1.946,3.094,3.226,4.219c1.162-0.938,2.324-2.344,3.488-4.219H322.697z
	 M350.823,33.88v-6.656l-2.006,0.469v6c-0.06,1.125,0.465,1.688,1.568,1.688h3.837c1.046,0,1.656-0.406,1.83-1.219
	c0-0.125,0.029-0.312,0.088-0.563c0.115-0.624,0.203-1.093,0.263-1.406c0.639,0.313,1.308,0.563,2.005,0.75
	c-0.06,0.563-0.204,1.251-0.437,2.063c-0.059,0.25-0.088,0.405-0.088,0.469c-0.231,1.374-1.278,2.03-3.139,1.969h-5.318
	c-1.918,0.062-2.849-0.938-2.79-3v-6.281l-1.046,0.188l-0.175-2.25l1.221-0.281v-2.25l-0.262,0.281
	c-0.522-0.687-1.104-1.313-1.743-1.875l0.262-0.281h-3.661c0,1,0,1.969,0,2.906h3.836c0,0.625-0.03,1.594-0.087,2.906
	c-0.06,3.126-0.117,5.282-0.176,6.469c0.059,2.25-0.783,3.406-2.527,3.469c-0.581,0-1.191,0.031-1.831,0.094
	c-0.06-0.188-0.117-0.438-0.174-0.75c-0.176-0.688-0.292-1.157-0.35-1.406c-0.292,0.687-0.698,1.562-1.221,2.625
	c-0.582-0.625-1.164-1.251-1.744-1.875c1.278-2.124,1.947-5.25,2.005-9.375c0-0.5,0-1.28,0-2.344
	c0.059-1.187,0.088-2.093,0.088-2.719h-1.568v-2.438h3.312c-0.059-0.375-0.174-0.938-0.349-1.688
	c-0.174-0.687-0.32-1.219-0.437-1.594l2.528-0.281c0.23,1,0.465,2.188,0.697,3.563h2.18v1.875c1.221-1.625,2.18-3.437,2.877-5.438
	l2.616,0.094c-0.292,0.876-0.61,1.688-0.959,2.438h8.194v2.344h-9.503c-0.466,0.938-1.047,1.813-1.743,2.625h1.918v2.063
	l2.006-0.375v-3.656h2.18v3.094l4.359-0.938c0,2.25-0.06,4.282-0.176,6.094c-0.059,1.626-0.641,2.5-1.743,2.625
	c-0.407,0.063-1.046,0.094-1.918,0.094c-0.175-0.688-0.32-1.406-0.437-2.156c0.406,0,0.784,0,1.134,0c0.58,0,0.9-0.312,0.959-0.938
	c0.058-0.5,0.087-1.468,0.087-2.906l-2.267,0.562v7.125h-2.178V33.88z M342.802,30.317c0.058-1.625,0.087-2.78,0.087-3.469h-1.742
	c-0.06,3.688-0.438,6.469-1.135,8.344c0.465,0,0.959,0,1.482,0c0.812,0.063,1.221-0.437,1.221-1.5
	C342.771,33.13,342.802,32.005,342.802,30.317L342.802,30.317z"/>
</svg>
