<svg xmlns="http://www.w3.org/2000/svg" width="640" height="226.5" viewBox="0 9.5 640 226.5" enable-background="new 0 9.5 640 226.5"><path fill="#fff" d="M64.969 29.441h4.137v10.939h-1.15v-.847h-1.836v1.102h-1.15v-11.194h-.001zm2.986 1.118h-1.836v7.857h1.836v-7.857zm1.774-.799h4.184v-2.012h1.182v2.012h4.408v1.15h-4.408v5.686h2.332v-4.328h1.15v6.099h-1.15v-.654h-2.332v3.019c0 .702.289 1.053.863 1.053h1.58c.586 0 .916-.287.99-.862.096-.724.176-1.507.24-2.348.436.193.836.363 1.197.511-.105.885-.213 1.646-.318 2.284-.16 1.044-.857 1.566-2.092 1.566h-1.869c-1.182 0-1.773-.677-1.773-2.03v-3.193h-3.465v-5.43h1.15v4.313h2.314v-5.686h-4.184l.001-1.15zM80.381 35.431c1.523-2.301 2.672-4.882 3.449-7.747l1.357.336c-.441 1.352-.916 2.614-1.422 3.786v11.657h-1.197v-9.159c-.5.937-1.027 1.802-1.58 2.595-.15-.404-.351-.895-.607-1.468m4.359 6.003h6.236c.768-2.048 1.652-4.971 2.66-8.767l1.438.431c-.645 1.975-1.561 4.754-2.748 8.336h3.992v1.182h-11.578v-1.182zm.336-10.859h5.629c-.473-.799-.998-1.538-1.572-2.22l1.086-.751c.469.543 1.049 1.274 1.74 2.189l-1.182.782h5.254v1.182h-10.955v-1.182zm2.172 2.252c.703 1.916 1.469 4.237 2.299 6.963l-1.324.383c-.725-2.608-1.453-4.918-2.188-6.931l1.213-.415zM104.719 32.261c.281 0 .523.097.727.295.201.197.303.433.303.71s-.098.515-.295.715c-.197.2-.441.299-.734.299s-.537-.099-.734-.299c-.197-.2-.297-.438-.297-.715s.102-.513.305-.71c.199-.198.442-.295.725-.295m0 7.193c.281 0 .523.1.727.296.201.197.303.436.303.719 0 .288-.102.528-.303.722-.203.195-.445.292-.727.292-.283 0-.525-.097-.727-.292-.203-.194-.305-.434-.305-.722 0-.283.102-.521.305-.719.201-.196.444-.296.727-.296"/><path fill="#fff" d="M115.807 31.092l-2.159.67-.31-1.047 2.797-.965h.949v11.532h-1.277zM119.553 39.434l.932-.834c.883 1.08 1.947 1.701 3.354 1.701 1.391 0 2.502-.883 2.502-2.224v-.034c0-1.422-1.324-2.208-3.205-2.208h-.736l-.262-.768 3.615-4.073h-5.596v-1.162h7.313v.95l-3.598 3.99c1.994.164 3.777 1.129 3.777 3.223v.033c0 2.045-1.701 3.451-3.828 3.451-1.913 0-3.337-.834-4.268-2.045"/><path fill="#fff" d="M130.018 39.565h1.506v1.718h-1.506zM133.615 38.207v-.033c0-1.357.979-2.322 2.354-2.812-1.062-.491-1.962-1.309-1.962-2.634v-.033c0-1.767 1.814-3.027 3.908-3.027s3.91 1.26 3.91 3.027v.033c0 1.325-.9 2.143-1.963 2.634 1.357.507 2.355 1.439 2.355 2.797v.032c0 1.946-1.865 3.255-4.303 3.255-2.434 0-4.299-1.324-4.299-3.239m7.295-.033v-.032c0-1.276-1.324-2.176-2.994-2.176-1.668 0-2.992.9-2.992 2.176v.032c0 1.162 1.111 2.144 2.992 2.144 1.883 0 2.994-.982 2.994-2.144m-.377-5.365v-.032c0-1.129-1.127-1.98-2.617-1.98-1.488 0-2.617.834-2.617 1.98v.032c0 1.244 1.162 2.094 2.617 2.094 1.457 0 2.617-.85 2.617-2.094"/><path fill="#fff" d="M143.547 29.01h15.395v1.229h-9.143c-.043 1.187-.1 2.3-.168 3.337h7.41c-.107 2.172-.229 4.233-.367 6.182-.096 1.182-.367 2.033-.814 2.555-.426.478-1.199.723-2.316.734-.586.022-1.576-.021-2.971-.128-.053-.404-.133-.893-.238-1.47 1.352.182 2.385.272 3.098.272 1.139.086 1.768-.633 1.885-2.155.127-1.491.223-3.082.287-4.775h-6.068c-.4 3.897-2.146 6.792-5.238 8.688-.246-.33-.559-.709-.943-1.135 2.992-1.82 4.596-4.535 4.809-8.145.1-1.166.166-2.485.199-3.96h-4.814v-1.229h-.003zM160.568 29.441h4.137v10.939h-1.15v-.847h-1.836v1.102h-1.15l-.001-11.194zm2.987 1.118h-1.836v7.857h1.836v-7.857zm1.773-.799h4.184v-2.012h1.182v2.012h4.408v1.15h-4.408v5.686h2.332v-4.328h1.15v6.099h-1.15v-.654h-2.332v3.019c0 .702.289 1.053.863 1.053h1.58c.586 0 .916-.287.99-.862.096-.724.176-1.507.24-2.348.436.193.836.363 1.197.511-.105.885-.213 1.646-.318 2.284-.16 1.044-.857 1.566-2.092 1.566h-1.869c-1.182 0-1.773-.677-1.773-2.03v-3.193h-3.465v-5.43h1.15v4.313h2.314v-5.686h-4.184l.001-1.15zM64.252 59.639h2.811v-6.515h1.309v6.515h11.275v1.246h-6.997c1.332 2.916 3.775 4.924 7.33 6.021-.361.479-.686.915-.973 1.311-3.828-1.459-6.398-3.901-7.715-7.33h-2.922v5.781c1.213-.49 2.502-1.056 3.865-1.692 0 .5.021.979.064 1.438-1.268.521-2.482 1.068-3.643 1.645-.426.234-.818.494-1.182.781l-.957-1.229c.361-.287.543-.676.543-1.166v-5.558h-2.811v-1.247h.003zm5.078-1.949c2.639-.883 5.18-2.23 7.617-4.039l.83 1.037c-2.49 1.82-5.1 3.215-7.824 4.185-.172-.363-.379-.756-.623-1.183"/><path fill="#fff" d="M87.902 53.491l1.166-.559c.361.568.727 1.213 1.094 1.932h5.885v1.118h-12.744v4.807c0 3.641-.707 6.355-2.123 8.145-.266-.352-.57-.715-.91-1.086 1.17-1.437 1.768-3.815 1.789-7.139v-5.845h6.627c-.247-.469-.506-.926-.784-1.373m-3.767 10.109v-1.055h10.012v1.038c-.963 1.039-2.09 1.94-3.377 2.707 1.539.618 3.34 1.019 5.406 1.207l-.623 1.245c-2.375-.33-4.398-.915-6.068-1.758-1.779.867-3.818 1.513-6.117 1.933-.17-.34-.389-.724-.654-1.149 2.107-.33 3.957-.826 5.549-1.484-1.139-.74-2.076-1.635-2.811-2.684h-1.317zm-.481-5.941h2.381v-1.342h1.213v1.342h4.52v-1.358h1.213v1.358h2.908v1.053h-2.909v3.067h-1.213v-.562h-4.52v.576h-1.213v-3.083h-2.381l.001-1.051zm8.832 5.941h-5.701c.756.83 1.666 1.532 2.73 2.107 1.155-.596 2.145-1.298 2.971-2.107m-5.238-3.402h4.521v-1.485h-4.521v1.485zM104.719 57.683c.281 0 .523.099.727.296.201.196.303.434.303.71 0 .277-.098.515-.295.714-.197.201-.441.3-.734.3s-.537-.099-.734-.3c-.197-.199-.297-.437-.297-.714 0-.276.102-.514.305-.71.199-.198.442-.296.725-.296m0 7.194c.281 0 .523.1.727.295.201.197.303.438.303.721 0 .285-.102.527-.303.722-.203.194-.445.291-.727.291-.283 0-.525-.097-.727-.291-.203-.193-.305-.437-.305-.722 0-.283.102-.522.305-.721.201-.195.444-.295.727-.295M113.697 64.857l.932-.834c.885 1.078 1.947 1.701 3.354 1.701 1.391 0 2.504-.886 2.504-2.226v-.033c0-1.423-1.326-2.209-3.207-2.209h-.736l-.262-.768 3.615-4.073h-5.594v-1.162h7.313v.949l-3.6 3.992c1.996.163 3.779 1.128 3.779 3.222v.033c0 2.044-1.701 3.45-3.828 3.45-1.914.003-3.338-.831-4.27-2.042"/><path fill="#fff" d="M125.832 56.515l-2.16.671-.311-1.047 2.797-.966h.949v11.532h-1.275zM129.773 61.014v-.034c0-3.207 1.912-5.921 4.857-5.921 2.943 0 4.809 2.683 4.809 5.889v.032c0 3.205-1.896 5.922-4.842 5.922-2.96 0-4.824-2.683-4.824-5.888m8.325 0v-.034c0-2.502-1.373-4.744-3.5-4.744-2.143 0-3.484 2.191-3.484 4.711v.032c0 2.502 1.375 4.744 3.518 4.744 2.143.002 3.466-2.207 3.466-4.709"/><path fill="#fff" d="M156.611 66.266c-.361.428-.648.812-.861 1.15-2.789-1.502-4.93-3.648-6.42-6.443v7.832h-1.277v-7.832c-1.299 2.762-3.482 5.033-6.549 6.812-.213-.31-.494-.671-.846-1.086 2.98-1.699 5.086-3.69 6.316-5.974h-6.092v-1.214h7.17v-6.196h1.277v6.196h7.059v1.214h-5.965c1.438 2.406 3.501 4.254 6.188 5.541m-14.388-11.307l.91-.75c1.15 1.299 2.215 2.518 3.195 3.657l-1.07.894c-.959-1.288-1.971-2.555-3.035-3.801m8.816 2.971c1.117-1.203 2.102-2.433 2.953-3.689l1.15.83c-1.342 1.671-2.391 2.907-3.146 3.705l-.957-.846zM71.182 93.189c1.262-.862 2.396-1.902 3.402-3.121-.543-1.642-.889-3.709-1.039-6.205h-9.406v-1.07h3.977v-1.484h-3.32v-1.006h3.32v-1.629h1.182v1.629h3.146v1.006h-3.146v1.484h4.186c-.065-1.266-.123-2.666-.176-4.199h1.229c.006 1.496.045 2.896.121 4.199h5.309v1.07h-5.246c.113 1.964.365 3.639.76 5.022.803-1.146 1.512-2.42 2.123-3.825l1.102.512c-.818 1.762-1.74 3.318-2.762 4.671.33.782.719 1.44 1.166 1.972.275.32.531.48.766.48.287 0 .479-.213.576-.639.127-.576.25-1.3.367-2.173.426.19.809.334 1.148.431-.139.906-.293 1.709-.463 2.412-.266.946-.74 1.422-1.422 1.422-.777 0-1.516-.496-2.219-1.486-.287-.393-.549-.844-.783-1.35-.916 1.049-1.9 1.951-2.953 2.707-.322-.361-.637-.638-.945-.83m-4.791-4.822h2.188v-1.469h1.135v1.469h3.018v1.006h-3.018v1.484l3.082-.254c-.031.34-.049.686-.049 1.037-.957.062-1.969.141-3.033.23v2.339h-1.135v-2.233c-1.25.104-2.57.233-3.959.383l-.256-1.15c1.266-.068 2.672-.16 4.215-.271v-1.564h-3.512v-1.039c.43-.559.854-1.182 1.27-1.867h-1.813v-1.006h2.394c.263-.475.517-.975.767-1.502l1.184.367c-.219.4-.432.777-.641 1.135h4.633v1.006h-5.23c-.443.721-.858 1.356-1.24 1.899m9.214-8.607l.783-.783c1.074.81 1.947 1.527 2.619 2.156l-.91.926c-.724-.778-1.554-1.543-2.492-2.299M85.635 81.548l1.166.496c-.244.302-.49.595-.734.878h7.361v1.005c-.883 1.028-2.055 1.914-3.514 2.66 1.768.548 3.924.828 6.469.837-.287.416-.555.848-.799 1.294-2.848-.217-5.211-.715-7.09-1.493-2.066.83-4.594 1.437-7.586 1.813-.182-.394-.404-.778-.672-1.151 2.689-.271 4.973-.717 6.852-1.34-1.021-.585-1.85-1.283-2.482-2.092-.799.766-1.627 1.453-2.484 2.059-.234-.274-.51-.563-.83-.861 1.884-1.29 3.331-2.656 4.343-4.105m-4.375-1.118h6.891c-.287-.44-.637-.91-1.047-1.406l1.086-.685c.426.489.869 1.032 1.326 1.628l-.734.463h6.756v2.987h-1.182v-1.933h-11.915v1.916h-1.181v-2.97zm1.916 8.703h10.412v5.079h-1.182v-.67h-8.049v.67h-1.182l.001-5.079zm9.23 1.023h-8.049v2.363h8.049v-2.363zm-.67-6.213h-6.109c.719.853 1.664 1.547 2.834 2.084 1.357-.58 2.449-1.274 3.275-2.084"/><path fill="#fff" d="M96.813 92.838h7.33v-.91h-6.084v-.83h6.084v-.91h-4.359v.416h-1.086v-4.904h12.059v4.903h-1.086v-.416h-4.408v.91h6.1v.829h-6.1v.91h7.33v.864h-15.78v-.862zm.128-8.768h15.586v.863h-15.586v-.863zm1.885-4.902h11.816v4.568h-1.086v-.432h-9.645v.432h-1.086l.001-4.568zm.957 8.385h4.359v-1.023h-4.359v1.023zm0 1.804h4.359v-1.039h-4.359v1.039zm9.774-9.359h-9.646v.848h9.646v-.848zm-9.645 2.477h9.646v-.863h-9.646v.863zm9.758 4.054h-4.408v1.022h4.408v-1.022zm-4.408 2.828h4.408v-1.039h-4.408v1.039zM121.072 83.105c.281 0 .523.098.727.295.201.197.303.434.303.711 0 .274-.098.514-.295.714-.197.2-.441.3-.734.3s-.537-.1-.734-.3c-.197-.2-.297-.438-.297-.714 0-.277.102-.514.305-.711.2-.197.442-.295.725-.295m0 7.194c.281 0 .523.1.727.295.201.197.303.438.303.721 0 .287-.102.527-.303.722-.203.196-.445.292-.727.292-.283 0-.525-.096-.727-.292-.203-.193-.305-.435-.305-.722 0-.282.102-.522.305-.721.202-.196.444-.295.727-.295M130.051 90.279l.932-.834c.885 1.08 1.947 1.701 3.354 1.701 1.391 0 2.504-.885 2.504-2.225v-.033c0-1.423-1.326-2.209-3.207-2.209h-.736l-.262-.769 3.615-4.072h-5.594v-1.162h7.313v.949l-3.6 3.99c1.996.164 3.779 1.129 3.779 3.224v.032c0 2.045-1.701 3.451-3.828 3.451-1.915.002-3.339-.832-4.27-2.043M140.107 89.053v-.033c0-1.356.981-2.321 2.355-2.812-1.063-.491-1.963-1.309-1.963-2.635v-.031c0-1.768 1.816-3.027 3.91-3.027 2.094 0 3.91 1.26 3.91 3.027v.031c0 1.326-.9 2.144-1.963 2.635 1.357.507 2.355 1.439 2.355 2.797v.033c0 1.945-1.865 3.254-4.303 3.254s-4.301-1.325-4.301-3.239m7.297-.033v-.033c0-1.273-1.326-2.174-2.994-2.174s-2.994.899-2.994 2.174v.033c0 1.162 1.113 2.144 2.994 2.144 1.881-.001 2.994-.982 2.994-2.144m-.377-5.366v-.033c0-1.127-1.129-1.979-2.617-1.979s-2.617.834-2.617 1.979v.033c0 1.244 1.162 2.094 2.617 2.094s2.617-.85 2.617-2.094"/><path fill="#fff" d="M156.625 89.412h-6.035l-.328-.934 6.479-7.883h1.129v7.735h1.783v1.08h-1.783v2.715h-1.244l-.001-2.713zm0-1.08v-5.902l-4.809 5.902h4.809zM161.547 86.436v-.033c0-3.204 1.912-5.922 4.857-5.922 2.943 0 4.809 2.686 4.809 5.891v.031c0 3.207-1.896 5.924-4.842 5.924-2.961-.002-4.824-2.686-4.824-5.891m8.324 0v-.033c0-2.502-1.373-4.742-3.5-4.742-2.143 0-3.484 2.191-3.484 4.711v.031c0 2.505 1.375 4.744 3.518 4.744 2.143-.001 3.466-2.209 3.466-4.711M172.48 92.902c4.641-2.685 7.096-7.389 7.361-14.117h1.406c-.059 1.139-.172 2.225-.336 3.259 1.32 5.321 3.801 8.825 7.441 10.507-.447.491-.842.954-1.182 1.389-3.162-1.787-5.416-4.953-6.764-9.494-1.166 4.389-3.473 7.611-6.922 9.671-.285-.394-.621-.799-1.004-1.215M231.167 34.807h.959v-5.382h1.652c.139-.649.264-1.262.375-1.837l1.166.207c-.187.56-.364 1.103-.535 1.63h2.388v12.121c0 1.075-.479 1.612-1.438 1.612-.606 0-1.123-.015-1.549-.046-.032-.31-.096-.677-.191-1.103.543.075 1.031.112 1.469.112.416 0 .623-.245.623-.734v-5.494h-2.874v1.709c0 2.342-.437 4.242-1.31 5.701-.234-.309-.527-.607-.879-.895.734-1.181 1.103-2.821 1.103-4.919v-1.596h-.959v-1.086zm4.919-4.296h-2.874v4.296h2.874v-4.296zm-2.397 1.229l.959-.367c.267.574.575 1.342.927 2.299l-.99.368c-.256-.831-.554-1.596-.896-2.3m0 5.558l.959-.367c.33.798.666 1.729 1.007 2.794l-.99.367c-.277-.947-.602-1.879-.976-2.794m6.677-2.683c0 2.737-.134 4.631-.399 5.686-.277 1.224-.799 2.272-1.566 3.146-.318-.406-.632-.761-.94-1.071.681-.723 1.144-1.629 1.389-2.715.245-1.064.367-2.656.367-4.774v-1.422h5.031v7.634c0 .384.17.575.511.575h.304c.319 0 .489-.287.511-.863.043-.553.091-1.469.144-2.746.394.18.814.356 1.262.527-.074 1.064-.144 1.964-.208 2.698-.106 1.097-.602 1.646-1.484 1.646h-.862c-.884 0-1.326-.522-1.326-1.566v-6.755h-2.734zm-2.619-4.439h8.72v1.182h-8.72v-1.182zm2.795-2.125l1.069-.494c.416.67.783 1.314 1.103 1.932l-1.086.511c-.319-.681-.682-1.331-1.086-1.949"/><path fill="#fff" d="M253.27 31.725l.942.911c-2.065 1.618-4.008 2.938-5.829 3.96-.33-.437-.65-.783-.958-1.039 2.087-1.064 4.035-2.341 5.845-3.832m-5.238 9.646h6.644v-4.185h-4.999v-1.213h11.371v1.213h-5.015v4.185h6.659v1.214h-14.66v-1.214zm.096-11.658h6.938c-.244-.463-.551-.986-.918-1.566l1.182-.574c.437.628.814 1.246 1.134 1.853l-.583.287h6.731v3.098h-1.311v-1.884h-11.865v1.884h-1.31l.002-3.098zm9.246 2.028c2.236 1.331 4.179 2.587 5.829 3.77l-.91 1.101c-1.607-1.256-3.503-2.571-5.686-3.945l.767-.926zM263.842 33.897h1.988l.71-5.286h11.084c-.086 1.97-.166 3.731-.24 5.286h2.22v1.149h-2.268c-.08 1.699-.149 3.115-.207 4.248h1.82v1.119h-1.893c-.102 1.016-.349 1.709-.742 2.076-.427.404-1.23.605-2.412.605-.83 0-1.65-.032-2.459-.096-.064-.532-.149-1.006-.256-1.42 1.043.148 1.933.222 2.667.222.703 0 1.182-.127 1.438-.383.181-.169.314-.505.399-1.005h-10.572v-1.198l.559-4.169h-1.836v-1.148zm2.601 5.397h9.359c.08-1.213.157-2.629.231-4.248h-9.039l-.551 4.248zm9.807-9.565h-8.56l-.543 4.168h8.943c.054-1.277.107-2.668.16-4.168m-6.563 6.531l.91-.783c.884.799 1.714 1.646 2.491 2.54l-1.038.894c-.767-.905-1.555-1.788-2.363-2.651m.319-5.365l.927-.799c.883.809 1.714 1.655 2.491 2.539l-1.055.896c-.66-.832-1.447-1.71-2.363-2.636"/><path fill="#fff" d="M290.64 30.783h1.117v2.667c0 1.394-.09 2.597-.271 3.609h.911v3.96c0 .618.276.927.83.927h.623c.511 0 .804-.278.878-.83.043-.352.091-1.066.144-2.141.404.182.793.346 1.166.495-.106 1.224-.209 2.033-.304 2.427-.181.777-.793 1.166-1.836 1.166h-.942c-1.097 0-1.645-.633-1.645-1.901v-3.242c-.564 2.237-2.002 4.089-4.313 5.559-.213-.362-.463-.709-.75-1.039-.139.384-.416.623-.831.719-.415.095-1.097.107-2.044.032-.043-.363-.106-.73-.191-1.102.596.074 1.069.113 1.421.113.447 0 .671-.225.671-.672v-5.589h-3.002v1.453c.01 2.523-.427 4.519-1.31 5.989-.256-.32-.55-.618-.879-.894.724-1.129 1.092-2.886 1.103-5.271v-1.277h-.959v-1.086h.959v-5.382h1.645c.139-.586.266-1.197.383-1.837l1.166.208c-.181.532-.362 1.075-.543 1.629h2.523v12.248c0 .267-.037.496-.111.688 1.703-1.034 2.858-2.188 3.465-3.465.617-1.215.927-2.94.927-5.175l-.001-2.986zm-5.367-.224h-3.002v4.296h3.002v-4.296zm-2.411 1.246l.958-.367c.287.639.596 1.404.926 2.299l-.99.367c-.255-.83-.555-1.597-.894-2.299m0 5.557l.958-.368c.33.799.665 1.731 1.006 2.795l-.99.368c-.276-.948-.602-1.879-.974-2.795m4.775-8.848h7.188v9.551h-1.117v-8.368h-4.951v8.591h-1.118v-9.774h-.002zM297.155 30.336h1.613c.394-.969.719-1.853.974-2.652l1.342.383c-.335.816-.66 1.571-.975 2.269h3.193v12.712h-1.276v-1.247h-3.595v1.358h-1.276v-12.823zm4.871 1.198h-3.595v3.88h3.595v-3.88zm-3.594 9.07h3.595v-4.041h-3.595v4.041zm5.111-6.994c1.001-1.587 1.848-3.562 2.54-5.926l1.341.336c-.271.804-.548 1.56-.83 2.268h5.144c-.128 5.472-.234 8.916-.319 10.332-.075 1.672-.953 2.508-2.636 2.508-.969 0-1.953-.033-2.954-.096-.065-.533-.15-1.006-.256-1.422h.048c1.064.149 2.039.224 2.923.224.97 0 1.49-.511 1.565-1.533.115-1.586.202-4.525.255-8.816h-4.279c-.464 1.027-.942 1.933-1.438 2.715-.29-.201-.657-.399-1.104-.59m1.405 1.086l.975-.719c1.182 1.395 2.124 2.603 2.827 3.625l-1.183.83c-.755-1.234-1.629-2.48-2.619-3.736"/><path fill="#fff" d="M315.525 31.092l-2.159.67-.31-1.047 2.797-.965h.948v11.532h-1.276zM319.711 39.565h1.506v1.718h-1.506zM323.326 39.664l.851-.933c.997.965 2.095 1.571 3.255 1.571 1.637 0 2.766-1.08 2.766-2.535v-.034c0-1.423-1.18-2.404-2.848-2.404-.965 0-1.732.295-2.403.654l-.867-.572.327-5.578h6.593v1.194h-5.464l-.245 3.664c.67-.295 1.31-.506 2.257-.506 2.225 0 3.959 1.324 3.959 3.5v.033c0 2.24-1.701 3.761-4.09 3.761-1.638 0-3.062-.786-4.091-1.815"/><path fill="#fff" d="M332.609 35.461c1.471-2.107 2.608-4.683 3.418-7.728l1.229.35c-.437 1.421-.927 2.753-1.47 3.994v11.306h-1.182v-8.92c-.463.836-.953 1.616-1.47 2.34-.155-.447-.332-.894-.525-1.342m4.393-1.246h7.857l-.879-.494c.629-.83 1.154-1.678 1.582-2.539l1.182.574c-.494.81-1.041 1.629-1.637 2.459h3.488v1.119h-11.595l.002-1.119zm.591-4.199h5.056c-.367-.629-.774-1.251-1.223-1.869l1.07-.623c.479.64.922 1.289 1.325 1.949l-.95.543h5.166v1.117h-10.444v-1.117zm.846 6.899h8.72v6.452h-1.214v-1.038h-6.293v1.038h-1.213v-6.452zm.479-5.126l1.021-.623c.619.852 1.155 1.634 1.613 2.347l-1.086.687c-.52-.915-1.036-1.719-1.548-2.411m7.027 6.228h-6.293v3.241h6.293v-3.241zM231.65 64.857l.932-.834c.883 1.078 1.947 1.701 3.354 1.701 1.391 0 2.503-.886 2.503-2.226v-.033c0-1.423-1.325-2.209-3.206-2.209h-.736l-.262-.768 3.615-4.073h-5.596v-1.162h7.313v.949l-3.598 3.992c1.994.163 3.778 1.128 3.778 3.222v.033c0 2.044-1.7 3.45-3.828 3.45-1.913.003-3.337-.831-4.269-2.042"/><path fill="#fff" d="M250.055 53.475l-.239.367c1.726 2.842 4.12 4.875 7.187 6.1-.33.521-.612 1.001-.847 1.437-3.13-1.638-5.499-3.753-7.106-6.339-1.575 2.458-3.965 4.647-7.17 6.563-.234-.386-.506-.806-.814-1.262 3.321-1.842 5.791-4.131 7.409-6.867h1.58zm-1.756 5.493h1.453v9.886h-1.453v-9.886zM257.291 67.688c1.787-1.512 2.814-3.748 3.081-6.707l1.357.207c-.128 1.021-.33 1.977-.606 2.858.867 1.667 2.161 2.638 3.879 2.915v-7.466h-4.215v.687h-1.293v-6.404h11.865v6.404h-1.294v-.687h-3.736v3.019h5.988v1.166h-5.988v3.377c2.033.053 4.38.029 7.042-.072-.17.428-.324.867-.463 1.326-2.736.021-5.041.01-6.915-.03-2.475-.032-4.27-.986-5.382-2.859-.606 1.379-1.432 2.55-2.476 3.515-.243-.419-.526-.833-.844-1.249m12.774-12.744h-9.278v3.386h9.278v-3.386zM273.802 65.788c.719-.075 1.475-.163 2.268-.265v-4.83h-1.964v-1.15h1.964v-3.754h-2.172v-1.149h5.462v1.149h-2.124v3.754h1.853v1.15h-1.853v4.678c.639-.089 1.299-.186 1.979-.287-.043.426-.068.836-.079 1.23-1.991.256-3.716.494-5.175.719l-.159-1.245zm5.493-1.04c1.391-.846 2.844-1.788 4.36-2.826v-4.646h-4.088v-1.151h4.088v-2.842h1.214v2.842h4.535v1.151h-4.535v1.421c.267.873.577 1.682.935 2.426.921-.893 1.689-1.718 2.308-2.474l1.038.878c-.879.868-1.813 1.747-2.803 2.636.926 1.601 2.078 2.841 3.457 3.72-.062.096-.202.262-.415.495-.234.245-.399.437-.495.576-1.746-1.263-3.088-3.078-4.024-5.446v5.157c0 1.267-.66 1.901-1.98 1.901-.521 0-1.08-.006-1.678-.017-.063-.405-.147-.842-.254-1.31.628.072 1.197.109 1.708.109.66 0 .99-.322.99-.974v-3.042c-1.103.766-2.289 1.621-3.562 2.562l-.799-1.146zm.352-5.764l.974-.591c.692.905 1.379 1.906 2.061 3.001l-1.022.703c-.735-1.245-1.406-2.282-2.013-3.113m6.084-4.759l.703-.799c.756.501 1.446 1.018 2.076 1.549l-.767.879c-.628-.586-1.298-1.129-2.012-1.629"/><path fill="#fff" d="M290.155 64.908c.771-.314 1.55-.641 2.332-.982v-5.517h-2.14v-1.15h2.14v-3.992h1.182v3.992h1.948v1.15h-1.948v4.991c.596-.272 1.197-.553 1.805-.84.021.446.069.848.144 1.197-1.555.702-3.21 1.495-4.967 2.381l-.496-1.23zm12.026-9.677h-6.228v-1.149h8.495v1.165l-6.292 3.976h7.251c-.128 2.949-.251 5.229-.368 6.835-.138 1.629-.889 2.442-2.252 2.442-.468 0-1.187-.017-2.155-.048-.074-.532-.165-.994-.271-1.391.734.117 1.479.177 2.235.177.756 0 1.172-.452 1.246-1.357.106-1.331.213-3.168.318-5.509h-1.709c-.473 3.582-2.128 6.42-4.966 8.511-.298-.373-.596-.696-.894-.974 2.64-1.826 4.197-4.34 4.671-7.537h-2.044c-.612 2.667-2.127 4.863-4.544 6.595-.255-.308-.532-.616-.83-.925 2.204-1.507 3.599-3.396 4.184-5.67h-1.9v-1.212l6.053-3.929zM238.242 81.855h-6.298v-1.177h7.77v.965l-5.2 10.484h-1.441zM241.297 80.303h2.3c.03-.555.048-1.166.048-1.838h1.182c0 .666-.014 1.278-.04 1.838h3.585c-.053 1.469-.111 2.655-.176 3.562-.063.968-.25 1.617-.559 1.947-.276.33-.81.494-1.596.494-.32 0-.735-.006-1.248-.016-.073-.425-.164-.826-.271-1.197.628.063 1.112.096 1.453.096.618 0 .953-.336 1.007-1.006.085-1.055.145-1.984.176-2.795h-2.452c-.09 2.234-1.089 4.135-2.995 5.7-.244-.288-.553-.579-.925-.878 1.649-1.234 2.555-2.842 2.716-4.822h-2.205v-1.085zm15.412 12.056c-.396.436-.726.842-.991 1.214-2.651-.905-4.77-2.319-6.356-4.241v4.992h-1.214v-5.016c-1.788 1.948-3.928 3.435-6.42 4.455-.244-.318-.554-.682-.926-1.087 2.422-.823 4.567-2.036 6.437-3.64h-6.148v-1.116h7.059v-1.789h1.214v1.789h7.139v1.118h-6.284c1.717 1.666 3.881 2.773 6.49 3.321m-6.964-12.487h5.813v6.291h-1.181v-.815h-3.45v.863h-1.182v-6.339zm4.632 1.085h-3.449v3.305h3.449v-3.305zM263.016 82.568l.942.912c-2.065 1.617-4.008 2.938-5.829 3.959-.33-.437-.65-.781-.958-1.037 2.087-1.064 4.035-2.34 5.845-3.834m-5.238 9.647h6.644v-4.184h-4.999v-1.215h11.371v1.215h-5.015v4.184h6.659v1.217h-14.66v-1.217zm.096-11.656h6.938c-.244-.465-.551-.985-.918-1.565l1.182-.574c.437.627.814 1.246 1.134 1.853l-.583.287h6.731v3.099h-1.31v-1.884h-11.865v1.884h-1.31l.001-3.1zm9.246 2.027c2.236 1.33 4.179 2.586 5.829 3.77l-.91 1.103c-1.607-1.256-3.503-2.572-5.686-3.944l.767-.929zM278.746 81.548l1.166.496c-.244.302-.489.595-.734.878h7.361v1.005c-.883 1.028-2.054 1.914-3.513 2.66 1.768.548 3.924.828 6.468.837-.287.416-.554.848-.798 1.294-2.849-.217-5.212-.715-7.091-1.493-2.066.83-4.594 1.437-7.586 1.813-.181-.394-.404-.778-.671-1.151 2.688-.271 4.973-.717 6.852-1.34-1.022-.585-1.85-1.283-2.483-2.092-.799.766-1.626 1.453-2.483 2.059-.235-.274-.511-.563-.83-.861 1.883-1.29 3.331-2.656 4.342-4.105m-4.375-1.118h6.891c-.287-.44-.636-.91-1.046-1.406l1.086-.685c.426.489.868 1.032 1.326 1.628l-.735.463h6.756v2.987h-1.182v-1.933h-11.914v1.916h-1.182v-2.97zm1.916 8.703h10.413v5.079h-1.182v-.67h-8.049v.67h-1.183l.001-5.079zm9.232 1.023h-8.049v2.363h8.049v-2.363zm-.671-6.213h-6.108c.719.853 1.663 1.547 2.834 2.084 1.357-.58 2.448-1.274 3.274-2.084"/><path fill="#fff" d="M295.494 80.596h1.211l5.217 11.532h-1.391l-1.341-3.026h-6.233l-1.356 3.026h-1.325l5.218-11.532zm3.19 7.343l-2.602-5.838-2.617 5.838h5.219zM303.375 90.279l.932-.834c.883 1.08 1.947 1.701 3.354 1.701 1.391 0 2.503-.885 2.503-2.225v-.033c0-1.423-1.325-2.209-3.206-2.209h-.736l-.262-.769 3.615-4.072h-5.596v-1.162h7.313v.949l-3.598 3.99c1.994.164 3.778 1.129 3.778 3.224v.032c0 2.045-1.7 3.451-3.828 3.451-1.914.002-3.337-.832-4.269-2.043M313.432 89.053v-.033c0-1.356.98-2.321 2.355-2.812-1.063-.491-1.963-1.309-1.963-2.635v-.031c0-1.768 1.815-3.027 3.909-3.027s3.91 1.26 3.91 3.027v.031c0 1.326-.899 2.144-1.964 2.635 1.359.507 2.355 1.439 2.355 2.797v.033c0 1.945-1.864 3.254-4.302 3.254-2.435-.001-4.3-1.325-4.3-3.239m7.295-.033v-.033c0-1.273-1.324-2.174-2.993-2.174-1.668 0-2.993.899-2.993 2.174v.033c0 1.162 1.112 2.144 2.993 2.144 1.881-.002 2.993-.982 2.993-2.144m-.376-5.366v-.033c0-1.127-1.128-1.979-2.617-1.979-1.488 0-2.617.834-2.617 1.979v.033c0 1.244 1.161 2.094 2.617 2.094s2.617-.85 2.617-2.094M323.898 86.436v-.033c0-3.204 1.912-5.922 4.856-5.922s4.81 2.686 4.81 5.891v.031c0 3.207-1.896 5.924-4.842 5.924-2.958-.002-4.824-2.686-4.824-5.891m8.327 0v-.033c0-2.502-1.375-4.742-3.5-4.742-2.145 0-3.484 2.191-3.484 4.711v.031c0 2.505 1.374 4.744 3.517 4.744 2.142-.001 3.467-2.209 3.467-4.711"/><path fill="#fff" d="M206.382 31.936h7.605v1.21h-7.605v-1.21zm0 3.827h7.605v1.21h-7.605v-1.21zM206.382 57.491h7.605v1.21h-7.605v-1.21zm0 3.827h7.605v1.209h-7.605v-1.209zM206.382 83.047h7.605v1.21h-7.605v-1.21zm0 3.827h7.605v1.21h-7.605v-1.21zM50.772 29.602h-4.416l.884-2.01h2.65zM43.014 30.702h11.102v1.24h-11.102zM48.563 33.87l6.331 2.201v-2.946h-12.661v2.946zM48.563 35.027l-8.26 2.87 3.305 5.055h10.097l3.121-5.055zM50.772 54.811h-4.416l.884-2.012h2.65zM43.014 55.907h11.102v1.245h-11.102zM48.563 59.077l6.331 2.202v-2.943h-12.661v2.943zM48.563 60.231l-8.26 2.873 3.305 5.057h10.097l3.121-5.057zM50.772 80.082h-4.416l.884-2.012h2.65zM43.014 81.182h11.102v1.242h-11.102zM48.563 84.348l6.331 2.205v-2.946h-12.661v2.946zM48.563 85.504l-8.26 2.871 3.305 5.061h10.097l3.121-5.061z"/></svg>