<?xml version="1.0" encoding="utf-8"?>
<!-- Generator: Adobe Illustrator 16.0.0, SVG Export Plug-In . SVG Version: 6.00 Build 0)  -->
<!DOCTYPE svg PUBLIC "-//W3C//DTD SVG 1.1//EN" "http://www.w3.org/Graphics/SVG/1.1/DTD/svg11.dtd">
<svg version="1.1" id="图层_1" xmlns="http://www.w3.org/2000/svg" xmlns:xlink="http://www.w3.org/1999/xlink" x="0px" y="0px"
	 width="640px" height="395px" viewBox="0 -188.5 640 395" enable-background="new 0 -188.5 640 395" xml:space="preserve">
<g enable-background="new    ">
	<path fill="#FFCC19" d="M386.077,33.686h-3.232V21.504c-1.181,1.104-2.571,1.921-4.175,2.45v-2.933
		c0.844-0.276,1.76-0.799,2.749-1.57s1.668-1.669,2.036-2.697h2.622V33.686L386.077,33.686z"/>
	<path fill="#FFFFFF" d="M56.403,142.875v-1.688h6.641c0.459-0.938,0.863-1.938,1.208-3l1.897,0.28
		c-0.172,0.438-0.431,1.031-0.776,1.781c-0.172,0.438-0.288,0.75-0.345,0.938h11.385v1.688H64.166
		c-0.173,0.312-0.432,0.75-0.776,1.312c-0.345,0.625-0.604,1.095-0.776,1.406h11.471V157.5c0.057,1.875-0.862,2.812-2.76,2.812
		c-1.324,0-2.415,0-3.278,0c0-0.188-0.058-0.469-0.172-0.844c-0.058-0.438-0.116-0.75-0.172-0.938c0.229,0,0.632,0,1.208,0
		c0.747,0.062,1.322,0.094,1.725,0.094c1.207,0.062,1.753-0.438,1.639-1.5v-1.5H61.664v5.062h-1.725v-11.53
		c-1.035,1.188-2.156,2.344-3.364,3.469l-0.862-1.781c2.816-2.499,4.944-5.155,6.382-7.969L56.403,142.875L56.403,142.875z
		 M56.834,115.096c-0.116-0.188-0.289-0.437-0.518-0.75c-0.23-0.312-0.403-0.563-0.518-0.75c2.875-2.124,5.089-4.594,6.642-7.406
		l1.811,0.469c-0.172,0.313-0.461,0.75-0.862,1.313c-0.173,0.25-0.289,0.438-0.345,0.563h8.453v1.5l-2.587,2.813h5.175v7.594h-8.021
		c-1.035,3.563-4.054,6.343-9.057,8.344c-0.288-0.563-0.662-1.125-1.121-1.688c4.369-1.5,7.159-3.718,8.366-6.656h-6.124v-6.375
		L56.834,115.096z M56.748,176.188v-1.78h11.299c1.035-1.5,1.926-2.906,2.674-4.22l1.812,0.656
		c-0.116,0.127-0.259,0.346-0.432,0.656c-0.862,1.251-1.524,2.221-1.983,2.906h5.52v1.781H71.41v5.719h5.175v1.875H71.41v8.812
		h-1.897v-8.812h-6.469c0.115,3.938-1.552,6.938-5.002,9c-0.403-0.438-0.862-0.906-1.38-1.406c3.162-1.812,4.686-4.343,4.571-7.594
		h-5.434v-1.875h5.52v-5.719H56.748L56.748,176.188z M69.34,110.033h-7.417c-0.69,0.876-1.524,1.813-2.501,2.813h7.332
		L69.34,110.033z M59.853,114.439v4.406h4.917l0.172-0.844c0.229-1.125,0.374-2.312,0.431-3.563L59.853,114.439L59.853,114.439z
		 M62.699,174.312c-0.289-0.375-0.69-0.938-1.208-1.688c-0.576-0.75-1.007-1.312-1.294-1.688l1.639-0.75
		c0.115,0.125,0.259,0.312,0.431,0.562c0.518,0.626,1.208,1.562,2.07,2.812L62.699,174.312z M61.664,147.188v2.625h10.609v-2.625
		H61.664z M61.664,151.406v2.625h10.609v-2.625H61.664z M63.13,176.188v5.72h6.382v-5.72H63.13z M68.995,128.127
		c-1.897,0-2.846-0.876-2.846-2.625v-4.219h1.725v3.75c-0.058,0.999,0.518,1.468,1.725,1.406h3.191c1.035,0,1.639-0.438,1.811-1.313
		c0.172-0.812,0.287-1.781,0.345-2.906c0.574,0.188,1.149,0.345,1.725,0.47c-0.058,0.688-0.172,1.47-0.345,2.344
		c-0.058,0.375-0.116,0.656-0.173,0.844c-0.288,1.5-1.293,2.25-3.019,2.25H68.995L68.995,128.127z M72.445,114.439h-5.348
		c-0.116,1.438-0.259,2.688-0.431,3.75l-0.086,0.656h5.865V114.439z M80.086,191.562v-1.594h2.933v-18.375H97.94v18.375h3.019v1.594
		H80.086z M81.725,121.096c-0.345,0.126-0.634,0.22-0.863,0.281c-0.172-0.563-0.403-1.093-0.69-1.594
		c3.623-0.875,5.749-2.063,6.382-3.563h-4.916l0.604-4.781h5.003c0-0.563,0-1.219,0-1.969H81.38v-1.406h5.951
		c0-0.624,0-1.219,0-1.781h1.639c0,0.563,0,1.157,0,1.781h3.709v-1.781h1.639v1.781h5.089v4.781h-5.089v2.063h5.951
		c0,0.25-0.03,0.656-0.086,1.219c0,0.375,0,0.656,0,0.844c-0.058,1.063-0.662,1.626-1.812,1.688c-0.748,0-1.438,0-2.07,0
		c0-0.062-0.03-0.155-0.086-0.281c-0.116-0.375-0.202-0.656-0.259-0.844c0.229,0,0.546,0.032,0.949,0.094c0.402,0,0.69,0,0.863,0
		c0.632,0.063,0.919-0.218,0.862-0.844c0.057-0.188,0.086-0.375,0.086-0.563h-4.399v2.156h-1.639v-2.156h-4.313
		c-0.345,1.188-1.065,2.156-2.156,2.906H97.68v5.625h-1.639v-4.219H85.347v4.5h-1.725v-4.688
		C83.277,120.533,82.644,120.784,81.725,121.096L81.725,121.096z M80.172,143.156v-1.594h6.296c-0.576-0.875-1.266-1.75-2.07-2.625
		l1.639-0.75c0.574,0.75,1.35,1.75,2.329,3l-0.776,0.375h4.917c0.517-0.625,1.236-1.562,2.156-2.813
		c0.172-0.188,0.287-0.343,0.345-0.469l1.725,0.655l-2.07,2.625h6.21v1.595L80.172,143.156L80.172,143.156z M99.406,128.596
		c-0.69-0.25-1.668-0.625-2.933-1.125c-2.587-1-4.571-1.718-5.951-2.156c-1.035,1.562-3.939,2.72-8.711,3.47
		c-0.172-0.563-0.431-1.157-0.776-1.781c3.45-0.438,5.75-1,6.9-1.688c1.208-0.687,1.839-1.904,1.897-3.655h1.811
		c-0.116,0.813-0.259,1.563-0.431,2.25c0.977,0.313,2.385,0.782,4.226,1.405c2.07,0.688,3.651,1.22,4.744,1.595L99.406,128.596z
		 M81.552,160.688V145.5h9.056v12.375c0.057,1.562-0.719,2.344-2.329,2.344c-0.461,0.062-1.323,0.094-2.587,0.094
		c0-0.625-0.086-1.219-0.259-1.78c0.402,0.062,1.208,0.094,2.415,0.094c0.805,0.062,1.178-0.281,1.121-1.031v-2.25H83.19v5.345
		h-1.638V160.688z M83.191,147.094v2.625h5.779v-2.625H83.191z M83.191,151.219v2.625h5.779v-2.625H83.191z M83.623,112.846
		l-0.259,2.063h3.623c0.114-0.624,0.172-1.313,0.172-2.063H83.623z M84.83,173.282v4.5h11.298v-4.5H84.83z M84.83,179.376v4.406
		h11.298v-4.406H84.83z M84.83,185.47v4.5h11.298v-4.5H84.83z M88.797,112.846c0.057,0.75,0,1.438-0.172,2.063h4.054v-2.063H88.797z
		 M88.884,109.471c0,0.625,0,1.282,0,1.969h3.795v-1.969H88.884z M93.282,156.188v-10.219h1.553v10.219H93.282z M96.819,160.219
		c-0.69,0.062-1.611,0.094-2.76,0.094c0-0.188-0.058-0.5-0.172-0.938c-0.058-0.375-0.116-0.688-0.172-0.938c0.229,0,0.574,0,1.035,0
		c0.574,0.062,1.035,0.094,1.38,0.094c1.15,0.062,1.696-0.469,1.639-1.594v-12h1.639v12.375
		C99.521,159.249,98.658,160.219,96.819,160.219L96.819,160.219z M97.854,109.471h-3.536v1.969h3.536V109.471z M107.133,111.346
		c-0.576,0.813-1.266,1.563-2.07,2.25c-0.23-0.375-0.518-0.75-0.863-1.125c1.322-1.062,2.385-2.375,3.191-3.938l1.293,0.375
		c-0.172,0.375-0.403,0.782-0.69,1.219h1.897v-3.844h1.38v1.219h3.45v1.219h-3.45v1.406h2.932v1.406
		c-2.128,2.438-5.118,4.345-8.97,5.719c-0.172-0.5-0.403-0.968-0.69-1.406c1.437-0.437,2.702-0.938,3.795-1.5
		c-0.116-0.188-0.375-0.437-0.776-0.75c-0.345-0.375-0.604-0.624-0.776-0.75l0.949-0.844c0.229,0.188,0.546,0.469,0.949,0.844
		c0.402,0.375,0.718,0.656,0.949,0.844c0.977-0.624,1.926-1.406,2.847-2.344H107.133L107.133,111.346z M123.866,115.564
		c-0.576-0.437-1.438-0.999-2.587-1.688c-0.576-0.375-1.007-0.656-1.294-0.844c-0.92,0.562-2.013,1.062-3.277,1.5
		c-0.172-0.249-0.403-0.563-0.69-0.938c-0.058,0.063-0.145,0.157-0.259,0.281c2.587,2.376,5.779,4.063,9.574,5.063
		c-0.23,0.438-0.489,0.938-0.776,1.5c-1.208-0.375-2.272-0.812-3.191-1.313V124c0.345-0.188,0.632-0.375,0.863-0.562l0.862,1.125
		c-0.058,0.062-0.172,0.125-0.345,0.188c-1.151,0.75-2.1,1.219-2.846,1.406c0.401,0.125,1.005,0.312,1.811,0.562
		c1.035,0.313,1.782,0.563,2.243,0.75l-0.69,1.219c-0.518-0.188-1.38-0.469-2.588-0.844c-2.818-0.938-4.946-1.562-6.382-1.875
		c0,0.5,0,0.969,0,1.406c-1.61,0.249-3.335,0.594-5.175,1.031c-0.058,0-0.145,0.031-0.259,0.094
		c-0.345,0.125-0.604,0.219-0.776,0.281l-0.776-1.219c0.518-0.375,0.747-0.877,0.69-1.5v-6.47c-0.288,0.126-0.776,0.344-1.466,0.656
		c-0.633,0.313-1.121,0.563-1.466,0.75c-0.058-0.125-0.23-0.406-0.518-0.844c-0.173-0.312-0.289-0.53-0.345-0.656
		c4.485-1.688,7.905-3.781,10.264-6.281l1.553,0.188l-0.173-0.188c1.092-0.375,1.984-0.75,2.674-1.125
		c-0.403-0.249-0.547-0.343-0.431-0.281c-0.92-0.563-1.639-0.999-2.156-1.313l0.863-1.125l3.191,1.875
		c0.919-0.624,1.753-1.406,2.501-2.344h-6.383v-1.406h8.021v1.5c-0.806,1.251-1.725,2.282-2.76,3.094
		c0.46,0.313,1.15,0.75,2.07,1.313c0.574,0.375,1.005,0.656,1.293,0.844L123.866,115.564z M104.632,153.656v-1.594h9.315v-1.595
		h1.639v1.595h9.401v1.594h-8.28c2.07,2.125,4.916,3.595,8.539,4.406c-0.345,0.562-0.662,1.154-0.949,1.78
		c-4.14-1.438-7.044-3.219-8.711-5.344v6.188h-1.639V154.5c-1.783,2.125-4.657,3.999-8.625,5.625
		c-0.116-0.251-0.345-0.626-0.69-1.125c-0.172-0.251-0.288-0.438-0.345-0.562c3.506-1,6.353-2.594,8.539-4.781H104.632z
		 M104.373,183.407v-1.688h3.019l0.949-5.719h14.145l-0.173,5.719h2.933v1.688h-3.019l-0.259,4.125h2.501v1.594h-2.588
		c-0.116,2.25-1.293,3.375-3.536,3.375c-1.151,0-2.243,0-3.277,0c-0.116-0.313-0.23-0.813-0.345-1.5
		c-0.058-0.126-0.086-0.22-0.086-0.281c0.46,0.062,1.523,0.095,3.191,0.095c1.495,0.062,2.271-0.502,2.329-1.688h-13.886
		l0.862-5.719H104.373z M104.459,141.844v-1.5h5.865v-2.062h1.639v2.062h5.606v-2.062h1.639v2.062h5.952v1.5h-5.952v1.219h-1.639
		v-1.219h-5.606v1.406h-1.639v-1.406H104.459z M109.203,173.657c-1.035,1.5-2.3,3-3.795,4.5c-0.116-0.188-0.289-0.499-0.518-0.938
		c-0.172-0.312-0.316-0.562-0.431-0.75c2.126-1.875,3.709-3.999,4.744-6.375l1.897,0.281c-0.288,0.562-0.604,1.125-0.949,1.688
		h14.576v1.595H109.203L109.203,173.657z M123.348,145.5c-5.808,0.312-11.615,0.531-17.422,0.656l-0.345-1.594
		c6.842-0.062,12.649-0.281,17.423-0.656L123.348,145.5L123.348,145.5z M108.858,150.844c-0.634-1.062-1.294-2.094-1.984-3.094
		l1.466-0.844c0.172,0.25,0.431,0.625,0.776,1.125c0.574,0.812,1.005,1.438,1.293,1.875L108.858,150.844z M120.243,187.532
		l0.259-4.125h-11.558l-0.69,4.125H120.243z M109.807,177.595l-0.604,4.125h11.299c0.115-1.437,0.172-2.812,0.172-4.125H109.807z
		 M119.812,119.314h-10.264v1.313h10.264V119.314z M109.548,123.064h10.264v-1.406h-10.264V123.064z M114.81,124.846
		c1.495,0.438,2.587,0.75,3.277,0.938c1.149-0.563,2.126-1.093,2.933-1.595h-11.471v2.72c0.69-0.25,2.242-0.563,4.657-0.938
		l-1.639-0.469l0.604-1.125C113.516,124.503,114.062,124.658,114.81,124.846L114.81,124.846z M115.327,116.408l0.345,1.781h3.623
		c-1.496-0.938-2.99-2.063-4.485-3.375c-1.093,1.125-2.501,2.25-4.227,3.375h3.623l-0.345-1.5L115.327,116.408z M115.413,187.345
		c-0.862-0.874-1.783-1.718-2.76-2.53l0.949-1.125c1.035,0.812,2.012,1.594,2.933,2.344L115.413,187.345z M115.758,181.438
		c-1.093-0.998-2.042-1.78-2.846-2.344l0.949-1.219c1.035,0.75,2.012,1.5,2.933,2.25L115.758,181.438z M114.464,149.906
		c-0.403-0.938-0.892-1.906-1.466-2.906l1.553-0.656c0.172,0.313,0.431,0.782,0.776,1.406c0.287,0.625,0.517,1.125,0.69,1.5
		L114.464,149.906z M122.486,147.469c-0.633,0.75-1.668,1.907-3.105,3.469l-1.294-1.125c1.38-1.5,2.357-2.625,2.933-3.375
		L122.486,147.469L122.486,147.469z M132.11,123.346c-0.345,1.752-1.035,3.5-2.07,5.25c-0.058-0.062-0.173-0.156-0.345-0.281
		c-0.518-0.438-0.892-0.781-1.121-1.03c0.919-1.5,1.523-3.03,1.811-4.595c0.287-1.5,0.431-3.78,0.431-6.843v-8.156h18.544v1.781
		h-16.732v6.188C132.628,119.033,132.456,121.598,132.11,123.346L132.11,123.346z M131.248,154.594l1.293-1.125l4.485,5.344
		l-1.38,1.313L131.248,154.594z M131.42,192.501v-20.813h15.353v20.813h-1.812v-1.594h-11.73v1.594H131.42z M133.231,173.562v6.845
		h11.73v-6.845H133.231z M133.231,182.188v7.031h11.73v-7.031H133.231z M133.835,115.189v-1.781h15.525v1.781h-6.296v10.031
		c0.057,2-0.92,3-2.932,3c-1.035,0.062-2.1,0.095-3.191,0.095c0-0.438-0.116-1.095-0.345-1.97c0.574,0.062,1.523,0.095,2.846,0.095
		c1.264,0.062,1.868-0.5,1.812-1.688v-9.563L133.835,115.189L133.835,115.189z M147.361,144.281V142.5h18.716v1.781h-8.453v5.531
		h7.59v1.78h-7.59v6.188h9.401v1.594h-20.527v-1.594h9.315v-6.188h-7.504v-1.78h7.504v-5.531H147.361z M169.938,186.032v-1.125
		h-6.037c-0.173,1.562-0.72,2.905-1.639,4.03c2.127,0.813,5.952,1.28,11.472,1.406c-0.345,0.688-0.604,1.28-0.776,1.781
		c-5.52-0.25-9.517-0.938-11.989-2.062c-1.266,0.998-3.566,1.905-6.9,2.719c-0.058-0.126-0.173-0.313-0.345-0.563
		c-0.23-0.501-0.431-0.876-0.604-1.125c2.989-0.625,5.031-1.187,6.124-1.688c-1.208-0.812-2.329-1.843-3.364-3.095l1.208-1.03
		c1.264,1.438,2.472,2.407,3.623,2.905c0.805-0.812,1.294-1.904,1.466-3.28h-6.986v-9.656h7.417v-2.344h-9.056v-1.595h19.579v1.595
		h-8.797c0,0.75-0.03,1.532-0.086,2.344h7.331v10.781h-1.641V186.032z M156.864,124.564c0,2.188-0.748,3.812-2.243,4.875
		l-0.776-0.845c1.035-0.812,1.581-2.03,1.639-3.655h-1.466v-3.095h2.846C156.864,122.348,156.864,123.252,156.864,124.564
		L156.864,124.564z M156.504,142.219c-0.289-0.938-0.748-2.094-1.38-3.469l1.811-0.469c0.287,0.75,0.776,1.875,1.466,3.375
		L156.504,142.219z M156.829,176.751v2.625h5.692c0.057-0.812,0.086-1.688,0.086-2.625H156.829z M162.349,183.407
		c0.115-0.75,0.172-1.624,0.172-2.625h-5.692v2.625H162.349z M164.16,180.782c0,1.001-0.03,1.875-0.086,2.625h5.865v-2.625H164.16z
		 M169.938,176.751h-5.692c0,0.813,0,1.688,0,2.625h5.692V176.751z M168.579,112.752v-1.688h2.587v-4.688h1.639v4.688h2.156v1.688
		h-2.156v4.125c0.632-0.375,1.294-0.687,1.984-0.938c0,0.876,0.028,1.5,0.086,1.875h14.231v1.5h-6.21v2.625h5.434v1.5h-5.434v2.905
		h0.086c1.898,0,4.024,0,6.383,0c-0.172,0.563-0.317,1.093-0.431,1.595c-2.243,0-4.399,0-6.469,0
		c-2.531-0.063-4.284-1.095-5.261-3.095c-0.461,1.313-1.294,2.593-2.501,3.845c-0.116-0.127-0.317-0.281-0.604-0.47
		c-0.289-0.25-0.518-0.438-0.69-0.562c1.898-1.812,2.933-4.28,3.105-7.406l1.553,0.281c-0.058,0.812-0.172,1.562-0.345,2.25
		c0.919,2.126,2.099,3.249,3.537,3.375v-6.844h-6.469v-1.5c-0.69,0.25-1.352,0.563-1.984,0.938v7.031
		c0.057,1.688-0.662,2.562-2.156,2.625c-0.576,0.062-1.121,0.094-1.639,0.094c-0.058-0.75-0.172-1.375-0.345-1.875
		c0.402,0,0.891,0,1.466,0c0.69,0.062,1.035-0.313,1.035-1.125v-6.094l-2.674,1.219l-0.172-1.969
		c0.287-0.125,0.776-0.312,1.466-0.563c0.574-0.249,1.035-0.437,1.38-0.562v-4.781h-2.588V112.752z M170.872,153.656v-1.594h9.315
		v-1.595h1.639v1.595h9.401v1.594h-8.28c2.07,2.125,4.916,3.595,8.539,4.406c-0.345,0.562-0.662,1.154-0.949,1.78
		c-4.14-1.438-7.044-3.219-8.711-5.344v6.188h-1.639V154.5c-1.783,2.125-4.657,3.999-8.625,5.625
		c-0.116-0.251-0.345-0.626-0.69-1.125c-0.172-0.251-0.288-0.438-0.345-0.562c3.506-1,6.353-2.594,8.539-4.781H170.872z
		 M170.7,141.844v-1.5h5.865v-2.062h1.639v2.062h5.606v-2.062h1.639v2.062h5.952v1.5h-5.952v1.219h-1.639v-1.219h-5.606v1.406
		h-1.639v-1.406H170.7z M189.588,145.5c-5.808,0.312-11.615,0.531-17.422,0.656l-0.345-1.594c6.842-0.062,12.649-0.281,17.422-0.656
		L189.588,145.5L189.588,145.5z M175.099,150.844c-0.634-1.062-1.294-2.094-1.984-3.094l1.466-0.844
		c0.172,0.25,0.431,0.625,0.776,1.125c0.574,0.812,1.005,1.438,1.293,1.875L175.099,150.844z M176.428,115.846v-8.438h10.954v8.438
		H176.428z M177.493,176.376v-1.781h2.243v-4.219h1.639v4.219h2.156v1.781h-2.156v4.875c0.229-0.124,0.574-0.249,1.035-0.375
		c0.459-0.188,0.804-0.312,1.035-0.375c0,0.688,0.028,1.313,0.086,1.875c-0.748,0.188-1.466,0.407-2.156,0.656v6.938
		c0,1.625-0.69,2.469-2.07,2.53c-0.634,0-1.237,0-1.812,0c-0.058-0.563-0.144-1.188-0.259-1.875
		c0.518,0.062,1.005,0.095,1.466,0.095c0.747,0.062,1.092-0.313,1.035-1.125v-6l-2.415,0.844l-0.172-1.969l2.587-0.75v-5.345
		H177.493L177.493,176.376z M178.066,108.814v2.063h7.676v-2.063H178.066z M178.066,112.283v2.063h7.676v-2.063H178.066z
		 M180.705,149.906c-0.403-0.938-0.892-1.906-1.466-2.906l1.553-0.656c0.172,0.313,0.431,0.782,0.776,1.406
		c0.287,0.625,0.518,1.125,0.69,1.5L180.705,149.906z M184.997,178.062c-0.058,0.127-0.144,0.188-0.259,0.188
		c-0.116-0.124-0.289-0.343-0.518-0.656c-0.23-0.312-0.403-0.53-0.518-0.655c2.012-2.125,3.479-4.375,4.399-6.75l1.811,0.28
		c-0.345,0.75-0.69,1.438-1.035,2.063h6.382v1.594l-2.329,3.188h3.708v7.031h1.466v1.594h-6.469
		c1.035,2.438,3.191,4.063,6.469,4.875c-0.172,0.313-0.403,0.75-0.69,1.313c-0.058,0.249-0.116,0.406-0.172,0.47
		c-3.394-1.188-5.578-3-6.555-5.438c-0.69,2.313-3.077,4.187-7.159,5.625c-0.058-0.188-0.202-0.47-0.431-0.845
		c-0.172-0.438-0.317-0.75-0.431-0.938c4.024-1.125,6.324-2.812,6.9-5.062h-6.296v-1.595h1.725v-6.282H184.997z M188.726,147.469
		c-0.633,0.75-1.668,1.907-3.105,3.469l-1.294-1.125c1.38-1.5,2.357-2.625,2.933-3.375L188.726,147.469L188.726,147.469z
		 M193.363,174.126h-5.434c-0.69,1.125-1.466,2.188-2.329,3.188h5.52L193.363,174.126z M186.549,178.907v5.438h3.364
		c0-0.124,0-0.375,0-0.75c0.057-0.375,0.086-0.655,0.086-0.844v-3.844H186.549z M195.002,178.907h-3.45v3.655
		c0,0.563-0.03,1.157-0.086,1.781h3.536V178.907z M195.367,115.377c-0.633,1.313-1.38,2.563-2.242,3.75
		c-0.058-0.249-0.145-0.656-0.259-1.219c-0.116-0.563-0.202-0.968-0.259-1.219c2.012-3,3.536-6.437,4.571-10.313l1.725,0.469
		c-0.058,0.25-0.172,0.625-0.345,1.125c-0.576,1.75-1.064,3.063-1.466,3.938v16.781h-1.725V115.377L195.367,115.377z
		 M197.488,154.594l1.293-1.125l4.485,5.344l-1.38,1.313L197.488,154.594z M204.51,123.346c-1.668,2.002-3.335,3.75-5.002,5.25
		c-0.23-0.25-0.69-0.688-1.38-1.312c1.839-1.438,3.478-3.094,4.916-4.969L204.51,123.346L204.51,123.346z M199.076,112.939v-1.688
		h2.674v-4.875h1.725v4.875h4.658v-4.875h1.725v4.875h2.846v1.688h-2.846v6.563h3.623v1.781h-15.267v-1.781h3.537v-6.563H199.076z
		 M201.79,185.657v-1.595h9.315v-1.594h1.639v1.594h9.401v1.595h-8.28c2.07,2.126,4.916,3.595,8.539,4.405
		c-0.345,0.563-0.662,1.156-0.949,1.781c-4.14-1.438-7.044-3.218-8.711-5.344v6.188h-1.639V186.5
		c-1.783,2.126-4.657,3.999-8.625,5.625c-0.116-0.25-0.345-0.625-0.69-1.125c-0.172-0.25-0.288-0.438-0.345-0.562
		c3.506-1,6.353-2.594,8.539-4.781L201.79,185.657L201.79,185.657z M201.618,173.845v-1.5h5.865v-2.062h1.639v2.062h5.606v-2.062
		h1.639v2.062h5.952v1.5h-5.952v1.22h-1.639v-1.22h-5.606v1.406h-1.639v-1.406H201.618z M220.506,177.501
		c-5.808,0.313-11.615,0.532-17.422,0.656l-0.345-1.595c6.842-0.062,12.649-0.28,17.423-0.655L220.506,177.501L220.506,177.501z
		 M203.475,112.939v6.563h4.658v-6.563H203.475z M206.017,182.845c-0.634-1.062-1.294-2.093-1.984-3.094l1.466-0.844
		c0.172,0.251,0.431,0.626,0.776,1.125c0.574,0.813,1.005,1.438,1.293,1.875L206.017,182.845z M212.1,128.596
		c-1.151-1.312-2.79-3.029-4.916-5.156l1.293-1.219c1.208,1.252,1.609,1.657,1.208,1.219c1.609,1.627,2.875,2.906,3.795,3.845
		L212.1,128.596z M211.623,181.907c-0.403-0.938-0.892-1.905-1.466-2.906l1.553-0.656c0.172,0.313,0.431,0.782,0.776,1.406
		c0.287,0.626,0.518,1.125,0.69,1.5L211.623,181.907z M212.566,146.719v-1.688h3.709v-3.844c-1.035,0.125-2.1,0.188-3.191,0.188
		c0-0.062-0.029-0.188-0.086-0.375c-0.058-0.562-0.145-0.999-0.259-1.312c1.954-0.062,4.628-0.22,8.021-0.47l0.259,1.595
		c-0.289,0-0.69,0.031-1.208,0.094c-0.862,0.126-1.524,0.188-1.984,0.188v3.938h3.623v1.688h-3.623v4.031h3.019v9.656h-1.553v-1.5
		h-4.485v1.5h-1.552v-9.656h3.019v-4.031L212.566,146.719L212.566,146.719z M214.809,152.438v5.063h4.485v-5.063H214.809z
		 M219.644,179.47c-0.633,0.75-1.668,1.907-3.105,3.47l-1.294-1.125c1.38-1.5,2.357-2.625,2.933-3.375L219.644,179.47
		L219.644,179.47z M218.274,121.939v-10.875h8.194v-4.875h1.811v4.875h8.28v10.781h-1.812v-1.219h-6.469v8.25h-1.811v-8.25H220
		v1.313H218.274z M220,112.846v5.906h6.469v-5.906H220z M221.537,144.094v-1.781h1.639v-3.938h1.725v3.938h5.175v-3.938h1.639v3.938
		h1.639v1.781h-1.639v16.594h-1.639v-1.78H224.9v1.78h-1.725v-16.594H221.537z M224.9,144.094v5.625h5.175v-5.625H224.9z
		 M224.9,151.406v6h5.175v-6H224.9z M227.802,184.157v-10.406h4.658c-1.035-1.249-1.783-2.124-2.243-2.625l1.466-0.938
		c0.977,1.002,1.782,1.938,2.415,2.813l-1.294,0.75h5.434c0.287-0.375,0.69-0.968,1.208-1.781c0.518-0.812,0.891-1.405,1.122-1.78
		l1.639,0.75c-0.23,0.438-0.72,1.125-1.466,2.062c-0.23,0.375-0.403,0.626-0.518,0.75h4.399v10.406h-7.504v2.625h9.488v1.688h-9.488
		v4.313h-1.725v-4.313h-9.574v-1.688h9.574v-2.625L227.802,184.157L227.802,184.157z M234.748,112.846h-6.469v5.906h6.469V112.846z
		 M229.527,175.438v2.813h5.865v-2.813H229.527z M229.527,179.751v2.813h5.865v-2.813H229.527z M242.896,175.438h-5.779v2.813h5.779
		V175.438z M237.117,179.751v2.813h5.779v-2.813H237.117z M237.889,160.688v-10.405h8.021v10.405h-1.639v-1.5h-4.744v1.5H237.889z
		 M239.527,151.969v5.719h4.744v-5.719H239.527z M239.958,147.562v-8.25h14.663v8.25H239.958z M241.526,111.908v-1.781h10.005
		c-0.517-1.25-1.006-2.375-1.466-3.375l1.897-0.469c0.114,0.25,0.315,0.688,0.604,1.313c0.402,1,0.718,1.75,0.949,2.25l-1.035,0.281
		h9.315v1.781h-3.709c-0.806,4.375-2.473,7.875-5.002,10.5c2.07,1.751,5.031,3.062,8.884,3.938
		c-0.403,0.688-0.776,1.344-1.121,1.969c-3.968-1.312-7.044-2.842-9.229-4.594c-1.783,1.563-4.802,3.155-9.056,4.781
		c-0.289-0.438-0.662-1.062-1.121-1.875c3.679-1.062,6.611-2.468,8.797-4.219c-2.531-2.813-4.17-6.312-4.917-10.5H241.526
		L241.526,111.908z M241.684,141v4.875h11.212V141H241.684z M247.046,111.908c0.747,3.75,2.299,6.844,4.658,9.281
		c2.299-2.312,3.765-5.405,4.398-9.281H247.046L247.046,111.908z M248.67,160.688v-10.405h8.021v10.312h-1.639v-1.405h-4.744v1.5
		h-1.638V160.688z M250.309,151.969v5.719h4.744v-5.719H250.309z M255.712,191.938c-1.841-0.188-2.876-1.28-3.105-3.28
		c0.172-2.124,1.208-3.281,3.105-3.47c1.954,0.188,3.019,1.346,3.191,3.47C258.73,190.657,257.666,191.751,255.712,191.938
		L255.712,191.938z M255.712,186.595c-1.093,0.126-1.697,0.813-1.812,2.063c0.115,1.062,0.719,1.654,1.812,1.781
		c1.149-0.127,1.782-0.719,1.897-1.781C257.494,187.408,256.861,186.721,255.712,186.595L255.712,186.595z M272.871,153.656
		c-0.116-2.438-1.323-4.031-3.623-4.781c1.898-0.75,2.875-2.156,2.933-4.219c-0.116-3.125-1.811-4.749-5.089-4.875
		c-2.875,0.062-4.657,1.626-5.347,4.688l1.897,0.656c0.401-2.312,1.581-3.5,3.536-3.562c1.84,0.062,2.817,1.094,2.933,3.094
		c-0.116,2.312-1.41,3.501-3.881,3.562c-0.345,0-0.633,0-0.862,0v1.688c0.229,0,0.747,0,1.552,0
		c2.472,0.126,3.795,1.313,3.968,3.563c0,2.625-1.294,3.938-3.881,3.938c-2.128,0-3.364-1.28-3.709-3.844l-1.983,0.562
		c0.69,3.312,2.644,4.969,5.865,4.969C270.801,158.906,272.698,157.094,272.871,153.656L272.871,153.656z M265.813,121.658v-1.594
		h9.315v-1.594h1.639v1.594h9.401v1.594h-8.28c2.07,2.126,4.916,3.595,8.539,4.406c-0.345,0.562-0.662,1.155-0.949,1.78
		c-4.14-1.438-7.044-3.218-8.711-5.344v6.188h-1.639v-6.188c-1.783,2.126-4.657,3.999-8.625,5.625
		c-0.116-0.25-0.345-0.625-0.69-1.125c-0.172-0.25-0.288-0.438-0.345-0.563c3.506-0.998,6.353-2.593,8.539-4.78L265.813,121.658
		L265.813,121.658z M265.641,109.846v-1.5h5.865v-2.063h1.639v2.063h5.606v-2.063h1.639v2.063h5.952v1.5h-5.952v1.219h-1.639v-1.219
		h-5.606v1.406h-1.639v-1.406H265.641z M284.53,113.502c-5.808,0.313-11.615,0.532-17.422,0.656l-0.345-1.594
		c6.842-0.062,12.649-0.281,17.423-0.656L284.53,113.502L284.53,113.502z M270.04,118.846c-0.634-1.062-1.294-2.093-1.984-3.094
		l1.466-0.844c0.172,0.25,0.431,0.625,0.776,1.125c0.574,0.813,1.005,1.438,1.293,1.875L270.04,118.846z M275.646,117.908
		c-0.403-0.938-0.892-1.906-1.466-2.906l1.553-0.656c0.172,0.313,0.431,0.782,0.776,1.406c0.287,0.625,0.518,1.125,0.69,1.5
		L275.646,117.908z M288.445,149.531c-0.058,6.25-1.927,9.437-5.606,9.562c-3.853-0.062-5.778-3.248-5.778-9.562
		c0.056-6.313,1.954-9.563,5.692-9.75C286.49,139.907,288.387,143.156,288.445,149.531L288.445,149.531z M286.461,149.531
		c0-5.438-1.265-8.124-3.795-8.063c-2.358,0.188-3.566,2.875-3.623,8.063c0,5.376,1.236,8.031,3.709,7.969
		C285.225,157.562,286.461,154.907,286.461,149.531L286.461,149.531z M283.667,115.471c-0.633,0.75-1.668,1.907-3.105,3.469
		l-1.294-1.125c1.38-1.5,2.357-2.625,2.933-3.375L283.667,115.471L283.667,115.471z M291.835,120.158v-10.406h4.657
		c-1.035-1.25-1.783-2.124-2.242-2.625l1.466-0.938c0.977,1,1.782,1.938,2.415,2.813l-1.294,0.75h5.434
		c0.287-0.375,0.69-0.968,1.208-1.781c0.518-0.812,0.891-1.406,1.122-1.781l1.639,0.75c-0.23,0.438-0.72,1.125-1.466,2.063
		c-0.23,0.375-0.403,0.625-0.518,0.75h4.399v10.406h-7.504v2.625h9.488v1.688h-9.488v4.312h-1.725v-4.312h-9.574v-1.688h9.574
		v-2.625L291.835,120.158L291.835,120.158z M313.08,145.969c-0.345,0.563-0.69,1.188-1.035,1.875
		c-1.266-0.688-2.415-1.344-3.45-1.969v1.5h-4.744v3.281h8.539v1.781h-8.539v5.155c0.115,1.938-0.834,2.906-2.846,2.906
		c-0.633,0.062-1.496,0.094-2.587,0.094c-0.058-0.626-0.173-1.282-0.345-1.969c0.518,0.062,1.294,0.094,2.329,0.094
		c1.15,0.062,1.695-0.438,1.639-1.5v-4.78h-8.97v-1.781h8.97v-3.281h-5.175v-1.5c-1.035,0.75-2.214,1.5-3.536,2.25
		c-0.345-0.688-0.69-1.28-1.035-1.781c4.6-2.188,7.935-4.937,10.005-8.25l1.983,0.281c-0.172,0.25-0.345,0.531-0.518,0.844
		C306.179,142.345,309.284,144.595,313.08,145.969L313.08,145.969z M299.021,154.688c-1.323,1.563-3.019,3.25-5.089,5.063
		c-0.058-0.063-0.144-0.157-0.259-0.281c-0.116-0.312-0.431-0.72-0.949-1.219c1.264-0.875,2.933-2.469,5.003-4.781L299.021,154.688
		L299.021,154.688z M293.561,111.439v2.813h5.865v-2.813H293.561z M293.561,115.752v2.813h5.865v-2.813H293.561z M308.335,145.688
		c-2.186-1.373-4.025-3.094-5.52-5.155c-1.496,1.938-3.364,3.655-5.606,5.155H308.335L308.335,145.688z M306.929,111.439h-5.779
		v2.813h5.779V111.439z M301.15,115.752v2.813h5.779v-2.813H301.15z M311.44,159.469c-0.288-0.251-0.69-0.626-1.208-1.125
		c-1.783-1.5-3.163-2.656-4.141-3.469l1.121-1.312c1.609,1.25,3.42,2.719,5.434,4.405L311.44,159.469z M317.538,127.939
		c-1.841-0.188-2.876-1.281-3.105-3.281c0.173-2.124,1.208-3.281,3.105-3.469c1.954,0.188,3.019,1.345,3.19,3.469
		C320.557,126.658,319.492,127.752,317.538,127.939L317.538,127.939z M317.538,122.596c-1.093,0.127-1.697,0.813-1.812,2.063
		c0.115,1.063,0.72,1.655,1.812,1.78c1.148-0.125,1.782-0.717,1.896-1.78C319.32,123.409,318.688,122.723,317.538,122.596
		L317.538,122.596z M316.839,147v-1.688h3.02v-3.845c-0.289,0-0.721,0-1.294,0c-0.575,0.063-1.035,0.095-1.381,0.095
		c-0.058-0.688-0.145-1.25-0.259-1.688c2.472-0.062,4.858-0.188,7.159-0.375l0.259,1.688c-0.345,0-0.834,0.031-1.466,0.094
		c-0.634,0-1.122,0.031-1.467,0.094v3.938h2.933V147h-2.933v2.906l0.775-0.656c0.287,0.312,0.719,0.782,1.295,1.406
		c0.573,0.688,1.034,1.219,1.38,1.594l-1.208,1.219c-0.288-0.375-0.689-0.875-1.207-1.5c-0.461-0.562-0.807-0.999-1.035-1.312
		v10.031h-1.552v-10.22c-0.69,2.188-1.611,4.188-2.761,6c-0.058-0.188-0.144-0.469-0.259-0.844c-0.229-0.5-0.375-0.875-0.431-1.125
		c1.321-1.875,2.415-4.374,3.276-7.5L316.839,147L316.839,147z M330.208,160.688v-7.78h-3.191v1.219h-1.553v-11.25h4.744v-4.594
		h1.639v4.594h4.743v11.25h-1.639v-1.219h-3.104v7.78H330.208z M327.017,144.562v6.656h3.191v-6.656H327.017z M329.588,123.814
		v-1.595h2.847v-14.906h15.181v14.906h2.847v1.595H329.588z M336.66,126.533c-2.587,1.125-4.543,1.875-5.864,2.25
		c-0.059-0.25-0.259-0.625-0.604-1.125c-0.115-0.25-0.202-0.407-0.26-0.469c2.646-0.813,5.089-1.719,7.332-2.719l0.862,1.5
		C337.781,126.032,337.293,126.22,336.66,126.533L336.66,126.533z M334.951,144.562h-3.104v6.656h3.104V144.562z M334.159,108.908
		v2.25h11.729v-2.25H334.159z M334.159,112.564v2.25h11.729v-2.25H334.159z M334.159,116.221v2.344h11.729v-2.344H334.159z
		 M334.159,119.877v2.344h11.729v-2.344H334.159z M349.339,128.596c-2.703-1.062-5.175-1.938-7.417-2.625l0.689-1.312
		c3.68,1.062,6.181,1.843,7.504,2.344L349.339,128.596z M347.001,156.562c0,2.188-0.748,3.812-2.242,4.875l-0.775-0.844
		c1.034-0.812,1.579-2.031,1.639-3.656h-1.467v-3.094h2.847C347.001,154.345,347.001,155.25,347.001,156.562L347.001,156.562z"/>
	<path fill="#FFFFFF" d="M57.297,56.583v-5.211h35.928v5.211H78.019v8.445h13.369v5.211H78.019v9.344h16.878v4.851H55.626v-4.851
		h17.045V70.24H59.303v-5.211h13.369v-8.445L57.297,56.583L57.297,56.583z M73.674,51.373c-0.559-2.156-1.394-4.43-2.506-6.828
		l5.515-1.078c0.109,0.242,0.276,0.66,0.501,1.258c1.003,2.516,1.671,4.313,2.005,5.391L73.674,51.373z M107.366,53.708
		c-1.002,1.438-2.23,2.757-3.676,3.953c-0.559-0.957-1.17-1.915-1.838-2.875c2.115-1.915,3.844-4.313,5.181-7.188l3.509,0.539
		c0,0.121-0.058,0.301-0.167,0.539c-0.225,0.359-0.559,0.96-1.002,1.797h2.674v-6.828h3.843v1.797h6.685v3.055h-6.685v1.977h5.348
		v3.773c-4.235,4.434-9.972,7.848-17.212,10.242c-0.781-1.676-1.394-2.875-1.838-3.594c0.109,0,0.334-0.059,0.668-0.18
		c2.673-0.719,4.566-1.375,5.682-1.977l-2.34-2.336l2.841-1.977c0.334,0.242,0.836,0.66,1.504,1.258
		c0.556,0.601,1.002,1.078,1.337,1.438c1.671-0.836,3.229-1.977,4.679-3.414L107.366,53.708L107.366,53.708z M139.618,62.154
		c-2.564-1.676-5.013-3.234-7.353-4.672c-1.449,0.84-3.175,1.617-5.181,2.336c3.898,3.117,9.134,5.453,15.708,7.008
		c-0.668,1.438-1.282,2.875-1.838,4.313c-2.118-0.719-4.01-1.438-5.682-2.156v8.445l1.838-1.078l2.339,2.875
		c-1.562,0.96-3.342,1.738-5.348,2.336c2.115,0.719,4.345,1.317,6.685,1.797l-2.339,3.414c-5.572-1.797-11.196-3.476-16.878-5.031
		c0,0.837,0,1.676,0,2.516c-3.12,0.478-6.462,1.078-10.026,1.797c-0.893,0.239-1.783,0.539-2.674,0.898l-1.671-3.414
		c1.002-0.719,1.446-1.617,1.337-2.695V69.88c-1.449,0.719-3.008,1.438-4.679,2.156c-0.446-1.316-1.115-2.695-2.005-4.133
		c8.131-2.754,14.426-6.407,18.883-10.961l2.674,0.18c0.444-0.238,1.112-0.477,2.005-0.719c0.556-0.238,1.559-0.657,3.008-1.258
		c-0.225-0.118-0.613-0.359-1.169-0.719c-0.781-0.359-1.951-1.078-3.509-2.156l2.339-2.875l6.183,3.414
		c1.337-1.078,2.562-2.274,3.676-3.594h-11.53v-3.594h16.042v3.773c-1.671,2.516-3.233,4.375-4.679,5.57l6.183,3.594L139.618,62.154
		z M131.095,68.982H112.88v1.977h18.215V68.982z M112.88,75.451h18.215v-2.156H112.88V75.451z M112.88,81.919l5.348-0.719
		l-0.167-0.18l1.504-2.695h-6.685V81.919z M123.91,63.232c0.109,0.242,0.277,0.719,0.501,1.438c0.109,0.601,0.222,1.078,0.334,1.438
		h4.846c-2.452-1.438-4.904-3.234-7.353-5.391c-1.337,1.679-3.566,3.476-6.684,5.391h5.18l-0.668-2.336L123.91,63.232z
		 M125.581,79.763c1.671,0.359,2.896,0.66,3.676,0.898c1.781-0.836,2.061-0.957,0.836-0.359c1.225-0.598,2.506-1.258,3.843-1.977
		h-14.037C121.236,78.567,123.129,79.044,125.581,79.763L125.581,79.763z M158.103,62.333c0.222,10.781-1.504,18.867-5.18,24.258
		c-0.893-0.96-2.23-2.277-4.011-3.953c1.671-2.633,2.729-5.329,3.175-8.086c0.556-2.516,0.835-6.527,0.835-12.039V45.982h36.43
		v5.211h-31.25L158.103,62.333L158.103,62.333z M159.774,61.974v-5.031h29.578v5.031h-11.363v17.25
		c0.222,4.313-1.896,6.528-6.35,6.648c-1.896,0-4.011,0-6.35,0c-0.112-0.359-0.28-1.199-0.501-2.516
		c-0.334-1.199-0.559-1.977-0.668-2.336c0.668,0,1.614,0,2.841,0c1.337,0.121,2.282,0.18,2.841,0.18
		c2.115,0.121,3.118-1.016,3.008-3.414V61.974H159.774z"/>
	<path fill="#FFFFFF" d="M264.18,30.287V28.13h8.37c0-0.062,0-0.125,0-0.188c0.116-0.312,0.174-0.687,0.174-1.125h2.703
		c0,0.126,0,0.313,0,0.563c-0.059,0.313-0.087,0.563-0.087,0.75h8.719v2.156h-8.37c1.104,1.813,4.068,2.845,8.893,3.094
		c-0.174,0.312-0.436,0.844-0.785,1.594c-0.174,0.437-0.32,0.75-0.436,0.938c-4.651-0.501-7.731-1.781-9.242-3.844
		c-1.279,1.875-4.447,3.281-9.504,4.219c-0.292-0.876-0.668-1.781-1.133-2.719c4.999-0.312,7.847-1.406,8.544-3.281H264.18z
		 M264.354,18.568v-2.25h5.057l-1.569-2.25l2.703-0.563c0.639,0.813,1.278,1.72,1.918,2.719l-0.349,0.094h3.662
		c0.057-0.125,0.174-0.312,0.349-0.563c0.813-1.125,1.308-1.875,1.482-2.25l2.79,0.563c-0.174,0.313-0.523,0.813-1.046,1.5
		c-0.233,0.313-0.407,0.563-0.523,0.75h4.97v2.25h-8.458v1.594h7.411v2.156h-7.411v1.688h8.98v2.156h-20.489v-2.156h8.894v-1.688
		h-7.237v-2.156h7.237v-1.594H264.354z M307.127,36.005c-2.849-1.313-5.726-2.47-8.632-3.469c0,0.625,0,1.28,0,1.969
		c-0.872,0.125-2.151,0.406-3.836,0.844c-0.641,0.125-1.105,0.218-1.395,0.281c-0.059,0-0.117,0.031-0.174,0.094
		c-0.523,0.125-1.105,0.343-1.744,0.656l-1.22-2.156c0.639-0.501,0.929-1.093,0.872-1.781V21.662
		c-0.117,0.063-0.292,0.157-0.523,0.281c-0.292,0.063-0.785,0.281-1.482,0.656c-0.292-0.75-0.669-1.562-1.133-2.438
		c4.766-1.812,8.079-4.031,9.939-6.656l3.051,0.188l-0.523,0.844c2.208,2.376,5.201,4.125,8.979,5.25
		c-0.116,0.25-0.292,0.656-0.522,1.219c-0.233,0.563-0.407,0.97-0.523,1.219c-0.813-0.312-1.541-0.593-2.18-0.844v7.594l1.308,1.406
		c-0.175,0.126-0.466,0.281-0.872,0.469c-0.522,0.375-1.337,0.844-2.44,1.406c1.395,0.563,2.79,1.063,4.185,1.5L307.127,36.005z
		 M299.542,17.912c0.349,0.876,0.61,1.688,0.785,2.438l-0.349,0.094h4.098c-1.977-1.062-3.72-2.468-5.231-4.219
		c-1.279,1.375-3.11,2.782-5.493,4.219h4.534c-0.059-0.312-0.204-0.75-0.436-1.313c-0.117-0.437-0.205-0.75-0.262-0.938
		L299.542,17.912L299.542,17.912z M293.438,22.412v1.594h10.114v-1.594H293.438z M293.438,25.787v1.688h10.114v-1.688H293.438z
		 M293.438,33.287c0.58-0.125,1.423-0.312,2.528-0.563c0.813-0.188,1.452-0.343,1.918-0.469l-2.354-0.938l1.046-1.875
		c0.755,0.25,1.801,0.625,3.139,1.125c0.755,0.313,1.336,0.532,1.744,0.656c0.406-0.249,0.988-0.593,1.744-1.031
		c0.523-0.312,0.929-0.563,1.22-0.75h-10.985V33.287z M315.374,18.943c-0.523,0.75-1.164,1.438-1.918,2.063
		c-0.292-0.5-0.61-0.999-0.959-1.5c1.103-0.999,2.005-2.25,2.703-3.75l1.831,0.281c0,0.063-0.03,0.157-0.087,0.281
		c-0.117,0.188-0.292,0.501-0.523,0.938h1.396v-3.563h2.005v0.938h3.486v1.594h-3.486v1.031h2.79v1.969
		c-2.21,2.313-5.203,4.094-8.98,5.344c-0.407-0.875-0.728-1.5-0.959-1.875c0.057,0,0.174-0.031,0.349-0.094
		c1.396-0.375,2.384-0.718,2.965-1.031l-1.222-1.219l1.482-1.031c0.174,0.126,0.436,0.344,0.785,0.656
		c0.29,0.313,0.522,0.563,0.696,0.75c0.872-0.437,1.686-1.031,2.441-1.781L315.374,18.943L315.374,18.943z M332.201,23.349
		c-1.338-0.875-2.616-1.688-3.837-2.438c-0.756,0.438-1.656,0.844-2.702,1.219c2.033,1.626,4.765,2.845,8.195,3.656
		c-0.35,0.75-0.67,1.5-0.959,2.25c-1.105-0.375-2.094-0.75-2.966-1.125v4.406l0.959-0.563l1.222,1.5
		c-0.814,0.501-1.743,0.907-2.79,1.219c1.104,0.375,2.268,0.687,3.486,0.938l-1.22,1.781c-2.907-0.938-5.842-1.813-8.807-2.625
		c0,0.437,0,0.875,0,1.313c-1.628,0.249-3.372,0.563-5.231,0.938c-0.466,0.125-0.93,0.281-1.395,0.469l-0.872-1.781
		c0.522-0.375,0.754-0.844,0.697-1.406v-5.72c-0.757,0.375-1.569,0.75-2.441,1.125c-0.233-0.687-0.582-1.406-1.046-2.156
		c4.242-1.437,7.527-3.343,9.852-5.719l1.396,0.094c0.231-0.125,0.581-0.249,1.047-0.375c0.29-0.125,0.812-0.343,1.569-0.656
		c-0.117-0.062-0.32-0.188-0.61-0.375c-0.407-0.188-1.018-0.563-1.831-1.125l1.221-1.5l3.227,1.781
		c0.698-0.563,1.337-1.187,1.918-1.875h-6.017v-1.875h8.37v1.969c-0.872,1.313-1.687,2.282-2.44,2.906l3.226,1.875L332.201,23.349z
		 M327.754,26.912h-9.503v1.031h9.503V26.912z M318.251,30.287h9.503v-1.125h-9.503V30.287z M318.251,33.662l2.79-0.375
		l-0.088-0.094l0.785-1.406h-3.487V33.662z M324.005,23.912c0.059,0.126,0.146,0.375,0.262,0.75c0.059,0.313,0.116,0.563,0.176,0.75
		h2.527c-1.278-0.75-2.559-1.688-3.837-2.813c-0.697,0.876-1.859,1.813-3.486,2.813h2.702L322,24.193L324.005,23.912z
		 M324.877,32.537c0.872,0.188,1.511,0.344,1.918,0.469c0.93-0.437,1.075-0.5,0.438-0.188c0.639-0.312,1.308-0.656,2.005-1.031
		h-7.324C322.61,31.913,323.598,32.162,324.877,32.537L324.877,32.537z M344.196,23.162c-0.641-0.312-1.309-0.5-2.005-0.563v8.438
		l2.79-1.875c0.174,1,0.29,1.969,0.349,2.906c-1.163,0.75-2.354,1.5-3.575,2.25c-0.059,0.062-0.174,0.155-0.349,0.281
		c-0.407,0.312-0.697,0.593-0.871,0.844l-1.57-2.063c0.523-0.563,0.785-1.219,0.785-1.969v-9.656h2.441v0.656l1.133-3.375h-2.615
		c-0.697,2.001-1.541,3.876-2.528,5.625c-0.059-0.188-0.232-0.563-0.522-1.125c-0.291-0.624-0.522-1.125-0.697-1.5
		c1.162-2.375,2.063-5.187,2.703-8.438l2.528,0.281c-0.233,1-0.495,1.969-0.785,2.906h4.186v2.25L344.196,23.162z M351.434,28.505
		c-0.641,2.813-2.559,5.375-5.755,7.688c-0.641-0.876-1.251-1.688-1.831-2.438c3.604-1.937,5.639-4.875,6.104-8.813
		c0.115-1.187,0.174-2.625,0.174-4.313h2.528c0,0.438-0.029,1.063-0.087,1.875c0,0.625,0,1.094,0,1.406
		c0.58,4.188,2.558,7.345,5.929,9.469c-0.64,0.812-1.221,1.625-1.743,2.438C354.136,33.88,352.362,31.444,351.434,28.505
		L351.434,28.505z M356.402,23.818c-0.407-0.188-1.076-0.375-2.005-0.563c-0.176-0.062-0.291-0.094-0.35-0.094l1.396-3.844h-6.017
		c-0.522,1.688-1.163,3.344-1.918,4.969c-0.349-0.188-0.872-0.469-1.568-0.844c-0.292-0.188-0.523-0.312-0.697-0.375
		c1.395-2.687,2.47-5.843,3.226-9.469l2.615,0.469c-0.232,0.938-0.494,1.844-0.784,2.719h7.585v2.531L356.402,23.818z"/>
</g>
</svg>
