<svg xmlns="http://www.w3.org/2000/svg" width="640" height="395" viewBox="0 -188.5 640 395" enable-background="new 0 -188.5 640 395"><g enable-background="new"><path fill="#FFCC19" d="M386.077 33.686h-3.232v-12.182c-1.181 1.104-2.571 1.921-4.175 2.45v-2.933c.844-.276 1.76-.799 2.749-1.57s1.668-1.669 2.036-2.697h2.622v16.932z"/><path fill="#fff" d="M56.403 142.875v-1.688h6.641c.459-.938.863-1.938 1.208-3l1.897.28c-.172.438-.431 1.031-.776 1.781-.172.438-.288.75-.345.938h11.385v1.688h-12.247c-.173.312-.432.75-.776 1.312l-.776 1.406h11.471v11.908c.057 1.875-.862 2.812-2.76 2.812h-3.278c0-.188-.058-.469-.172-.844-.058-.438-.116-.75-.172-.938h1.208c.747.062 1.322.094 1.725.094 1.207.062 1.753-.438 1.639-1.5v-1.5h-10.611v5.062h-1.725v-11.53c-1.035 1.188-2.156 2.344-3.364 3.469l-.862-1.781c2.816-2.499 4.944-5.155 6.382-7.969h-5.692zm.431-27.779c-.116-.188-.289-.437-.518-.75-.23-.312-.403-.563-.518-.75 2.875-2.124 5.089-4.594 6.642-7.406l1.811.469c-.172.313-.461.75-.862 1.313-.173.25-.289.438-.345.563h8.453v1.5l-2.587 2.813h5.175v7.594h-8.021c-1.035 3.563-4.054 6.343-9.057 8.344-.288-.563-.662-1.125-1.121-1.688 4.369-1.5 7.159-3.718 8.366-6.656h-6.124v-6.375l-1.294 1.029zm-.086 61.092v-1.78h11.299c1.035-1.5 1.926-2.906 2.674-4.22l1.812.656c-.116.127-.259.346-.432.656-.862 1.251-1.524 2.221-1.983 2.906h5.52v1.781h-4.228v5.719h5.175v1.875h-5.175v8.812h-1.897v-8.812h-6.469c.115 3.938-1.552 6.938-5.002 9-.403-.438-.862-.906-1.38-1.406 3.162-1.812 4.686-4.343 4.571-7.594h-5.434v-1.875h5.52v-5.719h-4.571v.001zm12.592-66.155h-7.417c-.69.876-1.524 1.813-2.501 2.813h7.332l2.586-2.813zm-9.487 4.406v4.406h4.917l.172-.844c.229-1.125.374-2.312.431-3.563l-5.52.001zm2.846 59.873c-.289-.375-.69-.938-1.208-1.688l-1.294-1.688 1.639-.75c.115.125.259.312.431.562.518.626 1.208 1.562 2.07 2.812l-1.638.752zm-1.035-27.124v2.625h10.609v-2.625h-10.609zm0 4.218v2.625h10.609v-2.625h-10.609zm1.466 24.782v5.72h6.382v-5.72h-6.382zm5.865-48.061c-1.897 0-2.846-.876-2.846-2.625v-4.219h1.725v3.75c-.058.999.518 1.468 1.725 1.406h3.191c1.035 0 1.639-.438 1.811-1.313.172-.812.287-1.781.345-2.906.574.188 1.149.345 1.725.47-.058.688-.172 1.47-.345 2.344-.058.375-.116.656-.173.844-.288 1.5-1.293 2.25-3.019 2.25h-4.139v-.001zm3.45-13.688h-5.348c-.116 1.438-.259 2.688-.431 3.75l-.086.656h5.865v-4.406zm7.641 77.123v-1.594h2.933v-18.375h14.921v18.375h3.019v1.594h-20.873zm1.639-70.466c-.345.126-.634.22-.863.281-.172-.563-.403-1.093-.69-1.594 3.623-.875 5.749-2.063 6.382-3.563h-4.916l.604-4.781h5.003v-1.969h-5.865v-1.406h5.951v-1.781h1.639v1.781h3.709v-1.781h1.639v1.781h5.089v4.781h-5.089v2.063h5.951c0 .25-.03.656-.086 1.219v.844c-.058 1.063-.662 1.626-1.812 1.688h-2.07c0-.062-.03-.155-.086-.281l-.259-.844c.229 0 .546.032.949.094h.863c.632.063.919-.218.862-.844.057-.188.086-.375.086-.563h-4.399v2.156h-1.639v-2.156h-4.313c-.345 1.188-1.065 2.156-2.156 2.906h11.471v5.625h-1.639v-4.219h-10.694v4.5h-1.725v-4.688c-.345.188-.978.439-1.897.751zm-1.553 22.06v-1.594h6.296c-.576-.875-1.266-1.75-2.07-2.625l1.639-.75c.574.75 1.35 1.75 2.329 3l-.776.375h4.917c.517-.625 1.236-1.562 2.156-2.813.172-.188.287-.343.345-.469l1.725.655-2.07 2.625h6.21v1.595l-20.701.001zm19.234-14.56c-.69-.25-1.668-.625-2.933-1.125-2.587-1-4.571-1.718-5.951-2.156-1.035 1.562-3.939 2.72-8.711 3.47-.172-.563-.431-1.157-.776-1.781 3.45-.438 5.75-1 6.9-1.688 1.208-.687 1.839-1.904 1.897-3.655h1.811c-.116.813-.259 1.563-.431 2.25.977.313 2.385.782 4.226 1.405 2.07.688 3.651 1.22 4.744 1.595l-.776 1.685zm-17.854 32.092v-15.188h9.056v12.375c.057 1.562-.719 2.344-2.329 2.344-.461.062-1.323.094-2.587.094 0-.625-.086-1.219-.259-1.78.402.062 1.208.094 2.415.094.805.062 1.178-.281 1.121-1.031v-2.25h-5.779v5.345h-1.638v-.003zm1.639-13.594v2.625h5.779v-2.625h-5.779zm0 4.125v2.625h5.779v-2.625h-5.779zm.432-38.373l-.259 2.063h3.623c.114-.624.172-1.313.172-2.063h-3.536zm1.207 60.436v4.5h11.298v-4.5h-11.298zm0 6.094v4.406h11.298v-4.406h-11.298zm0 6.094v4.5h11.298v-4.5h-11.298zm3.967-72.624c.057.75 0 1.438-.172 2.063h4.054v-2.063h-3.882zm.087-3.375v1.969h3.795v-1.969h-3.795zm4.398 46.717v-10.219h1.553v10.219h-1.553zm3.537 4.031c-.69.062-1.611.094-2.76.094 0-.188-.058-.5-.172-.938-.058-.375-.116-.688-.172-.938h1.035c.574.062 1.035.094 1.38.094 1.15.062 1.696-.469 1.639-1.594v-12h1.639v12.375c.113 1.937-.75 2.907-2.589 2.907zm1.035-50.748h-3.536v1.969h3.536v-1.969zm9.279 1.875c-.576.813-1.266 1.563-2.07 2.25-.23-.375-.518-.75-.863-1.125 1.322-1.062 2.385-2.375 3.191-3.938l1.293.375c-.172.375-.403.782-.69 1.219h1.897v-3.844h1.38v1.219h3.45v1.219h-3.45v1.406h2.932v1.406c-2.128 2.438-5.118 4.345-8.97 5.719-.172-.5-.403-.968-.69-1.406 1.437-.437 2.702-.938 3.795-1.5-.116-.188-.375-.437-.776-.75-.345-.375-.604-.624-.776-.75l.949-.844c.229.188.546.469.949.844.402.375.718.656.949.844.977-.624 1.926-1.406 2.847-2.344h-5.347zm16.733 4.218c-.576-.437-1.438-.999-2.587-1.688l-1.294-.844c-.92.562-2.013 1.062-3.277 1.5-.172-.249-.403-.563-.69-.938l-.259.281c2.587 2.376 5.779 4.063 9.574 5.063-.23.438-.489.938-.776 1.5-1.208-.375-2.272-.812-3.191-1.313v4.875c.345-.188.632-.375.863-.562l.862 1.125c-.058.062-.172.125-.345.188-1.151.75-2.1 1.219-2.846 1.406l1.811.562c1.035.313 1.782.563 2.243.75l-.69 1.219c-.518-.188-1.38-.469-2.588-.844-2.818-.938-4.946-1.562-6.382-1.875v1.406c-1.61.249-3.335.594-5.175 1.031-.058 0-.145.031-.259.094l-.776.281-.776-1.219c.518-.375.747-.877.69-1.5v-6.47c-.288.126-.776.344-1.466.656-.633.313-1.121.563-1.466.75-.058-.125-.23-.406-.518-.844-.173-.312-.289-.53-.345-.656 4.485-1.688 7.905-3.781 10.264-6.281l1.553.188-.173-.188c1.092-.375 1.984-.75 2.674-1.125-.403-.249-.547-.343-.431-.281-.92-.563-1.639-.999-2.156-1.313l.863-1.125 3.191 1.875c.919-.624 1.753-1.406 2.501-2.344h-6.383v-1.406h8.021v1.5c-.806 1.251-1.725 2.282-2.76 3.094.46.313 1.15.75 2.07 1.313l1.293.844-.864 1.315zm-19.234 38.092v-1.594h9.315v-1.595h1.639v1.595h9.401v1.594h-8.28c2.07 2.125 4.916 3.595 8.539 4.406-.345.562-.662 1.154-.949 1.78-4.14-1.438-7.044-3.219-8.711-5.344v6.188h-1.639v-6.186c-1.783 2.125-4.657 3.999-8.625 5.625-.116-.251-.345-.626-.69-1.125-.172-.251-.288-.438-.345-.562 3.506-1 6.353-2.594 8.539-4.781h-8.194zm-.259 29.751v-1.688h3.019l.949-5.719h14.145l-.173 5.719h2.933v1.688h-3.019l-.259 4.125h2.501v1.594h-2.588c-.116 2.25-1.293 3.375-3.536 3.375h-3.277c-.116-.313-.23-.813-.345-1.5-.058-.126-.086-.22-.086-.281.46.062 1.523.095 3.191.095 1.495.062 2.271-.502 2.329-1.688h-13.886l.862-5.719h-2.76zm.086-41.563v-1.5h5.865v-2.062h1.639v2.062h5.606v-2.062h1.639v2.062h5.952v1.5h-5.952v1.219h-1.639v-1.219h-5.606v1.406h-1.639v-1.406h-5.865zm4.744 31.813c-1.035 1.5-2.3 3-3.795 4.5-.116-.188-.289-.499-.518-.938-.172-.312-.316-.562-.431-.75 2.126-1.875 3.709-3.999 4.744-6.375l1.897.281c-.288.562-.604 1.125-.949 1.688h14.576v1.595h-15.524v-.001zm14.145-28.157c-5.808.312-11.615.531-17.422.656l-.345-1.594c6.842-.062 12.649-.281 17.423-.656l.344 1.594zm-14.49 5.344c-.634-1.062-1.294-2.094-1.984-3.094l1.466-.844.776 1.125c.574.812 1.005 1.438 1.293 1.875l-1.551.938zm11.385 36.688l.259-4.125h-11.558l-.69 4.125h11.989zm-10.436-9.937l-.604 4.125h11.299c.115-1.437.172-2.812.172-4.125h-10.867zm10.005-58.281h-10.264v1.313h10.264v-1.313zm-10.264 3.75h10.264v-1.406h-10.264v1.406zm5.262 1.782c1.495.438 2.587.75 3.277.938 1.149-.563 2.126-1.093 2.933-1.595h-11.471v2.72c.69-.25 2.242-.563 4.657-.938l-1.639-.469.604-1.125c.345.126.891.281 1.639.469zm.517-8.438l.345 1.781h3.623c-1.496-.938-2.99-2.063-4.485-3.375-1.093 1.125-2.501 2.25-4.227 3.375h3.623l-.345-1.5 1.466-.281zm.086 70.937c-.862-.874-1.783-1.718-2.76-2.53l.949-1.125c1.035.812 2.012 1.594 2.933 2.344l-1.122 1.311zm.345-5.907c-1.093-.998-2.042-1.78-2.846-2.344l.949-1.219c1.035.75 2.012 1.5 2.933 2.25l-1.036 1.313zm-1.294-31.532c-.403-.938-.892-1.906-1.466-2.906l1.553-.656.776 1.406.69 1.5-1.553.656zm8.022-2.437c-.633.75-1.668 1.907-3.105 3.469l-1.294-1.125c1.38-1.5 2.357-2.625 2.933-3.375l1.466 1.031zm9.624-24.123c-.345 1.752-1.035 3.5-2.07 5.25-.058-.062-.173-.156-.345-.281-.518-.438-.892-.781-1.121-1.03.919-1.5 1.523-3.03 1.811-4.595.287-1.5.431-3.78.431-6.843v-8.156h18.544v1.781h-16.732v6.188c0 3.373-.172 5.938-.518 7.686zm-.862 31.248l1.293-1.125 4.485 5.344-1.38 1.313-4.398-5.532zm.172 37.907v-20.813h15.353v20.813h-1.812v-1.594h-11.73v1.594h-1.811zm1.811-18.939v6.845h11.73v-6.845h-11.73zm0 8.626v7.031h11.73v-7.031h-11.73zm.604-66.999v-1.781h15.525v1.781h-6.296v10.031c.057 2-.92 3-2.932 3-1.035.062-2.1.095-3.191.095 0-.438-.116-1.095-.345-1.97.574.062 1.523.095 2.846.095 1.264.062 1.868-.5 1.812-1.688v-9.563h-7.419zm13.526 29.092v-1.781h18.716v1.781h-8.453v5.531h7.59v1.78h-7.59v6.188h9.401v1.594h-20.527v-1.594h9.315v-6.188h-7.504v-1.78h7.504v-5.531h-8.452zm22.577 41.751v-1.125h-6.037c-.173 1.562-.72 2.905-1.639 4.03 2.127.813 5.952 1.28 11.472 1.406-.345.688-.604 1.28-.776 1.781-5.52-.25-9.517-.938-11.989-2.062-1.266.998-3.566 1.905-6.9 2.719-.058-.126-.173-.313-.345-.563-.23-.501-.431-.876-.604-1.125 2.989-.625 5.031-1.187 6.124-1.688-1.208-.812-2.329-1.843-3.364-3.095l1.208-1.03c1.264 1.438 2.472 2.407 3.623 2.905.805-.812 1.294-1.904 1.466-3.28h-6.986v-9.656h7.417v-2.344h-9.056v-1.595h19.579v1.595h-8.797c0 .75-.03 1.532-.086 2.344h7.331v10.781h-1.641v.002zm-13.074-61.468c0 2.188-.748 3.812-2.243 4.875l-.776-.845c1.035-.812 1.581-2.03 1.639-3.655h-1.466v-3.095h2.846v2.72zm-.36 17.655c-.289-.938-.748-2.094-1.38-3.469l1.811-.469c.287.75.776 1.875 1.466 3.375l-1.897.563zm.325 34.532v2.625h5.692c.057-.812.086-1.688.086-2.625h-5.778zm5.52 6.656c.115-.75.172-1.624.172-2.625h-5.692v2.625h5.52zm1.811-2.625c0 1.001-.03 1.875-.086 2.625h5.865v-2.625h-5.779zm5.778-4.031h-5.692v2.625h5.692v-2.625zm-1.359-63.999v-1.688h2.587v-4.688h1.639v4.688h2.156v1.688h-2.156v4.125c.632-.375 1.294-.687 1.984-.938 0 .876.028 1.5.086 1.875h14.231v1.5h-6.21v2.625h5.434v1.5h-5.434v2.905h6.469c-.172.563-.317 1.093-.431 1.595h-6.469c-2.531-.063-4.284-1.095-5.261-3.095-.461 1.313-1.294 2.593-2.501 3.845-.116-.127-.317-.281-.604-.47-.289-.25-.518-.438-.69-.562 1.898-1.812 2.933-4.28 3.105-7.406l1.553.281c-.058.812-.172 1.562-.345 2.25.919 2.126 2.099 3.249 3.537 3.375v-6.844h-6.469v-1.5c-.69.25-1.352.563-1.984.938v7.031c.057 1.688-.662 2.562-2.156 2.625-.576.062-1.121.094-1.639.094-.058-.75-.172-1.375-.345-1.875h1.466c.69.062 1.035-.313 1.035-1.125v-6.094l-2.674 1.219-.172-1.969c.287-.125.776-.312 1.466-.563.574-.249 1.035-.437 1.38-.562v-4.781h-2.588v.001zm2.293 40.904v-1.594h9.315v-1.595h1.639v1.595h9.401v1.594h-8.28c2.07 2.125 4.916 3.595 8.539 4.406-.345.562-.662 1.154-.949 1.78-4.14-1.438-7.044-3.219-8.711-5.344v6.188h-1.639v-6.186c-1.783 2.125-4.657 3.999-8.625 5.625-.116-.251-.345-.626-.69-1.125-.172-.251-.288-.438-.345-.562 3.506-1 6.353-2.594 8.539-4.781h-8.194zm-.172-11.812v-1.5h5.865v-2.062h1.639v2.062h5.606v-2.062h1.639v2.062h5.952v1.5h-5.952v1.219h-1.639v-1.219h-5.606v1.406h-1.639v-1.406h-5.865zm18.888 3.656c-5.808.312-11.615.531-17.422.656l-.345-1.594c6.842-.062 12.649-.281 17.422-.656l.345 1.594zm-14.489 5.344c-.634-1.062-1.294-2.094-1.984-3.094l1.466-.844.776 1.125c.574.812 1.005 1.438 1.293 1.875l-1.551.938zm1.329-34.998v-8.438h10.954v8.438h-10.954zm1.065 60.53v-1.781h2.243v-4.219h1.639v4.219h2.156v1.781h-2.156v4.875c.229-.124.574-.249 1.035-.375.459-.188.804-.312 1.035-.375 0 .688.028 1.313.086 1.875-.748.188-1.466.407-2.156.656v6.938c0 1.625-.69 2.469-2.07 2.53h-1.812c-.058-.563-.144-1.188-.259-1.875.518.062 1.005.095 1.466.095.747.062 1.092-.313 1.035-1.125v-6l-2.415.844-.172-1.969 2.587-.75v-5.345h-2.242v.001zm.573-67.562v2.063h7.676v-2.063h-7.676zm0 3.469v2.063h7.676v-2.063h-7.676zm2.639 37.623c-.403-.938-.892-1.906-1.466-2.906l1.553-.656.776 1.406.69 1.5-1.553.656zm4.292 28.156c-.058.127-.144.188-.259.188-.116-.124-.289-.343-.518-.656-.23-.312-.403-.53-.518-.655 2.012-2.125 3.479-4.375 4.399-6.75l1.811.28c-.345.75-.69 1.438-1.035 2.063h6.382v1.594l-2.329 3.188h3.708v7.031h1.466v1.594h-6.469c1.035 2.438 3.191 4.063 6.469 4.875-.172.313-.403.75-.69 1.313-.058.249-.116.406-.172.47-3.394-1.188-5.578-3-6.555-5.438-.69 2.313-3.077 4.187-7.159 5.625-.058-.188-.202-.47-.431-.845-.172-.438-.317-.75-.431-.938 4.024-1.125 6.324-2.812 6.9-5.062h-6.296v-1.595h1.725v-6.282h.002zm3.729-30.593c-.633.75-1.668 1.907-3.105 3.469l-1.294-1.125c1.38-1.5 2.357-2.625 2.933-3.375l1.466 1.031zm4.637 26.657h-5.434c-.69 1.125-1.466 2.188-2.329 3.188h5.52l2.243-3.188zm-6.814 4.781v5.438h3.364v-.75c.057-.375.086-.655.086-.844v-3.844h-3.45zm8.453 0h-3.45v3.655c0 .563-.03 1.157-.086 1.781h3.536v-5.436zm.365-63.53c-.633 1.313-1.38 2.563-2.242 3.75-.058-.249-.145-.656-.259-1.219-.116-.563-.202-.968-.259-1.219 2.012-3 3.536-6.437 4.571-10.313l1.725.469c-.058.25-.172.625-.345 1.125-.576 1.75-1.064 3.063-1.466 3.938v16.781h-1.725v-13.312zm2.121 39.217l1.293-1.125 4.485 5.344-1.38 1.313-4.398-5.532zm7.022-31.248c-1.668 2.002-3.335 3.75-5.002 5.25-.23-.25-.69-.688-1.38-1.312 1.839-1.438 3.478-3.094 4.916-4.969l1.466 1.031zm-5.434-10.407v-1.688h2.674v-4.875h1.725v4.875h4.658v-4.875h1.725v4.875h2.846v1.688h-2.846v6.563h3.623v1.781h-15.267v-1.781h3.537v-6.563h-2.675zm2.714 72.718v-1.595h9.315v-1.594h1.639v1.594h9.401v1.595h-8.28c2.07 2.126 4.916 3.595 8.539 4.405-.345.563-.662 1.156-.949 1.781-4.14-1.438-7.044-3.218-8.711-5.344v6.188h-1.639v-6.187c-1.783 2.126-4.657 3.999-8.625 5.625-.116-.25-.345-.625-.69-1.125-.172-.25-.288-.438-.345-.562 3.506-1 6.353-2.594 8.539-4.781h-8.194zm-.172-11.812v-1.5h5.865v-2.062h1.639v2.062h5.606v-2.062h1.639v2.062h5.952v1.5h-5.952v1.22h-1.639v-1.22h-5.606v1.406h-1.639v-1.406h-5.865zm18.888 3.656c-5.808.313-11.615.532-17.422.656l-.345-1.595c6.842-.062 12.649-.28 17.423-.655l.344 1.594zm-17.031-64.562v6.563h4.658v-6.563h-4.658zm2.542 69.906c-.634-1.062-1.294-2.093-1.984-3.094l1.466-.844.776 1.125c.574.813 1.005 1.438 1.293 1.875l-1.551.938zm6.083-54.249c-1.151-1.312-2.79-3.029-4.916-5.156l1.293-1.219c1.208 1.252 1.609 1.657 1.208 1.219 1.609 1.627 2.875 2.906 3.795 3.845l-1.38 1.311zm-.477 53.311c-.403-.938-.892-1.905-1.466-2.906l1.553-.656.776 1.406.69 1.5-1.553.656zm.943-35.188v-1.688h3.709v-3.844c-1.035.125-2.1.188-3.191.188 0-.062-.029-.188-.086-.375-.058-.562-.145-.999-.259-1.312 1.954-.062 4.628-.22 8.021-.47l.259 1.595c-.289 0-.69.031-1.208.094-.862.126-1.524.188-1.984.188v3.938h3.623v1.688h-3.623v4.031h3.019v9.656h-1.553v-1.5h-4.485v1.5h-1.552v-9.656h3.019v-4.031l-3.709-.002zm2.243 5.719v5.063h4.485v-5.063h-4.485zm4.835 27.032c-.633.75-1.668 1.907-3.105 3.47l-1.294-1.125c1.38-1.5 2.357-2.625 2.933-3.375l1.466 1.03zm-1.37-57.531v-10.875h8.194v-4.875h1.811v4.875h8.28v10.781h-1.812v-1.219h-6.469v8.25h-1.811v-8.25h-6.467v1.313h-1.726zm1.726-9.093v5.906h6.469v-5.906h-6.469zm1.537 31.248v-1.781h1.639v-3.938h1.725v3.938h5.175v-3.938h1.639v3.938h1.639v1.781h-1.639v16.594h-1.639v-1.78h-5.176v1.78h-1.725v-16.594h-1.638zm3.363 0v5.625h5.175v-5.625h-5.175zm0 7.312v6h5.175v-6h-5.175zm2.902 32.751v-10.406h4.658c-1.035-1.249-1.783-2.124-2.243-2.625l1.466-.938c.977 1.002 1.782 1.938 2.415 2.813l-1.294.75h5.434c.287-.375.69-.968 1.208-1.781.518-.812.891-1.405 1.122-1.78l1.639.75c-.23.438-.72 1.125-1.466 2.062-.23.375-.403.626-.518.75h4.399v10.406h-7.504v2.625h9.488v1.688h-9.488v4.313h-1.725v-4.313h-9.574v-1.688h9.574v-2.625l-7.591-.001zm6.946-71.311h-6.469v5.906h6.469v-5.906zm-5.221 62.592v2.813h5.865v-2.813h-5.865zm0 4.313v2.813h5.865v-2.813h-5.865zm13.369-4.313h-5.779v2.813h5.779v-2.813zm-5.779 4.313v2.813h5.779v-2.813h-5.779zm.772-19.063v-10.405h8.021v10.405h-1.639v-1.5h-4.744v1.5h-1.638zm1.638-8.719v5.719h4.744v-5.719h-4.744zm.431-4.407v-8.25h14.663v8.25h-14.663zm1.568-35.654v-1.781h10.005c-.517-1.25-1.006-2.375-1.466-3.375l1.897-.469.604 1.313c.402 1 .718 1.75.949 2.25l-1.035.281h9.315v1.781h-3.709c-.806 4.375-2.473 7.875-5.002 10.5 2.07 1.751 5.031 3.062 8.884 3.938-.403.688-.776 1.344-1.121 1.969-3.968-1.312-7.044-2.842-9.229-4.594-1.783 1.563-4.802 3.155-9.056 4.781-.289-.438-.662-1.062-1.121-1.875 3.679-1.062 6.611-2.468 8.797-4.219-2.531-2.813-4.17-6.312-4.917-10.5h-3.795zm.158 29.092v4.875h11.212v-4.875h-11.212zm5.362-29.092c.747 3.75 2.299 6.844 4.658 9.281 2.299-2.312 3.765-5.405 4.398-9.281h-9.056zm1.624 48.78v-10.405h8.021v10.312h-1.639v-1.405h-4.744v1.5h-1.638v-.002zm1.639-8.719v5.719h4.744v-5.719h-4.744zm5.403 39.969c-1.841-.188-2.876-1.28-3.105-3.28.172-2.124 1.208-3.281 3.105-3.47 1.954.188 3.019 1.346 3.191 3.47-.173 1.999-1.237 3.093-3.191 3.28zm0-5.343c-1.093.126-1.697.813-1.812 2.063.115 1.062.719 1.654 1.812 1.781 1.149-.127 1.782-.719 1.897-1.781-.115-1.25-.748-1.937-1.897-2.063zm17.159-32.939c-.116-2.438-1.323-4.031-3.623-4.781 1.898-.75 2.875-2.156 2.933-4.219-.116-3.125-1.811-4.749-5.089-4.875-2.875.062-4.657 1.626-5.347 4.688l1.897.656c.401-2.312 1.581-3.5 3.536-3.562 1.84.062 2.817 1.094 2.933 3.094-.116 2.312-1.41 3.501-3.881 3.562h-.862v1.688h1.552c2.472.126 3.795 1.313 3.968 3.563 0 2.625-1.294 3.938-3.881 3.938-2.128 0-3.364-1.28-3.709-3.844l-1.983.562c.69 3.312 2.644 4.969 5.865 4.969 3.621-.189 5.518-2.001 5.691-5.439zm-7.058-31.998v-1.594h9.315v-1.594h1.639v1.594h9.401v1.594h-8.28c2.07 2.126 4.916 3.595 8.539 4.406-.345.562-.662 1.155-.949 1.78-4.14-1.438-7.044-3.218-8.711-5.344v6.188h-1.639v-6.188c-1.783 2.126-4.657 3.999-8.625 5.625-.116-.25-.345-.625-.69-1.125-.172-.25-.288-.438-.345-.563 3.506-.998 6.353-2.593 8.539-4.78l-8.194.001zm-.172-11.812v-1.5h5.865v-2.063h1.639v2.063h5.606v-2.063h1.639v2.063h5.952v1.5h-5.952v1.219h-1.639v-1.219h-5.606v1.406h-1.639v-1.406h-5.865zm18.889 3.656c-5.808.313-11.615.532-17.422.656l-.345-1.594c6.842-.062 12.649-.281 17.423-.656l.344 1.594zm-14.49 5.344c-.634-1.062-1.294-2.093-1.984-3.094l1.466-.844.776 1.125c.574.813 1.005 1.438 1.293 1.875l-1.551.938zm5.606-.938c-.403-.938-.892-1.906-1.466-2.906l1.553-.656.776 1.406.69 1.5-1.553.656zm12.799 31.623c-.058 6.25-1.927 9.437-5.606 9.562-3.853-.062-5.778-3.248-5.778-9.562.056-6.313 1.954-9.563 5.692-9.75 3.737.126 5.634 3.375 5.692 9.75zm-1.984 0c0-5.438-1.265-8.124-3.795-8.063-2.358.188-3.566 2.875-3.623 8.063 0 5.376 1.236 8.031 3.709 7.969 2.473.062 3.709-2.593 3.709-7.969zm-2.794-34.06c-.633.75-1.668 1.907-3.105 3.469l-1.294-1.125c1.38-1.5 2.357-2.625 2.933-3.375l1.466 1.031zm8.168 4.687v-10.406h4.657c-1.035-1.25-1.783-2.124-2.242-2.625l1.466-.938c.977 1 1.782 1.938 2.415 2.813l-1.294.75h5.434c.287-.375.69-.968 1.208-1.781.518-.812.891-1.406 1.122-1.781l1.639.75c-.23.438-.72 1.125-1.466 2.063-.23.375-.403.625-.518.75h4.399v10.406h-7.504v2.625h9.488v1.688h-9.488v4.312h-1.725v-4.312h-9.574v-1.688h9.574v-2.625l-7.591-.001zm21.245 25.811c-.345.563-.69 1.188-1.035 1.875-1.266-.688-2.415-1.344-3.45-1.969v1.5h-4.744v3.281h8.539v1.781h-8.539v5.155c.115 1.938-.834 2.906-2.846 2.906-.633.062-1.496.094-2.587.094-.058-.626-.173-1.282-.345-1.969.518.062 1.294.094 2.329.094 1.15.062 1.695-.438 1.639-1.5v-4.78h-8.97v-1.781h8.97v-3.281h-5.175v-1.5c-1.035.75-2.214 1.5-3.536 2.25-.345-.688-.69-1.28-1.035-1.781 4.6-2.188 7.935-4.937 10.005-8.25l1.983.281c-.172.25-.345.531-.518.844 2.414 3.126 5.519 5.376 9.315 6.75zm-14.059 8.719c-1.323 1.563-3.019 3.25-5.089 5.063l-.259-.281c-.116-.312-.431-.72-.949-1.219 1.264-.875 2.933-2.469 5.003-4.781l1.294 1.218zm-5.46-43.249v2.813h5.865v-2.813h-5.865zm0 4.313v2.813h5.865v-2.813h-5.865zm14.774 29.936c-2.186-1.373-4.025-3.094-5.52-5.155-1.496 1.938-3.364 3.655-5.606 5.155h11.126zm-1.406-34.249h-5.779v2.813h5.779v-2.813zm-5.779 4.313v2.813h5.779v-2.813h-5.779zm10.29 43.717c-.288-.251-.69-.626-1.208-1.125-1.783-1.5-3.163-2.656-4.141-3.469l1.121-1.312c1.609 1.25 3.42 2.719 5.434 4.405l-1.206 1.501zm6.098-31.53c-1.841-.188-2.876-1.281-3.105-3.281.173-2.124 1.208-3.281 3.105-3.469 1.954.188 3.019 1.345 3.19 3.469-.171 2-1.236 3.094-3.19 3.281zm0-5.343c-1.093.127-1.697.813-1.812 2.063.115 1.063.72 1.655 1.812 1.78 1.148-.125 1.782-.717 1.896-1.78-.114-1.25-.746-1.936-1.896-2.063zm-.699 24.404v-1.688h3.02v-3.845h-1.294c-.575.063-1.035.095-1.381.095-.058-.688-.145-1.25-.259-1.688 2.472-.062 4.858-.188 7.159-.375l.259 1.688c-.345 0-.834.031-1.466.094-.634 0-1.122.031-1.467.094v3.938h2.933v1.687h-2.933v2.906l.775-.656 1.295 1.406c.573.688 1.034 1.219 1.38 1.594l-1.208 1.219c-.288-.375-.689-.875-1.207-1.5-.461-.562-.807-.999-1.035-1.312v10.031h-1.552v-10.22c-.69 2.188-1.611 4.188-2.761 6l-.259-.844c-.229-.5-.375-.875-.431-1.125 1.321-1.875 2.415-4.374 3.276-7.5l-2.844.001zm13.369 13.688v-7.78h-3.191v1.219h-1.553v-11.25h4.744v-4.594h1.639v4.594h4.743v11.25h-1.639v-1.219h-3.104v7.78h-1.639zm-3.191-16.126v6.656h3.191v-6.656h-3.191zm2.571-20.748v-1.595h2.847v-14.906h15.181v14.906h2.847v1.595h-20.875zm7.072 2.719c-2.587 1.125-4.543 1.875-5.864 2.25-.059-.25-.259-.625-.604-1.125-.115-.25-.202-.407-.26-.469 2.646-.813 5.089-1.719 7.332-2.719l.862 1.5c-.345.062-.833.25-1.466.563zm-1.709 18.029h-3.104v6.656h3.104v-6.656zm-.792-35.654v2.25h11.729v-2.25h-11.729zm0 3.656v2.25h11.729v-2.25h-11.729zm0 3.657v2.344h11.729v-2.344h-11.729zm0 3.656v2.344h11.729v-2.344h-11.729zm15.18 8.719c-2.703-1.062-5.175-1.938-7.417-2.625l.689-1.312c3.68 1.062 6.181 1.843 7.504 2.344l-.776 1.593zm-2.338 27.966c0 2.188-.748 3.812-2.242 4.875l-.775-.844c1.034-.812 1.579-2.031 1.639-3.656h-1.467v-3.094h2.847l-.002 2.719zM57.297 56.583v-5.211h35.928v5.211h-15.206v8.445h13.369v5.211h-13.369v9.344h16.878v4.851h-39.271v-4.851h17.045v-9.343h-13.368v-5.211h13.369v-8.445l-15.375-.001zm16.377-5.21c-.559-2.156-1.394-4.43-2.506-6.828l5.515-1.078c.109.242.276.66.501 1.258 1.003 2.516 1.671 4.313 2.005 5.391l-5.515 1.257zm33.692 2.335c-1.002 1.438-2.23 2.757-3.676 3.953-.559-.957-1.17-1.915-1.838-2.875 2.115-1.915 3.844-4.313 5.181-7.188l3.509.539c0 .121-.058.301-.167.539-.225.359-.559.96-1.002 1.797h2.674v-6.828h3.843v1.797h6.685v3.055h-6.685v1.977h5.348v3.773c-4.235 4.434-9.972 7.848-17.212 10.242-.781-1.676-1.394-2.875-1.838-3.594.109 0 .334-.059.668-.18 2.673-.719 4.566-1.375 5.682-1.977l-2.34-2.336 2.841-1.977c.334.242.836.66 1.504 1.258l1.337 1.438c1.671-.836 3.229-1.977 4.679-3.414l-9.193.001zm32.252 8.446c-2.564-1.676-5.013-3.234-7.353-4.672-1.449.84-3.175 1.617-5.181 2.336 3.898 3.117 9.134 5.453 15.708 7.008-.668 1.438-1.282 2.875-1.838 4.313-2.118-.719-4.01-1.438-5.682-2.156v8.445l1.838-1.078 2.339 2.875c-1.562.96-3.342 1.738-5.348 2.336 2.115.719 4.345 1.317 6.685 1.797l-2.339 3.414c-5.572-1.797-11.196-3.476-16.878-5.031v2.516c-3.12.478-6.462 1.078-10.026 1.797-.893.239-1.783.539-2.674.898l-1.671-3.414c1.002-.719 1.446-1.617 1.337-2.695v-10.963c-1.449.719-3.008 1.438-4.679 2.156-.446-1.316-1.115-2.695-2.005-4.133 8.131-2.754 14.426-6.407 18.883-10.961l2.674.18c.444-.238 1.112-.477 2.005-.719.556-.238 1.559-.657 3.008-1.258-.225-.118-.613-.359-1.169-.719-.781-.359-1.951-1.078-3.509-2.156l2.339-2.875 6.183 3.414c1.337-1.078 2.562-2.274 3.676-3.594h-11.53v-3.594h16.042v3.773c-1.671 2.516-3.233 4.375-4.679 5.57l6.183 3.594-2.339 3.596zm-8.523 6.828h-18.215v1.977h18.215v-1.977zm-18.215 6.469h18.215v-2.156h-18.215v2.156zm0 6.468l5.348-.719-.167-.18 1.504-2.695h-6.685v3.594zm11.03-18.687c.109.242.277.719.501 1.438.109.601.222 1.078.334 1.438h4.846c-2.452-1.438-4.904-3.234-7.353-5.391-1.337 1.679-3.566 3.476-6.684 5.391h5.18l-.668-2.336 3.844-.54zm1.671 16.531c1.671.359 2.896.66 3.676.898 1.781-.836 2.061-.957.836-.359 1.225-.598 2.506-1.258 3.843-1.977h-14.037c1.337.242 3.23.719 5.682 1.438zm32.522-17.43c.222 10.781-1.504 18.867-5.18 24.258-.893-.96-2.23-2.277-4.011-3.953 1.671-2.633 2.729-5.329 3.175-8.086.556-2.516.835-6.527.835-12.039v-16.531h36.43v5.211h-31.25l.001 11.14zm1.671-.359v-5.031h29.578v5.031h-11.363v17.25c.222 4.313-1.896 6.528-6.35 6.648h-6.35c-.112-.359-.28-1.199-.501-2.516-.334-1.199-.559-1.977-.668-2.336h2.841c1.337.121 2.282.18 2.841.18 2.115.121 3.118-1.016 3.008-3.414v-15.812h-13.036zM264.18 30.287v-2.157h8.37v-.188c.116-.312.174-.687.174-1.125h2.703v.563c-.059.313-.087.563-.087.75h8.719v2.156h-8.37c1.104 1.813 4.068 2.845 8.893 3.094-.174.312-.436.844-.785 1.594-.174.437-.32.75-.436.938-4.651-.501-7.731-1.781-9.242-3.844-1.279 1.875-4.447 3.281-9.504 4.219-.292-.876-.668-1.781-1.133-2.719 4.999-.312 7.847-1.406 8.544-3.281h-7.846zm.174-11.719v-2.25h5.057l-1.569-2.25 2.703-.563c.639.813 1.278 1.72 1.918 2.719l-.349.094h3.662c.057-.125.174-.312.349-.563.813-1.125 1.308-1.875 1.482-2.25l2.79.563c-.174.313-.523.813-1.046 1.5-.233.313-.407.563-.523.75h4.97v2.25h-8.458v1.594h7.411v2.156h-7.411v1.688h8.98v2.156h-20.489v-2.156h8.894v-1.688h-7.237v-2.156h7.237v-1.594h-8.371zm42.773 17.437c-2.849-1.313-5.726-2.47-8.632-3.469v1.969c-.872.125-2.151.406-3.836.844-.641.125-1.105.218-1.395.281-.059 0-.117.031-.174.094-.523.125-1.105.343-1.744.656l-1.22-2.156c.639-.501.929-1.093.872-1.781v-10.781l-.523.281c-.292.063-.785.281-1.482.656-.292-.75-.669-1.562-1.133-2.438 4.766-1.812 8.079-4.031 9.939-6.656l3.051.188-.523.844c2.208 2.376 5.201 4.125 8.979 5.25-.116.25-.292.656-.522 1.219-.233.563-.407.97-.523 1.219-.813-.312-1.541-.593-2.18-.844v7.594l1.308 1.406c-.175.126-.466.281-.872.469-.522.375-1.337.844-2.44 1.406 1.395.563 2.79 1.063 4.185 1.5l-1.135 2.249zm-7.585-18.093c.349.876.61 1.688.785 2.438l-.349.094h4.098c-1.977-1.062-3.72-2.468-5.231-4.219-1.279 1.375-3.11 2.782-5.493 4.219h4.534c-.059-.312-.204-.75-.436-1.313-.117-.437-.205-.75-.262-.938l2.354-.281zm-6.104 4.5v1.594h10.114v-1.594h-10.114zm0 3.375v1.688h10.114v-1.688h-10.114zm0 7.5c.58-.125 1.423-.312 2.528-.563.813-.188 1.452-.343 1.918-.469l-2.354-.938 1.046-1.875c.755.25 1.801.625 3.139 1.125.755.313 1.336.532 1.744.656.406-.249.988-.593 1.744-1.031.523-.312.929-.563 1.22-.75h-10.985v3.845zm21.936-14.344c-.523.75-1.164 1.438-1.918 2.063-.292-.5-.61-.999-.959-1.5 1.103-.999 2.005-2.25 2.703-3.75l1.831.281c0 .063-.03.157-.087.281-.117.188-.292.501-.523.938h1.396v-3.563h2.005v.938h3.486v1.594h-3.486v1.031h2.79v1.969c-2.21 2.313-5.203 4.094-8.98 5.344-.407-.875-.728-1.5-.959-1.875.057 0 .174-.031.349-.094 1.396-.375 2.384-.718 2.965-1.031l-1.222-1.219 1.482-1.031c.174.126.436.344.785.656l.696.75c.872-.437 1.686-1.031 2.441-1.781l-4.795-.001zm16.827 4.406c-1.338-.875-2.616-1.688-3.837-2.438-.756.438-1.656.844-2.702 1.219 2.033 1.626 4.765 2.845 8.195 3.656-.35.75-.67 1.5-.959 2.25-1.105-.375-2.094-.75-2.966-1.125v4.406l.959-.563 1.222 1.5c-.814.501-1.743.907-2.79 1.219 1.104.375 2.268.687 3.486.938l-1.22 1.781c-2.907-.938-5.842-1.813-8.807-2.625v1.313c-1.628.249-3.372.563-5.231.938-.466.125-.93.281-1.395.469l-.872-1.781c.522-.375.754-.844.697-1.406v-5.72c-.757.375-1.569.75-2.441 1.125-.233-.687-.582-1.406-1.046-2.156 4.242-1.437 7.527-3.343 9.852-5.719l1.396.094c.231-.125.581-.249 1.047-.375.29-.125.812-.343 1.569-.656-.117-.062-.32-.188-.61-.375-.407-.188-1.018-.563-1.831-1.125l1.221-1.5 3.227 1.781c.698-.563 1.337-1.187 1.918-1.875h-6.017v-1.875h8.37v1.969c-.872 1.313-1.687 2.282-2.44 2.906l3.226 1.875-1.221 1.875zm-4.447 3.563h-9.503v1.031h9.503v-1.031zm-9.503 3.375h9.503v-1.125h-9.503v1.125zm0 3.375l2.79-.375-.088-.094.785-1.406h-3.487v1.875zm5.754-9.75c.059.126.146.375.262.75.059.313.116.563.176.75h2.527c-1.278-.75-2.559-1.688-3.837-2.813-.697.876-1.859 1.813-3.486 2.813h2.702l-.349-1.219 2.005-.281zm.872 8.625c.872.188 1.511.344 1.918.469.93-.437 1.075-.5.438-.188.639-.312 1.308-.656 2.005-1.031h-7.324c.696.126 1.684.375 2.963.75zm19.319-9.375c-.641-.312-1.309-.5-2.005-.563v8.438l2.79-1.875c.174 1 .29 1.969.349 2.906-1.163.75-2.354 1.5-3.575 2.25-.059.062-.174.155-.349.281-.407.312-.697.593-.871.844l-1.57-2.063c.523-.563.785-1.219.785-1.969v-9.656h2.441v.656l1.133-3.375h-2.615c-.697 2.001-1.541 3.876-2.528 5.625-.059-.188-.232-.563-.522-1.125l-.697-1.5c1.162-2.375 2.063-5.187 2.703-8.438l2.528.281c-.233 1-.495 1.969-.785 2.906h4.186v2.25l-1.398 4.127zm7.238 5.343c-.641 2.813-2.559 5.375-5.755 7.688-.641-.876-1.251-1.688-1.831-2.438 3.604-1.937 5.639-4.875 6.104-8.813.115-1.187.174-2.625.174-4.313h2.528c0 .438-.029 1.063-.087 1.875v1.406c.58 4.188 2.558 7.345 5.929 9.469-.64.812-1.221 1.625-1.743 2.438-2.617-1.937-4.391-4.373-5.319-7.312zm4.968-4.687c-.407-.188-1.076-.375-2.005-.563-.176-.062-.291-.094-.35-.094l1.396-3.844h-6.017c-.522 1.688-1.163 3.344-1.918 4.969l-1.568-.844c-.292-.188-.523-.312-.697-.375 1.395-2.687 2.47-5.843 3.226-9.469l2.615.469c-.232.938-.494 1.844-.784 2.719h7.585v2.531l-1.483 4.501z"/></g></svg>