<?xml version="1.0" encoding="utf-8"?>
<!-- Generator: Adobe Illustrator 16.0.0, SVG Export Plug-In . SVG Version: 6.00 Build 0)  -->
<!DOCTYPE svg PUBLIC "-//W3C//DTD SVG 1.1//EN" "http://www.w3.org/Graphics/SVG/1.1/DTD/svg11.dtd">
<svg version="1.1" id="图层_1" xmlns="http://www.w3.org/2000/svg" xmlns:xlink="http://www.w3.org/1999/xlink" x="0px" y="0px"
	 width="640px" height="174.5px" viewBox="0 0 640 174.5" enable-background="new 0 0 640 174.5" xml:space="preserve">
<path fill="#FFFFFF" d="M30.987,134.975v-5.467h37.199v5.467H30.987z M89.86,147.738c-4.492,0.552-9.491,1.326-15.002,2.318
	l-0.766-4.641c0.407-0.107,1.019-0.22,1.837-0.331c2.55-0.331,4.49-0.606,5.817-0.829c1.428-5.742,2.652-11.49,3.674-17.236
	l4.286,0.996c-0.715,2.432-1.736,6.354-3.062,11.767c-0.512,1.769-0.868,3.095-1.072,3.978l4.439-0.662
	C89.911,144.426,89.86,145.971,89.86,147.738L89.86,147.738z M74.552,125.364v-4.642h15.92v4.642H74.552z M77.767,141.606
	c-0.715-4.749-1.531-9.335-2.449-13.757l3.827-0.828c0.612,3.095,1.478,7.625,2.603,13.591L77.767,141.606z M81.134,120.393
	c-0.103-0.44-0.306-1.215-0.612-2.32c-0.612-1.989-1.071-3.423-1.377-4.309l4.592-0.83c0.101,0.442,0.306,1.16,0.612,2.154
	c0.51,1.77,0.918,3.206,1.225,4.309L81.134,120.393z M91.237,152.545v-20.552h6.276V113.1h4.592v7.125h9.185v4.476h-9.185v7.292
	h7.654v20.551h-4.286v-2.484h-9.951v2.484h-4.285V152.545z M95.523,136.471v9.279h9.951v-9.279H95.523z M118.577,135.141v-4.475
	h17.451v4.475h-6.43v9.115c0.918-0.106,2.244-0.272,3.98-0.496c1.837-0.221,3.162-0.387,3.98-0.498c0,1.549,0,3.097,0,4.643
	c-5.817,0.552-12.299,1.324-19.441,2.318l-0.918-4.475c0.918-0.107,2.296-0.273,4.133-0.497c1.631-0.108,2.856-0.221,3.674-0.332
	v-9.778H118.577L118.577,135.141z M117.504,125.53v-4.642h19.9c-0.206-3.535-0.306-6.131-0.306-7.789h4.746
	c0,3.314,0.05,5.912,0.153,7.789h11.94v4.642h-11.634c0,0.332,0,0.663,0,0.995c0.509,7.953,1.581,14.031,3.214,18.23
	c0.612,1.547,1.428,2.319,2.45,2.319c0.815,0,1.325-0.606,1.531-1.823c0.406-1.878,0.765-3.978,1.071-6.298
	c1.122,0.772,2.397,1.437,3.827,1.988c-0.306,2.319-0.766,4.641-1.378,6.961c-1.021,3.092-2.755,4.584-5.205,4.475
	c-2.858,0-5.154-2.319-6.889-6.961c-1.634-4.528-2.705-10.827-3.215-18.894c0-0.332,0-0.663,0-0.995L117.504,125.53L117.504,125.53z
	 M148.581,120.889c-1.634-1.988-3.114-3.646-4.439-4.972l3.214-2.485c0.51,0.554,1.325,1.383,2.45,2.485
	c1.019,1.106,1.734,1.88,2.143,2.32L148.581,120.889z M166.13,133.319c-1.124-1.214-2.808-2.817-5.051-4.806
	c0.203,0.223-0.053,0-0.766-0.664l2.909-3.313c0.918,0.774,2.244,1.88,3.98,3.313c0.918,0.774,1.581,1.326,1.99,1.658
	L166.13,133.319z M167.814,141.606c-1.328,5.194-2.196,8.839-2.603,10.938l-4.439-1.325c0.815-2.981,1.99-7.845,3.521-14.584
	c0.51,0.11,1.225,0.332,2.143,0.662c1.019,0.331,1.734,0.608,2.144,0.828C168.375,138.9,168.121,140.059,167.814,141.606
	L167.814,141.606z M167.048,122.215c-0.612-0.662-1.583-1.601-2.908-2.818c-1.225-1.213-2.196-2.098-2.909-2.651l2.755-3.313
	c0.612,0.554,1.734,1.492,3.368,2.816c1.225,0.995,2.144,1.77,2.756,2.32L167.048,122.215z M171.642,127.518
	c-0.306-0.439-0.766-1.049-1.378-1.822c-0.612-0.771-1.124-1.326-1.531-1.658c3.265-3.203,5.714-6.961,7.348-11.27l4.745,0.496
	c-0.206,0.332-0.459,0.83-0.765,1.492c-0.306,0.663-0.562,1.16-0.766,1.492h17.451v3.979h-19.594
	c-0.612,0.994-1.277,1.988-1.99,2.982h19.441c-0.103,0.555-0.153,2.155-0.153,4.807c-0.103,2.101-0.153,3.758-0.153,4.973h3.215
	v3.979h-3.215c-0.103,2.102-0.153,4.09-0.153,5.967h2.602v3.812h-2.755c-0.206,3.866-2.246,5.744-6.123,5.636h-6.124
	c-0.103-0.555-0.409-1.384-0.918-2.484c-0.103-0.555-0.206-0.94-0.306-1.16c1.938,0,3.928,0,5.97,0
	c1.938,0.107,3.009-0.555,3.215-1.989h-18.676l0.918-9.778h-3.062v-3.978h3.521l0.612-7.127L171.642,127.518z M189.857,142.932
	c0.101-1.215,0.153-3.205,0.153-5.967h-13.777l-0.612,5.967h8.113c-1.124-1.104-2.449-2.209-3.98-3.314l2.143-2.65
	c1.734,1.217,3.315,2.377,4.746,3.479l-2.143,2.485H189.857z M177.152,127.188l-0.612,5.801h7.654
	c-0.612-0.553-1.531-1.326-2.756-2.32c-0.612-0.552-1.071-0.938-1.377-1.16l2.296-2.32H177.152L177.152,127.188z M190.165,132.988
	c0-2.762,0-4.695,0-5.801h-7.501c0.713,0.441,1.684,1.16,2.909,2.154c0.612,0.553,1.072,0.939,1.378,1.159l-2.143,2.486
	L190.165,132.988L190.165,132.988z M203.878,150.555v-4.806h13.777v-32.317h5.205v11.602h14.696v4.973H222.86v15.744h17.451v4.809
	h-36.433V150.555z M254.025,131.828c0.203,9.062-1.072,16.076-3.827,21.049c-1.43-1.438-2.655-2.543-3.674-3.314
	c1.325-2.539,2.193-5.025,2.603-7.457c0.407-2.43,0.612-5.967,0.612-10.607V116.58h14.849c-0.306-1.326-0.612-2.486-0.918-3.48
	l5.358-0.332c0.306,1.106,0.612,2.377,0.918,3.812h13.471v4.145h-29.392V131.828L254.025,131.828z M282.345,150.889
	c-0.306,0.664-0.512,1.16-0.612,1.49c-5.614-0.771-10.103-2.045-13.471-3.812c-3.368,1.767-7.859,3.202-13.471,4.31
	c-0.512-1.438-1.175-2.875-1.99-4.31c4.999-0.663,8.673-1.437,11.022-2.32c-2.043-1.437-4.033-3.479-5.97-6.132h-2.449v-3.812h24.34
	v3.979c-1.94,2.32-4.186,4.311-6.736,5.967c2.959,0.887,6.479,1.438,10.563,1.657C283.264,148.456,282.854,149.45,282.345,150.889
	L282.345,150.889z M254.025,127.85v-3.978h5.205v-3.149h4.287v3.149h9.491v-3.149h4.133v3.149h5.97v3.978h-5.97v6.133H259.23v-6.133
	H254.025z M268.261,144.426c2.45-1.326,4.439-2.763,5.97-4.311H262.75C264.179,141.771,266.017,143.209,268.261,144.426
	L268.261,144.426z M263.517,127.85v2.818h9.491v-2.818H263.517z M293.15,152.711v-20.386c-0.306,0.772-0.818,1.823-1.531,3.147
	c-0.409,0.887-0.715,1.549-0.918,1.988c-0.103-0.662-0.256-1.601-0.459-2.816c-0.306-1.656-0.562-2.871-0.765-3.646
	c2.243-4.528,4.133-10.496,5.664-17.899l4.133,0.996c-0.612,2.65-1.277,5.194-1.99,7.623v30.993L293.15,152.711L293.15,152.711z
	 M300.192,152.711v-37.787h11.787v13.922h-7.652v3.812h6.582v3.979h-6.582v3.979h7.042v4.145h-7.042v7.955h-4.133L300.192,152.711
	L300.192,152.711z M304.326,119.066v5.635h4.133v-5.635H304.326z M326.062,150.555c-0.611,0.994-1.021,1.658-1.225,1.988
	c-2.449-1.656-4.493-3.205-6.124-4.641c-2.043,1.878-4.491,3.59-7.348,5.138c-0.612-1.217-1.433-2.597-2.449-4.144
	c3.062-1.104,5.408-2.374,7.041-3.812c-1.53-2.098-2.755-5.138-3.674-9.115l1.685-0.828h-1.988v-4.142h13.316v3.979
	c-0.918,4.09-2.246,7.459-3.98,10.108c1.529,1.326,3.469,2.433,5.816,3.314C326.93,148.844,326.572,149.561,326.062,150.555
	L326.062,150.555z M313.664,128.514v-4.145h7.348v-5.304h-7.348v-4.144h11.329v13.59L313.664,128.514L313.664,128.514z
	 M318.715,141.936c1.02-1.766,1.837-4.029,2.449-6.795h-5.205C316.572,137.906,317.491,140.174,318.715,141.936L318.715,141.936z"/>
</svg>
