<svg xmlns="http://www.w3.org/2000/svg" width="640" height="366" viewBox="0 -128.5 640 366" enable-background="new 0 -128.5 640 366"><path fill="#4CC2F8" d="M385.715 28.681v3.002h-11.329c.122-1.135.49-2.21 1.104-3.226.613-1.016 1.825-2.364 3.635-4.043 1.457-1.357 2.351-2.278 2.681-2.761.444-.667.667-1.327.667-1.979 0-.721-.193-1.275-.581-1.662-.388-.387-.922-.581-1.604-.581-.675 0-1.212.203-1.61.609-.397.407-.629 1.081-.689 2.024l-3.222-.322c.192-1.779.794-3.056 1.807-3.831 1.013-.774 2.277-1.162 3.796-1.162 1.664 0 2.972.449 3.923 1.346.95.897 1.426 2.013 1.426 3.347 0 .759-.136 1.482-.408 2.168-.271.687-.702 1.405-1.294 2.157-.392.499-1.097 1.216-2.115 2.151-1.021.936-1.666 1.557-1.938 1.864-.271.307-.492.605-.661.897h6.414v.002z"/><path fill="#fff" d="M67.615 119.22h-2.415v4.594h-1.725v-4.594h-7.935v-1.125l8.28-13.312h1.38v12.75h2.415v1.687zm-6.9 86.907c-.058 7.312-1.352 12.469-3.881 15.469-.288-.251-.72-.688-1.293-1.312 2.242-2.874 3.392-7.625 3.45-14.25v-.844h-2.76v-1.688h2.846v-4.219h1.725v4.219h4.83c0 2.813-.086 7-.258 12.563v1.688c-.116 2.25-1.065 3.343-2.847 3.281-.748.062-1.524.094-2.329.094 0-.126-.058-.375-.172-.75-.058-.626-.116-1.062-.172-1.312.69.062 1.38.094 2.07.094 1.149.124 1.725-.469 1.725-1.781.172-2.938.259-6.999.259-12.188h-3.191l-.002.936zm-.948-63.251c-.518 2.376-1.266 5.438-2.243 9.188-.748-.375-1.352-.594-1.811-.656.862-2.813 1.639-5.813 2.329-9l1.725.468zm2.846 45.407v-12.281h-3.708v13.688h-1.725v-15.469h6.641l.949-3.844h-8.711v-1.781h20.269v1.781h-9.66l-.949 3.844h9.487v12.563c0 1.812-.748 2.687-2.242 2.625-.23 0-.69.03-1.38.094h-1.122c-.058-.626-.172-1.282-.345-1.969.229.062.891.094 1.983.094.977.062 1.437-.345 1.38-1.219v-10.406h-3.795v12.281h-1.639v-12.281h-3.795v12.281l-1.638-.001zm.517-79.563c-.92 1.313-2.76 4.251-5.52 8.813h5.865v-9.656c0 .063-.058.188-.172.375-.058.186-.116.344-.173.468zm1.467 48.218c-2.243.062-3.335-1.125-3.278-3.562v-13.406h1.812v13.031c-.058 1.438.604 2.094 1.984 1.969h3.45c1.437.062 2.243-.499 2.415-1.688.172-.938.287-1.999.345-3.188.287.063.66.188 1.121.375l.776.281c-.173 1.376-.375 2.562-.604 3.562-.288 1.813-1.524 2.688-3.708 2.625h-4.313zm3.536-14.626c-.748-1.125-1.841-2.687-3.277-4.688-.403-.562-.69-.968-.863-1.219l1.38-1.219c.574.75 1.38 1.845 2.415 3.28l1.812 2.531-1.467 1.315zm-.259 78.815v-19.031h7.935v19.031h-1.725v-2.156h-4.485v2.156h-1.725zm1.725-17.25v13.406h4.485v-13.406h-4.485zm5.434-53.22c-1.265-3-2.473-5.688-3.623-8.063l1.639-.844c1.609 3.375 2.847 6 3.709 7.875l-1.725 1.032zm17.461-36.969c-.289.438-.489.75-.604.938-4.025-2.374-7.044-5.218-9.056-8.531-2.242 3.438-5.405 6.407-9.487 8.906-.172-.249-.461-.624-.863-1.125-.172-.312-.288-.499-.345-.563 4.887-2.937 8.28-6.281 10.177-10.031l1.984.281-.518.938c2.127 3.438 5.232 6.188 9.315 8.25-.116.187-.316.501-.603.937zm-12.908 90.189v-1.688h6.641c.459-.938.863-1.938 1.208-3l1.897.28c-.172.438-.431 1.031-.776 1.781-.173.438-.289.75-.345.938h11.385v1.688h-12.247c-.173.312-.432.75-.776 1.312l-.776 1.406h11.471v11.906c.057 1.875-.862 2.812-2.76 2.812h-3.278c0-.188-.058-.469-.172-.844-.058-.438-.116-.75-.172-.938h1.208c.747.062 1.322.094 1.725.094 1.208.062 1.753-.438 1.639-1.5v-1.5h-10.61v5.062h-1.725v-11.53c-1.035 1.188-2.156 2.344-3.364 3.469l-.862-1.78c2.816-2.5 4.944-5.156 6.382-7.97l-5.693.002zm.91-15.313v-1.595h2.933v-18.375h14.921v18.375h3.019v1.595h-20.873zm18.139-38.938l-1.466-1.406c-1.725 0-3.393.032-5.002.095v2.812h7.59v1.5h-7.59v2.625h9.488v1.594h-20.7v-1.594h9.488v-2.625h-7.59v-1.5h7.59v-2.719l-4.313.094c-.748 0-1.466.062-2.156.188l-.69-1.594.518-.281c.459-.188.805-.375 1.035-.562 1.092-.75 2.156-1.624 3.191-2.625h-4.14v-1.5h14.921v1.5h-8.28c-1.208 1.062-2.617 2.221-4.226 3.469.977 0 2.501-.062 4.571-.188 2.185-.062 3.795-.124 4.83-.188l-1.984-1.78 1.121-1.125c1.84 1.625 3.507 3.125 5.002 4.5l-1.208 1.31zm-17.009-23.938v-13.875h1.984v13.875h-1.984zm.018 16.438v-4.125h9.229c-.345-.75-.69-1.562-1.035-2.438l1.811-.469c.115.252.287.656.518 1.219.287.627.488 1.125.604 1.5l-.604.188h8.798v4.125h-1.725v-2.531h-15.87v2.531h-1.726zm3.204 66.063v2.625h10.609v-2.625h-10.609zm0 4.219v2.625h10.609v-2.625h-10.609zm.392-42.125v4.5h11.299v-4.5h-11.299zm0 6.094v4.406h11.299v-4.406h-11.299zm0 6.094v4.5h11.299v-4.5h-11.299zm12.81-75.158v-1.5h5.865l-1.553-2.063 1.553-.656c.919 1.001 1.581 1.813 1.983 2.438l-.604.281h4.399c.229-.375.604-.905 1.121-1.594.345-.499.574-.844.69-1.031l1.725.563c-.172.188-.431.532-.776 1.032-.345.438-.604.782-.776 1.031h5.606v1.5h-6.296v4.875h6.986v1.5h-20.613v-1.5h7.073v-4.875l-6.383-.001zm3.536 4.313c-.288-.437-1.064-1.343-2.329-2.719l1.208-.938c.977 1.001 1.753 1.845 2.329 2.531l-1.208 1.126zm-1.466 14.062v-9.938h15.094v9.938h-1.725v-1.031h-11.644v1.031h-1.725zm1.725-8.437v2.344h11.644v-2.344h-11.644zm0 3.75v2.25h11.644v-2.25h-11.644zm1.097 83.063v-1.5h2.587v-3.281h1.466v3.281h2.243v1.5h-2.243v3.375h2.76v1.5h-2.07v3.469h1.812v1.5h-1.812v4.594c1.15.562 2.847.844 5.089.844h3.278c3.45.062 5.778.062 6.986 0-.23.499-.403 1.062-.517 1.688h-10.091c-3.968 0-6.613-1.376-7.935-4.125-.23 1.5-.72 3.062-1.466 4.688-.116-.127-.289-.346-.518-.656l-.604-.656c.632-1.251 1.063-2.531 1.293-3.844.172-1.188.259-3.094.259-5.719l1.38.094c0 .5-.029 1.188-.086 2.062v1.594c.459 1.063.977 1.969 1.552 2.719v-8.25h-3.881v-1.5h3.105v-3.375h-2.587v-.002zm5.615-25.906c-1.093-1.125-2.186-2.156-3.277-3.094l1.121-1.313c.518.438 1.264 1.063 2.243 1.875.518.438.891.751 1.121.938l-1.208 1.594zm1.294 3.188c-.748 2.5-1.496 5.188-2.243 8.063l-1.811-.656c1.092-3.188 1.868-5.905 2.329-8.155.229.062.518.188.863.375.401.123.69.248.862.373zm-3.78-74.033v4.875h3.191v-4.875h-3.191zm3.349 64.845c-.576-.625-1.466-1.469-2.674-2.531-.289-.25-.489-.438-.604-.562l1.121-1.313c1.208.938 2.329 1.906 3.364 2.906l-1.207 1.5zm6.856-25.346c-.806 1.813-2.501 3.627-5.088 5.438-.116-.124-.317-.375-.604-.75-.345-.375-.575-.656-.69-.844 3.967-2.063 5.835-5.093 5.606-9.095v-.375h-6.124v16.22h-1.811v-18.095h7.935c.056-1.125.086-2.438.086-3.938h1.812v3.938h7.676v14.813c0 2-.949 3.031-2.847 3.095h-3.45c0-.063-.03-.221-.086-.47 0-.25-.086-.782-.259-1.594.805.062 1.84.094 3.105.094 1.208.062 1.782-.469 1.725-1.594v-12.47h-5.951c-.058.127-.086.252-.086.375 0 1.313-.144 2.502-.431 3.563h.086c2.472 2.188 4.369 3.97 5.692 5.345l-1.294 1.405c-2.358-2.435-4.025-4.122-5.002-5.061zm-6.778 54.815v-1.406h7.417v1.406h-1.035v12l1.294-.188c0 .5.028 1 .086 1.5l-1.38.28v3.375h-1.38v-3.188l-5.002.938-.259-1.688 1.38-.188v-12.844h-1.121v.003zm8.202-16.719v-9.469l-3.623 1.125v8.719c-.116 1.312.574 1.936 2.07 1.875h5.434c1.553.061 2.385-.438 2.501-1.5.172-.938.315-1.938.431-3l1.725.656c-.173 1.375-.375 2.531-.604 3.469-.345 1.5-1.496 2.217-3.45 2.156h-6.728c-2.128.061-3.163-.972-3.105-3.094v-8.72l-1.553.47-.345-1.688 1.897-.563v-5.438h1.725v4.875l3.623-1.126v-6.374h1.725v5.906l5.606-1.781c-.058 2.188-.145 4.719-.259 7.594 0 2-.72 3.031-2.156 3.094-.403.063-1.035.094-1.897.094 0-.188-.058-.5-.173-.938-.058-.438-.116-.75-.172-.938h1.553c.804.062 1.208-.471 1.208-1.595.114-2 .172-3.688.172-5.063l-3.881 1.221v10.031h-1.724v.002zm-5.701 16.719v3.188h2.501v-3.188h-2.501zm0 4.594v3.188h2.501v-3.188h-2.501zm0 8.062c.805-.125 1.639-.281 2.501-.469v-3.094h-2.501v3.563zm4.164-105.376l-2.501 2.719-1.121-1.031 1.121-1.219c.574-.687.977-1.155 1.208-1.406l1.293.937zm3.857 104.814c-.633 1.563-1.466 3.127-2.501 4.688-.288-.5-.604-.938-.949-1.313 1.035-1.562 1.926-3.343 2.674-5.344-.69-2-1.496-4.062-2.415-6.188l1.208-.47 1.812 4.595c.518-1.813.891-3.938 1.121-6.375h-3.795v-1.595h5.175v1.595c-.345 3.312-.892 6.125-1.639 8.438.747 1.875 1.408 3.656 1.984 5.344l-1.208.844c-.116-.375-.289-.904-.518-1.594-.461-1.125-.777-2-.949-2.625zm5.752-91.501c-1.035.938-1.927 1.938-2.674 3l-.862-1.781c1.208-1.249 2.098-2.156 2.674-2.719v-7.594h-2.415v-1.781h4.054v9.281c1.091 1.751 2.76 2.593 5.002 2.531 3.91.125 7.791.125 11.644 0-.058.249-.144.562-.259.938l-.258.844c-6.038 0-9.919-.032-11.644-.094-2.301 0-4.054-.876-5.262-2.625zm.69-13.313c-.633-.999-1.668-2.344-3.105-4.031l1.38-1.031c1.38 1.688 2.443 3 3.191 3.938l-1.466 1.124zm-.336 112.501v-18.281h2.329c.172-.624.401-1.531.69-2.719.114-.5.201-.844.259-1.031l1.811.281c-.345 1.375-.662 2.531-.949 3.469h4.054v18.094h-1.725v-1.781h-4.744v1.97l-1.725-.002zm1.725-16.594v5.625h4.744v-5.625h-4.744zm0 7.313v5.719h4.744v-5.719h-4.744zm11.635-90.095c-.518.062-1.179.094-1.984.094-.058-.563-.172-1.093-.345-1.594.574.062 1.149.094 1.725.094.977.063 1.437-.469 1.38-1.594v-.75h-4.054v3.469h-1.553v-3.469h-3.967v3.75h-1.639v-12.656h5.261l-1.035-.563c-1.266-.812-2.156-1.343-2.674-1.594l.949-1.125c.518.313 1.322.813 2.415 1.5.518.313.919.563 1.208.75l4.14-2.438h-10.609v-1.5h12.938v1.688l-5.089 3.094.345.188h4.916v9.938c.058 1.813-.719 2.718-2.328 2.718zm-5.963 64.001c-1.265 1.437-2.128 2.562-2.587 3.375l-1.035-1.875 1.38-1.5 1.38-1.5v-7.406h-2.674v-1.875h4.399v9.188c1.264 1.813 3.105 2.687 5.52 2.625 3.219.125 6.813.125 10.781 0l-.604 1.875c-4.946 0-8.452-.032-10.522-.094-2.588 0-4.601-.938-6.038-2.813zm-2.834-75.251v2.438h3.967v-2.438h-3.967zm0 3.75v2.344h3.967v-2.344h-3.967zm.219 32.469v-2.063h20.958v2.063h-20.958zm3.047 25.72c-.289-.5-.893-1.438-1.812-2.812-.461-.688-.776-1.188-.949-1.5l1.38-.938c1.15 1.625 2.127 3.031 2.933 4.218l-1.552 1.032zm7.438 48.5h-3.623c-.058-.251-.116-.626-.173-1.125-.116-.312-.172-.562-.172-.75h3.45c1.667.124 2.501-.688 2.501-2.438.173-5.563.259-9.594.259-12.094h-5.52c-.575 1.375-1.151 2.625-1.725 3.75-.461-.375-.949-.719-1.466-1.031 1.207-2.124 2.271-4.875 3.191-8.25l1.725.469c-.116.501-.317 1.188-.604 2.062-.23.563-.375.971-.432 1.22h6.642v1.5c-.116 5.813-.23 10.03-.345 12.655-.058 2.625-1.294 3.968-3.708 4.032zm4.464-36.125h-3.105c-.116-.625-.259-1.281-.431-1.969 1.035.062 2.04.094 3.019.094 1.437.063 2.156-.688 2.156-2.25.172-2.812.259-5.345.259-7.594h-5.52c-.058 5.562-1.783 9.656-5.175 12.281-.69-.75-1.151-1.219-1.38-1.406 3.22-2.25 4.83-5.875 4.83-10.875h-3.967v-1.781h4.054c0-.5.028-1.25.086-2.25v-1.97h1.725c0 1.813-.029 3.22-.086 4.22h7.245c0 .375-.029.969-.086 1.781-.058 3.688-.145 6.312-.259 7.875-.001 2.562-1.122 3.844-3.365 3.844zm-5.594-74.314h-4.054v2.438h4.054v-2.438zm-4.054 3.75v2.344h4.054v-2.344h-4.054zm3.717 100.126c-1.035-1.688-2.128-3.344-3.278-4.969l1.294-1.031c.172.25.459.625.862 1.125 1.092 1.562 1.954 2.812 2.588 3.75l-1.466 1.125zm10.809-100.501c-1.265-1.249-2.415-2.25-3.45-3l1.121-1.406c1.208.938 2.385 1.875 3.536 2.813l-1.207 1.593zm.432 5.063c-.69 2.688-1.208 4.781-1.553 6.281l-1.725-.563c.863-2.937 1.581-5.749 2.156-8.438l1.294.563c.172.063.287.094.345.094-.116.439-.288 1.125-.517 2.063zm.862-11.157c-1.208-1.062-2.415-2.063-3.623-3l1.121-1.313c1.208.813 2.415 1.751 3.623 2.813l-1.121 1.5zm-2.461 94.689v-1.781h18.803v1.781h-13.541l-.518 3.469h11.644l-.776 12.375h3.881v1.594h-20.183v-1.594h14.49l.258-3.938h-12.333l1.725-11.906h-3.45zm8.412-89.157c-.461 4.063-2.156 7.438-5.089 10.125-.116-.25-.345-.531-.69-.844l-.518-.563c2.588-2.187 4.14-5.093 4.658-8.719h-3.019v-1.688h4.657l.001 1.689zm6.079 94.313h-10.005l-.69 5.062h10.35l.345-5.062zm-5.389-82.501h-1.983c0-.126-.03-.313-.086-.563-.116-.562-.202-1.031-.259-1.406.402.062 1.005.094 1.811.094 1.035.062 1.523-.407 1.466-1.406v-13.031h-5.002v-1.688h6.642v1.594c.345 1.626.776 3.094 1.293 4.406.977-.999 2.185-2.344 3.623-4.031l1.294 1.313c-1.035 1.125-2.473 2.595-4.313 4.406 1.149 2.376 2.875 4.594 5.175 6.656-.23.251-.575.656-1.035 1.219.287-.375.229-.312-.172.188-2.818-2.499-4.773-5.499-5.865-9v8.438c.113 1.874-.749 2.811-2.589 2.811zm-3.986 45.345v-1.781h20.786v1.781h-3.277v15.375c.057 2.062-.949 3.094-3.019 3.094-.748.062-1.956.094-3.623.094 0-.25-.058-.625-.172-1.125-.058-.375-.086-.655-.086-.844 1.149.062 2.213.094 3.191.094 1.38.125 2.012-.5 1.897-1.875v-14.812h-15.697v-.001zm2.145-29.095v-1.781h4.485v-4.406h1.811v4.406h6.641v-4.406h1.812v4.406h4.485v1.781h-4.485v6.375h5.261v1.78h-20.787v-1.78h5.262v-6.375h-4.485zm7.849 11.063c-2.415 1.751-4.801 3.343-7.159 4.781-.461-.75-.862-1.313-1.208-1.688 2.645-1.373 5.003-2.905 7.073-4.594l1.294 1.501zm-7.751 32.751v-11.156h9.401v9.375h-7.676v1.781h-1.725zm5.797-78.439c-1.783-.812-3.708-1.624-5.778-2.438l.69-1.406c1.208.438 3.019 1.125 5.434 2.063-.116-.062.028 0 .431.188l-.777 1.593zm-4.072 68.876v6.188h5.865v-6.188h-5.865zm4.473-34.251v6.375h6.641v-6.375h-6.641zm11.903 15.75c-2.358-1.626-4.657-3.188-6.9-4.688l1.208-1.406c.919.563 2.271 1.471 4.054 2.72 1.264.75 2.213 1.344 2.846 1.78l-1.208 1.594zm-3.225 51.907v-1.781h9.919v1.781h-4.571c-1.035 2.812-2.07 5.375-3.105 7.688 1.035-.062 2.76-.219 5.175-.469-.518-1.313-1.035-2.656-1.552-4.031l1.38-.656c.401.877 1.005 2.282 1.811 4.219.402 1.063.718 1.845.949 2.345l-1.639.563-.259-.75c-.518.062-1.237.125-2.156.188-1.61.126-2.818.22-3.623.281-.288.062-.633.125-1.035.188-.289.062-.518.094-.69.094l-.69-1.594c.401-.249.776-.781 1.121-1.594 1.035-2.438 1.839-4.594 2.415-6.469h-3.45v-.003zm3.981-95.157c-1.093-1.125-2.186-2.156-3.277-3.094l1.121-1.313c.518.438 1.264 1.063 2.243 1.875.518.438.891.75 1.121.938l-1.208 1.594zm-3.032 88.689v-1.688h8.194v1.688h-8.194zm4.326-85.501c-.748 2.501-1.496 5.188-2.243 8.063l-1.811-.656c1.092-3.188 1.868-5.906 2.329-8.156.229.063.518.188.863.375.401.125.689.25.862.374zm-.432-9.188c-.576-.624-1.466-1.468-2.674-2.531-.289-.249-.489-.437-.604-.563l1.121-1.313c1.208.938 2.329 1.907 3.364 2.906l-1.207 1.501zm8.28 12.75v-9.469l-3.623 1.125v8.719c-.116 1.312.574 1.937 2.07 1.875h5.434c1.553.062 2.385-.438 2.501-1.5.172-.938.315-1.938.431-3l1.725.656c-.173 1.376-.375 2.531-.604 3.469-.345 1.5-1.496 2.218-3.45 2.156h-6.728c-2.128.062-3.163-.97-3.105-3.094v-8.719l-1.553.469-.345-1.688 1.897-.563v-5.438h1.725v4.875l3.623-1.125v-6.375h1.725v5.906l5.606-1.781c-.058 2.188-.145 4.72-.259 7.594 0 2.001-.72 3.032-2.156 3.094-.403.063-1.035.094-1.897.094 0-.188-.058-.499-.173-.938-.058-.437-.116-.75-.172-.938h1.553c.804.063 1.208-.469 1.208-1.594.114-1.999.172-3.687.172-5.063l-3.881 1.219v10.031h-1.724v.003zm-4.768 68.876v-21.094h5.606v1.781l-1.639 6.094c1.15 1.5 1.695 3.312 1.639 5.438.057 1.938-.604 3.031-1.983 3.281-.403.062-.834.094-1.294.094-.116-.625-.259-1.219-.431-1.781h1.121c.863 0 1.264-.594 1.208-1.781.057-1.562-.489-3.25-1.639-5.062l1.639-6.469h-2.76v19.5h-1.467zm6.049 17.656c0 6.188-1.496 10.938-4.485 14.25-.403-.375-.92-.75-1.553-1.125 2.933-2.813 4.369-7.22 4.313-13.22.057-.5.086-1.03.086-1.594h-2.846v-1.688h2.846c.057-.998.086-2.593.086-4.78h1.725v2.155c-.058 1.188-.086 2.063-.086 2.625h5.606v.845c-.116 6.625-.23 10.875-.345 12.75-.058 2.25-1.065 3.405-3.019 3.469h-2.76c-.058-.188-.116-.469-.172-.844-.173-.563-.289-.97-.345-1.22.919.062 1.839.095 2.76.095 1.208.062 1.812-.563 1.812-1.875.229-4.188.345-8.03.345-11.531h-3.967l-.001 1.688zm-.083-51.627c.747-5.937 2.989-11.719 6.728-17.344v-1.312h-11.213v1.875h8.884c-3.45 5.501-5.606 11.095-6.469 16.781h2.07zm1.796 30.877c-.748.687-1.582 1.623-2.501 2.812l-1.121-1.406c.459-.562 1.149-1.281 2.07-2.156l.862-.938v-8.062h-1.552v-1.688h3.019v9.844c.977 1.625 2.674 2.404 5.089 2.345 2.702 0 4.858-.033 6.469-.095-.172.623-.317 1.22-.431 1.781-2.876 0-4.974-.033-6.296-.094-2.589.062-4.458-.72-5.608-2.343zm-.086-13.781c-.289-1.25-.748-2.875-1.38-4.875l1.38-.376c.287.751.718 2.095 1.293 4.03.115.377.201.627.259.752l-1.552.469zm3.536 13.219v-9.562c-.461.75-1.007 1.469-1.639 2.155-.058-.062-.144-.25-.259-.562-.172-.5-.317-.845-.431-1.031 1.495-1.688 2.702-3.625 3.623-5.813h-2.501v-1.5h3.019c.172-.438.431-1.125.776-2.062.057-.25.086-.406.086-.469l1.552.279c-.058.188-.144.438-.258.752-.23.688-.403 1.188-.518 1.5h5.002v1.5h-5.52c-.345.75-.69 1.469-1.035 2.155h5.348v10.125c.114 1.688-.604 2.531-2.156 2.531h-1.639c-.058-.563-.173-1.094-.345-1.594.632.062 1.178.094 1.639.094.805.063 1.178-.375 1.122-1.313v-1.405h-4.399v4.219h-1.467v.001zm1.466-11.25v2.156h4.399v-2.156h-4.399zm0 3.562v2.155h4.399v-2.155h-4.399zm5.428 31.813c-1.208-1.188-2.358-2.25-3.45-3.188l1.121-1.406c1.208 1 2.415 2.031 3.623 3.094l-1.294 1.5zm0 7.5c-.46 1.624-.834 2.874-1.121 3.75l-1.811-.656c1.091-3.125 1.954-5.938 2.587-8.438.229.062.518.156.862.281.402.188.69.312.863.375-.288 1-.748 2.564-1.38 4.688zm.604-13.594c-1.323-1.374-2.445-2.438-3.364-3.188l1.208-1.312c.287.25.747.655 1.38 1.219.919.813 1.609 1.438 2.07 1.875l-1.294 1.406zm18.792-58.47c-.289.438-.489.75-.604.938-4.025-2.374-7.044-5.218-9.056-8.531-2.242 3.438-5.405 6.407-9.487 8.906-.172-.249-.461-.624-.863-1.125-.172-.312-.288-.499-.345-.563 4.887-2.937 8.28-6.28 10.177-10.03l1.984.28-.518.938c2.127 3.438 5.232 6.188 9.315 8.25-.116.187-.316.501-.603.937zm-14.057-24.125c0 2.188-.748 3.812-2.243 4.875l-.776-.844c1.035-.812 1.581-2.031 1.639-3.656h-1.466v-3.094h2.846v2.719zm3.631 80.908c-1.783.063-3.623.156-5.52.281-.058-.249-.116-.594-.172-1.031-.116-.312-.173-.529-.173-.656h.949c5.347-.248 9.429-.5 12.247-.75l.259 1.688c-1.897.188-3.853.313-5.865.375v3.938h6.728v1.781h-6.728v3.938h5.347v9.656h-1.811v-1.406h-8.797v1.406h-1.725v-9.656h5.261v-3.938h-6.555v-1.781h6.555v-3.845zm-3.536 11.156v5.156h8.797v-5.156h-8.797zm1.071-25.25v-19.125h7.245v18.844h-1.639v-1.688h-3.968v1.969h-1.638zm1.638-17.438v6.094h3.968v-6.094h-3.968zm0 7.688v6.094h3.968v-6.094h-3.968zm.385-20.939v-13.875h1.984v13.875h-1.984zm6.343 16.251v-1.781h7.332v-4.875h1.725v4.875h2.673v1.781h-2.673v12.188c.056 2.062-.949 3.124-3.019 3.188h-3.277l-.259-1.125c-.058-.375-.116-.655-.172-.844.574.062 1.609.094 3.105.094 1.322.062 1.954-.562 1.897-1.875v-11.625h-7.332v-.001zm3.191 8.532c-.461-1.062-1.151-2.469-2.07-4.219-.23-.438-.403-.781-.518-1.031l1.38-.844c.345.562.805 1.405 1.38 2.531.632 1.125 1.092 1.969 1.38 2.531l-1.552 1.032zm1.844 26.843v-1.781h9.919v1.781h-4.571c-1.035 2.812-2.07 5.375-3.105 7.688 1.035-.062 2.76-.219 5.175-.469-.518-1.313-1.035-2.656-1.552-4.031l1.38-.656c.401.877 1.005 2.282 1.811 4.219.402 1.063.718 1.845.949 2.345l-1.639.563-.259-.75c-.518.062-1.237.125-2.156.188-1.61.126-2.818.22-3.623.281-.288.062-.633.125-1.035.188-.289.062-.518.094-.69.094l-.69-1.594c.401-.249.776-.781 1.121-1.594 1.035-2.438 1.839-4.594 2.415-6.469h-3.45v-.003zm.949-6.468v-1.688h8.194v1.688h-8.194zm7.039-54.251c-.862 1.125-1.841 2.156-2.933 3.095-.058-.188-.288-.688-.69-1.5-.058-.25-.116-.405-.172-.47 2.472-1.999 4.455-4.5 5.951-7.5l1.639.656c-.69 1.313-1.38 2.47-2.07 3.469v11.345h-1.725v-9.095zm14.137-30.969l-1.466-1.406c-1.725 0-3.393.032-5.002.094v2.813h7.59v1.5h-7.59v2.625h9.488v1.594h-20.7v-1.594h9.488v-2.625h-7.59v-1.5h7.59v-2.719l-4.313.094c-.748 0-1.466.063-2.156.188l-.69-1.594.518-.281c.459-.188.805-.375 1.035-.563 1.092-.75 2.156-1.624 3.191-2.625h-4.14v-1.5h14.921v1.5h-8.28c-1.208 1.063-2.617 2.22-4.226 3.469.977 0 2.501-.062 4.571-.188 2.185-.062 3.795-.125 4.83-.188l-1.984-1.781 1.121-1.125c1.84 1.626 3.507 3.126 5.002 4.5l-1.208 1.312zm-17.673 22.062v-1.78h5.606v-2.625h1.725v2.625h5.951v-2.72h1.812v2.72h5.52v1.78h-5.52v2.063h-1.812v-2.063h-5.951v1.781h-1.725v-1.781h-5.606zm.682-29.562v-4.125h9.229c-.345-.75-.69-1.562-1.035-2.438l1.812-.469c.114.251.287.656.517 1.219.287.626.488 1.125.604 1.5l-.604.188h8.798v4.125h-1.725v-2.531h-15.87v2.531h-1.726zm9.27 97.313c0 6.188-1.496 10.938-4.485 14.25-.403-.375-.92-.75-1.553-1.125 2.933-2.813 4.369-7.22 4.313-13.22.057-.5.086-1.03.086-1.594h-2.846v-1.688h2.846c.057-.998.086-2.593.086-4.78h1.725v2.155c-.058 1.188-.086 2.063-.086 2.625h5.606v.845c-.116 6.625-.23 10.875-.345 12.75-.058 2.25-1.065 3.405-3.019 3.469h-2.76c-.058-.188-.116-.469-.172-.844-.173-.563-.289-.97-.345-1.22.919.062 1.839.095 2.76.095 1.208.062 1.812-.563 1.812-1.875.229-4.188.345-8.03.345-11.531h-3.967l-.001 1.688zm-2.159-34.156v-1.406h6.728c.115-.188.259-.531.431-1.031l.259-.844c-.862.062-2.128.094-3.795.094-1.668.063-2.933.094-3.795.094l-.259-1.5c7.015-.125 12.966-.312 17.854-.562l.172 1.5c-2.704.062-5.492.156-8.366.281-.058.188-.145.406-.259.656-.058.312-.202.75-.431 1.312h8.884v1.406h-9.488c-.288.625-.604 1.281-.949 1.969h12.075v1.406h-12.852c-.058.125-.144.281-.259.469-.23.312-.547.75-.949 1.312h11.558v11.25h-1.639v-.938h-10.609v.938h-1.725v-8.438c-.633.688-1.725 1.688-3.277 3 1.149-.938 1.063-.844-.259.281-.345-.625-.633-1.188-.862-1.688 2.587-1.875 4.628-3.938 6.124-6.188h-5.779v-1.406h6.642c.345-.688.66-1.344.949-1.969l-6.124.002zm3.161-22.063c-1.093.75-2.329 1.438-3.708 2.063-.289-.499-.604-1.094-.949-1.781 1.725-.812 3.278-1.594 4.658-2.344v-6.469h1.811v5.344c1.954-1.313 3.824-2.844 5.606-4.594l1.294 1.219c-2.473 2.25-4.773 4.095-6.9 5.531v3.469c-.058 1.188.518 1.749 1.725 1.688h2.156c1.208.062 1.868-.404 1.984-1.406.229-1.125.373-2.312.431-3.562l1.639.656c-.116 1.5-.259 2.719-.431 3.656-.345 1.562-1.466 2.344-3.364 2.344h-2.846c-2.186.062-3.221-.938-3.105-3l-.001-2.814zm1.151 28.532v1.781h10.609v-1.781h-10.609zm0 3v1.875h10.609v-1.875h-10.609zm0 3.094v1.594h10.609v-1.594h-10.609zm12.147 35.093c-1.841-.188-2.876-1.282-3.105-3.281.172-2.124 1.208-3.281 3.105-3.469 1.954.188 3.019 1.345 3.191 3.469-.172 1.999-1.237 3.094-3.191 3.281zm0-5.343c-1.093.127-1.697.813-1.811 2.063.114 1.063.718 1.655 1.811 1.78 1.149-.125 1.782-.717 1.897-1.78-.115-1.251-.748-1.936-1.897-2.063zm5.273-106.501c-1.035 2.625-2.272 5.063-3.708 7.313-.116-.124-.345-.405-.69-.844-.172-.312-.317-.53-.431-.656 2.126-3.188 3.737-7.062 4.83-11.625l1.812.375c-.345 1.188-.72 2.407-1.121 3.656h5.606v1.781c-.69 7.188-3.795 12.688-9.315 16.5-.116-.188-.375-.531-.776-1.031-.23-.25-.375-.438-.431-.563 2.816-1.875 4.917-4.062 6.296-6.563-1.151-1.125-2.329-2.187-3.536-3.188l1.035-1.406c.345.313.891.782 1.639 1.406.747.688 1.294 1.188 1.639 1.5.862-1.937 1.437-4.155 1.725-6.656l-4.574.001zm-3.853 38.093v-1.688h9.747v1.688h-4.054v6.281c1.782-.312 3.45-.562 5.003-.75-.058.502-.086 1.096-.086 1.781-4.658.562-8.31 1.031-10.954 1.406l-.431-1.594c.345-.062.891-.125 1.639-.188 1.322-.188 2.357-.343 3.105-.469v-6.47h-3.969v.003zm-.69-5.437v-1.781h11.644c-.116-1.5-.173-3.062-.173-4.688h1.812c0 1.626.028 3.188.086 4.688h7.245v1.781h-7.159c0 .626.057 1.532.172 2.719.057.375.086.656.086.845.345 3.75.949 6.531 1.811 8.344.518 1.188 1.178 1.781 1.984 1.781.518.062.919-.313 1.208-1.125.229-1.188.401-2.25.518-3.188.172.063.401.157.69.281.401.188.69.312.862.375-.172 1.438-.403 2.562-.69 3.375-.461 1.625-1.352 2.405-2.674 2.344-1.496 0-2.703-1.125-3.622-3.375-.863-2.063-1.466-4.969-1.812-8.719-.172-1.249-.289-2.468-.345-3.656h-11.643zm6.396 40.438v-1.595h4.744v-2.719h1.639v2.719h4.658v1.595h-4.658v4.219l5.175-.656c-.058.312-.086.844-.086 1.594-2.013.188-5.205.594-9.574 1.219-.92.125-1.639.219-2.156.281l-.345-1.875c.977 0 2.558-.094 4.744-.281-1.496.125-1.294.095.604-.094v-4.406h-4.745v-.001zm-.345-11.906v-1.688h11.816v1.688h-5.865c-.748 1.438-1.812 3.156-3.191 5.156l6.038-.375c-.173-.25-.432-.688-.776-1.313-.345-.499-.604-.905-.776-1.218l1.294-.75c1.264 1.938 2.357 3.75 3.277 5.438l-1.38.844c-.172-.188-.345-.5-.518-.938-.116-.188-.202-.344-.259-.469-3.163.125-5.377.25-6.641.375-.172 0-.403.031-.69.094-.634.062-1.093.125-1.38.188l-.69-1.688c.518-.374.863-.688 1.035-.938 1.035-1.5 1.954-2.969 2.76-4.405l-4.054-.001zm7.032-44.595v-22.313h1.725v7.875l.862-.844c2.012 1.812 3.765 3.438 5.261 4.875l-1.294 1.406c-2.013-2.063-3.622-3.624-4.83-4.688v13.688l-1.724.001zm4.685 13.907c-1.093-1.249-2.013-2.187-2.76-2.812l1.208-1.125c.173.188.518.501 1.035.938.919.876 1.523 1.47 1.812 1.781l-1.295 1.218zm1.566 44.563v-14.344h1.639v14.344h-1.639zm3.708 5.063c-.403.062-1.409.094-3.019.094-.058-.877-.172-1.532-.345-1.969.459.062 1.408.094 2.846.094.919 0 1.38-.469 1.38-1.405v-18.563h1.725v18.938c.058 1.873-.805 2.811-2.587 2.811zm2.238-77.314v-1.688h3.795v-3.656c-1.093.063-2.214.157-3.364.281-.058-.624-.173-1.219-.345-1.781 2.933-.188 5.749-.405 8.453-.656l.345 1.688c-.345 0-.892.063-1.639.188-.806.063-1.41.126-1.811.188v3.75h3.708v1.688h-3.708v3.188l.69-.75c.229.251.574.595 1.035 1.031.977.938 1.695 1.657 2.156 2.156l-1.122 1.406-.949-1.031c-.288-.375-.892-1.031-1.811-1.969v9.656h-1.639v-10.594c-.806 2.25-1.956 4.438-3.45 6.563-.23-.75-.489-1.437-.776-2.063 1.667-2.063 3.019-4.594 4.054-7.594l-3.622-.001zm2.021 34.063c-.23-.437-.863-1.312-1.897-2.625-.23-.312-.403-.53-.518-.655l1.293-.845c.518.563 1.294 1.5 2.329 2.813-.69-.938-.633-.844.172.281l-1.379 1.031zm.259-6.188c-.748-1.125-1.524-2.218-2.329-3.281l1.294-.844c1.035 1.188 1.839 2.22 2.415 3.094l-1.38 1.031zm.949 9.188c-.806 4.125-1.324 6.97-1.553 8.531l-1.639-.469c.459-1.875 1.005-4.749 1.639-8.625.518.251 1.035.439 1.553.563zm.69-7.875v-1.594h6.555v1.594h-3.795v3.563h3.278v1.031c-.116 4-.202 6.812-.259 8.438 0 1.938-.748 2.906-2.243 2.906h-1.552c0-.188-.058-.531-.173-1.031-.058-.25-.086-.438-.086-.562h1.293c.919.062 1.38-.438 1.38-1.5.115-2.938.173-5.531.173-7.781h-1.897c-.058 5.25-.949 9.094-2.674 11.531-.345-.502-.748-.938-1.208-1.313 1.667-2.187 2.472-5.843 2.415-10.969.057-1.249.086-2.687.086-4.313h-1.293zm2.154 30.407v-1.594h8.711v-2.532h1.725v2.532h8.711v1.594h-8.711v2.344h7.763v1.5h-7.763v2.344h9.401v1.595h-9.401c.518 1.375 1.208 2.563 2.07 3.563 1.725-1 3.306-2 4.744-3.002l1.121 1.502c-.403.188-1.151.594-2.242 1.219-1.208.688-2.042 1.156-2.501 1.406 1.495 1.188 3.623 2.125 6.382 2.812-.172.125-.517.688-1.035 1.688-5.233-1.5-8.511-4.25-9.833-8.25-.748.938-1.611 1.781-2.587 2.531v4.5c2.357-.75 4.11-1.344 5.261-1.781-.058.688-.086 1.281-.086 1.781-1.553.436-3.364 1.092-5.434 1.969-.345.125-.72.281-1.122.469l-.949-1.405c.518-.375.747-.813.69-1.313v-2.906c-1.438.938-3.134 1.845-5.088 2.72-.058-.188-.23-.563-.518-1.125l-.259-.563c3.852-1.562 6.813-3.5 8.884-5.812h-8.539v-1.594h9.315v-2.344h-7.849v-1.5h7.849v-2.345l-8.71-.003zm1.21-32.19c-.576-1.5-1.035-2.654-1.38-3.469l1.466-.562c.46 1.001.919 2.126 1.38 3.375l-1.466.656zm12.074 7.5l-1.293-.375.862-2.25h-2.329v4.5h3.364v1.595h-3.364v4.78c.114.062.259.095.431.095.172.062.287.094.345.094.345 0 .919.031 1.725.094h1.553c-.116.5-.23 1.031-.345 1.595h-1.466c-.69-.063-1.208-.095-1.553-.095-2.07-.126-3.594-1.28-4.571-3.469-.23 1.313-.748 2.75-1.552 4.313-.116-.063-.317-.221-.604-.47-.289-.25-.489-.438-.604-.562 1.322-1.875 1.926-5.188 1.811-9.938l1.466.094c0 .502-.03 1.188-.086 2.063v1.5c.518 1.938 1.178 3.281 1.984 4.031v-10.22h-3.795v-1.5h8.97v1.5l-.949 2.625zm-6.037-7.03c-.403.938-.921 1.875-1.553 2.812-.403-.312-.834-.624-1.294-.938 1.208-1.749 2.156-3.874 2.847-6.375l1.552.375c-.116.438-.317 1.03-.604 1.78-.116.375-.202.627-.259.75h6.382v1.595h-7.071v.001zm-2.798-14.75v-19.219h9.143v19.125h-1.725v-2.063h-5.693v2.156l-1.725.001zm1.725-17.531v13.688h5.693v-13.688h-5.693zm14.613 18.094v-12.844c-.461 1.125-1.007 2.25-1.639 3.375-.116-.687-.317-1.374-.604-2.063 1.667-3.124 2.903-6.718 3.709-10.781l1.639.281c-.345 1.376-.863 3.157-1.553 5.344v16.688h-1.552zm1.351 20.75c-1.151-1.125-2.329-2.124-3.536-3l1.035-1.405c.632.5 1.552 1.219 2.76 2.155.401.313.718.563.949.75l-1.208 1.5zm1.035-6.094c-1.266-1.125-2.531-2.187-3.795-3.188l1.121-1.312c1.208.876 2.501 1.875 3.881 3l-1.207 1.5zm-.776 11.344l-1.294 5.906-1.725-.563c.804-2.873 1.466-5.779 1.983-8.719.518.188 1.063.375 1.639.563-.116.563-.316 1.5-.603 2.813zm17.192-28.438c-.288.75-.461 1.344-.517 1.781-1.496 0-3.45-.063-5.865-.188-3.221-.126-5.521-.876-6.9-2.25-.576.875-1.38 1.937-2.415 3.188-.058-.063-.116-.156-.172-.281-.173-.188-.432-.563-.776-1.125 1.208-1.313 1.984-2.374 2.329-3.188-.633-1.062-1.237-2.687-1.811-4.875l1.208-.656c.345 1.5.804 2.782 1.38 3.844.401-1.438.69-3.249.862-5.438h-3.105v-1.594l3.191-5.344h-2.933v-1.5h4.571v1.688l-3.191 5.25h2.933v.938c-.172 3.312-.604 5.812-1.293 7.5 1.035 1.376 3.133 2.124 6.296 2.25 2.011.125 4.08.125 6.208 0zm-12.822 55.001c-.575-.813-1.524-1.906-2.846-3.281l1.294-1.031c.919.938 1.897 1.969 2.932 3.094l-1.38 1.218zm1.38 2.813c-.633 2.188-1.379 5.031-2.242 8.531l-1.812-.562c.402-1.188 1.092-3.656 2.07-7.406.172-.563.287-.969.345-1.219.345.187.891.406 1.639.656zm-2.3-37.533v-7.125h11.644v7.125h-4.916c0 .313-.03.75-.086 1.313v1.219h6.296v8.72c.114 1.812-.863 2.719-2.934 2.719h-1.294c-.689.062-1.179.094-1.466.094-.058-.375-.172-.876-.345-1.5-.059-.188-.086-.312-.086-.375.919.062 1.84.094 2.76.094 1.149.062 1.695-.406 1.639-1.406v-6.75h-4.743c0 .502-.059.938-.174 1.313.69.563 1.667 1.376 2.934 2.438.632.562 1.121.97 1.466 1.219l-1.208 1.312c-.172-.188-.461-.469-.862-.844-1.208-1.125-2.186-1.999-2.933-2.625-.69 1.438-1.984 2.812-3.881 4.125-.116-.188-.289-.438-.519-.75l-.604-.656c2.587-1.437 3.967-3.281 4.14-5.531h-4.485v10.031h-1.639v-11.628h6.296c0-.75.028-1.594.086-2.53h-5.086v-.002zm1.61 28.533l-.259-.281c-.748-.938-1.582-1.905-2.501-2.905l1.293-1.031.863.938c.862.875 1.523 1.594 1.984 2.156l-1.38 1.123zm.028-34.064v3.938h8.365v-3.938h-8.365zm7.821 49.064c-1.782.938-3.825 1.875-6.124 2.813-.058-.188-.201-.438-.431-.75-.172-.314-.289-.563-.345-.75 2.702-1.001 4.714-1.845 6.038-2.531l.862 1.218zm-6.67-76.564v-1.406h4.054v-2.063h-3.019v-1.313h3.019v-2.344h1.554v2.344h3.881v3.375h1.38v1.406h-1.38v3.375h-3.882v1.875h4.226v1.406h-4.226v1.969h4.571v1.406h-4.571v2.344h-1.554v-2.344h-3.881v-1.406h3.881v-1.969h-3.363v-1.406h3.363v-1.875h-3.19v-1.406h3.19v-1.969l-4.053.001zm.632 63.157v-3.845h6.556c-.059-.625-.23-1.375-.518-2.25l1.812-.28c.057.312.172.875.345 1.688.057.375.114.655.172.844h6.382v3.844h-1.639v-2.25h-11.471v2.25h-1.639v-.001zm2.156 1.032v-1.406h10.522v1.406h-4.484v1.969h5.606v8.625h-12.853v-8.625h5.606v-1.969h-4.397zm.345 3.375v2.25h4.055v-2.25h-4.055zm0 3.562v2.25h4.055v-2.25h-4.055zm4.974-74.595h-2.501v2.063h2.501v-2.063zm-2.501 5.438h2.501v-1.969h-2.501v1.969zm7.274 65.595h-4.054v2.25h4.054v-2.25zm-4.054 3.562v2.25h4.054v-2.25h-4.054zm6.296 8.063c-.461-.188-1.207-.531-2.242-1.031-1.725-.75-2.962-1.281-3.709-1.594l.776-1.125c2.415.813 4.397 1.562 5.951 2.25l-.776 1.5zm3.362-43.439c-1.093-1.125-2.188-2.156-3.277-3.095l1.121-1.312c.519.438 1.264 1.062 2.242 1.875.518.438.891.75 1.121.938l-1.207 1.594zm11.05-20.937c-.807.062-2.07.094-3.795.094 0-.25-.059-.719-.173-1.406-.059-.188-.086-.344-.086-.469.574.062 1.694.094 3.362.094 1.381.062 2.04-.531 1.983-1.781v-3.281c-3.853 2.751-8.74 5.124-14.662 7.125-.058-.063-.116-.22-.173-.469-.115-.25-.345-.688-.689-1.313 5.117-1.437 9.344-3.249 12.68-5.438h-12.68v-1.594h2.761v-11.156h5.003c.172-.437.373-1.155.604-2.156.058-.124.086-.218.086-.281l1.897.281c-.23.688-.489 1.406-.776 2.156h7.678v9.469c.745-.624 1.553-1.312 2.414-2.062l1.035 1.406c-.461.375-1.121.907-1.983 1.594-.633.562-1.121.97-1.466 1.219v4.875c.055 2.123-.951 3.154-3.02 3.093zm-9.756 24.125c-.748 2.501-1.496 5.188-2.243 8.063l-1.811-.656c1.091-3.188 1.866-5.906 2.327-8.156.229.063.519.188.862.375.404.125.692.25.865.374zm-.432-9.188c-.575-.624-1.468-1.468-2.675-2.531-.288-.249-.488-.437-.604-.563l1.121-1.312c1.207.938 2.329 1.907 3.362 2.906l-1.204 1.5zm.442-32.937v2.25h11.039v-2.25h-11.039zm0 3.656v2.25h11.039v-2.25h-11.039zm10.608 5.906l.431-.375v-1.875h-11.039v2.25h10.608zm-2.769 36.125v-9.47l-3.623 1.125v8.72c-.114 1.312.574 1.937 2.07 1.875h5.434c1.554.062 2.387-.438 2.501-1.5.174-.938.315-1.938.433-3l1.725.655c-.172 1.377-.374 2.531-.604 3.47-.346 1.5-1.496 2.218-3.45 2.155h-6.729c-2.128.062-3.162-.97-3.104-3.094v-8.719l-1.553.469-.346-1.688 1.897-.563v-5.438h1.725v4.875l3.623-1.125v-6.375h1.726v5.905l5.605-1.78c-.059 2.188-.145 4.72-.259 7.594 0 2.001-.72 3.032-2.156 3.094-.402.063-1.035.095-1.896.095 0-.188-.059-.5-.173-.938-.059-.437-.116-.75-.173-.938h1.553c.805.063 1.208-.469 1.208-1.594.113-1.999.172-3.688.172-5.062l-3.881 1.219v10.031h-1.726v.002zm-1.608 32.657c0 2.187-.748 3.811-2.242 4.875l-.776-.845c1.035-.812 1.581-2.032 1.64-3.657h-1.468v-3.093h2.848l-.002 2.72zm14.677-8.812v-1.5h6.986c.46-.562.891-1.156 1.294-1.781l1.725.375c-.058.125-.172.313-.345.563l-.519.844h10.695v1.5h-5.865c1.438 1.688 3.536 3.031 6.296 4.031-.058.188-.201.469-.431.844-.173.375-.317.656-.432.845-3.104-1.313-5.551-3.22-7.331-5.72h-4.141c-1.726 2.063-4.256 3.875-7.591 5.438 0-.063-.029-.125-.086-.188-.345-.688-.633-1.155-.862-1.405 2.589-1.063 4.657-2.345 6.21-3.845l-5.603-.001zm.776-57.814v-10.875h8.192v-4.875h1.812v4.875h8.279v10.781h-1.812v-1.219h-6.469v8.25h-1.812v-8.25h-6.469v1.313h-1.721zm17.078 65.595c-4.888 2.562-10.234 4.343-16.042 5.344-.058-.188-.229-.562-.518-1.125-.058-.188-.116-.345-.173-.469 5.691-.877 10.925-2.563 15.698-5.063l1.035 1.313zm-.69-10.312l-1.294-1.125c-5.98 0-9.892.063-11.729.188-.229 0-.604.03-1.122.094h-.775l-.689-1.594c.401-.125.948-.406 1.64-.845.173-.062.314-.125.432-.188 1.207-.812 2.729-2.031 4.571-3.656l1.982.656c-1.035.812-2.79 2.062-5.262 3.75-.115.062-.202.125-.259.188 4.369 0 7.532-.03 9.487-.094l-2.674-2.062 1.207-1.03c2.299 1.75 4.196 3.22 5.692 4.406l-1.207 1.312zm-2.156 7.687c-4.14 2.062-8.224 3.531-12.248 4.406-.058-.25-.288-.719-.688-1.406 4.714-1.063 8.711-2.5 11.987-4.313l.949 1.313zm-12.507-72.063v5.906h6.469v-5.906h-6.469zm3.106 43.717c0 2.188-.748 3.812-2.242 4.875l-.776-.844c1.035-.812 1.581-2.031 1.639-3.656h-1.467v-3.094h2.847l-.001 2.719zm6.986 25.721c-2.99 1.438-5.98 2.594-8.97 3.469-.23-.5-.489-.969-.776-1.406 2.934-.75 5.894-1.844 8.884-3.281l.862 1.218zm4.657-69.438h-6.469v5.906h6.469v-5.906zM72.671 83.589v-12.938h-9.859v2.336h-5.013v-30.188h34.926v30.188h-5.014v-2.336h-9.859v12.938h-5.181zm-9.859-35.758v6.469h9.859v-6.469h-9.859zm0 11.141v6.648h9.859v-6.648h-9.859zm24.899-11.141h-9.859v6.469h9.859v-6.469zm-9.859 11.141v6.648h9.859v-6.648h-9.859zm24.501-5.391v-4.672h5.013v-8.266h4.512v8.266h4.345v4.672h-4.345v4.313c.668.48 1.613 1.258 2.841 2.336 1.337 1.078 2.282 1.858 2.841 2.336l-2.674 4.492c-1.003-1.196-2.005-2.336-3.008-3.414v19.945h-4.512v-19.766c-1.115 3.354-2.564 6.589-4.345 9.703-.112-.478-.225-1.196-.334-2.156-.334-2.395-.613-4.133-.835-5.211 2.228-3.473 3.953-7.665 5.181-12.578h-4.68zm29.077 23.18c-2.452 2.274-5.572 4.551-9.358 6.828-.668-1.32-1.562-2.816-2.674-4.492 3.677-1.797 6.685-3.833 9.024-6.109-2.339-3.354-4.068-7.485-5.18-12.398l3.509-1.977h-4.512v1.797c0 5.511-.392 9.765-1.169 12.758-.893 3.234-2.507 6.527-4.846 9.883l-3.509-3.773c3.564-4.431 5.235-10.781 5.013-19.047v-16.533c7.241-.239 14.815-1.017 22.727-2.336l1.671 5.211c-5.238.719-11.865 1.319-19.886 1.797v5.211h18.215v5.031c-1.115 5.511-3.065 10.304-5.849 14.375 2.115 2.277 4.846 4.074 8.188 5.391l-3.008 4.672c-3.343-2.156-6.129-4.254-8.356-6.289zm0-7.547c2.005-2.993 3.452-6.528 4.345-10.602h-8.522c1.001 4.074 2.393 7.609 4.177 10.602zm24.166-6.469c-.334-.239-.781-.657-1.337-1.258-2.118-2.036-3.901-3.594-5.348-4.672l3.175-3.953c2.339 1.797 4.622 3.655 6.852 5.57l-3.342 4.313zm2.006 9.703c-1.228 4.554-2.172 8.204-2.841 10.961l-4.846-1.797c.89-2.996 2.06-7.306 3.509-12.938.334-1.317.556-2.274.668-2.875 1.446.719 3.008 1.319 4.679 1.797-.225.961-.613 2.578-1.169 4.852zm.334-21.203c-2.339-2.274-4.736-4.312-7.186-6.109l3.175-3.953 2.005 1.617c2.449 1.797 4.233 3.176 5.348 4.133l-3.342 4.312zm12.533 10.422c-.781 7.069-4.068 13.297-9.859 18.688l-1.504-2.156c-.781-.958-1.337-1.676-1.671-2.156 4.567-3.594 7.353-8.445 8.355-14.555h-5.18v-4.492h9.859v4.671zm1.504 21.203c-1.002.118-2.564.18-4.679.18-.112-.84-.334-2.218-.668-4.133-.112-.359-.167-.598-.167-.719h3.677c1.671 0 2.506-.837 2.506-2.516v-22.64h-9.358v-4.852h14.037v3.414c.444 2.516 1.002 4.852 1.671 7.008 2.115-2.274 4.178-4.551 6.183-6.828l3.677 3.773c-.559.601-1.449 1.438-2.674 2.516-2.118 2.038-3.901 3.714-5.348 5.031 2.005 4.433 5.013 8.386 9.024 11.859-.225.241-.501.66-.835 1.258-.447.601-1.228 1.617-2.34 3.055-4.235-3.953-7.353-8.625-9.358-14.016v11.68c.221 3.954-1.562 5.93-5.348 5.93zm7.854-33.961c-4.235-1.797-8.413-3.353-12.533-4.672l2.005-4.133c2.896.96 7.074 2.457 12.533 4.492l-2.005 4.313zm22.987 13.656c-2.786-2.516-4.958-4.551-6.517-6.109l3.008-3.773c3.008 2.397 5.235 4.253 6.685 5.57l-3.176 4.312zm-1.17 20.664l-4.846-1.797c2.005-5.868 3.509-11.079 4.512-15.633 1.781.719 3.342 1.319 4.679 1.797l-4.345 15.633zm2.172-32.343c-1.561-1.556-3.733-3.594-6.517-6.11l3.008-3.593c2.674 1.917 4.901 3.773 6.685 5.57l-3.176 4.133zm15.709 23.539v-17.43l-5.348 1.617v15.633c-.112 2.516 1.058 3.714 3.509 3.594h9.692c2.449.121 3.786-.778 4.011-2.695.334-1.676.611-3.353.835-5.031 1.781.839 3.397 1.438 4.846 1.797-.334 2.636-.835 4.792-1.504 6.469-.781 2.754-3.008 4.071-6.685 3.953h-13.201c-4.345.118-6.463-1.977-6.351-6.289v-16.173l-2.506.719-.835-4.852 3.342-1.078v-9.703h4.846v8.445l5.348-1.437v-11.32h4.846v10.063l10.528-2.875c-.112 5.031-.279 10.304-.501 15.813 0 3.714-1.282 5.632-3.843 5.75-1.337.241-2.841.421-4.512.539-.112-1.078-.446-2.813-1.002-5.211.334.121 1.279.18 2.841.18 1.337.121 1.948-.657 1.838-2.336.222-3.353.334-6.228.334-8.625l-5.682 1.797v18.688h-4.846v-.002zM270.021 32.662c-.174-.188-.523-.53-1.046-1.031l-.61-.656c-.698 1-1.831 2.281-3.4 3.844-.117-.126-.32-.375-.61-.75-.407-.625-.728-1.063-.959-1.313 1.452-1.187 2.557-2.375 3.313-3.563-.989-1.062-1.918-2-2.79-2.813.465-2.187.872-4.531 1.221-7.031h-1.482v-2.249h1.744c.174-1.437.349-2.937.523-4.5l2.354.281-.61 4.219h3.662v2.156c-.233 4.188-.815 7.345-1.744 9.469l2.005 1.969-1.571 1.968zm-2.18-5.625c.698-1.688 1.134-4.25 1.308-7.688h-1.831c-.117 1.125-.379 2.719-.785 4.781-.117.688-.205 1.188-.262 1.5l1.57 1.407zm4.098-2.344v-2.25h12.032v2.25h-4.882l-.087 1.969h5.58v2.438h-4.882c.929 1.688 2.644 2.813 5.144 3.375-.582 1.062-1.018 1.906-1.308 2.531-2.849-1.188-4.738-2.75-5.667-4.688-.756 1.938-2.849 3.563-6.278 4.875-.466-.876-.93-1.688-1.395-2.438 3.139-.875 5.057-2.093 5.754-3.656h-4.708v-2.438h5.231c.116-.563.174-1.219.174-1.969l-4.708.001zm.523-3.937v-7.125h10.986v7.125h-10.986zm2.354-4.781v2.531h6.19v-2.531h-6.19zm20.279 11.343c-1.687 2.625-3.343 4.844-4.97 6.656-.756-.75-1.454-1.313-2.093-1.688 1.569-1.688 3.167-3.812 4.795-6.375l2.268 1.407zm-5.667-2.25l1.134-10.781c4.998 0 10.345-.281 16.042-.844l.785 2.625c-4.302.438-9.098.719-14.386.844l-.61 5.531h5.231v-4.406h2.79v4.406h7.76v2.625h-7.76v6.188c.116 2.375-.902 3.53-3.052 3.469-1.163.125-2.238.188-3.226.188-.059-.375-.175-1.063-.349-2.063-.059-.313-.117-.563-.174-.75.755.063 1.657.094 2.703.094.929.063 1.365-.469 1.308-1.594v-5.531l-8.196-.001zm17.437 8.813c-1.337-1.812-2.907-3.938-4.708-6.375l2.005-1.5c1.278 1.5 2.964 3.595 5.057 6.281l-2.354 1.594zm10.078-1.5c-.467.563-.872 1.093-1.221 1.594l-1.656-1.969c.522-.624.755-1.343.696-2.156v-7.125h-2.18v-2.625h4.708v8.625l1.918-2.156c.116.501.349 1.188.697 2.063.058.25.115.438.175.563-.696.687-1.742 1.749-3.137 3.186zm-.261-13.875c-.931-1.374-1.918-2.813-2.964-4.313l2.268-1.406c.231.313.552.75.959 1.313.405.501 1.104 1.438 2.093 2.813l-2.356 1.593zm9.242 13.781c-1.803 1.062-4.041 2-6.714 2.813-.117-.25-.349-.656-.698-1.219-.292-.563-.522-.97-.696-1.219 2.44-.624 4.417-1.343 5.929-2.156-1.221-1.313-2.354-2.968-3.4-4.969l1.133-.75h-1.83v-2.437h12.555v2.625c-1.105 2.188-2.472 4.031-4.098 5.531 1.685.938 3.544 1.563 5.578 1.875-.406.812-.843 1.655-1.308 2.531-2.615-.813-4.767-1.687-6.451-2.625zm-2.006-15.75c.175 2.188-.989 3.938-3.487 5.25l-1.831-1.969c2.094-.938 3.053-2.312 2.877-4.125v-2.156h9.416v3.75c-.059.813.319 1.188 1.135 1.125h1.831l-.437 2.531h-2.529c-1.687 0-2.527-.812-2.527-2.438v-2.438h-4.446l-.002.47zm-1.221 8.25c.872 1.688 1.946 3.094 3.227 4.219 1.161-.938 2.323-2.344 3.487-4.219h-6.714zm28.126 6.094v-6.656l-2.006.469v6c-.06 1.125.465 1.688 1.568 1.688h3.837c1.046 0 1.656-.406 1.83-1.219 0-.125.029-.312.088-.563l.263-1.406c.639.313 1.308.563 2.005.75-.06.563-.204 1.251-.437 2.063-.059.25-.088.406-.088.469-.231 1.374-1.278 2.03-3.139 1.969h-5.318c-1.918.062-2.849-.938-2.79-3v-6.281l-1.046.188-.175-2.25 1.221-.281v-2.25l-.262.281c-.522-.687-1.104-1.313-1.743-1.875l.262-.281h-3.661v2.906h3.836c0 .625-.03 1.594-.087 2.906-.06 3.126-.117 5.282-.176 6.469.059 2.25-.783 3.406-2.527 3.469-.581 0-1.191.031-1.831.094-.06-.188-.117-.438-.174-.75-.176-.688-.292-1.157-.35-1.406-.292.687-.698 1.562-1.221 2.625l-1.744-1.875c1.278-2.124 1.947-5.25 2.006-9.375v-2.344c.058-1.187.087-2.093.087-2.719h-1.568v-2.438h3.312c-.059-.375-.174-.938-.349-1.688-.174-.687-.32-1.219-.437-1.594l2.528-.281c.23 1 .465 2.188.697 3.563h2.18v1.875c1.221-1.625 2.18-3.437 2.878-5.438l2.615.094c-.292.876-.61 1.688-.959 2.438h8.194v2.344h-9.503c-.466.938-1.047 1.813-1.743 2.625h1.918v2.063l2.006-.375v-3.656h2.18v3.094l4.359-.938c0 2.25-.06 4.282-.176 6.094-.059 1.626-.641 2.5-1.743 2.625-.407.063-1.046.094-1.918.094-.175-.688-.32-1.406-.437-2.156h1.134c.58 0 .9-.312.959-.938.058-.5.087-1.468.087-2.906l-2.267.562v7.125h-2.178v-.003zm-8.021-3.563c.058-1.625.087-2.78.087-3.469h-1.742c-.06 3.688-.438 6.469-1.135 8.344h1.482c.812.063 1.221-.437 1.221-1.5.056-.562.087-1.687.087-3.375z"/></svg>