<svg xmlns="http://www.w3.org/2000/svg" width="640" height="364.5" viewBox="0 0 640 364.5"><path fill="#fff" d="M44.375 61.003c-1.267-1.375-3.165-3.189-5.692-5.44.229.252-.06 0-.862-.75l3.278-3.752c1.034.876 2.527 2.128 4.484 3.752 1.035.876 1.782 1.5 2.243 1.876l-3.451 4.314zm1.898 9.38c-1.496 5.88-2.476 10.004-2.934 12.383l-5.002-1.502c.919-3.376 2.243-8.879 3.969-16.509.573.126 1.38.375 2.415.75 1.147.375 1.953.688 2.414.938-.232.877-.517 2.19-.862 3.94zm-.863-21.948c-.69-.75-1.784-1.812-3.278-3.189-1.38-1.375-2.474-2.374-3.276-3.001l3.104-3.751c.69.627 1.954 1.688 3.795 3.189 1.38 1.125 2.415 2.002 3.105 2.626l-3.45 4.126zm5.175 6.003c-.345-.498-.861-1.187-1.553-2.063-.69-.874-1.267-1.501-1.725-1.876 3.68-3.626 6.438-7.879 8.28-12.756l5.349.563c-.232.375-.519.938-.862 1.688-.345.75-.634 1.313-.863 1.688h19.666v4.502h-22.081c-.689 1.125-1.438 2.251-2.243 3.377h21.909c-.115.627-.172 2.438-.172 5.44-.116 2.377-.172 4.253-.172 5.628h3.623v4.502h-3.623c-.116 2.377-.173 4.628-.173 6.753h2.933v4.314h-3.104c-.232 4.376-2.531 6.501-6.9 6.378h-6.899c-.116-.627-.462-1.565-1.035-2.814-.116-.627-.232-1.062-.346-1.312h6.729c2.184.124 3.391-.628 3.623-2.251h-21.05l1.035-11.068h-3.45v-4.502h3.968l.69-8.066-1.554 1.875zm20.529 17.446c.113-1.375.172-3.626.172-6.753h-15.525l-.689 6.753h9.143c-1.267-1.249-2.76-2.5-4.484-3.752l2.415-3.001c1.954 1.378 3.735 2.691 5.348 3.939l-2.416 2.814h6.036zm-14.318-17.821l-.689 6.566h8.625c-.69-.625-1.726-1.501-3.105-2.626-.689-.624-1.208-1.061-1.552-1.313l2.587-2.626-5.866-.001zm14.663 6.565v-6.566h-8.453c.804.501 1.897 1.313 3.277 2.439.69.627 1.208 1.064 1.553 1.313l-2.415 2.814h6.038zm22.354.751c-2.303-2.125-4.774-4.315-7.418-6.566l3.276-3.939c2.99 2.251 5.521 4.253 7.592 6.003l-3.45 4.502zm3.104 4.689c-1.15 4.127-2.704 9.632-4.658 16.508l-5.175-1.876c1.493-4.25 3.105-9.755 4.83-16.508.229.126.631.313 1.208.563 1.493.501 2.76.938 3.795 1.313zm-1.896-17.07c-2.07-1.876-4.485-3.939-7.246-6.19l3.277-4.127c2.528 1.876 5.061 3.816 7.591 5.815l-3.622 4.502zm4.311 2.439v-4.877h7.246c-.345-.499-.806-1.249-1.38-2.251-1.151-1.875-2.07-3.376-2.76-4.502l4.484-1.876c1.38 2.002 2.816 4.191 4.313 6.566l-3.968 2.063h6.899c1.726-3.001 3.278-5.877 4.658-8.629l5.003 1.688c-.577 1.002-1.496 2.503-2.76 4.502-.69 1.125-1.208 1.94-1.552 2.439h7.417v4.877h-11.213v5.627h9.833v5.065h-9.833v5.815h12.247v5.065h-12.247v9.757h-5.349v-9.757h-12.076v-5.065h12.076v-5.815h-9.661v-5.065h9.661v-5.627h-11.038zm35.818 11.63v-4.69h2.243v-15.757h4.313c.113-.499.286-1.313.518-2.439.112-1 .229-1.75.345-2.251l4.83.375c0 .252-.06.563-.172.938-.232.75-.577 1.875-1.035 3.376h5.866v34.704c0 .498-.061 1-.174 1.501 3.334-3.25 4.831-8.691 4.485-16.32v-7.504h13.973v20.26c0 1.251.402 1.814 1.208 1.688h.346c.803.126 1.264-.499 1.38-1.876.229-2.75.345-5.501.345-8.254 1.38.501 2.528.938 3.45 1.313-.232 3.752-.461 6.692-.69 8.817-.345 3.125-1.785 4.688-4.313 4.688h-2.07c-2.876.123-4.256-1.501-4.14-4.877v-16.694h-4.831v2.439c.345 9.13-1.553 15.945-5.693 20.447-.577-.627-1.784-1.814-3.623-3.564-.345 1.877-1.668 2.875-3.968 3.002h-4.14l-.519-2.813c-.116-.75-.231-1.379-.345-1.876h3.104c1.493.122 2.184-.499 2.07-1.876v-12.757h-6.21c0 8.38-1.035 15.069-3.104 20.074-1.612-1.5-2.819-2.691-3.623-3.564 1.725-4.001 2.527-9.503 2.415-16.508l-2.241-.002zm6.556-15.945v11.255h6.21v-11.255h-6.21zm2.587 9.567c-.345-1-.861-2.313-1.553-3.939-.345-1-.633-1.75-.862-2.251l2.934-1.688c.229.501.573 1.251 1.035 2.251.803 1.627 1.38 2.878 1.725 3.752l-3.279 1.875zm.173 16.695l-2.587-6.565 3.105-1.688c.345.876.919 2.316 1.725 4.315.458 1.002.803 1.752 1.035 2.251l-3.278 1.687zm9.316-23.448v-5.065h8.108c-.232-.75-.577-1.876-1.035-3.376-.346-1.125-.633-1.999-.863-2.626l5.348-.75 1.38 4.502c.346 1.002.574 1.753.69 2.251h7.937v5.065l-21.565-.001zm33.566 18.008l-2.07 2.251c-.232-.874-.633-2.187-1.208-3.939l-.519-1.688c4.141-3.875 7.938-8.503 11.387-13.882l4.14 3.189c-1.496 2.128-2.933 4.127-4.313 6.003v23.074h-5.176v-17.071c-.46.501-1.207 1.19-2.241 2.063zm11.385-26.637c-3.795 5.003-7.937 9.379-12.42 13.131-.577-1.875-1.324-3.687-2.243-5.44 3.795-2.875 7.245-6.565 10.351-11.068l4.312 3.377zm1.207 18.946v-5.44h25.358v5.44h-6.728v14.632c.113 4.751-2.014 7.129-6.383 7.129-2.992.122-5.464.188-7.418.188-.346-1.876-.75-3.628-1.208-5.252h3.104c1.493.126 2.588.188 3.278.188 2.299.126 3.391-1 3.278-3.376v-13.509h-13.281zm1.898-13.881v-5.44h21.736v5.44h-21.736zm34.438.937v-4.502h10.696v-4.69h5.175v4.69h9.661v4.502h-9.661v4.502h5.002c4.141-3.25 7.876-7.002 11.213-11.255l4.14 3.001c-2.646 3.001-5.348 5.754-8.107 8.254h9.487v4.69h-15.181l-1.553 1.125c-.922.627-2.415 1.626-4.485 3.001h16.043v22.323h-5.003v-2.251h-19.494v2.251h-5.175v-15.006c-.461.126-1.095.439-1.897.938-1.612.627-2.819 1.125-3.623 1.5l-1.554-5.44c7.476-2.5 13.628-5.314 18.459-8.441h-17.94v-4.69h14.491v-4.502h-10.694zm27.43 17.634h-18.632l-.862.375v3.564h19.494v-3.939zm-19.494 7.879v3.938h19.494v-3.938h-19.494zm36.498-10.318v-4.877h41.92v4.877h-29.153l-.862 3.564h25.185c-.116 1.125-.288 2.814-.517 5.065-.232 2.002-.346 3.376-.346 4.127-.348 4.751-3.277 7.064-8.801 6.941-2.876.123-6.438.188-10.695.188-.116-1.627-.461-3.44-1.035-5.439 4.37.252 7.704.375 10.006.375 3.334.126 5.061-.938 5.175-3.189.113-.375.172-.938.172-1.688.113-.75.173-1.249.173-1.5h-25.531l1.725-8.441h-7.418l.002-.003zm5.349-8.254v-14.632h31.225v14.632h-31.225zm5.52-9.754v4.877h20.354v-4.877h-20.354z"/><g fill="#fff"><path d="M274.008 111.458c3.557-.472 10.971-.705 10.971-5.635 0-2.583-2.448-3.558-4.664-3.558-5.433 0-11.572 4.562-11.572 10.297 0 3.623 2.885 5.504 6.206 5.504 1.876 0 3.825-.672 5.334-1.78.537-.403 2.58-2.213 2.58-2.884 0-.199-.2-.404-.403-.404-.601 0-2.447 2.955-5.466 2.955-2.012 0-3.051-1.479-3.051-3.391l.065-1.104zm.168-1.144c.338-2.146 2.482-7.041 5.1-7.041.771 0 1.105.735 1.105 1.439 0 1.378-.871 3.122-1.877 4.027-1.108 1.01-2.816 1.511-4.328 1.575m28.242-8.046c-.908 0-1.61-.234-2.08.637-.066.102-.133.234-.269.234-.103 0-.234-.066-.3-.1-.638-.371-1.376-.501-2.08-.501-2.786 0-5.808 1.774-7.783 3.655-2.145 2.076-3.723 4.761-3.723 7.813 0 1.946.738 4.062 2.985 4.062 3.69 0 6.845-4.299 8.755-7.08-.302 1.675-1.069 3.857-1.069 5.466 0 1.075.566 1.614 1.571 1.614 1.948 0 3.892-1.479 5.234-2.787.469-.469 1.745-1.877 1.745-2.619 0-.199-.104-.434-.336-.434-.536 0-1.814 2.647-2.854 2.647-.333 0-.435-.401-.435-.636 0-.639.369-1.846.537-2.414l.705-2.618c.303-1.14 1.945-5.972 1.945-6.572 0-.538-.974-.37-1.272-.37h-1.278v.002l.002.001zm-10.128 12.813c-.773 0-1.005-.707-1.005-1.41 0-1.88.935-3.922 1.876-5.536 1.005-1.677 2.853-4.525 5.028-4.525.738 0 1.378.637 1.378 1.375 0 2.313-4.863 10.096-7.277 10.096m20.759-3.488c1.039.903 2.551 2.011 2.551 3.521 0 .974-.707 1.979-1.71 1.979-2.08 0-4.158-4.631-5.834-4.631-.939 0-1.07 1.44-1.07 2.146 0 1.346.33 2.018 1.605 2.584 1.342.604 3.32.875 4.764.875 2.917 0 6.91-1.683 6.91-5.099 0-3.725-6.005-5.335-6.005-8.218 0-.707.4-1.441 1.171-1.441 2.084 0 3.729 3.621 5.168 3.621.772 0 .873-.805 1.004-1.408.067-.305.203-.906.203-1.244 0-1.81-4.427-2.012-5.533-2.012-1.609 0-3.188.233-4.628 1.043-1.207.668-2.181 1.774-2.181 3.217-.003 2.047 2.143 3.859 3.585 5.067"/><path d="M268.44 99.65c.067-.233.236-.808.236-1.108 0-.604-1.108-.938-1.544-1.104-1.574-.604-3.353-.972-5.029-.972-1.848 0-3.823.468-5.3 1.576-1.31 1.038-2.312 2.683-2.312 4.358 0 2.852 2.349 4.896 4.224 6.744 1.208 1.172 2.519 2.278 2.519 4.059 0 1.105-.737 2.146-1.612 2.75-.802.533-1.911.77-2.882.77-1.073 0-2.315-.3-3.088-1.07-.737-.771-.806-1.545-.938-2.517-.064-.64-.064-1.478-.902-1.478-.537 0-.739.501-.842.938-.2.807-.302 2.283-.302 3.12 0 1.039.237 1.21 1.242 1.544 1.609.567 3.588.809 5.265.809 2.213 0 4.43-.476 6.239-1.744 1.813-1.311 2.953-3.188 2.953-5.4 0-2.55-2.551-4.796-4.226-6.475-.94-.94-2.583-2.35-2.583-3.756 0-1.748 1.775-2.887 3.421-2.887 4.361 0 2.45 4.43 4.258 4.43.737 0 .841-1.043.942-1.543l.261-1.044zM188.97 110.021c0-3.252-2.649-5.125-4.879-5.125-4.03 0-7.941 3.436-7.941 7.403 0 2.872 2.036 5.204 4.721 5.204 3.273.002 8.099-2.866 8.099-7.482m-2.517-1.583c0 1.959-.966 5.045-2.768 7.168-.32.349-1.15 1.312-2.764 1.312-1.877 0-2.252-1.771-2.252-2.896 0-3.092 1.956-8.539 5.448-8.539 1.877-.001 2.336 1.663 2.336 2.955m12.496-2.334c.299 0 .432-.512.432-.644 0-.104-.025-.24-.185-.24h-2.549c.375-1.424 1.233-4.595 2.439-4.595.294 0 .456.271.644.595.563.938 1.369 1.021 1.557 1.021.589 0 1.235-.455 1.235-1.18 0-.861-.912-1.367-1.985-1.367-1.691 0-3.354.992-4.377 1.957-1.203 1.103-1.664 2.418-2.062 3.57h-1.958c-.323 0-.458.641-.458.641 0 .108.028.242.189.242h1.955c-1.609 5.342-2.01 6.844-3.567 12.639-.346 1.316-.991 3.729-2.062 3.729-.458 0-.646-.532-.726-.802-.188-.537-.401-1.152-1.261-1.152-.697 0-1.155.51-1.155 1.125 0 .857.969 1.635 2.283 1.635 1.231 0 2.308-.537 3.19-1.231 1.718-1.367 2.042-2.255 4.885-12.478l.963-3.465h2.573zm15.914 0c.269 0 .724-.106.724-.617 0-.053 0-.267-.214-.267h-2.791c.055-.104.109-.321.135-.405l.35-.963c.104-.293.481-1.394.481-1.608 0-.326-.241-.326-.588-.326-.377 0-1.45.03-1.744.138-.322.135-.995 2.682-1.208 3.166h-1.289c-.721 0-1.229 0-1.229.67 0 .213.292.213.562.213h1.688c-.885 2.576-1.984 5.819-2.44 7.674-.132.511-.351 1.367-.351 2.173 0 1.125.542 1.557 1.104 1.557 2.198 0 5.119-3.38 5.119-4.187 0-.135-.129-.293-.294-.293-.133 0-.268.136-.346.296-.807 1.26-2.174 2.36-2.604 2.36-.161 0-.322-.136-.322-.479 0-.402.377-1.667.539-2.149 1.231-4.025 1.257-4.132 2.172-6.949h2.545v-.004h.001zm5.907-.858c.4-1.256 1.689-5.193 1.689-5.305 0-.11-.025-.25-.269-.25-.135 0-.401.14-.669.276-.404.234-1.773.581-2.764.552l-.619-.021c-.239 0-.806 0-.806.479 0 .159.081.293.456.293.833 0 1.183 0 1.183.616 0 1.464-4.508 14.226-4.508 14.843 0 .453.294.453 1.153.453 1.153 0 1.206-.053 1.528-.938 1.527-4.217 5.851-9.823 7.728-9.823.399 0 1.103.054 1.103 1.396 0 2.205-2.067 8.888-3.543 8.888-.943 0-.696-1.421-1.958-1.421-.511 0-1.234.51-1.234 1.125 0 .671.668 1.099 1.528 1.099 4.238 0 7.968-4.505 8.02-9.126.025-2.919-1.635-3.455-2.521-3.455-2.359 0-4.799 2.682-7.327 6.307l-.049-.084 1.879-5.904zm15.668 6.412c1.102-.188 5.149-1.074 5.149-3.973 0-1.884-1.846-2.815-3.348-2.815-2.875 0-7.97 2.948-7.97 8.207 0 2.953 2.036 4.428 4.046 4.428 2.929 0 5.585-3.19 5.585-3.646 0-.135-.052-.271-.213-.271-.133 0-.19.057-.776.648-1.692 1.641-3.01 1.718-3.492 1.718-.51 0-2.254-.244-2.254-2.876 0-.16 0-.35.052-.832l3.221-.588zm-3.113-.135c.643-3.061 2.497-6.041 4.483-6.041 1.285 0 1.285 1.263 1.285 1.504.002 3.599-3.919 4.326-5.768 4.537"/><path d="M48.125 111.792l-.974-10.601v-.873c0-1.476.403-1.711 1.846-1.977.536-.134 1.107-.27 1.107-.908 0-.435-.336-.703-.706-.703-1.507.035-3.051.168-4.593.168-1.545 0-3.086-.133-4.563-.168-.469 0-.873.168-.873.703 0 .604.669.64 1.138.773.773.166 1.041.371 1.21 1.17l1.44 17.412c.102.838.169 1.275 1.177 1.275 1.474 0 1.977-1.209 2.715-2.219l8.552-11.871 1.979-2.617c.436-.567 1.409-1.912 1.979-2.347.604-.473 1.31-.569 2.046-.771.403-.104.736-.307.736-.742 0-.501-.333-.771-.802-.771-1.042.035-2.114.168-3.187.168s-2.148-.133-3.222-.168c-.471 0-.971.303-.971.84 0 .638.87.638 1.338.673.638.026 1.208.298 1.208 1.005 0 .972-2.349 4.058-2.983 4.962l-5.597 7.587zm17.079 6.274c5.063 0 11.066-3.357 11.066-8.991 0-4.363-3.856-6.812-7.849-6.812-5.196 0-10.765 3.861-10.765 9.395 0 1.979.904 3.654 2.479 4.861 1.512 1.143 3.222 1.547 5.069 1.547m-.101-.972c-1.778 0-2.213-1.91-2.213-3.354 0-2.081.638-4.192 1.508-6.072.807-1.775 2.416-4.328 4.629-4.328 1.844 0 2.18 1.475 2.18 3.021-.001 3.015-2.348 10.733-6.104 10.733m25.223-3.891c1.542-2.213 4.09-5.837 4.09-8.62 0-1.144-.669-2.317-1.944-2.317-1.242 0-2.014 1.043-2.014 2.213 0 .74.234 1.276.469 1.981.234.671.336.974.336 1.677 0 2.483-2.719 5.734-4.192 7.58v-2.917c0-2.083-.067-4.461-.438-6.508-.333-1.774-.835-4.026-3.083-4.026-1.813 0-3.455.978-4.598 2.317-.401.469-1.443 1.942-1.443 2.58 0 .235.169.47.404.47.805 0 1.208-2.615 2.617-2.615 1.041 0 1.341 2.854 1.442 3.487l.638 7.38c0 1.812-.135 3.553-.975 5.164-.536 1.006-1.744 2.447-3.021 2.447-1.44 0-1.778-1.945-3.755-1.945-.971 0-1.911.771-1.911 1.813 0 1.51 1.71 2.11 2.987 2.11 3.652 0 6.002-2.444 8.315-4.93l6.076-7.341zm21.799-10.937c-.906 0-1.608-.23-2.078.641-.067.101-.135.234-.271.234-.1 0-.234-.068-.302-.103-.636-.369-1.375-.501-2.078-.501-2.786 0-5.805 1.775-7.783 3.654-2.146 2.078-3.721 4.762-3.721 7.815 0 1.945.733 4.06 2.983 4.06 3.689 0 6.843-4.297 8.754-7.077-.302 1.674-1.071 3.854-1.071 5.467 0 1.069.569 1.61 1.574 1.61 1.945 0 3.891-1.48 5.233-2.789.466-.469 1.742-1.877 1.742-2.614 0-.199-.1-.437-.333-.437-.539 0-1.813 2.651-2.854 2.651-.333 0-.435-.401-.435-.637 0-.64.37-1.849.536-2.417l.706-2.616c.302-1.14 1.942-5.969 1.942-6.575 0-.535-.969-.371-1.275-.371h-1.271v.004l.002.001zm-10.129 12.814c-.771 0-1.005-.707-1.005-1.409 0-1.879.937-3.924 1.877-5.534 1.005-1.677 2.852-4.527 5.031-4.527.735 0 1.375.639 1.375 1.377 0 2.31-4.864 10.093-7.278 10.093m21.599-.201c-.736-.202-2.346-.506-2.346-1.479 0-.37.302-.668.635-.836l.336.099c1.107.237 1.575.336 2.717.336 1.846 0 3.522-.267 5.098-1.24 1.575-.973 2.718-2.483 2.718-4.394 0-1.109-.335-1.778-.974-2.653h1.948c.771 0 .604.103.868-.771l.103-.5c0-.168-.536-.104-.57-.104h-2.413c-1.008 0-1.344-.029-2.314-.333-1.478-.468-2.651-.739-4.229-.739-3.354 0-7.343 1.746-7.343 5.604 0 1.877 1.239 3.316 2.849 4.125-1.138.771-2.646 1.775-2.646 3.318 0 .808.336 1.547.839 2.113-1.877.167-5.533 1.073-5.533 3.453 0 2.182 2.414 3.323 4.227 3.859 1.741.535 3.789.736 5.635.736 1.945 0 3.924-.133 5.736-.871 1.81-.771 3.285-2.146 3.285-4.228 0-1.677-1.108-2.885-2.515-3.655-1.208-.639-3.153-1.07-4.531-1.443l-1.58-.397zm.706-3.022c-1.344 0-1.979-1.205-1.979-2.414 0-2.045 1.307-6.172 3.89-6.172 1.308 0 1.776 1.479 1.776 2.549 0 2.08-1.07 6.037-3.687 6.037m-4.493 6.407c1.307.875 2.949 1.344 4.494 1.68 1.141.232 3.422.504 3.422 2.111 0 1.877-2.516 2.283-3.958 2.283-2.183 0-6.171-.904-6.171-3.691-.001-1.376.905-2.247 2.213-2.383m20.928-6.805c3.552-.47 10.968-.707 10.968-5.639 0-2.579-2.451-3.557-4.664-3.557-5.434 0-11.571 4.563-11.571 10.301 0 3.623 2.886 5.502 6.206 5.502 1.877 0 3.822-.67 5.333-1.779.536-.401 2.583-2.214 2.583-2.885 0-.199-.202-.402-.4-.402-.604 0-2.45 2.954-5.468 2.954-2.014 0-3.055-1.478-3.055-3.39l.068-1.105zm.167-1.143c.336-2.148 2.481-7.045 5.099-7.045.771 0 1.106.74 1.106 1.44 0 1.379-.873 3.122-1.878 4.027-1.108 1.009-2.819 1.513-4.327 1.578m20.761-1.005c.472-.836 2.279-4.059 3.388-4.059.404 0 .47.336.47.641.099 1.139.505 1.808 1.745 1.808 1.608 0 2.649-1.607 2.649-3.085 0-1.274-.976-2.35-2.281-2.35-3.621 0-5.668 4.495-7.312 7.146l.37-1.511c.3-1.207.635-2.614.635-3.857 0-1.208-.703-1.777-1.843-1.777-1.88 0-3.69 1.312-4.933 2.616-.4.404-1.643 1.646-1.643 2.28 0 .234.201.406.403.406.736 0 1.912-2.553 3.083-2.553.302 0 .403.301.403.535 0 .672-.503 2.317-.706 2.953l-2.346 7.917c-.034.164-.167.671-.167.802 0 .506.804.406 1.106.406h.905c.536 0 1.911.1 2.347-.27.269-.202.438-.735.569-1.039l3.158-7.009z"/></g></svg>