<?xml version="1.0" encoding="utf-8"?>
<!-- Generator: Adobe Illustrator 16.0.0, SVG Export Plug-In . SVG Version: 6.00 Build 0)  -->
<!DOCTYPE svg PUBLIC "-//W3C//DTD SVG 1.1//EN" "http://www.w3.org/Graphics/SVG/1.1/DTD/svg11.dtd">
<svg version="1.1" id="图层_1" xmlns="http://www.w3.org/2000/svg" xmlns:xlink="http://www.w3.org/1999/xlink" x="0px" y="0px"
	 width="640px" height="226.5px" viewBox="0 9.5 640 226.5" enable-background="new 0 9.5 640 226.5" xml:space="preserve">
<path fill="#FFFFFF" d="M64.969,29.441h4.137V40.38h-1.15v-0.847H66.12v1.102h-1.15V29.441H64.969z M67.955,30.559h-1.836v7.857
	h1.836V30.559z M69.729,29.76h4.184v-2.012h1.182v2.012h4.408v1.15h-4.408v5.686h2.332v-4.328h1.15v6.099h-1.15v-0.654h-2.332v3.019
	c0,0.702,0.289,1.053,0.863,1.053h1.58c0.586,0,0.916-0.287,0.99-0.862c0.096-0.724,0.176-1.507,0.24-2.348
	c0.436,0.193,0.836,0.363,1.197,0.511c-0.105,0.885-0.213,1.646-0.318,2.284c-0.16,1.044-0.857,1.566-2.092,1.566h-1.869
	c-1.182,0-1.773-0.677-1.773-2.03v-3.193h-3.465v-5.43h1.15v4.313h2.314V30.91h-4.184L69.729,29.76L69.729,29.76z"/>
<path fill="#FFFFFF" d="M80.381,35.431c1.523-2.301,2.672-4.882,3.449-7.747l1.357,0.336c-0.441,1.352-0.916,2.614-1.422,3.786
	v11.657h-1.197v-9.159c-0.5,0.937-1.027,1.802-1.58,2.595C80.838,36.495,80.637,36.004,80.381,35.431 M84.74,41.434h6.236
	c0.768-2.048,1.652-4.971,2.66-8.767l1.438,0.431c-0.645,1.975-1.561,4.754-2.748,8.336h3.992v1.182H84.74V41.434z M85.076,30.575
	h5.629c-0.473-0.799-0.998-1.538-1.572-2.22l1.086-0.751c0.469,0.543,1.049,1.274,1.74,2.189l-1.182,0.782h5.254v1.182H85.076
	V30.575z M87.248,32.827c0.703,1.916,1.469,4.237,2.299,6.963l-1.324,0.383c-0.725-2.608-1.453-4.918-2.188-6.931L87.248,32.827z"/>
<path fill="#FFFFFF" d="M104.719,32.261c0.281,0,0.523,0.097,0.727,0.295c0.201,0.197,0.303,0.433,0.303,0.71
	s-0.098,0.515-0.295,0.715c-0.197,0.2-0.441,0.299-0.734,0.299c-0.293,0-0.537-0.099-0.734-0.299
	c-0.197-0.2-0.297-0.438-0.297-0.715s0.102-0.513,0.305-0.71C104.193,32.358,104.436,32.261,104.719,32.261 M104.719,39.454
	c0.281,0,0.523,0.1,0.727,0.296c0.201,0.197,0.303,0.436,0.303,0.719c0,0.288-0.102,0.528-0.303,0.722
	c-0.203,0.195-0.445,0.292-0.727,0.292c-0.283,0-0.525-0.097-0.727-0.292c-0.203-0.194-0.305-0.434-0.305-0.722
	c0-0.283,0.102-0.521,0.305-0.719C104.193,39.554,104.436,39.454,104.719,39.454"/>
<polygon fill="#FFFFFF" points="115.807,31.092 113.648,31.762 113.338,30.715 116.135,29.75 117.084,29.75 117.084,41.282 
	115.807,41.282 "/>
<path fill="#FFFFFF" d="M119.553,39.434l0.932-0.834c0.883,1.08,1.947,1.701,3.354,1.701c1.391,0,2.502-0.883,2.502-2.224v-0.034
	c0-1.422-1.324-2.208-3.205-2.208H122.4l-0.262-0.768l3.615-4.073h-5.596v-1.162h7.313v0.95l-3.598,3.99
	c1.994,0.164,3.777,1.129,3.777,3.223v0.033c0,2.045-1.701,3.451-3.828,3.451C121.908,41.479,120.484,40.645,119.553,39.434"/>
<rect x="130.018" y="39.565" fill="#FFFFFF" width="1.506" height="1.718"/>
<path fill="#FFFFFF" d="M133.615,38.207v-0.033c0-1.357,0.979-2.322,2.354-2.812c-1.062-0.491-1.962-1.309-1.962-2.634v-0.033
	c0-1.767,1.814-3.027,3.908-3.027c2.094,0,3.91,1.26,3.91,3.027v0.033c0,1.325-0.9,2.143-1.963,2.634
	c1.357,0.507,2.355,1.439,2.355,2.797v0.032c0,1.946-1.865,3.255-4.303,3.255C135.48,41.446,133.615,40.122,133.615,38.207
	 M140.91,38.174v-0.032c0-1.276-1.324-2.176-2.994-2.176c-1.668,0-2.992,0.9-2.992,2.176v0.032c0,1.162,1.111,2.144,2.992,2.144
	C139.799,40.318,140.91,39.336,140.91,38.174 M140.533,32.809v-0.032c0-1.129-1.127-1.98-2.617-1.98
	c-1.488,0-2.617,0.834-2.617,1.98v0.032c0,1.244,1.162,2.094,2.617,2.094C139.373,34.903,140.533,34.053,140.533,32.809"/>
<path fill="#FFFFFF" d="M143.547,29.01h15.395v1.229h-9.143c-0.043,1.187-0.1,2.3-0.168,3.337h7.41
	c-0.107,2.172-0.229,4.233-0.367,6.182c-0.096,1.182-0.367,2.033-0.814,2.555c-0.426,0.478-1.199,0.723-2.316,0.734
	c-0.586,0.022-1.576-0.021-2.971-0.128c-0.053-0.404-0.133-0.893-0.238-1.47c1.352,0.182,2.385,0.272,3.098,0.272
	c1.139,0.086,1.768-0.633,1.885-2.155c0.127-1.491,0.223-3.082,0.287-4.775h-6.068c-0.4,3.897-2.146,6.792-5.238,8.688
	c-0.246-0.33-0.559-0.709-0.943-1.135c2.992-1.82,4.596-4.535,4.809-8.145c0.1-1.166,0.166-2.485,0.199-3.96h-4.814V29.01H143.547z"
	/>
<path fill="#FFFFFF" d="M160.568,29.441h4.137V40.38h-1.15v-0.847h-1.836v1.102h-1.15L160.568,29.441L160.568,29.441z
	 M163.555,30.559h-1.836v7.857h1.836V30.559z M165.328,29.76h4.184v-2.012h1.182v2.012h4.408v1.15h-4.408v5.686h2.332v-4.328h1.15
	v6.099h-1.15v-0.654h-2.332v3.019c0,0.702,0.289,1.053,0.863,1.053h1.58c0.586,0,0.916-0.287,0.99-0.862
	c0.096-0.724,0.176-1.507,0.24-2.348c0.436,0.193,0.836,0.363,1.197,0.511c-0.105,0.885-0.213,1.646-0.318,2.284
	c-0.16,1.044-0.857,1.566-2.092,1.566h-1.869c-1.182,0-1.773-0.677-1.773-2.03v-3.193h-3.465v-5.43h1.15v4.313h2.314V30.91h-4.184
	L165.328,29.76L165.328,29.76z"/>
<path fill="#FFFFFF" d="M64.252,59.639h2.811v-6.515h1.309v6.515h11.275v1.246H72.65c1.332,2.916,3.775,4.924,7.33,6.021
	c-0.361,0.479-0.686,0.915-0.973,1.311c-3.828-1.459-6.398-3.901-7.715-7.33H68.37v5.781c1.213-0.49,2.502-1.056,3.865-1.692
	c0,0.5,0.021,0.979,0.064,1.438c-1.268,0.521-2.482,1.068-3.643,1.645c-0.426,0.234-0.818,0.494-1.182,0.781l-0.957-1.229
	c0.361-0.287,0.543-0.676,0.543-1.166v-5.558h-2.811v-1.247H64.252z M69.33,57.69c2.639-0.883,5.18-2.23,7.617-4.039l0.83,1.037
	c-2.49,1.82-5.1,3.215-7.824,4.185C69.781,58.51,69.574,58.117,69.33,57.69"/>
<path fill="#FFFFFF" d="M87.902,53.491l1.166-0.559c0.361,0.568,0.727,1.213,1.094,1.932h5.885v1.118H83.303v4.807
	c0,3.641-0.707,6.355-2.123,8.145c-0.266-0.352-0.57-0.715-0.91-1.086c1.17-1.437,1.768-3.815,1.789-7.139v-5.845h6.627
	C88.439,54.395,88.18,53.938,87.902,53.491 M84.135,63.6v-1.055h10.012v1.038c-0.963,1.039-2.09,1.94-3.377,2.707
	c1.539,0.618,3.34,1.019,5.406,1.207l-0.623,1.245c-2.375-0.33-4.398-0.915-6.068-1.758c-1.779,0.867-3.818,1.513-6.117,1.933
	c-0.17-0.34-0.389-0.724-0.654-1.149c2.107-0.33,3.957-0.826,5.549-1.484c-1.139-0.74-2.076-1.635-2.811-2.684H84.135z
	 M83.654,57.659h2.381v-1.342h1.213v1.342h4.52v-1.358h1.213v1.358h2.908v1.053H92.98v3.067h-1.213v-0.562h-4.52v0.576h-1.213
	v-3.083h-2.381L83.654,57.659L83.654,57.659z M92.486,63.6h-5.701c0.756,0.83,1.666,1.532,2.73,2.107
	C90.67,65.111,91.66,64.409,92.486,63.6 M87.248,60.198h4.521v-1.485h-4.521V60.198z"/>
<path fill="#FFFFFF" d="M104.719,57.683c0.281,0,0.523,0.099,0.727,0.296c0.201,0.196,0.303,0.434,0.303,0.71
	c0,0.277-0.098,0.515-0.295,0.714c-0.197,0.201-0.441,0.3-0.734,0.3c-0.293,0-0.537-0.099-0.734-0.3
	c-0.197-0.199-0.297-0.437-0.297-0.714c0-0.276,0.102-0.514,0.305-0.71C104.193,57.781,104.436,57.683,104.719,57.683
	 M104.719,64.877c0.281,0,0.523,0.1,0.727,0.295c0.201,0.197,0.303,0.438,0.303,0.721c0,0.285-0.102,0.527-0.303,0.722
	c-0.203,0.194-0.445,0.291-0.727,0.291c-0.283,0-0.525-0.097-0.727-0.291c-0.203-0.193-0.305-0.437-0.305-0.722
	c0-0.283,0.102-0.522,0.305-0.721C104.193,64.977,104.436,64.877,104.719,64.877"/>
<path fill="#FFFFFF" d="M113.697,64.857l0.932-0.834c0.885,1.078,1.947,1.701,3.354,1.701c1.391,0,2.504-0.886,2.504-2.226v-0.033
	c0-1.423-1.326-2.209-3.207-2.209h-0.736l-0.262-0.768l3.615-4.073h-5.594v-1.162h7.313v0.949l-3.6,3.992
	c1.996,0.163,3.779,1.128,3.779,3.222v0.033c0,2.044-1.701,3.45-3.828,3.45C116.053,66.902,114.629,66.068,113.697,64.857"/>
<polygon fill="#FFFFFF" points="125.832,56.515 123.672,57.186 123.361,56.139 126.158,55.173 127.107,55.173 127.107,66.705 
	125.832,66.705 "/>
<path fill="#FFFFFF" d="M129.773,61.014V60.98c0-3.207,1.912-5.921,4.857-5.921c2.943,0,4.809,2.683,4.809,5.889v0.032
	c0,3.205-1.896,5.922-4.842,5.922C131.637,66.902,129.773,64.219,129.773,61.014 M138.098,61.014V60.98
	c0-2.502-1.373-4.744-3.5-4.744c-2.143,0-3.484,2.191-3.484,4.711v0.032c0,2.502,1.375,4.744,3.518,4.744
	C136.775,65.725,138.098,63.516,138.098,61.014"/>
<path fill="#FFFFFF" d="M156.611,66.266c-0.361,0.428-0.648,0.812-0.861,1.15c-2.789-1.502-4.93-3.648-6.42-6.443v7.832h-1.277
	v-7.832c-1.299,2.762-3.482,5.033-6.549,6.812c-0.213-0.31-0.494-0.671-0.846-1.086c2.98-1.699,5.086-3.69,6.316-5.974h-6.092
	v-1.214h7.17v-6.196h1.277v6.196h7.059v1.214h-5.965C151.861,63.131,153.924,64.979,156.611,66.266 M142.223,54.959l0.91-0.75
	c1.15,1.299,2.215,2.518,3.195,3.657l-1.07,0.894C144.299,57.472,143.287,56.205,142.223,54.959 M151.039,57.93
	c1.117-1.203,2.102-2.433,2.953-3.689l1.15,0.83c-1.342,1.671-2.391,2.907-3.146,3.705L151.039,57.93z"/>
<path fill="#FFFFFF" d="M71.182,93.189c1.262-0.862,2.396-1.902,3.402-3.121c-0.543-1.642-0.889-3.709-1.039-6.205h-9.406v-1.07
	h3.977v-1.484h-3.32v-1.006h3.32v-1.629h1.182v1.629h3.146v1.006h-3.146v1.484h4.186c-0.065-1.266-0.123-2.666-0.176-4.199h1.229
	c0.006,1.496,0.045,2.896,0.121,4.199h5.309v1.07h-5.246c0.113,1.964,0.365,3.639,0.76,5.022c0.803-1.146,1.512-2.42,2.123-3.825
	l1.102,0.512c-0.818,1.762-1.74,3.318-2.762,4.671c0.33,0.782,0.719,1.44,1.166,1.972c0.275,0.32,0.531,0.48,0.766,0.48
	c0.287,0,0.479-0.213,0.576-0.639c0.127-0.576,0.25-1.3,0.367-2.173c0.426,0.19,0.809,0.334,1.148,0.431
	c-0.139,0.906-0.293,1.709-0.463,2.412c-0.266,0.946-0.74,1.422-1.422,1.422c-0.777,0-1.516-0.496-2.219-1.486
	c-0.287-0.393-0.549-0.844-0.783-1.35c-0.916,1.049-1.9,1.951-2.953,2.707C71.805,93.658,71.49,93.381,71.182,93.189 M66.391,88.367
	h2.188v-1.469h1.135v1.469h3.018v1.006h-3.018v1.484c0.975-0.08,2.002-0.164,3.082-0.254c-0.031,0.34-0.049,0.686-0.049,1.037
	c-0.957,0.062-1.969,0.141-3.033,0.23v2.339h-1.135v-2.233c-1.25,0.104-2.57,0.233-3.959,0.383l-0.256-1.15
	c1.266-0.068,2.672-0.16,4.215-0.271v-1.564h-3.512v-1.039c0.43-0.559,0.854-1.182,1.27-1.867h-1.813v-1.006h2.394
	c0.263-0.475,0.517-0.975,0.767-1.502l1.184,0.367c-0.219,0.4-0.432,0.777-0.641,1.135h4.633v1.006h-5.23
	C67.188,87.189,66.773,87.824,66.391,88.367 M75.605,79.76l0.783-0.783c1.074,0.81,1.947,1.527,2.619,2.156l-0.91,0.926
	C77.373,81.281,76.543,80.516,75.605,79.76"/>
<path fill="#FFFFFF" d="M85.635,81.548l1.166,0.496c-0.244,0.302-0.49,0.595-0.734,0.878h7.361v1.005
	c-0.883,1.028-2.055,1.914-3.514,2.66c1.768,0.548,3.924,0.828,6.469,0.837c-0.287,0.416-0.555,0.848-0.799,1.294
	c-2.848-0.217-5.211-0.715-7.09-1.493c-2.066,0.83-4.594,1.437-7.586,1.813c-0.182-0.394-0.404-0.778-0.672-1.151
	c2.689-0.271,4.973-0.717,6.852-1.34c-1.021-0.585-1.85-1.283-2.482-2.092c-0.799,0.766-1.627,1.453-2.484,2.059
	c-0.234-0.274-0.51-0.563-0.83-0.861C83.176,84.363,84.623,82.997,85.635,81.548 M81.26,80.43h6.891
	c-0.287-0.44-0.637-0.91-1.047-1.406l1.086-0.685c0.426,0.489,0.869,1.032,1.326,1.628l-0.734,0.463h6.756v2.987h-1.182v-1.933
	H82.441V83.4H81.26V80.43z M83.176,89.133h10.412v5.079h-1.182v-0.67h-8.049v0.67h-1.182L83.176,89.133L83.176,89.133z
	 M92.406,90.156h-8.049v2.363h8.049V90.156z M91.736,83.943h-6.109c0.719,0.853,1.664,1.547,2.834,2.084
	C89.818,85.447,90.91,84.753,91.736,83.943"/>
<path fill="#FFFFFF" d="M96.813,92.838h7.33v-0.91h-6.084v-0.83h6.084v-0.91h-4.359v0.416h-1.086V85.7h12.059v4.903h-1.086v-0.416
	h-4.408v0.91h6.1v0.829h-6.1v0.91h7.33v0.864h-15.78V92.838z M96.941,84.07h15.586v0.863H96.941V84.07z M98.826,79.168h11.816v4.568
	h-1.086v-0.432h-9.645v0.432h-1.086L98.826,79.168L98.826,79.168z M99.783,87.553h4.359V86.53h-4.359V87.553z M99.783,89.357h4.359
	v-1.039h-4.359V89.357z M109.557,79.998h-9.646v0.848h9.646V79.998z M99.912,82.475h9.646v-0.863h-9.646V82.475z M109.67,86.529
	h-4.408v1.022h4.408V86.529z M105.262,89.357h4.408v-1.039h-4.408V89.357z"/>
<path fill="#FFFFFF" d="M121.072,83.105c0.281,0,0.523,0.098,0.727,0.295c0.201,0.197,0.303,0.434,0.303,0.711
	c0,0.274-0.098,0.514-0.295,0.714c-0.197,0.2-0.441,0.3-0.734,0.3c-0.293,0-0.537-0.1-0.734-0.3c-0.197-0.2-0.297-0.438-0.297-0.714
	c0-0.277,0.102-0.514,0.305-0.711C120.547,83.203,120.789,83.105,121.072,83.105 M121.072,90.299c0.281,0,0.523,0.1,0.727,0.295
	c0.201,0.197,0.303,0.438,0.303,0.721c0,0.287-0.102,0.527-0.303,0.722c-0.203,0.196-0.445,0.292-0.727,0.292
	c-0.283,0-0.525-0.096-0.727-0.292c-0.203-0.193-0.305-0.435-0.305-0.722c0-0.282,0.102-0.522,0.305-0.721
	C120.547,90.398,120.789,90.299,121.072,90.299"/>
<path fill="#FFFFFF" d="M130.051,90.279l0.932-0.834c0.885,1.08,1.947,1.701,3.354,1.701c1.391,0,2.504-0.885,2.504-2.225v-0.033
	c0-1.423-1.326-2.209-3.207-2.209h-0.736l-0.262-0.769l3.615-4.072h-5.594v-1.162h7.313v0.949l-3.6,3.99
	c1.996,0.164,3.779,1.129,3.779,3.224v0.032c0,2.045-1.701,3.451-3.828,3.451C132.406,92.324,130.982,91.49,130.051,90.279"/>
<path fill="#FFFFFF" d="M140.107,89.053V89.02c0-1.356,0.981-2.321,2.355-2.812c-1.063-0.491-1.963-1.309-1.963-2.635v-0.031
	c0-1.768,1.816-3.027,3.91-3.027c2.094,0,3.91,1.26,3.91,3.027v0.031c0,1.326-0.9,2.144-1.963,2.635
	c1.357,0.507,2.355,1.439,2.355,2.797v0.033c0,1.945-1.865,3.254-4.303,3.254S140.107,90.967,140.107,89.053 M147.404,89.02v-0.033
	c0-1.273-1.326-2.174-2.994-2.174s-2.994,0.899-2.994,2.174v0.033c0,1.162,1.113,2.144,2.994,2.144
	C146.291,91.163,147.404,90.182,147.404,89.02 M147.027,83.654v-0.033c0-1.127-1.129-1.979-2.617-1.979
	c-1.488,0-2.617,0.834-2.617,1.979v0.033c0,1.244,1.162,2.094,2.617,2.094S147.027,84.898,147.027,83.654"/>
<path fill="#FFFFFF" d="M156.625,89.412h-6.035l-0.328-0.934l6.479-7.883h1.129v7.735h1.783v1.08h-1.783v2.715h-1.244
	L156.625,89.412L156.625,89.412z M156.625,88.332V82.43l-4.809,5.902H156.625z"/>
<path fill="#FFFFFF" d="M161.547,86.436v-0.033c0-3.204,1.912-5.922,4.857-5.922c2.943,0,4.809,2.686,4.809,5.891v0.031
	c0,3.207-1.896,5.924-4.842,5.924C163.41,92.325,161.547,89.641,161.547,86.436 M169.871,86.436v-0.033
	c0-2.502-1.373-4.742-3.5-4.742c-2.143,0-3.484,2.191-3.484,4.711v0.031c0,2.505,1.375,4.744,3.518,4.744
	C168.548,91.146,169.871,88.938,169.871,86.436"/>
<path fill="#FFFFFF" d="M172.48,92.902c4.641-2.685,7.096-7.389,7.361-14.117h1.406c-0.059,1.139-0.172,2.225-0.336,3.259
	c1.32,5.321,3.801,8.825,7.441,10.507c-0.447,0.491-0.842,0.954-1.182,1.389c-3.162-1.787-5.416-4.953-6.764-9.494
	c-1.166,4.389-3.473,7.611-6.922,9.671C173.199,93.723,172.863,93.318,172.48,92.902"/>
<path fill="#FFFFFF" d="M231.167,34.807h0.959v-5.382h1.652c0.139-0.649,0.264-1.262,0.375-1.837l1.166,0.207
	c-0.187,0.56-0.364,1.103-0.535,1.63h2.388v12.121c0,1.075-0.479,1.612-1.438,1.612c-0.606,0-1.123-0.015-1.549-0.046
	c-0.032-0.31-0.096-0.677-0.191-1.103c0.543,0.075,1.031,0.112,1.469,0.112c0.416,0,0.623-0.245,0.623-0.734v-5.494h-2.874v1.709
	c0,2.342-0.437,4.242-1.31,5.701c-0.234-0.309-0.527-0.607-0.879-0.895c0.734-1.181,1.103-2.821,1.103-4.919v-1.596h-0.959V34.807z
	 M236.086,30.511h-2.874v4.296h2.874V30.511z M233.689,31.74l0.959-0.367c0.267,0.574,0.575,1.342,0.927,2.299l-0.99,0.368
	C234.329,33.209,234.031,32.444,233.689,31.74 M233.689,37.298l0.959-0.367c0.33,0.798,0.666,1.729,1.007,2.794l-0.99,0.367
	C234.388,39.145,234.063,38.213,233.689,37.298 M240.366,34.615c0,2.737-0.134,4.631-0.399,5.686
	c-0.277,1.224-0.799,2.272-1.566,3.146c-0.318-0.406-0.632-0.761-0.94-1.071c0.681-0.723,1.144-1.629,1.389-2.715
	c0.245-1.064,0.367-2.656,0.367-4.774v-1.422h5.031v7.634c0,0.384,0.17,0.575,0.511,0.575h0.304c0.319,0,0.489-0.287,0.511-0.863
	c0.043-0.553,0.091-1.469,0.144-2.746c0.394,0.18,0.814,0.356,1.262,0.527c-0.074,1.064-0.144,1.964-0.208,2.698
	c-0.106,1.097-0.602,1.646-1.484,1.646h-0.862c-0.884,0-1.326-0.522-1.326-1.566v-6.755H240.366z M237.747,30.176h8.72v1.182h-8.72
	V30.176z M240.542,28.051l1.069-0.494c0.416,0.67,0.783,1.314,1.103,1.932L241.628,30C241.309,29.319,240.946,28.669,240.542,28.051
	"/>
<path fill="#FFFFFF" d="M253.27,31.725l0.942,0.911c-2.065,1.618-4.008,2.938-5.829,3.96c-0.33-0.437-0.65-0.783-0.958-1.039
	C249.512,34.493,251.46,33.216,253.27,31.725 M248.032,41.371h6.644v-4.185h-4.999v-1.213h11.371v1.213h-5.015v4.185h6.659v1.214
	h-14.66V41.371z M248.128,29.713h6.938c-0.244-0.463-0.551-0.986-0.918-1.566l1.182-0.574c0.437,0.628,0.814,1.246,1.134,1.853
	l-0.583,0.287h6.731v3.098h-1.311v-1.884h-11.865v1.884h-1.31L248.128,29.713L248.128,29.713z M257.374,31.741
	c2.236,1.331,4.179,2.587,5.829,3.77l-0.91,1.101c-1.607-1.256-3.503-2.571-5.686-3.945L257.374,31.741z"/>
<path fill="#FFFFFF" d="M263.842,33.897h1.988l0.71-5.286h11.084c-0.086,1.97-0.166,3.731-0.24,5.286h2.22v1.149h-2.268
	c-0.08,1.699-0.149,3.115-0.207,4.248h1.82v1.119h-1.893c-0.102,1.016-0.349,1.709-0.742,2.076c-0.427,0.404-1.23,0.605-2.412,0.605
	c-0.83,0-1.65-0.032-2.459-0.096c-0.064-0.532-0.149-1.006-0.256-1.42c1.043,0.148,1.933,0.222,2.667,0.222
	c0.703,0,1.182-0.127,1.438-0.383c0.181-0.169,0.314-0.505,0.399-1.005h-10.572v-1.198l0.559-4.169h-1.836V33.897L263.842,33.897z
	 M266.443,39.294h9.359c0.08-1.213,0.157-2.629,0.231-4.248h-9.039L266.443,39.294z M276.25,29.729h-8.56l-0.543,4.168h8.943
	C276.144,32.62,276.197,31.229,276.25,29.729 M269.687,36.26l0.91-0.783c0.884,0.799,1.714,1.646,2.491,2.54l-1.038,0.894
	C271.283,38.006,270.495,37.123,269.687,36.26 M270.006,30.895l0.927-0.799c0.883,0.809,1.714,1.655,2.491,2.539l-1.055,0.896
	C271.709,32.699,270.922,31.821,270.006,30.895"/>
<path fill="#FFFFFF" d="M290.64,30.783h1.117v2.667c0,1.394-0.09,2.597-0.271,3.609h0.911v3.96c0,0.618,0.276,0.927,0.83,0.927
	h0.623c0.511,0,0.804-0.278,0.878-0.83c0.043-0.352,0.091-1.066,0.144-2.141c0.404,0.182,0.793,0.346,1.166,0.495
	c-0.106,1.224-0.209,2.033-0.304,2.427c-0.181,0.777-0.793,1.166-1.836,1.166h-0.942c-1.097,0-1.645-0.633-1.645-1.901V37.92
	c-0.564,2.237-2.002,4.089-4.313,5.559c-0.213-0.362-0.463-0.709-0.75-1.039c-0.139,0.384-0.416,0.623-0.831,0.719
	c-0.415,0.095-1.097,0.107-2.044,0.032c-0.043-0.363-0.106-0.73-0.191-1.102c0.596,0.074,1.069,0.113,1.421,0.113
	c0.447,0,0.671-0.225,0.671-0.672v-5.589h-3.002v1.453c0.01,2.523-0.427,4.519-1.31,5.989c-0.256-0.32-0.55-0.618-0.879-0.894
	c0.724-1.129,1.092-2.886,1.103-5.271v-1.277h-0.959v-1.086h0.959v-5.382h1.645c0.139-0.586,0.266-1.197,0.383-1.837l1.166,0.208
	c-0.181,0.532-0.362,1.075-0.543,1.629h2.523v12.248c0,0.267-0.037,0.496-0.111,0.688c1.703-1.034,2.858-2.188,3.465-3.465
	c0.617-1.215,0.927-2.94,0.927-5.175L290.64,30.783L290.64,30.783z M285.273,30.559h-3.002v4.296h3.002V30.559z M282.862,31.805
	l0.958-0.367c0.287,0.639,0.596,1.404,0.926,2.299l-0.99,0.367C283.501,33.274,283.201,32.507,282.862,31.805 M282.862,37.362
	l0.958-0.368c0.33,0.799,0.665,1.731,1.006,2.795l-0.99,0.368C283.56,39.209,283.234,38.278,282.862,37.362 M287.637,28.514h7.188
	v9.551h-1.117v-8.368h-4.951v8.591h-1.118v-9.774H287.637z"/>
<path fill="#FFFFFF" d="M297.155,30.336h1.613c0.394-0.969,0.719-1.853,0.974-2.652l1.342,0.383
	c-0.335,0.816-0.66,1.571-0.975,2.269h3.193v12.712h-1.276v-1.247h-3.595v1.358h-1.276V30.336z M302.026,31.534h-3.595v3.88h3.595
	V31.534z M298.432,40.604h3.595v-4.041h-3.595V40.604z M303.543,33.61c1.001-1.587,1.848-3.562,2.54-5.926l1.341,0.336
	c-0.271,0.804-0.548,1.56-0.83,2.268h5.144c-0.128,5.472-0.234,8.916-0.319,10.332c-0.075,1.672-0.953,2.508-2.636,2.508
	c-0.969,0-1.953-0.033-2.954-0.096c-0.065-0.533-0.15-1.006-0.256-1.422h0.048c1.064,0.149,2.039,0.224,2.923,0.224
	c0.97,0,1.49-0.511,1.565-1.533c0.115-1.586,0.202-4.525,0.255-8.816h-4.279c-0.464,1.027-0.942,1.933-1.438,2.715
	C304.357,33.999,303.99,33.801,303.543,33.61 M304.948,34.696l0.975-0.719c1.182,1.395,2.124,2.603,2.827,3.625l-1.183,0.83
	C306.812,37.198,305.938,35.952,304.948,34.696"/>
<polygon fill="#FFFFFF" points="315.525,31.092 313.366,31.762 313.056,30.715 315.853,29.75 316.801,29.75 316.801,41.282 
	315.525,41.282 "/>
<rect x="319.711" y="39.565" fill="#FFFFFF" width="1.506" height="1.718"/>
<path fill="#FFFFFF" d="M323.326,39.664l0.851-0.933c0.997,0.965,2.095,1.571,3.255,1.571c1.637,0,2.766-1.08,2.766-2.535v-0.034
	c0-1.423-1.18-2.404-2.848-2.404c-0.965,0-1.732,0.295-2.403,0.654l-0.867-0.572l0.327-5.578h6.593v1.194h-5.464l-0.245,3.664
	c0.67-0.295,1.31-0.506,2.257-0.506c2.225,0,3.959,1.324,3.959,3.5v0.033c0,2.24-1.701,3.761-4.09,3.761
	C325.779,41.479,324.355,40.693,323.326,39.664"/>
<path fill="#FFFFFF" d="M332.609,35.461c1.471-2.107,2.608-4.683,3.418-7.728l1.229,0.35c-0.437,1.421-0.927,2.753-1.47,3.994
	v11.306h-1.182v-8.92c-0.463,0.836-0.953,1.616-1.47,2.34C332.979,36.356,332.802,35.909,332.609,35.461 M337.002,34.215h7.857
	l-0.879-0.494c0.629-0.83,1.154-1.678,1.582-2.539l1.182,0.574c-0.494,0.81-1.041,1.629-1.637,2.459h3.488v1.119h-11.595
	L337.002,34.215L337.002,34.215z M337.593,30.016h5.056c-0.367-0.629-0.774-1.251-1.223-1.869l1.07-0.623
	c0.479,0.64,0.922,1.289,1.325,1.949l-0.95,0.543h5.166v1.117h-10.444V30.016z M338.439,36.915h8.72v6.452h-1.214v-1.038h-6.293
	v1.038h-1.213V36.915L338.439,36.915z M338.918,31.789l1.021-0.623c0.619,0.852,1.155,1.634,1.613,2.347l-1.086,0.687
	C339.946,33.285,339.43,32.481,338.918,31.789 M345.945,38.017h-6.293v3.241h6.293V38.017z"/>
<path fill="#FFFFFF" d="M231.65,64.857l0.932-0.834c0.883,1.078,1.947,1.701,3.354,1.701c1.391,0,2.503-0.886,2.503-2.226v-0.033
	c0-1.423-1.325-2.209-3.206-2.209h-0.736l-0.262-0.768l3.615-4.073h-5.596v-1.162h7.313v0.949l-3.598,3.992
	c1.994,0.163,3.778,1.128,3.778,3.222v0.033c0,2.044-1.7,3.45-3.828,3.45C234.006,66.902,232.582,66.068,231.65,64.857"/>
<path fill="#FFFFFF" d="M250.055,53.475l-0.239,0.367c1.726,2.842,4.12,4.875,7.187,6.1c-0.33,0.521-0.612,1.001-0.847,1.437
	c-3.13-1.638-5.499-3.753-7.106-6.339c-1.575,2.458-3.965,4.647-7.17,6.563c-0.234-0.386-0.506-0.806-0.814-1.262
	c3.321-1.842,5.791-4.131,7.409-6.867H250.055z M248.299,58.968h1.453v9.886h-1.453V58.968z"/>
<path fill="#FFFFFF" d="M257.291,67.688c1.787-1.512,2.814-3.748,3.081-6.707l1.357,0.207c-0.128,1.021-0.33,1.977-0.606,2.858
	c0.867,1.667,2.161,2.638,3.879,2.915v-7.466h-4.215v0.687h-1.293v-6.404h11.865v6.404h-1.294v-0.687h-3.736v3.019h5.988v1.166
	h-5.988v3.377c2.033,0.053,4.38,0.029,7.042-0.072c-0.17,0.428-0.324,0.867-0.463,1.326c-2.736,0.021-5.041,0.01-6.915-0.03
	c-2.475-0.032-4.27-0.986-5.382-2.859c-0.606,1.379-1.432,2.55-2.476,3.515C257.892,68.518,257.609,68.104,257.291,67.688
	 M270.065,54.944h-9.278v3.386h9.278V54.944z"/>
<path fill="#FFFFFF" d="M273.802,65.788c0.719-0.075,1.475-0.163,2.268-0.265v-4.83h-1.964v-1.15h1.964v-3.754h-2.172V54.64h5.462
	v1.149h-2.124v3.754h1.853v1.15h-1.853v4.678c0.639-0.089,1.299-0.186,1.979-0.287c-0.043,0.426-0.068,0.836-0.079,1.23
	c-1.991,0.256-3.716,0.494-5.175,0.719L273.802,65.788z M279.295,64.748c1.391-0.846,2.844-1.788,4.36-2.826v-4.646h-4.088v-1.151
	h4.088v-2.842h1.214v2.842h4.535v1.151h-4.535v1.421c0.267,0.873,0.577,1.682,0.935,2.426c0.921-0.893,1.689-1.718,2.308-2.474
	l1.038,0.878c-0.879,0.868-1.813,1.747-2.803,2.636c0.926,1.601,2.078,2.841,3.457,3.72c-0.062,0.096-0.202,0.262-0.415,0.495
	c-0.234,0.245-0.399,0.437-0.495,0.576c-1.746-1.263-3.088-3.078-4.024-5.446v5.157c0,1.267-0.66,1.901-1.98,1.901
	c-0.521,0-1.08-0.006-1.678-0.017c-0.063-0.405-0.147-0.842-0.254-1.31c0.628,0.072,1.197,0.109,1.708,0.109
	c0.66,0,0.99-0.322,0.99-0.974v-3.042c-1.103,0.766-2.289,1.621-3.562,2.562L279.295,64.748z M279.647,58.984l0.974-0.591
	c0.692,0.905,1.379,1.906,2.061,3.001l-1.022,0.703C280.925,60.852,280.254,59.815,279.647,58.984 M285.731,54.225l0.703-0.799
	c0.756,0.501,1.446,1.018,2.076,1.549l-0.767,0.879C287.115,55.268,286.445,54.725,285.731,54.225"/>
<path fill="#FFFFFF" d="M290.155,64.908c0.771-0.314,1.55-0.641,2.332-0.982v-5.517h-2.14v-1.15h2.14v-3.992h1.182v3.992h1.948v1.15
	h-1.948V63.4c0.596-0.272,1.197-0.553,1.805-0.84c0.021,0.446,0.069,0.848,0.144,1.197c-1.555,0.702-3.21,1.495-4.967,2.381
	L290.155,64.908z M302.181,55.231h-6.228v-1.149h8.495v1.165l-6.292,3.976h7.251c-0.128,2.949-0.251,5.229-0.368,6.835
	c-0.138,1.629-0.889,2.442-2.252,2.442c-0.468,0-1.187-0.017-2.155-0.048c-0.074-0.532-0.165-0.994-0.271-1.391
	c0.734,0.117,1.479,0.177,2.235,0.177c0.756,0,1.172-0.452,1.246-1.357c0.106-1.331,0.213-3.168,0.318-5.509h-1.709
	c-0.473,3.582-2.128,6.42-4.966,8.511c-0.298-0.373-0.596-0.696-0.894-0.974c2.64-1.826,4.197-4.34,4.671-7.537h-2.044
	c-0.612,2.667-2.127,4.863-4.544,6.595c-0.255-0.308-0.532-0.616-0.83-0.925c2.204-1.507,3.599-3.396,4.184-5.67h-1.9V59.16
	L302.181,55.231z"/>
<polygon fill="#FFFFFF" points="238.242,81.855 231.944,81.855 231.944,80.678 239.714,80.678 239.714,81.643 234.514,92.127 
	233.073,92.127 "/>
<path fill="#FFFFFF" d="M241.297,80.303h2.3c0.03-0.555,0.048-1.166,0.048-1.838h1.182c0,0.666-0.014,1.278-0.04,1.838h3.585
	c-0.053,1.469-0.111,2.655-0.176,3.562c-0.063,0.968-0.25,1.617-0.559,1.947c-0.276,0.33-0.81,0.494-1.596,0.494
	c-0.32,0-0.735-0.006-1.248-0.016c-0.073-0.425-0.164-0.826-0.271-1.197c0.628,0.063,1.112,0.096,1.453,0.096
	c0.618,0,0.953-0.336,1.007-1.006c0.085-1.055,0.145-1.984,0.176-2.795h-2.452c-0.09,2.234-1.089,4.135-2.995,5.7
	c-0.244-0.288-0.553-0.579-0.925-0.878c1.649-1.234,2.555-2.842,2.716-4.822h-2.205V80.303L241.297,80.303z M256.709,92.359
	c-0.396,0.436-0.726,0.842-0.991,1.214c-2.651-0.905-4.77-2.319-6.356-4.241v4.992h-1.214v-5.016
	c-1.788,1.948-3.928,3.435-6.42,4.455c-0.244-0.318-0.554-0.682-0.926-1.087c2.422-0.823,4.567-2.036,6.437-3.64h-6.148V87.92h7.059
	v-1.789h1.214v1.789h7.139v1.118h-6.284C251.936,90.704,254.1,91.811,256.709,92.359 M249.745,79.872h5.813v6.291h-1.181v-0.815
	h-3.45v0.863h-1.182V79.872z M254.377,80.957h-3.449v3.305h3.449V80.957z"/>
<path fill="#FFFFFF" d="M263.016,82.568l0.942,0.912c-2.065,1.617-4.008,2.938-5.829,3.959c-0.33-0.437-0.65-0.781-0.958-1.037
	C259.258,85.338,261.206,84.062,263.016,82.568 M257.778,92.215h6.644v-4.184h-4.999v-1.215h11.371v1.215h-5.015v4.184h6.659v1.217
	h-14.66V92.215z M257.874,80.559h6.938c-0.244-0.465-0.551-0.985-0.918-1.565l1.182-0.574c0.437,0.627,0.814,1.246,1.134,1.853
	l-0.583,0.287h6.731v3.099h-1.31v-1.884h-11.865v1.884h-1.31L257.874,80.559L257.874,80.559z M267.12,82.586
	c2.236,1.33,4.179,2.586,5.829,3.77l-0.91,1.103c-1.607-1.256-3.503-2.572-5.686-3.944L267.12,82.586z"/>
<path fill="#FFFFFF" d="M278.746,81.548l1.166,0.496c-0.244,0.302-0.489,0.595-0.734,0.878h7.361v1.005
	c-0.883,1.028-2.054,1.914-3.513,2.66c1.768,0.548,3.924,0.828,6.468,0.837c-0.287,0.416-0.554,0.848-0.798,1.294
	c-2.849-0.217-5.212-0.715-7.091-1.493c-2.066,0.83-4.594,1.437-7.586,1.813c-0.181-0.394-0.404-0.778-0.671-1.151
	c2.688-0.271,4.973-0.717,6.852-1.34c-1.022-0.585-1.85-1.283-2.483-2.092c-0.799,0.766-1.626,1.453-2.483,2.059
	c-0.235-0.274-0.511-0.563-0.83-0.861C276.287,84.363,277.735,82.997,278.746,81.548 M274.371,80.43h6.891
	c-0.287-0.44-0.636-0.91-1.046-1.406l1.086-0.685c0.426,0.489,0.868,1.032,1.326,1.628l-0.735,0.463h6.756v2.987h-1.182v-1.933
	h-11.914V83.4h-1.182V80.43z M276.287,89.133H286.7v5.079h-1.182v-0.67h-8.049v0.67h-1.183L276.287,89.133L276.287,89.133z
	 M285.519,90.156h-8.049v2.363h8.049V90.156z M284.848,83.943h-6.108c0.719,0.853,1.663,1.547,2.834,2.084
	C282.931,85.447,284.022,84.753,284.848,83.943"/>
<path fill="#FFFFFF" d="M295.494,80.596h1.211l5.217,11.532h-1.391l-1.341-3.026h-6.233l-1.356,3.026h-1.325L295.494,80.596z
	 M298.684,87.939l-2.602-5.838l-2.617,5.838H298.684z"/>
<path fill="#FFFFFF" d="M303.375,90.279l0.932-0.834c0.883,1.08,1.947,1.701,3.354,1.701c1.391,0,2.503-0.885,2.503-2.225v-0.033
	c0-1.423-1.325-2.209-3.206-2.209h-0.736l-0.262-0.769l3.615-4.072h-5.596v-1.162h7.313v0.949l-3.598,3.99
	c1.994,0.164,3.778,1.129,3.778,3.224v0.032c0,2.045-1.7,3.451-3.828,3.451C305.73,92.324,304.307,91.49,303.375,90.279"/>
<path fill="#FFFFFF" d="M313.432,89.053V89.02c0-1.356,0.98-2.321,2.355-2.812c-1.063-0.491-1.963-1.309-1.963-2.635v-0.031
	c0-1.768,1.815-3.027,3.909-3.027c2.094,0,3.91,1.26,3.91,3.027v0.031c0,1.326-0.899,2.144-1.964,2.635
	c1.359,0.507,2.355,1.439,2.355,2.797v0.033c0,1.945-1.864,3.254-4.302,3.254C315.297,92.291,313.432,90.967,313.432,89.053
	 M320.727,89.02v-0.033c0-1.273-1.324-2.174-2.993-2.174c-1.668,0-2.993,0.899-2.993,2.174v0.033c0,1.162,1.112,2.144,2.993,2.144
	C319.615,91.162,320.727,90.182,320.727,89.02 M320.351,83.654v-0.033c0-1.127-1.128-1.979-2.617-1.979
	c-1.488,0-2.617,0.834-2.617,1.979v0.033c0,1.244,1.161,2.094,2.617,2.094S320.351,84.898,320.351,83.654"/>
<path fill="#FFFFFF" d="M323.898,86.436v-0.033c0-3.204,1.912-5.922,4.856-5.922s4.81,2.686,4.81,5.891v0.031
	c0,3.207-1.896,5.924-4.842,5.924C325.764,92.325,323.898,89.641,323.898,86.436 M332.225,86.436v-0.033
	c0-2.502-1.375-4.742-3.5-4.742c-2.145,0-3.484,2.191-3.484,4.711v0.031c0,2.505,1.374,4.744,3.517,4.744
	C330.9,91.146,332.225,88.938,332.225,86.436"/>
<path fill="#FFFFFF" d="M206.382,31.936h7.605v1.21h-7.605V31.936z M206.382,35.763h7.605v1.21h-7.605V35.763z"/>
<path fill="#FFFFFF" d="M206.382,57.491h7.605v1.21h-7.605V57.491z M206.382,61.318h7.605v1.209h-7.605V61.318z"/>
<path fill="#FFFFFF" d="M206.382,83.047h7.605v1.21h-7.605V83.047z M206.382,86.874h7.605v1.21h-7.605V86.874z"/>
<polygon fill="#FFFFFF" points="50.772,29.602 46.356,29.602 47.24,27.592 49.89,27.592 "/>
<rect x="43.014" y="30.702" fill="#FFFFFF" width="11.102" height="1.24"/>
<polygon fill="#FFFFFF" points="48.563,33.87 54.894,36.071 54.894,33.125 42.233,33.125 42.233,36.071 "/>
<polygon fill="#FFFFFF" points="48.563,35.027 40.303,37.897 43.608,42.952 53.705,42.952 56.826,37.897 "/>
<polygon fill="#FFFFFF" points="50.772,54.811 46.356,54.811 47.24,52.799 49.89,52.799 "/>
<rect x="43.014" y="55.907" fill="#FFFFFF" width="11.102" height="1.245"/>
<polygon fill="#FFFFFF" points="48.563,59.077 54.894,61.279 54.894,58.336 42.233,58.336 42.233,61.279 "/>
<polygon fill="#FFFFFF" points="48.563,60.231 40.303,63.104 43.608,68.161 53.705,68.161 56.826,63.104 "/>
<polygon fill="#FFFFFF" points="50.772,80.082 46.356,80.082 47.24,78.07 49.89,78.07 "/>
<rect x="43.014" y="81.182" fill="#FFFFFF" width="11.102" height="1.242"/>
<polygon fill="#FFFFFF" points="48.563,84.348 54.894,86.553 54.894,83.607 42.233,83.607 42.233,86.553 "/>
<polygon fill="#FFFFFF" points="48.563,85.504 40.303,88.375 43.608,93.436 53.705,93.436 56.826,88.375 "/>
</svg>
