<svg xmlns="http://www.w3.org/2000/svg" width="640" height="59" viewBox="0.625 0 640 59" enable-background="new 0.625 0 640 59"><path fill="#fff" d="M29.987 31.57v-5.466h37.199v5.466h-37.199zm58.873 12.764c-4.492.553-9.491 1.326-15.002 2.318l-.766-4.644c.407-.104 1.019-.221 1.837-.329 2.55-.332 4.49-.605 5.817-.83 1.428-5.74 2.652-11.489 3.674-17.234l4.286.996c-.715 2.432-1.736 6.353-3.062 11.767-.512 1.769-.868 3.095-1.072 3.978l4.439-.662c-.1 1.327-.151 2.872-.151 4.64zm-15.308-22.374v-4.642h15.92v4.642h-15.92zm3.215 16.241c-.715-4.748-1.531-9.333-2.449-13.755l3.827-.828c.612 3.095 1.478 7.625 2.603 13.589l-3.981.994zm3.367-21.212c-.103-.438-.306-1.215-.612-2.318-.612-1.989-1.071-3.424-1.377-4.311l4.592-.83c.101.442.306 1.16.612 2.154.51 1.77.918 3.206 1.225 4.309l-4.44.996zm10.103 32.152v-20.552h6.276v-18.893h4.592v7.125h9.185v4.478h-9.185v7.292h7.654v20.55h-4.286v-2.481h-9.951v2.481h-4.285zm4.286-16.075v9.278h9.951v-9.278h-9.951zm23.054-1.33v-4.474h17.451v4.474h-6.43v9.115c.918-.105 2.244-.271 3.98-.496 1.837-.222 3.162-.388 3.98-.498v4.645c-5.817.553-12.299 1.322-19.441 2.316l-.918-4.476c.918-.106 2.296-.272 4.133-.495 1.631-.109 2.856-.222 3.674-.332v-9.779h-6.429zm-1.073-9.61v-4.642h19.9c-.206-3.535-.306-6.133-.306-7.789h4.746c0 3.312.05 5.91.153 7.789h11.94v4.642h-11.634v.995c.509 7.953 1.581 14.031 3.214 18.229.612 1.547 1.428 2.319 2.45 2.319.815 0 1.325-.606 1.531-1.824.406-1.877.765-3.979 1.071-6.297 1.122.771 2.397 1.438 3.827 1.986-.306 2.317-.766 4.643-1.378 6.961-1.021 3.094-2.755 4.584-5.205 4.478-2.858 0-5.154-2.318-6.889-6.962-1.634-4.526-2.705-10.827-3.215-18.896v-.994l-20.205.005zm31.077-4.641c-1.634-1.988-3.114-3.646-4.439-4.972l3.214-2.485c.51.555 1.325 1.383 2.45 2.485 1.019 1.106 1.734 1.88 2.143 2.319l-3.368 2.653zm17.549 12.43c-1.124-1.213-2.808-2.816-5.051-4.805.203.223-.053 0-.766-.664l2.909-3.313c.918.774 2.244 1.88 3.98 3.313.918.772 1.581 1.324 1.99 1.656l-3.062 3.813zm1.684 8.286c-1.328 5.193-2.196 8.84-2.603 10.938l-4.439-1.324c.815-2.979 1.99-7.846 3.521-14.584.51.109 1.225.332 2.143.662 1.019.33 1.734.607 2.144.828-.205.775-.459 1.933-.766 3.48zm-.766-19.39c-.612-.662-1.583-1.601-2.908-2.818-1.225-1.213-2.196-2.098-2.909-2.649l2.755-3.312c.612.553 1.734 1.49 3.368 2.814 1.225.995 2.144 1.771 2.756 2.318l-3.062 3.647zm4.594 5.303c-.306-.438-.766-1.049-1.378-1.822-.612-.771-1.124-1.324-1.531-1.656 3.265-3.203 5.714-6.961 7.348-11.271l4.745.496c-.206.332-.459.83-.766 1.492-.306.663-.562 1.16-.766 1.492h17.451v3.979h-19.594c-.612.994-1.277 1.988-1.99 2.982h19.441c-.104.555-.153 2.155-.153 4.807-.103 2.103-.153 3.758-.153 4.975h3.215v3.979h-3.215c-.104 2.104-.152 4.092-.152 5.969h2.602v3.812h-2.755c-.206 3.864-2.246 5.743-6.123 5.635h-6.124c-.104-.556-.409-1.383-.918-2.484-.104-.555-.206-.938-.307-1.158h5.971c1.938.105 3.009-.557 3.215-1.988h-18.676l.918-9.776h-3.062v-3.979h3.521l.612-7.127-1.376 1.643zm18.215 15.413c.101-1.215.152-3.205.152-5.967h-13.777l-.611 5.967h8.113c-1.125-1.104-2.449-2.209-3.98-3.312l2.143-2.65c1.734 1.22 3.315 2.379 4.746 3.48l-2.143 2.482h5.357zm-12.705-15.743l-.612 5.803h7.653c-.611-.555-1.53-1.326-2.756-2.32-.611-.552-1.07-.938-1.377-1.16l2.297-2.318h-5.205v-.005zm13.013 5.8v-5.801h-7.501c.713.439 1.684 1.16 2.909 2.152.612.555 1.071.939 1.378 1.159l-2.143 2.485 5.357.005zm13.713 17.566v-4.806h13.777v-32.316h5.204v11.604h14.697v4.973h-14.697v15.745h17.451v4.811h-36.433v-.011zm50.147-18.726c.203 9.062-1.072 16.076-3.827 21.049-1.431-1.438-2.655-2.543-3.675-3.314 1.326-2.539 2.193-5.023 2.604-7.457.407-2.43.612-5.967.612-10.605v-14.92h14.849c-.306-1.326-.611-2.486-.918-3.48l5.357-.332c.307 1.105.613 2.377.919 3.812h13.471v4.145h-29.392v11.102zm28.32 19.06c-.306.664-.512 1.16-.612 1.49-5.613-.771-10.103-2.045-13.471-3.812-3.367 1.77-7.859 3.203-13.471 4.312-.512-1.439-1.175-2.875-1.99-4.312 4.999-.66 8.674-1.436 11.022-2.318-2.043-1.438-4.033-3.479-5.97-6.131h-2.449v-3.813h24.34v3.979c-1.94 2.318-4.186 4.311-6.736 5.967 2.959.887 6.479 1.438 10.562 1.658-.306.549-.716 1.543-1.225 2.98zm-28.32-23.038v-3.978h5.205v-3.149h4.287v3.149h9.49v-3.149h4.133v3.149h5.971v3.978h-5.971v6.132h-17.91v-6.132h-5.205zm14.236 16.575c2.45-1.326 4.439-2.763 5.97-4.312h-11.48c1.428 1.658 3.267 3.096 5.51 4.312zm-4.743-16.575v2.818h9.49v-2.818h-9.49zm29.632 24.861v-20.386c-.307.772-.818 1.823-1.531 3.147l-.918 1.986c-.104-.662-.256-1.603-.459-2.814-.307-1.656-.562-2.871-.766-3.646 2.243-4.527 4.133-10.496 5.664-17.898l4.133.996c-.611 2.649-1.276 5.193-1.989 7.622v30.993h-4.134zm7.041 0v-37.787h11.787v13.922h-7.651v3.812h6.582v3.979h-6.582v3.979h7.042v4.146h-7.042v7.955h-4.134l-.002-.006zm4.135-33.644v5.635h4.133v-5.635h-4.133zm21.736 31.487c-.611.994-1.021 1.658-1.228 1.988-2.446-1.656-4.493-3.205-6.124-4.642-2.043 1.879-4.49 3.59-7.348 5.139-.612-1.217-1.434-2.598-2.449-4.145 3.062-1.104 5.408-2.375 7.041-3.812-1.53-2.099-2.755-5.14-3.674-9.115l1.685-.828h-1.987v-4.141h13.315v3.979c-.918 4.09-2.246 7.459-3.979 10.107 1.527 1.325 3.47 2.434 5.814 3.312-.198.447-.556 1.164-1.066 2.158zm-12.398-22.04v-4.145h7.348v-5.305h-7.348v-4.145h11.329v13.59l-11.329.005zm5.051 13.421c1.02-1.766 1.837-4.027 2.449-6.795h-5.205c.613 2.766 1.532 5.034 2.756 6.795z"/></svg>