<?xml version="1.0" encoding="utf-8"?>
<!-- Generator: Adobe Illustrator 16.0.0, SVG Export Plug-In . SVG Version: 6.00 Build 0)  -->
<!DOCTYPE svg PUBLIC "-//W3C//DTD SVG 1.1//EN" "http://www.w3.org/Graphics/SVG/1.1/DTD/svg11.dtd">
<svg version="1.1" id="图层_1" xmlns="http://www.w3.org/2000/svg" xmlns:xlink="http://www.w3.org/1999/xlink" x="0px" y="0px"
	 width="640px" height="59px" viewBox="0.625 0 640 59" enable-background="new 0.625 0 640 59" xml:space="preserve">
<path fill="#FFFFFF" d="M29.987,31.57v-5.466h37.199v5.466H29.987z M88.86,44.334c-4.492,0.553-9.491,1.326-15.002,2.318
	l-0.766-4.644c0.407-0.104,1.019-0.221,1.837-0.329c2.55-0.332,4.49-0.605,5.817-0.83c1.428-5.74,2.652-11.489,3.674-17.234
	l4.286,0.996c-0.715,2.432-1.736,6.353-3.062,11.767c-0.512,1.769-0.868,3.095-1.072,3.978l4.439-0.662
	C88.911,41.021,88.86,42.566,88.86,44.334L88.86,44.334z M73.552,21.96v-4.642h15.92v4.642H73.552z M76.767,38.201
	c-0.715-4.748-1.531-9.333-2.449-13.755l3.827-0.828c0.612,3.095,1.478,7.625,2.603,13.589L76.767,38.201z M80.134,16.989
	c-0.103-0.438-0.306-1.215-0.612-2.318c-0.612-1.989-1.071-3.424-1.377-4.311l4.592-0.83c0.101,0.442,0.306,1.16,0.612,2.154
	c0.51,1.77,0.918,3.206,1.225,4.309L80.134,16.989z M90.237,49.141V28.589h6.276V9.696h4.592v7.125h9.185v4.478h-9.185v7.292h7.654
	v20.55h-4.286v-2.481h-9.951v2.481H90.237L90.237,49.141z M94.523,33.066v9.278h9.951v-9.278H94.523z M117.577,31.736v-4.474h17.451
	v4.474h-6.43v9.115c0.918-0.105,2.244-0.271,3.98-0.496c1.837-0.222,3.162-0.388,3.98-0.498c0,1.549,0,3.098,0,4.645
	c-5.817,0.553-12.299,1.322-19.441,2.316l-0.918-4.476c0.918-0.106,2.296-0.272,4.133-0.495c1.631-0.109,2.856-0.222,3.674-0.332
	v-9.779H117.577L117.577,31.736z M116.504,22.126v-4.642h19.9c-0.206-3.535-0.306-6.133-0.306-7.789h4.746
	c0,3.312,0.05,5.91,0.153,7.789h11.94v4.642h-11.634c0,0.331,0,0.663,0,0.995c0.509,7.953,1.581,14.031,3.214,18.229
	c0.612,1.547,1.428,2.319,2.45,2.319c0.815,0,1.325-0.606,1.531-1.824c0.406-1.877,0.765-3.979,1.071-6.297
	c1.122,0.771,2.397,1.438,3.827,1.986c-0.306,2.317-0.766,4.643-1.378,6.961c-1.021,3.094-2.755,4.584-5.205,4.478
	c-2.858,0-5.154-2.318-6.889-6.962c-1.634-4.526-2.705-10.827-3.215-18.896c0-0.332,0-0.662,0-0.994L116.504,22.126L116.504,22.126z
	 M147.581,17.485c-1.634-1.988-3.114-3.646-4.439-4.972l3.214-2.485c0.51,0.555,1.325,1.383,2.45,2.485
	c1.019,1.106,1.734,1.88,2.143,2.319L147.581,17.485z M165.13,29.915c-1.124-1.213-2.808-2.816-5.051-4.805
	c0.203,0.223-0.053,0-0.766-0.664l2.909-3.313c0.918,0.774,2.244,1.88,3.98,3.313c0.918,0.772,1.581,1.324,1.99,1.656L165.13,29.915
	z M166.814,38.201c-1.328,5.193-2.196,8.84-2.603,10.938l-4.439-1.324c0.815-2.979,1.99-7.846,3.521-14.584
	c0.51,0.109,1.225,0.332,2.143,0.662c1.019,0.33,1.734,0.607,2.144,0.828C167.375,35.496,167.121,36.654,166.814,38.201
	L166.814,38.201z M166.048,18.811c-0.612-0.662-1.583-1.601-2.908-2.818c-1.225-1.213-2.196-2.098-2.909-2.649l2.755-3.312
	c0.612,0.553,1.734,1.49,3.368,2.814c1.225,0.995,2.144,1.771,2.756,2.318L166.048,18.811z M170.642,24.114
	c-0.306-0.438-0.766-1.049-1.378-1.822c-0.612-0.771-1.124-1.324-1.531-1.656c3.265-3.203,5.714-6.961,7.348-11.271l4.745,0.496
	c-0.206,0.332-0.459,0.83-0.766,1.492c-0.306,0.663-0.562,1.16-0.766,1.492h17.451v3.979h-19.594
	c-0.612,0.994-1.277,1.988-1.99,2.982h19.441c-0.104,0.555-0.153,2.155-0.153,4.807c-0.103,2.103-0.153,3.758-0.153,4.975h3.215
	v3.979h-3.215c-0.104,2.104-0.152,4.092-0.152,5.969h2.602v3.812h-2.755c-0.206,3.864-2.246,5.743-6.123,5.635h-6.124
	c-0.104-0.556-0.409-1.383-0.918-2.484c-0.104-0.555-0.206-0.938-0.307-1.158c1.938,0,3.929,0,5.971,0
	c1.938,0.105,3.009-0.557,3.215-1.988h-18.676l0.918-9.776h-3.062v-3.979h3.521l0.612-7.127L170.642,24.114z M188.857,39.527
	c0.101-1.215,0.152-3.205,0.152-5.967h-13.777l-0.611,5.967h8.113c-1.125-1.104-2.449-2.209-3.98-3.312l2.143-2.65
	c1.734,1.22,3.315,2.379,4.746,3.48l-2.143,2.482H188.857z M176.152,23.784l-0.612,5.803h7.653c-0.611-0.555-1.53-1.326-2.756-2.32
	c-0.611-0.552-1.07-0.938-1.377-1.16l2.297-2.318h-5.205V23.784L176.152,23.784z M189.165,29.584c0-2.762,0-4.695,0-5.801h-7.501
	c0.713,0.439,1.684,1.16,2.909,2.152c0.612,0.555,1.071,0.939,1.378,1.159l-2.143,2.485L189.165,29.584L189.165,29.584z
	 M202.878,47.15v-4.806h13.777V10.028h5.204v11.604h14.697v4.973h-14.697V42.35h17.451v4.811h-36.433V47.15z M253.025,28.424
	c0.203,9.062-1.072,16.076-3.827,21.049c-1.431-1.438-2.655-2.543-3.675-3.314c1.326-2.539,2.193-5.023,2.604-7.457
	c0.407-2.43,0.612-5.967,0.612-10.605v-14.92h14.849c-0.306-1.326-0.611-2.486-0.918-3.48l5.357-0.332
	c0.307,1.105,0.613,2.377,0.919,3.812h13.471v4.145h-29.392V28.424L253.025,28.424z M281.345,47.484
	c-0.306,0.664-0.512,1.16-0.612,1.49c-5.613-0.771-10.103-2.045-13.471-3.812c-3.367,1.77-7.859,3.203-13.471,4.312
	c-0.512-1.439-1.175-2.875-1.99-4.312c4.999-0.66,8.674-1.436,11.022-2.318c-2.043-1.438-4.033-3.479-5.97-6.131h-2.449V32.9h24.34
	v3.979c-1.94,2.318-4.186,4.311-6.736,5.967c2.959,0.887,6.479,1.438,10.562,1.658C282.264,45.053,281.854,46.047,281.345,47.484
	L281.345,47.484z M253.025,24.446v-3.978h5.205v-3.149h4.287v3.149h9.49v-3.149h4.133v3.149h5.971v3.978h-5.971v6.132h-17.91v-6.132
	H253.025z M267.261,41.021c2.45-1.326,4.439-2.763,5.97-4.312h-11.48C263.179,38.367,265.018,39.805,267.261,41.021L267.261,41.021z
	 M262.518,24.446v2.818h9.49v-2.818H262.518z M292.15,49.307V28.921c-0.307,0.772-0.818,1.823-1.531,3.147
	c-0.409,0.887-0.715,1.549-0.918,1.986c-0.104-0.662-0.256-1.603-0.459-2.814c-0.307-1.656-0.562-2.871-0.766-3.646
	c2.243-4.527,4.133-10.496,5.664-17.898l4.133,0.996c-0.611,2.649-1.276,5.193-1.989,7.622v30.993H292.15L292.15,49.307z
	 M299.191,49.307V11.52h11.787v13.922h-7.651v3.812h6.582v3.979h-6.582v3.979h7.042v4.146h-7.042v7.955h-4.134L299.191,49.307
	L299.191,49.307z M303.326,15.663v5.635h4.133v-5.635H303.326z M325.062,47.15c-0.611,0.994-1.021,1.658-1.228,1.988
	c-2.446-1.656-4.493-3.205-6.124-4.642c-2.043,1.879-4.49,3.59-7.348,5.139c-0.612-1.217-1.434-2.598-2.449-4.145
	c3.062-1.104,5.408-2.375,7.041-3.812c-1.53-2.099-2.755-5.14-3.674-9.115l1.685-0.828h-1.987v-4.141h13.315v3.979
	c-0.918,4.09-2.246,7.459-3.979,10.107c1.527,1.325,3.47,2.434,5.814,3.312C325.93,45.439,325.572,46.156,325.062,47.15
	L325.062,47.15z M312.664,25.11v-4.145h7.348V15.66h-7.348v-4.145h11.329v13.59L312.664,25.11L312.664,25.11z M317.715,38.531
	c1.02-1.766,1.837-4.027,2.449-6.795h-5.205C315.572,34.502,316.491,36.77,317.715,38.531L317.715,38.531z"/>
</svg>
