<?xml version="1.0" encoding="utf-8"?>
<!-- Generator: Adobe Illustrator 16.0.0, SVG Export Plug-In . SVG Version: 6.00 Build 0)  -->
<!DOCTYPE svg PUBLIC "-//W3C//DTD SVG 1.1//EN" "http://www.w3.org/Graphics/SVG/1.1/DTD/svg11.dtd">
<svg version="1.1" id="图层_1" xmlns="http://www.w3.org/2000/svg" xmlns:xlink="http://www.w3.org/1999/xlink" x="0px" y="0px"
	 width="640px" height="563.625px" viewBox="0 0 640 563.625" enable-background="new 0 0 640 563.625" xml:space="preserve">
<g>
	<path fill="#FEF699" d="M51.149,538.023h1.423v-7.305h1.977c0.052-0.344,0.131-0.803,0.237-1.375
		c0.052-0.459,0.105-0.803,0.158-1.031l1.028,0.086c-0.053,0.4-0.211,1.175-0.475,2.32h2.925v15.727
		c0.052,1.432-0.581,2.148-1.897,2.148c-0.106,0-0.369,0-0.791,0c-0.422,0.056-0.711,0.086-0.87,0.086
		c0-0.116-0.027-0.316-0.079-0.604c-0.053-0.288-0.106-0.485-0.158-0.602c0.421,0,0.949,0,1.581,0
		c0.843,0.056,1.238-0.288,1.186-1.031v-7.478H53.52v0.345c0,2.521-0.106,4.409-0.316,5.672c-0.211,1.261-0.632,2.548-1.265,3.867
		c-0.053-0.062-0.132-0.116-0.237-0.175c-0.37-0.286-0.581-0.459-0.632-0.516c1.106-1.775,1.607-4.697,1.502-8.766v-0.43h-1.423
		V538.023z M53.521,531.664v6.359h3.874v-6.359H53.521z M55.34,536.562c-0.211-1.088-0.527-2.148-0.949-3.18l0.949-0.258
		c0.158,0.516,0.368,1.201,0.633,2.062c0.158,0.459,0.263,0.803,0.316,1.03L55.34,536.562L55.34,536.562z M55.577,544.297
		c-0.316-1.203-0.66-2.35-1.028-3.438l0.87-0.344c0.052,0.229,0.158,0.545,0.316,0.944c0.316,0.976,0.579,1.806,0.791,2.491
		L55.577,544.297L55.577,544.297z M66.883,536.305v10.055c-0.053,0.688,0.289,1.001,1.027,0.945h0.158
		c0.58,0.056,0.922-0.289,1.028-1.031c0.105-0.63,0.21-1.661,0.316-3.094c0-0.172,0-0.286,0-0.344
		c0.158,0.112,0.342,0.198,0.553,0.258c0.158,0.058,0.289,0.115,0.396,0.172c-0.053,1.375-0.158,2.436-0.316,3.18
		c-0.106,1.316-0.711,1.945-1.818,1.891h-0.632c-1.213,0.059-1.792-0.573-1.739-1.891v-9.023h-3.637v1.979
		c0,2.578-0.185,4.498-0.553,5.758c-0.316,1.203-1.028,2.463-2.135,3.781c-0.158-0.173-0.396-0.402-0.711-0.688
		c0.052,0.057,0,0.026-0.158-0.086c1.054-1.146,1.739-2.234,2.056-3.267c0.316-1.088,0.474-2.894,0.474-5.414v-3.18L66.883,536.305
		L66.883,536.305z M59.609,532.008h9.883v1.029h-9.883V532.008z M64.353,532.008c-0.422-1.031-0.897-2.092-1.423-3.182l1.027-0.43
		c0.21,0.4,0.526,1.089,0.949,2.062c0.21,0.459,0.368,0.804,0.474,1.03L64.353,532.008L64.353,532.008z M71.789,542.148
		c-0.106-0.229-0.264-0.516-0.474-0.859c1.949-1.774,3.768-4.238,5.455-7.391l1.028,0.602c-0.791,1.375-1.502,2.522-2.135,3.438v11
		h-1.107v-9.453c-1.107,1.317-2.003,2.292-2.688,2.922C71.868,542.35,71.841,542.264,71.789,542.148L71.789,542.148z
		 M77.719,529.086c-1.423,2.178-3.189,4.239-5.297,6.188c-0.158-0.4-0.369-0.773-0.632-1.117c1.844-1.547,3.479-3.466,4.902-5.758
		L77.719,529.086L77.719,529.086z M78.509,536.562h12.097v1.117h-3.953v8.164c0.105,1.772-0.765,2.664-2.609,2.664
		c-0.739,0.057-1.608,0.086-2.609,0.086c-0.053-0.229-0.106-0.518-0.158-0.858c-0.053-0.172-0.079-0.315-0.079-0.431
		c0.737,0,1.607,0,2.609,0c1.265,0.057,1.844-0.461,1.739-1.547v-8.078h-7.037V536.562z M79.695,530.03h9.804v1.117h-9.804V530.03z
		 M103.013,535.359c1.897-1.547,3.638-3.322,5.218-5.328l0.87,0.688c-1.265,1.604-2.715,3.152-4.349,4.643h5.93v1.03h-7.195
		c-1.318,1.032-2.741,1.978-4.269,2.837h8.222v9.711h-1.027v-1.289h-9.646v1.289H95.66v-7.906c-1.107,0.518-2.292,1.031-3.558,1.547
		c-0.053-0.113-0.132-0.312-0.237-0.602c-0.158-0.229-0.264-0.4-0.316-0.518c3.847-1.375,7.22-3.062,10.12-5.069h-9.804v-1.031h7.59
		v-3.094h-5.614v-1.031h5.614v-2.75h1.106v2.75h4.823v1.031h-4.823v3.094L103.013,535.359L103.013,535.359z M97.321,540.258
		c-0.053,0-0.132,0.029-0.237,0.086c-0.158,0.059-0.264,0.115-0.316,0.172v2.492h9.646v-2.75H97.321z M96.767,544.039v2.578h9.646
		v-2.578H96.767z M114.875,542.664l1.266-3.781h-4.27v-1.202h19.133v1.202h-13.678l-0.871,2.664h11.781
		c-0.054,0.805-0.133,1.807-0.238,3.009c-0.053,0.459-0.078,0.804-0.078,1.03c-0.158,1.945-1.502,2.922-4.032,2.922
		c-1.265,0.058-2.608,0.086-4.032,0.086c-0.053-0.4-0.132-0.857-0.236-1.375c0.842,0.058,2.238,0.087,4.189,0.087
		c1.896,0.112,2.898-0.546,3.004-1.978c0.053-0.285,0.105-0.744,0.158-1.375c0.052-0.631,0.079-1.061,0.079-1.289H114.875
		L114.875,542.664z M114.955,529.43h12.966v5.844h-12.966V529.43L114.955,529.43z M116.062,530.547v3.607h10.752v-3.607H116.062z
		 M132.264,536.305h3.004v-7.734h0.949v7.734h2.688v1.031h-2.688V540l0.712-0.603c0.052,0.058,0.104,0.115,0.158,0.172
		c1.106,1.49,1.845,2.521,2.214,3.095l-0.87,0.688c-0.315-0.458-0.765-1.146-1.344-2.062c-0.423-0.572-0.711-0.975-0.87-1.203v8.767
		h-0.949v-9.195c-0.686,2.351-1.581,4.354-2.688,6.017c-0.053-0.172-0.158-0.398-0.316-0.688c-0.105-0.229-0.186-0.372-0.236-0.432
		c1.422-2.004,2.477-4.409,3.162-7.217h-2.926V536.305L132.264,536.305z M133.53,534.414c-0.526-1.432-0.976-2.606-1.344-3.522
		l0.87-0.345c0.58,1.434,1.08,2.779,1.502,4.039l-0.87,0.345C133.635,534.815,133.58,534.644,133.53,534.414L133.53,534.414z
		 M139.301,530.891c-0.475,1.261-1.002,2.607-1.581,4.039l-0.87-0.344c0.579-1.375,1.107-2.722,1.581-4.039L139.301,530.891
		L139.301,530.891z M140.408,533.211h4.189v-1.806h-4.744v-0.944h4.744v-2.062h1.027v2.062h5.377v0.944h-5.377v1.806h4.824v0.944
		h-4.824v1.892h5.613v0.945h-11.701v-0.945h5.061v-1.892h-4.189V533.211L140.408,533.211z M141.358,548.938h-1.029v-10.312h9.566
		v7.82c0.053,1.547-0.632,2.29-2.055,2.234c-0.211,0-0.607,0-1.186,0c-0.582,0.056-1.002,0.086-1.266,0.086
		c0-0.461-0.079-0.859-0.236-1.203c0.58,0.056,1.396,0.086,2.45,0.086c0.949,0.057,1.396-0.344,1.345-1.203v-1.289h-7.59v3.781
		H141.358z M141.358,539.57v1.891h7.59v-1.891H141.358z M141.358,542.32v1.891h7.59v-1.891H141.358z M157.33,541.117
		c-1,2.292-2.424,4.24-4.269,5.844c-0.053-0.114-0.187-0.287-0.396-0.516c-0.158-0.113-0.264-0.229-0.316-0.344
		c2.003-1.661,3.637-3.867,4.902-6.617h-4.27v-1.031h4.348v-1.719h1.029v1.719h4.11v1.031h-4.11v2.664l0.475-0.602
		c1.158,0.857,2.451,1.86,3.873,3.008l-0.711,0.945c-1.317-1.203-2.529-2.234-3.637-3.097v6.531h-1.027L157.33,541.117
		L157.33,541.117z M156.936,530.805c-1.738,0.115-3.058,0.201-3.953,0.258c-0.053-0.344-0.132-0.688-0.236-1.031
		c3.953-0.172,7.246-0.4,9.883-0.688l0.236,1.031C161.601,530.49,159.623,530.633,156.936,530.805L156.936,530.805z
		 M154.643,536.648c-0.527-1.26-1.107-2.463-1.738-3.609l0.948-0.431c0.896,1.72,1.476,2.894,1.739,3.522L154.643,536.648
		L154.643,536.648z M157.885,535.616c-0.316-1.259-0.711-2.462-1.186-3.608l0.948-0.344c0.316,0.916,0.712,2.119,1.187,3.608
		L157.885,535.616L157.885,535.616z M161.68,534.844c-0.369,0.744-0.686,1.347-0.949,1.805l-0.949-0.602
		c1-1.547,1.739-2.894,2.215-4.039l0.949,0.516C162.68,533.039,162.26,533.812,161.68,534.844L161.68,534.844z M171.405,541.633
		c-2.213,3.15-5.271,5.586-9.17,7.306c-0.054-0.116-0.186-0.315-0.396-0.603c-0.106-0.229-0.187-0.401-0.237-0.518
		c3.848-1.488,6.825-3.781,8.934-6.875L171.405,541.633L171.405,541.633z M163.894,535.53c-0.157-0.344-0.396-0.688-0.711-1.03
		c2.478-1.317,4.558-3.037,6.246-5.156l0.791,0.772C168.584,532.123,166.475,533.928,163.894,535.53L163.894,535.53z
		 M163.815,540.945c-0.158-0.229-0.291-0.372-0.396-0.43c2.793-1.547,4.954-3.354,6.483-5.415l0.869,0.771
		c-1.846,2.235-4.031,4.098-6.562,5.588C164.157,541.346,164.026,541.174,163.815,540.945L163.815,540.945z M172.901,533.984v-1.117
		h5.692v1.203c-0.687,1.434-1.371,2.637-2.056,3.609v11.259h-1.106v-9.798c-0.687,0.918-1.502,1.835-2.451,2.75
		c-0.053-0.113-0.157-0.399-0.315-0.858c-0.053-0.172-0.106-0.313-0.158-0.43c1.896-1.604,3.558-3.81,4.98-6.618H172.901z
		 M176.301,532.438c-0.844-1.833-1.396-2.95-1.661-3.352l0.949-0.518c0.157,0.288,0.446,0.831,0.87,1.633
		c0.421,0.859,0.711,1.434,0.869,1.721L176.301,532.438L176.301,532.438z M179.069,541.547c-0.423-0.571-1.107-1.461-2.057-2.664
		l0.711-0.688c0.368,0.399,0.87,0.976,1.502,1.72c0.368,0.459,0.605,0.744,0.711,0.858L179.069,541.547L179.069,541.547z
		 M184.681,537.852c0.104-1.775,0.158-3.553,0.158-5.329h1.028c0,2.464-0.054,4.241-0.158,5.329
		c-0.053,5.1-2.372,8.793-6.959,11.086c-0.264-0.288-0.553-0.602-0.869-0.945C182.468,545.758,184.733,542.379,184.681,537.852
		L184.681,537.852z M180.649,529.43h9.488v12.375h-1.027v-11.258h-7.354v11.602h-1.107V529.43L180.649,529.43z M185.63,540.688
		h1.028v5.07c-0.054,1.029,0.42,1.517,1.422,1.461h0.871c0.842,0,1.344-0.402,1.502-1.203c0.158-0.977,0.236-1.861,0.236-2.664
		c0.211,0.115,0.555,0.258,1.028,0.43c0,0.745-0.079,1.547-0.237,2.406c-0.158,1.431-1.002,2.117-2.529,2.062h-1.107
		c-1.477,0.058-2.214-0.746-2.214-2.406V540.688L185.63,540.688z M197.653,528.484h1.027v3.438h2.688v0.945h-2.688v3.438h3.083
		v0.946h-8.935v-0.946h1.582v-5.845h0.949v5.845h2.293L197.653,528.484L197.653,528.484z M195.596,539.828
		c-0.423,1.435-1.027,2.922-1.818,4.469l-0.871-0.516c0.633-1.203,1.213-2.635,1.74-4.297L195.596,539.828L195.596,539.828z
		 M201.209,540.602c-1.475,3.896-3.979,6.703-7.51,8.422c-0.211-0.344-0.449-0.66-0.713-0.945c3.584-1.604,6.035-4.238,7.354-7.906
		L201.209,540.602L201.209,540.602z M197.019,538.195h1.028v5.328h-1.028V538.195z M206.349,536.734h1.028v1.547
		c0,2.922-0.316,5.042-0.949,6.359l0.632-0.773c1.897,1.49,3.558,2.807,4.981,3.953l-0.711,0.859
		c-0.528-0.461-1.529-1.262-3.004-2.406c-0.844-0.688-1.478-1.203-1.897-1.547c-0.687,1.604-2.479,3.035-5.376,4.297
		c-0.158-0.344-0.395-0.688-0.711-1.031c2.635-1.031,4.27-2.148,4.902-3.352c0.791-1.088,1.158-3.209,1.106-6.359L206.349,536.734
		L206.349,536.734z M202.633,533.898h2.925l0.632-3.266h-4.428v-1.031h10.199v1.031h-4.744l-0.632,3.266h4.506v10.656h-1.028v-9.711
		h-6.404v9.711h-1.026V533.898L202.633,533.898z"/>
	<path fill="#FFF799" d="M44.596,538.689l-2.096-2.148L44.596,538.689z M42.5,540.836l2.096-2.146L42.5,540.836z M42.5,536.541
		l2.096,2.148l-10,9.756l-2.096-2.148L42.5,536.541 M33.028,531.594l2.094-2.148l9.474,9.244l-2.096,2.146L33.028,531.594"/>
</g>
</svg>
