<?xml version="1.0" encoding="utf-8"?>
<!-- Generator: Adobe Illustrator 16.0.0, SVG Export Plug-In . SVG Version: 6.00 Build 0)  -->
<!DOCTYPE svg PUBLIC "-//W3C//DTD SVG 1.1//EN" "http://www.w3.org/Graphics/SVG/1.1/DTD/svg11.dtd">
<svg version="1.1" id="图层_1" xmlns="http://www.w3.org/2000/svg" xmlns:xlink="http://www.w3.org/1999/xlink" x="0px" y="0px"
	 width="640px" height="100px" viewBox="0 0 640 100" enable-background="new 0 0 640 100" xml:space="preserve">
<path fill="#FFFFFF" d="M50.987,52.567v-5.469h37.199v5.469H50.987z M109.86,65.329c-4.492,0.552-9.491,1.326-15.002,2.32
	l-0.766-4.641c0.407-0.108,1.019-0.22,1.837-0.331c2.55-0.331,4.49-0.606,5.817-0.829c1.428-5.743,2.652-11.49,3.674-17.236
	l4.286,0.995c-0.715,2.432-1.736,6.355-3.062,11.767c-0.512,1.769-0.868,3.095-1.072,3.978l4.439-0.663
	C109.91,62.015,109.86,63.563,109.86,65.329L109.86,65.329z M94.552,42.955v-4.641h15.92v4.641H94.552z M97.766,59.197
	c-0.715-4.749-1.531-9.335-2.449-13.756l3.827-0.829c0.612,3.095,1.478,7.624,2.603,13.591L97.766,59.197z M101.134,37.983
	c-0.103-0.44-0.306-1.214-0.612-2.32c-0.612-1.989-1.071-3.423-1.377-4.309l4.592-0.829c0.101,0.442,0.306,1.16,0.612,2.154
	c0.51,1.769,0.918,3.206,1.225,4.309L101.134,37.983z M111.237,70.136V49.584h6.276V30.69h4.592v7.126h9.185v4.475h-9.185v7.292
	h7.654v20.551h-4.286v-2.486h-9.951v2.486H111.237z M115.523,54.06v9.281h9.951V54.06H115.523z M138.576,52.733v-4.475h17.451v4.475
	h-6.43v9.115c0.918-0.108,2.244-0.274,3.98-0.497c1.837-0.22,3.162-0.386,3.98-0.497c0,1.549,0,3.095,0,4.641
	c-5.817,0.552-12.299,1.326-19.441,2.32l-0.918-4.475c0.918-0.108,2.296-0.274,4.133-0.497c1.631-0.109,2.856-0.221,3.674-0.332
	v-9.778H138.576z M137.504,43.121V38.48h19.9c-0.206-3.535-0.306-6.132-0.306-7.79h4.746c0,3.315,0.05,5.912,0.153,7.79h11.94v4.641
	h-11.634c0,0.332,0,0.663,0,0.995c0.509,7.955,1.581,14.033,3.214,18.231c0.612,1.548,1.428,2.32,2.45,2.32
	c0.815,0,1.325-0.606,1.531-1.823c0.406-1.878,0.765-3.978,1.071-6.298c1.122,0.773,2.397,1.437,3.827,1.988
	c-0.306,2.32-0.766,4.641-1.378,6.961c-1.021,3.092-2.755,4.584-5.205,4.475c-2.858,0-5.154-2.32-6.889-6.961
	c-1.634-4.529-2.705-10.827-3.215-18.894c0-0.332,0-0.663,0-0.995H137.504z M168.58,38.48c-1.634-1.989-3.114-3.646-4.439-4.972
	l3.214-2.486c0.51,0.554,1.325,1.383,2.45,2.486c1.019,1.106,1.734,1.88,2.143,2.32L168.58,38.48z M186.13,50.91
	c-1.124-1.214-2.808-2.817-5.051-4.806c0.203,0.223-0.053,0-0.766-0.663l2.909-3.314c0.918,0.774,2.244,1.88,3.98,3.314
	c0.918,0.774,1.581,1.326,1.99,1.658L186.13,50.91z M187.814,59.197c-1.328,5.195-2.196,8.839-2.603,10.938l-4.439-1.326
	c0.815-2.982,1.99-7.844,3.521-14.584c0.51,0.111,1.225,0.331,2.143,0.662c1.019,0.332,1.734,0.609,2.144,0.829
	C188.374,56.491,188.12,57.651,187.814,59.197L187.814,59.197z M187.048,39.806c-0.612-0.663-1.583-1.601-2.908-2.818
	c-1.225-1.214-2.196-2.098-2.909-2.652l2.755-3.314c0.612,0.554,1.734,1.492,3.368,2.817c1.225,0.995,2.144,1.769,2.756,2.32
	L187.048,39.806z M191.641,45.109c-0.306-0.44-0.766-1.049-1.378-1.823c-0.612-0.772-1.124-1.326-1.531-1.658
	c3.265-3.203,5.714-6.961,7.348-11.27l4.745,0.497c-0.206,0.332-0.459,0.829-0.765,1.492c-0.306,0.663-0.562,1.16-0.766,1.492
	h17.451v3.978h-19.594c-0.612,0.995-1.277,1.989-1.99,2.983h19.441c-0.103,0.554-0.153,2.155-0.153,4.807
	c-0.103,2.1-0.153,3.757-0.153,4.972h3.215v3.978h-3.215c-0.103,2.101-0.153,4.089-0.153,5.967h2.602v3.812h-2.755
	c-0.206,3.866-2.246,5.744-6.123,5.635h-6.124c-0.103-0.554-0.409-1.383-0.918-2.485c-0.103-0.555-0.206-0.94-0.306-1.16
	c1.938,0,3.928,0,5.97,0c1.938,0.108,3.009-0.555,3.215-1.989h-18.676l0.918-9.778h-3.062v-3.978h3.521l0.612-7.127L191.641,45.109z
	 M209.857,60.523c0.101-1.215,0.153-3.204,0.153-5.967h-13.777l-0.612,5.967h8.113c-1.124-1.104-2.449-2.209-3.98-3.315l2.143-2.651
	c1.734,1.217,3.315,2.377,4.746,3.48l-2.143,2.486H209.857z M197.152,44.778l-0.612,5.801h7.654
	c-0.612-0.552-1.531-1.326-2.756-2.32c-0.612-0.552-1.071-0.938-1.377-1.16l2.296-2.32H197.152z M210.164,50.579
	c0-2.761,0-4.695,0-5.801h-7.501c0.713,0.442,1.684,1.16,2.909,2.154c0.612,0.554,1.072,0.94,1.378,1.16l-2.143,2.486H210.164
	L210.164,50.579z M223.878,68.147v-4.807h13.777V31.022h5.205v11.602h14.696v4.972H242.86v15.745h17.451v4.807H223.878z
	 M274.025,49.419c0.203,9.061-1.072,16.076-3.827,21.049c-1.43-1.438-2.655-2.543-3.674-3.315c1.325-2.54,2.193-5.026,2.603-7.458
	c0.407-2.429,0.612-5.967,0.612-10.607V34.171h14.849c-0.306-1.326-0.612-2.486-0.918-3.48l5.358-0.332
	c0.306,1.106,0.612,2.377,0.918,3.812h13.471v4.144h-29.392V49.419L274.025,49.419z M302.345,68.479
	c-0.306,0.663-0.512,1.16-0.612,1.491c-5.614-0.773-10.103-2.045-13.471-3.812c-3.368,1.767-7.859,3.203-13.471,4.31
	c-0.512-1.438-1.175-2.875-1.99-4.31c4.999-0.663,8.673-1.435,11.022-2.32c-2.043-1.435-4.033-3.48-5.97-6.132h-2.449v-3.813h24.34
	v3.978c-1.94,2.32-4.186,4.31-6.736,5.967c2.959,0.886,6.479,1.438,10.563,1.657C303.263,66.047,302.854,67.041,302.345,68.479
	L302.345,68.479z M274.025,45.441v-3.978h5.205v-3.149h4.287v3.149h9.491v-3.149h4.133v3.149h5.97v3.978h-5.97v6.132h-17.911v-6.132
	H274.025z M288.261,62.015c2.45-1.326,4.439-2.761,5.97-4.309H282.75C284.179,59.363,286.016,60.8,288.261,62.015L288.261,62.015z
	 M283.516,45.441v2.818h9.491v-2.818H283.516z M313.15,70.302V49.916c-0.306,0.774-0.818,1.823-1.531,3.149
	c-0.409,0.885-0.715,1.548-0.918,1.988c-0.103-0.663-0.256-1.601-0.459-2.817c-0.306-1.657-0.562-2.872-0.765-3.646
	c2.243-4.529,4.133-10.496,5.664-17.899l4.133,0.995c-0.612,2.651-1.277,5.195-1.99,7.624v30.993H313.15z M320.192,70.302V32.514
	h11.787v13.922h-7.654v3.812h6.582v3.979h-6.582v3.978h7.042v4.144h-7.042v7.955H320.192z M324.325,36.657v5.635h4.133v-5.635
	H324.325z M346.063,68.147c-0.612,0.994-1.021,1.657-1.225,1.988c-2.449-1.657-4.492-3.206-6.123-4.641
	c-2.043,1.878-4.492,3.59-7.348,5.138c-0.612-1.217-1.431-2.597-2.449-4.144c3.062-1.103,5.408-2.374,7.041-3.812
	c-1.53-2.098-2.755-5.138-3.674-9.115l1.685-0.829h-1.99V48.59h13.317v3.978c-0.918,4.09-2.245,7.459-3.979,10.11
	c1.53,1.326,3.468,2.432,5.816,3.314C346.929,66.433,346.572,67.152,346.063,68.147L346.063,68.147z M333.663,46.104V41.96h7.348
	v-5.304h-7.348v-4.143h11.328v13.59H333.663z M338.715,59.528c1.019-1.766,1.837-4.031,2.449-6.795h-5.205
	C336.571,55.497,337.49,57.763,338.715,59.528L338.715,59.528z"/>
</svg>
