<?xml version="1.0" encoding="utf-8"?>
<!-- Generator: Adobe Illustrator 16.0.0, SVG Export Plug-In . SVG Version: 6.00 Build 0)  -->
<!DOCTYPE svg PUBLIC "-//W3C//DTD SVG 1.1//EN" "http://www.w3.org/Graphics/SVG/1.1/DTD/svg11.dtd">
<svg version="1.1" id="图层_1" xmlns="http://www.w3.org/2000/svg" xmlns:xlink="http://www.w3.org/1999/xlink" x="0px" y="0px"
	 width="640px" height="338px" viewBox="0 -55 640 338" enable-background="new 0 -55 640 338" xml:space="preserve">
<g enable-background="new    ">
	<path fill="#FFCC19" d="M388.723,96.903v3.002h-11.328c0.121-1.135,0.489-2.21,1.104-3.227c0.613-1.017,1.825-2.364,3.635-4.043
		c1.457-1.357,2.352-2.277,2.682-2.761c0.443-0.667,0.668-1.326,0.668-1.978c0-0.721-0.194-1.275-0.582-1.662
		c-0.389-0.387-0.922-0.581-1.604-0.581c-0.675,0-1.212,0.203-1.609,0.61c-0.397,0.406-0.629,1.081-0.689,2.024l-3.221-0.322
		c0.19-1.779,0.794-3.056,1.806-3.83c1.013-0.774,2.278-1.162,3.796-1.162c1.664,0,2.973,0.449,3.923,1.346s1.427,2.013,1.427,3.347
		c0,0.759-0.137,1.482-0.408,2.168c-0.271,0.686-0.703,1.405-1.293,2.157c-0.394,0.499-1.099,1.215-2.116,2.151
		c-1.021,0.936-1.666,1.557-1.938,1.863c-0.271,0.306-0.492,0.606-0.66,0.897L388.723,96.903L388.723,96.903z"/>
	<path fill="#FFFFFF" d="M58.3,192.251c-0.806,1.5-1.466,2.625-1.984,3.375c-0.058-0.375-0.202-0.905-0.431-1.594
		c-0.058-0.313-0.116-0.53-0.172-0.656c1.954-3.188,3.478-6.812,4.571-10.875l1.725,0.562c-0.517,1.688-1.093,3.281-1.725,4.781V205
		h-1.639v-13.313C58.587,191.814,58.473,192.002,58.3,192.251L58.3,192.251z M59.939,263.75c-0.69,1.626-1.524,3.28-2.501,4.969
		l-1.639-0.75c0.057-0.126,0.173-0.345,0.345-0.656c1.035-1.749,1.753-3.125,2.156-4.125L59.939,263.75L59.939,263.75z
		 M67.271,234.846v-1.594h-9.057c0.747-1.624,2.299-3.375,4.658-5.25c3.047-2.25,4.485-4.595,4.313-7.031
		c-0.23-3.188-1.956-4.843-5.175-4.969c-2.818-0.062-4.715,1.438-5.692,4.5l1.725,0.938c0.632-2.312,1.839-3.531,3.623-3.656
		c2.299,0.062,3.479,1.219,3.536,3.469c0.057,1.688-1.208,3.562-3.795,5.625c-2.531,2.001-4.342,4.251-5.434,6.75v1.219
		L67.271,234.846L67.271,234.846z M58.387,261.688v-7.969h6.555v-7.313h1.812v2.721h9.487v1.688h-9.487v2.906h7.59v7.969
		L58.387,261.688L58.387,261.688z M60.111,255.5v4.5h12.42v-4.5H60.111z M61.664,203.782v-1.595h7.59
		c1.725-5.123,2.989-9.188,3.795-12.188l1.812,0.562c-1.438,4.563-2.704,8.438-3.795,11.625h5.692v1.594H61.664V203.782z
		 M63.13,268.438c-0.116-0.75-0.403-1.845-0.863-3.28c-0.172-0.562-0.288-1-0.345-1.312l1.639-0.375
		c0.69,2.188,1.149,3.688,1.38,4.5L63.13,268.438z M62.268,188.501v-1.781h6.642c-0.576-1.625-1.007-2.906-1.294-3.844l1.812-0.375
		c0.172,0.562,0.459,1.438,0.862,2.625c0.172,0.562,0.315,1,0.431,1.312l-1.293,0.281h6.727v1.78H62.268V188.501z M66.063,200.22
		c-0.806-3.375-1.697-6.594-2.674-9.656l1.725-0.562c0.287,1,0.747,2.594,1.38,4.78c0.632,2.25,1.091,3.875,1.38,4.875
		L66.063,200.22z M68.65,268.157c-0.172-0.688-0.604-1.875-1.294-3.562c-0.172-0.438-0.288-0.75-0.345-0.938l1.639-0.375
		c0.69,1.75,1.264,3.219,1.725,4.405L68.65,268.157z M80.73,230.439h-2.415v4.595H76.59v-4.595h-7.935v-1.125l8.28-13.312h1.38
		v12.75h2.415V230.439L80.73,230.439z M76.246,219.939c-0.92,1.313-2.76,4.251-5.52,8.813h5.865v-9.656
		c0,0.062-0.058,0.188-0.172,0.375C76.36,219.657,76.302,219.815,76.246,219.939L76.246,219.939z M74.774,268.438
		c-0.403-0.938-1.179-2.499-2.329-4.688l1.639-0.656c0.172,0.375,0.546,1.125,1.121,2.25c0.632,1.187,1.035,1.969,1.208,2.344
		L74.774,268.438z M81.847,254.094c-0.518,2.376-1.266,5.438-2.243,9.188c-0.748-0.375-1.352-0.596-1.811-0.656
		c0.862-2.813,1.639-5.813,2.329-9L81.847,254.094L81.847,254.094z M80.247,185.97v-1.875h17.336v1.875H90.08v6h9.143v1.875H90.08
		v7.312c0.114,2.25-0.892,3.375-3.019,3.375c-1.093,0-2.242,0-3.45,0c-0.058-0.75-0.172-1.438-0.345-2.062
		c0.574,0.062,1.609,0.094,3.105,0.094c1.322,0.124,1.926-0.5,1.812-1.875v-6.844h-9.66v-1.875h9.66v-6H80.247z M88.571,220.314
		c-1.496,4.751-2.962,8.625-4.398,11.625c-0.576-0.375-1.179-0.655-1.812-0.844c1.84-3.687,3.306-7.468,4.399-11.344L88.571,220.314
		L88.571,220.314z M86.677,268.157c-2.243,0.062-3.335-1.125-3.278-3.562v-13.406h1.812v13.031
		c-0.058,1.438,0.604,2.093,1.984,1.969h3.45c1.437,0.062,2.243-0.5,2.415-1.688c0.172-0.938,0.287-2,0.345-3.188
		c0.287,0.062,0.66,0.188,1.121,0.375c0.345,0.126,0.604,0.222,0.776,0.281c-0.173,1.375-0.375,2.562-0.604,3.562
		c-0.288,1.812-1.524,2.688-3.708,2.625h-4.313V268.157z M90.213,253.532c-0.748-1.125-1.841-2.688-3.277-4.688
		c-0.403-0.563-0.69-0.969-0.863-1.219l1.38-1.22c0.574,0.75,1.38,1.845,2.415,3.28c0.805,1.125,1.409,1.97,1.812,2.531
		L90.213,253.532z M90.986,236.532c-0.92,0-1.955,0-3.105,0c-0.058-0.75-0.172-1.438-0.345-2.062c0.345,0,0.776,0,1.293,0
		c0.574,0.062,1.063,0.094,1.466,0.094c1.322,0.125,1.926-0.469,1.812-1.781v-18h1.897v18.563
		C94.12,235.47,93.113,236.532,90.986,236.532L90.986,236.532z M97.113,261.875c-1.266-3-2.473-5.688-3.623-8.063l1.639-0.844
		c1.609,3.375,2.847,6,3.709,7.875L97.113,261.875z M101.423,231.657c-1.956-4.998-3.508-8.719-4.658-11.154l1.725-0.656
		c0.459,1.062,1.264,2.876,2.415,5.438c1.092,2.625,1.868,4.471,2.329,5.53L101.423,231.657z M102.098,196.657v-1.5H120.9v1.5
		h-8.539v2.25h7.504v1.5h-7.504v2.156h9.401v1.594h-20.614v-1.594h9.487v-2.156h-7.503v-1.5h7.503v-2.25H102.098z M102.547,262.812
		l1.293-1.125l4.485,5.345l-1.38,1.312L102.547,262.812z M103.65,193.188v-8.625h4.744c0.345-0.75,0.574-1.468,0.69-2.156
		l1.897,0.188c-0.172,0.625-0.431,1.282-0.776,1.969h9.143v8.625L103.65,193.188L103.65,193.188z M105.289,186.063v2.156h12.333
		v-2.156H105.289z M105.289,189.532v2.155h12.333v-2.155H105.289z M105.39,235.407v-19.029h6.038v18.562h-1.552v-1.405h-2.933v1.875
		h-1.553V235.407z M106.943,217.971v6.094h2.933v-6.094H106.943z M106.943,225.657v6.281h2.933v-6.281H106.943z M113.153,219.282
		v-1.595h4.658V214.5h1.639v3.188h4.83v1.595h-4.83v3.28h5.779v1.688h-12.938v-1.688h5.52v-3.28H113.153z M112.376,228.846v-1.688
		h8.453v-2.062h1.639v2.062h2.76v1.688h-2.76v4.969c0.057,1.813-0.776,2.72-2.501,2.72c-0.863,0.062-1.869,0.095-3.019,0.095
		c0-0.126-0.03-0.313-0.086-0.563c-0.058-0.688-0.116-1.125-0.173-1.312c0.345,0,0.833,0.03,1.466,0.094c0.459,0,0.805,0,1.035,0
		c1.149,0.062,1.695-0.407,1.639-1.405v-4.595h-8.453V228.846z M116.258,233.627c-0.69-0.938-1.61-1.97-2.76-3.095l1.293-1.125
		c1.437,1.562,2.357,2.596,2.76,3.095L116.258,233.627z M122.039,254.938v-1.688h3.709v-3.845c-1.035,0.127-2.1,0.188-3.191,0.188
		c0-0.062-0.029-0.188-0.086-0.375c-0.058-0.562-0.145-0.999-0.259-1.312c1.954-0.062,4.627-0.22,8.021-0.47l0.259,1.595
		c-0.289,0-0.69,0.031-1.208,0.095c-0.862,0.126-1.524,0.188-1.984,0.188v3.938h3.623v1.688H127.3v4.031h3.019v9.656h-1.553v-1.5
		h-4.485v1.5h-1.553v-9.656h3.019v-4.031L122.039,254.938L122.039,254.938z M127.063,190.563v-1.5h14.145v1.5h-5.951
		c-0.69,0.563-1.352,1.063-1.984,1.5c0.057,0.126,0.173,0.281,0.345,0.469c0.747,1.063,1.236,1.907,1.466,2.531
		c2.07-0.938,4.226-2.094,6.469-3.469l0.949,1.5c-0.863,0.438-2.156,1.125-3.881,2.062c1.035,3.25,2.961,5.438,5.779,6.562
		c-0.058,0.062-0.116,0.156-0.172,0.281c-0.23,0.249-0.547,0.654-0.949,1.219c-3.105-1.5-5.119-3.969-6.038-7.406l-1.553,0.75
		c0.402,1.188,0.604,2.438,0.604,3.75c0.057,2.874-1.035,4.313-3.277,4.313c-0.806,0-1.725,0-2.76,0
		c-0.058-0.313-0.172-0.75-0.345-1.313c-0.058-0.188-0.086-0.345-0.086-0.469c0.805,0.062,1.695,0.094,2.674,0.094
		c1.494,0.124,2.185-0.75,2.07-2.625c0.057-0.562,0-1.187-0.172-1.875c-2.415,2.5-5.664,4.438-9.747,5.813
		c-0.23-0.563-0.517-1.125-0.862-1.688c4.082-1.062,7.474-2.968,10.178-5.719c-0.173-0.5-0.375-0.969-0.604-1.406
		c-2.415,2.001-5.261,3.596-8.539,4.781c-0.23-0.688-0.489-1.25-0.776-1.688c3.277-0.875,6.152-2.345,8.625-4.405
		c-0.23-0.375-0.489-0.75-0.776-1.125c-2.128,1.312-4.515,2.376-7.159,3.188c-0.23-0.562-0.489-1.125-0.776-1.688
		c3.623-0.75,6.583-2.063,8.884-3.938H127.063z M124.282,260.657v5.062h4.485v-5.062H124.282z M124.389,189.251v-4.031h9.401
		c-0.345-0.875-0.69-1.718-1.035-2.531l1.897-0.375c0.345,0.75,0.69,1.657,1.035,2.719l-0.603,0.188h8.711v4.031h-1.725v-2.438
		h-15.957v2.438H124.389z M127.729,217.877v-1.781h18.803v1.781h-4.054v6.75h5.002v1.875h-5.002v10.219h-1.897v-10.219h-6.728
		c0.229,4.812-1.582,8.312-5.434,10.5c-0.403-0.563-0.862-1.095-1.38-1.595c3.564-1.812,5.232-4.78,5.002-8.905h-5.347v-1.875h5.434
		v-6.75H127.729z M131.009,252.312v-1.78h1.639v-3.938h1.725v3.938h5.175v-3.938h1.639v3.938h1.639v1.78h-1.639v16.595h-1.639v-1.78
		h-5.175v1.78h-1.725v-16.595H131.009z M133.939,217.877v6.75h6.642v-6.75H133.939z M134.373,252.312v5.625h5.175v-5.625H134.373z
		 M134.373,259.625v6h5.175v-6H134.373z M145.154,268.907V258.5h8.021v10.405h-1.639v-1.5h-4.744v1.5h-1.638V268.907z
		 M146.671,190.657v-1.875h9.056c0.115-1.438,0.172-3.5,0.172-6.188h1.898c0,1.5-0.058,3.562-0.173,6.188h9.143v1.875h-9.056
		c0.805,5.752,3.938,9.721,9.401,11.906c-0.576,0.812-1.007,1.438-1.294,1.875c-5.002-2.375-8.021-6-9.056-10.875
		c-0.806,4.75-3.795,8.5-8.97,11.25l-1.293-1.688c5.692-2.874,8.711-7.031,9.056-12.469H146.671L146.671,190.657z M146.793,260.188
		v5.72h4.744v-5.72H146.793z M147.224,255.782v-8.25h14.663v8.25H147.224z M148.774,220.221v-1.688h4.83
		c-0.173-0.873-0.518-2.123-1.035-3.75l1.725-0.375c0.114,0.313,0.259,0.877,0.431,1.688c0.345,1.125,0.574,1.875,0.69,2.25
		l-0.776,0.188h4.054v1.688h-5.865c0,0.501-0.03,1.219-0.086,2.156c0,0.812,0,1.406,0,1.781h4.83c0,3.25-0.086,6.22-0.259,8.906
		c0,2.062-0.92,3.094-2.76,3.094c-0.69,0-1.324,0-1.898,0c0-0.127-0.029-0.313-0.086-0.563c-0.116-0.501-0.202-0.905-0.259-1.219
		c0.401,0,0.949,0,1.639,0c1.149,0.125,1.725-0.375,1.725-1.5c0.172-2.374,0.259-4.718,0.259-7.031h-3.278
		c-0.23,5.001-1.207,8.687-2.932,11.063c-0.633-0.688-1.065-1.125-1.294-1.313c1.667-2.187,2.53-5.78,2.587-10.78
		c0.057-0.5,0.086-1.281,0.086-2.345c0.057-0.999,0.086-1.749,0.086-2.25H148.774L148.774,220.221z M148.949,249.219v4.875h11.212
		v-4.875H148.949z M155.936,268.907V258.5h8.021v10.312h-1.639v-1.404h-4.744v1.5H155.936L155.936,268.907z M169.474,234.939
		c-0.461,0.75-0.806,1.374-1.035,1.875c-2.186-1.562-3.795-2.968-4.83-4.219c-1.266,1.5-2.991,3-5.175,4.5
		c-0.116-0.25-0.345-0.625-0.69-1.125c-0.23-0.313-0.375-0.531-0.431-0.656c2.415-1.437,4.168-2.843,5.261-4.219
		c-1.208-1.937-2.013-4.5-2.415-7.688c-0.116,0.252-0.345,0.627-0.69,1.125c-0.289,0.502-0.518,0.877-0.69,1.125
		c-0.518-0.75-0.892-1.278-1.121-1.594c1.781-2.562,3.105-5.779,3.967-9.656l1.811,0.281c-0.345,1.313-0.776,2.657-1.293,4.031
		h7.245v1.688h-1.639c-0.403,4.688-1.41,8.25-3.019,10.688C165.938,232.659,167.519,233.94,169.474,234.939L169.474,234.939z
		 M157.574,260.188v5.72h4.744v-5.72H157.574z M161.28,220.877c0.46,3.812,1.264,6.688,2.415,8.625
		c1.208-1.875,2.012-4.905,2.415-9.095h-4.657L161.28,220.877L161.28,220.877z M178.792,264.969
		c-1.841,1.437-4.198,2.78-7.073,4.031c-0.058-0.063-0.116-0.157-0.172-0.281c-0.403-0.75-0.69-1.251-0.862-1.5
		c2.875-1.125,5.088-2.312,6.641-3.563c-1.897-1.937-3.45-4.719-4.658-8.344c-0.403,5.376-2.156,9.813-5.261,13.313
		c-0.403-0.501-0.834-0.97-1.293-1.406c3.104-3.313,4.744-7.906,4.916-13.781c0-0.688,0.057-1.905,0.172-3.655h-3.881v-1.78h15.525
		v1.875l-2.329,4.5h4.312v1.78c-1.207,3.062-2.76,5.595-4.657,7.595c1.782,1.375,4.054,2.376,6.814,3
		c-0.173,0.312-0.403,0.75-0.69,1.312c-0.172,0.312-0.288,0.53-0.345,0.656C183.075,267.655,180.689,266.405,178.792,264.969
		L178.792,264.969z M172.241,201.626c-0.634,0.562-1.466,1.562-2.501,3l-0.862-1.781c0.69-0.75,1.522-1.655,2.501-2.719v-7.688
		h-2.329v-1.78h3.967v9.47c0.919,1.688,2.645,2.53,5.175,2.53c4.887,0,8.768-0.031,11.644-0.095
		c-0.058,0.249-0.144,0.563-0.259,0.938c-0.116,0.437-0.202,0.75-0.259,0.938c-3.048-0.062-6.872-0.094-11.471-0.094
		C175.201,204.345,173.332,203.438,172.241,201.626L172.241,201.626z M172.241,188.032c-0.116-0.188-0.289-0.47-0.518-0.845
		c-0.576-0.938-1.294-2.03-2.156-3.28l1.38-0.938c0.172,0.25,0.459,0.655,0.863,1.219c0.401,0.563,1.035,1.532,1.897,2.906
		L172.241,188.032z M172.927,249.782c0,0.312,0,0.75,0,1.312c-0.058,0.625-0.086,1.094-0.086,1.406l0.345-0.47
		c1.437,4.688,3.277,8.155,5.52,10.405c1.725-1.688,3.105-3.812,4.14-6.375h-4.399v-1.688l2.415-4.594h-7.935V249.782z
		 M176.806,232.782c0,2.188-0.748,3.812-2.243,4.875l-0.776-0.845c1.035-0.812,1.581-2.03,1.639-3.655h-1.466v-3.095h2.846
		C176.806,230.565,176.806,231.471,176.806,232.782L176.806,232.782z M174.915,186.813v-1.5h4.226
		c-0.172-0.249-0.461-0.624-0.863-1.125c-0.345-0.5-0.633-0.875-0.862-1.125l1.466-0.656c0.401,0.438,1.005,1.188,1.811,2.25
		c-0.517-0.75-0.46-0.655,0.173,0.281l-0.776,0.375h3.364l1.725-2.906l1.639,0.563l-1.639,2.345h4.398v1.5h-6.986l-0.518,2.154
		h6.124v11.719h-12.248v-11.72h4.485l0.431-2.156L174.915,186.813L174.915,186.813z M177.588,190.376v2.062h8.97v-2.062H177.588z
		 M177.588,193.751v2.062h8.97v-2.062H177.588z M177.588,197.126v2.156h8.97v-2.156H177.588z M189.228,266.75v-17.531h4.83v16.031
		h-3.45v1.5H189.228z M190.608,250.719v12.938h2.07v-12.938H190.608z M191.763,203.595v-1.781h8.28v-19.031h1.897v6.938h8.711v1.875
		h-8.711v10.219h10.35v1.781L191.763,203.595L191.763,203.595z M197.681,256.062c-0.058,6.063-1.064,10.313-3.019,12.75
		c-0.461-0.501-0.863-0.876-1.208-1.125c1.897-2,2.816-5.844,2.76-11.53l0.086-3.75h-1.466v-1.688h1.552v-4.125h1.466l-0.086,4.125
		h3.536c0,1-0.03,2.625-0.086,4.875c-0.058,4.938-0.116,8.282-0.172,10.031c-0.058,1.812-0.806,2.719-2.243,2.719
		c-0.116,0-0.345,0-0.69,0c-0.403,0.062-0.719,0.094-0.949,0.094l-0.259-1.779c0.345,0,0.776,0,1.294,0
		c0.977,0.123,1.466-0.375,1.466-1.5c0.057-1.188,0.114-3.656,0.172-7.406c0.057-2.499,0.086-4.28,0.086-5.344h-2.156
		C197.709,253.719,197.681,254.938,197.681,256.062L197.681,256.062z M193.625,237.002v-21.095h5.606v1.78l-1.639,6.095
		c1.149,1.5,1.695,3.312,1.639,5.438c0.057,1.938-0.604,3.032-1.983,3.281c-0.403,0.062-0.834,0.094-1.294,0.094
		c-0.116-0.624-0.259-1.219-0.431-1.781c0.459,0,0.833,0,1.121,0c0.863,0,1.264-0.593,1.208-1.779
		c0.057-1.562-0.489-3.25-1.639-5.063l1.639-6.469h-2.76v19.5H193.625z M201.387,233.907c-0.748,0.688-1.582,1.625-2.501,2.813
		l-1.122-1.406c0.46-0.562,1.15-1.28,2.07-2.155c0.401-0.438,0.69-0.75,0.862-0.938v-8.062h-1.552v-1.688h3.019v9.844
		c0.977,1.626,2.674,2.405,5.089,2.345c2.702,0,4.858-0.031,6.469-0.095c-0.172,0.624-0.317,1.22-0.431,1.781
		c-2.876,0-4.974-0.032-6.296-0.094C204.406,236.313,202.537,235.532,201.387,233.907L201.387,233.907z M201.301,220.127
		c-0.289-1.249-0.748-2.874-1.38-4.875l1.38-0.375c0.287,0.75,0.718,2.095,1.293,4.03c0.115,0.375,0.201,0.627,0.259,0.75
		L201.301,220.127z M204.837,233.346v-9.563c-0.461,0.75-1.007,1.472-1.639,2.156c-0.058-0.062-0.144-0.248-0.259-0.562
		c-0.172-0.499-0.317-0.845-0.431-1.031c1.495-1.688,2.702-3.624,3.623-5.812h-2.501v-1.5h3.019
		c0.173-0.438,0.432-1.125,0.776-2.063c0.057-0.249,0.086-0.405,0.086-0.469l1.552,0.28c-0.058,0.188-0.144,0.438-0.259,0.75
		c-0.229,0.688-0.403,1.188-0.517,1.5h5.002v1.5h-5.52c-0.345,0.75-0.69,1.471-1.035,2.155h5.348v10.125
		c0.114,1.688-0.604,2.531-2.156,2.531c-0.69,0-1.237,0-1.639,0c-0.058-0.562-0.173-1.093-0.345-1.594
		c0.632,0.062,1.178,0.094,1.639,0.094c0.805,0.062,1.178-0.375,1.121-1.312v-1.406h-4.398v4.219L204.837,233.346L204.837,233.346
		L204.837,233.346z M202.855,268.062v-18.938h5.348v18.75h-1.466v-1.688h-2.415v1.875L202.855,268.062L202.855,268.062z
		 M204.322,250.812v13.781h2.415v-13.781H204.322z M206.303,222.096v2.156h4.398v-2.156H206.303z M206.303,225.657v2.156h4.398
		v-2.156H206.303z M211.308,266.469V248.75h5.52v17.438h-1.466V264.5h-2.501v1.969H211.308z M212.861,250.532v12.279h2.501v-12.279
		H212.861z M215.618,235.596v-19.125h7.245v18.844h-1.639v-1.688h-3.968v1.969H215.618z M217.257,218.157v6.096h3.968v-6.096
		H217.257z M217.257,225.846v6.094h3.968v-6.094H217.257z M220.351,200.782c0,2.188-0.748,3.812-2.243,4.875l-0.776-0.845
		c1.035-0.812,1.581-2.03,1.639-3.655h-1.466v-3.095h2.846C220.351,198.564,220.351,199.47,220.351,200.782L220.351,200.782z
		 M217.863,252.219v-1.688h3.45v-3.938h1.639v22.312h-1.639v-5.438h-3.537v-1.688h3.537v-4.031h-3.191v-1.688h3.191v-3.844h-3.45
		V252.219z M223.984,221.157v-1.779h7.331v-4.875h1.725v4.875h2.674v1.779h-2.674v12.188c0.057,2.063-0.949,3.125-3.019,3.188
		c-0.979,0-2.07,0-3.277,0c-0.058-0.25-0.145-0.625-0.259-1.125c-0.058-0.375-0.116-0.656-0.172-0.844
		c0.574,0.062,1.609,0.094,3.104,0.094c1.322,0.062,1.954-0.563,1.897-1.875v-11.625h-7.33V221.157z M227.176,229.689
		c-0.461-1.062-1.151-2.468-2.07-4.219c-0.23-0.437-0.403-0.78-0.517-1.031l1.38-0.844c0.345,0.563,0.804,1.406,1.38,2.531
		c0.632,1.125,1.091,1.969,1.38,2.53L227.176,229.689z M225.54,268.907v-22.312h1.639v3.938h3.623v1.688h-3.623v3.844h3.45v1.688
		h-3.45v4.03h3.795v1.688h-3.795v5.438H225.54L225.54,268.907z M233.475,191.313c-0.116-0.188-0.289-0.437-0.518-0.75
		c-0.23-0.312-0.403-0.562-0.518-0.75c2.875-2.124,5.089-4.594,6.642-7.406l1.811,0.47c-0.172,0.312-0.461,0.75-0.863,1.312
		c-0.172,0.25-0.288,0.438-0.345,0.563h8.453v1.5l-2.588,2.812h5.175v7.594h-8.021c-1.035,3.563-4.054,6.345-9.056,8.346
		c-0.288-0.563-0.662-1.125-1.121-1.688c4.369-1.5,7.159-3.718,8.366-6.655h-6.124v-6.375L233.475,191.313z M238.046,268.157
		c-1.841-0.188-2.876-1.281-3.105-3.28c0.172-2.124,1.208-3.281,3.105-3.47c1.954,0.188,3.019,1.346,3.191,3.47
		C241.064,266.874,240,267.969,238.046,268.157L238.046,268.157z M245.981,186.251h-7.417c-0.69,0.876-1.524,1.812-2.501,2.812
		h7.332L245.981,186.251z M238.046,262.812c-1.093,0.126-1.697,0.813-1.812,2.063c0.115,1.062,0.719,1.654,1.812,1.781
		c1.149-0.127,1.782-0.72,1.897-1.781C239.828,263.625,239.195,262.938,238.046,262.812L238.046,262.812z M236.493,190.657v4.406
		h4.917l0.172-0.844c0.229-1.125,0.373-2.312,0.431-3.562H236.493L236.493,190.657z M247.186,222.189
		c-0.46,6.438-3.307,11.376-8.539,14.813c-0.461-0.625-0.92-1.188-1.38-1.688c5.117-3.188,7.819-7.562,8.107-13.125h-7.676v-1.78
		h7.849c0.173-1.875,0.259-3.875,0.259-6h1.897c0,2.062-0.086,4.062-0.259,6h9.057c-0.116,4.375-0.259,8.188-0.432,11.438
		c-0.058,3.062-1.41,4.562-4.054,4.5c-1.38,0.062-2.731,0.095-4.054,0.095c-0.058-0.188-0.116-0.47-0.172-0.845
		c0-0.25-0.086-0.688-0.259-1.312c0.287,0,0.833,0,1.639,0c1.035,0.062,1.782,0.094,2.243,0.094c1.897,0.188,2.846-0.78,2.846-2.906
		c0.229-3.188,0.345-6.281,0.345-9.281L247.186,222.189L247.186,222.189z M242.183,219.471c-0.978-1.313-1.983-2.468-3.019-3.469
		l1.294-1.125c1.149,1.001,2.184,2.063,3.105,3.188L242.183,219.471z M245.636,204.345c-1.896,0-2.846-0.876-2.846-2.625v-4.219
		h1.725v3.75c-0.058,0.999,0.518,1.468,1.725,1.406h3.191c1.035,0,1.639-0.438,1.812-1.313c0.172-0.812,0.287-1.781,0.345-2.906
		c0.574,0.188,1.149,0.345,1.725,0.47c-0.058,0.688-0.172,1.47-0.345,2.345c-0.058,0.375-0.116,0.655-0.173,0.844
		c-0.288,1.5-1.293,2.25-3.019,2.25L245.636,204.345L245.636,204.345z M249.086,190.657h-5.348c-0.116,1.438-0.259,2.688-0.431,3.75
		l-0.086,0.656h5.865V190.657z M250.981,230.439c-0.748-1.062-1.87-2.374-3.364-3.938l1.293-1.125
		c0.862,0.75,2.041,1.969,3.536,3.655L250.981,230.439z M256.705,197.313c-0.345,0.126-0.633,0.221-0.862,0.281
		c-0.172-0.562-0.403-1.093-0.69-1.594c3.623-0.875,5.749-2.063,6.382-3.563h-4.916l0.604-4.78h5.002c0-0.562,0-1.22,0-1.97h-5.865
		v-1.405h5.951c0-0.625,0-1.22,0-1.781h1.639c0,0.562,0,1.156,0,1.781h3.709v-1.781h1.639v1.781h5.089v4.78h-5.089v2.063h5.951
		c0,0.25-0.03,0.656-0.086,1.219c0,0.375,0,0.656,0,0.844c-0.058,1.063-0.662,1.626-1.812,1.688c-0.748,0-1.438,0-2.07,0
		c0-0.062-0.03-0.155-0.086-0.281c-0.116-0.375-0.202-0.656-0.259-0.844c0.229,0,0.546,0.032,0.949,0.094c0.402,0,0.69,0,0.862,0
		c0.632,0.063,0.919-0.219,0.863-0.844c0.057-0.188,0.086-0.375,0.086-0.563h-4.399v2.156h-1.639v-2.156h-4.313
		c-0.345,1.188-1.065,2.156-2.156,2.906h11.471v5.625h-1.639v-4.219h-10.695v4.5h-1.725v-4.688
		C258.258,196.751,257.625,197.001,256.705,197.313L256.705,197.313z M274.387,204.813c-0.689-0.251-1.668-0.626-2.933-1.125
		c-2.587-1.001-4.571-1.719-5.951-2.156c-1.035,1.562-3.939,2.721-8.711,3.471c-0.172-0.563-0.431-1.157-0.776-1.781
		c3.45-0.438,5.75-1.001,6.9-1.688c1.208-0.688,1.839-1.905,1.897-3.655h1.811c-0.116,0.812-0.259,1.562-0.431,2.25
		c0.977,0.312,2.385,0.782,4.226,1.405c2.07,0.688,3.651,1.22,4.744,1.595L274.387,204.813z M258.603,189.063l-0.259,2.063h3.622
		c0.115-0.624,0.173-1.313,0.173-2.063H258.603z M260.382,222.377c-0.289,0.312-0.489,0.562-0.604,0.75
		c-0.058-0.188-0.202-0.47-0.431-0.845c-0.172-0.375-0.317-0.655-0.431-0.845c1.954-2.062,3.536-4.405,4.744-7.03l1.639,0.562
		c-0.633,1.312-1.293,2.47-1.984,3.469v9.75h-1.639v-7.404C261.388,221.157,260.956,221.69,260.382,222.377L260.382,222.377z
		 M262.797,229.877c-0.806,2.376-1.524,4.125-2.156,5.25l-1.552-0.656c0.862-1.688,1.581-3.375,2.156-5.063L262.797,229.877
		L262.797,229.877z M263.778,189.063c0.057,0.75,0,1.438-0.172,2.063h4.054v-2.063H263.778z M263.864,185.688
		c0,0.625,0,1.281,0,1.969h3.795v-1.969H263.864z M266.765,236.252c-1.725,0-2.587-0.906-2.587-2.72v-3.845h1.639v3.375
		c0.057,1.002,0.604,1.5,1.639,1.5h3.795c1.264,0.062,1.984-0.437,2.156-1.5c0.172-0.687,0.287-1.405,0.345-2.155
		c0.114,0.062,0.315,0.127,0.604,0.188c0.459,0.251,0.833,0.407,1.122,0.469c-0.173,0.876-0.345,1.688-0.518,2.438
		c-0.403,1.562-1.496,2.312-3.278,2.25H266.765L266.765,236.252z M269.87,222.377c-1.093,1.438-2.415,3-3.968,4.688
		c-0.116-0.188-0.375-0.437-0.776-0.75c-0.173-0.188-0.317-0.343-0.431-0.469c1.149-1.125,2.415-2.593,3.795-4.406L269.87,222.377
		L269.87,222.377z M268.49,218.439c-0.403,0.876-1.151,2.001-2.243,3.375c-0.058-0.062-0.116-0.124-0.172-0.188
		c-0.518-0.375-0.92-0.656-1.208-0.845c1.667-1.998,2.933-4.094,3.795-6.28l1.725,0.28c-0.058,0.188-0.172,0.438-0.345,0.75
		c-0.058,0.252-0.259,0.688-0.604,1.312h9.574v1.688l-1.294,3c-0.058,0-0.172-0.062-0.345-0.188
		c-0.518-0.188-0.92-0.343-1.208-0.469l1.121-2.438L268.49,218.439L268.49,218.439z M270.387,232.596
		c-0.863-1.125-1.755-2.187-2.674-3.188l1.208-1.029c0.632,0.626,1.581,1.626,2.846,3L270.387,232.596z M270.905,228.002
		c-0.634,0-1.294,0-1.984,0c0-0.062-0.03-0.155-0.086-0.281c0-0.312-0.086-0.78-0.259-1.406c0.402,0.063,0.977,0.095,1.725,0.095
		c0.977,0.062,1.438-0.375,1.38-1.312v-5.25h1.639v5.531C273.376,227.064,272.572,227.94,270.905,228.002L270.905,228.002z
		 M272.834,185.688h-3.536v1.969h3.536V185.688z M278.322,227.064c-1.496-1.812-2.76-3.218-3.795-4.219l1.207-1.125
		c0.977,0.876,2.299,2.25,3.968,4.125L278.322,227.064z M278.495,234.377c-0.345-0.499-0.862-1.28-1.553-2.345
		c-0.69-0.998-1.237-1.78-1.639-2.345l1.294-0.938c1.38,1.812,2.501,3.375,3.364,4.688L278.495,234.377z M278.652,202.751V185.22
		h4.83v16.031h-3.45v1.5H278.652z M280.032,186.72v12.938h2.07V186.72H280.032z M283.756,223.596
		c-0.633,1.313-1.38,2.563-2.242,3.75c-0.058-0.249-0.145-0.656-0.259-1.219c-0.116-0.563-0.202-0.968-0.259-1.22
		c2.012-3,3.536-6.438,4.571-10.312l1.725,0.469c-0.058,0.252-0.172,0.627-0.345,1.125c-0.576,1.752-1.065,3.063-1.466,3.938v16.78
		h-1.725V223.596L283.756,223.596z M287.104,192.063c-0.058,6.063-1.064,10.313-3.019,12.75c-0.461-0.501-0.863-0.876-1.208-1.125
		c1.897-2,2.816-5.844,2.76-11.531l0.086-3.75h-1.466v-1.688h1.552v-4.125h1.466l-0.086,4.125h3.536c0,1-0.03,2.625-0.086,4.875
		c-0.058,4.938-0.116,8.282-0.172,10.031c-0.058,1.812-0.806,2.719-2.243,2.719c-0.116,0-0.345,0-0.69,0
		c-0.403,0.062-0.719,0.094-0.949,0.094l-0.259-1.781c0.345,0,0.776,0,1.294,0c0.977,0.125,1.466-0.375,1.466-1.5
		c0.057-1.187,0.114-3.654,0.172-7.404c0.057-2.499,0.086-4.28,0.086-5.346h-2.156C287.133,189.72,287.104,190.938,287.104,192.063
		L287.104,192.063z M292.898,231.564c-1.668,2.001-3.335,3.75-5.002,5.25c-0.23-0.25-0.69-0.688-1.38-1.312
		c1.839-1.438,3.478-3.096,4.916-4.971L292.898,231.564L292.898,231.564z M287.465,221.157v-1.688h2.674v-4.875h1.725v4.875h4.658
		v-4.875h1.725v4.875h2.846v1.688h-2.846v6.563h3.623v1.781h-15.267v-1.781h3.537v-6.563H287.465z M291.863,221.157v6.563h4.658
		v-6.563H291.863z M292.279,204.063v-18.938h5.348v18.75h-1.466v-1.688h-2.415v1.875L292.279,204.063L292.279,204.063z
		 M293.746,186.813v13.781h2.415v-13.781H293.746z M300.488,236.814c-1.151-1.312-2.79-3.03-4.916-5.155l1.294-1.22
		c1.207,1.251,1.609,1.657,1.207,1.22c1.609,1.625,2.875,2.905,3.795,3.845L300.488,236.814z M301.289,202.47v-17.719h5.52v17.438
		h-1.466v-1.688h-2.501v1.969H301.289z M302.841,186.532v12.281h2.501v-12.281H302.841z M306.526,231.752
		c-0.346,1.688-1.035,3.375-2.07,5.062l-1.38-1.219c0.919-1.562,1.522-3.094,1.811-4.594c0.287-1.438,0.431-3.624,0.431-6.563
		v-6.844h8.711c-0.059-0.312-0.202-0.812-0.432-1.5c-0.173-0.688-0.316-1.154-0.431-1.406l1.897-0.28
		c0.057,0.252,0.2,0.75,0.432,1.5c0.229,0.75,0.401,1.312,0.518,1.688h7.59v1.781h-16.561v4.779
		C307.043,227.472,306.871,230.003,306.526,231.752L306.526,231.752z M307.302,235.502v-1.595h9.833
		c1.38-4.062,2.559-8.123,3.536-12.188l1.726,0.562c-1.094,4.188-2.241,8.063-3.448,11.625h4.916v1.596L307.302,235.502
		L307.302,235.502z M307.844,188.22v-1.688h3.45v-3.938h1.639v22.313h-1.639v-5.438h-3.537v-1.688h3.537v-4.031h-3.191v-1.688h3.191
		v-3.842H307.844z M310.58,231.846c-0.059-0.312-0.172-0.812-0.345-1.5c-0.807-3.375-1.467-5.874-1.984-7.5l1.552-0.469
		c0.806,2.625,1.64,5.625,2.501,9L310.58,231.846z M315.323,230.627c-0.403-2.25-1.006-5.25-1.812-9l1.64-0.375
		c0.632,2.938,1.264,5.97,1.896,9.094L315.323,230.627z M315.52,204.907v-22.312h1.64v3.938h3.623v1.686h-3.623v3.844h3.449v1.688
		h-3.449v4.03h3.795v1.688h-3.795v5.438H315.52L315.52,204.907z M326.417,199.563c-0.345,1.75-1.035,3.499-2.069,5.25
		c-0.059-0.062-0.173-0.156-0.346-0.281c-0.518-0.438-0.893-0.78-1.121-1.029c0.919-1.5,1.521-3.031,1.812-4.596
		c0.285-1.5,0.431-3.779,0.431-6.844v-8.156h18.544v1.781h-16.732v6.188C326.936,195.251,326.762,197.814,326.417,199.563
		L326.417,199.563z M326.277,223.314c-0.116-0.188-0.288-0.437-0.52-0.75c-0.229-0.312-0.402-0.562-0.518-0.75
		c2.875-2.124,5.089-4.594,6.642-7.405l1.812,0.47c-0.172,0.312-0.461,0.75-0.861,1.312c-0.172,0.252-0.288,0.438-0.346,0.563h8.453
		v1.5l-2.588,2.813h5.176v7.594h-8.021c-1.035,3.562-4.054,6.343-9.056,8.344c-0.289-0.562-0.662-1.125-1.122-1.688
		c4.369-1.5,7.158-3.72,8.365-6.656h-6.123v-6.375L326.277,223.314z M328.143,191.407v-1.779h15.524v1.779h-6.296v10.031
		c0.057,1.999-0.921,3-2.934,3c-1.035,0.062-2.101,0.094-3.19,0.094c0-0.438-0.116-1.095-0.345-1.969
		c0.572,0.062,1.521,0.094,2.846,0.094c1.266,0.062,1.868-0.5,1.812-1.688v-9.562H328.143L328.143,191.407z M338.783,218.252h-7.417
		c-0.69,0.876-1.524,1.812-2.501,2.812h7.33L338.783,218.252z M329.296,222.657v4.406h4.916l0.173-0.844
		c0.229-1.125,0.373-2.312,0.434-3.562H329.296L329.296,222.657z M338.438,236.346c-1.896,0-2.847-0.876-2.847-2.625v-4.219h1.728
		v3.75c-0.06,0.999,0.518,1.468,1.725,1.405h3.191c1.033,0,1.639-0.438,1.812-1.312c0.172-0.812,0.287-1.781,0.345-2.906
		c0.574,0.188,1.149,0.346,1.728,0.469c-0.06,0.688-0.173,1.472-0.347,2.346c-0.059,0.375-0.114,0.654-0.172,0.844
		c-0.289,1.5-1.295,2.25-3.021,2.25L338.438,236.346L338.438,236.346z M341.889,222.657h-5.348c-0.116,1.438-0.259,2.688-0.432,3.75
		l-0.086,0.656h5.863L341.889,222.657L341.889,222.657z M348.961,229.314c-0.345,0.126-0.633,0.22-0.861,0.281
		c-0.174-0.563-0.402-1.093-0.689-1.594c3.623-0.874,5.749-2.063,6.383-3.563h-4.916l0.604-4.781h5.004c0-0.562,0-1.219,0-1.969
		h-5.865v-1.406h5.951c0-0.623,0-1.219,0-1.779h1.639c0,0.562,0,1.156,0,1.779h3.709v-1.779h1.639v1.779h5.09v4.781h-5.09v2.063
		h5.951c0,0.251-0.027,0.655-0.086,1.219c0,0.375,0,0.656,0,0.844c-0.059,1.063-0.662,1.626-1.812,1.688c-0.747,0-1.438,0-2.069,0
		c0-0.062-0.029-0.155-0.086-0.281c-0.116-0.375-0.202-0.656-0.259-0.844c0.229,0,0.546,0.031,0.947,0.094c0.401,0,0.689,0,0.862,0
		c0.632,0.062,0.919-0.218,0.862-0.844c0.057-0.188,0.086-0.375,0.086-0.563h-4.398v2.156h-1.639v-2.156h-4.312
		c-0.346,1.188-1.063,2.156-2.155,2.906h11.471v5.625h-1.639v-4.219h-10.694v4.5h-1.727v-4.688
		C350.514,228.752,349.88,229.003,348.961,229.314L348.961,229.314z M351.21,204.157c-1.841-0.188-2.876-1.28-3.104-3.279
		c0.174-2.124,1.207-3.281,3.104-3.471c1.954,0.188,3.019,1.347,3.19,3.471C354.229,202.875,353.164,203.97,351.21,204.157
		L351.21,204.157z M366.643,236.814c-0.688-0.25-1.668-0.625-2.933-1.125c-2.588-1-4.571-1.718-5.951-2.155
		c-1.034,1.562-3.938,2.72-8.711,3.47c-0.173-0.563-0.432-1.157-0.774-1.781c3.447-0.438,5.748-1,6.897-1.688
		c1.208-0.688,1.84-1.904,1.897-3.655h1.812c-0.116,0.812-0.259,1.562-0.432,2.25c0.978,0.312,2.386,0.78,4.227,1.405
		c2.07,0.688,3.651,1.22,4.744,1.595L366.643,236.814z M351.21,198.813c-1.093,0.126-1.696,0.813-1.812,2.063
		c0.112,1.062,0.719,1.655,1.812,1.78c1.149-0.125,1.781-0.719,1.897-1.78C352.991,199.626,352.359,198.939,351.21,198.813
		L351.21,198.813z M350.857,221.064l-0.26,2.063h3.623c0.114-0.624,0.172-1.313,0.172-2.063H350.857z M356.033,221.064
		c0.057,0.75,0,1.438-0.172,2.063h4.054v-2.063H356.033z M356.12,217.689c0,0.626,0,1.282,0,1.97h3.795v-1.97H356.12z
		 M365.09,217.689h-3.536v1.97h3.536V217.689z"/>
	<path fill="#FFFFFF" d="M56.963,147.355v-3.953H93.56v3.953H77.852v3.234h13.87v3.594h-13.87v3.414h17.546v3.773H55.292v-3.773
		h17.546v-3.414H58.801v-3.594h14.037v-3.234H56.963z M59.637,140.707v-17.25h9.358c0.222-0.598,0.501-1.497,0.835-2.695
		c0.109-0.478,0.222-0.837,0.334-1.078l5.515,0.539l-1.337,3.234h16.544v17.25L59.637,140.707L59.637,140.707z M64.483,127.411
		v3.055H86.04v-3.055H64.483z M64.483,133.7v3.055H86.04V133.7H64.483z M105.428,135.677v-3.953h25.234v3.953h-8.69
		c-1.449,0.839-2.841,1.737-4.178,2.694c1.225,1.438,2.228,2.938,3.008,4.492c4.011-1.797,7.964-3.892,11.865-6.289l2.506,4.133
		c-0.559,0.242-1.449,0.72-2.674,1.438c-1.783,0.839-3.12,1.499-4.01,1.978c1.671,5.391,4.901,9.344,9.692,11.859
		c-0.224,0.358-0.668,0.897-1.337,1.616c-0.78,1.078-1.394,1.915-1.838,2.517c-5.238-3.354-8.69-8.024-10.361-14.017l-2.172,0.897
		c0.668,2.277,1.002,4.613,1.002,7.009c0.11,5.508-2.063,8.266-6.517,8.266c-1.783,0-3.734,0-5.849,0
		c-0.334-1.438-0.726-2.937-1.17-4.491c1.781,0,3.397,0,4.846,0c2.783,0.238,4.065-1.018,3.843-3.773
		c0-0.837-0.057-1.617-0.167-2.336c-4.792,3.953-10.974,7.188-18.549,9.703c-0.112-0.242-0.225-0.539-0.334-0.898
		c-0.781-1.558-1.395-2.636-1.838-3.234c7.909-2.155,14.481-5.449,19.719-9.883c0-0.117-0.058-0.359-0.167-0.719
		c-0.224-0.479-0.392-0.898-0.501-1.258c-5.125,3.476-10.64,6.23-16.544,8.266c-0.668-1.438-1.337-2.934-2.005-4.492
		c6.46-1.438,12.032-3.772,16.711-7.008c-0.446-0.598-0.835-1.137-1.17-1.617c-3.342,1.797-7.799,3.477-13.369,5.031
		c-0.334-0.598-0.781-1.555-1.337-2.875c-0.334-0.598-0.559-1.078-0.668-1.438c7.019-1.196,12.588-3.055,16.711-5.57
		L105.428,135.677L105.428,135.677z M99.078,133.52v-9.523h16.878l-1.504-4.133l5.849-0.539c0.222,0.601,0.611,1.738,1.169,3.414
		c0.11,0.601,0.222,1.019,0.334,1.258h15.207v9.523h-5.013v-5.031h-28.075v5.031H99.078z M141.684,136.574v-5.391h16.377
		c0.109-2.634,0.167-6.348,0.167-11.141h5.515l-0.167,11.141h16.544v5.391h-16.544c1.781,10.184,7.575,17.012,17.379,20.484
		c-0.668,0.598-1.561,1.797-2.673,3.594c-0.447,0.719-0.781,1.196-1.003,1.438c-8.689-3.953-14.149-10-16.376-18.147
		c-1.671,7.666-7.186,13.895-16.544,18.688c-0.447-0.602-1.17-1.617-2.172-3.055c-0.668-0.84-1.17-1.5-1.504-1.978
		c10.583-4.672,16.209-11.68,16.878-21.022L141.684,136.574L141.684,136.574z M190.149,156.88c-2.005,2.036-3.622,3.953-4.846,5.75
		l-2.005-5.392c0.668-0.836,1.671-1.914,3.008-3.233c0.556-0.599,0.945-1.017,1.169-1.259v-12.758h-4.01v-5.21h8.856v17.968
		c1.671,3.117,4.679,4.673,9.024,4.673c3.898,0.12,11.473,0.062,22.727-0.181c-0.446,0.959-0.893,2.396-1.337,4.313
		c0-0.242-0.058-0.121-0.167,0.358c-6.35,0-10.862,0-13.536,0c-3.342,0-6.24-0.062-8.689-0.18
		C195.439,161.611,192.042,159.992,190.149,156.88L190.149,156.88z M189.146,131.364c-1.449-2.875-3.065-5.809-4.846-8.805
		l4.01-2.156c1.781,2.875,3.51,5.632,5.181,8.266L189.146,131.364z M194.995,128.669v-3.953h6.852
		c-0.334-0.478-0.781-1.137-1.337-1.977c-0.668-0.958-1.17-1.617-1.504-1.977l4.846-1.078c1.002,1.438,2.115,3.116,3.342,5.031
		h3.843c0.444-0.837,0.611-1.078,0.501-0.719c1.225-2.395,1.948-3.833,2.172-4.313l5.013,1.078c-0.112,0.241-0.392,0.66-0.835,1.258
		c-0.668,1.199-1.227,2.097-1.671,2.695h7.019v3.953h-12.533l-0.835,3.234h11.363v22.46h-24.732v-22.458h8.523l0.668-3.234H194.995z
		 M201.178,135.497v2.875h15.374v-2.875H201.178z M201.178,141.605v3.055h15.374v-3.055H201.178z M201.178,147.716v3.055h15.374
		v-3.055H201.178z M227.752,159.574v-35.219h10.528v32.164h-6.686v3.055H227.752z M231.595,128.669v23.538h3.008v-23.538H231.595z
		 M245.131,137.652c-0.112,12.219-1.838,20.543-5.181,24.978c-0.112-0.121-0.279-0.242-0.501-0.359
		c-0.668-0.719-1.616-1.558-2.841-2.516c1.781-2.634,2.951-5.329,3.509-8.086c0.668-2.634,1.058-7.306,1.17-14.017l0.167-5.391
		h-2.172v-4.672h2.172l0.167-7.547h3.843l-0.167,7.547h6.517c0,9.227-0.112,18.929-0.334,29.109
		c-0.112,3.113-1.504,4.73-4.178,4.852c-1.003,0.118-2.172,0.18-3.509,0.18l-0.668-4.492c0.109,0,0.389,0,0.835,0
		c0.668,0.121,1.17,0.181,1.504,0.181c1.559,0.12,2.282-0.72,2.172-2.517c0.11-2.273,0.222-7.484,0.334-15.633
		c0.109-3.234,0.167-5.57,0.167-7.008h-2.841L245.131,137.652L245.131,137.652z M253.988,161.552v-37.196h11.029v36.836h-3.843
		v-3.594h-3.342v3.953L253.988,161.552L253.988,161.552z M257.832,129.028v23.898h3.342v-23.898H257.832z M270.525,159.035v-35.757
		h12.032v35.398h-4.178v-3.055h-3.676v3.414H270.525L270.525,159.035z M274.703,128.13v22.461h3.676V128.13H274.703z
		 M284.228,131.903v-4.852h5.682v-7.008h4.512v42.586h-4.512v-9.523h-6.016v-4.672h6.016v-6.109h-5.348v-4.672h5.348v-5.75H284.228z
		 M298.098,162.809v-42.765h4.512v7.008h6.183v4.852h-6.183v5.75h5.515v4.672h-5.515v6.108h6.517v4.672h-6.517v9.703
		L298.098,162.809L298.098,162.809z M320.661,138.552c0.222,10.78-1.504,18.867-5.18,24.258c-0.894-0.96-2.23-2.276-4.012-3.953
		c1.671-2.634,2.729-5.329,3.175-8.086c0.557-2.516,0.836-6.528,0.836-12.039V122.2h36.43v5.211h-31.25L320.661,138.552
		L320.661,138.552z M322.332,138.191v-5.031h29.579v5.031h-11.364v17.25c0.223,4.313-1.896,6.528-6.35,6.648
		c-1.896,0-4.012,0-6.353,0c-0.11-0.359-0.278-1.199-0.501-2.516c-0.334-1.199-0.559-1.978-0.669-2.336c0.669,0,1.614,0,2.841,0
		c1.338,0.121,2.282,0.18,2.844,0.18c2.113,0.121,3.115-1.018,3.008-3.414v-15.812H322.332z"/>
	<path fill="#FFFFFF" d="M264.18,96.506V94.35h8.37c0-0.062,0-0.125,0-0.188c0.116-0.312,0.174-0.687,0.174-1.125h2.703
		c0,0.126,0,0.313,0,0.563c-0.059,0.313-0.087,0.563-0.087,0.75h8.719v2.156h-8.37c1.104,1.813,4.068,2.845,8.893,3.094
		c-0.174,0.312-0.436,0.844-0.785,1.594c-0.174,0.437-0.32,0.75-0.436,0.938c-4.651-0.501-7.731-1.781-9.242-3.844
		c-1.279,1.875-4.447,3.281-9.504,4.219c-0.292-0.876-0.668-1.781-1.133-2.719c4.999-0.312,7.847-1.406,8.544-3.281L264.18,96.506
		L264.18,96.506z M264.354,84.787v-2.25h5.057l-1.569-2.25l2.703-0.563c0.639,0.813,1.278,1.72,1.918,2.719l-0.349,0.094h3.662
		c0.057-0.125,0.174-0.312,0.349-0.563c0.813-1.125,1.308-1.875,1.482-2.25l2.79,0.563c-0.174,0.313-0.523,0.813-1.046,1.5
		c-0.233,0.313-0.407,0.563-0.523,0.75h4.97v2.25h-8.458v1.594h7.411v2.156h-7.411v1.688h8.98v2.156h-20.489v-2.156h8.894v-1.688
		h-7.237v-2.156h7.237v-1.594H264.354z M307.127,102.225c-2.849-1.313-5.726-2.47-8.632-3.469c0,0.625,0,1.28,0,1.969
		c-0.872,0.125-2.151,0.406-3.836,0.844c-0.641,0.125-1.105,0.218-1.395,0.281c-0.059,0-0.117,0.031-0.174,0.094
		c-0.523,0.125-1.105,0.343-1.744,0.656l-1.22-2.156c0.639-0.501,0.929-1.093,0.872-1.781V87.881
		c-0.117,0.063-0.292,0.157-0.523,0.281c-0.292,0.063-0.785,0.281-1.482,0.656c-0.292-0.75-0.669-1.562-1.133-2.438
		c4.766-1.812,8.079-4.031,9.939-6.656l3.051,0.188l-0.523,0.844c2.208,2.376,5.201,4.125,8.979,5.25
		c-0.116,0.25-0.292,0.656-0.522,1.219c-0.233,0.563-0.407,0.97-0.523,1.219c-0.812-0.312-1.541-0.593-2.18-0.844v7.594l1.308,1.406
		c-0.175,0.126-0.466,0.281-0.872,0.469c-0.522,0.375-1.337,0.844-2.44,1.406c1.395,0.563,2.79,1.063,4.185,1.5L307.127,102.225z
		 M299.542,84.131c0.349,0.876,0.61,1.688,0.785,2.438l-0.349,0.094h4.098c-1.977-1.062-3.72-2.468-5.231-4.219
		c-1.279,1.375-3.11,2.782-5.493,4.219h4.534c-0.059-0.312-0.204-0.75-0.436-1.313c-0.117-0.437-0.205-0.75-0.262-0.938
		L299.542,84.131L299.542,84.131z M293.438,88.631v1.594h10.114v-1.594H293.438z M293.438,92.006v1.688h10.114v-1.688H293.438z
		 M293.438,99.506c0.58-0.125,1.423-0.312,2.528-0.563c0.813-0.188,1.452-0.343,1.918-0.469l-2.354-0.938l1.046-1.875
		c0.755,0.25,1.801,0.625,3.139,1.125c0.755,0.313,1.336,0.532,1.744,0.656c0.406-0.249,0.988-0.593,1.744-1.031
		c0.523-0.312,0.929-0.563,1.22-0.75h-10.985V99.506z M315.374,85.162c-0.523,0.75-1.164,1.438-1.918,2.063
		c-0.292-0.5-0.61-0.999-0.959-1.5c1.103-0.999,2.005-2.25,2.703-3.75l1.831,0.281c0,0.063-0.03,0.157-0.087,0.281
		c-0.117,0.188-0.292,0.501-0.523,0.938h1.396v-3.563h2.005v0.938h3.487v1.594h-3.487v1.031h2.79v1.969
		c-2.209,2.313-5.202,4.094-8.979,5.344c-0.407-0.875-0.728-1.5-0.959-1.875c0.057,0,0.174-0.031,0.349-0.094
		c1.396-0.375,2.384-0.718,2.965-1.031l-1.222-1.219l1.482-1.031c0.174,0.126,0.436,0.344,0.785,0.656
		c0.29,0.313,0.521,0.563,0.696,0.75c0.872-0.437,1.686-1.031,2.441-1.781L315.374,85.162L315.374,85.162z M332.201,89.569
		c-1.338-0.875-2.616-1.688-3.837-2.438c-0.757,0.438-1.656,0.844-2.702,1.219c2.033,1.626,4.765,2.845,8.195,3.656
		c-0.351,0.75-0.67,1.5-0.959,2.25c-1.105-0.375-2.095-0.75-2.967-1.125v4.406l0.959-0.563l1.223,1.5
		c-0.814,0.501-1.743,0.907-2.79,1.219c1.104,0.375,2.268,0.687,3.485,0.938l-1.22,1.781c-2.907-0.938-5.842-1.813-8.807-2.625
		c0,0.437,0,0.875,0,1.313c-1.628,0.249-3.372,0.563-5.231,0.938c-0.466,0.125-0.93,0.281-1.395,0.469l-0.872-1.781
		c0.522-0.375,0.754-0.844,0.697-1.406V93.6c-0.757,0.375-1.569,0.75-2.441,1.125c-0.233-0.687-0.582-1.406-1.046-2.156
		c4.242-1.437,7.527-3.343,9.852-5.719l1.396,0.094c0.23-0.125,0.58-0.249,1.047-0.375c0.29-0.125,0.812-0.343,1.568-0.656
		c-0.116-0.062-0.319-0.188-0.609-0.375c-0.407-0.188-1.018-0.563-1.831-1.125l1.221-1.5l3.228,1.781
		c0.697-0.563,1.337-1.187,1.918-1.875h-6.018v-1.875h8.37v1.969c-0.872,1.313-1.687,2.282-2.44,2.906l3.227,1.875L332.201,89.569z
		 M327.754,93.131h-9.503v1.031h9.503V93.131z M318.251,96.506h9.503v-1.125h-9.503V96.506z M318.251,99.881l2.79-0.375
		l-0.088-0.094l0.785-1.406h-3.487V99.881z M324.005,90.131c0.06,0.126,0.146,0.375,0.263,0.75c0.059,0.313,0.115,0.563,0.176,0.75
		h2.526c-1.278-0.75-2.559-1.688-3.837-2.813c-0.697,0.876-1.859,1.813-3.486,2.813h2.703L322,90.412L324.005,90.131z
		 M324.877,98.756c0.872,0.188,1.512,0.344,1.918,0.469c0.93-0.437,1.075-0.5,0.438-0.188c0.64-0.312,1.309-0.656,2.006-1.031
		h-7.324C322.609,98.132,323.598,98.381,324.877,98.756L324.877,98.756z M344.196,89.381c-0.642-0.312-1.31-0.5-2.005-0.563v8.438
		l2.789-1.875c0.175,1,0.291,1.969,0.35,2.906c-1.163,0.75-2.354,1.5-3.575,2.25c-0.059,0.062-0.174,0.155-0.349,0.281
		c-0.407,0.312-0.697,0.593-0.871,0.844l-1.57-2.063c0.523-0.563,0.785-1.219,0.785-1.969v-9.656h2.441v0.656l1.133-3.375h-2.615
		c-0.697,2.001-1.541,3.876-2.527,5.625c-0.06-0.188-0.232-0.563-0.522-1.125c-0.291-0.624-0.522-1.125-0.697-1.5
		c1.162-2.375,2.063-5.187,2.703-8.438l2.528,0.281c-0.233,1-0.495,1.969-0.785,2.906h4.186v2.25L344.196,89.381z M351.434,94.725
		c-0.641,2.813-2.559,5.375-5.755,7.688c-0.641-0.876-1.251-1.688-1.831-2.438c3.604-1.937,5.639-4.875,6.104-8.813
		c0.114-1.187,0.174-2.625,0.174-4.313h2.528c0,0.438-0.029,1.063-0.088,1.875c0,0.625,0,1.094,0,1.406
		c0.58,4.188,2.559,7.345,5.93,9.469c-0.641,0.812-1.221,1.625-1.743,2.438C354.136,100.099,352.361,97.663,351.434,94.725
		L351.434,94.725z M356.402,90.037c-0.407-0.188-1.076-0.375-2.006-0.563c-0.176-0.062-0.291-0.094-0.35-0.094l1.396-3.844h-6.018
		c-0.521,1.688-1.162,3.344-1.918,4.969c-0.349-0.188-0.872-0.469-1.568-0.844c-0.291-0.188-0.522-0.312-0.696-0.375
		c1.396-2.687,2.47-5.843,3.226-9.469l2.615,0.469c-0.232,0.938-0.494,1.844-0.784,2.719h7.585v2.531L356.402,90.037z"/>
</g>
</svg>
