<?xml version="1.0" encoding="utf-8"?>
<!-- Generator: Adobe Illustrator 16.0.0, SVG Export Plug-In . SVG Version: 6.00 Build 0)  -->
<!DOCTYPE svg PUBLIC "-//W3C//DTD SVG 1.1//EN" "http://www.w3.org/Graphics/SVG/1.1/DTD/svg11.dtd">
<svg version="1.1" id="图层_1" xmlns="http://www.w3.org/2000/svg" xmlns:xlink="http://www.w3.org/1999/xlink" x="0px" y="0px"
	 width="640px" height="366px" viewBox="0 -128.5 640 366" enable-background="new 0 -128.5 640 366" xml:space="preserve">
<path fill="#4CC2F8" d="M385.715,28.681v3.002h-11.329c0.122-1.135,0.49-2.21,1.104-3.226c0.613-1.016,1.825-2.364,3.635-4.043
	c1.457-1.357,2.351-2.278,2.681-2.761c0.444-0.667,0.667-1.327,0.667-1.979c0-0.721-0.193-1.275-0.581-1.662
	c-0.388-0.387-0.922-0.581-1.604-0.581c-0.675,0-1.212,0.203-1.61,0.609c-0.397,0.407-0.629,1.081-0.689,2.024l-3.222-0.322
	c0.192-1.779,0.794-3.056,1.807-3.831c1.013-0.774,2.277-1.162,3.796-1.162c1.664,0,2.972,0.449,3.923,1.346
	c0.95,0.897,1.426,2.013,1.426,3.347c0,0.759-0.136,1.482-0.408,2.168c-0.271,0.687-0.702,1.405-1.294,2.157
	c-0.392,0.499-1.097,1.216-2.115,2.151c-1.021,0.936-1.666,1.557-1.938,1.864c-0.271,0.307-0.492,0.605-0.661,0.897h6.414V28.681z"
	/>
<path fill="#FFFFFF" d="M67.615,119.22H65.2v4.594h-1.725v-4.594H55.54v-1.125l8.28-13.312h1.38v12.75h2.415V119.22z
	 M60.715,206.127c-0.058,7.312-1.352,12.469-3.881,15.469c-0.288-0.251-0.72-0.688-1.293-1.312c2.242-2.874,3.392-7.625,3.45-14.25
	c0-0.313,0-0.594,0-0.844h-2.76v-1.688h2.846c0-1.374,0-2.78,0-4.219h1.725v4.219h4.83c0,2.813-0.086,7-0.258,12.563
	c0,0.812,0,1.375,0,1.688c-0.116,2.25-1.065,3.343-2.847,3.281c-0.748,0.062-1.524,0.094-2.329,0.094
	c0-0.126-0.058-0.375-0.172-0.75c-0.058-0.626-0.116-1.062-0.172-1.312c0.69,0.062,1.38,0.094,2.07,0.094
	c1.149,0.124,1.725-0.469,1.725-1.781c0.172-2.938,0.259-6.999,0.259-12.188h-3.191C60.715,205.564,60.715,205.878,60.715,206.127
	L60.715,206.127z M59.767,142.876c-0.518,2.376-1.266,5.438-2.243,9.188c-0.748-0.375-1.352-0.594-1.811-0.656
	c0.862-2.813,1.639-5.813,2.329-9L59.767,142.876L59.767,142.876z M62.613,188.283v-12.281h-3.708v13.688H57.18v-15.469h6.641
	l0.949-3.844h-8.711v-1.781h20.269v1.781h-9.66l-0.949,3.844h9.487v12.563c0,1.812-0.748,2.687-2.242,2.625
	c-0.23,0-0.69,0.03-1.38,0.094c-0.576,0-0.949,0-1.122,0c-0.058-0.626-0.172-1.282-0.345-1.969c0.229,0.062,0.891,0.094,1.983,0.094
	c0.977,0.062,1.437-0.345,1.38-1.219v-10.406h-3.795v12.281h-1.639v-12.281h-3.795v12.281L62.613,188.283L62.613,188.283z
	 M63.13,108.72c-0.92,1.313-2.76,4.251-5.52,8.813h5.865v-9.656c0,0.063-0.058,0.188-0.172,0.375
	C63.245,108.438,63.187,108.596,63.13,108.72L63.13,108.72z M64.597,156.938c-2.243,0.062-3.335-1.125-3.278-3.562V139.97h1.812
	v13.031c-0.058,1.438,0.604,2.094,1.984,1.969h3.45c1.437,0.062,2.243-0.499,2.415-1.688c0.172-0.938,0.287-1.999,0.345-3.188
	c0.287,0.063,0.66,0.188,1.121,0.375c0.345,0.126,0.604,0.221,0.776,0.281c-0.173,1.376-0.375,2.562-0.604,3.562
	c-0.288,1.813-1.524,2.688-3.708,2.625H64.597z M68.133,142.312c-0.748-1.125-1.841-2.687-3.277-4.688
	c-0.403-0.562-0.69-0.968-0.863-1.219l1.38-1.219c0.574,0.75,1.38,1.845,2.415,3.28c0.805,1.125,1.409,1.97,1.812,2.531
	L68.133,142.312z M67.874,221.127v-19.031h7.935v19.031h-1.725v-2.156h-4.485v2.156H67.874z M69.599,203.877v13.406h4.485v-13.406
	H69.599z M75.033,150.657c-1.265-3-2.473-5.688-3.623-8.063l1.639-0.844c1.609,3.375,2.847,6,3.709,7.875L75.033,150.657z
	 M92.494,113.688c-0.289,0.438-0.489,0.75-0.604,0.938c-4.025-2.374-7.044-5.218-9.056-8.531c-2.242,3.438-5.405,6.407-9.487,8.906
	c-0.172-0.249-0.461-0.624-0.863-1.125c-0.172-0.312-0.288-0.499-0.345-0.563c4.887-2.937,8.28-6.281,10.177-10.031l1.984,0.281
	l-0.518,0.938c2.127,3.438,5.232,6.188,9.315,8.25C92.981,112.938,92.781,113.252,92.494,113.688L92.494,113.688z M79.586,203.877
	v-1.688h6.641c0.459-0.938,0.863-1.938,1.208-3l1.897,0.28c-0.172,0.438-0.431,1.031-0.776,1.781
	c-0.173,0.438-0.289,0.75-0.345,0.938h11.385v1.688H87.349c-0.173,0.312-0.432,0.75-0.776,1.312
	c-0.345,0.625-0.604,1.095-0.776,1.406h11.471v11.906c0.057,1.875-0.862,2.812-2.76,2.812c-1.324,0-2.415,0-3.278,0
	c0-0.188-0.058-0.469-0.172-0.844c-0.058-0.438-0.116-0.75-0.172-0.938c0.229,0,0.632,0,1.208,0
	c0.747,0.062,1.322,0.094,1.725,0.094c1.208,0.062,1.753-0.438,1.639-1.5v-1.5h-10.61v5.062h-1.725v-11.53
	c-1.035,1.188-2.156,2.344-3.364,3.469l-0.862-1.78c2.816-2.5,4.944-5.156,6.382-7.97L79.586,203.877L79.586,203.877z
	 M80.496,188.564v-1.595h2.933v-18.375H98.35v18.375h3.019v1.595H80.496z M98.635,149.626l-1.466-1.406
	c-1.725,0-3.393,0.032-5.002,0.095v2.812h7.59v1.5h-7.59v2.625h9.488v1.594h-20.7v-1.594h9.488v-2.625h-7.59v-1.5h7.59v-2.719
	l-4.313,0.094c-0.748,0-1.466,0.062-2.156,0.188l-0.69-1.594c0.115-0.062,0.287-0.154,0.518-0.281
	c0.459-0.188,0.805-0.375,1.035-0.562c1.092-0.75,2.156-1.624,3.191-2.625h-4.14v-1.5h14.921v1.5h-8.28
	c-1.208,1.062-2.617,2.221-4.226,3.469c0.977,0,2.501-0.062,4.571-0.188c2.185-0.062,3.795-0.124,4.83-0.188l-1.984-1.78
	l1.121-1.125c1.84,1.625,3.507,3.125,5.002,4.5L98.635,149.626z M81.626,125.688v-13.875h1.984v13.875H81.626z M81.644,142.126
	v-4.125h9.229c-0.345-0.75-0.69-1.562-1.035-2.438l1.811-0.469c0.115,0.252,0.287,0.656,0.518,1.219
	c0.287,0.627,0.488,1.125,0.604,1.5l-0.604,0.188h8.798v4.125H99.24v-2.531H83.37v2.531H81.644z M84.848,208.189v2.625h10.609
	v-2.625H84.848z M84.848,212.408v2.625h10.609v-2.625H84.848z M85.24,170.283v4.5h11.299v-4.5H85.24z M85.24,176.377v4.406h11.299
	v-4.406H85.24z M85.24,182.471v4.5h11.299v-4.5H85.24z M98.05,107.313v-1.5h5.865l-1.553-2.063l1.553-0.656
	c0.919,1.001,1.581,1.813,1.983,2.438l-0.604,0.281h4.399c0.229-0.375,0.604-0.905,1.121-1.594c0.345-0.499,0.574-0.844,0.69-1.031
	l1.725,0.563c-0.172,0.188-0.431,0.532-0.776,1.032c-0.345,0.438-0.604,0.782-0.776,1.031h5.606v1.5h-6.296v4.875h6.986v1.5H97.36
	v-1.5h7.073v-4.875L98.05,107.313L98.05,107.313z M101.586,111.626c-0.288-0.437-1.064-1.343-2.329-2.719l1.208-0.938
	c0.977,1.001,1.753,1.845,2.329,2.531L101.586,111.626z M100.12,125.688v-9.938h15.094v9.938h-1.725v-1.031h-11.644v1.031H100.12z
	 M101.845,117.251v2.344h11.644v-2.344H101.845z M101.845,121.001v2.25h11.644v-2.25H101.845z M102.942,204.064v-1.5h2.587v-3.281
	h1.466v3.281h2.243v1.5h-2.243v3.375h2.76v1.5h-2.07v3.469h1.812v1.5h-1.812v4.594c1.15,0.562,2.847,0.844,5.089,0.844
	c0.632,0,1.725,0,3.278,0c3.45,0.062,5.778,0.062,6.986,0c-0.23,0.499-0.403,1.062-0.517,1.688c-3.163,0-6.527,0-10.091,0
	c-3.968,0-6.613-1.376-7.935-4.125c-0.23,1.5-0.72,3.062-1.466,4.688c-0.116-0.127-0.289-0.346-0.518-0.656
	c-0.289-0.313-0.489-0.532-0.604-0.656c0.632-1.251,1.063-2.531,1.293-3.844c0.172-1.188,0.259-3.094,0.259-5.719l1.38,0.094
	c0,0.5-0.029,1.188-0.086,2.062c0,0.688,0,1.219,0,1.594c0.459,1.063,0.977,1.969,1.552,2.719v-8.25h-3.881v-1.5h3.105v-3.375
	h-2.587V204.064z M108.557,178.158c-1.093-1.125-2.186-2.156-3.277-3.094l1.121-1.313c0.518,0.438,1.264,1.063,2.243,1.875
	c0.518,0.438,0.891,0.751,1.121,0.938L108.557,178.158z M109.851,181.346c-0.748,2.5-1.496,5.188-2.243,8.063l-1.811-0.656
	c1.092-3.188,1.868-5.905,2.329-8.155c0.229,0.062,0.518,0.188,0.863,0.375C109.39,181.096,109.679,181.221,109.851,181.346
	L109.851,181.346z M106.071,107.313v4.875h3.191v-4.875H106.071z M109.42,172.158c-0.576-0.625-1.466-1.469-2.674-2.531
	c-0.289-0.25-0.489-0.438-0.604-0.562l1.121-1.313c1.208,0.938,2.329,1.906,3.364,2.906L109.42,172.158z M116.276,146.812
	c-0.806,1.813-2.501,3.627-5.088,5.438c-0.116-0.124-0.317-0.375-0.604-0.75c-0.345-0.375-0.575-0.656-0.69-0.844
	c3.967-2.063,5.835-5.093,5.606-9.095c0-0.123,0-0.248,0-0.375h-6.124v16.22h-1.811v-18.095h7.935
	c0.056-1.125,0.086-2.438,0.086-3.938h1.812c0,1.5,0,2.812,0,3.938h7.676v14.813c0,2-0.949,3.031-2.847,3.095
	c-1.208,0-2.358,0-3.45,0c0-0.063-0.03-0.221-0.086-0.47c0-0.25-0.086-0.782-0.259-1.594c0.805,0.062,1.84,0.094,3.105,0.094
	c1.208,0.062,1.782-0.469,1.725-1.594v-12.47h-5.951c-0.058,0.127-0.086,0.252-0.086,0.375c0,1.313-0.144,2.502-0.431,3.563h0.086
	c2.472,2.188,4.369,3.97,5.692,5.345l-1.294,1.405C118.92,149.438,117.253,147.751,116.276,146.812L116.276,146.812z
	 M109.498,201.627v-1.406h7.417v1.406h-1.035v12l1.294-0.188c0,0.5,0.028,1,0.086,1.5l-1.38,0.28v3.375h-1.38v-3.188l-5.002,0.938
	l-0.259-1.688l1.38-0.188v-12.844h-1.121V201.627z M117.7,184.908v-9.469l-3.623,1.125v8.719c-0.116,1.312,0.574,1.936,2.07,1.875
	h5.434c1.553,0.061,2.385-0.438,2.501-1.5c0.172-0.938,0.315-1.938,0.431-3l1.725,0.656c-0.173,1.375-0.375,2.531-0.604,3.469
	c-0.345,1.5-1.496,2.217-3.45,2.156h-6.728c-2.128,0.061-3.163-0.972-3.105-3.094v-8.72l-1.553,0.47l-0.345-1.688l1.897-0.563
	v-5.438h1.725v4.875l3.623-1.126v-6.374h1.725v5.906l5.606-1.781c-0.058,2.188-0.145,4.719-0.259,7.594c0,2-0.72,3.031-2.156,3.094
	c-0.403,0.063-1.035,0.094-1.897,0.094c0-0.188-0.058-0.5-0.173-0.938c-0.058-0.438-0.116-0.75-0.172-0.938c0.459,0,0.977,0,1.553,0
	c0.804,0.062,1.208-0.471,1.208-1.595c0.114-2,0.172-3.688,0.172-5.063l-3.881,1.221v10.031H117.7V184.908z M111.999,201.627v3.188
	h2.501v-3.188H111.999z M111.999,206.221v3.188h2.501v-3.188H111.999z M111.999,214.283c0.805-0.125,1.639-0.281,2.501-0.469v-3.094
	h-2.501V214.283z M116.163,108.907c-0.806,0.876-1.639,1.781-2.501,2.719l-1.121-1.031c0.172-0.188,0.546-0.593,1.121-1.219
	c0.574-0.687,0.977-1.155,1.208-1.406L116.163,108.907L116.163,108.907z M120.02,213.721c-0.633,1.563-1.466,3.127-2.501,4.688
	c-0.288-0.5-0.604-0.938-0.949-1.313c1.035-1.562,1.926-3.343,2.674-5.344c-0.69-2-1.496-4.062-2.415-6.188l1.208-0.47l1.812,4.595
	c0.518-1.813,0.891-3.938,1.121-6.375h-3.795v-1.595h5.175v1.595c-0.345,3.312-0.892,6.125-1.639,8.438
	c0.747,1.875,1.408,3.656,1.984,5.344l-1.208,0.844c-0.116-0.375-0.289-0.904-0.518-1.594
	C120.508,215.221,120.192,214.346,120.02,213.721L120.02,213.721z M125.772,122.22c-1.035,0.938-1.927,1.938-2.674,3l-0.862-1.781
	c1.208-1.249,2.098-2.156,2.674-2.719v-7.594h-2.415v-1.781h4.054v9.281c1.091,1.751,2.76,2.593,5.002,2.531
	c3.91,0.125,7.791,0.125,11.644,0c-0.058,0.249-0.144,0.562-0.259,0.938c-0.116,0.375-0.202,0.656-0.258,0.844
	c-6.038,0-9.919-0.032-11.644-0.094C128.733,124.845,126.98,123.969,125.772,122.22L125.772,122.22z M126.462,108.907
	c-0.633-0.999-1.668-2.344-3.105-4.031l1.38-1.031c1.38,1.688,2.443,3,3.191,3.938L126.462,108.907z M126.126,221.408v-18.281h2.329
	c0.172-0.624,0.401-1.531,0.69-2.719c0.114-0.5,0.201-0.844,0.259-1.031l1.811,0.281c-0.345,1.375-0.662,2.531-0.949,3.469h4.054
	v18.094h-1.725v-1.781h-4.744v1.97L126.126,221.408L126.126,221.408z M127.851,204.814v5.625h4.744v-5.625H127.851z
	 M127.851,212.127v5.719h4.744v-5.719H127.851z M139.486,122.032c-0.518,0.062-1.179,0.094-1.984,0.094
	c-0.058-0.563-0.172-1.093-0.345-1.594c0.574,0.062,1.149,0.094,1.725,0.094c0.977,0.063,1.437-0.469,1.38-1.594v-0.75h-4.054v3.469
	h-1.553v-3.469h-3.967v3.75h-1.639v-12.656h5.261c-0.23-0.124-0.575-0.312-1.035-0.563c-1.266-0.812-2.156-1.343-2.674-1.594
	l0.949-1.125c0.518,0.313,1.322,0.813,2.415,1.5c0.518,0.313,0.919,0.563,1.208,0.75l4.14-2.438h-10.609v-1.5h12.938v1.688
	l-5.089,3.094l0.345,0.188h4.916v9.938C141.872,121.127,141.095,122.032,139.486,122.032L139.486,122.032z M133.523,186.033
	c-1.265,1.437-2.128,2.562-2.587,3.375l-1.035-1.875c0.287-0.314,0.747-0.813,1.38-1.5c0.632-0.688,1.091-1.188,1.38-1.5v-7.406
	h-2.674v-1.875h4.399v9.188c1.264,1.813,3.105,2.687,5.52,2.625c3.219,0.125,6.813,0.125,10.781,0l-0.604,1.875
	c-4.946,0-8.452-0.032-10.522-0.094C136.973,188.846,134.96,187.908,133.523,186.033L133.523,186.033z M130.689,110.782v2.438h3.967
	v-2.438H130.689z M130.689,114.532v2.344h3.967v-2.344H130.689z M130.908,147.001v-2.063h20.958v2.063H130.908z M133.955,172.721
	c-0.289-0.5-0.893-1.438-1.812-2.812c-0.461-0.688-0.776-1.188-0.949-1.5l1.38-0.938c1.15,1.625,2.127,3.031,2.933,4.218
	L133.955,172.721z M141.393,221.221c-1.208,0-2.415,0-3.623,0c-0.058-0.251-0.116-0.626-0.173-1.125
	c-0.116-0.312-0.172-0.562-0.172-0.75c1.092,0,2.243,0,3.45,0c1.667,0.124,2.501-0.688,2.501-2.438
	c0.173-5.563,0.259-9.594,0.259-12.094h-5.52c-0.575,1.375-1.151,2.625-1.725,3.75c-0.461-0.375-0.949-0.719-1.466-1.031
	c1.207-2.124,2.271-4.875,3.191-8.25l1.725,0.469c-0.116,0.501-0.317,1.188-0.604,2.062c-0.23,0.563-0.375,0.971-0.432,1.22h6.642
	c0,0.313,0,0.813,0,1.5c-0.116,5.813-0.23,10.03-0.345,12.655C145.043,219.814,143.807,221.157,141.393,221.221L141.393,221.221z
	 M145.857,185.096c-0.92,0-1.956,0-3.105,0c-0.116-0.625-0.259-1.281-0.431-1.969c1.035,0.062,2.04,0.094,3.019,0.094
	c1.437,0.063,2.156-0.688,2.156-2.25c0.172-2.812,0.259-5.345,0.259-7.594h-5.52c-0.058,5.562-1.783,9.656-5.175,12.281
	c-0.69-0.75-1.151-1.219-1.38-1.406c3.22-2.25,4.83-5.875,4.83-10.875h-3.967v-1.781h4.054c0-0.5,0.028-1.25,0.086-2.25
	c0-0.938,0-1.594,0-1.97h1.725c0,1.813-0.029,3.22-0.086,4.22h7.245c0,0.375-0.029,0.969-0.086,1.781
	c-0.058,3.688-0.145,6.312-0.259,7.875C149.221,183.814,148.1,185.096,145.857,185.096L145.857,185.096z M140.263,110.782h-4.054
	v2.438h4.054V110.782z M136.209,114.532v2.344h4.054v-2.344H136.209z M139.926,214.658c-1.035-1.688-2.128-3.344-3.278-4.969
	l1.294-1.031c0.172,0.25,0.459,0.625,0.862,1.125c1.092,1.562,1.954,2.812,2.588,3.75L139.926,214.658z M150.735,114.157
	c-1.265-1.249-2.415-2.25-3.45-3l1.121-1.406c1.208,0.938,2.385,1.875,3.536,2.813L150.735,114.157z M151.167,119.22
	c-0.69,2.688-1.208,4.781-1.553,6.281l-1.725-0.563c0.863-2.937,1.581-5.749,2.156-8.438c0.287,0.126,0.718,0.313,1.294,0.563
	c0.172,0.063,0.287,0.094,0.345,0.094C151.568,117.596,151.396,118.282,151.167,119.22L151.167,119.22z M152.029,108.063
	c-1.208-1.062-2.415-2.063-3.623-3l1.121-1.313c1.208,0.813,2.415,1.751,3.623,2.813L152.029,108.063z M149.568,202.752v-1.781
	h18.803v1.781H154.83l-0.518,3.469h11.644l-0.776,12.375h3.881v1.594h-20.183v-1.594h14.49l0.258-3.938h-12.333l1.725-11.906
	H149.568L149.568,202.752z M157.98,113.595c-0.461,4.063-2.156,7.438-5.089,10.125c-0.116-0.25-0.345-0.531-0.69-0.844
	c-0.23-0.249-0.403-0.437-0.518-0.563c2.588-2.187,4.14-5.093,4.658-8.719h-3.019v-1.688h4.657L157.98,113.595L157.98,113.595z
	 M164.059,207.908h-10.005l-0.69,5.062h10.35L164.059,207.908z M158.67,125.407c-0.748,0-1.41,0-1.983,0
	c0-0.126-0.03-0.313-0.086-0.563c-0.116-0.562-0.202-1.031-0.259-1.406c0.402,0.062,1.005,0.094,1.811,0.094
	c1.035,0.062,1.523-0.407,1.466-1.406v-13.031h-5.002v-1.688h6.642v1.594c0.345,1.626,0.776,3.094,1.293,4.406
	c0.977-0.999,2.185-2.344,3.623-4.031l1.294,1.313c-1.035,1.125-2.473,2.595-4.313,4.406c1.149,2.376,2.875,4.594,5.175,6.656
	c-0.23,0.251-0.575,0.656-1.035,1.219c0.287-0.375,0.229-0.312-0.172,0.188c-2.818-2.499-4.773-5.499-5.865-9v8.438
	C161.372,124.47,160.51,125.407,158.67,125.407L158.67,125.407z M154.684,170.752v-1.781h20.786v1.781h-3.277v15.375
	c0.057,2.062-0.949,3.094-3.019,3.094c-0.748,0.062-1.956,0.094-3.623,0.094c0-0.25-0.058-0.625-0.172-1.125
	c-0.058-0.375-0.086-0.655-0.086-0.844c1.149,0.062,2.213,0.094,3.191,0.094c1.38,0.125,2.012-0.5,1.897-1.875v-14.812H154.684
	L154.684,170.752z M156.829,141.657v-1.781h4.485v-4.406h1.811v4.406h6.641v-4.406h1.812v4.406h4.485v1.781h-4.485v6.375h5.261v1.78
	h-20.787v-1.78h5.262v-6.375H156.829z M164.678,152.72c-2.415,1.751-4.801,3.343-7.159,4.781c-0.461-0.75-0.862-1.313-1.208-1.688
	c2.645-1.373,5.003-2.905,7.073-4.594L164.678,152.72L164.678,152.72z M156.927,185.471v-11.156h9.401v9.375h-7.676v1.781H156.927z
	 M162.724,107.032c-1.783-0.812-3.708-1.624-5.778-2.438l0.69-1.406c1.208,0.438,3.019,1.125,5.434,2.063
	c-0.116-0.062,0.028,0,0.431,0.188L162.724,107.032z M158.652,175.908v6.188h5.865v-6.188H158.652z M163.125,141.657v6.375h6.641
	v-6.375H163.125z M175.028,157.407c-2.358-1.626-4.657-3.188-6.9-4.688l1.208-1.406c0.919,0.563,2.271,1.471,4.054,2.72
	c1.264,0.75,2.213,1.344,2.846,1.78L175.028,157.407z M171.803,209.314v-1.781h9.919v1.781h-4.571
	c-1.035,2.812-2.07,5.375-3.105,7.688c1.035-0.062,2.76-0.219,5.175-0.469c-0.518-1.313-1.035-2.656-1.552-4.031l1.38-0.656
	c0.401,0.877,1.005,2.282,1.811,4.219c0.402,1.063,0.718,1.845,0.949,2.345l-1.639,0.563l-0.259-0.75
	c-0.518,0.062-1.237,0.125-2.156,0.188c-1.61,0.126-2.818,0.22-3.623,0.281c-0.288,0.062-0.633,0.125-1.035,0.188
	c-0.289,0.062-0.518,0.094-0.69,0.094l-0.69-1.594c0.401-0.249,0.776-0.781,1.121-1.594c1.035-2.438,1.839-4.594,2.415-6.469h-3.45
	V209.314z M175.784,114.157c-1.093-1.125-2.186-2.156-3.277-3.094l1.121-1.313c0.518,0.438,1.264,1.063,2.243,1.875
	c0.518,0.438,0.891,0.75,1.121,0.938L175.784,114.157z M172.752,202.846v-1.688h8.194v1.688H172.752z M177.078,117.345
	c-0.748,2.501-1.496,5.188-2.243,8.063l-1.811-0.656c1.092-3.188,1.868-5.906,2.329-8.156c0.229,0.063,0.518,0.188,0.863,0.375
	C176.617,117.096,176.905,117.221,177.078,117.345L177.078,117.345z M176.646,108.157c-0.576-0.624-1.466-1.468-2.674-2.531
	c-0.289-0.249-0.489-0.437-0.604-0.563l1.121-1.313c1.208,0.938,2.329,1.907,3.364,2.906L176.646,108.157z M184.926,120.907v-9.469
	l-3.623,1.125v8.719c-0.116,1.312,0.574,1.937,2.07,1.875h5.434c1.553,0.062,2.385-0.438,2.501-1.5c0.172-0.938,0.315-1.938,0.431-3
	l1.725,0.656c-0.173,1.376-0.375,2.531-0.604,3.469c-0.345,1.5-1.496,2.218-3.45,2.156h-6.728c-2.128,0.062-3.163-0.97-3.105-3.094
	v-8.719l-1.553,0.469l-0.345-1.688l1.897-0.563v-5.438h1.725v4.875l3.623-1.125v-6.375h1.725v5.906l5.606-1.781
	c-0.058,2.188-0.145,4.72-0.259,7.594c0,2.001-0.72,3.032-2.156,3.094c-0.403,0.063-1.035,0.094-1.897,0.094
	c0-0.188-0.058-0.499-0.173-0.938c-0.058-0.437-0.116-0.75-0.172-0.938c0.459,0,0.977,0,1.553,0
	c0.804,0.063,1.208-0.469,1.208-1.594c0.114-1.999,0.172-3.687,0.172-5.063l-3.881,1.219v10.031h-1.724V120.907z M180.158,189.783
	v-21.094h5.606v1.781l-1.639,6.094c1.15,1.5,1.695,3.312,1.639,5.438c0.057,1.938-0.604,3.031-1.983,3.281
	c-0.403,0.062-0.834,0.094-1.294,0.094c-0.116-0.625-0.259-1.219-0.431-1.781c0.459,0,0.833,0,1.121,0
	c0.863,0,1.264-0.594,1.208-1.781c0.057-1.562-0.489-3.25-1.639-5.062l1.639-6.469h-2.76v19.5H180.158z M186.207,207.439
	c0,6.188-1.496,10.938-4.485,14.25c-0.403-0.375-0.92-0.75-1.553-1.125c2.933-2.813,4.369-7.22,4.313-13.22
	c0.057-0.5,0.086-1.03,0.086-1.594h-2.846v-1.688h2.846c0.057-0.998,0.086-2.593,0.086-4.78h1.725c0,0.438,0,1.157,0,2.155
	c-0.058,1.188-0.086,2.063-0.086,2.625h5.606c0,0.188,0,0.47,0,0.845c-0.116,6.625-0.23,10.875-0.345,12.75
	c-0.058,2.25-1.065,3.405-3.019,3.469c-0.806,0-1.725,0-2.76,0c-0.058-0.188-0.116-0.469-0.172-0.844
	c-0.173-0.563-0.289-0.97-0.345-1.22c0.919,0.062,1.839,0.095,2.76,0.095c1.208,0.062,1.812-0.563,1.812-1.875
	c0.229-4.188,0.345-8.03,0.345-11.531h-3.967C186.207,206.377,186.207,206.939,186.207,207.439L186.207,207.439z M186.124,155.812
	c0.747-5.937,2.989-11.719,6.728-17.344v-1.312h-11.213v1.875h8.884c-3.45,5.501-5.606,11.095-6.469,16.781H186.124L186.124,155.812
	z M187.92,186.689c-0.748,0.687-1.582,1.623-2.501,2.812l-1.121-1.406c0.459-0.562,1.149-1.281,2.07-2.156
	c0.401-0.438,0.69-0.75,0.862-0.938v-8.062h-1.552v-1.688h3.019v9.844c0.977,1.625,2.674,2.404,5.089,2.345
	c2.702,0,4.858-0.033,6.469-0.095c-0.172,0.623-0.317,1.22-0.431,1.781c-2.876,0-4.974-0.033-6.296-0.094
	C190.939,189.094,189.07,188.312,187.92,186.689L187.92,186.689z M187.834,172.908c-0.289-1.25-0.748-2.875-1.38-4.875l1.38-0.376
	c0.287,0.751,0.718,2.095,1.293,4.03c0.115,0.377,0.201,0.627,0.259,0.752L187.834,172.908z M191.37,186.127v-9.562
	c-0.461,0.75-1.007,1.469-1.639,2.155c-0.058-0.062-0.144-0.25-0.259-0.562c-0.172-0.5-0.317-0.845-0.431-1.031
	c1.495-1.688,2.702-3.625,3.623-5.813h-2.501v-1.5h3.019c0.172-0.438,0.431-1.125,0.776-2.062c0.057-0.25,0.086-0.406,0.086-0.469
	l1.552,0.279c-0.058,0.188-0.144,0.438-0.258,0.752c-0.23,0.688-0.403,1.188-0.518,1.5h5.002v1.5h-5.52
	c-0.345,0.75-0.69,1.469-1.035,2.155h5.348v10.125c0.114,1.688-0.604,2.531-2.156,2.531c-0.69,0-1.237,0-1.639,0
	c-0.058-0.563-0.173-1.094-0.345-1.594c0.632,0.062,1.178,0.094,1.639,0.094c0.805,0.063,1.178-0.375,1.122-1.313v-1.405h-4.399
	v4.219h-1.467V186.127z M192.836,174.877v2.156h4.399v-2.156H192.836z M192.836,178.439v2.155h4.399v-2.155H192.836z
	 M198.264,210.252c-1.208-1.188-2.358-2.25-3.45-3.188l1.121-1.406c1.208,1,2.415,2.031,3.623,3.094L198.264,210.252z
	 M198.264,217.752c-0.46,1.624-0.834,2.874-1.121,3.75l-1.811-0.656c1.091-3.125,1.954-5.938,2.587-8.438
	c0.229,0.062,0.518,0.156,0.862,0.281c0.402,0.188,0.69,0.312,0.863,0.375C199.356,214.064,198.896,215.628,198.264,217.752
	L198.264,217.752z M198.868,204.158c-1.323-1.374-2.445-2.438-3.364-3.188l1.208-1.312c0.287,0.25,0.747,0.655,1.38,1.219
	c0.919,0.813,1.609,1.438,2.07,1.875L198.868,204.158z M217.66,145.688c-0.289,0.438-0.489,0.75-0.604,0.938
	c-4.025-2.374-7.044-5.218-9.056-8.531c-2.242,3.438-5.405,6.407-9.487,8.906c-0.172-0.249-0.461-0.624-0.863-1.125
	c-0.172-0.312-0.288-0.499-0.345-0.563c4.887-2.937,8.28-6.28,10.177-10.03l1.984,0.28l-0.518,0.938
	c2.127,3.438,5.232,6.188,9.315,8.25C218.147,144.938,217.947,145.252,217.66,145.688L217.66,145.688z M203.603,121.563
	c0,2.188-0.748,3.812-2.243,4.875l-0.776-0.844c1.035-0.812,1.581-2.031,1.639-3.656h-1.466v-3.094h2.846
	C203.603,119.346,203.603,120.251,203.603,121.563L203.603,121.563z M207.234,202.471c-1.783,0.063-3.623,0.156-5.52,0.281
	c-0.058-0.249-0.116-0.594-0.172-1.031c-0.116-0.312-0.173-0.529-0.173-0.656c0.229,0,0.546,0,0.949,0
	c5.347-0.248,9.429-0.5,12.247-0.75l0.259,1.688c-1.897,0.188-3.853,0.313-5.865,0.375v3.938h6.728v1.781h-6.728v3.938h5.347v9.656
	h-1.811v-1.406h-8.797v1.406h-1.725v-9.656h5.261v-3.938h-6.555v-1.781h6.555V202.471L207.234,202.471z M203.698,213.627v5.156
	h8.797v-5.156H203.698z M204.769,188.377v-19.125h7.245v18.844h-1.639v-1.688h-3.968v1.969H204.769L204.769,188.377z
	 M206.407,170.939v6.094h3.968v-6.094H206.407z M206.407,178.627v6.094h3.968v-6.094H206.407z M206.792,157.688v-13.875h1.984
	v13.875H206.792z M213.135,173.939v-1.781h7.332v-4.875h1.725v4.875h2.673v1.781h-2.673v12.188c0.056,2.062-0.949,3.124-3.019,3.188
	c-0.979,0-2.07,0-3.277,0c-0.058-0.25-0.145-0.625-0.259-1.125c-0.058-0.375-0.116-0.655-0.172-0.844
	c0.574,0.062,1.609,0.094,3.105,0.094c1.322,0.062,1.954-0.562,1.897-1.875v-11.625H213.135L213.135,173.939z M216.326,182.471
	c-0.461-1.062-1.151-2.469-2.07-4.219c-0.23-0.438-0.403-0.781-0.518-1.031l1.38-0.844c0.345,0.562,0.805,1.405,1.38,2.531
	c0.632,1.125,1.092,1.969,1.38,2.531L216.326,182.471z M218.17,209.314v-1.781h9.919v1.781h-4.571
	c-1.035,2.812-2.07,5.375-3.105,7.688c1.035-0.062,2.76-0.219,5.175-0.469c-0.518-1.313-1.035-2.656-1.552-4.031l1.38-0.656
	c0.401,0.877,1.005,2.282,1.811,4.219c0.402,1.063,0.718,1.845,0.949,2.345l-1.639,0.563l-0.259-0.75
	c-0.518,0.062-1.237,0.125-2.156,0.188c-1.61,0.126-2.818,0.22-3.623,0.281c-0.288,0.062-0.633,0.125-1.035,0.188
	c-0.289,0.062-0.518,0.094-0.69,0.094l-0.69-1.594c0.401-0.249,0.776-0.781,1.121-1.594c1.035-2.438,1.839-4.594,2.415-6.469h-3.45
	V209.314z M219.119,202.846v-1.688h8.194v1.688H219.119z M226.158,148.595c-0.862,1.125-1.841,2.156-2.933,3.095
	c-0.058-0.188-0.288-0.688-0.69-1.5c-0.058-0.25-0.116-0.405-0.172-0.47c2.472-1.999,4.455-4.5,5.951-7.5l1.639,0.656
	c-0.69,1.313-1.38,2.47-2.07,3.469v11.345h-1.725V148.595L226.158,148.595z M240.295,117.626l-1.466-1.406
	c-1.725,0-3.393,0.032-5.002,0.094v2.813h7.59v1.5h-7.59v2.625h9.488v1.594h-20.7v-1.594h9.488v-2.625h-7.59v-1.5h7.59v-2.719
	l-4.313,0.094c-0.748,0-1.466,0.063-2.156,0.188l-0.69-1.594c0.115-0.062,0.287-0.155,0.518-0.281
	c0.459-0.188,0.805-0.375,1.035-0.563c1.092-0.75,2.156-1.624,3.191-2.625h-4.14v-1.5h14.921v1.5h-8.28
	c-1.208,1.063-2.617,2.22-4.226,3.469c0.977,0,2.501-0.062,4.571-0.188c2.185-0.062,3.795-0.125,4.83-0.188l-1.984-1.781
	l1.121-1.125c1.84,1.626,3.507,3.126,5.002,4.5L240.295,117.626z M222.622,139.688v-1.78h5.606v-2.625h1.725v2.625h5.951v-2.72
	h1.812v2.72h5.52v1.78h-5.52v2.063h-1.812v-2.063h-5.951v1.781h-1.725v-1.781H222.622z M223.304,110.126v-4.125h9.229
	c-0.345-0.75-0.69-1.562-1.035-2.438l1.812-0.469c0.114,0.251,0.287,0.656,0.517,1.219c0.287,0.626,0.488,1.125,0.604,1.5
	l-0.604,0.188h8.798v4.125H240.9v-2.531h-15.87v2.531H223.304z M232.574,207.439c0,6.188-1.496,10.938-4.485,14.25
	c-0.403-0.375-0.92-0.75-1.553-1.125c2.933-2.813,4.369-7.22,4.313-13.22c0.057-0.5,0.086-1.03,0.086-1.594h-2.846v-1.688h2.846
	c0.057-0.998,0.086-2.593,0.086-4.78h1.725c0,0.438,0,1.157,0,2.155c-0.058,1.188-0.086,2.063-0.086,2.625h5.606
	c0,0.188,0,0.47,0,0.845c-0.116,6.625-0.23,10.875-0.345,12.75c-0.058,2.25-1.065,3.405-3.019,3.469c-0.806,0-1.725,0-2.76,0
	c-0.058-0.188-0.116-0.469-0.172-0.844c-0.173-0.563-0.289-0.97-0.345-1.22c0.919,0.062,1.839,0.095,2.76,0.095
	c1.208,0.062,1.812-0.563,1.812-1.875c0.229-4.188,0.345-8.03,0.345-11.531h-3.967C232.574,206.377,232.574,206.939,232.574,207.439
	L232.574,207.439z M230.415,173.283v-1.406h6.728c0.115-0.188,0.259-0.531,0.431-1.031c0.115-0.375,0.201-0.656,0.259-0.844
	c-0.862,0.062-2.128,0.094-3.795,0.094c-1.668,0.063-2.933,0.094-3.795,0.094l-0.259-1.5c7.015-0.125,12.966-0.312,17.854-0.562
	l0.172,1.5c-2.704,0.062-5.492,0.156-8.366,0.281c-0.058,0.188-0.145,0.406-0.259,0.656c-0.058,0.312-0.202,0.75-0.431,1.312h8.884
	v1.406h-9.488c-0.288,0.625-0.604,1.281-0.949,1.969h12.075v1.406h-12.852c-0.058,0.125-0.144,0.281-0.259,0.469
	c-0.23,0.312-0.547,0.75-0.949,1.312h11.558v11.25h-1.639v-0.938h-10.609v0.938h-1.725v-8.438c-0.633,0.688-1.725,1.688-3.277,3
	c1.149-0.938,1.063-0.844-0.259,0.281c-0.345-0.625-0.633-1.188-0.862-1.688c2.587-1.875,4.628-3.938,6.124-6.188h-5.779v-1.406
	h6.642c0.345-0.688,0.66-1.344,0.949-1.969L230.415,173.283L230.415,173.283z M233.576,151.22c-1.093,0.75-2.329,1.438-3.708,2.063
	c-0.289-0.499-0.604-1.094-0.949-1.781c1.725-0.812,3.278-1.594,4.658-2.344v-6.469h1.811v5.344
	c1.954-1.313,3.824-2.844,5.606-4.594l1.294,1.219c-2.473,2.25-4.773,4.095-6.9,5.531v3.469c-0.058,1.188,0.518,1.749,1.725,1.688
	h2.156c1.208,0.062,1.868-0.404,1.984-1.406c0.229-1.125,0.373-2.312,0.431-3.562l1.639,0.656c-0.116,1.5-0.259,2.719-0.431,3.656
	c-0.345,1.562-1.466,2.344-3.364,2.344h-2.846c-2.186,0.062-3.221-0.938-3.105-3L233.576,151.22L233.576,151.22z M234.727,179.752
	v1.781h10.609v-1.781H234.727z M234.727,182.752v1.875h10.609v-1.875H234.727z M234.727,185.846v1.594h10.609v-1.594H234.727z
	 M246.874,220.939c-1.841-0.188-2.876-1.282-3.105-3.281c0.172-2.124,1.208-3.281,3.105-3.469c1.954,0.188,3.019,1.345,3.191,3.469
	C249.893,219.657,248.828,220.752,246.874,220.939L246.874,220.939z M246.874,215.596c-1.093,0.127-1.697,0.813-1.811,2.063
	c0.114,1.063,0.718,1.655,1.811,1.78c1.149-0.125,1.782-0.717,1.897-1.78C248.656,216.408,248.023,215.723,246.874,215.596
	L246.874,215.596z M252.147,109.095c-1.035,2.625-2.272,5.063-3.708,7.313c-0.116-0.124-0.345-0.405-0.69-0.844
	c-0.172-0.312-0.317-0.53-0.431-0.656c2.126-3.188,3.737-7.062,4.83-11.625l1.812,0.375c-0.345,1.188-0.72,2.407-1.121,3.656h5.606
	v1.781c-0.69,7.188-3.795,12.688-9.315,16.5c-0.116-0.188-0.375-0.531-0.776-1.031c-0.23-0.25-0.375-0.438-0.431-0.563
	c2.816-1.875,4.917-4.062,6.296-6.563c-1.151-1.125-2.329-2.187-3.536-3.188l1.035-1.406c0.345,0.313,0.891,0.782,1.639,1.406
	c0.747,0.688,1.294,1.188,1.639,1.5c0.862-1.937,1.437-4.155,1.725-6.656L252.147,109.095L252.147,109.095z M248.294,147.188V145.5
	h9.747v1.688h-4.054v6.281c1.782-0.312,3.45-0.562,5.003-0.75c-0.058,0.502-0.086,1.096-0.086,1.781
	c-4.658,0.562-8.31,1.031-10.954,1.406l-0.431-1.594c0.345-0.062,0.891-0.125,1.639-0.188c1.322-0.188,2.357-0.343,3.105-0.469
	v-6.47h-3.969V147.188z M247.604,141.751v-1.781h11.644c-0.116-1.5-0.173-3.062-0.173-4.688h1.812c0,1.626,0.028,3.188,0.086,4.688
	h7.245v1.781h-7.159c0,0.626,0.057,1.532,0.172,2.719c0.057,0.375,0.086,0.656,0.086,0.845c0.345,3.75,0.949,6.531,1.811,8.344
	c0.518,1.188,1.178,1.781,1.984,1.781c0.518,0.062,0.919-0.313,1.208-1.125c0.229-1.188,0.401-2.25,0.518-3.188
	c0.172,0.063,0.401,0.157,0.69,0.281c0.401,0.188,0.69,0.312,0.862,0.375c-0.172,1.438-0.403,2.562-0.69,3.375
	c-0.461,1.625-1.352,2.405-2.674,2.344c-1.496,0-2.703-1.125-3.622-3.375c-0.863-2.063-1.466-4.969-1.812-8.719
	c-0.172-1.249-0.289-2.468-0.345-3.656H247.604z M254,182.189v-1.595h4.744v-2.719h1.639v2.719h4.658v1.595h-4.658v4.219
	l5.175-0.656c-0.058,0.312-0.086,0.844-0.086,1.594c-2.013,0.188-5.205,0.594-9.574,1.219c-0.92,0.125-1.639,0.219-2.156,0.281
	l-0.345-1.875c0.977,0,2.558-0.094,4.744-0.281c-1.496,0.125-1.294,0.095,0.604-0.094v-4.406H254L254,182.189z M253.655,170.283
	v-1.688h11.816v1.688h-5.865c-0.748,1.438-1.812,3.156-3.191,5.156l6.038-0.375c-0.173-0.25-0.432-0.688-0.776-1.313
	c-0.345-0.499-0.604-0.905-0.776-1.218l1.294-0.75c1.264,1.938,2.357,3.75,3.277,5.438l-1.38,0.844
	c-0.172-0.188-0.345-0.5-0.518-0.938c-0.116-0.188-0.202-0.344-0.259-0.469c-3.163,0.125-5.377,0.25-6.641,0.375
	c-0.172,0-0.403,0.031-0.69,0.094c-0.634,0.062-1.093,0.125-1.38,0.188l-0.69-1.688c0.518-0.374,0.863-0.688,1.035-0.938
	c1.035-1.5,1.954-2.969,2.76-4.405L253.655,170.283L253.655,170.283z M260.687,125.688v-22.313h1.725v7.875l0.862-0.844
	c2.012,1.812,3.765,3.438,5.261,4.875l-1.294,1.406c-2.013-2.063-3.622-3.624-4.83-4.688v13.688L260.687,125.688L260.687,125.688z
	 M265.372,139.595c-1.093-1.249-2.013-2.187-2.76-2.812l1.208-1.125c0.173,0.188,0.518,0.501,1.035,0.938
	c0.919,0.876,1.523,1.47,1.812,1.781L265.372,139.595z M266.938,184.158v-14.344h1.639v14.344H266.938z M270.646,189.221
	c-0.403,0.062-1.409,0.094-3.019,0.094c-0.058-0.877-0.172-1.532-0.345-1.969c0.459,0.062,1.408,0.094,2.846,0.094
	c0.919,0,1.38-0.469,1.38-1.405v-18.563h1.725v18.938C273.291,188.283,272.428,189.221,270.646,189.221L270.646,189.221z
	 M272.884,111.907v-1.688h3.795v-3.656c-1.093,0.063-2.214,0.157-3.364,0.281c-0.058-0.624-0.173-1.219-0.345-1.781
	c2.933-0.188,5.749-0.405,8.453-0.656l0.345,1.688c-0.345,0-0.892,0.063-1.639,0.188c-0.806,0.063-1.41,0.126-1.811,0.188v3.75
	h3.708v1.688h-3.708v3.188l0.69-0.75c0.229,0.251,0.574,0.595,1.035,1.031c0.977,0.938,1.695,1.657,2.156,2.156l-1.122,1.406
	c-0.23-0.249-0.547-0.593-0.949-1.031c-0.288-0.375-0.892-1.031-1.811-1.969v9.656h-1.639v-10.594
	c-0.806,2.25-1.956,4.438-3.45,6.563c-0.23-0.75-0.489-1.437-0.776-2.063c1.667-2.063,3.019-4.594,4.054-7.594L272.884,111.907
	L272.884,111.907z M274.905,145.97c-0.23-0.437-0.863-1.312-1.897-2.625c-0.23-0.312-0.403-0.53-0.518-0.655l1.293-0.845
	c0.518,0.563,1.294,1.5,2.329,2.813c-0.69-0.938-0.633-0.844,0.172,0.281L274.905,145.97z M275.164,139.782
	c-0.748-1.125-1.524-2.218-2.329-3.281l1.294-0.844c1.035,1.188,1.839,2.22,2.415,3.094L275.164,139.782z M276.113,148.97
	c-0.806,4.125-1.324,6.97-1.553,8.531l-1.639-0.469c0.459-1.875,1.005-4.749,1.639-8.625
	C275.078,148.658,275.595,148.846,276.113,148.97L276.113,148.97z M276.803,141.095v-1.594h6.555v1.594h-3.795
	c0,1.313,0,2.501,0,3.563h3.278c0,1.001,0,1.345,0,1.031c-0.116,4-0.202,6.812-0.259,8.438c0,1.938-0.748,2.906-2.243,2.906
	c-0.575,0-1.093,0-1.552,0c0-0.188-0.058-0.531-0.173-1.031c-0.058-0.25-0.086-0.438-0.086-0.562c0.459,0,0.891,0,1.293,0
	c0.919,0.062,1.38-0.438,1.38-1.5c0.115-2.938,0.173-5.531,0.173-7.781h-1.897c-0.058,5.25-0.949,9.094-2.674,11.531
	c-0.345-0.502-0.748-0.938-1.208-1.313c1.667-2.187,2.472-5.843,2.415-10.969c0.057-1.249,0.086-2.687,0.086-4.313L276.803,141.095
	L276.803,141.095z M278.957,171.502v-1.594h8.711v-2.532h1.725v2.532h8.711v1.594h-8.711v2.344h7.763v1.5h-7.763v2.344h9.401v1.595
	h-9.401c0.518,1.375,1.208,2.563,2.07,3.563c1.725-1,3.306-2,4.744-3.002l1.121,1.502c-0.403,0.188-1.151,0.594-2.242,1.219
	c-1.208,0.688-2.042,1.156-2.501,1.406c1.495,1.188,3.623,2.125,6.382,2.812c-0.172,0.125-0.517,0.688-1.035,1.688
	c-5.233-1.5-8.511-4.25-9.833-8.25c-0.748,0.938-1.611,1.781-2.587,2.531v4.5c2.357-0.75,4.11-1.344,5.261-1.781
	c-0.058,0.688-0.086,1.281-0.086,1.781c-1.553,0.436-3.364,1.092-5.434,1.969c-0.345,0.125-0.72,0.281-1.122,0.469l-0.949-1.405
	c0.518-0.375,0.747-0.813,0.69-1.313v-2.906c-1.438,0.938-3.134,1.845-5.088,2.72c-0.058-0.188-0.23-0.563-0.518-1.125
	c-0.116-0.25-0.202-0.438-0.259-0.563c3.852-1.562,6.813-3.5,8.884-5.812h-8.539v-1.594h9.315v-2.344h-7.849v-1.5h7.849v-2.345
	L278.957,171.502L278.957,171.502z M280.167,139.312c-0.576-1.5-1.035-2.654-1.38-3.469l1.466-0.562
	c0.46,1.001,0.919,2.126,1.38,3.375L280.167,139.312z M292.241,146.812l-1.293-0.375l0.862-2.25h-2.329v4.5h3.364v1.595h-3.364v4.78
	c0.114,0.062,0.259,0.095,0.431,0.095c0.172,0.062,0.287,0.094,0.345,0.094c0.345,0,0.919,0.031,1.725,0.094
	c0.747,0,1.264,0,1.553,0c-0.116,0.5-0.23,1.031-0.345,1.595c-0.288,0-0.776,0-1.466,0c-0.69-0.063-1.208-0.095-1.553-0.095
	c-2.07-0.126-3.594-1.28-4.571-3.469c-0.23,1.313-0.748,2.75-1.552,4.313c-0.116-0.063-0.317-0.221-0.604-0.47
	c-0.289-0.25-0.489-0.438-0.604-0.562c1.322-1.875,1.926-5.188,1.811-9.938l1.466,0.094c0,0.502-0.03,1.188-0.086,2.063
	c0,0.688,0,1.188,0,1.5c0.518,1.938,1.178,3.281,1.984,4.031v-10.22h-3.795v-1.5h8.97v1.5L292.241,146.812z M286.204,139.782
	c-0.403,0.938-0.921,1.875-1.553,2.812c-0.403-0.312-0.834-0.624-1.294-0.938c1.208-1.749,2.156-3.874,2.847-6.375l1.552,0.375
	c-0.116,0.438-0.317,1.03-0.604,1.78c-0.116,0.375-0.202,0.627-0.259,0.75h6.382v1.595H286.204L286.204,139.782z M283.406,125.032
	v-19.219h9.143v19.125h-1.725v-2.063h-5.693v2.156L283.406,125.032L283.406,125.032z M285.131,107.501v13.688h5.693v-13.688H285.131
	z M299.744,125.595v-12.844c-0.461,1.125-1.007,2.25-1.639,3.375c-0.116-0.687-0.317-1.374-0.604-2.063
	c1.667-3.124,2.903-6.718,3.709-10.781l1.639,0.281c-0.345,1.376-0.863,3.157-1.553,5.344v16.688H299.744z M301.095,146.345
	c-1.151-1.125-2.329-2.124-3.536-3l1.035-1.405c0.632,0.5,1.552,1.219,2.76,2.155c0.401,0.313,0.718,0.563,0.949,0.75
	L301.095,146.345z M302.13,140.251c-1.266-1.125-2.531-2.187-3.795-3.188l1.121-1.312c1.208,0.876,2.501,1.875,3.881,3
	L302.13,140.251z M301.354,151.595c-0.575,2.625-1.007,4.595-1.294,5.906l-1.725-0.563c0.804-2.873,1.466-5.779,1.983-8.719
	c0.518,0.188,1.063,0.375,1.639,0.563C301.841,149.345,301.641,150.282,301.354,151.595L301.354,151.595z M318.546,123.157
	c-0.288,0.75-0.461,1.344-0.517,1.781c-1.496,0-3.45-0.063-5.865-0.188c-3.221-0.126-5.521-0.876-6.9-2.25
	c-0.576,0.875-1.38,1.937-2.415,3.188c-0.058-0.063-0.116-0.156-0.172-0.281c-0.173-0.188-0.432-0.563-0.776-1.125
	c1.208-1.313,1.984-2.374,2.329-3.188c-0.633-1.062-1.237-2.687-1.811-4.875l1.208-0.656c0.345,1.5,0.804,2.782,1.38,3.844
	c0.401-1.438,0.69-3.249,0.862-5.438h-3.105v-1.594l3.191-5.344h-2.933v-1.5h4.571v1.688l-3.191,5.25h2.933v0.938
	c-0.172,3.312-0.604,5.812-1.293,7.5c1.035,1.376,3.133,2.124,6.296,2.25C314.349,123.282,316.418,123.282,318.546,123.157
	L318.546,123.157z M305.724,178.158c-0.575-0.813-1.524-1.906-2.846-3.281l1.294-1.031c0.919,0.938,1.897,1.969,2.932,3.094
	L305.724,178.158z M307.104,180.971c-0.633,2.188-1.379,5.031-2.242,8.531l-1.812-0.562c0.402-1.188,1.092-3.656,2.07-7.406
	c0.172-0.563,0.287-0.969,0.345-1.219C305.81,180.502,306.356,180.721,307.104,180.971L307.104,180.971z M304.804,143.438v-7.125
	h11.644v7.125h-4.916c0,0.313-0.03,0.75-0.086,1.313c0,0.563,0,0.97,0,1.219h6.296v8.72c0.114,1.812-0.863,2.719-2.934,2.719
	c-0.229,0-0.661,0-1.294,0c-0.689,0.062-1.179,0.094-1.466,0.094c-0.058-0.375-0.172-0.876-0.345-1.5
	c-0.059-0.188-0.086-0.312-0.086-0.375c0.919,0.062,1.84,0.094,2.76,0.094c1.149,0.062,1.695-0.406,1.639-1.406v-6.75h-4.743
	c0,0.502-0.059,0.938-0.174,1.313c0.69,0.563,1.667,1.376,2.934,2.438c0.632,0.562,1.121,0.97,1.466,1.219l-1.208,1.312
	c-0.172-0.188-0.461-0.469-0.862-0.844c-1.208-1.125-2.186-1.999-2.933-2.625c-0.69,1.438-1.984,2.812-3.881,4.125
	c-0.116-0.188-0.289-0.438-0.519-0.75c-0.288-0.312-0.489-0.529-0.604-0.656c2.587-1.437,3.967-3.281,4.14-5.531h-4.485v10.031
	h-1.639V145.97h6.296c0-0.75,0.028-1.594,0.086-2.53h-5.086V143.438z M306.414,171.971c-0.058-0.062-0.145-0.156-0.259-0.281
	c-0.748-0.938-1.582-1.905-2.501-2.905l1.293-1.031c0.173,0.188,0.46,0.5,0.863,0.938c0.862,0.875,1.523,1.594,1.984,2.156
	L306.414,171.971z M306.442,137.907v3.938h8.365v-3.938H306.442z M314.263,186.971c-1.782,0.938-3.825,1.875-6.124,2.813
	c-0.058-0.188-0.201-0.438-0.431-0.75c-0.172-0.314-0.289-0.563-0.345-0.75c2.702-1.001,4.714-1.845,6.038-2.531L314.263,186.971
	L314.263,186.971z M307.593,110.407v-1.406h4.054v-2.063h-3.019v-1.313h3.019v-2.344h1.554v2.344h3.881V109h1.38v1.406h-1.38v3.375
	H313.2v1.875h4.226v1.406H313.2v1.969h4.571v1.406H313.2v2.344h-1.554v-2.344h-3.881v-1.406h3.881v-1.969h-3.363v-1.406h3.363
	v-1.875h-3.19v-1.406h3.19v-1.969L307.593,110.407L307.593,110.407z M308.225,173.564v-3.845h6.556
	c-0.059-0.625-0.23-1.375-0.518-2.25l1.812-0.28c0.057,0.312,0.172,0.875,0.345,1.688c0.057,0.375,0.114,0.655,0.172,0.844h6.382
	v3.844h-1.639v-2.25h-11.471v2.25H308.225L308.225,173.564z M310.381,174.596v-1.406h10.522v1.406h-4.484v1.969h5.606v8.625h-12.853
	v-8.625h5.606v-1.969H310.381z M310.726,177.971v2.25h4.055v-2.25H310.726z M310.726,181.533v2.25h4.055v-2.25H310.726z
	 M315.7,106.938h-2.501v2.063h2.501V106.938z M313.199,112.376h2.501v-1.969h-2.501V112.376z M320.473,177.971h-4.054v2.25h4.054
	V177.971z M316.419,181.533v2.25h4.054v-2.25H316.419z M322.715,189.596c-0.461-0.188-1.207-0.531-2.242-1.031
	c-1.725-0.75-2.962-1.281-3.709-1.594l0.776-1.125c2.415,0.813,4.397,1.562,5.951,2.25L322.715,189.596z M326.077,146.157
	c-1.093-1.125-2.188-2.156-3.277-3.095l1.121-1.312c0.519,0.438,1.264,1.062,2.242,1.875c0.518,0.438,0.891,0.75,1.121,0.938
	L326.077,146.157z M337.127,125.22c-0.807,0.062-2.07,0.094-3.795,0.094c0-0.25-0.059-0.719-0.173-1.406
	c-0.059-0.188-0.086-0.344-0.086-0.469c0.574,0.062,1.694,0.094,3.362,0.094c1.381,0.062,2.04-0.531,1.983-1.781v-3.281
	c-3.853,2.751-8.74,5.124-14.662,7.125c-0.058-0.063-0.116-0.22-0.173-0.469c-0.115-0.25-0.345-0.688-0.689-1.313
	c5.117-1.437,9.344-3.249,12.68-5.438h-12.68v-1.594h2.761v-11.156h5.003c0.172-0.437,0.373-1.155,0.604-2.156
	c0.058-0.124,0.086-0.218,0.086-0.281l1.897,0.281c-0.23,0.688-0.489,1.406-0.776,2.156h7.678v9.469
	c0.745-0.624,1.553-1.312,2.414-2.062l1.035,1.406c-0.461,0.375-1.121,0.907-1.983,1.594c-0.633,0.562-1.121,0.97-1.466,1.219v4.875
	C340.202,124.25,339.196,125.281,337.127,125.22L337.127,125.22z M327.371,149.345c-0.748,2.501-1.496,5.188-2.243,8.063
	l-1.811-0.656c1.091-3.188,1.866-5.906,2.327-8.156c0.229,0.063,0.519,0.188,0.862,0.375
	C326.91,149.096,327.198,149.221,327.371,149.345L327.371,149.345z M326.939,140.157c-0.575-0.624-1.468-1.468-2.675-2.531
	c-0.288-0.249-0.488-0.437-0.604-0.563l1.121-1.312c1.207,0.938,2.329,1.907,3.362,2.906L326.939,140.157z M327.381,107.22v2.25
	h11.039v-2.25H327.381z M327.381,110.876v2.25h11.039v-2.25H327.381z M337.989,116.782l0.431-0.375v-1.875h-11.039v2.25H337.989z
	 M335.22,152.907v-9.47l-3.623,1.125v8.72c-0.114,1.312,0.574,1.937,2.07,1.875h5.434c1.554,0.062,2.387-0.438,2.501-1.5
	c0.174-0.938,0.315-1.938,0.433-3l1.725,0.655c-0.172,1.377-0.374,2.531-0.604,3.47c-0.346,1.5-1.496,2.218-3.45,2.155h-6.729
	c-2.128,0.062-3.162-0.97-3.104-3.094v-8.719l-1.553,0.469l-0.346-1.688l1.897-0.563v-5.438h1.725v4.875l3.623-1.125v-6.375h1.726
	v5.905l5.605-1.78c-0.059,2.188-0.145,4.72-0.259,7.594c0,2.001-0.72,3.032-2.156,3.094c-0.402,0.063-1.035,0.095-1.896,0.095
	c0-0.188-0.059-0.5-0.173-0.938c-0.059-0.437-0.116-0.75-0.173-0.938c0.459,0,0.978,0,1.553,0c0.805,0.063,1.208-0.469,1.208-1.594
	c0.113-1.999,0.172-3.688,0.172-5.062l-3.881,1.219v10.031h-1.726V152.907z M333.612,185.564c0,2.187-0.748,3.811-2.242,4.875
	l-0.776-0.845c1.035-0.812,1.581-2.032,1.64-3.657h-1.468v-3.093h2.848C333.612,183.346,333.612,184.252,333.612,185.564
	L333.612,185.564z M348.289,176.752v-1.5h6.986c0.46-0.562,0.891-1.156,1.294-1.781l1.725,0.375
	c-0.058,0.125-0.172,0.313-0.345,0.563c-0.23,0.375-0.403,0.655-0.519,0.844h10.695v1.5h-5.865c1.438,1.688,3.536,3.031,6.296,4.031
	c-0.058,0.188-0.201,0.469-0.431,0.844c-0.173,0.375-0.317,0.656-0.432,0.845c-3.104-1.313-5.551-3.22-7.331-5.72h-4.141
	c-1.726,2.063-4.256,3.875-7.591,5.438c0-0.063-0.029-0.125-0.086-0.188c-0.345-0.688-0.633-1.155-0.862-1.405
	c2.589-1.063,4.657-2.345,6.21-3.845L348.289,176.752L348.289,176.752z M349.065,118.938v-10.875h8.192v-4.875h1.812v4.875h8.279
	v10.781h-1.812v-1.219h-6.469v8.25h-1.812v-8.25h-6.469v1.313H349.065z M366.143,184.533c-4.888,2.562-10.234,4.343-16.042,5.344
	c-0.058-0.188-0.229-0.562-0.518-1.125c-0.058-0.188-0.116-0.345-0.173-0.469c5.691-0.877,10.925-2.563,15.698-5.063
	L366.143,184.533L366.143,184.533z M365.453,174.221l-1.294-1.125c-5.98,0-9.892,0.063-11.729,0.188
	c-0.229,0-0.604,0.03-1.122,0.094c-0.345,0-0.604,0-0.775,0l-0.689-1.594c0.401-0.125,0.948-0.406,1.64-0.845
	c0.173-0.062,0.314-0.125,0.432-0.188c1.207-0.812,2.729-2.031,4.571-3.656l1.982,0.656c-1.035,0.812-2.79,2.062-5.262,3.75
	c-0.115,0.062-0.202,0.125-0.259,0.188c4.369,0,7.532-0.03,9.487-0.094l-2.674-2.062l1.207-1.03c2.299,1.75,4.196,3.22,5.692,4.406
	L365.453,174.221z M363.297,181.908c-4.14,2.062-8.224,3.531-12.248,4.406c-0.058-0.25-0.288-0.719-0.688-1.406
	c4.714-1.063,8.711-2.5,11.987-4.313L363.297,181.908L363.297,181.908z M350.79,109.845v5.906h6.469v-5.906H350.79z
	 M353.896,153.562c0,2.188-0.748,3.812-2.242,4.875l-0.776-0.844c1.035-0.812,1.581-2.031,1.639-3.656h-1.467v-3.094h2.847
	C353.896,151.346,353.896,152.251,353.896,153.562L353.896,153.562z M360.882,179.283c-2.99,1.438-5.98,2.594-8.97,3.469
	c-0.23-0.5-0.489-0.969-0.776-1.406c2.934-0.75,5.894-1.844,8.884-3.281L360.882,179.283L360.882,179.283z M365.539,109.845h-6.469
	v5.906h6.469V109.845z"/>
<path fill="#FFFFFF" d="M72.671,83.589V70.651h-9.859v2.336h-5.013V42.799h34.926v30.188h-5.014v-2.336h-9.859v12.938H72.671z
	 M62.812,47.831V54.3h9.859v-6.469H62.812z M62.812,58.972v6.648h9.859v-6.648H62.812z M87.711,47.831h-9.859V54.3h9.859V47.831z
	 M77.852,58.972v6.648h9.859v-6.648H77.852z M102.353,53.581v-4.672h5.013v-8.266h4.512v8.266h4.345v4.672h-4.345v4.313
	c0.668,0.48,1.613,1.258,2.841,2.336c1.337,1.078,2.282,1.858,2.841,2.336l-2.674,4.492c-1.003-1.196-2.005-2.336-3.008-3.414
	v19.945h-4.512V63.823c-1.115,3.354-2.564,6.589-4.345,9.703c-0.112-0.478-0.225-1.196-0.334-2.156
	c-0.334-2.395-0.613-4.133-0.835-5.211c2.228-3.473,3.953-7.665,5.181-12.578H102.353z M131.43,76.761
	c-2.452,2.274-5.572,4.551-9.358,6.828c-0.668-1.32-1.562-2.816-2.674-4.492c3.677-1.797,6.685-3.833,9.024-6.109
	c-2.339-3.354-4.068-7.485-5.18-12.398l3.509-1.977h-4.512v1.797c0,5.511-0.392,9.765-1.169,12.758
	c-0.893,3.234-2.507,6.527-4.846,9.883c-1.115-1.199-2.285-2.457-3.509-3.773c3.564-4.431,5.235-10.781,5.013-19.047V43.698
	c7.241-0.239,14.815-1.017,22.727-2.336l1.671,5.211c-5.238,0.719-11.865,1.319-19.886,1.797v5.211h18.215v5.031
	c-1.115,5.511-3.065,10.304-5.849,14.375c2.115,2.277,4.846,4.074,8.188,5.391l-3.008,4.672
	C136.443,80.894,133.657,78.796,131.43,76.761L131.43,76.761z M131.43,69.214c2.005-2.993,3.452-6.528,4.345-10.602h-8.522
	C128.254,62.686,129.646,66.221,131.43,69.214L131.43,69.214z M155.596,62.745c-0.334-0.239-0.781-0.657-1.337-1.258
	c-2.118-2.036-3.901-3.594-5.348-4.672l3.175-3.953c2.339,1.797,4.622,3.655,6.852,5.57L155.596,62.745z M157.602,72.448
	c-1.228,4.554-2.172,8.204-2.841,10.961l-4.846-1.797c0.89-2.996,2.06-7.306,3.509-12.938c0.334-1.317,0.556-2.274,0.668-2.875
	c1.446,0.719,3.008,1.319,4.679,1.797C158.546,68.557,158.158,70.174,157.602,72.448L157.602,72.448z M157.936,51.245
	c-2.339-2.274-4.736-4.312-7.186-6.109l3.175-3.953c0.444,0.359,1.112,0.898,2.005,1.617c2.449,1.797,4.233,3.176,5.348,4.133
	L157.936,51.245z M170.469,61.667c-0.781,7.069-4.068,13.297-9.859,18.688c-0.334-0.48-0.835-1.199-1.504-2.156
	c-0.781-0.958-1.337-1.676-1.671-2.156c4.567-3.594,7.353-8.445,8.355-14.555h-5.18v-4.492h9.859V61.667L170.469,61.667z
	 M171.973,82.87c-1.002,0.118-2.564,0.18-4.679,0.18c-0.112-0.84-0.334-2.218-0.668-4.133c-0.112-0.359-0.167-0.598-0.167-0.719
	c1.225,0,2.449,0,3.677,0c1.671,0,2.506-0.837,2.506-2.516v-22.64h-9.358V48.19h14.037v3.414c0.444,2.516,1.002,4.852,1.671,7.008
	c2.115-2.274,4.178-4.551,6.183-6.828l3.677,3.773c-0.559,0.601-1.449,1.438-2.674,2.516c-2.118,2.038-3.901,3.714-5.348,5.031
	c2.005,4.433,5.013,8.386,9.024,11.859c-0.225,0.241-0.501,0.66-0.835,1.258c-0.447,0.601-1.228,1.617-2.34,3.055
	c-4.235-3.953-7.353-8.625-9.358-14.016v11.68C177.542,80.894,175.759,82.87,171.973,82.87L171.973,82.87z M179.827,48.909
	c-4.235-1.797-8.413-3.353-12.533-4.672l2.005-4.133c2.896,0.96,7.074,2.457,12.533,4.492L179.827,48.909z M202.814,62.565
	c-2.786-2.516-4.958-4.551-6.517-6.109l3.008-3.773c3.008,2.397,5.235,4.253,6.685,5.57L202.814,62.565z M201.644,83.229
	l-4.846-1.797c2.005-5.868,3.509-11.079,4.512-15.633c1.781,0.719,3.342,1.319,4.679,1.797L201.644,83.229z M203.816,50.886
	c-1.561-1.556-3.733-3.594-6.517-6.11l3.008-3.593c2.674,1.917,4.901,3.773,6.685,5.57L203.816,50.886z M219.525,74.425v-17.43
	l-5.348,1.617v15.633c-0.112,2.516,1.058,3.714,3.509,3.594h9.692c2.449,0.121,3.786-0.778,4.011-2.695
	c0.334-1.676,0.611-3.353,0.835-5.031c1.781,0.839,3.397,1.438,4.846,1.797c-0.334,2.636-0.835,4.792-1.504,6.469
	c-0.781,2.754-3.008,4.071-6.685,3.953H215.68c-4.345,0.118-6.463-1.977-6.351-6.289V59.87l-2.506,0.719l-0.835-4.852l3.342-1.078
	v-9.703h4.846v8.445l5.348-1.437v-11.32h4.846v10.063l10.528-2.875c-0.112,5.031-0.279,10.304-0.501,15.813
	c0,3.714-1.282,5.632-3.843,5.75c-1.337,0.241-2.841,0.421-4.512,0.539c-0.112-1.078-0.446-2.813-1.002-5.211
	c0.334,0.121,1.279,0.18,2.841,0.18c1.337,0.121,1.948-0.657,1.838-2.336c0.222-3.353,0.334-6.228,0.334-8.625l-5.682,1.797v18.688
	h-4.846V74.425z"/>
<path fill="#FFFFFF" d="M270.021,32.662c-0.174-0.188-0.523-0.53-1.046-1.031c-0.292-0.312-0.495-0.53-0.61-0.656
	c-0.698,1-1.831,2.281-3.4,3.844c-0.117-0.126-0.32-0.375-0.61-0.75c-0.407-0.625-0.728-1.063-0.959-1.313
	c1.452-1.187,2.557-2.375,3.313-3.563c-0.989-1.062-1.918-2-2.79-2.813c0.465-2.187,0.872-4.531,1.221-7.031h-1.482V17.1h1.744
	c0.174-1.437,0.349-2.937,0.523-4.5l2.354,0.281l-0.61,4.219h3.662v2.156c-0.233,4.188-0.815,7.345-1.744,9.469l2.005,1.969
	L270.021,32.662z M267.841,27.037c0.698-1.688,1.134-4.25,1.308-7.688h-1.831c-0.117,1.125-0.379,2.719-0.785,4.781
	c-0.117,0.688-0.205,1.188-0.262,1.5L267.841,27.037L267.841,27.037z M271.939,24.693v-2.25h12.032v2.25h-4.882l-0.087,1.969h5.58
	V29.1H279.7c0.929,1.688,2.644,2.813,5.144,3.375c-0.582,1.062-1.018,1.906-1.308,2.531c-2.849-1.188-4.738-2.75-5.667-4.688
	c-0.756,1.938-2.849,3.563-6.278,4.875c-0.466-0.876-0.93-1.688-1.395-2.438c3.139-0.875,5.057-2.093,5.754-3.656h-4.708v-2.438
	h5.231c0.116-0.563,0.174-1.219,0.174-1.969L271.939,24.693L271.939,24.693z M272.462,20.756v-7.125h10.986v7.125H272.462z
	 M274.816,15.975v2.531h6.19v-2.531H274.816z M295.095,27.318c-1.687,2.625-3.343,4.844-4.97,6.656
	c-0.756-0.75-1.454-1.313-2.093-1.688c1.569-1.688,3.167-3.812,4.795-6.375L295.095,27.318L295.095,27.318z M289.428,25.068
	l1.134-10.781c4.998,0,10.345-0.281,16.042-0.844l0.785,2.625c-4.302,0.438-9.098,0.719-14.386,0.844l-0.61,5.531h5.231v-4.406h2.79
	v4.406h7.76v2.625h-7.76v6.188c0.116,2.375-0.902,3.53-3.052,3.469c-1.163,0.125-2.238,0.188-3.226,0.188
	c-0.059-0.375-0.175-1.063-0.349-2.063c-0.059-0.313-0.117-0.563-0.174-0.75c0.755,0.063,1.657,0.094,2.703,0.094
	c0.929,0.063,1.365-0.469,1.308-1.594v-5.531L289.428,25.068L289.428,25.068z M306.865,33.881c-1.337-1.812-2.907-3.938-4.708-6.375
	l2.005-1.5c1.278,1.5,2.964,3.595,5.057,6.281L306.865,33.881z M316.943,32.381c-0.467,0.563-0.872,1.093-1.221,1.594l-1.656-1.969
	c0.522-0.624,0.755-1.343,0.696-2.156v-7.125h-2.18V20.1h4.708v8.625l1.918-2.156c0.116,0.501,0.349,1.188,0.697,2.063
	c0.058,0.25,0.115,0.438,0.175,0.563C319.384,29.882,318.338,30.944,316.943,32.381L316.943,32.381z M316.682,18.506
	c-0.931-1.374-1.918-2.813-2.964-4.313l2.268-1.406c0.231,0.313,0.552,0.75,0.959,1.313c0.405,0.501,1.104,1.438,2.093,2.813
	L316.682,18.506z M325.924,32.287c-1.803,1.062-4.041,2-6.714,2.813c-0.117-0.25-0.349-0.656-0.698-1.219
	c-0.292-0.563-0.522-0.97-0.696-1.219c2.44-0.624,4.417-1.343,5.929-2.156c-1.221-1.313-2.354-2.968-3.4-4.969l1.133-0.75h-1.83
	V22.35h12.555v2.625c-1.105,2.188-2.472,4.031-4.098,5.531c1.685,0.938,3.544,1.563,5.578,1.875
	c-0.406,0.812-0.843,1.655-1.308,2.531C329.76,34.099,327.608,33.225,325.924,32.287L325.924,32.287z M323.918,16.537
	c0.175,2.188-0.989,3.938-3.487,5.25c-0.522-0.563-1.134-1.219-1.831-1.969c2.094-0.938,3.053-2.312,2.877-4.125v-2.156h9.416v3.75
	c-0.059,0.813,0.319,1.188,1.135,1.125h1.831l-0.437,2.531h-2.529c-1.687,0-2.527-0.812-2.527-2.438v-2.438h-4.446L323.918,16.537
	L323.918,16.537z M322.697,24.787c0.872,1.688,1.946,3.094,3.227,4.219c1.161-0.938,2.323-2.344,3.487-4.219H322.697z
	 M350.823,30.881v-6.656l-2.006,0.469v6c-0.06,1.125,0.465,1.688,1.568,1.688h3.837c1.046,0,1.656-0.406,1.83-1.219
	c0-0.125,0.029-0.312,0.088-0.563c0.115-0.624,0.203-1.093,0.263-1.406c0.639,0.313,1.308,0.563,2.005,0.75
	c-0.06,0.563-0.204,1.251-0.437,2.063c-0.059,0.25-0.088,0.406-0.088,0.469c-0.231,1.374-1.278,2.03-3.139,1.969h-5.318
	c-1.918,0.062-2.849-0.938-2.79-3v-6.281l-1.046,0.188l-0.175-2.25l1.221-0.281v-2.25l-0.262,0.281
	c-0.522-0.687-1.104-1.313-1.743-1.875l0.262-0.281h-3.661c0,1,0,1.969,0,2.906h3.836c0,0.625-0.03,1.594-0.087,2.906
	c-0.06,3.126-0.117,5.282-0.176,6.469c0.059,2.25-0.783,3.406-2.527,3.469c-0.581,0-1.191,0.031-1.831,0.094
	c-0.06-0.188-0.117-0.438-0.174-0.75c-0.176-0.688-0.292-1.157-0.35-1.406c-0.292,0.687-0.698,1.562-1.221,2.625
	c-0.582-0.625-1.164-1.251-1.744-1.875c1.278-2.124,1.947-5.25,2.006-9.375c0-0.5,0-1.28,0-2.344
	c0.058-1.187,0.087-2.093,0.087-2.719h-1.568v-2.438h3.312c-0.059-0.375-0.174-0.938-0.349-1.688
	c-0.174-0.687-0.32-1.219-0.437-1.594l2.528-0.281c0.23,1,0.465,2.188,0.697,3.563h2.18v1.875c1.221-1.625,2.18-3.437,2.878-5.438
	l2.615,0.094c-0.292,0.876-0.61,1.688-0.959,2.438h8.194v2.344h-9.503c-0.466,0.938-1.047,1.813-1.743,2.625h1.918v2.063
	l2.006-0.375v-3.656h2.18v3.094l4.359-0.938c0,2.25-0.06,4.282-0.176,6.094c-0.059,1.626-0.641,2.5-1.743,2.625
	c-0.407,0.063-1.046,0.094-1.918,0.094c-0.175-0.688-0.32-1.406-0.437-2.156c0.406,0,0.784,0,1.134,0c0.58,0,0.9-0.312,0.959-0.938
	c0.058-0.5,0.087-1.468,0.087-2.906l-2.267,0.562v7.125h-2.178V30.881z M342.802,27.318c0.058-1.625,0.087-2.78,0.087-3.469h-1.742
	c-0.06,3.688-0.438,6.469-1.135,8.344c0.465,0,0.959,0,1.482,0c0.812,0.063,1.221-0.437,1.221-1.5
	C342.771,30.131,342.802,29.006,342.802,27.318L342.802,27.318z"/>
</svg>
