<?xml version="1.0" encoding="utf-8"?>
<!-- Generator: Adobe Illustrator 16.0.0, SVG Export Plug-In . SVG Version: 6.00 Build 0)  -->
<!DOCTYPE svg PUBLIC "-//W3C//DTD SVG 1.1//EN" "http://www.w3.org/Graphics/SVG/1.1/DTD/svg11.dtd">
<svg version="1.1" id="图层_1" xmlns="http://www.w3.org/2000/svg" xmlns:xlink="http://www.w3.org/1999/xlink" x="0px" y="0px"
	 width="640px" height="182.991px" viewBox="0 -74.396 640 182.991" enable-background="new 0 -74.396 640 182.991"
	 xml:space="preserve">
<path fill="#FFFFFF" d="M37.561,31.293c-1.267-1.375-3.165-3.189-5.693-5.44c0.229,0.252-0.059,0-0.862-0.75l3.278-3.752
	c1.035,0.876,2.528,2.128,4.485,3.752c1.035,0.876,1.782,1.5,2.243,1.876L37.561,31.293z M39.459,40.673
	c-1.496,5.88-2.475,10.004-2.933,12.381l-5.002-1.501c0.919-3.376,2.243-8.878,3.968-16.508c0.574,0.126,1.38,0.375,2.415,0.75
	c1.148,0.375,1.954,0.688,2.415,0.938C40.089,37.61,39.804,38.923,39.459,40.673L39.459,40.673z M38.596,18.725
	c-0.69-0.75-1.784-1.812-3.278-3.189c-1.38-1.375-2.474-2.374-3.277-3.001l3.105-3.751c0.69,0.627,1.954,1.688,3.795,3.189
	c1.38,1.125,2.415,2.002,3.105,2.626L38.596,18.725z M43.771,24.728c-0.345-0.498-0.862-1.187-1.553-2.063
	c-0.69-0.874-1.267-1.501-1.725-1.876c3.68-3.626,6.439-7.879,8.281-12.756l5.348,0.563c-0.232,0.375-0.518,0.938-0.862,1.688
	c-0.345,0.75-0.634,1.313-0.863,1.688h19.666v4.502H49.982c-0.69,1.125-1.439,2.251-2.243,3.377h21.909
	c-0.116,0.627-0.172,2.438-0.172,5.44c-0.116,2.377-0.172,4.253-0.172,5.628h3.623v4.502h-3.623
	c-0.116,2.377-0.173,4.628-0.173,6.753h2.933v4.314h-3.105c-0.232,4.376-2.531,6.501-6.9,6.378h-6.9
	c-0.116-0.627-0.461-1.565-1.035-2.814c-0.116-0.627-0.232-1.064-0.345-1.312c2.184,0,4.426,0,6.728,0
	c2.184,0.124,3.391-0.627,3.623-2.251H43.082l1.035-11.068h-3.45v-4.502h3.968l0.69-8.066L43.771,24.728z M64.3,42.174
	c0.113-1.375,0.172-3.626,0.172-6.753H48.947l-0.69,6.753H57.4c-1.267-1.249-2.76-2.5-4.485-3.752l2.415-3.001
	c1.954,1.378,3.736,2.691,5.348,3.939l-2.416,2.814H64.3z M49.982,24.353l-0.69,6.566h8.625c-0.69-0.625-1.725-1.501-3.105-2.626
	c-0.69-0.624-1.208-1.061-1.552-1.313l2.587-2.626L49.982,24.353L49.982,24.353z M64.645,30.918c0-3.125,0-5.314,0-6.566h-8.453
	c0.803,0.501,1.897,1.313,3.277,2.439c0.69,0.627,1.208,1.064,1.553,1.313l-2.415,2.814H64.645L64.645,30.918z M86.998,31.669
	c-2.302-2.125-4.774-4.315-7.418-6.566l3.277-3.939c2.99,2.251,5.521,4.253,7.591,6.003L86.998,31.669z M90.103,36.358
	c-1.151,4.127-2.704,9.632-4.658,16.508L80.27,50.99c1.493-4.25,3.105-9.755,4.83-16.508c0.229,0.126,0.631,0.313,1.208,0.563
	C87.801,35.546,89.068,35.983,90.103,36.358L90.103,36.358z M88.206,19.288c-2.07-1.876-4.485-3.939-7.246-6.19l3.278-4.127
	c2.528,1.876,5.06,3.816,7.59,5.815L88.206,19.288z M92.518,21.727V16.85h7.246c-0.345-0.499-0.806-1.249-1.38-2.251
	c-1.151-1.875-2.07-3.376-2.76-4.502l4.485-1.876c1.38,2.002,2.816,4.191,4.313,6.566l-3.968,2.063h6.9
	c1.725-3.001,3.278-5.877,4.658-8.629l5.003,1.688c-0.577,1.002-1.496,2.503-2.76,4.502c-0.69,1.125-1.208,1.94-1.552,2.439h7.417
	v4.877h-11.213v5.627h9.833v5.065h-9.833v5.815h12.248v5.065h-12.248v9.755h-5.348v-9.755H91.483v-5.065h12.076v-5.815h-9.661
	v-5.065h9.661v-5.627H92.518z M128.336,33.357v-4.69h2.243V12.91h4.313c0.113-0.499,0.286-1.313,0.517-2.439
	c0.113-1,0.229-1.75,0.345-2.251l4.83,0.375c0,0.252-0.059,0.563-0.172,0.938c-0.232,0.75-0.577,1.875-1.035,3.376h5.866v34.704
	c0,0.499-0.06,1-0.173,1.501c3.334-3.25,4.831-8.691,4.485-16.32V25.29h13.973v20.26c0,1.251,0.402,1.814,1.208,1.688h0.345
	c0.803,0.126,1.264-0.499,1.38-1.876c0.229-2.75,0.345-5.501,0.345-8.254c1.38,0.501,2.528,0.938,3.45,1.313
	c-0.232,3.752-0.461,6.692-0.69,8.817c-0.345,3.125-1.785,4.69-4.313,4.69h-2.07c-2.876,0.123-4.256-1.501-4.14-4.877V30.355h-4.831
	v2.439c0.345,9.13-1.553,15.945-5.693,20.447c-0.577-0.627-1.784-1.814-3.623-3.564c-0.345,1.876-1.668,2.875-3.968,3.001
	c-1.151,0-2.531,0-4.14,0c-0.116-0.627-0.289-1.565-0.518-2.812c-0.116-0.75-0.232-1.378-0.345-1.876c0.919,0,1.955,0,3.105,0
	c1.493,0.123,2.183-0.499,2.07-1.876V33.357h-6.21c0,8.38-1.035,15.069-3.105,20.072c-1.612-1.5-2.819-2.691-3.623-3.564
	c1.725-4.001,2.528-9.503,2.415-16.508H128.336z M134.892,17.412v11.255h6.21V17.412H134.892z M137.479,26.979
	c-0.345-1-0.862-2.313-1.553-3.939c-0.345-1-0.633-1.75-0.862-2.251l2.933-1.688c0.229,0.501,0.574,1.251,1.035,2.251
	c0.803,1.627,1.38,2.878,1.725,3.752L137.479,26.979z M137.652,43.674l-2.587-6.565l3.105-1.688
	c0.345,0.876,0.919,2.316,1.725,4.315c0.458,1.002,0.803,1.752,1.035,2.251L137.652,43.674z M146.968,20.226v-5.065h8.108
	c-0.232-0.75-0.577-1.876-1.035-3.376c-0.345-1.125-0.633-1.999-0.863-2.626l5.348-0.75c0.345,1.126,0.803,2.626,1.38,4.502
	c0.345,1.002,0.574,1.753,0.69,2.251h7.936v5.065L146.968,20.226L146.968,20.226z M180.533,38.234
	c-0.922,1.002-1.612,1.753-2.07,2.251c-0.232-0.874-0.633-2.187-1.208-3.939c-0.232-0.75-0.404-1.313-0.518-1.688
	c4.14-3.875,7.936-8.503,11.386-13.882l4.14,3.189c-1.496,2.128-2.933,4.127-4.313,6.003v23.074h-5.175V36.171
	C182.315,36.672,181.568,37.361,180.533,38.234L180.533,38.234z M191.919,11.597c-3.795,5.003-7.936,9.379-12.42,13.131
	c-0.577-1.875-1.324-3.687-2.243-5.44c3.795-2.875,7.245-6.565,10.351-11.068L191.919,11.597L191.919,11.597z M193.126,30.543v-5.44
	h25.359v5.44h-6.728v14.632c0.113,4.751-2.014,7.128-6.383,7.128c-2.992,0.123-5.464,0.188-7.418,0.188
	c-0.345-1.876-0.75-3.628-1.208-5.252c0.574,0,1.609,0,3.105,0c1.493,0.126,2.588,0.188,3.278,0.188
	c2.299,0.126,3.391-1,3.278-3.376V30.543H193.126z M195.024,16.662v-5.44h21.736v5.44H195.024z M229.462,17.599v-4.502h10.696v-4.69
	h5.175v4.69h9.661v4.502h-9.661v4.502h5.002c4.141-3.25,7.876-7.002,11.213-11.255l4.14,3.001c-2.647,3.001-5.348,5.754-8.108,8.254
	h9.488v4.69h-15.181c-0.345,0.252-0.862,0.627-1.553,1.125c-0.922,0.627-2.415,1.626-4.485,3.001h16.043V53.24h-5.003v-2.251
	h-19.494v2.251h-5.175V38.234c-0.461,0.126-1.095,0.439-1.898,0.938c-1.612,0.627-2.819,1.125-3.623,1.5l-1.553-5.44
	c7.475-2.5,13.628-5.314,18.459-8.441h-17.941v-4.69h14.491v-4.502H229.462z M256.892,35.233H238.26l-0.862,0.375v3.564h19.494
	V35.233z M237.398,43.112v3.939h19.494v-3.939H237.398z M273.896,32.794v-4.877h41.92v4.877h-29.154l-0.862,3.564h25.187
	c-0.116,1.125-0.288,2.814-0.518,5.065c-0.231,2.002-0.345,3.376-0.345,4.127c-0.345,4.751-3.278,7.064-8.798,6.941
	c-2.876,0.123-6.442,0.188-10.696,0.188c-0.116-1.626-0.461-3.441-1.035-5.44c4.37,0.252,7.704,0.375,10.006,0.375
	c3.334,0.126,5.059-0.938,5.175-3.189c0.113-0.375,0.172-0.938,0.172-1.688c0.113-0.75,0.172-1.249,0.172-1.5h-25.531l1.725-8.441
	h-7.418V32.794z M279.244,24.54V9.908h31.225V24.54H279.244z M284.765,14.786v4.877h20.356v-4.877H284.765z"/>
<g>
	<path fill="#FFFFFF" d="M267.194,81.748c3.556-0.471,10.97-0.705,10.97-5.635c0-2.583-2.448-3.557-4.664-3.557
		c-5.432,0-11.572,4.562-11.572,10.298c0,3.623,2.885,5.503,6.206,5.503c1.876,0,3.825-0.671,5.334-1.781
		c0.537-0.403,2.58-2.213,2.58-2.882c0-0.201-0.2-0.406-0.403-0.406c-0.601,0-2.447,2.955-5.466,2.955
		c-2.012,0-3.051-1.478-3.051-3.389L267.194,81.748z M267.362,80.606c0.337-2.147,2.482-7.042,5.099-7.042
		c0.771,0,1.106,0.736,1.106,1.44c0,1.378-0.871,3.122-1.877,4.027C270.581,80.039,268.874,80.54,267.362,80.606 M295.604,72.556
		c-0.908,0-1.611-0.234-2.08,0.638c-0.067,0.101-0.133,0.234-0.269,0.234c-0.102,0-0.234-0.066-0.3-0.099
		c-0.637-0.371-1.376-0.501-2.08-0.501c-2.786,0-5.807,1.776-7.783,3.656c-2.145,2.076-3.723,4.76-3.723,7.813
		c0,1.946,0.739,4.06,2.986,4.06c3.69,0,6.844-4.298,8.755-7.08c-0.302,1.675-1.07,3.859-1.07,5.466
		c0,1.075,0.567,1.614,1.572,1.614c1.948,0,3.891-1.479,5.234-2.786c0.469-0.47,1.745-1.877,1.745-2.62
		c0-0.199-0.104-0.434-0.336-0.434c-0.536,0-1.814,2.649-2.853,2.649c-0.333,0-0.435-0.402-0.435-0.636
		c0-0.638,0.369-1.845,0.537-2.414l0.705-2.618c0.303-1.138,1.946-5.97,1.946-6.572c0-0.539-0.974-0.371-1.273-0.371L295.604,72.556
		L295.604,72.556z M285.476,85.371c-0.774,0-1.005-0.707-1.005-1.41c0-1.88,0.935-3.922,1.876-5.536
		c1.005-1.677,2.852-4.526,5.028-4.526c0.739,0,1.378,0.636,1.378,1.374C292.753,77.588,287.89,85.371,285.476,85.371
		 M306.235,81.883c1.039,0.903,2.55,2.01,2.55,3.519c0,0.974-0.706,1.981-1.711,1.981c-2.08,0-4.158-4.631-5.834-4.631
		c-0.941,0-1.07,1.442-1.07,2.146c0,1.345,0.33,2.017,1.606,2.584c1.341,0.604,3.32,0.875,4.763,0.875
		c2.918,0,6.911-1.682,6.911-5.098c0-3.725-6.005-5.335-6.005-8.218c0-0.707,0.399-1.442,1.171-1.442
		c2.084,0,3.725,3.621,5.167,3.621c0.772,0,0.873-0.804,1.004-1.407c0.067-0.305,0.204-0.908,0.204-1.244
		c0-1.81-4.428-2.013-5.534-2.013c-1.612,0-3.188,0.234-4.629,1.043c-1.206,0.669-2.18,1.775-2.18,3.218
		C302.647,78.863,304.794,80.675,306.235,81.883"/>
	<path fill="#FFFFFF" d="M261.626,69.942c0.068-0.235,0.237-0.808,0.237-1.11c0-0.603-1.109-0.939-1.544-1.106
		c-1.575-0.603-3.353-0.97-5.03-0.97c-1.847,0-3.823,0.466-5.299,1.576c-1.31,1.038-2.315,2.682-2.315,4.36
		c0,2.85,2.349,4.895,4.224,6.743c1.208,1.172,2.518,2.279,2.518,4.058c0,1.106-0.737,2.146-1.612,2.75
		c-0.802,0.534-1.911,0.769-2.882,0.769c-1.073,0-2.315-0.299-3.088-1.07c-0.737-0.772-0.805-1.545-0.938-2.516
		c-0.065-0.64-0.065-1.478-0.903-1.478c-0.537,0-0.739,0.501-0.841,0.938c-0.201,0.806-0.302,2.283-0.302,3.12
		c0,1.039,0.237,1.21,1.242,1.544c1.609,0.567,3.588,0.807,5.265,0.807c2.213,0,4.429-0.474,6.239-1.744
		c1.813-1.31,2.953-3.188,2.953-5.4c0-2.55-2.551-4.796-4.226-6.475c-0.94-0.94-2.583-2.349-2.583-3.756
		c0-1.748,1.776-2.886,3.421-2.886c4.362,0,2.451,4.43,4.258,4.43c0.737,0,0.841-1.043,0.943-1.544L261.626,69.942z"/>
	<path fill="#FFFFFF" d="M182.156,80.312c0-3.251-2.65-5.125-4.879-5.125c-4.031,0-7.942,3.435-7.942,7.404
		c0,2.872,2.036,5.204,4.721,5.204C177.329,87.795,182.156,84.927,182.156,80.312 M179.639,78.727c0,1.958-0.966,5.045-2.768,7.167
		c-0.32,0.349-1.15,1.312-2.763,1.312c-1.877,0-2.252-1.77-2.252-2.896c0-3.09,1.956-8.538,5.448-8.538
		C179.18,75.773,179.639,77.437,179.639,78.727 M192.135,76.392c0.299,0,0.432-0.51,0.432-0.642c0-0.104-0.026-0.24-0.185-0.24
		h-2.549c0.375-1.424,1.234-4.595,2.44-4.595c0.294,0,0.456,0.272,0.643,0.595c0.564,0.935,1.369,1.018,1.557,1.018
		c0.589,0,1.235-0.456,1.235-1.181c0-0.86-0.912-1.366-1.985-1.366c-1.692,0-3.354,0.992-4.377,1.957
		c-1.203,1.102-1.664,2.417-2.062,3.571h-1.958c-0.323,0-0.458,0.64-0.458,0.64c0,0.109,0.029,0.242,0.19,0.242h1.955
		c-1.609,5.341-2.01,6.843-3.567,12.638c-0.346,1.317-0.992,3.731-2.063,3.731c-0.458,0-0.645-0.534-0.726-0.802
		c-0.188-0.537-0.401-1.154-1.26-1.154c-0.698,0-1.156,0.51-1.156,1.125c0,0.859,0.969,1.635,2.284,1.635
		c1.231,0,2.307-0.536,3.19-1.231c1.718-1.367,2.042-2.255,4.885-12.478l0.963-3.464L192.135,76.392L192.135,76.392z
		 M208.049,76.392c0.269,0,0.724-0.106,0.724-0.616c0-0.053,0-0.266-0.214-0.266h-2.791c0.055-0.107,0.109-0.323,0.135-0.406
		l0.349-0.964c0.104-0.293,0.482-1.392,0.482-1.608c0-0.326-0.242-0.326-0.588-0.326c-0.377,0-1.45,0.03-1.744,0.137
		c-0.323,0.135-0.995,2.682-1.208,3.167h-1.289c-0.721,0-1.229,0-1.229,0.669c0,0.213,0.292,0.213,0.563,0.213h1.687
		c-0.885,2.576-1.984,5.82-2.44,7.675c-0.132,0.509-0.351,1.367-0.351,2.171c0,1.125,0.542,1.557,1.104,1.557
		c2.198,0,5.119-3.38,5.119-4.186c0-0.135-0.129-0.292-0.294-0.292c-0.133,0-0.268,0.134-0.346,0.295
		c-0.807,1.259-2.174,2.36-2.604,2.36c-0.162,0-0.323-0.135-0.323-0.48c0-0.402,0.377-1.667,0.539-2.15
		c1.232-4.025,1.257-4.131,2.172-6.95H208.049L208.049,76.392z M213.955,75.536c0.401-1.256,1.69-5.193,1.69-5.303
		c0-0.112-0.026-0.251-0.269-0.251c-0.135,0-0.401,0.139-0.669,0.277c-0.404,0.234-1.773,0.581-2.763,0.552l-0.62-0.023
		c-0.239,0-0.805,0-0.805,0.479c0,0.16,0.081,0.294,0.456,0.294c0.833,0,1.182,0,1.182,0.616c0,1.463-4.507,14.225-4.507,14.842
		c0,0.453,0.294,0.453,1.153,0.453c1.153,0,1.206-0.052,1.528-0.937c1.528-4.216,5.851-9.823,7.728-9.823
		c0.399,0,1.102,0.054,1.102,1.395c0,2.206-2.067,8.887-3.543,8.887c-0.943,0-0.696-1.421-1.958-1.421
		c-0.51,0-1.234,0.51-1.234,1.125c0,0.671,0.668,1.099,1.528,1.099c4.239,0,7.968-4.505,8.02-9.126
		c0.025-2.919-1.635-3.455-2.521-3.455c-2.359,0-4.798,2.68-7.327,6.306l-0.049-0.085L213.955,75.536z M229.623,81.948
		c1.102-0.186,5.15-1.074,5.15-3.972c0-1.883-1.846-2.816-3.348-2.816c-2.875,0-7.97,2.949-7.97,8.207
		c0,2.954,2.036,4.428,4.046,4.428c2.929,0,5.585-3.191,5.585-3.647c0-0.135-0.052-0.271-0.213-0.271
		c-0.133,0-0.19,0.056-0.776,0.648c-1.692,1.641-3.01,1.718-3.492,1.718c-0.51,0-2.254-0.244-2.254-2.876
		c0-0.16,0-0.349,0.052-0.832L229.623,81.948z M226.511,81.815c0.643-3.061,2.497-6.042,4.483-6.042
		c1.286,0,1.286,1.262,1.286,1.504C232.281,80.875,228.36,81.602,226.511,81.815"/>
	<path fill="#FFFFFF" d="M41.311,82.082l-0.974-10.599V70.61c0-1.476,0.403-1.711,1.846-1.977c0.536-0.134,1.107-0.27,1.107-0.908
		c0-0.435-0.336-0.703-0.706-0.703c-1.507,0.034-3.051,0.168-4.593,0.168c-1.544,0-3.085-0.134-4.562-0.168
		c-0.469,0-0.873,0.168-0.873,0.703c0,0.603,0.669,0.638,1.138,0.773c0.773,0.166,1.041,0.371,1.21,1.17l1.44,17.412
		c0.102,0.838,0.169,1.275,1.177,1.275c1.473,0,1.976-1.208,2.715-2.218l8.551-11.872l1.979-2.616
		c0.435-0.568,1.409-1.913,1.979-2.346c0.604-0.473,1.31-0.571,2.046-0.771c0.404-0.102,0.737-0.305,0.737-0.742
		c0-0.501-0.333-0.77-0.802-0.77c-1.042,0.034-2.114,0.168-3.187,0.168c-1.073,0-2.148-0.134-3.221-0.168
		c-0.471,0-0.971,0.301-0.971,0.839c0,0.637,0.87,0.637,1.338,0.672c0.638,0.028,1.208,0.298,1.208,1.005
		c0,0.972-2.349,4.058-2.984,4.962L41.311,82.082z M58.39,88.357c5.062,0,11.066-3.358,11.066-8.992
		c0-4.363-3.856-6.811-7.848-6.811c-5.197,0-10.765,3.862-10.765,9.394c0,1.979,0.904,3.655,2.479,4.863
		C54.833,87.952,56.543,88.357,58.39,88.357 M58.288,87.384c-1.778,0-2.213-1.912-2.213-3.355c0-2.081,0.638-4.192,1.508-6.072
		c0.807-1.776,2.416-4.328,4.629-4.328c1.844,0,2.18,1.475,2.18,3.022C64.392,79.666,62.045,87.384,58.288,87.384 M83.512,83.493
		c1.542-2.213,4.09-5.837,4.09-8.62c0-1.142-0.669-2.318-1.945-2.318c-1.242,0-2.013,1.043-2.013,2.213
		c0,0.741,0.234,1.277,0.469,1.982c0.234,0.671,0.335,0.972,0.335,1.677c0,2.483-2.718,5.734-4.192,7.58V83.09
		c0-2.083-0.067-4.461-0.438-6.508c-0.333-1.776-0.835-4.027-3.083-4.027c-1.813,0-3.455,0.977-4.598,2.318
		c-0.401,0.469-1.443,1.944-1.443,2.58c0,0.236,0.169,0.47,0.404,0.47c0.805,0,1.208-2.616,2.617-2.616
		c1.041,0,1.341,2.853,1.442,3.488l0.638,7.38c0,1.812-0.135,3.552-0.974,5.164c-0.537,1.005-1.745,2.447-3.021,2.447
		c-1.44,0-1.778-1.945-3.755-1.945c-0.971,0-1.911,0.771-1.911,1.813c0,1.51,1.71,2.111,2.987,2.111
		c3.653,0,6.002-2.445,8.316-4.929L83.512,83.493z M105.311,72.555c-0.906,0-1.609-0.231-2.078,0.641
		c-0.068,0.1-0.135,0.234-0.271,0.234c-0.099,0-0.234-0.069-0.302-0.102c-0.635-0.369-1.375-0.501-2.078-0.501
		c-2.786,0-5.804,1.776-7.783,3.656c-2.146,2.077-3.721,4.76-3.721,7.815c0,1.945,0.734,4.059,2.984,4.059
		c3.689,0,6.843-4.297,8.754-7.078c-0.302,1.674-1.072,3.856-1.072,5.467c0,1.07,0.57,1.611,1.575,1.611
		c1.945,0,3.89-1.481,5.233-2.789c0.466-0.469,1.742-1.876,1.742-2.615c0-0.199-0.099-0.435-0.333-0.435
		c-0.539,0-1.813,2.651-2.854,2.651c-0.333,0-0.435-0.402-0.435-0.637c0-0.64,0.37-1.848,0.536-2.417l0.706-2.616
		c0.302-1.14,1.943-5.969,1.943-6.575c0-0.536-0.969-0.371-1.276-0.371h-1.27V72.555z M95.182,85.37
		c-0.771,0-1.005-0.707-1.005-1.409c0-1.879,0.937-3.924,1.877-5.534c1.005-1.677,2.852-4.528,5.031-4.528
		c0.736,0,1.375,0.638,1.375,1.376C102.46,77.587,97.596,85.37,95.182,85.37 M116.781,85.169c-0.737-0.202-2.346-0.506-2.346-1.477
		c0-0.371,0.302-0.669,0.635-0.837l0.336,0.098c1.107,0.238,1.575,0.336,2.716,0.336c1.846,0,3.523-0.266,5.098-1.24
		c1.575-0.973,2.718-2.485,2.718-4.394c0-1.109-0.335-1.778-0.974-2.653h1.948c0.771,0,0.604,0.102,0.869-0.771
		c0-0.098,0.102-0.4,0.102-0.501c0-0.168-0.536-0.102-0.57-0.102H124.9c-1.008,0-1.344-0.031-2.315-0.333
		c-1.477-0.468-2.651-0.741-4.229-0.741c-3.354,0-7.343,1.748-7.343,5.605c0,1.877,1.239,3.317,2.849,4.125
		c-1.138,0.771-2.648,1.776-2.648,3.319c0,0.807,0.336,1.547,0.839,2.114c-1.877,0.167-5.533,1.073-5.533,3.453
		c0,2.182,2.414,3.323,4.226,3.859c1.742,0.536,3.789,0.737,5.635,0.737c1.945,0,3.924-0.132,5.736-0.872
		c1.81-0.771,3.286-2.146,3.286-4.226c0-1.677-1.109-2.885-2.515-3.656c-1.208-0.638-3.153-1.07-4.531-1.443L116.781,85.169z
		 M117.487,82.149c-1.344,0-1.979-1.206-1.979-2.414c0-2.046,1.307-6.172,3.89-6.172c1.307,0,1.776,1.478,1.776,2.549
		C121.174,78.192,120.104,82.149,117.487,82.149 M112.993,88.553c1.307,0.875,2.95,1.343,4.495,1.679
		c1.14,0.234,3.421,0.505,3.421,2.112c0,1.877-2.515,2.284-3.958,2.284c-2.182,0-6.17-0.906-6.17-3.692
		C110.78,89.561,111.686,88.691,112.993,88.553 M133.922,81.749c3.552-0.47,10.968-0.707,10.968-5.637
		c0-2.581-2.451-3.557-4.664-3.557c-5.434,0-11.571,4.562-11.571,10.301c0,3.622,2.885,5.502,6.206,5.502
		c1.877,0,3.822-0.671,5.333-1.781c0.536-0.401,2.583-2.214,2.583-2.884c0-0.2-0.203-0.403-0.401-0.403
		c-0.604,0-2.45,2.954-5.468,2.954c-2.013,0-3.054-1.476-3.054-3.388L133.922,81.749z M134.089,80.607
		c0.336-2.149,2.482-7.044,5.099-7.044c0.771,0,1.106,0.74,1.106,1.44c0,1.379-0.873,3.122-1.878,4.027
		C137.308,80.037,135.597,80.541,134.089,80.607 M154.85,79.6c0.472-0.837,2.279-4.058,3.388-4.058c0.404,0,0.469,0.336,0.469,0.639
		c0.099,1.14,0.505,1.808,1.745,1.808c1.609,0,2.65-1.607,2.65-3.085c0-1.274-0.976-2.349-2.281-2.349
		c-3.622,0-5.668,4.496-7.312,7.146l0.37-1.509c0.3-1.208,0.635-2.616,0.635-3.859c0-1.208-0.703-1.779-1.843-1.779
		c-1.88,0-3.69,1.313-4.932,2.618c-0.401,0.404-1.643,1.644-1.643,2.28c0,0.236,0.201,0.407,0.403,0.407
		c0.737,0,1.912-2.552,3.083-2.552c0.302,0,0.404,0.301,0.404,0.535c0,0.671-0.503,2.317-0.706,2.953l-2.346,7.917
		c-0.034,0.164-0.167,0.671-0.167,0.802c0,0.505,0.804,0.406,1.106,0.406h0.906c0.536,0,1.911,0.099,2.346-0.269
		c0.269-0.203,0.438-0.736,0.57-1.039L154.85,79.6z"/>
</g>
</svg>
