<?xml version="1.0" encoding="utf-8"?>
<!-- Generator: Adobe Illustrator 16.0.0, SVG Export Plug-In . SVG Version: 6.00 Build 0)  -->
<!DOCTYPE svg PUBLIC "-//W3C//DTD SVG 1.1//EN" "http://www.w3.org/Graphics/SVG/1.1/DTD/svg11.dtd">
<svg version="1.1" id="图层_1" xmlns="http://www.w3.org/2000/svg" xmlns:xlink="http://www.w3.org/1999/xlink" x="0px" y="0px"
	 width="640px" height="328px" viewBox="0 -127.5 640 328" enable-background="new 0 -127.5 640 328" xml:space="preserve">
<path fill="#4CC2F8" d="M385.071,34.684h-3.232V22.503c-1.181,1.104-2.572,1.921-4.175,2.45V22.02
	c0.844-0.276,1.76-0.799,2.749-1.57s1.668-1.669,2.036-2.697h2.622V34.684L385.071,34.684z"/>
<path fill="#FFFFFF" d="M60.302,116.032c-0.806,1.5-1.466,2.625-1.984,3.375c-0.058-0.375-0.202-0.905-0.431-1.594
	c-0.058-0.312-0.116-0.53-0.173-0.656c1.954-3.188,3.479-6.812,4.571-10.875l1.726,0.562c-0.518,1.688-1.093,3.281-1.726,4.781
	v17.157h-1.639V115.47C60.589,115.595,60.475,115.783,60.302,116.032L60.302,116.032z M68.41,148.406
	c-2.186,1.125-5.52,2.188-10.005,3.188c-0.116-0.312-0.289-0.779-0.518-1.406c-0.058-0.188-0.116-0.343-0.172-0.469
	c3.622-0.562,6.611-1.373,8.97-2.438c-1.323-0.874-2.646-2.188-3.967-3.938c-1.035,1.188-2.156,2.345-3.364,3.47
	c-0.345-0.563-0.69-1.062-1.035-1.5c2.53-2.125,4.513-4.5,5.951-7.125l1.812,0.375c-0.403,0.625-0.834,1.281-1.294,1.969h10.868
	v1.875c-1.611,2.062-3.394,3.688-5.348,4.875c2.012,0.938,4.772,1.594,8.28,1.969c-0.172,0.375-0.375,0.907-0.604,1.594
	c-0.058,0.126-0.086,0.221-0.086,0.281C73.872,150.501,70.708,149.594,68.41,148.406L68.41,148.406z M57.974,173.844v-1.594h6.296
	v1.594h-2.415v5.906h2.07v1.594h-2.07v6.469c0.287-0.062,0.69-0.154,1.208-0.28c0.574-0.062,0.977-0.125,1.208-0.188
	c0,0.563,0,1.125,0,1.688c-0.517,0.126-1.237,0.28-2.156,0.469c-1.783,0.313-3.163,0.563-4.14,0.75l-0.259-1.594
	c0.287-0.062,0.718-0.155,1.293-0.281c0.574-0.062,1.005-0.125,1.294-0.188v-6.844h-2.07v-1.594h2.07v-5.906H57.974z
	 M60.906,160.688v-9h14.576v9h-1.725v-1.312H62.631v1.312H60.906z M62.631,153.281v4.594h11.126v-4.594H62.631z M63.666,127.562
	v-1.594h7.59c1.725-5.124,2.989-9.188,3.795-12.188l1.811,0.562c-1.438,4.563-2.703,8.438-3.795,11.625h5.692v1.594H63.666z
	 M78.415,177.219c-0.172,0.375-0.316,0.656-0.431,0.844c-1.208-0.623-2.243-1.25-3.105-1.875v1.313H67.72v-1.219
	c-0.92,0.75-1.927,1.438-3.019,2.062c-0.058-0.125-0.202-0.312-0.432-0.562c-0.23-0.438-0.403-0.75-0.517-0.938
	c3.506-2,5.865-4.25,7.072-6.75l1.811,0.281c-0.058,0.062-0.116,0.156-0.172,0.281c-0.116,0.188-0.202,0.312-0.259,0.375
	c1.782,2.625,3.996,4.438,6.641,5.438C78.788,176.656,78.644,176.906,78.415,177.219L78.415,177.219z M68.496,146.344
	c1.897-1.062,3.593-2.438,5.088-4.125h-9.746C65.275,143.969,66.828,145.345,68.496,146.344L68.496,146.344z M64.27,112.282V110.5
	h6.641c-0.575-1.625-1.006-2.906-1.293-3.844l1.811-0.375c0.172,0.562,0.459,1.438,0.862,2.625c0.173,0.562,0.315,1,0.432,1.312
	l-1.294,0.281h6.728v1.781L64.27,112.282L64.27,112.282z M65.132,192.594v-13.219h5.865v10.875c0.057,1.438-0.604,2.156-1.983,2.156
	c-0.461,0-0.949,0-1.466,0c0-0.188-0.058-0.596-0.172-1.219c-0.058-0.188-0.086-0.313-0.086-0.375
	c0.401,0.062,0.805,0.094,1.208,0.094c0.69,0,1.035-0.346,1.035-1.031v-2.156h-2.932v4.875H65.132z M68.065,124.001
	c-0.806-3.375-1.697-6.594-2.674-9.657l1.725-0.562c0.287,1,0.747,2.594,1.38,4.781c0.632,2.25,1.091,3.875,1.38,4.875
	L68.065,124.001z M66.599,180.781v2.062h2.932v-2.062H66.599z M66.599,184.25v2.156h2.932v-2.156H66.599z M74.706,176
	c-1.208-0.875-2.329-2.094-3.364-3.656c-0.806,1.188-1.927,2.406-3.364,3.656H74.706L74.706,176z M74.965,192.406
	c-0.634,0-1.266,0-1.897,0c0-0.375-0.116-0.938-0.345-1.688c0.69,0.062,1.322,0.095,1.897,0.095
	c0.919,0.062,1.351-0.407,1.294-1.406V179h1.466v10.875C77.437,191.562,76.632,192.406,74.965,192.406L74.965,192.406z
	 M72.722,188.562v-8.344h1.38v8.344H72.722z M83.774,192.688V179.75c-0.289,0.562-0.69,1.375-1.208,2.438
	c-0.288,0.563-0.489,0.971-0.604,1.22c-0.058-0.375-0.173-0.845-0.345-1.406c-0.116-0.313-0.202-0.563-0.259-0.75
	c1.609-3.125,2.875-6.781,3.795-10.969l1.553,0.28c-0.403,1.75-0.863,3.438-1.38,5.063v17.063h-1.552V192.688z M82.049,153.938
	v-1.594h8.97c0.114-0.562,0.172-1.187,0.172-1.875h1.812c0,0.188-0.03,0.502-0.086,0.938c-0.058,0.375-0.116,0.688-0.172,0.938
	h9.142v1.594h-8.711c1.552,2.5,4.628,4.062,9.229,4.688c-0.345,0.688-0.604,1.28-0.776,1.781c-4.888-0.876-8.107-2.719-9.66-5.531
	c-0.92,2.688-4.14,4.625-9.66,5.812c-0.116-0.312-0.316-0.75-0.604-1.312c-0.058-0.25-0.116-0.406-0.173-0.469
	c5.175-0.75,8.194-2.405,9.057-4.969h-8.54V153.938z M83.343,109.75v-1.875h17.336v1.875h-7.503v6h9.142v1.875h-9.142v7.312
	c0.114,2.25-0.892,3.375-3.019,3.375c-1.093,0-2.242,0-3.45,0c-0.058-0.75-0.172-1.438-0.345-2.062
	c0.574,0.062,1.609,0.094,3.105,0.094c1.322,0.124,1.926-0.5,1.812-1.875v-6.844h-9.66v-1.875h9.66v-6H83.343z M101.283,150.938
	c-2.933-1.312-5.75-2.468-8.453-3.469v2.063h-1.725v-3.656c-2.013,2.25-4.773,4.001-8.28,5.25c-0.116-0.188-0.317-0.499-0.604-0.938
	c-0.116-0.312-0.23-0.529-0.345-0.655c3.334-1.062,5.951-2.438,7.849-4.125h-7.417v-1.595h8.797v-5.53h1.725v5.53h8.797v1.595H92.83
	v1.78l0.604-1.125c2.989,1.063,5.865,2.188,8.625,3.375L101.283,150.938z M87.741,143.156c-0.288-0.249-0.69-0.594-1.207-1.031
	c-1.093-0.999-1.897-1.688-2.415-2.062l1.035-1.22c0.173,0.126,0.459,0.345,0.863,0.656c1.322,1.001,2.299,1.781,2.932,2.344
	L87.741,143.156z M90.243,179.75c-0.058,5.938-1.093,10.219-3.105,12.844l-1.208-1.312c1.782-2.312,2.702-6.155,2.76-11.531
	l0.086-3.562h-1.811V174.5h1.811c0-0.5,0.028-1.219,0.086-2.156c0-0.875,0-1.5,0-1.875h1.552l-0.086,4.031h3.708
	c-0.058,5.875-0.144,10.844-0.259,14.906c0,1.812-0.806,2.719-2.415,2.719c-0.403,0.061-0.978,0.094-1.725,0.094
	c0-0.062,0-0.156,0-0.281c-0.058-0.375-0.173-0.906-0.345-1.594c0.345,0.062,0.862,0.094,1.553,0.094
	c0.977,0.062,1.466-0.438,1.466-1.5c0.057-0.812,0.086-2.905,0.086-6.28c0.057-2.75,0.086-4.906,0.086-6.47h-2.156L90.243,179.75
	L90.243,179.75z M99.903,140.062c-1.208,1.002-2.531,2.063-3.968,3.188l-1.035-1.313c1.322-1.062,2.616-2.093,3.881-3.094
	L99.903,140.062L99.903,140.062z M95.763,191.844v-18.656h5.692v18.563h-1.552v-1.781h-2.674v1.875L95.763,191.844L95.763,191.844z
	 M97.229,174.875v13.5h2.674v-13.5H97.229z M107.341,160.594V147.75c-0.46,1.125-1.006,2.25-1.639,3.375
	c-0.116-0.688-0.316-1.374-0.604-2.062c1.667-3.125,2.903-6.719,3.708-10.781l1.639,0.281c-0.345,1.375-0.862,3.156-1.552,5.344
	v16.688H107.341z M109.066,109.657c-0.748,1.125-1.639,2.156-2.674,3.094c-0.575-0.624-0.979-1.031-1.208-1.219
	c1.84-1.625,3.162-3.438,3.968-5.438l1.811,0.188c-0.058,0.126-0.144,0.312-0.259,0.562c-0.289,0.625-0.547,1.063-0.776,1.313h5.952
	v1.5h-4.313c0.287,0.313,0.661,0.782,1.122,1.406c0.229,0.313,0.401,0.532,0.518,0.656l-1.38,0.656l-1.811-2.438l0.518-0.281
	H109.066L109.066,109.657z M114.845,122.595c-2.014,2.5-4.946,4.406-8.797,5.72c-0.173-0.563-0.461-1.125-0.863-1.688
	c3.737-0.999,6.469-2.531,8.194-4.594h-6.641l0.862-5.344h7.245v-2.438h-7.504v-1.5h16.732v5.438h-7.59v2.344h8.625
	c0,1.062-0.058,2.312-0.172,3.75c-0.058,1.812-1.093,2.719-3.105,2.719c-0.92,0-1.841,0-2.76,0
	c-0.058-0.563-0.172-1.093-0.345-1.594c0.862,0.062,1.811,0.094,2.846,0.094c1.035,0.063,1.609-0.406,1.725-1.406
	c0-0.125,0-0.405,0-0.844c0.056-0.563,0.086-0.969,0.086-1.219h-6.9v6.75h-1.639L114.845,122.595L114.845,122.595z M108.98,173.75
	c-0.69,1.125-1.553,2.188-2.587,3.188c-0.116-0.125-0.317-0.343-0.604-0.655c-0.288-0.249-0.489-0.438-0.604-0.563
	c1.725-1.562,3.075-3.437,4.054-5.625l1.725,0.188c-0.345,0.75-0.69,1.405-1.035,1.969h5.951v1.5L108.98,173.75L108.98,173.75z
	 M106.91,179.094v-1.406h7.763v-1.405h1.725v1.405h8.107v1.406h-8.107v2.344h9.66v1.595h-20.7v-1.595h9.315v-2.344H106.91z
	 M106.048,186.781v-1.5h13.196V183.5h1.725v1.781h4.398v1.5h-4.398v2.719c0.057,1.938-0.892,2.906-2.846,2.906
	c-1.266,0-2.272,0-3.019,0c-0.058-0.251-0.144-0.563-0.259-0.938c-0.058-0.312-0.116-0.562-0.172-0.75c1.035,0,2.012,0,2.933,0
	c1.149,0.062,1.695-0.469,1.639-1.594v-2.344L106.048,186.781L106.048,186.781z M109.066,118.188l-0.431,2.344h6.21v-2.344H109.066z
	 M112.43,190.906c-0.806-0.813-1.841-1.781-3.105-2.906l1.122-1.125c0.114,0.126,0.287,0.281,0.518,0.469
	c1.264,1.063,2.156,1.875,2.673,2.438L112.43,190.906z M126.144,158.156c-0.289,0.75-0.461,1.344-0.518,1.781
	c-1.496,0-3.45-0.063-5.865-0.188c-3.221-0.126-5.52-0.876-6.9-2.25c-0.575,0.875-1.38,1.937-2.415,3.188
	c-0.058-0.063-0.116-0.156-0.172-0.281c-0.172-0.188-0.431-0.563-0.776-1.125c1.208-1.313,1.984-2.374,2.329-3.188
	c-0.633-1.062-1.237-2.687-1.812-4.875l1.208-0.655c0.345,1.5,0.805,2.78,1.38,3.844c0.402-1.438,0.69-3.249,0.863-5.438h-3.105
	v-1.594l3.191-5.344h-2.933v-1.5h4.571v1.688l-3.191,5.25h2.933v0.938c-0.173,3.312-0.604,5.812-1.294,7.5
	c1.035,1.376,3.133,2.124,6.296,2.25C121.946,158.281,124.016,158.281,126.144,158.156L126.144,158.156z M111.913,177.031
	c-0.289-0.375-0.69-0.875-1.208-1.5c-0.289-0.313-0.489-0.563-0.604-0.75l1.121-0.938c0.69,0.688,1.322,1.406,1.898,2.156
	L111.913,177.031z M118.381,109.657c-0.518,0.938-1.151,1.812-1.897,2.625c-0.461-0.438-0.892-0.812-1.294-1.125
	c1.553-1.688,2.616-3.375,3.191-5.063l1.725,0.188c-0.23,0.688-0.518,1.312-0.863,1.875h6.642v1.5h-4.83l1.811,2.062l-1.38,0.656
	c-0.172-0.249-0.489-0.656-0.949-1.219c-0.461-0.5-0.806-0.875-1.035-1.125l0.604-0.375H118.381L118.381,109.657z M115.19,145.406
	V144h4.054v-2.062h-3.019v-1.313h3.019v-2.344h1.552v2.344h3.881V144h1.38v1.406h-1.38v3.375h-3.881v1.875h4.227v1.406h-4.227v1.969
	h4.571v1.406h-4.571v2.344h-1.552v-2.344h-3.881v-1.406h3.881v-1.969h-3.364v-1.406h3.364v-1.875h-3.191v-1.406h3.191v-1.969H115.19
	z M118.382,173.75c-0.518,0.75-1.065,1.531-1.639,2.344c-0.46-0.375-0.949-0.719-1.466-1.031c1.322-1.312,2.357-2.969,3.105-4.969
	l1.725,0.188c-0.058,0.126-0.144,0.312-0.259,0.562c-0.116,0.375-0.345,0.845-0.69,1.406h6.728v1.5L118.382,173.75L118.382,173.75z
	 M122.349,114.25h-5.865v2.438h5.865V114.25z M121.746,177.031c-0.69-0.75-1.38-1.5-2.07-2.25l1.035-0.938
	c0.747,0.688,1.466,1.406,2.156,2.156L121.746,177.031z M123.298,141.938h-2.501V144h2.501V141.938z M120.796,147.375h2.501v-1.969
	h-2.501V147.375z M139.621,180.406c-2.186,1.125-5.52,2.188-10.005,3.188c-0.116-0.312-0.289-0.781-0.518-1.406
	c-0.058-0.188-0.116-0.343-0.172-0.469c3.623-0.562,6.611-1.373,8.97-2.438c-1.323-0.875-2.646-2.188-3.967-3.938
	c-1.035,1.188-2.156,2.345-3.364,3.47c-0.345-0.563-0.69-1.063-1.035-1.5c2.53-2.125,4.514-4.5,5.951-7.125l1.812,0.375
	c-0.403,0.625-0.834,1.28-1.294,1.969h10.868v1.875c-1.61,2.062-3.394,3.688-5.348,4.875c2.012,0.938,4.772,1.594,8.28,1.969
	c-0.172,0.375-0.375,0.906-0.604,1.594c-0.058,0.126-0.086,0.221-0.086,0.281C145.083,182.501,141.92,181.594,139.621,180.406
	L139.621,180.406z M143.416,160.219c-0.806,0.062-2.07,0.094-3.795,0.094c0-0.25-0.058-0.719-0.172-1.405
	c-0.058-0.188-0.086-0.345-0.086-0.47c0.574,0.062,1.695,0.095,3.364,0.095c1.38,0.062,2.04-0.531,1.983-1.781v-3.281
	c-3.853,2.751-8.74,5.124-14.662,7.125c-0.058-0.062-0.116-0.22-0.172-0.469c-0.116-0.25-0.345-0.688-0.69-1.313
	c5.117-1.437,9.343-3.248,12.678-5.438h-12.678v-1.594h2.76v-11.156h5.002c0.173-0.438,0.374-1.155,0.604-2.156
	c0.057-0.125,0.086-0.218,0.086-0.281l1.898,0.281c-0.231,0.688-0.489,1.406-0.776,2.156h7.676v9.469
	c0.747-0.624,1.553-1.312,2.415-2.062l1.035,1.406c-0.461,0.375-1.122,0.906-1.984,1.594c-0.633,0.562-1.121,0.97-1.466,1.219v4.875
	C146.491,159.249,145.485,160.28,143.416,160.219L143.416,160.219z M135.653,127.854h1.811v-19.981h-1.294
	c-0.748,2.101-2.444,3.839-5.088,5.217v2.067c1.781-0.787,3.306-1.836,4.571-3.15V127.854z M132.117,192.688v-9h14.576v9h-1.725
	v-1.312h-11.126v1.312H132.117z M133.669,142.219v2.25h11.04v-2.25H133.669z M133.669,145.875v2.25h11.04v-2.25H133.669z
	 M144.278,151.781l0.431-0.375v-1.875h-11.04v2.25H144.278z M133.842,185.281v4.594h11.126v-4.594H133.842z M139.707,178.344
	c1.897-1.062,3.593-2.438,5.088-4.125h-9.746C136.486,175.969,138.039,177.345,139.707,178.344L139.707,178.344z M150.76,127.854
	h1.811v-19.981h-1.293c-0.748,2.101-2.445,3.839-5.089,5.217v2.067c1.782-0.787,3.306-1.836,4.571-3.15V127.854z M156.709,157.969
	c-0.345,0.249-0.662,0.624-0.949,1.125l-1.208-1.125c0.345-0.437,0.518-1.031,0.518-1.781v-8.53h-2.329v-1.688h4.054v9.469
	c0.172-0.188,0.431-0.498,0.776-0.938c0.69-0.75,1.178-1.343,1.466-1.781c0.114,0.313,0.259,0.721,0.431,1.219
	c0.114,0.252,0.201,0.438,0.259,0.563C158.866,155.438,157.859,156.595,156.709,157.969L156.709,157.969z M153.26,185.938v-1.594
	h8.97c0.114-0.562,0.172-1.187,0.172-1.875h1.811c0,0.188-0.029,0.502-0.086,0.938c-0.058,0.375-0.116,0.688-0.172,0.938h9.142
	v1.594h-8.711c1.552,2.5,4.628,4.062,9.229,4.688c-0.345,0.688-0.604,1.28-0.776,1.781c-4.888-0.876-8.108-2.719-9.66-5.531
	c-0.92,2.688-4.14,4.624-9.66,5.812c-0.116-0.312-0.317-0.75-0.604-1.312c-0.058-0.251-0.116-0.406-0.173-0.469
	c5.175-0.75,8.194-2.405,9.057-4.969h-8.539V185.938z M172.494,182.938c-2.933-1.312-5.75-2.469-8.453-3.469v2.063h-1.725v-3.656
	c-2.013,2.25-4.773,4-8.28,5.25c-0.116-0.188-0.317-0.5-0.604-0.938c-0.116-0.312-0.23-0.529-0.345-0.655
	c3.334-1.063,5.951-2.438,7.849-4.125h-7.417v-1.595h8.797v-5.53h1.725v5.53h8.798v1.595h-8.798v1.78l0.604-1.125
	c2.989,1.063,5.865,2.188,8.625,3.375L172.494,182.938z M157.227,143.719c-0.862-1.187-1.897-2.499-3.105-3.938l1.38-1.031
	c0.229,0.251,0.604,0.656,1.122,1.219c0.977,1.125,1.667,1.969,2.07,2.531L157.227,143.719z M158.952,175.156
	c-0.288-0.25-0.69-0.594-1.208-1.031c-1.093-0.999-1.897-1.688-2.415-2.062l1.035-1.22c0.172,0.126,0.459,0.345,0.863,0.656
	c1.322,1,2.299,1.781,2.932,2.344L158.952,175.156z M165.853,157.5c-2.07,1.25-4.485,2.312-7.246,3.188
	c-0.403-0.75-0.748-1.312-1.035-1.688c3.334-0.938,5.606-1.843,6.814-2.719c-1.496-1.5-2.79-3.563-3.881-6.188h-0.776v-1.688h11.903
	v1.875c-1.38,2.625-2.818,4.626-4.313,6c1.322,0.938,3.392,1.719,6.21,2.344c-0.116,0.188-0.259,0.437-0.432,0.75
	c-0.288,0.563-0.461,0.905-0.517,1.031C169.704,159.469,167.461,158.499,165.853,157.5L165.853,157.5z M163.265,141.844
	c0.173,2.563-0.949,4.469-3.364,5.719c-0.116-0.188-0.317-0.437-0.604-0.75c-0.289-0.375-0.489-0.623-0.604-0.75
	c2.127-0.938,3.105-2.468,2.933-4.594v-2.156h8.884v4.22c-0.058,0.876,0.345,1.282,1.208,1.219h1.897l-0.172,1.781h-2.329
	c-1.553,0-2.329-0.75-2.329-2.25v-3.188h-5.521L163.265,141.844L163.265,141.844z M162.677,122.782
	c-0.403,1.938-1.179,3.905-2.329,5.905c-0.461-0.562-0.863-1.095-1.208-1.594c0.978-1.812,1.609-3.529,1.898-5.156
	c0.287-1.562,0.431-4.187,0.431-7.875v-6.656h17.509v6.375h-15.784v0.469C163.194,118.063,163.022,120.907,162.677,122.782
	L162.677,122.782z M162.316,150.094c1.035,2.25,2.213,3.938,3.537,5.063c1.38-1.062,2.702-2.75,3.967-5.063H162.316z
	 M163.194,108.907v3.375h14.145v-3.375H163.194z M163.281,122.032v-1.594h16.818v1.594h-9.056c-1.956,2.125-3.307,3.469-4.054,4.03
	c3.737-0.062,6.555-0.094,8.453-0.094l-2.243-2.25l1.294-1.125c0.518,0.563,1.293,1.346,2.329,2.344
	c1.208,1.125,2.098,2,2.674,2.625l-1.38,1.22l-1.208-1.406c-0.23,0-0.547,0-0.949,0c-4.658,0.124-7.706,0.249-9.143,0.375
	c-0.69,0-1.352,0.062-1.984,0.188l-0.776-1.688c0.574-0.188,1.122-0.5,1.639-0.938c1.035-0.938,2.07-2.029,3.105-3.28H163.281z
	 M165.178,117.719v-1.5h13.023v1.5H165.178z M171.114,172.062c-1.208,1-2.531,2.063-3.968,3.188l-1.035-1.313
	c1.322-1.062,2.616-2.094,3.881-3.094L171.114,172.062L171.114,172.062z M178.553,192.594V179.75
	c-0.461,1.125-1.007,2.25-1.639,3.375c-0.116-0.688-0.317-1.374-0.604-2.062c1.667-3.125,2.903-6.72,3.709-10.781l1.639,0.281
	c-0.345,1.375-0.863,3.155-1.553,5.344v16.688H178.553z M187.178,147.188c-2.301,1.063-5.692,2.032-10.178,2.906
	c-0.058-0.188-0.144-0.5-0.259-0.938c-0.172-0.375-0.288-0.656-0.345-0.844c3.506-0.563,6.469-1.28,8.884-2.156
	c-1.38-0.75-2.674-1.875-3.881-3.375c-1.151,1.251-2.272,2.312-3.364,3.188c-0.116-0.125-0.289-0.343-0.518-0.656
	c-0.289-0.312-0.489-0.529-0.604-0.655c2.587-2.063,4.571-4.249,5.951-6.563l1.725,0.563c-0.173,0.188-0.403,0.501-0.69,0.938
	c-0.172,0.313-0.316,0.532-0.431,0.656h11.126v1.594c-1.61,1.813-3.422,3.281-5.434,4.406c2.243,0.75,4.973,1.251,8.194,1.5
	c-0.288,0.563-0.518,1.188-0.69,1.875C192.64,149.062,189.477,148.251,187.178,147.188L187.178,147.188z M179.156,160.688v-10.594
	h15.439v10.594h-1.639v-1.03h-12.162v1.03H179.156z M197.355,190.156c-0.288,0.75-0.461,1.343-0.518,1.781
	c-1.496,0-3.45-0.063-5.865-0.188c-3.221-0.126-5.52-0.876-6.9-2.25c-0.576,0.874-1.38,1.937-2.415,3.188
	c-0.058-0.063-0.116-0.157-0.172-0.281c-0.173-0.188-0.432-0.563-0.776-1.125c1.208-1.313,1.983-2.375,2.329-3.188
	c-0.633-1.062-1.237-2.687-1.811-4.875l1.208-0.655c0.345,1.5,0.804,2.78,1.38,3.844c0.401-1.438,0.69-3.249,0.862-5.438h-3.105
	v-1.594l3.191-5.344h-2.933v-1.5h4.571v1.688l-3.191,5.25h2.933v0.938c-0.172,3.312-0.604,5.812-1.294,7.5
	c1.035,1.375,3.133,2.124,6.296,2.25C193.157,190.28,195.227,190.28,197.355,190.156L197.355,190.156z M180.795,151.5v2.812h5.261
	V151.5H180.795z M180.795,155.625v2.625h5.261v-2.625H180.795z M187.178,145.406c1.839-0.874,3.564-2.094,5.175-3.656h-9.746
	C183.814,143.25,185.337,144.469,187.178,145.406L187.178,145.406z M189.091,124.562c0,2.188-0.748,3.812-2.243,4.875l-0.776-0.844
	c1.035-0.812,1.581-2.031,1.639-3.656h-1.466v-3.094h2.846C189.091,122.346,189.091,123.251,189.091,124.562L189.091,124.562z
	 M186.401,177.406V176h4.054v-2.062h-3.019v-1.313h3.019v-2.344h1.553v2.344h3.881V176h1.38v1.406h-1.38v3.375h-3.881v1.875h4.226
	v1.406h-4.226v1.969h4.571v1.406h-4.571v2.344h-1.553v-2.344h-3.881v-1.406h3.881v-1.969h-3.364v-1.406h3.364v-1.875h-3.191v-1.406
	h3.191v-1.969H186.401z M192.957,151.5h-5.261v2.812h5.261V151.5z M187.695,155.625v2.625h5.261v-2.625H187.695z M194.509,173.938
	h-2.501V176h2.501V173.938z M192.008,179.375h2.501v-1.969h-2.501V179.375z M214.617,192.219c-0.806,0.062-2.07,0.094-3.795,0.094
	c0-0.25-0.058-0.72-0.172-1.405c-0.058-0.188-0.086-0.345-0.086-0.47c0.574,0.062,1.695,0.095,3.364,0.095
	c1.38,0.062,2.041-0.532,1.984-1.781v-3.281c-3.853,2.751-8.741,5.124-14.663,7.125c-0.058-0.062-0.116-0.22-0.172-0.469
	c-0.116-0.251-0.345-0.688-0.69-1.313c5.117-1.438,9.343-3.248,12.679-5.438h-12.679v-1.594h2.76v-11.156h5.002
	c0.172-0.438,0.374-1.156,0.604-2.156c0.057-0.125,0.086-0.219,0.086-0.281l1.897,0.281c-0.23,0.688-0.489,1.406-0.776,2.156h7.676
	v9.469c0.747-0.624,1.552-1.312,2.415-2.062l1.035,1.406c-0.461,0.375-1.121,0.905-1.984,1.594c-0.633,0.562-1.121,0.97-1.466,1.219
	v4.875C217.692,191.248,216.687,192.28,214.617,192.219L214.617,192.219z M206.336,156.562c0,2.188-0.748,3.812-2.242,4.875
	l-0.776-0.844c1.035-0.812,1.581-2.031,1.639-3.656h-1.466v-3.094h2.846C206.336,154.345,206.336,155.25,206.336,156.562
	L206.336,156.562z M204.871,174.219v2.25h11.04v-2.25H204.871z M204.871,177.875v2.25h11.04v-2.25H204.871z M215.479,183.781
	l0.431-0.375v-1.875h-11.04v2.25H215.479z M206.87,112.563v-1.688h2.329v-4.406h1.639v4.406h2.07v1.688h-2.07v4.594
	c0.115,0,0.259-0.031,0.431-0.094c0.345-0.125,0.863-0.312,1.553-0.563c0,0.688,0,1.313,0,1.875
	c-0.633,0.188-1.294,0.407-1.984,0.656v6.938c0.057,1.562-0.662,2.374-2.156,2.438c-0.518,0-1.093,0-1.725,0
	c0-0.188-0.03-0.47-0.086-0.845c-0.058-0.438-0.116-0.75-0.173-0.938c0.459,0,0.977,0,1.553,0c0.69,0.062,1.005-0.281,0.949-1.031
	V119.5c-0.748,0.25-1.553,0.532-2.415,0.844l-0.172-1.969c0.287-0.062,0.718-0.188,1.293-0.375c0.574-0.125,1.005-0.218,1.294-0.281
	v-5.156H206.87z M219.29,127.657v-6.281h-3.881c-0.172,2.875-0.892,5.312-2.156,7.313c-0.461-0.375-0.949-0.75-1.466-1.125
	c0.919-1.377,1.495-2.75,1.725-4.125c0.287-1.438,0.431-3.625,0.431-6.563v-9.469h12.506v18.469c0.057,1.688-0.72,2.531-2.329,2.531
	c-0.69,0-1.352,0-1.984,0c0-0.251-0.058-0.595-0.172-1.031c-0.058-0.313-0.086-0.563-0.086-0.75
	c0.574,0.062,1.121,0.094,1.639,0.094c0.919,0.062,1.351-0.312,1.294-1.125v-4.219h-3.968v6.281H219.29z M215.495,109.094v4.5h3.795
	v-4.5H215.495z M215.495,116.969c0,1,0,1.938,0,2.813h3.795v-4.5h-3.795V116.969z M224.81,109.094h-3.968v4.5h3.968V109.094z
	 M220.842,115.282v4.5h3.968v-4.5H220.842z M227.23,157.219c-0.806,0.938-1.639,2-2.501,3.188l-0.863-1.875
	c0.977-1.062,1.84-1.999,2.587-2.813v-7.5h-2.415v-1.781h4.14v9.281c0.805,1.563,2.299,2.344,4.485,2.344
	c2.243,0.062,6.296,0.031,12.162-0.094l-0.604,1.969c-6.268,0-10.235-0.062-11.902-0.188
	C229.846,159.75,228.149,158.906,227.23,157.219L227.23,157.219z M227.49,190.344c-0.345,0.375-0.662,0.75-0.949,1.125l-1.122-1.219
	c0.459-0.438,0.69-1.062,0.69-1.875v-8.719h-2.156v-1.781h3.795v10.219c0.229-0.249,0.604-0.656,1.122-1.219
	c0.518-0.5,0.862-0.844,1.035-1.031c0.114,0.688,0.258,1.313,0.431,1.875C229.243,188.844,228.294,189.72,227.49,190.344
	L227.49,190.344z M227.748,175.438c-0.345-0.437-0.806-1.062-1.38-1.875c-0.633-0.812-1.121-1.438-1.466-1.875l1.38-0.938
	c0.747,0.875,1.725,2.095,2.932,3.656L227.748,175.438z M227.662,143.812c-0.92-1.623-1.783-3.062-2.587-4.312l1.38-0.844
	c0.747,1.001,1.667,2.376,2.76,4.125L227.662,143.812z M230.335,141.844v-1.688h13.973v1.688h-5.779
	c-0.575,1.563-1.208,2.938-1.897,4.125h1.121v11.063h-1.725V147c-1.38,2.25-3.335,4.469-5.865,6.656
	c-0.345-0.499-0.748-0.999-1.208-1.5c3.737-3,6.296-6.438,7.676-10.313L230.335,141.844L230.335,141.844z M230.854,181.062v-9.75
	h12.42v9.75h-5.434v2.345h6.555V185h-5.865c1.437,1.938,3.565,3.595,6.383,4.969c-0.345,0.375-0.662,0.844-0.949,1.406
	c-2.76-1.376-4.802-3.125-6.124-5.25v6.562h-1.639v-6.562c-1.323,2.125-3.364,3.968-6.124,5.531
	c-0.116-0.188-0.289-0.469-0.518-0.844c-0.23-0.313-0.403-0.563-0.518-0.75c2.702-1.188,4.858-2.875,6.469-5.063h-5.606v-1.594
	h6.296v-2.345h-5.346V181.062z M231.041,110.875v-1.688h6.641c0.459-0.938,0.863-1.937,1.208-3l1.897,0.281
	c-0.172,0.438-0.431,1.031-0.776,1.781c-0.172,0.438-0.288,0.75-0.345,0.938h11.385v1.688h-12.248
	c-0.172,0.313-0.431,0.75-0.776,1.313c-0.345,0.625-0.604,1.094-0.776,1.406h11.471v11.907c0.057,1.875-0.862,2.813-2.76,2.813
	c-1.324,0-2.415,0-3.278,0c0-0.188-0.058-0.47-0.172-0.845c-0.058-0.438-0.116-0.75-0.172-0.938c0.229,0,0.632,0,1.208,0
	c0.747,0.062,1.322,0.094,1.725,0.094c1.208,0.062,1.753-0.438,1.639-1.5v-1.5h-10.609v5.063h-1.725v-11.532
	c-1.035,1.188-2.156,2.344-3.364,3.469l-0.862-1.782c2.816-2.499,4.944-5.156,6.382-7.969H231.041z M232.406,172.812v2.625h3.795
	v-2.625H232.406z M232.406,176.844v2.625h3.795v-2.625H232.406z M236.302,115.188v2.625h10.609v-2.625H236.302z M236.302,119.407
	v2.625h10.609v-2.625H236.302z M241.635,172.812h-3.795v2.625h3.795V172.812z M237.839,176.844v2.625h3.795v-2.625H237.839z
	 M243.359,153c-1.61-2.188-3.163-4.031-4.658-5.531l1.294-1.125c1.897,1.938,3.478,3.719,4.744,5.344L243.359,153z M247.856,178.812
	v-1.688h3.019v-3.75l-2.674,0.094c-0.058-0.624-0.144-1.156-0.259-1.594c2.243-0.062,4.628-0.25,7.159-0.562l0.259,1.594
	c-0.806,0.125-1.754,0.25-2.846,0.375v3.844h2.76v1.688h-2.76v2.813l0.431-0.469c0.057,0.062,0.115,0.126,0.173,0.188
	c1.208,1.188,2.098,2.031,2.674,2.531l-1.035,1.406c-0.23-0.249-0.576-0.656-1.035-1.22c-0.518-0.562-0.92-0.998-1.208-1.312v9.938
	h-1.639v-10.125c-0.69,2.188-1.582,4.125-2.674,5.813c0-0.062-0.029-0.155-0.086-0.28c-0.23-0.75-0.461-1.281-0.69-1.595
	c1.495-2.063,2.645-4.625,3.45-7.688H247.856z M248.287,142.875v-1.688h6.642c0.459-0.938,0.862-1.938,1.208-3l1.897,0.28
	c-0.172,0.438-0.431,1.031-0.776,1.781c-0.172,0.438-0.288,0.75-0.345,0.938h11.385v1.688H256.05
	c-0.172,0.312-0.431,0.75-0.776,1.312c-0.345,0.627-0.604,1.096-0.776,1.406h11.472V157.5c0.057,1.875-0.863,2.812-2.76,2.812
	c-1.324,0-2.415,0-3.278,0c0-0.188-0.058-0.469-0.172-0.844c-0.058-0.438-0.116-0.75-0.172-0.938c0.229,0,0.632,0,1.208,0
	c0.747,0.062,1.322,0.094,1.725,0.094c1.208,0.062,1.753-0.438,1.639-1.5v-1.5h-10.609v5.062h-1.725v-11.53
	c-1.035,1.188-2.156,2.344-3.364,3.469l-0.863-1.781c2.817-2.499,4.945-5.155,6.383-7.969L248.287,142.875L248.287,142.875z
	 M253.548,147.188v2.625h10.609v-2.625H253.548z M253.548,151.406v2.625h10.609v-2.625H253.548z M254.35,113.875v-1.781h2.674V107.5
	h1.725v4.594h4.14v-5.625h1.725v5.625h5.52v-5.625h1.725v5.625h2.933v1.781h-2.933v8.157h-8.97v-8.157h-4.14v12.094h15.611v1.781
	h-17.336v-13.875H254.35z M255.792,182.188v-1.594h12.161v1.594h-5.261v3.188h4.744v1.5h-4.744v3.188h5.951v1.5h-13.886v-1.5h6.21
	v-3.188h-4.744v-1.5h4.744v-3.188H255.792z M256.654,178.25v-6.656h10.436v6.656H256.654z M258.292,173.188v3.47h7.159v-3.47
	H258.292z M264.614,113.875v6.375h5.52v-6.375H264.614z M272.2,142.312v-1.5h5.865l-1.553-2.062l1.553-0.656
	c0.919,1.001,1.581,1.813,1.983,2.438l-0.604,0.28h4.398c0.229-0.375,0.604-0.904,1.121-1.594c0.345-0.498,0.574-0.844,0.69-1.031
	l1.725,0.563c-0.172,0.188-0.431,0.531-0.776,1.031c-0.345,0.438-0.604,0.782-0.776,1.03h5.606v1.5h-6.296v4.875h6.986v1.5H271.51
	v-1.5h7.072v-4.875H272.2z M275.736,146.625c-0.288-0.438-1.064-1.343-2.329-2.719l1.208-0.938c0.977,1,1.753,1.845,2.329,2.531
	L275.736,146.625z M277.03,191.938c-1.841-0.188-2.876-1.281-3.105-3.28c0.172-2.124,1.208-3.281,3.105-3.47
	c1.954,0.188,3.019,1.346,3.191,3.47C280.049,190.655,278.984,191.75,277.03,191.938L277.03,191.938z M274.271,160.688v-9.938
	h15.093v9.938h-1.725v-1.03h-11.644v1.03H274.271z M277.03,186.594c-1.093,0.126-1.697,0.813-1.811,2.063
	c0.114,1.062,0.718,1.653,1.811,1.78c1.149-0.127,1.782-0.718,1.897-1.78C278.812,187.406,278.18,186.72,277.03,186.594
	L277.03,186.594z M275.995,152.25v2.344h11.644v-2.344H275.995z M275.995,156v2.25h11.644V156H275.995z M291.276,128.595v-7.405
	h1.725c-1.496-0.812-2.991-2.031-4.485-3.657h-0.345c-1.266,1.313-2.732,2.532-4.399,3.657h1.639c0.057,0.938,0,1.78-0.172,2.53
	c-0.23,2.001-1.582,3.688-4.054,5.063c-0.116-0.063-0.259-0.188-0.431-0.375c-0.116-0.126-0.431-0.407-0.948-0.844
	c2.242-1.125,3.478-2.405,3.708-3.845c0.173-0.688,0.229-1.53,0.173-2.53c-1.438,0.938-3.105,1.78-5.002,2.53
	c-0.058-0.188-0.202-0.469-0.431-0.844c-0.172-0.375-0.317-0.624-0.431-0.75c3.391-1.25,6.093-2.781,8.106-4.594h-5.95v-10.219
	h16.731v10.219h-6.037c1.781,1.75,4.485,3.126,8.107,4.125c-0.058,0.126-0.145,0.312-0.259,0.562
	c-0.289,0.501-0.461,0.876-0.518,1.125c-1.956-0.624-3.623-1.344-5.002-2.155v7.405H291.276z M280.221,142.312v4.875h3.191v-4.875
	H280.221z M281.616,108.907v2.812h5.865v-2.812H281.616z M281.616,113.125v2.813h5.865v-2.813H281.616z M290.313,143.906
	c-0.806,0.876-1.639,1.781-2.501,2.719l-1.121-1.031c0.172-0.188,0.546-0.593,1.121-1.219c0.574-0.688,0.977-1.155,1.208-1.406
	L290.313,143.906L290.313,143.906z M294.985,108.907h-5.865v2.812h5.865V108.907z M289.12,113.125v2.813h5.865v-2.813H289.12z
	 M295.336,144.844v-1.688h2.76v-4.875h1.639v4.875h2.501v1.688h-2.501v4.594l2.76-0.655c0,0.688,0.028,1.312,0.086,1.875
	c-0.92,0.188-1.869,0.407-2.846,0.655v6.656c0,1.625-0.69,2.438-2.07,2.438c-0.461,0.062-1.093,0.094-1.897,0.094
	c-0.058-0.25-0.116-0.656-0.172-1.219c-0.116-0.313-0.172-0.563-0.172-0.75c0.114,0,0.345,0,0.69,0
	c0.345,0.062,0.632,0.094,0.862,0.094c0.805,0,1.178-0.344,1.121-1.031v-5.905c-0.978,0.312-1.897,0.562-2.76,0.75l-0.259-1.97
	l3.019-0.655v-4.97L295.336,144.844L295.336,144.844z M301.648,109.75v-1.781h7.331v1.781h-2.501v15.562
	c0.114,1.625-0.689,2.469-2.415,2.531c-0.461,0-1.065,0-1.812,0c0-0.501-0.116-1.125-0.345-1.875
	c0.69,0.062,1.264,0.094,1.725,0.094c0.862,0.062,1.264-0.343,1.207-1.219V109.75H301.648z M301.978,159.562v-1.594h7.245
	c1.554-5.687,2.559-9.687,3.02-12l1.812,0.469c-1.38,5.188-2.415,9.032-3.104,11.531h5.089v1.594H301.978z M303.185,144.094v-1.781
	h5.692c-0.172-0.562-0.431-1.405-0.776-2.53c-0.173-0.5-0.289-0.874-0.345-1.125l1.726-0.375c0.172,0.562,0.459,1.376,0.861,2.438
	c0.115,0.563,0.229,0.97,0.345,1.22l-1.639,0.375h6.296v1.78L303.185,144.094L303.185,144.094z M306.118,156.094
	c-0.69-3.874-1.352-7.062-1.984-9.562l1.639-0.469c0.115,0.5,0.287,1.25,0.518,2.25c0.69,3,1.208,5.406,1.553,7.219L306.118,156.094
	z M321.312,128.407c-1.034-0.938-2.817-2.499-5.348-4.688c0.115,0.126,0,0.032-0.345-0.281c-0.748,2.063-2.962,3.845-6.642,5.345
	c-0.345-0.626-0.689-1.188-1.034-1.688c2.875-1.062,4.714-2.188,5.52-3.375c0.919-1.187,1.38-3.219,1.38-6.094l0.086-2.156h1.64
	l-0.086,2.156c0,1.563-0.116,2.969-0.346,4.219c0.69,0.563,1.753,1.438,3.191,2.625c1.495,1.188,2.559,2.03,3.192,2.531
	L321.312,128.407z M309.669,109.094v-1.688h12.594v1.688h-5.865l-0.69,3.094h5.607v11.344h-1.64v-9.75h-7.935v9.844h-1.726v-11.438
	h3.968l0.689-3.094H309.669z M319.067,144.75v-1.688h2.587v-4.688h1.639v4.688h2.156v1.688h-2.156v4.125
	c0.633-0.375,1.294-0.688,1.984-0.938c0,0.875,0.027,1.5,0.086,1.875h14.23v1.5h-6.21v2.625h5.435v1.5h-5.435v2.905h0.086
	c1.897,0,4.024,0,6.383,0c-0.173,0.563-0.315,1.093-0.432,1.595c-2.242,0-4.397,0-6.469,0c-2.53-0.063-4.284-1.095-5.261-3.095
	c-0.461,1.313-1.294,2.593-2.501,3.845c-0.116-0.127-0.317-0.281-0.604-0.47c-0.288-0.25-0.518-0.438-0.688-0.562
	c1.896-1.812,2.933-4.28,3.104-7.406l1.553,0.281c-0.058,0.812-0.173,1.562-0.345,2.25c0.919,2.126,2.098,3.249,3.536,3.375v-6.845
	h-6.469v-1.5c-0.69,0.25-1.353,0.563-1.984,0.938v7.031c0.057,1.688-0.661,2.562-2.156,2.625c-0.575,0.062-1.121,0.094-1.639,0.094
	c-0.058-0.75-0.172-1.375-0.345-1.875c0.4,0,0.891,0,1.467,0c0.688,0.062,1.034-0.313,1.034-1.125v-6.094l-2.675,1.219l-0.172-1.969
	c0.287-0.125,0.776-0.312,1.467-0.563c0.573-0.249,1.034-0.437,1.38-0.562v-4.781h-2.586V144.75z M326.587,121.282
	c-0.173,0-0.289,0-0.346,0l-0.604-1.688c0.401-0.188,0.919-0.75,1.554-1.688c0.632-0.812,1.264-1.781,1.896-2.906
	c-1.151,0.063-2.242,0.157-3.277,0.281l-0.518-1.688c0.345-0.375,0.746-0.968,1.207-1.781c0.805-1.313,1.695-3.094,2.674-5.344
	l1.727,0.656c-0.06,0.126-0.146,0.281-0.26,0.469c-1.438,2.625-2.56,4.594-3.363,5.906c0.229,0,0.632,0,1.208,0
	c0.746-0.062,1.293-0.094,1.639-0.094c0.172-0.312,0.431-0.781,0.776-1.406c0.286-0.563,0.518-0.999,0.688-1.313l1.553,0.75
	c-1.093,1.875-2.79,4.532-5.089,7.969c0.401,0,1.035-0.062,1.897-0.188c0.978-0.062,1.695-0.125,2.156-0.188
	c-0.116,0.75-0.174,1.282-0.174,1.594C330.093,120.812,328.312,121.033,326.587,121.282L326.587,121.282z M331.848,125.22
	c-2.014,0.313-4.054,0.72-6.123,1.22l-0.346-1.688c0.69-0.125,1.868-0.375,3.536-0.75c1.265-0.249,2.243-0.437,2.933-0.563
	C331.848,124.001,331.848,124.596,331.848,125.22L331.848,125.22z M326.916,147.844v-8.438h10.954v8.438H326.916z M328.555,140.812
	v2.063h7.677v-2.063H328.555z M328.555,144.281v2.062h7.677v-2.062H328.555z M340.646,124.657c-1.381,1.437-3.05,2.78-5.004,4.03
	c-0.229-0.312-0.604-0.844-1.12-1.594c2.241-1.25,3.881-2.531,4.915-3.844c-1.438-1.938-2.529-4.219-3.276-6.844
	c-0.172,4.688-1.496,8.658-3.968,11.906c-0.115-0.125-0.346-0.345-0.689-0.655c-0.288-0.313-0.518-0.532-0.689-0.656
	c1.494-1.937,2.502-3.938,3.02-6c0.573-2.063,0.862-5.157,0.862-9.282v-2.438h-1.812v-1.688h10.608v1.781l-2.069,4.688h3.622v1.688
	c-0.806,2.938-1.896,5.438-3.277,7.5c1.207,1.312,2.702,2.438,4.485,3.375c-0.346,0.562-0.69,1.155-1.035,1.781
	C343.376,127.156,341.853,125.908,340.646,124.657L340.646,124.657z M336.333,111.063c0,0.501,0,1.031,0,1.594
	c1.092,3.938,2.501,7,4.226,9.188c1.093-1.688,2.014-3.718,2.762-6.094h-3.623v-1.781l2.069-4.688h-5.434V111.063L336.333,111.063z
	 M345.223,154.594l1.294-1.125l4.484,5.344l-1.38,1.313L345.223,154.594z M349.896,128.407v-18.282h2.328
	c0.173-0.624,0.401-1.531,0.689-2.719c0.115-0.5,0.201-0.844,0.259-1.031l1.812,0.281c-0.346,1.375-0.662,2.531-0.949,3.469h4.054
	v18.094h-1.725v-1.781h-4.744v1.97H349.896z M351.62,111.813v5.625h4.744v-5.625H351.62z M351.62,119.125v5.719h4.744v-5.719H351.62
	z M365.162,128.22c-1.208,0-2.415,0-3.623,0c-0.058-0.251-0.115-0.626-0.172-1.125c-0.116-0.312-0.173-0.562-0.173-0.75
	c1.092,0,2.241,0,3.449,0c1.667,0.124,2.501-0.688,2.501-2.438c0.174-5.563,0.26-9.594,0.26-12.094h-5.521
	c-0.575,1.375-1.149,2.625-1.725,3.75c-0.461-0.375-0.948-0.718-1.466-1.031c1.207-2.124,2.271-4.875,3.189-8.25l1.727,0.469
	c-0.116,0.501-0.316,1.188-0.604,2.063c-0.229,0.563-0.375,0.97-0.432,1.219h6.642c0,0.313,0,0.813,0,1.5
	c-0.116,5.813-0.229,10.031-0.346,12.656C368.812,126.812,367.577,128.156,365.162,128.22L365.162,128.22z M363.695,121.657
	c-1.035-1.688-2.128-3.343-3.277-4.969l1.294-1.031c0.172,0.25,0.46,0.625,0.862,1.125c1.092,1.562,1.954,2.812,2.588,3.75
	L363.695,121.657z"/>
<path fill="#FFFFFF" d="M60.636,86.411V64.848c-0.781,1.558-1.616,3.175-2.507,4.852c-0.334-2.274-0.781-4.492-1.337-6.648
	c2.784-5.391,4.901-11.859,6.35-19.406l4.512,0.719c-0.893,3.354-1.838,6.589-2.841,9.703v32.344L60.636,86.411L60.636,86.411z
	 M76.679,57.481v-3.773h7.019v-2.695H78.35V47.24h5.348v-3.594h4.178v3.594h7.353v6.469H97.4v3.773h-2.172v6.469h-7.353v2.695h7.854
	v3.773h-7.854v2.695h8.355v3.594h-8.355v4.313c3.452,0,6.684,0,9.692,0c0,0.121-0.112,0.359-0.334,0.719
	c-0.446,1.676-0.781,2.875-1.002,3.594c-5.794,0-9.75-0.062-11.865-0.18c-5.906-0.242-9.972-1.558-12.199-3.953
	c-1.115,1.676-2.619,3.532-4.512,5.57c-0.112-0.359-0.392-0.898-0.835-1.617c-0.668-1.078-1.17-1.977-1.504-2.695
	c1.671-1.555,3.008-3.172,4.011-4.852c-1.449-2.274-2.564-5.211-3.342-8.805l3.008-2.156c0.556,2.398,1.279,4.492,2.172,6.289
	c0.668-2.274,1.112-5.031,1.337-8.266H66.82v-4.492l5.347-8.625h-4.679v-4.312h9.191v4.492l-5.181,8.445h5.013v1.797
	c-0.334,7.07-1.169,12.16-2.506,15.273c2.005,2.277,5.235,3.476,9.692,3.594v-4.133h-6.852v-3.594h6.852v-2.695h-6.016v-3.773h6.016
	V63.95h-5.515v-3.594h5.515v-2.875H76.679z M91.384,51.012h-3.509v2.695h3.509V51.012z M87.875,60.356h3.509v-2.875h-3.509V60.356z
	 M132.429,85.872c-2.339,0-4.736,0-7.186,0c-0.225-1.438-0.501-2.937-0.835-4.492c1.893,0,3.953,0,6.183,0
	c2.227,0,3.285-0.958,3.175-2.875v-4.133c-6.909,4.313-16.042,8.266-27.406,11.859c-0.225-0.719-0.726-1.917-1.504-3.594
	c-0.334-0.48-0.559-0.898-0.668-1.258c8.577-1.915,15.93-4.551,22.058-7.906h-21.724v-4.492h4.846V47.778h9.358
	c0.11-0.477,0.334-1.196,0.668-2.156c0.222-0.958,0.389-1.676,0.501-2.156l5.682,0.539l-1.504,3.773h14.372v17.609
	c0.222-0.118,0.556-0.359,1.002-0.719c0.556-0.359,1.447-1.078,2.674-2.156l2.507,4.133c-2.005,1.558-4.068,3.055-6.183,4.492v8.445
	C138.667,83.774,136.661,85.872,132.429,85.872L132.429,85.872z M114.214,52.09v3.234h19.552V52.09H114.214z M114.214,58.918v3.234
	h19.552v-3.234H114.214z M114.214,65.747v3.234h19.385h0.167v-3.234H114.214z M153.243,74.731v-23h15.375v-8.266h5.347v8.266h15.542
	v22.82h-5.348v-2.336h-10.194V86.77h-5.347V72.215h-10.027v2.516H153.243z M158.591,56.942v10.063h10.027V56.942H158.591z
	 M184.159,56.942h-10.194v10.063h10.194V56.942z M206.487,61.973c-1.449,6.351-2.673,11.082-3.676,14.195
	c-1.002-0.477-2.674-1.137-5.013-1.977c1.446-4.192,3.008-9.883,4.679-17.07l4.846,1.617
	C207.098,59.458,206.821,60.536,206.487,61.973L206.487,61.973z M215.845,85.153c-4.792,0.118-7.131-2.336-7.019-7.367V53.348h5.347
	v23.18c-0.112,2.516,1.003,3.714,3.342,3.594h4.512c2.115,0.121,3.397-1.016,3.843-3.414c0.334-1.797,0.556-3.773,0.668-5.93
	c1.893,0.719,3.676,1.378,5.348,1.977c-0.225,2.757-0.668,5.211-1.337,7.367c-0.668,3.353-3.175,5.031-7.52,5.031H215.845z
	 M222.195,57.301c-4.011-4.071-7.353-7.367-10.026-9.883l3.509-3.953c3.564,3.117,6.961,6.23,10.193,9.344L222.195,57.301z
	 M234.06,73.293c-1.562-3.711-3.956-8.563-7.186-14.555l4.679-2.516c0.444,0.839,0.611,1.14,0.501,0.898
	c3.452,6.351,5.737,10.781,6.852,13.297L234.06,73.293z"/>
<path fill="#79D4FB" d="M272.013,35.661c-0.174-0.188-0.523-0.53-1.046-1.031c-0.292-0.312-0.495-0.53-0.61-0.656
	c-0.698,1-1.831,2.281-3.4,3.844c-0.117-0.126-0.32-0.375-0.61-0.75c-0.408-0.625-0.728-1.063-0.959-1.313
	c1.452-1.187,2.557-2.375,3.313-3.563c-0.989-1.062-1.918-2-2.79-2.813c0.464-2.187,0.872-4.531,1.221-7.031h-1.482v-2.25h1.744
	c0.174-1.437,0.349-2.937,0.523-4.5l2.354,0.281l-0.61,4.219h3.662v2.156c-0.233,4.188-0.815,7.345-1.744,9.469l2.005,1.969
	L272.013,35.661z M269.833,30.036c0.698-1.688,1.134-4.25,1.308-7.688h-1.831c-0.117,1.125-0.379,2.719-0.785,4.781
	c-0.117,0.688-0.205,1.188-0.262,1.5L269.833,30.036L269.833,30.036z M273.932,27.692v-2.25h12.032v2.25h-4.883l-0.087,1.969h5.58
	v2.438h-4.883c0.929,1.688,2.645,2.813,5.144,3.375c-0.582,1.062-1.018,1.906-1.308,2.531c-2.849-1.188-4.738-2.75-5.667-4.688
	c-0.756,1.938-2.849,3.563-6.278,4.875c-0.466-0.876-0.93-1.688-1.395-2.438c3.139-0.875,5.057-2.093,5.754-3.656h-4.708V29.66
	h5.231c0.116-0.563,0.174-1.219,0.174-1.969L273.932,27.692L273.932,27.692z M274.455,23.755V16.63h10.985v7.125H274.455z
	 M276.809,18.974v2.531h6.19v-2.531H276.809z M297.097,30.317c-1.687,2.625-3.343,4.844-4.97,6.656
	c-0.756-0.75-1.454-1.313-2.093-1.688c1.569-1.688,3.167-3.812,4.795-6.375L297.097,30.317L297.097,30.317z M291.43,28.067
	l1.133-10.781c4.999,0,10.346-0.281,16.042-0.844l0.784,2.625c-4.302,0.438-9.098,0.719-14.386,0.844l-0.61,5.531h5.231v-4.406h2.79
	v4.406h7.759v2.625h-7.759v6.188c0.116,2.375-0.902,3.53-3.052,3.469c-1.164,0.125-2.238,0.188-3.226,0.188
	c-0.059-0.375-0.174-1.063-0.349-2.063c-0.059-0.313-0.117-0.563-0.174-0.75c0.755,0.063,1.657,0.094,2.703,0.094
	c0.929,0.063,1.365-0.469,1.308-1.594v-5.531L291.43,28.067L291.43,28.067z M308.867,36.88c-1.338-1.812-2.907-3.938-4.708-6.375
	l2.005-1.5c1.278,1.5,2.964,3.595,5.057,6.281L308.867,36.88z M318.945,35.38c-0.467,0.563-0.872,1.093-1.222,1.594l-1.655-1.969
	c0.522-0.624,0.754-1.343,0.696-2.156v-7.125h-2.18v-2.625h4.708v8.625l1.918-2.156c0.115,0.501,0.349,1.188,0.697,2.063
	c0.058,0.25,0.116,0.438,0.175,0.563C321.386,32.881,320.34,33.943,318.945,35.38L318.945,35.38z M318.684,21.505
	c-0.931-1.374-1.918-2.813-2.964-4.313l2.268-1.406c0.23,0.313,0.552,0.75,0.959,1.313c0.405,0.501,1.104,1.438,2.092,2.813
	L318.684,21.505z M327.925,35.286c-1.802,1.062-4.04,1.999-6.713,2.813c-0.117-0.25-0.349-0.656-0.697-1.219
	c-0.292-0.563-0.522-0.97-0.697-1.219c2.44-0.624,4.417-1.343,5.928-2.156c-1.22-1.313-2.354-2.968-3.399-4.969l1.133-0.75h-1.83
	v-2.438h12.556v2.625c-1.105,2.188-2.472,4.031-4.099,5.531c1.686,0.938,3.545,1.563,5.579,1.875
	c-0.406,0.812-0.843,1.655-1.308,2.531C331.762,37.098,329.61,36.224,327.925,35.286L327.925,35.286z M325.92,19.536
	c0.175,2.188-0.989,3.938-3.487,5.25c-0.522-0.563-1.134-1.219-1.831-1.969c2.094-0.938,3.053-2.312,2.878-4.125v-2.156h9.415v3.75
	c-0.059,0.813,0.319,1.188,1.135,1.125h1.831l-0.437,2.531h-2.529c-1.687,0-2.527-0.812-2.527-2.438v-2.438h-4.446L325.92,19.536
	L325.92,19.536z M324.699,27.786c0.872,1.688,1.947,3.094,3.226,4.219c1.162-0.938,2.324-2.344,3.488-4.219H324.699z M352.825,33.88
	v-6.656l-2.006,0.469v6c-0.06,1.125,0.465,1.688,1.568,1.688h3.837c1.047,0,1.656-0.406,1.83-1.219c0-0.125,0.029-0.312,0.088-0.563
	c0.115-0.624,0.203-1.093,0.263-1.406c0.639,0.313,1.308,0.563,2.005,0.75c-0.06,0.563-0.204,1.251-0.437,2.063
	c-0.059,0.25-0.088,0.405-0.088,0.469c-0.231,1.374-1.278,2.03-3.139,1.969h-5.318c-1.918,0.062-2.849-0.938-2.79-3v-6.281
	l-1.046,0.188l-0.175-2.25l1.221-0.281v-2.25l-0.262,0.281c-0.521-0.687-1.104-1.313-1.743-1.875l0.263-0.281h-3.662
	c0,1,0,1.969,0,2.906h3.836c0,0.625-0.03,1.594-0.087,2.906c-0.06,3.126-0.117,5.282-0.176,6.469
	c0.059,2.25-0.783,3.406-2.527,3.469c-0.581,0-1.191,0.031-1.831,0.094c-0.06-0.188-0.117-0.438-0.174-0.75
	c-0.176-0.688-0.292-1.157-0.35-1.406c-0.292,0.687-0.698,1.562-1.221,2.625c-0.582-0.625-1.164-1.251-1.744-1.875
	c1.278-2.124,1.947-5.25,2.005-9.375c0-0.5,0-1.28,0-2.344c0.059-1.187,0.088-2.093,0.088-2.719h-1.568v-2.438h3.312
	c-0.059-0.375-0.174-0.938-0.349-1.688c-0.174-0.687-0.32-1.219-0.437-1.594l2.528-0.281c0.231,1,0.465,2.188,0.697,3.563h2.18
	v1.875c1.221-1.625,2.18-3.437,2.877-5.438l2.616,0.094c-0.292,0.876-0.61,1.688-0.959,2.438h8.195v2.344h-9.504
	c-0.466,0.938-1.047,1.813-1.743,2.625h1.918v2.063l2.006-0.375v-3.656h2.18v3.094l4.359-0.938c0,2.25-0.06,4.282-0.175,6.094
	c-0.06,1.626-0.642,2.5-1.744,2.625c-0.407,0.063-1.046,0.094-1.918,0.094c-0.175-0.688-0.32-1.406-0.437-2.156
	c0.406,0,0.784,0,1.134,0c0.58,0,0.9-0.312,0.959-0.938c0.058-0.5,0.088-1.468,0.088-2.906l-2.268,0.562v7.125h-2.178V33.88z
	 M344.804,30.317c0.058-1.625,0.087-2.78,0.087-3.469h-1.742c-0.06,3.688-0.438,6.469-1.135,8.344c0.465,0,0.959,0,1.482,0
	c0.812,0.063,1.221-0.437,1.221-1.5C344.773,33.13,344.804,32.005,344.804,30.317L344.804,30.317z"/>
</svg>
