<?xml version="1.0" encoding="utf-8"?>
<!-- Generator: Adobe Illustrator 16.0.0, SVG Export Plug-In . SVG Version: 6.00 Build 0)  -->
<!DOCTYPE svg PUBLIC "-//W3C//DTD SVG 1.1//EN" "http://www.w3.org/Graphics/SVG/1.1/DTD/svg11.dtd">
<svg version="1.1" id="图层_1" xmlns="http://www.w3.org/2000/svg" xmlns:xlink="http://www.w3.org/1999/xlink" x="0px" y="0px"
	 width="640px" height="588.665px" viewBox="0 -378.165 640 588.665" enable-background="new 0 -378.165 640 588.665"
	 xml:space="preserve">
<path fill="#43CFB2" d="M386.721,31.682v3.002h-11.329c0.122-1.135,0.49-2.21,1.104-3.227s1.825-2.364,3.635-4.043
	c1.457-1.357,2.352-2.277,2.682-2.761c0.443-0.667,0.666-1.327,0.666-1.978c0-0.721-0.193-1.275-0.58-1.662
	c-0.389-0.387-0.923-0.581-1.604-0.581c-0.675,0-1.212,0.203-1.61,0.609c-0.397,0.407-0.629,1.082-0.689,2.024l-3.221-0.322
	c0.191-1.779,0.794-3.056,1.806-3.831c1.013-0.774,2.278-1.162,3.796-1.162c1.664,0,2.972,0.449,3.923,1.346
	c0.95,0.897,1.426,2.013,1.426,3.347c0,0.759-0.136,1.482-0.407,2.168c-0.272,0.686-0.704,1.405-1.294,2.157
	c-0.393,0.499-1.098,1.215-2.116,2.151c-1.021,0.936-1.666,1.557-1.938,1.863c-0.271,0.306-0.492,0.606-0.661,0.897h6.414V31.682z"
	/>
<path fill="#FFFFFF" d="M66.11,124.906c-1.208-1.749-2.445-3.344-3.709-4.781c-0.289,4.562-1.697,8.625-4.227,12.188
	c-0.172-0.188-0.517-0.5-1.035-0.938c-0.23-0.188-0.403-0.345-0.518-0.469c2.702-3.375,4.14-8.156,4.313-14.344
	c0-0.125,0-0.249,0-0.375c0.114-2.312,0.172-4.187,0.172-5.625h1.812c0,2.063-0.086,4.345-0.259,6.844l-0.086,0.938l0.345-0.375
	c1.667,1.938,3.162,3.75,4.485,5.438L66.11,124.906z M60.073,159.718c-0.345,1.563-1.035,3.188-2.07,4.875l-1.38-1.125
	c0.919-1.438,1.523-2.874,1.811-4.312c0.287-1.374,0.432-3.47,0.432-6.281v-8.156h8.28c-0.23-0.75-0.518-1.5-0.862-2.25l1.897-0.28
	c0.114,0.25,0.345,0.812,0.69,1.688c0.115,0.375,0.201,0.656,0.259,0.844h7.159v5.625H60.59v2.438
	C60.59,155.844,60.417,158.156,60.073,159.718L60.073,159.718z M56.795,190.499v-1.875h15.267v1.875H56.795z M71.026,196.218
	c-1.208,0.062-2.76,0.095-4.657,0.095c-0.058-0.688-0.173-1.406-0.345-2.156c1.264,0.123,2.76,0.188,4.485,0.188
	c2.07,0.124,3.133-0.688,3.191-2.438c0.172-2.312,0.315-4.594,0.431-6.844H59.986l0.949-10.781h1.812l-0.345,3.375h15.007v1.875
	H62.315l-0.345,3.75h14.145c0,0.312-0.03,0.812-0.086,1.5c-0.172,3.438-0.345,5.906-0.518,7.404
	C75.396,194.936,73.901,196.279,71.026,196.218L71.026,196.218z M61.021,154.468v-1.594h7.417c-0.058-0.249-0.145-0.624-0.259-1.125
	c-0.116-0.312-0.202-0.563-0.259-0.75l1.811-0.281l0.518,2.156h7.245v1.594H66.542c0,0.876-0.03,1.657-0.086,2.345h8.884
	c0,0.625-0.058,1.75-0.173,3.375c-0.058,0.375-0.086,0.625-0.086,0.75c-0.116,2.123-1.208,3.188-3.278,3.188
	c-1.035,0-2.099,0-3.191,0c0-0.126-0.03-0.344-0.086-0.656c-0.116-0.501-0.202-0.876-0.258-1.125
	c0.804,0.062,1.811,0.094,3.019,0.094c1.38,0.062,2.098-0.529,2.156-1.78c0-0.188,0-0.53,0-1.031
	c0.057-0.624,0.086-1.062,0.086-1.313h-7.331c-0.172,2.438-1.725,4.595-4.658,6.47c-0.23-0.313-0.633-0.782-1.208-1.406
	c1.84-1.188,3.019-2.344,3.537-3.469c0.632-1.125,0.949-2.938,0.949-5.438L61.021,154.468L61.021,154.468z M60.59,146.312v2.53
	h13.973v-2.53H60.59z M70.509,120.406c-0.403,4.562-2.444,8.625-6.124,12.188c-0.461-0.562-0.949-1.062-1.466-1.5
	c4.254-3.688,6.411-8.531,6.469-14.532c0.114-2.625,0.172-4.655,0.172-6.094h1.811c0,0.438,0,1.157,0,2.156
	c-0.058,1-0.086,1.75-0.086,2.25c0.402,7.626,2.558,12.876,6.469,15.75c-0.288,0.312-0.633,0.75-1.035,1.313
	c-0.116,0.188-0.202,0.312-0.259,0.375C73.125,129.438,71.141,125.469,70.509,120.406L70.509,120.406z M80.656,180.468v-1.688h2.674
	v-4.5h1.639v4.5h2.415v1.688h-2.415v2.531l0.259-0.375c0.229,0.25,0.632,0.625,1.208,1.125c0.747,0.688,1.293,1.219,1.639,1.594
	l-0.518,0.563c2.299-0.75,4.11-1.562,5.434-2.438c-0.979-0.938-1.812-2.094-2.501-3.469c-0.633,0.876-1.352,1.75-2.156,2.625
	c-0.23-0.437-0.576-0.875-1.035-1.313c1.897-2,3.364-4.344,4.399-7.03l1.725,0.28c-0.289,0.75-0.604,1.438-0.949,2.063h7.503v1.688
	c-1.208,2.25-2.587,4-4.14,5.25c1.494,0.938,3.306,1.625,5.434,2.062c-0.058,0.188-0.145,0.501-0.259,0.938
	c-0.172,0.438-0.289,0.75-0.345,0.938c-2.531-0.812-4.629-1.78-6.296-2.905c-1.783,1.188-3.997,2.219-6.642,3.094
	c0-0.062-0.029-0.155-0.086-0.281c-0.116-0.249-0.289-0.563-0.518-0.938l-0.172,0.281c-0.461-0.563-1.122-1.313-1.984-2.25v12.188
	H83.33v-12.469c-0.633,2.375-1.496,4.562-2.587,6.562c-0.173-0.437-0.345-1.093-0.518-1.968c-0.058-0.188-0.086-0.313-0.086-0.377
	c1.322-2.311,2.357-4.968,3.105-7.968h-2.588V180.468z M87.125,126.781c-0.576-0.938-1.266-1.969-2.07-3.094v8.905h-1.553V123.5
	c-0.69,2.376-1.582,4.312-2.674,5.812c-0.058-0.312-0.23-0.844-0.518-1.594c-0.058-0.125-0.086-0.219-0.086-0.281
	c1.322-1.812,2.385-4.187,3.191-7.125h-2.933v-1.594h3.019v-8.344h1.553v8.344h2.673v1.594h-2.673v2.719l0.776-0.75
	c0.402,0.501,1.063,1.375,1.984,2.625c0.287,0.375,0.488,0.655,0.604,0.844L87.125,126.781z M81.777,117.406
	c-0.345-1.374-0.834-2.906-1.466-4.594l1.122-0.375c0.632,1.5,1.149,3,1.552,4.5L81.777,117.406z M86.435,160.562
	c0,2.187-0.748,3.812-2.243,4.875l-0.776-0.845c1.035-0.812,1.581-2.03,1.639-3.655h-1.466v-3.095h2.846
	C86.435,158.344,86.435,159.249,86.435,160.562L86.435,160.562z M87.47,115.062c-0.345,1.125-0.604,1.907-0.776,2.344l-1.208-0.563
	c0.632-1.5,1.178-2.968,1.639-4.406l1.121,0.375C88.13,113.25,87.871,114,87.47,115.062L87.47,115.062z M88.763,113.656v-1.313
	h5.002v-2.063h1.553v2.063h5.52v1.313h-5.52v1.688h5.002v1.313h-5.002v1.688h5.865v1.406H88.418v-1.406h5.347v-1.688h-4.571v-1.313
	h4.571v-1.688H88.763z M88.936,196.688v-8.721h10.695v8.721h-1.725v-1.313h-7.331v1.313H88.936z M89.194,132.594V121.25H99.89v8.531
	c0.057,1.749-0.748,2.625-2.415,2.625c-0.23,0-0.633,0-1.208,0c-0.69,0.062-1.208,0.094-1.553,0.094
	c-0.058-0.562-0.172-1.125-0.345-1.688c0.574,0.062,1.437,0.094,2.587,0.094c0.977,0.062,1.437-0.346,1.38-1.219v-1.031h-7.59v3.938
	H89.194z M90.575,189.562v4.405h7.331v-4.405H90.575z M90.747,122.656v1.688h7.59v-1.688H90.747z M90.747,125.656v1.781h7.59v-1.781
	H90.747z M94.37,182.53c1.437-1.125,2.644-2.563,3.623-4.313h-6.469l-0.086,0.282C92.127,179.999,93.104,181.344,94.37,182.53
	L94.37,182.53z M104.344,125.375v-1.688h3.795v-2.625h1.639v2.625h3.881v1.688h-3.881v3.75c1.495-0.188,2.875-0.375,4.14-0.562
	c0,0.625,0,1.156,0,1.594c-0.69,0.062-0.92,0.094-0.69,0.094c-3.795,0.438-6.872,0.844-9.229,1.219l-0.259-1.781
	c0.402,0,1.063-0.062,1.984-0.188c1.035-0.062,1.839-0.125,2.415-0.188v-3.938L104.344,125.375L104.344,125.375z M119.783,196.124
	c-0.748,0.062-1.897,0.094-3.45,0.094c-0.116-0.813-0.259-1.438-0.431-1.875c0.919,0.062,2.07,0.095,3.45,0.095
	c1.552,0.123,2.329-0.719,2.329-2.531c0.114-1.313,0.172-3.563,0.172-6.75h-14.145c0.115,4.75-0.72,8.531-2.501,11.344
	c-0.116-0.126-0.317-0.346-0.604-0.656c-0.345-0.312-0.604-0.562-0.776-0.75c0.919-1.562,1.523-3.062,1.812-4.5
	c0.287-1.374,0.431-3.529,0.431-6.469V175.5h16.646v5.906h-15.007v2.156h15.87c0,2.25-0.086,5.125-0.259,8.623
	C123.375,194.873,122.198,196.186,119.783,196.124L119.783,196.124z M104.085,113.187V111.5h9.833v1.688h-4.571
	c-0.633,1.438-1.583,3.188-2.846,5.25c0.747-0.062,1.781-0.125,3.105-0.188c0.69-0.062,1.208-0.094,1.552-0.094
	c-0.172-0.312-0.403-0.718-0.69-1.219c-0.345-0.563-0.604-0.968-0.776-1.219l1.38-0.844c0.287,0.563,0.718,1.345,1.293,2.344
	c0.805,1.375,1.408,2.438,1.812,3.188l-1.38,0.938c-0.23-0.562-0.518-1.125-0.862-1.688c-2.415,0.126-4.342,0.25-5.779,0.375
	c-0.116,0-0.259,0.032-0.431,0.094c-0.461,0-0.806,0.063-1.035,0.188l-0.604-1.594c0.401-0.249,0.804-0.687,1.208-1.312
	c0.747-1.125,1.495-2.531,2.242-4.219H104.085z M104.085,145.093v-1.5h10.695v1.5h-3.105v3.188h2.76V164.5h-1.466v-1.406h-6.9v1.406
	h-1.466v-16.22h2.674v-3.188L104.085,145.093L104.085,145.093z M105.896,149.688v5.812c1.264-1.125,1.812-2.874,1.639-5.25v-0.562
	H105.896z M108.743,150.249c0.172,2.751-0.403,4.781-1.725,6.094c-0.116-0.062-0.289-0.188-0.518-0.375
	c-0.23-0.188-0.403-0.312-0.518-0.375h0.086v2.063h6.9v-2.344h-1.035c-1.151,0-1.725-0.656-1.725-1.97v-3.655h-1.466
	L108.743,150.249L108.743,150.249z M106.069,159.062v2.719h6.9v-2.719H106.069z M107.708,177.093v2.813h13.283v-2.813H107.708z
	 M108.743,145.093v3.188h1.466v-3.188H108.743z M109.605,193.218v-6h9.315v6H109.605z M111.244,188.718v2.999h6.124v-2.999H111.244z
	 M113.055,149.688h-1.639v3.188c-0.058,0.812,0.287,1.188,1.035,1.125h0.604V149.688z M124.354,131.562
	c-0.289,0.5-0.518,0.875-0.69,1.125c-2.3-1.812-3.853-3.28-4.658-4.405c-1.323,1.562-2.962,3.094-4.916,4.594
	c-0.116-0.188-0.317-0.438-0.604-0.75c-0.345-0.375-0.575-0.656-0.69-0.844c2.243-1.438,3.968-2.968,5.175-4.595
	c-1.035-1.875-1.812-4.405-2.329-7.594c-0.116,0.188-0.288,0.438-0.517,0.75c-0.23,0.375-0.403,0.657-0.518,0.844
	c-0.116-0.249-0.403-0.718-0.863-1.406c-0.058-0.062-0.116-0.125-0.172-0.188c1.667-2.562,2.875-5.531,3.623-8.906l1.725,0.281
	c-0.345,1.375-0.748,2.688-1.208,3.938h6.813v1.781h-1.639c-0.461,4.625-1.41,8.125-2.846,10.5c0.977,1.5,2.558,2.905,4.744,4.219
	C124.727,131.03,124.583,131.249,124.354,131.562L124.354,131.562z M119.179,163.938c-1.897,0.062-2.818-0.906-2.76-2.906v-9.563
	h5.52v-6.188h-5.865v-1.688h7.417v9.562h-5.52v7.5c-0.058,1.125,0.518,1.656,1.725,1.595h1.208c1.149,0.062,1.811-0.437,1.983-1.5
	c0-0.312,0.057-0.78,0.173-1.406c0.057-0.812,0.114-1.437,0.172-1.875c0.172,0.063,0.431,0.157,0.776,0.281
	c0.345,0.126,0.574,0.22,0.69,0.28c-0.058,1.377-0.172,2.471-0.345,3.281c-0.23,1.875-1.293,2.75-3.191,2.625h-1.983V163.938z
	 M116.764,116.75c0.518,3.75,1.264,6.532,2.242,8.344c1.15-2.062,1.897-5.03,2.243-8.907h-4.226
	C116.964,116.375,116.878,116.562,116.764,116.75L116.764,116.75z M127.946,146.218v-1.5h7.59c0.518-0.812,0.919-1.688,1.208-2.625
	l1.812,0.281c-0.345,0.813-0.69,1.594-1.035,2.344h10.091v1.5h-6.382c1.552,1.938,3.881,3.251,6.986,3.938
	c-0.116,0.188-0.289,0.562-0.518,1.125c-0.116,0.251-0.202,0.438-0.259,0.562c-1.783-0.623-3.277-1.312-4.485-2.062v0.656h-9.66
	v1.688h11.126v1.312h-11.126v1.688h11.212v1.313h-11.212v1.688h14.576v1.5h-5.951c0.229,0.188,0.546,0.469,0.949,0.844
	c1.495,1.313,2.674,2.375,3.536,3.188l-1.38,1.125l-1.294-1.406c-4.601,0.125-8.396,0.249-11.384,0.375
	c-0.23,0.062-0.576,0.095-1.035,0.095c-0.461,0.062-0.806,0.094-1.035,0.094l-0.604-1.5c0.518-0.188,0.977-0.375,1.38-0.563
	c1.035-0.75,1.897-1.5,2.587-2.25h-5.951v-1.5h3.967v-7.688c-0.633,0.438-1.754,1.031-3.363,1.781
	c1.207-0.562,1.121-0.529-0.259,0.094c-0.231-0.562-0.518-1.092-0.863-1.594c3.277-1.187,5.692-2.687,7.245-4.5h-6.469V146.218z
	 M128.118,131.375V112.25h7.245v18.844h-1.639v-1.688h-3.968v1.969H128.118z M129.757,113.937v6.094h3.968v-6.094H129.757z
	 M129.757,121.625v6.094h3.968v-6.094H129.757z M133.466,192.562c0,2.187-0.748,3.812-2.243,4.875l-0.776-0.845
	c1.035-0.812,1.581-2.032,1.639-3.655h-1.466v-3.096h2.846C133.466,190.344,133.466,191.248,133.466,192.562L133.466,192.562z
	 M135.967,159.624c-0.978,0.938-2.07,1.813-3.277,2.625c0.919,0,2.385-0.032,4.399-0.094c2.415-0.063,4.168-0.126,5.261-0.188
	l-1.897-1.594l0.863-0.75L135.967,159.624L135.967,159.624z M136.571,146.218c-0.863,1.188-1.812,2.126-2.846,2.813h8.28
	c-0.863-0.624-1.725-1.562-2.587-2.813H136.571z M136.484,116.937v-1.781h7.331v-4.875h1.725v4.875h2.674v1.781h-2.674v12.188
	c0.057,2.062-0.949,3.124-3.019,3.188c-0.979,0-2.07,0-3.277,0c-0.058-0.25-0.145-0.625-0.259-1.125
	c-0.058-0.375-0.116-0.655-0.172-0.844c0.574,0.062,1.608,0.094,3.104,0.094c1.322,0.062,1.954-0.562,1.897-1.875v-11.625
	L136.484,116.937L136.484,116.937z M139.676,125.469c-0.461-1.062-1.151-2.469-2.07-4.219c-0.23-0.438-0.403-0.781-0.518-1.031
	l1.38-0.844c0.345,0.563,0.805,1.407,1.38,2.532c0.632,1.125,1.091,1.969,1.379,2.53L139.676,125.469z M153.79,185.249
	c-0.345-0.375-0.862-0.938-1.553-1.688c-0.69-0.75-1.179-1.25-1.466-1.5l1.208-1.125c0.401,0.375,0.977,0.938,1.725,1.688
	c0.632,0.625,1.122,1.094,1.466,1.406L153.79,185.249z M154.825,161.968c-0.345,0.249-0.662,0.624-0.949,1.125l-1.208-1.125
	c0.345-0.437,0.518-1.03,0.518-1.78v-8.531h-2.329v-1.688h4.054v9.47c0.172-0.188,0.431-0.5,0.776-0.938
	c0.69-0.75,1.178-1.343,1.466-1.781c0.114,0.313,0.258,0.72,0.431,1.22c0.114,0.25,0.201,0.438,0.259,0.562
	C156.981,159.438,155.975,160.594,154.825,161.968L154.825,161.968z M154.739,187.967c-0.806,3.502-1.438,6.344-1.897,8.532
	l-1.725-0.563c0.747-2.812,1.408-5.686,1.984-8.623c0.287,0.125,0.718,0.312,1.293,0.562
	C154.566,187.938,154.681,187.967,154.739,187.967L154.739,187.967z M154.221,179.062c-0.058-0.062-0.172-0.188-0.345-0.377
	c-1.151-1.373-2.042-2.373-2.674-2.998l1.38-1.031c0.287,0.312,0.776,0.812,1.466,1.5c0.69,0.75,1.208,1.312,1.552,1.688
	L154.221,179.062z M152.151,132.5v-15.657h8.194v-6.562h1.811v6.562h8.194V129.5c0.057,1.812-0.834,2.719-2.674,2.719
	c-0.461,0.062-1.438,0.094-2.933,0.094c-0.058-0.312-0.144-0.75-0.258-1.312c-0.058-0.312-0.116-0.532-0.173-0.656
	c0.574,0.062,1.523,0.094,2.846,0.094c1.035,0.062,1.523-0.345,1.466-1.219v-10.688h-14.749V132.5H152.151z M155.342,147.718
	c-0.862-1.187-1.897-2.499-3.105-3.938l1.38-1.031c0.229,0.251,0.604,0.656,1.122,1.219c0.977,1.125,1.667,1.97,2.07,2.531
	L155.342,147.718z M156.377,116.093c-1.265-1.374-2.531-2.625-3.795-3.75l1.208-1.219c1.264,1.063,2.587,2.25,3.968,3.563
	L156.377,116.093z M163.968,161.499c-2.07,1.249-4.485,2.312-7.246,3.188c-0.403-0.75-0.748-1.313-1.035-1.688
	c3.334-0.938,5.606-1.843,6.814-2.719c-1.496-1.5-2.79-3.563-3.882-6.188h-0.776v-1.688h11.903v1.875
	c-1.38,2.625-2.818,4.626-4.313,6c1.322,0.938,3.392,1.719,6.21,2.344c-0.116,0.188-0.259,0.438-0.432,0.75
	c-0.288,0.562-0.461,0.904-0.517,1.031C167.819,163.468,165.577,162.498,163.968,161.499L163.968,161.499z M155.946,178.217v-1.593
	h3.967v-2.344h1.553v2.344h4.485v-2.344h1.553v2.344h3.967v1.593h-3.967v1.782h-1.553v-1.782h-4.485v1.782h-1.553v-1.782H155.946z
	 M161.466,189.562c-0.345,1.375-1.121,2.845-2.329,4.405c-0.116-0.125-0.289-0.312-0.518-0.562
	c-0.289-0.249-0.489-0.438-0.604-0.563v3.844h-1.552v-11.812h3.967c0.057-0.624,0.086-1.438,0.086-2.438h-4.571v-1.595h15.525v1.595
	h-4.57c0,0.75-0.03,1.562-0.086,2.438h3.967v9.094c0.057,1.624-0.69,2.438-2.242,2.438c-0.173,0-0.547,0-1.122,0
	c-0.575,0.062-0.979,0.095-1.208,0.095c-0.116-0.501-0.259-1.063-0.431-1.688c0.69,0,1.437,0,2.243,0
	c0.862,0,1.264-0.345,1.208-1.031v-2.062l-0.949,1.126c-0.173-0.188-0.432-0.5-0.776-0.938c-0.289-0.312-0.776-0.904-1.466-1.78
	c-0.518,1.5-1.323,2.875-2.415,4.125c-0.345-0.188-0.72-0.47-1.121-0.845c1.725-1.875,2.644-4.219,2.76-7.03h-3.364
	c0,0.563-0.058,1.094-0.172,1.593c0.862,0.812,1.609,1.596,2.243,2.344l-0.863,1.127L161.466,189.562L161.466,189.562z
	 M156.722,128.281v-6.938h9.057v6.938H156.722z M161.38,145.843c0.173,2.563-0.949,4.47-3.364,5.72
	c-0.116-0.188-0.317-0.438-0.604-0.75c-0.288-0.375-0.489-0.625-0.604-0.75c2.126-0.938,3.105-2.469,2.933-4.595v-2.155h8.884v4.219
	c-0.058,0.876,0.345,1.281,1.208,1.219h1.897l-0.172,1.781h-2.329c-1.553,0-2.329-0.75-2.329-2.25v-3.188h-5.521L161.38,145.843
	L161.38,145.843z M158.016,186.374v6.469c1.553-1.813,2.386-3.969,2.501-6.469H158.016z M158.361,122.938v3.75h5.779v-3.75H158.361z
	 M160.431,154.093c1.035,2.25,2.213,3.938,3.537,5.063c1.38-1.062,2.702-2.749,3.967-5.063H160.431z M161.984,182.438
	c0,0.938,0,1.75,0,2.438h3.277c0.057-0.938,0.086-1.749,0.086-2.438H161.984z M169.833,112.343
	c-1.208,1.251-2.559,2.531-4.054,3.844l-1.121-1.406c1.437-1.25,2.76-2.468,3.967-3.656L169.833,112.343L169.833,112.343z
	 M169.229,186.374h-2.587c-0.058,0.75-0.145,1.469-0.259,2.156c1.091,1.188,2.04,2.219,2.846,3.094V186.374L169.229,186.374z
	 M174.718,147.624v-1.594h3.709c-0.116-0.375-0.259-0.968-0.432-1.781c-0.23-0.75-0.403-1.313-0.518-1.688l1.639-0.375
	c0.114,0.375,0.287,0.971,0.518,1.781c0.229,0.876,0.373,1.5,0.431,1.875l-1.122,0.188h3.45v1.594h-4.399l-0.086,3.656h3.881
	c0,1.001-0.029,2.562-0.086,4.688c0,2.188-0.03,3.75-0.086,4.688c0,2.124-0.862,3.219-2.587,3.281c-0.518,0-1.064,0-1.639,0
	c0-0.127-0.03-0.313-0.086-0.563c-0.116-0.501-0.202-0.906-0.259-1.219c0.345,0.062,0.863,0.094,1.553,0.094
	c0.977,0.125,1.466-0.437,1.466-1.688c0.114-2.687,0.172-5.25,0.172-7.688h-2.329c0,0.062,0,0.188,0,0.375
	c-0.058,0.188-0.086,0.345-0.086,0.469c0,4.751-0.806,8.344-2.415,10.781c-0.403-0.438-0.834-0.844-1.294-1.219
	c1.38-1.938,2.099-5.094,2.156-9.469c0.057-0.563,0.086-1.595,0.086-3.095c0.057-1.374,0.086-2.405,0.086-3.094h-1.723V147.624z
	 M177.133,183.655v-8.345h15.784v8.345h-6.814v4.219h7.849v1.688h-7.849v4.405c1.84,0.062,4.887,0.093,9.143,0.093
	c-0.058,0.125-0.116,0.282-0.172,0.47c-0.172,0.625-0.289,1.062-0.345,1.312c-4.312,0-7.274-0.032-8.884-0.094
	c-3.508-0.063-5.923-1.345-7.245-3.844c-0.576,1.438-1.61,3.062-3.105,4.875c-0.345-0.438-0.776-0.907-1.294-1.406
	c2.357-2.124,3.651-5.312,3.881-9.563l1.725,0.281c-0.172,1.313-0.375,2.5-0.604,3.563c1.149,2.625,2.846,4.062,5.089,4.312v-10.312
	H177.133z M184.896,122.938c-2.415,1.063-5.722,1.875-9.918,2.438c-0.058-0.188-0.144-0.469-0.259-0.844
	c-0.172-0.375-0.289-0.656-0.345-0.845c3.565-0.375,6.469-0.969,8.711-1.78c-1.266-0.75-2.358-1.688-3.277-2.813
	c-0.863,0.813-1.927,1.657-3.191,2.532c-0.058-0.062-0.116-0.125-0.172-0.188c-0.289-0.5-0.576-0.875-0.863-1.125
	c2.588-1.562,4.542-3.375,5.865-5.438l1.639,0.469c-0.116,0.126-0.289,0.344-0.518,0.656c-0.23,0.25-0.403,0.469-0.518,0.656h9.488
	v1.594c-1.553,1.688-3.105,2.939-4.658,3.75c1.954,0.625,4.658,1.031,8.107,1.219c-0.058,0.126-0.144,0.375-0.259,0.75
	c-0.172,0.438-0.288,0.782-0.345,1.031C190.013,124.562,186.85,123.875,184.896,122.938L184.896,122.938z M192.658,117.031v-2.625
	h-15.611v2.625h-1.725v-4.219h8.884c-0.058-0.312-0.172-0.812-0.345-1.5c-0.116-0.437-0.202-0.75-0.259-0.938l1.897-0.281
	c0.057,0.313,0.143,0.813,0.259,1.5c0.114,0.501,0.201,0.907,0.259,1.219h8.28v4.219H192.658z M177.823,132.688v-7.125h13.973v7.125
	h-1.639v-1.03h-10.609v1.03H177.823z M178.944,177.093v4.875h12.162v-4.875H178.944z M179.548,127.062v3.095h10.609v-3.095H179.548z
	 M184.982,121.156c1.495-0.624,2.961-1.625,4.399-3h-8.28C182.25,119.468,183.544,120.469,184.982,121.156L184.982,121.156z
	 M185.327,146.78c-0.863,1.5-1.639,2.625-2.329,3.375c-0.058-0.062-0.172-0.188-0.345-0.375c-0.403-0.375-0.69-0.688-0.863-0.938
	c1.667-1.812,2.933-3.999,3.795-6.562l1.725,0.281c-0.116,0.375-0.345,0.906-0.69,1.594c-0.172,0.438-0.316,0.781-0.431,1.031h8.884
	v1.594L185.327,146.78L185.327,146.78z M188.087,160.468v-7.219l-2.76,0.656v6.562c-0.116,1.376,0.517,2,1.897,1.875h4.054
	c1.38,0.125,2.126-0.312,2.242-1.312c0-0.124,0.028-0.281,0.086-0.47c0-0.248,0.086-0.812,0.259-1.688
	c0.459,0.188,0.919,0.345,1.38,0.469c0,0.813-0.116,1.657-0.345,2.531c-0.289,1.438-1.352,2.124-3.191,2.062h-5.002
	c-2.014,0.062-2.99-0.905-2.933-2.905v-6.845l-1.208,0.281l-0.172-1.594l1.38-0.281v-2.812h1.553v2.531l2.76-0.656v-3.938h1.466
	v3.656l4.571-1.031c-0.058,1.875-0.144,3.782-0.259,5.72c0.057,1.75-0.633,2.625-2.07,2.625c-0.518,0.062-1.035,0.094-1.553,0.094
	c-0.058-0.563-0.144-1.094-0.259-1.594c0.518,0,0.949,0,1.294,0c0.747,0.062,1.149-0.375,1.208-1.313c0-0.249,0-0.812,0-1.688
	c0.057-0.938,0.086-1.562,0.086-1.875l-3.019,0.656v7.5h-1.465V160.468z M201.166,127.719c-0.345,1.563-1.035,3.188-2.07,4.875
	l-1.38-1.125c0.919-1.438,1.523-2.874,1.812-4.312c0.287-1.374,0.431-3.469,0.431-6.281v-8.157h8.279
	c-0.23-0.75-0.518-1.5-0.862-2.25l1.897-0.281c0.114,0.25,0.345,0.813,0.69,1.688c0.114,0.375,0.201,0.656,0.259,0.844h7.159v5.625
	h-15.698v2.438C201.683,123.844,201.511,126.157,201.166,127.719L201.166,127.719z M208.498,184.405
	c-2.186,1.125-5.52,2.188-10.005,3.188c-0.116-0.312-0.289-0.78-0.518-1.405c-0.058-0.188-0.116-0.344-0.172-0.47
	c3.622-0.562,6.611-1.374,8.97-2.438c-1.323-0.875-2.646-2.188-3.967-3.938c-1.035,1.188-2.156,2.344-3.364,3.469
	c-0.345-0.562-0.69-1.062-1.035-1.5c2.53-2.123,4.513-4.5,5.951-7.125l1.812,0.375c-0.403,0.625-0.834,1.281-1.294,1.969h10.868
	v1.875c-1.61,2.063-3.394,3.688-5.348,4.875c2.012,0.938,4.772,1.595,8.28,1.97c-0.173,0.375-0.375,0.905-0.604,1.594
	c-0.058,0.126-0.086,0.22-0.086,0.281C213.959,186.5,210.797,185.593,208.498,184.405L208.498,184.405z M198.493,156.438v-1.688
	h19.751v1.688h-6.728v4.312c-0.116,1.188,0.431,1.719,1.639,1.594h1.725c1.091,0.062,1.695-0.344,1.811-1.219
	c0.115-0.688,0.229-1.53,0.345-2.531c0.229,0.126,0.574,0.251,1.035,0.375c0.287,0.126,0.488,0.221,0.604,0.281
	c-0.116,1.001-0.259,1.907-0.431,2.719c-0.23,1.438-1.237,2.124-3.019,2.063h-2.673c-1.956,0.062-2.904-0.876-2.847-2.813v-4.781
	h-3.708c0.229,4.063-2.042,6.812-6.813,8.25c-0.23-0.438-0.604-1-1.121-1.688c4.369-1.062,6.41-3.249,6.123-6.562H198.493z
	 M198.924,149.312v-4.313h8.883c-0.116-0.375-0.345-0.999-0.69-1.875c-0.116-0.249-0.202-0.437-0.259-0.563l1.897-0.375
	c0.345,0.877,0.69,1.781,1.035,2.719l-0.345,0.095h8.28v4.313h-1.811v-2.625h-15.267v2.625H198.924z M200.994,151.562v-1.688h14.749
	v1.688H200.994z M200.994,196.688v-9h14.576v9h-1.725v-1.313h-11.126v1.313H200.994z M202.115,122.469v-1.594h7.417
	c-0.058-0.249-0.145-0.624-0.259-1.125c-0.116-0.312-0.202-0.563-0.259-0.75l1.811-0.281l0.518,2.157h7.245v1.594h-10.954
	c0,0.876-0.03,1.656-0.086,2.345h8.884c0,0.625-0.058,1.75-0.172,3.375c-0.058,0.375-0.086,0.625-0.086,0.75
	c-0.116,2.123-1.208,3.188-3.277,3.188c-1.035,0-2.1,0-3.191,0c0-0.126-0.03-0.345-0.086-0.656
	c-0.116-0.501-0.202-0.876-0.259-1.125c0.805,0.062,1.812,0.094,3.019,0.094c1.38,0.062,2.098-0.529,2.156-1.78
	c0-0.188,0-0.53,0-1.031c0.057-0.624,0.086-1.063,0.086-1.313h-7.331c-0.172,2.438-1.725,4.595-4.658,6.47
	c-0.23-0.313-0.633-0.782-1.207-1.406c1.839-1.188,3.019-2.344,3.536-3.469c0.632-1.125,0.949-2.938,0.949-5.438h-3.796V122.469z
	 M201.683,114.312v2.531h13.973v-2.531H201.683z M202.719,189.28v4.594h11.126v-4.594H202.719z M208.584,182.343
	c1.897-1.062,3.593-2.438,5.088-4.126h-9.746C205.363,179.968,206.916,181.344,208.584,182.343L208.584,182.343z M241.673,184.688
	c-0.289,0.438-0.489,0.75-0.604,0.938c-4.025-2.375-7.044-5.218-9.056-8.531c-2.243,3.438-5.405,6.407-9.487,8.906
	c-0.173-0.249-0.461-0.624-0.863-1.125c-0.172-0.312-0.288-0.5-0.345-0.562c4.886-2.938,8.28-6.281,10.177-10.031l1.984,0.281
	l-0.518,0.938c2.126,3.438,5.231,6.188,9.315,8.25C242.161,183.938,241.96,184.25,241.673,184.688L241.673,184.688z
	 M222.008,125.188v-1.594h4.744v-2.719h1.639v2.719h4.658v1.594h-4.658v4.22l5.175-0.656c-0.058,0.313-0.086,0.844-0.086,1.594
	c-2.014,0.188-5.205,0.593-9.574,1.22c-0.92,0.123-1.639,0.218-2.156,0.28l-0.345-1.875c0.977,0,2.558-0.094,4.744-0.28
	c-1.496,0.125-1.293,0.094,0.604-0.095v-4.405h-4.745V125.188z M222.353,146.312v-1.406h5.52l-1.725-2.156l1.639-0.562
	c0.977,1.062,1.667,1.845,2.07,2.344l-0.69,0.375h4.399c0.287-0.438,0.805-1.094,1.553-1.969c0.287-0.375,0.488-0.625,0.604-0.75
	l1.725,0.562l-1.812,2.156h5.693v1.406h-8.625V148h7.676v1.406h-7.676v1.688h9.142v1.406h-4.744l1.639,0.656l-1.552,1.969h5.002
	v1.406h-20.7v-1.406h5.089c-0.633-0.812-1.208-1.5-1.725-2.062l1.294-0.563h-4.399v-1.406h9.229v-1.688h-7.676v-1.406h7.676v-1.688
	h-8.626V146.312z M221.663,113.281v-1.688h11.816v1.688h-5.865c-0.748,1.438-1.811,3.157-3.191,5.156l6.037-0.375
	c-0.172-0.249-0.431-0.687-0.776-1.313c-0.345-0.5-0.604-0.905-0.776-1.219l1.294-0.75c1.264,1.938,2.357,3.75,3.277,5.438
	l-1.38,0.845c-0.173-0.188-0.345-0.5-0.518-0.938c-0.116-0.188-0.202-0.343-0.259-0.469c-3.163,0.126-5.377,0.25-6.641,0.375
	c-0.173,0-0.403,0.032-0.69,0.094c-0.633,0.063-1.093,0.126-1.38,0.188l-0.69-1.688c0.518-0.375,0.863-0.687,1.035-0.938
	c1.035-1.5,1.954-2.968,2.76-4.406h-4.053V113.281z M223.905,164.688v-6.375h15.784v6.375h-1.725v-1.031H225.63v1.031H223.905z
	 M225.63,159.718v2.531h12.334v-2.531H225.63z M227.959,154.28c0.229,0.312,0.402,0.532,0.518,0.655l-0.431,0.188h2.933v-2.625
	h-4.485C226.78,152.812,227.269,153.406,227.959,154.28L227.959,154.28z M230.806,196.688v-13.875h1.984v13.875H230.806z
	 M235.291,155.124l1.811-2.625h-4.398v2.625H235.291z M234.945,127.156v-14.344h1.639v14.344H234.945z M238.654,132.219
	c-0.403,0.062-1.41,0.094-3.019,0.094c-0.058-0.875-0.172-1.531-0.345-1.969c0.46,0.062,1.409,0.094,2.846,0.094
	c0.919,0,1.38-0.469,1.38-1.405v-18.563h1.725v18.938C241.298,131.281,240.436,132.219,238.654,132.219L238.654,132.219z
	 M244.919,113.75v-1.781h7.332v1.781h-2.501v15.562c0.115,1.625-0.69,2.469-2.415,2.531c-0.461,0-1.064,0-1.811,0
	c0-0.501-0.116-1.125-0.345-1.875c0.69,0.062,1.264,0.094,1.725,0.094c0.862,0.062,1.264-0.343,1.208-1.219V113.75H244.919z
	 M245.006,187.405v-1.406h20.7v1.406h-10.005l-0.431,1.875h8.797v4.688c0.057,1.499-0.69,2.28-2.242,2.345c-0.806,0-1.466,0-1.984,0
	c0-0.063-0.03-0.221-0.086-0.47c-0.116-0.562-0.202-0.938-0.259-1.125c0.632,0.062,1.178,0.095,1.639,0.095
	c0.919,0.062,1.35-0.313,1.293-1.125v-3h-3.795v5.248h-1.552v-5.248h-3.537v5.344h-1.552v-5.344h-3.709v5.812h-1.639v-7.219h6.9
	l0.432-1.875L245.006,187.405L245.006,187.405z M246.645,176.718v-1.312h17.25v1.312h-7.762v1.595h8.883v4.219h-1.552v-2.907h-7.331
	v5.251h-1.639v-5.251h-7.245v2.907h-1.639v-4.219h8.884v-1.595H246.645z M251.043,160.562c0,2.187-0.748,3.812-2.242,4.875
	l-0.776-0.845c1.035-0.812,1.581-2.03,1.639-3.655h-1.466v-3.095h2.846C251.043,158.344,251.043,159.249,251.043,160.562
	L251.043,160.562z M248.715,182.155v-1.031h4.485v1.031H248.715z M248.715,184.499v-1.031h4.485v1.031H248.715z M264.585,132.406
	c-1.035-0.938-2.818-2.499-5.347-4.688c0.114,0.126,0,0.032-0.345-0.28c-0.748,2.062-2.962,3.844-6.642,5.344
	c-0.345-0.626-0.69-1.188-1.035-1.688c2.875-1.062,4.714-2.188,5.521-3.375c0.919-1.187,1.38-3.219,1.38-6.094l0.086-2.157h1.639
	l-0.086,2.157c0,1.563-0.116,2.969-0.345,4.219c0.69,0.563,1.753,1.438,3.191,2.625c1.495,1.188,2.558,2.03,3.191,2.531
	L264.585,132.406z M252.941,113.093v-1.688h12.593v1.688h-5.865l-0.69,3.094h5.606v11.344h-1.639v-9.75h-7.936v9.844h-1.725v-11.438
	h3.968l0.69-3.094H252.941z M257.513,182.155v-1.031h4.398v1.031H257.513z M257.513,184.499v-1.031h4.398v1.031H257.513z
	 M269.643,125.281c-0.172,0-0.288,0-0.345,0l-0.604-1.688c0.402-0.188,0.919-0.75,1.553-1.688c0.632-0.812,1.264-1.78,1.897-2.906
	c-1.151,0.063-2.243,0.157-3.277,0.281l-0.518-1.688c0.345-0.375,0.747-0.968,1.208-1.781c0.804-1.313,1.695-3.094,2.673-5.344
	l1.725,0.656c-0.058,0.126-0.144,0.281-0.258,0.469c-1.438,2.625-2.56,4.594-3.364,5.906c0.229,0,0.632,0,1.208,0
	c0.747-0.062,1.294-0.094,1.639-0.094c0.172-0.312,0.431-0.781,0.776-1.406c0.287-0.563,0.518-0.999,0.69-1.313l1.553,0.75
	c-1.093,1.875-2.79,4.532-5.089,7.968c0.402,0,1.035-0.062,1.897-0.188c0.977-0.062,1.695-0.125,2.156-0.188
	c-0.116,0.75-0.172,1.281-0.172,1.594C273.15,124.812,271.368,125.032,269.643,125.281L269.643,125.281z M269.04,146.03v-1.875
	h19.837v1.875h-7.762c-0.863,1.626-1.811,3.094-2.846,4.405h1.466v14.25h-1.897v-13.594c-2.186,2.751-4.946,5.344-8.28,7.781
	c-0.058-0.062-0.145-0.188-0.259-0.375c-0.461-0.624-0.776-1.031-0.949-1.219c4.886-3.375,8.423-7.125,10.608-11.25L269.04,146.03
	L269.04,146.03z M274.904,129.219c-2.013,0.313-4.054,0.719-6.124,1.219l-0.345-1.688c0.69-0.125,1.868-0.375,3.537-0.75
	c1.264-0.249,2.242-0.438,2.932-0.562C274.904,128,274.904,128.595,274.904,129.219L274.904,129.219z M277.492,188.904
	c-2.933,1.688-5.665,3.281-8.194,4.781l-0.776-1.875c3.852-2,6.728-3.623,8.625-4.875c0,0.188,0.057,0.438,0.172,0.75
	C277.376,188.249,277.434,188.656,277.492,188.904L277.492,188.904z M268.781,180.562v-1.781h9.315v-4.5h1.725v4.5h9.143v1.781
	h-9.143v0.655c0.69,1.938,1.466,3.625,2.329,5.063c1.667-1.438,3.162-2.906,4.485-4.406l1.294,1.406
	c-1.841,1.688-3.45,3.126-4.83,4.312c1.38,1.875,3.42,3.563,6.124,5.062c-0.289,0.376-0.634,0.906-1.035,1.595
	c-3.967-2.188-6.757-5.25-8.366-9.188v7.97c0.114,2.124-0.892,3.188-3.019,3.188c-0.92,0.062-1.811,0.095-2.673,0.095
	c-0.116-0.75-0.23-1.406-0.345-1.97c0.518,0.062,1.322,0.095,2.415,0.095c1.322,0.062,1.954-0.595,1.897-1.97v-11.905h-9.316
	V180.562z M273.956,187.03c-0.862-1.125-1.983-2.47-3.364-4.031l1.208-1.125c0.518,0.501,1.322,1.345,2.415,2.531
	c0.518,0.625,0.891,1.062,1.122,1.312L273.956,187.03z M283.701,128.656c-1.38,1.437-3.048,2.779-5.002,4.031
	c-0.23-0.313-0.604-0.845-1.121-1.595c2.243-1.25,3.88-2.53,4.916-3.844c-1.438-1.937-2.53-4.219-3.277-6.844
	c-0.172,4.688-1.496,8.657-3.967,11.905c-0.116-0.125-0.345-0.345-0.69-0.655c-0.289-0.313-0.518-0.532-0.69-0.656
	c1.495-1.937,2.501-3.938,3.019-6c0.574-2.063,0.862-5.157,0.862-9.282v-2.438h-1.811v-1.688h10.608v1.781l-2.07,4.688h3.623v1.688
	c-0.806,2.939-1.897,5.438-3.278,7.5c1.208,1.312,2.702,2.438,4.485,3.375c-0.345,0.562-0.69,1.154-1.035,1.781
	C286.432,131.155,284.909,129.907,283.701,128.656L283.701,128.656z M279.39,115.062c0,0.501,0,1.031,0,1.594
	c1.091,3.938,2.5,7,4.225,9.188c1.092-1.688,2.012-3.718,2.76-6.094h-3.623v-1.781l2.07-4.688h-5.433L279.39,115.062L279.39,115.062
	z M287.928,158.312c-3.221-2.562-5.55-4.375-6.986-5.438l1.122-1.406c1.208,0.813,3.019,2.126,5.434,3.938
	c0.805,0.626,1.38,1.062,1.725,1.312L287.928,158.312z M284.823,178.78c-0.979-0.938-1.956-1.843-2.933-2.72l1.208-1.03
	c1.035,0.749,2.041,1.626,3.019,2.625L284.823,178.78z M292.985,124.438v-1.5h18.803v1.5h-8.539v2.25h7.503v1.5h-7.503v2.156h9.401
	v1.594h-20.614v-1.594h9.488v-2.156h-7.504v-1.5h7.504v-2.25H292.985z M293.245,164.405v-20.906h18.199v17.719
	c0.114,1.999-0.807,3-2.761,3c-0.92,0.062-1.983,0.095-3.19,0.095c0-0.063,0-0.158,0-0.281c-0.058-0.375-0.172-0.938-0.345-1.688
	c0.574,0.062,1.522,0.095,2.846,0.095c1.264,0.062,1.839-0.438,1.725-1.5v-15.75H294.97v19.219L293.245,164.405L293.245,164.405z
	 M297.558,195.936c-1.841-0.187-2.876-1.28-3.105-3.28c0.172-2.123,1.208-3.281,3.105-3.468c1.954,0.187,3.019,1.345,3.191,3.468
	C300.576,194.654,299.512,195.749,297.558,195.936L297.558,195.936z M294.538,120.969v-8.625h4.744
	c0.345-0.75,0.574-1.468,0.69-2.156l1.897,0.188c-0.172,0.625-0.431,1.282-0.776,1.969h9.143v8.625h-15.697V120.969z
	 M297.558,190.593c-1.093,0.126-1.697,0.813-1.811,2.062c0.114,1.063,0.718,1.655,1.811,1.782c1.149-0.127,1.782-0.719,1.897-1.782
	C299.339,191.405,298.707,190.719,297.558,190.593L297.558,190.593z M296.177,113.843V116h12.334v-2.156L296.177,113.843
	L296.177,113.843z M296.177,117.312v2.156h12.334v-2.156H296.177z M296.436,149.688v-1.688h11.902v1.688H296.436z M297.902,159.812
	v-7.406h8.884v7.406H297.902z M299.541,154.093v4.125h5.606v-4.125H299.541z M318.572,159.624c-0.289,1.626-0.92,3.313-1.897,5.063
	c-0.403-0.502-0.834-1.031-1.294-1.595c0.862-1.5,1.408-2.937,1.639-4.312c0.229-1.313,0.346-3.499,0.346-6.563v-8.625h15.61v10.5
	c0,4.313,0.201,6.907,0.604,7.781c0.115,0.375,0.314,0.529,0.604,0.469c0.229,0,0.373-0.22,0.432-0.656
	c0.173-1.623,0.287-2.906,0.346-3.844c0.459,0.188,0.948,0.375,1.466,0.563c-0.116,1.688-0.288,2.938-0.518,3.75
	c-0.23,1.5-0.894,2.25-1.983,2.25c-0.921-0.063-1.582-0.72-1.983-1.97c-0.461-1.125-0.689-3.904-0.689-8.344v-8.719h-12.162v6.656
	C319.089,155.469,318.917,158,318.572,159.624L318.572,159.624z M318.83,118.343v-1.5h14.146v1.5h-5.95
	c-0.69,0.563-1.353,1.063-1.983,1.5c0.057,0.126,0.172,0.282,0.345,0.469c0.746,1.063,1.235,1.907,1.466,2.531
	c2.07-0.938,4.228-2.094,6.47-3.469l0.949,1.5c-0.862,0.438-2.156,1.125-3.883,2.063c1.035,3.25,2.961,5.438,5.779,6.562
	c-0.058,0.062-0.116,0.156-0.173,0.281c-0.23,0.249-0.547,0.656-0.948,1.219c-3.104-1.5-5.118-3.969-6.038-7.406l-1.552,0.75
	c0.401,1.188,0.604,2.438,0.604,3.75c0.058,2.874-1.034,4.313-3.276,4.313c-0.807,0-1.727,0-2.761,0
	c-0.059-0.313-0.173-0.75-0.346-1.313c-0.058-0.188-0.086-0.345-0.086-0.469c0.806,0.062,1.695,0.094,2.674,0.094
	c1.494,0.124,2.186-0.75,2.069-2.625c0.057-0.562,0-1.187-0.172-1.875c-2.415,2.5-5.664,4.438-9.747,5.813
	c-0.23-0.563-0.518-1.125-0.862-1.688c4.082-1.062,7.476-2.968,10.179-5.719c-0.173-0.5-0.374-0.969-0.604-1.406
	c-2.415,2.001-5.262,3.596-8.54,4.781c-0.229-0.688-0.489-1.25-0.775-1.688c3.277-0.875,6.152-2.345,8.625-4.406
	c-0.23-0.375-0.489-0.75-0.775-1.125c-2.129,1.312-4.516,2.376-7.16,3.188c-0.229-0.562-0.489-1.125-0.776-1.688
	c3.623-0.75,6.583-2.063,8.885-3.938H318.83z M316.156,117.031V113h9.401c-0.346-0.875-0.689-1.718-1.034-2.531l1.896-0.375
	c0.345,0.75,0.689,1.657,1.035,2.719L326.852,113h8.713v4.031h-1.727v-2.438h-15.957v2.438H316.156z M329.439,162.062
	c-0.403-0.5-1.008-1.344-1.812-2.531c-0.92-1.5-1.639-2.594-2.156-3.281c-1.438,2.126-3.104,4.157-5.002,6.094
	c-0.116-0.126-0.316-0.312-0.604-0.562c-0.346-0.312-0.575-0.53-0.69-0.656c2.186-2.374,3.938-4.53,5.261-6.469l-4.484-6.469
	l1.38-1.031l4.14,5.906c1.092-1.688,2.213-3.78,3.364-6.281l1.466,0.844c-1.207,2.625-2.473,4.969-3.795,7.031
	c1.035,1.376,2.415,3.406,4.141,6.094c-0.115-0.124-0.029,0,0.259,0.375L329.439,162.062z M339.586,114.218v-1.5h7.591
	c0.519-0.812,0.919-1.688,1.207-2.625l1.812,0.281c-0.347,0.813-0.69,1.594-1.035,2.344h10.091v1.5h-6.382
	c1.552,1.938,3.881,3.25,6.986,3.938c-0.116,0.188-0.289,0.562-0.519,1.125c-0.116,0.25-0.202,0.438-0.259,0.562
	c-1.783-0.624-3.277-1.312-4.485-2.062v0.656h-9.66v1.688h11.127v1.312h-11.127v1.688h11.214v1.313h-11.214v1.688h14.576v1.5h-5.951
	c0.229,0.188,0.547,0.469,0.949,0.844c1.494,1.313,2.674,2.375,3.536,3.188l-1.38,1.125l-1.294-1.406
	c-4.602,0.124-8.396,0.249-11.385,0.375c-0.23,0.062-0.575,0.095-1.035,0.095c-0.461,0.062-0.807,0.094-1.035,0.094l-0.604-1.5
	c0.519-0.188,0.978-0.375,1.381-0.563c1.034-0.75,1.896-1.5,2.588-2.25h-5.951v-1.5h3.967v-7.688
	c-0.633,0.438-1.755,1.031-3.363,1.782c1.207-0.563,1.121-0.531-0.259,0.094c-0.229-0.563-0.518-1.093-0.862-1.594
	c3.277-1.187,5.692-2.687,7.244-4.5h-6.469V114.218z M339.328,148.468v-1.688h2.673v-4.5h1.639v4.5h2.415v1.688h-2.415v2.531
	l0.26-0.375c0.229,0.251,0.633,0.626,1.208,1.125c0.746,0.688,1.294,1.219,1.639,1.594l-0.518,0.563
	c2.299-0.75,4.109-1.562,5.434-2.438c-0.979-0.938-1.812-2.093-2.501-3.469c-0.634,0.876-1.353,1.751-2.156,2.625
	c-0.229-0.437-0.575-0.874-1.035-1.313c1.897-1.998,3.363-4.343,4.398-7.03l1.726,0.28c-0.289,0.75-0.604,1.438-0.949,2.063h7.505
	v1.688c-1.207,2.25-2.587,4-4.141,5.25c1.494,0.938,3.307,1.625,5.435,2.062c-0.059,0.188-0.146,0.501-0.26,0.938
	c-0.173,0.438-0.287,0.75-0.345,0.938c-2.531-0.812-4.63-1.78-6.297-2.905c-1.782,1.188-3.997,2.219-6.641,3.094
	c0-0.062-0.03-0.155-0.087-0.281c-0.115-0.249-0.288-0.563-0.519-0.938l-0.172,0.281c-0.461-0.563-1.121-1.313-1.984-2.25v12.188
	h-1.639v-12.469c-0.633,2.375-1.495,4.562-2.587,6.562c-0.173-0.438-0.346-1.094-0.519-1.969c-0.058-0.188-0.086-0.312-0.086-0.375
	c1.321-2.312,2.356-4.969,3.104-7.969h-2.586V148.468z M347.607,127.625c-0.979,0.938-2.07,1.812-3.277,2.625
	c0.919,0,2.386-0.032,4.397-0.094c2.415-0.063,4.17-0.126,5.263-0.188l-1.897-1.594l0.862-0.75L347.607,127.625L347.607,127.625z
	 M348.211,114.218c-0.862,1.188-1.811,2.125-2.846,2.813h8.279c-0.862-0.624-1.726-1.562-2.588-2.813H348.211z M347.607,164.688
	v-8.72h10.694v8.72h-1.726v-1.313h-7.331v1.313H347.607z M349.246,157.562v4.405h7.331v-4.405H349.246z M353.041,150.53
	c1.437-1.125,2.645-2.562,3.623-4.313h-6.469l-0.086,0.281C350.799,147.999,351.776,149.344,353.041,150.53L353.041,150.53z"/>
<path fill="#FFFFFF" d="M59.463,54.191V49.16h33.756v5.031H78.681c-0.225,2.875-0.501,5.57-0.835,8.086H96.06v5.211H77.01
	c0,0.121,0,0.3,0,0.539c-0.112,0.241-0.167,0.421-0.167,0.539h4.679v11.5c-0.225,2.516,0.778,3.655,3.008,3.414h2.841
	c2.005,0.121,3.118-0.958,3.342-3.234c0.222-0.837,0.389-2.274,0.501-4.313c0.11-0.359,0.167-0.657,0.167-0.898
	c1.893,0.719,3.564,1.258,5.013,1.617c-0.334,3.234-0.668,5.511-1.002,6.828c-0.559,3.352-2.841,4.969-6.852,4.852h-5.682
	c-4.569,0.118-6.797-2.098-6.685-6.648V70.543c-2.229,7.788-7.632,14.133-16.209,19.047c-0.334-0.48-0.948-1.258-1.838-2.336
	c-0.781-1.078-1.395-1.859-1.838-2.336c9.024-5.031,14.092-10.84,15.207-17.43H56.622v-5.211h15.875
	c0.334-2.516,0.556-5.211,0.668-8.086H59.463z M101.043,63.535v-4.672h7.854v-5.391l-6.517,0.359
	c-0.112-1.196-0.392-2.754-0.836-4.672c5.235-0.118,11.196-0.478,17.881-1.078l1.002,4.492c-2.564,0.359-4.903,0.539-7.019,0.539
	v5.75h7.186v3.594c2.562-4.551,4.399-9.883,5.515-15.992l4.846,0.898c-0.225,0.839-0.559,2.097-1.003,3.773
	c-0.334,1.078-0.559,1.917-0.668,2.516h12.032v5.031h-2.673c-0.668,7.547-2.34,13.777-5.014,18.688
	c2.449,2.875,5.123,5.152,8.021,6.828c-0.781,1.438-1.616,3.055-2.507,4.852c-3.566-2.516-6.407-5.031-8.522-7.547
	c-2.339,2.757-5.405,5.508-9.191,8.266c-0.112-0.121-0.225-0.359-0.334-0.719c-0.893-1.32-1.561-2.277-2.005-2.875h-12.032v2.695
	h-4.512V69.465h6.35v-5.93H101.043z M107.059,73.957v8.086h8.021v-8.086H107.059z M122.433,68.387
	c-0.334,0.601-0.613,1.078-0.835,1.438c-0.334-0.837-0.781-2.036-1.337-3.594c-0.334-0.837-0.559-1.438-0.668-1.797
	c0-0.118,0.055-0.18,0.167-0.18c0.11-0.239,0.167-0.478,0.167-0.719h-6.518v5.93h6.35v14.914c3.342-2.156,6.016-4.551,8.021-7.188
	c-1.671-3.234-2.953-7.008-3.844-11.32C123.603,66.472,123.101,67.309,122.433,68.387L122.433,68.387z M127.112,59.402
	c0.668,5.391,1.893,9.883,3.676,13.477c1.893-3.833,3.008-8.563,3.342-14.195h-6.684c-0.112,0.121-0.167,0.241-0.167,0.359
	C127.167,59.164,127.112,59.284,127.112,59.402L127.112,59.402z M152.147,68.566c-1.227-1.317-3.065-3.055-5.514-5.211
	c0.222,0.241-0.058,0-0.836-0.719l3.175-3.594c1.002,0.839,2.449,2.038,4.345,3.594c1.003,0.839,1.726,1.438,2.172,1.797
	L152.147,68.566z M153.986,77.551c-1.449,5.632-2.397,9.582-2.841,11.859l-4.846-1.438c0.891-3.234,2.172-8.504,3.844-15.813
	c0.556,0.121,1.337,0.359,2.339,0.719c1.112,0.359,1.893,0.66,2.339,0.898C154.597,74.617,154.32,75.875,153.986,77.551
	L153.986,77.551z M153.15,56.527c-0.668-0.719-1.729-1.735-3.175-3.055c-1.337-1.317-2.397-2.274-3.175-2.875l3.008-3.594
	c0.668,0.601,1.893,1.617,3.676,3.055c1.337,1.078,2.34,1.917,3.008,2.516L153.15,56.527z M158.164,62.277
	c-0.334-0.478-0.835-1.137-1.504-1.977c-0.668-0.837-1.227-1.438-1.671-1.797c3.564-3.473,6.238-7.547,8.021-12.219l5.181,0.539
	c-0.225,0.359-0.501,0.898-0.836,1.617c-0.334,0.719-0.613,1.258-0.835,1.617h19.05v4.313h-21.39
	c-0.668,1.078-1.395,2.156-2.172,3.234h21.223c-0.112,0.601-0.167,2.336-0.167,5.211c-0.112,2.277-0.167,4.074-0.167,5.391h3.509
	v4.313h-3.509c-0.112,2.277-0.167,4.433-0.167,6.469h2.841v4.133h-3.008c-0.225,4.191-2.452,6.227-6.684,6.109h-6.685
	c-0.112-0.601-0.446-1.5-1.002-2.695c-0.112-0.601-0.225-1.02-0.334-1.258c2.115,0,4.288,0,6.517,0
	c2.115,0.118,3.285-0.601,3.509-2.156h-20.387l1.003-10.602h-3.342v-4.313h3.843l0.668-7.727L158.164,62.277z M178.05,78.988
	c0.109-1.317,0.167-3.473,0.167-6.469h-15.04l-0.668,6.469h8.857c-1.227-1.196-2.674-2.395-4.345-3.594l2.339-2.875
	c1.893,1.319,3.619,2.577,5.181,3.773l-2.34,2.695L178.05,78.988L178.05,78.988z M164.18,61.918l-0.668,6.289h8.355
	c-0.668-0.598-1.671-1.438-3.008-2.516c-0.668-0.598-1.169-1.017-1.504-1.258l2.507-2.516L164.18,61.918L164.18,61.918z
	 M178.384,68.207c0-2.993,0-5.09,0-6.289h-8.188c0.778,0.48,1.838,1.258,3.175,2.336c0.668,0.601,1.17,1.019,1.504,1.258
	l-2.339,2.695H178.384L178.384,68.207z M205.592,83.48c-4.457,2.156-8.635,4.012-12.533,5.57c-0.668-1.32-1.449-2.695-2.34-4.133
	c3.898-1.078,8.021-2.695,12.366-4.852L205.592,83.48L205.592,83.48z M194.563,61.918V48.262h33.087v13.656h-14.037l0.668,2.516
	h16.878v3.594h-40.273v-3.594h17.88c-0.112-0.239-0.279-0.719-0.501-1.438c-0.112-0.478-0.225-0.837-0.334-1.078H194.563z
	 M204.255,89.23c-0.112-0.242-0.225-0.781-0.334-1.617c-0.334-1.438-0.613-2.457-0.835-3.055c1.559,0,2.896,0,4.011,0
	c1.781,0.118,2.616-0.478,2.506-1.797v-3.055h-13.87v-9.344h30.748v9.344h-12.032v3.953c0.11,3.473-1.616,5.27-5.18,5.391
	L204.255,89.23z M199.409,51.496v2.336h23.228v-2.336H199.409z M199.409,56.348v2.516h23.228v-2.516H199.409z M200.579,73.598v2.875
	h20.889v-2.875H200.579z M228.987,88.691c-4.791-2.156-8.802-3.773-12.032-4.852l2.172-3.414c1.781,0.601,4.232,1.438,7.353,2.516
	c2.115,0.839,3.731,1.378,4.846,1.617L228.987,88.691z M243.987,71.262c-0.112,7.188-1.616,13.235-4.512,18.148
	c-0.334-0.242-1.003-0.719-2.005-1.438c-0.893-0.601-1.562-1.078-2.005-1.438c2.784-4.313,4.065-11.141,3.844-20.484V50.598h15.04
	c-0.112-0.359-0.279-0.898-0.501-1.617c-0.334-0.958-0.614-1.617-0.836-1.977l6.016-0.539c0,0.241,0.167,0.78,0.501,1.617
	c0.334,1.078,0.556,1.917,0.668,2.516h13.87v12.398h-29.913v2.875v0.898h12.867c-0.225-0.958-0.501-1.915-0.835-2.875l5.515-0.539
	l0.835,3.414h13.369v4.492h-20.22c0,1.199,0,2.277,0,3.234h16.711c0,0.601-0.057,1.558-0.167,2.875
	c-0.112,2.397-0.225,4.015-0.334,4.852c-0.225,4.43-2.34,6.586-6.351,6.469c-2.005,0-4.29,0-6.852,0
	c-0.446-1.679-0.835-3.176-1.169-4.492c1.559,0.121,3.564,0.18,6.016,0.18c2.34,0,3.509-0.898,3.509-2.695c0-0.239,0-0.657,0-1.258
	c0.11-0.837,0.167-1.438,0.167-1.797h-12.199c-0.559,3.835-3.399,7.605-8.522,11.32c-1.337-1.679-2.507-3.055-3.509-4.133
	c5.682-3.353,8.298-8.204,7.854-14.555h-6.852V71.262z M244.154,55.09v3.773h25.066V55.09H244.154z"/>
<path fill="#95F2DC" d="M267.791,27.13c-0.64-0.687-1.599-1.594-2.877-2.719c0.116,0.126-0.03,0-0.436-0.375l1.657-1.875
	c0.523,0.438,1.278,1.063,2.267,1.875c0.523,0.438,0.901,0.75,1.134,0.938L267.791,27.13z M268.75,31.817
	c-0.756,2.938-1.251,4.999-1.482,6.188l-2.528-0.75c0.464-1.688,1.133-4.438,2.005-8.25c0.29,0.063,0.697,0.188,1.221,0.375
	c0.58,0.188,0.987,0.344,1.22,0.469C269.069,30.287,268.925,30.942,268.75,31.817L268.75,31.817z M268.314,20.849
	c-0.349-0.375-0.902-0.905-1.657-1.594c-0.697-0.687-1.25-1.187-1.657-1.5l1.57-1.875c0.349,0.313,0.987,0.844,1.918,1.594
	c0.697,0.563,1.221,1,1.569,1.313L268.314,20.849z M270.93,23.849c-0.175-0.249-0.436-0.593-0.785-1.031
	c-0.349-0.437-0.641-0.75-0.872-0.938c1.859-1.812,3.254-3.938,4.185-6.375l2.703,0.281c-0.117,0.188-0.262,0.469-0.436,0.844
	c-0.175,0.375-0.32,0.656-0.436,0.844h9.939v2.25h-11.16c-0.349,0.563-0.728,1.125-1.133,1.688h11.073
	c-0.059,0.313-0.087,1.219-0.087,2.719c-0.059,1.188-0.087,2.125-0.087,2.813h1.831v2.25h-1.831
	c-0.058,1.188-0.087,2.313-0.087,3.375h1.482v2.156h-1.569c-0.117,2.187-1.279,3.249-3.487,3.188h-3.487
	c-0.059-0.313-0.233-0.782-0.523-1.406c-0.059-0.313-0.117-0.532-0.174-0.656c1.104,0,2.237,0,3.4,0
	c1.104,0.062,1.714-0.313,1.831-1.125h-10.637l0.523-5.531h-1.744v-2.25h2.005l0.349-4.031L270.93,23.849z M281.305,32.567
	c0.057-0.688,0.087-1.812,0.087-3.375h-7.847l-0.349,3.375h4.621c-0.64-0.624-1.395-1.25-2.267-1.875l1.221-1.5
	c0.988,0.688,1.888,1.345,2.703,1.969l-1.22,1.406H281.305z M274.069,23.661l-0.349,3.281h4.359
	c-0.349-0.312-0.872-0.75-1.569-1.313c-0.349-0.312-0.61-0.53-0.784-0.656l1.308-1.313L274.069,23.661L274.069,23.661z
	 M281.479,26.942c0-1.562,0-2.656,0-3.281h-4.272c0.406,0.25,0.959,0.656,1.657,1.219c0.349,0.313,0.61,0.532,0.785,0.656
	l-1.221,1.406H281.479L281.479,26.942z M289.291,36.88v-2.719h7.847V15.88h2.964v6.563h8.37v2.813h-8.37v8.906h9.939v2.719
	L289.291,36.88L289.291,36.88z M313.841,18.88v-1.781h9.068c0-0.188-0.06-0.437-0.175-0.75c-0.06-0.312-0.117-0.53-0.175-0.656
	l2.878-0.188l0.349,1.594h8.806v1.781H313.841z M333.633,36.692c-0.059,0.188-0.117,0.312-0.174,0.375
	c-2.965-1-4.913-2.499-5.842-4.5c-0.292,0.063-0.523,0.157-0.698,0.281c0,0.126,0,0.344,0,0.656
	c0.058,0.375,0.088,0.656,0.088,0.844c0.115,2.375-1.047,3.563-3.487,3.563c-0.931,0-1.86,0-2.789,0c-0.176-0.375-0.38-1-0.61-1.875
	c1.104,0,2.033,0,2.79,0c1.162,0.062,1.714-0.438,1.656-1.5c0-0.188,0-0.406,0-0.656c-2.268,1.375-5.552,2.687-9.853,3.938
	c-0.349-0.813-0.641-1.406-0.872-1.781c3.836-0.626,7.324-1.813,10.462-3.563c0-0.125-0.059-0.281-0.174-0.469
	c-0.059-0.188-0.117-0.312-0.175-0.375c-2.151,1.251-5.145,2.407-8.98,3.469c-0.292-0.687-0.609-1.28-0.959-1.781
	c3.545-0.624,6.626-1.562,9.242-2.813c-0.175-0.188-0.349-0.375-0.522-0.563c-2.21,0.813-4.795,1.532-7.761,2.156
	c-0.406-0.875-0.696-1.437-0.872-1.688c3.255-0.437,5.929-1.031,8.021-1.781h-4.446v-1.5h13.078v1.5h-4.708
	c-0.349,0.126-0.728,0.281-1.134,0.469c0.522,0.563,0.959,1.125,1.308,1.688c2.324-0.938,4.187-1.749,5.58-2.438l1.309,1.875
	c-0.467,0.25-1.163,0.563-2.093,0.938c-0.582,0.25-1.018,0.438-1.309,0.563c0.93,1.626,2.645,2.751,5.145,3.375
	C334.562,35.349,334.156,35.879,333.633,36.692L333.633,36.692z M314.19,28.067v-3.563h20.053v3.563h-2.528v-1.969h-15.083v1.969
	H314.19z M316.457,23.567v-3.844h15.52v3.844H316.457z M318.985,21.13v1.031h10.463V21.13H318.985z M338.915,23.192v-5.156h8.457
	c-0.174-0.75-0.407-1.468-0.697-2.156l3.14-0.281c0.23,0.876,0.465,1.688,0.696,2.438h7.936V23.1h-2.441l0.349,2.063
	c-1.687,0.188-4.358,0.407-8.021,0.656v2.813l10.463-0.844l0.175,2.531l-10.638,0.938v1.969c-0.059,1.251,0.465,1.844,1.569,1.781
	h3.924c1.046,0.063,1.656-0.406,1.831-1.406c0-0.062,0.027-0.155,0.087-0.281c0.058-0.687,0.116-1.343,0.175-1.969
	c0.755,0.313,1.626,0.595,2.615,0.844c-0.06,0.876-0.232,1.907-0.522,3.094c-0.35,1.437-1.481,2.156-3.399,2.156h-5.755
	c-2.21,0-3.313-1.188-3.313-3.563v-2.438l-6.888,0.563l-0.174-2.625l7.062-0.563v-2.813l-4.97,0.375l-0.35-2.625
	c6.452-0.312,11.653-0.687,15.607-1.125v-1.969H341.62v2.531L338.915,23.192L338.915,23.192z"/>
<path fill="#F8FF63" d="M306.297,81.339c-0.8,2.109-1.635,4.024-2.507,5.742l-2.397-0.938c0.872-1.796,1.706-3.71,2.506-5.742
	L306.297,81.339L306.297,81.339z M302.374,67.277v-2.813h4.904c-0.073-0.39-0.255-0.976-0.544-1.758
	c-0.073-0.312-0.146-0.546-0.219-0.703l3.378-0.352c0.363,1.172,0.617,2.109,0.764,2.813h4.358v2.813h-3.597l2.725,1.055
	l-1.853,3.047h3.27v2.813h-5.122v2.461h4.687v2.813h-4.687v6.445c0.071,2.186-0.945,3.319-3.052,3.398
	c-0.509,0.077-1.381,0.117-2.616,0.117c-0.146-1.33-0.364-2.344-0.654-3.047c0.218,0,0.581,0,1.09,0c0.436,0,0.725,0,0.872,0
	c0.943,0.077,1.379-0.352,1.308-1.289v-5.625h-5.013v-2.813h5.013v-2.461h-5.667v-2.813h3.488c-0.583-1.015-1.199-1.992-1.853-2.93
	l2.071-1.172L302.374,67.277L302.374,67.277z M307.06,69.152c0.363,0.547,0.654,0.978,0.872,1.289l-1.635,0.938h3.051
	c0.363-0.625,0.834-1.523,1.417-2.695c0.29-0.625,0.507-1.093,0.654-1.406h-5.558C306.151,67.746,306.551,68.372,307.06,69.152
	L307.06,69.152z M313.163,85.792l-2.289-4.336l2.289-1.172c0.799,1.406,1.562,2.774,2.289,4.102c0.726-2.187,1.09-5.273,1.09-9.258
	v-11.25c3.706-0.234,7.084-0.625,10.136-1.172l0.98,3.047c-2.762,0.469-5.449,0.82-8.065,1.055v5.039h8.5v3.164h-2.725v14.414
	h-2.942V75.011h-2.833v0.352c0.146,6.094-0.836,10.86-2.941,14.297c-0.292-0.158-0.728-0.469-1.309-0.938
	c-0.653-0.392-1.127-0.703-1.417-0.938c0.146-0.234,0.327-0.626,0.545-1.172c0.437-0.78,0.764-1.445,0.98-1.992L313.163,85.792z
	 M331.234,72.55v-3.398h2.18v-7.266h2.943v7.266h1.853v3.398h-1.853v9.375l2.506-0.703c-0.073,1.172-0.073,2.344,0,3.516
	c-0.653,0.234-1.672,0.547-3.051,0.938c-1.892,0.469-3.344,0.858-4.359,1.172l-0.545-3.398c0.798-0.234,1.635-0.469,2.506-0.703
	V72.55H331.234z M338.863,75.714V64.933h3.924c-0.146-0.234-0.327-0.546-0.545-0.938c-0.509-0.859-0.872-1.483-1.09-1.875
	l3.27-0.469l1.854,3.281h2.834c0.507-0.938,1.09-2.069,1.742-3.398l3.38,0.703c-0.291,0.469-0.764,1.172-1.417,2.109
	c-0.146,0.234-0.256,0.43-0.327,0.586h4.032v10.781L338.863,75.714L338.863,75.714z M339.953,89.777V77.355h15.367v12.422h-3.053
	v-1.289h-9.153v1.289H339.953z M341.588,67.394v5.742h4.796v-5.742H341.588z M343.986,72.433c-0.511-1.093-1.128-2.187-1.854-3.281
	l1.635-1.055c0.363,0.469,0.872,1.329,1.526,2.578c0.218,0.313,0.362,0.547,0.436,0.703L343.986,72.433z M343.114,79.816v2.109
	h9.153v-2.109H343.114z M343.114,84.152v2.109h9.153v-2.109H343.114z M353.795,67.394h-4.796v5.742h4.796V67.394z M352.051,71.261
	c-0.436,0.547-0.728,0.979-0.872,1.289l-1.635-1.055c0.146-0.234,0.327-0.546,0.545-0.938c0.727-1.093,1.234-1.914,1.526-2.461
	l1.743,1.055C353.067,69.621,352.632,70.324,352.051,71.261L352.051,71.261z"/>
</svg>
