<svg xmlns="http://www.w3.org/2000/svg" width="640" height="588.665" viewBox="0 -378.165 640 588.665" enable-background="new 0 -378.165 640 588.665"><path fill="#43CFB2" d="M386.721 31.682v3.002h-11.329c.122-1.135.49-2.21 1.104-3.227s1.825-2.364 3.635-4.043c1.457-1.357 2.352-2.277 2.682-2.761.443-.667.666-1.327.666-1.978 0-.721-.193-1.275-.58-1.662-.389-.387-.923-.581-1.604-.581-.675 0-1.212.203-1.61.609-.397.407-.629 1.082-.689 2.024l-3.221-.322c.191-1.779.794-3.056 1.806-3.831 1.013-.774 2.278-1.162 3.796-1.162 1.664 0 2.972.449 3.923 1.346.95.897 1.426 2.013 1.426 3.347 0 .759-.136 1.482-.407 2.168-.272.686-.704 1.405-1.294 2.157-.393.499-1.098 1.215-2.116 2.151-1.021.936-1.666 1.557-1.938 1.863-.271.306-.492.606-.661.897h6.414v.003z"/><path fill="#fff" d="M66.11 124.906c-1.208-1.749-2.445-3.344-3.709-4.781-.289 4.562-1.697 8.625-4.227 12.188-.172-.188-.517-.5-1.035-.938-.23-.188-.403-.345-.518-.469 2.702-3.375 4.14-8.156 4.313-14.344v-.375c.114-2.312.172-4.187.172-5.625h1.812c0 2.063-.086 4.345-.259 6.844l-.086.938.345-.375c1.667 1.938 3.162 3.75 4.485 5.438l-1.293 1.499zm-6.037 34.812c-.345 1.563-1.035 3.188-2.07 4.875l-1.38-1.125c.919-1.438 1.523-2.874 1.811-4.312.287-1.374.432-3.47.432-6.281v-8.156h8.28c-.23-.75-.518-1.5-.862-2.25l1.897-.28c.114.25.345.812.69 1.688l.259.844h7.159v5.625h-15.699v2.438c0 3.06-.173 5.372-.517 6.934zm-3.278 30.781v-1.875h15.267v1.875h-15.267zm14.231 5.719c-1.208.062-2.76.095-4.657.095-.058-.688-.173-1.406-.345-2.156 1.264.123 2.76.188 4.485.188 2.07.124 3.133-.688 3.191-2.438.172-2.312.315-4.594.431-6.844h-14.145l.949-10.781h1.812l-.345 3.375h15.007v1.875h-15.094l-.345 3.75h14.145c0 .312-.03.812-.086 1.5-.172 3.438-.345 5.906-.518 7.404-.115 2.75-1.61 4.093-4.485 4.032zm-10.005-41.75v-1.594h7.417l-.259-1.125c-.116-.312-.202-.563-.259-.75l1.811-.281.518 2.156h7.245v1.594h-10.952c0 .876-.03 1.657-.086 2.345h8.884c0 .625-.058 1.75-.173 3.375-.058.375-.086.625-.086.75-.116 2.123-1.208 3.188-3.278 3.188h-3.191c0-.126-.03-.344-.086-.656l-.258-1.125c.804.062 1.811.094 3.019.094 1.38.062 2.098-.529 2.156-1.78v-1.031c.057-.624.086-1.062.086-1.313h-7.331c-.172 2.438-1.725 4.595-4.658 6.47-.23-.313-.633-.782-1.208-1.406 1.84-1.188 3.019-2.344 3.537-3.469.632-1.125.949-2.938.949-5.438l-3.797-.004zm-.431-8.156v2.53h13.973v-2.53h-13.973zm9.919-25.906c-.403 4.562-2.444 8.625-6.124 12.188-.461-.562-.949-1.062-1.466-1.5 4.254-3.688 6.411-8.531 6.469-14.532.114-2.625.172-4.655.172-6.094h1.811v2.156c-.058 1-.086 1.75-.086 2.25.402 7.626 2.558 12.876 6.469 15.75-.288.312-.633.75-1.035 1.313-.116.188-.202.312-.259.375-3.335-2.874-5.319-6.843-5.951-11.906zm10.147 60.062v-1.688h2.674v-4.5h1.639v4.5h2.415v1.688h-2.415v2.531l.259-.375c.229.25.632.625 1.208 1.125.747.688 1.293 1.219 1.639 1.594l-.518.563c2.299-.75 4.11-1.562 5.434-2.438-.979-.938-1.812-2.094-2.501-3.469-.633.876-1.352 1.75-2.156 2.625-.23-.437-.576-.875-1.035-1.313 1.897-2 3.364-4.344 4.399-7.03l1.725.28c-.289.75-.604 1.438-.949 2.063h7.503v1.688c-1.208 2.25-2.587 4-4.14 5.25 1.494.938 3.306 1.625 5.434 2.062-.058.188-.145.501-.259.938-.172.438-.289.75-.345.938-2.531-.812-4.629-1.78-6.296-2.905-1.783 1.188-3.997 2.219-6.642 3.094 0-.062-.029-.155-.086-.281-.116-.249-.289-.563-.518-.938l-.172.281c-.461-.563-1.122-1.313-1.984-2.25v12.188h-1.639v-12.469c-.633 2.375-1.496 4.562-2.587 6.562-.173-.437-.345-1.093-.518-1.968-.058-.188-.086-.313-.086-.377 1.322-2.311 2.357-4.968 3.105-7.968h-2.588v-.001zm6.469-53.687c-.576-.938-1.266-1.969-2.07-3.094v8.905h-1.553v-9.092c-.69 2.376-1.582 4.312-2.674 5.812-.058-.312-.23-.844-.518-1.594-.058-.125-.086-.219-.086-.281 1.322-1.812 2.385-4.187 3.191-7.125h-2.933v-1.594h3.019v-8.344h1.553v8.344h2.673v1.594h-2.673v2.719l.776-.75c.402.501 1.063 1.375 1.984 2.625.287.375.488.655.604.844l-1.293 1.031zm-5.348-9.375c-.345-1.374-.834-2.906-1.466-4.594l1.122-.375c.632 1.5 1.149 3 1.552 4.5l-1.208.469zm4.658 43.156c0 2.187-.748 3.812-2.243 4.875l-.776-.845c1.035-.812 1.581-2.03 1.639-3.655h-1.466v-3.095h2.846v2.72zm1.035-45.5c-.345 1.125-.604 1.907-.776 2.344l-1.208-.563c.632-1.5 1.178-2.968 1.639-4.406l1.121.375c-.116.438-.375 1.188-.776 2.25zm1.293-1.406v-1.313h5.002v-2.063h1.553v2.063h5.52v1.313h-5.52v1.688h5.002v1.313h-5.002v1.688h5.865v1.406h-12.765v-1.406h5.347v-1.688h-4.571v-1.313h4.571v-1.688h-5.002zm.173 83.032v-8.721h10.695v8.721h-1.725v-1.313h-7.331v1.313h-1.639zm.258-64.094v-11.344h10.696v8.531c.057 1.749-.748 2.625-2.415 2.625h-1.208c-.69.062-1.208.094-1.553.094-.058-.562-.172-1.125-.345-1.688.574.062 1.437.094 2.587.094.977.062 1.437-.346 1.38-1.219v-1.031h-7.59v3.938h-1.552zm1.381 56.968v4.405h7.331v-4.405h-7.331zm.172-66.906v1.688h7.59v-1.688h-7.59zm0 3v1.781h7.59v-1.781h-7.59zm3.623 56.874c1.437-1.125 2.644-2.563 3.623-4.313h-6.469l-.086.282c.689 1.5 1.666 2.845 2.932 4.031zm9.974-57.155v-1.688h3.795v-2.625h1.639v2.625h3.881v1.688h-3.881v3.75c1.495-.188 2.875-.375 4.14-.562v1.594c-.69.062-.92.094-.69.094-3.795.438-6.872.844-9.229 1.219l-.259-1.781c.402 0 1.063-.062 1.984-.188 1.035-.062 1.839-.125 2.415-.188v-3.938h-3.795zm15.439 70.749c-.748.062-1.897.094-3.45.094-.116-.813-.259-1.438-.431-1.875.919.062 2.07.095 3.45.095 1.552.123 2.329-.719 2.329-2.531.114-1.313.172-3.563.172-6.75h-14.145c.115 4.75-.72 8.531-2.501 11.344l-.604-.656c-.345-.312-.604-.562-.776-.75.919-1.562 1.523-3.062 1.812-4.5.287-1.374.431-3.529.431-6.469v-8.626h16.646v5.906h-15.007v2.156h15.87c0 2.25-.086 5.125-.259 8.623.055 2.688-1.122 4.001-3.537 3.939zm-15.698-82.937v-1.687h9.833v1.688h-4.571c-.633 1.438-1.583 3.188-2.846 5.25.747-.062 1.781-.125 3.105-.188.69-.062 1.208-.094 1.552-.094-.172-.312-.403-.718-.69-1.219-.345-.563-.604-.968-.776-1.219l1.38-.844c.287.563.718 1.345 1.293 2.344.805 1.375 1.408 2.438 1.812 3.188l-1.38.938c-.23-.562-.518-1.125-.862-1.688-2.415.126-4.342.25-5.779.375-.116 0-.259.032-.431.094-.461 0-.806.063-1.035.188l-.604-1.594c.401-.249.804-.687 1.208-1.312.747-1.125 1.495-2.531 2.242-4.219h-3.451zm0 31.906v-1.5h10.695v1.5h-3.105v3.188h2.76v16.219h-1.466v-1.406h-6.9v1.406h-1.466v-16.22h2.674v-3.188l-3.192.001zm1.811 4.595v5.812c1.264-1.125 1.812-2.874 1.639-5.25v-.562h-1.639zm2.847.561c.172 2.751-.403 4.781-1.725 6.094-.116-.062-.289-.188-.518-.375-.23-.188-.403-.312-.518-.375h.086v2.063h6.9v-2.344h-1.035c-1.151 0-1.725-.656-1.725-1.97v-3.655h-1.466l.001.562zm-2.674 8.813v2.719h6.9v-2.719h-6.9zm1.639 18.031v2.813h13.283v-2.813h-13.283zm1.035-32v3.188h1.466v-3.188h-1.466zm.862 48.125v-6h9.315v6h-9.315zm1.639-4.5v2.999h6.124v-2.999h-6.124zm1.811-39.03h-1.639v3.188c-.058.812.287 1.188 1.035 1.125h.604v-4.313zm11.299-18.126c-.289.5-.518.875-.69 1.125-2.3-1.812-3.853-3.28-4.658-4.405-1.323 1.562-2.962 3.094-4.916 4.594-.116-.188-.317-.438-.604-.75-.345-.375-.575-.656-.69-.844 2.243-1.438 3.968-2.968 5.175-4.595-1.035-1.875-1.812-4.405-2.329-7.594-.116.188-.288.438-.517.75l-.518.844c-.116-.249-.403-.718-.863-1.406l-.172-.188c1.667-2.562 2.875-5.531 3.623-8.906l1.725.281c-.345 1.375-.748 2.688-1.208 3.938h6.813v1.781h-1.639c-.461 4.625-1.41 8.125-2.846 10.5.977 1.5 2.558 2.905 4.744 4.219-.057.124-.201.343-.43.656zm-5.175 32.376c-1.897.062-2.818-.906-2.76-2.906v-9.563h5.52v-6.188h-5.865v-1.688h7.417v9.562h-5.52v7.5c-.058 1.125.518 1.656 1.725 1.595h1.208c1.149.062 1.811-.437 1.983-1.5 0-.312.057-.78.173-1.406.057-.812.114-1.437.172-1.875l.776.281c.345.126.574.22.69.28-.058 1.377-.172 2.471-.345 3.281-.23 1.875-1.293 2.75-3.191 2.625h-1.983v.002zm-2.415-47.188c.518 3.75 1.264 6.532 2.242 8.344 1.15-2.062 1.897-5.03 2.243-8.907h-4.226c-.059.188-.145.375-.259.563zm11.182 29.468v-1.5h7.59c.518-.812.919-1.688 1.208-2.625l1.812.281c-.345.813-.69 1.594-1.035 2.344h10.091v1.5h-6.382c1.552 1.938 3.881 3.251 6.986 3.938-.116.188-.289.562-.518 1.125l-.259.562c-1.783-.623-3.277-1.312-4.485-2.062v.656h-9.66v1.688h11.126v1.312h-11.126v1.688h11.212v1.313h-11.212v1.688h14.576v1.5h-5.951c.229.188.546.469.949.844 1.495 1.313 2.674 2.375 3.536 3.188l-1.38 1.125-1.294-1.406c-4.601.125-8.396.249-11.384.375-.23.062-.576.095-1.035.095-.461.062-.806.094-1.035.094l-.604-1.5c.518-.188.977-.375 1.38-.563 1.035-.75 1.897-1.5 2.587-2.25h-5.951v-1.5h3.967v-7.688c-.633.438-1.754 1.031-3.363 1.781 1.207-.562 1.121-.529-.259.094-.231-.562-.518-1.092-.863-1.594 3.277-1.187 5.692-2.687 7.245-4.5h-6.469v-.003zm.172-14.843v-19.125h7.245v18.844h-1.639v-1.688h-3.968v1.969h-1.638zm1.639-17.438v6.094h3.968v-6.094h-3.968zm0 7.688v6.094h3.968v-6.094h-3.968zm3.709 70.937c0 2.187-.748 3.812-2.243 4.875l-.776-.845c1.035-.812 1.581-2.032 1.639-3.655h-1.466v-3.096h2.846v2.721zm2.501-32.938c-.978.938-2.07 1.813-3.277 2.625.919 0 2.385-.032 4.399-.094 2.415-.063 4.168-.126 5.261-.188l-1.897-1.594.863-.75-5.349.001zm.604-13.406c-.863 1.188-1.812 2.126-2.846 2.813h8.28c-.863-.624-1.725-1.562-2.587-2.813h-2.847zm-.087-29.281v-1.781h7.331v-4.875h1.725v4.875h2.674v1.781h-2.674v12.188c.057 2.062-.949 3.124-3.019 3.188h-3.277l-.259-1.125c-.058-.375-.116-.655-.172-.844.574.062 1.608.094 3.104.094 1.322.062 1.954-.562 1.897-1.875v-11.625l-7.33-.001zm3.192 8.532c-.461-1.062-1.151-2.469-2.07-4.219-.23-.438-.403-.781-.518-1.031l1.38-.844c.345.563.805 1.407 1.38 2.532.632 1.125 1.091 1.969 1.379 2.53l-1.551 1.032zm14.114 59.78l-1.553-1.688c-.69-.75-1.179-1.25-1.466-1.5l1.208-1.125c.401.375.977.938 1.725 1.688.632.625 1.122 1.094 1.466 1.406l-1.38 1.219zm1.035-23.281c-.345.249-.662.624-.949 1.125l-1.208-1.125c.345-.437.518-1.03.518-1.78v-8.531h-2.329v-1.688h4.054v9.47c.172-.188.431-.5.776-.938.69-.75 1.178-1.343 1.466-1.781.114.313.258.72.431 1.22l.259.562c-.862.936-1.868 2.092-3.018 3.466zm-.086 25.999c-.806 3.502-1.438 6.344-1.897 8.532l-1.725-.563c.747-2.812 1.408-5.686 1.984-8.623l1.293.562c.172.063.287.092.345.092zm-.518-8.905l-.345-.377c-1.151-1.373-2.042-2.373-2.674-2.998l1.38-1.031c.287.312.776.812 1.466 1.5l1.552 1.688-1.379 1.218zm-2.07-46.562v-15.657h8.194v-6.562h1.811v6.562h8.194v12.657c.057 1.812-.834 2.719-2.674 2.719-.461.062-1.438.094-2.933.094-.058-.312-.144-.75-.258-1.312-.058-.312-.116-.532-.173-.656.574.062 1.523.094 2.846.094 1.035.062 1.523-.345 1.466-1.219v-10.688h-14.749v13.968h-1.724zm3.191 15.218c-.862-1.187-1.897-2.499-3.105-3.938l1.38-1.031 1.122 1.219c.977 1.125 1.667 1.97 2.07 2.531l-1.467 1.219zm1.035-31.625c-1.265-1.374-2.531-2.625-3.795-3.75l1.208-1.219c1.264 1.063 2.587 2.25 3.968 3.563l-1.381 1.406zm7.591 45.406c-2.07 1.249-4.485 2.312-7.246 3.188-.403-.75-.748-1.313-1.035-1.688 3.334-.938 5.606-1.843 6.814-2.719-1.496-1.5-2.79-3.563-3.882-6.188h-.776v-1.688h11.903v1.875c-1.38 2.625-2.818 4.626-4.313 6 1.322.938 3.392 1.719 6.21 2.344-.116.188-.259.438-.432.75-.288.562-.461.904-.517 1.031-2.875-.936-5.117-1.906-6.726-2.905zm-8.022 16.718v-1.593h3.967v-2.344h1.553v2.344h4.485v-2.344h1.553v2.344h3.967v1.593h-3.967v1.782h-1.553v-1.782h-4.485v1.782h-1.553v-1.782h-3.967zm5.52 11.345c-.345 1.375-1.121 2.845-2.329 4.405l-.518-.562c-.289-.249-.489-.438-.604-.563v3.844h-1.552v-11.812h3.967c.057-.624.086-1.438.086-2.438h-4.571v-1.595h15.525v1.595h-4.57c0 .75-.03 1.562-.086 2.438h3.967v9.094c.057 1.624-.69 2.438-2.242 2.438h-1.122c-.575.062-.979.095-1.208.095-.116-.501-.259-1.063-.431-1.688h2.243c.862 0 1.264-.345 1.208-1.031v-2.062l-.949 1.126c-.173-.188-.432-.5-.776-.938-.289-.312-.776-.904-1.466-1.78-.518 1.5-1.323 2.875-2.415 4.125-.345-.188-.72-.47-1.121-.845 1.725-1.875 2.644-4.219 2.76-7.03h-3.364c0 .563-.058 1.094-.172 1.593.862.812 1.609 1.596 2.243 2.344l-.863 1.127-1.64-1.88zm-4.744-61.281v-6.938h9.057v6.938h-9.057zm4.658 17.562c.173 2.563-.949 4.47-3.364 5.72-.116-.188-.317-.438-.604-.75-.288-.375-.489-.625-.604-.75 2.126-.938 3.105-2.469 2.933-4.595v-2.155h8.884v4.219c-.058.876.345 1.281 1.208 1.219h1.897l-.172 1.781h-2.329c-1.553 0-2.329-.75-2.329-2.25v-3.188h-5.521l.001.749zm-3.364 40.531v6.469c1.553-1.813 2.386-3.969 2.501-6.469h-2.501zm.345-63.436v3.75h5.779v-3.75h-5.779zm2.07 31.155c1.035 2.25 2.213 3.938 3.537 5.063 1.38-1.062 2.702-2.749 3.967-5.063h-7.504zm1.553 28.345v2.438h3.277c.057-.938.086-1.749.086-2.438h-3.363zm7.849-70.095c-1.208 1.251-2.559 2.531-4.054 3.844l-1.121-1.406c1.437-1.25 2.76-2.468 3.967-3.656l1.208 1.218zm-.604 74.031h-2.587c-.058.75-.145 1.469-.259 2.156 1.091 1.188 2.04 2.219 2.846 3.094v-5.25zm5.489-38.75v-1.594h3.709c-.116-.375-.259-.968-.432-1.781l-.518-1.688 1.639-.375c.114.375.287.971.518 1.781.229.876.373 1.5.431 1.875l-1.122.188h3.45v1.594h-4.399l-.086 3.656h3.881c0 1.001-.029 2.562-.086 4.688 0 2.188-.03 3.75-.086 4.688 0 2.124-.862 3.219-2.587 3.281h-1.639c0-.127-.03-.313-.086-.563-.116-.501-.202-.906-.259-1.219.345.062.863.094 1.553.094.977.125 1.466-.437 1.466-1.688.114-2.687.172-5.25.172-7.688h-2.329v.375c-.058.188-.086.345-.086.469 0 4.751-.806 8.344-2.415 10.781-.403-.438-.834-.844-1.294-1.219 1.38-1.938 2.099-5.094 2.156-9.469.057-.563.086-1.595.086-3.095.057-1.374.086-2.405.086-3.094h-1.723v.003zm2.415 36.031v-8.345h15.784v8.345h-6.814v4.219h7.849v1.688h-7.849v4.405c1.84.062 4.887.093 9.143.093-.058.125-.116.282-.172.47-.172.625-.289 1.062-.345 1.312-4.312 0-7.274-.032-8.884-.094-3.508-.063-5.923-1.345-7.245-3.844-.576 1.438-1.61 3.062-3.105 4.875-.345-.438-.776-.907-1.294-1.406 2.357-2.124 3.651-5.312 3.881-9.563l1.725.281c-.172 1.313-.375 2.5-.604 3.563 1.149 2.625 2.846 4.062 5.089 4.312v-10.312h-7.159zm7.763-60.717c-2.415 1.063-5.722 1.875-9.918 2.438l-.259-.844c-.172-.375-.289-.656-.345-.845 3.565-.375 6.469-.969 8.711-1.78-1.266-.75-2.358-1.688-3.277-2.813-.863.813-1.927 1.657-3.191 2.532l-.172-.188c-.289-.5-.576-.875-.863-1.125 2.588-1.562 4.542-3.375 5.865-5.438l1.639.469c-.116.126-.289.344-.518.656-.23.25-.403.469-.518.656h9.488v1.594c-1.553 1.688-3.105 2.939-4.658 3.75 1.954.625 4.658 1.031 8.107 1.219-.058.126-.144.375-.259.75-.172.438-.288.782-.345 1.031-4.37-.438-7.533-1.125-9.487-2.062zm7.762-5.907v-2.625h-15.611v2.625h-1.725v-4.219h8.884c-.058-.312-.172-.812-.345-1.5-.116-.437-.202-.75-.259-.938l1.897-.281c.057.313.143.813.259 1.5.114.501.201.907.259 1.219h8.28v4.219h-1.639zm-14.835 15.657v-7.125h13.973v7.125h-1.639v-1.03h-10.609v1.03h-1.725zm1.121 44.405v4.875h12.162v-4.875h-12.162zm.604-50.031v3.095h10.609v-3.095h-10.609zm5.434-5.906c1.495-.624 2.961-1.625 4.399-3h-8.28c1.149 1.312 2.443 2.313 3.881 3zm.345 25.624c-.863 1.5-1.639 2.625-2.329 3.375l-.345-.375c-.403-.375-.69-.688-.863-.938 1.667-1.812 2.933-3.999 3.795-6.562l1.725.281c-.116.375-.345.906-.69 1.594-.172.438-.316.781-.431 1.031h8.884v1.594h-9.746zm2.76 13.688v-7.219l-2.76.656v6.562c-.116 1.376.517 2 1.897 1.875h4.054c1.38.125 2.126-.312 2.242-1.312 0-.124.028-.281.086-.47 0-.248.086-.812.259-1.688.459.188.919.345 1.38.469 0 .813-.116 1.657-.345 2.531-.289 1.438-1.352 2.124-3.191 2.062h-5.002c-2.014.062-2.99-.905-2.933-2.905v-6.845l-1.208.281-.172-1.594 1.38-.281v-2.812h1.553v2.531l2.76-.656v-3.938h1.466v3.656l4.571-1.031c-.058 1.875-.144 3.782-.259 5.72.057 1.75-.633 2.625-2.07 2.625-.518.062-1.035.094-1.553.094-.058-.563-.144-1.094-.259-1.594h1.294c.747.062 1.149-.375 1.208-1.313v-1.688c.057-.938.086-1.562.086-1.875l-3.019.656v7.5h-1.465v.003zm13.079-32.749c-.345 1.563-1.035 3.188-2.07 4.875l-1.38-1.125c.919-1.438 1.523-2.874 1.812-4.312.287-1.374.431-3.469.431-6.281v-8.157h8.279c-.23-.75-.518-1.5-.862-2.25l1.897-.281c.114.25.345.813.69 1.688l.259.844h7.159v5.625h-15.698v2.438c0 3.061-.172 5.374-.517 6.936zm7.332 56.686c-2.186 1.125-5.52 2.188-10.005 3.188l-.518-1.405c-.058-.188-.116-.344-.172-.47 3.622-.562 6.611-1.374 8.97-2.438-1.323-.875-2.646-2.188-3.967-3.938-1.035 1.188-2.156 2.344-3.364 3.469-.345-.562-.69-1.062-1.035-1.5 2.53-2.123 4.513-4.5 5.951-7.125l1.812.375c-.403.625-.834 1.281-1.294 1.969h10.868v1.875c-1.61 2.063-3.394 3.688-5.348 4.875 2.012.938 4.772 1.595 8.28 1.97-.173.375-.375.905-.604 1.594-.058.126-.086.22-.086.281-4.027-.625-7.189-1.532-9.488-2.72zm-10.005-27.967v-1.688h19.751v1.688h-6.728v4.312c-.116 1.188.431 1.719 1.639 1.594h1.725c1.091.062 1.695-.344 1.811-1.219.115-.688.229-1.53.345-2.531.229.126.574.251 1.035.375.287.126.488.221.604.281-.116 1.001-.259 1.907-.431 2.719-.23 1.438-1.237 2.124-3.019 2.063h-2.673c-1.956.062-2.904-.876-2.847-2.813v-4.781h-3.708c.229 4.063-2.042 6.812-6.813 8.25-.23-.438-.604-1-1.121-1.688 4.369-1.062 6.41-3.249 6.123-6.562h-5.693zm.431-7.126v-4.313h8.883c-.116-.375-.345-.999-.69-1.875l-.259-.563 1.897-.375c.345.877.69 1.781 1.035 2.719l-.345.095h8.28v4.313h-1.811v-2.625h-15.267v2.625h-1.723zm2.07 2.25v-1.688h14.749v1.688h-14.749zm0 45.126v-9h14.576v9h-1.725v-1.313h-11.126v1.313h-1.725zm1.121-74.219v-1.594h7.417l-.259-1.125c-.116-.312-.202-.563-.259-.75l1.811-.281.518 2.157h7.245v1.594h-10.954c0 .876-.03 1.656-.086 2.345h8.884c0 .625-.058 1.75-.172 3.375-.058.375-.086.625-.086.75-.116 2.123-1.208 3.188-3.277 3.188h-3.191c0-.126-.03-.345-.086-.656l-.259-1.125c.805.062 1.812.094 3.019.094 1.38.062 2.098-.529 2.156-1.78v-1.031c.057-.624.086-1.063.086-1.313h-7.331c-.172 2.438-1.725 4.595-4.658 6.47-.23-.313-.633-.782-1.207-1.406 1.839-1.188 3.019-2.344 3.536-3.469.632-1.125.949-2.938.949-5.438h-3.796v-.005zm-.432-8.157v2.531h13.973v-2.531h-13.973zm1.036 74.968v4.594h11.126v-4.594h-11.126zm5.865-6.937c1.897-1.062 3.593-2.438 5.088-4.126h-9.746c1.437 1.751 2.99 3.127 4.658 4.126zm33.089 2.345c-.289.438-.489.75-.604.938-4.025-2.375-7.044-5.218-9.056-8.531-2.243 3.438-5.405 6.407-9.487 8.906-.173-.249-.461-.624-.863-1.125-.172-.312-.288-.5-.345-.562 4.886-2.938 8.28-6.281 10.177-10.031l1.984.281-.518.938c2.126 3.438 5.231 6.188 9.315 8.25-.115.186-.316.498-.603.936zm-19.665-59.5v-1.594h4.744v-2.719h1.639v2.719h4.658v1.594h-4.658v4.22l5.175-.656c-.058.313-.086.844-.086 1.594-2.014.188-5.205.593-9.574 1.22-.92.123-1.639.218-2.156.28l-.345-1.875c.977 0 2.558-.094 4.744-.28-1.496.125-1.293.094.604-.095v-4.405h-4.745v-.003zm.345 21.124v-1.406h5.52l-1.725-2.156 1.639-.562c.977 1.062 1.667 1.845 2.07 2.344l-.69.375h4.399c.287-.438.805-1.094 1.553-1.969.287-.375.488-.625.604-.75l1.725.562-1.812 2.156h5.693v1.406h-8.625v1.688h7.676v1.406h-7.676v1.688h9.142v1.406h-4.744l1.639.656-1.552 1.969h5.002v1.406h-20.7v-1.406h5.089c-.633-.812-1.208-1.5-1.725-2.062l1.294-.563h-4.399v-1.406h9.229v-1.688h-7.676v-1.406h7.676v-1.688h-8.626zm-.69-33.031v-1.688h11.816v1.688h-5.865c-.748 1.438-1.811 3.157-3.191 5.156l6.037-.375c-.172-.249-.431-.687-.776-1.313-.345-.5-.604-.905-.776-1.219l1.294-.75c1.264 1.938 2.357 3.75 3.277 5.438l-1.38.845c-.173-.188-.345-.5-.518-.938-.116-.188-.202-.343-.259-.469-3.163.126-5.377.25-6.641.375-.173 0-.403.032-.69.094-.633.063-1.093.126-1.38.188l-.69-1.688c.518-.375.863-.687 1.035-.938 1.035-1.5 1.954-2.968 2.76-4.406h-4.053zm2.242 51.407v-6.375h15.784v6.375h-1.725v-1.031h-12.334v1.031h-1.725zm1.725-4.97v2.531h12.334v-2.531h-12.334zm2.329-5.438c.229.312.402.532.518.655l-.431.188h2.933v-2.625h-4.485c.286.314.775.908 1.465 1.782zm2.847 42.408v-13.875h1.984v13.875h-1.984zm4.485-41.564l1.811-2.625h-4.398v2.625h2.587zm-.346-27.968v-14.344h1.639v14.344h-1.639zm3.709 5.063c-.403.062-1.41.094-3.019.094-.058-.875-.172-1.531-.345-1.969.46.062 1.409.094 2.846.094.919 0 1.38-.469 1.38-1.405v-18.563h1.725v18.938c.057 1.873-.805 2.811-2.587 2.811zm6.265-18.469v-1.781h7.332v1.781h-2.501v15.562c.115 1.625-.69 2.469-2.415 2.531h-1.811c0-.501-.116-1.125-.345-1.875.69.062 1.264.094 1.725.094.862.062 1.264-.343 1.208-1.219v-15.093h-3.193zm.087 73.655v-1.406h20.7v1.406h-10.005l-.431 1.875h8.797v4.688c.057 1.499-.69 2.28-2.242 2.345h-1.984c0-.063-.03-.221-.086-.47-.116-.562-.202-.938-.259-1.125.632.062 1.178.095 1.639.095.919.062 1.35-.313 1.293-1.125v-3h-3.795v5.248h-1.552v-5.248h-3.537v5.344h-1.552v-5.344h-3.709v5.812h-1.639v-7.219h6.9l.432-1.875-8.97-.001zm1.639-10.687v-1.312h17.25v1.312h-7.762v1.595h8.883v4.219h-1.552v-2.907h-7.331v5.251h-1.639v-5.251h-7.245v2.907h-1.639v-4.219h8.884v-1.595h-7.849zm4.398-16.156c0 2.187-.748 3.812-2.242 4.875l-.776-.845c1.035-.812 1.581-2.03 1.639-3.655h-1.466v-3.095h2.846l-.001 2.72zm-2.328 21.593v-1.031h4.485v1.031h-4.485zm0 2.344v-1.031h4.485v1.031h-4.485zm15.87-52.093c-1.035-.938-2.818-2.499-5.347-4.688.114.126 0 .032-.345-.28-.748 2.062-2.962 3.844-6.642 5.344-.345-.626-.69-1.188-1.035-1.688 2.875-1.062 4.714-2.188 5.521-3.375.919-1.187 1.38-3.219 1.38-6.094l.086-2.157h1.639l-.086 2.157c0 1.563-.116 2.969-.345 4.219.69.563 1.753 1.438 3.191 2.625 1.495 1.188 2.558 2.03 3.191 2.531l-1.208 1.406zm-11.644-19.313v-1.688h12.593v1.688h-5.865l-.69 3.094h5.606v11.344h-1.639v-9.75h-7.936v9.844h-1.725v-11.438h3.968l.69-3.094h-5.002zm4.572 69.062v-1.031h4.398v1.031h-4.398zm0 2.344v-1.031h4.398v1.031h-4.398zm12.13-59.218h-.345l-.604-1.688c.402-.188.919-.75 1.553-1.688.632-.812 1.264-1.78 1.897-2.906-1.151.063-2.243.157-3.277.281l-.518-1.688c.345-.375.747-.968 1.208-1.781.804-1.313 1.695-3.094 2.673-5.344l1.725.656c-.058.126-.144.281-.258.469-1.438 2.625-2.56 4.594-3.364 5.906h1.208c.747-.062 1.294-.094 1.639-.094l.776-1.406c.287-.563.518-.999.69-1.313l1.553.75c-1.093 1.875-2.79 4.532-5.089 7.968.402 0 1.035-.062 1.897-.188.977-.062 1.695-.125 2.156-.188-.116.75-.172 1.281-.172 1.594-1.841.191-3.623.411-5.348.66zm-.603 20.749v-1.875h19.837v1.875h-7.762c-.863 1.626-1.811 3.094-2.846 4.405h1.466v14.25h-1.897v-13.594c-2.186 2.751-4.946 5.344-8.28 7.781-.058-.062-.145-.188-.259-.375-.461-.624-.776-1.031-.949-1.219 4.886-3.375 8.423-7.125 10.608-11.25l-9.918.002zm5.864-16.811c-2.013.313-4.054.719-6.124 1.219l-.345-1.688c.69-.125 1.868-.375 3.537-.75 1.264-.249 2.242-.438 2.932-.562v1.781zm2.588 59.685c-2.933 1.688-5.665 3.281-8.194 4.781l-.776-1.875c3.852-2 6.728-3.623 8.625-4.875 0 .188.057.438.172.75.057.564.115.971.173 1.219zm-8.711-8.342v-1.781h9.315v-4.5h1.725v4.5h9.143v1.781h-9.143v.655c.69 1.938 1.466 3.625 2.329 5.063 1.667-1.438 3.162-2.906 4.485-4.406l1.294 1.406c-1.841 1.688-3.45 3.126-4.83 4.312 1.38 1.875 3.42 3.563 6.124 5.062-.289.376-.634.906-1.035 1.595-3.967-2.188-6.757-5.25-8.366-9.188v7.97c.114 2.124-.892 3.188-3.019 3.188-.92.062-1.811.095-2.673.095-.116-.75-.23-1.406-.345-1.97.518.062 1.322.095 2.415.095 1.322.062 1.954-.595 1.897-1.97v-11.905h-9.316v-.002zm5.175 6.468c-.862-1.125-1.983-2.47-3.364-4.031l1.208-1.125c.518.501 1.322 1.345 2.415 2.531.518.625.891 1.062 1.122 1.312l-1.381 1.313zm9.745-58.374c-1.38 1.437-3.048 2.779-5.002 4.031-.23-.313-.604-.845-1.121-1.595 2.243-1.25 3.88-2.53 4.916-3.844-1.438-1.937-2.53-4.219-3.277-6.844-.172 4.688-1.496 8.657-3.967 11.905-.116-.125-.345-.345-.69-.655-.289-.313-.518-.532-.69-.656 1.495-1.937 2.501-3.938 3.019-6 .574-2.063.862-5.157.862-9.282v-2.438h-1.811v-1.688h10.608v1.781l-2.07 4.688h3.623v1.688c-.806 2.939-1.897 5.438-3.278 7.5 1.208 1.312 2.702 2.438 4.485 3.375-.345.562-.69 1.154-1.035 1.781-1.841-1.248-3.364-2.496-4.572-3.747zm-4.311-13.594v1.594c1.091 3.938 2.5 7 4.225 9.188 1.092-1.688 2.012-3.718 2.76-6.094h-3.623v-1.781l2.07-4.688h-5.433l.001 1.781zm8.538 43.25c-3.221-2.562-5.55-4.375-6.986-5.438l1.122-1.406c1.208.813 3.019 2.126 5.434 3.938.805.626 1.38 1.062 1.725 1.312l-1.295 1.594zm-3.105 20.468c-.979-.938-1.956-1.843-2.933-2.72l1.208-1.03c1.035.749 2.041 1.626 3.019 2.625l-1.294 1.125zm8.162-54.342v-1.5h18.803v1.5h-8.539v2.25h7.503v1.5h-7.503v2.156h9.401v1.594h-20.614v-1.594h9.488v-2.156h-7.504v-1.5h7.504v-2.25h-8.539zm.26 39.967v-20.906h18.199v17.719c.114 1.999-.807 3-2.761 3-.92.062-1.983.095-3.19.095v-.281c-.058-.375-.172-.938-.345-1.688.574.062 1.522.095 2.846.095 1.264.062 1.839-.438 1.725-1.5v-15.75h-14.749v19.219l-1.725-.003zm4.313 31.531c-1.841-.187-2.876-1.28-3.105-3.28.172-2.123 1.208-3.281 3.105-3.468 1.954.187 3.019 1.345 3.191 3.468-.173 1.998-1.237 3.093-3.191 3.28zm-3.02-74.967v-8.625h4.744c.345-.75.574-1.468.69-2.156l1.897.188c-.172.625-.431 1.282-.776 1.969h9.143v8.625h-15.697v-.001zm3.02 69.624c-1.093.126-1.697.813-1.811 2.062.114 1.063.718 1.655 1.811 1.782 1.149-.127 1.782-.719 1.897-1.782-.116-1.25-.748-1.936-1.897-2.062zm-1.381-76.75v2.157h12.334v-2.156l-12.334-.001zm0 3.469v2.156h12.334v-2.156h-12.334zm.259 32.376v-1.688h11.902v1.688h-11.902zm1.466 10.124v-7.406h8.884v7.406h-8.884zm1.639-5.719v4.125h5.606v-4.125h-5.606zm19.031 5.531c-.289 1.626-.92 3.313-1.897 5.063-.403-.502-.834-1.031-1.294-1.595.862-1.5 1.408-2.937 1.639-4.312.229-1.313.346-3.499.346-6.563v-8.625h15.61v10.5c0 4.313.201 6.907.604 7.781.115.375.314.529.604.469.229 0 .373-.22.432-.656.173-1.623.287-2.906.346-3.844.459.188.948.375 1.466.563-.116 1.688-.288 2.938-.518 3.75-.23 1.5-.894 2.25-1.983 2.25-.921-.063-1.582-.72-1.983-1.97-.461-1.125-.689-3.904-.689-8.344v-8.719h-12.162v6.656c-.004 3.441-.176 5.972-.521 7.596zm.258-41.281v-1.5h14.146v1.5h-5.95c-.69.563-1.353 1.063-1.983 1.5.057.126.172.282.345.469.746 1.063 1.235 1.907 1.466 2.531 2.07-.938 4.228-2.094 6.47-3.469l.949 1.5c-.862.438-2.156 1.125-3.883 2.063 1.035 3.25 2.961 5.438 5.779 6.562-.058.062-.116.156-.173.281-.23.249-.547.656-.948 1.219-3.104-1.5-5.118-3.969-6.038-7.406l-1.552.75c.401 1.188.604 2.438.604 3.75.058 2.874-1.034 4.313-3.276 4.313h-2.761c-.059-.313-.173-.75-.346-1.313-.058-.188-.086-.345-.086-.469.806.062 1.695.094 2.674.094 1.494.124 2.186-.75 2.069-2.625.057-.562 0-1.187-.172-1.875-2.415 2.5-5.664 4.438-9.747 5.813-.23-.563-.518-1.125-.862-1.688 4.082-1.062 7.476-2.968 10.179-5.719-.173-.5-.374-.969-.604-1.406-2.415 2.001-5.262 3.596-8.54 4.781-.229-.688-.489-1.25-.775-1.688 3.277-.875 6.152-2.345 8.625-4.406-.23-.375-.489-.75-.775-1.125-2.129 1.312-4.516 2.376-7.16 3.188-.229-.562-.489-1.125-.776-1.688 3.623-.75 6.583-2.063 8.885-3.938h-5.784zm-2.674-1.312v-4.031h9.401c-.346-.875-.689-1.718-1.034-2.531l1.896-.375c.345.75.689 1.657 1.035 2.719l-.602.187h8.713v4.031h-1.727v-2.438h-15.957v2.438h-1.725zm13.283 45.031c-.403-.5-1.008-1.344-1.812-2.531-.92-1.5-1.639-2.594-2.156-3.281-1.438 2.126-3.104 4.157-5.002 6.094-.116-.126-.316-.312-.604-.562-.346-.312-.575-.53-.69-.656 2.186-2.374 3.938-4.53 5.261-6.469l-4.484-6.469 1.38-1.031 4.14 5.906c1.092-1.688 2.213-3.78 3.364-6.281l1.466.844c-1.207 2.625-2.473 4.969-3.795 7.031 1.035 1.376 2.415 3.406 4.141 6.094-.115-.124-.029 0 .259.375l-1.468.936zm10.147-47.844v-1.5h7.591c.519-.812.919-1.688 1.207-2.625l1.812.281c-.347.813-.69 1.594-1.035 2.344h10.091v1.5h-6.382c1.552 1.938 3.881 3.25 6.986 3.938-.116.188-.289.562-.519 1.125l-.259.562c-1.783-.624-3.277-1.312-4.485-2.062v.656h-9.66v1.688h11.127v1.312h-11.127v1.688h11.214v1.313h-11.214v1.688h14.576v1.5h-5.951c.229.188.547.469.949.844 1.494 1.313 2.674 2.375 3.536 3.188l-1.38 1.125-1.294-1.406c-4.602.124-8.396.249-11.385.375-.23.062-.575.095-1.035.095-.461.062-.807.094-1.035.094l-.604-1.5c.519-.188.978-.375 1.381-.563 1.034-.75 1.896-1.5 2.588-2.25h-5.951v-1.5h3.967v-7.688c-.633.438-1.755 1.031-3.363 1.782 1.207-.563 1.121-.531-.259.094-.229-.563-.518-1.093-.862-1.594 3.277-1.187 5.692-2.687 7.244-4.5h-6.469v-.004zm-.258 34.25v-1.688h2.673v-4.5h1.639v4.5h2.415v1.688h-2.415v2.531l.26-.375c.229.251.633.626 1.208 1.125.746.688 1.294 1.219 1.639 1.594l-.518.563c2.299-.75 4.109-1.562 5.434-2.438-.979-.938-1.812-2.093-2.501-3.469-.634.876-1.353 1.751-2.156 2.625-.229-.437-.575-.874-1.035-1.313 1.897-1.998 3.363-4.343 4.398-7.03l1.726.28c-.289.75-.604 1.438-.949 2.063h7.505v1.688c-1.207 2.25-2.587 4-4.141 5.25 1.494.938 3.307 1.625 5.435 2.062-.059.188-.146.501-.26.938-.173.438-.287.75-.345.938-2.531-.812-4.63-1.78-6.297-2.905-1.782 1.188-3.997 2.219-6.641 3.094 0-.062-.03-.155-.087-.281-.115-.249-.288-.563-.519-.938l-.172.281c-.461-.563-1.121-1.313-1.984-2.25v12.188h-1.639v-12.469c-.633 2.375-1.495 4.562-2.587 6.562-.173-.438-.346-1.094-.519-1.969-.058-.188-.086-.312-.086-.375 1.321-2.312 2.356-4.969 3.104-7.969h-2.586v-.001zm8.279-20.843c-.979.938-2.07 1.812-3.277 2.625.919 0 2.386-.032 4.397-.094 2.415-.063 4.17-.126 5.263-.188l-1.897-1.594.862-.75-5.348.001zm.604-13.407c-.862 1.188-1.811 2.125-2.846 2.813h8.279c-.862-.624-1.726-1.562-2.588-2.813h-2.845zm-.604 50.47v-8.72h10.694v8.72h-1.726v-1.313h-7.331v1.313h-1.637zm1.639-7.126v4.405h7.331v-4.405h-7.331zm3.795-7.032c1.437-1.125 2.645-2.562 3.623-4.313h-6.469l-.086.281c.69 1.501 1.667 2.846 2.932 4.032zM59.463 54.191v-5.031h33.756v5.031h-14.538c-.225 2.875-.501 5.57-.835 8.086h18.214v5.211h-19.05v.539c-.112.241-.167.421-.167.539h4.679v11.5c-.225 2.516.778 3.655 3.008 3.414h2.841c2.005.121 3.118-.958 3.342-3.234.222-.837.389-2.274.501-4.313.11-.359.167-.657.167-.898 1.893.719 3.564 1.258 5.013 1.617-.334 3.234-.668 5.511-1.002 6.828-.559 3.352-2.841 4.969-6.852 4.852h-5.682c-4.569.118-6.797-2.098-6.685-6.648v-11.141c-2.229 7.788-7.632 14.133-16.209 19.047-.334-.48-.948-1.258-1.838-2.336-.781-1.078-1.395-1.859-1.838-2.336 9.024-5.031 14.092-10.84 15.207-17.43h-14.873v-5.211h15.875c.334-2.516.556-5.211.668-8.086h-13.702zm41.58 9.344v-4.672h7.854v-5.391l-6.517.359c-.112-1.196-.392-2.754-.836-4.672 5.235-.118 11.196-.478 17.881-1.078l1.002 4.492c-2.564.359-4.903.539-7.019.539v5.75h7.186v3.594c2.562-4.551 4.399-9.883 5.515-15.992l4.846.898c-.225.839-.559 2.097-1.003 3.773-.334 1.078-.559 1.917-.668 2.516h12.032v5.031h-2.673c-.668 7.547-2.34 13.777-5.014 18.688 2.449 2.875 5.123 5.152 8.021 6.828-.781 1.438-1.616 3.055-2.507 4.852-3.566-2.516-6.407-5.031-8.522-7.547-2.339 2.757-5.405 5.508-9.191 8.266-.112-.121-.225-.359-.334-.719-.893-1.32-1.561-2.277-2.005-2.875h-12.032v2.695h-4.512v-19.405h6.35v-5.93h-7.854zm6.016 10.422v8.086h8.021v-8.086h-8.021zm15.374-5.57c-.334.601-.613 1.078-.835 1.438-.334-.837-.781-2.036-1.337-3.594-.334-.837-.559-1.438-.668-1.797 0-.118.055-.18.167-.18.11-.239.167-.478.167-.719h-6.518v5.93h6.35v14.914c3.342-2.156 6.016-4.551 8.021-7.188-1.671-3.234-2.953-7.008-3.844-11.32-.333.601-.835 1.438-1.503 2.516zm4.679-8.985c.668 5.391 1.893 9.883 3.676 13.477 1.893-3.833 3.008-8.563 3.342-14.195h-6.684c-.112.121-.167.241-.167.359-.112.121-.167.241-.167.359zm25.035 9.164c-1.227-1.317-3.065-3.055-5.514-5.211.222.241-.058 0-.836-.719l3.175-3.594c1.002.839 2.449 2.038 4.345 3.594 1.003.839 1.726 1.438 2.172 1.797l-3.342 4.133zm1.839 8.985c-1.449 5.632-2.397 9.582-2.841 11.859l-4.846-1.438c.891-3.234 2.172-8.504 3.844-15.813.556.121 1.337.359 2.339.719 1.112.359 1.893.66 2.339.898-.224.841-.501 2.099-.835 3.775zm-.836-21.024c-.668-.719-1.729-1.735-3.175-3.055-1.337-1.317-2.397-2.274-3.175-2.875l3.008-3.594c.668.601 1.893 1.617 3.676 3.055 1.337 1.078 2.34 1.917 3.008 2.516l-3.342 3.953zm5.014 5.75c-.334-.478-.835-1.137-1.504-1.977-.668-.837-1.227-1.438-1.671-1.797 3.564-3.473 6.238-7.547 8.021-12.219l5.181.539c-.225.359-.501.898-.836 1.617-.334.719-.613 1.258-.835 1.617h19.05v4.313h-21.39c-.668 1.078-1.395 2.156-2.172 3.234h21.223c-.112.601-.167 2.336-.167 5.211-.112 2.277-.167 4.074-.167 5.391h3.509v4.313h-3.509c-.112 2.277-.167 4.433-.167 6.469h2.841v4.133h-3.008c-.225 4.191-2.452 6.227-6.684 6.109h-6.685c-.112-.601-.446-1.5-1.002-2.695-.112-.601-.225-1.02-.334-1.258h6.517c2.115.118 3.285-.601 3.509-2.156h-20.387l1.003-10.602h-3.342v-4.313h3.843l.668-7.727-1.505 1.798zm19.886 16.711c.109-1.317.167-3.473.167-6.469h-15.04l-.668 6.469h8.857c-1.227-1.196-2.674-2.395-4.345-3.594l2.339-2.875c1.893 1.319 3.619 2.577 5.181 3.773l-2.34 2.695 5.849.001zm-13.87-17.07l-.668 6.289h8.355c-.668-.598-1.671-1.438-3.008-2.516-.668-.598-1.169-1.017-1.504-1.258l2.507-2.516-5.682.001zm14.204 6.289v-6.289h-8.188c.778.48 1.838 1.258 3.175 2.336.668.601 1.17 1.019 1.504 1.258l-2.339 2.695h5.848zm27.208 15.273c-4.457 2.156-8.635 4.012-12.533 5.57-.668-1.32-1.449-2.695-2.34-4.133 3.898-1.078 8.021-2.695 12.366-4.852l2.507 3.415zm-11.029-21.562v-13.656h33.087v13.656h-14.037l.668 2.516h16.878v3.594h-40.273v-3.594h17.88c-.112-.239-.279-.719-.501-1.438-.112-.478-.225-.837-.334-1.078h-13.368zm9.692 27.312c-.112-.242-.225-.781-.334-1.617-.334-1.438-.613-2.457-.835-3.055h4.011c1.781.118 2.616-.478 2.506-1.797v-3.055h-13.87v-9.344h30.748v9.344h-12.032v3.953c.11 3.473-1.616 5.27-5.18 5.391l-5.014.18zm-4.846-37.734v2.336h23.228v-2.336h-23.228zm0 4.852v2.516h23.228v-2.516h-23.228zm1.17 17.25v2.875h20.889v-2.875h-20.889zm28.408 15.093c-4.791-2.156-8.802-3.773-12.032-4.852l2.172-3.414c1.781.601 4.232 1.438 7.353 2.516 2.115.839 3.731 1.378 4.846 1.617l-2.339 4.133zm15-17.429c-.112 7.188-1.616 13.235-4.512 18.148l-2.005-1.438c-.893-.601-1.562-1.078-2.005-1.438 2.784-4.313 4.065-11.141 3.844-20.484v-15.452h15.04l-.501-1.617c-.334-.958-.614-1.617-.836-1.977l6.016-.539c0 .241.167.78.501 1.617.334 1.078.556 1.917.668 2.516h13.87v12.398h-29.913v3.773h12.867c-.225-.958-.501-1.915-.835-2.875l5.515-.539.835 3.414h13.369v4.492h-20.22v3.234h16.711c0 .601-.057 1.558-.167 2.875-.112 2.397-.225 4.015-.334 4.852-.225 4.43-2.34 6.586-6.351 6.469h-6.852c-.446-1.679-.835-3.176-1.169-4.492 1.559.121 3.564.18 6.016.18 2.34 0 3.509-.898 3.509-2.695v-1.258c.11-.837.167-1.438.167-1.797h-12.199c-.559 3.835-3.399 7.605-8.522 11.32-1.337-1.679-2.507-3.055-3.509-4.133 5.682-3.353 8.298-8.204 7.854-14.555h-6.852v.001zm.167-16.172v3.773h25.066v-3.773h-25.066z"/><path fill="#95F2DC" d="M267.791 27.13c-.64-.687-1.599-1.594-2.877-2.719.116.126-.03 0-.436-.375l1.657-1.875c.523.438 1.278 1.063 2.267 1.875.523.438.901.75 1.134.938l-1.745 2.156zm.959 4.687c-.756 2.938-1.251 4.999-1.482 6.188l-2.528-.75c.464-1.688 1.133-4.438 2.005-8.25.29.063.697.188 1.221.375.58.188.987.344 1.22.469-.117.438-.261 1.093-.436 1.968zm-.436-10.968c-.349-.375-.902-.905-1.657-1.594-.697-.687-1.25-1.187-1.657-1.5l1.57-1.875c.349.313.987.844 1.918 1.594.697.563 1.221 1 1.569 1.313l-1.743 2.062zm2.616 3c-.175-.249-.436-.593-.785-1.031-.349-.437-.641-.75-.872-.938 1.859-1.812 3.254-3.938 4.185-6.375l2.703.281c-.117.188-.262.469-.436.844-.175.375-.32.656-.436.844h9.939v2.25h-11.16c-.349.563-.728 1.125-1.133 1.688h11.073c-.059.313-.087 1.219-.087 2.719-.059 1.188-.087 2.125-.087 2.813h1.831v2.25h-1.831c-.058 1.188-.087 2.313-.087 3.375h1.482v2.156h-1.569c-.117 2.187-1.279 3.249-3.487 3.188h-3.487c-.059-.313-.233-.782-.523-1.406-.059-.313-.117-.532-.174-.656h3.4c1.104.062 1.714-.313 1.831-1.125h-10.637l.523-5.531h-1.744v-2.25h2.005l.349-4.031-.786.935zm10.375 8.718c.057-.688.087-1.812.087-3.375h-7.847l-.349 3.375h4.621c-.64-.624-1.395-1.25-2.267-1.875l1.221-1.5c.988.688 1.888 1.345 2.703 1.969l-1.22 1.406h3.051zm-7.236-8.906l-.349 3.281h4.359c-.349-.312-.872-.75-1.569-1.313-.349-.312-.61-.53-.784-.656l1.308-1.313-2.965.001zm7.41 3.281v-3.281h-4.272c.406.25.959.656 1.657 1.219.349.313.61.532.785.656l-1.221 1.406h3.051zm7.812 9.938v-2.719h7.847v-18.281h2.964v6.563h8.37v2.813h-8.37v8.906h9.939v2.719l-20.75-.001zm24.55-18v-1.781h9.068c0-.188-.06-.437-.175-.75-.06-.312-.117-.53-.175-.656l2.878-.188.349 1.594h8.806v1.781h-20.751zm19.792 17.812c-.059.188-.117.312-.174.375-2.965-1-4.913-2.499-5.842-4.5-.292.063-.523.157-.698.281v.656c.058.375.088.656.088.844.115 2.375-1.047 3.563-3.487 3.563h-2.789c-.176-.375-.38-1-.61-1.875h2.79c1.162.062 1.714-.438 1.656-1.5v-.656c-2.268 1.375-5.552 2.687-9.853 3.938-.349-.813-.641-1.406-.872-1.781 3.836-.626 7.324-1.813 10.462-3.563 0-.125-.059-.281-.174-.469-.059-.188-.117-.312-.175-.375-2.151 1.251-5.145 2.407-8.98 3.469-.292-.687-.609-1.28-.959-1.781 3.545-.624 6.626-1.562 9.242-2.813l-.522-.563c-2.21.813-4.795 1.532-7.761 2.156-.406-.875-.696-1.437-.872-1.688 3.255-.437 5.929-1.031 8.021-1.781h-4.446v-1.5h13.078v1.5h-4.708c-.349.126-.728.281-1.134.469.522.563.959 1.125 1.308 1.688 2.324-.938 4.187-1.749 5.58-2.438l1.309 1.875c-.467.25-1.163.563-2.093.938l-1.309.563c.93 1.626 2.645 2.751 5.145 3.375-.292.25-.698.78-1.221 1.593zm-19.443-8.625v-3.563h20.053v3.563h-2.528v-1.969h-15.083v1.969h-2.442zm2.267-4.5v-3.844h15.52v3.844h-15.52zm2.528-2.437v1.031h10.463v-1.031h-10.463zm19.93 2.062v-5.156h8.457c-.174-.75-.407-1.468-.697-2.156l3.14-.281c.23.876.465 1.688.696 2.438h7.936v5.063h-2.441l.349 2.063c-1.687.188-4.358.407-8.021.656v2.813l10.463-.844.175 2.531-10.638.938v1.969c-.059 1.251.465 1.844 1.569 1.781h3.924c1.046.063 1.656-.406 1.831-1.406 0-.062.027-.155.087-.281.058-.687.116-1.343.175-1.969.755.313 1.626.595 2.615.844-.06.876-.232 1.907-.522 3.094-.35 1.437-1.481 2.156-3.399 2.156h-5.755c-2.21 0-3.313-1.188-3.313-3.563v-2.438l-6.888.563-.174-2.625 7.062-.563v-2.813l-4.97.375-.35-2.625c6.452-.312 11.653-.687 15.607-1.125v-1.969h-14.213v2.531l-2.705-.001z"/><path fill="#F8FF63" d="M306.297 81.339c-.8 2.109-1.635 4.024-2.507 5.742l-2.397-.938c.872-1.796 1.706-3.71 2.506-5.742l2.398.938zm-3.923-14.062v-2.813h4.904c-.073-.39-.255-.976-.544-1.758-.073-.312-.146-.546-.219-.703l3.378-.352c.363 1.172.617 2.109.764 2.813h4.358v2.813h-3.597l2.725 1.055-1.853 3.047h3.27v2.813h-5.122v2.461h4.687v2.813h-4.687v6.445c.071 2.186-.945 3.319-3.052 3.398-.509.077-1.381.117-2.616.117-.146-1.33-.364-2.344-.654-3.047h1.9620000000000002c.943.077 1.379-.352 1.308-1.289v-5.625h-5.013v-2.813h5.013v-2.461h-5.667v-2.813h3.488c-.583-1.015-1.199-1.992-1.853-2.93l2.071-1.172-3.051.001zm4.686 1.875c.363.547.654.978.872 1.289l-1.635.938h3.051c.363-.625.834-1.523 1.417-2.695l.654-1.406h-5.558c.29.468.69 1.094 1.199 1.874zm6.103 16.64l-2.289-4.336 2.289-1.172c.799 1.406 1.562 2.774 2.289 4.102.726-2.187 1.09-5.273 1.09-9.258v-11.25c3.706-.234 7.084-.625 10.136-1.172l.98 3.047c-2.762.469-5.449.82-8.065 1.055v5.039h8.5v3.164h-2.725v14.414h-2.942v-14.414h-2.833v.352c.146 6.094-.836 10.86-2.941 14.297-.292-.158-.728-.469-1.309-.938-.653-.392-1.127-.703-1.417-.938.146-.234.327-.626.545-1.172.437-.78.764-1.445.98-1.992l-2.288 1.172zm18.071-13.242v-3.398h2.18v-7.266h2.943v7.266h1.853v3.398h-1.853v9.375l2.506-.703c-.073 1.172-.073 2.344 0 3.516-.653.234-1.672.547-3.051.938-1.892.469-3.344.858-4.359 1.172l-.545-3.398c.798-.234 1.635-.469 2.506-.703v-10.197h-2.18zm7.629 3.164v-10.781h3.924c-.146-.234-.327-.546-.545-.938-.509-.859-.872-1.483-1.09-1.875l3.27-.469 1.854 3.281h2.834c.507-.938 1.09-2.069 1.742-3.398l3.38.703c-.291.469-.764 1.172-1.417 2.109-.146.234-.256.43-.327.586h4.032v10.781l-17.657.001zm1.09 14.063v-12.422h15.367v12.422h-3.053v-1.289h-9.153v1.289h-3.161zm1.635-22.383v5.742h4.796v-5.742h-4.796zm2.398 5.039c-.511-1.093-1.128-2.187-1.854-3.281l1.635-1.055c.363.469.872 1.329 1.526 2.578.218.313.362.547.436.703l-1.743 1.055zm-.872 7.383v2.109h9.153v-2.109h-9.153zm0 4.336v2.109h9.153v-2.109h-9.153zm10.681-16.758h-4.796v5.742h4.796v-5.742zm-1.744 3.867c-.436.547-.728.979-.872 1.289l-1.635-1.055c.146-.234.327-.546.545-.938.727-1.093 1.234-1.914 1.526-2.461l1.743 1.055-1.307 2.11z"/></svg>