<?xml version="1.0" encoding="utf-8"?>
<!-- Generator: Adobe Illustrator 16.0.0, SVG Export Plug-In . SVG Version: 6.00 Build 0)  -->
<!DOCTYPE svg PUBLIC "-//W3C//DTD SVG 1.1//EN" "http://www.w3.org/Graphics/SVG/1.1/DTD/svg11.dtd">
<svg version="1.1" id="图层_1" xmlns="http://www.w3.org/2000/svg" xmlns:xlink="http://www.w3.org/1999/xlink" x="0px" y="0px"
	 width="640px" height="333px" viewBox="0 -62 640 333" enable-background="new 0 -62 640 333" xml:space="preserve">
<g>
	<path fill="#7794FF" d="M387.717,94.682v3.002h-11.328c0.121-1.135,0.489-2.21,1.104-3.227c0.613-1.017,1.824-2.364,3.635-4.043
		c1.457-1.357,2.352-2.277,2.682-2.761c0.443-0.667,0.666-1.327,0.666-1.978c0-0.721-0.192-1.275-0.58-1.662
		c-0.389-0.387-0.922-0.581-1.604-0.581c-0.675,0-1.212,0.203-1.61,0.609c-0.396,0.407-0.629,1.082-0.688,2.024l-3.222-0.322
		c0.191-1.779,0.795-3.056,1.807-3.831c1.013-0.774,2.277-1.162,3.796-1.162c1.664,0,2.972,0.449,3.923,1.346
		c0.95,0.897,1.426,2.013,1.426,3.347c0,0.759-0.136,1.482-0.406,2.168c-0.272,0.686-0.705,1.405-1.295,2.157
		c-0.393,0.499-1.098,1.215-2.115,2.151c-1.021,0.936-1.666,1.557-1.938,1.863c-0.271,0.306-0.491,0.606-0.661,0.897h6.414v0.003
		H387.717z"/>
	<path fill="#FFFFFF" d="M57.973,177.781V176h8.108v1.781h-3.019v10.875l3.019-0.844c0,0.438,0.057,1.094,0.172,1.969
		c-2.876,0.688-5.578,1.438-8.107,2.25l-0.432-2.156c0.518-0.062,1.38-0.249,2.588-0.562c0.401-0.062,0.718-0.125,0.949-0.188
		v-11.346L57.973,177.781L57.973,177.781z M59.095,245.718v-7.312h6.296v7.312h-1.984v3.656h2.415v1.593h-2.415v4.782l2.329-0.375
		c0,0.688,0.028,1.218,0.086,1.594c-1.323,0.188-3.163,0.53-5.52,1.03c-0.979,0.188-1.725,0.344-2.243,0.469l-0.345-1.688
		c0.401,0,0.776-0.062,1.121-0.188v-8.624h1.294v8.438l1.811-0.282v-10.405L59.095,245.718L59.095,245.718z M58.836,219.438v-1.5
		h18.802v1.5H69.1v2.25h7.504v1.5H69.1v2.155h9.401v1.595H57.887v-1.595h9.488v-2.155h-7.504v-1.5h7.504v-2.25H58.836z
		 M60.388,215.968v-8.625h4.744c0.345-0.75,0.574-1.468,0.69-2.155l1.897,0.188c-0.172,0.626-0.431,1.282-0.776,1.97h9.143v8.625
		L60.388,215.968L60.388,215.968z M60.561,239.999v4.125h3.45v-4.125H60.561z M62.027,208.843v2.156H74.36v-2.156H62.027z
		 M62.027,212.312v2.154H74.36v-2.154H62.027z M73.843,195.125c-0.576,0.062-1.668,0.094-3.277,0.094c0-0.062,0-0.126,0-0.188
		c-0.058-0.563-0.173-1.188-0.345-1.875c0.632,0.062,1.667,0.094,3.105,0.094c1.495,0.124,2.243-0.562,2.243-2.062
		c0.229-3.75,0.345-7.53,0.345-11.345h-5.002l-0.086,1.595c-0.116,6.562-2.128,11.312-6.038,14.25
		c-0.116-0.063-0.288-0.222-0.518-0.471c-0.461-0.438-0.776-0.72-0.949-0.844c3.795-2.562,5.721-6.875,5.779-12.938l0.086-1.595
		h-2.76v-1.78h2.847c0-0.563,0.028-1.375,0.086-2.438c0-0.999,0-1.749,0-2.25h1.725c0,1.626-0.029,3.188-0.086,4.688h6.728
		c-0.116,5.312-0.259,9.782-0.431,13.406C77.235,193.968,76.086,195.188,73.843,195.125L73.843,195.125z M77.725,259.029
		c-3.853-2.123-6.182-5.312-6.986-9.562h-1.897v7.688l3.536-1.688c0,0.625,0.028,1.157,0.086,1.594
		c-1.151,0.562-2.329,1.155-3.536,1.781c-0.576,0.312-1.035,0.594-1.38,0.844l-0.949-1.406c0.401-0.5,0.604-1.062,0.604-1.688
		v-18.093h9.746v10.969h-4.657c0.345,1.313,0.776,2.47,1.293,3.47c1.38-0.938,2.616-1.844,3.709-2.72l1.035,1.406
		c-0.173,0.126-0.461,0.313-0.863,0.563c-1.265,0.875-2.272,1.53-3.019,1.969c1.149,1.438,2.558,2.5,4.226,3.188L77.725,259.029z
		 M68.841,240.093v3.095h6.555v-3.095H68.841z M68.841,247.779h6.555v-3.094h-6.555V247.779z M83.468,245.154
		c-0.289,0.312-0.489,0.562-0.604,0.75c-0.058-0.188-0.202-0.469-0.431-0.844c-0.172-0.375-0.317-0.656-0.431-0.845
		c1.954-2.062,3.536-4.405,4.744-7.03l1.639,0.562c-0.633,1.312-1.293,2.47-1.984,3.468v9.75h-1.639v-7.403
		C84.474,243.938,84.042,244.468,83.468,245.154L83.468,245.154z M85.452,213.343v-1.5h14.145v1.5h-5.951
		c-0.69,0.563-1.352,1.063-1.984,1.5c0.057,0.126,0.173,0.281,0.345,0.47c0.747,1.062,1.236,1.906,1.466,2.53
		c2.07-0.938,4.226-2.093,6.469-3.469l0.949,1.5c-0.863,0.438-2.156,1.125-3.881,2.063c1.035,3.25,2.961,5.438,5.779,6.562
		c-0.058,0.062-0.116,0.157-0.173,0.281c-0.23,0.249-0.547,0.655-0.949,1.219c-3.104-1.5-5.118-3.968-6.037-7.406l-1.553,0.75
		c0.402,1.188,0.604,2.438,0.604,3.75c0.057,2.874-1.035,4.313-3.277,4.313c-0.806,0-1.725,0-2.76,0
		c-0.058-0.313-0.172-0.75-0.345-1.313c-0.058-0.188-0.086-0.345-0.086-0.469c0.805,0.062,1.695,0.094,2.674,0.094
		c1.495,0.125,2.185-0.75,2.07-2.625c0.057-0.562,0-1.187-0.172-1.875c-2.415,2.503-5.664,4.438-9.746,5.813
		c-0.23-0.563-0.518-1.125-0.863-1.688c4.082-1.062,7.474-2.968,10.178-5.719c-0.173-0.499-0.375-0.968-0.604-1.406
		c-2.415,2.003-5.261,3.597-8.539,4.781c-0.23-0.688-0.489-1.249-0.776-1.688c3.277-0.875,6.152-2.345,8.625-4.406
		c-0.23-0.375-0.489-0.75-0.776-1.125c-2.128,1.312-4.515,2.377-7.159,3.188c-0.23-0.562-0.489-1.125-0.776-1.688
		c3.623-0.75,6.583-2.062,8.884-3.938L85.452,213.343L85.452,213.343z M85.883,252.654c-0.806,2.377-1.524,4.125-2.156,5.25
		l-1.553-0.655c0.863-1.688,1.581-3.375,2.156-5.063L85.883,252.654L85.883,252.654z M83.641,179.093v-1.78h7.935
		c0.057-1.062,0.086-2.375,0.086-3.938h1.812v3.938h7.935v1.78h-8.021c0,0.688-0.029,1.595-0.086,2.72c0,0.812,0,1.375,0,1.688
		h9.314v1.781h-8.97c1.149,4.251,4.227,6.97,9.229,8.156c-0.23,0.312-0.547,0.844-0.949,1.594c-0.116,0.123-0.172,0.218-0.172,0.281
		c-5.118-1.563-8.193-4.406-9.229-8.531c-0.92,3.876-3.939,6.812-9.056,8.812c-0.116-0.126-0.259-0.345-0.431-0.655
		c-0.345-0.438-0.604-0.781-0.776-1.03c5.52-2.124,8.48-5,8.884-8.625h-8.798V183.5h9.057c0.114-1.5,0.172-2.968,0.172-4.407H83.641
		z M82.778,212.029v-4.03h9.401c-0.345-0.874-0.69-1.718-1.035-2.531l1.897-0.375c0.345,0.75,0.69,1.657,1.035,2.72L93.472,208
		h8.711v4.031h-1.725v-2.438H84.503v2.438L82.778,212.029L82.778,212.029z M89.851,259.029c-1.725,0-2.587-0.906-2.587-2.719v-3.845
		h1.639v3.375c0.057,1,0.604,1.5,1.639,1.5h3.795c1.264,0.062,1.984-0.437,2.156-1.5c0.173-0.688,0.287-1.405,0.345-2.155
		c0.114,0.062,0.315,0.127,0.604,0.188c0.46,0.25,0.833,0.406,1.122,0.469c-0.173,0.876-0.345,1.688-0.518,2.438
		c-0.403,1.562-1.496,2.312-3.277,2.25H89.851L89.851,259.029z M92.956,245.154c-1.093,1.438-2.415,3-3.967,4.688
		c-0.116-0.188-0.375-0.437-0.776-0.75c-0.172-0.188-0.317-0.343-0.431-0.469c1.149-1.125,2.415-2.593,3.795-4.406L92.956,245.154
		L92.956,245.154z M91.576,241.217c-0.403,0.877-1.151,2.002-2.243,3.376c-0.058-0.062-0.116-0.125-0.172-0.188
		c-0.518-0.375-0.92-0.655-1.208-0.844c1.667-2,2.933-4.094,3.795-6.281l1.725,0.281c-0.058,0.188-0.172,0.438-0.345,0.75
		c-0.058,0.25-0.259,0.688-0.604,1.312h9.574v1.688l-1.294,3c-0.058,0-0.172-0.062-0.345-0.188c-0.518-0.188-0.92-0.343-1.208-0.47
		l1.121-2.438L91.576,241.217L91.576,241.217z M93.473,255.374c-0.862-1.126-1.755-2.188-2.674-3.188l1.208-1.031
		c0.632,0.625,1.581,1.628,2.846,3L93.473,255.374z M93.991,250.779c-0.633,0-1.294,0-1.984,0c0-0.062-0.03-0.154-0.086-0.28
		c0-0.313-0.086-0.781-0.259-1.406c0.402,0.063,0.977,0.095,1.725,0.095c0.977,0.062,1.437-0.375,1.38-1.312v-5.251h1.639v5.53
		C96.462,249.843,95.658,250.719,93.991,250.779L93.991,250.779z M101.408,249.843c-1.496-1.812-2.76-3.219-3.795-4.219l1.208-1.125
		c0.977,0.876,2.299,2.25,3.967,4.125L101.408,249.843z M101.581,257.154c-0.345-0.5-0.863-1.279-1.553-2.344
		c-0.69-0.998-1.237-1.781-1.639-2.345l1.294-0.938c1.38,1.812,2.501,3.375,3.364,4.688L101.581,257.154z M127.162,245.438
		c-0.345,0.562-0.69,1.156-1.035,1.78c-1.266-0.688-2.387-1.344-3.364-1.969v1.594H110.86v-1.5c-1.093,0.75-2.243,1.5-3.45,2.25
		c-0.116-0.188-0.289-0.5-0.518-0.938c-0.23-0.375-0.403-0.655-0.518-0.844c4.6-2.375,7.935-5.281,10.005-8.72l2.07,0.28
		c-0.116,0.127-0.259,0.345-0.431,0.656c-0.058,0.127-0.116,0.221-0.173,0.279C120.261,241.438,123.366,243.812,127.162,245.438
		L127.162,245.438z M116.38,179.562l-0.862-1.031c-0.518,0-1.266,0.031-2.243,0.094c-2.013,0.062-3.508,0.126-4.485,0.188
		c-0.576,0-1.122,0.063-1.639,0.188l-0.604-1.5c0.518-0.249,0.977-0.563,1.38-0.938c1.15-1.062,2.213-2.187,3.191-3.375l1.552,0.75
		c-1.093,1.125-2.329,2.283-3.708,3.47c1.092,0,2.903-0.062,5.434-0.188l-1.466-1.594l1.122-0.938c0.977,1,2.185,2.281,3.623,3.844
		L116.38,179.562z M110.17,191.844c-0.518,1.125-1.179,2.438-1.984,3.938c-0.518-0.251-1.064-0.47-1.639-0.656
		c0.747-1.188,1.408-2.438,1.984-3.75L110.17,191.844L110.17,191.844z M106.72,213.438v-1.875h9.056
		c0.114-1.438,0.172-3.5,0.172-6.188h1.897c0,1.5-0.058,3.562-0.172,6.188h9.143v1.875h-9.057c0.805,5.75,3.938,9.721,9.401,11.905
		c-0.575,0.812-1.006,1.438-1.293,1.875c-5.002-2.374-8.021-6-9.057-10.875c-0.806,4.751-3.795,8.501-8.97,11.25l-1.294-1.688
		c5.693-2.873,8.711-7.03,9.056-12.469h-8.882V213.438z M107.668,190.531v-10.219h8.625v7.875c0.057,1.438-0.662,2.188-2.156,2.25
		c-0.748,0-1.438,0-2.07,0c0-0.062-0.03-0.188-0.086-0.375c-0.058-0.438-0.144-0.781-0.259-1.031c0.229,0,0.546,0,0.949,0
		c0.46,0.062,0.776,0.094,0.949,0.094c0.747,0,1.121-0.343,1.121-1.031v-0.938h-5.52v3.375H107.668z M109.221,181.625v1.594h5.52
		v-1.594H109.221z M109.221,184.438v1.5h5.52v-1.5H109.221z M109.221,259.688v-9.938h15.008v9.938h-1.725v-1.405h-11.471v1.405
		H109.221z M122.59,245.154c-2.358-1.625-4.256-3.469-5.693-5.53c-1.61,2.001-3.566,3.844-5.865,5.53H122.59L122.59,245.154z
		 M111.033,251.529v5.25h11.471v-5.25H111.033z M113.706,195.5c-0.172-0.688-0.489-1.657-0.949-2.906
		c-0.116-0.312-0.202-0.529-0.259-0.656l1.639-0.375c0.173,0.438,0.402,1,0.69,1.688c0.287,0.75,0.488,1.343,0.604,1.781
		L113.706,195.5z M119.14,195.312c-0.23-0.562-0.575-1.346-1.035-2.345c-0.23-0.562-0.403-0.969-0.518-1.219l1.552-0.469
		c0.057,0.062,0.115,0.188,0.173,0.375c0.632,1.251,1.121,2.312,1.466,3.188L119.14,195.312z M121.038,190.25
		c-1.783,0.062-2.646-0.844-2.588-2.719v-5.25h1.553v2.531c2.012-0.688,3.91-1.438,5.692-2.25l0.69,1.5
		c-2.07,0.877-4.198,1.655-6.382,2.345v0.844c-0.058,1,0.459,1.47,1.552,1.406h1.984c0.919,0,1.466-0.343,1.639-1.031
		c0.115-0.5,0.201-1.125,0.259-1.875c0.172,0.063,0.431,0.156,0.776,0.281c0.287,0.126,0.518,0.22,0.69,0.28
		c-0.116,0.812-0.259,1.47-0.431,1.97c-0.289,1.375-1.179,2.03-2.674,1.969L121.038,190.25L121.038,190.25z M121.124,181.343
		c-1.841,0.063-2.731-0.844-2.674-2.719v-5.156h1.553v2.906c2.644-0.875,4.542-1.595,5.692-2.156l0.69,1.406
		c-1.897,0.813-4.025,1.563-6.382,2.25v0.563c-0.058,0.938,0.459,1.375,1.552,1.312h1.984c0.863,0,1.38-0.343,1.553-1.031
		c0.172-0.437,0.287-1.031,0.345-1.781c0.229,0.127,0.546,0.25,0.949,0.375c0.229,0.063,0.402,0.127,0.518,0.188
		c-0.058,0.126-0.086,0.345-0.086,0.656c-0.116,0.625-0.23,1.063-0.345,1.313c-0.345,1.25-1.208,1.875-2.587,1.875h-2.762V181.343z
		 M125.264,195.594c-0.748-1.376-1.553-2.656-2.415-3.844l1.553-0.562c0.977,1.25,1.811,2.498,2.501,3.75L125.264,195.594z
		 M133.681,179.938c-0.576,0.688-1.352,1.375-2.329,2.062c-0.173-0.562-0.432-1.093-0.776-1.594
		c0.057-0.062,0.143-0.125,0.259-0.188c0.804-0.624,1.552-1.28,2.242-1.969c-0.461-0.938-1.237-2.156-2.329-3.656l1.208-1.03
		c1.092,1.25,1.868,2.375,2.329,3.375c0.402-0.5,0.977-1.344,1.725-2.531c0.115-0.188,0.201-0.344,0.259-0.469l1.294,0.938
		c-0.69,1.188-1.553,2.407-2.588,3.656c0.977,2.312,1.437,6.188,1.38,11.625c0.057,3.498-1.007,5.218-3.191,5.156
		c-0.576,0-1.208,0-1.897,0c0-0.627-0.086-1.252-0.259-1.875c0.518,0.062,1.121,0.094,1.811,0.094
		c1.38,0.188,2.012-0.938,1.897-3.375c0-1.688-0.029-3.219-0.086-4.594c-0.748,1.25-1.812,2.47-3.191,3.654
		c-0.23-0.5-0.518-1.062-0.862-1.688c1.495-1.062,2.76-2.498,3.795-4.312C134.255,181.906,134.026,180.812,133.681,179.938
		L133.681,179.938z M133.94,224.404c-0.633,0.562-1.466,1.562-2.501,3l-0.862-1.78c0.69-0.75,1.523-1.655,2.501-2.72v-7.688h-2.329
		v-1.781h3.967v9.469c0.919,1.688,2.645,2.531,5.175,2.531c4.886,0,8.768-0.031,11.644-0.094c-0.058,0.249-0.145,0.562-0.259,0.938
		c-0.116,0.438-0.202,0.75-0.259,0.938c-3.048-0.062-6.872-0.094-11.471-0.094C136.9,227.124,135.031,226.217,133.94,224.404
		L133.94,224.404z M130.662,248.062v-1.313h5.779l-0.518-1.5l1.639-0.281h-5.779v-6.75h10.35v6.75h-4.571l0.431,1.781h5.434v1.313
		H130.662z M132.301,258.374c-0.289,0.249-0.489,0.437-0.604,0.562l-1.035-1.218c0.805-0.563,1.84-1.562,3.105-3.001l1.208,0.938
		C134.341,256.344,133.451,257.249,132.301,258.374L132.301,258.374z M133.94,210.812c-0.116-0.188-0.289-0.471-0.518-0.846
		c-0.576-0.938-1.294-2.029-2.156-3.279l1.38-0.938c0.172,0.251,0.459,0.655,0.863,1.219c0.401,0.563,1.035,1.532,1.897,2.906
		L133.94,210.812z M132.042,253.968v-4.405h9.832v4.405h-3.881v3.281c0,1.5-0.69,2.28-2.07,2.344c-0.633,0-1.265,0-1.897,0
		c0-0.062-0.029-0.188-0.086-0.375c0-0.126-0.086-0.501-0.259-1.125c0.574,0,1.121,0,1.639,0c0.805,0,1.178-0.375,1.121-1.125v-3
		H132.042z M133.336,239.438v1.688h7.331v-1.688H133.336z M133.336,242.154v1.595h7.331v-1.595H133.336z M133.595,250.779v1.875
		h6.814v-1.875H133.595z M136.613,209.593v-1.5h4.226c-0.172-0.249-0.461-0.624-0.862-1.125c-0.345-0.499-0.634-0.874-0.863-1.125
		l1.466-0.655c0.402,0.438,1.005,1.188,1.812,2.25c-0.518-0.75-0.461-0.655,0.172,0.28l-0.776,0.375h3.364l1.725-2.905l1.639,0.562
		l-1.639,2.344h4.399v1.5h-6.986l-0.518,2.156h6.124v11.719h-12.247V211.75h4.485l0.431-2.156L136.613,209.593L136.613,209.593z
		 M146.273,180.406v-2.531h-3.795v2.531h-1.639v-2.531h-3.277v-1.688h3.277v-2.813h1.639v2.813h3.795v-2.906h1.639v2.906h3.623
		v1.688h-3.623v2.531H146.273z M138.425,195.688v-14.155H150.5v14.155h-1.639v-1.404h-8.883v1.404H138.425z M141.702,258.093
		c-0.979-0.938-1.869-1.749-2.674-2.438l1.035-1.029c0.345,0.25,0.805,0.656,1.38,1.219c0.574,0.502,1.005,0.877,1.294,1.125
		L141.702,258.093z M139.287,213.154v2.062h8.97v-2.062H139.287z M139.287,216.529v2.062h8.97v-2.062H139.287z M139.287,219.904
		v2.156h8.97v-2.156H139.287z M139.978,183.219v4.031h3.622v-4.031H139.978z M139.978,188.75v4.031h3.622v-4.031H139.978z
		 M151.535,251.999c-2.3,3.25-5.118,5.843-8.453,7.78c-0.403-0.625-0.776-1.156-1.121-1.594c3.507-1.812,6.267-4.279,8.28-7.406
		L151.535,251.999L151.535,251.999z M150.327,238.873c-1.725,2.189-3.738,4.095-6.038,5.72c-0.23-0.437-0.575-0.905-1.035-1.405
		c2.299-1.625,4.226-3.47,5.779-5.53L150.327,238.873L150.327,238.873z M151.017,245.062c-1.956,2.562-4.14,4.72-6.555,6.469
		c-0.173-0.249-0.461-0.688-0.863-1.313c-0.058-0.062-0.116-0.125-0.172-0.188c2.415-1.562,4.542-3.622,6.382-6.188L151.017,245.062
		L151.017,245.062z M148.86,183.219h-3.708v4.031h3.708V183.219z M145.152,188.75v4.031h3.708v-4.031H145.152z M158.399,224.312
		c-0.92,0.873-1.841,1.903-2.76,3.094l-0.862-1.969c0.459-0.375,1.091-0.97,1.897-1.781c0.401-0.438,0.718-0.75,0.949-0.938v-7.594
		h-2.588v-1.781h4.227v9.375c0.919,1.563,2.443,2.375,4.571,2.438c3.852,0.123,7.819,0.094,11.903-0.094
		c-0.058,0.123-0.116,0.342-0.173,0.654c-0.172,0.499-0.288,0.938-0.345,1.312c-3.335,0-5.722,0-7.159,0
		c-1.725,0-3.25-0.031-4.571-0.094C161.302,226.874,159.606,225.999,158.399,224.312L158.399,224.312z M163.833,246.374
		l-0.862-1.595c-1.208,0.375-2.79,1.031-4.744,1.97c-0.461,0.188-0.921,0.438-1.38,0.75l-1.035-1.313
		c0.401-0.562,0.604-1.219,0.604-1.969v-5.438c2.875-0.188,5.318-0.529,7.332-1.03l0.604,1.593c-1.956,0.376-4.025,0.721-6.21,1.032
		v4.688l4.054-1.688l-1.035-1.688l1.38-0.653c1.322,2.125,2.242,3.625,2.76,4.5L163.833,246.374z M159.089,210.718
		c-0.748-1.187-1.668-2.625-2.76-4.312l1.38-0.938c0.919,1.313,1.897,2.751,2.933,4.313L159.089,210.718z M157.192,259.688v-11.158
		h16.301v11.062h-1.639v-1.029h-12.938v1.125H157.192L157.192,259.688z M157.537,189.594l1.293-1.125l4.485,5.344l-1.38,1.313
		L157.537,189.594z M158.917,250.124v2.813h5.606v-2.813H158.917z M158.917,254.343v2.718h5.606v-2.718H158.917z M164.265,223.654
		c-0.116-0.312-0.317-0.75-0.604-1.312c-1.38-3.312-2.501-5.812-3.364-7.5c1.38-2.688,2.644-5.654,3.795-8.906l1.639,0.656
		c-0.172,0.375-0.403,0.907-0.69,1.594c-1.323,3.127-2.3,5.344-2.933,6.656c1.092,2.312,2.329,4.969,3.709,7.969L164.265,223.654z
		 M171.337,247.029c-0.862,0-1.582,0-2.156,0c0-0.438-0.116-0.969-0.345-1.594c0.805,0,1.553,0,2.243,0
		c1.149,0.127,1.725-0.5,1.725-1.875c0.114-1.125,0.172-2.25,0.172-3.375h-3.967c0.057,3.438-1.179,6.031-3.709,7.78
		c-0.403-0.437-0.806-0.875-1.208-1.312c2.299-1.438,3.392-3.594,3.278-6.469h-2.157v-1.5h9.401c0,1-0.058,2.625-0.172,4.875
		C174.384,245.938,173.349,247.093,171.337,247.029L171.337,247.029z M168.75,223.562c-1.38-3.563-2.674-6.471-3.881-8.721
		c1.495-2.938,2.73-5.843,3.709-8.719l1.725,0.562c-1.151,2.625-2.358,5.344-3.623,8.155c1.553,3.313,2.789,5.938,3.709,7.875
		L168.75,223.562z M171.854,250.124h-5.692v2.813h5.692V250.124z M166.162,254.343v2.718h5.692v-2.718H166.162z M173.493,223.468
		c-1.266-3.062-2.587-5.937-3.967-8.625c1.494-3,2.73-5.874,3.708-8.625l1.639,0.656c-1.093,2.625-2.3,5.25-3.623,7.875
		c1.322,2.625,2.588,5.22,3.795,7.781L173.493,223.468z M181.997,215.874c-0.116-0.062-0.259-0.218-0.431-0.47
		c-1.093-0.998-1.927-1.78-2.501-2.344l1.121-1.312c0.977,0.876,1.955,1.781,2.933,2.719L181.997,215.874z M199.16,245.904
		c-3.967-1.625-7.102-3.844-9.401-6.655c-2.128,2.563-5.347,4.907-9.66,7.03c-0.403-0.875-0.72-1.467-0.949-1.78
		c4.542-1.937,7.905-4.406,10.091-7.406l2.07,0.188l-0.518,0.75c2.357,2.688,5.462,4.72,9.315,6.094L199.16,245.904z
		 M182.773,252.654c-0.748,2.25-1.41,4.158-1.984,5.72c-0.518-0.313-1.064-0.563-1.639-0.75c0.919-2.124,1.581-3.97,1.983-5.531
		L182.773,252.654L182.773,252.654z M187.603,192.781c-1.438,1.125-3.881,2.123-7.331,3c-0.058-0.127-0.172-0.346-0.345-0.656
		c-0.23-0.501-0.431-0.876-0.604-1.125c3.334-0.688,5.548-1.468,6.641-2.344c-1.323-0.999-2.703-2.531-4.14-4.594l1.38-1.031
		c1.552,2.188,2.903,3.656,4.054,4.406c0.919-1.188,1.408-2.875,1.466-5.063h-7.504v-8.813h7.59v-3.281h1.812v3.281h7.59v9.938
		h-1.725v-1.125h-5.951c-0.058,2.625-0.604,4.626-1.639,6c1.035,0.563,2.299,1,3.795,1.313c1.954,0.25,4.399,0.469,7.331,0.654
		c-0.229,0.624-0.431,1.28-0.603,1.971c-2.76-0.252-5.061-0.563-6.9-0.938C190.678,193.938,189.04,193.404,187.603,192.781
		L187.603,192.781z M181.91,224.312c-0.288,1.437-0.518,2.498-0.69,3.188l-1.639-0.562c0.69-2.438,1.322-5.25,1.897-8.438
		c0.172,0.062,0.459,0.188,0.862,0.375c0.287,0.126,0.546,0.221,0.776,0.281C182.887,220.156,182.484,221.874,181.91,224.312
		L181.91,224.312z M182.514,209.688c-0.461-0.5-1.122-1.154-1.984-1.97c-0.345-0.312-0.604-0.562-0.776-0.75l1.122-1.219
		c0.517,0.438,1.264,1.125,2.242,2.063c0.229,0.25,0.402,0.438,0.518,0.562L182.514,209.688z M183.722,210.999v-1.595h3.45
		c-0.116-0.562-0.375-1.5-0.776-2.812c-0.116-0.438-0.202-0.75-0.258-0.938l1.639-0.281c0.345,1.001,0.69,2.25,1.035,3.75
		l-0.949,0.281h3.191v1.594h-4.226c0,1.312-0.03,2.531-0.086,3.656h3.967c0,0.25,0,0.595,0,1.031
		c-0.116,3.938-0.23,6.812-0.345,8.625c0,1.812-0.806,2.719-2.415,2.719c-0.461,0-0.979,0-1.553,0l-0.258-1.688
		c0.287,0.062,0.604,0.062,0.949,0c0.172,0,0.287,0,0.345,0c1.035,0.062,1.523-0.375,1.466-1.313c0-0.437,0.028-1.125,0.086-2.062
		c0.114-2.688,0.172-4.594,0.172-5.719h-2.501c0,0.251,0,0.469,0,0.655c-0.116,4.75-1.006,8.345-2.673,10.781
		c-0.289-0.312-0.72-0.72-1.294-1.22c1.553-2.187,2.385-5.405,2.501-9.655c0.056-1.625,0.086-3.562,0.086-5.812h-1.553V210.999
		L183.722,210.999z M193.209,252.188c-0.23-0.188-0.575-0.438-1.035-0.752c-0.172-0.061-0.288-0.123-0.345-0.187l2.243-3h-11.385
		v-1.688h13.369v1.781L193.209,252.188z M182.945,178.25v5.438h5.865v-5.438H182.945z M187.43,259.029
		c-1.956,0.062-2.904-0.906-2.846-2.906v-4.219h1.639v3.845c-0.058,1.125,0.546,1.655,1.812,1.594h3.277
		c1.264,0.062,1.984-0.437,2.156-1.5c0.172-0.562,0.287-1.25,0.345-2.062c0.574,0.251,1.121,0.469,1.639,0.656
		c-0.172,1-0.345,1.845-0.518,2.53c-0.345,1.438-1.438,2.124-3.277,2.063L187.43,259.029L187.43,259.029z M190.535,254.812
		c-0.92-1.375-1.955-2.656-3.105-3.847l1.294-1.028c1.552,1.688,2.644,2.903,3.277,3.654L190.535,254.812z M189.845,245.812
		c-0.69-0.938-1.41-1.875-2.156-2.813l1.294-0.938c0.862,0.877,1.609,1.781,2.242,2.719L189.845,245.812z M193.468,210.718
		c-0.69,1.376-1.266,2.407-1.725,3.095c-0.288-0.312-0.72-0.719-1.293-1.22c1.437-2.062,2.587-4.53,3.45-7.405l1.639,0.28
		c-0.345,1.063-0.69,2.063-1.035,3h5.606v1.595h-6.296C193.755,210.188,193.64,210.406,193.468,210.718L193.468,210.718z
		 M196.486,178.25h-5.865l-0.086,5.438h5.951V178.25z M191.484,219.904v-1.594h3.623v-1.406l2.587-2.812h-5.175v-1.594h6.9v1.781
		l-2.674,3.094v0.938h3.364v1.596h-3.364v4.779c0.057,1.688-0.748,2.531-2.415,2.531c-0.461,0.062-1.208,0.094-2.242,0.094
		c0-0.188-0.058-0.529-0.173-1.029c-0.058-0.313-0.086-0.563-0.086-0.75c0.401,0.062,1.092,0.094,2.07,0.094
		c0.863,0.062,1.264-0.375,1.208-1.312v-4.406L191.484,219.904L191.484,219.904z M198.643,257.249
		c-0.23-0.313-0.575-0.781-1.035-1.406c-0.92-1.438-1.639-2.532-2.156-3.28l1.38-0.938c1.208,1.688,2.299,3.279,3.277,4.779
		L198.643,257.249z M203.695,176.843v-1.594h6.383v1.594h-2.329v5.72h2.07v1.688h-2.07v6.281l2.415-0.563
		c0,0.625,0.028,1.22,0.086,1.781c-2.415,0.501-4.571,0.97-6.469,1.406l-0.345-1.688l2.673-0.562v-6.656h-2.156v-1.688h2.156v-5.719
		L203.695,176.843L203.695,176.843z M209.647,255.562c0,2.187-0.748,3.812-2.243,4.875l-0.776-0.846
		c1.035-0.812,1.581-2.031,1.639-3.654h-1.466v-3.097h2.846C209.647,253.344,209.647,254.248,209.647,255.562L209.647,255.562z
		 M207.06,214.938h2.76v3.28h-2.76V214.938z M209.819,221.688v3.188c0,1.875-0.834,3-2.501,3.375v-1.405
		c0.69-0.188,1.063-0.812,1.121-1.875h-1.38v-3.281h2.76V221.688z M210.682,183.406v-1.594h13.714v1.594h-6.9l-0.604,2.25h6.728
		v7.312c0.057,1.624-0.633,2.47-2.07,2.531c-0.576,0-1.179,0-1.811,0c0-0.062-0.03-0.188-0.086-0.375
		c-0.116-0.501-0.202-0.876-0.259-1.125h-0.949v-6.75h-2.243v7.125h-1.38v-7.125h-2.156v8.438h-1.552v-10.03h4.14l0.518-2.25
		L210.682,183.406L210.682,183.406z M211.544,179.562v-4.875h1.552v3.375h3.45v-4.781h1.639v4.781h3.45v-3.375h1.552v4.875H211.544z
		 M222.067,187.25h-2.243v6.656c0.402,0,0.776,0,1.121,0c0.805,0,1.178-0.346,1.122-1.031V187.25z M234.366,251.812
		c-1.668,2.562-3.364,4.75-5.089,6.562c-0.116-0.062-0.345-0.251-0.69-0.562c-0.345-0.313-0.604-0.533-0.776-0.656
		c1.725-1.688,3.392-3.812,5.002-6.375L234.366,251.812L234.366,251.812z M228.069,177.406v-1.688h9.229v-2.53h1.811v2.53h9.229
		v1.688h-9.229v2.812h6.9v7.5h-4.657v4.5c0,0.874,0.459,1.313,1.38,1.313h2.329c0.919,0,1.466-0.407,1.639-1.221
		c0-0.125,0.028-0.343,0.086-0.654c0.115-0.688,0.201-1.346,0.259-1.971c0.574,0.25,1.121,0.471,1.639,0.656
		c-0.116,1.125-0.259,2.001-0.431,2.625c-0.23,1.5-1.151,2.25-2.76,2.25h-3.363c-1.668,0-2.501-0.876-2.501-2.625v-4.875h-3.364
		c0.057,4.188-2.415,6.874-7.417,8.062c-0.116-0.25-0.317-0.594-0.604-1.03c-0.116-0.313-0.23-0.563-0.345-0.75
		c4.485-0.813,6.669-2.906,6.555-6.281H230.4v-7.5h6.9v-2.812H228.069L228.069,177.406z M228.587,226.374v-19.125h7.245v18.844
		h-1.639v-1.688h-3.967v1.971L228.587,226.374L228.587,226.374z M229.363,249.279l1.121-10.03
		c5.117-0.062,10.378-0.376,15.784-0.938l0.518,1.782c-4.428,0.438-9.315,0.72-14.663,0.845l-0.776,6.655h6.296v-4.97h1.812v4.97
		h8.107v1.688h-8.107v6.938c0.114,2.063-0.806,3.094-2.76,3.094c-0.23,0-0.662,0-1.293,0c-0.69,0.062-1.179,0.095-1.466,0.095
		c0-0.125-0.058-0.345-0.173-0.655c-0.116-0.688-0.202-1.157-0.258-1.406c0.747,0.062,1.609,0.096,2.587,0.096
		c1.091,0.062,1.609-0.471,1.552-1.596v-6.562h-8.281V249.279L229.363,249.279z M230.226,208.938v6.095h3.967v-6.095H230.226z
		 M230.226,216.624v6.094h3.967v-6.094H230.226z M232.123,181.812v4.312h12.162v-4.312H232.123z M236.953,211.938v-1.78h7.331
		v-4.875h1.725v4.875h2.674v1.78h-2.674v12.188c0.057,2.062-0.949,3.125-3.019,3.188c-0.978,0-2.07,0-3.277,0
		c-0.058-0.25-0.144-0.625-0.259-1.125c-0.058-0.375-0.116-0.655-0.172-0.844c0.574,0.062,1.609,0.094,3.105,0.094
		c1.322,0.062,1.954-0.562,1.897-1.875v-11.625h-7.331V211.938z M240.144,220.468c-0.461-1.062-1.151-2.468-2.07-4.219
		c-0.23-0.437-0.403-0.78-0.518-1.031l1.38-0.844c0.345,0.563,0.805,1.406,1.38,2.531c0.632,1.125,1.091,1.969,1.38,2.53
		L240.144,220.468z M247.131,258.374c-1.841-2.438-3.537-4.625-5.089-6.563l1.38-1.031c2.185,2.753,3.938,4.875,5.261,6.375
		L247.131,258.374z M252.884,242.062v-1.5h2.587v-3.281h1.466v3.281h2.243v1.5h-2.243v3.375h2.76v1.5h-2.07v3.469h1.812v1.498
		h-1.812v4.596c1.15,0.562,2.846,0.844,5.089,0.844c0.632,0,1.725,0,3.277,0c3.45,0.062,5.779,0.062,6.986,0
		c-0.23,0.499-0.403,1.062-0.518,1.688c-3.163,0-6.526,0-10.091,0c-3.967,0-6.613-1.376-7.935-4.125
		c-0.23,1.5-0.72,3.062-1.466,4.688c-0.116-0.126-0.289-0.345-0.518-0.657c-0.289-0.312-0.489-0.529-0.604-0.653
		c0.632-1.251,1.063-2.531,1.294-3.845c0.172-1.188,0.259-3.095,0.259-5.72l1.38,0.095c0,0.5-0.03,1.188-0.086,2.062
		c0,0.688,0,1.219,0,1.594c0.459,1.063,0.977,1.969,1.552,2.719v-8.25h-3.881v-1.5h3.105v-3.375h-2.586V242.062z M258.921,226.279
		v-12.28h-3.709v13.688h-1.725v-15.471h6.642l0.949-3.844h-8.711v-1.781h20.269v1.781h-9.66l-0.949,3.844h9.487v12.562
		c0,1.812-0.748,2.688-2.242,2.625c-0.23,0-0.69,0.031-1.38,0.095c-0.576,0-0.949,0-1.122,0c-0.058-0.625-0.172-1.282-0.345-1.97
		c0.229,0.062,0.891,0.095,1.983,0.095c0.977,0.062,1.437-0.345,1.38-1.22V214h-3.795v12.281h-1.639V214h-3.795v12.281
		L258.921,226.279L258.921,226.279z M256.593,186.125v-3.094h-2.847v3.094H256.593z M259.439,239.624v-1.406h7.417v1.406h-1.035v12
		l1.294-0.188c0,0.502,0.028,1.002,0.086,1.502l-1.38,0.28v3.374h-1.38v-3.188l-5.002,0.938l-0.259-1.688l1.38-0.188v-12.844
		L259.439,239.624L259.439,239.624z M263.924,186.125v-3.094h-2.846v3.094H263.924z M261.94,239.624v3.188h2.501v-3.188H261.94z
		 M261.94,244.218v3.188h2.501v-3.188H261.94z M261.94,252.279c0.805-0.125,1.639-0.28,2.501-0.469v-3.095h-2.501V252.279z
		 M269.961,251.718c-0.633,1.563-1.466,3.126-2.501,4.688c-0.288-0.5-0.604-0.938-0.949-1.313c1.035-1.562,1.926-3.343,2.674-5.344
		c-0.69-2-1.496-4.063-2.415-6.188l1.208-0.469l1.811,4.594c0.518-1.812,0.891-3.938,1.122-6.375h-3.795v-1.594h5.175v1.594
		c-0.345,3.313-0.892,6.127-1.639,8.438c0.747,1.875,1.408,3.656,1.984,5.344l-1.208,0.845c-0.116-0.375-0.289-0.904-0.518-1.595
		C270.449,253.218,270.134,252.343,269.961,251.718L269.961,251.718z M271.341,186.125v-3.094h-2.846v3.094H271.341z
		 M277.257,210.154v-1.78h6.037c0.345-0.999,0.718-2.063,1.121-3.188l1.811,0.281c-0.345,1.001-0.69,1.969-1.035,2.906h11.989v1.781
		h-12.765c-0.748,1.875-1.697,3.595-2.846,5.156v12.279h-1.725v-10.029c-0.748,0.875-1.61,1.779-2.587,2.719
		c-0.116-0.249-0.317-0.594-0.604-1.031c-0.116-0.312-0.23-0.562-0.345-0.75c2.76-2.625,4.83-5.405,6.209-8.344H277.257
		L277.257,210.154z M278.292,240.654v-1.781h17.164v1.781h-7.935c-0.058,1.938-0.202,3.72-0.431,5.345h9.918v1.875h-8.107v7.5
		c-0.116,1.313,0.518,1.905,1.897,1.78h2.415c1.208,0.125,1.868-0.438,1.984-1.688c0.114-0.999,0.172-1.938,0.172-2.812
		c0.287,0.127,0.718,0.281,1.294,0.47c0.229,0.062,0.401,0.126,0.518,0.188c-0.058,0.312-0.086,0.688-0.086,1.125
		c-0.116,0.877-0.23,1.562-0.345,2.062c-0.23,1.688-1.323,2.499-3.277,2.438h-3.277c-2.07,0.062-3.077-1-3.019-3.188v-7.875h-0.518
		c-0.862,5.001-3.824,8.969-8.883,11.906l-1.294-1.596c4.772-2.625,7.561-6.062,8.366-10.312h-8.194v-1.875h8.539
		c0.287-1.625,0.459-3.406,0.517-5.344L278.292,240.654L278.292,240.654z M280.879,186.125v-3.094h-2.846v3.094H280.879z
		 M283.467,217.843v-1.688h5.434v-4.5h1.725v4.5h5.348v1.688h-5.348v6.656h6.555v1.594h-14.749v-1.594h6.469v-6.656H283.467z
		 M288.21,186.125v-3.094h-2.846v3.094H288.21z M295.627,186.125v-3.094h-2.846v3.094H295.627z M301.457,194.375V175.25h7.245
		v18.844h-1.64v-1.688h-3.966v1.969H301.457z M301.544,259.688v-21.377h6.296v1.782l-1.725,6.375
		c1.264,1.813,1.868,3.75,1.811,5.813c0,2.25-0.775,3.469-2.329,3.656c-0.345,0.062-0.863,0.094-1.553,0.094
		c-0.116-0.563-0.259-1.188-0.431-1.875c0.518,0.062,1.005,0.093,1.466,0.093c0.862-0.062,1.294-0.812,1.294-2.249
		c0-1.875-0.634-3.624-1.898-5.25l1.812-6.75h-3.105v19.688H301.544L301.544,259.688z M310.169,227.688v-7.405h-5.951v1.312h-1.725
		V206.5h17.25v15.094h-1.812v-1.312h-5.951v7.405H310.169z M303.096,176.938v6.094h3.967v-6.094H303.096z M303.096,184.625v6.094
		h3.967v-6.094H303.096z M304.218,208.279v4.312h5.951v-4.312H304.218z M304.218,214.279v4.22h5.951v-4.22H304.218z
		 M321.555,257.624c-0.289,0.563-0.604,1.125-0.947,1.688c-4.025-1.875-6.557-5.156-7.591-9.846h-1.983v7.5
		c0.518-0.125,1.264-0.438,2.243-0.938c0.573-0.313,1.005-0.53,1.293-0.656c0,0.25,0.027,0.595,0.086,1.031c0,0.375,0,0.593,0,0.654
		c-1.035,0.438-2.243,1.031-3.623,1.781c-0.288,0.188-0.721,0.438-1.293,0.75l-0.949-1.406c0.518-0.5,0.747-1.095,0.689-1.781v-18
		h10.092v11.062h-4.916c0.4,1.499,0.891,2.751,1.466,3.75c1.437-0.938,2.76-1.875,3.967-2.812l1.035,1.312
		c-1.208,0.876-2.587,1.781-4.14,2.719C318.075,255.749,319.599,256.812,321.555,257.624L321.555,257.624z M309.824,179.938v-1.781
		h7.331v-4.875h1.725v4.875h2.675v1.781h-2.675v12.188c0.058,2.062-0.949,3.124-3.019,3.188c-0.979,0-2.07,0-3.277,0
		c-0.058-0.25-0.144-0.625-0.259-1.125c-0.059-0.375-0.116-0.654-0.172-0.844c0.573,0.062,1.608,0.094,3.104,0.094
		c1.322,0.062,1.954-0.562,1.897-1.875v-11.625H309.824L309.824,179.938z M313.015,188.469c-0.461-1.062-1.15-2.469-2.069-4.219
		c-0.23-0.438-0.403-0.781-0.519-1.031l1.38-0.844c0.346,0.562,0.806,1.407,1.381,2.532c0.632,1.125,1.091,1.969,1.38,2.53
		L313.015,188.469z M311.032,239.999v3.188h6.899v-3.188H311.032z M311.032,247.779h6.899v-3.094h-6.899V247.779z M317.932,208.279
		h-5.951v4.312h5.951V208.279z M311.98,214.279v4.22h5.951v-4.22H311.98z M325.055,211.468v-1.688h2.934v-4.5h1.554v4.5h2.674v1.688
		h-2.674v2.813l0.173-0.188c0.346,0.251,0.833,0.688,1.467,1.313c0.689,0.626,1.178,1.095,1.467,1.406l-1.035,1.404
		c-0.689-0.75-1.379-1.5-2.069-2.25v11.721h-1.553v-12.471c-0.689,2.376-1.552,4.532-2.587,6.471
		c-0.061-0.188-0.116-0.5-0.174-0.938c-0.174-0.687-0.287-1.155-0.346-1.406c1.322-2.25,2.328-4.875,3.02-7.875H325.055z
		 M331.782,194.281V182h-3.708v13.688h-1.727v-15.469h6.643l0.947-3.844h-8.711v-1.781h20.27v1.781h-9.66l-0.947,3.844h9.486v12.563
		c0,1.812-0.748,2.687-2.242,2.625c-0.229,0-0.689,0.03-1.38,0.094c-0.575,0-0.948,0-1.121,0c-0.059-0.626-0.173-1.282-0.346-1.969
		c0.229,0.062,0.892,0.094,1.983,0.094c0.978,0.062,1.438-0.345,1.381-1.219V182h-3.795v12.282h-1.641V182h-3.795v12.282
		L331.782,194.281L331.782,194.281z M330.575,258.936c-1.841-0.187-2.876-1.279-3.104-3.279c0.172-2.123,1.207-3.281,3.104-3.469
		c1.954,0.188,3.019,1.346,3.19,3.469C333.594,257.654,332.529,258.749,330.575,258.936L330.575,258.936z M330.575,253.593
		c-1.093,0.126-1.696,0.813-1.812,2.062c0.114,1.063,0.719,1.656,1.812,1.783c1.147-0.127,1.78-0.72,1.896-1.783
		C332.355,254.404,331.725,253.719,330.575,253.593L330.575,253.593z M340.148,223.654c-1.381,1.312-3.135,2.625-5.262,3.938
		c-0.059-0.062-0.146-0.188-0.26-0.375c-0.345-0.501-0.604-0.876-0.775-1.125c2.299-1.187,4.055-2.468,5.263-3.844
		c-1.496-1.999-2.531-4.655-3.105-7.969l0.345-0.188h-1.465v1.594c0.172,5.063-0.861,9-3.104,11.813l-1.293-1.313
		c2.012-2.373,2.933-5.843,2.76-10.404v-8.721c3.679-0.123,7.59-0.437,11.729-0.938l0.519,1.688
		c-3.276,0.438-6.813,0.75-10.608,0.938v3.656h9.746v1.688c-0.688,3.375-1.812,6.095-3.361,8.156
		c1.205,1.438,2.729,2.595,4.57,3.469c-0.347,0.563-0.689,1.125-1.035,1.688C342.909,226.154,341.355,224.906,340.148,223.654
		L340.148,223.654z M340.234,220.938c1.265-1.875,2.186-4.154,2.761-6.845h-5.435C338.021,216.781,338.912,219.062,340.234,220.938
		L340.234,220.938z M350.118,178.156v-1.781h6.038c0.345-0.999,0.718-2.062,1.121-3.188l1.812,0.28c-0.346,1-0.688,1.97-1.034,2.906
		h11.987v1.78h-12.765c-0.748,1.875-1.697,3.596-2.848,5.158v12.28h-1.726v-10.03c-0.748,0.875-1.61,1.78-2.588,2.72
		c-0.115-0.249-0.316-0.595-0.604-1.031c-0.115-0.312-0.229-0.562-0.345-0.75c2.76-2.625,4.83-5.405,6.21-8.344L350.118,178.156
		L350.118,178.156z M349.43,226.374v-1.781h8.279v-19.03h1.896v6.938h8.711v1.875h-8.711v10.219h10.351v1.781L349.43,226.374
		L349.43,226.374z M356.328,185.844v-1.688h5.436v-4.5h1.726v4.5h5.348v1.688h-5.348v6.656h6.555v1.594h-14.748V192.5h6.47v-6.656
		H356.328z"/>
	<path fill="#FFFFFF" d="M57.294,132.386v-5.031h14.873v-16.711h5.348v5.75h16.376v4.852H77.514v6.109H97.4v5.031H57.294z
		 M72.167,153.77v-20.125h5.348v20.125H72.167z M92.053,148.378c-0.668-0.358-1.729-0.958-3.175-1.797
		c-5.347-3.474-9.136-5.81-11.363-7.008l2.674-4.313c2.227,1.199,5.849,3.297,10.862,6.289c1.781,0.96,3.063,1.68,3.844,2.156
		L92.053,148.378z M111.039,147.48c-1.783,1.797-3.454,3.652-5.013,5.569l-2.005-5.211c0.444-0.478,1.17-1.258,2.172-2.336
		c1.003-0.958,1.726-1.676,2.173-2.155v-12.759h-4.011v-5.031h8.689v17.609c1.781,3.117,4.789,4.733,9.024,4.853
		c10.695,0,18.27-0.06,22.727-0.181c-0.559,1.556-1.06,3.114-1.504,4.672c-6.35,0-10.975,0-13.87,0
		c-3.455-0.12-6.295-0.241-8.522-0.358C116.329,152.031,113.044,150.473,111.039,147.48L111.039,147.48z M110.872,122.144
		c-0.559-0.958-1.449-2.395-2.674-4.313c-1.227-1.915-2.117-3.352-2.673-4.313l4.01-2.516c0.556,0.839,1.504,2.218,2.841,4.133
		c1.337,1.917,2.282,3.296,2.841,4.133L110.872,122.144z M137.943,146.042c-0.893,0.121-2.285,0.181-4.178,0.181
		c-0.112-1.318-0.446-2.576-1.002-3.773c0.444,0,1.057,0.062,1.838,0.18c0.668,0,1.112,0,1.337,0
		c1.447,0.121,2.115-0.719,2.005-2.516v-0.539h-6.183v5.93h-4.512v-5.93h-6.016v6.469h-4.512v-23.899h8.856
		c-0.668-0.359-1.671-0.958-3.008-1.797c-1.449-0.836-2.452-1.438-3.008-1.797l2.172-2.156h-5.348v-3.953h25.735v4.313l-8.857,5.391
		h9.358v18.328C142.732,144.188,141.173,146.042,137.943,146.042L137.943,146.042z M121.232,125.738v3.414h6.016v-3.414H121.232z
		 M121.232,132.566v3.414h6.016v-3.414H121.232z M135.27,116.394h-11.698c1.893,1.078,3.786,2.277,5.682,3.594L135.27,116.394z
		 M137.943,125.738h-6.183v3.414h6.183V125.738z M131.76,132.566v3.414h6.183v-3.414H131.76z M152.909,150.175V113.16h14.539v33.781
		c2.674-3.474,3.898-9.282,3.676-17.431v-17.07h18.549v34.141c0.222,4.07-1.671,6.168-5.682,6.289c-1.449,0.117-3.4,0.18-5.849,0.18
		c-0.112-0.96-0.446-2.457-1.002-4.492c-0.112-0.238-0.167-0.477-0.167-0.719c1.225,0.121,2.841,0.18,4.846,0.18
		c1.893,0,2.841-0.957,2.841-2.875v-5.391h-8.857c-0.559,4.672-2.731,9.344-6.517,14.016c-0.225-0.24-0.559-0.539-1.003-0.897
		c-1.449-1.438-2.564-2.457-3.342-3.056c0.891-0.838,1.671-1.676,2.34-2.516h-9.525v2.875L152.909,150.175L152.909,150.175z
		 M157.755,118.191v9.523h5.18v-9.523H157.755z M157.755,142.27h5.18v-9.704h-5.18V142.27z M176.305,129.871
		c0,2.039-0.058,3.773-0.167,5.211h8.523v-6.648h-8.355L176.305,129.871L176.305,129.871z M176.305,117.292v6.648h8.355v-6.648
		H176.305z M202.644,129.871v-17.43h32.252v17.43h-12.867v3.773h14.706v3.954h-14.706v3.233h13.369v3.953h-13.369v3.233h16.543
		v3.953H198.8v-3.953h18.048v-3.233h-12.199v-3.953h12.199v-3.233H206.32c-1.115,2.039-2.619,4.133-4.512,6.289
		c-0.447-0.478-1.337-1.197-2.674-2.156c-0.447-0.359-0.781-0.599-1.003-0.719c2.784-2.875,4.846-6.228,6.183-10.062l4.846,0.359
		c-0.334,0.719-0.668,1.5-1.002,2.336h8.689v-3.774L202.644,129.871L202.644,129.871z M207.657,116.574v2.875h22.226v-2.875H207.657
		z M207.657,123.042v2.875h22.226v-2.875H207.657z"/>
	<path fill="#A7AEFF" d="M265.474,91.161v-2.344h1.221v-7.875h2.354c0.057-0.312,0.145-0.718,0.262-1.219
		c0.057-0.5,0.116-0.875,0.174-1.125l2.441,0.188l-0.61,2.156h3.4v17.156c0,1.625-0.728,2.499-2.18,2.625c-0.698,0-1.512,0-2.441,0
		c-0.059-0.375-0.146-0.938-0.262-1.688c-0.059-0.313-0.117-0.532-0.174-0.656c0.116,0,0.667,0,1.657,0
		c0.872,0.062,1.278-0.281,1.221-1.031V91.16h-3.488c0,4.251-0.553,7.625-1.656,10.125c-0.582-0.501-1.251-1.094-2.005-1.781
		c0.929-2.063,1.365-4.843,1.308-8.344L265.474,91.161L265.474,91.161z M269.049,83.192v5.625h3.488v-5.625H269.049z
		 M270.444,87.974c-0.407-1.062-0.843-2.093-1.308-3.094l1.656-0.938c0.523,1,0.988,2.032,1.395,3.094L270.444,87.974z
		 M270.444,96.317c-0.233-0.812-0.669-1.937-1.308-3.375l1.744-0.75c0.231,0.563,0.61,1.438,1.133,2.625
		c-0.349-0.812-0.262-0.624,0.262,0.563L270.444,96.317z M279.424,82.911c0.116,2.625-0.785,4.813-2.703,6.563
		c-0.815-0.875-1.425-1.5-1.831-1.875c1.511-1.374,2.208-3.031,2.092-4.969v-2.813h7.585v4.969
		c-0.059,0.938,0.349,1.375,1.221,1.313h0.959l-0.436,2.438h-1.918c-1.512,0-2.267-0.905-2.267-2.719v-3.656h-2.703L279.424,82.911
		L279.424,82.911z M276.111,101.005V90.224h9.329v10.781h-2.441v-1.688h-4.447v1.688H276.111z M278.552,92.567v4.594h4.447v-4.594
		H278.552z M290.296,99.88v-2.719h7.847V78.88h2.964v6.563h8.37v2.813h-8.37v8.906h9.939v2.719L290.296,99.88L290.296,99.88z
		 M317.375,90.224c-0.756-1.062-1.688-2.25-2.79-3.563l2.005-1.5c0.988,1.063,1.977,2.219,2.964,3.469L317.375,90.224z
		 M318.596,95.661c-0.582,2.5-0.988,4.25-1.221,5.25l-2.528-0.75c0.872-3.188,1.569-6.031,2.093-8.531
		c0.175,0.063,0.436,0.157,0.784,0.281c0.64,0.25,1.191,0.438,1.657,0.563C319.207,93.099,318.945,94.161,318.596,95.661
		L318.596,95.661z M317.812,83.942c-0.407-0.687-1.134-1.655-2.181-2.906c-0.232-0.249-0.407-0.469-0.522-0.656l2.092-1.406
		c0.349,0.375,0.812,0.907,1.395,1.594c0.64,0.75,1.104,1.313,1.396,1.688L317.812,83.942z M324.961,99.505
		c-2.15,0.812-3.721,1.374-4.708,1.688c-0.349-0.688-0.698-1.406-1.046-2.156c2.672-0.75,4.795-1.406,6.365-1.969l1.046,1.781
		C326.27,98.973,325.716,99.191,324.961,99.505L324.961,99.505z M319.991,85.161v-4.406h6.188l-0.521-1.969l2.79-0.281
		c0.116,0.375,0.29,1.125,0.522,2.25h6.363v4.406h-2.092v1.219h-4.447v1.406h5.668v9h-13.688v-9h5.668V86.38h-4.447v-1.219H319.991z
		 M322.258,83.005v1.313h10.727v-1.313H322.258z M323.13,89.849v1.594h3.313v-1.594H323.13z M323.13,93.13v1.688h3.313V93.13H323.13
		z M334.812,101.099c-1.92-0.75-4.012-1.532-6.277-2.344l1.047-1.688c2.148,0.625,4.213,1.251,6.189,1.875L334.812,101.099z
		 M332.109,89.849h-3.312v1.594h3.312V89.849z M328.797,93.13v1.688h3.312V93.13H328.797z M341.143,89.38v-8.531h2.615v5.813h4.62
		v-7.875h2.703v7.875h4.621v-5.813h2.614v8.531h-7.235v8.063h5.405V91.63h2.615v9.281h-2.615V99.88h-16.129v-8.25h2.613v5.813h5.405
		V89.38H341.143z"/>
</g>
</svg>
