<?xml version="1.0" encoding="utf-8"?>
<!-- Generator: Adobe Illustrator 16.0.0, SVG Export Plug-In . SVG Version: 6.00 Build 0)  -->
<!DOCTYPE svg PUBLIC "-//W3C//DTD SVG 1.1//EN" "http://www.w3.org/Graphics/SVG/1.1/DTD/svg11.dtd">
<svg version="1.1" id="图层_1" xmlns="http://www.w3.org/2000/svg" xmlns:xlink="http://www.w3.org/1999/xlink" x="0px" y="0px"
	 width="640px" height="303px" viewBox="0 -96.5 640 303" enable-background="new 0 -96.5 640 303" xml:space="preserve">
<path fill="#43CFB2" d="M385.071,34.684h-3.232V22.503c-1.181,1.104-2.572,1.921-4.175,2.45V22.02
	c0.844-0.276,1.76-0.799,2.749-1.57s1.668-1.669,2.036-2.697h2.622V34.684L385.071,34.684z"/>
<path fill="#FFFFFF" d="M54.976,148.562v-1.688h2.329v-4.406h1.639v4.406h2.07v1.688h-2.07v4.594c0.115,0,0.259-0.03,0.431-0.094
	c0.345-0.125,0.863-0.312,1.553-0.563c0,0.688,0,1.313,0,1.875c-0.634,0.188-1.294,0.407-1.984,0.656v6.938
	c0.057,1.562-0.662,2.375-2.156,2.438c-0.518,0-1.093,0-1.725,0c0-0.188-0.03-0.469-0.086-0.844
	c-0.058-0.438-0.116-0.75-0.173-0.938c0.459,0,0.977,0,1.553,0c0.69,0.062,1.005-0.281,0.949-1.031v-6.094
	c-0.748,0.251-1.553,0.532-2.415,0.844l-0.172-1.969c0.287-0.062,0.718-0.188,1.293-0.375c0.574-0.124,1.005-0.218,1.294-0.281
	v-5.155H54.976z M64.463,196.688v-4.971h-4.657v3.75h-1.639v-4.029c-0.806,0.438-1.697,0.844-2.673,1.218
	c-0.116-0.248-0.317-0.655-0.604-1.218c-0.058-0.125-0.116-0.22-0.172-0.281c2.415-0.75,4.369-1.749,5.865-3H55.32v-1.406h6.642
	c0.401-0.438,0.776-0.938,1.121-1.5h-5.52v-6.469h15.353v6.469h-8.107c-0.23,0.562-0.518,1.062-0.863,1.5h11.212v1.406h-5.865
	c1.609,1.438,3.737,2.344,6.382,2.719c-0.058,0.188-0.172,0.469-0.345,0.843c-0.173,0.376-0.289,0.657-0.345,0.845
	c-0.518-0.125-1.179-0.343-1.984-0.655c-0.345-0.125-0.575-0.22-0.69-0.281v1.688c0.057,1.312-0.662,1.969-2.156,1.969
	c-0.748,0-1.524,0-2.329,0l-0.259-1.313c0.229,0,0.919,0,2.07,0c0.747,0,1.092-0.28,1.035-0.845v-1.406h-4.657v4.971h-1.552V196.688
	z M55.234,177.188v-1.407h5.951v-1.499h1.639v1.499h4.83v-1.499h1.725v1.499h5.865v1.407h-5.865v1.029h-1.725v-1.029h-4.83v1.029
	h-1.639v-1.029H55.234z M61.444,130.812h1.812v-19.031h-1.294c-0.748,2.001-2.444,3.656-5.089,4.969v1.969
	c1.782-0.75,3.306-1.749,4.571-3V130.812z M59.202,179.999v1.5H71.19v-1.5H59.202z M59.202,182.53v1.5H71.19v-1.5H59.202z
	 M67.396,163.655v-6.281h-3.881c-0.172,2.876-0.892,5.312-2.156,7.313c-0.461-0.375-0.949-0.75-1.466-1.125
	c0.919-1.377,1.495-2.75,1.725-4.125c0.287-1.438,0.431-3.625,0.431-6.563v-9.469h12.506v18.469c0.057,1.688-0.72,2.531-2.329,2.531
	c-0.69,0-1.352,0-1.983,0c0-0.251-0.058-0.595-0.173-1.031c-0.058-0.313-0.086-0.563-0.086-0.75
	c0.574,0.062,1.121,0.094,1.639,0.094c0.919,0.062,1.35-0.313,1.293-1.125v-4.219h-3.967v6.281H67.396z M66.016,188.812v1.594h3.881
	c-0.978-0.75-1.783-1.502-2.415-2.25h-4.744c-0.69,0.812-1.582,1.562-2.674,2.25h4.399v-1.594H66.016z M63.601,145.093v4.5h3.795
	v-4.5H63.601z M63.601,152.968c0,1.001,0,1.938,0,2.813h3.795v-4.5h-3.795V152.968z M72.915,145.093h-3.967v4.5h3.967V145.093z
	 M68.948,151.28v4.5h3.967v-4.5H68.948z M82.137,126.219h-2.415v4.594h-1.725v-4.594h-7.935v-1.125l8.28-13.312h1.38v12.75h2.415
	V126.219z M77.651,115.718c-0.92,1.313-2.76,4.251-5.52,8.813h5.865v-9.657c0,0.063-0.058,0.188-0.172,0.375
	C77.766,115.437,77.708,115.594,77.651,115.718L77.651,115.718z M88.25,181.968c-0.461,6.438-3.307,11.376-8.539,14.813
	c-0.461-0.626-0.92-1.188-1.38-1.688c5.117-3.188,7.819-7.562,8.107-13.125h-7.676v-1.78h7.849c0.173-1.875,0.259-3.875,0.259-6
	h1.897c0,2.062-0.086,4.062-0.258,6h9.056c-0.116,4.375-0.259,8.188-0.431,11.438c-0.058,3.062-1.41,4.562-4.054,4.5
	c-1.38,0.062-2.731,0.094-4.054,0.094c-0.058-0.188-0.116-0.469-0.172-0.844c0-0.251-0.086-0.688-0.259-1.312
	c0.287,0,0.833,0,1.639,0c1.035,0.062,1.782,0.095,2.243,0.095c1.897,0.188,2.846-0.781,2.846-2.907
	c0.229-3.188,0.345-6.28,0.345-9.28H88.25V181.968z M79.206,146.874v-1.688h6.641c0.459-0.938,0.863-1.937,1.208-3l1.897,0.281
	c-0.172,0.438-0.431,1.031-0.776,1.781c-0.172,0.438-0.288,0.75-0.345,0.938h11.385v1.688H86.968
	c-0.173,0.313-0.432,0.75-0.776,1.313c-0.345,0.625-0.604,1.095-0.776,1.405h11.471v11.906c0.057,1.875-0.862,2.813-2.76,2.813
	c-1.324,0-2.415,0-3.278,0c0-0.188-0.058-0.47-0.172-0.845c-0.058-0.438-0.116-0.75-0.172-0.938c0.229,0,0.632,0,1.208,0
	c0.747,0.062,1.322,0.094,1.725,0.094c1.208,0.062,1.753-0.438,1.639-1.5v-1.5h-10.61v5.063h-1.725v-11.531
	c-1.035,1.188-2.156,2.344-3.364,3.469l-0.863-1.781c2.817-2.498,4.945-5.156,6.383-7.969L79.206,146.874L79.206,146.874z
	 M83.248,179.249c-0.978-1.313-1.983-2.469-3.019-3.47l1.294-1.124c1.149,1,2.185,2.062,3.105,3.188L83.248,179.249z
	 M84.467,151.188v2.625h10.609v-2.625H84.467z M84.467,155.405v2.625h10.609v-2.625H84.467z M86.969,113.187v-1.781h18.629v1.781
	h-8.452v9.657h9.401v1.875h-9.401v8.063h-1.811v-8.063H86.02v-1.875h9.315v-9.657H86.969z M91.626,121.344
	c-1.208-1.875-2.444-3.657-3.708-5.344l1.293-1.031c1.092,1.313,2.386,3.032,3.881,5.157L91.626,121.344z M92.045,190.218
	c-0.748-1.062-1.869-2.375-3.364-3.938l1.293-1.125c0.863,0.75,2.041,1.969,3.537,3.655L92.045,190.218z M104.65,116
	c-1.38,1.875-2.76,3.688-4.14,5.438l-1.38-1.219c1.494-1.688,2.846-3.469,4.053-5.344L104.65,116L104.65,116z M102.55,182.155
	c-0.289,0.312-0.489,0.562-0.604,0.75c-0.058-0.188-0.202-0.47-0.431-0.845c-0.172-0.375-0.317-0.655-0.431-0.844
	c1.954-2.062,3.536-4.406,4.744-7.031l1.639,0.563c-0.633,1.313-1.294,2.47-1.984,3.468v9.75h-1.639v-7.404
	C103.556,180.938,103.124,181.468,102.55,182.155L102.55,182.155z M104.965,189.655c-0.806,2.376-1.524,4.125-2.156,5.25
	l-1.552-0.656c0.862-1.688,1.581-3.375,2.156-5.063L104.965,189.655L104.965,189.655z M102.746,157.938
	c0.172-2.438,1.322-4.062,3.45-4.875c-1.725-0.875-2.646-2.28-2.76-4.22c0.229-3.188,1.954-4.875,5.175-5.062
	c3.105,0.251,4.8,1.938,5.089,5.062c-0.116,2.001-0.979,3.407-2.587,4.22c2.126,0.875,3.248,2.562,3.364,5.062
	c-0.173,3.188-2.128,4.843-5.865,4.969C104.815,162.967,102.86,161.25,102.746,157.938L102.746,157.938z M112.492,158.124
	c-0.172-2.749-1.496-4.187-3.968-4.313c-2.3,0.127-3.565,1.5-3.795,4.125c0.229,2.25,1.523,3.469,3.881,3.656
	C110.967,161.405,112.261,160.25,112.492,158.124L112.492,158.124z M111.629,148.843c-0.172-2.062-1.179-3.188-3.019-3.375
	c-1.897,0.126-2.933,1.188-3.105,3.188c0.057,2.312,1.092,3.531,3.105,3.656C110.508,152.25,111.513,151.093,111.629,148.843
	L111.629,148.843z M108.933,196.03c-1.725,0-2.587-0.907-2.587-2.72v-3.844h1.639v3.375c0.057,1,0.604,1.5,1.639,1.5h3.795
	c1.264,0.062,1.984-0.437,2.156-1.5c0.172-0.688,0.287-1.406,0.345-2.156c0.114,0.063,0.315,0.127,0.604,0.188
	c0.459,0.25,0.833,0.407,1.122,0.469c-0.173,0.876-0.345,1.688-0.518,2.438c-0.403,1.562-1.496,2.312-3.278,2.25L108.933,196.03
	L108.933,196.03z M112.038,182.155c-1.093,1.438-2.415,3-3.967,4.688c-0.116-0.188-0.375-0.437-0.776-0.75
	c-0.173-0.188-0.317-0.343-0.431-0.469c1.149-1.125,2.415-2.593,3.795-4.406L112.038,182.155L112.038,182.155z M110.658,178.217
	c-0.403,0.877-1.151,2.002-2.243,3.376c-0.058-0.062-0.116-0.125-0.172-0.188c-0.518-0.375-0.92-0.656-1.208-0.845
	c1.667-2,2.933-4.093,3.795-6.28l1.725,0.28c-0.058,0.188-0.172,0.438-0.345,0.75c-0.058,0.25-0.259,0.688-0.604,1.312h9.574v1.688
	l-1.294,3c-0.058,0-0.172-0.062-0.345-0.188c-0.518-0.188-0.92-0.343-1.208-0.469l1.121-2.438L110.658,178.217L110.658,178.217z
	 M112.555,192.374c-0.863-1.126-1.755-2.188-2.674-3.188l1.208-1.031c0.632,0.625,1.581,1.627,2.846,3L112.555,192.374z
	 M110.247,115.906v-1.781h9.918c-0.23-0.938-0.633-2.093-1.208-3.469l1.897-0.375c0.229,0.562,0.574,1.406,1.035,2.531
	c0.172,0.501,0.287,0.844,0.345,1.031l-0.863,0.281h9.143v1.781H117.75c0,1.313-0.058,2.657-0.172,4.031h10.264
	c-0.116,3.625-0.259,6.282-0.431,7.968c-0.058,2.813-1.524,4.188-4.399,4.126c-1.323,0-2.501,0-3.536,0c0-0.063,0-0.126,0-0.188
	c-0.116-0.812-0.23-1.406-0.345-1.781c0.345,0,0.862,0,1.552,0c0.863,0.062,1.523,0.094,1.984,0.094
	c1.954,0.188,2.933-0.717,2.933-2.719c0.114-0.938,0.229-2.593,0.345-4.969c0-0.312,0-0.562,0-0.75h-8.539
	c-0.172,4.688-2.186,8.374-6.038,11.062c-0.058-0.062-0.202-0.219-0.431-0.469c-0.518-0.5-0.834-0.844-0.949-1.031
	c3.737-2.438,5.634-6,5.692-10.688c0.172-1.5,0.259-3.062,0.259-4.688h-5.692V115.906z M113.073,187.78c-0.634,0-1.294,0-1.984,0
	c0-0.062-0.03-0.155-0.086-0.281c0-0.313-0.086-0.781-0.259-1.406c0.402,0.063,0.977,0.095,1.725,0.095
	c0.977,0.062,1.437-0.375,1.38-1.313v-5.251h1.639v5.531C115.544,186.843,114.74,187.719,113.073,187.78L113.073,187.78z
	 M120.49,186.843c-1.496-1.812-2.76-3.219-3.795-4.219l1.207-1.125c0.977,0.876,2.299,2.25,3.968,4.125L120.49,186.843z
	 M120.663,194.155c-0.345-0.5-0.862-1.28-1.553-2.345c-0.69-0.998-1.237-1.78-1.639-2.344l1.294-0.938
	c1.38,1.812,2.501,3.375,3.364,4.688L120.663,194.155z M129.48,153.53c-0.058,6.251-1.927,9.437-5.606,9.562
	c-3.853-0.062-5.779-3.249-5.779-9.562c0.057-6.312,1.954-9.563,5.692-9.75C127.525,143.906,129.422,147.155,129.48,153.53
	L129.48,153.53z M127.497,153.53c0-5.438-1.266-8.124-3.795-8.063c-2.358,0.188-3.566,2.876-3.623,8.063
	c0,5.376,1.236,8.032,3.708,7.969C126.259,161.562,127.497,158.906,127.497,153.53L127.497,153.53z M124.699,190.124v-1.781h10.35
	h0.086c0.574-1.875,0.863-4.594,0.863-8.155h1.811c0,3.188-0.259,5.905-0.776,8.155h7.935v1.781h-8.452
	c-0.058,0.063-0.116,0.156-0.173,0.281c-0.116,0.25-0.202,0.407-0.258,0.469c0.977,0.501,2.558,1.219,4.743,2.156
	c1.725,0.75,2.989,1.312,3.795,1.688l-0.949,1.688c-1.725-0.875-3.911-1.938-6.555-3.188c-0.806-0.375-1.438-0.655-1.897-0.844
	c-1.61,1.875-4.83,3.343-9.66,4.406c-0.116-0.313-0.345-0.75-0.69-1.313c-0.116-0.25-0.202-0.438-0.259-0.562
	c5.577-0.938,8.854-2.531,9.833-4.781H124.699z M125.043,181.688v-4.5h9.401c-0.172-0.313-0.375-0.781-0.604-1.407
	c-0.23-0.499-0.403-0.874-0.518-1.124l1.811-0.469c0.402,0.812,0.805,1.78,1.208,2.905l-0.517,0.095h8.625v4.5h-1.725v-2.813
	h-15.957v2.813H125.043z M131.34,187.688c-1.438-0.938-2.904-1.781-4.398-2.531l0.862-1.5c1.495,0.812,2.989,1.626,4.485,2.438
	L131.34,187.688z M133.324,184.218c-1.093-0.75-2.531-1.625-4.313-2.625l0.776-1.312c1.38,0.625,2.846,1.405,4.398,2.344
	L133.324,184.218z M153.032,163.938c-0.116,0.248-0.202,0.437-0.259,0.562c-5.002-0.876-8.166-2.749-9.488-5.625
	c-0.978,2.625-4.111,4.594-9.401,5.906c-0.289-0.563-0.604-1.188-0.949-1.875c5.059-0.938,8.078-2.655,9.056-5.156h-9.056v-1.594
	h2.587v-6h6.9v-2.25h1.811v2.25h6.728v6h2.674v1.594h-9.143c1.264,2.751,4.313,4.374,9.143,4.875
	C153.463,162.938,153.261,163.374,153.032,163.938L153.032,163.938z M133.022,146.499v-1.688h5.347v-2.531h1.725v2.531h6.382v-2.531
	h1.725v2.531h5.347v1.688h-5.347v1.969h-1.725v-1.969h-6.382v1.969h-1.725v-1.969H133.022z M134.397,121.25v-1.782h9.314v-9h1.812v9
	h9.229v1.782h-8.107c1.954,3.501,4.744,6.094,8.366,7.781c-0.058,0.062-0.116,0.188-0.172,0.375
	c-0.461,0.562-0.748,0.999-0.862,1.312c-4.083-2.188-6.9-5.094-8.453-8.719v10.688h-1.812v-10.594
	c-1.552,3.563-4.398,6.596-8.538,9.094c-0.116-0.188-0.289-0.469-0.518-0.844c-0.288-0.312-0.489-0.562-0.604-0.75
	c3.967-2.312,6.784-5.094,8.452-8.344H134.397z M139.832,117.875c-0.69-0.999-1.812-2.468-3.364-4.406
	c-0.173-0.188-0.317-0.343-0.432-0.469l1.294-1.125c1.149,1.313,2.472,2.906,3.967,4.781L139.832,117.875z M142.337,156.155
	c0.057-0.938,0.086-2.405,0.086-4.406h-5.175v4.406H142.337z M144.148,151.749c0,2.063-0.03,3.532-0.086,4.406h5.175v-4.406H144.148
	z M153.113,113c-0.748,1.125-2.042,2.782-3.881,4.969l-1.293-1.219c1.149-1.313,2.385-2.937,3.708-4.875L153.113,113L153.113,113z
	 M148.313,195.374v-19.125h7.245v18.844h-1.639v-1.688h-3.968v1.97H148.313L148.313,195.374z M149.952,177.938v6.094h3.968v-6.094
	H149.952z M149.952,185.624v6.093h3.968v-6.093H149.952z M156.68,180.938v-1.782h7.332v-4.874h1.725v4.874h2.674v1.782h-2.674
	v12.187c0.057,2.063-0.949,3.125-3.019,3.188c-0.979,0-2.07,0-3.277,0c-0.058-0.252-0.145-0.627-0.259-1.125
	c-0.058-0.375-0.116-0.657-0.173-0.845c0.574,0.062,1.609,0.095,3.105,0.095c1.322,0.062,1.954-0.563,1.897-1.875v-11.625H156.68z
	 M156.907,148.562v-1.781h13.714v-4.406h1.897v4.406h4.744v1.781h-4.744v11.25c0.115,2.812-1.179,4.219-3.881,4.219
	c-1.38,0.062-2.876,0.094-4.485,0.094c-0.058-0.25-0.116-0.562-0.172-0.938c-0.116-0.502-0.202-0.877-0.259-1.125
	c0.287,0,0.805,0,1.552,0c1.092,0.062,1.954,0.094,2.588,0.094c2.07,0.248,2.989-0.719,2.76-2.906v-10.688H156.907L156.907,148.562z
	 M159.871,189.468c-0.461-1.062-1.151-2.469-2.07-4.219c-0.23-0.437-0.403-0.781-0.517-1.031l1.38-0.844
	c0.345,0.563,0.805,1.406,1.38,2.531c0.632,1.125,1.092,1.969,1.38,2.53L159.871,189.468z M159.065,132.406v-18.282h2.329
	c0.173-0.624,0.402-1.531,0.69-2.719c0.114-0.5,0.201-0.844,0.259-1.031l1.811,0.281c-0.345,1.375-0.662,2.531-0.949,3.469h4.054
	v18.094h-1.725v-1.78h-4.744v1.969H159.065z M164.498,157.562c-0.806-1.062-2.445-3.095-4.917-6.095l1.38-1.219
	c2.07,2.376,3.766,4.376,5.089,6L164.498,157.562z M160.791,115.812v5.625h4.744v-5.625H160.791z M160.791,123.125v5.719h4.744
	v-5.719H160.791z M174.332,132.219c-1.208,0-2.415,0-3.623,0c-0.058-0.251-0.116-0.626-0.173-1.125
	c-0.116-0.312-0.172-0.562-0.172-0.75c1.092,0,2.243,0,3.45,0c1.667,0.124,2.501-0.688,2.501-2.438
	c0.172-5.563,0.259-9.594,0.259-12.094h-5.52c-0.575,1.375-1.151,2.625-1.725,3.75c-0.461-0.375-0.949-0.718-1.466-1.031
	c1.208-2.124,2.271-4.875,3.191-8.25l1.725,0.469c-0.116,0.501-0.317,1.188-0.604,2.063c-0.23,0.563-0.375,0.97-0.431,1.219h6.642
	c0,0.312,0,0.812,0,1.5c-0.116,5.812-0.23,10.032-0.345,12.657C177.982,130.812,176.747,132.155,174.332,132.219L174.332,132.219z
	 M172.866,125.656c-1.035-1.688-2.128-3.344-3.278-4.969l1.294-1.032c0.172,0.25,0.459,0.625,0.862,1.125
	c1.092,1.562,1.954,2.812,2.588,3.75L172.866,125.656z M172.705,196.404c-0.403,0.062-0.92,0.095-1.552,0.095
	c-0.058-0.688-0.145-1.313-0.259-1.875c0.345,0,0.776,0,1.293,0c0.805,0.062,1.178-0.281,1.122-1.032v-6.187
	c-0.23,0.062-0.634,0.22-1.208,0.469c-0.518,0.188-0.92,0.344-1.208,0.469l-0.259-1.875c0.114-0.062,0.315-0.125,0.604-0.188
	c0.402-0.188,1.092-0.438,2.07-0.75v-4.97h-2.329v-1.688h2.329v-4.501h1.552v4.501h1.984v1.688h-1.984v4.313l1.725-0.656
	c0,0.126,0.028,0.407,0.086,0.845c0,0.375,0,0.655,0,0.844c2.126-0.75,3.909-1.875,5.347-3.375h-4.83v-1.406h6.038v-4.031
	c-1.61,0.126-3.394,0.188-5.348,0.188c0-0.374-0.116-0.874-0.345-1.5c5.692-0.124,9.919-0.312,12.679-0.562l0.259,1.5
	c-2.415,0.126-4.313,0.25-5.692,0.375v4.031h6.555v1.406h-5.347c1.208,1.312,3.075,2.406,5.606,3.281
	c-0.288,0.375-0.575,0.875-0.862,1.5c-0.058-0.062-0.144-0.125-0.259-0.188c-0.172-0.062-0.289-0.094-0.345-0.094v9.655h-1.552
	v-1.125h-8.97v1.125h-1.552v-9.562c-0.116,0.062-0.289,0.126-0.518,0.188c-0.172,0.127-0.289,0.188-0.345,0.188
	c-0.345-0.5-0.662-0.938-0.949-1.313c-0.116,0.063-0.288,0.127-0.517,0.188c-0.345,0.126-0.634,0.25-0.863,0.375v7.125
	C174.976,195.498,174.257,196.342,172.705,196.404L172.705,196.404z M183.227,185.999v-3c-1.093,1.5-2.76,2.845-5.002,4.031h11.816
	c-2.301-1.125-4.054-2.499-5.261-4.125v3.094H183.227z M180.64,180.749c-0.461-0.624-1.151-1.374-2.07-2.25l1.035-0.844
	c0.863,0.75,1.581,1.438,2.156,2.062L180.64,180.749z M179.604,188.343v2.345h3.709v-2.345H179.604z M179.604,191.999v2.156h3.709
	v-2.156H179.604z M181.224,164.405v-18.281h2.329c0.173-0.624,0.402-1.53,0.69-2.719c0.114-0.499,0.201-0.845,0.259-1.031
	l1.811,0.281c-0.345,1.376-0.662,2.53-0.949,3.469h4.054v18.094h-1.725v-1.78h-4.744v1.969L181.224,164.405L181.224,164.405z
	 M182.688,113.281v-1.313h9.488c-0.116-0.5-0.259-1.062-0.431-1.688l1.811-0.188c0.057,0.188,0.115,0.438,0.172,0.75
	c0.057,0.25,0.143,0.625,0.259,1.125h9.056v1.313h-20.355V113.281z M203.129,130.062c-0.345,0.5-0.662,1.031-0.949,1.595
	c-3.048-1.001-5.118-2.656-6.209-4.97l-0.949,0.375c0.172,0.688,0.259,1.406,0.259,2.156c0.114,2.124-0.979,3.188-3.278,3.188
	c-0.345,0.062-1.179,0.094-2.501,0.094c0-0.063,0-0.126,0-0.188c-0.058-0.375-0.172-0.812-0.345-1.312
	c0.747,0.062,1.609,0.094,2.588,0.094c1.322,0.062,1.954-0.501,1.897-1.688c0-0.5-0.058-0.938-0.173-1.313
	c-2.186,1.563-5.434,2.968-9.746,4.22c-0.289-0.563-0.547-1.002-0.776-1.313c4.313-1.001,7.733-2.345,10.264-4.031
	c-0.058-0.375-0.23-0.75-0.518-1.125c-2.186,1.5-5.146,2.72-8.883,3.656c-0.058-0.188-0.202-0.437-0.432-0.75
	c-0.172-0.313-0.288-0.5-0.345-0.563c3.392-0.688,6.411-1.781,9.056-3.281c-0.058-0.125-0.144-0.248-0.259-0.375
	c-0.172-0.188-0.289-0.312-0.345-0.375c-2.128,0.938-4.658,1.721-7.59,2.345c-0.058-0.188-0.23-0.53-0.518-1.031
	c-0.116-0.125-0.172-0.219-0.172-0.28c3.334-0.563,6.094-1.313,8.28-2.25h-5.175v-1.22h13.11v1.22h-5.261
	c-0.116,0.062-0.316,0.155-0.604,0.28c-0.289,0.188-0.518,0.313-0.69,0.375c0.69,0.625,1.208,1.313,1.552,2.063
	c2.127-0.875,4.054-1.749,5.778-2.625l0.862,1.312c-1.552,0.813-2.789,1.375-3.708,1.688
	C198.386,128.094,200.312,129.438,203.129,130.062L203.129,130.062z M182.949,147.812v5.625h4.744v-5.625H182.949z M182.949,155.124
	v5.719h4.744v-5.719H182.949z M183.206,122.469v-3.188h19.319v3.188h-1.639V120.5h-16.042v1.969H183.206z M188.575,188.343h-3.795
	v2.345h3.795V188.343z M184.78,191.999v2.156h3.795v-2.156H184.78z M185.621,118.062V114.5h14.489v3.563L185.621,118.062
	L185.621,118.062z M189.61,178.405c-0.634,0.688-1.41,1.438-2.329,2.25l-1.035-0.938c0.114-0.125,0.315-0.312,0.604-0.562
	c0.747-0.688,1.294-1.249,1.639-1.688L189.61,178.405L189.61,178.405z M187.26,115.531v1.406h11.213v-1.406H187.26z M196.49,164.218
	c-1.208,0-2.415,0-3.623,0c-0.058-0.25-0.116-0.626-0.173-1.125c-0.116-0.312-0.172-0.562-0.172-0.75c1.092,0,2.243,0,3.45,0
	c1.667,0.125,2.501-0.687,2.501-2.438c0.172-5.562,0.259-9.593,0.259-12.095h-5.52c-0.575,1.377-1.151,2.625-1.725,3.75
	c-0.461-0.375-0.949-0.718-1.466-1.03c1.208-2.124,2.271-4.875,3.191-8.25l1.725,0.469c-0.116,0.501-0.317,1.188-0.604,2.063
	c-0.23,0.562-0.375,0.97-0.431,1.219h6.641c0,0.312,0,0.812,0,1.5c-0.116,5.812-0.23,10.031-0.345,12.656
	C200.141,162.812,198.905,164.154,196.49,164.218L196.49,164.218z M195.024,157.655c-1.035-1.688-2.128-3.343-3.278-4.97l1.294-1.03
	c0.172,0.251,0.459,0.626,0.862,1.125c1.092,1.562,1.954,2.812,2.588,3.75L195.024,157.655z M194.077,179.999v-1.688h4.83
	c-0.173-0.875-0.518-2.123-1.035-3.75l1.725-0.375c0.114,0.313,0.259,0.877,0.431,1.688c0.345,1.126,0.574,1.875,0.69,2.251
	l-0.776,0.188h4.054V180h-5.865c0,0.501-0.03,1.219-0.086,2.156c0,0.812,0,1.406,0,1.781h4.83c0,3.25-0.086,6.22-0.259,8.905
	c0,2.063-0.92,3.093-2.76,3.093c-0.69,0-1.324,0-1.897,0c0-0.125-0.03-0.312-0.086-0.562c-0.116-0.501-0.202-0.907-0.259-1.219
	c0.401,0,0.949,0,1.639,0c1.149,0.124,1.725-0.375,1.725-1.501c0.172-2.374,0.259-4.719,0.259-7.03h-3.277
	c-0.231,5.001-1.208,8.687-2.933,11.063c-0.633-0.688-1.065-1.125-1.294-1.313c1.667-2.188,2.53-5.78,2.587-10.781
	c0.057-0.5,0.086-1.28,0.086-2.344c0.057-0.999,0.086-1.749,0.086-2.25H194.077z M214.777,194.718
	c-0.461,0.749-0.806,1.374-1.035,1.875c-2.186-1.562-3.795-2.968-4.83-4.219c-1.266,1.5-2.991,3-5.175,4.499
	c-0.116-0.25-0.345-0.625-0.69-1.124c-0.23-0.313-0.375-0.532-0.431-0.656c2.415-1.438,4.168-2.844,5.261-4.219
	c-1.208-1.937-2.013-4.5-2.415-7.688c-0.116,0.25-0.345,0.625-0.69,1.125c-0.289,0.502-0.518,0.877-0.69,1.125
	c-0.518-0.75-0.892-1.279-1.121-1.594c1.781-2.562,3.105-5.779,3.967-9.656l1.811,0.28c-0.345,1.313-0.776,2.658-1.293,4.032h7.245
	v1.688h-1.639c-0.403,4.688-1.41,8.25-3.019,10.688C211.241,192.438,212.821,193.719,214.777,194.718L214.777,194.718z
	 M207.447,155.688c-0.23-0.188-0.517-0.405-0.862-0.656c-1.035-0.812-1.841-1.438-2.415-1.875l0.949-1.313
	c1.149,0.813,2.271,1.626,3.364,2.438L207.447,155.688z M204.342,146.03v-1.595h5.693v-2.155h1.725v2.155h5.865v-2.155h1.639v2.155
	h5.779v1.595h-5.779v1.594h-1.639v-1.594h-5.865v1.594h-1.725v-1.594H204.342z M207.878,159.905
	c-0.748,2.062-1.294,3.594-1.639,4.594l-1.639-0.656c0.69-1.563,1.553-3.874,2.588-6.938c0.172,0.063,0.431,0.188,0.776,0.375
	c0.345,0.127,0.604,0.252,0.776,0.375C208.568,158.156,208.28,158.906,207.878,159.905L207.878,159.905z M208.827,151.28
	c-1.208-0.938-2.272-1.781-3.191-2.531l0.949-1.219c0.919,0.562,2.041,1.345,3.364,2.344L208.827,151.28z M206.583,180.655
	c0.46,3.812,1.264,6.688,2.415,8.625c1.208-1.875,2.012-4.906,2.415-9.095h-4.657L206.583,180.655L206.583,180.655z
	 M210.289,116.375c-0.92,0.938-1.897,1.813-2.933,2.625c-0.172-0.563-0.403-1.187-0.69-1.875c2.185-1.562,4.254-3.844,6.21-6.844
	l1.639,0.656c-0.806,1.313-1.639,2.47-2.501,3.469v8.531h-1.725V116.375L210.289,116.375z M206.752,127.25v-1.688h9.315v-2.813
	h1.811v2.813h9.315v1.688h-9.315v5.438h-1.811v-5.438H206.752z M224.956,156.062c-0.172,0.438-0.288,0.812-0.345,1.125
	c-3.278-0.688-5.722-1.406-7.332-2.156c-1.897,0.876-4.313,1.688-7.245,2.438c-0.058-0.249-0.23-0.656-0.518-1.219
	c-0.058-0.124-0.116-0.249-0.172-0.375c2.587-0.499,4.686-1.093,6.296-1.781c-0.92-0.687-1.811-1.529-2.674-2.531
	c-0.633,0.75-1.38,1.5-2.242,2.25c-0.173-0.248-0.518-0.655-1.035-1.219c1.897-1.562,3.364-3.375,4.399-5.438l1.639,0.281
	l-0.776,1.312h7.849v1.688c-1.093,1.377-2.387,2.596-3.881,3.656c1.667,0.563,3.737,1.031,6.21,1.406
	C225.07,155.625,225.012,155.812,224.956,156.062L224.956,156.062z M211.415,164.688v-7.125h11.299v7.125h-1.725v-1.22h-7.849v1.22
	H211.415z M217.792,118.156c-1.265,0.562-2.587,1.094-3.967,1.594c-0.23-0.563-0.489-1.125-0.776-1.688
	c1.725-0.563,3.306-1.156,4.744-1.781v-5.719h1.725v4.875c1.725-0.875,3.623-2.093,5.692-3.656l1.122,1.312
	c-2.07,1.563-4.342,2.969-6.814,4.219v1.594c-0.116,1.313,0.488,1.907,1.812,1.782h1.983c1.15,0.062,1.782-0.438,1.897-1.5
	c0.115-0.375,0.229-1.187,0.345-2.438c0.229,0.126,0.574,0.25,1.035,0.375c0.287,0.126,0.488,0.22,0.604,0.281
	c-0.116,1.062-0.259,1.969-0.431,2.719c-0.289,1.5-1.323,2.219-3.105,2.156h-2.933c-2.07,0.126-3.048-0.905-2.933-3.094V118.156
	L217.792,118.156z M213.14,159.155v2.812h7.849v-2.812H213.14z M217.279,153.249c1.38-0.812,2.588-1.812,3.623-3h-6.9v0.094
	C214.921,151.531,216.014,152.499,217.279,153.249L217.279,153.249z M220.279,185.062c-1.266-1.25-2.329-2.219-3.191-2.906
	l1.122-1.313c1.208,0.876,2.299,1.781,3.277,2.72L220.279,185.062z M221.228,188.436c-0.69,2.752-1.323,5.472-1.897,8.157
	l-1.811-0.562c0.632-2.312,1.322-5.063,2.07-8.25c0.172,0.062,0.459,0.155,0.862,0.28
	C220.797,188.249,221.056,188.375,221.228,188.436L221.228,188.436z M220.969,178.874c-1.323-1.313-2.387-2.312-3.191-3.001
	l1.121-1.312c0.229,0.188,0.574,0.502,1.035,0.938c0.977,0.813,1.725,1.469,2.243,1.969L220.969,178.874z M225.799,177.938
	c-0.806,1.375-1.811,2.75-3.019,4.125c-0.345-0.5-0.72-0.97-1.122-1.406c1.782-1.688,3.22-3.875,4.313-6.563l1.725,0.28
	c-0.345,0.626-0.662,1.281-0.949,1.969h10.781v1.596H225.799L225.799,177.938z M221.832,187.405v-1.595h2.156l0.604-5.719h11.471
	l-0.086,5.719h2.07v1.595h-2.156c0,1.499-0.058,2.905-0.172,4.219h1.725v1.594h-1.725c-0.116,2.249-1.266,3.343-3.45,3.281
	c-0.862,0-1.841,0-2.933,0c-0.058-0.188-0.116-0.469-0.172-0.844c-0.116-0.375-0.202-0.657-0.259-0.845
	c0.919,0.062,1.897,0.095,2.933,0.095c1.38,0.062,2.126-0.501,2.242-1.688h-10.954l0.604-5.812L221.832,187.405L221.832,187.405z
	 M234.166,191.624c0.057-0.437,0.086-1.125,0.086-2.063c0.057-0.998,0.086-1.719,0.086-2.156h-8.884l-0.517,4.22H234.166
	L234.166,191.624z M226.058,181.688l-0.431,4.125h8.711v-4.125H226.058z M228.399,150.438v-1.688h2.243v-6.375h1.639v6.375h2.156
	v1.688h-2.156v8.719l2.674-0.844c0,0.438,0.028,1.03,0.086,1.78c-0.576,0.188-1.639,0.501-3.191,0.938
	c-1.668,0.562-2.876,0.906-3.623,1.031l-0.345-1.688l2.76-0.75v-9.188h-2.243V150.438z M230.543,191.248
	c-0.172-0.124-0.431-0.342-0.776-0.655c-0.69-0.624-1.265-1.125-1.725-1.5l0.862-1.03c0.69,0.5,1.553,1.188,2.587,2.062
	L230.543,191.248z M230.802,185.343c-0.806-0.812-1.639-1.53-2.501-2.155l0.862-1.031c0.69,0.501,1.552,1.188,2.587,2.062
	L230.802,185.343z M239.528,117.781c-2.301,1.75-4.888,3.469-7.763,5.156c-0.058-0.125-0.144-0.312-0.259-0.562
	c-0.23-0.438-0.431-0.781-0.604-1.031c2.644-1.438,5.117-3.125,7.417-5.062L239.528,117.781L239.528,117.781z M233.663,124.156
	v-1.781h14.921v1.781h-6.555v5.812h8.797v1.594H231.42v-1.594h8.884v-5.812H233.663z M231.506,117.687v-4.594h9.143
	c-0.23-0.875-0.518-1.718-0.863-2.531l1.898-0.375c0.114,0.313,0.287,0.813,0.517,1.5c0.173,0.563,0.315,0.97,0.432,1.219
	l-0.69,0.188h8.884v4.594h-1.811v-2.813h-15.784v2.813L231.506,117.687L231.506,117.687z M244.442,156.999
	c-0.403,0.063-0.69,0.094-0.862,0.094c-0.058-0.624-0.172-1.219-0.345-1.78c0.402,0,0.891,0,1.466,0
	c0.863,0.062,1.294-0.53,1.294-1.781c0.115-1.999,0.172-3.656,0.172-4.969l-3.45,1.312v9.938h-1.725v-9.375l-3.277,1.125v8.625
	c-0.116,1.438,0.604,2.094,2.156,1.97h4.571c1.553,0.062,2.386-0.438,2.501-1.5c0.057-0.312,0.143-0.874,0.259-1.688
	c0.114-0.624,0.201-1.062,0.259-1.312c0.518,0.251,1.035,0.469,1.552,0.656c0,0.188-0.029,0.438-0.086,0.75
	c-0.116,1.125-0.259,1.969-0.432,2.53c-0.345,1.624-1.524,2.405-3.536,2.345h-5.692c-2.243,0.062-3.307-1-3.191-3.188v-8.531
	l-1.639,0.563L234.178,151l1.897-0.656V145h1.639v4.781l3.277-1.125v-6.375h1.725v5.812l5.088-1.781
	c0,2.002-0.086,4.471-0.259,7.406c0.057,2.188-0.69,3.251-2.242,3.188C245.132,156.969,244.844,156.999,244.442,156.999
	L244.442,156.999z M245.447,194.438c-1.783,0.873-3.221,1.529-4.313,1.968c-0.058-0.063-0.116-0.188-0.172-0.374
	c-0.116-0.251-0.345-0.626-0.69-1.125c2.415-0.876,4.6-1.844,6.555-2.906l0.949,1.406
	C247.2,193.655,246.424,193.998,245.447,194.438L245.447,194.438z M242.428,182.062v-6.845h16.56v6.845h-7.676l0.604,1.78h9.143
	v1.406h-20.7v-1.406h9.66c-0.058-0.188-0.145-0.5-0.259-0.938c-0.116-0.313-0.202-0.53-0.259-0.656l1.035-0.188h-8.108V182.062z
	 M250.481,122.938c-2.646-1.875-5.175-3.594-7.59-5.156l0.949-1.406c2.76,1.688,5.29,3.313,7.59,4.875L250.481,122.938z
	 M243.032,191.343v-4.5h15.438v4.5h-6.555v2.625c0,1.562-0.776,2.374-2.329,2.438c-0.576,0-1.352,0-2.329,0
	c0-0.063-0.029-0.188-0.086-0.374c0-0.251-0.086-0.721-0.259-1.406c0.632,0.062,1.293,0.094,1.983,0.094
	c0.977,0,1.437-0.345,1.38-1.031v-2.344L243.032,191.343L243.032,191.343z M244.067,176.53v1.594h13.196v-1.594H244.067z
	 M244.067,179.154v1.688h13.196v-1.688H244.067z M244.67,188.062v1.969h12.075v-1.969H244.67z M252.198,150.438v-1.875h9.057
	c0.115-1.438,0.172-3.5,0.172-6.188h1.897c0,1.5-0.058,3.563-0.172,6.188h9.143v1.875h-9.056c0.805,5.75,3.938,9.72,9.401,11.905
	c-0.575,0.812-1.006,1.438-1.293,1.875c-5.002-2.374-8.021-6-9.056-10.875c-0.806,4.751-3.795,8.501-8.97,11.25l-1.294-1.688
	c5.693-2.874,8.711-7.031,9.057-12.47h-8.886V150.438z M260.195,196.124c-2.531-1.188-4.687-2.063-6.469-2.625l0.776-1.313
	c0.919,0.314,2.156,0.783,3.708,1.406c1.208,0.376,2.157,0.688,2.847,0.938L260.195,196.124z M255.819,132.594V115.25h1.726v17.344
	H255.819z M259.356,114.781c-0.518-0.688-1.294-1.688-2.329-3c-0.172-0.188-0.288-0.312-0.345-0.375l1.38-1.125
	c0.977,0.938,1.926,2.001,2.846,3.188L259.356,114.781z M260.823,128.094v-11.719h8.883v11.719H260.823z M271.949,132.5
	c-1.093,0-2.214,0-3.364,0c0-0.062,0-0.157,0-0.281c-0.058-0.375-0.172-0.906-0.345-1.594c0.345,0,0.804,0,1.38,0
	c0.632,0.062,1.149,0.094,1.552,0.094c1.322,0.062,1.954-0.562,1.897-1.875v-15.562h-10.695V111.5h12.42v17.719
	C274.852,131.343,273.903,132.438,271.949,132.5L271.949,132.5z M262.375,117.968v3.47h5.692v-3.47H262.375z M262.375,123.031v3.375
	h5.692v-3.375H262.375z M269.062,195.936c-1.841-0.187-2.876-1.28-3.105-3.28c0.172-2.123,1.208-3.281,3.105-3.468
	c1.954,0.187,3.019,1.345,3.191,3.468C272.08,194.654,271.016,195.749,269.062,195.936L269.062,195.936z M269.062,190.593
	c-1.093,0.126-1.697,0.813-1.811,2.062c0.114,1.063,0.718,1.655,1.811,1.782c1.149-0.127,1.782-0.719,1.897-1.782
	C270.843,191.405,270.211,190.719,269.062,190.593L269.062,190.593z M277.56,159.062v-1.595h7.676v-1.969h1.725v1.969h7.676v1.595
	h-7.676v3h9.401v1.688h-20.613v-1.688h9.487v-3H277.56z M276.611,144.999v-1.594h10.867v1.594h-2.156v3.75h2.846v1.594h-2.846v4.781
	h-1.552v-4.781h-3.45c-0.116,2.126-1.006,3.97-2.673,5.531c-0.403-0.375-0.834-0.75-1.294-1.125c1.495-1.313,2.271-2.78,2.329-4.406
	h-2.846v-1.594h3.019c0-0.249,0-0.563,0-0.938v-2.812L276.611,144.999L276.611,144.999z M280.406,147.812c0,0.375,0,0.688,0,0.938
	h3.364V145h-3.364V147.812z M285.145,128.562c0,2.188-0.748,3.812-2.243,4.875l-0.776-0.844c1.035-0.812,1.581-2.031,1.639-3.656
	h-1.466v-3.094h2.846C285.145,126.345,285.145,127.25,285.145,128.562L285.145,128.562z M289.29,151.468v-7.688h1.466v7.688H289.29z
	 M292.912,155.405c-1.035,0-1.984,0-2.847,0c0-0.188-0.058-0.438-0.172-0.75c-0.058-0.438-0.116-0.78-0.172-1.031
	c0.345,0.063,1.149,0.094,2.415,0.094c1.091,0.126,1.581-0.405,1.466-1.594v-9.469h1.552v9.844
	C295.211,154.438,294.464,155.405,292.912,155.405L292.912,155.405z M311.45,162.812v-1.688h-8.884v-17.063h-1.984v18.75h10.868
	V162.812z M306.449,127.719c-0.346,1.563-1.035,3.188-2.07,4.875l-1.38-1.125c0.919-1.438,1.523-2.874,1.812-4.312
	c0.287-1.374,0.431-3.469,0.431-6.281v-8.157h8.28c-0.23-0.75-0.519-1.5-0.863-2.25l1.896-0.281c0.115,0.25,0.346,0.813,0.69,1.688
	c0.115,0.375,0.201,0.656,0.259,0.844h7.16v5.625h-15.699v2.438C306.966,123.844,306.794,126.157,306.449,127.719L306.449,127.719z
	 M307.397,122.469v-1.594h7.417c-0.059-0.249-0.145-0.624-0.26-1.125c-0.115-0.312-0.202-0.563-0.259-0.75l1.812-0.281l0.518,2.157
	h7.246v1.594h-10.955c0,0.876-0.03,1.656-0.086,2.345h8.885c0,0.625-0.058,1.75-0.173,3.375c-0.058,0.375-0.086,0.625-0.086,0.75
	c-0.116,2.123-1.207,3.188-3.278,3.188c-1.035,0-2.1,0-3.19,0c0-0.126-0.029-0.345-0.086-0.656c-0.116-0.501-0.202-0.876-0.26-1.125
	c0.806,0.062,1.812,0.094,3.02,0.094c1.38,0.062,2.099-0.529,2.156-1.78c0-0.188,0-0.53,0-1.031
	c0.057-0.624,0.086-1.063,0.086-1.313h-7.332c-0.172,2.438-1.726,4.595-4.657,6.47c-0.23-0.313-0.633-0.782-1.208-1.406
	c1.839-1.188,3.019-2.344,3.536-3.469c0.632-1.125,0.949-2.938,0.949-5.438h-3.795V122.469z M306.966,114.312v2.531h13.974v-2.531
	H306.966z M317.914,161.124h10.954v1.688H315.93v-18.75h12.42v1.78h-10.437v6.375h9.833v1.875h-9.833L317.914,161.124
	L317.914,161.124z M328.262,132.594V115.25h1.726v17.344H328.262z M331.798,114.781c-0.518-0.688-1.294-1.688-2.329-3
	c-0.173-0.188-0.288-0.312-0.345-0.375l1.38-1.125c0.978,0.938,1.926,2.001,2.847,3.188L331.798,114.781z M333.264,128.094v-11.719
	h8.885v11.719H333.264z M348.012,153.438c0.114,6.375-2.703,9.5-8.452,9.375h-5.864v-18.75h6.037
	C345.079,144.249,347.839,147.375,348.012,153.438L348.012,153.438z M344.391,132.5c-1.094,0-2.215,0-3.363,0
	c0-0.062,0-0.157,0-0.281c-0.059-0.375-0.174-0.906-0.346-1.594c0.346,0,0.806,0,1.38,0c0.633,0.062,1.149,0.094,1.554,0.094
	c1.32,0.062,1.954-0.562,1.896-1.875v-15.562h-10.694V111.5h12.42v17.719C347.293,131.343,346.344,132.438,344.391,132.5
	L344.391,132.5z M334.816,117.968v3.47h5.691v-3.47H334.816z M334.816,123.031v3.375h5.691v-3.375H334.816z M346.028,153.53
	c-0.173-4.875-2.302-7.406-6.384-7.595h-4.054v15.281h3.968C343.929,161.156,346.085,158.593,346.028,153.53L346.028,153.53z
	 M355.345,152.593c0.172,5.501-0.72,9.5-2.674,12c-0.173-0.126-0.403-0.344-0.689-0.655c-0.288-0.313-0.519-0.531-0.689-0.656
	c0.977-1.438,1.608-2.906,1.897-4.406c0.286-1.438,0.431-3.656,0.431-6.656v-8.812h17.595v5.906h-15.869L355.345,152.593
	L355.345,152.593z M361.812,121.812c-0.806,1.813-2.501,3.625-5.088,5.438c-0.115-0.125-0.316-0.375-0.604-0.75
	c-0.345-0.375-0.575-0.655-0.689-0.844c3.969-2.063,5.835-5.095,5.606-9.094c0-0.125,0-0.249,0-0.375h-6.124v16.219h-1.812v-18.094
	h7.937c0.057-1.125,0.086-2.438,0.086-3.938h1.812c0,1.5,0,2.813,0,3.938h7.677v14.813c0,1.999-0.948,3.03-2.847,3.094
	c-1.208,0-2.357,0-3.449,0c0-0.062-0.03-0.22-0.088-0.469c0-0.251-0.086-0.782-0.258-1.594c0.805,0.062,1.839,0.094,3.104,0.094
	c1.208,0.062,1.78-0.469,1.725-1.594v-12.469h-5.951c-0.058,0.126-0.086,0.25-0.086,0.375c0,1.313-0.145,2.5-0.432,3.563h0.087
	c2.472,2.188,4.369,3.97,5.692,5.344l-1.294,1.406C364.457,124.438,362.79,122.75,361.812,121.812L361.812,121.812z
	 M355.345,144.999v2.719h14.23v-2.719H355.345z M356.725,154.188v-1.595h4.055c-0.461-0.874-1.035-1.718-1.727-2.53l1.554-0.656
	c0.689,0.938,1.294,1.845,1.812,2.719l-1.294,0.469h3.795c0.229-0.312,0.519-0.812,0.862-1.5c0.46-0.75,0.805-1.312,1.035-1.688
	l1.639,0.562c-0.115,0.188-0.316,0.501-0.604,0.938c-0.461,0.75-0.806,1.312-1.034,1.688h4.397v1.595h-3.449v3.188h4.484v1.5h-4.484
	v5.719h-1.639v-5.719h-4.658c-0.114,2.312-1.323,4.28-3.622,5.906c-0.115-0.126-0.316-0.313-0.604-0.563
	c-0.346-0.312-0.576-0.532-0.69-0.655c2.07-1.377,3.134-2.938,3.191-4.688h-3.968v-1.5h4.054v-0.563v-2.625H356.725L356.725,154.188
	z M361.555,156.905v0.469h4.571v-3.188h-4.571V156.905z"/>
<path fill="#FFFFFF" d="M59.188,80.605c-0.494,2.625-1.576,5.468-3.249,8.531c-0.199-0.221-0.494-0.603-0.886-1.148
	c-1.084-1.205-1.871-2.025-2.362-2.461c2.362-3.389,3.444-8.967,3.249-16.734V57.801h11.37v-8.039h4.282v2.461h14.47v3.445h-14.47
	v2.133h16.833l-0.886,7.055c-1.28-0.328-2.658-0.492-4.134-0.492l0.443-2.953H60.074v7.547
	C60.074,74.099,59.779,77.98,59.188,80.605L59.188,80.605z M59.483,87.824v-3.773h8.121V73.715h4.135v10.336h3.396V73.715h4.134
	v10.336h8.859v3.773H59.483z M63.766,82.246c-1.28-2.297-2.51-4.484-3.691-6.563l3.249-1.969c1.573,2.407,2.805,4.54,3.691,6.398
	L63.766,82.246z M61.403,67.973l-0.295-3.117l6.349-0.492V62.23h4.134v1.969l9.302-0.656l0.148,2.953l-9.45,0.82
	c-0.099,1.422,0.591,2.079,2.067,1.969h6.792c1.181,0,1.869-0.492,2.067-1.477c0.097-0.218,0.147-0.6,0.147-1.148
	c0.097-0.656,0.148-1.092,0.148-1.313c0.392,0.11,0.982,0.274,1.771,0.492c1.082,0.22,1.82,0.384,2.215,0.492c0,0.11,0,0.22,0,0.328
	c-0.198,1.205-0.395,2.079-0.59,2.625c-0.494,2.189-2.019,3.227-4.578,3.117h-9.745c-3.052,0.11-4.529-1.42-4.43-4.594V67.48
	L61.403,67.973z M84.88,79.621c-0.886,1.205-1.527,2.133-1.919,2.789l-3.101-2.461c0-0.108,0.049-0.218,0.148-0.328
	c1.772-2.625,3.05-4.648,3.839-6.07l3.396,2.297C86.749,76.614,85.962,77.873,84.88,79.621L84.88,79.621z M91.232,61.902v-4.43
	h3.544V50.09h4.134v7.383h3.248v4.43H98.91v6.727l3.396-0.82c0,1.641,0,3.173,0,4.594l-3.396,0.82v10.172
	c0,3.281-1.329,4.976-3.987,5.086c-0.886,0.107-2.019,0.164-3.396,0.164c-0.199-1.641-0.443-3.117-0.738-4.43
	c0.787,0,1.525,0,2.215,0c1.181,0,1.772-0.656,1.772-1.969v-7.875l-3.839,1.148l-0.295-5.086c0.492-0.108,1.182-0.272,2.067-0.492
	c0.983-0.108,1.673-0.218,2.067-0.328v-7.711L91.232,61.902L91.232,61.902z M105.998,84.543c-0.494,0.546-0.886,0.928-1.181,1.148
	l-2.363-3.445c1.082-1.42,1.574-2.953,1.477-4.594v-25.43h4.134v24.445c0.097-0.108,0.245-0.218,0.443-0.328
	c1.869-1.859,3.248-3.225,4.134-4.102c0.097,1.533,0.344,3.281,0.738,5.25c-2.167,2.079-4.282,4.102-6.349,6.07
	C106.833,83.779,106.489,84.107,105.998,84.543L105.998,84.543z M123.864,88.152c-1.871-2.846-3.396-5.194-4.577-7.055
	c-1.28,2.407-3.595,5.14-6.94,8.203c-0.295-0.328-0.69-0.767-1.181-1.313c-0.395-0.438-1.084-1.205-2.067-2.297
	c6.003-4.374,9.056-10.172,9.155-17.391c0.295-4.156,0.443-10.008,0.443-17.555h4.43c-0.198,8.203-0.395,14.219-0.59,18.047
	c-0.199,2.735-0.591,5.25-1.182,7.547c0.983,1.533,2.363,3.609,4.135,6.234c0.688,1.094,1.181,1.805,1.477,2.133L123.864,88.152z
	 M113.085,63.215c-0.789-2.187-2.019-5.468-3.691-9.844c0.097,0.22,0,0-0.295-0.656l3.691-1.641
	c1.477,3.391,2.854,6.783,4.134,10.172L113.085,63.215z M129.921,88.973V51.73h12.403v4.266l-2.806,10.336
	c2.263,2.735,3.346,5.962,3.249,9.68c0.097,4.266-1.576,6.619-5.02,7.055c-0.789,0.11-1.625,0.164-2.51,0.164
	c-0.099-0.984-0.395-2.405-0.886-4.266c-0.099-0.218-0.147-0.382-0.147-0.492c0.886,0,1.673,0,2.362,0
	c1.377,0,2.067-1.039,2.067-3.117c0-2.733-1.084-5.578-3.249-8.531l2.658-10.828h-3.986v32.977L129.921,88.973L129.921,88.973z
	 M144.391,88.973v-36.75h18.31v36.75h-4.43v-2.789h-9.45v2.789H144.391z M148.821,56.652v10.336h9.45V56.652H148.821z
	 M148.821,71.418v10.664h9.45V71.418H148.821z M198.426,69.121c-0.295-0.328-0.689-0.875-1.181-1.641
	c-0.59-0.656-1.033-1.148-1.329-1.477c-2.266,0.11-5.71,0.22-10.336,0.328c-5.12,0.22-8.811,0.384-11.074,0.492
	c-2.363,0.22-4.134,0.438-5.316,0.656l-2.215-4.594c1.377-0.764,2.806-1.749,4.282-2.953c3.444-3.171,6.645-6.617,9.598-10.336
	l4.873,2.297c-3.543,3.83-7.138,7.329-10.779,10.5c1.082,0,2.902-0.054,5.463-0.164c5.216-0.218,9.155-0.382,11.813-0.492
	l-3.987-4.594l3.249-2.625c4.134,4.486,7.678,8.367,10.631,11.648L198.426,69.121z M170.372,89.137V70.598h27.611v18.539h-4.577
	v-2.461h-18.457v2.461H170.372z M174.949,75.027v7.547h18.457v-7.547H174.949z M222.054,71.746
	c-1.181,2.517-3.742,5.306-7.678,8.367c-0.198-0.328-0.789-1.092-1.772-2.297c-0.59-0.764-1.033-1.313-1.329-1.641v12.469h-4.577
	V56.652h13.289V50.09h4.578c0,2.625,0,4.814,0,6.563h12.846v25.102c0.097,4.155-1.772,6.342-5.611,6.563
	c-0.689,0-1.871,0.054-3.543,0.164c-1.38,0-2.362,0-2.953,0c0-0.11-0.051-0.328-0.148-0.656c-0.198-1.205-0.494-2.625-0.886-4.266
	c1.869,0.11,3.691,0.164,5.463,0.164c2.263,0.22,3.297-0.875,3.101-3.281V61.41h-8.417c-0.099,1.641-0.346,3.609-0.738,5.906
	c3.149,2.735,6.202,5.524,9.155,8.367l-3.396,3.609c-0.789-0.875-2.019-2.133-3.691-3.773
	C224.071,73.771,222.841,72.512,222.054,71.746L222.054,71.746z M211.275,61.41v14.766c5.906-3.5,8.76-8.421,8.564-14.766H211.275
	L211.275,61.41z M242.138,71.582v-3.938h2.067V53.863h3.543c0-0.218,0.049-0.492,0.148-0.82c0.196-0.875,0.392-1.969,0.59-3.281
	l4.135,0.492c-0.1,0.548-0.395,1.369-0.886,2.461c-0.099,0.548-0.198,0.93-0.295,1.148h4.873v8.695
	c3.936-3.281,6.939-7.547,9.007-12.797l4.43,0.492l-0.738,1.805c2.658,4.594,5.659,8.039,9.007,10.336
	c-0.59,1.422-1.181,2.953-1.771,4.594c-0.69-0.656-1.428-1.313-2.215-1.969c0,0.876-0.05,2.297-0.147,4.266
	c0,1.969-0.051,3.337-0.147,4.102c-0.099,3.501-1.576,5.306-4.43,5.414c-0.789,0.11-2.118,0.164-3.987,0.164
	c-0.099-0.546-0.247-1.367-0.443-2.461c-0.099-0.764-0.199-1.367-0.295-1.805c1.181,0.11,2.215,0.164,3.101,0.164
	c1.477,0,2.215-0.764,2.215-2.297l0.148-4.102h-6.792v12.961c-0.099,1.861,0.738,2.735,2.51,2.625h4.577
	c1.477,0,2.363-0.764,2.658-2.297c0-0.328,0.048-0.875,0.147-1.641c0.196-1.313,0.344-2.351,0.443-3.117
	c0.591,0.22,1.377,0.492,2.363,0.82c0.688,0.328,1.181,0.548,1.477,0.656c-0.199,1.533-0.494,3.337-0.886,5.414
	c-0.494,2.843-2.314,4.209-5.463,4.102h-6.35c-3.742,0.107-5.563-1.805-5.463-5.742V66.004l-1.625,1.477
	c-0.395-1.203-0.837-2.297-1.329-3.281v20.016c0.097,2.732-1.084,4.155-3.544,4.266c-1.181,0-2.362,0-3.544,0
	c-0.295-1.095-0.59-2.407-0.886-3.938c0.983,0,1.919,0,2.806,0c1.278,0.107,1.869-0.436,1.771-1.641v-11.32h-5.168
	c0,7.439-0.937,13.343-2.805,17.719c-0.199-0.221-0.542-0.549-1.034-0.984c-0.295-0.328-1.034-1.041-2.215-2.133
	c1.673-3.281,2.51-8.147,2.51-14.602L242.138,71.582L242.138,71.582z M247.749,57.801v9.844h5.168v-9.844H247.749z M249.964,65.84
	c-0.59-1.641-1.329-3.335-2.215-5.086l2.51-1.313c0.886,1.641,1.673,3.281,2.363,4.922L249.964,65.84z M249.964,80.441
	c-0.198-0.656-0.542-1.584-1.033-2.789c-0.494-1.203-0.886-2.133-1.182-2.789l2.658-1.477c0.097,0.22,0.295,0.656,0.59,1.313
	c0.688,1.861,1.23,3.281,1.625,4.266L249.964,80.441z M273.146,64.363c-2.362-2.515-4.381-5.358-6.054-8.531
	c-1.675,3.173-3.742,6.016-6.202,8.531H273.146L273.146,64.363z M287.028,72.402c-0.099,6.563-1.428,12.084-3.986,16.57
	c-0.295-0.221-0.886-0.656-1.772-1.313c-0.789-0.549-1.38-0.984-1.772-1.313c2.459-3.938,3.592-10.172,3.396-18.703V53.535h13.289
	c-0.099-0.328-0.247-0.82-0.443-1.477c-0.295-0.875-0.542-1.477-0.738-1.805l5.315-0.492c0,0.22,0.148,0.712,0.443,1.477
	c0.295,0.984,0.491,1.75,0.59,2.297h12.255v11.32h-26.431v2.625v0.82h11.37c-0.199-0.875-0.443-1.749-0.738-2.625l4.873-0.492
	l0.738,3.117h11.813v4.102h-17.868c0,1.094,0,2.079,0,2.953h14.766c0,0.548-0.051,1.422-0.146,2.625
	c-0.1,2.189-0.198,3.666-0.296,4.43c-0.197,4.045-2.066,6.014-5.61,5.906c-1.772,0-3.791,0-6.054,0
	c-0.395-1.533-0.738-2.899-1.034-4.102c1.377,0.11,3.149,0.164,5.315,0.164c2.067,0,3.101-0.82,3.101-2.461c0-0.218,0-0.6,0-1.148
	c0.097-0.764,0.146-1.313,0.146-1.641h-10.779c-0.494,3.501-3.004,6.944-7.531,10.336c-1.181-1.533-2.215-2.789-3.101-3.773
	c5.021-3.061,7.332-7.491,6.94-13.289H287.028L287.028,72.402z M287.176,57.637v3.445h22.148v-3.445H287.176z"/>
<path fill="#9BF4FE" d="M268.787,27.13c-0.64-0.687-1.599-1.594-2.877-2.719c0.116,0.126-0.03,0-0.436-0.375l1.657-1.875
	c0.523,0.438,1.278,1.063,2.267,1.875c0.523,0.438,0.901,0.75,1.134,0.938L268.787,27.13z M269.747,31.817
	c-0.756,2.938-1.251,4.999-1.482,6.188l-2.528-0.75c0.464-1.688,1.133-4.438,2.005-8.25c0.29,0.063,0.697,0.188,1.221,0.375
	c0.58,0.188,0.987,0.344,1.22,0.469C270.065,30.287,269.921,30.942,269.747,31.817L269.747,31.817z M269.311,20.849
	c-0.349-0.375-0.902-0.905-1.657-1.594c-0.697-0.687-1.25-1.187-1.657-1.5l1.57-1.875c0.349,0.313,0.987,0.844,1.918,1.594
	c0.697,0.563,1.221,1,1.569,1.313L269.311,20.849z M271.926,23.849c-0.175-0.249-0.436-0.593-0.785-1.031
	c-0.349-0.437-0.641-0.75-0.872-0.938c1.859-1.812,3.254-3.938,4.185-6.375l2.703,0.281c-0.117,0.188-0.262,0.469-0.436,0.844
	c-0.175,0.375-0.32,0.656-0.436,0.844h9.939v2.25h-11.16c-0.349,0.563-0.728,1.125-1.133,1.688h11.073
	c-0.059,0.313-0.087,1.219-0.087,2.719c-0.059,1.188-0.087,2.125-0.087,2.813h1.831v2.25h-1.831
	c-0.058,1.188-0.087,2.313-0.087,3.375h1.482v2.156h-1.569c-0.117,2.187-1.279,3.249-3.487,3.188h-3.487
	c-0.059-0.313-0.233-0.782-0.523-1.406c-0.059-0.313-0.117-0.532-0.174-0.656c1.104,0,2.237,0,3.4,0
	c1.104,0.062,1.714-0.313,1.831-1.125h-10.637l0.523-5.531h-1.744v-2.25h2.005l0.349-4.031L271.926,23.849z M282.301,32.567
	c0.057-0.688,0.087-1.812,0.087-3.375h-7.847l-0.349,3.375h4.621c-0.64-0.624-1.395-1.25-2.267-1.875l1.221-1.5
	c0.988,0.688,1.888,1.345,2.703,1.969l-1.22,1.406H282.301z M275.065,23.661l-0.349,3.281h4.359
	c-0.349-0.312-0.872-0.75-1.569-1.313c-0.349-0.312-0.61-0.53-0.784-0.656l1.308-1.313L275.065,23.661L275.065,23.661z
	 M282.476,26.942c0-1.562,0-2.656,0-3.281h-4.272c0.406,0.25,0.959,0.656,1.657,1.219c0.349,0.313,0.61,0.532,0.785,0.656
	l-1.221,1.406H282.476L282.476,26.942z M290.296,36.88v-2.719h7.847V15.88h2.964v6.563h8.37v2.813h-8.37v8.906h9.939v2.719
	L290.296,36.88L290.296,36.88z M314.847,18.88v-1.781h9.068c0-0.188-0.059-0.437-0.175-0.75c-0.06-0.312-0.117-0.53-0.174-0.656
	l2.877-0.188l0.349,1.594h8.806v1.781H314.847z M334.639,36.692c-0.059,0.188-0.116,0.312-0.174,0.375
	c-2.965-1-4.913-2.499-5.842-4.5c-0.292,0.063-0.523,0.157-0.698,0.281c0,0.126,0,0.344,0,0.656
	c0.059,0.375,0.088,0.656,0.088,0.844c0.115,2.375-1.047,3.563-3.486,3.563c-0.932,0-1.861,0-2.79,0
	c-0.176-0.375-0.379-1-0.61-1.875c1.104,0,2.033,0,2.79,0c1.162,0.062,1.714-0.438,1.656-1.5c0-0.188,0-0.406,0-0.656
	c-2.268,1.375-5.553,2.687-9.853,3.938c-0.349-0.813-0.641-1.406-0.872-1.781c3.836-0.626,7.324-1.813,10.462-3.563
	c0-0.125-0.059-0.281-0.174-0.469c-0.059-0.188-0.117-0.312-0.175-0.375c-2.151,1.251-5.144,2.407-8.979,3.469
	c-0.292-0.687-0.61-1.28-0.959-1.781c3.545-0.624,6.626-1.562,9.241-2.813c-0.175-0.188-0.349-0.375-0.522-0.563
	c-2.21,0.813-4.795,1.532-7.76,2.156c-0.407-0.875-0.697-1.437-0.872-1.688c3.254-0.437,5.928-1.031,8.021-1.781h-4.446v-1.5h13.078
	v1.5h-4.708c-0.349,0.126-0.728,0.281-1.134,0.469c0.523,0.563,0.959,1.125,1.308,1.688c2.324-0.938,4.187-1.749,5.58-2.438
	l1.309,1.875c-0.466,0.25-1.163,0.563-2.092,0.938c-0.582,0.25-1.019,0.438-1.31,0.563c0.93,1.626,2.646,2.751,5.146,3.375
	C335.567,35.349,335.162,35.879,334.639,36.692L334.639,36.692z M315.196,28.067v-3.563h20.053v3.563h-2.528v-1.969h-15.083v1.969
	H315.196z M317.463,23.567v-3.844h15.521v3.844H317.463z M319.991,21.13v1.031h10.463V21.13H319.991z M339.921,23.192v-5.156h8.457
	c-0.174-0.75-0.407-1.468-0.697-2.156l3.14-0.281c0.23,0.876,0.465,1.688,0.696,2.438h7.936V23.1h-2.441l0.35,2.063
	c-1.688,0.188-4.359,0.407-8.021,0.656v2.813l10.463-0.844l0.175,2.531l-10.638,0.938v1.969c-0.059,1.251,0.465,1.844,1.569,1.781
	h3.924c1.046,0.063,1.656-0.406,1.831-1.406c0-0.062,0.028-0.155,0.087-0.281c0.058-0.687,0.116-1.343,0.175-1.969
	c0.755,0.313,1.626,0.595,2.615,0.844c-0.059,0.876-0.232,1.907-0.522,3.094c-0.35,1.437-1.481,2.156-3.399,2.156h-5.755
	c-2.21,0-3.313-1.188-3.313-3.563v-2.438l-6.888,0.563l-0.174-2.625l7.062-0.563v-2.813l-4.97,0.375l-0.349-2.625
	c6.451-0.312,11.652-0.687,15.606-1.125v-1.969h-14.212v2.531L339.921,23.192L339.921,23.192z"/>
<path fill="#F9FF63" d="M326.119,81.507c-0.773,2.039-1.58,3.89-2.423,5.551l-2.317-0.906c0.842-1.737,1.648-3.586,2.423-5.551
	L326.119,81.507L326.119,81.507z M322.326,67.914v-2.719h4.741c-0.071-0.377-0.247-0.944-0.526-1.699
	c-0.071-0.301-0.142-0.528-0.211-0.68l3.266-0.34c0.352,1.132,0.597,2.039,0.737,2.719h4.214v2.719h-3.477l2.634,1.019l-1.791,2.946
	h3.161v2.719h-4.952v2.379h4.53v2.719h-4.53v6.23c0.069,2.114-0.913,3.209-2.949,3.285c-0.492,0.075-1.335,0.113-2.528,0.113
	c-0.142-1.285-0.353-2.265-0.633-2.945c0.211,0,0.562,0,1.055,0c0.422,0,0.7,0,0.843,0c0.912,0.074,1.334-0.34,1.265-1.246v-5.438
	h-4.847v-2.719h4.847v-2.379h-5.479v-2.719h3.371c-0.563-0.981-1.158-1.926-1.791-2.832l2.002-1.133L322.326,67.914L322.326,67.914z
	 M326.856,69.726c0.351,0.529,0.633,0.945,0.843,1.246l-1.58,0.906h2.95c0.351-0.604,0.807-1.473,1.368-2.605
	c0.28-0.604,0.491-1.057,0.633-1.359h-5.372C325.978,68.367,326.364,68.972,326.856,69.726L326.856,69.726z M332.756,85.812
	l-2.212-4.191l2.212-1.133c0.772,1.36,1.51,2.682,2.213,3.965c0.701-2.114,1.055-5.098,1.055-8.95V64.628
	c3.582-0.227,6.848-0.604,9.798-1.133l0.947,2.945c-2.671,0.453-5.268,0.792-7.797,1.02v4.871h8.219v3.059h-2.635v13.933h-2.845
	V75.39h-2.739v0.339c0.142,5.891-0.808,10.498-2.844,13.821c-0.282-0.152-0.703-0.454-1.265-0.906
	c-0.632-0.379-1.09-0.68-1.369-0.907c0.14-0.227,0.314-0.605,0.525-1.132c0.423-0.754,0.737-1.397,0.948-1.926L332.756,85.812z
	 M348.878,73.011v-3.285h2.106v-7.023h2.845v7.023h1.791v3.285h-1.791v9.063l2.423-0.68c-0.07,1.132-0.07,2.266,0,3.398
	c-0.632,0.227-1.616,0.529-2.949,0.906c-1.827,0.454-3.23,0.831-4.214,1.133l-0.527-3.285c0.772-0.227,1.58-0.453,2.424-0.68v-9.855
	H348.878z M356.252,76.07V65.648h3.793c-0.142-0.227-0.314-0.528-0.526-0.906c-0.491-0.831-0.843-1.434-1.054-1.813l3.16-0.453
	l1.791,3.172h2.739c0.491-0.906,1.054-2,1.686-3.285l3.268,0.68c-0.282,0.453-0.738,1.133-1.37,2.039
	c-0.143,0.226-0.247,0.416-0.316,0.566h3.898V76.07H356.252z M357.306,89.664V77.656h14.854v12.008h-2.949v-1.246h-8.85v1.246
	H357.306z M358.887,68.027v5.551h4.636v-5.551H358.887z M361.204,72.898c-0.492-1.057-1.09-2.114-1.791-3.172l1.58-1.02
	c0.351,0.454,0.843,1.285,1.475,2.493c0.211,0.302,0.352,0.529,0.422,0.68L361.204,72.898z M360.361,80.035v2.039h8.85v-2.039
	H360.361z M360.361,84.226v2.04h8.85v-2.04H360.361z M370.686,68.027h-4.636v5.551h4.636V68.027z M369,71.765
	c-0.422,0.529-0.703,0.945-0.843,1.246l-1.58-1.02c0.14-0.227,0.314-0.528,0.526-0.906c0.7-1.057,1.192-1.85,1.475-2.379l1.686,1.02
	C369.982,70.179,369.562,70.859,369,71.765L369,71.765z"/>
</svg>
