<?xml version="1.0" encoding="utf-8"?>
<!-- Generator: Adobe Illustrator 16.0.0, SVG Export Plug-In . SVG Version: 6.00 Build 0)  -->
<!DOCTYPE svg PUBLIC "-//W3C//DTD SVG 1.1//EN" "http://www.w3.org/Graphics/SVG/1.1/DTD/svg11.dtd">
<svg version="1.1" id="图层_1" xmlns="http://www.w3.org/2000/svg" xmlns:xlink="http://www.w3.org/1999/xlink" x="0px" y="0px"
	 width="640px" height="333px" viewBox="0 -125.5 640 333" enable-background="new 0 -125.5 640 333" xml:space="preserve">
<path fill="#BF5D2A" d="M384.075,34.684h-3.232V22.503c-1.181,1.104-2.571,1.921-4.175,2.45V22.02
	c0.844-0.276,1.76-0.799,2.749-1.57s1.668-1.669,2.036-2.697h2.622V34.684L384.075,34.684z"/>
<path fill="#FFFFFF" d="M69.388,192.749c-1.841,1.437-4.198,2.78-7.073,4.031c-0.058-0.063-0.116-0.157-0.172-0.281
	c-0.403-0.75-0.69-1.251-0.862-1.501c2.875-1.124,5.089-2.311,6.641-3.562c-1.897-1.937-3.45-4.719-4.658-8.344
	c-0.403,5.376-2.156,9.813-5.261,13.312c-0.403-0.5-0.834-0.969-1.293-1.406c3.105-3.312,4.744-7.905,4.916-13.78
	c0-0.688,0.057-1.905,0.173-3.655h-3.881v-1.783h15.525v1.877l-2.329,4.5h4.313v1.781c-1.208,3.062-2.76,5.594-4.658,7.594
	c1.782,1.375,4.054,2.376,6.814,2.998c-0.173,0.313-0.403,0.752-0.69,1.313c-0.172,0.312-0.288,0.53-0.345,0.656
	C73.67,195.436,71.285,194.186,69.388,192.749L69.388,192.749z M59.986,121.062c-1.266-1.25-2.329-2.218-3.191-2.906l1.121-1.313
	c1.208,0.876,2.299,1.781,3.278,2.719L59.986,121.062z M66.369,153.438v-3.656c-1.725,2.126-4.629,3.906-8.711,5.344
	c-0.173-0.499-0.461-1.062-0.863-1.688c3.623-0.938,6.411-2.345,8.367-4.22h-7.763v-1.5h8.97v-2.53
	c-0.806,0-2.042,0.031-3.709,0.094c-1.553,0-2.674,0-3.364,0c-0.058-0.624-0.144-1.125-0.259-1.5c4.944,0,10.292-0.219,16.042-0.656
	l0.259,1.594c-0.576,0-1.524,0.063-2.846,0.188c-1.956,0.062-3.45,0.126-4.485,0.188v2.625h9.056v1.5H69.3
	c1.897,1.813,4.657,3.157,8.28,4.031c-0.345,0.563-0.633,1.095-0.862,1.594c-3.967-1.187-6.872-2.874-8.711-5.062v3.655H66.369
	L66.369,153.438z M60.935,124.438c-0.69,2.752-1.324,5.471-1.897,8.156l-1.812-0.562c0.632-2.312,1.322-5.063,2.07-8.25
	c0.172,0.062,0.459,0.156,0.862,0.281C60.504,124.25,60.763,124.376,60.935,124.438L60.935,124.438z M60.676,114.875
	c-1.323-1.313-2.387-2.312-3.191-3l1.122-1.313c0.229,0.188,0.574,0.501,1.035,0.938c0.977,0.813,1.725,1.469,2.243,1.969
	L60.676,114.875z M60.073,164.593V154.28h14.231v10.312h-1.725v-0.938H61.797v0.938H60.073z M65.506,113.937
	c-0.806,1.375-1.812,2.751-3.019,4.125c-0.345-0.5-0.72-0.968-1.121-1.406c1.782-1.688,3.22-3.875,4.313-6.563l1.725,0.281
	c-0.345,0.625-0.662,1.282-0.949,1.969h10.781v1.594H65.506L65.506,113.937z M61.539,123.406v-1.594h2.156l0.604-5.72H75.77
	l-0.086,5.72h2.07v1.594h-2.156c0,1.5-0.058,2.906-0.172,4.219h1.725v1.594h-1.725c-0.116,2.25-1.266,3.344-3.45,3.281
	c-0.862,0-1.841,0-2.932,0c-0.058-0.188-0.116-0.469-0.172-0.844c-0.116-0.375-0.202-0.656-0.259-0.844
	c0.919,0.062,1.897,0.094,2.932,0.094c1.38,0.062,2.127-0.501,2.243-1.688H62.833l0.604-5.812L61.539,123.406L61.539,123.406z
	 M61.797,155.688v2.625h10.781v-2.625H61.797z M61.797,159.624v2.531h10.781v-2.531H61.797z M63.522,177.562c0,0.312,0,0.75,0,1.312
	c-0.058,0.625-0.086,1.094-0.086,1.406l0.345-0.469c1.437,4.688,3.278,8.154,5.52,10.405c1.725-1.688,3.105-3.812,4.14-6.375h-4.399
	v-1.688l2.415-4.595h-7.935V177.562z M73.873,127.625c0.056-0.438,0.086-1.125,0.086-2.062c0.057-1,0.086-1.72,0.086-2.156h-8.883
	l-0.518,4.219H73.873z M65.765,117.687l-0.431,4.125h8.711v-4.125H65.765z M70.25,127.25c-0.173-0.125-0.431-0.343-0.776-0.656
	c-0.69-0.624-1.265-1.125-1.725-1.5l0.862-1.031c0.69,0.502,1.552,1.188,2.587,2.063L70.25,127.25z M70.509,121.344
	c-0.806-0.812-1.639-1.531-2.501-2.157l0.862-1.031c0.69,0.501,1.552,1.188,2.587,2.062L70.509,121.344z M87.022,149.593
	c-0.92,4.813-3.105,9.063-6.555,12.75c-0.345-0.437-0.748-0.938-1.208-1.5c3.105-3.188,5.089-6.938,5.951-11.25h-5.261v-1.78h7.073
	V149.593L87.022,149.593z M79.604,131.375v-1.781h8.28v-19.032h1.897v6.938h8.711v1.875h-8.711v10.219h10.35v1.781H79.604z
	 M81.484,177.093v-1.594h10.867v1.594h-5.002c-0.461,1-0.949,1.938-1.466,2.813h5.865v1.688c-1.496,4.375-4.716,7.563-9.66,9.563
	c-0.289-0.624-0.604-1.156-0.949-1.595c4.714-1.748,7.705-4.438,8.97-8.062h-5.175l-0.776,0.938c0.402,0.375,1.063,0.877,1.984,1.5
	c0.574,0.438,1.005,0.75,1.294,0.938l-1.122,1.313c-0.23-0.188-0.575-0.469-1.035-0.844c-0.92-0.812-1.611-1.375-2.07-1.688
	c-0.518,0.563-1.093,1.125-1.725,1.688c-0.173-0.25-0.432-0.625-0.776-1.125c-0.116-0.188-0.202-0.313-0.259-0.375
	c2.242-1.75,3.938-4,5.089-6.75h-4.054V177.093z M84.589,191.717c-0.517,1.501-1.237,3.125-2.156,4.876
	c-0.116-0.062-0.259-0.126-0.432-0.188c-0.517-0.188-0.92-0.313-1.208-0.374c0.919-1.688,1.667-3.281,2.243-4.782L84.589,191.717
	L84.589,191.717z M100.391,160.374c-0.345,0.438-0.72,1.001-1.121,1.688c-4.025-3.25-6.872-7.28-8.539-12.095v11.156
	c0.115,2.063-0.862,3.125-2.932,3.188c-0.921,0-1.87,0-2.847,0c0-0.188-0.058-0.502-0.172-0.938
	c-0.058-0.438-0.116-0.782-0.172-1.031c0.574,0.062,1.437,0.095,2.587,0.095c1.264,0,1.868-0.563,1.811-1.688v-18.375h1.725v3.656
	c0.805,2.25,1.495,3.907,2.07,4.969c1.609-1.437,3.191-3.062,4.744-4.875l1.38,1.406c-0.862,0.938-2.186,2.22-3.967,3.844
	c-0.576,0.501-1.007,0.907-1.294,1.219C95.216,155.469,97.458,158.062,100.391,160.374L100.391,160.374z M88.125,196.218
	c-0.518-1.688-1.007-3.155-1.466-4.405l1.552-0.375c0.46,1.188,1.005,2.654,1.639,4.405L88.125,196.218z M93.473,196.03
	c-0.517-1.626-1.093-3.095-1.725-4.406l1.639-0.469c0.057,0.126,0.143,0.344,0.259,0.655c0.632,1.5,1.149,2.719,1.552,3.655
	L93.473,196.03z M93.646,185.624v-9.282h1.552v9.282H93.646z M97.268,189.842c-0.69,0.063-1.668,0.096-2.933,0.096
	c0-0.563-0.116-1.156-0.345-1.781c0.863,0,1.782,0,2.76,0c1.091,0.062,1.609-0.5,1.552-1.688v-12.001h1.639v12.376
	C100.056,188.844,99.166,189.842,97.268,189.842L97.268,189.842z M99.338,196.124c-0.289-0.626-0.776-1.563-1.466-2.813
	c-0.403-0.75-0.72-1.344-0.949-1.781l1.553-0.562c0.919,1.562,1.725,3.062,2.415,4.499L99.338,196.124z M109.39,113.562
	c2.299,0,3.766,1.313,4.399,3.938l2.07-0.656c-0.69-3.437-2.904-5.156-6.641-5.156c-3.795,0.188-5.809,1.875-6.038,5.063
	c-0.23,2.625,1.839,4.407,6.21,5.345c3.507,0.75,5.117,2,4.83,3.75c-0.116,2.312-1.582,3.5-4.399,3.562
	c-3.163,0.126-4.946-1.438-5.347-4.688l-1.984,0.75c0.69,3.876,3.162,5.749,7.417,5.625c3.967-0.188,6.094-1.905,6.382-5.155
	c0.229-2.938-2.013-4.875-6.728-5.813c-2.99-0.688-4.457-1.813-4.398-3.375C105.278,114.687,106.687,113.625,109.39,113.562
	L109.39,113.562z M107.467,185.155c-1.266-1.25-2.329-2.281-3.191-3.095l1.122-1.219c1.091,0.938,2.185,1.907,3.277,2.906
	L107.467,185.155z M104.646,158.593l1.294-1.125l4.485,5.345l-1.38,1.312L104.646,158.593z M108.847,188.249
	c-0.806,2.563-1.639,5.282-2.501,8.155l-1.639-0.749c0.919-2.438,1.753-5.156,2.501-8.156c0.229,0.063,0.518,0.188,0.863,0.375
	C108.416,188,108.674,188.124,108.847,188.249L108.847,188.249z M108.329,179.154c-1.093-1.124-2.156-2.188-3.191-3.188l1.121-1.219
	c0.574,0.438,1.38,1.157,2.415,2.156c0.345,0.373,0.632,0.656,0.862,0.843L108.329,179.154z M109.709,177.093v-1.688h15.353v1.688
	h-5.003v3h4.14v16.595h-1.639v-1.125h-10.609v1.125h-1.639v-16.595h4.054v-3H109.709z M116.005,181.688
	c0.057,3-0.834,5.25-2.673,6.748c-0.289-0.312-0.634-0.687-1.035-1.123c1.609-1.188,2.329-3.062,2.156-5.625h-2.501v7.969h10.609
	v-2.25h-1.639c-1.668,0.062-2.473-0.781-2.415-2.531v-3.188H116.005L116.005,181.688z M111.952,191.155v2.812h10.609v-2.812H111.952
	z M116.005,177.093v3h2.501v-3H116.005z M125.56,116.75c2.933-0.062,4.369,1.688,4.313,5.25v8.719h-1.898v-8.438
	c0-2.563-0.949-3.844-2.846-3.844c-2.243,0.313-3.45,1.626-3.623,3.938v8.438h-1.897v-18.75h1.897v7.125
	C122.483,117.625,123.835,116.813,125.56,116.75L125.56,116.75z M122.561,181.688h-2.587v3c-0.058,0.875,0.373,1.28,1.293,1.219
	h1.294V181.688z M127.887,151.938c-0.806,1.312-1.639,2.595-2.501,3.844c-0.116-0.312-0.259-0.75-0.431-1.313
	c-0.172-0.437-0.289-0.75-0.345-0.938c2.357-3.062,4.255-6.75,5.693-11.062l1.811,0.656c-0.862,2.126-1.696,4.001-2.501,5.625
	v15.844h-1.725L127.887,151.938L127.887,151.938z M131.37,191.53c-0.345,1.688-1.035,3.375-2.07,5.062l-1.38-1.219
	c0.919-1.562,1.523-3.094,1.811-4.595c0.287-1.438,0.431-3.623,0.431-6.562v-6.844h8.711c-0.058-0.312-0.202-0.812-0.431-1.501
	c-0.172-0.687-0.317-1.155-0.431-1.406l1.897-0.28c0.057,0.25,0.201,0.75,0.431,1.5c0.229,0.75,0.401,1.313,0.518,1.688h7.59v1.78
	h-16.56v4.781C131.887,187.25,131.715,189.781,131.37,191.53L131.37,191.53z M135.563,155.688c-1.266,0.875-2.587,1.688-3.967,2.438
	c-0.058-0.188-0.23-0.499-0.518-0.938c-0.23-0.438-0.403-0.719-0.518-0.845c1.782-0.938,3.45-1.937,5.002-3v-10.688h1.811v9.188
	c2.127-1.812,4.11-3.938,5.951-6.375l1.466,1.22c-2.186,2.875-4.658,5.406-7.417,7.594v6c-0.058,1.251,0.546,1.843,1.812,1.781h2.07
	c1.264,0.062,1.954-0.405,2.07-1.406c0.115-0.624,0.287-1.938,0.518-3.938c0.172,0.063,0.459,0.157,0.862,0.281
	c0.402,0.188,0.69,0.313,0.863,0.375c-0.172,1.5-0.345,2.876-0.518,4.125c-0.289,1.688-1.496,2.499-3.623,2.438h-2.673
	c-2.243,0.123-3.307-1-3.191-3.375V155.688L135.563,155.688z M132.146,195.28v-1.595h9.833c1.38-4.062,2.558-8.123,3.536-12.188
	l1.725,0.562c-1.093,4.188-2.243,8.063-3.45,11.625h4.917v1.595H132.146z M144.391,123.969c-0.058,4.688-2.014,7.062-5.865,7.125
	c-3.738-0.251-5.692-2.531-5.865-6.844c0.114-4.813,2.126-7.281,6.037-7.407C142.32,117.031,144.218,119.407,144.391,123.969
	L144.391,123.969z M135.423,191.624c-0.058-0.313-0.172-0.812-0.345-1.5c-0.806-3.375-1.466-5.874-1.984-7.5l1.553-0.469
	c0.804,2.625,1.639,5.625,2.501,9L135.423,191.624z M142.407,124.062c-0.172-3.5-1.438-5.375-3.794-5.625
	c-2.646,0.063-3.997,1.969-4.054,5.719c0.057,3.501,1.408,5.312,4.054,5.438C141.083,129.469,142.349,127.625,142.407,124.062
	L142.407,124.062z M140.167,190.405c-0.403-2.25-1.007-5.25-1.812-9l1.639-0.375c0.632,2.938,1.264,5.969,1.897,9.094
	L140.167,190.405z M151.731,164.593v-7.875c-0.403,0.375-1.007,0.97-1.812,1.781c-0.92,0.876-1.61,1.532-2.07,1.969l-0.776-2.062
	c0.805-0.624,2.098-1.749,3.881-3.375c0.345-0.312,0.604-0.53,0.776-0.656v-11.906h1.725v22.125H151.731z M149.919,152.688
	c-0.633-1.5-1.496-3.47-2.587-5.906l1.38-0.656c1.264,2.625,2.156,4.594,2.674,5.906L149.919,152.688z M149.262,135.5h-1.812
	v-18.375h1.812v2.063c0.977-1.562,2.213-2.344,3.708-2.344c3.392,0.188,5.175,2.625,5.348,7.313
	c-0.058,4.438-1.697,6.718-4.916,6.844c-2.014,0.062-3.394-0.688-4.14-2.25V135.5z M152.625,118.531
	c-2.07,0.25-3.191,1.626-3.364,4.125v2.156c0.057,3.125,1.264,4.72,3.623,4.78c2.357-0.062,3.564-1.875,3.623-5.438
	C156.449,120.532,155.155,118.657,152.625,118.531L152.625,118.531z M152.35,178.874v-1.688h6.641c0.459-0.938,0.863-1.937,1.208-3
	l1.897,0.28c-0.172,0.438-0.431,1.032-0.776,1.782c-0.172,0.438-0.288,0.75-0.345,0.938h11.385v1.688h-12.248
	c-0.172,0.313-0.431,0.749-0.776,1.313c-0.345,0.625-0.604,1.094-0.776,1.405h11.471v11.906c0.057,1.875-0.862,2.813-2.76,2.813
	c-1.324,0-2.415,0-3.278,0c0-0.188-0.058-0.47-0.172-0.846c-0.058-0.438-0.116-0.749-0.172-0.938c0.229,0,0.632,0,1.208,0
	c0.747,0.062,1.322,0.095,1.725,0.095c1.208,0.062,1.753-0.438,1.639-1.501v-1.499h-10.609v5.063h-1.725v-11.531
	c-1.035,1.188-2.156,2.344-3.364,3.469l-0.862-1.781c2.816-2.499,4.944-5.156,6.382-7.969L152.35,178.874L152.35,178.874z
	 M154.75,149.499v-1.781h3.795c0.518-1.812,0.949-3.593,1.294-5.344l1.897,0.375c-0.058,0.251-0.144,0.626-0.259,1.125
	c-0.23,0.876-0.604,2.156-1.121,3.844h7.849v1.781h-1.983c-0.576,4.313-1.668,7.5-3.278,9.563c1.725,1.188,3.479,2.375,5.261,3.562
	l-1.208,1.688c-1.783-1.375-3.536-2.654-5.261-3.844c-1.668,1.438-3.911,2.844-6.728,4.219c-0.058-0.062-0.116-0.156-0.172-0.28
	c-0.403-0.75-0.69-1.251-0.863-1.5c2.817-1.062,4.887-2.25,6.21-3.563c-1.438-1.125-2.876-2.187-4.313-3.188
	c0.805-2.188,1.523-4.406,2.156-6.656L154.75,149.499L154.75,149.499z M157.611,183.188v2.625h10.609v-2.625H157.611z
	 M157.611,187.405v2.625h10.609v-2.625H157.611z M159.838,149.499c-0.633,2.188-1.266,4.188-1.897,6l3.45,2.438
	c1.495-1.875,2.529-4.688,3.105-8.438H159.838L159.838,149.499z M163.09,135.5h-1.812v-18.375h1.812v2.063
	c0.977-1.562,2.213-2.344,3.708-2.344c3.392,0.188,5.175,2.625,5.348,7.313c-0.058,4.438-1.697,6.718-4.916,6.844
	c-2.014,0.062-3.394-0.688-4.14-2.25V135.5z M166.454,118.531c-2.07,0.25-3.191,1.626-3.364,4.125v2.156
	c0.057,3.125,1.264,4.72,3.623,4.78c2.357-0.062,3.564-1.875,3.623-5.438C170.277,120.532,168.983,118.657,166.454,118.531
	L166.454,118.531z M170.994,164.688V154.28h8.021v10.405h-1.639v-1.5h-4.744v1.5h-1.638V164.688z M172.633,155.968v5.72h4.744v-5.72
	H172.633z M173.064,151.562v-8.25h14.663v8.25H173.064z M174.789,144.999v4.875h11.213v-4.875H174.789z M175.203,114.593h1.812
	v-2.531h-1.812V114.593z M175.203,130.812h1.812v-13.688h-1.812V130.812z M195.487,191.53c-0.058,0.187-0.116,0.312-0.172,0.375
	c-4.083-1.813-6.699-4.72-7.849-8.72h-7.417c-0.116,4.188-1.293,7.75-3.536,10.688c-0.058-0.062-0.172-0.249-0.345-0.563
	c-0.403-0.5-0.662-0.844-0.776-1.03c2.126-2.625,3.105-6.343,2.933-11.156v-5.72h15.956v7.781h-5.089
	c1.149,3.25,3.507,5.594,7.073,7.031C196.09,190.531,195.832,190.968,195.487,191.53L195.487,191.53z M180.048,181.124v0.375h12.42
	v-4.406h-12.42V181.124z M190.312,196.499c-3.45-1.376-6.872-2.531-10.264-3.469l0.776-1.595c2.07,0.625,4.973,1.595,8.711,2.906
	c0.632,0.188,1.121,0.344,1.466,0.469L190.312,196.499z M186.625,116.75c2.875,0,4.313,1.75,4.313,5.25v8.719h-1.812v-8.438
	c-0.058-2.5-1.035-3.781-2.933-3.844c-2.242,0.313-3.479,1.626-3.708,3.938v8.344l-1.812,0.094v-13.688h1.812v2.063
	C183.462,117.625,184.842,116.813,186.625,116.75L186.625,116.75z M181.775,164.688V154.28h8.021v10.312h-1.639v-1.405h-4.744v1.5
	H181.775z M188.587,190.405c-1.151-0.5-2.79-1.156-4.917-1.97c-0.69-0.312-1.208-0.529-1.552-0.655l0.776-1.406
	c2.588,0.876,4.744,1.688,6.469,2.438L188.587,190.405z M183.414,155.968v5.72h4.744v-5.72H183.414z M205.027,117.125v11.907
	c0.229,4.5-1.754,6.655-5.951,6.469c-2.07,0-3.623-0.656-4.658-1.969l0.776-1.031c1.15,0.874,2.415,1.343,3.795,1.406
	c2.816,0.062,4.196-1.376,4.139-4.313v-1.406c-0.576,1.5-1.984,2.219-4.226,2.156c-3.221-0.188-4.888-2.375-5.002-6.562
	c0.172-4.438,1.983-6.75,5.434-6.938c1.667,0.063,2.932,0.813,3.794,2.25v-1.969L205.027,117.125L205.027,117.125z M195.184,158.593
	l1.293-1.125l4.485,5.345l-1.38,1.312L195.184,158.593z M199.421,128.938c2.414-0.062,3.65-1.562,3.708-4.5v-2.062
	c-0.116-2.375-1.266-3.688-3.449-3.938c-2.531,0.126-3.853,1.908-3.968,5.344C195.827,127.031,197.063,128.75,199.421,128.938
	L199.421,128.938z M199.821,178.874v-1.688h6.641c0.459-0.938,0.863-1.937,1.208-3l1.897,0.28c-0.172,0.438-0.431,1.032-0.776,1.782
	c-0.172,0.438-0.288,0.75-0.345,0.938h11.385v1.688h-12.248c-0.172,0.313-0.431,0.749-0.776,1.313
	c-0.345,0.625-0.604,1.094-0.776,1.405h11.471v11.906c0.057,1.875-0.862,2.813-2.76,2.813c-1.324,0-2.415,0-3.278,0
	c0-0.188-0.058-0.47-0.172-0.846c-0.058-0.438-0.116-0.749-0.172-0.938c0.229,0,0.632,0,1.208,0
	c0.747,0.062,1.322,0.095,1.725,0.095c1.208,0.062,1.753-0.438,1.639-1.501v-1.499h-10.609v5.063h-1.725v-11.531
	c-1.035,1.188-2.156,2.344-3.364,3.469l-0.862-1.781c2.816-2.499,4.944-5.156,6.382-7.969L199.821,178.874L199.821,178.874z
	 M205.082,183.188v2.625h10.609v-2.625H205.082z M205.082,187.405v2.625h10.609v-2.625H205.082z M215.309,146.124v-1.688h6.727
	v1.688h-2.415v5.344h2.156v1.688h-2.156v5.812l2.415-0.938c0,0.188,0,0.469,0,0.844c0.057,0.438,0.086,0.782,0.086,1.031
	c-0.172,0.062-0.431,0.156-0.776,0.281c-2.415,0.812-4.313,1.47-5.692,1.969l-0.518-1.781c0.345-0.062,0.863-0.218,1.553-0.469
	c0.574-0.188,1.005-0.312,1.293-0.375v-6.375h-2.329v-1.688h2.329v-5.344H215.309z M230.282,130.812h1.984v-18.75h-2.587
	l-5.003,13.688c-0.288,0.813-0.517,1.656-0.69,2.531H223.9c-0.23-0.999-0.461-1.875-0.69-2.625l-5.003-13.594h-2.587v18.75h1.812
	v-13.125c0-0.999-0.058-2.312-0.173-3.938l0.086-0.094c0.115,0.562,0.287,1.345,0.518,2.344l5.434,14.812h1.122l5.52-14.719
	c0.229-0.624,0.432-1.437,0.604-2.438l0.086,0.094c0,0.188-0.03,0.532-0.086,1.031c-0.172,1.562-0.259,2.5-0.259,2.812v13.219
	H230.282z M224.969,148.655c-0.288,0.876-0.604,1.751-0.949,2.625c-0.23-0.062-0.575-0.155-1.035-0.281
	c-0.23-0.062-0.403-0.124-0.517-0.188c1.035-2.498,1.725-4.812,2.07-6.938l1.553,0.281c-0.173,1.001-0.403,1.969-0.69,2.906h2.588
	v-4.781h1.725v4.781h5.089v1.594h-5.089v3.938h5.865v1.688h-5.52c1.495,2.876,3.536,5.155,6.124,6.844
	c-0.116,0.126-0.258,0.345-0.431,0.656c-0.288,0.312-0.489,0.594-0.604,0.844c-2.473-1.749-4.284-3.905-5.434-6.469v8.53h-1.725
	v-8.53c-1.208,2.501-3.135,4.72-5.779,6.655c-0.289-0.562-0.662-1.03-1.122-1.405c2.933-1.938,5.117-4.313,6.555-7.125h-5.089
	v-1.688h5.434v-3.938L224.969,148.655L224.969,148.655z M228.554,195.936c-1.841-0.187-2.876-1.28-3.105-3.28
	c0.172-2.123,1.208-3.281,3.105-3.468c1.954,0.187,3.019,1.345,3.191,3.468C231.572,194.654,230.508,195.749,228.554,195.936
	L228.554,195.936z M228.554,190.593c-1.093,0.126-1.697,0.813-1.811,2.062c0.114,1.063,0.718,1.655,1.811,1.782
	c1.149-0.127,1.782-0.719,1.897-1.782C230.335,191.405,229.703,190.719,228.554,190.593L228.554,190.593z M241.266,118.531
	c-2.186-0.125-3.421,0.812-3.708,2.812l-1.812-0.562c0.632-2.813,2.501-4.156,5.606-4.032c3.392-0.062,5.031,1.688,4.916,5.25v5.531
	c-0.058,1.5,0.173,2.562,0.69,3.188h-1.812c-0.403-0.501-0.604-1.125-0.604-1.875c-1.035,1.5-2.674,2.25-4.917,2.25
	c-2.646-0.126-4.054-1.312-4.226-3.562c0.057-2.625,1.581-4.093,4.571-4.406c2.415-0.249,3.881-0.594,4.398-1.031
	C244.544,119.594,243.509,118.406,241.266,118.531L241.266,118.531z M240.145,129.406c2.587-0.188,3.996-1.5,4.226-3.938v-1.78
	c-0.23,0.5-1.466,0.844-3.708,1.03c-2.3,0.313-3.422,1.188-3.364,2.625C237.355,128.719,238.304,129.406,240.145,129.406
	L240.145,129.406z M239.326,151.749v-1.688h17.681v1.688h-7.935v3.563h7.504v1.594h-7.504v5.062h9.488v1.5h-20.528v-1.5h9.315
	v-5.062h-7.417v-1.594h7.417v-3.563H239.326z M238.636,149.03v-3.75h9.229c-0.116-0.438-0.431-1.155-0.949-2.156
	c-0.058-0.188-0.116-0.343-0.172-0.469l1.811-0.47c0.69,1.313,1.122,2.282,1.294,2.906l-0.518,0.188h8.539v3.75h-1.725v-2.063
	H240.36v2.063H238.636z M250.019,130.719h1.812v-18.657h-1.812V130.719z M254.074,161.499c-0.518-0.75-1.293-1.749-2.329-3
	l1.294-1.031c0.172,0.188,0.459,0.532,0.862,1.031c0.747,0.876,1.264,1.5,1.552,1.875L254.074,161.499z M255.575,130.719h1.812
	v-18.657h-1.812V130.719z M264.885,155.218c-1.093,1.188-2.329,2.345-3.709,3.47l-0.776-1.875c2.989-2.25,5.375-4.97,7.159-8.156
	h-6.383v-1.781h8.28v1.875c-1.035,1.875-1.984,3.345-2.846,4.406v11.531h-1.725V155.218L264.885,155.218z M266.298,128.562
	c0,2.188-0.748,3.812-2.243,4.875l-0.776-0.844c1.035-0.812,1.581-2.031,1.639-3.656h-1.466v-3.094h2.846
	C266.298,126.345,266.298,127.25,266.298,128.562L266.298,128.562z M266.006,146.405c-0.69-1.249-1.38-2.374-2.07-3.375l1.466-0.845
	c0.287,0.502,0.776,1.252,1.466,2.25c0.287,0.502,0.517,0.877,0.69,1.125L266.006,146.405z M270.405,157.655
	c-0.92-0.938-2.042-1.938-3.364-3l1.121-1.22c1.035,0.75,2.156,1.688,3.364,2.813L270.405,157.655z M275.667,163.938
	c-2.07,0.062-3.077-1.031-3.019-3.281v-18.188h1.812v17.906c-0.058,1.188,0.518,1.749,1.725,1.688h1.121
	c1.264,0.062,1.926-0.47,1.984-1.595c0-0.249,0.028-0.687,0.086-1.312c0.114-1.062,0.201-1.875,0.258-2.438
	c0.229,0.126,0.66,0.281,1.293,0.469c0.173,0.063,0.315,0.127,0.432,0.188c-0.058,0.251-0.086,0.626-0.086,1.125
	c-0.172,1.313-0.317,2.282-0.431,2.906c-0.23,1.688-1.323,2.53-3.277,2.53h-1.898V163.938z M282.896,116.468v-1.781h2.415v-4.406
	h1.639v4.406h1.983v1.781h-1.983v4.688l1.983-0.75c0,0.25,0.028,0.595,0.086,1.031c0,0.312,0,0.562,0,0.75
	c-0.862,0.312-1.553,0.595-2.07,0.844v7.031c0.057,1.623-0.634,2.438-2.07,2.438c-0.116,0-0.345,0-0.69,0
	c-0.403,0.062-0.69,0.094-0.862,0.094c0-0.062,0-0.156,0-0.281c-0.058-0.375-0.173-0.906-0.345-1.594
	c0.287,0.062,0.718,0.094,1.294,0.094c0.747,0,1.091-0.28,1.035-0.844v-6.375l-2.415,0.938l-0.173-1.97
	c0.863-0.312,1.725-0.594,2.587-0.844v-5.25L282.896,116.468L282.896,116.468z M284.158,164.688V154.28h8.021v10.405h-1.639v-1.5
	h-4.744v1.5h-1.638V164.688z M285.797,155.968v5.72h4.744v-5.72H285.797z M286.228,151.562v-8.25h14.663v8.25H286.228z
	 M287.953,144.999v4.875h11.212v-4.875H287.953z M298.335,117.406V116h2.587v-2.625h-2.846v-1.5h4.399v9.657h-5.348v2.25h4.658
	v1.594c-1.035,1.626-2.329,2.969-3.881,4.031c1.552,0.562,3.506,1.03,5.865,1.405c-0.288,0.563-0.517,1.094-0.69,1.595
	c-2.76-0.501-5.032-1.22-6.813-2.156c-1.956,1.125-4.371,1.937-7.245,2.438c-0.172-0.502-0.431-1.031-0.776-1.595
	c2.644-0.438,4.8-1.001,6.469-1.688c-1.38-1.063-2.587-2.438-3.623-4.125h-1.121v-1.5h5.52v-2.25h-5.434v-9.282
	c1.035-0.125,2.299-0.5,3.795-1.125l0.776,1.5c-1.035,0.313-2.014,0.563-2.933,0.75V116h2.674v1.406h-2.674v2.719h3.795v-9.844
	h1.639v9.844h3.795v-2.719H298.335z M296.265,128.562c1.495-0.938,2.702-2.029,3.623-3.28h-6.9
	C293.907,126.594,295,127.688,296.265,128.562L296.265,128.562z M294.939,164.688V154.28h8.021v10.312h-1.639v-1.405h-4.744v1.5
	H294.939z M296.578,155.968v5.72h4.744v-5.72H296.578z M314.493,128.562c-1.438-1.25-2.962-2.469-4.571-3.655
	c-0.92,0.75-1.984,1.5-3.19,2.25c-0.346-0.563-0.721-1.063-1.123-1.5c3.277-1.875,5.835-4.063,7.676-6.563l1.896,0.375
	c-0.058,0.063-0.115,0.157-0.172,0.281c-0.461,0.563-0.979,1.158-1.553,1.782h10.609v1.78c-3.335,4.938-9.086,8.125-17.25,9.563
	c-0.173-0.313-0.461-0.907-0.862-1.781c7.417-1.062,12.707-3.718,15.871-7.969h-9.919c-0.172,0.25-0.403,0.469-0.69,0.656
	c1.552,1.062,3.105,2.219,4.657,3.469L314.493,128.562z M306.645,119v-7.688h18.545V119H306.645z M308.337,158.593l1.294-1.125
	l4.485,5.345l-1.38,1.312L308.337,158.593z M308.37,112.906v4.5h3.967v-4.5H308.37z M313.89,112.906v4.5h3.968v-4.5H313.89z
	 M323.464,112.906h-3.968v4.5h3.968V112.906z M328.247,117.875v-1.781h2.674V111.5h1.726v4.594h4.141v-5.625h1.725v5.625h5.521
	v-5.625h1.726v5.625h2.934v1.781h-2.934v8.157h-8.97v-8.157h-4.141v12.094h15.61v1.781h-17.336v-13.875H328.247z M337.961,153.438
	v-3.656c-1.726,2.126-4.63,3.906-8.712,5.344c-0.172-0.499-0.461-1.062-0.862-1.688c3.623-0.938,6.411-2.345,8.366-4.22h-7.763v-1.5
	h8.971v-2.53c-0.807,0-2.042,0.031-3.709,0.094c-1.553,0-2.674,0-3.364,0c-0.058-0.624-0.144-1.125-0.259-1.5
	c4.945,0,10.293-0.219,16.043-0.656l0.259,1.594c-0.575,0-1.523,0.063-2.847,0.188c-1.955,0.062-3.449,0.126-4.484,0.188v2.625
	h9.057v1.5h-7.763c1.897,1.813,4.657,3.157,8.279,4.031c-0.345,0.563-0.633,1.095-0.862,1.594c-3.968-1.187-6.87-2.874-8.711-5.062
	v3.655H337.961L337.961,153.438z M331.664,164.593V154.28h14.23v10.312h-1.725v-0.938h-10.78v0.938H331.664z M333.39,155.688v2.625
	h10.781v-2.625H333.39z M333.39,159.624v2.531h10.781v-2.531H333.39z M338.511,117.875v6.375h5.521v-6.375H338.511z M364.07,132.594
	v-7.406h1.725c-1.496-0.812-2.99-2.029-4.484-3.655h-0.346c-1.266,1.312-2.73,2.53-4.397,3.655h1.639
	c0.057,0.938,0,1.781-0.173,2.531c-0.23,2.001-1.582,3.688-4.055,5.063c-0.114-0.063-0.259-0.188-0.431-0.375
	c-0.116-0.126-0.432-0.407-0.949-0.845c2.243-1.125,3.479-2.404,3.709-3.844c0.174-0.688,0.229-1.531,0.174-2.531
	c-1.438,0.938-3.105,1.781-5.003,2.531c-0.059-0.188-0.202-0.469-0.432-0.844c-0.173-0.375-0.316-0.624-0.432-0.75
	c3.392-1.25,6.094-2.78,8.106-4.594h-5.95v-10.219h16.731v10.219h-6.038c1.782,1.75,4.485,3.126,8.108,4.125
	c-0.06,0.126-0.146,0.312-0.259,0.562c-0.289,0.501-0.461,0.876-0.519,1.125c-1.956-0.624-3.623-1.344-5.003-2.156v7.406H364.07z
	 M358.604,147.343c-0.861,2.001-1.581,3.563-2.155,4.688l-1.035-0.656c-0.058,1.751-0.145,3.251-0.258,4.5
	c0.977,1.438,2.012,2.876,3.104,4.312l-1.207,1.313c-0.807-1.313-1.553-2.499-2.243-3.563c-0.401,2.188-1.322,4.344-2.76,6.47
	c-0.345-0.375-0.748-0.813-1.207-1.313c2.069-2.687,3.075-6.718,3.02-12.094c0.113-3.624,0.172-6.499,0.172-8.625h1.553
	c0,2.062-0.058,4.875-0.173,8.438c0,0.127,0,0.252,0,0.375c0.747-1.5,1.409-3,1.984-4.5L358.604,147.343L358.604,147.343z
	 M352.135,152.688c-0.115-0.688-0.401-1.905-0.861-3.656c-0.174-0.812-0.316-1.438-0.432-1.875l1.207-0.375
	c0.287,1.001,0.66,2.47,1.121,4.406c0.115,0.5,0.201,0.875,0.259,1.125L352.135,152.688z M354.41,112.906v2.812h5.865v-2.812H354.41
	z M354.41,117.125v2.813h5.865v-2.813H354.41z M358.604,164.688v-21.281h12.248v21.281h-1.639v-1.406h-8.971v1.406H358.604z
	 M360.242,144.999v16.875h8.971v-16.875H360.242z M361.105,151.188v-1.595h2.932c0-0.938,0-2.062,0-3.375h1.553
	c0,0.501-0.029,1.188-0.086,2.063c0,0.626,0,1.062,0,1.312h2.846v1.594h-2.932c0,0.127,0,0.281,0,0.47
	c0,0.75-0.087,1.405-0.259,1.969l0.259-0.188c1.091,1.627,2.186,3.346,3.277,5.156l-1.208,1.125
	c-0.633-1.249-1.524-2.779-2.674-4.594c-0.519,1.626-1.523,3.312-3.02,5.062c-0.345-0.437-0.72-0.844-1.121-1.219
	c2.012-2.187,3.104-4.654,3.277-7.406c0-0.062,0-0.188,0-0.375H361.105L361.105,151.188z M367.779,112.906h-5.865v2.812h5.865
	V112.906z M361.914,117.125v2.813h5.865v-2.813H361.914z"/>
<path fill="#FFFFFF" d="M57.959,75.136v-3.953h36.597v3.953H78.848v3.234h13.87v3.594h-13.87v3.414h17.546v3.773H56.288v-3.773
	h17.546v-3.414H59.797V78.37h14.037v-3.234H57.959z M60.633,68.488v-17.25h9.358c0.222-0.598,0.501-1.497,0.835-2.695
	c0.109-0.477,0.222-0.836,0.334-1.078l5.515,0.539l-1.337,3.234h16.544v17.25L60.633,68.488L60.633,68.488z M65.479,55.191v3.055
	h21.557v-3.055H65.479z M65.479,61.48v3.055h21.557V61.48H65.479z M110.701,63.457v-3.953h25.234v3.953h-8.69
	c-1.449,0.839-2.841,1.738-4.178,2.695c1.225,1.438,2.228,2.937,3.008,4.492c4.011-1.797,7.964-3.891,11.865-6.289l2.506,4.133
	c-0.559,0.242-1.449,0.719-2.674,1.438c-1.783,0.839-3.12,1.5-4.01,1.977c1.671,5.391,4.901,9.344,9.692,11.859
	c-0.224,0.359-0.668,0.898-1.336,1.617c-0.781,1.078-1.395,1.915-1.838,2.516c-5.238-3.352-8.69-8.024-10.361-14.016l-2.172,0.898
	c0.668,2.277,1.002,4.613,1.002,7.008c0.11,5.509-2.063,8.266-6.517,8.266c-1.783,0-3.734,0-5.849,0
	c-0.334-1.438-0.726-2.937-1.17-4.492c1.781,0,3.397,0,4.846,0c2.783,0.239,4.065-1.016,3.843-3.773
	c0-0.836-0.057-1.617-0.167-2.336c-4.792,3.953-10.974,7.188-18.549,9.703c-0.112-0.242-0.224-0.539-0.334-0.898
	c-0.781-1.558-1.395-2.636-1.838-3.234c7.909-2.156,14.481-5.45,19.719-9.883c0-0.118-0.058-0.359-0.167-0.719
	c-0.224-0.477-0.392-0.898-0.501-1.258c-5.125,3.476-10.64,6.23-16.544,8.266c-0.668-1.438-1.337-2.934-2.005-4.492
	c6.46-1.438,12.032-3.773,16.711-7.008c-0.446-0.598-0.835-1.137-1.17-1.617c-3.342,1.797-7.799,3.476-13.369,5.031
	c-0.334-0.598-0.781-1.555-1.337-2.875c-0.334-0.598-0.559-1.078-0.668-1.438c7.019-1.196,12.588-3.055,16.711-5.57L110.701,63.457
	L110.701,63.457z M104.351,61.3v-9.523h16.878l-1.504-4.133l5.849-0.539c0.222,0.601,0.611,1.738,1.169,3.414
	c0.11,0.601,0.222,1.019,0.334,1.258h15.207V61.3h-5.013v-5.031h-28.075V61.3H104.351z M151.245,64.355v-5.391h16.377
	c0.109-2.633,0.167-6.348,0.167-11.141h5.515l-0.167,11.141h16.544v5.391h-16.544c1.781,10.183,7.575,17.011,17.379,20.484
	c-0.668,0.598-1.561,1.797-2.673,3.594c-0.447,0.719-0.781,1.196-1.003,1.438c-8.689-3.953-14.149-10-16.376-18.148
	c-1.671,7.667-7.186,13.895-16.544,18.688c-0.447-0.601-1.17-1.617-2.172-3.055c-0.668-0.839-1.17-1.5-1.504-1.977
	c10.583-4.672,16.209-11.68,16.878-21.023L151.245,64.355L151.245,64.355z M203.987,84.66c-2.005,2.036-3.622,3.953-4.846,5.75
	l-2.005-5.391c0.668-0.836,1.671-1.915,3.008-3.234c0.556-0.598,0.945-1.016,1.169-1.258V67.769h-4.01v-5.211h8.856v17.969
	c1.671,3.117,4.679,4.672,9.024,4.672c3.898,0.121,11.473,0.062,22.727-0.18c-0.446,0.958-0.893,2.395-1.337,4.313
	c0-0.241-0.058-0.121-0.167,0.359c-6.35,0-10.862,0-13.536,0c-3.342,0-6.24-0.062-8.689-0.18
	C209.277,89.391,205.88,87.773,203.987,84.66L203.987,84.66z M202.984,59.144c-1.449-2.875-3.065-5.809-4.846-8.805l4.011-2.156
	c1.781,2.875,3.509,5.632,5.18,8.266L202.984,59.144z M208.833,56.449v-3.953h6.852c-0.334-0.477-0.781-1.137-1.337-1.977
	c-0.668-0.958-1.17-1.617-1.504-1.977l4.846-1.078c1.002,1.438,2.115,3.117,3.342,5.031h3.843c0.444-0.836,0.611-1.078,0.501-0.719
	c1.225-2.395,1.948-3.833,2.172-4.313l5.013,1.078c-0.112,0.242-0.392,0.66-0.835,1.258c-0.668,1.199-1.227,2.097-1.671,2.695h7.019
	v3.953h-12.533l-0.835,3.234h11.363v22.461h-24.732V59.683h8.523l0.668-3.234H208.833z M215.016,63.277v2.875h15.374v-2.875H215.016
	z M215.016,69.386v3.055h15.374v-3.055H215.016z M215.016,75.496v3.055h15.374v-3.055H215.016z"/>
<path fill="#FFC99D" d="M266.396,24.317c-0.175,0.126-0.292,0.22-0.349,0.281l-1.482-2.25c2.79-2,4.911-4.25,6.365-6.75l2.877,0.375
	c-0.349,0.563-0.697,1.125-1.046,1.688h8.196v1.969l-2.441,2.531h4.795v8.063h-8.021c-0.059,0.126-0.117,0.313-0.174,0.563
	c-0.117,0.188-0.175,0.313-0.175,0.375h2.267v2.719c-0.059,1,0.436,1.5,1.482,1.5h2.529c0.929,0,1.452-0.437,1.569-1.313
	c0.116-0.75,0.203-1.655,0.261-2.719c1.221,0.438,2.063,0.719,2.529,0.844c-0.117,0.813-0.262,1.688-0.436,2.625
	c-0.059,0.25-0.087,0.438-0.087,0.563c-0.349,1.5-1.454,2.218-3.313,2.156h-4.011c-2.092,0.062-3.11-0.876-3.051-2.813V31.63
	c-1.105,2.563-3.924,4.781-8.458,6.656c-0.349-0.625-0.901-1.47-1.656-2.531c4.242-1.374,6.917-3.218,8.021-5.531h-5.929V24.13
	C266.599,24.193,266.512,24.256,266.396,24.317L266.396,24.317z M277.469,19.911h-6.365c-0.756,0.876-1.482,1.626-2.18,2.25h6.452
	L277.469,19.911z M269.186,24.505v3.469h4.098l0.087-0.375c0.175-0.938,0.319-1.969,0.436-3.094H269.186z M280.869,24.505h-4.446
	c-0.233,1.626-0.407,2.719-0.523,3.281v0.188h4.97L280.869,24.505L280.869,24.505z M290.772,19.349
	c-0.523,0.063-0.902,0.094-1.133,0.094c-0.059-1.062-0.174-1.906-0.349-2.531c2.616-0.062,4.998-0.218,7.149-0.469l0.436,2.438
	c-0.872,0.063-1.715,0.157-2.529,0.281v3.094h2.354v2.625h-2.354v1.781c0.988,0.75,2.005,1.532,3.052,2.344v-9.094h2.528
	c-0.349-0.75-0.93-1.875-1.744-3.375l2.354-0.844c0.116,0.188,0.262,0.438,0.436,0.75c0.697,1.188,1.162,2.063,1.395,2.625
	l-2.005,0.844h3.4c0.872-1.812,1.511-3.218,1.918-4.219l2.616,0.844l-1.918,3.375h2.615v9.375h-2.964v4.875
	c0,0.813,0.291,1.188,0.872,1.125h0.262c0.58,0.063,0.9-0.312,0.959-1.125c0.057-0.249,0.116-0.938,0.174-2.063
	c0.058-0.312,0.087-0.53,0.087-0.656c0.231,0.126,0.61,0.281,1.133,0.469c0.35,0.188,0.61,0.313,0.785,0.375
	c-0.059,1.125-0.174,2.188-0.349,3.188c-0.233,1.5-1.134,2.25-2.703,2.25h-0.872c-1.918,0.062-2.849-0.876-2.79-2.813v-5.625h-1.657
	c0,0.25,0,0.501,0,0.75c0.174,3.563-1.425,6.249-4.795,8.063c-0.117-0.126-0.292-0.345-0.523-0.656
	c-0.523-0.75-0.902-1.251-1.133-1.5c2.731-1.374,4.068-3.375,4.01-6c0-0.188,0-0.406,0-0.656h-2.092V29.1l-1.221,2.156l-1.831-1.875
	v8.625h-2.441v-8.063c-0.582,1.626-1.279,3-2.093,4.125c-0.292-0.938-0.61-1.875-0.959-2.813c1.278-1.875,2.295-3.999,3.052-6.375
	h-2.616v-2.625h2.616v-3C291.673,19.318,291.296,19.349,290.772,19.349L290.772,19.349z M299.84,22.349v4.5h6.713v-4.5H299.84z
	 M321.775,37.255c-0.407-0.501-0.989-1.125-1.744-1.875c-0.697-0.688-1.221-1.219-1.569-1.594c-0.641,1.375-1.861,2.813-3.662,4.313
	c-0.059-0.126-0.174-0.313-0.349-0.563c-0.174-0.313-0.523-0.813-1.046-1.5c1.626-1.187,2.673-2.375,3.139-3.563
	c0.523-1.125,0.785-2.874,0.785-5.25v-6.375h2.005v6.563c0,1.5-0.087,2.782-0.262,3.844c0.522,0.438,1.249,1.125,2.18,2.063
	c0.872,0.876,1.569,1.532,2.093,1.969L321.775,37.255z M314.452,31.255V16.724h7.759v6.188c1.396-2.312,2.47-4.718,3.227-7.219
	l2.354,0.375c-0.059,0.188-0.146,0.469-0.262,0.844c-0.117,0.375-0.35,0.938-0.697,1.688h7.149c0,6-0.06,11.095-0.175,15.281
	c0,2.499-1.134,3.75-3.399,3.75c-0.757,0.062-2.006,0.094-3.749,0.094c-0.06-0.188-0.088-0.438-0.088-0.75
	c-0.175-0.813-0.319-1.375-0.437-1.688c0.406,0,1.018,0.032,1.831,0.094c0.697,0,1.19,0,1.482,0c1.395,0,2.092-0.75,2.092-2.25
	c0-0.687,0-2.156,0-4.406c0.058-3.5,0.088-6,0.088-7.5h-5.929c-0.523,1.188-1.134,2.376-1.831,3.563l-1.657-1.594v8.063h-1.831v-12
	h-4.097v12h-1.831V31.255z M325.089,32.38c-0.641,0.063-1.221,0.188-1.744,0.375l-1.046-2.063c0.522-0.437,0.959-1.031,1.309-1.781
	c0.872-1.812,1.626-3.781,2.267-5.906l2.18,0.75c-0.291,0.625-0.669,1.5-1.134,2.625c-0.231,0.563-0.784,1.781-1.656,3.656
	l3.053-0.188c-0.117-0.249-0.263-0.624-0.437-1.125c-0.35-0.812-0.582-1.406-0.698-1.781l1.744-0.75
	c0.93,2.125,1.743,4.188,2.441,6.188l-1.744,0.844c-0.059-0.125-0.117-0.312-0.174-0.563c-0.117-0.249-0.205-0.437-0.262-0.563
	C327.617,32.162,326.251,32.255,325.089,32.38L325.089,32.38z M339.961,25.536c-0.058,0.313-0.116,0.563-0.174,0.75
	c-0.641-0.249-1.221-0.437-1.744-0.563c0.581-2.063,0.959-4.718,1.134-7.969l1.831,0.188l-0.262,2.813h1.221v-5.063h2.441v5.063
	h1.568v1.594c1.162-1.875,2.121-4.093,2.878-6.656l2.354,0.563c-0.117,0.501-0.35,1.188-0.698,2.063
	c-0.174,0.375-0.291,0.656-0.349,0.844h8.457l-0.437,14.344c0,2.562-1.134,3.875-3.399,3.938c-0.872,0.062-1.86,0.094-2.964,0.094
	c-0.06-0.188-0.117-0.532-0.176-1.031c-0.175-0.75-0.29-1.25-0.349-1.5c0.987,0,1.888,0,2.703,0
	c1.221,0.063,1.831-0.624,1.831-2.063c0.115-1.187,0.23-4.156,0.349-8.906c0.058-1.187,0.087-1.969,0.087-2.344h-1.221
	c-0.292,7.75-2.646,13.094-7.062,16.031c-0.581-0.625-1.222-1.313-1.918-2.063c4.358-2.874,6.771-7.531,7.235-13.969h-1.395
	c-0.582,4.688-2.268,8.313-5.058,10.875c-0.232-0.249-0.669-0.718-1.309-1.406c-0.291-0.312-0.466-0.5-0.522-0.563
	c0.35-0.312,0.667-0.594,0.959-0.844l-1.568,0.375V38.1h-2.441v-7.313c-1.046,0.313-2.21,0.656-3.486,1.031l-0.263-2.906
	c0.231-0.062,0.64-0.155,1.222-0.281c0.349-0.125,1.189-0.343,2.527-0.656v-4.781h-1.655
	C340.252,23.755,340.136,24.537,339.961,25.536L339.961,25.536z M349.029,21.692c-0.698,1.313-1.427,2.563-2.181,3.75l-1.656-1.875
	l0.175-0.375h-0.959v4.219l1.743-0.469c0,0.75,0,1.626,0,2.625c2.033-2,3.399-4.625,4.099-7.875H349.029L349.029,21.692z"/>
</svg>
