<svg xmlns="http://www.w3.org/2000/svg" width="640" height="303" viewBox="0 -96.5 640 303" enable-background="new 0 -96.5 640 303"><path fill="#43CFB2" d="M385.071 34.684h-3.232v-12.181c-1.181 1.104-2.572 1.921-4.175 2.45v-2.933c.844-.276 1.76-.799 2.749-1.57s1.668-1.669 2.036-2.697h2.622v16.931z"/><path fill="#fff" d="M54.976 148.562v-1.688h2.329v-4.406h1.639v4.406h2.07v1.688h-2.07v4.594c.115 0 .259-.03.431-.094l1.553-.563v1.875c-.634.188-1.294.407-1.984.656v6.938c.057 1.562-.662 2.375-2.156 2.438h-1.725c0-.188-.03-.469-.086-.844-.058-.438-.116-.75-.173-.938h1.553c.69.062 1.005-.281.949-1.031v-6.094c-.748.251-1.553.532-2.415.844l-.172-1.969c.287-.062.718-.188 1.293-.375l1.294-.281v-5.155h-2.33zm9.487 48.126v-4.971h-4.657v3.75h-1.639v-4.029c-.806.438-1.697.844-2.673 1.218-.116-.248-.317-.655-.604-1.218-.058-.125-.116-.22-.172-.281 2.415-.75 4.369-1.749 5.865-3h-5.263v-1.406h6.642c.401-.438.776-.938 1.121-1.5h-5.52v-6.469h15.353v6.469h-8.107c-.23.562-.518 1.062-.863 1.5h11.212v1.406h-5.865c1.609 1.438 3.737 2.344 6.382 2.719-.058.188-.172.469-.345.843-.173.376-.289.657-.345.845-.518-.125-1.179-.343-1.984-.655-.345-.125-.575-.22-.69-.281v1.688c.057 1.312-.662 1.969-2.156 1.969h-2.329l-.259-1.313h2.07c.747 0 1.092-.28 1.035-.845v-1.406h-4.657v4.971h-1.552v-.004zm-9.229-19.5v-1.407h5.951v-1.499h1.639v1.499h4.83v-1.499h1.725v1.499h5.865v1.407h-5.865v1.029h-1.725v-1.029h-4.83v1.029h-1.639v-1.029h-5.951zm6.21-46.376h1.812v-19.031h-1.294c-.748 2.001-2.444 3.656-5.089 4.969v1.969c1.782-.75 3.306-1.749 4.571-3v15.093zm-2.242 49.187v1.5h11.988v-1.5h-11.988zm0 2.531v1.5h11.988v-1.5h-11.988zm8.194-18.875v-6.281h-3.881c-.172 2.876-.892 5.312-2.156 7.313-.461-.375-.949-.75-1.466-1.125.919-1.377 1.495-2.75 1.725-4.125.287-1.438.431-3.625.431-6.563v-9.469h12.506v18.469c.057 1.688-.72 2.531-2.329 2.531h-1.983c0-.251-.058-.595-.173-1.031-.058-.313-.086-.563-.086-.75.574.062 1.121.094 1.639.094.919.062 1.35-.313 1.293-1.125v-4.219h-3.967v6.281h-1.553zm-1.38 25.157v1.594h3.881c-.978-.75-1.783-1.502-2.415-2.25h-4.744c-.69.812-1.582 1.562-2.674 2.25h4.399v-1.594h1.553zm-2.415-43.719v4.5h3.795v-4.5h-3.795zm0 7.875v2.813h3.795v-4.5h-3.795v1.687zm9.314-7.875h-3.967v4.5h3.967v-4.5zm-3.967 6.187v4.5h3.967v-4.5h-3.967zm13.189-25.061h-2.415v4.594h-1.725v-4.594h-7.935v-1.125l8.28-13.312h1.38v12.75h2.415v1.687zm-4.486-10.501c-.92 1.313-2.76 4.251-5.52 8.813h5.865v-9.657c0 .063-.058.188-.172.375-.058.188-.116.345-.173.469zm10.599 66.25c-.461 6.438-3.307 11.376-8.539 14.813-.461-.626-.92-1.188-1.38-1.688 5.117-3.188 7.819-7.562 8.107-13.125h-7.676v-1.78h7.849c.173-1.875.259-3.875.259-6h1.897c0 2.062-.086 4.062-.258 6h9.056c-.116 4.375-.259 8.188-.431 11.438-.058 3.062-1.41 4.562-4.054 4.5-1.38.062-2.731.094-4.054.094-.058-.188-.116-.469-.172-.844 0-.251-.086-.688-.259-1.312h1.639c1.035.062 1.782.095 2.243.095 1.897.188 2.846-.781 2.846-2.907.229-3.188.345-6.28.345-9.28h-7.418v-.004zm-9.044-35.094v-1.688h6.641c.459-.938.863-1.937 1.208-3l1.897.281c-.172.438-.431 1.031-.776 1.781-.172.438-.288.75-.345.938h11.385v1.688h-12.248c-.173.313-.432.75-.776 1.313l-.776 1.405h11.471v11.906c.057 1.875-.862 2.813-2.76 2.813h-3.278c0-.188-.058-.47-.172-.845-.058-.438-.116-.75-.172-.938h1.208c.747.062 1.322.094 1.725.094 1.208.062 1.753-.438 1.639-1.5v-1.5h-10.61v5.063h-1.725v-11.531c-1.035 1.188-2.156 2.344-3.364 3.469l-.863-1.781c2.817-2.498 4.945-5.156 6.383-7.969l-5.692.001zm4.042 32.375c-.978-1.313-1.983-2.469-3.019-3.47l1.294-1.124c1.149 1 2.185 2.062 3.105 3.188l-1.38 1.406zm1.219-28.061v2.625h10.609v-2.625h-10.609zm0 4.217v2.625h10.609v-2.625h-10.609zm2.502-42.218v-1.781h18.629v1.781h-8.452v9.657h9.401v1.875h-9.401v8.063h-1.811v-8.063h-9.315v-1.875h9.315v-9.657h-8.366zm4.657 8.157c-1.208-1.875-2.444-3.657-3.708-5.344l1.293-1.031c1.092 1.313 2.386 3.032 3.881 5.157l-1.466 1.218zm.419 68.874c-.748-1.062-1.869-2.375-3.364-3.938l1.293-1.125c.863.75 2.041 1.969 3.537 3.655l-1.466 1.408zm12.605-74.218c-1.38 1.875-2.76 3.688-4.14 5.438l-1.38-1.219c1.494-1.688 2.846-3.469 4.053-5.344l1.467 1.125zm-2.1 66.155c-.289.312-.489.562-.604.75-.058-.188-.202-.47-.431-.845-.172-.375-.317-.655-.431-.844 1.954-2.062 3.536-4.406 4.744-7.031l1.639.563c-.633 1.313-1.294 2.47-1.984 3.468v9.75h-1.639v-7.404c-.288.376-.72.906-1.294 1.593zm2.415 7.5c-.806 2.376-1.524 4.125-2.156 5.25l-1.552-.656c.862-1.688 1.581-3.375 2.156-5.063l1.552.469zm-2.219-31.717c.172-2.438 1.322-4.062 3.45-4.875-1.725-.875-2.646-2.28-2.76-4.22.229-3.188 1.954-4.875 5.175-5.062 3.105.251 4.8 1.938 5.089 5.062-.116 2.001-.979 3.407-2.587 4.22 2.126.875 3.248 2.562 3.364 5.062-.173 3.188-2.128 4.843-5.865 4.969-3.797-.127-5.752-1.844-5.866-5.156zm9.746.186c-.172-2.749-1.496-4.187-3.968-4.313-2.3.127-3.565 1.5-3.795 4.125.229 2.25 1.523 3.469 3.881 3.656 2.357-.187 3.651-1.342 3.882-3.468zm-.863-9.281c-.172-2.062-1.179-3.188-3.019-3.375-1.897.126-2.933 1.188-3.105 3.188.057 2.312 1.092 3.531 3.105 3.656 1.898-.062 2.903-1.219 3.019-3.469zm-2.696 47.187c-1.725 0-2.587-.907-2.587-2.72v-3.844h1.639v3.375c.057 1 .604 1.5 1.639 1.5h3.795c1.264.062 1.984-.437 2.156-1.5.172-.688.287-1.406.345-2.156.114.063.315.127.604.188.459.25.833.407 1.122.469-.173.876-.345 1.688-.518 2.438-.403 1.562-1.496 2.312-3.278 2.25h-4.917zm3.105-13.875c-1.093 1.438-2.415 3-3.967 4.688-.116-.188-.375-.437-.776-.75l-.431-.469c1.149-1.125 2.415-2.593 3.795-4.406l1.379.937zm-1.38-3.938c-.403.877-1.151 2.002-2.243 3.376l-.172-.188c-.518-.375-.92-.656-1.208-.845 1.667-2 2.933-4.093 3.795-6.28l1.725.28c-.058.188-.172.438-.345.75-.058.25-.259.688-.604 1.312h9.574v1.688l-1.294 3c-.058 0-.172-.062-.345-.188-.518-.188-.92-.343-1.208-.469l1.121-2.438-8.796.002zm1.897 14.157c-.863-1.126-1.755-2.188-2.674-3.188l1.208-1.031c.632.625 1.581 1.627 2.846 3l-1.38 1.219zm-2.308-76.468v-1.781h9.918c-.23-.938-.633-2.093-1.208-3.469l1.897-.375 1.035 2.531c.172.501.287.844.345 1.031l-.863.281h9.143v1.781h-12.764c0 1.313-.058 2.657-.172 4.031h10.264c-.116 3.625-.259 6.282-.431 7.968-.058 2.813-1.524 4.188-4.399 4.126h-3.536v-.188c-.116-.812-.23-1.406-.345-1.781h1.552c.863.062 1.523.094 1.984.094 1.954.188 2.933-.717 2.933-2.719.114-.938.229-2.593.345-4.969v-.75h-8.539c-.172 4.688-2.186 8.374-6.038 11.062l-.431-.469c-.518-.5-.834-.844-.949-1.031 3.737-2.438 5.634-6 5.692-10.688.172-1.5.259-3.062.259-4.688h-5.692v.003zm2.826 71.874h-1.984c0-.062-.03-.155-.086-.281 0-.313-.086-.781-.259-1.406.402.063.977.095 1.725.095.977.062 1.437-.375 1.38-1.313v-5.251h1.639v5.531c.056 1.688-.748 2.564-2.415 2.625zm7.417-.937c-1.496-1.812-2.76-3.219-3.795-4.219l1.207-1.125c.977.876 2.299 2.25 3.968 4.125l-1.38 1.219zm.173 7.312c-.345-.5-.862-1.28-1.553-2.345-.69-.998-1.237-1.78-1.639-2.344l1.294-.938c1.38 1.812 2.501 3.375 3.364 4.688l-1.466.939zm8.817-40.625c-.058 6.251-1.927 9.437-5.606 9.562-3.853-.062-5.779-3.249-5.779-9.562.057-6.312 1.954-9.563 5.692-9.75 3.738.126 5.635 3.375 5.693 9.75zm-1.983 0c0-5.438-1.266-8.124-3.795-8.063-2.358.188-3.566 2.876-3.623 8.063 0 5.376 1.236 8.032 3.708 7.969 2.472.063 3.71-2.593 3.71-7.969zm-2.798 36.594v-1.781h10.436c.574-1.875.863-4.594.863-8.155h1.811c0 3.188-.259 5.905-.776 8.155h7.935v1.781h-8.452c-.058.063-.116.156-.173.281-.116.25-.202.407-.258.469.977.501 2.558 1.219 4.743 2.156 1.725.75 2.989 1.312 3.795 1.688l-.949 1.688c-1.725-.875-3.911-1.938-6.555-3.188-.806-.375-1.438-.655-1.897-.844-1.61 1.875-4.83 3.343-9.66 4.406-.116-.313-.345-.75-.69-1.313l-.259-.562c5.577-.938 8.854-2.531 9.833-4.781h-9.747zm.344-8.436v-4.5h9.401c-.172-.313-.375-.781-.604-1.407l-.518-1.124 1.811-.469c.402.812.805 1.78 1.208 2.905l-.517.095h8.625v4.5h-1.725v-2.813h-15.957v2.813h-1.724zm6.297 6c-1.438-.938-2.904-1.781-4.398-2.531l.862-1.5 4.485 2.438-.949 1.593zm1.984-3.47c-1.093-.75-2.531-1.625-4.313-2.625l.776-1.312c1.38.625 2.846 1.405 4.398 2.344l-.861 1.593zm19.708-20.28l-.259.562c-5.002-.876-8.166-2.749-9.488-5.625-.978 2.625-4.111 4.594-9.401 5.906-.289-.563-.604-1.188-.949-1.875 5.059-.938 8.078-2.655 9.056-5.156h-9.056v-1.594h2.587v-6h6.9v-2.25h1.811v2.25h6.728v6h2.674v1.594h-9.143c1.264 2.751 4.313 4.374 9.143 4.875-.172.313-.374.749-.603 1.313zm-20.01-17.439v-1.688h5.347v-2.531h1.725v2.531h6.382v-2.531h1.725v2.531h5.347v1.688h-5.347v1.969h-1.725v-1.969h-6.382v1.969h-1.725v-1.969h-5.347zm1.375-25.249v-1.782h9.314v-9h1.812v9h9.229v1.782h-8.107c1.954 3.501 4.744 6.094 8.366 7.781-.058.062-.116.188-.172.375-.461.562-.748.999-.862 1.312-4.083-2.188-6.9-5.094-8.453-8.719v10.688h-1.812v-10.594c-1.552 3.563-4.398 6.596-8.538 9.094l-.518-.844c-.288-.312-.489-.562-.604-.75 3.967-2.312 6.784-5.094 8.452-8.344h-8.107zm5.435-3.375c-.69-.999-1.812-2.468-3.364-4.406l-.432-.469 1.294-1.125c1.149 1.313 2.472 2.906 3.967 4.781l-1.465 1.219zm2.505 38.28c.057-.938.086-2.405.086-4.406h-5.175v4.406h5.089zm1.811-4.406c0 2.063-.03 3.532-.086 4.406h5.175v-4.406h-5.089zm8.965-38.749c-.748 1.125-2.042 2.782-3.881 4.969l-1.293-1.219c1.149-1.313 2.385-2.937 3.708-4.875l1.466 1.125zm-4.8 82.374v-19.125h7.245v18.844h-1.639v-1.688h-3.968v1.97h-1.638v-.001zm1.639-17.436v6.094h3.968v-6.094h-3.968zm0 7.686v6.093h3.968v-6.093h-3.968zm6.728-4.686v-1.782h7.332v-4.874h1.725v4.874h2.674v1.782h-2.674v12.187c.057 2.063-.949 3.125-3.019 3.188h-3.277l-.259-1.125c-.058-.375-.116-.657-.173-.845.574.062 1.609.095 3.105.095 1.322.062 1.954-.563 1.897-1.875v-11.625h-7.331zm.227-32.376v-1.781h13.714v-4.406h1.897v4.406h4.744v1.781h-4.744v11.25c.115 2.812-1.179 4.219-3.881 4.219-1.38.062-2.876.094-4.485.094-.058-.25-.116-.562-.172-.938l-.259-1.125h1.552c1.092.062 1.954.094 2.588.094 2.07.248 2.989-.719 2.76-2.906v-10.688h-13.714zm2.964 40.906c-.461-1.062-1.151-2.469-2.07-4.219-.23-.437-.403-.781-.517-1.031l1.38-.844c.345.563.805 1.406 1.38 2.531.632 1.125 1.092 1.969 1.38 2.53l-1.553 1.033zm-.806-57.062v-18.282h2.329c.173-.624.402-1.531.69-2.719.114-.5.201-.844.259-1.031l1.811.281c-.345 1.375-.662 2.531-.949 3.469h4.054v18.094h-1.725v-1.78h-4.744v1.969h-1.725zm5.433 25.156c-.806-1.062-2.445-3.095-4.917-6.095l1.38-1.219c2.07 2.376 3.766 4.376 5.089 6l-1.552 1.314zm-3.707-41.75v5.625h4.744v-5.625h-4.744zm0 7.313v5.719h4.744v-5.719h-4.744zm13.541 9.094h-3.623c-.058-.251-.116-.626-.173-1.125-.116-.312-.172-.562-.172-.75h3.45c1.667.124 2.501-.688 2.501-2.438.172-5.563.259-9.594.259-12.094h-5.52c-.575 1.375-1.151 2.625-1.725 3.75-.461-.375-.949-.718-1.466-1.031 1.208-2.124 2.271-4.875 3.191-8.25l1.725.469c-.116.501-.317 1.188-.604 2.063-.23.563-.375.97-.431 1.219h6.642v1.5c-.116 5.812-.23 10.032-.345 12.657-.059 2.623-1.294 3.966-3.709 4.03zm-1.466-6.563c-1.035-1.688-2.128-3.344-3.278-4.969l1.294-1.032c.172.25.459.625.862 1.125 1.092 1.562 1.954 2.812 2.588 3.75l-1.466 1.126zm-.161 70.748c-.403.062-.92.095-1.552.095-.058-.688-.145-1.313-.259-1.875h1.293c.805.062 1.178-.281 1.122-1.032v-6.187c-.23.062-.634.22-1.208.469-.518.188-.92.344-1.208.469l-.259-1.875c.114-.062.315-.125.604-.188.402-.188 1.092-.438 2.07-.75v-4.97h-2.329v-1.688h2.329v-4.501h1.552v4.501h1.984v1.688h-1.984v4.313l1.725-.656c0 .126.028.407.086.845v.844c2.126-.75 3.909-1.875 5.347-3.375h-4.83v-1.406h6.038v-4.031c-1.61.126-3.394.188-5.348.188 0-.374-.116-.874-.345-1.5 5.692-.124 9.919-.312 12.679-.562l.259 1.5c-2.415.126-4.313.25-5.692.375v4.031h6.555v1.406h-5.347c1.208 1.312 3.075 2.406 5.606 3.281-.288.375-.575.875-.862 1.5-.058-.062-.144-.125-.259-.188-.172-.062-.289-.094-.345-.094v9.655h-1.552v-1.125h-8.97v1.125h-1.552v-9.562c-.116.062-.289.126-.518.188-.172.127-.289.188-.345.188-.345-.5-.662-.938-.949-1.313-.116.063-.288.127-.517.188-.345.126-.634.25-.863.375v7.125c.115 1.623-.604 2.467-2.156 2.529zm10.522-10.405v-3c-1.093 1.5-2.76 2.845-5.002 4.031h11.816c-2.301-1.125-4.054-2.499-5.261-4.125v3.094h-1.553zm-2.587-5.25c-.461-.624-1.151-1.374-2.07-2.25l1.035-.844c.863.75 1.581 1.438 2.156 2.062l-1.121 1.032zm-1.036 7.594v2.345h3.709v-2.345h-3.709zm0 3.656v2.156h3.709v-2.156h-3.709zm1.62-27.594v-18.281h2.329c.173-.624.402-1.53.69-2.719.114-.499.201-.845.259-1.031l1.811.281c-.345 1.376-.662 2.53-.949 3.469h4.054v18.094h-1.725v-1.78h-4.744v1.969l-1.725-.002zm1.464-51.124v-1.313h9.488c-.116-.5-.259-1.062-.431-1.688l1.811-.188c.057.188.115.438.172.75l.259 1.125h9.056v1.313h-20.355v.001zm20.441 16.781c-.345.5-.662 1.031-.949 1.595-3.048-1.001-5.118-2.656-6.209-4.97l-.949.375c.172.688.259 1.406.259 2.156.114 2.124-.979 3.188-3.278 3.188-.345.062-1.179.094-2.501.094v-.188c-.058-.375-.172-.812-.345-1.312.747.062 1.609.094 2.588.094 1.322.062 1.954-.501 1.897-1.688 0-.5-.058-.938-.173-1.313-2.186 1.563-5.434 2.968-9.746 4.22-.289-.563-.547-1.002-.776-1.313 4.313-1.001 7.733-2.345 10.264-4.031-.058-.375-.23-.75-.518-1.125-2.186 1.5-5.146 2.72-8.883 3.656-.058-.188-.202-.437-.432-.75-.172-.313-.288-.5-.345-.563 3.392-.688 6.411-1.781 9.056-3.281-.058-.125-.144-.248-.259-.375l-.345-.375c-2.128.938-4.658 1.721-7.59 2.345-.058-.188-.23-.53-.518-1.031-.116-.125-.172-.219-.172-.28 3.334-.563 6.094-1.313 8.28-2.25h-5.175v-1.22h13.11v1.22h-5.261c-.116.062-.316.155-.604.28-.289.188-.518.313-.69.375.69.625 1.208 1.313 1.552 2.063 2.127-.875 4.054-1.749 5.778-2.625l.862 1.312c-1.552.813-2.789 1.375-3.708 1.688 1.037 2.061 2.963 3.405 5.78 4.029zm-20.18 17.75v5.625h4.744v-5.625h-4.744zm0 7.312v5.719h4.744v-5.719h-4.744zm.257-32.655v-3.188h19.319v3.188h-1.639v-1.969h-16.042v1.969h-1.638zm5.369 65.874h-3.795v2.345h3.795v-2.345zm-3.795 3.656v2.156h3.795v-2.156h-3.795zm.841-73.937v-3.562h14.489v3.563l-14.489-.001zm3.989 60.343c-.634.688-1.41 1.438-2.329 2.25l-1.035-.938c.114-.125.315-.312.604-.562.747-.688 1.294-1.249 1.639-1.688l1.121.938zm-2.35-62.874v1.406h11.213v-1.406h-11.213zm9.23 48.687h-3.623c-.058-.25-.116-.626-.173-1.125-.116-.312-.172-.562-.172-.75h3.45c1.667.125 2.501-.687 2.501-2.438.172-5.562.259-9.593.259-12.095h-5.52c-.575 1.377-1.151 2.625-1.725 3.75-.461-.375-.949-.718-1.466-1.03 1.208-2.124 2.271-4.875 3.191-8.25l1.725.469c-.116.501-.317 1.188-.604 2.063-.23.562-.375.97-.431 1.219h6.641v1.5c-.116 5.812-.23 10.031-.345 12.656-.057 2.625-1.293 3.967-3.708 4.031zm-1.466-6.563c-1.035-1.688-2.128-3.343-3.278-4.97l1.294-1.03c.172.251.459.626.862 1.125 1.092 1.562 1.954 2.812 2.588 3.75l-1.466 1.125zm-.947 22.344v-1.688h4.83c-.173-.875-.518-2.123-1.035-3.75l1.725-.375c.114.313.259.877.431 1.688l.69 2.251-.776.188h4.054v1.687h-5.865c0 .501-.03 1.219-.086 2.156v1.781h4.83c0 3.25-.086 6.22-.259 8.905 0 2.063-.92 3.093-2.76 3.093h-1.897c0-.125-.03-.312-.086-.562-.116-.501-.202-.907-.259-1.219h1.639c1.149.124 1.725-.375 1.725-1.501.172-2.374.259-4.719.259-7.03h-3.277c-.231 5.001-1.208 8.687-2.933 11.063-.633-.688-1.065-1.125-1.294-1.313 1.667-2.188 2.53-5.78 2.587-10.781.057-.5.086-1.28.086-2.344.057-.999.086-1.749.086-2.25h-2.415zm20.7 14.719c-.461.749-.806 1.374-1.035 1.875-2.186-1.562-3.795-2.968-4.83-4.219-1.266 1.5-2.991 3-5.175 4.499-.116-.25-.345-.625-.69-1.124-.23-.313-.375-.532-.431-.656 2.415-1.438 4.168-2.844 5.261-4.219-1.208-1.937-2.013-4.5-2.415-7.688-.116.25-.345.625-.69 1.125-.289.502-.518.877-.69 1.125-.518-.75-.892-1.279-1.121-1.594 1.781-2.562 3.105-5.779 3.967-9.656l1.811.28c-.345 1.313-.776 2.658-1.293 4.032h7.245v1.688h-1.639c-.403 4.688-1.41 8.25-3.019 10.688 1.208 1.564 2.788 2.845 4.744 3.844zm-7.33-39.03c-.23-.188-.517-.405-.862-.656-1.035-.812-1.841-1.438-2.415-1.875l.949-1.313c1.149.813 2.271 1.626 3.364 2.438l-1.036 1.406zm-3.105-9.658v-1.595h5.693v-2.155h1.725v2.155h5.865v-2.155h1.639v2.155h5.779v1.595h-5.779v1.594h-1.639v-1.594h-5.865v1.594h-1.725v-1.594h-5.693zm3.536 13.875c-.748 2.062-1.294 3.594-1.639 4.594l-1.639-.656c.69-1.563 1.553-3.874 2.588-6.938.172.063.431.188.776.375.345.127.604.252.776.375-.172.501-.46 1.251-.862 2.25zm.949-8.625c-1.208-.938-2.272-1.781-3.191-2.531l.949-1.219c.919.562 2.041 1.345 3.364 2.344l-1.122 1.406zm-2.244 29.375c.46 3.812 1.264 6.688 2.415 8.625 1.208-1.875 2.012-4.906 2.415-9.095h-4.657l-.173.47zm3.706-64.28c-.92.938-1.897 1.813-2.933 2.625-.172-.563-.403-1.187-.69-1.875 2.185-1.562 4.254-3.844 6.21-6.844l1.639.656c-.806 1.313-1.639 2.47-2.501 3.469v8.531h-1.725v-6.562zm-3.537 10.875v-1.688h9.315v-2.813h1.811v2.813h9.315v1.688h-9.315v5.438h-1.811v-5.438h-9.315zm18.204 28.812c-.172.438-.288.812-.345 1.125-3.278-.688-5.722-1.406-7.332-2.156-1.897.876-4.313 1.688-7.245 2.438-.058-.249-.23-.656-.518-1.219l-.172-.375c2.587-.499 4.686-1.093 6.296-1.781-.92-.687-1.811-1.529-2.674-2.531-.633.75-1.38 1.5-2.242 2.25-.173-.248-.518-.655-1.035-1.219 1.897-1.562 3.364-3.375 4.399-5.438l1.639.281-.776 1.312h7.849v1.688c-1.093 1.377-2.387 2.596-3.881 3.656 1.667.563 3.737 1.031 6.21 1.406-.059.126-.117.313-.173.563zm-13.541 8.626v-7.125h11.299v7.125h-1.725v-1.22h-7.849v1.22h-1.725zm6.377-46.532c-1.265.562-2.587 1.094-3.967 1.594-.23-.563-.489-1.125-.776-1.688 1.725-.563 3.306-1.156 4.744-1.781v-5.719h1.725v4.875c1.725-.875 3.623-2.093 5.692-3.656l1.122 1.312c-2.07 1.563-4.342 2.969-6.814 4.219v1.594c-.116 1.313.488 1.907 1.812 1.782h1.983c1.15.062 1.782-.438 1.897-1.5.115-.375.229-1.187.345-2.438.229.126.574.25 1.035.375.287.126.488.22.604.281-.116 1.062-.259 1.969-.431 2.719-.289 1.5-1.323 2.219-3.105 2.156h-2.933c-2.07.126-3.048-.905-2.933-3.094v-1.031zm-4.652 40.999v2.812h7.849v-2.812h-7.849zm4.139-5.906c1.38-.812 2.588-1.812 3.623-3h-6.9v.094c.919 1.188 2.012 2.156 3.277 2.906zm3 31.813c-1.266-1.25-2.329-2.219-3.191-2.906l1.122-1.313c1.208.876 2.299 1.781 3.277 2.72l-1.208 1.499zm.949 3.374c-.69 2.752-1.323 5.472-1.897 8.157l-1.811-.562c.632-2.312 1.322-5.063 2.07-8.25.172.062.459.155.862.28.345.188.604.314.776.375zm-.259-9.562c-1.323-1.313-2.387-2.312-3.191-3.001l1.121-1.312c.229.188.574.502 1.035.938.977.813 1.725 1.469 2.243 1.969l-1.208 1.406zm4.83-.936c-.806 1.375-1.811 2.75-3.019 4.125-.345-.5-.72-.97-1.122-1.406 1.782-1.688 3.22-3.875 4.313-6.563l1.725.28c-.345.626-.662 1.281-.949 1.969h10.781v1.596h-11.729v-.001zm-3.967 9.467v-1.595h2.156l.604-5.719h11.471l-.086 5.719h2.07v1.595h-2.156c0 1.499-.058 2.905-.172 4.219h1.725v1.594h-1.725c-.116 2.249-1.266 3.343-3.45 3.281h-2.933c-.058-.188-.116-.469-.172-.844l-.259-.845c.919.062 1.897.095 2.933.095 1.38.062 2.126-.501 2.242-1.688h-10.954l.604-5.812h-1.898zm12.334 4.219c.057-.437.086-1.125.086-2.063.057-.998.086-1.719.086-2.156h-8.884l-.517 4.22h9.229v-.001zm-8.108-9.936l-.431 4.125h8.711v-4.125h-8.28zm2.341-31.25v-1.688h2.243v-6.375h1.639v6.375h2.156v1.688h-2.156v8.719l2.674-.844c0 .438.028 1.03.086 1.78-.576.188-1.639.501-3.191.938-1.668.562-2.876.906-3.623 1.031l-.345-1.688 2.76-.75v-9.188h-2.243v.002zm2.144 40.81c-.172-.124-.431-.342-.776-.655-.69-.624-1.265-1.125-1.725-1.5l.862-1.03c.69.5 1.553 1.188 2.587 2.062l-.948 1.123zm.259-5.905c-.806-.812-1.639-1.53-2.501-2.155l.862-1.031c.69.501 1.552 1.188 2.587 2.062l-.948 1.124zm8.726-67.562c-2.301 1.75-4.888 3.469-7.763 5.156l-.259-.562c-.23-.438-.431-.781-.604-1.031 2.644-1.438 5.117-3.125 7.417-5.062l1.209 1.499zm-5.865 6.375v-1.781h14.921v1.781h-6.555v5.812h8.797v1.594h-19.406v-1.594h8.884v-5.812h-6.641zm-2.157-6.469v-4.594h9.143c-.23-.875-.518-1.718-.863-2.531l1.898-.375c.114.313.287.813.517 1.5.173.563.315.97.432 1.219l-.69.188h8.884v4.594h-1.811v-2.813h-15.784v2.813l-1.726-.001zm12.936 39.312c-.403.063-.69.094-.862.094-.058-.624-.172-1.219-.345-1.78h1.466c.863.062 1.294-.53 1.294-1.781.115-1.999.172-3.656.172-4.969l-3.45 1.312v9.938h-1.725v-9.375l-3.277 1.125v8.625c-.116 1.438.604 2.094 2.156 1.97h4.571c1.553.062 2.386-.438 2.501-1.5.057-.312.143-.874.259-1.688.114-.624.201-1.062.259-1.312.518.251 1.035.469 1.552.656 0 .188-.029.438-.086.75-.116 1.125-.259 1.969-.432 2.53-.345 1.624-1.524 2.405-3.536 2.345h-5.692c-2.243.062-3.307-1-3.191-3.188v-8.531l-1.639.563-.259-1.783 1.897-.656v-5.344h1.639v4.781l3.277-1.125v-6.375h1.725v5.812l5.088-1.781c0 2.002-.086 4.471-.259 7.406.057 2.188-.69 3.251-2.242 3.188-.171.063-.459.093-.861.093zm1.005 37.439c-1.783.873-3.221 1.529-4.313 1.968-.058-.063-.116-.188-.172-.374-.116-.251-.345-.626-.69-1.125 2.415-.876 4.6-1.844 6.555-2.906l.949 1.406c-.576.248-1.352.591-2.329 1.031zm-3.019-12.376v-6.845h16.56v6.845h-7.676l.604 1.78h9.143v1.406h-20.7v-1.406h9.66c-.058-.188-.145-.5-.259-.938-.116-.313-.202-.53-.259-.656l1.035-.188h-8.108v.002zm8.053-59.124c-2.646-1.875-5.175-3.594-7.59-5.156l.949-1.406c2.76 1.688 5.29 3.313 7.59 4.875l-.949 1.687zm-7.449 68.405v-4.5h15.438v4.5h-6.555v2.625c0 1.562-.776 2.374-2.329 2.438h-2.329c0-.063-.029-.188-.086-.374 0-.251-.086-.721-.259-1.406.632.062 1.293.094 1.983.094.977 0 1.437-.345 1.38-1.031v-2.344l-7.243-.002zm1.035-14.813v1.594h13.196v-1.594h-13.196zm0 2.624v1.688h13.196v-1.688h-13.196zm.603 8.908v1.969h12.075v-1.969h-12.075zm7.528-37.624v-1.875h9.057c.115-1.438.172-3.5.172-6.188h1.897c0 1.5-.058 3.563-.172 6.188h9.143v1.875h-9.056c.805 5.75 3.938 9.72 9.401 11.905-.575.812-1.006 1.438-1.293 1.875-5.002-2.374-8.021-6-9.056-10.875-.806 4.751-3.795 8.501-8.97 11.25l-1.294-1.688c5.693-2.874 8.711-7.031 9.057-12.47h-8.886v.003zm7.997 45.686c-2.531-1.188-4.687-2.063-6.469-2.625l.776-1.313c.919.314 2.156.783 3.708 1.406 1.208.376 2.157.688 2.847.938l-.862 1.594zm-4.376-63.53v-17.344h1.726v17.344h-1.726zm3.537-17.813c-.518-.688-1.294-1.688-2.329-3l-.345-.375 1.38-1.125c.977.938 1.926 2.001 2.846 3.188l-1.552 1.312zm1.467 13.313v-11.719h8.883v11.719h-8.883zm11.126 4.406h-3.364v-.281c-.058-.375-.172-.906-.345-1.594h1.38c.632.062 1.149.094 1.552.094 1.322.062 1.954-.562 1.897-1.875v-15.562h-10.695v-1.782h12.42v17.719c.058 2.124-.891 3.219-2.845 3.281zm-9.574-14.532v3.47h5.692v-3.47h-5.692zm0 5.063v3.375h5.692v-3.375h-5.692zm6.687 72.905c-1.841-.187-2.876-1.28-3.105-3.28.172-2.123 1.208-3.281 3.105-3.468 1.954.187 3.019 1.345 3.191 3.468-.173 1.998-1.237 3.093-3.191 3.28zm0-5.343c-1.093.126-1.697.813-1.811 2.062.114 1.063.718 1.655 1.811 1.782 1.149-.127 1.782-.719 1.897-1.782-.116-1.25-.748-1.936-1.897-2.062zm8.498-31.531v-1.595h7.676v-1.969h1.725v1.969h7.676v1.595h-7.676v3h9.401v1.688h-20.613v-1.688h9.487v-3h-7.676zm-.949-14.063v-1.594h10.867v1.594h-2.156v3.75h2.846v1.594h-2.846v4.781h-1.552v-4.781h-3.45c-.116 2.126-1.006 3.97-2.673 5.531-.403-.375-.834-.75-1.294-1.125 1.495-1.313 2.271-2.78 2.329-4.406h-2.846v-1.594h3.019v-3.75h-2.244zm3.795 2.813v.938h3.364v-3.75h-3.364v2.812zm4.739-19.25c0 2.188-.748 3.812-2.243 4.875l-.776-.844c1.035-.812 1.581-2.031 1.639-3.656h-1.466v-3.094h2.846v2.719zm4.145 22.906v-7.688h1.466v7.688h-1.466zm3.622 3.937h-2.847c0-.188-.058-.438-.172-.75-.058-.438-.116-.78-.172-1.031.345.063 1.149.094 2.415.094 1.091.126 1.581-.405 1.466-1.594v-9.469h1.552v9.844c.057 1.939-.69 2.906-2.242 2.906zm18.538 7.407v-1.688h-8.884v-17.063h-1.984v18.75h10.868v.001zm-5.001-35.093c-.346 1.563-1.035 3.188-2.07 4.875l-1.38-1.125c.919-1.438 1.523-2.874 1.812-4.312.287-1.374.431-3.469.431-6.281v-8.157h8.28c-.23-.75-.519-1.5-.863-2.25l1.896-.281c.115.25.346.813.69 1.688l.259.844h7.16v5.625h-15.699v2.438c.001 3.061-.171 5.374-.516 6.936zm.948-5.25v-1.594h7.417l-.26-1.125c-.115-.312-.202-.563-.259-.75l1.812-.281.518 2.157h7.246v1.594h-10.955c0 .876-.03 1.656-.086 2.345h8.885c0 .625-.058 1.75-.173 3.375-.058.375-.086.625-.086.75-.116 2.123-1.207 3.188-3.278 3.188h-3.19c0-.126-.029-.345-.086-.656l-.26-1.125c.806.062 1.812.094 3.02.094 1.38.062 2.099-.529 2.156-1.78v-1.031c.057-.624.086-1.063.086-1.313h-7.332c-.172 2.438-1.726 4.595-4.657 6.47-.23-.313-.633-.782-1.208-1.406 1.839-1.188 3.019-2.344 3.536-3.469.632-1.125.949-2.938.949-5.438h-3.795v-.005zm-.431-8.157v2.531h13.974v-2.531h-13.974zm10.948 46.812h10.954v1.688h-12.938v-18.75h12.42v1.78h-10.437v6.375h9.833v1.875h-9.833l.001 7.032zm10.348-28.53v-17.344h1.726v17.344h-1.726zm3.536-17.813c-.518-.688-1.294-1.688-2.329-3l-.345-.375 1.38-1.125c.978.938 1.926 2.001 2.847 3.188l-1.553 1.312zm1.466 13.313v-11.719h8.885v11.719h-8.885zm14.748 25.344c.114 6.375-2.703 9.5-8.452 9.375h-5.864v-18.75h6.037c5.346.186 8.106 3.312 8.279 9.375zm-3.621-20.938h-3.363v-.281c-.059-.375-.174-.906-.346-1.594h1.38c.633.062 1.149.094 1.554.094 1.32.062 1.954-.562 1.896-1.875v-15.562h-10.694v-1.782h12.42v17.719c.055 2.124-.894 3.219-2.847 3.281zm-9.575-14.532v3.47h5.691v-3.47h-5.691zm0 5.063v3.375h5.691v-3.375h-5.691zm11.212 30.499c-.173-4.875-2.302-7.406-6.384-7.595h-4.054v15.281h3.968c4.371-.06 6.527-2.623 6.47-7.686zm9.317-.937c.172 5.501-.72 9.5-2.674 12-.173-.126-.403-.344-.689-.655-.288-.313-.519-.531-.689-.656.977-1.438 1.608-2.906 1.897-4.406.286-1.438.431-3.656.431-6.656v-8.812h17.595v5.906h-15.869l-.002 3.279zm6.467-30.781c-.806 1.813-2.501 3.625-5.088 5.438-.115-.125-.316-.375-.604-.75-.345-.375-.575-.655-.689-.844 3.969-2.063 5.835-5.095 5.606-9.094v-.375h-6.124v16.219h-1.812v-18.094h7.937c.057-1.125.086-2.438.086-3.938h1.812v3.938h7.677v14.813c0 1.999-.948 3.03-2.847 3.094h-3.449c0-.062-.03-.22-.088-.469 0-.251-.086-.782-.258-1.594.805.062 1.839.094 3.104.094 1.208.062 1.78-.469 1.725-1.594v-12.469h-5.951c-.058.126-.086.25-.086.375 0 1.313-.145 2.5-.432 3.563h.087c2.472 2.188 4.369 3.97 5.692 5.344l-1.294 1.406c-2.359-2.437-4.026-4.125-5.004-5.063zm-6.467 23.187v2.719h14.23v-2.719h-14.23zm1.38 9.189v-1.595h4.055c-.461-.874-1.035-1.718-1.727-2.53l1.554-.656c.689.938 1.294 1.845 1.812 2.719l-1.294.469h3.795c.229-.312.519-.812.862-1.5l1.035-1.688 1.639.562c-.115.188-.316.501-.604.938l-1.034 1.688h4.397v1.595h-3.449v3.188h4.484v1.5h-4.484v5.719h-1.639v-5.719h-4.658c-.114 2.312-1.323 4.28-3.622 5.906-.115-.126-.316-.313-.604-.563-.346-.312-.576-.532-.69-.655 2.07-1.377 3.134-2.938 3.191-4.688h-3.968v-1.5h4.054v-3.1879999999999997h-3.105v-.002zm4.83 2.717v.469h4.571v-3.188h-4.571v2.719zM59.188 80.605c-.494 2.625-1.576 5.468-3.249 8.531-.199-.221-.494-.603-.886-1.148-1.084-1.205-1.871-2.025-2.362-2.461 2.362-3.389 3.444-8.967 3.249-16.734v-10.992h11.37v-8.039h4.282v2.461h14.47v3.445h-14.47v2.133h16.833l-.886 7.055c-1.28-.328-2.658-.492-4.134-.492l.443-2.953h-23.774v7.547c0 5.141-.295 9.022-.886 11.647zm.295 7.219v-3.773h8.121v-10.336h4.135v10.336h3.396v-10.336h4.134v10.336h8.859v3.773h-28.645zm4.283-5.578c-1.28-2.297-2.51-4.484-3.691-6.563l3.249-1.969c1.573 2.407 2.805 4.54 3.691 6.398l-3.249 2.134zm-2.363-14.273l-.295-3.117 6.349-.492v-2.134h4.134v1.969l9.302-.656.148 2.953-9.45.82c-.099 1.422.591 2.079 2.067 1.969h6.792c1.181 0 1.869-.492 2.067-1.477.097-.218.147-.6.147-1.148.097-.656.148-1.092.148-1.313l1.771.492c1.082.22 1.82.384 2.215.492v.328c-.198 1.205-.395 2.079-.59 2.625-.494 2.189-2.019 3.227-4.578 3.117h-9.745c-3.052.11-4.529-1.42-4.43-4.594v-.327l-6.052.493zm23.477 11.648c-.886 1.205-1.527 2.133-1.919 2.789l-3.101-2.461c0-.108.049-.218.148-.328 1.772-2.625 3.05-4.648 3.839-6.07l3.396 2.297c-.494.766-1.281 2.025-2.363 3.773zm6.352-17.719v-4.43h3.544v-7.382h4.134v7.383h3.248v4.43h-3.248v6.727l3.396-.82v4.594l-3.396.82v10.172c0 3.281-1.329 4.976-3.987 5.086-.886.107-2.019.164-3.396.164-.199-1.641-.443-3.117-.738-4.43h2.215c1.181 0 1.772-.656 1.772-1.969v-7.875l-3.839 1.148-.295-5.086c.492-.108 1.182-.272 2.067-.492.983-.108 1.673-.218 2.067-.328v-7.711l-3.544-.001zm14.766 22.641c-.494.546-.886.928-1.181 1.148l-2.363-3.445c1.082-1.42 1.574-2.953 1.477-4.594v-25.43h4.134v24.445c.097-.108.245-.218.443-.328 1.869-1.859 3.248-3.225 4.134-4.102.097 1.533.344 3.281.738 5.25-2.167 2.079-4.282 4.102-6.349 6.07-.198.222-.542.55-1.033.986zm17.866 3.609c-1.871-2.846-3.396-5.194-4.577-7.055-1.28 2.407-3.595 5.14-6.94 8.203l-1.181-1.313-2.067-2.297c6.003-4.374 9.056-10.172 9.155-17.391.295-4.156.443-10.008.443-17.555h4.43c-.198 8.203-.395 14.219-.59 18.047-.199 2.735-.591 5.25-1.182 7.547.983 1.533 2.363 3.609 4.135 6.234.688 1.094 1.181 1.805 1.477 2.133l-3.103 3.447zm-10.779-24.937c-.789-2.187-2.019-5.468-3.691-9.844l-.295-.656 3.691-1.641c1.477 3.391 2.854 6.783 4.134 10.172l-3.839 1.969zm16.836 25.758v-37.243h12.403v4.266l-2.806 10.336c2.263 2.735 3.346 5.962 3.249 9.68.097 4.266-1.576 6.619-5.02 7.055-.789.11-1.625.164-2.51.164-.099-.984-.395-2.405-.886-4.266-.099-.218-.147-.382-.147-.492h2.362c1.377 0 2.067-1.039 2.067-3.117 0-2.733-1.084-5.578-3.249-8.531l2.658-10.828h-3.986v32.977l-4.135-.001zm14.47 0v-36.75h18.31v36.75h-4.43v-2.789h-9.45v2.789h-4.43zm4.43-32.321v10.336h9.45v-10.336h-9.45zm0 14.766v10.664h9.45v-10.664h-9.45zm49.605-2.297c-.295-.328-.689-.875-1.181-1.641l-1.329-1.477c-2.266.11-5.71.22-10.336.328-5.12.22-8.811.384-11.074.492-2.363.22-4.134.438-5.316.656l-2.215-4.594c1.377-.764 2.806-1.749 4.282-2.953 3.444-3.171 6.645-6.617 9.598-10.336l4.873 2.297c-3.543 3.83-7.138 7.329-10.779 10.5 1.082 0 2.902-.054 5.463-.164 5.216-.218 9.155-.382 11.813-.492l-3.987-4.594 3.249-2.625c4.134 4.486 7.678 8.367 10.631 11.648l-3.692 2.955zm-28.054 20.016v-18.539h27.611v18.539h-4.577v-2.461h-18.457v2.461h-4.577zm4.577-14.11v7.547h18.457v-7.547h-18.457zm47.105-3.281c-1.181 2.517-3.742 5.306-7.678 8.367-.198-.328-.789-1.092-1.772-2.297-.59-.764-1.033-1.313-1.329-1.641v12.469h-4.577v-31.992h13.289v-6.562h4.578v6.563h12.846v25.102c.097 4.155-1.772 6.342-5.611 6.563-.689 0-1.871.054-3.543.164h-2.953c0-.11-.051-.328-.148-.656-.198-1.205-.494-2.625-.886-4.266 1.869.11 3.691.164 5.463.164 2.263.22 3.297-.875 3.101-3.281v-19.033h-8.417c-.099 1.641-.346 3.609-.738 5.906 3.149 2.735 6.202 5.524 9.155 8.367l-3.396 3.609c-.789-.875-2.019-2.133-3.691-3.773-1.676-1.748-2.906-3.007-3.693-3.773zm-10.779-10.336v14.766c5.906-3.5 8.76-8.421 8.564-14.766h-8.564zm30.863 10.172v-3.938h2.067v-13.781h3.543c0-.218.049-.492.148-.82.196-.875.392-1.969.59-3.281l4.135.492c-.1.548-.395 1.369-.886 2.461-.099.548-.198.93-.295 1.148h4.873v8.695c3.936-3.281 6.939-7.547 9.007-12.797l4.43.492-.738 1.805c2.658 4.594 5.659 8.039 9.007 10.336-.59 1.422-1.181 2.953-1.771 4.594-.69-.656-1.428-1.313-2.215-1.969 0 .876-.05 2.297-.147 4.266 0 1.969-.051 3.337-.147 4.102-.099 3.501-1.576 5.306-4.43 5.414-.789.11-2.118.164-3.987.164l-.443-2.461c-.099-.764-.199-1.367-.295-1.805 1.181.11 2.215.164 3.101.164 1.477 0 2.215-.764 2.215-2.297l.148-4.102h-6.792v12.961c-.099 1.861.738 2.735 2.51 2.625h4.577c1.477 0 2.363-.764 2.658-2.297 0-.328.048-.875.147-1.641.196-1.313.344-2.351.443-3.117.591.22 1.377.492 2.363.82.688.328 1.181.548 1.477.656-.199 1.533-.494 3.337-.886 5.414-.494 2.843-2.314 4.209-5.463 4.102h-6.35c-3.742.107-5.563-1.805-5.463-5.742v-16.241l-1.625 1.477c-.395-1.203-.837-2.297-1.329-3.281v20.016c.097 2.732-1.084 4.155-3.544 4.266h-3.544c-.295-1.095-.59-2.407-.886-3.938h2.806c1.278.107 1.869-.436 1.771-1.641v-11.32h-5.168c0 7.439-.937 13.343-2.805 17.719-.199-.221-.542-.549-1.034-.984-.295-.328-1.034-1.041-2.215-2.133 1.673-3.281 2.51-8.147 2.51-14.602l-2.068-.001zm5.611-13.781v9.844h5.168v-9.844h-5.168zm2.215 8.039c-.59-1.641-1.329-3.335-2.215-5.086l2.51-1.313c.886 1.641 1.673 3.281 2.363 4.922l-2.658 1.477zm0 14.601c-.198-.656-.542-1.584-1.033-2.789-.494-1.203-.886-2.133-1.182-2.789l2.658-1.477.59 1.313c.688 1.861 1.23 3.281 1.625 4.266l-2.658 1.476zm23.182-16.078c-2.362-2.515-4.381-5.358-6.054-8.531-1.675 3.173-3.742 6.016-6.202 8.531h12.256zm13.882 8.039c-.099 6.563-1.428 12.084-3.986 16.57l-1.772-1.313c-.789-.549-1.38-.984-1.772-1.313 2.459-3.938 3.592-10.172 3.396-18.703v-14.108h13.289l-.443-1.477c-.295-.875-.542-1.477-.738-1.805l5.315-.492c0 .22.148.712.443 1.477.295.984.491 1.75.59 2.297h12.255v11.32h-26.431v3.445h11.37c-.199-.875-.443-1.749-.738-2.625l4.873-.492.738 3.117h11.813v4.102h-17.868v2.953h14.766c0 .548-.051 1.422-.146 2.625-.1 2.189-.198 3.666-.296 4.43-.197 4.045-2.066 6.014-5.61 5.906h-6.054c-.395-1.533-.738-2.899-1.034-4.102 1.377.11 3.149.164 5.315.164 2.067 0 3.101-.82 3.101-2.461v-1.148c.097-.764.146-1.313.146-1.641h-10.779c-.494 3.501-3.004 6.944-7.531 10.336-1.181-1.533-2.215-2.789-3.101-3.773 5.021-3.061 7.332-7.491 6.94-13.289h-6.051zm.148-14.765v3.445h22.148v-3.445h-22.148z"/><path fill="#9BF4FE" d="M268.787 27.13c-.64-.687-1.599-1.594-2.877-2.719.116.126-.03 0-.436-.375l1.657-1.875c.523.438 1.278 1.063 2.267 1.875.523.438.901.75 1.134.938l-1.745 2.156zm.96 4.687c-.756 2.938-1.251 4.999-1.482 6.188l-2.528-.75c.464-1.688 1.133-4.438 2.005-8.25.29.063.697.188 1.221.375.58.188.987.344 1.22.469-.118.438-.262 1.093-.436 1.968zm-.436-10.968c-.349-.375-.902-.905-1.657-1.594-.697-.687-1.25-1.187-1.657-1.5l1.57-1.875c.349.313.987.844 1.918 1.594.697.563 1.221 1 1.569 1.313l-1.743 2.062zm2.615 3c-.175-.249-.436-.593-.785-1.031-.349-.437-.641-.75-.872-.938 1.859-1.812 3.254-3.938 4.185-6.375l2.703.281c-.117.188-.262.469-.436.844-.175.375-.32.656-.436.844h9.939v2.25h-11.16c-.349.563-.728 1.125-1.133 1.688h11.073c-.059.313-.087 1.219-.087 2.719-.059 1.188-.087 2.125-.087 2.813h1.831v2.25h-1.831c-.058 1.188-.087 2.313-.087 3.375h1.482v2.156h-1.569c-.117 2.187-1.279 3.249-3.487 3.188h-3.487c-.059-.313-.233-.782-.523-1.406-.059-.313-.117-.532-.174-.656h3.4c1.104.062 1.714-.313 1.831-1.125h-10.637l.523-5.531h-1.744v-2.25h2.005l.349-4.031-.786.935zm10.375 8.718c.057-.688.087-1.812.087-3.375h-7.847l-.349 3.375h4.621c-.64-.624-1.395-1.25-2.267-1.875l1.221-1.5c.988.688 1.888 1.345 2.703 1.969l-1.22 1.406h3.051zm-7.236-8.906l-.349 3.281h4.359c-.349-.312-.872-.75-1.569-1.313-.349-.312-.61-.53-.784-.656l1.308-1.313-2.965.001zm7.411 3.281v-3.281h-4.272c.406.25.959.656 1.657 1.219.349.313.61.532.785.656l-1.221 1.406h3.051zm7.82 9.938v-2.719h7.847v-18.281h2.964v6.563h8.37v2.813h-8.37v8.906h9.939v2.719l-20.75-.001zm24.551-18v-1.781h9.068c0-.188-.059-.437-.175-.75-.06-.312-.117-.53-.174-.656l2.877-.188.349 1.594h8.806v1.781h-20.751zm19.792 17.812c-.059.188-.116.312-.174.375-2.965-1-4.913-2.499-5.842-4.5-.292.063-.523.157-.698.281v.656c.059.375.088.656.088.844.115 2.375-1.047 3.563-3.486 3.563h-2.79c-.176-.375-.379-1-.61-1.875h2.79c1.162.062 1.714-.438 1.656-1.5v-.656c-2.268 1.375-5.553 2.687-9.853 3.938-.349-.813-.641-1.406-.872-1.781 3.836-.626 7.324-1.813 10.462-3.563 0-.125-.059-.281-.174-.469-.059-.188-.117-.312-.175-.375-2.151 1.251-5.144 2.407-8.979 3.469-.292-.687-.61-1.28-.959-1.781 3.545-.624 6.626-1.562 9.241-2.813l-.522-.563c-2.21.813-4.795 1.532-7.76 2.156-.407-.875-.697-1.437-.872-1.688 3.254-.437 5.928-1.031 8.021-1.781h-4.446v-1.5h13.078v1.5h-4.708c-.349.126-.728.281-1.134.469.523.563.959 1.125 1.308 1.688 2.324-.938 4.187-1.749 5.58-2.438l1.309 1.875c-.466.25-1.163.563-2.092.938l-1.31.563c.93 1.626 2.646 2.751 5.146 3.375-.295.25-.7.78-1.223 1.593zm-19.443-8.625v-3.563h20.053v3.563h-2.528v-1.969h-15.083v1.969h-2.442zm2.267-4.5v-3.844h15.521v3.844h-15.521zm2.528-2.437v1.031h10.463v-1.031h-10.463zm19.93 2.062v-5.156h8.457c-.174-.75-.407-1.468-.697-2.156l3.14-.281c.23.876.465 1.688.696 2.438h7.936v5.063h-2.441l.35 2.063c-1.688.188-4.359.407-8.021.656v2.813l10.463-.844.175 2.531-10.638.938v1.969c-.059 1.251.465 1.844 1.569 1.781h3.924c1.046.063 1.656-.406 1.831-1.406 0-.062.028-.155.087-.281.058-.687.116-1.343.175-1.969.755.313 1.626.595 2.615.844-.059.876-.232 1.907-.522 3.094-.35 1.437-1.481 2.156-3.399 2.156h-5.755c-2.21 0-3.313-1.188-3.313-3.563v-2.438l-6.888.563-.174-2.625 7.062-.563v-2.813l-4.97.375-.349-2.625c6.451-.312 11.652-.687 15.606-1.125v-1.969h-14.212v2.531l-2.707-.001z"/><path fill="#F9FF63" d="M326.119 81.507c-.773 2.039-1.58 3.89-2.423 5.551l-2.317-.906c.842-1.737 1.648-3.586 2.423-5.551l2.317.906zm-3.793-13.593v-2.719h4.741c-.071-.377-.247-.944-.526-1.699-.071-.301-.142-.528-.211-.68l3.266-.34c.352 1.132.597 2.039.737 2.719h4.214v2.719h-3.477l2.634 1.019-1.791 2.946h3.161v2.719h-4.952v2.379h4.53v2.719h-4.53v6.23c.069 2.114-.913 3.209-2.949 3.285-.492.075-1.335.113-2.528.113-.142-1.285-.353-2.265-.633-2.945h1.898c.912.074 1.334-.34 1.265-1.246v-5.438h-4.847v-2.719h4.847v-2.379h-5.479v-2.719h3.371c-.563-.981-1.158-1.926-1.791-2.832l2.002-1.133-2.952.001zm4.53 1.812c.351.529.633.945.843 1.246l-1.58.906h2.95c.351-.604.807-1.473 1.368-2.605l.633-1.359h-5.372c.28.453.666 1.058 1.158 1.812zm5.9 16.086l-2.212-4.191 2.212-1.133c.772 1.36 1.51 2.682 2.213 3.965.701-2.114 1.055-5.098 1.055-8.95v-10.875c3.582-.227 6.848-.604 9.798-1.133l.947 2.945c-2.671.453-5.268.792-7.797 1.02v4.871h8.219v3.059h-2.635v13.933h-2.845v-13.933h-2.739v.339c.142 5.891-.808 10.498-2.844 13.821-.282-.152-.703-.454-1.265-.906-.632-.379-1.09-.68-1.369-.907.14-.227.314-.605.525-1.132.423-.754.737-1.397.948-1.926l-2.211 1.133zm16.122-12.801v-3.285h2.106v-7.023h2.845v7.023h1.791v3.285h-1.791v9.063l2.423-.68c-.07 1.132-.07 2.266 0 3.398-.632.227-1.616.529-2.949.906-1.827.454-3.23.831-4.214 1.133l-.527-3.285c.772-.227 1.58-.453 2.424-.68v-9.855h-2.108zm7.374 3.059v-10.422h3.793c-.142-.227-.314-.528-.526-.906-.491-.831-.843-1.434-1.054-1.813l3.16-.453 1.791 3.172h2.739c.491-.906 1.054-2 1.686-3.285l3.268.68c-.282.453-.738 1.133-1.37 2.039-.143.226-.247.416-.316.566h3.898v10.422h-17.069zm1.054 13.594v-12.008h14.854v12.008h-2.949v-1.246h-8.85v1.246h-3.055zm1.581-21.637v5.551h4.636v-5.551h-4.636zm2.317 4.871c-.492-1.057-1.09-2.114-1.791-3.172l1.58-1.02c.351.454.843 1.285 1.475 2.493.211.302.352.529.422.68l-1.686 1.019zm-.843 7.137v2.039h8.85v-2.039h-8.85zm0 4.191v2.04h8.85v-2.04h-8.85zm10.325-16.199h-4.636v5.551h4.636v-5.551zm-1.686 3.738c-.422.529-.703.945-.843 1.246l-1.58-1.02c.14-.227.314-.528.526-.906.7-1.057 1.192-1.85 1.475-2.379l1.686 1.02-1.264 2.039z"/></svg>