<svg xmlns="http://www.w3.org/2000/svg" width="640" height="253" viewBox="0 0 640 253"><path fill="#fff" d="M433.364 30.64h4.422v4.922h-4.422v-4.922zm0 17.578v-4.686h4.422v4.686h-4.422zm-18.328-4.452v1.758c-.072 1.484.61 2.188 2.05 2.108h4.096c1.294.08 2.084-.586 2.372-1.992.146-.546.25-1.172.324-1.874h-8.842zm6.038-6.914h-6.038v3.75h6.038v-3.75zm0-6.798h-6.038v3.634h6.038v-3.634zm-9.38 6.798h-6.036v3.75h6.036v-3.75zm0-6.798h-6.036v3.634h6.036v-3.634zm15.418 14.414c-.146.938-.36 1.992-.648 3.164-.36 2.032-1.832 3.008-4.42 2.93h-6.144c-2.876.078-4.278-1.368-4.206-4.336v-2.46h-6.036v2.108h-3.344v-18.984h9.38v-3.516h3.342v3.516h9.38v15.352c.432.158 1.006.352 1.726.586.574.234.973.392 1.188.468-.076.236-.148.628-.218 1.172zm-36.334-13.124l-.214.586c.43 3.828 1.186 6.72 2.264 8.672 1.006-1.952 1.724-5.04 2.156-9.258h-4.206zm3.774 12.304c1.364 1.642 3.126 3.088 5.284 4.336-.72 1.172-1.332 2.304-1.834 3.398-2.156-1.718-3.918-3.36-5.282-4.922-1.366 1.718-3.2 3.438-5.498 5.158-.646-.938-1.332-1.798-2.05-2.578-4.6.39-8.374.82-11.32 1.288l-.321-3.398c1.726-.156 3.447-.274 5.176-.352v-3.868h-4.42v-3.046h4.42v-2.812h3.018v2.812h4.528v3.046h-4.528v3.634l4.854-.47-.108 2.11c1.868-1.482 3.378-2.93 4.528-4.336-1.15-2.108-1.979-4.608-2.48-7.5-.069.158-.214.392-.43.704-.288.468-.504.86-.647 1.172-.07-.312-.286-.704-.646-1.172-.072-.234-.146-.39-.216-.47l-1.727 1.056c-.287-.624-.609-1.21-.972-1.758-2.444.078-4.815.196-7.114.352-.216 0-.54.04-.972.116-.43.08-.79.158-1.078.234l-.97-2.694c.646-.47 1.147-1.014 1.51-1.642.718-1.172 1.51-2.578 2.372-4.218h-3.774v-3.046h12.725v3.046h-5.714c-.862 1.798-1.87 3.556-3.021 5.274 1.652 0 3.162-.078 4.528-.234l-1.294-2.462 2.264-1.288c.502.782 1.148 1.874 1.94 3.28.432.704.756 1.252.97 1.642 1.654-3.048 2.874-6.64 3.666-10.782l3.126.468-.646 2.462c-.218.86-.359 1.484-.434 1.874h7.656v3.282h-1.834c-.361 5-1.439 9.102-3.235 12.304zm-27.276-.82h-9.488v1.758h9.488v-1.758zm0-3.75h-9.488v1.64h9.488v-1.64zm3.126 8.204c.144 2.498-1.042 3.75-3.561 3.75h-1.508c-1.152.076-2.014.116-2.588.116-.072-.392-.216-1.016-.432-1.874-.072-.392-.146-.704-.219-.938.79.076 1.979.118 3.561.118 1.147.076 1.688-.392 1.618-1.408v-.468h-9.488v4.688h-3.021v-14.532h15.636l.002 10.548zm-18.974-2.11l2.156-1.876c.07.548.178 1.368.324 2.462.067.548.104.938.104 1.172-.357.312-.896.744-1.613 1.288-.792.546-1.332.976-1.618 1.29l-1.402 1.524-1.724-2.578c.573-.546.826-1.212.754-1.994v-10.428h-2.372v-3.282h5.392v12.422h-.001zm-4.528-19.688l2.478-1.64c1.294 1.484 2.516 3.086 3.666 4.804l-2.694 1.876c-1.078-1.718-2.23-3.4-3.45-5.04zm25.228 7.5v2.344h-19.084v-2.344h7.87v-1.64h-6.684v-1.992h6.684v-1.642h-7.222v-2.226h7.222v-2.11h3.128v2.11h7.546v2.226h-7.546v1.642h6.9v1.992h-6.9v1.64h8.086zm-44.528 13.712c-.069 1.094.576 1.6 1.942 1.522h3.772c1.294.078 2.05-.35 2.264-1.288.144-.546.252-1.29.324-2.226.571.234 1.472.626 2.693 1.17.145.08.25.118.324.118-.216 1.016-.432 1.836-.646 2.462-.435 1.64-1.801 2.42-4.099 2.342h-6.254c-2.3 0-3.45-1.094-3.45-3.28v-3.516h3.126l.004 2.696zm-4.096-1.992c-.576 1.484-1.438 3.318-2.588 5.506l-1.294-.702c-.576-.392-1.006-.664-1.294-.82.934-1.562 1.762-3.282 2.479-5.156l2.697 1.172zm15.632-9.728h-6.144v1.524h6.144v-1.524zm0-3.516h-6.144v1.642h6.144v-1.642zm-6.144 9.024c1.65 0 3.304-.038 4.958-.116l-1.292-1.408.43-.234h-4.096v1.758zm-3.128-5.508h-6.146v1.524h6.146v-1.524zm0-3.516h-6.146v1.642h6.146v-1.642zm14.448 11.602l-2.155 1.524c.216.392.538.938.97 1.64.646.938 1.078 1.602 1.294 1.992l-2.804 1.406c-.862-1.64-1.763-3.202-2.694-4.686l2.156-.938-1.079-1.172-8.086.118c.286.312.682.782 1.186 1.406l1.078 1.172-2.264 1.758c-.432-.626-1.044-1.446-1.834-2.462l-.646-.702 1.511-1.172c-3.952.156-7.942.234-11.968.234l-.322-2.696h11.212v-1.758h-9.272v-9.374h9.272v-1.524h-10.89v-2.578h10.89v-1.876h3.128v1.876h10.996v2.578h-10.996v1.524h9.271v9.374h-2.266c.502.47 1.22 1.172 2.156 2.11.932.938 1.652 1.68 2.156 2.226zm-34.07 2.93c-.072.938.288 1.368 1.08 1.29h.86c.79.078 1.222-.43 1.294-1.524v-.234c.216-1.718.358-3.164.432-4.336.864.312 1.868.702 3.02 1.172-.216 2.108-.432 3.79-.646 5.038-.36 2.11-1.616 3.124-3.772 3.048h-2.05c-2.372.076-3.522-1.096-3.45-3.516v-12.306h3.234l-.002 11.368zm-13.26 5.274h-3.126v-14.414l-.97 1.406c-.146.392-.648 1.172-1.51 2.344-.216-1.718-.432-3.32-.648-4.806 2.444-3.67 4.276-7.81 5.5-12.422l3.342 1.056c-.72 2.266-1.582 4.452-2.588 6.562v20.274zm11.428-24.844l2.048-2.226c.144.078.36.234.648.468 1.076.782 2.264 1.758 3.558 2.93l-2.156 2.578c-1.44-1.406-2.804-2.656-4.098-3.75zm-8.732 24.96l-2.48-2.694c3.88-3.906 5.892-8.828 6.038-14.766h-4.852v-3.282h4.958c.072-2.498.108-4.88.108-7.148h3.234c0 3.126-.036 5.508-.106 7.148h9.702v3.282h-9.812c-.214 7.032-2.478 12.852-6.79 17.46zm-17.898-7.382h-18.652v-3.398h18.652v3.398zm7.008-13.594h-18.22l-.216 3.516h17.142c-.144 3.672-.322 7.382-.538 11.132-.072 4.062-2.048 6.016-5.93 5.86-.72 0-1.762.038-3.126.118h-2.696c0-.158-.038-.352-.108-.586-.144-.782-.36-1.798-.646-3.048 1.148.08 2.91.118 5.282.118 2.516.158 3.736-.82 3.666-2.93.216-2.42.358-4.844.43-7.266h-17.25l1.08-13.946h3.45l-.216 3.634h17.896v3.398zm-31.912 12.54h-7.762v4.1h7.762v-4.1zm3.018 8.436h-3.018v-1.522h-7.762v1.522h-3.128v-11.484h13.908v11.484zm-10.134-22.5c1.006 1.798 2.12 3.164 3.342 4.102 1.51-1.172 2.732-2.538 3.666-4.102h-7.008zm-1.724 2.462c-.72.938-1.474 1.836-2.264 2.696l-1.618-2.228h-2.264v2.696c.79.548 1.724 1.33 2.802 2.344 2.3-.704 4.24-1.446 5.822-2.228-.934-.936-1.762-2.03-2.478-3.28zm7.87 3.28c1.652.704 3.667 1.29 6.036 1.758-.072.314-.214.822-.43 1.524-.216.86-.396 1.486-.54 1.876-3.45-.938-6.074-1.992-7.87-3.164-2.228 1.25-4.924 2.342-8.086 3.28-.144-.234-.216-.468-.216-.702l-.862 1.406c-.646-.78-1.33-1.524-2.048-2.228v13.008h-3.018v-12.538c-.72 2.188-1.618 4.18-2.696 5.976-.072-.468-.18-1.248-.324-2.344-.216-1.092-.36-1.874-.43-2.344 1.364-2.342 2.514-5.116 3.45-8.32h-2.912v-3.046h2.912v-5.508h3.018v5.508h2.696v2.226c2.01-2.264 3.592-4.842 4.742-7.734l3.344.352c-.362.782-.756 1.602-1.186 2.46h9.056v2.93c-1.294 2.188-2.84 4.064-4.636 5.624zm-25.984 16.29h-3.342v-15.586h3.342v15.586zm-10.78-12.07v-3.634h3.234v3.868c.286 5.548-1.186 9.686-4.42 12.422-.216-.158-.576-.468-1.078-.938l-1.618-1.406c2.804-2.11 4.096-5.546 3.882-10.312zm-5.068 12.422h-3.126v-14.298c-.288.704-.828 1.682-1.618 2.93l-.646 1.056c-.288-1.718-.54-3.32-.756-4.806 2.3-3.906 3.99-8.162 5.068-12.774l3.234.938c-.576 2.11-1.294 4.142-2.156 6.094v20.86zm20.162-18.398c-.504 1.094-.972 2.226-1.402 3.398-3.522-2.266-6.218-5.04-8.086-8.32-1.726 2.97-4.458 5.82-8.194 8.554-.146-.312-.36-.742-.648-1.29-.36-.858-.682-1.522-.97-1.992 4.026-2.578 6.828-5.818 8.41-9.726l3.666.234c-.072.158-.18.352-.324.586l-.324.704c2.084 3.438 4.708 6.054 7.872 7.852zM237.2 109.484v-1.406h165.6v1.406h-165.6zm156.976-13.358c1.508-1.172 3.088-2.618 4.742-4.336l2.05 1.992c-2.014 2.106-3.92 3.905-5.714 5.39.574 1.721 1.364 2.578 2.372 2.578.502 0 .896-.428 1.184-1.29.219-.937.471-2.108.759-3.514.142.077.394.194.754.35.859.548 1.472.9 1.834 1.056-.218 1.406-.504 2.656-.864 3.75-.576 2.03-1.796 3.047-3.664 3.047-2.086.078-3.774-1.25-5.068-3.983-1.798 1.015-3.846 2.03-6.146 3.046l-1.188-2.227c-1.438.312-3.771.779-7.008 1.406-.79.155-1.397.273-1.832.353l-.54-3.164c.36-.076 1.042-.194 2.052-.353 3.448-.547 5.931-.977 7.438-1.287 0 .312-.036.701-.108 1.172v1.054c2.372-1.015 4.423-2.03 6.146-3.046-.576-2.11-.938-3.868-1.078-5.273l-4.204.586-.432-3.049 4.204-.586c-.072-1.092-.183-2.146-.322-3.164l-3.344.354-.214-1.875c-2.591 4.377-4.425 7.383-5.5 9.021 1.438-.232 3.054-.428 4.852-.586 0 .314-.036.782-.108 1.408 0 .626-.033 1.094-.105 1.406-3.664.468-6.29.859-7.87 1.172l-.97-2.696c.79-.624 1.438-1.328 1.938-2.11.072-.074.183-.271.324-.586.502-.701 1.078-1.678 1.726-2.93-1.363 0-2.588.118-3.665.354l-.86-2.932c.502-.468.97-1.054 1.397-1.756 1.15-2.11 2.336-4.648 3.561-7.618l3.128 1.054c-.792 1.486-1.906 3.516-3.344 6.094-.576.938-.973 1.602-1.188 1.991l2.696-.115 1.51-2.931 2.372 1.173v-.471l3.559-.469c-.146-2.03-.217-4.062-.217-6.094h3.126c0 2.11.07 4.024.217 5.742l4.638-.586c-.576-.546-1.477-1.328-2.696-2.344-.36-.234-.612-.428-.754-.586l1.938-2.108c.359.234.861.626 1.512 1.172.934.626 1.614 1.132 2.048 1.521l-1.94 2.344 3.561-.468.32 2.929-8.517 1.055c0 .393.036.9.108 1.523 0 .781.032 1.328.105 1.641l8.732-1.406.322 3.046-8.626 1.408c.213 1.407.499 2.657.861 3.751zm-19.838 7.733l-3.234 1.055c-.432-1.25-1.113-2.93-2.05-5.038-.214-.392-.357-.704-.43-.938l3.018-.703c.934 1.797 1.834 3.673 2.696 5.624zm-8.086-2.461c.43 1.094.754 1.951.97 2.576l-3.231.704c-.504-1.72-1.116-3.554-1.834-5.508l3.128-.468c.211.628.535 1.525.967 2.696zm-5.822 3.047l-3.231.469c-.074-.234-.146-.548-.216-.938-.435-1.719-.828-3.279-1.188-4.687l3.02-.353 1.615 5.509zm-6.362-5.155c-.36 1.25-1.008 3.006-1.94 5.272-.144.39-.252.662-.324.818l-3.126-.818c1.006-2.108 1.76-4.062 2.267-5.858l3.123.586zm1.294-5.626c.069 2.502-.862 3.79-2.805 3.868h-3.02v-.353c-.072-.705-.214-1.601-.43-2.695.43.08 1.109.117 2.048.117.859 0 1.294-.471 1.294-1.406v-2.344l-3.561.701-.432-3.279c1.364-.155 2.696-.353 3.99-.586v-3.517h-3.446v-3.048h3.45v-3.75h2.91v3.75h2.693v3.048h-2.693v2.931h.216c.79-.078 1.618-.233 2.479-.471v3.164l-2.693.471v3.399zm19.192-1.992c-.071.626-.182 1.564-.321 2.812-.435 2.031-1.366 3.049-2.807 3.049-1.87-.078-2.948-1.563-3.231-4.454-.072-.858-.146-1.952-.219-3.282v-5.742h-2.802c0 1.486-.216 3.244-.646 5.274.285.233.682.51 1.186.819.79.549 1.402.979 1.834 1.291l-1.618 3.045c-.859-.701-1.724-1.365-2.588-1.991-1.078 1.954-2.586 3.828-4.525 5.626-.219-.236-.576-.586-1.078-1.057l-1.188-1.287c2.013-1.644 3.45-3.358 4.313-5.156l-2.586-1.876 1.508-2.46c.216.156.502.312.864.468.142.158.535.431 1.186.819.286-1.092.43-2.264.43-3.516h-3.018v-3.047h3.126v-3.634h2.912v3.634h5.604v7.618c.07 1.718.145 3.086.217 4.101.144.861.357 1.33.646 1.405.358 0 .574-.39.646-1.172.145-.937.253-2.187.322-3.75l1.618.704c.216.078.358.118.43.118-.073.393-.145.937-.215 1.641zm-52.182 2.46c-.216-.39-.504-1.014-.862-1.874-.216-.39-.359-.703-.432-.938 4.528-.78 8.122-1.992 10.782-3.633h-6.254v-2.578h16.277v2.578h-5.604c-.938.547-1.834 1.133-2.696 1.758.79.937 1.438 1.914 1.94 2.931 2.588-1.172 5.138-2.538 7.653-4.103l1.616 2.693c-.36.158-.934.471-1.724.938-1.15.549-2.017.979-2.588 1.291 1.075 3.514 3.16 6.094 6.254 7.732-.146.234-.435.586-.862 1.055-.504.705-.9 1.25-1.187 1.643-3.382-2.188-5.607-5.234-6.688-9.143l-1.399.586c.432 1.485.646 3.009.646 4.569.07 3.595-1.33 5.394-4.204 5.394h-3.773c-.217-.938-.469-1.916-.755-2.932h3.126c1.797.156 2.622-.662 2.48-2.462 0-.546-.038-1.054-.108-1.521-3.092 2.578-7.08 4.686-11.968 6.328-.072-.158-.144-.354-.216-.586-.502-1.018-.898-1.721-1.188-2.11 5.104-1.406 9.346-3.554 12.724-6.446 0-.076-.036-.232-.108-.468-.144-.312-.252-.586-.322-.819-3.308 2.267-6.863 4.062-10.674 5.391-.432-.938-.859-1.914-1.294-2.932 4.168-.936 7.765-2.459 10.782-4.568-.288-.391-.54-.742-.756-1.055-2.15 1.172-5.024 2.267-8.618 3.281zm20.376-11.132h-18.112v3.282h-3.126v-6.212h10.89l-.973-2.696 3.774-.35c.142.392.394 1.132.754 2.226.072.392.144.664.216.82h9.812v6.212h-3.234l-.001-3.282zm-42.334 13.898l-1.114-.424 1.114.424zm18.832-7.336h-17.466c-.432.938-.862 1.799-1.294 2.578h16.28v3.517l-6.574 5.155 4.312 1.405-1.834 3.4c-4.096-1.876-9.416-4.063-15.956-6.563l1.618-2.929c1.678.624 2.358.876 2.084.772 1.696.642 3.754 1.436 6.218 2.392l5.714-4.103h-15.742v-2.931c.502-.704.97-1.6 1.402-2.694h-4.852v-3.164h6.254l1.294-2.813h-6.146v-3.046h7.332c.574-1.172 1.006-2.304 1.294-3.4l3.88.118c-.432 1.172-.862 2.266-1.294 3.282h12.076v3.046h-13.37l-.862 1.874c-.216.393-.36.704-.43.938h16.064l-.002 3.166zm-37.95 3.282c2.01-1.094 3.988-2.462 5.928-4.102l1.834 2.695c-2.948 2.188-5.536 3.828-7.762 4.922v3.164c-.074 1.483.574 2.188 1.94 2.107h2.048c1.294.08 2.012-.662 2.156-2.227.144-.623.286-1.951.432-3.983.07 0 .144.04.216.118 1.22.468 2.156.779 2.802.936-.072.627-.216 1.524-.43 2.696-.146.938-.254 1.64-.324 2.11-.432 2.186-1.87 3.279-4.312 3.279h-3.558c-2.66.078-3.99-1.367-3.99-4.336v-11.717h3.02v4.338zm-12.4-1.992h2.48v-5.272h2.48v5.272h2.588v3.047h-2.588v3.049l2.912-.354c0 1.406-.038 2.461-.108 3.164-.864 0-1.798.078-2.804.234v5.273h-3.018v-4.923l-5.176.587-.216-3.281c1.796-.076 3.594-.234 5.392-.469v-3.281h-4.852v-3.047c.646-2.267 1.294-4.569 1.94-6.914h-2.264v-2.813h2.912c.358-1.326.646-2.616.862-3.866l3.126.352c-.072.312-.216.782-.43 1.406-.216.938-.396 1.64-.54 2.108h5.068v2.813h-5.822c-.864 3.281-1.51 5.586-1.942 6.915zm22.964-4.57c-.144.312-.394.936-.754 1.874-.36.703-.576 1.172-.646 1.406-2.948-2.188-5.176-4.806-6.686-7.854-1.508 2.736-3.81 5.432-6.9 8.086-.576-1.17-1.114-2.227-1.616-3.164 3.378-2.42 5.822-5.546 7.332-9.374l3.342.352-.648 1.288c1.796 3.206 3.99 5.668 6.576 7.386zm-48.514 8.436c-.936 4.064-1.69 7.54-2.264 10.431l-2.804-.938c.79-3.357 1.51-6.834 2.156-10.428.648.233 1.618.545 2.912.935zm-2.372-8.086c1.22 1.173 2.048 1.994 2.48 2.462l-2.05 2.346c-1.15-1.174-2.372-2.424-3.664-3.75l2.048-2.229c.216.234.61.627 1.186 1.171zm-2.48-6.678l2.048-2.228c1.294 1.096 2.48 2.228 3.558 3.398l-2.156 2.462c-.792-.938-1.94-2.148-3.45-3.632zm25.552 13.476v2.932h-3.774v5.037c.07 2.267-1.008 3.438-3.234 3.517h-2.804l-.538-2.931h2.372c.932.078 1.364-.391 1.292-1.405v-4.218h-3.988v-2.932h3.988v-1.404l2.588-2.932h-5.606v-1.289l-.108.235c-.576-.78-1.33-1.524-2.264-2.228l.54-.703h-4.528v3.633h4.636c0 3.281-.074 7.424-.216 12.422 0 2.266-1.008 3.436-3.02 3.516-.576 0-1.258.038-2.048.116l-.646-2.928c.646.078 1.186.116 1.616.116.934 0 1.438-.547 1.51-1.642.144-3.124.216-5.976.216-8.554h-2.156v.116c-.146 5.938-1.152 10.468-3.02 13.594-.792-.782-1.546-1.483-2.264-2.11 1.58-2.578 2.444-6.482 2.588-11.718v-2.696c.07-1.716.108-3.006.108-3.865h-1.618v-3.047h3.666c-.072-.624-.288-1.562-.646-2.812l-.324-1.406 3.125-.352c.072.548.252 1.406.54 2.578.142.86.25 1.524.324 1.992h2.586v2.228c1.15-2.032 2.084-4.376 2.804-7.032l3.126.352c-.288 1.172-.646 2.266-1.078 3.28h6.146v2.93h-7.332c-.432.781-.862 1.602-1.294 2.462h7.87v3.046l-2.91 3.396v.704l3.775.002zM500.855 142.695c2.44-.077 3.698-1.795 3.771-5.155-.072-3.204-1.33-4.845-3.771-4.922-3.021.077-4.565 1.562-4.638 4.452.073 3.674 1.619 5.548 4.638 5.625zm.109-18.399c-3.236-.076-4.816 2.424-4.744 7.5 1.148-1.716 2.805-2.578 4.958-2.578 4.528.236 6.9 2.972 7.116 8.204-.288 5.314-2.768 8.124-7.438 8.438-5.606.156-8.374-3.789-8.305-11.836 0-8.828 2.838-13.24 8.519-13.24 3.521.155 5.819 2.069 6.897 5.741l-3.45 1.055c-.573-2.266-1.759-3.36-3.553-3.284zm-18.76-.116c-2.014.234-3.092 1.33-3.234 3.28.07 2.502 1.188 3.792 3.343 3.868 2.086-.076 3.161-1.288 3.233-3.633-.144-2.109-1.258-3.281-3.342-3.515zm-4.204 14.648c.214 2.422 1.652 3.75 4.312 3.984 2.589-.156 3.986-1.406 4.202-3.752-.069-2.969-1.51-4.49-4.312-4.568-2.658.235-4.06 1.682-4.202 4.336zm8.3-5.976c2.519 1.019 3.844 3.088 3.99 6.211-.216 4.299-2.876 6.563-7.979 6.799-5.177-.157-7.868-2.5-8.087-7.031.07-2.891 1.402-4.882 3.988-5.979-1.87-1.172-2.874-2.89-3.018-5.153.355-4.377 2.693-6.682 7.008-6.914 4.312.312 6.684 2.656 7.116 7.028-.144 2.187-1.15 3.867-3.018 5.039zm-18.866-.234c2.874 1.25 4.351 3.204 4.42 5.856-.285 4.688-2.909 7.149-7.867 7.385-4.458-.08-7.08-2.268-7.87-6.563l3.664-.937c.288 2.732 1.618 4.143 3.987 4.219 2.946.078 4.387-1.366 4.313-4.336-.216-2.344-1.654-3.555-4.313-3.633h-2.693v-3.399h1.834c2.729 0 4.166-1.248 4.312-3.75-.069-2.03-1.147-3.084-3.231-3.164-2.086.158-3.344 1.448-3.774 3.868l-3.666-.938c1.006-4.22 3.45-6.366 7.332-6.443 4.6.078 6.97 2.344 7.116 6.796-.006 2.343-1.192 4.023-3.564 5.039zm-21.67-8.438c-2.014.234-3.092 1.33-3.233 3.28.069 2.502 1.186 3.792 3.344 3.868 2.082-.076 3.16-1.288 3.234-3.633-.149-2.109-1.263-3.281-3.345-3.515zm-4.206 14.648c.219 2.422 1.654 3.75 4.314 3.984 2.586-.156 3.988-1.406 4.204-3.752-.072-2.969-1.51-4.49-4.313-4.568-2.659.235-4.061 1.682-4.205 4.336zm8.302-5.976c2.516 1.019 3.844 3.088 3.987 6.211-.216 4.299-2.876 6.563-7.978 6.799-5.176-.157-7.872-2.5-8.086-7.031.069-2.891 1.397-4.882 3.988-5.979-1.87-1.172-2.876-2.89-3.021-5.153.358-4.377 2.694-6.682 7.008-6.914 4.313.312 6.687 2.656 7.114 7.028-.138 2.187-1.144 3.867-3.012 5.039zm-18.868-.234c2.874 1.25 4.348 3.204 4.422 5.856-.288 4.688-2.912 7.149-7.872 7.385-4.456-.08-7.08-2.268-7.87-6.563l3.666-.937c.286 2.732 1.618 4.143 3.99 4.219 2.946.078 4.382-1.366 4.312-4.336-.216-2.344-1.651-3.555-4.312-3.633h-2.696v-3.399h1.832c2.732 0 4.168-1.248 4.314-3.75-.074-2.03-1.152-3.084-3.236-3.164-2.084.158-3.342 1.448-3.772 3.868l-3.666-.938c1.009-4.22 3.45-6.366 7.332-6.443 4.601.078 6.973 2.344 7.114 6.796 0 2.343-1.186 4.023-3.558 5.039zm-18.004 0c2.874 1.25 4.348 3.204 4.42 5.856-.288 4.688-2.91 7.149-7.87 7.385-4.458-.08-7.08-2.268-7.87-6.563l3.666-.937c.286 2.732 1.616 4.143 3.988 4.219 2.943.078 4.384-1.366 4.312-4.336-.216-2.344-1.653-3.555-4.312-3.633h-2.694v-3.399h1.832c2.73 0 4.168-1.248 4.313-3.75-.072-2.03-1.15-3.084-3.234-3.164-2.086.158-3.342 1.448-3.774 3.868l-3.664-.938c1.006-4.22 3.45-6.366 7.33-6.443 4.603.078 6.975 2.344 7.116 6.796-.001 2.343-1.187 4.023-3.559 5.039zm-21.238 10.077c2.442-.077 3.7-1.795 3.771-5.155-.071-3.204-1.329-4.845-3.771-4.922-3.021.077-4.566 1.562-4.636 4.452.07 3.674 1.615 5.548 4.636 5.625zm.106-18.399c-3.234-.076-4.816 2.424-4.742 7.5 1.146-1.716 2.802-2.578 4.958-2.578 4.525.236 6.897 2.972 7.114 8.204-.286 5.314-2.769 8.124-7.438 8.438-5.608.156-8.374-3.789-8.302-11.836 0-8.828 2.838-13.24 8.516-13.24 3.522.155 5.822 2.069 6.9 5.741l-3.45 1.055c-.574-2.266-1.76-3.36-3.556-3.284zm-18.758-.116c-2.014.234-3.092 1.33-3.231 3.28.067 2.502 1.186 3.792 3.342 3.868 2.084-.076 3.162-1.288 3.234-3.633-.149-2.109-1.261-3.281-3.345-3.515zm-4.206 14.648c.219 2.422 1.654 3.75 4.314 3.984 2.586-.156 3.988-1.406 4.204-3.752-.072-2.969-1.51-4.49-4.313-4.568-2.659.235-4.061 1.682-4.205 4.336zm8.302-5.976c2.516 1.019 3.844 3.088 3.987 6.211-.216 4.299-2.876 6.563-7.978 6.799-5.176-.157-7.87-2.5-8.086-7.031.07-2.891 1.399-4.882 3.988-5.979-1.87-1.172-2.876-2.89-3.021-5.153.358-4.377 2.696-6.682 7.008-6.914 4.313.312 6.687 2.656 7.116 7.028-.14 2.187-1.146 3.867-3.014 5.039zm-35.578 3.75c-2.519 2.032-4.313 3.866-5.393 5.51h10.677v3.279h-15.202v-2.345c1.649-3.28 4.06-6.17 7.224-8.67 3.162-2.422 4.67-4.571 4.528-6.446 0-2.344-1.294-3.516-3.882-3.516-2.017.078-3.345 1.406-3.99 3.984l-3.45-1.643c1.366-3.983 3.99-5.976 7.872-5.976 4.454.232 6.826 2.537 7.114 6.913.36 3.128-1.474 6.098-5.498 8.91zm-20.16-12.422c-2.014.234-3.092 1.33-3.234 3.28.07 2.502 1.188 3.792 3.344 3.868 2.084-.076 3.159-1.288 3.231-3.633-.145-2.109-1.257-3.281-3.341-3.515zm-4.206 14.648c.216 2.422 1.654 3.75 4.314 3.984 2.586-.156 3.985-1.406 4.201-3.752-.069-2.969-1.51-4.49-4.312-4.568-2.657.235-4.059 1.682-4.203 4.336zm8.302-5.976c2.519 1.019 3.847 3.088 3.99 6.211-.216 4.299-2.876 6.563-7.978 6.799-5.178-.157-7.873-2.5-8.088-7.031.07-2.891 1.4-4.882 3.988-5.979-1.87-1.172-2.876-2.89-3.018-5.153.356-4.377 2.692-6.682 7.008-6.914 4.312.312 6.684 2.656 7.116 7.028-.144 2.187-1.15 3.867-3.018 5.039zm-20.268 3.75c-2.518 2.032-4.312 3.866-5.392 5.51h10.674v3.279h-15.202v-2.345c1.654-3.28 4.06-6.17 7.224-8.67 3.162-2.422 4.672-4.571 4.528-6.446 0-2.344-1.294-3.516-3.88-3.516-2.014.078-3.344 1.406-3.99 3.984l-3.45-1.643c1.364-3.983 3.99-5.976 7.87-5.976 4.456.232 6.828 2.537 7.116 6.913.358 3.128-1.474 6.098-5.498 8.91zm-17.898 0c-2.516 2.032-4.312 3.866-5.39 5.51h10.674v3.279h-15.202v-2.345c1.652-3.28 4.06-6.17 7.224-8.67 3.162-2.422 4.67-4.571 4.528-6.446 0-2.344-1.294-3.516-3.882-3.516-2.012.078-3.342 1.406-3.988 3.984l-3.45-1.643c1.364-3.983 3.988-5.976 7.87-5.976 4.456.232 6.828 2.537 7.116 6.913.358 3.128-1.474 6.098-5.5 8.91zm-18.758-9.258l-5.822 9.024h5.822v-9.024zm3.45 12.538v5.626h-3.45v-5.626h-10.028v-2.692l10.782-16.405h2.696v15.586h3.018v3.514c-.646-.003-1.654-.003-3.018-.003zm-19.514-7.264c2.874 1.25 4.348 3.204 4.42 5.856-.288 4.688-2.912 7.149-7.87 7.385-4.458-.08-7.08-2.268-7.872-6.563l3.666-.937c.286 2.732 1.618 4.143 3.99 4.219 2.946.078 4.382-1.366 4.312-4.336-.216-2.344-1.654-3.555-4.312-3.633h-2.696v-3.399h1.834c2.73 0 4.166-1.248 4.312-3.75-.072-2.03-1.15-3.084-3.234-3.164-2.086.158-3.342 1.448-3.774 3.868l-3.666-.938c1.006-4.22 3.45-6.366 7.332-6.443 4.598.078 6.97 2.344 7.116 6.796 0 2.343-1.186 4.023-3.558 5.039zm-21.24 10.077c2.442-.077 3.702-1.795 3.774-5.155-.072-3.204-1.332-4.845-3.774-4.922-3.018.077-4.564 1.562-4.636 4.452.072 3.674 1.618 5.548 4.636 5.625zm.108-18.399c-3.234-.076-4.816 2.424-4.744 7.5 1.15-1.716 2.804-2.578 4.96-2.578 4.528.236 6.9 2.972 7.116 8.204-.288 5.314-2.768 8.124-7.44 8.438-5.606.156-8.374-3.789-8.302-11.836 0-8.828 2.84-13.24 8.518-13.24 3.52.155 5.822 2.069 6.9 5.741l-3.45 1.055c-.576-2.266-1.762-3.36-3.558-3.284zm-18.76-.116c-2.012.234-3.09 1.33-3.234 3.28.072 2.502 1.186 3.792 3.342 3.868 2.083-.076 3.162-1.288 3.234-3.633-.144-2.109-1.258-3.281-3.342-3.515zm-4.204 14.648c.216 2.422 1.652 3.75 4.312 3.984 2.588-.156 3.99-1.406 4.206-3.752-.074-2.969-1.51-4.49-4.314-4.568-2.66.235-4.06 1.682-4.204 4.336zm8.302-5.976c2.514 1.019 3.844 3.088 3.988 6.211-.214 4.299-2.874 6.563-7.978 6.799-5.174-.157-7.87-2.5-8.086-7.031.072-2.891 1.402-4.882 3.99-5.979-1.87-1.172-2.876-2.89-3.02-5.153.36-4.377 2.696-6.682 7.008-6.914 4.314.312 6.686 2.656 7.116 7.028-.144 2.187-1.15 3.867-3.018 5.039zm-30.62 2.108v-2.928h15.742v2.928h-15.742zm-10.672-10.78c-2.588.158-3.918 3.242-3.99 9.259-.072 6.404 1.294 9.49 4.098 9.259 2.73.153 4.06-2.933 3.988-9.259.072-6.407-1.294-9.494-4.096-9.259zm.108 21.679c-5.248 0-7.872-4.142-7.872-12.422.144-8.279 2.732-12.5 7.764-12.655 5.246 0 7.87 4.218 7.87 12.655-.072 8.127-2.66 12.265-7.762 12.422zm-16.172-9.257c-2.518 2.032-4.314 3.866-5.392 5.51h10.674v3.279h-15.202v-2.345c1.654-3.28 4.06-6.17 7.224-8.67 3.162-2.422 4.672-4.571 4.528-6.446 0-2.344-1.294-3.516-3.882-3.516-2.012.078-3.342 1.406-3.988 3.984l-3.45-1.643c1.364-3.983 3.988-5.976 7.87-5.976 4.456.232 6.828 2.537 7.116 6.913.358 3.128-1.474 6.098-5.498 8.91zm-20.054-12.422c-2.588.158-3.918 3.242-3.988 9.259-.074 6.404 1.292 9.49 4.096 9.259 2.73.153 4.06-2.933 3.99-9.259.07-6.407-1.294-9.494-4.098-9.259zm.108 21.679c-5.248 0-7.87-4.142-7.87-12.422.142-8.279 2.73-12.5 7.762-12.655 5.246 0 7.87 4.218 7.87 12.655-.072 8.127-2.66 12.265-7.762 12.422zM264.8 205.484v-1.406h110.4v1.406h-110.4zm101.776-13.358c1.508-1.172 3.088-2.618 4.742-4.336l2.05 1.992c-2.017 2.106-3.92 3.905-5.714 5.39.572 1.721 1.361 2.578 2.37 2.578.504 0 .896-.428 1.186-1.29.216-.937.468-2.108.756-3.514.145.077.396.194.754.35.862.548 1.475.9 1.834 1.056-.216 1.406-.504 2.656-.861 3.75-.576 2.03-1.799 3.047-3.666 3.047-2.084.078-3.772-1.25-5.066-3.982-1.798 1.016-3.846 2.03-6.146 3.046l-1.188-2.228c-1.438.312-3.771.779-7.008 1.406-.792.155-1.4.273-1.832.354l-.54-3.164c.36-.076 1.042-.194 2.05-.354 3.45-.547 5.93-.977 7.438-1.287 0 .312-.036.701-.108 1.172v1.055c2.372-1.016 4.42-2.03 6.146-3.046-.575-2.11-.938-3.868-1.077-5.274l-4.204.588-.435-3.05 4.204-.586c-.07-1.092-.18-2.146-.32-3.164l-3.346.354-.214-1.875c-2.588 4.377-4.422 7.383-5.5 9.021 1.438-.231 3.054-.428 4.854-.586 0 .313-.036.782-.108 1.408 0 .626-.036 1.094-.108 1.406-3.663.468-6.288.858-7.867 1.172l-.973-2.696c.79-.624 1.438-1.328 1.94-2.109.071-.074.18-.271.324-.586.502-.701 1.075-1.679 1.726-2.931-1.368 0-2.588.118-3.666.353l-.862-2.931c.502-.468.973-1.054 1.4-1.756 1.15-2.108 2.336-4.647 3.558-7.618l3.128 1.055c-.791 1.485-1.903 3.518-3.344 6.096-.576.938-.97 1.602-1.186 1.992l2.693-.116 1.513-2.931 2.372 1.172v-.471l3.558-.469c-.146-2.029-.216-4.062-.216-6.094h3.126c0 2.107.07 4.021.216 5.74l4.636-.586c-.575-.547-1.474-1.327-2.693-2.344-.36-.233-.612-.429-.756-.586l1.939-2.106c.36.231.862.625 1.51 1.172.937.626 1.616 1.132 2.048 1.521l-1.938 2.346 3.558-.469.322 2.932-8.516 1.054c0 .392.034.899.105 1.524 0 .779.034 1.326.108 1.64l8.729-1.406.324 3.046-8.626 1.408c.219 1.401.505 2.651.867 3.745zm-19.838 7.733l-3.234 1.055c-.432-1.25-1.116-2.93-2.05-5.038-.214-.392-.36-.704-.43-.938l3.018-.703c.934 1.797 1.834 3.673 2.696 5.624zm-8.086-2.461c.43 1.094.754 1.951.97 2.576l-3.234.705c-.504-1.722-1.114-3.556-1.834-5.51l3.128-.468c.214.629.538 1.526.97 2.697zm-5.822 3.047l-3.234.469c-.074-.234-.146-.548-.216-.938-.432-1.72-.828-3.279-1.186-4.688l3.018-.354 1.618 5.511zm-6.362-5.155c-.357 1.25-1.006 3.006-1.938 5.271-.146.393-.252.664-.324.82l-3.126-.82c1.006-2.105 1.76-4.06 2.264-5.855l3.124.584zm1.294-5.626c.072 2.502-.859 3.79-2.802 3.868h-3.02v-.353c-.072-.705-.217-1.602-.433-2.695.433.08 1.112.117 2.048.117.862 0 1.294-.472 1.294-1.406v-2.344l-3.558.7-.432-3.278c1.364-.155 2.693-.354 3.987-.586v-3.518h-3.446v-3.046h3.447v-3.75h2.91v3.75h2.696v3.046h-2.696v2.932h.216c.79-.078 1.618-.233 2.48-.472v3.164l-2.696.472v3.397l.005.002zm19.192-1.992c-.074.626-.182 1.564-.324 2.812-.432 2.031-1.366 3.049-2.804 3.049-1.87-.078-2.948-1.563-3.234-4.454-.072-.858-.144-1.952-.216-3.282v-5.742h-2.802c0 1.486-.216 3.244-.648 5.274.286.233.685.51 1.188.819.79.549 1.399.979 1.834 1.291l-1.618 3.045c-.862-.701-1.724-1.365-2.588-1.991-1.078 1.954-2.586 3.827-4.528 5.626-.216-.236-.576-.586-1.078-1.057l-1.186-1.287c2.012-1.645 3.45-3.358 4.312-5.156l-2.586-1.876 1.508-2.46c.219.156.502.312.864.468.145.158.538.431 1.188.819.285-1.092.43-2.266.43-3.518h-3.02v-3.046h3.127v-3.632h2.91v3.632h5.606v7.618c.07 1.718.142 3.086.216 4.102.145.86.358 1.33.646 1.404.355 0 .571-.39.646-1.172.146-.938.252-2.188.324-3.75.36.158.896.393 1.618.704.216.078.355.118.43.118-.073.394-.145.938-.215 1.642zm-46.684-2.93h-2.91v4.686999999999999h2.91v-4.687zm0-7.383h-2.91v4.568h2.91v-4.568zm.216 23.555h-1.186c-.72.076-1.258.118-1.618.118-.072-.548-.18-1.29-.322-2.229-.074-.468-.108-.74-.108-.818h1.832c.862.078 1.258-.312 1.186-1.172v-4.569h-2.91c-.146 3.516-.864 6.602-2.156 9.258-.288-.313-.684-.782-1.186-1.406l-1.078-1.172c.716-1.328 1.148-2.694 1.292-4.103.216-1.481.324-3.943.324-7.383v-12.893h8.41v23.205c0 1.876-.828 2.93-2.48 3.164zm14.662-13.124h-4.744c.718 2.108 1.546 3.905 2.479 5.39.791-1.25 1.547-3.048 2.265-5.39zm-7.438 0v10.194c1.294-.78 2.372-1.643 3.234-2.578-1.01-1.482-1.979-3.633-2.912-6.446l1.834-1.17h-2.156zm11.644 10.428c-.576 1.017-1.078 1.992-1.51 2.931-1.652-.938-3.308-2.068-4.96-3.396-1.078 1.016-2.442 2.109-4.096 3.282l-1.078-1.876v2.226h-2.912v-26.718h13.046c0 .548-.038 1.33-.106 2.344 0 1.096-.038 1.874-.108 2.346-.072 2.578-1.294 3.864-3.666 3.864h-3.771c-.074-.468-.218-1.13-.434-1.991 0-.311-.038-.586-.106-.818.934.078 1.938.117 3.018.117 1.366.078 2.05-.432 2.05-1.523v-1.406h-7.008v7.269h10.242v3.278c-.792 2.894-1.834 5.313-3.128 7.268 1.219 1.163 2.729 2.101 4.527 2.803zm-34.716-3.28h-12.076v2.812h12.076v-2.812zm3.126 6.444h-3.126v-1.172h-12.076v1.172h-3.126v-9.14h18.328v9.14zm-8.948-14.764c1.724-.704 3.196-1.644 4.42-2.813h-8.41c1.006 1.095 2.336 2.033 3.99 2.813zm-6.576-1.408c-.936.938-2.122 1.8-3.558 2.58-.074-.156-.216-.353-.432-.586-.216-.313-.684-.897-1.402-1.759 3.162-1.644 5.57-3.635 7.224-5.979l3.342.236c-.072.078-.144.194-.216.35-.288.314-.576.666-.862 1.058h10.996v2.812c-1.724 1.722-3.378 3.046-4.958 3.984 2.372.548 5.352.858 8.948.938-.504 1.33-.828 2.386-.97 3.164-5.606-.624-9.488-1.405-11.644-2.344-2.732 1.172-6.83 2.108-12.29 2.812-.216-1.015-.54-2.029-.972-3.047 4.026-.312 7.296-.818 9.812-1.521-1.078-.704-2.086-1.601-3.018-2.698zm15.308-6.21h-17.896v3.282h-3.128v-6.095h10.566l-.646-2.812 3.666-.236c.214.862.43 1.877.646 3.049h9.918v6.096h-3.126v-3.284zM421.182 220.18c-2.014.234-3.092 1.33-3.231 3.28.067 2.502 1.186 3.792 3.342 3.868 2.084-.076 3.162-1.288 3.234-3.633-.147-2.109-1.261-3.281-3.345-3.515zm-4.204 14.648c.217 2.422 1.652 3.75 4.313 3.982 2.588-.154 3.988-1.404 4.204-3.75-.072-2.969-1.508-4.49-4.313-4.568-2.661.235-4.062 1.682-4.204 4.336zm8.3-5.976c2.516 1.019 3.846 3.086 3.987 6.211-.216 4.299-2.876 6.563-7.978 6.799-5.176-.157-7.87-2.5-8.086-7.031.07-2.893 1.402-4.882 3.988-5.979-1.87-1.172-2.874-2.89-3.021-5.153.358-4.378 2.696-6.683 7.008-6.914 4.313.312 6.687 2.653 7.116 7.028-.14 2.187-1.144 3.867-3.014 5.039zm-22.532-8.672c-2.014.234-3.092 1.33-3.234 3.28.07 2.502 1.188 3.792 3.342 3.868 2.086-.076 3.162-1.288 3.234-3.633-.144-2.109-1.258-3.281-3.342-3.515zm-4.204 14.648c.214 2.422 1.652 3.75 4.312 3.982 2.591-.154 3.988-1.404 4.204-3.75-.069-2.969-1.508-4.49-4.312-4.568-2.66.235-4.062 1.682-4.204 4.336zm8.3-5.976c2.519 1.019 3.849 3.086 3.99 6.211-.216 4.299-2.876 6.563-7.979 6.799-5.176-.157-7.867-2.5-8.086-7.031.07-2.893 1.402-4.882 3.988-5.979-1.868-1.172-2.874-2.89-3.018-5.153.357-4.378 2.693-6.683 7.008-6.914 4.312.312 6.684 2.653 7.116 7.028-.145 2.187-1.149 3.867-3.019 5.039zm-22.532-8.672c-2.012.234-3.092 1.33-3.231 3.28.069 2.502 1.186 3.792 3.342 3.868 2.084-.076 3.162-1.288 3.234-3.633-.147-2.109-1.261-3.281-3.345-3.515zm-4.205 14.648c.217 2.422 1.65 3.75 4.312 3.982 2.588-.154 3.988-1.404 4.204-3.75-.072-2.969-1.508-4.49-4.313-4.568-2.658.235-4.06 1.682-4.203 4.336zm8.301-5.976c2.516 1.019 3.846 3.086 3.99 6.211-.219 4.299-2.879 6.563-7.979 6.799-5.176-.157-7.87-2.5-8.086-7.031.07-2.893 1.402-4.882 3.99-5.979-1.87-1.172-2.876-2.89-3.021-5.153.36-4.378 2.696-6.683 7.008-6.914 4.313.312 6.687 2.653 7.116 7.028-.144 2.187-1.148 3.867-3.018 5.039zm-22.532-8.672c-2.012.234-3.09 1.33-3.234 3.28.07 2.502 1.188 3.792 3.345 3.868 2.084-.076 3.159-1.288 3.231-3.633-.144-2.109-1.258-3.281-3.342-3.515zm-4.204 14.648c.216 2.422 1.652 3.75 4.313 3.982 2.588-.154 3.987-1.404 4.201-3.75-.069-2.969-1.508-4.49-4.312-4.568-2.658.235-4.06 1.682-4.202 4.336zm8.302-5.976c2.517 1.019 3.847 3.086 3.988 6.211-.216 4.299-2.876 6.563-7.978 6.799-5.177-.157-7.87-2.5-8.086-7.031.067-2.893 1.399-4.882 3.987-5.979-1.87-1.172-2.876-2.89-3.02-5.153.357-4.378 2.693-6.683 7.008-6.914 4.312.312 6.684 2.653 7.116 7.028-.143 2.187-1.147 3.867-3.015 5.039zm-30.62 2.108v-2.928h15.74v2.928h-15.74zm-7.116-2.342c2.874 1.25 4.348 3.204 4.422 5.856-.29 4.688-2.912 7.149-7.872 7.385-4.456-.079-7.08-2.268-7.87-6.563l3.666-.937c.286 2.732 1.618 4.143 3.99 4.219 2.943.078 4.382-1.366 4.312-4.336-.216-2.344-1.653-3.555-4.312-3.633h-2.696v-3.399h1.832c2.73 0 4.168-1.248 4.312-3.75-.072-2.03-1.15-3.084-3.234-3.164-2.084.158-3.342 1.448-3.772 3.868l-3.666-.938c1.006-4.22 3.45-6.365 7.33-6.443 4.603.078 6.975 2.344 7.116 6.796 0 2.343-1.186 4.023-3.558 5.039zm-21.238 10.077c2.442-.077 3.7-1.795 3.773-5.155-.073-3.204-1.331-4.845-3.773-4.922-3.021.077-4.566 1.562-4.636 4.452.07 3.674 1.616 5.548 4.636 5.625zm.108-18.399c-3.234-.076-4.816 2.424-4.744 7.5 1.146-1.716 2.802-2.578 4.96-2.578 4.526.236 6.898 2.972 7.112 8.204-.286 5.314-2.768 8.124-7.438 8.438-5.606.156-8.374-3.789-8.302-11.836 0-8.828 2.838-13.24 8.518-13.24 3.521.154 5.822 2.068 6.9 5.74l-3.45 1.056c-.574-2.266-1.76-3.36-3.556-3.284zm-18.76-.116c-2.012.234-3.092 1.33-3.234 3.28.07 2.502 1.186 3.792 3.342 3.868 2.084-.076 3.162-1.288 3.234-3.633-.144-2.109-1.258-3.281-3.342-3.515zm-4.204 14.648c.216 2.422 1.652 3.75 4.312 3.982 2.588-.154 3.988-1.404 4.204-3.75-.072-2.969-1.508-4.49-4.312-4.568-2.66.235-4.062 1.682-4.204 4.336zm8.3-5.976c2.516 1.019 3.846 3.086 3.99 6.211-.216 4.299-2.876 6.563-7.978 6.799-5.176-.157-7.87-2.5-8.086-7.031.07-2.893 1.402-4.882 3.99-5.979-1.87-1.172-2.876-2.89-3.02-5.153.36-4.378 2.696-6.683 7.008-6.914 4.312.312 6.684 2.653 7.116 7.028-.146 2.187-1.15 3.867-3.02 5.039zm-30.618 2.108v-2.928h15.74v2.928h-15.74zm-10.674-10.78c-2.586.158-3.918 3.242-3.988 9.26-.072 6.404 1.294 9.49 4.096 9.259 2.732.153 4.06-2.933 3.99-9.259.07-6.408-1.294-9.495-4.098-9.26zm.108 21.679c-5.246 0-7.87-4.142-7.87-12.422.144-8.279 2.732-12.5 7.762-12.655 5.246 0 7.872 4.218 7.872 12.655-.074 8.127-2.66 12.265-7.764 12.422zm-18.328-21.679c-2.586.158-3.918 3.242-3.988 9.26-.072 6.404 1.294 9.49 4.096 9.259 2.73.153 4.06-2.933 3.99-9.259.07-6.408-1.294-9.495-4.098-9.26zm.108 21.679c-5.248 0-7.87-4.142-7.87-12.422.144-8.279 2.73-12.5 7.762-12.655 5.246 0 7.87 4.218 7.87 12.655-.072 8.127-2.66 12.265-7.762 12.422zm-17.034-18.515l-5.822 9.024h5.822v-9.024zm3.45 12.538v5.626h-3.45v-5.626h-10.026v-2.692l10.78-16.405h2.696v15.586h3.018v3.514c-.646-.003-1.654-.003-3.018-.003z"/></svg>