<svg xmlns="http://www.w3.org/2000/svg" width="640" height="140" viewBox="0 0 640 140"><path fill="#FFF100" d="M320.5 137c-36.728 0-66.5-29.774-66.5-66.5s29.772-66.5 66.5-66.5c36.729 0 66.5 29.774 66.5 66.5s-29.771 66.5-66.5 66.5zm0-2c35.566 0 64.5-28.934 64.5-64.5s-28.934-64.5-64.5-64.5-64.5 28.934-64.5 64.5 28.934 64.5 64.5 64.5"/><path fill-rule="evenodd" clip-rule="evenodd" fill="#0062C8" d="M296.34 129.54c-7.56-3.198-14.348-7.774-20.178-13.602-5.828-5.83-10.404-12.618-13.602-20.179-3.312-7.828-4.99-16.142-4.99-24.71 0-8.568 1.678-16.882 4.99-24.71 3.198-7.56 7.774-14.348 13.602-20.178 5.83-5.828 12.618-10.404 20.178-13.602 7.828-3.312 16.142-4.99 24.71-4.99 8.568 0 16.882 1.678 24.71 4.99 7.561 3.198 14.349 7.774 20.178 13.602 5.828 5.83 10.404 12.618 13.603 20.178 3.312 7.828 4.99 16.142 4.99 24.71 0 8.568-1.679 16.882-4.99 24.71-3.198 7.561-7.774 14.349-13.603 20.179-5.829 5.827-12.617 10.403-20.178 13.602-7.828 3.312-16.142 4.99-24.71 4.99-8.568 0-16.882-1.678-24.71-4.99"/><circle fill-rule="evenodd" clip-rule="evenodd" fill="#FFF04D" cx="321.05" cy="71.05" r="60.48"/><path fill="#0062C8" d="M319.572 52.892l-.002.01c-.002.008-5.684 3.346-5.684 3.346l-12.18-20.552 5.686-3.36c1.228-.718 2.814-.336 3.548.908.004.004 9.55 16.082 9.55 16.082l-.004.014c.698 1.182.39 2.78-.914 3.552zm30.206 50.946l-.015.006c.004.006-5.682 3.351-5.682 3.351l-11.914-20.108 5.684-3.358c1.232-.72 2.816-.331 3.551.906.006.006 9.283 15.63 9.283 15.63l-.004.015c.699 1.186.399 2.79-.903 3.558zm-45.008-23.022c-16.728-29.026-7.788-41.836-4.632-44.198l12.194 20.544c-2.936 1.732-1.528 5.632.22 9.446.028.182 8.477 14.378 8.55 14.426 4.368 5.908 6.736 8.628 9.542 6.976l11.885 20.055c-3.365 2.069-20.135 3.343-37.759-27.249z"/></svg>