<?xml version="1.0" encoding="utf-8"?>
<!-- Generator: Adobe Illustrator 16.0.0, SVG Export Plug-In . SVG Version: 6.00 Build 0)  -->
<!DOCTYPE svg PUBLIC "-//W3C//DTD SVG 1.1//EN" "http://www.w3.org/Graphics/SVG/1.1/DTD/svg11.dtd">
<svg version="1.1" id="图层_1" xmlns="http://www.w3.org/2000/svg" xmlns:xlink="http://www.w3.org/1999/xlink" x="0px" y="0px"
	 width="640px" height="140px" viewBox="0 0 640 140" enable-background="new 0 0 640 140" xml:space="preserve">
<path fill="#FFF100" d="M320.5,137c-36.728,0-66.5-29.774-66.5-66.5C254,33.774,283.772,4,320.5,4C357.229,4,387,33.774,387,70.5
	C387,107.226,357.229,137,320.5,137z M320.5,135c35.566,0,64.5-28.934,64.5-64.5C385,34.934,356.066,6,320.5,6
	C284.934,6,256,34.934,256,70.5C256,106.066,284.934,135,320.5,135"/>
<path fill-rule="evenodd" clip-rule="evenodd" fill="#0062C8" d="M296.34,129.54c-7.56-3.198-14.348-7.774-20.178-13.602
	c-5.828-5.83-10.404-12.618-13.602-20.179c-3.312-7.828-4.99-16.142-4.99-24.71c0-8.568,1.678-16.882,4.99-24.71
	c3.198-7.56,7.774-14.348,13.602-20.178c5.83-5.828,12.618-10.404,20.178-13.602c7.828-3.312,16.142-4.99,24.71-4.99
	c8.568,0,16.882,1.678,24.71,4.99c7.561,3.198,14.349,7.774,20.178,13.602c5.828,5.83,10.404,12.618,13.603,20.178
	c3.312,7.828,4.99,16.142,4.99,24.71c0,8.568-1.679,16.882-4.99,24.71c-3.198,7.561-7.774,14.349-13.603,20.179
	c-5.829,5.827-12.617,10.403-20.178,13.602c-7.828,3.312-16.142,4.99-24.71,4.99C312.482,134.53,304.168,132.852,296.34,129.54"/>
<circle fill-rule="evenodd" clip-rule="evenodd" fill="#FFF04D" cx="321.05" cy="71.05" r="60.48"/>
<path fill="#0062C8" d="M319.572,52.892l-0.002,0.01c-0.002,0.008-5.684,3.346-5.684,3.346l-12.18-20.552l5.686-3.36
	c1.228-0.718,2.814-0.336,3.548,0.908c0.004,0.004,9.55,16.082,9.55,16.082l-0.004,0.014
	C321.184,50.522,320.876,52.12,319.572,52.892z M349.778,103.838l-0.015,0.006c0.004,0.006-5.682,3.351-5.682,3.351l-11.914-20.108
	l5.684-3.358c1.232-0.72,2.816-0.331,3.551,0.906c0.006,0.006,9.283,15.63,9.283,15.63l-0.004,0.015
	C351.38,101.466,351.08,103.07,349.778,103.838z M304.77,80.816c-16.728-29.026-7.788-41.836-4.632-44.198l12.194,20.544
	c-2.936,1.732-1.528,5.632,0.22,9.446c0.028,0.182,8.477,14.378,8.55,14.426c4.368,5.908,6.736,8.628,9.542,6.976l11.885,20.055
	C339.164,110.134,322.394,111.408,304.77,80.816z"/>
</svg>
