<?xml version="1.0" encoding="utf-8"?>
<!-- Generator: Adobe Illustrator 16.0.0, SVG Export Plug-In . SVG Version: 6.00 Build 0)  -->
<!DOCTYPE svg PUBLIC "-//W3C//DTD SVG 1.1//EN" "http://www.w3.org/Graphics/SVG/1.1/DTD/svg11.dtd">
<svg version="1.1" id="图层_1" xmlns="http://www.w3.org/2000/svg" xmlns:xlink="http://www.w3.org/1999/xlink" x="0px" y="0px"
	 width="640px" height="253px" viewBox="0 0 640 253" enable-background="new 0 0 640 253" xml:space="preserve">
<path fill="#FFFFFF" d="M433.364,30.64h4.422v4.922h-4.422V30.64z M433.364,48.218v-4.686h4.422v4.686H433.364z M415.036,43.766
	v1.758c-0.072,1.484,0.61,2.188,2.05,2.108h4.096c1.294,0.08,2.084-0.586,2.372-1.992c0.146-0.546,0.25-1.172,0.324-1.874H415.036z
	 M421.074,36.852h-6.038v3.75h6.038V36.852z M421.074,30.054h-6.038v3.634h6.038V30.054z M411.694,36.852h-6.036v3.75h6.036V36.852z
	 M411.694,30.054h-6.036v3.634h6.036V30.054z M427.112,44.468c-0.146,0.938-0.36,1.992-0.648,3.164
	c-0.36,2.032-1.832,3.008-4.42,2.93H415.9c-2.876,0.078-4.278-1.368-4.206-4.336v-2.46h-6.036v2.108h-3.344V26.89h9.38v-3.516h3.342
	v3.516h9.38v15.352c0.432,0.158,1.006,0.352,1.726,0.586c0.574,0.234,0.973,0.392,1.188,0.468
	C427.254,43.532,427.182,43.924,427.112,44.468z M390.778,31.344l-0.214,0.586c0.43,3.828,1.186,6.72,2.264,8.672
	c1.006-1.952,1.724-5.04,2.156-9.258H390.778z M394.552,43.648c1.364,1.642,3.126,3.088,5.284,4.336
	c-0.72,1.172-1.332,2.304-1.834,3.398c-2.156-1.718-3.918-3.36-5.282-4.922c-1.366,1.718-3.2,3.438-5.498,5.158
	c-0.646-0.938-1.332-1.798-2.05-2.578c-4.6,0.39-8.374,0.82-11.32,1.288l-0.321-3.398c1.726-0.156,3.447-0.274,5.176-0.352V42.71
	h-4.42v-3.046h4.42v-2.812h3.018v2.812h4.528v3.046h-4.528v3.634l4.854-0.47l-0.108,2.11c1.868-1.482,3.378-2.93,4.528-4.336
	c-1.15-2.108-1.979-4.608-2.48-7.5c-0.069,0.158-0.214,0.392-0.43,0.704c-0.288,0.468-0.504,0.86-0.647,1.172
	c-0.07-0.312-0.286-0.704-0.646-1.172c-0.072-0.234-0.146-0.39-0.216-0.47l-1.727,1.056c-0.287-0.624-0.609-1.21-0.972-1.758
	c-2.444,0.078-4.815,0.196-7.114,0.352c-0.216,0-0.54,0.04-0.972,0.116c-0.43,0.08-0.79,0.158-1.078,0.234l-0.97-2.694
	c0.646-0.47,1.147-1.014,1.51-1.642c0.718-1.172,1.51-2.578,2.372-4.218h-3.774v-3.046h12.725v3.046h-5.714
	c-0.862,1.798-1.87,3.556-3.021,5.274c1.652,0,3.162-0.078,4.528-0.234l-1.294-2.462l2.264-1.288c0.502,0.782,1.148,1.874,1.94,3.28
	c0.432,0.704,0.756,1.252,0.97,1.642c1.654-3.048,2.874-6.64,3.666-10.782l3.126,0.468c-0.144,0.548-0.36,1.368-0.646,2.462
	c-0.218,0.86-0.359,1.484-0.434,1.874h7.656v3.282h-1.834C397.426,36.344,396.348,40.446,394.552,43.648z M367.276,42.828h-9.488
	v1.758h9.488V42.828z M367.276,39.078h-9.488v1.64h9.488V39.078z M370.402,47.282c0.144,2.498-1.042,3.75-3.561,3.75
	c-0.288,0-0.792,0-1.508,0c-1.152,0.076-2.014,0.116-2.588,0.116c-0.072-0.392-0.216-1.016-0.432-1.874
	c-0.072-0.392-0.146-0.704-0.219-0.938c0.79,0.076,1.979,0.118,3.561,0.118c1.147,0.076,1.688-0.392,1.618-1.408v-0.468h-9.488
	v4.688h-3.021V36.734H370.4L370.402,47.282L370.402,47.282z M351.428,45.172l2.156-1.876c0.07,0.548,0.178,1.368,0.324,2.462
	c0.067,0.548,0.104,0.938,0.104,1.172c-0.357,0.312-0.896,0.744-1.613,1.288c-0.792,0.546-1.332,0.976-1.618,1.29
	c-0.576,0.624-1.042,1.132-1.402,1.524l-1.724-2.578c0.573-0.546,0.826-1.212,0.754-1.994V36.032h-2.372V32.75h5.392V45.172
	L351.428,45.172z M346.9,25.484l2.478-1.64c1.294,1.484,2.516,3.086,3.666,4.804l-2.694,1.876
	C349.272,28.806,348.12,27.124,346.9,25.484z M372.128,32.984v2.344h-19.084v-2.344h7.87v-1.64h-6.684v-1.992h6.684V27.71h-7.222
	v-2.226h7.222v-2.11h3.128v2.11h7.546v2.226h-7.546v1.642h6.9v1.992h-6.9v1.64H372.128z M327.6,46.696
	c-0.069,1.094,0.576,1.6,1.942,1.522h3.772c1.294,0.078,2.05-0.35,2.264-1.288c0.144-0.546,0.252-1.29,0.324-2.226
	c0.571,0.234,1.472,0.626,2.693,1.17c0.145,0.08,0.25,0.118,0.324,0.118c-0.216,1.016-0.432,1.836-0.646,2.462
	c-0.435,1.64-1.801,2.42-4.099,2.342h-6.254c-2.3,0-3.45-1.094-3.45-3.28V44h3.126L327.6,46.696L327.6,46.696z M323.504,44.704
	c-0.576,1.484-1.438,3.318-2.588,5.506c-0.288-0.156-0.718-0.39-1.294-0.702c-0.576-0.392-1.006-0.664-1.294-0.82
	c0.934-1.562,1.762-3.282,2.479-5.156L323.504,44.704z M339.136,34.976h-6.144V36.5h6.144V34.976z M339.136,31.46h-6.144v1.642
	h6.144V31.46z M332.992,40.484c1.65,0,3.304-0.038,4.958-0.116l-1.292-1.408l0.43-0.234h-4.096V40.484z M329.864,34.976h-6.146V36.5
	h6.146V34.976z M329.864,31.46h-6.146v1.642h6.146V31.46z M344.312,43.062l-2.155,1.524c0.216,0.392,0.538,0.938,0.97,1.64
	c0.646,0.938,1.078,1.602,1.294,1.992l-2.804,1.406c-0.862-1.64-1.763-3.202-2.694-4.686L341.079,44L340,42.828l-8.086,0.118
	c0.286,0.312,0.682,0.782,1.186,1.406c0.502,0.548,0.862,0.938,1.078,1.172l-2.264,1.758c-0.432-0.626-1.044-1.446-1.834-2.462
	c-0.288-0.31-0.504-0.546-0.646-0.702l1.511-1.172c-3.952,0.156-7.942,0.234-11.968,0.234l-0.322-2.696c3.952,0,7.688,0,11.212,0
	v-1.758h-9.272v-9.374h9.272v-1.524h-10.89V25.25h10.89v-1.876h3.128v1.876h10.996v2.578h-10.996v1.524h9.271v9.374H340
	c0.502,0.47,1.22,1.172,2.156,2.11C343.088,41.774,343.808,42.516,344.312,43.062z M310.242,45.992
	c-0.072,0.938,0.288,1.368,1.08,1.29h0.86c0.79,0.078,1.222-0.43,1.294-1.524c0-0.078,0-0.156,0-0.234
	c0.216-1.718,0.358-3.164,0.432-4.336c0.864,0.312,1.868,0.702,3.02,1.172c-0.216,2.108-0.432,3.79-0.646,5.038
	c-0.36,2.11-1.616,3.124-3.772,3.048h-2.05c-2.372,0.076-3.522-1.096-3.45-3.516V34.624h3.234L310.242,45.992L310.242,45.992z
	 M296.982,51.266h-3.126V36.852c-0.216,0.312-0.54,0.782-0.97,1.406c-0.146,0.392-0.648,1.172-1.51,2.344
	c-0.216-1.718-0.432-3.32-0.648-4.806c2.444-3.67,4.276-7.81,5.5-12.422l3.342,1.056c-0.72,2.266-1.582,4.452-2.588,6.562V51.266
	L296.982,51.266z M308.41,26.422l2.048-2.226c0.144,0.078,0.36,0.234,0.648,0.468c1.076,0.782,2.264,1.758,3.558,2.93l-2.156,2.578
	C311.068,28.766,309.704,27.516,308.41,26.422z M299.678,51.382l-2.48-2.694c3.88-3.906,5.892-8.828,6.038-14.766h-4.852V30.64
	h4.958c0.072-2.498,0.108-4.88,0.108-7.148h3.234c0,3.126-0.036,5.508-0.106,7.148h9.702v3.282h-9.812
	C306.254,40.954,303.99,46.774,299.678,51.382z M281.78,44h-18.652v-3.398h18.652V44z M288.788,30.406h-18.22l-0.216,3.516h17.142
	c-0.144,3.672-0.322,7.382-0.538,11.132c-0.072,4.062-2.048,6.016-5.93,5.86c-0.72,0-1.762,0.038-3.126,0.118
	c-1.224,0-2.122,0-2.696,0c0-0.158-0.038-0.352-0.108-0.586c-0.144-0.782-0.36-1.798-0.646-3.048c1.148,0.08,2.91,0.118,5.282,0.118
	c2.516,0.158,3.736-0.82,3.666-2.93c0.216-2.42,0.358-4.844,0.43-7.266h-17.25l1.08-13.946h3.45l-0.216,3.634h17.896V30.406
	L288.788,30.406z M256.876,42.946h-7.762v4.1h7.762V42.946z M259.894,51.382h-3.018V49.86h-7.762v1.522h-3.128V39.898h13.908V51.382
	z M249.76,28.882c1.006,1.798,2.12,3.164,3.342,4.102c1.51-1.172,2.732-2.538,3.666-4.102H249.76z M248.036,31.344
	c-0.72,0.938-1.474,1.836-2.264,2.696l-1.618-2.228h-2.264v2.696c0.79,0.548,1.724,1.33,2.802,2.344
	c2.3-0.704,4.24-1.446,5.822-2.228C249.58,33.688,248.752,32.594,248.036,31.344z M255.906,34.624
	c1.652,0.704,3.667,1.29,6.036,1.758c-0.072,0.314-0.214,0.822-0.43,1.524c-0.216,0.86-0.396,1.486-0.54,1.876
	c-3.45-0.938-6.074-1.992-7.87-3.164c-2.228,1.25-4.924,2.342-8.086,3.28c-0.144-0.234-0.216-0.468-0.216-0.702l-0.862,1.406
	c-0.646-0.78-1.33-1.524-2.048-2.228v13.008h-3.018V38.844c-0.72,2.188-1.618,4.18-2.696,5.976c-0.072-0.468-0.18-1.248-0.324-2.344
	c-0.216-1.092-0.36-1.874-0.43-2.344c1.364-2.342,2.514-5.116,3.45-8.32h-2.912v-3.046h2.912v-5.508h3.018v5.508h2.696v2.226
	c2.01-2.264,3.592-4.842,4.742-7.734l3.344,0.352c-0.362,0.782-0.756,1.602-1.186,2.46h9.056V29
	C259.248,31.188,257.702,33.064,255.906,34.624z M229.922,50.914h-3.342V35.328h3.342V50.914z M219.142,38.844V35.21h3.234v3.868
	c0.286,5.548-1.186,9.686-4.42,12.422c-0.216-0.158-0.576-0.468-1.078-0.938c-0.72-0.626-1.26-1.094-1.618-1.406
	C218.064,47.046,219.356,43.61,219.142,38.844z M214.074,51.266h-3.126V36.968c-0.288,0.704-0.828,1.682-1.618,2.93
	c-0.288,0.47-0.504,0.82-0.646,1.056c-0.288-1.718-0.54-3.32-0.756-4.806c2.3-3.906,3.99-8.162,5.068-12.774l3.234,0.938
	c-0.576,2.11-1.294,4.142-2.156,6.094V51.266L214.074,51.266z M234.236,32.868c-0.504,1.094-0.972,2.226-1.402,3.398
	c-3.522-2.266-6.218-5.04-8.086-8.32c-1.726,2.97-4.458,5.82-8.194,8.554c-0.146-0.312-0.36-0.742-0.648-1.29
	c-0.36-0.858-0.682-1.522-0.97-1.992c4.026-2.578,6.828-5.818,8.41-9.726l3.666,0.234c-0.072,0.158-0.18,0.352-0.324,0.586
	c-0.144,0.314-0.252,0.548-0.324,0.704C228.448,28.454,231.072,31.07,234.236,32.868z"/>
<path fill="#FFFFFF" d="M237.2,109.484v-1.406h165.6v1.406H237.2z M394.176,96.126c1.508-1.172,3.088-2.618,4.742-4.336l2.05,1.992
	c-2.014,2.106-3.92,3.905-5.714,5.39c0.574,1.721,1.364,2.578,2.372,2.578c0.502,0,0.896-0.428,1.184-1.29
	c0.219-0.937,0.471-2.108,0.759-3.514c0.142,0.077,0.394,0.194,0.754,0.35c0.859,0.548,1.472,0.9,1.834,1.056
	c-0.218,1.406-0.504,2.656-0.864,3.75c-0.576,2.03-1.796,3.047-3.664,3.047c-2.086,0.078-3.774-1.25-5.068-3.983
	c-1.798,1.015-3.846,2.03-6.146,3.046l-1.188-2.227c-1.438,0.312-3.771,0.779-7.008,1.406c-0.79,0.155-1.397,0.273-1.832,0.353
	l-0.54-3.164c0.36-0.076,1.042-0.194,2.052-0.353c3.448-0.547,5.931-0.977,7.438-1.287c0,0.312-0.036,0.701-0.108,1.172
	c0,0.468,0,0.818,0,1.054c2.372-1.015,4.423-2.03,6.146-3.046c-0.576-2.11-0.938-3.868-1.078-5.273l-4.204,0.586l-0.432-3.049
	l4.204-0.586c-0.072-1.092-0.183-2.146-0.322-3.164l-3.344,0.354l-0.214-1.875c-2.591,4.377-4.425,7.383-5.5,9.021
	c1.438-0.232,3.054-0.428,4.852-0.586c0,0.314-0.036,0.782-0.108,1.408c0,0.626-0.033,1.094-0.105,1.406
	c-3.664,0.468-6.29,0.859-7.87,1.172l-0.97-2.696c0.79-0.624,1.438-1.328,1.938-2.11c0.072-0.074,0.183-0.271,0.324-0.586
	c0.502-0.701,1.078-1.678,1.726-2.93c-1.363,0-2.588,0.118-3.665,0.354l-0.86-2.932c0.502-0.468,0.97-1.054,1.397-1.756
	c1.15-2.11,2.336-4.648,3.561-7.618l3.128,1.054c-0.792,1.486-1.906,3.516-3.344,6.094c-0.576,0.938-0.973,1.602-1.188,1.991
	l2.696-0.115l1.51-2.931l2.372,1.173v-0.471l3.559-0.469c-0.146-2.03-0.217-4.062-0.217-6.094h3.126c0,2.11,0.07,4.024,0.217,5.742
	l4.638-0.586c-0.576-0.546-1.477-1.328-2.696-2.344c-0.36-0.234-0.612-0.428-0.754-0.586l1.938-2.108
	c0.359,0.234,0.861,0.626,1.512,1.172c0.934,0.626,1.614,1.132,2.048,1.521l-1.94,2.344l3.561-0.468l0.32,2.929l-8.517,1.055
	c0,0.393,0.036,0.9,0.108,1.523c0,0.781,0.032,1.328,0.105,1.641l8.732-1.406l0.322,3.046l-8.626,1.408
	C393.528,93.782,393.814,95.032,394.176,96.126z M374.338,103.859l-3.234,1.055c-0.432-1.25-1.113-2.93-2.05-5.038
	c-0.214-0.392-0.357-0.704-0.43-0.938l3.018-0.703C372.576,100.032,373.476,101.908,374.338,103.859z M366.252,101.398
	c0.43,1.094,0.754,1.951,0.97,2.576l-3.231,0.704c-0.504-1.72-1.116-3.554-1.834-5.508l3.128-0.468
	C365.496,99.33,365.82,100.227,366.252,101.398z M360.43,104.445l-3.231,0.469c-0.074-0.234-0.146-0.548-0.216-0.938
	c-0.435-1.719-0.828-3.279-1.188-4.687l3.02-0.353L360.43,104.445z M354.068,99.29c-0.36,1.25-1.008,3.006-1.94,5.272
	c-0.144,0.39-0.252,0.662-0.324,0.818l-3.126-0.818c1.006-2.108,1.76-4.062,2.267-5.858L354.068,99.29z M355.362,93.664
	c0.069,2.502-0.862,3.79-2.805,3.868c-1.075,0-2.086,0-3.02,0c0-0.078,0-0.194,0-0.353c-0.072-0.705-0.214-1.601-0.43-2.695
	c0.43,0.08,1.109,0.117,2.048,0.117c0.859,0,1.294-0.471,1.294-1.406v-2.344l-3.561,0.701l-0.432-3.279
	c1.364-0.155,2.696-0.353,3.99-0.586V84.17H349v-3.048h3.45v-3.75h2.91v3.75h2.693v3.048h-2.693v2.931c0.069,0,0.144,0,0.216,0
	c0.79-0.078,1.618-0.233,2.479-0.471c0,1.02,0,2.072,0,3.164l-2.693,0.471L355.362,93.664L355.362,93.664L355.362,93.664z
	 M374.554,91.672c-0.071,0.626-0.182,1.564-0.321,2.812c-0.435,2.031-1.366,3.049-2.807,3.049c-1.87-0.078-2.948-1.563-3.231-4.454
	c-0.072-0.858-0.146-1.952-0.219-3.282c0-1.092,0-3.006,0-5.742h-2.802c0,1.486-0.216,3.244-0.646,5.274
	c0.285,0.233,0.682,0.51,1.186,0.819c0.79,0.549,1.402,0.979,1.834,1.291l-1.618,3.045c-0.859-0.701-1.724-1.365-2.588-1.991
	c-1.078,1.954-2.586,3.828-4.525,5.626c-0.219-0.236-0.576-0.586-1.078-1.057c-0.504-0.547-0.9-0.977-1.188-1.287
	c2.013-1.644,3.45-3.358,4.313-5.156l-2.586-1.876l1.508-2.46c0.216,0.156,0.502,0.312,0.864,0.468
	c0.142,0.158,0.535,0.431,1.186,0.819c0.286-1.092,0.43-2.264,0.43-3.516h-3.018v-3.047h3.126c0-1.562,0-2.772,0-3.634h2.912
	c0,1.172,0,2.386,0,3.634h5.604c0,3.672,0,6.21,0,7.618c0.07,1.718,0.145,3.086,0.217,4.101c0.144,0.861,0.357,1.33,0.646,1.405
	c0.358,0,0.574-0.39,0.646-1.172c0.145-0.937,0.253-2.187,0.322-3.75c0.36,0.158,0.898,0.392,1.618,0.704
	c0.216,0.078,0.358,0.118,0.43,0.118C374.696,90.424,374.624,90.968,374.554,91.672z M322.372,94.132
	c-0.216-0.39-0.504-1.014-0.862-1.874c-0.216-0.39-0.359-0.703-0.432-0.938c4.528-0.78,8.122-1.992,10.782-3.633h-6.254v-2.578
	h16.277v2.578h-5.604c-0.938,0.547-1.834,1.133-2.696,1.758c0.79,0.937,1.438,1.914,1.94,2.931c2.588-1.172,5.138-2.538,7.653-4.103
	l1.616,2.693c-0.36,0.158-0.934,0.471-1.724,0.938c-1.15,0.549-2.017,0.979-2.588,1.291c1.075,3.514,3.16,6.094,6.254,7.732
	c-0.146,0.234-0.435,0.586-0.862,1.055c-0.504,0.705-0.9,1.25-1.187,1.643c-3.382-2.188-5.607-5.234-6.688-9.143l-1.399,0.586
	c0.432,1.485,0.646,3.009,0.646,4.569c0.07,3.595-1.33,5.394-4.204,5.394c-1.152,0-2.41,0-3.773,0
	c-0.217-0.938-0.469-1.916-0.755-2.932c1.148,0,2.19,0,3.126,0c1.797,0.156,2.622-0.662,2.48-2.462c0-0.546-0.038-1.054-0.108-1.521
	c-3.092,2.578-7.08,4.686-11.968,6.328c-0.072-0.158-0.144-0.354-0.216-0.586c-0.502-1.018-0.898-1.721-1.188-2.11
	c5.104-1.406,9.346-3.554,12.724-6.446c0-0.076-0.036-0.232-0.108-0.468c-0.144-0.312-0.252-0.586-0.322-0.819
	c-3.308,2.267-6.863,4.062-10.674,5.391c-0.432-0.938-0.859-1.914-1.294-2.932c4.168-0.936,7.765-2.459,10.782-4.568
	c-0.288-0.391-0.54-0.742-0.756-1.055C328.84,92.023,325.966,93.118,322.372,94.132z M342.748,83h-18.112v3.282h-3.126V80.07H332.4
	l-0.973-2.696l3.774-0.35c0.142,0.392,0.394,1.132,0.754,2.226c0.072,0.392,0.144,0.664,0.216,0.82h9.812v6.212h-3.234L342.748,83
	L342.748,83z M300.414,96.898c-0.384-0.146-0.77-0.293-1.114-0.424C299.922,96.71,300.278,96.846,300.414,96.898z M319.246,89.562
	H301.78c-0.432,0.938-0.862,1.799-1.294,2.578h16.28v3.517l-6.574,5.155l4.312,1.405l-1.834,3.4
	c-4.096-1.876-9.416-4.063-15.956-6.563l1.618-2.929c1.678,0.624,2.358,0.876,2.084,0.772c1.696,0.642,3.754,1.436,6.218,2.392
	l5.714-4.103h-15.742v-2.931c0.502-0.704,0.97-1.6,1.402-2.694h-4.852v-3.164h6.254l1.294-2.813h-6.146v-3.046h7.332
	c0.574-1.172,1.006-2.304,1.294-3.4l3.88,0.118c-0.432,1.172-0.862,2.266-1.294,3.282h12.076v3.046h-13.37
	c-0.214,0.468-0.502,1.094-0.862,1.874c-0.216,0.393-0.36,0.704-0.43,0.938h16.064L319.246,89.562L319.246,89.562z M281.296,92.844
	c2.01-1.094,3.988-2.462,5.928-4.102l1.834,2.695c-2.948,2.188-5.536,3.828-7.762,4.922v3.164c-0.074,1.483,0.574,2.188,1.94,2.107
	h2.048c1.294,0.08,2.012-0.662,2.156-2.227c0.144-0.623,0.286-1.951,0.432-3.983c0.07,0,0.144,0.04,0.216,0.118
	c1.22,0.468,2.156,0.779,2.802,0.936c-0.072,0.627-0.216,1.524-0.43,2.696c-0.146,0.938-0.254,1.64-0.324,2.11
	c-0.432,2.186-1.87,3.279-4.312,3.279h-3.558c-2.66,0.078-3.99-1.367-3.99-4.336V88.506h3.02V92.844L281.296,92.844z
	 M268.896,90.852h2.48V85.58h2.48v5.272h2.588v3.047h-2.588v3.049l2.912-0.354c0,1.406-0.038,2.461-0.108,3.164
	c-0.864,0-1.798,0.078-2.804,0.234v5.273h-3.018v-4.923l-5.176,0.587l-0.216-3.281c1.796-0.076,3.594-0.234,5.392-0.469v-3.281
	h-4.852v-3.047c0.646-2.267,1.294-4.569,1.94-6.914h-2.264v-2.813h2.912c0.358-1.326,0.646-2.616,0.862-3.866l3.126,0.352
	c-0.072,0.312-0.216,0.782-0.43,1.406c-0.216,0.938-0.396,1.64-0.54,2.108h5.068v2.813h-5.822
	C269.974,87.218,269.328,89.523,268.896,90.852z M291.86,86.282c-0.144,0.312-0.394,0.936-0.754,1.874
	c-0.36,0.703-0.576,1.172-0.646,1.406c-2.948-2.188-5.176-4.806-6.686-7.854c-1.508,2.736-3.81,5.432-6.9,8.086
	c-0.576-1.17-1.114-2.227-1.616-3.164c3.378-2.42,5.822-5.546,7.332-9.374l3.342,0.352l-0.648,1.288
	C287.08,82.102,289.274,84.564,291.86,86.282z M243.346,94.718c-0.936,4.064-1.69,7.54-2.264,10.431l-2.804-0.938
	c0.79-3.357,1.51-6.834,2.156-10.428C241.082,94.016,242.052,94.328,243.346,94.718z M240.974,86.632
	c1.22,1.173,2.048,1.994,2.48,2.462l-2.05,2.346c-1.15-1.174-2.372-2.424-3.664-3.75l2.048-2.229
	C240.004,85.695,240.398,86.088,240.974,86.632z M238.494,79.954l2.048-2.228c1.294,1.096,2.48,2.228,3.558,3.398l-2.156,2.462
	C241.152,82.648,240.004,81.438,238.494,79.954z M264.046,93.43v2.932h-3.774v5.037c0.07,2.267-1.008,3.438-3.234,3.517
	c-0.792,0-1.726,0-2.804,0l-0.538-2.931c0.862,0,1.652,0,2.372,0c0.932,0.078,1.364-0.391,1.292-1.405v-4.218h-3.988V93.43h3.988
	v-1.404l2.588-2.932h-5.606v-1.289l-0.108,0.235c-0.576-0.78-1.33-1.524-2.264-2.228l0.54-0.703h-4.528c0,1.173,0,2.385,0,3.633
	h4.636c0,3.281-0.074,7.424-0.216,12.422c0,2.266-1.008,3.436-3.02,3.516c-0.576,0-1.258,0.038-2.048,0.116l-0.646-2.928
	c0.646,0.078,1.186,0.116,1.616,0.116c0.934,0,1.438-0.547,1.51-1.642c0.144-3.124,0.216-5.976,0.216-8.554h-2.156v0.116
	c-0.146,5.938-1.152,10.468-3.02,13.594c-0.792-0.782-1.546-1.483-2.264-2.11c1.58-2.578,2.444-6.482,2.588-11.718
	c0-0.546,0-1.444,0-2.696c0.07-1.716,0.108-3.006,0.108-3.865h-1.618v-3.047h3.666c-0.072-0.624-0.288-1.562-0.646-2.812
	c-0.146-0.624-0.254-1.094-0.324-1.406l3.125-0.352c0.072,0.548,0.252,1.406,0.54,2.578c0.142,0.86,0.25,1.524,0.324,1.992h2.586
	v2.228c1.15-2.032,2.084-4.376,2.804-7.032l3.126,0.352c-0.288,1.172-0.646,2.266-1.078,3.28h6.146v2.93h-7.332
	c-0.432,0.781-0.862,1.602-1.294,2.462h7.87v3.046l-2.91,3.396v0.704L264.046,93.43L264.046,93.43z"/>
<path fill="#FFFFFF" d="M500.855,142.695c2.44-0.077,3.698-1.795,3.771-5.155c-0.072-3.204-1.33-4.845-3.771-4.922
	c-3.021,0.077-4.565,1.562-4.638,4.452C496.29,140.744,497.836,142.618,500.855,142.695z M500.964,124.296
	c-3.236-0.076-4.816,2.424-4.744,7.5c1.148-1.716,2.805-2.578,4.958-2.578c4.528,0.236,6.9,2.972,7.116,8.204
	c-0.288,5.314-2.768,8.124-7.438,8.438c-5.606,0.156-8.374-3.789-8.305-11.836c0-8.828,2.838-13.24,8.519-13.24
	c3.521,0.155,5.819,2.069,6.897,5.741l-3.45,1.055C503.944,125.314,502.758,124.22,500.964,124.296z M482.204,124.18
	c-2.014,0.234-3.092,1.33-3.234,3.28c0.07,2.502,1.188,3.792,3.343,3.868c2.086-0.076,3.161-1.288,3.233-3.633
	C485.402,125.586,484.288,124.414,482.204,124.18z M478,138.828c0.214,2.422,1.652,3.75,4.312,3.984
	c2.589-0.156,3.986-1.406,4.202-3.752c-0.069-2.969-1.51-4.49-4.312-4.568C479.544,134.727,478.142,136.174,478,138.828z
	 M486.3,132.852c2.519,1.019,3.844,3.088,3.99,6.211c-0.216,4.299-2.876,6.563-7.979,6.799c-5.177-0.157-7.868-2.5-8.087-7.031
	c0.07-2.891,1.402-4.882,3.988-5.979c-1.87-1.172-2.874-2.89-3.018-5.153c0.355-4.377,2.693-6.682,7.008-6.914
	c4.312,0.312,6.684,2.656,7.116,7.028C489.174,130,488.168,131.68,486.3,132.852z M467.434,132.618
	c2.874,1.25,4.351,3.204,4.42,5.856c-0.285,4.688-2.909,7.149-7.867,7.385c-4.458-0.08-7.08-2.268-7.87-6.563l3.664-0.937
	c0.288,2.732,1.618,4.143,3.987,4.219c2.946,0.078,4.387-1.366,4.313-4.336c-0.216-2.344-1.654-3.555-4.313-3.633h-2.693v-3.399
	h1.834c2.729,0,4.166-1.248,4.312-3.75c-0.069-2.03-1.147-3.084-3.231-3.164c-2.086,0.158-3.344,1.448-3.774,3.868l-3.666-0.938
	c1.006-4.22,3.45-6.366,7.332-6.443c4.6,0.078,6.97,2.344,7.116,6.796C470.992,129.922,469.806,131.602,467.434,132.618z
	 M445.764,124.18c-2.014,0.234-3.092,1.33-3.233,3.28c0.069,2.502,1.186,3.792,3.344,3.868c2.082-0.076,3.16-1.288,3.234-3.633
	C448.96,125.586,447.846,124.414,445.764,124.18z M441.558,138.828c0.219,2.422,1.654,3.75,4.314,3.984
	c2.586-0.156,3.988-1.406,4.204-3.752c-0.072-2.969-1.51-4.49-4.313-4.568C443.104,134.727,441.702,136.174,441.558,138.828z
	 M449.86,132.852c2.516,1.019,3.844,3.088,3.987,6.211c-0.216,4.299-2.876,6.563-7.978,6.799c-5.176-0.157-7.872-2.5-8.086-7.031
	c0.069-2.891,1.397-4.882,3.988-5.979c-1.87-1.172-2.876-2.89-3.021-5.153c0.358-4.377,2.694-6.682,7.008-6.914
	c4.313,0.312,6.687,2.656,7.114,7.028C452.734,130,451.728,131.68,449.86,132.852z M430.992,132.618
	c2.874,1.25,4.348,3.204,4.422,5.856c-0.288,4.688-2.912,7.149-7.872,7.385c-4.456-0.08-7.08-2.268-7.87-6.563l3.666-0.937
	c0.286,2.732,1.618,4.143,3.99,4.219c2.946,0.078,4.382-1.366,4.312-4.336c-0.216-2.344-1.651-3.555-4.312-3.633h-2.696v-3.399
	h1.832c2.732,0,4.168-1.248,4.314-3.75c-0.074-2.03-1.152-3.084-3.236-3.164c-2.084,0.158-3.342,1.448-3.772,3.868l-3.666-0.938
	c1.009-4.22,3.45-6.366,7.332-6.443c4.601,0.078,6.973,2.344,7.114,6.796C434.55,129.922,433.364,131.602,430.992,132.618z
	 M412.988,132.618c2.874,1.25,4.348,3.204,4.42,5.856c-0.288,4.688-2.91,7.149-7.87,7.385c-4.458-0.08-7.08-2.268-7.87-6.563
	l3.666-0.937c0.286,2.732,1.616,4.143,3.988,4.219c2.943,0.078,4.384-1.366,4.312-4.336c-0.216-2.344-1.653-3.555-4.312-3.633
	h-2.694v-3.399h1.832c2.73,0,4.168-1.248,4.313-3.75c-0.072-2.03-1.15-3.084-3.234-3.164c-2.086,0.158-3.342,1.448-3.774,3.868
	l-3.664-0.938c1.006-4.22,3.45-6.366,7.33-6.443c4.603,0.078,6.975,2.344,7.116,6.796
	C416.546,129.922,415.36,131.602,412.988,132.618z M391.75,142.695c2.442-0.077,3.7-1.795,3.771-5.155
	c-0.071-3.204-1.329-4.845-3.771-4.922c-3.021,0.077-4.566,1.562-4.636,4.452C387.184,140.744,388.729,142.618,391.75,142.695z
	 M391.856,124.296c-3.234-0.076-4.816,2.424-4.742,7.5c1.146-1.716,2.802-2.578,4.958-2.578c4.525,0.236,6.897,2.972,7.114,8.204
	c-0.286,5.314-2.769,8.124-7.438,8.438c-5.608,0.156-8.374-3.789-8.302-11.836c0-8.828,2.838-13.24,8.516-13.24
	c3.522,0.155,5.822,2.069,6.9,5.741l-3.45,1.055C394.838,125.314,393.652,124.22,391.856,124.296z M373.098,124.18
	c-2.014,0.234-3.092,1.33-3.231,3.28c0.067,2.502,1.186,3.792,3.342,3.868c2.084-0.076,3.162-1.288,3.234-3.633
	C376.294,125.586,375.182,124.414,373.098,124.18z M368.892,138.828c0.219,2.422,1.654,3.75,4.314,3.984
	c2.586-0.156,3.988-1.406,4.204-3.752c-0.072-2.969-1.51-4.49-4.313-4.568C370.438,134.727,369.036,136.174,368.892,138.828z
	 M377.194,132.852c2.516,1.019,3.844,3.088,3.987,6.211c-0.216,4.299-2.876,6.563-7.978,6.799c-5.176-0.157-7.87-2.5-8.086-7.031
	c0.07-2.891,1.399-4.882,3.988-5.979c-1.87-1.172-2.876-2.89-3.021-5.153c0.358-4.377,2.696-6.682,7.008-6.914
	c4.313,0.312,6.687,2.656,7.116,7.028C380.068,130,379.062,131.68,377.194,132.852z M341.616,136.602
	c-2.519,2.032-4.313,3.866-5.393,5.51c4.456,0,8.017,0,10.677,0v3.279h-15.202v-2.345c1.649-3.28,4.06-6.17,7.224-8.67
	c3.162-2.422,4.67-4.571,4.528-6.446c0-2.344-1.294-3.516-3.882-3.516c-2.017,0.078-3.345,1.406-3.99,3.984l-3.45-1.643
	c1.366-3.983,3.99-5.976,7.872-5.976c4.454,0.232,6.826,2.537,7.114,6.913C347.474,130.82,345.64,133.79,341.616,136.602z
	 M321.456,124.18c-2.014,0.234-3.092,1.33-3.234,3.28c0.07,2.502,1.188,3.792,3.344,3.868c2.084-0.076,3.159-1.288,3.231-3.633
	C324.652,125.586,323.54,124.414,321.456,124.18z M317.25,138.828c0.216,2.422,1.654,3.75,4.314,3.984
	c2.586-0.156,3.985-1.406,4.201-3.752c-0.069-2.969-1.51-4.49-4.312-4.568C318.796,134.727,317.394,136.174,317.25,138.828z
	 M325.552,132.852c2.519,1.019,3.847,3.088,3.99,6.211c-0.216,4.299-2.876,6.563-7.978,6.799c-5.178-0.157-7.873-2.5-8.088-7.031
	c0.07-2.891,1.4-4.882,3.988-5.979c-1.87-1.172-2.876-2.89-3.018-5.153c0.356-4.377,2.692-6.682,7.008-6.914
	c4.312,0.312,6.684,2.656,7.116,7.028C328.426,130,327.42,131.68,325.552,132.852z M305.284,136.602
	c-2.518,2.032-4.312,3.866-5.392,5.51c4.456,0,8.014,0,10.674,0v3.279h-15.202v-2.345c1.654-3.28,4.06-6.17,7.224-8.67
	c3.162-2.422,4.672-4.571,4.528-6.446c0-2.344-1.294-3.516-3.88-3.516c-2.014,0.078-3.344,1.406-3.99,3.984l-3.45-1.643
	c1.364-3.983,3.99-5.976,7.87-5.976c4.456,0.232,6.828,2.537,7.116,6.913C311.14,130.82,309.308,133.79,305.284,136.602z
	 M287.386,136.602c-2.516,2.032-4.312,3.866-5.39,5.51c4.456,0,8.014,0,10.674,0v3.279h-15.202v-2.345
	c1.652-3.28,4.06-6.17,7.224-8.67c3.162-2.422,4.67-4.571,4.528-6.446c0-2.344-1.294-3.516-3.882-3.516
	c-2.012,0.078-3.342,1.406-3.988,3.984l-3.45-1.643c1.364-3.983,3.988-5.976,7.87-5.976c4.456,0.232,6.828,2.537,7.116,6.913
	C293.244,130.82,291.412,133.79,287.386,136.602z M268.628,127.344l-5.822,9.024h5.822V127.344z M272.078,139.882
	c0,2.425,0,4.296,0,5.626h-3.45c0-1.33,0-3.201,0-5.626c-3.882,0-7.224,0-10.028,0v-2.692l10.782-16.405h2.696
	c0,4.609,0,9.804,0,15.586c1.364,0,2.372,0,3.018,0v3.514C274.45,139.882,273.442,139.882,272.078,139.882z M252.564,132.618
	c2.874,1.25,4.348,3.204,4.42,5.856c-0.288,4.688-2.912,7.149-7.87,7.385c-4.458-0.08-7.08-2.268-7.872-6.563l3.666-0.937
	c0.286,2.732,1.618,4.143,3.99,4.219c2.946,0.078,4.382-1.366,4.312-4.336c-0.216-2.344-1.654-3.555-4.312-3.633h-2.696v-3.399
	h1.834c2.73,0,4.166-1.248,4.312-3.75c-0.072-2.03-1.15-3.084-3.234-3.164c-2.086,0.158-3.342,1.448-3.774,3.868l-3.666-0.938
	c1.006-4.22,3.45-6.366,7.332-6.443c4.598,0.078,6.97,2.344,7.116,6.796C256.122,129.922,254.936,131.602,252.564,132.618z
	 M231.324,142.695c2.442-0.077,3.702-1.795,3.774-5.155c-0.072-3.204-1.332-4.845-3.774-4.922c-3.018,0.077-4.564,1.562-4.636,4.452
	C226.76,140.744,228.306,142.618,231.324,142.695z M231.432,124.296c-3.234-0.076-4.816,2.424-4.744,7.5
	c1.15-1.716,2.804-2.578,4.96-2.578c4.528,0.236,6.9,2.972,7.116,8.204c-0.288,5.314-2.768,8.124-7.44,8.438
	c-5.606,0.156-8.374-3.789-8.302-11.836c0-8.828,2.84-13.24,8.518-13.24c3.52,0.155,5.822,2.069,6.9,5.741l-3.45,1.055
	C234.414,125.314,233.228,124.22,231.432,124.296z M212.672,124.18c-2.012,0.234-3.09,1.33-3.234,3.28
	c0.072,2.502,1.186,3.792,3.342,3.868c2.083-0.076,3.162-1.288,3.234-3.633C215.87,125.586,214.756,124.414,212.672,124.18z
	 M208.468,138.828c0.216,2.422,1.652,3.75,4.312,3.984c2.588-0.156,3.99-1.406,4.206-3.752c-0.074-2.969-1.51-4.49-4.314-4.568
	C210.012,134.727,208.612,136.174,208.468,138.828z M216.77,132.852c2.514,1.019,3.844,3.088,3.988,6.211
	c-0.214,4.299-2.874,6.563-7.978,6.799c-5.174-0.157-7.87-2.5-8.086-7.031c0.072-2.891,1.402-4.882,3.99-5.979
	c-1.87-1.172-2.876-2.89-3.02-5.153c0.36-4.377,2.696-6.682,7.008-6.914c4.314,0.312,6.686,2.656,7.116,7.028
	C219.644,130,218.638,131.68,216.77,132.852z M186.15,134.96v-2.928h15.742v2.928H186.15z M175.478,124.18
	c-2.588,0.158-3.918,3.242-3.99,9.259c-0.072,6.404,1.294,9.49,4.098,9.259c2.73,0.153,4.06-2.933,3.988-9.259
	C179.646,127.032,178.28,123.945,175.478,124.18z M175.586,145.859c-5.248,0-7.872-4.142-7.872-12.422
	c0.144-8.279,2.732-12.5,7.764-12.655c5.246,0,7.87,4.218,7.87,12.655C183.276,141.564,180.688,145.702,175.586,145.859z
	 M159.414,136.602c-2.518,2.032-4.314,3.866-5.392,5.51c4.456,0,8.014,0,10.674,0v3.279h-15.202v-2.345
	c1.654-3.28,4.06-6.17,7.224-8.67c3.162-2.422,4.672-4.571,4.528-6.446c0-2.344-1.294-3.516-3.882-3.516
	c-2.012,0.078-3.342,1.406-3.988,3.984l-3.45-1.643c1.364-3.983,3.988-5.976,7.87-5.976c4.456,0.232,6.828,2.537,7.116,6.913
	C165.27,130.82,163.438,133.79,159.414,136.602z M139.36,124.18c-2.588,0.158-3.918,3.242-3.988,9.259
	c-0.074,6.404,1.292,9.49,4.096,9.259c2.73,0.153,4.06-2.933,3.99-9.259C143.528,127.032,142.164,123.945,139.36,124.18z
	 M139.468,145.859c-5.248,0-7.87-4.142-7.87-12.422c0.142-8.279,2.73-12.5,7.762-12.655c5.246,0,7.87,4.218,7.87,12.655
	C147.158,141.564,144.57,145.702,139.468,145.859z"/>
<path fill="#FFFFFF" d="M264.8,205.484v-1.406h110.4v1.406H264.8z M366.576,192.126c1.508-1.172,3.088-2.618,4.742-4.336l2.05,1.992
	c-2.017,2.106-3.92,3.905-5.714,5.39c0.572,1.721,1.361,2.578,2.37,2.578c0.504,0,0.896-0.428,1.186-1.29
	c0.216-0.937,0.468-2.108,0.756-3.514c0.145,0.077,0.396,0.194,0.754,0.35c0.862,0.548,1.475,0.9,1.834,1.056
	c-0.216,1.406-0.504,2.656-0.861,3.75c-0.576,2.03-1.799,3.047-3.666,3.047c-2.084,0.078-3.772-1.25-5.066-3.982
	c-1.798,1.016-3.846,2.03-6.146,3.046l-1.188-2.228c-1.438,0.312-3.771,0.779-7.008,1.406c-0.792,0.155-1.4,0.273-1.832,0.354
	l-0.54-3.164c0.36-0.076,1.042-0.194,2.05-0.354c3.45-0.547,5.93-0.977,7.438-1.287c0,0.312-0.036,0.701-0.108,1.172
	c0,0.469,0,0.818,0,1.055c2.372-1.016,4.42-2.03,6.146-3.046c-0.575-2.11-0.938-3.868-1.077-5.274l-4.204,0.588l-0.435-3.05
	l4.204-0.586c-0.07-1.092-0.18-2.146-0.32-3.164l-3.346,0.354l-0.214-1.875c-2.588,4.377-4.422,7.383-5.5,9.021
	c1.438-0.231,3.054-0.428,4.854-0.586c0,0.313-0.036,0.782-0.108,1.408c0,0.626-0.036,1.094-0.108,1.406
	c-3.663,0.468-6.288,0.858-7.867,1.172l-0.973-2.696c0.79-0.624,1.438-1.328,1.94-2.109c0.071-0.074,0.18-0.271,0.324-0.586
	c0.502-0.701,1.075-1.679,1.726-2.931c-1.368,0-2.588,0.118-3.666,0.353l-0.862-2.931c0.502-0.468,0.973-1.054,1.4-1.756
	c1.15-2.108,2.336-4.647,3.558-7.618l3.128,1.055c-0.791,1.485-1.903,3.518-3.344,6.096c-0.576,0.938-0.97,1.602-1.186,1.992
	l2.693-0.116l1.513-2.931l2.372,1.172v-0.471l3.558-0.469c-0.146-2.029-0.216-4.062-0.216-6.094h3.126
	c0,2.107,0.07,4.021,0.216,5.74l4.636-0.586c-0.575-0.547-1.474-1.327-2.693-2.344c-0.36-0.233-0.612-0.429-0.756-0.586l1.939-2.106
	c0.36,0.231,0.862,0.625,1.51,1.172c0.937,0.626,1.616,1.132,2.048,1.521l-1.938,2.346l3.558-0.469l0.322,2.932l-8.516,1.054
	c0,0.392,0.034,0.899,0.105,1.524c0,0.779,0.034,1.326,0.108,1.64l8.729-1.406l0.324,3.046l-8.626,1.408
	C365.928,189.782,366.214,191.032,366.576,192.126z M346.738,199.859l-3.234,1.055c-0.432-1.25-1.116-2.93-2.05-5.038
	c-0.214-0.392-0.36-0.704-0.43-0.938l3.018-0.703C344.976,196.032,345.876,197.908,346.738,199.859z M338.652,197.398
	c0.43,1.094,0.754,1.951,0.97,2.576l-3.234,0.705c-0.504-1.722-1.114-3.556-1.834-5.51l3.128-0.468
	C337.896,195.33,338.22,196.227,338.652,197.398z M332.83,200.445l-3.234,0.469c-0.074-0.234-0.146-0.548-0.216-0.938
	c-0.432-1.72-0.828-3.279-1.186-4.688l3.018-0.354L332.83,200.445z M326.468,195.29c-0.357,1.25-1.006,3.006-1.938,5.271
	c-0.146,0.393-0.252,0.664-0.324,0.82l-3.126-0.82c1.006-2.105,1.76-4.06,2.264-5.855L326.468,195.29z M327.762,189.664
	c0.072,2.502-0.859,3.79-2.802,3.868c-1.078,0-2.086,0-3.02,0c0-0.078,0-0.194,0-0.353c-0.072-0.705-0.217-1.602-0.433-2.695
	c0.433,0.08,1.112,0.117,2.048,0.117c0.862,0,1.294-0.472,1.294-1.406v-2.344l-3.558,0.7l-0.432-3.278
	c1.364-0.155,2.693-0.354,3.987-0.586v-3.518H321.4v-3.046h3.447v-3.75h2.91v3.75h2.696v3.046h-2.696v2.932c0.072,0,0.146,0,0.216,0
	c0.79-0.078,1.618-0.233,2.48-0.472c0,1.021,0,2.072,0,3.164l-2.696,0.472v3.397L327.762,189.664L327.762,189.664z M346.954,187.672
	c-0.074,0.626-0.182,1.564-0.324,2.812c-0.432,2.031-1.366,3.049-2.804,3.049c-1.87-0.078-2.948-1.563-3.234-4.454
	c-0.072-0.858-0.144-1.952-0.216-3.282c0-1.092,0-3.006,0-5.742h-2.802c0,1.486-0.216,3.244-0.648,5.274
	c0.286,0.233,0.685,0.51,1.188,0.819c0.79,0.549,1.399,0.979,1.834,1.291l-1.618,3.045c-0.862-0.701-1.724-1.365-2.588-1.991
	c-1.078,1.954-2.586,3.827-4.528,5.626c-0.216-0.236-0.576-0.586-1.078-1.057c-0.504-0.547-0.897-0.978-1.186-1.287
	c2.012-1.645,3.45-3.358,4.312-5.156l-2.586-1.876l1.508-2.46c0.219,0.156,0.502,0.312,0.864,0.468
	c0.145,0.158,0.538,0.431,1.188,0.819c0.285-1.092,0.43-2.266,0.43-3.518h-3.02v-3.046h3.127c0-1.562,0-2.771,0-3.632h2.91
	c0,1.17,0,2.384,0,3.632h5.606c0,3.672,0,6.21,0,7.618c0.07,1.718,0.142,3.086,0.216,4.102c0.145,0.86,0.358,1.33,0.646,1.404
	c0.355,0,0.571-0.39,0.646-1.172c0.146-0.938,0.252-2.188,0.324-3.75c0.36,0.158,0.896,0.393,1.618,0.704
	c0.216,0.078,0.355,0.118,0.43,0.118C347.096,186.424,347.024,186.968,346.954,187.672z M300.27,184.742h-2.91v3.396v1.291h2.91
	V184.742z M300.27,177.359h-2.91v4.568h2.91V177.359z M300.486,200.914c-0.216,0-0.612,0-1.186,0
	c-0.72,0.076-1.258,0.118-1.618,0.118c-0.072-0.548-0.18-1.29-0.322-2.229c-0.074-0.468-0.108-0.74-0.108-0.818
	c0.286,0,0.898,0,1.832,0c0.862,0.078,1.258-0.312,1.186-1.172v-4.569h-2.91c-0.146,3.516-0.864,6.602-2.156,9.258
	c-0.288-0.313-0.684-0.782-1.186-1.406c-0.504-0.548-0.864-0.938-1.078-1.172c0.716-1.328,1.148-2.694,1.292-4.103
	c0.216-1.481,0.324-3.943,0.324-7.383v-12.893h8.41v23.205C302.966,199.626,302.138,200.68,300.486,200.914z M315.148,187.79h-4.744
	c0.718,2.108,1.546,3.905,2.479,5.39C313.674,191.93,314.43,190.132,315.148,187.79z M307.71,187.79v10.194
	c1.294-0.78,2.372-1.643,3.234-2.578c-1.01-1.482-1.979-3.633-2.912-6.446l1.834-1.17H307.71L307.71,187.79z M319.354,198.218
	c-0.576,1.017-1.078,1.992-1.51,2.931c-1.652-0.938-3.308-2.068-4.96-3.396c-1.078,1.016-2.442,2.109-4.096,3.282l-1.078-1.876
	v2.226h-2.912v-26.718h13.046c0,0.548-0.038,1.33-0.106,2.344c0,1.096-0.038,1.874-0.108,2.346
	c-0.072,2.578-1.294,3.864-3.666,3.864c-1.078,0-2.336,0-3.771,0c-0.074-0.468-0.218-1.13-0.434-1.991
	c0-0.311-0.038-0.586-0.106-0.818c0.934,0.078,1.938,0.117,3.018,0.117c1.366,0.078,2.05-0.432,2.05-1.523c0-0.546,0-1.014,0-1.406
	h-7.008v7.269h10.242v3.278c-0.792,2.894-1.834,5.313-3.128,7.268C316.046,196.578,317.556,197.516,319.354,198.218z
	 M284.638,194.938h-12.076v2.812h12.076V194.938z M287.764,201.382h-3.126v-1.172h-12.076v1.172h-3.126v-9.14h18.328V201.382z
	 M278.816,186.618c1.724-0.704,3.196-1.644,4.42-2.813h-8.41C275.832,184.9,277.162,185.838,278.816,186.618z M272.24,185.21
	c-0.936,0.938-2.122,1.8-3.558,2.58c-0.074-0.156-0.216-0.353-0.432-0.586c-0.216-0.313-0.684-0.897-1.402-1.759
	c3.162-1.644,5.57-3.635,7.224-5.979l3.342,0.236c-0.072,0.078-0.144,0.194-0.216,0.35c-0.288,0.314-0.576,0.666-0.862,1.058h10.996
	v2.812c-1.724,1.722-3.378,3.046-4.958,3.984c2.372,0.548,5.352,0.858,8.948,0.938c-0.504,1.33-0.828,2.386-0.97,3.164
	c-5.606-0.624-9.488-1.405-11.644-2.344c-2.732,1.172-6.83,2.108-12.29,2.812c-0.216-1.015-0.54-2.029-0.972-3.047
	c4.026-0.312,7.296-0.818,9.812-1.521C274.18,187.204,273.172,186.307,272.24,185.21z M287.548,179h-17.896v3.282h-3.128v-6.095
	h10.566l-0.646-2.812l3.666-0.236c0.214,0.862,0.43,1.877,0.646,3.049h9.918v6.096h-3.126V179z"/>
<path fill="#FFFFFF" d="M421.182,220.18c-2.014,0.234-3.092,1.33-3.231,3.28c0.067,2.502,1.186,3.792,3.342,3.868
	c2.084-0.076,3.162-1.288,3.234-3.633C424.38,221.586,423.266,220.414,421.182,220.18z M416.978,234.828
	c0.217,2.422,1.652,3.75,4.313,3.982c2.588-0.154,3.988-1.404,4.204-3.75c-0.072-2.969-1.508-4.49-4.313-4.568
	C418.521,230.727,417.12,232.174,416.978,234.828z M425.278,228.852c2.516,1.019,3.846,3.086,3.987,6.211
	c-0.216,4.299-2.876,6.563-7.978,6.799c-5.176-0.157-7.87-2.5-8.086-7.031c0.07-2.893,1.402-4.882,3.988-5.979
	c-1.87-1.172-2.874-2.89-3.021-5.153c0.358-4.378,2.696-6.683,7.008-6.914c4.313,0.312,6.687,2.653,7.116,7.028
	C428.152,226,427.148,227.68,425.278,228.852z M402.746,220.18c-2.014,0.234-3.092,1.33-3.234,3.28
	c0.07,2.502,1.188,3.792,3.342,3.868c2.086-0.076,3.162-1.288,3.234-3.633C405.944,221.586,404.83,220.414,402.746,220.18z
	 M398.542,234.828c0.214,2.422,1.652,3.75,4.312,3.982c2.591-0.154,3.988-1.404,4.204-3.75c-0.069-2.969-1.508-4.49-4.312-4.568
	C400.086,230.727,398.684,232.174,398.542,234.828z M406.842,228.852c2.519,1.019,3.849,3.086,3.99,6.211
	c-0.216,4.299-2.876,6.563-7.979,6.799c-5.176-0.157-7.867-2.5-8.086-7.031c0.07-2.893,1.402-4.882,3.988-5.979
	c-1.868-1.172-2.874-2.89-3.018-5.153c0.357-4.378,2.693-6.683,7.008-6.914c4.312,0.312,6.684,2.653,7.116,7.028
	C409.716,226,408.712,227.68,406.842,228.852z M384.31,220.18c-2.012,0.234-3.092,1.33-3.231,3.28
	c0.069,2.502,1.186,3.792,3.342,3.868c2.084-0.076,3.162-1.288,3.234-3.633C387.508,221.586,386.394,220.414,384.31,220.18z
	 M380.105,234.828c0.217,2.422,1.65,3.75,4.312,3.982c2.588-0.154,3.988-1.404,4.204-3.75c-0.072-2.969-1.508-4.49-4.313-4.568
	C381.65,230.727,380.248,232.174,380.105,234.828z M388.406,228.852c2.516,1.019,3.846,3.086,3.99,6.211
	c-0.219,4.299-2.879,6.563-7.979,6.799c-5.176-0.157-7.87-2.5-8.086-7.031c0.07-2.893,1.402-4.882,3.99-5.979
	c-1.87-1.172-2.876-2.89-3.021-5.153c0.36-4.378,2.696-6.683,7.008-6.914c4.313,0.312,6.687,2.653,7.116,7.028
	C391.28,226,390.276,227.68,388.406,228.852z M365.874,220.18c-2.012,0.234-3.09,1.33-3.234,3.28
	c0.07,2.502,1.188,3.792,3.345,3.868c2.084-0.076,3.159-1.288,3.231-3.633C369.072,221.586,367.958,220.414,365.874,220.18z
	 M361.67,234.828c0.216,2.422,1.652,3.75,4.313,3.982c2.588-0.154,3.987-1.404,4.201-3.75c-0.069-2.969-1.508-4.49-4.312-4.568
	C363.214,230.727,361.812,232.174,361.67,234.828z M369.972,228.852c2.517,1.019,3.847,3.086,3.988,6.211
	c-0.216,4.299-2.876,6.563-7.978,6.799c-5.177-0.157-7.87-2.5-8.086-7.031c0.067-2.893,1.399-4.882,3.987-5.979
	c-1.87-1.172-2.876-2.89-3.02-5.153c0.357-4.378,2.693-6.683,7.008-6.914c4.312,0.312,6.684,2.653,7.116,7.028
	C372.844,226,371.84,227.68,369.972,228.852z M339.352,230.96v-2.928h15.74v2.928H339.352z M332.236,228.618
	c2.874,1.25,4.348,3.204,4.422,5.856c-0.29,4.688-2.912,7.149-7.872,7.385c-4.456-0.079-7.08-2.268-7.87-6.563l3.666-0.937
	c0.286,2.732,1.618,4.143,3.99,4.219c2.943,0.078,4.382-1.366,4.312-4.336c-0.216-2.344-1.653-3.555-4.312-3.633h-2.696v-3.399
	h1.832c2.73,0,4.168-1.248,4.312-3.75c-0.072-2.03-1.15-3.084-3.234-3.164c-2.084,0.158-3.342,1.448-3.772,3.868l-3.666-0.938
	c1.006-4.22,3.45-6.365,7.33-6.443c4.603,0.078,6.975,2.344,7.116,6.796C335.794,225.922,334.608,227.602,332.236,228.618z
	 M310.998,238.695c2.442-0.077,3.7-1.795,3.773-5.155c-0.073-3.204-1.331-4.845-3.773-4.922c-3.021,0.077-4.566,1.562-4.636,4.452
	C306.432,236.744,307.978,238.618,310.998,238.695z M311.106,220.296c-3.234-0.076-4.816,2.424-4.744,7.5
	c1.146-1.716,2.802-2.578,4.96-2.578c4.526,0.236,6.898,2.972,7.112,8.204c-0.286,5.314-2.768,8.124-7.438,8.438
	c-5.606,0.156-8.374-3.789-8.302-11.836c0-8.828,2.838-13.24,8.518-13.24c3.521,0.154,5.822,2.068,6.9,5.74l-3.45,1.056
	C314.088,221.314,312.902,220.22,311.106,220.296z M292.346,220.18c-2.012,0.234-3.092,1.33-3.234,3.28
	c0.07,2.502,1.186,3.792,3.342,3.868c2.084-0.076,3.162-1.288,3.234-3.633C295.544,221.586,294.43,220.414,292.346,220.18z
	 M288.142,234.828c0.216,2.422,1.652,3.75,4.312,3.982c2.588-0.154,3.988-1.404,4.204-3.75c-0.072-2.969-1.508-4.49-4.312-4.568
	C289.686,230.727,288.284,232.174,288.142,234.828z M296.442,228.852c2.516,1.019,3.846,3.086,3.99,6.211
	c-0.216,4.299-2.876,6.563-7.978,6.799c-5.176-0.157-7.87-2.5-8.086-7.031c0.07-2.893,1.402-4.882,3.99-5.979
	c-1.87-1.172-2.876-2.89-3.02-5.153c0.36-4.378,2.696-6.683,7.008-6.914c4.312,0.312,6.684,2.653,7.116,7.028
	C299.316,226,298.312,227.68,296.442,228.852z M265.824,230.96v-2.928h15.74v2.928H265.824z M255.15,220.18
	c-2.586,0.158-3.918,3.242-3.988,9.26c-0.072,6.404,1.294,9.49,4.096,9.259c2.732,0.153,4.06-2.933,3.99-9.259
	C259.318,223.032,257.954,219.945,255.15,220.18z M255.258,241.859c-5.246,0-7.87-4.142-7.87-12.422
	c0.144-8.279,2.732-12.5,7.762-12.655c5.246,0,7.872,4.218,7.872,12.655C262.948,237.564,260.362,241.702,255.258,241.859z
	 M236.93,220.18c-2.586,0.158-3.918,3.242-3.988,9.26c-0.072,6.404,1.294,9.49,4.096,9.259c2.73,0.153,4.06-2.933,3.99-9.259
	C241.098,223.032,239.734,219.945,236.93,220.18z M237.038,241.859c-5.248,0-7.87-4.142-7.87-12.422
	c0.144-8.279,2.73-12.5,7.762-12.655c5.246,0,7.87,4.218,7.87,12.655C244.728,237.564,242.14,241.702,237.038,241.859z
	 M220.004,223.344l-5.822,9.024h5.822V223.344z M223.454,235.882c0,2.425,0,4.296,0,5.626h-3.45c0-1.33,0-3.201,0-5.626
	c-3.882,0-7.224,0-10.026,0v-2.692l10.78-16.405h2.696c0,4.608,0,9.804,0,15.586c1.364,0,2.372,0,3.018,0v3.514
	C225.826,235.882,224.818,235.882,223.454,235.882z"/>
</svg>
