<svg xmlns="http://www.w3.org/2000/svg" width="640" height="100" viewBox="0 0 640 100"><path fill="#FEF699" d="M235.74 62.562c-.69 1.626-1.524 3.281-2.501 4.969l-1.639-.75c.056-.126.172-.344.345-.656 1.035-1.749 1.753-3.124 2.156-4.125l1.639.562zm-1.552-2.063v-7.969h6.555v-7.312h1.812v2.719h9.487v1.688h-9.487v2.906h7.59v7.969h-15.957zm1.724-6.187v4.5h12.42v-4.5h-12.42zm3.019 12.937c-.116-.75-.403-1.844-.863-3.281-.172-.563-.288-.999-.345-1.313l1.639-.375c.69 2.188 1.149 3.688 1.38 4.5l-1.811.469zm5.52-.281c-.172-.688-.604-1.875-1.294-3.563-.172-.437-.288-.75-.345-.938l1.639-.375c.69 1.751 1.264 3.219 1.725 4.406l-1.725.47zm6.124.281c-.403-.938-1.179-2.499-2.329-4.688l1.639-.656c.172.375.546 1.125 1.121 2.25.632 1.187 1.035 1.969 1.208 2.344l-1.639.75zm5.675-16.312v-1.687h8.021v-3.938h1.811v3.938h8.021v1.687h-8.021v4.313h9.488v1.781h-9.488v7.781h5.779v-5.532h1.812v8.438h-1.812v-1.406h-15.18v-7.032h1.811v5.531h5.779v-7.781h-9.487v-1.781h9.487v-4.313h-8.021zm21.976.468v-1.687h2.501v-4.218h1.639v4.219h2.07v1.687h-2.07v4.969l2.415-.75c0 .188.028.469.086.844v.938l-2.501.844v6.75c.057 1.5-.604 2.312-1.984 2.438h-1.983l-.259-1.406c-.058-.188-.086-.344-.086-.469.172 0 .459.031.863.094h.776c.747-.063 1.092-.407 1.035-1.031v-5.906c-.862.375-1.725.688-2.587.938l-.259-1.969c.862-.312 1.811-.593 2.846-.844v-5.438h-2.502zm6.986.75v-1.406c.057-.312.173-.78.345-1.406.287-1.313.459-2.281.518-2.906l1.552.281c-.172.563-.375 1.438-.604 2.625l-.259 1.125h2.76c.345-1.561.604-3.281.776-5.156l1.639.188c-.172 1.688-.431 3.344-.776 4.968h7.504v1.688h-7.849c-.23 1.001-.489 1.969-.776 2.906h7.676v1.781c-.862 2.625-2.07 4.781-3.623 6.469 1.092.876 2.702 1.688 4.83 2.438-.116.313-.403.781-.862 1.406-.058.188-.116.313-.173.375-2.07-1-3.738-2.031-5.002-3.094-1.61 1.25-3.652 2.375-6.124 3.375l-.69-1.125c-.173-.25-.289-.438-.345-.563 2.702-.813 4.686-1.781 5.951-2.906-1.093-1.313-2.042-2.937-2.846-4.875-1.035 2.625-2.617 5.25-4.744 7.875-.403-.563-.748-1-1.035-1.313 3.047-3.75 5.059-7.999 6.038-12.75h-3.881zm7.676 9.938c1.322-1.374 2.357-3.155 3.105-5.344h-6.124c.863 2.376 1.868 4.157 3.019 5.344zm3.882-12.468c-1.035-.938-2.1-1.843-3.191-2.719l1.035-1.125c.287.25.747.595 1.38 1.031.805.688 1.437 1.219 1.897 1.594l-1.121 1.219zm4.649 2.062v-1.781h3.278v-4.406h1.811v4.406h2.933v1.781h-2.933v4.688c.518-.124 1.294-.343 2.329-.656.402-.124.69-.218.863-.281 0 .188.028.501.086.938 0 .438.028.75.086.938l-3.364.938v6.656c0 1.625-.776 2.469-2.329 2.531h-2.329c-.173-.813-.317-1.438-.432-1.875h2.07c.862 0 1.264-.375 1.208-1.125v-5.625l-3.364 1.031-.345-1.969 3.709-1.031v-5.156h-3.277zm8.711-2.625v-1.875h11.816v1.875h-3.622v14.812c.057 2.312-.979 3.469-3.105 3.469h-3.278c0-.063-.029-.188-.086-.375-.058-.688-.145-1.219-.259-1.594.518.062 1.466.094 2.846.094 1.437.062 2.126-.624 2.07-2.063v-14.343h-6.382zm18.267 16.875c-.172.125-.431.406-.776.844l-1.293-1.594c.518-.437.775-1.125.775-2.063v-8.156h-2.76v-1.781h4.571v10.031c.401-.312 1.006-.812 1.812-1.5.805-.687 1.38-1.187 1.725-1.5.057.188.115.469.173.844.173.563.287.97.345 1.219-.23.188-.604.501-1.121.938-1.323 1.063-2.329 1.813-3.019 2.25l-.432.468zm.518-15.188c-.518-.687-1.323-1.687-2.415-3l-.862-.938 1.38-1.125c1.149 1.251 2.299 2.5 3.45 3.75l-1.553 1.313zm3.106-1.781v-1.875h13.196v1.875h-4.141v14.906c.115 2.25-.92 3.375-3.104 3.375h-1.553c-.862.062-1.496.094-1.897.094-.116-.75-.259-1.406-.432-1.969h1.381c.804.062 1.38.094 1.725.094 1.437.062 2.127-.624 2.07-2.063v-14.437h-7.245zm23.528 17.719c-1.151-1.313-2.301-2.655-3.45-4.031-.518 1.626-1.755 3.313-3.709 5.063-.345-.563-.689-1.031-1.034-1.406 1.667-1.313 2.76-2.625 3.277-3.938s.776-3.312.776-6v-6h1.38v6.094c0 1.688-.087 3.188-.259 4.5l1.983 2.156c.919.938 1.639 1.657 2.156 2.156l-1.12 1.406zm-7.072-5.813v-14.343h7.245v14.156h-1.38v-12.469h-4.485v12.656h-1.38zm10.608-10.5c-.518 1.188-1.093 2.407-1.725 3.656-.116-.124-.346-.312-.69-.563-.288-.249-.518-.437-.689-.563 1.437-2.438 2.529-4.968 3.277-7.593l1.553.375c-.116.313-.289.813-.518 1.5-.23.625-.403 1.125-.518 1.5h7.849c0 1.063-.03 2.812-.087 5.25-.058 5.063-.115 8.313-.172 9.75 0 2.312-1.151 3.469-3.45 3.469l-3.622.094c-.059-.625-.173-1.251-.346-1.875.69.062 1.812.094 3.364.094 1.667.062 2.501-.687 2.501-2.25.114-3.812.173-8.093.173-12.844h-6.9zm-.518 11.531c-.575.063-1.064.157-1.466.281l-.776-1.5c.518-.375.891-.874 1.121-1.5.919-2.063 1.753-4.313 2.501-6.75l1.467.563c-.921 2.501-1.897 4.938-2.933 7.313 1.38-.062 2.76-.188 4.14-.375l-1.553-3.375 1.294-.656c.633 1.5 1.523 3.563 2.674 6.188l-1.294.656c-.058-.124-.144-.343-.259-.656l-.259-.563c-2.185.125-3.738.25-4.657.374zm24.046 5.063c-2.128.062-3.162-1-3.104-3.188v-2.438h-6.038v1.594h-1.725v-14.624h7.763v-3h1.725v3h7.763v13.031h-7.763v2.156c-.058 1.251.604 1.843 1.984 1.781h3.881c1.322.062 2.07-.437 2.242-1.5.173-.874.315-1.781.432-2.719.057 0 .143.032.259.094.632.251 1.121.438 1.466.563-.058.688-.202 1.532-.431 2.531-.059.313-.116.532-.173.656-.23 1.438-1.352 2.124-3.363 2.063h-4.918zm-9.142-16.875v3.844h6.038v-3.844h-6.038zm0 5.531v3.938h6.038v-3.938h-6.038zm13.8-5.531h-6.038v3.844h6.038v-3.844zm-6.038 9.469h6.038v-3.938h-6.038v3.938zm16.456 6.75c-.402.375-.748.718-1.035 1.031l-1.121-1.594c.574-.501.833-1.187.776-2.063v-8.719h-2.415v-1.687h4.054v10.781c.115-.124.287-.281.518-.469.978-.75 1.639-1.313 1.984-1.688.114.813.2 1.532.259 2.156-1.266.878-2.272 1.627-3.02 2.252zm0-15.657c-.92-1.437-1.897-2.749-2.933-3.937l1.467-1.031c.977 1.125 1.983 2.376 3.019 3.75l-1.553 1.218zm8.798-2.249c-1.725 0-3.536.063-5.434.188 0-.249-.059-.656-.173-1.219-.058-.249-.086-.437-.086-.563 4.313-.062 8.539-.249 12.679-.563l.259 1.688c-.575 0-1.467.063-2.674.188-1.208.063-2.128.126-2.76.188v3.937h6.382v1.688h-6.382v3.844h4.743v9.938h-1.725v-1.594h-7.849v1.594h-1.726v-9.94h4.744v-3.844h-6.642v-1.688h6.642v-3.842h.002zm-3.018 11.062v5.156h7.849v-5.156h-7.849z"/><path fill="#F4EDED" d="M323.382 18.104l-2.138-2.104-2.14 2.104 2.14-2.104 2.138 2.104zm-4.278 0l2.14-2.104 9.756 9.922-2.14 2.104-9.756-9.922m-4.964 9.4l-2.14-2.104 9.244-9.4 2.138 2.104-9.242 9.4"/></svg>