<?xml version="1.0" encoding="utf-8"?>
<!-- Generator: Adobe Illustrator 16.0.0, SVG Export Plug-In . SVG Version: 6.00 Build 0)  -->
<!DOCTYPE svg PUBLIC "-//W3C//DTD SVG 1.1//EN" "http://www.w3.org/Graphics/SVG/1.1/DTD/svg11.dtd">
<svg version="1.1" id="图层_1" xmlns="http://www.w3.org/2000/svg" xmlns:xlink="http://www.w3.org/1999/xlink" x="0px" y="0px"
	 width="640px" height="86.75px" viewBox="0 0 640 86.75" enable-background="new 0 0 640 86.75" xml:space="preserve">
<path fill="#FFF695" d="M212.405,40.157v-5.469h2.616V16.313h5.031c0.132-0.581,0.333-1.531,0.604-2.844
	c0.132-1.166,0.267-2.041,0.402-2.625l5.635,0.438c0,0.294-0.069,0.656-0.201,1.094c-0.271,0.875-0.673,2.188-1.208,3.938h6.843
	v40.469c0,0.581-0.069,1.166-0.201,1.75c3.89-3.791,5.635-10.134,5.232-19.031v-8.75h16.301v23.625c0,1.459,0.468,2.116,1.409,1.969
	h0.402c0.937,0.147,1.475-0.581,1.61-2.188c0.268-3.206,0.403-6.416,0.403-9.625c1.61,0.584,2.949,1.094,4.025,1.531
	c-0.271,4.375-0.538,7.803-0.805,10.281c-0.402,3.645-2.082,5.469-5.031,5.469h-2.415c-3.355,0.144-4.965-1.75-4.83-5.688V36.657
	h-5.635V39.5c0.402,10.647-1.811,18.594-6.641,23.844c-0.673-0.731-2.082-2.116-4.227-4.156c-0.402,2.188-1.946,3.353-4.628,3.5
	c-1.343,0-2.953,0-4.83,0c-0.135-0.731-0.336-1.825-0.604-3.281c-0.135-0.875-0.27-1.606-0.402-2.188c1.072,0,2.28,0,3.623,0
	c1.742,0.145,2.547-0.581,2.415-2.188V40.157h-7.245c0,9.772-1.208,17.572-3.623,23.406c-1.88-1.75-3.289-3.138-4.226-4.156
	c2.013-4.666,2.95-11.081,2.817-19.25H212.405z M220.052,21.563v13.125h7.245V21.563H220.052z M223.071,32.719
	c-0.403-1.166-1.006-2.697-1.812-4.594c-0.402-1.166-0.739-2.041-1.006-2.625l3.421-1.969c0.268,0.584,0.67,1.459,1.208,2.625
	c0.937,1.896,1.61,3.356,2.013,4.375L223.071,32.719z M223.272,52.188l-3.019-7.656l3.623-1.969c0.402,1.022,1.072,2.7,2.013,5.031
	c0.535,1.169,0.937,2.044,1.208,2.625L223.272,52.188z M234.14,24.844v-5.906h9.459c-0.271-0.875-0.673-2.188-1.208-3.938
	c-0.402-1.313-0.739-2.331-1.006-3.063l6.239-0.875c0.402,1.313,0.937,3.063,1.61,5.25c0.403,1.169,0.67,2.044,0.805,2.625h9.257
	v5.906L234.14,24.844L234.14,24.844z M300.077,55.469c-3.355,1.894-7.179,3.791-11.471,5.688L286.392,57
	c-2.686,0.581-7.044,1.456-13.082,2.625c-1.478,0.291-2.616,0.509-3.421,0.656l-1.006-5.906c0.67-0.144,1.943-0.362,3.824-0.656
	c6.44-1.019,11.069-1.822,13.886-2.406c0,0.584-0.069,1.313-0.201,2.188c0,0.875,0,1.531,0,1.969
	c4.427-1.894,8.251-3.791,11.471-5.688c-1.076-3.938-1.745-7.219-2.013-9.844l-7.849,1.094l-0.805-5.688l7.849-1.094
	c-0.135-2.041-0.336-4.009-0.604-5.906L288.203,29l-0.402-3.5c-4.83,8.169-8.251,13.781-10.264,16.844
	c2.682-0.438,5.701-0.8,9.056-1.094c0,0.584-0.069,1.459-0.201,2.625c0,1.169-0.069,2.044-0.201,2.625
	c-6.843,0.875-11.742,1.606-14.691,2.188l-1.811-5.031c1.475-1.166,2.682-2.478,3.622-3.938c0.132-0.144,0.333-0.509,0.604-1.094
	c0.937-1.313,2.012-3.134,3.22-5.469c-2.55,0-4.83,0.219-6.842,0.656l-1.61-5.469c0.937-0.875,1.811-1.969,2.616-3.281
	c2.145-3.938,4.358-8.675,6.641-14.219l5.836,1.969c-1.478,2.772-3.557,6.563-6.239,11.375c-1.076,1.75-1.812,2.991-2.214,3.719
	l5.031-0.219l2.817-5.469l4.428,2.188v-0.875l6.641-0.875c-0.271-3.791-0.402-7.581-0.402-11.375h5.836
	c0,3.938,0.132,7.513,0.403,10.719l8.654-1.094c-1.076-1.019-2.751-2.479-5.031-4.375c-0.673-0.438-1.142-0.8-1.409-1.094
	l3.623-3.938c0.67,0.438,1.61,1.169,2.818,2.188c1.741,1.169,3.019,2.116,3.823,2.844l-3.623,4.375l6.642-0.875l0.604,5.469
	l-15.898,1.969c0,0.731,0.066,1.678,0.201,2.844c0,1.459,0.066,2.481,0.201,3.063l16.301-2.625l0.604,5.688l-16.1,2.625
	c0.402,2.625,0.937,4.959,1.61,7c2.817-2.188,5.768-4.884,8.855-8.094l3.824,3.719c-3.759,3.938-7.314,7.294-10.667,10.063
	c1.072,3.209,2.547,4.813,4.427,4.813c0.937,0,1.676-0.8,2.214-2.406c0.402-1.75,0.871-3.938,1.409-6.563
	c0.268,0.147,0.735,0.366,1.409,0.656c1.609,1.022,2.749,1.678,3.421,1.969c-0.402,2.625-0.94,4.959-1.61,7
	c-1.076,3.791-3.354,5.688-6.843,5.688C305.643,63.05,302.492,60.572,300.077,55.469L300.077,55.469z M331.993,62.688
	c-1.479,0-3.154,0-5.031,0c-0.271-1.897-0.604-3.794-1.006-5.688c0.669,0,1.877,0,3.622,0c1.742,0,2.616-0.8,2.616-2.406V36.657
	h-6.439v-5.469h7.647c-0.94-1.166-2.214-2.697-3.824-4.594c-0.94-1.166-1.61-1.969-2.013-2.406l3.622-3.063l3.823,4.156l4.429-6.344
	h-13.081v-5.469h18.515v6.563l-7.849,11.156h8.854v5.469l-1.61,9.406c-1.343-0.438-2.752-0.656-4.227-0.656l1.409-8.75h-3.623
	v19.469C337.962,60.354,336.019,62.541,331.993,62.688L331.993,62.688z M371.036,62.907c-1.746-1.75-4.497-4.084-8.252-7
	c-1.343-1.166-2.35-2.041-3.02-2.625c-1.881,3.209-6.237,6.634-13.081,10.281c-0.401-0.584-1.007-1.459-1.812-2.625
	c-0.805-1.313-1.408-2.263-1.812-2.844c5.902-2.331,9.728-4.737,11.473-7.219c1.877-2.188,2.816-5.978,2.816-11.375l0.201-7.219
	h5.435l-0.201,7.656c0,3.209-0.271,5.906-0.806,8.094c1.207,0.875,2.885,2.188,5.031,3.938c3.353,2.772,5.902,4.741,7.647,5.906
	L371.036,62.907z M347.087,18.719v-5.25h26.968v5.25h-11.068l-1.207,5.688h10.666V50.22h-5.435V29.657h-13.686v20.781h-5.232V24.407
	h8.051l0.806-5.688H347.087z M384.638,34.907v-5.688h44.275v5.688H410.6v7.219h16.502v5.688H410.6v8.313c5.768,0,12.609,0,20.527,0
	c-0.136,0.294-0.271,0.731-0.402,1.313c-0.806,2.188-1.276,3.719-1.408,4.594c-7.381,0-14.625-0.147-21.735-0.438
	c-7.112-0.147-12.074-2.7-14.892-7.656c-1.61,3.353-3.759,6.487-6.44,9.406c-1.207-1.606-2.55-3.281-4.025-5.031
	c5.099-4.813,7.915-11.594,8.453-20.344l6.037,0.875c-0.402,3.063-0.939,5.763-1.608,8.094c2.012,4.959,5.162,7.875,9.457,8.75
	V34.907H384.638z M423.278,27.032v-4.594h-32.805v4.594h-6.038V16.75h19.32c-0.402-2.041-0.874-3.938-1.409-5.688l7.245-0.656
	c0.133,0.584,0.334,1.459,0.604,2.625c0.401,1.606,0.669,2.844,0.805,3.719h18.112v10.281L423.278,27.032L423.278,27.032z"/>
</svg>
