<?xml version="1.0" encoding="utf-8"?>
<!-- Generator: Adobe Illustrator 16.0.0, SVG Export Plug-In . SVG Version: 6.00 Build 0)  -->
<!DOCTYPE svg PUBLIC "-//W3C//DTD SVG 1.1//EN" "http://www.w3.org/Graphics/SVG/1.1/DTD/svg11.dtd">
<svg version="1.1" id="图层_1" xmlns="http://www.w3.org/2000/svg" xmlns:xlink="http://www.w3.org/1999/xlink" x="0px" y="0px"
	 width="640px" height="100px" viewBox="0 0 640 100" enable-background="new 0 0 640 100" xml:space="preserve">
<path fill="#FEF699" d="M235.74,62.562c-0.69,1.626-1.524,3.281-2.501,4.969l-1.639-0.75c0.056-0.126,0.172-0.344,0.345-0.656
	c1.035-1.749,1.753-3.124,2.156-4.125L235.74,62.562L235.74,62.562z M234.188,60.499V52.53h6.555v-7.312h1.812v2.719h9.487v1.688
	h-9.487v2.906h7.59v7.969H234.188z M235.912,54.312v4.5h12.42v-4.5H235.912z M238.931,67.249c-0.116-0.75-0.403-1.844-0.863-3.281
	c-0.172-0.563-0.288-0.999-0.345-1.313l1.639-0.375c0.69,2.188,1.149,3.688,1.38,4.5L238.931,67.249z M244.451,66.968
	c-0.172-0.688-0.604-1.875-1.294-3.563c-0.172-0.437-0.288-0.75-0.345-0.938l1.639-0.375c0.69,1.751,1.264,3.219,1.725,4.406
	L244.451,66.968z M250.575,67.249c-0.403-0.938-1.179-2.499-2.329-4.688l1.639-0.656c0.172,0.375,0.546,1.125,1.121,2.25
	c0.632,1.187,1.035,1.969,1.208,2.344L250.575,67.249z M256.25,50.937V49.25h8.021v-3.938h1.811v3.938h8.021v1.687h-8.021v4.313
	h9.488v1.781h-9.488v7.781h5.779V59.28h1.812v8.438h-1.812v-1.406h-15.18V59.28h1.811v5.531h5.779V57.03h-9.487v-1.781h9.487v-4.313
	H256.25z M278.226,51.405v-1.687h2.501V45.5h1.639v4.219h2.07v1.687h-2.07v4.969l2.415-0.75c0,0.188,0.028,0.469,0.086,0.844
	c0,0.438,0,0.75,0,0.938l-2.501,0.844v6.75c0.057,1.5-0.604,2.312-1.984,2.438c-0.633,0-1.293,0-1.983,0
	c-0.058-0.313-0.145-0.782-0.259-1.406c-0.058-0.188-0.086-0.344-0.086-0.469c0.172,0,0.459,0.031,0.863,0.094
	c0.345,0,0.604,0,0.776,0c0.747-0.063,1.092-0.407,1.035-1.031v-5.906c-0.862,0.375-1.725,0.688-2.587,0.938l-0.259-1.969
	c0.862-0.312,1.811-0.593,2.846-0.844v-5.438H278.226z M285.212,52.155v-1.406c0.057-0.312,0.173-0.78,0.345-1.406
	c0.287-1.313,0.459-2.281,0.518-2.906l1.552,0.281c-0.172,0.563-0.375,1.438-0.604,2.625c-0.116,0.501-0.202,0.875-0.259,1.125h2.76
	c0.345-1.561,0.604-3.281,0.776-5.156l1.639,0.188c-0.172,1.688-0.431,3.344-0.776,4.968h7.504v1.688h-7.849
	c-0.23,1.001-0.489,1.969-0.776,2.906h7.676v1.781c-0.862,2.625-2.07,4.781-3.623,6.469c1.092,0.876,2.702,1.688,4.83,2.438
	c-0.116,0.313-0.403,0.781-0.862,1.406c-0.058,0.188-0.116,0.313-0.173,0.375c-2.07-1-3.738-2.031-5.002-3.094
	c-1.61,1.25-3.652,2.375-6.124,3.375c-0.116-0.188-0.345-0.563-0.69-1.125c-0.173-0.25-0.289-0.438-0.345-0.563
	c2.702-0.813,4.686-1.781,5.951-2.906c-1.093-1.313-2.042-2.937-2.846-4.875c-1.035,2.625-2.617,5.25-4.744,7.875
	c-0.403-0.563-0.748-1-1.035-1.313c3.047-3.75,5.059-7.999,6.038-12.75H285.212z M292.888,62.093
	c1.322-1.374,2.357-3.155,3.105-5.344h-6.124C290.732,59.125,291.737,60.906,292.888,62.093L292.888,62.093z M296.77,49.625
	c-1.035-0.938-2.1-1.843-3.191-2.719l1.035-1.125c0.287,0.25,0.747,0.595,1.38,1.031c0.805,0.688,1.437,1.219,1.897,1.594
	L296.77,49.625z M301.419,51.687v-1.781h3.278V45.5h1.811v4.406h2.933v1.781h-2.933v4.688c0.518-0.124,1.294-0.343,2.329-0.656
	c0.402-0.124,0.69-0.218,0.863-0.281c0,0.188,0.028,0.501,0.086,0.938c0,0.438,0.028,0.75,0.086,0.938l-3.364,0.938v6.656
	c0,1.625-0.776,2.469-2.329,2.531c-0.633,0-1.41,0-2.329,0c-0.173-0.813-0.317-1.438-0.432-1.875c0.747,0,1.437,0,2.07,0
	c0.862,0,1.264-0.375,1.208-1.125v-5.625l-3.364,1.031l-0.345-1.969l3.709-1.031v-5.156H301.419z M310.13,49.062v-1.875h11.816
	v1.875h-3.622v14.812c0.057,2.312-0.979,3.469-3.105,3.469c-0.979,0-2.07,0-3.278,0c0-0.063-0.029-0.188-0.086-0.375
	c-0.058-0.688-0.145-1.219-0.259-1.594c0.518,0.062,1.466,0.094,2.846,0.094c1.437,0.062,2.126-0.624,2.07-2.063V49.062H310.13z
	 M328.397,65.937c-0.172,0.125-0.431,0.406-0.776,0.844l-1.293-1.594c0.518-0.437,0.775-1.125,0.775-2.063v-8.156h-2.76v-1.781
	h4.571v10.031c0.401-0.312,1.006-0.812,1.812-1.5c0.805-0.687,1.38-1.187,1.725-1.5c0.057,0.188,0.115,0.469,0.173,0.844
	c0.173,0.563,0.287,0.97,0.345,1.219c-0.23,0.188-0.604,0.501-1.121,0.938c-1.323,1.063-2.329,1.813-3.019,2.25
	C328.713,65.593,328.57,65.749,328.397,65.937L328.397,65.937z M328.915,50.749c-0.518-0.687-1.323-1.687-2.415-3
	c-0.402-0.437-0.689-0.75-0.862-0.938l1.38-1.125c1.149,1.251,2.299,2.5,3.45,3.75L328.915,50.749z M332.021,48.968v-1.875h13.196
	v1.875h-4.141v14.906c0.115,2.25-0.92,3.375-3.104,3.375c-0.345,0-0.862,0-1.553,0c-0.862,0.062-1.496,0.094-1.897,0.094
	c-0.116-0.75-0.259-1.406-0.432-1.969c0.287,0,0.747,0,1.381,0c0.804,0.062,1.38,0.094,1.725,0.094
	c1.437,0.062,2.127-0.624,2.07-2.063V48.968H332.021z M355.549,66.687c-1.151-1.313-2.301-2.655-3.45-4.031
	c-0.518,1.626-1.755,3.313-3.709,5.063c-0.345-0.563-0.689-1.031-1.034-1.406c1.667-1.313,2.76-2.625,3.277-3.938
	s0.776-3.312,0.776-6v-6h1.38v6.094c0,1.688-0.087,3.188-0.259,4.5c0.459,0.501,1.121,1.219,1.983,2.156
	c0.919,0.938,1.639,1.657,2.156,2.156L355.549,66.687z M348.477,60.874V46.531h7.245v14.156h-1.38V48.218h-4.485v12.656H348.477z
	 M359.085,50.374c-0.518,1.188-1.093,2.407-1.725,3.656c-0.116-0.124-0.346-0.312-0.69-0.563c-0.288-0.249-0.518-0.437-0.689-0.563
	c1.437-2.438,2.529-4.968,3.277-7.593l1.553,0.375c-0.116,0.313-0.289,0.813-0.518,1.5c-0.23,0.625-0.403,1.125-0.518,1.5h7.849
	c0,1.063-0.03,2.812-0.087,5.25c-0.058,5.063-0.115,8.313-0.172,9.75c0,2.312-1.151,3.469-3.45,3.469l-3.622,0.094
	c-0.059-0.625-0.173-1.251-0.346-1.875c0.69,0.062,1.812,0.094,3.364,0.094c1.667,0.062,2.501-0.687,2.501-2.25
	c0.114-3.812,0.173-8.093,0.173-12.844H359.085L359.085,50.374z M358.567,61.905c-0.575,0.063-1.064,0.157-1.466,0.281l-0.776-1.5
	c0.518-0.375,0.891-0.874,1.121-1.5c0.919-2.063,1.753-4.313,2.501-6.75l1.467,0.563c-0.921,2.501-1.897,4.938-2.933,7.313
	c1.38-0.062,2.76-0.188,4.14-0.375c-0.518-1.125-1.035-2.25-1.553-3.375l1.294-0.656c0.633,1.5,1.523,3.563,2.674,6.188
	l-1.294,0.656c-0.058-0.124-0.144-0.343-0.259-0.656c-0.115-0.249-0.202-0.437-0.259-0.563
	C361.039,61.656,359.486,61.781,358.567,61.905L358.567,61.905z M382.613,66.968c-2.128,0.062-3.162-1-3.104-3.188v-2.438h-6.038
	v1.594h-1.725V48.312h7.763v-3h1.725v3h7.763v13.031h-7.763v2.156c-0.058,1.251,0.604,1.843,1.984,1.781h3.881
	c1.322,0.062,2.07-0.437,2.242-1.5c0.173-0.874,0.315-1.781,0.432-2.719c0.057,0,0.143,0.032,0.259,0.094
	c0.632,0.251,1.121,0.438,1.466,0.563c-0.058,0.688-0.202,1.532-0.431,2.531c-0.059,0.313-0.116,0.532-0.173,0.656
	c-0.23,1.438-1.352,2.124-3.363,2.063H382.613z M373.471,50.093v3.844h6.038v-3.844H373.471z M373.471,55.624v3.938h6.038v-3.938
	H373.471z M387.271,50.093h-6.038v3.844h6.038V50.093z M381.233,59.562h6.038v-3.938h-6.038V59.562z M397.689,66.312
	c-0.402,0.375-0.748,0.718-1.035,1.031l-1.121-1.594c0.574-0.501,0.833-1.187,0.776-2.063v-8.719h-2.415V53.28h4.054v10.781
	c0.115-0.124,0.287-0.281,0.518-0.469c0.978-0.75,1.639-1.313,1.984-1.688c0.114,0.813,0.2,1.532,0.259,2.156
	C399.443,64.938,398.437,65.687,397.689,66.312L397.689,66.312z M397.689,50.655c-0.92-1.437-1.897-2.749-2.933-3.937l1.467-1.031
	c0.977,1.125,1.983,2.376,3.019,3.75L397.689,50.655z M406.487,48.406c-1.725,0-3.536,0.063-5.434,0.188
	c0-0.249-0.059-0.656-0.173-1.219c-0.058-0.249-0.086-0.437-0.086-0.563c4.313-0.062,8.539-0.249,12.679-0.563l0.259,1.688
	c-0.575,0-1.467,0.063-2.674,0.188c-1.208,0.063-2.128,0.126-2.76,0.188v3.937h6.382v1.688h-6.382v3.844h4.743v9.938h-1.725v-1.594
	h-7.849v1.594h-1.726V57.78h4.744v-3.844h-6.642v-1.688h6.642V48.406L406.487,48.406z M403.469,59.468v5.156h7.849v-5.156H403.469z"
	/>
<path fill="#F4EDED" d="M323.382,18.104L321.244,16l-2.14,2.104l2.14-2.104L323.382,18.104z M319.104,18.104l2.14-2.104L331,25.922
	l-2.14,2.104L319.104,18.104 M314.14,27.504L312,25.4l9.244-9.4l2.138,2.104L314.14,27.504"/>
</svg>
