<svg xmlns="http://www.w3.org/2000/svg" width="640" height="86.75" viewBox="0 0 640 86.75"><path fill="#FFF695" d="M212.405 40.157v-5.469h2.616v-18.375h5.031c.132-.581.333-1.531.604-2.844.132-1.166.267-2.041.402-2.625l5.635.438c0 .294-.069.656-.201 1.094-.271.875-.673 2.188-1.208 3.938h6.843v40.469c0 .581-.069 1.166-.201 1.75 3.89-3.791 5.635-10.134 5.232-19.031v-8.75h16.301v23.625c0 1.459.468 2.116 1.409 1.969h.402c.937.147 1.475-.581 1.61-2.188.268-3.206.403-6.416.403-9.625 1.61.584 2.949 1.094 4.025 1.531-.271 4.375-.538 7.803-.805 10.281-.402 3.645-2.082 5.469-5.031 5.469h-2.415c-3.355.144-4.965-1.75-4.83-5.688v-19.469h-5.635v2.843c.402 10.647-1.811 18.594-6.641 23.844-.673-.731-2.082-2.116-4.227-4.156-.402 2.188-1.946 3.353-4.628 3.5h-4.83l-.604-3.281c-.135-.875-.27-1.606-.402-2.188h3.623c1.742.145 2.547-.581 2.415-2.188v-14.874h-7.245c0 9.772-1.208 17.572-3.623 23.406-1.88-1.75-3.289-3.138-4.226-4.156 2.013-4.666 2.95-11.081 2.817-19.25h-2.616zm7.647-18.594v13.125h7.245v-13.125h-7.245zm3.019 11.156c-.403-1.166-1.006-2.697-1.812-4.594-.402-1.166-.739-2.041-1.006-2.625l3.421-1.969 1.208 2.625c.937 1.896 1.61 3.356 2.013 4.375l-3.824 2.188zm.201 19.469l-3.019-7.656 3.623-1.969c.402 1.022 1.072 2.7 2.013 5.031.535 1.169.937 2.044 1.208 2.625l-3.825 1.969zm10.868-27.344v-5.906h9.459c-.271-.875-.673-2.188-1.208-3.938-.402-1.313-.739-2.331-1.006-3.063l6.239-.875c.402 1.313.937 3.063 1.61 5.25.403 1.169.67 2.044.805 2.625h9.257v5.906l-25.156.001zm65.937 30.625c-3.355 1.894-7.179 3.791-11.471 5.688l-2.214-4.157c-2.686.581-7.044 1.456-13.082 2.625-1.478.291-2.616.509-3.421.656l-1.006-5.906c.67-.144 1.943-.362 3.824-.656 6.44-1.019 11.069-1.822 13.886-2.406 0 .584-.069 1.313-.201 2.188v1.969c4.427-1.894 8.251-3.791 11.471-5.688-1.076-3.938-1.745-7.219-2.013-9.844l-7.849 1.094-.805-5.688 7.849-1.094c-.135-2.041-.336-4.009-.604-5.906l-6.238.656-.402-3.5c-4.83 8.169-8.251 13.781-10.264 16.844 2.682-.438 5.701-.8 9.056-1.094 0 .584-.069 1.459-.201 2.625 0 1.169-.069 2.044-.201 2.625-6.843.875-11.742 1.606-14.691 2.188l-1.811-5.031c1.475-1.166 2.682-2.478 3.622-3.938.132-.144.333-.509.604-1.094.937-1.313 2.012-3.134 3.22-5.469-2.55 0-4.83.219-6.842.656l-1.61-5.469c.937-.875 1.811-1.969 2.616-3.281 2.145-3.938 4.358-8.675 6.641-14.219l5.836 1.969c-1.478 2.772-3.557 6.563-6.239 11.375-1.076 1.75-1.812 2.991-2.214 3.719l5.031-.219 2.817-5.469 4.428 2.188v-.875l6.641-.875c-.271-3.791-.402-7.581-.402-11.375h5.836c0 3.938.132 7.513.403 10.719l8.654-1.094c-1.076-1.019-2.751-2.479-5.031-4.375-.673-.438-1.142-.8-1.409-1.094l3.623-3.938c.67.438 1.61 1.169 2.818 2.188 1.741 1.169 3.019 2.116 3.823 2.844l-3.623 4.375 6.642-.875.604 5.469-15.898 1.969c0 .731.066 1.678.201 2.844 0 1.459.066 2.481.201 3.063l16.301-2.625.604 5.688-16.1 2.625c.402 2.625.937 4.959 1.61 7 2.817-2.188 5.768-4.884 8.855-8.094l3.824 3.719c-3.759 3.938-7.314 7.294-10.667 10.063 1.072 3.209 2.547 4.813 4.427 4.813.937 0 1.676-.8 2.214-2.406.402-1.75.871-3.938 1.409-6.563.268.147.735.366 1.409.656 1.609 1.022 2.749 1.678 3.421 1.969-.402 2.625-.94 4.959-1.61 7-1.076 3.791-3.354 5.688-6.843 5.688-3.893.141-7.044-2.337-9.459-7.44zm31.916 7.219h-5.031c-.271-1.897-.604-3.794-1.006-5.688h3.622c1.742 0 2.616-.8 2.616-2.406v-17.937h-6.439v-5.469h7.647c-.94-1.166-2.214-2.697-3.824-4.594-.94-1.166-1.61-1.969-2.013-2.406l3.622-3.063 3.823 4.156 4.429-6.344h-13.081v-5.469h18.515v6.563l-7.849 11.156h8.854v5.469l-1.61 9.406c-1.343-.438-2.752-.656-4.227-.656l1.409-8.75h-3.623v19.469c.135 4.229-1.808 6.416-5.834 6.563zm39.043.219c-1.746-1.75-4.497-4.084-8.252-7-1.343-1.166-2.35-2.041-3.02-2.625-1.881 3.209-6.237 6.634-13.081 10.281l-1.812-2.625c-.805-1.313-1.408-2.263-1.812-2.844 5.902-2.331 9.728-4.737 11.473-7.219 1.877-2.188 2.816-5.978 2.816-11.375l.201-7.219h5.435l-.201 7.656c0 3.209-.271 5.906-.806 8.094 1.207.875 2.885 2.188 5.031 3.938 3.353 2.772 5.902 4.741 7.647 5.906l-3.619 5.032zm-23.949-44.188v-5.25h26.968v5.25h-11.068l-1.207 5.688h10.666v25.813h-5.435v-20.563h-13.686v20.781h-5.232v-26.031h8.051l.806-5.688h-9.863zm37.551 16.188v-5.688h44.275v5.688h-18.313v7.219h16.502v5.688h-16.502v8.313h20.527c-.136.294-.271.731-.402 1.313-.806 2.188-1.276 3.719-1.408 4.594-7.381 0-14.625-.147-21.735-.438-7.112-.147-12.074-2.7-14.892-7.656-1.61 3.353-3.759 6.487-6.44 9.406-1.207-1.606-2.55-3.281-4.025-5.031 5.099-4.813 7.915-11.594 8.453-20.344l6.037.875c-.402 3.063-.939 5.763-1.608 8.094 2.012 4.959 5.162 7.875 9.457 8.75v-20.783h-19.926zm38.64-7.875v-4.594h-32.805v4.594h-6.038v-10.282h19.32c-.402-2.041-.874-3.938-1.409-5.688l7.245-.656c.133.584.334 1.459.604 2.625.401 1.606.669 2.844.805 3.719h18.112v10.281l-5.834.001z"/></svg>