<?xml version="1.0" encoding="utf-8"?>
<!-- Generator: Adobe Illustrator 16.0.0, SVG Export Plug-In . SVG Version: 6.00 Build 0)  -->
<!DOCTYPE svg PUBLIC "-//W3C//DTD SVG 1.1//EN" "http://www.w3.org/Graphics/SVG/1.1/DTD/svg11.dtd">
<svg version="1.1" id="图层_1" xmlns="http://www.w3.org/2000/svg" xmlns:xlink="http://www.w3.org/1999/xlink" x="0px" y="0px"
	 width="120px" height="40px" viewBox="0 0 120 40" enable-background="new 0 0 120 40" xml:space="preserve">
<g>
	<path fill="#FFFFFF" d="M32.657,27.051c-0.992,1.018-1.818,2.036-2.479,3.055L29.186,27.5c0.826-0.838,1.599-1.617,2.314-2.336
		v-6.648h-2.149V16.18h4.298v8.805c0.827,1.617,2.23,2.427,4.215,2.427c2.038,0.062,5.869,0.03,11.489-0.091
		c-0.276,0.6-0.496,1.349-0.661,2.246c-3.748,0-7.521-0.062-11.324-0.181C35.055,29.326,33.483,28.548,32.657,27.051L32.657,27.051z
		 M32.823,14.293c-0.827-1.617-1.683-3.084-2.563-4.402l1.901-1.078c0.991,1.379,1.873,2.785,2.645,4.224L32.823,14.293z
		 M43.732,23.367c-1.378,1.258-3.169,2.367-5.373,3.324c-0.331-0.6-0.744-1.258-1.24-1.979c2.039-0.775,3.719-1.707,5.043-2.783
		c-1.047-0.898-2.149-1.855-3.308-2.876l1.405-1.438l3.389,2.875c0.771-0.898,1.516-2.187,2.23-3.863h-7.354
		c0,3.414-0.908,6.5-2.729,9.254c-0.221-0.299-0.578-0.688-1.074-1.168c-0.221-0.237-0.386-0.418-0.496-0.539
		c1.598-2.155,2.341-5.031,2.23-8.625v-5.57c4.244-0.059,8.127-0.358,11.655-0.897l0.579,2.155c-2.977,0.359-6.365,0.63-10.167,0.81
		v2.516h9.507v2.246c-0.828,2.037-1.766,3.715-2.812,5.031l3.472,2.965l-1.488,1.797L43.732,23.367L43.732,23.367z M52.394,30.016
		V9.801h18.103v20.215h-2.231v-1.438h-13.64v1.438H52.394z M54.625,11.957v14.734h13.639V11.957H54.625z M57.188,23.547v-8.625
		h8.596v8.625H57.188z M59.172,16.897v4.583h4.546v-4.583H59.172z M73.785,13.395v-1.977h5.703c-0.496-0.838-1.021-1.646-1.57-2.426
		l2.313-0.449c0.166,0.18,0.386,0.51,0.661,0.988c0.55,0.84,0.938,1.407,1.156,1.706l-0.578,0.181h3.885
		c0.055-0.06,0.137-0.181,0.248-0.359c0.716-1.078,1.211-1.916,1.488-2.516l2.48,0.539c-0.166,0.18-0.359,0.479-0.58,0.897
		c-0.166,0.24-0.523,0.72-1.074,1.438h5.703v1.977h-9.176l-0.496,2.066h7.604v14.645h-2.231v-1.258H78.164v1.258h-2.231V15.461
		h5.703l0.331-2.066H73.785z M78.164,17.348v2.066h11.16v-2.066H78.164z M78.164,21.211v2.066h11.16v-2.066H78.164z M78.164,25.074
		v2.066h11.16v-2.066H78.164z M114.269,29.926c-1.653-1.019-3.996-2.365-7.026-4.043c-0.551-0.299-0.965-0.539-1.24-0.719
		c-0.991,1.977-3.885,3.652-8.678,5.031L96,27.949c5.345-1.078,8.211-2.875,8.597-5.391c0.22-0.777,0.331-2.367,0.331-4.764h2.314
		c-0.056,2.576-0.222,4.346-0.496,5.303c2.148,1.197,5.041,2.756,8.678,4.672L114.269,29.926z M96.498,11.957V9.711h19.094v2.246
		h-8.68l-0.744,2.516h7.521v9.883h-2.23v-7.728h-10.912v7.996h-2.231V14.473h5.456l0.661-2.516H96.498z"/>
	<polyline fill="#FFFFFF" points="15.981,8.359 18.086,10.5 8.686,19.744 18.607,29.5 16.506,31.641 6.582,21.882 4.408,19.744 
		6.582,17.604 15.981,8.359 	"/>
</g>
</svg>
