<svg xmlns="http://www.w3.org/2000/svg" width="120" height="40" viewBox="0 0 120 40"><g fill="#fff"><path d="M32.657 27.051c-.992 1.018-1.818 2.036-2.479 3.055l-.992-2.606c.826-.838 1.599-1.617 2.314-2.336v-6.648h-2.149v-2.336h4.298v8.805c.827 1.617 2.23 2.427 4.215 2.427 2.038.062 5.869.03 11.489-.091-.276.6-.496 1.349-.661 2.246-3.748 0-7.521-.062-11.324-.181-2.313-.06-3.885-.838-4.711-2.335zm.166-12.758c-.827-1.617-1.683-3.084-2.563-4.402l1.901-1.078c.991 1.379 1.873 2.785 2.645 4.224l-1.983 1.256zm10.909 9.074c-1.378 1.258-3.169 2.367-5.373 3.324-.331-.6-.744-1.258-1.24-1.979 2.039-.775 3.719-1.707 5.043-2.783-1.047-.898-2.149-1.855-3.308-2.876l1.405-1.438 3.389 2.875c.771-.898 1.516-2.187 2.23-3.863h-7.354c0 3.414-.908 6.5-2.729 9.254-.221-.299-.578-.688-1.074-1.168l-.496-.539c1.598-2.155 2.341-5.031 2.23-8.625v-5.57c4.244-.059 8.127-.358 11.655-.897l.579 2.155c-2.977.359-6.365.63-10.167.81v2.516h9.507v2.246c-.828 2.037-1.766 3.715-2.812 5.031l3.472 2.965-1.488 1.797-3.469-3.235zm8.662 6.649v-20.215h18.103v20.215h-2.231v-1.438h-13.64v1.438h-2.232zm2.231-18.059v14.734h13.639v-14.734h-13.639zm2.563 11.59v-8.625h8.596v8.625h-8.596zm1.984-6.65v4.583h4.546v-4.583h-4.546zm14.613-3.502v-1.977h5.703c-.496-.838-1.021-1.646-1.57-2.426l2.313-.449c.166.18.386.51.661.988.55.84.938 1.407 1.156 1.706l-.578.181h3.885c.055-.06.137-.181.248-.359.716-1.078 1.211-1.916 1.488-2.516l2.48.539c-.166.18-.359.479-.58.897-.166.24-.523.72-1.074 1.438h5.703v1.977h-9.176l-.496 2.066h7.604v14.645h-2.231v-1.258h-11.157v1.258h-2.231v-14.644h5.703l.331-2.066h-8.182zm4.379 3.953v2.066h11.16v-2.066h-11.16zm0 3.863v2.066h11.16v-2.066h-11.16zm0 3.863v2.066h11.16v-2.066h-11.16zm36.105 4.852c-1.653-1.019-3.996-2.365-7.026-4.043-.551-.299-.965-.539-1.24-.719-.991 1.977-3.885 3.652-8.678 5.031l-1.325-2.246c5.345-1.078 8.211-2.875 8.597-5.391.22-.777.331-2.367.331-4.764h2.314c-.056 2.576-.222 4.346-.496 5.303 2.148 1.197 5.041 2.756 8.678 4.672l-1.155 2.157zm-17.771-17.969v-2.246h19.094v2.246h-8.68l-.744 2.516h7.521v9.883h-2.23v-7.728h-10.912v7.996h-2.231v-10.151h5.456l.661-2.516h-7.935zM15.981 8.359l2.105 2.141-9.4 9.244 9.921 9.756-2.101 2.141-9.924-9.759-2.174-2.138 2.174-2.14 9.399-9.245"/></g></svg>