<?xml version="1.0" encoding="utf-8"?>
<!-- Generator: Adobe Illustrator 16.0.0, SVG Export Plug-In . SVG Version: 6.00 Build 0)  -->
<!DOCTYPE svg PUBLIC "-//W3C//DTD SVG 1.1//EN" "http://www.w3.org/Graphics/SVG/1.1/DTD/svg11.dtd">
<svg version="1.1" id="图层_1" xmlns="http://www.w3.org/2000/svg" xmlns:xlink="http://www.w3.org/1999/xlink" x="0px" y="0px"
	 width="640px" height="90px" viewBox="0 -14.46 640 90" enable-background="new 0 -14.46 640 90" xml:space="preserve">
<g>
	<g>
		<path id="Fill-29_1_" fill="#FFFFFF" d="M320.35,7.539h134.322v34.296H320.35V7.539z"/>
		<path id="Fill-30_1_" fill="#006AB6" d="M321.201,8.395h132.633v32.607H321.201V8.395z"/>
		<path id="Fill-31_1_" fill="#000D57" d="M321.199,8.395h32.678v32.607h-32.678V8.395z"/>
		<path id="Fill-32_1_" fill="#FBC200" d="M353.875,30.97h99.959v10.032h-99.959V30.97z"/>
		<path id="Fill-33_1_" fill="#000D57" d="M358.848,33.865h0.658v4.565h-0.658V33.865z"/>
		<path id="Fill-34_1_" fill="#000D57" d="M364.205,33.865h0.889l2.025,3.676h0.016v-3.676h0.648v4.565h-0.836l-2.068-3.753h-0.02
			v3.753h-0.654V33.865"/>
		<path id="Fill-35_1_" fill="#000D57" d="M373.396,34.444h-1.424v-0.578h3.504v0.578h-1.428v3.988h-0.652V34.444"/>
		<path id="Fill-36_1_" fill="#000D57" d="M379.703,33.865h2.562v0.576h-1.906v1.332h1.73v0.577h-1.73v1.505h1.906v0.576h-2.562
			V33.865"/>
		<path id="Fill-37_1_" fill="#000D57" d="M386.816,33.865h1.121c0.9,0,1.77,0.144,1.77,1.235c0,0.558-0.408,0.947-0.938,1.041
			v0.009c0.197,0.08,0.307,0.18,0.443,0.463l0.863,1.817h-0.746l-0.699-1.583c-0.207-0.447-0.424-0.447-0.768-0.447h-0.398v2.03
			h-0.646L386.816,33.865L386.816,33.865z M387.467,35.826h0.559c0.627,0,0.996-0.276,0.996-0.711c0-0.412-0.318-0.672-0.918-0.672
			h-0.637V35.826L387.467,35.826z"/>
		<path id="Fill-38_1_" fill="#000D57" d="M394.391,33.865h0.889l2.021,3.676h0.018v-3.676h0.656v4.565h-0.842l-2.068-3.753h-0.018
			v3.753h-0.654L394.391,33.865"/>
		<path id="Fill-39_1_" fill="#000D57" d="M404.117,33.865h0.689l1.934,4.565h-0.719l-0.461-1.151h-2.242l-0.463,1.151h-0.689
			L404.117,33.865L404.117,33.865z M404.439,34.481l-0.91,2.264h1.822L404.439,34.481L404.439,34.481z"/>
		<path id="Fill-40_1_" fill="#000D57" d="M411.373,34.444h-1.428v-0.578h3.504v0.578h-1.42v3.988h-0.656V34.444"/>
		<path id="Fill-41_1_" fill="#000D57" d="M417.641,33.865h0.652v4.565h-0.652V33.865z"/>
		<path id="Fill-42_1_" fill="#000D57" d="M424.967,33.785c1.389,0,2.203,1.011,2.203,2.363c0,1.385-0.803,2.36-2.203,2.36
			c-1.393,0-2.195-0.976-2.195-2.36C422.77,34.797,423.582,33.785,424.967,33.785 M424.967,37.936c1.059,0,1.516-0.879,1.516-1.787
			c0-0.929-0.502-1.791-1.516-1.789c-1.008-0.002-1.508,0.86-1.508,1.789C423.459,37.057,423.916,37.936,424.967,37.936"/>
		<path id="Fill-43_1_" fill="#000D57" d="M431.635,33.865h0.895l2.02,3.676h0.014v-3.676h0.654v4.565h-0.84l-2.068-3.753h-0.014
			v3.753h-0.656v-4.565"/>
		<path id="Fill-44_1_" fill="#000D57" d="M441.365,33.865h0.686l1.936,4.565h-0.717l-0.463-1.151h-2.242l-0.467,1.151h-0.688
			L441.365,33.865L441.365,33.865z M441.684,34.481l-0.906,2.264h1.822L441.684,34.481L441.684,34.481z"/>
		<path id="Fill-45_1_" fill="#000D57" d="M448.178,33.865h0.658v3.99h1.916v0.576h-2.574V33.865"/>
		<path id="Fill-46_1_" fill="#FFFFFF" d="M337.574,12.89c1.172,1.129,2.479,2.328,3.611,3.496l-1.326,1.703v0.084l3.514,1.565
			l2.373-1.627l-1.438-1.589v-0.114c1.473-1.04,2.73-2.038,4.156-2.991l-0.688,7.115h-20.482l-0.691-7.115
			c1.426,0.953,2.688,1.951,4.154,2.991v0.114l-1.432,1.589l2.371,1.627l3.51-1.565v-0.084l-1.322-1.703
			c1.135-1.167,2.439-2.366,3.607-3.496H337.574"/>
		<path id="Fill-47_1_" fill="#FFFFFF" d="M347.617,21.814l-0.205,2.373l-7.578-0.002v8.188l3.693-0.021
			c0.82-0.003,1.689-0.865,1.51-1.434c-0.189-0.827-0.938-1.376-1.627-1.787c0.139,0,2.67-1.863,3.857-2.666
			c-0.055,0.515-0.904,7.206-0.914,7.314l-8.744,3.322h-0.146l-8.748-3.322c-0.01-0.108-0.854-6.8-0.91-7.314
			c1.188,0.802,3.719,2.666,3.854,2.666c-0.689,0.411-1.428,0.96-1.627,1.787c-0.174,0.569,0.693,1.431,1.514,1.434l3.695,0.021
			l0.002-8.188l-7.588,0.002l-0.203-2.373H347.617"/>
		<path id="Fill-48_1_" fill="#FFFFFF" d="M359.078,17.683c0-2.332-0.078-2.685-1.789-2.835v-0.215l3.723-0.12
			c3.855-0.124,4.156,1.753,4.156,2.483c0,1.285-0.793,2.018-1.893,2.505l0.076,0.104c1.18,2.063,2.641,4.68,5.164,5.199
			l-0.047,0.232c-1.623-0.079-2.814-0.032-3.699-0.948c-1.002-1.048-1.801-2.392-2.123-3.047c-0.607-1.267-1.16-0.905-2.232-1.085
			v2.455c0,1.677,0.035,1.981,2.129,2.272v0.229h-5.363v-0.229c1.836-0.242,1.85-0.701,1.898-2.272V17.683L359.078,17.683z
			 M360.414,19.697c1.469-0.013,3.184-0.682,3.184-2.378c0-1.786-1.57-2.497-3.184-2.485V19.697L360.414,19.697z"/>
		<path id="Fill-49_1_" fill="#FFFFFF" d="M370.732,25.055c-2.1,0-3.76-1.324-3.76-3.491c0-2.104,1.729-3.558,3.771-3.558
			c2.078,0,3.742,1.343,3.742,3.497C374.488,23.579,372.748,25.055,370.732,25.055 M370.717,18.344
			c-1.648,0-2.324,1.709-2.324,3.112c0,1.419,0.799,3.265,2.443,3.265c1.543,0,2.23-1.753,2.23-3.069
			C373.066,20.256,372.379,18.344,370.717,18.344"/>
		<path id="Fill-50_1_" fill="#FFFFFF" d="M374.973,19.534c-0.271-0.686-0.334-0.839-1.1-0.961v-0.229h3.166v0.229
			c-1.164,0.062-0.855,0.761-0.551,1.539l1.498,3.875l0.943-2.74c0.689-1.986,0.812-2.521-0.316-2.673v-0.229h2.674v0.229
			c-0.67,0.08-0.889,0.351-1.18,0.933l-0.645,1.478l-2.35,5.903c-0.568,1.412-0.961,1.89-1.572,1.89
			c-0.416,0-0.752-0.338-0.752-0.765c0-0.319,0.182-0.609,0.486-0.713c0.156,0.091,0.629,0.425,0.814,0.425
			c0.334,0,0.604-0.827,0.719-1.052l0.504-1.174L374.973,19.534"/>
		<path id="Fill-51_1_" fill="#FFFFFF" d="M384.363,21.134c0.125-1.665-0.307-2.353-1.512-2.353c-1.051,0-0.947,0.505-0.947,1.343
			l-0.764,0.047c-0.121,0-0.354,0.013-0.354-0.152c0-0.413,1.68-2,2.922-2c1.402,0,1.826,1.07,1.826,2.286v2.17
			c0,1.34-0.121,2.181,1.338,1.951v0.341c-0.586,0.173-1.088,0.222-1.547,0.222c-0.641,0-0.889-0.364-0.965-0.962
			c-0.488,0.551-1.156,1.04-1.941,1.04c-0.975,0-1.521-0.828-1.521-1.739c0-0.231,0.033-0.446,0.09-0.671L384.363,21.134
			L384.363,21.134z M382.303,22.491c-0.062,0.198-0.107,0.391-0.107,0.606c0,0.644,0.369,1.208,1.064,1.208
			c0.422,0,0.83-0.277,1.105-0.563v-2.304L382.303,22.491L382.303,22.491z"/>
		<path id="Fill-52_1_" fill="#FFFFFF" d="M386.166,24.912V24.54c1.062-0.125,1.191-0.368,1.191-1.398v-6.479
			c0-0.641,0.02-0.839-0.746-1.389v-0.153l1.758-0.67l0.168,0.062v8.628c0,1.25,0.061,1.373,1.193,1.542v0.229H386.166"/>
		<path id="Fill-53_1_" fill="#FFFFFF" d="M404.17,21.134c0.125-1.665-0.307-2.353-1.512-2.353c-1.053,0-0.947,0.505-0.947,1.343
			l-0.768,0.047c-0.123,0-0.352,0.013-0.352-0.152c0-0.413,1.684-2,2.922-2c1.404,0,1.836,1.07,1.836,2.286v2.17
			c0,1.34-0.156,2.271,1.322,1.951v0.341c-0.58,0.173-1.082,0.222-1.547,0.222c-0.637,0-0.879-0.364-0.957-0.962
			c-0.486,0.551-1.16,1.04-1.938,1.04c-0.98,0-1.535-0.828-1.535-1.739c0-0.231,0.035-0.446,0.098-0.671L404.17,21.134
			L404.17,21.134z M402.105,22.491c-0.061,0.198-0.104,0.391-0.104,0.606c0,0.644,0.361,1.208,1.064,1.208
			c0.412,0,0.826-0.277,1.102-0.563v-2.304L402.105,22.491L402.105,22.491z"/>
		<path id="Fill-54_1_" fill="#FFFFFF" d="M399.709,17.677h-0.229c-0.283-1.72-1.303-2.957-3.131-2.957
			c-2.799,0-4.375,2.291-4.375,4.913c0,3.003,2.311,5.092,4.523,5.092c2.002,0,2.793-1.465,3.488-3.108l0.211,0.092
			c-0.184,0.928-0.473,1.841-0.84,2.726c-0.982,0.474-2.033,0.654-3.115,0.654c-3.201,0-6.031-1.829-6.031-5.277
			c0-2.712,2.113-5.458,6.152-5.458c1.162,0,2.336,0.23,3.346,0.825V17.677"/>
		<path id="Fill-55_1_" fill="#FFFFFF" d="M440.48,21.124c0.127-1.658-0.311-2.348-1.516-2.348c-1.051,0-0.945,0.504-0.945,1.34
			l-0.762,0.047c-0.125,0-0.354,0.019-0.354-0.153c0-0.41,1.678-1.998,2.918-1.998c1.402,0,1.832,1.068,1.832,2.288v2.166
			c0,1.344-0.213,2.196,1.184,2.121v0.267c-0.582,0.169-0.938,0.127-1.396,0.127c-0.641,0-0.887-0.365-0.963-0.958
			c-0.482,0.551-1.16,1.036-1.939,1.036c-0.975,0-1.529-0.823-1.529-1.743c0-0.229,0.029-0.437,0.094-0.667L440.48,21.124
			L440.48,21.124z M438.42,22.483c-0.062,0.197-0.109,0.396-0.109,0.604c0,0.647,0.363,1.208,1.072,1.208
			c0.41,0,0.824-0.272,1.1-0.561v-2.306L438.42,22.483L438.42,22.483z"/>
		<path id="Fill-56_1_" fill="#FFFFFF" d="M408.338,23.14c0,1.25,0.062,1.372,1.527,1.538v0.231h-3.818v-0.365
			c1.025-0.087,1.098-0.338,1.113-1.527v-2.788c0-0.646,0.014-0.843-0.744-1.39v-0.155l1.812-0.67l0.17,0.062l-0.062,1.801h0.031
			c0.336-0.81,1.193-1.863,2.152-1.863c0.43,0,0.783,0.275,0.783,0.703c0,0.41-0.447,0.792-0.797,0.96
			c-0.264-0.199-0.643-0.532-0.979-0.504c-1.301,0.121-1.191,2.2-1.191,2.427L408.338,23.14"/>
		<path id="Fill-57_1_" fill="#FFFFFF" d="M411.777,24.909v-0.231c1.125-0.166,1.176-0.348,1.188-1.538v-2.913
			c0-0.641,0.018-0.841-0.93-1.388v-0.155l1.939-0.67l0.17,0.062v5.064c0,1.25,0.059,1.372,1.191,1.538v0.231H411.777
			L411.777,24.909z M414.27,15.473c0,0.427-0.355,0.78-0.783,0.78c-0.426,0-0.777-0.354-0.777-0.78c0-0.425,0.354-0.78,0.777-0.78
			C413.914,14.693,414.27,15.048,414.27,15.473L414.27,15.473z"/>
		<path id="Fill-58_1_" fill="#FFFFFF" d="M415.891,16.658c0-0.644,0.012-0.841-0.744-1.39v-0.152l1.756-0.672l0.168,0.061v4.362
			c0.75-0.408,1.684-0.853,2.551-0.853c1.697,0,2.873,1.572,2.873,3.17c0,2.703-2.492,3.88-4.172,3.88
			c-0.912,0-1.604-0.25-2.432-0.614V16.658L415.891,16.658z M417.07,21.811c0,1.42,0.154,2.776,1.924,2.776
			c0.842,0,2.197-0.673,2.197-2.789c0-1.832-1.223-3.021-2.695-3.021c-0.523,0-0.951,0.137-1.426,0.336V21.811L417.07,21.811z"/>
		<path id="Fill-59_1_" fill="#FFFFFF" d="M423.203,16.658c0-0.644,0.01-0.841-0.748-1.39v-0.152l1.756-0.672l0.168,0.061v4.362
			c0.748-0.408,1.682-0.853,2.549-0.853c1.701,0,2.875,1.572,2.875,3.17c0,2.703-2.488,3.88-4.172,3.88
			c-0.914,0-1.604-0.25-2.428-0.614V16.658L423.203,16.658z M424.379,21.811c0,1.42,0.154,2.776,1.924,2.776
			c0.842,0,2.203-0.673,2.203-2.789c0-1.832-1.225-3.021-2.705-3.021c-0.521,0-0.947,0.137-1.422,0.336V21.811L424.379,21.811z"/>
		<path id="Fill-60_1_" fill="#FFFFFF" d="M431.801,21.019c-0.119,1.588,0.967,3.067,2.689,3.067c0.801,0,1.344-0.352,1.803-0.967
			l0.229,0.172c-0.58,0.992-1.617,1.771-2.809,1.771c-1.896,0-3.209-1.56-3.209-3.385c0-1.973,1.373-3.664,3.439-3.664
			c1.375,0,2.287,0.869,2.348,2.243h-4.426L431.801,21.019L431.801,21.019z M434.842,19.846c-0.135-0.702-0.562-1.498-1.377-1.498
			c-0.867,0-1.387,0.856-1.555,1.619L434.842,19.846L434.842,19.846z"/>
		<path id="Fill-61_1_" fill="#FFFFFF" d="M443.508,20.229c0-0.646,0.018-0.843-0.75-1.39v-0.155l1.822-0.67l0.17,0.06l-0.127,1.118
			c0.877-0.644,1.711-1.178,2.688-1.178c1.84,0,1.934,1.51,1.934,2.41v2.716c0,1.25,0.055,1.372,1.189,1.538v0.231h-3.564v-0.231
			c1.133-0.166,1.182-0.348,1.195-1.538v-1.754c0-1.069,0.041-2.577-1.82-2.577c-0.625,0-1.055,0.195-1.561,0.658v3.673
			c0,1.25,0.066,1.372,1.193,1.538v0.231h-3.559l-0.004-0.28c1.096-0.089,1.178-0.299,1.191-1.489L443.508,20.229"/>
		<path id="Fill-62_1_" fill="#FFFFFF" d="M459.57,11.181c0.57,0,0.971-0.292,0.971-0.78v-0.006c0-0.46-0.354-0.74-0.965-0.74
			h-1.158v1.526H459.57L459.57,11.181z M457.988,9.26h1.623c0.463,0,0.836,0.136,1.07,0.378c0.188,0.182,0.293,0.445,0.293,0.74
			v0.012c0,0.62-0.436,0.989-1.025,1.092l1.158,1.543h-0.523l-1.094-1.463h-1.072v1.463h-0.43V9.26L457.988,9.26z"/>
		<path id="Fill-63_1_" fill="#FFFFFF" d="M456.793,11.183c0-1.39,1.133-2.519,2.523-2.519c1.395,0,2.52,1.129,2.52,2.519
			c0,1.388-1.127,2.519-2.52,2.519C457.926,13.701,456.793,12.571,456.793,11.183 M456.455,11.183c0,1.573,1.285,2.86,2.861,2.86
			c1.578,0,2.859-1.287,2.859-2.86c0-1.576-1.281-2.856-2.859-2.856C457.74,8.327,456.455,9.607,456.455,11.183"/>
		<path id="Fill-64_1_" fill="#FFFFFF" d="M323.373,48.489h4.479v-0.763h-4.479V48.489z M323.373,47.214h4.479v-0.745h-4.479V47.214
			z M328.709,49.071h0.016c-0.166-0.05-1.215-0.076-3.133-0.076c-1.92,0-2.947,0.026-3.092,0.076
			c0.059-0.24,0.084-0.779,0.084-1.611c0-0.842-0.025-1.36-0.084-1.575c0.203,0.038,0.73,0.058,1.582,0.058
			c0.145-0.425,0.258-0.791,0.354-1.107l0.969,0.287c-0.197,0.302-0.348,0.58-0.451,0.828c0.119,0.01,0.326,0.01,0.629,0.01
			c1.832,0,2.873-0.024,3.129-0.074c-0.047,0.158-0.07,0.682-0.07,1.575c0,0.516,0.014,0.93,0.039,1.231l0.031,0.371L328.709,49.071
			L328.709,49.071z M329.66,52.343v0.758c-0.312-0.056-1.697-0.089-4.154-0.089c-2.537,0-3.926,0.025-4.154,0.082v-0.75
			c0.215,0.049,1.479,0.077,3.777,0.077v-0.845c-1.648,0-2.584,0.022-2.799,0.072v-0.76c0.096,0.038,1.029,0.064,2.799,0.077
			l-0.014-0.626c-2.057,0-3.186,0.025-3.367,0.081v-0.754c0.199,0.05,1.428,0.075,3.688,0.075c2.25,0,3.504-0.025,3.746-0.075v0.754
			c-0.119-0.046-1.207-0.076-3.264-0.081v0.626c1.799-0.011,2.758-0.039,2.875-0.077v0.764c-0.209-0.053-1.164-0.078-2.875-0.078
			v0.846C328.203,52.419,329.451,52.392,329.66,52.343L329.66,52.343z"/>
		<path id="Fill-65_1_" fill="#FFFFFF" d="M345.029,47.328h-0.879v-0.863h-6.086v0.863h-0.887c0.053-0.221,0.082-0.485,0.082-0.789
			c0-0.299-0.029-0.555-0.082-0.77c0.188,0.047,1.379,0.079,3.584,0.084c-0.027-0.3-0.121-0.583-0.275-0.836l0.971-0.186
			c0.115,0.412,0.201,0.748,0.258,1.017c2.07-0.012,3.178-0.037,3.314-0.071c-0.047,0.168-0.07,0.416-0.07,0.75
			C344.959,46.881,344.982,47.149,345.029,47.328 M345.131,51.966h0.014c-0.318,0.194-0.572,0.446-0.77,0.767
			c-0.473-0.352-0.834-0.713-1.096-1.086c-0.262-0.373-0.531-0.957-0.805-1.753c-0.221,0.127-0.449,0.248-0.699,0.378
			c0.088,0.344,0.135,0.682,0.135,1.014c0,0.354-0.047,0.718-0.135,1.094c-0.088,0.375-0.312,0.645-0.67,0.811
			c-0.363,0.162-0.729,0.271-1.1,0.336c-0.064-0.384-0.229-0.705-0.5-0.977c0.271,0.045,0.516,0.074,0.715,0.074
			c0.359,0,0.602-0.096,0.715-0.282c0.121-0.19,0.182-0.509,0.182-0.955c0-0.135-0.018-0.306-0.045-0.521
			c-0.91,0.807-2.135,1.524-3.678,2.149c-0.131-0.233-0.324-0.45-0.572-0.653c1.619-0.654,2.977-1.41,4.072-2.25
			c-0.064-0.156-0.152-0.322-0.248-0.488c-0.732,0.625-1.812,1.246-3.252,1.869c-0.129-0.242-0.293-0.473-0.492-0.682
			c1.299-0.469,2.436-1.021,3.43-1.665c-0.09-0.102-0.205-0.218-0.332-0.334c-0.609,0.351-1.479,0.728-2.604,1.125
			c-0.133-0.254-0.328-0.485-0.572-0.692c1.377-0.371,2.537-0.85,3.494-1.442c-1.121,0.011-1.744,0.039-1.855,0.078v-0.76
			c0.156,0.053,1.018,0.074,2.596,0.074c1.562,0,2.436-0.021,2.617-0.074v0.759c-0.217-0.046-0.949-0.078-2.205-0.078
			c-0.379,0.274-0.674,0.479-0.881,0.622c0.502,0.509,0.84,0.949,1.021,1.322c0.811-0.531,1.438-1.01,1.883-1.44l0.775,0.578
			l-0.473,0.185l-0.713,0.463c0.301,0.902,0.689,1.533,1.178,1.896C344.746,51.785,345.035,51.966,345.131,51.966"/>
		<path id="Fill-66_1_" fill="#FFFFFF" d="M358.201,51.282h1.578v-4.344h-1.578V51.282z M360.615,52.744h-0.836v-0.868h-1.578v1.079
			h-0.771c0.043-0.172,0.064-1.305,0.064-3.375c0-2.059-0.021-3.149-0.064-3.287c0.201,0.058,0.727,0.078,1.562,0.078
			c0.816,0,1.361-0.021,1.643-0.069c-0.066,0.261-0.094,1.328-0.094,3.2C360.543,51.442,360.564,52.519,360.615,52.744
			L360.615,52.744z M356.762,46.867l-0.006-0.008c-0.119,3.35-0.232,5.215-0.357,5.6c-0.119,0.379-0.641,0.642-1.562,0.792
			c0-0.396-0.131-0.726-0.4-0.985c0.229,0.038,0.436,0.057,0.602,0.057c0.293,0,0.477-0.054,0.551-0.148
			c0.072-0.098,0.145-0.527,0.211-1.295c0.068-0.766,0.137-1.86,0.211-3.283H354.9c-0.062,1.354-0.191,2.393-0.404,3.124
			c-0.207,0.735-0.707,1.673-1.5,2.819c-0.188-0.26-0.404-0.486-0.643-0.682c0.551-0.77,0.979-1.492,1.256-2.175
			c0.277-0.679,0.443-1.711,0.498-3.086h-1.408l0.01-0.735c0.18,0.043,0.648,0.068,1.42,0.078c0.021-0.55,0.023-1.154,0.023-1.808
			l0.979,0.175l-0.17,0.406l-0.02,1.227C355.93,46.937,356.545,46.917,356.762,46.867L356.762,46.867z"/>
		<path id="Fill-67_1_" fill="#FFFFFF" d="M376.018,47.043c-0.131,3.17-0.232,4.973-0.332,5.4c-0.094,0.43-0.654,0.693-1.695,0.801
			c0-0.35-0.123-0.681-0.361-1c0.236,0.025,0.438,0.043,0.6,0.043c0.354,0,0.559-0.055,0.627-0.157
			c0.064-0.106,0.131-0.522,0.195-1.257c0.068-0.733,0.137-1.783,0.205-3.15h-1.092c-0.086,1.492-0.24,2.578-0.477,3.264
			c-0.234,0.686-0.719,1.488-1.443,2.416c-0.264-0.187-0.531-0.351-0.807-0.492c0.605-0.592,1.092-1.233,1.439-1.933
			c0.354-0.688,0.557-1.772,0.604-3.254h-1.238v-0.681c0.135,0.033,0.553,0.056,1.26,0.07c0.004-0.375,0.008-1.137,0.008-2.283
			l0.865,0.066l-0.156,0.445c-0.008,0.646-0.023,1.238-0.057,1.777C375.25,47.114,375.863,47.088,376.018,47.043L376.018,47.043z
			 M370.537,50.053h0.936v-1.09h-0.936V50.053z M369.562,47.324h1.4v-0.74h-1.4V47.324z M368.984,50.053h0.881v-1.09h-0.881V50.053z
			 M372.523,46.651c-0.098-0.027-0.408-0.048-0.945-0.066v1.289l-0.611-0.07h-0.43v0.646c0.83,0,1.363-0.022,1.605-0.062
			c-0.039,0.17-0.062,0.539-0.062,1.09c0,0.57,0.021,0.952,0.062,1.157c-0.234-0.042-0.775-0.072-1.619-0.072v0.614
			c0.99-0.012,1.559-0.035,1.697-0.075v0.75c-0.207-0.046-0.77-0.071-1.686-0.071c0.01,0.963,0.025,1.502,0.049,1.625l-0.777,0.016
			c0.025-0.139,0.049-0.688,0.057-1.646c-1.168,0.006-1.824,0.037-1.963,0.078v-0.75c0.203,0.049,0.859,0.075,1.969,0.075
			l0.008-0.614c-0.793,0-1.32,0.024-1.588,0.064c0.057-0.219,0.086-0.605,0.086-1.149c0-0.571-0.027-0.94-0.08-1.104
			c0.193,0.054,0.709,0.078,1.568,0.078v-0.646h-0.305l-0.561,0.07v-1.289c-0.535,0.009-0.885,0.029-1.047,0.066v-0.758
			c0.131,0.028,0.479,0.045,1.031,0.045c-0.006-0.628-0.027-0.994-0.055-1.1l0.816,0.068c-0.125,0.08-0.186,0.25-0.186,0.513v0.538
			c0.52,0.013,0.99,0.008,1.402-0.01c-0.008-0.604-0.02-0.974-0.041-1.109l0.83,0.068c-0.107,0.067-0.17,0.24-0.178,0.513
			l-0.002,0.528c0.516-0.01,0.83-0.029,0.947-0.056v0.757L372.523,46.651L372.523,46.651z"/>
		<path id="Fill-68_1_" fill="#FFFFFF" d="M391.441,51.694h0.004c-0.197,0.56-0.391,0.959-0.578,1.197
			c-0.195,0.24-0.336,0.36-0.412,0.36h-1.852c-0.748,0-1.119-0.36-1.119-1.083v-6.956l0.863,0.095c0.014,0.023,0,0.085-0.043,0.188
			l-0.062,0.146l-0.01,2.81c0.746-0.429,1.422-0.892,2.045-1.391l0.764,0.751l-0.516,0.11c-0.441,0.311-1.197,0.749-2.283,1.301
			v2.872c0,0.285,0.182,0.431,0.547,0.433l1.42,0.008c0.145-0.07,0.279-0.547,0.428-1.429c0.148,0.154,0.318,0.29,0.5,0.411
			C391.324,51.635,391.422,51.694,391.441,51.694 M386.693,51.681c-0.965,0.58-1.828,1.157-2.609,1.733l-0.584-0.762
			c0.26-0.227,0.391-0.389,0.391-0.5v-6.68l0.965,0.098c0,0.101-0.066,0.221-0.195,0.348v2.098c1.109,0,1.762-0.027,1.967-0.08
			l-0.012,0.807c-0.227-0.041-0.875-0.062-1.955-0.062l0.01,3.402c0.684-0.41,1.295-0.799,1.84-1.165L386.693,51.681"/>
		<path id="Fill-69_1_" fill="#FFFFFF" d="M404.9,50.123l-0.701,0.412c-0.115-0.322-0.312-0.611-0.58-0.871l0.693-0.293
			C404.57,49.72,404.762,49.971,404.9,50.123L404.9,50.123z M405.379,51.365h-0.01c-0.201-0.047-1.014-0.071-2.438-0.071
			c-1.465,0-2.26,0.024-2.391,0.071l0.008-0.75c0.205,0.041,0.871,0.062,1.998,0.062v-1.505c-0.955,0.014-1.504,0.043-1.641,0.084
			v-0.749c0.137,0.04,0.686,0.068,1.641,0.075v-1.125c-1.021,0-1.627,0.028-1.812,0.079v-0.772c0.152,0.058,0.883,0.083,2.211,0.083
			c1.326,0,2.072-0.025,2.238-0.083v0.772c-0.217-0.051-0.855-0.079-1.916-0.079l-0.014,1.125c0.994-0.011,1.564-0.035,1.719-0.071
			v0.74c-0.139-0.047-0.707-0.073-1.705-0.08l-0.014,1.505c1.146,0,1.852-0.021,2.125-0.063V51.365L405.379,51.365z M400.029,52.268
			h5.807v-6.371h-5.807V52.268z M406.715,53.421h-0.879v-0.479h-5.801v0.479h-0.879c0.053-0.251,0.084-1.628,0.084-4.13
			c0-2.498-0.031-3.867-0.084-4.096c0.242,0.051,1.502,0.076,3.779,0.076c2.359,0,3.617-0.021,3.777-0.068
			c-0.055,0.219-0.086,1.582-0.086,4.088C406.629,51.793,406.66,53.169,406.715,53.421L406.715,53.421z"/>
		<path id="Fill-70_1_" fill="#FFFFFF" d="M422.486,51.793c-0.385,0.119-0.672,0.271-0.863,0.471
			c-0.219-0.505-0.668-1.369-1.352-2.604l0.688-0.364C421.531,50.176,422.035,51.009,422.486,51.793L422.486,51.793z
			 M421.623,46.364c-0.182-0.052-0.822-0.08-1.914-0.08c-1.088,0-1.715,0.028-1.867,0.08v-0.767c0.152,0.05,0.781,0.073,1.877,0.073
			c1.092,0,1.725-0.023,1.904-0.073V46.364L421.623,46.364z M422.094,48.388c-0.227-0.053-0.932-0.073-2.107-0.073l0.004,4.233
			c-0.092,0.489-0.619,0.785-1.576,0.882c-0.121-0.33-0.25-0.627-0.385-0.882c0.17,0.015,0.32,0.022,0.457,0.022
			c0.471,0,0.703-0.067,0.703-0.192v-4.063c-1.123,0-1.807,0.021-2.037,0.073l0.008-0.758c0.215,0.051,1.039,0.073,2.467,0.073
			c1.43,0,2.25-0.022,2.471-0.073v0.758H422.094z M418.713,49.542l-0.289,0.408c-0.322,0.852-0.707,1.66-1.162,2.43
			c-0.273-0.146-0.562-0.245-0.869-0.292c0.686-1.073,1.17-2.017,1.449-2.83L418.713,49.542L418.713,49.542z M417.377,45.312
			l-1.092,2.901c0.281,0.408,0.482,0.729,0.596,0.967c0.109,0.246,0.166,0.475,0.166,0.696c0,0.475-0.088,0.809-0.273,1.014
			c-0.186,0.203-0.543,0.38-1.076,0.522c-0.119-0.324-0.275-0.625-0.467-0.893c0.256,0,0.461-0.01,0.621-0.04
			c0.162-0.028,0.268-0.069,0.324-0.112c0.061-0.055,0.088-0.146,0.088-0.276c0-0.531-0.215-1.122-0.639-1.772l0.768-2.318h-1.236
			v7.25h-0.812c0.059-0.154,0.08-1.485,0.08-3.993c0-2.466-0.021-3.779-0.064-3.946c0.215,0.053,0.711,0.081,1.479,0.081
			C416.617,45.393,417.127,45.365,417.377,45.312L417.377,45.312z"/>
		<path id="Fill-71_1_" fill="#FFFFFF" d="M438.215,50.601h0.008c-0.203-0.056-0.73-0.083-1.562-0.083v2.137
			c-0.094,0.487-0.508,0.785-1.225,0.881c-0.08-0.355-0.186-0.623-0.307-0.803c0.121,0.014,0.23,0.019,0.328,0.019
			c0.369,0,0.553-0.065,0.553-0.201V50.52c-0.799,0-1.283,0.028-1.461,0.083l0.014-0.758c0.189,0.041,0.678,0.066,1.447,0.066V49.18
			l0.859-0.808h-1.549v-0.639c0.207,0.049,0.605,0.075,1.189,0.075c0.582,0,0.998-0.024,1.238-0.075l0.068,0.646
			c-0.205,0.114-0.596,0.413-1.16,0.879v0.653c0.799,0,1.311-0.026,1.557-0.067v0.758L438.215,50.601L438.215,50.601z
			 M438.113,46.953c-0.188-0.047-1-0.072-2.439-0.084c-0.283,0.668-0.57,1.209-0.859,1.629c-0.186-0.202-0.375-0.356-0.582-0.465
			c0.639-0.782,1.098-1.85,1.383-3.185l0.865,0.185l-0.553,1.274c1.34-0.007,2.066-0.032,2.188-0.075L438.113,46.953L438.113,46.953
			z M433.691,46.178l-0.713,0.182c-0.113-0.426-0.264-0.838-0.455-1.236l0.66-0.211C433.361,45.274,433.533,45.699,433.691,46.178
			L433.691,46.178z M434.549,46.479v0.771c-0.229-0.059-0.758-0.086-1.574-0.086h-0.092c-0.006,0.314-0.02,0.695-0.047,1.142h1.42
			c-0.068,2.552-0.133,3.974-0.166,4.271c-0.041,0.291-0.404,0.518-1.092,0.676c-0.049-0.309-0.18-0.6-0.395-0.881
			c0.221,0.035,0.398,0.061,0.539,0.061c0.145,0,0.229-0.023,0.258-0.066c0.031-0.043,0.062-0.304,0.098-0.771
			c0.037-0.471,0.062-1.374,0.082-2.701l-0.76,0.012c-0.076,0.98-0.189,1.727-0.326,2.241c-0.139,0.515-0.457,1.214-0.949,2.099
			c-0.18-0.142-0.408-0.27-0.684-0.398c0.6-1.035,0.969-1.886,1.109-2.557c0.141-0.67,0.213-1.711,0.223-3.123
			c-0.379,0.021-0.625,0.039-0.756,0.062v-0.76c0.256,0.062,0.77,0.088,1.537,0.088C433.791,46.555,434.318,46.528,434.549,46.479
			L434.549,46.479z M431.549,46.219l-0.465,0.545c-0.367-0.343-0.791-0.669-1.268-0.98l0.588-0.592
			C430.852,45.528,431.236,45.865,431.549,46.219L431.549,46.219z M431.439,48.395l-0.578,0.635c-0.318-0.34-0.73-0.675-1.23-0.998
			l0.465-0.574C430.615,47.778,431.061,48.088,431.439,48.395L431.439,48.395z M431.254,50.063l-0.871,3.264l-0.762-0.479
			c0.398-1.103,0.713-2.164,0.947-3.183L431.254,50.063L431.254,50.063z"/>
		<path id="Fill-72_1_" fill="#FFFFFF" d="M452.502,51.388c-0.047,0.806-0.168,1.229-0.359,1.28h-1.207
			c-0.254,0-0.389-0.131-0.389-0.397l-0.01-1.399c0.75-0.355,1.572-0.7,2.471-1.033l-0.689-0.768
			c-0.395,0.357-0.988,0.737-1.779,1.143v-1.719l0.115-0.27c0-0.042-0.279-0.082-0.854-0.128v4.093c0,0.747,0.406,1.123,1.217,1.123
			l1.484,0.01c0.102,0,0.232-0.1,0.406-0.308c0.172-0.198,0.33-0.55,0.473-1.048v0.012
			C452.936,51.774,452.643,51.576,452.502,51.388 M451.213,45.449l0.326-0.248l-1.096-0.295c-0.205,1.211-1.006,2.351-2.402,3.408
			c0.326,0.12,0.584,0.273,0.771,0.465c0.896-0.72,1.588-1.619,2.072-2.703c0.562,1.121,1.303,2.025,2.191,2.703
			c0.127-0.146,0.389-0.375,0.783-0.688C452.768,47.508,451.887,46.627,451.213,45.449 M447.641,50.725l0.012-1.07
			c0.363-0.014,0.75-0.014,1.158,0v-0.586h-1.158v-1.048l0.109-0.284c0-0.035-0.301-0.078-0.902-0.125
			c0.031,0.108,0.049,0.597,0.07,1.467h-0.83c0.264-0.715,0.555-1.457,0.883-2.226h0.066c1.125,0,1.812,0.028,2.062,0.078v-0.774
			c-0.232,0.055-0.848,0.084-1.863,0.084c0.205-0.457,0.395-0.828,0.582-1.125l-0.938-0.399l-0.52,1.508
			c-0.699,0-1.145-0.017-1.334-0.067v0.764c0.119-0.03,0.48-0.051,1.096-0.066c-0.549,1.479-0.91,2.215-1.096,2.215l0.186,0.771
			c0.438-0.085,1.004-0.148,1.705-0.174v1.179c-0.668,0.108-1.326,0.2-1.984,0.257l0.279,0.866c0.389-0.092,0.959-0.22,1.717-0.374
			c-0.023,1.102-0.049,1.707-0.082,1.814h0.793v-1.959l1.459-0.256v-0.787C448.438,50.569,447.951,50.672,447.641,50.725"/>
	</g>
	<g>
		<rect x="177.825" y="7.539" fill="#FFFFFF" width="123.97" height="45.999"/>
		<g>
			<polygon fill="#231815" points="220.039,41.184 294.583,41.184 294.583,41.97 288.753,41.965 288.753,42.787 225.865,42.787 
				225.865,41.886 220.039,41.886 			"/>
			<path fill="#F9BE00" d="M202.739,17.921c-0.713-0.045-1.596-0.253-2.869,0.051c-1.16,0.28-0.898,0.8-0.995,1.272
				c-0.099,0.46-0.32,2.505-0.19,2.835c0.117,0.316,1.555,1.107,2.477,1.442c0.896,0.336,1.6,0.571,2.517,0.474
				c0.841-0.085,1.816-0.833,2.019-0.926c0.19-0.102,0.736-0.335,0.736-0.335c-0.158-0.855-0.079-2.946-0.079-2.946
				c-0.51-1.311-1.726-1.875-1.903-1.873C204.284,17.917,203.455,17.965,202.739,17.921L202.739,17.921z M201.403,18.262
				c0.486,0.035,0.576,0.097,0.973,0.261c0.396,0.148,1.065,0.626,0.715,1.459c-0.349,0.845-1.299,1.479-1.657,1.546
				c-0.368,0.068-0.989,0.354-1.604,0.244c-0.318-0.046-0.488-0.351-0.447-1.322c0.031-0.97,0.139-1.748,0.494-1.968
				C200.229,18.25,200.891,18.23,201.403,18.262z"/>
			<path fill="#009844" d="M193.996,46.996c0,0,0.27,0.113,0.462,0.021c0.201-0.091,0.724-0.21,0.965-0.365
				c0.24-0.144,1.105-0.445,1.398-0.551c0.292-0.117,1.335-0.343,1.486-0.408c0.154-0.064,0.281-0.156,0.381-0.158
				c0.104,0,0.484-0.043,0.396-0.184c-0.104-0.125-0.64,0.033-0.854,0.024c-0.217-0.011-1.619,0.243-2.356,0.569
				c-0.737,0.324-1.229,0.649-1.471,0.767C194.146,46.828,193.996,46.996,193.996,46.996L193.996,46.996z M215.123,43.121
				c0,0,0.04,0.18-0.139,0.22c-0.317,0.08-0.45-0.147-0.677-0.172c-0.244-0.023-0.484,0.016-0.652-0.071
				c-0.166-0.102-0.217-0.125-0.6-0.121c-0.385-0.009-1.785-0.009-1.699-0.252c0.072-0.242,0.15-0.283,0.276-0.296
				c0.382-0.056,1.431,0.011,1.214-0.037c0.357,0.073,0.319,0.099,0.678,0.185c0.355,0.086,0.624,0.135,0.775,0.185
				c0.168,0.062,0.426,0.226,0.554,0.313C214.971,43.149,215.123,43.121,215.123,43.121L215.123,43.121z M213.24,38.433
				c0,0-0.06,0.308-0.251,0.22c-0.181-0.076-1.012-0.334-2.199-0.49c-1.188-0.155-2.219,0.098-2.706-0.062
				c-0.487-0.163-0.551-0.341-0.144-0.433c0.571-0.121,2.307-0.125,2.779-0.026C211.18,37.739,213.24,38.433,213.24,38.433
				L213.24,38.433z M188.764,41.395c0.57-0.324,0.914-0.441,1.205-0.611c0.293-0.182,0.468-0.5,0.619-0.541
				c0.14-0.026,0.525,0.123,0.78,0.031c0.267-0.106,0.597-0.402,0.774-0.441c0.179-0.027,0.992-0.277,1.311-0.307
				c0.815-0.084,0.813-0.277,1.106-0.291c0.536-0.043,0.444-0.158,1.044-0.38c1.537-0.616,11.207-3.257,18.396-0.812
				c0.295,0.099,0.666,0.096,0.998,0.193c0.348,0.1,0.399,0.148,0.413,0.315c0.013,0.166-0.097,0.601-0.036,0.638
				c0.078,0.051,0.092,0.254,0.324,0.252c0,0-0.048,0.191-0.062,0.295c0.002,0.088-0.072,0.242-0.069,0.512l0.165,0.037
				c0,0,0.244,0.187,0.436,0.236c0,0-0.269,0.002-0.12,0.715c0.079,0.42-0.096,0.729-0.233,0.91
				c-0.126,0.18,0.015,0.278,0.246,0.303c0.381,0.047,0.217,0.111,0.343,0.211c0,0-0.713,0.008-1.03-0.002
				c-0.204-0.01-0.174,0.461-0.084,0.705c0.118,0.278,0.809,0.426,1.541,0.764c0.844,0.387,1.037,0.601,1.883,1.015
				c0,0-9.068-2.771-17.723-0.407c0,0-1.466,0.18-1.525,0.704c0,0,0.869-0.071,1.148,0.078c0,0-2.099,0.479-3.752,1.209
				c-1.638,0.729-2.46,1.272-4.275,2.362c-1.94,1.167-2.396,1.236-2.693,1.212c-0.291-0.036-0.255-0.188-0.361-0.457
				c-0.092-0.252-0.449-0.529-0.682-0.616c-0.217-0.074-0.611-0.085-0.766-0.146c-0.166-0.062-0.588-0.008-0.781-0.211
				c-0.193-0.188-0.201-1.119-0.14-1.26c0.063-0.152,0.118-1.061-0.073-1.236c-0.195-0.176-0.561,0.093-0.883-0.057
				c-0.32-0.16-0.412-0.531-0.506-1.039c-0.107-0.523-0.635-0.865-0.662-1.207c-0.031-0.574,0.26-0.756,0.551-0.963
				C185.895,42.889,188.194,41.731,188.764,41.395z"/>
			<path fill="#E50012" d="M193.348,23.034c-1.426,0.27-3.002,0.795-3.814,1.261c-0.826,0.467-2.399,1.235-2.743,1.48
				c-0.341,0.246-0.222,0.627-0.374,0.82c-0.15,0.205-0.302,0.361-0.301,0.502c0,0.151,1.079,2.183,1.079,2.183
				c0.063,0.1,0.066,0.177-0.021,0.306c-0.089,0.117-0.089,0.192-0.151,0.397c-0.074,0.205-0.209,0.588-0.131,0.728
				c0.09,0.153,0.203,0.125,0.166,0.292c-0.023,0.165,0.016,0.294,0.016,0.294s1.942-1.052,2.477-1.352
				c0.546-0.31,1.928-1.012,2.225-0.849c0.268,0.15-0.057,0.92-0.057,0.92c0.762-0.351,1.002-0.445,2.522-0.344
				c1.532,0.113,2.173,0.172,2.284,0.093c0.114-0.077,0.266-0.346,0.393-0.348c0.115-0.001,0.256,0.124,0.348,0.124
				c0.089-0.001,1.668-1.636,2.175-3.196c0.533-1.625,0.501-2.315-0.036-2.59c-0.477-0.25-1.217-0.385-1.578-0.623
				C197.312,22.805,194.776,22.754,193.348,23.034L193.348,23.034z M206.946,24.462c0,0-0.053,0.905-0.024,1.275
				c0.028,0.371-0.021,1.825-0.04,2.501c-0.031,0.664-0.324,2.146-0.578,2.353c-0.24,0.18-0.869,0.925-0.959,1.169
				c-0.084,0.256-0.174,0.359-0.34,0.438c-0.151,0.063-0.633,0.401-1.219,0.61c-0.598,0.198-0.76,0.53-1.652,0.679
				c-0.877,0.149-1.967-0.351-2.365-0.5c-0.396-0.162-0.764-0.082-0.764-0.082s1.188-1.109,0.992-1.54
				c-0.209-0.433,0.072-0.702,0.17-1.062c0.098-0.357-0.187-0.828-0.433-1.182c-0.235-0.355-0.363-0.543-0.149-0.801
				c0.215-0.256,0.604-0.962,0.604-1.129c-0.001-0.177,0.453-0.667,0.679-0.963c0.239-0.295,0.568-0.478,0.876-0.531
				c0.316-0.067,1.146-0.15,1.908-0.463C204.324,24.971,204.97,24.494,206.946,24.462L206.946,24.462z M207.427,18.411
				c0,0,1.947-0.363,2.291-0.481c0.33-0.119,1.426-0.23,2.322,0.08c0.691,0.236,0.866,1.05,0.868,1.292
				c0.001,0.242,0.034,1.123,0.074,1.339c0.04,0.23,0.049,0.956,0.081,1.53c0.017,0.575-0.097,1.926-0.008,2.296
				c0.109,0.355,0.57,0.875,0.626,1.079c0.053,0.217,0.003,0.42-0.341,0.399c-0.344-0.009-0.949-0.349-1.268-0.269
				c-0.329,0.066-0.732,0.707-1.023,0.953c-0.291,0.258-0.988,0.737-1.328,0.997c-0.267,0.193-0.533,0.4-0.736,0.452
				c-0.203,0.052-0.474,0.069-0.693-0.389c-0.224-0.469-0.251-0.979-0.23-1.235c0.012-0.254-0.07-0.74-0.07-0.74
				s0.244,0.037,0.332,0.023c0.078-0.026,0.138-0.307-0.007-0.815c-0.157-0.521-0.44-0.952-0.405-2.433
				c0.039-1.479,0.268-2.644,0.086-3.049c-0.17-0.407-0.478-0.531-0.543-0.721c-0.078-0.204-0.039-0.115-0.078-0.204
				C207.337,18.424,207.427,18.411,207.427,18.411L207.427,18.411z M204.634,10.567c-1.006,0.048-2.617,0.956-3.725,2.663
				c-0.994,1.49-0.584,1.739-0.312,2.055c0.27,0.318,1.425,1.06,1.681,1.25c0.26,0.188,1.102,0.257,1.102,0.257
				c-0.029-0.345-0.386-0.392-0.285-0.622c0.084-0.245,1.309-0.421,1.703-0.284c0.834,0.26,1.724,1.311,1.893,1.462
				c0.18,0.163,0.551,0.441,0.973,0.462c0.434,0.033,0.918-0.048,1.307-0.753c0.262-0.474,0.754-1.181,0.877-1.616
				c0.123-0.448,0.22-1.138,0.213-1.735c-0.008-0.601,0.021-1.851-0.031-2.042c-0.055-0.191-0.665-0.248-1.112-0.307
				c-0.448-0.061-1.675-0.354-2.251-0.464C206.091,10.782,205.642,10.507,204.634,10.567L204.634,10.567z M194.731,11.451
				c0.189-0.04,0.103,0.011,0.295-0.015c0.265-0.042,0.414-0.31,0.53-0.528c0.111-0.204,0.378-0.463,0.825-0.352
				c0.447,0.096,0.512,0.136,1.061,0.22c0.537,0.096,1.234-0.32,1.772-0.184c1.29,0.333,1.235,1.149,1.239,1.686
				c0.005,0.548-0.586,1.166-1.723,2.798c-1.749,2.528-1.879,4.583-1.559,5.09c0.326,0.521,0.419,0.978,0.293,1.095
				c-0.127,0.102-0.242,0.103-0.343,0.218c-0.089,0.119-0.242,0.092-0.394,0.158c-0.332,0.158-0.839,0.353-1.693,0.247
				c-0.884-0.107-1.497-0.356-1.704-0.572c-0.926-0.96-1.308-2.309-1.509-3.29c-0.215-0.979,0.029-2.309,0.212-3.179
				c0.194-0.855,0.365-2.822,1.274-4.03c0.189-0.27,0.584-0.285,0.674-0.184c0,0-0.046,0.435,0.045,0.674
				c0.079,0.243,0.219,0.166,0.221,0.279c0.002,0.103,0.103,0.127,0.242,0.061C194.569,11.605,194.528,11.49,194.731,11.451z"/>
			<path fill="#231815" d="M234.042,14.163c0,0,2.586-0.774,6.307,0.51c0,0,1.242,0.554,2.03,1.474c0,0,0.337,1.271,0.071,1.533
				c0,0,0.162,0.789-2.669,0.744c0,0-1.84,0.337-2.101,0.599c-0.519,0.21-0.801,0.342-1.141,0.454c0,0,0.262,0.261,2.814-0.263
				c0,0,2.791-0.613,4.895-0.482c0,0,2.189,0.03,2.843,0.817c0.251,0.721,0.9,2.144,1.009,2.232
				c0.016-0.043-2.908,0.236-4.116-0.349c0,0,0.014-0.41,0.279-0.627c0,0,0.245-0.468-1.854-0.219c0,0-4.993,0.466-7.622,1.254
				c0.225,0-2.883,0.79-3.021,1.184c0,0,2.512,0.028,4.219,1.343c0,0,1.286,0.438,0.116,3.912c-0.001-0.005-0.45,1.521-1.634,3.416
				c0,0-1.387,1.971-1.518,2.365c0,0-1.957-0.481-4.85,2.409c-0.744-0.373-1.16-0.076-1.691,0.376
				c0.855-0.972,2.276-2.597,2.276-3.063c0-0.377-0.886,0.861-1.444,1.211c0.141-0.054,1.367-1.67,1.637-2.379
				c0,0,1.752-2.89,1.487-7.225c0,0,0.218-0.395-0.7-1.446c-0.104-0.068,0.072-0.219,0.467-0.394c0,0-0.088-0.308-1.516,0.132
				c0,0-0.701,0.51-2.148-0.147c0,0,0.103-0.277,0.51-0.51c-0.074,0.052,2.14-1.118,3.957-1.752
				c1.734-0.604,1.998-0.789,3.898-1.225c0.117,0.118,0.662-1.96-1.355-0.877c-0.249,0.135-0.527,0.375-0.922,0.541
				c0.023,0.017,0.535-0.334,0.951-0.813c0.444-0.514,0.999-0.874,1.298-1.056c0,0,0.013-2.834-1.753-3.591L234.042,14.163
				L234.042,14.163z M271.46,35.883c-0.433-0.404-0.901-1.159-1.011-1.727c-0.16-0.84-0.072-1.092,0.302-1.092
				c0.515,0,0.976,1.109,0.976,1.109s0.927,0.492,0.883,0.743C272.516,35.46,271.574,35.889,271.46,35.883L271.46,35.883z
				 M279.484,24.289c0,0-1.021-0.204-1.652-0.413c-0.626-0.21-3.878,0.246-6.104,2.896c-1.6,1.908-0.558,3.558,0.486,4.254
				c1.047,0.696,3.115,1.278,3.881,0.995c0.763-0.276,2.344-2.645,2.718-4.108C279.177,26.45,279.484,24.289,279.484,24.289
				L279.484,24.289z M271.352,12.456c-0.758,5.105-3.046,7.833-3.046,7.833s1.046-1.206,1.274-1.344
				c0.174-0.107,0.344,0.138,0.305,0.341c-0.029,0.199-0.119,0.409-0.119,0.409s0.821-0.936,1.117-0.942
				c0.495-0.011,0.406,0.402,0.939,0.418c0.906,0.037,1.602-1.414,1.602-1.414l1.014,0.126c1.146-2.393,3.574-2.7,3.574-2.7
				c-0.478,3.559-5.699,5.28-5.699,5.28s-0.736-0.422-0.969-0.338c-0.241,0.079-0.396,0.415-0.443,0.604
				c-0.051,0.188-0.674,1.513-0.877,1.95c-0.211,0.436-0.814,2.379-0.936,2.878c-0.118,0.492-0.738,4.527-0.834,5.866
				c-0.102,1.337-0.07,5.985,1.459,7.455c1.529,1.471,3.207,0.901,4.407-0.091c1.199-0.988,2.1-2.039,2.1-2.039
				s1.591,0.51,3.507,0.029c1.924-0.479,3.75-1.408,4.68-1.74c0.932-0.329,2.285-0.27,2.999-1.049
				c0.558-0.61,0.343-1.367,0.121-1.779c-0.757-1.412,0.274-1.386,0.274-1.386c-1.799,0.096-1.763-0.168-1.323-0.378
				c0.376-0.179,1.054-0.305,1.054-0.305s0.563-0.115,0.457-0.436c-0.09-0.266-0.398-0.488-0.056-0.765
				c0.241-0.197,1.087-0.532,1.087-0.532c-2.641,0.017-4.205,0.551-5.523,1.042c-1.321,0.498-2.507,1.356-3.238,1.758
				c-0.899,0.492-1.67,0.312-1.67,0.312c0.62-1.24,0.931-3.401,0.931-3.401s-0.481-1.498,0.052-2.789
				c0.516-1.288,0.786-3.046,0.477-3.436c-0.32-0.392-0.528-0.553-2.898-0.15c-2.369,0.407-3.807,1.716-4.617,2.345
				c-1.499,1.158-2.562,4.021-2.562,4.021c0.24-5.01,2.292-6.798,2.292-6.798s3.262-0.754,3.797-0.945
				c3.111-1.141,4.258-2.414,4.258-2.414l-0.02-1.499c-1.107-0.466-1.301-1.828-1.301-1.828s0.413-0.175,0.637-0.277
				c0.222-0.107,0.493-0.244,0.582-0.094c0.09,0.143,0,0.22,0.15,0.28c0.154,0.054,0.834-0.089,1.104-0.203
				c0.27-0.108,0.856-0.216,0.856-0.216c-0.562-0.6-0.815-1.078-0.815-1.078c-0.947,0.347-1.739,0.388-2.26,0.49
				c-0.518,0.108-1.484,0.498-2.119,0.857c-0.643,0.361-1.822,1.211-2.215,1.158c-0.269-0.042-0.197-0.268,0.085-0.492
				c0.278-0.214,0.428-0.305,0.578-0.688c0.15-0.378,1.558-1.608,1.732-2.016c0.167-0.415,0.181-0.94,0.181-0.94
				c-1.121-0.871-2.892-0.854-3.895-0.901c-0.996-0.048-2.512,0.025-2.512,0.025S271.616,10.669,271.352,12.456L271.352,12.456z
				 M264.358,20.097c2.271,1.391,1.438,4.87,0.981,6.052c-0.45,1.181-1.114,2.297-1.634,2.47c-0.514,0.167-1.478-0.132-1.478-0.132
				s0.364,0.282-0.193,1.698c-0.966,2.452-0.149,3.282-0.149,3.282s1.029-0.217,1.307-0.283c0.283-0.066,1.633-1.582,2.063-2.141
				c0.429-0.559,0.708-1.524,0.966-2.68c0.337-1.501,0.771-4.115,0.492-6.377c-0.108-0.864-0.318-1.396-0.318-1.396
				s-0.143,0.101-0.51-0.097C265.333,20.199,264.358,20.097,264.358,20.097L264.358,20.097z M261.057,12.462
				c0,0,0.312-0.013,1.091-0.247c0.822-0.239,1.952-0.27,2.413,0.03c0.455,0.3,1.361,1.974,1.572,2.838
				c0.298,1.217-0.078,1.614-0.078,1.614s1.617-0.319,1.952-0.319c0.343,0,1.221,0.36,1.221,0.515c0,0.163,0,0.504-0.481,0.683
				c-0.479,0.182-1.337-0.059-1.755-0.082c-0.417-0.019-0.718,0-0.858,0.239c-0.139,0.241-0.078,0.762-0.139,0.943
				c-0.123,0.376-0.381,0.395-0.381,0.395s-0.076-0.678-0.196-0.977c-0.12-0.3-0.479-0.157-0.658,0
				c-0.181,0.161-0.538,0.917-0.84,1.235c-0.524,0.558-1.682,1.829-2.729,5.229c-1.68,5.383-1.404,12.015-1.404,12.015
				s-0.768-0.678-0.768-0.959c0-0.726,0.096-5.958,0.947-10.34c0.642-3.311,2.562-5.938,2.562-5.938s-2.028,1.014-2.455,1.368
				c-0.426,0.36-0.993,0.919-1.256,1.049c-0.26,0.126-0.458-0.083-0.705-0.017c-0.244,0.066-0.959,0.097-0.959,0.097
				s0.57-0.439,1.223-0.96c1.297-1.039,6.388-3.744,6.388-3.744s-0.047-0.078-0.587-0.977c-0.539-0.9-1.912-3.017-2.649-3.497
				C261.429,12.588,261.057,12.462,261.057,12.462L261.057,12.462z M249.233,23.852c0,0-0.688,0.389-0.916,0.479
				c-0.22,0.091-0.586,0.557-0.526,0.829c0.06,0.275,0.394,0.406,0.845,0.725c0.45,0.314,1.356,0.869,1.356,0.869
				s0.293,0.349,1.206-1.288c0.84-1.523,1.199-1.656,1.35-1.565c0.15,0.09,0.227,0.21,0.227,0.21
				c-0.78,0.57-1.066,1.788-1.245,2.435c-0.181,0.647-0.835,2.74-0.468,3.749c0.254,0.688,0.795,0.829,1.126,1.085
				c0.329,0.252,1.294,0.84,1.477,1.464c0.18,0.635-0.472,0.738-0.472,0.738s0.597-0.133,0.851,0.106
				c0.243,0.235,0.363,0.361,0.513,0.421c0.149,0.061,0.357,0.271,0.9,0.307c0.537,0.035,0.384-0.453,0.384-0.608
				c0-0.149-0.355-1.323-1.536-2.176c-1.078-0.78-1.961-0.852-2.256-1.08c-0.424-0.335-0.689-1.356-0.549-2.37
				c0.133-1.008,0.495-2.495,0.887-2.886c0.395-0.394,1.018-1.324,1.396-1.683c0.457-0.44,0.653-0.35,0.653-0.35
				s-0.091-0.107-0.118-0.28c-0.031-0.146-0.064-0.168-0.091-0.27c-0.023-0.097,0.013-0.205,0.013-0.205s-1.261,0.03-1.447,0.083
				c-0.193,0.056-0.178,0.115-0.402,0.168c-0.227,0.055-0.533,0.246-0.801,0.504c-0.273,0.252-0.521,0.815-1.531,1.146
				C248.33,24.973,249.233,23.852,249.233,23.852L249.233,23.852z M251.198,17.95c0,0,1.547,0.685,1.408,2.441
				c-0.04,0.642-0.67,0.814-1.098,1.067c-0.421,0.258-0.809,0.3-1.385,1.746c0,0-0.043-0.302-0.193-0.65
				c-0.148-0.346-0.197-1.635-0.018-2.343c0.188-0.709,0.606-1.834,0.05-2.322L251.198,17.95z"/>
			<path fill="#231815" d="M292.475,10.49c1.16,0,2.107,0.946,2.107,2.107c0,1.16-0.947,2.108-2.107,2.108
				c-1.162,0-2.107-0.948-2.107-2.108C290.368,11.436,291.312,10.49,292.475,10.49L292.475,10.49z M292.475,10.85
				c-0.963,0-1.75,0.784-1.75,1.748c0,0.962,0.787,1.746,1.75,1.746c0.961,0,1.748-0.784,1.748-1.746
				C294.223,11.635,293.436,10.85,292.475,10.85L292.475,10.85z M291.599,13.745h0.47v-0.897h0.496c0.168,0,0.273,0.032,0.322,0.098
				c0.033,0.048,0.052,0.161,0.052,0.334c0,0.119,0.003,0.211,0.011,0.275c0.01,0.065,0.021,0.128,0.041,0.19h0.529v-0.061
				c-0.049-0.019-0.08-0.053-0.087-0.105c-0.012-0.054-0.015-0.171-0.015-0.353c0-0.199-0.025-0.34-0.073-0.42
				c-0.038-0.059-0.111-0.111-0.22-0.16c0.11-0.039,0.2-0.107,0.262-0.208c0.062-0.098,0.093-0.212,0.093-0.34
				c0-0.208-0.073-0.375-0.227-0.498c-0.12-0.101-0.284-0.149-0.495-0.149h-1.159V13.745L291.599,13.745z M292.069,12.46h0.561
				c0.129,0,0.224-0.023,0.282-0.072c0.06-0.047,0.09-0.127,0.09-0.241c0-0.079-0.021-0.144-0.06-0.194
				c-0.058-0.07-0.148-0.106-0.276-0.106h-0.597V12.46L292.069,12.46z"/>
			<path fill="#E50012" d="M230.066,47.199c-0.18-0.168-0.362-0.295-0.548-0.377c-0.184-0.086-0.382-0.125-0.586-0.125
				c-0.322,0-0.58,0.096-0.775,0.289c-0.193,0.196-0.293,0.457-0.293,0.78c0,0.316,0.092,0.569,0.279,0.757s0.437,0.282,0.75,0.282
				c0.188,0,0.379-0.041,0.574-0.119c0.197-0.079,0.409-0.204,0.639-0.38l-0.062,2.023c-0.215,0.088-0.428,0.152-0.641,0.193
				c-0.211,0.045-0.428,0.065-0.641,0.065c-0.266,0-0.521-0.03-0.766-0.088c-0.248-0.06-0.468-0.142-0.667-0.253
				c-0.479-0.272-0.845-0.618-1.091-1.038c-0.25-0.421-0.374-0.9-0.374-1.443c0-0.401,0.072-0.774,0.214-1.118
				c0.139-0.343,0.343-0.646,0.61-0.906c0.271-0.266,0.583-0.465,0.938-0.603c0.357-0.137,0.745-0.205,1.158-0.205
				c0.221,0,0.438,0.023,0.653,0.068c0.214,0.046,0.422,0.112,0.627,0.205v1.991h0.002V47.199z M247.708,47.255h1.46h0.671h0.873
				c0.006,0.108,0.009,0.192,0.012,0.245c0.003,0.055,0.003,0.102,0.003,0.144c0,0.308-0.032,0.589-0.091,0.845
				c-0.059,0.254-0.146,0.481-0.26,0.678c-0.275,0.461-0.637,0.812-1.075,1.057c-0.442,0.244-0.939,0.365-1.497,0.365
				c-0.412,0-0.795-0.069-1.148-0.205c-0.353-0.135-0.669-0.336-0.94-0.602c-0.271-0.264-0.476-0.565-0.614-0.906
				c-0.141-0.342-0.208-0.711-0.208-1.109c0-0.402,0.067-0.775,0.212-1.117c0.139-0.341,0.344-0.64,0.611-0.9
				c0.27-0.262,0.584-0.463,0.939-0.6c0.354-0.137,0.736-0.205,1.148-0.205c0.56,0,1.055,0.119,1.488,0.363
				c0.436,0.238,0.789,0.594,1.063,1.059l-1.397,0.494c-0.247-0.445-0.623-0.591-1.107-0.591c-0.762,0-1.232,0.585-1.232,1.486
				c0,0.899,0.471,1.459,1.232,1.459c0.622,0,1.048-0.312,1.223-0.979h-1.365L247.708,47.255L247.708,47.255z M266.198,50.444
				c-0.65-0.037-0.92-0.276-0.816-0.756l1.944-3.021h-1.906v-1.604h3.664c0.562,0.021,0.938,0.194,0.919,0.704l-1.93,3.02h2.104
				v1.658h-3.979V50.444z M284.883,49.524v-4.46h1.964v3.634h1.906v1.746h-2.74C285.323,50.449,284.948,50.143,284.883,49.524z"/>
		</g>
	</g>
</g>
</svg>
