<svg xmlns="http://www.w3.org/2000/svg" width="640" height="90" viewBox="0 -14.46 640 90" enable-background="new 0 -14.46 640 90"><path fill="#fff" d="M320.35 7.539h134.322v34.296h-134.322v-34.296z"/><path fill="#006AB6" d="M321.201 8.395h132.633v32.607h-132.633v-32.607z"/><path fill="#000D57" d="M321.199 8.395h32.678v32.607h-32.678v-32.607z"/><path fill="#FBC200" d="M353.875 30.97h99.959v10.032h-99.959v-10.032z"/><path fill="#000D57" d="M358.848 33.865h.658v4.565h-.658v-4.565z"/><path fill="#000D57" d="M364.205 33.865h.889l2.025 3.676h.016v-3.676h.648v4.565h-.836l-2.068-3.753h-.02v3.753h-.654v-4.565"/><path fill="#000D57" d="M373.396 34.444h-1.424v-.578h3.504v.578h-1.428v3.988h-.652v-3.988"/><path fill="#000D57" d="M379.703 33.865h2.562v.576h-1.906v1.332h1.73v.577h-1.73v1.505h1.906v.576h-2.562v-4.566"/><path fill="#000D57" d="M386.816 33.865h1.121c.9 0 1.77.144 1.77 1.235 0 .558-.408.947-.938 1.041v.009c.197.08.307.18.443.463l.863 1.817h-.746l-.699-1.583c-.207-.447-.424-.447-.768-.447h-.398v2.03h-.646l-.002-4.565zm.651 1.961h.559c.627 0 .996-.276.996-.711 0-.412-.318-.672-.918-.672h-.637v1.383z"/><path fill="#000D57" d="M394.391 33.865h.889l2.021 3.676h.018v-3.676h.656v4.565h-.842l-2.068-3.753h-.018v3.753h-.654l-.002-4.565"/><path fill="#000D57" d="M404.117 33.865h.689l1.934 4.565h-.719l-.461-1.151h-2.242l-.463 1.151h-.689l1.951-4.565zm.322.616l-.91 2.264h1.822l-.912-2.264z"/><path fill="#000D57" d="M411.373 34.444h-1.428v-.578h3.504v.578h-1.42v3.988h-.656v-3.988"/><path fill="#000D57" d="M417.641 33.865h.652v4.565h-.652v-4.565z"/><path fill="#000D57" d="M424.967 33.785c1.389 0 2.203 1.011 2.203 2.363 0 1.385-.803 2.36-2.203 2.36-1.393 0-2.195-.976-2.195-2.36-.002-1.351.81-2.363 2.195-2.363m0 4.151c1.059 0 1.516-.879 1.516-1.787 0-.929-.502-1.791-1.516-1.789-1.008-.002-1.508.86-1.508 1.789 0 .908.457 1.787 1.508 1.787"/><path fill="#000D57" d="M431.635 33.865h.895l2.02 3.676h.014v-3.676h.654v4.565h-.84l-2.068-3.753h-.014v3.753h-.656v-4.565"/><path fill="#000D57" d="M441.365 33.865h.686l1.936 4.565h-.717l-.463-1.151h-2.242l-.467 1.151h-.688l1.955-4.565zm.319.616l-.906 2.264h1.822l-.916-2.264z"/><path fill="#000D57" d="M448.178 33.865h.658v3.99h1.916v.576h-2.574v-4.566"/><path fill="#fff" d="M337.574 12.89c1.172 1.129 2.479 2.328 3.611 3.496l-1.326 1.703v.084l3.514 1.565 2.373-1.627-1.438-1.589v-.114c1.473-1.04 2.73-2.038 4.156-2.991l-.688 7.115h-20.482l-.691-7.115c1.426.953 2.688 1.951 4.154 2.991v.114l-1.432 1.589 2.371 1.627 3.51-1.565v-.084l-1.322-1.703c1.135-1.167 2.439-2.366 3.607-3.496h.083"/><path fill="#fff" d="M347.617 21.814l-.205 2.373-7.578-.002v8.188l3.693-.021c.82-.003 1.689-.865 1.51-1.434-.189-.827-.938-1.376-1.627-1.787.139 0 2.67-1.863 3.857-2.666-.055.515-.904 7.206-.914 7.314l-8.744 3.322h-.146l-8.748-3.322c-.01-.108-.854-6.8-.91-7.314 1.188.802 3.719 2.666 3.854 2.666-.689.411-1.428.96-1.627 1.787-.174.569.693 1.431 1.514 1.434l3.695.021.002-8.188-7.588.002-.203-2.373h20.165"/><path fill="#fff" d="M359.078 17.683c0-2.332-.078-2.685-1.789-2.835v-.215l3.723-.12c3.855-.124 4.156 1.753 4.156 2.483 0 1.285-.793 2.018-1.893 2.505l.076.104c1.18 2.063 2.641 4.68 5.164 5.199l-.047.232c-1.623-.079-2.814-.032-3.699-.948-1.002-1.048-1.801-2.392-2.123-3.047-.607-1.267-1.16-.905-2.232-1.085v2.455c0 1.677.035 1.981 2.129 2.272v.229h-5.363v-.229c1.836-.242 1.85-.701 1.898-2.272v-4.728zm1.336 2.014c1.469-.013 3.184-.682 3.184-2.378 0-1.786-1.57-2.497-3.184-2.485v4.863z"/><path fill="#fff" d="M370.732 25.055c-2.1 0-3.76-1.324-3.76-3.491 0-2.104 1.729-3.558 3.771-3.558 2.078 0 3.742 1.343 3.742 3.497.003 2.076-1.737 3.552-3.753 3.552m-.015-6.711c-1.648 0-2.324 1.709-2.324 3.112 0 1.419.799 3.265 2.443 3.265 1.543 0 2.23-1.753 2.23-3.069 0-1.396-.687-3.308-2.349-3.308"/><path fill="#fff" d="M374.973 19.534c-.271-.686-.334-.839-1.1-.961v-.229h3.166v.229c-1.164.062-.855.761-.551 1.539l1.498 3.875.943-2.74c.689-1.986.812-2.521-.316-2.673v-.229h2.674v.229c-.67.08-.889.351-1.18.933l-.645 1.478-2.35 5.903c-.568 1.412-.961 1.89-1.572 1.89-.416 0-.752-.338-.752-.765 0-.319.182-.609.486-.713.156.091.629.425.814.425.334 0 .604-.827.719-1.052l.504-1.174-2.338-5.965"/><path fill="#fff" d="M384.363 21.134c.125-1.665-.307-2.353-1.512-2.353-1.051 0-.947.505-.947 1.343l-.764.047c-.121 0-.354.013-.354-.152 0-.413 1.68-2 2.922-2 1.402 0 1.826 1.07 1.826 2.286v2.17c0 1.34-.121 2.181 1.338 1.951v.341c-.586.173-1.088.222-1.547.222-.641 0-.889-.364-.965-.962-.488.551-1.156 1.04-1.941 1.04-.975 0-1.521-.828-1.521-1.739 0-.231.033-.446.09-.671l3.375-1.523zm-2.06 1.357c-.062.198-.107.391-.107.606 0 .644.369 1.208 1.064 1.208.422 0 .83-.277 1.105-.563v-2.304l-2.062 1.053z"/><path fill="#fff" d="M386.166 24.912v-.372c1.062-.125 1.191-.368 1.191-1.398v-6.479c0-.641.02-.839-.746-1.389v-.153l1.758-.67.168.062v8.628c0 1.25.061 1.373 1.193 1.542v.229h-3.564"/><path fill="#fff" d="M404.17 21.134c.125-1.665-.307-2.353-1.512-2.353-1.053 0-.947.505-.947 1.343l-.768.047c-.123 0-.352.013-.352-.152 0-.413 1.684-2 2.922-2 1.404 0 1.836 1.07 1.836 2.286v2.17c0 1.34-.156 2.271 1.322 1.951v.341c-.58.173-1.082.222-1.547.222-.637 0-.879-.364-.957-.962-.486.551-1.16 1.04-1.938 1.04-.98 0-1.535-.828-1.535-1.739 0-.231.035-.446.098-.671l3.378-1.523zm-2.065 1.357c-.061.198-.104.391-.104.606 0 .644.361 1.208 1.064 1.208.412 0 .826-.277 1.102-.563v-2.304l-2.062 1.053z"/><path fill="#fff" d="M399.709 17.677h-.229c-.283-1.72-1.303-2.957-3.131-2.957-2.799 0-4.375 2.291-4.375 4.913 0 3.003 2.311 5.092 4.523 5.092 2.002 0 2.793-1.465 3.488-3.108l.211.092c-.184.928-.473 1.841-.84 2.726-.982.474-2.033.654-3.115.654-3.201 0-6.031-1.829-6.031-5.277 0-2.712 2.113-5.458 6.152-5.458 1.162 0 2.336.23 3.346.825v2.498"/><path fill="#fff" d="M440.48 21.124c.127-1.658-.311-2.348-1.516-2.348-1.051 0-.945.504-.945 1.34l-.762.047c-.125 0-.354.019-.354-.153 0-.41 1.678-1.998 2.918-1.998 1.402 0 1.832 1.068 1.832 2.288v2.166c0 1.344-.213 2.196 1.184 2.121v.267c-.582.169-.938.127-1.396.127-.641 0-.887-.365-.963-.958-.482.551-1.16 1.036-1.939 1.036-.975 0-1.529-.823-1.529-1.743 0-.229.029-.437.094-.667l3.376-1.525zm-2.06 1.359c-.062.197-.109.396-.109.604 0 .647.363 1.208 1.072 1.208.41 0 .824-.272 1.1-.561v-2.306l-2.063 1.055z"/><path fill="#fff" d="M408.338 23.14c0 1.25.062 1.372 1.527 1.538v.231h-3.818v-.365c1.025-.087 1.098-.338 1.113-1.527v-2.788c0-.646.014-.843-.744-1.39v-.155l1.812-.67.17.062-.062 1.801h.031c.336-.81 1.193-1.863 2.152-1.863.43 0 .783.275.783.703 0 .41-.447.792-.797.96-.264-.199-.643-.532-.979-.504-1.301.121-1.191 2.2-1.191 2.427l.003 1.54"/><path fill="#fff" d="M411.777 24.909v-.231c1.125-.166 1.176-.348 1.188-1.538v-2.913c0-.641.018-.841-.93-1.388v-.155l1.939-.67.17.062v5.064c0 1.25.059 1.372 1.191 1.538v.231h-3.558zm2.493-9.436c0 .427-.355.78-.783.78-.426 0-.777-.354-.777-.78 0-.425.354-.78.777-.78.427 0 .783.355.783.78z"/><path fill="#fff" d="M415.891 16.658c0-.644.012-.841-.744-1.39v-.152l1.756-.672.168.061v4.362c.75-.408 1.684-.853 2.551-.853 1.697 0 2.873 1.572 2.873 3.17 0 2.703-2.492 3.88-4.172 3.88-.912 0-1.604-.25-2.432-.614v-7.792zm1.179 5.153c0 1.42.154 2.776 1.924 2.776.842 0 2.197-.673 2.197-2.789 0-1.832-1.223-3.021-2.695-3.021-.523 0-.951.137-1.426.336v2.698z"/><path fill="#fff" d="M423.203 16.658c0-.644.01-.841-.748-1.39v-.152l1.756-.672.168.061v4.362c.748-.408 1.682-.853 2.549-.853 1.701 0 2.875 1.572 2.875 3.17 0 2.703-2.488 3.88-4.172 3.88-.914 0-1.604-.25-2.428-.614v-7.792zm1.176 5.153c0 1.42.154 2.776 1.924 2.776.842 0 2.203-.673 2.203-2.789 0-1.832-1.225-3.021-2.705-3.021-.521 0-.947.137-1.422.336v2.698z"/><path fill="#fff" d="M431.801 21.019c-.119 1.588.967 3.067 2.689 3.067.801 0 1.344-.352 1.803-.967l.229.172c-.58.992-1.617 1.771-2.809 1.771-1.896 0-3.209-1.56-3.209-3.385 0-1.973 1.373-3.664 3.439-3.664 1.375 0 2.287.869 2.348 2.243h-4.426l-.064.763zm3.041-1.173c-.135-.702-.562-1.498-1.377-1.498-.867 0-1.387.856-1.555 1.619l2.932-.121z"/><path fill="#fff" d="M443.508 20.229c0-.646.018-.843-.75-1.39v-.155l1.822-.67.17.06-.127 1.118c.877-.644 1.711-1.178 2.688-1.178 1.84 0 1.934 1.51 1.934 2.41v2.716c0 1.25.055 1.372 1.189 1.538v.231h-3.564v-.231c1.133-.166 1.182-.348 1.195-1.538v-1.754c0-1.069.041-2.577-1.82-2.577-.625 0-1.055.195-1.561.658v3.673c0 1.25.066 1.372 1.193 1.538v.231h-3.559l-.004-.28c1.096-.089 1.178-.299 1.191-1.489l.003-2.911"/><path fill="#fff" d="M459.57 11.181c.57 0 .971-.292.971-.78v-.006c0-.46-.354-.74-.965-.74h-1.158v1.526h1.152zm-1.582-1.921h1.623c.463 0 .836.136 1.07.378.188.182.293.445.293.74v.012c0 .62-.436.989-1.025 1.092l1.158 1.543h-.523l-1.094-1.463h-1.072v1.463h-.43v-3.765z"/><path fill="#fff" d="M456.793 11.183c0-1.39 1.133-2.519 2.523-2.519 1.395 0 2.52 1.129 2.52 2.519 0 1.388-1.127 2.519-2.52 2.519-1.39-.001-2.523-1.131-2.523-2.519m-.338 0c0 1.573 1.285 2.86 2.861 2.86 1.578 0 2.859-1.287 2.859-2.86 0-1.576-1.281-2.856-2.859-2.856-1.576 0-2.861 1.28-2.861 2.856"/><path fill="#fff" d="M323.373 48.489h4.479v-.763h-4.479v.763zm0-1.275h4.479v-.745h-4.479v.745zm5.336 1.857h.016c-.166-.05-1.215-.076-3.133-.076-1.92 0-2.947.026-3.092.076.059-.24.084-.779.084-1.611 0-.842-.025-1.36-.084-1.575.203.038.73.058 1.582.058.145-.425.258-.791.354-1.107l.969.287c-.197.302-.348.58-.451.828.119.01.326.01.629.01 1.832 0 2.873-.024 3.129-.074-.047.158-.07.682-.07 1.575 0 .516.014.93.039 1.231l.031.371-.003.007zm.951 3.272v.758c-.312-.056-1.697-.089-4.154-.089-2.537 0-3.926.025-4.154.082v-.75c.215.049 1.479.077 3.777.077v-.845c-1.648 0-2.584.022-2.799.072v-.76c.096.038 1.029.064 2.799.077l-.014-.626c-2.057 0-3.186.025-3.367.081v-.754c.199.05 1.428.075 3.688.075 2.25 0 3.504-.025 3.746-.075v.754c-.119-.046-1.207-.076-3.264-.081v.626c1.799-.011 2.758-.039 2.875-.077v.764c-.209-.053-1.164-.078-2.875-.078v.846c2.285-.001 3.533-.028 3.742-.077z"/><path fill="#fff" d="M345.029 47.328h-.879v-.863h-6.086v.863h-.887c.053-.221.082-.485.082-.789 0-.299-.029-.555-.082-.77.188.047 1.379.079 3.584.084-.027-.3-.121-.583-.275-.836l.971-.186c.115.412.201.748.258 1.017 2.07-.012 3.178-.037 3.314-.071-.047.168-.07.416-.07.75 0 .354.023.622.07.801m.102 4.638h.014c-.318.194-.572.446-.77.767-.473-.352-.834-.713-1.096-1.086-.262-.373-.531-.957-.805-1.753-.221.127-.449.248-.699.378.088.344.135.682.135 1.014 0 .354-.047.718-.135 1.094-.088.375-.312.645-.67.811-.363.162-.729.271-1.1.336-.064-.384-.229-.705-.5-.977.271.045.516.074.715.074.359 0 .602-.096.715-.282.121-.19.182-.509.182-.955 0-.135-.018-.306-.045-.521-.91.807-2.135 1.524-3.678 2.149-.131-.233-.324-.45-.572-.653 1.619-.654 2.977-1.41 4.072-2.25-.064-.156-.152-.322-.248-.488-.732.625-1.812 1.246-3.252 1.869-.129-.242-.293-.473-.492-.682 1.299-.469 2.436-1.021 3.43-1.665-.09-.102-.205-.218-.332-.334-.609.351-1.479.728-2.604 1.125-.133-.254-.328-.485-.572-.692 1.377-.371 2.537-.85 3.494-1.442-1.121.011-1.744.039-1.855.078v-.76c.156.053 1.018.074 2.596.074 1.562 0 2.436-.021 2.617-.074v.759c-.217-.046-.949-.078-2.205-.078-.379.274-.674.479-.881.622.502.509.84.949 1.021 1.322.811-.531 1.438-1.01 1.883-1.44l.775.578-.473.185-.713.463c.301.902.689 1.533 1.178 1.896.485.357.774.538.87.538"/><path fill="#fff" d="M358.201 51.282h1.578v-4.344h-1.578v4.344zm2.414 1.462h-.836v-.868h-1.578v1.079h-.771c.043-.172.064-1.305.064-3.375 0-2.059-.021-3.149-.064-3.287.201.058.727.078 1.562.078.816 0 1.361-.021 1.643-.069-.066.261-.094 1.328-.094 3.2.002 1.94.023 3.017.074 3.242zm-3.853-5.877l-.006-.008c-.119 3.35-.232 5.215-.357 5.6-.119.379-.641.642-1.562.792 0-.396-.131-.726-.4-.985.229.038.436.057.602.057.293 0 .477-.054.551-.148.072-.098.145-.527.211-1.295.068-.766.137-1.86.211-3.283h-1.112c-.062 1.354-.191 2.393-.404 3.124-.207.735-.707 1.673-1.5 2.819-.188-.26-.404-.486-.643-.682.551-.77.979-1.492 1.256-2.175.277-.679.443-1.711.498-3.086h-1.408l.01-.735c.18.043.648.068 1.42.078.021-.55.023-1.154.023-1.808l.979.175-.17.406-.02 1.227c.989-.003 1.604-.023 1.821-.073z"/><path fill="#fff" d="M376.018 47.043c-.131 3.17-.232 4.973-.332 5.4-.094.43-.654.693-1.695.801 0-.35-.123-.681-.361-1 .236.025.438.043.6.043.354 0 .559-.055.627-.157.064-.106.131-.522.195-1.257.068-.733.137-1.783.205-3.15h-1.092c-.086 1.492-.24 2.578-.477 3.264-.234.686-.719 1.488-1.443 2.416-.264-.187-.531-.351-.807-.492.605-.592 1.092-1.233 1.439-1.933.354-.688.557-1.772.604-3.254h-1.238v-.681c.135.033.553.056 1.26.07.004-.375.008-1.137.008-2.283l.865.066-.156.445c-.008.646-.023 1.238-.057 1.777 1.087-.004 1.7-.03 1.855-.075zm-5.481 3.01h.936v-1.09h-.936v1.09zm-.975-2.729h1.4v-.74h-1.4v.74zm-.578 2.729h.881v-1.09h-.881v1.09zm3.539-3.402c-.098-.027-.408-.048-.945-.066v1.289l-.611-.07h-.43v.646c.83 0 1.363-.022 1.605-.062-.039.17-.062.539-.062 1.09 0 .57.021.952.062 1.157-.234-.042-.775-.072-1.619-.072v.614c.99-.012 1.559-.035 1.697-.075v.75c-.207-.046-.77-.071-1.686-.071.01.963.025 1.502.049 1.625l-.777.016c.025-.139.049-.688.057-1.646-1.168.006-1.824.037-1.963.078v-.75c.203.049.859.075 1.969.075l.008-.614c-.793 0-1.32.024-1.588.064.057-.219.086-.605.086-1.149 0-.571-.027-.94-.08-1.104.193.054.709.078 1.568.078v-.646h-.305l-.561.07v-1.289c-.535.009-.885.029-1.047.066v-.758c.131.028.479.045 1.031.045-.006-.628-.027-.994-.055-1.1l.816.068c-.125.08-.186.25-.186.513v.538c.52.013.99.008 1.402-.01-.008-.604-.02-.974-.041-1.109l.83.068c-.107.067-.17.24-.178.513l-.002.528c.516-.01.83-.029.947-.056v.757l.009-.001z"/><path fill="#fff" d="M391.441 51.694h.004c-.197.56-.391.959-.578 1.197-.195.24-.336.36-.412.36h-1.852c-.748 0-1.119-.36-1.119-1.083v-6.956l.863.095-.043.188-.062.146-.01 2.81c.746-.429 1.422-.892 2.045-1.391l.764.751-.516.11c-.441.311-1.197.749-2.283 1.301v2.872c0 .285.182.431.547.433l1.42.008c.145-.07.279-.547.428-1.429.148.154.318.29.5.411l.304.177m-4.748-.013c-.965.58-1.828 1.157-2.609 1.733l-.584-.762c.26-.227.391-.389.391-.5v-6.68l.965.098c0 .101-.066.221-.195.348v2.098c1.109 0 1.762-.027 1.967-.08l-.012.807c-.227-.041-.875-.062-1.955-.062l.01 3.402c.684-.41 1.295-.799 1.84-1.165l.182.763"/><path fill="#fff" d="M404.9 50.123l-.701.412c-.115-.322-.312-.611-.58-.871l.693-.293c.258.349.45.6.588.752zm.479 1.242h-.01c-.201-.047-1.014-.071-2.438-.071-1.465 0-2.26.024-2.391.071l.008-.75c.205.041.871.062 1.998.062v-1.505c-.955.014-1.504.043-1.641.084v-.749c.137.04.686.068 1.641.075v-1.125c-1.021 0-1.627.028-1.812.079v-.772c.152.058.883.083 2.211.083 1.326 0 2.072-.025 2.238-.083v.772c-.217-.051-.855-.079-1.916-.079l-.014 1.125c.994-.011 1.564-.035 1.719-.071v.74c-.139-.047-.707-.073-1.705-.08l-.014 1.505c1.146 0 1.852-.021 2.125-.063v.752h.001zm-5.35.903h5.807v-6.371h-5.807v6.371zm6.686 1.153h-.879v-.479h-5.801v.479h-.879c.053-.251.084-1.628.084-4.13 0-2.498-.031-3.867-.084-4.096.242.051 1.502.076 3.779.076 2.359 0 3.617-.021 3.777-.068-.055.219-.086 1.582-.086 4.088.003 2.502.034 3.878.089 4.13z"/><path fill="#fff" d="M422.486 51.793c-.385.119-.672.271-.863.471-.219-.505-.668-1.369-1.352-2.604l.688-.364c.572.88 1.076 1.713 1.527 2.497zm-.863-5.429c-.182-.052-.822-.08-1.914-.08-1.088 0-1.715.028-1.867.08v-.767c.152.05.781.073 1.877.073 1.092 0 1.725-.023 1.904-.073v.767zm.471 2.024c-.227-.053-.932-.073-2.107-.073l.004 4.233c-.092.489-.619.785-1.576.882-.121-.33-.25-.627-.385-.882l.457.022c.471 0 .703-.067.703-.192v-4.063c-1.123 0-1.807.021-2.037.073l.008-.758c.215.051 1.039.073 2.467.073 1.43 0 2.25-.022 2.471-.073v.758h-.005zm-3.381 1.154l-.289.408c-.322.852-.707 1.66-1.162 2.43-.273-.146-.562-.245-.869-.292.686-1.073 1.17-2.017 1.449-2.83l.871.284zm-1.336-4.23l-1.092 2.901c.281.408.482.729.596.967.109.246.166.475.166.696 0 .475-.088.809-.273 1.014-.186.203-.543.38-1.076.522-.119-.324-.275-.625-.467-.893.256 0 .461-.01.621-.04.162-.028.268-.069.324-.112.061-.055.088-.146.088-.276 0-.531-.215-1.122-.639-1.772l.768-2.318h-1.236v7.25h-.812c.059-.154.08-1.485.08-3.993 0-2.466-.021-3.779-.064-3.946.215.053.711.081 1.479.081.777 0 1.287-.028 1.537-.081z"/><path fill="#fff" d="M438.215 50.601h.008c-.203-.056-.73-.083-1.562-.083v2.137c-.094.487-.508.785-1.225.881-.08-.355-.186-.623-.307-.803l.328.019c.369 0 .553-.065.553-.201v-2.031c-.799 0-1.283.028-1.461.083l.014-.758c.189.041.678.066 1.447.066v-.731l.859-.808h-1.549v-.639c.207.049.605.075 1.189.075.582 0 .998-.024 1.238-.075l.068.646c-.205.114-.596.413-1.16.879v.653c.799 0 1.311-.026 1.557-.067v.758l.003-.001zm-.102-3.648c-.188-.047-1-.072-2.439-.084-.283.668-.57 1.209-.859 1.629-.186-.202-.375-.356-.582-.465.639-.782 1.098-1.85 1.383-3.185l.865.185-.553 1.274c1.34-.007 2.066-.032 2.188-.075l-.003.721zm-4.422-.775l-.713.182c-.113-.426-.264-.838-.455-1.236l.66-.211c.178.361.35.786.508 1.265zm.858.301v.771c-.229-.059-.758-.086-1.574-.086h-.092c-.006.314-.02.695-.047 1.142h1.42c-.068 2.552-.133 3.974-.166 4.271-.041.291-.404.518-1.092.676-.049-.309-.18-.6-.395-.881.221.035.398.061.539.061.145 0 .229-.023.258-.066.031-.043.062-.304.098-.771.037-.471.062-1.374.082-2.701l-.76.012c-.076.98-.189 1.727-.326 2.241-.139.515-.457 1.214-.949 2.099-.18-.142-.408-.27-.684-.398.6-1.035.969-1.886 1.109-2.557.141-.67.213-1.711.223-3.123-.379.021-.625.039-.756.062v-.76c.256.062.77.088 1.537.088.817-.004 1.344-.031 1.575-.08zm-3-.26l-.465.545c-.367-.343-.791-.669-1.268-.98l.588-.592c.448.336.832.673 1.145 1.027zm-.11 2.176l-.578.635c-.318-.34-.73-.675-1.23-.998l.465-.574c.519.32.965.63 1.343.937zm-.185 1.668l-.871 3.264-.762-.479c.398-1.103.713-2.164.947-3.183l.686.398z"/><path fill="#fff" d="M452.502 51.388c-.047.806-.168 1.229-.359 1.28h-1.207c-.254 0-.389-.131-.389-.397l-.01-1.399c.75-.355 1.572-.7 2.471-1.033l-.689-.768c-.395.357-.988.737-1.779 1.143v-1.719l.115-.27c0-.042-.279-.082-.854-.128v4.093c0 .747.406 1.123 1.217 1.123l1.484.01c.102 0 .232-.1.406-.308.172-.198.33-.55.473-1.048v.012c-.445-.205-.738-.403-.879-.591m-1.289-5.939l.326-.248-1.096-.295c-.205 1.211-1.006 2.351-2.402 3.408.326.12.584.273.771.465.896-.72 1.588-1.619 2.072-2.703.562 1.121 1.303 2.025 2.191 2.703.127-.146.389-.375.783-.688-1.09-.583-1.971-1.464-2.645-2.642m-3.572 5.276l.012-1.07c.363-.014.75-.014 1.158 0v-.586h-1.158v-1.048l.109-.284c0-.035-.301-.078-.902-.125.031.108.049.597.07 1.467h-.83c.264-.715.555-1.457.883-2.226h.066c1.125 0 1.812.028 2.062.078v-.774c-.232.055-.848.084-1.863.084.205-.457.395-.828.582-1.125l-.938-.399-.52 1.508c-.699 0-1.145-.017-1.334-.067v.764c.119-.03.48-.051 1.096-.066-.549 1.479-.91 2.215-1.096 2.215l.186.771c.438-.085 1.004-.148 1.705-.174v1.179c-.668.108-1.326.2-1.984.257l.279.866c.389-.092.959-.22 1.717-.374-.023 1.102-.049 1.707-.082 1.814h.793v-1.959l1.459-.256v-.787c-.673.161-1.16.264-1.47.317"/><path fill="#fff" d="M177.825 7.539h123.97v45.999h-123.97z"/><path fill="#231815" d="M220.039 41.184h74.544v.786l-5.83-.005v.822h-62.888v-.901h-5.826z"/><path fill="#F9BE00" d="M202.739 17.921c-.713-.045-1.596-.253-2.869.051-1.16.28-.898.8-.995 1.272-.099.46-.32 2.505-.19 2.835.117.316 1.555 1.107 2.477 1.442.896.336 1.6.571 2.517.474.841-.085 1.816-.833 2.019-.926.19-.102.736-.335.736-.335-.158-.855-.079-2.946-.079-2.946-.51-1.311-1.726-1.875-1.903-1.873-.168.002-.997.05-1.713.006zm-1.336.341c.486.035.576.097.973.261.396.148 1.065.626.715 1.459-.349.845-1.299 1.479-1.657 1.546-.368.068-.989.354-1.604.244-.318-.046-.488-.351-.447-1.322.031-.97.139-1.748.494-1.968.352-.232 1.014-.252 1.526-.22z"/><path fill="#009844" d="M193.996 46.996s.27.113.462.021c.201-.091.724-.21.965-.365.24-.144 1.105-.445 1.398-.551.292-.117 1.335-.343 1.486-.408.154-.064.281-.156.381-.158.104 0 .484-.043.396-.184-.104-.125-.64.033-.854.024-.217-.011-1.619.243-2.356.569-.737.324-1.229.649-1.471.767-.257.117-.407.285-.407.285zm21.127-3.875s.04.18-.139.22c-.317.08-.45-.147-.677-.172-.244-.023-.484.016-.652-.071-.166-.102-.217-.125-.6-.121-.385-.009-1.785-.009-1.699-.252.072-.242.15-.283.276-.296.382-.056 1.431.011 1.214-.037l.678.185c.355.086.624.135.775.185.168.062.426.226.554.313.118.074.27.046.27.046zm-1.883-4.688s-.06.308-.251.22c-.181-.076-1.012-.334-2.199-.49-1.188-.155-2.219.098-2.706-.062-.487-.163-.551-.341-.144-.433.571-.121 2.307-.125 2.779-.026.461.097 2.521.791 2.521.791zm-24.476 2.962c.57-.324.914-.441 1.205-.611.293-.182.468-.5.619-.541.14-.026.525.123.78.031l.774-.441c.179-.027.992-.277 1.311-.307.815-.084.813-.277 1.106-.291.536-.043.444-.158 1.044-.38 1.537-.616 11.207-3.257 18.396-.812l.998.193c.348.1.399.148.413.315.013.166-.097.601-.036.638.078.051.092.254.324.252l-.062.295c.002.088-.072.242-.069.512l.165.037s.244.187.436.236c0 0-.269.002-.12.715.079.42-.096.729-.233.91-.126.18.015.278.246.303.381.047.217.111.343.211 0 0-.713.008-1.03-.002-.204-.01-.174.461-.084.705.118.278.809.426 1.541.764.844.387 1.037.601 1.883 1.015 0 0-9.068-2.771-17.723-.407 0 0-1.466.18-1.525.704 0 0 .869-.071 1.148.078 0 0-2.099.479-3.752 1.209-1.638.729-2.46 1.272-4.275 2.362-1.94 1.167-2.396 1.236-2.693 1.212-.291-.036-.255-.188-.361-.457-.092-.252-.449-.529-.682-.616l-.766-.146c-.166-.062-.588-.008-.781-.211-.193-.188-.201-1.119-.14-1.26.063-.152.118-1.061-.073-1.236l-.883-.057c-.32-.16-.412-.531-.506-1.039-.107-.523-.635-.865-.662-1.207-.031-.574.26-.756.551-.963.304-.219 2.603-1.377 3.173-1.713z"/><path fill="#E50012" d="M193.348 23.034c-1.426.27-3.002.795-3.814 1.261-.826.467-2.399 1.235-2.743 1.48-.341.246-.222.627-.374.82-.15.205-.302.361-.301.502 0 .151 1.079 2.183 1.079 2.183.063.1.066.177-.021.306-.089.117-.089.192-.151.397-.074.205-.209.588-.131.728.09.153.203.125.166.292-.023.165.016.294.016.294s1.942-1.052 2.477-1.352c.546-.31 1.928-1.012 2.225-.849.268.15-.057.92-.057.92.762-.351 1.002-.445 2.522-.344 1.532.113 2.173.172 2.284.093.114-.077.266-.346.393-.348l.348.124c.089-.001 1.668-1.636 2.175-3.196.533-1.625.501-2.315-.036-2.59-.477-.25-1.217-.385-1.578-.623-.515-.327-3.051-.378-4.479-.098zm13.598 1.428s-.053.905-.024 1.275c.028.371-.021 1.825-.04 2.501-.031.664-.324 2.146-.578 2.353-.24.18-.869.925-.959 1.169-.084.256-.174.359-.34.438-.151.063-.633.401-1.219.61-.598.198-.76.53-1.652.679-.877.149-1.967-.351-2.365-.5-.396-.162-.764-.082-.764-.082s1.188-1.109.992-1.54c-.209-.433.072-.702.17-1.062.098-.357-.187-.828-.433-1.182-.235-.355-.363-.543-.149-.801.215-.256.604-.962.604-1.129-.001-.177.453-.667.679-.963.239-.295.568-.478.876-.531.316-.067 1.146-.15 1.908-.463.672-.263 1.318-.74 3.294-.772zm.481-6.051s1.947-.363 2.291-.481c.33-.119 1.426-.23 2.322.08.691.236.866 1.05.868 1.292.001.242.034 1.123.074 1.339.04.23.049.956.081 1.53.017.575-.097 1.926-.008 2.296.109.355.57.875.626 1.079.053.217.003.42-.341.399-.344-.009-.949-.349-1.268-.269-.329.066-.732.707-1.023.953-.291.258-.988.737-1.328.997-.267.193-.533.4-.736.452-.203.052-.474.069-.693-.389-.224-.469-.251-.979-.23-1.235.012-.254-.07-.74-.07-.74s.244.037.332.023c.078-.026.138-.307-.007-.815-.157-.521-.44-.952-.405-2.433.039-1.479.268-2.644.086-3.049-.17-.407-.478-.531-.543-.721l-.078-.204c-.04-.091.05-.104.05-.104zm-2.793-7.844c-1.006.048-2.617.956-3.725 2.663-.994 1.49-.584 1.739-.312 2.055.27.318 1.425 1.06 1.681 1.25.26.188 1.102.257 1.102.257-.029-.345-.386-.392-.285-.622.084-.245 1.309-.421 1.703-.284.834.26 1.724 1.311 1.893 1.462.18.163.551.441.973.462.434.033.918-.048 1.307-.753.262-.474.754-1.181.877-1.616.123-.448.22-1.138.213-1.735-.008-.601.021-1.851-.031-2.042-.055-.191-.665-.248-1.112-.307-.448-.061-1.675-.354-2.251-.464-.576-.111-1.025-.386-2.033-.326zm-9.903.884l.295-.015c.265-.042.414-.31.53-.528.111-.204.378-.463.825-.352.447.096.512.136 1.061.22.537.096 1.234-.32 1.772-.184 1.29.333 1.235 1.149 1.239 1.686.005.548-.586 1.166-1.723 2.798-1.749 2.528-1.879 4.583-1.559 5.09.326.521.419.978.293 1.095-.127.102-.242.103-.343.218-.089.119-.242.092-.394.158-.332.158-.839.353-1.693.247-.884-.107-1.497-.356-1.704-.572-.926-.96-1.308-2.309-1.509-3.29-.215-.979.029-2.309.212-3.179.194-.855.365-2.822 1.274-4.03.189-.27.584-.285.674-.184 0 0-.046.435.045.674.079.243.219.166.221.279.002.103.103.127.242.061.08-.038.039-.153.242-.192z"/><path fill="#231815" d="M234.042 14.163s2.586-.774 6.307.51c0 0 1.242.554 2.03 1.474 0 0 .337 1.271.071 1.533 0 0 .162.789-2.669.744 0 0-1.84.337-2.101.599-.519.21-.801.342-1.141.454 0 0 .262.261 2.814-.263 0 0 2.791-.613 4.895-.482 0 0 2.189.03 2.843.817.251.721.9 2.144 1.009 2.232.016-.043-2.908.236-4.116-.349 0 0 .014-.41.279-.627 0 0 .245-.468-1.854-.219 0 0-4.993.466-7.622 1.254.225 0-2.883.79-3.021 1.184 0 0 2.512.028 4.219 1.343 0 0 1.286.438.116 3.912-.001-.005-.45 1.521-1.634 3.416 0 0-1.387 1.971-1.518 2.365 0 0-1.957-.481-4.85 2.409-.744-.373-1.16-.076-1.691.376.855-.972 2.276-2.597 2.276-3.063 0-.377-.886.861-1.444 1.211.141-.054 1.367-1.67 1.637-2.379 0 0 1.752-2.89 1.487-7.225 0 0 .218-.395-.7-1.446-.104-.068.072-.219.467-.394 0 0-.088-.308-1.516.132 0 0-.701.51-2.148-.147 0 0 .103-.277.51-.51-.074.052 2.14-1.118 3.957-1.752 1.734-.604 1.998-.789 3.898-1.225.117.118.662-1.96-1.355-.877-.249.135-.527.375-.922.541.023.017.535-.334.951-.813.444-.514.999-.874 1.298-1.056 0 0 .013-2.834-1.753-3.591l.991-.088zm37.418 21.72c-.433-.404-.901-1.159-1.011-1.727-.16-.84-.072-1.092.302-1.092.515 0 .976 1.109.976 1.109s.927.492.883.743c-.094.544-1.036.973-1.15.967zm8.024-11.594s-1.021-.204-1.652-.413c-.626-.21-3.878.246-6.104 2.896-1.6 1.908-.558 3.558.486 4.254 1.047.696 3.115 1.278 3.881.995.763-.276 2.344-2.645 2.718-4.108.364-1.463.671-3.624.671-3.624zm-8.132-11.833c-.758 5.105-3.046 7.833-3.046 7.833s1.046-1.206 1.274-1.344c.174-.107.344.138.305.341-.029.199-.119.409-.119.409s.821-.936 1.117-.942l.939.418c.906.037 1.602-1.414 1.602-1.414l1.014.126c1.146-2.393 3.574-2.7 3.574-2.7-.478 3.559-5.699 5.28-5.699 5.28s-.736-.422-.969-.338c-.241.079-.396.415-.443.604-.051.188-.674 1.513-.877 1.95-.211.436-.814 2.379-.936 2.878-.118.492-.738 4.527-.834 5.866-.102 1.337-.07 5.985 1.459 7.455 1.529 1.471 3.207.901 4.407-.091 1.199-.988 2.1-2.039 2.1-2.039s1.591.51 3.507.029c1.924-.479 3.75-1.408 4.68-1.74.932-.329 2.285-.27 2.999-1.049.558-.61.343-1.367.121-1.779-.757-1.412.274-1.386.274-1.386-1.799.096-1.763-.168-1.323-.378.376-.179 1.054-.305 1.054-.305s.563-.115.457-.436c-.09-.266-.398-.488-.056-.765.241-.197 1.087-.532 1.087-.532-2.641.017-4.205.551-5.523 1.042-1.321.498-2.507 1.356-3.238 1.758-.899.492-1.67.312-1.67.312.62-1.24.931-3.401.931-3.401s-.481-1.498.052-2.789c.516-1.288.786-3.046.477-3.436-.32-.392-.528-.553-2.898-.15-2.369.407-3.807 1.716-4.617 2.345-1.499 1.158-2.562 4.021-2.562 4.021.24-5.01 2.292-6.798 2.292-6.798s3.262-.754 3.797-.945c3.111-1.141 4.258-2.414 4.258-2.414l-.02-1.499c-1.107-.466-1.301-1.828-1.301-1.828l.637-.277c.222-.107.493-.244.582-.094.09.143 0 .22.15.28.154.054.834-.089 1.104-.203.27-.108.856-.216.856-.216-.562-.6-.815-1.078-.815-1.078-.947.347-1.739.388-2.26.49-.518.108-1.484.498-2.119.857-.643.361-1.822 1.211-2.215 1.158-.269-.042-.197-.268.085-.492.278-.214.428-.305.578-.688.15-.378 1.558-1.608 1.732-2.016.167-.415.181-.94.181-.94-1.121-.871-2.892-.854-3.895-.901-.996-.048-2.512.025-2.512.025s.529.139.265 1.926zm-6.994 7.641c2.271 1.391 1.438 4.87.981 6.052-.45 1.181-1.114 2.297-1.634 2.47-.514.167-1.478-.132-1.478-.132s.364.282-.193 1.698c-.966 2.452-.149 3.282-.149 3.282s1.029-.217 1.307-.283c.283-.066 1.633-1.582 2.063-2.141.429-.559.708-1.524.966-2.68.337-1.501.771-4.115.492-6.377-.108-.864-.318-1.396-.318-1.396s-.143.101-.51-.097c-.552-.294-1.527-.396-1.527-.396zm-3.301-7.635s.312-.013 1.091-.247c.822-.239 1.952-.27 2.413.03.455.3 1.361 1.974 1.572 2.838.298 1.217-.078 1.614-.078 1.614s1.617-.319 1.952-.319c.343 0 1.221.36 1.221.515 0 .163 0 .504-.481.683-.479.182-1.337-.059-1.755-.082-.417-.019-.718 0-.858.239-.139.241-.078.762-.139.943-.123.376-.381.395-.381.395s-.076-.678-.196-.977c-.12-.3-.479-.157-.658 0-.181.161-.538.917-.84 1.235-.524.558-1.682 1.829-2.729 5.229-1.68 5.383-1.404 12.015-1.404 12.015s-.768-.678-.768-.959c0-.726.096-5.958.947-10.34.642-3.311 2.562-5.938 2.562-5.938s-2.028 1.014-2.455 1.368c-.426.36-.993.919-1.256 1.049-.26.126-.458-.083-.705-.017-.244.066-.959.097-.959.097s.57-.439 1.223-.96c1.297-1.039 6.388-3.744 6.388-3.744l-.587-.977c-.539-.9-1.912-3.017-2.649-3.497-.099-.067-.471-.193-.471-.193zm-11.824 11.39s-.688.389-.916.479c-.22.091-.586.557-.526.829.06.275.394.406.845.725.45.314 1.356.869 1.356.869s.293.349 1.206-1.288c.84-1.523 1.199-1.656 1.35-1.565.15.09.227.21.227.21-.78.57-1.066 1.788-1.245 2.435-.181.647-.835 2.74-.468 3.749.254.688.795.829 1.126 1.085.329.252 1.294.84 1.477 1.464.18.635-.472.738-.472.738s.597-.133.851.106c.243.235.363.361.513.421.149.061.357.271.9.307.537.035.384-.453.384-.608 0-.149-.355-1.323-1.536-2.176-1.078-.78-1.961-.852-2.256-1.08-.424-.335-.689-1.356-.549-2.37.133-1.008.495-2.495.887-2.886.395-.394 1.018-1.324 1.396-1.683.457-.44.653-.35.653-.35s-.091-.107-.118-.28l-.091-.27c-.023-.097.013-.205.013-.205s-1.261.03-1.447.083l-.402.168c-.227.055-.533.246-.801.504-.273.252-.521.815-1.531 1.146-1.729.564-.826-.557-.826-.557zm1.965-5.902s1.547.685 1.408 2.441c-.04.642-.67.814-1.098 1.067-.421.258-.809.3-1.385 1.746 0 0-.043-.302-.193-.65-.148-.346-.197-1.635-.018-2.343.188-.709.606-1.834.05-2.322l1.236.061zM292.475 10.49c1.16 0 2.107.946 2.107 2.107 0 1.16-.947 2.108-2.107 2.108-1.162 0-2.107-.948-2.107-2.108 0-1.161.944-2.107 2.107-2.107zm0 .36c-.963 0-1.75.784-1.75 1.748 0 .962.787 1.746 1.75 1.746.961 0 1.748-.784 1.748-1.746 0-.963-.787-1.748-1.748-1.748zm-.876 2.895h.47v-.897h.496c.168 0 .273.032.322.098.033.048.052.161.052.334l.011.275.041.19h.529v-.061l-.087-.105-.015-.353c0-.199-.025-.34-.073-.42-.038-.059-.111-.111-.22-.16.11-.039.2-.107.262-.208.062-.098.093-.212.093-.34 0-.208-.073-.375-.227-.498-.12-.101-.284-.149-.495-.149h-1.159v2.294zm.47-1.285h.561c.129 0 .224-.023.282-.072.06-.047.09-.127.09-.241 0-.079-.021-.144-.06-.194-.058-.07-.148-.106-.276-.106h-.597v.613z"/><path fill="#E50012" d="M230.066 47.199c-.18-.168-.362-.295-.548-.377-.184-.086-.382-.125-.586-.125-.322 0-.58.096-.775.289-.193.196-.293.457-.293.78 0 .316.092.569.279.757s.437.282.75.282c.188 0 .379-.041.574-.119.197-.079.409-.204.639-.38l-.062 2.023c-.215.088-.428.152-.641.193-.211.045-.428.065-.641.065-.266 0-.521-.03-.766-.088-.248-.06-.468-.142-.667-.253-.479-.272-.845-.618-1.091-1.038-.25-.421-.374-.9-.374-1.443 0-.401.072-.774.214-1.118.139-.343.343-.646.61-.906.271-.266.583-.465.938-.603.357-.137.745-.205 1.158-.205.221 0 .438.023.653.068.214.046.422.112.627.205v1.991h.002v.002zm17.642.056h3.0040000000000004l.012.245.003.144c0 .308-.032.589-.091.845-.059.254-.146.481-.26.678-.275.461-.637.812-1.075 1.057-.442.244-.939.365-1.497.365-.412 0-.795-.069-1.148-.205-.353-.135-.669-.336-.94-.602-.271-.264-.476-.565-.614-.906-.141-.342-.208-.711-.208-1.109 0-.402.067-.775.212-1.117.139-.341.344-.64.611-.9.27-.262.584-.463.939-.6.354-.137.736-.205 1.148-.205.56 0 1.055.119 1.488.363.436.238.789.594 1.063 1.059l-1.397.494c-.247-.445-.623-.591-1.107-.591-.762 0-1.232.585-1.232 1.486 0 .899.471 1.459 1.232 1.459.622 0 1.048-.312 1.223-.979h-1.365l-.001-.981zm18.49 3.189c-.65-.037-.92-.276-.816-.756l1.944-3.021h-1.906v-1.604h3.664c.562.021.938.194.919.704l-1.93 3.02h2.104v1.658h-3.979v-.001zm18.685-.92v-4.46h1.964v3.634h1.906v1.746h-2.74c-.69.005-1.065-.301-1.13-.92z"/></svg>