<?xml version="1.0" encoding="utf-8"?>
<!-- Generator: Adobe Illustrator 16.0.0, SVG Export Plug-In . SVG Version: 6.00 Build 0)  -->
<!DOCTYPE svg PUBLIC "-//W3C//DTD SVG 1.1//EN" "http://www.w3.org/Graphics/SVG/1.1/DTD/svg11.dtd">
<svg version="1.1" id="图层_1" xmlns="http://www.w3.org/2000/svg" xmlns:xlink="http://www.w3.org/1999/xlink" x="0px" y="0px"
	 width="640px" height="90px" viewBox="0 0 640 90" enable-background="new 0 0 640 90" xml:space="preserve">
<g>
	<path fill="#FFFFFF" d="M320.35,7.539h134.322v34.296H320.35V7.539z"/>
	<path fill="#006AB6" d="M321.201,8.395h132.633v32.607H321.201V8.395z"/>
	<path fill="#000D57" d="M321.199,8.395h32.678v32.607h-32.678V8.395z"/>
	<path fill="#FBC200" d="M353.875,30.97h99.959v10.032h-99.959V30.97z"/>
	<path fill="#000D57" d="M358.848,33.865h0.658v4.563h-0.658V33.865z"/>
	<path fill="#000D57" d="M364.205,33.865h0.889l2.025,3.676h0.016v-3.676h0.648v4.563h-0.836l-2.068-3.753h-0.02v3.753h-0.654
		V33.865"/>
	<path fill="#000D57" d="M373.396,34.444h-1.426v-0.578h3.504v0.578h-1.428v3.986h-0.65V34.444"/>
	<path fill="#000D57" d="M379.703,33.865h2.562v0.576h-1.904v1.332h1.729v0.577h-1.729v1.505h1.904v0.576h-2.562V33.865"/>
	<path fill="#000D57" d="M386.816,33.865h1.121c0.898,0,1.77,0.144,1.77,1.235c0,0.558-0.408,0.947-0.938,1.041v0.009
		c0.195,0.08,0.307,0.18,0.441,0.463l0.863,1.815h-0.746l-0.699-1.583c-0.207-0.447-0.424-0.447-0.768-0.447h-0.398v2.03h-0.646
		L386.816,33.865L386.816,33.865z M387.467,35.826h0.561c0.627,0,0.994-0.276,0.994-0.711c0-0.412-0.316-0.672-0.918-0.672h-0.637
		V35.826z"/>
	<path fill="#000D57" d="M394.391,33.865h0.891l2.021,3.676h0.02v-3.676h0.654v4.563h-0.842l-2.066-3.753h-0.02v3.753h-0.653
		L394.391,33.865"/>
	<path fill="#000D57" d="M404.117,33.865h0.688l1.936,4.563h-0.719l-0.463-1.149h-2.24l-0.463,1.149h-0.689L404.117,33.865
		L404.117,33.865z M404.439,34.481l-0.91,2.264h1.82L404.439,34.481z"/>
	<path fill="#000D57" d="M411.373,34.444h-1.428v-0.578h3.504v0.578h-1.42v3.986h-0.656V34.444"/>
	<path fill="#000D57" d="M417.641,33.865h0.652v4.563h-0.652V33.865z"/>
	<path fill="#000D57" d="M424.967,33.785c1.391,0,2.203,1.011,2.203,2.363c0,1.385-0.803,2.36-2.203,2.36
		c-1.393,0-2.195-0.976-2.195-2.36C422.77,34.797,423.582,33.785,424.967,33.785 M424.967,37.936c1.061,0,1.518-0.879,1.518-1.787
		c0-0.929-0.503-1.791-1.518-1.789c-1.008-0.002-1.508,0.858-1.508,1.789C423.459,37.057,423.916,37.936,424.967,37.936"/>
	<path fill="#000D57" d="M431.635,33.865h0.896l2.02,3.676h0.016v-3.676h0.652v4.563h-0.84l-2.068-3.753h-0.014v3.753h-0.656v-4.563
		"/>
	<path fill="#000D57" d="M441.365,33.865h0.686l1.938,4.563h-0.719l-0.463-1.149h-2.241l-0.468,1.149h-0.688L441.365,33.865z
		 M441.684,34.481l-0.904,2.264h1.82L441.684,34.481z"/>
	<path fill="#000D57" d="M448.178,33.865h0.658v3.99h1.916v0.576h-2.574V33.865"/>
	<path fill="#FFFFFF" d="M337.574,12.89c1.172,1.129,2.479,2.328,3.609,3.496l-1.324,1.703v0.084l3.514,1.565l2.373-1.627
		l-1.438-1.589v-0.114c1.475-1.04,2.73-2.038,4.156-2.991l-0.688,7.115h-20.482l-0.69-7.115c1.427,0.953,2.688,1.951,4.153,2.991
		v0.114l-1.432,1.589l2.371,1.627l3.51-1.565v-0.084l-1.322-1.703c1.136-1.167,2.439-2.366,3.607-3.496H337.574"/>
	<path fill="#FFFFFF" d="M347.617,21.814l-0.205,2.373l-7.578-0.002v8.188l3.693-0.021c0.818-0.003,1.688-0.865,1.51-1.434
		c-0.189-0.827-0.938-1.376-1.627-1.787c0.139,0,2.67-1.863,3.855-2.666c-0.055,0.515-0.902,7.206-0.912,7.314l-8.744,3.322h-0.146
		l-8.748-3.322c-0.01-0.108-0.854-6.8-0.91-7.314c1.188,0.802,3.721,2.666,3.854,2.666c-0.689,0.411-1.428,0.96-1.627,1.787
		c-0.174,0.569,0.691,1.431,1.514,1.434l3.695,0.021l0.002-8.188l-7.588,0.002l-0.203-2.373H347.617"/>
	<path fill="#FFFFFF" d="M359.078,17.683c0-2.332-0.078-2.685-1.789-2.835v-0.215l3.723-0.12c3.855-0.124,4.156,1.753,4.156,2.483
		c0,1.285-0.793,2.018-1.893,2.505l0.074,0.104c1.182,2.063,2.643,4.68,5.164,5.199l-0.047,0.232
		c-1.623-0.079-2.812-0.032-3.699-0.948c-1.002-1.048-1.801-2.392-2.121-3.047c-0.607-1.267-1.16-0.905-2.232-1.085v2.455
		c0,1.677,0.035,1.981,2.129,2.272v0.229h-5.363v-0.229c1.836-0.242,1.852-0.701,1.898-2.272V17.683z M360.414,19.697
		c1.469-0.013,3.184-0.684,3.184-2.378c0-1.786-1.568-2.497-3.184-2.485V19.697z"/>
	<path fill="#FFFFFF" d="M370.732,25.055c-2.102,0-3.762-1.324-3.762-3.491c0-2.104,1.729-3.558,3.771-3.558
		c2.078,0,3.742,1.343,3.742,3.497C374.488,23.579,372.748,25.055,370.732,25.055 M370.717,18.344c-1.646,0-2.324,1.709-2.324,3.112
		c0,1.419,0.801,3.265,2.443,3.265c1.543,0,2.23-1.753,2.23-3.067C373.066,20.256,372.379,18.344,370.717,18.344"/>
	<path fill="#FFFFFF" d="M374.973,19.534c-0.271-0.688-0.334-0.839-1.1-0.961v-0.229h3.166v0.229
		c-1.164,0.062-0.855,0.761-0.551,1.539l1.498,3.875l0.941-2.74c0.689-1.986,0.812-2.521-0.314-2.673v-0.229h2.674v0.229
		c-0.67,0.08-0.889,0.351-1.18,0.933l-0.646,1.479l-2.35,5.901c-0.568,1.412-0.961,1.892-1.572,1.892
		c-0.416,0-0.752-0.338-0.752-0.767c0-0.317,0.182-0.607,0.484-0.713c0.156,0.091,0.631,0.425,0.814,0.425
		c0.334,0,0.604-0.827,0.719-1.052l0.504-1.174L374.973,19.534"/>
	<path fill="#FFFFFF" d="M384.363,21.134c0.125-1.665-0.309-2.353-1.514-2.353c-1.051,0-0.945,0.505-0.945,1.343l-0.766,0.047
		c-0.12,0-0.354,0.013-0.354-0.152c0-0.413,1.68-2,2.922-2c1.402,0,1.826,1.07,1.826,2.286v2.17c0,1.34-0.121,2.181,1.338,1.951
		v0.341c-0.586,0.173-1.088,0.222-1.547,0.222c-0.643,0-0.891-0.364-0.965-0.962c-0.488,0.551-1.156,1.04-1.941,1.04
		c-0.975,0-1.521-0.828-1.521-1.739c0-0.231,0.032-0.446,0.091-0.671L384.363,21.134z M382.303,22.491
		c-0.062,0.198-0.105,0.391-0.105,0.604c0,0.646,0.369,1.208,1.062,1.208c0.422,0,0.83-0.275,1.105-0.562v-2.304L382.303,22.491z"/>
	<path fill="#FFFFFF" d="M386.166,24.912V24.54c1.062-0.125,1.191-0.368,1.191-1.398v-6.479c0-0.641,0.02-0.839-0.746-1.389v-0.153
		l1.758-0.67l0.168,0.062v8.628c0,1.25,0.061,1.373,1.193,1.542v0.229H386.166"/>
	<path fill="#FFFFFF" d="M404.17,21.134c0.125-1.665-0.307-2.353-1.512-2.353c-1.053,0-0.947,0.505-0.947,1.343l-0.768,0.047
		c-0.123,0-0.354,0.013-0.354-0.152c0-0.413,1.686-2,2.922-2c1.404,0,1.836,1.07,1.836,2.286v2.17c0,1.34-0.154,2.271,1.322,1.951
		v0.341c-0.58,0.173-1.082,0.222-1.547,0.222c-0.637,0-0.879-0.364-0.957-0.962c-0.486,0.551-1.16,1.04-1.938,1.04
		c-0.979,0-1.534-0.828-1.534-1.739c0-0.231,0.034-0.446,0.098-0.671L404.17,21.134z M402.105,22.491
		c-0.062,0.198-0.104,0.391-0.104,0.604c0,0.646,0.361,1.208,1.064,1.208c0.41,0,0.824-0.275,1.102-0.562v-2.304L402.105,22.491z"/>
	<path fill="#FFFFFF" d="M399.709,17.677h-0.229c-0.283-1.72-1.305-2.957-3.133-2.957c-2.799,0-4.375,2.291-4.375,4.913
		c0,3.003,2.312,5.092,4.523,5.092c2.002,0,2.793-1.465,3.488-3.108l0.211,0.092c-0.186,0.928-0.475,1.841-0.84,2.726
		c-0.982,0.474-2.033,0.654-3.115,0.654c-3.201,0-6.031-1.829-6.031-5.277c0-2.712,2.113-5.458,6.152-5.458
		c1.162,0,2.336,0.23,3.346,0.825L399.709,17.677"/>
	<path fill="#FFFFFF" d="M440.48,21.124c0.127-1.658-0.312-2.348-1.518-2.348c-1.051,0-0.943,0.504-0.943,1.34l-0.764,0.047
		c-0.125,0-0.354,0.019-0.354-0.153c0-0.41,1.678-1.998,2.918-1.998c1.4,0,1.832,1.068,1.832,2.288v2.166
		c0,1.344-0.213,2.196,1.184,2.121v0.267c-0.582,0.169-0.938,0.127-1.396,0.127c-0.643,0-0.889-0.365-0.964-0.958
		c-0.481,0.551-1.159,1.036-1.938,1.036c-0.976,0-1.529-0.823-1.529-1.743c0-0.229,0.029-0.437,0.095-0.667L440.48,21.124z
		 M438.42,22.483c-0.062,0.197-0.109,0.396-0.109,0.604c0,0.647,0.363,1.208,1.072,1.208c0.41,0,0.824-0.272,1.102-0.561v-2.306
		L438.42,22.483z"/>
	<path fill="#FFFFFF" d="M408.338,23.14c0,1.25,0.062,1.372,1.527,1.538v0.231h-3.818v-0.365c1.025-0.087,1.098-0.338,1.113-1.527
		v-2.788c0-0.646,0.014-0.843-0.744-1.39v-0.155l1.812-0.67l0.17,0.062l-0.062,1.801h0.031c0.336-0.81,1.193-1.863,2.152-1.863
		c0.43,0,0.781,0.275,0.781,0.703c0,0.41-0.445,0.792-0.797,0.96c-0.264-0.199-0.643-0.532-0.979-0.504
		c-1.303,0.121-1.191,2.2-1.191,2.427L408.338,23.14"/>
	<path fill="#FFFFFF" d="M411.777,24.909v-0.231c1.125-0.166,1.176-0.348,1.188-1.538v-2.913c0-0.641,0.02-0.841-0.93-1.388v-0.155
		l1.938-0.67l0.171,0.062v5.062c0,1.25,0.06,1.372,1.19,1.538v0.231L411.777,24.909L411.777,24.909z M414.27,15.473
		c0,0.427-0.354,0.78-0.781,0.78s-0.777-0.354-0.777-0.78c0-0.425,0.354-0.778,0.777-0.778
		C413.914,14.693,414.27,15.048,414.27,15.473z"/>
	<path fill="#FFFFFF" d="M415.891,16.658c0-0.646,0.014-0.841-0.744-1.39v-0.152l1.758-0.672l0.168,0.061v4.362
		c0.75-0.408,1.684-0.854,2.551-0.854c1.697,0,2.873,1.572,2.873,3.17c0,2.703-2.492,3.88-4.172,3.88
		c-0.912,0-1.604-0.25-2.434-0.614V16.658z M417.07,21.811c0,1.42,0.152,2.776,1.924,2.776c0.842,0,2.197-0.673,2.197-2.789
		c0-1.832-1.225-3.021-2.695-3.021c-0.523,0-0.951,0.137-1.426,0.336V21.811z"/>
	<path fill="#FFFFFF" d="M423.203,16.658c0-0.646,0.01-0.841-0.748-1.39v-0.152l1.756-0.672l0.168,0.061v4.362
		c0.748-0.408,1.682-0.854,2.549-0.854c1.701,0,2.875,1.572,2.875,3.17c0,2.703-2.486,3.88-4.172,3.88
		c-0.914,0-1.604-0.25-2.428-0.614V16.658z M424.379,21.811c0,1.42,0.154,2.776,1.924,2.776c0.842,0,2.203-0.673,2.203-2.789
		c0-1.832-1.225-3.021-2.705-3.021c-0.521,0-0.947,0.137-1.422,0.336V21.811z"/>
	<path fill="#FFFFFF" d="M431.801,21.019c-0.119,1.588,0.967,3.067,2.689,3.067c0.801,0,1.344-0.352,1.803-0.967l0.229,0.172
		c-0.578,0.992-1.615,1.771-2.809,1.771c-1.896,0-3.209-1.56-3.209-3.385c0-1.973,1.373-3.664,3.439-3.664
		c1.375,0,2.287,0.869,2.348,2.243h-4.426L431.801,21.019z M434.842,19.846c-0.135-0.702-0.562-1.498-1.377-1.498
		c-0.867,0-1.387,0.856-1.555,1.619L434.842,19.846z"/>
	<path fill="#FFFFFF" d="M443.508,20.229c0-0.646,0.02-0.843-0.75-1.39v-0.155l1.822-0.67l0.17,0.062l-0.127,1.118
		c0.877-0.645,1.711-1.179,2.688-1.179c1.842,0,1.936,1.51,1.936,2.41v2.716c0,1.25,0.055,1.372,1.188,1.538v0.231h-3.562v-0.231
		c1.133-0.166,1.182-0.348,1.193-1.538v-1.754c0-1.068,0.041-2.577-1.818-2.577c-0.625,0-1.057,0.195-1.562,0.658v3.673
		c0,1.25,0.066,1.372,1.193,1.538v0.231h-3.559l-0.004-0.28c1.096-0.089,1.178-0.299,1.189-1.489L443.508,20.229"/>
	<path fill="#FFFFFF" d="M459.57,11.181c0.568,0,0.971-0.292,0.971-0.78v-0.006c0-0.46-0.354-0.74-0.965-0.74h-1.158v1.524
		L459.57,11.181L459.57,11.181z M457.988,9.26h1.623c0.463,0,0.836,0.136,1.068,0.378c0.188,0.184,0.293,0.445,0.293,0.74v0.012
		c0,0.62-0.436,0.989-1.023,1.092l1.158,1.543h-0.523l-1.094-1.463h-1.072v1.463h-0.43V9.26z"/>
	<path fill="#FFFFFF" d="M456.793,11.183c0-1.39,1.133-2.519,2.523-2.519c1.395,0,2.52,1.129,2.52,2.519
		c0,1.388-1.127,2.519-2.52,2.519C457.926,13.701,456.793,12.571,456.793,11.183 M456.455,11.183c0,1.573,1.285,2.86,2.861,2.86
		s2.857-1.287,2.857-2.86c0-1.576-1.281-2.856-2.857-2.856S456.455,9.607,456.455,11.183"/>
	<path fill="#FFFFFF" d="M323.373,48.489h4.479v-0.763h-4.479V48.489z M323.373,47.214h4.479v-0.745h-4.479V47.214z M328.709,49.071
		h0.016c-0.166-0.05-1.215-0.076-3.133-0.076c-1.92,0-2.947,0.026-3.092,0.076c0.059-0.24,0.084-0.779,0.084-1.611
		c0-0.842-0.025-1.36-0.084-1.575c0.203,0.038,0.73,0.06,1.582,0.06c0.145-0.427,0.258-0.791,0.354-1.107l0.971,0.287
		c-0.197,0.302-0.35,0.58-0.451,0.828c0.119,0.01,0.326,0.01,0.629,0.01c1.832,0,2.873-0.022,3.129-0.074
		c-0.047,0.158-0.07,0.684-0.07,1.575c0,0.518,0.016,0.932,0.039,1.231l0.031,0.37L328.709,49.071z M329.66,52.343v0.759
		c-0.312-0.057-1.697-0.09-4.154-0.09c-2.537,0-3.926,0.025-4.154,0.082v-0.75c0.217,0.049,1.479,0.077,3.777,0.077v-0.845
		c-1.647,0-2.584,0.021-2.799,0.072v-0.762c0.096,0.038,1.029,0.064,2.799,0.077l-0.014-0.626c-2.059,0-3.188,0.025-3.367,0.081
		v-0.754c0.199,0.05,1.428,0.075,3.688,0.075c2.25,0,3.505-0.025,3.746-0.075v0.754c-0.119-0.046-1.207-0.076-3.264-0.081v0.626
		c1.799-0.011,2.758-0.039,2.875-0.077v0.766c-0.209-0.055-1.164-0.078-2.875-0.078v0.846
		C328.203,52.419,329.451,52.393,329.66,52.343z"/>
	<path fill="#FFFFFF" d="M345.029,47.328h-0.879v-0.863h-6.086v0.863h-0.889c0.055-0.221,0.082-0.485,0.082-0.789
		c0-0.299-0.027-0.555-0.082-0.77c0.188,0.047,1.379,0.077,3.584,0.084c-0.025-0.302-0.121-0.583-0.273-0.836l0.971-0.186
		c0.115,0.412,0.201,0.748,0.258,1.017c2.07-0.012,3.178-0.037,3.314-0.069c-0.047,0.168-0.07,0.416-0.07,0.75
		C344.959,46.881,344.982,47.148,345.029,47.328 M345.131,51.966h0.014c-0.316,0.194-0.57,0.446-0.77,0.767
		c-0.473-0.352-0.834-0.713-1.096-1.086c-0.264-0.373-0.531-0.957-0.807-1.752c-0.221,0.127-0.447,0.248-0.697,0.377
		c0.088,0.346,0.135,0.684,0.135,1.016c0,0.354-0.047,0.718-0.135,1.094c-0.088,0.375-0.312,0.646-0.67,0.812
		c-0.363,0.162-0.729,0.271-1.102,0.336c-0.062-0.385-0.229-0.705-0.5-0.979c0.271,0.045,0.518,0.074,0.715,0.074
		c0.359,0,0.604-0.096,0.715-0.282c0.121-0.188,0.184-0.509,0.184-0.955c0-0.135-0.02-0.306-0.045-0.521
		c-0.91,0.807-2.135,1.522-3.68,2.147c-0.131-0.231-0.322-0.45-0.57-0.651c1.619-0.654,2.977-1.41,4.07-2.25
		c-0.062-0.156-0.15-0.322-0.246-0.488c-0.732,0.625-1.812,1.246-3.254,1.869c-0.129-0.242-0.293-0.475-0.49-0.684
		c1.299-0.469,2.436-1.021,3.43-1.664c-0.09-0.103-0.205-0.219-0.332-0.334c-0.609,0.352-1.479,0.729-2.604,1.125
		c-0.135-0.254-0.328-0.484-0.572-0.691c1.377-0.371,2.537-0.852,3.494-1.442c-1.121,0.013-1.744,0.039-1.855,0.078v-0.76
		c0.156,0.053,1.018,0.074,2.596,0.074c1.562,0,2.438-0.021,2.617-0.074v0.759c-0.217-0.046-0.949-0.078-2.205-0.078
		c-0.379,0.274-0.674,0.479-0.881,0.622c0.502,0.511,0.84,0.949,1.021,1.322c0.811-0.531,1.438-1.01,1.883-1.44l0.773,0.578
		l-0.473,0.187l-0.713,0.463c0.301,0.901,0.688,1.532,1.178,1.896C344.746,51.785,345.035,51.966,345.131,51.966"/>
	<path fill="#FFFFFF" d="M358.201,51.282h1.578v-4.345h-1.578V51.282z M360.615,52.744h-0.836v-0.868h-1.578v1.079h-0.771
		c0.043-0.172,0.064-1.305,0.064-3.375c0-2.059-0.021-3.149-0.064-3.287c0.201,0.059,0.729,0.078,1.562,0.078
		c0.814,0,1.361-0.021,1.643-0.069c-0.064,0.261-0.094,1.328-0.094,3.2C360.543,51.441,360.564,52.52,360.615,52.744z
		 M356.762,46.867l-0.006-0.008c-0.119,3.35-0.23,5.215-0.355,5.6c-0.119,0.379-0.643,0.643-1.562,0.792
		c0-0.396-0.131-0.726-0.398-0.985c0.229,0.038,0.436,0.059,0.602,0.059c0.293,0,0.477-0.055,0.551-0.148
		c0.072-0.098,0.146-0.525,0.211-1.295c0.068-0.766,0.137-1.859,0.211-3.283H354.9c-0.062,1.354-0.191,2.395-0.404,3.124
		c-0.207,0.735-0.707,1.675-1.5,2.819c-0.188-0.26-0.404-0.486-0.645-0.684c0.553-0.77,0.979-1.49,1.258-2.174
		c0.275-0.68,0.441-1.712,0.498-3.087h-1.408l0.01-0.733c0.18,0.043,0.648,0.066,1.42,0.076c0.021-0.55,0.023-1.152,0.023-1.808
		l0.979,0.175l-0.17,0.406l-0.02,1.227C355.93,46.938,356.545,46.917,356.762,46.867L356.762,46.867z"/>
	<path fill="#FFFFFF" d="M376.018,47.043c-0.131,3.17-0.23,4.973-0.332,5.4c-0.094,0.43-0.652,0.691-1.693,0.801
		c0-0.35-0.123-0.682-0.361-1c0.236,0.025,0.438,0.043,0.602,0.043c0.354,0,0.559-0.055,0.627-0.157
		c0.062-0.106,0.131-0.522,0.193-1.257c0.068-0.733,0.139-1.783,0.205-3.15h-1.092c-0.086,1.492-0.24,2.578-0.479,3.266
		c-0.232,0.686-0.719,1.486-1.441,2.416c-0.264-0.188-0.531-0.353-0.809-0.492c0.605-0.592,1.094-1.233,1.439-1.934
		c0.354-0.688,0.557-1.771,0.604-3.255h-1.238v-0.681c0.135,0.033,0.553,0.056,1.26,0.07c0.004-0.375,0.008-1.137,0.008-2.283
		l0.865,0.066l-0.156,0.445c-0.008,0.646-0.021,1.238-0.057,1.777C375.25,47.114,375.863,47.088,376.018,47.043z M370.537,50.053
		h0.936v-1.09h-0.936V50.053z M369.562,47.324h1.398v-0.74h-1.398V47.324z M368.984,50.053h0.881v-1.09h-0.881V50.053z
		 M372.523,46.65c-0.1-0.026-0.408-0.047-0.945-0.065v1.289l-0.611-0.07h-0.43v0.646c0.83,0,1.363-0.022,1.604-0.062
		c-0.037,0.171-0.062,0.539-0.062,1.091c0,0.569,0.021,0.951,0.062,1.156c-0.232-0.042-0.773-0.072-1.617-0.072v0.614
		c0.988-0.012,1.559-0.034,1.695-0.075v0.75c-0.207-0.046-0.77-0.069-1.686-0.069c0.01,0.963,0.023,1.502,0.049,1.625l-0.777,0.016
		c0.025-0.139,0.051-0.688,0.059-1.646c-1.168,0.007-1.824,0.037-1.963,0.078v-0.75c0.203,0.05,0.857,0.074,1.969,0.074l0.008-0.613
		c-0.793,0-1.32,0.023-1.588,0.063c0.057-0.219,0.086-0.604,0.086-1.147c0-0.571-0.027-0.94-0.08-1.104
		c0.193,0.054,0.709,0.078,1.568,0.078v-0.646h-0.307l-0.561,0.068V46.59c-0.535,0.01-0.885,0.029-1.047,0.066v-0.76
		c0.131,0.028,0.479,0.045,1.031,0.045c-0.008-0.626-0.027-0.992-0.057-1.1l0.816,0.068c-0.125,0.08-0.188,0.25-0.188,0.513v0.538
		c0.521,0.014,0.99,0.008,1.402-0.01c-0.008-0.604-0.02-0.974-0.041-1.109l0.83,0.068c-0.107,0.067-0.17,0.24-0.178,0.513
		l-0.002,0.528c0.516-0.01,0.828-0.029,0.945-0.057v0.758L372.523,46.65z"/>
	<path fill="#FFFFFF" d="M391.441,51.694h0.004c-0.197,0.56-0.393,0.959-0.578,1.195c-0.195,0.24-0.336,0.36-0.412,0.36h-1.852
		c-0.748,0-1.119-0.36-1.119-1.083v-6.956l0.861,0.095l-0.043,0.188l-0.062,0.146l-0.01,2.812c0.745-0.43,1.422-0.893,2.045-1.391
		l0.764,0.75l-0.516,0.109c-0.441,0.312-1.197,0.749-2.283,1.301v2.872c0,0.285,0.182,0.433,0.547,0.435l1.42,0.008
		c0.146-0.07,0.279-0.547,0.428-1.43c0.148,0.153,0.318,0.291,0.5,0.412L391.441,51.694 M386.693,51.681
		c-0.965,0.58-1.828,1.157-2.609,1.733l-0.584-0.762c0.26-0.229,0.391-0.391,0.391-0.5v-6.682l0.967,0.1
		c0,0.101-0.066,0.221-0.195,0.348v2.098c1.107,0,1.762-0.025,1.967-0.08l-0.012,0.809c-0.229-0.041-0.875-0.062-1.955-0.062
		l0.01,3.402c0.686-0.41,1.295-0.799,1.84-1.165L386.693,51.681"/>
	<path fill="#FFFFFF" d="M404.9,50.123l-0.701,0.412c-0.115-0.322-0.312-0.611-0.58-0.871l0.693-0.293
		C404.57,49.72,404.762,49.971,404.9,50.123z M405.379,51.365h-0.01c-0.201-0.047-1.014-0.071-2.438-0.071
		c-1.465,0-2.26,0.024-2.391,0.071l0.008-0.75c0.205,0.041,0.871,0.062,1.998,0.062v-1.505c-0.955,0.014-1.504,0.043-1.641,0.084
		v-0.749c0.137,0.04,0.686,0.068,1.641,0.075v-1.125c-1.021,0-1.627,0.028-1.812,0.079v-0.772c0.15,0.06,0.883,0.083,2.211,0.083
		c1.326,0,2.07-0.023,2.236-0.083v0.772c-0.217-0.051-0.854-0.079-1.916-0.079l-0.014,1.125c0.994-0.011,1.564-0.035,1.719-0.071
		v0.74c-0.139-0.047-0.707-0.073-1.705-0.08l-0.014,1.505c1.146,0,1.854-0.021,2.125-0.062L405.379,51.365L405.379,51.365z
		 M400.029,52.268h5.807v-6.371h-5.807V52.268z M406.715,53.421h-0.879v-0.479h-5.801v0.479h-0.879
		c0.053-0.251,0.084-1.628,0.084-4.13c0-2.498-0.031-3.867-0.084-4.096c0.242,0.051,1.502,0.076,3.777,0.076
		c2.359,0,3.617-0.021,3.777-0.068c-0.055,0.219-0.086,1.582-0.086,4.088C406.629,51.793,406.66,53.169,406.715,53.421z"/>
	<path fill="#FFFFFF" d="M422.486,51.793c-0.387,0.119-0.672,0.271-0.863,0.471c-0.219-0.505-0.668-1.369-1.352-2.604l0.688-0.364
		C421.531,50.176,422.035,51.009,422.486,51.793z M421.623,46.364c-0.182-0.052-0.822-0.08-1.914-0.08
		c-1.088,0-1.715,0.028-1.867,0.08v-0.769c0.152,0.051,0.781,0.073,1.877,0.073c1.092,0,1.727-0.022,1.904-0.073V46.364z
		 M422.094,48.388c-0.227-0.053-0.932-0.073-2.105-0.073l0.004,4.233c-0.092,0.489-0.619,0.785-1.576,0.882
		c-0.121-0.33-0.25-0.627-0.385-0.882l0.457,0.022c0.471,0,0.703-0.067,0.703-0.192v-4.063c-1.123,0-1.809,0.021-2.037,0.073
		l0.008-0.758c0.215,0.051,1.039,0.073,2.467,0.073c1.43,0,2.25-0.022,2.471-0.073v0.758H422.094z M418.713,49.542l-0.289,0.408
		c-0.322,0.852-0.707,1.66-1.162,2.43c-0.271-0.146-0.562-0.245-0.869-0.292c0.688-1.073,1.171-2.017,1.449-2.83L418.713,49.542z
		 M417.377,45.312l-1.092,2.901c0.281,0.408,0.48,0.729,0.596,0.967c0.109,0.246,0.166,0.477,0.166,0.696
		c0,0.476-0.088,0.81-0.272,1.014c-0.187,0.203-0.544,0.38-1.075,0.522c-0.119-0.324-0.275-0.625-0.469-0.893
		c0.258,0,0.463-0.012,0.621-0.041c0.162-0.027,0.27-0.068,0.324-0.111c0.062-0.055,0.088-0.146,0.088-0.276
		c0-0.53-0.215-1.122-0.639-1.771l0.768-2.318h-1.234v7.25h-0.812c0.061-0.154,0.08-1.484,0.08-3.993
		c0-2.466-0.021-3.779-0.062-3.946c0.215,0.053,0.711,0.081,1.479,0.081C416.617,45.393,417.127,45.365,417.377,45.312z"/>
	<path fill="#FFFFFF" d="M438.215,50.602h0.008c-0.203-0.057-0.729-0.084-1.562-0.084v2.139c-0.094,0.486-0.508,0.783-1.227,0.881
		c-0.079-0.355-0.186-0.623-0.307-0.805l0.328,0.021c0.369,0,0.553-0.063,0.553-0.201V50.52c-0.799,0-1.283,0.028-1.461,0.084
		l0.015-0.759c0.188,0.041,0.679,0.066,1.446,0.066V49.18l0.859-0.808h-1.549v-0.64c0.207,0.05,0.604,0.076,1.188,0.076
		c0.582,0,0.998-0.024,1.238-0.076l0.066,0.646c-0.204,0.114-0.596,0.413-1.158,0.879v0.653c0.799,0,1.311-0.026,1.557-0.067v0.759
		H438.215L438.215,50.602z M438.113,46.953c-0.188-0.047-1-0.072-2.439-0.084c-0.283,0.668-0.57,1.209-0.857,1.629
		c-0.188-0.202-0.375-0.355-0.582-0.465c0.639-0.782,1.098-1.85,1.383-3.187l0.864,0.187l-0.554,1.272
		c1.34-0.007,2.066-0.03,2.188-0.073L438.113,46.953L438.113,46.953z M433.691,46.178l-0.713,0.184
		c-0.113-0.428-0.266-0.84-0.455-1.236l0.658-0.211C433.361,45.274,433.533,45.699,433.691,46.178z M434.549,46.479v0.771
		c-0.229-0.059-0.758-0.086-1.574-0.086h-0.092c-0.006,0.314-0.02,0.695-0.047,1.142h1.42c-0.068,2.552-0.133,3.976-0.166,4.271
		c-0.041,0.291-0.404,0.518-1.092,0.676c-0.049-0.309-0.18-0.6-0.395-0.881c0.221,0.035,0.396,0.062,0.537,0.062
		c0.146,0,0.229-0.022,0.26-0.065c0.029-0.043,0.062-0.306,0.098-0.771c0.037-0.471,0.062-1.374,0.082-2.7l-0.76,0.013
		c-0.076,0.979-0.189,1.727-0.326,2.241c-0.139,0.515-0.457,1.214-0.949,2.099c-0.18-0.142-0.408-0.271-0.684-0.397
		c0.6-1.035,0.969-1.887,1.107-2.558c0.143-0.67,0.213-1.711,0.225-3.123c-0.379,0.021-0.625,0.039-0.756,0.062v-0.76
		c0.256,0.062,0.77,0.088,1.535,0.088C433.791,46.555,434.318,46.528,434.549,46.479z M431.549,46.219l-0.465,0.545
		c-0.367-0.343-0.791-0.669-1.268-0.979l0.588-0.592C430.852,45.528,431.236,45.865,431.549,46.219z M431.439,48.395l-0.578,0.637
		c-0.318-0.342-0.73-0.676-1.23-0.998l0.465-0.574C430.615,47.778,431.061,48.088,431.439,48.395L431.439,48.395z M431.254,50.062
		l-0.871,3.265l-0.762-0.479c0.398-1.103,0.713-2.164,0.947-3.183L431.254,50.062z"/>
	<path fill="#FFFFFF" d="M452.502,51.388c-0.047,0.808-0.168,1.229-0.359,1.28h-1.207c-0.254,0-0.389-0.131-0.389-0.396l-0.01-1.398
		c0.75-0.354,1.572-0.7,2.471-1.033l-0.688-0.768c-0.396,0.355-0.988,0.736-1.779,1.143v-1.719l0.115-0.271
		c0-0.041-0.279-0.082-0.854-0.128v4.093c0,0.748,0.406,1.123,1.218,1.123l1.483,0.012c0.103,0,0.232-0.102,0.406-0.31
		c0.172-0.198,0.33-0.55,0.473-1.048v0.012C452.936,51.773,452.643,51.576,452.502,51.388 M451.213,45.449l0.326-0.248l-1.096-0.295
		c-0.205,1.211-1.006,2.351-2.402,3.408c0.326,0.119,0.584,0.271,0.771,0.465c0.896-0.721,1.588-1.619,2.07-2.703
		c0.562,1.121,1.305,2.025,2.191,2.703c0.127-0.146,0.389-0.375,0.783-0.688C452.768,47.508,451.887,46.627,451.213,45.449
		 M447.641,50.725l0.014-1.068c0.361-0.016,0.75-0.016,1.156,0V49.07h-1.156v-1.049l0.107-0.283c0-0.035-0.301-0.078-0.9-0.125
		c0.029,0.106,0.049,0.597,0.068,1.467h-0.83c0.266-0.715,0.557-1.457,0.885-2.227h0.064c1.125,0,1.812,0.027,2.062,0.077v-0.772
		c-0.232,0.055-0.85,0.084-1.863,0.084c0.205-0.457,0.395-0.828,0.582-1.125l-0.938-0.399l-0.52,1.509
		c-0.699,0-1.146-0.018-1.334-0.066v0.764c0.119-0.029,0.479-0.051,1.096-0.066c-0.549,1.479-0.91,2.217-1.096,2.217l0.186,0.771
		c0.438-0.085,1.005-0.146,1.705-0.174v1.179c-0.668,0.108-1.325,0.2-1.982,0.258l0.277,0.865c0.391-0.092,0.959-0.22,1.719-0.374
		c-0.023,1.104-0.051,1.707-0.082,1.814h0.793v-1.959l1.459-0.256v-0.787C448.438,50.569,447.951,50.672,447.641,50.725"/>
</g>
<g>
	<path fill="#231815" stroke="#FFFFFF" stroke-width="0.5" stroke-miterlimit="10" d="M220.039,41.617h74.544v0.786l-5.829-0.006
		v0.823h-62.888v-0.901h-5.827V41.617z"/>
	<path fill="#F9BE00" stroke="#FFFFFF" stroke-width="0.5" stroke-miterlimit="10" d="M202.738,18.353
		c-0.713-0.045-1.595-0.252-2.869,0.05c-1.159,0.28-0.897,0.802-0.995,1.273c-0.098,0.46-0.32,2.505-0.19,2.835
		c0.117,0.317,1.553,1.107,2.476,1.442c0.897,0.337,1.601,0.571,2.517,0.474c0.841-0.085,1.817-0.833,2.018-0.926
		c0.191-0.102,0.736-0.336,0.736-0.336c-0.158-0.855-0.078-2.946-0.078-2.946c-0.51-1.309-1.726-1.874-1.903-1.872
		C204.285,18.35,203.455,18.396,202.738,18.353L202.738,18.353z M201.404,18.695c0.485,0.034,0.575,0.098,0.972,0.26
		c0.395,0.149,1.065,0.628,0.714,1.46c-0.349,0.845-1.299,1.479-1.657,1.547c-0.369,0.067-0.99,0.354-1.605,0.243
		c-0.319-0.046-0.488-0.351-0.447-1.321c0.031-0.971,0.139-1.749,0.494-1.968C200.229,18.683,200.892,18.662,201.404,18.695
		L201.404,18.695z"/>
	<path fill="#009844" stroke="#FFFFFF" stroke-width="0.5" stroke-miterlimit="10" d="M193.996,47.429c0,0,0.27,0.113,0.461,0.021
		c0.201-0.091,0.724-0.21,0.966-0.366c0.239-0.141,1.105-0.444,1.399-0.549c0.292-0.117,1.334-0.343,1.485-0.409
		c0.155-0.064,0.281-0.155,0.381-0.158c0.103,0,0.484-0.042,0.395-0.183c-0.104-0.125-0.64,0.032-0.854,0.023
		c-0.217-0.012-1.62,0.244-2.356,0.569s-1.229,0.651-1.471,0.767C194.148,47.262,193.996,47.429,193.996,47.429z M215.123,43.555
		c0,0,0.04,0.179-0.138,0.219c-0.317,0.08-0.45-0.148-0.677-0.173c-0.244-0.021-0.485,0.016-0.652-0.07
		c-0.167-0.101-0.218-0.125-0.6-0.121c-0.384-0.009-1.786-0.009-1.699-0.253c0.073-0.242,0.15-0.282,0.277-0.296
		c0.381-0.055,1.431,0.013,1.214-0.036c0.356,0.073,0.319,0.099,0.677,0.184c0.356,0.087,0.625,0.136,0.776,0.186
		c0.168,0.062,0.425,0.225,0.554,0.312C214.97,43.582,215.123,43.555,215.123,43.555z M213.24,38.866c0,0-0.06,0.307-0.251,0.219
		c-0.181-0.074-1.011-0.335-2.199-0.487c-1.187-0.157-2.219,0.097-2.706-0.064c-0.487-0.162-0.551-0.341-0.145-0.433
		c0.571-0.12,2.307-0.124,2.78-0.026C211.18,38.172,213.24,38.866,213.24,38.866L213.24,38.866z M188.764,41.828
		c0.57-0.324,0.915-0.441,1.206-0.611c0.293-0.183,0.468-0.501,0.619-0.542c0.14-0.024,0.525,0.124,0.78,0.032
		c0.267-0.105,0.597-0.4,0.774-0.441c0.179-0.026,0.994-0.278,1.311-0.307c0.815-0.084,0.814-0.276,1.106-0.29
		c0.537-0.043,0.444-0.159,1.044-0.38c1.537-0.616,11.207-3.257,18.397-0.812c0.295,0.1,0.667,0.097,0.998,0.194
		c0.348,0.1,0.399,0.148,0.413,0.315c0.013,0.165-0.097,0.6-0.036,0.637c0.079,0.052,0.093,0.255,0.324,0.253l-0.062,0.294
		c0.001,0.09-0.071,0.243-0.069,0.513l0.165,0.036c0,0,0.244,0.187,0.435,0.237c0,0-0.269,0.002-0.12,0.715
		c0.079,0.42-0.096,0.729-0.234,0.91c-0.125,0.179,0.015,0.277,0.247,0.303c0.381,0.048,0.216,0.112,0.343,0.212
		c0,0-0.713,0.007-1.03-0.002c-0.204-0.011-0.175,0.461-0.083,0.704c0.117,0.278,0.808,0.426,1.539,0.763
		c0.844,0.387,1.037,0.601,1.883,1.015c0,0-9.068-2.771-17.723-0.406c0,0-1.465,0.18-1.525,0.704c0,0,0.869-0.071,1.149,0.078
		c0,0-2.099,0.479-3.751,1.209c-1.638,0.729-2.46,1.273-4.275,2.361c-1.941,1.167-2.397,1.236-2.693,1.212
		c-0.292-0.036-0.256-0.188-0.362-0.455c-0.092-0.253-0.45-0.53-0.681-0.617c-0.218-0.075-0.613-0.085-0.766-0.146
		c-0.166-0.063-0.588-0.008-0.782-0.211c-0.193-0.189-0.202-1.12-0.14-1.262c0.064-0.152,0.118-1.06-0.074-1.236
		c-0.195-0.176-0.561,0.094-0.882-0.057c-0.321-0.161-0.412-0.531-0.506-1.039c-0.107-0.523-0.635-0.864-0.663-1.207
		c-0.031-0.574,0.261-0.756,0.552-0.963C185.896,43.321,188.195,42.163,188.764,41.828L188.764,41.828z"/>
	<path fill="#E50012" stroke="#FFFFFF" stroke-width="0.5" stroke-miterlimit="10" d="M193.349,23.467
		c-1.427,0.269-3.003,0.794-3.815,1.261c-0.826,0.468-2.399,1.235-2.743,1.48c-0.341,0.246-0.221,0.627-0.375,0.82
		c-0.15,0.204-0.302,0.359-0.3,0.501c0,0.151,1.079,2.183,1.079,2.183c0.063,0.1,0.067,0.177-0.022,0.306
		c-0.087,0.117-0.087,0.192-0.151,0.398c-0.074,0.204-0.21,0.587-0.132,0.727c0.09,0.153,0.205,0.126,0.167,0.292
		c-0.024,0.164,0.016,0.295,0.016,0.295s1.942-1.052,2.475-1.353c0.546-0.311,1.928-1.013,2.225-0.85
		c0.267,0.151-0.057,0.921-0.057,0.921c0.762-0.351,1.002-0.445,2.523-0.345c1.531,0.113,2.173,0.172,2.283,0.094
		c0.115-0.077,0.266-0.346,0.394-0.348c0.115-0.001,0.256,0.125,0.347,0.125c0.089-0.002,1.668-1.637,2.175-3.197
		c0.533-1.624,0.501-2.314-0.037-2.59c-0.476-0.25-1.217-0.384-1.577-0.622C197.312,23.238,194.775,23.187,193.349,23.467
		L193.349,23.467z M206.946,24.895c0,0-0.054,0.905-0.025,1.275c0.03,0.369-0.021,1.824-0.04,2.501
		c-0.031,0.663-0.324,2.147-0.577,2.354c-0.241,0.18-0.87,0.925-0.959,1.17c-0.085,0.256-0.174,0.358-0.34,0.438
		c-0.15,0.063-0.632,0.4-1.217,0.609c-0.599,0.197-0.761,0.53-1.653,0.68c-0.877,0.149-1.966-0.352-2.365-0.502
		c-0.395-0.161-0.764-0.08-0.764-0.08s1.188-1.11,0.992-1.541c-0.208-0.433,0.074-0.701,0.171-1.062
		c0.098-0.358-0.187-0.827-0.433-1.183c-0.235-0.354-0.364-0.542-0.149-0.801c0.214-0.257,0.604-0.962,0.603-1.129
		c0-0.179,0.453-0.667,0.678-0.963c0.24-0.295,0.569-0.479,0.876-0.532c0.317-0.066,1.146-0.15,1.908-0.464
		C204.324,25.403,204.969,24.927,206.946,24.895L206.946,24.895z M207.426,18.844c0,0,1.947-0.363,2.291-0.48
		c0.331-0.119,1.427-0.23,2.323,0.079c0.691,0.236,0.866,1.049,0.868,1.292c0.001,0.243,0.035,1.123,0.075,1.339
		c0.041,0.23,0.048,0.956,0.08,1.531c0.018,0.573-0.096,1.926-0.007,2.296c0.108,0.354,0.57,0.874,0.625,1.078
		c0.053,0.219,0.002,0.421-0.34,0.399c-0.345-0.011-0.951-0.349-1.269-0.269c-0.329,0.066-0.732,0.707-1.024,0.951
		c-0.29,0.259-0.988,0.737-1.329,0.997c-0.265,0.193-0.533,0.4-0.735,0.452c-0.205,0.053-0.474,0.069-0.694-0.39
		c-0.224-0.469-0.251-0.979-0.23-1.234c0.011-0.255-0.07-0.74-0.07-0.74s0.244,0.036,0.333,0.022
		c0.078-0.026,0.137-0.308-0.008-0.815c-0.157-0.521-0.44-0.951-0.405-2.433c0.039-1.479,0.268-2.644,0.085-3.049
		c-0.169-0.409-0.477-0.532-0.542-0.722l-0.078-0.204C207.336,18.855,207.426,18.844,207.426,18.844z M204.634,11
		c-1.006,0.048-2.619,0.955-3.726,2.663c-0.994,1.488-0.582,1.739-0.31,2.055c0.269,0.318,1.424,1.06,1.681,1.249
		c0.259,0.189,1.1,0.257,1.1,0.257c-0.029-0.345-0.385-0.393-0.286-0.622c0.085-0.244,1.308-0.422,1.703-0.283
		c0.834,0.259,1.724,1.31,1.893,1.461c0.179,0.163,0.551,0.44,0.973,0.463c0.434,0.033,0.918-0.048,1.307-0.753
		c0.263-0.475,0.754-1.182,0.877-1.615c0.124-0.448,0.22-1.139,0.213-1.737c-0.007-0.6,0.021-1.851-0.032-2.041
		c-0.054-0.191-0.664-0.249-1.111-0.308c-0.447-0.061-1.675-0.354-2.251-0.463C206.091,11.214,205.643,10.938,204.634,11z
		 M194.731,11.883l0.295-0.014c0.265-0.042,0.415-0.31,0.531-0.528c0.112-0.204,0.378-0.464,0.825-0.353
		c0.447,0.096,0.512,0.135,1.061,0.22c0.537,0.097,1.233-0.319,1.771-0.184c1.29,0.332,1.235,1.148,1.24,1.685
		c0.005,0.549-0.586,1.166-1.723,2.798c-1.749,2.529-1.879,4.583-1.558,5.09c0.326,0.521,0.419,0.979,0.293,1.096
		c-0.127,0.103-0.243,0.103-0.343,0.218c-0.088,0.119-0.242,0.093-0.394,0.159c-0.331,0.158-0.838,0.354-1.693,0.247
		c-0.883-0.107-1.497-0.356-1.704-0.572c-0.925-0.959-1.308-2.31-1.509-3.289c-0.215-0.98,0.029-2.31,0.213-3.179
		c0.195-0.855,0.365-2.822,1.275-4.029c0.189-0.271,0.583-0.285,0.673-0.185c0,0-0.046,0.435,0.045,0.675
		c0.079,0.243,0.219,0.165,0.22,0.279c0.001,0.103,0.103,0.127,0.242,0.061C194.568,12.037,194.529,11.922,194.731,11.883
		L194.731,11.883z"/>
	<path fill="#231815" stroke="#FFFFFF" stroke-width="0.5" stroke-miterlimit="10" d="M234.042,14.596c0,0,2.585-0.774,6.306,0.511
		c0,0,1.242,0.554,2.031,1.474c0,0,0.336,1.271,0.071,1.534c0,0,0.161,0.788-2.669,0.743c0,0-1.841,0.337-2.102,0.6
		c-0.519,0.211-0.799,0.342-1.14,0.453c0,0,0.262,0.262,2.814-0.263c0,0,2.791-0.613,4.894-0.483c0,0,2.188,0.03,2.843,0.817
		c0.25,0.721,0.9,2.145,1.009,2.231c0.016-0.043-2.908,0.237-4.116-0.348c0,0,0.015-0.409,0.279-0.628c0,0,0.247-0.467-1.853-0.219
		c0,0-4.993,0.466-7.622,1.254c0.224,0-2.883,0.79-3.022,1.184c0,0,2.512,0.028,4.22,1.343c0,0,1.286,0.438,0.116,3.913
		c-0.001-0.006-0.45,1.52-1.634,3.414c0,0-1.386,1.973-1.518,2.365c0,0-1.957-0.482-4.848,2.41c-0.746-0.373-1.16-0.077-1.692,0.375
		c0.856-0.971,2.277-2.596,2.277-3.062c0-0.378-0.885,0.861-1.444,1.21c0.139-0.052,1.366-1.669,1.635-2.378
		c0,0,1.752-2.89,1.488-7.224c0,0,0.219-0.396-0.701-1.447c-0.103-0.068,0.073-0.219,0.467-0.395c0,0-0.088-0.308-1.515,0.133
		c0,0-0.701,0.51-2.149-0.147c0,0,0.103-0.277,0.511-0.511c-0.074,0.053,2.139-1.117,3.957-1.752
		c1.734-0.604,1.998-0.788,3.898-1.226c0.117,0.118,0.663-1.96-1.356-0.876c-0.249,0.134-0.527,0.374-0.921,0.541
		c0.024,0.017,0.535-0.335,0.951-0.813c0.444-0.513,0.999-0.874,1.298-1.056c0,0,0.012-2.833-1.752-3.591L234.042,14.596z
		 M271.461,36.315c-0.433-0.404-0.902-1.159-1.011-1.727c-0.161-0.84-0.073-1.092,0.302-1.092c0.514,0,0.976,1.109,0.976,1.109
		s0.927,0.492,0.883,0.743C272.518,35.893,271.574,36.321,271.461,36.315z M279.484,24.722c0,0-1.02-0.203-1.652-0.413
		c-0.627-0.21-3.878,0.246-6.104,2.896c-1.601,1.908-0.558,3.559,0.485,4.255c1.047,0.695,3.116,1.277,3.881,0.994
		c0.763-0.276,2.345-2.645,2.718-4.108C279.178,26.883,279.484,24.722,279.484,24.722z M271.352,12.889
		c-0.757,5.104-3.044,7.832-3.044,7.832s1.045-1.205,1.272-1.343c0.174-0.107,0.344,0.138,0.307,0.34
		c-0.03,0.199-0.12,0.409-0.12,0.409s0.822-0.935,1.118-0.941c0.495-0.011,0.406,0.402,0.939,0.419
		c0.907,0.036,1.603-1.414,1.603-1.414l1.014,0.126c1.146-2.393,3.574-2.7,3.574-2.7c-0.479,3.559-5.7,5.28-5.7,5.28
		s-0.735-0.422-0.968-0.337c-0.243,0.078-0.396,0.415-0.444,0.606c-0.049,0.186-0.673,1.513-0.875,1.95
		c-0.212,0.435-0.815,2.379-0.936,2.878c-0.118,0.491-0.738,4.526-0.835,5.866c-0.101,1.337-0.07,5.985,1.459,7.454
		c1.529,1.472,3.208,0.902,4.407-0.09c1.199-0.988,2.099-2.04,2.099-2.04s1.591,0.511,3.508,0.029
		c1.923-0.478,3.749-1.407,4.679-1.738c0.931-0.33,2.286-0.27,3-1.05c0.557-0.61,0.343-1.367,0.122-1.78
		c-0.757-1.411,0.274-1.386,0.274-1.386c-1.799,0.096-1.762-0.168-1.323-0.378c0.375-0.18,1.054-0.307,1.054-0.307
		s0.564-0.115,0.457-0.436c-0.091-0.265-0.398-0.487-0.056-0.765c0.241-0.197,1.087-0.532,1.087-0.532
		c-2.641,0.017-4.205,0.551-5.524,1.043c-1.321,0.497-2.506,1.354-3.238,1.758c-0.898,0.491-1.669,0.311-1.669,0.311
		c0.621-1.241,0.931-3.401,0.931-3.401s-0.481-1.497,0.051-2.788c0.516-1.289,0.787-3.047,0.477-3.438
		c-0.319-0.391-0.528-0.553-2.897-0.15c-2.372,0.408-3.808,1.716-4.618,2.347c-1.5,1.156-2.561,4.02-2.561,4.02
		c0.24-5.01,2.292-6.799,2.292-6.799s3.263-0.754,3.797-0.945c3.111-1.141,4.257-2.413,4.257-2.413l-0.019-1.499
		c-1.108-0.467-1.302-1.829-1.302-1.829s0.413-0.175,0.638-0.278c0.221-0.106,0.492-0.244,0.581-0.094
		c0.09,0.143,0,0.221,0.151,0.279c0.154,0.055,0.834-0.089,1.105-0.202c0.269-0.107,0.855-0.218,0.855-0.218
		c-0.563-0.599-0.816-1.077-0.816-1.077c-0.946,0.347-1.739,0.389-2.26,0.49c-0.518,0.107-1.484,0.498-2.119,0.857
		c-0.643,0.36-1.823,1.211-2.215,1.157c-0.269-0.042-0.197-0.268,0.085-0.492c0.278-0.215,0.426-0.305,0.577-0.688
		c0.151-0.378,1.56-1.608,1.733-2.017c0.166-0.414,0.181-0.939,0.181-0.939c-1.123-0.871-2.893-0.854-3.894-0.901
		c-0.998-0.048-2.513,0.025-2.513,0.025S271.616,11.102,271.352,12.889L271.352,12.889z M264.357,20.53
		c2.272,1.39,1.438,4.87,0.982,6.052c-0.451,1.181-1.114,2.296-1.633,2.471c-0.515,0.167-1.479-0.132-1.479-0.132
		s0.365,0.281-0.192,1.698c-0.967,2.451-0.151,3.281-0.151,3.281s1.03-0.219,1.307-0.283c0.283-0.067,1.632-1.582,2.063-2.142
		c0.428-0.558,0.708-1.523,0.966-2.679c0.336-1.502,0.77-4.115,0.493-6.378c-0.11-0.863-0.319-1.396-0.319-1.396
		s-0.143,0.102-0.51-0.096C265.334,20.632,264.357,20.53,264.357,20.53z M261.057,12.895c0,0,0.313-0.015,1.092-0.247
		c0.822-0.24,1.952-0.271,2.413,0.03c0.455,0.301,1.361,1.974,1.572,2.839c0.298,1.216-0.077,1.613-0.077,1.613
		s1.616-0.319,1.952-0.319c0.342,0,1.22,0.361,1.22,0.516c0,0.162,0,0.505-0.482,0.683c-0.479,0.183-1.337-0.059-1.755-0.082
		c-0.417-0.019-0.717,0-0.858,0.239c-0.138,0.241-0.077,0.763-0.138,0.943c-0.123,0.376-0.38,0.395-0.38,0.395
		s-0.076-0.678-0.197-0.978c-0.12-0.299-0.48-0.156-0.658,0c-0.182,0.161-0.539,0.918-0.84,1.236
		c-0.524,0.558-1.682,1.828-2.729,5.229c-1.681,5.383-1.405,12.013-1.405,12.013s-0.767-0.678-0.767-0.958
		c0-0.726,0.095-5.957,0.947-10.341c0.641-3.311,2.562-5.938,2.562-5.938s-2.029,1.015-2.456,1.368
		c-0.425,0.359-0.992,0.919-1.255,1.049c-0.259,0.126-0.458-0.084-0.705-0.018c-0.246,0.066-0.959,0.097-0.959,0.097
		s0.57-0.438,1.223-0.96c1.297-1.038,6.388-3.742,6.388-3.742l-0.587-0.979c-0.541-0.899-1.913-3.017-2.649-3.496
		C261.428,13.021,261.057,12.895,261.057,12.895L261.057,12.895z M249.234,24.284c0,0-0.687,0.391-0.917,0.48
		c-0.22,0.09-0.586,0.558-0.526,0.829c0.06,0.274,0.394,0.405,0.846,0.725c0.449,0.312,1.355,0.868,1.355,0.868
		s0.293,0.349,1.207-1.288c0.839-1.523,1.198-1.655,1.349-1.565c0.15,0.09,0.227,0.21,0.227,0.21
		c-0.78,0.57-1.067,1.788-1.245,2.435c-0.181,0.647-0.835,2.739-0.467,3.749c0.253,0.688,0.795,0.829,1.126,1.085
		c0.329,0.252,1.292,0.84,1.476,1.465c0.181,0.634-0.472,0.737-0.472,0.737s0.597-0.133,0.852,0.107
		c0.242,0.234,0.363,0.36,0.512,0.421c0.149,0.061,0.357,0.271,0.9,0.307c0.537,0.037,0.383-0.452,0.383-0.607
		c0-0.15-0.354-1.324-1.536-2.177c-1.078-0.78-1.962-0.852-2.255-1.08c-0.424-0.335-0.688-1.355-0.549-2.369
		c0.132-1.009,0.495-2.494,0.887-2.886c0.395-0.394,1.018-1.323,1.397-1.684c0.457-0.439,0.653-0.349,0.653-0.349
		s-0.09-0.105-0.119-0.279l-0.09-0.271c-0.023-0.097,0.013-0.204,0.013-0.204s-1.261,0.03-1.448,0.082
		c-0.193,0.056-0.178,0.114-0.403,0.168c-0.226,0.055-0.532,0.246-0.801,0.504c-0.273,0.252-0.521,0.815-1.531,1.146
		C248.33,25.405,249.234,24.284,249.234,24.284z M251.199,18.383c0,0,1.547,0.685,1.407,2.441c-0.04,0.642-0.67,0.814-1.097,1.068
		c-0.421,0.256-0.809,0.3-1.385,1.745c0,0-0.042-0.303-0.192-0.65c-0.148-0.346-0.197-1.636-0.018-2.343
		c0.188-0.709,0.606-1.835,0.05-2.322L251.199,18.383L251.199,18.383z M292.475,10.923c1.16,0,2.107,0.946,2.107,2.107
		c0,1.16-0.947,2.108-2.107,2.108c-1.162,0-2.107-0.948-2.107-2.108C290.368,11.869,291.313,10.923,292.475,10.923z M292.475,11.282
		c-0.962,0-1.75,0.785-1.75,1.748c0,0.962,0.788,1.747,1.75,1.747c0.962,0,1.748-0.785,1.748-1.747
		C294.223,12.067,293.437,11.282,292.475,11.282z M291.6,14.178h0.47V13.28h0.495c0.169,0,0.274,0.032,0.323,0.1
		c0.033,0.047,0.052,0.16,0.052,0.334l0.012,0.274l0.041,0.19h0.529v-0.061c-0.049-0.019-0.08-0.054-0.088-0.105
		c-0.012-0.053-0.015-0.171-0.015-0.353c0-0.198-0.024-0.339-0.072-0.421c-0.039-0.058-0.111-0.11-0.22-0.16
		c0.109-0.038,0.199-0.106,0.261-0.207c0.062-0.099,0.093-0.213,0.093-0.34c0-0.209-0.073-0.375-0.226-0.498
		c-0.121-0.101-0.285-0.149-0.495-0.149h-1.16L291.6,14.178L291.6,14.178z M292.069,12.893h0.561c0.13,0,0.224-0.023,0.282-0.072
		c0.06-0.047,0.09-0.127,0.09-0.242c0-0.078-0.022-0.144-0.06-0.193c-0.058-0.07-0.149-0.106-0.278-0.106h-0.597L292.069,12.893
		L292.069,12.893z"/>
	<path fill="#E50012" stroke="#FFFFFF" stroke-width="0.5" stroke-miterlimit="10" d="M230.066,47.632
		c-0.179-0.169-0.362-0.297-0.548-0.377c-0.183-0.087-0.381-0.127-0.585-0.127c-0.323,0-0.58,0.098-0.775,0.29
		c-0.193,0.196-0.293,0.455-0.293,0.78c0,0.315,0.091,0.568,0.278,0.754c0.186,0.19,0.436,0.284,0.75,0.284
		c0.188,0,0.379-0.04,0.575-0.119c0.196-0.08,0.409-0.204,0.639-0.38l-0.063,2.024c-0.214,0.087-0.428,0.15-0.64,0.193
		c-0.212,0.043-0.428,0.064-0.641,0.064c-0.266,0-0.522-0.03-0.767-0.089c-0.248-0.059-0.468-0.142-0.666-0.252
		c-0.48-0.271-0.846-0.618-1.091-1.038c-0.25-0.419-0.374-0.9-0.374-1.442c0-0.402,0.072-0.775,0.214-1.119
		c0.139-0.342,0.342-0.646,0.61-0.907c0.271-0.263,0.584-0.463,0.938-0.601c0.357-0.137,0.745-0.205,1.158-0.205
		c0.222,0,0.438,0.023,0.654,0.068c0.214,0.046,0.422,0.113,0.627,0.205L230.066,47.632L230.066,47.632z M247.708,47.688h3.004
		l0.011,0.246l0.003,0.144c0,0.309-0.031,0.59-0.09,0.843c-0.059,0.255-0.146,0.483-0.26,0.679
		c-0.276,0.461-0.638,0.812-1.076,1.058c-0.442,0.243-0.939,0.364-1.497,0.364c-0.413,0-0.795-0.068-1.15-0.205
		c-0.352-0.135-0.668-0.337-0.939-0.6c-0.272-0.265-0.477-0.566-0.615-0.907c-0.14-0.342-0.208-0.712-0.208-1.109
		c0-0.401,0.068-0.775,0.211-1.117c0.14-0.341,0.344-0.641,0.612-0.9c0.27-0.262,0.584-0.463,0.939-0.6s0.737-0.207,1.15-0.207
		c0.559,0,1.055,0.121,1.488,0.365c0.435,0.238,0.789,0.594,1.063,1.059l-1.397,0.494c-0.248-0.446-0.624-0.591-1.107-0.591
		c-0.762,0-1.232,0.584-1.232,1.485c0,0.9,0.471,1.46,1.232,1.46c0.622,0,1.047-0.312,1.223-0.979h-1.366L247.708,47.688
		L247.708,47.688z M266.198,50.877c-0.651-0.038-0.919-0.277-0.817-0.756l1.945-3.023h-1.906v-1.602h3.665
		c0.561,0.021,0.939,0.194,0.92,0.704l-1.931,3.02h2.104v1.657H266.198z M284.883,49.956v-4.461h1.965v3.636h1.906v1.746h-2.74
		C285.322,50.884,284.949,50.575,284.883,49.956z"/>
</g>
</svg>
