<?xml version="1.0" encoding="utf-8"?>
<!-- Generator: Adobe Illustrator 16.0.0, SVG Export Plug-In . SVG Version: 6.00 Build 0)  -->
<!DOCTYPE svg PUBLIC "-//W3C//DTD SVG 1.1//EN" "http://www.w3.org/Graphics/SVG/1.1/DTD/svg11.dtd">
<svg version="1.1" id="图层_1" xmlns="http://www.w3.org/2000/svg" xmlns:xlink="http://www.w3.org/1999/xlink" x="0px" y="0px"
	 width="48px" height="48px" viewBox="0 0 48 48" enable-background="new 0 0 48 48" xml:space="preserve">
<path id="a" fill="#FFFFFF" d="M23.996,3.18C12.507,3.18,3.192,12.504,3.192,24s9.314,20.816,20.804,20.816
	c11.492,0,20.807-9.32,20.807-20.816S35.488,3.18,23.996,3.18z M24.001,48.016C10.744,48.016,0,37.262,0,24.001
	C0,10.736,10.744-0.016,24.001-0.016C37.255-0.016,48,10.736,48,24.001C48,37.262,37.255,48.016,24.001,48.016z"/>
<g>
	<polygon fill="#FFFFFF" points="22.593,29.714 22.779,18.223 29.508,10.849 29.508,37.151 	"/>
	<path fill="#FFFFFF" d="M23.254,29.965h-6.526c-1.233,0-2.235-1.002-2.235-2.232v-7.458c0-1.235,1.002-2.238,2.235-2.238h6.526
		c1.236,0,2.238,1.003,2.238,2.238v7.458C25.492,28.963,24.49,29.965,23.254,29.965z"/>
</g>
</svg>
